<svg xmlns="http://www.w3.org/2000/svg" viewBox="0 0 238.26 102.12"><g id="Layer_2" data-name="Layer 2"><g id="Layer_1-2" data-name="Layer 1"><path d="M20.33,40.24a21.88,21.88,0,0,1-10.67-2.5,17.75,17.75,0,0,1-7.12-7A20.93,20.93,0,0,1,0,20.22,20.92,20.92,0,0,1,2.54,9.73a17.82,17.82,0,0,1,7.12-7A21.88,21.88,0,0,1,20.33.2,21.94,21.94,0,0,1,31,2.71a18,18,0,0,1,7.14,7A20.82,20.82,0,0,1,40.7,20.22a20.84,20.84,0,0,1-2.56,10.5,17.93,17.93,0,0,1-7.14,7A21.93,21.93,0,0,1,20.33,40.24Zm0-8.65a13,13,0,0,0,6.17-1.36,9.52,9.52,0,0,0,4-3.91,12.47,12.47,0,0,0,1.41-6.1,12.46,12.46,0,0,0-1.41-6.09,9.6,9.6,0,0,0-4-3.92,13.16,13.16,0,0,0-6.17-1.35,13,13,0,0,0-6.13,1.35,9.71,9.71,0,0,0-4,3.92,12.24,12.24,0,0,0-1.43,6.09,12.26,12.26,0,0,0,1.43,6.1,9.63,9.63,0,0,0,4,3.91A12.93,12.93,0,0,0,20.33,31.59Z"/><path d="M56.37,40.19a11.31,11.31,0,0,1-6.26-1.66,10.53,10.53,0,0,1-4-4.74,17.93,17.93,0,0,1-1.36-7.27V10.24h8.58v14.9a8.44,8.44,0,0,0,1.52,5.43,5.28,5.28,0,0,0,4.38,1.89,6.36,6.36,0,0,0,3.59-1,6.28,6.28,0,0,0,2.29-2.82,10.93,10.93,0,0,0,.8-4.35l2.67,1.59a20.63,20.63,0,0,1-2.18,7.81,12.66,12.66,0,0,1-4.34,4.83A10.49,10.49,0,0,1,56.37,40.19Zm11.25-.76L66,28.06V10.24h8.58V29.49l1.65,9.94Z"/><path d="M77.85,17.31V13.16L83.29,11,87,2.46h4.89v7.78H103.2v7.07H91.87v9.62c0,2.19.39,3.71,1.19,4.58s2.23,1.31,4.29,1.31a14.42,14.42,0,0,0,3.48-.38,15.05,15.05,0,0,0,2.84-1v7.22a20.43,20.43,0,0,1-3.62,1.12,20.82,20.82,0,0,1-4.64.51,14.21,14.21,0,0,1-6.89-1.48,9.12,9.12,0,0,1-4-4.17,14.65,14.65,0,0,1-1.27-6.33v-11Z"/><path d="M132.93,24.83A23.58,23.58,0,0,1,130.31,33a15,15,0,0,1-4.89,5.37,12.65,12.65,0,0,1-13.43,0,13.09,13.09,0,0,1-4.59-5.4,18.43,18.43,0,0,1-1.66-8.07,18.36,18.36,0,0,1,1.66-8.06,13,13,0,0,1,4.59-5.4,12.62,12.62,0,0,1,13.43,0,15.33,15.33,0,0,1,4.91,5.35A22.35,22.35,0,0,1,132.93,24.83Zm-18.52,0a9.61,9.61,0,0,0,.87,4.18,7.08,7.08,0,0,0,2.42,2.86,6.2,6.2,0,0,0,3.57,1.05,7.56,7.56,0,0,0,3.85-1.05A11,11,0,0,0,128.33,29a12.88,12.88,0,0,0,2.07-4.18,12.73,12.73,0,0,0-2.07-4.17,11,11,0,0,0-3.21-2.87,7.56,7.56,0,0,0-3.85-1.05,6.2,6.2,0,0,0-3.57,1.05,7.11,7.11,0,0,0-2.42,2.87A9.54,9.54,0,0,0,114.41,24.83ZM131,39.43l-1.15-11,1.57-3.48-1.52-4.41L132,0h8.89l-2.62,24.12,1.56,15.31Z"/><path d="M159.81,40.24a18.55,18.55,0,0,1-8.71-1.94,14.3,14.3,0,0,1-5.81-5.43,15.43,15.43,0,0,1-2.08-8,15.38,15.38,0,0,1,2.08-8.06,14.17,14.17,0,0,1,5.83-5.4,20.43,20.43,0,0,1,17.42,0,14.17,14.17,0,0,1,5.83,5.4,15.28,15.28,0,0,1,2.08,8.06,15.35,15.35,0,0,1-2.08,8.07,14.3,14.3,0,0,1-5.83,5.4A18.66,18.66,0,0,1,159.81,40.24Zm0-7.16a8.75,8.75,0,0,0,4.31-1,6.77,6.77,0,0,0,2.72-2.84,9.57,9.57,0,0,0,.94-4.41,9.55,9.55,0,0,0-.94-4.4,6.66,6.66,0,0,0-2.72-2.84,8.64,8.64,0,0,0-4.31-1,8.55,8.55,0,0,0-4.24,1,6.77,6.77,0,0,0-2.77,2.84,9.43,9.43,0,0,0-1,4.4,9.44,9.44,0,0,0,1,4.41,6.89,6.89,0,0,0,2.77,2.84A8.66,8.66,0,0,0,159.81,33.08Z"/><path d="M196,40.24a18.55,18.55,0,0,1-8.71-1.94,14.3,14.3,0,0,1-5.81-5.43,15.43,15.43,0,0,1-2.07-8,15.37,15.37,0,0,1,2.07-8.06,14.23,14.23,0,0,1,5.83-5.4,20.45,20.45,0,0,1,17.43,0,14.29,14.29,0,0,1,5.83,5.4,15.37,15.37,0,0,1,2.07,8.06,15.43,15.43,0,0,1-2.07,8.07,14.42,14.42,0,0,1-5.83,5.4A18.73,18.73,0,0,1,196,40.24Zm0-7.16a8.72,8.72,0,0,0,4.31-1A6.77,6.77,0,0,0,203,29.24a9.57,9.57,0,0,0,.95-4.41,9.55,9.55,0,0,0-.95-4.4,6.66,6.66,0,0,0-2.72-2.84,9.64,9.64,0,0,0-8.55,0A6.69,6.69,0,0,0,189,20.43a9.31,9.31,0,0,0-1,4.4,9.32,9.32,0,0,0,1,4.41,6.81,6.81,0,0,0,2.76,2.84A8.66,8.66,0,0,0,196,33.08Z"/><path d="M215.49,10.24h8.67l1.56,10.5V39.43h-8.57V20Zm22.77-.41V18a21.83,21.83,0,0,0-2.47-.46,18.4,18.4,0,0,0-2.23-.15,7.93,7.93,0,0,0-4,1,6.86,6.86,0,0,0-2.81,3.15,12.89,12.89,0,0,0-1,5.58L224,24.78a37.78,37.78,0,0,1,1.06-5.89,18.66,18.66,0,0,1,2-4.89,10.19,10.19,0,0,1,3.2-3.35,8.37,8.37,0,0,1,4.63-1.23,16.38,16.38,0,0,1,1.66.1A11.92,11.92,0,0,1,238.26,9.83Z"/><path d="M36.16,75.84l1-2.53a21.44,21.44,0,0,1,8.9,1.84,11.76,11.76,0,0,1,5.18,4.69,13.54,13.54,0,0,1,1.69,6.81,15.6,15.6,0,0,1-1.72,7.43,12.24,12.24,0,0,1-5.15,5.1A17.8,17.8,0,0,1,37.52,101H4.24L7.82,74.68l-3.58-25H36.35q6.4,0,9.95,3.32t3.54,9.14a14.62,14.62,0,0,1-1.35,6.16,12.1,12.1,0,0,1-4.32,5A17.45,17.45,0,0,1,36.16,75.84Zm-20.45,22-4.44-6.09H34.75a6.58,6.58,0,0,0,4.71-1.61,6,6,0,0,0,1.69-4.55,6.07,6.07,0,0,0-1.88-4.69,7.88,7.88,0,0,0-5.57-1.75H14.47v-9H32.22a5.62,5.62,0,0,0,5.85-6,5.14,5.14,0,0,0-1.44-3.73,5.52,5.52,0,0,0-4.1-1.47H11.33l4.38-6.09L19,74.68Z"/><path d="M58.53,48.32h11.4V101H58.53Z"/><path d="M83.05,57.91a7.06,7.06,0,0,1-4.93-1.75,6,6,0,0,1-1.91-4.62,5.94,5.94,0,0,1,1.91-4.65,7.14,7.14,0,0,1,4.93-1.72A7,7,0,0,1,88,46.89a6,6,0,0,1,1.85,4.65A6,6,0,0,1,88,56.16,6.89,6.89,0,0,1,83.05,57.91Zm-5.73,3.56L83,62.77l5.73-1.3V101H77.32Z"/><path d="M94.45,62h11.4l2.28,15.2V101H96.67V75.29Zm26.81-1.09a15.84,15.84,0,0,1,8.59,2.22,14.42,14.42,0,0,1,5.43,6.33,23.43,23.43,0,0,1,1.87,9.79V101H125.69V81.18q0-4.86-2.15-7.36a7.7,7.7,0,0,0-6.16-2.5,8.52,8.52,0,0,0-8.11,5.1,13.51,13.51,0,0,0-1.14,5.78l-3.63-2.12a27.24,27.24,0,0,1,3-10.47,17.55,17.55,0,0,1,5.91-6.47A14.39,14.39,0,0,1,121.26,60.92Z"/><path d="M178.81,81.52a31.7,31.7,0,0,1-3.51,10.85,20.2,20.2,0,0,1-6.54,7.19,16.92,16.92,0,0,1-18,0,17.55,17.55,0,0,1-6.13-7.22,24.62,24.62,0,0,1-2.22-10.78,24.62,24.62,0,0,1,2.22-10.78,17.55,17.55,0,0,1,6.13-7.22,16.92,16.92,0,0,1,18,0,20.52,20.52,0,0,1,6.57,7.16A30.09,30.09,0,0,1,178.81,81.52Zm-24.77,0a12.71,12.71,0,0,0,1.17,5.58,9.5,9.5,0,0,0,3.23,3.83,8.27,8.27,0,0,0,4.78,1.4,10.06,10.06,0,0,0,5.14-1.4,14.37,14.37,0,0,0,4.29-3.83,17.16,17.16,0,0,0,2.77-5.58,17.16,17.16,0,0,0-2.77-5.58,14.37,14.37,0,0,0-4.29-3.83,10.06,10.06,0,0,0-5.14-1.4,8.27,8.27,0,0,0-4.78,1.4,9.5,9.5,0,0,0-3.23,3.83A12.71,12.71,0,0,0,154,81.52ZM176.16,101l-1.54-14.72,2.09-4.65-2-5.89,2.83-27.45h11.9l-3.52,32.24L188,101Z"/><path d="M234,88.5a11.94,11.94,0,0,1-2.31,7.43,14.11,14.11,0,0,1-6.75,4.62,32.41,32.41,0,0,1-10.78,1.57,32.85,32.85,0,0,1-11.34-1.78,17.47,17.47,0,0,1-7.58-5,12.05,12.05,0,0,1-2.89-7.46H204a5.74,5.74,0,0,0,1.76,3,8.76,8.76,0,0,0,3.6,1.95,18.9,18.9,0,0,0,5.24.65,15.37,15.37,0,0,0,6.16-1,3.08,3.08,0,0,0,2.1-2.87,2.37,2.37,0,0,0-1.51-2.19,16.58,16.58,0,0,0-5.4-1.1l-6.4-.55a28.89,28.89,0,0,1-9.62-2.12,11,11,0,0,1-5.08-4.17,10.88,10.88,0,0,1-1.51-5.69,10.73,10.73,0,0,1,2.43-7.18,14.74,14.74,0,0,1,6.75-4.32,32.32,32.32,0,0,1,10.11-1.43A29.08,29.08,0,0,1,223,62.63a18.4,18.4,0,0,1,7.27,4.72,11.83,11.83,0,0,1,3.11,7.05H221.7a5.07,5.07,0,0,0-1.33-2.53A7.63,7.63,0,0,0,217.29,70a15.7,15.7,0,0,0-5.21-.72,13.6,13.6,0,0,0-5.54.89,2.8,2.8,0,0,0-1.91,2.6,2.32,2.32,0,0,0,1.17,2,11.24,11.24,0,0,0,4.43,1.1l8.32.68a29.35,29.35,0,0,1,9.28,2.09,10.11,10.11,0,0,1,4.77,4A11.46,11.46,0,0,1,234,88.5Z"/></g></g></svg>