<svg xmlns="http://www.w3.org/2000/svg" viewBox="0 0 110.49 31.26"><defs><style>.cls-1{fill:#ee7e22;}.cls-2{fill:#65368d;}.cls-3{fill:#e65125;}.cls-4{fill:#7a1543;}.cls-5{fill:#48326b;}.cls-6{fill:#353535;}</style></defs><g id="Layer_2" data-name="Layer 2"><g id="Layer_1-2" data-name="Layer 1"><path class="cls-1" d="M5.33,11C4.94,9.58,4.2,8.67,2.9,8.76H22.29A2.71,2.71,0,0,1,24.68,13l-5.34,9.39L15,29.8a2.85,2.85,0,0,1-5.26-.74Z"/><path class="cls-2" d="M36.6,20.32a2.77,2.77,0,0,0,3,2.18H20.12a2.87,2.87,0,0,1-2.48-4.31l5.43-9.35,4.31-7.39a2.85,2.85,0,0,1,5.26.74l1.91,8.13Z"/><path class="cls-3" d="M7.73,20.71a7.17,7.17,0,0,0-.87-1.21l-6-5.79A2.9,2.9,0,0,1,2.29,8.8a2.48,2.48,0,0,1,3,2.18Z"/><path class="cls-4" d="M17.64,18.19a2.84,2.84,0,0,0,1.7,4.22L24.68,13a2.71,2.71,0,0,0-1.61-4.18l-5.43,9.4Z"/><path class="cls-5" d="M41,17.54a2.89,2.89,0,0,1-1.39,4.91,2.73,2.73,0,0,1-3-2v-.22c-.05,0-2.09-9.87-2.09-9.87L41,17.54Z"/><path class="cls-6" d="M47.79,6.13h9.1V7.9H49.78v5.47H56.3v1.77H49.78v5.95H57v1.76H47.79Z"/><path class="cls-6" d="M58.83,10.91h1.86V8.55L62.6,8v2.91h3.25v1.67H62.6V19.2A3.65,3.65,0,0,0,62.91,21a1.12,1.12,0,0,0,1.05.52A4,4,0,0,0,65,21.34c.28-.09.6-.21,1-.35l.43,1.46A8.06,8.06,0,0,1,65,23a6.67,6.67,0,0,1-1.65.19,2.36,2.36,0,0,1-2.05-.82,4.82,4.82,0,0,1-.6-2.76v-7H58.83Z"/><path class="cls-6" d="M68.5,7.28a1.34,1.34,0,0,1,.37-.94,1.22,1.22,0,0,1,.95-.4,1.31,1.31,0,0,1,1,.4,1.22,1.22,0,0,1,.41.94,1.13,1.13,0,0,1-.41.91,1.4,1.4,0,0,1-1,.36,1.31,1.31,0,0,1-.95-.36A1.24,1.24,0,0,1,68.5,7.28Zm.41,3.63h1.91V22.85H68.91Z"/><path class="cls-6" d="M81.9,22.85V16.09a15.9,15.9,0,0,0-.08-1.66,3.68,3.68,0,0,0-.32-1.18,1.64,1.64,0,0,0-.68-.72,2.91,2.91,0,0,0-3,.44,3.54,3.54,0,0,0-1,1.67v8.21H74.9V10.91h1.34l.36,1.46h.1a5.61,5.61,0,0,1,1.49-1.26,4.44,4.44,0,0,1,2.21-.49,3.5,3.5,0,0,1,1.87.45,2.81,2.81,0,0,1,1.14,1.54,3.86,3.86,0,0,1,1.51-1.46,4.55,4.55,0,0,1,2.19-.53,5.59,5.59,0,0,1,1.7.23,2.36,2.36,0,0,1,1.14.8,3.76,3.76,0,0,1,.66,1.55,13.09,13.09,0,0,1,.2,2.49v7.16H88.9V15.66a12.74,12.74,0,0,0-.08-1.49,2.76,2.76,0,0,0-.34-1.05,1.48,1.48,0,0,0-.69-.62,2.72,2.72,0,0,0-1.16-.2,2.48,2.48,0,0,0-1.86.67,3.79,3.79,0,0,0-1,1.91v8Z"/><path class="cls-6" d="M94.3,7.28a1.3,1.3,0,0,1,.37-.94,1.22,1.22,0,0,1,.94-.4,1.32,1.32,0,0,1,1,.4,1.26,1.26,0,0,1,.41.94,1.16,1.16,0,0,1-.41.91,1.41,1.41,0,0,1-1,.36,1.3,1.3,0,0,1-.94-.36A1.2,1.2,0,0,1,94.3,7.28Zm.41,3.63h1.91V22.85H94.71Z"/><path class="cls-6" d="M103.83,16.74l-4-5.83h2.34l2.27,3.3.67,1.36.69-1.36,2.32-3.3h2.14l-4,5.73,4.27,6.21h-2.27l-2.53-3.63L105,17.79l-.74,1.43-2.58,3.63H99.53Z"/></g></g></svg>