<svg xmlns="http://www.w3.org/2000/svg" viewBox="0 0 223.44 35.54"><defs><style>.cls-1{fill:#2bff30;}</style></defs><g id="Layer_2" data-name="Layer 2"><g id="Layer_1-2" data-name="Layer 1"><rect class="cls-1" width="223.44" height="35.54" rx="17.77"/><path d="M23.48,15.25l-1.5.57-1.49.58q0-.93-.51-.93a2,2,0,0,0-1.46.83,1.51,1.51,0,0,0-.44,1.19c0,.25.29.37.75.37a5.43,5.43,0,0,0,1-.12,7.32,7.32,0,0,1,1.5-.17c1.11,0,1.76.38,1.94,1.14a3.08,3.08,0,0,1,.08.75,5,5,0,0,1-.95,2.73A10,10,0,0,1,19,25.42a4.49,4.49,0,0,1-2.29.69,3.91,3.91,0,0,1-2-.58c.33-.79.86-2,1.58-3.5a2.34,2.34,0,0,0,1.35.44,2.14,2.14,0,0,0,.65-.1,5.34,5.34,0,0,0,1.17-.45c.52-.29.79-.59.79-.89s-.27-.5-.81-.5a8.64,8.64,0,0,0-1.62.23,8.46,8.46,0,0,1-1.61.23A2,2,0,0,1,15,20.71a1.53,1.53,0,0,1-.64-1.6C14.55,17.64,15.5,16,17.21,14s3.26-3,4.53-3.11,1.84.84,1.84,2.77A13.06,13.06,0,0,1,23.48,15.25Z"/><path d="M25.72,11.75l3.39-.63a94.37,94.37,0,0,0-2,9.29L29,19.62l1.38-7.87,3.38-.63a103.2,103.2,0,0,0-2.67,13.74l-3.16.87.39-2.19c-1.1.49-2.78,1.22-5,2.19Z"/><path d="M34.39,11.81c.43-.07,1.22-.24,2.38-.53a21.05,21.05,0,0,1,2.41-.46l.69,0c1.74,0,2.61.62,2.59,1.86,0,1.75-1.08,3.51-3.24,5.26,1.36-.09,2.14.29,2.35,1.15a2.62,2.62,0,0,1,.06.57,4.48,4.48,0,0,1-1.42,3,10.73,10.73,0,0,1-2.69,2.05,8.84,8.84,0,0,1-4.41,1.07c-.26,0-.53,0-.79,0q.76-4,1.7-10.89C34.2,13.56,34.33,12.55,34.39,11.81ZM36.49,20c-.11.5-.22,1.18-.34,2,1.86-.56,2.79-1.21,2.79-1.93,0-.27-.23-.4-.69-.4A7.51,7.51,0,0,0,36.49,20Zm1.09-5.3c-.11.43-.21.87-.3,1.3L37,17.35a5.48,5.48,0,0,0,2.06-2.06,1,1,0,0,0,.14-.41c0-.23-.17-.34-.51-.34A4.51,4.51,0,0,0,37.58,14.74Z"/><path d="M40.55,25.83a81.13,81.13,0,0,0,4.08-13.76l4.72-.77-.68,7.25,1.85-6.7,4.55-.79a94.11,94.11,0,0,0-.81,11.63v2l-4,.72.72-8.67-2.59,9.59-2.18.3,1.31-12.18-2.81,10.8Z"/><path d="M57.39,11.75l3.4-.63A98.22,98.22,0,0,0,58.1,24.86L55,25.73Z"/><path d="M69.07,10.92,69,14.6c-.92.05-1.8.12-2.63.2a75.51,75.51,0,0,0-1.76,10.06l-3.34.87L63,15.21c-.36,0-.72.11-1.07.18l-1,.2-.24-3.7Z"/><path d="M78.78,11.45,82,12A118.92,118.92,0,0,0,75.2,25.57l-3-.19L74.25,21,72.59,13l3.85-1.78c0,.6-.06,1.36-.08,2.27a22.69,22.69,0,0,0,.14,2.73Z"/><path d="M87.13,10.25a3.07,3.07,0,0,1,3,2.33,7.56,7.56,0,0,1,.45,2.65,12.52,12.52,0,0,1-.41,3,14.52,14.52,0,0,1-2.53,5.1q-2.2,2.85-4.65,2.85a3.12,3.12,0,0,1-3-2.34,7.18,7.18,0,0,1-.43-2.57,11.89,11.89,0,0,1,.43-3,14.48,14.48,0,0,1,2.51-5.12C83.93,11.2,85.48,10.25,87.13,10.25Zm-.71,4.9c-.73,0-1.47.6-2.22,1.78a9.86,9.86,0,0,0-1.26,2.75A5.31,5.31,0,0,0,82.76,21a2.06,2.06,0,0,0,.4,1.32,1.51,1.51,0,0,0,1.26.57,2.52,2.52,0,0,0,2-1.16,6,6,0,0,0,1-2.2,7.42,7.42,0,0,0,.16-2.92C87.45,15.63,87.05,15.15,86.42,15.15Z"/><path d="M92,11.75l3.38-.63a94.09,94.09,0,0,0-2,9.29l1.88-.79,1.38-7.87,3.38-.63a103.2,103.2,0,0,0-2.67,13.74l-3.16.87.39-2.19c-1.1.49-2.78,1.22-5,2.19Z"/><path d="M100.77,11.73a18.59,18.59,0,0,1,5.09-.93c1.78,0,2.66.62,2.65,1.86q0,2.67-3.37,5.36c.19.5,1,2.08,2.3,4.73-.68.63-1.71,1.56-3.09,2.78l-2.11-5.45h0c-.32,1.72-.55,3.32-.71,4.78l-3.13.87c0-.29.17-1.16.44-2.63Zm2.5,3.13c-.12.44-.23.89-.32,1.34l-.28,1.35a7.54,7.54,0,0,0,1.37-.93,3.73,3.73,0,0,0,1-1.29.66.66,0,0,0,.1-.34c0-.29-.19-.43-.57-.43A4.41,4.41,0,0,0,103.27,14.86Z"/><path d="M116.24,14.69c-.11.38-.2.76-.28,1.13l-.22,1.09,3.17-.67L118.73,19c-1.5.26-2.68.49-3.53.69-.06.27-.1.53-.14.79l-.15.77,3.68-.53-.26,3.68a45.5,45.5,0,0,0-7.22,1.36l2.36-14.18,6.58-1-.25,3.68C118.5,14.38,117.32,14.52,116.24,14.69Z"/><path d="M121.53,11.81l3.42-.69c0,.41,0,1,0,1.74,0,1.79.06,3.37.17,4.72a11,11,0,0,0,.3,1.88l1.35-7.71,3.4-.63a98.22,98.22,0,0,0-2.69,13.74l-3.13.87s-.1-.25-.25-.69l-1-2.93a9.52,9.52,0,0,1-.3-.91c-.28,1.56-.49,3.07-.65,4.53l-3.17.95Z"/><path d="M138.2,10.92l-.11,3.68c-.93.05-1.8.12-2.63.2a75.51,75.51,0,0,0-1.76,10.06l-3.35.87,1.82-10.52c-.35,0-.71.11-1.06.18l-1.05.2-.24-3.7Z"/><path d="M138.41,11.73a18.59,18.59,0,0,1,5.08-.93c1.78,0,2.67.62,2.65,1.86q0,2.67-3.36,5.36c.19.5.95,2.08,2.3,4.73-.69.63-1.72,1.56-3.09,2.78l-2.11-5.45h0c-.32,1.72-.55,3.32-.71,4.78l-3.13.87c0-.29.17-1.16.43-2.63Zm2.49,3.13c-.12.44-.22.89-.31,1.34l-.28,1.35a7.15,7.15,0,0,0,1.36-.93,3.66,3.66,0,0,0,1-1.29.66.66,0,0,0,.1-.34c0-.29-.19-.43-.57-.43A4.53,4.53,0,0,0,140.9,14.86Z"/><path d="M152.07,11.45l3.18.56a118.92,118.92,0,0,0-6.76,13.56l-3.05-.19,2.1-4.41L145.88,13l3.85-1.78c0,.6-.06,1.36-.08,2.27a22.69,22.69,0,0,0,.14,2.73Z"/><path d="M166.6,10.92l-.12,3.68c-.92.05-1.8.12-2.63.2a75.51,75.51,0,0,0-1.76,10.06l-3.34.87,1.82-10.52c-.36,0-.71.11-1.07.18l-1.05.2-.24-3.7Z"/><path d="M172.32,10.25a3.07,3.07,0,0,1,3,2.33,7.56,7.56,0,0,1,.45,2.65,12,12,0,0,1-.41,3,14.35,14.35,0,0,1-2.53,5.1q-2.2,2.85-4.65,2.85a3.12,3.12,0,0,1-3-2.34,7.18,7.18,0,0,1-.43-2.57,11.89,11.89,0,0,1,.43-3,14.33,14.33,0,0,1,2.52-5.12C169.12,11.2,170.67,10.25,172.32,10.25Zm-.71,4.9c-.72,0-1.46.6-2.21,1.78a9.62,9.62,0,0,0-1.27,2.75A5.31,5.31,0,0,0,168,21a2.06,2.06,0,0,0,.4,1.32,1.51,1.51,0,0,0,1.26.57,2.5,2.5,0,0,0,2-1.16,5.81,5.81,0,0,0,1-2.2,7.42,7.42,0,0,0,.16-2.92C172.64,15.63,172.24,15.15,171.61,15.15Z"/><path d="M176.9,11.73a12.72,12.72,0,0,1,3.86-.75,3.68,3.68,0,0,1,2.71.93,4.48,4.48,0,0,1,1.28,3.22,6.55,6.55,0,0,1-.18,1.47,11.38,11.38,0,0,1-3.64,6.08,11.57,11.57,0,0,1-6.38,3.05c0-.29.16-1.15.41-2.59l1.58-9.1Q176.89,12,176.9,11.73ZM179.73,15c-.61,2.59-1.07,5-1.39,7.34a13.35,13.35,0,0,0,2.12-2.61,6.2,6.2,0,0,0,1.15-3.12C181.61,15.48,181,14.94,179.73,15Z"/><path d="M182,26a127.35,127.35,0,0,0,4.71-14.3l6-1a78.55,78.55,0,0,0-.93,14.18l-4.19,1,.29-2.47-1.32.26-.42,1.74Zm6.21-5.29.91-7.47h0l-1.86,7.66Z"/><path d="M199.48,11.45l3.19.56a119.14,119.14,0,0,0-6.77,13.56l-3-.19L195,21,193.29,13l3.86-1.78c0,.6-.07,1.36-.08,2.27a20.81,20.81,0,0,0,.14,2.73Z"/><path d="M202.69,22.49a1.88,1.88,0,0,1,1.23.2,1,1,0,0,1,.63,1,2.11,2.11,0,0,1-1,1.66,3.34,3.34,0,0,1-1.64.71,2.1,2.1,0,0,1-1.22-.16,1,1,0,0,1-.62-1,2.21,2.21,0,0,1,.93-1.68A3.27,3.27,0,0,1,202.69,22.49Zm2.24-12.3,4.13.69c-1.09,2-1.9,3.5-2.41,4.61a38.76,38.76,0,0,0-1.86,4.92L202,20.29Z"/></g></g></svg>