<svg xmlns="http://www.w3.org/2000/svg" viewBox="0 0 126.19 23.71"><defs><style>.cls-1{fill:#262626;}</style></defs><g id="Layer_2" data-name="Layer 2"><g id="Layer_1-2" data-name="Layer 1"><path class="cls-1" d="M102.72,10.11c5.61,0,11.11-.07,16.6,0a7.11,7.11,0,0,1,6.77,6.35,7.36,7.36,0,0,1-2.57,7c-.2.18-.37.38-.75.19a30.69,30.69,0,0,0-8.41-2.35,24.5,24.5,0,0,0-5.54-.46.5.5,0,0,1-.57-.31C106.44,17.07,104.6,13.64,102.72,10.11Z"/><path class="cls-1" d="M124.74,12a8.43,8.43,0,0,0-6.47-2.48c-3.3,0-6.6,0-9.9,0-.28,0-.55.07-.74-.28C106,6.19,104.39,3.15,102.72,0h16a7.21,7.21,0,0,1,7.34,6.33A7.24,7.24,0,0,1,124.74,12Z"/><path class="cls-1" d="M64.72,22.08h-2c-.3,0-.39-.26-.53-.45-1.58-2.09-3.17-4.16-4.7-6.28a1.64,1.64,0,0,0-1.57-.77c-1.29.06-1.29,0-1.29,1.33,0,1.83,0,3.66,0,5.5,0,.55-.13.77-.68.67a1.62,1.62,0,0,0-.44,0c-.54.09-.7-.1-.69-.66,0-3.79,0-7.58,0-11.37,0-2.86,0-5.72,0-8.58,0-.57.12-.82.71-.71a1.53,1.53,0,0,0,.37,0c.55-.09.74.1.73.69,0,3.06,0,6.12,0,9.17,0,.59,0,1.18,0,1.76s.16.52.57.57A2.68,2.68,0,0,0,58,11.67c1-1.45,2.27-2.75,3.35-4.17a1.46,1.46,0,0,1,1.42-.64c.43,0,.86,0,1.45,0-.69.84-1.29,1.59-1.91,2.33-1.1,1.33-2.18,2.7-3.33,4-.44.49-.34.77,0,1.21,1.79,2.36,3.55,4.73,5.31,7.1C64.44,21.65,64.54,21.81,64.72,22.08Z"/><path class="cls-1" d="M93.09,13.42c0-1.44,0-2.88,0-4.32,0-.45-.1-.64-.57-.57a5.93,5.93,0,0,1-.73,0c-1.14,0-1.33-.25-1.11-1.39,0-.18.07-.28.26-.27h.37c.57,0,1.34.26,1.68-.13s.08-1.08.09-1.64a5.17,5.17,0,0,0,0-.88c-.12-.71.15-.91.86-.86,1,.07,1,0,1,1,0,.66,0,1.32,0,2,0,.47.16.57.6.56,1.24,0,2.49,0,3.73,0,.48,0,.68.11.6.6a1.55,1.55,0,0,0,0,.43c.08.5-.08.68-.61.66-1.25-.05-2.5,0-3.74,0-.47,0-.58.14-.58.59,0,2.81,0,5.62,0,8.43,0,2.19.91,3,3.11,3a6.46,6.46,0,0,0,.88,0c.77-.13,1,.18.95.93s-.14.85-.8.8a23.43,23.43,0,0,1-2.78-.15c-2-.4-3.13-1.91-3.17-4.39C93.07,16.31,93.09,14.86,93.09,13.42Z"/><path class="cls-1" d="M46.77,22.3a21.28,21.28,0,0,1-2.92-.12,4.77,4.77,0,0,1-4.17-3.87,19.35,19.35,0,0,1-.07-7.43C40.09,8.13,42,6.73,45,6.63c1.39,0,2.78,0,4.18,0,.37,0,.49.1.51.49,0,1.25.06,1.25-1.19,1.25s-2.35,0-3.52,0c-2,0-3.35,1-3.64,2.92a19,19,0,0,0,0,6.34,3.3,3.3,0,0,0,3.55,2.93c1.37,0,2.74,0,4.11,0,.49,0,.74.09.66.63a2.33,2.33,0,0,0,0,.59c0,.4-.08.56-.51.54C48.44,22.27,47.68,22.3,46.77,22.3Z"/><path class="cls-1" d="M72.82,9.6v7.7A8.64,8.64,0,0,1,72.41,20,3.07,3.07,0,0,1,70,22.13a12.86,12.86,0,0,1-2.7.17c-.27,0-.38-.06-.4-.36-.13-1.32-.11-1.36,1.19-1.4,2.09-.08,2.83-.81,2.84-3,0-5.26,0-10.51,0-15.77,0-.32-.2-.82.15-.93a4.1,4.1,0,0,1,1.6,0c.24,0,.12.39.12.59Q72.82,5.49,72.82,9.6Z"/><path class="cls-1" d="M18.74,11.37c0-3.3,0-6.6,0-9.89,0-.56.12-.83.72-.73a1.46,1.46,0,0,0,.51,0c.49-.07.61.14.61.61,0,2.76,0,5.52,0,8.28,0,3.91,0,7.81,0,11.72,0,.56-.12.82-.72.72a2.17,2.17,0,0,0-.51,0c-.49.08-.61-.13-.61-.61C18.75,18.1,18.74,14.74,18.74,11.37Z"/><path class="cls-1" d="M11.21,10.91a4.42,4.42,0,0,0,2.47-2.67c1-3.08-.21-7.35-5.3-7.47C5.79.71,3.2.77.61.75.12.74,0,.88,0,1.36Q0,11.44,0,21.51c0,.45.11.58.57.58,2.78,0,5.57,0,8.36,0a5.51,5.51,0,0,0,5.73-4.72A5.43,5.43,0,0,0,11.21,10.91ZM1.87,3.09c0-.25-.11-.58.35-.57,2.24,0,4.49-.16,6.73.1a3.48,3.48,0,0,1,3.11,4.05,3.54,3.54,0,0,1-3.6,3.48H5.6c-1,0-2.1,0-3.15,0-.43,0-.6-.07-.59-.55C1.89,7.43,1.87,5.26,1.87,3.09ZM9.25,20.25c-2.32.12-4.64,0-7,.07-.39,0-.43-.19-.42-.5,0-1.22,0-2.44,0-3.66s0-2.44,0-3.66c0-.33,0-.56.45-.55,2.32,0,4.64,0,7,.08s3.56,1.77,3.56,4.12S11.46,20.13,9.25,20.25Z"/><path class="cls-1" d="M35.47,15.33c0-1.64.1-3.28-.07-4.91A3.7,3.7,0,0,0,32,6.92c-2.12-.1-4.25-.08-6.37,0-.76,0-.27.72-.38,1.09s.1.62.59.61q2.64,0,5.28,0a2.37,2.37,0,0,1,2.57,2.48c0,.66,0,1.33,0,2,0,.48-.12.61-.6.61-1.71,0-3.42-.06-5.13,0a4,4,0,0,0-4.06,3.95,4.12,4.12,0,0,0,3.64,4.61,24.37,24.37,0,0,0,2.57.06,4.23,4.23,0,0,0,3.79-1.69,6.4,6.4,0,0,1,.08.8c0,.83.56.64,1,.67.66.05.47-.41.47-.74C35.48,19.34,35.49,17.34,35.47,15.33Zm-1.8.43c0,.73,0,1.46,0,2.19a2.6,2.6,0,0,1-2.4,2.58,29.15,29.15,0,0,1-3.37,0,2.44,2.44,0,0,1-2.2-2.63A2.47,2.47,0,0,1,28,15.26c.9-.06,1.81,0,2.71,0v0c.83,0,1.66,0,2.49,0C33.58,15.21,33.69,15.36,33.67,15.76Z"/><path class="cls-1" d="M79.3,15.23h4.4c1.47,0,2.93,0,4.4,0,.49,0,.62-.14.6-.61,0-.81,0-1.61,0-2.42C88.54,8.75,86.87,7,83.43,6.65c-3.23-.32-5.86,1.53-6.27,4.67A20.28,20.28,0,0,0,77.31,18C77.86,20.67,79.2,21.85,82,22c1.75.11,3.52,0,5.28,0,1.2,0,1,.2,1-1,0-.56-.14-.7-.69-.69-1.73,0-3.47,0-5.2,0a3.16,3.16,0,0,1-3.44-3c-.09-.55-.09-1.12-.17-1.67S78.93,15.22,79.3,15.23Zm-.5-2.13A8.19,8.19,0,0,1,79,11c.58-1.95,2.41-3,4.79-2.63A3.5,3.5,0,0,1,86.91,12c0,1.55,0,1.55-1.53,1.55H82.82c-1.18,0-2.35,0-3.52,0C78.93,13.58,78.79,13.49,78.8,13.1Z"/></g></g></svg>