<?xml version="1.0" encoding="UTF-8"?>
<svg id="Layer_2" data-name="Layer 2" xmlns="http://www.w3.org/2000/svg" viewBox="0 0 188.52 44.79">
  <defs>
    <style>
      .cls-1 {
        fill: #fff;
        stroke-width: 0px;
      }
    </style>
  </defs>
  <g id="Layer_1-2" data-name="Layer 1">
    <g>
      <path class="cls-1" d="M15.46,5.41h-.85c-.05-.8-.21-1.45-.46-1.94-.26-.49-.55-.8-.87-.94s-1.1-.21-2.34-.21h-2.61l-1.5,6.57h1.84c.87,0,1.53-.18,1.98-.55.46-.37.89-1.08,1.32-2.14h.84l-1.46,6.37h-.84c0-.83-.02-1.4-.06-1.72-.04-.32-.2-.58-.47-.78-.27-.2-.78-.3-1.52-.3h-1.83l-1.16,4.96c-.09.39-.14.76-.14,1.1,0,.41.15.69.44.83.29.14.96.21,2,.21,1.17,0,2-.04,2.47-.12.48-.08.86-.22,1.15-.41.29-.19.74-.66,1.34-1.42.6-.75,1.06-1.41,1.38-1.96h.83l-1.41,4.8H0l.16-.76c1.03-.08,1.71-.2,2.01-.37.31-.17.53-.52.65-1.03L5.55,3.78c.04-.17.06-.31.06-.41,0-.64-.68-1.02-2.03-1.14l.2-.75h12.61l-.92,3.93Z"/>
      <path class="cls-1" d="M22.58,7.17l-.21-.08c-.14-.05-.35-.08-.64-.08-.71,0-1.26.19-1.67.56-.41.38-.62.86-.62,1.46,0,.47.14.84.42,1.12.28.28.89.6,1.82.94,1.17.44,1.96.9,2.37,1.38.41.48.61,1.05.61,1.71,0,1.13-.45,2.07-1.34,2.81-.9.74-2.03,1.11-3.39,1.11-1.09,0-2.03-.2-2.81-.6-.78-.4-1.17-.93-1.17-1.6,0-.31.11-.6.33-.86s.5-.38.83-.38c.7,0,1.19.46,1.47,1.38.08.25.16.48.24.71.35.34.81.52,1.37.52,1.66,0,2.49-.76,2.49-2.29,0-.47-.17-.86-.51-1.18s-.96-.63-1.87-.93c-1.88-.64-2.81-1.67-2.81-3.08,0-.99.43-1.84,1.3-2.56.87-.72,1.95-1.07,3.23-1.07,1.01,0,1.83.15,2.46.45.63.3.95.75.95,1.34,0,.31-.11.6-.33.86-.22.26-.5.39-.83.39-.69,0-1.18-.45-1.46-1.36-.08-.25-.16-.48-.25-.7Z"/>
      <path class="cls-1" d="M34.34,7.59c-.15-.39-.65-.59-1.48-.59-1.01,0-1.9.6-2.66,1.79s-1.15,2.69-1.15,4.5c0,1.09.24,1.95.73,2.58s1.15.95,1.98.95c1.3,0,2.51-.76,3.62-2.29l.67.49c-.61.95-1.38,1.7-2.29,2.26-.92.56-1.82.83-2.73.83-1.36,0-2.42-.4-3.18-1.21s-1.14-1.91-1.14-3.32c0-2.01.59-3.74,1.79-5.21,1.19-1.47,2.72-2.2,4.59-2.2,1.04,0,1.86.22,2.45.67.59.44.88,1.04.88,1.78,0,.57-.13,1.05-.39,1.43-.26.38-.62.57-1.09.57-.41,0-.71-.1-.92-.31s-.32-.44-.32-.7.22-.93.65-2.02Z"/>
      <path class="cls-1" d="M49.21,17.19c-1.22.51-2.14.77-2.78.77-.54,0-.98-.16-1.31-.48-.33-.32-.51-.72-.52-1.21h-.09c-1.36,1.23-2.53,1.84-3.53,1.84-1.11,0-1.98-.4-2.62-1.19-.64-.79-.95-1.89-.95-3.28,0-1.93.66-3.66,1.99-5.18,1.33-1.52,2.86-2.29,4.59-2.29,1.05,0,1.96.25,2.73.73l2.11-.54.12.16-1.73,7.41c-.19.82-.29,1.36-.29,1.62,0,.44.09.73.28.88s.5.23.92.23.83-.07,1.24-.22l-.16.73ZM46.25,9c.07-.31-.04-.72-.32-1.23-.28-.51-.87-.77-1.76-.77-1.12,0-2.13.68-3.04,2.04-.91,1.36-1.36,2.9-1.36,4.62,0,1.13.17,1.94.5,2.42s.86.72,1.57.72c.87,0,1.85-.54,2.94-1.62l1.46-6.19Z"/>
      <path class="cls-1" d="M53.58,17.24l-.66,3.01c-.09.42-.14.74-.14.94,0,.55.67.87,2.02.96l-.17.72h-6.33l.17-.72c.9-.04,1.47-.17,1.7-.39.23-.22.38-.51.46-.86l2.4-10.55c.18-.77.26-1.32.26-1.65,0-.47-.08-.77-.25-.9-.17-.12-.45-.18-.84-.18-.27,0-.68.09-1.24.26l.16-.76c1.21-.53,2.14-.79,2.78-.79,1,0,1.58.51,1.73,1.53h.1c1.22-1.12,2.36-1.68,3.43-1.68,1.15,0,2.05.39,2.7,1.18s.98,1.86.98,3.22c0,2.04-.66,3.81-1.97,5.29-1.31,1.48-2.83,2.22-4.57,2.22-1.06,0-1.98-.28-2.76-.85ZM55.49,8.98l-1.48,6.51c.08.47.33.89.75,1.25.41.36.91.54,1.49.54,1.18,0,2.18-.64,3.01-1.93s1.24-2.87,1.24-4.73c0-2.11-.76-3.17-2.27-3.17-.75,0-1.66.51-2.73,1.53Z"/>
      <path class="cls-1" d="M66.76,13.09c0,2.48.88,3.72,2.64,3.72,1.36,0,2.62-.76,3.76-2.29l.67.49c-.63.96-1.41,1.71-2.34,2.26-.93.55-1.88.83-2.84.83-1.34,0-2.37-.38-3.08-1.14s-1.07-1.84-1.07-3.24c0-2.02.63-3.79,1.88-5.29,1.25-1.51,2.82-2.26,4.7-2.26,1.03,0,1.83.21,2.4.63.57.42.85,1.01.85,1.77,0,1.32-.65,2.32-1.95,3.02-1.3.7-3.17,1.19-5.6,1.49ZM66.83,12.3c2.11-.26,3.54-.73,4.27-1.4s1.1-1.54,1.1-2.6c0-.87-.44-1.3-1.33-1.3s-1.76.49-2.54,1.48c-.78.99-1.28,2.26-1.49,3.81Z"/>
      <path class="cls-1" d="M96.15,5.9h-.8c-.05-.93-.2-1.7-.47-2.31-.26-.62-.57-.98-.92-1.1-.35-.12-1.06-.17-2.14-.17h-.7l-3.03,13.15c-.04.17-.06.3-.06.4,0,.38.17.64.52.79.34.14.94.26,1.79.36l-.18.76h-7.69l.18-.76c1.15-.08,1.89-.21,2.23-.38.34-.17.59-.53.74-1.07l3.05-13.24h-.61c-1.09,0-1.83.06-2.2.18-.37.12-.88.53-1.52,1.22-.64.69-1.17,1.42-1.57,2.18h-.83l1.03-4.42h14.18l-1.01,4.42Z"/>
      <path class="cls-1" d="M107.41,17.19c-1.27.51-2.19.77-2.77.77-1.23,0-1.84-.55-1.84-1.64,0-.39.06-.82.18-1.28l1.14-4.27c.18-.69.28-1.21.28-1.55,0-1.12-.49-1.68-1.46-1.68-1.03,0-2.11.6-3.21,1.81l-1.93,8.42h-2.15l3.41-14.77c.1-.43.15-.71.15-.85,0-.36-.09-.63-.27-.82s-.72-.31-1.61-.38l.14-.71,4.28-.25.12.16-1.86,7.95h.05c1.02-.8,1.82-1.32,2.4-1.56.58-.25,1.19-.37,1.84-.37.74,0,1.31.21,1.73.63.42.42.63.98.63,1.68,0,.55-.1,1.15-.29,1.79l-.96,3.69c-.18.7-.28,1.23-.28,1.57,0,.44.09.73.28.9s.5.24.94.24c.37,0,.79-.08,1.25-.24l-.17.76Z"/>
      <path class="cls-1" d="M111.34,13.09c0,2.48.88,3.72,2.64,3.72,1.36,0,2.62-.76,3.76-2.29l.67.49c-.63.96-1.41,1.71-2.34,2.26-.93.55-1.88.83-2.84.83-1.34,0-2.37-.38-3.08-1.14s-1.07-1.84-1.07-3.24c0-2.02.63-3.79,1.88-5.29,1.25-1.51,2.82-2.26,4.7-2.26,1.03,0,1.83.21,2.4.63.57.42.85,1.01.85,1.77,0,1.32-.65,2.32-1.95,3.02-1.3.7-3.17,1.19-5.6,1.49ZM111.41,12.3c2.11-.26,3.54-.73,4.27-1.4s1.1-1.54,1.1-2.6c0-.87-.44-1.3-1.33-1.3s-1.76.49-2.54,1.48c-.78.99-1.28,2.26-1.49,3.81Z"/>
      <path class="cls-1" d="M145.06,2.23c-1.15.16-1.92.41-2.32.74-.4.33-.79,1.32-1.16,2.99l-2.78,11.99h-1.01l-6.71-13.76-2.04,8.89c-.2.87-.3,1.6-.3,2.19,0,.38.05.68.16.91.11.23.45.43,1.02.59.57.17.95.25,1.11.26l-.16.76h-6.71l.2-.76c.96-.15,1.69-.37,2.17-.64.48-.28.93-1.34,1.36-3.18l1.84-7.9c.09-.4.14-.78.14-1.16,0-1.06-.79-1.7-2.38-1.91l.18-.75h4.69l6.19,12.75,1.87-8.14c.21-.9.31-1.62.31-2.16,0-.4-.06-.69-.17-.88-.11-.19-.4-.37-.88-.52-.47-.16-.9-.25-1.26-.29l.2-.75h6.63l-.18.75Z"/>
      <path class="cls-1" d="M148.13,18.13c-1.26,0-2.29-.41-3.08-1.24-.79-.82-1.19-1.93-1.19-3.31,0-2.05.64-3.8,1.92-5.24,1.28-1.44,2.88-2.16,4.8-2.16,1.35,0,2.41.41,3.19,1.23.78.82,1.17,1.92,1.17,3.29,0,2.01-.64,3.75-1.91,5.22-1.27,1.47-2.9,2.21-4.89,2.21ZM150.35,7c-1.29,0-2.31.7-3.05,2.1-.74,1.4-1.11,3.02-1.11,4.86,0,2.23.76,3.34,2.29,3.34,1.23,0,2.23-.69,2.99-2.06s1.14-3.03,1.14-4.97c0-2.18-.75-3.27-2.25-3.27Z"/>
      <path class="cls-1" d="M161.88,17.26c-1.22.5-2.15.75-2.78.75-.58,0-1.03-.15-1.36-.44-.32-.29-.48-.69-.48-1.2,0-.32.06-.74.19-1.26l1.22-4.89c.18-.7.26-1.25.26-1.65,0-.45-.08-.74-.24-.87-.16-.13-.44-.19-.86-.19-.25,0-.67.07-1.29.21l.16-.72c1.19-.54,2.1-.8,2.73-.8,1.19,0,1.78.56,1.78,1.68,0,.38-.05.8-.16,1.26l-1.25,4.87c-.18.71-.28,1.25-.28,1.61,0,.75.41,1.12,1.24,1.12.44,0,.85-.06,1.25-.2l-.16.74ZM161.39,3.48c-.38,0-.72-.15-1-.45-.29-.3-.43-.66-.43-1.07s.14-.79.42-1.11c.28-.32.62-.48,1.01-.48.41,0,.76.15,1.05.44s.43.64.43,1.06-.14.81-.43,1.13c-.29.33-.64.49-1.05.49Z"/>
      <path class="cls-1" d="M169.5,7.17l-.21-.08c-.14-.05-.35-.08-.64-.08-.71,0-1.26.19-1.67.56-.41.38-.62.86-.62,1.46,0,.47.14.84.42,1.12.28.28.89.6,1.82.94,1.17.44,1.96.9,2.37,1.38.41.48.61,1.05.61,1.71,0,1.13-.45,2.07-1.34,2.81-.9.74-2.03,1.11-3.39,1.11-1.09,0-2.03-.2-2.81-.6-.78-.4-1.17-.93-1.17-1.6,0-.31.11-.6.33-.86s.5-.38.83-.38c.7,0,1.19.46,1.47,1.38.08.25.16.48.24.71.35.34.81.52,1.37.52,1.66,0,2.49-.76,2.49-2.29,0-.47-.17-.86-.51-1.18s-.96-.63-1.87-.93c-1.88-.64-2.81-1.67-2.81-3.08,0-.99.43-1.84,1.3-2.56.87-.72,1.95-1.07,3.23-1.07,1.01,0,1.83.15,2.46.45.63.3.95.75.95,1.34,0,.31-.11.6-.33.86-.22.26-.5.39-.83.39-.69,0-1.18-.45-1.46-1.36-.08-.25-.16-.48-.25-.7Z"/>
      <path class="cls-1" d="M175.92,13.09c0,2.48.88,3.72,2.64,3.72,1.36,0,2.62-.76,3.76-2.29l.67.49c-.63.96-1.41,1.71-2.34,2.26-.93.55-1.88.83-2.84.83-1.34,0-2.37-.38-3.08-1.14s-1.07-1.84-1.07-3.24c0-2.02.63-3.79,1.88-5.29,1.25-1.51,2.82-2.26,4.7-2.26,1.03,0,1.83.21,2.4.63.57.42.85,1.01.85,1.77,0,1.32-.65,2.32-1.95,3.02-1.3.7-3.17,1.19-5.6,1.49ZM175.98,12.3c2.11-.26,3.54-.73,4.27-1.4s1.1-1.54,1.1-2.6c0-.87-.44-1.3-1.33-1.3s-1.76.49-2.54,1.48c-.78.99-1.28,2.26-1.49,3.81Z"/>
      <path class="cls-1" d="M186.95,18.01c-.44,0-.8-.15-1.1-.45-.3-.3-.45-.67-.45-1.1s.15-.8.45-1.11c.3-.31.67-.46,1.1-.46s.8.15,1.11.46c.31.31.46.68.46,1.11s-.15.81-.46,1.11c-.31.29-.68.44-1.11.44Z"/>
      <path class="cls-1" d="M30.4,32.2h-.87c-.04-.8-.2-1.49-.5-2.07s-.63-.92-1-1.02c-.37-.1-1.08-.14-2.12-.14h-2.8l-1.53,6.64h1.88c1.03,0,1.78-.24,2.26-.72s.87-1.13,1.15-1.95h.87l-1.48,6.4h-.87c.03-.25.05-.49.05-.74,0-.8-.16-1.36-.48-1.66s-.89-.45-1.72-.45h-1.87l-1.3,5.71c-.03.14-.05.26-.05.38,0,.46.23.74.69.86.46.11.91.19,1.35.25l-.16.76h-7.11l.2-.76c1.14-.05,1.83-.2,2.08-.43s.41-.54.5-.92l2.75-11.89c.04-.17.06-.31.06-.44,0-.33-.16-.57-.47-.72-.31-.15-.83-.28-1.56-.39l.2-.75h12.79l-.94,4.07Z"/>
      <path class="cls-1" d="M35.47,43.92c-1.22.5-2.15.75-2.78.75-.58,0-1.03-.15-1.36-.44-.32-.29-.48-.69-.48-1.2,0-.32.06-.74.19-1.26l1.22-4.89c.18-.7.26-1.25.26-1.65,0-.45-.08-.74-.24-.87-.16-.13-.44-.19-.86-.19-.25,0-.67.07-1.29.21l.16-.72c1.19-.54,2.1-.8,2.73-.8,1.19,0,1.78.56,1.78,1.68,0,.38-.05.8-.16,1.26l-1.25,4.87c-.18.71-.28,1.25-.28,1.61,0,.75.41,1.12,1.24,1.12.44,0,.85-.06,1.25-.2l-.16.74ZM34.97,30.13c-.38,0-.72-.15-1-.45-.29-.3-.43-.66-.43-1.07s.14-.79.42-1.11c.28-.32.62-.48,1.01-.48.41,0,.76.15,1.05.44s.43.64.43,1.06-.14.81-.43,1.13c-.29.33-.64.49-1.05.49Z"/>
      <path class="cls-1" d="M49.32,43.85c-1.31.51-2.24.77-2.78.77-1.22,0-1.84-.55-1.84-1.64,0-.41.06-.83.2-1.28l1.12-4.27c.18-.7.28-1.21.28-1.55,0-1.12-.49-1.68-1.46-1.68-1.06,0-2.14.6-3.22,1.81l-1.93,8.42h-2.14l1.69-7.43c.19-.84.29-1.39.29-1.65,0-.43-.08-.72-.23-.86s-.44-.22-.86-.22c-.32,0-.74.08-1.24.24l.16-.76c1.15-.51,2.08-.77,2.78-.77,1.09,0,1.65.62,1.69,1.85h.07c1.11-.87,1.94-1.42,2.49-1.65.55-.23,1.15-.34,1.79-.34.74,0,1.31.21,1.73.63.42.42.63.98.63,1.68,0,.55-.1,1.15-.29,1.79l-.96,3.69c-.18.7-.28,1.23-.28,1.57,0,.44.09.73.28.9s.5.24.94.24c.38,0,.79-.08,1.25-.24l-.16.76Z"/>
      <path class="cls-1" d="M60.84,40.6c-.19.83-.29,1.37-.29,1.6,0,.44.09.73.28.9s.5.24.92.24.83-.07,1.24-.22l-.16.73c-1.08.51-2.01.77-2.78.77-1.2,0-1.8-.59-1.8-1.76h-.08c-1.35,1.27-2.56,1.91-3.64,1.91s-1.98-.4-2.62-1.19c-.64-.79-.95-1.89-.95-3.28,0-1.97.65-3.7,1.94-5.21,1.29-1.5,2.82-2.26,4.58-2.26,1.07,0,2.03.25,2.87.73l.9-3.9c.08-.34.12-.63.12-.87,0-.64-.45-1-1.34-1.08-.28-.02-.58-.05-.92-.09l.17-.71,4.63-.25.11.16-3.17,13.78ZM59.87,35.54c.05-.24-.11-.61-.48-1.12-.37-.51-.96-.76-1.76-.76-1.15,0-2.15.67-3.01,1.99s-1.29,2.88-1.29,4.67c0,1.13.17,1.94.5,2.42s.86.72,1.57.72c.9,0,1.91-.56,3.03-1.69l1.44-6.24Z"/>
      <path class="cls-1" d="M86.59,28.88c-.38.05-.78.17-1.21.37-.43.2-.9.55-1.41,1.03-.51.49-1.52,1.67-3.04,3.54s-2.41,3.02-2.69,3.45-.5.97-.65,1.65l-.74,3.17c-.03.13-.05.26-.05.4,0,.5.28.81.85.94.57.13,1.04.21,1.44.24l-.16.76h-7.63l.16-.76c1.11-.08,1.84-.2,2.19-.37.35-.17.59-.53.73-1.09l.83-3.57c.06-.27.09-.46.09-.56,0-.36-.19-1.16-.56-2.39l-1.19-3.95c-.42-1.39-.84-2.21-1.25-2.45-.41-.24-.85-.38-1.3-.41l.2-.75h6.67l-.18.75c-.99.04-1.61.11-1.87.21-.26.1-.39.25-.39.43,0,.32.7,2.66,2.1,7,3.51-4.24,5.26-6.54,5.26-6.89,0-.41-.66-.67-1.97-.76l.19-.75h5.79l-.2.75Z"/>
      <path class="cls-1" d="M87.71,44.79c-1.26,0-2.29-.41-3.08-1.24-.79-.82-1.19-1.93-1.19-3.31,0-2.05.64-3.8,1.92-5.24,1.28-1.44,2.88-2.16,4.8-2.16,1.35,0,2.41.41,3.19,1.23.78.82,1.17,1.92,1.17,3.29,0,2.01-.64,3.75-1.91,5.22-1.27,1.47-2.9,2.21-4.89,2.21ZM89.93,33.66c-1.29,0-2.31.7-3.05,2.1-.74,1.4-1.11,3.02-1.11,4.86,0,2.23.76,3.34,2.29,3.34,1.23,0,2.23-.69,2.99-2.06s1.14-3.03,1.14-4.97c0-2.18-.75-3.27-2.25-3.27Z"/>
      <path class="cls-1" d="M108.01,43.85c-1.23.51-2.16.77-2.78.77-.56,0-1-.16-1.33-.48-.33-.32-.49-.75-.49-1.3h-.08c-1.44,1.26-2.81,1.88-4.11,1.88-.74,0-1.32-.21-1.72-.63-.41-.42-.61-.98-.61-1.68,0-.47.09-1.07.26-1.79l.9-3.62c.17-.68.25-1.23.25-1.65,0-.45-.08-.74-.23-.88-.15-.13-.43-.2-.83-.2-.29,0-.72.09-1.27.26l.2-.76c1.16-.53,2.05-.79,2.65-.79,1.19,0,1.79.55,1.79,1.64,0,.41-.07.83-.2,1.27l-1.01,4.25c-.17.7-.25,1.21-.25,1.53,0,1.12.46,1.68,1.39,1.68,1.03,0,2.04-.52,3.05-1.55l2-8.64,2-.14.14.16-1.69,7.38c-.21.9-.31,1.44-.31,1.62,0,.44.1.73.29.9s.5.24.94.24c.4,0,.8-.07,1.22-.22l-.16.73Z"/>
      <path class="cls-1" d="M117.54,34.04c-1.03,0-2.17.72-3.43,2.16l-1.86,8.23h-2.14l1.67-7.43c.19-.86.29-1.41.29-1.65,0-.43-.08-.72-.23-.86s-.44-.22-.86-.22c-.32,0-.74.08-1.24.24l.16-.76c1.15-.51,2.08-.77,2.78-.77,1.13,0,1.69.67,1.69,2h.07l1.09-.92c.94-.82,1.76-1.23,2.47-1.23,1.19,0,1.78.63,1.78,1.88,0,.55-.14,1.02-.41,1.4-.27.38-.64.57-1.12.57-.81,0-1.22-.33-1.22-.99,0-.38.17-.93.52-1.67Z"/>
      <path class="cls-1" d="M150.8,28.88c-.57.04-1.09.2-1.54.48-.45.28-.79.59-1,.92-.22.34-1.21,2.16-2.98,5.46l-4.75,8.9h-1.03l-1.34-12.55-7.12,12.55h-1.01l-.75-14.28c-.06-.87-.68-1.36-1.85-1.48l.17-.75h6.56l-.16.75c-1.54.09-2.31.37-2.31.83,0,.27.18,3.88.54,10.84l6.84-12.18h1.06l1.37,12.45c3.54-6.79,5.32-10.48,5.32-11.06,0-.49-.67-.78-2.02-.87l.16-.75h6.02l-.16.75Z"/>
      <path class="cls-1" d="M154.46,43.92c-1.22.5-2.15.75-2.78.75-.58,0-1.03-.15-1.36-.44-.32-.29-.48-.69-.48-1.2,0-.32.06-.74.19-1.26l1.22-4.89c.18-.7.26-1.25.26-1.65,0-.45-.08-.74-.24-.87-.16-.13-.44-.19-.86-.19-.25,0-.67.07-1.29.21l.16-.72c1.19-.54,2.1-.8,2.73-.8,1.19,0,1.78.56,1.78,1.68,0,.38-.05.8-.16,1.26l-1.25,4.87c-.18.71-.28,1.25-.28,1.61,0,.75.41,1.12,1.24,1.12.44,0,.85-.06,1.25-.2l-.16.74ZM153.96,30.13c-.38,0-.72-.15-1-.45-.29-.3-.43-.66-.43-1.07s.14-.79.42-1.11c.28-.32.62-.48,1.01-.48.41,0,.76.15,1.05.44s.43.64.43,1.06-.14.81-.43,1.13c-.29.33-.64.49-1.05.49Z"/>
      <path class="cls-1" d="M158.97,40.64c-.19.83-.29,1.36-.29,1.61,0,.75.41,1.12,1.22,1.12.51,0,.97-.06,1.37-.2l-.16.74c-1.19.5-2.14.75-2.85.75-.6,0-1.06-.15-1.39-.46-.33-.31-.49-.7-.49-1.18,0-.26.07-.68.22-1.26l2.77-12.09c.1-.44.15-.72.15-.85,0-.36-.09-.63-.27-.82s-.72-.31-1.61-.38l.16-.71,4.26-.25.12.16-3.19,13.83Z"/>
      <path class="cls-1" d="M172.66,40.6c-.19.83-.29,1.37-.29,1.6,0,.44.09.73.28.9s.5.24.92.24.83-.07,1.24-.22l-.16.73c-1.08.51-2.01.77-2.78.77-1.2,0-1.8-.59-1.8-1.76h-.08c-1.35,1.27-2.56,1.91-3.64,1.91s-1.98-.4-2.62-1.19c-.64-.79-.95-1.89-.95-3.28,0-1.97.65-3.7,1.94-5.21,1.29-1.5,2.82-2.26,4.58-2.26,1.07,0,2.03.25,2.87.73l.9-3.9c.08-.34.12-.63.12-.87,0-.64-.45-1-1.34-1.08-.28-.02-.58-.05-.92-.09l.17-.71,4.63-.25.11.16-3.17,13.78ZM171.69,35.54c.05-.24-.11-.61-.48-1.12-.37-.51-.96-.76-1.76-.76-1.15,0-2.15.67-3.01,1.99s-1.29,2.88-1.29,4.67c0,1.13.17,1.94.5,2.42s.86.72,1.57.72c.9,0,1.91-.56,3.03-1.69l1.44-6.24Z"/>
    </g>
  </g>
</svg>