<svg xmlns="http://www.w3.org/2000/svg" viewBox="0 0 76.98 27.96"><defs><style>.cls-1,.cls-2{fill:#fff;}.cls-1{fill-rule:evenodd;}</style></defs><g id="Layer_2" data-name="Layer 2"><g id="Layer_1-2" data-name="Layer 1"><path class="cls-1" d="M77,11.71A8.18,8.18,0,0,1,76.33,15a8,8,0,0,1-1.84,2.64,8.56,8.56,0,0,1-2.86,1.76,10.9,10.9,0,0,1-7.36,0,8.36,8.36,0,0,1-2.86-1.76A7.86,7.86,0,0,1,59.57,15a8,8,0,0,1-.65-3.26,8,8,0,0,1,.65-3.26,7.86,7.86,0,0,1,1.84-2.64,8.52,8.52,0,0,1,2.86-1.76,10.9,10.9,0,0,1,7.36,0,8.72,8.72,0,0,1,2.86,1.76,8,8,0,0,1,1.84,2.64A8.21,8.21,0,0,1,77,11.71m-9,7.47a3.19,3.19,0,0,0,1.48-.34,2.81,2.81,0,0,0,1.16-1.18,7.43,7.43,0,0,0,.78-2.29,20.48,20.48,0,0,0,.28-3.66,20.28,20.28,0,0,0-.28-3.65,7.5,7.5,0,0,0-.78-2.3,2.86,2.86,0,0,0-1.16-1.18,3.39,3.39,0,0,0-3,0A2.88,2.88,0,0,0,65.3,5.76a7.52,7.52,0,0,0-.77,2.3,19.4,19.4,0,0,0-.28,3.65,19.59,19.59,0,0,0,.28,3.66,7.45,7.45,0,0,0,.77,2.29,2.82,2.82,0,0,0,1.17,1.18,3.19,3.19,0,0,0,1.48.34"/><path class="cls-1" d="M0,19.3H1.9V4.13H0V3.41H7.58a12.81,12.81,0,0,1,4.27.66A9.54,9.54,0,0,1,15,5.83a7.53,7.53,0,0,1,2,2.63A8.11,8.11,0,0,1,17,15a7.44,7.44,0,0,1-2,2.63,9.54,9.54,0,0,1-3.16,1.76A12.81,12.81,0,0,1,7.58,20H0Zm7.11-15V19.18h.47a4.75,4.75,0,0,0,1.84-.36,3.45,3.45,0,0,0,1.49-1.21,6.52,6.52,0,0,0,1-2.28,14.14,14.14,0,0,0,.3-3.62,16.46,16.46,0,0,0-.4-3.57,6.72,6.72,0,0,0-1-2.3A3.63,3.63,0,0,0,9.39,4.61a4.53,4.53,0,0,0-1.81-.36Z"/><path class="cls-1" d="M51.49,20l-5-7.59h-.12V19.3h1.43V20H39.28V19.3h1.9V4.13h-1.9V3.41h8.54a14.71,14.71,0,0,1,3.37.34,6.46,6.46,0,0,1,2.24.93,3.57,3.57,0,0,1,1.23,1.44A4.15,4.15,0,0,1,55,7.92a4.15,4.15,0,0,1-.38,1.8,3.54,3.54,0,0,1-1.23,1.43,6.27,6.27,0,0,1-2.24.94,14.76,14.76,0,0,1-3.37.33h-.24v.12l5.66,1.9,3.32,4.86h1.33V20ZM49.59,7.92a5.61,5.61,0,0,0-.2-1.62,3.32,3.32,0,0,0-.54-1.15,2.33,2.33,0,0,0-.8-.68,2.06,2.06,0,0,0-.94-.22h-.72v7.34h.72a2.06,2.06,0,0,0,.94-.22,2.33,2.33,0,0,0,.8-.68,3.32,3.32,0,0,0,.54-1.15,5.61,5.61,0,0,0,.2-1.62"/><path class="cls-1" d="M37.3,4.13H35.43V14.21c0,3.86-2,5.8-6.07,5.8a11.44,11.44,0,0,1-3.43-.46,7.41,7.41,0,0,1-2.45-1.23A4.75,4.75,0,0,1,22,16.49a5.42,5.42,0,0,1-.48-2.28V4.13h-1.9V3.41h8.79v.72H26.75V14.55a5.09,5.09,0,0,0,1,3.54,3.62,3.62,0,0,0,2.88,1.1,3.85,3.85,0,0,0,1.56-.31A3.56,3.56,0,0,0,33.47,18a4.41,4.41,0,0,0,.84-1.49,6.31,6.31,0,0,0,.3-2V6.08L31.35,4.13V3.41H37.3Z"/><rect class="cls-2" x="64.13" width="7.66" height="0.8"/><polygon class="cls-2" points="9.22 27.78 8.92 27.78 8.92 24.66 10.56 27 10.56 24.85 10.87 24.85 10.87 27.96 9.22 25.62 9.22 27.78"/><rect class="cls-2" x="13.24" y="24.85" width="0.3" height="2.93"/><path class="cls-2" d="M18.06,27.56a1.43,1.43,0,0,1-.82.26,1.39,1.39,0,0,1-1-.45,1.46,1.46,0,0,1-.42-1.05,1.4,1.4,0,0,1,.11-.58,1.33,1.33,0,0,1,.31-.48,1.39,1.39,0,0,1,1-.45,1.31,1.31,0,0,1,.81.26,1.42,1.42,0,0,1,.54.67h-.33a1.2,1.2,0,0,0-.71-.58,1.28,1.28,0,0,0-.36,0,.91.91,0,0,0-.41.1,1.18,1.18,0,0,0-.37.26,1.22,1.22,0,0,0,0,1.67,1.11,1.11,0,0,0,.83.36,1.16,1.16,0,0,0,.6-.17,1.24,1.24,0,0,0,.42-.46h.33a1.42,1.42,0,0,1-.53.68"/><polygon class="cls-2" points="20.77 27.78 20.77 24.85 21.07 24.85 21.07 26.16 22.4 26.16 22.4 24.85 22.7 24.85 22.7 27.78 22.4 27.78 22.4 26.47 21.07 26.47 21.07 27.78 20.77 27.78"/><polygon class="cls-2" points="25.07 27.78 25.07 24.85 26.81 24.85 26.81 25.13 25.38 25.13 25.38 26.17 26.77 26.17 26.77 26.45 25.38 26.45 25.38 27.5 26.81 27.5 26.81 27.78 25.07 27.78"/><path class="cls-2" d="M33.67,26.37a1,1,0,0,1-.66.25h-.64v1.15h-.3V24.85H33a1,1,0,0,1,.66.24.89.89,0,0,1,0,1.28m-.62-.05a.54.54,0,0,0,.42-.17.6.6,0,0,0,.17-.43.61.61,0,0,0-.16-.42.57.57,0,0,0-.43-.16h-.68v1.18Z"/><polygon class="cls-2" points="36.07 27.78 36.07 24.85 37.81 24.85 37.81 25.13 36.38 25.13 36.38 26.17 37.77 26.17 37.77 26.45 36.38 26.45 36.38 27.5 37.81 27.5 37.81 27.78 36.07 27.78"/><path class="cls-2" d="M41.78,26.37a.93.93,0,0,1-.58.25l.9,1.16h-.41l-.85-1.16h-.36v1.16h-.3V24.85h.94a.92.92,0,0,1,.66.25.88.88,0,0,1,0,1.27m-.62,0a.57.57,0,0,0,.42-.17.64.64,0,0,0,.17-.44.57.57,0,0,0-.16-.42.57.57,0,0,0-.43-.16h-.68v1.19Z"/><polygon class="cls-2" points="44.55 25.13 44.55 26.17 45.95 26.17 45.95 26.45 44.55 26.45 44.55 27.78 44.25 27.78 44.25 24.85 45.99 24.85 45.99 25.13 44.55 25.13"/><path class="cls-2" d="M49.93,27.56a1.34,1.34,0,0,1-1.56,0,1,1,0,0,1-.31-.75v-2h.3v2a.6.6,0,0,0,.24.51.92.92,0,0,0,.55.15.75.75,0,0,0,.73-.36.67.67,0,0,0,.06-.3v-2h.3v2a1,1,0,0,1-.31.75"/><polygon class="cls-2" points="54.79 25.69 53.91 27.95 53.03 25.69 52.58 27.78 52.27 27.78 52.95 24.65 53.91 27.16 54.87 24.65 55.55 27.78 55.25 27.78 54.79 25.69"/><polygon class="cls-2" points="57.64 27.78 57.64 24.85 59.38 24.85 59.38 25.13 57.95 25.13 57.95 26.17 59.34 26.17 59.34 26.45 57.95 26.45 57.95 27.5 59.38 27.5 59.38 27.78 57.64 27.78"/><path class="cls-2" d="M63.35,26.37a.93.93,0,0,1-.58.25l.9,1.16h-.4l-.86-1.16h-.35v1.16h-.31V24.85h.94a.92.92,0,0,1,.66.25.88.88,0,0,1,0,1.27m-.61,0a.55.55,0,0,0,.41-.17.6.6,0,0,0,.17-.44.57.57,0,0,0-.16-.42.55.55,0,0,0-.42-.16h-.68v1.19Z"/><polygon class="cls-2" points="66.95 27.78 66.65 27.78 66.65 26.4 65.54 24.85 65.93 24.85 66.8 26.1 67.68 24.85 68.06 24.85 66.95 26.4 66.95 27.78"/></g></g></svg>