<svg xmlns="http://www.w3.org/2000/svg" viewBox="0 0 146.06 166.13"><defs><style>.cls-1{opacity:0.18;}.cls-2{fill:#fff;}</style></defs><g id="Layer_2" data-name="Layer 2"><g id="Layer_1-2" data-name="Layer 1"><g id="r-5" class="cls-1"><path class="cls-2" d="M.58.16h.1C6.76,1.53,38.85,8.33,73.11,8.33c33,0,68.45-7.26,72.39-8.09h.09a.42.42,0,0,1,.42.42V122.78c0,17.36-15.38,22.84-61,39.09l-11.7,4.18-.15,0-.15,0-11.7-4.18c-45.67-16.25-61-21.73-61-39.09C.21,104,.16,1.6.16.57A.4.4,0,0,1,.28.28.42.42,0,0,1,.58.16m0-.11A.53.53,0,0,0,.05.57C.06,9.38.1,104.79.1,122.78c0,18.84,17.89,23.69,72.83,43.37l.18,0,.18,0c54.94-19.68,72.83-24.53,72.83-43.37V.65a.52.52,0,0,0-.53-.52h-.11c-5.09,1.07-39.69,8.08-72.37,8.08C38.49,8.22,5.66,1.18.7.07L.58.05Z" transform="translate(-0.05 -0.05)"/></g></g></g></svg>