<svg xmlns="http://www.w3.org/2000/svg" viewBox="0 0 177.18 34.25"><defs><style>.cls-1{fill:#fff;}</style></defs><g id="Layer_2" data-name="Layer 2"><g id="Layer_1-2" data-name="Layer 1"><path class="cls-1" d="M1.37,19.36V2.19H7L11.8,15.12h.14L16.62,2.19H22V19.36H18.44L18.67,6h-.28L13.18,19.36H10.06L4.94,6H4.65l.23,13.38Z"/><path class="cls-1" d="M32,19.72a9,9,0,0,1-3-.47,6.08,6.08,0,0,1-2.22-1.35,5.75,5.75,0,0,1-1.39-2.19,8.39,8.39,0,0,1-.48-2.94,9.43,9.43,0,0,1,.45-3,6.8,6.8,0,0,1,1.34-2.37,5.91,5.91,0,0,1,2.16-1.55,7.34,7.34,0,0,1,2.89-.55,7.14,7.14,0,0,1,2.78.51,5.18,5.18,0,0,1,2,1.52,6.56,6.56,0,0,1,1.19,2.49A11.16,11.16,0,0,1,38,13.22l-10.71.1V11.27l8.56-.08-1.33,1A4.52,4.52,0,0,0,34.34,10a2.72,2.72,0,0,0-1.06-1.3A3.1,3.1,0,0,0,30,8.77a3.2,3.2,0,0,0-1.17,1.52,6.22,6.22,0,0,0-.42,2.41,4.64,4.64,0,0,0,1,3.25A3.35,3.35,0,0,0,32,17a3.5,3.5,0,0,0,1.24-.2,2.52,2.52,0,0,0,.83-.5,2.76,2.76,0,0,0,.52-.71,5.13,5.13,0,0,0,.32-.78l3.25.71a6.18,6.18,0,0,1-.68,1.73,4.6,4.6,0,0,1-1.21,1.32,5.52,5.52,0,0,1-1.81.86A9.05,9.05,0,0,1,32,19.72Z"/><path class="cls-1" d="M45.81,19.67a4.28,4.28,0,0,1-3.37-1.21,5.72,5.72,0,0,1-1.08-3.86v-6h-2l.06-2.94h1.37A2.35,2.35,0,0,0,42,5.46a1.07,1.07,0,0,0,.47-.86l.34-1.95H45V5.7h3.46v3H45v5.7a1.79,1.79,0,0,0,.44,1.35,1.93,1.93,0,0,0,1.36.42,4.26,4.26,0,0,0,1-.11,2.24,2.24,0,0,0,.79-.33v3.48a7.21,7.21,0,0,1-1.48.34A11.11,11.11,0,0,1,45.81,19.67Z"/><path class="cls-1" d="M54.26,19.72a4.39,4.39,0,0,1-2-.45A3.38,3.38,0,0,1,50.86,18a4.2,4.2,0,0,1-.5-2.13A3.78,3.78,0,0,1,50.79,14a3.24,3.24,0,0,1,1.26-1.23,8.71,8.71,0,0,1,2.06-.78,26,26,0,0,1,2.78-.54c.56-.09,1-.17,1.37-.25a1.54,1.54,0,0,0,.79-.39,1.09,1.09,0,0,0,.26-.8,1.67,1.67,0,0,0-.52-1.24,2.21,2.21,0,0,0-1.64-.52,3.55,3.55,0,0,0-1.39.26,2.81,2.81,0,0,0-1.09.78A3.11,3.11,0,0,0,54,10.56l-3.3-1a5.8,5.8,0,0,1,.9-1.85A5.22,5.22,0,0,1,53,6.39a6.15,6.15,0,0,1,1.9-.8,9.9,9.9,0,0,1,2.31-.26A7.35,7.35,0,0,1,60.5,6a4.07,4.07,0,0,1,1.88,2A8.12,8.12,0,0,1,63,11.4v2.34c0,.6,0,1.22,0,1.84s.06,1.26.1,1.89.09,1.26.14,1.89H60c-.07-.44-.14-.94-.2-1.5s-.1-1.13-.14-1.7h-.47a6,6,0,0,1-1,1.79,4.89,4.89,0,0,1-3.88,1.77ZM55.85,17a3,3,0,0,0,1-.19,4.6,4.6,0,0,0,1-.5,4.27,4.27,0,0,0,.89-.82,4.47,4.47,0,0,0,.66-1.12l0-2.19.6.13a3.64,3.64,0,0,1-1.1.54,7.68,7.68,0,0,1-1.28.29c-.45.07-.88.15-1.32.24a6.65,6.65,0,0,0-1.16.34,2.06,2.06,0,0,0-.8.56,1.44,1.44,0,0,0-.3,1,1.64,1.64,0,0,0,.52,1.28A2,2,0,0,0,55.85,17Z"/><path class="cls-1" d="M66.29,19.36V.75H70V19.36Z"/><path class="cls-1" d="M79.58,19.36V2.19h7a13.24,13.24,0,0,1,2.55.22,8.5,8.5,0,0,1,2,.63,5.31,5.31,0,0,1,1.5,1,4.1,4.1,0,0,1,.92,1.41,4.7,4.7,0,0,1,.31,1.75,4.53,4.53,0,0,1-.28,1.65,3.44,3.44,0,0,1-.86,1.29,4.37,4.37,0,0,1-1.43.9,7.8,7.8,0,0,1-2,.48v.39a5.12,5.12,0,0,1,2.13.61,3.49,3.49,0,0,1,1.24,1.29,9.24,9.24,0,0,1,.8,2l1,3.52H90.35l-.81-3.26a4.21,4.21,0,0,0-.67-1.62,2.41,2.41,0,0,0-1.12-.83,4.68,4.68,0,0,0-1.64-.25H83.33v6Zm3.75-8.77h3A4.7,4.7,0,0,0,89,9.91a2.37,2.37,0,0,0,1-2.1,2.4,2.4,0,0,0-.9-2.07,4.46,4.46,0,0,0-2.69-.67H83.33Z"/><path class="cls-1" d="M103.18,19.72a7.64,7.64,0,0,1-3.62-.82,5.81,5.81,0,0,1-2.44-2.42,8.15,8.15,0,0,1-.89-4,8,8,0,0,1,.9-4A5.78,5.78,0,0,1,99.6,6.13a8.47,8.47,0,0,1,7.21,0,5.85,5.85,0,0,1,2.47,2.41,8,8,0,0,1,.9,4,7.92,7.92,0,0,1-.93,4,5.79,5.79,0,0,1-2.5,2.38A7.91,7.91,0,0,1,103.18,19.72Zm.13-2.78a3,3,0,0,0,1.7-.47,2.82,2.82,0,0,0,1-1.42,6.51,6.51,0,0,0,.35-2.3,6.9,6.9,0,0,0-.37-2.43,3.26,3.26,0,0,0-1.11-1.54,3.07,3.07,0,0,0-1.85-.53,3,3,0,0,0-1.66.45,2.79,2.79,0,0,0-1.07,1.41,6.59,6.59,0,0,0-.36,2.33,5.4,5.4,0,0,0,.88,3.35A2.91,2.91,0,0,0,103.31,16.94Z"/><path class="cls-1" d="M119,19.72a7.6,7.6,0,0,1-3.61-.82A5.83,5.83,0,0,1,113,16.48a8.15,8.15,0,0,1-.88-4,8.08,8.08,0,0,1,.89-4,5.8,5.8,0,0,1,2.48-2.38,8.45,8.45,0,0,1,7.2,0,5.8,5.8,0,0,1,2.47,2.41,8,8,0,0,1,.9,4,8,8,0,0,1-.92,4,5.84,5.84,0,0,1-2.5,2.38A8,8,0,0,1,119,19.72Zm.13-2.78a3,3,0,0,0,1.71-.47,2.88,2.88,0,0,0,1-1.42,6.74,6.74,0,0,0,.35-2.3,6.89,6.89,0,0,0-.38-2.43,3.31,3.31,0,0,0-1.1-1.54,3.11,3.11,0,0,0-1.85-.53,3,3,0,0,0-1.67.45,2.83,2.83,0,0,0-1.06,1.41,6.36,6.36,0,0,0-.37,2.33,5.4,5.4,0,0,0,.89,3.35A2.9,2.9,0,0,0,119.15,16.94Z"/><path class="cls-1" d="M129.72,19.36V10.61h-2.16V7.86L131.2,8V7.52a3.84,3.84,0,0,1-1.5-.66,2.65,2.65,0,0,1-.84-1.11,3.53,3.53,0,0,1-.26-1.38,3.34,3.34,0,0,1,.57-1.94,3.75,3.75,0,0,1,1.61-1.27A6,6,0,0,1,133.23.7a7.34,7.34,0,0,1,2.17.3,5.22,5.22,0,0,1,1.57.74l-.23,3.39a5.8,5.8,0,0,0-1.4-.73,4.37,4.37,0,0,0-1.49-.29,2,2,0,0,0-1.29.42,1.67,1.67,0,0,0-.5,1.35,1.75,1.75,0,0,0,.27,1,1.55,1.55,0,0,0,.68.54,2.68,2.68,0,0,0,.79.22h3.12v2.94h-3.56v8.75Z"/><path class="cls-1" d="M141,3.64a2.71,2.71,0,0,1-1.68-.45,1.6,1.6,0,0,1-.58-1.34A1.65,1.65,0,0,1,139.3.47a3.27,3.27,0,0,1,3.38,0,1.63,1.63,0,0,1,.59,1.38,1.57,1.57,0,0,1-.59,1.32A2.61,2.61,0,0,1,141,3.64Zm-1.9,15.72V5.7h3.75V19.36Z"/><path class="cls-1" d="M146.29,19.36V5.7h3.07l0,4.08h.52a7.91,7.91,0,0,1,1-2.47,4,4,0,0,1,1.57-1.48,4.79,4.79,0,0,1,2.25-.5A4.2,4.2,0,0,1,158.24,7q1.24,1.66,1.24,5.23v7.13h-3.77V12.64a6.16,6.16,0,0,0-.64-3.18,2.07,2.07,0,0,0-1.86-1,2.43,2.43,0,0,0-1.74.65,4,4,0,0,0-1.06,1.7,7.82,7.82,0,0,0-.37,2.35v6.2Z"/><path class="cls-1" d="M168.12,24.12a16.2,16.2,0,0,1-3.68-.35,4.47,4.47,0,0,1-2.12-1,2.27,2.27,0,0,1-.68-1.69,2.38,2.38,0,0,1,1-1.95,5,5,0,0,1,2.8-.91v-.52a6.06,6.06,0,0,1-2.16-.3,1.06,1.06,0,0,1-.76-1.06,1.65,1.65,0,0,1,.74-1.3,6.24,6.24,0,0,1,2.46-.91v-.52a3.72,3.72,0,0,1-2.52-1,3.3,3.3,0,0,1-.91-2.42A3.91,3.91,0,0,1,163,7.79a5,5,0,0,1,2.17-1.64,9.23,9.23,0,0,1,3.55-.61h6.92V8.4l-4.29-.59V8.4a5,5,0,0,1,2.4.84,2,2,0,0,1,.75,1.66,2.74,2.74,0,0,1-.71,1.87,4.66,4.66,0,0,1-2,1.27,9.35,9.35,0,0,1-3.08.45l-.73,0-1.3-.13a7.73,7.73,0,0,0-.77.63.78.78,0,0,0-.27.51.36.36,0,0,0,.19.31,1.23,1.23,0,0,0,.52.18A3.71,3.71,0,0,0,167,16h3.9q.53,0,1.35.06a5.67,5.67,0,0,1,1.67.41,3.32,3.32,0,0,1,1.4,1.07,3.4,3.4,0,0,1,.58,2.13,3.72,3.72,0,0,1-.85,2.49,5,5,0,0,1-2.58,1.46A17,17,0,0,1,168.12,24.12Zm.41-3A14.05,14.05,0,0,0,171,21a2.51,2.51,0,0,0,1.27-.55,1.49,1.49,0,0,0,.15-1.76,1.17,1.17,0,0,0-.57-.4,2.92,2.92,0,0,0-.7-.15,4.88,4.88,0,0,0-.61,0h-3.28a2.54,2.54,0,0,0-1.58.58,1.52,1.52,0,0,0-.48,1.11,1,1,0,0,0,.37.86,2.42,2.42,0,0,0,1.1.4A12.06,12.06,0,0,0,168.53,21.13Zm-.05-8.59a2.55,2.55,0,0,0,1.87-.61,2.13,2.13,0,0,0,.63-1.6,2.4,2.4,0,0,0-.64-1.72,2.42,2.42,0,0,0-1.86-.67,2.56,2.56,0,0,0-1.87.66,2.28,2.28,0,0,0-.68,1.7,2.23,2.23,0,0,0,.3,1.16,2,2,0,0,0,.87.79A2.93,2.93,0,0,0,168.48,12.54Z"/><path class="cls-1" d="M3.5,34.25a5.63,5.63,0,0,1-1.43-.16A3.12,3.12,0,0,1,1,33.63a2.21,2.21,0,0,1-.7-.79A2.47,2.47,0,0,1,0,31.76l1.55-.51a1.64,1.64,0,0,0,.27.92,1.41,1.41,0,0,0,.72.54,2.87,2.87,0,0,0,1,.18,2.76,2.76,0,0,0,.93-.14,1.31,1.31,0,0,0,.58-.36.76.76,0,0,0,.2-.5A.61.61,0,0,0,5,31.38a2,2,0,0,0-.67-.33c-.28-.09-.6-.18-1-.26s-.8-.19-1.18-.31A4.81,4.81,0,0,1,1.17,30a2.19,2.19,0,0,1-.75-.7,2,2,0,0,1-.27-1.08A2.2,2.2,0,0,1,.52,27a2.39,2.39,0,0,1,1.1-.85,4.33,4.33,0,0,1,1.74-.31,4.63,4.63,0,0,1,1.76.3A2.56,2.56,0,0,1,6.26,27a2.32,2.32,0,0,1,.44,1.29l-1.6.44A1.69,1.69,0,0,0,5,28a1.27,1.27,0,0,0-.34-.47,1.38,1.38,0,0,0-.55-.29,2.41,2.41,0,0,0-.74-.1,2.55,2.55,0,0,0-.83.12,1.21,1.21,0,0,0-.53.33.79.79,0,0,0-.17.49.66.66,0,0,0,.27.55,2.32,2.32,0,0,0,.74.35c.3.09.64.18,1,.26s.71.16,1.07.27a5.21,5.21,0,0,1,1,.43,2.16,2.16,0,0,1,.76.71A2.08,2.08,0,0,1,7,31.81a2.13,2.13,0,0,1-.39,1.28A2.51,2.51,0,0,1,5.42,34,5.38,5.38,0,0,1,3.5,34.25Z"/><path class="cls-1" d="M11.2,34.25a3.6,3.6,0,0,1-1.71-.39,2.81,2.81,0,0,1-1.15-1.14,3.82,3.82,0,0,1-.42-1.88A3.71,3.71,0,0,1,8.35,29a2.72,2.72,0,0,1,1.16-1.12,3.72,3.72,0,0,1,1.69-.38,3.74,3.74,0,0,1,1.71.38A2.83,2.83,0,0,1,14.07,29a3.71,3.71,0,0,1,.43,1.88,3.79,3.79,0,0,1-.44,1.9,2.77,2.77,0,0,1-1.18,1.12A3.77,3.77,0,0,1,11.2,34.25Zm.06-1.31a1.35,1.35,0,0,0,.8-.23,1.3,1.3,0,0,0,.49-.66A3.16,3.16,0,0,0,12.72,31a3.27,3.27,0,0,0-.18-1.15,1.57,1.57,0,0,0-.52-.72,1.42,1.42,0,0,0-.87-.25,1.46,1.46,0,0,0-.79.21,1.4,1.4,0,0,0-.5.67,3.12,3.12,0,0,0-.17,1.09,2.56,2.56,0,0,0,.42,1.59A1.36,1.36,0,0,0,11.26,32.94Z"/><path class="cls-1" d="M15.75,34.08V25.31h1.74v8.77Z"/><path class="cls-1" d="M21.29,34.25a2,2,0,0,1-1.7-.77A3.92,3.92,0,0,1,19,31.14v-3.5h1.77v3.28a2.76,2.76,0,0,0,.28,1.41,1,1,0,0,0,.86.46,1.08,1.08,0,0,0,.6-.17,1.57,1.57,0,0,0,.44-.48,2.27,2.27,0,0,0,.28-.73,4.84,4.84,0,0,0,.1-.89V27.64h1.77v6.44H23.7l0-2h-.22A4.49,4.49,0,0,1,23,33.31a1.71,1.71,0,0,1-.7.71A2.09,2.09,0,0,1,21.29,34.25Z"/><path class="cls-1" d="M29.13,34.22a2,2,0,0,1-1.59-.57A2.67,2.67,0,0,1,27,31.83V29H26.1l0-1.38h.65a1.15,1.15,0,0,0,.56-.11.52.52,0,0,0,.22-.41l.16-.92h1v1.44h1.63v1.43H28.73v2.69a.86.86,0,0,0,.2.64.92.92,0,0,0,.64.19,1.64,1.64,0,0,0,.45-.05.89.89,0,0,0,.37-.16V34a4.09,4.09,0,0,1-.7.16Z"/><path class="cls-1" d="M32.5,26.67a1.24,1.24,0,0,1-.79-.22.75.75,0,0,1-.27-.63.79.79,0,0,1,.27-.65A1.24,1.24,0,0,1,32.5,25a1.28,1.28,0,0,1,.81.22.79.79,0,0,1,.27.65.77.77,0,0,1-.27.63A1.35,1.35,0,0,1,32.5,26.67Zm-.89,7.41V27.64h1.76v6.44Z"/><path class="cls-1" d="M37.92,34.25a3.58,3.58,0,0,1-1.7-.39,2.75,2.75,0,0,1-1.15-1.14,4.42,4.42,0,0,1,0-3.76,2.69,2.69,0,0,1,1.17-1.12,3.65,3.65,0,0,1,1.68-.38,3.71,3.71,0,0,1,1.71.38A2.79,2.79,0,0,1,40.8,29a4.42,4.42,0,0,1,0,3.78,2.77,2.77,0,0,1-1.18,1.12A3.82,3.82,0,0,1,37.92,34.25ZM38,32.94a1.4,1.4,0,0,0,.8-.23,1.36,1.36,0,0,0,.49-.66A3.16,3.16,0,0,0,39.45,31a3.27,3.27,0,0,0-.18-1.15,1.64,1.64,0,0,0-.52-.72,1.62,1.62,0,0,0-1.66,0,1.34,1.34,0,0,0-.5.67,2.9,2.9,0,0,0-.17,1.09,2.56,2.56,0,0,0,.41,1.59A1.39,1.39,0,0,0,38,32.94Z"/><path class="cls-1" d="M42.47,34.08V27.64h1.45v1.92h.25a3.51,3.51,0,0,1,.45-1.16,1.84,1.84,0,0,1,.74-.7,2.21,2.21,0,0,1,1.06-.24,2,2,0,0,1,1.7.79,4.13,4.13,0,0,1,.58,2.46v3.37H46.92V30.91a2.85,2.85,0,0,0-.31-1.5,1,1,0,0,0-.87-.47,1.17,1.17,0,0,0-.82.3,1.86,1.86,0,0,0-.5.81,3.79,3.79,0,0,0-.18,1.11v2.92Z"/><path class="cls-1" d="M52.79,34.25a4.79,4.79,0,0,1-1.18-.13,3.26,3.26,0,0,1-.91-.35,2.19,2.19,0,0,1-.61-.56,1.9,1.9,0,0,1-.31-.73l1.35-.55a1.07,1.07,0,0,0,.27.5,1.63,1.63,0,0,0,.6.38,2.66,2.66,0,0,0,.9.14,1.83,1.83,0,0,0,.87-.17.51.51,0,0,0,.31-.47.45.45,0,0,0-.17-.37,1.52,1.52,0,0,0-.51-.23,7.11,7.11,0,0,0-.79-.19l-.93-.23a3.36,3.36,0,0,1-.87-.34,1.92,1.92,0,0,1-.65-.58,1.59,1.59,0,0,1-.25-.93,1.66,1.66,0,0,1,.32-1,2,2,0,0,1,.93-.69,3.9,3.9,0,0,1,1.49-.26,4.2,4.2,0,0,1,1.4.22,2.6,2.6,0,0,1,1,.61,2.07,2.07,0,0,1,.52.95l-1.43.48a1.15,1.15,0,0,0-.24-.51,1.13,1.13,0,0,0-.51-.33,2,2,0,0,0-.73-.12,1.52,1.52,0,0,0-.81.18.51.51,0,0,0-.29.45.45.45,0,0,0,.19.38,1.45,1.45,0,0,0,.53.24l.81.19c.33.07.65.14,1,.23a4,4,0,0,1,.84.33,1.7,1.7,0,0,1,.6.56,1.64,1.64,0,0,1,.22.88,1.81,1.81,0,0,1-.35,1.1,2.17,2.17,0,0,1-1,.7A4.31,4.31,0,0,1,52.79,34.25Z"/><path class="cls-1" d="M60.6,26.67a1.24,1.24,0,0,1-.79-.22.75.75,0,0,1-.27-.63.79.79,0,0,1,.27-.65A1.24,1.24,0,0,1,60.6,25a1.26,1.26,0,0,1,.81.22.79.79,0,0,1,.27.65.77.77,0,0,1-.27.63A1.32,1.32,0,0,1,60.6,26.67Zm-.89,7.41V27.64h1.76v6.44Z"/><path class="cls-1" d="M63.11,34.08V27.64h1.44v1.92h.25a3.51,3.51,0,0,1,.45-1.16,1.9,1.9,0,0,1,.74-.7A2.21,2.21,0,0,1,67,27.46a2,2,0,0,1,1.7.79,4.13,4.13,0,0,1,.58,2.46v3.37H67.55V30.91a2.86,2.86,0,0,0-.3-1.5,1,1,0,0,0-.88-.47,1.17,1.17,0,0,0-.82.3,2,2,0,0,0-.5.81,3.79,3.79,0,0,0-.18,1.11v2.92Z"/><path class="cls-1" d="M73.75,34.08V26h2.31l3.66,5.73h.14L79.75,26h1.72v8.1H79.38l-3.88-6h-.13l.11,6Z"/><path class="cls-1" d="M86.16,34.25A4.35,4.35,0,0,1,84.75,34a2.77,2.77,0,0,1-1-.64,2.69,2.69,0,0,1-.66-1A4,4,0,0,1,82.82,31a4.51,4.51,0,0,1,.21-1.4,3.16,3.16,0,0,1,.63-1.12,2.89,2.89,0,0,1,1-.73A3.44,3.44,0,0,1,86,27.46a3.36,3.36,0,0,1,1.31.24,2.4,2.4,0,0,1,1,.72,3.18,3.18,0,0,1,.56,1.17A5.28,5.28,0,0,1,89,31.18L84,31.23v-1l4,0-.62.49a2.2,2.2,0,0,0-.09-1.06,1.25,1.25,0,0,0-.5-.62,1.33,1.33,0,0,0-.71-.19,1.45,1.45,0,0,0-.83.24,1.69,1.69,0,0,0-.55.72,3,3,0,0,0-.19,1.14A2.17,2.17,0,0,0,85,32.47a1.55,1.55,0,0,0,1.2.49,1.7,1.7,0,0,0,.59-.09,1.08,1.08,0,0,0,.39-.24,1.27,1.27,0,0,0,.24-.33,2.3,2.3,0,0,0,.16-.37l1.53.33a3.11,3.11,0,0,1-.32.82,2.14,2.14,0,0,1-.58.62,2.59,2.59,0,0,1-.85.41A4.39,4.39,0,0,1,86.16,34.25Z"/><path class="cls-1" d="M91.27,34.08l-1.6-6.44h1.84l.91,5h.23l1.08-5h2.12l1.12,5h.23l.88-5h1.81l-1.61,6.44H95.85l-1-5h-.21l-1,5Z"/><path class="cls-1" d="M106.92,34.25a5.63,5.63,0,0,1-1.43-.16,3.12,3.12,0,0,1-1.08-.46,2.21,2.21,0,0,1-.7-.79,2.61,2.61,0,0,1-.29-1.08l1.55-.51a1.64,1.64,0,0,0,.27.92,1.41,1.41,0,0,0,.72.54,2.87,2.87,0,0,0,1,.18,2.76,2.76,0,0,0,.93-.14,1.31,1.31,0,0,0,.58-.36.76.76,0,0,0,.2-.5.61.61,0,0,0-.25-.51,2,2,0,0,0-.67-.33c-.28-.09-.6-.18-1-.26s-.79-.19-1.18-.31a4.81,4.81,0,0,1-1.06-.44,2.19,2.19,0,0,1-.75-.7,2,2,0,0,1-.27-1.08,2.2,2.2,0,0,1,.37-1.29,2.39,2.39,0,0,1,1.1-.85,4.33,4.33,0,0,1,1.74-.31,4.59,4.59,0,0,1,1.76.3,2.56,2.56,0,0,1,1.14.85,2.32,2.32,0,0,1,.44,1.29l-1.6.44a1.69,1.69,0,0,0-.12-.66,1.27,1.27,0,0,0-.34-.47,1.38,1.38,0,0,0-.55-.29,2.41,2.41,0,0,0-.74-.1,2.55,2.55,0,0,0-.83.12,1.21,1.21,0,0,0-.53.33.79.79,0,0,0-.17.49.66.66,0,0,0,.27.55,2.32,2.32,0,0,0,.74.35c.3.09.64.18,1,.26s.71.16,1.07.27a5.21,5.21,0,0,1,1,.43,2.16,2.16,0,0,1,.76.71,2.08,2.08,0,0,1,.29,1.13,2.13,2.13,0,0,1-.39,1.28,2.46,2.46,0,0,1-1.17.86A5.38,5.38,0,0,1,106.92,34.25Z"/><path class="cls-1" d="M114.62,34.25a3.62,3.62,0,0,1-1.71-.39,2.81,2.81,0,0,1-1.15-1.14,4.37,4.37,0,0,1,0-3.76,2.72,2.72,0,0,1,1.16-1.12,4,4,0,0,1,3.4,0A2.85,2.85,0,0,1,117.5,29a4.37,4.37,0,0,1,0,3.78,2.8,2.8,0,0,1-1.17,1.12A3.85,3.85,0,0,1,114.62,34.25Zm.06-1.31a1.35,1.35,0,0,0,.8-.23,1.3,1.3,0,0,0,.49-.66,3.16,3.16,0,0,0,.17-1.09,3.27,3.27,0,0,0-.18-1.15,1.57,1.57,0,0,0-.52-.72,1.6,1.6,0,0,0-1.65,0,1.36,1.36,0,0,0-.51.67,3.12,3.12,0,0,0-.17,1.09,2.56,2.56,0,0,0,.42,1.59A1.37,1.37,0,0,0,114.68,32.94Z"/><path class="cls-1" d="M121.35,34.25a2,2,0,0,1-1.7-.77,3.92,3.92,0,0,1-.57-2.34v-3.5h1.77v3.28a2.76,2.76,0,0,0,.28,1.41,1,1,0,0,0,.86.46,1.08,1.08,0,0,0,.6-.17,1.57,1.57,0,0,0,.44-.48,2.27,2.27,0,0,0,.28-.73,4.11,4.11,0,0,0,.1-.89V27.64h1.77v6.44h-1.42v-2h-.23a4.49,4.49,0,0,1-.46,1.25,1.75,1.75,0,0,1-.69.71A2.16,2.16,0,0,1,121.35,34.25Z"/><path class="cls-1" d="M129.19,34.22a2,2,0,0,1-1.59-.57,2.67,2.67,0,0,1-.51-1.82V29h-.93l0-1.38h.65a1.15,1.15,0,0,0,.56-.11.52.52,0,0,0,.22-.41l.16-.92h1v1.44h1.63v1.43h-1.63v2.69a.91.91,0,0,0,.2.64.92.92,0,0,0,.64.19,1.64,1.64,0,0,0,.45-.05.89.89,0,0,0,.37-.16V34a4.09,4.09,0,0,1-.7.16Z"/><path class="cls-1" d="M131.67,34.08V25.31h1.78v2c0,.16,0,.33,0,.51a5.43,5.43,0,0,1-.06.55l-.09.56-.09.56h.27a4.5,4.5,0,0,1,.43-1.08,2.12,2.12,0,0,1,3.43-.16,4.13,4.13,0,0,1,.57,2.42v3.4h-1.78V31a3,3,0,0,0-.3-1.53,1,1,0,0,0-.9-.5,1.13,1.13,0,0,0-.81.3,1.7,1.7,0,0,0-.48.79,4.15,4.15,0,0,0-.19,1.11v3Z"/><path class="cls-1" d="M143.53,34.08,141.7,26h1.93l1.2,6.59H145L146.39,26h2.24l1.42,6.59h.15L151.4,26h1.83l-1.85,8.1h-2.47l-1.37-6.59h-.11l-1.37,6.59Z"/><path class="cls-1" d="M155.48,34.25a2,2,0,0,1-1-.22,1.5,1.5,0,0,1-.65-.62,1.92,1.92,0,0,1-.23-1,1.75,1.75,0,0,1,.2-.89,1.54,1.54,0,0,1,.59-.57,4,4,0,0,1,1-.37c.39-.1.82-.18,1.31-.26l.65-.11a.68.68,0,0,0,.37-.19.51.51,0,0,0,.12-.37.81.81,0,0,0-.24-.59,1.06,1.06,0,0,0-.77-.25,1.59,1.59,0,0,0-.66.13,1.32,1.32,0,0,0-.51.36,1.57,1.57,0,0,0-.32.63l-1.56-.48a2.72,2.72,0,0,1,.43-.87,2.65,2.65,0,0,1,.67-.62,2.83,2.83,0,0,1,.89-.37,4.72,4.72,0,0,1,1.09-.13,3.27,3.27,0,0,1,1.54.31,1.87,1.87,0,0,1,.89.93,3.78,3.78,0,0,1,.3,1.62v1.11c0,.28,0,.57,0,.87s0,.59,0,.89.05.59.07.89h-1.56c0-.21-.06-.44-.09-.71s-.05-.53-.07-.8h-.22a2.54,2.54,0,0,1-.49.84,2.23,2.23,0,0,1-.78.61A2.31,2.31,0,0,1,155.48,34.25Zm.74-1.28a1.61,1.61,0,0,0,.48-.08,2.25,2.25,0,0,0,.46-.24,2.19,2.19,0,0,0,.42-.39,2,2,0,0,0,.31-.53l0-1,.28.06a2,2,0,0,1-.52.26,5.27,5.27,0,0,1-.6.14l-.62.11a2.56,2.56,0,0,0-.55.16,1,1,0,0,0-.38.26.7.7,0,0,0-.14.46.76.76,0,0,0,.25.6A.88.88,0,0,0,156.22,33Z"/><path class="cls-1" d="M161.14,34.08V25.31h1.74v8.77Z"/><path class="cls-1" d="M167.5,34.25a4.37,4.37,0,0,1-1.42-.22,2.94,2.94,0,0,1-1.05-.64,2.81,2.81,0,0,1-.66-1,4,4,0,0,1-.22-1.39,4.51,4.51,0,0,1,.21-1.4,3.32,3.32,0,0,1,.63-1.12,2.89,2.89,0,0,1,1-.73,3.72,3.72,0,0,1,2.68,0,2.44,2.44,0,0,1,1,.72,3,3,0,0,1,.56,1.17,5.28,5.28,0,0,1,.13,1.59l-5.05.05v-1l4,0-.62.49a2.09,2.09,0,0,0-.09-1.06,1.29,1.29,0,0,0-.49-.62,1.39,1.39,0,0,0-.72-.19,1.41,1.41,0,0,0-.82.24,1.64,1.64,0,0,0-.56.72,3,3,0,0,0-.19,1.14,2.17,2.17,0,0,0,.46,1.53,1.56,1.56,0,0,0,1.21.49,1.68,1.68,0,0,0,.58-.09,1.08,1.08,0,0,0,.39-.24,1.59,1.59,0,0,0,.25-.33,3.59,3.59,0,0,0,.15-.37l1.53.33a3.11,3.11,0,0,1-.32.82,2.24,2.24,0,0,1-.57.62,2.64,2.64,0,0,1-.86.41A4.36,4.36,0,0,1,167.5,34.25Z"/><path class="cls-1" d="M174.28,34.25a4.74,4.74,0,0,1-1.18-.13,3.26,3.26,0,0,1-.91-.35,2.06,2.06,0,0,1-.61-.56,1.76,1.76,0,0,1-.31-.73l1.35-.55a1,1,0,0,0,.27.5,1.63,1.63,0,0,0,.6.38,2.66,2.66,0,0,0,.9.14,1.89,1.89,0,0,0,.87-.17.53.53,0,0,0,.31-.47.43.43,0,0,0-.18-.37,1.37,1.37,0,0,0-.5-.23,7.34,7.34,0,0,0-.8-.19l-.92-.23a3.36,3.36,0,0,1-.87-.34,1.83,1.83,0,0,1-.65-.58,1.59,1.59,0,0,1-.25-.93,1.72,1.72,0,0,1,.31-1,2.05,2.05,0,0,1,.94-.69,3.86,3.86,0,0,1,1.49-.26,4.24,4.24,0,0,1,1.4.22,2.6,2.6,0,0,1,1,.61,2.07,2.07,0,0,1,.52.95l-1.43.48a1.15,1.15,0,0,0-.24-.51,1.13,1.13,0,0,0-.51-.33,2,2,0,0,0-.73-.12,1.52,1.52,0,0,0-.81.18.49.49,0,0,0-.29.45.45.45,0,0,0,.19.38,1.45,1.45,0,0,0,.53.24l.81.19c.33.07.65.14,1,.23a4,4,0,0,1,.84.33,1.59,1.59,0,0,1,.59.56,1.55,1.55,0,0,1,.22.88,1.8,1.8,0,0,1-.34,1.1,2.17,2.17,0,0,1-1,.7A4.35,4.35,0,0,1,174.28,34.25Z"/></g></g></svg>