<svg xmlns="http://www.w3.org/2000/svg" viewBox="0 0 132.54 44.33"><defs><style>.cls-1{fill:#073940;}</style></defs><g id="Layer_2" data-name="Layer 2"><g id="Layer_1-2" data-name="Layer 1"><path class="cls-1" d="M16.73,13.13a7.2,7.2,0,0,1-1.67,3.09A6.85,6.85,0,0,1,12.33,18a10.43,10.43,0,0,1-3.49.56,9.55,9.55,0,0,1-4.72-1.11,7.46,7.46,0,0,1-3.06-3.18A10.94,10.94,0,0,1,0,9.28a11,11,0,0,1,1.06-5A7.46,7.46,0,0,1,4.12,1.1,9.59,9.59,0,0,1,8.81,0a11,11,0,0,1,3.47.53A6.89,6.89,0,0,1,15,2.16,6.15,6.15,0,0,1,16.51,5L12.39,6.63a3.84,3.84,0,0,0-1.24-2.32A3.58,3.58,0,0,0,9,3.68a3.92,3.92,0,0,0-2.23.63A4,4,0,0,0,5.31,6.18a8.2,8.2,0,0,0-.51,3.1,8.91,8.91,0,0,0,.47,3.08,3.65,3.65,0,0,0,1.4,1.88A4.13,4.13,0,0,0,9,14.87a3.48,3.48,0,0,0,2.22-.72,3.72,3.72,0,0,0,1.24-2.23Z"/><path class="cls-1" d="M23.63,18.56a5.84,5.84,0,0,1-2.44-.48,3.56,3.56,0,0,1-1.65-1.54,5.66,5.66,0,0,1-.6-2.79V4.64h4.64v8a2.53,2.53,0,0,0,.52,1.83,2,2,0,0,0,1.47.52,2.41,2.41,0,0,0,.93-.18,2.12,2.12,0,0,0,.76-.54,2.58,2.58,0,0,0,.51-1A5.1,5.1,0,0,0,27.94,12V4.64h4.64V18.28H28.44l-.14-2.56a4.63,4.63,0,0,1-1.83,2.14A5.51,5.51,0,0,1,23.63,18.56Z"/><path class="cls-1" d="M41.64,18.56a10.73,10.73,0,0,1-3.8-.67A7.39,7.39,0,0,1,34.93,16l2.18-2.56a5.46,5.46,0,0,0,1.82,1.46,5.38,5.38,0,0,0,2.52.59,3.42,3.42,0,0,0,1.39-.25.8.8,0,0,0,.55-.76.78.78,0,0,0-.27-.62A2.78,2.78,0,0,0,42,13.43L40.12,13a7.42,7.42,0,0,1-3.65-1.54,3.53,3.53,0,0,1-1.08-2.69,3.78,3.78,0,0,1,.69-2.14A4.72,4.72,0,0,1,38.18,5a8.78,8.78,0,0,1,3.63-.64,10.23,10.23,0,0,1,3.65.6A5.72,5.72,0,0,1,48,6.71L45.76,9.22a4.46,4.46,0,0,0-1.69-1.28A5,5,0,0,0,42,7.48a4.38,4.38,0,0,0-1.11.12,1.45,1.45,0,0,0-.67.34.77.77,0,0,0-.21.55.75.75,0,0,0,.34.61,3.42,3.42,0,0,0,1.27.45L44.1,10a5.36,5.36,0,0,1,3,1.39,3.48,3.48,0,0,1,.93,2.43,4.25,4.25,0,0,1-.71,2.4,4.8,4.8,0,0,1-2.13,1.68A9.05,9.05,0,0,1,41.64,18.56Z"/><path class="cls-1" d="M60.23,4.64v3.3H49.17V4.64ZM56.16.3V13.43a1.78,1.78,0,0,0,.48,1.4,1.94,1.94,0,0,0,1.32.42,3.73,3.73,0,0,0,1.13-.15,2.62,2.62,0,0,0,.86-.45l.5,2.87a5.15,5.15,0,0,1-1.72.76,8.47,8.47,0,0,1-2.13.28,7.47,7.47,0,0,1-2.69-.44,3.48,3.48,0,0,1-1.75-1.39,4.81,4.81,0,0,1-.64-2.54V1.58Z"/><path class="cls-1" d="M68.88,4.37a8.16,8.16,0,0,1,3.78.83,6,6,0,0,1,2.53,2.43,7.57,7.57,0,0,1,.92,3.83,7.57,7.57,0,0,1-.92,3.83,6,6,0,0,1-2.53,2.43,8.84,8.84,0,0,1-7.52,0,6,6,0,0,1-2.55-2.43,7.57,7.57,0,0,1-.92-3.83,7.57,7.57,0,0,1,.92-3.83A6,6,0,0,1,65.14,5.2,8.07,8.07,0,0,1,68.88,4.37Zm0,3.3a2.37,2.37,0,0,0-1.37.38,2.33,2.33,0,0,0-.87,1.23,6.62,6.62,0,0,0-.3,2.18,6.51,6.51,0,0,0,.3,2.17,2.46,2.46,0,0,0,.87,1.23,2.37,2.37,0,0,0,1.37.39,2.42,2.42,0,0,0,1.39-.39,2.46,2.46,0,0,0,.87-1.23,6.51,6.51,0,0,0,.3-2.17,6.62,6.62,0,0,0-.3-2.18,2.33,2.33,0,0,0-.87-1.23A2.41,2.41,0,0,0,68.88,7.67Z"/><path class="cls-1" d="M78.73,18.28V4.64h4.15L83,7.29A4.83,4.83,0,0,1,84.85,5.1a5.14,5.14,0,0,1,2.75-.73,4.9,4.9,0,0,1,2.64.68,4.1,4.1,0,0,1,1.67,2,4.53,4.53,0,0,1,2.73-2.4,5.83,5.83,0,0,1,1.85-.3,5.11,5.11,0,0,1,2.4.53,3.9,3.9,0,0,1,1.66,1.61,5.35,5.35,0,0,1,.61,2.69v9.08H96.52v-8A2.65,2.65,0,0,0,96,8.43a1.83,1.83,0,0,0-1.35-.52,2.44,2.44,0,0,0-1.25.34,2.21,2.21,0,0,0-.86,1,4.28,4.28,0,0,0-.3,1.72v7.28H87.62v-8a2.6,2.6,0,0,0-.51-1.83,1.86,1.86,0,0,0-1.34-.52,2.25,2.25,0,0,0-2.08,1.35,4.46,4.46,0,0,0-.32,1.82v7.2Z"/><path class="cls-1" d="M111.07,18.56a8.52,8.52,0,0,1-3.92-.85,6,6,0,0,1-2.55-2.43,7.6,7.6,0,0,1-.9-3.82,7.63,7.63,0,0,1,.9-3.82,6.15,6.15,0,0,1,2.52-2.43,8,8,0,0,1,3.73-.84,7.48,7.48,0,0,1,3.67.83,5.58,5.58,0,0,1,2.3,2.29,6.87,6.87,0,0,1,.79,3.34c0,.33,0,.66,0,1s0,.6-.08.81H106.7V10.15h8.76l-2.21.85a4.5,4.5,0,0,0-.59-2.51,2,2,0,0,0-1.81-.88,2.64,2.64,0,0,0-1.49.41,2.48,2.48,0,0,0-.93,1.28,6.75,6.75,0,0,0-.31,2.24,5.72,5.72,0,0,0,.35,2.17,2.39,2.39,0,0,0,1,1.2,3.17,3.17,0,0,0,1.59.37,3,3,0,0,0,1.65-.41,2.41,2.41,0,0,0,.91-1.14L117.34,15a4.19,4.19,0,0,1-1.32,2,6.47,6.47,0,0,1-2.24,1.22A9,9,0,0,1,111.07,18.56Z"/><path class="cls-1" d="M120.21,18.28V4.64h4.09l.19,3A5.22,5.22,0,0,1,126,5.21a4,4,0,0,1,2.61-.84,3.86,3.86,0,0,1,.89.08,1.76,1.76,0,0,1,.58.22l-.46,3.82a2.62,2.62,0,0,0-.7-.18,6,6,0,0,0-1-.07,3.35,3.35,0,0,0-1.53.36,2.66,2.66,0,0,0-1.13,1.05,3.35,3.35,0,0,0-.42,1.76v6.87Z"/><path class="cls-1" d="M10,24.35a9.87,9.87,0,0,1,4.12.78,5.75,5.75,0,0,1,2.59,2.24,6.6,6.6,0,0,1,.89,3.54,6.64,6.64,0,0,1-.89,3.55A5.81,5.81,0,0,1,14.1,36.7a10,10,0,0,1-4.12.77H6.08V44H1V24.35Zm-.8,9.28A3.82,3.82,0,0,0,11.61,33a2.52,2.52,0,0,0,.82-2.05,2.51,2.51,0,0,0-.82-2,3.76,3.76,0,0,0-2.43-.67H6.08v5.43Z"/><path class="cls-1" d="M27.3,44.33A9.25,9.25,0,0,1,23,43.4a6.53,6.53,0,0,1-2.78-2.65,8.25,8.25,0,0,1-1-4.17,8.31,8.31,0,0,1,1-4.18A6.59,6.59,0,0,1,23,29.75a8.59,8.59,0,0,1,4.06-.92,8.17,8.17,0,0,1,4,.91,6.07,6.07,0,0,1,2.52,2.5,7.49,7.49,0,0,1,.87,3.65c0,.36,0,.72,0,1.07a8.49,8.49,0,0,1-.09.9H22.53V35.15H32.1l-2.41.92a5,5,0,0,0-.64-2.74,2.23,2.23,0,0,0-2-1,2.85,2.85,0,0,0-1.62.45,2.68,2.68,0,0,0-1,1.4,7.31,7.31,0,0,0-.35,2.45A6.11,6.11,0,0,0,24.47,39a2.68,2.68,0,0,0,1.1,1.31,3.48,3.48,0,0,0,1.73.4,3.21,3.21,0,0,0,1.81-.45,2.66,2.66,0,0,0,1-1.25l4,1.34a4.64,4.64,0,0,1-1.45,2.16,6.86,6.86,0,0,1-2.44,1.33A9.71,9.71,0,0,1,27.3,44.33Z"/><path class="cls-1" d="M37.29,44V29.12h4.47L42,32.34a5.68,5.68,0,0,1,1.68-2.59,4.32,4.32,0,0,1,2.85-.92,4.51,4.51,0,0,1,1,.09,2.05,2.05,0,0,1,.64.23l-.51,4.18a3.43,3.43,0,0,0-.76-.2,7.06,7.06,0,0,0-1.11-.07,3.63,3.63,0,0,0-1.67.39,3,3,0,0,0-1.24,1.14,3.65,3.65,0,0,0-.46,1.93V44Z"/><path class="cls-1" d="M56.13,44.33A11.77,11.77,0,0,1,52,43.6a8.16,8.16,0,0,1-3.17-2.1l2.38-2.81a6,6,0,0,0,2,1.6,5.91,5.91,0,0,0,2.76.64,3.69,3.69,0,0,0,1.52-.27.88.88,0,0,0,.6-.83.83.83,0,0,0-.3-.67,2.86,2.86,0,0,0-1.19-.44l-2.09-.41a8.14,8.14,0,0,1-4-1.69,3.86,3.86,0,0,1-1.18-2.93,4.17,4.17,0,0,1,.75-2.35,5.26,5.26,0,0,1,2.29-1.81,9.67,9.67,0,0,1,4-.7,11.13,11.13,0,0,1,4,.65,6.39,6.39,0,0,1,2.75,1.91l-2.42,2.74a4.86,4.86,0,0,0-1.85-1.4,5.45,5.45,0,0,0-2.26-.51,4.62,4.62,0,0,0-1.21.14,1.61,1.61,0,0,0-.73.37.81.81,0,0,0-.24.6.84.84,0,0,0,.37.67,3.7,3.7,0,0,0,1.39.49l2.71.54a5.76,5.76,0,0,1,3.31,1.52,3.76,3.76,0,0,1,1,2.65,4.59,4.59,0,0,1-.78,2.62A5.17,5.17,0,0,1,60,43.66,10.05,10.05,0,0,1,56.13,44.33Z"/><path class="cls-1" d="M72.77,28.83a8.87,8.87,0,0,1,4.12.91,6.58,6.58,0,0,1,2.78,2.65,8.35,8.35,0,0,1,1,4.19,8.38,8.38,0,0,1-1,4.19,6.64,6.64,0,0,1-2.78,2.65,9.71,9.71,0,0,1-8.21,0,6.66,6.66,0,0,1-2.79-2.65,8.38,8.38,0,0,1-1-4.19,8.35,8.35,0,0,1,1-4.19,6.6,6.6,0,0,1,2.79-2.65A8.83,8.83,0,0,1,72.77,28.83Zm0,3.6a2.4,2.4,0,0,0-2.45,1.76A7.24,7.24,0,0,0,70,36.58,7.11,7.11,0,0,0,70.32,39a2.74,2.74,0,0,0,1,1.34,2.57,2.57,0,0,0,1.5.43,2.61,2.61,0,0,0,1.52-.43A2.74,2.74,0,0,0,75.24,39a7.11,7.11,0,0,0,.33-2.37,7.24,7.24,0,0,0-.33-2.39,2.65,2.65,0,0,0-.95-1.34A2.68,2.68,0,0,0,72.77,32.43Z"/><path class="cls-1" d="M83.53,44V29.12h4.53l.27,5.13-.57-.56A6.69,6.69,0,0,1,88.82,31a5,5,0,0,1,1.91-1.62,6.38,6.38,0,0,1,5.27,0,4.38,4.38,0,0,1,1.81,1.76,6,6,0,0,1,.65,2.92V44H93.4V35.44a3,3,0,0,0-.6-2.14,2.07,2.07,0,0,0-1.52-.6,2.81,2.81,0,0,0-1.34.34,2.4,2.4,0,0,0-1,1.09,4.66,4.66,0,0,0-.35,2V44Z"/><path class="cls-1" d="M110.33,34.58a2.35,2.35,0,0,0-.58-1.66,2.09,2.09,0,0,0-1.57-.61,2.83,2.83,0,0,0-1.68.5,2.67,2.67,0,0,0-1,1.74l-4.29-1a5.29,5.29,0,0,1,2.2-3.43,8.5,8.5,0,0,1,5-1.28,9.56,9.56,0,0,1,3.71.64,5,5,0,0,1,2.36,1.91,5.65,5.65,0,0,1,.82,3.11V40c0,.77.34,1.16,1,1.16a2.5,2.5,0,0,0,.86-.12L117,43.88a5.14,5.14,0,0,1-2.18.42,5.52,5.52,0,0,1-2.06-.37,3.09,3.09,0,0,1-1.4-1.14,3.34,3.34,0,0,1-.51-1.92v-.18l.57-.21a3.12,3.12,0,0,1-.76,2.15,4.51,4.51,0,0,1-2,1.28,7.56,7.56,0,0,1-2.51.42,6.79,6.79,0,0,1-2.66-.48,3.85,3.85,0,0,1-1.74-1.39,3.9,3.9,0,0,1-.61-2.25,3.76,3.76,0,0,1,1-2.66,5.44,5.44,0,0,1,3-1.48l5.64-1.16,0,2.68-2.87.6a3.15,3.15,0,0,0-1.32.52,1.23,1.23,0,0,0-.43,1,1.11,1.11,0,0,0,.47,1,2,2,0,0,0,1.13.33,3.12,3.12,0,0,0,1-.15,2.29,2.29,0,0,0,.82-.46,2.2,2.2,0,0,0,.57-.79,2.83,2.83,0,0,0,.21-1.14Z"/><path class="cls-1" d="M125.53,44.33a11.81,11.81,0,0,1-4.16-.73,8.16,8.16,0,0,1-3.17-2.1l2.38-2.81a5.93,5.93,0,0,0,2,1.6,5.84,5.84,0,0,0,2.75.64,3.66,3.66,0,0,0,1.52-.27.88.88,0,0,0,.6-.83.83.83,0,0,0-.3-.67,2.8,2.8,0,0,0-1.19-.44l-2.09-.41a8.19,8.19,0,0,1-4-1.69,3.86,3.86,0,0,1-1.17-2.93,4.15,4.15,0,0,1,.74-2.35,5.24,5.24,0,0,1,2.3-1.81,9.59,9.59,0,0,1,4-.7,11.23,11.23,0,0,1,4,.65,6.42,6.42,0,0,1,2.74,1.91L130,34.13a5,5,0,0,0-1.85-1.4,5.5,5.5,0,0,0-2.27-.51,4.62,4.62,0,0,0-1.21.14,1.67,1.67,0,0,0-.73.37.81.81,0,0,0-.24.6.83.83,0,0,0,.38.67,3.7,3.7,0,0,0,1.38.49l2.72.54a5.79,5.79,0,0,1,3.31,1.52,3.79,3.79,0,0,1,1,2.65,4.59,4.59,0,0,1-.78,2.62,5.12,5.12,0,0,1-2.32,1.84A10,10,0,0,1,125.53,44.33Z"/></g></g></svg>