<svg xmlns="http://www.w3.org/2000/svg" viewBox="0 0 186.12 32.62"><defs><style>.cls-1{fill:#fff;}</style></defs><g id="Layer_2" data-name="Layer 2"><g id="Layer_1-2" data-name="Layer 1"><path class="cls-1" d="M8.94,12.63l0-11.4h4.81a6.9,6.9,0,0,1,3.21.7,5.34,5.34,0,0,1,2.18,2,5.7,5.7,0,0,1,.78,3,5.72,5.72,0,0,1-.76,3,5.37,5.37,0,0,1-2.16,2,7,7,0,0,1-3.22.73Zm1.62-1.42h3.08a5.24,5.24,0,0,0,2.45-.55,3.89,3.89,0,0,0,1.6-1.51,4.31,4.31,0,0,0,.56-2.24,4.18,4.18,0,0,0-.58-2.24,4,4,0,0,0-1.61-1.5,5.33,5.33,0,0,0-2.45-.53H10.53Z"/><path class="cls-1" d="M26,12.67a4.9,4.9,0,0,1-2.43-.56,4.18,4.18,0,0,1-1.64-1.56,4.48,4.48,0,0,1-.58-2.27A4.65,4.65,0,0,1,21.9,6a4.15,4.15,0,0,1,1.55-1.56,4.52,4.52,0,0,1,2.22-.57,4.34,4.34,0,0,1,2.21.55A3.91,3.91,0,0,1,29.4,6,5,5,0,0,1,30,8.3a1.77,1.77,0,0,1,0,.22c0,.09,0,.17,0,.25l-7.35,0V7.67l6.53,0L28.46,8a2.89,2.89,0,0,0-.34-1.48,2.69,2.69,0,0,0-1-1,3.08,3.08,0,0,0-2.91,0,2.65,2.65,0,0,0-1,1,3.23,3.23,0,0,0-.35,1.51v.26a2.93,2.93,0,0,0,.41,1.54,2.68,2.68,0,0,0,1.11,1,3.52,3.52,0,0,0,1.65.36A3.66,3.66,0,0,0,27.44,11a3,3,0,0,0,1.1-.79l.86,1A3.74,3.74,0,0,1,28,12.31,5.06,5.06,0,0,1,26,12.67Z"/><path class="cls-1" d="M34.6,12.65a7.24,7.24,0,0,1-2-.29A4.75,4.75,0,0,1,31,11.65l.65-1.24a5.28,5.28,0,0,0,1.37.63,5.22,5.22,0,0,0,1.66.25A3,3,0,0,0,36.28,11a1,1,0,0,0,.48-.87.76.76,0,0,0-.29-.63,2.16,2.16,0,0,0-.78-.34c-.32-.07-.67-.14-1.07-.2s-.78-.13-1.17-.22a4.61,4.61,0,0,1-1.08-.39,2.1,2.1,0,0,1-.78-.7,2.2,2.2,0,0,1-.3-1.19,2.22,2.22,0,0,1,.44-1.37A2.67,2.67,0,0,1,33,4.16a5.48,5.48,0,0,1,1.91-.33A7.83,7.83,0,0,1,36.6,4,4.4,4.4,0,0,1,38,4.61l-.66,1.24a3.82,3.82,0,0,0-1.23-.54,6,6,0,0,0-1.27-.14,2.84,2.84,0,0,0-1.53.34,1,1,0,0,0-.5.86.81.81,0,0,0,.3.67,2.14,2.14,0,0,0,.79.36A9,9,0,0,0,35,7.62c.39.06.79.13,1.18.22a5.38,5.38,0,0,1,1.07.38,2.08,2.08,0,0,1,.78.69,2,2,0,0,1,.3,1.17,2.06,2.06,0,0,1-.45,1.35,2.92,2.92,0,0,1-1.28.89A5.56,5.56,0,0,1,34.6,12.65Z"/><path class="cls-1" d="M44.05,12.62a4.82,4.82,0,0,1-2.36-.57,4.12,4.12,0,0,1-1.62-1.56,4.49,4.49,0,0,1-.6-2.27,4.56,4.56,0,0,1,.58-2.29,4.19,4.19,0,0,1,1.62-1.56A5,5,0,0,1,44,3.8a4.69,4.69,0,0,1,2.09.46,3.27,3.27,0,0,1,1.43,1.37l-1.18.77a2.7,2.7,0,0,0-1-.93A3,3,0,0,0,44,5.17a3.06,3.06,0,0,0-1.52.38,2.74,2.74,0,0,0-1.05,1.06,3.14,3.14,0,0,0-.39,1.6,3.28,3.28,0,0,0,.4,1.61,2.77,2.77,0,0,0,1.06,1.06,3.06,3.06,0,0,0,1.52.37,3,3,0,0,0,1.31-.31,2.63,2.63,0,0,0,1-.94l1.19.75a3.38,3.38,0,0,1-1.42,1.38A4.57,4.57,0,0,1,44.05,12.62Z"/><path class="cls-1" d="M53.22,12.58a4.3,4.3,0,0,1-1.95-.4A2.91,2.91,0,0,1,50,10.94a4.31,4.31,0,0,1-.47-2.11v-5H51V8.65a2.66,2.66,0,0,0,.62,1.9,2.21,2.21,0,0,0,1.72.63,2.92,2.92,0,0,0,1.42-.33,2.29,2.29,0,0,0,.92-1,3.27,3.27,0,0,0,.32-1.56V3.85H57.6l0,8.63H56.15V10.15l.25.62a3.1,3.1,0,0,1-1.27,1.34A3.88,3.88,0,0,1,53.22,12.58Z"/><path class="cls-1" d="M60.61,12.46l0-12.08h1.56l0,5.75-.15,2,.1,2v2.33Zm4.58.09a4,4,0,0,1-2-.49,3.58,3.58,0,0,1-1.41-1.47,5.37,5.37,0,0,1-.52-2.44,5.14,5.14,0,0,1,.52-2.45A3.6,3.6,0,0,1,63.2,4.23a3.93,3.93,0,0,1,2-.49,4.51,4.51,0,0,1,2.25.54A4.09,4.09,0,0,1,69,5.82a4.59,4.59,0,0,1,.58,2.3A4.55,4.55,0,0,1,69,10.43,4.05,4.05,0,0,1,67.43,12,4.56,4.56,0,0,1,65.19,12.55Zm-.14-1.37a3,3,0,0,0,1.49-.38,2.68,2.68,0,0,0,1-1.07A3.33,3.33,0,0,0,68,8.12a3.35,3.35,0,0,0-.39-1.6,2.79,2.79,0,0,0-1-1A3.08,3.08,0,0,0,65,5.1a3,3,0,0,0-1.47.38,2.72,2.72,0,0,0-1,1.06,3.24,3.24,0,0,0-.38,1.6,3.23,3.23,0,0,0,.39,1.61,2.74,2.74,0,0,0,1,1.06A2.92,2.92,0,0,0,65.05,11.18Z"/><path class="cls-1" d="M71.72,12.43l0-8.63h1.5V6.14l-.14-.59a2.59,2.59,0,0,1,1.2-1.37,4.13,4.13,0,0,1,2.08-.48V5.21H76A2.61,2.61,0,0,0,74,6a3,3,0,0,0-.73,2.16l0,4.3Z"/><path class="cls-1" d="M82,12.49a5.08,5.08,0,0,1-2.44-.56A4.15,4.15,0,0,1,78,10.37a4.5,4.5,0,0,1-.59-2.28,4.61,4.61,0,0,1,.56-2.28,4.12,4.12,0,0,1,1.54-1.56,4.68,4.68,0,0,1,4.44,0,4,4,0,0,1,1.51,1.55A4.72,4.72,0,0,1,86,8.11v.23l0,.25-7.34,0V7.49l6.53,0-.63.39a3,3,0,0,0-.34-1.48,2.77,2.77,0,0,0-1-1A2.9,2.9,0,0,0,81.71,5a2.87,2.87,0,0,0-1.45.37,2.65,2.65,0,0,0-1,1,3,3,0,0,0-.35,1.51v.26a2.92,2.92,0,0,0,.4,1.54,2.68,2.68,0,0,0,1.12,1,3.39,3.39,0,0,0,1.64.37,3.68,3.68,0,0,0,1.4-.26,3.11,3.11,0,0,0,1.09-.79l.87,1A3.74,3.74,0,0,1,84,12.13,5.06,5.06,0,0,1,82,12.49Z"/><path class="cls-1" d="M92.55,12.36l0-12.08h1.56l0,12.08Z"/><path class="cls-1" d="M99.61,12.43a3.85,3.85,0,0,1-1.68-.32,2.47,2.47,0,0,1-1.12-.9,2.36,2.36,0,0,1-.4-1.31,2.51,2.51,0,0,1,.33-1.27,2.33,2.33,0,0,1,1.09-.91,5,5,0,0,1,2-.35h2.74V8.48H99.94a2.33,2.33,0,0,0-1.58.4,1.25,1.25,0,0,0-.4.94,1.2,1.2,0,0,0,.51,1,2.29,2.29,0,0,0,1.4.38,3,3,0,0,0,1.54-.4,2.23,2.23,0,0,0,1-1.14l.31,1.07A2.47,2.47,0,0,1,101.58,12,3.88,3.88,0,0,1,99.61,12.43Zm2.84-.1V10.5l-.08-.34V7.05a2.05,2.05,0,0,0-.58-1.54A2.48,2.48,0,0,0,100,5a4.83,4.83,0,0,0-1.5.26,3.82,3.82,0,0,0-1.23.68l-.66-1.17a4.85,4.85,0,0,1,1.6-.83,6.74,6.74,0,0,1,2-.29,3.93,3.93,0,0,1,2.74.86,3.35,3.35,0,0,1,1,2.63l0,5.21Z"/><path class="cls-1" d="M116.53,12.41a6.69,6.69,0,0,1-2.4-.42,5.68,5.68,0,0,1-1.91-1.22A5.77,5.77,0,0,1,111,8.93a5.91,5.91,0,0,1-.46-2.33,5.9,5.9,0,0,1,.45-2.33,5.63,5.63,0,0,1,1.26-1.85,5.7,5.7,0,0,1,1.91-1.23,6.45,6.45,0,0,1,2.4-.44,6.7,6.7,0,0,1,2.44.44,5.09,5.09,0,0,1,1.9,1.32l-1.06,1a4.22,4.22,0,0,0-1.46-1,4.66,4.66,0,0,0-1.75-.33,4.74,4.74,0,0,0-1.78.33,4.3,4.3,0,0,0-1.42.92,4.14,4.14,0,0,0-.93,1.39,4.45,4.45,0,0,0-.33,1.76,4.4,4.4,0,0,0,.34,1.75,4.17,4.17,0,0,0,.94,1.39,4.29,4.29,0,0,0,1.43.9,4.73,4.73,0,0,0,1.78.32,4.39,4.39,0,0,0,1.74-.34,4.05,4.05,0,0,0,1.46-1l1.07,1A5.17,5.17,0,0,1,119,12,6.48,6.48,0,0,1,116.53,12.41Z"/><path class="cls-1" d="M125.23,12.35a4.08,4.08,0,0,1-1.69-.32,2.58,2.58,0,0,1-1.12-.9A2.27,2.27,0,0,1,122,9.82a2.48,2.48,0,0,1,.33-1.27,2.3,2.3,0,0,1,1.09-.92,5.15,5.15,0,0,1,2-.34h2.74V8.4h-2.67a2.28,2.28,0,0,0-1.58.4,1.3,1.3,0,0,0,.1,2,2.34,2.34,0,0,0,1.41.38,3.06,3.06,0,0,0,1.53-.4,2.19,2.19,0,0,0,1-1.14l.32,1.07a2.47,2.47,0,0,1-1.09,1.22A3.91,3.91,0,0,1,125.23,12.35Zm2.83-.11V10.42l-.09-.34V7a2,2,0,0,0-.58-1.54,2.44,2.44,0,0,0-1.73-.54,4.51,4.51,0,0,0-1.5.26,3.79,3.79,0,0,0-1.24.68l-.65-1.17a4.58,4.58,0,0,1,1.6-.83,6.69,6.69,0,0,1,2-.29,4,4,0,0,1,2.74.85,3.41,3.41,0,0,1,1,2.64l0,5.21Z"/><path class="cls-1" d="M131.18,4.89V3.6l5.5,0V4.87Zm4.23,7.43a2.76,2.76,0,0,1-2-.7,2.69,2.69,0,0,1-.73-2l0-7.91h1.56l0,7.85a1.5,1.5,0,0,0,.35,1.08,1.3,1.3,0,0,0,1,.37,1.84,1.84,0,0,0,1.22-.41l.49,1.12a2.18,2.18,0,0,1-.85.46A3.57,3.57,0,0,1,135.41,12.32Z"/><path class="cls-1" d="M142.74,12.29a4.91,4.91,0,0,1-2.44-.56,4.09,4.09,0,0,1-1.63-1.56,4.39,4.39,0,0,1-.59-2.27,4.65,4.65,0,0,1,.55-2.29,4.15,4.15,0,0,1,1.55-1.56,4.52,4.52,0,0,1,2.22-.57,4.34,4.34,0,0,1,2.21.55,4,4,0,0,1,1.52,1.55,5,5,0,0,1,.55,2.34,1.77,1.77,0,0,1,0,.22,2,2,0,0,1,0,.25l-7.35,0V7.29l6.53,0-.63.39a2.89,2.89,0,0,0-.35-1.48,2.6,2.6,0,0,0-1-1,2.78,2.78,0,0,0-1.46-.37,3,3,0,0,0-1.45.37,2.65,2.65,0,0,0-1,1,3.23,3.23,0,0,0-.35,1.51V8A2.93,2.93,0,0,0,140,9.51a2.74,2.74,0,0,0,1.11,1.05,3.52,3.52,0,0,0,1.65.37,3.66,3.66,0,0,0,1.39-.27,3.12,3.12,0,0,0,1.1-.78l.86,1a3.67,3.67,0,0,1-1.45,1A5,5,0,0,1,142.74,12.29Z"/><path class="cls-1" d="M152.43,12.26a4.51,4.51,0,0,1-2.25-.54,4.22,4.22,0,0,1-1.56-1.55,4.55,4.55,0,0,1-.57-2.31,4.41,4.41,0,0,1,.56-2.3A4,4,0,0,1,150.16,4a4.56,4.56,0,0,1,2.24-.56,4.07,4.07,0,0,1,2,.48,3.58,3.58,0,0,1,1.41,1.47,5,5,0,0,1,.54,2.44,5.25,5.25,0,0,1-.51,2.44,3.54,3.54,0,0,1-1.38,1.48A4,4,0,0,1,152.43,12.26Zm.12-1.37a2.92,2.92,0,0,0,1.47-.37,2.7,2.7,0,0,0,1-1.08,3.18,3.18,0,0,0,.38-1.6,3.14,3.14,0,0,0-.39-1.6,2.76,2.76,0,0,0-1-1,3,3,0,0,0-1.48-.37,2.91,2.91,0,0,0-1.48.38,2.83,2.83,0,0,0-1,1,3.1,3.1,0,0,0-.38,1.61,3.19,3.19,0,0,0,.39,1.6,2.68,2.68,0,0,0,1,1.06A2.81,2.81,0,0,0,152.55,10.89Zm2.95,1.27V9.83l.09-2-.17-2,0-5.75H157l0,12.08Z"/><path class="cls-1" d="M160,12.14l0-8.63h1.5V5.85l-.15-.59a2.69,2.69,0,0,1,1.21-1.37,4.35,4.35,0,0,1,2.08-.48V4.93l-.19,0h-.17a2.65,2.65,0,0,0-2,.76,3,3,0,0,0-.73,2.17l0,4.3Z"/><path class="cls-1" d="M168.47,12.21a4,4,0,0,1-1.69-.32,2.59,2.59,0,0,1-1.12-.9,2.27,2.27,0,0,1-.39-1.31,2.27,2.27,0,0,1,1.41-2.19,5.06,5.06,0,0,1,2-.34h2.73V8.26H168.8a2.26,2.26,0,0,0-1.58.4,1.26,1.26,0,0,0-.41.94,1.22,1.22,0,0,0,.51,1,2.26,2.26,0,0,0,1.4.37,3,3,0,0,0,1.54-.39,2.22,2.22,0,0,0,1-1.15l.31,1.08a2.38,2.38,0,0,1-1.09,1.22A3.84,3.84,0,0,1,168.47,12.21Zm2.83-.11V10.28l-.08-.34V6.83a2,2,0,0,0-.58-1.54,2.48,2.48,0,0,0-1.74-.54,4.55,4.55,0,0,0-1.5.26,3.74,3.74,0,0,0-1.23.68l-.66-1.17a4.76,4.76,0,0,1,1.6-.83,6.75,6.75,0,0,1,2-.29,3.92,3.92,0,0,1,2.73.85,3.34,3.34,0,0,1,1,2.64l0,5.21Z"/><path class="cls-1" d="M175.68,12.09l0-12.08h1.56l0,12.08Z"/><path class="cls-1" d="M0,29.5l0-8.63H1.5v2.29l-.24-.58a2.85,2.85,0,0,1,1.25-1.32,3.91,3.91,0,0,1,2-.48,3.67,3.67,0,0,1,2.13.6,2.91,2.91,0,0,1,1.18,1.84L7.16,23a3.15,3.15,0,0,1,1.36-1.6,4.18,4.18,0,0,1,2.28-.61,3.92,3.92,0,0,1,1.84.4,2.91,2.91,0,0,1,1.25,1.23,4.36,4.36,0,0,1,.45,2.1l0,5H12.8l0-4.79a2.68,2.68,0,0,0-.59-1.88,2.16,2.16,0,0,0-1.65-.63,2.75,2.75,0,0,0-1.37.33,2.2,2.2,0,0,0-.9,1A3.56,3.56,0,0,0,8,25l0,4.45H6.41V24.7a2.74,2.74,0,0,0-.59-1.89,2.14,2.14,0,0,0-1.65-.63,2.7,2.7,0,0,0-1.35.33,2.22,2.22,0,0,0-.91,1,3.3,3.3,0,0,0-.32,1.58V29.5Z"/><path class="cls-1" d="M19.77,29.54a4.21,4.21,0,0,1-1.69-.32,2.67,2.67,0,0,1-1.12-.9,2.35,2.35,0,0,1,1-3.5A5.22,5.22,0,0,1,20,24.47h2.73v1.13H20.1a2.37,2.37,0,0,0-1.58.4,1.28,1.28,0,0,0-.41,1,1.19,1.19,0,0,0,.51,1,2.26,2.26,0,0,0,1.4.38,3,3,0,0,0,1.54-.39,2.3,2.3,0,0,0,1-1.15l.31,1.08a2.41,2.41,0,0,1-1.09,1.21A3.87,3.87,0,0,1,19.77,29.54Zm2.83-.11V27.61l-.08-.35V24.15a2,2,0,0,0-.58-1.53,2.48,2.48,0,0,0-1.74-.54,4.81,4.81,0,0,0-1.5.25,3.92,3.92,0,0,0-1.23.68l-.66-1.17A4.7,4.7,0,0,1,18.4,21a6.64,6.64,0,0,1,2-.29,3.92,3.92,0,0,1,2.73.85,3.32,3.32,0,0,1,1,2.63l0,5.22Zm-3.35-9.87,2.2-2.13h2l-2.73,2.12Z"/><path class="cls-1" d="M29.46,29.51a7.25,7.25,0,0,1-2.05-.29,4.59,4.59,0,0,1-1.52-.71l.64-1.24a5.68,5.68,0,0,0,3,.88,2.94,2.94,0,0,0,1.57-.31,1,1,0,0,0,.48-.87.76.76,0,0,0-.29-.63,2.16,2.16,0,0,0-.78-.34c-.32-.07-.67-.14-1.06-.2s-.79-.13-1.18-.22a4.38,4.38,0,0,1-1.07-.39,2.06,2.06,0,0,1-.79-.7,2.21,2.21,0,0,1-.29-1.19,2.15,2.15,0,0,1,.43-1.37A2.8,2.8,0,0,1,27.82,21a5.5,5.5,0,0,1,1.92-.33,7.81,7.81,0,0,1,1.71.2,4.31,4.31,0,0,1,1.43.58l-.66,1.24A3.73,3.73,0,0,0,31,22.17,6,6,0,0,0,29.72,22a2.84,2.84,0,0,0-1.53.34,1,1,0,0,0-.5.86.79.79,0,0,0,.31.67,2,2,0,0,0,.78.36,9.14,9.14,0,0,0,1.07.22c.39.06.78.13,1.17.23a4.81,4.81,0,0,1,1.07.37,2.08,2.08,0,0,1,.78.69,2.11,2.11,0,0,1,.31,1.17,2.07,2.07,0,0,1-.46,1.35,2.92,2.92,0,0,1-1.28.89A5.54,5.54,0,0,1,29.46,29.51Z"/><path class="cls-1" d="M43.1,29a4.69,4.69,0,0,1-2.24-.53A4.09,4.09,0,0,1,39.29,27a4.17,4.17,0,0,1-.59-2.19,4.07,4.07,0,0,1,.58-2.19,4,4,0,0,1,1.55-1.46,4.72,4.72,0,0,1,2.24-.53,4.64,4.64,0,0,1,2,.44,3.52,3.52,0,0,1,1.47,1.37,4.72,4.72,0,0,1,.55,2.35,4.59,4.59,0,0,1-.54,2.33,3.61,3.61,0,0,1-1.45,1.4A4.52,4.52,0,0,1,43.1,29Zm.21,3.61A8.11,8.11,0,0,1,41,32.29a4.82,4.82,0,0,1-1.82-.94l.75-1.21a4.4,4.4,0,0,0,1.48.82,5.67,5.67,0,0,0,1.84.29,3.07,3.07,0,0,0,2.25-.72,3,3,0,0,0,.71-2.19V26.52l.16-1.71-.09-1.73V20.72h1.49l0,7.46a4.39,4.39,0,0,1-1.13,3.36A4.71,4.71,0,0,1,43.31,32.62Zm0-5a3.26,3.26,0,0,0,1.53-.37,2.64,2.64,0,0,0,1.05-1,2.87,2.87,0,0,0,.38-1.47,2.7,2.7,0,0,0-1.44-2.45,3.59,3.59,0,0,0-3.07,0,2.73,2.73,0,0,0-1.06,1,2.87,2.87,0,0,0-.38,1.47,2.92,2.92,0,0,0,.39,1.46,2.59,2.59,0,0,0,1.06,1A3.24,3.24,0,0,0,43.27,27.64Z"/><path class="cls-1" d="M50.76,29.34l0-8.63h1.5v2.35l-.15-.59a2.65,2.65,0,0,1,1.21-1.37,4.13,4.13,0,0,1,2.08-.48v1.52l-.18,0H55a2.65,2.65,0,0,0-2,.76A3,3,0,0,0,52.3,25l0,4.3Z"/><path class="cls-1" d="M59.26,29.41a4.21,4.21,0,0,1-1.69-.32,2.67,2.67,0,0,1-1.12-.9,2.35,2.35,0,0,1,1-3.5,5.22,5.22,0,0,1,2.05-.35h2.73v1.13H59.59a2.32,2.32,0,0,0-1.58.39,1.28,1.28,0,0,0-.41.95,1.22,1.22,0,0,0,.51,1,2.26,2.26,0,0,0,1.4.37,3,3,0,0,0,1.54-.39,2.22,2.22,0,0,0,1-1.15l.31,1.08A2.38,2.38,0,0,1,61.22,29,4,4,0,0,1,59.26,29.41Zm2.83-.11V27.48L62,27.14V24a2,2,0,0,0-.58-1.54A2.48,2.48,0,0,0,59.67,22a4.55,4.55,0,0,0-1.5.26,3.74,3.74,0,0,0-1.23.68l-.66-1.17a4.72,4.72,0,0,1,1.61-.83,6.64,6.64,0,0,1,2-.29,3.92,3.92,0,0,1,2.73.85,3.33,3.33,0,0,1,1,2.64l0,5.21Z"/><path class="cls-1" d="M66.47,29.29l0-8.63h1.5V23l-.25-.62A3,3,0,0,1,69,21a4.2,4.2,0,0,1,2-.48,4.12,4.12,0,0,1,1.87.4,2.85,2.85,0,0,1,1.26,1.24,4.34,4.34,0,0,1,.47,2.09v5H73.1l0-4.79a2.61,2.61,0,0,0-.62-1.89A2.26,2.26,0,0,0,70.75,22a3,3,0,0,0-1.45.33,2.17,2.17,0,0,0-1,1A3.39,3.39,0,0,0,68,24.84v4.44Z"/><path class="cls-1" d="M81.13,29.34a4.45,4.45,0,0,1-2.24-.55,4,4,0,0,1-1.56-1.54,4.45,4.45,0,0,1-.58-2.31,4.45,4.45,0,0,1,.56-2.31,4.16,4.16,0,0,1,1.55-1.54,4.49,4.49,0,0,1,2.24-.56,4,4,0,0,1,2,.48,3.49,3.49,0,0,1,1.41,1.46A5,5,0,0,1,85,24.91a5.29,5.29,0,0,1-.5,2.45,3.6,3.6,0,0,1-1.39,1.47A3.92,3.92,0,0,1,81.13,29.34ZM81.25,28a2.9,2.9,0,0,0,1.47-.38,2.68,2.68,0,0,0,1-1.07,3.21,3.21,0,0,0,.38-1.6,3.17,3.17,0,0,0-.39-1.61,2.6,2.6,0,0,0-1-1,2.92,2.92,0,0,0-4,1.06,3.16,3.16,0,0,0-.38,1.6,3.23,3.23,0,0,0,.39,1.61,2.81,2.81,0,0,0,1,1.06A2.9,2.9,0,0,0,81.25,28Zm3,1.26V26.9l.09-2-.17-2,0-5.75h1.56l0,12.09Z"/><path class="cls-1" d="M92.51,29.3a5.05,5.05,0,0,1-2.44-.56,4.15,4.15,0,0,1-1.63-1.56,4.5,4.5,0,0,1-.59-2.28,4.61,4.61,0,0,1,.56-2.28A4,4,0,0,1,90,21.06a4.68,4.68,0,0,1,4.44,0,4,4,0,0,1,1.51,1.55,4.72,4.72,0,0,1,.55,2.33v.23l0,.25-7.34,0V24.3l6.53,0-.63.39a2.87,2.87,0,0,0-.35-1.48,2.62,2.62,0,0,0-1-1,2.84,2.84,0,0,0-1.45-.36,2.87,2.87,0,0,0-1.45.37,2.58,2.58,0,0,0-1,1,3.09,3.09,0,0,0-.36,1.51V25a3,3,0,0,0,.41,1.54,2.68,2.68,0,0,0,1.12,1,3.48,3.48,0,0,0,1.64.37,3.71,3.71,0,0,0,1.4-.26A3.11,3.11,0,0,0,95,26.88l.87,1a3.74,3.74,0,0,1-1.45,1.05A5.09,5.09,0,0,1,92.51,29.3Z"/><path class="cls-1" d="M106.58,29.26a4.48,4.48,0,0,1-2.24-.55,4,4,0,0,1-1.56-1.54,4.55,4.55,0,0,1-.58-2.31,4.65,4.65,0,0,1,.56-2.31A4.09,4.09,0,0,1,104.31,21a4.41,4.41,0,0,1,2.24-.56,3.81,3.81,0,0,1,2,.48,3.57,3.57,0,0,1,1.42,1.46,5.09,5.09,0,0,1,.53,2.44,5.1,5.1,0,0,1-.5,2.44,3.44,3.44,0,0,1-1.39,1.48A4,4,0,0,1,106.58,29.26Zm.13-1.37a3,3,0,0,0,1.47-.38,2.75,2.75,0,0,0,1-1.07,3.62,3.62,0,0,0,0-3.21,2.79,2.79,0,0,0-1-1.05,2.92,2.92,0,0,0-1.47-.37,2.88,2.88,0,0,0-1.48.38,2.72,2.72,0,0,0-1,1.06,3.14,3.14,0,0,0-.39,1.6,3.19,3.19,0,0,0,.4,1.6,2.75,2.75,0,0,0,1,1.07A2.94,2.94,0,0,0,106.71,27.89Zm3,1.26V26.82l.09-2-.17-2,0-5.75h1.57l0,12.08Z"/><path class="cls-1" d="M118,29.22a5,5,0,0,1-2.43-.56,4.18,4.18,0,0,1-1.64-1.56,4.88,4.88,0,0,1,0-4.56A4.05,4.05,0,0,1,115.4,21a4.68,4.68,0,0,1,4.44,0,3.82,3.82,0,0,1,1.51,1.55,4.81,4.81,0,0,1,.56,2.33,1.93,1.93,0,0,1,0,.23c0,.09,0,.17,0,.24l-7.35,0V24.21l6.53,0-.64.4a2.93,2.93,0,0,0-.34-1.49,2.6,2.6,0,0,0-1-1,2.9,2.9,0,0,0-1.46-.36,2.79,2.79,0,0,0-1.45.37,2.59,2.59,0,0,0-1,1,3.09,3.09,0,0,0-.35,1.51v.26a3,3,0,0,0,.4,1.53,2.77,2.77,0,0,0,1.12,1.05,3.52,3.52,0,0,0,1.65.37,3.48,3.48,0,0,0,1.39-.27,3,3,0,0,0,1.1-.78l.86,1a3.82,3.82,0,0,1-1.45,1A5.06,5.06,0,0,1,118,29.22Z"/><path class="cls-1" d="M128.7,29.09l0-11.4,8,0v1.42l-6.42,0,0,8.56,6.64,0v1.42ZM130.16,24V22.6l5.86,0V24Z"/><path class="cls-1" d="M141.74,29.14a6.91,6.91,0,0,1-2.05-.29,4.79,4.79,0,0,1-1.52-.71l.65-1.24a5.13,5.13,0,0,0,1.37.63,5.19,5.19,0,0,0,1.66.26,3,3,0,0,0,1.57-.32,1,1,0,0,0,.48-.86.74.74,0,0,0-.3-.63,1.77,1.77,0,0,0-.77-.34,9.32,9.32,0,0,0-1.07-.2c-.39-.06-.78-.14-1.17-.23a5.1,5.1,0,0,1-1.08-.38,2,2,0,0,1-.78-.7,2.13,2.13,0,0,1-.3-1.2,2.18,2.18,0,0,1,.44-1.37,2.81,2.81,0,0,1,1.24-.91,5.19,5.19,0,0,1,1.91-.32,7.33,7.33,0,0,1,1.72.2,4.19,4.19,0,0,1,1.43.57l-.67,1.24a3.54,3.54,0,0,0-1.22-.53,5,5,0,0,0-1.27-.14,2.8,2.8,0,0,0-1.53.33,1,1,0,0,0-.5.86.83.83,0,0,0,.3.68,2.36,2.36,0,0,0,.78.36,9.14,9.14,0,0,0,1.07.22c.39.05.78.13,1.17.22a4.82,4.82,0,0,1,1.07.38,2.16,2.16,0,0,1,.79.68,2,2,0,0,1,.3,1.17,2.16,2.16,0,0,1-.45,1.36,3,3,0,0,1-1.28.89A5.65,5.65,0,0,1,141.74,29.14Z"/><path class="cls-1" d="M147.43,32.18l0-11.79h1.49v2.33l-.09,2,.17,2,0,5.46ZM152,29.11a3.93,3.93,0,0,1-2-.49,3.62,3.62,0,0,1-1.43-1.47,5.12,5.12,0,0,1-.53-2.44,5.17,5.17,0,0,1,.5-2.45,3.49,3.49,0,0,1,1.4-1.47,4,4,0,0,1,2-.49,4.46,4.46,0,0,1,2.25.54,4.09,4.09,0,0,1,1.55,1.54,4.49,4.49,0,0,1,.58,2.3,4.61,4.61,0,0,1-.56,2.32,4.09,4.09,0,0,1-1.54,1.55A4.5,4.5,0,0,1,152,29.11Zm-.14-1.37a2.92,2.92,0,0,0,1.49-.38,2.68,2.68,0,0,0,1-1.07,3.21,3.21,0,0,0,.38-1.6,3.17,3.17,0,0,0-.39-1.61,2.6,2.6,0,0,0-1-1,2.88,2.88,0,0,0-1.5-.37,2.83,2.83,0,0,0-1.47.38,2.76,2.76,0,0,0-1,1.05,3.17,3.17,0,0,0-.37,1.61,3.32,3.32,0,0,0,.38,1.6,2.74,2.74,0,0,0,1,1.06A2.92,2.92,0,0,0,151.86,27.74Z"/><path class="cls-1" d="M161,29.08a4.16,4.16,0,0,1-1.68-.32,2.61,2.61,0,0,1-1.12-.9,2.3,2.3,0,0,1-.4-1.31,2.48,2.48,0,0,1,.33-1.27,2.34,2.34,0,0,1,1.09-.92,5.13,5.13,0,0,1,2-.35H164v1.13H161.3a2.34,2.34,0,0,0-1.58.39,1.27,1.27,0,0,0-.4.95,1.19,1.19,0,0,0,.51,1,2.16,2.16,0,0,0,1.4.38,3,3,0,0,0,1.54-.39,2.3,2.3,0,0,0,.95-1.15l.31,1.08a2.45,2.45,0,0,1-1.09,1.21A3.91,3.91,0,0,1,161,29.08Zm2.84-.11V27.15l-.08-.34V23.7a2,2,0,0,0-.59-1.54,2.44,2.44,0,0,0-1.73-.54,4.55,4.55,0,0,0-1.5.26,3.79,3.79,0,0,0-1.24.68L158,21.38a4.84,4.84,0,0,1,1.6-.82,6.69,6.69,0,0,1,2-.29,3.93,3.93,0,0,1,2.74.85,3.36,3.36,0,0,1,1,2.64l0,5.21Z"/><path class="cls-1" d="M168.19,29l0-8.63h1.5v2.33l-.25-.62a3,3,0,0,1,1.3-1.32,4.2,4.2,0,0,1,2.05-.48,4.1,4.1,0,0,1,1.86.4,2.92,2.92,0,0,1,1.27,1.24,4.23,4.23,0,0,1,.46,2.09l0,5h-1.56l0-4.79a2.61,2.61,0,0,0-.62-1.89,2.29,2.29,0,0,0-1.72-.63A3.07,3.07,0,0,0,171,22a2.28,2.28,0,0,0-.95,1,3.28,3.28,0,0,0-.32,1.58V29ZM173.4,19a1.53,1.53,0,0,1-.69-.16,2.47,2.47,0,0,1-.55-.39,5.31,5.31,0,0,0-.48-.38.82.82,0,0,0-.45-.16.72.72,0,0,0-.58.27,1.26,1.26,0,0,0-.25.74h-.88a2.43,2.43,0,0,1,.45-1.45,1.37,1.37,0,0,1,1.14-.54,1.45,1.45,0,0,1,.7.16,4,4,0,0,1,.56.39,4.59,4.59,0,0,0,.46.38.77.77,0,0,0,.45.17.75.75,0,0,0,.59-.27,1.1,1.1,0,0,0,.24-.71H175a2.19,2.19,0,0,1-.45,1.4A1.38,1.38,0,0,1,173.4,19Z"/><path class="cls-1" d="M181.8,29a4.08,4.08,0,0,1-1.69-.32,2.5,2.5,0,0,1-1.11-.9,2.21,2.21,0,0,1-.4-1.31,2.48,2.48,0,0,1,.33-1.27,2.3,2.3,0,0,1,1.09-.92,5.15,5.15,0,0,1,2-.34h2.74v1.12h-2.67a2.34,2.34,0,0,0-1.58.39,1.29,1.29,0,0,0-.4.95,1.22,1.22,0,0,0,.51,1,2.22,2.22,0,0,0,1.4.37,3,3,0,0,0,1.54-.39,2.22,2.22,0,0,0,.94-1.14l.32,1.07a2.47,2.47,0,0,1-1.09,1.22A3.91,3.91,0,0,1,181.8,29Zm2.83-.11V27.08l-.08-.34V23.63a2,2,0,0,0-.59-1.54,2.44,2.44,0,0,0-1.73-.54,4.55,4.55,0,0,0-1.5.26,4,4,0,0,0-1.24.68l-.65-1.17a4.67,4.67,0,0,1,1.6-.83,6.69,6.69,0,0,1,2-.29,3.93,3.93,0,0,1,2.74.85,3.38,3.38,0,0,1,1,2.64l0,5.21Z"/></g></g></svg>