<svg xmlns="http://www.w3.org/2000/svg" xmlns:xlink="http://www.w3.org/1999/xlink" viewBox="0 0 278 45.95"><defs><style>.cls-1{fill:url(#linear-gradient);}.cls-2{fill:#212626;}.cls-3{fill:#fff;}</style><linearGradient id="linear-gradient" y1="22.98" x2="278" y2="22.98" gradientUnits="userSpaceOnUse"><stop offset="0" stop-color="#fbdd55"/><stop offset="1" stop-color="#f79252"/></linearGradient></defs><g id="Layer_2" data-name="Layer 2"><g id="Layer_1-2" data-name="Layer 1"><rect class="cls-1" width="278" height="45.95" rx="21.9"/><rect class="cls-2" x="236.64" y="4.6" width="36.76" height="36.76" rx="17.52"/><path class="cls-2" d="M24.75,31.67V14.82H37.82v2.35H27.5v4.7h9.24v2.35H27.5v5.09H38v2.36Z"/><path class="cls-2" d="M39.61,31.67,44.23,25l-4.35-6.29H43l2.85,4.32H46l2.88-4.32h2.92L47.4,25,52,31.67H49L45.8,26.93h-.12l-3.15,4.74Z"/><path class="cls-2" d="M54,35.92V18.75h2.09l.22,1.76h.17A4.3,4.3,0,0,1,58.13,19a5,5,0,0,1,2.31-.52,5.1,5.1,0,0,1,2.74.71,4.54,4.54,0,0,1,1.76,2.21,10.4,10.4,0,0,1,.61,3.89,9.78,9.78,0,0,1-.62,3.79,4.64,4.64,0,0,1-1.76,2.2,4.72,4.72,0,0,1-2.6.71,6.21,6.21,0,0,1-1.6-.19,3.87,3.87,0,0,1-1.31-.62,4,4,0,0,1-1-1h-.15v5.82Zm5.72-6.17a3.47,3.47,0,0,0,1.87-.45,2.68,2.68,0,0,0,1-1.41,7.58,7.58,0,0,0,.34-2.44V25a7.47,7.47,0,0,0-.35-2.5,2.71,2.71,0,0,0-1-1.41,3.39,3.39,0,0,0-1.81-.44,3.08,3.08,0,0,0-1.84.51,2.82,2.82,0,0,0-1,1.48A7.28,7.28,0,0,0,56.51,25v.34a8.22,8.22,0,0,0,.22,2,3.66,3.66,0,0,0,.64,1.36,2.53,2.53,0,0,0,1,.78A3.42,3.42,0,0,0,59.68,29.75Z"/><path class="cls-2" d="M68.18,31.67V13.91h2.56V31.67Z"/><path class="cls-2" d="M79.53,32a7.33,7.33,0,0,1-3.4-.72A4.65,4.65,0,0,1,74,29a9.13,9.13,0,0,1-.7-3.81,9.08,9.08,0,0,1,.7-3.82,4.63,4.63,0,0,1,2.09-2.21,8.38,8.38,0,0,1,6.84,0,4.66,4.66,0,0,1,2.08,2.21,8.93,8.93,0,0,1,.7,3.82,9,9,0,0,1-.7,3.81A4.68,4.68,0,0,1,83,31.24,7.37,7.37,0,0,1,79.53,32Zm0-2.11a3.85,3.85,0,0,0,2-.48,2.82,2.82,0,0,0,1.16-1.46,6.75,6.75,0,0,0,.39-2.48V25a6.75,6.75,0,0,0-.39-2.48A2.84,2.84,0,0,0,81.55,21a3.85,3.85,0,0,0-2-.48,3.78,3.78,0,0,0-2,.48,2.84,2.84,0,0,0-1.16,1.47A6.77,6.77,0,0,0,76,25v.44a6.77,6.77,0,0,0,.38,2.48,2.82,2.82,0,0,0,1.16,1.46A3.78,3.78,0,0,0,79.53,29.85Z"/><path class="cls-2" d="M88.35,31.67V18.75h2.12l.22,2.08h.14a5.39,5.39,0,0,1,.58-1.15,2.9,2.9,0,0,1,.93-.88,2.74,2.74,0,0,1,1.42-.35,3,3,0,0,1,.7.08c.2,0,.36.09.48.12v2.41h-.86a3.71,3.71,0,0,0-1.39.24,2.65,2.65,0,0,0-1,.73,2.9,2.9,0,0,0-.59,1.16,6.17,6.17,0,0,0-.18,1.55v6.93Z"/><path class="cls-2" d="M102,32a7,7,0,0,1-3.33-.72,4.66,4.66,0,0,1-2-2.22,9.14,9.14,0,0,1-.69-3.81,9.09,9.09,0,0,1,.69-3.82,4.63,4.63,0,0,1,2-2.21,7,7,0,0,1,3.36-.73,6.2,6.2,0,0,1,3.09.7A4.45,4.45,0,0,1,107,21.28a8.69,8.69,0,0,1,.64,3.58v1H98.55A6.69,6.69,0,0,0,99,28.14a2.52,2.52,0,0,0,1.11,1.35,3.78,3.78,0,0,0,1.91.43,4.14,4.14,0,0,0,1.27-.18,2.5,2.5,0,0,0,1-.54,2.56,2.56,0,0,0,.62-.86,3,3,0,0,0,.22-1.14h2.5a5,5,0,0,1-.39,2A3.86,3.86,0,0,1,106,30.72a5.27,5.27,0,0,1-1.78.92A7.5,7.5,0,0,1,102,32ZM98.6,24h6.34a5.28,5.28,0,0,0-.21-1.61,2.73,2.73,0,0,0-.61-1.07,2.2,2.2,0,0,0-.93-.6,4.22,4.22,0,0,0-3,.18A2.5,2.5,0,0,0,99.09,22,5.15,5.15,0,0,0,98.6,24Z"/><path class="cls-2" d="M122.89,32a9.45,9.45,0,0,1-4.38-.92,6.15,6.15,0,0,1-2.77-2.86,11.27,11.27,0,0,1-.95-4.94c0-2.95.71-5.14,2.15-6.57a8.08,8.08,0,0,1,6-2.15,9.7,9.7,0,0,1,3.79.71,6,6,0,0,1,2.66,2.13,6.27,6.27,0,0,1,1,3.6h-2.8A4.17,4.17,0,0,0,127,18.7a3.52,3.52,0,0,0-1.61-1.38,6.52,6.52,0,0,0-5.33.21,4.25,4.25,0,0,0-1.79,2,8.49,8.49,0,0,0-.6,3.44v.54a8.52,8.52,0,0,0,.6,3.44A4.11,4.11,0,0,0,120,29a6,6,0,0,0,2.92.65,6.1,6.1,0,0,0,2.48-.46,3.5,3.5,0,0,0,1.64-1.36,4.17,4.17,0,0,0,.57-2.26h2.71a6.32,6.32,0,0,1-1,3.61,5.78,5.78,0,0,1-2.66,2.12A10.16,10.16,0,0,1,122.89,32Z"/><path class="cls-2" d="M138.57,32a7.35,7.35,0,0,1-3.41-.72A4.64,4.64,0,0,1,133.08,29a9,9,0,0,1-.7-3.81,8.93,8.93,0,0,1,.7-3.82,4.61,4.61,0,0,1,2.08-2.21,8.4,8.4,0,0,1,6.85,0,4.64,4.64,0,0,1,2.07,2.21,8.93,8.93,0,0,1,.7,3.82,9,9,0,0,1-.7,3.81A4.66,4.66,0,0,1,142,31.24,7.39,7.39,0,0,1,138.57,32Zm0-2.11a3.79,3.79,0,0,0,2-.48,2.83,2.83,0,0,0,1.17-1.46,7,7,0,0,0,.38-2.48V25a7,7,0,0,0-.38-2.48A2.86,2.86,0,0,0,140.58,21a3.79,3.79,0,0,0-2-.48,3.74,3.74,0,0,0-2,.48,2.81,2.81,0,0,0-1.17,1.47A7,7,0,0,0,135,25v.44a7,7,0,0,0,.38,2.48,2.78,2.78,0,0,0,1.17,1.46A3.74,3.74,0,0,0,138.57,29.85Z"/><path class="cls-2" d="M147.39,31.67V13.91h2.55V31.67Z"/><path class="cls-2" d="M153.23,31.67V13.91h2.56V31.67Z"/><path class="cls-2" d="M164.44,32a7,7,0,0,1-3.33-.72,4.63,4.63,0,0,1-2-2.22,9.14,9.14,0,0,1-.69-3.81,9.09,9.09,0,0,1,.69-3.82,4.63,4.63,0,0,1,2-2.21,7,7,0,0,1,3.36-.73,6.2,6.2,0,0,1,3.09.7,4.47,4.47,0,0,1,1.88,2.13,8.86,8.86,0,0,1,.64,3.58v1H161a6.69,6.69,0,0,0,.42,2.29,2.53,2.53,0,0,0,1.12,1.35,3.74,3.74,0,0,0,1.9.43,4.21,4.21,0,0,0,1.28-.18,2.66,2.66,0,0,0,1-.54,2.54,2.54,0,0,0,.61-.86,2.79,2.79,0,0,0,.22-1.14H170a4.86,4.86,0,0,1-.4,2,3.86,3.86,0,0,1-1.14,1.48,5.27,5.27,0,0,1-1.78.92A7.48,7.48,0,0,1,164.44,32Zm-3.37-8h6.34a5.28,5.28,0,0,0-.21-1.61,2.85,2.85,0,0,0-.6-1.07,2.23,2.23,0,0,0-.94-.6,3.86,3.86,0,0,0-1.22-.19,3.91,3.91,0,0,0-1.76.37A2.55,2.55,0,0,0,161.56,22,5.35,5.35,0,0,0,161.07,24Z"/><path class="cls-2" d="M177.82,32a6.64,6.64,0,0,1-3.24-.72,4.49,4.49,0,0,1-2-2.22,9.52,9.52,0,0,1-.65-3.81,9.42,9.42,0,0,1,.66-3.8,4.58,4.58,0,0,1,2-2.22,6.51,6.51,0,0,1,3.23-.74,7.31,7.31,0,0,1,2.31.33,4.44,4.44,0,0,1,1.67,1,3.93,3.93,0,0,1,1,1.6,6.72,6.72,0,0,1,.33,2.19H180.6a4.28,4.28,0,0,0-.29-1.69,2,2,0,0,0-.91-1,3.37,3.37,0,0,0-1.6-.33,3,3,0,0,0-1.74.48A2.93,2.93,0,0,0,175,22.47a7.44,7.44,0,0,0-.36,2.54v.42a7.39,7.39,0,0,0,.35,2.49A2.86,2.86,0,0,0,176,29.4a3.31,3.31,0,0,0,1.86.48,3.05,3.05,0,0,0,1.58-.36,2.23,2.23,0,0,0,.91-1,3.87,3.87,0,0,0,.31-1.64h2.48a6.24,6.24,0,0,1-.33,2.09,4.28,4.28,0,0,1-1,1.61,4.47,4.47,0,0,1-1.68,1A6.68,6.68,0,0,1,177.82,32Z"/><path class="cls-2" d="M189,32a3,3,0,0,1-1.73-.43,2.27,2.27,0,0,1-.89-1.1A4,4,0,0,1,186.1,29V20.86h-1.62V18.75h1.67l.47-3.62h2v3.62H191v2.11h-2.33V28.7a1.35,1.35,0,0,0,.24.86,1,1,0,0,0,.82.29H191v1.72a3.09,3.09,0,0,1-.6.18q-.36.09-.72.15A4.39,4.39,0,0,1,189,32Z"/><path class="cls-2" d="M193.25,16.51v-2.6h2.56v2.6Zm0,15.16V18.75h2.56V31.67Z"/><path class="cls-2" d="M204.6,32a7.33,7.33,0,0,1-3.4-.72A4.65,4.65,0,0,1,199.11,29a9,9,0,0,1-.7-3.81,8.93,8.93,0,0,1,.7-3.82,4.63,4.63,0,0,1,2.09-2.21,8.38,8.38,0,0,1,6.84,0,4.66,4.66,0,0,1,2.08,2.21,9.08,9.08,0,0,1,.7,3.82,9.13,9.13,0,0,1-.7,3.81A4.68,4.68,0,0,1,208,31.24,7.37,7.37,0,0,1,204.6,32Zm0-2.11a3.85,3.85,0,0,0,2-.48,2.82,2.82,0,0,0,1.16-1.46,6.77,6.77,0,0,0,.38-2.48V25a6.77,6.77,0,0,0-.38-2.48A2.84,2.84,0,0,0,206.62,21a3.85,3.85,0,0,0-2-.48,3.78,3.78,0,0,0-2,.48,2.84,2.84,0,0,0-1.16,1.47,6.75,6.75,0,0,0-.39,2.48v.44a6.75,6.75,0,0,0,.39,2.48,2.82,2.82,0,0,0,1.16,1.46A3.78,3.78,0,0,0,204.6,29.85Z"/><path class="cls-2" d="M213.42,31.67V18.75h2.11l.23,1.84h.17a4.45,4.45,0,0,1,1.1-1.18,4.85,4.85,0,0,1,1.42-.71,5.37,5.37,0,0,1,1.7-.25,5.13,5.13,0,0,1,2.17.43,3.21,3.21,0,0,1,1.46,1.39,5.39,5.39,0,0,1,.53,2.58v8.82h-2.56V23.24a3.63,3.63,0,0,0-.18-1.23,1.93,1.93,0,0,0-.53-.78,2,2,0,0,0-.81-.42,4.16,4.16,0,0,0-1-.12,3.06,3.06,0,0,0-1.61.43,3.11,3.11,0,0,0-1.17,1.19A3.44,3.44,0,0,0,216,24.1v7.57Z"/><path class="cls-3" d="M249.68,30a1.11,1.11,0,0,1-.78-1.89l9.16-9.16h-7.27a1.11,1.11,0,1,1,0-2.21h10a1.06,1.06,0,0,1,.4.08,1,1,0,0,1,.33.21h0l.05.05a1.26,1.26,0,0,1,.21.32,1.17,1.17,0,0,1,.09.42h0v10a1.11,1.11,0,0,1-2.21,0V20.46l-9.17,9.16A1.08,1.08,0,0,1,249.68,30Z"/></g></g></svg>