<svg xmlns="http://www.w3.org/2000/svg" viewBox="0 0 33.45 33.45"><defs><style>.cls-1{fill:#fff;}.cls-2{fill:none;stroke:#000;stroke-linecap:round;stroke-linejoin:round;stroke-width:1.8px;}</style></defs><g id="Layer_2" data-name="Layer 2"><g id="Layer_1-2" data-name="Layer 1"><path class="cls-1" d="M16.72,31.34A14.62,14.62,0,1,1,31.34,16.72,14.64,14.64,0,0,1,16.72,31.34Z"/><path d="M16.72,4.23a12.49,12.49,0,0,1,12.5,12.49h0a12.5,12.5,0,1,1-25,0h0A12.49,12.49,0,0,1,16.72,4.23m0-4.23A16.73,16.73,0,1,0,33.45,16.72,16.74,16.74,0,0,0,16.72,0Z"/><path class="cls-2" d="M12.68,20.43,20.3,12.8m0,0H14m6.35,0v6.36"/></g></g></svg>