<svg xmlns="http://www.w3.org/2000/svg" viewBox="0 0 168.51 88.93"><g id="Layer_2" data-name="Layer 2"><g id="Layer_1-2" data-name="Layer 1"><path d="M4.43,68.65,10,63.87V18.46L0,16.66v-.88L22,1.32h.92V63.87l5.65,4.78v.88H4.43Z"/><path d="M52.34,66.7A31.35,31.35,0,0,1,40.66,54.78Q36,46.82,36,35.51q0-11.7,4.61-19.71A30.56,30.56,0,0,1,52.3,3.9,29.31,29.31,0,0,1,66.63,0,29.75,29.75,0,0,1,81,3.86a30.57,30.57,0,0,1,11.7,11.68q4.64,7.83,4.63,19.05,0,11.7-4.65,19.86A31.58,31.58,0,0,1,81,66.63a28.67,28.67,0,0,1-14.32,4A29,29,0,0,1,52.34,66.7ZM83.79,54.82A30.45,30.45,0,0,0,86.1,43,37.12,37.12,0,0,0,84,30.77a38.45,38.45,0,0,0-6-11.11A36.84,36.84,0,0,0,68.61,11,30.83,30.83,0,0,0,56.73,6.49a23.88,23.88,0,0,0-7.13,9.4,30.33,30.33,0,0,0-2.34,11.9A37.05,37.05,0,0,0,49.36,40a38.86,38.86,0,0,0,5.9,11.16,34.5,34.5,0,0,0,9.4,8.61,31.65,31.65,0,0,0,12.19,4.48A24.37,24.37,0,0,0,83.79,54.82Z"/><path d="M113.32,29.22a15.52,15.52,0,0,1-7.67-13.48A15.78,15.78,0,0,1,113.36,2.1,15.07,15.07,0,0,1,121.17,0,14.89,14.89,0,0,1,129,2.13a15.68,15.68,0,0,1,5.63,5.72,15.41,15.41,0,0,1,2.08,7.89,15.17,15.17,0,0,1-2.08,7.78A15.7,15.7,0,0,1,129,29.2a15.66,15.66,0,0,1-15.63,0Zm37.09-16.73,5.87-11.17h7.28l-41.43,57-5.87,11.18H109ZM126.8,25.32a11.32,11.32,0,0,0,5.54-9.8A10.56,10.56,0,0,0,130.83,10a11.39,11.39,0,0,0-4.07-4.06,11.19,11.19,0,0,0-11.23,0A11.31,11.31,0,0,0,111.46,10a10.57,10.57,0,0,0-1.52,5.52,11.41,11.41,0,0,0,1.47,5.74,10.84,10.84,0,0,0,4,4.08,11.19,11.19,0,0,0,5.72,1.49A11,11,0,0,0,126.8,25.32Zm16.81,43.31a15.52,15.52,0,0,1-7.67-13.48,15.78,15.78,0,0,1,7.71-13.64,15.07,15.07,0,0,1,7.81-2.1,14.89,14.89,0,0,1,7.8,2.13,15.6,15.6,0,0,1,5.63,5.72A15.42,15.42,0,0,1,167,55.15a15.18,15.18,0,0,1-2.09,7.78,15.62,15.62,0,0,1-5.65,5.68,15.66,15.66,0,0,1-15.63,0Zm13.44-3.93a11.32,11.32,0,0,0,4.07-4.12,11,11,0,0,0,1.52-5.65,10.57,10.57,0,0,0-1.52-5.52,11.31,11.31,0,0,0-4.07-4.06,11.19,11.19,0,0,0-11.23,0,11.47,11.47,0,0,0-4.07,4.06,10.56,10.56,0,0,0-1.51,5.52,11.4,11.4,0,0,0,1.46,5.74,10.84,10.84,0,0,0,4,4.08,11.19,11.19,0,0,0,5.72,1.49A10.65,10.65,0,0,0,157.05,64.7Z"/><path d="M2.15,79.66l-.1-.47v8.5l1.68.86v.14H.22v-.15l1-.85V77.59l-1-.88v-.15H2.47l7,8v-7l-1.66-.88v-.15h3.49v.15l-1,.88v7.88l.92.59-.78,2.87h-.16Z"/><path d="M12.66,88.54l1-.88V77.59l-1-.88v-.15h8.39l-.9,2.4H20l-1.26-1.62H16v5.11l3.88-.55-.5,1.33H16V87.9h2.73l2.37-1.63h.16L21,88.69H12.66Z"/><path d="M25.11,88.45a3.34,3.34,0,0,1-1.35-1.36,4.17,4.17,0,0,1-.46-2V77.59l-1-.88v-.15h5v.15l-1.66.88v7.53a3.34,3.34,0,0,0,.31,1.48,2.22,2.22,0,0,0,.86.93,2.4,2.4,0,0,0,1.23.32,3.92,3.92,0,0,0,1.49-.3,3.32,3.32,0,0,0,1.24-.84V77.59l-1.65-.88v-.15h5v.15l-1,.88v10.1l1,.85v.15H31l-.24-.93a4.33,4.33,0,0,1-1.52.87,6.35,6.35,0,0,1-2,.3A4.22,4.22,0,0,1,25.11,88.45Z"/><path d="M35.15,88.54l1-.85V77.59l-1-.88v-.15h4.39v.15l-1.06.88v6l4.11-6-1.2-.88v-.15h3v.15l-.88.88-3.23,4.74,2.47,1.54,2,3.82.91.85v.15h-3l-2.93-5.6L38.48,85v2.69l1.66.85v.15h-5Z"/><path d="M49.47,88.45a3.31,3.31,0,0,1-1.34-1.36,4.18,4.18,0,0,1-.47-2V77.59l-1-.88v-.15h5v.15L50,77.59v7.53a3.2,3.2,0,0,0,.31,1.48,2.14,2.14,0,0,0,.85.93,2.41,2.41,0,0,0,1.24.32,4,4,0,0,0,1.49-.3,3.49,3.49,0,0,0,1.24-.84V77.59l-1.66-.88v-.15h5v.15l-1,.88v10.1l1,.85v.15h-3.1l-.23-.93a4.42,4.42,0,0,1-1.52.87,6.44,6.44,0,0,1-2,.3A4.26,4.26,0,0,1,49.47,88.45Z"/><path d="M61.75,79.66l-.1-.47v8.5l1.67.86v.14h-3.5v-.15l1-.85V77.59l-1-.88v-.15h2.25l7,8v-7l-1.66-.88v-.15h3.48v.15l-1,.88v7.88l.92.59L70,88.93h-.16Z"/><path d="M72,88.54l1-.85V77.59l-1-.88v-.15h3.57a10.3,10.3,0,0,1,4,.68,5.33,5.33,0,0,1,2.54,2,5.94,5.94,0,0,1,.88,3.33A6.13,6.13,0,0,1,82,86,5.34,5.34,0,0,1,79.51,88a10.6,10.6,0,0,1-4,.68H72Zm3.49-.64A5,5,0,0,0,78,87.25a4.56,4.56,0,0,0,1.78-1.86,6.29,6.29,0,0,0,0-5.57A4.57,4.57,0,0,0,78,78a5.11,5.11,0,0,0-2.57-.65h-.16V87.9Z"/><path d="M83.61,88.54l1-.88V77.59l-1-.88v-.15H92L91.1,79H91l-1.26-1.62H86.94v5.11l3.88-.55-.5,1.33H86.94V87.9h2.73L92,86.27h.16l-.3,2.42H83.61Z"/><path d="M95.22,79.66l-.1-.47v8.5l1.67.86v.14h-3.5v-.15l1-.85V77.59l-1-.88v-.15h2.25l7,8v-7l-1.66-.88v-.15h3.48v.15l-1,.88v7.88l.92.59-.78,2.87h-.16Z"/><path d="M105.57,88.54l1-.85V77.59l-1-.88v-.15h3.8a6.49,6.49,0,0,1,2.5.44,3.81,3.81,0,0,1,1.7,1.25,3,3,0,0,1,.61,1.86,3.09,3.09,0,0,1-.4,1.58,3.6,3.6,0,0,1-1.06,1.17,4,4,0,0,1-1.43.63l1.87,1.17,1.49,3,.91.85v.15h-2.9l-2.59-5c-.37,0-.76,0-1.17,0v3.92l1.66.85v.15h-5ZM109.11,83a2.54,2.54,0,0,0,1.31-.34,2.43,2.43,0,0,0,1-1,3.43,3.43,0,0,0,0-3,2.44,2.44,0,0,0-1-1,2.64,2.64,0,0,0-1.31-.34h-.21V83Z"/><path d="M116.27,88.54l1-.85,3.53-8.63-.7-.86L122,76.32h.16l4.71,11.37,1,.85v.15h-5.2v-.15l1.73-.85-.88-2.13H119l-.88,2.13,1.73.85v.15h-3.53Zm6.87-3.71-2-4.71-1.94,4.71Z"/><path d="M128.73,88.54l1-.85V77.59l-1-.88v-.15h3.85a6.66,6.66,0,0,1,2.2.33,3.14,3.14,0,0,1,1.45,1,2.53,2.53,0,0,1,.51,1.6,2.6,2.6,0,0,1-.3,1.23,2.7,2.7,0,0,1-.84.94,3.08,3.08,0,0,1-1.23.51,3.94,3.94,0,0,1,1.51.48A3.08,3.08,0,0,1,137,83.69a2.78,2.78,0,0,1,.43,1.55,2.9,2.9,0,0,1-.61,1.85,3.79,3.79,0,0,1-1.71,1.19,7.26,7.26,0,0,1-2.53.41h-3.85Zm3.58-6.73a2.17,2.17,0,0,0,1.07-.26,2,2,0,0,0,.78-.77,2.41,2.41,0,0,0,.29-1.21,2.43,2.43,0,0,0-.29-1.21,2,2,0,0,0-.78-.76,2.29,2.29,0,0,0-1.07-.26h-.25v4.47Zm0,6.09a3,3,0,0,0,1.32-.29,2.35,2.35,0,0,0,1-.88,2.52,2.52,0,0,0,.37-1.4,2.92,2.92,0,0,0-.36-1.5,2.34,2.34,0,0,0-1-.92,2.79,2.79,0,0,0-1.32-.31h-.25v5.3Z"/><path d="M137.9,88.54l.95-.85,3.53-8.63-.69-.86,1.92-1.88h.16l4.72,11.37.94.85v.15h-5.2v-.15l1.73-.85-.88-2.13h-4.5l-.87,2.13,1.72.85v.15H137.9Zm6.88-3.71-2-4.71-1.94,4.71Z"/><path d="M151.29,88.54l1-.85V77.34a5.81,5.81,0,0,0-1.73.55,5.36,5.36,0,0,0-1.46,1H149l.77-2.37h8.46l-.77,2.37h-.16a4,4,0,0,0-1.15-1,4.88,4.88,0,0,0-1.49-.59V87.69l1,.85v.15h-4.36Z"/><path d="M161.6,88.54l1-.85V77.34a5.72,5.72,0,0,0-1.73.55,5.57,5.57,0,0,0-1.47,1h-.16l.76-2.37h8.47l-.77,2.37h-.16a4,4,0,0,0-1.15-1,5,5,0,0,0-1.5-.59V87.69l1,.85v.15H161.6Z"/></g></g></svg>