<svg xmlns="http://www.w3.org/2000/svg" viewBox="0 0 200.33 200"><defs><style>.cls-1{fill:#b5c4e5;}.cls-2{opacity:0.15;}.cls-3{fill:#fff;}.cls-4{opacity:0.5;}.cls-5{fill:#91a4e4;}.cls-6{fill:#6d7cb5;}.cls-7{fill:#c7d9ff;}.cls-8{fill:#7890ce;}.cls-9{fill:#4a568e;}</style></defs><g id="Layer_2" data-name="Layer 2"><g id="Layer_1-2" data-name="Layer 1"><rect class="cls-1" x="0.33" width="200" height="200"/><g class="cls-2"><path class="cls-3" d="M200.33,0V35.63l-.7.18a8.07,8.07,0,0,1-4.84,0c-1.93-.78-3.15-2.7-3.91-4.63a55.84,55.84,0,0,0-2.13-5.85c-3.26-6.23-11.68-8.16-15.35-14.16C171.66,8.27,171.18,3.91,172,0Z"/><path class="cls-3" d="M81.73,9.23A31.39,31.39,0,0,1,63.11,26.16c-3.73,1.29-7.81,2-11,4.23-3.73,2.65-5.46,7-7.55,10.87a35.66,35.66,0,0,1-12.43,13.9c-8.59,5.28-19.56,5.76-29.87,5.42l-2-.06V0H83.21A17.35,17.35,0,0,1,81.73,9.23Z"/></g><g class="cls-4"><rect class="cls-5" x="85.8" y="64.9" width="21.32" height="9.55"/><rect class="cls-5" x="85.8" y="87.82" width="21.32" height="9.55"/><rect class="cls-5" x="73.85" y="76.36" width="21.32" height="9.55"/><rect class="cls-5" x="97.75" y="76.36" width="21.32" height="9.55"/><rect class="cls-5" x="182.24" y="41.45" width="18.08" height="9.56"/><rect class="cls-5" x="182.24" y="64.36" width="18.08" height="9.56"/><rect class="cls-5" x="194.19" y="52.91" width="6.14" height="9.55"/><rect class="cls-5" x="170.29" y="52.91" width="21.32" height="9.55" transform="translate(361.91 115.37) rotate(180)"/></g><path class="cls-3" d="M.33,49.81v.52a37.56,37.56,0,0,0,10.33-4.69,22.65,22.65,0,0,0,9.23-14.82,17.77,17.77,0,0,0,.21-4.32,15,15,0,0,0,5.33-1.62c3.76-2,7-5.55,9.48-10.37A27.15,27.15,0,0,0,38.08,0h-.51a26.55,26.55,0,0,1-3.11,14.29c-2.39,4.73-5.59,8.24-9.27,10.15A14.27,14.27,0,0,1,20.05,26a13,13,0,0,0-.72-3A9.81,9.81,0,0,0,14,17.22a4.15,4.15,0,0,0-3.38-.07,3.47,3.47,0,0,0-1.56,4,6.37,6.37,0,0,0,2.66,3.44,12.26,12.26,0,0,0,7.86,2,17.84,17.84,0,0,1-.2,4.2,22.09,22.09,0,0,1-9,14.47A36.3,36.3,0,0,1,.33,49.81ZM19.55,26.05A11.74,11.74,0,0,1,12,24.13,5.78,5.78,0,0,1,9.57,21a3,3,0,0,1,1.3-3.39,3.77,3.77,0,0,1,3,.1,9.29,9.29,0,0,1,5,5.44A12.46,12.46,0,0,1,19.55,26.05Z"/><rect id="rect145345" class="cls-6" y="84.99" width="52.05" height="3.11"/><g id="use43571-71"><g id="layer20"><path id="path12214" class="cls-3" d="M15,71.58,12.64,79A4.62,4.62,0,0,0,13,82.7l1,1.79H27l1-1.79a4.66,4.66,0,0,0,.4-3.74l-2.36-7.38Z"/><path id="path12223" class="cls-7" d="M15.43,72.17l-2.23,7a4.15,4.15,0,0,0,.35,3.27l.86,1.49H26.64l.86-1.49a4.15,4.15,0,0,0,.35-3.27l-2.23-7Z"/><path id="rect114367" class="cls-5" d="M14.29,75.72,13.2,79.14a4.11,4.11,0,0,0,.35,3.27l.86,1.49H26.64l.86-1.49a4.15,4.15,0,0,0,.35-3.27l-1.09-3.42Z"/><path id="rect12226" class="cls-3" d="M14.47,71h12.2a.19.19,0,0,1,.19.19v1a.2.2,0,0,1-.2.2H14.47a.19.19,0,0,1-.19-.19v-1A.19.19,0,0,1,14.47,71Z"/><path id="path12509" class="cls-8" d="M20.54,75.26c3.39,0,6.15.19,6.15.42s-2.76.42-6.15.42-6.15-.19-6.15-.42S17.14,75.26,20.54,75.26Z"/><path id="circle115574" class="cls-8" d="M17.46,78a1,1,0,0,1,0,2,1,1,0,1,1,0-2Z"/><path id="circle115578" class="cls-8" d="M20.75,76.94a.72.72,0,1,1-.71.71A.71.71,0,0,1,20.75,76.94Z"/><path id="path115432" class="cls-8" d="M21.06,79.54a.87.87,0,1,1-.87.87A.88.88,0,0,1,21.06,79.54Z"/></g></g><rect class="cls-6" x="104.5" y="68.78" width="50.49" height="3.11"/><g id="use41611-6-1-3"><g id="layer34"><rect class="cls-6" x="148.54" y="119.11" width="51.74" height="56.15"/><rect class="cls-9" x="148.54" y="119.11" width="51.74" height="4.21"/><rect class="cls-5" x="152.74" y="166.64" width="47.54" height="8.63"/><rect class="cls-5" x="152.74" y="144.46" width="47.54" height="15.6"/><rect class="cls-5" x="152.74" y="127.93" width="47.54" height="12.17"/><path id="rect29155" class="cls-6" d="M194.5,130.5H172.1c-.94,0-1.71.57-1.71,1.27h0c0,.71.77,1.28,1.71,1.28h22.4c.95,0,1.72-.57,1.72-1.28h0C196.22,131.07,195.45,130.5,194.5,130.5Z"/><path id="rect29157" class="cls-6" d="M194.5,147.75H172.1c-.94,0-1.71.57-1.71,1.28h0c0,.7.77,1.28,1.71,1.28h22.4c.95,0,1.72-.58,1.72-1.28h0C196.22,148.32,195.45,147.75,194.5,147.75Z"/><path id="rect29153" class="cls-6" d="M194.5,170.82H172.1c-.94,0-1.71.58-1.71,1.28h0c0,.71.77,1.28,1.71,1.28h22.4c.95,0,1.72-.57,1.72-1.28h0C196.22,171.4,195.45,170.82,194.5,170.82Z"/></g></g><g id="use41611-6-1-3-2" data-name="use41611-6-1-3"><g id="layer34-2" data-name="layer34"><rect class="cls-6" x="0.33" y="134.39" width="48.79" height="52.95"/><rect class="cls-9" x="0.33" y="134.39" width="48.78" height="3.97"/><rect class="cls-5" x="0.33" y="179.2" width="44.82" height="8.14"/><rect class="cls-5" x="0.33" y="158.29" width="44.82" height="14.71"/><rect class="cls-5" x="0.33" y="142.7" width="44.82" height="11.48"/><path id="rect29155-2" data-name="rect29155" class="cls-6" d="M5.77,145.12H26.89c.89,0,1.62.54,1.62,1.21h0c0,.66-.73,1.2-1.62,1.2H5.77c-.89,0-1.61-.54-1.61-1.2h0C4.16,145.66,4.88,145.12,5.77,145.12Z"/><path id="rect29157-2" data-name="rect29157" class="cls-6" d="M5.77,161.39H26.89c.89,0,1.62.54,1.62,1.21h0c0,.66-.73,1.2-1.62,1.2H5.77c-.89,0-1.61-.54-1.61-1.2h0C4.16,161.93,4.88,161.39,5.77,161.39Z"/><path id="rect29153-2" data-name="rect29153" class="cls-6" d="M5.77,183.15H26.89c.89,0,1.62.54,1.62,1.2h0c0,.67-.73,1.2-1.62,1.2H5.77c-.89,0-1.61-.53-1.61-1.2h0C4.16,183.69,4.88,183.15,5.77,183.15Z"/></g></g></g></g></svg>