<svg xmlns="http://www.w3.org/2000/svg" viewBox="0 0 146.09 39.3"><defs><style>.cls-1{isolation:isolate;}.cls-2{fill:#f8faff;}.cls-3{fill:#91a4e4;}.cls-4{fill:#d2c0fe;opacity:0.6;mix-blend-mode:multiply;}.cls-5{fill:#fff7ff;}.cls-6{fill:#654696;}.cls-7{fill:#53317d;}.cls-8{fill:#31115a;}.cls-9{fill:#fff;opacity:0.7;}.cls-10{fill:#dcd4ff;}.cls-11{fill:#dbdaff;}.cls-12{fill:#7890ce;}</style></defs><g class="cls-1"><g id="Layer_2" data-name="Layer 2"><g id="Layer_1-2" data-name="Layer 1"><polygon class="cls-2" points="135.43 21.73 135.43 6.98 131.03 6.98 131.03 21.76 135.43 21.73"/><polygon class="cls-3" points="135.15 21.75 135.15 15.75 131.31 15.75 131.31 21.76 135.15 21.75"/><rect class="cls-4" x="131.03" y="6.98" width="4.41" height="0.51"/><path class="cls-5" d="M135.45,7.17H131a.32.32,0,0,1,0-.63h4.43a.32.32,0,1,1,0,.63Z"/><path class="cls-6" d="M135.82,22.13h-5.18l.11-.52a.24.24,0,0,1,.24-.19h4.48a.24.24,0,0,1,.24.19Z"/><path class="cls-7" d="M136.22,22.64h-6l.14-.48a.32.32,0,0,1,.31-.23h5.08a.32.32,0,0,1,.31.23Z"/><path class="cls-8" d="M136.84,23.44h-7.22l.06-.37a.61.61,0,0,1,.58-.48h5.94a.61.61,0,0,1,.58.48Z"/><path class="cls-9" d="M131.76,20.33h1.35v-.17h-1.35Zm.32-1.15v.17h.71v-.17Zm-.32-.81h1.35V18.2h-1.35Zm.32-1.15v.17h.71v-.17Zm-.32-.81h1.35v-.17h-1.35Zm.32-1.15v.17h.71v-.17Zm-.32-.8h1.35v-.17h-1.35Zm.32-1.15v.17h.71v-.17Zm-.32-.81h1.35v-.17h-1.35Zm.32-1.15v.17h.71v-.17Zm-.32-.81h1.35v-.17h-1.35Zm.32-1.15v.17h.71V9.39Zm-.32-1v.17h1.35V8.41Z"/><polygon class="cls-2" points="6.97 37.1 6.97 19.42 1.69 19.42 1.69 37.14 6.97 37.1"/><polygon class="cls-3" points="6.63 37.12 6.63 29.93 2.02 29.93 2.02 37.14 6.63 37.12"/><rect class="cls-4" x="1.69" y="19.42" width="5.28" height="0.61"/><path class="cls-5" d="M7,19.65H1.68a.37.37,0,0,1-.38-.37.38.38,0,0,1,.38-.38H7a.38.38,0,0,1,.38.38A.37.37,0,0,1,7,19.65Z"/><path class="cls-6" d="M7.43,37.57H1.22L1.35,37a.3.3,0,0,1,.29-.23H7A.3.3,0,0,1,7.3,37Z"/><path class="cls-7" d="M7.91,38.19H.75l.16-.57a.38.38,0,0,1,.37-.28H7.37a.38.38,0,0,1,.37.28Z"/><path class="cls-8" d="M8.65,39.14H0l.08-.44a.72.72,0,0,1,.68-.58H7.89a.73.73,0,0,1,.69.58Z"/><path class="cls-9" d="M2.56,35.42H4.18v-.21H2.56ZM2.94,34v.2H3.8V34Zm-.38-1H4.18v-.2H2.56Zm.38-1.38v.21H3.8v-.21Zm-.38-1H4.18v-.21H2.56Zm.38-1.38v.2H3.8v-.2Zm-.38-1H4.18v-.2H2.56ZM2.94,27v.21H3.8V27Zm-.38-1H4.18v-.21H2.56Zm.38-1.38v.2H3.8v-.2Zm-.38-1H4.18v-.2H2.56Zm.38-1.38v.21H3.8v-.21Zm-.38-1.17v.21H4.18v-.21Z"/><path class="cls-2" d="M32.62,23V8.74h3.85V23a8.29,8.29,0,1,1-3.85,0Z"/><rect class="cls-4" x="32.62" y="8.74" width="3.86" height="1.09"/><path class="cls-5" d="M32.35,9.12h4.39a.69.69,0,0,0,0-1.38H32.35a.69.69,0,0,0,0,1.38Z"/><path class="cls-3" d="M41.08,27.88A7.16,7.16,0,0,1,41.79,31,7.25,7.25,0,1,1,28,27.88Z"/><rect class="cls-10" x="26.71" y="34.14" width="2.09" height="0.6" transform="translate(55.5 68.89) rotate(180)"/><path class="cls-7" d="M25.66,34.68a.38.38,0,0,0,0-.47,1.29,1.29,0,0,1-.22-.74,1,1,0,0,1,.85-1.1,1,1,0,0,1,.86,1.1,1.3,1.3,0,0,1-.23.74.41.41,0,0,0,0,.47,1.28,1.28,0,0,1,.23.74,1,1,0,0,1-.86,1.1,1,1,0,0,1-.85-1.1A1.27,1.27,0,0,1,25.66,34.68Z"/><rect class="cls-10" x="28.51" y="31.21" width="3.02" height="5.74" transform="translate(60.04 68.17) rotate(180)"/><rect class="cls-7" x="28.24" y="30.91" width="3.55" height="1.8" transform="translate(60.04 63.61) rotate(180)"/><polygon class="cls-6" points="28.24 30.91 31.8 30.91 30.75 29.12 29.28 29.12 28.24 30.91"/><path class="cls-6" d="M27.71,37.75h4.62l-.09-.6a.25.25,0,0,0-.22-.22H28a.24.24,0,0,0-.22.22Z"/><path class="cls-7" d="M27.35,38.35h5.34l-.13-.56a.3.3,0,0,0-.27-.26H27.75a.32.32,0,0,0-.28.26Z"/><path class="cls-8" d="M26.79,39.26h6.45l-.05-.43a.61.61,0,0,0-.51-.55H27.36a.6.6,0,0,0-.51.55Z"/><path class="cls-2" d="M145.93,11.12H137a.16.16,0,0,0-.14.24l.19.3a.88.88,0,0,1,.11.42v9.85a1.61,1.61,0,0,0,1.61,1.61h5.37a1.61,1.61,0,0,0,1.61-1.61V12.08a.79.79,0,0,1,.12-.42l.18-.3A.16.16,0,0,0,145.93,11.12Z"/><path class="cls-3" d="M137.59,16.18v5.75a1.19,1.19,0,0,0,1.19,1.19h5.37a1.19,1.19,0,0,0,1.19-1.19V16.18Z"/><path class="cls-11" d="M145.93,11.12H137a.16.16,0,0,0-.14.24l.19.3a.71.71,0,0,1,.09.28h8.63a.94.94,0,0,1,.1-.28l.18-.3A.16.16,0,0,0,145.93,11.12Z"/><path class="cls-9" d="M142.67,20.56v.14h1.76v-.22h-1.76Zm0-4.77v.14h1.76v-.22h-1.76Zm0,1.59v.14h1.76V17.3h-1.76Zm0-3.18v.14h1.76v-.22h-1.76Zm0,4.77v.14h1.76v-.22h-1.76Zm0-6.44v.22h1.76v-.22Zm0,9.62v.14h1.76v-.22h-1.76ZM144,19.77v-.08h-.94v.22H144v-.14Zm0,1.59v-.08h-.94v.22H144v-.14Zm0-8v-.08h-.94v.22H144V13.4ZM144,15v-.08h-.94v.22H144V15Zm0,1.6V16.5h-.94v.22H144v-.13Zm0,1.59V18.1h-.94v.21H144v-.13Z"/><rect class="cls-12" x="138.43" y="17.26" width="2.07" height="3.26" transform="translate(278.93 37.79) rotate(180)"/><path class="cls-3" d="M117.23,4.09h9.3a1,1,0,0,1,1,1V18.69A4.58,4.58,0,0,1,123,23.27h-2.17a4.58,4.58,0,0,1-4.58-4.58V5.11a1,1,0,0,1,1-1Z" transform="translate(243.75 27.36) rotate(180)"/><rect class="cls-3" x="119.98" y="0.42" width="3.8" height="6.4" transform="translate(243.75 7.25) rotate(180)"/><rect class="cls-12" x="119.98" y="0.97" width="3.8" height="0.75"/><rect class="cls-6" x="119.51" width="4.73" height="1.1" rx="0.41" transform="translate(243.75 1.1) rotate(180)"/><path class="cls-9" d="M127.54,18.73h-6.77A.76.76,0,0,1,120,18V10.33a.76.76,0,0,1,.77-.77h6.77Z"/></g></g></g></svg>