<svg xmlns="http://www.w3.org/2000/svg" width="234.22" height="57.55" viewBox="0 0 234.22 57.55"><defs><style>.cls-1{fill:#fff;}</style></defs><g id="Layer_2" data-name="Layer 2"><g id="Layer_1-2" data-name="Layer 1"><path class="cls-1" d="M6.9,4.73H0V.31H18.9V4.73H12V24.1H6.9Z"/><path class="cls-1" d="M30.6,6.46v4.18a10.45,10.45,0,0,0-1.4-.1c-2.65,0-5.2,1.46-5.2,5.74V24.1H19V6.43h5v4.28h.14c.61-2.59,2.28-4.42,5.1-4.42A5,5,0,0,1,30.6,6.46Z"/><path class="cls-1" d="M47.46,11.9V24.1H42.74V21h-.17c-.21.92-1.74,3.43-5.61,3.43-2.86,0-5.71-1.36-5.71-4.89,0-3.81,3.23-4.69,6.08-5l3.4-.45c1.53-.2,1.77-.57,1.77-1.73v-.2c0-2-1.16-2.42-2.65-2.42S37,10.17,37,12v.17l-4.69,0v-.68c0-3.46,2.31-5.43,7.71-5.43S47.46,8,47.46,11.9Zm-5,4.21c-.27.34-.82.45-1.7.55L38.56,17c-1.43.24-2.42.68-2.42,1.9,0,.92.58,1.94,2.65,1.94,2.59,0,3.71-1.7,3.71-2.86Z"/><path class="cls-1" d="M67.9.31V24.1h-5V21.55a5.51,5.51,0,0,1-5.23,2.89C54,24.44,50,21.76,50,15.26s4-9.17,7.72-9.17A5.51,5.51,0,0,1,62.93,9V.31Zm-4.76,15c0-3.46-2-5.06-4.22-5.06s-4.25,1.6-4.25,5.06,2,5.07,4.25,5.07S63.14,18.73,63.14,15.26Z"/><path class="cls-1" d="M87.75,16.52H75.28c.3,3.1,1.87,4.32,4.48,4.32,2.14,0,3-.92,3.47-2.38h4.39c-.89,4-4,6.09-8.13,6.09-4.52,0-8.91-2.49-8.91-9.22s4.19-9.24,8.88-9.24,8.39,2.51,8.39,9.31A5.1,5.1,0,0,1,87.75,16.52Zm-4.59-2.68c-.07-2.21-1.12-4-3.84-4-2.38,0-3.77,1.36-4,4Z"/><path class="cls-1" d="M97.85,16.32h5.27c.1,2.14,1.46,3.91,4.73,3.91,2.75,0,4.21-1.16,4.21-3.1,0-1.63-1.09-2.44-3.23-2.85l-3.43-.65c-3.74-.75-6.9-2.45-6.9-6.76,0-4.56,3.67-6.87,9-6.87s9.31,2.45,9.31,7.31h-5.23c.06-2.14-1.7-3.09-4-3.09-2.72,0-3.74,1.39-3.74,2.85,0,1.09.58,2.24,2.72,2.62l3.2.61c5.58,1,7.72,3.2,7.72,6.8,0,5.13-4.25,7.34-9.66,7.34C101.73,24.44,97.85,21.55,97.85,16.32Z"/><path class="cls-1" d="M147.62,12.88V24.1h-5v-10c0-2.68-1.12-3.87-2.92-3.87s-3.2,1.19-3.2,3.87v10h-5v-10c0-2.68-1.12-3.87-2.93-3.87s-3.19,1.19-3.19,3.87v10h-5V6.43h5v3.7h.2a5.21,5.21,0,0,1,5.17-4,5.33,5.33,0,0,1,5.34,4,5.66,5.66,0,0,1,5.61-4C145.14,6.09,147.62,8.29,147.62,12.88Z"/><path class="cls-1" d="M166.53,11.9V24.1H161.8V21h-.17c-.2.92-1.73,3.43-5.61,3.43-2.85,0-5.71-1.36-5.71-4.89,0-3.81,3.23-4.69,6.09-5l3.4-.45c1.53-.2,1.77-.57,1.77-1.73v-.2c0-2-1.16-2.42-2.66-2.42S156,10.17,156,12v.17l-4.69,0v-.68c0-3.46,2.31-5.43,7.72-5.43S166.53,8,166.53,11.9Zm-5,4.21c-.28.34-.82.45-1.7.55l-2.25.34c-1.43.24-2.41.68-2.41,1.9,0,.92.58,1.94,2.65,1.94,2.58,0,3.71-1.7,3.71-2.86Z"/><path class="cls-1" d="M181.79,6.46v4.18a10.31,10.31,0,0,0-1.39-.1c-2.65,0-5.2,1.46-5.2,5.74V24.1h-5V6.43h5v4.28h.14c.61-2.59,2.27-4.42,5.1-4.42A4.89,4.89,0,0,1,181.79,6.46Z"/><path class="cls-1" d="M195.06,20.36v3.88a26.11,26.11,0,0,1-2.79.1c-3.5,0-5.82-1.6-5.82-5.54V10.23h-3V6.43h3V1.87h5V6.43h3.5v3.8h-3.5v7.86c0,1.36.51,2.27,2.07,2.27Z"/><path class="cls-1" d="M213.72,16.52H201.24c.31,3.1,1.87,4.32,4.49,4.32,2.14,0,3-.92,3.47-2.38h4.38c-.88,4-3.94,6.09-8.12,6.09-4.52,0-8.91-2.49-8.91-9.22s4.18-9.24,8.88-9.24c4.55,0,8.39,2.51,8.39,9.31A5.1,5.1,0,0,1,213.72,16.52Zm-4.59-2.68c-.07-2.21-1.12-4-3.84-4-2.38,0-3.77,1.36-4,4Z"/><path class="cls-1" d="M228.07,6.46v4.18a10.34,10.34,0,0,0-1.4-.1c-2.65,0-5.2,1.46-5.2,5.74V24.1h-5V6.43h5v4.28h.14c.61-2.59,2.28-4.42,5.1-4.42A5,5,0,0,1,228.07,6.46Z"/><path class="cls-1" d="M228.21,21.49a3,3,0,1,1,3,3A3,3,0,0,1,228.21,21.49Z"/><path class="cls-1" d="M26,33.31H42.26v4.42H31.11v5.33H41.24v4H31.11v5.64H42.6V57.1H26Z"/><path class="cls-1" d="M60.65,44.9V57.1H55.93V54h-.17c-.21.92-1.74,3.43-5.61,3.43-2.86,0-5.71-1.36-5.71-4.89,0-3.81,3.23-4.69,6.08-5l3.4-.45c1.53-.2,1.77-.57,1.77-1.73v-.2c0-2-1.16-2.42-2.65-2.42s-2.89.45-2.89,2.28v.17l-4.69,0v-.68c0-3.46,2.31-5.43,7.71-5.43S60.65,41,60.65,44.9Zm-5,4.21c-.27.34-.82.45-1.7.55L51.75,50c-1.43.24-2.42.68-2.42,1.9,0,.92.58,1.94,2.65,1.94,2.59,0,3.71-1.7,3.71-2.86Z"/><path class="cls-1" d="M75.92,39.46v4.18a10.31,10.31,0,0,0-1.39-.1c-2.66,0-5.21,1.46-5.21,5.74V57.1h-5V39.43h5v4.28h.14c.61-2.59,2.28-4.42,5.1-4.42A5,5,0,0,1,75.92,39.46Z"/><path class="cls-1" d="M95.16,45.88V57.1h-5v-10c0-2.68-1.19-3.87-3.26-3.87s-3.71,1.19-3.71,3.87v10h-5V39.43h5v3.7h.2c.31-1.67,2-4,5.65-4C92.51,39.09,95.16,41.29,95.16,45.88Z"/><path class="cls-1" d="M106.52,33.31h15.74v4.42H111.62V43.3h8.81v4.11h-8.81V57.1h-5.1Z"/><path class="cls-1" d="M139.06,44.9V57.1h-4.73V54h-.17c-.2.92-1.73,3.43-5.61,3.43-2.85,0-5.71-1.36-5.71-4.89,0-3.81,3.23-4.69,6.09-5l3.4-.45c1.53-.2,1.76-.57,1.76-1.73v-.2c0-2-1.15-2.42-2.65-2.42s-2.89.45-2.89,2.28v.17l-4.69,0v-.68c0-3.46,2.31-5.43,7.72-5.43S139.06,41,139.06,44.9Zm-5,4.21c-.27.34-.81.45-1.7.55l-2.24.34c-1.43.24-2.41.68-2.41,1.9,0,.92.57,1.94,2.65,1.94,2.58,0,3.7-1.7,3.7-2.86Z"/><path class="cls-1" d="M141.58,51.29H146c.17,1.7,1.26,2.48,3.23,2.48,1.7,0,2.75-.61,2.75-1.87,0-.81-.51-1.29-1.66-1.56l-3.27-.68c-3.7-.85-5-2.82-5-5.2,0-3.44,2.86-5.37,7.21-5.37,4.69,0,7.14,2.31,7.18,6.11h-4.15c-.17-1.76-1.26-2.44-2.89-2.44s-2.65.64-2.65,1.63.78,1.43,1.9,1.66l3.37.72c2.78.61,5.1,1.9,5.1,5.06,0,4-3.64,5.61-7.93,5.61C144.43,57.44,141.61,55.4,141.58,51.29Z"/><path class="cls-1" d="M170.07,53.36v3.88a26.11,26.11,0,0,1-2.79.1c-3.5,0-5.82-1.6-5.82-5.54V43.23h-3v-3.8h3V34.87h5v4.56h3.5v3.8h-3.5v7.86c0,1.36.51,2.27,2.07,2.27Z"/><path class="cls-1" d="M188.73,49.52H176.25c.31,3.1,1.87,4.32,4.49,4.32,2.14,0,3-.92,3.47-2.38h4.38c-.88,4-3.94,6.09-8.12,6.09-4.52,0-8.91-2.49-8.91-9.22s4.18-9.24,8.88-9.24,8.39,2.51,8.39,9.31A5.1,5.1,0,0,1,188.73,49.52Zm-4.59-2.68c-.07-2.21-1.12-4-3.84-4-2.38,0-3.77,1.36-4.05,4Z"/><path class="cls-1" d="M203.08,39.46v4.18a10.31,10.31,0,0,0-1.39-.1c-2.66,0-5.21,1.46-5.21,5.74V57.1h-5V39.43h5v4.28h.14c.61-2.59,2.28-4.42,5.1-4.42A5,5,0,0,1,203.08,39.46Z"/><path class="cls-1" d="M203.22,54.49a3,3,0,1,1,3,2.95A3,3,0,0,1,203.22,54.49Z"/></g></g></svg>