<svg xmlns="http://www.w3.org/2000/svg" viewBox="0 0 580.77 127.01"><defs><style>.cls-1{fill:#fff;}</style></defs><g id="Layer_2" data-name="Layer 2"><g id="Layer_1-2" data-name="Layer 1"><path class="cls-1" d="M10,53.75a32.76,32.76,0,0,0-4.9-8.2A46,46,0,0,0,0,40.74V39H21.47v1.7A2.57,2.57,0,0,0,20.54,43a11.62,11.62,0,0,0,.76,3.29l2.53,5.58.51,1,29.41,64.73L59.16,104Q65.75,87.39,69.89,76.4a189.61,189.61,0,0,0,6-18.09q1.86-7.1,1.35-11.15A9.74,9.74,0,0,0,74,40.74V39H94.32v1.7a40.56,40.56,0,0,0-6.09,6.93,81.59,81.59,0,0,0-6.34,11.15Q78.43,65.91,74,76.74T62.88,104L55.1,123.56H41.58Z"/><path class="cls-1" d="M103.78,121.87a8.09,8.09,0,0,0,2.87-4.14,27.07,27.07,0,0,0,.51-6V50.88a27.07,27.07,0,0,0-.51-6,8.09,8.09,0,0,0-2.87-4.14V39h16.9v72.69a27.07,27.07,0,0,0,.51,6,8.16,8.16,0,0,0,2.87,4.14v1.69H103.78Zm.51-115.79A5.86,5.86,0,0,1,106,1.61,6.33,6.33,0,0,1,110.54,0a9.94,9.94,0,0,1,7.35,2.79,9.94,9.94,0,0,1,2.79,7.35V16.4H112.4a8,8,0,0,1-5.92-2.2,8,8,0,0,1-2.19-5.92Z"/><path class="cls-1" d="M200.46,126.94a110,110,0,0,1-11.15-.59q-5.76-.6-11.07-1.44c-3.55-.57-6.88-1.21-10-1.94s-5.77-1.44-8-2.12v2.71h-16.9v-1.69a8.09,8.09,0,0,0,2.87-4.14,27.07,27.07,0,0,0,.51-6v-97a27,27,0,0,0-.51-6,8.15,8.15,0,0,0-2.87-4.15V2.87L160.23,0V53.24a49.81,49.81,0,0,1,9.89-7.43,63.69,63.69,0,0,1,10.73-4.91,65.43,65.43,0,0,1,10.57-2.7,59.66,59.66,0,0,1,9.55-.85,72.39,72.39,0,0,1,19.61,2.71,53.09,53.09,0,0,1,17.24,8.28,42.13,42.13,0,0,1,12.25,14.2q4.65,8.63,4.65,20.45,0,11.33-4.4,19.61a39.71,39.71,0,0,1-11.83,13.69,51.64,51.64,0,0,1-17.24,8A80.45,80.45,0,0,1,200.46,126.94Zm-40.23-9.81a38.5,38.5,0,0,0,6.85,2.12q4.65,1.09,10.06,2t10.65,1.6a70.9,70.9,0,0,0,8.78.68,50.53,50.53,0,0,0,13-2,42.54,42.54,0,0,0,14-6.85,41.18,41.18,0,0,0,11.24-12.84q4.65-8,4.65-20a43,43,0,0,0-3.38-17.58,38.74,38.74,0,0,0-9-12.85,37.53,37.53,0,0,0-13-7.86,45.39,45.39,0,0,0-15.3-2.62,50.18,50.18,0,0,0-7,.68,59,59,0,0,0-10,2.54,55.51,55.51,0,0,0-11.15,5.32,45.25,45.25,0,0,0-10.4,8.87Z"/><path class="cls-1" d="M264.86,81.3q0-12.51,5.49-21a42.06,42.06,0,0,1,14.12-13.52,62.66,62.66,0,0,1,19.35-7.27A105.83,105.83,0,0,1,325,37.35a99.32,99.32,0,0,1,14.71,1.27A64.79,64.79,0,0,1,355.37,43a36.09,36.09,0,0,1,12.42,8.53,19.2,19.2,0,0,1,5.08,13.69,25,25,0,0,1-1.78,10,19.06,19.06,0,0,1-4.56,6.59,18.56,18.56,0,0,1-6.34,3.8,36.53,36.53,0,0,1-7,1.78,46.63,46.63,0,0,1-6.59.5h-5.15a57.69,57.69,0,0,1-10.23-.84q-4.65-.84-8.87-1.86T314,83.33a45.52,45.52,0,0,0-9-.85,59.84,59.84,0,0,0-10.82,1.1,85.4,85.4,0,0,0-13.69,4,43.34,43.34,0,0,0,5.15,16.64,33.63,33.63,0,0,0,10.15,11.08,42.6,42.6,0,0,0,14.11,6.16,76.69,76.69,0,0,0,16.9,2.12,81.25,81.25,0,0,0,18.6-2,62.15,62.15,0,0,0,17.24-7.1,55.45,55.45,0,0,0,8.28-7.52,64.09,64.09,0,0,0,6.59-8.71h1.69l-6.25,15.55q-6.6,3.39-12.09,5.92a81.25,81.25,0,0,1-10.9,4.14,72.22,72.22,0,0,1-11.41,2.37,109,109,0,0,1-13.44.76,105.05,105.05,0,0,1-23.66-2.54,57.21,57.21,0,0,1-19.1-7.94,38.37,38.37,0,0,1-12.76-14.12Q264.86,93.64,264.86,81.3Zm92.79-16.22a22.83,22.83,0,0,0-1.94-9.3A22.23,22.23,0,0,0,349.88,48a28.11,28.11,0,0,0-10-5.32,48,48,0,0,0-14.54-1.94,62.3,62.3,0,0,0-18.17,2.87,39.71,39.71,0,0,0-14.37,8,36.53,36.53,0,0,0-9.38,13.27,47.24,47.24,0,0,0-3.38,18.59q11.49-3.89,19.35-4.31a65.71,65.71,0,0,1,14.37.67q6.51,1.11,12.85,2.71a72.07,72.07,0,0,0,14.79,1.94q7.6.34,11.91-5T357.65,65.08Z"/><path class="cls-1" d="M405.32,111.73a27.81,27.81,0,0,0,.5,6,8.18,8.18,0,0,0,2.88,4.14v1.69H388.42v-1.69a8.22,8.22,0,0,0,2.87-4.14,27.18,27.18,0,0,0,.5-6V50.88a27.18,27.18,0,0,0-.5-6,8.22,8.22,0,0,0-2.87-4.14V39h16.9v14.2q4.56-7.77,10.65-11.15a35.16,35.16,0,0,1,12.84-4.23,54.61,54.61,0,0,1,13.52,0q6.76.86,12.51,1.78a86.6,86.6,0,0,0,10,1.1q4.23.16,5.75-2.2l.25-.51a5.46,5.46,0,0,0,.26-.84h1.69c.11,1.12.22,2.05.34,2.78a13.54,13.54,0,0,1,.17,2,8.81,8.81,0,0,1-.17,1.69,9.85,9.85,0,0,1-.85,2.2l-6.76,8.78c-1.24,1.58-3.19,1.92-5.83,1a92.83,92.83,0,0,1-9.21-3.8q-5.25-2.46-11.33-5.07A32.75,32.75,0,0,0,427,44a21.86,21.86,0,0,0-11.74,3.12q-5.67,3.3-9.89,12.6Z"/><path class="cls-1" d="M495.75,37.69c-.23,3.16.17,5.41,1.18,6.76s2.59,1.84,5.07,1.78A46.81,46.81,0,0,0,511,45q5.24-1.18,11.75-3t13.18-3.29c4.45-1,8.87-1.8,13.27-2.37a47.06,47.06,0,0,1,12.25-.08,23.22,23.22,0,0,1,9.89,3.55,15.45,15.45,0,0,1,6.09,8.36v63.56a27.81,27.81,0,0,0,.5,6,8.18,8.18,0,0,0,2.88,4.14v1.69H563.86v-2.71a139,139,0,0,1-16,3.81,140.87,140.87,0,0,1-22.06,2.28,128.64,128.64,0,0,1-20.2-.93,68.87,68.87,0,0,1-18.08-4.65,33.47,33.47,0,0,1-13-9.38q-5-6-5-15.3a21.56,21.56,0,0,1,1.77-9.29,24.55,24.55,0,0,1,4.06-6.17,17.13,17.13,0,0,1,4.56-3.64c1.52-.78,2.68-1.35,3.47-1.69a73.68,73.68,0,0,1,18.84-5.32,134.4,134.4,0,0,1,22.49-1.69,114.94,114.94,0,0,1,21.88,2.2,51.87,51.87,0,0,1,17.24,6.33v-26q-1-6.42-4-9.12a10.17,10.17,0,0,0-7.1-2.71,24.44,24.44,0,0,0-9.12,2,98.4,98.4,0,0,0-10.23,4.9q-5.24,2.88-10.31,6t-9.47,5.41a33.94,33.94,0,0,1-7.6,3q-3.21.76-4.73-1.26l-6.77-8.79a12,12,0,0,1-1.1-6.26q.26-3.54.6-6.93Zm6.76,36.51a26.69,26.69,0,0,0-9.05,4.14,20.09,20.09,0,0,0-7.85,12.09,29,29,0,0,0-.68,6.08,20.08,20.08,0,0,0,4.14,12.85,32.8,32.8,0,0,0,10.23,8.54,45.22,45.22,0,0,0,13.27,4.64,55.15,55.15,0,0,0,13.26,1A134.56,134.56,0,0,0,549,121q9.3-2,14.87-3.55V81.81a39.32,39.32,0,0,0-14.19-6.59,98,98,0,0,0-17.16-2.88,112.64,112.64,0,0,0-16.82-.08A73.21,73.21,0,0,0,502.51,74.2Z"/></g></g></svg>