<svg xmlns="http://www.w3.org/2000/svg" viewBox="0 0 179 47.73"><defs><style>.cls-1{fill:red;}.cls-2{fill:#fffdf8;}</style></defs><g id="Layer_2" data-name="Layer 2"><g id="Layer_1-2" data-name="Layer 1"><rect class="cls-1" width="179" height="47.73"/><path class="cls-2" d="M13.41,15.5a6.66,6.66,0,0,1,1.22-3.6,7.07,7.07,0,0,1,2.91-2.33,9.87,9.87,0,0,1,4.12-.83,9.28,9.28,0,0,1,3.83.74,6,6,0,0,1,2.56,2.08A5.32,5.32,0,0,1,29,14.64a5.07,5.07,0,0,1-.64,2.51,8.32,8.32,0,0,1-2,2.31,27.08,27.08,0,0,1-3.67,2.43L18,24.61l-.23-1.19H29.42V27H13.69V23.87l6.92-4.41a31.46,31.46,0,0,0,2.59-1.8,5.92,5.92,0,0,0,1.32-1.4,2.71,2.71,0,0,0,.38-1.38,2.48,2.48,0,0,0-.37-1.36,2.53,2.53,0,0,0-1.13-.94,4.71,4.71,0,0,0-1.89-.33,5.08,5.08,0,0,0-2.24.44A3.15,3.15,0,0,0,18,13.87a4.15,4.15,0,0,0-.51,1.63Z"/><path class="cls-2" d="M40.18,27.41a9.22,9.22,0,0,1-4.73-1.17A8,8,0,0,1,32.36,23a10.43,10.43,0,0,1-1.1-4.91,10.43,10.43,0,0,1,1.1-4.89,8,8,0,0,1,3.09-3.27,9.22,9.22,0,0,1,4.73-1.17,9.17,9.17,0,0,1,4.71,1.17A8,8,0,0,1,48,13.17a10.42,10.42,0,0,1,1.1,4.9A10.45,10.45,0,0,1,48,23a8,8,0,0,1-3.09,3.27A9.17,9.17,0,0,1,40.18,27.41Zm0-3.68a4.47,4.47,0,0,0,3.58-1.48A6.22,6.22,0,0,0,45,18.07a6.19,6.19,0,0,0-1.28-4.17,4.47,4.47,0,0,0-3.58-1.48,4.5,4.5,0,0,0-3.59,1.48,6.14,6.14,0,0,0-1.29,4.17,6.17,6.17,0,0,0,1.29,4.18A4.5,4.5,0,0,0,40.18,23.73Z"/><path class="cls-2" d="M51.2,16.9h5.48v3.54H51.2Z"/><path class="cls-2" d="M60.55,9.12H73v3.39H61.77l1.64-.86-.91,6.73h-1a6.14,6.14,0,0,1,1.3-1.62,6.4,6.4,0,0,1,2-1.19,8,8,0,0,1,2.8-.46,7.64,7.64,0,0,1,3.54.77A5.62,5.62,0,0,1,73.43,18a5.83,5.83,0,0,1,.81,3.08,5.9,5.9,0,0,1-.93,3.27,6.27,6.27,0,0,1-2.65,2.25,9.55,9.55,0,0,1-4.14.83,10.13,10.13,0,0,1-4.1-.77,6.61,6.61,0,0,1-2.73-2.09,5.8,5.8,0,0,1-1.16-2.94h4a2.61,2.61,0,0,0,1.26,1.67,5.17,5.17,0,0,0,2.69.62,5,5,0,0,0,2-.35,2.94,2.94,0,0,0,1.27-1A2.61,2.61,0,0,0,70.2,21a2.83,2.83,0,0,0-.4-1.48,2.66,2.66,0,0,0-1.18-1,4.68,4.68,0,0,0-2-.36,5.79,5.79,0,0,0-1.73.24,5.28,5.28,0,0,0-1.33.62,5.05,5.05,0,0,0-.93.79H59.2Z"/><path class="cls-2" d="M84.91,27.41a9.16,9.16,0,0,1-4.72-1.17A8,8,0,0,1,77.09,23,10.43,10.43,0,0,1,76,18.07a10.43,10.43,0,0,1,1.09-4.89,8,8,0,0,1,3.1-3.27,10.09,10.09,0,0,1,9.43,0,8,8,0,0,1,3.09,3.26,10.42,10.42,0,0,1,1.1,4.9,10.45,10.45,0,0,1-1.1,4.9,8,8,0,0,1-3.09,3.27A9.14,9.14,0,0,1,84.91,27.41Zm0-3.68a4.46,4.46,0,0,0,3.58-1.48,6.22,6.22,0,0,0,1.28-4.18,6.19,6.19,0,0,0-1.28-4.17,5.07,5.07,0,0,0-7.16,0A6.14,6.14,0,0,0,80,18.07a6.17,6.17,0,0,0,1.29,4.18A4.48,4.48,0,0,0,84.91,23.73Z"/><path class="cls-2" d="M100.86,19.55a6.19,6.19,0,0,1-2.92-.66A4.93,4.93,0,0,1,96,17a5.44,5.44,0,0,1-.71-2.8A5.33,5.33,0,0,1,96,11.44a4.88,4.88,0,0,1,2-1.86,6.7,6.7,0,0,1,5.84,0,4.85,4.85,0,0,1,2,1.86,5.24,5.24,0,0,1,.71,2.77,5.35,5.35,0,0,1-.71,2.8,4.9,4.9,0,0,1-2,1.88A6.17,6.17,0,0,1,100.86,19.55Zm0-2.6a2.27,2.27,0,0,0,1.79-.73,2.85,2.85,0,0,0,.66-2,2.93,2.93,0,0,0-.65-2,2.55,2.55,0,0,0-3.59,0,2.93,2.93,0,0,0-.64,2,2.89,2.89,0,0,0,.64,2A2.26,2.26,0,0,0,100.86,17Zm10.48-7.83h3L105.54,27h-3ZM116,27.41a6.18,6.18,0,0,1-2.91-.67,4.8,4.8,0,0,1-2-1.89,5.45,5.45,0,0,1-.7-2.79,5.35,5.35,0,0,1,.7-2.79,4.73,4.73,0,0,1,2-1.86,6.7,6.7,0,0,1,5.84,0,4.85,4.85,0,0,1,1.95,1.86,5.36,5.36,0,0,1,.71,2.79,5.46,5.46,0,0,1-.71,2.79,4.92,4.92,0,0,1-1.95,1.89A6.21,6.21,0,0,1,116,27.41Zm0-2.63a2.32,2.32,0,0,0,1.8-.72,2.86,2.86,0,0,0,.65-2,2.89,2.89,0,0,0-.64-2,2.27,2.27,0,0,0-1.81-.73,2.24,2.24,0,0,0-1.78.73,2.89,2.89,0,0,0-.64,2,2.86,2.86,0,0,0,.64,2A2.26,2.26,0,0,0,116,24.78Z"/><path class="cls-2" d="M135.94,27.41a8.74,8.74,0,0,1-4.06-.91A6.75,6.75,0,0,1,129.17,24a7.22,7.22,0,0,1-1-3.75,7.23,7.23,0,0,1,1-3.76,6.76,6.76,0,0,1,2.72-2.52,9.61,9.61,0,0,1,8.12,0,6.7,6.7,0,0,1,2.72,2.52,7.14,7.14,0,0,1,1,3.76,7.11,7.11,0,0,1-1,3.76A6.63,6.63,0,0,1,140,26.5,8.75,8.75,0,0,1,135.94,27.41Zm0-3.35a4,4,0,0,0,2-.46,3.14,3.14,0,0,0,1.27-1.33,4.46,4.46,0,0,0,.44-2.05,4.49,4.49,0,0,0-.44-2A3.11,3.11,0,0,0,138,16.85a4.47,4.47,0,0,0-4,0,3.14,3.14,0,0,0-1.28,1.32,4.8,4.8,0,0,0,0,4.1A3.16,3.16,0,0,0,134,23.6,4,4,0,0,0,135.94,24.06Z"/><path class="cls-2" d="M144.73,17.81V14.49H156v3.32Zm9-6.23a2.76,2.76,0,0,0-1.9.55,2.37,2.37,0,0,0-.59,1.79V27h-4V14.35a7.31,7.31,0,0,1,.68-3.27,4.72,4.72,0,0,1,2-2.09,7,7,0,0,1,3.35-.72,6.83,6.83,0,0,1,1.49.15,7.62,7.62,0,0,1,1.33.42v3.29a5.53,5.53,0,0,0-1.12-.4A5,5,0,0,0,153.73,11.58Zm1.33,6.23V14.49H166.3v3.32Zm9-6.23a2.79,2.79,0,0,0-1.91.55,2.33,2.33,0,0,0-.61,1.79V27h-4V14.35a7.31,7.31,0,0,1,.68-3.27,4.72,4.72,0,0,1,2-2.09,7.91,7.91,0,0,1,4.83-.57,8.51,8.51,0,0,1,1.33.42v3.29a6.1,6.1,0,0,0-1.13-.4A4.82,4.82,0,0,0,164.09,11.58Z"/><path class="cls-2" d="M24.71,35.9a5.43,5.43,0,0,1-.91,2.57,5.13,5.13,0,0,1-2,1.73,6.29,6.29,0,0,1-2.83.61,6.25,6.25,0,0,1-3.09-.73A5.26,5.26,0,0,1,13.81,38a6.9,6.9,0,0,1,0-6.18,5.13,5.13,0,0,1,2.06-2.07A6.25,6.25,0,0,1,19,29a6.3,6.3,0,0,1,2.83.62,5,5,0,0,1,2,1.72,5.36,5.36,0,0,1,.91,2.58H22.13a3,3,0,0,0-.55-1.32,2.57,2.57,0,0,0-1.08-.83,3.81,3.81,0,0,0-1.56-.3,3.46,3.46,0,0,0-1.75.42,2.86,2.86,0,0,0-1.13,1.18,4.47,4.47,0,0,0,0,3.65,2.82,2.82,0,0,0,1.13,1.19,3.57,3.57,0,0,0,1.75.41,4,4,0,0,0,1.56-.28,2.66,2.66,0,0,0,1.08-.83,3,3,0,0,0,.55-1.33Z"/><path class="cls-2" d="M26,29h2.51V40.57H26Z"/><path class="cls-2" d="M34.53,40.81a5.3,5.3,0,0,1-2.48-.57,4.19,4.19,0,0,1-1.71-1.6,4.47,4.47,0,0,1-.63-2.4,4.54,4.54,0,0,1,.6-2.35A4.25,4.25,0,0,1,32,32.31a4.9,4.9,0,0,1,2.38-.58,4.1,4.1,0,0,1,2.34.67,4.2,4.2,0,0,1,1.5,1.87,6.87,6.87,0,0,1,.53,2.83h-7V35.34h5.6l-.91.63a2.86,2.86,0,0,0-.31-1.2,2,2,0,0,0-.7-.75,1.9,1.9,0,0,0-1-.26,2.18,2.18,0,0,0-1.13.28,2,2,0,0,0-.74.8A2.64,2.64,0,0,0,32.25,36a2.93,2.93,0,0,0,.35,1.47,2.23,2.23,0,0,0,1,.92,3.73,3.73,0,0,0,1.61.31A5.83,5.83,0,0,0,37,38.47a5.64,5.64,0,0,0,1.56-.75v1.83a6.14,6.14,0,0,1-1.8.93A7,7,0,0,1,34.53,40.81Z"/><path class="cls-2" d="M47.63,36.27a6.85,6.85,0,0,1-.77,2.4,4.5,4.5,0,0,1-1.44,1.58,3.47,3.47,0,0,1-2,.56,3.58,3.58,0,0,1-2-.57,3.91,3.91,0,0,1-1.35-1.59,6,6,0,0,1,0-4.75,3.91,3.91,0,0,1,1.35-1.59,3.59,3.59,0,0,1,2-.58,3.48,3.48,0,0,1,2,.57,4.53,4.53,0,0,1,1.45,1.58A6.53,6.53,0,0,1,47.63,36.27Zm-5.45,0a2.79,2.79,0,0,0,.25,1.23,2.14,2.14,0,0,0,.72.85,1.78,1.78,0,0,0,1.05.31,2.19,2.19,0,0,0,1.13-.31,3.31,3.31,0,0,0,1-.85,3.73,3.73,0,0,0,.61-1.23,3.78,3.78,0,0,0-.61-1.22,3.31,3.31,0,0,0-1-.85,2.19,2.19,0,0,0-1.13-.31,1.78,1.78,0,0,0-1.05.31,2.14,2.14,0,0,0-.72.85A2.77,2.77,0,0,0,42.18,36.27ZM47,40.57l-.34-3.12L47,36.27l-.37-1.16L47,32h2.62l-.47,4.29.47,4.3Z"/><path class="cls-2" d="M50.69,32h2.55l.46,3.09v5.5H51.18V34.84Zm6.71-.12v2.41a6.68,6.68,0,0,0-.73-.14,5.29,5.29,0,0,0-.66,0,2.42,2.42,0,0,0-1.17.29,2,2,0,0,0-.83.93A3.83,3.83,0,0,0,53.7,37l-.5-.69a11.67,11.67,0,0,1,.31-1.74,5.88,5.88,0,0,1,.6-1.44,3,3,0,0,1,.94-1,2.53,2.53,0,0,1,1.37-.37,2.85,2.85,0,0,1,.49,0A3.86,3.86,0,0,1,57.4,31.86Z"/><path class="cls-2" d="M65.86,36.27a7.06,7.06,0,0,1-.78,2.4,4.5,4.5,0,0,1-1.44,1.58,3.47,3.47,0,0,1-2,.56,3.53,3.53,0,0,1-2-.57,3.86,3.86,0,0,1-1.36-1.59,6.12,6.12,0,0,1,0-4.75,3.86,3.86,0,0,1,1.36-1.59,3.53,3.53,0,0,1,2-.58,3.48,3.48,0,0,1,2,.57,4.44,4.44,0,0,1,1.45,1.58A6.72,6.72,0,0,1,65.86,36.27Zm-5.46,0a2.65,2.65,0,0,0,.26,1.23,2.12,2.12,0,0,0,.71.85,1.78,1.78,0,0,0,1.05.31,2.22,2.22,0,0,0,1.14-.31,3.28,3.28,0,0,0,.94-.85,3.73,3.73,0,0,0,.61-1.23,3.78,3.78,0,0,0-.61-1.22,3.28,3.28,0,0,0-.94-.85,2.22,2.22,0,0,0-1.14-.31,1.78,1.78,0,0,0-1.05.31,2.12,2.12,0,0,0-.71.85A2.64,2.64,0,0,0,60.4,36.27Zm4.83,4.3-.34-3.12.37-1.18-.37-1.16L65.23,32h2.62l-.47,4.29.47,4.3Z"/><path class="cls-2" d="M68.91,32h2.51l.51,3.34v5.25H69.4V34.9Zm5.91-.25a3.46,3.46,0,0,1,1.89.5,3.15,3.15,0,0,1,1.2,1.39,5.23,5.23,0,0,1,.41,2.16v4.79H75.8V36.2a2.39,2.39,0,0,0-.48-1.62A1.69,1.69,0,0,0,74,34a2,2,0,0,0-1.08.29,1.91,1.91,0,0,0-.7.83,3,3,0,0,0-.25,1.28l-.8-.47a5.82,5.82,0,0,1,.67-2.31,3.82,3.82,0,0,1,1.3-1.42A3.14,3.14,0,0,1,74.82,31.73Z"/><path class="cls-2" d="M88.89,37a3.94,3.94,0,0,1-.76,2,4.43,4.43,0,0,1-1.65,1.34,5.29,5.29,0,0,1-2.28.48,5.2,5.2,0,0,1-2.47-.57,4.15,4.15,0,0,1-1.67-1.6,5,5,0,0,1,0-4.73,4.15,4.15,0,0,1,1.67-1.6,5.21,5.21,0,0,1,2.47-.58,5.29,5.29,0,0,1,2.28.49,4.4,4.4,0,0,1,1.65,1.33,3.94,3.94,0,0,1,.76,2H86.37a1.94,1.94,0,0,0-.74-1.27,2.33,2.33,0,0,0-1.43-.43,2.29,2.29,0,0,0-1.16.28,2,2,0,0,0-.77.83,3.34,3.34,0,0,0,0,2.63,2,2,0,0,0,.77.83,2.29,2.29,0,0,0,1.16.28,2.24,2.24,0,0,0,1.44-.46A2,2,0,0,0,86.37,37Z"/><path class="cls-2" d="M94.49,40.81A5.26,5.26,0,0,1,92,40.24a4.22,4.22,0,0,1-1.72-1.6,4.47,4.47,0,0,1-.63-2.4,4.54,4.54,0,0,1,.6-2.35,4.25,4.25,0,0,1,1.65-1.58,4.93,4.93,0,0,1,2.38-.58,4.08,4.08,0,0,1,2.34.67,4.29,4.29,0,0,1,1.51,1.87,7,7,0,0,1,.53,2.83h-7V35.34h5.59l-.91.63a3,3,0,0,0-.3-1.2,2,2,0,0,0-.7-.75,1.94,1.94,0,0,0-1-.26,2.12,2.12,0,0,0-1.12.28,1.91,1.91,0,0,0-.74.8A2.52,2.52,0,0,0,92.21,36a2.93,2.93,0,0,0,.35,1.47,2.29,2.29,0,0,0,1,.92,3.73,3.73,0,0,0,1.61.31,5.83,5.83,0,0,0,1.74-.26,5.64,5.64,0,0,0,1.56-.75v1.83a5.9,5.9,0,0,1-1.8.93A7,7,0,0,1,94.49,40.81Z"/><path class="cls-2" d="M105.32,34.24h3.81a1.65,1.65,0,0,0,1.14-.37,1.49,1.49,0,0,0,0-2.07,1.7,1.7,0,0,0-1.14-.37H105L106.1,30V40.57h-2.56V29.26h5.93a4.24,4.24,0,0,1,2,.45A3.36,3.36,0,0,1,112.8,31a3.92,3.92,0,0,1,0,3.72,3.34,3.34,0,0,1-1.33,1.25,4.25,4.25,0,0,1-2,.46h-4.15Zm1.64,1h2.89l3.75,5.29h-3Z"/><path class="cls-2" d="M122.11,36.27a6.85,6.85,0,0,1-.77,2.4,4.5,4.5,0,0,1-1.44,1.58,3.47,3.47,0,0,1-2,.56,3.56,3.56,0,0,1-2-.57,3.91,3.91,0,0,1-1.35-1.59,6,6,0,0,1,0-4.75,3.91,3.91,0,0,1,1.35-1.59,3.57,3.57,0,0,1,2-.58,3.48,3.48,0,0,1,2,.57,4.53,4.53,0,0,1,1.45,1.58A6.53,6.53,0,0,1,122.11,36.27Zm-5.45,0a2.79,2.79,0,0,0,.25,1.23,2.14,2.14,0,0,0,.72.85,1.78,1.78,0,0,0,1.05.31,2.19,2.19,0,0,0,1.13-.31,3.31,3.31,0,0,0,1-.85,3.73,3.73,0,0,0,.61-1.23,3.78,3.78,0,0,0-.61-1.22,3.31,3.31,0,0,0-1-.85,2.19,2.19,0,0,0-1.13-.31,1.78,1.78,0,0,0-1.05.31,2.14,2.14,0,0,0-.72.85A2.77,2.77,0,0,0,116.66,36.27Zm4.83,4.3-.34-3.12.37-1.18-.37-1.16.34-3.13h2.62l-.48,4.29.48,4.3Z"/><path class="cls-2" d="M125.17,32h2.51l.5,3.34v5.25h-2.52V34.9Zm5.91-.25a3.46,3.46,0,0,1,1.89.5,3.15,3.15,0,0,1,1.2,1.39,5.23,5.23,0,0,1,.41,2.16v4.79h-2.53V36.2a2.45,2.45,0,0,0-.47-1.62,1.69,1.69,0,0,0-1.36-.55,1.87,1.87,0,0,0-1.79,1.12,3.11,3.11,0,0,0-.25,1.28l-.8-.47a6.17,6.17,0,0,1,.67-2.31,3.84,3.84,0,0,1,1.31-1.42A3.14,3.14,0,0,1,131.08,31.73Z"/><path class="cls-2" d="M139.49,39.73a3.81,3.81,0,0,1-1.94-.5,3.51,3.51,0,0,1-1.34-1.39,4.77,4.77,0,0,1,0-4.21,3.48,3.48,0,0,1,1.34-1.4,3.81,3.81,0,0,1,1.94-.5A4,4,0,0,1,141,32a4.52,4.52,0,0,1,1.21.74,5.1,5.1,0,0,1,.89,1,4.79,4.79,0,0,1,.56,1.07,2.85,2.85,0,0,1,.19,1,3.19,3.19,0,0,1-.3,1.25,5,5,0,0,1-.86,1.3,4.72,4.72,0,0,1-1.37,1A4,4,0,0,1,139.49,39.73Zm3.43-1.31V37l.08-.34v-2l-.08-.32V32h2.52v6.3a5.27,5.27,0,0,1-.66,2.72A4.38,4.38,0,0,1,143,42.72a6,6,0,0,1-2.72.58,5.94,5.94,0,0,1-2-.31,6.92,6.92,0,0,1-1.79-.92V39.93a5.49,5.49,0,0,0,1.74,1,6,6,0,0,0,1.86.31,3,3,0,0,0,2.1-.69A2.79,2.79,0,0,0,142.92,38.42Zm-2.58-.64a2.43,2.43,0,0,0,1.5-.49A4,4,0,0,0,143,35.73a4,4,0,0,0-1.16-1.57,2.47,2.47,0,0,0-1.5-.49,2.28,2.28,0,0,0-1.11.25,1.78,1.78,0,0,0-.72.72,2.2,2.2,0,0,0-.25,1.09,2.32,2.32,0,0,0,.24,1.08,1.72,1.72,0,0,0,.72.72A2.29,2.29,0,0,0,140.34,37.78Z"/><path class="cls-2" d="M151.47,40.81a5.3,5.3,0,0,1-2.48-.57,4.19,4.19,0,0,1-1.71-1.6,4.47,4.47,0,0,1-.63-2.4,4.54,4.54,0,0,1,.6-2.35,4.25,4.25,0,0,1,1.65-1.58,4.9,4.9,0,0,1,2.38-.58,4.1,4.1,0,0,1,2.34.67,4.2,4.2,0,0,1,1.5,1.87,6.87,6.87,0,0,1,.53,2.83h-7V35.34h5.6l-.91.63a2.86,2.86,0,0,0-.31-1.2,2,2,0,0,0-.7-.75,1.9,1.9,0,0,0-1-.26,2.18,2.18,0,0,0-1.13.28,2,2,0,0,0-.74.8,2.64,2.64,0,0,0-.26,1.19,2.83,2.83,0,0,0,.35,1.47,2.23,2.23,0,0,0,1,.92,3.73,3.73,0,0,0,1.61.31,5.83,5.83,0,0,0,1.74-.26,5.64,5.64,0,0,0,1.56-.75v1.83a6.14,6.14,0,0,1-1.8.93A7,7,0,0,1,151.47,40.81Z"/><path class="cls-2" d="M165.63,37.81a2.69,2.69,0,0,1-.5,1.64,3.11,3.11,0,0,1-1.49,1,7.22,7.22,0,0,1-2.38.34,7.33,7.33,0,0,1-2.5-.39,3.91,3.91,0,0,1-1.67-1.1,2.6,2.6,0,0,1-.63-1.64H159a1.26,1.26,0,0,0,.39.66,1.88,1.88,0,0,0,.79.43,4,4,0,0,0,1.16.14,3.37,3.37,0,0,0,1.35-.21.68.68,0,0,0,.47-.63.51.51,0,0,0-.34-.48,3.63,3.63,0,0,0-1.18-.24l-1.42-.12a6.61,6.61,0,0,1-2.11-.47,2.48,2.48,0,0,1-1.13-.92,2.41,2.41,0,0,1-.33-1.25,2.36,2.36,0,0,1,.54-1.59,3.23,3.23,0,0,1,1.49-1,7,7,0,0,1,2.22-.32,6.49,6.49,0,0,1,2.28.38,4.08,4.08,0,0,1,1.6,1,2.61,2.61,0,0,1,.68,1.56h-2.56a1.21,1.21,0,0,0-.29-.56,1.8,1.8,0,0,0-.68-.42,3.66,3.66,0,0,0-1.15-.16,3,3,0,0,0-1.22.2.62.62,0,0,0-.42.57.5.5,0,0,0,.26.46,2.42,2.42,0,0,0,1,.24l1.84.15a6.36,6.36,0,0,1,2,.46,2.28,2.28,0,0,1,1,.88A2.5,2.5,0,0,1,165.63,37.81Z"/></g></g></svg>