<svg xmlns="http://www.w3.org/2000/svg" viewBox="0 0 235.07 13.97"><g id="Layer_2" data-name="Layer 2"><g id="Layer_1-2" data-name="Layer 1"><path d="M0,12.32,2.35.25H4.64L2.55,11c0,.26-.12.58,0,.77H3.91A4.67,4.67,0,0,0,8.21,9.4l-.56,2.92Z"/><path d="M14.33,12.32l.31-1.56a5.08,5.08,0,0,1-3.23,1.77c-1.6,0-2.11-1.14-1.82-2.64l.9-4.6c.1-.51-.44-.5-.82-.53l.05-.26L13,4.16l-1.08,5.6c-.16.78,0,1.39.88,1.39a3.08,3.08,0,0,0,1.92-.87l.9-4.59c.17-.88-.15-.85-.9-.93l0-.24,3.44-.34-1.58,8.14Z"/><path d="M24.85,6.92c-.1-1.09,0-2.5-1.49-2.5A1.3,1.3,0,0,0,22,5.56c0,1.63,4.57,1.75,4,4.86-.24,1.19-2.06,2.07-3.86,2.07a3.56,3.56,0,0,1-3.5-1.82L20.25,9.2c.05,1.08.56,2.78,1.93,2.78a1.46,1.46,0,0,0,1.62-1.24c.14-1.8-4.35-1.8-3.82-4.5C20.32,4.44,22.08,4,23.63,4a3,3,0,0,1,3.06,2Z"/><path d="M29.75,12.32H27.46L29.53,1.61c.19-.9-.14-.86-.9-.95l.05-.24L32.13.08,31,5.76A5,5,0,0,1,34.25,4c1.55,0,2.15,1,1.86,2.47L35,12.32h-2.3l1.11-5.67c.15-.79-.09-1.28-.9-1.28A3.27,3.27,0,0,0,31,6.15Z"/><path d="M40.7,12.32,43,.25h2.3L43.25,11c0,.26-.12.58,0,.77h1.33a4.68,4.68,0,0,0,4.3-2.38l-.56,2.92Z"/><path d="M50.29,8.24A5.28,5.28,0,0,1,55.49,4a3.38,3.38,0,0,1,3.57,4.25,5.31,5.31,0,0,1-5.22,4.25A3.35,3.35,0,0,1,50.29,8.24Zm6.49-.54c-.07-1.29-.32-3.14-1.82-3.14a2.28,2.28,0,0,0-.56.06c-1.61.39-2,2.94-1.9,4.13s.61,3.15,2,3.15a1.81,1.81,0,0,0,.38-.05C56.51,11.46,56.85,8.87,56.78,7.7Z"/><path d="M60,8.24A5.29,5.29,0,0,1,65.25,4a3.37,3.37,0,0,1,3.56,4.25,5.3,5.3,0,0,1-5.21,4.25A3.36,3.36,0,0,1,60,8.24Zm6.5-.54c-.07-1.29-.33-3.14-1.82-3.14a2.28,2.28,0,0,0-.56.06c-1.62.39-2,2.94-1.91,4.13s.62,3.15,2,3.15a1.81,1.81,0,0,0,.38-.05C66.27,11.46,66.61,8.87,66.54,7.7Z"/><path d="M69.6,12.32,71.65,1.78c.17-.9-.15-.86-.91-.95l.05-.24L74.24.25,72.69,8.19c3.38-3.38,3.06-3.5,2.52-4H80l-7,4c.81,0,1.65-.17,2.41-.17,1.74,0,3.1.64,2.87,4.36H75.41c.7-2.77-.58-3.36-2.74-4l-.78,4.06Z"/><path d="M85.7,6.92c-.11-1.09,0-2.5-1.5-2.5a1.3,1.3,0,0,0-1.36,1.14c0,1.63,4.57,1.75,4,4.86-.24,1.19-2.06,2.07-3.86,2.07a3.57,3.57,0,0,1-3.5-1.82L81.09,9.2c0,1.08.56,2.78,1.94,2.78a1.46,1.46,0,0,0,1.61-1.24c.14-1.8-4.35-1.8-3.82-4.5C81.16,4.44,82.92,4,84.47,4a3,3,0,0,1,3.06,2Z"/><path d="M88.26,13.8c.46-.32,1.4-1.36.63-1.36s-1-.41-1-.83a1.15,1.15,0,0,1,0-.26,1.53,1.53,0,0,1,1.46-1.22,1,1,0,0,1,1,1.06,1.7,1.7,0,0,1-.05.42A3.5,3.5,0,0,1,88.47,14Z"/><path d="M94.37,12.07,103.6.8h-1.48c-2.94,0-4.68.87-5.75,2l.5-2.52h9.67l-.05.26L97.32,11.76h1.55c2.62,0,4.81-.54,5.76-1.83l-.46,2.39H94.32Z"/><path d="M108.78,10.17a2.68,2.68,0,0,0,1.92.83,3,3,0,0,0,2.65-1.67l.12.1a4.5,4.5,0,0,1-4.14,3,3.42,3.42,0,0,1-3.62-3.06A4.75,4.75,0,0,1,110,4l.36,0c2.39,0,3.17,1.5,3.09,3.38Zm2.3-2.91c.49-1.34,0-2.72-1.14-2.72h-.09c-1.09.07-2.28.83-2.09,3.38a3.49,3.49,0,0,0,.77,2A5.37,5.37,0,0,0,111.08,7.26Z"/><path d="M114.22,12.32l1.34-6.9c.17-.9-.13-.86-.9-1l0-.24,3.44-.34-.36,1.87a5.31,5.31,0,0,1,3.35-1.87,1.68,1.68,0,0,1,.92.27l-1,2.67c-.38-.91-.92-1.39-1.6-1.39a2.75,2.75,0,0,0-1.75.85l-1.17,6Z"/><path d="M121.77,8.24A5.29,5.29,0,0,1,127,4a3.37,3.37,0,0,1,3.57,4.25,5.31,5.31,0,0,1-5.22,4.25A3.35,3.35,0,0,1,121.77,8.24Zm6.49-.54c-.07-1.29-.32-3.14-1.82-3.14a2.33,2.33,0,0,0-.56.06c-1.61.39-2,2.94-1.9,4.13s.61,3.15,2,3.15a1.64,1.64,0,0,0,.37-.05C128,11.46,128.33,8.87,128.26,7.7Z"/><path d="M140.16,12.48,137.29,2l-.71,3.67a11.7,11.7,0,0,0,.52,6.61h-2.38L137.07.25h2.23l2.49,9.23,5.7-9.23h2L147.3,12.32H145l2-10.08-6.26,10.24Z"/><path d="M150.87,6a5.11,5.11,0,0,1,4.22-2c1.73,0,3.18.68,2.84,2.5l-1.14,5.83h-2.28l.19-1a5.53,5.53,0,0,1-2.91,1.13c-1.31,0-2.33-.68-2-2.28.46-2.35,4.11-2.94,5.74-3.06l.12-.58c.21-1,.39-2-.58-2.06s-2.07.82-2.55,2.42Zm4.58,1.5c-1,.08-3,.48-3.35,2.52-.14.88.34,1.46,1.05,1.46a3.24,3.24,0,0,0,1.63-.53Z"/><path d="M159.31,12.32l1.25-6.51c.21-1-.15-1-.86-1.08l.05-.24,3.43-.27-1.58,8.1Zm1.52-10.54a2.08,2.08,0,0,1,0-.3A1.85,1.85,0,0,1,162.64,0a1.12,1.12,0,0,1,1.22,1.16c0,.1,0,.2,0,.32A1.83,1.83,0,0,1,162.06,3,1.16,1.16,0,0,1,160.83,1.78Z"/><path d="M166.51,12.32h-2.29l1.34-6.9c.17-.9-.14-.86-.9-1l.05-.24,3.43-.34-.35,1.87A5.35,5.35,0,0,1,171.2,4c1.65,0,2.3,1,2,2.47l-1.14,5.86h-2.29l1.1-5.67c.15-.79-.12-1.28-1-1.28a3.86,3.86,0,0,0-2.12.78Z"/><path d="M179.06,11.19a3.59,3.59,0,0,1-2.48,1.27l-.22,0c-1-.1-1.79-1-1.47-2.63l.85-4.4q.21-1-.81-1h-.24l0-.17,3.86-2.44h.17l-.46,2.38h2l-.1.46h-2l-1,5.21c-.19.93-.1,1.69.51,1.73a2.35,2.35,0,0,0,1.29-.51Z"/><path d="M183.12,10.17A2.68,2.68,0,0,0,185,11a3,3,0,0,0,2.65-1.67l.12.1a4.5,4.5,0,0,1-4.14,3A3.44,3.44,0,0,1,180,9.38,4.77,4.77,0,0,1,184.33,4l.36,0c2.39,0,3.17,1.5,3.09,3.38Zm2.3-2.91c.49-1.34,0-2.72-1.14-2.72h-.09c-1.09.07-2.28.83-2.09,3.38a3.49,3.49,0,0,0,.77,2A5.37,5.37,0,0,0,185.42,7.26Z"/><path d="M190.86,12.32h-2.3l1.34-6.9c.17-.9-.13-.86-.9-1l.05-.24,3.44-.34-.36,1.87A5.35,5.35,0,0,1,195.55,4c1.65,0,2.29,1,2,2.47l-1.14,5.86h-2.29l1.1-5.67c.16-.79-.11-1.28-1-1.28a3.86,3.86,0,0,0-2.13.78Z"/><path d="M199.87,6a5.09,5.09,0,0,1,4.21-2c1.74,0,3.18.68,2.84,2.5l-1.14,5.83H203.5l.19-1a5.53,5.53,0,0,1-2.91,1.13c-1.3,0-2.32-.68-2-2.28.46-2.35,4.12-2.94,5.75-3.06l.12-.58c.2-1,.39-2-.58-2.06s-2.08.82-2.55,2.42Zm4.57,1.5c-1,.08-3,.48-3.35,2.52-.14.88.34,1.46,1,1.46a3.24,3.24,0,0,0,1.64-.53Z"/><path d="M210.59,12.32H208.3l1.34-6.9c.17-.9-.14-.86-.9-1l0-.24,3.43-.34-.35,1.87A5.35,5.35,0,0,1,215.28,4c1.65,0,2.3,1,2,2.47l-1.14,5.86h-2.29L215,6.65c.15-.79-.12-1.28-1-1.28a3.86,3.86,0,0,0-2.12.78Z"/><path d="M224.48,7.75c.44-1.68.38-3.25-.71-3.25-1.6,0-2.57,1.65-2.82,3-.34,1.73.57,3.79,2.65,3.79a3.31,3.31,0,0,0,2.46-.88l.12.1a5.47,5.47,0,0,1-4.06,2,3.35,3.35,0,0,1-3.52-4A5.36,5.36,0,0,1,223.87,4c2,0,2.94.87,3.13,2.11Z"/><path d="M230.38,10.17a2.68,2.68,0,0,0,1.92.83A3,3,0,0,0,235,9.33l.12.1a4.5,4.5,0,0,1-4.15,3,3.43,3.43,0,0,1-3.62-3.06A4.76,4.76,0,0,1,231.59,4l.35,0c2.4,0,3.18,1.5,3.1,3.38Zm2.29-2.91c.5-1.34,0-2.72-1.13-2.72h-.09c-1.09.07-2.28.83-2.09,3.38a3.49,3.49,0,0,0,.77,2A5.29,5.29,0,0,0,232.67,7.26Z"/></g></g></svg>