<svg xmlns="http://www.w3.org/2000/svg" viewBox="0 0 128.22 135.86"><defs><style>.cls-1{fill:#fff;}</style></defs><g id="Layer_2" data-name="Layer 2"><g id="Layer_1-2" data-name="Layer 1"><path class="cls-1" d="M1.3,0H11.86V2.32H4.16v3.6h7.28V8.24H4.16v3.94h7.7V14.5H1.3Z"/><path class="cls-1" d="M23.68,3.74v9.68c0,3.52-2,4.84-5.28,4.84-2.3,0-4.32-.84-4.7-3.34h2.62q.36,1.32,2.22,1.32a2.11,2.11,0,0,0,2.4-2.3V12.5a3.48,3.48,0,0,1-3.08,1.62c-2.64,0-4.68-2.18-4.68-5.32s2-5.3,4.68-5.3a3.48,3.48,0,0,1,3.08,1.64V3.74ZM21,8.8c0-1.9-.94-3.2-2.48-3.2S16.08,7,16.08,8.82,17.14,12,18.56,12,21,10.72,21,8.8Z"/><path class="cls-1" d="M29.62,14.76c-2.06,0-3.88-1.2-3.88-3.16,0-2.54,2.84-3.3,7.08-3.78V7.64c0-1.66-.9-2.24-2-2.24a1.79,1.79,0,0,0-2,1.74H26.22c.22-2.12,1.94-3.68,4.72-3.68,2.54,0,4.64,1.12,4.64,4.74,0,.32,0,1.78,0,2.74a14.32,14.32,0,0,0,.32,3.56H33.32a13,13,0,0,1-.18-1.34A3.89,3.89,0,0,1,29.62,14.76ZM32.9,9.58c-3.1.32-4.32.68-4.32,1.88,0,.78.6,1.42,1.86,1.42a2.19,2.19,0,0,0,2.46-2.5Z"/><path class="cls-1" d="M40.64,14.5H37.88V0h2.76Z"/><path class="cls-1" d="M42.9,11.5H46v3.22L44.36,17.9H42.78l1.48-3.4H42.9Z"/><path class="cls-1" d="M57.4,3.74h2.94L62,11.16l1.44-7.42h2.74L63.68,14.5H60.84l-2-8.16-2,8.16H54.06L51.54,3.74h2.74l1.44,7.44Z"/><path class="cls-1" d="M70.7,14.76c-2.06,0-3.88-1.2-3.88-3.16,0-2.54,2.84-3.3,7.08-3.78V7.64c0-1.66-.9-2.24-2-2.24a1.79,1.79,0,0,0-2,1.74H67.3C67.52,5,69.24,3.46,72,3.46c2.54,0,4.64,1.12,4.64,4.74,0,.32,0,1.78,0,2.74a14.32,14.32,0,0,0,.32,3.56H74.4a13,13,0,0,1-.18-1.34A3.89,3.89,0,0,1,70.7,14.76ZM74,9.58c-3.1.32-4.32.68-4.32,1.88,0,.78.6,1.42,1.86,1.42A2.19,2.19,0,0,0,74,10.38Z"/><path class="cls-1" d="M85,7a2.14,2.14,0,0,0-2.3-1.54c-1,0-1.74.38-1.74,1s.42,1,1.44,1.24L83.86,8c2.14.48,4,1,4,3.24s-2.22,3.48-4.66,3.48c-2.64,0-4.64-1.36-4.9-3.82h2.66a2.09,2.09,0,0,0,2.32,1.82c1.2,0,1.94-.44,1.94-1.22s-.82-1.1-1.76-1.32l-1.6-.34c-2-.42-3.36-1.26-3.36-3.22s2.08-3.2,4.4-3.2S87.22,4.5,87.6,7Z"/><path class="cls-1" d="M4,23v8.06l3.92-4.32H11L7.16,30.86l4.08,6.64H8.14L5.32,32.84,4,34.26V37.5H1.24V23Z"/><path class="cls-1" d="M11.42,32.14a5.28,5.28,0,0,1,5.4-5.64,5.28,5.28,0,0,1,5.4,5.64,5.27,5.27,0,0,1-5.4,5.62A5.27,5.27,0,0,1,11.42,32.14Zm2.8,0c0,2.26,1.08,3.46,2.6,3.46s2.6-1.2,2.6-3.46-1.08-3.48-2.6-3.48S14.22,29.88,14.22,32.14Z"/><path class="cls-1" d="M37.22,31.24c0-1.18-.1-2.52-1.72-2.52-1.84,0-2.14,1.54-2.14,3.18v5.6H30.6V31.24c0-1.18-.1-2.52-1.72-2.52-1.84,0-2.14,1.54-2.14,3.18v5.6H24V26.74h2.76v1.42a3.35,3.35,0,0,1,3-1.66,3.2,3.2,0,0,1,3.06,1.76,4,4,0,0,1,3.54-1.76C39,26.5,40,28.18,40,30.72V37.5H37.22Z"/><path class="cls-1" d="M55.54,31.24c0-1.18-.1-2.52-1.72-2.52-1.84,0-2.14,1.54-2.14,3.18v5.6H48.92V31.24c0-1.18-.1-2.52-1.72-2.52-1.84,0-2.14,1.54-2.14,3.18v5.6H42.3V26.74h2.76v1.42a3.35,3.35,0,0,1,3-1.66,3.2,3.2,0,0,1,3.06,1.76,4,4,0,0,1,3.54-1.76c2.7,0,3.64,1.68,3.64,4.22V37.5H55.54Z"/><path class="cls-1" d="M61,23.82h2.76v2.92H66v1.9H63.76V34.2c0,1.1.38,1.32,1.36,1.32H66v2h-2c-2.48,0-2.94-.76-2.94-2.9v-6H59.48v-1.9H61Z"/><path class="cls-1" d="M71.9,33.36V31h6.62v2.4Z"/><path class="cls-1" d="M8.32,60.5V59.14a3.47,3.47,0,0,1-3.1,1.62c-2.56,0-4.68-2.2-4.68-5.64S2.62,49.5,5.22,49.5a3.45,3.45,0,0,1,3.1,1.62V46h2.76V60.5Zm.1-5.38c0-2.16-1-3.5-2.52-3.5S3.44,53,3.44,55.14s1,3.5,2.46,3.5S8.42,57.34,8.42,55.12Z"/><path class="cls-1" d="M15.6,55.88a2.73,2.73,0,0,0,2.72,2.74,2.46,2.46,0,0,0,2.26-1.24h2.84a5.13,5.13,0,0,1-5.08,3.38,5.34,5.34,0,0,1-5.48-5.68,5.3,5.3,0,0,1,5.4-5.58c3.32,0,5.38,2.58,5.28,6.38Zm0-1.9h5.1a2.36,2.36,0,0,0-2.5-2.46A2.59,2.59,0,0,0,15.64,54Z"/><path class="cls-1" d="M28.08,46v2.56H25.32V46Zm0,3.74V60.5H25.32V49.74Z"/><path class="cls-1" d="M33.32,51.16a3.42,3.42,0,0,1,3.12-1.66c2.58,0,3.72,1.56,3.72,4.22V60.5H37.4V54.32c0-1.38-.3-2.6-1.86-2.6-1.82,0-2.22,1.48-2.22,3.18v5.6H30.56V49.74h2.76Z"/><path class="cls-1" d="M51.16,46H54l5.42,14.5h-3.1l-1-2.94H49.7l-1,2.94H45.76Zm-.64,9.22h4l-2-5.72Z"/><path class="cls-1" d="M60.7,60.5V46h2.76v5.12a3.45,3.45,0,0,1,3.1-1.62c2.6,0,4.68,2.24,4.68,5.62s-2.12,5.64-4.68,5.64a3.47,3.47,0,0,1-3.1-1.62V60.5Zm7.64-5.36c0-2.1-1-3.52-2.46-3.52s-2.52,1.34-2.52,3.5,1,3.52,2.52,3.52S68.34,57.24,68.34,55.14Z"/><path class="cls-1" d="M72.46,55.14a5.41,5.41,0,1,1,10.8,0,5.4,5.4,0,1,1-10.8,0Zm2.8,0c0,2.26,1.08,3.46,2.6,3.46s2.6-1.2,2.6-3.46-1.08-3.48-2.6-3.48S75.26,52.88,75.26,55.14Z"/><path class="cls-1" d="M1.24,87V72.74H4v1.38A3.45,3.45,0,0,1,7.1,72.5c2.6,0,4.68,2.24,4.68,5.62s-2.14,5.64-4.7,5.64A3.44,3.44,0,0,1,4,82.14V87Zm7.64-8.86c0-2.1-1-3.52-2.46-3.52S3.9,76,3.9,78.12s1,3.52,2.52,3.52S8.88,80.24,8.88,78.14Z"/><path class="cls-1" d="M16.9,83.76c-2.06,0-3.88-1.2-3.88-3.16,0-2.54,2.84-3.3,7.08-3.78v-.18c0-1.66-.9-2.24-2-2.24a1.79,1.79,0,0,0-2,1.74H13.5c.22-2.12,1.94-3.68,4.72-3.68,2.54,0,4.64,1.12,4.64,4.74,0,.32,0,1.78,0,2.74a14.32,14.32,0,0,0,.32,3.56H20.6a13,13,0,0,1-.18-1.34A3.89,3.89,0,0,1,16.9,83.76Zm3.28-5.18c-3.1.32-4.32.68-4.32,1.88,0,.78.6,1.42,1.86,1.42a2.19,2.19,0,0,0,2.46-2.5Z"/><path class="cls-1" d="M31.22,76a2.14,2.14,0,0,0-2.3-1.54c-1,0-1.74.38-1.74,1s.42,1,1.44,1.24l1.44.32c2.14.48,4,1,4,3.24s-2.22,3.48-4.66,3.48c-2.64,0-4.64-1.36-4.9-3.82h2.66a2.09,2.09,0,0,0,2.32,1.82c1.2,0,1.94-.44,1.94-1.22s-.82-1.1-1.76-1.32L28,78.88c-2-.42-3.36-1.26-3.36-3.22s2.08-3.2,4.4-3.2,4.36,1,4.74,3.52Z"/><path class="cls-1" d="M41.8,76a2.14,2.14,0,0,0-2.3-1.54c-1,0-1.74.38-1.74,1s.42,1,1.44,1.24l1.44.32c2.14.48,4,1,4,3.24s-2.22,3.48-4.66,3.48c-2.64,0-4.64-1.36-4.9-3.82H37.7A2.09,2.09,0,0,0,40,81.76c1.2,0,1.94-.44,1.94-1.22s-.82-1.1-1.76-1.32l-1.6-.34c-2-.42-3.36-1.26-3.36-3.22s2.08-3.2,4.4-3.2S44,73.5,44.38,76Z"/><path class="cls-1" d="M46.84,69.82H49.6v2.92h2.24v1.9H49.6V80.2c0,1.1.38,1.32,1.36,1.32h.84v2h-2c-2.48,0-2.94-.76-2.94-2.9v-6H45.32v-1.9h1.52Z"/><path class="cls-1" d="M64.18,76a2.14,2.14,0,0,0-2.3-1.54c-1,0-1.74.38-1.74,1s.42,1,1.44,1.24L63,77c2.14.48,4,1,4,3.24s-2.22,3.48-4.66,3.48c-2.64,0-4.64-1.36-4.9-3.82h2.66a2.09,2.09,0,0,0,2.32,1.82c1.2,0,1.94-.44,1.94-1.22s-.82-1.1-1.76-1.32L61,78.88c-2-.42-3.36-1.26-3.36-3.22s2.08-3.2,4.4-3.2,4.36,1,4.74,3.52Z"/><path class="cls-1" d="M71.46,69v2.56H68.7V69Zm0,3.74V83.5H68.7V72.74Z"/><path class="cls-1" d="M83.52,76.42H80.88a2.29,2.29,0,0,0-2.24-1.78c-1.44,0-2.58,1.22-2.58,3.46s1.08,3.52,2.6,3.52A2.33,2.33,0,0,0,81,79.84h2.64a4.78,4.78,0,0,1-5.1,3.92c-3.22,0-5.28-2.36-5.28-5.62a5.28,5.28,0,0,1,5.4-5.64A4.63,4.63,0,0,1,83.52,76.42Z"/><path class="cls-1" d="M88,74.16a3.42,3.42,0,0,1,3.12-1.66c2.58,0,3.72,1.56,3.72,4.22V83.5H92.1V77.32c0-1.38-.3-2.6-1.86-2.6C88.42,74.72,88,76.2,88,77.9v5.6H85.26V69H88Z"/><path class="cls-1" d="M105.14,83.76c-2.06,0-3.88-1.2-3.88-3.16,0-2.54,2.84-3.3,7.08-3.78v-.18c0-1.66-.9-2.24-2-2.24a1.79,1.79,0,0,0-2,1.74h-2.58c.22-2.12,1.94-3.68,4.72-3.68,2.54,0,4.64,1.12,4.64,4.74,0,.32,0,1.78,0,2.74a14.32,14.32,0,0,0,.32,3.56h-2.54a13,13,0,0,1-.18-1.34A3.89,3.89,0,0,1,105.14,83.76Zm3.28-5.18c-3.1.32-4.32.68-4.32,1.88,0,.78.6,1.42,1.86,1.42a2.19,2.19,0,0,0,2.46-2.5Z"/><path class="cls-1" d="M116.16,74.16a3.42,3.42,0,0,1,3.12-1.66c2.58,0,3.72,1.56,3.72,4.22V83.5h-2.76V77.32c0-1.38-.3-2.6-1.86-2.6-1.82,0-2.22,1.48-2.22,3.18v5.6H113.4V72.74h2.76Z"/><path class="cls-1" d="M125.26,83.5v-3h3v3Z"/><path class="cls-1" d="M3.29,112.67H0L5,98.13H9l5,14.54H10.7L7.06,101.45H7ZM3.09,107h7.78v2.4H3.09Z"/><path class="cls-1" d="M22.68,108v-6.27h3v10.91H22.8v-2h-.11a3.2,3.2,0,0,1-1.22,1.54,3.62,3.62,0,0,1-2.09.58,3.66,3.66,0,0,1-1.92-.49,3.32,3.32,0,0,1-1.3-1.42,4.78,4.78,0,0,1-.47-2.19v-6.95h3v6.41a2.26,2.26,0,0,0,.52,1.53,1.78,1.78,0,0,0,1.37.56,2.27,2.27,0,0,0,1-.25,2,2,0,0,0,.77-.75A2.33,2.33,0,0,0,22.68,108Z"/><path class="cls-1" d="M33.93,101.76V104H27.36v-2.28Zm-5.08-2.61h3v10.17A1.41,1.41,0,0,0,32,110a.74.74,0,0,0,.36.32,1.27,1.27,0,0,0,.54.1,3,3,0,0,0,.42,0l.33-.06.48,2.25-.64.17a5.44,5.44,0,0,1-1,.11,4.62,4.62,0,0,1-1.92-.29,2.62,2.62,0,0,1-1.27-1,3,3,0,0,1-.45-1.77Z"/><path class="cls-1" d="M40.71,112.89a5.57,5.57,0,0,1-2.86-.71,4.84,4.84,0,0,1-1.86-2,7,7,0,0,1,0-5.91,4.84,4.84,0,0,1,1.86-2,6.12,6.12,0,0,1,5.72,0,4.75,4.75,0,0,1,1.85,2,6.95,6.95,0,0,1,0,5.91,4.75,4.75,0,0,1-1.85,2A5.57,5.57,0,0,1,40.71,112.89Zm0-2.35a1.85,1.85,0,0,0,1.26-.43,2.52,2.52,0,0,0,.76-1.17,5.69,5.69,0,0,0,0-3.4,2.66,2.66,0,0,0-.76-1.18,1.85,1.85,0,0,0-1.26-.43,1.9,1.9,0,0,0-1.27.43,2.78,2.78,0,0,0-.78,1.18,5.91,5.91,0,0,0,0,3.4,2.62,2.62,0,0,0,.78,1.17A1.9,1.9,0,0,0,40.72,110.54Z"/><path class="cls-1" d="M50.65,108.31v-.24a7.35,7.35,0,0,1,.23-2,2.87,2.87,0,0,1,.63-1.19,4.92,4.92,0,0,1,1-.83,6.25,6.25,0,0,0,.79-.59,2.46,2.46,0,0,0,.55-.67,1.69,1.69,0,0,0,.21-.84,1.58,1.58,0,0,0-.86-1.43,2,2,0,0,0-.87-.2,1.93,1.93,0,0,0-.88.21,1.65,1.65,0,0,0-.67.59,1.89,1.89,0,0,0-.29,1H47.61a4.18,4.18,0,0,1,.68-2.35A3.87,3.87,0,0,1,50,98.39a5.8,5.8,0,0,1,2.35-.46,6.3,6.3,0,0,1,2.5.46,3.89,3.89,0,0,1,1.7,1.35,3.54,3.54,0,0,1,.62,2.12,3.79,3.79,0,0,1-.27,1.48,3.51,3.51,0,0,1-.76,1.13,5.84,5.84,0,0,1-1.16.89,4.8,4.8,0,0,0-.92.7,2.18,2.18,0,0,0-.53.84,3.58,3.58,0,0,0-.19,1.17v.24Zm1.41,4.55a1.66,1.66,0,0,1-1.21-.5,1.64,1.64,0,0,1-.5-1.21,1.59,1.59,0,0,1,.5-1.19,1.66,1.66,0,0,1,1.21-.5,1.68,1.68,0,0,1,1.19.5,1.65,1.65,0,0,1,.27,2.05,1.93,1.93,0,0,1-.62.62A1.66,1.66,0,0,1,52.06,112.86Z"/><path class="cls-1" d="M66.5,112.67H63.21l5-14.54h4l5,14.54h-3.3l-3.64-11.22h-.11ZM66.3,107h7.78v2.4H66.3Z"/><path class="cls-1" d="M79,112.67V98.13h3v5.47h.09a4.14,4.14,0,0,1,.58-.9,3.14,3.14,0,0,1,1-.77,3.47,3.47,0,0,1,1.53-.31,4.16,4.16,0,0,1,2.2.62A4.38,4.38,0,0,1,89,104.11a8.44,8.44,0,0,1,0,6.2,4.36,4.36,0,0,1-1.59,1.9,4.07,4.07,0,0,1-2.25.64,3.55,3.55,0,0,1-1.5-.29,2.93,2.93,0,0,1-1-.74,3.67,3.67,0,0,1-.6-.89h-.13v1.74Zm3-5.45a4.89,4.89,0,0,0,.27,1.7A2.51,2.51,0,0,0,83,110a1.92,1.92,0,0,0,1.24.4,1.9,1.9,0,0,0,1.25-.41,2.55,2.55,0,0,0,.78-1.13,4.86,4.86,0,0,0,.26-1.68,4.67,4.67,0,0,0-.26-1.66,2.37,2.37,0,0,0-.77-1.12,1.91,1.91,0,0,0-1.26-.41,2,2,0,0,0-1.25.39,2.49,2.49,0,0,0-.77,1.11A4.79,4.79,0,0,0,81.92,107.22Z"/><path class="cls-1" d="M96.53,112.89a5.59,5.59,0,0,1-2.86-.71,4.75,4.75,0,0,1-1.85-2,6.95,6.95,0,0,1,0-5.91,4.75,4.75,0,0,1,1.85-2,6.12,6.12,0,0,1,5.72,0,4.84,4.84,0,0,1,1.86,2,7,7,0,0,1,0,5.91,4.84,4.84,0,0,1-1.86,2A5.54,5.54,0,0,1,96.53,112.89Zm0-2.35a1.83,1.83,0,0,0,1.25-.43,2.61,2.61,0,0,0,.77-1.17,5.69,5.69,0,0,0,0-3.4,2.76,2.76,0,0,0-.77-1.18,1.83,1.83,0,0,0-1.25-.43,1.92,1.92,0,0,0-1.28.43,2.67,2.67,0,0,0-.77,1.18,5.69,5.69,0,0,0,0,3.4,2.53,2.53,0,0,0,.77,1.17A1.92,1.92,0,0,0,96.55,110.54Z"/><path class="cls-1" d="M105.92,112.86a1.66,1.66,0,0,1-1.21-.5,1.64,1.64,0,0,1-.5-1.21,1.59,1.59,0,0,1,.5-1.19,1.72,1.72,0,0,1,2.91,1.19,1.69,1.69,0,0,1-.25.86,1.75,1.75,0,0,1-.62.62A1.6,1.6,0,0,1,105.92,112.86Zm1.57-14.73-.28,10.18h-2.59l-.29-10.18Z"/><path class="cls-1" d="M.79,135.67V121.13h9.63v2.53H3.86v3.47H9.78v2.53H3.86v6Z"/><path class="cls-1" d="M15.56,121.13v14.54H12.49V121.13Z"/><path class="cls-1" d="M30.26,121.13v14.54H27.61l-6.33-9.15h-.11v9.15H18.1V121.13h2.69l6.28,9.15h.13v-9.15Z"/><path class="cls-1" d="M45,121.13v14.54H42.31L36,126.52h-.11v9.15H32.8V121.13h2.7l6.28,9.15h.12v-9.15Z"/><path class="cls-1" d="M49.21,135.86a1.71,1.71,0,0,1-1.7-1.71A1.59,1.59,0,0,1,48,133a1.68,1.68,0,0,1,2.39,0,1.61,1.61,0,0,1,.52,1.19,1.59,1.59,0,0,1-.24.86,1.93,1.93,0,0,1-.62.62A1.67,1.67,0,0,1,49.21,135.86Z"/></g></g></svg>