<?xml version="1.0" encoding="UTF-8"?>
<svg id="Layer_2" data-name="Layer 2" xmlns="http://www.w3.org/2000/svg" viewBox="0 0 41.87 13.36">
  <defs>
    <style>
      .cls-1 {
        fill: #576a46;
      }

      .cls-1, .cls-2 {
        stroke-width: 0px;
      }

      .cls-2 {
        fill: #fff;
      }
    </style>
  </defs>
  <g id="Layer_1-2" data-name="Layer 1">
    <g>
      <rect class="cls-2" x="0" y="0" width="41.87" height="13.36" rx="6.68" ry="6.68"/>
      <g>
        <path class="cls-1" d="M7.48,7.22c-.16.02-.26.04-.31.07s-.08.06-.1.11-.03.09-.03.14v.48c0,.15,0,.25,0,.31-.18.09-.4.18-.67.25-.27.07-.51.1-.75.1-.33,0-.62-.07-.88-.22-.26-.15-.47-.36-.62-.62-.15-.27-.22-.57-.22-.92s.08-.66.23-.94.37-.49.64-.65.59-.23.93-.23.64.08.92.23l.12-.15h.2l.02,1.22h-.2c-.11-.38-.25-.65-.42-.82s-.38-.26-.63-.26c-.32,0-.58.14-.76.41-.18.27-.28.65-.28,1.13s.09.87.29,1.16c.19.29.45.43.78.43.25,0,.46-.07.63-.21,0-.08,0-.21,0-.39v-.29c0-.11-.03-.19-.1-.24-.07-.05-.18-.08-.35-.1h-.09v-.19h1.63v.18Z"/>
        <path class="cls-1" d="M10.22,7.38c0,.25-.05.47-.16.67-.11.2-.26.35-.45.46-.2.11-.42.16-.68.16-.24,0-.45-.05-.64-.16s-.34-.25-.45-.45c-.11-.19-.16-.41-.16-.66,0-.38.12-.68.35-.91.23-.23.54-.35.93-.35.25,0,.47.05.67.15s.34.25.45.44c.1.19.16.41.16.65ZM9.54,7.38c0-.35-.05-.61-.15-.79-.1-.17-.25-.26-.44-.26s-.34.09-.44.26c-.1.18-.15.43-.15.78,0,.36.05.63.15.82.1.19.25.28.44.28s.33-.09.44-.28c.1-.19.15-.46.15-.81Z"/>
        <path class="cls-1" d="M15.28,6.88c0,.34-.07.65-.22.93-.15.28-.36.49-.62.64-.27.15-.57.23-.91.23s-.62-.08-.89-.23c-.27-.15-.47-.36-.62-.64-.15-.27-.22-.58-.22-.91s.08-.66.22-.94.36-.49.63-.65c.27-.15.57-.23.89-.23s.62.08.89.23c.27.15.48.36.63.63.15.27.23.58.23.92ZM14.51,6.88c0-.49-.08-.87-.25-1.15s-.41-.41-.71-.41-.55.14-.72.41-.25.66-.25,1.16.08.88.26,1.15c.17.27.41.41.72.41s.55-.14.72-.41c.17-.27.25-.66.25-1.16Z"/>
        <path class="cls-1" d="M19.19,5.22c0,.1-.03.17-.08.23s-.13.08-.23.08c-.06,0-.11-.01-.16-.03-.04-.02-.08-.05-.12-.1-.04-.04-.07-.09-.1-.14-.03-.06-.06-.12-.09-.18-.1.03-.17.12-.21.27s-.06.37-.06.66v.22h.64v.24h-.63v1.68c0,.08.02.13.07.17.05.04.12.07.23.08l.17.02v.17h-1.44v-.17c.14,0,.23-.03.28-.07.05-.04.07-.1.07-.18v-1.7h-.93v1.68c0,.06,0,.11.03.15s.05.06.08.08.12.03.25.05v.17h-1.34v-.17c.14,0,.23-.03.28-.07.05-.04.07-.1.07-.18v-1.7h-.48v-.24h.48v-.04c0-.24.05-.46.14-.65.09-.19.22-.34.4-.44.17-.1.37-.16.6-.16.17,0,.3.03.39.09.09.06.14.14.14.24,0,.09-.03.17-.08.22-.05.05-.13.08-.23.08-.08,0-.15-.02-.2-.06-.06-.04-.11-.11-.16-.2l-.1-.17c-.1.03-.17.11-.21.26-.04.14-.06.35-.06.63v.21h.94v-.05c0-.39.1-.71.31-.95.21-.24.48-.36.82-.36.17,0,.3.03.39.09s.14.15.14.25Z"/>
        <path class="cls-1" d="M18.99,7.51v-.46h1.44v.46h-1.44Z"/>
        <path class="cls-1" d="M24.38,7.22c-.16.02-.26.04-.31.07s-.08.06-.1.11-.03.09-.03.14v.48c0,.15,0,.25,0,.31-.18.09-.4.18-.67.25-.27.07-.51.1-.75.1-.33,0-.62-.07-.88-.22-.26-.15-.47-.36-.62-.62-.15-.27-.22-.57-.22-.92s.08-.66.23-.94.37-.49.64-.65.59-.23.93-.23.64.08.92.23l.12-.15h.2l.02,1.22h-.2c-.11-.38-.25-.65-.42-.82s-.38-.26-.63-.26c-.32,0-.58.14-.76.41-.18.27-.28.65-.28,1.13s.09.87.29,1.16c.19.29.45.43.78.43.25,0,.46-.07.63-.21,0-.08,0-.21,0-.39v-.29c0-.11-.03-.19-.1-.24-.07-.05-.18-.08-.35-.1h-.09v-.19h1.63v.18Z"/>
        <path class="cls-1" d="M26.66,6.59c0,.11-.03.2-.09.27-.06.08-.14.11-.24.11-.1,0-.19-.03-.25-.08-.06-.05-.09-.12-.09-.21,0-.07,0-.13.03-.2-.08,0-.17.03-.26.08-.09.05-.17.13-.23.22v1.35c0,.09.02.15.07.19.05.04.18.07.38.09v.17h-1.43v-.17c.13,0,.21-.02.25-.04.04-.02.07-.04.08-.08s.03-.08.03-.13v-1.43c0-.05-.01-.1-.04-.15-.03-.05-.06-.09-.1-.12-.06-.03-.14-.05-.25-.06v-.17l.97-.05.03.03v.34h0c.22-.27.45-.4.7-.4.13,0,.23.04.3.12.08.08.11.18.11.31Z"/>
        <path class="cls-1" d="M26.85,8.59v-.17c.13,0,.22-.02.25-.04.03-.02.06-.05.08-.08s.03-.08.03-.13v-1.43c0-.09-.03-.16-.1-.22s-.18-.1-.33-.11v-.17l1.01-.05.03.03v1.92c0,.08.03.14.08.19.05.05.15.08.28.09v.17h-1.33ZM27.86,5.29c0,.11-.04.2-.12.28-.08.08-.17.11-.28.11s-.2-.04-.27-.11c-.07-.07-.11-.16-.11-.27s.04-.2.11-.27c.07-.08.17-.12.27-.12s.2.04.28.11c.08.07.12.16.12.27Z"/>
        <path class="cls-1" d="M30.29,8.61l-.04-.03v-.22h-.02c-.1.1-.21.17-.33.23-.12.06-.25.08-.37.08-.2,0-.38-.05-.54-.16-.16-.11-.29-.26-.38-.45-.09-.2-.14-.42-.14-.66,0-.23.05-.44.15-.63.1-.19.24-.34.42-.45.18-.11.38-.17.58-.17.24,0,.45.05.62.15v-.81c0-.08-.02-.15-.05-.21-.03-.06-.09-.1-.16-.13s-.19-.05-.34-.06v-.16l1.14-.06.03.04v3.17s0,.09.02.12.03.07.06.09c.03.02.06.04.09.05.03,0,.12.02.25.03v.17l-1,.06ZM30.24,6.75c-.04-.13-.11-.23-.19-.29-.09-.07-.19-.1-.31-.1-.18,0-.33.1-.44.29-.11.19-.17.45-.17.78,0,.28.06.51.17.68s.27.25.46.25c.09,0,.18-.02.25-.05.07-.03.15-.1.23-.19v-1.37Z"/>
        <path class="cls-1" d="M32.59,8.27c0,.11-.04.2-.11.27s-.17.11-.28.11-.2-.04-.28-.11-.12-.17-.12-.27.04-.2.12-.28c.08-.08.17-.11.28-.11s.2.04.28.12c.08.08.12.17.12.27ZM32.58,5.49c0,.07-.03.31-.1.72-.1.59-.16,1.03-.2,1.31h-.19c-.05-.4-.11-.84-.19-1.31-.07-.39-.1-.63-.1-.72,0-.11.04-.21.11-.28.08-.07.17-.11.28-.11s.2.04.27.11c.07.07.11.17.11.28Z"/>
      </g>
      <path class="cls-1" d="M37.09,7.01l-2.22,1.52c-.12.08-.19.09-.22.04-.02-.03-.03-.05-.03-.07,0-.04.05-.1.14-.18l1.62-1.46-1.65-1.48c-.1-.09-.13-.17-.1-.22.04-.06.11-.05.21.02l2.24,1.54c.08.05.12.1.12.14s-.04.09-.12.14Z"/>
    </g>
  </g>
</svg>