<svg xmlns="http://www.w3.org/2000/svg" viewBox="0 0 118 31.47"><defs><style>.cls-1{fill:red;}.cls-2{fill:#fffdf8;}</style></defs><g id="Layer_2" data-name="Layer 2"><g id="Layer_1-2" data-name="Layer 1"><rect class="cls-1" width="118" height="31.47"/><path class="cls-2" d="M8.84,10.22a4.43,4.43,0,0,1,.81-2.37,4.65,4.65,0,0,1,1.92-1.54,6.37,6.37,0,0,1,2.71-.55,6.2,6.2,0,0,1,2.53.49,4,4,0,0,1,1.68,1.37,3.52,3.52,0,0,1,.61,2,3.39,3.39,0,0,1-.43,1.66,5.54,5.54,0,0,1-1.34,1.52,17.65,17.65,0,0,1-2.43,1.6l-3.06,1.8-.15-.79h7.7v2.38H9V15.74l4.56-2.91a19.87,19.87,0,0,0,1.7-1.19,3.79,3.79,0,0,0,.87-.92,1.74,1.74,0,0,0,.26-.91,1.6,1.6,0,0,0-.25-.9,1.56,1.56,0,0,0-.74-.61,3,3,0,0,0-1.25-.22,3.18,3.18,0,0,0-1.47.29,2,2,0,0,0-.87.78,2.59,2.59,0,0,0-.34,1.07Z"/><path class="cls-2" d="M26.49,18.07a6.12,6.12,0,0,1-3.12-.77,5.42,5.42,0,0,1-2-2.15,6.9,6.9,0,0,1-.72-3.23,6.9,6.9,0,0,1,.72-3.23,5.44,5.44,0,0,1,2-2.16,6.12,6.12,0,0,1,3.12-.77,6.07,6.07,0,0,1,3.1.77,5.28,5.28,0,0,1,2,2.15,6.91,6.91,0,0,1,.72,3.24,6.89,6.89,0,0,1-.72,3.22,5.31,5.31,0,0,1-2,2.16A6.07,6.07,0,0,1,26.49,18.07Zm0-2.43a3,3,0,0,0,2.36-1,4.09,4.09,0,0,0,.84-2.75,4.1,4.1,0,0,0-.84-2.76,3,3,0,0,0-2.36-1,3,3,0,0,0-2.37,1,4.1,4.1,0,0,0-.85,2.76,4.09,4.09,0,0,0,.85,2.75A3,3,0,0,0,26.49,15.64Z"/><path class="cls-2" d="M33.76,11.14h3.61v2.33H33.76Z"/><path class="cls-2" d="M39.92,6H48.1V8.25H40.72l1.08-.57-.59,4.44h-.68a3.86,3.86,0,0,1,.85-1.07,4.4,4.4,0,0,1,1.34-.79A5.19,5.19,0,0,1,44.56,10a5,5,0,0,1,2.34.5,3.74,3.74,0,0,1,1.51,1.38,3.91,3.91,0,0,1,.53,2A3.87,3.87,0,0,1,48.33,16a4.13,4.13,0,0,1-1.75,1.48,6.18,6.18,0,0,1-2.73.55,6.6,6.6,0,0,1-2.7-.51,4.28,4.28,0,0,1-1.8-1.37,4,4,0,0,1-.77-2h2.67a1.7,1.7,0,0,0,.83,1.11,3.39,3.39,0,0,0,1.77.4,3.35,3.35,0,0,0,1.29-.22,1.93,1.93,0,0,0,.84-.66,1.67,1.67,0,0,0,.3-1,1.78,1.78,0,0,0-.27-1,1.73,1.73,0,0,0-.77-.66A3.1,3.1,0,0,0,44,12a4,4,0,0,0-1.14.16,3.57,3.57,0,0,0-.88.41,3.25,3.25,0,0,0-.61.52H39Z"/><path class="cls-2" d="M56,18.07a6.12,6.12,0,0,1-3.12-.77,5.28,5.28,0,0,1-2-2.15,6.9,6.9,0,0,1-.72-3.23,6.9,6.9,0,0,1,.72-3.23,5.31,5.31,0,0,1,2-2.16,6.67,6.67,0,0,1,6.22,0,5.28,5.28,0,0,1,2,2.15,6.91,6.91,0,0,1,.72,3.24,6.89,6.89,0,0,1-.72,3.22,5.31,5.31,0,0,1-2,2.16A6.07,6.07,0,0,1,56,18.07Zm0-2.43a3,3,0,0,0,2.36-1,4.09,4.09,0,0,0,.84-2.75,4.1,4.1,0,0,0-.84-2.76,3,3,0,0,0-2.36-1,3,3,0,0,0-2.37,1,4.1,4.1,0,0,0-.85,2.76,4.09,4.09,0,0,0,.85,2.75A3,3,0,0,0,56,15.64Z"/><path class="cls-2" d="M66.49,12.89a4.06,4.06,0,0,1-1.92-.44,3.21,3.21,0,0,1-1.3-1.23,3.6,3.6,0,0,1-.46-1.85,3.53,3.53,0,0,1,.46-1.83,3.35,3.35,0,0,1,1.3-1.23,4.06,4.06,0,0,1,1.92-.44,4.1,4.1,0,0,1,1.93.44A3.36,3.36,0,0,1,69.7,7.54a3.44,3.44,0,0,1,.47,1.83,3.51,3.51,0,0,1-.47,1.85,3.22,3.22,0,0,1-1.28,1.23A4.1,4.1,0,0,1,66.49,12.89Zm0-1.71a1.51,1.51,0,0,0,1.18-.48,1.89,1.89,0,0,0,.43-1.32,2,2,0,0,0-.42-1.32,1.68,1.68,0,0,0-2.37,0,2,2,0,0,0-.42,1.32,1.94,1.94,0,0,0,.42,1.32A1.51,1.51,0,0,0,66.49,11.18ZM73.4,6h2l-5.78,11.8h-2Zm3.07,12.05a4.12,4.12,0,0,1-1.92-.44,3.15,3.15,0,0,1-1.28-1.25,3.57,3.57,0,0,1-.46-1.84,3.57,3.57,0,0,1,.46-1.84,3.23,3.23,0,0,1,1.28-1.23A4.12,4.12,0,0,1,76.47,11a4.07,4.07,0,0,1,1.93.44,3.32,3.32,0,0,1,1.29,1.23,3.84,3.84,0,0,1,0,3.68,3.23,3.23,0,0,1-1.29,1.25A4.07,4.07,0,0,1,76.47,18.07Zm0-1.73a1.53,1.53,0,0,0,1.19-.48,1.9,1.9,0,0,0,.43-1.32,1.88,1.88,0,0,0-.43-1.31,1.5,1.5,0,0,0-1.19-.48,1.47,1.47,0,0,0-1.17.48,1.88,1.88,0,0,0-.43,1.31,1.86,1.86,0,0,0,.43,1.32A1.47,1.47,0,0,0,76.47,16.34Z"/><path class="cls-2" d="M89.62,18.07a5.72,5.72,0,0,1-2.68-.6,4.41,4.41,0,0,1-1.78-1.67,4.69,4.69,0,0,1-.64-2.47,4.7,4.7,0,0,1,.64-2.48A4.42,4.42,0,0,1,87,9.19a6.36,6.36,0,0,1,5.35,0,4.42,4.42,0,0,1,1.79,1.66,4.7,4.7,0,0,1,.64,2.48,4.67,4.67,0,0,1-.64,2.48,4.36,4.36,0,0,1-1.79,1.66A5.72,5.72,0,0,1,89.62,18.07Zm0-2.21a2.68,2.68,0,0,0,1.32-.3,2.1,2.1,0,0,0,.84-.88,2.93,2.93,0,0,0,.29-1.35A3,3,0,0,0,91.78,12a2,2,0,0,0-.84-.87,2.58,2.58,0,0,0-1.32-.31,2.62,2.62,0,0,0-1.31.31,2.1,2.1,0,0,0-.85.87,3,3,0,0,0-.29,1.35,2.93,2.93,0,0,0,.29,1.35,2.18,2.18,0,0,0,.85.88A2.72,2.72,0,0,0,89.62,15.86Z"/><path class="cls-2" d="M95.41,11.74V9.56h7.39v2.18Zm5.93-4.1a1.81,1.81,0,0,0-1.25.36,1.54,1.54,0,0,0-.39,1.18v8.64H97.07V9.46a4.85,4.85,0,0,1,.44-2.15,3.11,3.11,0,0,1,1.33-1.38,4.55,4.55,0,0,1,2.21-.48,4.28,4.28,0,0,1,1,.1,5.19,5.19,0,0,1,.87.28V8a3.21,3.21,0,0,0-.73-.27A3.64,3.64,0,0,0,101.34,7.64Zm.88,4.1V9.56h7.41v2.18Zm6-4.1a1.86,1.86,0,0,0-1.26.36,1.54,1.54,0,0,0-.4,1.18v8.64h-2.62V9.46a4.71,4.71,0,0,1,.45-2.15,3.11,3.11,0,0,1,1.33-1.38,4.49,4.49,0,0,1,2.19-.48,4.25,4.25,0,0,1,1,.1,6,6,0,0,1,.88.28V8a3.68,3.68,0,0,0-.74-.27A3.55,3.55,0,0,0,108.17,7.64Z"/><path class="cls-2" d="M16.29,23.67a3.47,3.47,0,0,1-.6,1.69,3.33,3.33,0,0,1-1.32,1.14,4.18,4.18,0,0,1-1.87.41,4.05,4.05,0,0,1-2-.49,3.46,3.46,0,0,1-1.35-1.36,4.49,4.49,0,0,1,0-4.08,3.4,3.4,0,0,1,1.35-1.36,4.05,4.05,0,0,1,2-.49,4.18,4.18,0,0,1,1.87.41,3.38,3.38,0,0,1,1.32,1.13,3.47,3.47,0,0,1,.6,1.7h-1.7a2,2,0,0,0-.36-.86,1.74,1.74,0,0,0-.72-.55,2.47,2.47,0,0,0-1-.2,2.27,2.27,0,0,0-1.16.28,1.8,1.8,0,0,0-.74.78,2.62,2.62,0,0,0-.26,1.2,2.65,2.65,0,0,0,.26,1.2,1.8,1.8,0,0,0,.74.78,2.27,2.27,0,0,0,1.16.28,2.65,2.65,0,0,0,1-.19,1.74,1.74,0,0,0,.72-.55,2,2,0,0,0,.36-.87Z"/><path class="cls-2" d="M17.11,19.09h1.65v7.66H17.11Z"/><path class="cls-2" d="M22.77,26.91a3.51,3.51,0,0,1-1.64-.38A2.79,2.79,0,0,1,20,25.48a3.06,3.06,0,0,1-.41-1.59A3,3,0,0,1,20,22.34a2.8,2.8,0,0,1,1.09-1,3.26,3.26,0,0,1,1.57-.38,2.68,2.68,0,0,1,1.54.44,2.77,2.77,0,0,1,1,1.23,4.52,4.52,0,0,1,.35,1.87h-4.6V23.3h3.69l-.6.42a2,2,0,0,0-.2-.8,1.28,1.28,0,0,0-.46-.49,1.25,1.25,0,0,0-.68-.18,1.49,1.49,0,0,0-.75.19,1.3,1.3,0,0,0-.48.53,1.67,1.67,0,0,0-.18.79,2,2,0,0,0,.23,1,1.5,1.5,0,0,0,.66.61,2.44,2.44,0,0,0,1.06.21,3.78,3.78,0,0,0,1.15-.18,3.62,3.62,0,0,0,1-.49v1.2a4,4,0,0,1-1.19.62A4.71,4.71,0,0,1,22.77,26.91Z"/><path class="cls-2" d="M31.4,23.91a4.59,4.59,0,0,1-.51,1.58,2.8,2.8,0,0,1-.94,1,2.35,2.35,0,0,1-1.29.38,2.3,2.3,0,0,1-1.32-.38,2.49,2.49,0,0,1-.89-1.05,3.88,3.88,0,0,1,0-3.13,2.49,2.49,0,0,1,.89-1.05,2.3,2.3,0,0,1,1.32-.38,2.42,2.42,0,0,1,1.29.37,3.09,3.09,0,0,1,.95,1A4.38,4.38,0,0,1,31.4,23.91Zm-3.59,0a1.73,1.73,0,0,0,.17.81,1.3,1.3,0,0,0,.47.56,1.17,1.17,0,0,0,.69.21,1.47,1.47,0,0,0,.75-.21,2,2,0,0,0,.62-.56,2.36,2.36,0,0,0,.4-.81,2.56,2.56,0,0,0-.4-.81,2.14,2.14,0,0,0-.62-.55,1.47,1.47,0,0,0-.75-.21,1.17,1.17,0,0,0-.69.21,1.33,1.33,0,0,0-.47.55A1.78,1.78,0,0,0,27.81,23.91ZM31,26.75l-.22-2.06.24-.78-.24-.76L31,21.08h1.73l-.31,2.83.31,2.84Z"/><path class="cls-2" d="M33.42,21.08H35.1l.31,2v3.63H33.74V23ZM37.84,21v1.59a4,4,0,0,0-.48-.09l-.43,0a1.56,1.56,0,0,0-.78.2,1.3,1.3,0,0,0-.54.61,2.42,2.42,0,0,0-.2,1.08l-.34-.46a8,8,0,0,1,.21-1.14,4.1,4.1,0,0,1,.39-1,2.06,2.06,0,0,1,.63-.65,1.59,1.59,0,0,1,.9-.24l.32,0A1.65,1.65,0,0,1,37.84,21Z"/><path class="cls-2" d="M43.42,23.91a4.59,4.59,0,0,1-.51,1.58,2.82,2.82,0,0,1-.95,1,2.3,2.3,0,0,1-1.29.38,2.35,2.35,0,0,1-1.32-.38,2.49,2.49,0,0,1-.89-1.05,4,4,0,0,1,0-3.13,2.49,2.49,0,0,1,.89-1.05,2.46,2.46,0,0,1,2.61,0,3,3,0,0,1,.95,1A4.39,4.39,0,0,1,43.42,23.91Zm-3.6,0a1.86,1.86,0,0,0,.17.81,1.3,1.3,0,0,0,.47.56,1.17,1.17,0,0,0,.69.21,1.44,1.44,0,0,0,.75-.21,2,2,0,0,0,.62-.56,2.36,2.36,0,0,0,.4-.81,2.56,2.56,0,0,0-.4-.81,2.14,2.14,0,0,0-.62-.55,1.44,1.44,0,0,0-.75-.21,1.17,1.17,0,0,0-.69.21,1.33,1.33,0,0,0-.47.55A1.92,1.92,0,0,0,39.82,23.91ZM43,26.75l-.22-2.06.24-.78-.24-.76L43,21.08h1.73l-.31,2.83.31,2.84Z"/><path class="cls-2" d="M45.43,21.08h1.66l.33,2.21v3.46H45.75V23Zm3.9-.16a2.33,2.33,0,0,1,1.24.32,2.09,2.09,0,0,1,.79.92,3.48,3.48,0,0,1,.27,1.43v3.16H50V23.86a1.56,1.56,0,0,0-.31-1.06,1.11,1.11,0,0,0-.9-.37,1.28,1.28,0,0,0-.71.2,1.3,1.3,0,0,0-.47.54,2,2,0,0,0-.16.84l-.53-.3a4.06,4.06,0,0,1,.44-1.53,2.62,2.62,0,0,1,.86-.94A2.16,2.16,0,0,1,49.33,20.92Z"/><path class="cls-2" d="M58.6,24.39a2.56,2.56,0,0,1-.5,1.31,2.88,2.88,0,0,1-1.09.89,3.68,3.68,0,0,1-3.13-.06,2.72,2.72,0,0,1-1.1-1.05,3.13,3.13,0,0,1-.39-1.57,3.06,3.06,0,0,1,.39-1.56,2.72,2.72,0,0,1,1.1-1.05A3.68,3.68,0,0,1,57,21.24a3,3,0,0,1,1.09.88,2.56,2.56,0,0,1,.5,1.32H56.94a1.24,1.24,0,0,0-.49-.84,1.64,1.64,0,0,0-1.7-.1,1.29,1.29,0,0,0-.51.55,2.17,2.17,0,0,0,0,1.73,1.29,1.29,0,0,0,.51.55,1.53,1.53,0,0,0,.76.18,1.5,1.5,0,0,0,1-.3,1.26,1.26,0,0,0,.48-.82Z"/><path class="cls-2" d="M62.29,26.91a3.5,3.5,0,0,1-1.63-.38,2.79,2.79,0,0,1-1.13-1.05,3,3,0,0,1-.41-1.59,3,3,0,0,1,.39-1.55,2.8,2.8,0,0,1,1.09-1,3.23,3.23,0,0,1,1.57-.38,2.68,2.68,0,0,1,1.54.44,2.77,2.77,0,0,1,1,1.23,4.52,4.52,0,0,1,.35,1.87h-4.6V23.3h3.69l-.6.42a2,2,0,0,0-.2-.8,1.28,1.28,0,0,0-.46-.49,1.25,1.25,0,0,0-.68-.18,1.49,1.49,0,0,0-.75.19A1.3,1.3,0,0,0,61,23a1.67,1.67,0,0,0-.18.79,2,2,0,0,0,.23,1,1.5,1.5,0,0,0,.66.61,2.44,2.44,0,0,0,1.06.21,3.78,3.78,0,0,0,1.15-.18,3.62,3.62,0,0,0,1-.49v1.2a4,4,0,0,1-1.19.62A4.72,4.72,0,0,1,62.29,26.91Z"/><path class="cls-2" d="M69.43,22.57H72a1.13,1.13,0,0,0,.75-.24,1,1,0,0,0,0-1.36,1.08,1.08,0,0,0-.75-.25H69.19L70,19.8v7H68.26V19.29h3.91a2.72,2.72,0,0,1,1.31.3,2.18,2.18,0,0,1,.88.82,2.4,2.4,0,0,1,.31,1.24,2.33,2.33,0,0,1-.31,1.22,2.2,2.2,0,0,1-.88.83,2.84,2.84,0,0,1-1.31.29H69.43Zm1.08.69h1.91l2.47,3.49h-2Z"/><path class="cls-2" d="M80.5,23.91A4.59,4.59,0,0,1,80,25.49a2.74,2.74,0,0,1-.95,1,2.3,2.3,0,0,1-1.29.38,2.35,2.35,0,0,1-1.32-.38,2.63,2.63,0,0,1-.89-1.05,4,4,0,0,1,0-3.13,2.63,2.63,0,0,1,.89-1.05,2.46,2.46,0,0,1,2.61,0,3,3,0,0,1,1,1A4.38,4.38,0,0,1,80.5,23.91Zm-3.6,0a1.86,1.86,0,0,0,.17.81,1.37,1.37,0,0,0,.47.56,1.2,1.2,0,0,0,.7.21,1.47,1.47,0,0,0,.75-.21,2,2,0,0,0,.62-.56,2.36,2.36,0,0,0,.4-.81,2.56,2.56,0,0,0-.4-.81,2.14,2.14,0,0,0-.62-.55,1.47,1.47,0,0,0-.75-.21,1.2,1.2,0,0,0-.7.21,1.41,1.41,0,0,0-.47.55A1.92,1.92,0,0,0,76.9,23.91Zm3.19,2.84-.22-2.06.24-.78-.24-.76.22-2.07h1.73l-.32,2.83.32,2.84Z"/><path class="cls-2" d="M82.52,21.08h1.65l.33,2.21v3.46H82.84V23Zm3.89-.16a2.34,2.34,0,0,1,1.25.32,2.15,2.15,0,0,1,.79.92,3.48,3.48,0,0,1,.27,1.43v3.16H87.06V23.86a1.56,1.56,0,0,0-.32-1.06,1.1,1.1,0,0,0-.89-.37,1.24,1.24,0,0,0-.71.2,1.3,1.3,0,0,0-.47.54,2,2,0,0,0-.17.84l-.52-.3a3.89,3.89,0,0,1,.44-1.53,2.62,2.62,0,0,1,.86-.94A2.12,2.12,0,0,1,86.41,20.92Z"/><path class="cls-2" d="M92,26.19a2.49,2.49,0,0,1-1.28-.33,2.32,2.32,0,0,1-.89-.92,2.87,2.87,0,0,1-.32-1.38,2.91,2.91,0,0,1,.32-1.39,2.32,2.32,0,0,1,.89-.92A2.49,2.49,0,0,1,92,20.92a2.46,2.46,0,0,1,1,.19,2.88,2.88,0,0,1,.79.48,3.28,3.28,0,0,1,.59.65,3,3,0,0,1,.37.7,2.08,2.08,0,0,1,.13.64,2.17,2.17,0,0,1-.2.82,3.13,3.13,0,0,1-1.47,1.53A2.71,2.71,0,0,1,92,26.19Zm2.26-.86v-1l0-.23V22.82l0-.21V21.08h1.66v4.16A3.46,3.46,0,0,1,95.45,27a2.81,2.81,0,0,1-1.21,1.13,4.23,4.23,0,0,1-3.09.18A4.58,4.58,0,0,1,90,27.73V26.32a3.45,3.45,0,0,0,1.15.66,3.74,3.74,0,0,0,1.23.21,1.9,1.9,0,0,0,1.38-.46A1.84,1.84,0,0,0,94.22,25.33Zm-1.7-.42a1.6,1.6,0,0,0,1-.33,2.72,2.72,0,0,0,.76-1,2.64,2.64,0,0,0-.77-1,1.59,1.59,0,0,0-1-.33,1.51,1.51,0,0,0-.73.17,1.17,1.17,0,0,0-.48.48,1.68,1.68,0,0,0,0,1.43,1.07,1.07,0,0,0,.47.47A1.53,1.53,0,0,0,92.52,24.91Z"/><path class="cls-2" d="M99.86,26.91a3.51,3.51,0,0,1-1.64-.38,2.79,2.79,0,0,1-1.13-1.05,3.06,3.06,0,0,1-.41-1.59,3,3,0,0,1,.39-1.55,2.8,2.8,0,0,1,1.09-1,3.26,3.26,0,0,1,1.57-.38,2.68,2.68,0,0,1,1.54.44,2.77,2.77,0,0,1,1,1.23,4.52,4.52,0,0,1,.35,1.87H98V23.3h3.69l-.6.42a2,2,0,0,0-.2-.8,1.28,1.28,0,0,0-.46-.49,1.25,1.25,0,0,0-.68-.18,1.49,1.49,0,0,0-.75.19,1.3,1.3,0,0,0-.48.53,1.67,1.67,0,0,0-.18.79,2,2,0,0,0,.23,1,1.5,1.5,0,0,0,.66.61,2.44,2.44,0,0,0,1.06.21,3.78,3.78,0,0,0,1.15-.18,3.62,3.62,0,0,0,1-.49v1.2a4,4,0,0,1-1.19.62A4.71,4.71,0,0,1,99.86,26.91Z"/><path class="cls-2" d="M109.19,24.93a1.78,1.78,0,0,1-.33,1.08,2.09,2.09,0,0,1-1,.67,5.42,5.42,0,0,1-3.22,0,2.53,2.53,0,0,1-1.1-.73,1.77,1.77,0,0,1-.42-1.08h1.69a.84.84,0,0,0,.26.44,1.29,1.29,0,0,0,.52.28,2.88,2.88,0,0,0,.76.09,2.14,2.14,0,0,0,.9-.14.44.44,0,0,0,.3-.41.34.34,0,0,0-.22-.32,2.33,2.33,0,0,0-.78-.16l-.93-.08a4.28,4.28,0,0,1-1.4-.31,1.69,1.69,0,0,1-.74-.6,1.66,1.66,0,0,1-.22-.83,1.53,1.53,0,0,1,.36-1,2.09,2.09,0,0,1,1-.63,4.65,4.65,0,0,1,1.47-.21,4,4,0,0,1,1.49.25,2.61,2.61,0,0,1,1.06.69,1.64,1.64,0,0,1,.45,1H107.4a.77.77,0,0,0-.19-.37,1.15,1.15,0,0,0-.45-.27,2.2,2.2,0,0,0-.75-.11,2.06,2.06,0,0,0-.81.13.42.42,0,0,0-.28.38.34.34,0,0,0,.17.3,1.67,1.67,0,0,0,.65.16l1.21.1a4.1,4.1,0,0,1,1.34.3,1.47,1.47,0,0,1,.7.58A1.75,1.75,0,0,1,109.19,24.93Z"/></g></g></svg>