<svg xmlns="http://www.w3.org/2000/svg" viewBox="0 0 27.86 29.72"><defs><style>.cls-1{fill:#18104f;}.cls-2{fill:#e089b7;}.cls-3{fill:#aa2d2d;}.cls-4{fill:#fff;}.cls-5{fill:#f26a60;}</style></defs><g id="Layer_2" data-name="Layer 2"><g id="Layer_1-2" data-name="Layer 1"><path class="cls-1" d="M18.47,21.6a6,6,0,0,1,2.53,0,.34.34,0,0,1,.26.4.33.33,0,0,1-.4.26,5.27,5.27,0,0,0-5.81,2.83.34.34,0,0,1-.61-.29,5.87,5.87,0,0,1,4-3.18Z"/><path class="cls-1" d="M20.94,8.92a2.52,2.52,0,1,0,1.93-3A2.52,2.52,0,0,0,20.94,8.92Z"/><path class="cls-1" d="M2.56,12.85a2.53,2.53,0,1,0,1.94-3A2.52,2.52,0,0,0,2.56,12.85Z"/><path class="cls-1" d="M26.64,2.83l.09-.05a.46.46,0,0,0,.11-.63,5.1,5.1,0,0,0-3.05-2,5.14,5.14,0,0,0-3.62.58.45.45,0,0,0,.46.78A4.11,4.11,0,0,1,26.1,2.66.46.46,0,0,0,26.64,2.83Z"/><path class="cls-1" d="M.62,7.35a.52.52,0,0,0,.19-.14A4.56,4.56,0,0,1,4.88,5.5.45.45,0,1,0,5,4.61,5.49,5.49,0,0,0,.09,6.66a.46.46,0,0,0,.08.63A.46.46,0,0,0,.62,7.35Z"/><path class="cls-2" d="M26.91,23.9a9.29,9.29,0,0,0-3.3-2.15A11.83,11.83,0,0,0,19.49,21a9.28,9.28,0,0,0-4.22.85,4.52,4.52,0,0,0-1.65,1.29,2.89,2.89,0,0,0-.54,1.58v.21a.06.06,0,0,1,0,.06c0,.24.06.49.11.74s.09.43.15.65a1.86,1.86,0,0,0,.1.2,7.71,7.71,0,0,0,1.86,2.24,4.12,4.12,0,0,0,2,.9,4.11,4.11,0,0,0,.68-.21c.75-.28,1.46-.68,2.2-1a24.25,24.25,0,0,1,2.35-.83c.8-.24,1.61-.45,2.42-.66l1.07-.28a6.28,6.28,0,0,0,.87-.27,2.34,2.34,0,0,0,.73-.47.79.79,0,0,0,.16-.71A3,3,0,0,0,26.91,23.9Z"/><path class="cls-1" d="M25.31,22.85a8.7,8.7,0,0,0-3.52-1.44,10.24,10.24,0,0,0-3.94.12A8.32,8.32,0,0,0,14.62,23a2.71,2.71,0,0,0-1.19,2.82,3,3,0,0,0,.47.92,6.84,6.84,0,0,0,.88,1.18,6.52,6.52,0,0,0,1.48,1.3,2.57,2.57,0,0,0,1.63.31,4.77,4.77,0,0,0,2-1,6.82,6.82,0,0,1,2.32-1c.76-.19,1.55-.31,2.31-.5s2.26-.4,2.57-1.39C27.45,24.4,26.14,23.43,25.31,22.85Z"/><path class="cls-3" d="M24.8,26.66a20,20,0,0,0-4,1c-.75.35-1.35.92-2.08,1.28a2.52,2.52,0,0,1-2,.11,3.69,3.69,0,0,1-.69-.41A5,5,0,0,1,15,27.73,5.09,5.09,0,0,1,13.77,26a2.1,2.1,0,0,1-.16-1.19,2.53,2.53,0,0,1,.75-1.29A7.1,7.1,0,0,1,17.27,22a9.64,9.64,0,0,1,3.58-.4,8.76,8.76,0,0,1,3.51,1,9.42,9.42,0,0,1,1.39.94,3.19,3.19,0,0,1,1.11,1.36C27.29,26.11,25.69,26.46,24.8,26.66Z"/><path class="cls-4" d="M15.84,23.67a4.07,4.07,0,0,0,1.83-.32,8.47,8.47,0,0,0,1.84-1c.35-.25.68-.52,1-.8a9.82,9.82,0,0,0-3.24.42,7.46,7.46,0,0,0-2.61,1.27A2.34,2.34,0,0,0,15.84,23.67Z"/><path class="cls-4" d="M19.74,26a2.62,2.62,0,0,0-1.35.74l-.24.25c0,.1-.09.19-.13.29a11.57,11.57,0,0,0-.52,1.5c0,.15-.07.3-.11.45A2.6,2.6,0,0,0,18.73,29c.73-.36,1.33-.93,2.08-1.28a7.15,7.15,0,0,1,1-.38A2.4,2.4,0,0,0,19.74,26Z"/><path class="cls-5" d="M25.46,23.26h0a7.9,7.9,0,0,0-3.92,2.19,8.54,8.54,0,0,0-2.05,3.08,10.91,10.91,0,0,1,1.35-.84,20,20,0,0,1,4-1c.89-.2,2.49-.55,2.06-1.81a3.19,3.19,0,0,0-1.11-1.36Z"/></g></g></svg>