<svg xmlns="http://www.w3.org/2000/svg" viewBox="0 0 71.58 52.41"><defs><style>.cls-1{isolation:isolate;}.cls-2,.cls-3{fill:#ef9c93;}.cls-2,.cls-5,.cls-6{stroke:#001880;stroke-width:1.05px;}.cls-2,.cls-5{stroke-miterlimit:10;}.cls-3{mix-blend-mode:multiply;}.cls-4{fill:#001880;}.cls-5,.cls-6{fill:none;}.cls-6{stroke-linecap:round;stroke-linejoin:round;}</style></defs><g class="cls-1"><g id="Layer_2" data-name="Layer 2"><g id="Layer_1-2" data-name="Layer 1"><path class="cls-2" d="M55.88,9l5.74-6.15S55.35-3.64,48.44,5C48.44,5,53.47,6.88,55.88,9Z"/><polygon class="cls-2" points="22.5 51.89 14.06 51.89 14.06 35.75 27.53 35.75 22.5 51.89"/><polygon class="cls-3" points="22.5 51.89 14.06 51.89 14.06 35.75 27.53 35.75 22.5 51.89"/><polygon class="cls-2" points="56.13 51.89 47.69 51.89 47.69 35.75 61.15 35.75 56.13 51.89"/><path class="cls-2" d="M67.36,19.49H63.92C60.64,9.92,50.14,2.92,37.69,2.92c-15.08,0-27.3,10.27-27.3,22.94S22.61,48.8,37.69,48.8c12.45,0,23-7,26.23-16.57h3.44a3.55,3.55,0,0,0,3.7-3.38v-6A3.55,3.55,0,0,0,67.36,19.49Z"/><path class="cls-3" d="M37.3,2.93C22.4,3.1,10.39,13.3,10.39,25.86s12,22.76,26.91,22.93Z"/><path class="cls-4" d="M43.87,9a1,1,0,0,1-.45-.1,14.58,14.58,0,0,0-11.94,0A1.11,1.11,0,0,1,30,8.45,1.1,1.1,0,0,1,30.44,7a14.52,14.52,0,0,1,4.15-1.28,17.08,17.08,0,0,1,9.73,1.24A1.1,1.1,0,0,1,43.87,9Z"/><path class="cls-5" d="M10.39,24s-6.15,2.06-7.82-2.41C1.6,19,4.83,18,6.37,19.8c1.13,1.31,1.11,4.12.43,4.81-2.86,2.87-6.5.31-6.5.31"/><path class="cls-6" d="M50.28,18.63a5,5,0,0,0,7,0"/><line class="cls-6" x1="53.8" y1="20.08" x2="53.8" y2="22.43"/><line class="cls-6" x1="56.07" y1="19.53" x2="57.32" y2="21.44"/><line class="cls-6" x1="51.53" y1="19.53" x2="50.28" y2="21.44"/></g></g></g></svg>