<svg xmlns="http://www.w3.org/2000/svg" viewBox="0 0 94.02 20.27"><defs><style>.cls-1{fill:#fff;}</style></defs><g id="Layer_2" data-name="Layer 2"><g id="Layer_1-2" data-name="Layer 1"><path class="cls-1" d="M83.66,16.87h-2.6a.18.18,0,0,1-.17-.08l-3.7-4s0,0,0-.06h.23c.66,0,1.33,0,2,0a1.2,1.2,0,0,0,1.25-1.16,2.34,2.34,0,0,0,0-1,1.2,1.2,0,0,0-1.27-.92c-.88,0-1.77,0-2.66,0H74.79c-.16,0-.21,0-.21.2,0,2.28,0,4.55,0,6.83,0,.18,0,.24-.23.24-.5,0-1,0-1.5,0-.15,0-.2,0-.2-.19V7.84c0-.14,0-.18.18-.18,2.15,0,4.3,0,6.45,0A3.14,3.14,0,0,1,81.9,8.84a3.45,3.45,0,0,1,.69,2.26A3.36,3.36,0,0,1,82,13.2a2.94,2.94,0,0,1-1,.88l2.81,2.72Z"/><path class="cls-1" d="M47.86,14.44c-.16-.37-.31-.74-.49-1.09a2.39,2.39,0,0,1-.27-1.23c0-1.43,0-2.86,0-4.28,0-.22.06-.27.27-.26.48,0,1,0,1.43,0,.14,0,.18,0,.18.18,0,2.72,0,5.44,0,8.16a1,1,0,0,1-.57,1,1,1,0,0,1-1.17-.25l-2.16-2.16-3.63-3.65-.13-.11V11c0,1.89,0,3.78,0,5.67,0,.19,0,.23-.23.23-.49,0-1,0-1.48,0-.13,0-.17,0-.17-.18V8.64a1,1,0,0,1,.6-1,1.06,1.06,0,0,1,1.19.29l5,5c.52.52,1,1,1.52,1.56Z"/><path class="cls-1" d="M29,5.66H26.15c-.27,0-.31,0-.31-.31,0-1.63,0-3.26,0-4.89,0-.17,0-.21.21-.17a7.56,7.56,0,0,1,4.33,2.77A19.67,19.67,0,0,1,32,5.49c.1.18,0,.17-.11.17Z"/><path class="cls-1" d="M44.27,4.09V2.58c0-.13,0-.17.16-.17h2.24c.11,0,.14,0,.14.14,0,.49,0,.49-.46.49s-.83,0-1.25,0c-.16,0-.2.05-.19.2a2,2,0,0,1,0,.42c0,.12,0,.16.16.16h1.5c.13,0,.18,0,.18.17,0,.44,0,.44-.43.44H45.09c-.13,0-.19,0-.18.18a2.06,2.06,0,0,1,0,.43c0,.14.05.16.17.16h1.56c.13,0,.17,0,.17.17,0,.46,0,.46-.46.46H44.46c-.15,0-.2,0-.19-.19C44.28,5.1,44.27,4.6,44.27,4.09Z"/><path class="cls-1" d="M72.31,4.1c0-.51,0-1,0-1.52,0-.13,0-.17.16-.17h2.22c.12,0,.16,0,.16.15,0,.48,0,.48-.47.48H73.11c-.13,0-.17,0-.16.17s-.08.46,0,.57.36,0,.56,0q.54,0,1.08,0c.11,0,.15,0,.15.15,0,.45,0,.45-.43.45H73.12c-.15,0-.18,0-.17.18s-.08.44,0,.55.35,0,.54,0h1.14c.12,0,.17,0,.17.16,0,.47,0,.47-.47.47H72.49c-.14,0-.19,0-.18-.19,0-.5,0-1,0-1.51Z"/><path class="cls-1" d="M52.5,4.11c0-.51,0-1,0-1.53,0-.12,0-.16.15-.17.51,0,.51,0,.51.49,0,.26,0,.52,0,.79,0,.1,0,.16.15.15h1.37c.12,0,.15,0,.15-.15,0-.37,0-.74,0-1.1,0-.14,0-.18.18-.18.46,0,.46,0,.46.46,0,.91,0,1.81,0,2.72,0,.18-.06.22-.22.21-.43,0-.43,0-.43-.44,0-.25,0-.51,0-.76s0-.18-.16-.17H53.31c-.14,0-.16.05-.16.17,0,.34,0,.69,0,1,0,.12,0,.17-.16.17-.5,0-.5,0-.49-.49V4.11Z"/><path class="cls-1" d="M65.13,5.88a1.45,1.45,0,0,1-1.35-.65c-.08-.13-.1-.22.08-.27l.07,0c.18-.12.29-.14.45.08a1.17,1.17,0,0,0,1.36.17.4.4,0,0,0,0-.72,1.53,1.53,0,0,0-.62-.15,2.09,2.09,0,0,1-.85-.25.9.9,0,0,1-.12-1.43,1.83,1.83,0,0,1,2.11,0l.09.09c.19.22.18.22-.07.36a.34.34,0,0,1-.47,0,1,1,0,0,0-1-.14.39.39,0,0,0-.29.39c0,.2.14.27.3.32a9.12,9.12,0,0,0,.91.17,1,1,0,0,1,.87,1.25,1,1,0,0,1-.54.66A1.94,1.94,0,0,1,65.13,5.88Z"/><path class="cls-1" d="M60,3.56v.87a1.39,1.39,0,0,1-1.67,1.43A1.37,1.37,0,0,1,57,4.41c0-.61,0-1.22,0-1.83,0-.13,0-.16.16-.17.48,0,.48,0,.48.47s0,1,0,1.54a.84.84,0,0,0,1.08.84.76.76,0,0,0,.59-.65,4.26,4.26,0,0,0,0-.8c0-.4,0-.81,0-1.21,0-.14,0-.19.18-.19.46,0,.46,0,.46.46v.69Z"/><path class="cls-1" d="M39.46,2.43l.07,0c.21,0,.45-.05.61,0s.17.34.24.53L41.18,5c.14-.36.27-.67.39-1,.19-.5.39-1,.58-1.49a.17.17,0,0,1,.21-.14h.39c.14,0,.16,0,.11.16l-.81,2c-.16.37-.32.75-.47,1.13a.2.2,0,0,1-.22.15c-.5,0-.5,0-.7-.45L39.52,2.59Z"/><path class="cls-1" d="M91.57,4.11c0-.51,0-1,0-1.53,0-.14.05-.17.18-.16h2.09c.15,0,.18,0,.18.19C94,3,94,3,93.59,3H92.38c-.12,0-.17,0-.16.17s0,.4,0,.6,0,.16.17.16h1.35c.13,0,.19,0,.19.18,0,.41,0,.41-.41.41H92.39c-.13,0-.17,0-.17.17,0,.31,0,.62,0,.93,0,.12,0,.17-.15.15s-.38.07-.48,0,0-.3,0-.45V4.11Z"/><path class="cls-1" d="M90,3.52c0,.28,0,.56,0,.83a1.39,1.39,0,0,1-1.36,1.5A1.37,1.37,0,0,1,87,4.55c0-.13,0-.19.15-.17h.12c.32,0,.32,0,.39.31a.86.86,0,0,0,1.65-.15c0-.47,0-1,0-1.43,0-.1-.05-.1-.13-.1h-.75c-.11,0-.14,0-.14-.14,0-.46,0-.46.44-.46h1c.14,0,.19,0,.19.18,0,.31,0,.62,0,.93Z"/><path class="cls-1" d="M2.75,9.45a.84.84,0,1,1,0-1.68.84.84,0,1,1,0,1.68Z"/><path class="cls-1" d="M84.92,4.1c0-.51,0-1,0-1.52,0-.13,0-.17.18-.17.47,0,.47,0,.47.45,0,.92,0,1.83,0,2.74,0,.16,0,.2-.2.2-.45,0-.45,0-.45-.46Z"/><path class="cls-1" d="M62.23,4.09c0,.51,0,1,0,1.55,0,.11,0,.15-.15.16-.5,0-.5,0-.5-.48,0-.91,0-1.82,0-2.73,0-.14,0-.18.19-.18.46,0,.46,0,.46.46V4.09Z"/><path class="cls-1" d="M11.74,3.51a.84.84,0,0,1-.84-.85.85.85,0,0,1,.85-.83.84.84,0,1,1,0,1.68Z"/><path class="cls-1" d="M36.27,9.92A2.57,2.57,0,0,0,35.45,8a3.79,3.79,0,0,0-2.62-1H25.36a.94.94,0,0,1-.92-.78,2.08,2.08,0,0,1,0-.43c0-1.85,0-3.7,0-5.55,0-.32,0-.27-.26-.27H3.27A1.16,1.16,0,0,0,2.11.83a.8.8,0,0,0,.47,1,1.27,1.27,0,0,0,.43,0H9.5a.76.76,0,0,1,.7.74A1.16,1.16,0,0,1,9,3.82c-1.16,0-2.32,0-3.47,0a1.17,1.17,0,0,0-1.07.61.85.85,0,0,0,.28,1.22,1,1,0,0,0,.49.09H8.88a.77.77,0,0,1,.8.94,1.17,1.17,0,0,1-1.15,1H5.72a1.16,1.16,0,0,0-1,.53.92.92,0,0,0-.11,1,.83.83,0,0,0,.82.42h7a.77.77,0,0,1,.77,1.09,1.16,1.16,0,0,1-1.13.8c-.9,0-1.79,0-2.69,0-2.69,0-5.39,0-8.09,0a1.22,1.22,0,0,0-1.12.62.83.83,0,0,0,.74,1.31H6.7a.8.8,0,0,1,.77,1.16,1.2,1.2,0,0,1-1.15.74H1.79a1.14,1.14,0,0,0-.85.32,1,1,0,0,0-.32,1.11c.17.42.53.49.94.49,1.29,0,2.58,0,3.86,0,.77,0,1.54,0,2.31,0,.41,0,.46,0,.59.42a3.82,3.82,0,0,0,6.14,1.73,3.65,3.65,0,0,0,1.14-1.77c.1-.31.19-.38.51-.39h.19l5.19,0,3.93,0c.51,0,.59.06.75.54a3.77,3.77,0,0,0,4.17,2.5,3.73,3.73,0,0,0,3.08-2.68c.12-.33.17-.36.52-.35a10.29,10.29,0,0,0,1.36,0,1,1,0,0,0,1-1C36.3,14.08,36.32,12,36.27,9.92ZM12,18.31a1.87,1.87,0,1,1,1.85-1.86A1.83,1.83,0,0,1,12,18.31Zm3.14-7a.85.85,0,1,1,.85-.85A.86.86,0,0,1,15.11,11.27Zm14.66,7a1.87,1.87,0,1,1,0-3.73,1.87,1.87,0,1,1,0,3.73Z"/><path class="cls-1" d="M30.83,18.92a.15.15,0,0,1,0,.13c-.05.15,0,.17.14.16a1.53,1.53,0,0,1-.77.23,3.45,3.45,0,0,1-1.43-.1,2.82,2.82,0,0,1-.87-.47.32.32,0,0,0-.1-.46,1.74,1.74,0,0,1-.25-.29s0,0,.06,0,.13,0,.18.1a2.65,2.65,0,0,0,2.72.75C30.63,18.91,30.72,18.84,30.83,18.92Z"/><path class="cls-1" d="M33.16,7.87h-2v0h1.82C33,7.83,33.1,7.8,33.16,7.87Z"/><path class="cls-1" d="M33.32,16.47l.06-.17s0,.1.07.12S33.37,16.46,33.32,16.47Z"/><path class="cls-1" d="M93.94,11.35a4.26,4.26,0,0,0-4.42-3.69H84.41c-.17,0-.21,0-.21.21,0,1.46,0,2.92,0,4.39s0,2.94,0,4.41c0,.16,0,.21.21.21h5.2a4.16,4.16,0,0,0,3-1.19A4.65,4.65,0,0,0,93.94,11.35Zm-2.75,3a2.24,2.24,0,0,1-1.53.61c-1.49,0-3,0-4.53,0,.32-.22.59-.41.87-.58a.29.29,0,0,0,.15-.28c0-1.42,0-2.83,0-4.24,0-.18,0-.23.23-.23H89.5a2.49,2.49,0,0,1,2.57,2.51A2.66,2.66,0,0,1,91.19,14.31Z"/><path class="cls-1" d="M60.87,11.33a4.21,4.21,0,0,0-3.82-3.62,19.53,19.53,0,0,0-3.42,0A4.12,4.12,0,0,0,50.5,9.59,4.86,4.86,0,0,0,49.84,13a4.44,4.44,0,0,0,3.42,3.78,9,9,0,0,0,2,.11h1.24a4.28,4.28,0,0,0,3.68-2A5,5,0,0,0,60.87,11.33Zm-2.74,3a2.42,2.42,0,0,1-1.62.63H54.23a2.5,2.5,0,0,1-2.48-2.24,2.76,2.76,0,0,1,.75-2.4,2.29,2.29,0,0,1,1.57-.67c.43,0,.86,0,1.45,0a10.7,10.7,0,0,1,1.35,0A2.46,2.46,0,0,1,59,12,2.67,2.67,0,0,1,58.13,14.3Z"/><path class="cls-1" d="M71.81,11.53a4.21,4.21,0,0,0-3.57-3.78,14.87,14.87,0,0,0-3.77,0A4,4,0,0,0,61.22,10a.31.31,0,0,0,0,.27,5.74,5.74,0,0,1,0,3.92.3.3,0,0,0,0,.23,4.28,4.28,0,0,0,3.17,2.43,11.78,11.78,0,0,0,1.94.07h1.09a4.31,4.31,0,0,0,3.71-2A5,5,0,0,0,71.81,11.53Zm-3.57,3.24a2.62,2.62,0,0,1-1,.16h-2a2.55,2.55,0,0,1-2.67-2.75,2.51,2.51,0,0,1,1.91-2.51,6.45,6.45,0,0,1,1.39-.06h.31a10.59,10.59,0,0,1,1.49,0,2.49,2.49,0,0,1,2.16,2.62A2.55,2.55,0,0,1,68.24,14.77Z"/><path class="cls-1" d="M70.41,4a.68.68,0,0,0,.39-.61.88.88,0,0,0-.89-1c-.59,0-1.18,0-1.77,0-.09,0-.12,0-.12.12,0,1.05,0,2.1,0,3.14,0,.1,0,.12.12.12.58,0,1.15,0,1.73,0a1,1,0,0,0,.94-.52A.92.92,0,0,0,70.41,4ZM68.67,3.1c0-.09,0-.1.12-.1h.95a.4.4,0,0,1,.21.07.36.36,0,0,1,.21.39.33.33,0,0,1-.33.29,5.23,5.23,0,0,1-.56,0h0c-.19,0-.46.09-.53,0S68.67,3.31,68.67,3.1Zm1.59,1.74c0,.21-.18.29-.36.32a6.21,6.21,0,0,1-1.14,0c-.07,0-.09,0-.09-.1V4.43c0-.08,0-.1.11-.09h.89a.69.69,0,0,1,.32.08C70.17,4.51,70.29,4.63,70.26,4.84Z"/><path class="cls-1" d="M50.26,4.6A1,1,0,0,0,51,3.94a1.1,1.1,0,0,0-1-1.51c-.52,0-1.05,0-1.57,0-.16,0-.18.05-.18.19V5.3c0,.51,0,.51.52.5.11,0,.14,0,.13-.15s0-.5,0-.74,0-.25.24-.25a.64.64,0,0,1,.61.28c.2.26.43.5.65.75,0,0,.07.1.15.1h.74ZM49,4.09c-.08,0-.09,0-.09-.11V3.11c0-.1,0-.1.13-.1h.89a.52.52,0,0,1,.52.51.48.48,0,0,1-.46.55C49.67,4.1,49.34,4.08,49,4.09Z"/><path class="cls-1" d="M82.68,4.61a1.1,1.1,0,0,0,.63-.4,1.12,1.12,0,0,0,.11-1.14,1,1,0,0,0-.93-.64c-.55,0-1.1,0-1.66,0-.15,0-.14.08-.14.18V5.33c0,.47,0,.46.47.47.15,0,.17-.06.17-.18q0-.41,0-.81s0-.1,0-.14a1.25,1.25,0,0,1,.66.09l.81.92s.06.11.12.11h.77Zm-1.26-.52c-.08,0-.09,0-.09-.11,0-.29,0-.58,0-.87,0-.08,0-.1.11-.1h.94a.51.51,0,0,1,.5.5.5.5,0,0,1-.46.56C82.08,4.1,81.75,4.08,81.42,4.09Z"/><path class="cls-1" d="M77.72,2.42H76.41c-.14,0-.15.06-.15.16,0,.51,0,1,0,1.52s0,1,0,1.5c0,.18,0,.21.22.21.38,0,.76,0,1.15,0a1.55,1.55,0,0,0,1.64-1.38A1.62,1.62,0,0,0,77.72,2.42Zm.93,1.85a1,1,0,0,1-1.05.9c-.23,0-.53.1-.65,0s0-.42,0-.64V3.18c0-.12,0-.18.16-.17s.37,0,.56,0A1,1,0,0,1,78.65,4.27Z"/><path class="cls-1" d="M33.24,11.93l0,.24C33.12,12.06,33.16,12,33.24,11.93Z"/><path class="cls-1" d="M32.33,15.72A2.55,2.55,0,0,0,30.79,14a3,3,0,0,0-2.25.09,4.16,4.16,0,0,0-.71.56,2.67,2.67,0,0,0-.55,2.79c.09.24.24.45.35.68,0,0,.08.05.11.09a2.19,2.19,0,0,0,.91.68,2.62,2.62,0,0,0,1.27.23,6.65,6.65,0,0,0,.91-.17,3.93,3.93,0,0,0,.88-.65A2.59,2.59,0,0,0,32.33,15.72Zm-2.56,2.59a1.87,1.87,0,1,1,0-3.73,1.87,1.87,0,1,1,0,3.73Z"/><path class="cls-1" d="M27.73,8.23l.27,0C27.91,8.33,27.84,8.34,27.73,8.23Z"/></g></g></svg>