<svg xmlns="http://www.w3.org/2000/svg" viewBox="0 0 196.24 24.57"><defs><style>.cls-1{fill:#fff;}.cls-2{fill:#f7f5f6;}</style></defs><g id="Layer_2" data-name="Layer 2"><g id="Layer_1-2" data-name="Layer 1"><path class="cls-1" d="M53.76.45h.8l0,7.52h-.9l0-5.6L51.28,6.44l-2.4-4.05,0,5.6H48L48,.47h.79L51.27,4.7Z"/><path class="cls-1" d="M55.85,4.6a2,2,0,0,1,.59-1.54,2.1,2.1,0,0,1,1.48-.56A1.9,1.9,0,0,1,60,4.59v1H56.71v.06c0,1,.32,1.47,1.18,1.46h2v.79h-2c-1.51,0-2-.83-2-2.54Zm3.35.25V4.56A1.12,1.12,0,0,0,57.92,3.3,1.16,1.16,0,0,0,56.7,4.57v.29Z"/><path class="cls-1" d="M61.32,1.38h.85V2.57h1.66v.78H62.17V6.19c0,.75.21,1,.85,1h.81V8H63c-1.13,0-1.69-.61-1.69-1.82V3.36h-.82V2.58h.81Z"/><path class="cls-1" d="M67.79.74h4.44v.83H68.7V3.33h1.45c1.18,0,2.31.58,2.31,1.87v.74c0,1.48-1.24,2-2.44,2h-2.2V7.1H70c.94,0,1.54-.35,1.54-1.15V5.2c0-.69-.54-1-1.4-1H67.8Z"/><path class="cls-1" d="M73.23,4.61h3.86v.85H73.23Z"/><path class="cls-1" d="M81.72,2.45v.79h-2c-.68,0-1,.25-1,.74s.36.63,1.06.71l.42,0c1.12.12,1.74.66,1.74,1.55,0,1.15-.8,1.65-2,1.65H78v-.8h1.85c.85,0,1.21-.24,1.2-.86,0-.46-.28-.68-1-.76l-.44,0c-1.2-.13-1.8-.63-1.81-1.5,0-1.12,1-1.53,1.89-1.54Z"/><path class="cls-1" d="M83.21,1.31h.85V2.5h1.65v.78H84.06V6.12c0,.74.21,1,.84,1h.82v.79h-.81c-1.13,0-1.69-.61-1.7-1.82V3.29H82.4V2.51h.82Z"/><path class="cls-1" d="M86.28,4.5A2,2,0,0,1,86.86,3a2.06,2.06,0,0,1,1.48-.57,1.91,1.91,0,0,1,2.13,2.09v1H87.13v.06c0,1,.33,1.47,1.19,1.46h2v.79h-2c-1.5,0-2-.83-2-2.54Zm3.34.25V4.46A1.12,1.12,0,0,0,88.35,3.2a1.15,1.15,0,0,0-1.22,1.27v.29Z"/><path class="cls-1" d="M94.27,2.38v.8h-.77a1.15,1.15,0,0,0-1.29,1.28V7.84h-.85l0-5.4H92l0,.69a1.45,1.45,0,0,1,1.45-.73Z"/><path class="cls-1" d="M98,2.37v.8h-.77a1.16,1.16,0,0,0-1.29,1.28V7.82h-.85l0-5.41h.66l0,.69a1.48,1.48,0,0,1,1.45-.74Z"/><path class="cls-1" d="M98.37,4.46A2,2,0,0,1,99,2.93a2.09,2.09,0,0,1,1.48-.57,1.91,1.91,0,0,1,2.12,2.09v1H99.22v.06c0,1,.33,1.47,1.19,1.47h2V7.8h-2c-1.5,0-2-.83-2-2.54Zm3.34.25V4.42a1.12,1.12,0,0,0-1.27-1.26,1.16,1.16,0,0,0-1.22,1.27v.29Z"/><path class="cls-1" d="M105.87,2.36a1.65,1.65,0,0,1,1.24.52,1.83,1.83,0,0,1,.52,1.33V7.8h-.85V4.21a1,1,0,0,0-.91-1h-.65a1,1,0,0,0-.91,1v3.7h-.85l0-5.4h.66l0,.53a1.24,1.24,0,0,1,1.09-.58Z"/><path class="cls-1" d="M112,.26h.85V2.92a1.16,1.16,0,0,1,1-.58h.51a1.79,1.79,0,0,1,1.76,1.85V5.7a2.22,2.22,0,0,1-.5,1.49,1.62,1.62,0,0,1-1.28.59h-.73a1.17,1.17,0,0,1-1-.5l0,.5H112Zm3.33,3.93a1,1,0,0,0-.92-1.06h-.64a1,1,0,0,0-.9,1V6.23a.81.81,0,0,0,.8.75h.73c.53,0,.93-.51.93-1.28Z"/><path class="cls-1" d="M116.85,4.4a2,2,0,0,1,.59-1.53,2.09,2.09,0,0,1,1.48-.57A1.91,1.91,0,0,1,121,4.39v1H117.7v.06c0,1,.33,1.47,1.19,1.46h2v.79h-2c-1.5,0-2-.83-2-2.54Zm3.34.25V4.36a1.12,1.12,0,0,0-1.27-1.26,1.16,1.16,0,0,0-1.22,1.27v.29Z"/><path class="cls-1" d="M124.18,2.3a1.64,1.64,0,0,1,1.32.62A2.15,2.15,0,0,1,126,4.34V5.87a2,2,0,0,1-.52,1.39,1.75,1.75,0,0,1-1.32.57h-.62a1.79,1.79,0,0,1-1.34-.56,2,2,0,0,1-.53-1.39V4.36a2.16,2.16,0,0,1,.52-1.43,1.67,1.67,0,0,1,1.33-.63Zm1,2.05a1.19,1.19,0,0,0-1-1.26h-.62a.92.92,0,0,0-.72.38,1.43,1.43,0,0,0-.29.88V5.88a1.09,1.09,0,0,0,1,1.16h.63a1.07,1.07,0,0,0,1-1.16Z"/><path class="cls-1" d="M129.23,2.28a1.67,1.67,0,0,1,1.32.62,2.12,2.12,0,0,1,.53,1.43V5.85a1.93,1.93,0,0,1-.53,1.39,1.71,1.71,0,0,1-1.31.57h-.63a1.72,1.72,0,0,1-1.33-.56,1.91,1.91,0,0,1-.53-1.38V4.34a2.12,2.12,0,0,1,.53-1.43,1.66,1.66,0,0,1,1.32-.63Zm1,2.05a1.16,1.16,0,0,0-1-1.25h-.62a.9.9,0,0,0-.72.38,1.39,1.39,0,0,0-.29.88V5.86a1.08,1.08,0,0,0,1,1.16h.62a1.08,1.08,0,0,0,1-1.17Z"/><path class="cls-1" d="M134.94,2.25v.8h-.76a1.17,1.17,0,0,0-1.3,1.28l0,3.37h-.85l0-5.41h.66l0,.69a1.46,1.46,0,0,1,1.45-.74Z"/><path class="cls-1" d="M138.61.18h.84l0,7.52h-.64l0-.51a1.13,1.13,0,0,1-.95.51h-.73a1.63,1.63,0,0,1-1.29-.57,2.18,2.18,0,0,1-.5-1.5V4.13a1.79,1.79,0,0,1,.51-1.33,1.66,1.66,0,0,1,1.25-.53h.5a1.19,1.19,0,0,1,1.05.58Zm0,3.87a1,1,0,0,0-.92-1h-.63a1,1,0,0,0-.91,1.07v1.5c0,.77.39,1.28.93,1.28h.73a.83.83,0,0,0,.8-.75Z"/><path class="cls-1" d="M140.46,4.33A2,2,0,0,1,141,2.79a2.05,2.05,0,0,1,1.48-.56,1.9,1.9,0,0,1,2.13,2.08v1h-3.34v0c0,1,.32,1.47,1.18,1.47h2v.8h-2c-1.51,0-2-.83-2-2.54Zm3.34.25V4.29A1.14,1.14,0,0,0,142.52,3a1.16,1.16,0,0,0-1.22,1.27v.29Z"/><path class="cls-1" d="M145.31,4.31a2,2,0,0,1,.59-1.54,2.08,2.08,0,0,1,1.48-.56A1.91,1.91,0,0,1,149.5,4.3v1h-3.34v0c0,1,.33,1.48,1.19,1.47h2v.79h-2c-1.5,0-2-.83-2-2.54Zm3.34.25V4.27A1.12,1.12,0,0,0,147.38,3a1.16,1.16,0,0,0-1.22,1.27v.29Z"/><path class="cls-1" d="M150.44.14h.85l0,7.52h-.85Z"/><path class="cls-1" d="M155.56.12h.84l0,7.52h-.65l0-.5a1.13,1.13,0,0,1-1,.5h-.73a1.63,1.63,0,0,1-1.29-.58,2.27,2.27,0,0,1-.5-1.49V4.07a1.83,1.83,0,0,1,.51-1.33A1.68,1.68,0,0,1,154,2.21h.51a1.14,1.14,0,0,1,1,.58Zm0,3.88a1,1,0,0,0-.92-1H154a1,1,0,0,0-.91,1.06V5.58c0,.77.39,1.27.94,1.27h.73a.82.82,0,0,0,.79-.76Z"/><path class="cls-1" d="M9.42,15.11h4.65V16H10.32v2.35h3.16v.84H10.33v2.63h3.75v.85H9.44Z"/><path class="cls-1" d="M18.05,17.15v.79h-.76A1.16,1.16,0,0,0,16,19.23V22.6h-.84l0-5.4h.65l.05.69a1.45,1.45,0,0,1,1.45-.74Z"/><path class="cls-1" d="M22.38,17.22h.89l-2,5.38h-.93l-2-5.37h.9l1.55,4.29Z"/><path class="cls-1" d="M24,17.22h2.2a1.53,1.53,0,0,1,1.55,1.6v3.76h-.64l0-.5a1.15,1.15,0,0,1-.94.5h-.84A1.59,1.59,0,0,1,23.64,21a1.5,1.5,0,0,1,.46-1.13,1.6,1.6,0,0,1,1.15-.48h1.61v-.57a.73.73,0,0,0-.7-.82H24Zm2.91,3H25.25a.8.8,0,0,0,0,1.6h.84a.79.79,0,0,0,.77-.74Z"/><path class="cls-1" d="M31.74,17.1v.8H31a1.15,1.15,0,0,0-1.29,1.28v3.38h-.85l0-5.4h.66l0,.69A1.45,1.45,0,0,1,31,17.11Z"/><path class="cls-1" d="M32.17,19.2a2,2,0,0,1,.58-1.54,2.05,2.05,0,0,1,1.48-.56,1.9,1.9,0,0,1,2.13,2.08v1H33v.05c0,1,.32,1.47,1.18,1.47h2v.8h-2c-1.51,0-2-.83-2-2.54Zm3.34.24v-.29a1.13,1.13,0,0,0-1.27-1.26A1.17,1.17,0,0,0,33,19.16v.29Z"/><path class="cls-1" d="M39.67,17.09a1.65,1.65,0,0,1,1.23.52,1.81,1.81,0,0,1,.52,1.33l0,3.59h-.85V18.94a1,1,0,0,0-.91-1H39a1,1,0,0,0-.91,1l0,3.69h-.85l0-5.4h.66l0,.54A1.23,1.23,0,0,1,39,17.09Z"/><path class="cls-1" d="M49.33,17.13h.89l-2,5.38h-.93l-2-5.36h.9l1.55,4.3Z"/><path class="cls-1" d="M50.59,19.14a2,2,0,0,1,.59-1.54A2.05,2.05,0,0,1,52.66,17a1.89,1.89,0,0,1,2.12,2.08v1H51.45v0c0,1,.32,1.47,1.18,1.47h2v.8h-2c-1.51,0-2-.83-2-2.54Zm3.35.24v-.29a1.14,1.14,0,0,0-1.28-1.26,1.16,1.16,0,0,0-1.22,1.27v.29Z"/><path class="cls-1" d="M58.59,17v.79h-.76a1.17,1.17,0,0,0-1.3,1.29v3.37H55.7l0-5.4h.65l.05.68A1.46,1.46,0,0,1,57.83,17Z"/><path class="cls-1" d="M59.4,15h.85v2.66a1.15,1.15,0,0,1,1-.57h.5a1.64,1.64,0,0,1,1.24.51,1.8,1.8,0,0,1,.53,1.33v3.58h-.85V18.88a1,1,0,0,0-.92-1.05h-.63a1,1,0,0,0-.91,1v3.63h-.85Z"/><path class="cls-1" d="M67.92,17.07h.85l0,5.4h-.66l0-.53a1.25,1.25,0,0,1-1.07.57h-.66A1.67,1.67,0,0,1,65.13,22a1.87,1.87,0,0,1-.52-1.33V17.08h.85v3.59a1,1,0,0,0,.92,1.06H67a.93.93,0,0,0,.89-.95Z"/><path class="cls-1" d="M70,15.18h.84v1H70Zm0,1.89h.85l0,5.37H70Z"/><path class="cls-1" d="M75.63,17v.8h-2c-.69,0-1,.26-1,.75s.35.63,1.05.7c.1,0,.35.05.42.05,1.12.12,1.74.66,1.75,1.55,0,1.15-.8,1.64-2,1.65H71.91v-.79h1.86c.85,0,1.2-.24,1.2-.85,0-.46-.28-.69-1-.76l-.44,0c-1.2-.14-1.81-.63-1.81-1.5,0-1.13.94-1.54,1.88-1.54Z"/><path class="cls-1" d="M76.73,14.9h.85v2.67a1.17,1.17,0,0,1,1-.59h.5a1.79,1.79,0,0,1,1.77,1.85v1.51a2.2,2.2,0,0,1-.5,1.49,1.61,1.61,0,0,1-1.28.59H78.4a1.16,1.16,0,0,1-1-.5l0,.5h-.64Zm3.32,3.93a1,1,0,0,0-.91-1.06H78.5a1,1,0,0,0-.91,1v2.1a.8.8,0,0,0,.8.74h.73c.52,0,.93-.51.93-1.28Z"/><path class="cls-1" d="M81.62,19a2,2,0,0,1,.59-1.54,2,2,0,0,1,1.48-.56A1.9,1.9,0,0,1,85.81,19v1l-3.34,0v.05c0,1,.33,1.47,1.19,1.47h2v.8h-2c-1.5,0-2-.83-2-2.54Zm3.34.24V19a1.12,1.12,0,0,0-1.27-1.26A1.16,1.16,0,0,0,82.47,19v.29Z"/><path class="cls-1" d="M89.77,14.85h.84l0,7.52H90l0-.5a1.14,1.14,0,0,1-1,.51h-.73A1.61,1.61,0,0,1,87,21.8a2.15,2.15,0,0,1-.5-1.49v-1.5A1.8,1.8,0,0,1,87,17.47a1.68,1.68,0,0,1,1.24-.53h.5a1.16,1.16,0,0,1,1,.58Zm0,3.88a1,1,0,0,0-.91-1h-.64a1,1,0,0,0-.91,1.06v1.51c0,.77.39,1.27.94,1.27H89a.82.82,0,0,0,.79-.75Z"/><path class="cls-1" d="M94.76,16.9v.79H94A1.17,1.17,0,0,0,92.7,19v3.37h-.84l0-5.41h.65l0,.69A1.45,1.45,0,0,1,94,16.9Z"/><path class="cls-1" d="M95.57,15.09h.85v1h-.85Zm0,1.89h.85l0,5.37h-.85Z"/><path class="cls-1" d="M97.69,17h.85V21.6a2.92,2.92,0,0,1-.48,1.68l-.82,1.15-.7-.45.82-1.16a1.91,1.91,0,0,0,.34-1.21Zm0-1.89h.85v1h-.85Z"/><path class="cls-1" d="M100.08,17v-.15a2.09,2.09,0,0,1,2.42-2.07v.76c-.94,0-1.55.41-1.54,1.3V17h1.54v.76h-1.6l0,4.61h-.85V17.73h-.69V17Z"/><path class="cls-1" d="M122.19,15.08v.85H120c-1.08,0-1.54.3-1.53,1.13a.94.94,0,0,0,.32.82,1.72,1.72,0,0,0,.56.26c.29.08.4.09.8.18a4.63,4.63,0,0,1,1.34.4,1.57,1.57,0,0,1,.91,1.58A2.08,2.08,0,0,1,120,22.62h-2.45v-.85H120c1,0,1.48-.39,1.47-1.47a.83.83,0,0,0-.32-.76,3.33,3.33,0,0,0-1.2-.4l-.51-.1a4.49,4.49,0,0,1-.92-.3,2.14,2.14,0,0,1-.72-.6,2.28,2.28,0,0,1-.27-1.08q0-2,2.43-2Z"/><path class="cls-1" d="M125.83,17.14a1.59,1.59,0,0,1,1.28.58,2.13,2.13,0,0,1,.5,1.49v1.55a1.87,1.87,0,0,1-.51,1.34,1.71,1.71,0,0,1-1.24.52h-.5a1.18,1.18,0,0,1-1.05-.57v2.52h-.85l0-7.42h.64l0,.49a1.21,1.21,0,0,1,1-.5Zm1,2.07c0-.78-.42-1.28-.94-1.28h-.73a.81.81,0,0,0-.8.74v2.15a1,1,0,0,0,.92,1h.63a1,1,0,0,0,.91-1.05Z"/><path class="cls-1" d="M130.82,17.12a1.67,1.67,0,0,1,1.32.62,2.12,2.12,0,0,1,.53,1.43v1.52a1.93,1.93,0,0,1-.53,1.39,1.76,1.76,0,0,1-1.32.58h-.62a1.72,1.72,0,0,1-1.33-.57,1.89,1.89,0,0,1-.53-1.38V19.18a2.17,2.17,0,0,1,.52-1.43,1.68,1.68,0,0,1,1.33-.62Zm1,2.05a1.17,1.17,0,0,0-1-1.25h-.62a.9.9,0,0,0-.72.38,1.43,1.43,0,0,0-.29.88v1.53a1.08,1.08,0,0,0,1,1.15h.62a1.08,1.08,0,0,0,1-1.16Z"/><path class="cls-1" d="M133.39,19.2a2,2,0,0,1,.58-1.54,2.06,2.06,0,0,1,1.49-.56,1.9,1.9,0,0,1,2.12,2.09v1h-3.34v.05c0,1,.33,1.47,1.19,1.47h2v.8h-2c-1.5,0-2-.83-2-2.54Zm3.34.25v-.29a1.13,1.13,0,0,0-1.27-1.27,1.16,1.16,0,0,0-1.22,1.27v.29Z"/><path class="cls-1" d="M141.54,15h.84l0,7.52h-.64l0-.5a1.12,1.12,0,0,1-.95.51H140a1.61,1.61,0,0,1-1.29-.58,2.15,2.15,0,0,1-.5-1.49V19a1.83,1.83,0,0,1,.51-1.34A1.74,1.74,0,0,1,140,17.1h.5a1.17,1.17,0,0,1,1.05.58Zm0,3.87a1,1,0,0,0-.92-1H140a1,1,0,0,0-.91,1.07v1.5c0,.77.39,1.28.93,1.27h.73a.82.82,0,0,0,.8-.75Z"/><path class="cls-1" d="M147.83,18.44l-.31-.37a1.9,1.9,0,0,1-.49-1.2,1.85,1.85,0,0,1,.46-1.28,1.58,1.58,0,0,1,1.26-.54,1.51,1.51,0,0,1,1.27.52,1.86,1.86,0,0,1,.46,1.28,1.48,1.48,0,0,1-.74,1.33l-.67.44,1.71,2.07a1.53,1.53,0,0,0,.19-.79l.8.15a3,3,0,0,1-.33,1.43l.47.56-.65.54-.41-.51a1.69,1.69,0,0,1-1,.32h-1.28a1.78,1.78,0,0,1-1.35-.55,2,2,0,0,1-.55-1.42,2,2,0,0,1,.89-1.79Zm.53.64-.26.17a1.3,1.3,0,0,0-.59,1.17,1.08,1.08,0,0,0,1.05,1.17h1.16c.26,0,.43-.08.5-.26Zm.18-1.09.73-.48a.65.65,0,0,0,.35-.64c0-.6-.32-1-.86-1s-.87.41-.87,1a1.09,1.09,0,0,0,.29.69Z"/><path class="cls-1" d="M159.68,17.1h.9l-2,5.38h-.94l-2-5.36h.9l1.55,4.3Z"/><path class="cls-1" d="M161,19.11a2,2,0,0,1,.58-1.54A2.05,2.05,0,0,1,163,17a1.89,1.89,0,0,1,2.12,2.09v1H161.8v.05c0,1,.32,1.47,1.18,1.47h2v.8h-2c-1.51,0-2-.83-2-2.53Zm3.34.25v-.29A1.14,1.14,0,0,0,163,17.8a1.17,1.17,0,0,0-1.22,1.27v.29Z"/><path class="cls-1" d="M168.94,17v.79h-.76a1.16,1.16,0,0,0-1.3,1.28l0,3.37h-.85l0-5.4h.65l0,.69a1.45,1.45,0,0,1,1.45-.74Z"/><path class="cls-1" d="M169.5,17.07h3.8v.56l-2.68,4h2.73v.79h-3.89v-.55l2.67-4H169.5Z"/><path class="cls-1" d="M174,19.07a2,2,0,0,1,.58-1.54A2.05,2.05,0,0,1,176.1,17a1.9,1.9,0,0,1,2.13,2.08v1l-3.34,0v0c0,1,.32,1.47,1.18,1.47h2v.8h-2c-1.51,0-2-.83-2-2.54Zm3.34.24V19a1.13,1.13,0,0,0-1.27-1.26A1.17,1.17,0,0,0,174.88,19v.29Z"/><path class="cls-1" d="M179.15,14.89H180l0,4.2h.6L182.28,17h1.08l-2,2.45,2.2,2.92h-1l-1.91-2.53H180v2.54h-.85Z"/><path class="cls-1" d="M183.71,19a2,2,0,0,1,.59-1.54,2.1,2.1,0,0,1,1.48-.57A1.91,1.91,0,0,1,187.9,19v1h-3.35v.06c0,1,.32,1.47,1.18,1.47h2v.79h-2c-1.5,0-2-.83-2-2.54Zm3.34.24V19a1.12,1.12,0,0,0-1.27-1.26A1.16,1.16,0,0,0,184.56,19v.29Z"/><path class="cls-1" d="M191.71,16.91v.8H191a1.17,1.17,0,0,0-1.3,1.28v3.38h-.85V17h.65l.05.69a1.44,1.44,0,0,1,1.44-.73Z"/><path class="cls-1" d="M195.37,14.84h.84l0,7.52h-.65l0-.51a1.11,1.11,0,0,1-1,.51h-.73a1.62,1.62,0,0,1-1.29-.57,2.22,2.22,0,0,1-.5-1.49V18.79a1.81,1.81,0,0,1,.51-1.33,1.64,1.64,0,0,1,1.24-.53h.51a1.15,1.15,0,0,1,1,.57Zm0,3.88a1,1,0,0,0-.92-1h-.63a1,1,0,0,0-.91,1.07v1.5c0,.78.39,1.28.94,1.28h.73a.82.82,0,0,0,.79-.76Z"/><g id="Interface_Check" data-name="Interface / Check"><g id="Vector"><path class="cls-2" d="M40.69,5.09A.27.27,0,0,1,40.5,5L39.32,3.84a.28.28,0,0,1,0-.4.29.29,0,0,1,.39,0l1,1,2.16-2.15a.28.28,0,1,1,.39.39L40.89,5A.28.28,0,0,1,40.69,5.09Z"/></g></g><path class="cls-2" d="M41.28,7.28a3.64,3.64,0,1,1,3.64-3.64A3.65,3.65,0,0,1,41.28,7.28Zm0-6.77a3.13,3.13,0,1,0,3.13,3.13A3.13,3.13,0,0,0,41.28.51Z"/><g id="Interface_Check-2" data-name="Interface / Check"><g id="Vector-2" data-name="Vector"><path class="cls-2" d="M3.05,20.6a.27.27,0,0,1-.19-.08L1.68,19.34A.28.28,0,0,1,2.07,19l1,1,2.16-2.16a.28.28,0,0,1,.39.39L3.25,20.52A.28.28,0,0,1,3.05,20.6Z"/></g></g><path class="cls-2" d="M3.64,22.78a3.64,3.64,0,1,1,3.64-3.64A3.64,3.64,0,0,1,3.64,22.78Zm0-6.76a3.13,3.13,0,1,0,3.13,3.12A3.13,3.13,0,0,0,3.64,16Z"/><g id="Interface_Check-3" data-name="Interface / Check"><g id="Vector-3" data-name="Vector"><path class="cls-2" d="M111.34,20.6a.28.28,0,0,1-.2-.08L110,19.34a.28.28,0,1,1,.39-.39l1,1,2.15-2.16a.28.28,0,0,1,.4,0,.29.29,0,0,1,0,.39l-2.36,2.36A.27.27,0,0,1,111.34,20.6Z"/></g></g><path class="cls-2" d="M111.93,22.78a3.64,3.64,0,1,1,3.64-3.64A3.64,3.64,0,0,1,111.93,22.78Zm0-6.76a3.13,3.13,0,1,0,3.12,3.12A3.13,3.13,0,0,0,111.93,16Z"/></g></g></svg>