<svg xmlns="http://www.w3.org/2000/svg" viewBox="0 0 181.74 31.75"><defs><style>.cls-1{fill:#fff;}</style></defs><g id="Layer_2" data-name="Layer 2"><g id="Layer_1-2" data-name="Layer 1"><path class="cls-1" d="M7.91.13h2V13.34H8.27L2,4v9.3H0V.13H1.75L7.91,9.31Z"/><path class="cls-1" d="M17.63,3.91h1.89v9.47H18.09L18,12.67a2,2,0,0,1-1.68.79h-1.1a3.21,3.21,0,0,1-3.18-3.32V3.91H14v6.23a1.42,1.42,0,0,0,1.28,1.56h1.1a1.35,1.35,0,0,0,1.28-1.38Z"/><path class="cls-1" d="M30.25,3.79a3,3,0,0,1,2.24,1,3.22,3.22,0,0,1,.93,2.38v6.22H31.53V7.12a1.4,1.4,0,0,0-1.28-1.55h-.68A1.34,1.34,0,0,0,28.28,7v6.34h-1.9V7a1.41,1.41,0,0,0-1.29-1.45h-.68a1.3,1.3,0,0,0-1.28,1.36v6.41H21.24V3.89h1.44l.05.7a2.14,2.14,0,0,1,1.76-.8h.6a2.75,2.75,0,0,1,2.23,1,2.75,2.75,0,0,1,2.25-1Z"/><path class="cls-1" d="M44.14,3.79a3,3,0,0,1,2.25,1,3.21,3.21,0,0,1,.92,2.38v6.22H45.43V7.12a1.4,1.4,0,0,0-1.29-1.55h-.68A1.33,1.33,0,0,0,42.18,7v6.34H40.27V7A1.4,1.4,0,0,0,39,5.57h-.68A1.3,1.3,0,0,0,37,6.93v6.41H35.14V3.89h1.43l.06.7a2.14,2.14,0,0,1,1.76-.8H39a2.77,2.77,0,0,1,2.23,1,2.73,2.73,0,0,1,2.24-1Z"/><path class="cls-1" d="M48.62,7.49a3.59,3.59,0,0,1,1.06-2.73,3.72,3.72,0,0,1,2.66-1,3.41,3.41,0,0,1,3.78,3.73V9.42H50.53v.07c0,1.38.47,2.06,1.73,2.06h3.61v1.78H52.26c-2.69,0-3.64-1.53-3.64-4.5Zm5.61.23v-.3c0-1.3-.63-1.89-1.89-1.89a1.7,1.7,0,0,0-1.81,1.89v.3Z"/><path class="cls-1" d="M62.76,3.76V5.53H61.25a1.72,1.72,0,0,0-1.92,1.93v5.87H57.42V3.87h1.44l.09,1a2.39,2.39,0,0,1,2.3-1.07Z"/><path class="cls-1" d="M73.13.43h1.49V13.36h-2V3.1L69.94,4.89l-1-1.64Z"/><path class="cls-1" d="M88.42,3.91h2l-3.48,9.43h-2L81.44,3.91h2l2.47,7Z"/><path class="cls-1" d="M90.79,7.49a3.59,3.59,0,0,1,1-2.73,3.74,3.74,0,0,1,2.66-1,3.41,3.41,0,0,1,3.78,3.73V9.42H92.69v.07c0,1.38.47,2.06,1.74,2.06H98v1.78h-3.6c-2.7,0-3.64-1.53-3.64-4.5Zm5.6.23v-.3c0-1.3-.62-1.89-1.89-1.89a1.71,1.71,0,0,0-1.81,1.89v.3Z"/><path class="cls-1" d="M104.93,3.76V5.53h-1.51a1.73,1.73,0,0,0-1.93,1.93v5.87H99.58V3.87H101l.09,1a2.4,2.4,0,0,1,2.31-1.07Z"/><path class="cls-1" d="M106.17.13h1.91V4.59a1.74,1.74,0,0,1,1.59-.78h.75a3,3,0,0,1,2.25.95,3.22,3.22,0,0,1,.94,2.37v6.21h-1.9V7.13a1.4,1.4,0,0,0-1.29-1.54h-1A1.4,1.4,0,0,0,108.08,7v6.3h-1.91Z"/><path class="cls-1" d="M120.75,3.91h1.89v9.47H121.2l0-.71a2,2,0,0,1-1.68.79h-1.1a3.22,3.22,0,0,1-3.19-3.32V3.91h1.91v6.23a1.41,1.41,0,0,0,1.28,1.56h1.1a1.35,1.35,0,0,0,1.28-1.38Z"/><path class="cls-1" d="M124.43.75h1.91v2.1h-1.91Zm0,3.16h1.91v9.43h-1.91Z"/><path class="cls-1" d="M134.72,3.79V5.57h-3.56c-1,0-1.51.34-1.51,1s.49.87,1.52,1c.25,0,.59.06.72.09,2,.21,3.12,1.21,3.12,2.82,0,2-1.48,3-3.67,3H128V11.67h3.34c1.29,0,1.78-.33,1.78-1.21,0-.63-.36-.93-1.42-1.06L131,9.32c-2-.2-3.25-1.05-3.25-2.73,0-2,1.74-2.8,3.42-2.8Z"/><path class="cls-1" d="M136.39.13h1.9V4.59a1.82,1.82,0,0,1,1.59-.8h.75a3,3,0,0,1,2.25,1,3.22,3.22,0,0,1,.94,2.38V9.65a4,4,0,0,1-.9,2.66,3,3,0,0,1-2.32,1h-1.23a1.9,1.9,0,0,1-1.47-.71l-.08.71h-1.43Zm5.53,7a1.41,1.41,0,0,0-1.29-1.55h-1A1.41,1.41,0,0,0,138.29,7v3.51a1.11,1.11,0,0,0,1.08,1h1.23c.75,0,1.32-.72,1.32-1.92Z"/><path class="cls-1" d="M144.83,7.49a3.62,3.62,0,0,1,1-2.73,3.74,3.74,0,0,1,2.67-1,3.41,3.41,0,0,1,3.77,3.73V9.42h-5.59v.07c0,1.38.48,2.06,1.74,2.06h3.61v1.78h-3.61c-2.7,0-3.64-1.53-3.64-4.5Zm5.6.23v-.3c0-1.3-.62-1.89-1.88-1.89a1.71,1.71,0,0,0-1.82,1.89v.3Z"/><path class="cls-1" d="M158.76.13h1.91V13.34h-1.44l-.07-.71a1.89,1.89,0,0,1-1.48.71h-1.22a2.92,2.92,0,0,1-2.32-1,3.91,3.91,0,0,1-.91-2.66V7.12a3.21,3.21,0,0,1,.92-2.38,3.09,3.09,0,0,1,2.27-1h.75a1.82,1.82,0,0,1,1.59.8Zm0,6.89a1.4,1.4,0,0,0-1.28-1.45h-1.06a1.41,1.41,0,0,0-1.28,1.55V9.65c0,1.2.56,1.92,1.32,1.92h1.22a1.09,1.09,0,0,0,1.08-1Z"/><path class="cls-1" d="M167.88,3.76V5.53h-1.51a1.73,1.73,0,0,0-1.93,1.93v5.87h-1.9V3.87H164l.1,1a2.38,2.38,0,0,1,2.3-1.07Z"/><path class="cls-1" d="M169.13.75H171v2.1h-1.91Zm0,3.16H171v9.43h-1.91Z"/><path class="cls-1" d="M172.92,3.91h1.89v8a5.14,5.14,0,0,1-.87,2.93l-1.51,2.09-1.54-1,1.51-2.11a3.09,3.09,0,0,0,.52-1.91Zm0-3.17h1.89V2.85h-1.89Z"/><path class="cls-1" d="M177.25,3.91V3.59c.11-2.63,2-3.59,4.21-3.59a1.37,1.37,0,0,1,.28,0V1.7c-1.53,0-2.55.53-2.55,1.89v.32h2.55v1.7h-2.66v7.73h-1.91V5.61H176V3.91Z"/><path class="cls-1" d="M35.58,19h1.91v2.1H35.58Zm0,3.15h1.91V31.6H35.58Z"/><path class="cls-1" d="M43.59,22.05a3,3,0,0,1,2.23.95,3.22,3.22,0,0,1,.94,2.37v6.21H44.87V25.37a1.39,1.39,0,0,0-1.28-1.54h-1.1a1.33,1.33,0,0,0-1.28,1.35v6.4H39.3V22.15h1.44l0,.69a2.09,2.09,0,0,1,1.7-.79Z"/><path class="cls-1" d="M54.22,18.39h1.91v4.45a1.73,1.73,0,0,1,1.58-.77h.76a3,3,0,0,1,2.24.94,3.23,3.23,0,0,1,.95,2.38V31.6H59.75V25.39a1.4,1.4,0,0,0-1.28-1.55H57.41a1.41,1.41,0,0,0-1.28,1.46v6.3H54.22Z"/><path class="cls-1" d="M63,25.75A3.61,3.61,0,0,1,64,23a3.74,3.74,0,0,1,2.66-1,3.41,3.41,0,0,1,3.78,3.74v1.93H64.85v.07c0,1.38.47,2.06,1.74,2.06h3.6v1.77h-3.6c-2.7,0-3.64-1.53-3.64-4.49Zm5.6.23v-.3c0-1.31-.62-1.89-1.89-1.89a1.7,1.7,0,0,0-1.81,1.89V26Z"/><path class="cls-1" d="M72.44,20.11h1.89v2.05h2.79v1.76H74.33v4.55c0,1.15.3,1.51,1.19,1.51h1.6v1.77h-1.6c-2.21,0-3.08-1.34-3.08-3.28V23.92H71.08V22.16h1.36Z"/><path class="cls-1" d="M92.51,18.39h2V31.6H92.87l-6.25-9.3v9.3h-2V18.39h1.76l6.15,9.17Z"/><path class="cls-1" d="M100.78,22a3,3,0,0,1,2.38,1.12,3.74,3.74,0,0,1,1,2.54v2.55a3.52,3.52,0,0,1-.94,2.47,3.11,3.11,0,0,1-2.4,1h-1a3.11,3.11,0,0,1-2.4-1,3.52,3.52,0,0,1-.94-2.47V25.69a3.82,3.82,0,0,1,.94-2.54A3,3,0,0,1,99.73,22Zm1.44,3.66c0-1-.68-1.88-1.44-1.88h-1c-.76,0-1.44.88-1.44,1.88v2.55A1.58,1.58,0,0,0,99.73,30h1a1.59,1.59,0,0,0,1.44-1.74Z"/><path class="cls-1" d="M109.53,22a3,3,0,0,1,2.37,1.12,3.7,3.7,0,0,1,1,2.54v2.55a3.49,3.49,0,0,1-1,2.47,3.11,3.11,0,0,1-2.39,1h-1.06a3.13,3.13,0,0,1-2.4-1,3.52,3.52,0,0,1-.94-2.47V25.69a3.82,3.82,0,0,1,.94-2.54,3.05,3.05,0,0,1,2.4-1.12ZM111,25.69c0-1-.68-1.88-1.43-1.88h-1.06c-.76,0-1.44.88-1.44,1.88v2.55A1.58,1.58,0,0,0,108.47,30h1.06A1.58,1.58,0,0,0,111,28.24Z"/><path class="cls-1" d="M119.61,22v1.78H118.1a1.72,1.72,0,0,0-1.93,1.92v5.87h-1.9V22.13h1.43l.09,1A2.41,2.41,0,0,1,118.1,22Z"/><path class="cls-1" d="M125.61,18.39h1.91V31.6h-1.44l-.07-.72a1.86,1.86,0,0,1-1.47.72h-1.23a2.92,2.92,0,0,1-2.32-1,3.87,3.87,0,0,1-.91-2.66V25.37A3.17,3.17,0,0,1,121,23a3.05,3.05,0,0,1,2.26-.95H124a1.82,1.82,0,0,1,1.58.79Zm0,6.89a1.4,1.4,0,0,0-1.28-1.45h-1.06A1.4,1.4,0,0,0,122,25.37V27.9c0,1.21.56,1.93,1.32,1.93h1.23a1.09,1.09,0,0,0,1.07-1Z"/><path class="cls-1" d="M129,25.75A3.61,3.61,0,0,1,130.05,23a3.74,3.74,0,0,1,2.66-1,3.41,3.41,0,0,1,3.78,3.74v1.93H130.9v.07c0,1.38.47,2.06,1.74,2.06h3.6v1.77h-3.6c-2.7,0-3.65-1.53-3.65-4.49Zm5.61.23v-.3c0-1.31-.62-1.89-1.89-1.89a1.7,1.7,0,0,0-1.81,1.89V26Z"/><path class="cls-1" d="M142.08,22.05a3,3,0,0,1,2.22.95,3.19,3.19,0,0,1,.95,2.37v6.21h-1.89V25.37a1.39,1.39,0,0,0-1.28-1.54H141a1.33,1.33,0,0,0-1.28,1.35v6.4h-1.91V22.15h1.44l.05.69a2.09,2.09,0,0,1,1.7-.79Z"/></g></g></svg>