<svg xmlns="http://www.w3.org/2000/svg" viewBox="0 0 133 21.46"><defs><style>.cls-1{fill:#fff;}.cls-2{fill:#1a3c7a;}</style></defs><g id="Layer_2" data-name="Layer 2"><g id="Layer_1-2" data-name="Layer 1"><rect class="cls-1" width="133" height="21.46" rx="10.33"/><path class="cls-2" d="M13.88,14.7a3.93,3.93,0,0,1-1.41-.24,2.86,2.86,0,0,1-1.05-.72,3.2,3.2,0,0,1-.66-1.19,5.46,5.46,0,0,1-.23-1.64A4.75,4.75,0,0,1,11,8.75a2.79,2.79,0,0,1,1.2-1.27,3.66,3.66,0,0,1,1.78-.42,3.64,3.64,0,0,1,1.4.24A2.61,2.61,0,0,1,16.39,8a3.16,3.16,0,0,1,.66,1.2,5.5,5.5,0,0,1,.23,1.66A5.32,5.32,0,0,1,17,12.55a3.21,3.21,0,0,1-.69,1.2,2.72,2.72,0,0,1-1.08.71A3.86,3.86,0,0,1,13.88,14.7Zm.06-1.48a1.3,1.3,0,0,0,.83-.25,1.43,1.43,0,0,0,.49-.75A4.18,4.18,0,0,0,15.42,11a4.67,4.67,0,0,0-.17-1.35,1.73,1.73,0,0,0-.51-.8,1.28,1.28,0,0,0-.85-.28,1.35,1.35,0,0,0-.83.26,1.61,1.61,0,0,0-.5.79,4.39,4.39,0,0,0-.16,1.3,5.19,5.19,0,0,0,.09,1,2,2,0,0,0,.29.74,1.26,1.26,0,0,0,.48.44A1.48,1.48,0,0,0,13.94,13.22Z"/><path class="cls-2" d="M18,14.55V8.68h1.52v2.39h.09a5.06,5.06,0,0,1,.29-1.43,1.84,1.84,0,0,1,.63-.84,1.91,1.91,0,0,1,1-.28A1.68,1.68,0,0,1,23,9.16a3.1,3.1,0,0,1,.48,1.89v3.5H21.7V11.28a1.78,1.78,0,0,0-.18-.9.64.64,0,0,0-.59-.3.85.85,0,0,0-.58.23,1.48,1.48,0,0,0-.4.76,5.23,5.23,0,0,0-.15,1.4v2.08Z"/><path class="cls-2" d="M26.59,14.68a2,2,0,0,1-1.54-.53,2.31,2.31,0,0,1-.5-1.64V10.08H23.9V9h0a1.38,1.38,0,0,0,1-.47,2.08,2.08,0,0,0,.36-1.12v0h1.06V8.68h1.34v1.44H26.33v2.23a.67.67,0,0,0,.71.78,1.25,1.25,0,0,0,.32-.05,1.66,1.66,0,0,0,.31-.12v1.57a4.34,4.34,0,0,1-.61.12Z"/><path class="cls-2" d="M29.72,14.55,28,8.68h1.91l1,4.38h.05l1-4.38h1.8L32,14.55Z"/><path class="cls-2" d="M35.4,14.7a2.41,2.41,0,0,1-.85-.15A1.47,1.47,0,0,1,33.9,14a1.54,1.54,0,0,1-.26-.94,1.66,1.66,0,0,1,.21-.88,1.58,1.58,0,0,1,.57-.55,3.34,3.34,0,0,1,.78-.31l.83-.18c.39-.07.67-.13.87-.18a.92.92,0,0,0,.39-.15.31.31,0,0,0,.11-.25.56.56,0,0,0-.24-.49,1.09,1.09,0,0,0-.63-.16A1.67,1.67,0,0,0,36,10a.88.88,0,0,0-.4.32,1.1,1.1,0,0,0-.14.65l-1.6-.11a2.28,2.28,0,0,1,.21-1.16A1.73,1.73,0,0,1,34.75,9a2.72,2.72,0,0,1,.89-.38,4.49,4.49,0,0,1,1-.11A2.84,2.84,0,0,1,38,8.85a2,2,0,0,1,.84,1,3.71,3.71,0,0,1,.27,1.49v3.26H37.6V12.87h-.07a1.93,1.93,0,0,1-.33.92,2.05,2.05,0,0,1-.74.66A2.16,2.16,0,0,1,35.4,14.7Zm.74-1.31a1.26,1.26,0,0,0,.41-.07,1.33,1.33,0,0,0,.41-.24,1.25,1.25,0,0,0,.32-.46,2,2,0,0,0,.12-.73v-.27l.3,0a.55.55,0,0,1-.3.23,1.91,1.91,0,0,1-.46.14l-.52.1a3.36,3.36,0,0,0-.48.14.92.92,0,0,0-.36.22.52.52,0,0,0-.14.38.5.5,0,0,0,.21.44A.79.79,0,0,0,36.14,13.39Z"/><path class="cls-2" d="M39.89,14.55V8.68h1.52v2.39h.09a4.73,4.73,0,0,1,.29-1.43,1.84,1.84,0,0,1,.63-.84,1.88,1.88,0,0,1,1-.28,1.7,1.7,0,0,1,1.44.64,3.1,3.1,0,0,1,.48,1.89v3.5h-1.8V11.28a1.78,1.78,0,0,0-.18-.9.65.65,0,0,0-.59-.3.88.88,0,0,0-.59.23,1.64,1.64,0,0,0-.4.76,5.75,5.75,0,0,0-.14,1.4v2.08Z"/><path class="cls-2" d="M48.46,16.3a6.54,6.54,0,0,1-1.57-.15,1.61,1.61,0,0,1-.82-.43.88.88,0,0,1-.25-.63.94.94,0,0,1,.39-.78,2.52,2.52,0,0,1,1.14-.41v-.05a1.7,1.7,0,0,1-.89-.2.6.6,0,0,1-.33-.54.74.74,0,0,1,.3-.57,1.45,1.45,0,0,1,1-.26V12.2a1.77,1.77,0,0,1-1-.55,1.62,1.62,0,0,1-.35-1.07,1.73,1.73,0,0,1,.29-1,2,2,0,0,1,.87-.66,3.47,3.47,0,0,1,1.37-.24h2.93v1.38l-2-.26v.09a2.4,2.4,0,0,1,1.25.42.92.92,0,0,1,.32.7,1.16,1.16,0,0,1-.25.74,1.59,1.59,0,0,1-.77.5,3.84,3.84,0,0,1-1.32.19,4.19,4.19,0,0,1-.5,0,2.47,2.47,0,0,1-.43-.06,1.11,1.11,0,0,0-.29.16.21.21,0,0,0-.1.17s0,.07,0,.08a.22.22,0,0,0,.13,0h2l.58,0a2.47,2.47,0,0,1,.7.17,1.32,1.32,0,0,1,.59.46,1.57,1.57,0,0,1,.23.91,1.66,1.66,0,0,1-.35,1.09,2.12,2.12,0,0,1-1.06.63A6.56,6.56,0,0,1,48.46,16.3Zm0-1.57a9.51,9.51,0,0,0,1.1-.05,1.19,1.19,0,0,0,.47-.14.27.27,0,0,0,.11-.2.33.33,0,0,0-.09-.25.61.61,0,0,0-.22-.13,1.26,1.26,0,0,0-.27,0h-1.7a2.06,2.06,0,0,0-.49.23.31.31,0,0,0-.12.24.24.24,0,0,0,.15.23,1.1,1.1,0,0,0,.42.09A5.85,5.85,0,0,0,48.46,14.73Zm.19-3.27a.73.73,0,0,0,.55-.22.92.92,0,0,0,.19-.62.89.89,0,0,0-.2-.62.75.75,0,0,0-1.1,0,.9.9,0,0,0-.21.62,1.06,1.06,0,0,0,.09.45.73.73,0,0,0,.26.29A.87.87,0,0,0,48.65,11.46Z"/><path class="cls-2" d="M56.57,14.7a2,2,0,0,1-1.14-.34,2.37,2.37,0,0,1-.8-1,4.65,4.65,0,0,1-.29-1.76,4.57,4.57,0,0,1,.27-1.69,2.06,2.06,0,0,1,.75-1,2,2,0,0,1,1.15-.34,1.87,1.87,0,0,1,.9.21,1.75,1.75,0,0,1,.65.67,3.49,3.49,0,0,1,.36,1.19h.1c0-.25-.08-.5-.11-.74s-.07-.49-.09-.72,0-.44,0-.64V6.77h1.8v7.78H58.53V12.74h-.08a3.34,3.34,0,0,1-.37,1.08,1.8,1.8,0,0,1-.62.66A1.7,1.7,0,0,1,56.57,14.7Zm.64-1.43a.88.88,0,0,0,.41-.1,1,1,0,0,0,.35-.29,1.38,1.38,0,0,0,.25-.5,2.17,2.17,0,0,0,.1-.71v-.08a2.12,2.12,0,0,0-.07-.59,1.32,1.32,0,0,0-.18-.45,1.25,1.25,0,0,0-.25-.3,1.05,1.05,0,0,0-.31-.17A.89.89,0,0,0,57.2,10a.77.77,0,0,0-.58.24,1.37,1.37,0,0,0-.35.6,3,3,0,0,0-.11.81,2.58,2.58,0,0,0,.12.8,1.4,1.4,0,0,0,.36.58A.77.77,0,0,0,57.21,13.27Z"/><path class="cls-2" d="M61.79,8.26A1.26,1.26,0,0,1,61,8a.76.76,0,0,1-.27-.63A.78.78,0,0,1,61,6.77a1.26,1.26,0,0,1,.79-.21,1.22,1.22,0,0,1,.79.22.77.77,0,0,1,.27.63.74.74,0,0,1-.27.62A1.22,1.22,0,0,1,61.79,8.26Zm-.89,6.29V8.68h1.8v5.87Z"/><path class="cls-2" d="M63.5,14.55V8.68h1.55V11h.09a5.92,5.92,0,0,1,.26-1.47,1.71,1.71,0,0,1,.49-.77,1.07,1.07,0,0,1,.66-.22,1.51,1.51,0,0,1,.42,0,1.78,1.78,0,0,1,.43.18l-.09,2a2.05,2.05,0,0,0-.48-.22,1.39,1.39,0,0,0-.44-.07.92.92,0,0,0-.6.2,1.14,1.14,0,0,0-.37.59,2.88,2.88,0,0,0-.13.94v2.33Z"/><path class="cls-2" d="M70.6,14.7a3.54,3.54,0,0,1-1.39-.24,2.19,2.19,0,0,1-.91-.65,2.61,2.61,0,0,1-.49-1,4.15,4.15,0,0,1-.15-1.12,4.44,4.44,0,0,1,.16-1.22,2.86,2.86,0,0,1,.5-1,2.41,2.41,0,0,1,.88-.72,3,3,0,0,1,1.29-.26,3,3,0,0,1,1.3.26,2.35,2.35,0,0,1,.86.73,2.56,2.56,0,0,1,.41,1.08,3.92,3.92,0,0,1,0,1.32L68.78,12V11L71.66,11l-.24.56a2.43,2.43,0,0,0,0-.86,1,1,0,0,0-.31-.53,1,1,0,0,0-.61-.19,1,1,0,0,0-.66.22,1.18,1.18,0,0,0-.34.59,3.52,3.52,0,0,0-.1.91,2.26,2.26,0,0,0,.3,1.31,1.08,1.08,0,0,0,.92.41,1.18,1.18,0,0,0,.45-.07.73.73,0,0,0,.29-.19.81.81,0,0,0,.15-.31,1.82,1.82,0,0,0,0-.42l1.64.09a2.15,2.15,0,0,1-.07.75,1.76,1.76,0,0,1-.4.73,2.09,2.09,0,0,1-.8.54A3.52,3.52,0,0,1,70.6,14.7Z"/><path class="cls-2" d="M76.59,14.7a3.43,3.43,0,0,1-1.35-.24,2.26,2.26,0,0,1-.93-.66,2.79,2.79,0,0,1-.52-1,4,4,0,0,1-.17-1.16,4.1,4.1,0,0,1,.17-1.18,2.9,2.9,0,0,1,.52-1,2.37,2.37,0,0,1,.91-.7,3.22,3.22,0,0,1,1.35-.26,2.93,2.93,0,0,1,1.51.35,2,2,0,0,1,.8.91A2.2,2.2,0,0,1,79,11l-1.55.12a1.64,1.64,0,0,0-.08-.66.89.89,0,0,0-.32-.39,1,1,0,0,0-.51-.13,1.21,1.21,0,0,0-.48.1.91.91,0,0,0-.34.31,1.66,1.66,0,0,0-.21.52,3.15,3.15,0,0,0-.07.74,3.4,3.4,0,0,0,.12,1,1.34,1.34,0,0,0,.39.61,1,1,0,0,0,.66.21.82.82,0,0,0,.9-.71,1.52,1.52,0,0,0,0-.6l1.65.08a2.53,2.53,0,0,1,0,.95,1.91,1.91,0,0,1-.43.82,2.07,2.07,0,0,1-.84.58A3.52,3.52,0,0,1,76.59,14.7Z"/><path class="cls-2" d="M82.12,14.68a2,2,0,0,1-1.54-.53,2.27,2.27,0,0,1-.51-1.64V10.08h-.64V9h0a1.41,1.41,0,0,0,1-.47,2.09,2.09,0,0,0,.35-1.12v0h1.06V8.68H83.2v1.44H81.85v2.23a.75.75,0,0,0,.21.6.71.71,0,0,0,.5.18,1.19,1.19,0,0,0,.32-.05A1.52,1.52,0,0,0,83.2,13v1.57a4.75,4.75,0,0,1-.62.12Z"/><path class="cls-2" d="M89.64,14.7a1.61,1.61,0,0,1-1.5-.88,3.59,3.59,0,0,1-.38-1.08h-.07v1.81H86.12V6.77h1.8V8.49c0,.2,0,.41,0,.64s0,.47-.08.72-.07.49-.11.74h.1a3.29,3.29,0,0,1,.35-1.19,1.7,1.7,0,0,1,.66-.67,1.94,1.94,0,0,1,.91-.21,1.9,1.9,0,0,1,1.14.34,2.12,2.12,0,0,1,.75,1,4.48,4.48,0,0,1,.27,1.68,4.51,4.51,0,0,1-.3,1.77,2.24,2.24,0,0,1-.8,1A1.94,1.94,0,0,1,89.64,14.7ZM89,13.27a.8.8,0,0,0,.57-.22,1.33,1.33,0,0,0,.35-.58,2.47,2.47,0,0,0,.12-.79,2.65,2.65,0,0,0-.11-.81,1.39,1.39,0,0,0-.34-.61A.79.79,0,0,0,89,10a1,1,0,0,0-.32.06.9.9,0,0,0-.3.17,1.53,1.53,0,0,0-.25.3A1.91,1.91,0,0,0,88,11a2.61,2.61,0,0,0-.06.59v.08a2.5,2.5,0,0,0,.09.71,1.56,1.56,0,0,0,.25.5,1,1,0,0,0,.36.29A.86.86,0,0,0,89,13.27Z"/><path class="cls-2" d="M95.26,14.7a3.2,3.2,0,0,1-1.51-.34,2.39,2.39,0,0,1-1-1,3.65,3.65,0,0,1-.36-1.72,3.56,3.56,0,0,1,.38-1.76,2.41,2.41,0,0,1,1-1,3.57,3.57,0,0,1,3,0,2.42,2.42,0,0,1,1,1,3.73,3.73,0,0,1,.36,1.73,3.68,3.68,0,0,1-.38,1.77,2.41,2.41,0,0,1-1,1A3.29,3.29,0,0,1,95.26,14.7Zm0-1.32a.88.88,0,0,0,.58-.19,1.22,1.22,0,0,0,.35-.58,2.67,2.67,0,0,0,.13-.9,3,3,0,0,0-.14-1,1.39,1.39,0,0,0-.38-.61.92.92,0,0,0-.61-.21.83.83,0,0,0-.56.2,1.17,1.17,0,0,0-.36.57,3,3,0,0,0-.12.91,2.49,2.49,0,0,0,.29,1.31A.93.93,0,0,0,95.3,13.38Z"/><path class="cls-2" d="M100.9,14.7a2,2,0,0,1-1.14-.34,2.37,2.37,0,0,1-.8-1,4.65,4.65,0,0,1-.29-1.76,4.57,4.57,0,0,1,.27-1.69,2.06,2.06,0,0,1,.75-1,2,2,0,0,1,1.15-.34,1.87,1.87,0,0,1,.9.21,1.75,1.75,0,0,1,.65.67,3.49,3.49,0,0,1,.36,1.19h.1c0-.25-.08-.5-.11-.74s-.07-.49-.09-.72,0-.44,0-.64V6.77h1.8v7.78h-1.57V12.74h-.08a3.34,3.34,0,0,1-.37,1.08,1.8,1.8,0,0,1-.62.66A1.7,1.7,0,0,1,100.9,14.7Zm.64-1.43a.88.88,0,0,0,.41-.1,1,1,0,0,0,.35-.29,1.38,1.38,0,0,0,.25-.5,2.17,2.17,0,0,0,.1-.71v-.08a2.12,2.12,0,0,0-.07-.59,1.32,1.32,0,0,0-.18-.45,1.25,1.25,0,0,0-.25-.3,1.05,1.05,0,0,0-.31-.17.89.89,0,0,0-.31-.06.77.77,0,0,0-.58.24,1.37,1.37,0,0,0-.35.6,3,3,0,0,0-.11.81,2.58,2.58,0,0,0,.12.8,1.4,1.4,0,0,0,.36.58A.77.77,0,0,0,101.54,13.27Z"/></g></g></svg>