<svg xmlns="http://www.w3.org/2000/svg" xmlns:xlink="http://www.w3.org/1999/xlink" viewBox="0 0 191.29 115.39"><defs><style>.cls-1{stroke-width:3.89px;fill:url(#linear-gradient);stroke:url(#linear-gradient);}</style><linearGradient id="linear-gradient" x1="182.53" y1="-164.75" x2="30.13" y2="-305.94" gradientTransform="matrix(1, 0, 0, -1, 0, -166.11)" gradientUnits="userSpaceOnUse"><stop offset="0.3" stop-color="#1f90fb"/><stop offset="1" stop-color="#095db3"/></linearGradient></defs><g id="Layer_2" data-name="Layer 2"><g id="Layer_1-2" data-name="Layer 1"><path class="cls-1" d="M115.6,1.94a44.42,44.42,0,0,0-35.08,17L79.7,20h0a7.2,7.2,0,0,1-8.13,2.49A39.64,39.64,0,0,0,19,59.86a39.93,39.93,0,0,0,1.73,11.62l.53,1.6a7.23,7.23,0,0,1-5.13,9.41l-.72.13h0a15.48,15.48,0,0,0,2.05,30.82l147.93,0a24,24,0,0,0,.83-48h0a7.31,7.31,0,0,1-4.93-2.06,7.19,7.19,0,0,1-2-6.72,44.85,44.85,0,0,0,1.09-9.94V45.55A44.79,44.79,0,0,0,115.6,1.94Z"/></g></g></svg>