<svg xmlns="http://www.w3.org/2000/svg" xmlns:xlink="http://www.w3.org/1999/xlink" viewBox="0 0 146.56 47.63"><defs><style>.cls-1{fill:url(#linear-gradient);}.cls-2{fill:#fff;}</style><linearGradient id="linear-gradient" x1="3.24" y1="102.02" x2="146.28" y2="53.75" gradientTransform="matrix(1, 0, 0, -1, 0, 102.2)" gradientUnits="userSpaceOnUse"><stop offset="0" stop-color="#ed2e26"/><stop offset="1" stop-color="#de241d"/></linearGradient></defs><g id="Layer_2" data-name="Layer 2"><g id="Layer_1-2" data-name="Layer 1"><path class="cls-1" d="M23.82,0h98.92a23.81,23.81,0,0,1,23.82,23.82h0a23.81,23.81,0,0,1-23.82,23.81H23.82A23.81,23.81,0,0,1,0,23.82H0A23.81,23.81,0,0,1,23.82,0Z"/><path class="cls-2" d="M26.42,30.63V18.47H29.1V28.2h6.06v2.43Zm14.38.21A4.67,4.67,0,0,1,35.93,26v0a4.64,4.64,0,0,1,4.61-4.85c3.11,0,4.53,2.42,4.53,5.06,0,.21,0,.45,0,.69H38.56a2.16,2.16,0,0,0,2.27,1.83,3,3,0,0,0,2.26-1L44.6,29.1A4.65,4.65,0,0,1,40.8,30.84Zm-2.28-5.6h4a2,2,0,0,0-2-2A2.08,2.08,0,0,0,38.52,25.24ZM49.33,30.8c-1.75,0-3.2-1-3.2-2.85v0c0-2,1.55-3,3.76-3a6.52,6.52,0,0,1,2.27.38v-.16c0-1.09-.68-1.7-2-1.7a6.73,6.73,0,0,0-2.57.51l-.66-2a8.29,8.29,0,0,1,3.62-.75,4.29,4.29,0,0,1,3.14,1.05,4,4,0,0,1,1,3v5.4H52.14v-1A3.57,3.57,0,0,1,49.33,30.8Zm.8-1.82c1.23,0,2.07-.68,2.07-1.64v-.46a4.13,4.13,0,0,0-1.69-.35c-1.13,0-1.82.45-1.82,1.28v0C48.69,28.56,49.28,29,50.13,29Zm6.49,1.65V21.32h2.64v1.87a2.88,2.88,0,0,1,3-2.05v2.77h-.14c-1.75,0-2.83,1.06-2.83,3.28v3.44Zm6.92,0V21.32h2.64v1.32a3.29,3.29,0,0,1,2.72-1.5c2,0,3.16,1.32,3.16,3.46v6H69.42v-5.2c0-1.25-.59-1.89-1.59-1.89s-1.65.64-1.65,1.89v5.2Zm15.61,0V18.47H82l3.2,5.14,3.19-5.14h2.89V30.63H88.65V22.69l-3.42,5.19h-.07l-3.39-5.14v7.89Zm19,.21a4.85,4.85,0,0,1-5-4.82v0a4.9,4.9,0,0,1,5.06-4.85,4.85,4.85,0,0,1,5,4.82v0A4.89,4.89,0,0,1,98.17,30.84Zm0-2.28A2.38,2.38,0,0,0,100.62,26v0a2.47,2.47,0,0,0-2.45-2.57A2.38,2.38,0,0,0,95.76,26v0A2.47,2.47,0,0,0,98.21,28.56Zm6.58,2.07V21.32h2.64v1.87a2.88,2.88,0,0,1,3-2.05v2.77h-.14c-1.75,0-2.83,1.06-2.83,3.28v3.44Zm11.07.21A4.66,4.66,0,0,1,111,26v0a4.63,4.63,0,0,1,4.6-4.85c3.11,0,4.54,2.42,4.54,5.06,0,.21,0,.45,0,.69h-6.48a2.17,2.17,0,0,0,2.28,1.83,3.06,3.06,0,0,0,2.26-1l1.51,1.34A4.66,4.66,0,0,1,115.86,30.84Zm-2.27-5.6h4a2,2,0,0,0-2-2A2.07,2.07,0,0,0,113.59,25.24Z"/></g></g></svg>