<svg xmlns="http://www.w3.org/2000/svg" viewBox="0 0 203.18 151.13"><defs><style>.cls-1{fill:#262626;}</style></defs><g id="Layer_2" data-name="Layer 2"><g id="Layer_1-2" data-name="Layer 1"><path class="cls-1" d="M21.5,23V3.25H14.07V1H31.43v2.3H24V23Zm17.61.38a8.35,8.35,0,0,1-8.45-8.45v-.06a8.5,8.5,0,0,1,17-.07v.07A8.47,8.47,0,0,1,39.11,23.39Zm.06-2.18a6,6,0,0,0,6-6.27v-.06a6.17,6.17,0,0,0-6-6.37,6,6,0,0,0-6,6.3v.07A6.12,6.12,0,0,0,39.17,21.21ZM57.5,23.29c-2.62,0-4.6-1.29-4.6-4.6V8.86H50.63V6.71H52.9V1.8h2.42V6.71h5.17V8.86H55.32v9.51a2.41,2.41,0,0,0,2.74,2.71,5.11,5.11,0,0,0,2.37-.56V22.6A6.13,6.13,0,0,1,57.5,23.29Zm12.14.06c-3,0-6.08-1.73-6.08-5.07v-.06c0-3.44,2.83-5.27,7-5.27a17.27,17.27,0,0,1,5,.7v-.57c0-2.93-1.79-4.44-4.85-4.44a11.43,11.43,0,0,0-5,1.19l-.72-2a13.42,13.42,0,0,1,5.92-1.36,7.16,7.16,0,0,1,5.27,1.8,6.44,6.44,0,0,1,1.67,4.76V23H75.53V20.55A7.12,7.12,0,0,1,69.64,23.35Zm.47-1.92c3,0,5.46-1.83,5.46-4.41V15.44a17.3,17.3,0,0,0-4.79-.69c-3.06,0-4.76,1.32-4.76,3.37v.06C66,20.23,67.91,21.43,70.11,21.43ZM83.26,23V0h2.43V23Zm18.55.38A11,11,0,0,1,90.75,12V12A11.11,11.11,0,0,1,101.91.57a11.48,11.48,0,0,1,8.6,3.5l-1.7,1.82a9.6,9.6,0,0,0-6.93-3c-4.89,0-8.55,4-8.55,9V12c0,5.1,3.69,9.1,8.55,9.1,3,0,5-1.16,7.12-3.18l1.64,1.61A11.5,11.5,0,0,1,101.81,23.39ZM114.93,23V0h2.43V23Zm15.5.38A8.35,8.35,0,0,1,122,14.94v-.06a8.5,8.5,0,0,1,17-.07v.07A8.47,8.47,0,0,1,130.43,23.39Zm.06-2.18a6,6,0,0,0,6-6.27v-.06a6.17,6.17,0,0,0-6-6.37,6,6,0,0,0-6,6.3v.07A6.11,6.11,0,0,0,130.49,21.21Zm18.86,2.14c-3.94,0-6.24-2.64-6.24-6.52V6.71h2.43v9.52c0,3,1.64,4.92,4.5,4.92A4.81,4.81,0,0,0,154.93,16V6.71h2.39V23h-2.39V20.17A6.19,6.19,0,0,1,149.35,23.35Zm20.27,0c-3.91,0-7.78-3.09-7.78-8.44v-.07c0-5.32,3.87-8.47,7.78-8.47a7.36,7.36,0,0,1,6.24,3.46V0h2.43V23h-2.43V19.73A7.32,7.32,0,0,1,169.62,23.35Zm.44-2.17a6.08,6.08,0,0,0,5.9-6.3v-.07a6.06,6.06,0,0,0-5.9-6.27c-3.15,0-5.73,2.33-5.73,6.27v.07C164.33,18.72,167,21.18,170.06,21.18ZM26.62,52.75V36.45h2.43v2.74a6,6,0,0,1,5.27-3.09,5.55,5.55,0,0,1,5.23,3.25,6.48,6.48,0,0,1,5.73-3.25c3.75,0,6,2.53,6,6.56V52.75H48.91V43.23c0-3.15-1.58-4.92-4.23-4.92-2.45,0-4.5,1.83-4.5,5v9.4h-2.4V43.16c0-3-1.61-4.85-4.19-4.85s-4.54,2.14-4.54,5.14v9.3Zm34.74.34c-3,0-6.08-1.73-6.08-5.07V48c0-3.43,2.84-5.26,7-5.26a17.27,17.27,0,0,1,5,.7v-.57c0-2.93-1.8-4.45-4.86-4.45a11.44,11.44,0,0,0-4.95,1.2l-.72-2a13.46,13.46,0,0,1,5.93-1.36A7.14,7.14,0,0,1,67.92,38a6.44,6.44,0,0,1,1.67,4.76v10H67.26V50.29A7.16,7.16,0,0,1,61.36,53.09Zm.48-1.92c3,0,5.45-1.83,5.45-4.41V45.18a16.93,16.93,0,0,0-4.79-.69c-3.06,0-4.76,1.32-4.76,3.37v.06C57.74,50,59.63,51.17,61.84,51.17Zm12.92,6.62V36.45h2.43v3.28a7.33,7.33,0,0,1,6.24-3.63c3.91,0,7.78,3.09,7.78,8.45v.06c0,5.33-3.84,8.48-7.78,8.48a7.36,7.36,0,0,1-6.24-3.46v8.16ZM83,50.92c3.15,0,5.73-2.33,5.73-6.27v-.07c0-3.84-2.64-6.3-5.73-6.3a6.08,6.08,0,0,0-5.9,6.27v.06A6.07,6.07,0,0,0,83,50.92Zm18.09,2.14a11.23,11.23,0,0,1-6.75-2.39l1.23-1.74A9.5,9.5,0,0,0,101.2,51c2,0,3.38-1,3.38-2.58v-.07c0-1.63-1.92-2.26-4.07-2.86-2.55-.73-5.39-1.61-5.39-4.6v-.07c0-2.8,2.34-4.66,5.55-4.66A11.14,11.14,0,0,1,106.53,38l-1.1,1.83a9.27,9.27,0,0,0-4.82-1.57c-1.93,0-3.15,1-3.15,2.36v.06c0,1.55,2,2.15,4.19,2.81,2.52.75,5.23,1.73,5.23,4.66v.07C106.88,51.26,104.33,53.06,101.08,53.06ZM119,52.4V36.1h2.43v4.26A7,7,0,0,1,128,35.82v2.62h-.19c-3.56,0-6.46,2.55-6.46,7.47V52.4Zm19.19.38A8.1,8.1,0,0,1,130,44.3v-.06c0-4.7,3.31-8.48,7.81-8.48,4.83,0,7.6,3.84,7.6,8.6a6.61,6.61,0,0,1,0,.79H132.47a5.68,5.68,0,0,0,5.73,5.52,6.74,6.74,0,0,0,5.14-2.31l1.51,1.36A8.4,8.4,0,0,1,138.14,52.78Zm-5.67-9.43H143c-.25-3-2-5.54-5.2-5.54C134.93,37.81,132.78,40.17,132.47,43.35Zm22.05,9.4c-3,0-6.08-1.74-6.08-5.08v-.06c0-3.44,2.84-5.26,7-5.26a17.32,17.32,0,0,1,5,.69v-.57c0-2.93-1.8-4.44-4.86-4.44a11.43,11.43,0,0,0-4.95,1.19l-.72-2a13.45,13.45,0,0,1,5.92-1.36,7.16,7.16,0,0,1,5.27,1.8,6.44,6.44,0,0,1,1.67,4.76v10h-2.33V49.94A7.16,7.16,0,0,1,154.52,52.75Zm.47-1.93c3,0,5.46-1.83,5.46-4.41V44.83a17.3,17.3,0,0,0-4.79-.69c-3.06,0-4.76,1.33-4.76,3.37v.07C150.9,49.63,152.79,50.82,155,50.82Zm13.15,1.58v-23h2.43v23ZM12.07,85.46C9,85.46,6,83.72,6,80.38v-.06c0-3.43,2.83-5.26,7-5.26a17.29,17.29,0,0,1,5,.69v-.57c0-2.93-1.79-4.44-4.85-4.44a11.3,11.3,0,0,0-4.95,1.2l-.72-2a13.41,13.41,0,0,1,5.92-1.35,7.2,7.2,0,0,1,5.27,1.79,6.46,6.46,0,0,1,1.67,4.76v10H18V82.65A7.13,7.13,0,0,1,12.07,85.46Zm.47-1.92c3,0,5.45-1.83,5.45-4.42V77.55a16.77,16.77,0,0,0-4.79-.7c-3,0-4.75,1.33-4.75,3.38v.06C8.45,82.34,10.34,83.54,12.54,83.54Zm18.23,1.85c-2.62,0-4.6-1.29-4.6-4.6V71H23.9V68.82h2.27V63.9h2.42v4.92h5.17V71H28.59v9.52a2.41,2.41,0,0,0,2.74,2.71,5.12,5.12,0,0,0,2.37-.57V84.7A6.13,6.13,0,0,1,30.77,85.39Zm12.74,0c-2.62,0-4.6-1.29-4.6-4.6V71H36.64V68.82h2.27V63.9h2.42v4.92H46.5V71H41.33v9.52a2.41,2.41,0,0,0,2.74,2.71,5.12,5.12,0,0,0,2.37-.57V84.7A6.13,6.13,0,0,1,43.51,85.39Zm12.14.07c-3,0-6.08-1.74-6.08-5.08v-.06c0-3.43,2.84-5.26,7-5.26a17.24,17.24,0,0,1,5,.69v-.57c0-2.93-1.79-4.44-4.85-4.44a11.3,11.3,0,0,0-4.95,1.2L51,70a13.41,13.41,0,0,1,5.92-1.35,7.2,7.2,0,0,1,5.27,1.79,6.46,6.46,0,0,1,1.67,4.76v10H61.54V82.65A7.13,7.13,0,0,1,55.65,85.46Zm.47-1.92c3,0,5.46-1.83,5.46-4.42V77.55a16.89,16.89,0,0,0-4.79-.7c-3.06,0-4.76,1.33-4.76,3.38v.06C52,82.34,53.92,83.54,56.12,83.54Zm20.27,1.95A8.37,8.37,0,0,1,68,77V77a8.49,8.49,0,0,1,14.88-5.61l-1.61,1.7a6.59,6.59,0,0,0-5-2.46,6,6,0,0,0-5.83,6.31V77a6.08,6.08,0,0,0,6,6.33,6.74,6.74,0,0,0,5-2.42L83,82.34A8.39,8.39,0,0,1,76.39,85.49Zm10.66-.38v-23h2.43V78l8.79-9.17h3l-6.84,7,7.06,9.3h-2.9l-5.83-7.59-3.31,3.34v4.25ZM112.13,88V66.65h2.43v3.28a7.3,7.3,0,0,1,6.24-3.63c3.91,0,7.78,3.09,7.78,8.45v.06c0,5.33-3.84,8.48-7.78,8.48a7.34,7.34,0,0,1-6.24-3.47V88Zm8.23-6.87c3.15,0,5.73-2.34,5.73-6.28v-.06c0-3.84-2.64-6.3-5.73-6.3a6.08,6.08,0,0,0-5.9,6.27v.06A6.07,6.07,0,0,0,120.36,81.12Zm17.55,2.17c-3,0-6.08-1.73-6.08-5.07v-.07c0-3.43,2.84-5.26,7-5.26a17.29,17.29,0,0,1,5,.69V73c0-2.93-1.8-4.45-4.86-4.45a11.36,11.36,0,0,0-4.94,1.2l-.73-2a13.6,13.6,0,0,1,5.93-1.35,7.14,7.14,0,0,1,5.26,1.8A6.42,6.42,0,0,1,146.14,73v10h-2.33V80.49A7.16,7.16,0,0,1,137.91,83.29Zm.48-1.92c3,0,5.45-1.83,5.45-4.41V75.38a16.93,16.93,0,0,0-4.79-.69c-3.06,0-4.76,1.32-4.76,3.37v.06C134.29,80.17,136.18,81.37,138.39,81.37Zm18.22,1.86c-2.62,0-4.6-1.29-4.6-4.6V68.79h-2.27V66.65H152V61.73h2.43v4.92h5.16v2.14h-5.16v9.52c0,2,1.1,2.71,2.74,2.71a5.08,5.08,0,0,0,2.36-.57v2.08A6,6,0,0,1,156.61,83.23Zm7.29-.29v-23h2.43v9.55a6.16,6.16,0,0,1,5.58-3.19c3.93,0,6.24,2.65,6.24,6.53V82.94h-2.43V73.43c0-3-1.64-4.92-4.51-4.92a4.8,4.8,0,0,0-4.88,5.11v9.32Zm24.81.32a11.13,11.13,0,0,1-6.74-2.4l1.22-1.73a9.57,9.57,0,0,0,5.65,2.08c1.95,0,3.37-1,3.37-2.58v-.07c0-1.64-1.92-2.27-4.07-2.86-2.55-.73-5.39-1.61-5.39-4.61V71c0-2.8,2.34-4.66,5.55-4.66a11.14,11.14,0,0,1,5.86,1.79L193.06,70a9.18,9.18,0,0,0-4.82-1.57c-1.93,0-3.15,1-3.15,2.36v.06c0,1.55,2,2.14,4.19,2.81,2.52.75,5.23,1.73,5.23,4.66v.06C194.51,81.46,192,83.26,188.71,83.26Zm9.42,3.53-.37-1.1c1.57-.57,2.23-1.39,2.11-2.75h-1.14V79.63h2.9v2.84C201.63,85,200.53,86.25,198.13,86.79Zm-192,29.67c-3,0-6.08-1.73-6.08-5.07v-.06c0-3.44,2.84-5.27,7-5.27a17.27,17.27,0,0,1,5,.7v-.57c0-2.93-1.8-4.44-4.86-4.44a11.43,11.43,0,0,0-4.95,1.19l-.72-2A13.45,13.45,0,0,1,7.37,99.6a7.15,7.15,0,0,1,5.27,1.8,6.44,6.44,0,0,1,1.67,4.76v10H12v-2.46A7.16,7.16,0,0,1,6.08,116.46Zm.48-1.92c3,0,5.45-1.83,5.45-4.41v-1.58a17.3,17.3,0,0,0-4.79-.69c-3.06,0-4.76,1.32-4.76,3.37v.06C2.46,113.34,4.35,114.54,6.56,114.54Zm12.92,1.58V99.82h2.43v2.84a6.15,6.15,0,0,1,5.58-3.18c3.93,0,6.24,2.64,6.24,6.52v10.12H31.3V106.6c0-3-1.64-4.92-4.51-4.92a4.8,4.8,0,0,0-4.88,5.11v9.33Zm26.26.34c-3.91,0-7.78-3.09-7.78-8.44V108c0-5.32,3.87-8.47,7.78-8.47A7.33,7.33,0,0,1,52,102.94V93.11h2.43v23H52v-3.28A7.33,7.33,0,0,1,45.74,116.46Zm.44-2.17a6.08,6.08,0,0,0,5.89-6.3v-.07a6,6,0,0,0-5.89-6.27c-3.15,0-5.73,2.33-5.73,6.27V108C40.45,111.83,43.09,114.29,46.18,114.29Zm21.12,6.87V99.82h2.42v3.28A7.34,7.34,0,0,1,76,99.48c3.91,0,7.79,3.08,7.79,8.44V108c0,5.32-3.85,8.47-7.79,8.47A7.37,7.37,0,0,1,69.72,113v8.16Zm8.22-6.87c3.15,0,5.74-2.33,5.74-6.27V108c0-3.84-2.65-6.3-5.74-6.3a6.07,6.07,0,0,0-5.89,6.27V108A6.06,6.06,0,0,0,75.52,114.29Zm12.71,1.83V99.82h2.42v4.26c1.2-2.71,3.56-4.67,6.65-4.54v2.61h-.19c-3.56,0-6.46,2.56-6.46,7.47v6.5Zm12.83-19.86V93.58h2.77v2.68Zm.16,19.86V99.82h2.43v16.3Zm15.49.37a8.34,8.34,0,0,1-8.44-8.44V108a8.49,8.49,0,0,1,17-.07V108A8.45,8.45,0,0,1,116.71,116.49Zm.07-2.17a6,6,0,0,0,6-6.27V108a6.17,6.17,0,0,0-6.06-6.37,6,6,0,0,0-5.95,6.3V108A6.11,6.11,0,0,0,116.78,114.32Zm12.87,1.8V99.82h2.43v4.26c1.2-2.71,3.56-4.67,6.65-4.54v2.61h-.19c-3.56,0-6.46,2.56-6.46,7.47v6.5Zm12.84-19.86V93.58h2.77v2.68Zm.15,19.86V99.82h2.43v16.3Zm13.52.28c-2.62,0-4.61-1.29-4.61-4.6V102h-2.27V99.82h2.27V94.91H154v4.91h5.17V102H154v9.51c0,2,1.1,2.71,2.74,2.71a5.11,5.11,0,0,0,2.37-.56v2.08A6.13,6.13,0,0,1,156.16,116.4Zm7.35-20.14V93.58h2.77v2.68Zm.16,19.86V99.82h2.42v16.3Zm7.11,0v-1.55l10.81-12.7H171.16V99.82H184.9v1.55l-10.84,12.7H184.9v2.05Zm25.12.37a8.09,8.09,0,0,1-8.13-8.47V108c0-4.69,3.31-8.47,7.81-8.47,4.82,0,7.6,3.84,7.6,8.6a6.7,6.7,0,0,1,0,.79H190.23a5.68,5.68,0,0,0,5.73,5.51,6.73,6.73,0,0,0,5.14-2.3l1.51,1.36A8.39,8.39,0,0,1,195.9,116.49Zm-5.67-9.42h10.49c-.25-3-1.95-5.55-5.2-5.55C192.68,101.52,190.54,103.89,190.23,107.07ZM69.17,150.81V134.52H71.6v4.25a7,7,0,0,1,6.65-4.54v2.62h-.19c-3.56,0-6.46,2.55-6.46,7.47v6.49ZM82,131v-2.68h2.77V131Zm.16,19.85V134.52h2.42v16.29Zm13.44.32a11.22,11.22,0,0,1-6.74-2.4L90.1,147a9.54,9.54,0,0,0,5.64,2.08c2,0,3.37-1,3.37-2.59v-.06c0-1.64-1.92-2.27-4.06-2.87-2.56-.72-5.39-1.6-5.39-4.6v-.06c0-2.81,2.33-4.67,5.54-4.67a11.18,11.18,0,0,1,5.87,1.8L100,137.86a9.17,9.17,0,0,0-4.82-1.58c-1.92,0-3.15,1-3.15,2.37v.06c0,1.54,2,2.14,4.19,2.8,2.52.76,5.23,1.74,5.23,4.67v.06C101.41,149.33,98.86,151.13,95.61,151.13Zm10.31-.32v-23h2.43v15.89l8.79-9.17h3l-6.84,7,7.06,9.3h-2.9l-5.83-7.59-3.31,3.34v4.25Zm23.12.32a11.25,11.25,0,0,1-6.75-2.4l1.23-1.73a9.56,9.56,0,0,0,5.64,2.08c2,0,3.38-1,3.38-2.59v-.06c0-1.64-1.93-2.27-4.07-2.87-2.55-.72-5.39-1.6-5.39-4.6v-.06c0-2.81,2.33-4.67,5.55-4.67a11.18,11.18,0,0,1,5.86,1.8l-1.1,1.83a9.19,9.19,0,0,0-4.82-1.58c-1.93,0-3.16,1-3.16,2.37v.06c0,1.54,2,2.14,4.2,2.8,2.52.76,5.23,1.74,5.23,4.67v.06C134.84,149.33,132.28,151.13,129,151.13Zm10-.32V147.5h2.9v3.31Z"/></g></g></svg>