<svg xmlns="http://www.w3.org/2000/svg" viewBox="0 0 232.71 311.59"><defs><style>.cls-1,.cls-2{fill:#fff;}.cls-2{fill-rule:evenodd;}</style></defs><g id="Layer_2" data-name="Layer 2"><g id="Layer_1-2" data-name="Layer 1"><path class="cls-1" d="M33.45,74.11l2.66-9.3h2.11l2.67,9.3,1.79-9.3h2.7L42.17,78.75H39.7L37.23,69l-2.59,9.74H32.16L29,64.81h2.7Z"/><path class="cls-1" d="M49.05,78.9a3.38,3.38,0,0,1-2.39-.76,3.08,3.08,0,0,1-.8-2.32,2.72,2.72,0,0,1,.89-2.22,4.1,4.1,0,0,1,2.66-.74H51.9l.14,2H49.42a1.46,1.46,0,0,0-.89.23.87.87,0,0,0-.3.72.8.8,0,0,0,.38.72,2.13,2.13,0,0,0,1.13.24,3.91,3.91,0,0,0,1.56-.24.78.78,0,0,0,.52-.75l.2,1.45a1.37,1.37,0,0,1-.51.93,2.89,2.89,0,0,1-1.11.55A5.05,5.05,0,0,1,49.05,78.9Zm2.77-.15V72.44a1.31,1.31,0,0,0-.46-1.06A2,2,0,0,0,50.05,71a3.52,3.52,0,0,0-1.1.18,3.21,3.21,0,0,0-1,.51l-1.63-1.6A4,4,0,0,1,47.93,69a6,6,0,0,1,2.16-.37,4.4,4.4,0,0,1,3,1,3.5,3.5,0,0,1,1.08,2.74v6.39Z"/><path class="cls-1" d="M56,71V68.8H60.9V71Zm3.54,7.76a2.43,2.43,0,0,1-1.92-.68,2.89,2.89,0,0,1-.6-2V65.9h2.63v9.61a1,1,0,0,0,.14.56.51.51,0,0,0,.43.2h.65V78.8Z"/><path class="cls-1" d="M67.46,78.9a4.61,4.61,0,0,1-3.36-1.17,4.41,4.41,0,0,1-1.19-3.29V73.31a4.8,4.8,0,0,1,1.15-3.44,4.22,4.22,0,0,1,3.23-1.21,3.58,3.58,0,0,1,3.06,1.45,6.82,6.82,0,0,1,1.07,4.09v.65h-6.8V73.08H69l0-.23a2.32,2.32,0,0,0-.54-1.33A1.5,1.5,0,0,0,67.29,71a1.9,1.9,0,0,0-1.47.57,2.27,2.27,0,0,0-.52,1.6v1.27a2.1,2.1,0,0,0,.57,1.57,2.18,2.18,0,0,0,1.59.55,3.18,3.18,0,0,0,1.05-.18,3.38,3.38,0,0,0,.94-.54l1.72,1.53a5.81,5.81,0,0,1-1.75,1.1A5.23,5.23,0,0,1,67.46,78.9Z"/><path class="cls-1" d="M73.72,78.75v-10h2.82v10Zm5.6-7.18a1.13,1.13,0,0,0-.46-.29,2.17,2.17,0,0,0-.65-.09A1.53,1.53,0,0,0,77,71.7a2.13,2.13,0,0,0-.44,1.42l-.2-2.59a3.76,3.76,0,0,1,1.07-1.38,2.34,2.34,0,0,1,1.44-.49,3.08,3.08,0,0,1,1.13.19,2.5,2.5,0,0,1,.88.58Z"/><path class="cls-1" d="M20.49,94.65V80.71h2.62V94.65Zm1.32,0V92.11h3.34a2.92,2.92,0,0,0,2-.62,2.25,2.25,0,0,0,.71-1.76V85.62a2.23,2.23,0,0,0-.71-1.76,2.92,2.92,0,0,0-2-.62H21.81V80.71H25.1A5.83,5.83,0,0,1,29.16,82a4.78,4.78,0,0,1,1.43,3.69v4A5.35,5.35,0,0,1,30,92.26,4.24,4.24,0,0,1,28.14,94a6.6,6.6,0,0,1-3.05.63Z"/><path class="cls-1" d="M35.88,94.79A3.3,3.3,0,0,1,33.5,94a3.06,3.06,0,0,1-.8-2.32,2.72,2.72,0,0,1,.89-2.22,4.08,4.08,0,0,1,2.66-.73h2.49l.13,2H36.26a1.37,1.37,0,0,0-.89.24.83.83,0,0,0-.3.71.79.79,0,0,0,.38.73,2.23,2.23,0,0,0,1.12.23,3.93,3.93,0,0,0,1.57-.24.79.79,0,0,0,.51-.75l.21,1.45a1.37,1.37,0,0,1-.51.94,3,3,0,0,1-1.11.54A5.13,5.13,0,0,1,35.88,94.79Zm2.77-.14V88.34a1.3,1.3,0,0,0-.46-1.07,2,2,0,0,0-1.3-.37,3.47,3.47,0,0,0-1.1.18,2.9,2.9,0,0,0-1,.51L33.19,86a3.86,3.86,0,0,1,1.57-1.06,6,6,0,0,1,2.17-.38,4.37,4.37,0,0,1,3,1A3.5,3.5,0,0,1,41,88.25v6.4Z"/><path class="cls-1" d="M43.63,94.65v-10h2.63v10Zm5.8,0V88.9A1.89,1.89,0,0,0,49,87.56a1.78,1.78,0,0,0-2.35-.07,1.58,1.58,0,0,0-.39,1.14l-.2-2.2A3.68,3.68,0,0,1,47.14,85a2.53,2.53,0,0,1,1.57-.49,2.92,2.92,0,0,1,2.47,1.14,5.08,5.08,0,0,1,.88,3.2v5.76Zm5.8,0V88.9a1.94,1.94,0,0,0-.42-1.34,1.7,1.7,0,0,0-2.35,0,1.86,1.86,0,0,0-.4,1.29l-.49-2.3a3.67,3.67,0,0,1,1.23-1.47,2.9,2.9,0,0,1,1.66-.51A3,3,0,0,1,57,85.69a5.08,5.08,0,0,1,.89,3.2v5.76Z"/><path class="cls-1" d="M63.15,94.79A3.33,3.33,0,0,1,60.76,94,3.06,3.06,0,0,1,60,91.71a2.72,2.72,0,0,1,.88-2.22,4.1,4.1,0,0,1,2.66-.73H66l.13,2H63.52a1.41,1.41,0,0,0-.89.24.83.83,0,0,0-.3.71.81.81,0,0,0,.38.73,2.27,2.27,0,0,0,1.13.23,3.85,3.85,0,0,0,1.56-.24.78.78,0,0,0,.52-.75l.2,1.45a1.37,1.37,0,0,1-.51.94,3.06,3.06,0,0,1-1.1.54A5.13,5.13,0,0,1,63.15,94.79Zm2.77-.14V88.34a1.3,1.3,0,0,0-.46-1.07,2,2,0,0,0-1.3-.37,3.58,3.58,0,0,0-1.11.18,3,3,0,0,0-1,.51L60.46,86A3.8,3.8,0,0,1,62,84.93a6,6,0,0,1,2.16-.38,4.35,4.35,0,0,1,3,1,3.48,3.48,0,0,1,1.08,2.73v6.4Z"/><path class="cls-1" d="M74,94.79a2.94,2.94,0,0,1-2.47-1.13,5,5,0,0,1-.88-3.18V88.89a5.08,5.08,0,0,1,.88-3.2A2.92,2.92,0,0,1,74,84.55a2.46,2.46,0,0,1,1.45.47,3.39,3.39,0,0,1,1.06,1.35l-.2,2.21a1.93,1.93,0,0,0-.18-.87,1.24,1.24,0,0,0-.5-.54,1.66,1.66,0,0,0-.8-.18,1.4,1.4,0,0,0-1.15.5,2.19,2.19,0,0,0-.4,1.41v1.58a2.13,2.13,0,0,0,.4,1.39,1.44,1.44,0,0,0,1.15.48,1.66,1.66,0,0,0,.8-.18,1.2,1.2,0,0,0,.5-.52,1.8,1.8,0,0,0,.18-.84l.13,2.27a2.49,2.49,0,0,1-.94,1.26A2.51,2.51,0,0,1,74,94.79Zm.46,3.9a5.11,5.11,0,0,1-2.12-.42,3.32,3.32,0,0,1-1.45-1.17l1.76-1.62a2.45,2.45,0,0,0,.81.56,2.53,2.53,0,0,0,1,.2,2,2,0,0,0,1.33-.44,1.55,1.55,0,0,0,.54-1.26V84.69h2.62v9.66a4.31,4.31,0,0,1-1.16,3.21A4.58,4.58,0,0,1,74.42,98.69Z"/><path class="cls-1" d="M85.75,94.79a4.58,4.58,0,0,1-3.36-1.17,4.36,4.36,0,0,1-1.2-3.29V89.21a4.85,4.85,0,0,1,1.15-3.44,4.22,4.22,0,0,1,3.23-1.22A3.58,3.58,0,0,1,88.63,86a6.75,6.75,0,0,1,1.08,4.09v.65H82.9V89h4.41l0-.23a2.35,2.35,0,0,0-.54-1.33,1.5,1.5,0,0,0-1.17-.47,1.93,1.93,0,0,0-1.47.56,2.27,2.27,0,0,0-.52,1.6v1.27a2.09,2.09,0,0,0,.57,1.57,2.19,2.19,0,0,0,1.6.56,2.9,2.9,0,0,0,1-.19,3,3,0,0,0,.94-.53l1.72,1.52a5.62,5.62,0,0,1-1.75,1.1A5.14,5.14,0,0,1,85.75,94.79Z"/><path class="cls-1" d="M54.81,2.32A16.33,16.33,0,0,0,39.05,14.74,11.86,11.86,0,0,0,32.52,21a13.93,13.93,0,1,0-1,27.82h4.65l2.32-4.65h-7a9.3,9.3,0,0,1,0-18.59,8.68,8.68,0,0,1,2,.22l2.33.51L36.36,24a7.06,7.06,0,0,1,5.23-5.22l1.53-.37.22-1.52a11.6,11.6,0,0,1,21.85-3.56l.87,1.81,2-.65a9.11,9.11,0,0,1,3-.58,9.31,9.31,0,0,1,9.29,9.3,2.81,2.81,0,0,1,0,.29c0,.15-.05.27-.07.43l-.15,1.67,1.53.66a9.3,9.3,0,0,1-3.63,17.86H73.4l2.32,4.65h2.33a13.93,13.93,0,0,0,7-26A14,14,0,0,0,71.08,9.29a12.94,12.94,0,0,0-2.76.29A16.14,16.14,0,0,0,54.81,2.32Zm4.65,23.24s-4.65,6.73-4.65,9.29a4.65,4.65,0,1,0,9.29,0C64.1,32.29,59.46,25.56,59.46,25.56ZM47.84,37.18s-4.65,6.72-4.65,9.29a4.65,4.65,0,1,0,9.3,0C52.49,43.9,47.84,37.18,47.84,37.18Zm18.59,7s-4.65,6.73-4.65,9.29a4.65,4.65,0,0,0,9.3,0C71.08,50.88,66.43,44.15,66.43,44.15Z"/><path class="cls-1" d="M157.44,72.83h4.84v2.72a5.76,5.76,0,0,1-.64,2.75,4.5,4.5,0,0,1-1.77,1.82,5.28,5.28,0,0,1-2.67.65,5.81,5.81,0,0,1-2.7-.61,4.43,4.43,0,0,1-1.79-1.72,5.14,5.14,0,0,1-.64-2.58V71.74a5.69,5.69,0,0,1,.64-2.74,4.56,4.56,0,0,1,1.77-1.82,5.28,5.28,0,0,1,2.67-.64,5.14,5.14,0,0,1,2.3.51,4.92,4.92,0,0,1,1.75,1.45,5.33,5.33,0,0,1,1,2.18h-2.84a1.79,1.79,0,0,0-.84-1.05,2.52,2.52,0,0,0-1.33-.37,2.26,2.26,0,0,0-1.71.68,2.51,2.51,0,0,0-.64,1.8v4.12a2,2,0,0,0,.66,1.58,2.49,2.49,0,0,0,1.74.6,2.31,2.31,0,0,0,1.71-.64,2.47,2.47,0,0,0,.64-1.81v-.23h-2.11Z"/><path class="cls-1" d="M169.13,80.77a4.61,4.61,0,0,1-3.36-1.17,4.37,4.37,0,0,1-1.19-3.29V75.19a4.85,4.85,0,0,1,1.14-3.45A4.24,4.24,0,0,1,169,70.53,3.58,3.58,0,0,1,172,72a6.75,6.75,0,0,1,1.08,4.09v.65h-6.81V75h4.41l0-.23a2.31,2.31,0,0,0-.53-1.33,1.5,1.5,0,0,0-1.17-.48,1.88,1.88,0,0,0-1.47.57,2.27,2.27,0,0,0-.53,1.6v1.27a2.1,2.1,0,0,0,.57,1.57,2.21,2.21,0,0,0,1.6.55,3.12,3.12,0,0,0,1-.18,3.24,3.24,0,0,0,.94-.54l1.72,1.53a5.89,5.89,0,0,1-1.74,1.1A5.23,5.23,0,0,1,169.13,80.77Z"/><path class="cls-1" d="M175.39,80.62v-10H178v10Zm5.75,0v-6a1.54,1.54,0,0,0-.41-1.14,1.69,1.69,0,0,0-1.19-.39,1.49,1.49,0,0,0-1.12.4,1.58,1.58,0,0,0-.4,1.15l-.2-2.21A3.73,3.73,0,0,1,178.87,71a2.52,2.52,0,0,1,1.6-.48,3,3,0,0,1,2.44,1,4.68,4.68,0,0,1,.86,3v6Z"/><path class="cls-1" d="M190.63,80.77a4.62,4.62,0,0,1-3.37-1.17,4.41,4.41,0,0,1-1.19-3.29V75.19a4.81,4.81,0,0,1,1.15-3.45,4.22,4.22,0,0,1,3.23-1.21A3.58,3.58,0,0,1,193.51,72a6.75,6.75,0,0,1,1.07,4.09v.65h-6.8V75h4.41l0-.23a2.32,2.32,0,0,0-.54-1.33,1.5,1.5,0,0,0-1.17-.48,1.9,1.9,0,0,0-1.47.57,2.27,2.27,0,0,0-.52,1.6v1.27a2.1,2.1,0,0,0,.57,1.57,2.19,2.19,0,0,0,1.6.55,3.12,3.12,0,0,0,1-.18,3.24,3.24,0,0,0,.94-.54l1.72,1.53a5.81,5.81,0,0,1-1.75,1.1A5.18,5.18,0,0,1,190.63,80.77Z"/><path class="cls-1" d="M196.89,80.62v-10h2.82v10Zm5.6-7.18a1.25,1.25,0,0,0-.47-.29,2.13,2.13,0,0,0-.65-.09,1.53,1.53,0,0,0-1.23.51,2.13,2.13,0,0,0-.43,1.42l-.21-2.59A3.76,3.76,0,0,1,200.57,71a2.35,2.35,0,0,1,1.45-.49,3.06,3.06,0,0,1,1.12.19,2.5,2.5,0,0,1,.88.58Z"/><path class="cls-1" d="M208,80.77a3.38,3.38,0,0,1-2.39-.76,3.08,3.08,0,0,1-.79-2.32,2.72,2.72,0,0,1,.88-2.22,4.1,4.1,0,0,1,2.66-.74h2.5l.13,2h-2.62a1.48,1.48,0,0,0-.89.23.86.86,0,0,0-.29.72.79.79,0,0,0,.37.72,2.16,2.16,0,0,0,1.13.24,3.85,3.85,0,0,0,1.56-.24.78.78,0,0,0,.52-.75l.2,1.45a1.37,1.37,0,0,1-.51.93,2.92,2.92,0,0,1-1.1.55A5.13,5.13,0,0,1,208,80.77Zm2.77-.15V74.31a1.28,1.28,0,0,0-.46-1.06,2,2,0,0,0-1.3-.38,3.58,3.58,0,0,0-1.11.18,3.15,3.15,0,0,0-1,.51L205.28,72a4,4,0,0,1,1.57-1.06,6,6,0,0,1,2.16-.37,4.38,4.38,0,0,1,3,1,3.5,3.5,0,0,1,1.08,2.74v6.39Z"/><path class="cls-1" d="M218.34,66.68V77.33a.75.75,0,0,0,.21.56.83.83,0,0,0,.59.2h.44v2.53h-1.34a2.45,2.45,0,0,1-1.86-.69,2.71,2.71,0,0,1-.66-2V66.68Z"/><path class="cls-1" d="M153.6,96.66a5.61,5.61,0,0,1-2.72-.61,4,4,0,0,1-1.72-1.77,6.12,6.12,0,0,1-.6-2.82V87.64a6.06,6.06,0,0,1,.6-2.82,4.08,4.08,0,0,1,1.72-1.77,5.61,5.61,0,0,1,2.72-.62A4.79,4.79,0,0,1,156,83a4.59,4.59,0,0,1,1.7,1.64,7,7,0,0,1,.94,2.61h-2.72a3.49,3.49,0,0,0-.48-1.19,2.26,2.26,0,0,0-.77-.74,2.1,2.1,0,0,0-1-.26,2.19,2.19,0,0,0-1.71.67,2.81,2.81,0,0,0-.61,1.91v3.82a2.76,2.76,0,0,0,.61,1.9,2.19,2.19,0,0,0,1.71.67,2,2,0,0,0,1.46-.57,3,3,0,0,0,.82-1.61h2.72a7.1,7.1,0,0,1-.95,2.6,4.52,4.52,0,0,1-1.7,1.64A4.73,4.73,0,0,1,153.6,96.66Z"/><path class="cls-1" d="M163.43,82.58V93.23a.72.72,0,0,0,.21.55.77.77,0,0,0,.59.2h.44v2.54h-1.34a2.45,2.45,0,0,1-1.86-.69,2.67,2.67,0,0,1-.67-2V82.58Z"/><path class="cls-1" d="M170.76,96.66a4.62,4.62,0,0,1-3.36-1.16,4.4,4.4,0,0,1-1.2-3.3V91.08a4.8,4.8,0,0,1,1.15-3.44,4.22,4.22,0,0,1,3.23-1.22,3.58,3.58,0,0,1,3.06,1.45A6.75,6.75,0,0,1,174.72,92v.65h-6.81V90.84h4.41l0-.23a2.35,2.35,0,0,0-.54-1.33,1.5,1.5,0,0,0-1.17-.47,1.93,1.93,0,0,0-1.47.56,2.27,2.27,0,0,0-.52,1.6v1.27a2.09,2.09,0,0,0,.57,1.57,2.19,2.19,0,0,0,1.6.56,2.9,2.9,0,0,0,1-.19,3,3,0,0,0,.94-.53l1.72,1.52a5.62,5.62,0,0,1-1.75,1.1A5.18,5.18,0,0,1,170.76,96.66Z"/><path class="cls-1" d="M179.72,96.66a3.33,3.33,0,0,1-2.39-.76,3.06,3.06,0,0,1-.79-2.32,2.72,2.72,0,0,1,.88-2.22,4.1,4.1,0,0,1,2.66-.73h2.5l.13,2h-2.62a1.41,1.41,0,0,0-.89.24.83.83,0,0,0-.29.71.8.8,0,0,0,.37.73,2.27,2.27,0,0,0,1.13.23A3.85,3.85,0,0,0,182,94.3a.78.78,0,0,0,.52-.75l.2,1.45a1.37,1.37,0,0,1-.51.94,3.06,3.06,0,0,1-1.1.54A5.13,5.13,0,0,1,179.72,96.66Zm2.77-.14V90.21a1.3,1.3,0,0,0-.46-1.07,2,2,0,0,0-1.3-.37,3.58,3.58,0,0,0-1.11.18,3,3,0,0,0-1,.51L177,87.86a3.8,3.8,0,0,1,1.57-1.06,6,6,0,0,1,2.16-.38,4.34,4.34,0,0,1,3,1,3.48,3.48,0,0,1,1.08,2.73v6.4Z"/><path class="cls-1" d="M187.47,96.52v-10h2.62v10Zm5.75,0v-6a1.48,1.48,0,0,0-.42-1.14,1.62,1.62,0,0,0-1.18-.4,1.52,1.52,0,0,0-1.13.41,1.58,1.58,0,0,0-.4,1.14l-.2-2.2a4,4,0,0,1,1.05-1.39,2.49,2.49,0,0,1,1.61-.49A2.93,2.93,0,0,1,195,87.48a4.62,4.62,0,0,1,.87,3v6Z"/><path class="cls-1" d="M198.29,85.2V82.58h2.63V85.2Zm0,11.32v-10h2.63v10Z"/><path class="cls-1" d="M203.36,96.52v-10H206v10Zm5.76,0v-6a1.48,1.48,0,0,0-.42-1.14,1.63,1.63,0,0,0-1.19-.4,1.5,1.5,0,0,0-1.12.41,1.54,1.54,0,0,0-.4,1.14l-.2-2.2a4,4,0,0,1,1.05-1.39,2.48,2.48,0,0,1,1.6-.49,3,3,0,0,1,2.44,1.06,4.68,4.68,0,0,1,.86,3v6Z"/><path class="cls-1" d="M217.39,96.66a3,3,0,0,1-2.47-1.13,5,5,0,0,1-.88-3.18V90.76a5.08,5.08,0,0,1,.88-3.2,2.93,2.93,0,0,1,2.47-1.14,2.4,2.4,0,0,1,1.45.48,3.28,3.28,0,0,1,1.06,1.34l-.2,2.21a2.08,2.08,0,0,0-.17-.87A1.33,1.33,0,0,0,219,89a1.63,1.63,0,0,0-.8-.18,1.37,1.37,0,0,0-1.14.5,2.19,2.19,0,0,0-.41,1.41v1.58a2.13,2.13,0,0,0,.41,1.39,1.41,1.41,0,0,0,1.14.48A1.63,1.63,0,0,0,219,94a1.22,1.22,0,0,0,.51-.52,1.93,1.93,0,0,0,.17-.84l.13,2.27a2.47,2.47,0,0,1-.93,1.26A2.57,2.57,0,0,1,217.39,96.66Zm.47,3.9a5.27,5.27,0,0,1-2.12-.41A3.37,3.37,0,0,1,214.28,99l1.77-1.62a2.41,2.41,0,0,0,.8.56,2.56,2.56,0,0,0,1,.2,2,2,0,0,0,1.33-.44,1.55,1.55,0,0,0,.54-1.26V86.56h2.63v9.66a4.28,4.28,0,0,1-1.17,3.21A4.57,4.57,0,0,1,217.86,100.56Z"/><path class="cls-1" d="M221.09,19.06,224,18a1.25,1.25,0,0,1,1.62.74,1.26,1.26,0,0,1-.74,1.62L222,21.42a1.32,1.32,0,0,1-.44.08,1.26,1.26,0,0,1-.44-2.44Zm-3.47-1.32a1.22,1.22,0,0,0,.52.11,1.26,1.26,0,0,0,1.15-.73l1.26-2.77a1.26,1.26,0,0,0-2.29-1L217,16.07A1.25,1.25,0,0,0,217.62,17.74ZM206,14.67a64.74,64.74,0,0,0-10-5.91l-5.13,11.31a1.26,1.26,0,1,1-2.3-1l5.14-11.31a65.87,65.87,0,0,0-11.07-3.67c1.76,8.1,2.24,16.71,1.13,21.5a1.26,1.26,0,0,1-2.46-.57c1.08-4.67.51-13.42-1.38-21.5a55.89,55.89,0,0,0-9.09-1l-.2.44c2.82,3.92,5.25,11.1,6.57,19.49,1,6.15,1.39,13.87-.08,18.18l.07,0h0c.76.44,1.55.84,2.35,1.21s1.69.71,2.56,1c1.54-2.64,5-6,9.78-9.43a70.66,70.66,0,0,1,16.31-8.87,1.26,1.26,0,0,1,.86,2.37,68.91,68.91,0,0,0-15.7,8.55c-5,3.57-8.5,7.07-9.45,9.38a1.26,1.26,0,0,1-1.52.73l-.09,0-6.9,15.2a4,4,0,0,1-2.26,2.11,4.1,4.1,0,0,1-1.42.26,3.94,3.94,0,0,1-1.67-.37,4,4,0,0,1-2-5.34l6.9-15.19-.08-.06a1.26,1.26,0,0,1-.46-1.62c1.39-2.8,1.51-9.93.28-17.75-1.29-8.31-3.79-15.56-6.51-18.92A1.25,1.25,0,0,1,168,2.62l.85-1.88A1.28,1.28,0,0,1,170,0h0a58.63,58.63,0,0,1,11.14,1.16h.07a68.25,68.25,0,0,1,14.65,4.76h0A67,67,0,0,1,211.76,16a1.26,1.26,0,0,1-1.65,1.91c-.61-.53-1.24-1-1.88-1.56-7.33,3.9-14.29,9.22-17.1,13.11a1.26,1.26,0,1,1-2-1.48C192,24,198.76,18.68,206,14.67ZM170.33,58.51a1.53,1.53,0,0,0,.76,2,1.5,1.5,0,0,0,1.16,0,1.55,1.55,0,0,0,.84-.79l6.8-15c-.46-.18-.93-.38-1.39-.59s-.91-.43-1.36-.66Zm42.92-31.23a1.26,1.26,0,0,0-1.67.63l-1.26,2.77a1.25,1.25,0,0,0,.62,1.67,1.39,1.39,0,0,0,.52.11,1.25,1.25,0,0,0,1.15-.74L213.87,29A1.25,1.25,0,0,0,213.25,27.28Zm11.4-1.94-2.77-1.27a1.26,1.26,0,0,0-1,2.29l2.77,1.27a1.22,1.22,0,0,0,.52.11,1.26,1.26,0,0,0,.53-2.4Zm-5.76,2.83a1.27,1.27,0,0,0-1.62-.74,1.25,1.25,0,0,0-.74,1.62l1.06,2.85a1.26,1.26,0,0,0,1.18.82,1.14,1.14,0,0,0,.44-.08A1.26,1.26,0,0,0,220,31Zm-2-1.67a4.23,4.23,0,0,1-3.26-.12,4.27,4.27,0,0,1-2.1-5.64,4.26,4.26,0,0,1,5.65-2.1,4.28,4.28,0,0,1,2.1,5.64A4.24,4.24,0,0,1,216.92,26.5Zm.09-3.27a1.68,1.68,0,0,0,.05-1.32,1.7,1.7,0,0,0-.9-1,1.72,1.72,0,0,0-1.33-.05,1.73,1.73,0,0,0-1,.91,1.73,1.73,0,0,0,.85,2.3,1.75,1.75,0,0,0,1.33.05h0A1.67,1.67,0,0,0,217,23.23Z"/><path class="cls-1" d="M39.56,203.17V189.23h2.62v13.94Zm1-11.41v-2.53h8.19v2.53Zm0,5.88v-2.53h7.14v2.53Z"/><path class="cls-1" d="M50.49,191.86v-2.63h2.62v2.63Zm0,11.31v-9.95h2.62v9.95Z"/><path class="cls-1" d="M55.56,203.17v-9.95h2.82v9.95Zm5.6-7.18a1.17,1.17,0,0,0-.47-.29,2.11,2.11,0,0,0-.64-.09,1.55,1.55,0,0,0-1.24.51,2.13,2.13,0,0,0-.43,1.42l-.2-2.58a3.51,3.51,0,0,1,1.07-1.38,2.25,2.25,0,0,1,1.44-.5,3.06,3.06,0,0,1,1.12.19,2.5,2.5,0,0,1,.88.58Z"/><path class="cls-1" d="M68,203.32a4.61,4.61,0,0,1-3.36-1.17,4.41,4.41,0,0,1-1.19-3.29v-1.12a4.87,4.87,0,0,1,1.14-3.45,4.25,4.25,0,0,1,3.24-1.21,3.56,3.56,0,0,1,3,1.45A6.75,6.75,0,0,1,72,198.62v.65h-6.8V197.5h4.41l0-.23a2.32,2.32,0,0,0-.54-1.33,1.5,1.5,0,0,0-1.17-.48,1.9,1.9,0,0,0-1.47.57,2.27,2.27,0,0,0-.52,1.6v1.27a2.1,2.1,0,0,0,.57,1.57A2.18,2.18,0,0,0,68,201a3.22,3.22,0,0,0,1-.18,3.35,3.35,0,0,0,.94-.53l1.71,1.52a5.77,5.77,0,0,1-1.74,1.1A5.23,5.23,0,0,1,68,203.32Z"/><path class="cls-1" d="M21.15,219.07V205.13h2.63v13.94Zm1.33,0v-2.53h3.34a2.93,2.93,0,0,0,2-.63,2.25,2.25,0,0,0,.71-1.76v-4.1a2.25,2.25,0,0,0-.71-1.77,3,3,0,0,0-2-.62H22.48v-2.53h3.29a5.78,5.78,0,0,1,4.06,1.31,4.75,4.75,0,0,1,1.43,3.68v3.95a5.35,5.35,0,0,1-.61,2.61,4.18,4.18,0,0,1-1.84,1.76,6.6,6.6,0,0,1-3,.63Z"/><path class="cls-1" d="M36.55,219.21a3.3,3.3,0,0,1-2.38-.76,3,3,0,0,1-.8-2.32,2.69,2.69,0,0,1,.89-2.22,4.08,4.08,0,0,1,2.66-.73h2.49l.13,2H36.93a1.42,1.42,0,0,0-.9.24.87.87,0,0,0-.29.71.79.79,0,0,0,.38.73,2.2,2.2,0,0,0,1.12.23,3.93,3.93,0,0,0,1.57-.24.79.79,0,0,0,.51-.75l.2,1.45a1.32,1.32,0,0,1-.5.94,2.88,2.88,0,0,1-1.11.54A5.13,5.13,0,0,1,36.55,219.21Zm2.77-.14v-6.31a1.3,1.3,0,0,0-.46-1.07,2.05,2.05,0,0,0-1.3-.37,3.47,3.47,0,0,0-1.1.18,3.09,3.09,0,0,0-1,.51l-1.63-1.6a3.9,3.9,0,0,1,1.57-1.06A6,6,0,0,1,37.6,209a4.37,4.37,0,0,1,3,1,3.52,3.52,0,0,1,1.07,2.73v6.4Z"/><path class="cls-1" d="M44.3,219.07v-9.95h2.63v9.95Zm5.8,0v-5.75a1.89,1.89,0,0,0-.43-1.34,1.54,1.54,0,0,0-1.22-.48,1.52,1.52,0,0,0-1.13.41,1.59,1.59,0,0,0-.39,1.15l-.21-2.21a3.7,3.7,0,0,1,1.09-1.39,2.53,2.53,0,0,1,1.57-.49,2.92,2.92,0,0,1,2.47,1.14,5.1,5.1,0,0,1,.88,3.2v5.76Zm5.8,0v-5.75a1.94,1.94,0,0,0-.42-1.34,1.48,1.48,0,0,0-1.18-.48,1.51,1.51,0,0,0-1.17.46,1.86,1.86,0,0,0-.4,1.29l-.49-2.3a3.73,3.73,0,0,1,1.22-1.47,3,3,0,0,1,1.67-.51,3,3,0,0,1,2.51,1.14,5.1,5.1,0,0,1,.89,3.2v5.76Z"/><path class="cls-1" d="M63.82,219.21a3.33,3.33,0,0,1-2.39-.76,3,3,0,0,1-.79-2.32,2.72,2.72,0,0,1,.88-2.22,4.1,4.1,0,0,1,2.66-.73h2.5l.13,2H64.19a1.41,1.41,0,0,0-.89.24.85.85,0,0,0-.3.71.81.81,0,0,0,.38.73,2.27,2.27,0,0,0,1.13.23,3.85,3.85,0,0,0,1.56-.24.78.78,0,0,0,.52-.75l.2,1.45a1.37,1.37,0,0,1-.51.94,2.91,2.91,0,0,1-1.1.54A5.13,5.13,0,0,1,63.82,219.21Zm2.77-.14v-6.31a1.3,1.3,0,0,0-.46-1.07,2.07,2.07,0,0,0-1.3-.37,3.53,3.53,0,0,0-1.11.18,3.33,3.33,0,0,0-1,.51l-1.62-1.6a3.9,3.9,0,0,1,1.57-1.06,6,6,0,0,1,2.16-.38,4.35,4.35,0,0,1,3,1A3.49,3.49,0,0,1,69,212.67v6.4Z"/><path class="cls-1" d="M74.62,219.21a2.94,2.94,0,0,1-2.47-1.13,5.09,5.09,0,0,1-.87-3.17v-1.6a5.16,5.16,0,0,1,.87-3.2A3,3,0,0,1,74.62,209a2.43,2.43,0,0,1,1.46.48,3.37,3.37,0,0,1,1.06,1.34L76.93,213a1.86,1.86,0,0,0-.17-.86,1.21,1.21,0,0,0-.5-.55,1.66,1.66,0,0,0-.8-.18,1.41,1.41,0,0,0-1.15.5,2.21,2.21,0,0,0-.41,1.41v1.59a2.12,2.12,0,0,0,.41,1.38,1.44,1.44,0,0,0,1.15.49,1.66,1.66,0,0,0,.8-.19,1.14,1.14,0,0,0,.5-.52,1.8,1.8,0,0,0,.17-.84l.14,2.27a2.55,2.55,0,0,1-.94,1.27A2.59,2.59,0,0,1,74.62,219.21Zm.47,3.9A5.27,5.27,0,0,1,73,222.7a3.34,3.34,0,0,1-1.45-1.18l1.76-1.62a2.45,2.45,0,0,0,.81.56,2.51,2.51,0,0,0,1,.2,2.06,2.06,0,0,0,1.34-.44,1.54,1.54,0,0,0,.53-1.26v-9.84h2.63v9.65A4.31,4.31,0,0,1,78.4,222,4.58,4.58,0,0,1,75.09,223.11Z"/><path class="cls-1" d="M86.42,219.21a4.62,4.62,0,0,1-3.36-1.16,4.4,4.4,0,0,1-1.2-3.3v-1.12A4.8,4.8,0,0,1,83,210.19,4.22,4.22,0,0,1,86.24,209a3.61,3.61,0,0,1,3.06,1.45,6.77,6.77,0,0,1,1.08,4.09v.66H83.57v-1.78H88l0-.23a2.35,2.35,0,0,0-.54-1.33,1.5,1.5,0,0,0-1.17-.47,1.93,1.93,0,0,0-1.47.56,2.29,2.29,0,0,0-.52,1.61v1.26a2.09,2.09,0,0,0,.57,1.57,2.19,2.19,0,0,0,1.6.56,2.9,2.9,0,0,0,1-.19,3,3,0,0,0,.94-.53l1.72,1.53a5.78,5.78,0,0,1-1.75,1.09A5.18,5.18,0,0,1,86.42,219.21Z"/><path class="cls-1" d="M52.63,177.65c-8.59,0-24.84-5.76-24.84-27.58a2.15,2.15,0,1,1,4.29,0c0,18.42,13.44,23.29,20.55,23.29A27.74,27.74,0,0,0,66,169.68a2.14,2.14,0,1,1,2.18,3.69A32,32,0,0,1,52.63,177.65Zm22.28-11.44a2.12,2.12,0,0,1-1.13-.33,2.14,2.14,0,0,1-.68-3,23.84,23.84,0,0,0,3.33-12.85c0-13.26-9.12-21.84-14.56-25.77a2.24,2.24,0,0,0-2.45-.25,3.09,3.09,0,0,0-1.59,2.84v.92c0,4.71-2,13-7.53,16.59a5,5,0,0,1-5,.36,7.07,7.07,0,0,1-3.72-5.65l-.25-2.4a1.71,1.71,0,0,0-.93-1.45.88.88,0,0,0-1,.16,19.38,19.38,0,0,0-4.87,5.41,2.15,2.15,0,0,1-3.69-2.19,23.29,23.29,0,0,1,6-6.63,5.21,5.21,0,0,1,5.29-.69,6,6,0,0,1,3.5,5l.25,2.4a2.81,2.81,0,0,0,1.3,2.21.71.71,0,0,0,.81-.08c3.85-2.5,5.58-9.1,5.58-13v-.92a7.38,7.38,0,0,1,3.93-6.66,6.54,6.54,0,0,1,6.92.59c6.1,4.41,16.33,14.08,16.33,29.25a28,28,0,0,1-4,15.13A2.13,2.13,0,0,1,74.91,166.21Z"/><path class="cls-1" d="M54.92,177.65A14.58,14.58,0,0,1,47,175.24a11.39,11.39,0,0,1-4.94-9.91c0-6.51,4.39-10.67,7-12.57a4.08,4.08,0,0,1,4.31-.37,4.49,4.49,0,0,1,2.4,4A17,17,0,0,0,56,159a4.42,4.42,0,0,1,2.64-2.44,3.93,3.93,0,0,1,3.65.58,10.15,10.15,0,0,1,4.18,8.22C66.42,174.37,59.54,177.65,54.92,177.65Zm-3.41-21.33c-2,1.47-5.12,4.51-5.12,9,0,7.94,8.18,8,8.53,8a7.71,7.71,0,0,0,4.52-1.58c1.78-1.39,2.68-3.56,2.68-6.45a5.81,5.81,0,0,0-2.24-4.62,4.79,4.79,0,0,1-3.75,3.59,3.45,3.45,0,0,1-3.46-1.8c-1.15-2-1.15-4.54-1.15-6.07C51.52,156.38,51.51,156.35,51.51,156.32Z"/><path class="cls-1" d="M175.7,196l2.65-9.4h3.47v13.94h-2.39V189.74l.09.61L176.86,199h-2.32l-2.67-8.47.1-.8v10.82h-2.39V186.62H173Z"/><path class="cls-1" d="M188.7,200.71a4.23,4.23,0,0,1-3.17-1.14,4.35,4.35,0,0,1-1.13-3.2v-1.62a4.3,4.3,0,1,1,8.59,0v1.65a3.91,3.91,0,0,1-4.29,4.31Zm0-2.54a1.64,1.64,0,0,0,1.24-.46,1.85,1.85,0,0,0,.44-1.31v-1.65a1.8,1.8,0,0,0-.44-1.29,1.64,1.64,0,0,0-1.24-.46,1.59,1.59,0,0,0-1.22.46,1.8,1.8,0,0,0-.44,1.29v1.65a1.85,1.85,0,0,0,.44,1.31A1.59,1.59,0,0,0,188.69,198.17Z"/><path class="cls-1" d="M198,186.62v10.65a.77.77,0,0,0,.2.56.84.84,0,0,0,.59.2h.44v2.53h-1.34a2.45,2.45,0,0,1-1.86-.69,2.71,2.71,0,0,1-.66-2v-11.3Z"/><path class="cls-1" d="M204.13,200.71a2.93,2.93,0,0,1-2.46-1.13,5,5,0,0,1-.88-3.18v-1.59a5.13,5.13,0,0,1,.88-3.21,2.91,2.91,0,0,1,2.46-1.13,2.4,2.4,0,0,1,1.46.47,3.39,3.39,0,0,1,1.06,1.35l-.2,2.2a1.88,1.88,0,0,0-.18-.86,1.14,1.14,0,0,0-.5-.54,1.55,1.55,0,0,0-.8-.19,1.41,1.41,0,0,0-1.15.5,2.22,2.22,0,0,0-.4,1.42v1.58a2.08,2.08,0,0,0,.4,1.38,1.41,1.41,0,0,0,1.15.49,1.66,1.66,0,0,0,.8-.18,1.17,1.17,0,0,0,.5-.53,1.78,1.78,0,0,0,.18-.83l.13,2.27a2.62,2.62,0,0,1-.93,1.26A2.57,2.57,0,0,1,204.13,200.71Zm2.32-.15V186.62h2.62v13.94Z"/><path class="cls-1" d="M144.31,205.05v-2.53h10.23v2.53Zm3.8,11.41v-12.8h2.63v12.8Z"/><path class="cls-1" d="M154.73,216.46v-10h2.82v10Zm5.6-7.18a1.13,1.13,0,0,0-.47-.29,1.85,1.85,0,0,0-.65-.1,1.5,1.5,0,0,0-1.23.52,2.11,2.11,0,0,0-.43,1.42l-.21-2.59a3.7,3.7,0,0,1,1.07-1.38,2.36,2.36,0,0,1,1.45-.5,3.06,3.06,0,0,1,1.12.2,2.37,2.37,0,0,1,.88.58Z"/><path class="cls-1" d="M167.18,216.6a4.65,4.65,0,0,1-3.36-1.16,4.39,4.39,0,0,1-1.19-3.3V211a4.84,4.84,0,0,1,1.14-3.44,4.26,4.26,0,0,1,3.24-1.22,3.59,3.59,0,0,1,3.05,1.45,6.77,6.77,0,0,1,1.08,4.09v.65h-6.81v-1.77h4.41l0-.23a2.34,2.34,0,0,0-.53-1.33,1.53,1.53,0,0,0-1.17-.47,1.91,1.91,0,0,0-1.47.56,2.3,2.3,0,0,0-.53,1.61v1.26a2.09,2.09,0,0,0,.57,1.57,2.21,2.21,0,0,0,1.6.56,3,3,0,0,0,1-.19,3.25,3.25,0,0,0,.94-.53l1.71,1.53a5.86,5.86,0,0,1-1.74,1.09A5.23,5.23,0,0,1,167.18,216.6Z"/><path class="cls-1" d="M176.15,216.6a3.31,3.31,0,0,1-2.39-.76,3,3,0,0,1-.8-2.32,2.72,2.72,0,0,1,.89-2.22,4.1,4.1,0,0,1,2.66-.73H179l.14,2h-2.62a1.39,1.39,0,0,0-.89.24.85.85,0,0,0-.3.71.81.81,0,0,0,.38.73,2.25,2.25,0,0,0,1.13.23,3.91,3.91,0,0,0,1.56-.24.8.8,0,0,0,.52-.75l.2,1.45a1.37,1.37,0,0,1-.51.94,2.88,2.88,0,0,1-1.11.54A5.11,5.11,0,0,1,176.15,216.6Zm2.77-.14v-6.31a1.33,1.33,0,0,0-.46-1.07,2,2,0,0,0-1.31-.37,3.47,3.47,0,0,0-1.1.18,3.21,3.21,0,0,0-1,.51l-1.63-1.6a4,4,0,0,1,1.57-1.06,6.07,6.07,0,0,1,2.17-.38,4.37,4.37,0,0,1,3,1,3.48,3.48,0,0,1,1.07,2.73v6.4Z"/><path class="cls-1" d="M183.13,208.75V206.5H188v2.25Zm3.54,7.75a2.39,2.39,0,0,1-1.92-.68,2.84,2.84,0,0,1-.6-1.95V203.61h2.63v9.61a1,1,0,0,0,.14.55.48.48,0,0,0,.42.2H188v2.53Z"/><path class="cls-1" d="M190.3,216.46v-10h2.62v10Zm5.8,0v-5.75a1.94,1.94,0,0,0-.43-1.34,1.54,1.54,0,0,0-1.22-.48,1.52,1.52,0,0,0-1.13.41,1.59,1.59,0,0,0-.4,1.15l-.2-2.21a3.7,3.7,0,0,1,1.09-1.39,2.53,2.53,0,0,1,1.57-.49,2.92,2.92,0,0,1,2.47,1.14,5.14,5.14,0,0,1,.87,3.2v5.76Zm5.8,0v-5.75a1.94,1.94,0,0,0-.42-1.34,1.48,1.48,0,0,0-1.18-.48,1.47,1.47,0,0,0-1.17.46,1.87,1.87,0,0,0-.41,1.29l-.49-2.3a3.83,3.83,0,0,1,1.23-1.47,2.93,2.93,0,0,1,1.67-.51,3,3,0,0,1,2.51,1.14,5.08,5.08,0,0,1,.88,3.2v5.76Z"/><path class="cls-1" d="M211.38,216.6a4.62,4.62,0,0,1-3.36-1.16,4.39,4.39,0,0,1-1.19-3.3V211a4.84,4.84,0,0,1,1.14-3.44,4.23,4.23,0,0,1,3.24-1.22,3.6,3.6,0,0,1,3,1.45,6.77,6.77,0,0,1,1.08,4.09v.65h-6.81v-1.77h4.41l0-.23a2.41,2.41,0,0,0-.53-1.33,1.53,1.53,0,0,0-1.17-.47,1.9,1.9,0,0,0-1.47.56,2.3,2.3,0,0,0-.53,1.61v1.26a2.09,2.09,0,0,0,.57,1.57,2.21,2.21,0,0,0,1.6.56,2.9,2.9,0,0,0,1-.19,3,3,0,0,0,.94-.53l1.72,1.53a5.78,5.78,0,0,1-1.75,1.09A5.14,5.14,0,0,1,211.38,216.6Z"/><path class="cls-1" d="M217.64,216.46v-10h2.63v10Zm5.75,0v-6a1.49,1.49,0,0,0-.42-1.14,1.65,1.65,0,0,0-1.18-.4,1.52,1.52,0,0,0-1.13.41,1.59,1.59,0,0,0-.39,1.15l-.21-2.21a4,4,0,0,1,1.05-1.39,2.51,2.51,0,0,1,1.61-.49,3,3,0,0,1,2.44,1.06,4.68,4.68,0,0,1,.86,3v6Z"/><path class="cls-1" d="M227.84,208.75V206.5h4.87v2.25Zm3.55,7.75a2.42,2.42,0,0,1-1.93-.68,2.84,2.84,0,0,1-.59-1.95V203.61h2.62v9.61a.9.9,0,0,0,.15.55.46.46,0,0,0,.42.2h.65v2.53Z"/><path class="cls-1" d="M208.78,130.24l5.65,9.47-24.12,8.86,24.12,9.15-5.65,9.47-19.69-16.48,4.28,25.49H182.22l4.59-25.49-20,16.48-5.5-9.47,24.43-9.15-24.43-8.86,5.5-9.47,20,16.49-4.59-25.49h11.15l-4.28,25.49Z"/><path class="cls-1" d="M5,311.49a5.67,5.67,0,0,1-2.73-.61,4,4,0,0,1-1.72-1.77A6.25,6.25,0,0,1,0,306.29v-3.82a6.19,6.19,0,0,1,.59-2.82,4.14,4.14,0,0,1,1.72-1.77A5.67,5.67,0,0,1,5,297.26a4.82,4.82,0,0,1,2.36.57,4.67,4.67,0,0,1,1.7,1.64,7,7,0,0,1,.94,2.61H7.31a3.57,3.57,0,0,0-.47-1.19,2.2,2.2,0,0,0-.78-.74,2,2,0,0,0-1-.26,2.2,2.2,0,0,0-1.71.68,2.76,2.76,0,0,0-.61,1.9v3.82a2.74,2.74,0,0,0,.61,1.9,2.19,2.19,0,0,0,1.71.67,2,2,0,0,0,1.46-.57,3,3,0,0,0,.81-1.61H10a7.21,7.21,0,0,1-.95,2.6,4.63,4.63,0,0,1-1.7,1.65A4.86,4.86,0,0,1,5,311.49Z"/><path class="cls-1" d="M16.25,311.49a4.28,4.28,0,0,1-3.17-1.13,4.36,4.36,0,0,1-1.12-3.2v-1.62a4.29,4.29,0,0,1,1.12-3.17,4.31,4.31,0,0,1,3.17-1.12,4.3,4.3,0,0,1,3.17,1.12,4.29,4.29,0,0,1,1.13,3.17v1.65a4.33,4.33,0,0,1-1.13,3.18A4.26,4.26,0,0,1,16.25,311.49Zm0-2.53a1.64,1.64,0,0,0,1.24-.46,1.85,1.85,0,0,0,.44-1.31v-1.65a1.83,1.83,0,0,0-.44-1.3,1.68,1.68,0,0,0-1.24-.46,1.63,1.63,0,0,0-1.22.46,1.83,1.83,0,0,0-.44,1.3v1.65A1.85,1.85,0,0,0,15,308.5,1.59,1.59,0,0,0,16.24,309Z"/><path class="cls-1" d="M22.94,311.35v-10h2.63v10Zm5.75,0v-6a1.5,1.5,0,0,0-.41-1.14,1.69,1.69,0,0,0-1.19-.4,1.5,1.5,0,0,0-1.12.41,1.55,1.55,0,0,0-.4,1.15l-.2-2.21a4,4,0,0,1,1.05-1.39,2.54,2.54,0,0,1,1.6-.49,3,3,0,0,1,2.44,1.06,4.68,4.68,0,0,1,.86,3v6Z"/><path class="cls-1" d="M37.72,311.49a9,9,0,0,1-2.56-.36,6.28,6.28,0,0,1-2.06-1l1.62-2a6.84,6.84,0,0,0,1.5.71,5.17,5.17,0,0,0,1.5.25,3.89,3.89,0,0,0,1.43-.21c.33-.14.5-.33.5-.57a.59.59,0,0,0-.35-.6,2.58,2.58,0,0,0-.91-.22c-.38,0-.78-.08-1.2-.14s-.85-.13-1.27-.21a4.21,4.21,0,0,1-1.15-.39,2,2,0,0,1-.82-.82,3,3,0,0,1-.31-1.5,2.77,2.77,0,0,1,1.07-2.33,4.81,4.81,0,0,1,3-.83,7.42,7.42,0,0,1,2.24.34,6.73,6.73,0,0,1,2,1l-1.56,1.9a6.19,6.19,0,0,0-1.36-.56,5.15,5.15,0,0,0-1.36-.2,3.42,3.42,0,0,0-1.24.18c-.29.11-.44.28-.44.51a.46.46,0,0,0,.31.43,2.79,2.79,0,0,0,.8.21l1.08.12,1.33.19a4.33,4.33,0,0,1,1.23.4,2.17,2.17,0,0,1,.91.87A3.19,3.19,0,0,1,42,308.2a2.9,2.9,0,0,1-1.11,2.43A5.11,5.11,0,0,1,37.72,311.49Z"/><path class="cls-1" d="M43.33,303.64V301.4H48.2v2.24Zm3.54,7.76a2.39,2.39,0,0,1-1.92-.69,2.84,2.84,0,0,1-.6-1.95V298.5H47v9.61a1,1,0,0,0,.14.55.48.48,0,0,0,.42.2h.66v2.54Z"/><path class="cls-1" d="M50.5,311.35v-10h2.82v10Zm5.6-7.18a1.13,1.13,0,0,0-.47-.29,2.11,2.11,0,0,0-.65-.1,1.5,1.5,0,0,0-1.23.52,2.11,2.11,0,0,0-.43,1.42l-.21-2.59a3.7,3.7,0,0,1,1.07-1.38,2.36,2.36,0,0,1,1.45-.5,3.06,3.06,0,0,1,1.12.2,2.37,2.37,0,0,1,.88.58Z"/><path class="cls-1" d="M61.5,301.4v6.05a1.49,1.49,0,0,0,.41,1.11,1.55,1.55,0,0,0,1.15.4,1.5,1.5,0,0,0,1.13-.41,1.57,1.57,0,0,0,.4-1.16l.13,2.17a3.17,3.17,0,0,1-.87,1.34,2.3,2.3,0,0,1-1.63.59,3.05,3.05,0,0,1-2.47-1,4.42,4.42,0,0,1-.87-2.92V301.4Zm3.09,10v-10h2.62v10Z"/><path class="cls-1" d="M74,311.49a4.39,4.39,0,0,1-3.31-1.21,4.64,4.64,0,0,1-1.18-3.4v-1.06a4.57,4.57,0,0,1,1.18-3.37,4.42,4.42,0,0,1,3.31-1.2,5.82,5.82,0,0,1,2.22.41,3.75,3.75,0,0,1,1.58,1.18l-1.7,1.65a2.39,2.39,0,0,0-.84-.52,3,3,0,0,0-1-.19,2.12,2.12,0,0,0-1.55.54,2,2,0,0,0-.54,1.5v1.06a2.09,2.09,0,0,0,.54,1.54,2.12,2.12,0,0,0,1.55.54,2.82,2.82,0,0,0,1-.2,2.38,2.38,0,0,0,.84-.58l1.7,1.75a3.69,3.69,0,0,1-1.58,1.15A5.63,5.63,0,0,1,74,311.49Z"/><path class="cls-1" d="M78.81,303.64V301.4h4.87v2.24Zm3.55,7.76a2.43,2.43,0,0,1-1.93-.69,2.84,2.84,0,0,1-.6-1.95V298.5h2.63v9.61a.9.9,0,0,0,.15.55.46.46,0,0,0,.42.2h.65v2.54Z"/><path class="cls-1" d="M85.84,300v-2.62h2.62V300Zm0,11.32v-10h2.62v10Z"/><path class="cls-1" d="M94.92,311.49a4.3,4.3,0,0,1-3.18-1.13,4.36,4.36,0,0,1-1.12-3.2v-1.62a4.29,4.29,0,0,1,1.12-3.17,5.06,5.06,0,0,1,6.35,0,4.29,4.29,0,0,1,1.12,3.17v1.65a3.9,3.9,0,0,1-4.29,4.3Zm0-2.53a1.6,1.6,0,0,0,1.23-.46,1.81,1.81,0,0,0,.44-1.31v-1.65a1.78,1.78,0,0,0-.44-1.3,1.87,1.87,0,0,0-2.46,0,1.82,1.82,0,0,0-.43,1.3v1.65a1.85,1.85,0,0,0,.43,1.31A1.6,1.6,0,0,0,94.91,309Z"/><path class="cls-1" d="M101.61,311.35v-10h2.62v10Zm5.75,0v-6a1.51,1.51,0,0,0-.42-1.14,1.65,1.65,0,0,0-1.18-.4,1.52,1.52,0,0,0-1.13.41,1.59,1.59,0,0,0-.4,1.15l-.2-2.21a4,4,0,0,1,1-1.39,2.57,2.57,0,0,1,1.61-.49,3,3,0,0,1,2.43,1.06,4.62,4.62,0,0,1,.87,3v6Z"/><g id="SVGRepo_iconCarrier" data-name="SVGRepo iconCarrier"><path class="cls-2" d="M82.6,283.38H69.27v-8H82.6Zm0-13.33V256.71H69.27V243.37h-40v13.34H23.92v18.67h5.33v13.34H87.94V270.05Zm-5.33,0v-8H63.93v8H77.27Zm-13.34,5.33H50.59v8H63.93ZM58.6,262v8H45.26v-8H58.6ZM45.26,275.38v8H34.59v-8Zm18.67-26.67H50.59v8H63.93ZM29.25,262v8H39.92v-8Zm5.34-5.33H45.26v-8H34.59Z"/></g><path class="cls-1" d="M145.32,311.44V297.5H148v13.94Zm1.15,0v-2.53h4.45a2,2,0,0,0,1.39-.43,1.55,1.55,0,0,0,.5-1.23v0a1.59,1.59,0,0,0-.5-1.24,2,2,0,0,0-1.39-.43h-4.45V303h4.45a1.78,1.78,0,0,0,1.26-.42,1.48,1.48,0,0,0,.45-1.16,1.29,1.29,0,0,0-.45-1.05,2,2,0,0,0-1.26-.36h-4.45V297.5H151a4.58,4.58,0,0,1,3.15,1,3.52,3.52,0,0,1,1.12,2.79,2.92,2.92,0,0,1-.71,2,3.39,3.39,0,0,1-2,1,3.35,3.35,0,0,1,2.15,1.06,3.29,3.29,0,0,1,.76,2.26v0a3.52,3.52,0,0,1-1.12,2.8,4.62,4.62,0,0,1-3.16,1Z"/><path class="cls-1" d="M157.66,300.13V297.5h2.63v2.63Zm0,11.31v-9.95h2.63v9.95Z"/><path class="cls-1" d="M166.74,311.59a4.27,4.27,0,0,1-3.18-1.14,4.39,4.39,0,0,1-1.12-3.2v-1.62a4.3,4.3,0,1,1,8.59,0v1.65a3.91,3.91,0,0,1-4.29,4.31Zm0-2.53a1.64,1.64,0,0,0,1.24-.47,1.84,1.84,0,0,0,.44-1.31v-1.65a1.82,1.82,0,0,0-.44-1.29,1.64,1.64,0,0,0-1.24-.46,1.58,1.58,0,0,0-1.22.46,1.77,1.77,0,0,0-.44,1.29v1.65a1.79,1.79,0,0,0,.44,1.31A1.58,1.58,0,0,0,166.73,309.06Z"/><path class="cls-1" d="M173.43,311.44V297.5h2.63v13.94Zm5.75,0v-6a1.5,1.5,0,0,0-.41-1.13,1.65,1.65,0,0,0-1.19-.4,1.5,1.5,0,0,0-1.12.41,1.54,1.54,0,0,0-.4,1.14l-.2-2.2a3.65,3.65,0,0,1,1-1.39,2.46,2.46,0,0,1,1.6-.49,3,3,0,0,1,2.44,1.06,4.63,4.63,0,0,1,.86,3v6Z"/><path class="cls-1" d="M187.1,311.59a3.35,3.35,0,0,1-2.39-.76,3.06,3.06,0,0,1-.79-2.32,2.69,2.69,0,0,1,.89-2.22,4.08,4.08,0,0,1,2.66-.73H190l.13,2h-2.61a1.42,1.42,0,0,0-.9.24.86.86,0,0,0-.29.71.76.76,0,0,0,.38.72,2.09,2.09,0,0,0,1.12.24,3.85,3.85,0,0,0,1.56-.24.78.78,0,0,0,.52-.75l.2,1.45a1.28,1.28,0,0,1-.5.93,2.89,2.89,0,0,1-1.11.55A5.13,5.13,0,0,1,187.1,311.59Zm2.77-.15v-6.3a1.3,1.3,0,0,0-.46-1.07,2,2,0,0,0-1.3-.37,3.77,3.77,0,0,0-1.1.17,2.92,2.92,0,0,0-1,.52l-1.63-1.6a3.8,3.8,0,0,1,1.57-1.06,5.78,5.78,0,0,1,2.17-.38,4.37,4.37,0,0,1,3,1,3.49,3.49,0,0,1,1.07,2.73v6.39Z"/><path class="cls-1" d="M202.1,301.49v2.23l-4.4,5.34h4.66v2.38h-7.8v-2.26l4.53-5.3h-4.4v-2.39Z"/><path class="cls-1" d="M207.26,311.59a3.3,3.3,0,0,1-2.38-.76,3.06,3.06,0,0,1-.8-2.32,2.72,2.72,0,0,1,.89-2.22,4.1,4.1,0,0,1,2.66-.73h2.49l.13,2h-2.61a1.37,1.37,0,0,0-.89.24.83.83,0,0,0-.3.71.78.78,0,0,0,.38.72,2.12,2.12,0,0,0,1.12.24,3.93,3.93,0,0,0,1.57-.24.79.79,0,0,0,.51-.75l.21,1.45a1.33,1.33,0,0,1-.51.93,2.89,2.89,0,0,1-1.11.55A5.13,5.13,0,0,1,207.26,311.59Zm2.77-.15v-6.3a1.3,1.3,0,0,0-.46-1.07,2,2,0,0,0-1.3-.37,3.77,3.77,0,0,0-1.1.17,2.92,2.92,0,0,0-1,.52l-1.63-1.6a3.86,3.86,0,0,1,1.57-1.06,5.82,5.82,0,0,1,2.17-.38,4.37,4.37,0,0,1,3,1,3.49,3.49,0,0,1,1.07,2.73v6.39Z"/><path class="cls-1" d="M215,311.44v-9.95h2.82v9.95Zm5.6-7.18a1.19,1.19,0,0,0-.46-.28,1.89,1.89,0,0,0-.65-.1,1.53,1.53,0,0,0-1.23.51,2.14,2.14,0,0,0-.44,1.43l-.2-2.59a3.51,3.51,0,0,1,1.07-1.38,2.29,2.29,0,0,1,1.44-.5,3.12,3.12,0,0,1,1.13.19,2.71,2.71,0,0,1,.87.58Z"/><path class="cls-1" d="M226.26,311.59a3,3,0,0,1-2.47-1.13,5,5,0,0,1-.88-3.18v-1.59a5.08,5.08,0,0,1,.88-3.2,2.93,2.93,0,0,1,2.47-1.14,2.46,2.46,0,0,1,1.45.47,3.39,3.39,0,0,1,1.06,1.35l-.2,2.2a2.06,2.06,0,0,0-.17-.86,1.33,1.33,0,0,0-.51-.54,1.66,1.66,0,0,0-.8-.19,1.37,1.37,0,0,0-1.14.51,2.12,2.12,0,0,0-.41,1.41v1.58a2,2,0,0,0,.41,1.38,1.39,1.39,0,0,0,1.14.49,1.66,1.66,0,0,0,.8-.18,1.24,1.24,0,0,0,.51-.53,1.89,1.89,0,0,0,.17-.83l.13,2.27a2.62,2.62,0,0,1-.93,1.26A2.57,2.57,0,0,1,226.26,311.59Zm2.31-.15V297.5h2.62v13.94Z"/><path class="cls-1" d="M213.44,286.73h-48a2.16,2.16,0,0,1-1.84-3.3l24-38.94a2.17,2.17,0,0,1,3.68,0l23.83,38.68a2.12,2.12,0,0,1,.51,1.39A2.17,2.17,0,0,1,213.44,286.73Zm-44.13-4.33h40.22l-20.11-32.64Z"/><path class="cls-1" d="M189.42,276.44a2,2,0,0,1,2,2,1.89,1.89,0,0,1-.63,1.44,2,2,0,0,1-1.4.59,2,2,0,0,1-1.41-.59,1.91,1.91,0,0,1-.62-1.44,2,2,0,0,1,2-2Zm1.42-2.84H188l-.59-17.25h4Z"/></g></g></svg>