<svg xmlns="http://www.w3.org/2000/svg" width="195.83" height="50.23" viewBox="0 0 195.83 50.23"><defs><style>.cls-1{fill:#e21b22;}.cls-2{fill:#003;}</style></defs><g id="Layer_2" data-name="Layer 2"><g id="Layer_1-2" data-name="Layer 1"><path class="cls-1" d="M18.9,4.18H33.05A5.54,5.54,0,0,0,38.32,0H12.49L0,50.23,20,28.68H32.46l4.2-16.75H29.25a11.92,11.92,0,0,0-9,4.18H31.47L30.19,21a4.5,4.5,0,0,1-4.3,3.47h-10l1.31,1.31L7.51,36.18,14.6,7.65a4.52,4.52,0,0,1,4.3-3.46Z"/><path class="cls-2" d="M65.58,20.22a7.11,7.11,0,0,0-6.37,4.13h7.26v.11a6.15,6.15,0,0,1-1,3.53,6.67,6.67,0,0,1-2.62,2.29,7.82,7.82,0,0,1-3.53.81,7.57,7.57,0,0,1-4.21-1.19,8,8,0,0,1-2.86-3.28,11,11,0,0,1-1-4.9,11.09,11.09,0,0,1,1-4.87A7.91,7.91,0,0,1,55,13.58a7.46,7.46,0,0,1,4.18-1.18,6.6,6.6,0,0,1,4.12,1.3c.18.14.35.28.52.44a5.32,5.32,0,0,0,6,.84,9.74,9.74,0,0,0-2.14-3.5,11.21,11.21,0,0,0-3.65-2.56,11.63,11.63,0,0,0-4.87-1,12,12,0,0,0-9,3.89,13.1,13.1,0,0,0-2.66,4.38,15.57,15.57,0,0,0-.95,5.5,15,15,0,0,0,1,5.49,13.14,13.14,0,0,0,2.71,4.37,12.38,12.38,0,0,0,4,2.91,12.13,12.13,0,0,0,5,1,12.45,12.45,0,0,0,4.35-.79,11,11,0,0,0,3.78-2.4,11.54,11.54,0,0,0,2.66-4,14.05,14.05,0,0,0,1-5.45v-2.7H65.58Z"/><path class="cls-2" d="M83.54,15.38a6.15,6.15,0,0,0-3.31.86,4.55,4.55,0,0,0-1.68,2.11V15.6h-4.2V35.11h4.47V24.24A4.79,4.79,0,0,1,80,20.8a4,4,0,0,1,3-1.22h1.6v-4.2Z"/><path class="cls-2" d="M96.06,35.53a9.4,9.4,0,0,1-4.9-1.32,10,10,0,0,1-3.55-3.63,10.29,10.29,0,0,1-1.32-5.23,10.3,10.3,0,0,1,1.32-5.24,10,10,0,0,1,3.53-3.62,9.31,9.31,0,0,1,4.92-1.33,9.42,9.42,0,0,1,5,1.33,9.78,9.78,0,0,1,3.51,3.6,10.39,10.39,0,0,1,1.31,5.26,10.15,10.15,0,0,1-1.33,5.23A9.89,9.89,0,0,1,101,34.21,9.39,9.39,0,0,1,96.06,35.53Zm0-4.3a4.71,4.71,0,0,0,2.66-.75,5.22,5.22,0,0,0,1.8-2.1,6.81,6.81,0,0,0,.66-3,6.7,6.7,0,0,0-.66-3,5.23,5.23,0,0,0-1.8-2.08,5.07,5.07,0,0,0-5.31,0,5.18,5.18,0,0,0-1.81,2.08,7.16,7.16,0,0,0,0,6.05,5.24,5.24,0,0,0,1.81,2.1A4.75,4.75,0,0,0,96.06,31.23Z"/><path class="cls-2" d="M120.72,15.59V27a4.93,4.93,0,0,1-.47,2.23,3.59,3.59,0,0,1-1.33,1.45,3.67,3.67,0,0,1-1.93.52,3.79,3.79,0,0,1-1.95-.52,3.4,3.4,0,0,1-1.32-1.44,4.64,4.64,0,0,1-.46-2.13V15.59h-4.48v12a9.61,9.61,0,0,0,.85,4.19,6.54,6.54,0,0,0,2.41,2.8,6.73,6.73,0,0,0,3.73,1,6.45,6.45,0,0,0,3.42-.89A4.74,4.74,0,0,0,121,32.72V35.1h4.21V15.59Z"/><path class="cls-2" d="M147.47,20.18a9.91,9.91,0,0,0-3.34-3.66,8.46,8.46,0,0,0-4.72-1.36,7.74,7.74,0,0,0-3.76.88,6.54,6.54,0,0,0-2.17,1.87V15.59h-4.21V42.28h4.48V33.22a6.53,6.53,0,0,0,1.95,1.49,8.21,8.21,0,0,0,3.68.82,8.74,8.74,0,0,0,4.78-1.34,9.48,9.48,0,0,0,3.33-3.68,10.92,10.92,0,0,0,1.22-5.17,10.76,10.76,0,0,0-1.24-5.17Zm-4.05,8.22a5.27,5.27,0,0,1-1.85,2.08,4.89,4.89,0,0,1-2.7.75,4.66,4.66,0,0,1-2.63-.75,5.08,5.08,0,0,1-1.83-2.08,6.77,6.77,0,0,1-.66-3,6.45,6.45,0,0,1,.66-3,5.08,5.08,0,0,1,1.83-2.08,4.7,4.7,0,0,1,2.63-.76,4.94,4.94,0,0,1,2.7.76,5.27,5.27,0,0,1,1.85,2.08,6.54,6.54,0,0,1,.67,3A6.7,6.7,0,0,1,143.42,28.4Z"/><path class="cls-2" d="M157.12,35.11V8.39H174a4.2,4.2,0,0,1-4.07,4.3h-8.18v7.39h10.72a4.23,4.23,0,0,1-4.11,4.34h-6.61V35.11h-4.64Z"/><path class="cls-2" d="M176.62,13.41v-5h4.48v5Zm0,21.7V15.6h4.48V35.11Z"/><path class="cls-2" d="M193.62,35.32a6.37,6.37,0,0,1-4.85-1.81A7.12,7.12,0,0,1,187,28.4V19.79h-3.16V15.6h.34a2.79,2.79,0,0,0,2.09-.76,3,3,0,0,0,.73-2.19V11.14h4.48v4.45h4.24v4.2h-4.24v8.35a3.74,3.74,0,0,0,.32,1.65,2.23,2.23,0,0,0,1,1,3.86,3.86,0,0,0,1.78.36,4.18,4.18,0,0,0,.56,0l.63-.07v4l-1.09.14a9.2,9.2,0,0,1-1.12.07Z"/></g></g></svg>