<svg xmlns="http://www.w3.org/2000/svg" viewBox="0 0 194.08 23.55"><defs><style>.cls-1{fill:#fcfcfc;}</style></defs><g id="Layer_2" data-name="Layer 2"><g id="Layer_1-2" data-name="Layer 1"><path class="cls-1" d="M3.2,8.28A3.5,3.5,0,0,1,.83,7.56,2.83,2.83,0,0,1,0,5.32Q0,5,0,4.69c0-.2,0-.39.07-.58a5.17,5.17,0,0,1,.78-2A3.72,3.72,0,0,1,2.32.82,4.51,4.51,0,0,1,4.37.37,4.48,4.48,0,0,1,6,.62,2.3,2.3,0,0,1,7,1.38a2.15,2.15,0,0,1,.38,1.3c0,.09,0,.19,0,.3s0,.2,0,.31H6.06a.6.6,0,0,0,0-.22,1.7,1.7,0,0,0,0-.22,1.32,1.32,0,0,0-.22-.79,1.21,1.21,0,0,0-.61-.47,2.69,2.69,0,0,0-.94-.15,3,3,0,0,0-1.11.19,2.37,2.37,0,0,0-.85.54A2.8,2.8,0,0,0,1.77,3a4.32,4.32,0,0,0-.35,1.12,2.58,2.58,0,0,0-.07.34c0,.1,0,.2,0,.29a2.29,2.29,0,0,0,0,.25,2,2,0,0,0,0,.25,2.5,2.5,0,0,0,.22,1.1A1.41,1.41,0,0,0,2.16,7a2.6,2.6,0,0,0,1.06.2A3.49,3.49,0,0,0,4.43,7a2.24,2.24,0,0,0,.86-.62,2,2,0,0,0,.46-1H7A3.36,3.36,0,0,1,6.28,7,3.31,3.31,0,0,1,4.94,8,4.68,4.68,0,0,1,3.2,8.28Z"/><path class="cls-1" d="M7.71,8.15l1-5.86h.91l0,.93H9.7A2.83,2.83,0,0,1,10,2.71a2,2,0,0,1,.48-.4,1.4,1.4,0,0,1,.66-.16,1.18,1.18,0,0,1,.34,0l.22.05-.18,1.09h-.4a1.88,1.88,0,0,0-.65.11,1.51,1.51,0,0,0-.52.34,2.12,2.12,0,0,0-.36.54,2.51,2.51,0,0,0-.21.73l-.55,3.1Z"/><path class="cls-1" d="M13.4,8.28a2,2,0,0,1-1-.24,1.52,1.52,0,0,1-.66-.71,2.63,2.63,0,0,1-.24-1.19,4,4,0,0,1,0-.47c0-.16,0-.33.07-.52a5.28,5.28,0,0,1,.56-1.71,2.52,2.52,0,0,1,.93-1,2.56,2.56,0,0,1,1.24-.31,2.26,2.26,0,0,1,.71.1,1.55,1.55,0,0,1,.56.28A1.25,1.25,0,0,1,16,3h.08l.33-.73h.95L17.09,3.7c-.05.28-.11.56-.16.85s-.11.58-.16.86-.09.53-.13.76-.08.42-.1.57,0,.25,0,.28a.27.27,0,0,0,.09.22.33.33,0,0,0,.23.07h.4l-.13.79a2,2,0,0,1-.31.12,1.56,1.56,0,0,1-.46.06.87.87,0,0,1-.5-.13.68.68,0,0,1-.29-.37l-.06-.22a.67.67,0,0,1,0-.25h-.08a2.25,2.25,0,0,1-.87.73A2.57,2.57,0,0,1,13.4,8.28Zm.48-1a1.46,1.46,0,0,0,.57-.12A1.86,1.86,0,0,0,15,6.81a2.47,2.47,0,0,0,.41-.62,3.82,3.82,0,0,0,.28-.9c0-.14,0-.26,0-.36s0-.2,0-.28a1.77,1.77,0,0,0,0-.22,1.79,1.79,0,0,0-.12-.7.94.94,0,0,0-.38-.43,1.29,1.29,0,0,0-.66-.14,1.57,1.57,0,0,0-.83.2,1.49,1.49,0,0,0-.58.63,4.26,4.26,0,0,0-.36,1.14c0,.15-.06.29-.07.4s0,.21,0,.3a2.18,2.18,0,0,0,0,.25A1.2,1.2,0,0,0,13,7,1.18,1.18,0,0,0,13.88,7.28Z"/><path class="cls-1" d="M20.4,8.28a3.47,3.47,0,0,1-1.34-.23,1.63,1.63,0,0,1-.8-.73A2.61,2.61,0,0,1,18,6.06c0-.2,0-.41,0-.62a6,6,0,0,1,.11-.61,5.26,5.26,0,0,1,.36-1.08,3.4,3.4,0,0,1,.59-.85,2.45,2.45,0,0,1,.85-.55,3,3,0,0,1,1.13-.2,3.21,3.21,0,0,1,1.24.21,1.64,1.64,0,0,1,.75.61,1.68,1.68,0,0,1,.26.95c0,.09,0,.17,0,.27s0,.18-.05.28H22.09a1.37,1.37,0,0,0,0-.19,1.36,1.36,0,0,0,0-.2A1.21,1.21,0,0,0,22,3.56a.66.66,0,0,0-.34-.34,1.34,1.34,0,0,0-.6-.12,1.55,1.55,0,0,0-.84.23,1.69,1.69,0,0,0-.59.67,4.32,4.32,0,0,0-.36,1.07,3.77,3.77,0,0,0-.06.39c0,.11,0,.21,0,.3s0,.17,0,.25a1.74,1.74,0,0,0,.14.74.84.84,0,0,0,.4.43,1.34,1.34,0,0,0,.66.14,1.6,1.6,0,0,0,.75-.16,1.41,1.41,0,0,0,.49-.48A2.28,2.28,0,0,0,21.88,6H23a3.33,3.33,0,0,1-.44,1.23A2.23,2.23,0,0,1,21.7,8,2.72,2.72,0,0,1,20.4,8.28Z"/><path class="cls-1" d="M23.78,8.15,25.19.09h1.16L25.49,5l2.78-2.67h1.38L27.26,4.58l1.46,3.57H27.46L26.41,5.33l-1.16,1-.32,1.8Z"/><path class="cls-1" d="M31.91,8.28A3.48,3.48,0,0,1,30.53,8a1.66,1.66,0,0,1-.83-.73,2.6,2.6,0,0,1-.27-1.25c0-.2,0-.4,0-.61a5.21,5.21,0,0,1,.09-.59,4.36,4.36,0,0,1,.52-1.39,2.7,2.7,0,0,1,1-1,2.94,2.94,0,0,1,1.53-.36,3,3,0,0,1,1.28.24,1.66,1.66,0,0,1,.77.71,2.48,2.48,0,0,1,.26,1.18c0,.17,0,.36,0,.58a5,5,0,0,1-.13.65H30.65c0,.1,0,.2,0,.28a2.26,2.26,0,0,0,0,.26,1.61,1.61,0,0,0,.14.73.84.84,0,0,0,.43.42,1.73,1.73,0,0,0,.73.13,2.26,2.26,0,0,0,.53-.06,1.63,1.63,0,0,0,.44-.21,1.42,1.42,0,0,0,.35-.38,1.49,1.49,0,0,0,.22-.56h1.14a2.94,2.94,0,0,1-.34,1,2.14,2.14,0,0,1-.59.67,2.56,2.56,0,0,1-.79.4A3.32,3.32,0,0,1,31.91,8.28Zm-1.1-3.62h2.85c0-.09,0-.17,0-.25s0-.15,0-.22a1.39,1.39,0,0,0-.13-.62.72.72,0,0,0-.39-.36,1.41,1.41,0,0,0-.61-.12,1.79,1.79,0,0,0-.81.18,1.4,1.4,0,0,0-.58.53A3,3,0,0,0,30.81,4.66Z"/><path class="cls-1" d="M37.56,8.28A2,2,0,0,1,36.51,8a1.72,1.72,0,0,1-.67-.74,2.54,2.54,0,0,1-.24-1.15c0-.15,0-.32,0-.49a3.64,3.64,0,0,1,.07-.54,5.38,5.38,0,0,1,.39-1.33,3.22,3.22,0,0,1,.61-.91,2.26,2.26,0,0,1,1.69-.72,2.83,2.83,0,0,1,.74.09,1.82,1.82,0,0,1,.58.27,1.25,1.25,0,0,1,.39.49h.07L40.67.09h1.16L40.41,8.15h-.93l0-.8h-.08a2.31,2.31,0,0,1-.83.7A2.39,2.39,0,0,1,37.56,8.28Zm.39-1a1.61,1.61,0,0,0,.87-.23,1.66,1.66,0,0,0,.59-.66,3.37,3.37,0,0,0,.34-1.07A3.49,3.49,0,0,0,39.81,5c0-.1,0-.2,0-.28s0-.16,0-.22a1.73,1.73,0,0,0-.14-.75.91.91,0,0,0-.4-.42,1.48,1.48,0,0,0-.61-.12,1.64,1.64,0,0,0-.86.2,1.46,1.46,0,0,0-.58.62,3.42,3.42,0,0,0-.35,1.08c0,.17,0,.32-.07.44s0,.22,0,.31a2.29,2.29,0,0,0,0,.25,1.27,1.27,0,0,0,.29.92A1.18,1.18,0,0,0,38,7.28Z"/><path class="cls-1" d="M45.29,8.15l-.73-5.86h1.16L46,5.12c0,.1,0,.25,0,.44s0,.4,0,.61,0,.4,0,.57h0l.21-.56c.08-.2.16-.4.23-.6l.19-.46L48,2.29h1.25l.21,2.83q0,.18,0,.48l0,.59c0,.21,0,.39,0,.55h.05c.06-.14.12-.32.2-.52l.24-.6.21-.5,1.25-2.83h1.16L49.83,8.15H48.64l-.21-3.09c0-.12,0-.26,0-.42s0-.33,0-.5,0-.32,0-.45h-.06c0,.12-.1.26-.16.44l-.18.5c-.06.16-.13.3-.19.43l-1.3,3.09Z"/><path class="cls-1" d="M54.31,8.28a2,2,0,0,1-1-.24,1.59,1.59,0,0,1-.67-.71,2.77,2.77,0,0,1-.23-1.19,4,4,0,0,1,0-.47c0-.16,0-.33.07-.52a5,5,0,0,1,.56-1.71,2.52,2.52,0,0,1,.93-1,2.56,2.56,0,0,1,1.24-.31,2.26,2.26,0,0,1,.71.1,1.55,1.55,0,0,1,.56.28,1.35,1.35,0,0,1,.39.49H57l.32-.73h1L58,3.7c-.06.28-.11.56-.17.85s-.1.58-.15.86-.1.53-.14.76-.07.42-.09.57,0,.25,0,.28a.29.29,0,0,0,.08.22.36.36,0,0,0,.24.07h.4L58,8.1a2,2,0,0,1-.31.12,1.56,1.56,0,0,1-.46.06.87.87,0,0,1-.5-.13.64.64,0,0,1-.29-.37,1.42,1.42,0,0,1-.07-.22,1,1,0,0,1,0-.25h-.08a2.35,2.35,0,0,1-.88.73A2.5,2.5,0,0,1,54.31,8.28Zm.48-1a1.38,1.38,0,0,0,.56-.12,1.76,1.76,0,0,0,.52-.35,2.47,2.47,0,0,0,.41-.62,3.82,3.82,0,0,0,.28-.9c0-.14,0-.26,0-.36s0-.2,0-.28a2,2,0,0,0,0-.22,1.62,1.62,0,0,0-.13-.7.84.84,0,0,0-.38-.43,1.28,1.28,0,0,0-.65-.14,1.57,1.57,0,0,0-.83.2,1.43,1.43,0,0,0-.58.63,3.91,3.91,0,0,0-.37,1.14,3.92,3.92,0,0,0-.06.4c0,.11,0,.21,0,.3s0,.17,0,.25a1.25,1.25,0,0,0,.29.9A1.21,1.21,0,0,0,54.79,7.28Z"/><path class="cls-1" d="M58.75,8.15,60.17.09h1.16L59.91,8.15Z"/><path class="cls-1" d="M61.41,8.15,62.82.09H64L62.57,8.15Z"/><path class="cls-1" d="M66.35,8.28a4.52,4.52,0,0,1-1-.1,2.35,2.35,0,0,1-.75-.3,1.24,1.24,0,0,1-.46-.48A1.25,1.25,0,0,1,64,6.79a1.09,1.09,0,0,1,0-.26c0-.08,0-.15,0-.21h1.13l0,.14a.72.72,0,0,0,0,.13A.64.64,0,0,0,65.3,7a.89.89,0,0,0,.45.24,2.49,2.49,0,0,0,.64.08,2.21,2.21,0,0,0,1-.2.82.82,0,0,0,.31-.27.76.76,0,0,0,.11-.41.46.46,0,0,0-.13-.35.87.87,0,0,0-.34-.24,3.79,3.79,0,0,0-.48-.17l-.58-.17-.59-.2a2.27,2.27,0,0,1-.54-.27,1.24,1.24,0,0,1-.38-.41,1.17,1.17,0,0,1-.15-.61,1.73,1.73,0,0,1,.2-.83,1.78,1.78,0,0,1,.54-.59,2.8,2.8,0,0,1,.8-.37,3.85,3.85,0,0,1,1-.12,4.16,4.16,0,0,1,.9.09,2.32,2.32,0,0,1,.7.27,1.37,1.37,0,0,1,.46.43,1,1,0,0,1,.16.57,1.45,1.45,0,0,1,0,.3.69.69,0,0,1-.05.18H68.12s0-.08,0-.12a.38.38,0,0,0,0-.1.62.62,0,0,0-.13-.4.81.81,0,0,0-.36-.22,1.93,1.93,0,0,0-.57-.07,2.12,2.12,0,0,0-.53,0,1.28,1.28,0,0,0-.4.15.72.72,0,0,0-.25.24.63.63,0,0,0-.09.33.44.44,0,0,0,.2.38,1.73,1.73,0,0,0,.51.23l.68.21.64.21a3.56,3.56,0,0,1,.59.28,1.06,1.06,0,0,1,.42.42,1.18,1.18,0,0,1,.16.65,2,2,0,0,1-.21.94,1.73,1.73,0,0,1-.57.63,2.61,2.61,0,0,1-.85.37A4.78,4.78,0,0,1,66.35,8.28Z"/><path class="cls-1" d="M70.13,8.15l.23-1.29H71.6l-.23,1.29Z"/><path class="cls-1" d="M78.6,8.28a6,6,0,0,1-1.22-.11,3.56,3.56,0,0,1-1-.34,1.66,1.66,0,0,1-.66-.59,1.52,1.52,0,0,1-.24-.86,2,2,0,0,1,0-.34,1.39,1.39,0,0,1,.06-.33h1.24c0,.06,0,.14,0,.23a1.12,1.12,0,0,0,0,.24.84.84,0,0,0,.23.59,1.27,1.27,0,0,0,.62.34,3.76,3.76,0,0,0,.94.1,4.89,4.89,0,0,0,.91-.08,2.22,2.22,0,0,0,.66-.25,1,1,0,0,0,.4-.39,1,1,0,0,0,.13-.5.71.71,0,0,0-.16-.48A1.51,1.51,0,0,0,80,5.17a3.87,3.87,0,0,0-.61-.25c-.22-.08-.46-.15-.7-.22s-.57-.18-.85-.28A4,4,0,0,1,77.09,4a1.86,1.86,0,0,1-.55-.57,1.55,1.55,0,0,1-.21-.83,1.92,1.92,0,0,1,.25-1,2.1,2.1,0,0,1,.69-.7,3.11,3.11,0,0,1,1-.42,5.19,5.19,0,0,1,1.2-.14,5.83,5.83,0,0,1,1.15.11,3,3,0,0,1,.9.33,1.51,1.51,0,0,1,.61.56,1.46,1.46,0,0,1,.21.79c0,.07,0,.15,0,.24s0,.19,0,.31H81.05c0-.08,0-.15,0-.2a.66.66,0,0,0,0-.13.78.78,0,0,0-.42-.71,2.37,2.37,0,0,0-1.17-.24,3.65,3.65,0,0,0-1,.12,1.61,1.61,0,0,0-.68.35.74.74,0,0,0-.25.57.65.65,0,0,0,.13.41,1.09,1.09,0,0,0,.36.29,4.11,4.11,0,0,0,.51.22c.2.07.4.14.62.2l.93.3a5.33,5.33,0,0,1,.87.39,2,2,0,0,1,.65.6,1.55,1.55,0,0,1,.25.88,2.32,2.32,0,0,1-.28,1.16,2.21,2.21,0,0,1-.74.78,3.34,3.34,0,0,1-1.06.44A5.07,5.07,0,0,1,78.6,8.28Z"/><path class="cls-1" d="M82.86,8.15l1-5.86h1.16L84,8.15Zm1.19-6.88L84.27.09h1.16l-.22,1.18Z"/><path class="cls-1" d="M85.51,8.15l1-5.86h.94l0,.83h.08a2.88,2.88,0,0,1,.58-.52,3.12,3.12,0,0,1,.69-.33,2.45,2.45,0,0,1,.75-.12,2.24,2.24,0,0,1,.84.15,1.25,1.25,0,0,1,.6.46,1.5,1.5,0,0,1,.22.86c0,.12,0,.25,0,.38s0,.27-.07.41l-.66,3.74H89.29l.65-3.67c0-.1,0-.19,0-.28A2.32,2.32,0,0,0,90,4a.85.85,0,0,0-.12-.48.58.58,0,0,0-.31-.24,1.33,1.33,0,0,0-.47-.07,1.87,1.87,0,0,0-.61.11,1.68,1.68,0,0,0-.56.34,2.27,2.27,0,0,0-.44.56,2.49,2.49,0,0,0-.25.77l-.57,3.2Z"/><path class="cls-1" d="M91.9,8.15,93.32.09h1.16L93.62,5l2.77-2.67h1.39L95.39,4.58l1.46,3.57H95.59L94.53,5.33l-1.16,1-.31,1.8Z"/><path class="cls-1" d="M97.79,8.15l1-5.86H100L99,8.15ZM99,1.27,99.19.09h1.16l-.21,1.18Z"/><path class="cls-1" d="M100.44,8.15l1-5.86h.93l0,.83h.08A2.88,2.88,0,0,1,103,2.6a2.74,2.74,0,0,1,.69-.33,2.34,2.34,0,0,1,.74-.12,2.26,2.26,0,0,1,.85.15,1.27,1.27,0,0,1,.59.46,1.51,1.51,0,0,1,.23.86,2.53,2.53,0,0,1,0,.38,3.12,3.12,0,0,1-.06.41l-.66,3.74h-1.16l.65-3.67,0-.28a1.06,1.06,0,0,0,0-.24,1,1,0,0,0-.11-.48.62.62,0,0,0-.31-.24,1.37,1.37,0,0,0-.47-.07,1.75,1.75,0,0,0-1.18.45A2.23,2.23,0,0,0,102.17,5l-.57,3.2Z"/><path class="cls-1" d="M108.77,10.18a3.31,3.31,0,0,1-1.08-.16,1.66,1.66,0,0,1-.74-.45,1,1,0,0,1-.27-.73,1,1,0,0,1,0-.17.75.75,0,0,1,0-.24h1.12a.28.28,0,0,0,0,.09v.06A.58.58,0,0,0,108,9a.81.81,0,0,0,.38.2,2.12,2.12,0,0,0,.52.06,1.89,1.89,0,0,0,.89-.19,1.46,1.46,0,0,0,.61-.55,2.5,2.5,0,0,0,.32-.91,2.07,2.07,0,0,0,0-.22c0-.07,0-.13,0-.17h-.07a2.07,2.07,0,0,1-.5.48,2.31,2.31,0,0,1-.62.28,2.54,2.54,0,0,1-.68.09,2.13,2.13,0,0,1-1-.23,1.57,1.57,0,0,1-.67-.7A2.74,2.74,0,0,1,107,5.91c0-.13,0-.27,0-.41A4.49,4.49,0,0,1,107,5a3.79,3.79,0,0,1,1-2.18,2.42,2.42,0,0,1,1.76-.69,2.21,2.21,0,0,1,1.06.24,1.49,1.49,0,0,1,.68.7h.08l.24-.8h.94l-.9,5.19A4.36,4.36,0,0,1,111.31,9a2.27,2.27,0,0,1-1,.86A3.64,3.64,0,0,1,108.77,10.18ZM109.35,7a1.51,1.51,0,0,0,.59-.11,1.53,1.53,0,0,0,.52-.33,1.81,1.81,0,0,0,.4-.58,3.35,3.35,0,0,0,.25-.84c0-.13,0-.25,0-.34a1.21,1.21,0,0,0,0-.25c0-.07,0-.14,0-.21a1.63,1.63,0,0,0-.13-.67.89.89,0,0,0-.39-.4,1.43,1.43,0,0,0-.67-.13,1.77,1.77,0,0,0-.8.18,1.47,1.47,0,0,0-.61.58A3.53,3.53,0,0,0,108.25,5c0,.15,0,.28,0,.39s0,.2,0,.27,0,.15,0,.21a1.53,1.53,0,0,0,.13.65.82.82,0,0,0,.4.38A1.48,1.48,0,0,0,109.35,7Z"/><path class="cls-1" d="M115.21,10.18l-.31,0-.29-.06-.23-.07.14-.81h.57a.63.63,0,0,0,.42-.14.61.61,0,0,0,.2-.39l1-5.45h-.85l.17-1h.86l.14-.84a3.26,3.26,0,0,1,.22-.69,1.36,1.36,0,0,1,.49-.55,1.79,1.79,0,0,1,.94-.21l.31,0a1.47,1.47,0,0,1,.29.05,1,1,0,0,1,.23.08l-.15.81h-.57a.59.59,0,0,0-.41.13.66.66,0,0,0-.2.39l-.13.81h1.09l-.17,1h-1.1l-1,5.5a2.26,2.26,0,0,1-.22.68,1.34,1.34,0,0,1-.49.54A1.64,1.64,0,0,1,115.21,10.18Zm3.55-2L120.18.09h1.16l-1.42,8.06Z"/><path class="cls-1" d="M124,8.28A3.4,3.4,0,0,1,122.64,8a1.67,1.67,0,0,1-.82-.73,2.44,2.44,0,0,1-.28-1.25c0-.14,0-.29,0-.44s0-.32.07-.49a4.59,4.59,0,0,1,.6-1.69,2.65,2.65,0,0,1,1.08-1,3.57,3.57,0,0,1,1.55-.32,3.38,3.38,0,0,1,1.36.24,1.67,1.67,0,0,1,.82.73,2.61,2.61,0,0,1,.27,1.26c0,.14,0,.29,0,.44a3.31,3.31,0,0,1-.08.49A4.43,4.43,0,0,1,126.63,7a2.53,2.53,0,0,1-1.06,1A3.48,3.48,0,0,1,124,8.28Zm.07-1a2,2,0,0,0,.94-.21,1.8,1.8,0,0,0,.64-.67A3.69,3.69,0,0,0,126,5.32a2.32,2.32,0,0,0,.07-.39c0-.1,0-.2,0-.28a1.77,1.77,0,0,0,0-.22,1.74,1.74,0,0,0-.14-.74,1,1,0,0,0-.43-.44,1.74,1.74,0,0,0-.74-.14,1.83,1.83,0,0,0-.93.22,1.78,1.78,0,0,0-.63.67,3.57,3.57,0,0,0-.39,1.12c0,.15,0,.28,0,.39s0,.2,0,.28,0,.16,0,.23a1.69,1.69,0,0,0,.14.73,1,1,0,0,0,.44.43A1.66,1.66,0,0,0,124.06,7.32Z"/><path class="cls-1" d="M130.49,8.28A3.4,3.4,0,0,1,129.14,8a1.67,1.67,0,0,1-.82-.73A2.44,2.44,0,0,1,128,6.06c0-.14,0-.29,0-.44s0-.32.07-.49a4.59,4.59,0,0,1,.6-1.69,2.65,2.65,0,0,1,1.08-1,3.57,3.57,0,0,1,1.55-.32,3.38,3.38,0,0,1,1.36.24,1.67,1.67,0,0,1,.82.73,2.61,2.61,0,0,1,.27,1.26c0,.14,0,.29,0,.44s0,.31-.08.49A4.6,4.6,0,0,1,133.13,7a2.53,2.53,0,0,1-1.06,1A3.48,3.48,0,0,1,130.49,8.28Zm.07-1a1.94,1.94,0,0,0,.93-.21,1.66,1.66,0,0,0,.64-.67,3.42,3.42,0,0,0,.37-1.12c0-.15.06-.28.07-.39s0-.2,0-.28a1.77,1.77,0,0,0,0-.22,1.74,1.74,0,0,0-.14-.74,1,1,0,0,0-.43-.44,1.78,1.78,0,0,0-.74-.14,1.83,1.83,0,0,0-.93.22,1.7,1.7,0,0,0-.63.67,3.57,3.57,0,0,0-.39,1.12c0,.15,0,.28-.05.39s0,.2,0,.28,0,.16,0,.23a1.69,1.69,0,0,0,.14.73.92.92,0,0,0,.44.43A1.66,1.66,0,0,0,130.56,7.32Z"/><path class="cls-1" d="M134.41,8.15l1-5.86h.91l0,.93h.07a2.83,2.83,0,0,1,.34-.51,2,2,0,0,1,.48-.4,1.4,1.4,0,0,1,.66-.16,1.18,1.18,0,0,1,.34,0l.22.05-.18,1.09h-.4a1.88,1.88,0,0,0-.65.11,1.51,1.51,0,0,0-.52.34,2.12,2.12,0,0,0-.36.54,2.51,2.51,0,0,0-.21.73l-.55,3.1Z"/><path class="cls-1" d="M140.57,8.28a4.55,4.55,0,0,1-1-.1,2.35,2.35,0,0,1-.75-.3,1.24,1.24,0,0,1-.46-.48,1.25,1.25,0,0,1-.15-.61,1.09,1.09,0,0,1,0-.26c0-.08,0-.15,0-.21h1.14a.74.74,0,0,0,0,.14c0,.06,0,.1,0,.13a.69.69,0,0,0,.16.45.89.89,0,0,0,.45.24,2.49,2.49,0,0,0,.64.08,3,3,0,0,0,.52-.05,2.37,2.37,0,0,0,.45-.15.82.82,0,0,0,.31-.27.68.68,0,0,0,.11-.41.5.5,0,0,0-.12-.35,1,1,0,0,0-.34-.24,4.65,4.65,0,0,0-.49-.17l-.57-.17-.6-.2a2.27,2.27,0,0,1-.54-.27,1.35,1.35,0,0,1-.38-.41,1.17,1.17,0,0,1-.14-.61,1.72,1.72,0,0,1,.19-.83,1.78,1.78,0,0,1,.54-.59,2.8,2.8,0,0,1,.8-.37,3.85,3.85,0,0,1,1-.12,4.16,4.16,0,0,1,.9.09,2.22,2.22,0,0,1,.7.27,1.37,1.37,0,0,1,.46.43,1,1,0,0,1,.16.57,1.45,1.45,0,0,1,0,.3.69.69,0,0,1-.05.18h-1.12s0-.08,0-.12a.38.38,0,0,0,0-.1.57.57,0,0,0-.13-.4.72.72,0,0,0-.36-.22,1.93,1.93,0,0,0-.57-.07,2.12,2.12,0,0,0-.53,0,1.13,1.13,0,0,0-.39.15.68.68,0,0,0-.26.24.63.63,0,0,0-.09.33.44.44,0,0,0,.2.38,1.86,1.86,0,0,0,.51.23l.68.21.64.21a3.22,3.22,0,0,1,.59.28,1.06,1.06,0,0,1,.42.42,1.18,1.18,0,0,1,.16.65,2,2,0,0,1-.21.94,1.65,1.65,0,0,1-.57.63,2.61,2.61,0,0,1-.85.37A4.76,4.76,0,0,1,140.57,8.28Z"/><path class="cls-1" d="M144.34,8.15l.23-1.29h1.25l-.24,1.29Z"/><path class="cls-1" d="M152,8.28a2.92,2.92,0,0,1-1.75-.45,1.58,1.58,0,0,1-.61-1.34c0-.08,0-.17,0-.29a3,3,0,0,1,.1-.51h1.23a3.84,3.84,0,0,0-.09.45c0,.1,0,.17,0,.21a.8.8,0,0,0,.28.65,1.34,1.34,0,0,0,.84.22A1.43,1.43,0,0,0,153,6.8a2.13,2.13,0,0,0,.55-1.22l.9-5.08h1.24l-.88,5.06a4.11,4.11,0,0,1-.55,1.53,2.55,2.55,0,0,1-1,.9A3,3,0,0,1,152,8.28Z"/><path class="cls-1" d="M157.91,8.28a2,2,0,0,1-1-.24,1.57,1.57,0,0,1-.66-.71A2.63,2.63,0,0,1,156,6.14a4,4,0,0,1,0-.47c0-.16,0-.33.07-.52a5.28,5.28,0,0,1,.56-1.71,2.52,2.52,0,0,1,.93-1,2.56,2.56,0,0,1,1.24-.31,2.26,2.26,0,0,1,.71.1,1.69,1.69,0,0,1,.57.28,1.46,1.46,0,0,1,.39.49h.07l.33-.73h1L161.6,3.7c0,.28-.11.56-.16.85s-.11.58-.16.86-.09.53-.13.76-.07.42-.1.57S161,7,161,7a.27.27,0,0,0,.09.22.35.35,0,0,0,.23.07h.4l-.13.79a1.68,1.68,0,0,1-.31.12,1.56,1.56,0,0,1-.46.06.87.87,0,0,1-.5-.13.72.72,0,0,1-.29-.37L160,7.56a.67.67,0,0,1,0-.25h-.08A2.25,2.25,0,0,1,159,8,2.57,2.57,0,0,1,157.91,8.28Zm.48-1a1.46,1.46,0,0,0,.57-.12,1.86,1.86,0,0,0,.51-.35,2.23,2.23,0,0,0,.41-.62,3.82,3.82,0,0,0,.28-.9c0-.14,0-.26.05-.36s0-.2,0-.28a1.77,1.77,0,0,0,0-.22,1.79,1.79,0,0,0-.12-.7.89.89,0,0,0-.38-.43,1.29,1.29,0,0,0-.66-.14,1.6,1.6,0,0,0-.83.2,1.49,1.49,0,0,0-.58.63,4.26,4.26,0,0,0-.36,1.14c0,.15,0,.29-.07.4s0,.21,0,.3a2.18,2.18,0,0,0,0,.25,1.2,1.2,0,0,0,.29.9A1.18,1.18,0,0,0,158.39,7.28Z"/><path class="cls-1" d="M162.36,8.15l1-5.86h.94l0,.83h.07a2.73,2.73,0,0,1,.56-.52,2.46,2.46,0,0,1,.62-.33,2.12,2.12,0,0,1,.71-.12,1.83,1.83,0,0,1,.93.23,1.18,1.18,0,0,1,.52.74h.07a3.05,3.05,0,0,1,.57-.52,2.65,2.65,0,0,1,.65-.33,2.18,2.18,0,0,1,.72-.12,1.69,1.69,0,0,1,1.11.34,1.3,1.3,0,0,1,.43,1.11c0,.11,0,.23,0,.35s0,.25-.06.39l-.69,3.81h-1.15L170,4.44c0-.1,0-.19,0-.27a1.64,1.64,0,0,0,0-.22.88.88,0,0,0-.11-.47.62.62,0,0,0-.29-.24,1.2,1.2,0,0,0-.44-.07,1.36,1.36,0,0,0-.71.21,1.92,1.92,0,0,0-.58.59,2.8,2.8,0,0,0-.35.92L167,8.15h-1.15l.65-3.71c0-.1,0-.19,0-.27a2,2,0,0,0,0-.22.88.88,0,0,0-.11-.47.62.62,0,0,0-.29-.24,1.2,1.2,0,0,0-.44-.07,1.3,1.3,0,0,0-.7.21,1.85,1.85,0,0,0-.59.59,2.8,2.8,0,0,0-.35.92l-.56,3.26Z"/><path class="cls-1" d="M171.94,8.15l1-5.86h.94l0,.83H174a2.68,2.68,0,0,1,.55-.52,2.71,2.71,0,0,1,.63-.33,2.06,2.06,0,0,1,.7-.12,1.78,1.78,0,0,1,.93.23,1.14,1.14,0,0,1,.52.74h.08a3.05,3.05,0,0,1,.57-.52,2.49,2.49,0,0,1,.65-.33,2.18,2.18,0,0,1,.72-.12,1.73,1.73,0,0,1,1.11.34,1.33,1.33,0,0,1,.43,1.11c0,.11,0,.23,0,.35l-.06.39-.69,3.81h-1.15l.66-3.71c0-.1,0-.19,0-.27a1.62,1.62,0,0,0,0-.22.89.89,0,0,0-.1-.47.6.6,0,0,0-.3-.24,1.14,1.14,0,0,0-.43-.07,1.33,1.33,0,0,0-.71.21,2,2,0,0,0-.59.59,2.79,2.79,0,0,0-.34.92l-.57,3.26h-1.16l.66-3.71c0-.1,0-.19,0-.27a2,2,0,0,0,0-.22.88.88,0,0,0-.11-.47.6.6,0,0,0-.3-.24,1.14,1.14,0,0,0-.43-.07,1.33,1.33,0,0,0-.71.21A1.92,1.92,0,0,0,174,4a2.59,2.59,0,0,0-.35.92l-.57,3.26Z"/><path class="cls-1" d="M184.16,8.28A3.48,3.48,0,0,1,182.78,8a1.66,1.66,0,0,1-.83-.73,2.49,2.49,0,0,1-.28-1.25,4.26,4.26,0,0,1,0-.61,5.21,5.21,0,0,1,.09-.59,4.34,4.34,0,0,1,.51-1.39,2.87,2.87,0,0,1,1-1,3.5,3.5,0,0,1,2.82-.12,1.66,1.66,0,0,1,.77.71,2.48,2.48,0,0,1,.26,1.18c0,.17,0,.36,0,.58a5,5,0,0,1-.13.65H182.9a1.49,1.49,0,0,0,0,.28,2.26,2.26,0,0,0,0,.26,1.61,1.61,0,0,0,.14.73.86.86,0,0,0,.42.42,1.78,1.78,0,0,0,.74.13,2.12,2.12,0,0,0,.52-.06,1.55,1.55,0,0,0,.45-.21,1.6,1.6,0,0,0,.35-.38,1.68,1.68,0,0,0,.22-.56h1.13a2.94,2.94,0,0,1-.33,1,2.17,2.17,0,0,1-.6.67,2.36,2.36,0,0,1-.79.4A3.21,3.21,0,0,1,184.16,8.28Zm-1.1-3.62h2.85a2.42,2.42,0,0,0,0-.25,1.7,1.7,0,0,0,0-.22,1.4,1.4,0,0,0-.12-.62.76.76,0,0,0-.39-.36,1.41,1.41,0,0,0-.61-.12,1.73,1.73,0,0,0-.81.18,1.49,1.49,0,0,0-.59.53A3,3,0,0,0,183.06,4.66Z"/><path class="cls-1" d="M189.81,8.28A2,2,0,0,1,188.76,8a1.74,1.74,0,0,1-.68-.74,2.68,2.68,0,0,1-.23-1.15,4.18,4.18,0,0,1,0-.49,3.64,3.64,0,0,1,.07-.54,5.38,5.38,0,0,1,.39-1.33,3.22,3.22,0,0,1,.61-.91,2.34,2.34,0,0,1,.77-.54,2.31,2.31,0,0,1,.91-.18,2.86,2.86,0,0,1,.75.09,1.93,1.93,0,0,1,.58.27,1.46,1.46,0,0,1,.39.49h.07l.51-2.91h1.16l-1.43,8.06h-.92l0-.8h-.08a2.39,2.39,0,0,1-.83.7A2.42,2.42,0,0,1,189.81,8.28Zm.39-1a1.58,1.58,0,0,0,.86-.23,1.68,1.68,0,0,0,.6-.66A3.37,3.37,0,0,0,192,5.32c0-.14,0-.27.06-.37s0-.2,0-.28a2,2,0,0,0,0-.22A1.73,1.73,0,0,0,192,3.7a.93.93,0,0,0-.41-.42,1.4,1.4,0,0,0-.6-.12,1.7,1.7,0,0,0-.87.2,1.59,1.59,0,0,0-.58.62,3.7,3.7,0,0,0-.35,1.08c0,.17,0,.32-.06.44s0,.22,0,.31a2.18,2.18,0,0,0,0,.25,1.27,1.27,0,0,0,.29.92A1.15,1.15,0,0,0,190.2,7.28Z"/><path class="cls-1" d="M9.93,21.66a2,2,0,0,1-1-.26,1.66,1.66,0,0,1-.68-.73A2.71,2.71,0,0,1,8,19.52c0-.16,0-.32,0-.49a3.76,3.76,0,0,1,.07-.55,5.43,5.43,0,0,1,.39-1.32,3.08,3.08,0,0,1,.61-.91,2.21,2.21,0,0,1,.77-.54,2.32,2.32,0,0,1,.92-.18,2.83,2.83,0,0,1,.74.09,1.82,1.82,0,0,1,.58.27,1.2,1.2,0,0,1,.39.49h.07L13,13.47H14.2l-1.43,8h-.92l0-.8h-.08a2.29,2.29,0,0,1-.83.7A2.26,2.26,0,0,1,9.93,21.66Zm.39-1a1.64,1.64,0,0,0,.87-.23,1.76,1.76,0,0,0,.59-.67,3.29,3.29,0,0,0,.34-1.07,3.35,3.35,0,0,0,.06-.36c0-.11,0-.2,0-.28s0-.16,0-.23a1.76,1.76,0,0,0-.14-.75.88.88,0,0,0-.4-.41,1.33,1.33,0,0,0-.61-.13,1.74,1.74,0,0,0-.86.2,1.49,1.49,0,0,0-.58.63,3.69,3.69,0,0,0-.36,1.08c0,.17,0,.31-.06.43s0,.22,0,.31,0,.18,0,.26a1.28,1.28,0,0,0,.29.92A1.18,1.18,0,0,0,10.32,20.66Z"/><path class="cls-1" d="M16.85,21.66a3.4,3.4,0,0,1-1.35-.24,1.72,1.72,0,0,1-.82-.73,2.46,2.46,0,0,1-.28-1.25c0-.14,0-.29,0-.45s0-.32.07-.49a4.6,4.6,0,0,1,.6-1.68,2.7,2.7,0,0,1,1.08-1,3.44,3.44,0,0,1,1.55-.32,3.35,3.35,0,0,1,1.36.24,1.63,1.63,0,0,1,.82.73,2.56,2.56,0,0,1,.28,1.26c0,.14,0,.28,0,.44a4.64,4.64,0,0,1-.07.48,4.78,4.78,0,0,1-.59,1.69,2.62,2.62,0,0,1-1.07,1A3.59,3.59,0,0,1,16.85,21.66Zm.07-1a1.84,1.84,0,0,0,.94-.22,1.63,1.63,0,0,0,.64-.66,3.27,3.27,0,0,0,.36-1.13,2.22,2.22,0,0,0,.07-.38c0-.11,0-.2,0-.29V17.8a1.69,1.69,0,0,0-.14-.73.92.92,0,0,0-.43-.44,1.59,1.59,0,0,0-.73-.14,1.67,1.67,0,0,0-1.57.88,3.5,3.5,0,0,0-.38,1.12c0,.15,0,.28-.06.39a1.68,1.68,0,0,0,0,.29,1.77,1.77,0,0,0,0,.23,1.59,1.59,0,0,0,.14.73.84.84,0,0,0,.43.42A1.68,1.68,0,0,0,16.92,20.7Z"/><path class="cls-1" d="M23.35,21.66A3.4,3.4,0,0,1,22,21.42a1.67,1.67,0,0,1-.82-.73,2.46,2.46,0,0,1-.28-1.25c0-.14,0-.29,0-.45s0-.32.07-.49a4.6,4.6,0,0,1,.6-1.68,2.58,2.58,0,0,1,1.08-1,3.44,3.44,0,0,1,1.55-.32,3.38,3.38,0,0,1,1.36.24,1.63,1.63,0,0,1,.82.73,2.56,2.56,0,0,1,.27,1.26c0,.14,0,.28,0,.44a3,3,0,0,1-.08.48A4.42,4.42,0,0,1,26,20.37a2.6,2.6,0,0,1-1.06,1A3.62,3.62,0,0,1,23.35,21.66Zm.07-1a1.89,1.89,0,0,0,.94-.22,1.63,1.63,0,0,0,.64-.66,3.76,3.76,0,0,0,.36-1.13,2.22,2.22,0,0,0,.07-.38c0-.11,0-.2,0-.29a2.06,2.06,0,0,0-.13-.95.92.92,0,0,0-.43-.44,1.6,1.6,0,0,0-.74-.14,1.64,1.64,0,0,0-1.56.88,3.76,3.76,0,0,0-.39,1.12c0,.15,0,.28-.05.39s0,.21,0,.29,0,.15,0,.23a1.73,1.73,0,0,0,.14.73.9.9,0,0,0,.44.42A1.65,1.65,0,0,0,23.42,20.7Z"/><path class="cls-1" d="M27.28,21.52l1-5.86h.92l0,.94h.07a3.48,3.48,0,0,1,.34-.51,2,2,0,0,1,.48-.4,1.29,1.29,0,0,1,.66-.16,1.72,1.72,0,0,1,.34,0l.22.06-.18,1.09h-.4a1.88,1.88,0,0,0-.65.11,1.38,1.38,0,0,0-.52.34,1.82,1.82,0,0,0-.36.54,3.33,3.33,0,0,0-.21.73l-.55,3.09Z"/><path class="cls-1" d="M33.43,21.66a4.52,4.52,0,0,1-1-.11,2.35,2.35,0,0,1-.75-.3,1.37,1.37,0,0,1-.46-.47,1.29,1.29,0,0,1-.15-.62,1.07,1.07,0,0,1,0-.25c0-.08,0-.15.05-.21h1.14a.57.57,0,0,0,0,.14c0,.05,0,.09,0,.12a.69.69,0,0,0,.16.46,1,1,0,0,0,.45.24,2.51,2.51,0,0,0,.64.07,2.24,2.24,0,0,0,.52-.05,1.49,1.49,0,0,0,.45-.15.68.68,0,0,0,.31-.27.66.66,0,0,0,.11-.41.51.51,0,0,0-.12-.35,1.07,1.07,0,0,0-.34-.23,3.91,3.91,0,0,0-.49-.18l-.57-.16-.6-.2a2.66,2.66,0,0,1-.53-.28,1.13,1.13,0,0,1-.53-1,1.68,1.68,0,0,1,.19-.82,1.72,1.72,0,0,1,.54-.6,2.5,2.5,0,0,1,.81-.36,3.71,3.71,0,0,1,1-.12,4.16,4.16,0,0,1,.9.09,2.49,2.49,0,0,1,.7.26,1.47,1.47,0,0,1,.46.43,1,1,0,0,1,.16.58,2.64,2.64,0,0,1,0,.29.59.59,0,0,1-.06.19H35.19c0-.05,0-.09,0-.13v-.1a.56.56,0,0,0-.13-.39.65.65,0,0,0-.36-.22,1.86,1.86,0,0,0-.57-.08,2.81,2.81,0,0,0-.53.05,1.76,1.76,0,0,0-.39.15.78.78,0,0,0-.26.25.59.59,0,0,0-.09.32.46.46,0,0,0,.2.39,1.71,1.71,0,0,0,.51.22c.21.06.44.13.68.22s.43.13.65.21a2.8,2.8,0,0,1,.58.27,1.15,1.15,0,0,1,.42.43,1.18,1.18,0,0,1,.16.65,1.94,1.94,0,0,1-.21.93,1.6,1.6,0,0,1-.57.64,2.83,2.83,0,0,1-.85.36A4.19,4.19,0,0,1,33.43,21.66Z"/><path class="cls-1" d="M42.21,21.66a4.64,4.64,0,0,1-1.47-.22,2.16,2.16,0,0,1-1-.65,1.52,1.52,0,0,1-.35-1,2.15,2.15,0,0,1,.26-1.07,2.23,2.23,0,0,1,.68-.72,2.43,2.43,0,0,1,.89-.38v0a2.42,2.42,0,0,1-.73-.55,1.25,1.25,0,0,1-.28-.86,2.12,2.12,0,0,1,.24-1,2.21,2.21,0,0,1,.67-.76,3.22,3.22,0,0,1,1-.46,4.73,4.73,0,0,1,1.22-.16A4.17,4.17,0,0,1,44.8,14a2.19,2.19,0,0,1,.93.61,1.39,1.39,0,0,1,.33.93c0,.06,0,.13,0,.21s0,.21-.06.36H44.82c0-.11,0-.19,0-.24v-.14a.85.85,0,0,0-.18-.55,1.09,1.09,0,0,0-.51-.32,2.46,2.46,0,0,0-.77-.11,3.08,3.08,0,0,0-.75.09,2.22,2.22,0,0,0-.63.27,1.16,1.16,0,0,0-.43.45,1.23,1.23,0,0,0-.16.65.9.9,0,0,0,.17.55.93.93,0,0,0,.46.33,1.62,1.62,0,0,0,.64.12h.72l-.17.94h-.69a3.14,3.14,0,0,0-.67.08,1.79,1.79,0,0,0-.61.23,1.32,1.32,0,0,0-.46.45,1.38,1.38,0,0,0-.17.71,1,1,0,0,0,.18.63,1.1,1.1,0,0,0,.54.36,2.53,2.53,0,0,0,.82.12,3.13,3.13,0,0,0,1-.15,1.45,1.45,0,0,0,.69-.44,1.43,1.43,0,0,0,.32-.74l.39-2.19h2.14l-.17,1h-1l-.21,1.19a2.89,2.89,0,0,1-.53,1.25,2.63,2.63,0,0,1-1.07.8A4.09,4.09,0,0,1,42.21,21.66Z"/><path class="cls-1" d="M50.55,21.52l-.73-5.86H51l.28,2.83q0,.17,0,.45c0,.19,0,.39,0,.61s0,.4,0,.57h0c.06-.17.13-.36.21-.56l.23-.6.19-.47,1.18-2.83h1.25l.21,2.83q0,.2,0,.48c0,.2,0,.39,0,.6s0,.39,0,.55h0c.06-.15.13-.32.2-.52l.24-.6c.08-.2.16-.37.21-.51l1.25-2.83h1.16L55.1,21.52H53.9l-.21-3.08c0-.12,0-.26,0-.43s0-.33,0-.5,0-.32,0-.44h-.06l-.16.43-.18.5c-.06.17-.12.31-.18.44l-1.31,3.08Z"/><path class="cls-1" d="M57.7,21.52l1-5.86H59.9l-1,5.86Zm1.2-6.87.21-1.18h1.16l-.21,1.18Z"/><path class="cls-1" d="M60.36,21.52l1-5.86h.94l0,.84h.07a2.85,2.85,0,0,1,.58-.52,2.46,2.46,0,0,1,1.44-.45,2.47,2.47,0,0,1,.84.14,1.27,1.27,0,0,1,.6.47A1.48,1.48,0,0,1,66,17c0,.12,0,.24,0,.37s0,.27-.07.42l-.66,3.73H64.14l.64-3.66c0-.1,0-.19,0-.28a2.29,2.29,0,0,0,0-.25.88.88,0,0,0-.11-.47.61.61,0,0,0-.32-.25,1.53,1.53,0,0,0-.46-.07,1.67,1.67,0,0,0-.62.12,1.79,1.79,0,0,0-.56.34,1.89,1.89,0,0,0-.43.56,2.26,2.26,0,0,0-.26.77l-.56,3.19Z"/><path class="cls-1" d="M68.85,21.66a2,2,0,0,1-1-.26,1.66,1.66,0,0,1-.68-.73,2.71,2.71,0,0,1-.23-1.15,4.1,4.1,0,0,1,0-.49,3.76,3.76,0,0,1,.07-.55,5.43,5.43,0,0,1,.39-1.32,3.08,3.08,0,0,1,.61-.91,2.21,2.21,0,0,1,.77-.54,2.31,2.31,0,0,1,.91-.18,2.86,2.86,0,0,1,.75.09,1.82,1.82,0,0,1,.58.27,1.29,1.29,0,0,1,.39.49h.07L72,13.47h1.16l-1.43,8h-.92l0-.8h-.08a2.29,2.29,0,0,1-1.86.94Zm.39-1a1.58,1.58,0,0,0,.86-.23,1.78,1.78,0,0,0,.6-.67A3.29,3.29,0,0,0,71,18.69q0-.21.06-.36c0-.11,0-.2,0-.28a2.15,2.15,0,0,0,0-.23,1.76,1.76,0,0,0-.14-.75.86.86,0,0,0-.41-.41,1.26,1.26,0,0,0-.6-.13,1.8,1.8,0,0,0-.87.2,1.62,1.62,0,0,0-.58.63,3.7,3.7,0,0,0-.35,1.08c0,.17,0,.31-.06.43s0,.22,0,.31a2.35,2.35,0,0,0,0,.26,1.28,1.28,0,0,0,.29.92A1.15,1.15,0,0,0,69.24,20.66Z"/><path class="cls-1" d="M75.77,21.66a3.4,3.4,0,0,1-1.35-.24,1.72,1.72,0,0,1-.82-.73,2.46,2.46,0,0,1-.28-1.25c0-.14,0-.29,0-.45s0-.32.07-.49a4.6,4.6,0,0,1,.6-1.68,2.58,2.58,0,0,1,1.08-1,3.44,3.44,0,0,1,1.55-.32,3.38,3.38,0,0,1,1.36.24,1.63,1.63,0,0,1,.82.73,2.56,2.56,0,0,1,.27,1.26c0,.14,0,.28,0,.44a3,3,0,0,1-.08.48,4.42,4.42,0,0,1-.59,1.69,2.54,2.54,0,0,1-1.06,1A3.59,3.59,0,0,1,75.77,21.66Zm.07-1a1.87,1.87,0,0,0,.94-.22,1.63,1.63,0,0,0,.64-.66,3.49,3.49,0,0,0,.36-1.13,2.22,2.22,0,0,0,.07-.38c0-.11,0-.2,0-.29a2.06,2.06,0,0,0-.13-.95.92.92,0,0,0-.43-.44,1.59,1.59,0,0,0-.73-.14,1.84,1.84,0,0,0-.94.22,1.82,1.82,0,0,0-.63.66,3.5,3.5,0,0,0-.38,1.12,3.77,3.77,0,0,0-.06.39,1.68,1.68,0,0,0,0,.29,1.79,1.79,0,0,0,0,.23,1.73,1.73,0,0,0,.14.73.9.9,0,0,0,.44.42A1.65,1.65,0,0,0,75.84,20.7Z"/><path class="cls-1" d="M80.77,21.52,80,15.66H81.2l.28,2.83q0,.17,0,.45c0,.19,0,.39,0,.61s0,.4,0,.57h0c.06-.17.13-.36.22-.56l.23-.6c.07-.19.14-.35.19-.47l1.18-2.83h1.25l.21,2.83q0,.2,0,.48c0,.2,0,.39,0,.6s0,.39,0,.55H85c0-.15.12-.32.2-.52l.24-.6.21-.51,1.25-2.83H88.1l-2.79,5.86H84.12l-.21-3.08c0-.12,0-.26,0-.43l0-.5c0-.17,0-.32,0-.44h0c0,.11-.1.26-.16.43l-.18.5-.19.44L82,21.52Z"/><path class="cls-1" d="M90.22,21.66a4.52,4.52,0,0,1-1-.11,2.35,2.35,0,0,1-.75-.3,1.37,1.37,0,0,1-.46-.47,1.29,1.29,0,0,1-.15-.62,1.07,1.07,0,0,1,0-.25c0-.08,0-.15,0-.21h1.14a.57.57,0,0,0,0,.14c0,.05,0,.09,0,.12a.69.69,0,0,0,.16.46,1,1,0,0,0,.45.24,2.51,2.51,0,0,0,.64.07,2.24,2.24,0,0,0,.52-.05,1.49,1.49,0,0,0,.45-.15.68.68,0,0,0,.31-.27.66.66,0,0,0,.11-.41.51.51,0,0,0-.12-.35,1.07,1.07,0,0,0-.34-.23,3.91,3.91,0,0,0-.49-.18l-.57-.16-.6-.2a2.66,2.66,0,0,1-.53-.28,1.13,1.13,0,0,1-.53-1,1.68,1.68,0,0,1,.19-.82,1.72,1.72,0,0,1,.54-.6,2.5,2.5,0,0,1,.81-.36,3.71,3.71,0,0,1,1-.12,4.16,4.16,0,0,1,.9.09,2.49,2.49,0,0,1,.7.26,1.47,1.47,0,0,1,.46.43,1,1,0,0,1,.16.58,2.64,2.64,0,0,1,0,.29.59.59,0,0,1-.06.19H92c0-.05,0-.09,0-.13v-.1a.56.56,0,0,0-.13-.39.65.65,0,0,0-.36-.22,1.86,1.86,0,0,0-.57-.08,2.81,2.81,0,0,0-.53.05,1.76,1.76,0,0,0-.39.15.78.78,0,0,0-.26.25.59.59,0,0,0-.09.32.46.46,0,0,0,.2.39,1.71,1.71,0,0,0,.51.22c.21.06.44.13.68.22s.43.13.65.21a2.8,2.8,0,0,1,.58.27,1.15,1.15,0,0,1,.42.43,1.18,1.18,0,0,1,.16.65,1.94,1.94,0,0,1-.21.93,1.6,1.6,0,0,1-.57.64,2.83,2.83,0,0,1-.85.36A4.19,4.19,0,0,1,90.22,21.66Z"/><path class="cls-1" d="M94,21.52l.23-1.29h1.24l-.24,1.29Zm3.41,0,.23-1.29h1.24l-.24,1.29Zm3.42,0,.22-1.29h1.25l-.23,1.29Z"/><path class="cls-1" d="M108.51,21.66a4.92,4.92,0,0,1-1.08-.11,2.61,2.61,0,0,1-.79-.32,1.27,1.27,0,0,1-.47-.48,1.22,1.22,0,0,1-.16-.62,1,1,0,0,1,0-.25c0-.09,0-.15,0-.19h1.33a.53.53,0,0,0,0,.11s0,.07,0,.09a.58.58,0,0,0,.16.41.84.84,0,0,0,.42.22,2,2,0,0,0,.56.07,2.32,2.32,0,0,0,.46,0,2.58,2.58,0,0,0,.42-.12.68.68,0,0,0,.3-.21.47.47,0,0,0,.11-.33.45.45,0,0,0-.12-.33.91.91,0,0,0-.33-.22,3.67,3.67,0,0,0-.47-.16l-.55-.15-.62-.2a2.66,2.66,0,0,1-.56-.28,1.27,1.27,0,0,1-.41-.42,1.25,1.25,0,0,1-.15-.63,1.68,1.68,0,0,1,.76-1.46,2.52,2.52,0,0,1,.83-.38,3.75,3.75,0,0,1,1-.13,4.58,4.58,0,0,1,1,.09,2.66,2.66,0,0,1,.74.28,1.38,1.38,0,0,1,.47.42,1,1,0,0,1,.17.57,1.58,1.58,0,0,1,0,.32.72.72,0,0,1-.05.17h-1.32s0-.07,0-.1a.25.25,0,0,0,0-.08.5.5,0,0,0-.11-.32.72.72,0,0,0-.33-.21,1.62,1.62,0,0,0-.53-.07,2,2,0,0,0-.52,0,1.18,1.18,0,0,0-.36.14.72.72,0,0,0-.22.2.44.44,0,0,0-.07.24.42.42,0,0,0,.21.37,2.26,2.26,0,0,0,.55.21c.22.05.46.12.71.2l.63.21a2.63,2.63,0,0,1,.56.27,1.19,1.19,0,0,1,.56,1.08,2,2,0,0,1-.22,1,1.73,1.73,0,0,1-.61.65,3.05,3.05,0,0,1-.87.35A4.93,4.93,0,0,1,108.51,21.66Z"/><path class="cls-1" d="M114.78,21.66a3.64,3.64,0,0,1-1.41-.24,1.72,1.72,0,0,1-.85-.74,2.49,2.49,0,0,1-.29-1.25c0-.14,0-.29,0-.45s0-.31.07-.48a4.43,4.43,0,0,1,.61-1.68,2.54,2.54,0,0,1,1.11-1,3.63,3.63,0,0,1,1.6-.32,3.71,3.71,0,0,1,1.43.24,1.7,1.7,0,0,1,.85.73,2.51,2.51,0,0,1,.29,1.27,3.22,3.22,0,0,1,0,.43,4.49,4.49,0,0,1-.06.48,4.59,4.59,0,0,1-.6,1.69,2.61,2.61,0,0,1-1.09,1A3.88,3.88,0,0,1,114.78,21.66Zm.09-1.12a1.87,1.87,0,0,0,.9-.2,1.57,1.57,0,0,0,.59-.63,3.64,3.64,0,0,0,.33-1,3.09,3.09,0,0,0,.06-.34c0-.1,0-.19,0-.26a1.92,1.92,0,0,0-.12-.89.82.82,0,0,0-.4-.4,1.52,1.52,0,0,0-.7-.14,1.75,1.75,0,0,0-.89.21,1.61,1.61,0,0,0-.58.63,3.55,3.55,0,0,0-.34,1c0,.14,0,.26-.06.36s0,.18,0,.26a1.48,1.48,0,0,0,0,.21,1.64,1.64,0,0,0,.12.67.88.88,0,0,0,.41.4A1.62,1.62,0,0,0,114.87,20.54Z"/><path class="cls-1" d="M120.68,21.66a2.39,2.39,0,0,1-.86-.15,1.34,1.34,0,0,1-.62-.48,1.53,1.53,0,0,1-.22-.88,2.93,2.93,0,0,1,0-.41c0-.15,0-.3.08-.47l.63-3.61h1.37l-.62,3.52c0,.11,0,.2,0,.29a2.46,2.46,0,0,0,0,.26.89.89,0,0,0,.1.44.58.58,0,0,0,.28.23,1.3,1.3,0,0,0,.41.07,1.62,1.62,0,0,0,.58-.11,1.52,1.52,0,0,0,.51-.32,2.17,2.17,0,0,0,.4-.52,2.26,2.26,0,0,0,.23-.72l.56-3.14h1.37l-1,5.86h-1.11v-.79h-.08a2.63,2.63,0,0,1-.52.47,2.94,2.94,0,0,1-.66.34A2.36,2.36,0,0,1,120.68,21.66Z"/><path class="cls-1" d="M125.26,21.52l1-5.86h1.11v.79h.08A2.66,2.66,0,0,1,128,16a2.46,2.46,0,0,1,.67-.33,2.44,2.44,0,0,1,1.6,0,1.29,1.29,0,0,1,.6.48,1.44,1.44,0,0,1,.23.87,3,3,0,0,1,0,.42,4,4,0,0,1-.07.46l-.64,3.61H129l.62-3.51c0-.1,0-.2,0-.29a1.22,1.22,0,0,0,0-.26.8.8,0,0,0-.1-.44.56.56,0,0,0-.27-.23,1.07,1.07,0,0,0-.41-.07,1.71,1.71,0,0,0-.59.11,1.49,1.49,0,0,0-.51.31,2.17,2.17,0,0,0-.4.53,2.2,2.2,0,0,0-.23.71l-.56,3.14Z"/><path class="cls-1" d="M133.9,21.66a2,2,0,0,1-1.06-.27,1.76,1.76,0,0,1-.68-.75,2.55,2.55,0,0,1-.24-1.14,4,4,0,0,1,0-.48c0-.17,0-.34.07-.53a5,5,0,0,1,.39-1.32,3.42,3.42,0,0,1,.61-.92,2.34,2.34,0,0,1,.78-.54,2.25,2.25,0,0,1,.89-.18,3,3,0,0,1,.77.09,1.93,1.93,0,0,1,.58.26,1.3,1.3,0,0,1,.38.46h.07l.5-2.87h1.36l-1.42,8h-1.1v-.78h-.08a2.23,2.23,0,0,1-.82.69A2.41,2.41,0,0,1,133.9,21.66Zm.51-1.17a1.44,1.44,0,0,0,.8-.21,1.64,1.64,0,0,0,.54-.62,3.27,3.27,0,0,0,.31-1c0-.13,0-.24.05-.33s0-.18,0-.25a1.48,1.48,0,0,0,0-.21,1.71,1.71,0,0,0-.11-.64.77.77,0,0,0-.35-.4,1.23,1.23,0,0,0-.61-.13,1.52,1.52,0,0,0-.81.19,1.37,1.37,0,0,0-.53.58,4,4,0,0,0-.31,1q0,.22-.06.39c0,.11,0,.21,0,.29a2.09,2.09,0,0,0,0,.24,1.16,1.16,0,0,0,.26.83A1.08,1.08,0,0,0,134.41,20.49Z"/><path class="cls-1" d="M140.42,23.55a1.83,1.83,0,0,1-.33,0,1.65,1.65,0,0,1-.32-.06,1.86,1.86,0,0,1-.25-.08l.17-.95h.55a.55.55,0,0,0,.4-.13.63.63,0,0,0,.19-.37l.91-5.16h-.85l.2-1.12h.85l.13-.74a3.13,3.13,0,0,1,.24-.75,1.44,1.44,0,0,1,.53-.57,1.83,1.83,0,0,1,1-.22,2,2,0,0,1,.34,0,1.55,1.55,0,0,1,.31.06,1.86,1.86,0,0,1,.25.08l-.16,1H144a.58.58,0,0,0-.4.13.63.63,0,0,0-.19.37l-.11.67h1.06l-.2,1.12H143.1L142.17,22a2.79,2.79,0,0,1-.24.74,1.43,1.43,0,0,1-.54.58A1.81,1.81,0,0,1,140.42,23.55Z"/><path class="cls-1" d="M145.89,21.66a1.93,1.93,0,0,1-1-.25,1.62,1.62,0,0,1-.67-.72A2.66,2.66,0,0,1,144,19.5c0-.15,0-.31,0-.47s.05-.33.08-.52a5,5,0,0,1,.56-1.69,2.54,2.54,0,0,1,.94-1,2.49,2.49,0,0,1,1.25-.31,2.58,2.58,0,0,1,.7.09,1.92,1.92,0,0,1,.56.26,1.45,1.45,0,0,1,.39.46h.08l.34-.68H150l-.27,1.45c-.05.31-.1.6-.16.9s-.1.57-.15.82-.08.49-.12.69-.07.36-.09.49,0,.2,0,.23a.27.27,0,0,0,.09.23.33.33,0,0,0,.23.07h.37l-.16.94a1.56,1.56,0,0,1-.32.12,1.85,1.85,0,0,1-.5.06,1.16,1.16,0,0,1-.51-.11.86.86,0,0,1-.34-.34A1,1,0,0,1,148,21a1.12,1.12,0,0,1,0-.27h-.08a2.26,2.26,0,0,1-.87.71A2.64,2.64,0,0,1,145.89,21.66Zm.61-1.17a1.31,1.31,0,0,0,.56-.12,1.68,1.68,0,0,0,.48-.36,2.22,2.22,0,0,0,.37-.58,3.17,3.17,0,0,0,.24-.77c0-.13,0-.24,0-.33s0-.18,0-.25v-.2a1.55,1.55,0,0,0-.11-.65.79.79,0,0,0-.34-.4,1.21,1.21,0,0,0-.6-.13,1.56,1.56,0,0,0-.82.19,1.34,1.34,0,0,0-.53.61,3.78,3.78,0,0,0-.33,1c0,.13,0,.25-.05.35s0,.2,0,.28,0,.16,0,.22a1.16,1.16,0,0,0,.26.83A1.12,1.12,0,0,0,146.5,20.49Z"/><path class="cls-1" d="M150.51,21.52l1-5.86h1.12v.79h.08a3.11,3.11,0,0,1,.49-.47,2.34,2.34,0,0,1,.6-.33,1.92,1.92,0,0,1,.69-.12,1.73,1.73,0,0,1,.91.22,1.13,1.13,0,0,1,.53.7H156a2.85,2.85,0,0,1,.51-.47,2.36,2.36,0,0,1,.63-.33,2.13,2.13,0,0,1,.72-.12,1.74,1.74,0,0,1,1.12.34,1.35,1.35,0,0,1,.44,1.14,2.64,2.64,0,0,1,0,.38c0,.13,0,.27-.07.42l-.67,3.71h-1.35L158,18c0-.11,0-.2,0-.28a1.15,1.15,0,0,0-.07-.66.49.49,0,0,0-.25-.22.89.89,0,0,0-.38-.07,1.18,1.18,0,0,0-.65.2,1.63,1.63,0,0,0-.51.56,2.84,2.84,0,0,0-.29.82l-.57,3.22h-1.36l.63-3.57c0-.11,0-.2,0-.28a1.94,1.94,0,0,0,0-.24.82.82,0,0,0-.09-.42.49.49,0,0,0-.25-.22.92.92,0,0,0-.38-.07,1.15,1.15,0,0,0-.64.2,1.63,1.63,0,0,0-.51.56,2.58,2.58,0,0,0-.3.82l-.57,3.22Z"/><path class="cls-1" d="M160.11,21.52l1-5.86h1.36l-1,5.86Zm1.17-6.76.23-1.29h1.36l-.22,1.29Z"/><path class="cls-1" d="M162.91,21.52l1.42-8h1.36l-1.42,8Z"/><path class="cls-1" d="M165.72,21.52l1-5.86h1.36l-1,5.86Zm1.17-6.76.24-1.29h1.36l-.23,1.29Z"/><path class="cls-1" d="M170.46,21.66a1.93,1.93,0,0,1-1-.25,1.64,1.64,0,0,1-.68-.72,2.66,2.66,0,0,1-.24-1.19,3.83,3.83,0,0,1,0-.47c0-.16,0-.33.07-.52a5,5,0,0,1,.57-1.69,2.38,2.38,0,0,1,2.19-1.29,2.5,2.5,0,0,1,.69.09,2.12,2.12,0,0,1,.57.26,1.45,1.45,0,0,1,.39.46h.07l.35-.68h1.14l-.27,1.45c-.05.31-.11.6-.16.9s-.11.57-.15.82-.09.49-.13.69-.06.36-.08.49a2,2,0,0,0,0,.23.27.27,0,0,0,.09.23.36.36,0,0,0,.24.07h.36l-.15.94a1.69,1.69,0,0,1-.33.12,1.8,1.8,0,0,1-.5.06,1.12,1.12,0,0,1-.5-.11.8.8,0,0,1-.34-.34,1,1,0,0,1-.08-.23,1.1,1.1,0,0,1,0-.27h-.07a2.29,2.29,0,0,1-.88.71A2.6,2.6,0,0,1,170.46,21.66Zm.6-1.17a1.39,1.39,0,0,0,.57-.12,1.68,1.68,0,0,0,.48-.36,2.51,2.51,0,0,0,.37-.58,3.17,3.17,0,0,0,.23-.77c0-.13,0-.24,0-.33a2.5,2.5,0,0,0,0-.25,1.41,1.41,0,0,0,0-.2,1.73,1.73,0,0,0-.11-.65.81.81,0,0,0-.35-.4,1.16,1.16,0,0,0-.6-.13,1.58,1.58,0,0,0-.82.19,1.4,1.4,0,0,0-.53.61,4.19,4.19,0,0,0-.32,1c0,.13,0,.25-.06.35s0,.2,0,.28a1.77,1.77,0,0,0,0,.22,1.16,1.16,0,0,0,.26.83A1.11,1.11,0,0,0,171.06,20.49Z"/><path class="cls-1" d="M175.08,21.52l1-5.86h1.09v.93h.07a3.93,3.93,0,0,1,.35-.52,1.71,1.71,0,0,1,.46-.39,1.29,1.29,0,0,1,.64-.15,2,2,0,0,1,.36,0,1.3,1.3,0,0,1,.23.07l-.21,1.28h-.42a1.87,1.87,0,0,0-.64.1,1.63,1.63,0,0,0-.51.3,1.66,1.66,0,0,0-.36.51,2.35,2.35,0,0,0-.21.72l-.53,3Z"/><path class="cls-1" d="M181.5,19.38l.08-.52a2.41,2.41,0,0,1,.29-.82,2.48,2.48,0,0,1,.47-.58,4.42,4.42,0,0,1,.55-.44c.18-.13.36-.26.52-.39a1.72,1.72,0,0,0,.4-.41.92.92,0,0,0,.15-.53,1.09,1.09,0,0,0-.07-.34.61.61,0,0,0-.29-.28A1.37,1.37,0,0,0,183,15a1.76,1.76,0,0,0-.65.11,1.17,1.17,0,0,0-.44.29,1.41,1.41,0,0,0-.27.4,2.07,2.07,0,0,0-.13.4c0,.05,0,.09,0,.14a.49.49,0,0,0,0,.12h-1.38a2.81,2.81,0,0,1,.14-.89,2.75,2.75,0,0,1,.41-.73,2.47,2.47,0,0,1,.63-.57,3.09,3.09,0,0,1,.83-.35,4.1,4.1,0,0,1,2,0,2.16,2.16,0,0,1,.75.34,1.4,1.4,0,0,1,.47.56,1.71,1.71,0,0,1,.16.77,2,2,0,0,1-.17.89,2.4,2.4,0,0,1-.47.66,5.68,5.68,0,0,1-.6.5l-.63.43a2.59,2.59,0,0,0-.52.45,1.29,1.29,0,0,0-.26.57l0,.35Zm-.41,2.14.25-1.42h1.41l-.25,1.42Z"/></g></g></svg>