<svg xmlns="http://www.w3.org/2000/svg" viewBox="0 0 257.99 58.28"><g id="Layer_2" data-name="Layer 2"><g id="Layer_1-2" data-name="Layer 1"><path d="M.74.32H4.66l6.27,16.24L17.46.32h3.92L12.67,21.54H9.07Z"/><path d="M19.29,13.44c0-5.56,4.12-8.52,8.68-8.52a8.16,8.16,0,0,1,8.49,7.84,6.11,6.11,0,0,1,0,1.48l-13.6,0a5.14,5.14,0,0,0,5.08,4.47,5.07,5.07,0,0,0,4.63-2.44l2.83,1.45A8.35,8.35,0,0,1,28,21.86,8.44,8.44,0,0,1,19.29,13.44Zm13.63-1.35A4.92,4.92,0,0,0,28,8a4.83,4.83,0,0,0-4.85,4.15Z"/><path d="M38.62,5.24h3.76V9.58c.9-3.37,4.95-5.11,8.23-3.89L48.68,8.81c-2.41-1.06-6.14,1-6.14,4.63v8.1H38.62Z"/><path d="M52.7.32h3.76V9.2a6.81,6.81,0,0,1,6.59-4.28c4.5,0,7.94,3.15,7.94,8.55v8.07H67.23v-8.1A5,5,0,0,0,61.92,8a5.17,5.17,0,0,0-5.3,5.4v8.1H52.7Z"/><path d="M73.11,13.86V5.24h3.77v8.62c0,3,1.7,4.92,4.53,4.88s4.66-2.34,4.66-5.53v-8H90v16.3H86.2V17.39a5.87,5.87,0,0,1-5.88,4.47C76,21.89,73.11,18.94,73.11,13.86Z"/><path d="M94.17.13c1.1,0,2.09.64,2.09,1.61a2.15,2.15,0,0,1-4.18,0C92.08.77,93.08.13,94.17.13ZM92.28,5.24H96v16.3H92.28Z"/><path d="M98.39,16h3.44c.16,2.12,1.7,3,3.56,3,1.52.06,3-.71,3-2.06s-.94-2-3.25-2.41c-4-.55-6.69-1.48-6.75-4.73-.07-3,2.6-4.95,6.43-4.95,4.05,0,6.94,1.93,7.14,5.72h-3.45c-.16-1.73-1.47-2.89-3.53-2.92-1.77,0-3,.93-2.93,2.25s1,2,3.41,2.44c4.5.77,6.59,1.58,6.56,4.82s-2.86,4.73-6.69,4.63S98.42,19.61,98.39,16Z"/><path d="M114.17,5.5h3.76V9.42a6.77,6.77,0,0,1,6.34-4.34,8,8,0,0,1,8,8.29c0,5.34-3.41,8.52-7.85,8.49a6.79,6.79,0,0,1-6.53-4.24V27.2h-3.76Zm9.16,13.24a5,5,0,0,0,5.21-5.33,5.08,5.08,0,0,0-5.21-5.18,5.17,5.17,0,0,0-5.24,5.18A5.11,5.11,0,0,0,123.33,18.74Z"/><path d="M134.43.32h3.76V21.54h-3.76Z"/><path d="M140.31,13.47c0-5.4,3.44-8.58,7.94-8.55a6.81,6.81,0,0,1,6.59,4.28v-4h3.76v16.3h-3.76v-4a6.8,6.8,0,0,1-6.39,4.34A8.09,8.09,0,0,1,140.31,13.47Zm9.07,5.24a5.27,5.27,0,0,0,5.3-5.27,5.18,5.18,0,0,0-5.3-5.4,5,5,0,0,0-5.31,5.4A5.18,5.18,0,0,0,149.38,18.71Z"/><path d="M160.73,5.24h3.76v4a6.81,6.81,0,0,1,6.59-4.28c4.5,0,7.94,3.15,7.94,8.55v8.07h-3.76v-8.1A5,5,0,0,0,170,8a5.17,5.17,0,0,0-5.31,5.4v8.1h-3.92Z"/><path d="M181.15,5.24h3.76v4a6.81,6.81,0,0,1,6.59-4.28c4.5,0,7.94,3.15,7.94,8.55v8.07h-3.76v-8.1A5,5,0,0,0,190.37,8a5.17,5.17,0,0,0-5.3,5.4v8.1h-3.92Z"/><path d="M201.56,13.44c0-5.56,4.12-8.52,8.68-8.52a8.16,8.16,0,0,1,8.49,7.84,5.24,5.24,0,0,1,0,1.48l-13.6,0a5.14,5.14,0,0,0,5.08,4.47,5.07,5.07,0,0,0,4.63-2.44l2.83,1.45a8.35,8.35,0,0,1-7.43,4.11A8.44,8.44,0,0,1,201.56,13.44Zm13.63-1.35A4.92,4.92,0,0,0,210.24,8a4.83,4.83,0,0,0-4.85,4.15Z"/><path d="M220.89,5.24h3.76v4a6.81,6.81,0,0,1,6.59-4.28c4.5,0,7.94,3.15,7.94,8.55v8.07h-3.76v-8.1A5,5,0,0,0,230.11,8a5.17,5.17,0,0,0-5.3,5.4v8.1h-3.92Z"/><path d="M253.65,7c0-2.54-1.64-3.92-4.5-3.89-2.29,0-4.21,1.12-4.25,3.66h-3.6C241.17,2.73,244.71,0,249.05,0c4.89,0,8.26,2.93,8.2,7-.1,7.71-11.09,5.3-11.09,9.07v1.41h-3.6V16.11C242.56,9.36,253.55,12.31,253.65,7Zm-9.26,11.41a1.66,1.66,0,1,1,0,3.28,1.76,1.76,0,0,1-2-1.67C242.4,19.16,243.14,18.42,244.39,18.42Z"/><path d="M0,30.47H3.72L8.23,45.83,12.8,30.47h3.75l4.17,15.36,5.09-15.36h3.72L22.46,50.58H19L14.63,34.83,9.78,50.58H6.37Z"/><path d="M33.52,30.29c1,0,2,.61,2,1.52a1.78,1.78,0,0,1-2,1.56,1.79,1.79,0,0,1-2-1.56C31.54,30.9,32.49,30.29,33.52,30.29Zm-1.79,4.84h3.56V50.58H31.73Z"/><path d="M37.52,52V35.13h3.56v17c0,4.72-4,6.7-7.68,6l.46-3.2C35.93,55.15,37.52,54.27,37.52,52Zm1.79-21.69c1,0,2,.61,2,1.52a1.81,1.81,0,0,1-2,1.56c-1,0-2-.61-2-1.56S38.28,30.32,39.31,30.32Z"/><path d="M50.93,42.93c0-5,3.71-8.1,8.53-8.1s8.62,3.14,8.59,8.1c0,4.64-3.62,8-8.59,8C54.8,50.89,51,47.63,50.93,42.93Zm8.5,5a5.08,5.08,0,1,0-4.94-5A4.92,4.92,0,0,0,59.43,47.93Z"/><path d="M70,35.13H73.6v3.75a6.48,6.48,0,0,1,6.25-4.05c4.26,0,7.53,3,7.53,8.1v7.65H83.81V42.9a4.76,4.76,0,0,0-5-5.12,4.91,4.91,0,0,0-5,5.12v7.68H70Z"/><path d="M90.91,44.7V38.09H88.48V35c2.77,0,2.43-1.64,2.43-4.51h3.57l0,4.51H99v3.11H94.48v6.22c0,2.8,2.53,3.84,5,2.77l.61,3.08C96.22,51.8,90.91,50.16,90.91,44.7Z"/><path d="M102.13,48.05l7.86-10H102.1v-3h11.82v2.53l-7.8,10H114v2.95H102.13Z"/><path d="M115.05,42.93c0-5,3.72-8.1,8.53-8.1s8.63,3.14,8.6,8.1c0,4.64-3.63,8-8.6,8C118.92,50.89,115.08,47.63,115.05,42.93Zm8.5,5a5.08,5.08,0,0,0,0-10.15,4.87,4.87,0,0,0-4.93,5.12A4.93,4.93,0,0,0,123.55,47.93Z"/><path d="M134.16,35.13h3.57v4.12c.85-3.2,4.69-4.85,7.8-3.69l-1.83,3c-2.29-1-5.82.91-5.82,4.38v7.68h-3.72Z"/><path d="M144.77,53.11a4.9,4.9,0,0,1,2.89-4.39,1.74,1.74,0,0,1-.91-1.67,3,3,0,0,1,1.4-2.17,4.85,4.85,0,0,1-2.2-4.14c0-3.63,2.56-5.91,6.86-5.91a13.86,13.86,0,0,1,2.77.27h5.18v2.65h-2.49a3.69,3.69,0,0,1,1.18,2.84c0,3.53-2.56,5.79-6.73,5.79a17,17,0,0,1-2-.18,1.82,1.82,0,0,0-1.19,1.34c0,.79.85.91,1.92.91h3.14c3.53,0,6.49,1.28,6.43,4.6,0,3.57-3.11,5.15-8.35,5.15C147.72,58.2,144.83,56.34,144.77,53.11Zm7.64,2.47c3.6,0,5.31-.76,5.34-2.38s-1.19-2.5-3.66-2.5h-2.62c-1.95,0-3.5.83-3.44,2.56S149.55,55.58,152.41,55.58Zm.31-12.13c2.28,0,3.47-1,3.47-2.86s-1.19-2.84-3.47-2.84-3.51,1.07-3.51,2.93C149.21,42.36,150.31,43.45,152.72,43.45Z"/><path d="M161.74,42.9c0-5.27,3.9-8.07,8.23-8.07a7.73,7.73,0,0,1,8,7.43,5.54,5.54,0,0,1,0,1.41l-12.89,0a5,5,0,0,0,9.21,1.92L177,47a7.91,7.91,0,0,1-7,3.9A8,8,0,0,1,161.74,42.9Zm12.92-1.28a4.67,4.67,0,0,0-4.69-3.9,4.58,4.58,0,0,0-4.6,3.93Z"/><path d="M180.06,35.13h3.56v3.75a6.48,6.48,0,0,1,6.25-4.05c4.27,0,7.53,3,7.53,8.1v7.65h-3.57V42.9a4.76,4.76,0,0,0-5-5.12,4.91,4.91,0,0,0-5,5.12v7.68h-3.71Z"/><path d="M211.14,52V35.13h3.57v17c0,4.72-4.05,6.7-7.68,6l.46-3.2C209.56,55.15,211.14,54.27,211.14,52Zm1.8-21.69c1,0,2,.61,2,1.52a2.06,2.06,0,0,1-4,0C210.93,30.93,211.9,30.32,212.94,30.32Z"/><path d="M216.94,42.93c0-5,3.71-8.1,8.53-8.1s8.62,3.14,8.59,8.1c0,4.64-3.63,8-8.59,8C220.81,50.89,217,47.63,216.94,42.93Zm8.5,5a5.08,5.08,0,1,0-4.94-5A4.91,4.91,0,0,0,225.44,47.93Z"/><path d="M236,43.3V35.13h3.57V43.3c0,2.86,1.61,4.66,4.3,4.63s4.41-2.22,4.41-5.24V35.13H252V50.58h-3.59V46.65a5.57,5.57,0,0,1-5.58,4.24C238.79,50.92,236,48.11,236,43.3Z"/><path d="M254,48.54a2,2,0,0,1,2-2,2,2,0,0,1,2,2,2,2,0,0,1-2,2A2,2,0,0,1,254,48.54Z"/></g></g></svg>