<svg xmlns="http://www.w3.org/2000/svg" viewBox="0 0 970 250"><defs><style>.cls-1{fill:#f3f2f1;}.cls-2{fill:#231f20;}.cls-3{fill:#008246;}.cls-4{fill:#2577bd;}.cls-5{fill:#1977bd;}.cls-6{fill:#fff;}</style></defs><g id="Layer_2" data-name="Layer 2"><g id="Layer_1-2" data-name="Layer 1"><rect class="cls-1" width="970" height="250"/><path class="cls-2" d="M308.27,110.49V90.19H322v2.4H311v6.28h9.53v2.4H311v9.22Z"/><path class="cls-2" d="M325.15,93.06V90.19h2.5v2.87Zm0,17.43V95.79h2.5v14.7Z"/><path class="cls-2" d="M331.39,110.49V90.19h2.49v20.3Z"/><path class="cls-2" d="M347.81,105.76l2.58.31a6.3,6.3,0,0,1-2.26,3.51,7.68,7.68,0,0,1-9.33-.74,7.79,7.79,0,0,1-1.89-5.58,8.16,8.16,0,0,1,1.91-5.76,6.51,6.51,0,0,1,5-2,6.29,6.29,0,0,1,4.82,2,8,8,0,0,1,1.87,5.65c0,.15,0,.37,0,.67h-11a5.66,5.66,0,0,0,1.37,3.71,4.08,4.08,0,0,0,3.07,1.29,3.73,3.73,0,0,0,2.34-.73A4.7,4.7,0,0,0,347.81,105.76Zm-8.18-4h8.21a5,5,0,0,0-.94-2.79,3.84,3.84,0,0,0-3.09-1.44,4,4,0,0,0-2.89,1.15A4.54,4.54,0,0,0,339.63,101.73Z"/><path class="cls-2" d="M361.71,110.49V90.19h7a17.17,17.17,0,0,1,3.61.29,6.78,6.78,0,0,1,3,1.46,8.25,8.25,0,0,1,2.4,3.46,13.66,13.66,0,0,1,.8,4.83,14.19,14.19,0,0,1-.54,4.1,9.81,9.81,0,0,1-1.39,3,6.79,6.79,0,0,1-4.27,2.86,13.83,13.83,0,0,1-3.26.34Zm2.69-2.39h4.34a10.49,10.49,0,0,0,3.15-.38,4.6,4.6,0,0,0,1.82-1,6.54,6.54,0,0,0,1.49-2.57,12.7,12.7,0,0,0,.53-3.91,9.44,9.44,0,0,0-1.05-4.9A5.22,5.22,0,0,0,372.14,93a10.44,10.44,0,0,0-3.47-.41H364.4Z"/><path class="cls-2" d="M381,103.14q0-4.08,2.27-6a6.86,6.86,0,0,1,4.63-1.64,6.6,6.6,0,0,1,4.95,2,7.52,7.52,0,0,1,1.93,5.49,9.74,9.74,0,0,1-.85,4.47,6.08,6.08,0,0,1-2.48,2.52,7.23,7.23,0,0,1-3.55.9,6.59,6.59,0,0,1-5-2A7.9,7.9,0,0,1,381,103.14Zm2.56,0a6.23,6.23,0,0,0,1.24,4.23,4.09,4.09,0,0,0,6.19,0,6.4,6.4,0,0,0,1.23-4.3,6.13,6.13,0,0,0-1.24-4.14,4.11,4.11,0,0,0-6.18,0A6.17,6.17,0,0,0,383.51,103.14Z"/><path class="cls-2" d="M397.62,110.49V95.79h2.25V98A6.1,6.1,0,0,1,401.45,96a2.8,2.8,0,0,1,1.6-.5,4.81,4.81,0,0,1,2.56.81l-.85,2.31a3.57,3.57,0,0,0-1.83-.54,2.35,2.35,0,0,0-1.47.49,2.73,2.73,0,0,0-.93,1.36,9.66,9.66,0,0,0-.41,2.91v7.7Z"/><path class="cls-2" d="M407.1,110.49V95.79h2.23v2.06a5.21,5.21,0,0,1,1.84-1.74,5.15,5.15,0,0,1,2.62-.66,4.83,4.83,0,0,1,2.67.68,3.65,3.65,0,0,1,1.48,1.9,5.28,5.28,0,0,1,4.54-2.58,4.52,4.52,0,0,1,3.37,1.21A5.22,5.22,0,0,1,427,100.4v10.09h-2.48v-9.26a6.93,6.93,0,0,0-.24-2.16,2.1,2.1,0,0,0-.88-1.06,2.79,2.79,0,0,0-1.49-.4,3.52,3.52,0,0,0-2.58,1,4.57,4.57,0,0,0-1,3.31v8.54h-2.5v-9.55a4.29,4.29,0,0,0-.6-2.5,2.34,2.34,0,0,0-2-.83,3.59,3.59,0,0,0-1.94.56,3.15,3.15,0,0,0-1.3,1.62,9,9,0,0,0-.4,3.07v7.63Z"/><path class="cls-2" d="M440.32,108.68a9.2,9.2,0,0,1-2.67,1.66,7.76,7.76,0,0,1-2.75.48,5.34,5.34,0,0,1-3.72-1.18,3.91,3.91,0,0,1-1.3-3,4,4,0,0,1,.49-2,4.14,4.14,0,0,1,1.29-1.43,6.23,6.23,0,0,1,1.79-.82,17.87,17.87,0,0,1,2.22-.37,22.9,22.9,0,0,0,4.44-.86c0-.34,0-.56,0-.65a2.76,2.76,0,0,0-.71-2.15,4.19,4.19,0,0,0-2.84-.84,4.43,4.43,0,0,0-2.6.61,3.77,3.77,0,0,0-1.24,2.18l-2.43-.33a6.07,6.07,0,0,1,1.09-2.53A4.84,4.84,0,0,1,433.6,96a10,10,0,0,1,3.34-.52,8.67,8.67,0,0,1,3.06.45,3.49,3.49,0,0,1,2.51,2.81,14.53,14.53,0,0,1,.12,2.3v3.32a34.53,34.53,0,0,0,.16,4.4,5.72,5.72,0,0,0,.63,1.76h-2.6A5.12,5.12,0,0,1,440.32,108.68Zm-.21-5.57a18.26,18.26,0,0,1-4.07.94,9.73,9.73,0,0,0-2.17.5,2.22,2.22,0,0,0-1,.81,2.23,2.23,0,0,0,.41,2.85,3.26,3.26,0,0,0,2.21.66,5.14,5.14,0,0,0,2.56-.63,3.86,3.86,0,0,0,1.65-1.72,6,6,0,0,0,.4-2.5Z"/><path class="cls-2" d="M446.5,110.49V95.79h2.24v2.09a5.28,5.28,0,0,1,4.68-2.43,6.07,6.07,0,0,1,2.44.48,3.87,3.87,0,0,1,1.67,1.25,4.84,4.84,0,0,1,.78,1.85,14.37,14.37,0,0,1,.14,2.42v9H456v-8.94a6.55,6.55,0,0,0-.29-2.28,2.33,2.33,0,0,0-1-1.21,3.27,3.27,0,0,0-1.74-.45,4.08,4.08,0,0,0-2.75,1c-.77.68-1.15,2-1.15,3.84v8Z"/><path class="cls-2" d="M467.71,108.26l.36,2.2a9.14,9.14,0,0,1-1.88.23,4.34,4.34,0,0,1-2.11-.43,2.42,2.42,0,0,1-1.05-1.13,9.07,9.07,0,0,1-.3-2.94V97.72H460.9V95.79h1.83V92.14l2.48-1.49v5.14h2.5v1.93h-2.5v8.6a4.23,4.23,0,0,0,.13,1.37,1,1,0,0,0,.43.49,1.63,1.63,0,0,0,.85.18A7.39,7.39,0,0,0,467.71,108.26Z"/><path class="cls-2" d="M474.55,110.49l7.8-20.3h2.89l8.31,20.3h-3.06l-2.37-6.15h-8.49l-2.22,6.15Zm5.86-8.33h6.88l-2.12-5.63c-.64-1.7-1.12-3.11-1.44-4.21a24.66,24.66,0,0,1-1.09,3.88Z"/><path class="cls-2" d="M505,105.11l2.45.31a6.33,6.33,0,0,1-2.06,4,5.94,5.94,0,0,1-4.06,1.43,6.32,6.32,0,0,1-4.86-2,8,8,0,0,1-1.83-5.66,10.16,10.16,0,0,1,.79-4.16,5.48,5.48,0,0,1,2.4-2.68,7.11,7.11,0,0,1,3.51-.9,6.13,6.13,0,0,1,3.92,1.21,5.52,5.52,0,0,1,1.95,3.45l-2.42.37a4,4,0,0,0-1.23-2.23,3.14,3.14,0,0,0-2.12-.75,3.86,3.86,0,0,0-3.06,1.35,6.4,6.4,0,0,0-1.18,4.28,6.59,6.59,0,0,0,1.14,4.3,3.67,3.67,0,0,0,3,1.35,3.52,3.52,0,0,0,2.45-.9A4.51,4.51,0,0,0,505,105.11Z"/><path class="cls-2" d="M519.16,105.11l2.45.31a6.33,6.33,0,0,1-2.06,4,5.94,5.94,0,0,1-4.06,1.43,6.32,6.32,0,0,1-4.86-2,8,8,0,0,1-1.83-5.66,10.16,10.16,0,0,1,.79-4.16,5.48,5.48,0,0,1,2.4-2.68,7.11,7.11,0,0,1,3.51-.9,6.13,6.13,0,0,1,3.92,1.21,5.58,5.58,0,0,1,2,3.45l-2.43.37a4.05,4.05,0,0,0-1.22-2.23,3.19,3.19,0,0,0-2.13-.75,3.86,3.86,0,0,0-3.06,1.35,6.4,6.4,0,0,0-1.18,4.28,6.59,6.59,0,0,0,1.14,4.3,3.67,3.67,0,0,0,3,1.35,3.52,3.52,0,0,0,2.45-.9A4.51,4.51,0,0,0,519.16,105.11Z"/><path class="cls-2" d="M522.81,103.14q0-4.08,2.28-6a6.82,6.82,0,0,1,4.62-1.64,6.62,6.62,0,0,1,5,2,7.56,7.56,0,0,1,1.92,5.49,9.74,9.74,0,0,1-.85,4.47,6,6,0,0,1-2.48,2.52,7.21,7.21,0,0,1-3.55.9,6.57,6.57,0,0,1-5-2A7.9,7.9,0,0,1,522.81,103.14Zm2.57,0a6.28,6.28,0,0,0,1.23,4.23,4.09,4.09,0,0,0,6.19,0,6.4,6.4,0,0,0,1.23-4.3,6.08,6.08,0,0,0-1.24-4.14,4.11,4.11,0,0,0-6.18,0A6.22,6.22,0,0,0,525.38,103.14Z"/><path class="cls-2" d="M549.15,110.49v-2.16a5.38,5.38,0,0,1-4.66,2.49,6,6,0,0,1-2.43-.49,4,4,0,0,1-1.68-1.26,4.78,4.78,0,0,1-.77-1.85,12.79,12.79,0,0,1-.15-2.32V95.79H542v8.15a13.55,13.55,0,0,0,.16,2.63,2.57,2.57,0,0,0,1,1.55,3.14,3.14,0,0,0,1.89.56,4,4,0,0,0,2.1-.58,3.14,3.14,0,0,0,1.39-1.56,7.9,7.9,0,0,0,.41-2.87V95.79h2.49v14.7Z"/><path class="cls-2" d="M555.29,110.49V95.79h2.24v2.09a5.28,5.28,0,0,1,4.68-2.43,6.12,6.12,0,0,1,2.45.48,3.93,3.93,0,0,1,1.67,1.25A4.83,4.83,0,0,1,567.1,99a14.37,14.37,0,0,1,.14,2.42v9h-2.49v-8.94a6.8,6.8,0,0,0-.29-2.28,2.42,2.42,0,0,0-1-1.21,3.32,3.32,0,0,0-1.74-.45,4.06,4.06,0,0,0-2.75,1c-.77.68-1.16,2-1.16,3.84v8Z"/><path class="cls-2" d="M576.51,108.26l.36,2.2a9.22,9.22,0,0,1-1.89.23,4.33,4.33,0,0,1-2.1-.43,2.5,2.5,0,0,1-1.06-1.13,9.07,9.07,0,0,1-.3-2.94V97.72h-1.83V95.79h1.83V92.14L574,90.65v5.14h2.51v1.93H574v8.6a4.23,4.23,0,0,0,.13,1.37,1,1,0,0,0,.43.49,1.65,1.65,0,0,0,.85.18A7.5,7.5,0,0,0,576.51,108.26Z"/><path class="cls-2" d="M578,106.1l2.46-.39a3.45,3.45,0,0,0,1.16,2.28,4,4,0,0,0,2.65.79,4,4,0,0,0,2.55-.7,2.12,2.12,0,0,0,.83-1.65,1.5,1.5,0,0,0-.74-1.32,10.25,10.25,0,0,0-2.54-.85,23,23,0,0,1-3.81-1.2,3.65,3.65,0,0,1-2.15-3.37,3.8,3.8,0,0,1,.45-1.82A4,4,0,0,1,580,96.48a5,5,0,0,1,1.58-.73,7.52,7.52,0,0,1,2.16-.3,8.61,8.61,0,0,1,3,.5,4.13,4.13,0,0,1,1.93,1.35,5.41,5.41,0,0,1,.86,2.28l-2.44.33a2.66,2.66,0,0,0-1-1.77A3.49,3.49,0,0,0,584,97.5a4.08,4.08,0,0,0-2.46.57,1.67,1.67,0,0,0-.73,1.33,1.35,1.35,0,0,0,.31.87,2.21,2.21,0,0,0,.95.67c.25.09,1,.3,2.2.63a29.52,29.52,0,0,1,3.69,1.16,3.7,3.7,0,0,1,1.64,1.31,3.62,3.62,0,0,1,.6,2.13,4.15,4.15,0,0,1-.73,2.35,4.66,4.66,0,0,1-2.1,1.7,7.62,7.62,0,0,1-3.1.6,6.89,6.89,0,0,1-4.37-1.19A5.49,5.49,0,0,1,578,106.1Z"/><path class="cls-2" d="M600.51,100.6c0-3.37.9-6,2.71-7.91a9.23,9.23,0,0,1,7-2.86,9.8,9.8,0,0,1,5.07,1.34,8.85,8.85,0,0,1,3.44,3.75,12.16,12.16,0,0,1,1.18,5.45,11.81,11.81,0,0,1-1.25,5.52,8.41,8.41,0,0,1-3.53,3.69,10,10,0,0,1-4.93,1.26,9.52,9.52,0,0,1-5.12-1.39,8.81,8.81,0,0,1-3.42-3.78A11.35,11.35,0,0,1,600.51,100.6Zm2.77.05a8.12,8.12,0,0,0,2,5.78,6.89,6.89,0,0,0,9.94,0,8.6,8.6,0,0,0,2-6,10.36,10.36,0,0,0-.84-4.33,6.39,6.39,0,0,0-2.45-2.87,6.61,6.61,0,0,0-3.62-1,6.9,6.9,0,0,0-4.91,2Q603.28,96.07,603.28,100.65Z"/><path class="cls-2" d="M623.06,110.49V95.79h2.25v2.09A5.28,5.28,0,0,1,630,95.45a6.07,6.07,0,0,1,2.44.48,3.87,3.87,0,0,1,1.67,1.25,4.84,4.84,0,0,1,.78,1.85,14.37,14.37,0,0,1,.14,2.42v9h-2.5v-8.94a6.55,6.55,0,0,0-.29-2.28,2.38,2.38,0,0,0-1-1.21,3.27,3.27,0,0,0-1.74-.45,4.06,4.06,0,0,0-2.75,1c-.77.68-1.15,2-1.15,3.84v8Z"/><path class="cls-2" d="M638.78,110.49V90.19h2.5v20.3Z"/><path class="cls-2" d="M645.15,93.06V90.19h2.5v2.87Zm0,17.43V95.79h2.5v14.7Z"/><path class="cls-2" d="M651.44,110.49V95.79h2.24v2.09a5.29,5.29,0,0,1,4.69-2.43,6.11,6.11,0,0,1,2.44.48,3.93,3.93,0,0,1,1.67,1.25,4.68,4.68,0,0,1,.77,1.85,13.35,13.35,0,0,1,.14,2.42v9H660.9v-8.94a6.8,6.8,0,0,0-.29-2.28,2.38,2.38,0,0,0-1-1.21,3.32,3.32,0,0,0-1.74-.45,4.06,4.06,0,0,0-2.75,1c-.77.68-1.16,2-1.16,3.84v8Z"/><path class="cls-2" d="M677.28,105.76l2.58.31a6.3,6.3,0,0,1-2.26,3.51,7.68,7.68,0,0,1-9.33-.74,7.79,7.79,0,0,1-1.89-5.58,8.16,8.16,0,0,1,1.91-5.76,6.51,6.51,0,0,1,5-2,6.27,6.27,0,0,1,4.82,2,8,8,0,0,1,1.87,5.65c0,.15,0,.37,0,.67H669a5.66,5.66,0,0,0,1.37,3.71,4.08,4.08,0,0,0,3.07,1.29,3.78,3.78,0,0,0,2.35-.73A4.76,4.76,0,0,0,677.28,105.76Zm-8.18-4h8.21a5,5,0,0,0-.94-2.79,3.84,3.84,0,0,0-3.09-1.44,4,4,0,0,0-2.89,1.15A4.54,4.54,0,0,0,669.1,101.73Z"/><path class="cls-2" d="M683.69,110.49v-2.84h2.84v2.84Z"/><path class="cls-3" d="M319.78,139.25l1.5,3.29a8.63,8.63,0,0,1-1.82.71,8.4,8.4,0,0,1-2,.26,13,13,0,0,1-3.32-.58,12.28,12.28,0,0,0-3.07-.59,6.11,6.11,0,0,0-3.45,1.2l-1.48-3.35a7.37,7.37,0,0,0,2.25-2.39,5.14,5.14,0,0,0,.68-2.41,7.29,7.29,0,0,0-.05-.79h-2.88v-3.06h2.17a10,10,0,0,1-.57-3.31,5.49,5.49,0,0,1,.83-2.88,5.26,5.26,0,0,1,2.33-2.09,7.73,7.73,0,0,1,3.3-.71,6.47,6.47,0,0,1,4.34,1.38,6,6,0,0,1,2,3.95l-3.75.55a3.78,3.78,0,0,0-.95-2.13,2.46,2.46,0,0,0-1.73-.65,2.51,2.51,0,0,0-2.58,2.6,8.19,8.19,0,0,0,.2,1.54,12.59,12.59,0,0,0,.49,1.75h4.32v3.06h-3.68a4.08,4.08,0,0,1,0,.61,5,5,0,0,1-.41,2,11.52,11.52,0,0,1-1.71,2.44,4.19,4.19,0,0,1,1.91-.39,7.61,7.61,0,0,1,.88.05l1.13.27A11.85,11.85,0,0,0,317,140,7.35,7.35,0,0,0,319.78,139.25Z"/><path class="cls-3" d="M326.26,132.24a4.37,4.37,0,0,1-2.88-4.19,4.92,4.92,0,0,1,1.59-3.76,7.58,7.58,0,0,1,9,0,4.89,4.89,0,0,1,1.6,3.76,4.41,4.41,0,0,1-.74,2.51,4.66,4.66,0,0,1-2.06,1.68,5.41,5.41,0,0,1,2.57,2,5.22,5.22,0,0,1,.88,3,6.14,6.14,0,0,1-1.79,4.57,6.54,6.54,0,0,1-4.77,1.76A7.23,7.23,0,0,1,325,142.1a5.66,5.66,0,0,1-2.17-4.71,5.76,5.76,0,0,1,.82-3A5.24,5.24,0,0,1,326.26,132.24Zm.45,4.78a3.58,3.58,0,0,0,.82,2.51,2.67,2.67,0,0,0,2.06.9,2.58,2.58,0,0,0,2-.87,3.57,3.57,0,0,0,.79-2.5,3.26,3.26,0,0,0-.8-2.29,2.67,2.67,0,0,0-2-.87,2.44,2.44,0,0,0-2.13,1A3.61,3.61,0,0,0,326.71,137Zm.36-8.7a2.44,2.44,0,0,0,.65,1.82,2.71,2.71,0,0,0,3.53,0,2.46,2.46,0,0,0,.66-1.82,2.36,2.36,0,0,0-.66-1.75,2.31,2.31,0,0,0-1.73-.66,2.42,2.42,0,0,0-1.79.66A2.4,2.4,0,0,0,327.07,128.32Z"/><path class="cls-3" d="M339.53,143.2v-3.9h3.89v3.9Z"/><path class="cls-3" d="M346.66,138.5l3.77-.41a2.71,2.71,0,0,0,.72,1.7,2.14,2.14,0,0,0,1.54.55,2.5,2.5,0,0,0,2-1.1c.57-.74.93-2.28,1.08-4.6a4.65,4.65,0,0,1-3.67,1.7,5.5,5.5,0,0,1-4.13-1.85,6.72,6.72,0,0,1-1.74-4.81,6.82,6.82,0,0,1,1.84-5,6.22,6.22,0,0,1,4.67-1.89,6.3,6.3,0,0,1,5.07,2.39q2,2.39,2,7.86t-2.06,8a6.7,6.7,0,0,1-5.38,2.47,5.73,5.73,0,0,1-3.85-1.27A6.2,6.2,0,0,1,346.66,138.5Zm8.81-8.5a4.41,4.41,0,0,0-.87-2.92,2.52,2.52,0,0,0-2-1,2.22,2.22,0,0,0-1.79.85,4.33,4.33,0,0,0-.71,2.79,4.44,4.44,0,0,0,.77,2.89,2.44,2.44,0,0,0,1.94.92,2.41,2.41,0,0,0,1.89-.89A3.88,3.88,0,0,0,355.47,130Z"/><path class="cls-3" d="M362.43,138.5l3.77-.41a2.71,2.71,0,0,0,.72,1.7,2.14,2.14,0,0,0,1.54.55,2.52,2.52,0,0,0,2.05-1.1c.56-.74.92-2.28,1.08-4.6a4.66,4.66,0,0,1-3.67,1.7,5.51,5.51,0,0,1-4.14-1.85,6.76,6.76,0,0,1-1.73-4.81,6.86,6.86,0,0,1,1.83-5,6.23,6.23,0,0,1,4.68-1.89,6.29,6.29,0,0,1,5.06,2.39q2,2.39,2,7.86c0,3.71-.68,6.39-2.06,8a6.68,6.68,0,0,1-5.37,2.47,5.71,5.71,0,0,1-3.85-1.27A6.15,6.15,0,0,1,362.43,138.5Zm8.81-8.5a4.46,4.46,0,0,0-.86-2.92,2.55,2.55,0,0,0-2-1,2.25,2.25,0,0,0-1.8.85,4.39,4.39,0,0,0-.71,2.79,4.5,4.5,0,0,0,.77,2.89,2.46,2.46,0,0,0,1.94.92,2.41,2.41,0,0,0,1.89-.89A3.83,3.83,0,0,0,371.24,130Z"/><path class="cls-2" d="M387.13,143.2V122.89h13.69v2.4h-11v6.29h9.53V134h-9.53v9.23Z"/><path class="cls-2" d="M413.59,141.38a9.08,9.08,0,0,1-2.66,1.66,7.58,7.58,0,0,1-2.75.49,5.35,5.35,0,0,1-3.73-1.19,3.87,3.87,0,0,1-1.3-3,4,4,0,0,1,.49-2,4.09,4.09,0,0,1,1.29-1.44,6.23,6.23,0,0,1,1.79-.82,20,20,0,0,1,2.22-.37,22.9,22.9,0,0,0,4.44-.86c0-.34,0-.56,0-.65a2.78,2.78,0,0,0-.71-2.15,4.19,4.19,0,0,0-2.84-.84,4.37,4.37,0,0,0-2.59.62A3.69,3.69,0,0,0,406,133l-2.44-.33a6.08,6.08,0,0,1,1.09-2.53,4.8,4.8,0,0,1,2.21-1.48,9.66,9.66,0,0,1,3.33-.52,8.7,8.7,0,0,1,3.06.44,4.11,4.11,0,0,1,1.73,1.11,4,4,0,0,1,.78,1.7,14.62,14.62,0,0,1,.12,2.3V137a36.54,36.54,0,0,0,.16,4.4,5.87,5.87,0,0,0,.63,1.77h-2.6A5.46,5.46,0,0,1,413.59,141.38Zm-.21-5.56a18.84,18.84,0,0,1-4.07.94,9.31,9.31,0,0,0-2.17.49,2.15,2.15,0,0,0-1,.82,2,2,0,0,0-.35,1.18,2.13,2.13,0,0,0,.75,1.66,3.28,3.28,0,0,0,2.21.67,5.11,5.11,0,0,0,2.56-.63,3.88,3.88,0,0,0,1.65-1.73,6,6,0,0,0,.4-2.49Z"/><path class="cls-2" d="M418.77,138.81l2.47-.39a3.41,3.41,0,0,0,1.15,2.27,4,4,0,0,0,2.65.79,3.86,3.86,0,0,0,2.55-.7,2.07,2.07,0,0,0,.83-1.64,1.51,1.51,0,0,0-.73-1.33,11.17,11.17,0,0,0-2.55-.85,24,24,0,0,1-3.8-1.19,3.61,3.61,0,0,1-2.15-3.38,3.8,3.8,0,0,1,.45-1.82,4,4,0,0,1,1.22-1.39,5.37,5.37,0,0,1,1.59-.73,7.81,7.81,0,0,1,2.15-.29,8.35,8.35,0,0,1,3,.5,4.08,4.08,0,0,1,1.93,1.35,5.19,5.19,0,0,1,.86,2.27l-2.44.34a2.69,2.69,0,0,0-1-1.78,3.54,3.54,0,0,0-2.25-.63,4.15,4.15,0,0,0-2.45.56,1.66,1.66,0,0,0-.73,1.33,1.4,1.4,0,0,0,.3.88,2.17,2.17,0,0,0,1,.66c.25.09,1,.31,2.2.64a31.18,31.18,0,0,1,3.69,1.15,3.76,3.76,0,0,1,1.64,1.31,3.67,3.67,0,0,1,.6,2.14,4.19,4.19,0,0,1-.73,2.34,4.78,4.78,0,0,1-2.1,1.71,7.65,7.65,0,0,1-3.1.6,6.94,6.94,0,0,1-4.37-1.19A5.57,5.57,0,0,1,418.77,138.81Z"/><path class="cls-2" d="M439.39,141l.36,2.2a9.06,9.06,0,0,1-1.88.22,4.23,4.23,0,0,1-2.11-.43,2.38,2.38,0,0,1-1.05-1.13,9,9,0,0,1-.3-2.94v-8.46h-1.83v-1.94h1.83v-3.64l2.47-1.5v5.14h2.51v1.94h-2.51V139a4.17,4.17,0,0,0,.14,1.37,1,1,0,0,0,.43.48,1.63,1.63,0,0,0,.85.18A8.73,8.73,0,0,0,439.39,141Z"/><path class="cls-2" d="M461.31,140.8a8.57,8.57,0,0,1-2.68,2.06,7.4,7.4,0,0,1-3.15.68,6.22,6.22,0,0,1-4.94-2.1,5.74,5.74,0,0,1-1.48-3.84,5.3,5.3,0,0,1,1.21-3.4,10,10,0,0,1,3.62-2.66,12.64,12.64,0,0,1-1.83-2.57,4.5,4.5,0,0,1-.45-1.89A4.21,4.21,0,0,1,453,123.9a5.05,5.05,0,0,1,3.61-1.35,4.7,4.7,0,0,1,3.4,1.27,4.1,4.1,0,0,1,1.32,3.06q0,2.9-3.84,5l3.64,4.64a11.47,11.47,0,0,0,1-2.83l2.59.55a13.89,13.89,0,0,1-1.8,4.38,14.44,14.44,0,0,0,3.18,3.12l-1.68,2A14.39,14.39,0,0,1,461.31,140.8Zm-1.56-2-4.57-5.66a8.66,8.66,0,0,0-2.73,2.24,3.6,3.6,0,0,0-.71,2,4.31,4.31,0,0,0,1,2.56,3.24,3.24,0,0,0,2.78,1.33,4.56,4.56,0,0,0,2.32-.7A5.66,5.66,0,0,0,459.75,138.83Zm-3.5-8.61a6.64,6.64,0,0,0,2.09-1.68,2.81,2.81,0,0,0,.48-1.59,2.27,2.27,0,0,0-.66-1.69,2.22,2.22,0,0,0-1.64-.66,2.3,2.3,0,0,0-1.68.65,2.11,2.11,0,0,0-.67,1.59,2.32,2.32,0,0,0,.24,1,4.86,4.86,0,0,0,.73,1.1Z"/><path class="cls-2" d="M491.31,136.08l2.69.68a9.07,9.07,0,0,1-3,5,8.4,8.4,0,0,1-5.37,1.74,9.65,9.65,0,0,1-5.34-1.33,8.35,8.35,0,0,1-3.13-3.88,13.86,13.86,0,0,1-1.07-5.44,11.93,11.93,0,0,1,1.21-5.53,8.37,8.37,0,0,1,3.45-3.59,10.14,10.14,0,0,1,4.92-1.22,8.38,8.38,0,0,1,5.13,1.55,8,8,0,0,1,2.89,4.36l-2.65.62a6.29,6.29,0,0,0-2-3.22,5.45,5.45,0,0,0-3.38-1,6.58,6.58,0,0,0-3.92,1.12,5.93,5.93,0,0,0-2.2,3,12,12,0,0,0-.64,3.9,12.44,12.44,0,0,0,.75,4.52,5.68,5.68,0,0,0,2.35,2.89,6.64,6.64,0,0,0,3.45,1,5.76,5.76,0,0,0,3.82-1.3A6.67,6.67,0,0,0,491.31,136.08Z"/><path class="cls-2" d="M496.06,135.84q0-4.08,2.27-6.05a6.86,6.86,0,0,1,4.63-1.63,6.59,6.59,0,0,1,5,2,7.55,7.55,0,0,1,1.93,5.49,9.69,9.69,0,0,1-.85,4.47,6,6,0,0,1-2.48,2.53,7.23,7.23,0,0,1-3.55.9,6.63,6.63,0,0,1-5-2A7.91,7.91,0,0,1,496.06,135.84Zm2.56,0a6.25,6.25,0,0,0,1.23,4.23,4,4,0,0,0,3.11,1.41,3.92,3.92,0,0,0,3.08-1.41,6.37,6.37,0,0,0,1.24-4.31,6.08,6.08,0,0,0-1.24-4.13,4,4,0,0,0-3.08-1.41,4,4,0,0,0-3.11,1.4A6.24,6.24,0,0,0,498.62,135.84Z"/><path class="cls-2" d="M512.76,143.2V128.49H515v2.06a5.14,5.14,0,0,1,4.46-2.39,4.86,4.86,0,0,1,2.68.67,3.62,3.62,0,0,1,1.47,1.9,5.3,5.3,0,0,1,4.55-2.57,4.45,4.45,0,0,1,3.36,1.21,5.15,5.15,0,0,1,1.18,3.73v10.1h-2.48v-9.27a6.85,6.85,0,0,0-.24-2.15,2.11,2.11,0,0,0-.88-1.06,2.73,2.73,0,0,0-1.5-.4,3.46,3.46,0,0,0-2.57,1,4.52,4.52,0,0,0-1,3.3v8.55H521.5v-9.56a4.15,4.15,0,0,0-.61-2.49,2.29,2.29,0,0,0-2-.83,3.62,3.62,0,0,0-1.95.55,3.08,3.08,0,0,0-1.29,1.62,9.06,9.06,0,0,0-.41,3.08v7.63Z"/><path class="cls-2" d="M536.39,148.83V128.49h2.27v1.91a5.5,5.5,0,0,1,1.81-1.68,4.93,4.93,0,0,1,2.45-.56,5.79,5.79,0,0,1,3.33,1,5.89,5.89,0,0,1,2.17,2.73,10,10,0,0,1,.73,3.87,9.86,9.86,0,0,1-.81,4.07,6.16,6.16,0,0,1-2.35,2.77,6.05,6.05,0,0,1-3.25,1,4.68,4.68,0,0,1-2.23-.53,5,5,0,0,1-1.63-1.33v7.16Zm2.25-12.9a6.41,6.41,0,0,0,1.15,4.19,3.53,3.53,0,0,0,2.79,1.36,3.6,3.6,0,0,0,2.84-1.41,6.65,6.65,0,0,0,1.19-4.35,6.49,6.49,0,0,0-1.16-4.21,3.48,3.48,0,0,0-2.76-1.4,3.61,3.61,0,0,0-2.82,1.49A6.63,6.63,0,0,0,538.64,135.93Z"/><path class="cls-2" d="M552.11,143.2V122.89h2.49V143.2Z"/><path class="cls-2" d="M558.48,125.76v-2.87H561v2.87Zm0,17.44V128.49H561V143.2Z"/><path class="cls-2" d="M574.36,141.38a9,9,0,0,1-2.67,1.66,7.54,7.54,0,0,1-2.75.49,5.34,5.34,0,0,1-3.72-1.19,3.87,3.87,0,0,1-1.3-3,4,4,0,0,1,.49-2,4.09,4.09,0,0,1,1.29-1.44,6.23,6.23,0,0,1,1.79-.82,20,20,0,0,1,2.22-.37,22.9,22.9,0,0,0,4.44-.86c0-.34,0-.56,0-.65a2.78,2.78,0,0,0-.71-2.15,4.19,4.19,0,0,0-2.84-.84,4.43,4.43,0,0,0-2.6.62,3.74,3.74,0,0,0-1.24,2.18l-2.43-.33a6,6,0,0,1,1.09-2.53,4.76,4.76,0,0,1,2.2-1.48,9.72,9.72,0,0,1,3.34-.52,8.7,8.7,0,0,1,3.06.44,4.11,4.11,0,0,1,1.73,1.11,4,4,0,0,1,.78,1.7,14.62,14.62,0,0,1,.12,2.3V137a34.43,34.43,0,0,0,.16,4.4,5.87,5.87,0,0,0,.63,1.77h-2.6A5.23,5.23,0,0,1,574.36,141.38Zm-.21-5.56a18.84,18.84,0,0,1-4.07.94,9.31,9.31,0,0,0-2.17.49,2.18,2.18,0,0,0-1,.82,2.21,2.21,0,0,0,.41,2.84,3.26,3.26,0,0,0,2.21.67,5.14,5.14,0,0,0,2.56-.63,3.88,3.88,0,0,0,1.65-1.73,6,6,0,0,0,.4-2.49Z"/><path class="cls-2" d="M580.54,143.2V128.49h2.24v2.09a5.27,5.27,0,0,1,4.68-2.42,6.24,6.24,0,0,1,2.44.47,3.81,3.81,0,0,1,1.67,1.26,4.86,4.86,0,0,1,.78,1.84,14.45,14.45,0,0,1,.14,2.42v9H590v-8.95a6.59,6.59,0,0,0-.29-2.28,2.35,2.35,0,0,0-1-1.2,3.27,3.27,0,0,0-1.74-.45,4,4,0,0,0-2.75,1c-.77.67-1.15,1.95-1.15,3.83v8Z"/><path class="cls-2" d="M601.75,141l.36,2.2a9.06,9.06,0,0,1-1.88.22,4.23,4.23,0,0,1-2.11-.43,2.43,2.43,0,0,1-1-1.13,9,9,0,0,1-.3-2.94v-8.46h-1.83v-1.94h1.83v-3.64l2.48-1.5v5.14h2.5v1.94h-2.5V139a4.27,4.27,0,0,0,.13,1.37,1,1,0,0,0,.43.48,1.63,1.63,0,0,0,.85.18A8.73,8.73,0,0,0,601.75,141Z"/><path class="cls-4" d="M306.68,37.85H317.8a22,22,0,0,1,5.74.57,10.19,10.19,0,0,1,4.54,2.78A13.25,13.25,0,0,1,331,46.08a22.21,22.21,0,0,1,1,7.13,19.67,19.67,0,0,1-.93,6.41A13.29,13.29,0,0,1,327.79,65a10.69,10.69,0,0,1-4.27,2.4,18.27,18.27,0,0,1-5.39.64H306.68Zm6.08,5.1v20h4.55a16.1,16.1,0,0,0,3.68-.29,5.54,5.54,0,0,0,2.45-1.25,6.3,6.3,0,0,0,1.6-2.91,19.74,19.74,0,0,0,.61-5.52,18.13,18.13,0,0,0-.61-5.37,6.94,6.94,0,0,0-1.73-2.92,5.8,5.8,0,0,0-2.82-1.41,26.7,26.7,0,0,0-5-.29Z"/><path class="cls-4" d="M335.73,56.76a11.77,11.77,0,0,1,1.42-5.57,9.72,9.72,0,0,1,4-4.11,11.86,11.86,0,0,1,5.8-1.42,10.91,10.91,0,0,1,8.13,3.22A11.11,11.11,0,0,1,358.26,57a11.21,11.21,0,0,1-3.2,8.21,10.76,10.76,0,0,1-8,3.26,12.73,12.73,0,0,1-5.73-1.35,9.27,9.27,0,0,1-4.14-4A13.23,13.23,0,0,1,335.73,56.76Zm5.92.31a7.23,7.23,0,0,0,1.54,5,5.06,5.06,0,0,0,7.6,0,7.35,7.35,0,0,0,1.53-5,7.19,7.19,0,0,0-1.53-4.93,5,5,0,0,0-7.6,0A7.22,7.22,0,0,0,341.65,57.07Z"/><path class="cls-4" d="M368.32,68h-5.78V46.16h5.36v3.1a9.41,9.41,0,0,1,2.48-2.9,4.61,4.61,0,0,1,2.5-.7,7.37,7.37,0,0,1,3.8,1.09l-1.79,5a5.05,5.05,0,0,0-2.71-.95,3.22,3.22,0,0,0-2.05.67,4.52,4.52,0,0,0-1.33,2.42,34.48,34.48,0,0,0-.48,7.32Z"/><path class="cls-4" d="M378.74,46.16h5.32v3a8.58,8.58,0,0,1,6.81-3.48,7.29,7.29,0,0,1,3.64.87A6.57,6.57,0,0,1,397,49.14a9.93,9.93,0,0,1,3.1-2.61,7.59,7.59,0,0,1,3.56-.87,7.94,7.94,0,0,1,4.07,1,6,6,0,0,1,2.49,2.87,12.62,12.62,0,0,1,.59,4.52V68h-5.77V55.51c0-2.17-.2-3.56-.6-4.19A2.74,2.74,0,0,0,402,50.08a4,4,0,0,0-2.28.74A4.13,4.13,0,0,0,398.19,53a15.38,15.38,0,0,0-.48,4.51V68h-5.77V56a16.89,16.89,0,0,0-.31-4.11,2.64,2.64,0,0,0-1-1.38,3,3,0,0,0-1.75-.45,4.2,4.2,0,0,0-2.41.72A4,4,0,0,0,385,52.88a15.34,15.34,0,0,0-.46,4.5V68h-5.78Z"/><path class="cls-4" d="M420.93,52.82l-5.25-1a8.2,8.2,0,0,1,3.05-4.69c1.44-1,3.57-1.52,6.41-1.52a13.81,13.81,0,0,1,5.76.92,5.76,5.76,0,0,1,2.66,2.32,12,12,0,0,1,.77,5.17l-.06,6.74a23,23,0,0,0,.28,4.25,12.44,12.44,0,0,0,1,2.93h-5.71c-.15-.38-.34-.95-.56-1.71-.09-.34-.16-.57-.2-.68a10.39,10.39,0,0,1-3.17,2.16,9,9,0,0,1-3.6.72A7.45,7.45,0,0,1,417,66.65,6.06,6.06,0,0,1,415.09,62a6.17,6.17,0,0,1,.88-3.3,5.75,5.75,0,0,1,2.48-2.22A18.83,18.83,0,0,1,423,55.16a31.91,31.91,0,0,0,5.62-1.42v-.57a3,3,0,0,0-.83-2.38,4.92,4.92,0,0,0-3.1-.71,4.11,4.11,0,0,0-2.41.61A4.17,4.17,0,0,0,420.93,52.82Zm7.73,4.68a34.48,34.48,0,0,1-3.52.89,10.41,10.41,0,0,0-3.14,1,2.39,2.39,0,0,0-1.14,2,2.86,2.86,0,0,0,.91,2.1,3.14,3.14,0,0,0,2.3.88,5,5,0,0,0,3-1,3.59,3.59,0,0,0,1.38-1.91,11.33,11.33,0,0,0,.23-2.81Z"/><path class="cls-4" d="M459.89,68h-5.78V56.85a17.56,17.56,0,0,0-.37-4.58,3.23,3.23,0,0,0-1.2-1.61,3.43,3.43,0,0,0-2-.58,4.67,4.67,0,0,0-2.69.82,4.18,4.18,0,0,0-1.64,2.18,19.13,19.13,0,0,0-.44,5V68H440V46.16h5.37v3.2a8.75,8.75,0,0,1,7.2-3.7,8.63,8.63,0,0,1,3.49.69,5.94,5.94,0,0,1,2.4,1.76,6.49,6.49,0,0,1,1.13,2.42,18.24,18.24,0,0,1,.32,3.89Z"/><path class="cls-4" d="M475.76,46.16v4.6h-3.95v8.8a23,23,0,0,0,.11,3.11,1.27,1.27,0,0,0,.52.73,1.55,1.55,0,0,0,1,.29,7.47,7.47,0,0,0,2.33-.55l.49,4.48a11.38,11.38,0,0,1-4.56.86,7.23,7.23,0,0,1-2.82-.52A4.06,4.06,0,0,1,467,66.6a5.3,5.3,0,0,1-.81-2.25,26.81,26.81,0,0,1-.19-4.07V50.76h-2.65v-4.6H466V41.82l5.8-3.37v7.71Z"/><path class="cls-4" d="M510.79,56.91l5.9,1.87a13.24,13.24,0,0,1-4.51,7.33A14.22,14.22,0,0,1,494.3,64.4q-3.87-4.1-3.86-11.21,0-7.53,3.88-11.69a13.31,13.31,0,0,1,10.22-4.16,12.51,12.51,0,0,1,9,3.26,11.94,11.94,0,0,1,3.09,5.56l-6,1.43a6.21,6.21,0,0,0-6.35-5.05,6.87,6.87,0,0,0-5.44,2.4c-1.39,1.61-2.08,4.2-2.08,7.79q0,5.72,2.05,8.15a6.71,6.71,0,0,0,5.35,2.42,6.06,6.06,0,0,0,4.17-1.54A8.93,8.93,0,0,0,510.79,56.91Z"/><path class="cls-4" d="M520.54,56.76A11.87,11.87,0,0,1,522,51.19a9.84,9.84,0,0,1,4-4.11,11.9,11.9,0,0,1,5.81-1.42,10.89,10.89,0,0,1,8.12,3.22A11.12,11.12,0,0,1,543.07,57a11.25,11.25,0,0,1-3.2,8.21,10.77,10.77,0,0,1-8,3.26,12.69,12.69,0,0,1-5.72-1.35,9.35,9.35,0,0,1-4.15-4A13.35,13.35,0,0,1,520.54,56.76Zm5.92.31a7.23,7.23,0,0,0,1.54,5,5,5,0,0,0,7.59,0,7.3,7.3,0,0,0,1.54-5,7.14,7.14,0,0,0-1.54-4.93,5,5,0,0,0-7.59,0A7.22,7.22,0,0,0,526.46,57.07Z"/><path class="cls-4" d="M547.16,46.16h5.32v3a8.58,8.58,0,0,1,6.81-3.48,7.29,7.29,0,0,1,3.64.87,6.57,6.57,0,0,1,2.53,2.61,9.93,9.93,0,0,1,3.1-2.61,7.59,7.59,0,0,1,3.56-.87,7.94,7.94,0,0,1,4.07,1,6,6,0,0,1,2.49,2.87,12.62,12.62,0,0,1,.59,4.52V68H573.5V55.51c0-2.17-.2-3.56-.6-4.19a2.73,2.73,0,0,0-2.47-1.24,4,4,0,0,0-2.28.74A4.13,4.13,0,0,0,566.61,53a15.45,15.45,0,0,0-.47,4.51V68h-5.78V56a16.37,16.37,0,0,0-.31-4.11,2.64,2.64,0,0,0-1-1.38,3,3,0,0,0-1.75-.45,4.22,4.22,0,0,0-2.41.72,4,4,0,0,0-1.53,2.08,15.34,15.34,0,0,0-.46,4.5V68h-5.78Z"/><path class="cls-4" d="M584.87,46.16h5.38v3.2a8.19,8.19,0,0,1,2.84-2.67,7.76,7.76,0,0,1,4-1,8.33,8.33,0,0,1,6.45,3q2.65,3,2.66,8.31c0,3.64-.9,6.48-2.68,8.5a8.32,8.32,0,0,1-6.47,3,7.35,7.35,0,0,1-3.28-.72,11.23,11.23,0,0,1-3.1-2.46v11h-5.77Zm5.71,10.54q0,3.69,1.46,5.44a4.47,4.47,0,0,0,3.56,1.76A4.17,4.17,0,0,0,599,62.28c.89-1.07,1.34-2.84,1.34-5.29a7.88,7.88,0,0,0-1.38-5.1,4.26,4.26,0,0,0-3.41-1.66A4.42,4.42,0,0,0,592,51.86,7.28,7.28,0,0,0,590.58,56.7Z"/><path class="cls-4" d="M615.07,52.82l-5.25-1a8.2,8.2,0,0,1,3-4.69c1.44-1,3.57-1.52,6.41-1.52a13.81,13.81,0,0,1,5.76.92,5.71,5.71,0,0,1,2.66,2.32,12,12,0,0,1,.77,5.17l-.06,6.74a23,23,0,0,0,.28,4.25,12.44,12.44,0,0,0,1,2.93H624c-.15-.38-.34-.95-.56-1.71-.09-.34-.16-.57-.2-.68a10.39,10.39,0,0,1-3.17,2.16,9,9,0,0,1-3.6.72,7.45,7.45,0,0,1-5.31-1.83A6.09,6.09,0,0,1,609.23,62a6.17,6.17,0,0,1,.88-3.3,5.75,5.75,0,0,1,2.48-2.22,18.83,18.83,0,0,1,4.59-1.35,31.91,31.91,0,0,0,5.62-1.42v-.57a3,3,0,0,0-.83-2.38,4.92,4.92,0,0,0-3.1-.71,4.11,4.11,0,0,0-2.41.61A4.17,4.17,0,0,0,615.07,52.82Zm7.73,4.68a34.48,34.48,0,0,1-3.52.89,10.41,10.41,0,0,0-3.14,1,2.39,2.39,0,0,0-1.14,2,2.86,2.86,0,0,0,.91,2.1,3.14,3.14,0,0,0,2.3.88,5,5,0,0,0,3-1,3.59,3.59,0,0,0,1.38-1.91,11.33,11.33,0,0,0,.23-2.81Z"/><path class="cls-4" d="M654,68h-5.78V56.85a17.11,17.11,0,0,0-.37-4.58,3.23,3.23,0,0,0-1.2-1.61,3.43,3.43,0,0,0-2-.58,4.67,4.67,0,0,0-2.69.82,4.18,4.18,0,0,0-1.64,2.18,19.13,19.13,0,0,0-.44,5V68h-5.77V46.16h5.36v3.2a8.76,8.76,0,0,1,7.2-3.7,8.63,8.63,0,0,1,3.49.69,5.87,5.87,0,0,1,2.4,1.76,6.49,6.49,0,0,1,1.13,2.42,18.24,18.24,0,0,1,.32,3.89Z"/><path class="cls-4" d="M657.15,46.16h6.15l5.22,15.5,5.1-15.5h6l-7.71,21L670.51,71a15.48,15.48,0,0,1-1.44,2.92,6.18,6.18,0,0,1-1.59,1.63,6.76,6.76,0,0,1-2.2,1,11.53,11.53,0,0,1-2.95.35,15.52,15.52,0,0,1-3.27-.35L658.55,72a12.62,12.62,0,0,0,2.45.27,3.63,3.63,0,0,0,3-1.19,8.39,8.39,0,0,0,1.48-3Z"/><path class="cls-4" d="M695.72,60.22h-5.24c0-.76,0-1.22,0-1.38a9.16,9.16,0,0,1,.84-4.19,12.78,12.78,0,0,1,3.37-3.7,23.41,23.41,0,0,0,3-2.7,3.59,3.59,0,0,0,.77-2.22,3.76,3.76,0,0,0-1.35-2.89,5.26,5.26,0,0,0-3.63-1.2,5.48,5.48,0,0,0-3.68,1.26,6.64,6.64,0,0,0-2,3.82l-5.3-.66a8.83,8.83,0,0,1,3.13-6.25,11.14,11.14,0,0,1,7.64-2.57,11.54,11.54,0,0,1,7.92,2.6,7.88,7.88,0,0,1,2.94,6.06A6.62,6.62,0,0,1,703,49.81a23.62,23.62,0,0,1-4.62,4.65,8.92,8.92,0,0,0-2.27,2.45A8.23,8.23,0,0,0,695.72,60.22ZM690.48,68V62.21h5.77V68Z"/><rect class="cls-5" x="55" y="32.5" width="194" height="185"/><path class="cls-6" d="M163.41,71.28c-5.46,0-10.66,0-15.87,0a2.24,2.24,0,0,0-2.29,1.36c-2.15,4-2.19,4-6.72,3.84-.22,0-.44,0-.91-.07l14.22-24.31c.49,0,.55.34.7.59,2,3.48,4.06,7,6.14,10.45.61,1,.28,1.22-.72,1.13a1.78,1.78,0,0,0-.4,0c-2.37.11-4.83.41-5.28-3.18l-.36.24c-1,1.81-2,3.6-3,5.41-.37.68.2.63.59.63,1.35,0,2.7,0,4.05,0,2.24,0,4.49.08,6.74.1a1.17,1.17,0,0,1,1.23.59C162,69.06,162.67,70,163.41,71.28Z"/><path class="cls-6" d="M178.73,98.16q-7-12.14-14-24.29a1.48,1.48,0,0,0-1.54-.76c-3.1,0-6.2.06-9.3,0-1.12,0-1.33.37-1.32,1.39,0,6.92,0,13.84,0,20.76,0,3.76,0,3.73,3.77,3.62.88,0,1.06-.35,1-1.12-.05-1.26,0-2.52,0-3.78-.05-.89.25-1.13,1.13-1.13,3.64,0,7.28,0,10.92-.08a1.32,1.32,0,0,1,1.35.85c.79,1.51,1.65,3,2.46,4.49a1.14,1.14,0,0,0,1.12.76c1.48,0,3,0,4.65,0C178.87,98.47,178.81,98.31,178.73,98.16ZM168.2,88.22c-3.35,0-6.66,0-10,0-.68,0-.82-.31-.82-.9q0-4.38,0-8.76c0-.66.25-.8.86-.83,3.69-.2,3.68-.21,5.55,3,1.25,2.12,2.54,4.23,3.79,6.36C167.85,87.45,168.25,87.81,168.2,88.22Z"/><path class="cls-6" d="M151,79.36c0-.89-.27-1.15-1.15-1.14q-6.13.07-12.27,0a1.74,1.74,0,0,0-1.77,1.06c-3.44,6.2-6.94,12.36-10.41,18.54-.17.3-.45.57-.37,1a1.1,1.1,0,0,0,.35.11l20.23,0a1.41,1.41,0,0,0,1.1-.39q2-2.1,4-4.17a1.48,1.48,0,0,0,.25-1.15C150.94,88.61,150.92,84,151,79.36Zm-4.63,11.87a3.8,3.8,0,0,1-3.08,3H132.77c2.29-4,4.45-7.68,6.58-11.4.28-.49.69-.5,1.14-.5,1.62,0,3.24,0,4.85,0,.76,0,1,.23,1,1C146.31,85.94,146.35,88.58,146.33,91.23Z"/><path class="cls-6" d="M123.6,129.15V109h13.81v3.4h-9.75v4.77h8.41v3.41h-8.41v8.56Z"/><path class="cls-6" d="M140.63,129.15V109h4.07v20.14Z"/><path class="cls-6" d="M148.68,129.15v-20h4.07v16.58h10.11v3.4Z"/><path class="cls-6" d="M165.76,129.15V109h14.93v3.4H169.83v4.47h10.11v3.39H169.83v5.48h11.25v3.4Z"/><path class="cls-6" d="M82.14,142.77h7.44a14.84,14.84,0,0,1,3.83.38,6.72,6.72,0,0,1,3,1.86,8.77,8.77,0,0,1,1.93,3.26A14.89,14.89,0,0,1,99,153a13.31,13.31,0,0,1-.62,4.29,8.85,8.85,0,0,1-2.16,3.56,7.14,7.14,0,0,1-2.86,1.6,12,12,0,0,1-3.6.43H82.14Zm4.07,3.41v13.34h3a10.78,10.78,0,0,0,2.45-.2,3.79,3.79,0,0,0,1.65-.83,4.34,4.34,0,0,0,1.06-2,12.94,12.94,0,0,0,.41-3.69,11.85,11.85,0,0,0-.41-3.58,4.52,4.52,0,0,0-1.15-2,3.87,3.87,0,0,0-1.88-.95,18.43,18.43,0,0,0-3.34-.19Z"/><path class="cls-6" d="M101.65,153a12.84,12.84,0,0,1,.92-5.16,9.26,9.26,0,0,1,1.88-2.76,7.88,7.88,0,0,1,2.6-1.82,11.06,11.06,0,0,1,4.34-.79,9.45,9.45,0,0,1,7.12,2.76,12.33,12.33,0,0,1,0,15.31,10.61,10.61,0,0,1-14.24,0A10.37,10.37,0,0,1,101.65,153Zm4.19-.13a7.53,7.53,0,0,0,1.58,5.18,5.43,5.43,0,0,0,8,0,7.7,7.7,0,0,0,1.56-5.26,7.5,7.5,0,0,0-1.52-5.16,5.11,5.11,0,0,0-4-1.71,5.18,5.18,0,0,0-4.05,1.73A7.58,7.58,0,0,0,105.84,152.83Z"/><path class="cls-6" d="M124.37,162.91V142.77h8.56a14.81,14.81,0,0,1,4.7.54,4.68,4.68,0,0,1,2.34,1.93,5.89,5.89,0,0,1,.88,3.18,5.36,5.36,0,0,1-1.34,3.74,6.35,6.35,0,0,1-4,1.86,9.68,9.68,0,0,1,2.18,1.69A24,24,0,0,1,140,159l2.46,3.93h-4.86l-2.94-4.38a28.87,28.87,0,0,0-2.14-3,3.15,3.15,0,0,0-1.23-.84,6.71,6.71,0,0,0-2.05-.23h-.82v8.41Zm4.07-11.62h3a15.11,15.11,0,0,0,3.65-.25,2.14,2.14,0,0,0,1.14-.85,2.59,2.59,0,0,0,.42-1.51,2.36,2.36,0,0,0-.55-1.64,2.46,2.46,0,0,0-1.53-.79c-.33-.05-1.32-.07-3-.07h-3.17Z"/><path class="cls-6" d="M144.62,162.91V142.77h6.09l3.65,13.74L158,142.77h6.1v20.14H160.3V147.06l-4,15.85h-3.91l-4-15.85v15.85Z"/><path class="cls-6" d="M186.28,162.91h-4.43l-1.75-4.58h-8l-1.67,4.58h-4.31l7.84-20.14h4.3Zm-7.49-8L176,147.47l-2.72,7.47Z"/><path class="cls-6" d="M188.48,162.91V142.77h4l8.25,13.45V142.77h3.77v20.14h-4.08l-8.12-13.13v13.13Z"/><path class="cls-6" d="M213.29,162.91V146.18h-6v-3.41h16v3.41h-6v16.73Z"/><path class="cls-6" d="M92.5,196.67H88.07l-1.76-4.57h-8l-1.66,4.57H72.29l7.84-20.14h4.3Zm-7.49-8-2.78-7.48-2.72,7.48Z"/><path class="cls-6" d="M107.54,189.27l3.94,1.25a8.86,8.86,0,0,1-3,4.9,9.5,9.5,0,0,1-12-1.14,10.51,10.51,0,0,1-2.58-7.5q0-5,2.59-7.81a8.94,8.94,0,0,1,6.83-2.78,8.41,8.41,0,0,1,6,2.18,8.07,8.07,0,0,1,2.06,3.71l-4,1a4.14,4.14,0,0,0-4.24-3.38,4.58,4.58,0,0,0-3.64,1.6q-1.39,1.6-1.39,5.21,0,3.83,1.37,5.44a4.47,4.47,0,0,0,3.57,1.62,4.07,4.07,0,0,0,2.79-1A6,6,0,0,0,107.54,189.27Z"/><path class="cls-6" d="M127.86,189.27l3.94,1.25a8.81,8.81,0,0,1-3,4.9,9.48,9.48,0,0,1-11.94-1.14,10.51,10.51,0,0,1-2.58-7.5q0-5,2.59-7.81a8.92,8.92,0,0,1,6.83-2.78,8.38,8.38,0,0,1,6,2.18,8,8,0,0,1,2.07,3.71l-4,1a4.14,4.14,0,0,0-4.25-3.38,4.58,4.58,0,0,0-3.63,1.6q-1.4,1.6-1.39,5.21c0,2.55.45,4.36,1.37,5.44a4.47,4.47,0,0,0,3.57,1.62,4.07,4.07,0,0,0,2.79-1A6,6,0,0,0,127.86,189.27Z"/><path class="cls-6" d="M134.46,186.73a12.71,12.71,0,0,1,.93-5.17,9.48,9.48,0,0,1,1.87-2.76,7.85,7.85,0,0,1,2.6-1.81,11.14,11.14,0,0,1,4.35-.8,9.46,9.46,0,0,1,7.12,2.76q2.67,2.76,2.67,7.68c0,3.25-.88,5.8-2.65,7.63a9.38,9.38,0,0,1-7.09,2.76,9.49,9.49,0,0,1-7.14-2.74A10.41,10.41,0,0,1,134.46,186.73Zm4.2-.14a7.53,7.53,0,0,0,1.58,5.19,5.16,5.16,0,0,0,4,1.76,5.09,5.09,0,0,0,4-1.75,7.69,7.69,0,0,0,1.56-5.25,7.58,7.58,0,0,0-1.52-5.17,5.12,5.12,0,0,0-4-1.7,5.18,5.18,0,0,0-4.06,1.72A7.64,7.64,0,0,0,138.66,186.59Z"/><path class="cls-6" d="M157.15,176.53h4.06v10.91a21.1,21.1,0,0,0,.16,3.37,3.22,3.22,0,0,0,1.24,2,4.31,4.31,0,0,0,2.68.75,4,4,0,0,0,2.61-.71A2.78,2.78,0,0,0,169,191.1a22.6,22.6,0,0,0,.18-3.43V176.53h4.07v10.58a27.23,27.23,0,0,1-.33,5.13,5.66,5.66,0,0,1-1.22,2.52,6.14,6.14,0,0,1-2.37,1.65,10.46,10.46,0,0,1-3.87.61,11.25,11.25,0,0,1-4.38-.67,6.16,6.16,0,0,1-2.35-1.73,5.45,5.45,0,0,1-1.14-2.23,24.19,24.19,0,0,1-.4-5.11Z"/><path class="cls-6" d="M177.53,196.67V176.53h4L189.73,190V176.53h3.78v20.14h-4.08l-8.12-13.13v13.13Z"/><path class="cls-6" d="M202.35,196.67V179.94h-6v-3.41h16v3.41h-6v16.73Z"/><path class="cls-6" d="M214,190.12l4-.38a4.77,4.77,0,0,0,1.45,2.92,4.31,4.31,0,0,0,2.94.94,4.54,4.54,0,0,0,3-.83,2.48,2.48,0,0,0,1-2,1.82,1.82,0,0,0-.42-1.21,3.35,3.35,0,0,0-1.46-.88c-.48-.16-1.57-.45-3.26-.88a11,11,0,0,1-4.59-2,5.26,5.26,0,0,1-1.85-4.05,5.18,5.18,0,0,1,.87-2.88,5.5,5.5,0,0,1,2.51-2,10.07,10.07,0,0,1,4-.7c2.52,0,4.43.55,5.7,1.66a5.89,5.89,0,0,1,2,4.44l-4.07.18a3.42,3.42,0,0,0-1.12-2.23,4,4,0,0,0-2.57-.68,4.69,4.69,0,0,0-2.78.72,1.49,1.49,0,0,0-.65,1.25,1.57,1.57,0,0,0,.61,1.23,10.57,10.57,0,0,0,3.74,1.34,20,20,0,0,1,4.39,1.45,5.7,5.7,0,0,1,2.22,2,6.36,6.36,0,0,1-.16,6.45,5.76,5.76,0,0,1-2.72,2.25,11.39,11.39,0,0,1-4.38.73,8.77,8.77,0,0,1-5.87-1.76A7.7,7.7,0,0,1,214,190.12Z"/></g></g></svg>