<svg xmlns="http://www.w3.org/2000/svg" viewBox="0 0 86.32 8.52"><g id="Layer_2" data-name="Layer 2"><g id="Layer_1-2" data-name="Layer 1"><path d="M1.42,4.75a2.61,2.61,0,0,0,.08.69A2,2,0,0,0,1.75,6a1.24,1.24,0,0,0,.43.39,1.21,1.21,0,0,0,.62.15,2.49,2.49,0,0,0,.46-.05,1.66,1.66,0,0,0,.46-.15,1.11,1.11,0,0,0,.35-.29.7.7,0,0,0,.14-.44.92.92,0,0,0-.3-.7,3.58,3.58,0,0,0-.74-.52c-.3-.16-.62-.31-1-.47a6.32,6.32,0,0,1-1-.52,2.76,2.76,0,0,1-.75-.69,1.53,1.53,0,0,1-.29-1A1.34,1.34,0,0,1,.46.91,1.81,1.81,0,0,1,1.13.39,3,3,0,0,1,2,.12,5.6,5.6,0,0,1,2.89.05a5.84,5.84,0,0,1,.93.08,2.67,2.67,0,0,1,.82.3,1.88,1.88,0,0,1,.6.59,1.82,1.82,0,0,1,.27.92H4.1A3.81,3.81,0,0,0,4,1.35,1.55,1.55,0,0,0,3.84.83,1,1,0,0,0,3.47.47,1.13,1.13,0,0,0,2.86.33a1.59,1.59,0,0,0-.5.07A.94.94,0,0,0,2,.61,1.09,1.09,0,0,0,1.67,1a1.27,1.27,0,0,0-.1.5.84.84,0,0,0,.3.64,3.77,3.77,0,0,0,.75.51c.3.16.63.32,1,.48a8.22,8.22,0,0,1,1,.52,3.2,3.2,0,0,1,.75.65,1.35,1.35,0,0,1,.3.87,1.07,1.07,0,0,1-.24.66,1.94,1.94,0,0,1-.62.54,3.33,3.33,0,0,1-.9.37,4.24,4.24,0,0,1-1.07.14,4.81,4.81,0,0,1-1-.11,2.9,2.9,0,0,1-.89-.35,1.93,1.93,0,0,1-.63-.64,2,2,0,0,1-.26-1Z"/><path d="M9,6.13a1.77,1.77,0,0,1-.58.52,1.36,1.36,0,0,1-.65.18,1,1,0,0,1-.53-.13,1.18,1.18,0,0,1-.38-.32,1.5,1.5,0,0,1-.22-.46,2,2,0,0,1-.07-.55V3A.5.5,0,0,0,6,2.4H5.89V2.31L7.74,1h.09v1.3h1.1v.25H7.83V5.38c0,.08,0,.18,0,.29A1.55,1.55,0,0,0,7.91,6a.87.87,0,0,0,.15.25.35.35,0,0,0,.27.1A1.13,1.13,0,0,0,9,6.05Z"/><path d="M9.62,7.79,11.27,7,9.09,2.28H10.5l1.35,3.31a7.74,7.74,0,0,0,.48-1.24,4.41,4.41,0,0,0,.16-1,1.42,1.42,0,0,0-.12-.69.82.82,0,0,0-.35-.4h1.61v.1L10.92,8.52l-1.3-.66Z"/><path d="M15.67,6.75H14.41V1a1.19,1.19,0,0,0,0-.31.26.26,0,0,0-.1-.16A.42.42,0,0,0,14.1.41l-.29,0V.23L15.67.05Z"/><path d="M17.11,6.75V3.19a.92.92,0,0,0,0-.33A.34.34,0,0,0,17,2.69a.47.47,0,0,0-.19-.07l-.26,0V2.46l1.86-.15V6.75Zm.51-5.13A.82.82,0,0,1,17,1.39a.82.82,0,0,1-.23-.58A.82.82,0,0,1,17,.23.82.82,0,0,1,17.62,0a.79.79,0,0,1,.81.81.79.79,0,0,1-.81.81Z"/><path d="M22.35,3.79c0-.15-.08-.3-.13-.47A1.77,1.77,0,0,0,22,2.87a1.18,1.18,0,0,0-.3-.33.93.93,0,0,0-.5-.12.85.85,0,0,0-.22,0,.72.72,0,0,0-.21.12.72.72,0,0,0-.14.2.47.47,0,0,0,0,.27.61.61,0,0,0,.25.39,3,3,0,0,0,.51.32l.64.32a2.79,2.79,0,0,1,.62.38,2.15,2.15,0,0,1,.48.52,1.3,1.3,0,0,1,.19.73.71.71,0,0,1-.16.45,1.25,1.25,0,0,1-.42.36,1.8,1.8,0,0,1-.6.24,2.76,2.76,0,0,1-.71.09,3.19,3.19,0,0,1-1.19-.23,1.93,1.93,0,0,1-.93-.77L20.07,5a3.2,3.2,0,0,0,.17.49,2.46,2.46,0,0,0,.28.5,1.79,1.79,0,0,0,.4.38.86.86,0,0,0,.51.16A.87.87,0,0,0,22,6.38a.58.58,0,0,0,.17-.49A.65.65,0,0,0,22,5.46a2.77,2.77,0,0,0-.49-.32c-.19-.11-.39-.21-.61-.31a3.21,3.21,0,0,1-.6-.34,1.61,1.61,0,0,1-.46-.44,1.07,1.07,0,0,1-.18-.63,1.13,1.13,0,0,1,.15-.61,1.24,1.24,0,0,1,.41-.38,1.74,1.74,0,0,1,.57-.19,4.48,4.48,0,0,1,.64-.05,2.44,2.44,0,0,1,.52.06,1.69,1.69,0,0,1,.52.18,2.16,2.16,0,0,1,.47.34,1.68,1.68,0,0,1,.37.51Z"/><path d="M25.61,6.75H24.36V.88a1,1,0,0,0,0-.28.24.24,0,0,0-.1-.14A.47.47,0,0,0,24,.4l-.27,0V.23L25.61.05V3.16a1.69,1.69,0,0,1,.3-.36,2.31,2.31,0,0,1,.39-.31,2.26,2.26,0,0,1,.44-.22,1.48,1.48,0,0,1,.46-.08,1.19,1.19,0,0,1,1,.37,1.44,1.44,0,0,1,.31,1V6.75H27.21V3.64a.77.77,0,0,0-.14-.51.62.62,0,0,0-.49-.19,1.23,1.23,0,0,0-.52.12,2.11,2.11,0,0,0-.45.31Z"/><path d="M36.58,5.94a4.88,4.88,0,0,1-1.38.66,5,5,0,0,1-1.51.24,3.81,3.81,0,0,1-1-.12,2.44,2.44,0,0,1-.78-.36,1.57,1.57,0,0,1-.5-.59A1.4,1.4,0,0,1,31.3,5a1.66,1.66,0,0,1,.26-.7,3.61,3.61,0,0,1,.52-.59,5,5,0,0,1,.66-.48q.34-.23.66-.39a2.27,2.27,0,0,1-.47-.76,1.66,1.66,0,0,1-.12-.88,1.21,1.21,0,0,1,.62-.94A2,2,0,0,1,34,.06a2,2,0,0,1,.6,0,2.66,2.66,0,0,1,.49.1,1.67,1.67,0,0,1,.42.22,1.17,1.17,0,0,1,.27.35.93.93,0,0,1,.06.51,1,1,0,0,1-.39.73,2.07,2.07,0,0,1-.76.37l2.59,2.54a2,2,0,0,0,.24-.4A1.8,1.8,0,0,0,37.62,4s0-.1,0-.17a.58.58,0,0,0,0-.19.51.51,0,0,0-.09-.16.23.23,0,0,0-.16-.08.33.33,0,0,0-.23,0,.32.32,0,0,0-.12.21l-.57-.77a.74.74,0,0,1,.1-.26A.77.77,0,0,1,37,2.31a.76.76,0,0,1,.27-.05h.09a.74.74,0,0,1,.37.17,1.25,1.25,0,0,1,.25.34,1.53,1.53,0,0,1,.13.43,1.2,1.2,0,0,1,0,.42,2.64,2.64,0,0,1-.21.79,3,3,0,0,1-.39.67l1.68,1.66H37.39ZM33.59,3a2.84,2.84,0,0,0-.39.25,2.24,2.24,0,0,0-.35.34,2,2,0,0,0-.26.39,1.39,1.39,0,0,0-.13.44,1,1,0,0,0,.09.58,1.24,1.24,0,0,0,.37.46,2,2,0,0,0,.58.32,2.71,2.71,0,0,0,.72.16.68.68,0,0,0,.2,0h.21a4.78,4.78,0,0,0,.84-.08,4,4,0,0,0,.79-.25Zm0-2.2a.84.84,0,0,0,0,.42,1.75,1.75,0,0,0,.2.35c.09.11.19.21.29.31s.21.19.3.28a2.06,2.06,0,0,0,.33-.4A1.19,1.19,0,0,0,35,1.28a1.16,1.16,0,0,0-.1-.68A.67.67,0,0,0,34.3.27a.54.54,0,0,0-.45.12A.61.61,0,0,0,33.64.8Z"/><path d="M41.8,6.75V.14h4.36V1.52c-.13-.19-.26-.36-.37-.49a1.8,1.8,0,0,0-.4-.33A1.9,1.9,0,0,0,44.9.52a3.22,3.22,0,0,0-.66-.05H43.15a.25.25,0,0,0-.08.18,1.48,1.48,0,0,0,0,.21V3.21h.74a1.62,1.62,0,0,0,.52-.11,1.12,1.12,0,0,0,.47-.36h.08V4.23h0a4.19,4.19,0,0,0-.35-.37,2.85,2.85,0,0,0-.33-.25.64.64,0,0,0-.35-.12h-.74V6.75Z"/><path d="M49.89,6.75V5.9a3,3,0,0,1-.3.35,2.31,2.31,0,0,1-.39.31,2.58,2.58,0,0,1-.44.22,1.19,1.19,0,0,1-.45.08,1.26,1.26,0,0,1-.57-.11,1.08,1.08,0,0,1-.4-.3A1.33,1.33,0,0,1,47.11,6,2,2,0,0,1,47,5.42V2.9a.25.25,0,0,0,0-.16.2.2,0,0,0-.12-.08l-.17,0h-.17V2.47l1.76-.19V5.35a1,1,0,0,0,.14.54.54.54,0,0,0,.5.22A1.17,1.17,0,0,0,49.46,6a1.45,1.45,0,0,0,.43-.33V3.12a1,1,0,0,0,0-.28.26.26,0,0,0-.11-.14.48.48,0,0,0-.18-.06l-.27,0V2.48l1.85-.19V6.75Z"/><path d="M53.79,6.75H52.53V3a1,1,0,0,0,0-.28.3.3,0,0,0-.11-.15.38.38,0,0,0-.18-.06l-.28,0V2.32l1.86-.19v1a1.74,1.74,0,0,1,.31-.36,2.53,2.53,0,0,1,.42-.31A2.86,2.86,0,0,1,55,2.27a1.72,1.72,0,0,1,.48-.08,1.29,1.29,0,0,1,1,.37,1.36,1.36,0,0,1,.34,1V6.75H55.58V3.64a.73.73,0,0,0-.17-.51.7.7,0,0,0-.54-.19,1.47,1.47,0,0,0-.58.12,1.86,1.86,0,0,0-.5.31Z"/><path d="M60.91,4.25a3.75,3.75,0,0,0,0-.67A3,3,0,0,0,60.8,3a1,1,0,0,0-.25-.39.5.5,0,0,0-.37-.15,1,1,0,0,0-.56.15,1.18,1.18,0,0,0-.38.39,1.65,1.65,0,0,0-.22.53A2.2,2.2,0,0,0,59,4.1a2.07,2.07,0,0,0,.13.72,2.09,2.09,0,0,0,.37.67A1.94,1.94,0,0,0,60,6a1.52,1.52,0,0,0,.77.2,2.75,2.75,0,0,0,.7-.1,1.06,1.06,0,0,0,.56-.39l.07.06a1.44,1.44,0,0,1-.37.45,2.09,2.09,0,0,1-.49.35,2.59,2.59,0,0,1-1.15.3,2.26,2.26,0,0,1-.9-.18,2.22,2.22,0,0,1-.75-.47A2.07,2.07,0,0,1,58,5.5a2,2,0,0,1-.2-.87,2.48,2.48,0,0,1,.19-1,2.14,2.14,0,0,1,.5-.77,2.19,2.19,0,0,1,.76-.5,2.78,2.78,0,0,1,1-.17,2.29,2.29,0,0,1,1.3.32,1.62,1.62,0,0,1,.63.83Z"/><path d="M65.46,6.13a1.77,1.77,0,0,1-.58.52,1.36,1.36,0,0,1-.65.18,1,1,0,0,1-.53-.13,1.18,1.18,0,0,1-.38-.32,1.5,1.5,0,0,1-.22-.46A2,2,0,0,1,63,5.37V3a.5.5,0,0,0-.56-.56h-.13V2.31L64.19,1h.09v1.3h1.1v.25h-1.1V5.38c0,.08,0,.18,0,.29a1.55,1.55,0,0,0,.06.31.87.87,0,0,0,.15.25.36.36,0,0,0,.27.1,1.13,1.13,0,0,0,.62-.28Z"/><path d="M66.21,6.75V3.19a.92.92,0,0,0,0-.33.34.34,0,0,0-.11-.17.48.48,0,0,0-.18-.07l-.26,0V2.46l1.85-.15V6.75Zm.51-5.13a.78.78,0,0,1-.57-.23.78.78,0,0,1-.24-.58.78.78,0,0,1,.24-.58A.78.78,0,0,1,66.72,0a.82.82,0,0,1,.59.23.81.81,0,0,1,.22.58.81.81,0,0,1-.22.58A.82.82,0,0,1,66.72,1.62Z"/><path d="M70.85,6.85a2.47,2.47,0,0,1-.95-.18,2.14,2.14,0,0,1-.76-.48,2.39,2.39,0,0,1-.51-.73,2.42,2.42,0,0,1-.18-.94,2.4,2.4,0,0,1,.18-.95,2.44,2.44,0,0,1,.51-.74,2.27,2.27,0,0,1,.76-.47,2.74,2.74,0,0,1,1.9,0,2.37,2.37,0,0,1,.76.47,2.44,2.44,0,0,1,.51.74,2.4,2.4,0,0,1,.18.95,2.42,2.42,0,0,1-.18.94,2.39,2.39,0,0,1-.51.73,2.23,2.23,0,0,1-.76.48A2.47,2.47,0,0,1,70.85,6.85Zm.49-.36a.73.73,0,0,0,.49-.36,1.74,1.74,0,0,0,.2-.62,3.19,3.19,0,0,0,0-.69,5.31,5.31,0,0,0-.1-.6,5.12,5.12,0,0,0-.17-.57,3.53,3.53,0,0,0-.25-.56,1.75,1.75,0,0,0-.38-.43.88.88,0,0,0-.53-.16,1.39,1.39,0,0,0-.3,0,.8.8,0,0,0-.48.36,1.91,1.91,0,0,0-.21.61,2.73,2.73,0,0,0,0,.7,3.85,3.85,0,0,0,.09.6,3.41,3.41,0,0,0,.19.52,2.73,2.73,0,0,0,.3.56,1.81,1.81,0,0,0,.42.45.8.8,0,0,0,.52.19A.64.64,0,0,0,71.34,6.49Z"/><path d="M75.51,6.75H74.25V3a1,1,0,0,0,0-.28.3.3,0,0,0-.11-.15.42.42,0,0,0-.18-.06l-.28,0V2.32l1.86-.19v1a1.74,1.74,0,0,1,.31-.36,2.17,2.17,0,0,1,.42-.31,2.86,2.86,0,0,1,.47-.22,1.72,1.72,0,0,1,.48-.08,1.29,1.29,0,0,1,1,.37,1.36,1.36,0,0,1,.34,1V6.75H77.29V3.64a.73.73,0,0,0-.16-.51.7.7,0,0,0-.54-.19,1.56,1.56,0,0,0-.59.12,2,2,0,0,0-.49.31Z"/><path d="M79.77,3.28a2.73,2.73,0,0,1,.36-.45,1.79,1.79,0,0,1,.44-.34,2,2,0,0,1,.57-.22,3.13,3.13,0,0,1,.73-.08,3.08,3.08,0,0,1,.68.07,1.69,1.69,0,0,1,.58.24,1.24,1.24,0,0,1,.4.42,1.29,1.29,0,0,1,.15.64V6.75H82.44V6.22a3.36,3.36,0,0,1-.69.43,1.91,1.91,0,0,1-.79.19,1.7,1.7,0,0,1-.51-.08A1.35,1.35,0,0,1,80,6.54a1.19,1.19,0,0,1-.3-.39,1.36,1.36,0,0,1-.11-.56,1.09,1.09,0,0,1,.32-.8,2.51,2.51,0,0,1,.76-.5A5,5,0,0,1,81.62,4c.32,0,.59-.09.82-.11V3.6c0-.15,0-.28,0-.41a1.23,1.23,0,0,0-.05-.35.68.68,0,0,0-.16-.26.55.55,0,0,0-.32-.11.93.93,0,0,0-.4.06,1.06,1.06,0,0,0-.35.26,1.42,1.42,0,0,0-.25.42,2,2,0,0,0-.13.58Zm2.67.82a3.67,3.67,0,0,0-.48.08,1.78,1.78,0,0,0-.52.21,1.12,1.12,0,0,0-.57,1.09.87.87,0,0,0,.23.58.65.65,0,0,0,.5.22,1.87,1.87,0,0,0,.4-.07A1.3,1.3,0,0,0,82.44,6Z"/><path d="M86.32,6.75H85.06V1a1.19,1.19,0,0,0,0-.31.25.25,0,0,0-.09-.16.47.47,0,0,0-.19-.07l-.28,0V.23L86.32.05Z"/></g></g></svg>