<svg xmlns="http://www.w3.org/2000/svg" viewBox="0 0 116 37.62"><defs><style>.cls-1{fill:#fff;}.cls-2{fill:#9b5c8f;}</style></defs><g id="Layer_2" data-name="Layer 2"><g id="Layer_1-2" data-name="Layer 1"><rect class="cls-1" width="116" height="37.62" rx="18.81"/><polygon points="59.24 15.84 59.25 15.85 59.25 15.85 59.24 15.84"/><path d="M60.12,18.49a4.4,4.4,0,0,0-.87-2.64,3.12,3.12,0,0,0-2.3-1h-.34a3,3,0,0,0-2.23,1h0a4.23,4.23,0,0,0-.86,2.57,2.62,2.62,0,0,0,0,.28,2.81,2.81,0,0,0,0,.3,4.7,4.7,0,0,0,.86,2.71,3,3,0,0,0,2.28,1.05H57a2.93,2.93,0,0,0,2.25-1.05h0a4.5,4.5,0,0,0,.85-2.65v-.56Zm-2.49,2.09v0a1,1,0,0,1-.83.45h-.07a.88.88,0,0,1-.77-.45h0a3.92,3.92,0,0,1-.3-1.52c0-.12,0-.24,0-.36h0c0-1.44.37-2.15,1.1-2.15h0c.78,0,1.18.73,1.18,2.19,0,.08,0,.17,0,.26a4,4,0,0,1-.34,1.59Z"/><polygon points="54.39 21.71 54.38 21.71 54.38 21.7 54.39 21.71"/><path class="cls-2" d="M42.08,16.53a1.31,1.31,0,0,0-1,.7h0a3.54,3.54,0,0,0-.67,2.08v.05h0a2.9,2.9,0,0,0,.21,1v0c.16.43.39.66.65.72h.1a1.1,1.1,0,0,0,.8-.35h0A2.94,2.94,0,0,0,43,19.11v0a4,4,0,0,0,.08-.81h0a2.71,2.71,0,0,0-.21-1v0c-.17-.43-.38-.66-.65-.71l-.15,0h0Z"/><path class="cls-2" d="M35.17,16.53a1.32,1.32,0,0,0-1,.7h0a3.53,3.53,0,0,0-.66,2.08v.05h0a2.69,2.69,0,0,0,.2,1v0c.17.43.39.66.65.72h.1a1.1,1.1,0,0,0,.8-.35h0a2.94,2.94,0,0,0,.83-1.62v0a4.61,4.61,0,0,0,.07-.78v0h0a2.7,2.7,0,0,0-.2-1v0c-.16-.43-.38-.66-.65-.71l-.14,0h0Z"/><path d="M87.9,19.18a2,2,0,0,0,1.23-1.83h0v-.07a2,2,0,0,0-.83-1.6h0a3.74,3.74,0,0,0-2.07-.62H83.67v7.52h2V19.14h0l1.64,3.42h2.14ZM87,17.49h0c0,.52-.45.79-1.35.8V16.5h.13a1.81,1.81,0,0,1,.92.25h0a.87.87,0,0,1,.3.65Z"/><polygon points="78.97 15.06 78.97 22.58 83.09 22.58 83.09 20.97 81.01 20.97 81.01 19.59 82.8 19.59 82.8 18.04 81.01 18.04 81.01 16.66 83.08 16.66 83.08 15.06 78.97 15.06"/><polygon points="94.88 15.05 94.88 22.57 99 22.57 99 20.96 96.91 20.96 96.91 19.59 98.7 19.59 98.7 18.03 96.91 18.03 96.91 16.65 98.99 16.65 98.99 15.05 94.88 15.05"/><path d="M70.43,15.05l-1,7.52h1.92l.52-5.18,1.31,5.18h1.37l1.25-5.17.55,5.17h2l-1-7.52H74.75l-.39,1.69c-.1.43-.2.87-.29,1.32l-.22,1.17c-.21-1.17-.5-2.56-.86-4.18Z"/><path d="M61.24,15.05l-1,7.52H62.2l.52-5.18L64,22.57H65.4l1.26-5.17.54,5.17h2l-1-7.52H65.57l-.4,1.69c-.1.43-.2.87-.29,1.32l-.22,1.17c-.26-1.4-.54-2.79-.86-4.18Z"/><path d="M93.11,14.85H93a3.73,3.73,0,0,0-3.73,3.73v.14h0c0,.06,0,.12,0,.19a4,4,0,0,0,1.1,2.74h0A3.78,3.78,0,0,0,93,22.75h.15a3.79,3.79,0,0,0,1.18-.18h0V20.79a3.87,3.87,0,0,1-1,.17h-.07a1.8,1.8,0,0,1-1.33-.59h0a2.61,2.61,0,0,1-.53-1.58,2.57,2.57,0,0,1,.52-1.57h0a1.7,1.7,0,0,1,1.28-.6h0a3.81,3.81,0,0,1,1.13.17h0V15a4.72,4.72,0,0,0-1.16-.15Z"/><path d="M51.89,14.85h-.15A3.74,3.74,0,0,0,48,18.58a.66.66,0,0,0,0,.14h0a1.15,1.15,0,0,0,0,.19,4,4,0,0,0,1.1,2.74h0a3.8,3.8,0,0,0,2.71,1.12H52a3.83,3.83,0,0,0,1.18-.18h0V20.79a3.87,3.87,0,0,1-1,.17H52a1.8,1.8,0,0,1-1.33-.59h0a2.63,2.63,0,0,1,0-3.15h0a1.7,1.7,0,0,1,1.28-.6h0a3.81,3.81,0,0,1,1.13.17h0V15a4.74,4.74,0,0,0-1.17-.15Z"/><path class="cls-2" d="M43.79,12h-22a2.52,2.52,0,0,0-2.51,2.51h0v8.38h0a2.52,2.52,0,0,0,2.52,2.51H32.25L37,28.08l-1.09-2.65h7.88a2.52,2.52,0,0,0,2.52-2.52h0V14.53h0A2.52,2.52,0,0,0,43.79,12ZM30.68,18.86a20.31,20.31,0,0,0-.32,3.62c0,.2,0,.41,0,.61v0s0,.09,0,.15a1.24,1.24,0,0,1-.14.58h0a.69.69,0,0,1-.58.39h0a1.16,1.16,0,0,1-.87-.4h0a10.89,10.89,0,0,1-2.43-4.62v-.08q-1.08,2.12-1.59,3.18c-.65,1.25-1.2,1.89-1.66,1.92-.3,0-.55-.23-.78-.76a45.05,45.05,0,0,1-1.79-8.14l0-.24a.61.61,0,0,1,0-.15,1,1,0,0,1,.2-.59h0a.88.88,0,0,1,.69-.33h0l.16,0a.8.8,0,0,1,.8.8h0c.34,2.3.72,4.26,1.12,5.86L25.86,16a1.07,1.07,0,0,1,.82-.66h0c.48,0,.79.28.91.93a19.42,19.42,0,0,0,1.09,3.91L28.64,20a16.76,16.76,0,0,1,1.51-6.17l0,.1a.86.86,0,0,1,.72-.48h.1a1,1,0,0,1,.6.22h0a.9.9,0,0,1,.34.63h0v.08a1,1,0,0,1-.11.45h0a12.72,12.72,0,0,0-1.06,3.92ZM38,18.21v.05a5.91,5.91,0,0,1-.87,3.09v0A3,3,0,0,1,34.55,23h0a2.89,2.89,0,0,1-.6-.08h0a2.54,2.54,0,0,1-1.76-1.26h0a4.25,4.25,0,0,1-.52-2.06v-.2a5.77,5.77,0,0,1,.87-3.05h0v0a2.94,2.94,0,0,1,2.57-1.64h0a2.35,2.35,0,0,1,.6.07h0A2.57,2.57,0,0,1,37.46,16v0a4.06,4.06,0,0,1,.54,2A.57.57,0,0,1,38,18.21Zm6.92,0v0a5.84,5.84,0,0,1-.88,3.1v0A3,3,0,0,1,41.47,23h0a3,3,0,0,1-.6-.07h0a2.56,2.56,0,0,1-1.75-1.27h0a4.3,4.3,0,0,1-.53-2.07V19.4a5.82,5.82,0,0,1,.87-3.07h0v0A3,3,0,0,1,42,14.69h0a2.35,2.35,0,0,1,.6.07h0A2.54,2.54,0,0,1,44.38,16v0a4.12,4.12,0,0,1,.53,2Z"/></g></g></svg>