<svg xmlns="http://www.w3.org/2000/svg" viewBox="0 0 197.18 51.09"><defs><style>.cls-1{fill:#1d1d1b;}.cls-2{fill:#e94e1b;}</style></defs><g id="Layer_2" data-name="Layer 2"><g id="Layer_1-2" data-name="Layer 1"><path class="cls-1" d="M18.34,30.79l.11-14.31h-.08L13.11,30.79H9.68L4.57,16.48H4.48L4.6,30.79H0V10.57H7l4.59,13h.11l4.4-13h7.08V30.79Z"/><path class="cls-1" d="M32.48,30.79H28.36V16.87h5.7a9.71,9.71,0,0,1,2.34.26,5.14,5.14,0,0,1,1.8.81,4,4,0,0,1,1.18,1.4,4.74,4.74,0,0,1,.42,2,5.29,5.29,0,0,1-.42,2.15A4.08,4.08,0,0,1,38.19,25a5.46,5.46,0,0,1-1.83.89,9.35,9.35,0,0,1-2.35.3H32.48Zm0-7.66h1.21a2.31,2.31,0,0,0,1.44-.43,1.49,1.49,0,0,0,.53-1.26,1.32,1.32,0,0,0-.44-1A2.14,2.14,0,0,0,33.78,20h-1.3Z"/><path class="cls-1" d="M43.3,16.87h4.13V27.33h5.15v3.46H43.3Z"/><path class="cls-1" d="M62.09,31.18a7.64,7.64,0,0,1-2.64-.41,5.31,5.31,0,0,1-2-1.17,5.15,5.15,0,0,1-1.25-1.83,6.18,6.18,0,0,1-.43-2.37V16.87h4.13v8.25a2.65,2.65,0,0,0,.56,1.8,2,2,0,0,0,1.64.66,2.11,2.11,0,0,0,1.67-.66,2.69,2.69,0,0,0,.58-1.79V16.87h4.12V25.4a6.19,6.19,0,0,1-.44,2.37,5.2,5.2,0,0,1-1.27,1.83,5.67,5.67,0,0,1-2,1.16A8.06,8.06,0,0,1,62.09,31.18Z"/><path class="cls-1" d="M80.72,21a5.91,5.91,0,0,0-1.25-.86,3.17,3.17,0,0,0-1.5-.37,2.36,2.36,0,0,0-1.08.26,1,1,0,0,0-.37,1.31,1,1,0,0,0,.4.38,9.65,9.65,0,0,0,1.8.57,10.06,10.06,0,0,1,1.5.48,5.09,5.09,0,0,1,1.34.76,3.68,3.68,0,0,1,1,1.19,3.52,3.52,0,0,1,.37,1.72,4.49,4.49,0,0,1-.48,2.21,4.2,4.2,0,0,1-1.31,1.44,5.62,5.62,0,0,1-1.79.83,8.25,8.25,0,0,1-2,.24,9.07,9.07,0,0,1-3.1-.54A6.48,6.48,0,0,1,71.69,29l2.37-2.67a4.57,4.57,0,0,0,1.44,1.1,3.88,3.88,0,0,0,1.8.43,2.11,2.11,0,0,0,1-.26.94.94,0,0,0,.48-.92,1,1,0,0,0-.62-1,12,12,0,0,0-2-.64,10.64,10.64,0,0,1-1.35-.44,4.44,4.44,0,0,1-1.22-.73,3.49,3.49,0,0,1-.88-1.14,3.67,3.67,0,0,1-.33-1.67A4.19,4.19,0,0,1,72.92,19a4.39,4.39,0,0,1,1.27-1.44A5.25,5.25,0,0,1,76,16.75a6.91,6.91,0,0,1,1.92-.28,8.45,8.45,0,0,1,2.86.51,6.18,6.18,0,0,1,2.36,1.5Z"/><path class="cls-1" d="M99.55,30.79,92,21.48H92v9.31H87.21V10.57H92v8.22h.09l7.21-8.22h6.11L96.7,19.88l9.22,10.91Z"/><path class="cls-1" d="M122.32,30.79l-1.57-4h-7.83l-1.49,4h-5.31l8.49-20.22h4.74l8.39,20.23ZM116.89,16l-2.57,6.94h5.08Z"/><path class="cls-1" d="M141.54,15.82a4.43,4.43,0,0,0-1.64-1.27,4.61,4.61,0,0,0-2-.48,6.37,6.37,0,0,0-1,.08,2.56,2.56,0,0,0-.9.33,2.13,2.13,0,0,0-.67.63,1.66,1.66,0,0,0-.28,1,1.62,1.62,0,0,0,.22.86,1.9,1.9,0,0,0,.63.6,5.74,5.74,0,0,0,1,.48c.38.14.81.29,1.28.44.69.23,1.4.48,2.15.76a8.32,8.32,0,0,1,2,1.1,5.85,5.85,0,0,1,1.51,1.7,5,5,0,0,1,.6,2.53,6.79,6.79,0,0,1-.64,3,6.06,6.06,0,0,1-1.73,2.1,7.53,7.53,0,0,1-2.49,1.23,10.82,10.82,0,0,1-2.88.4,12,12,0,0,1-4.2-.76,9,9,0,0,1-3.37-2.16l3.2-3.25a5.93,5.93,0,0,0,2,1.52,5.16,5.16,0,0,0,2.4.62,4.72,4.72,0,0,0,1.06-.12,2.52,2.52,0,0,0,.9-.37,1.81,1.81,0,0,0,.61-.68,2.19,2.19,0,0,0,.23-1,1.64,1.64,0,0,0-.28-1,2.73,2.73,0,0,0-.82-.73,6.21,6.21,0,0,0-1.31-.6l-1.79-.59a15.23,15.23,0,0,1-1.9-.74,6.51,6.51,0,0,1-1.65-1.1,5,5,0,0,1-1.18-1.63,5.6,5.6,0,0,1-.44-2.32,5.71,5.71,0,0,1,.69-2.89,5.83,5.83,0,0,1,1.81-2,7.49,7.49,0,0,1,2.51-1.13,11.2,11.2,0,0,1,2.83-.36,10.5,10.5,0,0,1,3.5.63,9,9,0,0,1,3.13,1.86Z"/><path class="cls-1" d="M159.85,15.82a4.43,4.43,0,0,0-1.64-1.27,4.61,4.61,0,0,0-2-.48,6.37,6.37,0,0,0-1,.08,2.69,2.69,0,0,0-.91.33,2.2,2.2,0,0,0-.66.63,1.66,1.66,0,0,0-.28,1,1.62,1.62,0,0,0,.22.86,1.81,1.81,0,0,0,.63.6,5.93,5.93,0,0,0,1,.48c.38.14.81.29,1.29.44.68.23,1.4.48,2.14.76a8.14,8.14,0,0,1,2,1.1,5.85,5.85,0,0,1,1.51,1.7,4.85,4.85,0,0,1,.6,2.53,6.53,6.53,0,0,1-.64,3,6.06,6.06,0,0,1-1.73,2.1A7.44,7.44,0,0,1,158,30.88a10.71,10.71,0,0,1-2.88.4,12,12,0,0,1-4.2-.76,9,9,0,0,1-3.37-2.16l3.21-3.25a5.79,5.79,0,0,0,1.95,1.52,5.2,5.2,0,0,0,2.41.62,4.63,4.63,0,0,0,1-.12,2.45,2.45,0,0,0,.9-.37,1.81,1.81,0,0,0,.63-.66,2.16,2.16,0,0,0,.23-1,1.64,1.64,0,0,0-.29-1,2.83,2.83,0,0,0-.81-.73,7.51,7.51,0,0,0-1.32-.6c-.52-.18-1.12-.37-1.78-.58a18.56,18.56,0,0,1-1.92-.74,6.39,6.39,0,0,1-1.66-1.1,5.25,5.25,0,0,1-1.17-1.63,5.36,5.36,0,0,1-.41-2.34,5.68,5.68,0,0,1,.69-2.88,5.83,5.83,0,0,1,1.79-2,7.63,7.63,0,0,1,2.52-1.13,11.18,11.18,0,0,1,2.82-.36,10.41,10.41,0,0,1,3.5.63,8.85,8.85,0,0,1,3.1,1.86Z"/><path class="cls-1" d="M181.19,30.79l-1.58-4h-7.82l-1.49,4H165l8.49-20.22h4.74l8.39,20.23ZM175.76,16l-2.57,6.94h5.08Z"/><path class="cls-2" d="M197.18,10.57H186.6V0h7.16a3.41,3.41,0,0,1,3.41,3.4Zm-8.09-2.48h5.61V3.4a.92.92,0,0,0-.93-.92h-4.68Z"/><path d="M3.29,48.18.54,38.59h1l2.38,8.29,2.49-8.29H7.55l2.5,8.3,2.36-8.3h1l-2.74,9.59H9.49L7,39.85l-2.5,8.33Z"/><path d="M17.14,41.16a3.11,3.11,0,0,1,2.46,1.08,3.72,3.72,0,0,1,.94,2.54c0,.1,0,.24,0,.43h-6a2.51,2.51,0,0,0,.89,1.65,2.8,2.8,0,0,0,1.84.61,2.75,2.75,0,0,0,1.35-.32,2.2,2.2,0,0,0,.86-.85l.79.47A3.24,3.24,0,0,1,19,47.92a3.69,3.69,0,0,1-1.78.43,3.53,3.53,0,0,1-2.63-1,3.46,3.46,0,0,1-1-2.57,3.57,3.57,0,0,1,1-2.57A3.47,3.47,0,0,1,17.14,41.16Zm0,.88a2.58,2.58,0,0,0-2.65,2.29h5.12a2.57,2.57,0,0,0-.84-1.69A2.42,2.42,0,0,0,17.14,42Z"/><path d="M25.41,48.18v-10h.9v10Z"/><path d="M34,47.31a3.66,3.66,0,0,1-5.11,0,3.63,3.63,0,0,1,0-5.11,3.66,3.66,0,0,1,5.11,0,3.63,3.63,0,0,1,0,5.11Zm-4.47-.63a2.72,2.72,0,0,0,3.83,0,2.77,2.77,0,0,0,0-3.85,2.72,2.72,0,0,0-3.83,3.85Z"/><path d="M41.2,41.33h1l-2.81,6.85h-1.1l-2.81-6.85h1l2.4,5.89Z"/><path d="M46.15,41.16a3.11,3.11,0,0,1,2.46,1.08,3.77,3.77,0,0,1,.94,2.54c0,.1,0,.24,0,.43h-6a2.49,2.49,0,0,0,.88,1.65,2.82,2.82,0,0,0,1.85.61,2.75,2.75,0,0,0,1.35-.32,2.17,2.17,0,0,0,.85-.85l.8.47A3.24,3.24,0,0,1,48,47.92a3.73,3.73,0,0,1-1.79.43,3.56,3.56,0,0,1-2.63-1,3.49,3.49,0,0,1-1-2.57,3.53,3.53,0,0,1,1-2.57A3.46,3.46,0,0,1,46.15,41.16Zm0,.88a2.58,2.58,0,0,0-2.65,2.29h5.11a2.6,2.6,0,0,0-.83-1.69A2.43,2.43,0,0,0,46.15,42Z"/><path d="M61.72,41.16a2.48,2.48,0,0,1,1.86.74,2.8,2.8,0,0,1,.7,2v4.27h-.9V43.91a2,2,0,0,0-.46-1.38A1.58,1.58,0,0,0,61.7,42a1.78,1.78,0,0,0-1.37.57,2.5,2.5,0,0,0-.53,1.77v3.8h-.91V43.91a2,2,0,0,0-.43-1.39A1.5,1.5,0,0,0,57.29,42a1.89,1.89,0,0,0-1.4.58,2.4,2.4,0,0,0-.57,1.76v3.8h-.91V41.33h.91v1a2.34,2.34,0,0,1,2.09-1.17,2.15,2.15,0,0,1,2.09,1.25A2.42,2.42,0,0,1,61.72,41.16Z"/><path d="M71.93,41.33h.9v6.85h-.9V46.84a3.08,3.08,0,0,1-2.77,1.51,3.38,3.38,0,0,1-2.5-1.05,3.63,3.63,0,0,1,0-5.09,3.38,3.38,0,0,1,2.5-1.05,3.08,3.08,0,0,1,2.77,1.51Zm-4.62,5.35a2.73,2.73,0,0,0,3.84,0,2.77,2.77,0,0,0,0-3.85,2.73,2.73,0,0,0-3.84,0,2.77,2.77,0,0,0,0,3.85Z"/><path d="M80.29,48.18h-1.2l-3.43-3.3v3.3h-.91V38.59h.91v5.77l3.26-3h1.23l-3.53,3.29Z"/><path d="M82.44,39.68a.61.61,0,0,1-.46.2.63.63,0,0,1-.47-.2.6.6,0,0,1-.19-.46.65.65,0,0,1,.66-.66.6.6,0,0,1,.46.19.63.63,0,0,1,.2.47A.61.61,0,0,1,82.44,39.68Zm-.92,8.5V41.33h.91v6.85Z"/><path d="M87.56,41.16a2.59,2.59,0,0,1,2,.76,2.86,2.86,0,0,1,.72,2v4.21h-.9V44a2,2,0,0,0-.49-1.42A1.8,1.8,0,0,0,87.47,42a2.18,2.18,0,0,0-1.6.62,2.66,2.66,0,0,0-.62,1.93v3.59h-.9V41.33h.9V42.4A2.54,2.54,0,0,1,87.56,41.16Z"/><path d="M97.89,41.33h.91v6.58a2.88,2.88,0,0,1-1,2.33,3.66,3.66,0,0,1-2.42.85,3.28,3.28,0,0,1-3.25-1.67L92.9,49a2.47,2.47,0,0,0,2.46,1.25,2.65,2.65,0,0,0,1.85-.62,2.16,2.16,0,0,0,.68-1.68V46.84a3.08,3.08,0,0,1-2.77,1.51,3.39,3.39,0,0,1-2.5-1.05,3.66,3.66,0,0,1,0-5.09,3.39,3.39,0,0,1,2.5-1.05,3.08,3.08,0,0,1,2.77,1.51Zm-4.62,5.35a2.73,2.73,0,0,0,3.84,0,2.77,2.77,0,0,0,0-3.85,2.73,2.73,0,0,0-3.84,0,2.77,2.77,0,0,0,0,3.85Z"/><path d="M107.82,41.16a3.39,3.39,0,0,1,2.5,1.05,3.66,3.66,0,0,1,0,5.09,3.39,3.39,0,0,1-2.5,1.05,3.08,3.08,0,0,1-2.77-1.51v4.08h-.91V41.33h.91v1.34A3.08,3.08,0,0,1,107.82,41.16Zm-2,5.52a2.73,2.73,0,0,0,3.84,0,2.77,2.77,0,0,0,0-3.85,2.73,2.73,0,0,0-3.84,0,2.77,2.77,0,0,0,0,3.85Z"/><path d="M118.61,47.31a3.66,3.66,0,0,1-5.11,0,3.63,3.63,0,0,1,0-5.11,3.66,3.66,0,0,1,5.11,0,3.63,3.63,0,0,1,0,5.11Zm-4.47-.63a2.72,2.72,0,0,0,3.83,0,2.77,2.77,0,0,0,0-3.85,2.72,2.72,0,0,0-3.83,3.85Z"/><path d="M122.08,39.68a.61.61,0,0,1-.46.2.65.65,0,0,1-.47-.2.6.6,0,0,1-.19-.46.63.63,0,0,1,.19-.47.64.64,0,0,1,.47-.19.6.6,0,0,1,.46.19.63.63,0,0,1,.2.47A.61.61,0,0,1,122.08,39.68Zm-.91,8.5V41.33h.9v6.85Z"/><path d="M127.2,41.16a2.61,2.61,0,0,1,2,.76,2.86,2.86,0,0,1,.72,2v4.21H129V44a2,2,0,0,0-.49-1.42,1.8,1.8,0,0,0-1.37-.51,2.19,2.19,0,0,0-1.61.62,2.66,2.66,0,0,0-.61,1.93v3.59H124V41.33h.91V42.4A2.51,2.51,0,0,1,127.2,41.16Z"/><path d="M135.27,42.21h-2v4.15a1.16,1.16,0,0,0,.22.8.87.87,0,0,0,.66.25c.29,0,.65,0,1.09,0v.79a3.34,3.34,0,0,1-2.16-.2,1.74,1.74,0,0,1-.72-1.62V42.21H131v-.88h1.44V39.68l.91-.27v1.92h2Z"/><path d="M137.08,43.11a.82.82,0,0,0,.42.72,3.68,3.68,0,0,0,1,.44l1.18.34a2,2,0,0,1,1,.61,1.63,1.63,0,0,1,.4,1.15,1.74,1.74,0,0,1-.69,1.43,2.83,2.83,0,0,1-1.79.55,3.14,3.14,0,0,1-1.68-.44,2.3,2.3,0,0,1-1-1.14l.77-.45a1.53,1.53,0,0,0,.69.84,2.45,2.45,0,0,0,2.31,0,.89.89,0,0,0,.45-.83.87.87,0,0,0-.41-.74,3.68,3.68,0,0,0-1-.44l-1.18-.34a2.14,2.14,0,0,1-1-.6,1.53,1.53,0,0,1-.41-1.13,1.75,1.75,0,0,1,.66-1.39,2.5,2.5,0,0,1,1.68-.57,2.82,2.82,0,0,1,1.47.38,2.29,2.29,0,0,1,.93,1l-.75.44a1.61,1.61,0,0,0-1.65-1,1.76,1.76,0,0,0-1,.28A.87.87,0,0,0,137.08,43.11Z"/><path d="M151.77,47.31a3.66,3.66,0,0,1-5.11,0,3.63,3.63,0,0,1,0-5.11,3.66,3.66,0,0,1,5.11,0,3.63,3.63,0,0,1,0,5.11Zm-4.48-.63a2.73,2.73,0,0,0,3.84,0,2.77,2.77,0,0,0,0-3.85,2.73,2.73,0,0,0-3.84,0,2.77,2.77,0,0,0,0,3.85Z"/><path d="M157.48,39.3a2,2,0,0,0-1.49.34,1.82,1.82,0,0,0-.49,1.41v.28h2v.88h-2v6h-.9v-6h-1.17v-.88h1.17v-.28a2.63,2.63,0,0,1,.75-2,2.74,2.74,0,0,1,2.13-.6Z"/><path d="M162.58,43.11a.83.83,0,0,0,.41.72,3.75,3.75,0,0,0,1,.44l1.18.34a2.12,2.12,0,0,1,1,.61,1.63,1.63,0,0,1,.4,1.15,1.74,1.74,0,0,1-.69,1.43,2.83,2.83,0,0,1-1.79.55,3.09,3.09,0,0,1-1.68-.44,2.38,2.38,0,0,1-1-1.14l.77-.45a1.62,1.62,0,0,0,.69.84,2.2,2.2,0,0,0,1.19.31,2.14,2.14,0,0,0,1.12-.27.9.9,0,0,0,.46-.83.85.85,0,0,0-.42-.74,3.43,3.43,0,0,0-1-.44l-1.17-.34a2.17,2.17,0,0,1-1-.6,1.57,1.57,0,0,1-.41-1.13,1.76,1.76,0,0,1,.67-1.39,2.48,2.48,0,0,1,1.68-.57,2.81,2.81,0,0,1,1.46.38,2.37,2.37,0,0,1,.94,1l-.76.44A1.59,1.59,0,0,0,164,42a1.79,1.79,0,0,0-1,.28A.88.88,0,0,0,162.58,43.11Z"/><path d="M173.78,41.33h.9v6.85h-.9V46.84A3.09,3.09,0,0,1,171,48.35a3.38,3.38,0,0,1-2.5-1.05,3.63,3.63,0,0,1,0-5.09,3.38,3.38,0,0,1,2.5-1.05,3.09,3.09,0,0,1,2.77,1.51Zm-4.62,5.35a2.73,2.73,0,0,0,3.84,0,2.77,2.77,0,0,0,0-3.85,2.73,2.73,0,0,0-3.84,0,2.77,2.77,0,0,0,0,3.85Z"/><path d="M176.6,48.18v-10h.91v10Z"/><path d="M182.59,41.16a3.1,3.1,0,0,1,2.46,1.08,3.72,3.72,0,0,1,.94,2.54c0,.1,0,.24,0,.43h-6a2.45,2.45,0,0,0,.88,1.65,2.8,2.8,0,0,0,1.84.61,2.75,2.75,0,0,0,1.35-.32,2.2,2.2,0,0,0,.86-.85l.79.47a3.24,3.24,0,0,1-1.23,1.15,3.69,3.69,0,0,1-1.78.43,3.53,3.53,0,0,1-2.63-1,3.46,3.46,0,0,1-1-2.57,3.57,3.57,0,0,1,1-2.57A3.47,3.47,0,0,1,182.59,41.16Zm0,.88a2.59,2.59,0,0,0-1.79.64,2.55,2.55,0,0,0-.85,1.65h5.11a2.57,2.57,0,0,0-.84-1.69A2.42,2.42,0,0,0,182.59,42Z"/></g></g></svg>