<svg xmlns="http://www.w3.org/2000/svg" viewBox="0 0 80.23 15.79"><defs><style>.cls-1{fill:#2f80ec;}</style></defs><g id="Layer_2" data-name="Layer 2"><g id="Layer_1-2" data-name="Layer 1"><path class="cls-1" d="M2.88,15.79A2.89,2.89,0,0,1,0,12.92V11.27H2.24V13a.52.52,0,0,0,.52.53h2A.53.53,0,0,0,5.23,13V9.38a.53.53,0,0,0-.52-.53H2.88A2.89,2.89,0,0,1,0,6V2.87A2.89,2.89,0,0,1,2.88,0H4.59A2.89,2.89,0,0,1,7.47,2.87V4.51H5.23V2.77a.52.52,0,0,0-.52-.52H2.76a.53.53,0,0,0-.52.52V6.08a.52.52,0,0,0,.52.52H4.59A2.89,2.89,0,0,1,7.47,9.47v3.45a2.89,2.89,0,0,1-2.88,2.87Z"/><path class="cls-1" d="M15.7,15.79H13.34l-.51-3.39H10.7l-.51,3.39H7.83L10.2,0h3.13ZM11,10.16h1.46l-.73-4.85Z"/><path class="cls-1" d="M16.8,15.79V0H19V15.79Z"/><path class="cls-1" d="M22.38,0V13.55h4.55v2.24H20.14V0Z"/><path class="cls-1" d="M28.91,0l1.57,10.49.73-4.81h2.18l.72,4.81L35.69,0h2.36L35.67,15.79H32.89L32.3,9.72l-.6,6.07H28.92L26.55,0Z"/><path class="cls-1" d="M39.13,15.79V0h2.24V15.79Z"/><path class="cls-1" d="M43.26,2.24V0h6.87L45.59,13.55h3.74v2.24H42.47L47,2.24Z"/><path class="cls-1" d="M51.22,15.79V13.55h2.23v2.24Z"/><path class="cls-1" d="M57.3,13.54h1.94a.53.53,0,0,0,.53-.53V11.27H62v1.65a2.88,2.88,0,0,1-2.88,2.87h-1.7a2.88,2.88,0,0,1-2.88-2.87v-10A2.88,2.88,0,0,1,57.42,0h1.7A2.88,2.88,0,0,1,62,2.87V4.49H59.77V2.77a.53.53,0,0,0-.53-.52H57.3a.53.53,0,0,0-.53.52V13A.53.53,0,0,0,57.3,13.54Z"/><path class="cls-1" d="M65.76,0h1.71a2.89,2.89,0,0,1,2.88,2.87V12.92a2.89,2.89,0,0,1-2.88,2.87H65.76a2.89,2.89,0,0,1-2.88-2.87v-10A2.89,2.89,0,0,1,65.76,0Zm-.12,13.54h2a.52.52,0,0,0,.52-.53V2.77a.52.52,0,0,0-.52-.52h-2a.53.53,0,0,0-.52.52V13A.53.53,0,0,0,65.64,13.54Z"/><path class="cls-1" d="M73.22,0l2.62,4.53L78.47,0h1.76V15.79H78V5.28L75.84,9,73.69,5.28V15.79H71.45V0Z"/></g></g></svg>