<svg xmlns="http://www.w3.org/2000/svg" viewBox="0 0 229.64 68.2"><g id="Layer_2" data-name="Layer 2"><g id="Layer_1-2" data-name="Layer 1"><path d="M61.43,29.86h5.95v.32a5.3,5.3,0,0,0,1.81,4.2A7.16,7.16,0,0,0,74.07,36a7.64,7.64,0,0,0,5.37-1.74,6.45,6.45,0,0,0,1.9-5,6.56,6.56,0,0,0-2-5.16q-2-1.74-5.81-1.74l-.58,0-.6,0v-5l.56,0,.56,0A7.86,7.86,0,0,0,78.64,16a5.14,5.14,0,0,0,1.73-4.2,5.06,5.06,0,0,0-1.56-3.9,5.82,5.82,0,0,0-4.16-1.45,6.59,6.59,0,0,0-4.38,1.34,4.93,4.93,0,0,0-1.66,3.78H63a10.08,10.08,0,0,1,3.31-7.5q3.06-2.61,8.49-2.61,5.25,0,8.33,2.74A9.47,9.47,0,0,1,86.2,11.6a9.23,9.23,0,0,1-1.74,5.79,7.25,7.25,0,0,1-4.82,2.73,8.43,8.43,0,0,1,5.52,3.18A10.91,10.91,0,0,1,87.06,30a10,10,0,0,1-3.57,8.08q-3.57,3-9.65,3A12.76,12.76,0,0,1,65,38.05,11,11,0,0,1,61.43,29.86Z"/><path d="M102.74,16.85a13.94,13.94,0,0,1,2.52-.91,10,10,0,0,1,2.47-.32,11.16,11.16,0,0,1,8.44,3.48A12.34,12.34,0,0,1,119.49,28a12.64,12.64,0,0,1-3.73,9.51A13.52,13.52,0,0,1,106,41.1a12.27,12.27,0,0,1-9.16-3.53,12.7,12.7,0,0,1-3.46-9.28q0-6.13,8.36-17.89l.68-.92L109.06,0l4.76,2.4Zm-3.48,11.5a7.86,7.86,0,0,0,1.91,5.51A6.39,6.39,0,0,0,106.11,36a7.11,7.11,0,0,0,5.38-2,7.67,7.67,0,0,0,2-5.56,7.79,7.79,0,0,0-1.93-5.61,7.06,7.06,0,0,0-5.36-2,6.41,6.41,0,0,0-5,2.11A7.9,7.9,0,0,0,99.26,28.35Z"/><path d="M151.7,21.66q0,9.12-3.67,14.28a12.44,12.44,0,0,1-20.22-.06q-3.61-5.21-3.62-14.64t3.66-14.58A11.73,11.73,0,0,1,138,1.44a11.53,11.53,0,0,1,10.14,5.23Q151.71,11.92,151.7,21.66ZM137.83,35.74a6.16,6.16,0,0,0,5.74-3.64q1.92-3.64,1.92-10.91,0-7.05-1.9-10.75t-5.52-3.7a6.17,6.17,0,0,0-5.73,3.68q-1.93,3.69-1.93,10.87,0,7,1.92,10.71C133.61,34.5,135.44,35.74,137.83,35.74Z"/><path d="M162,1.93a7.38,7.38,0,0,1,5.43,2.28,7.45,7.45,0,0,1,2.28,5.48,7.42,7.42,0,0,1-2.28,5.44A7.47,7.47,0,0,1,162,17.4a7.36,7.36,0,0,1-5.44-2.23,7.48,7.48,0,0,1-2.22-5.48,7.5,7.5,0,0,1,2.25-5.51A7.43,7.43,0,0,1,162,1.93Zm0,2.9a4.76,4.76,0,0,0-3.45,1.41,4.63,4.63,0,0,0-1.43,3.41,4.88,4.88,0,0,0,4.88,4.85,4.62,4.62,0,0,0,3.43-1.42,4.7,4.7,0,0,0,1.41-3.43,4.65,4.65,0,0,0-1.41-3.41A4.65,4.65,0,0,0,162.05,4.83Z"/><path d="M0,67.67V47.54H3.27v17.2h7.32v2.93Z"/><path d="M12.25,49a1.76,1.76,0,0,1,.56-1.3,1.82,1.82,0,0,1,1.33-.55A1.81,1.81,0,0,1,16,49a1.82,1.82,0,0,1-.53,1.34,1.77,1.77,0,0,1-1.32.55A1.91,1.91,0,0,1,12.25,49Zm.4,18.68v-13h3v13Z"/><path d="M29.16,58.34a4.67,4.67,0,0,0-1.61-1.15,4.79,4.79,0,0,0-2-.4A3.81,3.81,0,0,0,22.65,58a5.09,5.09,0,0,0,0,6.33,4,4,0,0,0,3.06,1.17,4.49,4.49,0,0,0,1.94-.41,4.16,4.16,0,0,0,1.5-1.23v3.44a7.18,7.18,0,0,1-1.77.7,8.63,8.63,0,0,1-2,.23,6.73,6.73,0,0,1-5-2,6.88,6.88,0,0,1-1.93-5.06,6.76,6.76,0,0,1,2-5.08,7.2,7.2,0,0,1,5.23-1.93,7.83,7.83,0,0,1,1.87.2,6,6,0,0,1,1.6.61Z"/><path d="M31.73,67.67V46.35h2.81V56.76a5.5,5.5,0,0,1,2.1-2,6.32,6.32,0,0,1,2.94-.62,6,6,0,0,1,2.48.46A3.54,3.54,0,0,1,43.67,56a3.8,3.8,0,0,1,.49,1.25,14,14,0,0,1,.15,2.5v7.91h-3V61a6.3,6.3,0,0,0-.63-3.42,2.58,2.58,0,0,0-2.22-.84,4.45,4.45,0,0,0-1.86.38,3.14,3.14,0,0,0-1.29,1.09,3,3,0,0,0-.46,1.2,15.87,15.87,0,0,0-.13,2.35v5.94Z"/><path d="M48.51,67.67V57.24H46.23V54.63h2.28V49.69h3v4.94h2.28v2.61H51.49V67.67Z"/><path d="M55.87,67.67V46.35h3V60l5.46-5.4H68l-5.92,5.75,6.48,7.29H64.71l-5.86-6.73v6.73Z"/><path d="M72.81,54.63V62a3.91,3.91,0,0,0,.78,2.73,4.36,4.36,0,0,0,5.09,0A3.9,3.9,0,0,0,79.47,62V54.63h3v6.45q0,3.73-1.5,5.43T76.17,68.2c-2.23,0-3.85-.56-4.84-1.68s-1.5-2.93-1.5-5.44V54.63Z"/><path d="M86,67.67v-13h2.8v2.13a5.59,5.59,0,0,1,2.11-2,6.29,6.29,0,0,1,2.94-.62,6,6,0,0,1,2.48.46A3.47,3.47,0,0,1,97.93,56a3.6,3.6,0,0,1,.5,1.25,14,14,0,0,1,.15,2.5v7.91h-3V61a6.3,6.3,0,0,0-.63-3.42,2.58,2.58,0,0,0-2.22-.84,4.45,4.45,0,0,0-1.86.38,3.14,3.14,0,0,0-1.29,1.09,3,3,0,0,0-.46,1.2A15.87,15.87,0,0,0,89,61.73v5.94Z"/><path d="M100.58,65.3,103.05,64a2.65,2.65,0,0,0,1,1.49A3.31,3.31,0,0,0,106,66a2.5,2.5,0,0,0,1.58-.46,1.54,1.54,0,0,0,.57-1.26c0-.71-.68-1.31-2-1.82-.46-.16-.81-.3-1.06-.41a8.58,8.58,0,0,1-2.92-1.76,3.08,3.08,0,0,1-.83-2.17,3.41,3.41,0,0,1,1.37-2.83,5.62,5.62,0,0,1,3.62-1.09,5.47,5.47,0,0,1,2.59.56,3.45,3.45,0,0,1,1.58,1.58l-2.12,1.46a2,2,0,0,0-.82-1,2.53,2.53,0,0,0-1.35-.37,2.15,2.15,0,0,0-1.37.41,1.29,1.29,0,0,0-.52,1.08q0,1,2.31,1.86c.49.17.86.31,1.13.42a6.66,6.66,0,0,1,2.58,1.62,3.31,3.31,0,0,1,.78,2.25,3.69,3.69,0,0,1-1.42,3.06,6.27,6.27,0,0,1-3.91,1.1,6.44,6.44,0,0,1-3.17-.71A4.82,4.82,0,0,1,100.58,65.3Z"/><path d="M114.29,67.67V57.24H112V54.63h2.28V49.69h3v4.94h2.29v2.61h-2.29V67.67Z"/><path d="M129.41,49a1.75,1.75,0,0,1,.55-1.3,1.82,1.82,0,0,1,1.33-.55A1.81,1.81,0,0,1,133.15,49a1.82,1.82,0,0,1-.54,1.34,1.77,1.77,0,0,1-1.32.55,1.83,1.83,0,0,1-1.33-.56A1.8,1.8,0,0,1,129.41,49Zm.39,18.68v-13h3v13Z"/><path d="M136.57,67.67v-13h2.81v2.13a5.5,5.5,0,0,1,2.1-2,6.32,6.32,0,0,1,2.94-.62,6,6,0,0,1,2.49.46A3.57,3.57,0,0,1,149,57.26a14,14,0,0,1,.15,2.5v7.91h-3V61a6.42,6.42,0,0,0-.62-3.42,2.61,2.61,0,0,0-2.22-.84,4.46,4.46,0,0,0-1.87.38,3.11,3.11,0,0,0-1.28,1.09,2.84,2.84,0,0,0-.46,1.2,14.58,14.58,0,0,0-.13,2.35v5.94Z"/><path d="M160.92,67.67V47.54h11.23v2.77h-8v5h8v2.87h-8v6.51h8v2.93Z"/><path d="M174.92,49a1.75,1.75,0,0,1,.55-1.3,1.84,1.84,0,0,1,1.33-.55A1.81,1.81,0,0,1,178.66,49a1.82,1.82,0,0,1-.54,1.34,1.77,1.77,0,0,1-1.32.55,1.85,1.85,0,0,1-1.33-.56A1.8,1.8,0,0,1,174.92,49Zm.4,18.68v-13h3v13Z"/><path d="M191.82,58.34a4.64,4.64,0,0,0-1.6-1.15,4.83,4.83,0,0,0-2-.4A3.81,3.81,0,0,0,185.31,58a5.09,5.09,0,0,0,0,6.33,4,4,0,0,0,3.06,1.17,4.49,4.49,0,0,0,1.94-.41,4.16,4.16,0,0,0,1.5-1.23v3.44a7.18,7.18,0,0,1-1.77.7,8.57,8.57,0,0,1-2,.23,6.74,6.74,0,0,1-5-2,6.88,6.88,0,0,1-1.93-5.06,6.76,6.76,0,0,1,2-5.08,7.22,7.22,0,0,1,5.23-1.93,7.77,7.77,0,0,1,1.87.2,6,6,0,0,1,1.6.61Z"/><path d="M194.39,67.67V46.35h2.81V56.76a5.57,5.57,0,0,1,2.1-2,6.32,6.32,0,0,1,2.94-.62,6,6,0,0,1,2.49.46,3.57,3.57,0,0,1,2.09,2.62,14,14,0,0,1,.15,2.5v7.91h-3V61a6.42,6.42,0,0,0-.62-3.42,2.61,2.61,0,0,0-2.22-.84,4.46,4.46,0,0,0-1.87.38A3.11,3.11,0,0,0,198,58.18a2.84,2.84,0,0,0-.46,1.2,14.58,14.58,0,0,0-.13,2.35v5.94Z"/><path d="M223,61.59H212.6a4.34,4.34,0,0,0,1.09,2.85,3.43,3.43,0,0,0,2.6,1,4.45,4.45,0,0,0,2.4-.61,5,5,0,0,0,1.68-2l2.52,1.4a7.62,7.62,0,0,1-2.73,2.93,7.32,7.32,0,0,1-3.8,1,6.62,6.62,0,0,1-5-1.91,7,7,0,0,1-1.85-5.1,6.94,6.94,0,0,1,1.92-5,7.35,7.35,0,0,1,9.83-.17A6.88,6.88,0,0,1,223,61Zm-3.09-2a3.2,3.2,0,0,0-1.07-2.14,4.39,4.39,0,0,0-4.82,0,3.9,3.9,0,0,0-1.25,2.16Z"/><path d="M226,66.14a1.77,1.77,0,0,1,.52-1.29,1.79,1.79,0,0,1,2.56,0,1.77,1.77,0,0,1,.52,1.29,1.71,1.71,0,0,1-.52,1.26,1.86,1.86,0,0,1-2.56,0A1.71,1.71,0,0,1,226,66.14Z"/></g></g></svg>