<svg xmlns="http://www.w3.org/2000/svg" viewBox="0 0 229.72 34.31"><g id="Layer_2" data-name="Layer 2"><g id="Layer_1-2" data-name="Layer 1"><path d="M6.34,1.89H1.2V.66H8.62l-6.29,10h6v1.27H0Z"/><path d="M11,8.6v.11a2.31,2.31,0,0,0,2.33,2.52A2.57,2.57,0,0,0,15.57,9.7l.91.62a3.5,3.5,0,0,1-3.26,1.92,3.53,3.53,0,0,1-3.6-3.85,3.51,3.51,0,0,1,3.52-3.77c2.07,0,3.39,1.41,3.39,3.74V8.6Zm2.14-2.92A2.06,2.06,0,0,0,11,7.62h4.29A1.94,1.94,0,0,0,13.09,5.68Z"/><path d="M19,.62a.89.89,0,0,1,.88.89.87.87,0,0,1-.88.87A.88.88,0,1,1,19,.62Zm-.6,4.27h1.2v7.05h-1.2Z"/><path d="M21.06,5.89v-1h1.29V2.05h1.2V4.89h1.32v1H23.55v6.05h-1.2v-6Z"/><path d="M26.31,0h1.2V11.94h-1.2Z"/><path d="M30.61,5.74a3.88,3.88,0,0,1,5.43,0,3.77,3.77,0,0,1,0,5.36,3.9,3.9,0,0,1-2.71,1.12,3.79,3.79,0,0,1-2.72-1.12,3.69,3.69,0,0,1-1.12-2.68A3.73,3.73,0,0,1,30.61,5.74Zm2.72,5.37a2.59,2.59,0,0,0,2.54-2.67,2.55,2.55,0,1,0-5.1,0A2.6,2.6,0,0,0,33.33,11.11Z"/><path d="M39.32,10.07a1.91,1.91,0,0,0,1.8,1.12c.8,0,1.32-.45,1.32-1.06s-.36-.82-1.1-1.07c-1.74-.6-2.78-.9-2.78-2.29a2.23,2.23,0,0,1,2.49-2.13A2.52,2.52,0,0,1,43.56,6l-1,.6a1.66,1.66,0,0,0-1.6-1,1.09,1.09,0,0,0-1.2,1.06c0,.74.64.84,1.81,1.21,1.37.45,2,.95,2,2.1a2.3,2.3,0,0,1-2.57,2.24,2.92,2.92,0,0,1-2.78-1.48Z"/><path d="M46.16,8.6v.11a2.31,2.31,0,0,0,2.34,2.52A2.58,2.58,0,0,0,50.79,9.7l.91.62a3.65,3.65,0,0,1-6.86-1.93,3.51,3.51,0,0,1,3.52-3.77c2.06,0,3.39,1.41,3.39,3.74V8.6Zm2.15-2.92a2.07,2.07,0,0,0-2.15,1.94h4.3A1.94,1.94,0,0,0,48.31,5.68Z"/><path d="M53.84,10.07a1.92,1.92,0,0,0,1.8,1.12c.81,0,1.33-.45,1.33-1.06s-.36-.82-1.11-1.07c-1.73-.6-2.77-.9-2.77-2.29a2.22,2.22,0,0,1,2.49-2.13A2.53,2.53,0,0,1,58.09,6l-1,.6a1.68,1.68,0,0,0-1.61-1,1.09,1.09,0,0,0-1.2,1.06c0,.74.65.84,1.82,1.21,1.37.45,2.05.95,2.05,2.1a2.3,2.3,0,0,1-2.57,2.24,2.91,2.91,0,0,1-2.78-1.48Z"/><path d="M64.76.66h2.16C69,.66,70.66.66,72,1.72a5.48,5.48,0,0,1,2,4.59,5.47,5.47,0,0,1-2,4.58c-1.31,1-2.79,1-4.62,1H64.76Zm2.21,10c1.92,0,3.26,0,4.21-.8A4.45,4.45,0,0,0,72.6,6.3a4.4,4.4,0,0,0-1.42-3.57c-.93-.79-2.27-.82-4.21-.82H66.1v8.77Z"/><path d="M76.78,8.6v.11a2.31,2.31,0,0,0,2.33,2.52A2.57,2.57,0,0,0,81.4,9.7l.92.62a3.66,3.66,0,0,1-6.87-1.93A3.51,3.51,0,0,1,79,4.62C81,4.62,82.36,6,82.36,8.36V8.6Zm2.14-2.92a2.06,2.06,0,0,0-2.14,1.94h4.29A1.94,1.94,0,0,0,78.92,5.68Z"/><path d="M84.46,10.07a1.91,1.91,0,0,0,1.8,1.12c.8,0,1.32-.45,1.32-1.06s-.36-.82-1.1-1.07c-1.74-.6-2.78-.9-2.78-2.29a2.22,2.22,0,0,1,2.49-2.13A2.52,2.52,0,0,1,88.7,6l-1,.6a1.67,1.67,0,0,0-1.61-1,1.08,1.08,0,0,0-1.19,1.06c0,.74.64.84,1.81,1.21,1.37.45,2,.95,2,2.1a2.3,2.3,0,0,1-2.57,2.24,2.91,2.91,0,0,1-2.78-1.48Z"/><path d="M91.26.62a.89.89,0,0,1,.88.89.87.87,0,0,1-.88.87.88.88,0,1,1,0-1.76Zm-.6,4.27h1.2v7.05h-1.2Z"/><path d="M101,11.82a3.22,3.22,0,0,1-.69,2.49,3.65,3.65,0,0,1-2.84,1.07c-2.16,0-3.39-1-3.44-2.81h1.36v.1c0,1,.74,1.66,2.1,1.66a2.19,2.19,0,0,0,2-.93,3.12,3.12,0,0,0,.3-1.61V10.6a2.84,2.84,0,0,1-2.56,1.56c-2,0-3.38-1.48-3.38-3.77s1.34-3.75,3.32-3.75A2.74,2.74,0,0,1,99.77,6.2V4.89H101Zm-3.55-6c-1.45,0-2.3.93-2.3,2.54S96,11,97.5,11s2.31-.94,2.31-2.57A2.36,2.36,0,0,0,97.45,5.81Z"/><path d="M103.42,4.89h1.19V6a2.85,2.85,0,0,1,2.56-1.34,2.37,2.37,0,0,1,2.65,2.51v4.79h-1.2V7.79c0-1.42-.61-2.11-1.88-2.11a2.16,2.16,0,0,0-1.72.76,2.71,2.71,0,0,0-.41,1.86v3.64h-1.19Z"/><path d="M126.67,7.79c0-1.42-.56-2.11-1.75-2.11a2,2,0,0,0-1.6.76,2.17,2.17,0,0,0-.38,1.42c0,.14,0,.28,0,.44v3.64h-1.2V7.79c0-1.42-.55-2.11-1.75-2.11a2,2,0,0,0-1.61.76A2,2,0,0,0,118,7.79c0,.16,0,.34,0,.51v3.64h-1.2v-7h1.2V6a2.7,2.7,0,0,1,2.43-1.34,2.38,2.38,0,0,1,2.37,1.43,2.79,2.79,0,0,1,2.51-1.43,2.3,2.3,0,0,1,2.51,2.51v4.79h-1.2Z"/><path d="M130.89.62a.89.89,0,0,1,.88.89.88.88,0,0,1-1.76,0A.87.87,0,0,1,130.89.62Zm-.6,4.27h1.2v7.05h-1.2Z"/><path d="M132.94,5.89v-1h1.29V2.05h1.2V4.89h1.33v1h-1.33v6.05h-1.2v-6Z"/><path d="M143.79,9.09v.12a1.86,1.86,0,0,0,2.1,1.88,2,2,0,0,0,2.33-2.18c0-1.45-.83-2.2-2.46-2.2h-.39V5.62h.36c1.56,0,2.35-.69,2.35-2a1.82,1.82,0,0,0-2-1.92A1.87,1.87,0,0,0,144,3.57h-1.33c.1-1.93,1.31-3,3.49-3s3.38,1.17,3.38,3a2.57,2.57,0,0,1-2,2.64A2.55,2.55,0,0,1,149.63,9c0,2-1.39,3.28-3.79,3.28-2.1,0-3.42-1.16-3.42-3v-.2Z"/><path d="M151.6,6.39c0-3.72,1.54-5.84,3.9-5.84s3.92,2.09,3.92,5.84-1.53,5.85-3.89,5.85S151.6,10.11,151.6,6.39Zm6.44,0c0-3.14-.89-4.77-2.53-4.77S153,3.33,153,6.37s1,4.77,2.52,4.77S158,9.53,158,6.41Z"/><path d="M160.9,6.39c0-3.72,1.55-5.84,3.9-5.84s3.93,2.09,3.93,5.84-1.53,5.85-3.9,5.85S160.9,10.11,160.9,6.39Zm6.44,0c0-3.14-.88-4.77-2.52-4.77s-2.53,1.69-2.53,4.73,1,4.77,2.53,4.77S167.34,9.53,167.34,6.41Z"/><path d="M170.21,6.39c0-3.72,1.54-5.84,3.9-5.84S178,2.64,178,6.39s-1.53,5.85-3.89,5.85S170.21,10.11,170.21,6.39Zm6.44,0c0-3.14-.89-4.77-2.53-4.77s-2.52,1.69-2.52,4.73,1,4.77,2.52,4.77S176.65,9.53,176.65,6.41Z"/><path d="M180.13.66h1.34v5l4.72-5h1.61L183,5.74l5.32,6.2h-1.73l-5.07-6.07v6.07h-1.34Z"/><path d="M194.1.66h1.34v10h4.26v1.27h-5.6Z"/><path d="M201.29.66h6V1.89h-4.6V5.13h4.6V6.37h-4.6V10.7h4.6v1.24h-6Z"/><path d="M209.51.66h2.16c2.12,0,3.74,0,5.12,1.06a5.5,5.5,0,0,1,2,4.59,5.5,5.5,0,0,1-2,4.58c-1.31,1-2.8,1-4.63,1h-2.65Zm2.21,10c1.93,0,3.27,0,4.21-.8a4.45,4.45,0,0,0,1.42-3.58,4.4,4.4,0,0,0-1.42-3.57c-.93-.79-2.27-.82-4.21-.82h-.87v8.77Z"/><path d="M221.1,10.07a1.92,1.92,0,0,0,1.8,1.12c.81,0,1.33-.45,1.33-1.06s-.36-.82-1.11-1.07c-1.73-.6-2.77-.9-2.77-2.29a2.22,2.22,0,0,1,2.49-2.13A2.53,2.53,0,0,1,225.35,6l-1,.6a1.68,1.68,0,0,0-1.61-1,1.09,1.09,0,0,0-1.2,1.06c0,.74.65.84,1.82,1.21,1.37.45,2.05.95,2.05,2.1a2.3,2.3,0,0,1-2.57,2.24,2.91,2.91,0,0,1-2.78-1.48Z"/><path d="M228.41,10l1.31.45-1.9,4.09-.88-.35Z"/><path d="M22.21,19.59h5.95v1.23h-4.6v3.23h4.6V25.3h-4.6v5.57H22.21Z"/><path d="M30.5,27.53v.11a2.31,2.31,0,0,0,2.33,2.52,2.58,2.58,0,0,0,2.29-1.53l.91.62a3.65,3.65,0,0,1-6.86-1.93,3.51,3.51,0,0,1,3.52-3.77c2.06,0,3.39,1.4,3.39,3.74v.24Zm2.14-2.92a2.06,2.06,0,0,0-2.14,1.94h4.29A1.94,1.94,0,0,0,32.64,24.61Z"/><path d="M37.91,23.82H39v1.46c.63-1.19,1.3-1.7,2.37-1.7a2.57,2.57,0,0,1,.82.14l-.41,1.09a2.39,2.39,0,0,0-.74-.14c-1.28,0-1.91.91-1.91,2.76v3.44h-1.2Z"/><path d="M43.43,23.82h1.2v1.09a2.85,2.85,0,0,1,2.55-1.35,2.37,2.37,0,0,1,2.65,2.51v4.8h-1.2V26.72c0-1.42-.61-2.11-1.87-2.11a2.14,2.14,0,0,0-1.72.75,2.74,2.74,0,0,0-.41,1.87v3.64h-1.2Z"/><path d="M53.41,18.93v6.21A2.73,2.73,0,0,1,56,23.56c2,0,3.33,1.44,3.33,3.81s-1.35,3.8-3.37,3.8a2.87,2.87,0,0,1-2.57-1.58v1.28H52.21V18.93ZM55.73,30C57.14,30,58,29,58,27.23a2.18,2.18,0,0,0-2.28-2.47,2.37,2.37,0,0,0-2.39,2.62C53.37,29.06,54.28,30,55.73,30Z"/><path d="M61.94,27.53v.11a2.31,2.31,0,0,0,2.34,2.52,2.58,2.58,0,0,0,2.29-1.53l.91.62a3.65,3.65,0,0,1-6.86-1.93,3.51,3.51,0,0,1,3.52-3.77c2.06,0,3.39,1.4,3.39,3.74v.24Zm2.15-2.92a2.07,2.07,0,0,0-2.15,1.94h4.3A1.94,1.94,0,0,0,64.09,24.61Z"/><path d="M75.9,30.87H74.74V29.59a2.86,2.86,0,0,1-2.56,1.58c-2,0-3.38-1.5-3.38-3.8s1.36-3.81,3.33-3.81a2.74,2.74,0,0,1,2.58,1.58V18.93H75.9Zm-3.55-6.11a2.18,2.18,0,0,0-2.27,2.47C70.08,29,71,30,72.37,30s2.37-.94,2.37-2.62A2.37,2.37,0,0,0,72.35,24.76Z"/><path d="M79,19.54a.9.9,0,0,1,.88.9.89.89,0,0,1-1.77,0A.89.89,0,0,1,79,19.54Zm-.6,4.28h1.2v7.05h-1.2Z"/><path d="M82.89,27.53v.11a2.31,2.31,0,0,0,2.33,2.52,2.57,2.57,0,0,0,2.29-1.53l.92.62a3.66,3.66,0,0,1-6.87-1.93,3.51,3.51,0,0,1,3.52-3.77c2.07,0,3.39,1.4,3.39,3.74v.24ZM85,24.61a2.06,2.06,0,0,0-2.14,1.94h4.29A1.94,1.94,0,0,0,85,24.61Z"/><path d="M90.29,23.82h1.19v1.09A2.86,2.86,0,0,1,94,23.56a2.37,2.37,0,0,1,2.65,2.51v4.8h-1.2V26.72c0-1.42-.61-2.11-1.88-2.11a2.15,2.15,0,0,0-1.72.75,2.74,2.74,0,0,0-.41,1.87v3.64H90.29Z"/><path d="M100.17,27.29c0,1.86.46,2.73,2,2.73s1.95-.87,2-2.73V23.82h1.2v4.12a2.87,2.87,0,0,1-3.22,3.23A2.82,2.82,0,0,1,99,28V23.82h1.19Z"/><path d="M107.7,23.82h1.2v1.09a2.85,2.85,0,0,1,2.55-1.35,2.37,2.37,0,0,1,2.65,2.51v4.8h-1.2V26.72c0-1.42-.61-2.11-1.87-2.11a2.14,2.14,0,0,0-1.72.75,2.74,2.74,0,0,0-.41,1.87v3.64h-1.2Z"/><path d="M123.08,30.74a3.22,3.22,0,0,1-.7,2.5,3.64,3.64,0,0,1-2.84,1.07c-2.16,0-3.39-1-3.44-2.81h1.36v.1c0,1,.74,1.65,2.1,1.65a2.16,2.16,0,0,0,2-.93,3,3,0,0,0,.3-1.61V29.53a2.83,2.83,0,0,1-2.56,1.56c-2,0-3.37-1.48-3.37-3.77s1.34-3.76,3.31-3.76a2.74,2.74,0,0,1,2.59,1.57V23.82h1.23Zm-3.55-6a2.22,2.22,0,0,0-2.31,2.54c0,1.71.86,2.67,2.36,2.67s2.3-1,2.3-2.57A2.37,2.37,0,0,0,119.53,24.73Z"/><path d="M136.34,29.56a4.66,4.66,0,0,1-3.42,1.52,3.12,3.12,0,0,1-3.35-3.19c0-1.36.87-2.49,2.59-3.47l-.46-.52A2.74,2.74,0,0,1,131,22a2.37,2.37,0,0,1,2.58-2.37A2.32,2.32,0,0,1,136.12,22c0,1.13-.66,2-2.05,2.82l2.46,3a15.82,15.82,0,0,0,1.34-1.75l.82.9a10.6,10.6,0,0,1-1.43,1.75l1.79,2.16h-1.62Zm-3.47-4.21-.33.22c-1,.69-1.63,1.29-1.63,2.27A2,2,0,0,0,133,29.92a4,4,0,0,0,2.62-1.27Zm1-1.67a1.91,1.91,0,0,0,1.06-1.63,1.23,1.23,0,0,0-1.33-1.28,1.26,1.26,0,0,0-1.32,1.31,1.63,1.63,0,0,0,.41,1.06l.69.82Z"/><path d="M156.33,25.05v.38c0,3.59-2.2,5.74-5.64,5.74a6,6,0,0,1-2.84-.66,5.65,5.65,0,0,1-2.9-5.16,6,6,0,0,1,1.81-4.55,5.65,5.65,0,0,1,4-1.46,5.35,5.35,0,0,1,4.8,2.36l-1.12.9a4,4,0,0,0-3.63-2.05c-2.62,0-4.42,1.94-4.42,4.8A4.35,4.35,0,0,0,150.82,30a3.9,3.9,0,0,0,4.07-3.71h-3.22v-1.2Z"/><path d="M164.75,30.87h-1.17V29.59A2.84,2.84,0,0,1,161,31.17c-2,0-3.37-1.5-3.37-3.8S159,23.56,161,23.56a2.74,2.74,0,0,1,2.59,1.58V23.82h1.2Zm-3.52-6.11c-1.45,0-2.3.93-2.3,2.54s.85,2.67,2.35,2.67a2.23,2.23,0,0,0,2.3-2.55A2.38,2.38,0,0,0,161.23,24.76Z"/><path d="M167.17,23.82h1.08v1.46c.63-1.19,1.29-1.7,2.36-1.7a2.48,2.48,0,0,1,.82.14L171,24.81a2.39,2.39,0,0,0-.74-.14c-1.28,0-1.91.91-1.91,2.76v3.44h-1.2Z"/><path d="M179.26,30.87h-1.17V29.59a2.84,2.84,0,0,1-2.56,1.58c-2,0-3.37-1.5-3.37-3.8s1.34-3.81,3.31-3.81a2.74,2.74,0,0,1,2.59,1.58V23.82h1.2Zm-3.52-6.11c-1.45,0-2.3.93-2.3,2.54s.85,2.67,2.35,2.67a2.23,2.23,0,0,0,2.3-2.55A2.38,2.38,0,0,0,175.74,24.76Z"/><path d="M181.67,23.82h1.2v1.09a2.85,2.85,0,0,1,2.55-1.35,2.37,2.37,0,0,1,2.65,2.51v4.8h-1.2V26.72c0-1.42-.61-2.11-1.87-2.11a2.14,2.14,0,0,0-1.72.75,2.74,2.74,0,0,0-.41,1.87v3.64h-1.2Z"/><path d="M189.35,24.81v-1h1.29V21h1.2v2.84h1.33v1h-1.33v6.06h-1.2V24.81Z"/><path d="M195.2,19.54a.89.89,0,0,1,.88.9.88.88,0,0,1-1.76,0A.88.88,0,0,1,195.2,19.54Zm-.6,4.28h1.2v7.05h-1.2Z"/><path d="M199.06,27.53v.11a2.31,2.31,0,0,0,2.34,2.52,2.58,2.58,0,0,0,2.29-1.53l.91.62a3.65,3.65,0,0,1-6.86-1.93,3.51,3.51,0,0,1,3.52-3.77c2.06,0,3.39,1.4,3.39,3.74v.24Zm2.15-2.92a2.07,2.07,0,0,0-2.15,1.94h4.3A1.94,1.94,0,0,0,201.21,24.61Z"/><path d="M207.55,29.2a.92.92,0,0,1,.93.91.93.93,0,0,1-1.85,0A.92.92,0,0,1,207.55,29.2Z"/></g></g></svg>