<svg xmlns="http://www.w3.org/2000/svg" viewBox="0 0 96.77 30.97"><g id="Layer_2" data-name="Layer 2"><g id="Layer_1-2" data-name="Layer 1"><path d="M16.38,0a0,0,0,0,1,0,0,.35.35,0,0,1-.38,0S16,0,16,0Z"/><path d="M.07,25.22l-.07,0v-.24a0,0,0,0,1,.06,0C.09,25,.14,25.12.07,25.22Z"/><path d="M16,0V0a.08.08,0,0,1-.12,0V0Z"/><path d="M.05,24.94H0v0l.08,0S.11,24.93.05,24.94Z"/><path d="M22.26,30.92h.12s0,0,0,0a0,0,0,0,1,0,0h-.12Z"/><path d="M22.38,31v0a.1.1,0,0,1,.12,0Z"/><path d="M22.9,31a.11.11,0,0,1,.13,0v0s0,0,0,0Z"/><path d="M23,31s0,0,0,0h.08a.08.08,0,0,1,0,0Z"/><path d="M.05,24.94a.14.14,0,0,0,0-.09,1.37,1.37,0,0,1,.43-.5,7.58,7.58,0,0,1,1.21-.78,17.81,17.81,0,0,1,2.21-1,1.33,1.33,0,0,0,.77-.74c1.11-2.51,2.29-5,3.59-7.42s2.63-4.63,4.05-6.89c1-1.56,1.91-3.15,2.77-4.78a12.88,12.88,0,0,0,.6-1.31s0-.08,0-.12-.17,0-.24,0a9,9,0,0,0-1.41.64A13.25,13.25,0,0,0,9.77,5.78a7.87,7.87,0,0,0-1,1.78,3.26,3.26,0,0,1-.18.38.3.3,0,0,1-.33.16A.31.31,0,0,1,8,7.87a.94.94,0,0,1,0-.41,4.56,4.56,0,0,1,.49-1.61,11.32,11.32,0,0,1,1.91-2.6A12.55,12.55,0,0,1,14,.58,5.77,5.77,0,0,1,15.86,0h.52a.85.85,0,0,1,.68.48,2.17,2.17,0,0,1,.06,1.94c-.23.58-.5,1.14-.76,1.7-.76,1.62-1.67,3.16-2.58,4.7-1.11,1.88-2.26,3.73-3.34,5.63a49.77,49.77,0,0,0-2.53,4.86c-.28.65-.55,1.3-.79,1.95a1.29,1.29,0,0,0-.07.21,6.5,6.5,0,0,0,.9-.16c1.34-.33,2.69-.59,4.05-.82,1.17-.2,2.35-.37,3.52-.5a22.16,22.16,0,0,1,2.57-.16,1.91,1.91,0,0,1,.48,0l.16.05c.17.07.33.15.35.37a.49.49,0,0,1-.33.46,3.89,3.89,0,0,1-.82.25,9.91,9.91,0,0,1-1.22.15c-.62.06-1.23.18-1.84.3-1.43.29-2.86.59-4.28.92s-2.6.65-3.89,1l-.42.14A.82.82,0,0,0,5.8,24a7.27,7.27,0,0,0-.33.76,6,6,0,0,1-.81,1.47,1.42,1.42,0,0,1-.3.3.62.62,0,0,1-.75,0,.37.37,0,0,1-.14-.34,7.79,7.79,0,0,1,.09-1,2.51,2.51,0,0,1,.15-.6.4.4,0,0,0,0-.27,1,1,0,0,0-.44.11L1.92,25a8.77,8.77,0,0,1-1.12.4.87.87,0,0,1-.32,0,.44.44,0,0,1-.41-.24A.68.68,0,0,1,.05,24.94Z"/><path d="M25.27,9.44a.66.66,0,0,1,.67.93,1.93,1.93,0,0,1-1.12,1,.75.75,0,0,1-.75-.17.46.46,0,0,1-.15-.43,1.08,1.08,0,0,1,.1-.35,2,2,0,0,1,.9-.91A.89.89,0,0,1,25.27,9.44Z"/><path d="M55.78,9.44a.66.66,0,0,1,.68.91,1.89,1.89,0,0,1-1.13,1.05.74.74,0,0,1-.75-.17.47.47,0,0,1-.15-.43,1.21,1.21,0,0,1,.11-.37,2,2,0,0,1,.87-.88A.85.85,0,0,1,55.78,9.44Z"/><path d="M29.14,18.22s0-.06.07,0,0,0,0,.06Z"/><path d="M44.24,19.63s0-.07.07-.06,0,.05,0,.07a.08.08,0,0,1,0,.07S44.28,19.64,44.24,19.63Z"/><path d="M39.4,17.08s.05-.06.07,0,0,.07,0,.09A.08.08,0,0,0,39.4,17.08Z"/><path d="M35.57,17.16s.06-.05.07,0,0,.06,0,.09S35.6,17.17,35.57,17.16Z"/><path d="M83.84,16l0,0s0,0,0,0,0,0,0,0S83.83,16,83.84,16Z"/><path d="M96.7,15.09a.68.68,0,0,0-.46-.09l-.31.1a23.9,23.9,0,0,0-2.22,1.08L92,17.11l-.42-.67a16.65,16.65,0,0,1-1-1.75,1.9,1.9,0,0,1-.21-.56.63.63,0,0,1,.25-.64,1.63,1.63,0,0,1,.77-.25.79.79,0,0,1,0,.46.76.76,0,0,0,0,.3c0,.24.16.34.4.29a.61.61,0,0,0,.34-.23,2.08,2.08,0,0,0,.46-1,.73.73,0,0,0-.48-.87,1.21,1.21,0,0,0-.75-.09,3,3,0,0,0-.72.22,3.69,3.69,0,0,0-1.56,1.2,1.37,1.37,0,0,0-.3,1,1.87,1.87,0,0,0,.31.82c.09.14.09.15,0,.28-.36.48-.71,1-1.06,1.46-.67.91-1.3,1.85-2,2.72a13.7,13.7,0,0,1-1.6,1.72,2.4,2.4,0,0,1-.59.41,1,1,0,0,1-.37.11c-.22,0-.29-.06-.27-.28a3.89,3.89,0,0,1,.21-.88,23.41,23.41,0,0,1,1.25-2.8c.45-.91.94-1.81,1.36-2.73a4,4,0,0,0,.21-.54.43.43,0,0,0-.1-.45.58.58,0,0,0-.62-.18,2.53,2.53,0,0,0-.53.24l-.89.51-1.34.78a1.77,1.77,0,0,1-.59.23s-.1,0-.12,0l.22-.33c.56-.76,1.09-1.54,1.59-2.35a7.16,7.16,0,0,0,.45-.87,1.8,1.8,0,0,0,.16-.56.61.61,0,0,0-.26-.61.76.76,0,0,0-.82,0,2.32,2.32,0,0,0-.73.59,12,12,0,0,0-1.9,3,3.17,3.17,0,0,0-.28.92A1.82,1.82,0,0,0,80.77,17l-.07.06c-.75.51-1.5,1-2.28,1.46A14.2,14.2,0,0,1,76,19.69a3,3,0,0,1-1.15.17.51.51,0,0,1-.57-.5,2.84,2.84,0,0,1,.54-2.29A.15.15,0,0,1,75,17a2.1,2.1,0,0,0,.5,0,3.27,3.27,0,0,0,1.18-.38,4.77,4.77,0,0,0,1.84-1.55,2.32,2.32,0,0,0,.39-1A1,1,0,0,0,78.16,13a1.33,1.33,0,0,0-.56,0,3.44,3.44,0,0,0-1.51.57,8,8,0,0,0-3,3.48.57.57,0,0,1-.21.25c-.46.3-.9.6-1.36.89a15.57,15.57,0,0,1-2.94,1.48,3,3,0,0,1-1.26.22c-.37,0-.52-.14-.59-.5a2.81,2.81,0,0,1,.55-2.29.14.14,0,0,1,.17-.06,2.05,2.05,0,0,0,.78,0,4.38,4.38,0,0,0,1.73-.85,3.85,3.85,0,0,0,1-1.07,2.07,2.07,0,0,0,.37-1A.94.94,0,0,0,70.56,13,1.41,1.41,0,0,0,70,13a3.21,3.21,0,0,0-1.31.46,7.92,7.92,0,0,0-3.33,3.83.92.92,0,0,1-.16.27c-.53.61-1.06,1.22-1.6,1.81A10.74,10.74,0,0,1,61,21.4a1.38,1.38,0,0,1-.52.17.76.76,0,0,1,0-.3,2.64,2.64,0,0,1,.15-.73,20.61,20.61,0,0,1,1-2.39c.4-.89.85-1.76,1.24-2.66a2.1,2.1,0,0,0,.15-.42.5.5,0,0,0-.31-.58.64.64,0,0,0-.45,0,2.75,2.75,0,0,0-.67.32,31.06,31.06,0,0,0-3,2.17,1.4,1.4,0,0,1-.32.22c0-.06,0-.1,0-.15a3.39,3.39,0,0,1,.31-.67c.36-.6.71-1.19,1.06-1.8a8.06,8.06,0,0,0,.55-1.05,1.55,1.55,0,0,0,.15-.56.41.41,0,0,0-.47-.43.49.49,0,0,0-.22.09,4.64,4.64,0,0,0-1.15,1,9.55,9.55,0,0,0-1.7,2.8.58.58,0,0,1-.18.26l-1.08.93A17.84,17.84,0,0,1,53,19.41a3.55,3.55,0,0,1-.78.32,1.27,1.27,0,0,1-.34,0c-.08,0-.11,0-.1-.13a4.42,4.42,0,0,1,.13-.61,9.29,9.29,0,0,1,.63-1.53c.52-1.09,1.11-2.13,1.65-3.2a6.42,6.42,0,0,0,.37-.85,1.68,1.68,0,0,0,.1-.55.43.43,0,0,0-.35-.42.64.64,0,0,0-.58.15,2.59,2.59,0,0,0-.37.37,19.37,19.37,0,0,0-2.59,4.15,1.12,1.12,0,0,1-.16.28c-.3.38-.59.77-.89,1.16-.71.9-1.42,1.79-2.2,2.62a7.58,7.58,0,0,1-1,.94,1.93,1.93,0,0,1-.55.29c-.18.05-.21,0-.22-.15a1.09,1.09,0,0,1,0-.18A3.84,3.84,0,0,1,45.83,21a23,23,0,0,1,1-2.94c.78-2,1.66-4,2.57-5.93.69-1.48,1.41-2.94,2.16-4.4a.29.29,0,0,1,.3-.19l.61,0,3.91-.23c.9-.05,1.8-.1,2.69-.17,1.11-.09,2.22-.18,3.33-.31L65,6.55a.72.72,0,0,0,.37-.13A.38.38,0,0,0,65.46,6c0-.14-.12-.19-.31-.2h-.59c-1.49,0-3,.14-4.47.24-1.08.07-2.16.12-3.24.14s-2,0-3,.09c-.41,0-.83,0-1.24.1a.43.43,0,0,1-.23,0,.09.09,0,0,1,0-.09l.75-1.56a8.52,8.52,0,0,0,.51-1.26A1.54,1.54,0,0,0,53.7,3a.31.31,0,0,0-.22-.32.64.64,0,0,0-.51,0,2,2,0,0,0-.54.41,16,16,0,0,0-1.27,1.46c-.41.54-.8,1.11-1.18,1.67,0,.07-.08.13-.18.13-.58,0-1.16.07-1.73.07a9,9,0,0,1-1.47-.06,2.28,2.28,0,0,1-.84-.26c-.15-.09-.15-.09-.06-.23a.36.36,0,0,0,.07-.1,8.71,8.71,0,0,0,.85-1.4A3.72,3.72,0,0,0,47,2.63,1.1,1.1,0,0,0,46,1.52a2,2,0,0,0-1.3.34,9.87,9.87,0,0,0-1.93,1.72A22.72,22.72,0,0,0,40.25,7a49.16,49.16,0,0,0-4.1,8.64.41.41,0,0,1-.2.23c-.85.5-1.69,1-2.53,1.53l-2.28,1.43a.34.34,0,0,1-.21.09c.07-.2.14-.37.2-.55.36-1,.75-2.07,1.05-3.14a4.57,4.57,0,0,0,.16-.82.68.68,0,0,0-.55-.78.73.73,0,0,0-.73.21,4.93,4.93,0,0,0-.42.49c-.1.13-.1.13-.26.07A3,3,0,0,0,28,14.6a4.1,4.1,0,0,0-1.9,2,.88.88,0,0,1-.22.28l-.83.71a16.37,16.37,0,0,1-2.56,1.8,3.55,3.55,0,0,1-.78.32,1.66,1.66,0,0,1-.32,0c-.11,0-.13,0-.11-.14a3.08,3.08,0,0,1,.16-.73,10.56,10.56,0,0,1,.72-1.65c.5-1,1-2,1.53-3a6.07,6.07,0,0,0,.35-.83,1.62,1.62,0,0,0,.11-.53.43.43,0,0,0-.39-.46.64.64,0,0,0-.56.17,4,4,0,0,0-.4.42,19.61,19.61,0,0,0-2.16,3.31,11.62,11.62,0,0,0-.85,2A4.65,4.65,0,0,0,19.52,20a1.1,1.1,0,0,0,1,1,2.32,2.32,0,0,0,.87-.07,5.35,5.35,0,0,0,1.49-.6,14.53,14.53,0,0,0,2.7-2c.05-.05.09-.11.16-.13a.41.41,0,0,1,.05.18,1.55,1.55,0,0,0,.32.73,1,1,0,0,0,.85.4,1.42,1.42,0,0,0,.64-.17,5.08,5.08,0,0,0,.68-.46c.3-.24.57-.51.89-.72,0,0,0,0,0,0a0,0,0,0,1,0,.05c-.15.45-.3.9-.44,1.35a1.41,1.41,0,0,1-.41.64c-.16.15-.33.29-.5.42-.72.54-1.45,1-2.13,1.62a25.76,25.76,0,0,0-3.07,2.93,9.6,9.6,0,0,0-1.53,2.3,4.13,4.13,0,0,0-.4,1.54,1.66,1.66,0,0,0,1.2,1.78l.35.08s.07,0,.11,0,.09,0,.13,0h.4S23,31,23,31s0,0,.08,0l.27-.07a3.9,3.9,0,0,0,1.32-.7,9.66,9.66,0,0,0,1.88-1.95,25.6,25.6,0,0,0,2.81-4.9c.34-.77.63-1.56,1-2.32a.63.63,0,0,1,.16-.23,45.58,45.58,0,0,1,5-3.6s.07,0,.06.05c-.1.35-.21.69-.3,1a2.2,2.2,0,0,0-.08,1.05.69.69,0,0,0,1.11.46c.19-.14.38-.29.56-.45.6-.51,1.15-1.08,1.74-1.61a5.52,5.52,0,0,1,.74-.62s.07,0,.05.05c-.16.49-.32,1-.47,1.48a5,5,0,0,0-.22,1.88,1.21,1.21,0,0,0,.84,1.12,2.71,2.71,0,0,0,.74.15,3.62,3.62,0,0,0,2.17-.6,7.91,7.91,0,0,0,1.73-1.53c.09,0,0,.05,0,.08a.68.68,0,0,1,0,.14,7.29,7.29,0,0,0-.19,2,2.81,2.81,0,0,0,.37,1.2,1.31,1.31,0,0,0,1.14.71,1.47,1.47,0,0,0,1-.32c.25-.19.48-.39.71-.59A22.77,22.77,0,0,0,49.87,20c0-.05.07-.12.15-.15A.66.66,0,0,0,50,20a1.1,1.1,0,0,0,1,1,2.74,2.74,0,0,0,1.17-.15A7.38,7.38,0,0,0,54,20a16.29,16.29,0,0,0,2.31-1.83s.07-.11.15-.09v.1a.68.68,0,0,0,.88.68,1.75,1.75,0,0,0,.52-.2,7.74,7.74,0,0,0,1-.61l1.2-.88a.44.44,0,0,1,.19-.1,5.89,5.89,0,0,1-.42,1,16.22,16.22,0,0,0-.8,1.75A3.68,3.68,0,0,0,58.75,21a2.5,2.5,0,0,0,.3,1.31,1,1,0,0,0,.66.53,1.6,1.6,0,0,0,.69,0,2.62,2.62,0,0,0,1-.4,14.16,14.16,0,0,0,3.52-3.21L65,19c.06,0,0,.09,0,.14a2.06,2.06,0,0,0,1,1.44,2.68,2.68,0,0,0,1.71.32,5,5,0,0,0,1.36-.41,18.13,18.13,0,0,0,3.28-1.89l.24-.16c0,.15,0,.28,0,.4a2,2,0,0,0,1.1,1.78,2.71,2.71,0,0,0,1.63.28,4.87,4.87,0,0,0,1.36-.41,20,20,0,0,0,5.09-3.33.67.67,0,0,1,.19-.14,8.64,8.64,0,0,0,1.46-.81,2.12,2.12,0,0,1,.35-.23s0,0,0,0h0s0,0,0,0a24.5,24.5,0,0,0-1.77,3.46,11.91,11.91,0,0,0-.78,2.34,2.67,2.67,0,0,0,0,1.09.94.94,0,0,0,.86.8,3,3,0,0,0,.52,0A2.56,2.56,0,0,0,84,23.27a7.12,7.12,0,0,0,1.24-1.08,26.42,26.42,0,0,0,3-3.9c.46-.71.9-1.44,1.3-2.19a.1.1,0,0,1,0,0,9.69,9.69,0,0,1,.62,1,1.74,1.74,0,0,1,.2.87.39.39,0,0,1-.13.28c-.16.13-.32.26-.49.38a8.3,8.3,0,0,0-.8.64,14.89,14.89,0,0,0-1.85,2,8.61,8.61,0,0,0-1,1.7,2.33,2.33,0,0,0-.21.93.84.84,0,0,0,.74.94,2.57,2.57,0,0,0,1.2,0,3.78,3.78,0,0,0,1.41-.79,9.3,9.3,0,0,0,2.64-3.64,4.77,4.77,0,0,0,.4-2.27c0-.11,0-.13.12-.17A17.38,17.38,0,0,0,94.24,17c.69-.45,1.39-.87,2.12-1.25a.76.76,0,0,0,.41-.5A.12.12,0,0,0,96.7,15.09Zm-18.91-.87c0,.06,0,.11,0,.16a1.68,1.68,0,0,1-.15.3,3.44,3.44,0,0,1-1.94,1.38.24.24,0,0,1-.19,0A4.25,4.25,0,0,1,77.79,14.22Zm-7.58,0a1,1,0,0,1-.18.46,3.43,3.43,0,0,1-1.94,1.37.29.29,0,0,1-.16,0A3.9,3.9,0,0,1,70.21,14.23Zm-43.13,10a29.15,29.15,0,0,1-1.76,2.88,9.79,9.79,0,0,1-1.47,1.68,3.85,3.85,0,0,1-.69.51,1.55,1.55,0,0,1-.7.18.49.49,0,0,1-.52-.4,1.5,1.5,0,0,1,0-.76,4.26,4.26,0,0,1,.81-1.62A14,14,0,0,1,24.35,25a31.42,31.42,0,0,1,3.11-2.64,4.81,4.81,0,0,1,.78-.48C27.89,22.66,27.49,23.43,27.08,24.19Zm2-7.41c-.5.54-1.07,1-1.63,1.49a1,1,0,0,1-.12-.56,1.35,1.35,0,0,1,.1-.53,2.75,2.75,0,0,1,1.35-1.53,1.25,1.25,0,0,1,.91-.13.64.64,0,0,1,.19.07A5,5,0,0,1,29.1,16.78ZM40.85,9.53c.45-.85.94-1.67,1.45-2.48a34.73,34.73,0,0,1,2.29-3.22,7,7,0,0,1,.93-1,2.6,2.6,0,0,1,.38-.27.8.8,0,0,1,.13.56,2,2,0,0,1-.22.7A9.78,9.78,0,0,1,45.09,5c-.05.07-.08.09-.17,0a.26.26,0,0,0-.38.11.64.64,0,0,0-.13.58.17.17,0,0,1-.06.21c-.26.32-.53.62-.81.92-.86.91-1.76,1.79-2.64,2.67C40.86,9.58,40.84,9.57,40.85,9.53Zm4.27,7.36a1.24,1.24,0,0,1-.16.3A21.84,21.84,0,0,1,43.54,19,11.58,11.58,0,0,1,42.4,20a3,3,0,0,1-1,.57,1.67,1.67,0,0,1-.53.11c-.34,0-.48-.14-.48-.47a5.3,5.3,0,0,1,.28-1.52c.2-.62.43-1.23.61-1.87a4.34,4.34,0,0,0,.19-1.34,1.46,1.46,0,0,0-.1-.47.52.52,0,0,0-.5-.37,1.31,1.31,0,0,0-.55.1,3.83,3.83,0,0,0-.44.25,13,13,0,0,0-1.78,1.53,8.28,8.28,0,0,1-.75.7s0,0,0,0c.2-.49.43-1,.65-1.44.61-1.34,1.26-2.66,2-4a3.93,3.93,0,0,1,1-1.15,33.79,33.79,0,0,0,3.12-2.86c.31-.34.62-.67.91-1,.1-.12.1-.12.22,0a5.33,5.33,0,0,0,1.93.66,14.2,14.2,0,0,0,1.72.12l.46,0a.58.58,0,0,1-.09.21C48,10.06,46.93,12.36,46,14.71,45.65,15.43,45.37,16.15,45.12,16.89Zm45.17,2.78a8,8,0,0,1-2,3.4,2.42,2.42,0,0,1-1.14.65c-.12,0-.14,0-.15-.1a1.37,1.37,0,0,1,.1-.57,2.79,2.79,0,0,1,.33-.58,11.91,11.91,0,0,1,1.72-1.9l1.07-.95S90.3,19.63,90.29,19.67Z"/><path d="M40.85,9.53l0,0a.12.12,0,0,1-.08.09s0,0,0-.06A.07.07,0,0,1,40.85,9.53Z"/><path d="M90.29,19.67l-.05-.05a0,0,0,0,1,.07,0S90.32,19.65,90.29,19.67Z"/><path d="M40.81,9.6v.06s0,0,0,0a0,0,0,0,1,0,0h0Z"/><path d="M40.77,9.65v0s0,0,0,0S40.76,9.67,40.77,9.65Z"/><path d="M37.35,17.25h0s0,.05,0,0S37.33,17.26,37.35,17.25Z"/></g></g></svg>