<svg xmlns="http://www.w3.org/2000/svg" width="120" height="25.99" viewBox="0 0 120 25.99"><defs><style>.cls-1{fill:#476157;}.cls-2{fill:#fff;}</style></defs><g id="Layer_2" data-name="Layer 2"><g id="Layer_1-2" data-name="Layer 1"><rect class="cls-1" width="120" height="25.99" rx="13"/><path class="cls-2" d="M29.6,15.25a3.18,3.18,0,0,0,.1.82,2,2,0,0,0,.3.68,1.4,1.4,0,0,0,.5.47,1.45,1.45,0,0,0,.74.17,3.5,3.5,0,0,0,.54-.05,2.14,2.14,0,0,0,.54-.18,1.25,1.25,0,0,0,.41-.34.84.84,0,0,0,.17-.53,1.12,1.12,0,0,0-.35-.82,4.38,4.38,0,0,0-.88-.61c-.35-.19-.73-.37-1.14-.55a7.74,7.74,0,0,1-1.14-.62,3.6,3.6,0,0,1-.88-.81,1.87,1.87,0,0,1-.35-1.15,1.62,1.62,0,0,1,.31-1,2.29,2.29,0,0,1,.79-.62,3.85,3.85,0,0,1,1-.31,6.57,6.57,0,0,1,1.05-.09,5.77,5.77,0,0,1,1.1.1,2.68,2.68,0,0,1,1,.35,2.13,2.13,0,0,1,1,1.78H32.77a5.2,5.2,0,0,0-.08-.69,1.93,1.93,0,0,0-.23-.61,1.16,1.16,0,0,0-.44-.44A1.37,1.37,0,0,0,31.3,10a2.21,2.21,0,0,0-.59.08,1.57,1.57,0,0,0-.48.25,1.27,1.27,0,0,0-.33.43,1.51,1.51,0,0,0-.11.59,1,1,0,0,0,.35.75,4.11,4.11,0,0,0,.88.61l1.15.56a8.91,8.91,0,0,1,1.15.61,3.75,3.75,0,0,1,.89.77,1.6,1.6,0,0,1,.35,1,1.27,1.27,0,0,1-.28.78,2.71,2.71,0,0,1-.73.64,4.13,4.13,0,0,1-1.07.43,4.73,4.73,0,0,1-1.26.16A5.23,5.23,0,0,1,30,17.59a3.1,3.1,0,0,1-1-.41,2.18,2.18,0,0,1-.75-.76,2.41,2.41,0,0,1-.31-1.17Z"/><path class="cls-2" d="M37.23,17.62H35.74V9.81h1.49V13.4h3.46V9.81h1.48v7.81H40.69V13.8H37.23Z"/><path class="cls-2" d="M43.58,13.71a4,4,0,0,1,.31-1.6,3.61,3.61,0,0,1,.84-1.27A3.85,3.85,0,0,1,46,10a4.31,4.31,0,0,1,1.61-.3,4.23,4.23,0,0,1,1.61.3,3.87,3.87,0,0,1,2.12,2.11,4.09,4.09,0,0,1-.85,4.47,3.75,3.75,0,0,1-1.28.84,4.42,4.42,0,0,1-3.2,0,3.85,3.85,0,0,1-2.13-2.11A4,4,0,0,1,43.58,13.71Zm2,.9a6.26,6.26,0,0,0,.6,1.06,4.65,4.65,0,0,0,.71.8,3.1,3.1,0,0,0,.78.5,1.93,1.93,0,0,0,.79.18A1.59,1.59,0,0,0,49.1,17a1.62,1.62,0,0,0,.69-.61,2.34,2.34,0,0,0,.34-1,4,4,0,0,0,0-1.24,6.13,6.13,0,0,0-.43-1.39,6.78,6.78,0,0,0-.6-1.07,4.69,4.69,0,0,0-.72-.8,3.21,3.21,0,0,0-.77-.51,2,2,0,0,0-.78-.17,1.53,1.53,0,0,0-.64.13,1.56,1.56,0,0,0-.7.62,2.34,2.34,0,0,0-.34,1,4,4,0,0,0,0,1.24A5.67,5.67,0,0,0,45.58,14.61Z"/><path class="cls-2" d="M53.05,17.61V9.81h2.6a10.32,10.32,0,0,1,1.11.06,3,3,0,0,1,1,.27,1.88,1.88,0,0,1,.71.63,2,2,0,0,1,.27,1.11,1.64,1.64,0,0,1-.21.86,1.86,1.86,0,0,1-.56.59,2.71,2.71,0,0,1-.79.35,5.66,5.66,0,0,1-.91.19c-.31,0-.61.06-.91.07h-.8v3.66Zm2.5-4a1.62,1.62,0,0,0,.7-.13,1.33,1.33,0,0,0,.45-.36,1.58,1.58,0,0,0,.24-.56,3.08,3.08,0,0,0,.07-.7,2.45,2.45,0,0,0-.08-.62,1.51,1.51,0,0,0-.24-.53,1.25,1.25,0,0,0-.42-.37,1.32,1.32,0,0,0-.62-.14h-1a.42.42,0,0,0-.15.4v3Z"/><path class="cls-2" d="M62.25,12.75a9.15,9.15,0,0,0,.1,1.38c.07.47.16.91.26,1.34A11.88,11.88,0,0,0,63,16.66a7.87,7.87,0,0,0,.44.95H61.89V9.81h1.35l5,5.76v-1.9a7.07,7.07,0,0,0-.08-.88c-.06-.38-.13-.76-.23-1.15a7.1,7.1,0,0,0-.37-1.1,2,2,0,0,0-.47-.73H68.6v7.8h-.5l-5.85-6.42Z"/><path class="cls-2" d="M70,13.71a4,4,0,0,1,.31-1.6A3.85,3.85,0,0,1,72.46,10a4.44,4.44,0,0,1,3.21,0,3.71,3.71,0,0,1,1.27.84,3.64,3.64,0,0,1,.85,1.27,4.28,4.28,0,0,1,0,3.2,3.83,3.83,0,0,1-.85,1.27,3.66,3.66,0,0,1-1.28.84,4.17,4.17,0,0,1-1.59.3,4.23,4.23,0,0,1-1.61-.3,3.85,3.85,0,0,1-2.13-2.11A4,4,0,0,1,70,13.71Zm2,.9a6.26,6.26,0,0,0,.6,1.06,4.65,4.65,0,0,0,.71.8,3.1,3.1,0,0,0,.78.5,1.93,1.93,0,0,0,.79.18,1.59,1.59,0,0,0,.64-.13,1.56,1.56,0,0,0,.69-.61,2.34,2.34,0,0,0,.34-1,4,4,0,0,0,0-1.24,5.67,5.67,0,0,0-.43-1.39,6.78,6.78,0,0,0-.6-1.07,4.65,4.65,0,0,0-.71-.8,3.47,3.47,0,0,0-.78-.51,2,2,0,0,0-.78-.17,1.53,1.53,0,0,0-.64.13,1.61,1.61,0,0,0-.7.62,2.34,2.34,0,0,0-.34,1,4,4,0,0,0,0,1.24A5.67,5.67,0,0,0,72,14.61Z"/><path class="cls-2" d="M82.64,17.61H81.42l-3-7.8h1.76l2.35,6.33L83.36,12a3.52,3.52,0,0,0,.09-.87,3,3,0,0,0-.08-.65A1.39,1.39,0,0,0,83.2,10,.6.6,0,0,0,83,9.81h2.06l2,6.3L88.22,12a3.27,3.27,0,0,0,.13-.86,2.49,2.49,0,0,0-.07-.65,1.65,1.65,0,0,0-.2-.44.76.76,0,0,0-.23-.24h1.7l-2.49,7.8H85.84l-1.79-6Z"/><path class="cls-2" d="M91.73,9.65c0,.39,0,.82,0,1.31s-.08,1-.13,1.49-.12,1-.2,1.49-.14.91-.22,1.29h-.29c-.08-.38-.15-.81-.22-1.29s-.14-1-.2-1.49-.09-1-.13-1.49-.05-.92-.05-1.31ZM90.24,16.9a.75.75,0,0,1,.23-.55.77.77,0,0,1,.55-.22.75.75,0,0,1,.77.77.77.77,0,0,1-.22.55.73.73,0,0,1-.55.23.79.79,0,0,1-.78-.78Z"/></g></g></svg>