<svg xmlns="http://www.w3.org/2000/svg" viewBox="0 0 111 36.18"><defs><style>.cls-1{fill:#06daff;}.cls-2{fill:#fff;}</style></defs><g id="Layer_2" data-name="Layer 2"><g id="Layer_1-2" data-name="Layer 1"><path class="cls-1" d="M0,0H2.78L7.21,11.49,11.83,0h2.78L8.44,15H5.89Z"/><path class="cls-1" d="M13.35,9.3c0-3.82,2.44-6.07,5.62-6.05a4.83,4.83,0,0,1,4.66,3V3.48H26.3V15H23.63V12.17a4.8,4.8,0,0,1-4.52,3.07A5.72,5.72,0,0,1,13.35,9.3ZM19.77,13a3.73,3.73,0,0,0,3.75-3.73,3.67,3.67,0,0,0-3.75-3.82A3.57,3.57,0,0,0,16,9.28,3.66,3.66,0,0,0,19.77,13Z"/><path class="cls-1" d="M27.79,0h2.67V15H27.79Z"/><path class="cls-1" d="M32,0h2.66V6.28a4.83,4.83,0,0,1,4.66-3c3.19,0,5.62,2.23,5.62,6.05V15H42.24V9.28a3.56,3.56,0,0,0-3.75-3.82,3.66,3.66,0,0,0-3.76,3.82V15H32Z"/><path class="cls-1" d="M46.4,9.3c0-3.82,2.43-6.07,5.62-6.05a4.83,4.83,0,0,1,4.66,3V3.48h2.67V15H56.68V12.17a4.8,4.8,0,0,1-4.52,3.07A5.71,5.71,0,0,1,46.4,9.3ZM52.82,13a3.73,3.73,0,0,0,3.75-3.73,3.67,3.67,0,0,0-3.75-3.82,3.57,3.57,0,0,0-3.76,3.82A3.66,3.66,0,0,0,52.82,13Z"/><path class="cls-1" d="M60.84,0h2.67V15H60.84Z"/><path class="cls-1" d="M65,0h2.66V15H65Z"/><path class="cls-1" d="M69.17,9.3c0-3.82,2.43-6.07,5.62-6.05a4.83,4.83,0,0,1,4.66,3V3.48h2.66V15H79.45V12.17a4.81,4.81,0,0,1-4.53,3.07A5.71,5.71,0,0,1,69.17,9.3ZM75.58,13a3.74,3.74,0,0,0,3.76-3.73,3.67,3.67,0,0,0-3.76-3.82,3.56,3.56,0,0,0-3.75,3.82A3.66,3.66,0,0,0,75.58,13Z"/><path class="cls-2" d="M0,20.94H5.87c4.5,0,5.6,2.68,5.6,4.69,0,2.36-1.53,4.5-5.6,4.5H2.66V36H0Zm5.87,6.87c1.89,0,2.91-.61,2.91-2.18,0-1.35-.77-2.37-2.93-2.37H2.66v4.55Z"/><path class="cls-2" d="M12.94,24.42H15.6v3.07a4.47,4.47,0,0,1,5.83-2.75l-1.37,2.2a3.35,3.35,0,0,0-4.34,3.28V36H12.94Z"/><path class="cls-2" d="M20.86,30.22a5.82,5.82,0,0,1,6.14-6,5.78,5.78,0,0,1,6,5.55,4.61,4.61,0,0,1,0,1.05l-9.63,0A3.64,3.64,0,0,0,27,34a3.58,3.58,0,0,0,3.27-1.72l2,1A5.92,5.92,0,0,1,27,36.18,6,6,0,0,1,20.86,30.22Zm9.64-.95A3.48,3.48,0,0,0,27,26.35a3.42,3.42,0,0,0-3.43,2.94Z"/><path class="cls-2" d="M34.53,30.24c0-3.82,2.43-6.07,5.62-6a4.83,4.83,0,0,1,4.66,3V20.94h2.66V36H44.81V33.11a4.81,4.81,0,0,1-4.53,3.07A5.72,5.72,0,0,1,34.53,30.24ZM40.94,34a3.74,3.74,0,0,0,3.76-3.73,3.66,3.66,0,0,0-3.76-3.82,3.56,3.56,0,0,0-3.75,3.82A3.66,3.66,0,0,0,40.94,34Z"/><path class="cls-2" d="M50.45,20.8c.77,0,1.48.46,1.48,1.14a1.52,1.52,0,0,1-3,0C49,21.26,49.68,20.8,50.45,20.8Zm-1.34,3.62h2.66V36H49.11Z"/><path class="cls-2" d="M53.43,30.24c0-3.73,2.78-6,6.37-6a6.24,6.24,0,0,1,5.87,3.44l-2.48.91a3.73,3.73,0,0,0-3.41-2.14,3.79,3.79,0,0,0,0,7.57,3.82,3.82,0,0,0,3.46-2.2l2.45.93a6.3,6.3,0,0,1-5.89,3.48C56.32,36.18,53.45,33.77,53.43,30.24Z"/><path class="cls-2" d="M68.33,31.56V26.63H66.51V24.31c2.07,0,1.82-1.23,1.82-3.37H71l0,3.37h3.32v2.32H71v4.64c0,2.09,1.89,2.86,3.75,2.07l.46,2.3C72.29,36.86,68.33,35.64,68.33,31.56Z"/><path class="cls-2" d="M76.56,32.06H79a2.27,2.27,0,0,0,2.52,2.14c1.07,0,2.12-.5,2.14-1.45S83,31.31,81.36,31c-2.84-.39-4.73-1.05-4.78-3.34,0-2.12,1.85-3.51,4.55-3.51,2.87,0,4.92,1.37,5.05,4H83.75a2.3,2.3,0,0,0-2.5-2.07c-1.25,0-2.09.66-2.07,1.59s.68,1.41,2.41,1.73c3.18.55,4.66,1.12,4.64,3.42s-2,3.34-4.73,3.27S76.58,34.59,76.56,32.06Z"/><path class="cls-2" d="M94.89,20.8c.78,0,1.48.46,1.48,1.14a1.52,1.52,0,0,1-3,0A1.33,1.33,0,0,1,94.89,20.8Zm-1.34,3.62h2.66V36H93.55Z"/><path class="cls-2" d="M99.69,31.56V26.63H97.87V24.31c2.07,0,1.82-1.23,1.82-3.37h2.67l0,3.37h3.32v2.32h-3.34v4.64c0,2.09,1.88,2.86,3.75,2.07l.45,2.3C103.65,36.86,99.69,35.64,99.69,31.56Z"/><path class="cls-2" d="M108,34.43a1.48,1.48,0,1,1,1.48,1.48A1.49,1.49,0,0,1,108,34.43Z"/></g></g></svg>