<svg xmlns="http://www.w3.org/2000/svg" viewBox="0 0 273.97 43.19"><g id="Layer_2" data-name="Layer 2"><g id="Layer_1-2" data-name="Layer 1"><path d="M5.74,17.49,0,.46H3.66L7.85,13.55,12,.46h3.69l-5.76,17Z"/><path d="M18.37,12.69c.42,1.53,1.57,2.29,3.44,2.29a3.21,3.21,0,0,0,2.74-1.22l2.54,1.46a6.07,6.07,0,0,1-5.33,2.61A6.57,6.57,0,0,1,16.9,16a6.21,6.21,0,0,1-1.83-4.59A6.23,6.23,0,0,1,21.52,5,5.82,5.82,0,0,1,26,6.83a6.41,6.41,0,0,1,1.75,4.58,7.35,7.35,0,0,1-.12,1.28Zm-.05-2.43h6.23a3,3,0,0,0-1.11-1.85,3.22,3.22,0,0,0-1.92-.6,3.31,3.31,0,0,0-2.1.64A3.09,3.09,0,0,0,18.32,10.26Z"/><path d="M33.05,7.42A3.28,3.28,0,0,1,34.5,5.67a4.46,4.46,0,0,1,2.26-.59v3.5a3.73,3.73,0,0,0-2.57.59,2.77,2.77,0,0,0-1.14,2.5v5.82H29.9V5.33h3.15Z"/><path d="M45.7,5a5.59,5.59,0,0,1,4.22,1.86,6.43,6.43,0,0,1,1.74,4.56A6.43,6.43,0,0,1,49.92,16a5.59,5.59,0,0,1-4.22,1.86,4.76,4.76,0,0,1-4-1.78v1.44H38.59V.46h3.15v6.3A4.75,4.75,0,0,1,45.7,5Zm-3,8.88a3.22,3.22,0,0,0,2.42,1,3.29,3.29,0,0,0,2.43-1,3.33,3.33,0,0,0,1-2.46A3.29,3.29,0,0,0,45.12,8a3.25,3.25,0,0,0-2.42,1,3.34,3.34,0,0,0-1,2.47A3.33,3.33,0,0,0,42.7,13.87Z"/><path d="M55.45,3.87a1.87,1.87,0,0,1-1.36-.57A1.88,1.88,0,0,1,53.52,2,1.91,1.91,0,0,1,54.09.58a1.91,1.91,0,0,1,2.74,0A1.91,1.91,0,0,1,57.4,2a1.88,1.88,0,0,1-.57,1.35A1.88,1.88,0,0,1,55.45,3.87ZM53.88,17.49V5.33H57V17.49Z"/><path d="M66.71,5A4.44,4.44,0,0,1,70,6.32,5.1,5.1,0,0,1,71.33,10v7.47H68.17V10.41a2.48,2.48,0,0,0-.66-1.86,2.38,2.38,0,0,0-1.75-.65,2.62,2.62,0,0,0-2,.76,3.1,3.1,0,0,0-.73,2.26v6.57H59.92V5.33h3.15V6.69A4.06,4.06,0,0,1,66.71,5Z"/><path d="M83.27.46h3.15v17H83.27V16.05a4.76,4.76,0,0,1-4,1.78A5.56,5.56,0,0,1,75.1,16a6.39,6.39,0,0,1-1.75-4.56A6.39,6.39,0,0,1,75.1,6.85,5.56,5.56,0,0,1,79.31,5a4.75,4.75,0,0,1,4,1.77Zm-5.8,13.41a3.54,3.54,0,0,0,4.85,0,3.36,3.36,0,0,0,1-2.46,3.37,3.37,0,0,0-1-2.47,3.54,3.54,0,0,0-4.85,0,3.35,3.35,0,0,0-1,2.47A3.34,3.34,0,0,0,77.47,13.87Z"/><path d="M92,12.69c.42,1.53,1.57,2.29,3.44,2.29a3.21,3.21,0,0,0,2.74-1.22l2.54,1.46a6.07,6.07,0,0,1-5.33,2.61A6.57,6.57,0,0,1,90.5,16a6.21,6.21,0,0,1-1.83-4.59A6.23,6.23,0,0,1,95.12,5a5.82,5.82,0,0,1,4.43,1.84,6.45,6.45,0,0,1,1.75,4.58,6.54,6.54,0,0,1-.13,1.28Zm0-2.43h6.23A3,3,0,0,0,97,8.41a3.21,3.21,0,0,0-1.91-.6,3.31,3.31,0,0,0-2.1.64A3,3,0,0,0,91.92,10.26Z"/><path d="M110.29,5a4.45,4.45,0,0,1,3.31,1.33,5.09,5.09,0,0,1,1.3,3.7v7.47h-3.15V10.41a2.48,2.48,0,0,0-.66-1.86,2.4,2.4,0,0,0-1.76-.65,2.61,2.61,0,0,0-2,.76,3.1,3.1,0,0,0-.73,2.26v6.57H103.5V5.33h3.15V6.69A4.06,4.06,0,0,1,110.29,5Z"/><path d="M129.68,17.83a7.67,7.67,0,0,1-4.27-1.13A6.11,6.11,0,0,1,123,13.62l2.89-1.68a3.83,3.83,0,0,0,3.93,2.6,3.42,3.42,0,0,0,2.08-.51,1.59,1.59,0,0,0,.66-1.29,1.57,1.57,0,0,0-.81-1.4,12.74,12.74,0,0,0-2.88-1.08,16,16,0,0,1-2-.68,8.88,8.88,0,0,1-1.58-.91,3.62,3.62,0,0,1-1.21-1.45,4.64,4.64,0,0,1-.42-2,4.53,4.53,0,0,1,1.65-3.68,6,6,0,0,1,4-1.38,6.65,6.65,0,0,1,3.65,1,6.82,6.82,0,0,1,2.46,2.81l-2.84,1.63a3.4,3.4,0,0,0-3.27-2.19,2.63,2.63,0,0,0-1.65.47,1.51,1.51,0,0,0-.6,1.23,1.55,1.55,0,0,0,.67,1.3,9.22,9.22,0,0,0,2.58,1.09l1.19.37c.27.09.63.23,1.1.42a6.31,6.31,0,0,1,1.07.52,8.35,8.35,0,0,1,.87.66,3.37,3.37,0,0,1,.74.85,4.67,4.67,0,0,1,.44,1.05,4.54,4.54,0,0,1,.19,1.35,4.55,4.55,0,0,1-1.73,3.75A6.93,6.93,0,0,1,129.68,17.83Z"/><path d="M139.5,3.87a1.85,1.85,0,0,1-1.35-.57A1.85,1.85,0,0,1,137.57,2a1.88,1.88,0,0,1,.58-1.37A1.82,1.82,0,0,1,139.5,0a1.85,1.85,0,0,1,1.38.58A1.92,1.92,0,0,1,141.46,2a1.89,1.89,0,0,1-.58,1.35A1.88,1.88,0,0,1,139.5,3.87Zm-1.56,13.62V5.33h3.15V17.49Z"/><path d="M146.63,12.69c.43,1.53,1.58,2.29,3.45,2.29a3.19,3.19,0,0,0,2.73-1.22l2.54,1.46A6.05,6.05,0,0,1,150,17.83,6.57,6.57,0,0,1,145.17,16a6.21,6.21,0,0,1-1.83-4.59A6.21,6.21,0,0,1,149.79,5a5.84,5.84,0,0,1,4.43,1.84A6.44,6.44,0,0,1,156,11.41a7.35,7.35,0,0,1-.12,1.28Zm0-2.43h6.23a3,3,0,0,0-1.11-1.85,3.21,3.21,0,0,0-1.91-.6,3.35,3.35,0,0,0-2.11.64A3.09,3.09,0,0,0,146.58,10.26Z"/><path d="M165.83,3.87a1.85,1.85,0,0,1-1.35-.57A1.85,1.85,0,0,1,163.9,2a1.88,1.88,0,0,1,.58-1.37A1.82,1.82,0,0,1,165.83,0a1.85,1.85,0,0,1,1.38.58A1.88,1.88,0,0,1,167.79,2a1.85,1.85,0,0,1-.58,1.35A1.88,1.88,0,0,1,165.83,3.87Zm-1.56,13.62V5.33h3.15V17.49Z"/><path d="M176.12,17.83a6.3,6.3,0,0,1-6.45-6.42A6.29,6.29,0,0,1,176.12,5a6.33,6.33,0,0,1,3.25.85,5.72,5.72,0,0,1,2.22,2.28L178.88,9.7a2.83,2.83,0,0,0-1.11-1.19,3.29,3.29,0,0,0-1.68-.44,3.18,3.18,0,0,0-2.34.94,3.25,3.25,0,0,0-.93,2.4,3.24,3.24,0,0,0,.93,2.37,3.17,3.17,0,0,0,2.34.93,3.4,3.4,0,0,0,1.7-.42,2.69,2.69,0,0,0,1.11-1.18l2.74,1.55a6.11,6.11,0,0,1-2.27,2.3A6.25,6.25,0,0,1,176.12,17.83Z"/><path d="M190.09,5a4.44,4.44,0,0,1,3.31,1.33,5.1,5.1,0,0,1,1.31,3.7v7.47h-3.16V10.41a2.52,2.52,0,0,0-.65-1.86,2.42,2.42,0,0,0-1.76-.65,2.62,2.62,0,0,0-2,.76,3.1,3.1,0,0,0-.73,2.26v6.57H183.3V.46h3.15V6.69A4.06,4.06,0,0,1,190.09,5Z"/><path d="M217,5a4.35,4.35,0,0,1,3.36,1.36A5.16,5.16,0,0,1,221.63,10v7.49h-3.16V10.21a2.53,2.53,0,0,0-.53-1.7,2,2,0,0,0-1.52-.61,2.08,2.08,0,0,0-1.67.71,3.07,3.07,0,0,0-.6,2v6.84H211V10.21a2.48,2.48,0,0,0-.54-1.7A1.93,1.93,0,0,0,209,7.9a2.15,2.15,0,0,0-1.68.71,3,3,0,0,0-.62,2v6.84H203.5V5.33h3.15V6.62A3.81,3.81,0,0,1,210.05,5a3.63,3.63,0,0,1,3.32,1.75A4.14,4.14,0,0,1,217,5Z"/><path d="M225.88,3.87a1.85,1.85,0,0,1-1.36-.57A1.88,1.88,0,0,1,224,2a1.91,1.91,0,0,1,.57-1.37A1.82,1.82,0,0,1,225.88,0a1.84,1.84,0,0,1,1.37.58A1.88,1.88,0,0,1,227.83,2a1.85,1.85,0,0,1-.58,1.35A1.87,1.87,0,0,1,225.88,3.87Zm-1.57,13.62V5.33h3.15V17.49Z"/><path d="M237.33,8.34h-2.76V13.4a1.19,1.19,0,0,0,.32.92,1.4,1.4,0,0,0,.93.33,12.84,12.84,0,0,0,1.51,0v2.85c-2.16.24-3.69,0-4.58-.61s-1.33-1.81-1.33-3.48V8.34h-2.13v-3h2.13V2.87l3.15-1V5.33h2.76Z"/><path d="M9.43,30.69h3.15V42.85H9.43V41.49a4.07,4.07,0,0,1-3.64,1.7,4.42,4.42,0,0,1-3.31-1.33,5.08,5.08,0,0,1-1.31-3.7V30.69H4.32v7.08A2.48,2.48,0,0,0,5,39.63a2.42,2.42,0,0,0,1.76.65,2.58,2.58,0,0,0,2-.76,3.15,3.15,0,0,0,.73-2.26ZM5.7,29a1.58,1.58,0,0,1-1.16.47A1.66,1.66,0,0,1,3.37,29a1.62,1.62,0,0,1,0-2.32,1.59,1.59,0,0,1,1.17-.49,1.53,1.53,0,0,1,1.16.49,1.59,1.59,0,0,1,.48,1.16A1.57,1.57,0,0,1,5.7,29Zm4.64,0a1.58,1.58,0,0,1-1.16.47A1.66,1.66,0,0,1,8,29a1.58,1.58,0,0,1-.49-1.16,1.67,1.67,0,0,1,1.66-1.65,1.53,1.53,0,0,1,1.16.49,1.59,1.59,0,0,1,.48,1.16A1.57,1.57,0,0,1,10.34,29Z"/><path d="M22.57,30.35a5.55,5.55,0,0,1,4.21,1.86,6.82,6.82,0,0,1,0,9.12,5.55,5.55,0,0,1-4.21,1.86,4.75,4.75,0,0,1-4-1.77v1.43H15.46v-17h3.15v6.3A4.76,4.76,0,0,1,22.57,30.35Zm-3,8.89a3.25,3.25,0,0,0,2.41,1,3.43,3.43,0,1,0,0-6.85,3.25,3.25,0,0,0-2.41,1,3.64,3.64,0,0,0,0,4.93Z"/><path d="M33.42,38.06c.42,1.53,1.57,2.29,3.44,2.29a3.24,3.24,0,0,0,2.74-1.22l2.54,1.46a6.06,6.06,0,0,1-5.33,2.6A6.56,6.56,0,0,1,32,41.37a6.7,6.7,0,0,1,0-9.18,6.24,6.24,0,0,1,4.64-1.84A5.83,5.83,0,0,1,41,32.2a6.38,6.38,0,0,1,1.75,4.57,7.38,7.38,0,0,1-.12,1.29Zm-.05-2.43H39.6a2.92,2.92,0,0,0-1.12-1.85,3.22,3.22,0,0,0-1.91-.61,3.31,3.31,0,0,0-2.1.65A3,3,0,0,0,33.37,35.63Z"/><path d="M48.1,32.79A3.3,3.3,0,0,1,49.55,31a4.55,4.55,0,0,1,2.26-.58V34a3.72,3.72,0,0,0-2.58.59A2.78,2.78,0,0,0,48.1,37v5.81H45V30.69H48.1Z"/><path d="M59,42.85v-2.5l5.83-6c1.31-1.37,2-2.5,2-3.41a2.15,2.15,0,0,0-.62-1.6,2.19,2.19,0,0,0-1.6-.61,3,3,0,0,0-2.86,2l-2.84-1.65a6,6,0,0,1,2.33-2.68,6.26,6.26,0,0,1,3.32-.92,5.85,5.85,0,0,1,4,1.45,4.89,4.89,0,0,1,1.66,3.9c0,1.76-.94,3.58-2.81,5.44L64,39.62H70.4v3.23Z"/><path d="M78.73,43.19a5.9,5.9,0,0,1-5-2.42,10.37,10.37,0,0,1-1.82-6.43,10.39,10.39,0,0,1,1.82-6.43,6.43,6.43,0,0,1,10.05,0,10.52,10.52,0,0,1,1.81,6.43,10.5,10.5,0,0,1-1.81,6.43A5.91,5.91,0,0,1,78.73,43.19Zm-2.59-4.7a2.84,2.84,0,0,0,2.59,1.42,2.89,2.89,0,0,0,2.6-1.43,8,8,0,0,0,.89-4.14,8,8,0,0,0-.89-4.16,2.89,2.89,0,0,0-2.6-1.43,2.85,2.85,0,0,0-2.59,1.43,8,8,0,0,0-.88,4.16A7.93,7.93,0,0,0,76.14,38.49Z"/><path d="M94.12,43.19a5.9,5.9,0,0,1-5-2.42,10.37,10.37,0,0,1-1.82-6.43,10.39,10.39,0,0,1,1.82-6.43,6.43,6.43,0,0,1,10.05,0A10.52,10.52,0,0,1,101,34.34a10.5,10.5,0,0,1-1.81,6.43A5.91,5.91,0,0,1,94.12,43.19Zm-2.59-4.7a2.84,2.84,0,0,0,2.59,1.42,2.89,2.89,0,0,0,2.6-1.43,8,8,0,0,0,.89-4.14,8,8,0,0,0-.89-4.16,2.89,2.89,0,0,0-2.6-1.43,2.85,2.85,0,0,0-2.59,1.43,8,8,0,0,0-.88,4.16A7.93,7.93,0,0,0,91.53,38.49Z"/><path d="M114.1,32.86V35.8h-4v4h-3v-4h-4V32.86h4v-4h3v4Z"/><path d="M128.9,43.19a7.59,7.59,0,0,1-4.27-1.13A6,6,0,0,1,122.18,39l2.88-1.68a3.85,3.85,0,0,0,3.94,2.6,3.39,3.39,0,0,0,2.07-.51,1.61,1.61,0,0,0-.14-2.69A12.68,12.68,0,0,0,128,35.63,18.41,18.41,0,0,1,126.1,35a8.61,8.61,0,0,1-1.59-.91,3.75,3.75,0,0,1-1.2-1.45,4.64,4.64,0,0,1-.42-2,4.57,4.57,0,0,1,1.65-3.69,6,6,0,0,1,4-1.37,6.65,6.65,0,0,1,3.65,1,6.82,6.82,0,0,1,2.46,2.81l-2.84,1.63a3.4,3.4,0,0,0-3.27-2.19,2.63,2.63,0,0,0-1.65.47,1.51,1.51,0,0,0-.6,1.23,1.55,1.55,0,0,0,.67,1.3,9.28,9.28,0,0,0,2.58,1.08l1.19.38c.26.09.63.23,1.09.42a6.1,6.1,0,0,1,1.08.52,9.7,9.7,0,0,1,.87.65,3.4,3.4,0,0,1,.74.86,4.67,4.67,0,0,1,.44,1.05,4.89,4.89,0,0,1,.18,1.35,4.56,4.56,0,0,1-1.72,3.75A7,7,0,0,1,128.9,43.19Z"/><path d="M143.31,43.19a6.46,6.46,0,0,1-4.6-11,6.24,6.24,0,0,1,4.6-1.85,6.34,6.34,0,0,1,3.25.86,5.53,5.53,0,0,1,2.22,2.28l-2.71,1.58A2.71,2.71,0,0,0,145,33.88a3.25,3.25,0,0,0-1.67-.44,3.15,3.15,0,0,0-2.35.94,3.52,3.52,0,0,0,0,4.77,3.18,3.18,0,0,0,2.35.93,3.36,3.36,0,0,0,1.69-.42,2.77,2.77,0,0,0,1.12-1.18L148.83,40a6,6,0,0,1-2.27,2.3A6.25,6.25,0,0,1,143.31,43.19Z"/><path d="M157.28,30.35a4.43,4.43,0,0,1,3.31,1.34,5.08,5.08,0,0,1,1.31,3.7v7.46h-3.15V35.78a2.48,2.48,0,0,0-.66-1.86,2.42,2.42,0,0,0-1.76-.65,2.58,2.58,0,0,0-2,.76,3.11,3.11,0,0,0-.74,2.26v6.56h-3.15v-17h3.15v6.23A4.08,4.08,0,0,1,157.28,30.35Z"/><path d="M171.38,30.35a4.45,4.45,0,0,1,3.31,1.34,5.08,5.08,0,0,1,1.31,3.7v7.46h-3.16V35.78a2.48,2.48,0,0,0-.66-1.86,2.38,2.38,0,0,0-1.75-.65,2.58,2.58,0,0,0-2,.76,3.1,3.1,0,0,0-.73,2.26v6.56h-3.15V30.69h3.15v1.37A4.06,4.06,0,0,1,171.38,30.35Z"/><path d="M180.25,29.23a1.95,1.95,0,0,1-1.93-1.92,1.88,1.88,0,0,1,.57-1.36,1.82,1.82,0,0,1,1.36-.58,2,2,0,0,1,1.95,1.94,1.85,1.85,0,0,1-.57,1.35A1.91,1.91,0,0,1,180.25,29.23Zm-1.57,13.62V30.69h3.15V42.85Z"/><path d="M191.7,33.71h-2.76v5.06a1.19,1.19,0,0,0,.32.92,1.4,1.4,0,0,0,.93.33,12.84,12.84,0,0,0,1.51,0v2.84c-2.16.25-3.69,0-4.58-.6s-1.33-1.81-1.33-3.48V33.71h-2.12v-3h2.12V28.24l3.15-.95v3.4h2.76Z"/><path d="M200.45,33.71h-2.76v5.06a1.19,1.19,0,0,0,.31.92,1.45,1.45,0,0,0,.93.33,13,13,0,0,0,1.52,0v2.84c-2.17.25-3.7,0-4.58-.6s-1.33-1.81-1.33-3.48V33.71h-2.13v-3h2.13V28.24l3.15-.95v3.4h2.76Z"/><path d="M205.31,34.15c0,.32.21.59.65.79a8.44,8.44,0,0,0,1.57.53,16.66,16.66,0,0,1,1.86.59A3.54,3.54,0,0,1,211,37.24a3.25,3.25,0,0,1,.65,2.06,3.37,3.37,0,0,1-1.4,2.89,5.89,5.89,0,0,1-3.51,1q-3.76,0-5.13-2.89l2.74-1.53a2.26,2.26,0,0,0,2.39,1.58c1.12,0,1.69-.35,1.69-1.05,0-.32-.22-.58-.65-.79a9.33,9.33,0,0,0-1.58-.54,18.18,18.18,0,0,1-1.85-.61,3.85,3.85,0,0,1-1.58-1.16,3,3,0,0,1-.65-2,3.39,3.39,0,0,1,1.34-2.83,5.21,5.21,0,0,1,3.3-1,5.65,5.65,0,0,1,2.72.67,5,5,0,0,1,1.93,1.91l-2.69,1.46a2,2,0,0,0-2-1.24,1.79,1.79,0,0,0-1,.27A.83.83,0,0,0,205.31,34.15Z"/><path d="M220.26,33.71H217.5v5.06a1.19,1.19,0,0,0,.31.92,1.45,1.45,0,0,0,.93.33,13,13,0,0,0,1.52,0v2.84c-2.17.25-3.7,0-4.58-.6s-1.33-1.81-1.33-3.48V33.71h-2.13v-3h2.13V28.24l3.15-.95v3.4h2.76Z"/><path d="M224.78,38.06c.42,1.53,1.57,2.29,3.44,2.29A3.24,3.24,0,0,0,231,39.13l2.54,1.46a6.06,6.06,0,0,1-5.33,2.6,6.56,6.56,0,0,1-4.86-1.82,6.7,6.7,0,0,1,0-9.18,6.24,6.24,0,0,1,4.64-1.84,5.83,5.83,0,0,1,4.43,1.85,6.38,6.38,0,0,1,1.75,4.57,7.38,7.38,0,0,1-.12,1.29Zm-.05-2.43H231a2.92,2.92,0,0,0-1.12-1.85,3.22,3.22,0,0,0-1.91-.61,3.31,3.31,0,0,0-2.1.65A3,3,0,0,0,224.73,35.63Z"/><path d="M236.31,42.85V25.1h3.15V42.85Z"/><path d="M242.34,42.85V25.1h3.15V42.85Z"/><path d="M251,38.06c.42,1.53,1.57,2.29,3.44,2.29a3.25,3.25,0,0,0,2.74-1.22l2.54,1.46a6.06,6.06,0,0,1-5.33,2.6,6.56,6.56,0,0,1-4.86-1.82,6.42,6.42,0,0,1,4.62-11,5.83,5.83,0,0,1,4.43,1.85,6.42,6.42,0,0,1,1.75,4.57,6.56,6.56,0,0,1-.13,1.29Zm0-2.43h6.23a2.92,2.92,0,0,0-1.12-1.85,3.22,3.22,0,0,0-1.91-.61,3.31,3.31,0,0,0-2.1.65A3,3,0,0,0,251,35.63Z"/><path d="M269.36,30.35a4.46,4.46,0,0,1,3.31,1.34,5.08,5.08,0,0,1,1.3,3.7v7.46h-3.15V35.78a2.48,2.48,0,0,0-.66-1.86,2.4,2.4,0,0,0-1.76-.65,2.58,2.58,0,0,0-1.95.76,3.1,3.1,0,0,0-.73,2.26v6.56h-3.15V30.69h3.15v1.37A4.06,4.06,0,0,1,269.36,30.35Z"/></g></g></svg>