<svg xmlns="http://www.w3.org/2000/svg" viewBox="0 0 187.75 244.07"><defs><style>.cls-1{fill:#fff;}.cls-2{fill:#333c4d;}.cls-3{fill:#31a7f0;}.cls-4{fill:#c6451f;}.cls-5{fill:#010101;}.cls-6{fill:#020202;}.cls-7{fill:#fefdfd;}.cls-8{fill:#cc5836;}.cls-9{fill:#c94f2c;}.cls-10{fill:#f16322;}.cls-11{fill:#4d4d4d;}.cls-12{fill:#4e4e4e;}.cls-13{fill:#004a71;}.cls-14{fill:#00abee;}.cls-15{fill:#fcc11a;}.cls-16{fill:#ffd200;}.cls-17{fill:#222;}.cls-18{fill:#515151;}.cls-19{fill:#ff8000;}.cls-20{fill:#9b5c8f;}.cls-21{fill:#004494;}.cls-22{fill:#f26322;}</style></defs><g id="Layer_2" data-name="Layer 2"><g id="Layer_1-2" data-name="Layer 1"><rect class="cls-1" x="93.49" y="180" width="87.33" height="28.32" rx="14.16"/><path class="cls-2" d="M142.56,192.15h0a2.27,2.27,0,0,1,2-1,3,3,0,0,1,3,3.22,3.11,3.11,0,0,1-3.22,3.23,3.07,3.07,0,0,1-3.2-3.28v-5.05h1.44Zm8.77-1a3.06,3.06,0,0,1,3.19,3.27v3H153.2v-1.14h0a2.2,2.2,0,0,1-2.12,1.31,3,3,0,0,1-3-3.23,3.11,3.11,0,0,1,3.23-3.22Zm12.73,0a3.09,3.09,0,0,1,3.2,3.22v.52h-4.9v0a1.84,1.84,0,0,0,3.12.75H167a3,3,0,0,1-3,1.93,3.23,3.23,0,0,1,0-6.45Zm-43.27,0a2.11,2.11,0,0,1,2.38,1.92h-1.43c0-.37-.37-.63-.93-.63s-1,.3-1,.7c0,1.08,3.45-.07,3.45,2.45,0,1.16-1,2-2.51,2s-2.48-.83-2.52-2h1.45c0,.41.37.69,1,.69s1.07-.3,1.07-.72c0-1.08-3.45.13-3.45-2.45C118.4,192,119.33,191.13,120.79,191.13Zm37,0a2.13,2.13,0,0,1,2.39,1.92h-1.43c0-.37-.38-.63-.94-.63s-.95.3-.95.7c0,1.08,3.45-.07,3.45,2.45,0,1.16-1,2-2.51,2s-2.48-.83-2.52-2h1.46c0,.41.36.69,1,.69s1.08-.3,1.08-.72c0-1.08-3.46.13-3.46-2.45,0-1.15.94-2,2.39-2Zm-25,6.29h-1.44v-6.13h1.44Zm3.94-7.46c-.7,0-1.19.39-1.19,1.33h1.19v1.34h-1.19v4.79h-1.44v-6.13a2.43,2.43,0,0,1,2.63-2.7Zm-11,2.15h0a2,2,0,0,1,1.75-1c1.38,0,2.69.92,2.69,3.1v3.18h-1.44v-3.18c0-1.17-.61-1.72-1.51-1.72s-1.52.58-1.52,1.72v3.18h-1.44v-8.16h1.44v2.86Zm13.35-2.86v2h1.18v1.34h-1.18v4.78h-1.44v-8.16Zm5.26,3.26a1.85,1.85,0,0,0,0,3.69,1.85,1.85,0,0,0,0-3.69Zm7,0a1.85,1.85,0,1,0,1.75,1.84A1.72,1.72,0,0,0,151.33,192.51Zm12.73,0a1.65,1.65,0,0,0-1.67,1.2h0v0h3.35v0A1.66,1.66,0,0,0,164.06,192.47Zm-32-3.82a1,1,0,1,1-1,1A1,1,0,0,1,132.06,188.65Z"/><path class="cls-3" d="M110.34,190.46a4,4,0,1,0,3.9,4,4.12,4.12,0,0,0-.34-1.59l.51-.52.53-.54a5.45,5.45,0,0,1,.69,2.65,5.3,5.3,0,1,1-5.29-5.39Zm3.29-.25a5.25,5.25,0,0,1,1,1l-1.06,1.08-2.71,2.76a.69.69,0,0,1-1,0L108,193.21l1-1,1.34,1.36,3.29-3.35Z"/><rect class="cls-1" x="45.46" y="146" width="87.33" height="28.32" rx="14.16"/><path class="cls-4" d="M114.7,159c-1.87,0-3.73,0-5.59,0-.35,0-.48-.08-.47-.45,0-1.75,0-3.51,0-5.26,0-.34.11-.42.44-.42h9.28a2.31,2.31,0,0,1,2.38,2.35c0,1.11,0,2.21,0,3.32,0,.37-.11.45-.46.45C118.42,159,116.56,159,114.7,159Z"/><path d="M66.05,166.16c0,.37-.07.5-.47.49-1,0-1,0-1-1v-.71c0-.63,0-1.25,0-1.87,0-.16.07-.34-.07-.48-.46,1.24-.93,2.48-1.36,3.73-.15.47-.49.29-.78.33s-.44-.07-.54-.36c-.44-1.27-.9-2.53-1.42-3.78v3.15c0,1,0,1-1,1-.33,0-.43-.08-.42-.42,0-1.77,0-3.54,0-5.31,0-.32,0-.46.41-.43.56,0,1.24-.16,1.65.09s.44,1,.63,1.51c.28.74.54,1.49.85,2.36.43-1.26.83-2.39,1.2-3.53.11-.34.26-.47.61-.43.55.06,1.3-.23,1.61.12s.08,1,.09,1.57C66,163.51,66,164.84,66.05,166.16Z"/><path d="M91.28,166.64c-.64,0-1.17,0-1.7,0-.25,0-.36-.14-.49-.3L87,163.81c0,.89,0,1.65,0,2.4,0,.32-.05.45-.41.44-1,0-1,0-1-1,0-1.58,0-3.16,0-4.74,0-.32.07-.4.39-.4,1.07,0,1.07,0,1.07,1V163c.57-.64,1.11-1.18,1.56-1.78a1.54,1.54,0,0,1,1.59-.72,7,7,0,0,0,.93,0l-1.86,2c-.25.27-.68.55-.69.84s.4.58.64.86Z"/><path d="M100.73,166.78a3.49,3.49,0,0,1-2-.56c-.28-.18-.45-.36-.07-.62a.46.46,0,0,0,.07-.07c.34-.42.65-.73,1.18-.2a1.17,1.17,0,0,0,1,.2.61.61,0,0,0,.58-.49.54.54,0,0,0-.35-.66c-.45-.19-.93-.34-1.38-.53a1.68,1.68,0,0,1-1-2.17,1.64,1.64,0,0,1,.87-1,3.14,3.14,0,0,1,3.21.22c.18.12.29.24.06.41a.66.66,0,0,0-.14.15c-.33.38-.61.82-1.19.26a.92.92,0,0,0-.93-.08.59.59,0,0,0-.45.5.5.5,0,0,0,.36.55c.35.14.7.26,1,.39,1.09.4,1.56,1,1.44,1.94a2,2,0,0,1-2,1.76A2.78,2.78,0,0,1,100.73,166.78Z"/><path d="M106.26,166.79a3.35,3.35,0,0,1-2.06-.65c-.2-.14-.31-.27,0-.46a.66.66,0,0,0,.15-.14c.33-.38.63-.79,1.18-.21a1.14,1.14,0,0,0,1.07.19.58.58,0,0,0,.53-.48.55.55,0,0,0-.35-.66c-.44-.19-.9-.33-1.34-.51a1.64,1.64,0,0,1-1.11-2,1.67,1.67,0,0,1,1.11-1.35,3.14,3.14,0,0,1,2.9.23c.29.17.43.33.09.59a.67.67,0,0,0-.14.15c-.28.38-.55.61-1,.2a1,1,0,0,0-1-.13.58.58,0,0,0-.48.53.53.53,0,0,0,.39.54l1,.35c1.2.43,1.65,1.07,1.49,2.1a2.05,2.05,0,0,1-2.07,1.64Z"/><path class="cls-5" d="M79.86,164c0,.25,0,.51,0,.76.13,1.72-1.34,2.21-2.51,1.95A1.61,1.61,0,0,1,76,165.08c0-.78,0-1.57,0-2.35,0-.23.06-.32.31-.34,1-.06,1-.07,1,.9,0,.51,0,1,0,1.53s.21.83.67.82.66-.27.67-.84,0-1.33,0-2c0-.35.11-.42.43-.42.83,0,.83,0,.83.83Z"/><path d="M82.56,166.76a2.77,2.77,0,0,1-1.48-.43c-.22-.15-.25-.29,0-.47a4,4,0,0,0,.34-.38c.12-.17.22-.16.37,0a1.14,1.14,0,0,0,.79.29c.2,0,.39-.05.43-.28s-.11-.34-.3-.4-.52-.15-.77-.25a1.22,1.22,0,0,1-.38-2.12,2.22,2.22,0,0,1,2.62,0c.13.12.16.2,0,.33a2.93,2.93,0,0,0-.38.41c-.14.18-.25.16-.42,0a.9.9,0,0,0-.82-.18c-.13,0-.25.1-.26.27a.27.27,0,0,0,.22.3l.63.2c.79.22,1.15.65,1.12,1.31a1.36,1.36,0,0,1-1.22,1.3A3.4,3.4,0,0,1,82.56,166.76Z"/><path class="cls-6" d="M72.18,164.51c0-.6,0-1.19,0-1.79,0-.24.07-.31.32-.33,1,0,1-.06,1,.91,0,.63,0,1.26,0,1.89,0,.33.11.42.41.38s.38,0,.56,0c.5-.08.65.1.62.6s-.07.51-.48.48c-.66,0-1.33,0-2,0-.32,0-.4-.1-.39-.41C72.19,165.67,72.18,165.09,72.18,164.51Z"/><path class="cls-7" d="M114.61,156.84c-.31,0-.58,0-.72.39s-.48.2-.68.12,0-.29,0-.42c.29-.67.6-1.33.89-2a.48.48,0,0,1,.52-.37.49.49,0,0,1,.53.35c.28.67.6,1.33.88,2,.06.13.28.35.06.43s-.62.2-.72-.14S115,156.83,114.61,156.84Z"/><path class="cls-7" d="M110.74,155.94a.43.43,0,0,1,0-.16c0-.39-.2-1,.1-1.15a2.59,2.59,0,0,1,1.56,0,.74.74,0,0,1,.62.77.8.8,0,0,1-.56.82.55.55,0,0,1-.24.07c-.67-.09-.85.23-.76.83.05.3-.18.26-.36.27s-.38,0-.37-.28S110.74,156.33,110.74,155.94Z"/><path class="cls-7" d="M116.19,154.63c.89-.39,1,.4,1.42.92.41-.42.52-1.32,1.42-.92a2.21,2.21,0,0,1-.43.66,2.15,2.15,0,0,0-.65,1.8c0,.2,0,.33-.27.29s-.48.11-.44-.17c.19-1.07-.55-1.73-1-2.5C116.18,154.69,116.19,154.65,116.19,154.63Z"/><path d="M115.67,166.15l-2-4.75c-.38-.91-.38-.89-1.37-.91a.58.58,0,0,0-.66.44c-.71,1.74-1.46,3.47-2.19,5.21-.06.15-.18.29-.12.5h.35c.79.11,1.45,0,1.56-1,0-.26.23-.24.42-.24h1.7a.42.42,0,0,1,.48.32c.35.9.36.89,1.36.89h.63C115.77,166.43,115.73,166.29,115.67,166.15Zm-3.88-1.94.76-2.06.75,2.06Z"/><path d="M97.68,166l-1.92-4.6c-.39-.94-.39-.92-1.41-.94a.56.56,0,0,0-.63.43c-.47,1.16-1,2.32-1.45,3.48l-1,2.24h.62c1,0,1,0,1.35-.9a.38.38,0,0,1,.43-.31h1.74c.21,0,.39,0,.42.26.14.92.75,1.07,1.54,1a2.57,2.57,0,0,1,.49,0C97.82,166.41,97.76,166.22,97.68,166Zm-2.43-1.82-1.33,0a4.54,4.54,0,0,1,.4-1.23c.07-.24.17-.47.29-.8l.73,2S95.27,164.21,95.25,164.21Z"/><path d="M69.82,162.45c-.63-.06-1.26,0-1.89,0-.28,0-.31.12-.3.34,0,.59,0,1.18,0,1.78v1.27c0,.88,0,.87.9.86.25,0,.38,0,.36-.33a1.88,1.88,0,0,1,0-.95c.18-.3.62-.09,1-.15a1.42,1.42,0,0,0,1.26-1.49A1.27,1.27,0,0,0,69.82,162.45Zm-.61,1.86c-.46,0-.3-.28-.32-.5s0-.49.37-.45.6.09.59.46S69.55,164.28,69.21,164.31Z"/><path class="cls-8" d="M114.63,155.46c.15.27.42.5.27.8-.05.11-.38.11-.46,0C114.18,156,114.61,155.76,114.63,155.46Z"/><path class="cls-9" d="M111.79,155.78c-.24.05-.35-.05-.32-.29s-.07-.4.24-.38.52,0,.56.29S112,155.73,111.79,155.78Z"/><rect class="cls-1" x="51.89" y="72.46" width="87.33" height="28.32" rx="14.16"/><path class="cls-10" d="M67.12,82.75l3.73-2.16,3-1.73a.17.17,0,0,1,.19,0q3.3,1.92,6.62,3.82a.18.18,0,0,1,.1.17V90.5a.18.18,0,0,1-.1.17l-1.75,1a.15.15,0,0,1-.09,0,.29.29,0,0,1,0-.13V84a.2.2,0,0,0-.11-.2L74,81.12a.18.18,0,0,0-.21,0l-4.68,2.7a.19.19,0,0,0-.1.17q0,3.8,0,7.59v.16l-1.94-1.12Z"/><path class="cls-10" d="M73.91,94.54a2,2,0,0,0-.31-.19l-2.5-1.44a.16.16,0,0,1-.09-.15c0-2.56,0-5.12,0-7.67,0-.06,0-.1.06-.13L72.9,83.9h0A.2.2,0,0,1,73,84v7.6a.17.17,0,0,0,.1.18c.27.14.53.3.79.45a.14.14,0,0,0,.17,0l.8-.46a.17.17,0,0,0,.1-.17c0-.84,0-1.69,0-2.53V83.9s.07,0,.09,0l1.77,1a.14.14,0,0,1,.09.15v7.67a.15.15,0,0,1-.09.15l-2.72,1.57s-.07,0-.09.06Z"/><path class="cls-11" d="M90.84,83.81c-.1.25-.19.51-.28.76-.75,2-1.54,3.93-2.31,5.89a.11.11,0,0,1-.12.08h-.44a.13.13,0,0,1-.16-.1l-1.27-3.21c-.41-1-.84-2.06-1.22-3.1,0-.11-.07-.22-.12-.34a.22.22,0,0,0,0,.13V90.4c0,.11,0,.15-.14.14s-.29,0-.43,0-.11,0-.1-.09V82.92c0-.1,0-.13.13-.13h.76a.12.12,0,0,1,.14.09q1.08,2.76,2.18,5.52l.42,1.06s0,.07.06.1l.36-.93L90.5,82.9c0-.08.06-.11.15-.11h.76c.15,0,.15,0,.15.15v7.52c0,.06,0,.08-.08.08h-.55c-.06,0-.09,0-.08-.07V83.81Z"/><path class="cls-11" d="M110.08,85.82l.15-.19a2.15,2.15,0,0,1,2-.8,1.83,1.83,0,0,1,.92.33,1.54,1.54,0,0,1,.64,1.31c0,1.33,0,2.66,0,4,0,.07,0,.09-.08.08h-.48c-.1,0-.11,0-.11-.11V86.71a2.09,2.09,0,0,0,0-.43,1,1,0,0,0-.75-.82,1.84,1.84,0,0,0-1.72.39,1.43,1.43,0,0,0-.51,1.13v3.44c0,.1,0,.13-.13.12h-.4c-.11,0-.15,0-.15-.14,0-1.55,0-3.1,0-4.65V85c0-.07,0-.09.09-.09H110c.08,0,.09,0,.09.09Z"/><path class="cls-11" d="M115.21,87.67c0-.69,0-1.38,0-2.06,0-.09,0-.12-.12-.12s-.43,0-.65,0c-.06,0-.09,0-.08-.08V85c0-.07,0-.09.08-.09h.66c.09,0,.11,0,.11-.11,0-.5,0-1,0-1.51,0-.08,0-.11.1-.1h.47c.1,0,.11,0,.11.11v1.5c0,.08,0,.11.1.11h.84c.07,0,.1,0,.1.1a1.93,1.93,0,0,0,0,.34c0,.09,0,.12-.11.11H116c-.08,0-.1,0-.1.1v3.89c0,.37.16.53.53.52a1.09,1.09,0,0,0,.4-.07c.08,0,.09,0,.09.07a2.8,2.8,0,0,0,0,.41.09.09,0,0,1-.07.1,1.83,1.83,0,0,1-1,0,.78.78,0,0,1-.6-.77c0-.48,0-1,0-1.44Z"/><path class="cls-11" d="M102.77,85c0-.08,0-.11-.11-.1h-.47c-.07,0-.09,0-.09.09v.7s0,.06,0,.07,0,0-.06-.07a2,2,0,0,0-1.5-.9,2.27,2.27,0,0,0-2.29,1.26,3.49,3.49,0,0,0-.1,2.88,2.22,2.22,0,0,0,2.12,1.46,2,2,0,0,0,1.77-.89.14.14,0,0,1,.09-.08,8.61,8.61,0,0,1-.06,1.35,1.32,1.32,0,0,1-1,1.06,2.77,2.77,0,0,1-1.43,0,1,1,0,0,1-.85-.77s0,0-.08,0h-.37c-.22,0-.23,0-.16.22a1.58,1.58,0,0,0,1.09,1.07,3.39,3.39,0,0,0,2.18,0,1.81,1.81,0,0,0,1.16-1.08,2.39,2.39,0,0,0,.17-.92V85Zm-.62,2.55a3,3,0,0,1-.21,1.22,1.56,1.56,0,0,1-1.5,1.06,1.59,1.59,0,0,1-1.69-1.15,3.28,3.28,0,0,1,0-2.25,1.56,1.56,0,0,1,1.17-1,1.72,1.72,0,0,1,2.13,1.45A3.73,3.73,0,0,1,102.15,87.59Z"/><path class="cls-11" d="M97.61,90.4a1.08,1.08,0,0,1,0-.18c0-.17,0-.17-.17-.14a.36.36,0,0,1-.47-.35,1.55,1.55,0,0,1,0-.22c0-1,0-2.09,0-3.14a1.42,1.42,0,0,0-1.13-1.44,3.33,3.33,0,0,0-1.63,0,1.75,1.75,0,0,0-1.44,1.61c0,.07,0,.1.08.1a3.68,3.68,0,0,1,.47,0c.08,0,.1,0,.11-.1a1.13,1.13,0,0,1,.8-1,2.29,2.29,0,0,1,1.32,0,.92.92,0,0,1,.74.69,1.69,1.69,0,0,1,0,.55.54.54,0,0,1-.37.49,3.74,3.74,0,0,1-.74.15,9,9,0,0,0-1.38.23A1.55,1.55,0,0,0,92.5,89a1.48,1.48,0,0,0,1.06,1.57,2.75,2.75,0,0,0,1,.11,2.2,2.2,0,0,0,1.65-.83l.1-.13,0,0v.14a.73.73,0,0,0,.58.73,1.27,1.27,0,0,0,.58,0A.14.14,0,0,0,97.61,90.4Zm-1.32-1.58A1.63,1.63,0,0,1,95,90.07a2.12,2.12,0,0,1-1.09,0,.91.91,0,0,1-.71-.89,1.1,1.1,0,0,1,.19-.75,1.2,1.2,0,0,1,.69-.41c.42-.1.84-.14,1.27-.22a3,3,0,0,0,1-.29A8.07,8.07,0,0,1,96.29,88.82Z"/><path class="cls-11" d="M104.42,87.86h2c.67,0,1.35,0,2,0,.11,0,.12,0,.12-.12a5.42,5.42,0,0,0-.08-.81,2.69,2.69,0,0,0-.61-1.4,2.12,2.12,0,0,0-1.69-.73A2.31,2.31,0,0,0,104,86a3.52,3.52,0,0,0-.27,2.82A2.36,2.36,0,0,0,105,90.39a2.64,2.64,0,0,0,1.51.28,2.15,2.15,0,0,0,2-1.74c0-.06,0-.08-.07-.08s-.31,0-.47,0-.1,0-.13.1a1.52,1.52,0,0,1-1.43,1.16,1.77,1.77,0,0,1-1.84-1A2.84,2.84,0,0,1,104.3,88C104.29,87.9,104.31,87.86,104.42,87.86Zm-.1-.62a2.53,2.53,0,0,1,.44-1.19,1.67,1.67,0,0,1,1.46-.69,1.59,1.59,0,0,1,1.58,1.42,3.47,3.47,0,0,1,.06.45c0,.09,0,.11-.09.11-.56,0-1.13,0-1.69,0s-1.12,0-1.68,0C104.33,87.34,104.31,87.33,104.32,87.24Z"/><path class="cls-11" d="M122.49,86.84a2.47,2.47,0,0,0-2.45-2,2.43,2.43,0,0,0-2.38,1.56,3.77,3.77,0,0,0-.2,2,2.82,2.82,0,0,0,.56,1.32,2.55,2.55,0,0,0,4.14-.25,3.44,3.44,0,0,0,.43-1.75A3.94,3.94,0,0,0,122.49,86.84Zm-.58.91a3.23,3.23,0,0,1-.25,1.27,1.8,1.8,0,0,1-3.29,0,3.07,3.07,0,0,1-.26-1.55,2.86,2.86,0,0,1,.3-1.18,1.81,1.81,0,0,1,2.94-.38,2.46,2.46,0,0,1,.51,1.21A3.68,3.68,0,0,1,121.91,87.75Z"/><path class="cls-12" d="M123.45,84.43a.68.68,0,0,0-.7.72.67.67,0,0,0,.7.72.68.68,0,0,0,.71-.72A.69.69,0,0,0,123.45,84.43Zm0,1.35a.57.57,0,0,1-.58-.65.59.59,0,0,1,.62-.62.6.6,0,0,1,.59.66A.58.58,0,0,1,123.43,85.78Z"/><path class="cls-12" d="M123.61,85.24s0-.06,0-.09a.21.21,0,0,0,.1-.25.21.21,0,0,0-.2-.17,2.26,2.26,0,0,0-.26,0c-.05,0-.06,0-.06.07v.65c0,.06,0,.08.08.08s.06,0,.06-.08V85.3s0-.08,0-.1.07,0,.1.06a1.22,1.22,0,0,1,.12.19.12.12,0,0,0,.2,0Zm-.19-.15c-.11,0-.07-.07-.08-.13s0-.12.09-.11.16,0,.15.12S123.5,85.08,123.42,85.09Z"/><rect class="cls-1" x="5.53" y="36.46" width="87.33" height="28.32" rx="14.16"/><g id="Wordmark"><g id="Wordmark-darkblue"><path id="y" class="cls-13" d="M81.12,49.36h1.56l-3,6.89H78.18l1.07-2.34-1.94-4.55h1.6l1.09,3Z"/><path id="a" class="cls-13" d="M74.06,49.3a1.64,1.64,0,0,1,1.45.72v-.66H77v4.69H75.51v-.66a1.64,1.64,0,0,1-1.45.72,2.43,2.43,0,0,1,0-4.81Zm.46,1.24a1,1,0,0,0-1,1.13,1,1,0,1,0,2,0,1,1,0,0,0-1-1.13Z"/><path id="p" class="cls-13" d="M69.61,49.3a2.45,2.45,0,0,1,0,4.85,1.73,1.73,0,0,1-1.45-.72v2.89H66.73v-7h1.43V50a1.68,1.68,0,0,1,1.45-.72Zm-.43,1.24a1.16,1.16,0,0,0,0,2.31,1.16,1.16,0,0,0,0-2.31Z"/><path id="e" class="cls-13" d="M63.92,54.11a2.42,2.42,0,0,1,0-4.84,2.22,2.22,0,0,1,2.35,2.34,3,3,0,0,1,0,.42H63a.84.84,0,0,0,.89.88.77.77,0,0,0,.75-.45h1.54a2.12,2.12,0,0,1-2.23,1.65ZM63,51.26h1.83a.81.81,0,0,0-.88-.81.89.89,0,0,0-.95.81Z"/><path id="f" class="cls-13" d="M59.27,50.54h-.52V49.36h.52v-.13c0-1.22.75-1.84,2.2-1.77V48.7c-.56-.05-.75.12-.75.62v0h.77v1.18h-.77v3.51H59.29V50.54Z"/><path id="a1" class="cls-13" d="M55.53,49.3A1.66,1.66,0,0,1,57,50v-.66h1.43v4.69H57v-.66a1.66,1.66,0,0,1-1.46.72,2.18,2.18,0,0,1-2.07-2.44,2.13,2.13,0,0,1,2.07-2.37ZM56,50.54a1,1,0,0,0-1,1.13,1,1,0,1,0,1-1.13Z"/><path id="s" class="cls-13" d="M51,54.11c-1.27,0-2.29-.62-2.33-1.84h1.54a.66.66,0,0,0,.72.66c.42,0,.69-.2.69-.55,0-1.1-3-.5-2.95-2.61,0-1.12.91-1.76,2.18-1.76s2.18.64,2.22,1.78H51.54a.65.65,0,0,0-.68-.62c-.35,0-.6.17-.6.54,0,1,2.93.56,2.93,2.54A1.92,1.92,0,0,1,51,54.11Z"/></g><g id="Wordmark-lightblue"><path id="i" class="cls-14" d="M46.58,48.12a.85.85,0,0,1,1.7,0,.86.86,0,0,1-1.7,0Zm.12,1.24h1.44v4.69H46.7Z"/><path id="t" class="cls-14" d="M43.84,50.54h-.58V49.36h.58v-1.2h1.43v1.2h.94v1.18h-.92v1.9c0,.27.13.39.44.39h.52v1.22h-.73a1.45,1.45,0,0,1-1.66-1.63V50.54Z"/><path id="l" class="cls-14" d="M41.47,47.85H42.9v6.2H41.47Z"/><path id="u" class="cls-14" d="M40.76,54.05H39.33v-.64a1.72,1.72,0,0,1-1.41.68,1.79,1.79,0,0,1-1.83-2V49.36h1.43v2.56a.91.91,0,1,0,1.81,0V49.36h1.43v4.69Z"/><path id="m" class="cls-14" d="M28.68,48.16H30.4l1.66,4.09,1.62-4.09h1.7v5.89H34V50.52l-1.33,3.53H31.46l-1.31-3.56v3.56H28.68V48.16Z"/></g></g><g id="Icon"><path id="Icon-darkblue" class="cls-13" d="M26.1,45.14,22,48.59l4.13,3.46Z"/><path id="Icon-lightblue" class="cls-14" d="M26.1,52.6l-8.92-7.46v8.91H26.1Z"/></g><rect class="cls-1" x="1" y="107.46" width="87.33" height="28.32" rx="14.16"/><path class="cls-15" d="M20.29,116.45l-5.45,10.76h2.85a2.14,2.14,0,0,0,1.88-1.15L24.19,117l-3.5-1.28Z"/><path class="cls-16" d="M23.51,122.11a.45.45,0,0,0,.23,0,.43.43,0,0,0,.23-.61l-1-1.94a6.45,6.45,0,0,0-2.72-3.07l1.66-3.31a1.17,1.17,0,0,1,1.57-.53,1.18,1.18,0,0,1,.53.53l7,14.06H28.14a2.12,2.12,0,0,1-1.88-1.16,1.23,1.23,0,0,0-.34-.41,1.09,1.09,0,0,0-.48-.21l-3.2-.57-1.36-.22,1.36-2.75Z"/><path class="cls-17" d="M38.06,119.21v3.22h-1.4V122a2.21,2.21,0,0,1-1.57.57c-1,0-1.55-.53-1.59-1.3,0-1.13.76-1.52,1.85-1.76.86-.19,1.22-.19,1.28-.48s-.25-.63-.75-.61A.79.79,0,0,0,35,119l-1.18-.26A2,2,0,0,1,36,117.21a1.85,1.85,0,0,1,2.09,2Zm-1.4,1s-.47.1-1.14.27-.68.48-.58.74.41.3.73.25a1.18,1.18,0,0,0,1-1.09Z"/><path class="cls-17" d="M44.17,119.85a2.49,2.49,0,0,1-2.46,2.67,2,2,0,0,1-1.36-.54v2.78H38.93v-7.47h1.42v.44a2,2,0,0,1,1.36-.51,2.45,2.45,0,0,1,2.46,2.63Zm-1.41,0a1.21,1.21,0,1,0-1.2,1.36A1.21,1.21,0,0,0,42.76,119.85Z"/><path class="cls-17" d="M44.73,115.77a.71.71,0,0,1,.13-.44.83.83,0,0,1,.34-.3.89.89,0,0,1,.46,0,.79.79,0,0,1,.4.22.72.72,0,0,1,.22.41.81.81,0,0,1,0,.46.8.8,0,0,1-1,.43.59.59,0,0,1-.25-.17.78.78,0,0,1-.24-.56Zm.08,1.51h1.42v5.15H44.81Z"/><path class="cls-17" d="M50.51,120.75l1.17.58a2.42,2.42,0,0,1-2.11,1.19,2.66,2.66,0,0,1,0-5.32,2.42,2.42,0,0,1,2.11,1.19l-1.17.56a1.12,1.12,0,0,0-.94-.46,1.37,1.37,0,0,0,0,2.72,1.08,1.08,0,0,0,.95-.46Z"/><path class="cls-17" d="M57.48,119.85A2.49,2.49,0,0,1,55,122.52a2,2,0,0,1-1.36-.53v.44H52.23V115h1.42v2.78a2,2,0,0,1,1.36-.52A2.46,2.46,0,0,1,57.48,119.85Zm-1.42,0a1.21,1.21,0,0,0-1.2-1.35,1.37,1.37,0,1,0,1.2,1.35Z"/><path class="cls-17" d="M62.5,119.21v3.22H61.09V122a2.17,2.17,0,0,1-1.56.57c-1,0-1.55-.53-1.59-1.3,0-1.13.77-1.53,1.85-1.76.86-.19,1.22-.19,1.29-.48s-.26-.63-.76-.61a.79.79,0,0,0-.85.61l-1.18-.26a2,2,0,0,1,2.13-1.52A1.86,1.86,0,0,1,62.5,119.21Zm-1.41,1s-.47.1-1.14.27-.67.48-.57.74.4.3.72.25a1.16,1.16,0,0,0,1-1.09Z"/><path class="cls-17" d="M67.23,120.94c0,.93-.86,1.57-2,1.57A2.27,2.27,0,0,1,63,121.28l1-.56a1.13,1.13,0,0,0,.91.5c.39,0,.81-.07.8-.34s-.25-.32-1-.56c-1.11-.4-1.6-.78-1.57-1.63s.61-1.46,1.93-1.46A1.81,1.81,0,0,1,67,118.5l-1.09.31a.65.65,0,0,0-.61-.45c-.55,0-.68.22-.68.36s.16.33,1,.57c1.21.36,1.65.87,1.62,1.65Z"/><path class="cls-17" d="M69.09,120.37a1.14,1.14,0,0,0,1.14.84,1.1,1.1,0,0,0,.94-.46l1.17.58a2.42,2.42,0,0,1-2.11,1.19,2.6,2.6,0,0,1-2.6-2.59v-.08a2.54,2.54,0,0,1,2.42-2.64h.12a2.42,2.42,0,0,1,2.38,2.65,2.24,2.24,0,0,1,0,.52Zm0-1h2.12a1,1,0,0,0-1-.87,1.07,1.07,0,0,0-1.1.87Z"/><path class="cls-18" d="M33.55,129.14a.07.07,0,0,1,0,0v-1.93a.07.07,0,0,1,0,0h1.3v0a0,0,0,0,1,0,0v.11a0,0,0,0,1,0,0v0l0,0h-1v.7h1v.18l0,0,0,0h-.93v.8s0,0,0,0l0,0,0,0h-.2Z"/><path class="cls-18" d="M35.6,129.11a.52.52,0,0,1-.24-.2.54.54,0,0,1-.08-.3.42.42,0,0,1,.11-.32,1.21,1.21,0,0,1,.3-.25,1.28,1.28,0,0,1-.2-.26.46.46,0,0,1-.06-.23.48.48,0,0,1,.07-.24.49.49,0,0,1,.2-.18.61.61,0,0,1,.56,0,.46.46,0,0,1,.23.58.64.64,0,0,1-.08.14,1.66,1.66,0,0,1-.34.25l.5.5a1.26,1.26,0,0,0,.16-.46.05.05,0,0,1,0,0H37v0a1.09,1.09,0,0,1-.07.3,1.41,1.41,0,0,1-.17.32l.3.3,0,0v.08H36.8v0l-.19-.2a1,1,0,0,1-.3.19.76.76,0,0,1-.34.06.66.66,0,0,1-.36-.08Zm.6-.2a.8.8,0,0,0,.21-.15l-.56-.55a1.3,1.3,0,0,0-.23.18.26.26,0,0,0-.08.21.32.32,0,0,0,0,.14.27.27,0,0,0,.09.12.45.45,0,0,0,.29.1.7.7,0,0,0,.25-.05Zm0-1.16a.47.47,0,0,0,.06-.09.45.45,0,0,0,0-.11.43.43,0,0,0,0-.11.31.31,0,0,0-.28-.15.26.26,0,0,0-.2.07.16.16,0,0,0-.06.08.22.22,0,0,0,0,.11.29.29,0,0,0,0,.16,1.24,1.24,0,0,0,.18.22,2.22,2.22,0,0,0,.27-.19Z"/><path class="cls-18" d="M37.54,129.14a.08.08,0,0,1,0,0v-1.93a.08.08,0,0,1,0,0h.85a.62.62,0,0,1,.47.15.44.44,0,0,1,.12.18.52.52,0,0,1,0,.21.47.47,0,0,1-.26.44.57.57,0,0,1,.22.19.61.61,0,0,1,.08.3.63.63,0,0,1-.07.3.61.61,0,0,1-.23.22.76.76,0,0,1-.33.08h-.86Zm.8-1.17a.53.53,0,0,0,.3-.09.41.41,0,0,0,.07-.11.2.2,0,0,0,0-.13.19.19,0,0,0,0-.13.41.41,0,0,0-.07-.11.46.46,0,0,0-.3-.08h-.53V128Zm0,.95a.41.41,0,0,0,.3-.1.37.37,0,0,0,0-.52.41.41,0,0,0-.3-.1h-.56v.72Z"/><path class="cls-18" d="M40.46,129.14v-2s0,0,0,0h.18a0,0,0,0,1,.05,0l0,0,.62,1.21.63-1.21,0,0h.23a.08.08,0,0,1,0,0v2s0,0,0,0h-.19s0,0,0,0a0,0,0,0,1,0,0v-1.47l-.5,1a.1.1,0,0,1,0,.05h-.2a.1.1,0,0,1,0-.05l-.5-1v1.47a0,0,0,0,1,0,0v0s0,0,0,0h-.18a.07.07,0,0,1-.09,0v0Z"/><path class="cls-18" d="M43,129.14a.53.53,0,0,1-.2-.16.48.48,0,0,1-.07-.23.33.33,0,0,1,0-.17.44.44,0,0,1,.12-.15,1,1,0,0,1,.43-.16l.44-.06v-.09c0-.2-.11-.31-.34-.31a.39.39,0,0,0-.21.06.3.3,0,0,0-.12.13l0,0h-.19v0a.25.25,0,0,1,.06-.16.43.43,0,0,1,.2-.15.65.65,0,0,1,.34-.07.62.62,0,0,1,.47.15.52.52,0,0,1,.14.39v1h-.23a0,0,0,0,1,0,0V129a.58.58,0,0,1-.19.16.71.71,0,0,1-.32.07.64.64,0,0,1-.33-.07Zm.64-.28a.58.58,0,0,0,.13-.37v-.08l-.34,0a.86.86,0,0,0-.32.1.16.16,0,0,0-.08.08.2.2,0,0,0,0,.21.16.16,0,0,0,.07.07.39.39,0,0,0,.23.07.57.57,0,0,0,.18,0,.41.41,0,0,0,.13-.1Z"/><path class="cls-18" d="M44.6,129.14v-1.5h.17l0,0v.18a.59.59,0,0,1,.49-.23.55.55,0,0,1,.44.18.71.71,0,0,1,.16.48v.89h-.23v-.87a.48.48,0,0,0-.11-.34.3.3,0,0,0-.13-.09.29.29,0,0,0-.16,0,.23.23,0,0,0-.16,0A.42.42,0,0,0,45,128a.45.45,0,0,0-.11.34v.87h-.21s0,0-.06,0Z"/><path class="cls-18" d="M46.63,129.14a.58.58,0,0,1-.19-.16.39.39,0,0,1-.07-.23.45.45,0,0,1,.15-.32,1,1,0,0,1,.44-.16l.44-.06v-.09c0-.2-.12-.31-.34-.31a.43.43,0,0,0-.22.06.37.37,0,0,0-.12.13s0,0,0,0h-.15l0,0a.08.08,0,0,1,0-.05.35.35,0,0,1,.06-.16.5.5,0,0,1,.2-.15.71.71,0,0,1,.32-.07.63.63,0,0,1,.47.16.54.54,0,0,1,.15.38v1l0,0h-.18l0,0a.08.08,0,0,1,0,0V129a.46.46,0,0,1-.18.16.7.7,0,0,1-.31.07.71.71,0,0,1-.29-.05Zm.65-.28a.5.5,0,0,0,.12-.37v-.08l-.34,0a.92.92,0,0,0-.32.1.2.2,0,0,0-.08.08.17.17,0,0,0,0,.1.43.43,0,0,0,0,.11.27.27,0,0,0,.08.07A.39.39,0,0,0,47,129a.57.57,0,0,0,.18,0,.45.45,0,0,0,.14-.1Z"/><path class="cls-18" d="M48.44,129.73a.61.61,0,0,1-.2-.19.33.33,0,0,1-.06-.19v0l0,0h.22l0,.05a.32.32,0,0,0,.37.23.46.46,0,0,0,.34-.09.41.41,0,0,0,.1-.34V129a.64.64,0,0,1-.89.07.12.12,0,0,0,0-.05.93.93,0,0,1-.16-.51v-.16a.9.9,0,0,1,.17-.53.53.53,0,0,1,.47-.2.47.47,0,0,1,.26,0,.62.62,0,0,1,.22.17v-.12s0,0,0-.05h.22s0,0,0,.05v1.46a.6.6,0,0,1-.51.68.49.49,0,0,1-.17,0,.88.88,0,0,1-.42-.09Zm.7-.92a.54.54,0,0,0,.11-.32v-.21a.6.6,0,0,0-.11-.34.45.45,0,0,0-.14-.1.25.25,0,0,0-.17,0,.36.36,0,0,0-.31.13.67.67,0,0,0-.1.34v.18a.67.67,0,0,0,.1.34.37.37,0,0,0,.31.13.32.32,0,0,0,.17,0,.45.45,0,0,0,.14-.1Z"/><path class="cls-18" d="M50.21,129a.74.74,0,0,1-.2-.51v-.2a.74.74,0,0,1,.2-.51.55.55,0,0,1,.22-.14.58.58,0,0,1,.26,0,.64.64,0,0,1,.5.21.87.87,0,0,1,.18.56v.08l0,0H50.28v0a.54.54,0,0,0,.12.34.32.32,0,0,0,.13.1.29.29,0,0,0,.16,0,.4.4,0,0,0,.22-.06l.14-.11,0,0h.22v0a.22.22,0,0,1-.08.15.57.57,0,0,1-.22.16.83.83,0,0,1-.34.07.61.61,0,0,1-.48-.19Zm.89-.72a.48.48,0,0,0-.11-.34.36.36,0,0,0-.14-.1.45.45,0,0,0-.16,0,.25.25,0,0,0-.17,0,.32.32,0,0,0-.13.1.48.48,0,0,0-.11.34Z"/><path class="cls-18" d="M51.86,129.14v-1.5h.23s0,0,0,0v.09a.58.58,0,0,1,.19-.15.59.59,0,0,1,.23,0,.5.5,0,0,1,.47.28.39.39,0,0,1,.2-.2.48.48,0,0,1,.29-.07.39.39,0,0,1,.21,0,.57.57,0,0,1,.18.12.65.65,0,0,1,.15.48v.85a0,0,0,0,1,0,0v0l0,0h-.18s0,0,0,0v-.87a.45.45,0,0,0-.1-.34.2.2,0,0,0-.12-.08.42.42,0,0,0-.27,0,.26.26,0,0,0-.11.07.52.52,0,0,0-.1.34v.88l0,0h-.18l0,0v-.88a.43.43,0,0,0-.1-.34.26.26,0,0,0-.11-.07.34.34,0,0,0-.28,0,.23.23,0,0,0-.1.07.48.48,0,0,0-.11.34v.83a0,0,0,0,1,0,0v0l0,0H52a.08.08,0,1,1-.15,0Z"/><path class="cls-18" d="M54.7,129a.74.74,0,0,1-.2-.51v-.2a.74.74,0,0,1,.2-.51.55.55,0,0,1,.22-.14.75.75,0,0,1,.26,0,.64.64,0,0,1,.5.21.87.87,0,0,1,.18.56v.08s0,0,0,0l0,0h-1v0a.54.54,0,0,0,.12.34.45.45,0,0,0,.13.1.41.41,0,0,0,.16,0,.3.3,0,0,0,.22-.06.28.28,0,0,0,.13-.11l.05,0h.18l0,0h0v0a.21.21,0,0,1-.08.16.69.69,0,0,1-.22.16.82.82,0,0,1-.34.06.57.57,0,0,1-.26,0,.65.65,0,0,1-.21-.16Zm.89-.72a.48.48,0,0,0-.11-.34.39.39,0,0,0-.3-.13.47.47,0,0,0-.17,0,.32.32,0,0,0-.13.1.48.48,0,0,0-.11.34Z"/><path class="cls-18" d="M56.35,129.14v-1.5h.23v.18a.55.55,0,0,1,.2-.17.72.72,0,0,1,.29-.06.59.59,0,0,1,.44.18.72.72,0,0,1,.16.49v.88l0,0h-.19l0,0,0,0v-.85a.52.52,0,0,0-.1-.34.67.67,0,0,0-.14-.09.29.29,0,0,0-.16,0,.23.23,0,0,0-.16,0,.42.42,0,0,0-.14.09.45.45,0,0,0-.11.34v.86l0,0H56.4Z"/><path class="cls-18" d="M58.34,128.64v-.79h-.28v-.14s0,0,0,0h.28v-.49s0,0,0,0l0,0h.2v.54H59a0,0,0,0,1,0,0s0,0,0,0v.09a0,0,0,0,1,0,0v0a0,0,0,0,1,0,0h-.36v.77a.45.45,0,0,0,0,.23.16.16,0,0,0,.08.06l.09,0H59a0,0,0,0,1,0,.05v.1s0,0,0,0l0,0h-.23c-.29,0-.44-.13-.44-.48Z"/><path class="cls-18" d="M60.36,129.14a.08.08,0,0,1,0,0v-1.93a.08.08,0,0,1,0,0h.79a.78.78,0,0,1,.53.16.68.68,0,0,1,0,.94.77.77,0,0,1-.53.15h-.53v.78l0,0h-.2Zm.78-1c.29,0,.44-.13.44-.39a.39.39,0,0,0,0-.15.42.42,0,0,0-.09-.14.45.45,0,0,0-.34-.09h-.51v.77Z"/><path class="cls-18" d="M62.33,129.14l0,0v-2s0,0,0,0l.05,0h.15l0,0s0,0,0,0a0,0,0,0,1,0,0v2s0,0,0,0a0,0,0,0,1,0,0h-.22Z"/><path class="cls-18" d="M63.29,129.14a.53.53,0,0,1-.2-.16.48.48,0,0,1-.07-.23.33.33,0,0,1,0-.17.44.44,0,0,1,.12-.15,1,1,0,0,1,.43-.16l.44-.06v-.09c0-.2-.11-.31-.34-.31a.46.46,0,0,0-.22.06.35.35,0,0,0-.11.13l0,0H63.2a.06.06,0,0,1-.06,0v0a.27.27,0,0,1,.06-.16.5.5,0,0,1,.2-.15.71.71,0,0,1,.32-.07.63.63,0,0,1,.47.16.49.49,0,0,1,.14.38v1a0,0,0,0,1,0,0v0s0,0,0,0h-.18l0,0s0,0,0,0V129a.49.49,0,0,1-.19.16.67.67,0,0,1-.31.07.6.6,0,0,1-.3-.05Zm.64-.28a.58.58,0,0,0,.13-.37v-.08l-.34,0a.8.8,0,0,0-.32.1.16.16,0,0,0-.08.08.2.2,0,0,0,0,.21l.07.07a.4.4,0,0,0,.24.07.43.43,0,0,0,.31-.12Z"/><path class="cls-18" d="M65,128.64v-.79h-.28v-.14a.07.07,0,0,1,0,0H65v-.49a.07.07,0,0,1,0,0l0,0h.2v.54h.41l0,0v.15l0,0,0,0h-.37v.77a.37.37,0,0,0,0,.23.16.16,0,0,0,.16.07h.23a.07.07,0,0,1,0,.06v.09s0,0,0,.05l0,0h-.22c-.31,0-.46-.15-.46-.5Z"/><path class="cls-18" d="M66.29,129.14s0,0,0,0a0,0,0,0,1,0,0v-1.24H66a.06.06,0,0,1,0,0v-.19h.31v-.14a.53.53,0,0,1,.11-.37.49.49,0,0,1,.38-.14H67s0,0,0,0,0,0,0,0a0,0,0,0,1,0,0v.09a0,0,0,0,1,0,0v0l0,0h-.16a.23.23,0,0,0-.19.07.34.34,0,0,0,0,.22v.13H67l0,0,0,0v.13l0,0,0,0h-.4v1.29h-.24Z"/><path class="cls-18" d="M67.45,129a.7.7,0,0,1-.19-.49v-.26a.71.71,0,0,1,.19-.48.75.75,0,0,1,1,0,.71.71,0,0,1,.19.48v.26a.75.75,0,0,1-.19.49.68.68,0,0,1-.49.18.65.65,0,0,1-.5-.18Zm.79-.16a.54.54,0,0,0,.12-.34v-.11a.24.24,0,0,0,0-.12.54.54,0,0,0-.12-.34.42.42,0,0,0-.59,0,.54.54,0,0,0-.12.34v.23a.54.54,0,0,0,.12.34.45.45,0,0,0,.3.12.45.45,0,0,0,.29-.12Z"/><path class="cls-18" d="M69.14,129.14v0a0,0,0,0,1,0,0V127.7a.07.07,0,0,1,0-.06h.2l0,0v.18a.45.45,0,0,1,.41-.2h.16a0,0,0,0,1,0,0s0,0,0,0v.11a0,0,0,0,1,0,0h-.22l-.14,0a.28.28,0,0,0-.11.08.36.36,0,0,0-.08.12.59.59,0,0,0,0,.13v.87a0,0,0,0,1,0,0s0,0,0,0h-.21Z"/><path class="cls-18" d="M70.37,129.14v0a0,0,0,0,1,0,0v-1.4s0,0,0,0a0,0,0,0,1,0,0h.22a0,0,0,0,1,0,0v.09a.5.5,0,0,1,.2-.15.46.46,0,0,1,.23,0,.47.47,0,0,1,.46.28.48.48,0,0,1,.2-.2.61.61,0,0,1,.3-.08.49.49,0,0,1,.21,0,.59.59,0,0,1,.18.13.69.69,0,0,1,.15.48v.9h-.22l0,0v-.86a.47.47,0,0,0-.1-.34l-.11-.08-.14,0a.32.32,0,0,0-.14,0,.26.26,0,0,0-.11.07.52.52,0,0,0-.1.34v.88l0,0h-.18l0,0v-.88a.43.43,0,0,0-.1-.34.26.26,0,0,0-.11-.07.35.35,0,0,0-.14,0,.35.35,0,0,0-.24.1.48.48,0,0,0-.11.34v.83a0,0,0,0,1,0,0v0l0,0H70.4s0,0,0,0Z"/><rect class="cls-1" x="96.53" y="107.75" width="87.33" height="28.32" rx="14.16"/><path class="cls-19" d="M137.29,121.73a1.88,1.88,0,0,0-.72-.52,2.37,2.37,0,0,0-.95-.19,3,3,0,0,0-1.07.19,2.36,2.36,0,0,0-.86.52,2.32,2.32,0,0,0-.58.81,3.53,3.53,0,0,0,0,2.4,2.46,2.46,0,0,0,1.44,1.34,3.21,3.21,0,0,0,1.07.18,2.9,2.9,0,0,0,1.15-.25,2.28,2.28,0,0,0,.75-.53.23.23,0,0,0,0-.31l-.69-.51-.05,0a.23.23,0,0,0-.28,0,2.79,2.79,0,0,1-.32.28,1.08,1.08,0,0,1-.63.16,1.09,1.09,0,0,1-.75-.26,1.35,1.35,0,0,1-.39-.87.12.12,0,0,1,.1-.11h3.18a.22.22,0,0,0,.22-.22v-.25a3.21,3.21,0,0,0-.16-1.06,2.33,2.33,0,0,0-.46-.81m-1,1.31h-1.74a.1.1,0,0,1-.11-.11.68.68,0,0,1,.07-.23,1,1,0,0,1,.21-.3,1.13,1.13,0,0,1,.77-.29,1,1,0,0,1,.67.27.9.9,0,0,1,.25.55A.11.11,0,0,1,136.27,123Z"/><path class="cls-19" d="M141.37,121.15h-.79a.11.11,0,0,1-.11-.11v-.37a.65.65,0,0,1,.73-.8h.34a.23.23,0,0,0,.23-.22v-.82a.23.23,0,0,0-.23-.23h-.65a2.57,2.57,0,0,0-1,.16,1.23,1.23,0,0,0-.58.43,1.61,1.61,0,0,0-.27.63,3.84,3.84,0,0,0-.08.76v.47a.1.1,0,0,1-.11.1h-.65a.24.24,0,0,0-.23.22v.77a.24.24,0,0,0,.23.22h.65a.11.11,0,0,1,.12.09v3.66a.23.23,0,0,0,.22.23h1.06a.22.22,0,0,0,.22-.22v-3.67a.13.13,0,0,1,.12-.09h.78a.22.22,0,0,0,.22-.22v-.76A.24.24,0,0,0,141.37,121.15Z"/><path class="cls-19" d="M131.66,118.73a.88.88,0,1,0,.87.89.93.93,0,0,0-.25-.62A.86.86,0,0,0,131.66,118.73Z"/><path class="cls-19" d="M132.18,121.15h-1.05a.24.24,0,0,0-.23.22v4.74a.23.23,0,0,0,.23.22h1.05a.23.23,0,0,0,.23-.22v-4.74A.22.22,0,0,0,132.18,121.15Z"/><path class="cls-19" d="M150.3,121H150a1.53,1.53,0,0,0-.84.22,1.56,1.56,0,0,0-.42.43l0,0v0a0,0,0,0,1-.06,0,.09.09,0,0,1-.08-.06v-.32a.23.23,0,0,0-.23-.23h-1.05a.22.22,0,0,0-.22.21v4.77a.24.24,0,0,0,.22.21h1.07a.22.22,0,0,0,.21-.22V124a5,5,0,0,1,0-.67,1.38,1.38,0,0,1,.17-.52.94.94,0,0,1,.4-.34,1.47,1.47,0,0,1,.55-.12h.54a.23.23,0,0,0,.23-.21v-.9A.24.24,0,0,0,150.3,121Z"/><path class="cls-19" d="M146.05,121.73a2,2,0,0,0-.73-.52,2.36,2.36,0,0,0-.94-.19,2.89,2.89,0,0,0-1.06.19,2.49,2.49,0,0,0-.87.52,2.27,2.27,0,0,0-.58.82,3.53,3.53,0,0,0,0,2.4,2.32,2.32,0,0,0,.58.81,2.43,2.43,0,0,0,.87.53,3.15,3.15,0,0,0,1.06.18,2.74,2.74,0,0,0,1.15-.25,2.59,2.59,0,0,0,.75-.52.24.24,0,0,0,0-.32l-.69-.51-.05,0a.24.24,0,0,0-.28,0,2.79,2.79,0,0,1-.32.28,1.17,1.17,0,0,1-.63.17,1.15,1.15,0,0,1-.75-.27,1.32,1.32,0,0,1-.39-.87.12.12,0,0,1,.1-.11h3.18a.22.22,0,0,0,.22-.22v-.25a3.11,3.11,0,0,0-.16-1A2.36,2.36,0,0,0,146.05,121.73Zm-1,1.3h-1.75a.1.1,0,0,1-.11-.11.68.68,0,0,1,.07-.23,1,1,0,0,1,.21-.3,1.42,1.42,0,0,1,.33-.21,1.32,1.32,0,0,1,.44-.08,1,1,0,0,1,.67.27.9.9,0,0,1,.25.55A.1.1,0,0,1,145,123Z"/><path class="cls-19" d="M130.12,124.88h-2.59a.12.12,0,0,1-.1-.1v-5.35a.22.22,0,0,0-.22-.22h-1.13a.23.23,0,0,0-.22.23v6.67a.23.23,0,0,0,.23.23h4a.23.23,0,0,0,.23-.22v-1A.24.24,0,0,0,130.12,124.88Z"/><path class="cls-19" d="M154.66,121.7a1.47,1.47,0,0,0-.69-.49,2.83,2.83,0,0,0-1.09-.17,3.48,3.48,0,0,0-1.15.2,2.82,2.82,0,0,0-.82.44.22.22,0,0,0,0,.32l.47.48a.21.21,0,0,0,.31,0,1.83,1.83,0,0,1,.38-.26,1.45,1.45,0,0,1,.68-.16.91.91,0,0,1,1,1.07.1.1,0,0,1-.11.1h-.56a6,6,0,0,0-.73.06,4.27,4.27,0,0,0-.71.15,2.25,2.25,0,0,0-.6.3,1.52,1.52,0,0,0-.43.48,1.47,1.47,0,0,0-.15.71,1.35,1.35,0,0,0,.14.66,1.43,1.43,0,0,0,.38.47,1.76,1.76,0,0,0,.56.29,2.37,2.37,0,0,0,.65.09,2.22,2.22,0,0,0,.88-.17,1.23,1.23,0,0,0,.55-.4h0a.07.07,0,0,1,.09,0,.07.07,0,0,1,0,.06v.17a.22.22,0,0,0,.22.22h1a.22.22,0,0,0,.22-.22v-2.27a7.8,7.8,0,0,0-.11-1.36,1.68,1.68,0,0,0-.35-.78m-.93,2.8a.78.78,0,0,1-.35.68,1.27,1.27,0,0,1-.37.18,1.52,1.52,0,0,1-.42.06,1,1,0,0,1-.49-.13.43.43,0,0,1-.23-.39.47.47,0,0,1,.16-.39,1,1,0,0,1,.41-.21,2,2,0,0,1,.49-.09l.43,0h.26a.14.14,0,0,1,.11.11Z"/><path class="cls-19" d="M160,121.67a1.31,1.31,0,0,0-.55-.49,2.12,2.12,0,0,0-.93-.18,1.69,1.69,0,0,0-.5.08,1.57,1.57,0,0,0-.42.18,1.48,1.48,0,0,0-.31.25l-.09.1,0,0a.08.08,0,0,1-.08-.08v-.19a.23.23,0,0,0-.23-.23h-1a.23.23,0,0,0-.23.23v4.76a.23.23,0,0,0,.23.22h1.06a.24.24,0,0,0,.23-.22V123.6a3.71,3.71,0,0,1,0-.47,1.38,1.38,0,0,1,.13-.39.69.69,0,0,1,.28-.28.85.85,0,0,1,.47-.1.66.66,0,0,1,.69.43,1.5,1.5,0,0,1,.09.42c0,.16,0,.3,0,.44v2.49a.23.23,0,0,0,.23.22h1.05a.23.23,0,0,0,.23-.22v-2.79a5.7,5.7,0,0,0-.07-.92,1.9,1.9,0,0,0-.27-.73"/><path class="cls-19" d="M165.92,118.73h-1.07a.23.23,0,0,0-.22.23v2.53c0,.05,0,.08-.08.07a.07.07,0,0,1-.06,0l0,0v0a1.45,1.45,0,0,0-.5-.31,2.62,2.62,0,0,0-.88-.15,2.06,2.06,0,0,0-.94.22,2.22,2.22,0,0,0-.69.57,2.51,2.51,0,0,0-.44.84,4,4,0,0,0,0,2.28,2.22,2.22,0,0,0,1.25,1.32,2.57,2.57,0,0,0,1,.19,1.67,1.67,0,0,0,.49-.08,1.78,1.78,0,0,0,.43-.18,2.08,2.08,0,0,0,.34-.24l.1-.1,0,0s0,0,.06,0a.07.07,0,0,1,.07.06v.23a.23.23,0,0,0,.23.23h.94a.23.23,0,0,0,.22-.24V119a.23.23,0,0,0-.22-.24m-1.49,6a1.32,1.32,0,0,1-1.78,0,1.7,1.7,0,0,1-.32-1,1.66,1.66,0,0,1,.32-1,1.34,1.34,0,0,1,1.78,0,1.64,1.64,0,0,1,.32,1A1.7,1.7,0,0,1,164.44,124.78Z"/><path class="cls-19" d="M171.13,121.84a2.49,2.49,0,0,0-.87-.52,3.21,3.21,0,0,0-2.12,0,2.48,2.48,0,0,0-1.44,1.33,3.53,3.53,0,0,0,0,2.4,2.48,2.48,0,0,0,1.44,1.33,3.21,3.21,0,0,0,2.12,0,2.52,2.52,0,0,0,.87-.53,2.39,2.39,0,0,0,.57-.8,3.56,3.56,0,0,0,0-2.41A2.35,2.35,0,0,0,171.13,121.84Zm-1,3a1.32,1.32,0,0,1-1.78,0,1.87,1.87,0,0,1,0-2.09,1.34,1.34,0,0,1,1.78,0,1.69,1.69,0,0,1,.32,1A1.64,1.64,0,0,1,170.09,124.89Z"/><path class="cls-19" d="M123.23,120.77a15,15,0,0,0-1.76-2.62.21.21,0,0,1,0-.12,20.09,20.09,0,0,0-.33-2.42.4.4,0,0,0-.35-.3l-1.16-.14h0a.24.24,0,0,0-.24.24v.41h0a16.72,16.72,0,0,0-2.34-1.77,1.06,1.06,0,0,0-1.15,0,19.11,19.11,0,0,0-6.29,6.72.47.47,0,0,0,0,.17.4.4,0,0,0,.3.38l1.15.22a.4.4,0,0,1,.29.34c0,.2.23,4.75.5,5.93a.41.41,0,0,0,.39.3h0l2,0h.06a.13.13,0,0,0,.13-.13c0-.4-.09-1.3-.14-2.26,0,0,0-.06,0-.08a.24.24,0,0,0-.11-.2,1.26,1.26,0,0,1-.61-1c-.06-1.6-.09-3.44,0-4.88a.23.23,0,1,1,.46,0v0c0,1-.06,2.1,0,3.22a.28.28,0,0,0,.55,0c0-1.12,0-2.27,0-3.23a.23.23,0,0,1,.24-.23.23.23,0,0,1,.23.24v0c-.06,1-.06,2.08,0,3.2a.28.28,0,0,0,.29.27.26.26,0,0,0,.26-.28c0-1.13,0-2.27.05-3.23a.21.21,0,0,1,.24-.21.22.22,0,0,1,.22.22v0c-.09,1.4-.06,3.18,0,4.74h0v0a1.27,1.27,0,0,1-.54,1,.27.27,0,0,0-.11.18,9.08,9.08,0,0,0,.08,1.39c0,.51.09.86.11,1a.11.11,0,0,0,.12.1h2.4a.13.13,0,0,0,.13-.11c.15-1.39.19-2.17.19-2.17a.13.13,0,0,0-.13-.13l-.79-.11a.28.28,0,0,1-.23-.2.49.49,0,0,1,0-.12c.32-4.63,1.85-6.19,1.85-6.19L119,119a.24.24,0,0,1,.34.06s0,0,0,0a.23.23,0,0,1,0,.11,54.56,54.56,0,0,1,0,5.86c-.07,1.64-.15,2.93-.15,2.93a.1.1,0,0,0,.09.1l1.31,0h0a.41.41,0,0,0,.39-.29c.27-1.18.48-5.73.5-5.93a.4.4,0,0,1,.28-.34l1.16-.22a.4.4,0,0,0,.29-.48A.24.24,0,0,0,123.23,120.77Z"/><rect class="cls-1" x="100.42" y="36" width="87.33" height="28.32" rx="14.16"/><polygon points="145.29 47.33 145.29 47.34 145.29 47.34 145.29 47.33"/><path d="M146,49.43a3.46,3.46,0,0,0-.7-2.09,2.44,2.44,0,0,0-1.82-.81h-.27a2.32,2.32,0,0,0-1.77.81h0a3.34,3.34,0,0,0-.69,2c0,.07,0,.15,0,.22s0,.15,0,.24a3.72,3.72,0,0,0,.69,2.15,2.37,2.37,0,0,0,1.81.83h.28A2.32,2.32,0,0,0,145.3,52h0a3.59,3.59,0,0,0,.68-2.11,1.62,1.62,0,0,0,0-.22A1.55,1.55,0,0,0,146,49.43Zm-2,1.66v0h0a.74.74,0,0,1-.65.36h0a.71.71,0,0,1-.62-.36h0a3.11,3.11,0,0,1-.23-1.21,2.62,2.62,0,0,1,0-.28h0c0-1.15.29-1.71.87-1.71h0c.62,0,.94.57.94,1.73v.21A3,3,0,0,1,144,51.1Z"/><polygon points="141.43 51.99 141.43 51.99 141.43 51.98 141.43 51.99"/><path class="cls-20" d="M131.66,47.88a1,1,0,0,0-.78.55h0a2.79,2.79,0,0,0-.52,1.64v0h0a2.17,2.17,0,0,0,.16.81h0c.12.34.3.52.51.56h.08a.84.84,0,0,0,.63-.28h0a2.36,2.36,0,0,0,.66-1.29h0a4.1,4.1,0,0,0,.06-.64h0a2.21,2.21,0,0,0-.17-.81v0c-.13-.35-.31-.53-.52-.57l-.11,0Z"/><path class="cls-20" d="M126.17,47.88a1,1,0,0,0-.78.55h0a2.79,2.79,0,0,0-.52,1.64v0h0a2.17,2.17,0,0,0,.16.81h0c.13.34.31.52.52.56h.08a.86.86,0,0,0,.63-.28h0a2.36,2.36,0,0,0,.66-1.29h0a4,4,0,0,0,.06-.62v0h0a2.21,2.21,0,0,0-.17-.81v0c-.13-.35-.31-.53-.52-.57l-.12,0Z"/><path d="M168,50a1.6,1.6,0,0,0,1-1.45h0v-.05a1.56,1.56,0,0,0-.66-1.28h0a2.93,2.93,0,0,0-1.64-.49h-2v6h1.61V50h0l1.3,2.72h1.7Zm-.68-1.34h0c0,.42-.35.63-1.06.64V47.85h.09a1.47,1.47,0,0,1,.73.19h0a.68.68,0,0,1,.24.52Z"/><polygon points="160.95 46.71 160.95 52.68 164.22 52.68 164.22 51.41 162.56 51.41 162.56 50.31 163.99 50.31 163.99 49.07 162.57 49.07 162.57 47.98 164.21 47.98 164.21 46.71 160.95 46.71"/><polygon points="173.58 46.7 173.58 52.67 176.85 52.67 176.85 51.39 175.19 51.39 175.19 50.3 176.61 50.3 176.61 49.07 175.19 49.07 175.19 47.97 176.84 47.97 176.84 46.7 173.58 46.7"/><path d="M154.17,46.7l-.76,6h1.52l.41-4.11,1,4.11h1.08l1-4.1.44,4.1h1.59l-.81-6H157.6L157.29,48c-.08.34-.16.7-.23,1.06l-.17.92c-.17-.92-.4-2-.69-3.32Z"/><path d="M146.88,46.7l-.77,6h1.53l.41-4.11,1,4.11h1.09l1-4.1.44,4.1h1.59l-.81-6h-2.08L150,48c-.08.34-.16.7-.23,1.06l-.17.92c-.21-1.11-.43-2.22-.68-3.32Z"/><path d="M172.17,46.54h-.12a3,3,0,0,0-3,3v.11h0v.15a3.14,3.14,0,0,0,.87,2.17h0a3,3,0,0,0,2.15.89h.12a3.55,3.55,0,0,0,.93-.15h0V51.26a3.26,3.26,0,0,1-.8.13h-.05a1.42,1.42,0,0,1-1.06-.47h0a2.09,2.09,0,0,1,0-2.5h0a1.31,1.31,0,0,1,1-.48h0a3.26,3.26,0,0,1,.9.13h0V46.66a3.89,3.89,0,0,0-.93-.11h0Z"/><path d="M139.45,46.54h-.12a3,3,0,0,0-3,3v.11h0s0,.1,0,.15a3.14,3.14,0,0,0,.87,2.17h0a3,3,0,0,0,2.15.89h.12a3.62,3.62,0,0,0,.94-.15h0V51.26a3.26,3.26,0,0,1-.79.13h-.06a1.44,1.44,0,0,1-1.06-.47h0a2.07,2.07,0,0,1-.42-1.25,2.09,2.09,0,0,1,.42-1.25h0a1.32,1.32,0,0,1,1-.48h0a3.38,3.38,0,0,1,.9.13h0V46.66a3.8,3.8,0,0,0-.92-.11h0Z"/><path class="cls-20" d="M133,44.29H115.59a2,2,0,0,0-2,2h0v6.65h0a2,2,0,0,0,2,2h8.27l3.77,2.11-.86-2.11H133a2,2,0,0,0,2-2h0V46.29h0A2,2,0,0,0,133,44.29Zm-10.41,5.43a16.17,16.17,0,0,0-.25,2.88c0,.16,0,.32,0,.49v.09a1,1,0,0,1-.11.46h0a.55.55,0,0,1-.46.31h0a.87.87,0,0,1-.69-.32h0A8.67,8.67,0,0,1,119.18,50V49.9q-.86,1.68-1.26,2.52c-.52,1-1,1.49-1.32,1.52s-.44-.18-.62-.6a35.57,35.57,0,0,1-1.42-6.46l0-.19a.49.49,0,0,1,0-.12.82.82,0,0,1,.15-.47h0a.72.72,0,0,1,.55-.27h.13a.64.64,0,0,1,.63.64h0c.28,1.83.58,3.38.89,4.65l1.92-3.65a.84.84,0,0,1,.65-.53h0c.38,0,.62.22.72.74a16.41,16.41,0,0,0,.86,3.11l0-.11a13.27,13.27,0,0,1,1.19-4.91l0,.09a.66.66,0,0,1,.57-.39h.08a.71.71,0,0,1,.47.17h0a.73.73,0,0,1,.27.5h0v.07a.74.74,0,0,1-.09.36h0a10.24,10.24,0,0,0-.84,3.12Zm5.82-.51v0a4.7,4.7,0,0,1-.7,2.46v0a2.33,2.33,0,0,1-2,1.32h0a1.84,1.84,0,0,1-.47-.06h0a2,2,0,0,1-1.4-1h0a3.27,3.27,0,0,1-.42-1.63v-.16a4.53,4.53,0,0,1,.69-2.42h0a2.35,2.35,0,0,1,2-1.31h0a1.86,1.86,0,0,1,.48.06h0a2.06,2.06,0,0,1,1.39,1h0a3.27,3.27,0,0,1,.43,1.63Zm5.48,0v0a4.69,4.69,0,0,1-.69,2.46v0a2.37,2.37,0,0,1-2,1.32h0a3.55,3.55,0,0,1-.47-.06h0a2,2,0,0,1-1.4-1h0a3.28,3.28,0,0,1-.42-1.64v-.14a4.59,4.59,0,0,1,.69-2.43h0a2.35,2.35,0,0,1,2.05-1.31h0a1.86,1.86,0,0,1,.48.06h0a2,2,0,0,1,1.39,1h0a3.26,3.26,0,0,1,.43,1.62A.49.49,0,0,1,133.91,49.22Z"/><rect class="cls-1" x="36.44" width="87.33" height="28.32" rx="14.16"/><path class="cls-19" d="M76.85,14.29a2.07,2.07,0,0,0-.72-.53,2.41,2.41,0,0,0-1-.18,3.19,3.19,0,0,0-1.06.18,2.53,2.53,0,0,0-.86.53,2.32,2.32,0,0,0-.58.81,3.42,3.42,0,0,0,0,2.4,2.46,2.46,0,0,0,1.44,1.34,3.19,3.19,0,0,0,1.06.18,2.83,2.83,0,0,0,1.15-.25,2.22,2.22,0,0,0,.76-.53.23.23,0,0,0,0-.31l-.69-.51,0,0a.23.23,0,0,0-.28,0,2.79,2.79,0,0,1-.32.28,1.16,1.16,0,0,1-.63.16,1.09,1.09,0,0,1-.75-.26,1.35,1.35,0,0,1-.39-.87.12.12,0,0,1,.1-.11h3.18a.22.22,0,0,0,.22-.23v-.24a3.45,3.45,0,0,0-.16-1.06,2.33,2.33,0,0,0-.46-.81m-1,1.31H74.09a.11.11,0,0,1-.11-.11.73.73,0,0,1,.07-.24,1,1,0,0,1,.21-.29,1.12,1.12,0,0,1,.77-.29,1,1,0,0,1,.67.27.9.9,0,0,1,.25.55A.11.11,0,0,1,75.83,15.59Z"/><path class="cls-19" d="M80.92,13.71h-.78A.11.11,0,0,1,80,13.6v-.37c0-.33.06-.54.19-.64a.79.79,0,0,1,.54-.16h.34a.24.24,0,0,0,.23-.23v-.82a.23.23,0,0,0-.23-.22h-.65a2.54,2.54,0,0,0-1,.16,1.23,1.23,0,0,0-.58.43,1.61,1.61,0,0,0-.27.63,3.82,3.82,0,0,0-.08.75v.48a.1.1,0,0,1-.11.1h-.65a.24.24,0,0,0-.23.22v.76a.23.23,0,0,0,.23.22h.65a.12.12,0,0,1,.12.1v3.66a.23.23,0,0,0,.22.23h1.06a.22.22,0,0,0,.22-.22V15a.13.13,0,0,1,.11-.09h.79a.22.22,0,0,0,.22-.22v-.76A.25.25,0,0,0,80.92,13.71Z"/><path class="cls-19" d="M71.22,11.29a.91.91,0,1,0,.61.27A.79.79,0,0,0,71.22,11.29Z"/><path class="cls-19" d="M71.74,13.71h-1a.23.23,0,0,0-.23.22v4.74a.22.22,0,0,0,.22.22h1.06a.24.24,0,0,0,.23-.22V13.93A.23.23,0,0,0,71.74,13.71Z"/><path class="cls-19" d="M89.86,13.59h-.29a1.37,1.37,0,0,0-.83.22,1.56,1.56,0,0,0-.42.43l0,0v0a0,0,0,0,1-.06,0,.09.09,0,0,1-.08-.06v-.32a.23.23,0,0,0-.23-.23h-1a.23.23,0,0,0-.23.21v4.77a.25.25,0,0,0,.23.21h1.07a.23.23,0,0,0,.21-.22V16.55a5,5,0,0,1,0-.67,1.32,1.32,0,0,1,.17-.53,1,1,0,0,1,.39-.33,1.56,1.56,0,0,1,.56-.12h.54a.24.24,0,0,0,.23-.21v-.9A.23.23,0,0,0,89.86,13.59Z"/><path class="cls-19" d="M85.6,14.29a1.9,1.9,0,0,0-.72-.53,2.36,2.36,0,0,0-.95-.18,3.09,3.09,0,0,0-1.05.18,2.68,2.68,0,0,0-.87.53,2.32,2.32,0,0,0-.58.81,3.45,3.45,0,0,0,0,2.41,2.42,2.42,0,0,0,.58.81,2.58,2.58,0,0,0,.87.53,3.13,3.13,0,0,0,1.05.18,2.68,2.68,0,0,0,1.15-.25,2.53,2.53,0,0,0,.76-.53.23.23,0,0,0,0-.31l-.69-.51-.05,0a.24.24,0,0,0-.28,0,2.79,2.79,0,0,1-.32.28,1.17,1.17,0,0,1-.63.17,1.15,1.15,0,0,1-.75-.27,1.35,1.35,0,0,1-.39-.87.12.12,0,0,1,.1-.11H86a.22.22,0,0,0,.22-.22v-.25a3.49,3.49,0,0,0-.16-1.06A2.27,2.27,0,0,0,85.6,14.29Zm-1,1.3H82.85a.11.11,0,0,1-.11-.11.73.73,0,0,1,.07-.24A1,1,0,0,1,83,15a1.42,1.42,0,0,1,.33-.21,1.27,1.27,0,0,1,.44-.08,1,1,0,0,1,.67.27.9.9,0,0,1,.25.55A.11.11,0,0,1,84.6,15.59Z"/><path class="cls-19" d="M69.68,17.44H67.09a.13.13,0,0,1-.1-.1V12a.24.24,0,0,0-.22-.23H65.64a.23.23,0,0,0-.22.24v6.66a.23.23,0,0,0,.23.24h4a.23.23,0,0,0,.23-.22v-1A.24.24,0,0,0,69.68,17.44Z"/><path class="cls-19" d="M94.22,14.25a1.62,1.62,0,0,0-.69-.49,3.07,3.07,0,0,0-1.09-.16,3.48,3.48,0,0,0-1.15.2,2.82,2.82,0,0,0-.82.44.23.23,0,0,0,0,.32L91,15a.21.21,0,0,0,.31,0,2.4,2.4,0,0,1,.38-.27,1.58,1.58,0,0,1,.68-.16.93.93,0,0,1,1,1.08.1.1,0,0,1-.11.1h-.56a6.15,6.15,0,0,0-.74.06,4.37,4.37,0,0,0-.7.15,2,2,0,0,0-.6.3,1.52,1.52,0,0,0-.43.48,1.6,1.6,0,0,0-.16.71,1.52,1.52,0,0,0,.15.66,1.43,1.43,0,0,0,.38.47,2,2,0,0,0,.56.29,2.37,2.37,0,0,0,.65.09,2.22,2.22,0,0,0,.88-.17,1.23,1.23,0,0,0,.55-.4h0a.07.07,0,0,1,.09,0,.07.07,0,0,1,0,.06v.17a.22.22,0,0,0,.22.22h.95a.22.22,0,0,0,.22-.22V16.41a7.72,7.72,0,0,0-.11-1.36,1.68,1.68,0,0,0-.35-.78m-.93,2.8a.8.8,0,0,1-.35.68,1,1,0,0,1-.37.17,1.25,1.25,0,0,1-.43.07,1,1,0,0,1-.48-.13.43.43,0,0,1-.23-.39.5.5,0,0,1,.16-.4,1,1,0,0,1,.41-.2,2,2,0,0,1,.49-.09l.42,0h.27a.14.14,0,0,1,.11.11Z"/><path class="cls-19" d="M99.59,14.23a1.44,1.44,0,0,0-.55-.49,2.14,2.14,0,0,0-.93-.18,1.69,1.69,0,0,0-.5.08,1.57,1.57,0,0,0-.42.18,1.26,1.26,0,0,0-.31.25l-.09.1-.05,0a.08.08,0,0,1-.08-.08v-.19a.24.24,0,0,0-.23-.24h-1a.23.23,0,0,0-.23.24v4.76a.23.23,0,0,0,.23.22h1.06a.24.24,0,0,0,.23-.22V16.16a3.59,3.59,0,0,1,0-.47,1.38,1.38,0,0,1,.13-.39.73.73,0,0,1,.27-.28,1,1,0,0,1,.48-.11.67.67,0,0,1,.69.44,1.43,1.43,0,0,1,.09.42c0,.15,0,.3,0,.44V18.7a.23.23,0,0,0,.23.22h1a.23.23,0,0,0,.23-.22V15.91a5.62,5.62,0,0,0-.07-.92,1.88,1.88,0,0,0-.27-.74"/><path class="cls-19" d="M105.47,11.29h-1.06a.23.23,0,0,0-.22.23v2.53s0,.08-.08.07a.06.06,0,0,1-.06,0l0,0h0a1.55,1.55,0,0,0-.5-.31,2.62,2.62,0,0,0-.88-.15,2,2,0,0,0-.94.22,2.11,2.11,0,0,0-.69.57,2.46,2.46,0,0,0-.44.83,4.06,4.06,0,0,0,0,2.29,2.54,2.54,0,0,0,.49.8,2.34,2.34,0,0,0,.76.52,2.57,2.57,0,0,0,1,.19,1.67,1.67,0,0,0,.49-.08,1.78,1.78,0,0,0,.43-.18,2.08,2.08,0,0,0,.34-.24l.09-.1,0,0a.07.07,0,0,1,0,0,.08.08,0,0,1,.08.07v.23a.22.22,0,0,0,.23.22h.94a.22.22,0,0,0,.22-.23V11.53a.24.24,0,0,0-.22-.24M104,17.34a1.32,1.32,0,0,1-1.78,0,1.71,1.71,0,0,1-.32-1.06,1.59,1.59,0,0,1,.32-1,1.34,1.34,0,0,1,1.78,0,1.63,1.63,0,0,1,.32,1A1.71,1.71,0,0,1,104,17.34Z"/><path class="cls-19" d="M110.69,14.4a2.79,2.79,0,0,0-.87-.53,3.34,3.34,0,0,0-2.12,0,2.63,2.63,0,0,0-.86.53,2.46,2.46,0,0,0-.58.81,3.53,3.53,0,0,0,0,2.4,2.48,2.48,0,0,0,1.44,1.33,3.21,3.21,0,0,0,2.12,0,2.61,2.61,0,0,0,.87-.53,2.39,2.39,0,0,0,.57-.8,3.56,3.56,0,0,0,0-2.41A2.35,2.35,0,0,0,110.69,14.4Zm-1,3a1.32,1.32,0,0,1-1.78,0,1.7,1.7,0,0,1-.32-1.05,1.67,1.67,0,0,1,.32-1,1.34,1.34,0,0,1,1.78,0,1.87,1.87,0,0,1,0,2.09Z"/><path class="cls-19" d="M62.79,13.32A15.53,15.53,0,0,0,61,10.71a.21.21,0,0,1-.05-.12c-.07-.81-.18-1.62-.33-2.42a.41.41,0,0,0-.35-.3l-1.16-.14h0a.24.24,0,0,0-.24.24v.41h0A16.72,16.72,0,0,0,56.5,6.61a1.06,1.06,0,0,0-1.15,0,19,19,0,0,0-6.29,6.71.37.37,0,0,0,0,.18.39.39,0,0,0,.3.38l1.15.22a.4.4,0,0,1,.29.34c0,.2.23,4.75.5,5.93a.4.4,0,0,0,.39.29h0c.67,0,1.29,0,2,0h.06a.12.12,0,0,0,.12-.13c0-.4-.08-1.3-.13-2.26,0,0,0-.06,0-.08a.26.26,0,0,0-.11-.2,1.26,1.26,0,0,1-.61-1c-.06-1.6-.09-3.44,0-4.88a.23.23,0,0,1,.23-.23.23.23,0,0,1,.23.24v0c0,1-.06,2.09,0,3.21a.27.27,0,0,0,.28.27.27.27,0,0,0,.27-.28c0-1.12,0-2.27,0-3.23a.23.23,0,0,1,.24-.23.23.23,0,0,1,.23.24v0c-.06,1-.07,2.08,0,3.2a.28.28,0,0,0,.28.27.27.27,0,0,0,.27-.29c0-1.12,0-2.26.05-3.22a.21.21,0,0,1,.24-.21.22.22,0,0,1,.22.22v0c-.09,1.4-.06,3.18,0,4.74h0v0a1.27,1.27,0,0,1-.54,1,.27.27,0,0,0-.11.18,9.1,9.1,0,0,0,.08,1.39c0,.51.09.86.11,1a.11.11,0,0,0,.12.1h2.4a.14.14,0,0,0,.13-.11c.15-1.39.18-2.17.18-2.17a.12.12,0,0,0-.12-.13l-.79-.11a.3.3,0,0,1-.23-.2.49.49,0,0,1,0-.12c.32-4.63,1.85-6.19,1.85-6.19l.07-.06a.24.24,0,0,1,.34.06s0,0,0,.05a.52.52,0,0,1,0,.11,54.56,54.56,0,0,1,0,5.86c-.07,1.64-.15,2.93-.15,2.93a.09.09,0,0,0,.09.09l1.31,0h0a.39.39,0,0,0,.38-.29c.28-1.19.49-5.73.51-5.93a.39.39,0,0,1,.28-.34l1.16-.22a.4.4,0,0,0,.29-.48A.41.41,0,0,1,62.79,13.32Z"/><rect class="cls-1" y="180.75" width="87.33" height="28.32" rx="14.16"/><path class="cls-21" d="M16.31,198.39V190.7H20v1.49H17.92v1.44h2v1.49h-2v1.78H20v1.49Z"/><path class="cls-21" d="M62,198.39V190.7h3.7v1.49H63.58v1.44h2v1.49h-2v1.78h2.09v1.49Z"/><path class="cls-21" d="M33.47,198.39V190.7h3.69v1.49H35.08v1.44h2v1.49h-2v1.78h2.08v1.49Z"/><path class="cls-21" d="M23.23,192.19v6.2H21.62v-6.2H20.3V190.7h4.25v1.49Z"/><path class="cls-21" d="M27.73,192.19v6.2H26.12v-6.2H24.8V190.7h4.25v1.49Z"/><path class="cls-21" d="M29.48,190.7h1.61v6.2H33v1.49H29.48Z"/><path class="cls-21" d="M37.84,190.7h2.55a2.17,2.17,0,0,1,.94.21,1.93,1.93,0,0,1,.72.55,2.49,2.49,0,0,1,.47.77,2.4,2.4,0,0,1,.17.93,4.55,4.55,0,0,1-.09.68,1.41,1.41,0,0,1-.3.64,1.39,1.39,0,0,1-.51.51,1.3,1.3,0,0,1-.72.25l2,3.1H41.16l-1.7-3h0v3H37.8V190.7Zm1.62,3.4H40a1,1,0,0,0,.76-.26,1.13,1.13,0,0,0,0-1.44,1,1,0,0,0-.76-.26h-.51Z"/><path class="cls-21" d="M49.82,192.19v6.2H48.21v-6.2H46.89V190.7h4.25v1.49Z"/><path class="cls-21" d="M51.18,194.52a6.12,6.12,0,0,1,.17-1.61,3.65,3.65,0,0,1,.55-1.23,3.28,3.28,0,0,1,.9-.81,2.94,2.94,0,0,1,1.27-.3,2.56,2.56,0,0,1,1.27.3,2.4,2.4,0,0,1,.9.81,3.65,3.65,0,0,1,.55,1.23,6.12,6.12,0,0,1,.17,1.61,6.2,6.2,0,0,1-.17,1.62,3.48,3.48,0,0,1-.55,1.23,3.24,3.24,0,0,1-.9.8,2.94,2.94,0,0,1-1.27.3,2.46,2.46,0,0,1-1.27-.3,2.06,2.06,0,0,1-.9-.8,3.84,3.84,0,0,1-.55-1.23A9.48,9.48,0,0,1,51.18,194.52Zm1.66,0a8.48,8.48,0,0,0,.08,1.15,3.91,3.91,0,0,0,.21.76.83.83,0,0,0,.39.43,1.32,1.32,0,0,0,1.1,0,.77.77,0,0,0,.38-.43,3.28,3.28,0,0,0,.22-.76,8.31,8.31,0,0,0,0-2.3,3.44,3.44,0,0,0-.22-.76.77.77,0,0,0-.38-.43,1.32,1.32,0,0,0-1.1,0,.83.83,0,0,0-.39.43,4.12,4.12,0,0,0-.21.76A8.48,8.48,0,0,0,52.84,194.52Z"/><path class="cls-21" d="M57.72,190.7h1.62v6.2h1.91v1.49H57.72Z"/><path class="cls-21" d="M66.51,190.7h2.43a2.51,2.51,0,0,1,1.31.3,3,3,0,0,1,1,.85,3.61,3.61,0,0,1,.59,1.23,5.51,5.51,0,0,1,.22,1.48,5.65,5.65,0,0,1-.22,1.49,3.61,3.61,0,0,1-.59,1.23,2.56,2.56,0,0,1-1,.81,2.61,2.61,0,0,1-1.31.3H66.51Zm1.62,6.2h.81a1,1,0,0,0,.59-.17,1.15,1.15,0,0,0,.43-.47,2.06,2.06,0,0,0,.25-.76,6.83,6.83,0,0,0,.09-1,7.43,7.43,0,0,0-.09-1,3.39,3.39,0,0,0-.25-.76,1.24,1.24,0,0,0-.43-.47,1,1,0,0,0-.59-.17h-.81Z"/><path class="cls-21" d="M72.46,194.52a6.12,6.12,0,0,1,.17-1.61,3.65,3.65,0,0,1,.55-1.23,3.28,3.28,0,0,1,.9-.81,2.94,2.94,0,0,1,1.27-.3,2.56,2.56,0,0,1,1.27.3,2.08,2.08,0,0,1,.9.81,3.65,3.65,0,0,1,.55,1.23,6.12,6.12,0,0,1,.17,1.61,6.2,6.2,0,0,1-.17,1.62,3.48,3.48,0,0,1-.55,1.23,3.24,3.24,0,0,1-.9.8,2.94,2.94,0,0,1-1.27.3,2.46,2.46,0,0,1-1.27-.3,2.38,2.38,0,0,1-.9-.8,3.84,3.84,0,0,1-.55-1.23A6.2,6.2,0,0,1,72.46,194.52Zm1.66,0a8.48,8.48,0,0,0,.08,1.15,3.28,3.28,0,0,0,.22.76.77.77,0,0,0,.38.43,1.32,1.32,0,0,0,1.1,0,.77.77,0,0,0,.38-.43,3.28,3.28,0,0,0,.22-.76,8.31,8.31,0,0,0,0-2.3,3.44,3.44,0,0,0-.22-.76.77.77,0,0,0-.38-.43,1.32,1.32,0,0,0-1.1,0,.77.77,0,0,0-.38.43,3.44,3.44,0,0,0-.22.76A4.8,4.8,0,0,0,74.12,194.52Z"/><path class="cls-21" d="M12.1,195.54l1.19-4.84h2.3v7.69H14v-5.61l-1.27,5.61H11.51l-1.28-5.61v5.61H8.62V190.7H11Z"/><rect class="cls-1" x="38.89" y="215.75" width="87.33" height="28.32" rx="14.16"/><g id="uuid-ac76341e-d288-4a5f-b01b-56e2a6dc59d4"><g id="uuid-b1275c17-eff4-4b8a-9bf0-9fb7b307e68d"><polygon class="cls-22" points="61.87 221.35 54.75 225.46 54.75 233.66 56.78 234.83 56.77 226.63 61.85 223.69 66.93 226.63 66.93 234.83 68.96 233.66 68.96 225.45 61.87 221.35"/><polygon class="cls-22" points="62.87 234.83 61.86 235.42 60.84 234.83 60.84 226.63 58.81 227.8 58.81 236 61.86 237.76 64.9 236 64.9 227.8 62.87 226.63 62.87 234.83"/><path class="cls-11" d="M73.61,225.51l2.79,7.05h0l2.72-7.05h1.06v8.08h-.73v-7h0c0,.12-.08.25-.13.38l-.13.35-.13.38-2.34,5.93h-.66l-2.37-5.93c0-.11-.09-.22-.13-.34s-.09-.24-.13-.35l-.13-.4h0v7h-.7v-8.08Z"/><path class="cls-11" d="M82.35,233.63a1.5,1.5,0,0,1-.6-.31,1.53,1.53,0,0,1-.41-.5,1.79,1.79,0,0,1-.15-.72,1.63,1.63,0,0,1,.2-.84,1.39,1.39,0,0,1,.52-.53,2.62,2.62,0,0,1,.76-.3c.31-.07.63-.13,1-.17l.73-.09a2.42,2.42,0,0,0,.48-.13.58.58,0,0,0,.28-.21.64.64,0,0,0,.08-.36v-.11a1.08,1.08,0,0,0-.36-.89,1.59,1.59,0,0,0-1-.28c-1,0-1.58.43-1.64,1.29h-.71a2,2,0,0,1,.63-1.35,2.49,2.49,0,0,1,1.7-.51,2.44,2.44,0,0,1,1.51.42,1.63,1.63,0,0,1,.55,1.39v3.18a.6.6,0,0,0,.11.37.36.36,0,0,0,.29.13h.12a.7.7,0,0,0,.14,0h0v.51a1.06,1.06,0,0,1-.19.06,1.33,1.33,0,0,1-.28,0,.9.9,0,0,1-.61-.2.89.89,0,0,1-.25-.62v-.13h0c-.1.13-.2.24-.3.35a2,2,0,0,1-.43.33,2.39,2.39,0,0,1-.58.22,3.06,3.06,0,0,1-.74.09,3.16,3.16,0,0,1-.76-.09m1.72-.62a1.89,1.89,0,0,0,.62-.38,1.5,1.5,0,0,0,.37-.53,1.63,1.63,0,0,0,.13-.61v-1.07a2.49,2.49,0,0,1-.69.25l-.83.14a5.14,5.14,0,0,0-.69.12,1.65,1.65,0,0,0-.54.19.94.94,0,0,0-.37.37,1.19,1.19,0,0,0-.14.61,1,1,0,0,0,.11.51.88.88,0,0,0,.28.33,1.23,1.23,0,0,0,.41.17,2.18,2.18,0,0,0,.5,0,2,2,0,0,0,.84-.15"/><path class="cls-11" d="M87.72,235.2a1.57,1.57,0,0,1-.67-1.09h.67a1,1,0,0,0,.54.73,2.59,2.59,0,0,0,1.09.22,1.88,1.88,0,0,0,1.4-.44,1.67,1.67,0,0,0,.45-1.22v-.93h0a2.47,2.47,0,0,1-.75.76,2.13,2.13,0,0,1-1.1.26,2.49,2.49,0,0,1-1-.22,2.41,2.41,0,0,1-.79-.59,2.8,2.8,0,0,1-.5-.93,3.93,3.93,0,0,1-.18-1.18,3.52,3.52,0,0,1,.2-1.25,2.83,2.83,0,0,1,.55-.93,2.32,2.32,0,0,1,.79-.56,2.5,2.5,0,0,1,1-.19,2.09,2.09,0,0,1,1.12.27,2.24,2.24,0,0,1,.73.74h0v-.9h.69v5.61a2.28,2.28,0,0,1-.54,1.57,2.6,2.6,0,0,1-2,.71,2.79,2.79,0,0,1-1.66-.44m3.06-3a2.89,2.89,0,0,0,.47-1.69,3.81,3.81,0,0,0-.12-1,1.87,1.87,0,0,0-.35-.74,1.53,1.53,0,0,0-.59-.48,1.85,1.85,0,0,0-.83-.17,1.58,1.58,0,0,0-1.35.64,2.78,2.78,0,0,0-.48,1.72,3.56,3.56,0,0,0,.11.92,2.41,2.41,0,0,0,.33.73,1.5,1.5,0,0,0,.57.49,1.59,1.59,0,0,0,.8.18,1.65,1.65,0,0,0,1.44-.65"/><path class="cls-11" d="M94.32,233.5a2.34,2.34,0,0,1-.86-.64,3,3,0,0,1-.52-1,3.65,3.65,0,0,1-.18-1.22,3.83,3.83,0,0,1,.19-1.21,2.88,2.88,0,0,1,.54-1,2.29,2.29,0,0,1,.83-.65,2.47,2.47,0,0,1,1.1-.23,2.45,2.45,0,0,1,1.19.27,2.12,2.12,0,0,1,.78.71,3.14,3.14,0,0,1,.42,1,5.94,5.94,0,0,1,.13,1.19H93.48a3.6,3.6,0,0,0,.14.92,2.7,2.7,0,0,0,.37.74,1.73,1.73,0,0,0,.62.49,2,2,0,0,0,.87.19,1.73,1.73,0,0,0,1.14-.36,2,2,0,0,0,.57-.95h.66a2.51,2.51,0,0,1-.79,1.39,2.34,2.34,0,0,1-1.59.51,2.78,2.78,0,0,1-1.17-.23m2.76-4.07a2.15,2.15,0,0,0-.33-.66,1.52,1.52,0,0,0-.54-.43,1.76,1.76,0,0,0-.78-.16,1.8,1.8,0,0,0-.79.16,1.76,1.76,0,0,0-.58.43,2.41,2.41,0,0,0-.38.66,3.34,3.34,0,0,0-.18.82h3.7a2.79,2.79,0,0,0-.12-.81"/><path class="cls-11" d="M99.51,227.75v.9h0a2.24,2.24,0,0,1,.77-.73,2.32,2.32,0,0,1,1.18-.29,2,2,0,0,1,1.33.47,1.76,1.76,0,0,1,.52,1.35v4.15h-.7v-4.09a1.27,1.27,0,0,0-.35-1,1.46,1.46,0,0,0-1-.31,2.06,2.06,0,0,0-.7.12,1.94,1.94,0,0,0-.58.33,1.61,1.61,0,0,0-.53,1.2v3.72h-.7v-5.84Z"/><path class="cls-11" d="M105.16,233.39a1,1,0,0,1-.31-.81v-4.26H104v-.57h.88V226h.7v1.8h1.09v.57h-1.09v4.15a.55.55,0,0,0,.14.44.73.73,0,0,0,.43.11,1.07,1.07,0,0,0,.25,0l.21-.06h0v.6a1.8,1.8,0,0,1-.65.1,1.23,1.23,0,0,1-.81-.24"/><path class="cls-11" d="M108.71,233.5a2.45,2.45,0,0,1-.85-.64,3.09,3.09,0,0,1-.54-1,4,4,0,0,1,0-2.43,2.88,2.88,0,0,1,.54-1,2.36,2.36,0,0,1,.85-.65,2.89,2.89,0,0,1,2.27,0,2.41,2.41,0,0,1,.84.65,2.7,2.7,0,0,1,.53,1,4.19,4.19,0,0,1,0,2.43,2.88,2.88,0,0,1-.53,1,2.51,2.51,0,0,1-.84.64,2.89,2.89,0,0,1-2.27,0m2-.55a1.59,1.59,0,0,0,.62-.53,2.46,2.46,0,0,0,.38-.78,3.94,3.94,0,0,0,0-1.93,2.38,2.38,0,0,0-.37-.79,2,2,0,0,0-.62-.53,2.09,2.09,0,0,0-1.73,0,1.86,1.86,0,0,0-.62.53,2.62,2.62,0,0,0-.38.79,3.72,3.72,0,0,0,0,1.93,2.62,2.62,0,0,0,.38.79,1.86,1.86,0,0,0,.62.53,2.09,2.09,0,0,0,1.73,0"/><path class="cls-11" d="M113.43,228.71a.69.69,0,0,1-.73-.67V228a.71.71,0,0,1,.67-.75h.06a.71.71,0,0,1,.74.68V228a.71.71,0,0,1-.67.75h-.07m0-1.42a.62.62,0,0,0-.63.61V228a.63.63,0,0,0,.63.63.63.63,0,0,0,.63-.63.62.62,0,0,0-.56-.67h-.07m.22,1.08-.25-.36h-.08v.33h-.14v-.82h.25c.17,0,.29.09.29.24a.22.22,0,0,1-.17.23l.24.33-.14.05Zm-.22-.71h-.11v.24h.1c.1,0,.16,0,.16-.12s-.06-.12-.15-.12"/></g></g></g></g></svg>