<?xml version="1.0" encoding="UTF-8"?>
<svg id="Layer_2" data-name="Layer 2" xmlns="http://www.w3.org/2000/svg" viewBox="0 0 242.59 58.45">
  <defs>
    <style>
      .cls-1 {
        fill: #fff;
        stroke-width: 0px;
      }
    </style>
  </defs>
  <g id="Layer_1-2" data-name="Layer 1">
    <g>
      <path class="cls-1" d="M0,21.74V1.81h6.31l8.54,13.37h.36l-.3-13.37h4.74v19.92h-5.71L4.8,7.61h-.33l.27,14.13H0Z"/>
      <path class="cls-1" d="M30.46,22.16c-1.33,0-2.52-.18-3.56-.53-1.05-.35-1.94-.87-2.67-1.55s-1.29-1.53-1.67-2.54c-.38-1.01-.57-2.16-.57-3.47s.19-2.44.56-3.5c.37-1.07.91-1.99,1.6-2.76.69-.77,1.55-1.37,2.57-1.8,1.02-.42,2.16-.63,3.43-.63s2.42.21,3.4.62c.98.41,1.78,1.02,2.42,1.83.63.81,1.1,1.79,1.4,2.94.3,1.16.4,2.48.3,3.97l-12.47.09v-2.54l9.69-.09-1.72,1.18c.14-1.01.08-1.83-.18-2.46-.26-.63-.64-1.1-1.15-1.39-.5-.29-1.05-.44-1.63-.44-.71,0-1.32.19-1.86.57s-.95.94-1.25,1.66c-.3.72-.45,1.61-.45,2.66,0,1.65.36,2.85,1.07,3.59.71.74,1.62,1.12,2.73,1.12.54,0,1-.08,1.36-.23s.66-.34.89-.57c.23-.23.41-.49.54-.77s.24-.55.32-.82l4.23.91c-.16.74-.42,1.42-.77,2.02-.35.6-.83,1.13-1.42,1.57-.59.44-1.31.78-2.14,1.01-.84.23-1.83.35-2.97.35Z"/>
      <path class="cls-1" d="M47.61,22.16c-1.33,0-2.52-.18-3.56-.53-1.05-.35-1.94-.87-2.67-1.55s-1.29-1.53-1.67-2.54c-.38-1.01-.57-2.16-.57-3.47s.19-2.44.56-3.5c.37-1.07.91-1.99,1.6-2.76.69-.77,1.55-1.37,2.57-1.8,1.02-.42,2.16-.63,3.43-.63s2.42.21,3.4.62c.98.41,1.78,1.02,2.42,1.83.63.81,1.1,1.79,1.4,2.94.3,1.16.4,2.48.3,3.97l-12.47.09v-2.54l9.69-.09-1.72,1.18c.14-1.01.08-1.83-.18-2.46-.26-.63-.64-1.1-1.15-1.39-.5-.29-1.05-.44-1.63-.44-.71,0-1.32.19-1.86.57s-.95.94-1.25,1.66c-.3.72-.45,1.61-.45,2.66,0,1.65.36,2.85,1.07,3.59.71.74,1.62,1.12,2.73,1.12.54,0,1-.08,1.36-.23s.66-.34.89-.57c.23-.23.41-.49.54-.77s.24-.55.32-.82l4.23.91c-.16.74-.42,1.42-.77,2.02-.35.6-.83,1.13-1.42,1.57-.59.44-1.31.78-2.14,1.01-.84.23-1.83.35-2.97.35Z"/>
      <path class="cls-1" d="M63.06,22.16c-1.33,0-2.49-.34-3.49-1.01-1-.67-1.78-1.64-2.34-2.9-.56-1.26-.85-2.76-.85-4.51,0-1.61.24-3.04.72-4.29.48-1.25,1.2-2.23,2.16-2.94s2.14-1.07,3.55-1.07c1.01,0,1.86.18,2.55.54s1.27.91,1.74,1.63c.46.72.83,1.64,1.12,2.75h.75c-.14-.68-.27-1.33-.39-1.95-.12-.61-.22-1.19-.29-1.72s-.11-1-.11-1.4V0h4.89v21.74h-3.99l-.06-4.71h-.66c-.22,1.21-.57,2.19-1.04,2.94-.47.75-1.07,1.31-1.78,1.66-.71.35-1.54.53-2.49.53ZM64.81,18.23c.62,0,1.15-.14,1.58-.41.43-.27.78-.62,1.04-1.04.26-.42.45-.88.57-1.36.12-.48.18-.94.18-1.36v-.63c0-.38-.05-.76-.15-1.15-.1-.38-.25-.75-.44-1.12s-.43-.68-.71-.97c-.28-.28-.61-.5-.98-.66-.37-.16-.78-.24-1.22-.24-.66,0-1.23.18-1.71.54-.47.36-.84.88-1.09,1.54-.25.66-.38,1.45-.38,2.35s.13,1.7.39,2.37c.26.67.64,1.2,1.15,1.57.5.37,1.09.56,1.75.56Z"/>
      <path class="cls-1" d="M82.26,21.74V1.81h4.86v19.92h-4.86ZM85.22,13.65v-3.92h11.99v3.92h-11.99ZM95.24,21.74V1.81h4.86v19.92h-4.86Z"/>
      <path class="cls-1" d="M110.91,22.16c-1.33,0-2.52-.18-3.56-.53-1.05-.35-1.94-.87-2.67-1.55s-1.29-1.53-1.67-2.54c-.38-1.01-.57-2.16-.57-3.47s.19-2.44.56-3.5c.37-1.07.91-1.99,1.6-2.76.69-.77,1.55-1.37,2.57-1.8,1.02-.42,2.16-.63,3.43-.63s2.42.21,3.4.62c.98.41,1.78,1.02,2.42,1.83.63.81,1.1,1.79,1.4,2.94.3,1.16.4,2.48.3,3.97l-12.47.09v-2.54l9.69-.09-1.72,1.18c.14-1.01.08-1.83-.18-2.46-.26-.63-.64-1.1-1.15-1.39-.5-.29-1.05-.44-1.63-.44-.71,0-1.32.19-1.86.57s-.95.94-1.25,1.66c-.3.72-.45,1.61-.45,2.66,0,1.65.36,2.85,1.07,3.59.71.74,1.62,1.12,2.73,1.12.54,0,1-.08,1.36-.23s.66-.34.89-.57c.23-.23.41-.49.54-.77s.24-.55.32-.82l4.23.91c-.16.74-.42,1.42-.77,2.02-.35.6-.83,1.13-1.42,1.57-.59.44-1.31.78-2.14,1.01-.84.23-1.83.35-2.97.35Z"/>
      <path class="cls-1" d="M124.04,22.16c-.89,0-1.67-.18-2.35-.53-.68-.35-1.22-.87-1.6-1.54-.38-.67-.57-1.49-.57-2.46,0-.91.18-1.66.53-2.25.35-.59.87-1.07,1.54-1.42.67-.35,1.48-.64,2.43-.88.95-.23,2.02-.44,3.23-.62.58-.1,1.07-.2,1.46-.29.39-.09.69-.24.89-.44s.3-.49.3-.88c0-.5-.18-.94-.54-1.3-.36-.36-.95-.54-1.75-.54-.56,0-1.07.1-1.53.3-.45.2-.84.49-1.16.88-.32.38-.56.85-.72,1.39l-4.29-1.27c.26-.85.63-1.58,1.1-2.2.47-.62,1.04-1.14,1.71-1.55.66-.41,1.42-.71,2.28-.91.85-.19,1.77-.29,2.73-.29,1.61,0,2.92.26,3.94.77s1.77,1.31,2.26,2.38c.49,1.08.74,2.46.74,4.15v2.45c0,.72.02,1.45.05,2.19.03.74.07,1.47.12,2.2.05.73.12,1.47.2,2.22h-4.29c-.08-.46-.16-1.02-.24-1.68-.08-.65-.14-1.32-.18-2.01h-.57c-.28.77-.69,1.46-1.22,2.1s-1.18,1.13-1.93,1.48c-.75.35-1.61.53-2.55.53ZM126.25,18.72c.36,0,.73-.06,1.1-.2.37-.13.73-.31,1.07-.54s.65-.52.94-.86c.28-.34.49-.71.63-1.12l-.06-2.38.66.15c-.38.24-.81.43-1.27.57-.46.14-.93.25-1.4.33s-.94.17-1.39.26c-.45.09-.86.21-1.21.35-.35.14-.63.33-.83.57-.2.24-.3.57-.3,1,0,.56.19,1.02.57,1.36.38.34.88.51,1.48.51Z"/>
      <path class="cls-1" d="M140.62,21.74l-5.22-15.91h5.4l3.02,12.11h.51l3.08-12.11h5.16l-5.25,15.91h-6.7Z"/>
      <path class="cls-1" d="M160.06,27.29c-.81,0-1.63-.07-2.48-.21-.84-.14-1.65-.35-2.4-.62-.75-.27-1.4-.63-1.95-1.07l1.18-4.32c.7.66,1.55,1.16,2.55,1.48,1,.32,1.96.48,2.88.48,1.07,0,1.95-.21,2.64-.62.69-.41,1.23-1.05,1.6-1.9.37-.85.59-1.92.65-3.19l.15-2.63h-.72c-.18,1.31-.5,2.37-.95,3.2-.45.83-1.03,1.43-1.72,1.83-.69.39-1.51.59-2.46.59-1.17,0-2.14-.29-2.93-.88-.78-.58-1.37-1.46-1.77-2.64-.39-1.18-.59-2.64-.59-4.39v-6.61h4.89v5.4c0,1.85.19,3.17.56,3.97.37.8.96,1.19,1.77,1.19.42,0,.8-.12,1.15-.36.34-.24.63-.58.88-1.03.24-.44.43-.98.56-1.62.13-.63.2-1.34.2-2.13v-5.43h4.86v11.71c0,1.27-.12,2.43-.35,3.47-.23,1.05-.57,1.96-1.03,2.75-.45.78-1.02,1.44-1.71,1.98s-1.48.93-2.38,1.19c-.91.26-1.93.39-3.08.39Z"/>
      <path class="cls-1" d="M177.72,21.74V1.81h4.86v19.92h-4.86ZM179.98,21.74v-3.92h5.77c1.05,0,1.92-.22,2.63-.66.7-.44,1.23-1.11,1.58-1.99.35-.89.53-1.99.53-3.32,0-1.07-.11-1.98-.33-2.75-.22-.76-.55-1.39-.98-1.89-.43-.49-.99-.86-1.66-1.1-.67-.24-1.46-.36-2.37-.36h-5.16V1.81h4.98c2.48,0,4.5.39,6.07,1.18s2.72,1.91,3.44,3.37,1.09,3.21,1.09,5.24c0,1.57-.19,2.93-.56,4.08-.37,1.15-.88,2.11-1.52,2.88-.64.78-1.38,1.4-2.22,1.87-.84.47-1.71.81-2.63,1.01s-1.83.3-2.73.3h-5.92Z"/>
      <path class="cls-1" d="M203.5,22.16c-1.89,0-3.32-.64-4.27-1.92-.96-1.28-1.43-3.23-1.43-5.84V5.8h4.89v7.97c0,1.49.22,2.6.66,3.34.44.73,1.12,1.1,2.02,1.1.54,0,1.01-.14,1.4-.41.39-.27.72-.65,1-1.15.27-.49.47-1.06.6-1.71.13-.64.2-1.35.2-2.11v-7.03h4.86v15.94h-3.86l-.09-4.92h-.6c-.3,1.25-.68,2.27-1.13,3.06s-1.02,1.37-1.71,1.74c-.68.36-1.53.54-2.54.54Z"/>
      <path class="cls-1" d="M222.64,22.13c-1.87,0-3.25-.5-4.14-1.49-.89-1-1.33-2.59-1.33-4.78v-6.25h-2.26l.09-3.77h1.63c.64-.02,1.13-.12,1.46-.3s.54-.52.62-1.03l.39-2.23h2.75v3.53h3.83v3.95h-3.83v5.89c0,.68.17,1.19.5,1.51.33.32.84.48,1.52.48.38,0,.74-.04,1.09-.12.34-.08.62-.19.85-.33v4.5c-.64.2-1.23.33-1.77.38s-1,.08-1.4.08Z"/>
      <path class="cls-1" d="M234.05,27.29c-.81,0-1.63-.07-2.48-.21-.84-.14-1.65-.35-2.4-.62-.75-.27-1.4-.63-1.95-1.07l1.18-4.32c.7.66,1.55,1.16,2.55,1.48,1,.32,1.96.48,2.88.48,1.07,0,1.95-.21,2.64-.62.69-.41,1.23-1.05,1.6-1.9.37-.85.59-1.92.65-3.19l.15-2.63h-.72c-.18,1.31-.5,2.37-.95,3.2-.45.83-1.03,1.43-1.72,1.83-.69.39-1.51.59-2.46.59-1.17,0-2.14-.29-2.93-.88-.78-.58-1.37-1.46-1.77-2.64-.39-1.18-.59-2.64-.59-4.39v-6.61h4.89v5.4c0,1.85.19,3.17.56,3.97.37.8.96,1.19,1.77,1.19.42,0,.8-.12,1.15-.36.34-.24.63-.58.88-1.03.24-.44.43-.98.56-1.62.13-.63.2-1.34.2-2.13v-5.43h4.86v11.71c0,1.27-.12,2.43-.35,3.47-.23,1.05-.57,1.96-1.03,2.75-.45.78-1.02,1.44-1.71,1.98s-1.48.93-2.38,1.19c-.91.26-1.93.39-3.08.39Z"/>
      <path class="cls-1" d="M18.46,53.32c-1.57,0-2.98-.21-4.23-.63-1.25-.42-2.31-1.07-3.18-1.93-.88-.86-1.54-1.93-1.99-3.18-.45-1.26-.68-2.73-.68-4.42s.23-3.25.69-4.56c.46-1.31,1.13-2.42,2.01-3.32.88-.91,1.91-1.58,3.09-2.04,1.19-.45,2.51-.68,3.96-.68,1.15,0,2.2.14,3.15.42s1.79.7,2.49,1.25c.7.55,1.25,1.22,1.65,1.99.39.77.6,1.66.62,2.64l-4.5,1.24c0-.83-.18-1.5-.53-2.02-.35-.52-.79-.92-1.33-1.19-.53-.27-1.11-.41-1.74-.41-.5,0-1.02.11-1.55.32-.53.21-1.02.56-1.46,1.06s-.79,1.14-1.06,1.95c-.26.81-.39,1.81-.39,3.02,0,1.57.22,2.84.66,3.8.44.97,1.06,1.68,1.84,2.13s1.65.68,2.6.68c1.05,0,1.86-.23,2.43-.68.57-.45.98-1.02,1.22-1.71s.37-1.38.39-2.08l4.23.66c-.02,1.09-.18,2.1-.48,3.05-.3.95-.78,1.77-1.43,2.46-.65.69-1.51,1.23-2.58,1.62-1.07.38-2.37.57-3.89.57Z"/>
      <path class="cls-1" d="M36.15,53.32c-1.61,0-3.03-.31-4.27-.94-1.24-.62-2.21-1.56-2.91-2.81-.7-1.25-1.06-2.81-1.06-4.68s.35-3.43,1.06-4.66,1.68-2.16,2.93-2.78c1.25-.61,2.68-.92,4.29-.92s3.04.31,4.29.94c1.25.62,2.22,1.55,2.93,2.79.7,1.24,1.06,2.79,1.06,4.66s-.36,3.49-1.09,4.74-1.72,2.17-2.97,2.76c-1.26.59-2.67.89-4.24.89ZM36.3,49.79c.72,0,1.33-.17,1.81-.5.48-.33.84-.84,1.09-1.52.24-.68.36-1.53.36-2.54,0-1.07-.13-1.97-.39-2.7-.26-.73-.65-1.3-1.16-1.69-.51-.39-1.17-.59-1.98-.59-.68,0-1.27.17-1.77.5s-.86.84-1.1,1.52c-.24.68-.36,1.54-.36,2.57,0,1.65.31,2.89.92,3.71.61.83,1.47,1.24,2.58,1.24Z"/>
      <path class="cls-1" d="M46.54,52.9v-15.94h3.92l.06,4.68h.6c.26-1.13.63-2.07,1.12-2.84.48-.76,1.1-1.33,1.84-1.71s1.62-.56,2.63-.56c1.87,0,3.3.65,4.27,1.96.98,1.31,1.46,3.39,1.46,6.25v8.15h-4.89v-7.61c0-1.65-.24-2.85-.71-3.61-.47-.75-1.17-1.13-2.1-1.13-.76,0-1.39.23-1.89.69-.49.46-.86,1.08-1.1,1.84-.24.76-.36,1.62-.36,2.57v7.25h-4.86Z"/>
      <path class="cls-1" d="M68.33,52.9l-5.22-15.91h5.4l3.02,12.11h.51l3.08-12.11h5.16l-5.25,15.91h-6.7Z"/>
      <path class="cls-1" d="M88.89,53.32c-1.33,0-2.52-.18-3.56-.53-1.05-.35-1.94-.87-2.67-1.55s-1.29-1.53-1.67-2.54c-.38-1.01-.57-2.16-.57-3.47s.19-2.44.56-3.5c.37-1.07.91-1.99,1.6-2.76.69-.77,1.55-1.37,2.57-1.8,1.02-.42,2.16-.63,3.43-.63s2.42.21,3.4.62c.98.41,1.78,1.02,2.42,1.83.63.81,1.1,1.79,1.4,2.94.3,1.16.4,2.48.3,3.97l-12.47.09v-2.54l9.69-.09-1.72,1.18c.14-1.01.08-1.83-.18-2.46-.26-.63-.64-1.1-1.15-1.39-.5-.29-1.05-.44-1.63-.44-.71,0-1.32.19-1.86.57s-.95.94-1.25,1.66c-.3.72-.45,1.61-.45,2.66,0,1.65.36,2.85,1.07,3.59.71.74,1.62,1.12,2.73,1.12.54,0,1-.08,1.36-.23s.66-.34.89-.57c.23-.23.41-.49.54-.77s.24-.55.32-.82l4.23.91c-.16.74-.42,1.42-.77,2.02-.35.6-.83,1.13-1.42,1.57-.59.44-1.31.78-2.14,1.01-.84.23-1.83.35-2.97.35Z"/>
      <path class="cls-1" d="M104.41,58.45c-.81,0-1.63-.07-2.48-.21-.84-.14-1.65-.35-2.4-.62-.75-.27-1.4-.63-1.95-1.07l1.18-4.32c.7.66,1.55,1.16,2.55,1.48,1,.32,1.96.48,2.88.48,1.07,0,1.95-.21,2.64-.62.69-.41,1.23-1.05,1.6-1.9.37-.85.59-1.92.65-3.19l.15-2.63h-.72c-.18,1.31-.5,2.37-.95,3.2-.45.83-1.03,1.43-1.72,1.83-.69.39-1.51.59-2.46.59-1.17,0-2.14-.29-2.93-.88-.78-.58-1.37-1.46-1.77-2.64-.39-1.18-.59-2.64-.59-4.39v-6.61h4.89v5.4c0,1.85.19,3.17.56,3.97.37.8.96,1.19,1.77,1.19.42,0,.8-.12,1.15-.36.34-.24.63-.58.88-1.03.24-.44.43-.98.56-1.62.13-.63.2-1.34.2-2.13v-5.43h4.86v11.71c0,1.27-.12,2.43-.35,3.47-.23,1.05-.57,1.96-1.03,2.75-.45.78-1.02,1.44-1.71,1.98s-1.48.93-2.38,1.19c-.91.26-1.93.39-3.08.39Z"/>
      <path class="cls-1" d="M123.21,53.32c-1.61,0-3.03-.31-4.27-.94-1.24-.62-2.21-1.56-2.91-2.81-.7-1.25-1.06-2.81-1.06-4.68s.35-3.43,1.06-4.66,1.68-2.16,2.93-2.78c1.25-.61,2.68-.92,4.29-.92s3.04.31,4.29.94c1.25.62,2.22,1.55,2.93,2.79.7,1.24,1.06,2.79,1.06,4.66s-.36,3.49-1.09,4.74-1.72,2.17-2.97,2.76c-1.26.59-2.67.89-4.24.89ZM123.36,49.79c.72,0,1.33-.17,1.81-.5.48-.33.84-.84,1.09-1.52.24-.68.36-1.53.36-2.54,0-1.07-.13-1.97-.39-2.7-.26-.73-.65-1.3-1.16-1.69-.51-.39-1.17-.59-1.98-.59-.68,0-1.27.17-1.77.5s-.86.84-1.1,1.52c-.24.68-.36,1.54-.36,2.57,0,1.65.31,2.89.92,3.71.61.83,1.47,1.24,2.58,1.24Z"/>
      <path class="cls-1" d="M133.6,52.9v-15.94h3.98l.09,5.4h.6c.14-1.41.41-2.53.8-3.37.39-.83.96-1.44,1.69-1.83.74-.38,1.65-.57,2.73-.57.16,0,.34,0,.54.02.2.01.43.04.69.08l-.18,5.19c-.32-.16-.67-.27-1.04-.32-.37-.05-.7-.08-.98-.08-.79,0-1.46.15-2.04.45-.57.3-1.03.77-1.36,1.39-.33.62-.55,1.41-.65,2.35v7.21h-4.89Z"/>
      <path class="cls-1" d="M152.5,52.9v-19.92h8.6c1.25,0,2.37.11,3.37.32s1.85.53,2.55.97c.7.43,1.24.99,1.62,1.66.37.67.56,1.47.56,2.4,0,.78-.17,1.47-.5,2.05-.33.58-.85,1.06-1.55,1.42-.71.36-1.64.6-2.81.72v.51c1.93.12,3.36.58,4.29,1.39.92.81,1.39,1.89,1.39,3.26,0,1.17-.31,2.13-.94,2.9-.62.77-1.54,1.34-2.75,1.74-1.21.39-2.7.59-4.47.59h-9.36ZM157.15,41.34h3.17c1.43,0,2.48-.2,3.14-.59.67-.39,1-.98,1-1.77s-.31-1.32-.92-1.68c-.61-.35-1.54-.53-2.79-.53h-3.59v4.56ZM157.15,49.03h4.53c1.23,0,2.13-.18,2.72-.53.58-.35.88-.91.88-1.68,0-.85-.35-1.48-1.06-1.9-.7-.42-1.78-.63-3.23-.63h-3.83v4.74Z"/>
      <path class="cls-1" d="M180,53.32c-1.33,0-2.52-.18-3.56-.53-1.05-.35-1.94-.87-2.67-1.55s-1.29-1.53-1.67-2.54c-.38-1.01-.57-2.16-.57-3.47s.19-2.44.56-3.5c.37-1.07.91-1.99,1.6-2.76.69-.77,1.55-1.37,2.57-1.8,1.02-.42,2.16-.63,3.43-.63s2.42.21,3.4.62c.98.41,1.78,1.02,2.42,1.83.63.81,1.1,1.79,1.4,2.94.3,1.16.4,2.48.3,3.97l-12.47.09v-2.54l9.69-.09-1.72,1.18c.14-1.01.08-1.83-.18-2.46-.26-.63-.64-1.1-1.15-1.39-.5-.29-1.05-.44-1.63-.44-.71,0-1.32.19-1.86.57s-.95.94-1.25,1.66c-.3.72-.45,1.61-.45,2.66,0,1.65.36,2.85,1.07,3.59.71.74,1.62,1.12,2.73,1.12.54,0,1-.08,1.36-.23s.66-.34.89-.57c.23-.23.41-.49.54-.77s.24-.55.32-.82l4.23.91c-.16.74-.42,1.42-.77,2.02-.35.6-.83,1.13-1.42,1.57-.59.44-1.31.78-2.14,1.01-.84.23-1.83.35-2.97.35Z"/>
      <path class="cls-1" d="M189.39,52.9v-21.74h4.77v21.74h-4.77Z"/>
      <path class="cls-1" d="M203.45,53.29c-1.87,0-3.25-.5-4.14-1.49-.89-1-1.33-2.59-1.33-4.78v-6.25h-2.26l.09-3.77h1.63c.64-.02,1.13-.12,1.46-.3s.54-.52.62-1.03l.39-2.23h2.75v3.53h3.83v3.95h-3.83v5.89c0,.68.17,1.19.5,1.51.33.32.84.48,1.52.48.38,0,.74-.04,1.09-.12.34-.08.62-.19.85-.33v4.5c-.64.2-1.23.33-1.77.38s-1,.08-1.4.08Z"/>
      <path class="cls-1" d="M215.26,53.32c-1.07,0-2.03-.1-2.9-.29s-1.62-.47-2.26-.83c-.64-.36-1.17-.8-1.58-1.31-.41-.51-.7-1.08-.86-1.71l3.62-1.6c.14.34.39.69.74,1.04.35.35.82.64,1.42.86.59.22,1.31.33,2.16.33s1.43-.12,1.89-.35.68-.57.68-1.01c0-.32-.12-.58-.38-.77-.25-.19-.63-.36-1.13-.51-.5-.15-1.13-.3-1.87-.44-.76-.16-1.54-.35-2.32-.56-.79-.21-1.52-.5-2.2-.88-.68-.37-1.23-.87-1.64-1.48-.41-.61-.62-1.39-.62-2.34s.26-1.85.79-2.58c.52-.73,1.3-1.31,2.34-1.74,1.04-.42,2.3-.63,3.79-.63,1.33,0,2.5.17,3.5.51,1.01.34,1.85.83,2.52,1.46.67.63,1.14,1.39,1.4,2.28l-3.89,1.39c-.1-.44-.31-.83-.62-1.15-.31-.32-.71-.57-1.18-.74s-1.03-.26-1.67-.26c-.79,0-1.39.12-1.83.36s-.65.56-.65.97c0,.32.15.59.44.8s.71.39,1.25.53c.54.14,1.19.29,1.93.45.79.16,1.57.35,2.34.56s1.48.49,2.11.85c.63.35,1.14.81,1.51,1.39.37.57.56,1.31.56,2.22,0,1.07-.28,1.99-.85,2.76-.56.78-1.39,1.37-2.49,1.78-1.1.41-2.44.62-4.03.62Z"/>
      <path class="cls-1" d="M225.49,46.08c-.08-.86-.03-1.57.17-2.13s.46-1.02.8-1.39c.34-.37.72-.69,1.13-.97.41-.27.81-.54,1.19-.8.38-.26.69-.57.94-.92.24-.35.36-.79.36-1.31,0-.7-.21-1.21-.62-1.52-.41-.31-.97-.47-1.67-.47-.44,0-.92.06-1.43.17-.51.11-1.03.26-1.54.45-.51.19-1.01.41-1.49.65l-.21-4.11c.58-.28,1.17-.51,1.77-.68.59-.17,1.19-.3,1.8-.39.6-.09,1.18-.14,1.72-.14.89,0,1.71.11,2.48.33.76.22,1.44.56,2.04,1.01.59.45,1.06,1.02,1.4,1.69.34.67.51,1.47.51,2.4,0,.85-.14,1.55-.41,2.11s-.62,1.05-1.04,1.45c-.42.4-.87.76-1.33,1.07-.46.31-.91.62-1.33.94s-.76.67-1.01,1.07c-.25.4-.37.9-.35,1.48h-3.86ZM227.63,53.29c-1.05,0-1.83-.22-2.34-.66-.51-.44-.77-1.13-.77-2.05s.26-1.64.77-2.08c.51-.44,1.29-.66,2.34-.66s1.86.22,2.38.66c.52.44.79,1.14.79,2.08,0,1.81-1.06,2.72-3.17,2.72Z"/>
    </g>
  </g>
</svg>