<svg xmlns="http://www.w3.org/2000/svg" viewBox="0 0 116 37.62"><defs><style>.cls-1{fill:#fff;}.cls-2{fill:#fcc11a;}.cls-3{fill:#ffd200;}.cls-4{fill:#222;}.cls-5{fill:#515151;}</style></defs><g id="Layer_2" data-name="Layer 2"><g id="Layer_1-2" data-name="Layer 1"><rect class="cls-1" width="116" height="37.62" rx="18.81"/><path class="cls-2" d="M28,12.84,21.22,26.22h3.56a2.66,2.66,0,0,0,2.33-1.43l5.75-11.33-4.35-1.6Z"/><path class="cls-3" d="M32,19.88a.7.7,0,0,0,.29,0,.56.56,0,0,0,.35-.47.49.49,0,0,0-.06-.29l-1.21-2.42A8.06,8.06,0,0,0,28,12.85l2.07-4.12A1.44,1.44,0,0,1,32,8.08a1.48,1.48,0,0,1,.66.65l8.71,17.49H37.77a2.58,2.58,0,0,1-1.38-.4,2.63,2.63,0,0,1-1-1.05,1.36,1.36,0,0,0-.42-.5,1.47,1.47,0,0,0-.6-.26l-4-.71L28.74,23l1.69-3.42Z"/><path class="cls-4" d="M50.11,16.27v4H48.36v-.6a2.78,2.78,0,0,1-1.94.71,1.74,1.74,0,0,1-2-1.63c0-1.39,1-1.88,2.3-2.18,1.07-.23,1.53-.23,1.6-.59s-.31-.79-.93-.76a1,1,0,0,0-1.06.76l-1.47-.32a2.52,2.52,0,0,1,2.64-1.89,2.3,2.3,0,0,1,2.6,2.49Zm-1.75,1.19s-.58.12-1.41.33c-.65.17-.85.6-.72.92s.5.37.9.3a1.43,1.43,0,0,0,1.23-1.35Z"/><path class="cls-4" d="M57.71,17.07a3.09,3.09,0,0,1-3.07,3.31A2.39,2.39,0,0,1,53,19.72v3.45H51.2V13.88H53v.55a2.43,2.43,0,0,1,1.68-.64,3.06,3.06,0,0,1,3.07,3.28Zm-1.76,0a1.51,1.51,0,0,0-1.49-1.69A1.53,1.53,0,0,0,53,17.07a1.51,1.51,0,1,0,3,0Z"/><path class="cls-4" d="M58.4,12a1,1,0,0,1,.16-.56.92.92,0,0,1,.42-.36,1,1,0,0,1,.57-.07,1.05,1.05,0,0,1,.51.27,1,1,0,0,1,.22,1.08,1,1,0,0,1-.36.45,1,1,0,0,1-.55.17A.84.84,0,0,1,59,12.9a.75.75,0,0,1-.32-.21,1,1,0,0,1-.29-.69Zm.1,1.87h1.76v6.41H58.5Z"/><path class="cls-4" d="M65.59,18.19l1.46.72a3,3,0,0,1-2.63,1.47,3.31,3.31,0,0,1,0-6.61,3,3,0,0,1,2.63,1.48l-1.46.7a1.38,1.38,0,0,0-1.17-.57,1.51,1.51,0,0,0-1.5,1.69,1.51,1.51,0,0,0,1.49,1.69,1.36,1.36,0,0,0,1.18-.57Z"/><path class="cls-4" d="M74.25,17.07a3.09,3.09,0,0,1-3.06,3.31,2.5,2.5,0,0,1-1.69-.65v.55H67.74V11H69.5v3.46a2.46,2.46,0,0,1,1.69-.66A3.07,3.07,0,0,1,74.25,17.07Zm-1.75,0a1.52,1.52,0,1,0-3,0,1.52,1.52,0,1,0,3,0Z"/><path class="cls-4" d="M80.5,16.27v4H78.75v-.6a2.76,2.76,0,0,1-1.94.71c-1.24,0-1.93-.66-2-1.63,0-1.39,1-1.89,2.3-2.18,1.07-.23,1.52-.23,1.6-.59s-.32-.79-.94-.76a1,1,0,0,0-1.06.75l-1.46-.32a2.53,2.53,0,0,1,2.64-1.89A2.31,2.31,0,0,1,80.5,16.27Zm-1.75,1.19s-.58.12-1.41.33c-.65.17-.85.6-.72.92s.51.37.9.3a1.43,1.43,0,0,0,1.23-1.35Z"/><path class="cls-4" d="M86.38,18.43c0,1.15-1.07,1.94-2.53,1.94a2.8,2.8,0,0,1-2.72-1.53l1.26-.69a1.41,1.41,0,0,0,1.14.62c.48,0,1-.09,1-.42s-.31-.4-1.2-.7c-1.39-.49-2-1-2-2,0-.89.76-1.82,2.41-1.82a2.22,2.22,0,0,1,2.35,1.58l-1.35.39a.81.81,0,0,0-.76-.57c-.68-.05-.85.28-.85.46s.2.4,1.21.7c1.51.45,2,1.09,2,2.06Z"/><path class="cls-4" d="M88.7,17.71a1.41,1.41,0,0,0,1.41,1.05,1.39,1.39,0,0,0,1.18-.57l1.45.71a3,3,0,0,1-2.63,1.48,3.23,3.23,0,0,1-3.23-3.21s0-.07,0-.1a3.14,3.14,0,0,1,3-3.29H90a3,3,0,0,1,3,3.3,2.73,2.73,0,0,1-.06.64Zm0-1.24h2.64a1.27,1.27,0,0,0-1.27-1.09,1.34,1.34,0,0,0-1.36,1.09Z"/><path class="cls-5" d="M44.5,28.62a.14.14,0,0,1,0-.06v-2.4a.19.19,0,0,1,0-.07h1.61l0,0s0,0,0,0v.14a0,0,0,0,1,0,0l0,0,0,0H44.82v.87h1.24v.23l0,0-.06,0H44.82v1a0,0,0,0,1,0,0s0,0,0,0a.06.06,0,0,1-.06,0H44.5Z"/><path class="cls-5" d="M47.05,28.59a.76.76,0,0,1-.3-.26.61.61,0,0,1-.1-.37.57.57,0,0,1,.13-.4,1.61,1.61,0,0,1,.38-.31,1.61,1.61,0,0,1-.25-.32.73.73,0,0,1-.07-.29.53.53,0,0,1,.09-.3.64.64,0,0,1,.24-.22.78.78,0,0,1,.7,0,.61.61,0,0,1,.24.21.58.58,0,0,1,.08.31.34.34,0,0,1,0,.2.39.39,0,0,1-.11.17,1.58,1.58,0,0,1-.42.31l.63.62a1.55,1.55,0,0,0,.19-.56.09.09,0,0,1,0-.06h.26v.06a1.63,1.63,0,0,1-.08.37,3,3,0,0,1-.21.4l.37.37,0,0v.1h-.3s0,0,0,0l-.24-.25a1.31,1.31,0,0,1-.37.24,1.16,1.16,0,0,1-.42.08,1,1,0,0,1-.45-.1Zm.74-.26a.8.8,0,0,0,.27-.18l-.7-.68a1,1,0,0,0-.29.22A.35.35,0,0,0,47,28a.39.39,0,0,0,0,.18.33.33,0,0,0,.11.15.56.56,0,0,0,.37.11.8.8,0,0,0,.3-.06Zm0-1.44a.44.44,0,0,0,.08-.11.32.32,0,0,0,0-.14.59.59,0,0,0,0-.13.44.44,0,0,0-.08-.11.41.41,0,0,0-.26-.09.38.38,0,0,0-.25.09.21.21,0,0,0-.08.11.31.31,0,0,0,0,.13.36.36,0,0,0,.06.2,1.39,1.39,0,0,0,.21.27,1.56,1.56,0,0,0,.34-.23Z"/><path class="cls-5" d="M49.46,28.62a.07.07,0,0,1,0-.06v-2.4a.07.07,0,0,1,0-.07h1.06a.81.81,0,0,1,.58.19.54.54,0,0,1,.15.22.65.65,0,0,1,0,.27.58.58,0,0,1-.32.54.78.78,0,0,1,.27.24.69.69,0,0,1,.1.37.85.85,0,0,1-.09.38.81.81,0,0,1-.28.27.86.86,0,0,1-.42.09H49.5Zm1-1.46a.56.56,0,0,0,.36-.1.45.45,0,0,0,.1-.14.47.47,0,0,0,0-.17.45.45,0,0,0,0-.16.41.41,0,0,0-.1-.13.56.56,0,0,0-.36-.1h-.67v.8Zm0,1.19a.52.52,0,0,0,.36-.12.46.46,0,0,0,0-.65.49.49,0,0,0-.36-.13h-.71v.9Z"/><path class="cls-5" d="M53.09,28.62V26.16a.1.1,0,0,1,0-.07h.29a.1.1,0,0,1,0,.05l.77,1.5.79-1.5a.1.1,0,0,1,0-.05h.28s0,.05,0,.07v2.46l0,0h-.24l0,0V26.73L54.43,28s0,0,0,.06l-.07,0h-.11l-.07,0,0-.06-.62-1.22v1.89l0,0h-.23a.07.07,0,0,1-.1,0l0,0Z"/><path class="cls-5" d="M56.26,28.62a.52.52,0,0,1-.24-.2.47.47,0,0,1-.09-.28.42.42,0,0,1,0-.22.43.43,0,0,1,.15-.18,1.27,1.27,0,0,1,.54-.21l.54-.07v-.11c0-.25-.14-.38-.42-.38a.5.5,0,0,0-.27.07.57.57,0,0,0-.15.16l0,.05H56.1v-.06a.32.32,0,0,1,.08-.2.63.63,0,0,1,.24-.19.88.88,0,0,1,.42-.08.78.78,0,0,1,.59.19.66.66,0,0,1,.18.48v1.25h-.28a.07.07,0,0,1,0-.06v-.16a.74.74,0,0,1-.23.2.8.8,0,0,1-.4.08.66.66,0,0,1-.41-.08Zm.8-.35a.65.65,0,0,0,.16-.46v-.1l-.43.06a.89.89,0,0,0-.39.12.22.22,0,0,0-.1.09.24.24,0,0,0,0,.26.22.22,0,0,0,.09.1.51.51,0,0,0,.29.08.71.71,0,0,0,.21,0,.59.59,0,0,0,.17-.13Z"/><path class="cls-5" d="M58.24,28.62v0a0,0,0,0,1,0,0V26.82a0,0,0,0,1,0,0v0h.21l.07,0V27a.71.71,0,0,1,.61-.28.68.68,0,0,1,.55.23.89.89,0,0,1,.19.59v1.1h-.29V27.57a.57.57,0,0,0-.13-.42.48.48,0,0,0-.16-.12.64.64,0,0,0-.2,0,.45.45,0,0,0-.2,0,.39.39,0,0,0-.17.11.6.6,0,0,0-.14.42v1.08h-.26a.06.06,0,0,1-.08,0Z"/><path class="cls-5" d="M60.77,28.62a.59.59,0,0,1-.24-.2.47.47,0,0,1-.09-.28.42.42,0,0,1,.05-.22.43.43,0,0,1,.15-.18,1.23,1.23,0,0,1,.53-.21l.55-.07v-.11c0-.25-.14-.38-.42-.38A.5.5,0,0,0,61,27a.46.46,0,0,0-.15.16l0,.05h-.19l-.06,0a.14.14,0,0,1,0-.06.32.32,0,0,1,.08-.2.57.57,0,0,1,.24-.19.8.8,0,0,1,.4-.08.78.78,0,0,1,.59.19.69.69,0,0,1,.18.47v1.23l0,.05h-.23l0,0a.09.09,0,0,1,0-.06V28.4a.74.74,0,0,1-.23.2.85.85,0,0,1-.39.08.7.7,0,0,1-.35-.06Zm.8-.35a.6.6,0,0,0,.15-.46v-.1l-.42.06a.89.89,0,0,0-.39.12.24.24,0,0,0-.11.09.28.28,0,0,0,0,.13.31.31,0,0,0,0,.13.28.28,0,0,0,.09.1.51.51,0,0,0,.29.08.71.71,0,0,0,.21,0,.59.59,0,0,0,.18-.13Z"/><path class="cls-5" d="M63,29.35a.75.75,0,0,1-.26-.24.45.45,0,0,1-.07-.23v0l0,0H63s0,0,0,.06a.43.43,0,0,0,.47.29.57.57,0,0,0,.42-.11.54.54,0,0,0,.13-.42v-.26a.79.79,0,0,1-1.11.09l-.06-.06a1.12,1.12,0,0,1-.2-.63v-.21a1,1,0,0,1,.21-.65.68.68,0,0,1,.58-.25.75.75,0,0,1,.33.06.73.73,0,0,1,.27.22v-.15a.14.14,0,0,1,0-.07h.28a.08.08,0,0,1,0,.07v1.81a.73.73,0,0,1-.63.84h-.21a1,1,0,0,1-.52-.11Zm.87-1.14a.84.84,0,0,0,.14-.4v-.26a.71.71,0,0,0-.14-.42.46.46,0,0,0-.18-.13.49.49,0,0,0-.21,0,.43.43,0,0,0-.38.17.8.8,0,0,0-.13.42v.22a.83.83,0,0,0,.13.43.45.45,0,0,0,.38.16.38.38,0,0,0,.21,0,.57.57,0,0,0,.18-.12Z"/><path class="cls-5" d="M65.22,28.45a1,1,0,0,1-.25-.64v-.25a1,1,0,0,1,.25-.63.71.71,0,0,1,.27-.18.7.7,0,0,1,.32-.05.76.76,0,0,1,.63.26,1.06,1.06,0,0,1,.22.69v.1l0,0H65.31v0a.64.64,0,0,0,.15.42.37.37,0,0,0,.15.13.34.34,0,0,0,.2,0,.45.45,0,0,0,.28-.06.79.79,0,0,0,.17-.14l0-.06h.28v0a.42.42,0,0,1-.1.2.87.87,0,0,1-.28.19.9.9,0,0,1-.42.08.78.78,0,0,1-.6-.23Zm1.11-.9a.71.71,0,0,0-.14-.42A.52.52,0,0,0,66,27a.78.78,0,0,0-.21,0,.45.45,0,0,0-.2,0,.43.43,0,0,0-.17.13.65.65,0,0,0-.14.42Z"/><path class="cls-5" d="M67.27,28.62V26.76h.25a0,0,0,0,1,0,0,.06.06,0,0,1,0,.06v.11a.71.71,0,0,1,.23-.19.77.77,0,0,1,.3-.06.6.6,0,0,1,.57.34.72.72,0,0,1,.25-.24.77.77,0,0,1,.36-.09.49.49,0,0,1,.27,0,.66.66,0,0,1,.22.15.82.82,0,0,1,.19.6v1.06a0,0,0,0,1,0,0v0l0,0h-.23l0,0V27.52a.54.54,0,0,0-.12-.42.31.31,0,0,0-.15-.1.47.47,0,0,0-.33,0,.42.42,0,0,0-.14.09.59.59,0,0,0-.12.43v1.09l0,0h-.23l0,0V27.52a.59.59,0,0,0-.12-.43.38.38,0,0,0-.15-.09.5.5,0,0,0-.34,0,.38.38,0,0,0-.13.09.6.6,0,0,0-.13.43v1.09l0,0h-.2a.09.09,0,0,1-.09.09.11.11,0,0,1-.09-.1Z"/><path class="cls-5" d="M70.8,28.45a1,1,0,0,1-.24-.64v-.25a1,1,0,0,1,.24-.63.8.8,0,0,1,.27-.18.74.74,0,0,1,.33-.05A.75.75,0,0,1,72,27a1.06,1.06,0,0,1,.22.69v.1s0,0,0,0l0,0H70.9v0a.75.75,0,0,0,.15.43.48.48,0,0,0,.16.12.45.45,0,0,0,.2,0,.47.47,0,0,0,.28-.07.43.43,0,0,0,.16-.14s0,0,.05-.05h.23l.06,0v.05a.35.35,0,0,1-.1.19,1.1,1.1,0,0,1-.28.2,1.06,1.06,0,0,1-.43.08.73.73,0,0,1-.58-.25Zm1.11-.9a.6.6,0,0,0-.14-.42A.52.52,0,0,0,71.6,27a.71.71,0,0,0-.2,0,.49.49,0,0,0-.21,0,.43.43,0,0,0-.17.13.64.64,0,0,0-.13.42Z"/><path class="cls-5" d="M72.86,28.62V26.79a0,0,0,0,1,0,0h.25a0,0,0,0,1,0,0V27a.72.72,0,0,1,.25-.21.77.77,0,0,1,.36-.07.7.7,0,0,1,.55.22.87.87,0,0,1,.2.6v1.1l0,0h-.24l0,0,0,0V27.54a.63.63,0,0,0-.12-.42.45.45,0,0,0-.17-.11.53.53,0,0,0-.57.11.6.6,0,0,0-.14.43v1.07l0,0h-.24Z"/><path class="cls-5" d="M75.33,28V27H75v-.17a.08.08,0,0,1,0-.06h.35v-.61a.08.08,0,0,1,0-.06l0,0h.26v.67h.51V27s0,0,0,0a.06.06,0,0,1-.06,0h-.45v1a.52.52,0,0,0,0,.28.25.25,0,0,0,.1.08.14.14,0,0,0,.11,0h.28s0,0,0,.06v.13s0,0,0,.06l0,0h-.28c-.36,0-.55-.17-.55-.6Z"/><path class="cls-5" d="M77.84,28.62a.14.14,0,0,1,0-.06v-2.4a.19.19,0,0,1,0-.07h1a1,1,0,0,1,.65.2.85.85,0,0,1,0,1.17,1,1,0,0,1-.65.2h-.66v.95l0,.05h-.25Zm1-1.27c.37,0,.55-.16.55-.48a.58.58,0,0,0,0-.19.39.39,0,0,0-.11-.17.63.63,0,0,0-.42-.12h-.64v1Z"/><path class="cls-5" d="M80.29,28.62l0,0v-2.5s0,0,0,0,0,0,.06,0h.19l0,0v2.56h-.28Z"/><path class="cls-5" d="M81.48,28.62a.66.66,0,0,1-.24-.2.47.47,0,0,1-.09-.28.54.54,0,0,1,0-.22.65.65,0,0,1,.15-.18,1.27,1.27,0,0,1,.54-.21l.54-.07v-.11c0-.25-.14-.38-.42-.38a.52.52,0,0,0-.27.07.57.57,0,0,0-.15.16.09.09,0,0,1,0,.05h-.18a.06.06,0,0,1-.08-.06v0a.37.37,0,0,1,.07-.2.67.67,0,0,1,.25-.19.78.78,0,0,1,.4-.08.81.81,0,0,1,.59.19.64.64,0,0,1,.17.47v1.26l0,0h-.23l0,0a.07.07,0,0,1,0-.06V28.4a.74.74,0,0,1-.23.2.92.92,0,0,1-.4.08.8.8,0,0,1-.37-.06Zm.8-.35a.65.65,0,0,0,.16-.46v-.1l-.43.06a.89.89,0,0,0-.39.12.22.22,0,0,0-.1.09.3.3,0,0,0,0,.26.22.22,0,0,0,.09.1.51.51,0,0,0,.29.08.54.54,0,0,0,.4-.15Z"/><path class="cls-5" d="M83.59,28V27h-.34v0a0,0,0,0,1,0,0v-.12s0-.05,0-.06h.35v-.61a.08.08,0,0,1,0-.06l0,0h.25v.67h.52l0,0V27l0,0-.06,0h-.46v1a.58.58,0,0,0,.06.29.16.16,0,0,0,.09.07.25.25,0,0,0,.12,0h.29a.14.14,0,0,1,0,.07v.12a.14.14,0,0,1,0,.06l0,0h-.28c-.39,0-.58-.19-.58-.62Z"/><path class="cls-5" d="M85.21,28.62V27H84.9a.06.06,0,0,1-.07,0v-.23h.38v-.18a.72.72,0,0,1,.14-.47.6.6,0,0,1,.48-.16h.25l0,0v.24l-.07,0h-.21a.29.29,0,0,0-.23.09.43.43,0,0,0-.06.27v.17H86l0,0,0,0V27l0,0L86,27h-.5v1.61h-.3Z"/><path class="cls-5" d="M86.65,28.45a.88.88,0,0,1-.23-.6v-.32a.89.89,0,0,1,.24-.6.93.93,0,0,1,1.23,0,.89.89,0,0,1,.24.6v.32a.93.93,0,0,1-.23.6.87.87,0,0,1-.63.23.8.8,0,0,1-.62-.23Zm1-.19a.71.71,0,0,0,.14-.43v-.14a.33.33,0,0,0,0-.14.71.71,0,0,0-.14-.42.67.67,0,0,0-.38-.15.64.64,0,0,0-.37.15.65.65,0,0,0-.14.42v.28a.65.65,0,0,0,.14.43.57.57,0,0,0,.37.14.57.57,0,0,0,.38-.14Z"/><path class="cls-5" d="M88.76,28.62s0,0,0,0V26.82a.09.09,0,0,1,0-.06H89l0,0V27a.53.53,0,0,1,.51-.25h.2v0a0,0,0,0,1,0,0V27a.07.07,0,0,1,0,.06h-.27a.32.32,0,0,0-.17,0,.65.65,0,0,0-.15.1.42.42,0,0,0-.09.14,1.11,1.11,0,0,0,0,.17v1.12l0,0-.06,0Z"/><path class="cls-5" d="M90.28,28.62V26.76h.28s0,0,0,.06v.11a.63.63,0,0,1,.24-.19.73.73,0,0,1,.3-.06.61.61,0,0,1,.57.34.53.53,0,0,1,.25-.24.65.65,0,0,1,.36-.1.63.63,0,0,1,.27.06.54.54,0,0,1,.22.15.86.86,0,0,1,.19.6v1.12H92.7s0,0,0,0V27.52a.66.66,0,0,0-.12-.43.56.56,0,0,0-.15-.1.32.32,0,0,0-.17,0,.25.25,0,0,0-.17,0,.3.3,0,0,0-.13.09.56.56,0,0,0-.13.43v1.09l0,0h-.22l0,0v0a0,0,0,0,1,0,0v-1a.6.6,0,0,0-.13-.43.42.42,0,0,0-.14-.09.27.27,0,0,0-.17,0,.39.39,0,0,0-.31.12.59.59,0,0,0-.12.43v1.06l0,0,0,0h-.33Z"/></g></g></svg>