<svg xmlns="http://www.w3.org/2000/svg" viewBox="0 0 175.9 100"><g id="Layer_2" data-name="Layer 2"><g id="Layer_1-2" data-name="Layer 1"><path d="M4.9,20.82H15.36V25.5H0V.67H15.18V5.36H4.9v5.28h9.39v4.61H4.9Z"/><path d="M20.86,5.64a2.7,2.7,0,0,1-2-.83,2.69,2.69,0,0,1-.84-2,2.75,2.75,0,0,1,.84-2,2.64,2.64,0,0,1,2-.85,2.68,2.68,0,0,1,2,.85,2.74,2.74,0,0,1,.83,2,2.68,2.68,0,0,1-.83,2A2.73,2.73,0,0,1,20.86,5.64ZM18.59,25.5V7.77h4.57V25.5Z"/><path d="M37.21,7.27a6.44,6.44,0,0,1,4.81,2,7.42,7.42,0,0,1,1.89,5.39V25.5H39.34V15.18a3.63,3.63,0,0,0-1-2.71,3.47,3.47,0,0,0-2.55-.94A3.77,3.77,0,0,0,33,12.63a4.56,4.56,0,0,0-1.07,3.3V25.5H27.35V7.77h4.57v2A5.94,5.94,0,0,1,37.21,7.27Z"/><path d="M51.68,18.52c.62,2.22,2.28,3.33,5,3.33a4.7,4.7,0,0,0,4-1.77l3.68,2.13A8.78,8.78,0,0,1,56.61,26a9.57,9.57,0,0,1-7.06-2.66,9.1,9.1,0,0,1-2.66-6.7A9.18,9.18,0,0,1,49.52,10a9,9,0,0,1,6.74-2.68A8.43,8.43,0,0,1,62.69,10a9.33,9.33,0,0,1,2.54,6.67,10.64,10.64,0,0,1-.18,1.88ZM51.61,15h9A4.27,4.27,0,0,0,59,12.27a4.6,4.6,0,0,0-2.78-.88,4.78,4.78,0,0,0-3,.94A4.43,4.43,0,0,0,51.61,15Z"/><path d="M96.91,25.5H91.27L82.4,13.87V25.5H77.5V.67h4.9v11L90.91.67h5.64L87.37,12.73Z"/><path d="M111,7.77h4.57V25.5H111V23.41A7,7,0,0,1,105.21,26a8,8,0,0,1-6.09-2.71,9.38,9.38,0,0,1-2.53-6.65A9.35,9.35,0,0,1,99.12,10a8,8,0,0,1,6.09-2.72A7,7,0,0,1,111,9.86Zm-8.44,12.47a4.73,4.73,0,0,0,3.51,1.4,4.81,4.81,0,0,0,3.53-1.4,4.91,4.91,0,0,0,1.4-3.6,4.88,4.88,0,0,0-1.4-3.6,4.78,4.78,0,0,0-3.53-1.41A4.7,4.7,0,0,0,102.55,13a4.87,4.87,0,0,0-1.39,3.6A4.9,4.9,0,0,0,102.55,20.24Z"/><path d="M123.79,12.81c0,.47.31.85.94,1.15a13.52,13.52,0,0,0,2.29.78,23.35,23.35,0,0,1,2.7.85A5.23,5.23,0,0,1,132,17.31a4.74,4.74,0,0,1,.94,3,4.87,4.87,0,0,1-2,4.2A8.47,8.47,0,0,1,125.81,26q-5.46,0-7.45-4.22l4-2.24a3.29,3.29,0,0,0,3.47,2.31c1.64,0,2.45-.51,2.45-1.52,0-.48-.31-.86-.94-1.16a14.34,14.34,0,0,0-2.29-.8,23.43,23.43,0,0,1-2.69-.88,5.6,5.6,0,0,1-2.29-1.69,4.4,4.4,0,0,1-.94-2.89A4.94,4.94,0,0,1,121,8.78a7.55,7.55,0,0,1,4.81-1.51,8.08,8.08,0,0,1,3.94,1,7.19,7.19,0,0,1,2.8,2.78l-3.9,2.13a2.92,2.92,0,0,0-2.84-1.81,2.6,2.6,0,0,0-1.47.39A1.23,1.23,0,0,0,123.79,12.81Z"/><path d="M139.19,12.81c0,.47.31.85.94,1.15a13.22,13.22,0,0,0,2.29.78,23.83,23.83,0,0,1,2.69.85,5.26,5.26,0,0,1,2.29,1.72,4.79,4.79,0,0,1,.94,3,4.87,4.87,0,0,1-2,4.2A8.49,8.49,0,0,1,141.21,26c-3.64,0-6.13-1.41-7.45-4.22l4-2.24a3.29,3.29,0,0,0,3.48,2.31c1.63,0,2.45-.51,2.45-1.52,0-.48-.32-.86-.94-1.16a14.34,14.34,0,0,0-2.29-.8,23.58,23.58,0,0,1-2.7-.88,5.6,5.6,0,0,1-2.29-1.69,4.45,4.45,0,0,1-.93-2.89,4.94,4.94,0,0,1,1.93-4.13,7.55,7.55,0,0,1,4.8-1.51,8,8,0,0,1,3.94,1A7.13,7.13,0,0,1,148,11l-3.9,2.13a2.9,2.9,0,0,0-2.84-1.81,2.6,2.6,0,0,0-1.47.39A1.22,1.22,0,0,0,139.19,12.81Z"/><path d="M154.9,18.52c.62,2.22,2.28,3.33,5,3.33a4.7,4.7,0,0,0,4-1.77l3.68,2.13A8.78,8.78,0,0,1,159.83,26a9.57,9.57,0,0,1-7.06-2.66,9.1,9.1,0,0,1-2.66-6.7A9.18,9.18,0,0,1,152.74,10a9,9,0,0,1,6.74-2.68,8.43,8.43,0,0,1,6.43,2.7,9.37,9.37,0,0,1,2.54,6.67,10.64,10.64,0,0,1-.18,1.88ZM154.83,15h9a4.31,4.31,0,0,0-1.62-2.7,4.6,4.6,0,0,0-2.78-.88,4.78,4.78,0,0,0-3,.94A4.43,4.43,0,0,0,154.83,15Z"/><path d="M175,25.08A3,3,0,1,1,175.9,23,2.9,2.9,0,0,1,175,25.08Z"/><path d="M14.83,42.36H4.9v5.88h9.64v4.69H4.9V62.5H0V37.67H14.83Z"/><path d="M29.9,44.77h4.58V62.5H29.9v-2A5.91,5.91,0,0,1,24.62,63a6.44,6.44,0,0,1-4.81-2,7.39,7.39,0,0,1-1.9-5.39V44.77h4.58V55.09a3.61,3.61,0,0,0,1,2.71,3.46,3.46,0,0,0,2.55.94,3.75,3.75,0,0,0,2.84-1.1,4.55,4.55,0,0,0,1.06-3.29Zm-5.41-2.43a2.29,2.29,0,0,1-1.68.69,2.39,2.39,0,0,1-1.71-.69,2.26,2.26,0,0,1-.7-1.69,2.32,2.32,0,0,1,.7-1.7,2.37,2.37,0,0,1,1.71-.71,2.27,2.27,0,0,1,1.68.71,2.35,2.35,0,0,1,.69,1.7A2.29,2.29,0,0,1,24.49,42.34Zm6.74,0a2.29,2.29,0,0,1-1.68.69,2.37,2.37,0,0,1-1.71-.69,2.27,2.27,0,0,1-.71-1.69,2.42,2.42,0,0,1,2.42-2.41,2.27,2.27,0,0,1,1.68.71,2.35,2.35,0,0,1,.69,1.7A2.29,2.29,0,0,1,31.23,42.34Z"/><path d="M43.24,47.82a4.71,4.71,0,0,1,2.11-2.55,6.4,6.4,0,0,1,3.28-.86v5.11a5.42,5.42,0,0,0-3.74.85A4.07,4.07,0,0,0,43.24,54V62.5H38.66V44.77h4.58Z"/><path d="M60.76,62.86V44.77h4.58V62.86c0,2.6-.64,4.5-1.9,5.69s-3.21,1.71-5.84,1.54V65.7a3.24,3.24,0,0,0,2.4-.57A2.9,2.9,0,0,0,60.76,62.86Zm2.31-20.22a2.77,2.77,0,0,1-2-.83,2.72,2.72,0,0,1-.83-2,2.78,2.78,0,0,1,.83-2,2.71,2.71,0,0,1,2-.85,2.67,2.67,0,0,1,2,.85,2.78,2.78,0,0,1,.83,2,2.83,2.83,0,0,1-2.8,2.8Z"/><path d="M73.39,55.52q.92,3.33,5,3.33a4.68,4.68,0,0,0,4-1.77l3.69,2.13A8.8,8.8,0,0,1,78.32,63a9.56,9.56,0,0,1-7.06-2.66,9.1,9.1,0,0,1-2.66-6.7A9.14,9.14,0,0,1,71.23,47,9,9,0,0,1,78,44.27,8.44,8.44,0,0,1,84.4,47a9.37,9.37,0,0,1,2.54,6.67,10.64,10.64,0,0,1-.18,1.88ZM73.32,52h9a4.3,4.3,0,0,0-1.61-2.7A4.65,4.65,0,0,0,78,48.39a4.8,4.8,0,0,0-3,.94A4.46,4.46,0,0,0,73.32,52Z"/><path d="M103.43,37.67H108V62.5h-4.58V60.41A6.85,6.85,0,0,1,97.69,63a8.07,8.07,0,0,1-6.12-2.71,10,10,0,0,1,0-13.3,8.08,8.08,0,0,1,6.12-2.72,6.88,6.88,0,0,1,5.74,2.59ZM95,57.24a4.79,4.79,0,0,0,3.53,1.4,4.73,4.73,0,0,0,3.51-1.4,5.39,5.39,0,0,0,0-7.2,4.7,4.7,0,0,0-3.51-1.41A4.76,4.76,0,0,0,95,50a5.33,5.33,0,0,0,0,7.2Z"/><path d="M116.06,55.52c.62,2.22,2.28,3.33,5,3.33a4.67,4.67,0,0,0,4-1.77l3.69,2.13A8.78,8.78,0,0,1,121,63a9.57,9.57,0,0,1-7.06-2.66,9.8,9.8,0,0,1,0-13.39,9,9,0,0,1,6.74-2.68,8.43,8.43,0,0,1,6.43,2.7,9.37,9.37,0,0,1,2.54,6.67,10.64,10.64,0,0,1-.18,1.88ZM116,52h9a4.26,4.26,0,0,0-1.61-2.7,4.62,4.62,0,0,0-2.78-.88,4.78,4.78,0,0,0-3,.94A4.43,4.43,0,0,0,116,52Z"/><path d="M15,86.63a6.12,6.12,0,0,1,3.27,5.67A6.67,6.67,0,0,1,16,97.48a7.88,7.88,0,0,1-5.5,2H0V74.67H9.79a7.72,7.72,0,0,1,5.37,2,6.47,6.47,0,0,1,2.19,5A6.06,6.06,0,0,1,15,86.63ZM9.79,79.25H4.9v5.46H9.79a2.55,2.55,0,0,0,1.9-.78,2.67,2.67,0,0,0,.76-2,2.74,2.74,0,0,0-.74-2A2.55,2.55,0,0,0,9.79,79.25Zm.74,15.68a2.74,2.74,0,0,0,2.06-.84A2.85,2.85,0,0,0,13.41,92a2.82,2.82,0,0,0-.82-2.07,2.74,2.74,0,0,0-2.06-.83H4.9v5.85Z"/><path d="M25.82,84.82a4.75,4.75,0,0,1,2.11-2.55,6.42,6.42,0,0,1,3.28-.86v5.11a5.43,5.43,0,0,0-3.74.85A4.07,4.07,0,0,0,25.82,91V99.5H21.25V81.77h4.57Z"/><path d="M46.68,81.77h4.58V99.5H46.68V97.41A7,7,0,0,1,40.9,100a8,8,0,0,1-6.09-2.71,10,10,0,0,1,0-13.3,8,8,0,0,1,6.09-2.72,7,7,0,0,1,5.78,2.59ZM38.24,94.24a4.73,4.73,0,0,0,3.51,1.4,4.81,4.81,0,0,0,3.53-1.4,5.33,5.33,0,0,0,0-7.2,4.78,4.78,0,0,0-3.53-1.41A4.7,4.7,0,0,0,38.24,87a5.36,5.36,0,0,0,0,7.2Z"/><path d="M65.27,81.27a6.4,6.4,0,0,1,4.8,2A7.39,7.39,0,0,1,72,88.61V99.5H67.39V89.18a3.62,3.62,0,0,0-1-2.71,3.48,3.48,0,0,0-2.56-.94,3.75,3.75,0,0,0-2.83,1.1A4.56,4.56,0,0,0,60,89.93V99.5H55.41V81.77H60v2A5.92,5.92,0,0,1,65.27,81.27Z"/><path d="M84.31,100a9.37,9.37,0,1,1,0-18.73A9.27,9.27,0,0,1,89,82.51a8.23,8.23,0,0,1,3.23,3.34l-3.94,2.3a4,4,0,0,0-1.61-1.73,4.64,4.64,0,0,0-2.43-.64,4.6,4.6,0,0,0-3.41,1.36,4.77,4.77,0,0,0-1.34,3.5,4.7,4.7,0,0,0,1.34,3.45,4.57,4.57,0,0,0,3.41,1.37,4.89,4.89,0,0,0,2.46-.62,4,4,0,0,0,1.62-1.72l4,2.27A8.91,8.91,0,0,1,89,98.74,9.09,9.09,0,0,1,84.31,100Z"/><path d="M104.6,81.27a6.42,6.42,0,0,1,4.81,2,7.43,7.43,0,0,1,1.9,5.39V99.5h-4.58V89.18a3.63,3.63,0,0,0-1-2.71,3.46,3.46,0,0,0-2.55-.94,3.79,3.79,0,0,0-2.84,1.1,4.56,4.56,0,0,0-1.06,3.3V99.5H94.74V74.67h4.58v9.08A5.91,5.91,0,0,1,104.6,81.27Z"/><path d="M119.08,92.52q.92,3.33,5,3.33a4.68,4.68,0,0,0,4-1.77l3.69,2.13A8.8,8.8,0,0,1,124,100,9.54,9.54,0,0,1,117,97.34a9.06,9.06,0,0,1-2.66-6.7A9.17,9.17,0,0,1,116.91,84a9,9,0,0,1,6.74-2.68,8.45,8.45,0,0,1,6.44,2.7,9.37,9.37,0,0,1,2.54,6.67,10.64,10.64,0,0,1-.18,1.88ZM119,89h9a4.3,4.3,0,0,0-1.61-2.7,4.65,4.65,0,0,0-2.79-.88,4.78,4.78,0,0,0-3.05.94A4.46,4.46,0,0,0,119,89Z"/><path d="M139.19,99.08a3,3,0,1,1,.88-2.13A2.9,2.9,0,0,1,139.19,99.08Z"/></g></g></svg>