<svg xmlns="http://www.w3.org/2000/svg" viewBox="0 0 300 73.01"><defs><style>.cls-1{fill:#fff;}.cls-2{fill:#1b191d;}.cls-3{fill:#df7526;}</style></defs><g id="Layer_2" data-name="Layer 2"><g id="Layer_1-2" data-name="Layer 1"><rect class="cls-1" y="15.21" width="300" height="57.8"/><path class="cls-2" d="M70.12,39.48h5.17V42c.73-2.06,2.09-2.93,4.37-2.93h.5V44.7A8,8,0,0,0,79,44.61c-2.26,0-3.3,1-3.3,3.15v5.78H70.1V39.48Z"/><path class="cls-2" d="M88.8,50.16c1.7,0,2.34-1.17,2.34-3.66s-.64-3.64-2.34-3.64S86.49,44,86.49,46.5s.63,3.66,2.31,3.66m0-11.2c5,0,8,2.87,8,7.54s-3,7.55-8,7.55-8-2.89-8-7.55,3-7.54,8-7.54"/><path class="cls-2" d="M113.42,48.06c-.24,3.68-3.1,6-7.63,6-5,0-8.09-2.93-8.09-7.55s3-7.54,8-7.54c4.59,0,7.5,2.34,7.63,5.87h-5.59a1.86,1.86,0,0,0-2.07-2c-1.64,0-2.35,1.17-2.35,3.64s.68,3.65,2.31,3.65a2,2,0,0,0,2.18-2.1h5.58Z"/><path class="cls-2" d="M114.82,34.49h5.59V41a5.62,5.62,0,0,1,4.32-1.88,5,5,0,0,1,4.11,1.69c1,1.27,1.17,3,1.17,5.44v7.32h-5.59V46.27c0-1.94-.37-2.81-1.91-2.81s-2.1.92-2.1,2.84v7.27h-5.59Z"/><path class="cls-2" d="M141.87,44.94c-.09-1.75-1-2.62-2.53-2.62s-2.37,1-2.44,2.62Zm5.07,4.45c-.77,3-3.42,4.66-7.78,4.66-4.87,0-7.87-2.93-7.87-7.43,0-4.72,3.08-7.66,8.09-7.66s8,3.14,8,8.43v.36H136.9c0,1.81,1,2.81,2.59,2.81a2,2,0,0,0,2.1-1.17Z"/><path class="cls-2" d="M155.71,51.92c2.55,0,4.14-1.92,4.14-5.1,0-3.58-1.54-5.49-4.11-5.49q-4.11,0-4.11,5.19c0,3.51,1.51,5.4,4.08,5.4m-6.29-17.43h2.28v7.13a5.14,5.14,0,0,1,4.48-2.38c3.61,0,6.11,2.8,6.11,7.43S159.85,54,156.21,54a5.24,5.24,0,0,1-4.51-2.18v1.76h-2.28Z"/><path class="cls-2" d="M170.62,51.92c2.71,0,4.22-1.86,4.22-5.31s-1.51-5.31-4.22-5.31-4.27,1.86-4.27,5.31,1.53,5.31,4.27,5.31m0-12.68c4.19,0,6.66,2.68,6.66,7.37S174.78,54,170.62,54,164,51.3,164,46.61s2.47-7.37,6.64-7.37"/><path class="cls-2" d="M185.49,51.92c2.54,0,4.14-1.92,4.14-5.1,0-3.58-1.54-5.49-4.11-5.49q-4.11,0-4.11,5.19c0,3.51,1.51,5.4,4.08,5.4M179.2,34.49h2.28v7.13A5.16,5.16,0,0,1,186,39.24c3.61,0,6.11,2.8,6.11,7.43S189.63,54,186,54a5.24,5.24,0,0,1-4.51-2.18v1.76H179.2Z"/><path class="cls-2" d="M200.18,51.92c2.71,0,4.22-1.86,4.22-5.31s-1.51-5.31-4.22-5.31-4.26,1.86-4.26,5.31,1.52,5.31,4.26,5.31m0-12.68c4.2,0,6.67,2.68,6.67,7.37S204.35,54,200.18,54s-6.66-2.68-6.66-7.37,2.47-7.37,6.63-7.37"/><path class="cls-2" d="M208.86,39.69h2.33V53.56h-2.33Zm0-5.2h2.33v2.65h-2.33Z"/><path class="cls-2" d="M215.19,49.05c.15,1.88,1.35,2.87,3.52,2.87s3.24-.87,3.24-2.2c0-1.17-.69-1.54-2.13-1.88l-2.59-.67c-2.74-.67-3.92-1.6-3.92-3.9s1.88-4,5.19-4,5.4,1.67,5.4,4.24v.06h-2.28c-.08-1.46-1.24-2.31-3.12-2.31s-2.87.68-2.87,1.94c0,1,.68,1.38,2.17,1.72l2.25.53c2.84.66,4.22,1.54,4.22,4,0,2.84-2.06,4.56-5.77,4.56-3.55,0-5.52-1.75-5.58-4.93Z"/><path class="cls-2" d="M181.16,59.56c.48,0,.71-.19.71-.67a.58.58,0,0,0-.66-.66h-1v1.33ZM180.24,62h-.94V57.43h2a1.48,1.48,0,0,1,.07,3h-1.15V62Z"/><path class="cls-2" d="M190.7,60.3H192l-.64-1.95Zm1.18-2.87L193.54,62h-1l-.31-.94h-1.78l-.3.94h-1l1.62-4.58Z"/><path class="cls-2" d="M202.57,59.43c.48,0,.69-.18.69-.6s-.21-.61-.65-.61h-1.16v1.21Zm-2.06-2h2.23c1,0,1.47.42,1.47,1.3a1,1,0,0,1-.69,1.09c.44.15.54.44.57,1l0,.54c0,.27,0,.43.17.51V62h-1a1.33,1.33,0,0,1-.11-.57l0-.48c0-.54-.16-.73-.68-.73h-1V62h-.94V57.43Z"/><rect class="cls-2" x="211.59" y="57.43" width="0.94" height="4.58"/><path class="cls-2" d="M220.74,60.6c.07.51.41.74,1,.74s.82-.2.82-.58-.38-.5-1.22-.7a3,3,0,0,1-1-.34,1.17,1.17,0,0,1-.5-1c0-.89.61-1.39,1.76-1.39s1.7.53,1.75,1.46h-.92c0-.44-.34-.69-.91-.69s-.77.2-.77.56.36.44,1.11.63a4.47,4.47,0,0,1,1.07.35,1.11,1.11,0,0,1,.56,1c0,.94-.66,1.51-1.84,1.51s-1.84-.57-1.88-1.54Z"/><rect class="cls-3" width="300" height="22.88"/></g></g></svg>