<svg xmlns="http://www.w3.org/2000/svg" viewBox="0 0 86.07 40.87"><defs><style>.cls-1{fill:#fff;}</style></defs><g id="Layer_2" data-name="Layer 2"><g id="Layer_1-2" data-name="Layer 1"><path class="cls-1" d="M0,17.13V1.32H5.2L9.61,13.23h.12L14,1.32h5V17.13H15.72l.21-12.31h-.26L10.88,17.13H8L3.28,4.82H3l.22,12.31Z"/><path class="cls-1" d="M25.23,17.47a4.05,4.05,0,0,1-1.87-.42,3.08,3.08,0,0,1-1.27-1.21,3.93,3.93,0,0,1-.45-2A3.47,3.47,0,0,1,22,12.15,3,3,0,0,1,23.2,11a8.5,8.5,0,0,1,1.89-.72,25.32,25.32,0,0,1,2.56-.5c.51-.08.93-.16,1.26-.23a1.36,1.36,0,0,0,.73-.36,1,1,0,0,0,.24-.73,1.58,1.58,0,0,0-.48-1.15,2.06,2.06,0,0,0-1.51-.48,3.35,3.35,0,0,0-1.28.24,2.68,2.68,0,0,0-1,.72A3,3,0,0,0,25,9L22,8.1a5.19,5.19,0,0,1,.83-1.7,4.85,4.85,0,0,1,1.3-1.21,5.72,5.72,0,0,1,1.75-.73A9,9,0,0,1,28,4.22a6.7,6.7,0,0,1,3,.58,3.78,3.78,0,0,1,1.74,1.83,7.59,7.59,0,0,1,.57,3.17V12c0,.56,0,1.12,0,1.7s.06,1.15.1,1.74.08,1.16.13,1.73h-3q-.09-.6-.18-1.38c-.05-.51-.1-1-.13-1.56h-.43a5.48,5.48,0,0,1-1,1.65A4.71,4.71,0,0,1,27.28,17,4.64,4.64,0,0,1,25.23,17.47ZM26.69,15a2.82,2.82,0,0,0,.93-.17,4.15,4.15,0,0,0,.91-.47,4.06,4.06,0,0,0,.81-.75,4.24,4.24,0,0,0,.61-1l-.05-2,.56.12a3.51,3.51,0,0,1-1,.49,7.64,7.64,0,0,1-1.19.28c-.4.06-.81.14-1.21.22A5.55,5.55,0,0,0,26,12a1.88,1.88,0,0,0-.75.51,1.38,1.38,0,0,0-.27.9,1.47,1.47,0,0,0,.48,1.17A1.77,1.77,0,0,0,26.69,15Z"/><path class="cls-1" d="M36.3,17.13V4.55h2.83l0,3.77h.48A7.38,7.38,0,0,1,40.47,6a3.8,3.8,0,0,1,1.45-1.37A4.45,4.45,0,0,1,44,4.22a3.88,3.88,0,0,1,3.32,1.53,8.13,8.13,0,0,1,1.14,4.82v6.56H45V11A5.61,5.61,0,0,0,44.39,8a1.9,1.9,0,0,0-1.72-.93,2.27,2.27,0,0,0-1.6.6,3.62,3.62,0,0,0-1,1.57,7.31,7.31,0,0,0-.35,2.17v5.7Z"/><path class="cls-1" d="M55.69,17.47A3.87,3.87,0,0,1,52.37,16a7.66,7.66,0,0,1-1.12-4.56V4.55H54.7V11a5.45,5.45,0,0,0,.55,2.75,1.84,1.84,0,0,0,1.68.9,2.12,2.12,0,0,0,1.18-.34,2.87,2.87,0,0,0,.86-.93,4.67,4.67,0,0,0,.54-1.42,8.67,8.67,0,0,0,.2-1.75V4.55h3.45V17.13H60.38l0-3.93h-.43a9.4,9.4,0,0,1-.9,2.43A3.49,3.49,0,0,1,57.66,17,4.18,4.18,0,0,1,55.69,17.47Z"/><path class="cls-1" d="M69.27,17.47a4.05,4.05,0,0,1-1.87-.42,3.08,3.08,0,0,1-1.27-1.21,3.93,3.93,0,0,1-.45-2,3.47,3.47,0,0,1,.39-1.72A3,3,0,0,1,67.24,11a8.5,8.5,0,0,1,1.89-.72,25.32,25.32,0,0,1,2.56-.5c.51-.08.93-.16,1.26-.23a1.36,1.36,0,0,0,.73-.36,1,1,0,0,0,.24-.73,1.58,1.58,0,0,0-.48-1.15,2.06,2.06,0,0,0-1.51-.48,3.35,3.35,0,0,0-1.28.24,2.68,2.68,0,0,0-1,.72A3,3,0,0,0,69,9L66,8.1a5.19,5.19,0,0,1,.83-1.7,4.85,4.85,0,0,1,1.3-1.21,5.72,5.72,0,0,1,1.75-.73A9,9,0,0,1,72,4.22a6.7,6.7,0,0,1,3,.58,3.78,3.78,0,0,1,1.74,1.83,7.59,7.59,0,0,1,.57,3.17V12c0,.56,0,1.12,0,1.7s.06,1.15.1,1.74.08,1.16.13,1.73h-3q-.09-.6-.18-1.38c0-.51-.1-1-.13-1.56H73.8a5.48,5.48,0,0,1-1,1.65A4.71,4.71,0,0,1,71.32,17,4.64,4.64,0,0,1,69.27,17.47ZM70.73,15a2.82,2.82,0,0,0,.93-.17,4.15,4.15,0,0,0,.91-.47,4.06,4.06,0,0,0,.81-.75,4.24,4.24,0,0,0,.61-1l0-2,.56.12a3.51,3.51,0,0,1-1,.49,7.64,7.64,0,0,1-1.19.28c-.4.06-.81.14-1.21.22A5.55,5.55,0,0,0,70,12a1.88,1.88,0,0,0-.75.51,1.38,1.38,0,0,0-.27.9,1.47,1.47,0,0,0,.48,1.17A1.77,1.77,0,0,0,70.73,15Z"/><path class="cls-1" d="M80.34,17.13V0h3.41V17.13Z"/><path class="cls-1" d="M0,36.49V20.67H3.45V36.49ZM2.42,32V29.32H6a4,4,0,0,0,2.59-.7,2.89,2.89,0,0,0,.86-2.34,2.87,2.87,0,0,0-.8-2.19,3.51,3.51,0,0,0-2.48-.76H2.42V20.67H6.3A9.89,9.89,0,0,1,9.07,21a6.09,6.09,0,0,1,2.11,1.07,4.61,4.61,0,0,1,1.33,1.77A6.43,6.43,0,0,1,13,26.38a5.56,5.56,0,0,1-.83,3.1,5.12,5.12,0,0,1-2.49,1.9A11.18,11.18,0,0,1,5.56,32Z"/><path class="cls-1" d="M21.09,36.82a8.18,8.18,0,0,1-2.77-.43,5.52,5.52,0,0,1-2.05-1.25,5.22,5.22,0,0,1-1.28-2,7.66,7.66,0,0,1-.45-2.71A8.6,8.6,0,0,1,15,27.68,6.32,6.32,0,0,1,16.2,25.5a5.43,5.43,0,0,1,2-1.43,6.78,6.78,0,0,1,2.66-.5,6.68,6.68,0,0,1,2.56.47,4.68,4.68,0,0,1,1.88,1.4,6,6,0,0,1,1.1,2.29,10.09,10.09,0,0,1,.26,3.1l-9.88.1V29L24.66,29l-1.23,1a4,4,0,0,0-.16-2.08,2.42,2.42,0,0,0-1-1.2,2.65,2.65,0,0,0-1.41-.39,2.82,2.82,0,0,0-1.6.48,3.14,3.14,0,0,0-1.08,1.41,5.83,5.83,0,0,0-.38,2.21,4.27,4.27,0,0,0,.9,3,3.07,3.07,0,0,0,2.36,1,3.15,3.15,0,0,0,1.13-.18,2.23,2.23,0,0,0,.77-.47,2.33,2.33,0,0,0,.48-.65,5.5,5.5,0,0,0,.3-.72l3,.65a5.62,5.62,0,0,1-.63,1.59A4.31,4.31,0,0,1,25,35.76a5.38,5.38,0,0,1-1.67.79A8.49,8.49,0,0,1,21.09,36.82Z"/><path class="cls-1" d="M29.16,36.49V23.91H32l0,4.29h.45a8.91,8.91,0,0,1,.66-2.62,3.18,3.18,0,0,1,1.31-1.48,4.13,4.13,0,0,1,2.08-.48H37a5.42,5.42,0,0,1,.59.08l-.15,3.67a3.17,3.17,0,0,0-.79-.24,4.48,4.48,0,0,0-.77-.07,2.88,2.88,0,0,0-1.6.43,3.19,3.19,0,0,0-1.09,1.23,5.66,5.66,0,0,0-.56,2v5.8Z"/><path class="cls-1" d="M44.5,40.87a15,15,0,0,1-3.39-.32,4.13,4.13,0,0,1-2-.95A2.12,2.12,0,0,1,38.53,38a2.18,2.18,0,0,1,.87-1.79A4.69,4.69,0,0,1,42,35.41v-.48a5.46,5.46,0,0,1-2-.28,1,1,0,0,1-.69-1,1.52,1.52,0,0,1,.68-1.2,5.49,5.49,0,0,1,2.26-.83v-.48a3.46,3.46,0,0,1-2.32-1A3.07,3.07,0,0,1,39.08,28a3.58,3.58,0,0,1,.67-2.14,4.56,4.56,0,0,1,2-1.51A8.33,8.33,0,0,1,45,23.76H51.4V26.4l-4-.55v.55a4.53,4.53,0,0,1,2.22.77,1.82,1.82,0,0,1,.68,1.53,2.53,2.53,0,0,1-.64,1.72,4.3,4.3,0,0,1-1.84,1.17A8.5,8.5,0,0,1,45,32l-.67,0q-.36,0-1.2-.12a7.28,7.28,0,0,0-.7.59.69.69,0,0,0-.25.47.34.34,0,0,0,.18.28,1.18,1.18,0,0,0,.47.17,4.21,4.21,0,0,0,.62.05h3.59c.32,0,.73,0,1.25.06a5,5,0,0,1,1.53.37,3.12,3.12,0,0,1,1.29,1,3.18,3.18,0,0,1,.53,2,3.43,3.43,0,0,1-.78,2.3,4.61,4.61,0,0,1-2.37,1.34A15.55,15.55,0,0,1,44.5,40.87Zm.38-2.75A13.26,13.26,0,0,0,47.16,38a2.2,2.2,0,0,0,1.16-.5,1.22,1.22,0,0,0,.35-.88,1.16,1.16,0,0,0-.21-.74,1,1,0,0,0-.53-.37,3.71,3.71,0,0,0-.64-.15l-.57,0h-3a2.24,2.24,0,0,0-1.45.54,1.37,1.37,0,0,0-.45,1,.94.94,0,0,0,.34.79,2.23,2.23,0,0,0,1,.37A11.37,11.37,0,0,0,44.88,38.12Zm-.05-7.91a2.42,2.42,0,0,0,1.73-.56,2,2,0,0,0,.57-1.48,2.18,2.18,0,0,0-.59-1.58A2.22,2.22,0,0,0,44.83,26a2.33,2.33,0,0,0-1.72.61,2.09,2.09,0,0,0-.63,1.57,2.07,2.07,0,0,0,.28,1.06,1.85,1.85,0,0,0,.8.74A2.9,2.9,0,0,0,44.83,30.21Z"/><path class="cls-1" d="M59.35,36.82A7.11,7.11,0,0,1,56,36.07a5.43,5.43,0,0,1-2.25-2.23A7.56,7.56,0,0,1,53,30.16a7.41,7.41,0,0,1,.82-3.67,5.35,5.35,0,0,1,2.28-2.19,7.14,7.14,0,0,1,3.29-.73,7.34,7.34,0,0,1,3.35.74A5.45,5.45,0,0,1,65,26.53a7.45,7.45,0,0,1,.83,3.68,7.39,7.39,0,0,1-.85,3.7,5.44,5.44,0,0,1-2.3,2.19A7.34,7.34,0,0,1,59.35,36.82Zm.12-2.56A2.77,2.77,0,0,0,61,33.83a2.64,2.64,0,0,0,1-1.31,6,6,0,0,0,.32-2.12A6.4,6.4,0,0,0,62,28.16a2.91,2.91,0,0,0-1-1.41,2.81,2.81,0,0,0-1.7-.5,2.77,2.77,0,0,0-1.54.42,2.55,2.55,0,0,0-1,1.3,6.09,6.09,0,0,0-.33,2.14,5,5,0,0,0,.81,3.09A2.66,2.66,0,0,0,59.47,34.26Z"/><path class="cls-1" d="M68.24,36.49V19.35h3.41V36.49Z"/><path class="cls-1" d="M77.75,36.82a4,4,0,0,1-1.86-.42,3,3,0,0,1-1.27-1.21,3.79,3.79,0,0,1-.46-2,3.41,3.41,0,0,1,.4-1.73,2.91,2.91,0,0,1,1.16-1.12,7.62,7.62,0,0,1,1.89-.72c.75-.19,1.61-.36,2.56-.51.52-.08.93-.15,1.26-.22a1.51,1.51,0,0,0,.73-.36,1,1,0,0,0,.24-.73,1.56,1.56,0,0,0-.48-1.15,2.06,2.06,0,0,0-1.51-.48,3.35,3.35,0,0,0-1.28.24,2.64,2.64,0,0,0-1,.72,2.93,2.93,0,0,0-.62,1.22l-3-.94a5.28,5.28,0,0,1,.83-1.7,5,5,0,0,1,1.3-1.21,5.83,5.83,0,0,1,1.75-.73,9,9,0,0,1,2.14-.24,6.64,6.64,0,0,1,3,.59A3.71,3.71,0,0,1,85.23,26a7.58,7.58,0,0,1,.58,3.17v2.16c0,.56,0,1.13,0,1.7s.06,1.16.1,1.74.08,1.16.13,1.74H83q-.11-.6-.18-1.38c-.06-.52-.1-1-.14-1.57h-.43a5.25,5.25,0,0,1-1,1.65,4.57,4.57,0,0,1-1.52,1.19A4.64,4.64,0,0,1,77.75,36.82Zm1.47-2.49a2.76,2.76,0,0,0,.92-.17,4.15,4.15,0,0,0,.91-.47,3.56,3.56,0,0,0,.81-.75,4.06,4.06,0,0,0,.61-1l0-2L83,30a3.79,3.79,0,0,1-1,.49,7.77,7.77,0,0,1-1.18.27L79.58,31a5.66,5.66,0,0,0-1.07.31,1.86,1.86,0,0,0-.74.52,1.28,1.28,0,0,0-.28.89A1.51,1.51,0,0,0,78,33.9,1.78,1.78,0,0,0,79.22,34.33Z"/></g></g></svg>