<svg xmlns="http://www.w3.org/2000/svg" viewBox="0 0 110.73 19.76"><defs><style>.cls-1{fill:#0d2950;}.cls-2{fill:#fff;}</style></defs><g id="Layer_2" data-name="Layer 2"><g id="Layer_1-2" data-name="Layer 1"><rect class="cls-1" x="0.28" y="0.28" width="110.17" height="19.21" rx="4.6"/><path class="cls-2" d="M105.85,19.76H4.88A4.89,4.89,0,0,1,0,14.88v-10A4.89,4.89,0,0,1,4.88,0h101a4.89,4.89,0,0,1,4.88,4.88v10A4.89,4.89,0,0,1,105.85,19.76ZM4.88.56A4.33,4.33,0,0,0,.56,4.88v10a4.33,4.33,0,0,0,4.32,4.33h101a4.33,4.33,0,0,0,4.32-4.33v-10A4.33,4.33,0,0,0,105.85.56Z"/><path class="cls-2" d="M63.26,8.87V4.63h.59V8.87Zm.23-3.72V4.63h2.72v.52Zm0,1.9V6.54h2.44v.51Z"/><path class="cls-2" d="M66.76,8.87V5.55h.53l-.05,1.16h.1a2.61,2.61,0,0,1,.18-.66,1.12,1.12,0,0,1,.33-.43.81.81,0,0,1,.5-.16h.15l.2,0,0,.61-.19,0-.19,0a.67.67,0,0,0-.43.16,1.5,1.5,0,0,0-.31.44,4,4,0,0,0-.2.61v1.6Z"/><path class="cls-2" d="M70.7,9a1.86,1.86,0,0,1-.7-.12,1.46,1.46,0,0,1-.5-.35A1.4,1.4,0,0,1,69.19,8a2.17,2.17,0,0,1-.1-.69,2.39,2.39,0,0,1,.1-.73,1.94,1.94,0,0,1,.3-.57A1.35,1.35,0,0,1,70,5.6a1.56,1.56,0,0,1,.66-.14,1.64,1.64,0,0,1,.6.11,1.2,1.2,0,0,1,.46.34,1.53,1.53,0,0,1,.29.57,2.85,2.85,0,0,1,.08.81l-2.61,0v-.4l2.25,0-.2.27a1.4,1.4,0,0,0-.07-.67.92.92,0,0,0-.32-.4A.82.82,0,0,0,70.64,6a.93.93,0,0,0-.52.15,1,1,0,0,0-.34.45,1.79,1.79,0,0,0-.12.7,1.38,1.38,0,0,0,.26.9,1,1,0,0,0,.78.32,1.25,1.25,0,0,0,.36-.05.92.92,0,0,0,.26-.14.65.65,0,0,0,.17-.2,1.12,1.12,0,0,0,.11-.25l.51.12a1.44,1.44,0,0,1-.18.42,1.06,1.06,0,0,1-.29.31,1.74,1.74,0,0,1-.41.2A2.06,2.06,0,0,1,70.7,9Z"/><path class="cls-2" d="M74.34,9a1.85,1.85,0,0,1-.69-.12A1.41,1.41,0,0,1,72.83,8a2.17,2.17,0,0,1-.1-.69,2.39,2.39,0,0,1,.1-.73,1.94,1.94,0,0,1,.3-.57,1.35,1.35,0,0,1,.49-.37,1.6,1.6,0,0,1,.67-.14,1.63,1.63,0,0,1,.59.11,1.2,1.2,0,0,1,.46.34,1.4,1.4,0,0,1,.29.57,2.53,2.53,0,0,1,.08.81l-2.61,0v-.4l2.25,0-.19.27a1.52,1.52,0,0,0-.08-.67,1,1,0,0,0-.31-.4A.86.86,0,0,0,74.29,6a.91.91,0,0,0-.52.15,1.06,1.06,0,0,0-.35.45,1.79,1.79,0,0,0-.12.7,1.33,1.33,0,0,0,.27.9.94.94,0,0,0,.77.32,1.25,1.25,0,0,0,.36-.05A.92.92,0,0,0,75,8.29a.65.65,0,0,0,.17-.2,1.12,1.12,0,0,0,.11-.25l.51.12a1.42,1.42,0,0,1-.17.42,1.26,1.26,0,0,1-.3.31,1.56,1.56,0,0,1-.41.2A2.06,2.06,0,0,1,74.34,9Z"/><path class="cls-2" d="M78.21,8.87V4.63h.6V8.87Z"/><path class="cls-2" d="M79.87,8.87V5.55h.53l-.06,1h.11A2.25,2.25,0,0,1,80.69,6a1,1,0,0,1,.38-.37,1.08,1.08,0,0,1,.54-.13,1,1,0,0,1,.84.4A2,2,0,0,1,82.74,7V8.87h-.59V7.09A1.5,1.5,0,0,0,82,6.26.58.58,0,0,0,81.45,6a.74.74,0,0,0-.52.19,1.34,1.34,0,0,0-.34.51,1.87,1.87,0,0,0-.13.68v1.5Z"/><path class="cls-2" d="M84,8.87V6.53h-.59V6.06l.83.05V6a.64.64,0,0,1-.27-.18.76.76,0,0,1-.16-.26,1.06,1.06,0,0,1,0-.31.89.89,0,0,1,.12-.47.81.81,0,0,1,.34-.32,1.09,1.09,0,0,1,.53-.12,1.5,1.5,0,0,1,.44.07,1.07,1.07,0,0,1,.32.18l-.07.55A1,1,0,0,0,85.11,5a1.09,1.09,0,0,0-.35-.07.48.48,0,0,0-.35.14.57.57,0,0,0-.13.42.7.7,0,0,0,0,.27.56.56,0,0,0,.12.2.87.87,0,0,0,.15.13h.83v.49h-.87V8.87Z"/><path class="cls-2" d="M86.07,8.87V5.55h.53l0,1.16h.11a2.61,2.61,0,0,1,.18-.66,1.1,1.1,0,0,1,.32-.43.86.86,0,0,1,.51-.16h.15l.19,0,0,.61-.2,0-.18,0a.7.7,0,0,0-.44.16,1.31,1.31,0,0,0-.3.44,3.12,3.12,0,0,0-.2.61v1.6Z"/><path class="cls-2" d="M89.35,9a1.06,1.06,0,0,1-.48-.11.76.76,0,0,1-.35-.31A1,1,0,0,1,88.39,8a.93.93,0,0,1,.09-.42.67.67,0,0,1,.27-.31,1.36,1.36,0,0,1,.47-.21,4.57,4.57,0,0,1,.71-.15l.39-.06a.42.42,0,0,0,.22-.11.32.32,0,0,0,.07-.22.57.57,0,0,0-.17-.41A.73.73,0,0,0,89.91,6a1.06,1.06,0,0,0-.38.07.78.78,0,0,0-.33.21.75.75,0,0,0-.19.42l-.54-.18a1.36,1.36,0,0,1,.17-.41A1,1,0,0,1,89,5.74a1.22,1.22,0,0,1,.43-.2,1.92,1.92,0,0,1,.55-.08,1.48,1.48,0,0,1,.7.15.84.84,0,0,1,.42.43,1.82,1.82,0,0,1,.14.75v.74c0,.13,0,.28,0,.43a3.59,3.59,0,0,0,0,.47c0,.16,0,.31,0,.44h-.54l0-.41c0-.13,0-.27,0-.41h-.09a1.73,1.73,0,0,1-.25.44,1.36,1.36,0,0,1-.41.34A1.14,1.14,0,0,1,89.35,9Zm.18-.48a.9.9,0,0,0,.28,0,.89.89,0,0,0,.29-.15A1.42,1.42,0,0,0,90.38,8a1.55,1.55,0,0,0,.24-.38V7l.16,0a.59.59,0,0,1-.27.15,3,3,0,0,1-.38.09l-.41.06a2.11,2.11,0,0,0-.38.11.58.58,0,0,0-.27.19A.48.48,0,0,0,89,8a.5.5,0,0,0,.15.39A.61.61,0,0,0,89.53,8.48Z"/><path class="cls-2" d="M92.17,8.87V5.55h.53l0,1.16h.11a2.25,2.25,0,0,1,.18-.66,1.1,1.1,0,0,1,.32-.43.86.86,0,0,1,.51-.16h.15l.19,0,0,.61-.2,0-.18,0a.68.68,0,0,0-.44.16,1.31,1.31,0,0,0-.3.44,3.12,3.12,0,0,0-.2.61v1.6Z"/><path class="cls-2" d="M96.11,9a1.85,1.85,0,0,1-.69-.12,1.41,1.41,0,0,1-.51-.35A1.55,1.55,0,0,1,94.6,8a2.5,2.5,0,0,1-.1-.69,2.74,2.74,0,0,1,.1-.73A1.76,1.76,0,0,1,94.91,6a1.21,1.21,0,0,1,.49-.37,1.53,1.53,0,0,1,.66-.14,1.64,1.64,0,0,1,.6.11,1.28,1.28,0,0,1,.46.34,1.52,1.52,0,0,1,.28.57,2.53,2.53,0,0,1,.08.81l-2.61,0v-.4l2.26,0-.2.27a1.52,1.52,0,0,0-.08-.67.9.9,0,0,0-.31-.4A.86.86,0,0,0,96.06,6a.91.91,0,0,0-.52.15,1.06,1.06,0,0,0-.35.45,1.79,1.79,0,0,0-.12.7,1.33,1.33,0,0,0,.27.9,1,1,0,0,0,.78.32,1.23,1.23,0,0,0,.35-.05.92.92,0,0,0,.26-.14.65.65,0,0,0,.17-.2A1.12,1.12,0,0,0,97,7.84l.51.12a1.2,1.2,0,0,1-.17.42,1.26,1.26,0,0,1-.3.31,1.56,1.56,0,0,1-.41.2A2.06,2.06,0,0,1,96.11,9Z"/><path class="cls-2" d="M99.51,9a1.18,1.18,0,0,1-.73-.23,1.36,1.36,0,0,1-.46-.61,2.38,2.38,0,0,1-.16-.91,2.36,2.36,0,0,1,.16-.9,1.34,1.34,0,0,1,.45-.61,1.15,1.15,0,0,1,.72-.23,1,1,0,0,1,.58.15,1.22,1.22,0,0,1,.37.38,1.87,1.87,0,0,1,.2.51h.11c0-.12,0-.25,0-.39s0-.26,0-.4,0-.24,0-.35v-1h.59v4.5h-.52l0-.9h-.1a2,2,0,0,1-.22.51,1.09,1.09,0,0,1-.36.35A1,1,0,0,1,99.51,9Zm.13-.52a.73.73,0,0,0,.42-.11,1.06,1.06,0,0,0,.32-.28,1.41,1.41,0,0,0,.19-.39,1.11,1.11,0,0,0,.07-.39V7.19a1,1,0,0,0,0-.29,1.73,1.73,0,0,0-.11-.32,1.21,1.21,0,0,0-.2-.3.85.85,0,0,0-.28-.22A.8.8,0,0,0,99.65,6a.71.71,0,0,0-.48.16,1,1,0,0,0-.3.45,2.1,2.1,0,0,0-.1.64,1.83,1.83,0,0,0,.11.64.86.86,0,0,0,.29.42A.78.78,0,0,0,99.64,8.44Z"/><path class="cls-2" d="M72.63,15.45V11.2h.6v4.25Zm.3-1.92V13h2.76v.51Zm2.52,1.92V11.2H76v4.25Z"/><path class="cls-2" d="M78.53,15.53a2.1,2.1,0,0,1-.7-.11,1.46,1.46,0,0,1-.5-.35,1.48,1.48,0,0,1-.31-.53,2.19,2.19,0,0,1-.1-.7,2.37,2.37,0,0,1,.1-.72,1.72,1.72,0,0,1,.3-.57,1.51,1.51,0,0,1,.49-.38,1.56,1.56,0,0,1,.66-.13,1.64,1.64,0,0,1,.6.11,1,1,0,0,1,.46.34,1.53,1.53,0,0,1,.29.57,2.85,2.85,0,0,1,.08.81l-2.61,0v-.4l2.25,0-.2.27a1.4,1.4,0,0,0-.07-.67.87.87,0,0,0-.32-.4.82.82,0,0,0-.48-.13.93.93,0,0,0-.52.15,1,1,0,0,0-.34.44,1.86,1.86,0,0,0-.12.7,1.41,1.41,0,0,0,.26.91,1,1,0,0,0,.78.31,1,1,0,0,0,.36-.05.71.71,0,0,0,.26-.13.79.79,0,0,0,.17-.2,1.19,1.19,0,0,0,.11-.26l.51.13a1.38,1.38,0,0,1-.18.41,1,1,0,0,1-.29.31,1.2,1.2,0,0,1-.41.2A1.7,1.7,0,0,1,78.53,15.53Z"/><path class="cls-2" d="M81.51,15.53a1.13,1.13,0,0,1-.49-.1.89.89,0,0,1-.35-.32,1,1,0,0,1-.12-.53,1.08,1.08,0,0,1,.08-.42.88.88,0,0,1,.27-.31,2,2,0,0,1,.48-.21,6.14,6.14,0,0,1,.7-.14l.39-.06a.45.45,0,0,0,.23-.11.34.34,0,0,0,.07-.22.57.57,0,0,0-.17-.41.69.69,0,0,0-.53-.17,1.31,1.31,0,0,0-.38.06,1,1,0,0,0-.34.22.81.81,0,0,0-.18.42l-.54-.18a1.28,1.28,0,0,1,.17-.42,1.18,1.18,0,0,1,.31-.32,1.71,1.71,0,0,1,.43-.2,1.93,1.93,0,0,1,.55-.07,1.62,1.62,0,0,1,.7.14,1,1,0,0,1,.42.44,1.77,1.77,0,0,1,.13.75v.74c0,.13,0,.27,0,.43l0,.47c0,.16,0,.3,0,.44h-.54l0-.41c0-.14,0-.28,0-.41h-.08a1.65,1.65,0,0,1-.26.44,1.21,1.21,0,0,1-.4.34A1.26,1.26,0,0,1,81.51,15.53Zm.17-.47A.93.93,0,0,0,82,15a1,1,0,0,0,.29-.15,1.13,1.13,0,0,0,.28-.26,1.61,1.61,0,0,0,.23-.39v-.64l.17,0a.72.72,0,0,1-.27.16l-.38.08-.41.07a2.11,2.11,0,0,0-.38.1.77.77,0,0,0-.27.19.51.51,0,0,0-.1.34.5.5,0,0,0,.15.39A.64.64,0,0,0,81.68,15.06Z"/><path class="cls-2" d="M85.37,15.51a.87.87,0,0,1-.69-.25,1.1,1.1,0,0,1-.23-.76V12.61H84v-.49h.31a.48.48,0,0,0,.24,0,.28.28,0,0,0,.08-.2l.07-.5H85v.75h1v.5H85v1.87a.41.41,0,0,0,.46.48l.26,0a1.26,1.26,0,0,0,.26-.13v.58a1.89,1.89,0,0,1-.35.1A1.42,1.42,0,0,1,85.37,15.51Z"/><path class="cls-2" d="M88.1,15.53a2.08,2.08,0,0,1-.69-.11,1.41,1.41,0,0,1-.51-.35,1.65,1.65,0,0,1-.31-.53,2.52,2.52,0,0,1-.1-.7,2.72,2.72,0,0,1,.1-.72,1.57,1.57,0,0,1,.31-.57,1.32,1.32,0,0,1,.49-.38,1.53,1.53,0,0,1,.66-.13,1.64,1.64,0,0,1,.6.11,1.09,1.09,0,0,1,.46.34,1.52,1.52,0,0,1,.28.57,2.53,2.53,0,0,1,.08.81l-2.61,0v-.4l2.26,0-.2.27a1.52,1.52,0,0,0-.08-.67.85.85,0,0,0-.31-.4.86.86,0,0,0-.48-.13.91.91,0,0,0-.52.15,1,1,0,0,0-.35.44,1.86,1.86,0,0,0-.12.7,1.35,1.35,0,0,0,.27.91.94.94,0,0,0,.78.31,1,1,0,0,0,.35-.05.71.71,0,0,0,.26-.13.79.79,0,0,0,.17-.2,1.19,1.19,0,0,0,.11-.26l.51.13a1.15,1.15,0,0,1-.17.41,1.11,1.11,0,0,1-.3.31,1.12,1.12,0,0,1-.41.2A1.7,1.7,0,0,1,88.1,15.53Z"/><path class="cls-2" d="M90.3,15.45V12.12h.53l0,1.16h.1a2.65,2.65,0,0,1,.18-.65,1.16,1.16,0,0,1,.33-.44.8.8,0,0,1,.5-.15H92l.2,0,0,.61a.59.59,0,0,0-.19-.05.71.71,0,0,0-.62.14,1.44,1.44,0,0,0-.31.43,4.52,4.52,0,0,0-.2.62v1.6Z"/><path class="cls-2" d="M58,11.21v-.65h3.36v.65Zm1.33,1.36V9.2h.7v3.37Z"/><path class="cls-2" d="M9.06,14.42V8H7.68V6.17a2.39,2.39,0,0,0,1.1-.23A1.23,1.23,0,0,0,9.34,5h1.79v9.42Z"/><path class="cls-2" d="M16.89,14.61a4.22,4.22,0,0,1-1.65-.32A3.63,3.63,0,0,1,14,13.34a4.37,4.37,0,0,1-.81-1.53,6.84,6.84,0,0,1-.28-2.06A6.28,6.28,0,0,1,13.39,7a3.9,3.9,0,0,1,1.46-1.66A4,4,0,0,1,17,4.82a3.88,3.88,0,0,1,2.11.57,3.65,3.65,0,0,1,1.4,1.66A6.42,6.42,0,0,1,21,9.71a7.06,7.06,0,0,1-.29,2.1,4.28,4.28,0,0,1-.83,1.54,3.49,3.49,0,0,1-1.29.94A4,4,0,0,1,16.89,14.61Zm0-1.62a1.65,1.65,0,0,0,.72-.17,1.92,1.92,0,0,0,.64-.55,2.88,2.88,0,0,0,.45-1,5.46,5.46,0,0,0,.17-1.51A5.72,5.72,0,0,0,18.66,8,2.64,2.64,0,0,0,18,6.82a1.53,1.53,0,0,0-1-.39,1.6,1.6,0,0,0-.93.31,2.21,2.21,0,0,0-.76,1,4.9,4.9,0,0,0-.31,2,5.86,5.86,0,0,0,.16,1.49,3,3,0,0,0,.45,1,1.88,1.88,0,0,0,.64.59A1.71,1.71,0,0,0,16.93,13Z"/><path class="cls-2" d="M24.7,9.92a3.16,3.16,0,0,1-1.4-.29,2.06,2.06,0,0,1-1-.9A3,3,0,0,1,22,7.21a3.24,3.24,0,0,1,.24-1.32,2.21,2.21,0,0,1,.64-.84,2.56,2.56,0,0,1,.9-.46,3.83,3.83,0,0,1,1-.14,3.23,3.23,0,0,1,1.41.29,2.16,2.16,0,0,1,1,.9,2.94,2.94,0,0,1,.36,1.53,2.79,2.79,0,0,1-.42,1.63,2.21,2.21,0,0,1-1,.87A3.57,3.57,0,0,1,24.7,9.92Zm.06-1.52a1.26,1.26,0,0,0,.51-.11.82.82,0,0,0,.4-.36,1.36,1.36,0,0,0,.15-.69,1.53,1.53,0,0,0-.16-.74,1,1,0,0,0-.41-.4A1.34,1.34,0,0,0,24.7,6a1.13,1.13,0,0,0-.51.12.87.87,0,0,0-.39.37,1.37,1.37,0,0,0-.15.7,1.42,1.42,0,0,0,.16.72,1,1,0,0,0,.42.4A1.24,1.24,0,0,0,24.76,8.4Zm-.06,6L30.31,5h2l-5.6,9.42Zm7.7.59a3.16,3.16,0,0,1-1.4-.29,2.11,2.11,0,0,1-1-.9,3,3,0,0,1-.35-1.52A3.16,3.16,0,0,1,29.92,11a2.25,2.25,0,0,1,.64-.85,2.74,2.74,0,0,1,.9-.46,3.89,3.89,0,0,1,1-.14,3.38,3.38,0,0,1,1.41.29,2.27,2.27,0,0,1,1,.9,2.94,2.94,0,0,1,.36,1.53,2.87,2.87,0,0,1-.41,1.63,2.29,2.29,0,0,1-1.06.87A3.57,3.57,0,0,1,32.4,15Zm.06-1.52a1.26,1.26,0,0,0,.51-.11.82.82,0,0,0,.4-.36,1.4,1.4,0,0,0,.15-.7,1.49,1.49,0,0,0-.16-.73,1,1,0,0,0-.41-.4,1.34,1.34,0,0,0-.55-.13,1.13,1.13,0,0,0-.51.12.9.9,0,0,0-.39.36,1.36,1.36,0,0,0-.15.69,1.44,1.44,0,0,0,.16.73,1,1,0,0,0,.42.41A1.24,1.24,0,0,0,32.46,13.49Z"/><path class="cls-2" d="M42,14.55a2.72,2.72,0,0,1-1.38-.34,2.34,2.34,0,0,1-.93-1,3.44,3.44,0,0,1-.33-1.57,3.13,3.13,0,0,1,.35-1.58,2.35,2.35,0,0,1,1-1,2.92,2.92,0,0,1,2.68,0,2.43,2.43,0,0,1,1,1,3.3,3.3,0,0,1,.35,1.58,3.27,3.27,0,0,1-.34,1.58,2.37,2.37,0,0,1-1,1A2.7,2.7,0,0,1,42,14.55Zm0-.79a1.46,1.46,0,0,0,.87-.25,1.61,1.61,0,0,0,.56-.71,2.7,2.7,0,0,0,.2-1.08,2.68,2.68,0,0,0-.21-1.11,1.6,1.6,0,0,0-.59-.73A1.54,1.54,0,0,0,42,9.62a1.52,1.52,0,0,0-.86.23,1.48,1.48,0,0,0-.57.68,2.77,2.77,0,0,0-.2,1.1,2.4,2.4,0,0,0,.46,1.56A1.54,1.54,0,0,0,42.07,13.76Z"/><path class="cls-2" d="M46.46,14.42V10.55h-1V9.78l1.36.08V9.68a1.21,1.21,0,0,1-.43-.29A1.3,1.3,0,0,1,46.15,9a1.5,1.5,0,0,1-.09-.52,1.47,1.47,0,0,1,.2-.77,1.35,1.35,0,0,1,.56-.52A1.8,1.8,0,0,1,47.69,7a2.11,2.11,0,0,1,.73.11,1.58,1.58,0,0,1,.53.29l-.11.9a1.62,1.62,0,0,0-1.06-.41.78.78,0,0,0-.58.22,1,1,0,0,0-.22.69,1.21,1.21,0,0,0,.08.45,1.06,1.06,0,0,0,.19.33,1.16,1.16,0,0,0,.25.21h1.36v.8H47.42v3.87Z"/><path class="cls-2" d="M50.58,14.42V10.55h-1V9.78L51,9.86V9.68a1.17,1.17,0,0,1-.44-.29A1.3,1.3,0,0,1,50.27,9a1.5,1.5,0,0,1-.09-.52,1.47,1.47,0,0,1,.2-.77,1.41,1.41,0,0,1,.56-.52A1.8,1.8,0,0,1,51.81,7a2.11,2.11,0,0,1,.73.11,1.58,1.58,0,0,1,.53.29l-.11.9a1.62,1.62,0,0,0-1.06-.41.74.74,0,0,0-.57.22.94.94,0,0,0-.23.69,1.21,1.21,0,0,0,.08.45,1.06,1.06,0,0,0,.19.33,1.16,1.16,0,0,0,.25.21H53v.8H51.54v3.87Z"/></g></g></svg>