<svg xmlns="http://www.w3.org/2000/svg" width="216.969" height="30.219" viewBox="0 0 216.969 30.219">
  <defs>
    <style>
      .cls-1 {
        fill: #fff;
        fill-rule: evenodd;
      }
    </style>
  </defs>
  <path id="With_options_" data-name="With options, " class="cls-1" d="M57.683,209.036q2.4-1.576,2.4-5.234,0-3.907-4.067-5.327a4.827,4.827,0,0,0,3.121-4.572,5.785,5.785,0,0,0-.725-2.932,5.108,5.108,0,0,0-1.986-1.955,10.463,10.463,0,0,0-2.712-1.024,13.987,13.987,0,0,0-3.121-.33H42.3v22.95h7.882Q55.286,210.612,57.683,209.036Zm-3.09-5.359q0,2.457-3.971,2.458H47.784v-4.917h3.626Q54.592,201.218,54.593,203.677Zm-1.8-10.909a1.983,1.983,0,0,1,.851,1.671,2.017,2.017,0,0,1-.8,1.671,3.193,3.193,0,0,1-2.033.631H47.784v-4.6h2.648A3.907,3.907,0,0,1,52.8,192.768Zm15.352,11.507a13.029,13.029,0,0,1,.253-2.742,2.613,2.613,0,0,1,2.774-2.333,4.266,4.266,0,0,1,1.324.252l0.883-5.107a7.253,7.253,0,0,0-1.7-.253q-3.247,0-4.477,3.626v-3.373H62.852v16.267h5.3v-6.337Zm18.208,5.376a7.178,7.178,0,0,0,2.7-3.548l-4.7-1.007a2.911,2.911,0,0,1-2.712,1.922q-2.458,0-3.058-3.278H89.493q0-4.667-1.955-7.22a6.958,6.958,0,0,0-5.9-2.554,7.728,7.728,0,0,0-6.052,2.38,9.84,9.84,0,0,0,0,12.263,7.719,7.719,0,0,0,6.052,2.381A8,8,0,0,0,86.355,209.651Zm-2.884-11.065a3.438,3.438,0,0,1,.946,2.127h-5.77q0.6-2.836,2.995-2.837A2.579,2.579,0,0,1,83.471,198.586Zm22,6.351V201.47q0-7.5-7.031-7.5a10.13,10.13,0,0,0-4.618,1.009,6.415,6.415,0,0,0-2.884,2.648l4.16,2.27a2.96,2.96,0,0,1,2.775-1.576,2.352,2.352,0,0,1,1.781.677,2.664,2.664,0,0,1,.645,1.908v0.316q-1.387-.126-2.773-0.126a9.175,9.175,0,0,0-5.391,1.387,4.422,4.422,0,0,0-1.955,3.814,4.117,4.117,0,0,0,1.545,3.388,6.218,6.218,0,0,0,4.034,1.246,5.7,5.7,0,0,0,4.949-2.522q0.221,1.293.442,2.333l5.013-.441a22.318,22.318,0,0,1-.694-5.36h0Zm-6.306,1.813a3.461,3.461,0,0,1-2.049.646,1.924,1.924,0,0,1-1.339-.441,1.46,1.46,0,0,1-.49-1.135,1.437,1.437,0,0,1,.663-1.245,3.435,3.435,0,0,1,1.954-.458q1.419,0,2.4.1l-0.094.946A2.289,2.289,0,0,1,99.168,206.75Zm14.5-3.483,4.6,7.345h6.3l-6.022-8.606,5.581-7.661h-5.895l-4.572,6.463V187.662h-5.3v22.95h5.3v-7.345Zm22.036-8.922h-3.624v-4.572l-5.3,1.009v3.563h-2.459v4.35h2.459v5.611q0,3.469,1.308,5.076t4.3,1.608a15.556,15.556,0,0,0,3.593-.441l-0.41-4.288a5.035,5.035,0,0,1-1.7.378,1.8,1.8,0,0,1-1.309-.472,1.636,1.636,0,0,1-.488-1.23V198.7h3.624v-4.35Zm8.04,7.945q0-.22.064-0.79,0.315-2.74,2.585-2.742,1.923,0,1.923,2.87v8.984h5.3V200.24a7.028,7.028,0,0,0-1.371-4.634,4.945,4.945,0,0,0-4.021-1.64,5.006,5.006,0,0,0-4.476,2.4v-8.7h-5.3v22.95h5.3V202.29Zm18.378,1.985a13.051,13.051,0,0,1,.253-2.742,2.613,2.613,0,0,1,2.774-2.333,4.27,4.27,0,0,1,1.324.252l0.883-5.107a7.253,7.253,0,0,0-1.7-.253q-3.247,0-4.476,3.626v-3.373h-4.351v16.267h5.3v-6.337Zm21.691-1.8a8.813,8.813,0,0,0-2.144-6.133,8.886,8.886,0,0,0-12.1,0,9.84,9.84,0,0,0,0,12.263,8.883,8.883,0,0,0,12.1,0A8.8,8.8,0,0,0,183.817,202.479Zm-11.1,0a5.679,5.679,0,0,1,.708-3.027,2.683,2.683,0,0,1,4.383,0,6.8,6.8,0,0,1,0,6.052,2.683,2.683,0,0,1-4.383,0A5.669,5.669,0,0,1,172.721,202.479Zm28.183,4.1q-0.094-1.2-.094-3.531v-8.7h-5.3v8.386l-0.063.724q-0.315,2.743-2.584,2.743-1.926,0-1.925-2.869v-8.984h-5.3v10.371a7.024,7.024,0,0,0,1.371,4.635,4.94,4.94,0,0,0,4.019,1.639,5.5,5.5,0,0,0,5.107-3.058q0.126,0.883.5,2.806l4.792-.441Q201,207.774,200.9,206.576Zm14.72-2.3a5.025,5.025,0,0,0,2.05-4.192,4.285,4.285,0,0,0-.852-2.586l2.586-2.9-3.469-2.459-2.206,2.49a7.9,7.9,0,0,0-3.311-.662,8.125,8.125,0,0,0-5.2,1.623,5.159,5.159,0,0,0-2.049,4.241,5.461,5.461,0,0,0,2.207,4.383l-0.221.251a10.687,10.687,0,0,0-1.5,1.923,3.117,3.117,0,0,0-.4,1.514,3.327,3.327,0,0,0,1.056,2.633,4.476,4.476,0,0,0,3.043.929h4.761q1.859,0,1.859,1.1a1.416,1.416,0,0,1-.915,1.213,5.642,5.642,0,0,1-2.615.489,6.29,6.29,0,0,1-2.854-.52,1.606,1.606,0,0,1-.993-1.466l-5.044,1.04a4.747,4.747,0,0,0,2.522,3.4,13.775,13.775,0,0,0,6.369,1.135q4.443,0,6.636-1.671a5.253,5.253,0,0,0,2.19-4.381,4.021,4.021,0,0,0-1.528-3.247,7.5,7.5,0,0,0-4.809-1.261h-4.633a0.182,0.182,0,0,1-.221-0.19,1.037,1.037,0,0,1,.284-0.409l0.851-.915c0.5,0.042.9,0.063,1.2,0.063A8.283,8.283,0,0,0,215.624,204.275Zm-7.439-4.318a2.271,2.271,0,0,1,.645-1.625,2.212,2.212,0,0,1,3.185,0,2.364,2.364,0,0,1,0,3.248,2.209,2.209,0,0,1-3.185,0A2.268,2.268,0,0,1,208.185,199.957Zm17.561,2.333q0-.22.064-0.79,0.315-2.74,2.585-2.742,1.923,0,1.923,2.87v8.984h5.3V200.24a7.028,7.028,0,0,0-1.372-4.634,4.944,4.944,0,0,0-4.02-1.64,5.006,5.006,0,0,0-4.477,2.4v-8.7h-5.3v22.95h5.3V202.29Zm23.912,7.313a4.5,4.5,0,0,0,2.065-3.971A3.888,3.888,0,0,0,250.4,202.4a12.3,12.3,0,0,0-4.068-1.875l-1.04-.315q-1.89-.568-1.892-1.324,0-.883,1.641-0.883a7.148,7.148,0,0,1,3.971,1.166l1.955-3.342a10.547,10.547,0,0,0-6.274-1.86,8,8,0,0,0-4.76,1.309,4.412,4.412,0,0,0-1.828,3.83,3.992,3.992,0,0,0,1.324,3.231,11.05,11.05,0,0,0,3.941,1.907l1.039,0.317a6.45,6.45,0,0,1,1.545.614,0.913,0.913,0,0,1,.473.8q0,0.978-1.8.978a10.458,10.458,0,0,1-2.9-.457,8.421,8.421,0,0,1-2.4-1.025l-1.954,3.342a11.367,11.367,0,0,0,7.125,2.175A9.042,9.042,0,0,0,249.658,209.6Zm7.675,2.648a24.036,24.036,0,0,0,1.5-2.57,4.3,4.3,0,0,0,.456-1.843,3.122,3.122,0,0,0-.977-2.334,3.24,3.24,0,0,0-2.332-.944,3.105,3.105,0,0,0-2.223.85,2.861,2.861,0,0,0-.9,2.175,2.527,2.527,0,0,0,.568,1.7,2.781,2.781,0,0,0,1.261.883l-1.955,5.107h2.617Z" transform="translate(-42.313 -187.656)"/>
</svg>
