<svg xmlns="http://www.w3.org/2000/svg" viewBox="0 0 307.55 80.17"><defs><style>.cls-1{opacity:0.39;}.cls-2{fill:#107b43;}.cls-3{fill:#fefefe;}.cls-4{fill:#2e2e3b;}.cls-5{fill:#141c42;}</style></defs><g id="Layer_2" data-name="Layer 2"><g id="Layer_1-2" data-name="Layer 1"><g class="cls-1"><rect class="cls-2" x="-0.45" y="12.26" width="308.46" height="55.65" rx="26.43" transform="translate(-3.14 14.94) rotate(-5.51)"/></g><rect class="cls-3" x="2.8" y="15.52" width="301.94" height="49.14" rx="24.57" transform="matrix(1, -0.1, 0.1, 1, -3.14, 14.94)"/><path class="cls-4" d="M38.9,44.11l1.92,5.22a8.47,8.47,0,0,0,6.6,5.44l5.49.88-5.22,1.92a8.49,8.49,0,0,0-5.44,6.6l-.89,5.49-1.91-5.22A8.49,8.49,0,0,0,32.84,59l-5.48-.88,5.21-1.92A8.45,8.45,0,0,0,38,49.6Z"/><path class="cls-4" d="M27.25,42.25l.91,2.48a4,4,0,0,0,3.14,2.59l2.61.42-2.48.91a4,4,0,0,0-2.59,3.14l-.42,2.61-.91-2.48a4,4,0,0,0-3.14-2.59l-2.61-.42L24.24,48a4,4,0,0,0,2.59-3.14Z"/><path class="cls-4" d="M33.64,34.57l.64,1.72a2.78,2.78,0,0,0,2.18,1.8l1.82.3L36.55,39a2.81,2.81,0,0,0-1.8,2.19L34.46,43l-.64-1.72a2.8,2.8,0,0,0-2.18-1.8l-1.82-.3,1.73-.63a2.81,2.81,0,0,0,1.8-2.19Z"/><path class="cls-5" d="M68.8,46.35,65,35.73l1.64-.16,3.09,9.31.15,0,1.32-9.73,2-.19,3.13,9.3.14,0,1.31-9.73,1.59-.15L77.71,45.49l-2.18.21-3.07-9.29-.15,0L71,46.14Z"/><path class="cls-5" d="M81.17,45.16l-.44-4.62-.38-3.91,1.35-.13.16,3,.28,0a6.16,6.16,0,0,1,.3-1.73,2.78,2.78,0,0,1,.72-1.19A2.13,2.13,0,0,1,84.42,36h.38a2.92,2.92,0,0,1,.51.08l.07,1.57a2.49,2.49,0,0,0-.51-.09,2.66,2.66,0,0,0-.49,0,1.63,1.63,0,0,0-1.07.52,3.07,3.07,0,0,0-.67,1.18,7.66,7.66,0,0,0-.36,1.63l.39,4.1Z"/><path class="cls-5" d="M86.7,34.52a1.18,1.18,0,0,1-.81-.14.74.74,0,0,1-.32-.61.78.78,0,0,1,.2-.67,1.18,1.18,0,0,1,.75-.29,1.24,1.24,0,0,1,.81.14.78.78,0,0,1,.33.62.79.79,0,0,1-.2.66A1.21,1.21,0,0,1,86.7,34.52Zm.21,10.09-.82-8.53,1.5-.14.82,8.52Z"/><path class="cls-5" d="M92.83,44.2A2.27,2.27,0,0,1,91,43.73a2.89,2.89,0,0,1-.76-1.91L89.77,37l-1.29.12-.1-1.25.81-.08a1,1,0,0,0,.59-.2.74.74,0,0,0,.17-.52l0-1.3.92-.09.19,1.93,2.46-.24.12,1.27-2.46.24.46,4.78a1.3,1.3,0,0,0,.4.92,1.24,1.24,0,0,0,.91.2,3.07,3.07,0,0,0,.64-.14,1.84,1.84,0,0,0,.64-.4l.14,1.5a4.58,4.58,0,0,1-1.58.47Z"/><path class="cls-5" d="M99,43.66a4.75,4.75,0,0,1-1.8-.14,3.43,3.43,0,0,1-1.38-.75,3.83,3.83,0,0,1-.92-1.3,5.69,5.69,0,0,1-.44-1.75,6.36,6.36,0,0,1,.09-1.87,4.36,4.36,0,0,1,.63-1.55,3.43,3.43,0,0,1,1.16-1.08,4.14,4.14,0,0,1,1.67-.5,4,4,0,0,1,1.56.13,2.91,2.91,0,0,1,1.26.75,4,4,0,0,1,.88,1.4,6.9,6.9,0,0,1,.4,2l-6.69.69-.1-1,5.78-.61-.44.75a3.86,3.86,0,0,0-.37-1.7,2.24,2.24,0,0,0-.9-.95A2.18,2.18,0,0,0,98.11,36a2.28,2.28,0,0,0-1.3.52A2.52,2.52,0,0,0,96,37.73a4.85,4.85,0,0,0-.13,1.83,3.54,3.54,0,0,0,.9,2.25,2.48,2.48,0,0,0,2.07.61,2.84,2.84,0,0,0,.9-.21,2.21,2.21,0,0,0,.63-.41,2,2,0,0,0,.4-.57,3.39,3.39,0,0,0,.21-.66l1.35.18a3.52,3.52,0,0,1-.35,1.11,3.23,3.23,0,0,1-.69.87,3.3,3.3,0,0,1-1,.61A4.77,4.77,0,0,1,99,43.66Z"/><path class="cls-5" d="M109,42.69a3,3,0,0,1-1.28-.15,2.1,2.1,0,0,1-1-.73,2.53,2.53,0,0,1-.47-1.32,2.59,2.59,0,0,1,.12-1.1,2.13,2.13,0,0,1,.62-.86,4.07,4.07,0,0,1,1.16-.66,12.11,12.11,0,0,1,1.78-.53c.4-.1.73-.19,1-.27a1,1,0,0,0,.54-.32.83.83,0,0,0,.13-.59,1.44,1.44,0,0,0-.53-1,1.84,1.84,0,0,0-1.39-.3,3.12,3.12,0,0,0-1,.26,2.07,2.07,0,0,0-.81.63,1.88,1.88,0,0,0-.37,1.13l-1.43-.33a3.41,3.41,0,0,1,.33-1.11,3.07,3.07,0,0,1,.71-.9,3.79,3.79,0,0,1,1.06-.62,5.25,5.25,0,0,1,1.39-.32,4,4,0,0,1,1.83.19,2.37,2.37,0,0,1,1.18,1,4.7,4.7,0,0,1,.54,1.89l.18,1.89c0,.35.08.72.13,1.12s.12.79.19,1.19.14.77.21,1.12l-1.39.14c-.06-.35-.13-.7-.19-1s-.11-.7-.16-1.05l-.21,0a5,5,0,0,1-.55,1.2,3.22,3.22,0,0,1-1,1A3.15,3.15,0,0,1,109,42.69Zm.33-1.27a2.38,2.38,0,0,0,.72-.18,2.64,2.64,0,0,0,.71-.45,3.7,3.7,0,0,0,.64-.75,4.38,4.38,0,0,0,.51-1l-.16-1.65.44,0a1.6,1.6,0,0,1-.67.46,6.48,6.48,0,0,1-.94.31l-1,.27a5.75,5.75,0,0,0-.94.36,1.69,1.69,0,0,0-.65.55,1.27,1.27,0,0,0-.18.89,1.22,1.22,0,0,0,.49,1A1.49,1.49,0,0,0,109.37,41.42Z"/><path class="cls-5" d="M115.39,41.86l-.51-5.29-.31-3.23,1.35-.14.11,2.72.28,0a5.56,5.56,0,0,1,.46-1.71,2.44,2.44,0,0,1,.89-1,2.89,2.89,0,0,1,1.35-.45,2.49,2.49,0,0,1,2.25.81,5.13,5.13,0,0,1,1,3l.45,4.7-1.52.15-.44-4.57a3.93,3.93,0,0,0-.66-2.1,1.48,1.48,0,0,0-1.39-.56,1.93,1.93,0,0,0-1.3.62,3.45,3.45,0,0,0-.74,1.38,5.54,5.54,0,0,0-.17,1.79l.37,3.86Z"/><path class="cls-5" d="M127.79,40.66l-1.05-10.88,1.51-.14,1.05,10.88ZM127.64,31l-.13-1.28,6.85-.66.12,1.28Zm.44,4.65L128,34.42l6.08-.58.12,1.22Zm.48,5-.12-1.3,6.86-.66.12,1.3Z"/><path class="cls-5" d="M135.69,39.9l2.47-4.53-3.33-4,1.76-.17,2.35,3.24.21,0,1.65-3.62,1.75-.17-2.48,4.55,3.37,4-1.77.17-2.36-3.25-.21,0-1.65,3.63Z"/><path class="cls-5" d="M147.59,39a4.55,4.55,0,0,1-1.93-.18,3.43,3.43,0,0,1-1.37-.85,4,4,0,0,1-.84-1.33,6,6,0,0,1-.38-1.63,6.26,6.26,0,0,1,.07-1.79,4.47,4.47,0,0,1,.61-1.53,3.62,3.62,0,0,1,1.16-1.11,4.09,4.09,0,0,1,1.72-.52,4,4,0,0,1,1.75.17,3.1,3.1,0,0,1,1.3.83,3.07,3.07,0,0,1,.74,1.39L149,33a2.07,2.07,0,0,0-.36-.87,1.85,1.85,0,0,0-.77-.63,2.15,2.15,0,0,0-1.16-.16A2.08,2.08,0,0,0,145,32.42a3.43,3.43,0,0,0-.36,1.08,5.09,5.09,0,0,0,0,1.3,4.59,4.59,0,0,0,.43,1.64,2.27,2.27,0,0,0,1,1,2.57,2.57,0,0,0,1.5.26,2.65,2.65,0,0,0,1.15-.35,1.94,1.94,0,0,0,.7-.75,2.76,2.76,0,0,0,.26-1.07l1.41.18a3.81,3.81,0,0,1-.3,1.3,3,3,0,0,1-.71,1,3.66,3.66,0,0,1-1,.65A4.61,4.61,0,0,1,147.59,39Z"/><path class="cls-5" d="M155.79,38.18a4.76,4.76,0,0,1-1.8-.13,3.58,3.58,0,0,1-1.38-.76,3.66,3.66,0,0,1-.92-1.29,5.48,5.48,0,0,1-.44-1.76,6.06,6.06,0,0,1,.08-1.87,4.52,4.52,0,0,1,.64-1.54,3.56,3.56,0,0,1,1.16-1.09,4.09,4.09,0,0,1,1.66-.5,4.24,4.24,0,0,1,1.57.13,3.07,3.07,0,0,1,1.26.75,4,4,0,0,1,.87,1.4,6.66,6.66,0,0,1,.4,2.05l-6.69.7-.1-1,5.78-.6-.44.74a3.76,3.76,0,0,0-.36-1.7,2.22,2.22,0,0,0-.9-.94,2.12,2.12,0,0,0-1.26-.23,2.32,2.32,0,0,0-1.3.52,2.48,2.48,0,0,0-.77,1.23,4.59,4.59,0,0,0-.13,1.82,3.49,3.49,0,0,0,.89,2.26,2.48,2.48,0,0,0,2.08.6,2.84,2.84,0,0,0,.9-.21,2,2,0,0,0,.63-.41,1.82,1.82,0,0,0,.39-.56,2.49,2.49,0,0,0,.21-.67l1.35.18a3.52,3.52,0,0,1-.35,1.11,2.93,2.93,0,0,1-.68.88,3.66,3.66,0,0,1-1,.61A4.63,4.63,0,0,1,155.79,38.18Z"/><path class="cls-5" d="M160.55,37.51,159.44,26l1.5-.14,1.11,11.54Z"/><path class="cls-5" d="M167.77,36.81l-.58-6-1.51.15-.12-1.21,2.14-.07,0-.28A1.8,1.8,0,0,1,167,29a1.76,1.76,0,0,1-.48-.63,2.26,2.26,0,0,1-.22-.79,2.36,2.36,0,0,1,.19-1.23,2.15,2.15,0,0,1,.8-.9,2.94,2.94,0,0,1,1.33-.42,3.52,3.52,0,0,1,1.14.06,2.62,2.62,0,0,1,.88.37l-.05,1.42a2.06,2.06,0,0,0-.8-.39,2.37,2.37,0,0,0-.91-.09,1.18,1.18,0,0,0-.85.43,1.49,1.49,0,0,0-.25,1.11,1.93,1.93,0,0,0,.19.69,1.57,1.57,0,0,0,.35.48,2.73,2.73,0,0,0,.42.3l2.11-.21.1,1.24-2.22.22.58,6Z"/><path class="cls-5" d="M176,36.23a4.24,4.24,0,0,1-2.21-.33,3.65,3.65,0,0,1-1.6-1.4,5.27,5.27,0,0,1-.75-2.39,5,5,0,0,1,.31-2.52A3.7,3.7,0,0,1,173.1,28a4.34,4.34,0,0,1,2-.69,4.24,4.24,0,0,1,2.17.32A3.74,3.74,0,0,1,178.9,29a5.06,5.06,0,0,1,.78,2.41,5,5,0,0,1-.3,2.51,3.58,3.58,0,0,1-1.32,1.64A4.36,4.36,0,0,1,176,36.23ZM176,35a2.3,2.3,0,0,0,2.09-1.7,4.24,4.24,0,0,0,.15-1.71,4.47,4.47,0,0,0-.49-1.71,2.61,2.61,0,0,0-1-1.05,2.53,2.53,0,0,0-1.47-.27,2.46,2.46,0,0,0-1.31.5,2.28,2.28,0,0,0-.78,1.15,4.29,4.29,0,0,0-.15,1.73,3.82,3.82,0,0,0,.95,2.37A2.41,2.41,0,0,0,176,35Z"/><path class="cls-5" d="M181.38,35.5l-.45-4.62L180.56,27l1.35-.13.15,3,.28,0a7,7,0,0,1,.3-1.73,2.8,2.8,0,0,1,.73-1.19,2.13,2.13,0,0,1,1.25-.52H185a2.69,2.69,0,0,1,.5.08l.07,1.57a2.28,2.28,0,0,0-.51-.09,2.55,2.55,0,0,0-.48,0,1.62,1.62,0,0,0-1.07.51,3.21,3.21,0,0,0-.68,1.19,9.12,9.12,0,0,0-.36,1.63l.4,4.1Z"/><path class="cls-5" d="M187.1,35l-.51-5.28-.31-3.25,1.33-.13.12,2.72.28,0a6.06,6.06,0,0,1,.42-1.68,2.57,2.57,0,0,1,.8-1.06,2.52,2.52,0,0,1,1.2-.44,2.16,2.16,0,0,1,1.39.28,2.36,2.36,0,0,1,.88,1,3.68,3.68,0,0,1,.4,1.39l.26,0a4.93,4.93,0,0,1,.41-1.62,2.68,2.68,0,0,1,.84-1.07,2.65,2.65,0,0,1,1.26-.45,2.51,2.51,0,0,1,1.18.15,2.46,2.46,0,0,1,.92.7,4,4,0,0,1,.63,1.23,8.18,8.18,0,0,1,.33,1.73l.45,4.67-1.5.15-.43-4.47a5.8,5.8,0,0,0-.34-1.61,2,2,0,0,0-.63-.92,1.31,1.31,0,0,0-.93-.24,1.66,1.66,0,0,0-1.05.53,3.05,3.05,0,0,0-.68,1.25,6.25,6.25,0,0,0-.24,1.74l.4,4.09-1.47.14-.42-4.32a6.69,6.69,0,0,0-.34-1.68,2.25,2.25,0,0,0-.64-1,1.28,1.28,0,0,0-1-.26,1.61,1.61,0,0,0-1.09.57,3.16,3.16,0,0,0-.65,1.28,6.8,6.8,0,0,0-.21,1.74l.39,4Z"/><path class="cls-5" d="M203.76,33.56a2.49,2.49,0,0,1-2.24-.79,4.92,4.92,0,0,1-1-2.88l-.46-4.8,1.51-.14.45,4.66a3.91,3.91,0,0,0,.63,2,1.48,1.48,0,0,0,1.42.55,1.62,1.62,0,0,0,.89-.34,2.49,2.49,0,0,0,.65-.77,4.09,4.09,0,0,0,.4-1.15,6.28,6.28,0,0,0,.13-1.4l-.38-4,1.5-.14.48,5,.34,3.56-1.33.13-.13-2.75-.25,0a5.81,5.81,0,0,1-.44,1.73,2.64,2.64,0,0,1-.87,1.06A2.87,2.87,0,0,1,203.76,33.56Z"/><path class="cls-5" d="M209.82,32.76l-1.11-11.55,1.5-.14,1.11,11.54Z"/><path class="cls-5" d="M215,32.47a3,3,0,0,1-1.28-.15,2.08,2.08,0,0,1-1-.73,2.84,2.84,0,0,1-.34-2.42,2.07,2.07,0,0,1,.61-.85,4.22,4.22,0,0,1,1.16-.67,12.49,12.49,0,0,1,1.78-.53c.4-.1.73-.18,1-.27a1,1,0,0,0,.55-.32.83.83,0,0,0,.12-.59,1.41,1.41,0,0,0-.53-1,1.84,1.84,0,0,0-1.39-.3,3.12,3.12,0,0,0-1,.26,2.07,2.07,0,0,0-.81.63,2,2,0,0,0-.37,1.13l-1.43-.33a3.19,3.19,0,0,1,.34-1.11,2.74,2.74,0,0,1,.7-.89,3.59,3.59,0,0,1,1.06-.63,5.32,5.32,0,0,1,1.4-.32,4,4,0,0,1,1.82.19,2.33,2.33,0,0,1,1.18,1,4.55,4.55,0,0,1,.54,1.89l.18,1.9c0,.34.08.71.13,1.11s.12.79.19,1.19.15.77.21,1.12l-1.38.14c-.07-.35-.13-.7-.19-1.05s-.12-.7-.16-1.05l-.22,0a4.64,4.64,0,0,1-.55,1.2,3.22,3.22,0,0,1-.95,1A3,3,0,0,1,215,32.47Zm.32-1.26a2.71,2.71,0,0,0,.73-.19,2.59,2.59,0,0,0,.7-.45,3.73,3.73,0,0,0,.65-.75,4.79,4.79,0,0,0,.5-1l-.16-1.65.44,0a1.63,1.63,0,0,1-.66.46,7.06,7.06,0,0,1-.95.31l-1,.27a5.63,5.63,0,0,0-.93.36,1.73,1.73,0,0,0-.66.56,1.35,1.35,0,0,0-.18.88,1.25,1.25,0,0,0,.49,1A1.57,1.57,0,0,0,215.36,31.21Z"/><path class="cls-5" d="M227.37,31.23a2.25,2.25,0,0,1-1.83-.47,2.89,2.89,0,0,1-.77-1.91L224.31,24l-1.29.12-.1-1.25.8-.08a.93.93,0,0,0,.59-.21.66.66,0,0,0,.18-.51l0-1.3.92-.09.19,1.93,2.45-.24.13,1.27-2.46.24.46,4.78a1.06,1.06,0,0,0,1.31,1.12,2.57,2.57,0,0,0,.64-.15,1.75,1.75,0,0,0,.64-.39l.14,1.5a4.68,4.68,0,0,1-.86.33A4.53,4.53,0,0,1,227.37,31.23Z"/><path class="cls-5" d="M233.5,30.69a4.22,4.22,0,0,1-2.2-.33,3.78,3.78,0,0,1-1.6-1.4,5.31,5.31,0,0,1-.75-2.39,5,5,0,0,1,.31-2.52,3.74,3.74,0,0,1,1.33-1.62,4.64,4.64,0,0,1,4.19-.38,3.83,3.83,0,0,1,1.62,1.38,5,5,0,0,1,.78,2.41,5,5,0,0,1-.3,2.51A3.55,3.55,0,0,1,235.56,30,4.41,4.41,0,0,1,233.5,30.69Zm-.05-1.25a2.36,2.36,0,0,0,1.32-.51,2.49,2.49,0,0,0,.77-1.18,4.31,4.31,0,0,0,.15-1.72,4.36,4.36,0,0,0-.49-1.7,2.67,2.67,0,0,0-1-1A2.45,2.45,0,0,0,232.7,23a2.42,2.42,0,0,0-1.31.49,2.32,2.32,0,0,0-.78,1.15,4.36,4.36,0,0,0-.15,1.74,3.79,3.79,0,0,0,.95,2.36A2.41,2.41,0,0,0,233.45,29.44Z"/><path class="cls-5" d="M71.83,60.11a4.41,4.41,0,0,1-1.94-.19,3.32,3.32,0,0,1-1.36-.85,3.84,3.84,0,0,1-.85-1.33,6.33,6.33,0,0,1-.3-3.41A4.25,4.25,0,0,1,68,52.79a3.59,3.59,0,0,1,1.15-1.11,4.14,4.14,0,0,1,1.73-.52,4.25,4.25,0,0,1,1.74.17,3.3,3.3,0,0,1,1.31.83,3.15,3.15,0,0,1,.74,1.4l-1.4.53a2.08,2.08,0,0,0-.36-.86,1.92,1.92,0,0,0-.76-.64,2.57,2.57,0,0,0-2.24.19,2.13,2.13,0,0,0-.69.77,3.13,3.13,0,0,0-.36,1.08,5.14,5.14,0,0,0,0,1.31,4.53,4.53,0,0,0,.44,1.63,2.27,2.27,0,0,0,1,1,2.59,2.59,0,0,0,1.51.25,2.51,2.51,0,0,0,1.14-.35,1.87,1.87,0,0,0,.7-.75,2.55,2.55,0,0,0,.26-1.06l1.42.17a3.76,3.76,0,0,1-.31,1.3,2.9,2.9,0,0,1-.71,1,3.33,3.33,0,0,1-1,.65A4.62,4.62,0,0,1,71.83,60.11Z"/><path class="cls-5" d="M78.52,59.46a3,3,0,0,1-1.28-.15,2.23,2.23,0,0,1-1-.72,2.69,2.69,0,0,1-.46-1.33,2.61,2.61,0,0,1,.12-1.1,2.1,2.1,0,0,1,.62-.85,4.32,4.32,0,0,1,1.16-.67,12.11,12.11,0,0,1,1.78-.53c.4-.1.73-.18,1-.26a1.09,1.09,0,0,0,.54-.33.82.82,0,0,0,.13-.59,1.46,1.46,0,0,0-.53-1,1.87,1.87,0,0,0-1.4-.3,3.14,3.14,0,0,0-.95.26,2.07,2.07,0,0,0-.81.63,1.88,1.88,0,0,0-.37,1.13l-1.43-.33A3.41,3.41,0,0,1,76,52.2a2.91,2.91,0,0,1,.71-.89,3.59,3.59,0,0,1,1.06-.63,5.25,5.25,0,0,1,1.39-.32,4,4,0,0,1,1.83.19,2.42,2.42,0,0,1,1.18,1,4.7,4.7,0,0,1,.54,1.89l.18,1.9c0,.34.08.71.13,1.11s.12.79.19,1.19.14.77.21,1.12L82,58.91c-.06-.35-.13-.7-.19-1s-.11-.7-.16-1l-.21,0A5,5,0,0,1,80.9,58a3.22,3.22,0,0,1-1,1A3,3,0,0,1,78.52,59.46Zm.33-1.26a2.74,2.74,0,0,0,.72-.19,2.64,2.64,0,0,0,.71-.45,3.7,3.7,0,0,0,.64-.75,4.38,4.38,0,0,0,.51-1l-.16-1.65.44,0a1.6,1.6,0,0,1-.67.46,6.48,6.48,0,0,1-.94.31l-1,.27a5.42,5.42,0,0,0-.94.36,1.71,1.71,0,0,0-.65.56A1.5,1.5,0,0,0,77.78,58,1.55,1.55,0,0,0,78.85,58.2Z"/><path class="cls-5" d="M84.87,58.63,83.75,47.09l1.5-.15,1.12,11.55Z"/><path class="cls-5" d="M91.78,58.18A4.59,4.59,0,0,1,89.84,58a3.32,3.32,0,0,1-1.36-.85,3.84,3.84,0,0,1-.85-1.33,6.35,6.35,0,0,1-.38-1.63,6.25,6.25,0,0,1,.08-1.79,4.27,4.27,0,0,1,.61-1.53,3.43,3.43,0,0,1,1.16-1.11,4,4,0,0,1,1.72-.52,4,4,0,0,1,1.75.17,3.07,3.07,0,0,1,2,2.22l-1.4.54a2.19,2.19,0,0,0-.35-.87,1.92,1.92,0,0,0-.77-.63,2.2,2.2,0,0,0-1.17-.16,2.3,2.3,0,0,0-1.07.35,2.13,2.13,0,0,0-.69.77,3,3,0,0,0-.36,1.08,4.67,4.67,0,0,0,0,1.3,4.59,4.59,0,0,0,.43,1.64,2.2,2.2,0,0,0,1,1,2.6,2.6,0,0,0,1.51.26,2.73,2.73,0,0,0,1.15-.35,1.91,1.91,0,0,0,.69-.75,2.45,2.45,0,0,0,.26-1.07l1.42.18a3.7,3.7,0,0,1-.31,1.29,2.92,2.92,0,0,1-.7,1,3.72,3.72,0,0,1-1,.65A4.62,4.62,0,0,1,91.78,58.18Z"/><path class="cls-5" d="M99.05,57.48a2.52,2.52,0,0,1-2.24-.78,5.12,5.12,0,0,1-1-2.89L95.34,49l1.52-.15.45,4.67a4.08,4.08,0,0,0,.62,2,1.5,1.5,0,0,0,1.42.54,1.69,1.69,0,0,0,.89-.33,2.3,2.3,0,0,0,.65-.78,4.1,4.1,0,0,0,.41-1.15,6.87,6.87,0,0,0,.13-1.4l-.38-4,1.5-.15.47,5,.35,3.56L102,57l-.13-2.75-.25,0a5.26,5.26,0,0,1-.44,1.73,2.49,2.49,0,0,1-.87,1.06A2.68,2.68,0,0,1,99.05,57.48Z"/><path class="cls-5" d="M105.11,56.68,104,45.14l1.5-.15,1.12,11.54Z"/><path class="cls-5" d="M110.33,56.39a2.71,2.71,0,0,1-1.28-.15,2.09,2.09,0,0,1-1-.72,2.69,2.69,0,0,1-.46-1.33,2.4,2.4,0,0,1,.12-1.09,2.13,2.13,0,0,1,.62-.86,4.07,4.07,0,0,1,1.16-.66A13.34,13.34,0,0,1,111.3,51c.4-.09.72-.18,1-.26a1.09,1.09,0,0,0,.54-.33.8.8,0,0,0,.13-.58,1.46,1.46,0,0,0-.53-1,1.87,1.87,0,0,0-1.4-.3,3,3,0,0,0-1,.26,2.21,2.21,0,0,0-.82.64,1.92,1.92,0,0,0-.36,1.12l-1.43-.32a3.39,3.39,0,0,1,.33-1.12,2.88,2.88,0,0,1,.71-.89,3.47,3.47,0,0,1,1.06-.63,5.16,5.16,0,0,1,1.39-.32,4,4,0,0,1,1.83.2,2.29,2.29,0,0,1,1.17,1,4.4,4.4,0,0,1,.54,1.89l.19,1.9c0,.34.07.71.13,1.11s.12.8.19,1.2.14.77.21,1.12l-1.39.13c-.06-.35-.13-.7-.19-1.05s-.11-.7-.16-1l-.21,0a4.67,4.67,0,0,1-.55,1.2,3.22,3.22,0,0,1-.95,1A3,3,0,0,1,110.33,56.39Zm.33-1.26a2.4,2.4,0,0,0,.72-.19,2.64,2.64,0,0,0,.71-.45,3.92,3.92,0,0,0,.64-.74,4.66,4.66,0,0,0,.51-1l-.16-1.65.43,0a1.67,1.67,0,0,1-.66.47,6.93,6.93,0,0,1-.94.3l-1,.28a4.18,4.18,0,0,0-.94.36,1.61,1.61,0,0,0-.65.55,1.29,1.29,0,0,0-.19.88,1.26,1.26,0,0,0,.5,1A1.55,1.55,0,0,0,110.66,55.13Z"/><path class="cls-5" d="M119.35,55.47a2.26,2.26,0,0,1-1.83-.47,2.89,2.89,0,0,1-.77-1.91l-.46-4.83-1.29.13-.1-1.26.8-.08a1,1,0,0,0,.59-.2.68.68,0,0,0,.18-.52l0-1.3.92-.09.19,1.93,2.45-.24.13,1.27-2.46.24.46,4.78A1.06,1.06,0,0,0,119.51,54a2.54,2.54,0,0,0,.64-.14,1.94,1.94,0,0,0,.64-.4l.14,1.5a4.13,4.13,0,0,1-.86.34A4.24,4.24,0,0,1,119.35,55.47Z"/><path class="cls-5" d="M125.5,54.93a4.76,4.76,0,0,1-1.8-.13,3.58,3.58,0,0,1-1.38-.76,3.66,3.66,0,0,1-.92-1.29A5.55,5.55,0,0,1,121,51a6,6,0,0,1,.09-1.87,4.31,4.31,0,0,1,.63-1.54,3.46,3.46,0,0,1,1.16-1.09,4.09,4.09,0,0,1,1.67-.5,4,4,0,0,1,1.56.13,2.91,2.91,0,0,1,1.26.75,4,4,0,0,1,.87,1.4,6.38,6.38,0,0,1,.4,2l-6.69.7-.1-1,5.79-.6-.45.74a3.73,3.73,0,0,0-.36-1.7,2.16,2.16,0,0,0-.9-.94,2.12,2.12,0,0,0-1.26-.23,2.32,2.32,0,0,0-1.3.52,2.43,2.43,0,0,0-.77,1.23,4.59,4.59,0,0,0-.13,1.82,3.43,3.43,0,0,0,.9,2.25,2.45,2.45,0,0,0,2.07.61,2.84,2.84,0,0,0,.9-.21,2.21,2.21,0,0,0,.63-.41,2,2,0,0,0,.39-.56,2.61,2.61,0,0,0,.21-.67l1.35.18a3.52,3.52,0,0,1-.35,1.11,2.89,2.89,0,0,1-.68.87,3.45,3.45,0,0,1-1,.62A5,5,0,0,1,125.5,54.93Z"/><path class="cls-5" d="M137.26,53.8a4.58,4.58,0,0,1-1.94-.18,3.54,3.54,0,0,1-1.37-.85,4,4,0,0,1-.84-1.34,5.81,5.81,0,0,1-.38-1.62,5.88,5.88,0,0,1,.08-1.79,4.13,4.13,0,0,1,.61-1.53,3.39,3.39,0,0,1,1.15-1.11,4.1,4.1,0,0,1,1.73-.53A4.25,4.25,0,0,1,138,45a3.22,3.22,0,0,1,1.31.84,3.11,3.11,0,0,1,.74,1.39l-1.4.53a2.08,2.08,0,0,0-.36-.86,1.82,1.82,0,0,0-.76-.63,2.2,2.2,0,0,0-1.17-.17,2.16,2.16,0,0,0-1.07.36,2.1,2.1,0,0,0-.69.76,3.11,3.11,0,0,0-.36,1.09,5,5,0,0,0,0,1.3,4.64,4.64,0,0,0,.44,1.64,2.29,2.29,0,0,0,.95,1,3,3,0,0,0,2.65-.1,1.87,1.87,0,0,0,.7-.75,2.55,2.55,0,0,0,.26-1.06l1.42.18a3.94,3.94,0,0,1-.31,1.29,3,3,0,0,1-.71,1,3.75,3.75,0,0,1-1,.65A5,5,0,0,1,137.26,53.8Z"/><path class="cls-5" d="M145.45,53a4.2,4.2,0,0,1-2.2-.33,3.73,3.73,0,0,1-1.6-1.4,5.44,5.44,0,0,1-.76-2.4,5,5,0,0,1,.32-2.51,3.68,3.68,0,0,1,1.33-1.62,4.43,4.43,0,0,1,2-.7,4.34,4.34,0,0,1,2.17.32,3.83,3.83,0,0,1,1.62,1.38,5.9,5.9,0,0,1,.48,4.92,3.62,3.62,0,0,1-1.32,1.63A4.52,4.52,0,0,1,145.45,53Zm0-1.25a2.3,2.3,0,0,0,1.32-.52,2.39,2.39,0,0,0,.77-1.18,4.08,4.08,0,0,0,.14-1.71,4.14,4.14,0,0,0-.49-1.71,2.58,2.58,0,0,0-1-1,2.45,2.45,0,0,0-1.47-.26,2.42,2.42,0,0,0-1.31.49,2.32,2.32,0,0,0-.78,1.15,4,4,0,0,0-.15,1.74,3.74,3.74,0,0,0,1,2.36A2.39,2.39,0,0,0,145.4,51.76Z"/><path class="cls-5" d="M150.82,52.27l-.5-5.27L150,43.75l1.34-.13.11,2.72.28,0a6.06,6.06,0,0,1,.42-1.68,2.52,2.52,0,0,1,.81-1.06,2.26,2.26,0,0,1,1.19-.44,2.21,2.21,0,0,1,1.39.27,2.41,2.41,0,0,1,.89,1,3.81,3.81,0,0,1,.39,1.39l.26,0a5.34,5.34,0,0,1,.41-1.62,2.83,2.83,0,0,1,.85-1.06,2.39,2.39,0,0,1,1.25-.45,2.26,2.26,0,0,1,2.1.85,3.56,3.56,0,0,1,.63,1.23,7.91,7.91,0,0,1,.34,1.73l.45,4.67-1.5.14-.43-4.47a6.64,6.64,0,0,0-.34-1.6,2,2,0,0,0-.63-.93,1.33,1.33,0,0,0-.93-.23,1.62,1.62,0,0,0-1.06.53,3.13,3.13,0,0,0-.68,1.24,6.34,6.34,0,0,0-.23,1.75l.39,4.09-1.47.14-.41-4.32a6.65,6.65,0,0,0-.35-1.68,2.15,2.15,0,0,0-.63-1,1.25,1.25,0,0,0-1-.26,1.62,1.62,0,0,0-1.1.56,3.41,3.41,0,0,0-.65,1.29,6.28,6.28,0,0,0-.2,1.73l.38,4Z"/><path class="cls-5" d="M165,53.6l-.67-6.92-.41-4.27,1.35-.13.13,2.2.25,0a4.58,4.58,0,0,1,.43-1.31,2.5,2.5,0,0,1,.84-.93,2.76,2.76,0,0,1,1.32-.44,3.22,3.22,0,0,1,2,.4,3.59,3.59,0,0,1,1.33,1.49,6.22,6.22,0,0,1,.62,2.26,6.29,6.29,0,0,1-.18,2.33,3.59,3.59,0,0,1-1,1.7,3,3,0,0,1-1.82.77,2.69,2.69,0,0,1-1.51-.23,2.85,2.85,0,0,1-1-.89,6,6,0,0,1-.66-1.22l-.28,0c.09.29.18.59.25.91s.14.62.2.93.1.61.13.9l.22,2.31Zm3.7-4.15a1.79,1.79,0,0,0,1.18-.54,2.64,2.64,0,0,0,.64-1.22,4.67,4.67,0,0,0,.11-1.65,4.62,4.62,0,0,0-.43-1.64,2.56,2.56,0,0,0-.87-1,1.86,1.86,0,0,0-1.24-.27,2.18,2.18,0,0,0-1.06.38,2.67,2.67,0,0,0-.73.8,3.47,3.47,0,0,0-.41,1,3.62,3.62,0,0,0-.07,1.08l0,.2a3.1,3.1,0,0,0,.17.72,4.37,4.37,0,0,0,.38.79,3.28,3.28,0,0,0,.58.71,2.47,2.47,0,0,0,.77.49A2,2,0,0,0,168.68,49.45Z"/><path class="cls-5" d="M177.59,49.91a4.2,4.2,0,0,1-2.2-.33,3.73,3.73,0,0,1-1.6-1.4,5.31,5.31,0,0,1-.76-2.39,5,5,0,0,1,.32-2.52,3.68,3.68,0,0,1,1.33-1.62,4.27,4.27,0,0,1,2-.69,4.2,4.2,0,0,1,2.17.31,3.72,3.72,0,0,1,1.62,1.38,5.13,5.13,0,0,1,.79,2.41,5.24,5.24,0,0,1-.3,2.51,3.64,3.64,0,0,1-1.33,1.63A4.33,4.33,0,0,1,177.59,49.91Zm-.05-1.25a2.39,2.39,0,0,0,1.32-.51,2.56,2.56,0,0,0,.77-1.18,4.51,4.51,0,0,0,.14-1.72,4.2,4.2,0,0,0-.49-1.7,2.58,2.58,0,0,0-1-1,2.43,2.43,0,0,0-1.48-.27,2.3,2.3,0,0,0-2.09,1.64,4.19,4.19,0,0,0-.14,1.74A3.74,3.74,0,0,0,175.5,48,2.39,2.39,0,0,0,177.54,48.66Z"/><path class="cls-5" d="M185.72,49.12a2.48,2.48,0,0,1-2.24-.78,5,5,0,0,1-1-2.88l-.46-4.8,1.51-.15.45,4.67a3.94,3.94,0,0,0,.63,2,1.5,1.5,0,0,0,1.42.55,1.79,1.79,0,0,0,.89-.34,2.42,2.42,0,0,0,.65-.78,4.14,4.14,0,0,0,.4-1.14,6.36,6.36,0,0,0,.14-1.41l-.39-4,1.5-.14.48,5,.34,3.56-1.33.13-.13-2.75-.25,0a5.52,5.52,0,0,1-.44,1.74,2.54,2.54,0,0,1-.87,1A2.65,2.65,0,0,1,185.72,49.12Z"/><path class="cls-5" d="M191.78,48.32,191.27,43,191,39.8l1.35-.13.12,2.72.28,0a5.58,5.58,0,0,1,.45-1.71,2.63,2.63,0,0,1,.89-1,2.93,2.93,0,0,1,1.36-.45,2.51,2.51,0,0,1,2.25.81,5.2,5.2,0,0,1,1,2.95l.46,4.7-1.52.15-.44-4.57a4,4,0,0,0-.66-2.1,1.49,1.49,0,0,0-1.4-.56,2,2,0,0,0-1.29.62,3.37,3.37,0,0,0-.74,1.39,5.22,5.22,0,0,0-.18,1.78l.37,3.86Z"/><path class="cls-5" d="M203.81,47.38a3,3,0,0,1-1.92-.4,3.53,3.53,0,0,1-1.33-1.47,6,6,0,0,1-.63-2.27,6.55,6.55,0,0,1,.17-2.34,3.64,3.64,0,0,1,1-1.7,3,3,0,0,1,1.8-.75,2.68,2.68,0,0,1,1.52.23,3,3,0,0,1,1,.89,4.7,4.7,0,0,1,.65,1.26l.29,0c-.08-.31-.16-.64-.24-1s-.15-.68-.22-1-.11-.63-.13-.89l-.25-2.58,1.52-.14.7,7.34.41,4.2-1.35.13-.14-2.32-.27,0a4.62,4.62,0,0,1-.43,1.36,2.59,2.59,0,0,1-.84,1A2.71,2.71,0,0,1,203.81,47.38ZM204,46a2.09,2.09,0,0,0,1-.39,2.61,2.61,0,0,0,.74-.81,3.42,3.42,0,0,0,.41-1,3.38,3.38,0,0,0,.07-1l0-.19a3.2,3.2,0,0,0-.17-.75,3.94,3.94,0,0,0-.37-.78,3,3,0,0,0-.56-.72,2.28,2.28,0,0,0-.78-.49,1.94,1.94,0,0,0-.94-.12,1.91,1.91,0,0,0-1.2.54,2.52,2.52,0,0,0-.65,1.22,5.3,5.3,0,0,0,.32,3.27,2.45,2.45,0,0,0,.87,1A2,2,0,0,0,204,46Z"/><path class="cls-5" d="M213.06,36.17a1.24,1.24,0,0,1-.81-.14.78.78,0,0,1-.33-.62.79.79,0,0,1,.21-.67,1.18,1.18,0,0,1,.75-.28,1.24,1.24,0,0,1,.81.13.81.81,0,0,1,.33.62.8.8,0,0,1-.2.66A1.18,1.18,0,0,1,213.06,36.17Zm.21,10.08-.82-8.52,1.5-.15.82,8.53Z"/><path class="cls-5" d="M216.52,45.94,216,40.65l-.31-3.24,1.35-.13.11,2.72.28,0a5.72,5.72,0,0,1,.46-1.71,2.56,2.56,0,0,1,.89-1,3,3,0,0,1,1.35-.44,2.51,2.51,0,0,1,2.25.8,5.16,5.16,0,0,1,1,3l.45,4.7-1.52.15-.44-4.57a3.93,3.93,0,0,0-.66-2.1,1.51,1.51,0,0,0-1.39-.57,1.94,1.94,0,0,0-1.3.63,3.38,3.38,0,0,0-.74,1.38,5.5,5.5,0,0,0-.17,1.78l.37,3.86Z"/><path class="cls-5" d="M228.14,45a2.24,2.24,0,0,1-1.82-.47,2.84,2.84,0,0,1-.77-1.91l-.47-4.83-1.28.13-.11-1.26.81-.08a1,1,0,0,0,.59-.2.72.72,0,0,0,.17-.52l0-1.3.93-.09.18,1.93,2.46-.24.12,1.27-2.45.24.46,4.78a1.26,1.26,0,0,0,.39.92,1.24,1.24,0,0,0,.91.2,2.61,2.61,0,0,0,.65-.14,1.81,1.81,0,0,0,.63-.4l.15,1.5a4.36,4.36,0,0,1-.86.34A4.52,4.52,0,0,1,228.14,45Z"/><path class="cls-5" d="M234.3,44.44a4.76,4.76,0,0,1-1.8-.13,3.44,3.44,0,0,1-1.38-.76,3.82,3.82,0,0,1-.93-1.29,5.83,5.83,0,0,1-.43-1.76,6.06,6.06,0,0,1,.08-1.87,4.33,4.33,0,0,1,.64-1.54A3.37,3.37,0,0,1,231.64,36a4,4,0,0,1,1.66-.5,4,4,0,0,1,1.56.13,3,3,0,0,1,1.27.75,4,4,0,0,1,.87,1.4,6.66,6.66,0,0,1,.4,2l-6.69.7-.1-1,5.78-.6-.44.74a3.6,3.6,0,0,0-.37-1.7,2.07,2.07,0,0,0-2.16-1.17,2.32,2.32,0,0,0-1.29.52,2.43,2.43,0,0,0-.77,1.23,4.77,4.77,0,0,0-.14,1.82,3.51,3.51,0,0,0,.9,2.25,2.46,2.46,0,0,0,2.08.61,2.84,2.84,0,0,0,.9-.21,1.86,1.86,0,0,0,.62-.41,2,2,0,0,0,.4-.56,2.49,2.49,0,0,0,.21-.67l1.35.18a3.52,3.52,0,0,1-.35,1.11,3.05,3.05,0,0,1-.68.87,3.75,3.75,0,0,1-1,.62A4.78,4.78,0,0,1,234.3,44.44Z"/><path class="cls-5" d="M239.06,43.76l-.45-4.61-.37-3.91,1.35-.13.15,3,.28,0a6.89,6.89,0,0,1,.3-1.72,2.83,2.83,0,0,1,.73-1.19,2.07,2.07,0,0,1,1.26-.52h.38a2.05,2.05,0,0,1,.5.08l.07,1.57a2.28,2.28,0,0,0-.51-.09h-.48a1.65,1.65,0,0,0-1.07.52,3.26,3.26,0,0,0-.68,1.19,9.21,9.21,0,0,0-.36,1.62l.4,4.11Z"/><path class="cls-5" d="M248.31,43.09a4.75,4.75,0,0,1-1.8-.14,3.43,3.43,0,0,1-1.38-.75,3.74,3.74,0,0,1-.92-1.3,5.69,5.69,0,0,1-.44-1.75,6.36,6.36,0,0,1,.09-1.87,4.44,4.44,0,0,1,.63-1.55,3.43,3.43,0,0,1,1.16-1.08,4.14,4.14,0,0,1,1.67-.5,4,4,0,0,1,1.56.13,2.91,2.91,0,0,1,1.26.75,4,4,0,0,1,.88,1.4,7,7,0,0,1,.4,2l-6.7.69-.09-1,5.78-.61-.45.75a3.73,3.73,0,0,0-.36-1.7,2.16,2.16,0,0,0-.9-.94,2.12,2.12,0,0,0-1.26-.23,2.35,2.35,0,0,0-1.3.52,2.52,2.52,0,0,0-.77,1.22,4.85,4.85,0,0,0-.13,1.83,3.54,3.54,0,0,0,.9,2.25,2.45,2.45,0,0,0,2.07.61,2.84,2.84,0,0,0,.9-.21,2.21,2.21,0,0,0,.63-.41,2.14,2.14,0,0,0,.4-.56,3.73,3.73,0,0,0,.21-.67l1.35.18a3.53,3.53,0,0,1-.36,1.11,3,3,0,0,1-.68.87,3.54,3.54,0,0,1-1,.62A5.14,5.14,0,0,1,248.31,43.09Z"/><path class="cls-5" d="M256.39,42.31a6,6,0,0,1-1.6,0,3.22,3.22,0,0,1-1.2-.43,2.49,2.49,0,0,1-.8-.78,2.52,2.52,0,0,1-.36-1.06l1.23-.46a1.44,1.44,0,0,0,.37.93A1.93,1.93,0,0,0,255,41a3.9,3.9,0,0,0,1.4.08,2.94,2.94,0,0,0,1.48-.47,1,1,0,0,0,.44-1,.91.91,0,0,0-.36-.69,2.27,2.27,0,0,0-.86-.33,9.24,9.24,0,0,0-1.25-.17c-.41-.05-.81-.12-1.22-.19a4.72,4.72,0,0,1-1.12-.33,2.29,2.29,0,0,1-.86-.64,2,2,0,0,1-.4-1.08,2.25,2.25,0,0,1,.28-1.37,2.77,2.77,0,0,1,1.09-1,4.78,4.78,0,0,1,1.79-.49,4.39,4.39,0,0,1,1.82.15,2.81,2.81,0,0,1,1.26.79,2.46,2.46,0,0,1,.61,1.3l-1.27.46a1.67,1.67,0,0,0-.38-.9,1.62,1.62,0,0,0-.82-.49,3.15,3.15,0,0,0-1.17-.08,2.52,2.52,0,0,0-1.36.46,1,1,0,0,0-.42,1,.89.89,0,0,0,.37.66,2,2,0,0,0,.87.33c.37.07.77.13,1.2.19s.88.1,1.29.17a4.46,4.46,0,0,1,1.12.33,1.9,1.9,0,0,1,1.22,1.71,2.24,2.24,0,0,1-.31,1.45,2.69,2.69,0,0,1-1.16,1A5.69,5.69,0,0,1,256.39,42.31Z"/><path class="cls-5" d="M263.76,41.55a2.27,2.27,0,0,1-1.83-.47,2.91,2.91,0,0,1-.76-1.91l-.47-4.83-1.28.12-.11-1.25.81-.08a1,1,0,0,0,.59-.21.7.7,0,0,0,.17-.51l0-1.31.93-.08L262,33l2.46-.24.12,1.27-2.46.23.46,4.79a1.32,1.32,0,0,0,.4.92,1.24,1.24,0,0,0,.91.2,2.57,2.57,0,0,0,.64-.15,1.68,1.68,0,0,0,.64-.39l.15,1.5a5,5,0,0,1-.86.33A4.63,4.63,0,0,1,263.76,41.55Z"/><path class="cls-5" d="M267.11,41.26a1.23,1.23,0,0,1-.81-.15,1,1,0,0,1-.34-.72.89.89,0,0,1,.2-.75,1.14,1.14,0,0,1,.76-.31,1.3,1.3,0,0,1,.84.15,1,1,0,0,1,.35.72C268.17,40.84,267.84,41.19,267.11,41.26Z"/><path class="cls-5" d="M269.7,41a1.23,1.23,0,0,1-.81-.15,1,1,0,0,1-.34-.72.93.93,0,0,1,.19-.75,1.19,1.19,0,0,1,.77-.31,1.3,1.3,0,0,1,.84.15,1,1,0,0,1,.35.72C270.76,40.59,270.42,40.94,269.7,41Z"/><path class="cls-5" d="M272.29,40.76a1.26,1.26,0,0,1-.82-.15,1,1,0,0,1-.33-.72.93.93,0,0,1,.19-.75,1.22,1.22,0,0,1,.77-.31,1.33,1.33,0,0,1,.84.15.92.92,0,0,1,.34.72C273.35,40.34,273,40.69,272.29,40.76Z"/></g></g></svg>