<svg xmlns="http://www.w3.org/2000/svg" width="29.88" height="5.3" viewBox="0 0 29.88 5.3"><defs><style>.cls-1{fill:#2f2e5b;}</style></defs><g id="Layer_2" data-name="Layer 2"><g id="Livello_1" data-name="Livello 1"><path class="cls-1" d="M1.49,3.22,0,2H1.87l.75-2,.81,2H5.3L3.76,3.27l.66,2L2.62,4,.82,5.3Z"/><path class="cls-1" d="M7.64,3.22,6.14,2H8l.76-2,.8,2h1.88L9.9,3.27l.67,2L8.77,4,7,5.3Z"/><path class="cls-1" d="M13.79,3.22,12.29,2h1.87l.75-2,.81,2h1.87L16.05,3.27l.66,2L14.91,4,13.11,5.3Z"/><path class="cls-1" d="M19.93,3.22,18.44,2H20.3l.76-2,.8,2h1.88L22.19,3.27l.67,2L21.06,4,19.26,5.3Z"/><path class="cls-1" d="M26.07,3.22,24.58,2h1.87l.75-2L28,2h1.87L28.34,3.27l.66,2L27.2,4,25.4,5.3Z"/></g></g></svg>