<svg xmlns="http://www.w3.org/2000/svg" viewBox="0 0 131.61 27.47"><defs><style>.cls-1{fill:#fff;}</style></defs><g id="Layer_2" data-name="Layer 2"><g id="Layer_1-2" data-name="Layer 1"><path class="cls-1" d="M6.41,11.54a6.62,6.62,0,0,1-2,.3,5.35,5.35,0,0,1-2.23-.45A3.65,3.65,0,0,1,.59,10,4.15,4.15,0,0,1,0,7.75V4.1A4.15,4.15,0,0,1,.59,1.82,3.64,3.64,0,0,1,2.18.45,5.29,5.29,0,0,1,4.39,0,5.94,5.94,0,0,1,6.2.28a5.81,5.81,0,0,1,1.62.79.22.22,0,0,1,.1.18.3.3,0,0,1,0,.14L7.11,2.48a.19.19,0,0,1-.17.12.37.37,0,0,1-.16-.05A3.93,3.93,0,0,0,5.63,2a4.75,4.75,0,0,0-1.24-.17,2.5,2.5,0,0,0-1.8.61,2.18,2.18,0,0,0-.65,1.68V7.71A2.21,2.21,0,0,0,2.59,9.4,2.54,2.54,0,0,0,4.41,10a4.85,4.85,0,0,0,1.4-.21,4.62,4.62,0,0,0,1.26-.62.3.3,0,0,1,.14-.06.24.24,0,0,1,.18.12l.75,1.09a.67.67,0,0,1,.06.16.23.23,0,0,1-.09.18A5.16,5.16,0,0,1,6.41,11.54Z"/><path class="cls-1" d="M9.77,11.65a.21.21,0,0,1-.24-.24V4a.27.27,0,0,1,.18-.28,5.41,5.41,0,0,1,1.34-.45,7.16,7.16,0,0,1,1.46-.15,11.31,11.31,0,0,1,1.64.12c.14,0,.2.1.2.24V4.68a.18.18,0,0,1-.07.16.27.27,0,0,1-.18,0,9.88,9.88,0,0,0-1.3-.06A3.65,3.65,0,0,0,11.39,5v6.38a.21.21,0,0,1-.24.24Z"/><path class="cls-1" d="M18.5,3.16A3.52,3.52,0,0,1,21,4a3.13,3.13,0,0,1,.89,2.44v4.68a.28.28,0,0,1-.18.27,10.93,10.93,0,0,1-1.53.34,10.8,10.8,0,0,1-1.69.14,4.65,4.65,0,0,1-2.56-.64,2.23,2.23,0,0,1-1-2,2.17,2.17,0,0,1,1-1.91,4.51,4.51,0,0,1,2.56-.65,11.83,11.83,0,0,1,1.6.13V6.42a1.77,1.77,0,0,0-.36-1.24,1.69,1.69,0,0,0-1.24-.37,4.58,4.58,0,0,0-1.12.13,3.29,3.29,0,0,0-.93.38.37.37,0,0,1-.15,0A.21.21,0,0,1,16,5.25l-.64-1q-.11-.18,0-.27A5.41,5.41,0,0,1,18.5,3.16ZM17.21,10a2.55,2.55,0,0,0,1.23.26A6.55,6.55,0,0,0,20,10V8.22a10.22,10.22,0,0,0-1.56-.13c-1.12,0-1.68.35-1.68,1.06A.88.88,0,0,0,17.21,10Z"/><path class="cls-1" d="M26.93,1.62A1.19,1.19,0,0,0,26,2a1.62,1.62,0,0,0-.34,1.08v.37h1.85a.21.21,0,0,1,.24.24V4.85a.21.21,0,0,1-.24.24H25.63v6.32a.21.21,0,0,1-.24.24H24a.21.21,0,0,1-.24-.24V3.09A3.07,3.07,0,0,1,24.58.8,2.83,2.83,0,0,1,26.64,0a6.29,6.29,0,0,1,1,.06.23.23,0,0,1,.22.26V1.43c0,.16-.06.24-.19.24A3.68,3.68,0,0,0,26.93,1.62Z"/><path class="cls-1" d="M30.82,8.75a1.46,1.46,0,0,0,.33,1,1.18,1.18,0,0,0,.94.37l.66,0c.17,0,.25.07.25.22v1.22c0,.16-.07.25-.22.26l-.85,0a3.1,3.1,0,0,1-2.15-.73A2.84,2.84,0,0,1,29,8.88V1.55c0-.15.08-.22.24-.22h1.21a.21.21,0,0,1,.16.06.19.19,0,0,1,.08.15l.15,1.92h1.71c.16,0,.24.08.24.22V4.85a.21.21,0,0,1-.24.23h-1.7Z"/><path class="cls-1" d="M41,8.06c0,.15-.08.22-.24.22H35.9v.45a1.36,1.36,0,0,0,.46,1.1,1.91,1.91,0,0,0,1.24.38,3.51,3.51,0,0,0,1.22-.2,4.92,4.92,0,0,0,1-.54A.3.3,0,0,1,40,9.42a.19.19,0,0,1,.18.1l.66.88a.2.2,0,0,1,.06.14.19.19,0,0,1-.11.19,5.06,5.06,0,0,1-3.25,1.11,4.5,4.5,0,0,1-1.74-.34A2.89,2.89,0,0,1,34,8.72V6.44a3.19,3.19,0,0,1,.5-1.86A2.94,2.94,0,0,1,35.82,3.5a4.34,4.34,0,0,1,1.73-.34,4.23,4.23,0,0,1,1.72.34,2.86,2.86,0,0,1,1.26,1.08A3.34,3.34,0,0,1,41,6.44ZM39.2,6.42a1.54,1.54,0,0,0-.46-1.23,1.75,1.75,0,0,0-1.19-.4,1.77,1.77,0,0,0-1.2.39,1.57,1.57,0,0,0-.45,1.24v.42h3.3Z"/><path class="cls-1" d="M47.61.43c0-.16.08-.24.25-.24h1.37a.21.21,0,0,1,.24.24V11a.26.26,0,0,1-.17.27,8.65,8.65,0,0,1-1.6.43,9.7,9.7,0,0,1-1.64.15A3.89,3.89,0,0,1,43.39,11a3.36,3.36,0,0,1-1-2.64V6.55a3.47,3.47,0,0,1,.45-1.79,3.09,3.09,0,0,1,1.24-1.19,3.79,3.79,0,0,1,1.8-.41,4.22,4.22,0,0,1,1.73.35Zm-3.34,7.9a1.85,1.85,0,0,0,.47,1.43,1.9,1.9,0,0,0,1.37.45,4.22,4.22,0,0,0,1.5-.23V5.22a2.73,2.73,0,0,0-1.53-.41c-1.21,0-1.81.58-1.81,1.74Z"/><path class="cls-1" d="M58.11,1.62a1.19,1.19,0,0,0-1,.39,1.57,1.57,0,0,0-.34,1.08v.37h1.84a.21.21,0,0,1,.24.24V4.85a.21.21,0,0,1-.24.24H56.81v6.32a.21.21,0,0,1-.24.24H55.19a.21.21,0,0,1-.24-.24V3.09A3.08,3.08,0,0,1,55.76.8,2.83,2.83,0,0,1,57.82,0a6.38,6.38,0,0,1,1,.06A.23.23,0,0,1,59,.32V1.43c0,.16-.06.24-.19.24A3.68,3.68,0,0,0,58.11,1.62Z"/><path class="cls-1" d="M67.08,8.6a3,3,0,0,1-1,2.37,4.5,4.5,0,0,1-5.32,0,3,3,0,0,1-1-2.37V6.46a3.1,3.1,0,0,1,1-2.41,4.42,4.42,0,0,1,5.32,0,3.09,3.09,0,0,1,1,2.41Zm-5.43,0a1.44,1.44,0,0,0,.46,1.17,1.91,1.91,0,0,0,1.32.4,2,2,0,0,0,1.32-.4,1.47,1.47,0,0,0,.46-1.17V6.46a1.54,1.54,0,0,0-.47-1.21,1.85,1.85,0,0,0-1.31-.43,1.87,1.87,0,0,0-1.32.42,1.55,1.55,0,0,0-.46,1.22Z"/><path class="cls-1" d="M69.05,11.65a.21.21,0,0,1-.24-.24V4A.27.27,0,0,1,69,3.76a5.48,5.48,0,0,1,1.33-.45,7.33,7.33,0,0,1,1.47-.15,11.18,11.18,0,0,1,1.63.12.21.21,0,0,1,.21.24V4.68a.18.18,0,0,1-.07.16.27.27,0,0,1-.18,0,9.88,9.88,0,0,0-1.3-.06A3.65,3.65,0,0,0,70.67,5v6.38a.21.21,0,0,1-.24.24Z"/><path class="cls-1" d="M83.05,3.57c0-.15.08-.22.24-.22h1.38c.16,0,.24.07.24.22v7.55a4,4,0,0,1-.87,2.8,3.53,3.53,0,0,1-2.7.93,5.81,5.81,0,0,1-1.76-.24,4,4,0,0,1-1.38-.77.17.17,0,0,1-.1-.16.47.47,0,0,1,.05-.16l.69-1a.21.21,0,0,1,.18-.12.19.19,0,0,1,.12,0,3.79,3.79,0,0,0,2.18.74,1.8,1.8,0,0,0,1.35-.47,2.18,2.18,0,0,0,.4-1.61,5.9,5.9,0,0,1-1.72.29A3.89,3.89,0,0,1,79.71,11a3,3,0,0,1-1.78-2.9V3.57c0-.15.08-.22.24-.22h1.39c.15,0,.23.07.23.22V8.06a1.45,1.45,0,0,0,.53,1.27,2.29,2.29,0,0,0,1.37.39,3,3,0,0,0,.73-.08,2.58,2.58,0,0,0,.63-.24Z"/><path class="cls-1" d="M94,8.6A3,3,0,0,1,93,11a4.5,4.5,0,0,1-5.32,0,3,3,0,0,1-1-2.37V6.46a3.07,3.07,0,0,1,1-2.41,4.42,4.42,0,0,1,5.32,0,3.09,3.09,0,0,1,1,2.41Zm-5.43,0A1.46,1.46,0,0,0,89,9.77a2.39,2.39,0,0,0,2.65,0A1.46,1.46,0,0,0,92.1,8.6V6.46a1.54,1.54,0,0,0-.46-1.21,1.85,1.85,0,0,0-1.31-.43A1.91,1.91,0,0,0,89,5.24a1.58,1.58,0,0,0-.45,1.22Z"/><path class="cls-1" d="M102.39,3.35c.16,0,.24.07.24.22v7.34a.29.29,0,0,1-.18.29,7.63,7.63,0,0,1-3.14.64A3.86,3.86,0,0,1,96.62,11a3.5,3.5,0,0,1-1-2.72V3.57c0-.15.08-.22.24-.22h1.39a.19.19,0,0,1,.22.22V8.2A2.07,2.07,0,0,0,98,9.72a1.85,1.85,0,0,0,1.35.45,4.45,4.45,0,0,0,1.46-.19V3.57c0-.15.08-.22.23-.22Z"/><path class="cls-1" d="M106.38,11.4a1.18,1.18,0,0,1-.85.33,1.13,1.13,0,0,1-.85-.33,1.17,1.17,0,0,1-.32-.84,1.2,1.2,0,0,1,.32-.86,1.13,1.13,0,0,1,.85-.33,1.13,1.13,0,0,1,1.18,1.19A1.14,1.14,0,0,1,106.38,11.4Z"/><path class="cls-1" d="M2.28,27a.21.21,0,0,1-.23.24H.58A.21.21,0,0,1,.35,27v-11a.21.21,0,0,1,.23-.24H2.05a.21.21,0,0,1,.23.24Z"/><path class="cls-1" d="M4.82,27.28A.21.21,0,0,1,4.58,27V19.7a.3.3,0,0,1,.18-.29A8,8,0,0,1,8,18.79a4,4,0,0,1,2.73.87,3.47,3.47,0,0,1,1,2.72V27c0,.16-.07.24-.22.24H10A.21.21,0,0,1,9.8,27V22.41a2,2,0,0,0-.46-1.52A2,2,0,0,0,8,20.45a5.84,5.84,0,0,0-1.51.18V27a.21.21,0,0,1-.24.24Z"/><path class="cls-1" d="M18.91,26.79a4.16,4.16,0,0,1-2.46.68,5.41,5.41,0,0,1-3.25-1,.19.19,0,0,1-.11-.16.28.28,0,0,1,.05-.16l.61-1c.05-.09.1-.13.16-.13l.16.06a4.08,4.08,0,0,0,1.17.61,3.86,3.86,0,0,0,1.25.21,2.14,2.14,0,0,0,1.07-.24.76.76,0,0,0,.42-.69.64.64,0,0,0-.4-.62A4,4,0,0,0,16.49,24a6.87,6.87,0,0,1-2.29-.83,2,2,0,0,1-.95-1.83,2.1,2.1,0,0,1,1-1.89,4.37,4.37,0,0,1,2.41-.63,5.76,5.76,0,0,1,2.78.74c.09,0,.13.11.13.17a.23.23,0,0,1,0,.15l-.6,1a.22.22,0,0,1-.2.12l-.13,0a4.23,4.23,0,0,0-2-.52,2,2,0,0,0-1.07.24.72.72,0,0,0-.39.64.66.66,0,0,0,.41.64,6.59,6.59,0,0,0,1.37.38,9.64,9.64,0,0,1,1.47.39,2.61,2.61,0,0,1,1.07.75,2,2,0,0,1,.44,1.36A2.28,2.28,0,0,1,18.91,26.79Z"/><path class="cls-1" d="M23.17,24.38a1.46,1.46,0,0,0,.33,1,1.16,1.16,0,0,0,.93.37l.66,0c.17,0,.26.08.26.22v1.22a.23.23,0,0,1-.23.26l-.85,0a3.05,3.05,0,0,1-2.14-.73,2.81,2.81,0,0,1-.82-2.23V17.19a.21.21,0,0,1,.24-.23h1.22a.25.25,0,0,1,.16.06.22.22,0,0,1,.08.15l.14,1.92h1.71a.21.21,0,0,1,.24.23v1.17c0,.14-.08.22-.24.22H23.17Z"/><path class="cls-1" d="M29.77,18.79a3.49,3.49,0,0,1,2.44.81A3.14,3.14,0,0,1,33.1,22v4.68a.27.27,0,0,1-.18.27,10.93,10.93,0,0,1-1.53.34,10.8,10.8,0,0,1-1.69.14,4.67,4.67,0,0,1-2.56-.64,2.25,2.25,0,0,1-1-2,2.17,2.17,0,0,1,.95-1.91,4.51,4.51,0,0,1,2.56-.65,11.71,11.71,0,0,1,1.6.13v-.3a1.78,1.78,0,0,0-.36-1.25,1.67,1.67,0,0,0-1.24-.37,4.44,4.44,0,0,0-1.11.13,3.49,3.49,0,0,0-.94.38.33.33,0,0,1-.15.05.2.2,0,0,1-.17-.11l-.64-1q-.12-.18,0-.27A5.39,5.39,0,0,1,29.77,18.79Zm-1.3,6.8a2.55,2.55,0,0,0,1.23.26,6.48,6.48,0,0,0,1.54-.19V23.85a10.1,10.1,0,0,0-1.55-.13c-1.12,0-1.69.35-1.69,1.06A.88.88,0,0,0,28.47,25.59Z"/><path class="cls-1" d="M37.65,27.47a2.45,2.45,0,0,1-2-.82,3.42,3.42,0,0,1-.7-2.29v-8.3a.21.21,0,0,1,.24-.24h1.38a.21.21,0,0,1,.24.24V24.3a1.94,1.94,0,0,0,.26,1.13.93.93,0,0,0,.8.34l.61,0a.21.21,0,0,1,.24.24v1.19c0,.16-.06.24-.18.25A8.31,8.31,0,0,1,37.65,27.47Z"/><path class="cls-1" d="M42.5,27.47a2.43,2.43,0,0,1-2-.82,3.37,3.37,0,0,1-.7-2.29v-8.3a.21.21,0,0,1,.24-.24h1.38a.21.21,0,0,1,.24.24V24.3a2,2,0,0,0,.25,1.13.93.93,0,0,0,.8.34l.61,0a.21.21,0,0,1,.24.24v1.19c0,.16-.06.24-.17.25A8.65,8.65,0,0,1,42.5,27.47Z"/><path class="cls-1" d="M51.46,23.69c0,.15-.08.22-.24.22H46.35v.45a1.33,1.33,0,0,0,.46,1.1,1.87,1.87,0,0,0,1.24.38,3.45,3.45,0,0,0,1.21-.2,4.55,4.55,0,0,0,1.05-.54.3.3,0,0,1,.14-.05.2.2,0,0,1,.18.1l.65.88a.17.17,0,0,1,.07.14.23.23,0,0,1-.11.2A5.14,5.14,0,0,1,48,27.47a4.24,4.24,0,0,1-1.73-.34,2.87,2.87,0,0,1-1.78-2.78V22.07a3.26,3.26,0,0,1,.5-1.86,2.91,2.91,0,0,1,1.3-1.08A4.31,4.31,0,0,1,48,18.79a4.18,4.18,0,0,1,1.71.34A2.84,2.84,0,0,1,51,20.21a3.34,3.34,0,0,1,.48,1.86Zm-1.81-1.63a1.56,1.56,0,0,0-.47-1.24,1.71,1.71,0,0,0-1.18-.4,1.77,1.77,0,0,0-1.2.39,1.59,1.59,0,0,0-.45,1.25v.41h3.3Z"/><path class="cls-1" d="M58.06,16.06a.21.21,0,0,1,.24-.24h1.38a.21.21,0,0,1,.24.24V26.62a.25.25,0,0,1-.18.27,8,8,0,0,1-1.59.43,9.7,9.7,0,0,1-1.64.15,3.87,3.87,0,0,1-2.67-.88,3.33,3.33,0,0,1-1-2.64V22.18a3.47,3.47,0,0,1,.45-1.79,3,3,0,0,1,1.24-1.19,3.91,3.91,0,0,1,1.8-.41,4.38,4.38,0,0,1,1.73.35ZM54.71,24a1.93,1.93,0,0,0,.47,1.44,2,2,0,0,0,1.37.44,4.28,4.28,0,0,0,1.51-.23V20.85a2.78,2.78,0,0,0-1.54-.41c-1.21,0-1.81.58-1.81,1.74Z"/><path class="cls-1" d="M67.11,27.28a.23.23,0,0,1-.25-.21L64.6,19.24a.3.3,0,0,1,0-.1c0-.11.06-.16.19-.16h1.44a.24.24,0,0,1,.26.19l.61,2.63c.07.33.16.7.26,1.1s.19.81.28,1.21l.28,1.13h0c.13-.57.36-1.5.69-2.78l.09-.39.77-2.79a.24.24,0,0,1,.26-.19h1.49a.25.25,0,0,1,.26.19l.78,2.79c.32,1.27.58,2.33.77,3.17h0c.09-.42.31-1.35.65-2.77l.16-.67.6-2.63a.24.24,0,0,1,.27-.19H76.2a.18.18,0,0,1,.17.07.24.24,0,0,1,0,.19l-2.26,7.83a.24.24,0,0,1-.26.21h-1.6a.25.25,0,0,1-.26-.21l-.89-3.25q-.42-1.58-.6-2.49h-.06c-.15.71-.35,1.54-.61,2.49L69,27.07a.24.24,0,0,1-.26.21Z"/><path class="cls-1" d="M79.34,17.55a1,1,0,0,1-.74.31,1,1,0,0,1-1.06-1.06,1,1,0,0,1,.3-.74,1.06,1.06,0,0,1,.76-.3,1.05,1.05,0,0,1,.74,1.79Zm-1.45,9.73a.21.21,0,0,1-.24-.24V19.2c0-.15.08-.22.24-.22h1.4a.19.19,0,0,1,.22.22V27c0,.16-.07.24-.22.24Z"/><path class="cls-1" d="M83.34,24.38a1.46,1.46,0,0,0,.33,1,1.18,1.18,0,0,0,.94.37l.65,0c.17,0,.26.08.26.22v1.22a.23.23,0,0,1-.23.26l-.84,0a3.08,3.08,0,0,1-2.15-.73,2.81,2.81,0,0,1-.82-2.23V17.19a.21.21,0,0,1,.24-.23h1.22a.23.23,0,0,1,.16.06.22.22,0,0,1,.08.15l.14,1.92H85a.21.21,0,0,1,.24.23v1.17c0,.14-.08.22-.24.22h-1.7Z"/><path class="cls-1" d="M88.74,19.06a5.28,5.28,0,0,1,1.73-.27A3.22,3.22,0,0,1,94,22.41V27c0,.16-.07.24-.22.24h-1.4A.21.21,0,0,1,92.1,27V22.46a2.22,2.22,0,0,0-.44-1.56,1.88,1.88,0,0,0-1.38-.45,3.49,3.49,0,0,0-1.54.29V27a.21.21,0,0,1-.24.24H87.12a.21.21,0,0,1-.24-.24v-11a.21.21,0,0,1,.24-.24H88.5a.21.21,0,0,1,.24.24Z"/><path class="cls-1" d="M102.68,27.47a3.73,3.73,0,0,1-2.63-.88,3,3,0,0,1-1-2.36V22a3,3,0,0,1,1-2.35,3.74,3.74,0,0,1,2.61-.87,4.77,4.77,0,0,1,2.63.77.2.2,0,0,1,.11.19.3.3,0,0,1-.05.14l-.62,1a.24.24,0,0,1-.19.12.25.25,0,0,1-.15,0,3.28,3.28,0,0,0-1.68-.47,2,2,0,0,0-1.31.4A1.48,1.48,0,0,0,101,22v2.24a1.49,1.49,0,0,0,.45,1.15,1.9,1.9,0,0,0,1.29.4,3.38,3.38,0,0,0,1.86-.57.47.47,0,0,1,.16-.05.2.2,0,0,1,.18.11l.67,1a.47.47,0,0,1,0,.16.19.19,0,0,1-.1.16A4.77,4.77,0,0,1,102.68,27.47Z"/><path class="cls-1" d="M110,18.79a3.49,3.49,0,0,1,2.44.81,3.14,3.14,0,0,1,.89,2.44v4.68a.27.27,0,0,1-.18.27,10.46,10.46,0,0,1-1.52.34,11,11,0,0,1-1.7.14,4.67,4.67,0,0,1-2.56-.64,2.25,2.25,0,0,1-1-2,2.17,2.17,0,0,1,1-1.91,4.51,4.51,0,0,1,2.56-.65,11.71,11.71,0,0,1,1.6.13v-.3a1.78,1.78,0,0,0-.36-1.25,1.67,1.67,0,0,0-1.24-.37,4.5,4.5,0,0,0-1.11.13,3.49,3.49,0,0,0-.94.38.3.3,0,0,1-.14.05.2.2,0,0,1-.18-.11l-.64-1q-.12-.18,0-.27A5.39,5.39,0,0,1,110,18.79Zm-1.3,6.8a2.55,2.55,0,0,0,1.23.26,6.42,6.42,0,0,0,1.54-.19V23.85a10,10,0,0,0-1.55-.13c-1.12,0-1.68.35-1.68,1.06A.87.87,0,0,0,108.7,25.59Z"/><path class="cls-1" d="M115.48,27.28a.21.21,0,0,1-.24-.24V19.67a.26.26,0,0,1,.17-.27,5.3,5.3,0,0,1,1.34-.46,7.33,7.33,0,0,1,1.47-.15,10,10,0,0,1,1.63.13.21.21,0,0,1,.21.24v1.15a.18.18,0,0,1-.07.16.29.29,0,0,1-.19,0,9.7,9.7,0,0,0-1.29-.06,3.65,3.65,0,0,0-1.41.22V27a.21.21,0,0,1-.24.24Z"/><path class="cls-1" d="M127.86,23.69c0,.15-.08.22-.24.22h-4.87v.45a1.33,1.33,0,0,0,.46,1.1,1.89,1.89,0,0,0,1.24.38,3.55,3.55,0,0,0,1.22-.2,4.49,4.49,0,0,0,1-.54.3.3,0,0,1,.14-.05.19.19,0,0,1,.18.1l.66.88a.2.2,0,0,1,.06.14.23.23,0,0,1-.11.2,5.13,5.13,0,0,1-3.25,1.1,4.29,4.29,0,0,1-1.74-.34,2.89,2.89,0,0,1-1.77-2.78V22.07a3.26,3.26,0,0,1,.49-1.86,3,3,0,0,1,1.3-1.08,4.34,4.34,0,0,1,1.73-.34,4.26,4.26,0,0,1,1.72.34,2.86,2.86,0,0,1,1.26,1.08,3.34,3.34,0,0,1,.48,1.86Zm-1.81-1.63a1.55,1.55,0,0,0-.46-1.24,1.75,1.75,0,0,0-1.19-.4,1.77,1.77,0,0,0-1.2.39,1.59,1.59,0,0,0-.45,1.25v.41h3.3Z"/><path class="cls-1" d="M131.27,27a1.15,1.15,0,0,1-.85.33,1.11,1.11,0,0,1-.84-.33,1.13,1.13,0,0,1-.32-.84,1.16,1.16,0,0,1,.32-.86,1.11,1.11,0,0,1,.84-.33,1.15,1.15,0,0,1,1.19,1.19A1.11,1.11,0,0,1,131.27,27Z"/></g></g></svg>