<svg xmlns="http://www.w3.org/2000/svg" viewBox="0 0 67.94 103.6"><defs><style>.cls-1{fill:#02bd67;}.cls-2{fill:#57e885;}</style></defs><g id="Layer_2" data-name="Layer 2"><g id="Layer_1-2" data-name="Layer 1"><path class="cls-1" d="M21.29,30.1S-4.45,15.88,7.86,3C20.33-10,39.63,22.89,34.29,32.47,31.68,37.17,21.29,30.1,21.29,30.1Z"/><path class="cls-1" d="M52,33s11.37-12.38,2.36-17.12-13.61,16.55-9,20.77C47.66,38.76,52,33,52,33Z"/><path class="cls-1" d="M21.06,39.75S1.19,32.52,0,45.27c-1.17,12.92,25.78,7.82,28.45.4C29.8,42,21.06,39.75,21.06,39.75Z"/><path class="cls-1" d="M40.87,63.84s-15.06-7.3-17,2.65,19.68,8.26,22.39,2.62C47.58,66.36,40.87,63.84,40.87,63.84Z"/><path class="cls-2" d="M67.94,103.26A245.12,245.12,0,0,0,56.57,72.47,254,254,0,0,0,41.68,44.12,191.44,191.44,0,0,0,24.4,19.68,1,1,0,0,0,22.91,21,190.38,190.38,0,0,1,40,45.2a249.87,249.87,0,0,1,26,58.4Z"/><path class="cls-2" d="M42.06,47.38a.88.88,0,0,1-.36,0c-11.5-2.23-25.66-.8-25.8-.79a1,1,0,0,1-.2-2c.59-.06,14.59-1.47,26.38.82a1,1,0,0,1,0,2Z"/><path class="cls-2" d="M43.73,50.21h-.21a1,1,0,0,1-1-1A62.36,62.36,0,0,1,48.32,25.4a1,1,0,1,1,1.77.91,61.49,61.49,0,0,0-5.54,23A1,1,0,0,1,43.73,50.21Z"/><path class="cls-2" d="M55.82,73.82a1,1,0,0,1-.68-.12C48.88,70,39.29,68.8,39.2,68.79a1,1,0,1,1,.24-2c.41.05,10.08,1.27,16.71,5.16a1,1,0,0,1,.35,1.36A1,1,0,0,1,55.82,73.82Z"/></g></g></svg>