<svg xmlns="http://www.w3.org/2000/svg" viewBox="0 0 185.06 16.51"><g id="Layer_2" data-name="Layer 2"><g id="Layer_1-2" data-name="Layer 1"><path d="M0,16l1.36-1.12V1.67L0,.53V.33H6.52v.2L4.36,1.67V15.18H8.25L11.37,13h.19l-.39,3.17H0Z"/><path d="M15.73,15.4a7.61,7.61,0,0,1-2.86-3,8.71,8.71,0,0,1-1-4.16,8.68,8.68,0,0,1,1-4.16,7.68,7.68,0,0,1,2.86-3A8.08,8.08,0,0,1,20,0a8.05,8.05,0,0,1,4.21,1.09,7.59,7.59,0,0,1,2.86,3,8.73,8.73,0,0,1,1,4.18,8.59,8.59,0,0,1-1,4.16,7.52,7.52,0,0,1-2.85,3A8,8,0,0,1,20,16.51,8,8,0,0,1,15.73,15.4Zm8.91-2.76a7,7,0,0,0,.58-2.87,8.9,8.9,0,0,0-.92-3.92,8.6,8.6,0,0,0-2.53-3.14A5.77,5.77,0,0,0,18.23,1.5,6.44,6.44,0,0,0,17,1.62a5.4,5.4,0,0,0-1.9,2.19,6.55,6.55,0,0,0-.62,2.87,8.74,8.74,0,0,0,.95,3.93,8.68,8.68,0,0,0,2.61,3.16A6,6,0,0,0,21.72,15a6.1,6.1,0,0,0,1.13-.11A5.66,5.66,0,0,0,24.64,12.64Z"/><path d="M29.47,16l1.36-1.12V1.67L29.47.53V.33h5A8.81,8.81,0,0,1,37.72.9,5.19,5.19,0,0,1,40,2.54,3.94,3.94,0,0,1,40.74,5a4.13,4.13,0,0,1-.52,2.07,4.66,4.66,0,0,1-1.4,1.53A5.29,5.29,0,0,1,37,9.4l2.45,1.53,2,4L42.55,16v.2h-3.8l-3.4-6.5c-.47,0-1,.06-1.52.06v5.12L36,16v.2H29.47ZM34.1,8.74a3.37,3.37,0,0,0,1.72-.45A3.19,3.19,0,0,0,37.06,7a4.18,4.18,0,0,0,.46-2,4.05,4.05,0,0,0-.46-2,3.16,3.16,0,0,0-1.24-1.27,3.46,3.46,0,0,0-1.72-.43h-.27V8.74Z"/><path d="M43.67,16,45,14.86V1.67L43.67.53V.33h11L53.47,3.47h-.19L51.62,1.36H48V8l5.07-.71-.65,1.74H48v6.12H51.6L54.71,13h.2l-.39,3.17H43.67Z"/><path d="M59.38,16l1.36-1.12V1.36a7.22,7.22,0,0,0-2.27.71,7.4,7.4,0,0,0-1.92,1.36h-.21l1-3.1H68.42l-1,3.1H67.2a5.22,5.22,0,0,0-1.5-1.3,5.85,5.85,0,0,0-2-.77V14.89L65.1,16v.2H59.38Z"/><path d="M72.89,15.4a7.59,7.59,0,0,1-2.85-3,8.71,8.71,0,0,1-1-4.16,8.68,8.68,0,0,1,1-4.16,7.66,7.66,0,0,1,2.85-3A8.14,8.14,0,0,1,77.13,0a8.05,8.05,0,0,1,4.21,1.09,7.5,7.5,0,0,1,2.85,3,8.62,8.62,0,0,1,1,4.18,8.71,8.71,0,0,1-1,4.16,7.59,7.59,0,0,1-2.85,3,8.61,8.61,0,0,1-8.46,0Zm8.92-2.76a7,7,0,0,0,.58-2.87,9,9,0,0,0-.92-3.92,8.6,8.6,0,0,0-2.53-3.14A5.79,5.79,0,0,0,75.4,1.5a6.63,6.63,0,0,0-1.22.12,5.37,5.37,0,0,0-1.89,2.19,6.56,6.56,0,0,0-.63,2.87,8.76,8.76,0,0,0,1,3.93,8.59,8.59,0,0,0,2.61,3.16A6,6,0,0,0,78.89,15,5.91,5.91,0,0,0,80,14.89,5.68,5.68,0,0,0,81.81,12.64Z"/><path d="M86.84,9.36l2.61.21h1.79l2.61-.21V10.8l-2.61-.2H89.45l-2.61.2Z"/><path d="M95.68,16,97,14.89V1.67L95.7.53V.33h6.46v.2L100,1.67V7.21h6.25V1.67L104.15.53V.33h6.46v.2l-1.33,1.14V14.89L110.61,16v.2h-6.45V16l2.12-1.12V8.24H100v6.65L102.17,16v.2H95.68Z"/><path d="M111.94,16l1.24-1.12L117.81,3.6l-.91-1.12L119.42,0h.2l6.18,14.87L127,16v.2h-6.81V16l2.26-1.13-1.15-2.77h-5.89l-1.15,2.77L116.56,16v.2h-4.62Zm9-4.85L118.38,5l-2.53,6.17Z"/><path d="M127.85,16l1.37-1.12V1.67L127.86.53V.33h5.73v.2l-1.37,1.14V14.89L133.58,16v.2h-5.73Z"/><path d="M135.32,16l1.36-1.12V1.67L135.32.53V.33h5a8.75,8.75,0,0,1,3.27.57,5.07,5.07,0,0,1,2.23,1.64A3.94,3.94,0,0,1,146.59,5a4.13,4.13,0,0,1-.52,2.07,4.74,4.74,0,0,1-1.39,1.53,5.37,5.37,0,0,1-1.87.82l2.45,1.53,2,4L148.4,16v.2h-3.8l-3.39-6.5q-.72.06-1.53.06v5.12L141.85,16v.2h-6.53ZM140,8.74a3.35,3.35,0,0,0,1.72-.45A3.19,3.19,0,0,0,142.91,7a4.06,4.06,0,0,0,.46-2,4,4,0,0,0-.46-2,3.16,3.16,0,0,0-1.24-1.27A3.43,3.43,0,0,0,140,1.36h-.27V8.74Z"/><path d="M149.73,14.25l2-2,1.95,2-1.95,2Z"/><path d="M158.77,15.4a7.66,7.66,0,0,1-2.89-3,8.64,8.64,0,0,1-1-4.17,8.57,8.57,0,0,1,1-4.16,7.69,7.69,0,0,1,2.89-3A8.35,8.35,0,0,1,163.06,0a14.06,14.06,0,0,1,2.82.27,9.11,9.11,0,0,1,2.39.83l-1,3.15h-.22a8.18,8.18,0,0,0-2.93-1.95,9.28,9.28,0,0,0-3.56-.72l-.6,0A6.74,6.74,0,0,0,158.27,4a7.34,7.34,0,0,0-.55,2.79,9.15,9.15,0,0,0,1,4.11,9.51,9.51,0,0,0,2.57,3.28,5.16,5.16,0,0,0,3.22,1.26l4-3.12.19.07-1,3.23a10.76,10.76,0,0,1-4.65.91A8.26,8.26,0,0,1,158.77,15.4Z"/><path d="M170.14,16l1.34-1.12V1.67L170.16.53V.33h6.45v.2l-2.12,1.14V7.21h6.24V1.67L178.6.53V.33h6.46v.2l-1.33,1.14V14.89L185.06,16v.2h-6.45V16l2.12-1.12V8.24h-6.24v6.65L176.62,16v.2h-6.48Z"/></g></g></svg>