<svg xmlns="http://www.w3.org/2000/svg" viewBox="0 0 129.12 161"><defs><style>.cls-1{opacity:0.49;}.cls-2{fill:#fff;}.cls-3,.cls-5,.cls-6{fill:none;}.cls-3,.cls-5{stroke:lime;}.cls-3,.cls-4,.cls-5,.cls-6{stroke-miterlimit:10;}.cls-3{stroke-width:7.16px;}.cls-4{fill:#2f2c63;stroke:#19102c;stroke-width:2.25px;}.cls-5,.cls-6{stroke-width:7.86px;}.cls-6{stroke:red;}.cls-7{fill:#18104f;}</style></defs><g id="Layer_2" data-name="Layer 2"><g id="Layer_1-2" data-name="Layer 1"><g class="cls-1"><rect class="cls-2" width="129.12" height="161" rx="14.94"/></g><rect class="cls-3" x="55.4" y="-20.4" width="19.28" height="95.53" rx="9.64" transform="translate(37.67 92.41) rotate(-90)"/><path class="cls-4" d="M93.53,17.73h19.28a0,0,0,0,1,0,0v9.64A9.64,9.64,0,0,1,103.17,37h0a9.64,9.64,0,0,1-9.64-9.64V17.73A0,0,0,0,1,93.53,17.73Z" transform="translate(75.8 130.54) rotate(-90)"/><rect class="cls-4" x="75.1" y="17.73" width="19.28" height="19.28" transform="translate(57.38 112.11) rotate(-90)"/><rect class="cls-4" x="55.83" y="17.73" width="19.28" height="19.28" transform="translate(38.1 92.83) rotate(-90)"/><rect class="cls-4" x="36.55" y="17.73" width="19.28" height="19.28" transform="translate(18.82 73.56) rotate(-90)"/><path class="cls-4" d="M26.91,17.73h0a9.64,9.64,0,0,1,9.64,9.64V37a0,0,0,0,1,0,0H17.27a0,0,0,0,1,0,0V27.37A9.64,9.64,0,0,1,26.91,17.73Z" transform="translate(-0.46 54.28) rotate(-90)"/><rect class="cls-5" x="55.4" y="26.68" width="19.28" height="95.53" rx="9.64" transform="translate(-9.4 139.48) rotate(-90)"/><path class="cls-4" d="M93.53,64.8h19.28a0,0,0,0,1,0,0v9.64a9.64,9.64,0,0,1-9.64,9.64h0a9.64,9.64,0,0,1-9.64-9.64V64.8a0,0,0,0,1,0,0Z" transform="translate(28.73 177.61) rotate(-90)"/><rect class="cls-4" x="75.1" y="64.8" width="19.28" height="19.28" transform="translate(10.3 159.18) rotate(-90)"/><rect class="cls-4" x="55.83" y="64.8" width="19.28" height="19.28" transform="translate(-8.98 139.91) rotate(-90)"/><rect class="cls-4" x="36.55" y="64.8" width="19.28" height="19.28" transform="translate(-28.25 120.63) rotate(-90)"/><path class="cls-4" d="M26.91,64.8h0a9.64,9.64,0,0,1,9.64,9.64v9.64a0,0,0,0,1,0,0H17.27a0,0,0,0,1,0,0V74.44A9.64,9.64,0,0,1,26.91,64.8Z" transform="translate(-47.53 101.35) rotate(-90)"/><rect class="cls-6" x="55.4" y="75.13" width="19.28" height="95.53" rx="9.64" transform="translate(-57.86 187.94) rotate(-90)"/><path class="cls-4" d="M93.53,113.26h19.28a0,0,0,0,1,0,0v9.64a9.64,9.64,0,0,1-9.64,9.64h0a9.64,9.64,0,0,1-9.64-9.64v-9.64A0,0,0,0,1,93.53,113.26Z" transform="translate(-19.73 226.07) rotate(-90)"/><rect class="cls-4" x="75.1" y="113.26" width="19.28" height="19.28" transform="translate(-38.16 207.64) rotate(-90)"/><rect class="cls-4" x="55.83" y="113.26" width="19.28" height="19.28" transform="translate(-57.43 188.37) rotate(-90)"/><rect class="cls-4" x="36.55" y="113.26" width="19.28" height="19.28" transform="translate(-76.71 169.09) rotate(-90)"/><path class="cls-4" d="M26.91,113.26h0a9.64,9.64,0,0,1,9.64,9.64v9.64a0,0,0,0,1,0,0H17.27a0,0,0,0,1,0,0V122.9A9.64,9.64,0,0,1,26.91,113.26Z" transform="translate(-95.99 149.81) rotate(-90)"/><path class="cls-7" d="M56.31,43.38v2.1h-3v9.05H51.1V45.48h-3v-2.1Z"/><path class="cls-7" d="M57.53,43.38h2.2V54.53h-2.2Z"/><path class="cls-7" d="M72.71,43.38V54.53H70.52V47.3l-3.14,5.17h-.26L64,47.33v7.2H61.8V43.38h2.26l3.2,5.27,3.18-5.27Z"/><path class="cls-7" d="M77,52.43h4.7v2.1h-6.9V43.38h6.82v2.1H77v2.38h4.22v2.07H77Z"/><path class="cls-7" d="M49.67,90.05V101.2H47.49V94l-3.14,5.17h-.26L41,94v7.2h-2.2V90.05H41l3.2,5.27,3.18-5.27Z"/><path class="cls-7" d="M61.12,99.74a5.88,5.88,0,1,1,1.68-4.11A5.62,5.62,0,0,1,61.12,99.74Zm-6.67-1.49a3.72,3.72,0,0,0,5.12,0,3.83,3.83,0,0,0,0-5.25,3.7,3.7,0,0,0-5.12,0,3.83,3.83,0,0,0,0,5.25Z"/><path class="cls-7" d="M70.8,90.05H73V101.2H71.32l-4.77-6.81v6.81h-2.2V90.05H66l4.78,6.79Z"/><path class="cls-7" d="M77.26,99.1H82v2.1h-6.9V90.05h6.82v2.11H77.26v2.37h4.22V96.6H77.26Z"/><path class="cls-7" d="M92.32,90.05l-3.82,6.8v4.35H86.32V96.85l-3.81-6.8H85l2.41,4.65,2.43-4.65Z"/><path class="cls-7" d="M42.92,150.29a5,5,0,0,1-2.79-.74,4,4,0,0,1-1.59-2l1.88-1.1A2.5,2.5,0,0,0,43,148.14a2.24,2.24,0,0,0,1.36-.34,1.05,1.05,0,0,0-.1-1.76,8.79,8.79,0,0,0-1.88-.71,9.49,9.49,0,0,1-1.26-.44,5.56,5.56,0,0,1-1-.6,2.43,2.43,0,0,1-.79-.95A3.07,3.07,0,0,1,39,142a3,3,0,0,1,1.08-2.42,3.93,3.93,0,0,1,2.58-.89,4.28,4.28,0,0,1,2.38.66,4.36,4.36,0,0,1,1.6,1.84l-1.84,1.06a2.24,2.24,0,0,0-2.14-1.43,1.66,1.66,0,0,0-1.07.31,1,1,0,0,0-.39.8,1,1,0,0,0,.44.85,5.84,5.84,0,0,0,1.68.71l.77.25.72.27a5.13,5.13,0,0,1,.7.34,6.58,6.58,0,0,1,.56.43,2.26,2.26,0,0,1,.49.56,3.19,3.19,0,0,1,.28.69,3.14,3.14,0,0,1,.12.89,3,3,0,0,1-1.12,2.45A4.53,4.53,0,0,1,42.92,150.29Z"/><path class="cls-7" d="M55.37,138.92V141h-3v9h-2.2v-9h-3v-2.1Z"/><path class="cls-7" d="M62.71,150.06l-2.25-3.87H58.79v3.87h-2.2V138.92h4.46a3.69,3.69,0,0,1,3.71,3.69,3.34,3.34,0,0,1-.59,1.92,3.67,3.67,0,0,1-1.56,1.33l2.47,4.2ZM58.79,141v3.3h2.26a1.38,1.38,0,0,0,1.07-.49,1.73,1.73,0,0,0,0-2.33,1.41,1.41,0,0,0-1.07-.48Z"/><path class="cls-7" d="M68.57,148h4.69v2.1H66.37V138.92h6.81V141H68.57v2.37h4.22v2.07H68.57Z"/><path class="cls-7" d="M78.61,150.29a5,5,0,0,1-2.78-.74,4,4,0,0,1-1.6-2l1.88-1.1a2.51,2.51,0,0,0,2.57,1.71A2.23,2.23,0,0,0,80,147.8a1,1,0,0,0,.43-.84,1,1,0,0,0-.53-.92,8.58,8.58,0,0,0-1.88-.71,9.49,9.49,0,0,1-1.26-.44,5.56,5.56,0,0,1-1-.6,2.41,2.41,0,0,1-.78-.95A2.93,2.93,0,0,1,74.7,142a3,3,0,0,1,1.07-2.42,4,4,0,0,1,2.59-.89,4.32,4.32,0,0,1,2.38.66,4.43,4.43,0,0,1,1.6,1.84l-1.85,1.06a2.23,2.23,0,0,0-2.13-1.43,1.67,1.67,0,0,0-1.08.31,1,1,0,0,0-.39.8,1,1,0,0,0,.44.85,5.84,5.84,0,0,0,1.68.71l.77.25.72.27a5.13,5.13,0,0,1,.7.34,6.58,6.58,0,0,1,.56.43,2.26,2.26,0,0,1,.49.56,2.76,2.76,0,0,1,.28.69,2.82,2.82,0,0,1,.12.89,3,3,0,0,1-1.12,2.45A4.53,4.53,0,0,1,78.61,150.29Z"/><path class="cls-7" d="M87.56,150.29a5,5,0,0,1-2.79-.74,4,4,0,0,1-1.59-2l1.88-1.1a2.5,2.5,0,0,0,2.56,1.71A2.24,2.24,0,0,0,89,147.8a1.05,1.05,0,0,0-.1-1.76,8.79,8.79,0,0,0-1.88-.71,9.49,9.49,0,0,1-1.26-.44,5.56,5.56,0,0,1-1-.6,2.43,2.43,0,0,1-.79-.95,3.07,3.07,0,0,1-.27-1.33,3,3,0,0,1,1.08-2.42,3.93,3.93,0,0,1,2.58-.89,4.28,4.28,0,0,1,2.38.66,4.36,4.36,0,0,1,1.6,1.84l-1.84,1.06a2.24,2.24,0,0,0-2.14-1.43,1.66,1.66,0,0,0-1.07.31,1,1,0,0,0,0,1.65,5.84,5.84,0,0,0,1.68.71l.77.25.71.27a4.8,4.8,0,0,1,.71.34,6.58,6.58,0,0,1,.56.43,2.49,2.49,0,0,1,.49.56,3.19,3.19,0,0,1,.28.69,3.14,3.14,0,0,1,.12.89,3,3,0,0,1-1.12,2.45A4.53,4.53,0,0,1,87.56,150.29Z"/></g></g></svg>