<svg xmlns="http://www.w3.org/2000/svg" viewBox="0 0 41.96 16.44"><defs><style>.cls-1{isolation:isolate;}.cls-2{opacity:0.6;mix-blend-mode:multiply;}.cls-26,.cls-3{fill:#fff;}.cls-3{opacity:0;}.cls-4{fill:#f5f5f5;opacity:0.05;}.cls-5{fill:#ebebeb;opacity:0.1;}.cls-6{fill:#e2e2e2;opacity:0.14;}.cls-7{fill:#d8d8d8;opacity:0.19;}.cls-8{fill:#cecece;opacity:0.24;}.cls-9{fill:#c4c4c4;opacity:0.29;}.cls-10{fill:#bababa;opacity:0.33;}.cls-11{fill:#b1b1b1;opacity:0.38;}.cls-12{fill:#a7a7a7;opacity:0.43;}.cls-13{fill:#9d9d9d;opacity:0.48;}.cls-14{fill:#939393;opacity:0.52;}.cls-15{fill:#898989;opacity:0.57;}.cls-16{fill:#7f7f7f;opacity:0.62;}.cls-17{fill:#767676;opacity:0.67;}.cls-18{fill:#6c6c6c;opacity:0.71;}.cls-19{fill:#626262;opacity:0.76;}.cls-20{fill:#585858;opacity:0.81;}.cls-21{fill:#4e4e4e;opacity:0.86;}.cls-22{fill:#454545;opacity:0.9;}.cls-23{fill:#3b3b3b;opacity:0.95;}.cls-24{fill:#313131;}.cls-25{fill:#476157;}.cls-27{fill:#f5f4f0;}</style></defs><g class="cls-1"><g id="Layer_2" data-name="Layer 2"><g id="Layer_1-2" data-name="Layer 1"><g class="cls-2"><polygon class="cls-3" points="0 0 6.98 8.22 0 16.44 41.96 16.44 41.96 0 0 0"/><polygon class="cls-4" points="0.13 0.03 7.08 8.22 0.13 16.41 41.96 16.41 41.96 0.03 0.13 0.03"/><polygon class="cls-5" points="0.25 0.06 7.18 8.22 0.25 16.38 41.96 16.38 41.96 0.06 0.25 0.06"/><polygon class="cls-6" points="0.37 0.09 7.27 8.22 0.37 16.35 41.96 16.35 41.96 0.09 0.37 0.09"/><polygon class="cls-7" points="0.5 0.11 7.37 8.22 0.5 16.32 41.96 16.32 41.96 0.11 0.5 0.11"/><polygon class="cls-8" points="0.62 0.14 7.47 8.22 0.62 16.3 41.96 16.3 41.96 0.14 0.62 0.14"/><polygon class="cls-9" points="0.75 0.17 7.57 8.22 0.75 16.27 41.96 16.27 41.96 0.17 0.75 0.17"/><polygon class="cls-10" points="0.87 0.2 7.67 8.22 0.87 16.24 41.96 16.24 41.96 0.2 0.87 0.2"/><polygon class="cls-11" points="1 0.23 7.76 8.22 1 16.21 41.96 16.21 41.96 0.23 1 0.23"/><polygon class="cls-12" points="1.12 0.25 7.86 8.22 1.12 16.18 41.96 16.18 41.96 0.25 1.12 0.25"/><polygon class="cls-13" points="1.25 0.28 7.96 8.22 1.25 16.16 41.96 16.16 41.96 0.28 1.25 0.28"/><polygon class="cls-14" points="1.37 0.31 8.06 8.22 1.37 16.13 41.96 16.13 41.96 0.31 1.37 0.31"/><polygon class="cls-15" points="1.5 0.34 8.15 8.22 1.5 16.1 41.96 16.1 41.96 0.34 1.5 0.34"/><polygon class="cls-16" points="1.62 0.37 8.25 8.22 1.62 16.07 41.96 16.07 41.96 0.37 1.62 0.37"/><polygon class="cls-17" points="1.74 0.4 8.35 8.22 1.74 16.04 41.96 16.04 41.96 0.4 1.74 0.4"/><polygon class="cls-18" points="1.87 0.42 8.45 8.22 1.87 16.01 41.96 16.01 41.96 0.42 1.87 0.42"/><polygon class="cls-19" points="1.99 0.45 8.54 8.22 1.99 15.99 41.96 15.99 41.96 0.45 1.99 0.45"/><polygon class="cls-20" points="2.12 0.48 8.64 8.22 2.12 15.96 41.96 15.96 41.96 0.48 2.12 0.48"/><polygon class="cls-21" points="2.24 0.51 8.74 8.22 2.24 15.93 41.96 15.93 41.96 0.51 2.24 0.51"/><polygon class="cls-22" points="2.37 0.54 8.84 8.22 2.37 15.9 41.96 15.9 41.96 0.54 2.37 0.54"/><polygon class="cls-23" points="2.49 0.56 8.94 8.22 2.49 15.87 41.96 15.87 41.96 0.56 2.49 0.56"/><polygon class="cls-24" points="2.62 0.59 9.03 8.22 2.62 15.85 41.96 15.85 41.96 0.59 2.62 0.59"/></g><polygon class="cls-25" points="2.62 0.59 9.03 8.22 2.62 15.85 41.96 15.85 41.96 0.59 2.62 0.59"/><rect class="cls-26" x="41.18" y="1.46" width="0.78" height="0.21"/><path class="cls-26" d="M8.72,1.46v.22H7.2V1.46Zm3,0v.22H10.24V1.46Zm3,0v.22H13.28V1.46Zm3,0v.22H16.32V1.46Zm3.05,0v.22H19.37V1.46Zm3,0v.22H22.41V1.46Zm3,0v.22H25.45V1.46Zm3,0v.22H28.49V1.46Z"/><path class="cls-26" d="M17.8,1.36v.22H16.28V1.36Zm3,0v.22H19.32V1.36Zm3,0v.22H22.36V1.36Zm3,0v.22H25.4V1.36Zm3,0v.22H28.44V1.36Zm3,0v.22H31.49V1.36Zm3,0v.22H34.52V1.36Zm3,0v.22H37.56V1.36Z"/><path class="cls-26" d="M17.8,14.82V15H16.28v-.21Zm3,0V15H19.32v-.21Zm3,0V15H22.36v-.21Zm3,0V15H25.4v-.21Zm3,0V15H28.44v-.21Zm3,0V15H31.49v-.21Zm3,0V15H34.52v-.21Zm3,0V15H37.56v-.21Z"/><polygon class="cls-26" points="4.62 1.46 5.17 2.08 5.44 1.97 5.17 1.68 5.67 1.68 5.67 1.46 4.62 1.46"/><path class="cls-26" d="M6.17,2.79l.73.83-.27.11L5.9,2.9ZM7.63,4.44l.73.82-.27.11-.73-.82ZM9.09,6.08l.73.82L9.55,7l-.73-.82Z"/><polygon class="cls-26" points="10.28 7.84 10.64 8.24 10.28 8.64 10.55 8.75 11 8.24 10.55 7.73 10.28 7.84"/><path class="cls-26" d="M6.63,12.75l.27.11-.73.82-.27-.11ZM8.09,11.1l.27.11L7.63,12l-.27-.12ZM9.55,9.46l.27.11-.73.82-.27-.11Z"/><polygon class="cls-26" points="4.62 15.01 5.67 15.01 5.67 14.8 5.17 14.8 5.44 14.5 5.17 14.39 4.62 15.01"/><path class="cls-26" d="M8.72,14.8V15H7.2V14.8Zm3,0V15H10.24V14.8Zm3,0V15H13.28V14.8Zm3,0V15H16.32V14.8Zm3.05,0V15H19.36V14.8Zm3,0V15H22.4V14.8Zm3,0V15H25.45V14.8Zm3,0V15H28.49V14.8Z"/><rect class="cls-26" x="41.18" y="14.8" width="0.78" height="0.21"/><path class="cls-27" d="M19.54,4.46h2.53V5H20.3V5.8H22v.57H20.3V7.64h-.76Z"/><path class="cls-27" d="M23.42,6.37V7.64h-.77V4.46h1.6c.79,0,1.22.38,1.22.88a.78.78,0,0,1-.53.75c.18.06.45.22.45.79V7a2.24,2.24,0,0,0,.05.61H24.7a1.82,1.82,0,0,1-.08-.71v0c0-.35-.1-.51-.68-.51Zm0-.55h.66c.43,0,.59-.14.59-.41S24.48,5,24.1,5h-.68Z"/><path class="cls-27" d="M28.67,6.27H26.93v.81h1.91l-.09.56H26.17V4.46h2.57V5H26.93v.68h1.74Z"/><path class="cls-27" d="M31.91,6.27H30.17v.81h1.91L32,7.64H29.41V4.46H32V5H30.17v.68h1.74Z"/><path class="cls-27" d="M14,11c.08.32.35.46.77.46s.59-.15.59-.38-.17-.37-.79-.49c-1-.21-1.23-.52-1.23-1s.47-.93,1.33-.93,1.35.45,1.4.92h-.79c0-.2-.16-.41-.63-.41-.32,0-.51.11-.51.34s.15.31.74.43c1.05.22,1.29.56,1.29,1s-.51,1-1.47,1-1.4-.4-1.49-1Z"/><path class="cls-27" d="M16.78,8.73h.78V10H19V8.73h.79V11.9H19V10.53H17.56V11.9h-.78Z"/><path class="cls-27" d="M21.47,8.73V11.9h-.79V8.73Z"/><path class="cls-27" d="M22.34,8.73h1.5c.77,0,1.29.38,1.29,1s-.59,1-1.31,1h-.7V11.9h-.78Zm.78,1.44h.6c.36,0,.62-.12.62-.45s-.27-.45-.6-.45h-.62Z"/><path class="cls-27" d="M25.72,8.73h1.51c.77,0,1.29.38,1.29,1s-.6,1-1.31,1h-.7V11.9h-.79Zm.79,1.44h.6c.36,0,.62-.12.62-.45s-.27-.45-.6-.45h-.62Z"/><path class="cls-27" d="M29.9,8.73V11.9h-.79V8.73Z"/><path class="cls-27" d="M30.77,11.9V8.73h1c.45.71,1.29,2,1.46,2.34h0c0-.33,0-.88,0-1.4V8.73h.71V11.9H33c-.39-.62-1.32-2.1-1.5-2.46h0c0,.27,0,.93,0,1.5v1Z"/><path class="cls-27" d="M37.9,11.9h-.57a1.7,1.7,0,0,1-.06-.31,1.33,1.33,0,0,1-1.06.36,1.52,1.52,0,0,1-1.64-1.6,1.61,1.61,0,0,1,1.77-1.67c.94,0,1.49.46,1.58,1h-.79c-.07-.21-.26-.46-.8-.46-.74,0-.95.54-.95,1.1s.24,1.09,1,1.09.79-.41.79-.69v0h-.79v-.57H37.9Z"/></g></g></g></svg>