<svg xmlns="http://www.w3.org/2000/svg" viewBox="0 0 260.3 56.48"><defs><style>.cls-1{fill:#262626;}</style></defs><g id="Layer_2" data-name="Layer 2"><g id="Layer_1-2" data-name="Layer 1"><path class="cls-1" d="M0,21.7V.89H4.22L14,13.7V.89h4.52V21.7h-3.9L4.52,8.47V21.7Zm30.82.35a8.28,8.28,0,0,1-8.59-8.23v-.06a8.36,8.36,0,0,1,8.65-8.29,8.28,8.28,0,0,1,8.59,8.23v.06A8.35,8.35,0,0,1,30.82,22.05Zm.06-3.89A4.06,4.06,0,0,0,35,13.82v-.06a4.23,4.23,0,0,0-4.19-4.4,4.07,4.07,0,0,0-4.13,4.34v.06A4.24,4.24,0,0,0,30.88,18.16Zm26,3.83a8.5,8.5,0,0,1-6.81-3.12l2.88-3.21a5.13,5.13,0,0,0,3.81,2.08c1.75,0,2.79-1,2.79-3.44V.89h4.7V14.5a7.47,7.47,0,0,1-2,5.56A7.43,7.43,0,0,1,56.86,22Zm16.86,0c-3.45,0-5.41-2.22-5.41-5.91V5.77h4.52v8.88c0,2.14,1,3.24,2.74,3.24s2.82-1.1,2.82-3.24V5.77h4.52V21.7H78.39V19.44A5.67,5.67,0,0,1,73.72,22Zm20.36,4.52a15,15,0,0,1-7-1.66l1.55-3.39A10.36,10.36,0,0,0,94,22.92c3.1,0,4.55-1.49,4.55-4.34V17.8a6.14,6.14,0,0,1-5.2,2.59c-3.71,0-7.07-2.68-7.07-7.43V12.9a7,7,0,0,1,7.07-7.43,6.44,6.44,0,0,1,5.14,2.38V5.77H103V18.1c0,2.82-.68,4.93-2,6.27C99.43,25.89,97.17,26.51,94.08,26.51Zm.54-9.87A3.66,3.66,0,0,0,98.51,13V12.9a3.88,3.88,0,0,0-7.76,0V13A3.61,3.61,0,0,0,94.62,16.64Zm19.52,9.87a15,15,0,0,1-7-1.66l1.54-3.39A10.43,10.43,0,0,0,114,22.92c3.09,0,4.55-1.49,4.55-4.34V17.8a6.14,6.14,0,0,1-5.2,2.59c-3.72,0-7.08-2.68-7.08-7.43V12.9a7,7,0,0,1,7.08-7.43,6.45,6.45,0,0,1,5.14,2.38V5.77H123V18.1c0,2.82-.69,4.93-2,6.27C119.49,25.89,117.23,26.51,114.14,26.51Zm.54-9.87A3.66,3.66,0,0,0,118.57,13V12.9a3.88,3.88,0,0,0-7.76,0V13A3.61,3.61,0,0,0,114.68,16.64Zm12.59,5.06V0h4.52V21.7ZM136.12,4V0h4.76V4Zm.12,17.69V5.77h4.52V21.7Zm8.76,0V5.77h4.52V8a5.68,5.68,0,0,1,4.67-2.56c3.44,0,5.41,2.23,5.41,5.91V21.7h-4.52V12.81c0-2.14-1-3.24-2.74-3.24s-2.82,1.1-2.82,3.24V21.7Zm25.65,4.81a15,15,0,0,1-7-1.66l1.54-3.39a10.43,10.43,0,0,0,5.38,1.46c3.1,0,4.55-1.49,4.55-4.34V17.8a6.14,6.14,0,0,1-5.2,2.59c-3.71,0-7.07-2.68-7.07-7.43V12.9a7,7,0,0,1,7.07-7.43A6.44,6.44,0,0,1,175,7.85V5.77h4.52V18.1c0,2.82-.68,4.93-2,6.27C176,25.89,173.74,26.51,170.65,26.51Zm.54-9.87A3.66,3.66,0,0,0,175.08,13V12.9a3.88,3.88,0,0,0-7.76,0V13A3.61,3.61,0,0,0,171.19,16.64Zm16.2,4.84,8.92-21h4.22l8.91,21h-4.78l-1.9-4.67H194l-1.9,4.67Zm8.2-8.71h5.53L198.36,6Zm23.35,9.07a8.16,8.16,0,0,1-8.29-8.24v-.06A8.18,8.18,0,0,1,219,5.25a7.84,7.84,0,0,1,6.36,2.68l-2.76,3A4.66,4.66,0,0,0,219,9.14a4.06,4.06,0,0,0-3.86,4.34v.06c0,2.47,1.58,4.4,4,4.4a5,5,0,0,0,3.66-1.69l2.64,2.67A8,8,0,0,1,218.94,21.84Zm14.84-.09c-2.73,0-4.63-1.1-4.63-4.79V9.41h-1.9V5.55h1.9V1.48h4.52V5.55h3.74V9.41h-3.74v6.81c0,1,.47,1.54,1.45,1.54a4.4,4.4,0,0,0,2.23-.56v3.63A6.7,6.7,0,0,1,233.78,21.75Zm12.55,0a11.2,11.2,0,0,1-6.84-2.41l1.93-3a8.87,8.87,0,0,0,5,1.9c1.31,0,1.9-.48,1.9-1.19v-.06c0-1-1.55-1.28-3.3-1.84-2.23-.63-4.76-1.7-4.76-4.79v-.06c0-3.24,2.62-5,5.83-5a11.07,11.07,0,0,1,5.94,1.84l-1.72,3.12A9.41,9.41,0,0,0,246,8.79c-1.1,0-1.66.47-1.66,1.1V10c0,.83,1.51,1.36,3.24,1.9,2.23.71,4.81,1.81,4.81,4.72v.06C252.42,20.17,249.78,21.78,246.33,21.78Zm9.15-.3V16.72h4.82v4.76ZM15.3,52.5V31.69h4.22L29.27,44.5V31.69h4.52V52.5H29.9L19.82,39.27V52.5Zm30.83.36a8.28,8.28,0,0,1-8.59-8.24v-.06a8.36,8.36,0,0,1,8.65-8.29,8.28,8.28,0,0,1,8.59,8.23v.06A8.37,8.37,0,0,1,46.13,52.86Zm.06-3.9a4.07,4.07,0,0,0,4.13-4.34v-.06a4.24,4.24,0,0,0-4.19-4.4A4.07,4.07,0,0,0,42,44.5v.06A4.24,4.24,0,0,0,46.19,49ZM67.43,52.5V31.69h9.66a7.38,7.38,0,0,1,5.44,1.85A4.82,4.82,0,0,1,84,37.07v.06a4.8,4.8,0,0,1-2.74,4.49c2.41.92,3.9,2.35,3.9,5.11v.06c0,3.81-3.09,5.71-7.79,5.71Zm12-14.59v-.06c0-1.4-1.07-2.14-3-2.14H71.89V40.1h4.22C78.13,40.1,79.41,39.45,79.41,37.91Zm1.16,8.32v-.06c0-1.4-1-2.26-3.39-2.26H71.89v4.58h5.44C79.35,48.49,80.57,47.77,80.57,46.23Zm8.05,6.27V30.8h4.51V52.5Zm8.85-17.69v-4h4.75v4Zm.11,17.69V36.57h4.52V52.5Zm8.77,0V36.57h4.51v2.26a5.68,5.68,0,0,1,4.67-2.56c3.45,0,5.41,2.23,5.41,5.92V52.5h-4.52V43.61c0-2.14-1-3.24-2.73-3.24s-2.83,1.1-2.83,3.24V52.5Zm25.05.3c-3.71,0-7.25-2.92-7.25-8.24V44.5c0-5.32,3.48-8.23,7.25-8.23a6.12,6.12,0,0,1,5,2.38V30.8h4.51V52.5h-4.51V50.21A5.75,5.75,0,0,1,131.4,52.8ZM132.56,49c2.11,0,3.87-1.75,3.87-4.4V44.5c0-2.64-1.76-4.4-3.87-4.4s-3.89,1.73-3.89,4.4v.06C128.67,47.21,130.45,49,132.56,49ZM157.8,52A13,13,0,0,1,149,48.7l2.71-3.24A9.61,9.61,0,0,0,157.89,48c1.9,0,3-.74,3-2V46c0-1.16-.71-1.78-4.19-2.64-4.22-1-6.89-2.26-6.89-6.36V36.9c0-3.78,3-6.27,7.28-6.27a12.07,12.07,0,0,1,7.73,2.64l-2.38,3.45a9.75,9.75,0,0,0-5.41-2c-1.78,0-2.68.77-2.68,1.81v.06c0,1.4.9,1.78,4.49,2.73,4.22,1.13,6.6,2.62,6.6,6.25v.06C165.44,49.71,162.29,52,157.8,52Zm11.14,4.45V35.8h4.51v2.29a5.75,5.75,0,0,1,5-2.59c3.71,0,7.25,2.91,7.25,8.23v.06c0,5.32-3.48,8.24-7.25,8.24a6.12,6.12,0,0,1-5-2.38v6.83Zm8.32-8.29c2.11,0,3.89-1.72,3.89-4.4v-.06c0-2.64-1.78-4.4-3.89-4.4s-3.86,1.76-3.86,4.4v.06C173.4,46.44,175.15,48.19,177.26,48.19Zm19.55,3.9a8.29,8.29,0,0,1-8.59-8.24v-.06a8.63,8.63,0,0,1,17.24-.06v.06A8.37,8.37,0,0,1,196.81,52.09Zm.06-3.9A4.06,4.06,0,0,0,201,43.85v-.06a4.23,4.23,0,0,0-4.19-4.4,4.07,4.07,0,0,0-4.13,4.34v.06A4.23,4.23,0,0,0,196.87,48.19ZM214.11,52c-2.73,0-4.64-1.1-4.64-4.79V39.66h-1.9V35.8h1.9V31.73H214V35.8h3.75v3.86H214v6.81c0,1,.48,1.54,1.46,1.54a4.53,4.53,0,0,0,2.23-.56v3.62A6.61,6.61,0,0,1,214.11,52Zm12.55,0a11.2,11.2,0,0,1-6.84-2.41l1.93-3a8.84,8.84,0,0,0,5,1.9c1.31,0,1.91-.48,1.91-1.19V47.3c0-1-1.55-1.28-3.3-1.84-2.23-.63-4.76-1.7-4.76-4.79v-.06c0-3.24,2.62-5,5.83-5a11.07,11.07,0,0,1,5.94,1.84l-1.72,3.12A9.45,9.45,0,0,0,226.36,39c-1.1,0-1.67.47-1.67,1.1v.06c0,.83,1.52,1.36,3.24,1.9,2.23.71,4.82,1.81,4.82,4.72v.06C232.75,50.42,230.1,52,226.66,52Zm9.15-.3V47h4.81v4.76Z"/></g></g></svg>