<svg xmlns="http://www.w3.org/2000/svg" viewBox="0 0 37.25 37.25"><defs><style>.cls-1{fill:#fff;}.cls-2{fill:#2f80ed;}.cls-3{fill:#262626;}</style></defs><g id="Layer_2" data-name="Layer 2"><g id="Layer_1-2" data-name="Layer 1"><circle class="cls-1" cx="18.62" cy="18.62" r="15.87"/><path class="cls-2" d="M18.62,5.5a13.13,13.13,0,1,1,0,26.25h0a13.13,13.13,0,0,1,0-26.25h0m0-5.5A18.63,18.63,0,1,0,37.25,18.62,18.64,18.64,0,0,0,18.62,0Z"/><g id="Arrow_Arrow_Up_Right_MD" data-name="Arrow / Arrow_Up_Right_MD"><g id="Vector"><path class="cls-3" d="M14.1,23l8.25-8.25m0,0h-6.6m6.6,0v6.6"/><path class="cls-3" d="M14.1,23.77a.82.82,0,0,1-.58-.24.83.83,0,0,1,0-1.17l6.84-6.84H15.75a.83.83,0,1,1,0-1.65h6.66l.23.05a1,1,0,0,1,.29.19.8.8,0,0,1,.19.3.59.59,0,0,1,.05.23h0V21.3a.83.83,0,0,1-1.65,0V16.69l-6.84,6.84A.82.82,0,0,1,14.1,23.77Z"/></g></g></g></g></svg>