<svg xmlns="http://www.w3.org/2000/svg" viewBox="0 0 263.48 33"><defs><style>.cls-1{fill:#fff;}.cls-2{fill:#f7f5f6;}</style></defs><g id="Layer_2" data-name="Layer 2"><g id="Layer_1-2" data-name="Layer 1"><path class="cls-1" d="M72.19.62h1.08l0,10.09H72.1l0-7.53L68.86,8.66,65.64,3.22l0,7.52H64.45l0-10.09h1.07l3.36,5.69Z"/><path class="cls-1" d="M75,6.19a2.68,2.68,0,0,1,.78-2.06,2.78,2.78,0,0,1,2-.76,2.55,2.55,0,0,1,2.85,2.8V7.56H76.15v.08c0,1.34.44,2,1.59,2h2.72v1.06H77.75c-2,0-2.73-1.11-2.74-3.41Zm4.48.33V6.13a1.51,1.51,0,0,0-1.7-1.69,1.56,1.56,0,0,0-1.64,1.71v.39Z"/><path class="cls-1" d="M82.35,1.87h1.14v1.6h2.22v1H83.5V8.33c0,1,.28,1.38,1.13,1.38h1.09v1.06h-1.1c-1.51,0-2.27-.82-2.27-2.45V4.52h-1.1V3.48h1.09Z"/><path class="cls-1" d="M91,1,97,1V2.11l-4.75,0V4.48h1.95c1.57,0,3.09.78,3.09,2.52V8c0,2-1.66,2.67-3.27,2.68h-3V9.54h3c1.27,0,2.08-.46,2.07-1.55V7c0-.92-.73-1.4-1.88-1.39H91.05Z"/><path class="cls-1" d="M98.34,6.2h5.17V7.33H98.34Z"/><path class="cls-1" d="M109.73,3.3V4.36h-2.69c-.92,0-1.38.34-1.39,1s.48.85,1.41,1c.13,0,.47.06.57.06,1.5.16,2.34.88,2.34,2.08,0,1.54-1.07,2.21-2.75,2.21h-2.49V9.61h2.5c1.14,0,1.61-.33,1.61-1.15,0-.62-.38-.92-1.3-1L107,7.39c-1.62-.19-2.43-.85-2.43-2,0-1.52,1.26-2.07,2.53-2.07Z"/><path class="cls-1" d="M111.73,1.78h1.14v1.6h2.22v1h-2.22v3.8c0,1,.28,1.39,1.13,1.38h1.1v1.07H114c-1.51,0-2.26-.81-2.27-2.44V4.43h-1.1v-1h1.1Z"/><path class="cls-1" d="M115.85,6.06A2.68,2.68,0,0,1,116.64,4a2.76,2.76,0,0,1,2-.76A2.55,2.55,0,0,1,121.48,6V7.43H117v.07c0,1.34.44,2,1.59,2h2.71v1.07h-2.72c-2,0-2.72-1.12-2.73-3.41Zm4.49.33V6a1.51,1.51,0,0,0-1.71-1.69A1.56,1.56,0,0,0,117,6V6.4Z"/><path class="cls-1" d="M126.59,3.21V4.28h-1A1.56,1.56,0,0,0,123.83,6v4.53H122.7l0-7.26h.88l.06.92a1.94,1.94,0,0,1,1.94-1Z"/><path class="cls-1" d="M131.52,3.2V4.26h-1A1.56,1.56,0,0,0,128.76,6v4.53h-1.14l0-7.25h.88l.06.93a1.93,1.93,0,0,1,1.94-1Z"/><path class="cls-1" d="M132.09,6a2.68,2.68,0,0,1,.79-2.07,2.77,2.77,0,0,1,2-.75A2.55,2.55,0,0,1,137.71,6V7.37l-4.49,0v.07c0,1.34.44,2,1.6,2h2.71v1.07h-2.71c-2,0-2.73-1.12-2.74-3.41Zm4.49.33V6a1.51,1.51,0,0,0-1.7-1.7A1.56,1.56,0,0,0,133.23,6v.39Z"/><path class="cls-1" d="M142.16,3.18a2.16,2.16,0,0,1,1.66.7,2.44,2.44,0,0,1,.7,1.78v4.82h-1.14V5.67a1.3,1.3,0,0,0-1.22-1.41h-.88a1.28,1.28,0,0,0-1.22,1.27l0,5h-1.14l0-7.25h.87l0,.72a1.64,1.64,0,0,1,1.45-.78Z"/><path class="cls-1" d="M150.34.37h1.14V3.94a1.54,1.54,0,0,1,1.4-.78h.67a2.42,2.42,0,0,1,2.38,2.49v2a2.91,2.91,0,0,1-.67,2,2.12,2.12,0,0,1-1.71.78h-1a1.52,1.52,0,0,1-1.3-.67l0,.68h-.87Zm4.46,5.27a1.31,1.31,0,0,0-1.23-1.42h-.85a1.31,1.31,0,0,0-1.22,1.35V8.38a1.09,1.09,0,0,0,1.07,1h1c.71,0,1.26-.68,1.25-1.72Z"/><path class="cls-1" d="M156.9,5.93a2.72,2.72,0,0,1,.79-2.07,2.78,2.78,0,0,1,2-.75,2.55,2.55,0,0,1,2.85,2.8V7.29l-4.48,0v.07c0,1.34.44,2,1.59,2h2.71v1.07h-2.71c-2,0-2.73-1.12-2.73-3.41Zm4.49.33V5.87a1.52,1.52,0,0,0-1.71-1.7A1.56,1.56,0,0,0,158,5.88v.39Z"/><path class="cls-1" d="M166.74,3.1a2.21,2.21,0,0,1,1.78.83,2.83,2.83,0,0,1,.71,1.91V7.89a2.61,2.61,0,0,1-.7,1.86,2.34,2.34,0,0,1-1.77.77h-.84a2.38,2.38,0,0,1-1.79-.76,2.59,2.59,0,0,1-.71-1.86v-2a2.92,2.92,0,0,1,.7-1.92,2.27,2.27,0,0,1,1.79-.84Zm1.35,2.75a1.59,1.59,0,0,0-1.34-1.69h-.84a1.21,1.21,0,0,0-1,.5,1.91,1.91,0,0,0-.39,1.19V7.91a1.45,1.45,0,0,0,1.36,1.55h.83a1.46,1.46,0,0,0,1.34-1.57Z"/><path class="cls-1" d="M173.52,3.08a2.15,2.15,0,0,1,1.77.83A2.84,2.84,0,0,1,176,5.82V7.87a2.59,2.59,0,0,1-.71,1.86,2.31,2.31,0,0,1-1.77.77h-.83a2.32,2.32,0,0,1-1.79-.75,2.66,2.66,0,0,1-.72-1.86v-2a2.8,2.8,0,0,1,.7-1.92,2.25,2.25,0,0,1,1.78-.84Zm1.35,2.75a1.59,1.59,0,0,0-1.35-1.69h-.83a1.27,1.27,0,0,0-1,.51,1.84,1.84,0,0,0-.38,1.19v2a1.47,1.47,0,0,0,1.36,1.56h.84a1.44,1.44,0,0,0,1.34-1.56Z"/><path class="cls-1" d="M181.19,3V4.1h-1a1.56,1.56,0,0,0-1.74,1.72v4.53h-1.13l0-7.25h.88l.06.93a2,2,0,0,1,1.95-1Z"/><path class="cls-1" d="M186.11.25h1.13l0,10.09h-.87l0-.67a1.52,1.52,0,0,1-1.28.68h-1a2.19,2.19,0,0,1-1.74-.77,3,3,0,0,1-.67-2v-2a2.4,2.4,0,0,1,.68-1.79A2.24,2.24,0,0,1,184,3.06h.68a1.54,1.54,0,0,1,1.4.78Zm0,5.21a1.32,1.32,0,0,0-1.23-1.34h-.85a1.3,1.3,0,0,0-1.22,1.43v2c0,1,.53,1.72,1.26,1.71h1a1.1,1.1,0,0,0,1.07-1Z"/><path class="cls-1" d="M188.59,5.82a2.7,2.7,0,0,1,.79-2.06,2.76,2.76,0,0,1,2-.76,2.56,2.56,0,0,1,2.85,2.8V7.19h-4.48v.08c0,1.34.44,2,1.59,2H194V10.3h-2.72c-2,0-2.72-1.11-2.73-3.4Zm4.49.34V5.77a1.52,1.52,0,0,0-1.71-1.7,1.56,1.56,0,0,0-1.64,1.71v.39Z"/><path class="cls-1" d="M195.11,5.8a2.68,2.68,0,0,1,.79-2.06,2.75,2.75,0,0,1,2-.76,2.55,2.55,0,0,1,2.84,2.8V7.17h-4.48v.07c0,1.35.43,2,1.59,2h2.71v1.06h-2.71c-2,0-2.73-1.11-2.73-3.41Zm4.49.33V5.74a1.51,1.51,0,0,0-1.71-1.69,1.55,1.55,0,0,0-1.64,1.7v.39Z"/><path class="cls-1" d="M202,.2h1.14l0,10.09H202Z"/><path class="cls-1" d="M208.88.18H210l0,10.1h-.87l0-.68a1.49,1.49,0,0,1-1.28.68h-1a2.19,2.19,0,0,1-1.73-.78,2.91,2.91,0,0,1-.67-2v-2a2.44,2.44,0,0,1,.69-1.79A2.26,2.26,0,0,1,206.81,3h.68a1.56,1.56,0,0,1,1.4.77Zm0,5.2A1.31,1.31,0,0,0,207.66,4h-.85a1.31,1.31,0,0,0-1.22,1.43v2c0,1,.52,1.71,1.26,1.71h1a1.1,1.1,0,0,0,1.06-1Z"/><path class="cls-1" d="M12.66,20.31l6.25,0v1.13l-5,0V24.6l4.24,0v1.13H13.89v3.54l5,0v1.14l-6.24,0Z"/><path class="cls-1" d="M24.25,23V24.1h-1a1.56,1.56,0,0,0-1.74,1.72l0,4.53H20.37l0-7.25h.88l.06.93a2,2,0,0,1,1.95-1Z"/><path class="cls-1" d="M30.06,23.13h1.2l-2.65,7.22H27.36l-2.66-7.2h1.21L28,28.91Z"/><path class="cls-1" d="M32.18,23.13h3a2,2,0,0,1,2.08,2.15l0,5.05h-.87l0-.66a1.61,1.61,0,0,1-1.27.67H33.93a2.1,2.1,0,0,1-1.54-.62,2.11,2.11,0,0,1,0-3,2.1,2.1,0,0,1,1.54-.64h2.16v-.76a1,1,0,0,0-.94-1.1h-3Zm3.91,4H33.92a1.07,1.07,0,0,0-1,1.09,1,1,0,0,0,1,1.06h1.13a1.06,1.06,0,0,0,1-1Z"/><path class="cls-1" d="M42.63,23V24h-1a1.56,1.56,0,0,0-1.74,1.72l0,4.53H38.75l0-7.25h.88l.06.93a1.93,1.93,0,0,1,1.94-1Z"/><path class="cls-1" d="M43.2,25.79A2.72,2.72,0,0,1,44,23.72,2.8,2.8,0,0,1,46,23a2.55,2.55,0,0,1,2.85,2.8v1.38l-4.48,0v.07c0,1.34.44,2,1.59,2h2.71v1.07H45.94c-2,0-2.72-1.12-2.73-3.41Zm4.49.33v-.39A1.52,1.52,0,0,0,46,24a1.57,1.57,0,0,0-1.64,1.71v.39Z"/><path class="cls-1" d="M53.27,23a2.16,2.16,0,0,1,1.66.7,2.4,2.4,0,0,1,.7,1.78l0,4.82H54.51l0-4.81A1.3,1.3,0,0,0,53.28,24H52.4a1.26,1.26,0,0,0-1.22,1.27v5H50.05L50,23h.88l0,.72A1.66,1.66,0,0,1,52.39,23Z"/><path class="cls-1" d="M66.25,23h1.2L64.8,30.23H63.55L60.89,23H62.1l2.08,5.76Z"/><path class="cls-1" d="M68,25.71a2.68,2.68,0,0,1,.78-2.07,2.82,2.82,0,0,1,2-.76,2.57,2.57,0,0,1,2.85,2.81v1.38l-4.48,0v.07c0,1.34.44,2,1.59,2h2.71v1.07H70.69c-2,0-2.73-1.12-2.74-3.41Zm4.48.33v-.39A1.52,1.52,0,0,0,70.72,24a1.56,1.56,0,0,0-1.63,1.71v.39Z"/><path class="cls-1" d="M78.68,22.86v1.07h-1a1.56,1.56,0,0,0-1.74,1.72l0,4.53H74.8l0-7.25h.88l.06.92a2,2,0,0,1,2-1Z"/><path class="cls-1" d="M79.76,20.09H80.9l0,3.58a1.53,1.53,0,0,1,1.39-.77H83a2.12,2.12,0,0,1,1.66.69,2.37,2.37,0,0,1,.71,1.78l0,4.8H84.24l0-4.81A1.29,1.29,0,0,0,83,24h-.85a1.31,1.31,0,0,0-1.22,1.34l0,4.88H79.8Z"/><path class="cls-1" d="M91.21,22.93h1.14l0,7.25h-.88l0-.71a1.67,1.67,0,0,1-1.44.77h-.88a2.25,2.25,0,0,1-1.67-.7,2.41,2.41,0,0,1-.7-1.79l0-4.81h1.14l0,4.82a1.29,1.29,0,0,0,1.23,1.42H90a1.26,1.26,0,0,0,1.21-1.27Z"/><path class="cls-1" d="M93.92,20.39h1.14v1.34H93.93Zm0,2.53h1.14l0,7.21H94Z"/><path class="cls-1" d="M101.56,22.81v1.07H98.88c-.92,0-1.38.34-1.39,1s.48.85,1.41.95c.13,0,.46.05.57.05,1.5.17,2.33.89,2.34,2.09,0,1.54-1.08,2.21-2.75,2.21H96.57V29.13h2.5c1.14,0,1.61-.32,1.61-1.14,0-.62-.38-.92-1.3-1l-.59-.06c-1.62-.18-2.43-.84-2.43-2,0-1.51,1.26-2.06,2.53-2.07Z"/><path class="cls-1" d="M103,20h1.14v3.57a1.54,1.54,0,0,1,1.39-.78h.68a2.39,2.39,0,0,1,2.37,2.49v2a3,3,0,0,1-.67,2,2.15,2.15,0,0,1-1.71.78h-1a1.56,1.56,0,0,1-1.3-.68l0,.68h-.86Zm4.45,5.28a1.3,1.3,0,0,0-1.23-1.42h-.85a1.31,1.31,0,0,0-1.22,1.34V28a1.09,1.09,0,0,0,1.07,1h1c.71,0,1.25-.68,1.25-1.72Z"/><path class="cls-1" d="M109.6,25.57a2.65,2.65,0,0,1,.79-2.06,2.74,2.74,0,0,1,2-.76,2.55,2.55,0,0,1,2.85,2.8v1.39h-4.49V27c0,1.34.44,2,1.6,2h2.71v1.06h-2.71c-2,0-2.73-1.11-2.74-3.41Zm4.49.33v-.39a1.5,1.5,0,0,0-1.7-1.69,1.55,1.55,0,0,0-1.64,1.7v.39Z"/><path class="cls-1" d="M120.54,20h1.13l0,10.09h-.87l0-.68a1.52,1.52,0,0,1-1.28.68h-1a2.16,2.16,0,0,1-1.74-.77,3,3,0,0,1-.67-2v-2a2.38,2.38,0,0,1,.68-1.79,2.22,2.22,0,0,1,1.67-.71h.68a1.52,1.52,0,0,1,1.4.77Zm0,5.2a1.32,1.32,0,0,0-1.23-1.34h-.85a1.3,1.3,0,0,0-1.22,1.43v2c0,1,.53,1.71,1.26,1.71h1a1.1,1.1,0,0,0,1.07-1Z"/><path class="cls-1" d="M127.24,22.7v1.07h-1a1.56,1.56,0,0,0-1.74,1.72l0,4.53h-1.14l0-7.25h.88l.06.92a2,2,0,0,1,2-1Z"/><path class="cls-1" d="M128.33,20.28h1.14v1.34h-1.14Zm0,2.53h1.14l0,7.21h-1.14Z"/><path class="cls-1" d="M131.18,22.8h1.13l0,6.21a4,4,0,0,1-.65,2.26l-1.09,1.54-.94-.6,1.09-1.56A2.51,2.51,0,0,0,131.2,29Zm0-2.53h1.14V21.6h-1.14Z"/><path class="cls-1" d="M134.39,22.79v-.2c0-2,1.58-2.82,3.24-2.78v1c-1.25,0-2.08.55-2.07,1.75v.2h2.08v1h-2.15l0,6.19h-1.14l0-6.18h-.92v-1Z"/><path class="cls-1" d="M164.06,20.26V21.4h-3c-1.44,0-2.06.39-2.06,1.5a1.26,1.26,0,0,0,.44,1.11,2.28,2.28,0,0,0,.75.35c.39.11.53.12,1.06.24a6.27,6.27,0,0,1,1.81.54,2.09,2.09,0,0,1,1.22,2.11q0,3.1-3.18,3.12h-3.29V29.25h3.29c1.4,0,2-.53,2-2a1.12,1.12,0,0,0-.44-1,4.4,4.4,0,0,0-1.61-.55,6.9,6.9,0,0,1-.68-.12,7.5,7.5,0,0,1-1.24-.41,2.69,2.69,0,0,1-1-.8,3.06,3.06,0,0,1-.36-1.45c0-1.76,1.09-2.65,3.26-2.65Z"/><path class="cls-1" d="M169,23a2.16,2.16,0,0,1,1.72.78,2.91,2.91,0,0,1,.67,2v2.09a2.48,2.48,0,0,1-.69,1.79,2.27,2.27,0,0,1-1.66.7h-.68a1.57,1.57,0,0,1-1.4-.76L167,33h-1.14l0-10h.87l0,.66A1.63,1.63,0,0,1,168,23Zm1.26,2.78c0-1.05-.55-1.71-1.26-1.71h-1a1.1,1.1,0,0,0-1.06,1V28a1.29,1.29,0,0,0,1.23,1.33H169a1.32,1.32,0,0,0,1.22-1.42Z"/><path class="cls-1" d="M175.65,23a2.24,2.24,0,0,1,1.78.83,2.91,2.91,0,0,1,.71,1.92V27.8a2.64,2.64,0,0,1-.7,1.86,2.38,2.38,0,0,1-1.78.77h-.83a2.38,2.38,0,0,1-1.79-.76,2.62,2.62,0,0,1-.72-1.86v-2a2.85,2.85,0,0,1,.7-1.92,2.26,2.26,0,0,1,1.78-.85ZM177,25.75a1.58,1.58,0,0,0-1.35-1.68h-.83a1.24,1.24,0,0,0-1,.51,1.87,1.87,0,0,0-.38,1.18v2a1.45,1.45,0,0,0,1.36,1.55h.84A1.44,1.44,0,0,0,177,27.8Z"/><path class="cls-1" d="M179.1,25.79a2.72,2.72,0,0,1,.79-2.07,2.8,2.8,0,0,1,2-.75,2.55,2.55,0,0,1,2.85,2.8v1.38l-4.48,0v.07c0,1.34.44,2,1.59,2h2.71v1.07h-2.72c-2,0-2.72-1.12-2.73-3.41Zm4.49.33v-.39a1.52,1.52,0,0,0-1.71-1.7,1.57,1.57,0,0,0-1.64,1.71v.39Z"/><path class="cls-1" d="M190.05,20.17h1.12l0,10.09h-.86l-.05-.67a1.51,1.51,0,0,1-1.28.68h-1a2.17,2.17,0,0,1-1.73-.77,2.93,2.93,0,0,1-.67-2v-2a2.41,2.41,0,0,1,.69-1.79A2.22,2.22,0,0,1,188,23h.68a1.57,1.57,0,0,1,1.4.78Zm0,5.21A1.31,1.31,0,0,0,188.83,24H188a1.31,1.31,0,0,0-1.22,1.43v2c0,1,.52,1.72,1.26,1.72h1a1.09,1.09,0,0,0,1.06-1Z"/><path class="cls-1" d="M198.49,24.77l-.42-.5a2.58,2.58,0,0,1-.65-1.61,2.49,2.49,0,0,1,.62-1.72,2.11,2.11,0,0,1,1.69-.73,2.13,2.13,0,0,1,1.71.7,2.61,2.61,0,0,1,.61,1.73,2,2,0,0,1-1,1.78l-.91.59,2.3,2.78a2.05,2.05,0,0,0,.26-1.05l1.07.19a3.92,3.92,0,0,1-.44,1.92l.63.75-.87.72-.55-.67a2.36,2.36,0,0,1-1.36.42h-1.71a2.41,2.41,0,0,1-1.82-.75,2.6,2.6,0,0,1-.74-1.9,2.66,2.66,0,0,1,1.2-2.41Zm.71.85-.34.23a1.76,1.76,0,0,0-.79,1.58,1.44,1.44,0,0,0,1.4,1.57H201a.66.66,0,0,0,.68-.35Zm.24-1.45,1-.64a.84.84,0,0,0,.47-.87c0-.81-.42-1.35-1.15-1.35s-1.17.55-1.17,1.36a1.55,1.55,0,0,0,.4.92Z"/><path class="cls-1" d="M214.41,23h1.19L213,30.19H211.7L209,23h1.21l2.08,5.76Z"/><path class="cls-1" d="M216.1,25.67a2.72,2.72,0,0,1,.79-2.07,2.78,2.78,0,0,1,2-.75,2.54,2.54,0,0,1,2.84,2.8V27l-4.48,0v.07c0,1.34.43,2,1.59,2h2.71v1.07h-2.71c-2,0-2.73-1.12-2.74-3.41Zm4.49.33v-.39a1.51,1.51,0,0,0-1.7-1.7,1.57,1.57,0,0,0-1.64,1.71V26Z"/><path class="cls-1" d="M226.83,22.82v1.07h-1a1.56,1.56,0,0,0-1.74,1.72l0,4.53H223l0-7.25h.88l.06.92a2,2,0,0,1,1.94-1Z"/><path class="cls-1" d="M227.58,22.93h5.11v.75l-3.6,5.4h3.66v1.07h-5.21v-.75l3.59-5.4h-3.53Z"/><path class="cls-1" d="M233.68,25.61a2.64,2.64,0,0,1,.78-2.06,2.78,2.78,0,0,1,2-.76,2.55,2.55,0,0,1,2.85,2.8V27h-4.49v.07c0,1.34.44,2,1.59,2h2.72v1.06h-2.71c-2,0-2.73-1.11-2.74-3.41Zm4.48.33v-.39a1.51,1.51,0,0,0-1.71-1.69,1.55,1.55,0,0,0-1.63,1.7V26Z"/><path class="cls-1" d="M240.54,20h1.14v5.64h.81l2.24-2.76h1.46l-2.7,3.3,2.95,3.91h-1.4l-2.56-3.4h-.79V30.1h-1.14Z"/><path class="cls-1" d="M246.67,25.57a2.71,2.71,0,0,1,.78-2.07,2.81,2.81,0,0,1,2-.75,2.55,2.55,0,0,1,2.85,2.8v1.38l-4.49,0V27c0,1.34.44,2,1.6,2h2.71v1.07h-2.71c-2,0-2.73-1.12-2.74-3.41Zm4.48.33v-.39a1.5,1.5,0,0,0-1.7-1.69,1.55,1.55,0,0,0-1.64,1.7v.39Z"/><path class="cls-1" d="M257.4,22.72v1.07h-1a1.56,1.56,0,0,0-1.74,1.72l0,4.53h-1.14l0-7.25h.88l.06.92a2,2,0,0,1,1.95-1Z"/><path class="cls-1" d="M262.32,19.94h1.13l0,10.1h-.86l-.05-.68a1.52,1.52,0,0,1-1.28.68h-1a2.16,2.16,0,0,1-1.73-.78,2.91,2.91,0,0,1-.67-2v-2a2.48,2.48,0,0,1,.68-1.79,2.28,2.28,0,0,1,1.68-.71h.67a1.54,1.54,0,0,1,1.4.77Zm0,5.2a1.3,1.3,0,0,0-1.23-1.33h-.85A1.31,1.31,0,0,0,259,25.24v2c0,1,.53,1.71,1.26,1.71h1a1.12,1.12,0,0,0,1.06-1Z"/><g id="Interface_Check" data-name="Interface / Check"><g id="Vector"><path class="cls-2" d="M54.64,6.84a.39.39,0,0,1-.27-.11L52.79,5.15a.37.37,0,1,1,.53-.53l1.32,1.32L57.53,3a.37.37,0,1,1,.53.53L54.9,6.73A.36.36,0,0,1,54.64,6.84Z"/></g></g><path class="cls-2" d="M55.43,9.77a4.89,4.89,0,1,1,4.88-4.88A4.89,4.89,0,0,1,55.43,9.77Zm0-9.08a4.2,4.2,0,1,0,4.19,4.2A4.2,4.2,0,0,0,55.43.69Z"/><g id="Interface_Check-2" data-name="Interface / Check"><g id="Vector-2" data-name="Vector"><path class="cls-2" d="M4.1,27.65a.39.39,0,0,1-.27-.11L2.26,26a.37.37,0,0,1,.52-.52L4.1,26.75,7,23.86a.37.37,0,0,1,.53,0,.37.37,0,0,1,0,.52L4.36,27.54A.36.36,0,0,1,4.1,27.65Z"/></g></g><path class="cls-2" d="M4.89,30.59A4.89,4.89,0,1,1,9.77,25.7,4.89,4.89,0,0,1,4.89,30.59Zm0-9.09a4.2,4.2,0,1,0,4.2,4.2A4.21,4.21,0,0,0,4.89,21.5Z"/><g id="Interface_Check-3" data-name="Interface / Check"><g id="Vector-3" data-name="Vector"><path class="cls-2" d="M149.48,27.65a.36.36,0,0,1-.26-.11L147.64,26a.36.36,0,0,1,0-.52.37.37,0,0,1,.53,0l1.31,1.31,2.9-2.89a.37.37,0,0,1,.52.52l-3.16,3.16A.35.35,0,0,1,149.48,27.65Z"/></g></g><path class="cls-2" d="M150.27,30.59a4.89,4.89,0,1,1,4.89-4.89A4.9,4.9,0,0,1,150.27,30.59Zm0-9.09a4.2,4.2,0,1,0,4.2,4.2A4.21,4.21,0,0,0,150.27,21.5Z"/></g></g></svg>