<svg xmlns="http://www.w3.org/2000/svg" viewBox="0 0 234.93 118.96"><g id="Layer_2" data-name="Layer 2"><g id="Layer_1-2" data-name="Layer 1"><path d="M75.76,7.31A6.29,6.29,0,0,0,73.35,4.6a6.93,6.93,0,0,0-3.67-1,7.44,7.44,0,0,0-3.77,1,6.8,6.8,0,0,0-2.64,2.75,8.68,8.68,0,0,0-1,4.15,8.57,8.57,0,0,0,1,4.13,6.83,6.83,0,0,0,2.64,2.74,7.44,7.44,0,0,0,3.77,1,6.87,6.87,0,0,0,4.82-1.75,7.24,7.24,0,0,0,2.2-4.73h-8V10.72H79.48v2a10,10,0,0,1-1.54,4.52,9.64,9.64,0,0,1-8.26,4.43,10.09,10.09,0,0,1-5.08-1.31A9.53,9.53,0,0,1,61,16.75a10.36,10.36,0,0,1-1.34-5.25A10.39,10.39,0,0,1,61,6.24,9.45,9.45,0,0,1,64.6,2.6a10.67,10.67,0,0,1,10.71.27,9,9,0,0,1,3.57,4.44Z"/><path d="M82.93,9.36a7,7,0,0,1,2.68-2.82,7.32,7.32,0,0,1,3.8-1A7,7,0,0,1,93,6.42a6,6,0,0,1,2.27,2.24V5.79h2.63V21.51H95.26V18.58A6.17,6.17,0,0,1,93,20.86a7,7,0,0,1-3.57.9,7.09,7.09,0,0,1-6.45-3.92,8.94,8.94,0,0,1-1-4.25A8.75,8.75,0,0,1,82.93,9.36Zm11.61,1.16a5,5,0,0,0-1.94-2,5.23,5.23,0,0,0-2.68-.7,5.31,5.31,0,0,0-2.67.69,5,5,0,0,0-1.92,2,6.44,6.44,0,0,0-.71,3.09,6.61,6.61,0,0,0,.71,3.14,5.12,5.12,0,0,0,1.92,2,5.46,5.46,0,0,0,5.35,0,5,5,0,0,0,1.94-2,6.43,6.43,0,0,0,.72-3.11A6.39,6.39,0,0,0,94.54,10.52ZM93.43,3.2a4.08,4.08,0,0,1-3,1,4.14,4.14,0,0,1-3-1A3.58,3.58,0,0,1,86.34.49V0h1.55a2.14,2.14,0,0,0,.6,1.65,2.82,2.82,0,0,0,2,.56,2.77,2.77,0,0,0,1.92-.56A2.14,2.14,0,0,0,93,0h1.55V.52A3.57,3.57,0,0,1,93.43,3.2Z"/><path d="M104.63,21.15a5.5,5.5,0,0,1-2.26-1.72,4.57,4.57,0,0,1-.92-2.54h2.69a2.67,2.67,0,0,0,1.11,1.92,4.17,4.17,0,0,0,2.59.75,3.75,3.75,0,0,0,2.35-.66,2,2,0,0,0,.86-1.67,1.63,1.63,0,0,0-.91-1.53,13.59,13.59,0,0,0-2.84-1,21.73,21.73,0,0,1-2.85-.93,5.17,5.17,0,0,1-1.9-1.41,3.68,3.68,0,0,1-.79-2.45,3.72,3.72,0,0,1,.72-2.21,4.86,4.86,0,0,1,2-1.59,7.35,7.35,0,0,1,3-.59,6.41,6.41,0,0,1,4.21,1.32,4.75,4.75,0,0,1,1.72,3.62h-2.61a2.62,2.62,0,0,0-1-2,3.67,3.67,0,0,0-2.42-.75,3.71,3.71,0,0,0-2.23.6,1.87,1.87,0,0,0-.84,1.58,1.73,1.73,0,0,0,.51,1.28,3.63,3.63,0,0,0,1.26.8,19.81,19.81,0,0,0,2.1.67,22.85,22.85,0,0,1,2.76.91,4.85,4.85,0,0,1,1.82,1.33,3.61,3.61,0,0,1,.79,2.32,4,4,0,0,1-.72,2.33,4.91,4.91,0,0,1-2,1.62,7.27,7.27,0,0,1-3,.58A8.17,8.17,0,0,1,104.63,21.15Z"/><path d="M131.53,14.62H119a4.95,4.95,0,0,0,5.1,4.94,4.89,4.89,0,0,0,2.83-.79,4.25,4.25,0,0,0,1.59-2.11h2.81a6.69,6.69,0,0,1-2.53,3.68,7.59,7.59,0,0,1-4.7,1.42,8,8,0,0,1-4-1,7.08,7.08,0,0,1-2.76-2.85,8.86,8.86,0,0,1-1-4.29,9,9,0,0,1,1-4.27A6.9,6.9,0,0,1,120,6.52a8.17,8.17,0,0,1,4.06-1,7.91,7.91,0,0,1,4,1,6.7,6.7,0,0,1,2.65,2.68,7.93,7.93,0,0,1,.93,3.86C131.61,13.54,131.58,14.07,131.53,14.62Zm-3.27-4.68a4.29,4.29,0,0,0-1.79-1.64A5.67,5.67,0,0,0,124,7.74,4.85,4.85,0,0,0,120.59,9,5.14,5.14,0,0,0,119,12.5h9.92A4.78,4.78,0,0,0,128.26,9.94Z"/><path d="M137.38,21.15a5.53,5.53,0,0,1-2.27-1.72,4.64,4.64,0,0,1-.92-2.54h2.7a2.66,2.66,0,0,0,1.1,1.92,4.2,4.2,0,0,0,2.6.75,3.77,3.77,0,0,0,2.35-.66,2,2,0,0,0,.86-1.67,1.64,1.64,0,0,0-.92-1.53,13.38,13.38,0,0,0-2.84-1,22.79,22.79,0,0,1-2.85-.93,5.05,5.05,0,0,1-1.89-1.41,3.63,3.63,0,0,1-.79-2.45,3.72,3.72,0,0,1,.72-2.21,4.76,4.76,0,0,1,2-1.59,7.38,7.38,0,0,1,3-.59,6.44,6.44,0,0,1,4.22,1.32,4.78,4.78,0,0,1,1.72,3.62H143.6a2.69,2.69,0,0,0-1-2,3.67,3.67,0,0,0-2.42-.75,3.74,3.74,0,0,0-2.24.6,1.89,1.89,0,0,0-.83,1.58,1.76,1.76,0,0,0,.5,1.28,3.73,3.73,0,0,0,1.26.8,20.11,20.11,0,0,0,2.11.67,22.62,22.62,0,0,1,2.75.91,4.69,4.69,0,0,1,1.82,1.33,3.55,3.55,0,0,1,.79,2.32,4.06,4.06,0,0,1-.71,2.33,5,5,0,0,1-2,1.62,7.25,7.25,0,0,1-3,.58A8.1,8.1,0,0,1,137.38,21.15ZM142,25.29q0,3.3-2.89,3.3V27.38c.89,0,1.34-.53,1.34-1.6v-.52h-1.34V22.91h2.58A10.58,10.58,0,0,1,142,25.29Z"/><path d="M153.2,7.94V17.2a2.21,2.21,0,0,0,.49,1.62,2.39,2.39,0,0,0,1.69.48h1.93v2.21H155a4.65,4.65,0,0,1-3.26-1,4.3,4.3,0,0,1-1.09-3.3V7.94h-2V5.79h2V1.84h2.6v4h4.11V7.94Z"/><path d="M174.71,14.62H162.15a4.95,4.95,0,0,0,5.11,4.94,4.88,4.88,0,0,0,2.82-.79,4.25,4.25,0,0,0,1.59-2.11h2.81A6.72,6.72,0,0,1,172,20.34a7.59,7.59,0,0,1-4.7,1.42,7.89,7.89,0,0,1-4-1,7.11,7.11,0,0,1-2.77-2.85,8.86,8.86,0,0,1-1-4.29,9,9,0,0,1,1-4.27,6.86,6.86,0,0,1,2.74-2.83,8.14,8.14,0,0,1,4.06-1,7.87,7.87,0,0,1,4,1,6.7,6.7,0,0,1,2.65,2.68,7.82,7.82,0,0,1,.94,3.86A14.6,14.6,0,0,1,174.71,14.62Zm-3.27-4.68a4.29,4.29,0,0,0-1.79-1.64,5.64,5.64,0,0,0-2.51-.56A4.85,4.85,0,0,0,163.77,9a5.14,5.14,0,0,0-1.59,3.5h9.92A4.78,4.78,0,0,0,171.44,9.94Z"/><path d="M6.15,36.09a6.58,6.58,0,0,1,3.11-.73,7,7,0,0,1,3.69,1,7.07,7.07,0,0,1,2.61,2.85,9.17,9.17,0,0,1,1,4.29,9.34,9.34,0,0,1-1,4.31A7.24,7.24,0,0,1,13,50.73a6.8,6.8,0,0,1-3.69,1,6.51,6.51,0,0,1-3.08-.71A6.67,6.67,0,0,1,4,49.24v9.84H0V35.62H4v2.29A6.22,6.22,0,0,1,6.15,36.09ZM11.83,41a4.12,4.12,0,0,0-1.55-1.6,4.16,4.16,0,0,0-2.08-.54,4,4,0,0,0-2,.56A4.11,4.11,0,0,0,4.6,41.07a5.57,5.57,0,0,0,0,5,4.11,4.11,0,0,0,1.55,1.62,4,4,0,0,0,2,.56,3.91,3.91,0,0,0,2.08-.58A4.2,4.2,0,0,0,11.83,46a5.16,5.16,0,0,0,.59-2.52A5,5,0,0,0,11.83,41Z"/><path d="M25.48,36.11a5.59,5.59,0,0,1,2.85-.72v4.22H27.27a4,4,0,0,0-2.85.89,4.08,4.08,0,0,0-1,3.09v7.92h-4V35.62h4v2.47A5.63,5.63,0,0,1,25.48,36.11Z"/><path d="M34,50.75a7.34,7.34,0,0,1-2.88-2.89A8.59,8.59,0,0,1,30,43.56a8.42,8.42,0,0,1,1.08-4.3A7.4,7.4,0,0,1,34,36.38a9,9,0,0,1,8.31,0,7.53,7.53,0,0,1,2.94,2.88,8.42,8.42,0,0,1,1.08,4.3,8.22,8.22,0,0,1-1.11,4.3,7.59,7.59,0,0,1-3,2.89,8.75,8.75,0,0,1-4.2,1A8.45,8.45,0,0,1,34,50.75Zm6.18-3a3.88,3.88,0,0,0,1.53-1.6,5.24,5.24,0,0,0,.58-2.58,4.78,4.78,0,0,0-1.19-3.48,3.94,3.94,0,0,0-2.91-1.22,3.85,3.85,0,0,0-2.89,1.22,4.86,4.86,0,0,0-1.16,3.48,4.94,4.94,0,0,0,1.14,3.49,3.72,3.72,0,0,0,2.85,1.22A4.2,4.2,0,0,0,40.13,47.74Z"/><path d="M49.25,39.23a6.95,6.95,0,0,1,6.32-3.87,6.71,6.71,0,0,1,3,.68,5.82,5.82,0,0,1,2.24,1.79V30.29h4.07V51.51H60.76V49.15a5.5,5.5,0,0,1-2.09,1.9,6.66,6.66,0,0,1-3.13.71,6.8,6.8,0,0,1-3.67-1,7.19,7.19,0,0,1-2.62-2.91,9.34,9.34,0,0,1-1-4.31A9.24,9.24,0,0,1,49.25,39.23Zm11,1.82a4,4,0,0,0-1.54-1.6,4.18,4.18,0,0,0-2.1-.56,4.09,4.09,0,0,0-2.06.54A4.24,4.24,0,0,0,53,41a5,5,0,0,0-.58,2.48A5.13,5.13,0,0,0,53,46a4.26,4.26,0,0,0,1.55,1.65,3.88,3.88,0,0,0,2,.58,4.18,4.18,0,0,0,2.1-.56,4,4,0,0,0,1.54-1.61,5.72,5.72,0,0,0,0-5Z"/><path d="M83.76,35.62V51.51H79.71v-2a5.23,5.23,0,0,1-2,1.62,6.28,6.28,0,0,1-2.71.59,6.82,6.82,0,0,1-3.3-.79,5.66,5.66,0,0,1-2.25-2.32,7.78,7.78,0,0,1-.81-3.66V35.62h4v8.75a4.13,4.13,0,0,0,1,2.91,3.34,3.34,0,0,0,2.58,1,3.38,3.38,0,0,0,2.61-1,4.12,4.12,0,0,0,.94-2.91V35.62Z"/><path d="M90.29,51.06a6.13,6.13,0,0,1-2.45-1.91,4.86,4.86,0,0,1-1-2.66H90.9A2.16,2.16,0,0,0,91.8,48a3.15,3.15,0,0,0,2,.6,3,3,0,0,0,1.8-.46A1.38,1.38,0,0,0,96.2,47a1.24,1.24,0,0,0-.79-1.17A14.88,14.88,0,0,0,92.9,45,21.56,21.56,0,0,1,90,44.08,5.09,5.09,0,0,1,88,42.67a3.79,3.79,0,0,1-.81-2.55A4.1,4.1,0,0,1,88,37.71,5.08,5.08,0,0,1,90.17,36a8.13,8.13,0,0,1,3.34-.63A6.86,6.86,0,0,1,98,36.78a5.27,5.27,0,0,1,1.86,3.83H96.06a2.11,2.11,0,0,0-.79-1.51A3.53,3.53,0,0,0,91.71,39a1.26,1.26,0,0,0-.58,1.11,1.29,1.29,0,0,0,.8,1.22,12.22,12.22,0,0,0,2.49.85,20.67,20.67,0,0,1,2.84.89,5,5,0,0,1,1.94,1.42A3.92,3.92,0,0,1,100,47a4.19,4.19,0,0,1-.76,2.46,4.92,4.92,0,0,1-2.18,1.71,8.25,8.25,0,0,1-3.31.61A8.38,8.38,0,0,1,90.29,51.06Z"/><path d="M118,44.77H106.38a4,4,0,0,0,1.2,2.69,3.73,3.73,0,0,0,2.61,1,3.28,3.28,0,0,0,3.19-1.92h4.33a7.26,7.26,0,0,1-2.64,3.77,7.74,7.74,0,0,1-4.79,1.47,8.34,8.34,0,0,1-4.11-1,7.06,7.06,0,0,1-2.84-2.89,8.79,8.79,0,0,1-1-4.3,9,9,0,0,1,1-4.33,7,7,0,0,1,2.81-2.86,9,9,0,0,1,8.22,0,6.9,6.9,0,0,1,2.78,2.76,8.4,8.4,0,0,1,1,4.12A9.12,9.12,0,0,1,118,44.77Zm-4-2.7a3.18,3.18,0,0,0-1.12-2.48,3.94,3.94,0,0,0-2.66-.93,3.63,3.63,0,0,0-2.51.9,4,4,0,0,0-1.25,2.51Z"/><path d="M125.42,47.29l-3.36,8.06h-2.58l1.87-8.06Z"/><path d="M137.72,51.06a6.13,6.13,0,0,1-2.45-1.91,4.86,4.86,0,0,1-1-2.66h4a2.21,2.21,0,0,0,.91,1.52,3.13,3.13,0,0,0,2,.6,3,3,0,0,0,1.79-.46,1.39,1.39,0,0,0,.65-1.17,1.26,1.26,0,0,0-.79-1.17,15.21,15.21,0,0,0-2.51-.84,20.69,20.69,0,0,1-2.91-.89,4.94,4.94,0,0,1-1.95-1.41,3.74,3.74,0,0,1-.82-2.55,4.1,4.1,0,0,1,.76-2.41A5.21,5.21,0,0,1,137.59,36a8.19,8.19,0,0,1,3.34-.63,6.86,6.86,0,0,1,4.53,1.42,5.28,5.28,0,0,1,1.87,3.83h-3.85a2.07,2.07,0,0,0-.79-1.51,3.51,3.51,0,0,0-3.55-.15,1.27,1.27,0,0,0-.59,1.11,1.31,1.31,0,0,0,.8,1.22,12.59,12.59,0,0,0,2.5.85,21.12,21.12,0,0,1,2.84.89,5,5,0,0,1,1.93,1.42,3.87,3.87,0,0,1,.85,2.54,4.19,4.19,0,0,1-.76,2.46,5,5,0,0,1-2.18,1.71,9.19,9.19,0,0,1-6.81-.09Z"/><path d="M165.42,44.77H153.81a3.91,3.91,0,0,0,1.2,2.69,3.73,3.73,0,0,0,2.61,1,3.27,3.27,0,0,0,3.18-1.92h4.33a7.26,7.26,0,0,1-2.64,3.77,7.71,7.71,0,0,1-4.78,1.47,8.41,8.41,0,0,1-4.12-1,7.18,7.18,0,0,1-2.84-2.89,8.79,8.79,0,0,1-1-4.3,9,9,0,0,1,1-4.33,7,7,0,0,1,2.81-2.86,8.4,8.4,0,0,1,4.16-1,8.31,8.31,0,0,1,4,1,6.87,6.87,0,0,1,2.79,2.76,8.51,8.51,0,0,1,1,4.12A9.18,9.18,0,0,1,165.42,44.77Zm-4-2.7a3.21,3.21,0,0,0-1.12-2.48,4,4,0,0,0-2.67-.93,3.66,3.66,0,0,0-2.51.9,4,4,0,0,0-1.24,2.51Z"/><path d="M174.49,36.11a5.65,5.65,0,0,1,2.86-.72v4.22h-1.06a4,4,0,0,0-2.86.89,4.08,4.08,0,0,0-1,3.09v7.92h-4V35.62h4v2.47A5.71,5.71,0,0,1,174.49,36.11Z"/><path d="M186.67,47.81l4-12.19H195l-5.88,15.89H184.2l-5.85-15.89h4.3Z"/><path d="M197.49,33.05a2.35,2.35,0,0,1,0-3.35,2.66,2.66,0,0,1,3.53,0,2.35,2.35,0,0,1,0,3.35,2.63,2.63,0,0,1-3.53,0Zm3.74,2.57V51.51h-4V35.62Z"/><path d="M205.16,39.25a7.18,7.18,0,0,1,2.78-2.87,8,8,0,0,1,4.07-1,7.8,7.8,0,0,1,4.89,1.48A7.16,7.16,0,0,1,219.5,41h-4.33A3.18,3.18,0,0,0,214,39.36a3.4,3.4,0,0,0-2-.59A3.33,3.33,0,0,0,209.26,40a5.51,5.51,0,0,0-1,3.54,5.5,5.5,0,0,0,1,3.52A3.32,3.32,0,0,0,212,48.32a3,3,0,0,0,3.18-2.18h4.33a7.32,7.32,0,0,1-2.61,4.1A7.66,7.66,0,0,1,212,51.76a8.14,8.14,0,0,1-4.07-1,7.25,7.25,0,0,1-2.78-2.87,9.81,9.81,0,0,1,0-8.63Z"/><path d="M222.72,33.05a2.35,2.35,0,0,1,0-3.35,2.66,2.66,0,0,1,3.53,0,2.35,2.35,0,0,1,0,3.35,2.63,2.63,0,0,1-3.53,0Zm3.75,2.57V51.51h-4V35.62Z"/><path d="M230.7,33.05a2.33,2.33,0,0,1,0-3.35,2.65,2.65,0,0,1,3.52,0,2.33,2.33,0,0,1,0,3.35,2.62,2.62,0,0,1-3.52,0Zm3.74,2.57V51.51h-4V35.62Z"/><path d="M19.43,81.06A6.13,6.13,0,0,1,17,79.15a4.71,4.71,0,0,1-1-2.66h4a2.23,2.23,0,0,0,.9,1.52,3.16,3.16,0,0,0,2,.6,3,3,0,0,0,1.79-.46A1.38,1.38,0,0,0,25.33,77a1.25,1.25,0,0,0-.78-1.17A15.55,15.55,0,0,0,22,75a20.69,20.69,0,0,1-2.91-.89,4.94,4.94,0,0,1-1.95-1.41,3.74,3.74,0,0,1-.82-2.55,4.1,4.1,0,0,1,.76-2.41A5.15,5.15,0,0,1,19.3,66a8.16,8.16,0,0,1,3.34-.63,6.86,6.86,0,0,1,4.53,1.42A5.23,5.23,0,0,1,29,70.61H25.19a2.11,2.11,0,0,0-.79-1.51,2.94,2.94,0,0,0-1.88-.56,2.92,2.92,0,0,0-1.67.41,1.25,1.25,0,0,0-.59,1.11,1.31,1.31,0,0,0,.8,1.22,12.59,12.59,0,0,0,2.5.85A21.6,21.6,0,0,1,26.4,73a5,5,0,0,1,1.93,1.42A3.87,3.87,0,0,1,29.18,77a4.26,4.26,0,0,1-.76,2.46,5,5,0,0,1-2.18,1.71,8.28,8.28,0,0,1-3.31.61A8.35,8.35,0,0,1,19.43,81.06Zm5.3,4.78a4.31,4.31,0,0,1-.9,2.92,3.37,3.37,0,0,1-2.68,1V88.16c1,0,1.43-.59,1.43-1.78v-.52H21V82.74h3.32A11.53,11.53,0,0,1,24.73,85.84Z"/><path d="M32.75,63.05a2.33,2.33,0,0,1,0-3.35,2.65,2.65,0,0,1,3.52,0,2.33,2.33,0,0,1,0,3.35,2.62,2.62,0,0,1-3.52,0Zm3.74,2.57V81.51h-4V65.62Z"/><path d="M50.19,80.75a7.34,7.34,0,0,1-2.88-2.89,8.58,8.58,0,0,1-1-4.3,8.42,8.42,0,0,1,1.07-4.3,7.53,7.53,0,0,1,2.94-2.88,9,9,0,0,1,8.32,0,7.53,7.53,0,0,1,2.94,2.88,8.52,8.52,0,0,1,1.07,4.3,8.31,8.31,0,0,1-1.1,4.3,7.62,7.62,0,0,1-3,2.89,8.75,8.75,0,0,1-4.2,1A8.48,8.48,0,0,1,50.19,80.75Zm6.18-3a4,4,0,0,0,1.54-1.6,5.35,5.35,0,0,0,.57-2.58,4.78,4.78,0,0,0-1.19-3.48,3.91,3.91,0,0,0-2.91-1.22,3.81,3.81,0,0,0-2.88,1.22,4.81,4.81,0,0,0-1.16,3.48,4.94,4.94,0,0,0,1.13,3.49,3.75,3.75,0,0,0,2.85,1.22A4.2,4.2,0,0,0,56.37,77.74Z"/><path d="M71.71,66.09a6.59,6.59,0,0,1,3.12-.73,7,7,0,0,1,3.68,1,7.07,7.07,0,0,1,2.61,2.85,9.17,9.17,0,0,1,1,4.29,9.34,9.34,0,0,1-1,4.31,7.24,7.24,0,0,1-2.61,2.91,6.79,6.79,0,0,1-3.68,1,6.41,6.41,0,0,1-5.25-2.52v9.84h-4V65.62h4v2.29A6.18,6.18,0,0,1,71.71,66.09ZM77.39,71a4.12,4.12,0,0,0-1.55-1.6,4.16,4.16,0,0,0-2.08-.54,4.06,4.06,0,0,0-3.59,2.18,5.57,5.57,0,0,0,0,5,4.06,4.06,0,0,0,3.59,2.18,3.91,3.91,0,0,0,2.08-.58A4.2,4.2,0,0,0,77.39,76,5.16,5.16,0,0,0,78,73.51,5,5,0,0,0,77.39,71Z"/><path d="M87.93,80.75a7.34,7.34,0,0,1-2.88-2.89,8.59,8.59,0,0,1-1-4.3,8.42,8.42,0,0,1,1.08-4.3A7.4,7.4,0,0,1,88,66.38a9,9,0,0,1,8.31,0,7.53,7.53,0,0,1,2.94,2.88,8.42,8.42,0,0,1,1.08,4.3,8.22,8.22,0,0,1-1.11,4.3,7.66,7.66,0,0,1-3,2.89,8.75,8.75,0,0,1-4.2,1A8.45,8.45,0,0,1,87.93,80.75Zm6.18-3a3.88,3.88,0,0,0,1.53-1.6,5.35,5.35,0,0,0,.58-2.58A4.78,4.78,0,0,0,95,70.08a3.94,3.94,0,0,0-2.91-1.22,3.85,3.85,0,0,0-2.89,1.22,4.86,4.86,0,0,0-1.16,3.48,4.94,4.94,0,0,0,1.14,3.49,3.72,3.72,0,0,0,2.85,1.22A4.23,4.23,0,0,0,94.11,77.74Z"/><path d="M109.33,66.11a5.65,5.65,0,0,1,2.86-.72v4.22h-1.06a4,4,0,0,0-2.86.89,4.08,4.08,0,0,0-1,3.09v7.92h-4V65.62h4v2.47A5.71,5.71,0,0,1,109.33,66.11Z"/><path d="M119.56,68.92V76.6a1.54,1.54,0,0,0,.38,1.16,1.92,1.92,0,0,0,1.31.36h1.86v3.39h-2.52c-3.38,0-5.08-1.65-5.08-4.94V68.92h-1.89v-3.3h1.89V61.69h4v3.93h3.55v3.3Z"/><path d="M141,65.62V81.51h-4v-2a5.3,5.3,0,0,1-2,1.62,6.32,6.32,0,0,1-2.71.59,6.82,6.82,0,0,1-3.3-.79,5.66,5.66,0,0,1-2.25-2.32,7.78,7.78,0,0,1-.82-3.66V65.62h4v8.75a4.12,4.12,0,0,0,.94,2.91,3.85,3.85,0,0,0,5.2,0,4.12,4.12,0,0,0,.94-2.91V65.62Z"/><path d="M158.35,67.18a6.87,6.87,0,0,1,1.75,5v9.32h-4V72.73a4.13,4.13,0,0,0-1-2.91,3.34,3.34,0,0,0-2.58-1,3.42,3.42,0,0,0-2.62,1,4,4,0,0,0-1,2.91v8.78h-4V65.62h4v2A5.44,5.44,0,0,1,151,66a6.42,6.42,0,0,1,2.74-.59A6.12,6.12,0,0,1,158.35,67.18Z"/><path d="M164.19,63.05a2.33,2.33,0,0,1,0-3.35,2.65,2.65,0,0,1,3.52,0,2.33,2.33,0,0,1,0,3.35,2.62,2.62,0,0,1-3.52,0Zm3.74,2.57V81.51h-4V65.62Z"/><path d="M176.56,68.92V76.6a1.5,1.5,0,0,0,.39,1.16,1.87,1.87,0,0,0,1.3.36h1.86v3.39h-2.52q-5.07,0-5.07-4.94V68.92h-1.9v-3.3h1.9V61.69h4v3.93h3.55v3.3Z"/><path d="M182.94,69.23a7,7,0,0,1,2.61-2.86,7,7,0,0,1,3.68-1,6.41,6.41,0,0,1,3.11.72,6.26,6.26,0,0,1,2.14,1.81V65.62h4V81.51h-4V79.18A5.89,5.89,0,0,1,192.34,81a6.47,6.47,0,0,1-3.14.73,6.74,6.74,0,0,1-3.65-1,7.24,7.24,0,0,1-2.61-2.91,9.34,9.34,0,0,1-1-4.31A9.24,9.24,0,0,1,182.94,69.23Zm11,1.82a4.12,4.12,0,0,0-1.55-1.6,4.17,4.17,0,0,0-2.09-.56,4.1,4.1,0,0,0-2.07.54,4.14,4.14,0,0,0-1.53,1.6,4.87,4.87,0,0,0-.59,2.48,5,5,0,0,0,.59,2.5,4.12,4.12,0,0,0,1.55,1.65,3.86,3.86,0,0,0,2.05.58,4.17,4.17,0,0,0,2.09-.56,4.08,4.08,0,0,0,1.55-1.61,5.81,5.81,0,0,0,0-5Zm.26-7.87a4.65,4.65,0,0,1-3.36,1.18,4.6,4.6,0,0,1-3.31-1.19,4.29,4.29,0,0,1-1.25-3.26v-.57h2.12a1.94,1.94,0,0,0,.55,1.48,3.82,3.82,0,0,0,3.78,0,1.9,1.9,0,0,0,.55-1.48h2.15v.6A4.26,4.26,0,0,1,194.17,63.18Z"/><path d="M207.13,68.92V76.6a1.5,1.5,0,0,0,.38,1.16,1.92,1.92,0,0,0,1.31.36h1.86v3.39h-2.52q-5.08,0-5.08-4.94V68.92h-1.89v-3.3h1.89V61.69h4v3.93h3.55v3.3Zm.57,13.82a11,11,0,0,1,.49,3.1,4.26,4.26,0,0,1-.92,2.92,3.41,3.41,0,0,1-2.7,1V88.16c1,0,1.44-.59,1.44-1.78v-.52h-1.64V82.74Z"/><path d="M213.85,63.05a2.35,2.35,0,0,1,0-3.35,2.66,2.66,0,0,1,3.53,0,2.35,2.35,0,0,1,0,3.35,2.63,2.63,0,0,1-3.53,0Zm3.74,2.57V81.51h-4V65.62Z"/><path d="M4.2,99.36a7.07,7.07,0,0,1,2.68-2.82,7.37,7.37,0,0,1,3.8-1,7,7,0,0,1,3.59.89,6,6,0,0,1,2.26,2.24V95.79h2.64v15.72H16.53v-2.93a6.17,6.17,0,0,1-2.31,2.28,6.91,6.91,0,0,1-3.57.9,7.11,7.11,0,0,1-3.78-1,7.24,7.24,0,0,1-2.67-2.89,9.05,9.05,0,0,1-1-4.25A8.86,8.86,0,0,1,4.2,99.36Zm11.61,1.16a5,5,0,0,0-1.93-2,5.26,5.26,0,0,0-2.68-.7,5.26,5.26,0,0,0-2.67.69,5,5,0,0,0-1.92,2,6.33,6.33,0,0,0-.72,3.09,6.5,6.5,0,0,0,.72,3.14,5.12,5.12,0,0,0,1.92,2,5.17,5.17,0,0,0,2.67.7,5.26,5.26,0,0,0,2.68-.7,5,5,0,0,0,1.93-2,7.06,7.06,0,0,0,0-6.21Z"/><path d="M28.5,96.44a6.92,6.92,0,0,1,3.57-.91,7.35,7.35,0,0,1,3.8,1,7.07,7.07,0,0,1,2.68,2.82,8.86,8.86,0,0,1,1,4.23,9.06,9.06,0,0,1-1,4.25,7.15,7.15,0,0,1-6.48,3.92,6.85,6.85,0,0,1-3.54-.9,6.5,6.5,0,0,1-2.34-2.25V119H23.58V95.79h2.61v2.9A6.25,6.25,0,0,1,28.5,96.44Zm7.64,4.06a4.93,4.93,0,0,0-1.93-2,5.35,5.35,0,0,0-2.68-.69,5.15,5.15,0,0,0-4.61,2.74,6.37,6.37,0,0,0-.73,3.08,6.44,6.44,0,0,0,.73,3.11,5.15,5.15,0,0,0,4.61,2.74,5.26,5.26,0,0,0,2.68-.7,5,5,0,0,0,1.93-2,6.5,6.5,0,0,0,.72-3.14A6.33,6.33,0,0,0,36.14,100.5Z"/><path d="M47.54,96.25a6,6,0,0,1,3.11-.74V98.2H50q-4.38,0-4.38,4.76v8.55H43V95.79h2.61v2.55A5.07,5.07,0,0,1,47.54,96.25Z"/><path d="M56.52,110.76a7.07,7.07,0,0,1-2.81-2.85,8.75,8.75,0,0,1-1-4.29,8.59,8.59,0,0,1,1-4.26,7.23,7.23,0,0,1,2.86-2.84,8.74,8.74,0,0,1,8.08,0,7.27,7.27,0,0,1,2.86,2.83,8.55,8.55,0,0,1,1,4.27,8.36,8.36,0,0,1-1.07,4.29,7.51,7.51,0,0,1-2.91,2.85,8.35,8.35,0,0,1-4.07,1A8,8,0,0,1,56.52,110.76Zm6.63-2a5,5,0,0,0,2-2,7.2,7.2,0,0,0,0-6.42,5,5,0,0,0-1.95-2,5.66,5.66,0,0,0-5.23,0,4.84,4.84,0,0,0-1.91,2,6.62,6.62,0,0,0-.72,3.21,6.81,6.81,0,0,0,.71,3.24,4.63,4.63,0,0,0,1.88,2,5.26,5.26,0,0,0,2.58.65A5.49,5.49,0,0,0,63.15,108.81Z"/><path d="M72,99.36a7.1,7.1,0,0,1,2.69-2.82,7.32,7.32,0,0,1,3.8-1,7,7,0,0,1,3.58.89,5.93,5.93,0,0,1,2.26,2.24V95.79H87v15.72H84.34v-2.93a6.07,6.07,0,0,1-2.3,2.28,7,7,0,0,1-3.57.9,7.12,7.12,0,0,1-3.79-1A7.24,7.24,0,0,1,72,107.84a9.05,9.05,0,0,1-1-4.25A8.86,8.86,0,0,1,72,99.36Zm11.62,1.16a5.11,5.11,0,0,0-1.94-2A5.23,5.23,0,0,0,79,97.8a5.31,5.31,0,0,0-2.67.69,5,5,0,0,0-1.92,2,6.44,6.44,0,0,0-.71,3.09,6.61,6.61,0,0,0,.71,3.14,5.12,5.12,0,0,0,1.92,2,5.46,5.46,0,0,0,5.35,0,5.1,5.1,0,0,0,1.94-2,7.14,7.14,0,0,0,0-6.21Z"/><path d="M96.32,96.44a6.92,6.92,0,0,1,3.57-.91,7.37,7.37,0,0,1,3.8,1,7.14,7.14,0,0,1,2.68,2.82,8.86,8.86,0,0,1,1,4.23,9.05,9.05,0,0,1-1,4.25,7.15,7.15,0,0,1-6.48,3.92,6.91,6.91,0,0,1-3.55-.9A6.39,6.39,0,0,1,94,108.61V119H91.4V95.79H94v2.9A6.1,6.1,0,0,1,96.32,96.44ZM104,100.5a5,5,0,0,0-1.94-2,5.32,5.32,0,0,0-2.68-.69,5.12,5.12,0,0,0-4.6,2.74,6.26,6.26,0,0,0-.73,3.08,6.33,6.33,0,0,0,.73,3.11,5.31,5.31,0,0,0,7.28,2,5.1,5.1,0,0,0,1.94-2,6.5,6.5,0,0,0,.71-3.14A6.32,6.32,0,0,0,104,100.5Z"/><path d="M125,104.62H112.47a4.95,4.95,0,0,0,5.11,4.94,4.86,4.86,0,0,0,2.82-.79,4.13,4.13,0,0,0,1.59-2.11h2.81a6.72,6.72,0,0,1-2.52,3.68,7.59,7.59,0,0,1-4.7,1.42,7.92,7.92,0,0,1-4-1,7.11,7.11,0,0,1-2.77-2.85,8.85,8.85,0,0,1-1-4.29,9,9,0,0,1,1-4.27,6.86,6.86,0,0,1,2.74-2.83,8.17,8.17,0,0,1,4.06-1,7.85,7.85,0,0,1,4,1,6.79,6.79,0,0,1,2.66,2.68,7.93,7.93,0,0,1,.93,3.86A14.6,14.6,0,0,1,125,104.62Zm-3.27-4.68A4.23,4.23,0,0,0,120,98.3a5.61,5.61,0,0,0-2.51-.56A4.85,4.85,0,0,0,114.09,99a5.22,5.22,0,0,0-1.59,3.5h9.92A4.78,4.78,0,0,0,121.76,99.94Z"/><path d="M136.22,99.36a7,7,0,0,1,2.68-2.82,7.37,7.37,0,0,1,3.82-1,7.16,7.16,0,0,1,3.42.85,6.18,6.18,0,0,1,2.41,2.22V90.29h2.63v21.22h-2.63v-3a6.14,6.14,0,0,1-2.3,2.31,6.84,6.84,0,0,1-3.55.9,7.15,7.15,0,0,1-6.48-3.92,8.94,8.94,0,0,1-1-4.25A8.75,8.75,0,0,1,136.22,99.36Zm11.61,1.16a5,5,0,0,0-1.94-2,5.48,5.48,0,0,0-5.34,0,5,5,0,0,0-1.93,2,6.44,6.44,0,0,0-.71,3.09,6.61,6.61,0,0,0,.71,3.14,5.07,5.07,0,0,0,1.93,2,5.16,5.16,0,0,0,2.66.7,5.23,5.23,0,0,0,2.68-.7,5,5,0,0,0,1.94-2,7.06,7.06,0,0,0,0-6.21Z"/><path d="M169.85,104.62H157.29a4.95,4.95,0,0,0,5.11,4.94,4.88,4.88,0,0,0,2.82-.79,4.25,4.25,0,0,0,1.59-2.11h2.81a6.72,6.72,0,0,1-2.52,3.68,7.59,7.59,0,0,1-4.7,1.42,7.89,7.89,0,0,1-4-1,7.11,7.11,0,0,1-2.77-2.85,8.86,8.86,0,0,1-1-4.29,9,9,0,0,1,1-4.27,6.86,6.86,0,0,1,2.74-2.83,8.14,8.14,0,0,1,4.06-1,7.87,7.87,0,0,1,3.95,1A6.7,6.7,0,0,1,169,99.19a7.82,7.82,0,0,1,.94,3.86A14.6,14.6,0,0,1,169.85,104.62Zm-3.27-4.68a4.29,4.29,0,0,0-1.79-1.64,5.64,5.64,0,0,0-2.51-.56A4.85,4.85,0,0,0,158.91,99a5.14,5.14,0,0,0-1.59,3.5h9.92A4.78,4.78,0,0,0,166.58,99.94Z"/><path d="M184.22,97.94v9.26a2.21,2.21,0,0,0,.48,1.62,2.4,2.4,0,0,0,1.7.48h1.92v2.21H186a4.65,4.65,0,0,1-3.26-1,4.3,4.3,0,0,1-1.09-3.3V97.94h-2V95.79h2v-4h2.61v4h4.1v2.15Z"/><path d="M191.56,92.72a1.79,1.79,0,0,1,0-2.52,1.72,1.72,0,0,1,1.26-.52,1.66,1.66,0,0,1,1.22.52,1.84,1.84,0,0,1,0,2.52,1.63,1.63,0,0,1-1.22.52A1.68,1.68,0,0,1,191.56,92.72Zm2.52,3.07v15.72h-2.61V95.79Z"/><path d="M210.82,97.24a6.65,6.65,0,0,1,1.78,5v9.27H210v-8.89a5.06,5.06,0,0,0-1.17-3.6,4.22,4.22,0,0,0-3.21-1.25,4.31,4.31,0,0,0-3.29,1.29,5.28,5.28,0,0,0-1.22,3.76v8.69h-2.61V95.79h2.61V98a5.15,5.15,0,0,1,2.11-1.86,6.54,6.54,0,0,1,2.94-.66A6.33,6.33,0,0,1,210.82,97.24Z"/><path d="M231.13,104.62H218.57a4.95,4.95,0,0,0,5.1,4.94,4.89,4.89,0,0,0,2.83-.79,4.25,4.25,0,0,0,1.59-2.11h2.81a6.69,6.69,0,0,1-2.53,3.68,7.59,7.59,0,0,1-4.7,1.42,8,8,0,0,1-4-1,7.17,7.17,0,0,1-2.77-2.85,8.85,8.85,0,0,1-1-4.29,9,9,0,0,1,1-4.27,6.84,6.84,0,0,1,2.73-2.83,8.17,8.17,0,0,1,4.06-1,7.91,7.91,0,0,1,4,1,6.76,6.76,0,0,1,2.65,2.68,7.93,7.93,0,0,1,.93,3.86C231.21,103.54,231.18,104.07,231.13,104.62Zm-3.27-4.68a4.29,4.29,0,0,0-1.79-1.64,5.67,5.67,0,0,0-2.51-.56A4.83,4.83,0,0,0,220.19,99a5.14,5.14,0,0,0-1.59,3.5h9.92A4.78,4.78,0,0,0,227.86,99.94Z"/></g></g></svg>