<svg xmlns="http://www.w3.org/2000/svg" viewBox="0 0 154.08 73.08"><defs><style>.cls-1{fill:#231f20;}</style></defs><g id="Layer_2" data-name="Layer 2"><g id="Layer_1-2" data-name="Layer 1"><path class="cls-1" d="M3.58,19.27H0V.4H3.58V9.08H12V.4h3.58V19.27H12V10L3.58,10Z"/><path class="cls-1" d="M19.22,9.34a10.23,10.23,0,0,1,1-1.28,5.23,5.23,0,0,1,1.26-1,6.51,6.51,0,0,1,1.62-.63,8.59,8.59,0,0,1,2.07-.22,8.83,8.83,0,0,1,1.95.21,5,5,0,0,1,1.66.68A3.51,3.51,0,0,1,30,8.34a3.58,3.58,0,0,1,.42,1.8v9.11H26.81V17.73a9.45,9.45,0,0,1-2,1.22,5.11,5.11,0,0,1-2.23.54,5,5,0,0,1-1.46-.22,3.63,3.63,0,0,1-1.22-.63,3,3,0,0,1-.85-1.11,3.74,3.74,0,0,1-.32-1.6,3.05,3.05,0,0,1,.9-2.27,6.74,6.74,0,0,1,2.18-1.42,12.11,12.11,0,0,1,2.64-.77c.91-.16,1.69-.27,2.32-.32v-.9c0-.41,0-.8,0-1.17a3.43,3.43,0,0,0-.16-1,1.67,1.67,0,0,0-.45-.71A1.48,1.48,0,0,0,25.3,7a2.37,2.37,0,0,0-1.14.19,2.9,2.9,0,0,0-1,.72,4.06,4.06,0,0,0-.73,1.21,5.8,5.8,0,0,0-.37,1.65Zm7.59,2.34a11.44,11.44,0,0,0-1.34.23,5,5,0,0,0-1.5.59,3.69,3.69,0,0,0-1.19,1.17,3.29,3.29,0,0,0-.43,1.94A2.52,2.52,0,0,0,23,17.27a1.88,1.88,0,0,0,1.42.62,4.19,4.19,0,0,0,1.16-.2,3.4,3.4,0,0,0,1.23-.62Z"/><path class="cls-1" d="M37.88,19.25H34.3V8.47a2.73,2.73,0,0,0-.09-.81.76.76,0,0,0-.3-.41,1.22,1.22,0,0,0-.53-.18L32.6,7V6.61l5.28-.53V9A7.05,7.05,0,0,1,40,7.1a6.86,6.86,0,0,1,1.35-.62,4.21,4.21,0,0,1,1.37-.24,3.74,3.74,0,0,1,2.9,1,3.94,3.94,0,0,1,1,2.8v9.16H43V10.38a2.13,2.13,0,0,0-.47-1.46A2,2,0,0,0,41,8.39a4.33,4.33,0,0,0-1.66.34,5,5,0,0,0-1.42.88Z"/><path class="cls-1" d="M60.23,18.24A2.47,2.47,0,0,0,59,17.92a3.42,3.42,0,0,0-1.88.74,6.16,6.16,0,0,1-1.2.61,3.65,3.65,0,0,1-1.3.24A4.35,4.35,0,0,1,52.43,19a5.36,5.36,0,0,1-1.66-1.44,6.38,6.38,0,0,1-1-2,7.25,7.25,0,0,1-.36-2.25,7.77,7.77,0,0,1,.43-2.56,7.37,7.37,0,0,1,1.25-2.25A6.55,6.55,0,0,1,53,6.85a5.28,5.28,0,0,1,2.55-.61,5.4,5.4,0,0,1,1.57.24,4.63,4.63,0,0,1,1.41.69V2.47a2.6,2.6,0,0,0-.1-.8.76.76,0,0,0-.3-.4,1.5,1.5,0,0,0-.53-.17L56.84,1V.64L62.12.11V19.25ZM58.54,7.78a2.58,2.58,0,0,0-.95-.44,4.57,4.57,0,0,0-1.05-.12,2.71,2.71,0,0,0-1.69.53,4,4,0,0,0-1.12,1.33,6.19,6.19,0,0,0-.61,1.74,9.44,9.44,0,0,0-.19,1.76,8.92,8.92,0,0,0,.18,1.68A7.29,7.29,0,0,0,53.66,16a4.08,4.08,0,0,0,1,1.37,2.43,2.43,0,0,0,1.61.54,2.28,2.28,0,0,0,1.22-.39,5,5,0,0,0,1-.81Z"/><path class="cls-1" d="M64.56,10.54h8.79v2.18H64.56Z"/><path class="cls-1" d="M76,19.25V.4h6.27A26.57,26.57,0,0,1,85,.54a7.09,7.09,0,0,1,2.38.67A4.42,4.42,0,0,1,89,2.72a4.75,4.75,0,0,1,.66,2.67,3.94,3.94,0,0,1-.52,2.1,4.4,4.4,0,0,1-1.35,1.4,7.1,7.1,0,0,1-1.91.87,16.36,16.36,0,0,1-2.19.45c-.74.09-1.48.15-2.21.17l-1.93,0v8.84Zm6-9.67a3.82,3.82,0,0,0,1.68-.32,2.71,2.71,0,0,0,1.09-.87,3.49,3.49,0,0,0,.59-1.34,8.2,8.2,0,0,0,.17-1.69,5.73,5.73,0,0,0-.19-1.51,3.6,3.6,0,0,0-.58-1.27,2.91,2.91,0,0,0-1-.89,3.08,3.08,0,0,0-1.5-.34H80a1.18,1.18,0,0,0-.32.43,1.69,1.69,0,0,0,0,.53V9.58Z"/><path class="cls-1" d="M92.41,19.25V9.08a3.09,3.09,0,0,0-.11-.93A.93.93,0,0,0,92,7.67a1.15,1.15,0,0,0-.53-.2l-.74-.09V7L96,6.58V19.25ZM93.87,4.62a2.26,2.26,0,0,1-2.31-2.31,2.34,2.34,0,0,1,4-1.65,2.29,2.29,0,0,1,.65,1.65A2.3,2.3,0,0,1,95.53,4,2.25,2.25,0,0,1,93.87,4.62Z"/><path class="cls-1" d="M107.65,12.11a12,12,0,0,0,0-1.9,6.7,6.7,0,0,0-.34-1.62,2.71,2.71,0,0,0-.69-1.13A1.5,1.5,0,0,0,105.55,7a2.83,2.83,0,0,0-1.59.44,3.64,3.64,0,0,0-1.09,1.12,5,5,0,0,0-.63,1.5,6.92,6.92,0,0,0-.2,1.59,6.12,6.12,0,0,0,.38,2.06,6.39,6.39,0,0,0,1.06,1.91,5.79,5.79,0,0,0,1.66,1.41,4.39,4.39,0,0,0,2.19.54,7.14,7.14,0,0,0,2-.28,2.91,2.91,0,0,0,1.59-1.1l.21.16a4.92,4.92,0,0,1-1,1.3,7.74,7.74,0,0,1-1.42,1,7.34,7.34,0,0,1-1.61.62,6.89,6.89,0,0,1-4.24-.28,6.87,6.87,0,0,1-2.13-1.34,6.45,6.45,0,0,1-1.46-2,5.67,5.67,0,0,1-.55-2.49,7.69,7.69,0,0,1,.52-2.85,6.42,6.42,0,0,1,1.44-2.2,6.27,6.27,0,0,1,2.17-1.41,7.47,7.47,0,0,1,2.75-.49,6.4,6.4,0,0,1,3.7.91,4.78,4.78,0,0,1,1.82,2.38Z"/><path class="cls-1" d="M113.33,19.25V2.79a2.38,2.38,0,0,0-.1-.81.67.67,0,0,0-.29-.41,1.22,1.22,0,0,0-.53-.18l-.78-.09V.93L116.91.4V12.8q1.07-1.34,1.74-2.25c.45-.61.81-1.13,1.06-1.55a6.13,6.13,0,0,0,.52-1,1.32,1.32,0,0,0,.08-.65.78.78,0,0,0-.25-.44l-.47-.39h7.49l-9.64,6.19c.62,0,1.24-.09,1.87-.16a16.82,16.82,0,0,1,1.85-.11,7.32,7.32,0,0,1,1.94.26,3.8,3.8,0,0,1,1.69,1,5.92,5.92,0,0,1,1.33,2.07,14.17,14.17,0,0,1,.85,3.52h-4.56a7.57,7.57,0,0,0-.27-2.67,4.05,4.05,0,0,0-1.06-1.73,5.54,5.54,0,0,0-1.78-1.1c-.71-.28-1.5-.56-2.39-.82v6.34Z"/><path class="cls-1" d="M133.42,15.88a5.52,5.52,0,0,0,1.53.95,4.54,4.54,0,0,0,1.74.35,3.57,3.57,0,0,0,2.23-.68,4.73,4.73,0,0,0,1.41-1.93l.21.16a7.06,7.06,0,0,1-1.94,3.44A5.09,5.09,0,0,1,135,19.43a7.19,7.19,0,0,1-2.15-.33,6.84,6.84,0,0,1-3.51-2.47,5.68,5.68,0,0,1-1-2,8.18,8.18,0,0,1-.27-3.41,6.09,6.09,0,0,1,1-2.6A5.45,5.45,0,0,1,131,7a5.9,5.9,0,0,1,2.42-.68H134a6.41,6.41,0,0,1,2.43.41,5.07,5.07,0,0,1,1.73,1.12,5.23,5.23,0,0,1,1.13,1.68,7.52,7.52,0,0,1,.57,2.07Zm-.47-.43a8,8,0,0,0,2.22-2,5.06,5.06,0,0,0,1-2.12,4.54,4.54,0,0,0,0-1.56,4,4,0,0,0-.52-1.35,3.36,3.36,0,0,0-.9-1,2,2,0,0,0-1.17-.37h-.13a3.13,3.13,0,0,0-1.21.3,2.29,2.29,0,0,0-.94.89,3.49,3.49,0,0,0-.43,1.61,8.28,8.28,0,0,0,.35,2.48,6.16,6.16,0,0,0,.67,1.65A6.76,6.76,0,0,0,133,15.45Z"/><path class="cls-1" d="M152.19,18.24a2.5,2.5,0,0,0-1.19-.32,3.48,3.48,0,0,0-1.89.74,5.81,5.81,0,0,1-1.19.61,3.69,3.69,0,0,1-1.3.24,4.32,4.32,0,0,1-2.23-.56,5.36,5.36,0,0,1-1.66-1.44,6.61,6.61,0,0,1-1-2,7.25,7.25,0,0,1-.36-2.25,7.79,7.79,0,0,1,.44-2.56A7.16,7.16,0,0,1,143,8.44,6.55,6.55,0,0,1,145,6.85a5.28,5.28,0,0,1,2.55-.61,5.5,5.5,0,0,1,1.57.24,4.58,4.58,0,0,1,1.4.69V2.47a2.66,2.66,0,0,0-.09-.8.73.73,0,0,0-.31-.4,1.44,1.44,0,0,0-.53-.17L148.79,1V.64l5.29-.53V19.25Zm-1.7-10.46a2.46,2.46,0,0,0-.94-.44,4.57,4.57,0,0,0-1.05-.12,2.74,2.74,0,0,0-1.7.53,4.09,4.09,0,0,0-1.11,1.33,5.89,5.89,0,0,0-.61,1.74,8.67,8.67,0,0,0-.19,1.76,9.75,9.75,0,0,0,.17,1.68,7.3,7.3,0,0,0,.56,1.75,4,4,0,0,0,1,1.37,2.42,2.42,0,0,0,1.6.54,2.22,2.22,0,0,0,1.22-.39,4.48,4.48,0,0,0,1-.81Z"/><path class="cls-1" d="M9.09,36.79,4.26,24H5.84l3.42,9.19c.08.2.16.42.24.68l.27.75c.08.24.16.46.22.66h.13c.06-.19.14-.4.23-.64s.17-.5.26-.75.17-.48.24-.68L14.23,24h1.55L10.92,36.79Z"/><path class="cls-1" d="M17.27,25V23.29h1.35V25Zm0,11.84V27h1.35v9.82Z"/><path class="cls-1" d="M21.25,36.79V27h1.07l.13,1.55h.13a3.38,3.38,0,0,1,2.06-1.61,5,5,0,0,1,1.3-.17,4.08,4.08,0,0,1,1.63.31,2.32,2.32,0,0,1,1.1,1,3.86,3.86,0,0,1,.39,1.89v6.85H27.71V30.07A2.94,2.94,0,0,0,27.55,29a1.57,1.57,0,0,0-.47-.64,1.68,1.68,0,0,0-.7-.33,4.06,4.06,0,0,0-.89-.09A2.86,2.86,0,0,0,23,29.34,3.05,3.05,0,0,0,22.6,31v5.81Z"/><path class="cls-1" d="M33.75,37a2,2,0,0,1-1.08-.25,1.32,1.32,0,0,1-.56-.67,2.87,2.87,0,0,1-.16-.95v-7H30.63V27H32l.27-2.73H33.3V27h1.89v1.14H33.3v6.78a1.56,1.56,0,0,0,.14.74.66.66,0,0,0,.62.25h1.13v.85l-.44.15a4.34,4.34,0,0,1-.52.09Z"/><path class="cls-1" d="M39.42,37a4.79,4.79,0,0,1-1.13-.14,3.15,3.15,0,0,1-1-.45,2.18,2.18,0,0,1-.7-.83,2.8,2.8,0,0,1-.27-1.29,2.64,2.64,0,0,1,.5-1.66,3.19,3.19,0,0,1,1.39-1,7.68,7.68,0,0,1,2.12-.5A24.42,24.42,0,0,1,43,31V29.77a2.26,2.26,0,0,0-.21-1A1.47,1.47,0,0,0,42,28.1a3.75,3.75,0,0,0-1.5-.24,3.52,3.52,0,0,0-1.48.25,1.61,1.61,0,0,0-.76.62,1.76,1.76,0,0,0-.21.85v.3H36.79a1.11,1.11,0,0,1,0-.19v-.22a2.32,2.32,0,0,1,.49-1.53,2.87,2.87,0,0,1,1.38-.9,6.48,6.48,0,0,1,2.06-.3,5,5,0,0,1,2,.35,2.79,2.79,0,0,1,1.24,1,2.7,2.7,0,0,1,.43,1.53v5.64a.68.68,0,0,0,.14.5.52.52,0,0,0,.38.14h.78v.85a3.58,3.58,0,0,1-.58.19,2.75,2.75,0,0,1-.65.08,1.28,1.28,0,0,1-.77-.21,1.07,1.07,0,0,1-.41-.58,3,3,0,0,1-.16-.82h-.13a3.29,3.29,0,0,1-.91.87,4.7,4.7,0,0,1-1.2.56A5,5,0,0,1,39.42,37Zm.29-1.14a3.47,3.47,0,0,0,1.19-.21A4,4,0,0,0,42,35.1a2.85,2.85,0,0,0,.75-.87A2.13,2.13,0,0,0,43,33.11v-1a19.32,19.32,0,0,0-2.9.19,3.75,3.75,0,0,0-1.76.65,1.59,1.59,0,0,0-.59,1.31,1.62,1.62,0,0,0,.26.93,1.4,1.4,0,0,0,.7.53A2.89,2.89,0,0,0,39.71,35.88Z"/><path class="cls-1" d="M48.73,40.19a2.79,2.79,0,0,1-1.32-.31,2.29,2.29,0,0,1-1-.86,2.26,2.26,0,0,1-.36-1.28,2.29,2.29,0,0,1,.44-1.4,2.69,2.69,0,0,1,1.11-.86,1.54,1.54,0,0,1-.74-.61,1.63,1.63,0,0,1-.27-.9,1.48,1.48,0,0,1,.47-1.09,2.26,2.26,0,0,1,1.14-.61,3,3,0,0,1-1-1,2.75,2.75,0,0,1-.36-1.37,3,3,0,0,1,.43-1.61,2.84,2.84,0,0,1,1.29-1.11,5.34,5.34,0,0,1,2.18-.4,6,6,0,0,1,1.15.1,4,4,0,0,1,1,.28,2.29,2.29,0,0,0,1-.7,2.48,2.48,0,0,0,.46-1h1.35a2.44,2.44,0,0,1-.26,1,2.52,2.52,0,0,1-.67.82,2.22,2.22,0,0,1-1,.43,2.78,2.78,0,0,1,.71,1,3.15,3.15,0,0,1,.22,1.19,3,3,0,0,1-.42,1.58A2.84,2.84,0,0,1,53,32.55a4.88,4.88,0,0,1-2.17.41H49.29a1.69,1.69,0,0,0-.92.22.85.85,0,0,0,0,1.39,1.69,1.69,0,0,0,.93.24h3.85a2.32,2.32,0,0,1,1.77.73,2.61,2.61,0,0,1,.68,1.83,2.64,2.64,0,0,1-.4,1.43,2.77,2.77,0,0,1-1.07,1,3.26,3.26,0,0,1-1.6.37ZM49,39.13h3.5a1.81,1.81,0,0,0,.87-.21,1.65,1.65,0,0,0,.63-.57,1.36,1.36,0,0,0,.23-.77,1.53,1.53,0,0,0-.41-1.14,1.33,1.33,0,0,0-1-.43H49a1.53,1.53,0,0,0-1.1.45,1.52,1.52,0,0,0-.46,1.12,1.48,1.48,0,0,0,.45,1.13A1.6,1.6,0,0,0,49,39.13ZM50.8,31.9a2.91,2.91,0,0,0,1.93-.55,2.09,2.09,0,0,0,0-3,3.63,3.63,0,0,0-3.84,0,1.9,1.9,0,0,0-.63,1.5,2,2,0,0,0,.28,1.05,1.92,1.92,0,0,0,.85.73A3.45,3.45,0,0,0,50.8,31.9Z"/><path class="cls-1" d="M60.92,37a4.72,4.72,0,0,1-2.37-.56,3.48,3.48,0,0,1-1.48-1.69,7.28,7.28,0,0,1-.5-2.89,7.26,7.26,0,0,1,.5-2.9,3.51,3.51,0,0,1,1.5-1.69A5.08,5.08,0,0,1,61,26.74a4.46,4.46,0,0,1,2.29.54,3.51,3.51,0,0,1,1.4,1.57,6,6,0,0,1,.48,2.53v.85H58a5.27,5.27,0,0,0,.36,2.11,2.31,2.31,0,0,0,1,1.19,3.4,3.4,0,0,0,1.64.36,3.9,3.9,0,0,0,1.24-.18,2.54,2.54,0,0,0,.88-.52,2.21,2.21,0,0,0,.53-.77,2.49,2.49,0,0,0,.19-.93h1.3a3.52,3.52,0,0,1-.27,1.37A3.37,3.37,0,0,1,64.07,36a3.59,3.59,0,0,1-1.3.75A5.67,5.67,0,0,1,60.92,37Zm-3-5.85H63.8a4.69,4.69,0,0,0-.22-1.56,2.62,2.62,0,0,0-.59-1,2.12,2.12,0,0,0-.88-.55A3.8,3.8,0,0,0,61,27.88a3.34,3.34,0,0,0-1.57.35,2.27,2.27,0,0,0-1,1.07A5.22,5.22,0,0,0,58,31.17Z"/><path class="cls-1" d="M77,37a7,7,0,0,1-3.31-.73,4.71,4.71,0,0,1-2.06-2.21,8.69,8.69,0,0,1-.7-3.7,6.88,6.88,0,0,1,1.61-5A6,6,0,0,1,77,23.75a7.35,7.35,0,0,1,2.92.54,4.39,4.39,0,0,1,2,1.58,4.67,4.67,0,0,1,.72,2.68H81.17a3.53,3.53,0,0,0-.51-2,3,3,0,0,0-1.43-1.16A5.64,5.64,0,0,0,77,25a5.1,5.1,0,0,0-2.41.55A3.68,3.68,0,0,0,73,27.26a6.87,6.87,0,0,0-.56,3v.4A6.65,6.65,0,0,0,73,33.58a3.61,3.61,0,0,0,1.59,1.64,5.25,5.25,0,0,0,2.43.53,5.72,5.72,0,0,0,2.22-.39A3,3,0,0,0,80.7,34.2a3.53,3.53,0,0,0,.5-2h1.46a4.65,4.65,0,0,1-.74,2.7,4.36,4.36,0,0,1-2,1.58A7.8,7.8,0,0,1,77,37Z"/><path class="cls-1" d="M87.35,37a4.81,4.81,0,0,1-1.14-.14,3.15,3.15,0,0,1-1-.45,2.27,2.27,0,0,1-.7-.83,2.8,2.8,0,0,1-.26-1.29,2.64,2.64,0,0,1,.49-1.66,3.24,3.24,0,0,1,1.39-1,7.77,7.77,0,0,1,2.12-.5A24.61,24.61,0,0,1,90.92,31V29.77a2.26,2.26,0,0,0-.22-1A1.4,1.4,0,0,0,90,28.1a3.72,3.72,0,0,0-1.5-.24,3.55,3.55,0,0,0-1.48.25,1.53,1.53,0,0,0-.75.62,1.66,1.66,0,0,0-.22.85v.3H84.71a1.15,1.15,0,0,1,0-.19v-.22a2.37,2.37,0,0,1,.48-1.53,2.92,2.92,0,0,1,1.38-.9,6.52,6.52,0,0,1,2.06-.3,5,5,0,0,1,2,.35,2.82,2.82,0,0,1,1.23,1,2.62,2.62,0,0,1,.43,1.53v5.64a.73.73,0,0,0,.14.5.52.52,0,0,0,.38.14h.79v.85a4.06,4.06,0,0,1-.59.19,2.75,2.75,0,0,1-.65.08,1.28,1.28,0,0,1-.77-.21,1.12,1.12,0,0,1-.41-.58,3.41,3.41,0,0,1-.16-.82h-.13a3.29,3.29,0,0,1-.91.87,4.55,4.55,0,0,1-1.2.56A4.88,4.88,0,0,1,87.35,37Zm.28-1.14a3.43,3.43,0,0,0,1.19-.21,3.8,3.8,0,0,0,1.05-.57,3,3,0,0,0,.76-.87,2.22,2.22,0,0,0,.29-1.12v-1a19.47,19.47,0,0,0-2.91.19,3.8,3.8,0,0,0-1.76.65,1.58,1.58,0,0,0-.58,1.31,1.61,1.61,0,0,0,.25.93,1.44,1.44,0,0,0,.7.53A2.89,2.89,0,0,0,87.63,35.88Z"/><path class="cls-1" d="M95,36.79V27H96l.13,1.55h.13a4.21,4.21,0,0,1,.9-1.06,3.16,3.16,0,0,1,1.06-.55,4.53,4.53,0,0,1,1.24-.17,3.5,3.5,0,0,1,1.7.4,2.28,2.28,0,0,1,1,1.38h.11a3.67,3.67,0,0,1,.88-1,3.32,3.32,0,0,1,1.07-.56,4.23,4.23,0,0,1,1.24-.18,3.76,3.76,0,0,1,1.55.3,2.25,2.25,0,0,1,1.06,1,3.92,3.92,0,0,1,.38,1.87v6.89h-1.35V30.05A3.22,3.22,0,0,0,107,29a1.55,1.55,0,0,0-.44-.64,1.69,1.69,0,0,0-.66-.32,3.38,3.38,0,0,0-.8-.09,2.57,2.57,0,0,0-1.32.36,2.91,2.91,0,0,0-1,1A3.34,3.34,0,0,0,102.4,31v5.81h-1.34V30.05a3.22,3.22,0,0,0-.15-1.06,1.45,1.45,0,0,0-.43-.64,1.65,1.65,0,0,0-.65-.32,3.19,3.19,0,0,0-.77-.09,2.64,2.64,0,0,0-1.34.36,2.91,2.91,0,0,0-1,1A3.24,3.24,0,0,0,96.31,31v5.81Z"/><path class="cls-1" d="M114.8,37a4.72,4.72,0,0,1-2.37-.56A3.48,3.48,0,0,1,111,34.77a7.28,7.28,0,0,1-.5-2.89A7.26,7.26,0,0,1,111,29a3.51,3.51,0,0,1,1.5-1.69,5.08,5.08,0,0,1,2.46-.55,4.46,4.46,0,0,1,2.29.54,3.45,3.45,0,0,1,1.4,1.57,6,6,0,0,1,.48,2.53v.85h-7.23a5.27,5.27,0,0,0,.36,2.11,2.31,2.31,0,0,0,1,1.19,3.43,3.43,0,0,0,1.64.36,3.86,3.86,0,0,0,1.24-.18,2.45,2.45,0,0,0,.88-.52,2.08,2.08,0,0,0,.53-.77,2.49,2.49,0,0,0,.19-.93H119a3.52,3.52,0,0,1-.27,1.37A3.37,3.37,0,0,1,118,36a3.59,3.59,0,0,1-1.3.75A5.67,5.67,0,0,1,114.8,37Zm-3-5.85h5.83a4.69,4.69,0,0,0-.22-1.56,2.74,2.74,0,0,0-.58-1,2.22,2.22,0,0,0-.89-.55,3.75,3.75,0,0,0-1.15-.17,3.34,3.34,0,0,0-1.57.35,2.27,2.27,0,0,0-1,1.07A5.22,5.22,0,0,0,111.85,31.17Z"/><path class="cls-1" d="M121.11,36.79V27h1.09l.11,1.64h.13a4,4,0,0,1,.39-.88,2.29,2.29,0,0,1,.71-.71,2.19,2.19,0,0,1,1.14-.28,2.46,2.46,0,0,1,.49.05l.33.08v1.24h-.58a2.44,2.44,0,0,0-1.12.23A2.11,2.11,0,0,0,123,29a3,3,0,0,0-.44,1,4.83,4.83,0,0,0-.14,1.15v5.66Z"/><path class="cls-1" d="M129.29,37a4.94,4.94,0,0,1-1.14-.14,3.2,3.2,0,0,1-1-.45,2.18,2.18,0,0,1-.7-.83,2.8,2.8,0,0,1-.27-1.29,2.64,2.64,0,0,1,.5-1.66,3.19,3.19,0,0,1,1.39-1,7.68,7.68,0,0,1,2.12-.5,24.42,24.42,0,0,1,2.66-.13V29.77a2.26,2.26,0,0,0-.21-1,1.47,1.47,0,0,0-.75-.65,3.78,3.78,0,0,0-1.5-.24,3.52,3.52,0,0,0-1.48.25,1.61,1.61,0,0,0-.76.62,1.76,1.76,0,0,0-.21.85v.3h-1.29a1.11,1.11,0,0,1,0-.19v-.22a2.32,2.32,0,0,1,.49-1.53,2.87,2.87,0,0,1,1.38-.9,6.46,6.46,0,0,1,2.05-.3,5,5,0,0,1,2,.35,2.79,2.79,0,0,1,1.24,1,2.7,2.7,0,0,1,.43,1.53v5.64a.68.68,0,0,0,.14.5.52.52,0,0,0,.38.14h.78v.85a3.4,3.4,0,0,1-.59.19,2.67,2.67,0,0,1-.64.08,1.28,1.28,0,0,1-.77-.21,1.14,1.14,0,0,1-.42-.58,3.41,3.41,0,0,1-.15-.82h-.13a3.29,3.29,0,0,1-.91.87,4.61,4.61,0,0,1-1.21.56A4.83,4.83,0,0,1,129.29,37Zm.28-1.14a3.48,3.48,0,0,0,1.2-.21,4,4,0,0,0,1-.57,2.85,2.85,0,0,0,.75-.87,2.22,2.22,0,0,0,.29-1.12v-1a19.32,19.32,0,0,0-2.9.19,3.75,3.75,0,0,0-1.76.65,1.59,1.59,0,0,0-.59,1.31,1.62,1.62,0,0,0,.26.93,1.4,1.4,0,0,0,.7.53A2.83,2.83,0,0,0,129.57,35.88Z"/><path class="cls-1" d="M140.18,37a6.83,6.83,0,0,1-1.72-.2,3.39,3.39,0,0,1-1.24-.58,2.54,2.54,0,0,1-.75-.92,3.11,3.11,0,0,1-.25-1.26v-.15a.78.78,0,0,1,0-.16h1.33a.47.47,0,0,0,0,.16V34a1.81,1.81,0,0,0,.35,1.13,2,2,0,0,0,1,.57,5.5,5.5,0,0,0,1.42.16,3.71,3.71,0,0,0,1.24-.19,2.1,2.1,0,0,0,.88-.57,1.39,1.39,0,0,0,.32-.92,1.27,1.27,0,0,0-.42-1,2.86,2.86,0,0,0-1.09-.55l-1.4-.42-1.18-.37a4.83,4.83,0,0,1-1-.49,2.33,2.33,0,0,1-.76-.77,2.2,2.2,0,0,1-.28-1.17,2.36,2.36,0,0,1,.25-1.11,2.4,2.4,0,0,1,.73-.83,3.5,3.5,0,0,1,1.17-.53,6.19,6.19,0,0,1,1.57-.19,5.41,5.41,0,0,1,1.66.23,3.22,3.22,0,0,1,1.12.6,2.41,2.41,0,0,1,.63.86,2.46,2.46,0,0,1,.21,1,1,1,0,0,1,0,.17,1,1,0,0,0,0,.17h-1.32v-.24a1.64,1.64,0,0,0-.2-.77,1.53,1.53,0,0,0-.69-.63,3.15,3.15,0,0,0-1.47-.27,4.19,4.19,0,0,0-1,.11,2.08,2.08,0,0,0-.71.29,1.23,1.23,0,0,0-.43.45,1.39,1.39,0,0,0-.14.63,1,1,0,0,0,.35.83,2.68,2.68,0,0,0,.91.47l1.19.38,1.3.39a7.09,7.09,0,0,1,1.22.51,2.47,2.47,0,0,1,.9.79,2.3,2.3,0,0,1,.33,1.3,2.84,2.84,0,0,1-.29,1.31,2.63,2.63,0,0,1-.83,1,3.81,3.81,0,0,1-1.24.56A6.41,6.41,0,0,1,140.18,37Z"/><path class="cls-1" d="M146.31,39.39v-.68a.87.87,0,0,0,.54-.34,1.72,1.72,0,0,0,.3-.67,4.19,4.19,0,0,0,.09-.91h-.71V35h1.57v1.55a3.79,3.79,0,0,1-.29,1.64,2,2,0,0,1-.71.83A2.47,2.47,0,0,1,146.31,39.39Z"/><path class="cls-1" d="M12.17,54.82V42h1.47V53.54H20v1.28Z"/><path class="cls-1" d="M25.28,55.05a4.77,4.77,0,0,1-2.37-.55,3.52,3.52,0,0,1-1.48-1.69,7.15,7.15,0,0,1-.5-2.9,7.09,7.09,0,0,1,.5-2.9,3.42,3.42,0,0,1,1.49-1.68,5,5,0,0,1,2.47-.55,4.49,4.49,0,0,1,2.29.54,3.46,3.46,0,0,1,1.4,1.57,5.91,5.91,0,0,1,.47,2.52v.86H22.33a5.31,5.31,0,0,0,.35,2.11,2.35,2.35,0,0,0,1,1.18,3.27,3.27,0,0,0,1.63.37,3.65,3.65,0,0,0,1.25-.19,2.47,2.47,0,0,0,.87-.51,2.37,2.37,0,0,0,.54-.78,2.48,2.48,0,0,0,.18-.93h1.31a3.52,3.52,0,0,1-.27,1.37A3.17,3.17,0,0,1,28.42,54a3.56,3.56,0,0,1-1.29.76A5.73,5.73,0,0,1,25.28,55.05Zm-3-5.85h5.82a5,5,0,0,0-.21-1.56,2.7,2.7,0,0,0-.59-1,2.27,2.27,0,0,0-.89-.55,3.72,3.72,0,0,0-1.15-.16,3.27,3.27,0,0,0-1.56.34,2.27,2.27,0,0,0-1,1.07A5.22,5.22,0,0,0,22.33,49.2Z"/><path class="cls-1" d="M31.59,54.82V45h1.06l.14,1.55h.13a3.6,3.6,0,0,1,.93-1.06A3.7,3.7,0,0,1,35,44.94a4.93,4.93,0,0,1,1.3-.16,4.12,4.12,0,0,1,1.63.3,2.3,2.3,0,0,1,1.09,1A3.74,3.74,0,0,1,39.4,48v6.85H38.05V48.1A2.64,2.64,0,0,0,37.88,47a1.5,1.5,0,0,0-.46-.65,2.06,2.06,0,0,0-.7-.33,4.13,4.13,0,0,0-.89-.09,2.8,2.8,0,0,0-1.41.37,2.88,2.88,0,0,0-1.08,1A3.15,3.15,0,0,0,32.93,49v5.8Z"/><path class="cls-1" d="M45.19,55.05a6.83,6.83,0,0,1-1.72-.2,3.32,3.32,0,0,1-1.24-.58,2.46,2.46,0,0,1-.75-.92,2.91,2.91,0,0,1-.25-1.25v-.16a.41.41,0,0,1,0-.16h1.32a1,1,0,0,0,0,.16v.12a1.62,1.62,0,0,0,1.31,1.7,5.47,5.47,0,0,0,1.42.17,3.71,3.71,0,0,0,1.24-.2,2,2,0,0,0,.88-.57,1.32,1.32,0,0,0,.33-.91,1.31,1.31,0,0,0-.42-1,2.91,2.91,0,0,0-1.1-.55l-1.4-.42q-.6-.16-1.17-.36a5.46,5.46,0,0,1-1.06-.5,2.24,2.24,0,0,1-.76-.77,2.52,2.52,0,0,1,0-2.27,2.4,2.4,0,0,1,.72-.84A3.71,3.71,0,0,1,43.69,45a6.27,6.27,0,0,1,1.57-.18,5.38,5.38,0,0,1,1.66.22,3,3,0,0,1,1.12.61,2.38,2.38,0,0,1,.84,1.86v.16a1.09,1.09,0,0,0,0,.17H47.54v-.24a1.67,1.67,0,0,0-.2-.77,1.53,1.53,0,0,0-.69-.63,3.15,3.15,0,0,0-1.46-.26,4.17,4.17,0,0,0-1,.1,2.2,2.2,0,0,0-.71.29,1.11,1.11,0,0,0-.43.46,1.26,1.26,0,0,0-.14.62,1,1,0,0,0,.34.83,2.6,2.6,0,0,0,.91.47l1.19.38,1.3.39a7.55,7.55,0,0,1,1.23.51,2.43,2.43,0,0,1,.89.79,2.24,2.24,0,0,1,.34,1.3,2.79,2.79,0,0,1-.3,1.32,2.65,2.65,0,0,1-.82.94,3.7,3.7,0,0,1-1.24.56A6,6,0,0,1,45.19,55.05Z"/><path class="cls-1" d="M55,55.05a4.83,4.83,0,0,1-2.37-.55,3.45,3.45,0,0,1-1.47-1.69,8.5,8.5,0,0,1,0-5.8,3.37,3.37,0,0,1,1.49-1.68,5,5,0,0,1,2.47-.55,4.45,4.45,0,0,1,2.28.54,3.35,3.35,0,0,1,1.4,1.57,5.9,5.9,0,0,1,.48,2.52v.86H52a5.3,5.3,0,0,0,.36,2.11,2.26,2.26,0,0,0,1,1.18,3.25,3.25,0,0,0,1.63.37,3.59,3.59,0,0,0,1.24-.19,2.43,2.43,0,0,0,.88-.51,2.21,2.21,0,0,0,.53-.78,2.31,2.31,0,0,0,.19-.93h1.31a3.52,3.52,0,0,1-.27,1.37A3.3,3.3,0,0,1,58.1,54a3.52,3.52,0,0,1-1.3.76A5.68,5.68,0,0,1,55,55.05ZM52,49.2h5.83a5,5,0,0,0-.21-1.56,2.84,2.84,0,0,0-.59-1,2.34,2.34,0,0,0-.89-.55A3.72,3.72,0,0,0,55,45.92a3.34,3.34,0,0,0-1.57.34,2.31,2.31,0,0,0-1,1.07A5.22,5.22,0,0,0,52,49.2Z"/><path class="cls-1" d="M64.54,55.05a6.77,6.77,0,0,1-1.72-.2,3.37,3.37,0,0,1-1.25-.58,2.44,2.44,0,0,1-.74-.92,2.91,2.91,0,0,1-.25-1.25v-.16a.81.81,0,0,1,0-.16h1.33a1,1,0,0,0,0,.16v.12a1.74,1.74,0,0,0,.36,1.13,1.78,1.78,0,0,0,1,.57,5.47,5.47,0,0,0,1.42.17,3.71,3.71,0,0,0,1.24-.2,2,2,0,0,0,.88-.57,1.46,1.46,0,0,0-.1-2,2.86,2.86,0,0,0-1.09-.55l-1.4-.42c-.4-.11-.79-.23-1.18-.36a5.65,5.65,0,0,1-1-.5,2.24,2.24,0,0,1-.76-.77,2.3,2.3,0,0,1-.28-1.17,2.44,2.44,0,0,1,.25-1.1,2.54,2.54,0,0,1,.73-.84A3.71,3.71,0,0,1,63,45a6.22,6.22,0,0,1,1.57-.18,5.38,5.38,0,0,1,1.66.22,3,3,0,0,1,1.12.61,2.39,2.39,0,0,1,.64.86,2.59,2.59,0,0,1,.2,1,.92.92,0,0,1,0,.16c0,.07,0,.12,0,.17H66.89v-.24a1.67,1.67,0,0,0-.2-.77,1.53,1.53,0,0,0-.69-.63,3.15,3.15,0,0,0-1.46-.26,4.17,4.17,0,0,0-1,.1,2.2,2.2,0,0,0-.71.29,1.11,1.11,0,0,0-.43.46,1.26,1.26,0,0,0-.14.62,1,1,0,0,0,.34.83,2.51,2.51,0,0,0,.91.47l1.19.38,1.3.39a7.09,7.09,0,0,1,1.22.51,2.39,2.39,0,0,1,.9.79,2.32,2.32,0,0,1,.34,1.3,2.79,2.79,0,0,1-.3,1.32,2.75,2.75,0,0,1-.82.94,3.67,3.67,0,0,1-1.25.56A5.88,5.88,0,0,1,64.54,55.05Z"/><path class="cls-1" d="M77,55.05a4.94,4.94,0,0,1-1.14-.14,3,3,0,0,1-1-.45,2.11,2.11,0,0,1-.7-.83,2.8,2.8,0,0,1-.27-1.29,2.63,2.63,0,0,1,.5-1.65,3.2,3.2,0,0,1,1.39-1,8.05,8.05,0,0,1,2.12-.5c.82-.08,1.7-.13,2.66-.13V47.8a2.26,2.26,0,0,0-.21-1,1.52,1.52,0,0,0-.75-.65,3.77,3.77,0,0,0-1.5-.23,3.71,3.71,0,0,0-1.48.24,1.61,1.61,0,0,0-.76.62,1.76,1.76,0,0,0-.21.85v.3H74.32a1.1,1.1,0,0,1,0-.18V47.5A2.32,2.32,0,0,1,74.79,46a2.87,2.87,0,0,1,1.38-.9,6.76,6.76,0,0,1,2-.29,5,5,0,0,1,2,.34,2.79,2.79,0,0,1,1.24,1,2.75,2.75,0,0,1,.43,1.53v5.64a.67.67,0,0,0,.14.5.52.52,0,0,0,.38.14h.78v.86a4.55,4.55,0,0,1-.59.18,2.61,2.61,0,0,1-.64.08,1.28,1.28,0,0,1-.77-.21,1.1,1.1,0,0,1-.42-.58,3.32,3.32,0,0,1-.15-.82h-.13a3.29,3.29,0,0,1-.91.87,4.61,4.61,0,0,1-1.21.56A4.83,4.83,0,0,1,77,55.05Zm.28-1.14a3.74,3.74,0,0,0,2.25-.78,2.93,2.93,0,0,0,.75-.86,2.26,2.26,0,0,0,.29-1.13v-1a19.48,19.48,0,0,0-2.9.18,3.86,3.86,0,0,0-1.76.66,1.75,1.75,0,0,0-.33,2.23,1.4,1.4,0,0,0,.7.53A2.83,2.83,0,0,0,77.23,53.91Z"/><path class="cls-1" d="M84.57,54.82V45h1.07l.13,1.55h.13a3.75,3.75,0,0,1,.93-1.06A3.82,3.82,0,0,1,88,44.94a5,5,0,0,1,1.3-.16,4.17,4.17,0,0,1,1.64.3,2.34,2.34,0,0,1,1.09,1A3.86,3.86,0,0,1,92.38,48v6.85H91V48.1A2.83,2.83,0,0,0,90.87,47a1.52,1.52,0,0,0-.47-.65,2,2,0,0,0-.7-.33,4.06,4.06,0,0,0-.89-.09,2.86,2.86,0,0,0-1.41.37,2.78,2.78,0,0,0-1.07,1A3.15,3.15,0,0,0,85.92,49v5.8Z"/><path class="cls-1" d="M98.23,55.05a4,4,0,0,1-2.1-.54,3.38,3.38,0,0,1-1.33-1.69,8.15,8.15,0,0,1-.46-3A7.44,7.44,0,0,1,94.81,47a3.47,3.47,0,0,1,1.33-1.65,3.8,3.8,0,0,1,2-.54,4.56,4.56,0,0,1,1.19.15,2.76,2.76,0,0,1,1,.47,3.18,3.18,0,0,1,.79.87h.11v-5h1.34v13.5h-1l-.15-1.43h-.13A3.41,3.41,0,0,1,100,54.64,3.84,3.84,0,0,1,98.23,55.05Zm.22-1.18a2.71,2.71,0,0,0,1.63-.45,2.53,2.53,0,0,0,.92-1.29,6.4,6.4,0,0,0,.29-2.05v-.34a6.7,6.7,0,0,0-.23-1.9,2.84,2.84,0,0,0-.64-1.16,2.26,2.26,0,0,0-.89-.57,3.31,3.31,0,0,0-1-.16,2.91,2.91,0,0,0-1.56.39,2.3,2.3,0,0,0-.93,1.2,6.36,6.36,0,0,0-.31,2.15v.46a5.73,5.73,0,0,0,.34,2.2A2.34,2.34,0,0,0,97,53.52,2.86,2.86,0,0,0,98.45,53.87Z"/><path class="cls-1" d="M109.66,54.82V42h9v1.27h-7.55v4.43H118V49h-6.87v5.84Z"/><path class="cls-1" d="M120.73,43V41.32h1.35V43Zm0,11.84V45h1.35v9.82Z"/><path class="cls-1" d="M124.71,54.82V41.32h1.34v13.5Z"/><path class="cls-1" d="M128.69,54.82V45h1.06l.13,1.55H130a4.21,4.21,0,0,1,.9-1.06,3.3,3.3,0,0,1,1.07-.55,4.41,4.41,0,0,1,1.23-.16,3.39,3.39,0,0,1,1.7.4,2.26,2.26,0,0,1,1,1.37H136a3.67,3.67,0,0,1,.88-1A3.32,3.32,0,0,1,138,45a4.22,4.22,0,0,1,1.24-.17,3.93,3.93,0,0,1,1.55.29,2.25,2.25,0,0,1,1.06,1,4,4,0,0,1,.38,1.87v6.89h-1.34V48.08a3.13,3.13,0,0,0-.16-1,1.59,1.59,0,0,0-.44-.65,1.84,1.84,0,0,0-.66-.32,3.32,3.32,0,0,0-.8-.09,2.49,2.49,0,0,0-1.32.37,2.8,2.8,0,0,0-1,1,3.35,3.35,0,0,0-.38,1.65v5.8h-1.34V48.08a3.15,3.15,0,0,0-.15-1,1.48,1.48,0,0,0-.43-.65,1.8,1.8,0,0,0-.65-.32,3.19,3.19,0,0,0-.77-.09,2.56,2.56,0,0,0-1.34.37,2.88,2.88,0,0,0-1,1A3.25,3.25,0,0,0,130,49v5.8Z"/><path class="cls-1" d="M36.51,72.86V60h9.81v1.27H38v4.34h7.5v1.29H38v4.65h8.44v1.27Z"/><path class="cls-1" d="M52.07,73.08a6.83,6.83,0,0,1-1.72-.2,3.47,3.47,0,0,1-1.24-.57,2.57,2.57,0,0,1-.75-.93,2.91,2.91,0,0,1-.25-1.25V70a.41.41,0,0,1,0-.16h1.32a1.15,1.15,0,0,0,0,.16v.12a1.85,1.85,0,0,0,.36,1.13,1.78,1.78,0,0,0,1,.57,5.53,5.53,0,0,0,1.42.17,3.66,3.66,0,0,0,1.24-.2,2,2,0,0,0,.88-.57,1.32,1.32,0,0,0,.33-.91,1.31,1.31,0,0,0-.42-1,3.07,3.07,0,0,0-1.1-.55l-1.4-.42c-.39-.11-.79-.23-1.17-.36a4.93,4.93,0,0,1-1.06-.5,2.27,2.27,0,0,1-.75-.76,2.24,2.24,0,0,1-.28-1.18,2.27,2.27,0,0,1,1-1.93A3.56,3.56,0,0,1,50.57,63a6.27,6.27,0,0,1,1.57-.18A5.38,5.38,0,0,1,53.8,63a3,3,0,0,1,1.13.61,2.48,2.48,0,0,1,.63.86,2.46,2.46,0,0,1,.21,1s0,.1,0,.17a.92.92,0,0,0,0,.16H54.42v-.24a1.59,1.59,0,0,0-.19-.76,1.63,1.63,0,0,0-.7-.64,3.29,3.29,0,0,0-1.46-.26,4.17,4.17,0,0,0-1,.1,2.45,2.45,0,0,0-.71.29,1.25,1.25,0,0,0-.43.46,1.38,1.38,0,0,0-.14.62,1,1,0,0,0,.34.83,2.69,2.69,0,0,0,.91.47l1.2.38,1.29.4a6.46,6.46,0,0,1,1.23.5,2.53,2.53,0,0,1,.89.79,2.24,2.24,0,0,1,.34,1.3,2.79,2.79,0,0,1-.3,1.32,2.65,2.65,0,0,1-.82.94,3.62,3.62,0,0,1-1.24.56A6,6,0,0,1,52.07,73.08Z"/><path class="cls-1" d="M61.31,73.08a6.89,6.89,0,0,1-1.72-.2,3.55,3.55,0,0,1-1.24-.57,2.45,2.45,0,0,1-.74-.93,2.91,2.91,0,0,1-.26-1.25V70a.78.78,0,0,1,0-.16H58.7a1.15,1.15,0,0,0,0,.16v.12A1.79,1.79,0,0,0,59,71.22a1.85,1.85,0,0,0,1,.57,5.47,5.47,0,0,0,1.42.17,3.71,3.71,0,0,0,1.24-.2,2,2,0,0,0,.88-.57,1.37,1.37,0,0,0,.32-.91,1.31,1.31,0,0,0-.42-1,3,3,0,0,0-1.09-.55l-1.4-.42c-.4-.11-.79-.23-1.18-.36a5.08,5.08,0,0,1-1-.5,2.3,2.3,0,0,1-.76-.76,2.24,2.24,0,0,1-.28-1.18,2.27,2.27,0,0,1,1-1.93A3.72,3.72,0,0,1,59.82,63a6.22,6.22,0,0,1,1.57-.18,5.38,5.38,0,0,1,1.66.22,3.07,3.07,0,0,1,1.12.61,2.39,2.39,0,0,1,.64.86,2.62,2.62,0,0,1,.2,1,1.09,1.09,0,0,1,0,.17c0,.06,0,.11,0,.16H63.67v-.24a1.6,1.6,0,0,0-.2-.76,1.55,1.55,0,0,0-.69-.64,3.3,3.3,0,0,0-1.47-.26,4.22,4.22,0,0,0-1,.1,2.57,2.57,0,0,0-.71.29,1.34,1.34,0,0,0-.43.46,1.38,1.38,0,0,0-.14.62,1,1,0,0,0,.35.83,2.51,2.51,0,0,0,.91.47l1.19.38,1.3.4A6.36,6.36,0,0,1,64,68a2.56,2.56,0,0,1,.9.79,2.32,2.32,0,0,1,.34,1.3,2.79,2.79,0,0,1-.3,1.32,2.68,2.68,0,0,1-.83.94,3.53,3.53,0,0,1-1.24.56A6,6,0,0,1,61.31,73.08Z"/><path class="cls-1" d="M71.08,73.08a4.72,4.72,0,0,1-2.37-.55,3.52,3.52,0,0,1-1.48-1.69,8.66,8.66,0,0,1,0-5.8,3.53,3.53,0,0,1,1.5-1.68,5,5,0,0,1,2.46-.55,4.46,4.46,0,0,1,2.29.54,3.41,3.41,0,0,1,1.4,1.57,5.9,5.9,0,0,1,.48,2.52v.86H68.13a5.3,5.3,0,0,0,.36,2.11,2.35,2.35,0,0,0,1,1.19,3.4,3.4,0,0,0,1.64.36,3.63,3.63,0,0,0,1.24-.19,2.37,2.37,0,0,0,.88-.51,2.21,2.21,0,0,0,.53-.78,2.45,2.45,0,0,0,.19-.93h1.3A3.49,3.49,0,0,1,75,70.92a3.27,3.27,0,0,1-.78,1.13,3.47,3.47,0,0,1-1.3.76A5.68,5.68,0,0,1,71.08,73.08Zm-3-5.85H74a4.69,4.69,0,0,0-.22-1.56,2.58,2.58,0,0,0-.59-1,2,2,0,0,0-.88-.55A3.51,3.51,0,0,0,71.12,64a3.34,3.34,0,0,0-1.57.34,2.24,2.24,0,0,0-1,1.08A5.16,5.16,0,0,0,68.13,67.23Z"/><path class="cls-1" d="M77.39,72.86V63h1.07l.13,1.55h.13a3.43,3.43,0,0,1,.93-1A3.39,3.39,0,0,1,80.78,63a4.59,4.59,0,0,1,1.3-.17,3.92,3.92,0,0,1,1.63.31,2.22,2.22,0,0,1,1.1,1A3.84,3.84,0,0,1,85.2,66v6.86H83.86V66.13a2.87,2.87,0,0,0-.17-1.06,1.52,1.52,0,0,0-.47-.65,1.8,1.8,0,0,0-.7-.32,3.51,3.51,0,0,0-.89-.1,2.92,2.92,0,0,0-2.48,1.4,3.15,3.15,0,0,0-.41,1.65v5.81Z"/><path class="cls-1" d="M89.89,73.06a2.11,2.11,0,0,1-1.08-.24,1.36,1.36,0,0,1-.56-.67,2.93,2.93,0,0,1-.16-1v-7H86.77V63h1.32l.27-2.72h1.08V63h1.89v1.14H89.44V71a1.58,1.58,0,0,0,.14.75q.14.24.63.24h1.12v.86a3.27,3.27,0,0,1-.44.14,4.34,4.34,0,0,1-.52.09Z"/><path class="cls-1" d="M93.12,61V59.35h1.34V61Zm0,11.84V63h1.34v9.83Z"/><path class="cls-1" d="M99.54,73.08a4.94,4.94,0,0,1-1.14-.14,2.8,2.8,0,0,1-1-.45,2,2,0,0,1-.7-.83,2.8,2.8,0,0,1-.27-1.29,2.63,2.63,0,0,1,.5-1.65,3.2,3.2,0,0,1,1.39-1,7.69,7.69,0,0,1,2.12-.49,24.31,24.31,0,0,1,2.66-.14V65.83a2.25,2.25,0,0,0-.21-1,1.53,1.53,0,0,0-.75-.66,4,4,0,0,0-1.5-.23,3.71,3.71,0,0,0-1.48.24,1.57,1.57,0,0,0-.76.63,1.73,1.73,0,0,0-.21.85V66H96.91a1.37,1.37,0,0,1,0-.19v-.23A2.32,2.32,0,0,1,97.38,64a2.86,2.86,0,0,1,1.38-.89,6.46,6.46,0,0,1,2-.3,5,5,0,0,1,2,.34,2.79,2.79,0,0,1,1.24,1,2.76,2.76,0,0,1,.43,1.54v5.64a.65.65,0,0,0,.14.49.52.52,0,0,0,.38.14h.78v.86a4.54,4.54,0,0,1-.59.19,2.67,2.67,0,0,1-.64.07,1.35,1.35,0,0,1-.77-.2,1.14,1.14,0,0,1-.42-.58,3.51,3.51,0,0,1-.15-.82h-.13a3.41,3.41,0,0,1-.91.86,4.31,4.31,0,0,1-1.21.56A4.83,4.83,0,0,1,99.54,73.08Zm.28-1.14a3.73,3.73,0,0,0,1.2-.2,4,4,0,0,0,1-.57,3.1,3.1,0,0,0,.75-.87,2.25,2.25,0,0,0,.29-1.12v-1a19.48,19.48,0,0,0-2.9.18,3.86,3.86,0,0,0-1.76.66,1.59,1.59,0,0,0-.59,1.31,1.56,1.56,0,0,0,.26.92,1.4,1.4,0,0,0,.7.53A2.83,2.83,0,0,0,99.82,71.94Z"/><path class="cls-1" d="M107.16,72.86V59.35h1.35V72.86Z"/><path class="cls-1" d="M114.41,73.08a6.83,6.83,0,0,1-1.72-.2,3.47,3.47,0,0,1-1.24-.57,2.57,2.57,0,0,1-.75-.93,3.06,3.06,0,0,1-.25-1.25V70a.78.78,0,0,1,0-.16h1.33a.5.5,0,0,0,0,.16v.12a1.79,1.79,0,0,0,.35,1.13,1.82,1.82,0,0,0,1,.57,5.58,5.58,0,0,0,1.42.17,3.77,3.77,0,0,0,1.25-.2,2,2,0,0,0,.87-.57,1.32,1.32,0,0,0,.33-.91,1.31,1.31,0,0,0-.42-1,3,3,0,0,0-1.09-.55l-1.4-.42c-.4-.11-.79-.23-1.18-.36a4.63,4.63,0,0,1-1-.5,2.3,2.3,0,0,1-.76-.76,2.24,2.24,0,0,1-.28-1.18,2.27,2.27,0,0,1,1-1.93,3.72,3.72,0,0,1,1.17-.54,6.22,6.22,0,0,1,1.57-.18,5.43,5.43,0,0,1,1.66.22,3.07,3.07,0,0,1,1.12.61,2.36,2.36,0,0,1,.63.86,2.46,2.46,0,0,1,.21,1,1.09,1.09,0,0,1,0,.17.92.92,0,0,0,0,.16h-1.33v-.24a1.59,1.59,0,0,0-.19-.76,1.55,1.55,0,0,0-.69-.64,3.3,3.3,0,0,0-1.47-.26,4.17,4.17,0,0,0-1,.1,2.45,2.45,0,0,0-.71.29,1.34,1.34,0,0,0-.43.46,1.38,1.38,0,0,0-.14.62,1,1,0,0,0,.35.83,2.55,2.55,0,0,0,.9.47l1.2.38,1.3.4a6.36,6.36,0,0,1,1.22.5,2.65,2.65,0,0,1,.9.79,2.32,2.32,0,0,1,.33,1.3,2.79,2.79,0,0,1-.3,1.32,2.65,2.65,0,0,1-.82.94,3.62,3.62,0,0,1-1.24.56A6,6,0,0,1,114.41,73.08Z"/></g></g></svg>