<?xml version="1.0" encoding="UTF-8"?><svg id="Layer_2" xmlns="http://www.w3.org/2000/svg" viewBox="0 0 225.55 17.01"><defs><style>.cls-1{fill:#fff;}</style></defs><g id="Layer_1-2"><path class="cls-1" d="M4.32,16.77L0,.25h3.21l2.15,9.62.74,4.66.96-4.49L9.64.25h3.6l2.54,9.79.94,4.49.76-4.66L19.68.25h3.16l-4.36,16.52h-3.5l-2.59-9.79-.96-4.61-.96,4.61-2.64,9.79h-3.5Z"/><path class="cls-1" d="M24.53,16.77V.25h2.76v7.79c.44-1.9,1.68-3.53,4.07-3.53s3.77,1.41,3.77,3.9v8.36h-2.79v-7.52c0-1.48-.49-2.49-2.34-2.49-2.02,0-2.71,1.31-2.71,3.28v6.73h-2.76Z"/><path class="cls-1" d="M37.16,10.78c0-3.75,2.37-6.26,5.82-6.26s5.87,2.51,5.87,6.26-2.37,6.24-5.87,6.24-5.82-2.52-5.82-6.24ZM46.03,10.78c0-2.79-1.23-3.97-3.03-3.97s-3.01,1.18-3.01,3.97,1.23,3.95,3.01,3.95,3.03-1.18,3.03-3.95Z"/><path class="cls-1" d="M51.26,16.77V.25h2.76v16.52h-2.76Z"/><path class="cls-1" d="M56.34,10.78c0-3.77,2.34-6.26,5.72-6.26,3.6,0,5.6,2.39,5.6,5.72,0,.44-.05.96-.1,1.21h-8.58c.15,2.15,1.41,3.3,3.3,3.3,2.1,0,3.03-1.08,3.48-2.1l1.7,1.78c-.91,1.38-2.54,2.59-5.2,2.59-3.58,0-5.92-2.49-5.92-6.24ZM59,9.67h6.16c-.2-1.9-1.28-2.93-3.11-2.93-1.7,0-2.84.99-3.06,2.93Z"/><path class="cls-1" d="M75.42,16.77V.25h2.79v14.06h8.46v2.47h-11.24Z"/><path class="cls-1" d="M88.64,3.06V.25h2.76v2.81h-2.76ZM88.64,16.77V4.76h2.76v12.01h-2.76Z"/><path class="cls-1" d="M95.22,16.77V6.9h-1.85v-2.15h1.85v-.74c0-2.49,1.53-4.02,4.07-4.02,1.75,0,2.91.86,3.4,1.5l-1.21,1.97c-.44-.71-1.16-1.26-2.07-1.26-1.01,0-1.43.54-1.43,1.53v1.01h3.5v2.15h-3.5v9.86h-2.76Z"/><path class="cls-1" d="M102.22,10.78c0-3.77,2.34-6.26,5.72-6.26,3.6,0,5.6,2.39,5.6,5.72,0,.44-.05.96-.1,1.21h-8.58c.15,2.15,1.41,3.3,3.3,3.3,2.1,0,3.03-1.08,3.48-2.1l1.7,1.78c-.91,1.38-2.54,2.59-5.2,2.59-3.58,0-5.92-2.49-5.92-6.24ZM104.88,9.67h6.16c-.2-1.9-1.28-2.93-3.11-2.93-1.7,0-2.84.99-3.06,2.93Z"/><path class="cls-1" d="M121.3,16.77V.25h2.79v16.52h-2.79Z"/><path class="cls-1" d="M127.32,16.77V4.76h2.76v3.28c.44-1.9,1.68-3.53,4.07-3.53s3.77,1.41,3.77,3.9v8.36h-2.79v-7.52c0-1.48-.49-2.49-2.34-2.49-2.02,0-2.71,1.31-2.71,3.28v6.73h-2.76Z"/><path class="cls-1" d="M139.5,14.08l1.63-1.73c.67,1.21,2.15,2.44,4.29,2.44,1.18,0,1.95-.42,1.95-1.28s-.91-1.18-2.24-1.5l-1.6-.39c-1.9-.44-3.65-1.28-3.65-3.48s1.8-3.6,4.56-3.6c2.56,0,4.36,1.23,5.1,2.59l-1.63,1.73c-.84-1.33-2.12-2.12-3.67-2.12-1.06,0-1.78.44-1.78,1.26,0,.86.64,1.18,2.27,1.6l1.46.37c2.69.69,3.67,1.78,3.67,3.5,0,2.37-2,3.55-4.54,3.55s-4.91-1.04-5.82-2.93Z"/><path class="cls-1" d="M151.71,13.12V4.76h2.76v7.52c0,1.48.49,2.49,2.34,2.49,2.02,0,2.71-1.31,2.71-3.28v-6.73h2.79v12.01h-2.79v-3.28c-.44,1.9-1.68,3.53-4.07,3.53s-3.75-1.41-3.75-3.9Z"/><path class="cls-1" d="M165.22,16.77V4.76h2.76v3.4c.44-1.92,1.65-3.65,3.8-3.65,1.5,0,2.61.99,2.61,2.76,0,1.16-.32,2.02-.54,2.39h-2.83c.39-.39.76-1.18.76-1.87s-.32-1.21-1.13-1.21c-1.38,0-2.66,1.58-2.66,3.58v6.61h-2.76Z"/><path class="cls-1" d="M175.47,14.18c0-1.7,1.18-2.74,3.13-3.5l4.02-1.7c-.1-1.21-.64-2.02-2.29-2.02s-2.86.94-3.55,2.19l-1.65-1.97c.94-1.28,2.81-2.66,5.47-2.66,2.98,0,4.66,1.7,4.66,4.66v4.51c0,.54.2.71.64.71h.76v2.37h-1.7c-1.28,0-2.29-.59-2.29-2.32v-.89c-.37,1.58-1.53,3.45-4.04,3.45-1.97,0-3.16-1.11-3.16-2.84ZM179.62,14.87c1.83,0,3.06-1.08,3.06-2.71v-1.28l-3.08,1.38c-1.04.47-1.45.89-1.45,1.5,0,.69.47,1.11,1.48,1.11Z"/><path class="cls-1" d="M188.79,16.77V4.76h2.76v3.28c.44-1.9,1.68-3.53,4.07-3.53s3.77,1.41,3.77,3.9v8.36h-2.79v-7.52c0-1.48-.49-2.49-2.34-2.49-2.02,0-2.71,1.31-2.71,3.28v6.73h-2.76Z"/><path class="cls-1" d="M201.56,10.78c0-3.75,2.24-6.26,5.82-6.26,3.01,0,4.91,1.7,5.55,3.97l-2.49,1.23c-.27-1.73-1.16-2.89-3.01-2.89s-3.06,1.41-3.06,3.95,1.16,3.92,3.06,3.92,2.74-1.16,3.01-2.88l2.49,1.23c-.64,2.27-2.54,3.97-5.55,3.97-3.58,0-5.82-2.52-5.82-6.24Z"/><path class="cls-1" d="M214.23,10.78c0-3.77,2.34-6.26,5.72-6.26,3.6,0,5.6,2.39,5.6,5.72,0,.44-.05.96-.1,1.21h-8.58c.15,2.15,1.41,3.3,3.3,3.3,2.1,0,3.03-1.08,3.48-2.1l1.7,1.78c-.91,1.38-2.54,2.59-5.2,2.59-3.58,0-5.92-2.49-5.92-6.24ZM216.89,9.67h6.16c-.2-1.9-1.28-2.93-3.11-2.93-1.7,0-2.84.99-3.06,2.93Z"/></g></svg>