<?xml version="1.0" encoding="UTF-8"?><svg id="Layer_2" xmlns="http://www.w3.org/2000/svg" viewBox="0 0 162.82 60.43"><defs><style>.cls-1{fill:#fff;}</style></defs><g id="Layer_1-2"><path class="cls-1" d="M43.34,42.57c-.6,3.67-2.59,6.89-4.59,9.92-.6.08-.93-.54-1.15-1.01-2.57-5.49,3.01-11.74,5.74-16.02.38,2.22.37,4.89,0,7.12Z"/><path class="cls-1" d="M48.1,3.11c-13.15-7.73-29.98-.35-32.8,14.54l.55.37c1.89-.51,3.86-1,5.83-.72l.5-.41c2.26-3.14,10.44.2,13.08,1.82,3.91,2.4,6.64,7.28,10.58,1.05.94-1.48,1.99-5.35,2.73-6.18,1.15-1.3,2.93-.53,3.17,1.16,1.01,7.2-4.74,14.96-8.4,20.71-.23,2.08-.36,4.19-.4,6.34l.4.78c17.9-5.07,20.83-30.01,4.76-39.46ZM42.91,18.11c-5.17,3.29-10.92-3.85-6.37-8.26,5.31-5.15,12.99,4.05,6.37,8.26Z"/><path class="cls-1" d="M36.07,52.74c-8.41-7.07,5.37-17.93-2.68-27.08-3.01-3.43-5.96-3.04-9.68-4.33-1.69-.58-2.64-2.91-1.53-4.45-2.03-.52-4.86.19-6.88.76C3.53,20.97-2.74,34.18,1.15,45.61c3.61,10.6,15.56,17.21,26.51,14,.37-.11.45.14.37-.51-7.61-.53-15.12-4.41-19.73-10.46-2.4-3.15-5.23-8.27-5.27-12.3-.02-1.81,1.19-3.02,3.02-2.25.31.13,3.15,4.7,3.89,5.54,4.33,4.93,10.35,5.98,14.73.47,1.71-2.15,3.49-8.3,6.91-7.07,3.81,1.38-.15,8.5-.68,11.25-.68,3.54.22,7.38,3,9.83,1.23,1.09,2.49,1.69,3.44-.11.37-.7-.83-.9-1.28-1.28ZM16.04,40.42c-6.13-1.09-6.19-10.92.72-11.77,8.77-1.08,9.09,13.52-.72,11.77Z"/><path class="cls-1" d="M135.88,43.33c.06.93-.92.44-1.16,1.25-.32,1.07,0,2.46-.11,3.58h5.35c-.11-1.12.2-2.51-.11-3.58-.24-.81-1.22-.32-1.16-1.25h4.33c.17.78-.81.6-1.04.93-.38.53-.38,9.21,0,9.65.46.54,1.33-.01,1.05,1.12h-4.33c-.49-.99,1.27-.83,1.27-1.4v-4.7h-5.35v4.45c0,.92,1.7.63,1.27,1.65h-4.33c-.1-1.42,1.09-.18,1.29-2.15.11-1.06.08-8.17-.25-8.62-.23-.32-1.21-.14-1.04-.93h4.33Z"/><path class="cls-1" d="M68.06,36.97c-.19-.9,1.04-.34,1.47-.83.24-.27.3-1.4.33-1.83.14-2.11.29-7.23-.03-9.15-.06-.36-.22-.8-.48-1.05-.59-.58-1.42-.02-1.29-.87,2.53-.16,5.29.21,7.79.01.52-.04,1.04-.69,1.26-.27.25.46.3,3.94-.26,4.07-.78.18-.61-1.99-1.32-2.55-.65-.52-3.55-1.28-3.86-.33-.28.86.01,3.68.51,4.51.63,1.05,2.42,1.19,3.54,1.18v.76h-3.83v5.21c0,.47,1.47.58,1.53.64.02.02.02.51,0,.51h-5.35Z"/><path class="cls-1" d="M120.33,27.06c-.15.59-.27.9-.16,1.53.17.91,1.7,4.51,2.19,5.47.12.24.15.6.51.63.14-1.49,2.27-5.34,1.41-6.62-.33-.49-1.62-.13-1.41-1.01h4.59c.14.61-.11.41-.33.57-2.62,1.81-3.93,9.45-5.78,12.54-.63,1.06-1.96,2.13-3.21,1.41-.19-.11-1.38-1.56-1.38-1.67-.02-1,1.65.53,1.97.59,1.69.35,3.14-2.29,3-3.55-.07-.62-2.85-7.33-3.3-8.12l-1.67-1.77h3.57Z"/><path class="cls-1" d="M151.94,53.63c.24.85,1.59-.42,1.53.5-.16.31-2.49,1.09-2.94,1.14-.78.1-.2-2.01-.38-2.54l-2.11,2.08c-4.49,2.36-2.5-5.07-2.97-7-.18-.72-1.69.31-1.29-.8.1-.26,2.82-.59,3.32-.63-.56,1.3-.9,6.25-.23,7.22s1.9-.23,2.38-.88c.92-1.25,2.36-5.76-.36-5.07.03-.21-.05-.71,0-.76.11-.12,2.85-.4,3.31-.51.15.36-.25.76-.25.89,0,1.34-.27,5.42,0,6.36Z"/><path class="cls-1" d="M111.91,36.97c-.13-.86.7-.3,1.29-.87.26-.25.42-.69.48-1.05.31-1.89.23-8.14.03-10.17-.14-1.44-.49-1.28-1.8-1.51l3.82-1.65c-.06.63-.43.95-.51,1.65-.28,2.41-.28,9.04,0,11.46.05.46.16.95.5,1.28.59.58,1.42.02,1.29.87h-5.1Z"/><path class="cls-1" d="M56.59,43.33c.53.4-.25.46-.37.53-.43.27-.74.09-.9.87s-.09,8.62.12,9.02c.33.67,1.32.17,1.15,1.01h-4.33c.09-.58.93-.42,1.16-.75.27-.4.25-8.55.13-9.56-.11-.92-1.43-.13-1.29-1.13.66.13,4.11-.17,4.33,0Z"/><path class="cls-1" d="M92.28,29.09c2.28-2.49,4.64-3.99,5.1.76.28-.07.52-.5.76-.76.36-.34.49-.19.25.25-.9,1.23-1.97,5.59-.78,6.75.59.58,1.42.02,1.29.87h-3.82c-.42-.63.51-.46.51-.51v-7.5c0-1.49-2.28-.68-3.06.38-.36.34-.49.19-.25-.25Z"/><path class="cls-1" d="M98.15,29.09c.9-1,2.03-2.53,3.64-2.25,2.96.52.45,8.35,1.87,9.35.46.33,1.32,0,1.13.78h-3.82c.26-.43.45-.57.52-1.13.12-.95.1-6.55-.18-7.2-.53-1.24-2.39.02-2.89.7l-.25-.25Z"/><path class="cls-1" d="M109.36,26.8v9.03c0,.47,1.47.58,1.53.64.02.02.02.51,0,.51h-4.84c-.2-.86,1.04-.4,1.41-1.01.19-.31.25-6.71.08-7.21-.29-.9-1.44-.1-1.49-.17-.03-.04-.03-.71,0-.75.11-.13,2.85-.9,3.31-1.03Z"/><path class="cls-1" d="M92.54,29.34c-.93,1.27-1.95,5.44-.92,6.63.62.72,1.55.14,1.43.99h-5.1c-.08-.9.78-.22,1.4-1.02.35-.45.35-.86.4-1.38.08-.84.09-5.96-.3-6.21-.34-.21-1.18.17-1.49-.16.3-.4,3.19-1.53,3.31-1.4v3.3c.37-.27.71-.68,1.02-1.02l.25.25Z"/><path class="cls-1" d="M80.05,52.99c-.47.53-1.22,1.58-1.85,1.84-4.51,1.85-1.89-6.59-2.98-7.32-.25-.17-.72-.09-1.03-.11-.47-.33,2.46-.91,2.78-.92.92-.02.08.63,0,1.28-.09.81-.07,5.98.3,6.21.83.52,2.06-.58,2.52-1.24.36-.34.49-.19.25.25Z"/><path class="cls-1" d="M61.18,48.42c.65-.73,1.43-1.81,2.49-1.99,3.33-.56,1.03,6.15,2.08,7.49.16.21,1.59.45,1.04.86-.19.15-2.54-.1-3.06,0-.1-.27.25-.56.25-.63v-6.48c0-.48-2.32.15-2.55.76-.08.14-.16.13-.25,0Z"/><path class="cls-1" d="M104.01,48.42c.65-.73,1.43-1.81,2.49-1.99,3.33-.56,1.03,6.15,2.08,7.49.16.21,1.59.45,1.04.86-.19.15-2.54-.1-3.06,0-.1-.27.25-.56.25-.63v-6.48c0-.48-2.32.15-2.55.76-.08.14-.16.13-.25,0Z"/><path class="cls-1" d="M61.44,48.42c-.68,1.21-1.91,4.44-.9,5.6.44.5,1.33-.14,1.15.76h-4.08c-.2-.91.82-.26,1.17-.75.18-.26.34-6.15.11-6.38-.13-.12-1.09.2-1.27-.12.24-.41,2.7-1.26,2.8-1.14v2.79c.28-.07.53-.5.77-.76h.25Z"/><path class="cls-1" d="M104.27,48.42c-.68,1.21-1.91,4.44-.9,5.6.44.5,1.33-.14,1.15.76h-4.08c-.2-.91.82-.26,1.17-.75.18-.26.34-6.15.11-6.38-.13-.12-1.09.2-1.27-.12.24-.41,2.7-1.26,2.8-1.14v2.79c.28-.07.53-.5.77-.76h.25Z"/><path class="cls-1" d="M87.95,48.67c-.38,1.05-1.39,4.81-.26,5.47.62.36,1.73-.31,1.53.63h-4.59c-.17-.85.82-.35,1.15-1.01.18-.36.24-5.26.09-5.69-.19-.56-1.89-.32-1.24-.92.09-.09,2.29-.79,2.41-.77.61.12.35,1.91.39,2.41l.51-.38c.12.08.12.17,0,.25Z"/><path class="cls-1" d="M112.93,47.15c.36-.28.5-.16.25.25-2.41,1.88-1.41,7.48,2.56,6.24.18-.05,2.25-1.9,1.77-.78-.24.56-2.07,1.97-2.73,2.11-4.43.9-5.63-4.82-2.63-7.46.32-.28.58-.24.77-.36Z"/><path class="cls-1" d="M79.79,52.74c.99-1.44,2.13-5.31-.51-5.47l3.31-.89c-.88,2.23-.61,5.26-.23,7.61.29.2,1.89-.59,1.25.27-.09.12-2.66.91-2.8.77v-2.8c-.34.1-.53.5-.77.76l-.25-.25Z"/><path class="cls-1" d="M69.85,47.15c-.05.25-.29.52-.27.89.11,2.19,6.73,2.95,2.82,6.23-.44.37-.58.23-.25-.25.01-.33.28-.67.21-1.09-.3-1.81-6.93-3.57-2.76-6.03.46-.19.57-.17.25.25Z"/><path class="cls-1" d="M98.15,54.01v-6.74c0-1.21-2.07-.8-2.8-.64-.22.1-.22.18,0,.25,1.28-.16,1.81,1.01,1.54,2.12-.07.3-1.88.83-2.29,1.08-.17.1-.22.32-.28.36-.15.24-.14.36-.05.38.1-.04.19-.09.3-.12.6-.41,1.55-.73,2.29-.76.32.35-.51,2.81-.76,3.3,1.55-.86.15,1.42,1.18,1.75,1.12.36,1.62-.59,2.38-1.12l-1.53.13Z"/><path class="cls-1" d="M94.58,50.71c-2.19,1.49-1.49,3.89,1.27,2.8-.07.11,0,.37-.26.62-1.01,1-2.76,1.47-3.5-.05-.8-1.63,1.04-2.83,2.23-3.62l.25.25Z"/><path class="cls-1" d="M87.95,48.42c.35-.93,1.63-2.13,2.67-2.05s.82,2.79.25,3.06c-.65.32-.2-1.51-1.06-1.75-.67-.19-1.34.69-1.87.99.03-.08-.03-.18,0-.25Z"/><path class="cls-1" d="M113.7,46.64c2.3-.71,4.5.02,3.82,2.8-1.1.22-.65-.41-1-1.16-.61-1.31-1.35-1.19-2.57-1.38-.39.3-.52.2-.25-.25Z"/><path class="cls-1" d="M69.59,46.89c2.17-1.28,4.23-.42,3.57,2.29-1.14.22-.59-.41-.96-1.21-.38-.84-1.5-1.42-2.36-.83.02-.11-.1-.3-.25-.25Z"/><path class="cls-1" d="M71.12,55.03c-2.68.36-3.44-.38-3.06-3.05l1.02,1.65c.44.63.74.61,1.28.89.61.06.87.23.76.51Z"/><path class="cls-1" d="M108.47,22.31c.81,0,1.44,1.1.62,1.81-1.43,1.24-2.43-1.81-.62-1.81Z"/><path class="cls-1" d="M95.34,46.64v.25c-.37.43-.84.43-1.24.92-.43.53-.72,2.04-.8,2.13-.65.7-.56-1.63-.53-1.92.08-.68,1.88-1.23,2.57-1.39Z"/><path class="cls-1" d="M72.4,54.27c-.48.4-.42.65-1.27.76-.24-.19-.5-.37-.76-.51.69.09,1.27-.04,1.78-.51,0,.11.1.3.25.25Z"/><path class="cls-1" d="M121.86,46.89c.47.8-.58,1.25-1.02.51.21-.31-.21-.43.76-.76.05.11.14.22.25.25Z"/><path class="cls-1" d="M113.95,46.89c-.15.32-.57.35-.76.51l-.25-.25c.25-.15.39-.39.76-.51.03.12.14.24.25.25Z"/><path class="cls-1" d="M159.74,46.4c-1.55.18-2.03,1.5-3.21,2.27.07-2.2-.21-4.45.25-6.61l-3.31,1.4c.12.91,1.3-.18,1.53,1.01.29,1.52.11,6.38,0,8.15-.06.96-.36,1.97-.52,2.91,2.87-1.06,5.38.3,7.35-2.71,1.53-2.34,1.56-6.84-2.1-6.42ZM158.5,53.95c-4.18-.24-1.51-6.09.74-6.22,2.73-.16,2.68,6.41-.74,6.22Z"/><path class="cls-1" d="M87.44,35.19c-.65.44-1.18.9-2.04.76v-8.01c0-2.14-6.3-.67-6.62,1.02-.12.65.06,1.48,0,2.16,1.13.22.62-.42.94-1.22,1.28-3.21,4.77-3.22,3.92.29-.11.47-8.25,3.25-5.26,6.55,1.66,1.82,3.91-.64,5.12-1.8.27.52.05,1.93.55,2.31,1.1.83,3.79-1.66,3.4-2.06ZM79.85,35.64c-1.83-1.83,2.23-4.69,4.02-4.51.66,1.78-2.15,6.39-4.02,4.51Z"/><path class="cls-1" d="M120.07,49.69h5.61c0-2.36-1.76-3.84-4.08-3.05-.29.43-.14.56.25.25,1.45.38,2.36.37,2.29,2.29h-4.08c-.09-.71.4-1.24.76-1.78-3.54,1.68-2.42,8.25,1.89,7.61.91-.13,2.75-1.4,2.57-2.27-2.72,2.46-5.73.35-5.23-3.05Z"/></g></svg>