<svg xmlns="http://www.w3.org/2000/svg" viewBox="0 0 457 340.64"><defs><style>.cls-1{fill:#ee7e22;}.cls-2{fill:#65368d;}.cls-3{fill:#e65125;}.cls-4{fill:#7a1543;}.cls-5{fill:#48326b;}</style></defs><g id="Layer_2" data-name="Layer 2"><g id="Layer_1-2" data-name="Layer 1"><path class="cls-1" d="M58.14,120.09C53.87,104.45,45.82,94.5,31.6,95.45H243c25.12-.48,38.86,23.69,26.07,46.44L210.73,244.25l-46.92,80.56c-14.69,24.64-50.7,19.43-57.34-8.06Z"/><path class="cls-2" d="M398.86,221.5c4.74,14.22,13.27,24.17,32.7,23.7H219.26c-24.17,0-38.86-26.07-27-46.92L251.48,96.4,298.4,15.83c14.69-24.64,50.7-19.42,57.34,8.06l20.85,88.62Z"/><path class="cls-3" d="M84.2,225.77c-2.84-4.74-5.69-9.48-9.48-13.27l-64.92-63c-19-17.53-8.53-48.34,15.17-53.55,29.38-5.69,33.17,23.7,33.17,23.7Z"/><path class="cls-4" d="M192.25,198.28c-9.95,15.17-3.32,40.28,18.48,46L269,141.89c11.37-19.9,1.42-42.18-17.54-45.49L192.25,198.76Z"/><path class="cls-5" d="M447.2,191.17c18.95,17.54,8.53,48.34-15.17,53.55-14.21,1.42-28.9-5.68-33.17-22.27v-2.37c-.47,0-22.74-107.57-22.74-107.57l70.61,78.66Z"/></g></g></svg>