<svg xmlns="http://www.w3.org/2000/svg" viewBox="0 0 208.23 18.42"><defs><style>.cls-1{fill:#232323;}</style></defs><g id="Layer_2" data-name="Layer 2"><g id="Layer_1-2" data-name="Layer 1"><path class="cls-1" d="M2.1,14.5H0V.56H2.1Z"/><path class="cls-1" d="M5,4H7v1.7h.12A2.87,2.87,0,0,1,9.93,3.91a2.83,2.83,0,0,1,2.81,1.83h.11A3.26,3.26,0,0,1,16,3.91c1.89,0,3.22,1.19,3.22,3.58v7h-2V7.68a1.83,1.83,0,0,0-2-2,2,2,0,0,0-2.1,2.17V14.5h-2V7.55A1.8,1.8,0,0,0,9.18,5.66,2.23,2.23,0,0,0,7,8.05V14.5H5Z"/><path class="cls-1" d="M21.93,4h2v1.7h.17a3.13,3.13,0,0,1,3-1.83c2.53,0,4.39,2,4.39,5.38s-1.84,5.41-4.37,5.41a3.19,3.19,0,0,1-3-1.83H24v5.55h-2ZM26.66,13c1.81,0,2.76-1.59,2.76-3.69s-.92-3.64-2.76-3.64-2.73,1.45-2.73,3.64S24.91,13,26.66,13Z"/><path class="cls-1" d="M33.29,9.32c0-3.26,1.93-5.41,4.87-5.41S43,6.06,43,9.32s-1.93,5.39-4.88,5.39S33.29,12.55,33.29,9.32Zm7.69,0c0-2-.9-3.7-2.81-3.7s-2.83,1.7-2.83,3.7S36.24,13,38.17,13,41,11.32,41,9.31Z"/><path class="cls-1" d="M45.3,4h2V5.7h.11A2.72,2.72,0,0,1,50,3.89c.26,0,.66,0,.86,0V5.88a4.67,4.67,0,0,0-1.06-.12,2.35,2.35,0,0,0-2.5,2.35V14.5h-2Z"/><path class="cls-1" d="M58.2,5.68H56.05v5.75c0,1.17.59,1.39,1.25,1.39a3.18,3.18,0,0,0,.72-.09l.37,1.68a3.72,3.72,0,0,1-1.32.22,2.72,2.72,0,0,1-3-2.78V5.68H52.49V4H54V1.54h2V4H58.2Z"/><path class="cls-1" d="M60.42,13.26a1.36,1.36,0,1,1,1.36,1.37A1.36,1.36,0,0,1,60.42,13.26Z"/><path class="cls-1" d="M70.89.56h8.74V2.37H73V6.61h6.18V8.42H73v4.27h6.72V14.5H70.89Z"/><path class="cls-1" d="M84.31,14.5h-2V4h2v1.7h.13a3.1,3.1,0,0,1,3.08-1.83C89.58,3.91,91,5.26,91,7.85V14.5H89V8.09a2.14,2.14,0,0,0-2.22-2.42,2.37,2.37,0,0,0-2.44,2.62Z"/><path class="cls-1" d="M93.72,4h2V5.7h.11a2.72,2.72,0,0,1,2.65-1.81c.26,0,.66,0,.87,0V5.88a4.75,4.75,0,0,0-1.06-.12,2.34,2.34,0,0,0-2.5,2.35V14.5h-2Z"/><path class="cls-1" d="M100.83,1.22a1.29,1.29,0,0,1,2.57,0,1.29,1.29,0,0,1-2.57,0ZM101.09,4h2V14.5h-2Z"/><path class="cls-1" d="M105.39,9.32c0-3.19,1.9-5.41,4.85-5.41,2.38,0,4.1,1.4,4.31,3.51h-2a2.23,2.23,0,0,0-2.3-1.8c-1.7,0-2.83,1.41-2.83,3.65S108.55,13,110.27,13a2.22,2.22,0,0,0,2.3-1.79h2a4,4,0,0,1-4.29,3.52C107.22,14.71,105.39,12.47,105.39,9.32Z"/><path class="cls-1" d="M118.77,14.5h-2V.56h2V5.74h.13A3,3,0,0,1,122,3.91c2.15,0,3.58,1.33,3.58,3.94V14.5h-2V8.09a2.14,2.14,0,0,0-2.24-2.42,2.4,2.4,0,0,0-2.51,2.62Z"/><path class="cls-1" d="M128.25,13.26a1.36,1.36,0,1,1,1.36,1.37A1.36,1.36,0,0,1,128.25,13.26Z"/><path class="cls-1" d="M138.72.56h5c3.23,0,4.82,1.94,4.82,4.51s-1.6,4.53-4.83,4.53h-2.86v4.9h-2.1Zm4.77,7.25c2,0,2.9-1.16,2.9-2.74s-.85-2.71-2.93-2.71h-2.64V7.81Z"/><path class="cls-1" d="M157.42,4h2.05V14.5h-2V12.69h-.11a3.25,3.25,0,0,1-3.13,1.94c-2,0-3.43-1.35-3.43-3.94V4h2v6.41A2.11,2.11,0,0,0,155,12.78a2.46,2.46,0,0,0,2.45-2.62Z"/><path class="cls-1" d="M162.36.56h2V5.74h.13a3.13,3.13,0,0,1,3-1.83c2.52,0,4.39,2,4.39,5.38s-1.84,5.41-4.37,5.41a3.17,3.17,0,0,1-3-1.83h-.17V14.5h-2ZM167.08,13c1.82,0,2.77-1.59,2.77-3.69s-.92-3.64-2.77-3.64-2.73,1.45-2.73,3.64S165.33,13,167.08,13Z"/><path class="cls-1" d="M176.22,14.5h-2V.56h2Z"/><path class="cls-1" d="M178.7,1.22A1.25,1.25,0,0,1,180,0a1.27,1.27,0,0,1,1.29,1.22A1.26,1.26,0,0,1,180,2.43,1.24,1.24,0,0,1,178.7,1.22ZM179,4h2V14.5h-2Z"/><path class="cls-1" d="M189.71,6.92a2,2,0,0,0-2.08-1.4c-1.16,0-2,.57-2,1.37s.49,1.1,1.64,1.37l1.66.38c1.92.45,2.86,1.36,2.86,2.83,0,1.9-1.75,3.24-4.27,3.24-2.35,0-3.89-1-4.23-2.9l2-.3a2,2,0,0,0,2.25,1.56c1.33,0,2.19-.64,2.19-1.45,0-.65-.47-1.1-1.47-1.32l-1.77-.39c-2-.44-2.86-1.42-2.86-2.91,0-1.85,1.67-3.09,4-3.09s3.54,1.06,4,2.68Z"/><path class="cls-1" d="M196,14.5h-2V.56h2V5.74h.13a3.06,3.06,0,0,1,3.1-1.83c2.15,0,3.58,1.33,3.58,3.94V14.5h-2V8.09a2.14,2.14,0,0,0-2.24-2.42A2.4,2.4,0,0,0,196,8.29Z"/><path class="cls-1" d="M205.51,13.26a1.36,1.36,0,1,1,1.36,1.37A1.36,1.36,0,0,1,205.51,13.26Z"/></g></g></svg>