<svg xmlns="http://www.w3.org/2000/svg" width="103.47" height="49.63" viewBox="0 0 103.47 49.63"><defs><style>.cls-1{fill:#fff;}.cls-2{fill:#2fc23e;}</style></defs><g id="Layer_2" data-name="Layer 2"><g id="Layer_1-2" data-name="Layer 1"><path class="cls-1" d="M16.25,34.14a2.65,2.65,0,0,1-1.31,0,2.23,2.23,0,0,1-1.06-.59,2.57,2.57,0,0,1-.68-2.11,2.78,2.78,0,0,1,.33-.94,3.62,3.62,0,0,1,.69-.86,5.39,5.39,0,0,1,1-.73l.28.59a3.21,3.21,0,0,0-1.13,1.21,1.81,1.81,0,0,0-.17,1.32,1.64,1.64,0,0,0,.41.73,1.55,1.55,0,0,0,.74.41,2,2,0,0,0,1,0,1.89,1.89,0,0,0,.92-.49,2.14,2.14,0,0,0,.51-.74l.35.36-.2.05a1.86,1.86,0,0,1-.25.74,2.07,2.07,0,0,1-.55.64A2.4,2.4,0,0,1,16.25,34.14ZM20.86,33a2.9,2.9,0,0,1-1.52,0,4.76,4.76,0,0,1-1.49-.72A9.12,9.12,0,0,1,16.46,31a12.18,12.18,0,0,1-1.17-1.43,11.78,11.78,0,0,1-.89-1.44,6.12,6.12,0,0,1-.49-1.23,3,3,0,0,1-.07-1.23,2.11,2.11,0,0,1,.51-1.1,2.53,2.53,0,0,1,1.24-.7,2.5,2.5,0,0,1,1.3,0,2.07,2.07,0,0,1,1,.57,2.25,2.25,0,0,1,.52,1,2.08,2.08,0,0,1,0,1.16,3,3,0,0,1-.71,1.19,7.09,7.09,0,0,1-1.48,1.19l-.25-.51A5.09,5.09,0,0,0,17.21,27a1.73,1.73,0,0,0,.18-1.24,1.33,1.33,0,0,0-.59-.83,1.25,1.25,0,0,0-1-.12,1.15,1.15,0,0,0-.67.42,1.2,1.2,0,0,0-.24.69,2.54,2.54,0,0,0,.07.77,5.83,5.83,0,0,0,.42,1A13.32,13.32,0,0,0,16.16,29a11.44,11.44,0,0,0,1,1.25,8.08,8.08,0,0,0,1.13,1.07,4.67,4.67,0,0,0,1.17.67,1.86,1.86,0,0,0,1.11.08,1.19,1.19,0,0,0,.7-.48.94.94,0,0,0,.11-.79,1.51,1.51,0,0,0-.49-.74,2.7,2.7,0,0,0-1.05-.49,4.8,4.8,0,0,0-1.6-.07l-.25-1,3.27-.85.25,1L19,28.86,19,29a4.39,4.39,0,0,1,2.28.36,2,2,0,0,1,1.11,1.31,1.68,1.68,0,0,1,0,.8,1.65,1.65,0,0,1-.31.67,2,2,0,0,1-.56.48A2.6,2.6,0,0,1,20.86,33Z"/><rect class="cls-2" x="69.11" width="34.36" height="23.86" rx="4.98"/><rect class="cls-2" x="57.66" y="25.77" width="40.08" height="23.86" rx="5.38"/><path class="cls-1" d="M0,18.86V5.63H2.18V18.86Zm1.08,0V17H4.81a3.43,3.43,0,0,0,2-.55,3.46,3.46,0,0,0,1.25-1.59,6.9,6.9,0,0,0,.43-2.57,8.28,8.28,0,0,0-.23-2,4,4,0,0,0-.73-1.51,3.36,3.36,0,0,0-1.3-.93,5.12,5.12,0,0,0-1.91-.32H1.08V5.63H4.25A7.72,7.72,0,0,1,8,6.41a4.84,4.84,0,0,1,2.11,2.23,8.06,8.06,0,0,1,.68,3.48,9.45,9.45,0,0,1-.33,2.65,6.16,6.16,0,0,1-.91,1.91,4.79,4.79,0,0,1-1.33,1.26,5.33,5.33,0,0,1-1.61.69,6.55,6.55,0,0,1-1.69.23Z"/><path class="cls-1" d="M17.32,19.12a6.11,6.11,0,0,1-2.24-.38,4.17,4.17,0,0,1-1.58-1.1A4.62,4.62,0,0,1,12.55,16a6.71,6.71,0,0,1-.32-2.16,7.37,7.37,0,0,1,.31-2.18,5.15,5.15,0,0,1,.92-1.79A4.36,4.36,0,0,1,15,8.61a5,5,0,0,1,2.15-.44,4.87,4.87,0,0,1,2,.39A3.76,3.76,0,0,1,20.6,9.69a4.41,4.41,0,0,1,.84,1.77,7.38,7.38,0,0,1,.13,2.34l-8,.12V12.56l6.45-.1-.5.8a4.43,4.43,0,0,0-.18-1.77,2.21,2.21,0,0,0-.82-1.12,2.38,2.38,0,0,0-1.4-.39,2.44,2.44,0,0,0-1.53.47,2.86,2.86,0,0,0-.94,1.31,5.59,5.59,0,0,0-.32,2,4.22,4.22,0,0,0,.77,2.74,2.75,2.75,0,0,0,2.24.93,3,3,0,0,0,1.14-.19,1.94,1.94,0,0,0,.74-.52,2.11,2.11,0,0,0,.41-.73,2.82,2.82,0,0,0,.15-.78l2,.22a4.33,4.33,0,0,1-.33,1.45A3.42,3.42,0,0,1,20.62,18a3.89,3.89,0,0,1-1.38.8A5.61,5.61,0,0,1,17.32,19.12Z"/><path class="cls-1" d="M23.39,21.82l0-8.74,0-4.63h2l-.14,3.19h.2a5.74,5.74,0,0,1,.73-2,3.25,3.25,0,0,1,1.2-1.14A3.49,3.49,0,0,1,29,8.17a3.81,3.81,0,0,1,2.19.63,4.09,4.09,0,0,1,1.42,1.85,7.88,7.88,0,0,1,.5,3,8,8,0,0,1-.5,3,4.09,4.09,0,0,1-1.41,1.85,3.59,3.59,0,0,1-2.12.64,3.17,3.17,0,0,1-1.75-.46,3.37,3.37,0,0,1-1.2-1.28,6.09,6.09,0,0,1-.64-2h-.26c.08.49.15,1,.21,1.4s.11.86.14,1.25a11.36,11.36,0,0,1,.05,1.14v2.62Zm5-4.57a2.07,2.07,0,0,0,1.35-.45,2.75,2.75,0,0,0,.84-1.26,5.46,5.46,0,0,0,.29-1.9,5.55,5.55,0,0,0-.28-1.86,2.54,2.54,0,0,0-.84-1.24,2.1,2.1,0,0,0-1.36-.44,2.28,2.28,0,0,0-1.19.29,2.56,2.56,0,0,0-.86.78,3.58,3.58,0,0,0-.54,1.09,4.16,4.16,0,0,0-.18,1.2v.22a4.26,4.26,0,0,0,.11.91,5.9,5.9,0,0,0,.32.95,3.66,3.66,0,0,0,.54.86,2.26,2.26,0,0,0,.78.62A2.16,2.16,0,0,0,28.36,17.25Z"/><path class="cls-1" d="M39.56,19.12A5.4,5.4,0,0,1,37,18.5a4.32,4.32,0,0,1-1.81-1.83,6.29,6.29,0,0,1-.66-3,6.32,6.32,0,0,1,.67-3.05A4.43,4.43,0,0,1,37,8.77a5.78,5.78,0,0,1,5.17,0,4.38,4.38,0,0,1,1.79,1.85,6.33,6.33,0,0,1,.65,3,6.29,6.29,0,0,1-.66,3.05,4.26,4.26,0,0,1-1.8,1.79A5.44,5.44,0,0,1,39.56,19.12Zm0-1.73a2.47,2.47,0,0,0,2.46-1.65,5.18,5.18,0,0,0,.33-2,5.42,5.42,0,0,0-.35-2,3,3,0,0,0-1-1.31,2.82,2.82,0,0,0-3,0,2.64,2.64,0,0,0-1,1.24,5.24,5.24,0,0,0-.33,2,4.41,4.41,0,0,0,.77,2.77A2.51,2.51,0,0,0,39.6,17.39Z"/><path class="cls-1" d="M50.51,19.12a7.84,7.84,0,0,1-1.88-.21,4.27,4.27,0,0,1-1.46-.67,2.83,2.83,0,0,1-.93-1.15A3.54,3.54,0,0,1,46,15.41l1.9-.3a2.32,2.32,0,0,0,.31,1.33,1.93,1.93,0,0,0,.95.75,4.16,4.16,0,0,0,1.49.24,3.25,3.25,0,0,0,1.66-.35,1.09,1.09,0,0,0,.6-1,1,1,0,0,0-.32-.77,2.52,2.52,0,0,0-.9-.45,12.56,12.56,0,0,0-1.4-.34c-.57-.12-1.1-.25-1.6-.4a6,6,0,0,1-1.33-.54,2.38,2.38,0,0,1-1.26-2.23,2.77,2.77,0,0,1,.52-1.68,3.24,3.24,0,0,1,1.47-1.12,6.45,6.45,0,0,1,4.39,0A3.38,3.38,0,0,1,54,9.73a3.14,3.14,0,0,1,.53,2l-1.9.32a2,2,0,0,0-.27-1.22,1.9,1.9,0,0,0-.86-.72,3.23,3.23,0,0,0-1.29-.24,2.7,2.7,0,0,0-1.51.37,1.13,1.13,0,0,0-.56,1,1,1,0,0,0,.34.79,2.55,2.55,0,0,0,.95.46,14.44,14.44,0,0,0,1.42.33l1.45.33a5.85,5.85,0,0,1,1.33.52A2.51,2.51,0,0,1,54.94,16a2.63,2.63,0,0,1-.54,1.67,3.23,3.23,0,0,1-1.51,1.06A6.67,6.67,0,0,1,50.51,19.12Z"/><path class="cls-1" d="M57.62,7.11a1.6,1.6,0,0,1-1-.29A1,1,0,0,1,56.24,6a1,1,0,0,1,.35-.84,1.6,1.6,0,0,1,1-.28,1.58,1.58,0,0,1,1,.28A1,1,0,0,1,59,6a1,1,0,0,1-.35.83A1.58,1.58,0,0,1,57.62,7.11ZM56.54,18.86V8.45h2.18V18.86Z"/><path class="cls-1" d="M64.44,19.06a3,3,0,0,1-2.3-.84,3.55,3.55,0,0,1-.77-2.49V10.24H60V8.63h.6a1.55,1.55,0,0,0,1-.42,1.78,1.78,0,0,0,.39-1.08l.12-1h1.32v2.3h2.73v1.83H63.51v5.33a1.52,1.52,0,0,0,.37,1.13,1.42,1.42,0,0,0,1,.35,2.55,2.55,0,0,0,.72-.1,2,2,0,0,0,.66-.32v2.07a6,6,0,0,1-1,.25A6.63,6.63,0,0,1,64.44,19.06Z"/><path class="cls-1" d="M77.22,18.84a8.78,8.78,0,0,1-2.28-.28,4.66,4.66,0,0,1-1.69-.81,3.42,3.42,0,0,1-1-1.33,4,4,0,0,1-.3-1.81l2.29-.52a2.62,2.62,0,0,0,.39,1.59,2.31,2.31,0,0,0,1.12.89,4.21,4.21,0,0,0,1.59.28,4.48,4.48,0,0,0,1.45-.21,2.15,2.15,0,0,0,.93-.58,1.28,1.28,0,0,0,.33-.87,1.18,1.18,0,0,0-.43-.94,3.39,3.39,0,0,0-1.14-.59c-.46-.14-1-.28-1.54-.42s-1.15-.28-1.72-.46a7.21,7.21,0,0,1-1.57-.67A3.4,3.4,0,0,1,72.5,11a2.92,2.92,0,0,1-.43-1.64,3.31,3.31,0,0,1,.61-2,4,4,0,0,1,1.71-1.31A6.31,6.31,0,0,1,77,5.61a6.81,6.81,0,0,1,2.65.48,3.85,3.85,0,0,1,1.76,1.39,3.59,3.59,0,0,1,.56,2.26l-2.28.44a2.88,2.88,0,0,0-.14-1.13A2.08,2.08,0,0,0,79,8.24a2.45,2.45,0,0,0-.9-.49,3.78,3.78,0,0,0-1.16-.16,3.58,3.58,0,0,0-1.3.21,1.93,1.93,0,0,0-.83.58,1.29,1.29,0,0,0-.29.83,1.15,1.15,0,0,0,.43.94,3.41,3.41,0,0,0,1.13.57c.47.14,1,.29,1.58.42s1.13.29,1.69.46a7.29,7.29,0,0,1,1.56.68A3.37,3.37,0,0,1,82,13.38a3.17,3.17,0,0,1,.43,1.73,3.2,3.2,0,0,1-.64,2A3.85,3.85,0,0,1,80,18.4,8,8,0,0,1,77.22,18.84ZM76.22,6,75.9,3.42h2.38L77.94,6ZM75.9,21.1l.32-2.53h1.72l.34,2.53Z"/><path class="cls-1" d="M85.26,18.86V9.3h-1.8V7.11a3.58,3.58,0,0,0,1.41-.26,1.55,1.55,0,0,0,.79-1.22h2.16V18.86Z"/><path class="cls-1" d="M95,19.14a5.12,5.12,0,0,1-2.3-.49,4.62,4.62,0,0,1-1.67-1.38,6.4,6.4,0,0,1-1-2.15,10.58,10.58,0,0,1-.34-2.8,9.89,9.89,0,0,1,.65-3.78,4.87,4.87,0,0,1,4.76-3.17A4.92,4.92,0,0,1,98,6.19a5.23,5.23,0,0,1,1.81,2.37,9.84,9.84,0,0,1,.63,3.7,10.33,10.33,0,0,1-.36,2.83,6.4,6.4,0,0,1-1,2.16,4.66,4.66,0,0,1-1.7,1.39A5.09,5.09,0,0,1,95,19.14Zm.06-2.09a2.24,2.24,0,0,0,2-1.16,4.79,4.79,0,0,0,.55-1.46,10.43,10.43,0,0,0,.19-2.07,9.31,9.31,0,0,0-.33-2.67A3.66,3.66,0,0,0,96.59,8a2.11,2.11,0,0,0-1.53-.58A2.2,2.2,0,0,0,93.61,8a3.42,3.42,0,0,0-1,1.61,9.36,9.36,0,0,0-.33,2.71,10.67,10.67,0,0,0,.18,2.08A4.5,4.5,0,0,0,93,15.85a2.45,2.45,0,0,0,.88.9A2.3,2.3,0,0,0,95.1,17.05Z"/><path class="cls-1" d="M31,44.15a5.09,5.09,0,0,1-4.85-3.09,8.4,8.4,0,0,1-.73-3.69,9.71,9.71,0,0,1,.4-2.85A6.42,6.42,0,0,1,27,32.31,5,5,0,0,1,29,30.89a7.3,7.3,0,0,1,4.7-.19,4.52,4.52,0,0,1,1.57.87,3.83,3.83,0,0,1,1,1.39,5.25,5.25,0,0,1,.4,1.89l-2.11.38a3.31,3.31,0,0,0-.41-1.66,2.48,2.48,0,0,0-1.06-1,3.51,3.51,0,0,0-4.83,1.86,7,7,0,0,0-.49,2.83,7.59,7.59,0,0,0,.3,2.26,4.44,4.44,0,0,0,.82,1.56,3,3,0,0,0,1.24.89,4.18,4.18,0,0,0,1.55.28,3.47,3.47,0,0,0,1.7-.38,2.6,2.6,0,0,0,1.09-1.11A4.48,4.48,0,0,0,34.92,39H32.36V37.31H37v2.17l0,4.41H35.3l.2-3.67h-.22a5.68,5.68,0,0,1-.74,2.15,3.6,3.6,0,0,1-1.41,1.33A4.51,4.51,0,0,1,31,44.15Z"/><path class="cls-1" d="M43.68,44.15a6.05,6.05,0,0,1-2.23-.38,4.2,4.2,0,0,1-1.59-1.1,4.77,4.77,0,0,1-1-1.68,7,7,0,0,1-.32-2.15,7.39,7.39,0,0,1,.31-2.19,5.52,5.52,0,0,1,.92-1.79,4.3,4.3,0,0,1,1.54-1.22,5.43,5.43,0,0,1,4.16,0A3.93,3.93,0,0,1,47,34.72a4.47,4.47,0,0,1,.83,1.77,7.16,7.16,0,0,1,.13,2.35L40,39V37.59l6.46-.1-.5.8a4.43,4.43,0,0,0-.18-1.77,2.23,2.23,0,0,0-.83-1.12,2.7,2.7,0,0,0-2.92.08A2.79,2.79,0,0,0,41,36.79a5.39,5.39,0,0,0-.32,2,4.15,4.15,0,0,0,.77,2.73,2.73,2.73,0,0,0,2.23.93,2.89,2.89,0,0,0,1.14-.19,1.87,1.87,0,0,0,.75-.52A2.29,2.29,0,0,0,46,41a3.82,3.82,0,0,0,.15-.78l2,.22a4.1,4.1,0,0,1-.33,1.45A3.39,3.39,0,0,1,47,43.05a4,4,0,0,1-1.38.81A5.89,5.89,0,0,1,43.68,44.15Z"/><path class="cls-1" d="M53.24,44.09A3,3,0,0,1,51,43.26a3.55,3.55,0,0,1-.77-2.5V35.27H48.83V33.66h.6a1.55,1.55,0,0,0,1.06-.42,1.78,1.78,0,0,0,.39-1.08l.12-1h1.32v2.3h2.73v1.83H52.32v5.33a1.48,1.48,0,0,0,.37,1.13,1.36,1.36,0,0,0,1,.35,2.67,2.67,0,0,0,.73-.1,1.84,1.84,0,0,0,.66-.32v2.07a5.89,5.89,0,0,1-1,.25A6.48,6.48,0,0,1,53.24,44.09Z"/><path class="cls-1" d="M66,43.87a8.7,8.7,0,0,1-2.28-.27,4.68,4.68,0,0,1-1.69-.82,3.42,3.42,0,0,1-1-1.33,4,4,0,0,1-.3-1.81L63,39.12a2.76,2.76,0,0,0,.39,1.59,2.38,2.38,0,0,0,1.13.89,4.21,4.21,0,0,0,1.59.28,4.38,4.38,0,0,0,1.44-.21,2.15,2.15,0,0,0,.93-.58,1.24,1.24,0,0,0,.34-.87,1.16,1.16,0,0,0-.44-.94,3.08,3.08,0,0,0-1.13-.58c-.47-.15-1-.29-1.54-.43S64.58,38,64,37.81a6.75,6.75,0,0,1-1.57-.67,3.31,3.31,0,0,1-1.13-1.07,2.92,2.92,0,0,1-.43-1.64,3.31,3.31,0,0,1,.61-2,4,4,0,0,1,1.7-1.31,6.57,6.57,0,0,1,2.58-.47,6.85,6.85,0,0,1,2.65.48,3.9,3.9,0,0,1,1.76,1.39,3.65,3.65,0,0,1,.56,2.26l-2.28.44a2.63,2.63,0,0,0-.15-1.12,2,2,0,0,0-.55-.82,2.33,2.33,0,0,0-.89-.49,4.17,4.17,0,0,0-1.16-.16,3.58,3.58,0,0,0-1.3.21,2,2,0,0,0-.84.58,1.36,1.36,0,0,0-.29.84,1.18,1.18,0,0,0,.43.93,3.57,3.57,0,0,0,1.14.57c.46.15,1,.29,1.58.42s1.12.29,1.68.46a7.16,7.16,0,0,1,1.57.68,3.37,3.37,0,0,1,1.15,1.1,3.61,3.61,0,0,1-.21,3.76,3.93,3.93,0,0,1-1.81,1.27A8.28,8.28,0,0,1,66,43.87ZM65,31l-.32-2.53h2.38L66.75,31Zm-.32,15.15L65,43.61h1.72l.34,2.52Z"/><path class="cls-1" d="M77.29,44.17A8.38,8.38,0,0,1,75,43.9a4.24,4.24,0,0,1-1.59-.79,3.1,3.1,0,0,1-1-1.26,4.21,4.21,0,0,1-.27-1.71l2.39-.46a2.18,2.18,0,0,0,.14,1.11,1.73,1.73,0,0,0,.6.76,2.65,2.65,0,0,0,.93.43,4.12,4.12,0,0,0,1.11.14,4.23,4.23,0,0,0,1.42-.22,2.06,2.06,0,0,0,1-.69A1.9,1.9,0,0,0,80.18,40a2,2,0,0,0-.59-1.53,3.31,3.31,0,0,0-1.78-.78,12.57,12.57,0,0,0-2.94-.06V36.05l4.27-3.19v-.1H72.82V30.64H82V32.9l-4.33,3.29v.12a6.89,6.89,0,0,1,3,.44,3.49,3.49,0,0,1,1.64,1.38,3.82,3.82,0,0,1,.53,2,3.71,3.71,0,0,1-.62,2.13,3.9,3.9,0,0,1-1.82,1.42A8.16,8.16,0,0,1,77.29,44.17Z"/><path class="cls-1" d="M89.38,44.17a5.25,5.25,0,0,1-2.3-.48,4.57,4.57,0,0,1-1.67-1.39,6.4,6.4,0,0,1-1-2.15,10.58,10.58,0,0,1-.34-2.8,9.7,9.7,0,0,1,.65-3.78,4.87,4.87,0,0,1,4.76-3.17,4.94,4.94,0,0,1,2.89.82,5.23,5.23,0,0,1,1.81,2.37,9.84,9.84,0,0,1,.63,3.7,10.33,10.33,0,0,1-.36,2.83,6.4,6.4,0,0,1-1.05,2.16,4.79,4.79,0,0,1-1.7,1.4A5.22,5.22,0,0,1,89.38,44.17Zm.06-2.09a2.21,2.21,0,0,0,1.15-.29,2.32,2.32,0,0,0,.86-.87A4.45,4.45,0,0,0,92,39.46a9.68,9.68,0,0,0,.2-2.07,9.35,9.35,0,0,0-.33-2.67A3.66,3.66,0,0,0,90.93,33a2.17,2.17,0,0,0-1.53-.58A2.2,2.2,0,0,0,88,33a3.27,3.27,0,0,0-1,1.61,9.36,9.36,0,0,0-.33,2.71,10.67,10.67,0,0,0,.18,2.08,4.5,4.5,0,0,0,.55,1.49,2.45,2.45,0,0,0,.88.9A2.3,2.3,0,0,0,89.44,42.08Z"/></g></g></svg>