<svg xmlns="http://www.w3.org/2000/svg" viewBox="0 0 216.98 37.82"><defs><style>.cls-1{fill:#f98f0b;}.cls-2{fill:#fff;}</style></defs><g id="Layer_2" data-name="Layer 2"><g id="Layer_1-2" data-name="Layer 1"><rect class="cls-1" width="216.98" height="37.82" rx="18.91"/><path class="cls-2" d="M39.21,20.09a7,7,0,0,1-.43,2.28,5.68,5.68,0,0,1-1.14,1.91A5.25,5.25,0,0,1,35.8,25.6a6.08,6.08,0,0,1-2.55.49,7.4,7.4,0,0,1-2.6-.46,6.21,6.21,0,0,1-2.13-1.34,6,6,0,0,1-1.43-2.16,8.09,8.09,0,0,1-.5-2.92,7.84,7.84,0,0,1,.51-2.92,6,6,0,0,1,1.44-2.17,6.26,6.26,0,0,1,2.17-1.33,7.73,7.73,0,0,1,2.72-.46,7.64,7.64,0,0,1,3.33.67,5.83,5.83,0,0,1,3.38,4.5h-3a2.65,2.65,0,0,0-.67-1.27,3.3,3.3,0,0,0-1.27-.81,4.8,4.8,0,0,0-1.75-.29,4.21,4.21,0,0,0-2,.46A3.22,3.22,0,0,0,30.05,17a4.93,4.93,0,0,0-.47,2.25,4.67,4.67,0,0,0,.51,2.27,3.25,3.25,0,0,0,1.42,1.4,4.63,4.63,0,0,0,2.17.48,5.36,5.36,0,0,0,2.15-.4,3.41,3.41,0,0,0,2.1-3ZM34,21.42V19.07h6.23v6.74H38.12l-.41-5.28.6.89Z"/><path class="cls-2" d="M47.24,26.09a6.19,6.19,0,0,1-2.89-.67,5,5,0,0,1-2-1.87,5.21,5.21,0,0,1-.73-2.79A5.35,5.35,0,0,1,42.31,18a5,5,0,0,1,1.93-1.85A5.77,5.77,0,0,1,47,15.5a4.7,4.7,0,0,1,2.72.77,5,5,0,0,1,1.76,2.18,8.21,8.21,0,0,1,.62,3.31H44V19.7H50.5l-1.06.74a3.39,3.39,0,0,0-.35-1.4,2.18,2.18,0,0,0-2-1.19,2.45,2.45,0,0,0-1.32.34,2.21,2.21,0,0,0-.86.93,2.94,2.94,0,0,0-.31,1.39,3.38,3.38,0,0,0,.4,1.71,2.62,2.62,0,0,0,1.18,1.07,4.21,4.21,0,0,0,1.87.37,6.81,6.81,0,0,0,2-.31,6.13,6.13,0,0,0,1.82-.87v2.13a7,7,0,0,1-2.1,1.09A8,8,0,0,1,47.24,26.09Z"/><path class="cls-2" d="M52.53,18.2V16.78L54.4,16l1.27-2.92h1.67v2.68h3.9V18.2h-3.9v3.31a2.32,2.32,0,0,0,.42,1.58,1.93,1.93,0,0,0,1.47.45,4.82,4.82,0,0,0,1.2-.14,4.19,4.19,0,0,0,1-.36v2.48a7.34,7.34,0,0,1-1.24.39,7.07,7.07,0,0,1-1.6.18,4.83,4.83,0,0,1-2.36-.51,3.13,3.13,0,0,1-1.37-1.44A5,5,0,0,1,54.4,22V18.2Z"/><path class="cls-2" d="M74.64,12.61l5.48,13.2H76.94L72.23,14h.92L68.46,25.81h-3.2l5.5-13.2ZM68.53,23.15V20.46h8.2v2.69Z"/><path class="cls-2" d="M95.09,12.61v2.83H86.27l1.47-1.63v12h-3V12.61ZM86.2,18.1h8.6v2.83H86.2Z"/><path class="cls-2" d="M96.05,15.78h3l.54,3.6v6.43H96.63V19.12Zm7.83-.14v2.81c-.29-.07-.57-.12-.85-.16a7.25,7.25,0,0,0-.77-.05,2.76,2.76,0,0,0-1.37.34,2.41,2.41,0,0,0-1,1.09,4.37,4.37,0,0,0-.36,1.91L99,20.77a12.49,12.49,0,0,1,.36-2,6.38,6.38,0,0,1,.7-1.68,3.38,3.38,0,0,1,1.1-1.15,2.9,2.9,0,0,1,1.59-.42l.57,0A3.38,3.38,0,0,1,103.88,15.64Z"/><path class="cls-2" d="M110,26.09a6.19,6.19,0,0,1-2.89-.67,5.1,5.1,0,0,1-2-1.87,5.3,5.3,0,0,1-.73-2.79,5.35,5.35,0,0,1,.7-2.75A5,5,0,0,1,107,16.16a5.74,5.74,0,0,1,2.78-.66,4.7,4.7,0,0,1,2.72.77,5,5,0,0,1,1.76,2.18,8.21,8.21,0,0,1,.62,3.31h-8.14V19.7h6.52l-1.06.74a3.24,3.24,0,0,0-.36-1.4,2.3,2.3,0,0,0-.81-.88,2.34,2.34,0,0,0-1.21-.31,2.44,2.44,0,0,0-1.31.34,2.21,2.21,0,0,0-.86.93,2.94,2.94,0,0,0-.31,1.39,3.38,3.38,0,0,0,.4,1.71,2.64,2.64,0,0,0,1.17,1.07,4.26,4.26,0,0,0,1.88.37,6.81,6.81,0,0,0,2-.31,6.25,6.25,0,0,0,1.82-.87v2.13a7,7,0,0,1-2.1,1.09A8,8,0,0,1,110,26.09Z"/><path class="cls-2" d="M121.51,26.09a6.19,6.19,0,0,1-2.89-.67,5.1,5.1,0,0,1-2-1.87,5.29,5.29,0,0,1-.72-2.79,5.35,5.35,0,0,1,.69-2.75,5,5,0,0,1,1.93-1.85,5.74,5.74,0,0,1,2.78-.66,4.7,4.7,0,0,1,2.72.77,5,5,0,0,1,1.76,2.18,8.21,8.21,0,0,1,.62,3.31h-8.14V19.7h6.52l-1.06.74a3.24,3.24,0,0,0-.36-1.4,2.23,2.23,0,0,0-.81-.88,2.34,2.34,0,0,0-1.21-.31,2.44,2.44,0,0,0-1.31.34,2.21,2.21,0,0,0-.86.93,2.94,2.94,0,0,0-.31,1.39,3.38,3.38,0,0,0,.4,1.71,2.64,2.64,0,0,0,1.17,1.07,4.26,4.26,0,0,0,1.88.37,6.81,6.81,0,0,0,2-.31,6.25,6.25,0,0,0,1.82-.87v2.13a7,7,0,0,1-2.1,1.09A8,8,0,0,1,121.51,26.09Z"/><path class="cls-2" d="M138.5,26.09a7.45,7.45,0,0,1-3.66-.87,6,6,0,0,1-2.45-2.41,7.21,7.21,0,0,1-.87-3.6,7.25,7.25,0,0,1,.87-3.61,6.17,6.17,0,0,1,2.45-2.41,8.24,8.24,0,0,1,7.33,0,6.27,6.27,0,0,1,2.46,2.41,7.25,7.25,0,0,1,.87,3.61,7.21,7.21,0,0,1-.87,3.6,6.13,6.13,0,0,1-2.46,2.41A7.46,7.46,0,0,1,138.5,26.09Zm0-3a4.55,4.55,0,0,0,2.13-.46A3.3,3.3,0,0,0,142,21.3a4.27,4.27,0,0,0,.48-2.09,4.34,4.34,0,0,0-.48-2.1,3.34,3.34,0,0,0-1.37-1.34,4.56,4.56,0,0,0-2.13-.47,4.46,4.46,0,0,0-2.1.47A3.3,3.3,0,0,0,135,17.11a4.23,4.23,0,0,0-.49,2.1A4.17,4.17,0,0,0,135,21.3a3.27,3.27,0,0,0,1.38,1.35A4.46,4.46,0,0,0,138.5,23.11Zm-1.9-2.58h3.57l5.21,6.24H141.7Z"/><path class="cls-2" d="M150.89,26.07a3.87,3.87,0,0,1-2.15-.57,3.59,3.59,0,0,1-1.36-1.63,6.16,6.16,0,0,1-.47-2.5V15.78h3V20.9a2.88,2.88,0,0,0,.52,1.86,1.81,1.81,0,0,0,1.51.65,2.22,2.22,0,0,0,1.23-.33,2.19,2.19,0,0,0,.79-1,3.79,3.79,0,0,0,.27-1.5l.92.55a6.88,6.88,0,0,1-.75,2.68,4.36,4.36,0,0,1-1.49,1.67A3.67,3.67,0,0,1,150.89,26.07Zm3.86-.26-.57-3.91V15.78h2.95v6.61l.57,3.42Z"/><path class="cls-2" d="M164.38,26.09a6.46,6.46,0,0,1-3-.67,5,5,0,0,1-2-1.87,5.3,5.3,0,0,1-.71-2.76,5.33,5.33,0,0,1,.71-2.77,5,5,0,0,1,2-1.86,6.44,6.44,0,0,1,3-.66,6.57,6.57,0,0,1,3,.66,5,5,0,0,1,2,1.86,5.33,5.33,0,0,1,.71,2.77,5.31,5.31,0,0,1-.71,2.77,5,5,0,0,1-2,1.86A6.57,6.57,0,0,1,164.38,26.09Zm0-2.47a3,3,0,0,0,1.48-.34,2.28,2.28,0,0,0,.94-1,3.21,3.21,0,0,0,.32-1.51,3.21,3.21,0,0,0-.32-1.51,2.34,2.34,0,0,0-.94-1,3,3,0,0,0-1.48-.34,2.91,2.91,0,0,0-1.45.34,2.3,2.3,0,0,0-1,1,3.52,3.52,0,0,0,0,3,2.25,2.25,0,0,0,1,1A2.91,2.91,0,0,0,164.38,23.62Z"/><path class="cls-2" d="M170.51,18.2V16.78l1.87-.76,1.27-2.92h1.68v2.68h3.9V18.2h-3.9v3.31a2.38,2.38,0,0,0,.41,1.58,1.94,1.94,0,0,0,1.47.45,4.71,4.71,0,0,0,1.2-.14,4,4,0,0,0,1-.36v2.48a7.06,7.06,0,0,1-1.24.39,6.92,6.92,0,0,1-1.59.18,4.9,4.9,0,0,1-2.37-.51,3.11,3.11,0,0,1-1.36-1.44,5,5,0,0,1-.44-2.17V18.2Z"/><path class="cls-2" d="M185.62,26.09a6.22,6.22,0,0,1-2.89-.67,5.08,5.08,0,0,1-2-1.87,5.21,5.21,0,0,1-.73-2.79,5.26,5.26,0,0,1,.7-2.75,5,5,0,0,1,1.92-1.85,5.8,5.8,0,0,1,2.78-.66,4.71,4.71,0,0,1,2.73.77,5,5,0,0,1,1.76,2.18,8.22,8.22,0,0,1,.61,3.31h-8.14V19.7h6.53l-1.06.74a3.39,3.39,0,0,0-.36-1.4,2.18,2.18,0,0,0-2-1.19,2.41,2.41,0,0,0-1.31.34,2.3,2.3,0,0,0-.87.93,3.06,3.06,0,0,0-.31,1.39,3.38,3.38,0,0,0,.41,1.71,2.64,2.64,0,0,0,1.17,1.07,4.26,4.26,0,0,0,1.88.37,6.74,6.74,0,0,0,2-.31,6,6,0,0,0,1.82-.87v2.13a7,7,0,0,1-2.09,1.09A8.11,8.11,0,0,1,185.62,26.09Z"/></g></g></svg>