<svg xmlns="http://www.w3.org/2000/svg" width="590.032" height="94.813" viewBox="0 0 590.032 94.813">
  <defs>
    <style>
      .cls-1 {
        fill: #fff;
        fill-rule: evenodd;
      }
    </style>
  </defs>
  <path id="With_options_" data-name="With options," class="cls-1" d="M128.261,329.677l8.917,42.385h17.455l17.738-69.811h-15.82l-10.933,45.935-9.591-45.935H121.262l-9.685,46.125-10.836-46.125H84.151l17.741,69.811h17.451Zm66.551-7.1H178.7v49.481h16.11V322.581Zm1.245-16.013a8.877,8.877,0,0,0-2.686-6.522,9.49,9.49,0,0,0-13.231,0,8.88,8.88,0,0,0-2.685,6.522,9.3,9.3,0,1,0,18.6,0h0ZM236.9,322.581H225.878V308.676l-16.11,3.069v10.836h-7.479v13.234h7.479v17.068q0,10.548,3.979,15.439t13.089,4.891a47.366,47.366,0,0,0,10.932-1.341l-1.247-13.044a15.289,15.289,0,0,1-5.178,1.151,5.473,5.473,0,0,1-3.978-1.438,4.97,4.97,0,0,1-1.487-3.74V335.815H236.9V322.581Zm25.415,24.167c0-.447.06-1.248,0.19-2.4q0.956-8.341,7.863-8.343,5.85,0,5.848,8.727v27.329h16.11V340.513q0-9.108-4.168-14.095t-12.229-4.988a15.218,15.218,0,0,0-13.614,7.289V302.251h-16.11v69.811h16.11V346.748ZM367.9,347.322q0-11.411-6.519-18.651t-18.412-7.241q-11.893,0-18.412,7.241t-6.522,18.651q0,11.414,6.522,18.65t18.412,7.241q11.891,0,18.412-7.241T367.9,347.322Zm-33.755,0q0-5.755,2.16-9.2a8.157,8.157,0,0,1,13.328,0q2.157,3.448,2.157,9.2t-2.157,9.2a8.157,8.157,0,0,1-13.328,0Q334.14,353.078,334.141,347.322Zm57.919,19.562q4.889,6.33,13.614,6.329,9.974,0,14.769-7.048t4.794-18.843q0-11.8-4.794-18.844t-14.769-7.048q-9.779,0-15.149,8.631v-7.48H375.95V392.2h16.11V366.884Zm15.007-28.767a21.594,21.594,0,0,1,0,18.409,6.75,6.75,0,0,1-6.187,3.453q-8.341,0-8.82-11.316v-2.589q0.189-11.409,8.82-11.41A6.75,6.75,0,0,1,407.067,338.117Zm55.664-15.536H451.705V308.676l-16.11,3.069v10.836h-7.479v13.234H435.6v17.068q0,10.548,3.979,15.439t13.089,4.891a47.366,47.366,0,0,0,10.932-1.341l-1.247-13.044a15.289,15.289,0,0,1-5.178,1.151,5.473,5.473,0,0,1-3.978-1.438,4.97,4.97,0,0,1-1.487-3.74V335.815h11.026V322.581Zm25.412,0h-16.11v49.481h16.11V322.581Zm1.244-16.013a8.88,8.88,0,0,0-2.685-6.522,9.491,9.491,0,0,0-13.232,0,8.88,8.88,0,0,0-2.685,6.522,9.3,9.3,0,1,0,18.6,0h0Zm56.674,40.754q0-11.411-6.519-18.651T521.13,321.43q-11.895,0-18.412,7.241T496.2,347.322q0,11.414,6.522,18.65t18.412,7.241q11.889,0,18.412-7.241T546.061,347.322Zm-33.755,0q0-5.755,2.16-9.2a8.157,8.157,0,0,1,13.328,0q2.157,3.448,2.157,9.2t-2.157,9.2a8.157,8.157,0,0,1-13.328,0Q512.3,353.078,512.306,347.322Zm57.921-.574c0-.447.061-1.248,0.19-2.4q0.957-8.341,7.864-8.343,5.85,0,5.848,8.727v27.329h16.11V340.513q0-9.108-4.169-14.095t-12.228-4.988q-10.834,0-16.11,10.359v-9.208H554.117v49.481h16.11V346.748Zm73.693,22.245a13.686,13.686,0,0,0,6.28-12.083q0-6.617-4.027-9.827t-12.37-5.706l-3.166-.961q-5.754-1.722-5.754-4.027,0-2.682,4.987-2.685a21.737,21.737,0,0,1,12.083,3.549l5.945-10.165q-7.961-5.655-19.082-5.658-8.918,0-14.479,3.982t-5.561,11.648q0,6.429,4.026,9.83t11.987,5.8l3.163,0.957a19.923,19.923,0,0,1,4.7,1.87,2.784,2.784,0,0,1,1.438,2.447q0,2.973-5.464,2.972a31.874,31.874,0,0,1-8.824-1.392,25.552,25.552,0,0,1-7.286-3.115L606.568,366.6q8.631,6.616,21.674,6.616Q637.635,373.213,643.92,368.993Zm24.311,8.056a74.062,74.062,0,0,0,4.556-7.814,13.07,13.07,0,0,0,1.389-5.61,9.491,9.491,0,0,0-2.972-7.1,9.86,9.86,0,0,0-7.1-2.876,9.468,9.468,0,0,0-6.761,2.589,8.722,8.722,0,0,0-2.73,6.619,7.681,7.681,0,0,0,1.724,5.177,8.45,8.45,0,0,0,3.837,2.686l-5.945,15.533h7.957Z" transform="translate(-84.156 -297.375)"/>
</svg>
