<svg xmlns="http://www.w3.org/2000/svg" xmlns:xlink="http://www.w3.org/1999/xlink" viewBox="0 0 148.38 34.65"><defs><style>.cls-1{fill:none;}.cls-2{clip-path:url(#clip-path);}.cls-3{fill:#fd6e4c;}.cls-4{fill:#fd6d4c;}.cls-5{fill:#fd6c4c;}.cls-6{fill:#fd6b4c;}.cls-7{fill:#fd6a4c;}.cls-8{fill:#fd694c;}.cls-9{fill:#fd684c;}.cls-10{fill:#fd674c;}.cls-11{fill:#fd664c;}.cls-12{fill:#fd654c;}.cls-13{fill:#fd644c;}.cls-14{fill:#fd634c;}.cls-15{fill:#fd624c;}.cls-16{fill:#fd614c;}.cls-17{fill:#fd604c;}.cls-18{fill:#fd5f4c;}.cls-19{fill:#fd5e4c;}.cls-20{fill:#fd5d4c;}.cls-21{fill:#fd5b4c;}.cls-22{fill:#fd5a4c;}.cls-23{fill:#fd594c;}.cls-24{fill:#fd584c;}.cls-25{fill:#fd574c;}.cls-26{fill:#fd564c;}.cls-27{fill:#fd554c;}.cls-28{fill:#fd534c;}.cls-29{fill:#fd524c;}.cls-30{fill:#fd514c;}.cls-31{fill:#fc504c;}.cls-32{fill:#fb4f4c;}.cls-33{fill:#fa4e4c;}.cls-34{fill:#fa4d4c;}.cls-35{fill:#f94c4c;}.cls-36{fill:#f84a4c;}.cls-37{fill:#f7494c;}.cls-38{fill:#f6484c;}.cls-39{fill:#f5474c;}.cls-40{fill:#f4464c;}.cls-41{fill:#f4454c;}.cls-42{fill:#f3444c;}.cls-43{fill:#f2434c;}.cls-44{fill:#f1424c;}.cls-45{fill:#f0414c;}.cls-46{fill:#ef404c;}.cls-47{fill:#ef3f4c;}.cls-48{fill:#ee3e4c;}.cls-49{fill:#ed3d4c;}.cls-50{fill:#ec3c4c;}.cls-51{fill:#eb3b4c;}.cls-52{fill:#ea3a4c;}.cls-53{fill:#ea394c;}.cls-54{fill:#e9384c;}.cls-55{fill:#e8374c;}.cls-56{fill:#e7364c;}.cls-57{fill:#e6354c;}.cls-58{fill:#e6344c;}.cls-59{fill:#e5334c;}.cls-60{fill:#e4324c;}.cls-61{fill:#e3314c;}.cls-62{fill:#e3304c;}.cls-63{fill:#e22f4c;}.cls-64{clip-path:url(#clip-path-2);}.cls-65{fill:#feb251;}.cls-66{fill:#feaf51;}.cls-67{fill:#fead51;}.cls-68{fill:#feaa50;}.cls-69{fill:#fea750;}.cls-70{fill:#fea550;}.cls-71{fill:#fea350;}.cls-72{fill:#fea050;}.cls-73{fill:#fe9e50;}.cls-74{fill:#fe9c4f;}.cls-75{fill:#fe9a4f;}.cls-76{fill:#fe984f;}.cls-77{fill:#fe964f;}.cls-78{fill:#fe944f;}.cls-79{fill:#fe924f;}.cls-80{fill:#fe904f;}.cls-81{fill:#fd8e4e;}.cls-82{fill:#fd8d4e;}.cls-83{fill:#fd8b4e;}.cls-84{fill:#fd894e;}.cls-85{fill:#fd884e;}.cls-86{fill:#fd864e;}.cls-87{fill:#fd854e;}.cls-88{fill:#fd844e;}.cls-89{fill:#fd824d;}.cls-90{fill:#fd814d;}.cls-91{fill:#fd804d;}.cls-92{fill:#fd7f4d;}.cls-93{fill:#fd7e4d;}.cls-94{fill:#fd7c4d;}.cls-95{fill:#fd7b4d;}.cls-96{fill:#fd7a4d;}.cls-97{fill:#fd794d;}.cls-98{fill:#fd784d;}.cls-99{fill:#fd774d;}.cls-100{fill:#fd764d;}.cls-101{fill:#fd754d;}.cls-102{fill:#fd744c;}.cls-103{fill:#fd734c;}.cls-104{fill:#fd724c;}.cls-105{fill:#fd714c;}.cls-106{fill:#fd704c;}.cls-107{fill:#fd6f4c;}.cls-108{fill:#fd5c4c;}.cls-109{fill:#fd544c;}.cls-110{fill:#fd504c;}.cls-111{fill:#fd4f4c;}.cls-112{fill:#fd4e4c;}.cls-113{fill:#fd4c4c;}.cls-114{fill:#fd4b4c;}.cls-115{fill:#fd4a4c;}.cls-116{fill:#fd484c;}.cls-117{fill:#fd474c;}.cls-118{clip-path:url(#clip-path-3);}.cls-119{fill:#feb151;}.cls-120{fill:#feb051;}.cls-121{fill:#feae51;}.cls-122{fill:#feac51;}.cls-123{fill:#feab50;}.cls-124{fill:#fea950;}.cls-125{fill:#fea850;}.cls-126{fill:#fea650;}.cls-127{fill:#fea450;}.cls-128{fill:#fea250;}.cls-129{fill:#fea150;}.cls-130{fill:#fe9f50;}.cls-131{fill:#fe9e4f;}.cls-132{fill:#fe9d4f;}.cls-133{fill:#fe9b4f;}.cls-134{fill:#fe994f;}.cls-135{fill:#fe974f;}.cls-136{fill:#fe954f;}.cls-137{fill:#fe934f;}.cls-138{fill:#fe914f;}.cls-139{fill:#fd904e;}.cls-140{fill:#fd8f4e;}.cls-141{fill:#fd8c4e;}.cls-142{fill:#fd8a4e;}.cls-143{fill:#fd874e;}.cls-144{fill:#fd834e;}.cls-145{fill:#fd7d4d;}</style><clipPath id="clip-path" transform="translate(0 0.1)"><path class="cls-1" d="M31.16,4.56a.14.14,0,0,0-.27,0A3.13,3.13,0,0,1,29.72,6l-.3.2A.26.26,0,0,1,29,5.89l0-.17A5.91,5.91,0,0,0,26.67.06a.26.26,0,0,0-.42.25,3.92,3.92,0,0,1-.61,2.59,11.29,11.29,0,0,1-.88,1.21.26.26,0,0,1-.43,0,4.34,4.34,0,0,0-1.74-1.62.26.26,0,0,0-.38.28,3.07,3.07,0,0,1-.28,1.67c-.31.71-.76,1.4-1,2.13a4.41,4.41,0,0,0,2.5,5.26l0,0a4.94,4.94,0,0,0,2.75.49,5.13,5.13,0,0,0,1.92-.58l.17-.08a6.62,6.62,0,0,0,2.93-4A5.58,5.58,0,0,0,31.16,4.56Z"/></clipPath><clipPath id="clip-path-2" transform="translate(0 0.1)"><path class="cls-1" d="M25.11,12.26a3.73,3.73,0,0,1-2.53-1.65,3.92,3.92,0,0,1,.05-3.33.27.27,0,0,1,.46-.07c.16.21.31.43.45.65a.26.26,0,0,0,.45,0,5,5,0,0,1,.93-1.09,3.33,3.33,0,0,0,.91-1.22.26.26,0,0,1,.45-.09,3.46,3.46,0,0,1,.81,2.31.26.26,0,0,0,.42.22c.24-.17.48-.33.74-.49a.27.27,0,0,1,.38.12,3.72,3.72,0,0,1,.24,1.87,3,3,0,0,1-1.17,2,3.32,3.32,0,0,1-2.41.79"/></clipPath><clipPath id="clip-path-3" transform="translate(0 0.1)"><path class="cls-1" d="M26.9,11.29a1.16,1.16,0,0,1-2.31,0,6,6,0,0,1,.94-1.87.27.27,0,0,1,.44,0A5.94,5.94,0,0,1,26.9,11.29Z"/></clipPath></defs><g id="Layer_2" data-name="Layer 2"><g id="Layer_1-2" data-name="Layer 1"><path d="M0,34.14V5H19.23v6.08A23.33,23.33,0,0,0,17.58,8.9a7,7,0,0,0-1.74-1.44,7.17,7.17,0,0,0-2.18-.8,14.3,14.3,0,0,0-2.9-.25L6,6.45a1.22,1.22,0,0,0-.37.8c0,.32,0,.63,0,.93V18.53H8.83A6.32,6.32,0,0,0,11.11,18a4.66,4.66,0,0,0,2.08-1.59h.37V23h-.21a17.23,17.23,0,0,0-1.52-1.64,11.09,11.09,0,0,0-1.46-1.09,2.78,2.78,0,0,0-1.54-.52H5.55V34.14Z" transform="translate(0 0.1)"/><path d="M23.58,34.14V18.41A4.83,4.83,0,0,0,23.42,17a1.46,1.46,0,0,0-.5-.74,1.72,1.72,0,0,0-.82-.31L21,15.78V15.2l8.18-.65V34.14Zm2.26-22.63a3.5,3.5,0,0,1-3.57-3.58,3.57,3.57,0,1,1,7.14,0,3.52,3.52,0,0,1-1,2.55A3.47,3.47,0,0,1,25.84,11.51Z" transform="translate(0 0.1)"/><path d="M35.45,34.14V17.46a4.38,4.38,0,0,0-.14-1.25,1.24,1.24,0,0,0-.45-.64,2,2,0,0,0-.82-.26l-1.22-.15v-.57L41,13.77v4.51a11.39,11.39,0,0,1,1.33-1.58,13.68,13.68,0,0,1,1.75-1.46,9.76,9.76,0,0,1,2-1.06,5.67,5.67,0,0,1,2.12-.41,4.72,4.72,0,0,1,2.38.65l-1.23,6.45C48,18.63,46.49,17.5,44.82,17.5A5.32,5.32,0,0,0,41,19.56V34.14Z" transform="translate(0 0.1)"/><path d="M59.77,28.92a8.22,8.22,0,0,0,2.36,1.48,7,7,0,0,0,2.7.54,5.49,5.49,0,0,0,3.45-1.05,7.2,7.2,0,0,0,2.17-3l.33.25a10.92,10.92,0,0,1-3,5.32,7.86,7.86,0,0,1-5.58,2,11.13,11.13,0,0,1-6.35-2,10.65,10.65,0,0,1-2.4-2.34A8.83,8.83,0,0,1,52,27a12.7,12.7,0,0,1-.41-5.27,9.11,9.11,0,0,1,1.56-4,8.36,8.36,0,0,1,3-2.59,9.23,9.23,0,0,1,3.73-1.05,3.39,3.39,0,0,0,.44,0l.43,0a10.17,10.17,0,0,1,3.76.64,8.06,8.06,0,0,1,2.69,1.74A8.2,8.2,0,0,1,68.87,19a12.66,12.66,0,0,1,.89,3.21ZM59,28.27a12.41,12.41,0,0,0,3.45-3.08A7.88,7.88,0,0,0,64,21.9a6.67,6.67,0,0,0,0-2.4,6.24,6.24,0,0,0-.8-2.1,5,5,0,0,0-1.4-1.5,3.08,3.08,0,0,0-1.8-.57h-.21a4.5,4.5,0,0,0-1.87.47,3.54,3.54,0,0,0-1.46,1.37,5.32,5.32,0,0,0-.65,2.49,12.54,12.54,0,0,0,.53,3.84,9.68,9.68,0,0,0,1,2.55A11.26,11.26,0,0,0,59,28.27Z" transform="translate(0 0.1)"/><path d="M81.5,34.14V5h9.7a38.05,38.05,0,0,1,4.15.23,10.87,10.87,0,0,1,3.68,1,6.7,6.7,0,0,1,2.65,2.34,7.38,7.38,0,0,1,1,4.13,6.06,6.06,0,0,1-.8,3.24,6.9,6.9,0,0,1-2.09,2.18,10.52,10.52,0,0,1-3,1.33,22.91,22.91,0,0,1-3.39.7,33.28,33.28,0,0,1-3.41.27c-1.12,0-2.12,0-3,0V34.14Zm9.33-14.95a6.1,6.1,0,0,0,2.61-.5,4.25,4.25,0,0,0,1.68-1.35A5.4,5.4,0,0,0,96,15.26a11.87,11.87,0,0,0,.26-2.6A9.4,9.4,0,0,0,96,10.31a6.14,6.14,0,0,0-.91-2A4.55,4.55,0,0,0,93.52,7a4.79,4.79,0,0,0-2.32-.52H87.63a2.15,2.15,0,0,0-.5.66,3.07,3.07,0,0,0-.08.82V19.19Z" transform="translate(0 0.1)"/><path d="M106.89,34.14V18.41a4.83,4.83,0,0,0-.16-1.44,1.51,1.51,0,0,0-.49-.74,1.76,1.76,0,0,0-.83-.31l-1.15-.14V15.2l8.18-.65V34.14Zm2.26-22.63a3.52,3.52,0,0,1-3.57-3.58,3.62,3.62,0,0,1,6.14-2.55,3.52,3.52,0,0,1,1,2.55,3.52,3.52,0,0,1-1,2.55A3.47,3.47,0,0,1,109.15,11.51Z" transform="translate(0 0.1)"/><path d="M129.45,31.39a7.78,7.78,0,0,1-2.55,2.3,6,6,0,0,1-2.88.78,4.71,4.71,0,0,1-2.34-.55A5.17,5.17,0,0,1,120,32.48a6.25,6.25,0,0,1-1-2,8.55,8.55,0,0,1-.33-2.38V17.42A2.17,2.17,0,0,0,116.26,15h-.58v-.41l8.18-5.88h.41v5.75h4.85v1.11h-4.85V28.1q0,.54.06,1.26a5.76,5.76,0,0,0,.29,1.37,2.93,2.93,0,0,0,.66,1.11,1.52,1.52,0,0,0,1.17.45,5,5,0,0,0,2.75-1.23Z" transform="translate(0 0.1)"/><path d="M144,21.08c-.19-.66-.38-1.35-.57-2.08a8.07,8.07,0,0,0-.81-2,4.54,4.54,0,0,0-1.33-1.46,3.56,3.56,0,0,0-2.18-.53,3.08,3.08,0,0,0-1,.18,2.74,2.74,0,0,0-.9.54,2.33,2.33,0,0,0-.61.84,1.94,1.94,0,0,0-.11,1.19,2.78,2.78,0,0,0,1.11,1.73,14.22,14.22,0,0,0,2.26,1.41c.88.46,1.82.92,2.82,1.4A15.11,15.11,0,0,1,145.45,24a9.15,9.15,0,0,1,2.09,2.3,5.8,5.8,0,0,1,.84,3.2,3.25,3.25,0,0,1-.69,2,6.5,6.5,0,0,1-1.85,1.61,9.7,9.7,0,0,1-2.65,1,12.94,12.94,0,0,1-3.15.37,14.35,14.35,0,0,1-5.25-1,8.51,8.51,0,0,1-4.07-3.41L134,26.58a16.84,16.84,0,0,0,.74,2.16,10.7,10.7,0,0,0,1.26,2.2,7.09,7.09,0,0,0,1.76,1.7,3.94,3.94,0,0,0,2.24.68,3.65,3.65,0,0,0,2.59-.84,2.39,2.39,0,0,0,.74-2.16,2.75,2.75,0,0,0-1-1.87A13.84,13.84,0,0,0,140.11,27c-.84-.45-1.74-.89-2.69-1.33a18.08,18.08,0,0,1-2.67-1.5,8,8,0,0,1-2-2,4.73,4.73,0,0,1-.8-2.78,4.74,4.74,0,0,1,.7-2.69,5.15,5.15,0,0,1,1.81-1.66,7.6,7.6,0,0,1,2.5-.84,17.63,17.63,0,0,1,2.8-.23,11,11,0,0,1,2.3.25,8.91,8.91,0,0,1,2.3.82,9.15,9.15,0,0,1,2.07,1.48A7.23,7.23,0,0,1,148,18.82Z" transform="translate(0 0.1)"/><g class="cls-2"><polygon class="cls-3" points="26.72 0 20.24 2.36 20.24 0 26.72 0"/><polygon class="cls-3" points="27.29 0 20.24 2.56 20.24 2.36 26.72 0 27.29 0"/><polygon class="cls-4" points="27.86 0 20.24 2.77 20.24 2.56 27.29 0 27.86 0"/><polygon class="cls-4" points="28.43 0 20.24 2.98 20.24 2.77 27.86 0 28.43 0"/><polygon class="cls-5" points="28.99 0 20.24 3.19 20.24 2.98 28.43 0 28.99 0"/><polygon class="cls-6" points="29.56 0 20.24 3.39 20.24 3.19 28.99 0 29.56 0"/><polygon class="cls-7" points="30.13 0 20.24 3.6 20.24 3.39 29.56 0 30.13 0"/><polygon class="cls-8" points="30.7 0 20.24 3.81 20.24 3.6 30.13 0 30.7 0"/><polygon class="cls-9" points="31.27 0 20.24 4.01 20.24 3.81 30.7 0 31.27 0"/><polygon class="cls-10" points="31.5 0.12 20.24 4.22 20.24 4.01 31.27 0 31.5 0 31.5 0.12"/><polygon class="cls-11" points="31.5 0.33 20.24 4.43 20.24 4.22 31.5 0.12 31.5 0.33"/><polygon class="cls-12" points="31.5 0.54 20.24 4.63 20.24 4.43 31.5 0.33 31.5 0.54"/><polygon class="cls-13" points="31.5 0.74 20.24 4.84 20.24 4.63 31.5 0.54 31.5 0.74"/><polygon class="cls-14" points="31.5 0.95 20.24 5.05 20.24 4.84 31.5 0.74 31.5 0.95"/><polygon class="cls-15" points="31.5 1.16 20.24 5.25 20.24 5.05 31.5 0.95 31.5 1.16"/><polygon class="cls-16" points="31.5 1.36 20.24 5.46 20.24 5.25 31.5 1.16 31.5 1.36"/><polygon class="cls-17" points="31.5 1.57 20.24 5.67 20.24 5.46 31.5 1.36 31.5 1.57"/><polygon class="cls-18" points="31.5 1.78 20.24 5.87 20.24 5.67 31.5 1.57 31.5 1.78"/><polygon class="cls-19" points="31.5 1.99 20.24 6.08 20.24 5.87 31.5 1.78 31.5 1.99"/><polygon class="cls-20" points="31.5 2.19 20.24 6.29 20.24 6.08 31.5 1.99 31.5 2.19"/><polygon class="cls-21" points="31.5 2.4 20.24 6.49 20.24 6.29 31.5 2.19 31.5 2.4"/><polygon class="cls-22" points="31.5 2.61 20.24 6.7 20.24 6.49 31.5 2.4 31.5 2.61"/><polygon class="cls-23" points="31.5 2.81 20.24 6.91 20.24 6.7 31.5 2.61 31.5 2.81"/><polygon class="cls-24" points="31.5 3.02 20.24 7.12 20.24 6.91 31.5 2.81 31.5 3.02"/><polygon class="cls-25" points="31.5 3.23 20.24 7.32 20.24 7.12 31.5 3.02 31.5 3.23"/><polygon class="cls-26" points="31.5 3.43 20.24 7.53 20.24 7.32 31.5 3.23 31.5 3.43"/><polygon class="cls-27" points="31.5 3.64 20.24 7.74 20.24 7.53 31.5 3.43 31.5 3.64"/><polygon class="cls-28" points="31.5 3.85 20.24 7.94 20.24 7.74 31.5 3.64 31.5 3.85"/><polygon class="cls-29" points="31.5 4.05 20.24 8.15 20.24 7.94 31.5 3.85 31.5 4.05"/><polygon class="cls-30" points="31.5 4.26 20.24 8.36 20.24 8.15 31.5 4.05 31.5 4.26"/><polygon class="cls-30" points="31.5 4.45 20.24 8.54 20.24 8.36 31.5 4.26 31.5 4.45"/><polygon class="cls-31" points="31.5 4.64 20.24 8.73 20.24 8.54 31.5 4.45 31.5 4.64"/><polygon class="cls-32" points="31.5 4.83 20.24 8.92 20.24 8.73 31.5 4.64 31.5 4.83"/><polygon class="cls-33" points="31.5 5.01 20.24 9.11 20.24 8.92 31.5 4.83 31.5 5.01"/><polygon class="cls-34" points="31.5 5.2 20.24 9.3 20.24 9.11 31.5 5.01 31.5 5.2"/><polygon class="cls-35" points="31.5 5.39 20.24 9.48 20.24 9.3 31.5 5.2 31.5 5.39"/><polygon class="cls-36" points="31.5 5.58 20.24 9.67 20.24 9.48 31.5 5.39 31.5 5.58"/><polygon class="cls-37" points="31.5 5.77 20.24 9.86 20.24 9.67 31.5 5.58 31.5 5.77"/><polygon class="cls-38" points="31.5 5.96 20.24 10.05 20.24 9.86 31.5 5.77 31.5 5.96"/><polygon class="cls-39" points="31.5 6.14 20.24 10.24 20.24 10.05 31.5 5.96 31.5 6.14"/><polygon class="cls-40" points="31.5 6.33 20.24 10.43 20.24 10.24 31.5 6.14 31.5 6.33"/><polygon class="cls-41" points="31.5 6.52 20.24 10.61 20.24 10.43 31.5 6.33 31.5 6.52"/><polygon class="cls-42" points="31.5 6.71 20.24 10.8 20.24 10.61 31.5 6.52 31.5 6.71"/><polygon class="cls-43" points="31.5 6.89 20.24 10.99 20.24 10.8 31.5 6.71 31.5 6.89"/><polygon class="cls-44" points="31.5 7.08 20.24 11.18 20.24 10.99 31.5 6.89 31.5 7.08"/><polygon class="cls-45" points="31.5 7.27 20.24 11.37 20.24 11.18 31.5 7.08 31.5 7.27"/><polygon class="cls-46" points="31.5 7.46 20.24 11.55 20.24 11.37 31.5 7.27 31.5 7.46"/><polygon class="cls-47" points="31.5 7.65 20.24 11.74 20.24 11.55 31.5 7.46 31.5 7.65"/><polygon class="cls-48" points="31.5 7.84 20.24 11.93 20.24 11.74 31.5 7.65 31.5 7.84"/><polygon class="cls-49" points="31.5 8.03 20.24 12.12 20.24 11.93 31.5 7.84 31.5 8.03"/><polygon class="cls-50" points="31.5 8.21 20.24 12.31 20.24 12.12 31.5 8.03 31.5 8.21"/><polygon class="cls-51" points="31.5 8.4 20.24 12.5 20.24 12.31 31.5 8.21 31.5 8.4"/><polygon class="cls-52" points="31.5 8.59 20.74 12.51 20.24 12.51 20.24 12.5 31.5 8.4 31.5 8.59"/><polygon class="cls-53" points="31.5 8.78 21.25 12.51 20.74 12.51 31.5 8.59 31.5 8.78"/><polygon class="cls-54" points="31.5 8.97 21.77 12.51 21.25 12.51 31.5 8.78 31.5 8.97"/><polygon class="cls-55" points="31.5 9.15 22.29 12.51 21.77 12.51 31.5 8.97 31.5 9.15"/><polygon class="cls-56" points="31.5 9.34 22.8 12.51 22.29 12.51 31.5 9.15 31.5 9.34"/><polygon class="cls-57" points="31.5 9.53 23.32 12.51 22.8 12.51 31.5 9.34 31.5 9.53"/><polygon class="cls-58" points="31.5 9.72 23.84 12.51 23.32 12.51 31.5 9.53 31.5 9.72"/><polygon class="cls-59" points="31.5 9.91 24.36 12.51 23.84 12.51 31.5 9.72 31.5 9.91"/><polygon class="cls-60" points="31.5 10.1 24.87 12.51 24.36 12.51 31.5 9.91 31.5 10.1"/><polygon class="cls-61" points="31.5 10.28 25.39 12.51 24.87 12.51 31.5 10.1 31.5 10.28"/><polygon class="cls-62" points="31.5 10.47 25.91 12.51 25.39 12.51 31.5 10.28 31.5 10.47"/><polygon class="cls-63" points="31.5 10.66 26.42 12.51 25.91 12.51 31.5 10.47 31.5 10.66"/><polygon class="cls-63" points="26.42 12.51 31.5 10.66 31.5 12.51 26.42 12.51"/></g><g class="cls-64"><polygon class="cls-65" points="26.3 5.38 22 6.46 22 5.38 26.3 5.38"/><polygon class="cls-65" points="26.52 5.38 22 6.51 22 6.46 26.3 5.38 26.52 5.38"/><polygon class="cls-66" points="26.74 5.38 22 6.57 22 6.51 26.52 5.38 26.74 5.38"/><polygon class="cls-67" points="26.95 5.38 22 6.62 22 6.57 26.74 5.38 26.95 5.38"/><polygon class="cls-68" points="27.17 5.38 22 6.67 22 6.62 26.95 5.38 27.17 5.38"/><polygon class="cls-69" points="27.39 5.38 22 6.73 22 6.67 27.17 5.38 27.39 5.38"/><polygon class="cls-70" points="27.61 5.38 22 6.78 22 6.73 27.39 5.38 27.61 5.38"/><polygon class="cls-71" points="27.82 5.38 22 6.84 22 6.78 27.61 5.38 27.82 5.38"/><polygon class="cls-72" points="28.04 5.38 22 6.89 22 6.84 27.82 5.38 28.04 5.38"/><polygon class="cls-73" points="28.26 5.38 22 6.95 22 6.89 28.04 5.38 28.26 5.38"/><polygon class="cls-74" points="28.48 5.38 22 7 22 6.95 28.26 5.38 28.48 5.38"/><polygon class="cls-75" points="28.69 5.38 22 7.05 22 7 28.48 5.38 28.69 5.38"/><polygon class="cls-76" points="28.91 5.38 22 7.11 22 7.05 28.69 5.38 28.91 5.38"/><polygon class="cls-77" points="28.94 5.43 22 7.16 22 7.11 28.91 5.38 28.94 5.38 28.94 5.43"/><polygon class="cls-78" points="28.94 5.49 22 7.22 22 7.16 28.94 5.43 28.94 5.49"/><polygon class="cls-79" points="28.94 5.54 22 7.27 22 7.22 28.94 5.49 28.94 5.54"/><polygon class="cls-80" points="28.94 5.59 22 7.32 22 7.27 28.94 5.54 28.94 5.59"/><polygon class="cls-81" points="28.94 5.65 22 7.38 22 7.32 28.94 5.59 28.94 5.65"/><polygon class="cls-82" points="28.94 5.7 22 7.43 22 7.38 28.94 5.65 28.94 5.7"/><polygon class="cls-83" points="28.94 5.76 22 7.49 22 7.43 28.94 5.7 28.94 5.76"/><polygon class="cls-84" points="28.94 5.81 22 7.54 22 7.49 28.94 5.76 28.94 5.81"/><polygon class="cls-85" points="28.94 5.86 22 7.59 22 7.54 28.94 5.81 28.94 5.86"/><polygon class="cls-86" points="28.94 5.92 22 7.65 22 7.59 28.94 5.86 28.94 5.92"/><polygon class="cls-87" points="28.94 5.97 22 7.7 22 7.65 28.94 5.92 28.94 5.97"/><polygon class="cls-88" points="28.94 6.03 22 7.76 22 7.7 28.94 5.97 28.94 6.03"/><polygon class="cls-89" points="28.94 6.08 22 7.81 22 7.76 28.94 6.03 28.94 6.08"/><polygon class="cls-90" points="28.94 6.13 22 7.87 22 7.81 28.94 6.08 28.94 6.13"/><polygon class="cls-91" points="28.94 6.19 22 7.92 22 7.87 28.94 6.13 28.94 6.19"/><polygon class="cls-92" points="28.94 6.24 22 7.97 22 7.92 28.94 6.19 28.94 6.24"/><polygon class="cls-93" points="28.94 6.3 22 8.03 22 7.97 28.94 6.24 28.94 6.3"/><polygon class="cls-94" points="28.94 6.35 22 8.08 22 8.03 28.94 6.3 28.94 6.35"/><polygon class="cls-95" points="28.94 6.41 22 8.14 22 8.08 28.94 6.35 28.94 6.41"/><polygon class="cls-95" points="28.94 6.46 22 8.19 22 8.14 28.94 6.41 28.94 6.46"/><polygon class="cls-96" points="28.94 6.51 22 8.24 22 8.19 28.94 6.46 28.94 6.51"/><polygon class="cls-97" points="28.94 6.57 22 8.3 22 8.24 28.94 6.51 28.94 6.57"/><polygon class="cls-98" points="28.94 6.62 22 8.35 22 8.3 28.94 6.57 28.94 6.62"/><polygon class="cls-99" points="28.94 6.68 22 8.41 22 8.35 28.94 6.62 28.94 6.68"/><polygon class="cls-100" points="28.94 6.73 22 8.46 22 8.41 28.94 6.68 28.94 6.73"/><polygon class="cls-100" points="28.94 6.78 22 8.52 22 8.46 28.94 6.73 28.94 6.78"/><polygon class="cls-101" points="28.94 6.84 22 8.57 22 8.52 28.94 6.78 28.94 6.84"/><polygon class="cls-102" points="28.94 6.89 22 8.62 22 8.57 28.94 6.84 28.94 6.89"/><polygon class="cls-102" points="28.94 6.95 22 8.68 22 8.62 28.94 6.89 28.94 6.95"/><polygon class="cls-103" points="28.94 7 22 8.73 22 8.68 28.94 6.95 28.94 7"/><polygon class="cls-103" points="28.94 7.05 22 8.79 22 8.73 28.94 7 28.94 7.05"/><polygon class="cls-104" points="28.94 7.11 22 8.84 22 8.79 28.94 7.05 28.94 7.11"/><polygon class="cls-104" points="28.94 7.16 22 8.89 22 8.84 28.94 7.11 28.94 7.16"/><polygon class="cls-105" points="28.94 7.22 22 8.95 22 8.89 28.94 7.16 28.94 7.22"/><polygon class="cls-105" points="28.94 7.27 22 9 22 8.95 28.94 7.22 28.94 7.27"/><polygon class="cls-105" points="28.94 7.33 22 9.06 22 9 28.94 7.27 28.94 7.33"/><polygon class="cls-106" points="28.94 7.38 22 9.11 22 9.06 28.94 7.33 28.94 7.38"/><polygon class="cls-106" points="28.94 7.43 22 9.16 22 9.11 28.94 7.38 28.94 7.43"/><polygon class="cls-106" points="28.94 7.49 22 9.22 22 9.16 28.94 7.43 28.94 7.49"/><polygon class="cls-107" points="28.94 7.54 22 9.27 22 9.22 28.94 7.49 28.94 7.54"/><polygon class="cls-107" points="28.94 7.6 22 9.33 22 9.27 28.94 7.54 28.94 7.6"/><polygon class="cls-107" points="28.94 7.65 22 9.38 22 9.33 28.94 7.6 28.94 7.65"/><polygon class="cls-107" points="28.94 7.7 22 9.44 22 9.38 28.94 7.65 28.94 7.7"/><polygon class="cls-107" points="28.94 7.76 22 9.49 22 9.44 28.94 7.7 28.94 7.76"/><polygon class="cls-3" points="28.94 7.81 22 9.54 22 9.49 28.94 7.76 28.94 7.81"/><polygon class="cls-3" points="28.94 7.87 22 9.6 22 9.54 28.94 7.81 28.94 7.87"/><polygon class="cls-3" points="28.94 7.92 22 9.65 22 9.6 28.94 7.87 28.94 7.92"/><polygon class="cls-3" points="28.94 7.97 22 9.71 22 9.65 28.94 7.92 28.94 7.97"/><polygon class="cls-3" points="28.94 8.03 22 9.76 22 9.71 28.94 7.97 28.94 8.03"/><polygon class="cls-3" points="28.94 8.08 22 9.81 22 9.76 28.94 8.03 28.94 8.08"/><polygon class="cls-3" points="28.94 8.14 22 9.87 22 9.81 28.94 8.08 28.94 8.14"/><polygon class="cls-3" points="28.94 8.19 22 9.92 22 9.87 28.94 8.14 28.94 8.19"/><polygon class="cls-3" points="28.94 8.24 22 9.98 22 9.92 28.94 8.19 28.94 8.24"/><polygon class="cls-3" points="28.94 8.3 22 10.03 22 9.98 28.94 8.24 28.94 8.3"/><polygon class="cls-3" points="28.94 8.35 22 10.08 22 10.03 28.94 8.3 28.94 8.35"/><polygon class="cls-3" points="28.94 8.41 22 10.14 22 10.08 28.94 8.35 28.94 8.41"/><polygon class="cls-3" points="28.94 8.49 22 10.22 22 10.14 28.94 8.41 28.94 8.49"/><polygon class="cls-3" points="28.94 8.57 22 10.3 22 10.22 28.94 8.49 28.94 8.57"/><polygon class="cls-4" points="28.94 8.66 22 10.39 22 10.3 28.94 8.57 28.94 8.66"/><polygon class="cls-4" points="28.94 8.74 22 10.47 22 10.39 28.94 8.66 28.94 8.74"/><polygon class="cls-5" points="28.94 8.82 22 10.55 22 10.47 28.94 8.74 28.94 8.82"/><polygon class="cls-6" points="28.94 8.9 22 10.64 22 10.55 28.94 8.82 28.94 8.9"/><polygon class="cls-7" points="28.94 8.99 22 10.72 22 10.64 28.94 8.9 28.94 8.99"/><polygon class="cls-7" points="28.94 9.07 22 10.8 22 10.72 28.94 8.99 28.94 9.07"/><polygon class="cls-8" points="28.94 9.15 22 10.88 22 10.8 28.94 9.07 28.94 9.15"/><polygon class="cls-9" points="28.94 9.24 22 10.97 22 10.88 28.94 9.15 28.94 9.24"/><polygon class="cls-10" points="28.94 9.32 22 11.05 22 10.97 28.94 9.24 28.94 9.32"/><polygon class="cls-11" points="28.94 9.4 22 11.13 22 11.05 28.94 9.32 28.94 9.4"/><polygon class="cls-12" points="28.94 9.49 22 11.22 22 11.13 28.94 9.4 28.94 9.49"/><polygon class="cls-13" points="28.94 9.57 22 11.3 22 11.22 28.94 9.49 28.94 9.57"/><polygon class="cls-14" points="28.94 9.65 22 11.38 22 11.3 28.94 9.57 28.94 9.65"/><polygon class="cls-15" points="28.94 9.73 22 11.46 22 11.38 28.94 9.65 28.94 9.73"/><polygon class="cls-16" points="28.94 9.82 22 11.55 22 11.46 28.94 9.73 28.94 9.82"/><polygon class="cls-17" points="28.94 9.9 22 11.63 22 11.55 28.94 9.82 28.94 9.9"/><polygon class="cls-18" points="28.94 9.98 22 11.71 22 11.63 28.94 9.9 28.94 9.98"/><polygon class="cls-19" points="28.94 10.07 22 11.8 22 11.71 28.94 9.98 28.94 10.07"/><polygon class="cls-20" points="28.94 10.15 22 11.88 22 11.8 28.94 10.07 28.94 10.15"/><polygon class="cls-108" points="28.94 10.23 22 11.96 22 11.88 28.94 10.15 28.94 10.23"/><polygon class="cls-21" points="28.94 10.31 22 12.04 22 11.96 28.94 10.23 28.94 10.31"/><polygon class="cls-22" points="28.94 10.4 22 12.13 22 12.04 28.94 10.31 28.94 10.4"/><polygon class="cls-24" points="28.94 10.48 22 12.21 22 12.13 28.94 10.4 28.94 10.48"/><polygon class="cls-25" points="28.94 10.56 22 12.29 22 12.21 28.94 10.48 28.94 10.56"/><polygon class="cls-26" points="28.94 10.65 22 12.38 22 12.29 28.94 10.56 28.94 10.65"/><polygon class="cls-27" points="28.94 10.73 22.03 12.45 22 12.45 22 12.38 28.94 10.65 28.94 10.73"/><polygon class="cls-109" points="28.94 10.81 22.36 12.45 22.03 12.45 28.94 10.73 28.94 10.81"/><polygon class="cls-28" points="28.94 10.89 22.69 12.45 22.36 12.45 28.94 10.81 28.94 10.89"/><polygon class="cls-30" points="28.94 10.98 23.02 12.45 22.69 12.45 28.94 10.89 28.94 10.98"/><polygon class="cls-110" points="28.94 11.06 23.36 12.45 23.02 12.45 28.94 10.98 28.94 11.06"/><polygon class="cls-111" points="28.94 11.14 23.69 12.45 23.36 12.45 28.94 11.06 28.94 11.14"/><polygon class="cls-112" points="28.94 11.23 24.02 12.45 23.69 12.45 28.94 11.14 28.94 11.23"/><polygon class="cls-113" points="28.94 11.31 24.36 12.45 24.02 12.45 28.94 11.23 28.94 11.31"/><polygon class="cls-114" points="28.94 11.39 24.69 12.45 24.36 12.45 28.94 11.31 28.94 11.39"/><polygon class="cls-115" points="28.94 11.47 25.02 12.45 24.69 12.45 28.94 11.39 28.94 11.47"/><polygon class="cls-116" points="28.94 11.56 25.35 12.45 25.02 12.45 28.94 11.47 28.94 11.56"/><polygon class="cls-117" points="28.94 11.64 25.68 12.45 25.35 12.45 28.94 11.56 28.94 11.64"/><polygon class="cls-117" points="25.68 12.45 28.94 11.64 28.94 12.45 25.68 12.45"/></g><g class="cls-118"><rect class="cls-65" x="24.59" y="9.35" width="2.31" height="0.04"/><rect class="cls-65" x="24.59" y="9.39" width="2.31" height="0.04"/><rect class="cls-65" x="24.59" y="9.43" width="2.31" height="0.04"/><rect class="cls-119" x="24.59" y="9.48" width="2.31" height="0.04"/><rect class="cls-119" x="24.59" y="9.52" width="2.31" height="0.04"/><rect class="cls-120" x="24.59" y="9.57" width="2.31" height="0.04"/><rect class="cls-66" x="24.59" y="9.61" width="2.31" height="0.04"/><rect class="cls-66" x="24.59" y="9.65" width="2.31" height="0.04"/><rect class="cls-121" x="24.59" y="9.7" width="2.31" height="0.04"/><rect class="cls-67" x="24.59" y="9.74" width="2.31" height="0.04"/><rect class="cls-67" x="24.59" y="9.79" width="2.31" height="0.04"/><rect class="cls-122" x="24.59" y="9.83" width="2.31" height="0.04"/><rect class="cls-123" x="24.59" y="9.88" width="2.31" height="0.04"/><rect class="cls-68" x="24.59" y="9.92" width="2.31" height="0.04"/><rect class="cls-68" x="24.59" y="9.96" width="2.31" height="0.04"/><rect class="cls-124" x="24.59" y="10.01" width="2.31" height="0.04"/><rect class="cls-125" x="24.59" y="10.05" width="2.31" height="0.04"/><rect class="cls-69" x="24.59" y="10.1" width="2.31" height="0.04"/><rect class="cls-126" x="24.59" y="10.14" width="2.31" height="0.04"/><rect class="cls-70" x="24.59" y="10.18" width="2.31" height="0.04"/><rect class="cls-127" x="24.59" y="10.23" width="2.31" height="0.04"/><rect class="cls-71" x="24.59" y="10.27" width="2.31" height="0.04"/><rect class="cls-128" x="24.59" y="10.32" width="2.31" height="0.04"/><rect class="cls-129" x="24.59" y="10.36" width="2.31" height="0.04"/><rect class="cls-129" x="24.59" y="10.41" width="2.31" height="0.04"/><rect class="cls-72" x="24.59" y="10.45" width="2.31" height="0.04"/><rect class="cls-130" x="24.59" y="10.49" width="2.31" height="0.04"/><rect class="cls-131" x="24.59" y="10.54" width="2.31" height="0.04"/><rect class="cls-132" x="24.59" y="10.58" width="2.31" height="0.04"/><rect class="cls-74" x="24.59" y="10.63" width="2.31" height="0.04"/><rect class="cls-133" x="24.59" y="10.67" width="2.31" height="0.04"/><rect class="cls-134" x="24.59" y="10.71" width="2.31" height="0.04"/><rect class="cls-76" x="24.59" y="10.76" width="2.31" height="0.04"/><rect class="cls-135" x="24.59" y="10.8" width="2.31" height="0.04"/><rect class="cls-77" x="24.59" y="10.85" width="2.31" height="0.04"/><rect class="cls-136" x="24.59" y="10.89" width="2.31" height="0.04"/><rect class="cls-78" x="24.59" y="10.94" width="2.31" height="0.04"/><rect class="cls-137" x="24.59" y="10.98" width="2.31" height="0.04"/><rect class="cls-79" x="24.59" y="11.02" width="2.31" height="0.04"/><rect class="cls-138" x="24.59" y="11.07" width="2.31" height="0.04"/><rect class="cls-139" x="24.59" y="11.11" width="2.31" height="0.04"/><rect class="cls-140" x="24.59" y="11.16" width="2.31" height="0.04"/><rect class="cls-81" x="24.59" y="11.2" width="2.31" height="0.04"/><rect class="cls-141" x="24.59" y="11.25" width="2.31" height="0.04"/><rect class="cls-83" x="24.59" y="11.29" width="2.31" height="0.04"/><rect class="cls-142" x="24.59" y="11.33" width="2.31" height="0.04"/><rect class="cls-84" x="24.59" y="11.38" width="2.31" height="0.04"/><rect class="cls-85" x="24.59" y="11.42" width="2.31" height="0.04"/><rect class="cls-143" x="24.59" y="11.47" width="2.31" height="0.04"/><rect class="cls-87" x="24.59" y="11.51" width="2.31" height="0.04"/><rect class="cls-88" x="24.59" y="11.55" width="2.31" height="0.04"/><rect class="cls-144" x="24.59" y="11.6" width="2.31" height="0.04"/><rect class="cls-89" x="24.59" y="11.64" width="2.31" height="0.04"/><rect class="cls-90" x="24.59" y="11.69" width="2.31" height="0.04"/><rect class="cls-91" x="24.59" y="11.73" width="2.31" height="0.04"/><rect class="cls-93" x="24.59" y="11.78" width="2.31" height="0.04"/><rect class="cls-145" x="24.59" y="11.82" width="2.31" height="0.04"/><rect class="cls-94" x="24.59" y="11.86" width="2.31" height="0.04"/><rect class="cls-95" x="24.59" y="11.91" width="2.31" height="0.04"/><rect class="cls-97" x="24.59" y="11.95" width="2.31" height="0.04"/><rect class="cls-98" x="24.59" y="12" width="2.31" height="0.04"/><rect class="cls-99" x="24.59" y="12.04" width="2.31" height="0.04"/><rect class="cls-100" x="24.59" y="12.08" width="2.31" height="0.04"/><rect class="cls-102" x="24.59" y="12.13" width="2.31" height="0.04"/><rect class="cls-103" x="24.59" y="12.17" width="2.31" height="0.04"/><rect class="cls-104" x="24.59" y="12.22" width="2.31" height="0.04"/><rect class="cls-105" x="24.59" y="12.26" width="2.31" height="0.04"/><rect class="cls-107" x="24.59" y="12.31" width="2.31" height="0.04"/><rect class="cls-3" x="24.59" y="12.35" width="2.31" height="0.04"/><rect class="cls-3" x="24.59" y="12.39" width="2.31"/></g></g></g></svg>