<svg xmlns="http://www.w3.org/2000/svg" viewBox="0 0 47.09 25.76"><defs><style>.cls-1{fill:#fefefe;}.cls-2{fill:#fcfcfc;}.cls-3{fill:#f8f9f9;}.cls-4{fill:#fcfdfd;}.cls-5{fill:#f4f5f5;}.cls-6{fill:#6a7f77;}.cls-7{fill:#647b72;}.cls-8{fill:#e6eae8;}.cls-9{fill:#798d85;}.cls-10{fill:#d7dddb;}.cls-11{fill:#6f847c;}.cls-12{fill:#dee3e1;}.cls-13{fill:#466056;}.cls-14{fill:#476157;}.cls-15{fill:#415d52;}.cls-16{fill:#435e53;}.cls-17{fill:#3d594e;}.cls-18{fill:#486258;}.cls-19{fill:#496359;}.cls-20{fill:#566f64;}.cls-21{fill:#60776e;}.cls-22{fill:#61776e;}.cls-23{fill:#61786e;}.cls-24{fill:#637a71;}.cls-25{fill:#4a6459;}.cls-26{fill:#5f776d;}.cls-27{fill:#566e64;}.cls-28{fill:#4a645a;}.cls-29{fill:#687e75;}.cls-30{fill:#466256;}.cls-31{fill:#496459;}.cls-32{fill:#667c73;}.cls-33{fill:#597168;}.cls-34{fill:#687e76;}.cls-35{fill:#466257;}.cls-36{fill:#697f76;}.cls-37{fill:#486257;}.cls-38{fill:#647a71;}.cls-39{fill:#6c8178;}.cls-40{fill:#72877f;}.cls-41{fill:#70857c;}.cls-42{fill:#546c62;}.cls-43{fill:#6b8178;}.cls-44{fill:#506a60;}.cls-45{fill:#4e685e;}.cls-46{fill:#486358;}.cls-47{fill:#536d62;}.cls-48{fill:#445f55;}.cls-49{fill:#455f55;}.cls-50{fill:#466156;}.cls-51{fill:#627970;}.cls-52{fill:#71867e;}.cls-53{fill:#445f53;}.cls-54{fill:#476257;}.cls-55{fill:#677e75;}.cls-56{fill:#597167;}.cls-57{fill:#4f695f;}.cls-58{fill:#546d64;}.cls-59{fill:#456155;}.cls-60{fill:#4c665c;}.cls-61{fill:#3f5b50;}.cls-62{fill:#637a70;}.cls-63{fill:#6b8078;}.cls-64{fill:#405c50;}.cls-65{fill:#446055;}.cls-66{fill:#50695f;}.cls-67{fill:#546d63;}.cls-68{fill:#5a7268;}.cls-69{fill:#556e64;}.cls-70{fill:#445f54;}.cls-71{fill:#fdfdfd;}.cls-72{fill:#425d53;}.cls-73{fill:#425e53;}.cls-74{fill:#fafafa;}</style></defs><g id="Layer_2" data-name="Layer 2"><g id="Layer_1-2" data-name="Layer 1"><path class="cls-1" d="M23.53,0H46.4c.22,0,.52-.11.65.09s-.11.49-.26.65a4.77,4.77,0,0,0-1.12,3.69c.07,2.68,0,5.37,0,8.06,0,.58,0,.78-.76.62a94.4,94.4,0,0,0-42.63,0c-.55.12-.67,0-.66-.53.05-3,.05-6,.12-9a2.53,2.53,0,0,0-.65-1.94C.76,1.29.45.86.12.44-.08.18,0,0,.32,0H23.53Z"/><path class="cls-1" d="M35.39,12.83c.19-.15.34-.35.65-.31,2.1.27,4.21.53,6.29,1a1.34,1.34,0,0,1,.23.13,2.15,2.15,0,0,1-.34,1.08c-.14.27-.41.44-.53.73-.06.1-.13.21-.18.31-.31.58-.8,1-1.11,1.6a3.68,3.68,0,0,0-.43.45,2.13,2.13,0,0,0-.44.55,2.57,2.57,0,0,0-.78.89.8.8,0,0,1-.13.13,1.9,1.9,0,0,0-.53.4,10.51,10.51,0,0,0-1.34,1.05A12.9,12.9,0,0,1,35,22c-.11.06-.22.13-.33.18-.62.39-1.29.7-1.91,1.08a6.57,6.57,0,0,1-.61.26,2.61,2.61,0,0,0-.27.06c-.18.09-.4.1-.56.25a.56.56,0,0,1-.15.1,3.34,3.34,0,0,1-.44.17c-.31.11-.62.22-.93.31a2.73,2.73,0,0,1-.69.14c-.33.08-.66.13-1,.22a1.17,1.17,0,0,0-.37.08c-.21.11-.43.05-.64.1s-.27.16-.43.19a2.7,2.7,0,0,1-.41-.05,4.1,4.1,0,0,0-1.21.1c-.89,0-1.79,0-2.69,0A5.9,5.9,0,0,0,21,25h-.34l-1.56-.34c-.24-.05-.47-.12-.71-.18a1.53,1.53,0,0,1-.29-.07,2.63,2.63,0,0,0-1.37-.5c-.75-.12-1.41-.53-2.15-.7-.61-.43-1.36-.64-1.95-1.1-.14-.07-.23-.21-.38-.27a1.87,1.87,0,0,0-.4-.2,1.12,1.12,0,0,0-.59-.39,4.16,4.16,0,0,1-1.05-.86A1.5,1.5,0,0,0,9.48,20a15.65,15.65,0,0,0-2-2.08,2.39,2.39,0,0,0-.7-.85c-.06-.31-.36-.4-.56-.58a3.42,3.42,0,0,1-.45-.92A1.1,1.1,0,0,0,5.47,15,2.13,2.13,0,0,1,5,13.93c-.11-.27-.19-.48.26-.56,2-.37,4-.61,6-.87.25,0,.46,0,.55.28s.31.25.48.36l.16.08a1,1,0,0,0,.47.24,1.17,1.17,0,0,1,.59.59.87.87,0,0,0,.25.47.84.84,0,0,0,.61.35.63.63,0,0,1,.21.19,2.22,2.22,0,0,0,.2.41.91.91,0,0,0,.42.3c.24.06.42.25.66.32l.47.29a2.24,2.24,0,0,0,.81.42c.39.17.68.58,1.17.53.24.08.47.19.71.26a4.67,4.67,0,0,0,.9.27,2.43,2.43,0,0,0,.66,0,.59.59,0,0,1,.3,0,2.39,2.39,0,0,0,1.49.41,7.94,7.94,0,0,0,2.62,0l.2,0a3.13,3.13,0,0,0,.81-.14,3.25,3.25,0,0,0,.69-.14,3.17,3.17,0,0,0,.67-.13c.19,0,.37-.12.56-.16a6.3,6.3,0,0,0,1.21-.38,3.09,3.09,0,0,1,.54-.17,1.44,1.44,0,0,0,.79-.39c.11,0,.21-.11.32-.16s.44-.16.58-.36a1.81,1.81,0,0,1,.32-.3c.17-.08.3-.21.46-.28a.56.56,0,0,0,.36-.19c.05-.06.09-.14.14-.21a.46.46,0,0,1,.12-.12l.16-.05a.52.52,0,0,0,.31-.23l.09-.24a.61.61,0,0,1,.19-.2.69.69,0,0,0,.33-.28A.8.8,0,0,1,34,14a.79.79,0,0,0,.44-.42.49.49,0,0,1,.12-.13,1.61,1.61,0,0,0,.36-.27C35.06,13.1,35.2,12.93,35.39,12.83Z"/><path class="cls-2" d="M33.59,14.7l-.08.05a2.2,2.2,0,0,1-.75.57l0,0a2.14,2.14,0,0,1-.49.41c-.29,0-.46.27-.7.39a4.62,4.62,0,0,1-.41.34c-.19,0-.31.2-.48.26-.35.07-.57.38-.92.46s-.41.16-.63.22c-.52.21-1.07.35-1.6.53a3.8,3.8,0,0,0-.58.15,1.5,1.5,0,0,0-.59.14,2.87,2.87,0,0,0-.82.13c-.14,0-.29,0-.44,0a1.38,1.38,0,0,1-.45.05c-.68,0-1.37,0-2.05,0-.19,0-.38-.07-.58-.07s-.53-.06-.79-.12a1,1,0,0,1-.54-.16h-.18a.39.39,0,0,1-.18,0l-1-.24c-.32-.08-.61-.25-.93-.3s-.84-.36-1.25-.56a3.63,3.63,0,0,0-.93-.45,1.4,1.4,0,0,0-.47-.28,2,2,0,0,0-.86-.49c-.17-.18-.32-.38-.5-.55l-.1-.12c-.31,0-.43-.31-.64-.47a3.51,3.51,0,0,0-.4-.37,1.75,1.75,0,0,0-.51-.54c-.12-.12-.24-.25-.37-.36s-.25-.39-.33-.6-.28-.42.09-.47A20.1,20.1,0,0,1,16,12,7.33,7.33,0,0,1,14.11,13c-.56.25-.54.48-.12.86a14.08,14.08,0,0,0,9.24,3.77A14,14,0,0,0,33.2,14c.63-.56.62-.57-.11-.94l-1.83-.93c.08-.25.27-.21.4-.2a30.19,30.19,0,0,1,3.3.3c.3,0,.51.11.31.47a1.64,1.64,0,0,1-.35.58l-.36.38v0l-.56.57v0A2.58,2.58,0,0,0,33.59,14.7Z"/><path class="cls-3" d="M28.9,25.09a6.17,6.17,0,0,1-1.48.3c-.28.14-.6,0-.87.12l-.37,0c-.55.16-1.14-.07-1.7.13h0a5.17,5.17,0,0,1-1.57,0,20.51,20.51,0,0,1-9.34-2.34A22.35,22.35,0,0,1,4.27,14.5a.23.23,0,0,1-.06-.12c-.06-.3-.58-.64-.21-.88s.47.38.73.57a7.47,7.47,0,0,1,1,1.26,3.46,3.46,0,0,0,.72,1.17,5,5,0,0,1,.46.57c.18.32.54.5.71.83a23.71,23.71,0,0,0,2,2c.65.36,1.07,1,1.78,1.32.17.06.28.22.44.3a1.51,1.51,0,0,0,.46.27,1.34,1.34,0,0,0,.45.29,15.7,15.7,0,0,0,1.74,1,13.22,13.22,0,0,0,2.46.84c.52.16,1,.42,1.54.53l.41.08a6.89,6.89,0,0,0,1.35.28,3,3,0,0,0,1.07.13c.19.05.38.06.56.1a13.94,13.94,0,0,0,3.65,0,1.71,1.71,0,0,1,.45,0,4.82,4.82,0,0,0,.76,0,.7.7,0,0,1,.4-.12,4.19,4.19,0,0,0,1.31-.27,5.46,5.46,0,0,0,.87-.2,1.79,1.79,0,0,0,.56-.15c.28-.08.55-.18.82-.28s.42-.15.63-.21.77-.26,1.12-.46l.34-.16a.9.9,0,0,1,.47-.13.38.38,0,0,1,.27.28,13.84,13.84,0,0,1-3.19,1.37A13.91,13.91,0,0,0,28.9,25.09Z"/><path class="cls-4" d="M21.06,13.77c.79-.28,1.47.1,1.85-.29a4.29,4.29,0,0,0,.58-1.43c.07,0,.14.06.14.08.21,1.21.83,1.86,2.13,1.45,0,.29-.12.33-.21.4-1,.79-1,.78-.66,2a.53.53,0,0,1,0,.5c-.86-1.06-1.77-1.13-2.78,0C22.7,15.2,22.61,14.28,21.06,13.77Z"/><path class="cls-5" d="M33.49,23.32l-.31-.16c-.06-.21.07-.29.23-.34a8.46,8.46,0,0,0,1.31-.74c.11-.07.23-.11.34-.19a13.78,13.78,0,0,0,2.9-2.2,2.6,2.6,0,0,0,.62-.53h0a2.7,2.7,0,0,0,.9-.94,1.64,1.64,0,0,1,.28-.37c.21-.17.39-.39.59-.58a13.2,13.2,0,0,0,1-1.33,2.23,2.23,0,0,1,.26-.48,6.08,6.08,0,0,0,.47-.66c.25-.27.32-.67.65-.88.07-.32.31-.53.58-.4s0,.44-.07.62a21.92,21.92,0,0,1-8.7,8.72C34.2,23.05,33.92,23.37,33.49,23.32Z"/><path class="cls-6" d="M5.55,15.46a4.9,4.9,0,0,1-.82-1.39c.14,0,.24,0,.27-.14l.65,1c.11.05.12.15.14.25A.33.33,0,0,1,5.55,15.46Z"/><path class="cls-7" d="M42.71,13.93a2.42,2.42,0,0,1-.53,1c-.14-.07-.23-.15-.16-.32l.54-1Z"/><path class="cls-8" d="M28.9,25.09a2.32,2.32,0,0,1,1.4-.4A4.58,4.58,0,0,1,28.9,25.09Z"/><path class="cls-9" d="M34.83,13.24a.78.78,0,0,1,.44-.53l.12.12c0,.32-.2.41-.43.51A.19.19,0,0,1,34.83,13.24Z"/><path class="cls-8" d="M24.48,25.66a3.76,3.76,0,0,1,1.7-.13A4.06,4.06,0,0,1,24.48,25.66Z"/><path class="cls-10" d="M22.93,25.67a5.51,5.51,0,0,1,1.57,0A3.47,3.47,0,0,1,22.93,25.67Z"/><path class="cls-11" d="M12,12.7a1.27,1.27,0,0,1,.44.48c.09.17,0,.19-.15.2h-.1c-.14-.16-.38-.26-.32-.54Z"/><path class="cls-2" d="M11.91,12.83l.32.54a.61.61,0,0,1-.44-.59A.21.21,0,0,1,11.91,12.83Z"/><path class="cls-12" d="M26.55,25.51a1.15,1.15,0,0,1,.87-.12A1.62,1.62,0,0,1,26.55,25.51Z"/><path class="cls-13" d="M7.7,6.29c0,1.08,0,2.16,0,3.24A1.29,1.29,0,0,1,6.53,11c-.83.18-1.67.34-2.51.49s-1.13-.12-1.13-.93c0-2.46,0-4.92,0-7.38,0-.86.3-1.15,1.17-1.18S5.7,2,6.53,2s1.19.29,1.19,1.21v3.1Z"/><path class="cls-13" d="M43.86,5.33V7.61c0,.43-.09.79-.66.74-.38,0-.27.19-.21.39.25.82.49,1.63.75,2.44.14.41,0,.48-.38.41-.6-.11-1.13-.2-1.25-1a16.45,16.45,0,0,0-.61-2c-.09-.35-.26-.54-.62-.5s-.23.38-.24.59c0,.62,0,1.24,0,1.86,0,.34,0,.55-.48.46-1.23-.22-1.07-.05-1.08-1.26,0-2.34,0-4.68-.07-7,0-.51.09-.74.67-.72,1,0,2,0,3,0,.82,0,1.11.31,1.13,1.14s0,1.47,0,2.2Z"/><path class="cls-13" d="M37.72,6.27v3c0,.93-.23,1.17-1.14,1.08s-1.73-.19-2.59-.31-1.1-.47-1.11-1.3c0-1.85,0-3.71,0-5.57,0-1,.22-1.2,1.22-1.22q1.17,0,2.34,0c1,0,1.27.26,1.28,1.26s0,2,0,3Z"/><path class="cls-13" d="M20.46,5.75c0-1,0-2.11,0-3.16,0-.44.11-.63.58-.62,1.05,0,2.11,0,3.17,0,.83,0,1.05.25,1.05,1.09,0,1.74,0,3.49,0,5.23,0,.89-.26,1.15-1.15,1.17s-2,0-3,0c-.56,0-.66-.2-.64-.68,0-1,0-2.07,0-3.1Z"/><path class="cls-13" d="M27.8,9.52c-1,0-1.15-.23-1.15-1.14,0-1.83,0-3.66,0-5.49A.75.75,0,0,1,27.39,2a21.9,21.9,0,0,1,3.24,0,.89.89,0,0,1,.88,1c0,2,0,4,0,5.92a.74.74,0,0,1-.8.84,15.5,15.5,0,0,1-2.81-.2c.05-.09.14-.07.23-.08C28,9.46,27.9,9.43,27.8,9.52Z"/><path class="cls-13" d="M9.12,3.58a6.28,6.28,0,0,0,0-.75C9,2.14,9.24,1.92,10,2c.55,0,.75.15.73.74,0,1.92,0,3.85,0,5.77,0,.39-.08.8.55.79.88,0,1.07-.14,1.08-.84l0-2.2a27.11,27.11,0,0,0,0-4.13L12.4,2C13.93,1.78,14,1.8,14,3.3V8.6c0,1-.29,1.35-1.31,1.48s-1.78.26-2.67.31-.93-.19-.86-1C9.16,7.45,9.15,5.52,9.12,3.58Z"/><path class="cls-14" d="M16.33,6.28c0-.89,0-1.79,0-2.68,0-.44-.12-.63-.58-.6-.19,0-.56.15-.51-.23s0-.76.51-.78c1,0,1.93,0,2.9,0,.5,0,.47.47.5.77s-.34.26-.52.24c-.61-.07-.66.25-.65.73C18,5.5,18,7.27,18,9c0,1-.67.57-1.09.66s-.58-.25-.57-.66C16.34,8.12,16.33,7.2,16.33,6.28Z"/><path class="cls-15" d="M9.12,3.58a21.74,21.74,0,0,1,0,5.81C9,7.45,9,5.52,9.12,3.58Z"/><path class="cls-16" d="M12.35,2.08a10.63,10.63,0,0,1,0,4.13A37.93,37.93,0,0,1,12.35,2.08Z"/><path class="cls-17" d="M27.8,9.52a.84.84,0,0,1,.83,0l-.72,0-.06,0Z"/><path class="cls-14" d="M22.64,21.82c.06-.54.12-.9.13-1.27s0-.6.48-.57.45.33.41.68c-.1.82-.17,1.64-.27,2.45,0,.19.16.53-.23.53s-.62.12-.81-.31c-.28-.61-.65-1.19-1-1.89A3.92,3.92,0,0,0,21,23.11c0,.44-.32.3-.54.29s-.45,0-.39-.39c.13-.9.2-1.82.32-2.72,0-.18-.17-.58.22-.51s.85-.19,1.08.35A7.25,7.25,0,0,0,22.64,21.82Z"/><path class="cls-14" d="M36.33,18.77a.84.84,0,0,1-.62-.25c-.43-.42-.84-.84-1.26-1.27a.9.9,0,0,1,0-1.34,7.17,7.17,0,0,1,.72-.74,1,1,0,0,1,1.54,0c.24.21.46.45.68.67s.38.54.78.2c.2-.17.44,0,.59.2a.31.31,0,0,1-.08.48c-.66.43-1,1.19-1.59,1.66C36.87,18.57,36.66,18.79,36.33,18.77Z"/><path class="cls-14" d="M30.65,18.47c.2,0,.18.29.28.45.21.33.2.85.9.51s.45-.72.17-1.11-.27-.53.17-.71.45-.14.61.2A25.46,25.46,0,0,0,34,20.19c.19.34.16.49-.19.68s-.46.11-.64-.23-.12-.87-.75-.62-.75.38-.32,1c.32.48.15.66-.27.85-.26.12-.34.05-.46-.19-.44-.87-.92-1.73-1.39-2.6C29.87,18.89,30.27,18.45,30.65,18.47Z"/><path class="cls-18" d="M28,20.46a5.55,5.55,0,0,0-1.42.05c-.41.08-.54.29-.44.68s.14.62.22.93a.46.46,0,0,0,.62.37c.32-.06.61-.16.49-.57s.29-.35.5-.43.33.12.38.36c.18,1,.05,1.25-1,1.43a7.56,7.56,0,0,1-.82.07.85.85,0,0,1-1-.8c-.08-.57-.2-1.13-.28-1.69A.83.83,0,0,1,26,19.8l.81-.18C27.71,19.46,27.71,19.46,28,20.46Z"/><path class="cls-18" d="M15.35,20.1a7.35,7.35,0,0,0,1-1.08c.42-.68.81-.44,1.29-.07a19.08,19.08,0,0,0-2.35,2.5c-.21.29-.41.15-.58,0s-.7-.1-.59-.6a18.77,18.77,0,0,0,.61-3.16c0-.18.14-.26.27-.15s.7.09.59.59-.26,1.24-.39,1.87Z"/><path class="cls-18" d="M10.83,13.76l.75.78a21,21,0,0,0-1.86,1.64c-.26.22-.32.4,0,.66a5.71,5.71,0,0,0,1.17,1c-.39.48-.74.6-1.17,0S8.42,17,8.44,16.39s.88-1,1.35-1.46A4.38,4.38,0,0,0,10.83,13.76Z"/><path class="cls-19" d="M18.15,22.85c-.56,0-.7-.26-.54-.78.28-.87.57-1.74.78-2.63.11-.46.36-.25.56-.19s.51,0,.35.45c-.34.95-.59,1.92-.87,2.89C18.39,22.76,18.39,22.91,18.15,22.85Z"/><path class="cls-19" d="M11.84,19.71a3.93,3.93,0,0,1-.55-.47c-.2-.24.12-.29.21-.41.57-.76,1.18-1.48,1.7-2.26.23-.33.37-.2.52,0s.59.19.24.6c-.64.77-1.24,1.59-1.86,2.39C12,19.61,12,19.76,11.84,19.71Z"/><path class="cls-20" d="M38,19.77a10.41,10.41,0,0,1-2.94,2.29c-.18,0-.26-.06-.26-.23C36,21.2,36.92,20.26,38,19.54A.18.18,0,0,1,38,19.77Z"/><path class="cls-21" d="M9.55,20a8.82,8.82,0,0,1-2.08-2.1c.06-.06.07-.17.18-.19a16.48,16.48,0,0,1,1.93,2.07A.18.18,0,0,1,9.55,20Z"/><path class="cls-7" d="M16.86,24.17a9.49,9.49,0,0,1-2.51-1c0-.1.11-.12.18-.15.56-.05,1,.37,1.46.49.24.06.46.23.72.2A.45.45,0,0,1,17,24,.26.26,0,0,1,16.86,24.17Z"/><path class="cls-22" d="M34.83,22.2a7,7,0,0,1-1.65,1l-.41.15c-.13,0-.2-.13-.14-.28l1.95-1C34.69,22,34.8,22.06,34.83,22.2Z"/><path class="cls-23" d="M24.76,18.21h.41a.25.25,0,0,1,.08.14.33.33,0,0,1-.07.16h0a15,15,0,0,1-3,0c-.52,0-1.09.09-1.48-.43h.59c.24.14.53,0,.77.13h.48A7.79,7.79,0,0,0,24.76,18.21Z"/><path class="cls-24" d="M9.55,20l0-.22c.75.21,1.12,1,1.78,1.3a.21.21,0,0,1,0,.31A6,6,0,0,1,9.55,20Z"/><path class="cls-21" d="M14.53,23l-.18.15a6.63,6.63,0,0,1-1.76-.94.23.23,0,0,1,0-.32A11.22,11.22,0,0,1,14.53,23Z"/><path class="cls-25" d="M28.48,24.78a2.29,2.29,0,0,1-1.38.28c-.13-.08-.3,0-.43-.1a.41.41,0,0,1,.3-.27c.21-.17.49,0,.71-.13h.4C28.28,24.51,28.46,24.51,28.48,24.78Z"/><path class="cls-26" d="M41.48,16a5,5,0,0,1-1.09,1.41.23.23,0,0,1-.19-.19l1.14-1.61C41.5,15.7,41.47,15.86,41.48,16Z"/><path class="cls-27" d="M22.31,24.94h2.83a.17.17,0,0,1,.19,0,.23.23,0,0,1,.06.19.19.19,0,0,1-.12.16.62.62,0,0,1-.33,0,20.36,20.36,0,0,0-2.47,0,.93.93,0,0,1-.44,0,.2.2,0,0,1-.12-.17.27.27,0,0,1,.08-.19A.4.4,0,0,1,22.31,24.94Z"/><path class="cls-28" d="M17.18,16.81a4,4,0,0,1,1.23.54c0,.14,0,.21-.16.17-.51,0-.84-.33-1.24-.55C17,16.84,17,16.77,17.18,16.81Z"/><path class="cls-29" d="M27.49,17.78l1.68-.57a.21.21,0,0,1,0,.31,3.1,3.1,0,0,1-1.24.42C27.8,17.85,27.58,18,27.49,17.78Z"/><path class="cls-30" d="M16.86,24.17l0-.19c.49-.26.84.15,1.24.27l.28.05a.24.24,0,0,1,0,.36A7.66,7.66,0,0,1,16.86,24.17Z"/><path class="cls-31" d="M20.19,25a3.77,3.77,0,0,1-1.41-.28c0-.16.22-.17.31-.27l1.57.37C20.56,25,20.36,25,20.19,25Z"/><path class="cls-32" d="M39.6,18.23c-.21.46-.44.9-1,.94,0-.51.5-.68.8-1A.19.19,0,0,1,39.6,18.23Z"/><path class="cls-33" d="M5.55,15.46l.17-.3c.23,0,.13.22.25.28l.43.92a.21.21,0,0,1,0,.25A3.69,3.69,0,0,1,5.55,15.46Z"/><path class="cls-33" d="M32.48,23.44,31.39,24c-.09-.11-.28-.11-.31-.28a.42.42,0,0,1,0-.1,2.92,2.92,0,0,1,.71-.28h.25A.31.31,0,0,1,32.48,23.44Z"/><path class="cls-32" d="M22.19,18.49h3A8.4,8.4,0,0,1,22.19,18.49Z"/><path class="cls-34" d="M7.65,17.74l-.18.19a1.76,1.76,0,0,1-.7-.78c0-.18,0-.25.22-.21A3.39,3.39,0,0,1,7.65,17.74Z"/><path class="cls-35" d="M28.48,24.78l-.4-.23,1-.26c.09.08.22.13.27.26C29,24.64,28.82,24.92,28.48,24.78Z"/><path class="cls-3" d="M18.12,24.25c-.45.11-.77-.46-1.24-.27l-.17-.25A1.73,1.73,0,0,1,18.12,24.25Z"/><path class="cls-36" d="M29.82,17.06c.14-.4.54-.42.85-.56a.3.3,0,0,1,.21.17.12.12,0,0,1-.06.15l-.26.17a2.09,2.09,0,0,1-.48.22C30,17.23,29.85,17.22,29.82,17.06Z"/><path class="cls-37" d="M20.19,25l.47-.18h.23c.33.24.76-.09,1.09.2v.09a1,1,0,0,1-.74,0A2.93,2.93,0,0,1,20.19,25Z"/><path class="cls-38" d="M42,14.61l.16.32a1.32,1.32,0,0,1-.44.63.47.47,0,0,1-.24-.24A1.53,1.53,0,0,1,42,14.61Z"/><path class="cls-39" d="M19.37,17.65a2.35,2.35,0,0,1,1.07.29c-.13.21-.37,0-.53.14a2.58,2.58,0,0,1-1-.28C19,17.61,19.24,17.74,19.37,17.65Z"/><path class="cls-40" d="M17.18,16.81,17,17a1.44,1.44,0,0,1-.82-.42s-.05-.08,0-.11,0-.05.05-.05A1.14,1.14,0,0,1,17.18,16.81Z"/><path class="cls-41" d="M15,15.59c.42-.06.63.22.84.51a.14.14,0,0,1,0,.2c-.28.05-.38-.26-.61-.32s-.3-.1-.26-.31Z"/><path class="cls-28" d="M19.37,17.65l-.43.15a1.49,1.49,0,0,1-.69-.28l.16-.17A2.91,2.91,0,0,1,19.37,17.65Z"/><path class="cls-42" d="M25.31,25.11V25c.33-.29.76,0,1.1-.19.14-.05.19.06.26.14a.28.28,0,0,1,.43.1l-.41.06a2,2,0,0,1-.69.05C25.77,25.13,25.53,25.26,25.31,25.11Z"/><path class="cls-18" d="M30.7,24.11a1.79,1.79,0,0,1-.84.28c-.11-.05-.19-.11-.13-.25a3.27,3.27,0,0,1,1-.28A.16.16,0,0,1,30.7,24.11Z"/><path class="cls-43" d="M29.82,17.06l.22.06c0,.25-.23.16-.34.25l-.52.15v-.31C29.37,17.1,29.54,16.85,29.82,17.06Z"/><path class="cls-7" d="M7,16.94l-.22.21a1.22,1.22,0,0,1-.41-.54l0-.25C6.76,16.4,6.84,16.71,7,16.94Z"/><path class="cls-44" d="M25.54,18.18a1.58,1.58,0,0,1,.83-.13c.18-.08.27,0,.34.17a1.11,1.11,0,0,1-.69.14.27.27,0,0,1-.18,0C25.72,18.34,25.59,18.33,25.54,18.18Z"/><path class="cls-45" d="M13.7,14.48l.59.56c-.34.12-.39.09-.67-.44A.14.14,0,0,1,13.7,14.48Z"/><path class="cls-46" d="M19.09,24.43a.39.39,0,0,1-.31.27l-.38,0V24.3Z"/><path class="cls-47" d="M26.71,18.22l-.34-.17a.88.88,0,0,1,.57-.13.32.32,0,0,1,.47.16A1,1,0,0,1,26.71,18.22Z"/><path class="cls-48" d="M29.73,24.14l.13.25a.68.68,0,0,1-.55.16.36.36,0,0,1-.27-.26C29.27,24.22,29.53,24.31,29.73,24.14Z"/><path class="cls-49" d="M40.2,17.22l.19.19-.56.56a.22.22,0,0,1,0-.32A1,1,0,0,1,40.2,17.22Z"/><path class="cls-50" d="M11.33,21.42l0-.31c.31,0,.37.29.58.39a.23.23,0,0,1-.18.2Z"/><path class="cls-51" d="M27.41,18.08l-.47-.16a.82.82,0,0,1,.55-.14l.45.16A.92.92,0,0,1,27.41,18.08Z"/><path class="cls-52" d="M31.51,16c.23-.14.35-.43.67-.41a.17.17,0,0,1,.19,0c.06.16,0,.25-.15.32s-.21.29-.42.24S31.57,16.12,31.51,16Z"/><path class="cls-53" d="M30.7,24.11v-.25c.11-.08.22-.19.38-.16s.27.11.31.28Z"/><path class="cls-54" d="M41.5,15.32a.27.27,0,0,1,.24.24l-.26.44-.14-.39Z"/><path class="cls-55" d="M22,25c-.36-.08-.76,0-1.09-.2a5.65,5.65,0,0,1,1.42.13Z"/><path class="cls-56" d="M38,19.77l0-.23c.13-.21.26-.43.57-.38C38.63,19.57,38.35,19.68,38,19.77Z"/><path class="cls-41" d="M34,14.22a.57.57,0,0,1,.56-.57C34.56,14,34.4,14.23,34,14.22Z"/><path class="cls-57" d="M31.51,16l.29.13-.28.28a.28.28,0,0,1-.27.1c-.11,0-.18-.1-.14-.23Z"/><path class="cls-58" d="M32.76,15.32a.68.68,0,0,1,.75-.57l-.06.25c-.16.15-.29.33-.53.35Z"/><path class="cls-59" d="M32.48,23.44l-.4-.13.55-.28.14.28C32.71,23.44,32.58,23.41,32.48,23.44Z"/><path class="cls-29" d="M26.41,24.82c-.33.24-.74.1-1.1.19l-.17-.07A4.16,4.16,0,0,1,26.41,24.82Z"/><path class="cls-60" d="M14.39,15.16a.49.49,0,0,1,.56.43h0c-.15.09-.29.18-.4-.05A.43.43,0,0,1,14.39,15.16Z"/><path class="cls-61" d="M12.6,21.93v.32a.65.65,0,0,1-.43-.29c-.07-.17,0-.23.16-.28S12.5,21.86,12.6,21.93Z"/><path class="cls-62" d="M12.32,21.68l-.16.28a.49.49,0,0,1-.4-.26l.18-.2Z"/><path class="cls-63" d="M39.81,17.65l0,.32a.34.34,0,0,1-.23.26l-.24,0A1.48,1.48,0,0,1,39.81,17.65Z"/><path class="cls-2" d="M32.22,15.88l.17-.27c.1-.15.23-.13.37,0C32.64,15.76,32.56,16,32.22,15.88Z"/><path class="cls-2" d="M29.7,17.37l.34-.25.52-.13A1,1,0,0,1,29.7,17.37Z"/><path class="cls-64" d="M34.83,22.2,34.58,22l.26-.16.26.23C35.06,22.21,34.92,22.16,34.83,22.2Z"/><path class="cls-60" d="M15.76,16.3l0-.2c.17,0,.38,0,.42.29l0,.16C16,16.54,15.9,16.4,15.76,16.3Z"/><path class="cls-65" d="M19.91,18.08c.14-.17.35-.11.53-.14l.09.13C20.33,18.34,20.12,18.13,19.91,18.08Z"/><path class="cls-2" d="M14.55,15.53l.4.05c-.06.19.09.29.2.4A.6.6,0,0,1,14.55,15.53Z"/><path class="cls-66" d="M32.76,15.56l-.37,0-.21,0a.61.61,0,0,1,.6-.28Z"/><path class="cls-67" d="M13.7,14.48l-.08.12c-.26,0-.32-.2-.37-.4C13.45,14.22,13.63,14.26,13.7,14.48Z"/><path class="cls-68" d="M33.59,14.7a.44.44,0,0,1,.43-.5C34.09,14.54,33.8,14.59,33.59,14.7Z"/><path class="cls-2" d="M31.29,16.44l.23,0a.68.68,0,0,1-.7.42l.05-.11C30.92,16.47,31.12,16.48,31.29,16.44Z"/><path class="cls-69" d="M34.83,13.24l.13.1a.37.37,0,0,1-.4.33A.48.48,0,0,1,34.83,13.24Z"/><path class="cls-32" d="M25.82,18.3l.2.06a1.72,1.72,0,0,1-.84.14c0-.05,0-.09,0-.14C25.37,18.19,25.6,18.29,25.82,18.3Z"/><path class="cls-8" d="M31.83,23.32a1.33,1.33,0,0,1-.71.28A.77.77,0,0,1,31.83,23.32Z"/><path class="cls-24" d="M12.33,13.38l.15-.2a.58.58,0,0,1,.26.48A.43.43,0,0,1,12.33,13.38Z"/><path class="cls-2" d="M32.92,15.35l.53-.35C33.34,15.21,33.25,15.46,32.92,15.35Z"/><path class="cls-3" d="M6,15.44l-.25-.28-.07-.25A.5.5,0,0,1,6,15.44Z"/><path class="cls-8" d="M27.68,24.56a1.1,1.1,0,0,1-.71.13A.93.93,0,0,1,27.68,24.56Z"/><path class="cls-32" d="M24.76,18.21a4,4,0,0,1-2.21,0Z"/><path class="cls-29" d="M31.29,16.44a.57.57,0,0,1-.42.27l-.2-.21a.76.76,0,0,1,.44-.23Z"/><path class="cls-32" d="M22.07,18.2a1.22,1.22,0,0,1-.77-.13A1.55,1.55,0,0,1,22.07,18.2Z"/><path class="cls-70" d="M25.82,18.3l-.65.06V18.2l.37,0Z"/><path class="cls-10" d="M25,25.22h.28a.2.2,0,0,1,.28,0,10.77,10.77,0,0,1-3.88,0,.22.22,0,0,1,.29,0h.41A13.49,13.49,0,0,1,25,25.22Z"/><path class="cls-55" d="M22,25.21l-.29,0-.46-.12.74,0Z"/><path class="cls-29" d="M25.59,25.25l-.28,0v-.11l.74,0v.07l-.06,0Z"/><path class="cls-12" d="M26,25.22l.07-.09h.64A.93.93,0,0,1,26,25.22Z"/><path class="cls-71" d="M4.44,6.61c0-.92,0-1.84,0-2.75s.52-.65,1-.7.71.18.71.66c0,1.88,0,3.76,0,5.64,0,.78-.74.52-1.18.6s-.48-.29-.48-.63V6.61Z"/><path class="cls-71" d="M40.62,5c0-.28,0-.55,0-.83,0-1.11.08-1.17,1.21-1,.3,0,.48.16.48.46,0,1,0,2,0,3,0,.34-.19.47-.53.48-1.08,0-1.17,0-1.17-1.1V5Z"/><path class="cls-2" d="M34.42,6c0-.8,0-1.61,0-2.41,0-.63.37-.64.81-.63s.9-.06.89.63c0,1.65,0,3.3,0,5,0,.39-.07.74-.56.65s-1.15.17-1.14-.71,0-1.65,0-2.48Z"/><path class="cls-15" d="M36.33,3.45V5.66h-.06V3.45Z"/><path class="cls-72" d="M34.17,5.09V3.48h.07V5.12Z"/><path class="cls-71" d="M22,5.73c0-.79,0-1.57,0-2.35,0-.39.12-.51.52-.51,1.16,0,1.2,0,1.2,1.17s0,2.53,0,3.79c0,.85-.5.74-1,.79S22,8.4,22,7.86c0-.71,0-1.42,0-2.13Z"/><path class="cls-15" d="M22.44,8.72h.8v.07h-.85Z"/><path class="cls-71" d="M29.88,5.91c0,.74,0,1.47,0,2.21,0,.42-.14.69-.6.61s-1.07.21-1.08-.59c0-1.56,0-3.12,0-4.68,0-.55.37-.57.76-.55s.9-.13.92.52c0,.83,0,1.66,0,2.48Z"/><path class="cls-73" d="M31.27,8.81V4h.07V8.84Z"/><path class="cls-73" d="M10.41,6.63V2.35h.07V6.61Z"/><path class="cls-74" d="M36.68,17c.09.23.6-.11.42.31s-.47.66-.88.46a2.74,2.74,0,0,1-1.08-1c-.2-.34.08-.61.32-.83s.53-.33.79-.06S37.2,16.42,36.68,17Z"/><path class="cls-54" d="M25,25.22a14.33,14.33,0,0,1-2.62,0A6.25,6.25,0,0,1,25,25.22Z"/></g></g></svg>