<svg id="Feature-1" xmlns="http://www.w3.org/2000/svg" width="406.6" height="23.719" viewBox="0 0 406.6 23.719">
  <defs>
    <style>
      .cls-1 {
        fill: #fff;
        fill-rule: evenodd;
      }
    </style>
  </defs>
  <path id="_8.00_P.A" data-name="8.00% P.A" class="cls-1" d="M2721.43,150.958c4.3,0,7.29-2.509,7.32-6a5.485,5.485,0,0,0-4.16-5.457v-0.126a4.805,4.805,0,0,0,3.36-4.786c-0.02-3.275-2.78-5.71-6.52-5.71-3.78,0-6.53,2.435-6.51,5.71a4.7,4.7,0,0,0,3.36,4.786V139.5a5.394,5.394,0,0,0-4.16,5.457C2714.1,148.449,2717.09,150.958,2721.43,150.958Zm0-2.309c-2.95,0-4.77-1.512-4.74-3.821-0.03-2.424,1.98-4.156,4.74-4.156,2.72,0,4.73,1.732,4.75,4.156C2726.16,147.137,2724.34,148.649,2721.43,148.649Zm0-10.2c-2.35,0-4.01-1.469-3.99-3.694-0.02-2.183,1.58-3.611,3.99-3.611,2.38,0,3.97,1.428,4,3.611A3.7,3.7,0,0,1,2721.43,138.447Zm12.19,12.385a1.89,1.89,0,1,0-1.89-1.889A1.895,1.895,0,0,0,2733.62,150.832Zm12.15,0.126c4.75,0,7.48-4.02,7.48-11.042,0-6.969-2.78-11.041-7.48-11.041s-7.48,4.072-7.48,11.041C2738.29,146.938,2741.02,150.958,2745.77,150.958Zm0-2.309c-3.13,0-4.96-3.138-4.96-8.733s1.85-8.774,4.96-8.774,4.96,3.191,4.96,8.774S2748.9,148.649,2745.77,148.649Zm18.49,2.309c4.75,0,7.48-4.02,7.48-11.042,0-6.969-2.77-11.041-7.48-11.041s-7.48,4.072-7.48,11.041C2756.78,146.938,2759.51,150.958,2764.26,150.958Zm0-2.309c-3.13,0-4.96-3.138-4.96-8.733s1.85-8.774,4.96-8.774,4.96,3.191,4.96,8.774S2767.39,148.649,2764.26,148.649Zm22.44-2.015a4.182,4.182,0,1,0,8.36,0V145.5a4.009,4.009,0,0,0-4.16-4.324,4.063,4.063,0,0,0-4.2,4.324v1.134Zm-10.71-12.3a4.182,4.182,0,1,0,8.36,0V133.2a4.009,4.009,0,0,0-4.16-4.324,4.063,4.063,0,0,0-4.2,4.324v1.134Zm0.79,16.331h2.4l14.79-21.495h-2.39Zm12.06-5.164c0-1.3.59-2.519,2.06-2.519,1.52,0,2.02,1.218,2.02,2.519v1.134c0,1.3-.55,2.519-2.02,2.519-1.51,0-2.06-1.218-2.06-2.519V145.5Zm-10.71-12.3c0-1.3.59-2.519,2.06-2.519,1.51,0,2.01,1.218,2.01,2.519v1.134c0,1.3-.54,2.519-2.01,2.519-1.52,0-2.06-1.218-2.06-2.519V133.2Zm29.25,7.622h1.52v-4.575h2.75c2.92,0,4.23-1.774,4.23-3.988s-1.31-3.963-4.26-3.963h-4.24v12.526Zm1.52-5.921v-5.26h2.67c2.04,0,2.82,1.113,2.82,2.618s-0.78,2.642-2.79,2.642h-2.7Zm9.71,6.019a1.1,1.1,0,1,0-1.11-1.1A1.107,1.107,0,0,0,2818.61,140.919Zm4.41-.1,1.26-3.548h5.07l1.26,3.548h1.59l-4.6-12.526h-1.57l-4.61,12.526h1.6Zm1.74-4.893,2-5.652h0.1l2.01,5.652h-4.11Z" transform="translate(-2714.12 -127.656)"/>
  <path id="A_" data-name="A+" class="cls-1" d="M2908.24,149.156l2.16-6.087h8.7l2.17,6.087H2924l-7.9-21.5h-2.69l-7.9,21.5h2.73Zm2.98-8.4,3.45-9.7h0.17l3.44,9.7h-7.06Zm21.86,6.675h2.35v-5.542h5.55v-2.351h-5.55V134h-2.35v5.541h-5.55v2.351h5.55v5.542Z" transform="translate(-2714.12 -127.656)"/>
  <path id="_0.15_" data-name="0.15%" class="cls-1" d="M3053.07,151.371c4.74,0,7.48-4.02,7.48-11.041,0-6.969-2.78-11.042-7.48-11.042s-7.48,4.073-7.48,11.042C3045.59,147.351,3048.32,151.371,3053.07,151.371Zm0-2.309c-3.13,0-4.96-3.138-4.96-8.732s1.85-8.775,4.96-8.775,4.95,3.191,4.95,8.775S3056.2,149.062,3053.07,149.062Zm13.32,2.183a1.889,1.889,0,1,0-1.89-1.889A1.895,1.895,0,0,0,3066.39,151.245Zm10.84-21.663h-2.31a5.967,5.967,0,0,1-5,3.191v2.183c2.47,0,4.23-1.008,4.54-1.595h0.17v17.716h2.6v-21.5Zm12.9,21.789a6.905,6.905,0,0,0,7.1-7.137c0-4.167-2.89-7.221-6.84-7.221a6.233,6.233,0,0,0-3.74,1.218h-0.13l0.76-6.34h8.99v-2.309h-11.18l-1.3,10.58,2.44,0.294a6.889,6.889,0,0,1,3.74-1.092,4.7,4.7,0,0,1,4.74,4.912,4.542,4.542,0,0,1-4.58,4.786,3.957,3.957,0,0,1-4.16-3.359h-2.52C3083.61,148.978,3086.44,151.371,3090.13,151.371Zm22.23-4.324a4.187,4.187,0,1,0,8.37,0v-1.134a4.009,4.009,0,0,0-4.16-4.324,4.071,4.071,0,0,0-4.21,4.324v1.134Zm-10.71-12.3a4.182,4.182,0,1,0,8.36,0v-1.134a4.009,4.009,0,0,0-4.16-4.324,4.063,4.063,0,0,0-4.2,4.324v1.134Zm0.8,16.331h2.39l14.79-21.5h-2.39Zm12.06-5.164c0-1.3.59-2.519,2.06-2.519,1.51,0,2.01,1.218,2.01,2.519v1.134c0,1.3-.54,2.519-2.01,2.519-1.52,0-2.06-1.218-2.06-2.519v-1.134Zm-10.72-12.3c0-1.3.59-2.518,2.06-2.518,1.51,0,2.02,1.217,2.02,2.518v1.134c0,1.3-.55,2.519-2.02,2.519-1.51,0-2.06-1.218-2.06-2.519v-1.134Z" transform="translate(-2714.12 -127.656)"/>
</svg>
