<svg id="Feature-3" xmlns="http://www.w3.org/2000/svg" width="411.1" height="23.718" viewBox="0 0 411.1 23.718">
  <defs>
    <style>
      .cls-1 {
        fill: #fff;
        fill-rule: evenodd;
      }
    </style>
  </defs>
  <path id="_11.25_P.A" data-name="11.25% P.A" class="cls-1" d="M2716.94,131.189h-2.31a5.992,5.992,0,0,1-5.01,3.19v2.184c2.47,0,4.24-1.008,4.54-1.6h0.17v17.717h2.61v-21.5Zm13.07,0h-2.31a5.987,5.987,0,0,1-5,3.19v2.184c2.46,0,4.23-1.008,4.53-1.6h0.17v17.717h2.61v-21.5Zm8.02,21.663a1.89,1.89,0,1,0-1.89-1.89A1.9,1.9,0,0,0,2738.03,152.852Zm6.31-.168h13.57v-2.309h-10v-0.168l4.83-5.164c3.7-3.957,4.79-5.8,4.79-8.187,0-3.316-2.69-5.961-6.47-5.961s-6.64,2.561-6.64,6.339h2.48a3.828,3.828,0,0,1,4.08-4.072c2.33,0,4.12,1.427,4.12,3.694,0,1.984-1.17,3.453-3.66,6.172l-7.1,7.767v1.889Zm24.63,0.294a6.911,6.911,0,0,0,7.1-7.137c0-4.167-2.9-7.221-6.85-7.221a6.239,6.239,0,0,0-3.74,1.217h-0.13l0.76-6.339h8.99v-2.309h-11.18l-1.3,10.579,2.44,0.294a6.889,6.889,0,0,1,3.74-1.091,4.713,4.713,0,0,1,4.75,4.912,4.548,4.548,0,0,1-4.58,4.786,3.95,3.95,0,0,1-4.16-3.359h-2.53C2762.44,150.585,2765.27,152.978,2768.97,152.978Zm22.23-4.325a4.182,4.182,0,1,0,8.36,0V147.52a4.009,4.009,0,0,0-4.16-4.324,4.063,4.063,0,0,0-4.2,4.324v1.133Zm-10.72-12.3a4.182,4.182,0,1,0,8.36,0v-1.134a4,4,0,0,0-4.16-4.324,4.063,4.063,0,0,0-4.2,4.324v1.134Zm0.8,16.331h2.4l14.79-21.5h-2.4Zm12.06-5.164c0-1.3.59-2.519,2.06-2.519,1.51,0,2.02,1.217,2.02,2.519v1.133c0,1.3-.55,2.519-2.02,2.519-1.51,0-2.06-1.217-2.06-2.519V147.52Zm-10.72-12.3c0-1.3.59-2.519,2.06-2.519,1.52,0,2.02,1.218,2.02,2.519v1.134c0,1.3-.55,2.519-2.02,2.519-1.51,0-2.06-1.218-2.06-2.519v-1.134Zm29.26,7.621h1.52v-4.574h2.74c2.92,0,4.24-1.774,4.24-3.988s-1.32-3.964-4.26-3.964h-4.24V142.84Zm1.52-5.92v-5.26h2.67c2.04,0,2.81,1.113,2.81,2.618s-0.77,2.642-2.79,2.642h-2.69Zm9.7,6.018a1.1,1.1,0,1,0-1.1-1.1A1.1,1.1,0,0,0,2823.1,142.938Zm4.41-.1,1.26-3.547h5.07l1.26,3.547h1.6l-4.61-12.526h-1.56l-4.61,12.526h1.59Zm1.74-4.892,2.01-5.652h0.1l2.01,5.652h-4.12Z" transform="translate(-2709.62 -129.688)"/>
  <path id="BB" class="cls-1" d="M2907.36,151.176h7.77c5.08,0,7.19-2.477,7.19-5.709,0-3.4-2.36-5.248-4.33-5.374v-0.21a4.3,4.3,0,0,0,3.49-4.492c0-3.149-2.11-5.71-6.6-5.71h-7.52v21.495Zm2.6-2.309v-7.473h5.3c2.81,0,4.58,1.889,4.58,4.073,0,1.889-1.31,3.4-4.71,3.4h-5.17Zm0-9.74V131.99h4.92c2.86,0,4.12,1.512,4.12,3.4,0,2.267-1.85,3.736-4.21,3.736h-4.83Zm16.64,12.049h7.78c5.08,0,7.18-2.477,7.18-5.709,0-3.4-2.35-5.248-4.32-5.374v-0.21a4.3,4.3,0,0,0,3.48-4.492c0-3.149-2.1-5.71-6.59-5.71h-7.53v21.495Zm2.61-2.309v-7.473h5.29c2.82,0,4.58,1.889,4.58,4.073,0,1.889-1.3,3.4-4.7,3.4h-5.17Zm0-9.74V131.99h4.92c2.85,0,4.11,1.512,4.11,3.4,0,2.267-1.84,3.736-4.2,3.736h-4.83Z" transform="translate(-2709.62 -129.688)"/>
  <path id="_0.15_" data-name="0.15%" class="cls-1" d="M3053.07,153.391c4.74,0,7.48-4.02,7.48-11.042,0-6.969-2.78-11.041-7.48-11.041s-7.48,4.072-7.48,11.041C3045.59,149.371,3048.32,153.391,3053.07,153.391Zm0-2.309c-3.13,0-4.96-3.138-4.96-8.733s1.85-8.774,4.96-8.774,4.95,3.191,4.95,8.774S3056.2,151.082,3053.07,151.082Zm13.32,2.183a1.89,1.89,0,1,0-1.89-1.889A1.895,1.895,0,0,0,3066.39,153.265Zm10.84-21.663h-2.31a5.969,5.969,0,0,1-5,3.191v2.183c2.47,0,4.23-1.008,4.54-1.6h0.17V153.1h2.6V131.6Zm12.9,21.789a6.905,6.905,0,0,0,7.1-7.137c0-4.167-2.89-7.221-6.84-7.221a6.239,6.239,0,0,0-3.74,1.217h-0.13l0.76-6.339h8.99V131.6h-11.18l-1.3,10.58,2.44,0.293a6.889,6.889,0,0,1,3.74-1.091,4.7,4.7,0,0,1,4.74,4.912,4.542,4.542,0,0,1-4.58,4.786,3.957,3.957,0,0,1-4.16-3.359h-2.52C3083.61,151,3086.44,153.391,3090.13,153.391Zm22.23-4.324a4.187,4.187,0,1,0,8.37,0v-1.134a4.009,4.009,0,0,0-4.16-4.324,4.071,4.071,0,0,0-4.21,4.324v1.134Zm-10.71-12.3a4.182,4.182,0,1,0,8.36,0v-1.134a4.009,4.009,0,0,0-4.16-4.324,4.063,4.063,0,0,0-4.2,4.324v1.134Zm0.8,16.331h2.39l14.79-21.5h-2.39Zm12.06-5.164c0-1.3.59-2.519,2.06-2.519,1.51,0,2.01,1.218,2.01,2.519v1.134c0,1.3-.54,2.519-2.01,2.519-1.52,0-2.06-1.218-2.06-2.519v-1.134Zm-10.72-12.3c0-1.3.59-2.519,2.06-2.519,1.51,0,2.02,1.218,2.02,2.519v1.134c0,1.3-.55,2.519-2.02,2.519-1.51,0-2.06-1.218-2.06-2.519v-1.134Z" transform="translate(-2709.62 -129.688)"/>
</svg>
