<svg xmlns="http://www.w3.org/2000/svg" viewBox="0 0 58.92 4.52"><defs><style>.cls-1{fill:#fff;}</style></defs><g id="Layer_2" data-name="Layer 2"><g id="Layer_1-2" data-name="Layer 1"><path class="cls-1" d="M13.72.36a1.9,1.9,0,0,1,0,3.8H2.26a1.9,1.9,0,0,1,0-3.8H13.72m0-.36H2.26a2.26,2.26,0,0,0,0,4.52H13.72a2.26,2.26,0,0,0,0-4.52Z"/><path class="cls-1" d="M35.19.36a1.9,1.9,0,1,1,0,3.8H23.73a1.9,1.9,0,0,1,0-3.8H35.19m0-.36H23.73a2.26,2.26,0,0,0,0,4.52H35.19a2.26,2.26,0,1,0,0-4.52Z"/><path class="cls-1" d="M56.66.36a1.9,1.9,0,1,1,0,3.8H45.21a1.9,1.9,0,1,1,0-3.8H56.66m0-.36H45.21a2.26,2.26,0,1,0,0,4.52H56.66a2.26,2.26,0,1,0,0-4.52Z"/></g></g></svg>