<svg xmlns="http://www.w3.org/2000/svg" viewBox="0 0 120 19.88"><defs><style>.cls-1{fill:#fff;}.cls-2{fill:#262626;}</style></defs><g id="Layer_2" data-name="Layer 2"><g id="Layer_1-2" data-name="Layer 1"><rect class="cls-1" width="120" height="19.88"/><path class="cls-2" d="M16.17,8h.95L15,13.75H14L11.89,8h1l1.66,4.6Z"/><path class="cls-2" d="M17.52,10.14a2.13,2.13,0,0,1,.63-1.65,2.21,2.21,0,0,1,1.58-.6A2,2,0,0,1,22,10.12v1.11H18.43v.06c0,1.07.35,1.57,1.27,1.57h2.17v.85H19.71c-1.61,0-2.18-.89-2.19-2.72Zm3.58.26v-.31a1.21,1.21,0,0,0-1.36-1.35,1.24,1.24,0,0,0-1.31,1.36v.31Z"/><path class="cls-2" d="M26.08,7.87v.85h-.82a1.24,1.24,0,0,0-1.39,1.37v3.62H23l0-5.79h.7l0,.74a1.55,1.55,0,0,1,1.55-.79Z"/><path class="cls-2" d="M27,5.65h.91V8.51A1.23,1.23,0,0,1,29,7.89h.54a1.73,1.73,0,0,1,1.33.55,1.92,1.92,0,0,1,.57,1.42v3.83h-.91V9.87a1.05,1.05,0,0,0-1-1.13h-.68a1.05,1.05,0,0,0-1,1.08l0,3.89H27Z"/><path class="cls-2" d="M36.08,7.93H37l0,5.79h-.7l0-.56a1.34,1.34,0,0,1-1.14.61h-.71a1.76,1.76,0,0,1-1.33-.56,1.92,1.92,0,0,1-.56-1.42V7.94h.91v3.85a1,1,0,0,0,1,1.13h.7a1,1,0,0,0,1-1Z"/><path class="cls-2" d="M38.25,5.89h.91V7h-.91Zm0,2h.91l0,5.75h-.91Z"/><path class="cls-2" d="M44.34,7.83v.85H42.21c-.74,0-1.11.27-1.12.8s.39.67,1.13.75c.11,0,.37,0,.45,0,1.2.13,1.87.7,1.87,1.66,0,1.23-.85,1.76-2.19,1.77h-2v-.85h2c.91,0,1.29-.25,1.28-.91,0-.49-.3-.73-1-.81l-.47-.05c-1.29-.14-1.93-.67-1.93-1.6,0-1.21,1-1.65,2-1.65Z"/><path class="cls-2" d="M45.52,5.59h.91V8.44a1.26,1.26,0,0,1,1.12-.62h.54A1.91,1.91,0,0,1,50,9.8v1.61a2.33,2.33,0,0,1-.54,1.6,1.7,1.7,0,0,1-1.37.63h-.78a1.26,1.26,0,0,1-1-.54l0,.55h-.69Zm3.56,4.22a1,1,0,0,0-1-1.14h-.68a1,1,0,0,0-1,1.07V12a.87.87,0,0,0,.86.8h.78c.56,0,1-.55,1-1.37Z"/><path class="cls-2" d="M50.76,10A2.11,2.11,0,0,1,53,7.78,2,2,0,0,1,55.25,10v1.11H51.67v.06c0,1.07.36,1.57,1.28,1.57h2.16v.86H53c-1.61,0-2.18-.89-2.18-2.72Zm3.58.26V10A1.2,1.2,0,0,0,53,8.63,1.25,1.25,0,0,0,51.67,10v.31Z"/><path class="cls-2" d="M59.49,5.55h.9l0,8.05h-.69l0-.54a1.24,1.24,0,0,1-1,.55h-.79A1.76,1.76,0,0,1,56.5,13a2.33,2.33,0,0,1-.53-1.6V9.78a1.94,1.94,0,0,1,.55-1.43,1.79,1.79,0,0,1,1.33-.56h.54a1.24,1.24,0,0,1,1.12.62Zm0,4.15a1,1,0,0,0-1-1.06h-.67a1,1,0,0,0-1,1.14v1.61c0,.83.41,1.37,1,1.37h.78a.88.88,0,0,0,.85-.81Z"/><path class="cls-2" d="M64.84,7.74v.85H64A1.24,1.24,0,0,0,62.64,10v3.61h-.91l0-5.78h.7l0,.74A1.57,1.57,0,0,1,64,7.74Z"/><path class="cls-2" d="M65.71,5.81h.91V6.87h-.91Zm0,2h.91l0,5.75h-.91Z"/><path class="cls-2" d="M68,7.82h.91l0,5a3.16,3.16,0,0,1-.53,1.79l-.87,1.24-.75-.48.87-1.25a2,2,0,0,0,.37-1.3Zm0-2h.91V6.86H68Z"/><path class="cls-2" d="M70.55,7.81V7.65a2.23,2.23,0,0,1,2.58-2.21v.81c-1,0-1.65.44-1.65,1.4v.16h1.66v.81H71.42l0,4.93h-.91l0-4.94h-.73V7.82Z"/><path class="cls-2" d="M76.54,7.71a1.78,1.78,0,0,1,1.33.56,2,2,0,0,1,.55,1.43l0,3.84h-.91l0-3.84a1,1,0,0,0-1-1.12h-.7a1,1,0,0,0-1,1v4H74l0-5.79h.7l0,.57a1.33,1.33,0,0,1,1.16-.62Z"/><path class="cls-2" d="M82,7.7a1.75,1.75,0,0,1,1.42.66A2.34,2.34,0,0,1,84,9.89v1.63A2.09,2.09,0,0,1,83.46,13a1.88,1.88,0,0,1-1.41.61h-.67A1.89,1.89,0,0,1,80,13a2.12,2.12,0,0,1-.57-1.48V9.9a2.3,2.3,0,0,1,.56-1.53,1.79,1.79,0,0,1,1.42-.67Zm1.08,2.19A1.27,1.27,0,0,0,82,8.55h-.66a1,1,0,0,0-.77.4,1.51,1.51,0,0,0-.31,1v1.63a1.17,1.17,0,0,0,1.09,1.24h.67a1.15,1.15,0,0,0,1.06-1.25Z"/><path class="cls-2" d="M87.44,7.68a1.79,1.79,0,0,1,1.42.66,2.28,2.28,0,0,1,.56,1.53V11.5A2.09,2.09,0,0,1,88.87,13a1.88,1.88,0,0,1-1.41.61h-.67A1.89,1.89,0,0,1,85.36,13a2.06,2.06,0,0,1-.57-1.48V9.88a2.3,2.3,0,0,1,.56-1.53,1.78,1.78,0,0,1,1.42-.67Zm1.08,2.19a1.27,1.27,0,0,0-1.08-1.34h-.67a1,1,0,0,0-.77.41,1.51,1.51,0,0,0-.3.94v1.64a1.15,1.15,0,0,0,1.09,1.23h.66a1.15,1.15,0,0,0,1.07-1.24Z"/><path class="cls-2" d="M93.56,7.65V8.5h-.81a1.24,1.24,0,0,0-1.39,1.37v3.62h-.91l0-5.79h.7l0,.74a1.56,1.56,0,0,1,1.55-.79Z"/><path class="cls-2" d="M97.49,5.43h.89l0,8.06h-.69l0-.54a1.19,1.19,0,0,1-1,.54h-.78a1.72,1.72,0,0,1-1.38-.61,2.4,2.4,0,0,1-.54-1.6V9.66a2,2,0,0,1,.54-1.43,1.81,1.81,0,0,1,1.34-.57h.54a1.25,1.25,0,0,1,1.12.62Zm0,4.15a1,1,0,0,0-1-1.07h-.68a1,1,0,0,0-1,1.15v1.61c0,.83.42,1.36,1,1.36h.78a.88.88,0,0,0,.85-.81Z"/><path class="cls-2" d="M99.52,11.9h1v1.58h-1Z"/><path class="cls-2" d="M104.13,7.62a1.81,1.81,0,0,1,1.33.56A2,2,0,0,1,106,9.61v3.84h-.91V9.61a1,1,0,0,0-1-1.12h-.71a1,1,0,0,0-1,1v4h-.91V7.68h.7l0,.57a1.33,1.33,0,0,1,1.16-.62Z"/><path class="cls-2" d="M107.27,5.39h.91l0,8.05h-.91Z"/></g></g></svg>