<svg xmlns="http://www.w3.org/2000/svg" viewBox="0 0 205 53"><defs><style>.cls-1{opacity:0.39;}.cls-2{fill:#fff;}.cls-3{fill:#325953;}</style></defs><g id="Layer_2" data-name="Layer 2"><g id="Layer_1-2" data-name="Layer 1"><g class="cls-1"><rect class="cls-2" width="205" height="52.63" rx="10.23"/></g><rect class="cls-3" x="2" y="2" width="201" height="51" rx="8.77"/><path class="cls-2" d="M21.33,10.18h8.11v2.57h-5.2V16h5.11v2.56H24.24V22.1h5.2v2.56H21.33Z"/><path class="cls-2" d="M31.64,13.92h2.42v1.41a3.07,3.07,0,0,1,3-1.74v2.58h-.12c-1.8,0-2.72.84-2.72,2.7v5.79H31.64Z"/><path class="cls-2" d="M44.08,24.66h-2.5l-4-10.74h2.67l2.58,7.51,2.58-7.51h2.66Z"/><path class="cls-2" d="M60.08,24.66H57.52V23.11A4,4,0,0,1,53.9,25a5.4,5.4,0,0,1-5.46-5.71,5.43,5.43,0,0,1,5.46-5.69,4,4,0,0,1,3.62,1.89V13.92h2.56ZM51,19.34a3.21,3.21,0,0,0,3.26,3.26,3,3,0,0,0,2.86-1.72,3.78,3.78,0,0,0,.41-1.5,3.42,3.42,0,0,0-.29-1.51,3.15,3.15,0,0,0-3-1.9A3.23,3.23,0,0,0,51,19.32Z"/><path class="cls-2" d="M73.7,24.66H71.14V23.11A4,4,0,0,1,67.52,25a5.4,5.4,0,0,1-5.46-5.71,5.43,5.43,0,0,1,5.46-5.69,4,4,0,0,1,3.62,1.89V13.92H73.7Zm-9.07-5.32a3.21,3.21,0,0,0,3.26,3.26,3,3,0,0,0,2.86-1.72,3.78,3.78,0,0,0,.41-1.5,3.42,3.42,0,0,0-.29-1.51,3.15,3.15,0,0,0-3-1.9,3.23,3.23,0,0,0-3.24,3.35Z"/><path class="cls-2" d="M76.23,13.92h2.42v1.41a3.07,3.07,0,0,1,3-1.74v2.58h-.12c-1.8,0-2.72.84-2.72,2.7v5.79H76.23Z"/><path class="cls-2" d="M89,13.92h2.4v1.35a3.54,3.54,0,0,1,3.13-1.68,3.48,3.48,0,0,1,2.64,1.09,5.2,5.2,0,0,1,.65,1,4.55,4.55,0,0,1,.78-1,4.23,4.23,0,0,1,5.6,0c1,1,1.17,1.9,1.17,4.11v5.89h-2.56V18.87a3.68,3.68,0,0,0-.43-2,1.72,1.72,0,0,0-1.69-.88,2,2,0,0,0-1.85,1,3.35,3.35,0,0,0-.38,1.8v5.89H95.85V18.77A4,4,0,0,0,95.52,17a1.88,1.88,0,0,0-1.76-1,2,2,0,0,0-1.84,1,3.89,3.89,0,0,0-.41,1.86v5.81H89Z"/><path class="cls-2" d="M118.88,24.66h-2.56V23.11A4,4,0,0,1,112.7,25a5.4,5.4,0,0,1-5.46-5.71,5.43,5.43,0,0,1,5.46-5.69,4,4,0,0,1,3.62,1.89V13.92h2.56Zm-9.08-5.32a3.22,3.22,0,0,0,3.27,3.26,3,3,0,0,0,2.86-1.72,3.78,3.78,0,0,0,.41-1.5,3.29,3.29,0,0,0-.3-1.51,3.14,3.14,0,0,0-3-1.9,3.24,3.24,0,0,0-3.25,3.35Z"/><path class="cls-2" d="M124.18,19l-3.61-5.08h3.09l2.09,3.3,2.09-3.3h3L127.29,19l4,5.66h-3.15L125.75,21l-2.43,3.7h-3.11Z"/><path class="cls-2" d="M132.66,10.18h2.56v2.29h-2.56Zm0,3.74h2.56V24.66h-2.56Z"/><path class="cls-2" d="M137.75,13.92h2.4v1.35a3.54,3.54,0,0,1,3.13-1.68,3.48,3.48,0,0,1,2.64,1.09,5.2,5.2,0,0,1,.65,1,4.55,4.55,0,0,1,.78-1,4.21,4.21,0,0,1,5.59,0c1,1,1.18,1.9,1.18,4.11v5.89h-2.56V18.87a3.68,3.68,0,0,0-.43-2,1.72,1.72,0,0,0-1.69-.88,2,2,0,0,0-1.86,1,3.44,3.44,0,0,0-.37,1.8v5.89h-2.56V18.77a4,4,0,0,0-.33-1.78,1.9,1.9,0,0,0-1.76-1,2,2,0,0,0-1.84,1,3.89,3.89,0,0,0-.41,1.86v5.81h-2.56Z"/><path class="cls-2" d="M167.68,24.66h-2.56V23.11A4,4,0,0,1,161.5,25,5.39,5.39,0,0,1,156,19.28a5.43,5.43,0,0,1,5.46-5.69,4,4,0,0,1,3.62,1.89V13.92h2.56Zm-9.08-5.32a3.22,3.22,0,0,0,3.27,3.26,3,3,0,0,0,2.86-1.72,3.78,3.78,0,0,0,.41-1.5,3.29,3.29,0,0,0-.3-1.51,3.14,3.14,0,0,0-3-1.9,3.24,3.24,0,0,0-3.25,3.35Z"/><path class="cls-2" d="M170.23,10.18h2.56V24.66h-2.56Z"/><path class="cls-2" d="M177.21,20.14a3,3,0,0,0,3.11,2.66,2.77,2.77,0,0,0,2.58-1.45h2.64a5.93,5.93,0,0,1-2.17,2.7,5.28,5.28,0,0,1-3.07.94,5.7,5.7,0,0,1,0-11.4,5.46,5.46,0,0,1,4,1.64,5.82,5.82,0,0,1,1.59,4.91Zm6.12-2a3,3,0,0,0-3.05-2.42,2.9,2.9,0,0,0-3,2.42Z"/><path class="cls-2" d="M56.39,33h1.92L58,34.58a4.13,4.13,0,0,1,3.52-1.88l-.37,2H61c-1.91,0-3.11,1-3.52,3.17l-1,5.75h-2Z"/><path class="cls-2" d="M63.08,33h2l-2,10.64h-2Zm.7-3.84h2l-.39,2.15h-2Z"/><path class="cls-2" d="M68.32,43.48c-.39,2.1-1,4-4.08,4.23-.2,0-.4,0-.59,0L64,46.1a1.67,1.67,0,0,0,.33,0c1.45-.15,1.75-1.23,2-2.54l2-10.52h2Zm.61-14.3h2l-.39,2.17h-2Z"/><path class="cls-2" d="M73.86,29.18h2L75.19,33l-.31,1.68a6,6,0,0,1,4.28-2c2.76,0,5,2.06,4.36,5.6A6.76,6.76,0,0,1,77,44a3.47,3.47,0,0,1-3.52-2.15l-.33,1.84h-2Zm7.63,9.14a3,3,0,0,0-3-3.72,4.56,4.56,0,0,0-4.37,3.72,2.92,2.92,0,0,0,2.92,3.75,4.57,4.57,0,0,0,4.42-3.73Z"/><path class="cls-2" d="M86.74,39a2.81,2.81,0,0,0,3,3.25,4.08,4.08,0,0,0,3.4-1.8h2.11a7.92,7.92,0,0,1-2.64,2.64,6.21,6.21,0,0,1-3.2.9c-3.49,0-5.11-2.8-4.6-5.61a7.06,7.06,0,0,1,6.67-5.66,4.61,4.61,0,0,1,3.64,1.57A5.05,5.05,0,0,1,95.83,39Zm7.37-1.58a2.74,2.74,0,0,0-3-3,4.26,4.26,0,0,0-4.07,3Z"/><path class="cls-2" d="M99.65,29.18h2L99,43.66H97Z"/><path class="cls-2" d="M103.84,39a2.81,2.81,0,0,0,3,3.25,4.08,4.08,0,0,0,3.4-1.8h2.11a7.92,7.92,0,0,1-2.64,2.64,6.21,6.21,0,0,1-3.2.9c-3.49,0-5.11-2.8-4.6-5.61a7.06,7.06,0,0,1,6.67-5.66,4.61,4.61,0,0,1,3.64,1.57,5.05,5.05,0,0,1,.72,4.71Zm7.37-1.58a2.74,2.74,0,0,0-3-3,4.26,4.26,0,0,0-4.07,3Z"/><path class="cls-2" d="M118.59,43.66h-2L114.46,33h2.13l1.45,8.1L122.5,33h2.13Z"/><path class="cls-2" d="M126.18,33h2l-2,10.64h-2Zm.7-3.84h2l-.39,2.15h-2Z"/><path class="cls-2" d="M130.88,33h1.91l-.31,1.64a4.54,4.54,0,0,1,4-2c3.39,0,3.84,2.51,3.43,4.72l-1.16,6.24h-2.05l1.07-5.77c.36-1.92-.13-3.29-2.21-3.27a3.43,3.43,0,0,0-3.5,3.11l-1.09,5.93h-2Z"/><path class="cls-2" d="M152.34,42.43a6.84,6.84,0,0,1-2,4,7.23,7.23,0,0,1-4.83,1.93c-3,0-4.44-1.76-4.63-3.54h2.34a2.58,2.58,0,0,0,1,1.24,2.93,2.93,0,0,0,1.72.56,4.48,4.48,0,0,0,4.31-3.69l.21-1.1A5.2,5.2,0,0,1,146.18,44c-3.19,0-5.05-2.42-4.46-5.59a6.83,6.83,0,0,1,6.55-5.68,3.42,3.42,0,0,1,3.44,2.12L152,33h2Zm-8.59-4.09a2.94,2.94,0,0,0,3,3.73A4.29,4.29,0,0,0,149.56,41a4.85,4.85,0,0,0,1.53-2.6,3.69,3.69,0,0,0-.39-2.53,2.8,2.8,0,0,0-2.57-1.25,4.52,4.52,0,0,0-4.36,3.7Z"/></g></g></svg>