<svg xmlns="http://www.w3.org/2000/svg" viewBox="0 0 256.88 53.87"><defs><style>.cls-1{opacity:0.07;}.cls-2{fill:#fff;}</style></defs><g id="Layer_2" data-name="Layer 2"><g id="Layer_1-2" data-name="Layer 1"><g class="cls-1"><rect class="cls-2" x="0.5" width="255.88" height="53.37"/></g><path class="cls-2" d="M256.88,53.87H0V.43H256.88ZM1,52.87H255.88V1.43H1Z"/><path class="cls-2" d="M30.84,20.61h2.08l4.81,12.78H35.79l-1-2.77H28.92l-1,2.77H26.1Zm-1.37,8.48h4.76l-2.4-6.66Z"/><path class="cls-2" d="M44.69,32a3.18,3.18,0,0,1-3,1.59c-2.19,0-3-1.48-3-3.65V23.91h1.61v5.58c0,1.47.23,2.74,2,2.74,1.53,0,2.41-1.06,2.41-3.11V23.91H46.3v9.48H44.69Z"/><path class="cls-2" d="M49.29,21.53H50.9v2.38h1.8v1.28H50.9v5.63c0,1,.07,1.23,1,1.23h.82v1.34H51.53c-1.81,0-2.24-.41-2.24-2.38V25.19H47.8V23.91h1.49Z"/><path class="cls-2" d="M63,28.68c0,3.44-2.34,4.94-4.54,4.94s-4.55-1.5-4.55-4.94,2.34-4.93,4.55-4.93S63,25.25,63,28.68Zm-4.54,3.53c1.46,0,2.83-1.1,2.83-3.53s-1.37-3.52-2.83-3.52-2.84.93-2.84,3.52S56.94,32.21,58.41,32.21Z"/><path class="cls-2" d="M68.49,30.89c0-2.24,2.53-2.91,6.41-3.34v-.22c0-1.75-1-2.31-2.15-2.31a1.91,1.91,0,0,0-2.17,1.88H68.93a3.59,3.59,0,0,1,3.8-3.19c2.63,0,3.79,1.24,3.77,3.92v2.18a16.45,16.45,0,0,0,.24,3.58H75.11A11.38,11.38,0,0,1,75,32.08a3.35,3.35,0,0,1-3.24,1.54C70,33.62,68.49,32.63,68.49,30.89ZM75,28.82c-2.9.29-4.75.73-4.75,2,0,.9.68,1.5,1.83,1.5A2.64,2.64,0,0,0,75,29.42Z"/><path class="cls-2" d="M80.5,20.61V25.4a3.34,3.34,0,0,1,3.11-1.65c2.18,0,4,1.83,4,4.93s-1.87,4.94-4,4.94A3.33,3.33,0,0,1,80.5,32v1.43H78.9V20.61Zm2.7,11.63c1.64,0,2.72-1.28,2.72-3.56s-1.08-3.56-2.72-3.56c-1.43,0-2.77,1.06-2.77,3.56S81.77,32.24,83.2,32.24Z"/><path class="cls-2" d="M94.27,33.39l2.13-10h-3l.23-1.1c1.81-.05,2.85-.3,3.82-1.69H98.6L95.89,33.39Z"/><path class="cls-2" d="M108.88,30.23h-2.35l-.67,3.16h-1.6l.65-3.16H98.59l.31-1.51L107,20.61h1.62l-1.73,8.11h2.36Zm-8.06-1.51h4.43l1.25-5.8Z"/><path class="cls-2" d="M112,30.3a1.91,1.91,0,0,0,2.06,2c2.1,0,3.4-1.87,3.91-4.74a3.89,3.89,0,0,1-3.26,1.57,3.67,3.67,0,0,1-3.84-3.86,4.6,4.6,0,0,1,4.83-4.87c2.61,0,4.21,1.55,4.21,4.88s-1.57,8.36-5.94,8.36a3.36,3.36,0,0,1-3.7-3.32Zm3.19-2.6a3,3,0,0,0,3-3.12,2.59,2.59,0,0,0-2.57-2.86A3.1,3.1,0,0,0,112.6,25,2.47,2.47,0,0,0,115.19,27.7Z"/><path class="cls-2" d="M122.09,25.11h1.37c.76-2.61,2.65-4.73,5.94-4.73a4.49,4.49,0,0,1,4.82,4.51h-1.63a3.11,3.11,0,0,0-3.22-3.17c-2.31,0-3.56,1.45-4.18,3.39H130l-1,1.11h-4a10.45,10.45,0,0,0-.15,1.49H128l-1,1.13h-2.15c.26,2.1,1.41,3.44,3.44,3.44a3.69,3.69,0,0,0,3.7-2.73h1.6a5.13,5.13,0,0,1-5.43,4.07c-2.82,0-4.7-1.85-5-4.78h-2.55l1-1.13h1.55a10.73,10.73,0,0,1,.14-1.49H121.1Z"/><path class="cls-2" d="M139.13,30.89c0-2.24,2.54-2.91,6.42-3.34v-.22c0-1.75-1-2.31-2.15-2.31a1.91,1.91,0,0,0-2.17,1.88h-1.66a3.6,3.6,0,0,1,3.81-3.19c2.62,0,3.79,1.24,3.77,3.92l0,2.18a17,17,0,0,0,.25,3.58h-1.62a11,11,0,0,1-.13-1.31,3.35,3.35,0,0,1-3.24,1.54C140.61,33.62,139.13,32.63,139.13,30.89Zm6.54-2.07c-2.91.29-4.76.73-4.76,2,0,.9.69,1.5,1.83,1.5a2.65,2.65,0,0,0,2.93-2.93Z"/><path class="cls-2" d="M151.15,20.61V25.4a3.33,3.33,0,0,1,3.1-1.65c2.19,0,4.06,1.83,4.06,4.93s-1.87,4.94-4.06,4.94a3.31,3.31,0,0,1-3.1-1.66v1.43h-1.6V20.61Zm2.7,11.63c1.64,0,2.71-1.28,2.71-3.56s-1.07-3.56-2.71-3.56c-1.43,0-2.77,1.06-2.77,3.56S152.42,32.24,153.85,32.24Z"/><path class="cls-2" d="M168.76,28.68c0,3.44-2.35,4.94-4.55,4.94s-4.55-1.5-4.55-4.94,2.35-4.93,4.55-4.93S168.76,25.25,168.76,28.68Zm-4.55,3.53c1.46,0,2.84-1.1,2.84-3.53s-1.38-3.52-2.84-3.52-2.84.93-2.84,3.52S162.75,32.21,164.21,32.21Z"/><path class="cls-2" d="M172.28,25.33a3.32,3.32,0,0,1,3.07-1.58c2.29,0,3.12,1.48,3.12,3.65v6h-1.61V27.87c0-1.46-.24-2.73-2.08-2.73-1.55,0-2.5,1.06-2.5,3.1v5.15h-1.6V23.91h1.6Z"/><path class="cls-2" d="M182.47,25.33a3.3,3.3,0,0,1,3.06-1.58c2.3,0,3.12,1.48,3.12,3.65v6h-1.6V27.87c0-1.46-.25-2.73-2.08-2.73-1.55,0-2.5,1.06-2.5,3.1v5.15h-1.61V23.91h1.61Z"/><path class="cls-2" d="M192.65,20.61v1.94h-1.6V20.61Zm0,3.3v9.48h-1.6V23.91Z"/><path class="cls-2" d="M196.27,29.18a2.91,2.91,0,0,0,2.92,3,2.55,2.55,0,0,0,2.59-1.57h1.66a4.15,4.15,0,0,1-4.25,3c-3,0-4.65-2.15-4.65-5a4.56,4.56,0,0,1,4.6-4.91c2.91,0,4.62,2.41,4.42,5.43Zm0-1.38h5.59a2.8,2.8,0,0,0-5.59,0Z"/><path class="cls-2" d="M210.15,25.58a6,6,0,0,0-.9-.07c-1.48,0-2.22.81-2.22,2.91v5h-1.6V23.91H207v1.65a2.89,2.89,0,0,1,2.68-1.71,3.94,3.94,0,0,1,.47,0Z"/><path class="cls-2" d="M212.58,29.18a2.92,2.92,0,0,0,2.93,3,2.55,2.55,0,0,0,2.59-1.57h1.66a4.16,4.16,0,0,1-4.25,3c-3,0-4.65-2.15-4.65-5a4.56,4.56,0,0,1,4.6-4.91c2.91,0,4.62,2.41,4.42,5.43Zm0-1.38h5.59a2.8,2.8,0,0,0-5.59,0Z"/><path class="cls-2" d="M223.35,25.33a3.33,3.33,0,0,1,3.07-1.58c2.29,0,3.12,1.48,3.12,3.65v6h-1.6V27.87c0-1.46-.25-2.73-2.08-2.73-1.56,0-2.51,1.06-2.51,3.1v5.15h-1.6V23.91h1.6Z"/></g></g></svg>