<svg xmlns="http://www.w3.org/2000/svg" width="182.99" height="33.99" viewBox="0 0 182.99 33.99"><defs><style>.cls-1{fill:none;stroke-width:1.84px;}.cls-1,.cls-2{stroke:#7059f5;}.cls-2{fill:#7059f5;}.cls-2,.cls-3,.cls-4{stroke-width:1.97px;fill-rule:evenodd;}.cls-3,.cls-4{stroke:#fff;stroke-linecap:round;}.cls-4{fill:#171201;}.cls-5{fill:#fff;}</style></defs><g id="Layer_2" data-name="Layer 2"><g id="_336x280" data-name="336x280"><path class="cls-1" d="M7.81,1H175.12A6.89,6.89,0,0,1,182,7.87V26.12A6.89,6.89,0,0,1,175.12,33H7.81A6.89,6.89,0,0,1,.92,26.12V7.87A6.89,6.89,0,0,1,7.81,1Z"/><path id="Rectangle_2_copy" data-name="Rectangle 2 copy" class="cls-2" d="M141.1,1h34A6.89,6.89,0,0,1,182,7.87V26.12A6.89,6.89,0,0,1,175.12,33h-34Z"/><path class="cls-3" d="M151.71,16.72H169"/><path id="Shape_1_copy" data-name="Shape 1 copy" class="cls-4" d="M162.34,9.86,169.7,17"/><path id="Shape_1_copy-2" data-name="Shape 1 copy-2" class="cls-4" d="M169.66,16.67l-7.36,7.16"/><path class="cls-5" d="M35.51,24.27a6.66,6.66,0,0,1-2.78-.58,7.15,7.15,0,0,1-2.27-1.62,7.78,7.78,0,0,1-2.06-5.3A7.57,7.57,0,0,1,29,13.82a7.67,7.67,0,0,1,1.56-2.38A7.42,7.42,0,0,1,32.8,9.86a6.78,6.78,0,0,1,5.88.21,7.18,7.18,0,0,1,2.51,2.19L39.9,13a5.59,5.59,0,0,0-2-1.67,5.35,5.35,0,0,0-2.39-.57,5.1,5.1,0,0,0-2.19.47,5.53,5.53,0,0,0-1.81,1.3,6,6,0,0,0-1.23,1.93,6.16,6.16,0,0,0-.45,2.36,6.28,6.28,0,0,0,1.67,4.27,6,6,0,0,0,1.81,1.3,5.35,5.35,0,0,0,2.21.47,5.23,5.23,0,0,0,1.85-.34A5.56,5.56,0,0,0,39,21.55a6,6,0,0,0,2-3.2H37V17H42.6a7.41,7.41,0,0,1-2.14,5.12,7.28,7.28,0,0,1-2.24,1.56A6.64,6.64,0,0,1,35.51,24.27Z"/><path class="cls-5" d="M49.08,24.27a4.79,4.79,0,0,1-2.6-.73,5.65,5.65,0,0,1-2.16-6.82A5.46,5.46,0,0,1,45.43,15a5.25,5.25,0,0,1,1.65-1.18,4.81,4.81,0,0,1,2-.42,4.93,4.93,0,0,1,2.11.45,5,5,0,0,1,1.66,1.27,5.47,5.47,0,0,1,1,1.91,6.55,6.55,0,0,1,.3,2.37H45.44a4.27,4.27,0,0,0,.63,1.75,3.67,3.67,0,0,0,1.28,1.23,3.52,3.52,0,0,0,1.73.46,3.32,3.32,0,0,0,1.86-.54,3.92,3.92,0,0,0,1.34-1.48l1.47.34a5.46,5.46,0,0,1-1.87,2.25A4.81,4.81,0,0,1,49.08,24.27ZM45.4,18.22h7.34a3.68,3.68,0,0,0-.58-1.76,3.94,3.94,0,0,0-1.32-1.28,3.35,3.35,0,0,0-1.76-.48,3.43,3.43,0,0,0-1.76.47A3.85,3.85,0,0,0,46,16.44,4.35,4.35,0,0,0,45.4,18.22Z"/><path class="cls-5" d="M61.06,15.12H58.6V24H57.14V15.12H55.28V13.68h1.87V10.44h1.45v3.24h2.46Z"/><path class="cls-5" d="M72.42,11.41a4.76,4.76,0,0,0-1.74.31,3.5,3.5,0,0,0-1.32.89,1.94,1.94,0,0,0-.5,1.32,1.87,1.87,0,0,0,.47,1.36A2.91,2.91,0,0,0,70.6,16c.54.15,1.15.29,1.82.42a10.9,10.9,0,0,1,2.45.7,4.83,4.83,0,0,1,1.82,1.27,2.87,2.87,0,0,1,.69,2,3.24,3.24,0,0,1-.6,1.94,4.33,4.33,0,0,1-1.61,1.34,6.19,6.19,0,0,1-2.21.6v2h-1v-2A6.6,6.6,0,0,1,70,23.8a5.15,5.15,0,0,1-1.6-1,3.48,3.48,0,0,1-1-1.42l1.28-.49a2.25,2.25,0,0,0,.8,1,4.34,4.34,0,0,0,1.34.68,5.64,5.64,0,0,0,1.58.23,4.83,4.83,0,0,0,1.76-.31,3.33,3.33,0,0,0,1.32-.88,1.92,1.92,0,0,0,.5-1.34,1.67,1.67,0,0,0-.52-1.27,3.68,3.68,0,0,0-1.34-.8,10.57,10.57,0,0,0-1.72-.44,14.37,14.37,0,0,1-2.52-.67A4.31,4.31,0,0,1,68.13,16a3.06,3.06,0,0,1-.65-2A3.27,3.27,0,0,1,68.09,12a4.32,4.32,0,0,1,1.61-1.33,5.8,5.8,0,0,1,2.21-.6V8h1v2a6.35,6.35,0,0,1,1.88.43,5.05,5.05,0,0,1,1.6,1,3.5,3.5,0,0,1,1,1.45l-1.31.47a2.25,2.25,0,0,0-.79-1.06A4.43,4.43,0,0,0,74,11.64,5.61,5.61,0,0,0,72.42,11.41Z"/><path class="cls-5" d="M79.47,24V9.55H81l7.63,11.84V9.55h1.45V24H88.56L80.92,12.16V24Z"/><path class="cls-5" d="M92.18,20.05V13.68h1.45v6.08A3,3,0,0,0,94,21.3a3.16,3.16,0,0,0,1.11,1.1,2.94,2.94,0,0,0,1.53.42,2.9,2.9,0,0,0,1.54-.42,3.13,3.13,0,0,0,1.1-1.1,3,3,0,0,0,.41-1.54V13.68h1.45V24H99.74V22.56a4,4,0,0,1-3.32,1.71,4.09,4.09,0,0,1-2.13-.57,4.21,4.21,0,0,1-1.53-1.52A4.09,4.09,0,0,1,92.18,20.05Z"/><path class="cls-5" d="M103.25,24V13.68h1.45V15.1a4,4,0,0,1,1.42-1.25,4.14,4.14,0,0,1,1.91-.46,4.06,4.06,0,0,1,1.16.16L108.6,15a2.83,2.83,0,0,0-.85-.13,2.88,2.88,0,0,0-1.53.41,3,3,0,0,0-1.11,1.1,2.91,2.91,0,0,0-.41,1.54V24Z"/><path class="cls-5" d="M118.43,13.68h1.44V24h-1.44l-.06-1.92A4.08,4.08,0,0,1,117,23.67a3.86,3.86,0,0,1-2.17.6,5.22,5.22,0,0,1-2.12-.43,5.4,5.4,0,0,1-1.75-1.18,5.64,5.64,0,0,1-1.18-1.74,5.43,5.43,0,0,1-.42-2.13,5.42,5.42,0,0,1,3.29-5,5.24,5.24,0,0,1,2.09-.42A4.08,4.08,0,0,1,117,14a4.63,4.63,0,0,1,1.53,1.61Zm-3.67,9.19a3.29,3.29,0,0,0,1.9-.54,3.52,3.52,0,0,0,1.22-1.47,4.63,4.63,0,0,0,.43-2,4.7,4.7,0,0,0-.43-2.05,3.56,3.56,0,0,0-1.23-1.45,3.28,3.28,0,0,0-1.89-.54,3.86,3.86,0,0,0-2,.55,4.1,4.1,0,0,0-1.42,5.53,4.19,4.19,0,0,0,1.45,1.45A3.79,3.79,0,0,0,114.76,22.87Z"/></g></g></svg>