<svg xmlns="http://www.w3.org/2000/svg" width="262.48" height="64.49" viewBox="0 0 262.48 64.49"><defs><style>.cls-1{fill:#fff;}</style></defs><g id="Layer_2" data-name="Layer 2"><g id="_336x280" data-name="336x280"><path class="cls-1" d="M7.74,5.3H0v-5H21.18v5H13.45V27H7.74Z"/><path class="cls-1" d="M34.29,7.24v4.69a11.54,11.54,0,0,0-1.56-.12c-3,0-5.83,1.64-5.83,6.44V27H21.34V7.2H26.9V12h.15c.69-2.89,2.55-4.95,5.72-4.95A5.84,5.84,0,0,1,34.29,7.24Z"/><path class="cls-1" d="M53.19,13.33V27h-5.3V23.55H47.7c-.23,1-1.94,3.84-6.28,3.84-3.2,0-6.41-1.52-6.41-5.48,0-4.27,3.62-5.26,6.82-5.64l3.82-.5c1.71-.23,2-.64,2-1.94V13.6c0-2.21-1.3-2.7-3-2.7s-3.23.49-3.23,2.55v.19l-5.26,0v-.76c0-3.89,2.59-6.1,8.65-6.1S53.19,9,53.19,13.33Zm-5.56,4.73c-.31.38-.92.5-1.91.61l-2.51.38c-1.6.27-2.71.76-2.71,2.13,0,1,.65,2.18,3,2.18,2.9,0,4.16-1.91,4.16-3.2Z"/><path class="cls-1" d="M76.09.34V27H70.53V24.16c-.73,1.71-2.9,3.23-5.87,3.23-4.16,0-8.65-3-8.65-10.28S60.5,6.82,64.66,6.82c3,0,5.14,1.52,5.87,3.24V.34ZM70.75,17.11c0-3.89-2.28-5.68-4.72-5.68s-4.76,1.79-4.76,5.68,2.28,5.67,4.76,5.67S70.75,21,70.75,17.11Z"/><path class="cls-1" d="M98.34,18.52h-14c.34,3.46,2.09,4.84,5,4.84,2.4,0,3.35-1,3.88-2.67h4.92c-1,4.49-4.42,6.82-9.11,6.82-5.07,0-10-2.78-10-10.33S83.78,6.82,89,6.82c5.11,0,9.41,2.82,9.41,10.44A5.73,5.73,0,0,1,98.34,18.52Zm-5.14-3c-.08-2.48-1.26-4.46-4.31-4.46-2.67,0-4.23,1.52-4.53,4.46Z"/><path class="cls-1" d="M109.65,18.29h5.91c.11,2.4,1.64,4.38,5.3,4.38,3.08,0,4.72-1.29,4.72-3.47,0-1.83-1.22-2.74-3.62-3.2l-3.85-.72c-4.19-.84-7.73-2.74-7.73-7.58,0-5.11,4.11-7.7,10.09-7.7s10.44,2.74,10.44,8.19h-5.86c.07-2.4-1.91-3.47-4.5-3.47-3,0-4.19,1.57-4.19,3.2,0,1.22.65,2.52,3,2.94l3.58.68c6.25,1.19,8.65,3.59,8.65,7.63,0,5.75-4.76,8.22-10.82,8.22C114,27.39,109.65,24.16,109.65,18.29Z"/><path class="cls-1" d="M165.43,14.44V27h-5.56V15.77c0-3-1.26-4.34-3.28-4.34S153,12.76,153,15.77V27h-5.56V15.77c0-3-1.26-4.34-3.28-4.34s-3.58,1.33-3.58,4.34V27H135V7.2h5.56v4.15h.23a5.83,5.83,0,0,1,5.79-4.53,6,6,0,0,1,6,4.53,6.36,6.36,0,0,1,6.29-4.53C162.65,6.82,165.43,9.3,165.43,14.44Z"/><path class="cls-1" d="M186.62,13.33V27h-5.3V23.55h-.19c-.23,1-1.94,3.84-6.29,3.84-3.2,0-6.4-1.52-6.4-5.48,0-4.27,3.62-5.26,6.82-5.64l3.81-.5c1.72-.23,2-.64,2-1.94V13.6c0-2.21-1.29-2.7-3-2.7s-3.24.49-3.24,2.55v.19l-5.25,0v-.76c0-3.89,2.59-6.1,8.64-6.1S186.62,9,186.62,13.33Zm-5.57,4.73c-.3.38-.91.5-1.9.61l-2.52.38c-1.6.27-2.7.76-2.7,2.13,0,1,.65,2.18,3,2.18,2.9,0,4.15-1.91,4.15-3.2Z"/><path class="cls-1" d="M203.72,7.24v4.69a11.42,11.42,0,0,0-1.56-.12c-3,0-5.83,1.64-5.83,6.44V27h-5.56V7.2h5.56V12h.15c.69-2.89,2.56-4.95,5.72-4.95A5.79,5.79,0,0,1,203.72,7.24Z"/><path class="cls-1" d="M218.58,22.82v4.35a29.48,29.48,0,0,1-3.12.11c-3.92,0-6.52-1.79-6.52-6.21v-9.6h-3.35V7.2h3.35V2.1h5.57V7.2h3.92v4.27h-3.92v8.8c0,1.52.57,2.55,2.32,2.55Z"/><path class="cls-1" d="M239.5,18.52h-14c.34,3.46,2.09,4.84,5,4.84,2.4,0,3.35-1,3.88-2.67h4.92c-1,4.49-4.42,6.82-9.11,6.82-5.07,0-10-2.78-10-10.33S225,6.82,230.2,6.82s9.41,2.82,9.41,10.44A5.73,5.73,0,0,1,239.5,18.52Zm-5.14-3c-.08-2.48-1.26-4.46-4.31-4.46-2.67,0-4.23,1.52-4.53,4.46Z"/><path class="cls-1" d="M255.58,7.24v4.69a11.54,11.54,0,0,0-1.56-.12c-3,0-5.83,1.64-5.83,6.44V27h-5.57V7.2h5.57V12h.15c.69-2.89,2.55-4.95,5.71-4.95A5.86,5.86,0,0,1,255.58,7.24Z"/><path class="cls-1" d="M255.73,24.08a3.38,3.38,0,1,1,3.35,3.31A3.32,3.32,0,0,1,255.73,24.08Z"/><path class="cls-1" d="M1.14,37.32H19.36v5H6.86v6H18.21v4.46H6.86V59H19.74v5H1.14Z"/><path class="cls-1" d="M40,50.32V64h-5.3V60.53h-.19c-.23,1-1.94,3.85-6.29,3.85-3.2,0-6.4-1.53-6.4-5.49,0-4.27,3.62-5.26,6.82-5.64l3.81-.5c1.72-.22,2-.64,2-1.94v-.23c0-2.21-1.3-2.7-3-2.7s-3.24.49-3.24,2.55v.19l-5.25,0V49.9c0-3.89,2.59-6.1,8.64-6.1S40,45.93,40,50.32ZM34.41,55c-.31.38-.92.5-1.91.61L30,56c-1.61.27-2.71.76-2.71,2.14,0,1,.65,2.17,3,2.17,2.9,0,4.16-1.91,4.16-3.2Z"/><path class="cls-1" d="M57.07,44.22v4.69a11.42,11.42,0,0,0-1.56-.12c-3,0-5.83,1.64-5.83,6.44V64H44.12V44.18h5.56V49h.15c.69-2.89,2.56-4.95,5.72-4.95A5.79,5.79,0,0,1,57.07,44.22Z"/><path class="cls-1" d="M78.64,51.42V64H73.08V52.75c0-3-1.34-4.34-3.66-4.34s-4.15,1.33-4.15,4.34V64H59.7V44.18h5.57v4.15h.22c.35-1.86,2.25-4.53,6.33-4.53C75.67,43.8,78.64,46.28,78.64,51.42Z"/><path class="cls-1" d="M91.37,37.32H109v5H97.08v6.25H107v4.61H97.08V64H91.37Z"/><path class="cls-1" d="M127.83,50.32V64h-5.3V60.53h-.19c-.23,1-1.94,3.85-6.29,3.85-3.2,0-6.4-1.53-6.4-5.49,0-4.27,3.62-5.26,6.82-5.64l3.81-.5c1.72-.22,2-.64,2-1.94v-.23c0-2.21-1.3-2.7-3-2.7s-3.24.49-3.24,2.55v.19l-5.25,0V49.9c0-3.89,2.59-6.1,8.65-6.1S127.83,45.93,127.83,50.32ZM122.27,55c-.31.38-.92.5-1.91.61l-2.51.38c-1.6.27-2.71.76-2.71,2.14,0,1,.65,2.17,3,2.17,2.9,0,4.16-1.91,4.16-3.2Z"/><path class="cls-1" d="M130.65,57.48h5c.19,1.9,1.41,2.78,3.62,2.78,1.9,0,3.08-.69,3.08-2.09,0-.92-.57-1.45-1.86-1.76l-3.66-.76c-4.15-.95-5.6-3.16-5.6-5.83,0-3.85,3.2-6,8.08-6,5.25,0,8,2.59,8,6.86h-4.64c-.19-2-1.41-2.74-3.24-2.74s-3,.72-3,1.82.87,1.6,2.13,1.87l3.77.8c3.13.69,5.72,2.13,5.72,5.68,0,4.42-4.08,6.29-8.88,6.29C133.85,64.38,130.68,62.09,130.65,57.48Z"/><path class="cls-1" d="M162.58,59.8v4.35a29.76,29.76,0,0,1-3.13.11c-3.92,0-6.51-1.79-6.51-6.21v-9.6h-3.36V44.18h3.36v-5.1h5.56v5.1h3.92v4.27H158.5v8.8c0,1.52.57,2.55,2.32,2.55Z"/><path class="cls-1" d="M183.49,55.5h-14c.34,3.46,2.1,4.84,5,4.84,2.4,0,3.35-1,3.89-2.67h4.91c-1,4.5-4.42,6.82-9.1,6.82-5.07,0-10-2.78-10-10.33s4.69-10.36,9.95-10.36c5.1,0,9.41,2.82,9.41,10.44A5.67,5.67,0,0,1,183.49,55.5Zm-5.14-3C178.27,50,177.09,48,174,48c-2.66,0-4.22,1.52-4.53,4.46Z"/><path class="cls-1" d="M199.57,44.22v4.69a11.54,11.54,0,0,0-1.56-.12c-3,0-5.83,1.64-5.83,6.44V64h-5.56V44.18h5.56V49h.15c.69-2.89,2.55-4.95,5.72-4.95A5.84,5.84,0,0,1,199.57,44.22Z"/><path class="cls-1" d="M199.72,61.06a3.38,3.38,0,1,1,3.36,3.32A3.35,3.35,0,0,1,199.72,61.06Z"/></g></g></svg>