<?xml version="1.0" encoding="UTF-8"?><svg id="Layer_2" xmlns="http://www.w3.org/2000/svg" viewBox="0 0 173.96 11.91"><defs><style>.cls-1{fill:#fff;}</style></defs><g id="Layer_1-2"><path class="cls-1" d="M0,2.14V.17h1.93v1.97H0ZM0,11.74V3.33h1.93v8.4H0Z"/><path class="cls-1" d="M3.97,11.74V3.33h1.93v2.29c.31-1.33,1.17-2.47,2.85-2.47s2.64.98,2.64,2.73v5.85h-1.95v-5.26c0-1.04-.35-1.74-1.64-1.74-1.42,0-1.9.92-1.9,2.3v4.71h-1.93Z"/><path class="cls-1" d="M19.13,11.74L16.12.17h2.24l1.5,6.73.52,3.26.67-3.14L22.86.17h2.52l1.78,6.85.66,3.14.54-3.26L29.89.17h2.21l-3.05,11.56h-2.45l-1.81-6.85-.67-3.23-.67,3.23-1.85,6.85h-2.45Z"/><path class="cls-1" d="M33.28,11.74V.17h1.93v5.45c.31-1.33,1.17-2.47,2.85-2.47s2.64.98,2.64,2.73v5.85h-1.95v-5.26c0-1.04-.35-1.74-1.64-1.74-1.42,0-1.9.92-1.9,2.3v4.71h-1.93Z"/><path class="cls-1" d="M42.12,7.54c0-2.62,1.66-4.38,4.07-4.38s4.11,1.76,4.11,4.38-1.66,4.37-4.11,4.37-4.07-1.76-4.07-4.37ZM48.33,7.54c0-1.95-.86-2.78-2.12-2.78s-2.11.83-2.11,2.78.86,2.76,2.11,2.76,2.12-.83,2.12-2.76Z"/><path class="cls-1" d="M51.99,11.74V.17h1.93v11.56h-1.93Z"/><path class="cls-1" d="M55.54,7.54c0-2.64,1.64-4.38,4-4.38,2.52,0,3.92,1.67,3.92,4,0,.31-.03.67-.07.85h-6.01c.1,1.5.98,2.31,2.31,2.31,1.47,0,2.12-.76,2.43-1.47l1.19,1.24c-.64.97-1.78,1.81-3.64,1.81-2.5,0-4.14-1.74-4.14-4.37ZM57.4,6.77h4.31c-.14-1.33-.9-2.05-2.17-2.05-1.19,0-1.98.69-2.14,2.05Z"/><path class="cls-1" d="M68.89,11.74V.17h1.95v9.84h5.92v1.73h-7.87Z"/><path class="cls-1" d="M78.14,2.14V.17h1.93v1.97h-1.93ZM78.14,11.74V3.33h1.93v8.4h-1.93Z"/><path class="cls-1" d="M82.75,11.74v-6.9h-1.29v-1.5h1.29v-.52c0-1.74,1.07-2.81,2.85-2.81,1.23,0,2.04.6,2.38,1.05l-.85,1.38c-.31-.5-.81-.88-1.45-.88-.71,0-1,.38-1,1.07v.71h2.45v1.5h-2.45v6.9h-1.93Z"/><path class="cls-1" d="M87.65,7.54c0-2.64,1.64-4.38,4-4.38,2.52,0,3.92,1.67,3.92,4,0,.31-.03.67-.07.85h-6.01c.1,1.5.98,2.31,2.31,2.31,1.47,0,2.12-.76,2.43-1.47l1.19,1.24c-.64.97-1.78,1.81-3.64,1.81-2.5,0-4.14-1.74-4.14-4.37ZM89.51,6.77h4.31c-.14-1.33-.9-2.05-2.17-2.05-1.19,0-1.98.69-2.14,2.05Z"/><path class="cls-1" d="M101,11.74V.17h1.95v11.56h-1.95Z"/><path class="cls-1" d="M105.21,11.74V3.33h1.93v2.29c.31-1.33,1.17-2.47,2.85-2.47s2.64.98,2.64,2.73v5.85h-1.95v-5.26c0-1.04-.35-1.74-1.64-1.74-1.42,0-1.9.92-1.9,2.3v4.71h-1.93Z"/><path class="cls-1" d="M113.74,9.85l1.14-1.21c.47.85,1.5,1.71,3,1.71.83,0,1.36-.29,1.36-.9s-.64-.83-1.57-1.05l-1.12-.28c-1.33-.31-2.55-.9-2.55-2.43s1.26-2.52,3.19-2.52c1.79,0,3.05.86,3.57,1.81l-1.14,1.21c-.59-.93-1.48-1.48-2.57-1.48-.74,0-1.24.31-1.24.88,0,.6.45.83,1.59,1.12l1.02.26c1.88.48,2.57,1.24,2.57,2.45,0,1.66-1.4,2.49-3.17,2.49s-3.43-.72-4.07-2.05Z"/><path class="cls-1" d="M122.28,9.18V3.33h1.93v5.26c0,1.04.34,1.74,1.64,1.74,1.42,0,1.9-.92,1.9-2.3V3.33h1.95v8.4h-1.95v-2.29c-.31,1.33-1.17,2.47-2.85,2.47s-2.62-.98-2.62-2.73Z"/><path class="cls-1" d="M131.73,11.74V3.33h1.93v2.38c.31-1.35,1.16-2.55,2.66-2.55,1.05,0,1.83.69,1.83,1.93,0,.81-.22,1.42-.38,1.67h-1.98c.28-.28.53-.83.53-1.31s-.22-.84-.79-.84c-.97,0-1.86,1.1-1.86,2.5v4.62h-1.93Z"/><path class="cls-1" d="M138.91,9.92c0-1.19.83-1.92,2.19-2.45l2.81-1.19c-.07-.85-.45-1.42-1.61-1.42s-2,.66-2.49,1.54l-1.16-1.38c.66-.9,1.97-1.86,3.83-1.86,2.09,0,3.26,1.19,3.26,3.26v3.16c0,.38.14.5.45.5h.54v1.66h-1.19c-.9,0-1.61-.41-1.61-1.62v-.62c-.26,1.1-1.07,2.42-2.83,2.42-1.38,0-2.21-.78-2.21-1.99ZM141.81,10.41c1.28,0,2.14-.76,2.14-1.9v-.9l-2.16.97c-.72.33-1.02.62-1.02,1.05,0,.48.33.78,1.04.78Z"/><path class="cls-1" d="M148.23,11.74V3.33h1.93v2.29c.31-1.33,1.17-2.47,2.85-2.47s2.64.98,2.64,2.73v5.85h-1.95v-5.26c0-1.04-.35-1.74-1.64-1.74-1.42,0-1.9.92-1.9,2.3v4.71h-1.93Z"/><path class="cls-1" d="M157.17,7.54c0-2.62,1.57-4.38,4.07-4.38,2.11,0,3.43,1.19,3.88,2.78l-1.74.86c-.19-1.21-.81-2.02-2.11-2.02s-2.14.98-2.14,2.76.81,2.74,2.14,2.74,1.92-.81,2.11-2.02l1.74.86c-.45,1.59-1.78,2.78-3.88,2.78-2.5,0-4.07-1.76-4.07-4.37Z"/><path class="cls-1" d="M166.04,7.54c0-2.64,1.64-4.38,4-4.38,2.52,0,3.92,1.67,3.92,4,0,.31-.03.67-.07.85h-6.01c.1,1.5.98,2.31,2.31,2.31,1.47,0,2.12-.76,2.43-1.47l1.19,1.24c-.64.97-1.78,1.81-3.64,1.81-2.5,0-4.14-1.74-4.14-4.37ZM167.9,6.77h4.31c-.14-1.33-.9-2.05-2.17-2.05-1.19,0-1.98.69-2.14,2.05Z"/></g></svg>