<svg xmlns="http://www.w3.org/2000/svg" viewBox="0 0 53.53 3.36"><defs><style>.cls-1{fill:#fff;}</style></defs><g id="Layer_2" data-name="Layer 2"><g id="Layer_1-2" data-name="Layer 1"><path class="cls-1" d="M0,3.31V.05H1a1.63,1.63,0,0,1,.59.11A1.25,1.25,0,0,1,2,.49a1.58,1.58,0,0,1,.3.52,2,2,0,0,1,.1.67,2.09,2.09,0,0,1-.1.67,1.53,1.53,0,0,1-.3.51,1.17,1.17,0,0,1-.45.34A1.44,1.44,0,0,1,1,3.31Zm.58-.17L.32,2.85H.9a.87.87,0,0,0,.48-.14,1,1,0,0,0,.33-.41,1.46,1.46,0,0,0,.12-.62,1.51,1.51,0,0,0-.12-.63.94.94,0,0,0-.33-.4A.87.87,0,0,0,.9.51H.32L.58.22Z"/><path class="cls-1" d="M2.59,3.31V.05H3.85a1.06,1.06,0,0,1,.74.22.84.84,0,0,1,.25.67.94.94,0,0,1-.09.43.84.84,0,0,1-.24.28.52.52,0,0,1-.27.11.72.72,0,0,1,.25.07.49.49,0,0,1,.2.18.62.62,0,0,1,.07.33V3a1,1,0,0,0,0,.19.4.4,0,0,0,0,.12H4.24a.24.24,0,0,1,0-.12,1,1,0,0,1,0-.19V2.41a.42.42,0,0,0-.11-.31A.49.49,0,0,0,3.73,2H3l.15-.2V3.31Zm.57-1.56L3,1.53h.72A.53.53,0,0,0,4,1.47a.47.47,0,0,0,.18-.19A.57.57,0,0,0,4.24,1,.43.43,0,0,0,4.1.63.57.57,0,0,0,3.71.51H3l.17-.2Z"/><path class="cls-1" d="M5.05,3.31V.05h.57V3.31Z"/><path class="cls-1" d="M6.55,3.33,5.72.05h.64L7,2.94H7L7.61.05h.64L7.42,3.33Z"/><path class="cls-1" d="M8.66.51,8.93.22v1.4l-.14-.18H10v.47H8.79l.14-.18V3.14l-.27-.29h1.6v.46H8.34V.05h1.92V.51Z"/><path class="cls-1" d="M11.17,3.31,12,0h.92l.83,3.27h-.6L12.47.4h0l-.71,2.91Zm.55-.79V2.05h1.52v.47Z"/><path class="cls-1" d="M14,3.31,13.47.05h.6l.38,3.11h-.08L15,.05h.73l.6,3.11h-.08L16.6.05h.6l-.49,3.26h-.9L15.31.47h.06l-.51,2.84Z"/><path class="cls-1" d="M16.9,3.31,17.74,0h.92l.84,3.27h-.6L18.2.4h0L17.5,3.31Zm.54-.79V2.05H19v.47Z"/><path class="cls-1" d="M21.48.05l-.94,2.13V3.31H20V2.18L19,.05h.62l.72,1.83h-.24L20.86.05Z"/><path class="cls-1" d="M23.46,3.36a1.45,1.45,0,0,1-.61-.11.82.82,0,0,1-.4-.33,1,1,0,0,1-.15-.55V2.23h.59v.12a.5.5,0,0,0,.14.4.61.61,0,0,0,.43.13.88.88,0,0,0,.44-.09.34.34,0,0,0,.15-.31.4.4,0,0,0-.1-.26A1.12,1.12,0,0,0,23.66,2l-.4-.15a1.68,1.68,0,0,1-.47-.21,1.13,1.13,0,0,1-.34-.31.9.9,0,0,1-.12-.48A.76.76,0,0,1,22.47.4a.94.94,0,0,1,.4-.3,1.5,1.5,0,0,1,.58-.1A1.55,1.55,0,0,1,24,.11a.86.86,0,0,1,.41.31.89.89,0,0,1,.14.53v.14H24V1A.48.48,0,0,0,23.87.6a.61.61,0,0,0-.41-.12.69.69,0,0,0-.42.1.32.32,0,0,0-.15.3.35.35,0,0,0,.1.26.91.91,0,0,0,.27.18l.4.15a3.11,3.11,0,0,1,.51.22A1.1,1.1,0,0,1,24.5,2a.83.83,0,0,1,.12.46.77.77,0,0,1-.15.49.84.84,0,0,1-.4.31A1.66,1.66,0,0,1,23.46,3.36Z"/><path class="cls-1" d="M26.88.51h-1l.21-.29V3.31h-.58V.22l.22.29h-1V.05h2.22Z"/><path class="cls-1" d="M26.49,3.31,27.34,0h.92l.84,3.27h-.6L27.8.4h0l-.7,2.91ZM27,2.52V2.05h1.52v.47Z"/><path class="cls-1" d="M29.19,3.31V.05h1.26a1.06,1.06,0,0,1,.74.22.84.84,0,0,1,.25.67.83.83,0,0,1-.1.43.72.72,0,0,1-.23.28.59.59,0,0,1-.27.11.78.78,0,0,1,.25.07.47.47,0,0,1,.19.18.62.62,0,0,1,.08.33V3a1,1,0,0,0,0,.19.24.24,0,0,0,0,.12h-.59a.5.5,0,0,1,0-.12.55.55,0,0,1,0-.19V2.41a.42.42,0,0,0-.11-.31.49.49,0,0,0-.34-.1h-.72l.15-.2V3.31Zm.57-1.56-.15-.22h.72a.55.55,0,0,0,.26-.06.47.47,0,0,0,.18-.19A.57.57,0,0,0,30.84,1,.46.46,0,0,0,30.7.63a.57.57,0,0,0-.39-.12h-.72l.17-.2Z"/><path class="cls-1" d="M33.61.51h-1l.21-.29V3.31h-.58V.22l.22.29h-1V.05h2.22Z"/><path class="cls-1" d="M33.75,3.31V.05h.57V3.31Z"/><path class="cls-1" d="M35.16,3.31h-.57V.05h.91l1.2,3-.09,0V.05h.57V3.31h-.93l-1.19-3,.1,0Z"/><path class="cls-1" d="M38.72,3.36A1.28,1.28,0,0,1,38,3.17a1.31,1.31,0,0,1-.49-.57,1.94,1.94,0,0,1-.19-.91,2.12,2.12,0,0,1,.19-.92A1.37,1.37,0,0,1,38.78,0a1.41,1.41,0,0,1,.57.11,1.07,1.07,0,0,1,.37.28,1.07,1.07,0,0,1,.21.37.91.91,0,0,1,.07.35h0v0h-.57v0h0a.62.62,0,0,0,0-.23.47.47,0,0,0-.12-.2.48.48,0,0,0-.2-.14.65.65,0,0,0-.29-.05.78.78,0,0,0-.41.12.85.85,0,0,0-.31.38,1.73,1.73,0,0,0-.12.7,2.11,2.11,0,0,0,.07.55.91.91,0,0,0,.18.37.64.64,0,0,0,.26.21.92.92,0,0,0,.68,0,.55.55,0,0,0,.23-.19.57.57,0,0,0,.11-.22V2.14h-.7V1.71H40v1.6h-.34l0-.36-.08.11a.57.57,0,0,1-.16.14l-.26.12A1.51,1.51,0,0,1,38.72,3.36Z"/><path class="cls-1" d="M41.37.51l.27-.29V1.64l-.18-.16h1.33V2H41.46l.18-.17V3.31h-.58V.05H43V.51Z"/><path class="cls-1" d="M43.17,3.31V.05h1.26a1.07,1.07,0,0,1,.74.22.84.84,0,0,1,.25.67.83.83,0,0,1-.1.43.67.67,0,0,1-.24.28.52.52,0,0,1-.26.11.78.78,0,0,1,.25.07.47.47,0,0,1,.19.18.62.62,0,0,1,.08.33V3a.55.55,0,0,0,0,.19.24.24,0,0,0,0,.12h-.59s0-.06,0-.12a1.09,1.09,0,0,1,0-.19V2.41a.39.39,0,0,0-.12-.31A.46.46,0,0,0,44.3,2h-.72l.16-.2V3.31Zm.57-1.56-.16-.22h.73a.58.58,0,0,0,.26-.06.66.66,0,0,0,.18-.19A.69.69,0,0,0,44.82,1a.46.46,0,0,0-.14-.36.57.57,0,0,0-.39-.12h-.72l.17-.2Z"/><path class="cls-1" d="M46.94,3.36a1.33,1.33,0,0,1-1-.43,1.62,1.62,0,0,1-.3-.53,2.27,2.27,0,0,1-.11-.72A2.27,2.27,0,0,1,45.64,1a1.53,1.53,0,0,1,.3-.53,1.28,1.28,0,0,1,.45-.32,1.46,1.46,0,0,1,1.11,0A1.12,1.12,0,0,1,48,.43a1.53,1.53,0,0,1,.3.53,2,2,0,0,1,.11.72,2,2,0,0,1-.11.72,1.62,1.62,0,0,1-.3.53,1.28,1.28,0,0,1-.45.32A1.3,1.3,0,0,1,46.94,3.36Zm0-.48a.74.74,0,0,0,.42-.12,1,1,0,0,0,.3-.39,1.92,1.92,0,0,0,.11-.69A1.84,1.84,0,0,0,47.66,1a.94.94,0,0,0-.3-.39.76.76,0,0,0-.42-.12.75.75,0,0,0-.41.12.94.94,0,0,0-.3.39,1.84,1.84,0,0,0-.11.69,1.92,1.92,0,0,0,.11.69.88.88,0,0,0,.3.39A.75.75,0,0,0,46.94,2.88Z"/><path class="cls-1" d="M50.85.05h1V3.31h-.55V.42h0l-.7,2.89h-.78L49.11.42h0v2.9h-.56V.05h1l.66,3h0Z"/><path class="cls-1" d="M53.06.67l.32.37-.24.16L52.83.78l-.32.42L52.27,1,52.6.67,52.12.52l.13-.24.44.17V0H53l0,.43.45-.17.12.24Z"/></g></g></svg>