<svg xmlns="http://www.w3.org/2000/svg" viewBox="0 0 80.84 100.8"><defs><style>.cls-1{fill:none;}.cls-2{fill:lime;}.cls-2,.cls-3{stroke:#19102c;stroke-miterlimit:10;stroke-width:1.41px;}.cls-3{fill:red;}</style></defs><g id="Layer_2" data-name="Layer 2"><g id="Layer_1-2" data-name="Layer 1"><rect class="cls-1" width="80.84" height="100.8" rx="9.36"/><path class="cls-2" d="M58.56,11.1H70.63a0,0,0,0,1,0,0v6a6,6,0,0,1-6,6h0a6,6,0,0,1-6-6v-6a0,0,0,0,1,0,0Z" transform="translate(47.46 81.73) rotate(-90)"/><rect class="cls-2" x="47" y="11.1" width="12.07" height="12.07" transform="translate(35.9 70.17) rotate(-90)"/><rect class="cls-2" x="34.93" y="11.1" width="12.07" height="12.07" transform="translate(23.83 58.1) rotate(-90)"/><rect class="cls-2" x="22.86" y="11.1" width="12.07" height="12.07" transform="translate(11.76 46.03) rotate(-90)"/><path class="cls-2" d="M16.83,11.1h0a6,6,0,0,1,6,6v6a0,0,0,0,1,0,0H10.79a0,0,0,0,1,0,0v-6a6,6,0,0,1,6-6Z" transform="translate(-0.31 33.96) rotate(-90)"/><path class="cls-2" d="M58.56,40.67H70.63a0,0,0,0,1,0,0v6a6,6,0,0,1-6,6h0a6,6,0,0,1-6-6v-6a0,0,0,0,1,0,0Z" transform="translate(17.89 111.29) rotate(-90)"/><rect class="cls-2" x="47" y="40.67" width="12.07" height="12.07" transform="translate(6.33 99.74) rotate(-90)"/><rect class="cls-2" x="34.93" y="40.67" width="12.07" height="12.07" transform="translate(-5.74 87.67) rotate(-90)"/><rect class="cls-2" x="22.86" y="40.67" width="12.07" height="12.07" transform="translate(-17.81 75.6) rotate(-90)"/><path class="cls-2" d="M16.83,40.67h0a6,6,0,0,1,6,6v6a0,0,0,0,1,0,0H10.79a0,0,0,0,1,0,0v-6A6,6,0,0,1,16.83,40.67Z" transform="translate(-29.88 63.53) rotate(-90)"/><path class="cls-3" d="M58.39,71H70.46a0,0,0,0,1,0,0v6a6,6,0,0,1-6,6h0a6,6,0,0,1-6-6V71A0,0,0,0,1,58.39,71Z" transform="translate(-12.63 141.49) rotate(-90)"/><rect class="cls-3" x="46.86" y="71.02" width="12.07" height="12.07" transform="translate(-24.17 129.95) rotate(-90)"/><rect class="cls-3" x="34.79" y="71.02" width="12.07" height="12.07" transform="translate(-36.23 117.88) rotate(-90)"/><rect class="cls-3" x="22.72" y="71.02" width="12.07" height="12.07" transform="translate(-48.3 105.82) rotate(-90)"/><path class="cls-3" d="M16.69,71h0a6,6,0,0,1,6,6v6a0,0,0,0,1,0,0H10.65a0,0,0,0,1,0,0v-6A6,6,0,0,1,16.69,71Z" transform="translate(-60.37 93.75) rotate(-90)"/></g></g></svg>