<svg xmlns="http://www.w3.org/2000/svg" viewBox="0 0 336.55 280"><defs><style>.cls-1{fill:#b8cafa;}.cls-2{opacity:0.15;}.cls-3{fill:#fff;}.cls-4{opacity:0.5;}.cls-5{fill:#91a4e4;}.cls-6{fill:#515db1;}.cls-7{fill:#385eaf;}.cls-8{fill:#6f7ec9;}.cls-9{fill:none;}.cls-10{fill:#c7d9ff;}.cls-11{fill:#7890ce;}</style></defs><g id="Layer_2" data-name="Layer 2"><g id="Layer_1-2" data-name="Layer 1"><rect class="cls-1" x="0.55" width="336" height="280"/><g class="cls-2"><path class="cls-3" d="M336.55,0V59.86l-1.18.31c-2.68.64-5.57.95-8.12-.08-3.24-1.31-5.3-4.53-6.57-7.78s-2-6.73-3.59-9.83C311.63,32,297.47,28.77,291.32,18.69,288.39,13.9,287.58,6.57,289,0Z"/><path class="cls-3" d="M137.31,15.51C131.82,28.47,120.14,39.08,106,44c-6.26,2.17-13.13,3.32-18.42,7.1-6.26,4.46-9.17,11.73-12.68,18.27C70,78.48,63.25,87,54,92.67c-14.43,8.87-32.85,9.68-50.17,9.11l-3.32-.11V0H139.79C140.58,5.14,139.39,10.6,137.31,15.51Z"/></g><g class="cls-4"><rect class="cls-5" x="144.14" y="74.32" width="35.82" height="16.05"/><rect class="cls-5" x="144.14" y="112.81" width="35.82" height="16.05"/><rect class="cls-5" x="124.07" y="93.57" width="35.82" height="16.05"/><rect class="cls-5" x="164.21" y="93.57" width="35.82" height="16.05"/><rect class="cls-5" x="306.17" y="34.92" width="30.38" height="16.05"/><rect class="cls-5" x="306.17" y="73.41" width="30.38" height="16.05"/><rect class="cls-5" x="326.23" y="54.17" width="10.32" height="16.05"/><rect class="cls-5" x="286.1" y="54.17" width="35.82" height="16.05" transform="translate(608.01 124.38) rotate(180)"/></g><path class="cls-3" d="M.55,84.8v.88c6.09-1.94,12.13-4.22,17.36-7.89A38,38,0,0,0,33.42,52.9a30.09,30.09,0,0,0,.34-7.26,24.9,24.9,0,0,0,9-2.73C49,39.62,54.55,33.6,58.65,25.5S64.66,8.87,64,1.12h-.85C63.81,8.73,62,17,57.9,25.13c-4,7.94-9.4,13.84-15.57,17a24.45,24.45,0,0,1-8.65,2.64,21.76,21.76,0,0,0-1.21-5.12,16.4,16.4,0,0,0-8.92-9.63,7,7,0,0,0-5.68-.13,5.84,5.84,0,0,0-2.61,6.65,10.67,10.67,0,0,0,4.46,5.78,20.49,20.49,0,0,0,13.21,3.36,30.46,30.46,0,0,1-.33,7.05A37.22,37.22,0,0,1,17.43,77.1C12.36,80.67,6.49,82.9.55,84.8ZM32.84,44.88A19.67,19.67,0,0,1,20.2,41.67a9.83,9.83,0,0,1-4.13-5.3c-.51-2,.17-4.67,2.18-5.69,1.75-.89,3.88-.29,5,.16A15.59,15.59,0,0,1,31.69,40,21,21,0,0,1,32.84,44.88Z"/><rect id="rect145345" class="cls-6" y="108.06" width="87.45" height="5.23"/><rect class="cls-7" x="175.57" y="80.84" width="84.82" height="5.23"/><g id="use41611-6-1-3"><g id="layer34"><rect class="cls-8" x="249.54" y="138.51" width="86.92" height="94.34"/><rect class="cls-6" x="249.54" y="138.51" width="86.92" height="7.08"/><rect class="cls-5" x="256.6" y="218.35" width="79.86" height="14.5"/><rect class="cls-5" x="256.6" y="181.09" width="79.86" height="26.21"/><rect class="cls-5" x="256.6" y="153.33" width="79.86" height="20.45"/><path id="rect29155" class="cls-8" d="M326.76,157.63H289.13c-1.59,0-2.88,1-2.88,2.15h0c0,1.19,1.29,2.15,2.88,2.15h37.63c1.59,0,2.88-1,2.88-2.15h0C329.64,158.6,328.35,157.63,326.76,157.63Z"/><path id="rect29157" class="cls-8" d="M326.76,186.62H289.13c-1.59,0-2.88,1-2.88,2.15h0c0,1.18,1.29,2.15,2.88,2.15h37.63c1.59,0,2.88-1,2.88-2.15h0C329.64,187.58,328.35,186.62,326.76,186.62Z"/><path id="rect29153" class="cls-8" d="M326.76,225.38H289.13c-1.59,0-2.88,1-2.88,2.15h0c0,1.18,1.29,2.15,2.88,2.15h37.63c1.59,0,2.88-1,2.88-2.15h0C329.64,226.34,328.35,225.38,326.76,225.38Z"/></g></g><g id="use41611-6-1-3-2" data-name="use41611-6-1-3"><g id="layer34-2" data-name="layer34"><rect class="cls-8" x="0.55" y="191.05" width="81.96" height="88.95"/><rect class="cls-6" x="0.55" y="191.05" width="81.96" height="6.68"/><rect class="cls-5" x="0.55" y="266.33" width="75.3" height="13.67"/><rect class="cls-5" x="0.55" y="231.2" width="75.3" height="24.72"/><rect class="cls-5" x="0.55" y="205.02" width="75.3" height="19.28"/><path id="rect29155-2" data-name="rect29155" class="cls-8" d="M9.7,209.09H45.18c1.5,0,2.71.9,2.71,2h0c0,1.12-1.21,2-2.71,2H9.7c-1.5,0-2.72-.9-2.72-2H7C7,210,8.2,209.09,9.7,209.09Z"/><path id="rect29157-2" data-name="rect29157" class="cls-8" d="M9.7,236.42H45.18c1.5,0,2.71.9,2.71,2h0c0,1.12-1.21,2-2.71,2H9.7c-1.5,0-2.72-.91-2.72-2H7C7,237.32,8.2,236.42,9.7,236.42Z"/><path id="rect29153-2" data-name="rect29153" class="cls-8" d="M9.7,273H45.18c1.5,0,2.71.91,2.71,2h0c0,1.12-1.21,2-2.71,2H9.7c-1.5,0-2.72-.9-2.72-2H7C7,273.87,8.2,273,9.7,273Z"/></g></g><rect class="cls-9" x="0.55" width="336" height="280"/><g id="use43571-71"><g id="layer20"><path id="path12214" class="cls-3" d="M25.19,85.53l-4,12.41a7.8,7.8,0,0,0,.68,6.28l1.73,3H45.32l1.73-3a7.81,7.81,0,0,0,.68-6.28l-4-12.41Z"/><path id="path12223" class="cls-10" d="M25.91,86.53,22.17,98.24a7,7,0,0,0,.59,5.49l1.45,2.5H44.75l1.45-2.5a6.93,6.93,0,0,0,.59-5.49L43.05,86.53Z"/><path id="rect114367" class="cls-5" d="M24,92.49l-1.84,5.75a6.93,6.93,0,0,0,.59,5.49l1.45,2.5H44.75l1.45-2.5a6.93,6.93,0,0,0,.59-5.49L45,92.49Z"/><rect id="rect12226" class="cls-3" x="23.99" y="84.56" width="21.14" height="2.39" rx="0.33"/><path id="path12509" class="cls-11" d="M34.5,91.72c5.71,0,10.33.32,10.33.7s-4.62.71-10.33.71-10.33-.32-10.33-.71S28.79,91.72,34.5,91.72Z"/><path id="circle115574" class="cls-11" d="M29.33,96.39a1.67,1.67,0,1,1-1.67,1.67A1.67,1.67,0,0,1,29.33,96.39Z"/><path id="circle115578" class="cls-11" d="M34.87,94.54a1.2,1.2,0,1,1-1.2,1.2A1.2,1.2,0,0,1,34.87,94.54Z"/><path id="path115432" class="cls-11" d="M35.39,98.91a1.47,1.47,0,1,1-1.47,1.46A1.46,1.46,0,0,1,35.39,98.91Z"/></g></g></g></g></svg>