<svg xmlns="http://www.w3.org/2000/svg" viewBox="0 0 80.84 100.8"><defs><style>.cls-1{opacity:0.49;}.cls-2{fill:#fff;}.cls-3,.cls-5,.cls-6{fill:none;}.cls-3,.cls-5{stroke:lime;}.cls-3,.cls-4,.cls-5,.cls-6{stroke-miterlimit:10;}.cls-3{stroke-width:4.48px;}.cls-4{fill:#2f2c63;stroke:#19102c;stroke-width:1.41px;}.cls-5,.cls-6{stroke-width:4.92px;}.cls-6{stroke:red;}.cls-7{fill:#18104f;}</style></defs><g id="Layer_2" data-name="Layer 2"><g id="Layer_1-2" data-name="Layer 1"><g class="cls-1"><rect class="cls-2" width="80.84" height="100.8" rx="9.36"/></g><rect class="cls-3" x="34.69" y="-12.77" width="12.07" height="59.81" rx="6.03" transform="translate(23.59 57.86) rotate(-90)"/><path class="cls-4" d="M58.56,11.1H70.63a0,0,0,0,1,0,0v6a6,6,0,0,1-6,6h0a6,6,0,0,1-6-6v-6a0,0,0,0,1,0,0Z" transform="translate(47.46 81.73) rotate(-90)"/><rect class="cls-4" x="47.02" y="11.1" width="12.07" height="12.07" transform="translate(35.92 70.19) rotate(-90)"/><rect class="cls-4" x="34.95" y="11.1" width="12.07" height="12.07" transform="translate(23.85 58.12) rotate(-90)"/><rect class="cls-4" x="22.88" y="11.1" width="12.07" height="12.07" transform="translate(11.78 46.05) rotate(-90)"/><path class="cls-4" d="M16.85,11.1h0a6,6,0,0,1,6,6v6a0,0,0,0,1,0,0H10.82a0,0,0,0,1,0,0v-6a6,6,0,0,1,6-6Z" transform="translate(-0.29 33.98) rotate(-90)"/><rect class="cls-5" x="34.69" y="16.7" width="12.07" height="59.81" rx="6.03" transform="translate(-5.89 87.33) rotate(-90)"/><path class="cls-4" d="M58.56,40.57H70.63a0,0,0,0,1,0,0v6a6,6,0,0,1-6,6h0a6,6,0,0,1-6-6v-6a0,0,0,0,1,0,0Z" transform="translate(17.98 111.2) rotate(-90)"/><rect class="cls-4" x="47.02" y="40.57" width="12.07" height="12.07" transform="translate(6.45 99.66) rotate(-90)"/><rect class="cls-4" x="34.95" y="40.57" width="12.07" height="12.07" transform="translate(-5.62 87.59) rotate(-90)"/><rect class="cls-4" x="22.88" y="40.57" width="12.07" height="12.07" transform="translate(-17.69 75.53) rotate(-90)"/><path class="cls-4" d="M16.85,40.57h0a6,6,0,0,1,6,6v6a0,0,0,0,1,0,0H10.82a0,0,0,0,1,0,0v-6A6,6,0,0,1,16.85,40.57Z" transform="translate(-29.76 63.46) rotate(-90)"/><rect class="cls-6" x="34.69" y="47.04" width="12.07" height="59.81" rx="6.03" transform="translate(-36.23 117.67) rotate(-90)"/><path class="cls-4" d="M58.56,70.91H70.63a0,0,0,0,1,0,0v6a6,6,0,0,1-6,6h0a6,6,0,0,1-6-6v-6A0,0,0,0,1,58.56,70.91Z" transform="translate(-12.35 141.54) rotate(-90)"/><rect class="cls-4" x="47.02" y="70.91" width="12.07" height="12.07" transform="translate(-23.89 130) rotate(-90)"/><rect class="cls-4" x="34.95" y="70.91" width="12.07" height="12.07" transform="translate(-35.96 117.93) rotate(-90)"/><rect class="cls-4" x="22.88" y="70.91" width="12.07" height="12.07" transform="translate(-48.03 105.86) rotate(-90)"/><path class="cls-4" d="M16.85,70.91h0a6,6,0,0,1,6,6v6a0,0,0,0,1,0,0H10.82a0,0,0,0,1,0,0v-6A6,6,0,0,1,16.85,70.91Z" transform="translate(-60.1 93.8) rotate(-90)"/><path class="cls-7" d="M35.25,27.16v1.32H33.37v5.66H32V28.48H30.12V27.16Z"/><path class="cls-7" d="M36,27.16H37.4v7H36Z"/><path class="cls-7" d="M45.52,27.16v7H44.15V29.61l-2,3.24H42l-2-3.23v4.51H38.69v-7h1.42l2,3.3,2-3.3Z"/><path class="cls-7" d="M48.19,32.82h2.94v1.32H46.81v-7h4.27v1.32H48.19V30h2.64v1.3H48.19Z"/><path class="cls-7" d="M31.1,56.38v7H29.73V58.83l-2,3.24H27.6l-2-3.23v4.51H24.27v-7h1.42l2,3.3,2-3.3Z"/><path class="cls-7" d="M38.26,62.45a3.67,3.67,0,1,1,1.06-2.58A3.5,3.5,0,0,1,38.26,62.45Zm-4.17-.94a2.16,2.16,0,0,0,1.6.64,2.19,2.19,0,0,0,2.25-2.28,2.22,2.22,0,0,0-.64-1.64,2.16,2.16,0,0,0-1.61-.65,2.13,2.13,0,0,0-1.6.65,2.39,2.39,0,0,0,0,3.28Z"/><path class="cls-7" d="M44.32,56.38H45.7v7H44.65l-3-4.27v4.27H40.29v-7h1l3,4.25Z"/><path class="cls-7" d="M48.37,62h2.94v1.32H47v-7h4.27V57.7H48.37v1.48H51v1.3H48.37Z"/><path class="cls-7" d="M57.8,56.38l-2.39,4.26v2.72H54V60.64l-2.38-4.26h1.55l1.52,2.91,1.51-2.91Z"/><path class="cls-7" d="M26.87,94.09a3.09,3.09,0,0,1-1.74-.46,2.44,2.44,0,0,1-1-1.26l1.18-.69a1.56,1.56,0,0,0,1.6,1.07,1.38,1.38,0,0,0,.85-.21A.65.65,0,0,0,28,92a.62.62,0,0,0-.33-.57A4.84,4.84,0,0,0,26.52,91a5.91,5.91,0,0,1-.79-.28,3.07,3.07,0,0,1-.65-.37,1.56,1.56,0,0,1-.49-.59,2,2,0,0,1-.17-.84,1.86,1.86,0,0,1,.67-1.51,2.42,2.42,0,0,1,1.62-.56,2.65,2.65,0,0,1,1.49.41,2.81,2.81,0,0,1,1,1.15l-1.15.67a1.4,1.4,0,0,0-1.34-.9,1,1,0,0,0-.67.2.62.62,0,0,0-.25.5.63.63,0,0,0,.28.53,3.62,3.62,0,0,0,1.05.45l.48.15.45.17a3.76,3.76,0,0,1,.44.21l.35.27a1.39,1.39,0,0,1,.31.35,2,2,0,0,1,.18.44,1.88,1.88,0,0,1,.07.55,1.86,1.86,0,0,1-.7,1.53A2.82,2.82,0,0,1,26.87,94.09Z"/><path class="cls-7" d="M34.67,87v1.32H32.78V94H31.41V88.29H29.53V87Z"/><path class="cls-7" d="M39.26,94l-1.41-2.42h-1V94H35.43V87h2.79a2.3,2.3,0,0,1,2.32,2.32,2.16,2.16,0,0,1-.36,1.2,2.33,2.33,0,0,1-1,.83L40.74,94Zm-2.45-5.69v2.06h1.41a.87.87,0,0,0,.67-.3,1,1,0,0,0,.28-.73,1,1,0,0,0-.28-.73.87.87,0,0,0-.67-.3Z"/><path class="cls-7" d="M42.93,92.64h2.94V94H41.55V87h4.27v1.32H42.93v1.49h2.64v1.29H42.93Z"/><path class="cls-7" d="M49.22,94.09a3.13,3.13,0,0,1-1.75-.46,2.47,2.47,0,0,1-1-1.26l1.17-.69a1.57,1.57,0,0,0,1.61,1.07,1.37,1.37,0,0,0,.84-.21.65.65,0,0,0,.27-.53.62.62,0,0,0-.33-.57A4.9,4.9,0,0,0,48.87,91a5.44,5.44,0,0,1-.79-.28,2.85,2.85,0,0,1-.65-.37,1.58,1.58,0,0,1-.5-.59,2,2,0,0,1-.17-.84,1.86,1.86,0,0,1,.68-1.51,2.42,2.42,0,0,1,1.62-.56,2.67,2.67,0,0,1,1.49.41,2.81,2.81,0,0,1,1,1.15l-1.16.67a1.39,1.39,0,0,0-1.33-.9,1.08,1.08,0,0,0-.68.2.61.61,0,0,0-.24.5.62.62,0,0,0,.27.53,3.86,3.86,0,0,0,1.06.45L50,90l.45.17a4.76,4.76,0,0,1,.44.21l.35.27a1.56,1.56,0,0,1,.3.35,2,2,0,0,1,.18.44,1.87,1.87,0,0,1,.08.55,1.89,1.89,0,0,1-.7,1.53A2.82,2.82,0,0,1,49.22,94.09Z"/><path class="cls-7" d="M54.82,94.09a3.15,3.15,0,0,1-1.75-.46,2.47,2.47,0,0,1-1-1.26l1.17-.69a1.58,1.58,0,0,0,1.61,1.07,1.4,1.4,0,0,0,.85-.21A.67.67,0,0,0,56,92a.63.63,0,0,0-.32-.57A5,5,0,0,0,54.47,91a5.44,5.44,0,0,1-.79-.28,3.07,3.07,0,0,1-.65-.37,1.47,1.47,0,0,1-.49-.59A2.08,2.08,0,0,1,53,87.4a2.42,2.42,0,0,1,1.62-.56,2.67,2.67,0,0,1,1.49.41,2.81,2.81,0,0,1,1,1.15L56,89.07a1.39,1.39,0,0,0-1.33-.9,1,1,0,0,0-.67.2.59.59,0,0,0-.25.5.61.61,0,0,0,.28.53,3.62,3.62,0,0,0,1,.45l.48.15.45.17a4.76,4.76,0,0,1,.44.21l.35.27a1.62,1.62,0,0,1,.31.35,2,2,0,0,1,.18.44,1.88,1.88,0,0,1,.07.55,1.86,1.86,0,0,1-.7,1.53A2.82,2.82,0,0,1,54.82,94.09Z"/></g></g></svg>