<svg xmlns="http://www.w3.org/2000/svg" viewBox="0 0 31.18 32.41"><defs><style>.cls-1{fill:#18104f;}.cls-2{fill:#aa2d2d;}.cls-3{fill:#f26a60;}.cls-4{fill:#fff;}</style></defs><g id="Layer_2" data-name="Layer 2"><g id="Layer_1-2" data-name="Layer 1"><path class="cls-1" d="M1.24,1.73C.44,2.41-.26,3.46.1,4.43A2,2,0,0,0,1.42,5.59a4.74,4.74,0,0,0,1.8.12,16.85,16.85,0,0,0,2.12-.28,6.41,6.41,0,0,0,2-.67c2-1.19,1.47-3.84-.63-4.6C5-.43,2.45.7,1.24,1.73Z"/><path class="cls-1" d="M29.94,2.57a2.63,2.63,0,0,1,1.14,2.7,2,2,0,0,1-1.32,1.15,5,5,0,0,1-1.8.13,16.88,16.88,0,0,1-2.12-.29,6.14,6.14,0,0,1-2-.66c-2-1.2-1.47-3.84.63-4.6C26.15.41,28.73,1.54,29.94,2.57Z"/><path class="cls-1" d="M23.31,9.23a2.81,2.81,0,0,0,3.84,4,1.58,1.58,0,0,0,.48-.45,2.82,2.82,0,0,0-3.85-4A1.55,1.55,0,0,0,23.31,9.23Z"/><path class="cls-1" d="M2.85,8.71a2.82,2.82,0,0,0,3.85,4,1.68,1.68,0,0,0,.47-.45A2.82,2.82,0,0,0,3.33,8.26,1.59,1.59,0,0,0,2.85,8.71Z"/><path class="cls-1" d="M23.64,21.78a17.62,17.62,0,0,1-6.9,1.58,33.15,33.15,0,0,1-3.73,0c-1.21-.05-2.43-.09-3.63-.26a10.86,10.86,0,0,1-1.7-.33c-.33-.08-.79-.22-.95-.55a.06.06,0,0,0,0-.08.25.25,0,0,0-.08-.07.15.15,0,0,0-.21.13c.1.74,1.31.88,1.88,1h0a3.92,3.92,0,0,1,1,1.15,18.48,18.48,0,0,1,1,1.84,7.35,7.35,0,0,0,3.23,3.53,5.1,5.1,0,0,0,4.54,0,8,8,0,0,0,3-3.41,19.86,19.86,0,0,0,.93-2.11,4.26,4.26,0,0,1,1.28-2,.12.12,0,0,0,.06-.06l.19-.08C23.82,21.92,23.81,21.7,23.64,21.78Z"/><path class="cls-2" d="M21.38,25.33a12.42,12.42,0,0,1-1.07,2,6.76,6.76,0,0,1-1.58,1.79,4.72,4.72,0,0,1-4.71.49A7.17,7.17,0,0,1,10.67,26a15.24,15.24,0,0,0-1.15-2,4.33,4.33,0,0,0-.72-.77,24.24,24.24,0,0,0,3.28.3c1.31.06,2.62.13,3.93.07a28.17,28.17,0,0,0,3.78-.4,15.16,15.16,0,0,0,3-.85A9.31,9.31,0,0,0,21.38,25.33Z"/><path class="cls-3" d="M17.75,27a12.17,12.17,0,0,0-2,1.42,4.62,4.62,0,0,0-1.19,1.38,4.7,4.7,0,0,0,4.18-.68,6.76,6.76,0,0,0,1.58-1.79,12.5,12.5,0,0,0,.86-1.51A10.45,10.45,0,0,0,17.75,27Z"/><path class="cls-4" d="M12.18,25.29a6,6,0,0,0,3,.52,13.4,13.4,0,0,0,3.27-.55,12.49,12.49,0,0,0,3.63-1.73,4.16,4.16,0,0,1,.73-1.15,15.16,15.16,0,0,1-3,.85,28.17,28.17,0,0,1-3.78.4c-1.31.06-2.62,0-3.93-.07q-.79,0-1.59-.09A4.13,4.13,0,0,0,12.18,25.29Z"/><path class="cls-1" d="M20.15,30.48c-.47.32-.87.74-1.36,1a3.86,3.86,0,0,1-3.62.27,4.4,4.4,0,0,1-1.52-.92s-.09,0-.07.05A3.53,3.53,0,0,0,15,32a4,4,0,0,0,1.88.36,5,5,0,0,0,1.91-.57,4,4,0,0,0,1.49-1.21C20.36,30.49,20.26,30.4,20.15,30.48Z"/></g></g></svg>