<svg xmlns="http://www.w3.org/2000/svg" xmlns:xlink="http://www.w3.org/1999/xlink" viewBox="0 0 1147.86 125.16"><defs><style>.cls-1{fill:url(#linear-gradient);}.cls-2{fill:url(#linear-gradient-2);}.cls-3{fill:url(#linear-gradient-3);}.cls-4{fill:none;}.cls-5{isolation:isolate;}.cls-6{clip-path:url(#clip-path);}.cls-7{fill:url(#linear-gradient-4);}.cls-8{mask:url(#mask);}.cls-9{fill:url(#linear-gradient-5);}.cls-10{fill:url(#linear-gradient-6);}.cls-11{opacity:0.57;fill:url(#linear-gradient-7);}.cls-11,.cls-13,.cls-19,.cls-21,.cls-26,.cls-28,.cls-29{mix-blend-mode:multiply;}.cls-12{opacity:0.71;fill:url(#linear-gradient-8);}.cls-12,.cls-20,.cls-27,.cls-30{mix-blend-mode:screen;}.cls-13{opacity:0.58;}.cls-14{fill:url(#linear-gradient-9);}.cls-15{fill:url(#linear-gradient-10);}.cls-16{mask:url(#mask-2);}.cls-17{fill:url(#linear-gradient-11);}.cls-18,.cls-20{fill:url(#linear-gradient-12);}.cls-19{opacity:0.34;fill:url(#linear-gradient-13);}.cls-21{fill:#eaeff4;}.cls-22{fill:url(#linear-gradient-15);}.cls-23{mask:url(#mask-3);}.cls-24{fill:url(#linear-gradient-16);}.cls-25{fill:url(#linear-gradient-17);}.cls-26{opacity:0.38;fill:url(#linear-gradient-18);}.cls-27{fill:url(#linear-gradient-19);}.cls-29{opacity:0.27;fill:url(#linear-gradient-20);}.cls-31{fill:url(#linear-gradient-21);}.cls-32{fill:#3b8dfc;}.cls-33{fill:#fff;}</style><linearGradient id="linear-gradient" x1="-2496.93" y1="-810.41" x2="-2414.59" y2="-810.41" gradientTransform="translate(2896.17 841.26)" gradientUnits="userSpaceOnUse"><stop offset="0" stop-color="#fff"/><stop offset="0.13" stop-color="#fbfbfb"/><stop offset="0.25" stop-color="#efefef"/><stop offset="0.38" stop-color="#dbdbdb"/><stop offset="0.5" stop-color="#bfbfbf"/><stop offset="0.63" stop-color="#9a9a9a"/><stop offset="0.76" stop-color="#6d6d6d"/><stop offset="0.88" stop-color="#3a3a3a"/><stop offset="1"/></linearGradient><linearGradient id="linear-gradient-2" x1="-187.27" y1="-2071.83" x2="-131.29" y2="-2071.83" gradientTransform="translate(372.1 2084.14)" xlink:href="#linear-gradient"/><linearGradient id="linear-gradient-3" x1="1216.56" y1="-573.27" x2="1281.41" y2="-573.27" gradientTransform="translate(-762.07 676.02)" xlink:href="#linear-gradient"/><clipPath id="clip-path" transform="translate(115.72 5.4)"><rect class="cls-4" y="6.44" width="739" height="96"/></clipPath><linearGradient id="linear-gradient-4" x1="-1748.26" y1="-2254.85" x2="-1480.48" y2="-2674.71" gradientTransform="translate(-1054.28 -2387.72) rotate(180)" gradientUnits="userSpaceOnUse"><stop offset="0" stop-color="#2557b5"/><stop offset="0.43"/><stop offset="0.5" stop-color="#010204"/><stop offset="0.59" stop-color="#040811"/><stop offset="0.68" stop-color="#081327"/><stop offset="0.77" stop-color="#0e2146"/><stop offset="0.86" stop-color="#16346d"/><stop offset="0.96" stop-color="#204b9c"/><stop offset="1" stop-color="#2557b5"/></linearGradient><mask id="mask" x="501.19" y="-18.84" width="109.87" height="110.18" maskUnits="userSpaceOnUse"><g transform="translate(115.72 5.4)"><rect class="cls-1" x="399.23" y="-5.8" width="82.35" height="73.3" transform="translate(721.75 371.08) rotate(-133.6)"/></g></mask><linearGradient id="linear-gradient-5" x1="-337.66" y1="282.74" x2="-340.85" y2="246.3" gradientTransform="matrix(0.81, -0.58, 0.58, 0.81, 566.48, -383.56)" gradientUnits="userSpaceOnUse"><stop offset="0" stop-color="#ffdd02"/><stop offset="1" stop-color="#ffa900"/></linearGradient><linearGradient id="linear-gradient-6" x1="-346.61" y1="239.29" x2="-346.61" y2="283.98" xlink:href="#linear-gradient-5"/><linearGradient id="linear-gradient-7" x1="-355.1" y1="257.45" x2="-325.91" y2="257.45" xlink:href="#linear-gradient-5"/><linearGradient id="linear-gradient-8" x1="813.06" y1="-84.06" x2="861.54" y2="-84.06" gradientTransform="translate(-372.51 -203.42) rotate(21.78)" xlink:href="#linear-gradient-5"/><linearGradient id="linear-gradient-9" x1="825.66" y1="-87.45" x2="853.06" y2="-79.72" gradientTransform="translate(-372.51 -203.42) rotate(21.78)" xlink:href="#linear-gradient-5"/><linearGradient id="linear-gradient-10" x1="831.83" y1="-88.68" x2="852.39" y2="-60.38" gradientTransform="translate(-372.51 -203.42) rotate(21.78)" gradientUnits="userSpaceOnUse"><stop offset="0" stop-color="#fff"/><stop offset="1" stop-color="#ffa900"/></linearGradient><mask id="mask-2" x="291.88" y="-19.6" width="73.32" height="74.62" maskUnits="userSpaceOnUse"><g transform="translate(115.72 5.4)"><rect class="cls-2" x="184.82" y="-12.61" width="55.98" height="49.83" transform="translate(348.89 -151.78) rotate(126.36)"/></g></mask><linearGradient id="linear-gradient-11" x1="978.93" y1="-863.53" x2="1002.12" y2="-863.53" gradientTransform="translate(-925.77 -632.69) rotate(70.83)" gradientUnits="userSpaceOnUse"><stop offset="0" stop-color="#7c96ef"/><stop offset="1" stop-color="#7b58ff"/></linearGradient><linearGradient id="linear-gradient-12" x1="973.08" y1="-862.61" x2="998.27" y2="-862.61" xlink:href="#linear-gradient-11"/><linearGradient id="linear-gradient-13" x1="978.93" y1="-863.99" x2="1002.12" y2="-863.99" xlink:href="#linear-gradient-11"/><linearGradient id="linear-gradient-15" x1="980.71" y1="-864.19" x2="998.1" y2="-857.83" gradientTransform="translate(-925.77 -632.69) rotate(70.83)" gradientUnits="userSpaceOnUse"><stop offset="0" stop-color="#fff"/><stop offset="1" stop-color="#7b58ff"/></linearGradient><mask id="mask-3" x="563.64" y="67.2" width="78.01" height="81.9" maskUnits="userSpaceOnUse"><g transform="translate(115.72 5.4)"><rect class="cls-3" x="454.49" y="73.89" width="64.84" height="57.72" transform="translate(397.24 -386.74) rotate(67.7)"/></g></mask><linearGradient id="linear-gradient-16" x1="-479.42" y1="313.82" x2="-471.51" y2="348.08" gradientTransform="translate(817.79 -377.46) rotate(-21.21)" gradientUnits="userSpaceOnUse"><stop offset="0" stop-color="#5ce595"/><stop offset="1" stop-color="#01afb2"/></linearGradient><linearGradient id="linear-gradient-17" x1="-482.74" y1="312.61" x2="-482.74" y2="353.05" xlink:href="#linear-gradient-16"/><linearGradient id="linear-gradient-18" x1="-489.45" y1="327.07" x2="-466.4" y2="327.07" xlink:href="#linear-gradient-16"/><linearGradient id="linear-gradient-19" x1="1230.73" y1="-572.74" x2="1268.19" y2="-572.74" gradientTransform="translate(-517.36 -835.35) rotate(67.7)" xlink:href="#linear-gradient-16"/><linearGradient id="linear-gradient-20" x1="-488.01" y1="327.15" x2="-475.87" y2="327.15" xlink:href="#linear-gradient-16"/><linearGradient id="linear-gradient-21" x1="-489.09" y1="327.78" x2="-476.95" y2="327.78" gradientTransform="translate(817.79 -377.46) rotate(-21.21)" gradientUnits="userSpaceOnUse"><stop offset="0" stop-color="#f5fff9"/><stop offset="1" stop-color="#73cacc"/></linearGradient></defs><g class="cls-5"><g id="Layer_2" data-name="Layer 2"><g id="Layer_1-2" data-name="Layer 1"><g class="cls-6"><rect class="cls-7" width="1147.86" height="110.72"/></g><g class="cls-8"><path class="cls-9" d="M418.72,11.12l.06-.1c.19-.26.39-.52.6-.76s.45-.48.69-.7a9.92,9.92,0,0,1,.79-.63,8,8,0,0,1,.9-.56,9,9,0,0,1,1-.51A11.15,11.15,0,0,1,424,7.41,14.25,14.25,0,0,1,425.55,7a16,16,0,0,1,2.16-.26,22.9,22.9,0,0,1,2.73,0,29,29,0,0,1,7.22,1.54c.87.29,1.74.63,2.6,1,.68.29,1.35.61,2,.94s1.16.6,1.73.91,1.05.61,1.57.93,1,.61,1.46.94.92.63,1.37,1,.89.66,1.33,1,.86.7,1.28,1.06.85.75,1.26,1.13.84.82,1.24,1.23.86.91,1.27,1.37.89,1,1.31,1.59,1,1.33,1.43,2a27,27,0,0,1,1.68,3c2.37,5,2.31,9.29.27,12.3L456.59,43c2-3,2.1-7.34-.27-12.3a25.55,25.55,0,0,0-1.69-3c-.44-.67-.91-1.34-1.42-2s-.86-1.07-1.32-1.59-.82-.92-1.26-1.37-.82-.82-1.25-1.23-.82-.76-1.25-1.13-.85-.72-1.29-1.06-.87-.69-1.32-1-.91-.65-1.38-1-1-.64-1.45-.94-1-.63-1.57-.92-1.15-.63-1.73-.92-1.34-.65-2-.94c-.87-.37-1.74-.71-2.61-1a28.81,28.81,0,0,0-7.22-1.54,22.71,22.71,0,0,0-2.72,0,16,16,0,0,0-2.16.26,13.69,13.69,0,0,0-1.53.37,11.15,11.15,0,0,0-1.23.45,9.11,9.11,0,0,0-1,.51,7.48,7.48,0,0,0-.89.57,8,8,0,0,0-.79.62c-.24.22-.47.46-.69.7a7.15,7.15,0,0,0-.6.76l-.06.1Z" transform="translate(115.72 5.4)"/><path class="cls-10" d="M427.54,11.09c-11.1-.83-16.22,6.6-11.44,16.6s17.66,18.78,28.76,19.6,16.24-6.6,11.46-16.59S438.65,11.92,427.54,11.09Z" transform="translate(115.72 5.4)"/><path class="cls-11" d="M458,28.3a25.34,25.34,0,0,0-1.68-3c-.44-.68-.92-1.35-1.43-2s-.85-1.07-1.31-1.6-.83-.92-1.26-1.36-.82-.83-1.25-1.23-.83-.76-1.26-1.13-.85-.72-1.28-1.07-.88-.68-1.33-1-.91-.66-1.37-1-1-.64-1.46-.94-1-.63-1.56-.92-1.15-.63-1.73-.92-1.35-.64-2-.94c-.86-.37-1.73-.7-2.6-1a29.26,29.26,0,0,0-7.22-1.54,20.9,20.9,0,0,0-2.73,0,16,16,0,0,0-2.16.25,14.25,14.25,0,0,0-1.53.37,11.77,11.77,0,0,0-1.22.45,10,10,0,0,0-1,.51c-.32.18-.61.37-.9.57a9.74,9.74,0,0,0-.78.63,7.49,7.49,0,0,0-.69.69,9,9,0,0,0-.61.77l-.06.09L416,15.11c-.05.06-.11.12-.15.18l-.06.1,2.89-4.27.06-.1c.19-.26.39-.52.6-.76s.45-.48.69-.7a9.92,9.92,0,0,1,.79-.63,8,8,0,0,1,.9-.56,9,9,0,0,1,1-.51A11.15,11.15,0,0,1,424,7.41,14.25,14.25,0,0,1,425.55,7a16,16,0,0,1,2.16-.26,22.9,22.9,0,0,1,2.73,0,29,29,0,0,1,7.22,1.54c.87.29,1.74.63,2.6,1,.68.29,1.35.61,2,.94s1.16.6,1.73.91,1.05.61,1.57.93,1,.61,1.46.94.92.63,1.37,1,.89.66,1.33,1,.86.7,1.28,1.06.85.75,1.26,1.13.84.82,1.24,1.23.86.91,1.27,1.37.89,1,1.31,1.59,1,1.33,1.43,2a27,27,0,0,1,1.68,3c2.37,5,2.31,9.29.27,12.3l-1,1.5C460.26,37.24,460.24,33.07,458,28.3Z" transform="translate(115.72 5.4)"/><path class="cls-12" d="M416.1,27.69c4.78,10,17.66,18.78,28.76,19.6s16.24-6.6,11.46-16.59-17.67-18.78-28.78-19.61S411.32,17.69,416.1,27.69Zm2.61.2c-4.16-8.7.3-15.17,10-14.45s20.87,8.36,25,17.06-.3,15.16-10,14.44S422.87,36.58,418.71,27.89Z" transform="translate(115.72 5.4)"/><g class="cls-13"><path class="cls-14" d="M443.14,27.65A5.65,5.65,0,0,1,444.51,29a4.11,4.11,0,0,1,.83,1.75,1.49,1.49,0,0,1-.74,1.55,7,7,0,0,1-2.64.91c-.17,0-.18.09-.07.23.53.71,1.06,1.41,1.6,2.11.15.19.15.19-.08.22L442,36a.3.3,0,0,1-.3-.14L440,33.66c0-.07-.09-.13-.19-.12l-1.31.16.88,1.17.89,1.17c.08.09.07.12-.05.14l-1.54.2a.25.25,0,0,1-.28-.13l-1.65-2.17s-.08-.1-.14-.17l-3.64.47c-.1-.18-.18-.33-.28-.49-.22-.41-.43-.81-.66-1.22-.07-.12,0-.17.12-.18l1.14-.16c.39,0,.47-.29.23-.62l-5-6.61a1.65,1.65,0,0,0-1.33-.57l-.2,0-1.2.14h-.06a.17.17,0,0,1-.16-.08c-.37-.5-.75-1-1.12-1.48l0-.07,1.69-.22,1.73-.23c.16,0,.18,0,.09-.17l-1.65-2.15c-.09-.12-.08-.17.07-.19l1.51-.19a.24.24,0,0,1,.27.12l1.6,2.11.14.15,1.27-.18V22l-1.25-1.65-.38-.49c-.05-.08-.05-.12.05-.13l1.59-.21h.14c.42.54.83,1.07,1.23,1.61.17.22.34.43.5.66s.16.15.34.16c.67,0,1.34,0,2,.06a6.38,6.38,0,0,1,2.09.51,5.4,5.4,0,0,1,2.26,1.73,2.37,2.37,0,0,1,.61,1.38,1.15,1.15,0,0,1-.35.88l-.1.12c.28,0,.54.06.81.11A5.89,5.89,0,0,1,443.14,27.65ZM441,30.73c.54-.56-.22-1.64-1.34-2.08a5.92,5.92,0,0,0-1.65-.34,10.84,10.84,0,0,0-1.63.05c-.54.05-1.06.13-1.58.21-.14,0-.13.06,0,.16l.94,1.25,1.42,1.85h.13a17.08,17.08,0,0,0,2.48-.43,2.7,2.7,0,0,0,1.28-.67m-7.63-3.81a.21.21,0,0,0,.21.11h0l.59-.08a6.92,6.92,0,0,0,2-.48c.09-.06.24-.14.37-.24.59-.48.05-1.51-1.06-2a4.44,4.44,0,0,0-1.78-.35,6.5,6.5,0,0,0-1.09,0c-.41,0-.81.1-1.21.16-.14,0-.17.06-.08.18q1,1.34,2,2.67" transform="translate(115.72 5.4)"/></g><path class="cls-15" d="M442.38,28.7A5.65,5.65,0,0,1,443.75,30a4.2,4.2,0,0,1,.84,1.75,1.53,1.53,0,0,1-.74,1.55,7.48,7.48,0,0,1-2.64.91c-.18,0-.19.09-.08.23l1.6,2.1c.15.2.15.2-.08.23L441.2,37a.28.28,0,0,1-.3-.13l-1.64-2.16c-.05-.07-.09-.13-.19-.12l-1.31.16.88,1.16.89,1.17c.08.1.07.13,0,.15l-1.54.2a.25.25,0,0,1-.28-.13L436,35.13c-.05-.05-.08-.1-.14-.17l-3.63.47c-.11-.19-.19-.34-.29-.49-.21-.41-.43-.82-.66-1.22-.07-.12,0-.17.12-.19l1.14-.15c.39-.06.48-.3.24-.62l-5-6.61a1.66,1.66,0,0,0-1.33-.58l-.2,0c-.41,0-.8.1-1.2.15H425a.17.17,0,0,1-.16-.09l-1.12-1.47,0-.07,1.69-.22,1.74-.23c.15,0,.17-.05.08-.18-.56-.72-1.1-1.43-1.64-2.14-.1-.12-.09-.17.06-.19.51-.06,1-.12,1.51-.2a.26.26,0,0,1,.27.13L429,23.2l.13.15,1.27-.18V23l-1.25-1.64-.38-.5c-.05-.07-.05-.11.05-.12l1.59-.21h.15l1.22,1.61.5.66c.08.13.16.16.34.16.67,0,1.34,0,2,.06a6.93,6.93,0,0,1,2.09.51A5.35,5.35,0,0,1,439,25.28a2.43,2.43,0,0,1,.62,1.38,1.21,1.21,0,0,1-.36.88l-.1.11.81.11A5.77,5.77,0,0,1,442.38,28.7Zm-2.09,3.08c.53-.56-.23-1.65-1.35-2.08a5.23,5.23,0,0,0-1.65-.34,9.67,9.67,0,0,0-1.63.05c-.54.05-1.05.13-1.58.2-.14,0-.13.07-.05.17L435,31c.46.61.92,1.22,1.41,1.85h.13a18.55,18.55,0,0,0,2.48-.43,2.79,2.79,0,0,0,1.29-.67M432.65,28a.21.21,0,0,0,.22.11h0l.59-.07a7.18,7.18,0,0,0,2-.48c.09-.06.24-.15.37-.25.59-.48.05-1.5-1.06-2a4.45,4.45,0,0,0-1.77-.36,7.81,7.81,0,0,0-1.1.05c-.41,0-.81.1-1.21.15-.14,0-.17.06-.07.18l2,2.68" transform="translate(115.72 5.4)"/></g><g class="cls-16"><path class="cls-17" d="M230.38,6l.05.07a7.17,7.17,0,0,1,.45.63c.13.22.26.45.37.68s.21.49.3.75a6.89,6.89,0,0,1,.23.81,8.44,8.44,0,0,1,.16.9,8.81,8.81,0,0,1,.06,1c0,.4,0,.82-.06,1.25a14.17,14.17,0,0,1-.3,1.7,16.78,16.78,0,0,1-.64,2.07A23.83,23.83,0,0,1,228.2,21c-.43.59-.88,1.18-1.36,1.75s-.76.9-1.17,1.33-.72.75-1.09,1.11-.69.67-1.05,1-.69.6-1.05.89-.69.56-1,.83-.71.53-1.07.78l-1.1.74-1.14.7c-.41.23-.81.46-1.22.67s-.88.45-1.33.65-1,.45-1.51.64-1.23.45-1.84.64a21.66,21.66,0,0,1-2.66.61c-4.31.68-7.6-.35-9.42-2.58l-2.6-3.16c1.82,2.22,5.11,3.26,9.43,2.57a21.94,21.94,0,0,0,2.65-.61c.61-.18,1.23-.4,1.84-.63s1-.41,1.51-.64.89-.43,1.33-.66.81-.43,1.22-.67.77-.46,1.15-.7.73-.48,1.1-.74l1.07-.77,1-.83c.36-.3.71-.59,1.05-.9s.71-.65,1-1,.74-.74,1.09-1.12.8-.87,1.18-1.33.92-1.15,1.35-1.75a23.19,23.19,0,0,0,2.8-5.15,15.23,15.23,0,0,0,.64-2.07,13.83,13.83,0,0,0,.3-1.7c0-.43.06-.85.06-1.25a8.94,8.94,0,0,0-.06-1,8.44,8.44,0,0,0-.16-.9,6.89,6.89,0,0,0-.23-.81,4.78,4.78,0,0,0-.3-.74,4.92,4.92,0,0,0-.37-.68,6.07,6.07,0,0,0-.45-.64l-.05-.07Z" transform="translate(115.72 5.4)"/><path class="cls-18" d="M228.4,12.68C231.54,4.41,227-1.17,218.35.21s-18.29,9.21-21.44,17.48S198.27,31.54,207,30.16,225.26,21,228.4,12.68Z" transform="translate(115.72 5.4)"/><path class="cls-19" d="M208.42,32a19.83,19.83,0,0,0,2.65-.61c.62-.18,1.23-.39,1.85-.63s1-.41,1.51-.64.88-.42,1.32-.65.82-.44,1.22-.67.77-.46,1.15-.71.74-.48,1.1-.73.72-.51,1.07-.78l1.05-.83c.35-.29.7-.59,1-.9s.71-.65,1.06-1,.73-.73,1.09-1.11.79-.88,1.17-1.33.93-1.16,1.35-1.76a22.57,22.57,0,0,0,2.8-5.15,16.89,16.89,0,0,0,.65-2.07,13.44,13.44,0,0,0,.29-1.7,8.79,8.79,0,0,0,.06-1.24,8.69,8.69,0,0,0-.06-1,9.09,9.09,0,0,0-.15-.91c-.07-.28-.14-.55-.23-.81s-.19-.5-.3-.74a7.44,7.44,0,0,0-.38-.68,5.47,5.47,0,0,0-.44-.63l-.06-.07L227.94,3l-.11-.16-.05-.07L230.38,6l.05.07a7.17,7.17,0,0,1,.45.63c.13.22.26.45.37.68s.21.49.3.75a6.89,6.89,0,0,1,.23.81,8.44,8.44,0,0,1,.16.9,8.81,8.81,0,0,1,.06,1c0,.4,0,.82-.06,1.25a14.17,14.17,0,0,1-.3,1.7,16.78,16.78,0,0,1-.64,2.07A23.83,23.83,0,0,1,228.2,21c-.43.59-.88,1.18-1.36,1.75s-.76.9-1.17,1.33-.72.75-1.09,1.11-.69.67-1.05,1-.69.6-1.05.89-.69.56-1,.83-.71.53-1.07.78l-1.1.74-1.14.7c-.41.23-.81.46-1.22.67s-.88.45-1.33.65-1,.45-1.51.64-1.23.45-1.84.64a21.66,21.66,0,0,1-2.66.61c-4.31.68-7.6-.35-9.42-2.58l-.92-1.11C201.09,31.68,204.28,32.61,208.42,32Z" transform="translate(115.72 5.4)"/><path class="cls-20" d="M218.35.21c-8.7,1.38-18.29,9.21-21.44,17.48S198.27,31.54,207,30.16,225.26,21,228.4,12.68,227-1.17,218.35.21Zm-.74,2C225.17,1,229.09,5.81,226.35,13s-11.08,14-18.64,15.2S196.23,24.56,199,17.36,210,3.36,217.61,2.16Z" transform="translate(115.72 5.4)"/><path class="cls-21" d="M223.56,10h0l-.05,0-1.93,1.9-2.64,2.6-2.86,2.8-2.66,2.62-.46.45h0l0-.06c.15-.26.29-.53.43-.79l.52-1,.6-1.14.52-1,.62-1.17.52-1c.13-.24.24-.46.38-.7l.05-.07h0v0c0-.13-.1-.26-.15-.39l-.08-.22-.12-.33-.09-.22c-.06-.14-.11-.3-.17-.45l-.07-.2c0-.11-.08-.21-.12-.33l-.09-.22c-.06-.15-.12-.29-.17-.45l-.08-.2c0-.12-.09-.23-.13-.34l-.08-.21-.12-.34a2.15,2.15,0,0,1-.1-.27h.09l8.42.65h0M215.4,14h0l0-.06-.12-.26c-.09-.28-.19-.54-.29-.81l-.27-.68c-.08-.24-.17-.46-.26-.7l-.22-.6c-.08-.2-.16-.4-.23-.6s-.12-.31-.18-.47h0l0,0h0c-.35.58-.7,1.16-1.07,1.74L209.42,17l0,.07v0l.1.16c.74,1.19,1.48,2.38,2.23,3.57l0,0v0c.19-.35.38-.69.56-1.05s.5-.91.73-1.37.38-.69.56-1.05c.27-.51.55-1,.81-1.52s.38-.7.56-1.05.27-.49.39-.74l.05-.07m-3-3.59-.06.06-8.2,8.66-.86.91,0,0h0c.71.14,1.42.29,2.14.42l2.18.43,2.11.41.56.11h.05v-.05l-1-1.59L208.14,18l-.19-.3.9-1.48,3.49-5.72,0,0h0" transform="translate(115.72 5.4)"/><path class="cls-22" d="M222.62,9.24h0l0,0-1.93,1.89L218,13.78l-2.85,2.81-2.66,2.61c-.15.15-.31.3-.46.46v0l0-.06c.15-.26.29-.52.43-.79l.52-1c.2-.37.4-.76.61-1.14l.51-1c.21-.39.42-.78.62-1.17l.53-1c.12-.23.23-.46.37-.7l0-.07h0v0c0-.13-.11-.25-.15-.39l-.08-.22-.12-.32-.09-.23a4,4,0,0,1-.17-.44L215,11a2.52,2.52,0,0,1-.13-.33l-.08-.22a3,3,0,0,1-.17-.45l-.09-.2c0-.11-.09-.22-.13-.34l-.08-.21-.12-.34a2.77,2.77,0,0,1-.1-.26h.09l8.43.64h0m-8.17,4.06h0l0-.06c0-.09-.08-.17-.11-.26-.09-.27-.2-.54-.3-.81s-.17-.45-.26-.68l-.27-.7c-.07-.2-.14-.4-.22-.6s-.16-.39-.23-.6-.11-.31-.17-.46l0,0h0l-1.06,1.73-3.32,5.44,0,.07v0l.1.16c.75,1.19,1.48,2.39,2.23,3.57l0,0,0,0,.56-1,.73-1.37.56-1.05c.26-.5.54-1,.81-1.52.18-.35.37-.7.56-1.05l.39-.74,0-.07m-3-3.59-.06.06-8.2,8.66-.85.91,0,0h0l2.14.41,2.18.43c.72.13,1.42.28,2.12.42l.55.1h.05V20.7l-1-1.59c-.38-.62-.77-1.22-1.15-1.84-.06-.11-.14-.21-.2-.31l.9-1.48c1.17-1.9,2.33-3.81,3.49-5.71l0,0h0" transform="translate(115.72 5.4)"/></g><g class="cls-23"><path class="cls-24" d="M476.81,86.12l.07-.06a7.05,7.05,0,0,1,.61-.47,7.16,7.16,0,0,1,.66-.39c.24-.12.48-.23.73-.33a6.77,6.77,0,0,1,.8-.25,7.76,7.76,0,0,1,.89-.19c.33-.05.67-.08,1-.1a10.36,10.36,0,0,1,1.24,0,13.52,13.52,0,0,1,1.7.23,16.7,16.7,0,0,1,2.08.57,23.26,23.26,0,0,1,5.21,2.6c.61.4,1.21.82,1.79,1.28s.92.73,1.36,1.12.77.68,1.15,1,.68.66,1,1,.63.66.93,1,.58.66.86,1,.55.68.81,1,.52.71.77,1.07.5.74.74,1.11.48.79.71,1.19.48.86.7,1.29.47,1,.69,1.48.49,1.21.69,1.81a21.5,21.5,0,0,1,.7,2.61c.83,4.27-.07,7.56-2.22,9.46l-3,2.69c2.14-1.89,3-5.19,2.22-9.45a21.65,21.65,0,0,0-.7-2.62c-.21-.6-.44-1.21-.7-1.81s-.44-1-.69-1.47-.45-.87-.69-1.3-.47-.79-.71-1.18-.49-.75-.74-1.12-.51-.71-.77-1.06-.54-.7-.81-1-.57-.68-.86-1l-.93-1c-.33-.34-.67-.68-1-1s-.75-.71-1.14-1-.9-.76-1.36-1.12-1.19-.88-1.79-1.28a23.12,23.12,0,0,0-5.22-2.6,18.06,18.06,0,0,0-2.08-.57,15,15,0,0,0-1.7-.23c-.42,0-.84,0-1.24,0s-.69,0-1,.1a8.43,8.43,0,0,0-.9.19,7.46,7.46,0,0,0-.8.26,5.83,5.83,0,0,0-.72.32,5.52,5.52,0,0,0-.66.4,7.11,7.11,0,0,0-.62.46l-.06.06Z" transform="translate(115.72 5.4)"/><path class="cls-25" d="M483.56,87.84c-8.32-2.83-13.71,1.84-12,10.43s9.79,17.84,18.11,20.66,13.72-1.84,12-10.42S491.89,90.67,483.56,87.84Z" transform="translate(115.72 5.4)"/><path class="cls-26" d="M503.42,107a21,21,0,0,0-.7-2.61c-.21-.61-.44-1.21-.7-1.81s-.44-1-.69-1.48-.45-.87-.69-1.29-.47-.8-.71-1.19-.49-.75-.74-1.11-.51-.72-.77-1.07-.54-.7-.81-1-.57-.68-.86-1-.62-.68-.93-1-.67-.69-1-1-.75-.7-1.14-1-.9-.76-1.36-1.12-1.19-.88-1.79-1.28a23.12,23.12,0,0,0-5.22-2.6,16.15,16.15,0,0,0-2.08-.56,13.11,13.11,0,0,0-1.7-.24c-.42,0-.84,0-1.24,0a9.75,9.75,0,0,0-1.92.28,7.46,7.46,0,0,0-.8.26,5.88,5.88,0,0,0-.72.33,7.16,7.16,0,0,0-.66.39,5.61,5.61,0,0,0-.62.47l-.06,0L474,88.64l-.15.11-.06.06,3.05-2.69.07-.06a7.05,7.05,0,0,1,.61-.47,7.16,7.16,0,0,1,.66-.39c.24-.12.48-.23.73-.33a6.77,6.77,0,0,1,.8-.25,7.76,7.76,0,0,1,.89-.19c.33-.05.67-.08,1-.1a10.36,10.36,0,0,1,1.24,0,13.52,13.52,0,0,1,1.7.23,16.7,16.7,0,0,1,2.08.57,23.26,23.26,0,0,1,5.21,2.6c.61.4,1.21.82,1.79,1.28s.92.73,1.36,1.12.77.68,1.15,1,.68.66,1,1,.63.66.93,1,.58.66.86,1,.55.68.81,1,.52.71.77,1.07.5.74.74,1.11.48.79.71,1.19.48.86.7,1.29.47,1,.69,1.48.49,1.21.69,1.81a21.5,21.5,0,0,1,.7,2.61c.83,4.27-.07,7.56-2.22,9.46l-1.07.94C503.41,114.29,504.22,111.09,503.42,107Z" transform="translate(115.72 5.4)"/><path class="cls-27" d="M471.54,98.27c1.68,8.58,9.79,17.84,18.11,20.66s13.72-1.84,12-10.42-9.8-17.84-18.13-20.67S469.85,89.68,471.54,98.27Zm2,.66C472,91.46,476.72,87.4,484,89.86s14.3,10.51,15.77,18-3.23,11.53-10.47,9.07S475,106.4,473.5,98.93Z" transform="translate(115.72 5.4)"/><g class="cls-28"><path class="cls-29" d="M482.85,95.79l.17,0a4.5,4.5,0,0,1,3.3,2.92,2.57,2.57,0,0,1-.06,2,1.08,1.08,0,0,0,.26,1.13l0,0a1.41,1.41,0,0,0,.9.51l.16,0a.66.66,0,0,0,.74-.49,1.93,1.93,0,0,1,2.19-1.38h.09a4.46,4.46,0,0,1,3.44,3.11c.44,1.7-.55,3-2.17,2.81a4.23,4.23,0,0,1-2.93-1.86,1.45,1.45,0,0,0-1-.66l-.16,0a.65.65,0,0,0-.69.37l-.12.27a1.05,1.05,0,0,0,.24,1.06,4.07,4.07,0,0,1,.85,1.9,2,2,0,0,1-2,2.42,1.41,1.41,0,0,1-.29,0,4.38,4.38,0,0,1-3.62-3.55,2,2,0,0,1,1.42-2.32,2.49,2.49,0,0,1,.86-.07l.2,0h.09a.66.66,0,0,0,.71-.36l.07-.17a1.11,1.11,0,0,0-.25-1.1l-.17-.2a1.4,1.4,0,0,0-.89-.5h0a3.25,3.25,0,0,1-1.32-.44,4.56,4.56,0,0,1-2.28-2.89,2,2,0,0,1,2.21-2.62" transform="translate(115.72 5.4)"/></g><g class="cls-30"><path class="cls-31" d="M482.07,96.77l.16,0a4.49,4.49,0,0,1,3.31,2.93,2.59,2.59,0,0,1-.07,2,1.12,1.12,0,0,0,.26,1.14l0,.05a1.44,1.44,0,0,0,.89.51h.16a.67.67,0,0,0,.75-.49,1.92,1.92,0,0,1,2.19-1.38h.09a4.45,4.45,0,0,1,3.43,3.11c.45,1.71-.54,3-2.17,2.81a4.2,4.2,0,0,1-2.93-1.86,1.46,1.46,0,0,0-1-.66H487a.65.65,0,0,0-.7.37l-.11.26a1,1,0,0,0,.24,1.06,4.06,4.06,0,0,1,.85,1.91,2,2,0,0,1-1.95,2.42l-.29,0a4.36,4.36,0,0,1-3.62-3.55,2,2,0,0,1,1.41-2.32,2.28,2.28,0,0,1,.86-.06l.2,0,.1,0a.65.65,0,0,0,.7-.37l.07-.16a1.1,1.1,0,0,0-.25-1.11l-.17-.2a1.34,1.34,0,0,0-.89-.49h0a3.47,3.47,0,0,1-1.33-.43,4.59,4.59,0,0,1-2.27-2.9,2,2,0,0,1,2.21-2.62" transform="translate(115.72 5.4)"/></g></g><path class="cls-32" d="M35.06,50.48V43.82L27.65,31h5.23l2.41,4.88,1.92,4.48,1.92-4.45L41.66,31h5L39.22,43.82v6.66Z" transform="translate(115.72 5.4)"/><path class="cls-32" d="M45.22,43.36c0-4.34,2.79-7.42,7.12-7.42s7.27,3.08,7.27,7.42-2.82,7.41-7.27,7.41S45.22,47.72,45.22,43.36Zm10.17,0c0-2.94-1.22-4-3-4s-3,1.1-3,4,1.22,4,3,4S55.39,46.27,55.39,43.36Z" transform="translate(115.72 5.4)"/><path class="cls-32" d="M61.83,46.18v-10H66v8.49c0,1.75.47,2.83,2.39,2.83S71,46.44,71,44.11V36.23h4.16V50.48H71v-4c-.5,2.27-1.86,4.27-4.74,4.27C63.51,50.77,61.83,49.12,61.83,46.18Z" transform="translate(115.72 5.4)"/><path class="cls-32" d="M78.06,50.48V36.23h4.16v4.48c.46-2.38,1.86-4.77,4.59-4.77,2.1,0,3.26,1.34,3.26,3.58a6.58,6.58,0,0,1-.82,3.31h-4a3.8,3.8,0,0,0,1-2.35c0-.82-.38-1.43-1.28-1.43-1.43,0-2.76,1.54-2.76,3.9v7.53Z" transform="translate(115.72 5.4)"/><path class="cls-32" d="M96.91,40.71c0-5.61,3.57-10,9.68-10a9,9,0,0,1,8.73,5.55l-3.55,2.85c-.58-2.44-2.24-4.42-5.21-4.42-3.4,0-5.17,2.47-5.17,6s1.77,6,5.17,6c3,0,4.63-2,5.21-4.42l3.55,2.85a9,9,0,0,1-8.73,5.56C100.48,50.72,96.91,46.32,96.91,40.71Z" transform="translate(115.72 5.4)"/><path class="cls-32" d="M117.24,50.48V36.23h4.16v4.48c.46-2.38,1.86-4.77,4.59-4.77,2.1,0,3.26,1.34,3.26,3.58a6.59,6.59,0,0,1-.81,3.31h-4a3.75,3.75,0,0,0,1-2.35c0-.82-.38-1.43-1.28-1.43-1.42,0-2.76,1.54-2.76,3.9v7.53Z" transform="translate(115.72 5.4)"/><path class="cls-32" d="M129.49,53.77l1.66-3.49a4.28,4.28,0,0,0,3.19,1.77c1.11,0,1.75-.37,2.21-1.74l.3-.76h-2.53l-4.63-13.32h4.6l2,6.72,1.05,4.77L138.45,43l2-6.72h4.68L140,51.36c-1.11,3.17-2.88,4.36-5.56,4.36A7.11,7.11,0,0,1,129.49,53.77Z" transform="translate(115.72 5.4)"/><path class="cls-32" d="M146.74,55.89V36.23h4.16v4.05c.4-2.3,1.57-4.37,4.53-4.37,3.32,0,5.47,2.71,5.47,7.45s-2.15,7.41-5.64,7.41c-3,0-4-2-4.36-4.33v9.45Zm6.86-8.34c1.89,0,3.08-1.49,3.08-4.19s-1.19-4.19-3.08-4.19c-1.74,0-2.7,1.08-2.7,3.4v1.54C150.9,46.44,151.86,47.55,153.6,47.55Z" transform="translate(115.72 5.4)"/><path class="cls-32" d="M163.84,46.27V39.4h-2.12V36.23h2.12V34.55L168,32.36v3.87h4V39.4h-4v6.11c0,1.16.58,1.57,1.4,1.57a2.67,2.67,0,0,0,2.12-1.51l1.19,3.4a5.36,5.36,0,0,1-4.24,1.8C165.32,50.77,163.84,48.91,163.84,46.27Z" transform="translate(115.72 5.4)"/><path class="cls-32" d="M173,43.36c0-4.34,2.79-7.42,7.12-7.42s7.27,3.08,7.27,7.42-2.82,7.41-7.27,7.41S173,47.72,173,43.36Zm10.17,0c0-2.94-1.22-4-3-4s-3,1.1-3,4,1.22,4,3,4S183.18,46.27,183.18,43.36Z" transform="translate(115.72 5.4)"/><path class="cls-32" d="M189.06,50.48V46h4.42v4.5Z" transform="translate(115.72 5.4)"/><path class="cls-33" d="M35.06,78.75V72.09L27.65,59.27h5.23l2.41,4.88,1.92,4.48,1.92-4.45,2.53-4.91h5L39.22,72.09v6.66Z" transform="translate(115.72 5.4)"/><path class="cls-33" d="M45.22,71.63c0-4.34,2.79-7.42,7.12-7.42s7.27,3.08,7.27,7.42S56.79,79,52.34,79,45.22,76,45.22,71.63Zm10.17,0c0-2.94-1.22-4-3-4s-3,1.11-3,4,1.22,4,3,4S55.39,74.53,55.39,71.63Z" transform="translate(115.72 5.4)"/><path class="cls-33" d="M61.83,74.45v-10H66V73c0,1.75.47,2.82,2.39,2.82S71,74.71,71,72.38V64.5h4.16V78.75H71v-4C70.46,77,69.1,79,66.22,79,63.51,79,61.83,77.38,61.83,74.45Z" transform="translate(115.72 5.4)"/><path class="cls-33" d="M78.06,78.75V64.5h4.16V69c.46-2.39,1.86-4.77,4.59-4.77,2.1,0,3.26,1.34,3.26,3.58a6.58,6.58,0,0,1-.82,3.31h-4a3.8,3.8,0,0,0,1-2.35c0-.82-.38-1.43-1.28-1.43-1.43,0-2.76,1.54-2.76,3.9v7.53Z" transform="translate(115.72 5.4)"/><path class="cls-33" d="M97.46,78.75V59.27h8.08c4.48,0,7.92,2.06,7.92,7s-3.38,6.87-7.92,6.87h-3.92v5.64ZM101.62,63v6.45h3.78c2.15,0,3.69-.87,3.69-3.17S107.55,63,105.4,63Z" transform="translate(115.72 5.4)"/><path class="cls-33" d="M115.21,78.75V64.5h4.15V69c.47-2.39,1.87-4.77,4.6-4.77,2.09,0,3.26,1.34,3.26,3.58a6.58,6.58,0,0,1-.82,3.31h-4a3.8,3.8,0,0,0,1-2.35c0-.82-.38-1.43-1.28-1.43-1.43,0-2.77,1.54-2.77,3.9v7.53Z" transform="translate(115.72 5.4)"/><path class="cls-33" d="M128.93,62.81V59.27h4.16v3.54Zm0,15.94V64.5h4.16V78.75Z" transform="translate(115.72 5.4)"/><path class="cls-33" d="M139.73,78.75l-5-14.25h4.6l2,6.83,1.1,5,1.08-5,2-6.83H150l-5,14.25Z" transform="translate(115.72 5.4)"/><path class="cls-33" d="M150.58,75.58c0-2.15,1.36-3.4,4.07-4.33L159,69.62c-.14-1.19-.7-1.86-2.27-1.86a5.56,5.56,0,0,0-4.45,2.44l-2.09-3a9.25,9.25,0,0,1,6.83-3c3.61,0,5.7,1.92,5.7,5.5v4.88c0,.64.24.85.76.85h.84v3.31h-2.44c-1.54,0-2.94-.7-2.94-2.73v-1c-.46,1.86-1.71,4-4.62,4C152.12,79.07,150.58,77.88,150.58,75.58Zm5.29.44c2,0,3.08-1,3.08-2.74v-1l-3,1.25c-1.14.47-1.51.88-1.51,1.43S154.88,76,155.87,76Z" transform="translate(115.72 5.4)"/><path class="cls-33" d="M165.59,71.63c0-4.34,2.76-7.42,7.15-7.42a6.69,6.69,0,0,1,6.63,4.3l-3.46,2c-.35-1.77-1.28-2.85-3-2.85s-3.06,1.34-3.06,4,1.22,4,3.06,4,2.67-1.08,3-2.85l3.46,2a6.69,6.69,0,0,1-6.63,4.3C168.35,79,165.59,76,165.59,71.63Z" transform="translate(115.72 5.4)"/><path class="cls-33" d="M179.4,82l1.66-3.49a4.33,4.33,0,0,0,3.2,1.77c1.11,0,1.75-.38,2.21-1.74l.29-.76h-2.53L179.61,64.5h4.59l2,6.72,1,4.77,1.07-4.77,2-6.72h4.68l-5.12,15.12c-1.1,3.17-2.88,4.37-5.55,4.37A7.14,7.14,0,0,1,179.4,82Z" transform="translate(115.72 5.4)"/><path class="cls-33" d="M194.59,78.75V74.24H199v4.51Z" transform="translate(115.72 5.4)"/></g></g></g></svg>