<svg xmlns="http://www.w3.org/2000/svg" viewBox="0 0 162 62.54"><defs><style>.cls-1{fill:#fff;}</style></defs><g id="Layer_2" data-name="Layer 2"><g id="Layer_1-2" data-name="Layer 1"><path class="cls-1" d="M4.64,11.72s0,.1-.07.12l-.08.05c-.17,0-.2-.09-.22-.21s0-.22,0-.33A6.29,6.29,0,0,1,4.52,10a1.07,1.07,0,0,0,0-.25c.2-1.37.4-2.74.66-4.1C5.5,4.11,5.7,2.57,6,1a2.51,2.51,0,0,1,.24-1H19.93c.05,0,.12,0,.17.05h1.41a11.06,11.06,0,0,1,3,.44,2.9,2.9,0,0,0,1.18.33A1.06,1.06,0,0,1,26,.88a20.73,20.73,0,0,1,2,.78.63.63,0,0,1,.23.16h0a6,6,0,0,1,1.83,1h0a2.15,2.15,0,0,1,.48.3.28.28,0,0,0,.18.12,5.54,5.54,0,0,1,1.16,1h0a2,2,0,0,1,.62.54,9.6,9.6,0,0,1,2.72,5.07,8.37,8.37,0,0,1,.09,2.29,9.89,9.89,0,0,1-1.25,4,4,4,0,0,1-.62.95.26.26,0,0,0-.14.18,8.84,8.84,0,0,1-1.65,1.86,13,13,0,0,1-2.05,1.51A13,13,0,0,1,26.67,22c-.11,0-.23,0-.33.06l-.07,0c-.11,0-.24,0-.3.14a3.14,3.14,0,0,1-.89.31,20.12,20.12,0,0,1-3.62.69,22.22,22.22,0,0,1-6-.09,14.2,14.2,0,0,1-1.65-.41,10.53,10.53,0,0,1-2.15-.87,8.09,8.09,0,0,1-2.87-2.42c0-.08-.06-.17-.14-.21a5.56,5.56,0,0,1-1.09-3.2A5.94,5.94,0,0,1,9.12,12a9.19,9.19,0,0,1,2.73-2.15.65.65,0,0,1,.23-.09.26.26,0,0,0,.2-.1,2.84,2.84,0,0,1,.77-.36.42.42,0,0,0,.29-.06l.07,0A.94.94,0,0,0,13.67,9a10.11,10.11,0,0,1,2-.57,13.53,13.53,0,0,1,3.11-.2,8.22,8.22,0,0,1,3.72.95.91.91,0,0,1,.23.15c.06.07.1.14.19.17a1.39,1.39,0,0,1,.72.61h0a.57.57,0,0,1,.3.25,2.91,2.91,0,0,1,.58,1.26v.19c0,.27-.07.29-.33.18a1.27,1.27,0,0,1-.28-.23,4.58,4.58,0,0,0-3-1.23c-.35,0-.7,0-1.05,0a3.82,3.82,0,0,0-.81.14c-.34.08-.67.19-1,.24h0a1.17,1.17,0,0,1-.47.24c-.43.19-.81.48-1.23.68h0c-.32.29-.58.63-.91.91h0c-.08.22-.2.41-.3.62a2.79,2.79,0,0,0,0,2.59,2.07,2.07,0,0,1,.15.34h0A4.89,4.89,0,0,0,18.6,18a9.61,9.61,0,0,0,2.57,0l.34,0a2.27,2.27,0,0,0,1.25-.29,1.46,1.46,0,0,1,.44-.2,6.77,6.77,0,0,0,3.5-2.91,4.09,4.09,0,0,0,.47-1.12,1.2,1.2,0,0,1,.13-.31c.11-.16.06-.35.1-.52a.32.32,0,0,1,0-.09,3.5,3.5,0,0,0,0-1.44c0-.13,0-.27-.09-.38-.2-.38-.28-.8-.48-1.18a6,6,0,0,0-2-2.14,11.24,11.24,0,0,0-2.06-1A2.49,2.49,0,0,1,22,6.05a2.31,2.31,0,0,0-1.1-.16A2.51,2.51,0,0,1,20,5.74c-.09-.1-.2-.08-.32-.09-1,0-2,0-3,0a7.8,7.8,0,0,0-1.17.15.82.82,0,0,1-.34.12,19.25,19.25,0,0,0-4.59,1.3c-.33.13-.65.31-1,.44a.47.47,0,0,0-.25.11,7.86,7.86,0,0,1-1,.56.31.31,0,0,0-.18.11,8.77,8.77,0,0,1-1,.64h0a10,10,0,0,1-.87.74.4.4,0,0,0-.25.21,14.44,14.44,0,0,0-1.33,1.49C4.79,11.61,4.7,11.65,4.64,11.72Z"/><path class="cls-1" d="M13.44,38.34c-4.36,0-8.72,0-13.08,0-.3,0-.41-.06-.34-.35a1.73,1.73,0,0,0,.05-.45c.08-.78.25-1.55.36-2.33.1-.63.18-1.27.32-1.9a14.46,14.46,0,0,0,.3-1.57c.07-.73.21-1.44.31-2.16.14-1,.31-1.92.46-2.88A1.66,1.66,0,0,1,2,26.28H2c.11-1.44.41-2.85.64-4.27.18-1.16.37-2.31.57-3.47a1.08,1.08,0,0,1,.1-.35,5.08,5.08,0,0,0,.19-.86,1.69,1.69,0,0,0,0-.23c0-.11,0-.26.16-.25s.1.16.1.26a.4.4,0,0,0,.08.26,2.9,2.9,0,0,1,.19.77c.08.35.22.68.3,1a.31.31,0,0,0,.08.26c.23.35.39.75.61,1.12a10.07,10.07,0,0,0,1.18,1.57.71.71,0,0,1,.21.3h0a3.74,3.74,0,0,1,.78.65,14.29,14.29,0,0,0,4.28,2.42,2.42,2.42,0,0,1,.52.23h0a16.45,16.45,0,0,1,2,.52c.18.16.4.05.59.09a.39.39,0,0,1,.14.05c.09.07.21.05.32.07.33,0,.35.06.35.38V27a.32.32,0,0,1,0,.09,1.38,1.38,0,0,0-.08.7,4.73,4.73,0,0,1-.14,1c-.15,1-.32,1.94-.48,2.91-.3,1.74-.56,3.48-.87,5.21A8.05,8.05,0,0,1,13.44,38.34Z"/><path class="cls-1" d="M20.05.06A.12.12,0,0,1,19.93,0h.57a.05.05,0,0,1,0,.08A1.25,1.25,0,0,1,20.05.06Z"/><path class="cls-1" d="M20.51.05V0H21s0,.06,0,.08S20.64.12,20.51.05Z"/><path class="cls-1" d="M21,.05a.09.09,0,0,1,0,0h.35V.05c-.1.07-.21,0-.31,0Z"/><path class="cls-1" d="M162,18.54a.45.45,0,0,1-.05-.34s0,0,.05,0Z"/><path class="cls-1" d="M162,18.2H162v-.28H162Z"/><path class="cls-1" d="M63.24,30h0a2.69,2.69,0,0,1,1,0c.18,0,.17.17.15.31s-.1.57-.14.86c-.16,1.08-.35,2.15-.54,3.22a1.29,1.29,0,0,1-.12.38,0,0,0,0,0,0,.05,1.18,1.18,0,0,1,0,.56c-.14.82-.26,1.64-.41,2.46,0,.25-.15.37-.41.34a4.42,4.42,0,0,0-.63,0,.26.26,0,0,1-.29-.2c-.19-.51-.32-1-.48-1.55-.34-1.1-.69-2.2-1-3.3a3.94,3.94,0,0,1-.14-.49l0-.08c0-.16,0-.33-.18-.44-.09.14,0,.29,0,.44-.08.83-.25,1.65-.37,2.47-.09.61-.18,1.22-.3,1.82a10.87,10.87,0,0,0-.2,1.14c0,.14-.1.19-.24.19s-.55,0-.82,0-.25-.08-.23-.26c.05-.36.12-.72.18-1.07.16-1,.35-2.05.51-3.07a1.32,1.32,0,0,1,.09-.3.87.87,0,0,0,.08-.55,2.94,2.94,0,0,1,.21-1c.09,0,0,.08.09.09a.78.78,0,0,1-.06-.37.61.61,0,0,1,0-.12s.11,0,.09,0a2.54,2.54,0,0,1,0-.55,2,2,0,0,1,.15-.88.16.16,0,0,1,.08-.06,6.53,6.53,0,0,1,1.25,0l.09,0a.45.45,0,0,1,.14.24c.29,1,.61,1.94.9,2.92a1.06,1.06,0,0,1,0,.19.88.88,0,0,1,0,.16s0,0,0,.08,0-.06.09,0a5.51,5.51,0,0,1,.42,1.2c.07.18.12.37.2.61.16-1,.29-1.93.44-2.86.13-.73.25-1.47.34-2.21A.35.35,0,0,1,63.24,30Z"/><path class="cls-1" d="M78.31,38.23a5.91,5.91,0,0,1-1,0,2.18,2.18,0,0,1-1.71-1.54.82.82,0,0,1-.1-.3.06.06,0,0,0,0,0c-.06-.24-.11-.48-.18-.71a6.73,6.73,0,0,1,.21-2.53,2,2,0,0,0,.36-1,3.24,3.24,0,0,1,3-2.25,2.3,2.3,0,0,1,1.76.69,1.3,1.3,0,0,1,.27.39,1.41,1.41,0,0,0,.21.56l0,.07a.67.67,0,0,0,.13.34c.13.38.07.5-.31.59l-.56.13c-.28.06-.35,0-.43-.26l-.18-.66c0-.09,0-.19-.11-.24a1.27,1.27,0,0,0-1.27-.31.29.29,0,0,0-.24.12,2.94,2.94,0,0,0-.9,1.42,6.84,6.84,0,0,0-.36,3.14,2,2,0,0,0,.17.57,1,1,0,0,0,.83.68A1.12,1.12,0,0,0,79,36.57a4.76,4.76,0,0,0,.28-.49l.07-.06a2.92,2.92,0,0,0,.25-.86c0-.15,0-.18-.16-.18-.34,0-.68,0-1,0s-.25-.08-.2-.25,0-.62.18-.78.53,0,.8-.05c.54,0,1.08,0,1.62,0,.2,0,.24.05.2.24-.08.35-.14.7-.2,1.06a2.77,2.77,0,0,0-.11.64,0,0,0,0,1,0,0,2.32,2.32,0,0,0-.11.64c-.08.49-.15,1-.23,1.46,0,.27-.28.1-.42.14s-.23,0-.24-.16a4.38,4.38,0,0,0,0-.51c0-.05,0-.12-.06-.14s-.09.06-.11.1A1.86,1.86,0,0,1,78.31,38.23Z"/><path class="cls-1" d="M70.22,32.19a0,0,0,0,0,0,.05,1.84,1.84,0,0,1-.1.52l-.11.57c-.06,0-.06.07-.06.12,0,.45-.16.88-.17,1.33,0,0,0,0,0,0a3.29,3.29,0,0,0-.11.7c-.1.68-.2,1.36-.31,2s-.1.56-.69.56h-.54c-.1-.12-.06-.25,0-.38.15-.88.32-1.75.46-2.63.25-1.59.52-3.18.79-4.76.06-.36.06-.36.44-.36s.47,0,.71,0,.41,0,.52.34c.29.92.57,1.85.86,2.77.18.65.41,1.29.59,1.94,0,.15.09.3.12.46a.22.22,0,0,0,0,.08c0,.05.06,0,.06,0a2.53,2.53,0,0,0,0-.55c.08-.69.21-1.36.31-2s.24-1.61.37-2.41c0-.11,0-.23.06-.34a.26.26,0,0,1,.27-.21c.26,0,.53,0,.79,0s.28.09.24.25a15.79,15.79,0,0,1-.3,1.67c-.12.07-.11.2-.11.32a1,1,0,0,1,0,.3.2.2,0,0,1,0,.08A9.24,9.24,0,0,0,74,33.85a.36.36,0,0,1,0,.09,1.47,1.47,0,0,0,0,.66,1.43,1.43,0,0,1-.15.7,1,1,0,0,0-.16.58,9.13,9.13,0,0,0-.15,1,2.85,2.85,0,0,1-.21,1,.29.29,0,0,1-.31.2h-.14c-.61,0-.62,0-.78-.57l0-.08c0-.28-.14-.51-.19-.76s-.19-.43-.16-.68c0-.07-.07,0-.09,0-.25-.82-.51-1.64-.77-2.45-.15-.48-.31-1-.46-1.42C70.2,32,70.29,32.18,70.22,32.19Z"/><path class="cls-1" d="M37.12,38.23a5.9,5.9,0,0,1-1,0,2.27,2.27,0,0,1-1.93-2.15A7.42,7.42,0,0,1,34.71,32s0-.06,0-.08,0-.19.12-.23h0a.39.39,0,0,1,.11-.17,3.41,3.41,0,0,1,1.46-1.33,2.49,2.49,0,0,1,2.6.24,2.21,2.21,0,0,1,.76,1.71c0,.14,0,.28,0,.42s-.07.21-.19.25a4.51,4.51,0,0,0-.9.1c-.19,0-.23,0-.22-.2a2.7,2.7,0,0,0-.12-.89,1,1,0,0,0-1.63-.5,2.83,2.83,0,0,0-.85,1.51,7.53,7.53,0,0,0-.36,2.83,2.3,2.3,0,0,0,.21.93,1,1,0,0,0,1.74.28,3.33,3.33,0,0,0,.55-1c.1-.1.07-.24.11-.35h0a.42.42,0,0,1,.31,0s0,0,0,0,.27.06.4.11h0a.22.22,0,0,0,.15.06c.26,0,.33.13.25.36a3.83,3.83,0,0,1-.57,1.29,2.23,2.23,0,0,1-.46.46A2.79,2.79,0,0,1,37.12,38.23Z"/><path class="cls-1" d="M107,30a9.26,9.26,0,0,1-.13.92c0,.18-.15.17-.28.17H104c-.22,0-.31.06-.35.29-.08.6-.18,1.2-.29,1.79,0,.21,0,.24.21.24.73,0,1.46,0,2.19,0,.23,0,.27.07.24.28-.13.77-.13.77-.9.77-.55,0-1.11,0-1.67,0-.21,0-.3,0-.34.27-.09.68-.2,1.37-.33,2,0,.23.05.24.23.24h2.73c.41,0,.41,0,.29.4a.63.63,0,0,0-.08.4c0,.18-.09.22-.25.22H101.5c-.3,0-.25-.18-.21-.36.1-.89.28-1.77.42-2.66s.3-1.61.39-2.43a3,3,0,0,1,.06-.79c.09-.49.16-1,.25-1.48,0-.23.13-.36.41-.36,1.33,0,2.67,0,4,0A.24.24,0,0,1,107,30Z"/><path class="cls-1" d="M137.89,30h0a1.56,1.56,0,0,1,.64-.07c1.22,0,2.43,0,3.64,0h.06c.59,0,.6,0,.52.57s-.11.71-.81.7h-.71c-.37,0-.39,0-.45.37-.18,1-.32,2-.5,2.94s-.34,2.1-.52,3.16c-.07.43-.09.45-.52.45h-.71c-.17,0-.24-.09-.26-.25a1.72,1.72,0,0,1,0-.39c.31-1.7.56-3.42.86-5.12,0-.29.09-.58.14-.87s0-.28-.23-.28h-1c-.44,0-.5-.07-.42-.51C137.71,30.51,137.67,30.23,137.89,30Z"/><path class="cls-1" d="M118.36,30h.1a.2.2,0,0,1,.06.23c0,.22-.08.45-.11.67a.32.32,0,0,1-.36.31c-.4,0-.8,0-1.19,0-.23,0-.32.08-.36.3-.22,1.49-.48,3-.73,4.47-.1.58-.22,1.16-.29,1.75a.54.54,0,0,1-.14.34h0a3.91,3.91,0,0,1-1.23,0c-.12,0-.14-.13-.12-.22.11-.48.12-1,.27-1.45a3.07,3.07,0,0,0,0-.53c.15-1,.36-1.89.52-2.84.1-.53.18-1.08.23-1.62,0-.17-.06-.22-.21-.23-.36,0-.72,0-1.08,0s-.48-.09-.42-.47l.09-.48c.06-.29.11-.34.42-.34h4.2A.46.46,0,0,1,118.36,30Z"/><path class="cls-1" d="M66.35,37.43a.15.15,0,0,0,0,.07c-.13.61-.13.61-.76.61h-.62a.27.27,0,0,1,0-.27c.23-1.38.45-2.76.7-4.14.14-.79.26-1.59.38-2.38a1.14,1.14,0,0,1,.1-.36c.16-.16.07-.37.12-.55l0-.09a.44.44,0,0,1,.47-.25h.59c.14,0,.27,0,.27.21a.31.31,0,0,1,0,.1,1,1,0,0,0-.08.58,2.49,2.49,0,0,1-.15.89.72.72,0,0,0-.07.48,4.17,4.17,0,0,1-.13.93c-.22,1.29-.43,2.59-.65,3.88A.52.52,0,0,1,66.35,37.43Z"/><path class="cls-1" d="M72,37.43l-.1-.13L71.57,36c.05,0,.12-.14.13,0a3.53,3.53,0,0,0,.36,1.14A.32.32,0,0,1,72,37.43Z"/><path class="cls-1" d="M69.78,34.78c-.09-.5.18-1,.12-1.48,0-.07.06.05.11,0A8.93,8.93,0,0,1,69.78,34.78Z"/><path class="cls-1" d="M39.28,36c0-.18,0-.34-.26-.31a.13.13,0,0,1-.14-.11l.19,0C39.39,35.68,39.41,35.71,39.28,36Z"/><path class="cls-1" d="M69.66,35.51c0-.24-.09-.49.11-.7A2.09,2.09,0,0,1,69.66,35.51Z"/><path class="cls-1" d="M38.88,35.6c-.14,0-.31.1-.4-.11A.8.8,0,0,1,38.88,35.6Z"/><path class="cls-1" d="M38.13,35.49c0,.12.1.29-.11.35A.61.61,0,0,1,38.13,35.49Z"/><path class="cls-1" d="M38.44,35.49h-.31C38.23,35.3,38.34,35.45,38.44,35.49Z"/><path class="cls-1" d="M20,5.69c-.84,0-1.68-.09-2.52,0l-2,.15c0-.12.11-.1.19-.11a32.87,32.87,0,0,1,4.09-.11C19.87,5.58,20,5.52,20,5.69Z"/><path class="cls-1" d="M27.44,12.51a7.8,7.8,0,0,0-.11-1.93s.07,0,.08,0a5.36,5.36,0,0,1,.13,1.83C27.54,12.49,27.49,12.51,27.44,12.51Z"/><path class="cls-1" d="M21.51,18l1.32-.34c-.06.17-.26.19-.37.21C22.15,17.88,21.84,18.06,21.51,18Z"/><path class="cls-1" d="M24.49,11.59a1.46,1.46,0,0,1,.11.69s0,.1,0,.11-.08,0-.11-.08L24.24,12c.17.08.29.08.24-.17A1.21,1.21,0,0,1,24.49,11.59Z"/><path class="cls-1" d="M24.48.57A5.64,5.64,0,0,1,25.7.9,2.51,2.51,0,0,1,24.48.57Z"/><path class="cls-1" d="M22.09,6a9,9,0,0,1-1.15-.23A3.45,3.45,0,0,1,22,5.92C22.07,5.93,22.08,6,22.09,6Z"/><path class="cls-1" d="M4.22,12.05a2.62,2.62,0,0,1,.12-.68v.34c0,.13.07.16.18.12a1.05,1.05,0,0,1-.23.36C4.19,12.19,4.2,12.12,4.22,12.05Z"/><path class="cls-1" d="M20.51.05H21s0,0,0,0,0,0,0,0a3.08,3.08,0,0,1-.91,0Z"/><path class="cls-1" d="M27.33,13.08a2.21,2.21,0,0,1,.11-.57C27.4,12.7,27.56,12.93,27.33,13.08Z"/><path class="cls-1" d="M26.31,22.08a.54.54,0,0,1-.34.12C26,22,26.19,22.1,26.31,22.08Z"/><path class="cls-1" d="M26.66,22a.55.55,0,0,1-.35.12C26.36,21.86,26.54,22,26.66,22Z"/><path class="cls-1" d="M21,.11a.07.07,0,0,1,0,0h.35l.24.06Z"/><path class="cls-1" d="M6.39,9.78a.49.49,0,0,1-.23.22A.25.25,0,0,1,6.39,9.78Z"/><path class="cls-1" d="M13.08,9.32a.43.43,0,0,1,.3-.11C13.33,9.36,13.2,9.33,13.08,9.32Z"/><path class="cls-1" d="M22.78,9.44c.07,0,.14,0,.16.12S22.78,9.55,22.78,9.44Z"/><path class="cls-1" d="M13.38,9.21a.31.31,0,0,1,.24-.1A.2.2,0,0,1,13.38,9.21Z"/><path class="cls-1" d="M8.39,8.31a.22.22,0,0,1-.18.11C8.22,8.3,8.3,8.3,8.39,8.31Z"/><path class="cls-1" d="M9.59,7.63a.31.31,0,0,1-.24.12A.22.22,0,0,1,9.59,7.63Z"/><path class="cls-1" d="M30.51,3.18a.23.23,0,0,1,.18.12C30.6,3.3,30.52,3.29,30.51,3.18Z"/><path class="cls-1" d="M8.78,19.4a.19.19,0,0,1-.12-.17C8.77,19.23,8.78,19.31,8.78,19.4Z"/><path class="cls-1" d="M33.37,17.07a.23.23,0,0,1-.12.18C33.24,17.15,33.25,17.07,33.37,17.07Z"/><path class="cls-1" d="M12.11,9.78a.33.33,0,0,1,.2-.11C12.29,9.8,12.2,9.78,12.11,9.78Z"/><path class="cls-1" d="M3.71,16.56l.06.85c-.24-.12,0-.35-.14-.51a.14.14,0,0,0-.08.17c.06.35-.15.66-.12,1a.11.11,0,0,1-.11.13c.05-.61.18-1.21.28-1.82C3.75,16.36,3.64,16.52,3.71,16.56Z"/><path class="cls-1" d="M14.64,26.4l.3,0c.51.08.51.08.33.61,0,0,0-.06,0-.08,0-.41,0-.42-.41-.45A.24.24,0,0,1,14.64,26.4Z"/><path class="cls-1" d="M15.27,27.07a2.1,2.1,0,0,1-.12.7C15.18,27.53,15.07,27.28,15.27,27.07Z"/><path class="cls-1" d="M13.9,26.27a2,2,0,0,1,.64.12h-.46C14,26.39,13.91,26.39,13.9,26.27Z"/><path class="cls-1" d="M4.23,19.21a.38.38,0,0,1,.11.24C4.17,19.42,4.24,19.3,4.23,19.21Z"/><path class="cls-1" d="M162,18.54c-.06-.11,0-.23,0-.34v-.27a5.91,5.91,0,0,0-.86-2.54l-.05-.07a6.46,6.46,0,0,0-.44-.59,3.74,3.74,0,0,0-1.3-1.07h0a1,1,0,0,0-.53-.3,1,1,0,0,1-.45-.17l-.07,0c-.1,0-.25,0-.29-.14a5.7,5.7,0,0,0-2-.39,8.39,8.39,0,0,0-4.6,1A7.19,7.19,0,0,0,148.84,16a7.83,7.83,0,0,0-1.07,6.25,3.38,3.38,0,0,0,.63,1.44h0c0,.23.22.38.29.59a.42.42,0,0,0,.13.16,6,6,0,0,0,2.55,1.8,3.77,3.77,0,0,0,.68.18h0a1.07,1.07,0,0,0,.55.19,9.47,9.47,0,0,0,2.71.11,3,3,0,0,0,1.28-.3h0a4.08,4.08,0,0,0,.76-.21,7.31,7.31,0,0,0,2.76-1.93A4,4,0,0,0,161,23c.1,0,.07-.15.13-.22h0c.12-.12.28-.25.22-.42s-.27-.14-.42-.18c-.48-.11-1-.14-1.47-.25s-1.14-.22-1.72-.25c-.2,0-.4.05-.58-.06a.28.28,0,0,0-.13,0c-.24,0-.25.29-.42.4a2.27,2.27,0,0,0-.18.25,2,2,0,0,1-1.22.87,2.73,2.73,0,0,1-1.24,0,1.59,1.59,0,0,1-1.1-.87,2.07,2.07,0,0,1-.13-1c0-.52.06-.56.57-.56h8.1c.45,0,.48,0,.54-.46,0-.06,0-.13,0-.19Zm-4.91-.68c0,.15-.11.19-.25.18h-3.46c-.18,0-.27,0-.21-.24a2.61,2.61,0,0,1,1.57-2,1.71,1.71,0,0,1,1.79.24A1.82,1.82,0,0,1,157.09,17.86Z"/><path class="cls-1" d="M156.71,22c.1-.13,0-.45.35-.35C156.85,21.63,156.89,21.91,156.71,22Z"/><path class="cls-1" d="M157.16,21.62a1.7,1.7,0,0,1,.59.1C157.55,21.69,157.32,21.84,157.16,21.62Z"/><path class="cls-1" d="M158.3,13.19a.9.9,0,0,1,.48.23A.56.56,0,0,1,158.3,13.19Z"/><path class="cls-1" d="M158,13.08a.49.49,0,0,1,.28.11C158.21,13.15,158,13.31,158,13.08Z"/><path class="cls-1" d="M108.75,30.5a2.57,2.57,0,0,1,4.14,1.21.71.71,0,0,1,0,.14l-1.07.35c-.11,0-.13-.06-.17-.12a2.59,2.59,0,0,0-.37-.67,1.18,1.18,0,0,0-1.36-.32,1.08,1.08,0,0,0-.61,1.17,1,1,0,0,0,.49.72c.44.29.93.47,1.38.72a2.69,2.69,0,0,1,.91.66.29.29,0,0,0,.19.21,1.9,1.9,0,0,1,.32,1.61,1.71,1.71,0,0,1-.28.79,1,1,0,0,0-.23.34,2.37,2.37,0,0,1-1.64.92h-1.09a2.83,2.83,0,0,1-1.26-.46,2.18,2.18,0,0,1-.44-.47,3.92,3.92,0,0,1-.47-1.14c0-.14,0-.2.13-.24a8.19,8.19,0,0,0,.85-.23c.15,0,.2,0,.24.14a4.34,4.34,0,0,0,.2.5,1.5,1.5,0,0,0,2.37.44,1.56,1.56,0,0,0,.31-.6.37.37,0,0,0,0-.45,1.48,1.48,0,0,0-.87-1c-.11,0-.21-.12-.32-.18a.48.48,0,0,0-.23-.1h0c-.06-.08-.16-.06-.24-.08a.24.24,0,0,1-.1,0h0a.49.49,0,0,1-.23-.11h0a1.08,1.08,0,0,1-.18-.11h0a1.37,1.37,0,0,1-.45-.3,2.25,2.25,0,0,1-.34-2.89l.1-.11C108.55,30.71,108.66,30.61,108.75,30.5Z"/><path class="cls-1" d="M119.27,37.66c.25,0,.35.21.55.27s.11.07.18.07c.23,0,.41.18.65.12.06,0,.09.05.1.11h-.29a2.87,2.87,0,0,1-1.06-.42A.18.18,0,0,1,119.27,37.66Z"/><path class="cls-1" d="M112.1,37.31a.3.3,0,0,1,.23-.34A.74.74,0,0,1,112.1,37.31Z"/><path class="cls-1" d="M112.29,34.57c-.17,0-.24,0-.19-.21A.33.33,0,0,1,112.29,34.57Z"/><path class="cls-1" d="M111.66,32.08l.17.12C111.68,32.29,111.66,32.19,111.66,32.08Z"/><path class="cls-1" d="M101.29,37.69c0,.24.06.32.31.31h3.92c.26,0,.36-.07.33-.33,0-.09,0-.22.11-.24,0,.68,0,.68-.7.68h-3.7C101.15,38.11,101.15,38.11,101.29,37.69Z"/><path class="cls-1" d="M111.3,35.72a.26.26,0,0,1,0,.45Z"/><path class="cls-1" d="M109.88,34.48a.19.19,0,0,1,.23.1A.29.29,0,0,1,109.88,34.48Z"/><path class="cls-1" d="M109.65,34.36c.1,0,.19,0,.23.12h-.11S109.63,34.46,109.65,34.36Z"/><path class="cls-1" d="M99.37,36.06c-.18-.12-.12-.3-.12-.47A1,1,0,0,1,99.37,36.06Z"/><path class="cls-1" d="M99.81,38.1v-.35C99.84,37.87,100.06,38,99.81,38.1Z"/><path class="cls-1" d="M99.92,33.9a.25.25,0,0,1,.18-.22A.33.33,0,0,1,99.92,33.9Z"/><path class="cls-1" d="M4.22,12.05a.19.19,0,0,0,.07.14c0,.06,0,.12-.11.12A.27.27,0,0,1,4.22,12.05Z"/><path class="cls-1" d="M80.59,36.53c0-.21-.11-.46.11-.64A1.72,1.72,0,0,1,80.59,36.53Z"/><path class="cls-1" d="M80.7,35.85a.89.89,0,0,1,.11-.64A1.76,1.76,0,0,1,80.7,35.85Z"/><path class="cls-1" d="M151.37,36a.94.94,0,0,1,.23-.68A1.83,1.83,0,0,1,151.37,36Z"/><path class="cls-1" d="M151.13,36.47a.54.54,0,0,1,.24-.52A1.3,1.3,0,0,1,151.13,36.47Z"/><path class="cls-1" d="M120.75,38.23h.46A.66.66,0,0,1,120.75,38.23Z"/><path class="cls-1" d="M63.81,13.86A5.56,5.56,0,0,0,62,13l-.09,0c-.18,0-.33-.09-.51-.11a5.48,5.48,0,0,1-1-.17,15.18,15.18,0,0,0-2.78-.05c-.51,0-1,.14-1.51.22a6.45,6.45,0,0,0-2.12.78,3.76,3.76,0,0,0-1.18,1,4.25,4.25,0,0,0-1.16,1.59c-.07.13,0,.22.13.27s.59.08.86.17c.47.14,1,.18,1.43.3s1.09.19,1.63.33a.42.42,0,0,0,.4-.1,3.94,3.94,0,0,1,.31-.48,1.28,1.28,0,0,1,.37-.4l.1-.07a.72.72,0,0,1,.21-.12,2.29,2.29,0,0,1,1.7-.17,1,1,0,0,1,.76,1.32.34.34,0,0,1-.33.29c-.64.07-1.28.13-1.92.17a1.64,1.64,0,0,0-.87.17s0,.1,0,.09a3.94,3.94,0,0,0-.77,0A1.79,1.79,0,0,0,55,18a.78.78,0,0,1-.49.12l-.08,0c-.11.09-.25.07-.37.1s0,0-.07,0a.71.71,0,0,1-.38.06,5.06,5.06,0,0,0-2,1,3.63,3.63,0,0,0-1.36,2s0,0,0,0A3,3,0,0,0,50,23a6.58,6.58,0,0,0,.14.75,3.38,3.38,0,0,0,1.5,2.13c.08,0,.19,0,.24.13a2,2,0,0,0,1,.4h0a.91.91,0,0,0,.53.18,6.24,6.24,0,0,0,1.88,0,4.47,4.47,0,0,0,2.29-1,9,9,0,0,0,1-1.06,6.28,6.28,0,0,1-.05.89,1.78,1.78,0,0,0,.05.76.27.27,0,0,0,.28.22h.77c1.29,0,2.59,0,3.88,0,.36,0,.41-.08.38-.42a2.78,2.78,0,0,1-.11-.75c.09-.66.13-1.32.26-2,.43-2.14.76-4.29,1-6.44A3,3,0,0,0,63.81,13.86Zm-4.76,6.28a6.24,6.24,0,0,1-.43,1.9,2.39,2.39,0,0,1-2,1.33c-.93,0-1.39-.77-1-1.74a2.29,2.29,0,0,1,1.62-1.37A8.53,8.53,0,0,1,58.89,20C59,20,59.07,20,59.05,20.14Z"/><path class="cls-1" d="M55.64,18a2.54,2.54,0,0,1,.82-.11c0,.05.13.12,0,.12Z"/><path class="cls-1" d="M54.45,18.2a1.11,1.11,0,0,1,.53-.12C54.83,18.25,54.64,18.2,54.45,18.2Z"/><path class="cls-1" d="M53.6,18.42a.65.65,0,0,1,.41-.11C53.91,18.5,53.74,18.41,53.6,18.42Z"/><path class="cls-1" d="M54,18.31a.71.71,0,0,1,.4-.11C54.32,18.4,54.15,18.29,54,18.31Z"/><path class="cls-1" d="M51.9,26a.3.3,0,0,1-.22-.13C51.77,25.83,51.89,25.79,51.9,26Z"/><path class="cls-1" d="M81,21.39c.15-.85.3-1.7.44-2.54.26-1.52.51-3.05.77-4.57q.48-2.83,1-5.68c0-.22.11-.29.34-.29H88c.23,0,.3.06.25.29-.1.47-.18.94-.26,1.41a2,2,0,0,0-.16.76,11.81,11.81,0,0,0-.19,1.31c-.06.67-.21,1.33-.31,2,0,.1,0,.21,0,.31s0,.09.06.06a4.69,4.69,0,0,1,5.35-1.61.9.9,0,0,0,.16,0h0a4.84,4.84,0,0,1,1,.68,3.06,3.06,0,0,1,1,2.12,10.27,10.27,0,0,1-.27,2.76,7.85,7.85,0,0,0-.22,1.27c-.1.89-.28,1.76-.42,2.64-.2,1.23-.41,2.46-.61,3.69,0,.17-.09.23-.25.23H88.47c-.16,0-.22,0-.19-.22q.47-2.71.92-5.45c.17-1,.31-2.05.5-3.06.17-.84-.48-1.4-1.37-1.34a1.78,1.78,0,0,0-.79.2,1,1,0,0,0-.36.33,5.37,5.37,0,0,0-.66,2.17c-.28,1.57-.53,3.13-.8,4.7-.11.67-.19,1.34-.35,2-.12.18-.05.39-.12.57a.4.4,0,0,1-.3.06H80.64c-.32,0-.38,0-.3-.34s.07-.57.13-.86c.06-.66.21-1.3.3-2a2.91,2.91,0,0,0,0-.31,3.21,3.21,0,0,1,.11-.68,0,0,0,0,0,0,0A4.5,4.5,0,0,1,81,21.39Z"/><path class="cls-1" d="M80.47,25a2.1,2.1,0,0,1-.1.86c-.06.15,0,.29.21.29h4.49c.06,0,.13,0,.18-.05s0,0,0,0-.1.15-.2.15H80.44c-.11,0-.22,0-.18-.16A9.81,9.81,0,0,1,80.47,25Z"/><path class="cls-1" d="M87.64,12.08a4.88,4.88,0,0,1,.21-1.57,1.38,1.38,0,0,0,0-.29c0-.09,0-.2.13-.21A17.88,17.88,0,0,1,87.64,12.08Z"/><path class="cls-1" d="M100,18.08c0,.06,0,.12-.1.12s-.39.14-.58.15-.46.15-.7.07l.19-.1a.8.8,0,0,0,.4-.11C99.52,18.22,99.77,18.06,100,18.08Z"/><path class="cls-1" d="M94.36,19.7a2.78,2.78,0,0,1,.22-1.27A7.66,7.66,0,0,1,94.36,19.7Z"/><path class="cls-1" d="M108.81,23.74c0-.16,0-.31,0-.47s0-.17.13-.17A2,2,0,0,1,108.81,23.74Z"/><path class="cls-1" d="M85.29,26.11h0c0-.17-.12-.39.12-.52A1.53,1.53,0,0,1,85.29,26.11Z"/><path class="cls-1" d="M87.18,16.72a.44.44,0,0,1,.36-.33Z"/><path class="cls-1" d="M87.35,14.45c0,.05,0,.11-.07.08s0-.09,0-.14Z"/><path class="cls-1" d="M97,19.23c0,.11-.09.12-.18.11S96.88,19.22,97,19.23Z"/><path class="cls-1" d="M59,31.51a1.35,1.35,0,0,1,.11-.59c0,.19,0,.39,0,.58S59,31.51,59,31.51Z"/><path class="cls-1" d="M58.63,33.44a1.34,1.34,0,0,1,.1-.52C58.7,33.1,58.83,33.3,58.63,33.44Z"/><path class="cls-1" d="M60,32.08a.89.89,0,0,1-.07.4,2.94,2.94,0,0,1,0-.42C59.9,32,59.93,32.06,60,32.08Z"/><path class="cls-1" d="M58.9,31.88c0-.1,0-.19.05-.27V32C58.88,32,58.92,31.93,58.9,31.88Z"/><path class="cls-1" d="M61.58,33.38a.22.22,0,0,1,.06.17s0,0,0,.06h0A1.77,1.77,0,0,1,61.58,33.38Z"/><path class="cls-1" d="M75.57,33.1a7,7,0,0,1,.24-.9l.1-.13a3,3,0,0,1-.26,1Z"/><path class="cls-1" d="M80.81,31a1,1,0,0,1,.23.55A.54.54,0,0,1,80.81,31Z"/><path class="cls-1" d="M81,31.51a.49.49,0,0,1,.11.35C81,31.79,81.07,31.63,81,31.51Z"/><path class="cls-1" d="M79.78,31.63a.48.48,0,0,1-.13-.23C79.82,31.41,79.78,31.53,79.78,31.63Z"/><path class="cls-1" d="M78.32,31.06a.32.32,0,0,1-.24.13A.23.23,0,0,1,78.32,31.06Z"/><path class="cls-1" d="M73.76,35.26c-.06.68-.22,1.35-.31,2a.08.08,0,0,1,0,0c-.05.26,0,.64-.17.74a2.34,2.34,0,0,1-.92,0c-.1,0-.14,0-.16-.13a2,2,0,0,1-.14-.54c.23,0,.1.26.2.38s.15.19.3.18a1.07,1.07,0,0,1,.31,0,.32.32,0,0,0,.42-.29c0-.24.14-.46.14-.71a4.26,4.26,0,0,1,.23-1.32C73.69,35.54,73.54,35.35,73.76,35.26Z"/><path class="cls-1" d="M74.21,32.54A8,8,0,0,1,74,33.91c-.09-.44.15-.84.11-1.27C74.1,32.57,74.15,32.55,74.21,32.54Z"/><path class="cls-1" d="M72.62,35.44c.07-.13,0-.29.11-.41,0,.24.08.51-.15.71-.11-.06-.07-.16-.08-.25C72.62,35.63,72.57,35.44,72.62,35.44Z"/><path class="cls-1" d="M74,33.9a2.27,2.27,0,0,1-.12.69v-.5C73.87,34,73.87,33.91,74,33.9Z"/><path class="cls-1" d="M74.32,31.91a1.5,1.5,0,0,1-.11.63V32C74.21,31.9,74.24,31.88,74.32,31.91Z"/><path class="cls-1" d="M72.62,35.44l0,.13-.1-.08L72.4,35C72.56,35.12,72.46,35.35,72.62,35.44Z"/><path class="cls-1" d="M56.81,37.61c-.06-.51-.15-1-.17-1.52-.06-.31-.08-.62-.12-.93-.16-1-.24-2.09-.38-3.14-.07-.55-.14-1.11-.18-1.66,0-.33-.11-.4-.43-.4s-.53,0-.8,0a.46.46,0,0,0-.49.33c-.21.5-.42,1-.64,1.49-.05.1-.06.21-.12.31l0,.07c0,.08-.06.16-.1.24l0,.07-.21.44a7.31,7.31,0,0,0-.29.78h0a3.21,3.21,0,0,0-.41.83,16.75,16.75,0,0,0-.69,1.64.25.25,0,0,1-.12.25,13.14,13.14,0,0,0-.67,1.48c-.08.21,0,.28.21.29a3.38,3.38,0,0,0,.45,0c.2,0,.41.08.6-.07.26-.68.53-1.37.85-2,.64-.06,1.27,0,1.9,0,.23,0,.29.1.3.3,0,.53.13,1.05.14,1.58a.22.22,0,0,0,.26.23h.85c.29,0,.32,0,.33-.31A1.62,1.62,0,0,0,56.81,37.61ZM54.9,35H53.7c-.13,0-.22,0-.15-.19.43-1,.84-2.1,1.26-3.15h.07c0,.33.06.65.08,1,.06.71.09,1.42.16,2.12C55.14,34.91,55.08,35,54.9,35Z"/><path class="cls-1" d="M51.68,36.4a.36.36,0,0,1,.11-.25C51.77,36.24,51.85,36.38,51.68,36.4Z"/><path class="cls-1" d="M123.7,24.28c-.11.58-.23,1.15-.31,1.73,0,.22-.12.25-.31.25H119c-.66,0-.66,0-.55-.66.27-1.61.54-3.21.8-4.82,0-.06,0-.12.06-.19a1.82,1.82,0,0,0,.15-.72c.07-.65.23-1.27.3-1.92a8.1,8.1,0,0,0,.06-.86,1,1,0,0,0-.73-.9,2.35,2.35,0,0,0-1.12,0,.47.47,0,0,0-.25.17,3.3,3.3,0,0,0-.56.56c-.09.05-.08.16-.12.23h0c-.08.06-.08.15-.11.23h0a1.06,1.06,0,0,0-.12.34h0c-.13.13,0,.31-.11.46l-.42,2.57c-.12.7-.25,1.39-.37,2.09a2.49,2.49,0,0,0-.17.81,8.62,8.62,0,0,0-.18,1.24c-.06.39-.12.79-.17,1.18,0,.14-.1.16-.22.16h-4.54c-.15,0-.22,0-.18-.2l.09-.35c.14-.22,0-.47.12-.7a.68.68,0,0,1,.06-.4c.08-.1,0-.22,0-.32.14-.84.27-1.68.41-2.52q.56-3.36,1.13-6.71l.3-1.82c0-.19.1-.26.29-.25H117c.25,0,.27.08.23.28-.08.43-.15.86-.22,1.29,0,.07-.11.18.07.18a4.54,4.54,0,0,1,4.46-2.13,6.54,6.54,0,0,1,1.39.25,3.74,3.74,0,0,1,.92.55,1.29,1.29,0,0,0,.27.25l.06.06s.06.13.14.15a2.69,2.69,0,0,1,.67,1.7,12.05,12.05,0,0,1-.32,2.81c-.3,1.88-.62,3.75-.93,5.62A1.32,1.32,0,0,0,123.7,24.28Z"/><path class="cls-1" d="M141.12,9.56v-.5c0-.09,0-.18.12-.19A2,2,0,0,1,141.12,9.56Z"/><path class="cls-1" d="M124.1,13.66a.28.28,0,0,1-.27-.25A.44.44,0,0,1,124.1,13.66Z"/><path class="cls-1" d="M124.3,13.87c-.12,0-.14-.06-.14-.15A.19.19,0,0,1,124.3,13.87Z"/><path class="cls-1" d="M124.16,34.81a12.2,12.2,0,0,0,.12-2.34,2.68,2.68,0,0,0-.2-.88.74.74,0,0,1,0-.33,3.5,3.5,0,0,1,.33,1.56,7.38,7.38,0,0,1-.17,2S124.18,34.84,124.16,34.81Z"/><path class="cls-1" d="M128.59,36.64c.06,0,.12,0,.12.09,0,.39.22.74.24,1.13,0,.12.07.14.17.14h.9c.25,0,.14-.2.18-.31l.07.15c.08.2.06.29-.19.28s-.65,0-1,0c-.09,0-.19,0-.21-.12A12.56,12.56,0,0,1,128.59,36.64Z"/><path class="cls-1" d="M124.16,34.81h.06a1.77,1.77,0,0,1-.16.64C124,35.22,124.12,35,124.16,34.81Z"/><path class="cls-1" d="M128.47,36.18c.26.1.09.31.12.46A1.21,1.21,0,0,1,128.47,36.18Z"/><path class="cls-1" d="M130.66,30.94c-.12,0-.13-.08-.12-.17A.2.2,0,0,1,130.66,30.94Z"/><path class="cls-1" d="M117.68,16.39a.22.22,0,0,1,.16-.21c.37,0,.7-.22,1.11-.07s.67.23.82.6a2.17,2.17,0,0,1,0,1.13c0,.05-.07.1-.06.15a4,4,0,0,1-.13,1.14c0,.46-.18.92-.23,1.39,0,.05-.06.06-.1.07.06-.67.21-1.34.31-2a6.23,6.23,0,0,0,.15-1.55.7.7,0,0,0-.45-.66,1.58,1.58,0,0,0-1.39-.06Z"/><path class="cls-1" d="M115.52,24.92a5.7,5.7,0,0,1,.13-1.36c0-.17.08-.37.09-.57a.12.12,0,0,1,.13-.12A20.41,20.41,0,0,1,115.52,24.92Z"/><path class="cls-1" d="M110.62,25v.5c0,.09,0,.19-.12.2A1.84,1.84,0,0,1,110.62,25Z"/><path class="cls-1" d="M116.66,18.21c0-.15-.12-.35.11-.46A1.41,1.41,0,0,1,116.66,18.21Z"/><path class="cls-1" d="M110.73,24.29v.32h0A.45.45,0,0,1,110.73,24.29Z"/><path class="cls-1" d="M116.77,17.75a.32.32,0,0,1,.12-.34A.7.7,0,0,1,116.77,17.75Z"/><path class="cls-1" d="M117,17.18c0-.1,0-.22.12-.23A.4.4,0,0,1,117,17.18Z"/><path class="cls-1" d="M116.89,17.41c0-.1,0-.21.11-.23A.41.41,0,0,1,116.89,17.41Z"/><path class="cls-1" d="M49.47,18.21a1.42,1.42,0,0,1,.63-.63A2.1,2.1,0,0,1,49.47,18.21Z"/><path class="cls-1" d="M49.18,18.45c0-.15.12-.26.29-.24A.62.62,0,0,1,49.18,18.45Z"/><path class="cls-1" d="M143.81,30s0,0,0,0c.34,0,.68,0,1,0s.23.05.2.24c-.15.76-.27,1.52-.39,2.28,0,.12,0,.25,0,.37l-.21,1c-.14.22-.05.48-.12.7-.06.68-.2,1.34-.31,2a3.53,3.53,0,0,1-.14.72c-.11.11-.07.26-.09.4a.33.33,0,0,1-.36.33h-.62c-.19,0-.27-.08-.24-.25a2.45,2.45,0,0,1,0-.39c0-.34.13-.66.13-1s.06-.42.11-.63a0,0,0,0,0,0-.05,5.86,5.86,0,0,1,.1-.58c.25-1.44.5-2.88.74-4.33C143.72,30.56,143.76,30.3,143.81,30Z"/><path class="cls-1" d="M142.59,37.41c0,.59,0,.59.62.59s.51,0,.53-.47c0-.09,0-.2.12-.21,0,.79,0,.79-.81.79S142.36,38.09,142.59,37.41Z"/><path class="cls-1" d="M144.31,34.6v-.49c0-.1,0-.2.12-.21A2.06,2.06,0,0,1,144.31,34.6Z"/><path class="cls-1" d="M141.92,16.38c.17-.72.26-1.46.39-2.2.32-1.88.64-3.77.95-5.65,0-.17.08-.22.25-.22h4.61c.21,0,.2.1.17.24l-.54,3.25c-.13.81-.25,1.61-.38,2.41s-.33,1.91-.5,2.86c-.1.53-.19,1.06-.29,1.59-.12.19-.05.42-.11.63h0a4.4,4.4,0,0,0-.16.88,7.31,7.31,0,0,0-.18,1.14c-.09.89-.28,1.77-.42,2.66-.1.66-.23,1.32-.33,2,0,.23-.11.33-.37.32-1.42,0-2.84,0-4.26,0-.44,0-.44,0-.42-.43.21-.93.33-1.87.49-2.8l.3-1.64a8.19,8.19,0,0,0,.2-1.08.77.77,0,0,1,.06-.3c0-.42.18-.82.19-1.25h0a.11.11,0,0,0,.06-.09c0-.66.23-1.31.29-2v-.26s0,0,0,0A0,0,0,0,1,141.92,16.38Z"/><path class="cls-1" d="M146.13,21.3a4.67,4.67,0,0,1,.19-1.39,1.54,1.54,0,0,0,0-.37c0-.1,0-.21.12-.26A15.49,15.49,0,0,1,146.13,21.3Z"/><path class="cls-1" d="M146.47,19.29v-.45c0-.08,0-.17.11-.18A1.74,1.74,0,0,1,146.47,19.29Z"/><path class="cls-1" d="M46.56,31.74l.27-1.43c0-.09.05-.18.07-.27,1.4,0,2.79,0,4.18,0,.23,0,.29.06.26.28-.11.8-.1.81-.9.81H48.25c-.2,0-.29.06-.32.26-.08.59-.18,1.18-.29,1.77,0,.21,0,.3.25.29.72,0,1.44,0,2.16,0,.23,0,.28.06.22.28s0,.57-.18.72-.49,0-.74,0c-.57,0-1.14,0-1.71,0-.19,0-.24.08-.27.24-.11.69-.21,1.38-.34,2.07,0,.22,0,.25.23.25.92,0,1.84,0,2.76,0,.26,0,.39,0,.3.33a6.66,6.66,0,0,0-.12.76H45.76c-.23,0-.24-.08-.2-.27a2.75,2.75,0,0,0,.1-.7c.16-.95.34-1.89.49-2.84S46.48,32.61,46.56,31.74Z"/><path class="cls-1" d="M102.49,15.82c0-.09,0-.12.08-.12.44,0,.87,0,1.3,0a.42.42,0,0,1,.38.22A3,3,0,0,0,102.49,15.82Z"/><path class="cls-1" d="M106.76,13c-.19,0-.38,0-.52-.12A1.07,1.07,0,0,1,106.76,13Z"/><path class="cls-1" d="M107.12,13.08c-.13,0-.3.09-.37-.11A.5.5,0,0,1,107.12,13.08Z"/><path class="cls-1" d="M66.24,30.37c0-.24,0-.36.31-.34a4,4,0,0,0,.77,0c.26,0,.29.1.18.3,0-.12,0-.19-.19-.19a6.94,6.94,0,0,1-.79,0C66.35,30.14,66.36,30.33,66.24,30.37Z"/><path class="cls-1" d="M67.5,30.37a1.29,1.29,0,0,1-.11.59C67.41,30.77,67.28,30.54,67.5,30.37Z"/><path class="cls-1" d="M66.13,31a1.43,1.43,0,0,1,.11-.58C66.2,30.56,66.36,30.79,66.13,31Z"/><path class="cls-1" d="M67.25,31.86V32c-.07.09,0,.22-.1.31C67.19,32.17,67.06,32,67.25,31.86Z"/><path class="cls-1" d="M155.81,34.86v0l-.35-1.24c0-.12,0-.25-.11-.35h0c-.05-.11,0-.26-.11-.35l-.32-1a8.57,8.57,0,0,0-.24,1.27c-.26,1.58-.5,3.16-.75,4.74,0,.19-.1.25-.29.23H153c-.21,0-.25-.06-.2-.24a2,2,0,0,0,.08-.33c.14-.21,0-.47.12-.69l.12-1c.22-.94.34-1.9.5-2.85s.32-1.82.46-2.74c0-.17.1-.22.26-.21.31,0,.63,0,.94,0s.24.06.29.22c.43,1.41.87,2.82,1.31,4.23a8,8,0,0,0,.4,1.09c.09-.58.18-1.15.28-1.73s.15-.87.22-1.31c.12-.22.05-.47.11-.7,0-.57.18-1.12.24-1.68,0-.13.1-.12.19-.12.26,0,.51,0,.77,0s.21.06.18.23l-.54,3.3L158,37.91c0,.15-.07.2-.23.21-.89,0-.89,0-1.15-.83S156.07,35.67,155.81,34.86Z"/><path class="cls-1" d="M157.84,31.84c0,.17,0,.34,0,.51s0,.17-.12.19A2.09,2.09,0,0,1,157.84,31.84Z"/><path class="cls-1" d="M141.91,16.7a5,5,0,0,1-.2,1.44,2.88,2.88,0,0,0,0,.42c0,.09,0,.2-.13.2A18.08,18.08,0,0,1,141.91,16.7Z"/><path class="cls-1" d="M141.4,20c-.05.39-.11.77-.17,1.15,0,.09,0,.2-.11.22a10.56,10.56,0,0,1,.22-1.37A0,0,0,0,1,141.4,20Z"/><path class="cls-1" d="M141.4,20h-.06a6.81,6.81,0,0,1,.23-1.26A4.12,4.12,0,0,1,141.4,20Z"/><path class="cls-1" d="M41.79,37H44.4c.2,0,.27.06.23.26s-.09.46-.12.7-.08.13-.17.13H40.45c-.14,0-.16-.06-.14-.17l.27-1.51s0,0,0,0,0,0,0,0a1,1,0,0,1,0-.35c.14-.84.27-1.7.41-2.54.18-1.1.37-2.19.55-3.28,0-.2.09-.28.3-.26a7.12,7.12,0,0,0,.8,0c.19,0,.25,0,.21.23-.24,1.44-.48,2.88-.73,4.31-.09.55-.19,1.1-.28,1.65a1.66,1.66,0,0,0-.1.53s0,0,0,0S41.69,37,41.79,37Z"/><path class="cls-1" d="M41.79,36.76c0-.18-.1-.38.1-.53A1.56,1.56,0,0,1,41.79,36.76Z"/><path class="cls-1" d="M40.63,36.12v.45c-.08,0,0-.09-.05-.13A.59.59,0,0,1,40.63,36.12Z"/><path class="cls-1" d="M41.79,37c-.21-.07-.12-.15,0-.23Z"/><path class="cls-1" d="M79.1,21.55c-.2.83-.29,1.68-.44,2.51s-.25,1.47-.37,2.2c-1.57,0-3.14,0-4.71,0-.23,0-.33,0-.28-.29l.75-4.53a.75.75,0,0,1,0-.16A9.4,9.4,0,0,0,74.32,20c.05-.7.22-1.39.31-2.09,0-.19.06-.37.07-.56a1,1,0,0,0-.55-1.06.23.23,0,0,0-.23-.09c-.35,0-.73-.1-1.07.09h0c-.08,0-.18,0-.23.11a1.92,1.92,0,0,0-.69.9,2.9,2.9,0,0,0-.33,1.07c-.12.63-.23,1.26-.34,1.89-.13.21-.05.47-.12.69,0,.59-.18,1.16-.28,1.74-.18,1.11-.37,2.22-.55,3.33,0,.19-.1.25-.29.25q-2.22,0-4.44,0c-.2,0-.25-.05-.22-.26.12-.66.22-1.33.32-2,.15-.82.3-1.64.44-2.45.3-1.75.59-3.49.88-5.24.17-1,.34-2,.5-3,0-.23.11-.32.36-.32,1.34,0,2.69,0,4,0,.26,0,.31.09.26.32-.08.43-.15.87-.22,1.31,0,.06-.11.16,0,.17a4.31,4.31,0,0,1,3.69-2.16,4.55,4.55,0,0,1,2.82.58c.21.13.41.3.61.45A3.74,3.74,0,0,1,79.83,17c-.08.51-.18,1-.27,1.53-.12.2,0,.43-.11.64-.06.67-.21,1.32-.31,2C79.12,21.29,79.11,21.42,79.1,21.55Z"/><path class="cls-1" d="M72,14.78l-.06.15a.29.29,0,0,1,0-.32Z"/><path class="cls-1" d="M108.75,30.5a.6.6,0,0,1-.3.33A.61.61,0,0,1,108.75,30.5Z"/><path class="cls-1" d="M36.31,20.34a6.84,6.84,0,0,1-.14,1.42c0,.34-.14.7-.2,1.06a6,6,0,0,1-.19.92,1.63,1.63,0,0,0,0,.39c0,.09,0,.2-.12.22V24c.17-.94.33-1.88.5-2.81A4.22,4.22,0,0,1,36.31,20.34Z"/><path class="cls-1" d="M3.71,16.56l-.11-.18a.66.66,0,0,1,.11-.4Z"/><path class="cls-1" d="M74.32,20c.09.42-.13.8-.12,1.21,0,.05-.06.07-.1.08A6.22,6.22,0,0,1,74.32,20Z"/><path class="cls-1" d="M72.85,16.28a.11.11,0,0,1,.12-.12h1.1c.11,0,.11.05.08.13A2.6,2.6,0,0,0,72.85,16.28Z"/><path class="cls-1" d="M72.62,16.39c0-.16.13-.12.23-.11A.34.34,0,0,1,72.62,16.39Z"/><path class="cls-1" d="M71.14,20.94v-.51c0-.08,0-.17.12-.18A2,2,0,0,1,71.14,20.94Z"/><path class="cls-1" d="M153,36.85v.51c0,.09,0,.17-.12.18A2.27,2.27,0,0,1,153,36.85Z"/><path class="cls-1" d="M155.34,33.22c.2.06.09.23.11.35A.63.63,0,0,1,155.34,33.22Z"/><path class="cls-1" d="M155.23,32.87c.19.07.09.23.11.35A.72.72,0,0,1,155.23,32.87Z"/><path class="cls-1" d="M89.45,35.48c.07.22-.12.34-.26.4s-.19-.09-.18-.23c.09.17.18.2.29,0A.84.84,0,0,1,89.45,35.48Z"/><path class="cls-1" d="M89.8,32.54c0-.09,0-.2.11-.23A.27.27,0,0,1,89.8,32.54Z"/><path class="cls-1" d="M89.68,32.76c0-.1,0-.18.12-.22A.25.25,0,0,1,89.68,32.76Z"/><path class="cls-1" d="M97.76,34.92c.08,0,.12,0,.12.08s0,.26,0,.38A.81.81,0,0,1,97.76,34.92Z"/><path class="cls-1" d="M98,35.84c.23.1.07.31.11.46A.92.92,0,0,1,98,35.84Z"/><path class="cls-1" d="M97.88,35.38c.23.11.07.31.11.46A.92.92,0,0,1,97.88,35.38Z"/><path class="cls-1" d="M119.73,30.94c0,.16,0,.23-.2.22A.43.43,0,0,1,119.73,30.94Z"/><path class="cls-1" d="M119.49,31.21c0,.1,0,.19-.12.18Z"/><path class="cls-1" d="M79.45,19.18c0-.15,0-.3,0-.45s0-.17.12-.19A1.72,1.72,0,0,1,79.45,19.18Z"/><path class="cls-1" d="M35.63,24.39c0,.19.1.42-.11.58A1.62,1.62,0,0,1,35.63,24.39Z"/><path class="cls-1" d="M147.49,30.66c0,.15-.06.24-.23.22A.61.61,0,0,1,147.49,30.66Z"/><path class="cls-1" d="M147.2,30.94c0,.11,0,.21-.17.23A.4.4,0,0,1,147.2,30.94Z"/><path class="cls-1" d="M147.72,30.48c0,.15-.12.16-.23.18A.3.3,0,0,1,147.72,30.48Z"/><polygon class="cls-1" points="123.14 37.31 123.14 37.31 123.14 37.31 123.14 37.31"/><path class="cls-1" d="M124.06,31.26a2.36,2.36,0,0,0-.59-.87l-.57-.34-.25-.06a2.74,2.74,0,0,0-2.92,1,.28.28,0,0,1-.2.22l0,.05c0,.07,0,.15-.12.18a6.53,6.53,0,0,0-.77,1.85,9.53,9.53,0,0,0-.13,2.5,2.92,2.92,0,0,0,.8,1.92c.31.15.54.49,1,.36,0,0,0,0,0,0-.1.21.09.11.16.13s.25,0,.35.07h0a.9.9,0,0,0,.46,0h.11a5.35,5.35,0,0,0,1.19-.39c.26-.11.41-.36.63-.52l.15-.23a5.19,5.19,0,0,0,.77-1.63c0-.23.13-.44.13-.67a4.33,4.33,0,0,1,.12-.72A6.79,6.79,0,0,0,124.06,31.26ZM123,34.13a7.44,7.44,0,0,1-.63,2.11,1.38,1.38,0,0,1-1.47.92,1.28,1.28,0,0,1-1-1.12,6.57,6.57,0,0,1,.08-2.34,8.5,8.5,0,0,1,.5-1.65.38.38,0,0,1,.1-.2,3.12,3.12,0,0,1,.51-.58,1.31,1.31,0,0,1,1.25-.21c.06,0,.13.05.18.12a.66.66,0,0,0,.22.22c.1.05.12.15.17.24A4.69,4.69,0,0,1,123,34.13Z"/><path class="cls-1" d="M122.85,31.64l-.17-.24C122.83,31.42,122.84,31.53,122.85,31.64Z"/><path class="cls-1" d="M120.52,31.85a.32.32,0,0,1-.1.2C120.41,32,120.39,31.87,120.52,31.85Z"/><path class="cls-1" d="M122.46,31.18a.32.32,0,0,1-.18-.12C122.37,31.05,122.45,31.05,122.46,31.18Z"/><path class="cls-1" d="M100.3,31a1.77,1.77,0,0,0-1.58-.93c-.89-.1-1.78,0-2.67-.05-.18,0-.19.1-.22.23-.17,1.06-.35,2.12-.53,3.18s-.32,1.86-.49,2.79c0,.57-.18,1.12-.26,1.68,0,.15,0,.2.16.19a8.58,8.58,0,0,1,.88,0c.18,0,.24-.06.26-.24.16-1,.33-1.93.49-2.9,0-.21.12-.27.31-.26h.8c.17,0,.27,0,.31.2s0,.32.12.46h0c.11.14.05.31.11.46s.06.31.11.46.05.22.07.33c.08.42.23.82.28,1.25,0,.18.14.25.34.24s.68,0,1,0c.09-.11,0-.23,0-.35a16.16,16.16,0,0,0-.45-1.69c-.11-.14-.06-.32-.12-.47s-.13-.55-.2-.82-.06-.27.14-.35a1.81,1.81,0,0,0,.73-.52l.18-.22h.05l.07-.18A2.93,2.93,0,0,0,100.3,31Zm-2.75,2.66h-.83c-.12,0-.16,0-.14-.17.14-.76.27-1.52.39-2.29,0-.1,0-.15.16-.15a6.88,6.88,0,0,1,1.36.05.79.79,0,0,1,.69.86A1.45,1.45,0,0,1,97.55,33.68Z"/><polygon class="cls-1" points="97.99 35.84 97.99 35.84 97.99 35.84 97.99 35.84"/><polygon class="cls-1" points="132.58 37.2 132.58 37.2 132.58 37.2 132.58 37.2"/><path class="cls-1" d="M136.78,37.83c-.12-.85-.22-1.71-.32-2.56-.2-1.67-.39-3.35-.58-5,0-.14-.06-.22-.23-.21q-.5,0-1,0a.24.24,0,0,0-.28.18c-.17.4-.36.79-.54,1.18a.7.7,0,0,1,0,.14L132,35.76c-.3.7-.61,1.4-.92,2.1-.08.17-.11.27.15.26a5.21,5.21,0,0,1,.79,0,.27.27,0,0,0,.29-.2c.1-.25.21-.48.32-.72a.34.34,0,0,1,.11-.24,1.54,1.54,0,0,1,.23-.56c.09-.15.11-.37.37-.37h1.76c.12,0,.17,0,.18.16a2.61,2.61,0,0,0,.08.55,7.5,7.5,0,0,1,.14,1.16c0,.16.08.22.25.21a7.48,7.48,0,0,1,.82,0C136.75,38.13,136.81,38.07,136.78,37.83ZM135,35h-1.22c-.1,0-.23,0-.16-.16l1.26-3.19.08,0,.18,2.48c0,.22,0,.44,0,.65S135.11,35,135,35Z"/><polygon class="cls-1" points="89.8 32.54 89.8 32.54 89.8 32.54 89.8 32.54"/><path class="cls-1" d="M91,33.79h0c-.53-.13-.53-.13-.76.35-.07.06-.07.15-.11.23a.49.49,0,0,0-.11.23c-.11.32-.34.58-.47.89a.76.76,0,0,1-.13.23c-.17.21-.21.2-.31-.06-.22-.5-.42-1-.65-1.5-.11-.24-.08-.36.17-.47a2.32,2.32,0,0,0,1.15-.92c0-.07,0-.16.12-.22s0-.17.11-.23A2.6,2.6,0,0,0,90,31.24a1.91,1.91,0,0,0-.68-1.09A2.49,2.49,0,0,0,87.41,30a1.92,1.92,0,0,0-1.09,1.64,3.67,3.67,0,0,0,.29,1.54c0,.1.08.19,0,.29h0c-.12.07-.28.07-.39.17h0c-.08,0-.17,0-.23.11a7,7,0,0,0-.7.52c-.2.18-.31.43-.49.62a.5.5,0,0,1,0,.13,2.23,2.23,0,0,0,1.57,3.17,5.79,5.79,0,0,0,1,0,2.94,2.94,0,0,0,1.23-.56c.1-.09.2-.16.33,0a1.29,1.29,0,0,0,1.45.5.35.35,0,0,0,.32-.36,2.24,2.24,0,0,1,.07-.51c.06-.21,0-.25-.21-.18A.66.66,0,0,1,89.8,37a.24.24,0,0,1,0-.36c.27-.36.53-.72.77-1.1s.32-.61.48-.92a2.35,2.35,0,0,1,.14-.4C91.33,33.9,91.22,33.81,91,33.79Zm-3.22-2.73a.64.64,0,0,1,1.11.09A1.42,1.42,0,0,1,88,33c-.12,0-.16,0-.19-.11a2.34,2.34,0,0,1-.25-1.07A1.07,1.07,0,0,1,87.73,31.06Zm.39,5.76c-.14.09-.29.17-.42.27h0a1.82,1.82,0,0,1-1.24,0c-.33-.08-.42-.36-.53-.62h0s-.06,0-.06-.06a2.32,2.32,0,0,1,.06-1.08h0a1.05,1.05,0,0,1,.36-.56l.32-.24a1.09,1.09,0,0,0,.39-.23h0c.09,0,.13,0,.17.08a1.3,1.3,0,0,0,.14.26h0c0,.08,0,.17.1.23h0c0,.08,0,.17.11.23l.69,1.47C88.26,36.73,88.19,36.77,88.12,36.82Z"/><path class="cls-1" d="M86.43,37.1l.08.1a.68.68,0,0,1-.58-.68C86.07,36.73,86.15,37,86.43,37.1Z"/><path class="cls-1" d="M85.93,35.38a2.92,2.92,0,0,0,0,1.14A1.34,1.34,0,0,1,85.93,35.38Z"/><path class="cls-1" d="M86.29,34.82l-.36.56A.5.5,0,0,1,86.29,34.82Z"/><polygon class="cls-1" points="147.49 30.66 147.49 30.66 147.49 30.66 147.49 30.66"/><path class="cls-1" d="M151.69,31.52c0-.05-.06-.09-.08-.15a2.16,2.16,0,0,0-2.09-1.47,4.12,4.12,0,0,0-1.11.14c-.22.16-.51.22-.69.44a1,1,0,0,1-.23.18c-.06.09-.11.19-.23.22l-.06.06a.91.91,0,0,1-.17.23,4.45,4.45,0,0,0-.45.68,7.41,7.41,0,0,0-.65,2.85,4,4,0,0,0,.89,3.06,2.91,2.91,0,0,0,1.12.47,6.61,6.61,0,0,0,1.09,0,2.89,2.89,0,0,0,2.1-1.76,2,2,0,0,1,.24-.52h0a4.19,4.19,0,0,1,.23-.68,1.06,1.06,0,0,0,.06-.19A7.52,7.52,0,0,0,151.69,31.52Zm-1.18,2.61c0,.08,0,.18-.09.22a7.79,7.79,0,0,1-.65,2,1.35,1.35,0,0,1-1.37.84,1.2,1.2,0,0,1-1-1,5.2,5.2,0,0,1,0-2.08,8.68,8.68,0,0,1,.62-2.17,2.93,2.93,0,0,1,.33-.48.3.3,0,0,1,.18-.17l.13-.07a1.17,1.17,0,0,1,1.86.75,6,6,0,0,1,.1,1.46C150.52,33.66,150.53,33.9,150.51,34.13Z"/><polygon class="cls-1" points="146.82 37.76 146.82 37.76 146.82 37.76 146.82 37.76"/><path class="cls-1" d="M150.42,34.35l.14-.92v.73C150.56,34.26,150.56,34.36,150.42,34.35Z"/><path class="cls-1" d="M148.47,31.29l-.18.17C148.27,31.32,148.34,31.27,148.47,31.29Z"/><polygon class="cls-1" points="106.75 12.97 106.75 12.97 106.76 12.97 106.75 12.97"/><path class="cls-1" d="M109.16,14.24a6.77,6.77,0,0,0-1-.8,6.2,6.2,0,0,0-1-.36c-.12-.05-.26,0-.36-.11a3,3,0,0,1-.52-.12l-.19,0a12,12,0,0,0-6.57.63.66.66,0,0,0-.35.21l-.09,0c-.11,0-.16.12-.25.16a6.49,6.49,0,0,0-2,2.29c0,.11-.17.23.08.28,1.3.25,2.61.51,3.91.78a.29.29,0,0,0,.36-.17,1.68,1.68,0,0,1,.47-.62,3,3,0,0,1,.28-.22l.16-.13c.08,0,.18,0,.23-.11l.18-.1a2.8,2.8,0,0,1,1.08-.09,1,1,0,0,1,.68.2,1.13,1.13,0,0,1,.42,1.42c0,.15-.1.22-.26.23q-1.05.08-2.1.18a14.59,14.59,0,0,0-2.27.32,8.18,8.18,0,0,1-1.38.34,3.49,3.49,0,0,0-.93.35,2.28,2.28,0,0,0-.76.46,1.08,1.08,0,0,1-.18.11,3.92,3.92,0,0,0-1.67,2.93,3.65,3.65,0,0,0,1.5,3.47,4.72,4.72,0,0,0,3.65.74,4.67,4.67,0,0,0,3.23-2.14s.14-.1.12.05,0,.43,0,.64a7.85,7.85,0,0,0,0,1c0,.21.1.26.3.26,1.55,0,3.11,0,4.66,0,.25,0,.26-.1.22-.29a4.27,4.27,0,0,1,0-1.38c0-.28,0-.57.08-.85s0-.45.12-.64a1.8,1.8,0,0,0,0-.19c.39-2.07.74-4.16,1-6.25A2.86,2.86,0,0,0,109.16,14.24Zm-5.06,5.88a7,7,0,0,1-.34,1.74,3.09,3.09,0,0,1-.59.88,2.17,2.17,0,0,1-.29.24,2.41,2.41,0,0,1-1.22.39,1.18,1.18,0,0,1-1-.62,1.59,1.59,0,0,1,.12-1.36,2.89,2.89,0,0,1,1.93-1.25c.24-.13.51-.05.76-.11l.53,0C104.05,20,104.12,20,104.1,20.12Z"/><path class="cls-1" d="M100.73,21.39a2.19,2.19,0,0,0-.12,1.36h0A1.44,1.44,0,0,1,100.73,21.39Z"/><path class="cls-1" d="M103.42,20a2.79,2.79,0,0,1-.76.11c0-.13.11-.12.2-.12Z"/><path class="cls-1" d="M102.88,23a.57.57,0,0,1,.29-.24C103.1,22.86,103,23,102.88,23Z"/><path class="cls-1" d="M141.08,8.31h-4.55c-.16,0-.26,0-.29.22-.23,1.43-.46,2.85-.7,4.28-.08.52-.17,1-.26,1.57,0,0-.06,0-.07,0l-.14-.21a2.62,2.62,0,0,0-1.47-1.27,5.11,5.11,0,0,0-5.4,1.44,9.64,9.64,0,0,0-2.55,6.07,7.83,7.83,0,0,0,.45,3.52c.06.09,0,.21.12.28a.49.49,0,0,0,.11.23,2,2,0,0,0,.23.4h0a1.29,1.29,0,0,0,.22.3l.69.72h0c.07.15.22.18.34.24h0l.08,0a4.17,4.17,0,0,0,5.18-.73c.28-.29.53-.61.8-.93a.61.61,0,0,1,0,.3L133.66,26c0,.17,0,.23.19.23,1.42,0,2.84,0,4.27,0,.18,0,.24-.07.27-.24q.51-3.16,1.05-6.33t1.06-6.3c.16-.94.29-1.88.5-2.82l.12-1c.07-.22,0-.47.12-.69a2.61,2.61,0,0,1,.06-.27C141.38,8.39,141.33,8.31,141.08,8.31Zm-6.64,11.12a7.24,7.24,0,0,0-.15,1c-.07.22,0,.47-.12.69h0c0,.14,0,.32-.1.46a5,5,0,0,1-.54,1,1.49,1.49,0,0,1-2.35.1,1.7,1.7,0,0,1-.3-1,12.42,12.42,0,0,1,.4-3,5.35,5.35,0,0,1,.75-2,1.66,1.66,0,0,1,1.34-.83,1.31,1.31,0,0,1,1.37,1.32A18,18,0,0,1,134.44,19.43Z"/><path class="cls-1" d="M134.17,21.16a2,2,0,0,1,.12-.69V21C134.29,21.06,134.3,21.15,134.17,21.16Z"/><path class="cls-1" d="M134.07,21.62a1.4,1.4,0,0,1,.1-.46C134.14,21.31,134.29,21.51,134.07,21.62Z"/><path class="cls-1" d="M129.62,34.4a2.58,2.58,0,0,0,1-3.46c-.07,0-.08-.11-.12-.17a2,2,0,0,0-1.42-.68c-.84-.1-1.68,0-2.52-.06-.28,0-.35.09-.39.34-.27,1.67-.55,3.34-.83,5L125,37.84c0,.16,0,.29.21.28a5.61,5.61,0,0,1,.82,0c.19,0,.24-.08.27-.24a5.63,5.63,0,0,1,.18-.91h0c.07-.71.23-1.4.34-2.1,0-.15.11-.15.22-.15h.88c.17,0,.25.06.29.23.09.41.21.82.31,1.23.14.13.07.31.12.46h0a9.76,9.76,0,0,1,.31,1.18c0,.18.1.24.27.24h.74c.33,0,.34,0,.29-.36a1.81,1.81,0,0,0,0-.23c-.24-.89-.47-1.78-.72-2.67C129.39,34.58,129.43,34.5,129.62,34.4Zm-1.54-.72h-.68c-.45,0-.45,0-.37-.43.11-.65.22-1.29.32-1.93,0-.19.09-.27.29-.26a9.4,9.4,0,0,1,1.19.05.82.82,0,0,1,.76.82A1.47,1.47,0,0,1,128.08,33.68Z"/><polygon class="cls-1" points="49.47 18.21 49.47 18.21 49.47 18.21 49.47 18.21"/><path class="cls-1" d="M50.33,10.39a5.16,5.16,0,0,0-3.28-1.91c-.56-.11-1.13-.09-1.69-.17l-.31,0-6.48,0c-.17,0-.28,0-.31.23-.17,1.05-.35,2.1-.52,3.16-.34,2-.69,4-1,6.07-.14.85-.32,1.7-.41,2.57-.07.5-.16,1-.24,1.5s-.18,1.13-.28,1.69a2.91,2.91,0,0,1-.16.82s0,0,0,0c-.05.19,0,.4-.11.58-.06.35-.11.69-.19,1s0,.26.22.26q2.36,0,4.71,0c.2,0,.25-.07.28-.26.09-.59.21-1.18.32-1.78,0-.1,0-.2,0-.31.22-1.28.45-2.57.65-3.86,0-.3.16-.37.45-.37.82,0,1.65,0,2.47,0A8.37,8.37,0,0,0,48.37,19a7.6,7.6,0,0,0,.81-.54.68.68,0,0,1,.29-.24l.63-.63c.15-.2.31-.39.45-.6a5.68,5.68,0,0,0,.82-2.39A5.44,5.44,0,0,0,50.33,10.39Zm-4.61,4.77a.47.47,0,0,0-.06.09h0c-.37.06-.61.4-1,.45a3,3,0,0,1-1.11.13H42.49c-.2,0-.24-.06-.21-.25.11-.62.2-1.24.3-1.86a7.4,7.4,0,0,1,.23-1.33c0-.09,0-.21.19-.21a7,7,0,0,1,2.19.21,1.45,1.45,0,0,1,.92.79,5.82,5.82,0,0,1,.14.6A1.8,1.8,0,0,1,45.72,15.16Z"/><path class="cls-1" d="M42.81,12.4a7.56,7.56,0,0,1-.23,1.33,1.76,1.76,0,0,1,.08-.82,1.62,1.62,0,0,0,0-.5C42.7,12.25,42.77,12.41,42.81,12.4Z"/><path class="cls-1" d="M1.74,60.08l4.7-6.18a3.66,3.66,0,0,0,.49-.85,2.1,2.1,0,0,0,.17-.81v0a1.09,1.09,0,0,0-.35-.86,1.55,1.55,0,0,0-1-.3,1.33,1.33,0,0,0-1,.42,2,2,0,0,0-.49,1.19H1.57a5,5,0,0,1,.62-2.2,3.53,3.53,0,0,1,1.43-1.41,4.38,4.38,0,0,1,2.09-.48A5.38,5.38,0,0,1,7.9,49a3.05,3.05,0,0,1,1.38,1.22,3.71,3.71,0,0,1,.48,1.93h0A5.43,5.43,0,0,1,9.43,54a5.79,5.79,0,0,1-.9,1.66L5.16,59.92H9.83V62.4H1.74Z"/><path class="cls-1" d="M11.15,57.93l4.22-9.2h2.91l-4.1,9.09h6.15V60.3H11.15Zm5.52-3.58h2.58v8.06H16.67Z"/><path class="cls-1" d="M29.1,56.25v2.49H22.4V56.25Z"/><path class="cls-1" d="M31.83,48.72H34.4V62.4H31.83ZM33,54.37h8v2.49H33Zm6.3-5.65H41.9V62.4H39.32Z"/><path class="cls-1" d="M47,61.92a4.32,4.32,0,0,1-1.75-1.77,5.44,5.44,0,0,1-.63-2.65V53.62A5.41,5.41,0,0,1,45.25,51,4.32,4.32,0,0,1,47,49.2a5.85,5.85,0,0,1,5.24,0A4.41,4.41,0,0,1,54,51a5.52,5.52,0,0,1,.62,2.65V57.5A5.54,5.54,0,0,1,54,60.15a4.41,4.41,0,0,1-1.76,1.77,5.85,5.85,0,0,1-5.24,0Zm3.84-2.25a2,2,0,0,0,.82-.85A2.66,2.66,0,0,0,52,57.56v-4a2.72,2.72,0,0,0-.29-1.26,2,2,0,0,0-.82-.84,2.63,2.63,0,0,0-2.44,0,2.07,2.07,0,0,0-.82.84,2.72,2.72,0,0,0-.28,1.26v4a2.66,2.66,0,0,0,.28,1.26,2,2,0,0,0,.82.85,2.71,2.71,0,0,0,2.44,0Z"/><path class="cls-1" d="M59.07,61.94a3.87,3.87,0,0,1-1.7-1.74,6,6,0,0,1-.59-2.75V48.72h2.58v8.8A2.5,2.5,0,0,0,60,59.34a2.37,2.37,0,0,0,1.78.65,2.4,2.4,0,0,0,1.79-.65,2.46,2.46,0,0,0,.64-1.82v-8.8h2.58v8.73a6,6,0,0,1-.59,2.75,4,4,0,0,1-1.71,1.74,6.4,6.4,0,0,1-5.41,0Z"/><path class="cls-1" d="M69.41,48.71H72V62.4H69.41Zm1,5.7H75.2a1.22,1.22,0,0,0,1.16-.76,2.26,2.26,0,0,0,.18-.85,2.08,2.08,0,0,0-.17-.85,1.28,1.28,0,0,0-.46-.56,1.31,1.31,0,0,0-.71-.2H70.44V48.71h5a3.79,3.79,0,0,1,2,.51,3.35,3.35,0,0,1,1.33,1.43,5.15,5.15,0,0,1,0,4.3,3.43,3.43,0,0,1-1.33,1.44,3.84,3.84,0,0,1-2,.51h-5Zm2.88,2.06L76.07,56l3.69,6.36H76.64Z"/><path class="cls-1" d="M89.54,62.34a8.24,8.24,0,0,1-1.76-.57,7.55,7.55,0,0,1-1.48-.92l1.2-2.13a5.74,5.74,0,0,0,1.82,1,6.44,6.44,0,0,0,2.13.36,3.82,3.82,0,0,0,2-.43,1.36,1.36,0,0,0,.69-1.21h0a1.2,1.2,0,0,0-.31-.87,1.79,1.79,0,0,0-.81-.47,9.42,9.42,0,0,0-1.27-.27H91.6l-.21,0a12.06,12.06,0,0,1-2.27-.54,3.24,3.24,0,0,1-1.54-1.14A3.69,3.69,0,0,1,87,52.78h0a4.1,4.1,0,0,1,.6-2.26,3.67,3.67,0,0,1,1.72-1.44A6.76,6.76,0,0,1,92,48.58a6.51,6.51,0,0,1,1.5.17A7.87,7.87,0,0,1,96.39,50L95.3,52.19a7.18,7.18,0,0,0-1.65-.85A5.07,5.07,0,0,0,92,51a3.6,3.6,0,0,0-1.84.39,1.23,1.23,0,0,0-.65,1.1h0a1.29,1.29,0,0,0,.34.93,2.11,2.11,0,0,0,.84.51c.33.1.8.22,1.4.34h.15l.11,0,.11,0a11.72,11.72,0,0,1,2.17.62,3.35,3.35,0,0,1,1.45,1.17,3.63,3.63,0,0,1,.58,2.19v0a4,4,0,0,1-.61,2.24,3.8,3.8,0,0,1-1.78,1.42,7.23,7.23,0,0,1-2.82.49A8.66,8.66,0,0,1,89.54,62.34Z"/><path class="cls-1" d="M98.83,48.72h2.58V62.4H98.83Zm.93,0H108V51.2H99.76Zm0,5.64H107v2.49h-7.2Zm0,5.56H108V62.4H99.76Z"/><path class="cls-1" d="M110.35,48.71h2.58V62.4h-2.58Zm1,5.7h4.76a1.25,1.25,0,0,0,.7-.2,1.3,1.3,0,0,0,.47-.56,2.26,2.26,0,0,0,.17-.85,2.08,2.08,0,0,0-.16-.85,1.3,1.3,0,0,0-.47-.56,1.28,1.28,0,0,0-.71-.2h-4.76V48.71h5a3.83,3.83,0,0,1,2,.51,3.33,3.33,0,0,1,1.32,1.43,5.06,5.06,0,0,1,0,4.3,3.37,3.37,0,0,1-1.33,1.44,3.79,3.79,0,0,1-2,.51h-5Zm2.88,2.06L117,56l3.69,6.36h-3.12Z"/><path class="cls-1" d="M121.4,48.72h2.66L127,57.85l2.9-9.13h2.66L128,62.4h-2Z"/><path class="cls-1" d="M136.71,62.4H134V48.72h2.68Z"/><path class="cls-1" d="M141.53,61.94a4,4,0,0,1-1.7-1.74,6,6,0,0,1-.58-2.76V53.69a6.06,6.06,0,0,1,.58-2.77,4,4,0,0,1,1.7-1.74,5.54,5.54,0,0,1,2.67-.6,4.69,4.69,0,0,1,2.3.55,4.54,4.54,0,0,1,1.68,1.61,6.87,6.87,0,0,1,.92,2.56h-2.67a3.48,3.48,0,0,0-.47-1.16,2.2,2.2,0,0,0-.76-.73,2,2,0,0,0-1-.26,2.4,2.4,0,0,0-1.24.3,2,2,0,0,0-.77.87,3.16,3.16,0,0,0-.27,1.37v3.75a3.19,3.19,0,0,0,.27,1.37,2,2,0,0,0,.77.86,2.5,2.5,0,0,0,1.24.29,2,2,0,0,0,1-.25A2.06,2.06,0,0,0,146,59a3.6,3.6,0,0,0,.45-1.16h2.67a6.94,6.94,0,0,1-.93,2.55A4.54,4.54,0,0,1,146.5,62a4.71,4.71,0,0,1-2.3.55A5.54,5.54,0,0,1,141.53,61.94Z"/><path class="cls-1" d="M151.26,48.72h2.58V62.4h-2.58Zm.94,0h8.23V51.2H152.2Zm0,5.64h7.2v2.49h-7.2Zm0,5.56h8.23V62.4H152.2Z"/></g></g></svg>