<svg xmlns="http://www.w3.org/2000/svg" width="97.25" height="15.625" viewBox="0 0 97.25 15.625">
  <defs>
    <style>
      .cls-1 {
        fill: #fff;
        fill-rule: evenodd;
      }
    </style>
  </defs>
  <path id="With_options_" data-name="With options," class="cls-1" d="M143.545,15.409l1.47,6.987h2.877l2.924-11.508h-2.608l-1.8,7.572-1.581-7.572h-2.434l-1.6,7.6-1.787-7.6h-2.734L139.2,22.4h2.877Zm10.97-1.17H151.86V22.4h2.655V14.24Zm0.206-2.64a1.465,1.465,0,0,0-.443-1.075,1.564,1.564,0,0,0-2.181,0,1.465,1.465,0,0,0-.443,1.075,1.534,1.534,0,1,0,3.067,0h0Zm6.733,2.64h-1.818V11.947l-2.655.506V14.24h-1.233v2.182h1.233v2.813a4.009,4.009,0,0,0,.656,2.545,2.626,2.626,0,0,0,2.157.806,7.8,7.8,0,0,0,1.8-.221l-0.205-2.15a2.521,2.521,0,0,1-.854.19,0.9,0.9,0,0,1-.656-0.237,0.82,0.82,0,0,1-.245-0.617v-3.13h1.818V14.24Zm4.189,3.984c0-.074.01-0.206,0.032-0.4a1.279,1.279,0,0,1,1.3-1.375q0.964,0,.964,1.439V22.4h2.656V17.2a3.519,3.519,0,0,0-.688-2.323,2.478,2.478,0,0,0-2.015-.822,2.51,2.51,0,0,0-2.245,1.2V10.888h-2.655V22.4h2.655V18.223Zm17.4,0.095a4.417,4.417,0,0,0-1.075-3.074,4.455,4.455,0,0,0-6.07,0,4.422,4.422,0,0,0-1.075,3.074,4.42,4.42,0,0,0,1.075,3.074,4.455,4.455,0,0,0,6.07,0A4.416,4.416,0,0,0,183.047,18.318Zm-5.564,0a2.827,2.827,0,0,1,.356-1.517,1.345,1.345,0,0,1,2.2,0,2.836,2.836,0,0,1,.355,1.517,2.836,2.836,0,0,1-.355,1.517,1.345,1.345,0,0,1-2.2,0A2.827,2.827,0,0,1,177.483,18.318Zm9.547,3.225a2.676,2.676,0,0,0,2.245,1.043,2.74,2.74,0,0,0,2.434-1.162,5.437,5.437,0,0,0,.79-3.106,5.437,5.437,0,0,0-.79-3.106,2.74,2.74,0,0,0-2.434-1.162,2.787,2.787,0,0,0-2.5,1.423V14.24h-2.4V25.716h2.655V21.543ZM189.5,16.8a2.947,2.947,0,0,1,.34,1.517,2.947,2.947,0,0,1-.34,1.517,1.113,1.113,0,0,1-1.02.569q-1.374,0-1.454-1.865V18.112q0.031-1.881,1.454-1.881A1.113,1.113,0,0,1,189.5,16.8Zm9.176-2.561h-1.818V11.947l-2.655.506V14.24h-1.233v2.182h1.233v2.813a4.009,4.009,0,0,0,.656,2.545,2.626,2.626,0,0,0,2.157.806,7.8,7.8,0,0,0,1.8-.221l-0.205-2.15a2.521,2.521,0,0,1-.854.19,0.9,0.9,0,0,1-.656-0.237,0.82,0.82,0,0,1-.245-0.617v-3.13h1.818V14.24Zm4.189,0h-2.656V22.4h2.656V14.24Zm0.205-2.64a1.461,1.461,0,0,0-.443-1.075,1.564,1.564,0,0,0-2.181,0,1.464,1.464,0,0,0-.442,1.075,1.533,1.533,0,1,0,3.066,0h0Zm9.342,6.718a4.421,4.421,0,0,0-1.074-3.074,4.455,4.455,0,0,0-6.07,0,4.418,4.418,0,0,0-1.076,3.074,4.416,4.416,0,0,0,1.076,3.074,4.455,4.455,0,0,0,6.07,0A4.42,4.42,0,0,0,212.416,18.318Zm-5.564,0a2.836,2.836,0,0,1,.356-1.517,1.345,1.345,0,0,1,2.2,0,2.836,2.836,0,0,1,.356,1.517,2.836,2.836,0,0,1-.356,1.517,1.345,1.345,0,0,1-2.2,0A2.836,2.836,0,0,1,206.852,18.318Zm9.548-.095c0-.074.01-0.206,0.031-0.4a1.28,1.28,0,0,1,1.3-1.375q0.963,0,.964,1.439V22.4h2.655V17.2a3.525,3.525,0,0,0-.687-2.323,2.48,2.48,0,0,0-2.016-.822,2.819,2.819,0,0,0-2.655,1.708V14.24h-2.245V22.4H216.4V18.223Zm12.148,3.667a2.256,2.256,0,0,0,1.035-1.992,1.948,1.948,0,0,0-.664-1.62,6.157,6.157,0,0,0-2.039-.941l-0.522-.158a1.065,1.065,0,0,1-.948-0.664q0-.442.822-0.443a3.585,3.585,0,0,1,1.992.585l0.979-1.676a5.287,5.287,0,0,0-3.145-.933,4.011,4.011,0,0,0-2.387.656,2.213,2.213,0,0,0-.917,1.92,2,2,0,0,0,.664,1.62,5.556,5.556,0,0,0,1.976.957l0.521,0.158a3.269,3.269,0,0,1,.775.308,0.459,0.459,0,0,1,.237.4q0,0.49-.9.49a5.254,5.254,0,0,1-1.455-.23,4.205,4.205,0,0,1-1.2-.513L222.39,21.5a5.7,5.7,0,0,0,3.573,1.09A4.534,4.534,0,0,0,228.548,21.89Zm4.007,1.328a12.238,12.238,0,0,0,.751-1.288,2.151,2.151,0,0,0,.229-0.925,1.563,1.563,0,0,0-.49-1.17,1.623,1.623,0,0,0-1.169-.474,1.561,1.561,0,0,0-1.115.427,1.438,1.438,0,0,0-.45,1.091,1.269,1.269,0,0,0,.284.854,1.4,1.4,0,0,0,.633.443l-0.98,2.56h1.311Z" transform="translate(-136.281 -10.094)"/>
</svg>
