<?xml version="1.0" encoding="UTF-8"?>
<svg xmlns="http://www.w3.org/2000/svg" xmlns:xlink="http://www.w3.org/1999/xlink" viewBox="0 0 970 250">
  <defs>
    <style>
      .cls-1 {
        fill: #fefefe;
      }

      .cls-1, .cls-2, .cls-3, .cls-4, .cls-5, .cls-6, .cls-7, .cls-8, .cls-9, .cls-10, .cls-11, .cls-12, .cls-13, .cls-14, .cls-15, .cls-16, .cls-17 {
        stroke-width: 0px;
      }

      .cls-2 {
        fill: #4b9fd3;
      }

      .cls-3 {
        fill: #fdfdfe;
      }

      .cls-4 {
        fill: #f1f7fb;
      }

      .cls-18 {
        opacity: .04;
      }

      .cls-19 {
        isolation: isolate;
      }

      .cls-5 {
        fill: #f3f8fb;
      }

      .cls-6 {
        fill: none;
      }

      .cls-7, .cls-10 {
        fill: #fff;
      }

      .cls-20 {
        opacity: .03;
      }

      .cls-21 {
        fill: #0085ca;
        stroke: #fff;
        stroke-miterlimit: 10;
        stroke-width: 3px;
      }

      .cls-8 {
        fill: #f4f9fc;
      }

      .cls-9 {
        fill: #3f99d0;
      }

      .cls-10 {
        mix-blend-mode: soft-light;
      }

      .cls-22 {
        clip-path: url(#clippath);
      }

      .cls-11 {
        fill: #4a9ed3;
      }

      .cls-12 {
        fill: #d7eaf5;
      }

      .cls-13 {
        fill: #1e86c8;
      }

      .cls-14 {
        fill: #1a84c7;
      }

      .cls-15 {
        fill: #eef5fa;
      }

      .cls-16 {
        fill: #d1e6f3;
      }

      .cls-17 {
        fill: #1a85c7;
      }
    </style>
    <clipPath id="clippath">
      <rect class="cls-6" width="970" height="250"/>
    </clipPath>
  </defs>
  <g class="cls-19">
    <g id="Layer_2" data-name="Layer 2">
      <g id="Layer_1-2" data-name="Layer 1">
        <g class="cls-22">
          <path class="cls-21" d="M851,278c3.19-42.81-85.57-59.75-93-115.5-5-37.48,31.89-54.13,60-108,38.1-73,33-162.44,16.5-199.5C761.88-308.07,72.66-345.24-112-2.5c-9.81,18.21-82.52,157.81-25.5,280.5C-1.21,571.26,696.51,381.19,804.5,326c12.2-6.23,44.62-22.8,46.5-48Z"/>
          <path class="cls-7" d="M79.52,179.73c43.78-1.21,78.49,28.32,85.46,34.25,27.25,23.19,21.44,36.73,51.11,66.2,38.19,37.95,64.44,32.04,72.39,55.74,11.26,33.57-29.73,80.23-64.18,102.87-42.09,27.65-98.54,35.3-148.46,17.48-63.15-22.55-129.34-90.69-115.24-167.19,10.44-56.63,63.03-107.81,118.93-109.35Z"/>
          <g>
            <path class="cls-14" d="M51.44,235.59c-1.47-1.64-2.86-3.2-4.25-4.76-1.43-1.61-2.83-3.23-4.29-4.81-.38-.41-.34-.6.02-.99,2.73-2.94,5.43-5.91,8.15-8.87.1-.11.18-.26.45-.28,0,.83.03,1.66-.01,2.48-.03.54.17.7.67.63.18-.02.37,0,.55,0,25.05,0,50.11,0,75.16-.02.77,0,1.01.15,1,.97-.05,3.81-.05,7.62,0,11.43,0,.74-.22.88-.92.88-25.13-.02-50.27-.01-75.4-.01q-1.05,0-1.05,1.02c0,.68,0,1.37,0,2.05,0,.05-.02.09-.07.28Z"/>
            <path class="cls-14" d="M129.81,201.56c1.08,1.19,2.08,2.29,3.06,3.4,1.81,2.04,3.61,4.09,5.43,6.11.34.38.4.59.01,1.01-2.24,2.39-4.44,4.82-6.66,7.24-.58.63-1.16,1.26-1.93,1.85,0-.66,0-1.32,0-1.99q0-1.08-1.12-1.08c-11.78,0-23.56,0-35.34,0-13.33,0-26.67,0-40,.02-.78,0-.95-.26-.95-.96.02-3.77.04-7.54,0-11.3,0-.77.17-1,.99-1,16.73.03,33.47.02,50.2.02,8.38,0,16.76,0,25.14,0q1.08,0,1.08-1.04c0-.66,0-1.31,0-1.97,0-.05.02-.1.08-.32Z"/>
            <path class="cls-14" d="M42.5,222.88c0-6.16-.01-12.12.02-18.08,0-.72-.18-.99-.91-.9-.46.06-.94.01-1.53.01.62-.89,1.43-1.43,2.11-2.09,1.38-1.36,2.82-2.67,4.23-4.01.24-.23.39-.34.7-.05,2.07,2,4.17,3.99,6.32,6.04-.62.21-1.22.11-1.79.1-.49,0-.64.07-.63.65.04,2.92,0,5.84,0,8.75,0,.5-.13.88-.49,1.25-2.44,2.53-4.86,5.09-7.29,7.63-.19.2-.41.38-.74.69Z"/>
            <path class="cls-14" d="M138.77,214.37c0,4.88,0,9.63,0,14.37,0,1.29-.02,2.59-.07,3.88-.02.47.11.63.61.6.56-.04,1.12.05,1.76.09-.38.65-.93,1.03-1.39,1.47-1.62,1.53-3.26,3.04-4.88,4.57-.25.24-.39.32-.69.03-2.05-1.99-4.13-3.96-6.2-5.94-.05-.05-.07-.11-.16-.26.67,0,1.27-.04,1.86.01.54.04.65-.17.65-.67-.01-2.94,0-5.88,0-8.82,0-.31-.01-.6.25-.87,2.65-2.73,5.29-5.47,7.94-8.21.07-.07.15-.12.33-.25Z"/>
            <path class="cls-14" d="M116.09,238.24c0-1.2.06-2.16-.02-3.1-.05-.61.12-.77.71-.77,1.97,0,1.97-.02,1.97,1.96,0,1.89-.02,3.78.01,5.67,0,.53-.12.66-.68.74-1.46.2-2.42-.32-3.1-1.6-.4-.76-.95-1.43-1.61-2.1,0,.95-.04,1.9.01,2.84.03.62-.11.87-.8.85-1.9-.04-1.91,0-1.9-1.91,0-1.97.03-3.94,0-5.91,0-.49.15-.55.59-.61,1.53-.21,2.58.3,3.27,1.72.36.74.95,1.36,1.57,2.23Z"/>
            <path class="cls-14" d="M105.37,242.86c-2.88,0-4.39-1.49-4.38-4.35.01-2.76,1.59-4.29,4.41-4.34,2.65-.04,4.31,1.75,4.31,4.45,0,2.7-1.58,4.24-4.34,4.24Z"/>
            <path class="cls-14" d="M66.78,242.86c-2.85,0-4.35-1.51-4.35-4.37,0-2.65,1.67-4.38,4.33-4.32,2.87.06,4.42,1.89,4.37,4.47-.05,2.73-1.55,4.23-4.35,4.23Z"/>
            <path class="cls-14" d="M79.39,237c0-.5-.02-.99,0-1.49.05-1.22.06-1.22,1.31-1.22q1.49,0,1.49,1.45c0,1.18-.02,2.36.01,3.54.02.95.35,1.31,1.08,1.35.85.04,1.28-.28,1.33-1.26.08-1.46.06-2.94.03-4.4-.01-.57.18-.69.71-.69,2.09,0,2.06-.01,2.13,2.06.04,1.3.07,2.58-.21,3.86-.31,1.43-1.2,2.28-2.64,2.51-.65.1-1.3.13-1.96.06-2.04-.21-3.23-1.44-3.33-3.48-.04-.76,0-1.52,0-2.28h.04Z"/>
            <path class="cls-14" d="M59.42,237.24c.4.2.81.37,1.19.59,2.22,1.27,1.42,3.66-.05,4.43-1.47.77-2.99.88-4.54.23-.97-.41-1.5-1.17-1.69-2.2-.07-.36,0-.55.41-.56.39,0,.78-.01,1.17-.07.59-.08,1.03-.1,1.19.68.13.63,1.45.82,1.88.32.35-.4.08-.67-.27-.87-.55-.32-1.17-.45-1.78-.62-1-.27-1.88-.69-2.23-1.76-.36-1.1-.04-1.93.93-2.56,1.4-.9,3.65-.93,4.91-.07.27.18.48.41.65.67.27.42.6.92.39,1.38-.15.32-.72.08-1.09.16-.36.08-.74-.08-1.07.14-.36.06-.5-.22-.66-.44-.12-.17-.25-.34-.46-.4-.23-.07-.53-.14-.63.11-.13.32.22.35.42.41.45.13.91.21,1.32.44Z"/>
            <path class="cls-14" d="M124.57,237.22c.36.14.76.24,1.09.43.89.52,1.64,1.18,1.61,2.33-.04,1.16-.65,1.98-1.7,2.43-1.51.65-3.04.72-4.53-.07-.83-.44-1.22-1.19-1.41-2.07-.08-.38.07-.53.44-.54.41-.01.83-.03,1.24-.08.54-.07.91-.02,1.08.64.16.64,1.35.87,1.86.42.36-.32.21-.62-.11-.84-.41-.28-.89-.43-1.38-.55-.64-.15-1.28-.33-1.82-.69-1.5-1-1.43-2.93.13-3.85,1.7-1,4.1-.8,5.22.43.17.19.34.41.45.64.43.93.32,1.08-.7,1.13-.49.02-1-.05-1.47.18-.28-.07-.44-.27-.55-.52-.12-.26-.33-.41-.62-.41-.18,0-.4,0-.45.21-.04.19.16.24.3.3.44.17.93.18,1.33.47Z"/>
            <path class="cls-14" d="M91.68,234.31c1.33,0,2.66.01,3.99,0,.4,0,.51.11.52.52.03,1.67.04,1.71-1.61,1.66-.76-.03-1.05.12-1,.96.08,1.54,0,3.09.03,4.64,0,.46-.1.68-.61.64-.5-.04-1-.04-1.5,0-.58.05-.7-.21-.69-.73.03-1.63,0-3.25.02-4.88,0-.47-.11-.69-.61-.62-.18.03-.37.02-.55,0-.44-.04-1.12.2-1.26-.12-.22-.48-.1-1.12-.1-1.69,0-.36.31-.3.53-.3.95,0,1.89,0,2.84,0,0-.02,0-.05,0-.07Z"/>
            <path class="cls-14" d="M72.26,237.9c0-1,.03-1.99-.01-2.99-.02-.48.1-.64.57-.61.73.04,1.71-.25,2.13.11.44.38.11,1.38.12,2.1.02,1.1.03,2.2,0,3.31-.01.47.09.65.6.63.94-.04,1.88.01,2.82,0,.4,0,.52.12.53.52.04,1.75.05,1.75-1.68,1.75-1.45,0-2.89-.02-4.34,0-.49,0-.7-.1-.69-.65.03-1.39.01-2.78.01-4.16-.02,0-.04,0-.06,0Z"/>
            <path class="cls-14" d="M99.85,238.54c0,1.2-.02,2.4.01,3.59.01.42-.04.61-.52.58-.73-.05-1.69.23-2.14-.14-.48-.39-.14-1.38-.15-2.11-.02-1.86.02-3.73-.02-5.59-.01-.51.15-.57.6-.57,2.23,0,2.23-.01,2.24,2.2,0,.67,0,1.35,0,2.02h-.02Z"/>
            <path class="cls-5" d="M59.42,237.24c-.59-.09-1.19-.17-1.75-.4-.19-.08-.42-.16-.37-.43.04-.23.25-.35.46-.38.43-.07.83-.03,1.07.43.14.27.22.6.6.67,0,.04,0,.07,0,.11Z"/>
            <path class="cls-8" d="M124.57,237.22c-.53-.11-1.08-.14-1.58-.37-.2-.09-.5-.17-.4-.47.07-.22.28-.36.55-.37.48-.02.9.09,1.04.6.07.24.24.38.38.56,0,0,0,.05,0,.05Z"/>
            <path class="cls-12" d="M128.84,242.62c-.36.18-.73.26-1.11.04-.05-.05-.07-.11-.05-.18.04-.06.09-.1.14-.14.18-.1.36-.2.56-.24.23,0,.38.14.5.33.02.07.01.13-.04.19Z"/>
            <path class="cls-16" d="M127.72,241.69c.33-.37.9-.34,1.13.05-.09.19-.16.4-.44.33-.19-.07-.35-.2-.54-.26-.06-.03-.11-.07-.15-.13Z"/>
            <path class="cls-4" d="M128.37,242.01c.24.05.29-.24.48-.26.02.03.04.07.06.1.33.24.18.44-.06.64-.14-.11-.29-.22-.43-.32-.06-.02-.08-.05-.08-.09,0-.04.01-.07.02-.07Z"/>
            <path class="cls-9" d="M127.74,242.48c0,.06,0,.12,0,.18-.45-.23-.56-.53-.22-.94.32.18.32.46.22.76Z"/>
            <path class="cls-15" d="M127.74,242.48c-.24-.21-.08-.53-.22-.76.07,0,.14-.02.21-.03.07,0,.14,0,.21.01.19.28.15.54-.08.78h-.06s-.06,0-.06,0Z"/>
            <path class="cls-11" d="M128.85,242.49c.13-.2.18-.41.06-.64.29-.19.29.09.33.22.08.32-.14.45-.39.55.02-.04.02-.09,0-.14Z"/>
            <path class="cls-1" d="M111.48,225.71c0,1.12-.02,2.24,0,3.36.01.48-.08.69-.64.69-1.77,0-1.77.03-1.77-1.76,0-1.92.01-3.83,0-5.75,0-.47.12-.59.61-.65,1.34-.16,2.28.18,2.91,1.48.43.88,1.13,1.62,1.86,2.4,0-1.05.03-2.11-.01-3.16-.02-.56.16-.71.71-.7,1.7.01,1.7-.01,1.7,1.67,0,1.89-.02,3.78.01,5.67,0,.54-.09.73-.71.78-1.24.12-2.06-.23-2.66-1.37-.51-.96-1.22-1.81-1.84-2.71-.06.02-.12.04-.18.05Z"/>
            <path class="cls-1" d="M65.27,225.66c0-1.16.02-2.31,0-3.47-.01-.45.14-.57.58-.58,1.99-.05,2.03-.06,1.98,1.92-.02.75.24.95.94.94,1.74-.02,1.74,0,1.74-1.71q0-1.1,1.14-1.1,1.42,0,1.42,1.45c0,1.97-.01,3.94,0,5.91,0,.46-.05.69-.62.69-1.94,0-1.94.03-1.94-1.9q0-1.39-1.41-1.39-1.25,0-1.25,1.22c0,.21.02.42,0,.63-.07.48.27,1.23-.18,1.38-.66.22-1.45.09-2.19.05-.3-.01-.19-.33-.19-.51-.01-1.18,0-2.36,0-3.54Z"/>
            <path class="cls-1" d="M124.49,225.1c1.96,0,1.85,0,1.99,1.94.1,1.3-.48,1.89-1.55,2.36-1.8.79-4.4.58-5.6-.52-1.28-1.17-1.62-3.6-.74-5.31.81-1.57,2.87-2.53,4.68-2.16,1.25.25,2.34.74,2.9,2.01.16.36.08.46-.28.49-.39.04-.79.08-1.16.18-.51.14-.88.11-1.3-.33-.71-.74-1.9-.51-2.39.4-.51.96-.54,1.96-.1,2.94.42.93,2.37,1.24,3.04.49.11-.12.17-.34.15-.5-.02-.17-.23-.18-.39-.17-.05,0-.11,0-.16,0-.35-.06-.87.2-1.01-.15-.16-.41-.06-.93-.06-1.4,0-.32.27-.26.47-.26.5,0,1,0,1.5,0Z"/>
            <path class="cls-1" d="M74.4,225.71c-.01-2.67,1.51-4.23,4.15-4.24,2.68,0,4.29,1.55,4.31,4.18.02,2.67-1.5,4.21-4.16,4.21-2.76,0-4.28-1.46-4.3-4.16Z"/>
            <path class="cls-1" d="M56.37,221.48c.19.03.55.09.91.16.76.14,1.31.55,1.49,1.32.19.8-.11,1.41-.79,1.9-.76.54-.7.96.1,1.37.14.07.25.11.33,0,.57-.84,1.23-.08,1.83-.07.29,0,.13.46,0,.65-.44.61-.31,1.03.36,1.33.5.22.45.47.07.78-.18.15-.31.36-.46.54-.26.3-.54.42-.87.11-.45-.42-.92-.39-1.48-.16-.9.37-1.85.56-2.84.49-1.07-.08-1.96-.46-2.36-1.52-.35-.93.08-2.19.99-2.86.33-.25.44-.39.25-.81-.89-2.04.01-3.29,2.47-3.22Z"/>
            <path class="cls-1" d="M93.81,224.03c-.6.09-1.1.1-1.37-.63-.14-.39-.65-.47-1.1-.36-.31.08-.55.25-.58.57-.04.33.27.44.51.52.72.23,1.47.37,2.18.63,1.36.48,2.04,1.32,2.02,2.39-.02,1.09-.87,2.15-2.13,2.53-1.18.36-2.38.36-3.55-.1-.48-.19-.88-.49-1.17-.91-.31-.45-.72-1-.51-1.5.16-.38.82-.08,1.24-.18.66-.16,1.07-.11,1.32.68.22.68,1.53.77,2.05.24.43-.44.16-.76-.2-1.04-.52-.39-1.18-.41-1.76-.63-.41-.16-.84-.29-1.24-.49-.78-.41-1.24-1.07-1.19-1.97.04-.81.44-1.45,1.21-1.78,1.56-.68,3.12-.88,4.64.12.07.04.13.08.19.14.44.41.83.98.7,1.5-.13.49-.83.17-1.26.27Z"/>
            <path class="cls-1" d="M99.86,221.63c1.08,0,2.16.02,3.24,0,.43,0,.64.1.59.57-.03.26-.02.52,0,.79.02.33-.09.5-.44.47-.16-.01-.32,0-.47,0q-1.62,0-1.62,1.65c0,1.34-.02,2.68.01,4.01.01.53-.17.65-.68.65-1.89,0-1.89.02-1.89-1.87,0-1.18-.02-2.36,0-3.54.01-.55-.04-.91-.74-.82-.33.04-.68-.12-1.01-.08-.7.09-.79-.23-.81-.84-.03-.76.14-1.08.98-1,.94.09,1.89.02,2.84.02Z"/>
            <path class="cls-1" d="M107.33,225.73c0,1.15-.02,2.31,0,3.46,0,.42-.13.52-.53.53-2.04.06-2.04.08-2.04-1.94,0-1.84.02-3.67-.01-5.51,0-.49.15-.61.63-.61,1.96-.02,1.96-.04,1.96,1.94,0,.71,0,1.42,0,2.13Z"/>
            <path class="cls-1" d="M86.66,225.76c0,1.13-.02,2.26,0,3.39.01.46-.15.56-.59.57-1.88.04-1.88.05-1.88-1.8,0-1.89.01-3.78,0-5.67,0-.43.09-.58.56-.6,1.9-.07,1.9-.09,1.9,1.82,0,.76,0,1.52,0,2.28Z"/>
            <path class="cls-1" d="M117.77,211.32c0-1.35.02-2.46,0-3.58-.01-.43.1-.58.56-.59,1.86-.04,1.86-.05,1.86,1.81,0,1.89-.01,3.78.01,5.67,0,.48-.15.58-.62.64-1.31.17-2.22-.21-2.85-1.44-.48-.93-1.18-1.75-1.92-2.81,0,1.37-.02,2.49,0,3.6.01.47-.11.63-.61.64-1.81.03-1.81.05-1.81-1.78,0-1.89.02-3.78-.01-5.67,0-.51.15-.6.65-.67,1.32-.17,2.22.24,2.85,1.45.48.91,1.16,1.7,1.89,2.73Z"/>
            <path class="cls-1" d="M75.43,211.05c0,1.39-.01,2.52,0,3.65,0,.39-.09.54-.52.57-1.9.09-1.9.11-1.9-1.78,0-1.89.02-3.78-.01-5.67,0-.51.15-.6.65-.67,1.33-.18,2.2.27,2.84,1.46.48.91,1.17,1.7,1.9,2.74,0-1.34.02-2.45-.01-3.57-.01-.47.1-.62.6-.63,1.82,0,1.82-.03,1.82,1.78,0,1.89-.02,3.78.01,5.67,0,.52-.18.61-.67.67-1.23.14-2.13-.15-2.74-1.35-.49-.96-1.22-1.79-1.98-2.87Z"/>
            <path class="cls-1" d="M127.86,210.59q1.92,0,1.92,1.91c0,1.73-.22,2.05-1.95,2.58-1.6.49-3.23.6-4.71-.34-1.46-.92-2.05-2.92-1.54-4.75.51-1.82,1.83-2.86,3.87-2.97,1.39-.08,2.75,0,3.69,1.26.12.17.22.36.31.54.23.45.07.66-.42.7-.34.02-.68.09-1.01.15-.48.09-.87.02-1.27-.35-.87-.78-2.06-.47-2.51.61-.35.85-.34,1.75-.03,2.61.38,1.02,2.27,1.39,3.06.63.15-.14.2-.32.18-.5-.03-.29-.29-.11-.44-.16-.02,0-.05,0-.08,0-.35-.06-.91.19-1.02-.14-.17-.47-.07-1.03-.06-1.56,0-.27.25-.22.42-.22.53,0,1.05,0,1.58,0Z"/>
            <path class="cls-1" d="M71.79,211.14c.19,2.38-1.47,4.24-4.26,4.13-2.64-.11-4.14-1.52-4.14-4.15,0-2.65,1.59-4.26,4.23-4.27,2.37,0,4.4,1.57,4.18,4.29Z"/>
            <path class="cls-1" d="M91.16,211.19c0-1.16.02-2.31,0-3.47-.01-.45.15-.58.58-.57,1.84.02,3.69.02,5.53,0,.48,0,.63.12.63.61,0,1.29.02,1.29-1.28,1.29-.79,0-1.58.03-2.37-.01-.52-.03-.53.24-.53.62,0,.39.03.64.54.62.92-.04,1.84.02,2.76-.02.75-.03.52.48.54.85.02.37.13.8-.54.77-.92-.05-1.84.03-2.76-.02-.61-.03-.56.33-.52.69.04.35-.27.9.5.88,1.03-.03,2.06.03,3.08-.02.62-.03.84.2.71.76-.08.37.35,1.03-.38,1.05-2.03.05-4.05.01-6.08.02-.46,0-.4-.31-.4-.59,0-1.16,0-2.31,0-3.47Z"/>
            <path class="cls-1" d="M58.71,215.4c-2.07,0-3.49-.98-4.03-2.71-.6-1.96.04-4.1,1.65-5.07,1.71-1.04,4.7-.91,5.76,1.18.24.48.27.76-.35.85-.26.04-.51.11-.76.19-.49.16-.83.17-1.23-.35-.72-.96-1.89-.74-2.39.35-.41.91-.37,1.85-.08,2.76.19.61.68.88,1.34.89.67.01,1.25-.15,1.43-.84.17-.64.49-.7.99-.43.44.24,1.26.12,1.31.64.05.65-.42,1.27-.97,1.72-.79.65-1.71.88-2.67.83Z"/>
            <path class="cls-1" d="M86.06,212.62c.5-1.62,1.01-3.23,1.48-4.85.13-.45.31-.67.8-.61.62.07,1.51-.27,1.81.12.32.42-.28,1.14-.49,1.72-.69,1.91-1.41,3.82-2.1,5.73-.14.39-.32.54-.73.52-.73-.04-1.58.18-2.17-.12-.57-.29-.6-1.22-.84-1.87-.76-1.99-1.5-4-2.29-6.1.69,0,1.29.03,1.88-.01.48-.04.69.15.83.59.53,1.63,1.1,3.26,1.66,4.89.06,0,.11,0,.17,0Z"/>
            <path class="cls-1" d="M102.9,209.71c.22-.34.43-.56.52-.82.56-1.69,1.84-1.91,3.37-1.72.39.05.46.11.22.45-.62.93-1.18,1.92-1.83,2.83-.73,1.02-1.07,2.09-1,3.37.08,1.42,0,1.43-1.38,1.43-1.21,0-1.33-.02-1.18-1.2.21-1.61-.56-2.8-1.36-4.03-.52-.78-.99-1.6-1.5-2.39-.22-.34-.14-.46.25-.45.66.01,1.32.02,1.97,0,.29,0,.41.14.54.36.43.71.88,1.41,1.37,2.18Z"/>
            <path class="cls-1" d="M110.65,211.18c0,1.18-.02,2.36,0,3.53,0,.41-.12.52-.53.54-2.05.08-2.04.09-2.04-1.94,0-1.81.03-3.61-.02-5.42-.01-.61.2-.74.76-.74,1.83,0,1.83-.02,1.83,1.83,0,.73,0,1.47,0,2.2Z"/>
            <path class="cls-3" d="M106.86,238.74c.03.46-.07.88-.31,1.28-.54.92-1.76,1-2.33.11-.54-.84-.62-1.77-.23-2.7.23-.55.61-.97,1.29-.97.66,0,1.04.34,1.3.92.2.44.29.89.28,1.36Z"/>
            <path class="cls-3" d="M68.31,238.56c-.05.51-.06.88-.21,1.22-.25.57-.64.95-1.3.97-.67.01-1.06-.36-1.33-.92-.36-.75-.35-1.53-.1-2.29.2-.61.64-1.08,1.3-1.1.7-.02,1.16.42,1.41,1.05.16.39.24.8.23,1.07Z"/>
            <path class="cls-2" d="M127.85,242.49c.03-.26.05-.52.08-.78.19.03.4.05.44.3.02.05.04.1.05.15-.19.11-.38.22-.57.33Z"/>
            <path class="cls-17" d="M76.95,225.67c0-.45.03-.89.26-1.29.3-.52.68-.97,1.33-.96.7,0,1.17.41,1.46,1.03.32.69.39,1.4.18,2.14-.28,1-.79,1.44-1.63,1.4-.76-.03-1.43-.71-1.57-1.61-.04-.23-.03-.47-.04-.71Z"/>
            <path class="cls-13" d="M56.98,227.89c-.5.4-1.04.49-1.6.39-.38-.07-.67-.29-.79-.68-.12-.38.07-.64.32-.9.24-.25.41-.23.65,0,.44.4.91.77,1.42,1.21Z"/>
            <path class="cls-13" d="M57.05,223.14c.02.33-.7,1.2-.87,1.12-.42-.19-.71-.54-.76-1.01-.04-.42.31-.48.63-.49.42-.02.82.03.99.38Z"/>
            <path class="cls-17" d="M65.9,211.13c0-1.3.78-2.38,1.7-2.34.93.04,1.82,1.27,1.71,2.46-.04.48-.12.96-.4,1.41-.67,1.07-1.98,1.04-2.66-.1-.26-.43-.34-.93-.35-1.43Z"/>
          </g>
          <g class="cls-20">
            <path class="cls-10" d="M-.02,265.03l2.59,2.96C69.34,180.81,108.45,121.52,108.45,121.52,80.5,163.44,33.24,223.65-.02,265.03Z"/>
            <path class="cls-10" d="M-3.65,260.89l13.89-20.52c-4.76,6.58-9.6,13.2-14.5,19.83l.61.69Z"/>
            <path class="cls-10" d="M140.97-68.36C99.61,20.83,37.53,146.56-23.18,238.6l6.26,7.15C34.37,167.06,99.85,27.1,143.23-70.34l-2.26,1.98Z"/>
            <path class="cls-10" d="M57.64,4.63C27.58,56.35-9.54,114.69-55.08,178.24c-3.12,4.36-6.31,8.72-9.52,13.07l9.17,10.47c3.84-5.16,7.54-10.28,11.09-15.33C.64,122.26,39.23,54.89,70.9-6.99l-13.26,11.62Z"/>
            <path class="cls-10" d="M77.44,114.86c-33.37,59.4-55.64,98.21-55.64,98.21,18.93-31.1,37.87-64.94,55.64-98.21Z"/>
            <path class="cls-10" d="M206.26-119.24l-3.12-3.57-19.12,16.75c-20.54,40.14-43.42,83.75-68.35,129.61l58.06-103.71S130.88,14.8,77.44,114.86C112.46,52.51,159.7-32.53,206.26-119.24Z"/>
            <path class="cls-10" d="M115.66,23.55l-66.22,118.28c23.36-40.49,45.49-80.16,66.22-118.28Z"/>
            <path class="cls-10" d="M256.17-62.25c-61.48,96-112.74,175.62-112.74,175.62l114.37-173.75-1.63-1.86Z"/>
          </g>
          <g class="cls-20">
            <path class="cls-10" d="M492.92,342.76l2.74,3.13c70.61-92.18,111.95-154.88,111.95-154.88-29.56,44.33-79.53,107.99-114.7,151.75Z"/>
            <path class="cls-10" d="M642.01-9.76c-43.73,94.31-109.37,227.26-173.57,324.57l6.62,7.56c54.23-83.21,123.47-231.2,169.34-334.23l-2.39,2.09Z"/>
            <path class="cls-10" d="M553.89,67.41c-31.78,54.68-71.03,116.38-119.18,183.58-3.3,4.61-6.67,9.22-10.06,13.82l9.7,11.07c4.06-5.46,7.98-10.87,11.72-16.21,47.56-67.87,88.36-139.11,121.85-204.54l-14.02,12.28Z"/>
            <path class="cls-10" d="M574.83,183.97c-35.28,62.81-58.83,103.84-58.83,103.84,20.01-32.88,40.04-68.66,58.83-103.84Z"/>
            <path class="cls-10" d="M711.04-63.57l-3.3-3.77-20.22,17.71c-21.72,42.44-45.91,88.55-72.27,137.05l61.39-109.66s-45.3,100.4-101.8,206.2c37.03-65.92,86.98-155.85,136.2-247.53Z"/>
            <path class="cls-10" d="M615.24,87.42l-70.01,125.07c24.7-42.82,48.1-84.76,70.01-125.07Z"/>
            <path class="cls-10" d="M763.82-3.31c-65.01,101.51-119.21,185.69-119.21,185.69L765.54-1.34l-1.73-1.97Z"/>
          </g>
          <g class="cls-18">
            <path class="cls-10" d="M276.01,54.74c-43.73,94.31-109.37,227.26-173.57,324.57l6.62,7.56c54.23-83.21,123.47-231.2,169.34-334.23l-2.39,2.09Z"/>
            <path class="cls-10" d="M187.89,131.91c-31.78,54.68-71.03,116.38-119.18,183.58-3.3,4.61-6.67,9.22-10.06,13.82l9.7,11.07c4.06-5.46,7.98-10.87,11.72-16.21,47.56-67.87,88.36-139.11,121.85-204.54l-14.02,12.28Z"/>
            <path class="cls-10" d="M208.83,248.47c-35.28,62.81-58.83,103.84-58.83,103.84,20.01-32.88,40.04-68.66,58.83-103.84Z"/>
            <path class="cls-10" d="M345.04.93l-3.3-3.77-20.22,17.71c-21.72,42.44-45.91,88.55-72.27,137.05l61.39-109.66s-45.3,100.4-101.8,206.2C245.86,182.54,295.81,92.62,345.04.93Z"/>
            <path class="cls-10" d="M249.24,151.92l-70.01,125.07c24.7-42.82,48.1-84.76,70.01-125.07Z"/>
            <path class="cls-10" d="M397.82,61.19c-65.01,101.51-119.21,185.69-119.21,185.69l120.93-183.72-1.73-1.97Z"/>
          </g>
        </g>
      </g>
    </g>
  </g>
</svg>