<?xml version="1.0" encoding="UTF-8"?>
<svg id="Layer_2" data-name="Layer 2" xmlns="http://www.w3.org/2000/svg" viewBox="0 0 305.86 107.71">
  <defs>
    <style>
      .cls-1 {
        fill: #fff;
        stroke-width: 0px;
      }
    </style>
  </defs>
  <g id="Layer_1-2" data-name="Layer 1">
    <g>
      <g>
        <path class="cls-1" d="M24.69,15.42V1.54h2.65v13.89h-2.65ZM25.89,3.83V1.54h8.9v2.29h-8.9ZM25.89,9.97v-2.21h8.06v2.21h-8.06Z"/>
        <path class="cls-1" d="M40.26,15.7c-1.26,0-2.21-.43-2.85-1.29-.64-.86-.96-2.17-.96-3.92v-6.06h2.67v5.77c0,1.11.17,1.94.5,2.48.34.55.86.82,1.56.82.41,0,.76-.1,1.07-.3s.58-.49.8-.86c.22-.37.4-.8.54-1.29.13-.49.21-1.03.24-1.62v-4.99h2.65v11h-2.19l.04-3.47h-.38c-.18.88-.44,1.6-.77,2.15-.33.55-.73.95-1.21,1.21-.48.26-1.05.39-1.72.39Z"/>
        <path class="cls-1" d="M49.48,15.42V.48h2.61v14.94h-2.61Z"/>
        <path class="cls-1" d="M55.07,15.42V.48h2.61v14.94h-2.61Z"/>
        <path class="cls-1" d="M64.65,19.19c-.56,0-1.13-.06-1.7-.17s-1.11-.28-1.61-.52-.92-.53-1.25-.89l.91-2.19c.41.46.93.81,1.58,1.05.65.24,1.3.36,1.96.36.77,0,1.41-.16,1.91-.47s.89-.8,1.16-1.46.41-1.48.44-2.46l.15-2h-.44c-.14.95-.37,1.73-.69,2.33-.32.6-.73,1.03-1.21,1.3-.48.27-1.05.41-1.69.41-.8,0-1.47-.2-2.02-.61-.55-.41-.96-1.01-1.23-1.81-.27-.8-.41-1.79-.41-2.97v-4.67h2.67v4.06c0,1.32.16,2.28.48,2.87.32.6.81.89,1.47.89.35,0,.67-.09.97-.28.29-.19.54-.46.75-.82s.36-.8.48-1.34.19-1.14.2-1.83v-3.56h2.67v8.12c0,.88-.07,1.68-.22,2.39s-.37,1.33-.66,1.85c-.29.53-.66.97-1.1,1.34-.44.36-.96.63-1.55.81s-1.26.26-2,.26Z"/>
        <path class="cls-1" d="M78.28,15.42V1.54h4.02l4.12,10.92h.11l4.06-10.92h3.85v13.89h-2.52l.17-11.19h-.21l-4.4,11.19h-2.31l-4.33-11.19h-.21l.17,11.19h-2.5Z"/>
        <path class="cls-1" d="M100.08,15.7c-.6,0-1.14-.12-1.62-.35-.48-.23-.85-.58-1.13-1.04s-.41-1.04-.41-1.72c0-.58.11-1.07.33-1.47.22-.41.54-.74.98-1,.43-.26.97-.48,1.62-.65.65-.17,1.4-.33,2.27-.45.48-.07.87-.14,1.17-.21s.52-.18.66-.33c.14-.15.21-.37.21-.66,0-.43-.15-.81-.45-1.13-.3-.32-.79-.47-1.46-.47-.41,0-.8.07-1.17.21-.37.14-.69.36-.96.66-.27.3-.45.7-.55,1.19l-2.38-.74c.15-.56.38-1.05.67-1.46.29-.41.66-.77,1.09-1.06.43-.29.93-.51,1.49-.65.56-.14,1.18-.21,1.85-.21,1.02,0,1.87.17,2.52.5.66.33,1.15.84,1.47,1.54.32.69.48,1.59.48,2.68v2.06c0,.48.01.97.03,1.48.02.51.05,1.02.08,1.54.04.51.08,1.01.14,1.48h-2.38c-.06-.39-.11-.81-.15-1.26-.04-.45-.08-.9-.1-1.37h-.34c-.2.53-.48,1.02-.84,1.46-.37.44-.81.79-1.34,1.05-.53.26-1.13.39-1.82.39ZM101.13,13.74c.28,0,.56-.05.85-.15.29-.1.57-.25.85-.44.28-.2.54-.44.78-.73.24-.29.44-.63.61-1.02l-.04-1.87.5.08c-.24.2-.53.35-.88.46s-.72.2-1.1.25c-.39.06-.77.12-1.16.2s-.73.18-1.04.29-.55.29-.74.5-.27.52-.27.89c0,.48.15.85.46,1.12s.7.4,1.18.4Z"/>
        <path class="cls-1" d="M110.98,2.69c-.53,0-.94-.12-1.23-.35-.29-.23-.43-.56-.43-1s.14-.77.43-1c.29-.23.7-.35,1.23-.35.56,0,.98.11,1.26.34.28.22.42.56.42,1.01s-.14.77-.43,1c-.29.23-.71.35-1.25.35ZM109.65,15.42V4.42h2.65v11h-2.65Z"/>
        <path class="cls-1" d="M115.29,15.42V4.42h2.21l-.06,3.37h.38c.2-.83.46-1.51.79-2.04.33-.53.75-.93,1.27-1.2s1.12-.4,1.81-.4c1.25,0,2.2.44,2.85,1.33s.98,2.25.98,4.1v5.85h-2.67v-5.58c0-1.19-.18-2.07-.54-2.62-.36-.55-.89-.83-1.59-.83-.59,0-1.09.19-1.49.56-.41.37-.72.86-.94,1.47-.22.61-.33,1.28-.35,2.01v4.99h-2.65Z"/>
        <path class="cls-1" d="M132.14,15.67c-1.16,0-2.02-.31-2.57-.94s-.82-1.6-.82-2.91v-5.28h-1.62l.04-2.1h1.07c.41,0,.71-.06.9-.19s.32-.35.36-.67l.25-1.6h1.54v2.44h2.9v2.21h-2.9v5.09c0,.52.12.9.37,1.14.25.24.61.36,1.11.36.27,0,.53-.03.79-.09s.5-.17.73-.33v2.52c-.44.14-.83.24-1.19.28-.36.05-.68.07-.96.07Z"/>
        <path class="cls-1" d="M139.02,15.7c-.6,0-1.14-.12-1.62-.35-.48-.23-.85-.58-1.13-1.04s-.41-1.04-.41-1.72c0-.58.11-1.07.33-1.47.22-.41.54-.74.98-1,.43-.26.97-.48,1.62-.65.65-.17,1.4-.33,2.27-.45.48-.07.87-.14,1.17-.21s.52-.18.66-.33c.14-.15.21-.37.21-.66,0-.43-.15-.81-.45-1.13-.3-.32-.79-.47-1.46-.47-.41,0-.8.07-1.17.21-.37.14-.69.36-.96.66-.27.3-.45.7-.55,1.19l-2.38-.74c.15-.56.38-1.05.67-1.46.29-.41.66-.77,1.09-1.06.43-.29.93-.51,1.49-.65.56-.14,1.18-.21,1.85-.21,1.02,0,1.87.17,2.52.5.66.33,1.15.84,1.47,1.54.32.69.48,1.59.48,2.68v2.06c0,.48.01.97.03,1.48.02.51.05,1.02.08,1.54.04.51.08,1.01.14,1.48h-2.38c-.06-.39-.11-.81-.15-1.26-.04-.45-.08-.9-.1-1.37h-.34c-.2.53-.48,1.02-.84,1.46-.37.44-.81.79-1.34,1.05-.53.26-1.13.39-1.82.39ZM140.07,13.74c.28,0,.56-.05.85-.15.29-.1.57-.25.85-.44.28-.2.54-.44.78-.73.24-.29.44-.63.61-1.02l-.04-1.87.5.08c-.24.2-.53.35-.88.46s-.72.2-1.1.25c-.39.06-.77.12-1.16.2s-.73.18-1.04.29-.55.29-.74.5-.27.52-.27.89c0,.48.15.85.46,1.12s.7.4,1.18.4Z"/>
        <path class="cls-1" d="M149.92,2.69c-.53,0-.94-.12-1.23-.35-.29-.23-.43-.56-.43-1s.14-.77.43-1c.29-.23.7-.35,1.23-.35.56,0,.98.11,1.26.34.28.22.42.56.42,1.01s-.14.77-.43,1c-.29.23-.71.35-1.25.35ZM148.59,15.42V4.42h2.65v11h-2.65Z"/>
        <path class="cls-1" d="M154.23,15.42V4.42h2.21l-.06,3.37h.38c.2-.83.46-1.51.79-2.04.33-.53.75-.93,1.27-1.2s1.12-.4,1.81-.4c1.25,0,2.2.44,2.85,1.33s.98,2.25.98,4.1v5.85h-2.67v-5.58c0-1.19-.18-2.07-.54-2.62-.36-.55-.89-.83-1.59-.83-.59,0-1.09.19-1.49.56-.41.37-.72.86-.94,1.47-.22.61-.33,1.28-.35,2.01v4.99h-2.65Z"/>
        <path class="cls-1" d="M172.22,15.7c-.88,0-1.67-.13-2.37-.38-.69-.25-1.28-.62-1.76-1.1-.48-.48-.84-1.07-1.09-1.76-.25-.69-.38-1.46-.38-2.33s.12-1.67.37-2.4.6-1.36,1.06-1.89,1.03-.95,1.69-1.24c.67-.29,1.43-.44,2.28-.44.8,0,1.51.13,2.15.4.63.27,1.16.66,1.6,1.19s.76,1.18.97,1.96c.21.78.28,1.68.21,2.7l-8.6.06v-1.54l7.07-.06-.93.86c.08-.8.02-1.46-.19-1.97-.21-.51-.51-.89-.91-1.14s-.84-.37-1.35-.37c-.58,0-1.08.15-1.52.45-.43.3-.77.74-1,1.3-.23.57-.35,1.26-.35,2.07,0,1.22.27,2.13.81,2.74.54.6,1.28.9,2.22.9.42,0,.77-.05,1.06-.16.29-.1.53-.25.73-.42.2-.17.35-.38.47-.6.12-.22.21-.46.28-.71l2.31.53c-.11.52-.29.98-.55,1.39-.25.41-.58.76-.98,1.05-.4.29-.87.52-1.42.67-.55.15-1.19.23-1.92.23Z"/>
        <path class="cls-1" d="M183.43,15.7c-.93,0-1.73-.24-2.41-.71-.68-.48-1.2-1.15-1.57-2.01-.37-.86-.55-1.88-.55-3.06,0-1.11.17-2.09.5-2.96.34-.86.83-1.54,1.48-2.04s1.46-.75,2.43-.75c.74,0,1.36.14,1.84.43.48.29.88.69,1.19,1.2.31.51.55,1.11.74,1.8h.44c-.08-.43-.16-.87-.23-1.3s-.13-.85-.18-1.25-.07-.76-.07-1.08V.48h2.67v14.94h-2.25l.04-3.11h-.4c-.16.73-.39,1.35-.72,1.85-.32.5-.73.89-1.21,1.15-.48.26-1.07.39-1.76.39ZM184.27,13.51c.46,0,.87-.11,1.22-.33.35-.22.64-.5.87-.83.23-.34.41-.71.53-1.1.12-.4.18-.78.18-1.13v-.36c0-.27-.04-.55-.12-.86-.08-.31-.19-.61-.34-.92-.15-.3-.34-.58-.57-.82s-.5-.44-.8-.59-.63-.22-1-.22c-.55,0-1.01.15-1.39.46-.38.31-.67.73-.87,1.26-.2.53-.31,1.16-.31,1.87s.11,1.34.32,1.87c.21.53.51.95.89,1.24s.84.44,1.38.44Z"/>
        <path class="cls-1" d="M197.86,15.42V1.54h2.67v13.89h-2.67ZM199.59,3.72V1.54h8.61v2.19h-8.61ZM199.59,9.38v-2.02h7.62v2.02h-7.62ZM199.59,15.42v-2.19h8.65v2.19h-8.65Z"/>
        <path class="cls-1" d="M217.83,18.91v-3.05c0-.35.02-.71.07-1.09s.11-.77.18-1.17c.07-.4.14-.8.21-1.19h-.38c-.2.65-.45,1.22-.77,1.71s-.72.88-1.2,1.16c-.48.27-1.1.41-1.84.41-.97,0-1.78-.25-2.43-.75-.65-.5-1.15-1.18-1.48-2.04-.34-.86-.5-1.84-.5-2.93,0-1.16.18-2.18.54-3.05.36-.87.88-1.55,1.57-2.04.69-.49,1.52-.74,2.5-.74.69,0,1.28.13,1.77.39s.89.63,1.21,1.12c.32.48.54,1.07.66,1.76h.38l-.06-2.97h2.25v14.47h-2.67ZM215.03,13.53c.36,0,.7-.07,1-.21.3-.14.56-.33.79-.58.22-.25.41-.52.57-.81.15-.29.27-.6.35-.91.08-.31.12-.6.12-.88v-.36c0-.38-.06-.77-.18-1.17-.12-.4-.29-.77-.53-1.11-.23-.34-.52-.61-.87-.82-.35-.21-.76-.32-1.22-.32-.53,0-.99.15-1.38.44-.39.29-.68.71-.89,1.24-.21.53-.32,1.17-.32,1.91,0,.69.1,1.3.31,1.83.2.53.49.95.87,1.26.38.31.84.46,1.39.46Z"/>
        <path class="cls-1" d="M227.13,15.7c-1.26,0-2.21-.43-2.85-1.29-.64-.86-.96-2.17-.96-3.92v-6.06h2.67v5.77c0,1.11.17,1.94.5,2.48.34.55.86.82,1.56.82.41,0,.76-.1,1.07-.3s.58-.49.8-.86c.22-.37.4-.8.54-1.29.13-.49.21-1.03.24-1.62v-4.99h2.65v11h-2.19l.04-3.47h-.38c-.18.88-.44,1.6-.77,2.15-.33.55-.73.95-1.21,1.21-.48.26-1.05.39-1.72.39Z"/>
        <path class="cls-1" d="M237.67,2.69c-.53,0-.94-.12-1.23-.35-.29-.23-.43-.56-.43-1s.14-.77.43-1c.29-.23.7-.35,1.23-.35.56,0,.98.11,1.26.34.28.22.42.56.42,1.01s-.14.77-.43,1c-.29.23-.71.35-1.25.35ZM236.34,15.42V4.42h2.65v11h-2.65Z"/>
        <path class="cls-1" d="M241.98,18.91V4.42h2.23l-.02,2.99.36.02c.14-.7.37-1.3.68-1.79s.72-.86,1.21-1.12c.49-.25,1.07-.38,1.75-.38.98,0,1.82.24,2.5.73.69.48,1.21,1.16,1.57,2.04.36.88.54,1.9.54,3.06,0,1.09-.17,2.07-.49,2.93-.33.86-.83,1.54-1.49,2.04-.67.5-1.49.75-2.47.75-.72,0-1.32-.14-1.81-.42s-.89-.67-1.2-1.16c-.31-.49-.56-1.06-.76-1.7h-.38c.08.38.16.77.22,1.17s.12.79.16,1.18c.04.39.06.75.06,1.1v3.05h-2.65ZM247.47,13.53c.55,0,1.01-.15,1.39-.45.38-.3.67-.72.86-1.26s.29-1.16.29-1.86-.1-1.36-.3-1.89-.5-.95-.89-1.24c-.39-.29-.86-.44-1.39-.44-.46,0-.87.11-1.22.32-.35.21-.65.49-.88.83s-.41.71-.53,1.1c-.11.39-.17.78-.17,1.16v.36c0,.28.04.57.12.87.08.3.19.6.35.9s.34.58.57.82c.22.25.49.44.8.58.31.14.64.21,1.01.21Z"/>
        <path class="cls-1" d="M255.19,15.42V4.42h2.17l-.06,3.37h.38c.2-.81.45-1.49.77-2.03s.71-.94,1.17-1.21,1-.4,1.6-.4c.67,0,1.23.16,1.66.46.43.31.77.73,1,1.27s.38,1.17.43,1.88h.34c.18-.81.45-1.49.79-2.02s.76-.93,1.26-1.2,1.05-.4,1.65-.4,1.11.12,1.56.36c.45.24.82.59,1.12,1.04.3.46.53,1.03.67,1.71s.22,1.48.22,2.38v5.79h-2.67v-5.45c0-.79-.07-1.44-.2-1.96-.13-.52-.34-.91-.61-1.17s-.63-.39-1.06-.39c-.49,0-.92.16-1.28.48-.36.32-.65.78-.86,1.36-.21.58-.34,1.25-.38,1.99v5.13h-2.61v-5.32c0-.81-.07-1.49-.21-2.03-.14-.54-.35-.94-.63-1.21s-.64-.4-1.07-.4c-.5,0-.94.17-1.29.5-.36.34-.64.8-.84,1.39-.2.59-.32,1.25-.35,1.98v5.09h-2.65Z"/>
        <path class="cls-1" d="M279.7,15.7c-.88,0-1.67-.13-2.37-.38-.69-.25-1.28-.62-1.76-1.1-.48-.48-.84-1.07-1.09-1.76-.25-.69-.38-1.46-.38-2.33s.12-1.67.37-2.4.6-1.36,1.06-1.89,1.03-.95,1.69-1.24c.67-.29,1.43-.44,2.28-.44.8,0,1.51.13,2.15.4.63.27,1.16.66,1.6,1.19s.76,1.18.97,1.96c.21.78.28,1.68.21,2.7l-8.6.06v-1.54l7.07-.06-.93.86c.08-.8.02-1.46-.19-1.97-.21-.51-.51-.89-.91-1.14s-.84-.37-1.35-.37c-.58,0-1.08.15-1.52.45-.43.3-.77.74-1,1.3-.23.57-.35,1.26-.35,2.07,0,1.22.27,2.13.81,2.74.54.6,1.28.9,2.22.9.42,0,.77-.05,1.06-.16.29-.1.53-.25.73-.42.2-.17.35-.38.47-.6.12-.22.21-.46.28-.71l2.31.53c-.11.52-.29.98-.55,1.39-.25.41-.58.76-.98,1.05-.4.29-.87.52-1.42.67-.55.15-1.19.23-1.92.23Z"/>
        <path class="cls-1" d="M286.86,15.42V4.42h2.21l-.06,3.37h.38c.2-.83.46-1.51.79-2.04.33-.53.75-.93,1.27-1.2s1.12-.4,1.81-.4c1.25,0,2.2.44,2.85,1.33s.98,2.25.98,4.1v5.85h-2.67v-5.58c0-1.19-.18-2.07-.54-2.62-.36-.55-.89-.83-1.59-.83-.59,0-1.09.19-1.49.56-.41.37-.72.86-.94,1.47-.22.61-.33,1.28-.35,2.01v4.99h-2.65Z"/>
        <path class="cls-1" d="M303.71,15.67c-1.16,0-2.02-.31-2.57-.94s-.82-1.6-.82-2.91v-5.28h-1.62l.04-2.1h1.07c.41,0,.71-.06.9-.19s.32-.35.36-.67l.25-1.6h1.54v2.44h2.9v2.21h-2.9v5.09c0,.52.12.9.37,1.14.25.24.61.36,1.11.36.27,0,.53-.03.79-.09s.5-.17.73-.33v2.52c-.44.14-.83.24-1.19.28-.36.05-.68.07-.96.07Z"/>
      </g>
      <g>
        <path class="cls-1" d="M29.87,47.68c-.91,0-1.72-.09-2.44-.26-.71-.18-1.32-.45-1.82-.82-.5-.37-.88-.83-1.15-1.37s-.41-1.17-.42-1.9l2.36-.69c-.01.67.13,1.23.42,1.67.29.44.72.77,1.27.98.55.21,1.19.32,1.9.32s1.27-.08,1.74-.25c.47-.17.82-.4,1.06-.68.24-.29.36-.61.36-.98,0-.41-.15-.73-.44-.98-.29-.25-.69-.45-1.19-.61s-1.06-.31-1.69-.45c-.69-.15-1.36-.32-2.01-.5s-1.25-.43-1.78-.74-.96-.71-1.27-1.19c-.32-.48-.47-1.1-.47-1.84,0-.84.21-1.57.63-2.18.42-.61,1.03-1.09,1.84-1.43.81-.34,1.77-.52,2.89-.52s2.08.17,2.9.49c.83.33,1.47.81,1.94,1.44s.71,1.38.74,2.23l-2.42.67c0-.46-.07-.87-.22-1.21s-.36-.63-.64-.86-.61-.4-1-.52-.82-.17-1.32-.17c-.58,0-1.08.08-1.5.23s-.75.37-.98.64-.34.59-.34.96c0,.45.17.81.5,1.07.34.27.78.48,1.34.64.55.16,1.16.32,1.82.47.6.13,1.21.28,1.82.46.61.18,1.17.42,1.69.71.52.29.94.69,1.25,1.19.32.5.47,1.13.47,1.88,0,.81-.22,1.53-.65,2.15-.44.62-1.09,1.09-1.96,1.43-.87.34-1.95.5-3.24.5Z"/>
        <path class="cls-1" d="M38.16,47.4v-14.94h2.67v3.43c0,.29-.01.6-.03.91-.02.31-.05.62-.09.95-.04.32-.09.65-.14.97-.05.32-.1.65-.16.97h.44c.2-.76.45-1.4.76-1.92s.71-.93,1.19-1.21c.48-.28,1.08-.42,1.78-.42,1.28,0,2.23.45,2.86,1.34.63.89.95,2.24.95,4.05v5.89h-2.67v-5.51c0-1.21-.18-2.1-.54-2.67-.36-.57-.89-.86-1.61-.86-.59,0-1.08.18-1.47.54-.39.36-.69.83-.9,1.42-.21.59-.34,1.25-.38,2v5.09h-2.65Z"/>
        <path class="cls-1" d="M56.06,47.68c-1.08,0-2.03-.22-2.86-.66-.83-.44-1.48-1.09-1.95-1.96s-.71-1.92-.71-3.19.24-2.36.73-3.21c.48-.85,1.14-1.48,1.97-1.9.83-.42,1.76-.63,2.8-.63s2.03.22,2.86.65c.83.44,1.48,1.08,1.96,1.95.48.86.71,1.93.71,3.21s-.24,2.36-.71,3.22c-.48.86-1.13,1.49-1.97,1.9-.83.41-1.78.62-2.83.62ZM56.17,45.66c.59,0,1.09-.14,1.49-.41s.72-.68.94-1.23c.22-.55.33-1.2.33-1.96,0-.8-.12-1.48-.35-2.05-.23-.57-.56-1.01-.99-1.31-.43-.31-.96-.46-1.61-.46-.56,0-1.05.14-1.47.41-.42.27-.74.68-.96,1.21s-.33,1.19-.33,1.98c0,1.23.26,2.18.79,2.84.53.66,1.25.99,2.16.99Z"/>
        <path class="cls-1" d="M63.95,47.4v-11h2.23l-.04,3.79h.38c.13-.9.32-1.64.59-2.24.27-.6.64-1.04,1.12-1.35s1.07-.45,1.77-.45c.14,0,.29,0,.45.02.16.01.34.05.54.11l-.1,2.8c-.22-.08-.45-.14-.68-.18-.23-.03-.45-.05-.64-.05-.55,0-1.02.14-1.42.42-.4.28-.72.68-.97,1.19s-.43,1.12-.56,1.82v5.13h-2.65Z"/>
        <path class="cls-1" d="M77.14,47.66c-1.16,0-2.02-.31-2.57-.94s-.82-1.6-.82-2.91v-5.28h-1.62l.04-2.1h1.07c.41,0,.71-.06.9-.19s.32-.35.36-.67l.25-1.6h1.54v2.44h2.9v2.21h-2.9v5.09c0,.52.12.9.37,1.14.25.24.61.36,1.11.36.27,0,.53-.03.79-.09s.5-.17.73-.33v2.52c-.44.14-.83.24-1.19.28-.36.05-.68.07-.96.07Z"/>
        <path class="cls-1" d="M89.2,47.7c-.72,0-1.35-.13-1.9-.4-.55-.27-.99-.64-1.3-1.12-.32-.48-.47-1.06-.47-1.74s.14-1.19.41-1.64.63-.82,1.06-1.1c.43-.29.9-.52,1.4-.68.5-.17.98-.28,1.44-.34l.08.48c-.63.34-1.1.73-1.42,1.18s-.47.92-.47,1.41c0,.41.1.77.29,1.09.2.32.47.57.83.75.36.18.77.26,1.25.26.43,0,.82-.08,1.17-.24.34-.16.67-.38.98-.66l.44.8h-.48c-.21.41-.47.76-.78,1.05-.31.29-.67.52-1.08.67-.41.15-.89.23-1.44.23ZM96.77,47.68c-.74,0-1.46-.17-2.16-.52s-1.35-.81-1.98-1.41c-.62-.6-1.19-1.27-1.69-2.01-.5-.74-.95-1.51-1.33-2.3-.38-.79-.67-1.57-.87-2.32-.2-.76-.31-1.44-.31-2.04,0-.7.14-1.34.43-1.92.29-.58.73-1.05,1.31-1.41.59-.36,1.35-.54,2.27-.54.86,0,1.57.15,2.15.44.57.29,1.01.69,1.31,1.18s.45,1.03.45,1.62c0,.46-.11.91-.34,1.35-.22.44-.59.83-1.09,1.18s-1.2.65-2.08.88l-.17-.34c.42-.42.73-.84.94-1.26.2-.42.3-.86.3-1.3s-.11-.83-.34-1.16c-.22-.32-.58-.48-1.07-.48-.35,0-.63.08-.84.24s-.37.38-.46.64c-.1.27-.15.57-.15.9,0,.41.08.9.23,1.47s.37,1.18.64,1.81c.27.63.59,1.25.96,1.84.36.6.76,1.14,1.18,1.63s.86.88,1.32,1.18c.46.29.91.44,1.36.44.35,0,.63-.09.83-.27s.3-.42.3-.72-.12-.62-.36-.93c-.24-.31-.58-.59-1.02-.84-.44-.25-.99-.45-1.63-.59v-2.17h4.84v1.98l-3.77-.57v.42c1.45.27,2.51.67,3.19,1.2.68.53,1.02,1.21,1.02,2.04,0,.52-.12.95-.36,1.3s-.54.62-.89.81c-.36.19-.73.33-1.11.41-.39.08-.73.13-1.02.13Z"/>
        <path class="cls-1" d="M107.52,47.4v-13.89h2.65v13.89h-2.65ZM108.13,47.4v-2.27h8.12v2.27h-8.12Z"/>
        <path class="cls-1" d="M122.8,47.68c-1.08,0-2.03-.22-2.86-.66-.83-.44-1.48-1.09-1.95-1.96s-.71-1.92-.71-3.19.24-2.36.73-3.21c.48-.85,1.14-1.48,1.97-1.9.83-.42,1.76-.63,2.8-.63s2.03.22,2.86.65c.83.44,1.48,1.08,1.96,1.95.48.86.71,1.93.71,3.21s-.24,2.36-.71,3.22c-.48.86-1.13,1.49-1.97,1.9-.83.41-1.78.62-2.83.62ZM122.9,45.66c.59,0,1.09-.14,1.49-.41s.72-.68.94-1.23c.22-.55.33-1.2.33-1.96,0-.8-.12-1.48-.35-2.05-.23-.57-.56-1.01-.99-1.31-.43-.31-.96-.46-1.61-.46-.56,0-1.05.14-1.47.41-.42.27-.74.68-.96,1.21s-.33,1.19-.33,1.98c0,1.23.26,2.18.79,2.84.53.66,1.25.99,2.16.99Z"/>
        <path class="cls-1" d="M130.69,47.4v-11h2.21l-.06,3.37h.38c.2-.83.46-1.51.79-2.04.33-.53.75-.93,1.27-1.2s1.12-.4,1.81-.4c1.25,0,2.2.44,2.85,1.33s.98,2.25.98,4.1v5.85h-2.67v-5.58c0-1.19-.18-2.07-.54-2.62-.36-.55-.89-.83-1.59-.83-.59,0-1.09.19-1.49.56-.41.37-.72.86-.94,1.47-.22.61-.33,1.28-.35,2.01v4.99h-2.65Z"/>
        <path class="cls-1" d="M147.98,51.19c-1.19,0-2.17-.09-2.93-.27-.76-.18-1.33-.46-1.69-.82-.36-.37-.55-.81-.55-1.35,0-.65.26-1.17.77-1.59.51-.41,1.27-.67,2.28-.77v-.42c-.76.01-1.33-.07-1.72-.24-.39-.17-.59-.46-.59-.85s.19-.72.58-1.01c.39-.29,1.03-.54,1.92-.74v-.42c-.86-.04-1.52-.31-2-.81-.48-.5-.71-1.15-.71-1.95,0-.71.2-1.35.59-1.89.39-.55.97-.98,1.74-1.29.76-.32,1.69-.47,2.79-.47h5.45v2.1l-3.45-.5v.46c.87.14,1.51.39,1.92.74.41.35.62.83.62,1.43s-.18,1.08-.55,1.53c-.36.44-.89.79-1.59,1.03s-1.53.37-2.51.37c-.18,0-.38,0-.59-.02-.21-.01-.54-.05-.99-.11-.29.21-.53.4-.72.56-.18.16-.27.31-.27.45,0,.11.07.21.21.28.14.08.32.13.55.16.22.03.44.04.65.04h2.92c.28,0,.64.02,1.08.06.44.04.88.15,1.33.34.44.18.81.47,1.12.86.3.39.45.95.45,1.66,0,.8-.23,1.46-.68,1.97-.46.51-1.14.89-2.04,1.13-.91.24-2.03.36-3.38.36ZM148.21,49.04c.87,0,1.56-.05,2.08-.15.52-.1.89-.26,1.12-.47.22-.22.34-.49.34-.83,0-.31-.07-.55-.21-.73-.14-.18-.32-.3-.54-.37-.22-.07-.44-.11-.66-.13-.22-.01-.41-.02-.57-.02h-2.59c-.67.1-1.15.29-1.42.57-.27.28-.41.59-.41.93s.11.59.34.77c.22.17.55.29.98.35.43.06.94.08,1.55.08ZM148.28,42c.73,0,1.28-.17,1.66-.52.38-.34.57-.8.57-1.36,0-.6-.19-1.1-.58-1.48s-.94-.58-1.67-.58-1.29.19-1.69.57-.6.86-.6,1.45c0,.38.09.71.26,1,.18.29.43.51.78.67.34.16.77.24,1.27.24Z"/>
        <path class="cls-1" d="M160.18,35.77v-2.25h10.94v2.25h-10.94ZM164.31,47.4v-13.89h2.67v13.89h-2.67Z"/>
        <path class="cls-1" d="M176.55,47.68c-.88,0-1.67-.13-2.37-.38-.69-.25-1.28-.62-1.76-1.1-.48-.48-.84-1.07-1.09-1.76-.25-.69-.38-1.46-.38-2.33s.12-1.67.37-2.4.6-1.36,1.06-1.89,1.03-.95,1.69-1.24c.67-.29,1.43-.44,2.28-.44.8,0,1.51.13,2.15.4.63.27,1.16.66,1.6,1.19s.76,1.18.97,1.96c.21.78.28,1.68.21,2.7l-8.6.06v-1.54l7.07-.06-.93.86c.08-.8.02-1.46-.19-1.97-.21-.51-.51-.89-.91-1.14s-.84-.37-1.35-.37c-.58,0-1.08.15-1.52.45-.43.3-.77.74-1,1.3-.23.57-.35,1.26-.35,2.07,0,1.22.27,2.13.81,2.74.54.6,1.28.9,2.22.9.42,0,.77-.05,1.06-.16.29-.1.53-.25.73-.42.2-.17.35-.38.47-.6.12-.22.21-.46.28-.71l2.31.53c-.11.52-.29.98-.55,1.39-.25.41-.58.76-.98,1.05-.4.29-.87.52-1.42.67-.55.15-1.19.23-1.92.23Z"/>
        <path class="cls-1" d="M183.71,47.4v-11h2.23l-.04,3.79h.38c.13-.9.32-1.64.59-2.24.27-.6.64-1.04,1.12-1.35s1.07-.45,1.77-.45c.14,0,.29,0,.45.02.16.01.34.05.54.11l-.1,2.8c-.22-.08-.45-.14-.68-.18-.23-.03-.45-.05-.64-.05-.55,0-1.02.14-1.42.42-.4.28-.72.68-.97,1.19s-.43,1.12-.56,1.82v5.13h-2.65Z"/>
        <path class="cls-1" d="M192.58,47.4v-11h2.17l-.06,3.37h.38c.2-.81.45-1.49.77-2.03s.71-.94,1.17-1.21,1-.4,1.6-.4c.67,0,1.23.16,1.66.46.43.31.77.73,1,1.27s.38,1.17.43,1.88h.34c.18-.81.45-1.49.79-2.02s.76-.93,1.26-1.2,1.05-.4,1.65-.4,1.11.12,1.56.36c.45.24.82.59,1.12,1.04.3.46.53,1.03.67,1.71s.22,1.48.22,2.38v5.79h-2.67v-5.45c0-.79-.07-1.44-.2-1.96-.13-.52-.34-.91-.61-1.17s-.63-.39-1.06-.39c-.49,0-.92.16-1.28.48-.36.32-.65.78-.86,1.36-.21.58-.34,1.25-.38,1.99v5.13h-2.61v-5.32c0-.81-.07-1.49-.21-2.03-.14-.54-.35-.94-.63-1.21s-.64-.4-1.07-.4c-.5,0-.94.17-1.29.5-.36.34-.64.8-.84,1.39-.2.59-.32,1.25-.35,1.98v5.09h-2.65Z"/>
        <path class="cls-1" d="M217.28,47.4v-13.89h2.65v13.89h-2.65ZM218.78,41.45v-2.19h8.69v2.19h-8.69ZM226.41,47.4v-13.89h2.65v13.89h-2.65Z"/>
        <path class="cls-1" d="M233.52,34.67c-.53,0-.94-.12-1.23-.35-.29-.23-.43-.56-.43-1s.14-.77.43-1c.29-.23.7-.35,1.23-.35.56,0,.98.11,1.26.34.28.22.42.56.42,1.01s-.14.77-.43,1c-.29.23-.71.35-1.25.35ZM232.2,47.4v-11h2.65v11h-2.65Z"/>
        <path class="cls-1" d="M237.84,47.4v-11h2.23l-.04,3.79h.38c.13-.9.32-1.64.59-2.24.27-.6.64-1.04,1.12-1.35s1.07-.45,1.77-.45c.14,0,.29,0,.45.02.16.01.34.05.54.11l-.1,2.8c-.22-.08-.45-.14-.68-.18-.23-.03-.45-.05-.64-.05-.55,0-1.02.14-1.42.42-.4.28-.72.68-.97,1.19s-.43,1.12-.56,1.82v5.13h-2.65Z"/>
        <path class="cls-1" d="M251.58,47.68c-.88,0-1.67-.13-2.37-.38-.69-.25-1.28-.62-1.76-1.1-.48-.48-.84-1.07-1.09-1.76-.25-.69-.38-1.46-.38-2.33s.12-1.67.37-2.4.6-1.36,1.06-1.89,1.03-.95,1.69-1.24c.67-.29,1.43-.44,2.28-.44.8,0,1.51.13,2.15.4.63.27,1.16.66,1.6,1.19s.76,1.18.97,1.96c.21.78.28,1.68.21,2.7l-8.6.06v-1.54l7.07-.06-.93.86c.08-.8.02-1.46-.19-1.97-.21-.51-.51-.89-.91-1.14s-.84-.37-1.35-.37c-.58,0-1.08.15-1.52.45-.43.3-.77.74-1,1.3-.23.57-.35,1.26-.35,2.07,0,1.22.27,2.13.81,2.74.54.6,1.28.9,2.22.9.42,0,.77-.05,1.06-.16.29-.1.53-.25.73-.42.2-.17.35-.38.47-.6.12-.22.21-.46.28-.71l2.31.53c-.11.52-.29.98-.55,1.39-.25.41-.58.76-.98,1.05-.4.29-.87.52-1.42.67-.55.15-1.19.23-1.92.23Z"/>
      </g>
      <g>
        <path class="cls-1" d="M24.69,80.28v-13.89h2.65v13.89h-2.65ZM26.19,74.32v-2.19h8.69v2.19h-8.69ZM33.83,80.28v-13.89h2.65v13.89h-2.65Z"/>
        <path class="cls-1" d="M44.58,80.55c-.88,0-1.67-.13-2.37-.38-.69-.25-1.28-.62-1.76-1.1-.48-.48-.84-1.07-1.09-1.76-.25-.69-.38-1.46-.38-2.33s.12-1.67.37-2.4.6-1.36,1.06-1.89,1.03-.95,1.69-1.24c.67-.29,1.43-.44,2.28-.44.8,0,1.51.13,2.15.4.63.27,1.16.66,1.6,1.19s.76,1.18.97,1.96c.21.78.28,1.68.21,2.7l-8.6.06v-1.54l7.07-.06-.93.86c.08-.8.02-1.46-.19-1.97-.21-.51-.51-.89-.91-1.14s-.84-.37-1.35-.37c-.58,0-1.08.15-1.52.45-.43.3-.77.74-1,1.3-.23.57-.35,1.26-.35,2.07,0,1.22.27,2.13.81,2.74.54.6,1.28.9,2.22.9.42,0,.77-.05,1.06-.16.29-.1.53-.25.73-.42.2-.17.35-.38.47-.6.12-.22.21-.46.28-.71l2.31.53c-.11.52-.29.98-.55,1.39-.25.41-.58.76-.98,1.05-.4.29-.87.52-1.42.67-.55.15-1.19.23-1.92.23Z"/>
        <path class="cls-1" d="M54.32,80.55c-.6,0-1.14-.12-1.62-.35-.48-.23-.85-.58-1.13-1.04s-.41-1.04-.41-1.72c0-.58.11-1.07.33-1.47.22-.41.54-.74.98-1,.43-.26.97-.48,1.62-.65.65-.17,1.4-.33,2.27-.45.48-.07.87-.14,1.17-.21s.52-.18.66-.33c.14-.15.21-.37.21-.66,0-.43-.15-.81-.45-1.13-.3-.32-.79-.47-1.46-.47-.41,0-.8.07-1.17.21-.37.14-.69.36-.96.66-.27.3-.45.7-.55,1.19l-2.38-.74c.15-.56.38-1.05.67-1.46.29-.41.66-.77,1.09-1.06.43-.29.93-.51,1.49-.65.56-.14,1.18-.21,1.85-.21,1.02,0,1.87.17,2.52.5.66.33,1.15.84,1.47,1.54.32.69.48,1.59.48,2.68v2.06c0,.48.01.97.03,1.48.02.51.05,1.02.08,1.54.04.51.08,1.01.14,1.48h-2.38c-.06-.39-.11-.81-.15-1.26-.04-.45-.08-.9-.1-1.37h-.34c-.2.53-.48,1.02-.84,1.46-.37.44-.81.79-1.34,1.05-.53.26-1.13.39-1.82.39ZM55.37,78.59c.28,0,.56-.05.85-.15.29-.1.57-.25.85-.44.28-.2.54-.44.78-.73.24-.29.44-.63.61-1.02l-.04-1.87.5.08c-.24.2-.53.35-.88.46s-.72.2-1.1.25c-.39.06-.77.12-1.16.2s-.73.18-1.04.29-.55.29-.74.5-.27.52-.27.89c0,.48.15.85.46,1.12s.7.4,1.18.4Z"/>
        <path class="cls-1" d="M66.14,80.28l-3.77-10.98h2.95l2.55,8.86h.32l2.55-8.86h2.86l-3.79,10.98h-3.66Z"/>
        <path class="cls-1" d="M79.42,84.04c-.56,0-1.13-.06-1.7-.17s-1.11-.28-1.61-.52-.92-.53-1.25-.89l.91-2.19c.41.46.93.81,1.58,1.05.65.24,1.3.36,1.96.36.77,0,1.41-.16,1.91-.47s.89-.8,1.16-1.46.41-1.48.44-2.46l.15-2h-.44c-.14.95-.37,1.73-.69,2.33-.32.6-.73,1.03-1.21,1.3-.48.27-1.05.41-1.69.41-.8,0-1.47-.2-2.02-.61-.55-.41-.96-1.01-1.23-1.81-.27-.8-.41-1.79-.41-2.97v-4.67h2.67v4.06c0,1.32.16,2.28.48,2.87.32.6.81.89,1.47.89.35,0,.67-.09.97-.28.29-.19.54-.46.75-.82s.36-.8.48-1.34.19-1.14.2-1.83v-3.56h2.67v8.12c0,.88-.07,1.68-.22,2.39s-.37,1.33-.66,1.85c-.29.53-.66.97-1.1,1.34-.44.36-.96.63-1.55.81s-1.26.26-2,.26Z"/>
        <path class="cls-1" d="M95.62,80.57c-.72,0-1.35-.13-1.9-.4-.55-.27-.99-.64-1.3-1.12-.32-.48-.47-1.06-.47-1.74s.14-1.19.41-1.64.63-.82,1.06-1.1c.43-.29.9-.52,1.4-.68.5-.17.98-.28,1.44-.34l.08.48c-.63.34-1.1.73-1.42,1.18s-.47.92-.47,1.41c0,.41.1.77.29,1.09.2.32.47.57.83.75.36.18.77.26,1.25.26.43,0,.82-.08,1.17-.24.34-.16.67-.38.98-.66l.44.8h-.48c-.21.41-.47.76-.78,1.05-.31.29-.67.52-1.08.67-.41.15-.89.23-1.44.23ZM103.19,80.55c-.74,0-1.46-.17-2.16-.52s-1.35-.81-1.98-1.41c-.62-.6-1.19-1.27-1.69-2.01-.5-.74-.95-1.51-1.33-2.3-.38-.79-.67-1.57-.87-2.32-.2-.76-.31-1.44-.31-2.04,0-.7.14-1.34.43-1.92.29-.58.73-1.05,1.31-1.41.59-.36,1.35-.54,2.27-.54.86,0,1.57.15,2.15.44.57.29,1.01.69,1.31,1.18s.45,1.03.45,1.62c0,.46-.11.91-.34,1.35-.22.44-.59.83-1.09,1.18s-1.2.65-2.08.88l-.17-.34c.42-.42.73-.84.94-1.26.2-.42.3-.86.3-1.3s-.11-.83-.34-1.16c-.22-.32-.58-.48-1.07-.48-.35,0-.63.08-.84.24s-.37.38-.46.64c-.1.27-.15.57-.15.9,0,.41.08.9.23,1.47s.37,1.18.64,1.81c.27.63.59,1.25.96,1.84.36.6.76,1.14,1.18,1.63s.86.88,1.32,1.18c.46.29.91.44,1.36.44.35,0,.63-.09.83-.27s.3-.42.3-.72-.12-.62-.36-.93c-.24-.31-.58-.59-1.02-.84-.44-.25-.99-.45-1.63-.59v-2.17h4.84v1.98l-3.77-.57v.42c1.45.27,2.51.67,3.19,1.2.68.53,1.02,1.21,1.02,2.04,0,.52-.12.95-.36,1.3s-.54.62-.89.81c-.36.19-.73.33-1.11.41-.39.08-.73.13-1.02.13Z"/>
        <path class="cls-1" d="M113.94,80.28v-13.89h2.65v13.89h-2.65ZM114.55,80.28v-2.27h8.12v2.27h-8.12Z"/>
        <path class="cls-1" d="M125.79,67.55c-.53,0-.94-.12-1.23-.35-.29-.23-.43-.56-.43-1s.14-.77.43-1c.29-.23.7-.35,1.23-.35.56,0,.98.11,1.26.34.28.22.42.56.42,1.01s-.14.77-.43,1c-.29.23-.71.35-1.25.35ZM124.46,80.28v-11h2.65v11h-2.65Z"/>
        <path class="cls-1" d="M134.37,84.06c-1.19,0-2.17-.09-2.93-.27-.76-.18-1.33-.46-1.69-.82-.36-.37-.55-.81-.55-1.35,0-.65.26-1.17.77-1.59.51-.41,1.27-.67,2.28-.77v-.42c-.76.01-1.33-.07-1.72-.24-.39-.17-.59-.46-.59-.85s.19-.72.58-1.01c.39-.29,1.03-.54,1.92-.74v-.42c-.86-.04-1.52-.31-2-.81-.48-.5-.71-1.15-.71-1.95,0-.71.2-1.35.59-1.89.39-.55.97-.98,1.74-1.29.76-.32,1.69-.47,2.79-.47h5.45v2.1l-3.45-.5v.46c.87.14,1.51.39,1.92.74.41.35.62.83.62,1.43s-.18,1.08-.55,1.53c-.36.44-.89.79-1.59,1.03s-1.53.37-2.51.37c-.18,0-.38,0-.59-.02-.21-.01-.54-.05-.99-.11-.29.21-.53.4-.72.56-.18.16-.27.31-.27.45,0,.11.07.21.21.28.14.08.32.13.55.16.22.03.44.04.65.04h2.92c.28,0,.64.02,1.08.06.44.04.88.15,1.33.34.44.18.81.47,1.12.86.3.39.45.95.45,1.66,0,.8-.23,1.46-.68,1.97-.46.51-1.14.89-2.04,1.13-.91.24-2.03.36-3.38.36ZM134.6,81.92c.87,0,1.56-.05,2.08-.15.52-.1.89-.26,1.12-.47.22-.22.34-.49.34-.83,0-.31-.07-.55-.21-.73-.14-.18-.32-.3-.54-.37-.22-.07-.44-.11-.66-.13-.22-.01-.41-.02-.57-.02h-2.59c-.67.1-1.15.29-1.42.57-.27.28-.41.59-.41.93s.11.59.34.77c.22.17.55.29.98.35.43.06.94.08,1.55.08ZM134.66,74.87c.73,0,1.28-.17,1.66-.52.38-.34.57-.8.57-1.36,0-.6-.19-1.1-.58-1.48s-.94-.58-1.67-.58-1.29.19-1.69.57-.6.86-.6,1.45c0,.38.09.71.26,1,.18.29.43.51.78.67.34.16.77.24,1.27.24Z"/>
        <path class="cls-1" d="M142.62,80.28v-14.94h2.67v3.43c0,.29-.01.6-.03.91-.02.31-.05.62-.09.95-.04.32-.09.65-.14.97-.05.32-.1.65-.16.97h.44c.2-.76.45-1.4.76-1.92s.71-.93,1.19-1.21c.48-.28,1.08-.42,1.78-.42,1.28,0,2.23.45,2.86,1.34.63.89.95,2.24.95,4.05v5.89h-2.67v-5.51c0-1.21-.18-2.1-.54-2.67-.36-.57-.89-.86-1.61-.86-.59,0-1.08.18-1.47.54-.39.36-.69.83-.9,1.42-.21.59-.34,1.25-.38,2v5.09h-2.65Z"/>
        <path class="cls-1" d="M159.47,80.53c-1.16,0-2.02-.31-2.57-.94s-.82-1.6-.82-2.91v-5.28h-1.62l.04-2.1h1.07c.41,0,.71-.06.9-.19s.32-.35.36-.67l.25-1.6h1.54v2.44h2.9v2.21h-2.9v5.09c0,.52.12.9.37,1.14.25.24.61.36,1.11.36.27,0,.53-.03.79-.09s.5-.17.73-.33v2.52c-.44.14-.83.24-1.19.28-.36.05-.68.07-.96.07Z"/>
        <path class="cls-1" d="M162.27,75.88v-2.4h5.95v2.4h-5.95Z"/>
        <path class="cls-1" d="M170.51,80.28v-13.89h2.65v13.89h-2.65ZM171.82,80.28v-2.19h4.06c.84,0,1.54-.19,2.09-.57.55-.38.97-.92,1.24-1.62s.41-1.54.41-2.52c0-.83-.09-1.54-.26-2.15-.18-.6-.44-1.1-.79-1.48s-.79-.68-1.33-.87c-.53-.2-1.16-.29-1.87-.29h-3.56v-2.19h3.47c1.64,0,2.98.27,4.03.82,1.04.55,1.82,1.33,2.31,2.35.5,1.02.75,2.24.75,3.67,0,1.01-.12,1.9-.36,2.68-.24.78-.56,1.44-.97,2-.41.55-.88,1.01-1.43,1.36s-1.13.61-1.76.77c-.62.16-1.27.24-1.92.24h-4.12Z"/>
        <path class="cls-1" d="M188.63,80.55c-1.26,0-2.21-.43-2.85-1.29-.64-.86-.96-2.17-.96-3.92v-6.06h2.67v5.77c0,1.11.17,1.94.5,2.48.34.55.86.82,1.56.82.41,0,.76-.1,1.07-.3s.58-.49.8-.86c.22-.37.4-.8.54-1.29.13-.49.21-1.03.24-1.62v-4.99h2.65v11h-2.19l.04-3.47h-.38c-.18.88-.44,1.6-.77,2.15-.33.55-.73.95-1.21,1.21-.48.26-1.05.39-1.72.39Z"/>
        <path class="cls-1" d="M201.71,80.53c-1.16,0-2.02-.31-2.57-.94s-.82-1.6-.82-2.91v-5.28h-1.62l.04-2.1h1.07c.41,0,.71-.06.9-.19s.32-.35.36-.67l.25-1.6h1.54v2.44h2.9v2.21h-2.9v5.09c0,.52.12.9.37,1.14.25.24.61.36,1.11.36.27,0,.53-.03.79-.09s.5-.17.73-.33v2.52c-.44.14-.83.24-1.19.28-.36.05-.68.07-.96.07Z"/>
        <path class="cls-1" d="M210.11,84.04c-.56,0-1.13-.06-1.7-.17s-1.11-.28-1.61-.52-.92-.53-1.25-.89l.91-2.19c.41.46.93.81,1.58,1.05.65.24,1.3.36,1.96.36.77,0,1.41-.16,1.91-.47s.89-.8,1.16-1.46.41-1.48.44-2.46l.15-2h-.44c-.14.95-.37,1.73-.69,2.33-.32.6-.73,1.03-1.21,1.3-.48.27-1.05.41-1.69.41-.8,0-1.47-.2-2.02-.61-.55-.41-.96-1.01-1.23-1.81-.27-.8-.41-1.79-.41-2.97v-4.67h2.67v4.06c0,1.32.16,2.28.48,2.87.32.6.81.89,1.47.89.35,0,.67-.09.97-.28.29-.19.54-.46.75-.82s.36-.8.48-1.34.19-1.14.2-1.83v-3.56h2.67v8.12c0,.88-.07,1.68-.22,2.39s-.37,1.33-.66,1.85c-.29.53-.66.97-1.1,1.34-.44.36-.96.63-1.55.81s-1.26.26-2,.26Z"/>
        <path class="cls-1" d="M30.59,104.49c-1.01,0-1.91-.16-2.69-.48-.79-.32-1.46-.79-2.01-1.4-.55-.61-.98-1.36-1.27-2.24-.29-.88-.44-1.89-.44-3.03,0-1.64.28-3,.84-4.07.56-1.07,1.33-1.88,2.31-2.41.98-.53,2.1-.8,3.35-.8.97,0,1.84.16,2.63.47.79.32,1.46.78,2.01,1.39.55.61.99,1.37,1.29,2.27.31.91.46,1.94.46,3.1s-.15,2.19-.45,3.08-.73,1.64-1.29,2.25c-.56.61-1.24,1.07-2.03,1.39s-1.69.47-2.7.47ZM30.65,102.35c.8,0,1.47-.19,2.01-.58s.95-.94,1.24-1.67c.29-.73.43-1.62.43-2.67s-.15-2-.44-2.78c-.29-.77-.72-1.36-1.27-1.76-.55-.4-1.23-.6-2.03-.6-.76,0-1.41.19-1.97.58-.55.39-.98.95-1.27,1.7-.29.75-.44,1.67-.44,2.75,0,.81.08,1.53.25,2.16s.41,1.15.73,1.57c.32.42.71.74,1.18.97.47.22,1,.34,1.59.34Z"/>
        <path class="cls-1" d="M39.67,107.71v-14.5h2.23l-.02,2.99.36.02c.14-.7.37-1.3.68-1.79s.72-.86,1.21-1.12c.49-.25,1.07-.38,1.75-.38.98,0,1.82.24,2.5.73.69.48,1.21,1.16,1.57,2.04.36.88.54,1.9.54,3.06,0,1.09-.17,2.07-.49,2.93-.33.86-.83,1.54-1.49,2.04-.67.5-1.49.75-2.47.75-.72,0-1.32-.14-1.81-.42s-.89-.67-1.2-1.16c-.31-.49-.56-1.06-.76-1.7h-.38c.08.38.16.77.22,1.17s.12.79.16,1.18c.04.39.06.75.06,1.1v3.05h-2.65ZM45.17,102.33c.55,0,1.01-.15,1.39-.45.38-.3.67-.72.86-1.26s.29-1.16.29-1.86-.1-1.36-.3-1.89-.5-.95-.89-1.24c-.39-.29-.86-.44-1.39-.44-.46,0-.87.11-1.22.32-.35.21-.65.49-.88.83s-.41.71-.53,1.1c-.11.39-.17.78-.17,1.16v.36c0,.28.04.57.12.87.08.3.19.6.35.9s.34.58.57.82c.22.25.49.44.8.58.31.14.64.21,1.01.21Z"/>
        <path class="cls-1" d="M56.74,104.47c-1.16,0-2.02-.31-2.57-.94s-.82-1.6-.82-2.91v-5.28h-1.62l.04-2.1h1.07c.41,0,.71-.06.9-.19s.32-.35.36-.67l.25-1.6h1.54v2.44h2.9v2.21h-2.9v5.09c0,.52.12.9.37,1.14.25.24.61.36,1.11.36.27,0,.53-.03.79-.09s.5-.17.73-.33v2.52c-.44.14-.83.24-1.19.28-.36.05-.68.07-.96.07Z"/>
        <path class="cls-1" d="M62.4,91.49c-.53,0-.94-.12-1.23-.35-.29-.23-.43-.56-.43-1s.14-.77.43-1c.29-.23.7-.35,1.23-.35.56,0,.98.11,1.26.34.28.22.42.56.42,1.01s-.14.77-.43,1c-.29.23-.71.35-1.25.35ZM61.07,104.22v-11h2.65v11h-2.65Z"/>
        <path class="cls-1" d="M71.59,104.49c-1.08,0-2.03-.22-2.86-.66-.83-.44-1.48-1.09-1.95-1.96s-.71-1.92-.71-3.19.24-2.36.73-3.21c.48-.85,1.14-1.48,1.97-1.9.83-.42,1.76-.63,2.8-.63s2.03.22,2.86.65c.83.44,1.48,1.08,1.96,1.95.48.86.71,1.93.71,3.21s-.24,2.36-.71,3.22c-.48.86-1.13,1.49-1.97,1.9-.83.41-1.78.62-2.83.62ZM71.69,102.47c.59,0,1.09-.14,1.49-.41s.72-.68.94-1.23c.22-.55.33-1.2.33-1.96,0-.8-.12-1.48-.35-2.05-.23-.57-.56-1.01-.99-1.31-.43-.31-.96-.46-1.61-.46-.56,0-1.05.14-1.47.41-.42.27-.74.68-.96,1.21s-.33,1.19-.33,1.98c0,1.23.26,2.18.79,2.84.53.66,1.25.99,2.16.99Z"/>
        <path class="cls-1" d="M79.48,104.22v-11h2.21l-.06,3.37h.38c.2-.83.46-1.51.79-2.04.33-.53.75-.93,1.27-1.2s1.12-.4,1.81-.4c1.25,0,2.2.44,2.85,1.33s.98,2.25.98,4.1v5.85h-2.67v-5.58c0-1.19-.18-2.07-.54-2.62-.36-.55-.89-.83-1.59-.83-.59,0-1.09.19-1.49.56-.41.37-.72.86-.94,1.47-.22.61-.33,1.28-.35,2.01v4.99h-2.65Z"/>
        <path class="cls-1" d="M96.77,104.49c-.74,0-1.41-.07-2.01-.22-.6-.15-1.1-.36-1.53-.63-.42-.27-.76-.6-1.01-.99-.25-.39-.41-.82-.46-1.29l2.08-.78c.03.37.17.69.42.98.25.29.6.52,1.05.68.45.17.99.25,1.62.25.7,0,1.25-.11,1.63-.33.39-.22.58-.53.58-.94,0-.29-.11-.53-.32-.71-.21-.17-.51-.32-.92-.44-.4-.12-.88-.24-1.44-.35-.52-.11-1.04-.24-1.57-.39-.53-.15-1.01-.34-1.45-.59-.44-.25-.8-.57-1.07-.97-.27-.4-.41-.91-.41-1.53,0-.67.18-1.25.54-1.75.36-.49.88-.88,1.56-1.16.68-.28,1.5-.42,2.47-.42.91,0,1.7.13,2.37.38.67.25,1.21.61,1.63,1.08.42.47.69,1.03.8,1.67l-2.19.69c-.04-.39-.18-.73-.4-1s-.53-.48-.9-.62c-.38-.14-.82-.21-1.33-.21-.65,0-1.15.11-1.52.34-.36.22-.55.53-.55.9,0,.31.12.55.35.74.23.18.55.33.97.44.41.11.89.22,1.42.34.56.11,1.1.24,1.63.39.53.15,1,.34,1.42.58.42.24.76.55,1.01.94.25.39.38.88.38,1.48,0,.73-.2,1.35-.59,1.86-.39.51-.95.9-1.67,1.16-.72.26-1.59.39-2.6.39Z"/>
      </g>
      <path class="cls-1" d="M13.63,2.38c-2.74.85-6,5.15-9.13,9.58-1.33-2.24-2.73-2.98-4.19-2.22-.18.09-.3.28-.31.48-.01.21.08.4.24.53,1.05.77,2.15,2.13,3.45,4.29h0c.23.39.65.63,1.11.63h.02c.47,0,.9-.26,1.13-.67,1.27-2.29,2.65-4.52,4.16-6.66,1.24-1.76,2.61-3.41,4.12-4.94.2-.2.24-.51.09-.75-.14-.24-.43-.35-.69-.27h0Z"/>
      <path class="cls-1" d="M13.63,33.78c-2.74.85-6,5.15-9.13,9.58-1.33-2.24-2.73-2.98-4.19-2.22-.18.09-.3.28-.31.48-.01.21.08.4.24.53,1.05.77,2.15,2.13,3.45,4.29h0c.23.39.65.63,1.11.63h.02c.47,0,.9-.26,1.13-.67,1.27-2.29,2.65-4.52,4.16-6.66,1.24-1.76,2.61-3.41,4.12-4.94.2-.2.24-.51.09-.75-.14-.24-.43-.35-.69-.27h0Z"/>
      <path class="cls-1" d="M13.63,67.02c-2.74.85-6,5.15-9.13,9.58-1.33-2.24-2.73-2.98-4.19-2.22-.18.09-.3.28-.31.48-.01.21.08.4.24.53,1.05.77,2.15,2.13,3.45,4.29h0c.23.39.65.63,1.11.63h.02c.47,0,.9-.26,1.13-.67,1.27-2.29,2.65-4.52,4.16-6.66,1.24-1.76,2.61-3.41,4.12-4.94.2-.2.24-.51.09-.75-.14-.24-.43-.35-.69-.27h0Z"/>
    </g>
  </g>
</svg>