<svg xmlns="http://www.w3.org/2000/svg" viewBox="0 0 39.22 21.45"><defs><style>.cls-1{fill:#fefefe;}.cls-2{fill:#fcfcfc;}.cls-3{fill:#f8f9f9;}.cls-4{fill:#fcfdfd;}.cls-5{fill:#f4f5f5;}.cls-6{fill:#6a7f77;}.cls-7{fill:#647b72;}.cls-8{fill:#e6eae8;}.cls-9{fill:#798d85;}.cls-10{fill:#d7dddb;}.cls-11{fill:#6f847c;}.cls-12{fill:#dee3e1;}.cls-13{fill:#466056;}.cls-14{fill:#476157;}.cls-15{fill:#415d52;}.cls-16{fill:#435e53;}.cls-17{fill:#3d594e;}.cls-18{fill:#486258;}.cls-19{fill:#496359;}.cls-20{fill:#566f64;}.cls-21{fill:#60776e;}.cls-22{fill:#61776e;}.cls-23{fill:#61786e;}.cls-24{fill:#637a71;}.cls-25{fill:#4a6459;}.cls-26{fill:#5f776d;}.cls-27{fill:#566e64;}.cls-28{fill:#4a645a;}.cls-29{fill:#687e75;}.cls-30{fill:#466256;}.cls-31{fill:#496459;}.cls-32{fill:#667c73;}.cls-33{fill:#597168;}.cls-34{fill:#687e76;}.cls-35{fill:#466257;}.cls-36{fill:#697f76;}.cls-37{fill:#486257;}.cls-38{fill:#647a71;}.cls-39{fill:#6c8178;}.cls-40{fill:#72877f;}.cls-41{fill:#70857c;}.cls-42{fill:#546c62;}.cls-43{fill:#6b8178;}.cls-44{fill:#506a60;}.cls-45{fill:#4e685e;}.cls-46{fill:#486358;}.cls-47{fill:#536d62;}.cls-48{fill:#445f55;}.cls-49{fill:#455f55;}.cls-50{fill:#466156;}.cls-51{fill:#627970;}.cls-52{fill:#71867e;}.cls-53{fill:#445f53;}.cls-54{fill:#476257;}.cls-55{fill:#677e75;}.cls-56{fill:#597167;}.cls-57{fill:#4f695f;}.cls-58{fill:#546d64;}.cls-59{fill:#456155;}.cls-60{fill:#4c665c;}.cls-61{fill:#3f5b50;}.cls-62{fill:#637a70;}.cls-63{fill:#6b8078;}.cls-64{fill:#405c50;}.cls-65{fill:#446055;}.cls-66{fill:#50695f;}.cls-67{fill:#546d63;}.cls-68{fill:#5a7268;}.cls-69{fill:#556e64;}.cls-70{fill:#445f54;}.cls-71{fill:#fdfdfd;}.cls-72{fill:#425d53;}.cls-73{fill:#425e53;}.cls-74{fill:#fafafa;}</style></defs><g id="Layer_2" data-name="Layer 2"><g id="Layer_1-2" data-name="Layer 1"><path class="cls-1" d="M19.6,0h19c.18,0,.43-.1.54.07S39.1.51,39,.64A3.93,3.93,0,0,0,38,3.71c.06,2.24,0,4.48,0,6.72,0,.48,0,.65-.62.52A78.63,78.63,0,0,0,1.93,11c-.46.1-.56,0-.55-.44,0-2.5,0-5,.09-7.52A2.08,2.08,0,0,0,.93,1.39C.63,1.07.38.71.1.37S0,0,.27,0H19.6Z"/><path class="cls-1" d="M29.48,10.68c.16-.12.28-.28.54-.25,1.75.22,3.5.44,5.23.8a.66.66,0,0,1,.2.11,2,2,0,0,1-.28.89c-.12.23-.35.37-.45.61,0,.09-.1.17-.15.27-.25.48-.66.85-.92,1.32a3.24,3.24,0,0,0-.36.38,1.6,1.6,0,0,0-.36.46,2.2,2.2,0,0,0-.66.73.32.32,0,0,1-.11.12,1.7,1.7,0,0,0-.43.33,7.36,7.36,0,0,0-1.12.88,11,11,0,0,1-1.47,1l-.28.15c-.52.33-1.07.58-1.59.9l-.51.22a.87.87,0,0,0-.22.05,1.75,1.75,0,0,0-.47.2.94.94,0,0,1-.12.09c-.13,0-.24.11-.37.14l-.78.26a2.21,2.21,0,0,1-.57.11c-.28.07-.55.11-.82.19a.87.87,0,0,0-.32.06c-.16.09-.35,0-.53.09s-.22.13-.36.15a2.09,2.09,0,0,1-.34,0,3.36,3.36,0,0,0-1,.09H18.62a4.6,4.6,0,0,0-1.17-.11h-.27l-1.31-.28-.58-.15a2.27,2.27,0,0,1-.25-.06,2.13,2.13,0,0,0-1.14-.41c-.63-.11-1.17-.45-1.79-.59-.51-.36-1.13-.53-1.63-.92-.11-.06-.19-.18-.31-.22A1.48,1.48,0,0,0,9.84,18a.89.89,0,0,0-.5-.32A3.56,3.56,0,0,1,8.47,17a1.17,1.17,0,0,0-.58-.35,12.28,12.28,0,0,0-1.65-1.73,2,2,0,0,0-.58-.71c0-.26-.3-.33-.47-.48A2.87,2.87,0,0,1,4.82,13a1,1,0,0,0-.27-.44,2,2,0,0,1-.39-.91c-.09-.23-.15-.41.22-.48,1.65-.31,3.32-.5,5-.72.21,0,.38,0,.46.23s.26.21.4.31l.13.06a.81.81,0,0,0,.39.2.94.94,0,0,1,.49.49.73.73,0,0,0,.22.39.68.68,0,0,0,.5.3.35.35,0,0,1,.17.15,1.38,1.38,0,0,0,.18.34.62.62,0,0,0,.35.26c.2,0,.34.21.54.26l.39.24a2,2,0,0,0,.68.36c.32.14.56.47,1,.43.2.07.4.16.6.22a3.83,3.83,0,0,0,.75.23,2.53,2.53,0,0,0,.55,0,.43.43,0,0,1,.25,0,2,2,0,0,0,1.23.34,6.44,6.44,0,0,0,2.19,0l.17,0a3,3,0,0,0,.67-.11,2.75,2.75,0,0,0,.57-.12,2.14,2.14,0,0,0,.56-.11c.16,0,.31-.1.47-.13a4.32,4.32,0,0,0,1-.32,3.36,3.36,0,0,1,.45-.14,1.09,1.09,0,0,0,.66-.32c.09,0,.18-.1.27-.13s.36-.14.48-.31a2.11,2.11,0,0,1,.27-.25c.14-.06.25-.17.39-.23a.57.57,0,0,0,.3-.15l.11-.18a.32.32,0,0,1,.1-.1l.13-.05a.36.36,0,0,0,.26-.19c0-.06.05-.13.08-.2a.57.57,0,0,1,.15-.16.6.6,0,0,0,.28-.24.52.52,0,0,1,.11-.1.62.62,0,0,0,.36-.35.36.36,0,0,1,.1-.11,1.73,1.73,0,0,0,.31-.22C29.2,10.91,29.32,10.77,29.48,10.68Z"/><path class="cls-2" d="M28,12.24a.18.18,0,0,1-.07,0,1.79,1.79,0,0,1-.62.47h0a1.8,1.8,0,0,1-.4.33c-.24,0-.38.23-.58.33s-.22.21-.35.29-.26.16-.4.21-.48.32-.76.38a1.68,1.68,0,0,0-.53.19c-.44.17-.89.29-1.34.44a4.21,4.21,0,0,0-.48.12,1.22,1.22,0,0,0-.49.12,2.3,2.3,0,0,0-.68.11c-.12,0-.24,0-.36,0a2.58,2.58,0,0,1-.38,0H18.84c-.16,0-.32-.06-.48-.06s-.44,0-.66-.1a.81.81,0,0,1-.45-.13H17.1L17,15c-.28-.08-.57-.14-.85-.2s-.51-.21-.78-.26-.69-.29-1-.46a3,3,0,0,0-.77-.37,1,1,0,0,0-.39-.24,1.73,1.73,0,0,0-.72-.41c-.14-.15-.27-.31-.41-.45l-.08-.11c-.27,0-.37-.25-.54-.39s-.21-.21-.33-.3a1.42,1.42,0,0,0-.43-.45c-.1-.1-.2-.21-.31-.3s-.2-.32-.27-.5-.23-.35.08-.39A15.72,15.72,0,0,1,13.33,10a6.28,6.28,0,0,1-1.57.89c-.48.21-.45.4-.11.72a11.74,11.74,0,0,0,7.7,3.13,11.63,11.63,0,0,0,8.31-3c.52-.47.51-.48-.1-.78L26,10.12c.07-.21.22-.18.33-.18.92,0,1.84.13,2.75.25.25,0,.42.1.26.39a1.42,1.42,0,0,1-.29.49l-.31.31h0l-.48.47h0A2,2,0,0,0,28,12.24Z"/><path class="cls-3" d="M24.07,20.9a5.17,5.17,0,0,1-1.23.25c-.23.11-.5,0-.72.1l-.31,0c-.47.13-.95-.07-1.42.11h0a4.05,4.05,0,0,1-1.3,0,17,17,0,0,1-7.78-1.95,18.7,18.7,0,0,1-7.76-7.35A.33.33,0,0,1,3.5,12c0-.26-.47-.54-.17-.73s.39.31.61.47a5.88,5.88,0,0,1,.81,1,3.19,3.19,0,0,0,.6,1,3.47,3.47,0,0,1,.39.47c.15.27.45.41.59.69A18.8,18.8,0,0,0,8,16.6c.54.3.89.86,1.48,1.1.15.05.23.18.37.25a1.3,1.3,0,0,0,.38.22,1,1,0,0,0,.38.25,15.81,15.81,0,0,0,1.44.83,11.53,11.53,0,0,0,2.05.7c.44.13.84.35,1.29.44l.34.07a7,7,0,0,0,1.12.23,2.71,2.71,0,0,0,.9.11c.15,0,.31.05.46.08a11.46,11.46,0,0,0,3,0,1.58,1.58,0,0,1,.38,0,4.42,4.42,0,0,0,.63,0,.64.64,0,0,1,.33-.1,3.41,3.41,0,0,0,1.09-.22,6,6,0,0,0,.73-.17,1.65,1.65,0,0,0,.47-.13l.68-.23c.18,0,.35-.13.53-.17s.63-.22.93-.39l.28-.13c.13-.05.25-.14.39-.11s.2.11.22.23a11.56,11.56,0,0,1-2.65,1.15A9.21,9.21,0,0,0,24.07,20.9Z"/><path class="cls-4" d="M17.54,11.47c.66-.23,1.22.08,1.54-.24A3.34,3.34,0,0,0,19.56,10c.07,0,.12,0,.12.06.18,1,.69,1.55,1.77,1.21.05.24-.09.28-.17.34-.82.65-.82.65-.55,1.63a.42.42,0,0,1,0,.42c-.72-.88-1.48-.94-2.32,0C18.91,12.66,18.83,11.89,17.54,11.47Z"/><path class="cls-5" d="M27.89,19.42l-.25-.13c-.06-.17.06-.24.19-.28a7.3,7.3,0,0,0,1.09-.62c.09-.05.19-.09.28-.15a11.72,11.72,0,0,0,2.42-1.84,2,2,0,0,0,.51-.44h0a2.43,2.43,0,0,0,.75-.78,1,1,0,0,1,.23-.31c.18-.15.32-.33.49-.48q.45-.54.84-1.11a1.69,1.69,0,0,1,.21-.4,4.21,4.21,0,0,0,.39-.55c.21-.23.27-.56.54-.74.06-.26.27-.44.49-.33s0,.36-.06.52a18.28,18.28,0,0,1-7.25,7.26C28.49,19.2,28.25,19.46,27.89,19.42Z"/><path class="cls-6" d="M4.62,12.87a3.93,3.93,0,0,1-.68-1.15c.12,0,.2,0,.22-.11l.54.81c.1,0,.11.12.12.21A.26.26,0,0,1,4.62,12.87Z"/><path class="cls-7" d="M35.57,11.6a1.86,1.86,0,0,1-.44.83c-.11,0-.19-.12-.13-.26l.45-.83Z"/><path class="cls-8" d="M24.07,20.9a1.88,1.88,0,0,1,1.17-.33A3.72,3.72,0,0,1,24.07,20.9Z"/><path class="cls-9" d="M29,11a.7.7,0,0,1,.37-.45l.1.1c0,.27-.17.35-.36.43A.15.15,0,0,1,29,11Z"/><path class="cls-8" d="M20.39,21.38a3,3,0,0,1,1.42-.11A3.77,3.77,0,0,1,20.39,21.38Z"/><path class="cls-10" d="M19.1,21.38a4.72,4.72,0,0,1,1.3,0A2.85,2.85,0,0,1,19.1,21.38Z"/><path class="cls-11" d="M10,10.58a1.1,1.1,0,0,1,.37.4c.07.14,0,.16-.13.16h-.08c-.12-.13-.32-.21-.27-.44Z"/><path class="cls-2" d="M9.92,10.69l.27.44a.5.5,0,0,1-.37-.49A.24.24,0,0,1,9.92,10.69Z"/><path class="cls-12" d="M22.12,21.25a1,1,0,0,1,.72-.1A1.38,1.38,0,0,1,22.12,21.25Z"/><path class="cls-13" d="M6.42,5.24c0,.9,0,1.8,0,2.7a1.06,1.06,0,0,1-1,1.21c-.7.16-1.39.29-2.09.41s-.94-.1-1-.78c0-2,0-4.09,0-6.14,0-.71.25-1,1-1s1.38,0,2.07,0,1,.24,1,1V5.24Z"/><path class="cls-13" d="M36.53,4.44v1.9c0,.35-.08.66-.55.61-.31,0-.22.17-.17.33.2.68.4,1.36.63,2,.11.34,0,.4-.32.34-.5-.09-.95-.16-1-.83a15,15,0,0,0-.51-1.7c-.08-.29-.22-.45-.52-.42s-.2.32-.2.5c0,.51,0,1,0,1.55,0,.28,0,.45-.4.38-1-.19-.89-.05-.9-1.05,0-1.95,0-3.9-.06-5.85,0-.43.08-.62.56-.59.84,0,1.69,0,2.53,0s.93.27.94,1,0,1.22,0,1.83Z"/><path class="cls-13" d="M31.42,5.22V7.74c0,.78-.2,1-1,.91S29,8.49,28.31,8.38s-.92-.38-.92-1.07c0-1.55,0-3.1,0-4.64,0-.83.18-1,1-1q1,0,1.95,0c.85,0,1.06.22,1.06,1.05s0,1.68,0,2.52Z"/><path class="cls-13" d="M17,4.79c0-.88,0-1.76,0-2.64,0-.36.09-.52.48-.51.88,0,1.76,0,2.64,0,.7,0,.88.21.88.92,0,1.45,0,2.9,0,4.35,0,.74-.22,1-1,1s-1.69,0-2.53,0C17.1,8,17,7.77,17,7.37c0-.86,0-1.72,0-2.58Z"/><path class="cls-13" d="M23.15,7.93c-.79,0-.95-.19-.95-.95,0-1.52,0-3.05,0-4.58a.61.61,0,0,1,.62-.72,17.51,17.51,0,0,1,2.71,0,.72.72,0,0,1,.72.8c0,1.65,0,3.29,0,4.94a.62.62,0,0,1-.67.7,14.18,14.18,0,0,1-2.34-.17c.05-.07.13-.06.2-.07C23.34,7.88,23.24,7.85,23.15,7.93Z"/><path class="cls-13" d="M7.6,3c0-.21,0-.43,0-.63-.1-.58.13-.76.71-.73s.63.12.62.61c0,1.6,0,3.21,0,4.81,0,.32-.07.67.46.66.72,0,.89-.12.89-.71l0-1.83a23.23,23.23,0,0,0,0-3.44l0,0c1.27-.21,1.3-.19,1.3,1.06V7.16c0,.86-.24,1.13-1.09,1.24s-1.48.21-2.23.25-.78-.16-.71-.83C7.63,6.21,7.62,4.6,7.6,3Z"/><path class="cls-14" d="M13.6,5.23c0-.74,0-1.49,0-2.23,0-.37-.1-.53-.49-.5-.15,0-.46.12-.42-.19s0-.64.42-.65c.81,0,1.61,0,2.42,0,.42,0,.39.4.42.65s-.28.21-.43.2c-.51-.06-.55.21-.55.61,0,1.47,0,2.95,0,4.42,0,.81-.56.47-.91.55s-.49-.21-.48-.55C13.61,6.76,13.6,6,13.6,5.23Z"/><path class="cls-15" d="M7.6,3a17.76,17.76,0,0,1,0,4.83Q7.5,5.4,7.6,3Z"/><path class="cls-16" d="M10.29,1.73a8.85,8.85,0,0,1,0,3.44A32.91,32.91,0,0,1,10.29,1.73Z"/><path class="cls-17" d="M23.15,7.93a.72.72,0,0,1,.7,0l-.61.05h0Z"/><path class="cls-14" d="M18.85,18.18c0-.46.11-.76.11-1.06s0-.5.41-.48.37.28.34.57c-.08.68-.15,1.36-.23,2,0,.16.13.44-.19.44s-.51.1-.68-.25c-.23-.52-.54-1-.86-1.58a3.36,3.36,0,0,0-.23,1.38c0,.38-.26.26-.44.25s-.38,0-.33-.32c.11-.76.16-1.52.27-2.27,0-.15-.15-.48.18-.43s.71-.15.9.3A6.3,6.3,0,0,0,18.85,18.18Z"/><path class="cls-14" d="M30.26,15.63a.64.64,0,0,1-.51-.21q-.54-.51-1.05-1.05a.75.75,0,0,1,0-1.12,6.92,6.92,0,0,1,.6-.61.87.87,0,0,1,1.28,0c.2.18.38.38.57.56s.32.45.65.17c.17-.15.36,0,.49.16a.26.26,0,0,1-.07.4c-.55.36-.81,1-1.32,1.39C30.71,15.47,30.54,15.65,30.26,15.63Z"/><path class="cls-14" d="M25.53,15.38c.17,0,.15.25.23.38s.17.71.75.42.38-.59.15-.92-.23-.44.13-.6.38-.11.51.18c.31.67.66,1.33,1,2,.16.28.14.41-.15.57s-.39.08-.54-.19-.09-.73-.62-.52-.63.31-.26.86.12.55-.23.71-.28,0-.38-.16c-.37-.73-.77-1.44-1.16-2.16C24.88,15.74,25.21,15.37,25.53,15.38Z"/><path class="cls-18" d="M23.36,17a4.65,4.65,0,0,0-1.19.05c-.34.06-.45.23-.36.56s.11.52.18.78a.38.38,0,0,0,.52.3c.26-.05.5-.13.4-.47s.24-.29.42-.36.28.1.31.3c.16.86.05,1-.82,1.19a5.36,5.36,0,0,1-.68.06.72.72,0,0,1-.84-.67c-.06-.47-.16-.94-.23-1.41a.7.7,0,0,1,.6-.88l.67-.14C23.08,16.21,23.08,16.21,23.36,17Z"/><path class="cls-18" d="M12.78,16.75a6,6,0,0,0,.84-.91c.36-.56.68-.37,1.08-.06a15.34,15.34,0,0,0-1.95,2.09c-.18.24-.34.12-.49,0s-.58-.08-.49-.5a15.46,15.46,0,0,0,.5-2.63c0-.15.12-.22.23-.13s.58.08.49.49-.22,1-.32,1.56Z"/><path class="cls-18" d="M9,11.46l.63.65A18.6,18.6,0,0,0,8.1,13.47c-.22.19-.27.34,0,.56a5,5,0,0,0,1,.83c-.33.4-.62.51-1,0S7,14.13,7,13.66s.73-.81,1.13-1.22A3.59,3.59,0,0,0,9,11.46Z"/><path class="cls-19" d="M15.12,19c-.47,0-.59-.22-.45-.65.23-.73.47-1.45.65-2.19.09-.38.3-.21.46-.16s.43,0,.3.38c-.29.79-.5,1.6-.73,2.4C15.31,19,15.32,19.08,15.12,19Z"/><path class="cls-19" d="M9.86,16.41A3.08,3.08,0,0,1,9.4,16c-.16-.2.11-.25.18-.35.47-.63,1-1.23,1.42-1.87.18-.28.3-.17.42,0s.5.16.21.51c-.54.64-1,1.32-1.55,2C10,16.33,10,16.46,9.86,16.41Z"/><path class="cls-20" d="M31.68,16.46a8.4,8.4,0,0,1-2.44,1.91c-.16,0-.22,0-.22-.19,1-.52,1.73-1.3,2.64-1.9A.14.14,0,0,1,31.68,16.46Z"/><path class="cls-21" d="M8,16.69a7.56,7.56,0,0,1-1.73-1.75c0-.06.06-.14.15-.16A13.12,13.12,0,0,1,8,16.5.14.14,0,0,1,8,16.69Z"/><path class="cls-7" d="M14.05,20.13A7.82,7.82,0,0,1,12,19.32c0-.09.08-.1.14-.13.47-.05.8.31,1.22.41.2,0,.38.19.6.17a.36.36,0,0,1,.2.23A.24.24,0,0,1,14.05,20.13Z"/><path class="cls-22" d="M29,18.49a5.53,5.53,0,0,1-1.37.8l-.34.13c-.11,0-.17-.11-.12-.24l1.62-.87C28.89,18.34,29,18.38,29,18.49Z"/><path class="cls-23" d="M20.62,15.17H21a.19.19,0,0,1,.07.12.18.18,0,0,1-.06.13h0a13.05,13.05,0,0,1-2.5,0c-.43,0-.91.07-1.23-.36h.49c.2.12.44,0,.64.11h.4A6.67,6.67,0,0,0,20.62,15.17Z"/><path class="cls-24" d="M8,16.69l0-.19c.63.18.93.8,1.48,1.09a.17.17,0,0,1,0,.25A5.22,5.22,0,0,1,8,16.69Z"/><path class="cls-21" d="M12.1,19.19l-.14.13a6,6,0,0,1-1.48-.78.23.23,0,0,1,0-.28A9.5,9.5,0,0,1,12.1,19.19Z"/><path class="cls-25" d="M23.72,20.64a1.83,1.83,0,0,1-1.15.23c-.11-.07-.25,0-.35-.08a.31.31,0,0,1,.24-.23c.18-.13.41,0,.6-.1h.33C23.56,20.42,23.71,20.42,23.72,20.64Z"/><path class="cls-26" d="M34.55,13.33a4.15,4.15,0,0,1-.91,1.17.2.2,0,0,1-.16-.16l1-1.34C34.57,13.08,34.54,13.21,34.55,13.33Z"/><path class="cls-27" d="M18.58,20.78h2.36a.13.13,0,0,1,.16,0,.25.25,0,0,1,0,.17.18.18,0,0,1-.11.13.63.63,0,0,1-.27,0,17.53,17.53,0,0,0-2.05,0,.93.93,0,0,1-.37,0,.18.18,0,0,1-.1-.15.21.21,0,0,1,.07-.16A.3.3,0,0,1,18.58,20.78Z"/><path class="cls-28" d="M14.31,14a3.26,3.26,0,0,1,1,.45c0,.12,0,.18-.14.15-.42,0-.7-.28-1-.46C14.15,14,14.19,14,14.31,14Z"/><path class="cls-29" d="M22.89,14.81l1.4-.48a.17.17,0,0,1,0,.26,2.52,2.52,0,0,1-1,.35C23.15,14.87,23,15,22.89,14.81Z"/><path class="cls-30" d="M14.05,20.13V20c.41-.23.7.12,1,.22l.23,0a.2.2,0,0,1,0,.3A5.62,5.62,0,0,1,14.05,20.13Z"/><path class="cls-31" d="M16.82,20.8a3,3,0,0,1-1.18-.23c0-.13.18-.13.26-.22l1.31.3C17.12,20.82,17,20.78,16.82,20.8Z"/><path class="cls-32" d="M33,15.18c-.17.39-.36.75-.86.79,0-.42.42-.57.66-.82A.15.15,0,0,1,33,15.18Z"/><path class="cls-33" d="M4.62,12.87l.14-.24c.2,0,.11.18.21.23l.36.77a.16.16,0,0,1,0,.2A3.08,3.08,0,0,1,4.62,12.87Z"/><path class="cls-33" d="M27.05,19.52l-.91.45c-.07-.09-.23-.09-.25-.23a.11.11,0,0,1,0-.08,2.07,2.07,0,0,1,.6-.23l.2,0A.26.26,0,0,1,27.05,19.52Z"/><path class="cls-32" d="M18.48,15.4H21A7,7,0,0,1,18.48,15.4Z"/><path class="cls-34" d="M6.37,14.78l-.15.16a1.52,1.52,0,0,1-.58-.65c0-.15,0-.21.18-.18A2.53,2.53,0,0,1,6.37,14.78Z"/><path class="cls-35" d="M23.72,20.64l-.33-.19.8-.22c.07.07.18.11.22.21C24.19,20.52,24,20.75,23.72,20.64Z"/><path class="cls-3" d="M15.1,20.2c-.38.09-.65-.38-1-.22l-.14-.21A1.45,1.45,0,0,1,15.1,20.2Z"/><path class="cls-36" d="M24.84,14.21c.12-.33.45-.35.71-.47a.27.27,0,0,1,.17.14.1.1,0,0,1,0,.13l-.22.14a1.84,1.84,0,0,1-.4.19C25,14.35,24.86,14.34,24.84,14.21Z"/><path class="cls-37" d="M16.82,20.8l.39-.15.19,0c.27.19.64-.08.91.16v.07a.83.83,0,0,1-.62,0A2.19,2.19,0,0,1,16.82,20.8Z"/><path class="cls-38" d="M35,12.17l.13.26a1.07,1.07,0,0,1-.36.53.39.39,0,0,1-.2-.2A1.28,1.28,0,0,1,35,12.17Z"/><path class="cls-39" d="M16.13,14.7a2.07,2.07,0,0,1,.89.24c-.11.18-.31,0-.43.12a2.06,2.06,0,0,1-.81-.24C15.86,14.67,16,14.78,16.13,14.7Z"/><path class="cls-40" d="M14.31,14l-.14.14a1.19,1.19,0,0,1-.68-.36s-.05-.06,0-.09,0,0,0,0A1,1,0,0,1,14.31,14Z"/><path class="cls-41" d="M12.45,13c.35-.06.52.18.7.42a.12.12,0,0,1,0,.17c-.24,0-.32-.22-.51-.27s-.25-.09-.22-.26Z"/><path class="cls-28" d="M16.13,14.7l-.35.12a1.17,1.17,0,0,1-.58-.22l.14-.15A2.43,2.43,0,0,1,16.13,14.7Z"/><path class="cls-42" d="M21.08,20.91v-.08c.28-.24.64,0,.92-.16.12,0,.16.06.22.12a.23.23,0,0,1,.35.08l-.34.05a1.61,1.61,0,0,1-.58,0C21.46,20.93,21.26,21,21.08,20.91Z"/><path class="cls-18" d="M25.57,20.08a1.36,1.36,0,0,1-.7.23c-.09,0-.16-.09-.11-.2a2.9,2.9,0,0,1,.81-.24A.13.13,0,0,1,25.57,20.08Z"/><path class="cls-43" d="M24.84,14.21l.18,0c0,.21-.19.13-.28.21l-.44.12v-.26C24.46,14.24,24.61,14,24.84,14.21Z"/><path class="cls-7" d="M5.82,14.11l-.18.18a1,1,0,0,1-.35-.46l0-.2C5.63,13.66,5.69,13.92,5.82,14.11Z"/><path class="cls-44" d="M21.27,15.14A1.38,1.38,0,0,1,22,15c.15-.06.23,0,.29.15a1,1,0,0,1-.58.11.19.19,0,0,1-.15,0C21.43,15.28,21.31,15.27,21.27,15.14Z"/><path class="cls-45" d="M11.41,12.06l.5.46c-.29.11-.34.08-.57-.36A.14.14,0,0,1,11.41,12.06Z"/><path class="cls-46" d="M15.9,20.35a.31.31,0,0,1-.26.22l-.31,0v-.3Z"/><path class="cls-47" d="M22.25,15.18,22,15a.73.73,0,0,1,.48-.11.27.27,0,0,1,.39.14A.84.84,0,0,1,22.25,15.18Z"/><path class="cls-48" d="M24.76,20.11l.11.2a.55.55,0,0,1-.46.13.25.25,0,0,1-.22-.21C24.38,20.17,24.59,20.25,24.76,20.11Z"/><path class="cls-49" d="M33.48,14.34l.16.16-.47.47a.2.2,0,0,1,0-.27A.75.75,0,0,1,33.48,14.34Z"/><path class="cls-50" d="M9.44,17.84l0-.25c.26,0,.31.23.49.32a.19.19,0,0,1-.16.16Z"/><path class="cls-51" d="M22.83,15.06l-.39-.14a.66.66,0,0,1,.45-.11l.38.13A.7.7,0,0,1,22.83,15.06Z"/><path class="cls-52" d="M26.25,13.32c.18-.12.29-.36.56-.34A.12.12,0,0,1,27,13c.05.13,0,.21-.12.27s-.17.24-.36.2S26.29,13.43,26.25,13.32Z"/><path class="cls-53" d="M25.57,20.08v-.21c.1-.06.18-.16.32-.13s.22.09.25.23Z"/><path class="cls-54" d="M34.57,12.76a.23.23,0,0,1,.2.2l-.22.37L34.44,13Z"/><path class="cls-55" d="M18.31,20.83c-.3-.07-.64.05-.91-.16a4.26,4.26,0,0,1,1.18.11Z"/><path class="cls-56" d="M31.68,16.46l0-.18c.11-.18.21-.36.47-.32C32.18,16.3,31.94,16.39,31.68,16.46Z"/><path class="cls-41" d="M28.32,11.84a.49.49,0,0,1,.48-.47C28.79,11.68,28.65,11.85,28.32,11.84Z"/><path class="cls-57" d="M26.25,13.32l.23.11-.22.23a.26.26,0,0,1-.23.08c-.09,0-.15-.08-.12-.19Z"/><path class="cls-58" d="M27.29,12.76a.55.55,0,0,1,.62-.47l-.05.2c-.13.13-.24.28-.44.3Z"/><path class="cls-59" d="M27.05,19.52l-.33-.11.46-.23.12.24C27.25,19.52,27.14,19.5,27.05,19.52Z"/><path class="cls-29" d="M22,20.67c-.28.2-.62.09-.92.16l-.14,0A3.42,3.42,0,0,1,22,20.67Z"/><path class="cls-60" d="M12,12.63a.4.4,0,0,1,.46.36v0c-.12.08-.24.15-.33,0A.37.37,0,0,1,12,12.63Z"/><path class="cls-61" d="M10.49,18.26v.28a.59.59,0,0,1-.35-.25c-.06-.14,0-.19.14-.23S10.41,18.21,10.49,18.26Z"/><path class="cls-62" d="M10.27,18.06l-.14.23a.42.42,0,0,1-.34-.22l.16-.16Z"/><path class="cls-63" d="M33.16,14.7V15a.26.26,0,0,1-.19.21l-.2,0A1.27,1.27,0,0,1,33.16,14.7Z"/><path class="cls-2" d="M26.84,13.23,27,13c.08-.13.19-.12.3,0C27.18,13.13,27.12,13.35,26.84,13.23Z"/><path class="cls-2" d="M24.74,14.47l.28-.21.43-.11A.83.83,0,0,1,24.74,14.47Z"/><path class="cls-64" d="M29,18.49l-.21-.18.22-.13.22.19C29.2,18.5,29.09,18.45,29,18.49Z"/><path class="cls-60" d="M13.13,13.58l0-.17c.15,0,.32,0,.35.24v.13C13.33,13.78,13.24,13.66,13.13,13.58Z"/><path class="cls-65" d="M16.59,15.06c.11-.14.28-.09.43-.12l.08.11C16.94,15.28,16.76,15.1,16.59,15.06Z"/><path class="cls-2" d="M12.12,12.94l.33,0c0,.17.08.25.17.34A.49.49,0,0,1,12.12,12.94Z"/><path class="cls-66" d="M27.28,13,27,13l-.17,0a.45.45,0,0,1,.49-.23Z"/><path class="cls-67" d="M11.41,12.06l-.07.1c-.21,0-.26-.17-.3-.33A.36.36,0,0,1,11.41,12.06Z"/><path class="cls-68" d="M28,12.24a.36.36,0,0,1,.36-.41C28.39,12.11,28.15,12.15,28,12.24Z"/><path class="cls-2" d="M26.07,13.69l.19,0a.6.6,0,0,1-.59.35.3.3,0,0,0,0-.1C25.75,13.72,25.92,13.73,26.07,13.69Z"/><path class="cls-69" d="M29,11l.11.08a.3.3,0,0,1-.34.27A.41.41,0,0,1,29,11Z"/><path class="cls-32" d="M21.51,15.25l.16,0a1.4,1.4,0,0,1-.7.12.49.49,0,0,0,0-.12C21.13,15.15,21.32,15.24,21.51,15.25Z"/><path class="cls-8" d="M26.52,19.43a1.3,1.3,0,0,1-.6.23A.65.65,0,0,1,26.52,19.43Z"/><path class="cls-24" d="M10.27,11.14l.12-.16a.46.46,0,0,1,.22.4A.37.37,0,0,1,10.27,11.14Z"/><path class="cls-2" d="M27.42,12.79l.44-.3C27.77,12.67,27.69,12.88,27.42,12.79Z"/><path class="cls-3" d="M5,12.86l-.21-.23-.06-.21A.41.41,0,0,1,5,12.86Z"/><path class="cls-8" d="M23.06,20.46a1,1,0,0,1-.6.1A.79.79,0,0,1,23.06,20.46Z"/><path class="cls-32" d="M20.62,15.17a3.29,3.29,0,0,1-1.84,0Z"/><path class="cls-29" d="M26.07,13.69a.5.5,0,0,1-.36.22l-.16-.17a.63.63,0,0,1,.36-.19Z"/><path class="cls-32" d="M18.38,15.16a1,1,0,0,1-.64-.11A1.4,1.4,0,0,1,18.38,15.16Z"/><path class="cls-70" d="M21.51,15.25l-.55,0v-.13l.31,0Z"/><path class="cls-10" d="M20.84,21h.24a.16.16,0,0,1,.23,0,9,9,0,0,1-3.23,0,.18.18,0,0,1,.24,0h.35A11.24,11.24,0,0,1,20.84,21Z"/><path class="cls-55" d="M18.32,21l-.24,0-.38-.1.62,0Z"/><path class="cls-29" d="M21.31,21l-.23,0v-.1l.62,0V21l-.05,0Z"/><path class="cls-12" d="M21.64,21l.06-.08h.53A.77.77,0,0,1,21.64,21Z"/><path class="cls-71" d="M3.7,5.5c0-.76,0-1.52,0-2.29s.44-.53.83-.58.6.15.59.55c0,1.56,0,3.13,0,4.7,0,.65-.61.43-1,.5s-.4-.24-.4-.53V5.5Z"/><path class="cls-71" d="M33.84,4.17V3.48c0-.92.06-1,1-.84.25,0,.4.13.4.39,0,.82,0,1.64,0,2.46,0,.28-.16.39-.44.4-.9,0-1,0-1-.92v-.8Z"/><path class="cls-2" d="M28.67,5c0-.67,0-1.34,0-2s.31-.54.67-.53.75-.06.75.52c0,1.38,0,2.75,0,4.13,0,.32-.05.61-.46.54s-1,.14-.95-.59,0-1.38,0-2.07Z"/><path class="cls-15" d="M30.26,2.87V4.72h-.05V2.87Z"/><path class="cls-72" d="M28.46,4.24V2.9h.06V4.26Z"/><path class="cls-71" d="M18.33,4.77c0-.65,0-1.3,0-1.95,0-.33.11-.43.43-.43,1,0,1,0,1,1s0,2.1,0,3.15c0,.71-.41.62-.86.66s-.61-.18-.59-.63,0-1.19,0-1.78Z"/><path class="cls-15" d="M18.69,7.27h.67v.05h-.71Z"/><path class="cls-71" d="M24.89,4.92c0,.62,0,1.23,0,1.84,0,.35-.11.58-.49.51s-.89.18-.9-.49c0-1.3,0-2.6,0-3.9,0-.45.3-.47.63-.46s.76-.1.77.44,0,1.38,0,2.06Z"/><path class="cls-73" d="M26,7.34v-4h.06v4Z"/><path class="cls-73" d="M8.67,5.52V2h.06V5.5Z"/><path class="cls-74" d="M30.55,14.18c.07.19.5-.1.35.26a.55.55,0,0,1-.73.38,2.33,2.33,0,0,1-.9-.86c-.17-.29.07-.5.26-.69s.45-.27.66,0S31,13.68,30.55,14.18Z"/><path class="cls-54" d="M20.84,21a11.24,11.24,0,0,1-2.17,0A5.29,5.29,0,0,1,20.84,21Z"/></g></g></svg>