<svg xmlns="http://www.w3.org/2000/svg" viewBox="0 0 218.94 22.48"><g id="Layer_2" data-name="Layer 2"><g id="Layer_1-2" data-name="Layer 1"><path d="M0,22.11v-21H15V4.07H3.42v6.21H13.88v2.9H3.42v8.93Z"/><path d="M23.3,22.48a5.54,5.54,0,0,1-3.76-1.24c-1-.83-1.44-2.24-1.44-4.24V6h3.19V16.51A4.42,4.42,0,0,0,21.51,18a2.33,2.33,0,0,0,1.67,1.5,5.18,5.18,0,0,0,1.29.16,3.82,3.82,0,0,0,2-.54,4.1,4.1,0,0,0,1.45-1.5,4.35,4.35,0,0,0,.55-2.22V6h3.18V22.11h-2.6l-.27-2.29h-.22a5.51,5.51,0,0,1-1.37,1.47,6.18,6.18,0,0,1-1.76.88A6.81,6.81,0,0,1,23.3,22.48Z"/><path d="M35.75,22.11V6h2.63l.28,2.3h.21a5.91,5.91,0,0,1,1.27-1.47A5.32,5.32,0,0,1,41.76,6a6.11,6.11,0,0,1,1.94-.3,5.37,5.37,0,0,1,2.62.61A3.86,3.86,0,0,1,48,8.32h.22a6,6,0,0,1,1.28-1.45A5.31,5.31,0,0,1,51.18,6a6.49,6.49,0,0,1,2-.3,6.12,6.12,0,0,1,2.54.5,3.72,3.72,0,0,1,1.74,1.68A6.55,6.55,0,0,1,58.11,11V22.11H54.93V11.56a4.3,4.3,0,0,0-.22-1.51,2.29,2.29,0,0,0-.58-1,2.15,2.15,0,0,0-.88-.51,4.14,4.14,0,0,0-1.14-.15,3.13,3.13,0,0,0-1.8.54A3.9,3.9,0,0,0,49,10.46a4.86,4.86,0,0,0-.48,2.23v9.42H45.35V11.56a4.57,4.57,0,0,0-.21-1.51,2.4,2.4,0,0,0-.58-1,2.19,2.19,0,0,0-.89-.51,3.9,3.9,0,0,0-1.1-.15A3.27,3.27,0,0,0,40.74,9a3.8,3.8,0,0,0-1.32,1.48,4.73,4.73,0,0,0-.49,2.23v9.42Z"/><path d="M68.72,22.48a8.62,8.62,0,0,1-4.14-.9,5.8,5.8,0,0,1-2.53-2.77,11.42,11.42,0,0,1-.85-4.74,11.43,11.43,0,0,1,.85-4.76,5.77,5.77,0,0,1,2.54-2.75,8.81,8.81,0,0,1,4.19-.9,7.73,7.73,0,0,1,3.84.87A5.51,5.51,0,0,1,75,9.17a11,11,0,0,1,.79,4.47v1.22H64.47A8.45,8.45,0,0,0,65,17.72a3.17,3.17,0,0,0,1.39,1.68,4.67,4.67,0,0,0,2.37.54,5.21,5.21,0,0,0,1.59-.23,3.11,3.11,0,0,0,2-1.74,3.58,3.58,0,0,0,.27-1.43h3.12a6.12,6.12,0,0,1-.49,2.54,4.79,4.79,0,0,1-1.42,1.85,6.5,6.5,0,0,1-2.22,1.15A9.37,9.37,0,0,1,68.72,22.48Zm-4.19-9.94h7.89a6.7,6.7,0,0,0-.26-2,3.31,3.31,0,0,0-.75-1.33,2.77,2.77,0,0,0-1.16-.75,4.56,4.56,0,0,0-1.53-.23,4.73,4.73,0,0,0-2.19.46,3.09,3.09,0,0,0-1.39,1.42A6.45,6.45,0,0,0,64.53,12.54Z"/><path d="M91.93,22.48a8.62,8.62,0,0,1-4.14-.9,5.85,5.85,0,0,1-2.53-2.77,11.42,11.42,0,0,1-.85-4.74,11.43,11.43,0,0,1,.85-4.76A5.77,5.77,0,0,1,87.8,6.56,8.81,8.81,0,0,1,92,5.66a7.73,7.73,0,0,1,3.84.87,5.51,5.51,0,0,1,2.34,2.64A11,11,0,0,1,99,13.64v1.22H87.68a8.45,8.45,0,0,0,.52,2.86,3.22,3.22,0,0,0,1.39,1.68,4.67,4.67,0,0,0,2.37.54,5.21,5.21,0,0,0,1.59-.23,3.34,3.34,0,0,0,1.2-.67A3.16,3.16,0,0,0,95.51,18a3.58,3.58,0,0,0,.27-1.43H98.9a6.29,6.29,0,0,1-.48,2.54A4.91,4.91,0,0,1,97,20.93a6.54,6.54,0,0,1-2.21,1.15A9.48,9.48,0,0,1,91.93,22.48Zm-4.19-9.94h7.89a6.7,6.7,0,0,0-.26-2,3.31,3.31,0,0,0-.75-1.33,2.71,2.71,0,0,0-1.16-.75,4.56,4.56,0,0,0-1.53-.23,4.75,4.75,0,0,0-2.19.46,3.09,3.09,0,0,0-1.39,1.42A6.65,6.65,0,0,0,87.74,12.54Z"/><path d="M100.4,22.11l5.75-8.26L100.74,6h3.85l3.55,5.39h.18L111.9,6h3.64l-5.44,7.74,5.75,8.35H112l-3.91-5.9H108L104,22.11Z"/><path d="M122.27,22.48a3.75,3.75,0,0,1-2.16-.54,2.88,2.88,0,0,1-1.1-1.37,5.07,5.07,0,0,1-.32-1.79V8.65h-2V6h2.08l.58-4.49h2.54V6h2.91V8.65h-2.91v9.76a1.59,1.59,0,0,0,.31,1.07,1.22,1.22,0,0,0,1,.37h1.59V22a6.19,6.19,0,0,1-.75.23q-.45.11-.9.18A5.5,5.5,0,0,1,122.27,22.48Z"/><path d="M127.59,22.11V6h2.63l.28,2.6h.18a6.61,6.61,0,0,1,.72-1.43,3.4,3.4,0,0,1,1.16-1.1,3.35,3.35,0,0,1,1.76-.43,3.88,3.88,0,0,1,.87.09l.6.15v3h-1.07a4.42,4.42,0,0,0-1.73.31,3.17,3.17,0,0,0-1.26.9,3.67,3.67,0,0,0-.73,1.45,7.57,7.57,0,0,0-.23,1.93v8.62Z"/><path d="M141.93,22.48a7.67,7.67,0,0,1-1.65-.19,4.8,4.8,0,0,1-1.66-.67,3.55,3.55,0,0,1-1.27-1.36,4.59,4.59,0,0,1-.49-2.28,4.55,4.55,0,0,1,.76-2.72,5.13,5.13,0,0,1,2.14-1.68,11.94,11.94,0,0,1,3.29-.86,33.49,33.49,0,0,1,4.17-.24V10.89A3.48,3.48,0,0,0,147,9.48a1.89,1.89,0,0,0-.94-1,4.72,4.72,0,0,0-2-.33,4.94,4.94,0,0,0-2,.32,2.16,2.16,0,0,0-1,.79,2,2,0,0,0-.29,1v.46h-3.06a1.71,1.71,0,0,1,0-.31v-.37a3.73,3.73,0,0,1,.81-2.43,5,5,0,0,1,2.28-1.51,10.06,10.06,0,0,1,3.39-.52,9,9,0,0,1,3.48.59A4.58,4.58,0,0,1,149.7,8a4.84,4.84,0,0,1,.7,2.66v8.17a1,1,0,0,0,1,1.07h1.1V22a8.09,8.09,0,0,1-.91.3,4.55,4.55,0,0,1-1.29.16,3.07,3.07,0,0,1-1.39-.29,2.45,2.45,0,0,1-.92-.83,3.29,3.29,0,0,1-.47-1.21h-.18A6,6,0,0,1,146,21.36a6.27,6.27,0,0,1-1.79.83A8.39,8.39,0,0,1,141.93,22.48Zm.89-2.63a5.28,5.28,0,0,0,1.76-.29,4.12,4.12,0,0,0,1.39-.83,3.85,3.85,0,0,0,.92-1.28,4,4,0,0,0,.33-1.64V14.74a23.74,23.74,0,0,0-3.7.25,5.46,5.46,0,0,0-2.47.9,2.35,2.35,0,0,0-.59,3,1.87,1.87,0,0,0,.92.72A3.74,3.74,0,0,0,142.82,19.85Z"/><path d="M161.08,22.48a8.24,8.24,0,0,1-4-.9,5.66,5.66,0,0,1-2.43-2.77,12,12,0,0,1-.81-4.74,11.52,11.52,0,0,1,.83-4.73,5.69,5.69,0,0,1,2.46-2.76,8,8,0,0,1,4-.92,8.83,8.83,0,0,1,2.87.41,5.59,5.59,0,0,1,2.08,1.22,4.87,4.87,0,0,1,1.27,2,8.14,8.14,0,0,1,.42,2.72h-3.22a5.3,5.3,0,0,0-.36-2.11A2.63,2.63,0,0,0,163,8.67a4.14,4.14,0,0,0-2-.41,3.84,3.84,0,0,0-2.17.59,3.64,3.64,0,0,0-1.35,1.81,9,9,0,0,0-.46,3.16v.52a9.49,9.49,0,0,0,.44,3.11,3.6,3.6,0,0,0,1.35,1.83,4.09,4.09,0,0,0,2.31.6,3.91,3.91,0,0,0,2-.44,2.79,2.79,0,0,0,1.13-1.29,4.8,4.8,0,0,0,.39-2h3.09a7.62,7.62,0,0,1-.42,2.6,5.26,5.26,0,0,1-1.25,2A5.71,5.71,0,0,1,164,22,8.29,8.29,0,0,1,161.08,22.48Z"/><path d="M175,22.48a3.72,3.72,0,0,1-2.15-.54,2.83,2.83,0,0,1-1.1-1.37,4.86,4.86,0,0,1-.33-1.79V8.65h-2V6h2.08L172,1.53h2.54V6h2.9V8.65h-2.9v9.76a1.64,1.64,0,0,0,.3,1.07,1.22,1.22,0,0,0,1,.37h1.59V22a5.24,5.24,0,0,1-.75.23q-.43.11-.9.18A5.4,5.4,0,0,1,175,22.48Z"/><path d="M180.28,3.24V0h3.18V3.24Zm0,18.87V6h3.18V22.11Z"/><path d="M194.41,22.48a9.06,9.06,0,0,1-4.23-.9,5.79,5.79,0,0,1-2.6-2.77,11.24,11.24,0,0,1-.87-4.74,11.25,11.25,0,0,1,.87-4.76,5.75,5.75,0,0,1,2.6-2.75,10.51,10.51,0,0,1,8.51,0,5.77,5.77,0,0,1,2.59,2.75,11.25,11.25,0,0,1,.87,4.76,11.24,11.24,0,0,1-.87,4.74,5.82,5.82,0,0,1-2.59,2.77A9.11,9.11,0,0,1,194.41,22.48Zm0-2.63a4.74,4.74,0,0,0,2.51-.6,3.52,3.52,0,0,0,1.45-1.82,8.49,8.49,0,0,0,.48-3.09v-.55a8.57,8.57,0,0,0-.48-3.09,3.56,3.56,0,0,0-1.45-1.82,4.83,4.83,0,0,0-2.51-.59,4.73,4.73,0,0,0-2.47.59,3.57,3.57,0,0,0-1.46,1.82,8.81,8.81,0,0,0-.47,3.09v.55a8.73,8.73,0,0,0,.47,3.09,3.53,3.53,0,0,0,1.46,1.82A4.63,4.63,0,0,0,194.41,19.85Z"/><path d="M205.39,22.11V6H208l.28,2.3h.21a5.71,5.71,0,0,1,1.38-1.47A6.08,6.08,0,0,1,211.65,6a7.1,7.1,0,0,1,2.12-.3,6.46,6.46,0,0,1,2.69.53,4,4,0,0,1,1.82,1.73,6.67,6.67,0,0,1,.66,3.21v11h-3.18V11.62a4.48,4.48,0,0,0-.23-1.53,2.3,2.3,0,0,0-.66-1,2.62,2.62,0,0,0-1-.52,5.05,5.05,0,0,0-1.28-.15,3.8,3.8,0,0,0-2,.54,4,4,0,0,0-1.46,1.48,4.41,4.41,0,0,0-.55,2.23v9.42Z"/></g></g></svg>