<svg xmlns="http://www.w3.org/2000/svg" viewBox="0 0 87.33 24.12"><defs><style>.cls-1{fill:#fff;}</style></defs><g id="Layer_2" data-name="Layer 2"><g id="Layer_1-2" data-name="Layer 1"><rect class="cls-1" width="87.33" height="24.12" rx="3.34"/><path d="M14.08,9.56h1.33v7.06H14.08Zm.6,5.78h4.13v1.28H14.68Z"/><path d="M19.79,9.56h1.33v7.06H19.79Zm.48,0h4.25v1.28H20.27Zm0,2.91H24v1.28H20.27Zm0,2.87h4.25v1.28H20.27Z"/><path d="M27.75,9.56h.85l2.7,7.06H29.86L28.17,11.8l-1.69,4.82H25.05Zm-1.4,4.64h3.71v1.29H26.35Z"/><path d="M32.17,9.55H33.5v7.07H32.17Zm.53,2.94h2.46a.65.65,0,0,0,.36-.1.7.7,0,0,0,.24-.29,1.15,1.15,0,0,0,.09-.44,1,1,0,0,0-.09-.43.54.54,0,0,0-.24-.29.61.61,0,0,0-.36-.11H32.7V9.55h2.57a2,2,0,0,1,1,.26,2,2,0,0,1,.69.74,2.45,2.45,0,0,1,.24,1.11A2.39,2.39,0,0,1,37,12.77a1.92,1.92,0,0,1-.69.75,2,2,0,0,1-1,.26H32.7Zm1.49,1.07,1.42-.22,1.9,3.28H35.9Z"/><path d="M38.66,9.56h1.62L42.91,15l-.12.12V9.56h1.28v7H42.43l-2.62-5.32.12-.13v5.45H38.66Z"/><path d="M52.74,9.56h1.75v7.06H53.28V11.14l0,.31L52,15.83H50.8l-1.35-4.29,0-.4v5.48H48.29V9.56h1.76l1.34,4.76Z"/><path d="M57.12,16.37a2.25,2.25,0,0,1-.9-.91,2.89,2.89,0,0,1-.32-1.37v-2a2.86,2.86,0,0,1,.32-1.37,2.19,2.19,0,0,1,.9-.91,2.77,2.77,0,0,1,1.36-.33,2.7,2.7,0,0,1,1.35.33,2.28,2.28,0,0,1,.91.91,2.86,2.86,0,0,1,.32,1.37v2a2.89,2.89,0,0,1-.32,1.37,2.34,2.34,0,0,1-.91.91,2.81,2.81,0,0,1-1.35.32A2.87,2.87,0,0,1,57.12,16.37Zm2-1.16a1.05,1.05,0,0,0,.42-.44,1.33,1.33,0,0,0,.15-.65V12.05a1.38,1.38,0,0,0-.15-.65,1,1,0,0,0-.42-.43,1.32,1.32,0,0,0-1.26,0,.92.92,0,0,0-.42.43,1.38,1.38,0,0,0-.15.65v2.07a1.33,1.33,0,0,0,.15.65.94.94,0,0,0,.42.44,1.4,1.4,0,0,0,1.26,0Z"/><path d="M62.37,9.55H63.7v7.07H62.37Zm.53,2.94h2.46a.65.65,0,0,0,.36-.1A.7.7,0,0,0,66,12.1a1.37,1.37,0,0,0,.09-.44,1,1,0,0,0-.09-.43.66.66,0,0,0-.6-.4H62.9V9.55h2.56a2,2,0,0,1,1,.26,1.87,1.87,0,0,1,.68.74,2.45,2.45,0,0,1,.25,1.11,2.39,2.39,0,0,1-.25,1.11,1.79,1.79,0,0,1-.69.75,2,2,0,0,1-1,.26H62.9Zm1.48,1.07,1.43-.22,1.9,3.28H66.1Z"/><path d="M68.85,9.56h1.33v7.06H68.85Zm.48,0h4.25v1.28H69.33Zm0,2.91h3.72v1.28H69.33Zm0,2.87h4.25v1.28H69.33Z"/></g></g></svg>