<svg xmlns="http://www.w3.org/2000/svg" width="151.54" height="43.04" viewBox="0 0 151.54 43.04"><defs><style>.cls-1{fill:#f3f2e9;}</style></defs><g id="Layer_2" data-name="Layer 2"><g id="Livello_1" data-name="Livello 1"><path class="cls-1" d="M19.74,5.2h-.13l-6.4,13.86h-.75L10.77,4.37A3,3,0,0,0,10.3,3a1.37,1.37,0,0,0-.74-.6,2,2,0,0,1-.65-.26.53.53,0,0,1-.25-.53l0-.26h5.77l-.05.29a.64.64,0,0,1-.37.49,2.19,2.19,0,0,1-.63.2.7.7,0,0,0-.54.44,2.17,2.17,0,0,0-.13,1.18l.76,6.47a46.67,46.67,0,0,1,.36,5.36H14l6.43-14h.7l1.33,8.84c.19,1.21.39,2.85.62,4.91h.1l5-11.33a2.08,2.08,0,0,0,.25-1.33.79.79,0,0,0-.51-.55,5.1,5.1,0,0,1-.69-.24c-.22-.1-.31-.24-.27-.43l.05-.34h5l-.05.34a.55.55,0,0,1-.36.41,5.1,5.1,0,0,1-.72.23,2.21,2.21,0,0,0-.94.58,4.33,4.33,0,0,0-.94,1.43L22.44,19h-.75l-1.28-8.25C20.05,8.51,19.82,6.66,19.74,5.2Z"/><path class="cls-1" d="M30.06,18.82l3-15.93a1.38,1.38,0,0,0,0-.93,1.2,1.2,0,0,0-.76-.45l-.25-.07-.22-.05-.18,0a.64.64,0,0,1-.15-.05.38.38,0,0,0-.11-.05l-.11-.05-.06-.07a.1.1,0,0,1,0-.08s0-.06,0-.1a.17.17,0,0,1,0-.12l.05-.26,4-.57.07.1L33.88,7.67q-.5,2.49-1.14,4.71h.1a9.75,9.75,0,0,1,2.38-3.81,4.29,4.29,0,0,1,2.87-1.42q2.71,0,2.71,3.64a10.65,10.65,0,0,1-.73,3.74,9.17,9.17,0,0,1-2,3.25,3.82,3.82,0,0,1-2.73,1.33,1.81,1.81,0,0,1-1.27-.4,1.32,1.32,0,0,1-.45-1,1.1,1.1,0,0,1,.28-.75.93.93,0,0,1,.74-.32,1.06,1.06,0,0,1,.86.42,2,2,0,0,1,.33,1.25v.21c1-.45,1.8-1.56,2.33-3.33a16.82,16.82,0,0,0,.79-4.79q0-1.95-1.35-1.95c-1,0-2,.72-3,2.16a12.7,12.7,0,0,0-2.07,5.15l-.57,3.09Z"/><path class="cls-1" d="M46.33,19.11a3.53,3.53,0,0,1-2.72-1.05,4.2,4.2,0,0,1-1-3A9.72,9.72,0,0,1,43,12.36a10.08,10.08,0,0,1,1.14-2.53,5.74,5.74,0,0,1,2.06-1.94,5.82,5.82,0,0,1,2.93-.74,3.08,3.08,0,0,1,2.06.64A2.21,2.21,0,0,1,52,9.57c0,1.07-.7,2-2.09,2.78a16.73,16.73,0,0,1-5.27,1.72,3.85,3.85,0,0,0,.45,2.8,2.37,2.37,0,0,0,2.1,1A6,6,0,0,0,50.91,16l.42.39A6.5,6.5,0,0,1,46.33,19.11Zm-1.66-5.85A8,8,0,0,0,48.34,12,3,3,0,0,0,50,9.49a1.58,1.58,0,0,0-.35-1.1A1.19,1.19,0,0,0,48.67,8a3.23,3.23,0,0,0-2.41,1.48A8,8,0,0,0,44.67,13.26Z"/><path class="cls-1" d="M60.43,8.48C59.8,8.79,59,10,58,12a24.87,24.87,0,0,0-2.08,6l-.18.88H54L56,8.58l-2.32,1.61-.39-.44C54.76,8,55.87,7.1,56.58,7.1s1.14.41,1.14,1.22a23.78,23.78,0,0,1-1.27,5.56h.1a24.93,24.93,0,0,1,1.24-3.05,12.32,12.32,0,0,1,1.14-2A5.09,5.09,0,0,1,60,7.8a3.08,3.08,0,0,1,.9-.48,3.13,3.13,0,0,1,.77-.09,1.65,1.65,0,0,1,1,.31,1,1,0,0,1,.43.81,1,1,0,0,1-.39.83,1.41,1.41,0,0,1-.91.31A1.21,1.21,0,0,1,60.43,8.48Z"/><path class="cls-1" d="M65.89,19.11a3.54,3.54,0,0,1-2.73-1.05,4.2,4.2,0,0,1-1-3,9.72,9.72,0,0,1,.39-2.72A10.08,10.08,0,0,1,63.7,9.83a5.74,5.74,0,0,1,2.06-1.94,5.82,5.82,0,0,1,2.93-.74,3.06,3.06,0,0,1,2.06.64,2.21,2.21,0,0,1,.75,1.78c0,1.07-.7,2-2.09,2.78a16.73,16.73,0,0,1-5.27,1.72,3.85,3.85,0,0,0,.45,2.8,2.37,2.37,0,0,0,2.1,1A6,6,0,0,0,70.46,16l.42.39A6.5,6.5,0,0,1,65.89,19.11Zm-1.67-5.85A8,8,0,0,0,67.89,12,3,3,0,0,0,69.5,9.49a1.58,1.58,0,0,0-.35-1.1A1.16,1.16,0,0,0,68.23,8a3.23,3.23,0,0,0-2.42,1.48A8,8,0,0,0,64.22,13.26Z"/><path class="cls-1" d="M78.57,17.08l1.69-8.79H78.44l.13-.62a4,4,0,0,0,2.29-1,6.77,6.77,0,0,0,1.43-2.47h.52l-.65,3.25H85l-.16.8H82l-1.79,9.26,2.63-1.72.33.45a14.3,14.3,0,0,1-2.15,2,3.64,3.64,0,0,1-1.61.84c-.46,0-.74-.12-.86-.36A3.45,3.45,0,0,1,78.57,17.08Z"/><path class="cls-1" d="M84.53,18.82l3-15.93a1.44,1.44,0,0,0,0-.93,1.2,1.2,0,0,0-.76-.45l-.25-.07-.22-.05-.18,0A.64.64,0,0,1,86,1.3a.38.38,0,0,0-.11-.05L85.8,1.2l-.06-.07a.1.1,0,0,1,0-.08.58.58,0,0,0,0-.1.25.25,0,0,1,0-.12l0-.26,4-.57.08.1L88.35,7.67q-.5,2.49-1.14,4.71h.1a9.75,9.75,0,0,1,2.38-3.81,4.29,4.29,0,0,1,2.87-1.42c1.8,0,2.71,1.21,2.71,3.64a10.65,10.65,0,0,1-.73,3.74,9.17,9.17,0,0,1-2,3.25,3.82,3.82,0,0,1-2.73,1.33,1.79,1.79,0,0,1-1.27-.4,1.32,1.32,0,0,1-.45-1,1.06,1.06,0,0,1,.28-.75.93.93,0,0,1,.74-.32,1.07,1.07,0,0,1,.86.42,2,2,0,0,1,.33,1.25v.21c1-.45,1.8-1.56,2.33-3.33a16.82,16.82,0,0,0,.79-4.79q0-1.95-1.35-1.95c-1,0-2,.72-3.05,2.16a12.7,12.7,0,0,0-2.07,5.15l-.57,3.09Z"/><path class="cls-1" d="M100.8,19.11a3.57,3.57,0,0,1-2.73-1.05,4.2,4.2,0,0,1-1-3,9.72,9.72,0,0,1,.39-2.72,10.11,10.11,0,0,1,1.15-2.53,5.79,5.79,0,0,1,2-1.94,5.89,5.89,0,0,1,2.94-.74,3.08,3.08,0,0,1,2.06.64,2.21,2.21,0,0,1,.75,1.78c0,1.07-.7,2-2.09,2.78a16.73,16.73,0,0,1-5.27,1.72,3.9,3.9,0,0,0,.44,2.8,2.39,2.39,0,0,0,2.11,1A6,6,0,0,0,105.38,16l.41.39A6.48,6.48,0,0,1,100.8,19.11Zm-1.66-5.85A7.88,7.88,0,0,0,102.8,12a3,3,0,0,0,1.62-2.48,1.58,1.58,0,0,0-.35-1.1,1.2,1.2,0,0,0-.93-.38,3.26,3.26,0,0,0-2.42,1.48A8.14,8.14,0,0,0,99.14,13.26Z"/><path class="cls-1" d="M116,19.11a4.53,4.53,0,0,1-2.46-.6,1.8,1.8,0,0,1-1-1.56,1.15,1.15,0,0,1,.31-.89,1,1,0,0,1,.7-.3c.7,0,1,.38,1,1.14a1.73,1.73,0,0,1-.41,1.2,4.45,4.45,0,0,0,1.84.33,3,3,0,0,0,2.07-.68,2.16,2.16,0,0,0,.77-1.66,1.75,1.75,0,0,0-.5-1.17,5,5,0,0,0-1.19-1c-.47-.27-.94-.56-1.42-.86A4.46,4.46,0,0,1,114.58,12a2.23,2.23,0,0,1-.49-1.4,3.09,3.09,0,0,1,1.17-2.53,4.49,4.49,0,0,1,2.91-.95,4.11,4.11,0,0,1,2.25.6,1.83,1.83,0,0,1,1,1.61,1.11,1.11,0,0,1-.31.82,1,1,0,0,1-.71.3,1,1,0,0,1-.79-.34,1.1,1.1,0,0,1-.3-.75,2,2,0,0,1,.44-1.25,3.42,3.42,0,0,0-1.37-.26,2.66,2.66,0,0,0-1.71.56,1.88,1.88,0,0,0-.71,1.57,1.55,1.55,0,0,0,.49,1.09,5.88,5.88,0,0,0,1.18.94l1.4.87a4.8,4.8,0,0,1,1.19,1.1,2.33,2.33,0,0,1,.5,1.43A3.26,3.26,0,0,1,119.33,18,5.12,5.12,0,0,1,116,19.11Z"/><path class="cls-1" d="M126.52,19.11a3.57,3.57,0,0,1-2.73-1.05,4.2,4.2,0,0,1-1-3,9.72,9.72,0,0,1,.39-2.72,10.08,10.08,0,0,1,1.14-2.53,5.74,5.74,0,0,1,2.06-1.94,5.82,5.82,0,0,1,2.93-.74,3.06,3.06,0,0,1,2.06.64,2.21,2.21,0,0,1,.75,1.78c0,1.07-.7,2-2.09,2.78a16.73,16.73,0,0,1-5.27,1.72,3.85,3.85,0,0,0,.45,2.8,2.37,2.37,0,0,0,2.1,1A6,6,0,0,0,131.09,16l.42.39A6.5,6.5,0,0,1,126.52,19.11Zm-1.67-5.85A8,8,0,0,0,128.52,12a3,3,0,0,0,1.61-2.48,1.58,1.58,0,0,0-.35-1.1,1.16,1.16,0,0,0-.92-.38,3.25,3.25,0,0,0-2.42,1.48A8,8,0,0,0,124.85,13.26Z"/><path class="cls-1" d="M136.6,19.11c-2,0-3-1.33-3-4a9.62,9.62,0,0,1,.41-2.73,9.85,9.85,0,0,1,1.14-2.56,6,6,0,0,1,1.94-1.93,4.89,4.89,0,0,1,2.62-.74,4.67,4.67,0,0,1,3.25,1.27l1.35-1.22h.52a72.48,72.48,0,0,0-2.1,10.38l2.23-1.38.34.44c-1.54,1.63-2.63,2.44-3.27,2.44a1,1,0,0,1-1.1-1.09,12,12,0,0,1,.52-3.14h-.1Q139.32,19.11,136.6,19.11Zm.63-1.17c.86,0,1.82-.76,2.86-2.29a13.78,13.78,0,0,0,2.13-5.25l.23-1.22A3.59,3.59,0,0,0,140,8.06a3.7,3.7,0,0,0-3.16,2.11,9.55,9.55,0,0,0-1.29,5.09C135.51,17.05,136.08,17.94,137.23,17.94Z"/><path class="cls-1" d="M6.71,42.82C6.58,42.52.15,28.81,0,28.5H2.09c.11.26,5.48,12.06,5.61,12.32.11-.26,5.22-12.06,5.35-12.32h2.07l5.54,12.32c.11-.24,5.22-12.06,5.33-12.32h2L21.67,42.82h-2c0-.06-.39-.85-.9-2L15,32.35c-.5-1.17-.88-2-.9-2L8.69,42.82Z"/><path class="cls-1" d="M31,28.5h1.87v5.88h13V28.5h1.91V42.82H45.94V36h-13v6.82H31Z"/><path class="cls-1" d="M52.67,28.5h1.89V42.82H52.67Z"/><path class="cls-1" d="M66.77,41.42c4.16,0,5.66-1.19,5.66-2.6,0-4.27-12.81-1.32-12.81-6.54,0-2.59,2.88-4,6.91-4a13.76,13.76,0,0,1,7.41,1.82l-.13.25-.59,1-.13.24a13.4,13.4,0,0,0-6.67-1.67c-3.17,0-4.91.9-4.91,2.2,0,3.39,12.9.75,12.9,6.65C74.41,41,72.14,43,66.77,43a17.14,17.14,0,0,1-8-1.91l.92-1.56A15.15,15.15,0,0,0,66.77,41.42Z"/><path class="cls-1" d="M78.76,28.5H89.63c2.82,0,5.19,1.61,5.19,4.55s-2.35,4.67-5.32,4.67h-9v5.1H78.76Zm10.82,7.61c2,0,3.39-1.18,3.39-3s-1.43-3-3.43-3h-9v6Z"/><path class="cls-1" d="M98.78,28.5h14.06v1.61H100.65V34.4h9.24V36h-9.24v5.14H113.1v1.65H98.78Z"/><path class="cls-1" d="M116.38,28.5h11.2c2.88,0,5,1.54,5,4.47a4.71,4.71,0,0,1-4.18,4.35l4.29,5.5H130.5l-4.26-5.43h-8v5.43h-1.85Zm11.09,7.33c2.07,0,3.3-1.15,3.3-2.91s-1.17-2.84-3.28-2.84h-9.26v5.75Z"/><path class="cls-1" d="M143.9,41.42c4.16,0,5.66-1.19,5.66-2.6,0-4.27-12.81-1.32-12.81-6.54,0-2.59,2.88-4,6.91-4a13.81,13.81,0,0,1,7.42,1.82s-.07.11-.14.25l-.59,1-.13.24a13.4,13.4,0,0,0-6.67-1.67c-3.17,0-4.91.9-4.91,2.2,0,3.39,12.9.75,12.9,6.65,0,2.17-2.27,4.26-7.64,4.26a17.17,17.17,0,0,1-8.05-1.91l.92-1.56A15.15,15.15,0,0,0,143.9,41.42Z"/></g></g></svg>