<svg xmlns="http://www.w3.org/2000/svg" viewBox="0 0 14.46 15.43"><defs><style>.cls-1{fill:#18104f;}.cls-2{fill:#e089b7;}.cls-3{fill:#aa2d2d;}.cls-4{fill:#fff;}.cls-5{fill:#f26a60;}</style></defs><g id="Layer_2" data-name="Layer 2"><g id="Layer_1-2" data-name="Layer 1"><path class="cls-1" d="M9.59,11.21a3.21,3.21,0,0,1,1.31,0,.18.18,0,1,1-.07.35,2.74,2.74,0,0,0-1.76.21A2.79,2.79,0,0,0,7.81,13a.18.18,0,0,1-.23.08.18.18,0,0,1-.08-.24,3.11,3.11,0,0,1,1.41-1.41A2.9,2.9,0,0,1,9.59,11.21Z"/><path class="cls-1" d="M10.87,4.63a1.31,1.31,0,1,0,1-1.56A1.31,1.31,0,0,0,10.87,4.63Z"/><path class="cls-1" d="M1.33,6.67a1.31,1.31,0,1,0,1-1.55A1.31,1.31,0,0,0,1.33,6.67Z"/><path class="cls-1" d="M13.83,1.47l0,0a.22.22,0,0,0,.06-.32A2.59,2.59,0,0,0,12.35.06a2.63,2.63,0,0,0-1.88.3.23.23,0,1,0,.24.4A2.13,2.13,0,0,1,12.25.52a2.19,2.19,0,0,1,1.3.86A.24.24,0,0,0,13.83,1.47Z"/><path class="cls-1" d="M.32,3.82a.25.25,0,0,0,.1-.08,2.36,2.36,0,0,1,2.11-.88.24.24,0,0,0,.06-.47A2.86,2.86,0,0,0,.05,3.46a.23.23,0,0,0,0,.32A.22.22,0,0,0,.32,3.82Z"/><path class="cls-2" d="M14,12.41a4.88,4.88,0,0,0-1.71-1.12,6.32,6.32,0,0,0-2.14-.39,4.83,4.83,0,0,0-2.19.44,2.36,2.36,0,0,0-.86.67,1.52,1.52,0,0,0-.28.82v.11l0,0c0,.13,0,.26.05.39s0,.22.08.33l0,.11A4,4,0,0,0,8,15a2.14,2.14,0,0,0,1,.47l.35-.11c.39-.14.76-.35,1.14-.51a11.06,11.06,0,0,1,1.22-.43c.42-.13.84-.24,1.26-.35l.56-.14a2.28,2.28,0,0,0,.44-.15,1,1,0,0,0,.38-.24.41.41,0,0,0,.09-.37A1.58,1.58,0,0,0,14,12.41Z"/><path class="cls-1" d="M13.14,11.86a4.51,4.51,0,0,0-1.83-.74,5.06,5.06,0,0,0-2.05.06,4.12,4.12,0,0,0-1.67.74A1.4,1.4,0,0,0,7,13.38a1.38,1.38,0,0,0,.25.48,3,3,0,0,0,.45.61,3.55,3.55,0,0,0,.77.68,1.39,1.39,0,0,0,.85.16,2.56,2.56,0,0,0,1-.51,3.52,3.52,0,0,1,1.2-.54c.4-.09.81-.16,1.21-.26s1.17-.2,1.33-.72S13.57,12.16,13.14,11.86Z"/><path class="cls-3" d="M12.87,13.84a10.69,10.69,0,0,0-2.07.54c-.38.18-.7.47-1.08.66a1.24,1.24,0,0,1-1.05.05,1.31,1.31,0,0,1-.36-.21,2.5,2.5,0,0,1-.55-.48,2.79,2.79,0,0,1-.61-.92,1,1,0,0,1-.08-.62,1.27,1.27,0,0,1,.39-.67,3.7,3.7,0,0,1,1.5-.8,5.13,5.13,0,0,1,1.87-.2,4.34,4.34,0,0,1,1.82.52,5.63,5.63,0,0,1,.72.48,1.74,1.74,0,0,1,.58.71C14.17,13.56,13.34,13.73,12.87,13.84Z"/><path class="cls-4" d="M8.22,12.29a2.1,2.1,0,0,0,1-.17,4.68,4.68,0,0,0,1-.53c.18-.13.35-.27.52-.41A5.1,5.1,0,0,0,9,11.39a4.07,4.07,0,0,0-1.35.67A1.23,1.23,0,0,0,8.22,12.29Z"/><path class="cls-4" d="M10.25,13.5a1.34,1.34,0,0,0-.7.38,1.59,1.59,0,0,0-.13.13,1,1,0,0,1-.07.15,7.13,7.13,0,0,0-.26.78,2.1,2.1,0,0,0-.06.24A1.5,1.5,0,0,0,9.72,15c.38-.19.7-.48,1.08-.66a3,3,0,0,1,.54-.2C11.09,13.81,10.71,13.43,10.25,13.5Z"/><path class="cls-5" d="M13.22,12.07h0a4,4,0,0,0-2,1.13,4.55,4.55,0,0,0-1.07,1.6,5.06,5.06,0,0,1,.7-.43,10.69,10.69,0,0,1,2.07-.54c.47-.11,1.3-.28,1.08-.94a1.74,1.74,0,0,0-.58-.71Z"/></g></g></svg>