<svg xmlns="http://www.w3.org/2000/svg" viewBox="0 0 85.71 97.45"><defs><style>.cls-1{fill:#e4ebff;}.cls-2{fill:#18104f;}.cls-3{fill:#d15aa6;}.cls-4{fill:#28263f;}.cls-5{fill:#eaa7ca;}.cls-6{fill:#e089b7;}.cls-7{fill:#004393;}.cls-8{fill:#ffa4cf;}</style></defs><g id="Layer_2" data-name="Layer 2"><g id="Layer_1-2" data-name="Layer 1"><path class="cls-1" d="M80.64,45.53l-.23-.4A24.91,24.91,0,0,0,66.82,33.6a25.41,25.41,0,0,0-7.14-1.28,26,26,0,0,0-11.55,2.62c-7.38,3.34-14.73,9.38-20.86,15.42-.21,1.56-.47,3.11-.77,4.65-1.67,8.74,4.73,17.86,4.73,17.86l-6.3,24.58,4.32-.13H75.82s7.65-3.58,9.63-24.7C86.41,62.4,84.72,52.8,80.64,45.53Z" transform="translate(0 0)"/><path class="cls-2" d="M64.67,36.2a.23.23,0,0,0-.25-.18.22.22,0,0,0-.18.25l.87,6.16-4.35-.91a.21.21,0,0,0-.22.09.23.23,0,0,0,0,.24L63.78,46c-1.69.5-12.64,3.93-17.41,10.27a.23.23,0,0,0,0,.16.22.22,0,0,0,.08.13l.06,0h.07a.19.19,0,0,0,.16-.09c5.09-6.77,17.37-10.17,17.49-10.2a.2.2,0,0,0,.14-.14.22.22,0,0,0,0-.19L61.23,42l4.1.86a.2.2,0,0,0,.15,0,.18.18,0,0,0,.09-.13v0a.25.25,0,0,0,0-.08Z" transform="translate(0 0)"/><path class="cls-2" d="M47,40.9a.21.21,0,0,0,.2-.12.19.19,0,0,0-.06-.22L43.75,38l5.43-2.7a.2.2,0,0,0,.11-.13.2.2,0,0,0,0-.15h0a.23.23,0,0,0-.29-.08L43.3,37.71s0,0-.06,0l0,0a.2.2,0,0,0-.06.14.23.23,0,0,0,.08.14l3.13,2.44-5-.07h0a.21.21,0,0,0-.17.08.19.19,0,0,0,0,.19c0,.08,3.29,7.51,3.17,14.08v.08h.08c.1,0,.12-.13.14-.27a.68.68,0,0,1,0-.15h.05v-.06c.09-5.91-2.36-12.11-3-13.54Z" transform="translate(0 0)"/><path class="cls-2" d="M42.05,71.66c.48-2.68,1.7-8.84,2.25-11.51.3-1.47.61-2.93.92-4.39s.62-2.93.94-4.39c.05-.2-.26-.31-.31-.1-.32,1.29-.66,2.58-1,3.88s-.58,2.6-.85,3.91c-.55,2.6-1.06,5.22-1.53,7.84-.07.37-.69,3.81-.76,4.18C41.91,71.14,41.9,71.61,42.05,71.66Z" transform="translate(0 0)"/><path class="cls-3" d="M66.82,33.6,55.23,46.83l-.35.39L44.2,59.41c-.37-2.1.71-8.66,1.88-14.68.05-.23.1-.47.14-.7.73-3.7,1.48-7.12,1.91-9.09a26,26,0,0,1,11.55-2.62A25.41,25.41,0,0,1,66.82,33.6Z" transform="translate(0 0)"/><path class="cls-4" d="M58.49,15.1A12.79,12.79,0,0,0,60,13.49a4,4,0,0,1,1.76-1.28,1.75,1.75,0,0,1,2,.62,6.81,6.81,0,0,1,9.66,6.35,5.45,5.45,0,0,1,2.65,4,8.47,8.47,0,0,1-.81,4.79,8.58,8.58,0,0,1-3.8,4.17,5.61,5.61,0,0,1-5.5-.19,4.35,4.35,0,0,1-4.26,1.72,7.86,7.86,0,0,1-4.21-2.26,12.11,12.11,0,0,1-3.8-7.58,9.87,9.87,0,0,1,2.83-7.89Z" transform="translate(0 0)"/><path class="cls-5" d="M33.11,15.37a41,41,0,0,0,1.43,6c.68,2.24,1.41,4.47,2,6.73a6.15,6.15,0,0,0,7.25,4.42L46.4,32l0,.06.54,2.7.21,1,.9,4.48a5.56,5.56,0,0,0,3.36.86,10.28,10.28,0,0,0,7.26-3l4-3.89L59.06,23.9c3.63-1.29,5.36-5.38,3-8.17-1.55-1.82-3.38-1.06-4.63-.12A12.52,12.52,0,0,0,34.2,7.22,13.22,13.22,0,0,0,33.11,15.37Z" transform="translate(0 0)"/><path class="cls-4" d="M62.3,15.84a2.38,2.38,0,0,0-1.38-.7,4.37,4.37,0,0,0-3.4,1,6.09,6.09,0,0,0-2,3,3.58,3.58,0,0,1-1.39-2.88,13.53,13.53,0,0,1-6.82-6.39C46,7,44.55,3.46,45.37.39c2.21,0,5.55-.67,7.72-.25s4.28,2,5.88,3.55a11.27,11.27,0,0,1,3,5.6A27.05,27.05,0,0,1,62.3,15.84Z" transform="translate(0 0)"/><path class="cls-4" d="M44.19,5.06A22,22,0,0,0,43,8.52a4.84,4.84,0,0,1-2.1,2.89,2,2,0,0,1-1,.26,1.75,1.75,0,0,1-1.59-1.28,6.09,6.09,0,0,1-2.42,2.7,3.33,3.33,0,0,1-3.47.22,3.46,3.46,0,0,1-1.28-2.61,2.25,2.25,0,0,1-2.83-1.58,3.32,3.32,0,0,1,1.22-3.27,6.71,6.71,0,0,1,3.38-1.32A3.46,3.46,0,0,1,34.5,1.28,7.09,7.09,0,0,1,38.08.2c2.73-.22,5.48.26,8.21.18,1.16,0,2.32-.17,3.48-.16A1.78,1.78,0,0,1,51,.58a1.91,1.91,0,0,1,.22,1.75,1.54,1.54,0,0,1-.37.83A1.39,1.39,0,0,1,50,3.4c-1.05,0-2.12-.39-3.14-.34A3.49,3.49,0,0,0,44.19,5.06Z" transform="translate(0 0)"/><path class="cls-6" d="M47,34.77c6.72-2.15,7.84-5.41,7.84-5.41a36.5,36.5,0,0,1-8.38,2.71Z" transform="translate(0 0)"/><path class="cls-2" d="M58.36,21.93h0a.18.18,0,0,0,.1-.23,6.63,6.63,0,0,1-.19-3.94,4.3,4.3,0,0,1,.94-1.86A2.55,2.55,0,0,1,61,15a.18.18,0,0,0,0-.36,3,3,0,0,0-2,1,4.72,4.72,0,0,0-1,2,6.92,6.92,0,0,0,.21,4.15A.17.17,0,0,0,58.36,21.93Z" transform="translate(0 0)"/><path class="cls-2" d="M42.45,23.83a.32.32,0,0,0,.14-.14.24.24,0,0,0-.14-.3,2.45,2.45,0,0,1-1-.71,4.79,4.79,0,0,1-.14-2,10.43,10.43,0,0,0,0-1.24,12.7,12.7,0,0,0-1.35-3,.24.24,0,0,0-.32-.08.23.23,0,0,0-.08.32,11.92,11.92,0,0,1,1.28,2.85,9.29,9.29,0,0,1,0,1.17A4.39,4.39,0,0,0,41.09,23a2.88,2.88,0,0,0,1.2.86A.22.22,0,0,0,42.45,23.83Z" transform="translate(0 0)"/><path class="cls-2" d="M42.73,67.84c-.27,1.47-.51,3-.77,4.42s-.51,2.94-.76,4.42Q39.91,84.54,39,92.48c-.18,1.61-.34,3.22-.5,4.83H38c.18-2,.39-3.9.61-5.84q.47-4,1-8t1.23-7.89c.23-1.32.46-2.63.7-3.94s.53-2.61.81-3.92C42.46,67.54,42.77,67.63,42.73,67.84Z" transform="translate(0 0)"/><path class="cls-7" d="M27.54,51.05,39.87,35.34a.64.64,0,0,0-.11-.9h0a.64.64,0,0,0-.9.11L26.75,50.1Z" transform="translate(0 0)"/><path class="cls-8" d="M17.34,48.74s2.71-5.92,5.19-5.74a2.55,2.55,0,0,1,3-1.13A1.93,1.93,0,0,1,28.2,40.6s.85-1.69,2.34-1.07,3.74,5,2.6,5.95-2.48-.9-2.48-.9-.22,2.79-2.58,2.24c0,0-1.55,1.83-2.77.44,0,0,.37,2.14-1.33,1.6-.71-.23-1.46-1.82-1.46-1.82Z" transform="translate(0 0)"/><path class="cls-2" d="M32.43,46a1.64,1.64,0,0,1-.38,0,3.26,3.26,0,0,1-1.8-1.35.24.24,0,0,1,.06-.32.25.25,0,0,1,.33.06,3,3,0,0,0,1.49,1.15A1.12,1.12,0,0,0,33,45.3c.31-.23.28-.76.2-1.15-.35-1.72-2.22-4.3-3.05-4.49-1.09-.25-1.71,1-1.73,1a.24.24,0,0,1-.43-.2,2.14,2.14,0,0,1,2.26-1.3c1.09.25,3,3,3.41,4.85.2,1-.1,1.42-.38,1.63A1.65,1.65,0,0,1,32.43,46Z" transform="translate(0 0)"/><path class="cls-2" d="M28.29,47.05a1,1,0,0,1-.25,0,.24.24,0,0,1,.08-.47,3,3,0,0,0,1.57-.5,1.2,1.2,0,0,0,.53-.74c.16-1-.81-2.49-1.38-3.41l-.13-.2c-.58-.94-.93-1.2-1.83-.95a1.51,1.51,0,0,0-1.06,1.14.24.24,0,0,1-.47-.09,2,2,0,0,1,1.4-1.51c1.18-.33,1.72.14,2.36,1.16l.13.2c.65,1,1.63,2.6,1.44,3.74a1.64,1.64,0,0,1-.71,1A3.66,3.66,0,0,1,28.29,47.05Z" transform="translate(0 0)"/><path class="cls-2" d="M26.62,48a1.43,1.43,0,0,1-1.38-.7.24.24,0,0,1,.43-.21c0,.08.4.72,1.48.3a.67.67,0,0,0,.38-.42,4.77,4.77,0,0,0-.63-3.12c-.29-.51-1.33-2.14-2.73-1.87a1.73,1.73,0,0,0-1.41,1.09.23.23,0,0,1-.29.16.24.24,0,0,1-.17-.29,2.24,2.24,0,0,1,1.78-1.42c1.72-.32,2.91,1.52,3.23,2.1A5.11,5.11,0,0,1,28,47.12a1.11,1.11,0,0,1-.65.7A2.71,2.71,0,0,1,26.62,48Z" transform="translate(0 0)"/><path class="cls-2" d="M24.5,49a1.14,1.14,0,0,1-.44-.06C23,48.59,22,46.61,22,46.53a.23.23,0,0,1,.12-.31.23.23,0,0,1,.31.11c.25.52,1.06,1.92,1.82,2.18a.63.63,0,0,0,.49,0c.68-.36.52-1.49.15-2.43-.57-1.44-1.55-3.1-2.94-2.82s-3.59,4.15-4.36,5.63a.24.24,0,0,1-.42-.22c.29-.56,2.91-5.53,4.69-5.87.95-.19,2.31.2,3.46,3.1.58,1.44.44,2.6-.36,3A1,1,0,0,1,24.5,49Z" transform="translate(0 0)"/><polygon class="cls-2" points="0 39.66 31.46 44.46 44.42 83.49 13.69 78.81 0 39.66"/><path class="cls-5" d="M55.46,79.73l-4-.06s-8.14-7.4-9.91-7.53l-.9-.07c-1.33-.13-3.76-.37-6.29-.56a.74.74,0,0,0-.21,0,.82.82,0,0,0-.22,0c-4.2-.32-8.54-.49-8.73.18-.29,1,4.43,3.09,5.78,3.65l.36.15s-1.82,1-1.45,2.38c.3,1.11,1.91,1.82,2.58,2.07l.14,0a.69.69,0,0,0,.15.05l-.13.2-.11.2a3.36,3.36,0,0,0-.23.5,3.11,3.11,0,0,0-.15.7,2,2,0,0,0,0,.25,2.23,2.23,0,0,0,0,.36,1.6,1.6,0,0,0,.23.52,2,2,0,0,0,.51.5,1,1,0,0,0-.13.18c-.18.34-.39,1.18.9,2.55A12.71,12.71,0,0,0,37,87.84l16.57,2.55A76,76,0,0,0,55.46,79.73Z" transform="translate(0 0)"/><path class="cls-5" d="M32.62,80.21a3.49,3.49,0,0,1-2.77-2c-.63-1.83,1.3-3,1.32-3a.17.17,0,0,1,.14,0l5.76.71a.2.2,0,0,1,.18.24.22.22,0,0,1-.24.19l-5.68-.7A2.21,2.21,0,0,0,30.26,78a3.18,3.18,0,0,0,2.5,1.76A.21.21,0,0,1,33,80a.2.2,0,0,1-.23.19Z" transform="translate(0 0)"/><path class="cls-5" d="M32.87,83.46l-.08,0a1.93,1.93,0,0,1-.95-1.34,3.32,3.32,0,0,1,.66-2.25.19.19,0,0,1,.19-.08L36.9,80a.21.21,0,0,1,.2.23.22.22,0,0,1-.23.2l-4.09-.25A2.76,2.76,0,0,0,32.27,82,1.53,1.53,0,0,0,33,83l4.59.65a.23.23,0,0,1,.18.25.22.22,0,0,1-.24.18l-4.64-.65Z" transform="translate(0 0)"/><path class="cls-2" d="M79.33,79.07c-3.11-.15-6.23-.25-9.34-.3a109.88,109.88,0,0,0-.88-19.94c0-.27-.45-.16-.41.12a108.48,108.48,0,0,1,.85,19.81q-6.81-.09-13.61.16H55.5c0,.14,0,.29-.08.43q-1.16,6.75-2.61,13.45c0,.14-.07.28-.1.42l.43.07a195,195,0,0,0,23,2c.28,0,.28-.42,0-.43a193.14,193.14,0,0,1-22.92-2q1.45-6.73,2.62-13.53,6.84-.25,13.67-.16H70q4.68.08,9.36.3C79.61,79.52,79.61,79.09,79.33,79.07Z" transform="translate(0 0)"/></g></g></svg>