<svg xmlns="http://www.w3.org/2000/svg" xmlns:xlink="http://www.w3.org/1999/xlink" viewBox="0 0 104.21 123.62"><defs><style>.cls-1{fill:none;}.cls-2{clip-path:url(#clip-path);}.cls-3{clip-path:url(#clip-path-2);}.cls-4{clip-path:url(#clip-path-3);}.cls-5{fill:#fff;}.cls-6{clip-path:url(#clip-path-4);}.cls-7{clip-path:url(#clip-path-7);}.cls-8{clip-path:url(#clip-path-10);}.cls-9{clip-path:url(#clip-path-13);}.cls-10{clip-path:url(#clip-path-16);}.cls-11{clip-path:url(#clip-path-19);}.cls-12{clip-path:url(#clip-path-22);}.cls-13{clip-path:url(#clip-path-25);}.cls-14{clip-path:url(#clip-path-28);}.cls-15{clip-path:url(#clip-path-31);}.cls-16{clip-path:url(#clip-path-34);}.cls-17{clip-path:url(#clip-path-37);}.cls-18{clip-path:url(#clip-path-40);}.cls-19{clip-path:url(#clip-path-43);}.cls-20{clip-path:url(#clip-path-46);}.cls-21{clip-path:url(#clip-path-49);}.cls-22{clip-path:url(#clip-path-52);}.cls-23{clip-path:url(#clip-path-55);}.cls-24{clip-path:url(#clip-path-58);}.cls-25{clip-path:url(#clip-path-61);}.cls-26{clip-path:url(#clip-path-64);}.cls-27{clip-path:url(#clip-path-67);}.cls-28{clip-path:url(#clip-path-70);}.cls-29{clip-path:url(#clip-path-73);}.cls-30{clip-path:url(#clip-path-76);}.cls-31{clip-path:url(#clip-path-79);}.cls-32{clip-path:url(#clip-path-82);}.cls-33{clip-path:url(#clip-path-85);}.cls-34{clip-path:url(#clip-path-88);}.cls-35{clip-path:url(#clip-path-91);}.cls-36{clip-path:url(#clip-path-94);}.cls-37{clip-path:url(#clip-path-97);}.cls-38{clip-path:url(#clip-path-100);}.cls-39{clip-path:url(#clip-path-103);}.cls-40{clip-path:url(#clip-path-106);}.cls-41{clip-path:url(#clip-path-109);}.cls-42{clip-path:url(#clip-path-112);}.cls-43{clip-path:url(#clip-path-115);}.cls-44{clip-path:url(#clip-path-118);}.cls-45{clip-path:url(#clip-path-121);}.cls-46{clip-path:url(#clip-path-124);}.cls-47{clip-path:url(#clip-path-127);}.cls-48{clip-path:url(#clip-path-130);}.cls-49{clip-path:url(#clip-path-133);}.cls-50{clip-path:url(#clip-path-136);}.cls-51{clip-path:url(#clip-path-139);}.cls-52{clip-path:url(#clip-path-142);}.cls-53{clip-path:url(#clip-path-145);}.cls-54{clip-path:url(#clip-path-148);}.cls-55{clip-path:url(#clip-path-151);}.cls-56{clip-path:url(#clip-path-154);}.cls-57{clip-path:url(#clip-path-157);}.cls-58{clip-path:url(#clip-path-160);}.cls-59{clip-path:url(#clip-path-163);}.cls-60{clip-path:url(#clip-path-166);}.cls-61{clip-path:url(#clip-path-169);}.cls-62{clip-path:url(#clip-path-172);}.cls-63{clip-path:url(#clip-path-175);}.cls-64{clip-path:url(#clip-path-178);}.cls-65{clip-path:url(#clip-path-181);}.cls-66{clip-path:url(#clip-path-184);}.cls-67{clip-path:url(#clip-path-187);}.cls-68{clip-path:url(#clip-path-190);}.cls-69{clip-path:url(#clip-path-193);}.cls-70{clip-path:url(#clip-path-196);}.cls-71{clip-path:url(#clip-path-199);}</style><clipPath id="clip-path" transform="translate(-0.68 -0.88)"><rect id="SVGID" class="cls-1" x="89.33" y="6.67" width="2.67" height="2.67"/></clipPath><clipPath id="clip-path-2" transform="translate(-0.68 -0.88)"><rect id="SVGID-2" data-name="SVGID" class="cls-1" x="-29.46" y="35.3" width="154.05" height="52.68" transform="translate(-28.75 77.04) rotate(-63.75)"/></clipPath><clipPath id="clip-path-3" transform="translate(-0.68 -0.88)"><rect id="SVGID-3" data-name="SVGID" class="cls-1" x="-29.13" y="35.47" width="154.05" height="52.68" transform="translate(-28.71 77.44) rotate(-63.75)"/></clipPath><clipPath id="clip-path-4" transform="translate(-0.68 -0.88)"><rect id="SVGID-4" data-name="SVGID" class="cls-1" x="85.33" y="6.67" width="2.67" height="2.67"/></clipPath><clipPath id="clip-path-7" transform="translate(-0.68 -0.88)"><rect id="SVGID-7" data-name="SVGID" class="cls-1" x="81.33" y="6.67" width="4" height="2.67"/></clipPath><clipPath id="clip-path-10" transform="translate(-0.68 -0.88)"><rect id="SVGID-10" data-name="SVGID" class="cls-1" x="78.67" y="6.67" width="2.67" height="2.67"/></clipPath><clipPath id="clip-path-13" transform="translate(-0.68 -0.88)"><rect id="SVGID-13" data-name="SVGID" class="cls-1" x="74.67" y="8" width="4" height="2.67"/></clipPath><clipPath id="clip-path-16" transform="translate(-0.68 -0.88)"><rect id="SVGID-16" data-name="SVGID" class="cls-1" x="72" y="9.33" width="2.67" height="2.67"/></clipPath><clipPath id="clip-path-19" transform="translate(-0.68 -0.88)"><rect id="SVGID-19" data-name="SVGID" class="cls-1" x="69.33" y="10.67" width="2.67" height="2.67"/></clipPath><clipPath id="clip-path-22" transform="translate(-0.68 -0.88)"><rect id="SVGID-22" data-name="SVGID" class="cls-1" x="66.67" y="13.33" width="2.67" height="2.67"/></clipPath><clipPath id="clip-path-25" transform="translate(-0.68 -0.88)"><rect id="SVGID-25" data-name="SVGID" class="cls-1" x="64" y="16" width="2.67" height="2.67"/></clipPath><clipPath id="clip-path-28" transform="translate(-0.68 -0.88)"><rect id="SVGID-28" data-name="SVGID" class="cls-1" x="62.67" y="18.67" width="4" height="2.67"/></clipPath><clipPath id="clip-path-31" transform="translate(-0.68 -0.88)"><rect id="SVGID-31" data-name="SVGID" class="cls-1" x="62.67" y="22.67" width="2.67" height="2.67"/></clipPath><clipPath id="clip-path-34" transform="translate(-0.68 -0.88)"><rect id="SVGID-34" data-name="SVGID" class="cls-1" x="62.67" y="25.33" width="2.67" height="4"/></clipPath><clipPath id="clip-path-37" transform="translate(-0.68 -0.88)"><rect id="SVGID-37" data-name="SVGID" class="cls-1" x="62.67" y="29.33" width="4" height="2.67"/></clipPath><clipPath id="clip-path-40" transform="translate(-0.68 -0.88)"><rect id="SVGID-40" data-name="SVGID" class="cls-1" x="64" y="32" width="2.67" height="4"/></clipPath><clipPath id="clip-path-43" transform="translate(-0.68 -0.88)"><rect id="SVGID-43" data-name="SVGID" class="cls-1" x="65.33" y="36" width="2.67" height="2.67"/></clipPath><clipPath id="clip-path-46" transform="translate(-0.68 -0.88)"><rect id="SVGID-46" data-name="SVGID" class="cls-1" x="66.67" y="38.67" width="2.67" height="4"/></clipPath><clipPath id="clip-path-49" transform="translate(-0.68 -0.88)"><rect id="SVGID-49" data-name="SVGID" class="cls-1" x="66.67" y="42.67" width="2.67" height="2.67"/></clipPath><clipPath id="clip-path-52" transform="translate(-0.68 -0.88)"><rect id="SVGID-52" data-name="SVGID" class="cls-1" x="68" y="46.67" width="2.67" height="2.67"/></clipPath><clipPath id="clip-path-55" transform="translate(-0.68 -0.88)"><rect id="SVGID-55" data-name="SVGID" class="cls-1" x="68" y="49.33" width="2.67" height="2.67"/></clipPath><clipPath id="clip-path-58" transform="translate(-0.68 -0.88)"><rect id="SVGID-58" data-name="SVGID" class="cls-1" x="68" y="53.33" width="2.67" height="2.67"/></clipPath><clipPath id="clip-path-61" transform="translate(-0.68 -0.88)"><rect id="SVGID-61" data-name="SVGID" class="cls-1" x="66.67" y="56" width="2.67" height="2.67"/></clipPath><clipPath id="clip-path-64" transform="translate(-0.68 -0.88)"><rect id="SVGID-64" data-name="SVGID" class="cls-1" x="65.33" y="58.67" width="2.67" height="4"/></clipPath><clipPath id="clip-path-67" transform="translate(-0.68 -0.88)"><rect id="SVGID-67" data-name="SVGID" class="cls-1" x="62.67" y="61.33" width="2.67" height="2.67"/></clipPath><clipPath id="clip-path-70" transform="translate(-0.68 -0.88)"><rect id="SVGID-70" data-name="SVGID" class="cls-1" x="58.67" y="62.67" width="4" height="2.67"/></clipPath><clipPath id="clip-path-73" transform="translate(-0.68 -0.88)"><rect id="SVGID-73" data-name="SVGID" class="cls-1" x="56" y="62.67" width="2.67" height="2.67"/></clipPath><clipPath id="clip-path-76" transform="translate(-0.68 -0.88)"><rect id="SVGID-76" data-name="SVGID" class="cls-1" x="52" y="62.67" width="4" height="2.67"/></clipPath><clipPath id="clip-path-79" transform="translate(-0.68 -0.88)"><rect id="SVGID-79" data-name="SVGID" class="cls-1" x="49.33" y="60" width="4" height="2.67"/></clipPath><clipPath id="clip-path-82" transform="translate(-0.68 -0.88)"><rect id="SVGID-82" data-name="SVGID" class="cls-1" x="46.67" y="57.33" width="4" height="2.67"/></clipPath><clipPath id="clip-path-85" transform="translate(-0.68 -0.88)"><rect id="SVGID-85" data-name="SVGID" class="cls-1" x="45.33" y="54.67" width="2.67" height="2.67"/></clipPath><clipPath id="clip-path-88" transform="translate(-0.68 -0.88)"><rect id="SVGID-88" data-name="SVGID" class="cls-1" x="44" y="52" width="2.67" height="2.67"/></clipPath><clipPath id="clip-path-91" transform="translate(-0.68 -0.88)"><rect id="SVGID-91" data-name="SVGID" class="cls-1" x="44" y="48" width="2.67" height="4"/></clipPath><clipPath id="clip-path-94" transform="translate(-0.68 -0.88)"><rect id="SVGID-94" data-name="SVGID" class="cls-1" x="44" y="45.33" width="2.67" height="2.67"/></clipPath><clipPath id="clip-path-97" transform="translate(-0.68 -0.88)"><rect id="SVGID-97" data-name="SVGID" class="cls-1" x="48" y="44" width="2.67" height="4"/></clipPath><clipPath id="clip-path-100" transform="translate(-0.68 -0.88)"><rect id="SVGID-100" data-name="SVGID" class="cls-1" x="50.67" y="45.33" width="4" height="4"/></clipPath><clipPath id="clip-path-103" transform="translate(-0.68 -0.88)"><rect id="SVGID-103" data-name="SVGID" class="cls-1" x="53.33" y="49.33" width="2.67" height="2.67"/></clipPath><clipPath id="clip-path-106" transform="translate(-0.68 -0.88)"><rect id="SVGID-106" data-name="SVGID" class="cls-1" x="54.67" y="52" width="2.67" height="2.67"/></clipPath><clipPath id="clip-path-109" transform="translate(-0.68 -0.88)"><rect id="SVGID-109" data-name="SVGID" class="cls-1" x="54.67" y="56" width="2.67" height="2.67"/></clipPath><clipPath id="clip-path-112" transform="translate(-0.68 -0.88)"><rect id="SVGID-112" data-name="SVGID" class="cls-1" x="53.33" y="58.67" width="4" height="4"/></clipPath><clipPath id="clip-path-115" transform="translate(-0.68 -0.88)"><rect id="SVGID-115" data-name="SVGID" class="cls-1" x="50.67" y="64" width="2.67" height="4"/></clipPath><clipPath id="clip-path-118" transform="translate(-0.68 -0.88)"><rect id="SVGID-118" data-name="SVGID" class="cls-1" x="46.67" y="66.67" width="4" height="2.67"/></clipPath><clipPath id="clip-path-121" transform="translate(-0.68 -0.88)"><rect id="SVGID-121" data-name="SVGID" class="cls-1" x="44" y="68" width="2.67" height="2.67"/></clipPath><clipPath id="clip-path-124" transform="translate(-0.68 -0.88)"><rect id="SVGID-124" data-name="SVGID" class="cls-1" x="40" y="68" width="2.67" height="2.67"/></clipPath><clipPath id="clip-path-127" transform="translate(-0.68 -0.88)"><rect id="SVGID-127" data-name="SVGID" class="cls-1" x="37.33" y="68" width="2.67" height="2.67"/></clipPath><clipPath id="clip-path-130" transform="translate(-0.68 -0.88)"><rect id="SVGID-130" data-name="SVGID" class="cls-1" x="33.33" y="68" width="4" height="2.67"/></clipPath><clipPath id="clip-path-133" transform="translate(-0.68 -0.88)"><rect id="SVGID-133" data-name="SVGID" class="cls-1" x="30.67" y="68" width="2.67" height="2.67"/></clipPath><clipPath id="clip-path-136" transform="translate(-0.68 -0.88)"><rect id="SVGID-136" data-name="SVGID" class="cls-1" x="26.67" y="68" width="2.67" height="2.67"/></clipPath><clipPath id="clip-path-139" transform="translate(-0.68 -0.88)"><rect id="SVGID-139" data-name="SVGID" class="cls-1" x="22.67" y="68" width="4" height="2.67"/></clipPath><clipPath id="clip-path-142" transform="translate(-0.68 -0.88)"><rect id="SVGID-142" data-name="SVGID" class="cls-1" x="20" y="68" width="2.67" height="4"/></clipPath><clipPath id="clip-path-145" transform="translate(-0.68 -0.88)"><rect id="SVGID-145" data-name="SVGID" class="cls-1" x="16" y="70.67" width="2.67" height="2.67"/></clipPath><clipPath id="clip-path-148" transform="translate(-0.68 -0.88)"><rect id="SVGID-148" data-name="SVGID" class="cls-1" x="13.33" y="72" width="4" height="2.67"/></clipPath><clipPath id="clip-path-151" transform="translate(-0.68 -0.88)"><rect id="SVGID-151" data-name="SVGID" class="cls-1" x="9.33" y="77.33" width="2.67" height="2.67"/></clipPath><clipPath id="clip-path-154" transform="translate(-0.68 -0.88)"><rect id="SVGID-154" data-name="SVGID" class="cls-1" x="10.67" y="74.67" width="4" height="2.67"/></clipPath><clipPath id="clip-path-157" transform="translate(-0.68 -0.88)"><rect id="SVGID-157" data-name="SVGID" class="cls-1" x="8" y="81.33" width="2.67" height="2.67"/></clipPath><clipPath id="clip-path-160" transform="translate(-0.68 -0.88)"><rect id="SVGID-160" data-name="SVGID" class="cls-1" x="6.67" y="84" width="2.67" height="2.67"/></clipPath><clipPath id="clip-path-163" transform="translate(-0.68 -0.88)"><rect id="SVGID-163" data-name="SVGID" class="cls-1" x="5.33" y="86.67" width="2.67" height="4"/></clipPath><clipPath id="clip-path-166" transform="translate(-0.68 -0.88)"><rect id="SVGID-166" data-name="SVGID" class="cls-1" x="5.33" y="90.67" width="2.67" height="2.67"/></clipPath><clipPath id="clip-path-169" transform="translate(-0.68 -0.88)"><rect id="SVGID-169" data-name="SVGID" class="cls-1" x="5.33" y="94.67" width="2.67" height="2.67"/></clipPath><clipPath id="clip-path-172" transform="translate(-0.68 -0.88)"><rect id="SVGID-172" data-name="SVGID" class="cls-1" x="5.33" y="97.33" width="2.67" height="2.67"/></clipPath><clipPath id="clip-path-175" transform="translate(-0.68 -0.88)"><rect id="SVGID-175" data-name="SVGID" class="cls-1" x="6.67" y="101.33" width="2.67" height="2.67"/></clipPath><clipPath id="clip-path-178" transform="translate(-0.68 -0.88)"><rect id="SVGID-178" data-name="SVGID" class="cls-1" x="6.67" y="104" width="2.67" height="2.67"/></clipPath><clipPath id="clip-path-181" transform="translate(-0.68 -0.88)"><rect id="SVGID-181" data-name="SVGID" class="cls-1" x="6.67" y="108" width="4" height="2.67"/></clipPath><clipPath id="clip-path-184" transform="translate(-0.68 -0.88)"><rect id="SVGID-184" data-name="SVGID" class="cls-1" x="6.67" y="110.67" width="4" height="2.67"/></clipPath><clipPath id="clip-path-187" transform="translate(-0.68 -0.88)"><rect id="SVGID-187" data-name="SVGID" class="cls-1" x="6.67" y="114.67" width="2.67" height="2.67"/></clipPath><clipPath id="clip-path-190" transform="translate(-0.68 -0.88)"><rect id="SVGID-190" data-name="SVGID" class="cls-1" x="5.33" y="117.33" width="2.67" height="4"/></clipPath><clipPath id="clip-path-193" transform="translate(-0.68 -0.88)"><rect id="SVGID-193" data-name="SVGID" class="cls-1" x="2.67" y="120" width="4" height="4"/></clipPath><clipPath id="clip-path-196" transform="translate(-0.68 -0.88)"><rect id="SVGID-196" data-name="SVGID" class="cls-1" y="122.67" width="2.67" height="2.67"/></clipPath><clipPath id="clip-path-199" transform="translate(-0.68 -0.88)"><rect id="SVGID-199" data-name="SVGID" class="cls-1" x="92" width="13.33" height="13.33"/></clipPath></defs><g id="Layer_2" data-name="Layer 2"><g id="Layer_1-2" data-name="Layer 1"><g class="cls-2"><g class="cls-3"><g class="cls-4"><path class="cls-5" d="M91.09,7a.83.83,0,0,1-1.28,1.07A.83.83,0,0,1,91.09,7Z" transform="translate(-0.68 -0.88)"/></g></g></g><g class="cls-6"><g class="cls-3"><g class="cls-4"><path class="cls-5" d="M87.66,7a.83.83,0,0,1-1.28,1.07A.83.83,0,0,1,87.66,7Z" transform="translate(-0.68 -0.88)"/></g></g></g><g class="cls-7"><g class="cls-3"><g class="cls-4"><path class="cls-5" d="M84,7.46a.83.83,0,0,1-1.28,1.07A.83.83,0,0,1,84,7.46Z" transform="translate(-0.68 -0.88)"/></g></g></g><g class="cls-8"><g class="cls-3"><g class="cls-4"><path class="cls-5" d="M80.44,7.6a.83.83,0,0,1-1.28,1.07A.83.83,0,0,1,80.44,7.6Z" transform="translate(-0.68 -0.88)"/></g></g></g><g class="cls-9"><g class="cls-3"><g class="cls-4"><path class="cls-5" d="M77.41,8.42a.83.83,0,0,1-1.28,1.06A.83.83,0,0,1,77.41,8.42Z" transform="translate(-0.68 -0.88)"/></g></g></g><g class="cls-10"><g class="cls-3"><g class="cls-4"><path class="cls-5" d="M73.84,10A.83.83,0,0,1,72.56,11,.83.83,0,0,1,73.84,10Z" transform="translate(-0.68 -0.88)"/></g></g></g><g class="cls-11"><g class="cls-3"><g class="cls-4"><path class="cls-5" d="M71.06,11.42c.68.82-.6,1.9-1.28,1.07A.83.83,0,0,1,71.06,11.42Z" transform="translate(-0.68 -0.88)"/></g></g></g><g class="cls-12"><g class="cls-3"><g class="cls-4"><path class="cls-5" d="M68.36,13.67a.83.83,0,0,1-1.28,1.07A.83.83,0,0,1,68.36,13.67Z" transform="translate(-0.68 -0.88)"/></g></g></g><g class="cls-13"><g class="cls-3"><g class="cls-4"><path class="cls-5" d="M66.39,16.45a.83.83,0,0,1-1.28,1.07A.83.83,0,0,1,66.39,16.45Z" transform="translate(-0.68 -0.88)"/></g></g></g><g class="cls-14"><g class="cls-3"><g class="cls-4"><path class="cls-5" d="M65.18,19.46a.83.83,0,0,1-1.28,1.07A.83.83,0,0,1,65.18,19.46Z" transform="translate(-0.68 -0.88)"/></g></g></g><g class="cls-15"><g class="cls-3"><g class="cls-4"><path class="cls-5" d="M64.54,23.14a.83.83,0,0,1-1.28,1.07A.83.83,0,0,1,64.54,23.14Z" transform="translate(-0.68 -0.88)"/></g></g></g><g class="cls-16"><g class="cls-3"><g class="cls-4"><path class="cls-5" d="M64.68,26.73A.83.83,0,0,1,63.4,27.8.83.83,0,0,1,64.68,26.73Z" transform="translate(-0.68 -0.88)"/></g></g></g><g class="cls-17"><g class="cls-3"><g class="cls-4"><path class="cls-5" d="M65.46,30.08a.83.83,0,0,1-1.28,1.07A.83.83,0,0,1,65.46,30.08Z" transform="translate(-0.68 -0.88)"/></g></g></g><g class="cls-18"><g class="cls-3"><g class="cls-4"><path class="cls-5" d="M66.39,33.59a.83.83,0,0,1-1.28,1.07A.83.83,0,0,1,66.39,33.59Z" transform="translate(-0.68 -0.88)"/></g></g></g><g class="cls-19"><g class="cls-3"><g class="cls-4"><path class="cls-5" d="M67.35,36.8a.83.83,0,0,1-1.28,1.06A.83.83,0,0,1,67.35,36.8Z" transform="translate(-0.68 -0.88)"/></g></g></g><g class="cls-20"><g class="cls-3"><g class="cls-4"><path class="cls-5" d="M68.3,40A.83.83,0,0,1,67,41.07.83.83,0,0,1,68.3,40Z" transform="translate(-0.68 -0.88)"/></g></g></g><g class="cls-21"><g class="cls-3"><g class="cls-4"><path class="cls-5" d="M69.06,43.65a.83.83,0,0,1-1.28,1.07A.83.83,0,0,1,69.06,43.65Z" transform="translate(-0.68 -0.88)"/></g></g></g><g class="cls-22"><g class="cls-3"><g class="cls-4"><path class="cls-5" d="M70,47.17a.83.83,0,0,1-1.28,1.06A.83.83,0,0,1,70,47.17Z" transform="translate(-0.68 -0.88)"/></g></g></g><g class="cls-23"><g class="cls-3"><g class="cls-4"><path class="cls-5" d="M69.85,50.43a.83.83,0,0,1-1.28,1.06A.83.83,0,0,1,69.85,50.43Z" transform="translate(-0.68 -0.88)"/></g></g></g><g class="cls-24"><g class="cls-3"><g class="cls-4"><path class="cls-5" d="M69.85,53.85a.83.83,0,0,1-1.28,1.07A.83.83,0,0,1,69.85,53.85Z" transform="translate(-0.68 -0.88)"/></g></g></g><g class="cls-25"><g class="cls-3"><g class="cls-4"><path class="cls-5" d="M69.09,57.06a.83.83,0,0,1-1.28,1.07A.83.83,0,0,1,69.09,57.06Z" transform="translate(-0.68 -0.88)"/></g></g></g><g class="cls-26"><g class="cls-3"><g class="cls-4"><path class="cls-5" d="M67,60a.84.84,0,0,1-1.29,1.07A.84.84,0,0,1,67,60Z" transform="translate(-0.68 -0.88)"/></g></g></g><g class="cls-27"><g class="cls-3"><g class="cls-4"><path class="cls-5" d="M64.4,62.4a.83.83,0,0,1-1.28,1.06A.83.83,0,0,1,64.4,62.4Z" transform="translate(-0.68 -0.88)"/></g></g></g><g class="cls-28"><g class="cls-3"><g class="cls-4"><path class="cls-5" d="M61.31,63.83A.83.83,0,0,1,60,64.9.83.83,0,0,1,61.31,63.83Z" transform="translate(-0.68 -0.88)"/></g></g></g><g class="cls-29"><g class="cls-3"><g class="cls-4"><path class="cls-5" d="M57.88,63.83A.83.83,0,0,1,56.6,64.9.83.83,0,0,1,57.88,63.83Z" transform="translate(-0.68 -0.88)"/></g></g></g><g class="cls-30"><g class="cls-3"><g class="cls-4"><path class="cls-5" d="M54.68,63.07a.83.83,0,0,1-1.28,1.07A.83.83,0,0,1,54.68,63.07Z" transform="translate(-0.68 -0.88)"/></g></g></g><g class="cls-31"><g class="cls-3"><g class="cls-4"><path class="cls-5" d="M51.9,61.1a.84.84,0,0,1-1.29,1.07A.84.84,0,0,1,51.9,61.1Z" transform="translate(-0.68 -0.88)"/></g></g></g><g class="cls-32"><g class="cls-3"><g class="cls-4"><path class="cls-5" d="M49.2,58.21a.83.83,0,0,1-1.28,1.07A.83.83,0,0,1,49.2,58.21Z" transform="translate(-0.68 -0.88)"/></g></g></g><g class="cls-33"><g class="cls-3"><g class="cls-4"><path class="cls-5" d="M47.73,55.43a.83.83,0,0,1-1.28,1.06A.83.83,0,0,1,47.73,55.43Z" transform="translate(-0.68 -0.88)"/></g></g></g><g class="cls-34"><g class="cls-3"><g class="cls-4"><path class="cls-5" d="M46.13,52.48a.83.83,0,0,1-1.28,1.07A.83.83,0,0,1,46.13,52.48Z" transform="translate(-0.68 -0.88)"/></g></g></g><g class="cls-35"><g class="cls-3"><g class="cls-4"><path class="cls-5" d="M45.48,49.31a.83.83,0,0,1-1.28,1.07C43.52,49.55,44.8,48.48,45.48,49.31Z" transform="translate(-0.68 -0.88)"/></g></g></g><g class="cls-36"><g class="cls-3"><g class="cls-4"><path class="cls-5" d="M46.41,46A.83.83,0,0,1,45.13,47,.83.83,0,0,1,46.41,46Z" transform="translate(-0.68 -0.88)"/></g></g></g><g class="cls-37"><g class="cls-3"><g class="cls-4"><path class="cls-5" d="M50,45.51a.83.83,0,0,1-1.28,1.07A.83.83,0,0,1,50,45.51Z" transform="translate(-0.68 -0.88)"/></g></g></g><g class="cls-38"><g class="cls-3"><g class="cls-4"><path class="cls-5" d="M53.19,46.89A.84.84,0,0,1,51.9,48,.84.84,0,0,1,53.19,46.89Z" transform="translate(-0.68 -0.88)"/></g></g></g><g class="cls-39"><g class="cls-3"><g class="cls-4"><path class="cls-5" d="M55,49.7a.83.83,0,0,1-1.28,1.07A.83.83,0,0,1,55,49.7Z" transform="translate(-0.68 -0.88)"/></g></g></g><g class="cls-40"><g class="cls-3"><g class="cls-4"><path class="cls-5" d="M56.36,53.1a.83.83,0,0,1-1.28,1.07A.83.83,0,0,1,56.36,53.1Z" transform="translate(-0.68 -0.88)"/></g></g></g><g class="cls-41"><g class="cls-3"><g class="cls-4"><path class="cls-5" d="M56.36,56.53a.83.83,0,0,1-1.28,1.06A.83.83,0,0,1,56.36,56.53Z" transform="translate(-0.68 -0.88)"/></g></g></g><g class="cls-42"><g class="cls-3"><g class="cls-4"><path class="cls-5" d="M55.89,60.07a.84.84,0,0,1-1.29,1.07A.84.84,0,0,1,55.89,60.07Z" transform="translate(-0.68 -0.88)"/></g></g></g><g class="cls-43"><g class="cls-3"><g class="cls-4"><path class="cls-5" d="M52.29,65.35A.83.83,0,0,1,51,66.42.83.83,0,0,1,52.29,65.35Z" transform="translate(-0.68 -0.88)"/></g></g></g><g class="cls-44"><g class="cls-3"><g class="cls-4"><path class="cls-5" d="M49.45,67.43a.83.83,0,0,1-1.28,1.06A.83.83,0,0,1,49.45,67.43Z" transform="translate(-0.68 -0.88)"/></g></g></g><g class="cls-45"><g class="cls-3"><g class="cls-4"><path class="cls-5" d="M45.77,68.49a.83.83,0,0,1-1.28,1.07A.83.83,0,0,1,45.77,68.49Z" transform="translate(-0.68 -0.88)"/></g></g></g><g class="cls-46"><g class="cls-3"><g class="cls-4"><path class="cls-5" d="M42.45,69A.83.83,0,0,1,41.17,70,.83.83,0,0,1,42.45,69Z" transform="translate(-0.68 -0.88)"/></g></g></g><g class="cls-47"><g class="cls-3"><g class="cls-4"><path class="cls-5" d="M39.36,68.69a.84.84,0,0,1-1.28,1.08A.84.84,0,0,1,39.36,68.69Z" transform="translate(-0.68 -0.88)"/></g></g></g><g class="cls-48"><g class="cls-3"><g class="cls-4"><path class="cls-5" d="M36,68.39a.83.83,0,0,1-1.28,1.06A.83.83,0,0,1,36,68.39Z" transform="translate(-0.68 -0.88)"/></g></g></g><g class="cls-49"><g class="cls-3"><g class="cls-4"><path class="cls-5" d="M32.2,68.67a.83.83,0,0,1-1.28,1.06A.83.83,0,0,1,32.2,68.67Z" transform="translate(-0.68 -0.88)"/></g></g></g><g class="cls-50"><g class="cls-3"><g class="cls-4"><path class="cls-5" d="M28.91,68.83c.68.83-.6,1.9-1.28,1.07A.83.83,0,0,1,28.91,68.83Z" transform="translate(-0.68 -0.88)"/></g></g></g><g class="cls-51"><g class="cls-3"><g class="cls-4"><path class="cls-5" d="M25.34,68.67a.83.83,0,0,1-1.28,1.06A.83.83,0,0,1,25.34,68.67Z" transform="translate(-0.68 -0.88)"/></g></g></g><g class="cls-52"><g class="cls-3"><g class="cls-4"><path class="cls-5" d="M21.52,69.56a.84.84,0,0,1-1.29,1.08A.84.84,0,0,1,21.52,69.56Z" transform="translate(-0.68 -0.88)"/></g></g></g><g class="cls-53"><g class="cls-3"><g class="cls-4"><path class="cls-5" d="M18.23,71.45A.83.83,0,0,1,17,72.52.83.83,0,0,1,18.23,71.45Z" transform="translate(-0.68 -0.88)"/></g></g></g><g class="cls-54"><g class="cls-3"><g class="cls-4"><path class="cls-5" d="M15.9,73.11a.83.83,0,0,1-1.28,1.07A.83.83,0,0,1,15.9,73.11Z" transform="translate(-0.68 -0.88)"/></g></g></g><g class="cls-55"><g class="cls-3"><g class="cls-4"><path class="cls-5" d="M11.2,78.45a.83.83,0,0,1-1.28,1.07A.83.83,0,0,1,11.2,78.45Z" transform="translate(-0.68 -0.88)"/></g></g></g><g class="cls-56"><g class="cls-3"><g class="cls-4"><path class="cls-5" d="M13.34,75.53a.83.83,0,0,1-1.28,1.06A.83.83,0,0,1,13.34,75.53Z" transform="translate(-0.68 -0.88)"/></g></g></g><g class="cls-57"><g class="cls-3"><g class="cls-4"><path class="cls-5" d="M10,81.76a.83.83,0,0,1-1.28,1.07A.83.83,0,0,1,10,81.76Z" transform="translate(-0.68 -0.88)"/></g></g></g><g class="cls-58"><g class="cls-3"><g class="cls-4"><path class="cls-5" d="M8.57,85.22a.84.84,0,0,1-1.29,1.07A.84.84,0,0,1,8.57,85.22Z" transform="translate(-0.68 -0.88)"/></g></g></g><g class="cls-59"><g class="cls-3"><g class="cls-4"><path class="cls-5" d="M7.67,88.26a.83.83,0,0,1-1.28,1.06A.83.83,0,0,1,7.67,88.26Z" transform="translate(-0.68 -0.88)"/></g></g></g><g class="cls-60"><g class="cls-3"><g class="cls-4"><path class="cls-5" d="M7.49,91.82a.83.83,0,0,1-1.28,1.07C5.53,92.06,6.81,91,7.49,91.82Z" transform="translate(-0.68 -0.88)"/></g></g></g><g class="cls-61"><g class="cls-3"><g class="cls-4"><path class="cls-5" d="M7.05,95.05c.68.83-.6,1.9-1.28,1.07A.83.83,0,0,1,7.05,95.05Z" transform="translate(-0.68 -0.88)"/></g></g></g><g class="cls-62"><g class="cls-3"><g class="cls-4"><path class="cls-5" d="M7.36,98.51a.83.83,0,0,1-1.28,1.07A.83.83,0,0,1,7.36,98.51Z" transform="translate(-0.68 -0.88)"/></g></g></g><g class="cls-63"><g class="cls-3"><g class="cls-4"><path class="cls-5" d="M8.29,102A.83.83,0,0,1,7,103.09.83.83,0,0,1,8.29,102Z" transform="translate(-0.68 -0.88)"/></g></g></g><g class="cls-64"><g class="cls-3"><g class="cls-4"><path class="cls-5" d="M8.93,105.2a.83.83,0,0,1-1.28,1.07A.83.83,0,0,1,8.93,105.2Z" transform="translate(-0.68 -0.88)"/></g></g></g><g class="cls-65"><g class="cls-3"><g class="cls-4"><path class="cls-5" d="M9.41,108.52a.83.83,0,0,1-1.28,1.06A.83.83,0,0,1,9.41,108.52Z" transform="translate(-0.68 -0.88)"/></g></g></g><g class="cls-66"><g class="cls-3"><g class="cls-4"><path class="cls-5" d="M9.41,111.94A.83.83,0,0,1,8.13,113,.83.83,0,0,1,9.41,111.94Z" transform="translate(-0.68 -0.88)"/></g></g></g><g class="cls-67"><g class="cls-3"><g class="cls-4"><path class="cls-5" d="M8.59,115.77a.83.83,0,0,1-1.28,1.06A.83.83,0,0,1,8.59,115.77Z" transform="translate(-0.68 -0.88)"/></g></g></g><g class="cls-68"><g class="cls-3"><g class="cls-4"><path class="cls-5" d="M7.69,118.8a.83.83,0,0,1-1.28,1.06A.83.83,0,0,1,7.69,118.8Z" transform="translate(-0.68 -0.88)"/></g></g></g><g class="cls-69"><g class="cls-3"><g class="cls-4"><path class="cls-5" d="M5.28,121.39A.84.84,0,0,1,4,122.45.84.84,0,0,1,5.28,121.39Z" transform="translate(-0.68 -0.88)"/></g></g></g><g class="cls-70"><g class="cls-3"><g class="cls-4"><path class="cls-5" d="M2.16,123.13A.83.83,0,0,1,.88,124.2.83.83,0,0,1,2.16,123.13Z" transform="translate(-0.68 -0.88)"/></g></g></g><g class="cls-71"><g class="cls-3"><g class="cls-4"><path class="cls-5" d="M104.16,4.85a2.84,2.84,0,0,0-.71,0l-.94.07-1.86.14L97,.88l-1.13.27,1.91,4.37L94.88,6l-1.2-1.07L92.83,5l.86,1.71-.48,2.21.85.13L95.2,7.61l2.86-.3-.89,4.8,1.17,0L100.74,7l1.43-.21,1.14-.16a3,3,0,0,0,1-.17,1.23,1.23,0,0,0,.55-.6.67.67,0,0,0-.29-.85,1.29,1.29,0,0,0-.39-.17Z" transform="translate(-0.68 -0.88)"/></g></g></g></g></g></svg>