<svg xmlns="http://www.w3.org/2000/svg" xmlns:xlink="http://www.w3.org/1999/xlink" viewBox="0 0 199.51 35.21"><defs><style>.cls-1{fill:none;}.cls-2{clip-path:url(#clip-path);}.cls-3{fill:#fff;}.cls-4{clip-path:url(#clip-path-2);}.cls-5{clip-path:url(#clip-path-3);}</style><clipPath id="clip-path" transform="translate(-1.2 -1.5)"><rect class="cls-1" width="202.67" height="25.33"/></clipPath><clipPath id="clip-path-2" transform="translate(-1.2 -1.5)"><rect class="cls-1" y="24" width="185.33" height="17.33"/></clipPath><clipPath id="clip-path-3" transform="translate(-1.2 -1.5)"><rect class="cls-1" x="0.8" y="25.33" width="5.87" height="12"/></clipPath></defs><g id="Layer_2" data-name="Layer 2"><g id="Layer_1-2" data-name="Layer 1"><g class="cls-2"><path class="cls-3" d="M7.45,13.54l1.84-12H13v17H10.47V6.29L8.62,18.45H6.1l-2-12v12H1.79V1.5h3.7Z" transform="translate(-1.2 -1.5)"/><path class="cls-3" d="M23.57,18.45H20.86l-.46-3.08H17.13l-.46,3.08H14.23L16.94,1.5h3.9Zm-6.09-5.37H20L18.75,4.5Z" transform="translate(-1.2 -1.5)"/><path class="cls-3" d="M33.43,18.45H30.72l-.46-3.08H27l-.45,3.08H24.1L26.81,1.5H30.7Zm-6.08-5.37h2.56L28.62,4.5Z" transform="translate(-1.2 -1.5)"/><path class="cls-3" d="M38.15,11.7l-.83,1.55v5.2H34.67V1.5h2.65V8.89l3.5-7.39h2.66l-3.7,7.56,3.7,9.39H40.73Z" transform="translate(-1.2 -1.5)"/><path class="cls-3" d="M52.48,15.33l2-13.83H57l-2.62,17h-4L47.76,1.5h2.68Z" transform="translate(-1.2 -1.5)"/><path class="cls-3" d="M66.23,18.45H63.52l-.46-3.08H59.79l-.46,3.08H56.89L59.6,1.5h3.9Zm-6.09-5.37h2.57L61.41,4.5Z" transform="translate(-1.2 -1.5)"/><path class="cls-3" d="M69.82,6.16V18.45H67.43V1.5h3.35l2.73,10.14V1.5h2.37v17H73.15Z" transform="translate(-1.2 -1.5)"/><path class="cls-3" d="M87.14,18.45a2.83,2.83,0,0,0-.11-.31c0-.09,0-.21-.08-.35s0-.34,0-.57,0-.52,0-.85V13.7A2.53,2.53,0,0,0,86.47,12a1.61,1.61,0,0,0-1.31-.48h-.94v6.89H81.57V1.5h4a4,4,0,0,1,3,1,4.08,4.08,0,0,1,.93,2.92V6.72c0,1.75-.58,2.9-1.75,3.44a2.41,2.41,0,0,1,1.4,1.36,6.1,6.1,0,0,1,.37,2.27v2.6a9.22,9.22,0,0,0,0,1.11,3.61,3.61,0,0,0,.25.95ZM84.22,3.91V9.12h1a1.73,1.73,0,0,0,1.19-.37,1.91,1.91,0,0,0,.42-1.42V5.66a2.14,2.14,0,0,0-.34-1.33,1.19,1.19,0,0,0-1-.42Z" transform="translate(-1.2 -1.5)"/><path class="cls-3" d="M94,8.64h3.67v2.42H94v5h4.61v2.41H91.32V1.5h7.25V3.91H94Z" transform="translate(-1.2 -1.5)"/><path class="cls-3" d="M100.24,1.5h2.64v17h-2.64Z" transform="translate(-1.2 -1.5)"/><path class="cls-3" d="M112.22,1.5V3.87L107.16,16h5.06v2.41h-7.79V16.08l5.06-12.17h-4.83V1.5Z" transform="translate(-1.2 -1.5)"/><path class="cls-3" d="M116.46,8.64h3.67v2.42h-3.67v5h4.6v2.41h-7.25V1.5h7.25V3.91h-4.6Z" transform="translate(-1.2 -1.5)"/><path class="cls-3" d="M125.09,6.16V18.45h-2.4V1.5h3.36l2.73,10.14V1.5h2.37v17h-2.73Z" transform="translate(-1.2 -1.5)"/><path class="cls-3" d="M136.11,16l.44,0H137a1.84,1.84,0,0,0,1.06-.31,1.54,1.54,0,0,0,.46-1.32V1.5h2.67V14.25a6,6,0,0,1-.32,2.1,3.27,3.27,0,0,1-.85,1.29,3,3,0,0,1-1.23.67,5.68,5.68,0,0,1-1.44.19h-.64a4.7,4.7,0,0,1-.63-.05Z" transform="translate(-1.2 -1.5)"/><path class="cls-3" d="M145.69,8.64h3.67v2.42h-3.67v5h4.61v2.41h-7.25V1.5h7.25V3.91h-4.61Z" transform="translate(-1.2 -1.5)"/><path class="cls-3" d="M161.62,9.41l-1,9H157L155.1,1.5h2.6l1.44,13.37L160.41,1.5H163L164.31,15,165.7,1.5H168l-1.87,17H162.6Z" transform="translate(-1.2 -1.5)"/><path class="cls-3" d="M172,8.64h3.66v2.42H172v5h4.6v2.41h-7.25V1.5h7.25V3.91H172Z" transform="translate(-1.2 -1.5)"/><path class="cls-3" d="M183.85,18.45a2.81,2.81,0,0,0-.1-.31,2,2,0,0,1-.08-.35c0-.15,0-.34,0-.57s0-.52,0-.85V13.7a2.6,2.6,0,0,0-.41-1.66,1.64,1.64,0,0,0-1.32-.48h-.93v6.89h-2.65V1.5h4a4,4,0,0,1,3,1,4,4,0,0,1,.94,2.92V6.72c0,1.75-.58,2.9-1.75,3.44a2.39,2.39,0,0,1,1.39,1.36,6.09,6.09,0,0,1,.38,2.27v2.6c0,.42,0,.79,0,1.11a4,4,0,0,0,.25.95ZM180.94,3.91V9.12h1a1.75,1.75,0,0,0,1.19-.37,2,2,0,0,0,.41-1.42V5.66a2.15,2.15,0,0,0-.33-1.33,1.19,1.19,0,0,0-1-.42Z" transform="translate(-1.2 -1.5)"/><path class="cls-3" d="M191.51,11.7l-.83,1.55v5.2H188V1.5h2.65V8.89l3.5-7.39h2.67l-3.71,7.56,3.71,9.39H194.1Z" transform="translate(-1.2 -1.5)"/><path class="cls-3" d="M198.4,14.7l-.33-6.14V1.5h2.65V8.56l-.34,6.14Zm2.27,1.19v2.56h-2.56V15.89Z" transform="translate(-1.2 -1.5)"/></g><g class="cls-4"><g class="cls-5"><path class="cls-3" d="M1.26,28.2a3,3,0,0,1,.63-2,2.48,2.48,0,0,1,1.92-.71,2.39,2.39,0,0,1,1.89.71,3,3,0,0,1,.65,2v.36H4.7V28.1a1.21,1.21,0,0,0-.23-.83A.79.79,0,0,0,3.85,27a.82.82,0,0,0-.65.25A1.21,1.21,0,0,0,3,28.1a2,2,0,0,0,.25,1,5,5,0,0,0,.65.83c.25.25.51.5.79.75a6.46,6.46,0,0,1,.81.84,4.3,4.3,0,0,1,.63,1,3.53,3.53,0,0,1,.25,1.35A3,3,0,0,1,5.7,36a2.46,2.46,0,0,1-1.91.7A2.53,2.53,0,0,1,1.85,36a3,3,0,0,1-.65-2.07v-.66H2.85V34a1.18,1.18,0,0,0,.23.83.89.89,0,0,0,.66.23.85.85,0,0,0,.63-.23A1.13,1.13,0,0,0,4.62,34a1.93,1.93,0,0,0-.25-1,4,4,0,0,0-.63-.81,10,10,0,0,0-.81-.78,10.33,10.33,0,0,1-.79-.83,4.3,4.3,0,0,1-.63-1A3.58,3.58,0,0,1,1.26,28.2Z" transform="translate(-1.2 -1.5)"/></g><path class="cls-3" d="M6.83,25.58h5.34v1.56H10.36v9.42H8.65V27.14H6.83Z" transform="translate(-1.2 -1.5)"/><path class="cls-3" d="M17.9,36.56H16.17l-.31-2h-2.1l-.32,2H11.86l1.77-11h2.52ZM14,33.08h1.67l-.83-5.56Z" transform="translate(-1.2 -1.5)"/><path class="cls-3" d="M22.3,36.56a.6.6,0,0,0-.06-.19,1.45,1.45,0,0,1,0-.25,2.62,2.62,0,0,1,0-.35V33.48a1.72,1.72,0,0,0-.27-1.07,1.07,1.07,0,0,0-.86-.33h-.6v4.48H18.7v-11h2.6a2.68,2.68,0,0,1,2,.62,2.68,2.68,0,0,1,.61,1.9V29a2.17,2.17,0,0,1-1.13,2.2,1.65,1.65,0,0,1,.9.88,4,4,0,0,1,.25,1.48v1.69c0,.28,0,.52,0,.72a2.4,2.4,0,0,0,.16.61Zm-1.87-9.42v3.38h.66a1.16,1.16,0,0,0,.78-.25,1.28,1.28,0,0,0,.27-.92V28.27a1.51,1.51,0,0,0-.21-.86.83.83,0,0,0-.67-.27Z" transform="translate(-1.2 -1.5)"/><path class="cls-3" d="M24.5,25.58h5.33v1.56H28v9.42H26.31V27.14H24.5Z" transform="translate(-1.2 -1.5)"/><path class="cls-3" d="M38.59,36.56H36.86l-.31-2h-2.1l-.32,2H32.55l1.77-11h2.52Zm-3.94-3.48h1.67l-.83-5.56Z" transform="translate(-1.2 -1.5)"/><path class="cls-3" d="M39.39,25.58h1.73V35H44v1.56H39.39Z" transform="translate(-1.2 -1.5)"/><path class="cls-3" d="M44.49,28.2a3,3,0,0,1,.63-2A2.48,2.48,0,0,1,47,25.45a2.41,2.41,0,0,1,1.89.71,3,3,0,0,1,.65,2v.36H47.93V28.1a1.21,1.21,0,0,0-.23-.83.79.79,0,0,0-.62-.25.82.82,0,0,0-.65.25,1.16,1.16,0,0,0-.23.83,2,2,0,0,0,.25,1,5,5,0,0,0,.65.83c.25.25.51.5.79.75a6.46,6.46,0,0,1,.81.84,4.3,4.3,0,0,1,.63,1,3.53,3.53,0,0,1,.25,1.35A3,3,0,0,1,48.93,36a2.47,2.47,0,0,1-1.92.7,2.52,2.52,0,0,1-1.93-.7,2.92,2.92,0,0,1-.65-2.07v-.66h1.65V34a1.18,1.18,0,0,0,.23.83.89.89,0,0,0,.66.23.85.85,0,0,0,.63-.23,1.17,1.17,0,0,0,.25-.83,2,2,0,0,0-.25-1,4,4,0,0,0-.63-.81,10,10,0,0,0-.81-.78,10.33,10.33,0,0,1-.79-.83,4.3,4.3,0,0,1-.63-1A3.58,3.58,0,0,1,44.49,28.2Z" transform="translate(-1.2 -1.5)"/><path class="cls-3" d="M57.78,25.58v1.54L54.49,35h3.29v1.56H52.72V35L56,27.14H52.89V25.58Z" transform="translate(-1.2 -1.5)"/><path class="cls-3" d="M60.52,30.2H62.9v1.57H60.52V35h3v1.56H58.79v-11H63.5v1.56h-3Z" transform="translate(-1.2 -1.5)"/><path class="cls-3" d="M64.56,25.58h1.73V35h2.83v1.56H64.56Z" transform="translate(-1.2 -1.5)"/><path class="cls-3" d="M71.6,30.45h2.23V32H71.6v4.54H69.87v-11h4.57v1.56H71.6Z" transform="translate(-1.2 -1.5)"/><path class="cls-3" d="M75.06,28.2a3.05,3.05,0,0,1,.62-2,2.48,2.48,0,0,1,1.92-.71,2.43,2.43,0,0,1,1.9.71,3,3,0,0,1,.64,2v.36H78.5V28.1a1.21,1.21,0,0,0-.23-.83.82.82,0,0,0-.63-.25.8.8,0,0,0-.64.25,1.16,1.16,0,0,0-.23.83,1.93,1.93,0,0,0,.25,1,4.5,4.5,0,0,0,.64.83c.25.25.51.5.79.75a5.93,5.93,0,0,1,.82.84,4.28,4.28,0,0,1,.62,1,3.35,3.35,0,0,1,.25,1.35A3,3,0,0,1,79.5,36a2.5,2.5,0,0,1-1.92.7,2.53,2.53,0,0,1-1.94-.7A3,3,0,0,1,75,33.91v-.66h1.64V34a1.18,1.18,0,0,0,.23.83.93.93,0,0,0,.67.23.81.81,0,0,0,.62-.23,1.13,1.13,0,0,0,.25-.83,1.93,1.93,0,0,0-.25-1,3.64,3.64,0,0,0-.62-.81,8.73,8.73,0,0,0-.82-.78,10.33,10.33,0,0,1-.79-.83,4,4,0,0,1-.62-1A3.4,3.4,0,0,1,75.06,28.2Z" transform="translate(-1.2 -1.5)"/><path class="cls-3" d="M80.63,25.58H86v1.56H84.15v9.42H82.44V27.14H80.63Z" transform="translate(-1.2 -1.5)"/><path class="cls-3" d="M91.7,36.56H90l-.32-2h-2.1l-.31,2H85.65l1.77-11H90Zm-3.94-3.48h1.66l-.83-5.56Z" transform="translate(-1.2 -1.5)"/><path class="cls-3" d="M94,28.6v8H92.47v-11h2.17l1.77,6.56V25.58H98v11H96.18Z" transform="translate(-1.2 -1.5)"/><path class="cls-3" d="M99.18,25.58h2.73a2.49,2.49,0,0,1,1.94.69,2.85,2.85,0,0,1,.65,2v5.56a2.85,2.85,0,0,1-.65,2,2.49,2.49,0,0,1-1.94.69H99.18Zm1.73,1.56V35h1a.89.89,0,0,0,.63-.23,1.23,1.23,0,0,0,.25-.86V28.2a1.12,1.12,0,0,0-.25-.81.86.86,0,0,0-.63-.25Z" transform="translate(-1.2 -1.5)"/><path class="cls-3" d="M105.58,25.58h1.73v11h-1.73Z" transform="translate(-1.2 -1.5)"/><path class="cls-3" d="M111.14,30.43h2.42v3.48a3,3,0,0,1-.65,2.07,2.46,2.46,0,0,1-1.91.7,2.53,2.53,0,0,1-1.94-.7,3,3,0,0,1-.65-2.07V28.2a3,3,0,0,1,.65-2,2.54,2.54,0,0,1,1.94-.71,2.47,2.47,0,0,1,1.91.71,3,3,0,0,1,.65,2v1.09h-1.63V28.1a1.11,1.11,0,0,0-.25-.83A.81.81,0,0,0,111,27a.87.87,0,0,0-.65.25,1.11,1.11,0,0,0-.25.83V34a1.13,1.13,0,0,0,.25.83.89.89,0,0,0,.65.23.84.84,0,0,0,.64-.23,1.13,1.13,0,0,0,.25-.83V32h-.79Z" transform="translate(-1.2 -1.5)"/><path class="cls-3" d="M120.7,36.56a.6.6,0,0,0-.06-.19c0-.07,0-.15,0-.25a2.62,2.62,0,0,1,0-.35V33.48a1.72,1.72,0,0,0-.27-1.07,1.05,1.05,0,0,0-.86-.33h-.6v4.48H117.1v-11h2.6a2.65,2.65,0,0,1,2,.62,2.68,2.68,0,0,1,.61,1.9V29a2.17,2.17,0,0,1-1.13,2.2,1.65,1.65,0,0,1,.9.88,4,4,0,0,1,.25,1.48v1.69c0,.28,0,.52,0,.72a2.4,2.4,0,0,0,.16.61Zm-1.87-9.42v3.38h.67a1.15,1.15,0,0,0,.77-.25,1.28,1.28,0,0,0,.27-.92V28.27a1.51,1.51,0,0,0-.21-.86.83.83,0,0,0-.67-.27Z" transform="translate(-1.2 -1.5)"/><path class="cls-3" d="M125.13,30.2h2.38v1.57h-2.38V35h3v1.56H123.4v-11h4.71v1.56h-3Z" transform="translate(-1.2 -1.5)"/><path class="cls-3" d="M129.17,25.58h1.73v11h-1.73Z" transform="translate(-1.2 -1.5)"/><path class="cls-3" d="M131.94,28.2a3.05,3.05,0,0,1,.62-2,2.48,2.48,0,0,1,1.92-.71,2.43,2.43,0,0,1,1.9.71,3,3,0,0,1,.64,2v.36h-1.64V28.1a1.21,1.21,0,0,0-.23-.83.82.82,0,0,0-.63-.25.8.8,0,0,0-.64.25,1.16,1.16,0,0,0-.23.83,1.93,1.93,0,0,0,.25,1,4.5,4.5,0,0,0,.64.83c.25.25.51.5.79.75a5.93,5.93,0,0,1,.82.84,4,4,0,0,1,.62,1,3.35,3.35,0,0,1,.25,1.35,3,3,0,0,1-.64,2.07,2.5,2.5,0,0,1-1.92.7,2.53,2.53,0,0,1-1.94-.7,3,3,0,0,1-.64-2.07v-.66h1.64V34a1.18,1.18,0,0,0,.23.83.93.93,0,0,0,.67.23.81.81,0,0,0,.62-.23,1.13,1.13,0,0,0,.25-.83,1.93,1.93,0,0,0-.25-1,3.64,3.64,0,0,0-.62-.81,10,10,0,0,0-.81-.78,8.94,8.94,0,0,1-.8-.83,4.28,4.28,0,0,1-.62-1A3.4,3.4,0,0,1,131.94,28.2Z" transform="translate(-1.2 -1.5)"/><path class="cls-3" d="M143.59,36.56h-1.73l-.31-2h-2.1l-.32,2h-1.58l1.77-11h2.52Zm-3.94-3.48h1.67l-.83-5.56Z" transform="translate(-1.2 -1.5)"/><path class="cls-3" d="M144.39,25.58h2.73a2.51,2.51,0,0,1,1.94.69,2.9,2.9,0,0,1,.64,2v5.56a2.9,2.9,0,0,1-.64,2,2.51,2.51,0,0,1-1.94.69h-2.73Zm1.73,1.56V35h1a.85.85,0,0,0,.62-.23,1.18,1.18,0,0,0,.25-.86V28.2a1.08,1.08,0,0,0-.25-.81.82.82,0,0,0-.62-.25Z" transform="translate(-1.2 -1.5)"/><path class="cls-3" d="M153.37,34.54l1.31-9h1.59l-1.69,11H152l-1.71-11h1.75Z" transform="translate(-1.2 -1.5)"/><path class="cls-3" d="M157.07,25.58h1.73v11h-1.73Z" transform="translate(-1.2 -1.5)"/><path class="cls-3" d="M159.84,28.2a3.05,3.05,0,0,1,.62-2,2.48,2.48,0,0,1,1.92-.71,2.43,2.43,0,0,1,1.9.71,3,3,0,0,1,.64,2v.36h-1.64V28.1a1.21,1.21,0,0,0-.23-.83.82.82,0,0,0-.63-.25.8.8,0,0,0-.64.25,1.16,1.16,0,0,0-.23.83,1.93,1.93,0,0,0,.25,1,4.5,4.5,0,0,0,.64.83c.25.25.51.5.79.75a5.93,5.93,0,0,1,.82.84,4,4,0,0,1,.62,1,3.35,3.35,0,0,1,.25,1.35,3,3,0,0,1-.64,2.07,2.5,2.5,0,0,1-1.92.7,2.53,2.53,0,0,1-1.94-.7,3,3,0,0,1-.64-2.07v-.66h1.64V34a1.18,1.18,0,0,0,.23.83.93.93,0,0,0,.67.23.81.81,0,0,0,.62-.23,1.13,1.13,0,0,0,.25-.83,1.93,1.93,0,0,0-.25-1,3.64,3.64,0,0,0-.62-.81,10,10,0,0,0-.81-.78,8.94,8.94,0,0,1-.8-.83,4.28,4.28,0,0,1-.62-1A3.4,3.4,0,0,1,159.84,28.2Z" transform="translate(-1.2 -1.5)"/><path class="cls-3" d="M167.64,30.2H170v1.57h-2.37V35h3v1.56h-4.71v-11h4.71v1.56h-3Z" transform="translate(-1.2 -1.5)"/><path class="cls-3" d="M173.32,25.58v8.48a1.16,1.16,0,0,0,.25.83.89.89,0,0,0,.65.23.84.84,0,0,0,.64-.23,1.11,1.11,0,0,0,.25-.83V25.58h1.63v8.35a3,3,0,0,1-.65,2.07,2.46,2.46,0,0,1-1.91.7,2.53,2.53,0,0,1-1.94-.7,3,3,0,0,1-.65-2.07V25.58Z" transform="translate(-1.2 -1.5)"/><path class="cls-3" d="M181.52,36.56l-.06-.19a1.45,1.45,0,0,1,0-.25,2.43,2.43,0,0,1,0-.35V33.48a1.66,1.66,0,0,0-.27-1.07,1,1,0,0,0-.85-.33h-.61v4.48h-1.72v-11h2.6a2.68,2.68,0,0,1,2,.62,2.67,2.67,0,0,1,.6,1.9V29a2.16,2.16,0,0,1-1.12,2.2,1.63,1.63,0,0,1,.89.88,3.78,3.78,0,0,1,.25,1.48v1.69c0,.28,0,.52,0,.72a3,3,0,0,0,.17.61Zm-1.88-9.42v3.38h.67a1.13,1.13,0,0,0,.77-.25,1.23,1.23,0,0,0,.27-.92V28.27a1.43,1.43,0,0,0-.21-.86.81.81,0,0,0-.66-.27Z" transform="translate(-1.2 -1.5)"/></g></g></g></svg>