<svg xmlns="http://www.w3.org/2000/svg" viewBox="0 0 70.51 41.86"><defs><style>.cls-1{fill:#fff;stroke:#2e8be0;stroke-miterlimit:10;stroke-width:1.24px;stroke-dasharray:1.66 1.94;}</style></defs><g id="Layer_2" data-name="Layer 2"><g id="Layer_1-2" data-name="Layer 1"><path class="cls-1" d="M42.79.62a16,16,0,0,0-13,6.51,3.46,3.46,0,0,1-3.9,1.2,14,14,0,0,0-4.67-.78A14.19,14.19,0,0,0,7.87,26.49a3.47,3.47,0,0,1-2.81,4.58,5.11,5.11,0,0,0,.67,10.17H61.56a8.33,8.33,0,0,0,.29-16.65,3.5,3.5,0,0,1-2.35-1,3.46,3.46,0,0,1-1-3.23,16,16,0,0,0,.39-3.59A16.16,16.16,0,0,0,42.79.62Z"/></g></g></svg>