<svg xmlns="http://www.w3.org/2000/svg" width="260.291" height="78.793" viewBox="0 0 260.291 78.793">
  <g id="Group_84" data-name="Group 84" transform="translate(-27.569 -200.5)">
    <path id="Intersection_1" data-name="Intersection 1" d="M19,72.578A37.343,37.343,0,0,1,5.079,58.151,41.835,41.835,0,0,1,0,37.6a46.051,46.051,0,0,1,1.355-11.24A39.262,39.262,0,0,1,38.444,0,39.713,39.713,0,0,1,42.51.208L39.731,4.02a28.446,28.446,0,0,1,5.845-.557A29.378,29.378,0,0,1,61.789,8.156a32.3,32.3,0,0,1,5.2,4.144,39.131,39.131,0,0,1,9.748,18.277,39.646,39.646,0,0,1,.78,7.93,38.657,38.657,0,0,1-5.288,19.747A38.42,38.42,0,0,1,58.031,72.509a37.361,37.361,0,0,1-19.413,5.284A38.125,38.125,0,0,1,19,72.578ZM31.625,26.061a13.171,13.171,0,0,0-5.08,5.006A14.081,14.081,0,0,0,24.7,38.229a14.46,14.46,0,0,0,4.036,10.534A13.6,13.6,0,0,0,38.9,52.9q6.4,0,9.95-4.172a14.657,14.657,0,0,0,3.549-9.8A15.532,15.532,0,0,0,48.742,28.6q-3.653-4.347-10.124-4.346A14.1,14.1,0,0,0,31.625,26.061Z" transform="translate(121.001 201)" stroke="rgba(0,0,0,0)" stroke-miterlimit="10" stroke-width="1"/>
    <g id="Group_2" data-name="Group 2" transform="translate(27.569 214.999)">
      <path id="Path_1" data-name="Path 1" d="M44.86,61.5c4.618,7.979,12.172,7.979,16.769,0L64.2,57.049l-23.088-40H19.2Z" transform="translate(-19.2 -17.03)"/>
      <path id="Path_2" data-name="Path 2" d="M78.712,44.421a4.179,4.179,0,0,1-7.331,0L55.563,17.06H33.63l25.7,44.454c4.618,7.979,12.152,7.979,16.769,0L93.294,31.723,84.828,17.04H62.915l15.8,27.381Z" transform="translate(-4.406 -17.04)"/>
    </g>
    <g id="Group_3" data-name="Group 3" transform="translate(198.972 214.999)">
      <path id="Path_1-2" data-name="Path 1" d="M44.86,61.5c4.618,7.979,12.172,7.979,16.769,0L64.2,57.049l-23.088-40H19.2Z" transform="translate(-19.2 -17.03)"/>
      <path id="Path_2-2" data-name="Path 2" d="M78.712,44.421a4.179,4.179,0,0,1-7.331,0L55.563,17.06H33.63l25.7,44.454c4.618,7.979,12.152,7.979,16.769,0L93.294,31.723,84.828,17.04H62.915l15.8,27.381Z" transform="translate(-4.406 -17.04)"/>
    </g>
  </g>
</svg>
