<svg xmlns="http://www.w3.org/2000/svg" viewBox="0 0 241.81 175.78"><defs><style>.cls-1{fill:#231f20;}</style></defs><g id="Layer_2" data-name="Layer 2"><g id="Layer_1-2" data-name="Layer 1"><path class="cls-1" d="M27.29,172.9a8.89,8.89,0,0,1-2-.2,5,5,0,0,1-1.66-.67,3.36,3.36,0,0,1-1.12-1.16,3.32,3.32,0,0,1-.41-1.7V169a.54.54,0,0,1,0-.15h2.56a.52.52,0,0,0,0,.14v.15a1.42,1.42,0,0,0,.31.94,1.81,1.81,0,0,0,.89.57,4.3,4.3,0,0,0,1.36.19,5.84,5.84,0,0,0,.89-.06,3.87,3.87,0,0,0,.69-.17,2.2,2.2,0,0,0,.51-.27,1,1,0,0,0,.29-.37,1.11,1.11,0,0,0,.09-.46,1,1,0,0,0-.3-.76,2.29,2.29,0,0,0-.83-.5,9.12,9.12,0,0,0-1.18-.38l-1.35-.36a10.68,10.68,0,0,1-1.35-.45,5.35,5.35,0,0,1-1.18-.65,2.8,2.8,0,0,1-.83-1,3,3,0,0,1,1.11-4,4.93,4.93,0,0,1,1.56-.61,8.26,8.26,0,0,1,1.92-.2,7.78,7.78,0,0,1,1.83.2,4.51,4.51,0,0,1,1.52.63,3.15,3.15,0,0,1,1,1.09A3,3,0,0,1,32,164.1v.21h-2.5v-.14a1.21,1.21,0,0,0-.28-.79,1.85,1.85,0,0,0-.78-.52,3.25,3.25,0,0,0-1.18-.19,4.43,4.43,0,0,0-1.23.14,1.69,1.69,0,0,0-.78.4.86.86,0,0,0-.27.63.89.89,0,0,0,.3.69,2.69,2.69,0,0,0,.83.46,9.92,9.92,0,0,0,1.19.36c.44.1.89.22,1.35.34s.91.28,1.35.45a5.27,5.27,0,0,1,1.17.65,3,3,0,0,1,.83,1,2.8,2.8,0,0,1,.31,1.37,3.46,3.46,0,0,1-.65,2.19,3.68,3.68,0,0,1-1.8,1.21A8.06,8.06,0,0,1,27.29,172.9Z"/><path class="cls-1" d="M36.61,172.9a4.75,4.75,0,0,1-1-.1,3,3,0,0,1-1-.37,2.06,2.06,0,0,1-.74-.78,2.64,2.64,0,0,1-.28-1.3,2.57,2.57,0,0,1,1.6-2.56,6.39,6.39,0,0,1,1.84-.49,18.9,18.9,0,0,1,2.37-.14v-.67a1.77,1.77,0,0,0-.13-.69,1,1,0,0,0-.45-.47,2,2,0,0,0-.89-.17,2.46,2.46,0,0,0-.93.14,1.09,1.09,0,0,0-.5.35.81.81,0,0,0-.15.48v.2H34.1a.88.88,0,0,1,0-.16V166a2,2,0,0,1,.49-1.37,2.92,2.92,0,0,1,1.36-.89,6.15,6.15,0,0,1,2.06-.32,5.94,5.94,0,0,1,2.12.33,2.75,2.75,0,0,1,1.31,1,2.67,2.67,0,0,1,.46,1.61v4.13a.56.56,0,0,0,.18.46.63.63,0,0,0,.41.15H43v1.57a2.57,2.57,0,0,1-.54.18,3.18,3.18,0,0,1-.88.1,2.48,2.48,0,0,1-.89-.15,2,2,0,0,1-.65-.41,1.54,1.54,0,0,1-.36-.65H39.6a3.43,3.43,0,0,1-.72.64,3.51,3.51,0,0,1-1,.43A5.08,5.08,0,0,1,36.61,172.9Zm.81-1.81a2.31,2.31,0,0,0,.86-.15,1.79,1.79,0,0,0,.64-.4,1.64,1.64,0,0,0,.41-.61,2,2,0,0,0,.15-.78v-.5a10,10,0,0,0-1.73.13,2.9,2.9,0,0,0-1.2.44,1,1,0,0,0-.44.87.94.94,0,0,0,.15.53,1,1,0,0,0,.45.35A1.88,1.88,0,0,0,37.42,171.09Z"/><path class="cls-1" d="M46.58,172.7l-3.38-9.1h2.54l1.33,3.84c.07.2.15.46.25.78s.2.66.3,1,.19.68.26,1H48c.08-.27.16-.58.26-.93s.18-.69.28-1l.25-.82,1.33-3.84h2.43l-3.41,9.1Z"/><path class="cls-1" d="M57.88,172.9a5.68,5.68,0,0,1-2.53-.51,3.41,3.41,0,0,1-1.57-1.57,6.92,6.92,0,0,1,0-5.36,3.44,3.44,0,0,1,1.57-1.56,5.68,5.68,0,0,1,2.53-.51,5.74,5.74,0,0,1,2.55.51A3.46,3.46,0,0,1,62,165.46a6.92,6.92,0,0,1,0,5.36,3.44,3.44,0,0,1-1.56,1.57A5.74,5.74,0,0,1,57.88,172.9Zm0-1.86a2.36,2.36,0,0,0,1.27-.3,1.7,1.7,0,0,0,.7-.9,4.28,4.28,0,0,0,.22-1.48v-.42a4.24,4.24,0,0,0-.22-1.48,1.77,1.77,0,0,0-.7-.91,2.74,2.74,0,0,0-2.53,0,1.77,1.77,0,0,0-.7.91,4.24,4.24,0,0,0-.22,1.48v.42a4.28,4.28,0,0,0,.22,1.48,1.7,1.7,0,0,0,.7.9A2.35,2.35,0,0,0,57.88,171Z"/><path class="cls-1" d="M67.23,172.9a3.06,3.06,0,0,1-2.19-.76,3.18,3.18,0,0,1-.82-2.45V163.6h2.41v5.69a2.31,2.31,0,0,0,.1.75,1.24,1.24,0,0,0,.3.5,1.34,1.34,0,0,0,.5.27,2.17,2.17,0,0,0,.65.09,1.88,1.88,0,0,0,1-.26,1.82,1.82,0,0,0,.68-.72,2.17,2.17,0,0,0,.24-1V163.6h2.4v9.1h-2l-.17-1.25h-.12a4,4,0,0,1-.77.76,3.5,3.5,0,0,1-1,.51A3.89,3.89,0,0,1,67.23,172.9Z"/><path class="cls-1" d="M74.68,172.7v-9.1h2l.19,1.42H77a3.82,3.82,0,0,1,.45-.82,2.13,2.13,0,0,1,.7-.6,2,2,0,0,1,1-.22,2.23,2.23,0,0,1,.54.06,2,2,0,0,1,.36.11v2.18h-.74a2.69,2.69,0,0,0-.94.15,1.59,1.59,0,0,0-.68.45,1.81,1.81,0,0,0-.41.76,3.75,3.75,0,0,0-.13,1.06v4.55Z"/><path class="cls-1" d="M85.22,172.9a5.62,5.62,0,0,1-2.53-.51,3.38,3.38,0,0,1-1.54-1.56,7.19,7.19,0,0,1,0-5.37,3.4,3.4,0,0,1,1.53-1.56,5.48,5.48,0,0,1,2.48-.51,5,5,0,0,1,2.34.5,3.12,3.12,0,0,1,1.43,1.52,6.12,6.12,0,0,1,.49,2.65v.63H83.07a4.15,4.15,0,0,0,.25,1.34,1.62,1.62,0,0,0,.68.83,2.48,2.48,0,0,0,1.22.26A2.57,2.57,0,0,0,86,171a1.62,1.62,0,0,0,.58-.31,1.43,1.43,0,0,0,.38-.52,1.76,1.76,0,0,0,.14-.71h2.35a3.54,3.54,0,0,1-.31,1.51,3,3,0,0,1-.87,1.06,4.06,4.06,0,0,1-1.32.64A6.43,6.43,0,0,1,85.22,172.9Zm-2.11-5.74H87a3,3,0,0,0-.13-.9,1.78,1.78,0,0,0-.36-.62,1.3,1.3,0,0,0-.54-.35,2.09,2.09,0,0,0-.72-.12,2.53,2.53,0,0,0-1.1.22,1.48,1.48,0,0,0-.67.66A3,3,0,0,0,83.11,167.16Zm.79-4.68,1.44-2.29h2.47l0,.06-2.07,2.23Z"/><path class="cls-1" d="M94.57,175.78V163.6h2l.21,1.23h.12a2.69,2.69,0,0,1,1.18-1.09,3.69,3.69,0,0,1,1.61-.35,3.64,3.64,0,0,1,2,.51,3.13,3.13,0,0,1,1.26,1.55,7.23,7.23,0,0,1,.44,2.72,6.8,6.8,0,0,1-.45,2.66,3.36,3.36,0,0,1-1.25,1.56,3.44,3.44,0,0,1-1.88.51,4.73,4.73,0,0,1-1.09-.12,3.07,3.07,0,0,1-.9-.41,2.71,2.71,0,0,1-.67-.68H97v4.09Zm4.34-4.85a2,2,0,0,0,1.15-.28,1.64,1.64,0,0,0,.62-.87,4.78,4.78,0,0,0,.19-1.42V168a4.83,4.83,0,0,0-.19-1.44,1.64,1.64,0,0,0-.62-.87,2,2,0,0,0-1.15-.28,1.79,1.79,0,0,0-1.1.31,1.69,1.69,0,0,0-.64.9A4.19,4.19,0,0,0,97,168v.3a4.69,4.69,0,0,0,.12,1.1,2.73,2.73,0,0,0,.35.83,1.52,1.52,0,0,0,.6.53A2,2,0,0,0,98.91,170.93Z"/><path class="cls-1" d="M107.49,172.9a4.75,4.75,0,0,1-1-.1,3,3,0,0,1-1-.37,2.06,2.06,0,0,1-.74-.78,2.64,2.64,0,0,1-.28-1.3,2.85,2.85,0,0,1,.41-1.58,2.9,2.9,0,0,1,1.19-1,6.48,6.48,0,0,1,1.84-.49,19.14,19.14,0,0,1,2.37-.14v-.67a1.6,1.6,0,0,0-.13-.69,1,1,0,0,0-.45-.47,2,2,0,0,0-.89-.17,2.46,2.46,0,0,0-.93.14,1.09,1.09,0,0,0-.5.35.87.87,0,0,0-.14.48v.2H105a.88.88,0,0,1,0-.16V166a2.07,2.07,0,0,1,.49-1.37,3,3,0,0,1,1.36-.89,6.15,6.15,0,0,1,2.06-.32,5.94,5.94,0,0,1,2.12.33,2.75,2.75,0,0,1,1.31,1,2.67,2.67,0,0,1,.46,1.61v4.13a.56.56,0,0,0,.18.46.65.65,0,0,0,.41.15h.57v1.57a2.44,2.44,0,0,1-.53.18,3.31,3.31,0,0,1-.89.1,2.48,2.48,0,0,1-.89-.15,2,2,0,0,1-.65-.41,1.54,1.54,0,0,1-.36-.65h-.12a3.43,3.43,0,0,1-.72.64,3.51,3.51,0,0,1-1,.43A5.08,5.08,0,0,1,107.49,172.9Zm.81-1.81a2.41,2.41,0,0,0,.87-.15,2,2,0,0,0,.64-.4,1.75,1.75,0,0,0,.4-.61,2,2,0,0,0,.15-.78v-.5a10,10,0,0,0-1.73.13,2.9,2.9,0,0,0-1.2.44,1,1,0,0,0-.44.87.94.94,0,0,0,.15.53,1.06,1.06,0,0,0,.45.35A1.92,1.92,0,0,0,108.3,171.09Z"/><path class="cls-1" d="M115.11,172.7v-9.1h2l.19,1.42h.12a3.82,3.82,0,0,1,.45-.82,2.13,2.13,0,0,1,.7-.6,2,2,0,0,1,1-.22,2.23,2.23,0,0,1,.54.06,2,2,0,0,1,.36.11v2.18h-.74a2.69,2.69,0,0,0-.94.15,1.69,1.69,0,0,0-.69.45,1.91,1.91,0,0,0-.4.76,3.75,3.75,0,0,0-.13,1.06v4.55Z"/><path class="cls-1" d="M128.26,172.7v-3.53H125v-1.83h3.27v-3.55h1.81v3.55h3.29v1.83h-3.29v3.53Z"/><path class="cls-1" d="M140.67,172.7A11.51,11.51,0,0,1,141,170a13.87,13.87,0,0,1,.93-2.6,19.44,19.44,0,0,1,2.83-4.37h-5.88v-2.15h8.8v1.42c-.4.49-.81,1-1.22,1.58a21.38,21.38,0,0,0-1.19,1.79,18.89,18.89,0,0,0-1,1.95,11.87,11.87,0,0,0-.71,2.08,9.06,9.06,0,0,0-.26,2.13v.92Z"/><path class="cls-1" d="M153.56,172.9a5,5,0,0,1-1.89-.32,3.11,3.11,0,0,1-1.36-1,5,5,0,0,1-.81-1.9,15.6,15.6,0,0,1,0-5.78,5,5,0,0,1,.81-1.89,3.06,3.06,0,0,1,1.36-1,5.2,5.2,0,0,1,1.89-.31,5.11,5.11,0,0,1,1.88.31,3,3,0,0,1,1.34,1,5,5,0,0,1,.81,1.89,15.6,15.6,0,0,1,0,5.78,5,5,0,0,1-.81,1.9,3.06,3.06,0,0,1-1.34,1A4.9,4.9,0,0,1,153.56,172.9Zm0-1.86a1.54,1.54,0,0,0,1.15-.41,2.35,2.35,0,0,0,.56-1.24,11.87,11.87,0,0,0,.15-2.07v-1.07a12.25,12.25,0,0,0-.15-2.1,2.46,2.46,0,0,0-.56-1.26,1.54,1.54,0,0,0-1.15-.41,1.59,1.59,0,0,0-1.17.41,2.35,2.35,0,0,0-.56,1.24,10.91,10.91,0,0,0-.16,2.08v1.08a11.21,11.21,0,0,0,.16,2.1,2.28,2.28,0,0,0,.56,1.24A1.59,1.59,0,0,0,153.56,171Z"/><path class="cls-1" d="M167.23,172.9a5,5,0,0,1-1.88-.32,3.11,3.11,0,0,1-1.36-1,5,5,0,0,1-.81-1.9,15.6,15.6,0,0,1,0-5.78A5,5,0,0,1,164,162a3.06,3.06,0,0,1,1.36-1,5.18,5.18,0,0,1,1.88-.31,5.13,5.13,0,0,1,1.89.31,3,3,0,0,1,1.34,1,5,5,0,0,1,.81,1.89,15.6,15.6,0,0,1,0,5.78,5,5,0,0,1-.81,1.9,3.06,3.06,0,0,1-1.34,1A4.92,4.92,0,0,1,167.23,172.9Zm0-1.86a1.55,1.55,0,0,0,1.16-.41,2.35,2.35,0,0,0,.56-1.24,11.87,11.87,0,0,0,.15-2.07v-1.07a12.25,12.25,0,0,0-.15-2.1,2.46,2.46,0,0,0-.56-1.26,1.55,1.55,0,0,0-1.16-.41,1.58,1.58,0,0,0-1.16.41,2.43,2.43,0,0,0-.57,1.24,11.92,11.92,0,0,0-.15,2.08v1.08a12.25,12.25,0,0,0,.15,2.1,2.35,2.35,0,0,0,.57,1.24A1.58,1.58,0,0,0,167.23,171Z"/><path class="cls-1" d="M177.52,172.9a5,5,0,0,1-1.88-.32,3.06,3.06,0,0,1-1.36-1,5,5,0,0,1-.81-1.9,15.6,15.6,0,0,1,0-5.78,5,5,0,0,1,.81-1.89,3,3,0,0,1,1.36-1,5.18,5.18,0,0,1,1.88-.31,5.13,5.13,0,0,1,1.89.31,3.06,3.06,0,0,1,1.34,1,5,5,0,0,1,.81,1.89,15.6,15.6,0,0,1,0,5.78,5,5,0,0,1-.81,1.9,3.11,3.11,0,0,1-1.34,1A4.92,4.92,0,0,1,177.52,172.9Zm0-1.86a1.55,1.55,0,0,0,1.16-.41,2.27,2.27,0,0,0,.55-1.24,10.87,10.87,0,0,0,.16-2.07v-1.07a11.21,11.21,0,0,0-.16-2.1,2.38,2.38,0,0,0-.55-1.26,1.85,1.85,0,0,0-2.32,0,2.35,2.35,0,0,0-.57,1.24,11.92,11.92,0,0,0-.15,2.08v1.08a12.25,12.25,0,0,0,.15,2.1,2.28,2.28,0,0,0,.57,1.24A1.56,1.56,0,0,0,177.52,171Z"/><path class="cls-1" d="M187.81,172.9a5,5,0,0,1-1.88-.32,3,3,0,0,1-1.36-1,4.83,4.83,0,0,1-.81-1.9,15.6,15.6,0,0,1,0-5.78,4.84,4.84,0,0,1,.81-1.89,3,3,0,0,1,1.36-1,5.18,5.18,0,0,1,1.88-.31,5.13,5.13,0,0,1,1.89.31,3.06,3.06,0,0,1,1.34,1,5,5,0,0,1,.81,1.89,15.6,15.6,0,0,1,0,5.78,5,5,0,0,1-.81,1.9,3.11,3.11,0,0,1-1.34,1A4.92,4.92,0,0,1,187.81,172.9Zm0-1.86a1.55,1.55,0,0,0,1.16-.41,2.27,2.27,0,0,0,.55-1.24,10.87,10.87,0,0,0,.16-2.07v-1.07a11.21,11.21,0,0,0-.16-2.1,2.38,2.38,0,0,0-.55-1.26,1.55,1.55,0,0,0-1.16-.41,1.6,1.6,0,0,0-1.17.41,2.43,2.43,0,0,0-.56,1.24,11.92,11.92,0,0,0-.15,2.08v1.08a12.25,12.25,0,0,0,.15,2.1,2.35,2.35,0,0,0,.56,1.24A1.6,1.6,0,0,0,187.81,171Z"/><path class="cls-1" d="M201.44,172.9a5.28,5.28,0,0,1-2.44-.51,3.32,3.32,0,0,1-1.5-1.57,7.3,7.3,0,0,1,0-5.36A3.36,3.36,0,0,1,199,163.9a5.14,5.14,0,0,1,2.43-.52,5.84,5.84,0,0,1,1.68.22,3.57,3.57,0,0,1,1.31.69,3,3,0,0,1,.84,1.15,4.23,4.23,0,0,1,.28,1.62h-2.4a2.29,2.29,0,0,0-.19-1,1.32,1.32,0,0,0-.58-.61,2.16,2.16,0,0,0-1-.2,1.86,1.86,0,0,0-1.12.31,1.8,1.8,0,0,0-.64.92,4.59,4.59,0,0,0-.21,1.5v.4a4.28,4.28,0,0,0,.22,1.48,1.71,1.71,0,0,0,.66.91,2.11,2.11,0,0,0,1.18.3,2.06,2.06,0,0,0,1-.2,1.34,1.34,0,0,0,.59-.63,2.17,2.17,0,0,0,.21-1h2.28a4.07,4.07,0,0,1-.28,1.57,3,3,0,0,1-.83,1.16,3.67,3.67,0,0,1-1.31.71A5.56,5.56,0,0,1,201.44,172.9Z"/><path class="cls-1" d="M207.35,172.7V160.19h2.41v4.41h.12a3,3,0,0,1,.7-.63,3.3,3.3,0,0,1,.91-.42,4,4,0,0,1,1.12-.16,3.52,3.52,0,0,1,1.57.33,2.35,2.35,0,0,1,1,1,4,4,0,0,1,.37,1.85v6.09h-2.4V167a2.2,2.2,0,0,0-.11-.73,1.35,1.35,0,0,0-.3-.51,1.19,1.19,0,0,0-.49-.28,2.29,2.29,0,0,0-.66-.09,1.88,1.88,0,0,0-1,.26,1.76,1.76,0,0,0-.67.71,2.19,2.19,0,0,0-.24,1v5.31Z"/><path class="cls-1" d="M220.17,172.9a4.75,4.75,0,0,1-1-.1,3,3,0,0,1-1-.37,2.06,2.06,0,0,1-.74-.78,2.64,2.64,0,0,1-.28-1.3,2.77,2.77,0,0,1,.41-1.58,2.84,2.84,0,0,1,1.19-1,6.39,6.39,0,0,1,1.84-.49,18.9,18.9,0,0,1,2.37-.14v-.67a1.77,1.77,0,0,0-.13-.69,1,1,0,0,0-.45-.47,2,2,0,0,0-.89-.17,2.46,2.46,0,0,0-.93.14,1.09,1.09,0,0,0-.5.35.81.81,0,0,0-.15.48v.2h-2.33a.88.88,0,0,1,0-.16V166a2,2,0,0,1,.49-1.37,2.92,2.92,0,0,1,1.36-.89,6.1,6.1,0,0,1,2.06-.32,5.94,5.94,0,0,1,2.12.33,2.75,2.75,0,0,1,1.31,1,2.67,2.67,0,0,1,.46,1.61v4.13a.56.56,0,0,0,.18.46.63.63,0,0,0,.41.15h.57v1.57a2.79,2.79,0,0,1-.54.18,3.18,3.18,0,0,1-.88.1,2.48,2.48,0,0,1-.89-.15,1.85,1.85,0,0,1-.65-.41,1.54,1.54,0,0,1-.36-.65h-.12a3.24,3.24,0,0,1-1.71,1.07A4.94,4.94,0,0,1,220.17,172.9Zm.81-1.81a2.31,2.31,0,0,0,.86-.15,1.79,1.79,0,0,0,.64-.4,1.64,1.64,0,0,0,.41-.61,2,2,0,0,0,.15-.78v-.5a9.92,9.92,0,0,0-1.73.13,2.9,2.9,0,0,0-1.2.44,1,1,0,0,0-.45.87.93.93,0,0,0,.61.88A1.85,1.85,0,0,0,221,171.09Z"/><path class="cls-1" d="M230.51,172.9a2.72,2.72,0,0,1-1.4-.31,1.76,1.76,0,0,1-.78-.84,2.77,2.77,0,0,1-.25-1.16v-5.14H227V163.6h1.21l.45-2.59h1.87v2.59h1.66v1.85h-1.66v4.74a.9.9,0,0,0,.19.63.8.8,0,0,0,.62.22h.85v1.59l-.48.13-.59.1A4,4,0,0,1,230.51,172.9Z"/><path class="cls-1" d="M237.39,172.9a6.37,6.37,0,0,1-1.71-.2,4.2,4.2,0,0,1-1.3-.58,2.66,2.66,0,0,1-.82-.89,2.43,2.43,0,0,1-.29-1.18v-.14a.25.25,0,0,1,0-.1h2.32V170a1,1,0,0,0,.27.7,1.51,1.51,0,0,0,.69.39,3.24,3.24,0,0,0,.89.12,4.26,4.26,0,0,0,.8-.08,1.53,1.53,0,0,0,.66-.29.62.62,0,0,0,.27-.53.71.71,0,0,0-.34-.64,2.78,2.78,0,0,0-.88-.36l-1.19-.32c-.39-.09-.78-.19-1.17-.31a5,5,0,0,1-1.07-.48,2.46,2.46,0,0,1-.77-.77,2.32,2.32,0,0,1-.29-1.2,2.38,2.38,0,0,1,.31-1.24,2.55,2.55,0,0,1,.86-.87,4,4,0,0,1,1.28-.51,7.15,7.15,0,0,1,1.58-.17,6.41,6.41,0,0,1,1.49.17,4.25,4.25,0,0,1,1.21.48,2.58,2.58,0,0,1,.81.8,1.94,1.94,0,0,1,.29,1.06v.23a.38.38,0,0,1,0,.13H239v-.13a.8.8,0,0,0-.19-.53,1.29,1.29,0,0,0-.55-.34,2.64,2.64,0,0,0-.85-.12,4.06,4.06,0,0,0-.64.05,2,2,0,0,0-.49.16.92.92,0,0,0-.32.25.58.58,0,0,0-.11.35.56.56,0,0,0,.25.48,2.2,2.2,0,0,0,.67.3l.91.26c.42.12.85.23,1.31.34a6.34,6.34,0,0,1,1.27.44,2.37,2.37,0,0,1,1,.79,2.32,2.32,0,0,1,.36,1.37,2.76,2.76,0,0,1-.32,1.4,2.45,2.45,0,0,1-.89.92,4,4,0,0,1-1.33.5A8.47,8.47,0,0,1,237.39,172.9Z"/><path class="cls-1" d="M26.69,140.31a6,6,0,0,1-2.76-.58,3.8,3.8,0,0,1-1.74-1.8,7,7,0,0,1-.6-3.1,5.64,5.64,0,0,1,1.35-4.14,5.09,5.09,0,0,1,3.76-1.35,6,6,0,0,1,2.39.45,3.75,3.75,0,0,1,1.67,1.33,3.92,3.92,0,0,1,.61,2.27H29.61a2.6,2.6,0,0,0-.36-1.42,2.22,2.22,0,0,0-1-.87,3.78,3.78,0,0,0-1.52-.29,3.7,3.7,0,0,0-1.83.42,2.68,2.68,0,0,0-1.13,1.28,5.33,5.33,0,0,0-.38,2.16V135a5.33,5.33,0,0,0,.38,2.16,2.57,2.57,0,0,0,1.12,1.26,3.71,3.71,0,0,0,1.84.41,3.92,3.92,0,0,0,1.56-.28,2.24,2.24,0,0,0,1-.86,2.63,2.63,0,0,0,.36-1.42h1.7a3.92,3.92,0,0,1-.61,2.27,3.62,3.62,0,0,1-1.67,1.33A6.26,6.26,0,0,1,26.69,140.31Z"/><path class="cls-1" d="M33.08,140.13V132h1.33l.14,1.31h.1a3.3,3.3,0,0,1,.36-.73,1.73,1.73,0,0,1,.59-.55,1.63,1.63,0,0,1,.89-.22,2,2,0,0,1,.44.05l.3.08v1.51h-.54a2.42,2.42,0,0,0-.88.15,1.71,1.71,0,0,0-.63.46,1.94,1.94,0,0,0-.37.73,3.7,3.7,0,0,0-.12,1v4.36Z"/><path class="cls-1" d="M41.74,140.31a4.61,4.61,0,0,1-2.14-.45,2.93,2.93,0,0,1-1.31-1.4,5.59,5.59,0,0,1-.45-2.4,5.53,5.53,0,0,1,.45-2.4,2.9,2.9,0,0,1,1.31-1.39,5.25,5.25,0,0,1,4.3,0,2.9,2.9,0,0,1,1.31,1.39,5.69,5.69,0,0,1,.44,2.4,5.75,5.75,0,0,1-.44,2.4,2.93,2.93,0,0,1-1.31,1.4A4.64,4.64,0,0,1,41.74,140.31Zm0-1.33a2.44,2.44,0,0,0,1.27-.3,1.79,1.79,0,0,0,.73-.92A4.33,4.33,0,0,0,44,136.2v-.28a4.33,4.33,0,0,0-.24-1.56,1.79,1.79,0,0,0-.73-.92,2.44,2.44,0,0,0-1.27-.3,2.36,2.36,0,0,0-1.25.3,1.81,1.81,0,0,0-.74.92,4.33,4.33,0,0,0-.24,1.56v.28a4.33,4.33,0,0,0,.24,1.56,1.81,1.81,0,0,0,.74.92A2.36,2.36,0,0,0,41.74,139Z"/><path class="cls-1" d="M52.56,142.8v-3.66h-.11a2.18,2.18,0,0,1-.62.66,2.44,2.44,0,0,1-.83.39,4,4,0,0,1-1,.12,3,3,0,0,1-1.64-.45,2.93,2.93,0,0,1-1.11-1.38,6,6,0,0,1-.41-2.39,6.44,6.44,0,0,1,.4-2.44,2.82,2.82,0,0,1,1.12-1.39,3.16,3.16,0,0,1,1.71-.45,3.2,3.2,0,0,1,1.46.33,2.57,2.57,0,0,1,1.05,1h.11l.15-1.11h1.31v10.8Zm-2-3.88a2.17,2.17,0,0,0,.84-.15,1.74,1.74,0,0,0,.63-.49,2.37,2.37,0,0,0,.4-.86,5.07,5.07,0,0,0,.14-1.25V136a4.75,4.75,0,0,0-.22-1.5,1.8,1.8,0,0,0-.66-.93,1.91,1.91,0,0,0-1.15-.32,2.12,2.12,0,0,0-1.13.28,1.63,1.63,0,0,0-.66.88,4.88,4.88,0,0,0-.22,1.58v.28a4.79,4.79,0,0,0,.21,1.53,1.63,1.63,0,0,0,.66.88A2,2,0,0,0,50.55,138.92Z"/><path class="cls-1" d="M58.78,140.31a2.86,2.86,0,0,1-1.9-.62,2.74,2.74,0,0,1-.72-2.15V132h1.6v5.3a2.15,2.15,0,0,0,.12.77,1.29,1.29,0,0,0,.33.5,1.37,1.37,0,0,0,.51.26,2.63,2.63,0,0,0,.65.08,1.85,1.85,0,0,0,1-.28,2,2,0,0,0,.74-.75,2.3,2.3,0,0,0,.28-1.12V132H63v8.13H61.69L61.55,139h-.11a2.88,2.88,0,0,1-.69.74,3.55,3.55,0,0,1-.89.45A3.66,3.66,0,0,1,58.78,140.31Z"/><path class="cls-1" d="M68.44,140.31a4.4,4.4,0,0,1-2.09-.45,3,3,0,0,1-1.28-1.4,5.92,5.92,0,0,1-.43-2.4,5.86,5.86,0,0,1,.43-2.4,2.91,2.91,0,0,1,1.29-1.39,4.33,4.33,0,0,1,2.11-.46,3.92,3.92,0,0,1,1.94.44,2.84,2.84,0,0,1,1.19,1.34,5.68,5.68,0,0,1,.4,2.26v.61H66.29a4.46,4.46,0,0,0,.27,1.45,1.66,1.66,0,0,0,.7.85,2.39,2.39,0,0,0,1.2.27,2.45,2.45,0,0,0,.8-.12,1.58,1.58,0,0,0,.61-.34,1.6,1.6,0,0,0,.38-.54,1.81,1.81,0,0,0,.14-.72H72a3.22,3.22,0,0,1-.25,1.29,2.44,2.44,0,0,1-.72.93,3.31,3.31,0,0,1-1.12.58A5,5,0,0,1,68.44,140.31Zm-2.11-5h4a3.26,3.26,0,0,0-.13-1,1.72,1.72,0,0,0-.38-.68,1.38,1.38,0,0,0-.58-.37,2.37,2.37,0,0,0-.78-.12,2.45,2.45,0,0,0-1.1.23,1.58,1.58,0,0,0-.7.72A3.16,3.16,0,0,0,66.33,135.29Z"/><path class="cls-1" d="M75.66,140.31a1.91,1.91,0,0,1-1.09-.27,1.5,1.5,0,0,1-.56-.69,2.76,2.76,0,0,1-.16-.91v-5.11h-1V132h1l.3-2.27h1.28V132h1.47v1.33H75.46v4.93a.87.87,0,0,0,.15.54.66.66,0,0,0,.51.18h.81v1.08a2.45,2.45,0,0,1-.38.12,3.4,3.4,0,0,1-.46.09A2.22,2.22,0,0,1,75.66,140.31Z"/><path class="cls-1" d="M80.37,140.31a1.93,1.93,0,0,1-1.09-.27,1.42,1.42,0,0,1-.55-.69,2.53,2.53,0,0,1-.17-.91v-5.11h-1V132h1l.3-2.27h1.28V132h1.47v1.33H80.17v4.93a.81.81,0,0,0,.16.54.63.63,0,0,0,.51.18h.8v1.08a2.14,2.14,0,0,1-.38.12,3.4,3.4,0,0,1-.46.09A2.15,2.15,0,0,1,80.37,140.31Z"/><path class="cls-1" d="M86.43,140.31a4.4,4.4,0,0,1-2.09-.45,3,3,0,0,1-1.28-1.4,5.76,5.76,0,0,1-.43-2.4,5.7,5.7,0,0,1,.43-2.4,2.94,2.94,0,0,1,1.28-1.39,4.4,4.4,0,0,1,2.12-.46,4,4,0,0,1,1.94.44,2.77,2.77,0,0,1,1.18,1.34,5.5,5.5,0,0,1,.41,2.26v.61H84.28a4.48,4.48,0,0,0,.26,1.45,1.67,1.67,0,0,0,.71.85,2.37,2.37,0,0,0,1.2.27,2.49,2.49,0,0,0,.8-.12,1.47,1.47,0,0,0,.6-.34,1.5,1.5,0,0,0,.39-.54,1.81,1.81,0,0,0,.14-.72H90a3.23,3.23,0,0,1-.24,1.29,2.54,2.54,0,0,1-.72.93,3.4,3.4,0,0,1-1.12.58A5,5,0,0,1,86.43,140.31Zm-2.12-5h4a3.26,3.26,0,0,0-.13-1,1.72,1.72,0,0,0-.38-.68,1.35,1.35,0,0,0-.59-.37,2.26,2.26,0,0,0-.77-.12,2.45,2.45,0,0,0-1.1.23,1.65,1.65,0,0,0-.71.72A3.35,3.35,0,0,0,84.31,135.29Z"/><path class="cls-1" d="M94.62,140.31a5.61,5.61,0,0,1-1.5-.18,3.61,3.61,0,0,1-1.08-.51,2.22,2.22,0,0,1-.66-.78,2.31,2.31,0,0,1-.22-1,.66.66,0,0,1,0-.14v-.1h1.6v.17a1,1,0,0,0,.26.76,1.35,1.35,0,0,0,.7.4,3.74,3.74,0,0,0,1,.12,3,3,0,0,0,.86-.12,1.57,1.57,0,0,0,.64-.34.79.79,0,0,0,.26-.59.83.83,0,0,0-.33-.71,2.43,2.43,0,0,0-.84-.4c-.36-.09-.72-.2-1.1-.31l-1-.31a3.62,3.62,0,0,1-.91-.42,2.15,2.15,0,0,1-.65-.66,2,2,0,0,1-.24-1,2,2,0,0,1,.24-1,2.28,2.28,0,0,1,.69-.73,3.14,3.14,0,0,1,1-.45,5.61,5.61,0,0,1,1.34-.15A5,5,0,0,1,96,132a3.08,3.08,0,0,1,1,.46,2.1,2.1,0,0,1,.63.7,1.86,1.86,0,0,1,.21.87,1.21,1.21,0,0,1,0,.19v.14H96.29v-.14a1,1,0,0,0-.17-.56,1.18,1.18,0,0,0-.53-.4,2.61,2.61,0,0,0-1-.16,3.71,3.71,0,0,0-.71.07,1.75,1.75,0,0,0-.51.2.93.93,0,0,0-.3.29.71.71,0,0,0-.1.39.66.66,0,0,0,.25.55,2.62,2.62,0,0,0,.67.32l.9.29,1.13.31a6.67,6.67,0,0,1,1.06.41,2.26,2.26,0,0,1,.79.68,2,2,0,0,1,.3,1.16,2.37,2.37,0,0,1-.27,1.16,2,2,0,0,1-.73.8,3.53,3.53,0,0,1-1.1.45A6.65,6.65,0,0,1,94.62,140.31Z"/><path class="cls-1" d="M106.26,140.31a4.41,4.41,0,0,1-2.1-.45,3,3,0,0,1-1.27-1.4,5.76,5.76,0,0,1-.43-2.4,5.7,5.7,0,0,1,.43-2.4,2.89,2.89,0,0,1,1.28-1.39,4.38,4.38,0,0,1,2.12-.46,4,4,0,0,1,1.94.44,2.82,2.82,0,0,1,1.18,1.34,5.51,5.51,0,0,1,.4,2.26v.61h-5.7a4.48,4.48,0,0,0,.26,1.45,1.71,1.71,0,0,0,.7.85,2.42,2.42,0,0,0,1.2.27,2.55,2.55,0,0,0,.81-.12,1.54,1.54,0,0,0,1-.88,1.65,1.65,0,0,0,.14-.72h1.58a3.06,3.06,0,0,1-.25,1.29,2.34,2.34,0,0,1-.72.93,3.22,3.22,0,0,1-1.12.58A4.94,4.94,0,0,1,106.26,140.31Zm-2.12-5h4a3.59,3.59,0,0,0-.13-1,1.86,1.86,0,0,0-.38-.68,1.41,1.41,0,0,0-.59-.37,2.35,2.35,0,0,0-.77-.12,2.49,2.49,0,0,0-1.11.23,1.63,1.63,0,0,0-.7.72A3.16,3.16,0,0,0,104.14,135.29Z"/><path class="cls-1" d="M113.47,140.31a1.93,1.93,0,0,1-1.09-.27,1.48,1.48,0,0,1-.55-.69,2.53,2.53,0,0,1-.16-.91v-5.11h-1V132h1.06l.29-2.27h1.28V132h1.47v1.33h-1.47v4.93a.81.81,0,0,0,.16.54.63.63,0,0,0,.51.18h.8v1.08a2.14,2.14,0,0,1-.38.12l-.45.09A2.32,2.32,0,0,1,113.47,140.31Z"/><path class="cls-1" d="M119.33,142.8V132h1.31l.14,1.11h.11a2.62,2.62,0,0,1,1.07-1,3.13,3.13,0,0,1,1.45-.33,3.17,3.17,0,0,1,1.72.45,2.86,2.86,0,0,1,1.11,1.39,6.47,6.47,0,0,1,.38,2.44,6.25,6.25,0,0,1-.39,2.39,2.92,2.92,0,0,1-1.1,1.38,3,3,0,0,1-1.64.45,4.05,4.05,0,0,1-1-.12,2.31,2.31,0,0,1-.82-.39,2.34,2.34,0,0,1-.63-.66h-.09v3.66Zm3.6-3.88a2.09,2.09,0,0,0,1.18-.29,1.67,1.67,0,0,0,.65-.88,4.79,4.79,0,0,0,.21-1.53v-.28a4.62,4.62,0,0,0-.22-1.58,1.67,1.67,0,0,0-.65-.88,2.16,2.16,0,0,0-1.14-.28,2,2,0,0,0-1.16.32,1.79,1.79,0,0,0-.65.93,4.76,4.76,0,0,0-.21,1.5v.22a4.63,4.63,0,0,0,.14,1.25,2.21,2.21,0,0,0,.4.86,1.59,1.59,0,0,0,.63.49A2.18,2.18,0,0,0,122.93,138.92Z"/><path class="cls-1" d="M130.33,140.31a4.28,4.28,0,0,1-.83-.09,2.56,2.56,0,0,1-.84-.34,2,2,0,0,1-.65-.69,2.77,2.77,0,0,1,.14-2.53,2.62,2.62,0,0,1,1.09-.85,6,6,0,0,1,1.66-.43,17,17,0,0,1,2.11-.12v-.81a2,2,0,0,0-.13-.71,1,1,0,0,0-.48-.48,2.43,2.43,0,0,0-1-.17,2.49,2.49,0,0,0-1,.17,1,1,0,0,0-.51.4,1,1,0,0,0-.15.52v.23h-1.55a.81.81,0,0,1,0-.16v-.18a1.88,1.88,0,0,1,.41-1.23,2.54,2.54,0,0,1,1.15-.77,5.27,5.27,0,0,1,1.72-.26,4.47,4.47,0,0,1,1.75.3,2.29,2.29,0,0,1,1.06.86,2.42,2.42,0,0,1,.35,1.35v4.12a.51.51,0,0,0,.15.42.53.53,0,0,0,.35.12h.55v1.08a2.42,2.42,0,0,1-.46.16,2.46,2.46,0,0,1-.65.08,1.48,1.48,0,0,1-.7-.15,1.27,1.27,0,0,1-.47-.42,1.72,1.72,0,0,1-.23-.61h-.1a2.88,2.88,0,0,1-.67.63,3.11,3.11,0,0,1-.9.42A4.53,4.53,0,0,1,130.33,140.31ZM129,131l1.64-2h1.51l1.62,2h-1.43L131,129.34h.76L130.46,131Zm1.76,8a2.81,2.81,0,0,0,.89-.14,2,2,0,0,0,1.34-1.9v-.54a11.42,11.42,0,0,0-1.87.13,2.82,2.82,0,0,0-1.26.45,1.1,1.1,0,0,0-.44.92,1.11,1.11,0,0,0,.15.6.93.93,0,0,0,.46.36A2,2,0,0,0,130.78,139Z"/><path class="cls-1" d="M138.8,140.31a1.91,1.91,0,0,1-1.09-.27,1.42,1.42,0,0,1-.55-.69,2.53,2.53,0,0,1-.17-.91v-5.11h-1V132H137l.3-2.27h1.28V132h1.47v1.33H138.6v4.93a.87.87,0,0,0,.15.54.66.66,0,0,0,.51.18h.81v1.08a2.45,2.45,0,0,1-.38.12,3.4,3.4,0,0,1-.46.09A2.22,2.22,0,0,1,138.8,140.31Z"/><path class="cls-1" d="M144.86,140.31a4.44,4.44,0,0,1-2.1-.45,3,3,0,0,1-1.27-1.4,5.76,5.76,0,0,1-.43-2.4,5.7,5.7,0,0,1,.43-2.4,2.94,2.94,0,0,1,1.28-1.39,4.38,4.38,0,0,1,2.12-.46,4,4,0,0,1,1.94.44,2.82,2.82,0,0,1,1.18,1.34,5.51,5.51,0,0,1,.4,2.26v.61h-5.7a4.48,4.48,0,0,0,.26,1.45,1.67,1.67,0,0,0,.71.85,2.36,2.36,0,0,0,1.19.27,2.55,2.55,0,0,0,.81-.12,1.54,1.54,0,0,0,.6-.34,1.78,1.78,0,0,0,.39-.54,1.81,1.81,0,0,0,.14-.72h1.57a3.06,3.06,0,0,1-.25,1.29,2.41,2.41,0,0,1-.71.93,3.4,3.4,0,0,1-1.12.58A5.06,5.06,0,0,1,144.86,140.31Zm-2.12-5h4a3.59,3.59,0,0,0-.13-1,1.86,1.86,0,0,0-.38-.68,1.41,1.41,0,0,0-.59-.37,2.3,2.3,0,0,0-.77-.12,2.53,2.53,0,0,0-1.11.23,1.63,1.63,0,0,0-.7.72A3.35,3.35,0,0,0,142.74,135.29ZM144,131l1.3-2H147l0,.05-1.69,2Z"/><path class="cls-1" d="M153.42,140.31a4.37,4.37,0,0,1-2.09-.45,2.92,2.92,0,0,1-1.28-1.4,5.76,5.76,0,0,1-.43-2.4,5.7,5.7,0,0,1,.43-2.4,2.94,2.94,0,0,1,1.28-1.39,4.4,4.4,0,0,1,2.12-.46,4,4,0,0,1,1.94.44,2.82,2.82,0,0,1,1.18,1.34,5.51,5.51,0,0,1,.4,2.26v.61h-5.7a4.48,4.48,0,0,0,.26,1.45,1.67,1.67,0,0,0,.71.85,2.37,2.37,0,0,0,1.2.27,2.53,2.53,0,0,0,.8-.12,1.47,1.47,0,0,0,.6-.34,1.63,1.63,0,0,0,.39-.54,1.81,1.81,0,0,0,.14-.72h1.57a3.23,3.23,0,0,1-.24,1.29,2.54,2.54,0,0,1-.72.93,3.4,3.4,0,0,1-1.12.58A5,5,0,0,1,153.42,140.31Zm-2.12-5h4a3.26,3.26,0,0,0-.13-1,1.86,1.86,0,0,0-.38-.68,1.35,1.35,0,0,0-.59-.37,2.26,2.26,0,0,0-.77-.12,2.45,2.45,0,0,0-1.1.23,1.65,1.65,0,0,0-.71.72A3.35,3.35,0,0,0,151.3,135.29Z"/><path class="cls-1" d="M161.61,140.31a5.61,5.61,0,0,1-1.5-.18,3.61,3.61,0,0,1-1.08-.51,2.22,2.22,0,0,1-.66-.78,2.31,2.31,0,0,1-.22-1,.66.66,0,0,1,0-.14v-.1h1.59v.17a1.05,1.05,0,0,0,.27.76,1.35,1.35,0,0,0,.7.4,3.68,3.68,0,0,0,1,.12,2.86,2.86,0,0,0,.85-.12,1.55,1.55,0,0,0,.65-.34.79.79,0,0,0,.26-.59.83.83,0,0,0-.33-.71,2.4,2.4,0,0,0-.85-.4l-1.09-.31-1-.31a3.62,3.62,0,0,1-.91-.42,2.15,2.15,0,0,1-.65-.66,2,2,0,0,1-.25-1,2,2,0,0,1,.25-1,2.28,2.28,0,0,1,.69-.73,3.14,3.14,0,0,1,1-.45,5.61,5.61,0,0,1,1.34-.15A5,5,0,0,1,163,132a3.18,3.18,0,0,1,1,.46,2,2,0,0,1,.62.7,1.76,1.76,0,0,1,.22.87,1.21,1.21,0,0,1,0,.19c0,.07,0,.12,0,.14h-1.57v-.14a1,1,0,0,0-.17-.56,1.18,1.18,0,0,0-.53-.4,2.61,2.61,0,0,0-1-.16,3.63,3.63,0,0,0-.71.07,1.75,1.75,0,0,0-.51.2.76.76,0,0,0-.3.29.71.71,0,0,0-.1.39.66.66,0,0,0,.25.55,2.62,2.62,0,0,0,.67.32l.9.29,1.13.31a6.67,6.67,0,0,1,1.06.41,2.26,2.26,0,0,1,.79.68,2,2,0,0,1,.3,1.16,2.37,2.37,0,0,1-.27,1.16,2.08,2.08,0,0,1-.73.8,3.53,3.53,0,0,1-1.1.45A6.72,6.72,0,0,1,161.61,140.31Z"/><path class="cls-1" d="M169.69,142.88V132h1.76l.19,1.09h.11a2.51,2.51,0,0,1,1.05-1,3.38,3.38,0,0,1,1.44-.31,3.28,3.28,0,0,1,1.75.45,2.89,2.89,0,0,1,1.13,1.39,6.44,6.44,0,0,1,.39,2.43,6.06,6.06,0,0,1-.4,2.38,3,3,0,0,1-1.12,1.4,3.1,3.1,0,0,1-1.68.45,4.23,4.23,0,0,1-1-.11,2.35,2.35,0,0,1-.8-.37,2.32,2.32,0,0,1-.61-.6h-.09v3.65Zm3.88-4.33a1.82,1.82,0,0,0,1-.26,1.42,1.42,0,0,0,.55-.77,4.2,4.2,0,0,0,.17-1.27v-.36a4.34,4.34,0,0,0-.17-1.29,1.49,1.49,0,0,0-.55-.77,1.82,1.82,0,0,0-1-.26,1.7,1.7,0,0,0-1,.28,1.62,1.62,0,0,0-.57.81,3.9,3.9,0,0,0-.18,1.26v.27a4.28,4.28,0,0,0,.1,1,2.33,2.33,0,0,0,.32.75,1.49,1.49,0,0,0,.53.47A1.74,1.74,0,0,0,173.57,138.55Z"/><path class="cls-1" d="M179.09,140.13V132h1.78l.17,1.26h.1a3.67,3.67,0,0,1,.4-.73,2,2,0,0,1,.62-.53,1.75,1.75,0,0,1,.87-.2,1.86,1.86,0,0,1,.48,0l.32.1v2h-.66a2.39,2.39,0,0,0-.84.13,1.47,1.47,0,0,0-.62.41,1.77,1.77,0,0,0-.36.68,3.32,3.32,0,0,0-.11.94v4.07Z"/><path class="cls-1" d="M188.5,140.31a5.08,5.08,0,0,1-2.26-.45,3,3,0,0,1-1.37-1.4,5.43,5.43,0,0,1-.47-2.4,5.37,5.37,0,0,1,.47-2.4,3,3,0,0,1,1.37-1.39,4.78,4.78,0,0,1,2.21-.46,4.55,4.55,0,0,1,2.09.44,2.87,2.87,0,0,1,1.28,1.36,5.61,5.61,0,0,1,.43,2.37v.56h-5.67a3.77,3.77,0,0,0,.23,1.21,1.42,1.42,0,0,0,.6.73,2.12,2.12,0,0,0,1.09.24,2.31,2.31,0,0,0,.67-.09,1.53,1.53,0,0,0,.52-.28,1.27,1.27,0,0,0,.34-.47,1.54,1.54,0,0,0,.12-.63h2.1a3.16,3.16,0,0,1-.27,1.35,2.77,2.77,0,0,1-.78,1,3.5,3.5,0,0,1-1.18.57A5.6,5.6,0,0,1,188.5,140.31Zm-1.89-5.13H190a2.38,2.38,0,0,0-.11-.8,1.45,1.45,0,0,0-.32-.56,1.23,1.23,0,0,0-.48-.32,2.21,2.21,0,0,0-.65-.1,2.19,2.19,0,0,0-1,.2,1.35,1.35,0,0,0-.6.58A3.2,3.2,0,0,0,186.61,135.18Z"/><path class="cls-1" d="M193.83,140.13V132h1.78l.17,1.11h.1a3,3,0,0,1,.63-.69,2.52,2.52,0,0,1,.82-.45,3.06,3.06,0,0,1,2.32.15,2.07,2.07,0,0,1,.87,1h.11a2.77,2.77,0,0,1,.63-.69,2.57,2.57,0,0,1,.85-.45,3.11,3.11,0,0,1,1-.16,2.94,2.94,0,0,1,1.34.28,2,2,0,0,1,.89.9,3.62,3.62,0,0,1,.32,1.62v5.52h-2.14V135a2.1,2.1,0,0,0-.09-.66,1.1,1.1,0,0,0-.24-.43.86.86,0,0,0-.39-.24,1.57,1.57,0,0,0-.49-.08,1.34,1.34,0,0,0-.77.23,1.65,1.65,0,0,0-.54.63,2.12,2.12,0,0,0-.19.93v4.75h-2.15V135a2.48,2.48,0,0,0-.08-.66,1.1,1.1,0,0,0-.24-.43,1,1,0,0,0-.38-.24,1.59,1.59,0,0,0-.5-.08,1.39,1.39,0,0,0-.77.23,1.65,1.65,0,0,0-.54.63,2.12,2.12,0,0,0-.19.93v4.75Z"/><path class="cls-1" d="M207.6,130.81V129h2.15v1.86Zm0,9.32V132h2.15v8.13Z"/><path class="cls-1" d="M214.35,140.31a2.76,2.76,0,0,1-2-.68,2.89,2.89,0,0,1-.73-2.19V132h2.15v5.08a2.13,2.13,0,0,0,.09.67,1.27,1.27,0,0,0,.27.44,1,1,0,0,0,.45.25,2.08,2.08,0,0,0,.58.08,1.71,1.71,0,0,0,.87-.23,1.61,1.61,0,0,0,.6-.64,2,2,0,0,0,.22-.92V132H219v8.13h-1.77l-.15-1.12H217a3.18,3.18,0,0,1-.69.68,3,3,0,0,1-.89.46A3.4,3.4,0,0,1,214.35,140.31Z"/><path class="cls-1" d="M221,140.13V132h1.78l.17,1.11h.11a2.74,2.74,0,0,1,.62-.69,2.63,2.63,0,0,1,.82-.45,2.88,2.88,0,0,1,1-.16,2.82,2.82,0,0,1,1.34.31,2,2,0,0,1,.87,1h.11a2.81,2.81,0,0,1,.64-.69,2.47,2.47,0,0,1,.85-.45,3.11,3.11,0,0,1,1-.16,2.9,2.9,0,0,1,1.33.28,2,2,0,0,1,.89.9,3.48,3.48,0,0,1,.33,1.62v5.52h-2.15V135a2.1,2.1,0,0,0-.09-.66.9.9,0,0,0-.24-.43.88.88,0,0,0-.38-.24,1.64,1.64,0,0,0-.5-.08,1.37,1.37,0,0,0-.77.23,1.55,1.55,0,0,0-.53.63,2.12,2.12,0,0,0-.2.93v4.75h-2.14V135a2.1,2.1,0,0,0-.09-.66,1.1,1.1,0,0,0-.24-.43.88.88,0,0,0-.38-.24,1.59,1.59,0,0,0-.5-.08,1.42,1.42,0,0,0-.77.23,1.65,1.65,0,0,0-.54.63,2.12,2.12,0,0,0-.19.93v4.75Z"/><path class="cls-1" d="M238.07,140.31a6.06,6.06,0,0,1-1.53-.18,4,4,0,0,1-1.16-.52,2.41,2.41,0,0,1-.73-.8,2.14,2.14,0,0,1-.25-1.05v-.12a.31.31,0,0,1,0-.1h2.07v.13a.88.88,0,0,0,.25.62,1.31,1.31,0,0,0,.61.35,3,3,0,0,0,.8.11,3.35,3.35,0,0,0,.71-.07,1.44,1.44,0,0,0,.59-.25.6.6,0,0,0,.24-.48.64.64,0,0,0-.3-.57,2.32,2.32,0,0,0-.79-.33l-1.06-.28c-.35-.08-.7-.18-1.05-.28a3.93,3.93,0,0,1-.95-.43,2.07,2.07,0,0,1-.69-.69,2,2,0,0,1-.26-1.07,2.07,2.07,0,0,1,.28-1.1,2.18,2.18,0,0,1,.76-.78,3.6,3.6,0,0,1,1.15-.46,6.35,6.35,0,0,1,1.41-.15,5.58,5.58,0,0,1,1.33.15,3.75,3.75,0,0,1,1.08.43,2.26,2.26,0,0,1,.73.71,1.83,1.83,0,0,1,.26,1v.2a.38.38,0,0,1,0,.13h-2.06v-.13a.71.71,0,0,0-.17-.47,1,1,0,0,0-.49-.3,2.39,2.39,0,0,0-.76-.11,3.15,3.15,0,0,0-.56,0,1.83,1.83,0,0,0-.45.14.91.91,0,0,0-.28.22.51.51,0,0,0-.1.32.48.48,0,0,0,.22.42,1.86,1.86,0,0,0,.6.27l.82.24,1.16.3a6.36,6.36,0,0,1,1.14.39,2.24,2.24,0,0,1,.85.7,2.08,2.08,0,0,1,.32,1.23,2.55,2.55,0,0,1-.28,1.26,2.14,2.14,0,0,1-.8.81,3.51,3.51,0,0,1-1.19.45A7.49,7.49,0,0,1,238.07,140.31Z"/><path class="cls-1" d="M22.75,90.43V77.86h6.54a4.69,4.69,0,0,1,2.26.5,3.38,3.38,0,0,1,1.37,1.41,4.71,4.71,0,0,1,.47,2.16,4.54,4.54,0,0,1-.49,2.17,3.49,3.49,0,0,1-1.41,1.44,4.75,4.75,0,0,1-2.29.51H25.48v4.38Zm2.73-6.62h3.35a1.74,1.74,0,0,0,1.33-.49A1.93,1.93,0,0,0,30.62,82a2.17,2.17,0,0,0-.2-1,1.44,1.44,0,0,0-.59-.63,2.14,2.14,0,0,0-1-.22H25.48Z"/><path class="cls-1" d="M39.16,90.65a6.07,6.07,0,0,1-2.67-.54,3.55,3.55,0,0,1-1.63-1.66,7.63,7.63,0,0,1,0-5.69,3.51,3.51,0,0,1,1.62-1.65,5.79,5.79,0,0,1,2.63-.54,5.43,5.43,0,0,1,2.47.52,3.38,3.38,0,0,1,1.52,1.62,6.63,6.63,0,0,1,.51,2.81v.66H36.89a4.39,4.39,0,0,0,.26,1.42,1.66,1.66,0,0,0,.72.87,2.51,2.51,0,0,0,1.29.29,2.86,2.86,0,0,0,.8-.11,1.57,1.57,0,0,0,.61-.33,1.48,1.48,0,0,0,.4-.55,1.79,1.79,0,0,0,.15-.75h2.49a3.58,3.58,0,0,1-.33,1.59,3.14,3.14,0,0,1-.91,1.13,4.3,4.3,0,0,1-1.41.68A6.71,6.71,0,0,1,39.16,90.65Zm-2.23-6.09H41a2.75,2.75,0,0,0-.14-1,1.75,1.75,0,0,0-.37-.66,1.41,1.41,0,0,0-.58-.37,2.24,2.24,0,0,0-.76-.12,2.53,2.53,0,0,0-1.16.23,1.6,1.6,0,0,0-.72.69A3.59,3.59,0,0,0,36.93,84.56Z"/><path class="cls-1" d="M45.48,90.43V80.79h2.11l.2,1.32h.13a3.42,3.42,0,0,1,.79-.82,3.54,3.54,0,0,1,1.06-.54,4.3,4.3,0,0,1,1.28-.18,3.76,3.76,0,0,1,1.66.35A2.41,2.41,0,0,1,53.82,82a4.11,4.11,0,0,1,.4,2v6.45H51.67V84.38a2.57,2.57,0,0,0-.11-.78,1.35,1.35,0,0,0-.32-.53,1.17,1.17,0,0,0-.52-.3,2.53,2.53,0,0,0-.7-.09A1.94,1.94,0,0,0,49,83a2,2,0,0,0-.72.75A2.32,2.32,0,0,0,48,84.8v5.63Z"/><path class="cls-1" d="M60.41,90.65a7.26,7.26,0,0,1-1.82-.22,4.43,4.43,0,0,1-1.37-.62,2.68,2.68,0,0,1-.87-.94,2.57,2.57,0,0,1-.3-1.25v-.14s0-.09,0-.11h2.45v.14a1.06,1.06,0,0,0,.29.74,1.69,1.69,0,0,0,.73.42,3.62,3.62,0,0,0,.94.13,4,4,0,0,0,.85-.09,1.54,1.54,0,0,0,.7-.3.68.68,0,0,0,.28-.57.76.76,0,0,0-.35-.67,3.06,3.06,0,0,0-.94-.39l-1.25-.33c-.42-.1-.83-.21-1.25-.34a5,5,0,0,1-1.13-.5,2.54,2.54,0,0,1-.81-.82,2.34,2.34,0,0,1-.31-1.27,2.52,2.52,0,0,1,.33-1.31,2.73,2.73,0,0,1,.9-.92,4,4,0,0,1,1.36-.54,7.46,7.46,0,0,1,1.68-.18,6.56,6.56,0,0,1,1.57.18,4,4,0,0,1,1.28.51,2.39,2.39,0,0,1,.86.84,2.1,2.1,0,0,1,.32,1.13v.23a.4.4,0,0,1,0,.15H62.11v-.15a.83.83,0,0,0-.2-.55,1.2,1.2,0,0,0-.58-.36,2.67,2.67,0,0,0-.9-.13,3.4,3.4,0,0,0-.67.06,1.77,1.77,0,0,0-.52.16.85.85,0,0,0-.34.27.59.59,0,0,0-.12.37.62.62,0,0,0,.26.51,2.78,2.78,0,0,0,.71.32l1,.27,1.38.36a6.52,6.52,0,0,1,1.35.47,2.56,2.56,0,0,1,1,.83,2.5,2.5,0,0,1,.38,1.46A3,3,0,0,1,64.5,89a2.57,2.57,0,0,1-.94,1,4.45,4.45,0,0,1-1.41.53A8.7,8.7,0,0,1,60.41,90.65Z"/><path class="cls-1" d="M71.07,90.65a6.15,6.15,0,0,1-2.68-.54,3.59,3.59,0,0,1-1.63-1.66,7.63,7.63,0,0,1,0-5.69,3.6,3.6,0,0,1,1.62-1.65A5.84,5.84,0,0,1,71,80.57a5.48,5.48,0,0,1,2.48.52A3.38,3.38,0,0,1,75,82.71a6.63,6.63,0,0,1,.51,2.81v.66H68.8a4.39,4.39,0,0,0,.26,1.42,1.62,1.62,0,0,0,.72.87,2.51,2.51,0,0,0,1.29.29,2.86,2.86,0,0,0,.8-.11,1.64,1.64,0,0,0,.61-.33,1.59,1.59,0,0,0,.4-.55A1.79,1.79,0,0,0,73,87h2.49a3.58,3.58,0,0,1-.33,1.59,3.06,3.06,0,0,1-.92,1.13,4.15,4.15,0,0,1-1.4.68A6.71,6.71,0,0,1,71.07,90.65Zm-2.24-6.09H72.9a3,3,0,0,0-.14-1,1.75,1.75,0,0,0-.37-.66,1.41,1.41,0,0,0-.58-.37,2.29,2.29,0,0,0-.76-.12,2.53,2.53,0,0,0-1.16.23,1.6,1.6,0,0,0-.72.69A3.59,3.59,0,0,0,68.83,84.56Zm.85-5,1.52-2.42h2.62l0,.06L71.66,79.6Z"/><path class="cls-1" d="M83.47,90.65a5.08,5.08,0,0,1-1-.11,3.11,3.11,0,0,1-1-.41,2.2,2.2,0,0,1-.76-.81A2.87,2.87,0,0,1,80.43,88a2.71,2.71,0,0,1,.46-1.63,3,3,0,0,1,1.28-1,6.89,6.89,0,0,1,2-.52,21.25,21.25,0,0,1,2.5-.14v-1a2.06,2.06,0,0,0-.16-.84,1.13,1.13,0,0,0-.57-.57,2.79,2.79,0,0,0-1.18-.2,3.2,3.2,0,0,0-1.2.19,1.3,1.3,0,0,0-.6.48,1.11,1.11,0,0,0-.18.61v.28H80.92a1.11,1.11,0,0,1,0-.19v-.21a2.26,2.26,0,0,1,.49-1.46,3,3,0,0,1,1.36-.91,6.08,6.08,0,0,1,2-.31,5.28,5.28,0,0,1,2.08.36,2.66,2.66,0,0,1,1.25,1,2.88,2.88,0,0,1,.42,1.59v4.89a.59.59,0,0,0,.18.49.59.59,0,0,0,.41.15h.66v1.28l-.55.19a3,3,0,0,1-.77.09,1.73,1.73,0,0,1-.83-.18,1.37,1.37,0,0,1-.55-.49,2,2,0,0,1-.29-.72h-.11a3.73,3.73,0,0,1-.79.74,3.68,3.68,0,0,1-1.08.49A4.69,4.69,0,0,1,83.47,90.65ZM84,89.07a3.21,3.21,0,0,0,1-.17,2.35,2.35,0,0,0,.84-.5,2.34,2.34,0,0,0,.75-1.75V86a14.53,14.53,0,0,0-2.22.15,3.37,3.37,0,0,0-1.48.54,1.26,1.26,0,0,0-.53,1.09,1.28,1.28,0,0,0,.18.7,1.05,1.05,0,0,0,.55.43A2.24,2.24,0,0,0,84,89.07Z"/><path class="cls-1" d="M93.62,90.43,90,80.79h2l1.67,4.6.27.85.33,1.07.3,1h.09c.07-.28.16-.6.26-1s.21-.72.32-1.07.21-.65.3-.88l1.65-4.6h1.94l-3.59,9.64Z"/><path class="cls-1" d="M104.52,90.65a5.33,5.33,0,0,1-2.49-.54,3.5,3.5,0,0,1-1.51-1.66,8.19,8.19,0,0,1,0-5.69A3.45,3.45,0,0,1,102,81.11a5.27,5.27,0,0,1,2.51-.54,4.71,4.71,0,0,1,2.3.52,3.32,3.32,0,0,1,1.4,1.59,6.51,6.51,0,0,1,.48,2.67v.73H102a5.14,5.14,0,0,0,.31,1.72,1.93,1.93,0,0,0,.83,1,2.79,2.79,0,0,0,1.42.33,3.13,3.13,0,0,0,1-.14,1.92,1.92,0,0,0,.71-.41,1.75,1.75,0,0,0,.46-.64,2.08,2.08,0,0,0,.16-.85h1.87a3.78,3.78,0,0,1-.29,1.52,3,3,0,0,1-.85,1.11,4.1,4.1,0,0,1-1.33.69A5.68,5.68,0,0,1,104.52,90.65Zm-2.51-6h4.72a4.18,4.18,0,0,0-.15-1.2,2.16,2.16,0,0,0-.45-.79,1.69,1.69,0,0,0-.7-.45,2.85,2.85,0,0,0-.91-.14,2.89,2.89,0,0,0-1.31.27,1.94,1.94,0,0,0-.84.86A3.85,3.85,0,0,0,102,84.69Z"/><path class="cls-1" d="M114.5,90.65a5,5,0,0,1-2.42-.54,3.41,3.41,0,0,1-1.46-1.66,7.25,7.25,0,0,1-.48-2.84,7,7,0,0,1,.49-2.83,3.44,3.44,0,0,1,1.48-1.66,4.8,4.8,0,0,1,2.41-.55,5.24,5.24,0,0,1,1.72.25,3.26,3.26,0,0,1,1.24.73,2.84,2.84,0,0,1,.76,1.2,4.85,4.85,0,0,1,.25,1.63h-1.92a3.24,3.24,0,0,0-.22-1.26,1.49,1.49,0,0,0-.68-.74,2.42,2.42,0,0,0-1.19-.25,2.26,2.26,0,0,0-1.3.36,2.18,2.18,0,0,0-.81,1.08,5.49,5.49,0,0,0-.27,1.89v.31a5.74,5.74,0,0,0,.26,1.86,2.13,2.13,0,0,0,.81,1.1,2.44,2.44,0,0,0,1.38.36,2.27,2.27,0,0,0,1.18-.27,1.61,1.61,0,0,0,.68-.77,2.93,2.93,0,0,0,.23-1.21h1.85a4.46,4.46,0,0,1-.25,1.55,3,3,0,0,1-.75,1.2,3.25,3.25,0,0,1-1.25.78A5.12,5.12,0,0,1,114.5,90.65Z"/><path class="cls-1" d="M127.19,90.65a3.29,3.29,0,0,1-2.25-.75,3.2,3.2,0,0,1-.86-2.53V80.79H126v6.28a2.66,2.66,0,0,0,.14.92,1.45,1.45,0,0,0,.39.59,1.68,1.68,0,0,0,.61.31,3.07,3.07,0,0,0,.77.09,2.34,2.34,0,0,0,1.2-.32,2.43,2.43,0,0,0,.87-.9,2.62,2.62,0,0,0,.33-1.33V80.79h1.9v9.64h-1.55l-.17-1.38h-.13a3.15,3.15,0,0,1-.82.88,3.63,3.63,0,0,1-1.06.53A4.18,4.18,0,0,1,127.19,90.65Z"/><path class="cls-1" d="M134.65,90.43V80.79h1.57l.17,1.38h.13a3.15,3.15,0,0,1,.82-.88,3.73,3.73,0,0,1,1-.54,4.3,4.3,0,0,1,1.28-.18,3.89,3.89,0,0,1,1.61.32,2.38,2.38,0,0,1,1.09,1,4,4,0,0,1,.39,1.92v6.58h-1.9V84.14a2.64,2.64,0,0,0-.14-.91,1.39,1.39,0,0,0-.39-.59,1.54,1.54,0,0,0-.61-.31,3.07,3.07,0,0,0-.77-.09,2.25,2.25,0,0,0-1.2.32,2.4,2.4,0,0,0-.87.89,2.6,2.6,0,0,0-.33,1.33v5.65Z"/><path class="cls-1" d="M151.33,90.43l-3.59-9.64h2.7l1.41,4.07c.07.21.16.48.26.82s.21.7.32,1.08.2.72.28,1h.09c.08-.28.18-.61.27-1s.2-.73.31-1.08.19-.64.26-.87l1.41-4.07h2.57L154,90.43Z"/><path class="cls-1" d="M163.24,90.65a6.07,6.07,0,0,1-2.67-.54,3.57,3.57,0,0,1-1.64-1.66,7.76,7.76,0,0,1,0-5.69,3.57,3.57,0,0,1,1.63-1.65,5.77,5.77,0,0,1,2.62-.54,5.45,5.45,0,0,1,2.48.52,3.38,3.38,0,0,1,1.52,1.62,6.63,6.63,0,0,1,.51,2.81v.66H161a4.39,4.39,0,0,0,.26,1.42,1.66,1.66,0,0,0,.72.87,2.51,2.51,0,0,0,1.29.29,2.86,2.86,0,0,0,.8-.11,1.64,1.64,0,0,0,.61-.33,1.48,1.48,0,0,0,.4-.55,1.79,1.79,0,0,0,.15-.75h2.49a3.58,3.58,0,0,1-.33,1.59,3.14,3.14,0,0,1-.91,1.13,4.3,4.3,0,0,1-1.41.68A6.71,6.71,0,0,1,163.24,90.65ZM161,84.56h4.07a2.75,2.75,0,0,0-.14-1,1.75,1.75,0,0,0-.37-.66,1.41,1.41,0,0,0-.58-.37,2.29,2.29,0,0,0-.76-.12,2.53,2.53,0,0,0-1.16.23,1.6,1.6,0,0,0-.72.69A3.84,3.84,0,0,0,161,84.56Zm.85-5,1.52-2.42H166l0,.06-2.19,2.36Z"/><path class="cls-1" d="M172.44,90.65a3,3,0,0,1-1.49-.33,2,2,0,0,1-.82-.89,3,3,0,0,1-.26-1.24V82.75h-1.19v-2H170l.48-2.75h2v2.75h1.76v2h-1.76v5a1,1,0,0,0,.2.67.84.84,0,0,0,.66.23h.9v1.68a4.25,4.25,0,0,1-.52.14l-.62.11A4.54,4.54,0,0,1,172.44,90.65Z"/><path class="cls-1" d="M180.2,90.65a6.07,6.07,0,0,1-2.67-.54,3.55,3.55,0,0,1-1.63-1.66,7.63,7.63,0,0,1,0-5.69,3.51,3.51,0,0,1,1.62-1.65,5.79,5.79,0,0,1,2.63-.54,5.43,5.43,0,0,1,2.47.52,3.38,3.38,0,0,1,1.52,1.62,6.63,6.63,0,0,1,.51,2.81v.66h-6.72a4.12,4.12,0,0,0,.27,1.42,1.6,1.6,0,0,0,.71.87,2.51,2.51,0,0,0,1.29.29,2.86,2.86,0,0,0,.8-.11,1.57,1.57,0,0,0,.61-.33,1.48,1.48,0,0,0,.4-.55,1.79,1.79,0,0,0,.15-.75h2.49a3.58,3.58,0,0,1-.33,1.59,3.14,3.14,0,0,1-.91,1.13,4.25,4.25,0,0,1-1.4.68A6.84,6.84,0,0,1,180.2,90.65ZM178,84.56H182a3,3,0,0,0-.13-1,1.91,1.91,0,0,0-.38-.66,1.41,1.41,0,0,0-.58-.37,2.24,2.24,0,0,0-.76-.12,2.53,2.53,0,0,0-1.16.23,1.53,1.53,0,0,0-.71.69A3.36,3.36,0,0,0,178,84.56Zm.84-5,1.52-2.42H183l0,.06-2.2,2.36Z"/><path class="cls-1" d="M186.52,90.43V80.79h2.11l.2,1.5H189a4.06,4.06,0,0,1,.47-.87,2.26,2.26,0,0,1,.74-.63,2.08,2.08,0,0,1,1-.24,2,2,0,0,1,.57.07,1.91,1.91,0,0,1,.38.12V83h-.78a3,3,0,0,0-1,.16,1.73,1.73,0,0,0-.73.48,2.32,2.32,0,0,0-.43.81,4.15,4.15,0,0,0-.13,1.12v4.82Z"/><path class="cls-1" d="M193.48,79.38v-2.2H196v2.2Zm0,11.05V80.79H196v9.64Z"/><path class="cls-1" d="M198.37,90.43V80.79h2.11l.2,1.32h.13a3.28,3.28,0,0,1,.8-.82,3.48,3.48,0,0,1,1-.54,4.35,4.35,0,0,1,1.28-.18,3.8,3.8,0,0,1,1.67.35,2.51,2.51,0,0,1,1.11,1.1,4.24,4.24,0,0,1,.39,2v6.45h-2.55V84.38a2.3,2.3,0,0,0-.11-.78,1.35,1.35,0,0,0-.32-.53,1.17,1.17,0,0,0-.52-.3,2.5,2.5,0,0,0-.69-.09,2,2,0,0,0-1,.27,2.07,2.07,0,0,0-.72.75,2.32,2.32,0,0,0-.25,1.1v5.63Z"/><path class="cls-1" d="M212,90.65a5.38,5.38,0,0,1-1-.11,3.44,3.44,0,0,1-1-.4,2.13,2.13,0,0,1-.78-.82,2.84,2.84,0,0,1-.3-1.39,3,3,0,0,1,.44-1.66,2.91,2.91,0,0,1,1.26-1,6.74,6.74,0,0,1,1.95-.52,19.14,19.14,0,0,1,2.51-.15v-.71a1.83,1.83,0,0,0-.14-.73,1.05,1.05,0,0,0-.48-.5,2,2,0,0,0-.94-.18,2.69,2.69,0,0,0-1,.15,1,1,0,0,0-.53.37.83.83,0,0,0-.16.5v.22h-2.47a1,1,0,0,1,0-.17V83.3a2.22,2.22,0,0,1,.51-1.46,3.39,3.39,0,0,1,1.45-.94,6.53,6.53,0,0,1,2.18-.33,6.31,6.31,0,0,1,2.24.35,2.93,2.93,0,0,1,1.4,1,2.85,2.85,0,0,1,.48,1.7V88a.59.59,0,0,0,.19.48.66.66,0,0,0,.43.16h.61v1.66a2.56,2.56,0,0,1-.57.2,4.14,4.14,0,0,1-.93.1,2.56,2.56,0,0,1-.95-.16,1.78,1.78,0,0,1-.68-.44,1.57,1.57,0,0,1-.39-.69h-.13a2.94,2.94,0,0,1-.76.68,3.53,3.53,0,0,1-1,.46A5.11,5.11,0,0,1,212,90.65Zm.86-1.93a2.59,2.59,0,0,0,.91-.15,2.18,2.18,0,0,0,.68-.42,1.94,1.94,0,0,0,.43-.65,2.31,2.31,0,0,0,.16-.83v-.53a11.21,11.21,0,0,0-1.84.14,3.1,3.1,0,0,0-1.27.46,1.07,1.07,0,0,0-.47.92,1,1,0,0,0,.17.57,1,1,0,0,0,.47.36A1.92,1.92,0,0,0,212.81,88.72Z"/><path class="cls-1" d="M220,79.38v-2.2h2.55v2.2Zm0,11.05V80.79h2.55v9.64Z"/><path class="cls-1" d="M224.91,90.43V80.79H227l.2,1.5h.13a3.7,3.7,0,0,1,.48-.87,2.22,2.22,0,0,1,.73-.63,2.08,2.08,0,0,1,1-.24,2,2,0,0,1,.57.07,2.32,2.32,0,0,1,.39.12V83h-.79a3,3,0,0,0-1,.16,1.64,1.64,0,0,0-.72.48,2,2,0,0,0-.43.81,4.13,4.13,0,0,0-.14,1.12v4.82Z"/><path class="cls-1" d="M236.07,90.65a6.15,6.15,0,0,1-2.68-.54,3.59,3.59,0,0,1-1.63-1.66,7.63,7.63,0,0,1,0-5.69,3.6,3.6,0,0,1,1.62-1.65,5.84,5.84,0,0,1,2.63-.54,5.48,5.48,0,0,1,2.48.52A3.38,3.38,0,0,1,240,82.71a6.63,6.63,0,0,1,.51,2.81v.66H233.8a4.39,4.39,0,0,0,.26,1.42,1.62,1.62,0,0,0,.72.87,2.51,2.51,0,0,0,1.29.29,2.86,2.86,0,0,0,.8-.11,1.64,1.64,0,0,0,.61-.33,1.59,1.59,0,0,0,.4-.55A1.79,1.79,0,0,0,238,87h2.49a3.58,3.58,0,0,1-.33,1.59,3.06,3.06,0,0,1-.92,1.13,4.15,4.15,0,0,1-1.4.68A6.71,6.71,0,0,1,236.07,90.65Zm-2.24-6.09h4.07a3,3,0,0,0-.14-1,1.75,1.75,0,0,0-.37-.66,1.41,1.41,0,0,0-.58-.37,2.29,2.29,0,0,0-.76-.12,2.53,2.53,0,0,0-1.16.23,1.6,1.6,0,0,0-.72.69A3.59,3.59,0,0,0,233.83,84.56Z"/><path class="cls-1" d="M26.58,112.63a5.21,5.21,0,0,1-2.49-.54,3.5,3.5,0,0,1-1.51-1.66,8.19,8.19,0,0,1,0-5.69,3.45,3.45,0,0,1,1.52-1.65,5.27,5.27,0,0,1,2.51-.54,4.71,4.71,0,0,1,2.3.52,3.27,3.27,0,0,1,1.4,1.59,6.51,6.51,0,0,1,.48,2.67v.74H24a5.12,5.12,0,0,0,.31,1.71,2,2,0,0,0,.83,1,2.9,2.9,0,0,0,1.42.32,3.13,3.13,0,0,0,1-.14,2,2,0,0,0,.71-.4,1.88,1.88,0,0,0,.46-.65,2.08,2.08,0,0,0,.16-.85h1.87a3.78,3.78,0,0,1-.29,1.52,3,3,0,0,1-.85,1.11,4.1,4.1,0,0,1-1.33.69A5.68,5.68,0,0,1,26.58,112.63Zm-2.51-6h4.72a4.18,4.18,0,0,0-.15-1.2,2.16,2.16,0,0,0-.45-.79,1.69,1.69,0,0,0-.7-.45,2.85,2.85,0,0,0-.91-.14,2.76,2.76,0,0,0-1.31.28,1.87,1.87,0,0,0-.84.85A4.05,4.05,0,0,0,24.07,106.67Z"/><path class="cls-1" d="M35.13,112.63a2.28,2.28,0,0,1-1.29-.32,1.78,1.78,0,0,1-.66-.83,2.9,2.9,0,0,1-.19-1.07v-6.06H31.78v-1.58H33l.35-2.69h1.52v2.69h1.74v1.58H34.89v5.84a.94.94,0,0,0,.19.64.72.72,0,0,0,.6.22h1v1.28a2.69,2.69,0,0,1-.45.14l-.54.11A3.14,3.14,0,0,1,35.13,112.63Z"/><path class="cls-1" d="M45.09,112.63a3.32,3.32,0,0,1-2.25-.75,3.2,3.2,0,0,1-.86-2.53v-6.58h1.91v6.28A2.68,2.68,0,0,0,44,110a1.47,1.47,0,0,0,.4.59,1.56,1.56,0,0,0,.6.31,3.07,3.07,0,0,0,.77.09,2.34,2.34,0,0,0,1.2-.32,2.43,2.43,0,0,0,.87-.9,2.62,2.62,0,0,0,.33-1.33v-5.64h1.9v9.64H48.54L48.37,111h-.12a3.33,3.33,0,0,1-.83.88,3.71,3.71,0,0,1-1.05.53A4.3,4.3,0,0,1,45.09,112.63Z"/><path class="cls-1" d="M52.55,112.41v-9.64h1.58l.16,1.38h.13a3.15,3.15,0,0,1,.82-.88,3.66,3.66,0,0,1,1.06-.54,4.19,4.19,0,0,1,1.27-.18,3.85,3.85,0,0,1,1.61.32,2.38,2.38,0,0,1,1.09,1,4,4,0,0,1,.39,1.92v6.58h-1.9v-6.29a2.64,2.64,0,0,0-.14-.91,1.39,1.39,0,0,0-.39-.59,1.41,1.41,0,0,0-.61-.31,3.07,3.07,0,0,0-.77-.09,2.34,2.34,0,0,0-1.2.32,2.4,2.4,0,0,0-.87.89,2.6,2.6,0,0,0-.33,1.33v5.65Z"/><path class="cls-1" d="M66.74,112.41v-9.64h2.11l.2,1.32h.13A3.62,3.62,0,0,1,71,102.73a4.35,4.35,0,0,1,1.28-.18,3.8,3.8,0,0,1,1.67.35,2.41,2.41,0,0,1,1.11,1.1,4.24,4.24,0,0,1,.39,2v6.45H72.94v-6a2.57,2.57,0,0,0-.11-.78,1.47,1.47,0,0,0-.32-.53,1.21,1.21,0,0,0-.53-.3,2.45,2.45,0,0,0-.69-.09,2,2,0,0,0-1,.27,2,2,0,0,0-.71.75,2.32,2.32,0,0,0-.26,1.1v5.63Z"/><path class="cls-1" d="M80.89,112.63a3.26,3.26,0,0,1-2.33-.81,3.43,3.43,0,0,1-.86-2.6v-6.45h2.55v6a2.53,2.53,0,0,0,.1.79,1.53,1.53,0,0,0,.32.53,1.36,1.36,0,0,0,.53.29,2.45,2.45,0,0,0,.69.09,1.89,1.89,0,0,0,1.74-1,2.34,2.34,0,0,0,.26-1.09v-5.61h2.55v9.64H84.35l-.18-1.32H84a4.44,4.44,0,0,1-.82.8,3.27,3.27,0,0,1-1,.54A4,4,0,0,1,80.89,112.63Z"/><path class="cls-1" d="M91.66,112.63a3,3,0,0,1-1.49-.33,2,2,0,0,1-.82-.89,3,3,0,0,1-.26-1.24v-5.44H87.9v-2h1.28l.48-2.75h2v2.75H93.4v2H91.64v5a1,1,0,0,0,.2.67.84.84,0,0,0,.66.23h.9v1.68a4.25,4.25,0,0,1-.52.14l-.62.11A4.54,4.54,0,0,1,91.66,112.63Z"/><path class="cls-1" d="M95,112.41v-9.64h2.11l.2,1.5h.13a3.7,3.7,0,0,1,.48-.87,2.22,2.22,0,0,1,.73-.63,2.08,2.08,0,0,1,1-.24,2,2,0,0,1,.57.07,2.32,2.32,0,0,1,.39.12V105h-.79a3,3,0,0,0-1,.16,1.66,1.66,0,0,0-.72.49,1.93,1.93,0,0,0-.43.8,4.13,4.13,0,0,0-.14,1.12v4.82Z"/><path class="cls-1" d="M102,101.36v-2.2h2.55v2.2Zm0,11v-9.64h2.55v9.64Z"/><path class="cls-1" d="M109.77,112.63a2.92,2.92,0,0,1-1.48-.33,2,2,0,0,1-.83-.89,3,3,0,0,1-.25-1.24v-5.44H106v-2h1.28l.48-2.75h2v2.75h1.76v2h-1.76v5a1,1,0,0,0,.21.67.83.83,0,0,0,.65.23h.9v1.68a4.06,4.06,0,0,1-.51.14l-.62.11A4.55,4.55,0,0,1,109.77,112.63Z"/><path class="cls-1" d="M113.16,101.36v-2.2h2.55v2.2Zm0,11v-9.64h2.55v9.64Z"/><path class="cls-1" d="M122.48,112.63a6,6,0,0,1-2.67-.54,3.65,3.65,0,0,1-1.67-1.67,7.48,7.48,0,0,1,0-5.68,3.65,3.65,0,0,1,1.67-1.65,6,6,0,0,1,2.67-.54,6.09,6.09,0,0,1,2.71.54,3.66,3.66,0,0,1,1.65,1.65,7.36,7.36,0,0,1,0,5.68,3.66,3.66,0,0,1-1.65,1.67A6.09,6.09,0,0,1,122.48,112.63Zm0-2a2.62,2.62,0,0,0,1.35-.31,1.82,1.82,0,0,0,.74-1,4.47,4.47,0,0,0,.24-1.57v-.44a4.57,4.57,0,0,0-.24-1.58,1.9,1.9,0,0,0-.74-1,2.52,2.52,0,0,0-1.35-.32,2.43,2.43,0,0,0-1.32.32,1.92,1.92,0,0,0-.75,1,4.58,4.58,0,0,0-.23,1.58v.44a4.49,4.49,0,0,0,.23,1.57,1.83,1.83,0,0,0,.75,1A2.53,2.53,0,0,0,122.48,110.65Z"/><path class="cls-1" d="M129.28,112.41v-9.64h2.11l.2,1.32h.13a3.51,3.51,0,0,1,1.85-1.36,4.3,4.3,0,0,1,1.28-.18,3.76,3.76,0,0,1,1.66.35,2.41,2.41,0,0,1,1.11,1.1,4.11,4.11,0,0,1,.4,2v6.45h-2.55v-6a2.57,2.57,0,0,0-.11-.78,1.35,1.35,0,0,0-.32-.53,1.17,1.17,0,0,0-.52-.3,2.53,2.53,0,0,0-.7-.09,1.94,1.94,0,0,0-1,.27,2,2,0,0,0-.72.75,2.32,2.32,0,0,0-.25,1.1v5.63Z"/><path class="cls-1" d="M140.31,112.41v-9.64h2.1l.2,1.32h.13a3.62,3.62,0,0,1,1.85-1.36,4.37,4.37,0,0,1,1.29-.18,3.76,3.76,0,0,1,1.66.35,2.41,2.41,0,0,1,1.11,1.1,4.24,4.24,0,0,1,.39,2v6.45H146.5v-6a2.57,2.57,0,0,0-.11-.78,1.47,1.47,0,0,0-.32-.53,1.21,1.21,0,0,0-.53-.3,2.4,2.4,0,0,0-.69-.09,2,2,0,0,0-1,.27,2,2,0,0,0-.71.75,2.32,2.32,0,0,0-.26,1.1v5.63Z"/><path class="cls-1" d="M151.33,101.36v-2.2h2.55v2.2Zm0,11v-9.64h2.55v9.64Z"/><path class="cls-1" d="M160.13,112.63a7.2,7.2,0,0,1-1.82-.22,4.32,4.32,0,0,1-1.37-.62,2.68,2.68,0,0,1-.87-.94,2.57,2.57,0,0,1-.3-1.25v-.14a.31.31,0,0,1,0-.11h2.46v.14a1.1,1.1,0,0,0,.29.75,1.72,1.72,0,0,0,.73.41,3.56,3.56,0,0,0,.94.13,4,4,0,0,0,.85-.09,1.54,1.54,0,0,0,.7-.3.67.67,0,0,0,.28-.57.75.75,0,0,0-.36-.67,3,3,0,0,0-.93-.39l-1.26-.33c-.41-.1-.83-.21-1.24-.34a4.84,4.84,0,0,1-1.13-.5,2.44,2.44,0,0,1-.81-.82,2.34,2.34,0,0,1-.31-1.27,2.52,2.52,0,0,1,.33-1.31,2.73,2.73,0,0,1,.9-.92,4,4,0,0,1,1.36-.54,7.44,7.44,0,0,1,1.67-.18,6.59,6.59,0,0,1,1.58.18,4,4,0,0,1,1.28.51,2.56,2.56,0,0,1,.86.84,2.09,2.09,0,0,1,.31,1.13v.24a.45.45,0,0,1,0,.14h-2.44v-.14a.83.83,0,0,0-.2-.56,1.34,1.34,0,0,0-.58-.36,2.69,2.69,0,0,0-.91-.13,3.37,3.37,0,0,0-.66.06,1.84,1.84,0,0,0-.53.16.93.93,0,0,0-.34.27.65.65,0,0,0-.11.37.59.59,0,0,0,.26.51,2.63,2.63,0,0,0,.71.32l1,.27,1.38.36a6.52,6.52,0,0,1,1.35.47,2.31,2.31,0,0,1,1.39,2.29,3,3,0,0,1-.34,1.48,2.65,2.65,0,0,1-.94,1,4.64,4.64,0,0,1-1.41.53A8.7,8.7,0,0,1,160.13,112.63Z"/><path class="cls-1" d="M169.28,112.63a2.92,2.92,0,0,1-1.48-.33,2,2,0,0,1-.82-.89,3,3,0,0,1-.26-1.24v-5.44h-1.19v-2h1.28l.48-2.75h2v2.75H171v2h-1.75v5a1,1,0,0,0,.2.67.84.84,0,0,0,.66.23H171v1.68a3.63,3.63,0,0,1-.51.14l-.62.11A4.55,4.55,0,0,1,169.28,112.63Z"/><path class="cls-1" d="M177.05,112.63a5.93,5.93,0,0,1-2.67-.54,3.55,3.55,0,0,1-1.63-1.66,7.63,7.63,0,0,1,0-5.69,3.51,3.51,0,0,1,1.62-1.65,5.79,5.79,0,0,1,2.63-.54,5.43,5.43,0,0,1,2.47.52,3.38,3.38,0,0,1,1.52,1.62,6.63,6.63,0,0,1,.51,2.81v.66h-6.72a4.39,4.39,0,0,0,.26,1.42,1.72,1.72,0,0,0,.72.88,2.63,2.63,0,0,0,1.29.28,2.86,2.86,0,0,0,.8-.11,1.64,1.64,0,0,0,.61-.33,1.48,1.48,0,0,0,.4-.55A1.79,1.79,0,0,0,179,109h2.49a3.58,3.58,0,0,1-.33,1.59,3.14,3.14,0,0,1-.91,1.13,4.3,4.3,0,0,1-1.41.68A6.71,6.71,0,0,1,177.05,112.63Zm-2.23-6.09h4.06a2.75,2.75,0,0,0-.14-1,1.75,1.75,0,0,0-.37-.66,1.41,1.41,0,0,0-.58-.37,2.24,2.24,0,0,0-.76-.12,2.53,2.53,0,0,0-1.16.23,1.6,1.6,0,0,0-.72.69A3.59,3.59,0,0,0,174.82,106.54Z"/><path class="cls-1" d="M8.08,17.12a8.5,8.5,0,0,1-3.54-.67,4.81,4.81,0,0,1-2.28-2.06,7.08,7.08,0,0,1-.79-3.54V.86H4.08V10.92a3.92,3.92,0,0,0,1,3,4.12,4.12,0,0,0,3,1,4.27,4.27,0,0,0,3-1,3.86,3.86,0,0,0,1.08-3V.86h2.61v10A7,7,0,0,1,14,14.39a4.81,4.81,0,0,1-2.3,2.06A8.73,8.73,0,0,1,8.08,17.12Z"/><path class="cls-1" d="M18.17,16.84V4.59h2l.21,1.74h.16a4,4,0,0,1,1.05-1.11,4.58,4.58,0,0,1,1.34-.68,5.51,5.51,0,0,1,1.62-.23,4.78,4.78,0,0,1,2.05.41A3,3,0,0,1,28,6a5.14,5.14,0,0,1,.5,2.45v8.36H26.06v-8a3.21,3.21,0,0,0-.18-1.16,1.74,1.74,0,0,0-.5-.75,1.85,1.85,0,0,0-.76-.4,4.26,4.26,0,0,0-1-.11,3,3,0,0,0-1.53.4A3.14,3.14,0,0,0,21,8a3.36,3.36,0,0,0-.42,1.71v7.17Z"/><path class="cls-1" d="M36,16.84V4.59h2.68l.26,1.67h.16a4.69,4.69,0,0,1,.94-1,4,4,0,0,1,1.24-.68,4.73,4.73,0,0,1,1.48-.23,4.12,4.12,0,0,1,2,.46,3.08,3.08,0,0,1,1.32,1.49h.16a4.13,4.13,0,0,1,1-1,4,4,0,0,1,1.28-.68A5.1,5.1,0,0,1,50,4.31a4.52,4.52,0,0,1,2,.42,3,3,0,0,1,1.34,1.36,5.35,5.35,0,0,1,.49,2.43v8.32H50.63V9.11a3.17,3.17,0,0,0-.13-1,1.55,1.55,0,0,0-.36-.66,1.43,1.43,0,0,0-.58-.36A2.56,2.56,0,0,0,48.81,7a2,2,0,0,0-1.16.35,2.44,2.44,0,0,0-.81.95,3.24,3.24,0,0,0-.29,1.4v7.15H43.32V9.11a3.5,3.5,0,0,0-.13-1,1.8,1.8,0,0,0-.36-.66,1.54,1.54,0,0,0-.57-.36A2.58,2.58,0,0,0,41.5,7a2,2,0,0,0-1.15.35,2.38,2.38,0,0,0-.82.95,3.24,3.24,0,0,0-.29,1.4v7.15Z"/><path class="cls-1" d="M62.32,17.12a7.54,7.54,0,0,1-3.4-.69,4.46,4.46,0,0,1-2.07-2.11,8.09,8.09,0,0,1-.7-3.61,8.11,8.11,0,0,1,.7-3.62A4.44,4.44,0,0,1,58.91,5a7.34,7.34,0,0,1,3.34-.69A6.78,6.78,0,0,1,65.39,5,4.34,4.34,0,0,1,67.33,7,8.55,8.55,0,0,1,68,10.6v.83H59.43a5.78,5.78,0,0,0,.34,1.82,2.11,2.11,0,0,0,.91,1.11,3.24,3.24,0,0,0,1.64.36,3.52,3.52,0,0,0,1-.14,2,2,0,0,0,.78-.42,2,2,0,0,0,.52-.7,2.4,2.4,0,0,0,.18-1H68a4.55,4.55,0,0,1-.42,2A4,4,0,0,1,66.4,16a5.43,5.43,0,0,1-1.79.87A8.59,8.59,0,0,1,62.32,17.12ZM59.48,9.39h5.17a3.73,3.73,0,0,0-.18-1.22A2.15,2.15,0,0,0,64,7.34a1.83,1.83,0,0,0-.74-.48,2.89,2.89,0,0,0-1-.15A3.25,3.25,0,0,0,60.82,7a2,2,0,0,0-.91.88A4.51,4.51,0,0,0,59.48,9.39Z"/><path class="cls-1" d="M70.35,16.84V4.59H73l.26,1.67h.16A4.49,4.49,0,0,1,75.8,4.54a5.63,5.63,0,0,1,1.63-.23,4.83,4.83,0,0,1,2.12.44A3.08,3.08,0,0,1,81,6.15a5.3,5.3,0,0,1,.5,2.49v8.2H78.23V9.15a3.15,3.15,0,0,0-.14-1,1.8,1.8,0,0,0-.41-.67A1.57,1.57,0,0,0,77,7.1,3.5,3.5,0,0,0,76.13,7a2.48,2.48,0,0,0-2.21,1.3,2.87,2.87,0,0,0-.33,1.4v7.15Z"/><path class="cls-1" d="M88.33,17.12a4.11,4.11,0,0,1-3-1,4.33,4.33,0,0,1-1.1-3.3V4.59h3.24v7.66a3,3,0,0,0,.14,1,1.55,1.55,0,0,0,.41.67,1.52,1.52,0,0,0,.66.37,3,3,0,0,0,.88.12,2.45,2.45,0,0,0,2.22-1.32,3,3,0,0,0,.32-1.39V4.59h3.24V16.84H92.74l-.24-1.68h-.16a5.34,5.34,0,0,1-1,1,4.57,4.57,0,0,1-1.34.68A5,5,0,0,1,88.33,17.12Z"/><path class="cls-1" d="M106.31,17.12a6.47,6.47,0,0,1-1.26-.14,3.86,3.86,0,0,1-1.26-.52,2.75,2.75,0,0,1-1-1,3.51,3.51,0,0,1-.37-1.74,3.49,3.49,0,0,1,.58-2.07,3.91,3.91,0,0,1,1.63-1.28,8.85,8.85,0,0,1,2.5-.65,24.06,24.06,0,0,1,3.18-.19V8.29a2.76,2.76,0,0,0-.2-1.07,1.4,1.4,0,0,0-.72-.72,3.51,3.51,0,0,0-1.5-.26,3.75,3.75,0,0,0-1.53.25,1.59,1.59,0,0,0-.76.6,1.45,1.45,0,0,0-.23.78v.35h-2.32a.91.91,0,0,1,0-.23V7.71a2.83,2.83,0,0,1,.62-1.85A3.84,3.84,0,0,1,105.4,4.7,7.88,7.88,0,0,1,108,4.31a6.76,6.76,0,0,1,2.64.45,3.53,3.53,0,0,1,1.6,1.29,3.76,3.76,0,0,1,.53,2V14.3a.7.7,0,0,0,.75.81h.84v1.64c-.19.07-.42.15-.7.23a4.07,4.07,0,0,1-1,.11,2.28,2.28,0,0,1-1.06-.22,1.7,1.7,0,0,1-.7-.63,2.33,2.33,0,0,1-.36-.92h-.14a4.57,4.57,0,0,1-1,.95,4.85,4.85,0,0,1-1.36.63A6.6,6.6,0,0,1,106.31,17.12Zm.68-2a3.88,3.88,0,0,0,1.34-.22,2.9,2.9,0,0,0,1.06-.63,3,3,0,0,0,.69-1,2.89,2.89,0,0,0,.26-1.25v-.81a19.46,19.46,0,0,0-2.82.18,4.23,4.23,0,0,0-1.88.69,1.62,1.62,0,0,0-.68,1.38,1.67,1.67,0,0,0,.23.9,1.51,1.51,0,0,0,.7.55A3.06,3.06,0,0,0,107,15.11Z"/><path class="cls-1" d="M120.24,17.12a4.86,4.86,0,0,1-2.59-.68A4.36,4.36,0,0,1,116,14.35a9.8,9.8,0,0,1-.59-3.68A9,9,0,0,1,116,7.06,4.46,4.46,0,0,1,117.65,5a4.55,4.55,0,0,1,2.47-.67,5.65,5.65,0,0,1,1.52.19,3.54,3.54,0,0,1,1.24.58,3.28,3.28,0,0,1,.92,1H124V0h2.43V16.84h-2l-.24-1.68H124a3.88,3.88,0,0,1-1.59,1.47A5,5,0,0,1,120.24,17.12Zm.67-2.1a2.89,2.89,0,0,0,1.74-.48,2.81,2.81,0,0,0,1-1.39A6.78,6.78,0,0,0,124,10.9v-.33a7.58,7.58,0,0,0-.21-1.91,3.51,3.51,0,0,0-.6-1.29,2.29,2.29,0,0,0-1-.73,3.13,3.13,0,0,0-1.25-.24,3.26,3.26,0,0,0-1.75.43,2.52,2.52,0,0,0-1,1.34,7.37,7.37,0,0,0-.31,2.36V11a7.21,7.21,0,0,0,.32,2.34,2.54,2.54,0,0,0,1,1.31A3.14,3.14,0,0,0,120.91,15Z"/><path class="cls-1" d="M132.61,17.12a6.47,6.47,0,0,1-1.26-.14,3.92,3.92,0,0,1-1.27-.52,2.75,2.75,0,0,1-1-1,3.51,3.51,0,0,1-.37-1.74,3.49,3.49,0,0,1,.58-2.07A3.91,3.91,0,0,1,131,10.34a8.83,8.83,0,0,1,2.51-.65,23.8,23.8,0,0,1,3.17-.19V8.29a2.76,2.76,0,0,0-.19-1.07,1.46,1.46,0,0,0-.73-.72,3.48,3.48,0,0,0-1.5-.26,3.67,3.67,0,0,0-1.52.25,1.62,1.62,0,0,0-.77.6,1.44,1.44,0,0,0-.22.78v.35h-2.33a.91.91,0,0,1,0-.23V7.71A2.83,2.83,0,0,1,130,5.86,3.82,3.82,0,0,1,131.7,4.7a7.78,7.78,0,0,1,2.58-.39,6.73,6.73,0,0,1,2.64.45,3.53,3.53,0,0,1,1.6,1.29,3.68,3.68,0,0,1,.54,2V14.3a.7.7,0,0,0,.74.81h.84v1.64c-.19.07-.42.15-.7.23a4,4,0,0,1-1,.11,2.28,2.28,0,0,1-1.06-.22,1.76,1.76,0,0,1-.7-.63,2.68,2.68,0,0,1-.36-.92h-.14a4.36,4.36,0,0,1-1,.95,4.85,4.85,0,0,1-1.36.63A6.52,6.52,0,0,1,132.61,17.12Zm.67-2a3.88,3.88,0,0,0,1.34-.22,2.9,2.9,0,0,0,1.06-.63,3,3,0,0,0,.7-1,3,3,0,0,0,.25-1.25v-.81a19.22,19.22,0,0,0-2.81.18,4.23,4.23,0,0,0-1.89.69,1.62,1.62,0,0,0-.68,1.38,1.59,1.59,0,0,0,.24.9,1.46,1.46,0,0,0,.7.55A3,3,0,0,0,133.28,15.11Z"/><path class="cls-1" d="M142.32,20.87V4.59h2l.2,1.67h.17a4,4,0,0,1,1.61-1.46,4.75,4.75,0,0,1,2.18-.49,4.81,4.81,0,0,1,2.6.67,4.31,4.31,0,0,1,1.67,2.1,10,10,0,0,1,.58,3.68,9.26,9.26,0,0,1-.6,3.6,4.34,4.34,0,0,1-1.66,2.08,4.56,4.56,0,0,1-2.47.68,6,6,0,0,1-1.51-.19,3.77,3.77,0,0,1-1.25-.58,3.91,3.91,0,0,1-.94-1h-.14v5.52ZM147.74,15a3.22,3.22,0,0,0,1.77-.43,2.48,2.48,0,0,0,1-1.34,7.07,7.07,0,0,0,.32-2.3v-.42a7.13,7.13,0,0,0-.33-2.38,2.55,2.55,0,0,0-1-1.33,3.14,3.14,0,0,0-1.71-.42,3,3,0,0,0-1.75.48,2.75,2.75,0,0,0-1,1.41,7.13,7.13,0,0,0-.31,2.26v.33a7.38,7.38,0,0,0,.21,1.88,3.51,3.51,0,0,0,.6,1.29,2.44,2.44,0,0,0,1,.74A3.25,3.25,0,0,0,147.74,15Z"/><path class="cls-1" d="M158.85,17.12a2.88,2.88,0,0,1-1.64-.41,2.15,2.15,0,0,1-.84-1.05,3.81,3.81,0,0,1-.24-1.36V6.59h-1.54v-2h1.58l.45-3.43h1.93V4.59h2.21v2h-2.21V14a1.24,1.24,0,0,0,.23.81.94.94,0,0,0,.77.28h1.21v1.64a3.61,3.61,0,0,1-.57.17l-.69.14A3.83,3.83,0,0,1,158.85,17.12Z"/><path class="cls-1" d="M168,17.12a6.57,6.57,0,0,1-3.16-.69,4.45,4.45,0,0,1-1.92-2.11,8.73,8.73,0,0,1-.65-3.61,8.75,8.75,0,0,1,.65-3.62A4.35,4.35,0,0,1,164.84,5,6.64,6.64,0,0,1,168,4.31,5.89,5.89,0,0,1,171,5a4.25,4.25,0,0,1,1.78,2,8.37,8.37,0,0,1,.61,3.4v.93h-8.6a6.63,6.63,0,0,0,.4,2.18,2.47,2.47,0,0,0,1.06,1.28,3.58,3.58,0,0,0,1.8.4,3.76,3.76,0,0,0,1.21-.17,2.6,2.6,0,0,0,.91-.51,2.42,2.42,0,0,0,.59-.82,2.85,2.85,0,0,0,.2-1.08h2.38a4.68,4.68,0,0,1-.37,1.93,3.68,3.68,0,0,1-1.09,1.41,5,5,0,0,1-1.68.87A7.11,7.11,0,0,1,168,17.12Zm-3.19-7.57h6A5.12,5.12,0,0,0,170.6,8,2.54,2.54,0,0,0,170,7a2.2,2.2,0,0,0-.89-.57A3.45,3.45,0,0,0,168,6.26a3.64,3.64,0,0,0-1.66.35,2.45,2.45,0,0,0-1.07,1.09A5.11,5.11,0,0,0,164.79,9.55Zm1.82-6.48L168.56,0h2.63l0,.07-2.54,3Z"/><path class="cls-1" d="M183.68,17.12a6.47,6.47,0,0,1-1.26-.14,3.92,3.92,0,0,1-1.27-.52,2.75,2.75,0,0,1-1-1,3.51,3.51,0,0,1-.37-1.74,3.49,3.49,0,0,1,.58-2.07A3.91,3.91,0,0,1,182,10.34a8.92,8.92,0,0,1,2.51-.65,24.06,24.06,0,0,1,3.18-.19V8.29a2.76,2.76,0,0,0-.2-1.07,1.44,1.44,0,0,0-.72-.72,3.53,3.53,0,0,0-1.51-.26,3.67,3.67,0,0,0-1.52.25,1.62,1.62,0,0,0-.77.6,1.44,1.44,0,0,0-.22.78v.35h-2.33a.9.9,0,0,1,0-.23V7.71A2.82,2.82,0,0,1,181,5.86a3.82,3.82,0,0,1,1.74-1.16,7.82,7.82,0,0,1,2.58-.39,6.82,6.82,0,0,1,2.65.45,3.56,3.56,0,0,1,1.59,1.29,3.68,3.68,0,0,1,.54,2V14.3a.79.79,0,0,0,.22.63.8.8,0,0,0,.52.18h.84v1.64c-.19.07-.42.15-.7.23a4,4,0,0,1-1,.11,2.31,2.31,0,0,1-1.06-.22,1.67,1.67,0,0,1-.69-.63,2.33,2.33,0,0,1-.36-.92h-.14a4.41,4.41,0,0,1-1,.95,4.73,4.73,0,0,1-1.36.63A6.52,6.52,0,0,1,183.68,17.12Zm3-14h-2l-2.53-3,0-.07h2.61Zm-2.35,12a3.88,3.88,0,0,0,1.34-.22,2.82,2.82,0,0,0,1.06-.63,3,3,0,0,0,.7-1,3,3,0,0,0,.26-1.25v-.81a19.27,19.27,0,0,0-2.82.18,4.23,4.23,0,0,0-1.89.69,1.61,1.61,0,0,0-.67,1.38,1.59,1.59,0,0,0,.23.9,1.46,1.46,0,0,0,.7.55A3,3,0,0,0,184.35,15.11Z"/><path class="cls-1" d="M202.68,17.12a8.52,8.52,0,0,1-2.26-.28,4.94,4.94,0,0,1-1.63-.77,3.18,3.18,0,0,1-1-1.18,3.43,3.43,0,0,1-.34-1.52c0-.08,0-.15,0-.21a1.15,1.15,0,0,0,0-.16h2.39v.25a1.64,1.64,0,0,0,.4,1.15,2.14,2.14,0,0,0,1.06.61,5.57,5.57,0,0,0,1.46.17,4.47,4.47,0,0,0,1.29-.17,2.62,2.62,0,0,0,1-.52,1.18,1.18,0,0,0,.38-.89,1.25,1.25,0,0,0-.49-1.07,3.62,3.62,0,0,0-1.28-.59L202,11.46c-.52-.14-1-.29-1.53-.46a5.32,5.32,0,0,1-1.36-.64,3.12,3.12,0,0,1-1-1,2.82,2.82,0,0,1-.37-1.51,3,3,0,0,1,.37-1.52,3.27,3.27,0,0,1,1-1.09,5.31,5.31,0,0,1,1.58-.68,8.49,8.49,0,0,1,2-.23,7.3,7.3,0,0,1,2,.25,4.72,4.72,0,0,1,1.5.68,3.08,3.08,0,0,1,1,1.06,2.86,2.86,0,0,1,.32,1.32c0,.09,0,.19,0,.29a1.92,1.92,0,0,0,0,.2h-2.38V7.92a1.46,1.46,0,0,0-.25-.84,1.81,1.81,0,0,0-.81-.61,3.86,3.86,0,0,0-1.45-.23,4.89,4.89,0,0,0-1.07.11,2.38,2.38,0,0,0-.77.29,1.39,1.39,0,0,0-.46.44,1.14,1.14,0,0,0-.15.58,1,1,0,0,0,.39.83,3.28,3.28,0,0,0,1,.49l1.35.43,1.7.48a8.43,8.43,0,0,1,1.6.61,3.1,3.1,0,0,1,1.18,1,2.92,2.92,0,0,1,.46,1.74,3.62,3.62,0,0,1-.4,1.75,3.1,3.1,0,0,1-1.1,1.2,5.47,5.47,0,0,1-1.67.68A9.59,9.59,0,0,1,202.68,17.12Z"/><path class="cls-1" d="M215.44,17.12a6.5,6.5,0,0,1-3.15-.69,4.42,4.42,0,0,1-1.93-2.11,8.73,8.73,0,0,1-.65-3.61,8.75,8.75,0,0,1,.65-3.62A4.35,4.35,0,0,1,212.3,5a6.64,6.64,0,0,1,3.19-.69,5.89,5.89,0,0,1,2.92.66,4.25,4.25,0,0,1,1.78,2,8.21,8.21,0,0,1,.61,3.4v.93h-8.6a6.63,6.63,0,0,0,.4,2.18,2.52,2.52,0,0,0,1.06,1.28,3.58,3.58,0,0,0,1.8.4,3.87,3.87,0,0,0,1.22-.17,2.64,2.64,0,0,0,.9-.51,2.42,2.42,0,0,0,.59-.82,2.67,2.67,0,0,0,.21-1.08h2.37a4.68,4.68,0,0,1-.37,1.93,3.68,3.68,0,0,1-1.09,1.41,5,5,0,0,1-1.68.87A7.07,7.07,0,0,1,215.44,17.12Zm-3.19-7.57h6a5.12,5.12,0,0,0-.2-1.53,2.54,2.54,0,0,0-.57-1,2.23,2.23,0,0,0-.88-.57,3.55,3.55,0,0,0-1.17-.18,3.64,3.64,0,0,0-1.66.35,2.38,2.38,0,0,0-1.06,1.09A4.91,4.91,0,0,0,212.25,9.55Z"/><path class="cls-1" d="M227.78,17.12a8.44,8.44,0,0,1-2.25-.28,4.84,4.84,0,0,1-1.63-.77,3.18,3.18,0,0,1-1-1.18,3.3,3.3,0,0,1-.34-1.52,1.34,1.34,0,0,1,0-.21,1,1,0,0,0,0-.16H225v.25a1.6,1.6,0,0,0,.4,1.15,2.1,2.1,0,0,0,1.06.61,5.5,5.5,0,0,0,1.45.17,4.38,4.38,0,0,0,1.29-.17,2.47,2.47,0,0,0,1-.52,1.15,1.15,0,0,0,.39-.89,1.28,1.28,0,0,0-.49-1.07,3.71,3.71,0,0,0-1.28-.59l-1.66-.48c-.51-.14-1-.29-1.52-.46a5.39,5.39,0,0,1-1.37-.64,3,3,0,0,1-1-1,2.82,2.82,0,0,1-.38-1.51,3,3,0,0,1,.38-1.52,3.24,3.24,0,0,1,1-1.09,5.37,5.37,0,0,1,1.59-.68,8.41,8.41,0,0,1,2-.23,7.37,7.37,0,0,1,2,.25,4.72,4.72,0,0,1,1.5.68,3.15,3.15,0,0,1,.94,1.06,2.75,2.75,0,0,1,.33,1.32c0,.09,0,.19,0,.29s0,.17,0,.2H230.3V7.92a1.46,1.46,0,0,0-.26-.84,1.83,1.83,0,0,0-.8-.61,3.88,3.88,0,0,0-1.46-.23,4.89,4.89,0,0,0-1.07.11,2.48,2.48,0,0,0-.77.29,1.27,1.27,0,0,0-.45.44,1.14,1.14,0,0,0-.15.58,1,1,0,0,0,.38.83,3.46,3.46,0,0,0,1,.49l1.35.43,1.7.48a8.6,8.6,0,0,1,1.59.61,3.13,3.13,0,0,1,1.19,1,3,3,0,0,1,.45,1.74,3.73,3.73,0,0,1-.39,1.75,3.13,3.13,0,0,1-1.11,1.2,5.41,5.41,0,0,1-1.66.68A9.69,9.69,0,0,1,227.78,17.12Z"/><path class="cls-1" d="M3.14,49.16a3.63,3.63,0,0,1-1.53-.33,2.91,2.91,0,0,1-1.17-1A2.73,2.73,0,0,1,0,46.27a2.29,2.29,0,0,1,.59-1.64,4.12,4.12,0,0,1,1.34-.92,2.54,2.54,0,0,1-.87-.79,1.94,1.94,0,0,1-.34-1.14,1.84,1.84,0,0,1,.67-1.48,3.22,3.22,0,0,1,1.52-.73,4,4,0,0,1-1.34-1.36,4,4,0,0,1,.19-4.09,4.09,4.09,0,0,1,1.91-1.39,8.16,8.16,0,0,1,2.94-.48,12.46,12.46,0,0,1,1.27.07A5.64,5.64,0,0,1,9,32.56a3,3,0,0,0,1.17-1.13,2.82,2.82,0,0,0,.34-1h3a3.31,3.31,0,0,1-.31,1.49,2.71,2.71,0,0,1-.9,1,3.91,3.91,0,0,1-1.39.6,3.52,3.52,0,0,1,.93,1.23,4.14,4.14,0,0,1-.31,3.79A4,4,0,0,1,9.72,40,7.17,7.17,0,0,1,7,40.48H5.1a1.49,1.49,0,0,0-.84.19.69.69,0,0,0-.28.57.67.67,0,0,0,.25.53A1.16,1.16,0,0,0,5,42h5.1a3.28,3.28,0,0,1,2.46.94,3.34,3.34,0,0,1,.92,2.41,3.42,3.42,0,0,1-.59,2,3.8,3.8,0,0,1-1.6,1.35A5.37,5.37,0,0,1,9,49.16ZM4.49,47H8.8a1.79,1.79,0,0,0,.75-.15,1.34,1.34,0,0,0,.51-.42,1.21,1.21,0,0,0-.19-1.53,1.4,1.4,0,0,0-.93-.3H4.49a1.37,1.37,0,0,0-.92.32,1.12,1.12,0,0,0-.36.87,1.15,1.15,0,0,0,.36.87A1.34,1.34,0,0,0,4.49,47Zm2.12-8.62a2.57,2.57,0,0,0,1.74-.52,2.21,2.21,0,0,0,0-3,2.57,2.57,0,0,0-1.74-.52,2.52,2.52,0,0,0-1.71.52,1.91,1.91,0,0,0-.59,1.5,2.26,2.26,0,0,0,.25,1.1,1.69,1.69,0,0,0,.77.7A3.19,3.19,0,0,0,6.61,38.38Z"/><path class="cls-1" d="M20.91,45.06a7.78,7.78,0,0,1-3.4-.68,4.63,4.63,0,0,1-2.12-2.12,8,8,0,0,1-.72-3.6A7.93,7.93,0,0,1,15.39,35a4.64,4.64,0,0,1,2.12-2.1,7.63,7.63,0,0,1,3.4-.69,7.69,7.69,0,0,1,3.44.69A4.71,4.71,0,0,1,26.46,35a7.93,7.93,0,0,1,.72,3.62,8,8,0,0,1-.72,3.6,4.71,4.71,0,0,1-2.11,2.12A7.84,7.84,0,0,1,20.91,45.06Zm0-2.51a3.14,3.14,0,0,0,1.71-.4,2.26,2.26,0,0,0,.95-1.21,5.81,5.81,0,0,0,.3-2v-.56a5.81,5.81,0,0,0-.3-2,2.38,2.38,0,0,0-.95-1.23,3.14,3.14,0,0,0-1.71-.4,3.13,3.13,0,0,0-1.69.4,2.42,2.42,0,0,0-.94,1.23,5.81,5.81,0,0,0-.3,2v.56a5.81,5.81,0,0,0,.3,2,2.29,2.29,0,0,0,.94,1.21A3.13,3.13,0,0,0,20.91,42.55Z"/><path class="cls-1" d="M33.51,45.06a4.18,4.18,0,0,1-3-1,4.35,4.35,0,0,1-1.09-3.31v-8.2H32.7V40.2a3,3,0,0,0,.14,1,1.67,1.67,0,0,0,.4.66,1.63,1.63,0,0,0,.67.38,3.42,3.42,0,0,0,.88.11A2.45,2.45,0,0,0,36.1,42a2.41,2.41,0,0,0,.91-1,3.06,3.06,0,0,0,.32-1.39V32.53h3.24V44.78H37.91l-.23-1.67h-.16a5,5,0,0,1-1,1,4.36,4.36,0,0,1-1.34.69A5.26,5.26,0,0,1,33.51,45.06ZM31,31,33.61,28h2.93L39.15,31H36.47l-2-2.38,1.3,0-2,2.35Z"/><path class="cls-1" d="M47.21,45.06a3.73,3.73,0,0,1-1.89-.42,2.44,2.44,0,0,1-1-1.13A3.64,3.64,0,0,1,44,41.94V35H42.43v-2.5h1.63L44.67,29h2.51v3.49h2.24V35H47.18v6.38a1.27,1.27,0,0,0,.26.85,1.08,1.08,0,0,0,.84.29h1.14v2.14l-.65.18L48,45A7.24,7.24,0,0,1,47.21,45.06Z"/><path class="cls-1" d="M56.47,45.06a8.58,8.58,0,0,1-2.3-.28A5.41,5.41,0,0,1,52.42,44a3.39,3.39,0,0,1-1.1-1.2,3.16,3.16,0,0,1-.39-1.58V41a.31.31,0,0,1,0-.15h3.12v.19a1.36,1.36,0,0,0,.37.94,2,2,0,0,0,.92.53,4.29,4.29,0,0,0,1.2.16,5.49,5.49,0,0,0,1.08-.1,2.12,2.12,0,0,0,.89-.39.86.86,0,0,0,.36-.72,1,1,0,0,0-.46-.86,3.77,3.77,0,0,0-1.19-.49l-1.59-.42c-.53-.12-1.06-.27-1.58-.43a6.29,6.29,0,0,1-1.44-.64,3.1,3.1,0,0,1-1-1,3,3,0,0,1-.4-1.62,3.2,3.2,0,0,1,.42-1.66,3.5,3.5,0,0,1,1.15-1.18,5.26,5.26,0,0,1,1.73-.68,9.59,9.59,0,0,1,2.13-.23,8.5,8.5,0,0,1,2,.23,5.3,5.3,0,0,1,1.63.65,3.32,3.32,0,0,1,1.1,1.07,2.69,2.69,0,0,1,.39,1.43v.3a.66.66,0,0,1,0,.19h-3.1v-.19a1.07,1.07,0,0,0-.26-.71,1.69,1.69,0,0,0-.73-.45,3.55,3.55,0,0,0-1.15-.16,4.43,4.43,0,0,0-.85.07,2.11,2.11,0,0,0-.67.21,1.23,1.23,0,0,0-.43.33.81.81,0,0,0-.15.48.73.73,0,0,0,.34.64,2.91,2.91,0,0,0,.9.41l1.23.35c.56.15,1.15.31,1.76.45a9.08,9.08,0,0,1,1.71.6,3.24,3.24,0,0,1,1.28,1.06,3.1,3.1,0,0,1,.49,1.85,3.76,3.76,0,0,1-.43,1.88,3.32,3.32,0,0,1-1.2,1.24,5.6,5.6,0,0,1-1.79.67A11.09,11.09,0,0,1,56.47,45.06Z"/><path class="cls-1" d="M74.38,45.06a6.64,6.64,0,0,1-3.15-.68,4.35,4.35,0,0,1-1.92-2.11,8.59,8.59,0,0,1-.66-3.61A8.55,8.55,0,0,1,69.31,35a4.39,4.39,0,0,1,1.93-2.1,6.66,6.66,0,0,1,3.19-.69,5.89,5.89,0,0,1,2.92.67,4.13,4.13,0,0,1,1.78,2,8.24,8.24,0,0,1,.61,3.4v.93H71.15a6.59,6.59,0,0,0,.39,2.18,2.52,2.52,0,0,0,1.06,1.28,3.54,3.54,0,0,0,1.81.41A4.11,4.11,0,0,0,75.62,43a2.55,2.55,0,0,0,.91-.52,2.4,2.4,0,0,0,.58-.81,2.67,2.67,0,0,0,.21-1.08h2.37a4.68,4.68,0,0,1-.37,1.93,3.75,3.75,0,0,1-1.08,1.41,5.1,5.1,0,0,1-1.69.87A7.39,7.39,0,0,1,74.38,45.06ZM71.19,37.5h6A5.12,5.12,0,0,0,77,36a2.54,2.54,0,0,0-.57-1,2,2,0,0,0-.88-.57,3.51,3.51,0,0,0-1.17-.18,3.67,3.67,0,0,0-1.66.35,2.36,2.36,0,0,0-1.06,1.08A5,5,0,0,0,71.19,37.5Z"/><path class="cls-1" d="M85.26,45.06a2.86,2.86,0,0,1-1.64-.4,2.2,2.2,0,0,1-.84-1,3.86,3.86,0,0,1-.25-1.36V34.54H81v-2h1.58L83,29.11H85v3.42h2.21v2H85V42a1.22,1.22,0,0,0,.23.81.93.93,0,0,0,.77.28h1.21v1.63l-.57.18-.69.14A5.13,5.13,0,0,1,85.26,45.06Z"/><path class="cls-1" d="M98.6,45.06a8.17,8.17,0,0,1-2.26-.28A5,5,0,0,1,94.71,44a3.38,3.38,0,0,1-1-1.18,3.5,3.5,0,0,1-.33-1.53,1.48,1.48,0,0,1,0-.21.92.92,0,0,0,0-.16h2.4v.26a1.65,1.65,0,0,0,.39,1.15,2.19,2.19,0,0,0,1.06.61,6.09,6.09,0,0,0,1.46.17A4.79,4.79,0,0,0,100,43a2.43,2.43,0,0,0,1-.53,1.12,1.12,0,0,0,.38-.88,1.24,1.24,0,0,0-.49-1.07,3.72,3.72,0,0,0-1.28-.6c-.52-.15-1.07-.3-1.65-.48s-1-.29-1.52-.45a5.76,5.76,0,0,1-1.37-.64,3.22,3.22,0,0,1-1-1,2.92,2.92,0,0,1-.37-1.52,3.1,3.1,0,0,1,.37-1.51,3.27,3.27,0,0,1,1-1.09,5,5,0,0,1,1.59-.68,8.41,8.41,0,0,1,2-.23,7.8,7.8,0,0,1,2,.24,5.07,5.07,0,0,1,1.5.69,3.06,3.06,0,0,1,.94,1.06,2.74,2.74,0,0,1,.33,1.31c0,.1,0,.2,0,.3s0,.16,0,.19h-2.37v-.21a1.41,1.41,0,0,0-.26-.83,1.83,1.83,0,0,0-.8-.61,3.91,3.91,0,0,0-1.46-.23,4.93,4.93,0,0,0-1.07.1,2.64,2.64,0,0,0-.77.29,1.38,1.38,0,0,0-.45.45,1.11,1.11,0,0,0-.15.58,1,1,0,0,0,.38.83,3.52,3.52,0,0,0,1,.48l1.36.44,1.7.47a9.39,9.39,0,0,1,1.59.62,3.19,3.19,0,0,1,1.19,1,3,3,0,0,1,.45,1.75,3.73,3.73,0,0,1-.39,1.75,3.36,3.36,0,0,1-1.11,1.2,5.16,5.16,0,0,1-1.66.67A9.09,9.09,0,0,1,98.6,45.06Z"/><path class="cls-1" d="M111.37,45.06a6.68,6.68,0,0,1-3.16-.68,4.35,4.35,0,0,1-1.92-2.11,8.6,8.6,0,0,1-.65-3.61,8.56,8.56,0,0,1,.65-3.62,4.39,4.39,0,0,1,1.93-2.1,6.66,6.66,0,0,1,3.19-.69,5.87,5.87,0,0,1,2.92.67,4.2,4.2,0,0,1,1.79,2,8.42,8.42,0,0,1,.6,3.4v.93h-8.59a6.59,6.59,0,0,0,.39,2.18,2.52,2.52,0,0,0,1.06,1.28,3.54,3.54,0,0,0,1.81.41A4.11,4.11,0,0,0,112.6,43a2.47,2.47,0,0,0,.91-.52,2.27,2.27,0,0,0,.58-.81,2.67,2.67,0,0,0,.21-1.08h2.37a4.68,4.68,0,0,1-.37,1.93,3.75,3.75,0,0,1-1.08,1.41,5,5,0,0,1-1.69.87A7.32,7.32,0,0,1,111.37,45.06Zm-3.2-7.56h6A4.81,4.81,0,0,0,114,36a2.54,2.54,0,0,0-.57-1,2,2,0,0,0-.88-.57,3.49,3.49,0,0,0-1.16-.18,3.68,3.68,0,0,0-1.67.35,2.36,2.36,0,0,0-1.06,1.08A5.16,5.16,0,0,0,108.17,37.5Z"/><path class="cls-1" d="M123.71,45.06a8.07,8.07,0,0,1-2.26-.28,4.93,4.93,0,0,1-1.63-.76,3.18,3.18,0,0,1-1-1.18,3.37,3.37,0,0,1-.34-1.53,1.48,1.48,0,0,1,0-.21.92.92,0,0,0,0-.16h2.4v.26a1.61,1.61,0,0,0,.4,1.15,2.14,2.14,0,0,0,1.06.61,6,6,0,0,0,1.45.17,4.87,4.87,0,0,0,1.3-.17,2.39,2.39,0,0,0,1-.53,1.13,1.13,0,0,0,.39-.88,1.24,1.24,0,0,0-.49-1.07,3.81,3.81,0,0,0-1.28-.6c-.53-.15-1.08-.3-1.65-.48s-1-.29-1.53-.45a5.68,5.68,0,0,1-1.36-.64,3.12,3.12,0,0,1-1-1,2.83,2.83,0,0,1-.37-1.52,3,3,0,0,1,.37-1.51,3.18,3.18,0,0,1,1-1.09,5.06,5.06,0,0,1,1.58-.68,8.41,8.41,0,0,1,2-.23,7.8,7.8,0,0,1,2,.24,5,5,0,0,1,1.5.69,3,3,0,0,1,.94,1.06,2.74,2.74,0,0,1,.33,1.31c0,.1,0,.2,0,.3a1.77,1.77,0,0,0,0,.19h-2.38v-.21A1.4,1.4,0,0,0,126,35a1.87,1.87,0,0,0-.81-.61,3.86,3.86,0,0,0-1.45-.23,4.87,4.87,0,0,0-1.07.1,2.64,2.64,0,0,0-.77.29,1.42,1.42,0,0,0-.46.45,1.11,1.11,0,0,0-.15.58,1,1,0,0,0,.39.83,3.28,3.28,0,0,0,1,.48l1.35.44,1.7.47a9.5,9.5,0,0,1,1.6.62,3.24,3.24,0,0,1,1.18,1,3,3,0,0,1,.46,1.75,3.62,3.62,0,0,1-.4,1.75,3.25,3.25,0,0,1-1.1,1.2,5.22,5.22,0,0,1-1.67.67A9.06,9.06,0,0,1,123.71,45.06Z"/><path class="cls-1" d="M142.94,45.06a5,5,0,0,1-2.17-.47,3.81,3.81,0,0,1-1.6-1.46H139l-.26,1.65H136.1V28h3.23v5.93h.14a3.71,3.71,0,0,1,.91-.9,3.81,3.81,0,0,1,1.21-.55,5.69,5.69,0,0,1,1.47-.18,4.69,4.69,0,0,1,2.53.68A4.5,4.5,0,0,1,147.28,35a9.36,9.36,0,0,1,.6,3.63,9.63,9.63,0,0,1-.59,3.63,4.43,4.43,0,0,1-1.7,2.11A5,5,0,0,1,142.94,45.06Zm-1-2.65a2.72,2.72,0,0,0,1.55-.39,2.14,2.14,0,0,0,.83-1.15,6.24,6.24,0,0,0,.25-1.93V38.4a6.35,6.35,0,0,0-.25-1.94,2.19,2.19,0,0,0-.83-1.17,2.8,2.8,0,0,0-1.55-.38,2.72,2.72,0,0,0-1.19.24,2.24,2.24,0,0,0-.8.7,3.44,3.44,0,0,0-.48,1.13,6.88,6.88,0,0,0-.16,1.49v.42a5.62,5.62,0,0,0,.28,1.89,2.44,2.44,0,0,0,.86,1.21A2.5,2.5,0,0,0,141.94,42.41Z"/><path class="cls-1" d="M155.82,45.06a7.68,7.68,0,0,1-3.4-.68,4.55,4.55,0,0,1-2.07-2.11,8.12,8.12,0,0,1-.7-3.61,8.08,8.08,0,0,1,.7-3.62,4.56,4.56,0,0,1,2.06-2.1,7.34,7.34,0,0,1,3.34-.69,6.85,6.85,0,0,1,3.15.67,4.28,4.28,0,0,1,1.93,2,8.47,8.47,0,0,1,.65,3.57v.84h-8.55a5.78,5.78,0,0,0,.34,1.82,2.17,2.17,0,0,0,.91,1.1,3.24,3.24,0,0,0,1.64.37,3.52,3.52,0,0,0,1-.14,2.38,2.38,0,0,0,.79-.42,2.15,2.15,0,0,0,.51-.7,2.42,2.42,0,0,0,.18-1h3.17a4.6,4.6,0,0,1-.42,2,4,4,0,0,1-1.16,1.43,5.18,5.18,0,0,1-1.78.86A8.32,8.32,0,0,1,155.82,45.06ZM153,37.33h5.17a4,4,0,0,0-.17-1.21,2.44,2.44,0,0,0-.48-.84,2,2,0,0,0-.73-.48,3,3,0,0,0-1-.15,3.42,3.42,0,0,0-1.48.29,2,2,0,0,0-.91.89A4.52,4.52,0,0,0,153,37.33Z"/><path class="cls-1" d="M168.82,45.06a8.6,8.6,0,0,1-2.31-.28,5.51,5.51,0,0,1-1.75-.78,3.49,3.49,0,0,1-1.1-1.2,3.16,3.16,0,0,1-.39-1.58V41a.31.31,0,0,1,0-.15h3.12v.19a1.36,1.36,0,0,0,.37.94,2,2,0,0,0,.92.53,4.29,4.29,0,0,0,1.2.16,5.49,5.49,0,0,0,1.08-.1,2.07,2.07,0,0,0,.89-.39.86.86,0,0,0,.36-.72,1,1,0,0,0-.45-.86,3.88,3.88,0,0,0-1.19-.49l-1.6-.42c-.53-.12-1.05-.27-1.58-.43a6,6,0,0,1-1.43-.64A2.93,2.93,0,0,1,163.55,36a3.2,3.2,0,0,1,.42-1.66,3.53,3.53,0,0,1,1.16-1.18,5.2,5.2,0,0,1,1.72-.68,9.59,9.59,0,0,1,2.13-.23,8.5,8.5,0,0,1,2,.23,5.2,5.2,0,0,1,1.63.65,3.32,3.32,0,0,1,1.1,1.07,2.69,2.69,0,0,1,.39,1.43v.3a.42.42,0,0,1,0,.19H171v-.19a1.06,1.06,0,0,0-.25-.71,1.73,1.73,0,0,0-.74-.45,3.55,3.55,0,0,0-1.15-.16,4.5,4.5,0,0,0-.85.07,2,2,0,0,0-.66.21,1.14,1.14,0,0,0-.43.33.78.78,0,0,0,.18,1.12,3.15,3.15,0,0,0,.9.41l1.23.35c.56.15,1.15.31,1.76.45a8.84,8.84,0,0,1,1.71.6A3.17,3.17,0,0,1,174,39.21a3.1,3.1,0,0,1,.49,1.85,3.76,3.76,0,0,1-.43,1.88,3.32,3.32,0,0,1-1.2,1.24,5.6,5.6,0,0,1-1.79.67A11,11,0,0,1,168.82,45.06Z"/><path class="cls-1" d="M182.44,45.06a7.78,7.78,0,0,1-3.4-.68,4.63,4.63,0,0,1-2.12-2.12,8,8,0,0,1-.72-3.6,7.93,7.93,0,0,1,.72-3.62,4.64,4.64,0,0,1,2.12-2.1,8.82,8.82,0,0,1,6.84,0A4.64,4.64,0,0,1,188,35a7.92,7.92,0,0,1,.73,3.62,8,8,0,0,1-.73,3.6,4.64,4.64,0,0,1-2.1,2.12A7.84,7.84,0,0,1,182.44,45.06Zm0-2.51a3.14,3.14,0,0,0,1.71-.4,2.3,2.3,0,0,0,.95-1.21,5.81,5.81,0,0,0,.3-2v-.56a5.81,5.81,0,0,0-.3-2,2.43,2.43,0,0,0-.95-1.23,3.81,3.81,0,0,0-3.4,0,2.42,2.42,0,0,0-.94,1.23,5.81,5.81,0,0,0-.3,2v.56a5.81,5.81,0,0,0,.3,2,2.29,2.29,0,0,0,.94,1.21A3.13,3.13,0,0,0,182.44,42.55Z"/><path class="cls-1" d="M191.08,30.74V28h3.24v2.79Zm0,14V32.53h3.24V44.78Z"/><path class="cls-1" d="M197.3,44.78V32.53H200l.25,1.68h.17a4.57,4.57,0,0,1,1-1.05,4.43,4.43,0,0,1,1.34-.67,5.31,5.31,0,0,1,1.63-.24,4.73,4.73,0,0,1,2.12.45,3.16,3.16,0,0,1,1.41,1.39,5.44,5.44,0,0,1,.5,2.5v8.19h-3.24V37.1a3.15,3.15,0,0,0-.14-1,1.72,1.72,0,0,0-.41-.68,1.66,1.66,0,0,0-.66-.38,3,3,0,0,0-.88-.12,2.52,2.52,0,0,0-1.31.35,2.47,2.47,0,0,0-.91,1,2.85,2.85,0,0,0-.32,1.39v7.15Z"/><path class="cls-1" d="M216.28,45.06a8.65,8.65,0,0,1-2.31-.28,5.35,5.35,0,0,1-1.74-.78,3.52,3.52,0,0,1-1.11-1.2,3.16,3.16,0,0,1-.38-1.58V41a.32.32,0,0,1,0-.15h3.12v.19a1.4,1.4,0,0,0,.37.94,2,2,0,0,0,.92.53,4.29,4.29,0,0,0,1.2.16,5.52,5.52,0,0,0,1.09-.1,2.08,2.08,0,0,0,.88-.39.86.86,0,0,0,.36-.72,1,1,0,0,0-.45-.86,3.88,3.88,0,0,0-1.19-.49l-1.6-.42c-.52-.12-1.05-.27-1.58-.43a6.21,6.21,0,0,1-1.43-.64,3.13,3.13,0,0,1-1-1A3,3,0,0,1,211,36a3.29,3.29,0,0,1,.41-1.66,3.53,3.53,0,0,1,1.16-1.18,5.2,5.2,0,0,1,1.72-.68,9.59,9.59,0,0,1,2.13-.23,8.59,8.59,0,0,1,2,.23,5.3,5.3,0,0,1,1.63.65,3.28,3.28,0,0,1,1.09,1.07,2.7,2.7,0,0,1,.4,1.43v.3a.38.38,0,0,1,0,.19h-3.09v-.19a1.07,1.07,0,0,0-.26-.71,1.75,1.75,0,0,0-.73-.45,3.61,3.61,0,0,0-1.16-.16,4.5,4.5,0,0,0-.85.07,2,2,0,0,0-.66.21,1.14,1.14,0,0,0-.43.33.81.81,0,0,0-.15.48.75.75,0,0,0,.33.64,3.15,3.15,0,0,0,.9.41l1.23.35c.56.15,1.15.31,1.76.45a8.94,8.94,0,0,1,1.72.6,3.31,3.31,0,0,1,1.28,1.06,3.17,3.17,0,0,1,.49,1.85,3.76,3.76,0,0,1-.44,1.88,3.22,3.22,0,0,1-1.19,1.24,5.75,5.75,0,0,1-1.8.67A11,11,0,0,1,216.28,45.06Z"/></g></g></svg>