<svg xmlns="http://www.w3.org/2000/svg" viewBox="0 0 85.76 83.85"><defs><style>.cls-1{fill:#5479f7;}.cls-2{fill:#99b9ff;}.cls-3{fill:#fff;}.cls-4{fill:#caddff;}</style></defs><g id="Layer_2" data-name="Layer 2"><g id="Layer_1-2" data-name="Layer 1"><path class="cls-1" d="M62.47,12.49H15.38a3.37,3.37,0,0,0-3.14,2.8L1.55,80.87a2.25,2.25,0,0,0,2.24,2.76H50.88A3.33,3.33,0,0,0,54,80.89L64.71,15.28A2.28,2.28,0,0,0,62.47,12.49Z"/><path class="cls-2" d="M61,12.17H13.87a3.32,3.32,0,0,0-3.14,2.77L0,80.88a2.24,2.24,0,0,0,2.24,2.75H49.37a3.33,3.33,0,0,0,3.14-2.76L63.19,14.92A2.24,2.24,0,0,0,61,12.17Z"/><polygon class="cls-3" points="47.54 76.47 6.42 76.47 16.14 16.55 57.25 16.55 47.54 76.47"/><polygon class="cls-4" points="18.57 32.04 49.76 32.04 50.06 30.22 18.87 30.22 18.57 32.04"/><polygon class="cls-4" points="26.1 35.67 49.15 35.67 49.45 33.85 26.41 33.85 26.1 35.67"/><polygon class="cls-4" points="16.88 42.08 48.07 42.08 48.37 40.26 17.18 40.26 16.88 42.08"/><polygon class="cls-4" points="24.41 45.71 47.45 45.71 47.76 43.9 24.71 43.9 24.41 45.71"/><polygon class="cls-4" points="15.19 52.12 46.38 52.12 46.71 50.2 15.53 50.2 15.19 52.12"/><polygon class="cls-4" points="22.72 55.86 45.76 55.86 46.06 54.04 23.02 54.04 22.72 55.86"/><polygon class="cls-4" points="13.53 62.09 44.72 62.09 45.02 60.24 13.83 60.24 13.53 62.09"/><polygon class="cls-4" points="21.03 65.9 44.07 65.9 44.41 63.98 21.37 63.98 21.03 65.9"/><path class="cls-1" d="M28.25,27.23h2.54l-.22.8H27.06l1.54-5.76h1Z"/><path class="cls-1" d="M31.63,25.85a3.49,3.49,0,0,1,.55-1.13,2.6,2.6,0,0,1,.89-.77,2.14,2.14,0,0,1,1.07-.28,1.37,1.37,0,0,1,1.22.56,1.85,1.85,0,0,1,.17,1.48l-.06.23a3.36,3.36,0,0,1-.53,1.13,2.61,2.61,0,0,1-.89.77,2.28,2.28,0,0,1-1.08.27,1.35,1.35,0,0,1-1.25-.6,2,2,0,0,1-.1-1.61Zm.92.09a1.58,1.58,0,0,0,0,1,.63.63,0,0,0,.64.37A1.1,1.1,0,0,0,34,27a2.51,2.51,0,0,0,.56-1.11,1.59,1.59,0,0,0,0-1,.61.61,0,0,0-.63-.38,1.13,1.13,0,0,0-.83.37A2.5,2.5,0,0,0,32.55,25.94Z"/><path class="cls-1" d="M38.19,28a1.28,1.28,0,0,1,0-.4,1.89,1.89,0,0,1-1.22.48,1.12,1.12,0,0,1-.93-.37,1,1,0,0,1-.15-.91,1.72,1.72,0,0,1,.78-1,2.82,2.82,0,0,1,1.5-.36h.58l.07-.28a.62.62,0,0,0,0-.53.52.52,0,0,0-.49-.2,1,1,0,0,0-.57.16.71.71,0,0,0-.31.42h-.94a1.46,1.46,0,0,1,.41-.66,2,2,0,0,1,.74-.48,2.39,2.39,0,0,1,.92-.18,1.36,1.36,0,0,1,1.06.38,1.13,1.13,0,0,1,.16,1.06L39.24,27a2.09,2.09,0,0,0-.08.92l0,.07Zm-.84-.69a1.25,1.25,0,0,0,.55-.14,1.23,1.23,0,0,0,.47-.37l.21-.81h-.5a1.67,1.67,0,0,0-.83.19.86.86,0,0,0-.4.53.47.47,0,0,0,.06.44A.54.54,0,0,0,37.35,27.34Z"/><path class="cls-1" d="M42,23.75l-.11.5a2,2,0,0,1,1.36-.58c.87,0,1.17.51.92,1.53L43.38,28h-.93l.74-2.77a.8.8,0,0,0,0-.6.56.56,0,0,0-.51-.2,1.24,1.24,0,0,0-1,.53l-.81,3h-.94l1.15-4.28Z"/><path d="M21.65,83.85h15a.16.16,0,0,0,.16-.16.17.17,0,0,0-.16-.17h-15a.17.17,0,0,0-.16.17A.17.17,0,0,0,21.65,83.85Z"/><path d="M46.11,76.69h1.43a.17.17,0,0,0,.16-.14l9.71-60a.16.16,0,0,0,0-.13.19.19,0,0,0-.13-.05H18.34a.16.16,0,0,0-.16.16.16.16,0,0,0,.16.16H57.07L47.4,76.37H46.11a.16.16,0,0,0,0,.32Z"/><path d="M6.42,76.69h4.12a.16.16,0,0,0,0-.32H6.61L14.27,29A.16.16,0,1,0,14,29L6.26,76.5a.15.15,0,0,0,0,.13A.14.14,0,0,0,6.42,76.69Z"/><path d="M50.15,20H23.43a1.66,1.66,0,0,1-1.64-2L22.27,15a5.59,5.59,0,0,1,5.25-4.63H49.2a3.79,3.79,0,0,1,3.74,4.64L52.46,18A2.45,2.45,0,0,1,50.15,20Z"/><path d="M22,19.56a2,2,0,0,1-.41-1.6L22.11,15a5.76,5.76,0,0,1,5.41-4.77H49.2a3.84,3.84,0,0,1,3,1.34,4.19,4.19,0,0,1,.88,3.48L52.61,18a2.61,2.61,0,0,1-2.46,2.16H23.43A1.8,1.8,0,0,1,22,19.56Zm5.48-9a5.42,5.42,0,0,0-5.09,4.5L22,18a1.66,1.66,0,0,0,.33,1.34,1.48,1.48,0,0,0,1.15.51H50.15A2.29,2.29,0,0,0,52.3,18L52.78,15A3.9,3.9,0,0,0,52,11.8a3.54,3.54,0,0,0-2.77-1.23Z"/><path class="cls-2" d="M49.49,20H22.77a1.65,1.65,0,0,1-1.64-2L21.61,15a5.57,5.57,0,0,1,5.24-4.63H48.53a3.78,3.78,0,0,1,3.74,4.64L51.79,18A2.44,2.44,0,0,1,49.49,20Z"/><path d="M21.38,19.56A1.94,1.94,0,0,1,21,18L21.45,15a5.76,5.76,0,0,1,5.4-4.77H48.53a3.87,3.87,0,0,1,3,1.34,4.22,4.22,0,0,1,.88,3.48L52,18a2.62,2.62,0,0,1-2.46,2.16H22.77A1.78,1.78,0,0,1,21.38,19.56Zm5.47-9a5.42,5.42,0,0,0-5.08,4.5L21.29,18a1.59,1.59,0,0,0,.33,1.34,1.48,1.48,0,0,0,1.15.51H49.49A2.28,2.28,0,0,0,51.63,18L52.11,15a3.9,3.9,0,0,0-.8-3.22,3.56,3.56,0,0,0-2.78-1.23Z"/><path d="M39.78.16a6.29,6.29,0,0,0-5.9,5.23l-1.32,8.16a1.35,1.35,0,0,0,1.34,1.66h6.89a2,2,0,0,0,1.88-1.66L44,5.39A4.27,4.27,0,0,0,39.78.16Zm-.92,5.7a1.33,1.33,0,0,1-1.31-1.63A2,2,0,0,1,39.38,2.6a1.33,1.33,0,0,1,1.31,1.63A2,2,0,0,1,38.86,5.86Z"/><path d="M32.74,14.86a1.65,1.65,0,0,1-.34-1.34l1.32-8.15A6.47,6.47,0,0,1,39.78,0a4.36,4.36,0,0,1,3.38,1.5,4.78,4.78,0,0,1,1,3.92l-1.33,8.15a2.16,2.16,0,0,1-2,1.8H33.9A1.48,1.48,0,0,1,32.74,14.86ZM42.91,1.71A4,4,0,0,0,39.78.32,6.13,6.13,0,0,0,34,5.42l-1.33,8.15A1.33,1.33,0,0,0,33,14.65a1.18,1.18,0,0,0,.92.4h6.89a1.84,1.84,0,0,0,1.72-1.53l1.32-8.15A4.42,4.42,0,0,0,42.91,1.71Zm-5.19,3.8a1.61,1.61,0,0,1-.33-1.31,2.12,2.12,0,0,1,2-1.76A1.46,1.46,0,0,1,40.52,3a1.59,1.59,0,0,1,.33,1.3,2.12,2.12,0,0,1-2,1.77A1.46,1.46,0,0,1,37.72,5.51Zm0-1.26a1.23,1.23,0,0,0,.26,1,1.12,1.12,0,0,0,.89.4,1.8,1.8,0,0,0,1.68-1.5h0a1.28,1.28,0,0,0-.27-1.05,1.14,1.14,0,0,0-.89-.39A1.78,1.78,0,0,0,37.71,4.25Z"/><path class="cls-2" d="M39.35.16a6.29,6.29,0,0,0-5.9,5.23l-1.32,8.16a1.35,1.35,0,0,0,1.34,1.66h6.89a2,2,0,0,0,1.88-1.66l1.32-8.16A4.27,4.27,0,0,0,39.35.16Zm-.92,5.7a1.33,1.33,0,0,1-1.31-1.63A2,2,0,0,1,39,2.6a1.33,1.33,0,0,1,1.31,1.63A2,2,0,0,1,38.43,5.86Z"/><path d="M32.31,14.86A1.65,1.65,0,0,1,32,13.52l1.32-8.15A6.47,6.47,0,0,1,39.35,0a4.36,4.36,0,0,1,3.38,1.5,4.78,4.78,0,0,1,1,3.92l-1.33,8.15a2.16,2.16,0,0,1-2,1.8H33.47A1.48,1.48,0,0,1,32.31,14.86Zm1.3-9.44-1.32,8.15a1.29,1.29,0,0,0,.26,1.08,1.18,1.18,0,0,0,.92.4h6.89a1.84,1.84,0,0,0,1.72-1.53L43.4,5.37h0a4.42,4.42,0,0,0-.92-3.66A4,4,0,0,0,39.35.32,6.13,6.13,0,0,0,33.61,5.42Zm3.68.09A1.61,1.61,0,0,1,37,4.2a2.12,2.12,0,0,1,2-1.76A1.46,1.46,0,0,1,40.09,3a1.59,1.59,0,0,1,.33,1.3h0a2.12,2.12,0,0,1-2,1.77A1.46,1.46,0,0,1,37.29,5.51ZM40.11,4.2a1.31,1.31,0,0,0-.26-1.05,1.18,1.18,0,0,0-.9-.39,1.78,1.78,0,0,0-1.67,1.49,1.23,1.23,0,0,0,.26,1,1.12,1.12,0,0,0,.89.4,1.8,1.8,0,0,0,1.68-1.5Z"/><path class="cls-3" d="M49.34,35.67H79.7a1.87,1.87,0,0,0,1.79-1.58L85.38,4.9A1.36,1.36,0,0,0,84,3.32H53.65A1.85,1.85,0,0,0,51.86,4.9L48,34.09A1.35,1.35,0,0,0,49.34,35.67Z"/><path class="cls-4" d="M51.32,8.93H84.84l.54-4A1.36,1.36,0,0,0,84,3.32H53.65A1.85,1.85,0,0,0,51.86,4.9Z"/><path d="M48,35.46A1.8,1.8,0,0,1,47.6,34L51.49,4.85A2.26,2.26,0,0,1,53.65,3H84a1.74,1.74,0,0,1,1.33.59A1.76,1.76,0,0,1,85.74,5L81.86,34.14A2.25,2.25,0,0,1,79.7,36H49.34A1.75,1.75,0,0,1,48,35.46ZM53.65,3.69A1.5,1.5,0,0,0,52.22,5L48.34,34.14a1,1,0,0,0,1,1.16H79.7A1.49,1.49,0,0,0,81.12,34L85,4.85A1.05,1.05,0,0,0,84.78,4,1,1,0,0,0,84,3.69Z"/><path class="cls-4" d="M74.7,24.93h3.71a1,1,0,0,0,1-.86l.5-3.75a.74.74,0,0,0-.75-.86H75.43a1,1,0,0,0-1,.86L74,24.07A.74.74,0,0,0,74.7,24.93Z"/><path class="cls-4" d="M67.63,24.93h3.71a1,1,0,0,0,1-.86l.5-3.75a.74.74,0,0,0-.75-.86H68.36a1,1,0,0,0-1,.86l-.5,3.75A.74.74,0,0,0,67.63,24.93Z"/><path class="cls-1" d="M60.56,24.93h3.71a1,1,0,0,0,1-.86l.5-3.75a.75.75,0,0,0-.75-.86H61.29a1,1,0,0,0-1,.86l-.5,3.75A.74.74,0,0,0,60.56,24.93Z"/><path class="cls-2" d="M53.49,24.93H57.2a1,1,0,0,0,1-.86l.49-3.75a.74.74,0,0,0-.75-.86h-3.7a1,1,0,0,0-1,.86l-.5,3.75A.74.74,0,0,0,53.49,24.93Z"/><path class="cls-4" d="M73.76,32h3.71a1,1,0,0,0,1-.87l.5-3.74a.74.74,0,0,0-.75-.86H74.49a1,1,0,0,0-1,.86L73,31.15A.74.74,0,0,0,73.76,32Z"/><path class="cls-4" d="M66.69,32h3.7a1,1,0,0,0,1-.87l.49-3.74a.73.73,0,0,0-.75-.86H67.41a1,1,0,0,0-1,.86l-.49,3.74A.74.74,0,0,0,66.69,32Z"/><path class="cls-4" d="M59.61,32h3.71a1,1,0,0,0,1-.87l.5-3.74a.73.73,0,0,0-.75-.86H60.34a1,1,0,0,0-1,.86l-.5,3.74A.75.75,0,0,0,59.61,32Z"/><path class="cls-4" d="M75.65,17.82h3.71a1,1,0,0,0,1-.87l.5-3.74a.75.75,0,0,0-.75-.86H76.38a1,1,0,0,0-1,.86L74.9,17A.74.74,0,0,0,75.65,17.82Z"/><path class="cls-4" d="M68.58,17.82h3.71a1,1,0,0,0,1-.87l.49-3.74a.74.74,0,0,0-.75-.86h-3.7a1,1,0,0,0-1,.86L67.83,17A.74.74,0,0,0,68.58,17.82Z"/><path class="cls-4" d="M61.51,17.82h3.7a1,1,0,0,0,1-.87l.5-3.74a.74.74,0,0,0-.75-.86H62.23a1,1,0,0,0-1,.86L60.76,17A.74.74,0,0,0,61.51,17.82Z"/><path class="cls-2" d="M54.43,17.82h3.71a1,1,0,0,0,1-.87l.5-3.74a.74.74,0,0,0-.75-.86H55.16a1,1,0,0,0-1,.86L53.68,17A.75.75,0,0,0,54.43,17.82Z"/><path d="M80.59,6.71h0A3.65,3.65,0,0,0,84.08,3.6a2.82,2.82,0,0,0-.64-2.28,2.75,2.75,0,0,0-2.1-.91h-.2a.37.37,0,0,0-.34.4.36.36,0,0,0,.39.34h.15a2,2,0,0,1,1.54.66,2.09,2.09,0,0,1,.47,1.69A2.9,2.9,0,0,1,80.59,6a.37.37,0,0,0-.37.37A.38.38,0,0,0,80.59,6.71Z"/><path d="M76.43,6.72h0a3.66,3.66,0,0,0,3.49-3.11,2.87,2.87,0,0,0-.65-2.28A2.73,2.73,0,0,0,77.18.42H77a.39.39,0,0,0-.35.4.36.36,0,0,0,.39.34h.16a2,2,0,0,1,1.53.66,2.09,2.09,0,0,1,.47,1.69A2.89,2.89,0,0,1,76.43,6a.37.37,0,1,0,0,.74Z"/><path d="M72.26,6.73h0a3.65,3.65,0,0,0,3.49-3.11,2.76,2.76,0,0,0-.65-2.27A2.69,2.69,0,0,0,73,.43h-.2a.36.36,0,0,0-.34.39.36.36,0,0,0,.39.34H73a2,2,0,0,1,1.54.66A2.13,2.13,0,0,1,75,3.52,2.89,2.89,0,0,1,72.26,6a.38.38,0,0,0-.37.37A.37.37,0,0,0,72.26,6.73Z"/><path d="M68.09,6.74h0a3.66,3.66,0,0,0,3.49-3.11,2.83,2.83,0,0,0-.65-2.27A2.74,2.74,0,0,0,68.85.44h-.2a.37.37,0,0,0-.35.39.38.38,0,0,0,.39.35h.16a2,2,0,0,1,1.53.67,2.06,2.06,0,0,1,.47,1.68A2.89,2.89,0,0,1,68.09,6a.38.38,0,0,0-.37.37A.37.37,0,0,0,68.09,6.74Z"/><path d="M63.93,6.75h0a3.65,3.65,0,0,0,3.49-3.11A2.73,2.73,0,0,0,64.68.45h-.2a.37.37,0,0,0-.35.39.39.39,0,0,0,.4.35h.15a2,2,0,0,1,1.53.67,2.11,2.11,0,0,1,.48,1.69A2.9,2.9,0,0,1,63.93,6a.37.37,0,0,0-.37.37A.36.36,0,0,0,63.93,6.75Z"/><path d="M59.76,6.76h0a3.65,3.65,0,0,0,3.49-3.11,2.8,2.8,0,0,0-.64-2.27,2.76,2.76,0,0,0-2.1-.92h-.2A.36.36,0,0,0,60,.86a.37.37,0,0,0,.39.35h.15a2,2,0,0,1,1.54.67,2.07,2.07,0,0,1,.47,1.69A2.89,2.89,0,0,1,59.76,6a.38.38,0,0,0-.37.37A.37.37,0,0,0,59.76,6.76Z"/><path d="M55.83,6.77h0a3.65,3.65,0,0,0,3.5-3.1,2.86,2.86,0,0,0-.65-2.28A2.74,2.74,0,0,0,56.59.47h0A3.61,3.61,0,0,0,53.76,2a.37.37,0,0,0,.08.52.38.38,0,0,0,.52-.08,2.84,2.84,0,0,1,2.22-1.18h0a2,2,0,0,1,1.53.67,2.07,2.07,0,0,1,.47,1.69A2.89,2.89,0,0,1,55.83,6a.38.38,0,0,0-.37.37A.37.37,0,0,0,55.83,6.77Z"/></g></g></svg>