<svg xmlns="http://www.w3.org/2000/svg" viewBox="0 0 153.9 44.06"><g id="Layer_2" data-name="Layer 2"><g id="Layer_1-2" data-name="Layer 1"><path d="M7.88,1.52a4.22,4.22,0,0,1,1.6,2.35H8.12A3,3,0,0,0,6.93,2.41a3.42,3.42,0,0,0-2-.55,3.51,3.51,0,0,0-1.83.47A3.35,3.35,0,0,0,1.88,3.68a4.39,4.39,0,0,0-.46,2.07,4.5,4.5,0,0,0,.46,2.11,3.41,3.41,0,0,0,1.3,1.36,3.83,3.83,0,0,0,1.91.47,3.53,3.53,0,0,0,1.68-.4A3.21,3.21,0,0,0,8,8.14a3.84,3.84,0,0,0,.59-1.78H4.69v-1h5V6.59A5,5,0,0,1,9,8.74a4.5,4.5,0,0,1-1.65,1.53A4.78,4.78,0,0,1,5,10.84a5,5,0,0,1-2.55-.65A4.52,4.52,0,0,1,.7,8.39,5.53,5.53,0,0,1,.08,5.75,5.53,5.53,0,0,1,.7,3.11,4.61,4.61,0,0,1,2.42,1.3,5,5,0,0,1,5,.65,4.79,4.79,0,0,1,7.88,1.52Z"/><path d="M16.55,3.43a2.94,2.94,0,0,1,1.1,1.51V3h1.29v7.78H17.65v-2a2.93,2.93,0,0,1-1.1,1.52,3.17,3.17,0,0,1-1.92.57,3.53,3.53,0,0,1-1.84-.48A3.36,3.36,0,0,1,11.52,9a4.62,4.62,0,0,1-.46-2.11,4.74,4.74,0,0,1,.46-2.13,3.42,3.42,0,0,1,1.27-1.39,3.53,3.53,0,0,1,1.84-.48A3.17,3.17,0,0,1,16.55,3.43ZM13.1,4.77a2.9,2.9,0,0,0-.72,2.09A2.93,2.93,0,0,0,13.1,9,2.49,2.49,0,0,0,15,9.7a2.61,2.61,0,0,0,1.37-.35,2.52,2.52,0,0,0,.94-1,3.12,3.12,0,0,0,.34-1.49,3.13,3.13,0,0,0-.34-1.5,2.39,2.39,0,0,0-.94-1A2.71,2.71,0,0,0,15,4,2.46,2.46,0,0,0,13.1,4.77Zm.41-3.23A2,2,0,0,1,13,.13V0h.7A1,1,0,0,0,14,.84a1.43,1.43,0,0,0,1,.29,1.44,1.44,0,0,0,1-.29A1,1,0,0,0,16.33,0H17V.13a1.92,1.92,0,0,1-.54,1.41A2,2,0,0,1,15,2.1,2,2,0,0,1,13.51,1.54Z"/><path d="M25.55,3.55a2.89,2.89,0,0,1,1,1.85H25.29a1.75,1.75,0,0,0-.58-1.14,1.84,1.84,0,0,0-1.31-.45,1.62,1.62,0,0,0-1.08.33,1.14,1.14,0,0,0-.39.9.94.94,0,0,0,.26.69,1.66,1.66,0,0,0,.65.4c.26.09.62.18,1.07.29a10,10,0,0,1,1.4.4,2.24,2.24,0,0,1,.9.66,1.85,1.85,0,0,1,.38,1.22,1.9,1.9,0,0,1-.72,1.54,2.85,2.85,0,0,1-1.9.6,3.62,3.62,0,0,1-2.27-.67,2.64,2.64,0,0,1-1-1.85h1.25a1.59,1.59,0,0,0,.61,1.14A2.17,2.17,0,0,0,24,9.9a1.48,1.48,0,0,0,1-.34,1.13,1.13,0,0,0,.38-.89A1,1,0,0,0,25.12,8a1.76,1.76,0,0,0-.67-.41,7.91,7.91,0,0,0-1.09-.3A10.16,10.16,0,0,1,22,6.84a2,2,0,0,1-.88-.63A1.78,1.78,0,0,1,20.74,5a2,2,0,0,1,.72-1.58,3,3,0,0,1,2-.6A3.13,3.13,0,0,1,25.55,3.55Z"/><path d="M35.42,7.13H29.2a2.75,2.75,0,0,0,.75,2,2.46,2.46,0,0,0,1.75.67,2.51,2.51,0,0,0,1.57-.48A1.91,1.91,0,0,0,34,8.05h1.38a3.4,3.4,0,0,1-.63,1.44,3.2,3.2,0,0,1-1.27,1,4.16,4.16,0,0,1-1.76.36,4,4,0,0,1-2-.48A3.44,3.44,0,0,1,28.42,9a4.38,4.38,0,0,1-.48-2.11,4.49,4.49,0,0,1,.48-2.13,3.5,3.5,0,0,1,1.36-1.39,4.32,4.32,0,0,1,4,0A3.4,3.4,0,0,1,35,4.63a3.74,3.74,0,0,1,.44,1.79A4.83,4.83,0,0,1,35.42,7.13ZM33.89,5.06a2.1,2.1,0,0,0-.9-.87,2.68,2.68,0,0,0-1.23-.28A2.53,2.53,0,0,0,30,4.57,2.59,2.59,0,0,0,29.2,6.5h5A2.7,2.7,0,0,0,33.89,5.06Z"/><path d="M41.71,3.55a2.84,2.84,0,0,1,1,1.85H41.45a1.79,1.79,0,0,0-.57-1.14,1.88,1.88,0,0,0-1.31-.45,1.63,1.63,0,0,0-1.09.33,1.14,1.14,0,0,0-.39.9.9.9,0,0,0,.27.69,1.59,1.59,0,0,0,.65.4c.26.09.61.18,1.07.29a9.8,9.8,0,0,1,1.39.4,2.21,2.21,0,0,1,.91.66,1.85,1.85,0,0,1,.37,1.22A1.89,1.89,0,0,1,42,10.24a2.87,2.87,0,0,1-1.91.6,3.59,3.59,0,0,1-2.26-.67,2.65,2.65,0,0,1-1-1.85h1.25a1.6,1.6,0,0,0,.62,1.14,2.16,2.16,0,0,0,1.43.44,1.47,1.47,0,0,0,1-.34,1.13,1.13,0,0,0,.38-.89A1,1,0,0,0,41.28,8a1.68,1.68,0,0,0-.67-.41,7.52,7.52,0,0,0-1.09-.3,11.11,11.11,0,0,1-1.38-.4,2.17,2.17,0,0,1-.88-.63A1.78,1.78,0,0,1,36.9,5a2,2,0,0,1,.73-1.58,3,3,0,0,1,2-.6A3.13,3.13,0,0,1,41.71,3.55Zm-1,8.86a1.81,1.81,0,0,1-.37,1.25,1.33,1.33,0,0,1-1,.42v-.55c.45,0,.67-.29.67-.86v-.13h-.64V11.45h1.25A3.43,3.43,0,0,1,40.73,12.41Z"/><path d="M48.19,9.6v1.14h-1a2.47,2.47,0,0,1-1.78-.57,2.57,2.57,0,0,1-.59-1.9V4.08H43.7V3h1.16V1h1.31V3h2V4.08h-2V8.3a1.5,1.5,0,0,0,.27,1,1.38,1.38,0,0,0,1,.27Z"/><path d="M56.86,7.13H50.64a2.75,2.75,0,0,0,.76,2,2.46,2.46,0,0,0,1.75.67,2.51,2.51,0,0,0,1.57-.48,1.91,1.91,0,0,0,.77-1.26h1.37A3.26,3.26,0,0,1,55,10.48a4.16,4.16,0,0,1-1.76.36,4,4,0,0,1-2-.48A3.44,3.44,0,0,1,49.87,9a4.38,4.38,0,0,1-.49-2.11,4.49,4.49,0,0,1,.49-2.13,3.5,3.5,0,0,1,1.36-1.39,4,4,0,0,1,2-.48,3.91,3.91,0,0,1,2,.48,3.27,3.27,0,0,1,1.29,1.29,3.63,3.63,0,0,1,.45,1.79A3.69,3.69,0,0,1,56.86,7.13ZM55.33,5.06a2,2,0,0,0-.89-.87,2.71,2.71,0,0,0-1.23-.28,2.57,2.57,0,0,0-1.79.66,2.66,2.66,0,0,0-.78,1.93h5A2.61,2.61,0,0,0,55.33,5.06Z"/><path d="M68.45,3.27a3.27,3.27,0,0,1,1.24,1.4,4.78,4.78,0,0,1,.45,2.14A4.8,4.8,0,0,1,69.69,9a3.27,3.27,0,0,1-1.24,1.4,3.37,3.37,0,0,1-1.78.48,2.93,2.93,0,0,1-1.7-.48,2.62,2.62,0,0,1-1-1.27v5.39H62V2.89h2V4.52a2.6,2.6,0,0,1,1-1.26,3,3,0,0,1,1.7-.47A3.37,3.37,0,0,1,68.45,3.27Zm-3.9,1.88A2.32,2.32,0,0,0,64,6.81a2.3,2.3,0,0,0,.59,1.65,2.14,2.14,0,0,0,3,0,2.33,2.33,0,0,0,.57-1.67,2.37,2.37,0,0,0-.57-1.67A2,2,0,0,0,66,4.53,2,2,0,0,0,64.55,5.15Z"/><path d="M74.71,3.21a3.07,3.07,0,0,1,1.62-.43V4.92h-.58c-1.47,0-2.2.68-2.2,2v3.78h-2V2.89h2v1.5A3.28,3.28,0,0,1,74.71,3.21Z"/><path d="M83.12,3.27a3.53,3.53,0,0,1,1.44,1.4,4.21,4.21,0,0,1,.52,2.14A4.16,4.16,0,0,1,84.56,9a3.59,3.59,0,0,1-1.44,1.4,4.58,4.58,0,0,1-4.12,0A3.59,3.59,0,0,1,77.56,9,4.16,4.16,0,0,1,77,6.81a4.21,4.21,0,0,1,.52-2.14A3.53,3.53,0,0,1,79,3.27a4.66,4.66,0,0,1,4.12,0ZM79.64,5.11a2.35,2.35,0,0,0-.58,1.7,2.36,2.36,0,0,0,.58,1.71,2,2,0,0,0,2.84,0,2.36,2.36,0,0,0,.58-1.71,2.35,2.35,0,0,0-.58-1.7,2,2,0,0,0-2.84,0Z"/><path d="M91.27,3.26a2.68,2.68,0,0,1,1,1.26V.25h2V10.74h-2V9.09a2.7,2.7,0,0,1-1,1.27,3,3,0,0,1-1.7.48,3.37,3.37,0,0,1-1.78-.48A3.27,3.27,0,0,1,86.55,9a4.8,4.8,0,0,1-.45-2.15,4.78,4.78,0,0,1,.45-2.14,3.27,3.27,0,0,1,1.24-1.4,3.37,3.37,0,0,1,1.78-.48A3,3,0,0,1,91.27,3.26ZM88.69,5.14a2.41,2.41,0,0,0-.56,1.67,2.37,2.37,0,0,0,.56,1.67,2,2,0,0,0,1.51.6,1.94,1.94,0,0,0,1.49-.62,2.3,2.3,0,0,0,.59-1.65,2.32,2.32,0,0,0-.59-1.66,2.14,2.14,0,0,0-3,0Z"/><path d="M103.58,2.89v7.85h-2V9.15a2.51,2.51,0,0,1-1,1.24,3,3,0,0,1-1.65.45A2.8,2.8,0,0,1,96.74,10a3.6,3.6,0,0,1-.81-2.5V2.89h2V7.22a2.07,2.07,0,0,0,.48,1.46,1.69,1.69,0,0,0,1.3.51,1.78,1.78,0,0,0,1.38-.55,2.27,2.27,0,0,0,.51-1.59V2.89Z"/><path d="M110.4,3.51a3.18,3.18,0,0,1,1.07,1.93H109.6a1.51,1.51,0,0,0-.51-.91,1.54,1.54,0,0,0-1-.34,1.18,1.18,0,0,0-.79.24.82.82,0,0,0-.29.66.67.67,0,0,0,.23.52,1.56,1.56,0,0,0,.57.31,9.63,9.63,0,0,0,1,.27,9.53,9.53,0,0,1,1.46.42,2.41,2.41,0,0,1,1,.69,1.92,1.92,0,0,1,.4,1.28,2,2,0,0,1-.78,1.63,3.3,3.3,0,0,1-2.12.63,4,4,0,0,1-2.45-.69,2.86,2.86,0,0,1-1.12-2H107a1.29,1.29,0,0,0,.51.91,1.87,1.87,0,0,0,1.15.33,1.14,1.14,0,0,0,.78-.24.85.85,0,0,0,.27-.65.71.71,0,0,0-.24-.55,1.63,1.63,0,0,0-.58-.33l-1-.27a10.56,10.56,0,0,1-1.43-.4,2.34,2.34,0,0,1-.93-.66,1.82,1.82,0,0,1-.39-1.24A2,2,0,0,1,106,3.43a3.28,3.28,0,0,1,2.15-.64A3.48,3.48,0,0,1,110.4,3.51Z"/><path d="M120.37,7.2h-5.75a2.16,2.16,0,0,0,.57,1.54,1.8,1.8,0,0,0,1.3.5,1.91,1.91,0,0,0,1.15-.34,1.5,1.5,0,0,0,.59-.92h2.11a3.38,3.38,0,0,1-.66,1.47,3.6,3.6,0,0,1-1.31,1,4.33,4.33,0,0,1-1.78.37,4.22,4.22,0,0,1-2-.49A3.41,3.41,0,0,1,113.16,9a4.37,4.37,0,0,1-.5-2.14,4.42,4.42,0,0,1,.5-2.14,3.35,3.35,0,0,1,1.39-1.4,4.21,4.21,0,0,1,2-.48,4.14,4.14,0,0,1,2,.48A3.45,3.45,0,0,1,120,4.6a3.9,3.9,0,0,1,.47,1.92A3.64,3.64,0,0,1,120.37,7.2Zm-2.44-2.34a1.94,1.94,0,0,0-1.34-.5,2,2,0,0,0-1.36.5,2,2,0,0,0-.61,1.46h3.81A1.77,1.77,0,0,0,117.93,4.86Z"/><path d="M123.46,11a2.21,2.21,0,0,1-.46,1.45,1.72,1.72,0,0,1-1.43.56v-.76a.7.7,0,0,0,.54-.18.88.88,0,0,0,.17-.63v-.14h-.9V9.45h1.74A3.7,3.7,0,0,1,123.46,11Z"/><path d="M5.3,18.33a3.18,3.18,0,0,1,1.07,1.93H4.5A1.51,1.51,0,0,0,4,19.35,1.54,1.54,0,0,0,3,19a1.14,1.14,0,0,0-.79.25.8.8,0,0,0-.29.65.65.65,0,0,0,.23.52,1.56,1.56,0,0,0,.57.31,9.63,9.63,0,0,0,1,.27,9.53,9.53,0,0,1,1.46.42,2.51,2.51,0,0,1,1,.69,1.93,1.93,0,0,1,.4,1.29A2,2,0,0,1,5.69,25a3.36,3.36,0,0,1-2.12.62A4,4,0,0,1,1.12,25,2.86,2.86,0,0,1,0,23H1.91a1.29,1.29,0,0,0,.51.91,1.81,1.81,0,0,0,1.15.34A1.14,1.14,0,0,0,4.35,24a.85.85,0,0,0,.27-.65.71.71,0,0,0-.24-.55,1.48,1.48,0,0,0-.58-.32c-.23-.08-.56-.17-1-.27a11.28,11.28,0,0,1-1.42-.41,2.13,2.13,0,0,1-.94-.66,1.82,1.82,0,0,1-.39-1.24,2,2,0,0,1,.78-1.66A3.34,3.34,0,0,1,3,17.61,3.48,3.48,0,0,1,5.3,18.33Z"/><path d="M15.27,22H9.52a2.16,2.16,0,0,0,.57,1.54,1.82,1.82,0,0,0,1.3.5,1.91,1.91,0,0,0,1.15-.34,1.5,1.5,0,0,0,.59-.92h2.11a3.33,3.33,0,0,1-.66,1.47,3.5,3.5,0,0,1-1.31,1,4.17,4.17,0,0,1-1.78.37,4.11,4.11,0,0,1-2-.49,3.41,3.41,0,0,1-1.39-1.4,4.35,4.35,0,0,1-.5-2.13,4.43,4.43,0,0,1,.5-2.15,3.41,3.41,0,0,1,1.39-1.4,4.21,4.21,0,0,1,2-.48,4.14,4.14,0,0,1,2,.48,3.52,3.52,0,0,1,1.35,1.33,3.9,3.9,0,0,1,.47,1.92A3.56,3.56,0,0,1,15.27,22Zm-2.44-2.34a1.94,1.94,0,0,0-1.34-.5,2,2,0,0,0-1.36.5,2,2,0,0,0-.61,1.46h3.81A1.77,1.77,0,0,0,12.83,19.68Z"/><path d="M19.92,18a3.06,3.06,0,0,1,1.61-.43v2.14H21q-2.19,0-2.19,2v3.78h-2V17.71h2v1.5A3.28,3.28,0,0,1,19.92,18Z"/><path d="M26.05,23.56l2-5.85h2.13l-2.9,7.85H24.82l-2.91-7.85h2.14Z"/><path d="M31.38,14.67a1.47,1.47,0,0,1,1.78,0,1,1,0,0,1,.34.79,1,1,0,0,1-.34.77,1.43,1.43,0,0,1-1.78,0,1,1,0,0,1-.34-.77A1,1,0,0,1,31.38,14.67Zm1.88,3v7.85h-2V17.71Z"/><path d="M41.13,18.43a3.59,3.59,0,0,1,1.27,2.24H40.29a1.67,1.67,0,0,0-.58-1,1.8,1.8,0,0,0-1.15-.36,1.69,1.69,0,0,0-1.32.58,2.49,2.49,0,0,0-.54,1.73,2.48,2.48,0,0,0,.54,1.72,1.69,1.69,0,0,0,1.32.58,1.8,1.8,0,0,0,1.15-.36,1.67,1.67,0,0,0,.58-1H42.4a3.59,3.59,0,0,1-1.27,2.24,3.92,3.92,0,0,1-2.53.82,4.16,4.16,0,0,1-2-.49,3.47,3.47,0,0,1-1.39-1.4,4.35,4.35,0,0,1-.49-2.13,4.43,4.43,0,0,1,.49-2.15,3.47,3.47,0,0,1,1.39-1.4,4.27,4.27,0,0,1,2-.48A3.92,3.92,0,0,1,41.13,18.43Z"/><path d="M43.93,14.67a1.3,1.3,0,0,1,.89-.3,1.28,1.28,0,0,1,.89.3,1,1,0,0,1,.34.79,1,1,0,0,1-.34.77,1.28,1.28,0,0,1-.89.31,1.3,1.3,0,0,1-.89-.31,1,1,0,0,1-.34-.77A1,1,0,0,1,43.93,14.67Zm1.88,3v7.85h-2V17.71Z"/><path d="M47.74,14.67a1.3,1.3,0,0,1,.89-.3,1.28,1.28,0,0,1,.89.3,1,1,0,0,1,.34.79,1,1,0,0,1-.34.77,1.28,1.28,0,0,1-.89.31,1.3,1.3,0,0,1-.89-.31,1,1,0,0,1-.34-.77A1,1,0,0,1,47.74,14.67Zm1.88,3v7.85h-2V17.71Z"/><path d="M59.53,18.33a3.18,3.18,0,0,1,1.07,1.93H58.73a1.51,1.51,0,0,0-.51-.91,1.56,1.56,0,0,0-1-.34,1.12,1.12,0,0,0-.79.25.8.8,0,0,0-.29.65.65.65,0,0,0,.23.52,1.56,1.56,0,0,0,.57.31,9.63,9.63,0,0,0,1,.27,9,9,0,0,1,1.45.42,2.47,2.47,0,0,1,1,.69,1.93,1.93,0,0,1,.4,1.29A2,2,0,0,1,59.92,25a3.36,3.36,0,0,1-2.12.62A4,4,0,0,1,55.35,25a2.86,2.86,0,0,1-1.12-2h1.91a1.29,1.29,0,0,0,.51.91,1.81,1.81,0,0,0,1.15.34,1.14,1.14,0,0,0,.78-.25.85.85,0,0,0,.27-.65.71.71,0,0,0-.24-.55,1.48,1.48,0,0,0-.58-.32c-.23-.08-.56-.17-1-.27a12,12,0,0,1-1.43-.41,2.16,2.16,0,0,1-.93-.66,1.82,1.82,0,0,1-.39-1.24,2,2,0,0,1,.78-1.66,3.32,3.32,0,0,1,2.15-.64A3.48,3.48,0,0,1,59.53,18.33Zm-1,9.18A2.16,2.16,0,0,1,58.11,29a1.63,1.63,0,0,1-1.3.53v-.77c.47,0,.7-.31.7-.95v-.12h-.77V26.2h1.61A3.87,3.87,0,0,1,58.56,27.51Z"/><path d="M62.3,14.67a1.49,1.49,0,0,1,1.79,0,1,1,0,0,1,.34.79,1,1,0,0,1-.34.77,1.45,1.45,0,0,1-1.79,0,1,1,0,0,1-.34-.77A1,1,0,0,1,62.3,14.67Zm1.89,3v7.85h-2V17.71Z"/><path d="M74.78,18.09a3.63,3.63,0,0,1,1.43,1.4,4.23,4.23,0,0,1,.53,2.15,4.15,4.15,0,0,1-.53,2.13,3.63,3.63,0,0,1-1.43,1.4,4.6,4.6,0,0,1-4.13,0,3.51,3.51,0,0,1-1.43-1.4,4.15,4.15,0,0,1-.53-2.13,4.23,4.23,0,0,1,.53-2.15,3.51,3.51,0,0,1,1.43-1.4,4.68,4.68,0,0,1,4.13,0ZM71.3,19.93a2.32,2.32,0,0,0-.58,1.71,2.31,2.31,0,0,0,.58,1.7,2,2,0,0,0,2.83,0,2.31,2.31,0,0,0,.58-1.7,2.32,2.32,0,0,0-.58-1.71,2,2,0,0,0-2.83,0Z"/><path d="M84.63,18.09a3.32,3.32,0,0,1,1.24,1.4,4.8,4.8,0,0,1,.44,2.15,4.78,4.78,0,0,1-.44,2.14,3.27,3.27,0,0,1-1.24,1.4,3.4,3.4,0,0,1-1.79.48,2.92,2.92,0,0,1-1.69-.48,2.54,2.54,0,0,1-1-1.26V29.3h-2V17.71h2v1.63a2.54,2.54,0,0,1,1-1.26,3,3,0,0,1,1.69-.47A3.4,3.4,0,0,1,84.63,18.09ZM80.73,20a2.29,2.29,0,0,0-.59,1.67,2.26,2.26,0,0,0,.59,1.65,2.15,2.15,0,0,0,3,0,2.32,2.32,0,0,0,.57-1.66A2.37,2.37,0,0,0,83.72,20a2.12,2.12,0,0,0-3,0Z"/><path d="M93.42,18.09a3.59,3.59,0,0,1,1.44,1.4,4.23,4.23,0,0,1,.52,2.15,4.15,4.15,0,0,1-.52,2.13,3.59,3.59,0,0,1-1.44,1.4,4.58,4.58,0,0,1-4.12,0,3.59,3.59,0,0,1-1.44-1.4,4.15,4.15,0,0,1-.53-2.13,4.23,4.23,0,0,1,.53-2.15,3.59,3.59,0,0,1,1.44-1.4,4.66,4.66,0,0,1,4.12,0Zm-3.48,1.84a2.32,2.32,0,0,0-.58,1.71,2.31,2.31,0,0,0,.58,1.7,1.93,1.93,0,0,0,1.42.59,1.91,1.91,0,0,0,1.41-.59,2.31,2.31,0,0,0,.58-1.7,2.32,2.32,0,0,0-.58-1.71,1.91,1.91,0,0,0-1.41-.59A1.93,1.93,0,0,0,89.94,19.93Z"/><path d="M100,18a3.06,3.06,0,0,1,1.61-.43v2.14H101c-1.46,0-2.2.68-2.2,2v3.78h-2V17.71h2v1.5A3.31,3.31,0,0,1,100,18Z"/><path d="M106.87,23.85v1.71h-1.05a2.88,2.88,0,0,1-2-.64,2.73,2.73,0,0,1-.7-2.12V19.4H102V17.71h1.09V15.77h2v1.94h1.76V19.4H105.1v3.43a1.07,1.07,0,0,0,.23.79,1,1,0,0,0,.76.23Z"/><path d="M115.81,17.71v7.85h-2V24a2.47,2.47,0,0,1-1,1.24,3,3,0,0,1-1.65.45,2.78,2.78,0,0,1-2.16-.89,3.6,3.6,0,0,1-.81-2.5V17.71h2v4.34a2.06,2.06,0,0,0,.48,1.45,1.72,1.72,0,0,0,1.31.52,1.78,1.78,0,0,0,1.37-.56,2.24,2.24,0,0,0,.51-1.58V17.71Z"/><path d="M124.46,18.49a3.61,3.61,0,0,1,.81,2.51v4.56h-2V21.22a2.06,2.06,0,0,0-.48-1.45,1.73,1.73,0,0,0-1.32-.51,1.75,1.75,0,0,0-1.36.55,2.26,2.26,0,0,0-.51,1.58v4.17h-2V17.71h2v1.57a2.51,2.51,0,0,1,1-1.24,3.08,3.08,0,0,1,1.65-.44A2.78,2.78,0,0,1,124.46,18.49Z"/><path d="M127.14,14.67a1.49,1.49,0,0,1,1.79,0,1,1,0,0,1,.34.79,1,1,0,0,1-.34.77,1.45,1.45,0,0,1-1.79,0,1,1,0,0,1-.34-.77A1,1,0,0,1,127.14,14.67Zm1.89,3v7.85h-2V17.71Z"/><path d="M135,23.85v1.71H134a2.88,2.88,0,0,1-2-.64,2.77,2.77,0,0,1-.7-2.12V19.4h-1.09V17.71h1.09V15.77h2v1.94H135V19.4h-1.76v3.43a1.11,1.11,0,0,0,.23.79,1,1,0,0,0,.76.23Z"/><path d="M141.24,18.08a2.54,2.54,0,0,1,1,1.26V17.71h2v7.85h-2V23.92a2.54,2.54,0,0,1-1,1.26,3,3,0,0,1-1.7.48,3.4,3.4,0,0,1-1.79-.48,3.27,3.27,0,0,1-1.24-1.4,4.78,4.78,0,0,1-.44-2.14,4.8,4.8,0,0,1,.44-2.15,3.32,3.32,0,0,1,1.24-1.4,3.4,3.4,0,0,1,1.79-.48A3.05,3.05,0,0,1,141.24,18.08Zm-2.74-1.73a2.27,2.27,0,0,1-.62-1.7v-.17h1c0,.7.43,1,1.28,1s1.27-.35,1.27-1h1v.17a2.3,2.3,0,0,1-.61,1.7,2.51,2.51,0,0,1-3.3,0Zm.16,3.61a2.37,2.37,0,0,0-.57,1.68,2.32,2.32,0,0,0,.57,1.66,2.15,2.15,0,0,0,3,0,2.26,2.26,0,0,0,.59-1.65,2.29,2.29,0,0,0-.59-1.67,2.12,2.12,0,0,0-3,0Z"/><path d="M150.23,23.85v1.71h-1a2.9,2.9,0,0,1-2-.64,2.77,2.77,0,0,1-.7-2.12V19.4h-1.09V17.71h1.09V15.77h2v1.94h1.76V19.4h-1.76v3.43a1.11,1.11,0,0,0,.23.79,1,1,0,0,0,.76.23ZM149,26.2a3.88,3.88,0,0,1,.23,1.31,2.16,2.16,0,0,1-.46,1.46,1.64,1.64,0,0,1-1.31.53v-.77c.48,0,.72-.31.72-.95v-.12h-.8V26.2Z"/><path d="M151.78,14.67a1.28,1.28,0,0,1,.89-.3,1.3,1.3,0,0,1,.89.3,1,1,0,0,1,.34.79,1,1,0,0,1-.34.77,1.3,1.3,0,0,1-.89.31,1.28,1.28,0,0,1-.89-.31,1,1,0,0,1-.34-.77A1,1,0,0,1,151.78,14.67Zm1.88,3v7.85h-2V17.71Z"/><path d="M5.53,33.07a2.93,2.93,0,0,1,1.1,1.52v-2H7.92v7.78H6.63v-2a2.9,2.9,0,0,1-1.1,1.51,3.17,3.17,0,0,1-1.92.57A3.53,3.53,0,0,1,1.77,40,3.33,3.33,0,0,1,.5,38.62,4.7,4.7,0,0,1,0,36.5,4.77,4.77,0,0,1,.5,34.37,3.33,3.33,0,0,1,1.77,33a3.54,3.54,0,0,1,1.84-.49A3.17,3.17,0,0,1,5.53,33.07ZM2.08,34.41a3.39,3.39,0,0,0,0,4.18,2.5,2.5,0,0,0,1.9.76A2.62,2.62,0,0,0,5.35,39a2.46,2.46,0,0,0,.94-1,3.09,3.09,0,0,0,.34-1.49A3.13,3.13,0,0,0,6.29,35a2.39,2.39,0,0,0-.94-1A2.71,2.71,0,0,0,4,33.65,2.46,2.46,0,0,0,2.08,34.41Z"/><path d="M16.11,33a3.25,3.25,0,0,1,1.26,1.38,4.64,4.64,0,0,1,.46,2.13,4.57,4.57,0,0,1-.46,2.12A3.25,3.25,0,0,1,16.11,40a3.56,3.56,0,0,1-1.84.48,3.17,3.17,0,0,1-1.92-.57,3,3,0,0,1-1.09-1.51v5.66H10V32.6h1.29v2a2.87,2.87,0,0,1,1.09-1.51,3.17,3.17,0,0,1,1.92-.58A3.56,3.56,0,0,1,16.11,33Zm-3.57,1a2.3,2.3,0,0,0-.95,1,3.13,3.13,0,0,0-.34,1.5A3.09,3.09,0,0,0,11.59,38a2.35,2.35,0,0,0,.95,1,2.61,2.61,0,0,0,1.36.36,2.54,2.54,0,0,0,1.92-.76,3.43,3.43,0,0,0,0-4.18,2.51,2.51,0,0,0-1.92-.76A2.7,2.7,0,0,0,12.54,34Z"/><path d="M21.93,32.92a3.4,3.4,0,0,1,1.76-.44v1.4h-.4a2.8,2.8,0,0,0-1.79.56,2.25,2.25,0,0,0-.69,1.85v4.09H19.52V32.6h1.29v1.58A2.86,2.86,0,0,1,21.93,32.92Z"/><path d="M30.49,33a3.42,3.42,0,0,1,1.39,1.38,4.3,4.3,0,0,1,.5,2.13,4.23,4.23,0,0,1-.5,2.12A3.42,3.42,0,0,1,30.49,40a4.43,4.43,0,0,1-4,0,3.48,3.48,0,0,1-1.39-1.38,4.24,4.24,0,0,1-.51-2.12,4.3,4.3,0,0,1,.51-2.13A3.48,3.48,0,0,1,26.48,33a4.35,4.35,0,0,1,4,0Zm-3.28,1a2.31,2.31,0,0,0-.95,1,3.67,3.67,0,0,0,0,3.17,2.31,2.31,0,0,0,.95,1,2.8,2.8,0,0,0,2.56,0,2.37,2.37,0,0,0,.95-1,3.67,3.67,0,0,0,0-3.17,2.37,2.37,0,0,0-.95-1,2.8,2.8,0,0,0-2.56,0Z"/><path d="M39.18,33.07a2.91,2.91,0,0,1,1.09,1.52v-2h1.29v7.78H40.27v-2a2.89,2.89,0,0,1-1.09,1.51,3.21,3.21,0,0,1-1.92.57A3.51,3.51,0,0,1,35.42,40a3.27,3.27,0,0,1-1.27-1.38,4.57,4.57,0,0,1-.46-2.12,4.64,4.64,0,0,1,.46-2.13A3.27,3.27,0,0,1,35.42,33a3.51,3.51,0,0,1,1.84-.49A3.21,3.21,0,0,1,39.18,33.07Zm-3.46,1.34a3.39,3.39,0,0,0,0,4.18,2.52,2.52,0,0,0,1.91.76A2.58,2.58,0,0,0,39,39a2.39,2.39,0,0,0,.94-1,3.09,3.09,0,0,0,.34-1.49,3.13,3.13,0,0,0-.34-1.5A2.33,2.33,0,0,0,39,34a2.67,2.67,0,0,0-1.36-.35A2.49,2.49,0,0,0,35.72,34.41Z"/><path d="M49.75,33A3.33,3.33,0,0,1,51,34.37a4.64,4.64,0,0,1,.46,2.13A4.57,4.57,0,0,1,51,38.62,3.33,3.33,0,0,1,49.75,40a3.53,3.53,0,0,1-1.84.48A3.17,3.17,0,0,1,46,39.91a2.93,2.93,0,0,1-1.08-1.51v5.66H43.62V32.6h1.29v2A2.85,2.85,0,0,1,46,33.08a3.17,3.17,0,0,1,1.92-.58A3.54,3.54,0,0,1,49.75,33Zm-3.57,1a2.42,2.42,0,0,0-1,1,3.25,3.25,0,0,0-.34,1.5A3.21,3.21,0,0,0,45.23,38a2.48,2.48,0,0,0,1,1,2.63,2.63,0,0,0,1.36.36,2.54,2.54,0,0,0,1.92-.76,3.39,3.39,0,0,0,0-4.18,2.51,2.51,0,0,0-1.92-.76A2.73,2.73,0,0,0,46.18,34Z"/><path d="M60.26,36.77H54a2.73,2.73,0,0,0,.76,2,2.49,2.49,0,0,0,1.75.66A2.59,2.59,0,0,0,58.12,39a2,2,0,0,0,.77-1.27h1.37a3.12,3.12,0,0,1-.63,1.44,3.24,3.24,0,0,1-1.27,1,4.24,4.24,0,0,1-1.75.35,4,4,0,0,1-2-.48,3.45,3.45,0,0,1-1.35-1.38,4.45,4.45,0,0,1-.49-2.12,4.52,4.52,0,0,1,.49-2.13A3.45,3.45,0,0,1,54.62,33a4,4,0,0,1,2-.49,3.92,3.92,0,0,1,2,.49,3.2,3.2,0,0,1,1.29,1.29,3.57,3.57,0,0,1,.45,1.78A3.69,3.69,0,0,1,60.26,36.77ZM58.73,34.7a2,2,0,0,0-.89-.86,2.72,2.72,0,0,0-1.23-.29,2.55,2.55,0,0,0-1.79.66A2.67,2.67,0,0,0,54,36.15h5A2.71,2.71,0,0,0,58.73,34.7Z"/><path d="M70.61,33.07a2.93,2.93,0,0,1,1.1,1.52V29.9H73V40.38H71.71v-2a2.9,2.9,0,0,1-1.1,1.51,3.17,3.17,0,0,1-1.92.57A3.53,3.53,0,0,1,66.85,40a3.33,3.33,0,0,1-1.27-1.38,4.7,4.7,0,0,1-.46-2.12,4.77,4.77,0,0,1,.46-2.13A3.33,3.33,0,0,1,66.85,33a3.54,3.54,0,0,1,1.84-.49A3.17,3.17,0,0,1,70.61,33.07Zm-3.46,1.34a3.43,3.43,0,0,0,0,4.18,2.54,2.54,0,0,0,1.91.76A2.62,2.62,0,0,0,70.43,39a2.46,2.46,0,0,0,.94-1,3.09,3.09,0,0,0,.34-1.49,3.13,3.13,0,0,0-.34-1.5,2.39,2.39,0,0,0-.94-1,2.71,2.71,0,0,0-1.37-.35A2.5,2.5,0,0,0,67.15,34.41Z"/><path d="M82.15,36.77H75.93a2.73,2.73,0,0,0,.76,2,2.49,2.49,0,0,0,1.75.66A2.56,2.56,0,0,0,80,39a2,2,0,0,0,.78-1.27h1.37a3.12,3.12,0,0,1-.63,1.44,3.31,3.31,0,0,1-1.27,1,4.27,4.27,0,0,1-1.75.35,4,4,0,0,1-2-.48,3.39,3.39,0,0,1-1.35-1.38,4.34,4.34,0,0,1-.49-2.12,4.41,4.41,0,0,1,.49-2.13A3.39,3.39,0,0,1,76.51,33a4,4,0,0,1,2-.49,3.92,3.92,0,0,1,2,.49,3.33,3.33,0,0,1,1.29,1.29,3.57,3.57,0,0,1,.45,1.78A3.69,3.69,0,0,1,82.15,36.77ZM80.62,34.7a2,2,0,0,0-.89-.86,2.72,2.72,0,0,0-1.23-.29,2.55,2.55,0,0,0-1.79.66,2.67,2.67,0,0,0-.78,1.94h5A2.62,2.62,0,0,0,80.62,34.7Z"/><path d="M91.1,39.25v1.13h-1a2.47,2.47,0,0,1-1.78-.57,2.55,2.55,0,0,1-.59-1.89v-4.2H86.61V32.6h1.16V30.66h1.31V32.6h2v1.12h-2v4.22a1.46,1.46,0,0,0,.27,1,1.33,1.33,0,0,0,1,.28Z"/><path d="M92.69,29.75a.89.89,0,0,1,.64-.22.88.88,0,0,1,.63.22.79.79,0,0,1,0,1.15,1,1,0,0,1-1.27,0,.81.81,0,0,1,0-1.15ZM94,32.6v7.78H92.68V32.6Z"/><path d="M102.32,33.35a3.48,3.48,0,0,1,.84,2.51v4.52h-1.29V36a2.48,2.48,0,0,0-.6-1.79,2.09,2.09,0,0,0-1.61-.62,2.22,2.22,0,0,0-1.7.68,2.84,2.84,0,0,0-.64,2v4.12H96V32.6h1.29v1.85A2.62,2.62,0,0,1,98.38,33a3.05,3.05,0,0,1,1.75-.51A2.89,2.89,0,0,1,102.32,33.35Z"/><path d="M112.24,36.77H106a2.73,2.73,0,0,0,.76,2,2.47,2.47,0,0,0,1.75.66,2.56,2.56,0,0,0,1.56-.47,2,2,0,0,0,.77-1.27h1.38a3.28,3.28,0,0,1-1.9,2.44,4.29,4.29,0,0,1-1.76.35,4,4,0,0,1-2-.48,3.33,3.33,0,0,1-1.35-1.38,4.34,4.34,0,0,1-.49-2.12,4.41,4.41,0,0,1,.49-2.13A3.33,3.33,0,0,1,106.6,33a4,4,0,0,1,2-.49,3.93,3.93,0,0,1,2,.49,3.33,3.33,0,0,1,1.29,1.29,3.57,3.57,0,0,1,.45,1.78A3.69,3.69,0,0,1,112.24,36.77Zm-1.53-2.07a2.1,2.1,0,0,0-.89-.86,2.73,2.73,0,0,0-1.24-.29,2.55,2.55,0,0,0-1.78.66,2.67,2.67,0,0,0-.78,1.94h5A2.62,2.62,0,0,0,110.71,34.7Z"/></g></g></svg>