<svg xmlns="http://www.w3.org/2000/svg" viewBox="0 0 229.58 46.76"><defs><style>.cls-1{fill:#f98f0e;}.cls-2{fill:#171717;}.cls-3{fill:#f98f0b;}</style></defs><g id="Layer_2" data-name="Layer 2"><g id="Layer_1-2" data-name="Layer 1"><path d="M68.74,9.13a8.08,8.08,0,0,1,2.39.22,4,4,0,0,1,2.77,4.07.59.59,0,0,1-.69.57c-.47,0-.94,0-1.41,0-.74,0-1.43.13-1.33-1a1.06,1.06,0,0,0-1-1.09,56.79,56.79,0,0,0-8.94-.13c-.84,0-1.2.71-1.21,1.53,0,1.11-.31,2.36,1.26,2.75a4.76,4.76,0,0,0,2.28.05h.29a27.12,27.12,0,0,0,7.42.24c2.15.16,3.13.91,3.52,2.94a10.87,10.87,0,0,1,0,3.94c-.39,2.05-1.42,2.85-4.21,3A63.6,63.6,0,0,1,59.16,26a2.81,2.81,0,0,1-2.66-1.83c0-.76-.32-1.47-.33-2.23s.17-1.35,1.13-1.21c.17,0,0,0,.13,0,1.1-.19,1.84.11,1.84,1.39.22,1.16,1.2,1.29,2.11,1.51.49.43,1.08.17,1.6.16a36.78,36.78,0,0,0,6.8-.23c.21,0,.43,0,.49-.28.91-1.14.49-2.44.42-3.68,0-.4-.49-.55-.9-.58-.89-.07-1.78-.18-2.67-.19-2.38,0-4.76,0-7.14-.21s-3.56-1-3.88-3.51c-.48-3.76.71-6,4.2-6A74.26,74.26,0,0,0,68.74,9.13Z"/><path d="M221.86,16.59a2.73,2.73,0,0,1,1.86,2.21,11,11,0,0,1,0,4.68,3.06,3.06,0,0,1-3,2.55,57.79,57.79,0,0,1-12,0,2.88,2.88,0,0,1-2.76-2.09c.23-.81-.31-1.54-.23-2.35.05-.56.15-.87.79-.82a6.3,6.3,0,0,1,2,.08c.74.33,0,1.27.47,1.79.57,1.09,1.75.65,2.6,1-.08.1-.16.18-.3.14.07.13.19,0,.27,0h6.15c-.25-.08-.61.12-.86-.17a19.17,19.17,0,0,1,2.14-.23c1,0,1.34-.61,1.45-1.43.06-.51,0-1,0-1.54.06-.94-.34-1.36-1.3-1.47a44.41,44.41,0,0,0-5.88-.13c-1.54,0-3.06-.17-4.58-.29-1.71-.14-2.9-1.63-3.1-3.79a8.37,8.37,0,0,1,.32-3.15c.57-2,2-2.67,4.83-2.52a72,72,0,0,0,8.44,0c2.27,0,3.35.72,4.06,2.81a.71.71,0,0,0-.06.25c0,1.67,0,1.56-1.66,1.69-1,.07-1.16-.45-1.32-1.15a2.06,2.06,0,0,0-2-1c-2.56,0-5.12,0-7.68,0-1.07,0-1.67.54-1.55,1.69.11,1-.47,2.23,1.1,2.59,1.25.43,2.55.14,3.83.27a29.34,29.34,0,0,0,5.22.16C220.11,16.33,221,16.8,221.86,16.59Z"/><path d="M167.76,18.59a37.53,37.53,0,0,0,0,4.86c.38.3.82.13,1.23.13,3.63,0,7.26.05,10.89,0,1,0,1.08.42,1.09,1.22s-.16,1.13-1.06,1.13q-7.17-.08-14.34,0c-1,0-1.17-.38-1.17-1.22q0-7,0-14.09c0-.83.28-1.22,1.18-1.27,4.78-.24,9.56,0,14.33-.11,1,0,.72.69.78,1.24.08.71-.1,1.09-.95,1.08-3.52,0-7.05,0-10.57,0,3.48,0,6.95,0,10.43,0,.41,0,.85-.14,1.24.12-.31.47-.77.21-1.15.21-3.63,0-7.26,0-10.88,0-.85,0-1.24.13-1.14,1.09s.06,2,.07,3.06a4.41,4.41,0,0,0,2,.12c3.07,0,6.14.06,9.2,0,1,0,1,.47,1,1.18s0,1.19-1,1.17c-3.32-.06-6.64,0-10,0C168.58,18.47,168.14,18.31,167.76,18.59Z"/><path d="M80.82,16,93.6,16c.37-1.81.06-3.63.15-5.45,0-.66-.19-1.38,1-1.32,1.58.08,2,.23,2,1.33,0,4.74,0,9.49,0,14.23,0,.92-.37,1.17-1.23,1.14-2-.07-1.67.22-1.73-1.7a31.51,31.51,0,0,0-.15-5.32l-12.77,0c-.35,1.89,0,3.8-.18,5.7,0,.45.35,1.19-.37,1.3a4.65,4.65,0,0,1-2.51-.1c-.35-.15-.16-.7-.17-1.07q0-7,0-13.92a3.84,3.84,0,0,0-.08-1.39,3.92,3.92,0,0,1,3.25,0A36.82,36.82,0,0,0,80.82,16Z"/><path d="M104.27,22.17c.21.56.77.7,1.19,1,1.4.68,2.89.36,4.35.4,1.24,0,2.48,0,3.71,0,0,0,.07,0,.07,0a.53.53,0,0,0,0-.12c1-.4,2.25-.08,2.88-1.25.31-.38.13-.82.14-1.23,0-3.45,0-6.9,0-10.35,0-.5-.13-1.16.52-1.28a4.48,4.48,0,0,1,2.38.07c.26.09.16.45.16.7,0,4.09,0,8.18,0,12.26,0,.48-.36.88-.21,1.37-.71,2-2.47,2.39-4.19,2.46A54.15,54.15,0,0,1,104.85,26c-1.78-.27-3.36-.92-4-2.86.13-4.18,0-8.36.06-12.54,0-1.41,0-1.41,1.35-1.41a4.34,4.34,0,0,0,.51,0c.94-.15,1.25.18,1.23,1.17-.06,3.54,0,7.08,0,10.63C104,21.4,103.76,21.88,104.27,22.17Z"/><path d="M122.87,11.9c-.52-.72-.16-1.53-.23-2.29a10,10,0,0,1,3.89-.34c4.52-.1,9,0,13.57-.06,1.12,0,1.22.49,1.25,1.38s-.35,1.25-1.28,1.22c-1.79-.07-3.58,0-5.37,0-.35,0-.78-.21-1,.22l0-.06.06-.05c-.3.38-.15.83-.16,1.24,0,3.84,0,7.68,0,11.52,0,.91-.16,1.3-1.18,1.25-1.9-.1-1.65.16-1.65-1.64,0-3.71,0-7.42,0-11.14,0-.41.16-.85-.16-1.22l.06,0,0,.06c-.31-.46-.78-.21-1.16-.22-1.79,0-3.58,0-5.37,0-.48,0-1.07.14-1-.55A.84.84,0,0,1,122.87,11.9Z"/><path d="M120.29,31.45a1.64,1.64,0,0,1,1.79.89c.31.51.71,1.31,0,1.62-.43.2-1.54.6-1.76-.65,0-.23-.39-.4-.6-.6a19.54,19.54,0,0,0-5.56,0c-.84,1.24-.79,1.76.25,2.48a22,22,0,0,0,5.06.11c2.91-.06,4.19,2.09,2.81,4.67a2.51,2.51,0,0,1-2.42,1.14c-1.87.09-3.76.06-5.64,0a2.29,2.29,0,0,1-2.37-1.73c-.13-.46-.32-1.14.1-1.43a2,2,0,0,1,1.47-.08c.57.16.35.77.37,1.21,0,.29.17.56.43.56,2,0,4,.31,6-.15,1-2,.57-2.69-1.63-2.73a23.74,23.74,0,0,1-4.84-.16,2.16,2.16,0,0,1-2-2.51c0-1.73.54-2.38,2.05-2.69A42.59,42.59,0,0,0,120.29,31.45Z"/><path d="M99.26,39.9a1.9,1.9,0,0,1-.51-1.38c0-2.28,0-4.57,0-6.86a1.42,1.42,0,0,1,.61-.12c.95-.13,1.36.15,1.3,1.22-.09,1.77,0,3.55,0,5.32,0,.34-.22.77.24,1a18.21,18.21,0,0,0,5.8.15c.76-.06,1.14-.56,1.12-1.4,0-1.91,0-3.82,0-5.73,0-.22-.17-.5.16-.66.28,2.08,0,4.16.1,6.24,0,.17.25,0,.09,0s-.08,0-.08-.09c0-1.71,0-3.41,0-5.12,0-.6.1-1,.83-.95s.72.42.72.93c0,1.92,0,3.84,0,5.76a2.34,2.34,0,0,1-2.19,2.53,32.09,32.09,0,0,1-6.5,0A3.89,3.89,0,0,1,99.26,39.9Z"/><path d="M223.16,37c-7.37,0-14.74,0-22.11,0-3.07,0-6.13,0-9.2,0-.33-.86,0-1.13.87-1.13q14.79,0,29.57,0C223.16,35.89,223.5,36.15,223.16,37Z"/><path d="M83.38,37q-13.63,0-27.25.07c-1,0-.74-.53-.68-1.07a1.53,1.53,0,0,1,.87-.11H82.38C83.21,35.89,83.77,36,83.38,37Z"/><path d="M180.85,11.67H168.06v-.26h4.73c2.27,0,4.53,0,6.79,0,.81,0,1-.28,1-1s-.25-1-1-1c-4.15,0-8.29,0-12.44,0-.63,0-1.26.18-1.89.24s-.55.43-.55.83c0,4.82,0,9.65,0,14.48,0,.7.31.86.93.85,4.74,0,9.49,0,14.23,0,.81,0,1-.3,1-1.05s-.27-1-1-1c-3.93,0-7.86,0-11.79,0a.35.35,0,0,1-.23-.07s0-.14,0-.21c4.14,0,8.28,0,12.42-.05,1.2,0,.93.7.89,1.31s.43,1.48-.9,1.46c-5-.06-10,0-15,0-.81,0-1-.26-1-1q0-7.48,0-15c0-.77.21-1.06,1-1.06q7.42,0,14.85,0c.75,0,1,.25.89,1C180.88,10.59,180.88,11.13,180.85,11.67Z"/><path d="M93.6,18.89c.64,0,.27.5.27.71,0,1.75.06,3.51,0,5.26,0,1,.62.92,1.26.9s1.32.23,1.32-.85c0-4.83,0-9.65,0-14.48,0-1.22-1-.89-1.69-1s-.87.38-.86,1c0,1.84,0,3.67,0,5.51,0,0,0,.09-.06.09l-.22,0c0-2,0-4,0-6,0-.68.22-.86.88-.89,2.5-.09,2.5-.11,2.5,2.36,0,4.52,0,9,0,13.56,0,.89-.25,1.17-1.15,1.16-2.24,0-2.24,0-2.24-2.28Z"/><path class="cls-1" d="M38.57,43.26a9,9,0,0,1-3.21,3.35c-.3.19-.54.25-.75-.1,0-.07-.1-.13-.15-.2-.55-.92-1.69-1.84-1.29-2.83.26-.62,1.7-.16,2.61-.21S37.53,43.26,38.57,43.26Z"/><path d="M150.78,12c-2.22,0-4.44,0-6.67,0-.74,0-1.13-.13-1-1a4.92,4.92,0,0,0,0-1.15c0-.52.09-.77.69-.77q8.53,0,17.06,0c.64,0,.81.29.77.86a5.62,5.62,0,0,0,0,1.16c.08.69-.21.87-.87.86-2.26,0-4.53,0-6.79,0l-.1-.2c.41-.6,1-.48,1.63-.49,1.4,0,2.81,0,4.22,0,.48,0,1.12.05,1.12-.7s-.6-.62-1-.68a45.63,45.63,0,0,0-5.36-.12h-8.56a11,11,0,0,0-1.15,0c-.45,0-.86.15-.86.72s.38.72.84.74c1.36.07,2.73,0,4.09,0,.7,0,1.47-.19,2,.45Z"/><path d="M164.67,39.34c2.18,0,4.35,0,6.53,0,.7,0,.92.16.94.9s-.47.72-1,.72c-2.56,0-5.12,0-7.68.09-.71,0-.62-.34-.62-.76,0-2.69,0-5.38,0-8.07,0-.67.15-.89.83-.84s1-.09,1,.81c-.06,2.39,0,4.78,0,7.17-.8-.15-.63-.81-.65-1.31-.06-1.4,0-2.81,0-4.22a2.68,2.68,0,0,0-.24-1.47,2.72,2.72,0,0,0-.25,1.56c0,1.71,0,3.41,0,5.12,0,.87.36,1.22,1.23,1.21,2,0,4,0,6-.12-1.54-.16-3.1-.07-4.65-.15C165.58,40,164.84,40.21,164.67,39.34Z"/><path d="M128.44,33c-1.32,0-2.64,0-4,0-.59,0-.8-.14-.8-.77s.23-.77.82-.76c3.28,0,6.55,0,9.83,0,.65,0,.88.14.89.84s-.39.68-.88.68l-4,0-.12-.14c.46-.74,1.2-.47,1.85-.52.5-.05,1,0,1.51,0-2.75,0-5.5,0-8.38,0,1.16.15,2.24-.24,3.23.35A.24.24,0,0,1,128.44,33Z"/><path d="M99.26,39.9c2.49,1.28,5.18.65,7.78.71,1.65,0,2.47-1,2.48-2.6s0-3.41,0-5.12c0-.49.29-1.23-.66-1.2s-.58.7-.59,1.15a49.94,49.94,0,0,1-.26,5.73V31.45l.37-.07c1.3-.28,1.62.28,1.53,1.54-.12,1.82,0,3.65,0,5.48a2.42,2.42,0,0,1-2.24,2.49,31.38,31.38,0,0,1-6.85,0A1.83,1.83,0,0,1,99.26,39.9Z"/><path d="M223.16,37c.11-.79-.23-1-1-1q-14.65,0-29.29,0c-.78,0-1.12.22-1,1-.54-1-.46-1.24.56-1.24q15.06,0,30.11,0C223.72,35.76,223.59,36.27,223.16,37Z"/><path d="M133.66,12c.24-.54.72-.35,1.12-.36,1.79,0,3.58-.05,5.37,0,1,0,.91-.58.94-1.24s-.13-1.09-1-1.08c-4.52,0-9-.06-13.56.06-1.29,0-2.61.13-3.91.2.08-.66.59-.5,1-.5,5.66,0,11.32,0,17,0,.84,0,1,.32,1,1.06,0,1.81,0,1.81-1.8,1.82Z"/><path d="M119.46,23.7c0-2.23.06-4.46.07-6.69s0-4.34,0-6.51c0-1.05-.43-1.2-1.3-1.17s-1.59,0-1.57,1.23c0,3.53,0,7.07,0,10.6,0,.33,0,.67,0,1,0,0-.07.05-.1.05l-.11-.05c0-4,0-7.94,0-11.91,0-.92.28-1.17,1.17-1.16,2.28,0,2.28,0,2.28,2.26,0,3.41,0,6.83,0,10.24A3.86,3.86,0,0,1,119.46,23.7Z"/><path d="M130.52,11.92c.46.35.28.86.28,1.3,0,3.8,0,7.59,0,11.38,0,1,.32,1.24,1.25,1.21s1.41,0,1.38-1.2c-.07-3.8,0-7.59,0-11.38,0-.45-.17-1,.28-1.32,0,4.27,0,8.53,0,12.79,0,1.23-.36,1.59-1.48,1.4a1.27,1.27,0,0,0-.39,0c-1,.18-1.37-.17-1.35-1.28C130.55,20.52,130.51,16.22,130.52,11.92Z"/><path d="M154,12c0,4.3-.06,8.6,0,12.9,0,1.07-.33,1.36-1.29,1.22a2.42,2.42,0,0,0-.76,0c-.88.13-1.14-.2-1.14-1.11,0-4.34,0-8.68,0-13l.05,0c.83.28.64,1,.64,1.59,0,3.29,0,6.58,0,9.86a7.84,7.84,0,0,0,.06,1.28.83.83,0,0,0,1.62,0,7.84,7.84,0,0,0,.06-1.28c0-3.29,0-6.57,0-9.86,0-.58-.18-1.31.64-1.59Z"/><path d="M104.27,22.17c-.59-.27-.37-.81-.38-1.24,0-3.46-.06-6.92,0-10.38,0-1.27-.63-1.21-1.5-1.22s-1.4.08-1.38,1.21c.07,3.8,0,7.6,0,11.41,0,.41.14.85-.17,1.23a79.37,79.37,0,0,1-.16-8.16c0-1.32,0-2.64,0-4,0-2,0-1.85,1.9-2,1.34-.09,1.6.36,1.56,1.61-.09,3.32,0,6.64,0,10C104.15,21.15,104.23,21.66,104.27,22.17Z"/><path d="M83.38,37c.17-1.1-.56-1-1.28-1H55.45c.17-.49.58-.23.86-.23l26.45,0C84,35.76,83.8,36.29,83.38,37Z"/><path d="M167.76,18.59a1.73,1.73,0,0,1,1-.26c3.29,0,6.59,0,9.88,0,.77,0,1.16-.13,1.16-1s-.38-1-1.16-1c-3.29,0-6.58,0-9.88,0-.34,0-.8.24-1.05-.25,3.8,0,7.59.05,11.38,0,1.64,0,.77,1.14,1,1.77.26.87-.37.83-1,.82Z"/><path d="M77.51,9.37c.38.4.2.9.2,1.34,0,4.58.05,9.15,0,13.72,0,1.21.42,1.37,1.47,1.39s1.5-.3,1.42-1.44c-.11-1.45,0-2.9,0-4.36,0-.4-.18-.87.27-1.17,0,2-.06,4.1,0,6.14,0,.89-.22,1.17-1.13,1.16-2.25,0-2.26,0-2.25-2.19C77.46,19.09,77.49,14.23,77.51,9.37Z"/><path d="M173.68,31.44h1.74a44.54,44.54,0,0,1,.13,6.43,8.83,8.83,0,0,1-.16,3.24H173.7c-.35-.46-.18-1-.16-1.47A80.14,80.14,0,0,1,173.68,31.44Z"/><path d="M130.38,33c0,2.4,0,4.79.05,7.18,0,.87-.3.93-1,1s-1-.15-1-1c.06-2.39,0-4.79,0-7.18l.08,0c.76.19.6.84.62,1.34.05,1.4,0,2.8,0,4.2a1.81,1.81,0,0,0,.29,1.41,15,15,0,0,0,.19-3.7c0-.72,0-1.45,0-2.16,0-.43-.06-1,.61-1.09Z"/><path d="M221.86,16.59c-.92.61-1.8-.13-2.71-.07-3,.23-5.94-.25-8.91-.23-.45,0-.69-.05-.08-.32,2.81.08,5.61.18,8.42.24A12.11,12.11,0,0,1,221.86,16.59Z"/><path d="M199.28,25.55V21.74h.27c0,1.06-.05,2.11,0,3.17.08,1.58,1.32.69,2,.85.87.19.58-.43.58-.94a13.45,13.45,0,0,1,.16-4.15l.06.73c.3,1.19-.06,2.42.19,3.62.44.94.11,1.25-.87,1.13a13.37,13.37,0,0,0-1.79,0C199.52,26.13,199.25,26,199.28,25.55Z"/><path class="cls-2" d="M59.27,22.16s0,.09,0,.12a.93.93,0,0,1-.15.13A1.48,1.48,0,0,1,59,22c.16-1.31-.78-1-1.5-1.05s-1.06.29-1.1,1.1.45,1.46.1,2.21a6.76,6.76,0,0,1-.32-1c-.54-2.56.22-3.3,2.72-2.6C59.83,20.9,59.1,21.66,59.27,22.16Z"/><path d="M187.75,20.43a.57.57,0,0,1,.53-.29h9.34s.1,0,.11.05a1.41,1.41,0,0,1,0,.21Z"/><path d="M70.27,23.32a2.33,2.33,0,0,1-1.94.62c-2.5.07-5,0-7.62,0,0,0,.07-.28.18-.21s.32-.05.49-.09C64.34,23.46,67.33,23.94,70.27,23.32Z"/><path d="M173.68,31.44q0,4.83,0,9.67c-.35-.07-.33-.34-.33-.59,0-2.82,0-5.63,0-8.45C173.38,31.82,173.36,31.55,173.68,31.44Z"/><path d="M175.39,41.1l0-9.67c.23.11.25.32.25.54,0,2.87,0,5.75,0,8.63C175.68,40.83,175.63,41,175.39,41.1Z"/><path d="M100.93,39.09c-.53-.23-.37-.7-.37-1.1,0-1.52,0-3,0-4.56,0-2.17,0-1.68-1.76-1.77,1.54-.69,2-.43,2,1.09A61,61,0,0,0,100.93,39.09Z"/><path d="M113.56,23.41l.55.18c-2.87,0-5.73.42-8.57-.14,0,0-.1,0-.1-.05a.86.86,0,0,1,0-.22A50.94,50.94,0,0,0,113.56,23.41Z"/><path d="M122.87,11.9V10.14c-.15,1.7,1,1.56,2.08,1.53,1.49,0,3,0,4.47,0,.4,0,.88-.19,1.12.35Z"/><path d="M70.54,16.3c-1.74.53-3.51.13-5.27.22-.73,0-1.54.19-2.15-.46Z"/><path d="M209.08,22.64c-.39.17-.26-.16-.29-.32-.11-.46.29-1.18-.36-1.33a4,4,0,0,0-2.13,0c-.62.21-.35,1-.27,1.48s.37,1,0,1.45c0-.16-.07-.33-.11-.49-.64-2.73-.54-2.83,2.17-2.84.83,0,1,.27.95,1A7,7,0,0,0,209.08,22.64Z"/><path d="M68.74,9.13a2.84,2.84,0,0,1-2,.21c-2.15-.09-4.32.3-6.46-.2Z"/><path d="M219.29,9.13c-1.62.49-3.28.18-4.92.19-1.17,0-2.37.31-3.52-.19Z"/><path d="M216.94,23.68l1.34.17v.09h-7.72c.36-.34.78-.1,1.12-.27Z"/><path d="M120.28,39.54c-.1.3-.35.33-.61.33-1.7,0-3.4,0-5.09,0-.41,0-1,0-.75-.73a.92.92,0,0,0,1,.49Z"/><path d="M220.31,12.73c.53.14.18,1,1.11,1.06,1.63.16,1.76-.75,1.93-1.85.3,2,.3,2-1.75,2.06C220.56,14.05,220.12,13.78,220.31,12.73Z"/><path d="M88,39.14a14.8,14.8,0,0,1,6.62,0Z"/><path d="M151.61,39.21a.47.47,0,0,1,.47-.34h6s.1,0,.1.06a1.47,1.47,0,0,1,0,.21Z"/><path d="M180.08,39.21a.5.5,0,0,1,.48-.34h5.83a.59.59,0,0,1,.59.39C184.68,39.08,182.38,39.16,180.08,39.21Z"/><path d="M80.82,16c-.53-.53-.27-1.2-.25-1.79.06-1.62-.26-3.25.19-4.85Z"/><path d="M120.29,31.45a19.58,19.58,0,0,1-6.39,0A40.1,40.1,0,0,1,120.29,31.45Z"/><path d="M114.2,32.74l0-.22a43.6,43.6,0,0,1,5.6,0s0,.06,0,.09a.39.39,0,0,1-.06.11Z"/><path d="M119.51,35.33a20.17,20.17,0,0,1-5.09.11s0-.07,0-.11a.6.6,0,0,1,.06-.11Z"/><path d="M202.58,25c-.49-1.19-.15-2.41-.19-3.62C202.84,22.57,202.49,23.8,202.58,25Z"/><path d="M62.83,16.07c-.78.42-1.63.13-2.44.21,0,0-.06-.05-.08-.07l.24-.19Z"/><path class="cls-3" d="M45.62,18.06C43.27,11.06,38.94,5.4,33.53.49c-1-.87-1.73-.42-2.57.12-1.68,1.07-2.39,2.82-3.26,4.47s-2.17,2.06-3.9,1A37.52,37.52,0,0,1,19.9,3c-1.81-1.46-3-1.6-4.95-.39A35.24,35.24,0,0,0,2.38,15.91,17.62,17.62,0,0,0,0,23.62C-.22,29,2.29,33.16,5.83,36.86a1.63,1.63,0,0,0,2.54.23,13.83,13.83,0,0,1,2-1.21c2.93-1.77,6-3.24,9.48-3.4a14.37,14.37,0,0,1,11.27,4.78c1.51,1.58,3,2.72,5.26,2.09a12.75,12.75,0,0,1,2.05,0,2.25,2.25,0,0,0,2.4-1.26,36.85,36.85,0,0,0,4-7.4C46.3,26.58,47.07,22.37,45.62,18.06ZM43.15,23c-.11,5.25-2.61,9.48-5.85,13.37a1.2,1.2,0,0,1-1.9.09c-1.17-1-2.32-2-3.48-3-6-5.16-12.58-5.59-19.58-2.32a34,34,0,0,0-3.26,1.74,1.52,1.52,0,0,1-2.3-.42C3.42,28.37,2.17,23.35,5.13,17.8A32.66,32.66,0,0,1,15.41,6.12c1.82-1.27,2.1-1.24,3.78.15.82.68,1.62,1.39,2.46,2,3.2,2.48,7,1.62,8.83-2C31.94,3.44,32,3.41,34.2,5.74c3.37,3.52,6.34,7.33,8,12A13.09,13.09,0,0,1,43.15,23Z"/><path d="M187.75,17.52c3.13,0,6.26,0,9.39,0,1,0,1.84-.33,2-1.52.52-.71,0-1.58.45-2.54V15.1c0,2.11-.64,2.72-2.73,2.72-2.59,0-5.18,0-7.77,0C188.6,17.81,188.09,18,187.75,17.52Z"/><path d="M202.61,15.47c.16-2.5-.32-5.1-2.56-5.8-.49.48-1-.07-1.44-.07q-6.41,0-12.81,0c-.7,0-.87.3-.87.93,0,4.78,0,9.56,0,14.35,0,1.07.69.86,1.3.87s1.33.17,1.27-.89,0-2.22,0-3.33c0-.4-.18-.88.32-1.15v0a10.81,10.81,0,0,1,3.45-.14,45.07,45.07,0,0,1,6.47.13c1.13.32,1.4,1.09,1.37,2.2a5.81,5.81,0,0,0,.17,2.95,3.86,3.86,0,0,0,.16-.94c0,1.44.28,1.42,2.24,1.3.58,0,.8-.14.76-.82-.11-1.47-.11-2.95-.11-4.43-.21-1.21-1.35-1.37-2.33-1.93A3.28,3.28,0,0,0,202.61,15.47Zm-4.73,2.13a77.22,77.22,0,0,1-10.09-.08v.05l-.05-.05h0a19.77,19.77,0,0,1,0-5.54h0l0,0a.68.68,0,0,1,.63-.26h8.85a.3.3,0,0,1,.21.07s0,.14,0,.22h0a1.88,1.88,0,0,1,1.6,2.41,11.51,11.51,0,0,0,0,1.66A1.19,1.19,0,0,1,197.88,17.6Zm1.55,5v1.36A7.72,7.72,0,0,1,199.43,22.58Z"/><path d="M187.79,11.92c0,1.88,0,3.77,0,5.65A11,11,0,0,1,187.79,11.92Z"/><path d="M185.47,32.56a1.86,1.86,0,0,0-1.94-1.19,2,2,0,0,0-2,1.26c-1.45,2.8-3,5.53-4.6,8.34,2.64.2,2.15.43,3.18-1.76.06-.19.21-.23.39-.23h6c.21,0,.43,0,.5.27,1,2.09,1,2.09,3.09,1.65C188.53,38.11,187,35.35,185.47,32.56Zm-4.45,5,2.51-4.67c.87,1.63,1.65,3.12,2.48,4.67Z"/><path d="M93.18,32.57a1.92,1.92,0,0,0-2-1.2,1.94,1.94,0,0,0-2,1.21c-1.51,2.83-3.08,5.62-4.62,8.42,1.62.44,2.66,0,3.13-1.57,0-.11.16-.2.24-.29A22.12,22.12,0,0,1,92.69,39c.65,0,1.34-.24,2,.19,1,2.06,1,2.06,3.17,1.72C96.25,38.1,94.66,35.36,93.18,32.57Zm-4.41,5,2.5-4.65c.85,1.58,1.65,3.06,2.52,4.65Z"/><path d="M160.88,39.82c-1.4-2.58-2.82-5.14-4.25-7.7-.46-.82-2.75-1.08-3.18-.31-1.7,3-3.34,6.07-5,9.15,2.18.32,2.18.32,3.18-1.75a23,23,0,0,1,6.62-.08,13.73,13.73,0,0,0,.87,1.55c.57.77,1.49.48,2.1.29S161.08,40.19,160.88,39.82Zm-8.4-2.23L155,32.94l2.51,4.65Z"/><path d="M145.88,37.18c1.47-1,1.8-2.38,1.12-4.28-1.27-1.18-2.84-1-4.38-1s-3.24,0-4.85,0c-.74,0-1.08.18-1.06,1,0,2.26,0,4.51,0,6.77,0,.47-.05,1,.68,1s.57-.49.59-.91,0-1.08.07-1.62a.16.16,0,0,1,.11,0,.6.6,0,0,1,.11.06c1.36,0,2.73,0,4.09,0,.8,0,1.7-.29,2.39.13.84.5.3,1.47.39,2.23s.53.71,1,.62,1.11.43,1.1-.39C147.22,39.37,147.79,37.8,145.88,37.18Zm-1.52-.67a21.07,21.07,0,0,1-6.09,0c0-.89.06-1.79,0-2.68-.05-.7.22-.85.86-.83,1.44,0,2.89,0,4.34,0,.63,0,1.59-.16,1.65.74S145.71,35.89,144.36,36.51Z"/><path d="M138.27,36.47l6.09,0c.09.13.06.27-.08.27-1.88,0-3.76,0-5.63,0C138.52,36.76,138.39,36.57,138.27,36.47Z"/><path d="M225.63,1.65a4.08,4.08,0,0,0-4.14,4.1,3.93,3.93,0,0,0,4,4.14,4,4,0,0,0,4.05-4A4,4,0,0,0,225.63,1.65ZM225.57,9a3.14,3.14,0,0,1-3.2-3.25,3.21,3.21,0,1,1,6.41-.05A3.31,3.31,0,0,1,225.57,9Z"/><path d="M153.89,11.93c-.41.38-.22.88-.23,1.33,0,3.8,0,7.6,0,11.4,0,1.08-.48,1.14-1.32,1.14s-1.33-.07-1.31-1.14c.07-3.8,0-7.6,0-11.4,0-.45.18-.95-.24-1.33s-.78-.26-1.19-.27c-1.74,0-3.49-.05-5.24,0-.93,0-1-.42-1-1.17s.09-1.19,1-1.17c5.23.16,10.47-.2,15.7.18.73.06,1.27-.25,1.27.87s-.28,1.34-1.3,1.29c-1.66-.08-3.33,0-5,0C154.68,11.67,154.22,11.51,153.89,11.93Z"/><path d="M164.67,39.34c.31.43.77.27,1.18.27,1.7,0,3.4,0,5.11,0,.36,0,.83-.11.86.47s-.41.55-.79.55c-2.34,0-4.68,0-7,0-.68,0-.89-.25-.89-.9,0-2.39,0-4.77,0-7.16,0-.48,0-1,.69-.94s.59.59.59,1c0,1.84,0,3.67,0,5.5,0,.4-.16.87.28,1.18Z"/><path d="M130.29,33c-.5,1.19-.16,2.43-.23,3.64-.06,1.06,0,2.13,0,3.2,0,.45,0,.86-.64.86s-.65-.41-.65-.86c0-2,0-3.93,0-5.89,0-.33.09-.69-.24-.95-1.08-.61-2.24-.11-3.36-.28-.34,0-.92.18-.91-.38s.58-.36.92-.36q4.35,0,8.7,0c.34,0,.92-.19.94.35s-.56.35-.9.39C132.71,32.83,131.46,32.37,130.29,33Z"/><path d="M175.19,36.23c0,1.2,0,2.39,0,3.58,0,.46,0,.85-.65.85s-.64-.42-.64-.87V32.51c0-.45,0-.85.65-.84s.64.41.64.86Z"/><path d="M227.24,6.94c-.09-.32-.84-.48-.35-.89a1.3,1.3,0,0,0,.34-1.71c-.33-.74-1.09-.5-1.7-.49-1.9,0-1.9.06-1.89,2,0,.38,0,.77,0,1.15s-.19.83.47.8.37-.5.34-.77c-.07-.68.35-.61.79-.64.78-.05.93.61,1.24,1.07a.58.58,0,0,0,.87.22C227.74,7.42,227.31,7.19,227.24,6.94Zm-1.89-1.2c-.49,0-.92.08-.9-.68,0-1,.77-.35,1-.59.52.06,1.17-.16,1.13.56S225.92,5.74,225.35,5.74Z"/></g></g></svg>