<svg xmlns="http://www.w3.org/2000/svg" viewBox="0 0 127.27 43.03"><defs><style>.cls-1{fill:#517bfe;}.cls-2{fill:#fff;}</style></defs><g id="Layer_2" data-name="Layer 2"><g id="Layer_1-2" data-name="Layer 1"><rect class="cls-1" width="127.27" height="43.03"/><path class="cls-2" d="M20.59,19.38V9.74h4.34c2,0,3.43,1,3.43,3a2.69,2.69,0,0,1-2.62,2.74,2.18,2.18,0,0,1,1.31,1.13l1.64,2.78H26.82l-1.67-2.86a1.71,1.71,0,0,0-1.76-.88H22.21v3.74Zm1.62-8.2v3.14h2.57c1,0,1.9-.38,1.9-1.54s-.88-1.6-1.9-1.6Z"/><path class="cls-2" d="M29.55,15.27V9.74h1.61v5.54c0,1.91.65,2.69,2.23,2.69s2.23-.78,2.23-2.69V9.74h1.61v5.53c0,2.92-1.22,4.25-3.85,4.25S29.55,18.19,29.55,15.27Z"/><path class="cls-2" d="M39.28,19.38V9.74h1.51l3.9,5.61.94,1.51L45.53,15V9.74h1.63v9.64h-1.5l-4-5.7-.87-1.36.11,1.75v5.31Z"/><path class="cls-2" d="M52.05,19.38V9.74h2L56.12,14l1,2.46L58,14l2.08-4.23h2v9.64H60.47V14.85l.2-3.18-1.11,2.76-1.67,3.32H56.25l-1.67-3.32-1.14-2.76.23,3.18v4.53Z"/><path class="cls-2" d="M66.15,19.38V15.9L62.52,9.74h2L66,12.39l1,2.21,1-2.2,1.49-2.66H71.4L67.77,15.9v3.48Z"/><path class="cls-2" d="M75.41,19.38V9.74H82.1v1.44H77v3h4.18v1.44H77v3.8Z"/><path class="cls-2" d="M83.13,19.38V9.74h4.35c2,0,3.42,1,3.42,3a2.69,2.69,0,0,1-2.61,2.74A2.21,2.21,0,0,1,89.6,16.6l1.64,2.78H89.36L87.7,16.52a1.71,1.71,0,0,0-1.76-.88H84.76v3.74Zm1.63-8.2v3.14h2.56c1,0,1.9-.38,1.9-1.54s-.88-1.6-1.9-1.6Z"/><path class="cls-2" d="M92.21,19.38V9.74H99v1.44H93.84v2.56h4.3v1.44h-4.3v2.76H99v1.44Z"/><path class="cls-2" d="M100.28,19.38V9.74h6.82v1.44h-5.19v2.56h4.3v1.44h-4.3v2.76h5.19v1.44Z"/><path class="cls-2" d="M43.92,34.38l3.77-9.64h1.87l3.77,9.64H51.55L50.63,32H46.55l-.92,2.43Zm3.17-3.84h3l-1-2.61-.52-1.74-.52,1.74Z"/><path class="cls-2" d="M53.86,30.27V24.74h1.61v5.54c0,1.91.65,2.69,2.23,2.69s2.23-.78,2.23-2.69V24.74h1.62v5.53c0,2.92-1.23,4.25-3.86,4.25S53.86,33.19,53.86,30.27Z"/><path class="cls-2" d="M63.59,34.38V24.74h3.64c3,0,4.59,1.84,4.59,4.82s-1.6,4.82-4.59,4.82Zm1.62-8.2v6.76H67c2,0,3.08-1,3.08-3.38S69,26.18,67,26.18Z"/><path class="cls-2" d="M73.34,34.38V24.74H75v9.64Z"/><path class="cls-2" d="M78.59,34.38v-8.2h-3V24.74h7.54v1.44h-3v8.2Z"/></g></g></svg>