<svg xmlns="http://www.w3.org/2000/svg" viewBox="0 0 229.01 42.23"><defs><style>.cls-1{fill:#fff;}.cls-2{fill:#7bec02;}</style></defs><g id="Layer_2" data-name="Layer 2"><g id="Layer_1-2" data-name="Layer 1"><path class="cls-1" d="M7.08,17.45a12.45,12.45,0,0,1-2.71-.28,7,7,0,0,1-2.27-.92A4.5,4.5,0,0,1,.56,14.66,4.61,4.61,0,0,1,0,12.32v-.24a1.06,1.06,0,0,1,0-.21H3.54a.5.5,0,0,0,0,.19v.22a2,2,0,0,0,.42,1.28,2.49,2.49,0,0,0,1.22.78A6,6,0,0,0,7,14.6a7.41,7.41,0,0,0,1.22-.08,4.12,4.12,0,0,0,.95-.24,2.47,2.47,0,0,0,.69-.36,1.34,1.34,0,0,0,.4-.5,1.5,1.5,0,0,0,.13-.64,1.39,1.39,0,0,0-.41-1A3.46,3.46,0,0,0,8.87,11a15,15,0,0,0-1.63-.52L5.39,10a14.83,14.83,0,0,1-1.85-.61,7.88,7.88,0,0,1-1.62-.9A3.94,3.94,0,0,1,.78,7.2,4.19,4.19,0,0,1,.36,5.25,4.07,4.07,0,0,1,.87,3.16,4.13,4.13,0,0,1,2.3,1.71,6.93,6.93,0,0,1,4.44.87,12.15,12.15,0,0,1,7.08.59,11.29,11.29,0,0,1,9.59.87a6.34,6.34,0,0,1,2.09.86,4.33,4.33,0,0,1,1.42,1.5,4.26,4.26,0,0,1,.51,2.14v.28H10.16V5.46a1.59,1.59,0,0,0-.38-1.09,2.51,2.51,0,0,0-1.06-.71A4.44,4.44,0,0,0,7.1,3.4a6.48,6.48,0,0,0-1.7.19,2.4,2.4,0,0,0-1.07.55A1.22,1.22,0,0,0,4,5,1.19,1.19,0,0,0,4.38,6a3.79,3.79,0,0,0,1.14.64,15.24,15.24,0,0,0,1.63.49c.6.14,1.22.3,1.85.47a19.12,19.12,0,0,1,1.85.62,7,7,0,0,1,1.62.89,4.15,4.15,0,0,1,1.14,1.32A3.91,3.91,0,0,1,14,12.25a4.74,4.74,0,0,1-.9,3,5.1,5.1,0,0,1-2.47,1.66A11.24,11.24,0,0,1,7.08,17.45Z"/><path class="cls-1" d="M20.3,17.45A3.85,3.85,0,0,1,18.38,17a2.55,2.55,0,0,1-1.07-1.16,3.78,3.78,0,0,1-.33-1.6v-7H15.44V4.68H17.1l.61-3.56h2.57V4.68h2.28V7.22H20.28v6.51a1.28,1.28,0,0,0,.26.86,1.08,1.08,0,0,0,.86.3h1.16v2.18a4.27,4.27,0,0,1-.67.18c-.25.06-.52.1-.8.14A5.79,5.79,0,0,1,20.3,17.45Z"/><path class="cls-1" d="M24.7,2.85V0H28V2.85Zm0,14.32V4.68H28V17.17Z"/><path class="cls-1" d="M31,17.17V0h3.3V17.17Z"/><path class="cls-1" d="M37.38,17.17V0h3.3V17.17Z"/><path class="cls-1" d="M53.43,17.45a9,9,0,0,1-2.35-.28,5.72,5.72,0,0,1-1.78-.8,3.54,3.54,0,0,1-1.13-1.22,3.28,3.28,0,0,1-.39-1.61v-.19a.54.54,0,0,1,0-.15H51v.19a1.44,1.44,0,0,0,.38,1,2,2,0,0,0,.94.54,4.51,4.51,0,0,0,1.23.17,5.7,5.7,0,0,0,1.1-.11,2.06,2.06,0,0,0,.9-.39.89.89,0,0,0,.37-.74,1,1,0,0,0-.46-.88,4.28,4.28,0,0,0-1.21-.5L52.6,12c-.54-.13-1.08-.28-1.62-.44a6.7,6.7,0,0,1-1.46-.66,3.29,3.29,0,0,1-1.05-1.05,3.1,3.1,0,0,1-.41-1.65,3.33,3.33,0,0,1,.43-1.7,3.65,3.65,0,0,1,1.18-1.2,5.39,5.39,0,0,1,1.75-.7,10.05,10.05,0,0,1,2.18-.23,8.85,8.85,0,0,1,2,.23,5.65,5.65,0,0,1,1.66.66,3.37,3.37,0,0,1,1.12,1.1,2.69,2.69,0,0,1,.4,1.46v.31a.62.62,0,0,1,0,.18H55.64V8.15a1.09,1.09,0,0,0-.26-.73A1.74,1.74,0,0,0,54.63,7a3.72,3.72,0,0,0-1.18-.17,5.65,5.65,0,0,0-.86.07,2.47,2.47,0,0,0-.68.22,1.2,1.2,0,0,0-.44.34.81.81,0,0,0-.15.49.76.76,0,0,0,.34.65,2.92,2.92,0,0,0,.92.42l1.25.35c.57.16,1.17.32,1.8.47a9.38,9.38,0,0,1,1.74.6,3,3,0,0,1,1.81,3,3.89,3.89,0,0,1-.44,1.92,3.38,3.38,0,0,1-1.23,1.26,5.56,5.56,0,0,1-1.82.69A11.5,11.5,0,0,1,53.43,17.45Z"/><path class="cls-1" d="M67.25,17.45a7.69,7.69,0,0,1-3.47-.7,4.59,4.59,0,0,1-2.11-2.15A8.38,8.38,0,0,1,61,10.92a8.39,8.39,0,0,1,.71-3.69,4.68,4.68,0,0,1,2.1-2.14,7.61,7.61,0,0,1,3.41-.7,7,7,0,0,1,3.21.68,4.4,4.4,0,0,1,2,2.09A8.65,8.65,0,0,1,73,10.8v.86H64.31a5.65,5.65,0,0,0,.34,1.85,2.19,2.19,0,0,0,.93,1.13,3.23,3.23,0,0,0,1.67.37,3.61,3.61,0,0,0,1-.14,2.28,2.28,0,0,0,.8-.43,2.08,2.08,0,0,0,.52-.71,2.35,2.35,0,0,0,.19-1H73a4.64,4.64,0,0,1-.43,2.07,4.1,4.1,0,0,1-1.18,1.46,5.41,5.41,0,0,1-1.82.88A8.92,8.92,0,0,1,67.25,17.45Zm-2.9-7.88h5.28a3.86,3.86,0,0,0-.18-1.24A2.35,2.35,0,0,0,69,7.48,1.92,1.92,0,0,0,68.21,7a3,3,0,0,0-1-.15,3.38,3.38,0,0,0-1.51.3,2,2,0,0,0-.93.9A4.55,4.55,0,0,0,64.35,9.57Z"/><path class="cls-1" d="M81.12,17.45a7.69,7.69,0,0,1-3.47-.7,4.54,4.54,0,0,1-2.11-2.15,8.24,8.24,0,0,1-.71-3.68,8.25,8.25,0,0,1,.71-3.69,4.59,4.59,0,0,1,2.1-2.14,7.61,7.61,0,0,1,3.41-.7,6.91,6.91,0,0,1,3.2.68,4.36,4.36,0,0,1,2,2.09,8.48,8.48,0,0,1,.67,3.64v.86H78.17a5.91,5.91,0,0,0,.35,1.85,2.19,2.19,0,0,0,.93,1.13,3.21,3.21,0,0,0,1.67.37,3.66,3.66,0,0,0,1-.14,2.28,2.28,0,0,0,.8-.43,2.08,2.08,0,0,0,.52-.71,2.35,2.35,0,0,0,.19-1h3.23a4.64,4.64,0,0,1-.43,2.07,4,4,0,0,1-1.19,1.46,5.27,5.27,0,0,1-1.81.88A9,9,0,0,1,81.12,17.45Zm-2.9-7.88h5.27a4.18,4.18,0,0,0-.17-1.24,2.5,2.5,0,0,0-.49-.85A2,2,0,0,0,82.08,7a3,3,0,0,0-1-.15,3.36,3.36,0,0,0-1.51.3,2,2,0,0,0-.93.9A4.55,4.55,0,0,0,78.22,9.57Z"/><path class="cls-1" d="M89.31,2.85V0h3.3V2.85Zm0,14.32V4.68h3.3V17.17Z"/><path class="cls-1" d="M95.65,17.17V4.68h2.73l.26,1.71h.17a4.55,4.55,0,0,1,1-1.07,4.64,4.64,0,0,1,1.37-.69,5.46,5.46,0,0,1,1.66-.24,4.9,4.9,0,0,1,2.16.45,3.21,3.21,0,0,1,1.44,1.43A5.49,5.49,0,0,1,107,8.81v8.36h-3.3V9.33a3.33,3.33,0,0,0-.14-1,2,2,0,0,0-.42-.69,1.58,1.58,0,0,0-.68-.39,3.16,3.16,0,0,0-.9-.12,2.51,2.51,0,0,0-2.25,1.33A2.91,2.91,0,0,0,99,9.88v7.29Z"/><path class="cls-1" d="M112,21.63a3.67,3.67,0,0,1-1.57-.34,2.89,2.89,0,0,1-1.18-1,2.69,2.69,0,0,1-.46-1.59,2.34,2.34,0,0,1,.61-1.68,4,4,0,0,1,1.36-.93,2.77,2.77,0,0,1-.89-.81,2,2,0,0,1-.34-1.16,1.91,1.91,0,0,1,.68-1.51,3.26,3.26,0,0,1,1.55-.75,3.93,3.93,0,0,1-1.36-1.39,3.65,3.65,0,0,1-.49-1.89,3.78,3.78,0,0,1,.68-2.28,4.21,4.21,0,0,1,1.94-1.41,8.51,8.51,0,0,1,3-.49,12.87,12.87,0,0,1,1.29.07,5.86,5.86,0,0,1,1.11.24,3.1,3.1,0,0,0,1.2-1.15,3,3,0,0,0,.34-1h3.06a3.28,3.28,0,0,1-.32,1.52,2.82,2.82,0,0,1-.91,1.06,4,4,0,0,1-1.43.6A3.45,3.45,0,0,1,120.82,7a3.84,3.84,0,0,1,.34,1.59,3.89,3.89,0,0,1-.65,2.27,4,4,0,0,1-1.81,1.44,7.22,7.22,0,0,1-2.82.5H114a1.42,1.42,0,0,0-.85.2.67.67,0,0,0-.29.58.7.7,0,0,0,.25.53,1.22,1.22,0,0,0,.82.23h5.2a3.35,3.35,0,0,1,2.51,1,3.4,3.4,0,0,1,.94,2.46,3.51,3.51,0,0,1-.6,2,4,4,0,0,1-1.63,1.37,5.42,5.42,0,0,1-2.4.5Zm1.38-2.21h4.39a1.84,1.84,0,0,0,.76-.15,1.23,1.23,0,0,0,.52-.43,1,1,0,0,0,.19-.63,1.09,1.09,0,0,0-.38-.92,1.43,1.43,0,0,0-.95-.31h-4.53a1.35,1.35,0,0,0-.94.33,1.12,1.12,0,0,0-.37.88,1.16,1.16,0,0,0,.37.89A1.31,1.31,0,0,0,113.37,19.42Zm2.16-8.78a2.6,2.6,0,0,0,1.77-.54,1.92,1.92,0,0,0,.6-1.53A2,2,0,0,0,117.3,7a2.6,2.6,0,0,0-1.77-.53,2.56,2.56,0,0,0-1.75.53,2,2,0,0,0-.6,1.53,2.23,2.23,0,0,0,.26,1.12,1.59,1.59,0,0,0,.78.71A3.16,3.16,0,0,0,115.53,10.64Z"/><path class="cls-1" d="M132.74,17.45a3.85,3.85,0,0,1-1.92-.42,2.55,2.55,0,0,1-1.07-1.16,3.78,3.78,0,0,1-.33-1.6v-7h-1.54V4.68h1.66l.62-3.56h2.56V4.68H135V7.22h-2.28v6.51a1.28,1.28,0,0,0,.26.86,1.09,1.09,0,0,0,.86.3H135v2.18a4.27,4.27,0,0,1-.67.18c-.25.06-.52.1-.8.14A5.79,5.79,0,0,1,132.74,17.45Z"/><path class="cls-1" d="M137.14,17.17V0h3.3V6.06h.16a3.85,3.85,0,0,1,1-.87,4.62,4.62,0,0,1,1.25-.58,5,5,0,0,1,1.54-.22,4.9,4.9,0,0,1,2.16.45A3.24,3.24,0,0,1,148,6.27a5.49,5.49,0,0,1,.51,2.54v8.36h-3.3V9.33a3,3,0,0,0-.14-1,1.84,1.84,0,0,0-.41-.69,1.64,1.64,0,0,0-.68-.39,3.16,3.16,0,0,0-.9-.12,2.54,2.54,0,0,0-2.26,1.33,3,3,0,0,0-.33,1.43v7.29Z"/><path class="cls-1" d="M157.11,17.45a7.69,7.69,0,0,1-3.47-.7,4.54,4.54,0,0,1-2.11-2.15,8.24,8.24,0,0,1-.71-3.68,8.25,8.25,0,0,1,.71-3.69,4.59,4.59,0,0,1,2.1-2.14,7.61,7.61,0,0,1,3.41-.7,6.91,6.91,0,0,1,3.2.68,4.36,4.36,0,0,1,2,2.09,8.48,8.48,0,0,1,.67,3.64v.86h-8.72a5.91,5.91,0,0,0,.35,1.85,2.17,2.17,0,0,0,.92,1.13,3.27,3.27,0,0,0,1.68.37,3.66,3.66,0,0,0,1-.14,2.37,2.37,0,0,0,.8-.43,2.08,2.08,0,0,0,.52-.71,2.35,2.35,0,0,0,.19-1h3.23a4.64,4.64,0,0,1-.43,2.07,4,4,0,0,1-1.19,1.46,5.27,5.27,0,0,1-1.81.88A9,9,0,0,1,157.11,17.45Zm-2.9-7.88h5.27a3.86,3.86,0,0,0-.18-1.24,2.33,2.33,0,0,0-.48-.85,2,2,0,0,0-.75-.49,3,3,0,0,0-1-.15,3.34,3.34,0,0,0-1.5.3,1.93,1.93,0,0,0-.93.9A4.55,4.55,0,0,0,154.21,9.57Z"/><path class="cls-1" d="M175,17.45a9,9,0,0,1-2.35-.28,5.83,5.83,0,0,1-1.78-.8,3.54,3.54,0,0,1-1.13-1.22,3.28,3.28,0,0,1-.39-1.61v-.19a.31.31,0,0,1,0-.15h3.18v.19a1.35,1.35,0,0,0,.38,1,2,2,0,0,0,.94.54,4.39,4.39,0,0,0,1.22.17,5.62,5.62,0,0,0,1.1-.11,2.15,2.15,0,0,0,.91-.39.9.9,0,0,0,.36-.74,1,1,0,0,0-.46-.88,4.16,4.16,0,0,0-1.21-.5L174.18,12c-.54-.13-1.07-.28-1.61-.44a6.29,6.29,0,0,1-1.46-.66,3.22,3.22,0,0,1-1.06-1.05,3.1,3.1,0,0,1-.4-1.65,3.32,3.32,0,0,1,.42-1.7,3.65,3.65,0,0,1,1.18-1.2,5.36,5.36,0,0,1,1.76-.7,9.89,9.89,0,0,1,2.17-.23,8.79,8.79,0,0,1,2,.23,5.65,5.65,0,0,1,1.66.66A3.37,3.37,0,0,1,180,6.38a2.69,2.69,0,0,1,.4,1.46v.31a.39.39,0,0,1,0,.18h-3.16V8.15a1.09,1.09,0,0,0-.26-.73,1.63,1.63,0,0,0-.75-.46A3.61,3.61,0,0,0,175,6.79a5.68,5.68,0,0,0-.87.07,2.47,2.47,0,0,0-.68.22,1.29,1.29,0,0,0-.44.34.81.81,0,0,0-.15.49.76.76,0,0,0,.34.65,2.92,2.92,0,0,0,.92.42l1.26.35c.57.16,1.16.32,1.79.47a9.48,9.48,0,0,1,1.75.6,3.26,3.26,0,0,1,1.3,1.08,3.23,3.23,0,0,1,.5,1.89,3.89,3.89,0,0,1-.44,1.92,3.35,3.35,0,0,1-1.22,1.26,5.53,5.53,0,0,1-1.83.69A11.5,11.5,0,0,1,175,17.45Z"/><path class="cls-1" d="M183.16,2.85V0h3.3V2.85Zm0,14.32V4.68h3.3V17.17Z"/><path class="cls-1" d="M191.54,21.63a3.67,3.67,0,0,1-1.57-.34,2.89,2.89,0,0,1-1.18-1,2.76,2.76,0,0,1-.46-1.59,2.34,2.34,0,0,1,.61-1.68,3.92,3.92,0,0,1,1.37-.93,2.58,2.58,0,0,1-.89-.81,2,2,0,0,1-.35-1.16,1.91,1.91,0,0,1,.68-1.51,3.26,3.26,0,0,1,1.55-.75,3.93,3.93,0,0,1-1.36-1.39,3.65,3.65,0,0,1-.49-1.89,3.78,3.78,0,0,1,.68-2.28,4.19,4.19,0,0,1,2-1.41,8.42,8.42,0,0,1,3-.49,12.87,12.87,0,0,1,1.29.07,5.86,5.86,0,0,1,1.11.24,3.1,3.1,0,0,0,1.2-1.15,3,3,0,0,0,.34-1h3.06a3.28,3.28,0,0,1-.32,1.52,2.74,2.74,0,0,1-.91,1.06,4,4,0,0,1-1.43.6,3.45,3.45,0,0,1,1,1.26,3.69,3.69,0,0,1,.34,1.59,4,4,0,0,1-.64,2.27,4.12,4.12,0,0,1-1.82,1.44,7.22,7.22,0,0,1-2.82.5h-1.89a1.46,1.46,0,0,0-.86.2.66.66,0,0,0-.28.58.69.69,0,0,0,.24.53,1.22,1.22,0,0,0,.82.23h5.21a3.35,3.35,0,0,1,2.5,1,3.4,3.4,0,0,1,.94,2.46,3.51,3.51,0,0,1-.6,2,4,4,0,0,1-1.63,1.37,5.42,5.42,0,0,1-2.4.5Zm1.38-2.21h4.39a1.81,1.81,0,0,0,.76-.15,1.23,1.23,0,0,0,.52-.43,1,1,0,0,0,.19-.63,1.09,1.09,0,0,0-.38-.92,1.43,1.43,0,0,0-1-.31h-4.53a1.37,1.37,0,0,0-.94.33,1.12,1.12,0,0,0-.37.88,1.16,1.16,0,0,0,.37.89A1.33,1.33,0,0,0,192.92,19.42Zm2.16-8.78a2.6,2.6,0,0,0,1.77-.54,1.92,1.92,0,0,0,.6-1.53,2,2,0,0,0-.6-1.53,2.6,2.6,0,0,0-1.77-.53,2.56,2.56,0,0,0-1.75.53,2,2,0,0,0-.6,1.53A2.23,2.23,0,0,0,193,9.69a1.59,1.59,0,0,0,.78.71A3.16,3.16,0,0,0,195.08,10.64Z"/><path class="cls-1" d="M203.91,17.17V4.68h2.73l.26,1.71h.17a4.76,4.76,0,0,1,1-1.07,4.64,4.64,0,0,1,1.37-.69,5.5,5.5,0,0,1,1.66-.24,4.9,4.9,0,0,1,2.16.45,3.21,3.21,0,0,1,1.44,1.43,5.49,5.49,0,0,1,.51,2.54v8.36h-3.3V9.33a3.33,3.33,0,0,0-.14-1,2,2,0,0,0-.42-.69,1.58,1.58,0,0,0-.68-.39,3.16,3.16,0,0,0-.9-.12,2.51,2.51,0,0,0-2.25,1.33,2.91,2.91,0,0,0-.34,1.43v7.29Z"/><path class="cls-1" d="M223.27,17.45a8.91,8.91,0,0,1-2.35-.28,5.89,5.89,0,0,1-1.79-.8A3.51,3.51,0,0,1,218,15.15a3.28,3.28,0,0,1-.4-1.61v-.19a.31.31,0,0,1,0-.15h3.18v.19a1.4,1.4,0,0,0,.38,1,2,2,0,0,0,.94.54,4.44,4.44,0,0,0,1.22.17,5.8,5.8,0,0,0,1.11-.11,2.17,2.17,0,0,0,.9-.39.91.91,0,0,0,.37-.74,1,1,0,0,0-.47-.88,4.16,4.16,0,0,0-1.21-.5L222.44,12c-.54-.13-1.08-.28-1.62-.44a6.29,6.29,0,0,1-1.46-.66,3.22,3.22,0,0,1-1.06-1.05,3.1,3.1,0,0,1-.4-1.65,3.23,3.23,0,0,1,.43-1.7,3.53,3.53,0,0,1,1.17-1.2,5.45,5.45,0,0,1,1.76-.7,10,10,0,0,1,2.17-.23,8.79,8.79,0,0,1,2,.23,5.71,5.71,0,0,1,1.67.66,3.43,3.43,0,0,1,1.11,1.1,2.7,2.7,0,0,1,.41,1.46v.31a.36.36,0,0,1,0,.18h-3.16V8.15a1,1,0,0,0-.26-.73,1.65,1.65,0,0,0-.74-.46,3.72,3.72,0,0,0-1.18-.17,5.68,5.68,0,0,0-.87.07,2.4,2.4,0,0,0-.67.22,1.2,1.2,0,0,0-.44.34.76.76,0,0,0-.16.49.77.77,0,0,0,.35.65,2.86,2.86,0,0,0,.91.42l1.26.35c.57.16,1.17.32,1.79.47a9.24,9.24,0,0,1,1.75.6,3.19,3.19,0,0,1,1.3,1.08,3.16,3.16,0,0,1,.5,1.89,3.79,3.79,0,0,1-.44,1.92,3.35,3.35,0,0,1-1.22,1.26,5.53,5.53,0,0,1-1.83.69A11.39,11.39,0,0,1,223.27,17.45Z"/><path class="cls-1" d="M32.84,42.23a7.7,7.7,0,0,1-3.46-.7,4.59,4.59,0,0,1-2.17-2.16,8.1,8.1,0,0,1-.73-3.67A8.11,8.11,0,0,1,27.21,32a4.69,4.69,0,0,1,2.17-2.14,7.84,7.84,0,0,1,3.46-.7,7.93,7.93,0,0,1,3.5.7A4.69,4.69,0,0,1,38.49,32a8.1,8.1,0,0,1,.74,3.69,8.1,8.1,0,0,1-.74,3.67,4.6,4.6,0,0,1-2.15,2.16A7.8,7.8,0,0,1,32.84,42.23Zm0-2.56a3.31,3.31,0,0,0,1.75-.41,2.37,2.37,0,0,0,1-1.23,6,6,0,0,0,.31-2v-.57a6,6,0,0,0-.31-2,2.46,2.46,0,0,0-1-1.25,3.21,3.21,0,0,0-1.75-.42,3.15,3.15,0,0,0-1.72.42,2.36,2.36,0,0,0-1,1.25,5.76,5.76,0,0,0-.31,2V36a5.76,5.76,0,0,0,.31,2,2.27,2.27,0,0,0,1,1.23A3.24,3.24,0,0,0,32.84,39.67Z"/><path class="cls-1" d="M42.22,42V32H40.44V29.46h1.78V28.08a4.54,4.54,0,0,1,.35-1.82A2.55,2.55,0,0,1,43.67,25a4,4,0,0,1,2-.45,6.51,6.51,0,0,1,.75,0l.76.13.63.18v2.19H46.64a1.11,1.11,0,0,0-.84.28,1.13,1.13,0,0,0-.28.83v1.24h2.31V32H45.52V42Z"/><path class="cls-2" d="M63.74,42.23A9,9,0,0,1,61.38,42a5.83,5.83,0,0,1-1.78-.8,3.6,3.6,0,0,1-1.12-1.22,3.22,3.22,0,0,1-.4-1.62v-.18a.28.28,0,0,1,0-.15h3.18v.19a1.4,1.4,0,0,0,.38,1,2,2,0,0,0,.94.54,4.44,4.44,0,0,0,1.22.16,5.8,5.8,0,0,0,1.11-.1,2.17,2.17,0,0,0,.9-.39.91.91,0,0,0,.37-.74,1,1,0,0,0-.47-.88,4.16,4.16,0,0,0-1.21-.5l-1.62-.42c-.54-.13-1.08-.28-1.62-.44a6.29,6.29,0,0,1-1.46-.66,3.22,3.22,0,0,1-1.06-1.05,3.1,3.1,0,0,1-.4-1.65,3.23,3.23,0,0,1,.43-1.7A3.44,3.44,0,0,1,60,30.1a5.45,5.45,0,0,1,1.76-.7,10,10,0,0,1,2.17-.23,8.79,8.79,0,0,1,2,.23,5.71,5.71,0,0,1,1.67.66,3.43,3.43,0,0,1,1.11,1.1,2.7,2.7,0,0,1,.41,1.46v.3a.38.38,0,0,1,0,.19H65.94v-.19a1,1,0,0,0-.26-.72,1.65,1.65,0,0,0-.74-.46,3.72,3.72,0,0,0-1.18-.17,4.65,4.65,0,0,0-.87.07,2.4,2.4,0,0,0-.67.22,1.2,1.2,0,0,0-.44.34.74.74,0,0,0-.16.49.77.77,0,0,0,.35.65,2.86,2.86,0,0,0,.91.42l1.26.35c.57.16,1.17.31,1.79.46a10,10,0,0,1,1.75.61A3.19,3.19,0,0,1,69,36.26a3.16,3.16,0,0,1,.5,1.89A3.79,3.79,0,0,1,69,40.07a3.43,3.43,0,0,1-1.22,1.26A5.53,5.53,0,0,1,66,42,11.47,11.47,0,0,1,63.74,42.23Z"/><path class="cls-2" d="M75.92,42.23a4.23,4.23,0,0,1-3-1,4.45,4.45,0,0,1-1.11-3.37V29.46h3.3v7.81a3.05,3.05,0,0,0,.14,1,1.59,1.59,0,0,0,.41.68,1.74,1.74,0,0,0,.68.38,3.16,3.16,0,0,0,.9.12,2.5,2.5,0,0,0,1.33-.36,2.44,2.44,0,0,0,.93-1,3,3,0,0,0,.33-1.42V29.46h3.3V42h-2.7l-.24-1.71H80a5.45,5.45,0,0,1-1,1,4.67,4.67,0,0,1-1.37.7A5.21,5.21,0,0,1,75.92,42.23Z"/><path class="cls-2" d="M93.13,42.23a5.15,5.15,0,0,1-2.22-.48,3.87,3.87,0,0,1-1.62-1.49h-.17L88.86,42H86.15V24.78h3.3v6h.15a3.66,3.66,0,0,1,.92-.92,4,4,0,0,1,1.24-.56,5.85,5.85,0,0,1,1.49-.18,4.79,4.79,0,0,1,2.58.69A4.47,4.47,0,0,1,97.55,32a9.43,9.43,0,0,1,.62,3.69,9.53,9.53,0,0,1-.61,3.7,4.39,4.39,0,0,1-1.73,2.15A5,5,0,0,1,93.13,42.23Zm-1-2.7a2.72,2.72,0,0,0,1.58-.4A2.22,2.22,0,0,0,94.54,38a6.44,6.44,0,0,0,.26-2v-.55a6.55,6.55,0,0,0-.26-2,2.23,2.23,0,0,0-.85-1.19,2.8,2.8,0,0,0-1.58-.39,2.64,2.64,0,0,0-1.21.25,2.15,2.15,0,0,0-.82.71A3.47,3.47,0,0,0,89.6,34a6.55,6.55,0,0,0-.17,1.52v.43a5.76,5.76,0,0,0,.28,1.92,2.56,2.56,0,0,0,.88,1.24A2.6,2.6,0,0,0,92.11,39.53Z"/><path class="cls-2" d="M105.65,42.23A9,9,0,0,1,103.3,42a5.72,5.72,0,0,1-1.78-.8,3.63,3.63,0,0,1-1.13-1.22,3.32,3.32,0,0,1-.39-1.62v-.18a.3.3,0,0,1,0-.15h3.18v.19a1.44,1.44,0,0,0,.38,1,2,2,0,0,0,.94.54,4.49,4.49,0,0,0,1.22.16,5.8,5.8,0,0,0,1.11-.1,2.17,2.17,0,0,0,.9-.39.89.89,0,0,0,.37-.74,1,1,0,0,0-.46-.88,4.23,4.23,0,0,0-1.22-.5l-1.62-.42c-.54-.13-1.08-.28-1.62-.44a6.7,6.7,0,0,1-1.46-.66,3.29,3.29,0,0,1-1-1.05,3.1,3.1,0,0,1-.41-1.65,3.23,3.23,0,0,1,.43-1.7,3.56,3.56,0,0,1,1.18-1.2,5.3,5.3,0,0,1,1.75-.7,10.05,10.05,0,0,1,2.18-.23,8.92,8.92,0,0,1,2,.23,5.76,5.76,0,0,1,1.66.66,3.37,3.37,0,0,1,1.12,1.1,2.69,2.69,0,0,1,.4,1.46v.3a.66.66,0,0,1,0,.19h-3.16v-.19a1.08,1.08,0,0,0-.26-.72,1.74,1.74,0,0,0-.75-.46,3.72,3.72,0,0,0-1.18-.17,4.61,4.61,0,0,0-.86.07,2.36,2.36,0,0,0-.68.22,1.2,1.2,0,0,0-.44.34.79.79,0,0,0-.15.49.76.76,0,0,0,.34.65,2.86,2.86,0,0,0,.91.42l1.26.35c.57.16,1.17.31,1.8.46a10.19,10.19,0,0,1,1.74.61,3.29,3.29,0,0,1,1.31,1.08,3.23,3.23,0,0,1,.5,1.89,3.89,3.89,0,0,1-.44,1.92,3.45,3.45,0,0,1-1.23,1.26,5.56,5.56,0,0,1-1.82.69A11.5,11.5,0,0,1,105.65,42.23Z"/><path class="cls-2" d="M113.79,27.63V24.78h3.3v2.85Zm0,14.32V29.46h3.3V42Z"/><path class="cls-2" d="M124.55,42.23a4.92,4.92,0,0,1-2.67-.7,4.53,4.53,0,0,1-1.75-2.15,9.53,9.53,0,0,1-.61-3.7,9.24,9.24,0,0,1,.63-3.69,4.55,4.55,0,0,1,1.73-2.13,4.73,4.73,0,0,1,2.55-.69,6.07,6.07,0,0,1,1.51.18,3.72,3.72,0,0,1,2.15,1.48h.14v-6h3.3V42h-2.7l-.27-1.69h-.16a3.87,3.87,0,0,1-1.62,1.49A5.07,5.07,0,0,1,124.55,42.23Zm1-2.7a2.49,2.49,0,0,0,1.5-.43,2.54,2.54,0,0,0,.87-1.24,5.75,5.75,0,0,0,.29-1.92v-.43A7.16,7.16,0,0,0,128.1,34a3,3,0,0,0-.49-1.15,2.11,2.11,0,0,0-.83-.71,2.57,2.57,0,0,0-1.18-.25,2.89,2.89,0,0,0-1.6.39,2.18,2.18,0,0,0-.85,1.19,6.55,6.55,0,0,0-.26,2V36a6.44,6.44,0,0,0,.26,2,2.17,2.17,0,0,0,.85,1.17A2.81,2.81,0,0,0,125.6,39.53Z"/><path class="cls-2" d="M140.25,42.23a7.66,7.66,0,0,1-3.47-.7,4.54,4.54,0,0,1-2.11-2.15A8.24,8.24,0,0,1,134,35.7a8.25,8.25,0,0,1,.71-3.69,4.59,4.59,0,0,1,2.1-2.14,7.61,7.61,0,0,1,3.41-.7,6.91,6.91,0,0,1,3.2.68,4.36,4.36,0,0,1,2,2.09,8.48,8.48,0,0,1,.67,3.64v.86H137.3a5.69,5.69,0,0,0,.35,1.85,2.17,2.17,0,0,0,.92,1.13,3.27,3.27,0,0,0,1.68.37,3.66,3.66,0,0,0,1-.14,2.37,2.37,0,0,0,.8-.43,2,2,0,0,0,.52-.72,2.27,2.27,0,0,0,.19-1H146a4.64,4.64,0,0,1-.43,2.07,4,4,0,0,1-1.19,1.46,5.27,5.27,0,0,1-1.81.88A9,9,0,0,1,140.25,42.23Zm-2.9-7.88h5.27a3.82,3.82,0,0,0-.18-1.24,2.33,2.33,0,0,0-.48-.85,2,2,0,0,0-.75-.49,3,3,0,0,0-1-.15,3.34,3.34,0,0,0-1.5.3,1.93,1.93,0,0,0-.93.9A4.55,4.55,0,0,0,137.35,34.35Z"/><path class="cls-2" d="M148.44,42V29.46h2.73l.26,1.71h.17a4.55,4.55,0,0,1,1-1.07,4.64,4.64,0,0,1,1.37-.69,5.46,5.46,0,0,1,1.66-.24,4.9,4.9,0,0,1,2.16.45,3.16,3.16,0,0,1,1.44,1.43,5.46,5.46,0,0,1,.51,2.54V42h-3.3V34.11a3,3,0,0,0-.15-1,1.84,1.84,0,0,0-.41-.69,1.58,1.58,0,0,0-.68-.39,3.16,3.16,0,0,0-.9-.12,2.54,2.54,0,0,0-2.26,1.33,3,3,0,0,0-.33,1.43V42Z"/><path class="cls-2" d="M168.22,42.23a7.22,7.22,0,0,1-3.35-.7,4.54,4.54,0,0,1-2.05-2.16,8.4,8.4,0,0,1-.7-3.67,8.4,8.4,0,0,1,.7-3.69,4.67,4.67,0,0,1,2.06-2.15,7.23,7.23,0,0,1,3.34-.71,7.94,7.94,0,0,1,2.32.31,4.81,4.81,0,0,1,1.79.95A4,4,0,0,1,173.48,32a5.72,5.72,0,0,1,.39,2.22h-3.3a3.15,3.15,0,0,0-.26-1.4,1.79,1.79,0,0,0-.79-.84,2.87,2.87,0,0,0-1.35-.28,2.55,2.55,0,0,0-1.54.43,2.42,2.42,0,0,0-.88,1.26,6.41,6.41,0,0,0-.28,2.06V36a6.3,6.3,0,0,0,.29,2,2.5,2.5,0,0,0,.92,1.25,2.89,2.89,0,0,0,1.61.41,2.8,2.8,0,0,0,1.34-.28,1.9,1.9,0,0,0,.82-.86,3,3,0,0,0,.29-1.37h3.13a5.69,5.69,0,0,1-.39,2.16,4.15,4.15,0,0,1-1.14,1.59,5.14,5.14,0,0,1-1.79,1A7.72,7.72,0,0,1,168.22,42.23Z"/><path class="cls-2" d="M182,42.23a7.66,7.66,0,0,1-3.47-.7,4.54,4.54,0,0,1-2.11-2.15,8.23,8.23,0,0,1-.72-3.68,8.25,8.25,0,0,1,.72-3.69,4.59,4.59,0,0,1,2.1-2.14,7.59,7.59,0,0,1,3.41-.7,6.91,6.91,0,0,1,3.2.68,4.36,4.36,0,0,1,2,2.09,8.48,8.48,0,0,1,.67,3.64v.86h-8.72a5.69,5.69,0,0,0,.35,1.85,2.17,2.17,0,0,0,.92,1.13,3.27,3.27,0,0,0,1.68.37,3.66,3.66,0,0,0,1-.14,2.37,2.37,0,0,0,.8-.43,2,2,0,0,0,.52-.72,2.27,2.27,0,0,0,.19-1h3.23a4.64,4.64,0,0,1-.43,2.07,4,4,0,0,1-1.19,1.46,5.27,5.27,0,0,1-1.81.88A9,9,0,0,1,182,42.23Zm-2.9-7.88h5.27a3.82,3.82,0,0,0-.18-1.24,2.33,2.33,0,0,0-.48-.85,2,2,0,0,0-.75-.49,3,3,0,0,0-1-.15,3.34,3.34,0,0,0-1.5.3,1.93,1.93,0,0,0-.93.9A4.55,4.55,0,0,0,179.12,34.35Z"/><path class="cls-2" d="M194.39,37.1V36a3.56,3.56,0,0,1,.27-1.46,3.93,3.93,0,0,1,.69-1.07,6.3,6.3,0,0,1,.89-.83c.32-.25.62-.49.89-.74a3.35,3.35,0,0,0,.69-.82,1.94,1.94,0,0,0,.27-1,2.68,2.68,0,0,0-.07-.59,1.74,1.74,0,0,0-.29-.66,1.69,1.69,0,0,0-.68-.52,3,3,0,0,0-1.19-.2,2.91,2.91,0,0,0-1.29.24,1.88,1.88,0,0,0-.74.6,2.24,2.24,0,0,0-.33.77,3.51,3.51,0,0,0-.08.76v.33a1.77,1.77,0,0,0,0,.32h-3.25q0-.15-.06-.36a2.47,2.47,0,0,1,0-.5,4.78,4.78,0,0,1,.25-1.57,4.4,4.4,0,0,1,.74-1.34,4.45,4.45,0,0,1,1.22-1,6,6,0,0,1,1.69-.68,8.56,8.56,0,0,1,2.11-.24,9.1,9.1,0,0,1,1.86.18,5.46,5.46,0,0,1,1.55.55,4.26,4.26,0,0,1,1.15.89,3.63,3.63,0,0,1,.73,1.21,4.11,4.11,0,0,1,.27,1.52,4.64,4.64,0,0,1-.31,1.77,4.51,4.51,0,0,1-.8,1.26,6.87,6.87,0,0,1-1,.93c-.37.27-.71.54-1,.8a3.93,3.93,0,0,0-.8.84,1.87,1.87,0,0,0-.31,1.1v.68ZM194.2,42V38.62h3.37V42Z"/></g></g></svg>