<svg xmlns="http://www.w3.org/2000/svg" viewBox="0 0 299.5 18.5"><defs><style>.cls-1{fill:#7bec02;}</style></defs><g id="Layer_2" data-name="Layer 2"><g id="Layer_1-2" data-name="Layer 1"><rect class="cls-1" width="299.5" height="18.5"/><path d="M93.79,12.94V6.28h.9l.1,1.1h.09a2.73,2.73,0,0,1,.28-.6,1.44,1.44,0,0,1,.48-.47,1.35,1.35,0,0,1,.75-.19,1.29,1.29,0,0,1,.35,0l.23.06v1h-.42a1.72,1.72,0,0,0-.74.15,1.36,1.36,0,0,0-.51.41,1.67,1.67,0,0,0-.3.63,3.35,3.35,0,0,0-.09.79v3.71Z"/><path d="M99.55,13.1a3.12,3.12,0,0,1-.74-.09,2.41,2.41,0,0,1-.68-.29,1.57,1.57,0,0,1-.51-.57,1.87,1.87,0,0,1-.19-.9,1.83,1.83,0,0,1,.33-1.13,2.1,2.1,0,0,1,.92-.69,5.21,5.21,0,0,1,1.4-.35A16,16,0,0,1,101.84,9V8.23a1.41,1.41,0,0,0-.13-.64.87.87,0,0,0-.45-.41,3,3,0,0,0-1.82,0,.92.92,0,0,0-.47.38,1,1,0,0,0-.13.5v.19H97.76a.49.49,0,0,1,0-.12V8a1.6,1.6,0,0,1,.33-1,2.1,2.1,0,0,1,1-.62,4.23,4.23,0,0,1,1.39-.21,3.55,3.55,0,0,1,1.4.24,1.85,1.85,0,0,1,.85.69A1.91,1.91,0,0,1,103,8.11v3.62a.42.42,0,0,0,.11.33.4.4,0,0,0,.28.1h.49v.73a2.93,2.93,0,0,1-.39.14,2.38,2.38,0,0,1-.49.05,1,1,0,0,1-.55-.13.91.91,0,0,1-.33-.37,2,2,0,0,1-.15-.52h-.09a2.19,2.19,0,0,1-.58.55,2.79,2.79,0,0,1-.78.36A3.42,3.42,0,0,1,99.55,13.1Zm.28-.94a2.13,2.13,0,0,0,.76-.13,1.83,1.83,0,0,0,.64-.36,1.74,1.74,0,0,0,.45-.56,1.6,1.6,0,0,0,.16-.73V9.83a11,11,0,0,0-1.75.11,2.48,2.48,0,0,0-1.11.41.94.94,0,0,0-.38.82,1,1,0,0,0,.15.56.89.89,0,0,0,.43.32A1.8,1.8,0,0,0,99.83,12.16Z"/><path d="M104.78,5V3.78h1.12V5Zm0,7.92V6.28h1.12v6.66Z"/><path d="M110,13.1a4.85,4.85,0,0,1-1.21-.14,2.55,2.55,0,0,1-.86-.41,1.83,1.83,0,0,1-.52-.63,1.92,1.92,0,0,1-.18-.84V11a.2.2,0,0,1,0-.09h1.1a.25.25,0,0,0,0,.08V11a1,1,0,0,0,.23.7,1.18,1.18,0,0,0,.62.35,3.35,3.35,0,0,0,.87.1,2.66,2.66,0,0,0,.77-.1,1.43,1.43,0,0,0,.57-.33.8.8,0,0,0,.21-.57.76.76,0,0,0-.28-.64,2,2,0,0,0-.71-.35l-.93-.26c-.27-.08-.54-.16-.81-.26a3.26,3.26,0,0,1-.73-.34,1.55,1.55,0,0,1-.52-.53,1.52,1.52,0,0,1-.19-.81,1.67,1.67,0,0,1,.18-.79,1.63,1.63,0,0,1,.53-.58,2.34,2.34,0,0,1,.83-.36A4.46,4.46,0,0,1,110,6.14a3.74,3.74,0,0,1,1.11.14,2.16,2.16,0,0,1,.79.39,1.61,1.61,0,0,1,.47.58,1.58,1.58,0,0,1,.15.69v.14a.31.31,0,0,1,0,.11h-1.09V8.05a1,1,0,0,0-.13-.49,1,1,0,0,0-.46-.38A2.15,2.15,0,0,0,110,7a3.87,3.87,0,0,0-.64,0,1.35,1.35,0,0,0-.44.18.8.8,0,0,0-.27.28.74.74,0,0,0-.09.36.64.64,0,0,0,.22.51,1.74,1.74,0,0,0,.58.29l.78.25.9.26a4.31,4.31,0,0,1,.85.34,1.53,1.53,0,0,1,.86,1.47,2.12,2.12,0,0,1-.2.93,1.78,1.78,0,0,1-.58.64,2.61,2.61,0,0,1-.88.38A4.67,4.67,0,0,1,110,13.1Z"/><path d="M116.76,13.1a3.37,3.37,0,0,1-1.66-.38,2.34,2.34,0,0,1-1-1.14,4.89,4.89,0,0,1-.35-2,4.83,4.83,0,0,1,.35-2,2.39,2.39,0,0,1,1-1.14,3.54,3.54,0,0,1,1.71-.38,3.08,3.08,0,0,1,1.58.37,2.22,2.22,0,0,1,1,1.07,4.32,4.32,0,0,1,.33,1.8v.53h-4.8a3.88,3.88,0,0,0,.24,1.31,1.47,1.47,0,0,0,.63.75,2.07,2.07,0,0,0,1.05.23,2.39,2.39,0,0,0,.75-.1,1.72,1.72,0,0,0,.55-.31,1.25,1.25,0,0,0,.33-.49,1.7,1.7,0,0,0,.13-.61h1.09a2.86,2.86,0,0,1-.2,1,2,2,0,0,1-.56.76,2.62,2.62,0,0,1-.9.5A3.78,3.78,0,0,1,116.76,13.1Zm-1.86-4h3.61a3.21,3.21,0,0,0-.12-.94,1.65,1.65,0,0,0-.37-.62,1.4,1.4,0,0,0-.54-.35,2.19,2.19,0,0,0-.7-.1,2.13,2.13,0,0,0-1,.21,1.47,1.47,0,0,0-.62.66A3,3,0,0,0,114.9,9.05Z"/><path d="M122.72,13.1A3,3,0,0,1,122,13a2.35,2.35,0,0,1-.69-.29,1.57,1.57,0,0,1-.51-.57,2,2,0,0,1-.19-.9,1.83,1.83,0,0,1,.33-1.13,2.1,2.1,0,0,1,.92-.69,5.31,5.31,0,0,1,1.4-.35A16.09,16.09,0,0,1,125,9V8.23a1.55,1.55,0,0,0-.13-.64,1,1,0,0,0-.45-.41,2.28,2.28,0,0,0-.92-.14,2.32,2.32,0,0,0-.91.14,1,1,0,0,0-.47.38,1.06,1.06,0,0,0-.13.5v.19h-1.08a.49.49,0,0,1,0-.12V8a1.55,1.55,0,0,1,.34-1,2.07,2.07,0,0,1,.94-.62,4.29,4.29,0,0,1,1.4-.21,3.62,3.62,0,0,1,1.4.24,1.77,1.77,0,0,1,1.13,1.75v3.62a.39.39,0,0,0,.12.33.36.36,0,0,0,.27.1h.5v.73a3.54,3.54,0,0,1-.39.14,2.49,2.49,0,0,1-.5.05,1,1,0,0,1-.54-.13.79.79,0,0,1-.33-.37,1.67,1.67,0,0,1-.16-.52H125a2.54,2.54,0,0,1-.58.55,2.79,2.79,0,0,1-.78.36A3.5,3.5,0,0,1,122.72,13.1Zm.28-.94a2.19,2.19,0,0,0,.77-.13,1.92,1.92,0,0,0,.64-.36,1.85,1.85,0,0,0,.44-.56,1.6,1.6,0,0,0,.17-.73V9.83a11,11,0,0,0-1.75.11,2.43,2.43,0,0,0-1.11.41,1,1,0,0,0-.39.82,1,1,0,0,0,.15.56.94.94,0,0,0,.43.32A1.84,1.84,0,0,0,123,12.16Z"/><path d="M128,12.94V6.28h.9l.1,1h.09a2.39,2.39,0,0,1,.6-.66,2.21,2.21,0,0,1,.75-.38,3.12,3.12,0,0,1,.88-.12,2.75,2.75,0,0,1,1.11.22,1.63,1.63,0,0,1,.75.7,2.65,2.65,0,0,1,.27,1.3v4.6h-1.12V8.49a1.7,1.7,0,0,0-.11-.68.93.93,0,0,0-.29-.42,1.06,1.06,0,0,0-.44-.21,2.1,2.1,0,0,0-.58-.07,1.81,1.81,0,0,0-.88.23,1.64,1.64,0,0,0-.67.66,2.09,2.09,0,0,0-.25,1v3.91Z"/><path d="M137.36,13.1a2.64,2.64,0,0,1-1.41-.37,2.37,2.37,0,0,1-.91-1.15,5.23,5.23,0,0,1-.33-2A4.9,4.9,0,0,1,135,7.62,2.44,2.44,0,0,1,136,6.49a2.53,2.53,0,0,1,1.35-.37,3.63,3.63,0,0,1,.83.1,2.24,2.24,0,0,1,.68.32,2.39,2.39,0,0,1,.52.57h.08V3.78h1.11v9.16h-.9l-.1-.95h-.09a2.12,2.12,0,0,1-.88.83A2.58,2.58,0,0,1,137.36,13.1Zm.27-1a1.74,1.74,0,0,0,1-.28,1.58,1.58,0,0,0,.57-.81,3.88,3.88,0,0,0,.19-1.32v-.2a4.28,4.28,0,0,0-.14-1.16,1.91,1.91,0,0,0-.38-.74,1.35,1.35,0,0,0-.56-.4,2.14,2.14,0,0,0-.67-.11,1.86,1.86,0,0,0-1,.25,1.46,1.46,0,0,0-.58.77,4,4,0,0,0-.19,1.36v.27a4.09,4.09,0,0,0,.2,1.39,1.48,1.48,0,0,0,.59.75A1.89,1.89,0,0,0,137.63,12.12Z"/><path d="M142.28,12.94V6.28h.9l.1,1.1h.09a2.73,2.73,0,0,1,.28-.6,1.44,1.44,0,0,1,.48-.47,1.39,1.39,0,0,1,.75-.19,1.25,1.25,0,0,1,.35,0l.23.06v1h-.41a1.73,1.73,0,0,0-.75.15,1.45,1.45,0,0,0-.51.41,2,2,0,0,0-.3.63,3.35,3.35,0,0,0-.09.79v3.71Z"/><path d="M149,13.1a3.41,3.41,0,0,1-1.67-.38,2.44,2.44,0,0,1-1-1.14,4.89,4.89,0,0,1-.35-2,4.83,4.83,0,0,1,.35-2,2.41,2.41,0,0,1,1-1.14,3.49,3.49,0,0,1,1.71-.38,3,3,0,0,1,1.57.37,2.29,2.29,0,0,1,1,1.07,4.5,4.5,0,0,1,.32,1.8v.53h-4.79a3.9,3.9,0,0,0,.23,1.31A1.47,1.47,0,0,0,148,12a2.09,2.09,0,0,0,1.05.23,2.5,2.5,0,0,0,.76-.1,1.78,1.78,0,0,0,.54-.31,1.39,1.39,0,0,0,.34-.49,1.7,1.7,0,0,0,.12-.61h1.1a2.65,2.65,0,0,1-.21,1,1.91,1.91,0,0,1-.56.76,2.45,2.45,0,0,1-.9.5A3.76,3.76,0,0,1,149,13.1Zm-1.87-4h3.62a3.18,3.18,0,0,0-.13-.94,1.45,1.45,0,0,0-.91-1,2.46,2.46,0,0,0-1.69.11,1.47,1.47,0,0,0-.62.66A3.41,3.41,0,0,0,147.16,9.05Z"/><path d="M153.31,12.94V3.78h1.12v9.16Z"/><path d="M158.83,13.1a3.41,3.41,0,0,1-1.67-.38,2.44,2.44,0,0,1-1-1.14,4.89,4.89,0,0,1-.35-2,4.83,4.83,0,0,1,.35-2,2.41,2.41,0,0,1,1-1.14,3.49,3.49,0,0,1,1.71-.38,3,3,0,0,1,1.57.37,2.29,2.29,0,0,1,1,1.07,4.5,4.5,0,0,1,.32,1.8v.53h-4.79a3.9,3.9,0,0,0,.23,1.31,1.47,1.47,0,0,0,.63.75,2.09,2.09,0,0,0,1,.23,2.5,2.5,0,0,0,.76-.1,1.78,1.78,0,0,0,.54-.31,1.39,1.39,0,0,0,.34-.49,1.7,1.7,0,0,0,.12-.61h1.1a2.65,2.65,0,0,1-.21,1,1.91,1.91,0,0,1-.56.76,2.45,2.45,0,0,1-.9.5A3.76,3.76,0,0,1,158.83,13.1Zm-1.87-4h3.62a3.18,3.18,0,0,0-.13-.94,1.45,1.45,0,0,0-.91-1,2.46,2.46,0,0,0-1.69.11,1.47,1.47,0,0,0-.62.66A3.41,3.41,0,0,0,157,9.05Z"/><path d="M164.87,12.94,162.4,6.28h1.17l1.22,3.33.2.6c.07.24.15.49.23.74s.15.47.2.66h.06l.21-.65c.07-.25.15-.49.23-.74l.21-.61,1.2-3.33h1.13L166,12.94Z"/><path d="M172.1,13.1a3.44,3.44,0,0,1-1.67-.38,2.37,2.37,0,0,1-1-1.14,4.73,4.73,0,0,1-.35-2,4.67,4.67,0,0,1,.35-2,2.34,2.34,0,0,1,1-1.14,3.54,3.54,0,0,1,1.71-.38,3,3,0,0,1,1.57.37,2.23,2.23,0,0,1,1,1.07,4.33,4.33,0,0,1,.32,1.8v.53h-4.79a3.88,3.88,0,0,0,.24,1.31,1.46,1.46,0,0,0,.62.75,2.11,2.11,0,0,0,1.06.23,2.43,2.43,0,0,0,.75-.1,1.72,1.72,0,0,0,.55-.31,1.37,1.37,0,0,0,.33-.49,1.7,1.7,0,0,0,.13-.61H175a2.86,2.86,0,0,1-.2,1,2.12,2.12,0,0,1-.56.76,2.62,2.62,0,0,1-.9.5A3.82,3.82,0,0,1,172.1,13.1Zm-1.86-4h3.61a2.88,2.88,0,0,0-.13-.94,1.52,1.52,0,0,0-.36-.62,1.48,1.48,0,0,0-.54-.35,2.21,2.21,0,0,0-.71-.1,2.13,2.13,0,0,0-1,.21,1.53,1.53,0,0,0-.62.66A3.2,3.2,0,0,0,170.24,9.05Z"/><path d="M176.39,12.94V3.78h1.11v9.16Z"/><path d="M179.49,12.94V11.61h1.24v1.33Z"/><path d="M185.29,13.1a3.18,3.18,0,0,1-1.62-.38,2.3,2.3,0,0,1-1-1.15,5,5,0,0,1-.34-2,4.94,4.94,0,0,1,.34-1.95,2.39,2.39,0,0,1,1-1.16,3.31,3.31,0,0,1,1.64-.38,3.55,3.55,0,0,1,1.19.18,2.14,2.14,0,0,1,.83.52,2.19,2.19,0,0,1,.49.82A3.76,3.76,0,0,1,188,8.75h-1.13a2.6,2.6,0,0,0-.16-1,1.14,1.14,0,0,0-.5-.56,2,2,0,0,0-.9-.18,1.8,1.8,0,0,0-1,.25,1.55,1.55,0,0,0-.62.78,3.86,3.86,0,0,0-.21,1.4v.27a3.83,3.83,0,0,0,.21,1.37,1.58,1.58,0,0,0,.61.8,1.82,1.82,0,0,0,1,.25,1.87,1.87,0,0,0,.92-.2,1.23,1.23,0,0,0,.51-.59,2.43,2.43,0,0,0,.16-.91H188a3.49,3.49,0,0,1-.16,1,2.35,2.35,0,0,1-.49.84,2.27,2.27,0,0,1-.84.55A3.37,3.37,0,0,1,185.29,13.1Z"/><path d="M192.07,13.1a3.54,3.54,0,0,1-1.71-.38,2.43,2.43,0,0,1-1.05-1.14,4.72,4.72,0,0,1-.36-2,4.65,4.65,0,0,1,.36-2,2.43,2.43,0,0,1,1.05-1.14,4,4,0,0,1,3.41,0,2.43,2.43,0,0,1,1,1.14,4.67,4.67,0,0,1,.35,2,4.73,4.73,0,0,1-.35,2,2.43,2.43,0,0,1-1,1.14A3.53,3.53,0,0,1,192.07,13.1Zm0-.94a2.11,2.11,0,0,0,1.08-.26,1.57,1.57,0,0,0,.65-.79A3.55,3.55,0,0,0,194,9.75V9.47a3.57,3.57,0,0,0-.22-1.37,1.59,1.59,0,0,0-.65-.78,2.11,2.11,0,0,0-1.08-.26,2.17,2.17,0,0,0-1.09.26,1.49,1.49,0,0,0-.65.78,3.79,3.79,0,0,0-.21,1.37v.28a3.77,3.77,0,0,0,.21,1.36,1.48,1.48,0,0,0,.65.79A2.17,2.17,0,0,0,192.07,12.16Z"/><path d="M196.56,12.94V6.28h.9l.1,1h.09a2.31,2.31,0,0,1,.57-.66,2.13,2.13,0,0,1,.69-.38,2.78,2.78,0,0,1,.83-.12,2.28,2.28,0,0,1,1.11.26,1.56,1.56,0,0,1,.7.9h.08a2.11,2.11,0,0,1,1.26-1,3,3,0,0,1,.84-.13,2.55,2.55,0,0,1,1.07.21,1.53,1.53,0,0,1,.71.69,2.56,2.56,0,0,1,.26,1.27v4.65h-1.11V8.47a1.82,1.82,0,0,0-.1-.67.9.9,0,0,0-.27-.42,1.2,1.2,0,0,0-.41-.2,1.68,1.68,0,0,0-.5-.07,1.56,1.56,0,0,0-.82.23A1.61,1.61,0,0,0,202,8a2.09,2.09,0,0,0-.23,1v3.91h-1.12V8.47a1.82,1.82,0,0,0-.1-.67,1.21,1.21,0,0,0-.26-.42,1.16,1.16,0,0,0-.4-.2,1.61,1.61,0,0,0-.49-.07,1.67,1.67,0,0,0-.85.23,1.63,1.63,0,0,0-.61.66,2.21,2.21,0,0,0-.23,1v3.91Z"/></g></g></svg>