<svg xmlns="http://www.w3.org/2000/svg" width="201.01" height="62.69" viewBox="0 0 201.01 62.69"><defs><style>.cls-1{fill:#fff;}</style></defs><g id="Layer_2" data-name="Layer 2"><g id="Layer_1-2" data-name="Layer 1"><path class="cls-1" d="M16,6.88V2.3H32.84V6.88Zm5.71,17.47V2.3H27.1V24.35Z"/><path class="cls-1" d="M34.82,24.35V.77h5.37V5.51c0,.45,0,1-.07,1.7s-.11,1.42-.2,2.17-.18,1.5-.28,2.21-.18,1.32-.25,1.84h.44a14.22,14.22,0,0,1,1.06-4,5.37,5.37,0,0,1,2-2.37,5.49,5.49,0,0,1,3-.78,4.93,4.93,0,0,1,4.36,2.07c.94,1.38,1.42,3.47,1.42,6.27v9.76H46.24V15a6.44,6.44,0,0,0-.59-3.14,2,2,0,0,0-1.85-1,2.65,2.65,0,0,0-1.87.75,5,5,0,0,0-1.27,2.29,13.41,13.41,0,0,0-.47,3.84v6.58Z"/><path class="cls-1" d="M57.06,5.08a3.75,3.75,0,0,1-2.36-.64,2.23,2.23,0,0,1-.82-1.87A2.34,2.34,0,0,1,54.7.65,3.75,3.75,0,0,1,57.06,0a3.82,3.82,0,0,1,2.39.65,2.33,2.33,0,0,1,.81,1.92,2.23,2.23,0,0,1-.81,1.85A3.76,3.76,0,0,1,57.06,5.08ZM54.39,24.35V6.71h5.37V24.35Z"/><path class="cls-1" d="M62.7,24.35V6.71h4.48l0,6.62h.4a13.48,13.48,0,0,1,1-4A5.11,5.11,0,0,1,70.52,7a5.71,5.71,0,0,1,3.07-.76,5.22,5.22,0,0,1,4.44,2q1.5,2,1.5,6V24.35H74.12V14.93a6,6,0,0,0-.61-3.07,2.11,2.11,0,0,0-1.92-1,2.65,2.65,0,0,0-1.86.72,4.78,4.78,0,0,0-1.22,2.21,13.91,13.91,0,0,0-.43,3.82v6.75Z"/><path class="cls-1" d="M82.27,24.35V.77h5.28V13.43A11.2,11.2,0,0,0,89.45,12a10.5,10.5,0,0,0,1.44-1.66,11.81,11.81,0,0,0,1-1.78,16.89,16.89,0,0,0,.71-1.86h6.22a13.34,13.34,0,0,1-1.1,2.59A11.47,11.47,0,0,1,96,11.64a12.33,12.33,0,0,1-2.42,1.94,12.74,12.74,0,0,1-3.06,1.32v.36a9.76,9.76,0,0,1,3.56-.06,4.47,4.47,0,0,1,2.2,1.08,5.18,5.18,0,0,1,1.26,1.9,17.07,17.07,0,0,1,.7,2.39L99,24.35H93.13l-.34-2.57a17,17,0,0,0-.5-2.24,3.25,3.25,0,0,0-1-1.61,3.37,3.37,0,0,0-2.19-.6H87.55v7Z"/><path class="cls-1" d="M103.65,5.08a3.75,3.75,0,0,1-2.36-.64,2.23,2.23,0,0,1-.82-1.87,2.34,2.34,0,0,1,.82-1.92,4.65,4.65,0,0,1,4.74,0,2.31,2.31,0,0,1,.82,1.92A2.21,2.21,0,0,1,106,4.42,3.71,3.71,0,0,1,103.65,5.08ZM101,24.35V6.71h5.38V24.35Z"/><path class="cls-1" d="M109.29,24.35V6.71h4.48l0,6.62h.4a13.48,13.48,0,0,1,1-4A5.11,5.11,0,0,1,117.11,7a5.71,5.71,0,0,1,3.07-.76,5.22,5.22,0,0,1,4.44,2q1.5,2,1.5,6V24.35h-5.41V14.93a5.88,5.88,0,0,0-.62-3.07,2.09,2.09,0,0,0-1.92-1,2.64,2.64,0,0,0-1.85.72,4.78,4.78,0,0,0-1.22,2.21,13.91,13.91,0,0,0-.43,3.82v6.75Z"/><path class="cls-1" d="M135.87,29.89a19.31,19.31,0,0,1-4.74-.47,5.25,5.25,0,0,1-2.55-1.3,2.76,2.76,0,0,1-.79-2A2.89,2.89,0,0,1,129,23.76a6.87,6.87,0,0,1,3.45-1.18v-.34a5.76,5.76,0,0,1-2.7-.52,1.65,1.65,0,0,1-1-1.55,2.22,2.22,0,0,1,.9-1.7,5.12,5.12,0,0,1,3-.9V17.2a5.2,5.2,0,0,1-3-1.59,4.58,4.58,0,0,1-1.1-3.19,5.1,5.1,0,0,1,.9-3,6.08,6.08,0,0,1,2.66-2,10.91,10.91,0,0,1,4.29-.75h8.88v4.1L139.38,10v.43A7,7,0,0,1,143,11.59a2.68,2.68,0,0,1,1,2.1,3.46,3.46,0,0,1-.8,2.24,5,5,0,0,1-2.4,1.55,12.33,12.33,0,0,1-4,.55c-.42,0-.85,0-1.3-.05A14.13,14.13,0,0,1,134,17.8a4.24,4.24,0,0,0-.86.57.75.75,0,0,0-.31.53.33.33,0,0,0,.14.27.88.88,0,0,0,.4.15,3.83,3.83,0,0,0,.63.05h5.35c.47,0,1.05,0,1.75.08a7.53,7.53,0,0,1,2.12.51A4,4,0,0,1,145,21.34a4.53,4.53,0,0,1,.72,2.74,5,5,0,0,1-1.07,3.29,6.27,6.27,0,0,1-3.24,1.9A20.83,20.83,0,0,1,135.87,29.89Zm.21-4.61a22.94,22.94,0,0,0,3.2-.16,3.22,3.22,0,0,0,1.44-.49,1,1,0,0,0,.36-.75,1.09,1.09,0,0,0-.26-.79,1.62,1.62,0,0,0-.65-.4,5.5,5.5,0,0,0-.77-.15l-.62,0H134.3a3.71,3.71,0,0,0-1.55.67,1.2,1.2,0,0,0-.45.9.82.82,0,0,0,.45.78,3.42,3.42,0,0,0,1.29.34C134.59,25.25,135.27,25.28,136.08,25.28Zm.33-10.12a2.32,2.32,0,0,0,1.79-.68,2.69,2.69,0,0,0,.61-1.86,2.93,2.93,0,0,0-.63-1.95,2.18,2.18,0,0,0-1.77-.75,2.28,2.28,0,0,0-1.82.75,2.84,2.84,0,0,0-.65,1.95,3.06,3.06,0,0,0,.28,1.36,1.94,1.94,0,0,0,.84.88A2.75,2.75,0,0,0,136.41,15.16Z"/><path class="cls-1" d="M162.93,24.81a10.08,10.08,0,0,1-4.6-1,7.22,7.22,0,0,1-3.1-3.09,10.76,10.76,0,0,1-1.12-5.18,10.6,10.6,0,0,1,1.15-5.23,7.34,7.34,0,0,1,3.17-3.05,11,11,0,0,1,9.19,0,7.23,7.23,0,0,1,3.09,3.08,11,11,0,0,1,1.1,5.19,10.64,10.64,0,0,1-1.17,5.28,7.25,7.25,0,0,1-3.17,3A10.39,10.39,0,0,1,162.93,24.81Zm.13-3.94a2.8,2.8,0,0,0,1.82-.58,3.59,3.59,0,0,0,1.1-1.72,8.49,8.49,0,0,0,.39-2.74,9,9,0,0,0-.42-2.94,4,4,0,0,0-1.19-1.84,2.93,2.93,0,0,0-1.93-.63,2.81,2.81,0,0,0-1.77.58,3.59,3.59,0,0,0-1.12,1.72,8.49,8.49,0,0,0-.39,2.74,7.14,7.14,0,0,0,.94,4A2.91,2.91,0,0,0,163.06,20.87Z"/><path class="cls-1" d="M175.58,24.35V13.53h-2.5V9.65l5.21.3V9.58a5.93,5.93,0,0,1-2.77-.93,3.78,3.78,0,0,1-1.34-1.6,4.69,4.69,0,0,1-.37-1.74,4.26,4.26,0,0,1,.81-2.6A5,5,0,0,1,176.87,1a8.73,8.73,0,0,1,3.29-.59,9.17,9.17,0,0,1,2.77.4,7,7,0,0,1,2.14,1.11l-.4,4.91a8,8,0,0,0-1.77-.94,5.12,5.12,0,0,0-1.77-.33,2.77,2.77,0,0,0-1.64.45,1.62,1.62,0,0,0-.63,1.42,1.76,1.76,0,0,0,.3,1,1.86,1.86,0,0,0,.87.67,3.66,3.66,0,0,0,1.43.23H185v4.15h-4.08V24.35Z"/><path class="cls-1" d="M2.5,57.55V46.73H0V42.85l5.21.3v-.36a6,6,0,0,1-2.77-.94,3.78,3.78,0,0,1-1.34-1.6,4.69,4.69,0,0,1-.37-1.74,4.26,4.26,0,0,1,.81-2.6,5,5,0,0,1,2.25-1.69,8.77,8.77,0,0,1,3.29-.59A8.86,8.86,0,0,1,9.85,34,6.66,6.66,0,0,1,12,35.14l-.4,4.91a8,8,0,0,0-1.77-.94,5.12,5.12,0,0,0-1.77-.33,2.77,2.77,0,0,0-1.64.45,1.62,1.62,0,0,0-.63,1.42,1.76,1.76,0,0,0,.3,1,1.86,1.86,0,0,0,.87.67,3.69,3.69,0,0,0,1.43.23h3.51v4.15H7.81V57.55Z"/><path class="cls-1" d="M16.53,38.28a3.72,3.72,0,0,1-2.35-.64,2.2,2.2,0,0,1-.82-1.87,2.31,2.31,0,0,1,.82-1.92,3.72,3.72,0,0,1,2.35-.65,3.8,3.8,0,0,1,2.39.65,2.34,2.34,0,0,1,.82,1.92,2.24,2.24,0,0,1-.82,1.85A3.74,3.74,0,0,1,16.53,38.28ZM13.86,57.55V39.91h5.38V57.55Z"/><path class="cls-1" d="M22.18,57.55V39.91h4.57l0,6.72h.41A15.13,15.13,0,0,1,28,42.4a4.65,4.65,0,0,1,1.58-2.22,4,4,0,0,1,2.29-.67,5.23,5.23,0,0,1,1.07.12,4.39,4.39,0,0,1,1.14.42L33.8,46a5.83,5.83,0,0,0-1.34-.55,4.89,4.89,0,0,0-1.27-.19,3.18,3.18,0,0,0-1.93.59A3.68,3.68,0,0,0,28,47.51a8.1,8.1,0,0,0-.47,2.76v7.28Z"/><path class="cls-1" d="M43.35,58a15.06,15.06,0,0,1-3.26-.33,7.7,7.7,0,0,1-2.6-1.07,5,5,0,0,1-1.72-1.89,5.85,5.85,0,0,1-.6-2.75l4.51-.8a3.36,3.36,0,0,0,.58,1.62,3,3,0,0,0,1.3,1,5,5,0,0,0,2,.35,4.36,4.36,0,0,0,1.89-.36,1.23,1.23,0,0,0,.75-1.17.93.93,0,0,0-.32-.75,3.11,3.11,0,0,0-1.06-.54c-.51-.17-1.2-.36-2.09-.58-1-.25-2-.51-2.92-.79a10.83,10.83,0,0,1-2.37-1,4.36,4.36,0,0,1-1.58-1.52,4.5,4.5,0,0,1-.55-2.32,4.9,4.9,0,0,1,1-3A6.07,6.07,0,0,1,39,40.13,11,11,0,0,1,43,39.45a11.46,11.46,0,0,1,3.84.61A6.15,6.15,0,0,1,49.64,42a5,5,0,0,1,1,3.42l-4.51.77a2.77,2.77,0,0,0-.4-1.53,2.52,2.52,0,0,0-1.14-1,4.14,4.14,0,0,0-1.77-.34,3.52,3.52,0,0,0-1.81.4,1.22,1.22,0,0,0-.66,1.07,1.06,1.06,0,0,0,.42.85,3.54,3.54,0,0,0,1.25.61c.56.16,1.27.34,2.14.51s1.61.39,2.44.62a10,10,0,0,1,2.3,1A5,5,0,0,1,50.61,50a4.45,4.45,0,0,1,.65,2.52,4.84,4.84,0,0,1-.91,2.93,5.86,5.86,0,0,1-2.68,1.92A12.34,12.34,0,0,1,43.35,58Z"/><path class="cls-1" d="M60.35,58a6,6,0,0,1-4.61-1.61q-1.5-1.59-1.5-5V44.12H52.13l0-3.64h.6a3.8,3.8,0,0,0,2.53-1.07,4.8,4.8,0,0,0,1-2.74l.14-.76h3.1v4h4.11v4.34H59.51V50.9a2.26,2.26,0,0,0,.6,1.77,2.32,2.32,0,0,0,1.61.54,4.1,4.1,0,0,0,1-.14,4.17,4.17,0,0,0,.95-.37v4.78a10.87,10.87,0,0,1-1.89.38A13.52,13.52,0,0,1,60.35,58Z"/><path class="cls-1" d="M79.28,58a6.24,6.24,0,0,1-3.54-1,7,7,0,0,1-2.47-3.15,13.4,13.4,0,0,1-.9-5.25,13.64,13.64,0,0,1,.8-4.94,6.56,6.56,0,0,1,2.31-3.09,6.12,6.12,0,0,1,3.6-1.05,5.8,5.8,0,0,1,2.74.62A4.86,4.86,0,0,1,83.76,42a10.52,10.52,0,0,1,1.14,3.43h.43c-.11-.76-.23-1.5-.35-2.22s-.21-1.42-.27-2.07-.08-1.27-.08-1.82V34H90V57.55H85.4V52.17H85a10.37,10.37,0,0,1-1.12,3.26A5.16,5.16,0,0,1,82,57.36,5.31,5.31,0,0,1,79.28,58Zm1.94-4.3a2.93,2.93,0,0,0,1.37-.34,3.15,3.15,0,0,0,1.1-1,4.75,4.75,0,0,0,.72-1.5,7,7,0,0,0,.25-2v-.37a6.93,6.93,0,0,0-.18-1.62A5.27,5.27,0,0,0,84,45.62a3.67,3.67,0,0,0-.79-.95,3.38,3.38,0,0,0-1-.57,3.23,3.23,0,0,0-1.06-.18,2.49,2.49,0,0,0-1.78.67,4.15,4.15,0,0,0-1.09,1.79,7.92,7.92,0,0,0-.36,2.45,7.11,7.11,0,0,0,.4,2.47,4.06,4.06,0,0,0,1.13,1.75A2.56,2.56,0,0,0,81.22,53.71Z"/><path class="cls-1" d="M101.33,58a11.1,11.1,0,0,1-4.15-.68,7.35,7.35,0,0,1-2.78-1.9,7.51,7.51,0,0,1-1.59-2.84,11.92,11.92,0,0,1-.5-3.49,12.93,12.93,0,0,1,.52-3.73,8.78,8.78,0,0,1,1.58-3.07,7.64,7.64,0,0,1,2.71-2.09,9,9,0,0,1,3.84-.76,9.13,9.13,0,0,1,3.86.75,6.61,6.61,0,0,1,2.62,2.13,7.78,7.78,0,0,1,1.33,3.26,12.9,12.9,0,0,1,0,4.08l-13.1.2V47l9.29-.17-1.07,1.61a6.74,6.74,0,0,0-.1-2.63,2.84,2.84,0,0,0-1-1.58,2.94,2.94,0,0,0-1.82-.54,3.1,3.1,0,0,0-2,.64,3.68,3.68,0,0,0-1.15,1.8,9.45,9.45,0,0,0-.36,2.77,6.28,6.28,0,0,0,1,3.94A3.43,3.43,0,0,0,101.33,54a4.19,4.19,0,0,0,1.38-.2,2.19,2.19,0,0,0,1.4-1.5,5.3,5.3,0,0,0,.19-1.17l4.87.5a7.63,7.63,0,0,1-.41,2.25,5.43,5.43,0,0,1-1.29,2,6.61,6.61,0,0,1-2.42,1.49A10.67,10.67,0,0,1,101.33,58Z"/><path class="cls-1" d="M111.41,62.69V39.91h4.64v5.31l.37,0A9.56,9.56,0,0,1,117.51,42a4.91,4.91,0,0,1,1.92-1.94,5.75,5.75,0,0,1,2.77-.63,6.24,6.24,0,0,1,3.66,1.06,6.73,6.73,0,0,1,2.32,3.14,14.25,14.25,0,0,1,.8,5.08,13.62,13.62,0,0,1-.84,5.11A6.66,6.66,0,0,1,125.8,57a6,6,0,0,1-3.54,1,5.58,5.58,0,0,1-2.68-.61,5,5,0,0,1-1.91-1.89,10.05,10.05,0,0,1-1.12-3.17h-.4c.11.62.22,1.27.32,1.95s.18,1.34.23,2,.09,1.27.09,1.87v4.54Zm8.85-9a2.59,2.59,0,0,0,1.79-.65,4,4,0,0,0,1.07-1.74,7.84,7.84,0,0,0,.35-2.39,7.29,7.29,0,0,0-.39-2.48,4,4,0,0,0-1.1-1.74,2.53,2.53,0,0,0-1.75-.65,3,3,0,0,0-1.4.33,3.09,3.09,0,0,0-1.09,1,5.16,5.16,0,0,0-.72,1.51,6.77,6.77,0,0,0-.27,2v.34a6.67,6.67,0,0,0,.19,1.62,4.16,4.16,0,0,0,.52,1.25,3.88,3.88,0,0,0,.78.92,3.3,3.3,0,0,0,1,.57A3.13,3.13,0,0,0,120.26,53.64Z"/><path class="cls-1" d="M139.53,58a10,10,0,0,1-4.59-1,7.24,7.24,0,0,1-3.11-3.09,10.88,10.88,0,0,1-1.12-5.18,10.6,10.6,0,0,1,1.16-5.23,7.23,7.23,0,0,1,3.17-3,11,11,0,0,1,9.18,0,7.13,7.13,0,0,1,3.09,3.08,10.84,10.84,0,0,1,1.1,5.19A10.75,10.75,0,0,1,147.25,54a7.22,7.22,0,0,1-3.18,3A10.36,10.36,0,0,1,139.53,58Zm.13-3.94a2.76,2.76,0,0,0,1.82-.58,3.68,3.68,0,0,0,1.11-1.72A8.8,8.8,0,0,0,143,49a9,9,0,0,0-.42-2.94,4.11,4.11,0,0,0-1.18-1.84,3,3,0,0,0-1.94-.63,2.76,2.76,0,0,0-1.77.59,3.58,3.58,0,0,0-1.12,1.71,8.8,8.8,0,0,0-.38,2.74,7.23,7.23,0,0,0,.93,4A2.93,2.93,0,0,0,139.66,54.07Z"/><path class="cls-1" d="M158.33,58a15,15,0,0,1-3.25-.33,7.84,7.84,0,0,1-2.61-1.07,5,5,0,0,1-1.72-1.89,5.85,5.85,0,0,1-.6-2.75l4.51-.8a3.46,3.46,0,0,0,.58,1.62,3.05,3.05,0,0,0,1.31,1,5,5,0,0,0,2,.35,4.35,4.35,0,0,0,1.88-.36,1.24,1.24,0,0,0,.76-1.17,1,1,0,0,0-.32-.75,3.17,3.17,0,0,0-1.07-.54c-.5-.17-1.2-.36-2.09-.58-1-.25-2-.51-2.92-.79a11.27,11.27,0,0,1-2.37-1,4.33,4.33,0,0,1-1.57-1.52,4.4,4.4,0,0,1-.55-2.32,4.9,4.9,0,0,1,1-3A6.05,6.05,0,0,1,154,40.13a10.89,10.89,0,0,1,4-.68,11.46,11.46,0,0,1,3.84.61A6.13,6.13,0,0,1,164.63,42a5,5,0,0,1,1,3.42l-4.51.77a2.77,2.77,0,0,0-.4-1.53,2.45,2.45,0,0,0-1.13-1,4.14,4.14,0,0,0-1.77-.34,3.53,3.53,0,0,0-1.82.4,1.21,1.21,0,0,0-.65,1.07,1.07,1.07,0,0,0,.41.85,3.52,3.52,0,0,0,1.26.61c.55.16,1.27.34,2.13.51s1.62.39,2.44.62a10.07,10.07,0,0,1,2.31,1A5.18,5.18,0,0,1,165.6,50a4.53,4.53,0,0,1,.65,2.52,4.84,4.84,0,0,1-.92,2.93,5.78,5.78,0,0,1-2.67,1.92A12.36,12.36,0,0,1,158.33,58Z"/><path class="cls-1" d="M171.06,38.28a3.75,3.75,0,0,1-2.36-.64,2.23,2.23,0,0,1-.82-1.87,2.34,2.34,0,0,1,.82-1.92,4.65,4.65,0,0,1,4.74,0,2.31,2.31,0,0,1,.82,1.92,2.21,2.21,0,0,1-.82,1.85A3.71,3.71,0,0,1,171.06,38.28Zm-2.68,19.27V39.91h5.38V57.55Z"/><path class="cls-1" d="M183.68,58a6,6,0,0,1-4.61-1.61q-1.5-1.59-1.5-5V44.12h-2.11l0-3.64h.6a3.83,3.83,0,0,0,2.54-1.07,5,5,0,0,0,1-2.74l.13-.76h3.11v4H187v4.34h-4.1V50.9a2.26,2.26,0,0,0,.6,1.77,2.3,2.3,0,0,0,1.6.54,4.1,4.1,0,0,0,1-.14,4.17,4.17,0,0,0,1-.37v4.78a10.69,10.69,0,0,1-1.89.38A13.37,13.37,0,0,1,183.68,58Z"/><path class="cls-1" d="M190.86,50.4a7.13,7.13,0,0,1,.1-2.71,5.36,5.36,0,0,1,.85-1.78,5.62,5.62,0,0,1,1.24-1.2c.45-.33.89-.63,1.32-.91a4.06,4.06,0,0,0,1-.93,2,2,0,0,0,.4-1.25,1.62,1.62,0,0,0-.63-1.42,2.77,2.77,0,0,0-1.64-.45,6.84,6.84,0,0,0-1.6.21,10.37,10.37,0,0,0-1.7.59,11.13,11.13,0,0,0-1.57.83l-.24-4.91a10.13,10.13,0,0,1,1.84-.85,12.25,12.25,0,0,1,1.92-.48,12.06,12.06,0,0,1,2-.17,10.47,10.47,0,0,1,2.49.3,6.71,6.71,0,0,1,2.2,1A4.79,4.79,0,0,1,200.43,38a5.93,5.93,0,0,1,.58,2.78,6.32,6.32,0,0,1-.43,2.51A5,5,0,0,1,199.44,45a10.42,10.42,0,0,1-1.47,1.2c-.51.36-1,.72-1.43,1.09a3.87,3.87,0,0,0-1,1.3,3.3,3.3,0,0,0-.29,1.82ZM193.3,58a3.89,3.89,0,0,1-2.59-.73,2.84,2.84,0,0,1-.85-2.27,2.88,2.88,0,0,1,.85-2.31,5,5,0,0,1,5.19,0,2.86,2.86,0,0,1,.87,2.31Q196.77,58,193.3,58Z"/></g></g></svg>