<svg xmlns="http://www.w3.org/2000/svg" viewBox="0 0 208.86 89.52"><g id="Layer_2" data-name="Layer 2"><g id="Layer_1-2" data-name="Layer 1"><path d="M17.82,35.28a19.11,19.11,0,0,1-9.35-2.2,15.61,15.61,0,0,1-6.25-6.15A18.45,18.45,0,0,1,0,17.73a18.45,18.45,0,0,1,2.22-9.2A15.61,15.61,0,0,1,8.47,2.38,19.11,19.11,0,0,1,17.82.18a19.11,19.11,0,0,1,9.35,2.2,15.85,15.85,0,0,1,6.27,6.15,18.36,18.36,0,0,1,2.24,9.2,18.36,18.36,0,0,1-2.24,9.2,15.85,15.85,0,0,1-6.27,6.15A19.11,19.11,0,0,1,17.82,35.28Zm0-7.59a11.4,11.4,0,0,0,5.41-1.19,8.27,8.27,0,0,0,3.5-3.43A11,11,0,0,0,28,17.73a10.92,10.92,0,0,0-1.23-5.34A8.35,8.35,0,0,0,23.23,9a11.52,11.52,0,0,0-5.41-1.19A11.38,11.38,0,0,0,12.45,9a8.46,8.46,0,0,0-3.52,3.44,10.7,10.7,0,0,0-1.25,5.34,10.76,10.76,0,0,0,1.25,5.34,8.37,8.37,0,0,0,3.52,3.43A11.26,11.26,0,0,0,17.82,27.69Z"/><path d="M49.42,35.23a9.88,9.88,0,0,1-5.5-1.46,9.15,9.15,0,0,1-3.45-4.15,15.54,15.54,0,0,1-1.2-6.37V9h7.52V22a7.45,7.45,0,0,0,1.33,4.76A4.66,4.66,0,0,0,52,28.46a5.58,5.58,0,0,0,3.15-.86,5.39,5.39,0,0,0,2-2.47,9.25,9.25,0,0,0,.71-3.81l2.35,1.39a18.17,18.17,0,0,1-1.92,6.85,11.11,11.11,0,0,1-3.8,4.24A9.32,9.32,0,0,1,49.42,35.23Zm9.86-.67-1.46-10V9h7.52V25.85l1.45,8.71Z"/><path d="M68.25,15.17V11.54L73,9.6l3.24-7.45h4.28V9h9.94v6.19H80.53v8.44q0,2.87,1,4c.7.76,2,1.14,3.76,1.14a12.1,12.1,0,0,0,3-.34,12.27,12.27,0,0,0,2.48-.92v6.33a17.67,17.67,0,0,1-3.17,1,18.11,18.11,0,0,1-4.06.45,12.54,12.54,0,0,1-6-1.3,8,8,0,0,1-3.48-3.66A12.89,12.89,0,0,1,73,24.78V15.17Z"/><path d="M116.53,21.77a20.59,20.59,0,0,1-2.3,7.11,13.19,13.19,0,0,1-4.29,4.72,11.06,11.06,0,0,1-11.77,0,11.4,11.4,0,0,1-4-4.73,16.17,16.17,0,0,1-1.46-7.07,16.17,16.17,0,0,1,1.46-7.07,11.49,11.49,0,0,1,4-4.74,10.55,10.55,0,0,1,6-1.7,10.42,10.42,0,0,1,5.81,1.68,13.41,13.41,0,0,1,4.31,4.69A19.86,19.86,0,0,1,116.53,21.77Zm-16.24,0a8.37,8.37,0,0,0,.76,3.66,6.25,6.25,0,0,0,2.13,2.51,5.44,5.44,0,0,0,3.13.92,6.68,6.68,0,0,0,3.37-.92,9.39,9.39,0,0,0,2.81-2.51,11.31,11.31,0,0,0,1.82-3.66,11.21,11.21,0,0,0-1.82-3.66,9.39,9.39,0,0,0-2.81-2.51,6.58,6.58,0,0,0-3.37-.92,5.37,5.37,0,0,0-3.13.92,6.25,6.25,0,0,0-2.13,2.51A8.34,8.34,0,0,0,100.29,21.77Zm14.5,12.79-1-9.65,1.38-3.05L113.82,18l1.86-18h7.8l-2.3,21.14,1.37,13.42Z"/><path d="M140.09,35.28a16.27,16.27,0,0,1-7.64-1.71,12.45,12.45,0,0,1-5.09-4.76,13.5,13.5,0,0,1-1.82-7,13.5,13.5,0,0,1,1.82-7.07A12.53,12.53,0,0,1,132.47,10a18,18,0,0,1,15.27,0,12.53,12.53,0,0,1,5.11,4.74,13.41,13.41,0,0,1,1.82,7.07,13.41,13.41,0,0,1-1.82,7.07,12.44,12.44,0,0,1-5.11,4.73A16.34,16.34,0,0,1,140.09,35.28Zm0-6.29a7.59,7.59,0,0,0,3.77-.87,5.81,5.81,0,0,0,2.39-2.49,8.39,8.39,0,0,0,.83-3.86,8.39,8.39,0,0,0-.83-3.86,5.81,5.81,0,0,0-2.39-2.49,8.41,8.41,0,0,0-7.49,0,6,6,0,0,0-2.43,2.49,8.27,8.27,0,0,0-.84,3.86,8.27,8.27,0,0,0,.84,3.86,6,6,0,0,0,2.43,2.49A7.58,7.58,0,0,0,140.09,29Z"/><path d="M171.81,35.28a16.27,16.27,0,0,1-7.64-1.71,12.45,12.45,0,0,1-5.09-4.76,13.5,13.5,0,0,1-1.82-7,13.5,13.5,0,0,1,1.82-7.07A12.53,12.53,0,0,1,164.19,10a18,18,0,0,1,15.27,0,12.53,12.53,0,0,1,5.11,4.74,13.41,13.41,0,0,1,1.82,7.07,13.41,13.41,0,0,1-1.82,7.07,12.44,12.44,0,0,1-5.11,4.73A16.37,16.37,0,0,1,171.81,35.28Zm0-6.29a7.59,7.59,0,0,0,3.77-.87A5.86,5.86,0,0,0,178,25.63a8.39,8.39,0,0,0,.83-3.86,8.39,8.39,0,0,0-.83-3.86,5.86,5.86,0,0,0-2.39-2.49,8.41,8.41,0,0,0-7.49,0,6,6,0,0,0-2.43,2.49,8.27,8.27,0,0,0-.85,3.86,8.27,8.27,0,0,0,.85,3.86,6,6,0,0,0,2.43,2.49A7.58,7.58,0,0,0,171.81,29Z"/><path d="M188.9,9h7.59l1.38,9.2V34.56h-7.52V17.5Zm20-.36V15.8a17,17,0,0,0-2.16-.4,16,16,0,0,0-2-.14,7,7,0,0,0-3.5.88,6,6,0,0,0-2.46,2.76,11.2,11.2,0,0,0-.91,4.89l-1.5-2.07a33.76,33.76,0,0,1,.93-5.16,16.43,16.43,0,0,1,1.78-4.28,8.72,8.72,0,0,1,2.81-2.94A7.34,7.34,0,0,1,206,8.26a12.39,12.39,0,0,1,1.45.09A10.52,10.52,0,0,1,208.86,8.62Z"/><path d="M31.7,66.48l.86-2.22a18.84,18.84,0,0,1,7.81,1.62A10.25,10.25,0,0,1,44.91,70a11.86,11.86,0,0,1,1.48,6,13.65,13.65,0,0,1-1.51,6.51,10.74,10.74,0,0,1-4.51,4.47,15.59,15.59,0,0,1-7.48,1.62H3.72l3.13-23.1L3.72,43.56H31.86c3.75,0,6.65,1,8.72,2.91a10.41,10.41,0,0,1,3.11,8,12.8,12.8,0,0,1-1.19,5.4,10.6,10.6,0,0,1-3.78,4.35A15.3,15.3,0,0,1,31.7,66.48ZM13.77,85.8,9.88,80.46H30.46a5.76,5.76,0,0,0,4.13-1.41,5.24,5.24,0,0,0,1.48-4A5.33,5.33,0,0,0,34.43,71a7,7,0,0,0-4.89-1.53H12.69V61.5H28.24a4.91,4.91,0,0,0,5.13-5.28A4.46,4.46,0,0,0,32.1,53a4.8,4.8,0,0,0-3.59-1.29H9.93l3.84-5.34,2.86,19.14Z"/><path d="M51.31,42.36h10v46.2h-10Z"/><path d="M72.8,50.76a6.17,6.17,0,0,1-4.32-1.53,5.24,5.24,0,0,1-1.67-4,5.22,5.22,0,0,1,1.67-4.08,6.24,6.24,0,0,1,4.32-1.5,6.13,6.13,0,0,1,4.33,1.5,5.29,5.29,0,0,1,1.62,4.08,5.31,5.31,0,0,1-1.62,4A6.06,6.06,0,0,1,72.8,50.76Zm-5,3.12,5,1.14,5-1.14V88.56h-10Z"/><path d="M82.8,54.36h10l2,13.32V88.56H84.74V66Zm23.49-1a13.89,13.89,0,0,1,7.54,2,12.52,12.52,0,0,1,4.75,5.55,20.46,20.46,0,0,1,1.65,8.58V88.56h-10V71.16q0-4.26-1.89-6.45a6.75,6.75,0,0,0-5.4-2.19A7.44,7.44,0,0,0,95.79,67a11.79,11.79,0,0,0-1,5.07L91.6,70.2A24.22,24.22,0,0,1,94.27,61a15.39,15.39,0,0,1,5.19-5.67A12.6,12.6,0,0,1,106.29,53.4Z"/><path d="M156.74,71.46A27.64,27.64,0,0,1,153.67,81a17.7,17.7,0,0,1-5.73,6.3,14.82,14.82,0,0,1-15.75,0,15.48,15.48,0,0,1-5.37-6.33,21.55,21.55,0,0,1-1.94-9.45A21.55,21.55,0,0,1,126.82,62a15.48,15.48,0,0,1,5.37-6.33,14.82,14.82,0,0,1,15.75,0,17.91,17.91,0,0,1,5.75,6.27A26.19,26.19,0,0,1,156.74,71.46Zm-21.71,0a11.05,11.05,0,0,0,1,4.89,8.35,8.35,0,0,0,2.83,3.36,7.28,7.28,0,0,0,4.19,1.23,8.9,8.9,0,0,0,4.51-1.23,12.66,12.66,0,0,0,3.75-3.36,14.94,14.94,0,0,0,2.43-4.89,14.94,14.94,0,0,0-2.43-4.89,12.66,12.66,0,0,0-3.75-3.36A8.9,8.9,0,0,0,143.08,62a7.28,7.28,0,0,0-4.19,1.23,8.35,8.35,0,0,0-2.83,3.36A11.05,11.05,0,0,0,135,71.46Zm19.39,17.1-1.35-12.9,1.84-4.08-1.79-5.16,2.49-24.06H166L163,70.62l1.83,17.94Z"/><path d="M205.14,77.58a10.4,10.4,0,0,1-2,6.51,12.31,12.31,0,0,1-5.91,4,28.39,28.39,0,0,1-9.45,1.38A28.89,28.89,0,0,1,177.81,88a15.28,15.28,0,0,1-6.64-4.38A10.52,10.52,0,0,1,168.63,77h10.21a5,5,0,0,0,1.53,2.64,7.8,7.8,0,0,0,3.16,1.71,16.47,16.47,0,0,0,4.6.57,13.53,13.53,0,0,0,5.4-.84,2.7,2.7,0,0,0,1.83-2.52A2.08,2.08,0,0,0,194,76.68a14.65,14.65,0,0,0-4.73-1l-5.61-.48a25.38,25.38,0,0,1-8.43-1.86,9.7,9.7,0,0,1-4.46-3.66,9.56,9.56,0,0,1-1.32-5,9.42,9.42,0,0,1,2.13-6.3,12.92,12.92,0,0,1,5.92-3.78,28.05,28.05,0,0,1,8.86-1.26,25.42,25.42,0,0,1,9,1.5A16.14,16.14,0,0,1,201.82,59a10.39,10.39,0,0,1,2.73,6.18H194.34A4.43,4.43,0,0,0,193.18,63a6.69,6.69,0,0,0-2.7-1.65,13.81,13.81,0,0,0-4.57-.63,11.92,11.92,0,0,0-4.86.78,2.46,2.46,0,0,0-1.67,2.28,2,2,0,0,0,1,1.8,9.84,9.84,0,0,0,3.89,1l7.29.6A25.66,25.66,0,0,1,199.71,69a8.91,8.91,0,0,1,4.19,3.51A10,10,0,0,1,205.14,77.58Z"/></g></g></svg>