<svg xmlns="http://www.w3.org/2000/svg" viewBox="0 0 239.2 78.15"><g id="Layer_2" data-name="Layer 2"><g id="Layer_1-2" data-name="Layer 1"><path d="M15.27,11.67a5.63,5.63,0,0,1-2.38,2.27,8.7,8.7,0,0,1-4.09.86H5.45v7.68h-4v-20H8.8a8.85,8.85,0,0,1,4,.8,5.51,5.51,0,0,1,2.45,2.21A6.12,6.12,0,0,1,16,8.66,6.2,6.2,0,0,1,15.27,11.67ZM11.1,10.8a2.83,2.83,0,0,0,.8-2.14q0-2.93-3.27-2.93H5.45v5.83H8.63A3.53,3.53,0,0,0,11.1,10.8Z"/><path d="M33.86,6.59V22.48h-4v-2a5.23,5.23,0,0,1-2,1.62,6.32,6.32,0,0,1-2.71.59,6.71,6.71,0,0,1-3.3-.79,5.6,5.6,0,0,1-2.25-2.32,7.73,7.73,0,0,1-.82-3.66V6.59h4v8.75a4.08,4.08,0,0,0,1,2.91,3.34,3.34,0,0,0,2.58,1,3.41,3.41,0,0,0,2.61-1,4.12,4.12,0,0,0,.94-2.91V6.59Z"/><path d="M44,7.05a6.69,6.69,0,0,1,3.11-.71,7,7,0,0,1,3.69,1,7.07,7.07,0,0,1,2.61,2.85,9.22,9.22,0,0,1,1,4.29,9.38,9.38,0,0,1-1,4.32,7.24,7.24,0,0,1-2.61,2.91,6.88,6.88,0,0,1-3.69,1A6.69,6.69,0,0,1,44,22a6,6,0,0,1-2.13-1.82v2.26h-4V1.26h4V8.92A5.64,5.64,0,0,1,44,7.05Zm5.68,5a4,4,0,0,0-1.55-1.59A4.17,4.17,0,0,0,46,9.86a4.05,4.05,0,0,0-2.05.56A4.24,4.24,0,0,0,42.42,12a5.1,5.1,0,0,0-.58,2.5A5.06,5.06,0,0,0,42.42,17,4.11,4.11,0,0,0,44,18.65a4.06,4.06,0,0,0,4.13,0A4.23,4.23,0,0,0,49.65,17a5.1,5.1,0,0,0,.59-2.52A5,5,0,0,0,49.65,12Z"/><path d="M61.28,1.26V22.48h-4V1.26Z"/><path d="M65.51,4a2.24,2.24,0,0,1-.71-1.68A2.24,2.24,0,0,1,65.51.67,2.65,2.65,0,0,1,69,.67a2.24,2.24,0,0,1,.71,1.68A2.24,2.24,0,0,1,69,4a2.65,2.65,0,0,1-3.52,0Zm3.74,2.56V22.48h-4V6.59Z"/><path d="M73.18,10.22A7.18,7.18,0,0,1,76,7.35a8.11,8.11,0,0,1,4.07-1,7.85,7.85,0,0,1,4.89,1.47A7.21,7.21,0,0,1,87.51,12H83.18A3.12,3.12,0,0,0,82,10.34a3.38,3.38,0,0,0-2-.59A3.31,3.31,0,0,0,77.28,11a5.51,5.51,0,0,0-1,3.54,5.45,5.45,0,0,0,1,3.51A3.31,3.31,0,0,0,80,19.3a3,3,0,0,0,3.18-2.18h4.33a7.32,7.32,0,0,1-2.61,4.1A7.69,7.69,0,0,1,80,22.74a8,8,0,0,1-4.07-1,7.12,7.12,0,0,1-2.78-2.87,8.88,8.88,0,0,1-1-4.31A8.92,8.92,0,0,1,73.18,10.22Z"/><path d="M90.4,10.21A7.11,7.11,0,0,1,93,7.34a7,7,0,0,1,3.69-1,6.58,6.58,0,0,1,3.11.71,6.35,6.35,0,0,1,2.14,1.81V6.59h4V22.48h-4V20.16A6.08,6.08,0,0,1,99.8,22a6.61,6.61,0,0,1-3.14.73,6.83,6.83,0,0,1-3.66-1,7.29,7.29,0,0,1-2.6-2.91,9.25,9.25,0,0,1-1-4.32A9,9,0,0,1,90.4,10.21Zm11,1.82a4.08,4.08,0,0,0-1.55-1.61,4.16,4.16,0,0,0-4.15,0A4.07,4.07,0,0,0,94.12,12a5,5,0,0,0-.58,2.48A5.17,5.17,0,0,0,94.12,17a4.19,4.19,0,0,0,1.55,1.65,4,4,0,0,0,2,.57,4.12,4.12,0,0,0,3.64-2.16,5.09,5.09,0,0,0,.58-2.51A5.06,5.06,0,0,0,101.36,12Zm.26-7.87a4.67,4.67,0,0,1-3.35,1.17A4.6,4.6,0,0,1,95,4.14,4.27,4.27,0,0,1,93.71.89V.32h2.12a1.9,1.9,0,0,0,.54,1.47,2.79,2.79,0,0,0,1.9.5,2.75,2.75,0,0,0,1.89-.5A1.9,1.9,0,0,0,100.7.32h2.15v.6A4.29,4.29,0,0,1,101.62,4.16Z"/><path d="M116.66,10.21a7.06,7.06,0,0,1,2.61-2.87,7,7,0,0,1,3.69-1,6.58,6.58,0,0,1,3.11.71,6.22,6.22,0,0,1,2.13,1.81V6.59h4.05V22.48H128.2V20.16A6,6,0,0,1,126.07,22a6.64,6.64,0,0,1-3.14.73,6.83,6.83,0,0,1-3.66-1,7.24,7.24,0,0,1-2.61-2.91,9.38,9.38,0,0,1-1-4.32A9.17,9.17,0,0,1,116.66,10.21Zm11,1.82a4.08,4.08,0,0,0-1.55-1.61A4.17,4.17,0,0,0,124,9.86a4.11,4.11,0,0,0-2.07.55A4,4,0,0,0,120.39,12a5,5,0,0,0-.59,2.48,5.17,5.17,0,0,0,.59,2.51,4.19,4.19,0,0,0,1.55,1.65,3.94,3.94,0,0,0,2,.57,4.12,4.12,0,0,0,3.64-2.16,5.2,5.2,0,0,0,.57-2.51A5.17,5.17,0,0,0,127.63,12Z"/><path d="M149.56,8.16a6.83,6.83,0,0,1,1.75,5v9.32h-4V13.71a4.09,4.09,0,0,0-1-2.91,3.34,3.34,0,0,0-2.58-1,3.42,3.42,0,0,0-2.62,1,4.05,4.05,0,0,0-1,2.91v8.77h-4V6.59h4v2A5.68,5.68,0,0,1,142.24,7,6.35,6.35,0,0,1,145,6.37,6.08,6.08,0,0,1,149.56,8.16Z"/><path d="M170.12,6.59V22.48h-4v-2a5.3,5.3,0,0,1-2,1.62,6.32,6.32,0,0,1-2.71.59,6.71,6.71,0,0,1-3.3-.79,5.6,5.6,0,0,1-2.25-2.32,7.73,7.73,0,0,1-.82-3.66V6.59h4v8.75a4.12,4.12,0,0,0,.94,2.91,3.81,3.81,0,0,0,5.19,0,4.13,4.13,0,0,0,1-2.91V6.59Z"/><path d="M187.47,8.16a6.83,6.83,0,0,1,1.75,5v9.32h-4V13.71a4.09,4.09,0,0,0-1-2.91,3.34,3.34,0,0,0-2.58-1,3.46,3.46,0,0,0-2.63,1,4.05,4.05,0,0,0-1,2.91v8.77h-4V6.59h4v2a5.77,5.77,0,0,1,2-1.62,6.41,6.41,0,0,1,2.74-.58A6.1,6.1,0,0,1,187.47,8.16Z"/><path d="M197.71,9.89v7.69a1.56,1.56,0,0,0,.38,1.16,1.92,1.92,0,0,0,1.31.36h1.86v3.38h-2.52c-3.38,0-5.08-1.64-5.08-4.93V9.89h-1.89V6.59h1.89V2.67h4.05V6.59h3.55v3.3Zm.57,13.82a10.73,10.73,0,0,1,.49,3.1,4.24,4.24,0,0,1-.92,2.92,3.41,3.41,0,0,1-2.69,1V29.13c1,0,1.43-.59,1.43-1.78v-.51H195V23.71Z"/><path d="M219.16,6.59V22.48h-4v-2a5.23,5.23,0,0,1-2,1.62,6.28,6.28,0,0,1-2.71.59,6.71,6.71,0,0,1-3.3-.79,5.6,5.6,0,0,1-2.25-2.32,7.73,7.73,0,0,1-.82-3.66V6.59h4v8.75a4.08,4.08,0,0,0,.95,2.91,3.34,3.34,0,0,0,2.58,1,3.38,3.38,0,0,0,2.61-1,4.12,4.12,0,0,0,.94-2.91V6.59Z"/><path d="M229.15,7.08A5.58,5.58,0,0,1,232,6.37v4.21h-1.06a4.07,4.07,0,0,0-2.85.89,4.09,4.09,0,0,0-1,3.1v7.91h-4V6.59h4V9.06A5.63,5.63,0,0,1,229.15,7.08Z"/><path d="M235,4a2.23,2.23,0,0,1-.7-1.68A2.23,2.23,0,0,1,235,.67a2.66,2.66,0,0,1,3.53,0,2.26,2.26,0,0,1,.7,1.68A2.26,2.26,0,0,1,238.5,4a2.45,2.45,0,0,1-1.77.67A2.43,2.43,0,0,1,235,4Zm3.74,2.56V22.48h-4V6.59Z"/><path d="M11,35.47a5.92,5.92,0,0,1,2.28,2.24V34.84h2.63V50.9A7.88,7.88,0,0,1,15,54.73a6.63,6.63,0,0,1-2.63,2.62,8.07,8.07,0,0,1-4,.95,8.69,8.69,0,0,1-5.16-1.47,5.69,5.69,0,0,1-2.44-4H3.41a4.16,4.16,0,0,0,1.78,2.31A5.85,5.85,0,0,0,8.43,56a4.78,4.78,0,0,0,3.51-1.35,5.08,5.08,0,0,0,1.37-3.78V47.6A6.31,6.31,0,0,1,11,49.89a6.66,6.66,0,0,1-3.55.92A7.13,7.13,0,0,1,1,46.88a8.87,8.87,0,0,1-1-4.24,8.69,8.69,0,0,1,1-4.23,6.94,6.94,0,0,1,2.68-2.82,7.32,7.32,0,0,1,3.8-1A7.06,7.06,0,0,1,11,35.47Zm1.56,4.1a5.11,5.11,0,0,0-1.94-2A5.23,5.23,0,0,0,8,36.85a5.31,5.31,0,0,0-2.67.69,4.94,4.94,0,0,0-1.92,2,6.48,6.48,0,0,0-.71,3.1,6.64,6.64,0,0,0,.71,3.14,5,5,0,0,0,1.92,2A5.23,5.23,0,0,0,8,48.52a5.24,5.24,0,0,0,2.68-.71,5,5,0,0,0,1.94-2,6.46,6.46,0,0,0,.72-3.11A6.37,6.37,0,0,0,12.59,39.57Z"/><path d="M24.93,35.3A6,6,0,0,1,28,34.55v2.7h-.68Q23,37.25,23,42v8.54H20.36V34.84H23v2.55A5,5,0,0,1,24.93,35.3Z"/><path d="M31.05,38.41a7,7,0,0,1,2.69-2.82,7.31,7.31,0,0,1,3.79-1,7,7,0,0,1,3.59.89,5.86,5.86,0,0,1,2.26,2.24V34.84H46V50.55H43.38V47.63a6.07,6.07,0,0,1-2.3,2.28,7,7,0,0,1-3.57.9,7.12,7.12,0,0,1-3.79-1,7.21,7.21,0,0,1-2.67-2.9,9,9,0,0,1-1-4.24A8.8,8.8,0,0,1,31.05,38.41Zm11.62,1.16a5.11,5.11,0,0,0-1.94-2,5.23,5.23,0,0,0-2.68-.7,5.31,5.31,0,0,0-2.67.69,4.94,4.94,0,0,0-1.92,2,6.36,6.36,0,0,0-.71,3.1,6.53,6.53,0,0,0,.71,3.14,5,5,0,0,0,1.92,2,5.39,5.39,0,0,0,5.35,0,5,5,0,0,0,1.94-2,6.46,6.46,0,0,0,.71-3.11A6.36,6.36,0,0,0,42.67,39.57Z"/><path d="M53.62,37v9.26a2.16,2.16,0,0,0,.49,1.62,2.37,2.37,0,0,0,1.69.48h1.92v2.2H55.37a4.69,4.69,0,0,1-3.27-1A4.3,4.3,0,0,1,51,46.25V37H49V34.84h2v-4h2.61v4h4.1V37Z"/><path d="M74.81,34.84V50.55H72.2V48.23a5.12,5.12,0,0,1-2.08,1.88,6.42,6.42,0,0,1-2.94.67A7,7,0,0,1,63.89,50a5.4,5.4,0,0,1-2.31-2.28,7.42,7.42,0,0,1-.85-3.7v-9.2h2.58V43.7a5,5,0,0,0,1.18,3.57,4.19,4.19,0,0,0,3.21,1.25A4.3,4.3,0,0,0,71,47.23a5.34,5.34,0,0,0,1.2-3.76V34.84Z"/><path d="M79.31,31.77a1.78,1.78,0,0,1,1.26-3,1.61,1.61,0,0,1,1.22.52,1.84,1.84,0,0,1,0,2.52,1.61,1.61,0,0,1-1.22.52A1.71,1.71,0,0,1,79.31,31.77Zm2.53,3.07V50.55H79.23V34.84Z"/><path d="M89.46,37v9.26A2.21,2.21,0,0,0,90,47.87a2.39,2.39,0,0,0,1.69.48h1.92v2.2H91.21a4.69,4.69,0,0,1-3.27-1,4.34,4.34,0,0,1-1.09-3.3V37h-2V34.84h2v-4h2.61v4h4.1V37Z"/><path d="M99.41,46.94,96.2,54.65H94.45l2.1-7.71Z"/><path d="M111.37,31l-4,2.43V31.37l4-2.38,4,2.38v2.06Zm1.29,3.84V50.55h-2.61V34.84Z"/><path d="M129.41,36.29a6.67,6.67,0,0,1,1.77,5v9.26H128.6V41.66a5.06,5.06,0,0,0-1.17-3.59,4.19,4.19,0,0,0-3.21-1.25,4.32,4.32,0,0,0-3.29,1.29,5.27,5.27,0,0,0-1.22,3.75v8.69H117.1V34.84h2.61v2.24a5.17,5.17,0,0,1,2.11-1.87,6.54,6.54,0,0,1,2.94-.66A6.38,6.38,0,0,1,129.41,36.29Z"/><path d="M143.11,38.41a7,7,0,0,1,2.71-2.82,8.58,8.58,0,0,1,8.75.4,6.59,6.59,0,0,1,2.48,3.9h-2.81a4.08,4.08,0,0,0-1.56-2.27,4.88,4.88,0,0,0-2.89-.83,4.63,4.63,0,0,0-3.61,1.53,6.29,6.29,0,0,0-1.38,4.35,6.4,6.4,0,0,0,1.38,4.39,4.6,4.6,0,0,0,3.61,1.54,4.84,4.84,0,0,0,2.87-.8,4.05,4.05,0,0,0,1.58-2.29h2.81a6.9,6.9,0,0,1-2.52,3.85,7.56,7.56,0,0,1-4.74,1.45,7.78,7.78,0,0,1-4-1A7.07,7.07,0,0,1,143.11,47a9,9,0,0,1-1-4.3A8.87,8.87,0,0,1,143.11,38.41Z"/><path d="M160.52,38.41a7,7,0,0,1,2.68-2.82,7.35,7.35,0,0,1,3.8-1,7,7,0,0,1,3.58.89,5.89,5.89,0,0,1,2.27,2.24V34.84h2.64V50.55h-2.64V47.63a6.17,6.17,0,0,1-2.31,2.28,6.91,6.91,0,0,1-3.57.9,7.06,7.06,0,0,1-3.78-1,7.21,7.21,0,0,1-2.67-2.9,9,9,0,0,1-1-4.24A8.81,8.81,0,0,1,160.52,38.41Zm11.61,1.16a5.08,5.08,0,0,0-1.93-2,5.5,5.5,0,0,0-5.35,0,4.82,4.82,0,0,0-1.92,2,6.37,6.37,0,0,0-.72,3.1,6.53,6.53,0,0,0,.72,3.14,4.9,4.9,0,0,0,1.92,2,5.17,5.17,0,0,0,2.66.71,5.3,5.3,0,0,0,2.69-.71,5,5,0,0,0,1.93-2,6.46,6.46,0,0,0,.72-3.11A6.37,6.37,0,0,0,172.13,39.57ZM168,31l-4,2.43V31.37L168,29l4,2.38v2.06Z"/><path d="M183.08,37v9.26a2.21,2.21,0,0,0,.49,1.62,2.39,2.39,0,0,0,1.69.48h1.93v2.2h-2.36a4.64,4.64,0,0,1-3.26-1,4.3,4.3,0,0,1-1.09-3.3V37h-2V34.84h2v-4h2.6v4h4.11V37Z"/><path d="M204.59,43.67H192a4.93,4.93,0,0,0,5.11,4.93,4.81,4.81,0,0,0,2.82-.79,4.12,4.12,0,0,0,1.59-2.1h2.81a6.72,6.72,0,0,1-2.52,3.68,7.59,7.59,0,0,1-4.7,1.42,7.89,7.89,0,0,1-4-1A7.07,7.07,0,0,1,190.37,47a8.81,8.81,0,0,1-1-4.28,8.94,8.94,0,0,1,1-4.27,6.8,6.8,0,0,1,2.74-2.83,8.14,8.14,0,0,1,4.06-1,7.85,7.85,0,0,1,4,1,6.79,6.79,0,0,1,2.66,2.68,7.92,7.92,0,0,1,.93,3.85A14.63,14.63,0,0,1,204.59,43.67ZM201.32,39a4.27,4.27,0,0,0-1.79-1.63,5.64,5.64,0,0,0-2.51-.56,4.85,4.85,0,0,0-3.37,1.26,5.11,5.11,0,0,0-1.59,3.5H202A4.84,4.84,0,0,0,201.32,39Z"/><path d="M214,48.14l4.87-13.3h2.78l-6.16,15.71h-3l-6.17-15.71h2.81Z"/><path d="M224.2,38.41a7.08,7.08,0,0,1,2.68-2.82,7.37,7.37,0,0,1,3.8-1,7,7,0,0,1,3.59.89,5.86,5.86,0,0,1,2.26,2.24V34.84h2.64V50.55h-2.64V47.63a6.07,6.07,0,0,1-2.3,2.28,7,7,0,0,1-3.57.9,7.12,7.12,0,0,1-3.79-1,7.21,7.21,0,0,1-2.67-2.9,9,9,0,0,1-1-4.24A8.8,8.8,0,0,1,224.2,38.41Zm11.62,1.16a5.11,5.11,0,0,0-1.94-2,5.23,5.23,0,0,0-2.68-.7,5.31,5.31,0,0,0-2.67.69,4.94,4.94,0,0,0-1.92,2,6.36,6.36,0,0,0-.71,3.1,6.53,6.53,0,0,0,.71,3.14,5,5,0,0,0,1.92,2,5.39,5.39,0,0,0,5.35,0,5,5,0,0,0,1.94-2,6.58,6.58,0,0,0,.71-3.11A6.48,6.48,0,0,0,235.82,39.57Z"/><path d="M59.58,77.53a5.42,5.42,0,0,1-2.26-1.72,4.57,4.57,0,0,1-.92-2.54h2.7a2.59,2.59,0,0,0,1.1,1.92,4.2,4.2,0,0,0,2.6.75,3.79,3.79,0,0,0,2.35-.66A2,2,0,0,0,66,73.62a1.66,1.66,0,0,0-.92-1.54,13.38,13.38,0,0,0-2.84-1,19.49,19.49,0,0,1-2.85-.93,4.92,4.92,0,0,1-1.89-1.4,3.67,3.67,0,0,1-.79-2.46,3.75,3.75,0,0,1,.71-2.2,5,5,0,0,1,2-1.6,7.35,7.35,0,0,1,3-.58,6.44,6.44,0,0,1,4.22,1.32,4.76,4.76,0,0,1,1.72,3.61H65.81a2.73,2.73,0,0,0-1-2,3.66,3.66,0,0,0-2.42-.74,3.74,3.74,0,0,0-2.24.6,1.83,1.83,0,0,0-.83,1.57,1.7,1.7,0,0,0,.5,1.28,3.49,3.49,0,0,0,1.26.8c.51.2,1.21.43,2.11.68A21.16,21.16,0,0,1,66,70a4.88,4.88,0,0,1,1.82,1.33,3.58,3.58,0,0,1,.79,2.33,4,4,0,0,1-.72,2.32,4.76,4.76,0,0,1-2,1.62,7.27,7.27,0,0,1-3,.59A8.17,8.17,0,0,1,59.58,77.53Z"/><path d="M86.48,71H73.92A4.95,4.95,0,0,0,79,75.94a4.81,4.81,0,0,0,2.82-.79A4.19,4.19,0,0,0,83.44,73h2.81a6.78,6.78,0,0,1-2.52,3.69A7.65,7.65,0,0,1,79,78.15a7.9,7.9,0,0,1-4-1,7.11,7.11,0,0,1-2.77-2.85,8.83,8.83,0,0,1-1-4.29,9,9,0,0,1,1-4.27A6.83,6.83,0,0,1,75,62.91a8.14,8.14,0,0,1,4.06-1,7.84,7.84,0,0,1,4,1,6.85,6.85,0,0,1,2.66,2.68,8,8,0,0,1,.93,3.86A14.78,14.78,0,0,1,86.48,71Zm-3.27-4.69a4.36,4.36,0,0,0-1.79-1.64,5.63,5.63,0,0,0-2.51-.55,4.85,4.85,0,0,0-3.37,1.26A5.09,5.09,0,0,0,74,68.88h9.92A4.81,4.81,0,0,0,83.21,66.32Z"/><path d="M90,65.75a7,7,0,0,1,2.71-2.83,8.62,8.62,0,0,1,8.74.4,6.65,6.65,0,0,1,2.48,3.9h-2.81A4,4,0,0,0,99.57,65a4.76,4.76,0,0,0-2.88-.83,4.61,4.61,0,0,0-3.61,1.53A6.26,6.26,0,0,0,91.7,70a6.37,6.37,0,0,0,1.38,4.39,4.6,4.6,0,0,0,3.61,1.55,4.93,4.93,0,0,0,2.87-.8,4.06,4.06,0,0,0,1.57-2.3h2.81a6.92,6.92,0,0,1-2.52,3.86,7.59,7.59,0,0,1-4.73,1.45,7.76,7.76,0,0,1-4-1A6.94,6.94,0,0,1,90,74.3,9,9,0,0,1,89,70,8.86,8.86,0,0,1,90,65.75Z"/><path d="M121.35,62.18V77.89h-2.61V75.57a5,5,0,0,1-2.08,1.87,6.42,6.42,0,0,1-2.94.68,7.16,7.16,0,0,1-3.3-.76,5.55,5.55,0,0,1-2.3-2.28,7.44,7.44,0,0,1-.85-3.7v-9.2h2.58V71A5,5,0,0,0,111,74.61a4.19,4.19,0,0,0,3.21,1.24,4.32,4.32,0,0,0,3.3-1.29,5.31,5.31,0,0,0,1.2-3.75V62.18Z"/><path d="M138.07,63.62a6.71,6.71,0,0,1,1.77,5v9.26h-2.58V69a5.06,5.06,0,0,0-1.17-3.6,4.22,4.22,0,0,0-3.21-1.25,4.32,4.32,0,0,0-3.29,1.29,5.3,5.3,0,0,0-1.22,3.76v8.69h-2.61V62.18h2.61v2.23a5.22,5.22,0,0,1,2.11-1.86,6.54,6.54,0,0,1,2.94-.66A6.41,6.41,0,0,1,138.07,63.62Z"/><path d="M144.12,65.75a7,7,0,0,1,2.68-2.83,7.37,7.37,0,0,1,3.83-1,7.14,7.14,0,0,1,3.41.84A6.2,6.2,0,0,1,156.45,65V56.67h2.63V77.89h-2.63v-3a6.11,6.11,0,0,1-2.3,2.3,6.75,6.75,0,0,1-3.55.91,7.18,7.18,0,0,1-6.48-3.93,9,9,0,0,1-1-4.25A8.79,8.79,0,0,1,144.12,65.75Zm11.61,1.16a5.07,5.07,0,0,0-1.94-2,5.33,5.33,0,0,0-2.68-.7,5.25,5.25,0,0,0-2.66.69,5,5,0,0,0-1.93,2,6.47,6.47,0,0,0-.71,3.09,6.59,6.59,0,0,0,.71,3.14,5.07,5.07,0,0,0,1.93,2,5.16,5.16,0,0,0,2.66.7,5.23,5.23,0,0,0,2.68-.7,5,5,0,0,0,1.94-2,7,7,0,0,0,0-6.2Z"/><path d="M177.75,71H165.19a4.95,4.95,0,0,0,5.11,4.93,4.81,4.81,0,0,0,2.82-.79A4.13,4.13,0,0,0,174.71,73h2.81A6.78,6.78,0,0,1,175,76.73a7.65,7.65,0,0,1-4.7,1.42,7.9,7.9,0,0,1-4-1,7.11,7.11,0,0,1-2.77-2.85,8.83,8.83,0,0,1-1-4.29,9,9,0,0,1,1-4.27,6.83,6.83,0,0,1,2.74-2.82,8.14,8.14,0,0,1,4.06-1,7.84,7.84,0,0,1,3.95,1,6.85,6.85,0,0,1,2.66,2.68,8,8,0,0,1,.93,3.86A14.78,14.78,0,0,1,177.75,71Zm-3.27-4.69a4.3,4.3,0,0,0-1.79-1.64,5.63,5.63,0,0,0-2.51-.55,4.85,4.85,0,0,0-3.37,1.26,5.09,5.09,0,0,0-1.59,3.49h9.92A4.81,4.81,0,0,0,174.48,66.32Z"/><path d="M180.85,77.54a1.68,1.68,0,0,1-.52-1.26,1.78,1.78,0,0,1,1.78-1.78,1.66,1.66,0,0,1,1.22.52,1.78,1.78,0,0,1,.5,1.26,1.74,1.74,0,0,1-.5,1.26,1.63,1.63,0,0,1-1.22.52A1.68,1.68,0,0,1,180.85,77.54Z"/></g></g></svg>