<svg xmlns="http://www.w3.org/2000/svg" xmlns:xlink="http://www.w3.org/1999/xlink" viewBox="0 0 102.86 130.18"><defs><style>.cls-1{isolation:isolate;}.cls-2{fill:#eb456a;}.cls-3{fill:#ffefeb;}.cls-4{fill:#ff7c9a;}.cls-5{fill:url(#Degradado_sin_nombre_15);}.cls-6{fill:#752796;opacity:0.2;mix-blend-mode:multiply;}</style><linearGradient id="Degradado_sin_nombre_15" x1="-234.52" y1="423.57" x2="-293.08" y2="445.32" gradientTransform="matrix(0.77, 0, 0, 1, 289.89, -399.22)" gradientUnits="userSpaceOnUse"><stop offset="0" stop-color="#fff"/><stop offset="0.22" stop-color="#fff" stop-opacity="0.76"/><stop offset="0.6" stop-color="#fff" stop-opacity="0.36"/><stop offset="0.87" stop-color="#fff" stop-opacity="0.1"/><stop offset="1" stop-color="#fff" stop-opacity="0"/></linearGradient></defs><g class="cls-1"><g id="Layer_2" data-name="Layer 2"><g id="Layer_1-2" data-name="Layer 1"><path class="cls-2" d="M101.74,88.25A51.3,51.3,0,1,1,.88,69.43C6.08,41.56,38.1-4.8,66,.4S106.94,60.38,101.74,88.25Z"/><path class="cls-3" d="M88.13,18.24a16.66,16.66,0,0,1-12-7A11.37,11.37,0,0,0,65.68,6.55,17.1,17.1,0,0,1,52,1.71,30.58,30.58,0,0,1,58.64.17a11.61,11.61,0,0,0,6.5,1.27,17.46,17.46,0,0,1,5.56.38A31.37,31.37,0,0,1,81.13,9.13a11.3,11.3,0,0,0,1,1.07A54.61,54.61,0,0,1,88.13,18.24Z"/><path class="cls-4" d="M92.24,25.88a14.76,14.76,0,0,0-4.93-.37,16.12,16.12,0,0,1-14.76-6.68,14.16,14.16,0,0,0-13-5.88A16.12,16.12,0,0,1,44.8,6.27q-.3-.43-.63-.84c.54-.33,1.08-.64,1.63-.93.2.25.4.51.58.78a14.17,14.17,0,0,0,13,5.88,16.14,16.14,0,0,1,14.76,6.68,14.16,14.16,0,0,0,13,5.88,16.72,16.72,0,0,1,4.13.13C91.58,24.52,91.92,25.2,92.24,25.88Z"/><path class="cls-3" d="M101.41,56.93a16.25,16.25,0,0,1-4.9-4.59l0,0a11.35,11.35,0,0,0-10.4-4.7,16.89,16.89,0,0,1-15.47-7,11.36,11.36,0,0,0-10.41-4.71,16.88,16.88,0,0,1-15.47-7,11.37,11.37,0,0,0-10.41-4.71A17.29,17.29,0,0,1,25,22.46q1.77-2.1,3.61-4.07a11.57,11.57,0,0,0,5.22.7,16.88,16.88,0,0,1,15.46,7A11.36,11.36,0,0,0,59.68,30.8a16.9,16.9,0,0,1,15.47,7,11.37,11.37,0,0,0,10.42,4.71A17,17,0,0,1,99.65,47.8C100.35,50.84,100.94,53.89,101.41,56.93Z"/><path class="cls-4" d="M102.53,66.56a15.66,15.66,0,0,1-7.7-5.81,14.17,14.17,0,0,0-12.94-5.89h0a16.09,16.09,0,0,1-14.75-6.69,14.2,14.2,0,0,0-13-5.87,16.13,16.13,0,0,1-14.76-6.68,14.14,14.14,0,0,0-13-5.88,16.84,16.84,0,0,1-6.54-.7L21,27.51a14.39,14.39,0,0,0,5.21.45,16.13,16.13,0,0,1,14.76,6.68,14.18,14.18,0,0,0,13,5.88A16.13,16.13,0,0,1,68.67,47.2a14.19,14.19,0,0,0,12.94,5.89h0a16.13,16.13,0,0,1,14.76,6.68,13.72,13.72,0,0,0,5.94,4.8C102.42,65.23,102.48,65.89,102.53,66.56Z"/><path class="cls-3" d="M101.74,88.25c0,.08,0,.15,0,.23A16.64,16.64,0,0,1,91,81.7,11.36,11.36,0,0,0,80.63,77a16.87,16.87,0,0,1-15.47-7,11.38,11.38,0,0,0-10.42-4.71,16.88,16.88,0,0,1-15.47-7,11.36,11.36,0,0,0-10.41-4.71,16.87,16.87,0,0,1-15.43-6.94l0-.06a10.8,10.8,0,0,0-2.82-2.78q1.23-2.28,2.57-4.55a16.17,16.17,0,0,1,4.73,4.45l0,.07a11.41,11.41,0,0,0,10.42,4.71,16.89,16.89,0,0,1,15.47,7,11.36,11.36,0,0,0,10.41,4.72,16.87,16.87,0,0,1,15.47,7A11.38,11.38,0,0,0,80.1,71.88a16.89,16.89,0,0,1,15.47,7,11.16,11.16,0,0,0,6.86,4.51C102.26,85.08,102,86.71,101.74,88.25Z"/><path class="cls-4" d="M100.05,94.85c-.18.57-.39,1.15-.59,1.71a15.85,15.85,0,0,1-10.1-6.45,14.13,14.13,0,0,0-13-5.88,16.12,16.12,0,0,1-14.73-6.64l0,0a14.18,14.18,0,0,0-13-5.87A16.12,16.12,0,0,1,33.87,65a14.16,14.16,0,0,0-13-5.88A16.13,16.13,0,0,1,6.27,52.64h0c.28-.65.57-1.31.87-2,.19.25.38.5.56.76l0,0a14.17,14.17,0,0,0,13,5.86A16.12,16.12,0,0,1,35.45,64a14.16,14.16,0,0,0,13,5.88,16.13,16.13,0,0,1,14.74,6.64l0,0a14.18,14.18,0,0,0,13,5.88A16.12,16.12,0,0,1,91,89.12,13.93,13.93,0,0,0,100.05,94.85Z"/><path class="cls-3" d="M91.9,110.24a52.26,52.26,0,0,1-3.42,4,16.26,16.26,0,0,1-2.84-3.07l-.06-.09a11.39,11.39,0,0,0-10.42-4.72,16.88,16.88,0,0,1-15.47-7,11.35,11.35,0,0,0-10.41-4.71,16.88,16.88,0,0,1-15.47-7,11.41,11.41,0,0,0-10.42-4.71A16.9,16.9,0,0,1,8,76l0-.06a11.16,11.16,0,0,0-7.35-4.6c.09-.63.2-1.26.31-1.88.19-1,.42-2.08.69-3.16A16.61,16.61,0,0,1,12.4,73l0,.06a11.36,11.36,0,0,0,10.41,4.72,16.87,16.87,0,0,1,15.47,7,11.38,11.38,0,0,0,10.41,4.72,16.88,16.88,0,0,1,15.48,7,11.37,11.37,0,0,0,10.41,4.71A16.93,16.93,0,0,1,90,108.14l.06.1A10.72,10.72,0,0,0,91.9,110.24Z"/><path class="cls-4" d="M84.87,117.66c-.47.4-.94.8-1.43,1.19a14.22,14.22,0,0,0-12.53-5.26,16.12,16.12,0,0,1-14.76-6.68v0a14.2,14.2,0,0,0-13-5.87A16.1,16.1,0,0,1,28.4,94.35a14.15,14.15,0,0,0-13-5.88A16.12,16.12,0,0,1,.65,81.79,9.53,9.53,0,0,0,0,81c0-.91,0-1.82,0-2.73A15.57,15.57,0,0,1,2.24,80.8a14.16,14.16,0,0,0,13,5.88A16.13,16.13,0,0,1,30,93.36a14.17,14.17,0,0,0,13,5.88,16.13,16.13,0,0,1,14.76,6.68v0a14.17,14.17,0,0,0,13,5.86A16.16,16.16,0,0,1,84.87,117.66Z"/><path class="cls-3" d="M62.13,129a49,49,0,0,1-6.87,1h0a16.82,16.82,0,0,1-1-1.33A11.36,11.36,0,0,0,43.81,124a16.9,16.9,0,0,1-15.47-7A11.35,11.35,0,0,0,18,112.27h0a17.38,17.38,0,0,1-6-.47A51.37,51.37,0,0,1,4.35,99.52,16,16,0,0,1,7,102.45v0a11.38,11.38,0,0,0,10.38,4.7h0a16.88,16.88,0,0,1,15.47,7,11.36,11.36,0,0,0,10.41,4.72,16.87,16.87,0,0,1,15.47,7A11,11,0,0,0,62.13,129Z"/><path class="cls-4" d="M16.91,116.94a15.63,15.63,0,0,1,7.51,5.64A51.51,51.51,0,0,1,16.91,116.94Z"/><path class="cls-4" d="M45.56,129.85c-1.22-.13-2.44-.32-3.67-.55s-2.3-.47-3.42-.76A16.61,16.61,0,0,1,45.56,129.85Z"/><ellipse class="cls-5" cx="75.03" cy="40.21" rx="19.01" ry="35.69" transform="translate(-9.1 27.24) rotate(-19.43)"/><path class="cls-6" d="M96.29,93.52a47.36,47.36,0,0,1-53.67,31.86A47.33,47.33,0,0,1,4.81,70.16,84.89,84.89,0,0,1,12.89,48a122,122,0,0,1,15-22.74l.12-.14c6.1-7.25,12.59-13,18.78-16.56l.89-.5c-8.38,14.12-11.27,40.43-7.26,57.74C46.3,91.25,79.06,106,96.29,93.52Z"/><path class="cls-6" d="M89.87,106.29a47.3,47.3,0,0,1-77.58-.68A47,47,0,0,1,4.81,70.16,84.89,84.89,0,0,1,12.89,48a122,122,0,0,1,15-22.74C17.3,50.75,15.25,86.54,33.07,103.1,46.62,115.7,72.72,115.82,89.87,106.29Z"/></g></g></g></svg>