<svg xmlns="http://www.w3.org/2000/svg" viewBox="0 0 65.62 29.42"><defs><style>.cls-1{isolation:isolate;}.cls-2{opacity:0.6;mix-blend-mode:multiply;}.cls-26,.cls-3{fill:#fff;}.cls-3{opacity:0;}.cls-4{fill:#f5f5f5;opacity:0.05;}.cls-5{fill:#ebebeb;opacity:0.1;}.cls-6{fill:#e2e2e2;opacity:0.14;}.cls-7{fill:#d8d8d8;opacity:0.19;}.cls-8{fill:#cecece;opacity:0.24;}.cls-9{fill:#c4c4c4;opacity:0.29;}.cls-10{fill:#bababa;opacity:0.33;}.cls-11{fill:#b1b1b1;opacity:0.38;}.cls-12{fill:#a7a7a7;opacity:0.43;}.cls-13{fill:#9d9d9d;opacity:0.48;}.cls-14{fill:#939393;opacity:0.52;}.cls-15{fill:#898989;opacity:0.57;}.cls-16{fill:#7f7f7f;opacity:0.62;}.cls-17{fill:#767676;opacity:0.67;}.cls-18{fill:#6c6c6c;opacity:0.71;}.cls-19{fill:#626262;opacity:0.76;}.cls-20{fill:#585858;opacity:0.81;}.cls-21{fill:#4e4e4e;opacity:0.86;}.cls-22{fill:#454545;opacity:0.9;}.cls-23{fill:#3b3b3b;opacity:0.95;}.cls-24{fill:#313131;}.cls-25{fill:#476157;}.cls-27{fill:#f5f4f0;}</style></defs><g class="cls-1"><g id="Layer_2" data-name="Layer 2"><g id="Layer_1-2" data-name="Layer 1"><g class="cls-2"><polygon class="cls-3" points="0 0 10.92 14.71 0 29.42 65.62 29.42 65.62 0 0 0"/><polygon class="cls-4" points="0.2 0.05 11.07 14.71 0.2 29.37 65.62 29.37 65.62 0.05 0.2 0.05"/><polygon class="cls-5" points="0.39 0.1 11.22 14.71 0.39 29.32 65.62 29.32 65.62 0.1 0.39 0.1"/><polygon class="cls-6" points="0.58 0.15 11.38 14.71 0.58 29.27 65.62 29.27 65.62 0.15 0.58 0.15"/><polygon class="cls-7" points="0.78 0.2 11.53 14.71 0.78 29.21 65.62 29.21 65.62 0.2 0.78 0.2"/><polygon class="cls-8" points="0.97 0.25 11.68 14.71 0.97 29.16 65.62 29.16 65.62 0.25 0.97 0.25"/><polygon class="cls-9" points="1.17 0.3 11.83 14.71 1.17 29.11 65.62 29.11 65.62 0.3 1.17 0.3"/><polygon class="cls-10" points="1.36 0.35 11.99 14.71 1.36 29.06 65.62 29.06 65.62 0.35 1.36 0.35"/><polygon class="cls-11" points="1.56 0.4 12.14 14.71 1.56 29.01 65.62 29.01 65.62 0.4 1.56 0.4"/><polygon class="cls-12" points="1.75 0.45 12.29 14.71 1.75 28.96 65.62 28.96 65.62 0.45 1.75 0.45"/><polygon class="cls-13" points="1.95 0.5 12.45 14.71 1.95 28.91 65.62 28.91 65.62 0.5 1.95 0.5"/><polygon class="cls-14" points="2.14 0.56 12.6 14.71 2.14 28.86 65.62 28.86 65.62 0.56 2.14 0.56"/><polygon class="cls-15" points="2.34 0.6 12.75 14.71 2.34 28.81 65.62 28.81 65.62 0.6 2.34 0.6"/><polygon class="cls-16" points="2.53 0.66 12.9 14.71 2.53 28.76 65.62 28.76 65.62 0.66 2.53 0.66"/><polygon class="cls-17" points="2.73 0.71 13.06 14.71 2.73 28.71 65.62 28.71 65.62 0.71 2.73 0.71"/><polygon class="cls-18" points="2.92 0.76 13.21 14.71 2.92 28.66 65.62 28.66 65.62 0.76 2.92 0.76"/><polygon class="cls-19" points="3.12 0.81 13.36 14.71 3.12 28.61 65.62 28.61 65.62 0.81 3.12 0.81"/><polygon class="cls-20" points="3.31 0.86 13.52 14.71 3.31 28.56 65.62 28.56 65.62 0.86 3.31 0.86"/><polygon class="cls-21" points="3.51 0.91 13.67 14.71 3.51 28.51 65.62 28.51 65.62 0.91 3.51 0.91"/><polygon class="cls-22" points="3.7 0.96 13.82 14.71 3.7 28.46 65.62 28.46 65.62 0.96 3.7 0.96"/><polygon class="cls-23" points="3.9 1.01 13.97 14.71 3.9 28.41 65.62 28.41 65.62 1.01 3.9 1.01"/><polygon class="cls-24" points="4.09 1.06 14.13 14.71 4.09 28.36 65.62 28.36 65.62 1.06 4.09 1.06"/></g><polygon class="cls-25" points="4.09 1.06 14.13 14.71 4.09 28.36 65.62 28.36 65.62 1.06 4.09 1.06"/><rect class="cls-26" x="64.4" y="2.62" width="1.22" height="0.38"/><path class="cls-26" d="M13.64,2.62V3H11.26V2.62Zm4.75,0V3H16V2.62Zm4.76,0V3H20.77V2.62Zm4.76,0V3H25.53V2.62Zm4.75,0V3H30.29V2.62Zm4.76,0V3H35.05V2.62Zm4.76,0V3H39.79V2.62Zm4.75,0V3H44.55V2.62Z"/><path class="cls-26" d="M27.84,2.44v.38H25.46V2.44Zm4.75,0v.38H30.21V2.44Zm4.75,0v.38H35V2.44Zm4.76,0v.38H39.73V2.44Zm4.76,0v.38H44.48V2.44Zm4.76,0v.38H49.24V2.44Zm4.75,0v.38H54V2.44Zm4.76,0v.38H58.75V2.44Z"/><path class="cls-26" d="M27.84,26.52v.38H25.46v-.38Zm4.75,0v.38H30.21v-.38Zm4.75,0v.38H35v-.38Zm4.76,0v.38H39.73v-.38Zm4.76,0v.38H44.48v-.38Zm4.76,0v.38H49.24v-.38Zm4.75,0v.38H54v-.38Zm4.76,0v.38H58.75v-.38Z"/><polygon class="cls-26" points="7.23 2.62 8.09 3.73 8.51 3.53 8.09 3 8.88 3 8.88 2.62 7.23 2.62"/><path class="cls-26" d="M9.65,5l1.14,1.47-.42.2L9.23,5.2Zm2.29,2.94,1.13,1.47-.42.2L11.52,8.14Zm2.27,2.94,1.15,1.47-.42.2L13.8,11.08Z"/><polygon class="cls-26" points="16.08 14.03 16.64 14.74 16.08 15.45 16.5 15.65 17.21 14.74 16.5 13.83 16.08 14.03"/><path class="cls-26" d="M10.37,22.81l.42.2L9.65,24.48l-.42-.2Zm2.28-2.94.42.2-1.13,1.47-.42-.2Zm2.29-2.94.42.19L14.21,18.6l-.41-.2Z"/><polygon class="cls-26" points="7.23 26.86 8.88 26.86 8.88 26.48 8.09 26.48 8.51 25.95 8.09 25.76 7.23 26.86"/><path class="cls-26" d="M13.63,26.48v.38H11.26v-.38Zm4.76,0v.38H16v-.38Zm4.76,0v.38H20.77v-.38Zm4.76,0v.38H25.52v-.38Zm4.75,0v.38H30.28v-.38Zm4.76,0v.38H35v-.38Zm4.76,0v.38H39.79v-.38Zm4.75,0v.38H44.55v-.38Z"/><rect class="cls-26" x="64.4" y="26.48" width="1.22" height="0.38"/><path class="cls-27" d="M30.55,8h4V9H31.75v1.39h2.59v1H31.75v2.27h-1.2Z"/><path class="cls-27" d="M36.63,11.4v2.27h-1.2V8h2.5c1.24,0,1.9.68,1.9,1.56A1.37,1.37,0,0,1,39,10.9c.28.1.7.39.7,1.41v.28a4.4,4.4,0,0,0,.08,1.08H38.63a3.92,3.92,0,0,1-.12-1.27v-.09c0-.62-.16-.91-1.07-.91Zm0-1h1c.67,0,.93-.25.93-.73s-.3-.72-.9-.72H36.63Z"/><path class="cls-27" d="M44.83,11.22H42.12v1.45h3l-.15,1h-4V8h4V9H42.12v1.22h2.71Z"/><path class="cls-27" d="M49.9,11.22H47.19v1.45h3l-.14,1H46V8h4V9H47.19v1.22H49.9Z"/><path class="cls-27" d="M21.94,19.63c.13.57.54.82,1.2.82s.94-.25.94-.67-.28-.66-1.25-.89c-1.54-.36-1.93-.92-1.93-1.69,0-1,.74-1.66,2.09-1.66,1.51,0,2.11.81,2.19,1.64H23.94c-.06-.35-.25-.73-1-.73-.5,0-.8.2-.8.61s.24.55,1.16.77c1.65.39,2,1,2,1.8,0,1-.78,1.75-2.29,1.75s-2.2-.71-2.33-1.75Z"/><path class="cls-27" d="M26.24,15.62h1.23v2.21h2.28V15.62H31V21.3H29.75V18.84H27.47V21.3H26.24Z"/><path class="cls-27" d="M33.57,15.62V21.3H32.34V15.62Z"/><path class="cls-27" d="M34.93,15.62h2.35a1.79,1.79,0,0,1,2,1.76c0,1.23-.94,1.8-2.06,1.8H36.16V21.3H34.93Zm1.23,2.58h.94c.57,0,1-.22,1-.8s-.43-.8-1-.8h-1Z"/><path class="cls-27" d="M40.23,15.62h2.35a1.79,1.79,0,0,1,2,1.76c0,1.23-.94,1.8-2.06,1.8H41.46V21.3H40.23Zm1.23,2.58h.94c.56,0,1-.22,1-.8s-.43-.8-.95-.8h-1Z"/><path class="cls-27" d="M46.76,15.62V21.3H45.53V15.62Z"/><path class="cls-27" d="M48.12,21.3V15.62h1.52c.71,1.27,2,3.57,2.28,4.19h0c-.07-.59-.07-1.58-.07-2.51V15.62H53V21.3H51.54c-.61-1.11-2.06-3.75-2.34-4.41h0c0,.5.06,1.66.06,2.68V21.3Z"/><path class="cls-27" d="M59.28,21.3h-.9a2.62,2.62,0,0,1-.09-.56,2,2,0,0,1-1.66.65,2.57,2.57,0,0,1-2.57-2.86,2.71,2.71,0,0,1,2.78-3,2.25,2.25,0,0,1,2.46,1.79H58.07a1.15,1.15,0,0,0-1.25-.83c-1.16,0-1.49,1-1.49,2s.38,1.94,1.5,1.94a1.13,1.13,0,0,0,1.25-1.24v-.05H56.83v-1h2.45Z"/></g></g></g></svg>