<svg xmlns="http://www.w3.org/2000/svg" viewBox="0 0 147.35 17.23"><defs><style>.cls-1{fill:#fff;}</style></defs><g id="Layer_2" data-name="Layer 2"><g id="Layer_1-2" data-name="Layer 1"><path class="cls-1" d="M0,12.81,2.45.2H5.74C9.82.2,13,2,12.08,6.54s-4.67,6.27-8.79,6.27Zm3.41-.63c3.36,0,5.28-2.61,5.86-5.64S8.92.83,5.61.83H4.85a2,2,0,0,0-.27.73L2.67,11.44a1.1,1.1,0,0,0,0,.74Z"/><path class="cls-1" d="M18.27,12.81l.32-1.64A5.24,5.24,0,0,1,15.22,13c-1.67,0-2.21-1.19-1.9-2.75l.94-4.82c.1-.53-.46-.51-.85-.55l.05-.26,3.43-.36-1.14,5.84c-.16.82,0,1.46.92,1.46a3.23,3.23,0,0,0,2-.91l.94-4.79c.18-.92-.16-.89-.94-1l.05-.25,3.59-.35-1.65,8.51Z"/><path class="cls-1" d="M23.29,12.81,24.7,5.59c.17-.94-.15-.9-.95-1l.06-.25L27.4,4,27,6A5.49,5.49,0,0,1,30.52,4a1.64,1.64,0,0,1,1,.28L30.42,7.07c-.39-1-1-1.46-1.67-1.46a2.9,2.9,0,0,0-1.83.89l-1.23,6.31Z"/><path class="cls-1" d="M31.83,6.18A5.33,5.33,0,0,1,36.24,4.1c1.81,0,3.32.71,3,2.61L38,12.81H35.63l.2-1a5.77,5.77,0,0,1-3,1.18c-1.36,0-2.43-.72-2.11-2.38.48-2.46,4.3-3.08,6-3.2l.13-.61c.21-1.08.41-2.06-.61-2.14S34,5.49,33.54,7.16Zm4.78,1.56c-1,.09-3.18.5-3.5,2.63-.14.93.36,1.53,1.1,1.53a3.44,3.44,0,0,0,1.71-.55Z"/><path class="cls-1" d="M42.42,1.31c.07-.4-.34-.6-.64-.71l0-.24L45.06,0,44,5.52A4.06,4.06,0,0,1,46.86,4.1c2.27,0,3.07,2,2.66,4A6,6,0,0,1,43.64,13c-1.15,0-2.32-.09-3.46-.17Zm4.45,7.3c.25-1.29.36-3.46-1.33-3.46a2.24,2.24,0,0,0-1.63.78l-1,5.44c-.16.76,0,1.22.85,1.22C45.6,12.59,46.59,10.05,46.87,8.61Z"/><path class="cls-1" d="M52.89,12.81h-2.4L52.64,1.74a2.2,2.2,0,0,0,.07-.55.49.49,0,0,0-.12-.36,1.93,1.93,0,0,0-.87-.21l.05-.25L55.38,0Z"/><path class="cls-1" d="M58.68,10.55a2.77,2.77,0,0,0,2,.87,3.18,3.18,0,0,0,2.77-1.74l.12.11c-.85,1.84-2.24,3.14-4.33,3.14a3.59,3.59,0,0,1-3.79-3.2,5,5,0,0,1,4.48-5.59l.37,0c2.51,0,3.32,1.56,3.24,3.54Zm2.4-3c.51-1.4-.06-2.84-1.19-2.84H59.8c-1.14.07-2.38.87-2.19,3.54a3.83,3.83,0,0,0,.8,2.06A5.6,5.6,0,0,0,61.08,7.51Z"/><path class="cls-1" d="M77.4,11.26A11.74,11.74,0,0,1,71.55,13C68.92,13,67,11.7,67.7,9.41c.6-1.93,3-3.28,4.79-4.12A3.59,3.59,0,0,1,72,2.17,3.33,3.33,0,0,1,75.78,0C77,.2,78.16.8,77.7,2.29a3.29,3.29,0,0,1-2.61,2.1l4,4.85a4.33,4.33,0,0,0,1-1.66c.13-.39.24-1.08-.28-1.15a.73.73,0,0,0-.76.5l-.8-1.48A1.91,1.91,0,0,1,80,4.25h.18c1.06.13,1.27,1.58,1,2.6a7.53,7.53,0,0,1-1.69,2.77L82,12.81H78.66ZM72.79,5.65a5.09,5.09,0,0,0-2.68,2.72c-.49,1.58.87,2.68,2.79,2.89.25,0,.5,0,.75,0a9,9,0,0,0,3.27-.64Zm2-1.6a3.44,3.44,0,0,0,1.26-1.69c.32-1,.15-1.79-.9-1.92a1.36,1.36,0,0,0-1.46,1C73.35,2.61,74.23,3.36,74.8,4.05Z"/><path class="cls-1" d="M89.71,11.44a1.09,1.09,0,0,0,0,.74H92c2.06,0,2.4-.46,3.87-2.18l-.55,2.81H87.05L89.5.2h8.31L97.3,2.82C96.61,1.37,96,.8,94,.82H92a1.29,1.29,0,0,0-.32.75l-.87,4.48h1.42a3.16,3.16,0,0,0,2.06-.91h.16L93.85,8h-.09s-.83-1.4-1.68-1.4H90.66Z"/><path class="cls-1" d="M99.92,12.81H97.53L99.67,1.74a2.31,2.31,0,0,0,.08-.55.52.52,0,0,0-.13-.36,1.93,1.93,0,0,0-.87-.21l0-.25L102.41,0Z"/><path class="cls-1" d="M105.71,10.55a2.79,2.79,0,0,0,2,.87,3.18,3.18,0,0,0,2.77-1.74l.12.11c-.85,1.84-2.23,3.14-4.33,3.14a3.57,3.57,0,0,1-3.78-3.2A5,5,0,0,1,107,4.14l.37,0c2.51,0,3.33,1.56,3.24,3.54Zm2.4-3c.51-1.4-.06-2.84-1.19-2.84h-.09c-1.14.07-2.38.87-2.19,3.54a3.83,3.83,0,0,0,.8,2.06A5.6,5.6,0,0,0,108.11,7.51Z"/><path class="cls-1" d="M120,4.16c.11-.54-.53-.77-1-.77a1.89,1.89,0,0,0-1.45.77,2.55,2.55,0,0,1,2,3.21,4.6,4.6,0,0,1-4.69,3.41,4,4,0,0,1-2-.44,1,1,0,0,0-.34.49.43.43,0,0,0,.21.43c1.57,1.12,6.34-.3,5.72,2.86-.39,2-2.81,3.11-5,3.11s-3.91-.94-3.55-3.13l2,0c-.34,1.72.53,2.56,1.61,2.56,1.37,0,2.49-.59,2.67-1.58.25-1.41-1.6-1.34-2.74-1.46s-2.79-.34-2.5-1.83a2.25,2.25,0,0,1,1.69-1.62,2.49,2.49,0,0,1-1-2.82c.42-2.22,2.7-3.36,4.69-3.36a5.49,5.49,0,0,1,.8.06C117.8,3,119,1.54,120.38,1.54a1,1,0,0,1,1.08,1.16ZM117.2,7.42c.19-1,.23-2.93-1-2.93S114.21,6.43,114,7.37s-.23,2.91,1,2.91S117,8.38,117.2,7.42Z"/><path class="cls-1" d="M121.74,6.18a5.33,5.33,0,0,1,4.41-2.08c1.81,0,3.32.71,3,2.61l-1.19,6.1h-2.38l.2-1a5.77,5.77,0,0,1-3,1.18c-1.37,0-2.43-.72-2.11-2.38.48-2.46,4.3-3.08,6-3.2l.13-.61c.21-1.08.4-2.06-.61-2.14s-2.17.85-2.66,2.52Zm4.78,1.56c-1,.09-3.18.5-3.5,2.63-.14.93.36,1.53,1.1,1.53a3.47,3.47,0,0,0,1.71-.55Z"/><path class="cls-1" d="M133,12.81h-2.4L132,5.59c.18-.94-.14-.9-.94-1l.05-.25L134.65,4l-.37,2a5.6,5.6,0,0,1,3.57-1.85c1.72,0,2.4,1,2.09,2.58l-1.19,6.13h-2.39l1.15-5.94c.16-.81-.12-1.33-1.08-1.33a4,4,0,0,0-2.22.82Z"/><path class="cls-1" d="M146.05,11.62A3.74,3.74,0,0,1,143.46,13l-.23,0c-1.09-.11-1.87-1-1.53-2.75l.89-4.6c.14-.71-.15-1.07-.86-1.07h-.24l0-.18,4-2.54h.18l-.48,2.49h2.1l-.11.48h-2.1l-1,5.43c-.2,1-.11,1.78.53,1.82a2.54,2.54,0,0,0,1.35-.54Z"/></g></g></svg>