<svg xmlns="http://www.w3.org/2000/svg" viewBox="0 0 184.43 13.58"><defs><style>.cls-1{fill:#fff;}</style></defs><g id="Layer_2" data-name="Layer 2"><g id="Layer_1-2" data-name="Layer 1"><path class="cls-1" d="M4.67,9.17A2.67,2.67,0,0,1,3.8,10a2,2,0,0,1-1,.27A1.69,1.69,0,0,1,2,10a1.85,1.85,0,0,1-.55-.49,2.22,2.22,0,0,1-.34-.69A3.1,3.1,0,0,1,1,8V4.43A.74.74,0,0,0,.2,3.6H0V3.46l2.77-2h.14v2H4.56v.37H2.91V8.06c0,.12,0,.26,0,.42A2.46,2.46,0,0,0,3,9a1,1,0,0,0,.22.37.51.51,0,0,0,.4.16,1.68,1.68,0,0,0,.93-.42Z"/><path class="cls-1" d="M8.54,10.24A3.89,3.89,0,0,1,7.12,10,3.47,3.47,0,0,1,6,9.27a3.39,3.39,0,0,1-.76-1.1A3.45,3.45,0,0,1,5,6.76a3.46,3.46,0,0,1,.28-1.42A3.19,3.19,0,0,1,6,4.24a3.15,3.15,0,0,1,1.13-.71,3.89,3.89,0,0,1,1.42-.25A3.85,3.85,0,0,1,10,3.53a3.19,3.19,0,0,1,1.14.71,3.33,3.33,0,0,1,.76,1.1,3.46,3.46,0,0,1,.28,1.42,3.45,3.45,0,0,1-.28,1.41A3.36,3.36,0,0,1,10,10,3.85,3.85,0,0,1,8.54,10.24Zm.74-.53A1.12,1.12,0,0,0,10,9.18a2.61,2.61,0,0,0,.3-.93,4,4,0,0,0,0-1,5.91,5.91,0,0,0-.14-.9c-.07-.27-.15-.55-.25-.85a4.84,4.84,0,0,0-.39-.83A2.05,2.05,0,0,0,9,4a1.27,1.27,0,0,0-.8-.25,1.61,1.61,0,0,0-.44,0A1.14,1.14,0,0,0,7,4.32a2.71,2.71,0,0,0-.32.92,4.08,4.08,0,0,0,0,1,5.76,5.76,0,0,0,.14.89A7.39,7.39,0,0,0,7.11,8a4.86,4.86,0,0,0,.46.84,3.16,3.16,0,0,0,.63.68A1.28,1.28,0,0,0,9,9.76,1,1,0,0,0,9.28,9.71Z"/><path class="cls-1" d="M18,10.1H16.14V1.42a1.81,1.81,0,0,0,0-.46A.42.42,0,0,0,16,.72a.67.67,0,0,0-.27-.11,3.21,3.21,0,0,0-.43-.07V.35L18,.07Z"/><path class="cls-1" d="M22.22,8.33a2.6,2.6,0,0,0,.8.51,2.34,2.34,0,0,0,.91.18,1.85,1.85,0,0,0,1.17-.36,2.46,2.46,0,0,0,.74-1l.11.09a3.62,3.62,0,0,1-1,1.8A2.65,2.65,0,0,1,23,10.2,4,4,0,0,1,21.91,10a4.27,4.27,0,0,1-1-.5,3.62,3.62,0,0,1-.81-.8,3,3,0,0,1-.5-1,4.17,4.17,0,0,1-.14-1.79A3.06,3.06,0,0,1,20,4.54a2.81,2.81,0,0,1,1-.88,3.14,3.14,0,0,1,1.27-.36h.29a3.54,3.54,0,0,1,1.28.21,2.77,2.77,0,0,1,.91.6A2.67,2.67,0,0,1,25.3,5a3.75,3.75,0,0,1,.3,1.08ZM22,8.11a4.08,4.08,0,0,0,1.18-1A2.83,2.83,0,0,0,23.64,6a2.44,2.44,0,0,0,0-.81,2.07,2.07,0,0,0-.27-.72,1.76,1.76,0,0,0-.48-.5,1,1,0,0,0-.61-.2H22.2a1.55,1.55,0,0,0-.63.16,1.18,1.18,0,0,0-.5.47,1.78,1.78,0,0,0-.22.84A4.32,4.32,0,0,0,21,6.5a3.35,3.35,0,0,0,.36.86A3.53,3.53,0,0,0,22,8.11Z"/><path class="cls-1" d="M29.5,10.1h-.83L25.56,3.42h2.16a2.08,2.08,0,0,0,.13.42c.09.24.2.52.34.86s.28.69.44,1.08.31.77.46,1.12.28.66.39.93.2.44.23.53a7.61,7.61,0,0,0,.67-1.87A5.5,5.5,0,0,0,30.47,5a2.61,2.61,0,0,0-.32-1,1.52,1.52,0,0,0-.59-.57h2.83v.13Z"/><path class="cls-1" d="M33,4.91a4.56,4.56,0,0,1,.53-.68,2.83,2.83,0,0,1,.67-.51A3.42,3.42,0,0,1,35,3.39a5.11,5.11,0,0,1,2.11,0,2.6,2.6,0,0,1,.87.35,1.93,1.93,0,0,1,.6.64,1.84,1.84,0,0,1,.22.94V10.1H36.93V9.31a4.74,4.74,0,0,1-1,.64,2.64,2.64,0,0,1-1.17.28,2.81,2.81,0,0,1-.77-.11,2.07,2.07,0,0,1-.64-.34,1.58,1.58,0,0,1-.44-.57,2,2,0,0,1-.17-.85,1.62,1.62,0,0,1,.47-1.19,3.69,3.69,0,0,1,1.15-.75A6.61,6.61,0,0,1,35.71,6c.48-.08.89-.14,1.22-.17V4.77a2.09,2.09,0,0,0-.09-.53.87.87,0,0,0-.23-.37.8.8,0,0,0-.47-.18,1.25,1.25,0,0,0-.6.1,1.49,1.49,0,0,0-.52.38,2,2,0,0,0-.39.63,3.27,3.27,0,0,0-.19.87Zm4,1.22a6.44,6.44,0,0,0-.7.12,3,3,0,0,0-.79.31,1.84,1.84,0,0,0-.62.62,1.68,1.68,0,0,0-.23,1,1.32,1.32,0,0,0,.34.87,1,1,0,0,0,.75.32,2.31,2.31,0,0,0,.61-.1A1.77,1.77,0,0,0,36.93,9Z"/><path class="cls-1" d="M44.29,9.17a2.74,2.74,0,0,1-.86.78,2,2,0,0,1-1,.27,1.65,1.65,0,0,1-.79-.19,1.77,1.77,0,0,1-.56-.49,2,2,0,0,1-.33-.69A2.74,2.74,0,0,1,40.65,8V4.43a.73.73,0,0,0-.83-.83h-.2V3.46l2.78-2h.14v2h1.64v.37H42.54V8.06a3.25,3.25,0,0,0,0,.42,1.86,1.86,0,0,0,.09.47,1.06,1.06,0,0,0,.23.37.48.48,0,0,0,.39.16,1.68,1.68,0,0,0,.94-.42Z"/><path class="cls-1" d="M47.46,8.33a2.6,2.6,0,0,0,.8.51,2.34,2.34,0,0,0,.91.18,1.85,1.85,0,0,0,1.17-.36,2.46,2.46,0,0,0,.74-1l.11.09a3.62,3.62,0,0,1-1,1.8,2.65,2.65,0,0,1-1.89.66A4,4,0,0,1,47.15,10a4,4,0,0,1-1-.5,3.46,3.46,0,0,1-.82-.8,3,3,0,0,1-.5-1,4.17,4.17,0,0,1-.14-1.79,3.06,3.06,0,0,1,.53-1.36,2.81,2.81,0,0,1,1-.88,3.14,3.14,0,0,1,1.27-.36h.29A3.54,3.54,0,0,1,49,3.5a2.77,2.77,0,0,1,.91.6,2.67,2.67,0,0,1,.59.88,3.75,3.75,0,0,1,.3,1.08Zm-.25-.22a4.17,4.17,0,0,0,1.17-1A2.83,2.83,0,0,0,48.88,6a2.44,2.44,0,0,0,0-.81,2.07,2.07,0,0,0-.27-.72,1.88,1.88,0,0,0-.47-.5,1.09,1.09,0,0,0-.62-.2h-.07a1.55,1.55,0,0,0-.63.16,1.18,1.18,0,0,0-.5.47,1.78,1.78,0,0,0-.22.84,4.32,4.32,0,0,0,.18,1.31,3.35,3.35,0,0,0,.36.86A3.27,3.27,0,0,0,47.21,8.11Z"/><path class="cls-1" d="M57.07,6.66,53.83.21h2.38L58.79,6l1.85-3.37a2.06,2.06,0,0,0,.28-1.34,1.63,1.63,0,0,0-.63-1h2.22L59,6.59V10.1H57.07Z"/><path class="cls-1" d="M64.77,10.24A3.91,3.91,0,0,1,63.34,10a3.58,3.58,0,0,1-1.13-.72,3.39,3.39,0,0,1-.76-1.1,3.45,3.45,0,0,1-.28-1.41,3.46,3.46,0,0,1,.28-1.42,3.19,3.19,0,0,1,.76-1.1,3.23,3.23,0,0,1,1.13-.71,4.19,4.19,0,0,1,2.85,0,3.23,3.23,0,0,1,1.13.71,3.19,3.19,0,0,1,.76,1.1,3.46,3.46,0,0,1,.28,1.42,3.45,3.45,0,0,1-.28,1.41,3.39,3.39,0,0,1-.76,1.1,3.58,3.58,0,0,1-1.13.72A3.89,3.89,0,0,1,64.77,10.24Zm.73-.53a1.12,1.12,0,0,0,.73-.53,2.62,2.62,0,0,0,.31-.93,5.15,5.15,0,0,0,0-1,7.29,7.29,0,0,0-.15-.9c-.07-.27-.15-.55-.25-.85a4.8,4.8,0,0,0-.38-.83A2.22,2.22,0,0,0,65.21,4a1.26,1.26,0,0,0-.79-.25,1.64,1.64,0,0,0-.45,0,1.16,1.16,0,0,0-.71.53,2.5,2.5,0,0,0-.31.92,4.58,4.58,0,0,0,0,1,4.68,4.68,0,0,0,.15.89,4.56,4.56,0,0,0,.27.78,4.27,4.27,0,0,0,.46.84,3.12,3.12,0,0,0,.62.68,1.29,1.29,0,0,0,.78.28A.94.94,0,0,0,65.5,9.71Z"/><path class="cls-1" d="M74,10.1V8.82a3.09,3.09,0,0,1-.45.53,3.8,3.8,0,0,1-.59.47,3.61,3.61,0,0,1-.65.33,2,2,0,0,1-.68.12,1.93,1.93,0,0,1-.85-.17,1.69,1.69,0,0,1-.6-.45A1.89,1.89,0,0,1,69.8,9a3,3,0,0,1-.12-.86V4.33a.37.37,0,0,0-.06-.23A.43.43,0,0,0,69.43,4a.85.85,0,0,0-.24-.05l-.26,0V3.69l2.64-.27V8a1.49,1.49,0,0,0,.21.82.8.8,0,0,0,.73.32,1.68,1.68,0,0,0,.8-.21,2.21,2.21,0,0,0,.65-.5V4.67a1.13,1.13,0,0,0,0-.42A.37.37,0,0,0,73.75,4,.66.66,0,0,0,73.48,4l-.41-.05V3.71l2.77-.28V10.1Z"/><path class="cls-1" d="M77.91,10.1V4.45a1.53,1.53,0,0,0,0-.43.4.4,0,0,0-.15-.22.92.92,0,0,0-.28-.09l-.41,0v-.2l2.77-.28V4.72a4.1,4.1,0,0,1,.45-.53,4.72,4.72,0,0,1,.59-.5,3.17,3.17,0,0,1,.68-.36,2,2,0,0,1,.72-.14,1.61,1.61,0,0,1,.81.23L82.62,5.6c-.46-.76-1-1.14-1.54-1.14a1.79,1.79,0,0,0-1.29.7V10.1Z"/><path class="cls-1" d="M86.17,5.16a5.22,5.22,0,0,1,.39-2A4.87,4.87,0,0,1,89.26.45a5.67,5.67,0,0,1,4.08,0A5,5,0,0,1,95,1.51,4.85,4.85,0,0,1,96,3.12a5.22,5.22,0,0,1,.39,2,5.12,5.12,0,0,1-.39,2A4.85,4.85,0,0,1,95,8.79a4.63,4.63,0,0,1-1.62,1.07,5.61,5.61,0,0,1-4.06,0,4.76,4.76,0,0,1-1.63-1.07,4.85,4.85,0,0,1-1.08-1.61A5.12,5.12,0,0,1,86.17,5.16ZM88.71,6.3a6.89,6.89,0,0,0,.76,1.34,5.65,5.65,0,0,0,.9,1,4.17,4.17,0,0,0,1,.64,2.48,2.48,0,0,0,1,.22,2.06,2.06,0,0,0,.81-.17,2,2,0,0,0,.88-.77,3.14,3.14,0,0,0,.43-1.24,5.2,5.2,0,0,0,0-1.56A7.63,7.63,0,0,0,93.88,4a7.91,7.91,0,0,0-.76-1.35,5.69,5.69,0,0,0-.91-1,4.12,4.12,0,0,0-1-.64,2.37,2.37,0,0,0-1-.22,2,2,0,0,0-.81.17,2,2,0,0,0-.89.78A3,3,0,0,0,88.11,3a5,5,0,0,0,0,1.57A7.41,7.41,0,0,0,88.71,6.3Z"/><path class="cls-1" d="M102.24,10.1V8.82a3.09,3.09,0,0,1-.45.53,3.8,3.8,0,0,1-.59.47,4,4,0,0,1-.65.33,2,2,0,0,1-.68.12A1.9,1.9,0,0,1,99,10.1a1.69,1.69,0,0,1-.6-.45A1.91,1.91,0,0,1,98.07,9,3.37,3.37,0,0,1,98,8.11V4.33a.32.32,0,0,0-.07-.23A.35.35,0,0,0,97.71,4a.85.85,0,0,0-.24-.05l-.26,0V3.69l2.63-.27V8a1.49,1.49,0,0,0,.21.82.83.83,0,0,0,.74.32,1.68,1.68,0,0,0,.8-.21,2.34,2.34,0,0,0,.65-.5V4.67a1.13,1.13,0,0,0,0-.42A.37.37,0,0,0,102,4a.66.66,0,0,0-.28-.09l-.4-.05V3.71l2.77-.28V10.1Z"/><path class="cls-1" d="M109.64,9.17a2.74,2.74,0,0,1-.86.78,2,2,0,0,1-1,.27A1.65,1.65,0,0,1,107,10a1.89,1.89,0,0,1-.56-.49,2,2,0,0,1-.33-.69A2.74,2.74,0,0,1,106,8V4.43a.73.73,0,0,0-.83-.83H105V3.46l2.78-2h.14v2h1.64v.37h-1.64V8.06a3.25,3.25,0,0,0,0,.42A1.86,1.86,0,0,0,108,9a1.06,1.06,0,0,0,.23.37.51.51,0,0,0,.4.16,1.68,1.68,0,0,0,.93-.42Z"/><path class="cls-1" d="M115.82,9.58a1.25,1.25,0,0,0-.63-.17,1.79,1.79,0,0,0-1,.39,2.87,2.87,0,0,1-.63.32,2,2,0,0,1-.68.12,2.26,2.26,0,0,1-1.17-.29,2.76,2.76,0,0,1-.87-.76,3.51,3.51,0,0,1-.55-1A4,4,0,0,1,110.12,7a3.91,3.91,0,0,1,.23-1.35A3.88,3.88,0,0,1,111,4.43a3.46,3.46,0,0,1,1-.83,2.7,2.7,0,0,1,1.33-.32,3,3,0,0,1,.83.12,2.49,2.49,0,0,1,.73.36V1.3a1.47,1.47,0,0,0,0-.42.49.49,0,0,0-.16-.21.62.62,0,0,0-.28-.09l-.41,0V.33l2.78-.27v10Zm-.9-5.5a1.38,1.38,0,0,0-.49-.23,2.51,2.51,0,0,0-.55-.06,1.39,1.39,0,0,0-.89.28,2.23,2.23,0,0,0-.59.7,3.27,3.27,0,0,0-.32.91,5.27,5.27,0,0,0-.1.93,4.08,4.08,0,0,0,.1.87,3.09,3.09,0,0,0,.29.92,2,2,0,0,0,.54.72,1.28,1.28,0,0,0,.84.29,1.26,1.26,0,0,0,.65-.2,2.59,2.59,0,0,0,.52-.43Z"/><path class="cls-1" d="M121.85,10.24a3.89,3.89,0,0,1-1.42-.25,3.36,3.36,0,0,1-1.9-1.82,3.62,3.62,0,0,1-.27-1.41,3.63,3.63,0,0,1,.27-1.42,3.33,3.33,0,0,1,.76-1.1,3.19,3.19,0,0,1,1.14-.71,4.16,4.16,0,0,1,2.84,0,3.19,3.19,0,0,1,1.14.71,3.33,3.33,0,0,1,.76,1.1,3.72,3.72,0,0,1,0,2.83,3.36,3.36,0,0,1-1.9,1.82A3.85,3.85,0,0,1,121.85,10.24Zm.74-.53a1.12,1.12,0,0,0,.73-.53,2.61,2.61,0,0,0,.3-.93,4.51,4.51,0,0,0,0-1,5.91,5.91,0,0,0-.14-.9c-.07-.27-.15-.55-.25-.85a4.84,4.84,0,0,0-.39-.83A2.05,2.05,0,0,0,122.3,4a1.29,1.29,0,0,0-.8-.25,1.56,1.56,0,0,0-.44,0,1.11,1.11,0,0,0-.71.53,2.51,2.51,0,0,0-.32.92,4.58,4.58,0,0,0,0,1,7.1,7.1,0,0,0,.15.89,7.39,7.39,0,0,0,.27.78,4.86,4.86,0,0,0,.46.84,2.93,2.93,0,0,0,.63.68,1.26,1.26,0,0,0,.77.28A1,1,0,0,0,122.59,9.71Z"/><path class="cls-1" d="M129.85,10.24a3.89,3.89,0,0,1-1.42-.25,3.36,3.36,0,0,1-1.9-1.82,3.62,3.62,0,0,1-.27-1.41,3.63,3.63,0,0,1,.27-1.42,3.33,3.33,0,0,1,.76-1.1,3.19,3.19,0,0,1,1.14-.71,4.16,4.16,0,0,1,2.84,0,3.19,3.19,0,0,1,1.14.71,3.33,3.33,0,0,1,.76,1.1,3.72,3.72,0,0,1,0,2.83,3.36,3.36,0,0,1-1.9,1.82A3.85,3.85,0,0,1,129.85,10.24Zm.74-.53a1.12,1.12,0,0,0,.73-.53,2.61,2.61,0,0,0,.3-.93,4.51,4.51,0,0,0,0-1,5.91,5.91,0,0,0-.14-.9c-.07-.27-.15-.55-.25-.85a4.84,4.84,0,0,0-.39-.83A2.05,2.05,0,0,0,130.3,4a1.29,1.29,0,0,0-.8-.25,1.56,1.56,0,0,0-.44,0,1.11,1.11,0,0,0-.71.53,2.51,2.51,0,0,0-.32.92,4.58,4.58,0,0,0,0,1,7.1,7.1,0,0,0,.15.89,7.39,7.39,0,0,0,.27.78,4.86,4.86,0,0,0,.46.84,2.93,2.93,0,0,0,.63.68,1.26,1.26,0,0,0,.77.28A1,1,0,0,0,130.59,9.71Z"/><path class="cls-1" d="M134.94,10.1V4.45a1.53,1.53,0,0,0-.05-.43.4.4,0,0,0-.15-.22.92.92,0,0,0-.28-.09l-.41,0v-.2l2.77-.28V4.72a4.1,4.1,0,0,1,.45-.53,4.72,4.72,0,0,1,.59-.5,3.17,3.17,0,0,1,.68-.36,2,2,0,0,1,.72-.14,1.61,1.61,0,0,1,.81.23l-.42,2.18q-.69-1.14-1.53-1.14a1.8,1.8,0,0,0-1.3.7V10.1Z"/><path class="cls-1" d="M143.72,10.1V.21h1.88V9c0,.1,0,.22,0,.34a.49.49,0,0,0,.13.29h1.09a3.57,3.57,0,0,0,1.94-.47A3.52,3.52,0,0,0,150,7.71V10.1Z"/><path class="cls-1" d="M151.61,10.1V4.77a1.5,1.5,0,0,0-.06-.49.47.47,0,0,0-.17-.25.55.55,0,0,0-.28-.11l-.39,0v-.2l2.78-.22V10.1Zm.76-7.68a1.17,1.17,0,0,1-.86-.34,1.2,1.2,0,0,1-.35-.87A1.2,1.2,0,0,1,152.37,0a1.15,1.15,0,0,1,.87.35,1.18,1.18,0,0,1,.35.86,1.2,1.2,0,0,1-.35.87A1.15,1.15,0,0,1,152.37,2.42Z"/><path class="cls-1" d="M158.52,10.1h-.84l-3.1-6.68h2.16a2.08,2.08,0,0,0,.13.42l.33.86c.14.33.28.69.44,1.08s.31.77.46,1.12l.4.93c.12.26.19.44.23.53a8,8,0,0,0,.66-1.87A4.78,4.78,0,0,0,159.48,5a2.45,2.45,0,0,0-.32-1,1.5,1.5,0,0,0-.58-.57h2.83v.13Z"/><path class="cls-1" d="M162.81,10.1V4.77a1.93,1.93,0,0,0-.05-.49.53.53,0,0,0-.17-.25.63.63,0,0,0-.28-.11l-.39,0v-.2l2.77-.22V10.1Zm.77-7.68a1.19,1.19,0,0,1-.87-.34,1.19,1.19,0,0,1-.34-.87,1.17,1.17,0,0,1,.34-.86,1.2,1.2,0,0,1,.87-.35,1.18,1.18,0,0,1,.87.35,1.17,1.17,0,0,1,.34.86,1.19,1.19,0,0,1-.34.87A1.18,1.18,0,0,1,163.58,2.42Z"/><path class="cls-1" d="M168.72,10.1h-1.88V4.45a1.53,1.53,0,0,0-.05-.43.4.4,0,0,0-.15-.22.84.84,0,0,0-.28-.09l-.41,0v-.2l2.77-.28V4.72a3.34,3.34,0,0,1,.48-.53,3.22,3.22,0,0,1,.62-.46,3.06,3.06,0,0,1,.71-.33,2.25,2.25,0,0,1,.71-.12,2,2,0,0,1,1.53.55,2.05,2.05,0,0,1,.51,1.47v4.8H171.4V5.45a1.1,1.1,0,0,0-.25-.77,1,1,0,0,0-.81-.28,2.26,2.26,0,0,0-.87.18,2.89,2.89,0,0,0-.75.46Z"/><path class="cls-1" d="M180.8,3.32a.45.45,0,0,0-.09-.28.72.72,0,0,0-.21-.18,1.17,1.17,0,0,0-.28-.11l-.28,0a1.11,1.11,0,0,0-.59.16,1.24,1.24,0,0,0-.44.44,2.92,2.92,0,0,1,1.53.88A2.4,2.4,0,0,1,181,5.84,2.54,2.54,0,0,1,180.74,7a2.59,2.59,0,0,1-.71.83,2.92,2.92,0,0,1-1,.51,3.86,3.86,0,0,1-1.17.18,4.65,4.65,0,0,1-.82-.08,2.58,2.58,0,0,1-.78-.27.83.83,0,0,0-.13.18.31.31,0,0,0-.07.21.27.27,0,0,0,.08.19.7.7,0,0,0,.16.14,2.09,2.09,0,0,0,.85.3q.5.08,1.05.12c.37,0,.73.06,1.09.11a3.94,3.94,0,0,1,1,.23,1.46,1.46,0,0,1,1,1.49,1.85,1.85,0,0,1-.3,1,2.69,2.69,0,0,1-.78.76,4.13,4.13,0,0,1-1.09.47,5.31,5.31,0,0,1-1.26.16,5.21,5.21,0,0,1-1.18-.14,3.36,3.36,0,0,1-1-.44,2.47,2.47,0,0,1-.74-.77,2.19,2.19,0,0,1-.31-1.11l1.56,0a2.34,2.34,0,0,0,.14.87,1.78,1.78,0,0,0,.37.63,1.6,1.6,0,0,0,.55.38,1.69,1.69,0,0,0,.64.12,2.73,2.73,0,0,0,.72-.09,2.2,2.2,0,0,0,.58-.24,1,1,0,0,0,.51-.91.77.77,0,0,0-.25-.63,1.34,1.34,0,0,0-.59-.31,3.75,3.75,0,0,0-.77-.13l-.76-.07-.75-.1a4.12,4.12,0,0,1-.73-.21,1.52,1.52,0,0,1-.55-.42,1.13,1.13,0,0,1-.22-.71,1,1,0,0,1,.32-.8,2.49,2.49,0,0,1,.76-.46,2.49,2.49,0,0,1-.94-.94,2.61,2.61,0,0,1-.32-1.28,2.36,2.36,0,0,1,.28-1.15,2.62,2.62,0,0,1,.73-.82,3.08,3.08,0,0,1,1-.5A4.21,4.21,0,0,1,178,3.21a4.35,4.35,0,0,1,.63,0,6,6,0,0,1,.34-.67,3.77,3.77,0,0,1,.47-.64,2.48,2.48,0,0,1,.61-.48,1.42,1.42,0,0,1,.73-.19,1.13,1.13,0,0,1,.36.06,1,1,0,0,1,.34.18,1,1,0,0,1,.24.29.78.78,0,0,1,.09.37Zm-2.89,4.81a.87.87,0,0,0,.62-.25,1.71,1.71,0,0,0,.38-.59,3,3,0,0,0,.19-.74,6.06,6.06,0,0,0,.05-.67,4.59,4.59,0,0,0-.06-.68,3.19,3.19,0,0,0-.2-.75,1.93,1.93,0,0,0-.39-.62.89.89,0,0,0-1.24,0,2,2,0,0,0-.37.61,3.1,3.1,0,0,0-.19.74,5.73,5.73,0,0,0,0,.66,4.7,4.7,0,0,0,.06.68,2.77,2.77,0,0,0,.2.75,2.1,2.1,0,0,0,.38.61A.85.85,0,0,0,177.91,8.13Z"/><path class="cls-1" d="M182.46,9.18a1,1,0,0,1,1.68-.68.94.94,0,0,1,.29.68,1,1,0,0,1-.29.71.94.94,0,0,1-.69.28.91.91,0,0,1-.69-.29A.94.94,0,0,1,182.46,9.18Z"/></g></g></svg>