<svg xmlns="http://www.w3.org/2000/svg" viewBox="0 0 144.25 25.21"><defs><style>.cls-1{fill:#fff;}</style></defs><g id="Layer_2" data-name="Layer 2"><g id="Layer_1-2" data-name="Layer 1"><path class="cls-1" d="M6.28.1h1.6V10.59H6.56l-5-7.38v7.38H0V.1H1.39L6.28,7.39Z"/><path class="cls-1" d="M14,3.1h1.5v7.52H14.36l0-.57a1.53,1.53,0,0,1-1.33.63h-.87A2.55,2.55,0,0,1,9.58,8.05v-5h1.51v5a1.13,1.13,0,0,0,1,1.24H13A1.08,1.08,0,0,0,14,8.2Z"/><path class="cls-1" d="M24,3a2.43,2.43,0,0,1,1.78.75,2.54,2.54,0,0,1,.74,1.89v4.94H25V5.65a1.12,1.12,0,0,0-1-1.23h-.54a1.06,1.06,0,0,0-1,1.14v5H20.94v-5a1.12,1.12,0,0,0-1-1.15h-.54a1,1,0,0,0-1,1.08v5.09h-1.5V3.09H18l0,.55A1.72,1.72,0,0,1,19.44,3h.48a2.19,2.19,0,0,1,1.77.83A2.16,2.16,0,0,1,23.47,3Z"/><path class="cls-1" d="M35,3a2.43,2.43,0,0,1,1.78.75,2.54,2.54,0,0,1,.74,1.89v4.94h-1.5V5.65a1.12,1.12,0,0,0-1-1.23H34.5a1.06,1.06,0,0,0-1,1.14v5H32v-5a1.12,1.12,0,0,0-1-1.15h-.54a1,1,0,0,0-1,1.08v5.09h-1.5V3.09H29l0,.55A1.69,1.69,0,0,1,30.47,3H31a2.19,2.19,0,0,1,1.77.83A2.17,2.17,0,0,1,34.5,3Z"/><path class="cls-1" d="M38.59,6a2.86,2.86,0,0,1,.84-2.17A3,3,0,0,1,41.54,3a2.71,2.71,0,0,1,3,3V7.48H40.11v.06c0,1.09.37,1.63,1.37,1.63h2.87v1.41H41.48c-2.14,0-2.89-1.21-2.89-3.57ZM43,6.13V5.89c0-1-.49-1.5-1.5-1.5a1.35,1.35,0,0,0-1.43,1.5v.24Z"/><path class="cls-1" d="M49.82,3V4.39h-1.2a1.37,1.37,0,0,0-1.53,1.53v4.66H45.58V3.07h1.14l.07.77A1.91,1.91,0,0,1,48.62,3Z"/><path class="cls-1" d="M58.05.34h1.18V10.61h-1.6V2.46L55.51,3.88l-.81-1.3Z"/><path class="cls-1" d="M70.19,3.1h1.57L69,10.59H67.38L64.64,3.1h1.59l2,5.56Z"/><path class="cls-1" d="M72.06,6a2.82,2.82,0,0,1,.84-2.17A2.93,2.93,0,0,1,75,3a2.71,2.71,0,0,1,3,3V7.48H73.57v.06c0,1.09.38,1.63,1.38,1.63h2.86v1.41H75c-2.14,0-2.89-1.21-2.89-3.57Zm4.45.18V5.89c0-1-.49-1.5-1.5-1.5a1.36,1.36,0,0,0-1.44,1.5v.24Z"/><path class="cls-1" d="M83.28,3V4.39H82.09a1.37,1.37,0,0,0-1.53,1.53v4.66H79V3.07h1.14l.08.77A1.9,1.9,0,0,1,82.09,3Z"/><path class="cls-1" d="M84.27.1h1.52V3.64A1.38,1.38,0,0,1,87.05,3h.6a2.41,2.41,0,0,1,1.78.75,2.56,2.56,0,0,1,.75,1.88v4.93H88.67V5.66a1.11,1.11,0,0,0-1-1.22h-.84a1.1,1.1,0,0,0-1,1.15v5H84.27Z"/><path class="cls-1" d="M95.84,3.1h1.5v7.52H96.2l0-.57a1.54,1.54,0,0,1-1.33.63H94a2.56,2.56,0,0,1-2.54-2.63v-5h1.52v5a1.12,1.12,0,0,0,1,1.24h.87a1.07,1.07,0,0,0,1-1.09Z"/><path class="cls-1" d="M98.77.6h1.51V2.26H98.77Zm0,2.5h1.51v7.49H98.77Z"/><path class="cls-1" d="M106.93,3V4.42H104.1c-.79,0-1.2.27-1.2.81s.39.69,1.22.76c.19,0,.46,0,.57.08,1.57.16,2.47,1,2.47,2.23,0,1.63-1.17,2.38-2.91,2.38H101.6V9.26h2.65c1,0,1.41-.25,1.41-1,0-.49-.28-.73-1.12-.84L104,7.4c-1.55-.16-2.58-.84-2.58-2.17,0-1.62,1.38-2.22,2.71-2.22Z"/><path class="cls-1" d="M108.25.1h1.52V3.64A1.45,1.45,0,0,1,111,3h.6a2.43,2.43,0,0,1,1.78.75,2.59,2.59,0,0,1,.75,1.89v2a3.12,3.12,0,0,1-.72,2.11,2.32,2.32,0,0,1-1.84.82h-1a1.51,1.51,0,0,1-1.17-.57l-.06.57h-1.14Zm4.4,5.55a1.12,1.12,0,0,0-1-1.23h-.84a1.11,1.11,0,0,0-1,1.15V8.36a.88.88,0,0,0,.85.83h1c.6,0,1.05-.57,1.05-1.53Z"/><path class="cls-1" d="M115,6a2.86,2.86,0,0,1,.84-2.17,3,3,0,0,1,2.12-.8,2.71,2.71,0,0,1,3,3V7.48h-4.43v.06c0,1.09.37,1.63,1.38,1.63h2.86v1.41h-2.86c-2.15,0-2.9-1.21-2.9-3.57Zm4.45.18V5.89c0-1-.49-1.5-1.49-1.5a1.36,1.36,0,0,0-1.44,1.5v.24Z"/><path class="cls-1" d="M126,.1h1.52V10.59h-1.14l-.06-.57a1.47,1.47,0,0,1-1.17.57h-1a2.34,2.34,0,0,1-1.85-.82,3.12,3.12,0,0,1-.72-2.11v-2a2.54,2.54,0,0,1,.74-1.89,2.46,2.46,0,0,1,1.8-.75h.6a1.44,1.44,0,0,1,1.25.63Zm0,5.47a1.11,1.11,0,0,0-1-1.15h-.84a1.12,1.12,0,0,0-1,1.23v2c0,1,.45,1.53,1,1.53h1a.87.87,0,0,0,.85-.83Z"/><path class="cls-1" d="M133.25,3V4.39h-1.2a1.37,1.37,0,0,0-1.52,1.53v4.66H129V3.07h1.14l.08.77A1.9,1.9,0,0,1,132.05,3Z"/><path class="cls-1" d="M134.24.6h1.52V2.26h-1.52Zm0,2.5h1.52v7.49h-1.52Z"/><path class="cls-1" d="M137.26,3.1h1.49V9.44a4.05,4.05,0,0,1-.69,2.32l-1.19,1.67-1.23-.8,1.2-1.68a2.42,2.42,0,0,0,.42-1.51Zm0-2.52h1.49V2.26h-1.49Z"/><path class="cls-1" d="M140.69,3.1V2.85C140.78.76,142.31,0,144,0h.22V1.35c-1.21,0-2,.42-2,1.5V3.1h2V4.45h-2.11v6.14h-1.51V4.45h-.92V3.1Z"/><path class="cls-1" d="M28.24,15.09h1.52v1.66H28.24Zm0,2.5h1.52v7.49H28.24Z"/><path class="cls-1" d="M34.6,17.5a2.44,2.44,0,0,1,1.77.75,2.6,2.6,0,0,1,.75,1.89v4.93h-1.5V20.14a1.12,1.12,0,0,0-1-1.23h-.87a1.06,1.06,0,0,0-1,1.08v5.08H31.2V17.58h1.13l.05.55a1.63,1.63,0,0,1,1.35-.63Z"/><path class="cls-1" d="M43,14.6h1.51v3.53a1.38,1.38,0,0,1,1.26-.61h.6a2.39,2.39,0,0,1,1.78.75,2.53,2.53,0,0,1,.75,1.89v4.92H47.43V20.16a1.11,1.11,0,0,0-1-1.23h-.84a1.11,1.11,0,0,0-1,1.15v5H43Z"/><path class="cls-1" d="M50,20.44a2.88,2.88,0,0,1,.84-2.17,2.93,2.93,0,0,1,2.11-.8,2.71,2.71,0,0,1,3,3V22H51.47V22c0,1.09.38,1.63,1.38,1.63h2.86v1.41H52.85c-2.14,0-2.89-1.21-2.89-3.57Zm4.45.18v-.24a1.31,1.31,0,0,0-1.5-1.5,1.36,1.36,0,0,0-1.44,1.5v.24Z"/><path class="cls-1" d="M57.5,16H59v1.63h2.22V19H59V22.6c0,.91.24,1.2.94,1.2h1.28v1.41H59.94c-1.75,0-2.44-1.07-2.44-2.61V19H56.42v-1.4H57.5Z"/><path class="cls-1" d="M73.43,14.6H75V25.08H73.71l-5-7.38v7.38h-1.6V14.6h1.39l4.89,7.28Z"/><path class="cls-1" d="M80,17.49a2.36,2.36,0,0,1,1.88.88,3,3,0,0,1,.77,2v2a2.84,2.84,0,0,1-.75,2,2.49,2.49,0,0,1-1.9.81h-.84a2.49,2.49,0,0,1-1.91-.81,2.84,2.84,0,0,1-.75-2v-2a3.08,3.08,0,0,1,.75-2,2.44,2.44,0,0,1,1.91-.88Zm1.13,2.9c0-.79-.54-1.49-1.13-1.49h-.84c-.6,0-1.14.7-1.14,1.49v2a1.25,1.25,0,0,0,1.14,1.38H80a1.25,1.25,0,0,0,1.13-1.38Z"/><path class="cls-1" d="M86.93,17.49a2.37,2.37,0,0,1,1.89.88,3,3,0,0,1,.77,2v2a2.84,2.84,0,0,1-.75,2,2.49,2.49,0,0,1-1.91.81H86.1a2.49,2.49,0,0,1-1.91-.81,2.84,2.84,0,0,1-.75-2v-2a3.08,3.08,0,0,1,.75-2,2.44,2.44,0,0,1,1.91-.88Zm1.14,2.9c0-.79-.54-1.49-1.14-1.49H86.1c-.6,0-1.14.7-1.14,1.49v2A1.25,1.25,0,0,0,86.1,23.8h.83a1.25,1.25,0,0,0,1.14-1.38Z"/><path class="cls-1" d="M94.94,17.47v1.41h-1.2a1.37,1.37,0,0,0-1.53,1.53v4.66H90.7V17.56h1.14l.07.77a1.91,1.91,0,0,1,1.83-.86Z"/><path class="cls-1" d="M99.7,14.6h1.52V25.08h-1.14l-.06-.56a1.47,1.47,0,0,1-1.17.56h-1A2.31,2.31,0,0,1,96,24.26a3.1,3.1,0,0,1-.72-2.11v-2a2.55,2.55,0,0,1,.74-1.89,2.46,2.46,0,0,1,1.8-.75h.6a1.44,1.44,0,0,1,1.25.63Zm0,5.47a1.11,1.11,0,0,0-1-1.16h-.84a1.12,1.12,0,0,0-1,1.23v2c0,1,.45,1.53,1,1.53h1a.87.87,0,0,0,.85-.83Z"/><path class="cls-1" d="M102.39,20.44a2.84,2.84,0,0,1,.84-2.17,2.93,2.93,0,0,1,2.11-.8,2.71,2.71,0,0,1,3,3V22H103.9V22c0,1.09.38,1.63,1.38,1.63h2.86v1.41h-2.86c-2.14,0-2.89-1.21-2.89-3.57Zm4.45.18v-.24c0-1-.5-1.5-1.5-1.5a1.36,1.36,0,0,0-1.44,1.5v.24Z"/><path class="cls-1" d="M112.77,17.5a2.43,2.43,0,0,1,1.77.75,2.56,2.56,0,0,1,.75,1.89v4.93h-1.5V20.14a1.11,1.11,0,0,0-1-1.23h-.87a1.06,1.06,0,0,0-1,1.08v5.08h-1.52V17.58h1.14l0,.55a1.62,1.62,0,0,1,1.34-.63Z"/></g></g></svg>