<svg xmlns="http://www.w3.org/2000/svg" viewBox="0 0 141.18 29.34"><defs><style>.cls-1{fill:#2b3336;}.cls-2{fill:#fff;}</style></defs><g id="Layer_2" data-name="Layer 2"><g id="Layer_1-2" data-name="Layer 1"><rect class="cls-1" width="141.18" height="29.34" rx="14.67"/><path class="cls-2" d="M22.9,13.28V5.36H27a2.82,2.82,0,0,1,1.18.23,1.8,1.8,0,0,1,.77.67,1.84,1.84,0,0,1,.27,1,2.32,2.32,0,0,1-.16.84,1.81,1.81,0,0,1-.45.63,2,2,0,0,1-.66.38v.05a2,2,0,0,1,.75.33,1.88,1.88,0,0,1,.54.64,2.22,2.22,0,0,1,.2,1,2.17,2.17,0,0,1-.33,1.25,1.89,1.89,0,0,1-.86.69,3.24,3.24,0,0,1-1.25.22ZM24,8.75h2.78a1.49,1.49,0,0,0,.69-.15,1.19,1.19,0,0,0,.45-.44,1.28,1.28,0,0,0,.17-.64,1.13,1.13,0,0,0-.34-.92,1.28,1.28,0,0,0-.89-.3H24Zm0,3.58h3a1.49,1.49,0,0,0,1-.3,1.3,1.3,0,0,0,.37-1,1.61,1.61,0,0,0-.16-.73,1,1,0,0,0-.48-.44,1.94,1.94,0,0,0-.78-.14H24Z"/><path class="cls-2" d="M30.77,13.28V7.21h.82l.09,1h.08A2.73,2.73,0,0,1,32,7.66a1.51,1.51,0,0,1,.44-.43,1.34,1.34,0,0,1,.68-.16l.32,0a1.15,1.15,0,0,1,.22.07v.93h-.39a1.54,1.54,0,0,0-.67.14,1.23,1.23,0,0,0-.47.37,1.72,1.72,0,0,0-.27.58,2.73,2.73,0,0,0-.09.72v3.38Z"/><path class="cls-2" d="M36.91,13.42a3.19,3.19,0,0,1-1.52-.34A2.18,2.18,0,0,1,34.46,12a4.25,4.25,0,0,1-.32-1.79,4.19,4.19,0,0,1,.32-1.79,2.08,2.08,0,0,1,.94-1A3.16,3.16,0,0,1,37,7.07a2.85,2.85,0,0,1,1.43.33,2,2,0,0,1,.87,1A3.9,3.9,0,0,1,39.55,10v.49H35.19a3.79,3.79,0,0,0,.21,1.19,1.34,1.34,0,0,0,.57.68,2,2,0,0,0,1,.22,2.39,2.39,0,0,0,.69-.1,1.37,1.37,0,0,0,.5-.29,1.19,1.19,0,0,0,.3-.43,1.69,1.69,0,0,0,.12-.56h1a2.62,2.62,0,0,1-.18.9,1.94,1.94,0,0,1-.51.69,2.17,2.17,0,0,1-.82.45A3.41,3.41,0,0,1,36.91,13.42Zm-1.7-3.69H38.5a2.62,2.62,0,0,0-.11-.85,1.59,1.59,0,0,0-.33-.57,1.24,1.24,0,0,0-.5-.31,1.83,1.83,0,0,0-.64-.1,1.93,1.93,0,0,0-.9.19,1.26,1.26,0,0,0-.56.6A2.69,2.69,0,0,0,35.21,9.73Z"/><path class="cls-2" d="M42.34,13.42a3,3,0,0,1-.67-.08,2.35,2.35,0,0,1-.63-.27,1.34,1.34,0,0,1-.46-.51,1.86,1.86,0,0,1-.17-.83,1.7,1.7,0,0,1,.3-1,2,2,0,0,1,.84-.63,4.72,4.72,0,0,1,1.27-.31,15.9,15.9,0,0,1,1.61-.08V9a1.26,1.26,0,0,0-.12-.57A.77.77,0,0,0,43.9,8a2,2,0,0,0-.84-.13,2.07,2.07,0,0,0-.82.13.85.85,0,0,0-.43.34.9.9,0,0,0-.12.46V9h-1a.49.49,0,0,1,0-.12V8.75a1.44,1.44,0,0,1,.3-.93,1.82,1.82,0,0,1,.86-.56,3.85,3.85,0,0,1,1.27-.19,3.2,3.2,0,0,1,1.28.22,1.6,1.6,0,0,1,.77.62,1.7,1.7,0,0,1,.26,1v3.29a.39.39,0,0,0,.11.31.41.41,0,0,0,.25.08h.45v.67a1.9,1.9,0,0,1-.36.12,1.53,1.53,0,0,1-.45.06.83.83,0,0,1-.49-.13.8.8,0,0,1-.3-.33,1.42,1.42,0,0,1-.14-.48h-.08a2.11,2.11,0,0,1-.53.5,2.43,2.43,0,0,1-.71.33A2.91,2.91,0,0,1,42.34,13.42Zm.25-.86a2.28,2.28,0,0,0,.7-.11,1.94,1.94,0,0,0,.58-.33,1.6,1.6,0,0,0,.41-.52,1.44,1.44,0,0,0,.15-.65v-.51a10.42,10.42,0,0,0-1.6.1,2.25,2.25,0,0,0-1,.37.9.9,0,0,0-.35.75.88.88,0,0,0,.14.51.78.78,0,0,0,.39.29A1.55,1.55,0,0,0,42.59,12.56Z"/><path class="cls-2" d="M48.53,13.42a1.28,1.28,0,0,1-.74-.18.94.94,0,0,1-.38-.48,1.61,1.61,0,0,1-.12-.63V8.06h-.78V7.21h.8l.19-1.7h.81v1.7h1.14v.85H48.31V12a.74.74,0,0,0,.1.43.47.47,0,0,0,.39.14h.65v.67a1,1,0,0,1-.28.09l-.33.07Z"/><path class="cls-2" d="M50.54,13.28V4.93h1V8h.08a2.28,2.28,0,0,1,.52-.51,2.35,2.35,0,0,1,.64-.3,3.13,3.13,0,0,1,.77-.09,2.43,2.43,0,0,1,1,.19,1.45,1.45,0,0,1,.68.64,2.37,2.37,0,0,1,.25,1.19v4.19h-1v-4a1.83,1.83,0,0,0-.09-.63,1,1,0,0,0-.27-.38,1.08,1.08,0,0,0-.4-.2,2.89,2.89,0,0,0-.53,0,1.68,1.68,0,0,0-.81.2,1.48,1.48,0,0,0-.6.59,1.86,1.86,0,0,0-.23,1v3.57Z"/><path class="cls-2" d="M59.46,13.42a3.19,3.19,0,0,1-1.52-.34A2.18,2.18,0,0,1,57,12a4.25,4.25,0,0,1-.32-1.79A4.19,4.19,0,0,1,57,8.45a2.08,2.08,0,0,1,.94-1,3.16,3.16,0,0,1,1.56-.34,2.85,2.85,0,0,1,1.43.33,2,2,0,0,1,.87,1A3.9,3.9,0,0,1,62.1,10v.49H57.74A3.79,3.79,0,0,0,58,11.69a1.34,1.34,0,0,0,.57.68,2,2,0,0,0,1,.22,2.39,2.39,0,0,0,.69-.1,1.37,1.37,0,0,0,.5-.29,1.19,1.19,0,0,0,.3-.43,1.69,1.69,0,0,0,.12-.56h1a2.62,2.62,0,0,1-.18.9,1.94,1.94,0,0,1-.51.69,2.17,2.17,0,0,1-.82.45A3.41,3.41,0,0,1,59.46,13.42Zm-1.7-3.69h3.29a2.92,2.92,0,0,0-.11-.85,1.59,1.59,0,0,0-.33-.57,1.24,1.24,0,0,0-.5-.31,1.83,1.83,0,0,0-.64-.1,1.93,1.93,0,0,0-.9.19,1.26,1.26,0,0,0-.56.6A2.69,2.69,0,0,0,57.76,9.73Z"/><path class="cls-2" d="M67.2,13.42a1.28,1.28,0,0,1-.74-.18.94.94,0,0,1-.38-.48,1.61,1.61,0,0,1-.12-.63V8.06h-.78V7.21H66l.19-1.7H67v1.7h1.14v.85H67V12a.74.74,0,0,0,.1.43.47.47,0,0,0,.39.14h.65v.67a1,1,0,0,1-.28.09l-.33.07Z"/><path class="cls-2" d="M69.21,13.28V4.93h1V8h.08a2.28,2.28,0,0,1,.52-.51,2.35,2.35,0,0,1,.64-.3,3.13,3.13,0,0,1,.77-.09,2.43,2.43,0,0,1,1,.19,1.45,1.45,0,0,1,.68.64,2.37,2.37,0,0,1,.25,1.19v4.19h-1v-4a1.83,1.83,0,0,0-.09-.63,1,1,0,0,0-.27-.38,1.08,1.08,0,0,0-.4-.2,2.89,2.89,0,0,0-.53,0,1.68,1.68,0,0,0-.81.2,1.48,1.48,0,0,0-.6.59,1.86,1.86,0,0,0-.23,1v3.57Z"/><path class="cls-2" d="M78.13,13.42a3.19,3.19,0,0,1-1.52-.34A2.18,2.18,0,0,1,75.68,12a4.41,4.41,0,0,1-.32-1.79,4.35,4.35,0,0,1,.32-1.79,2.08,2.08,0,0,1,.94-1,3.16,3.16,0,0,1,1.56-.34,2.85,2.85,0,0,1,1.43.33,2,2,0,0,1,.87,1A3.9,3.9,0,0,1,80.77,10v.49H76.41a3.79,3.79,0,0,0,.21,1.19,1.31,1.31,0,0,0,.58.68,1.93,1.93,0,0,0,1,.22,2.34,2.34,0,0,0,.69-.1,1.37,1.37,0,0,0,.5-.29,1.19,1.19,0,0,0,.3-.43,1.69,1.69,0,0,0,.12-.56h1a2.62,2.62,0,0,1-.18.9,1.94,1.94,0,0,1-.51.69,2.17,2.17,0,0,1-.82.45A3.41,3.41,0,0,1,78.13,13.42Zm-1.7-3.69h3.29a2.62,2.62,0,0,0-.11-.85,1.59,1.59,0,0,0-.33-.57,1.24,1.24,0,0,0-.5-.31,1.83,1.83,0,0,0-.64-.1,1.93,1.93,0,0,0-.9.19,1.31,1.31,0,0,0-.56.6A2.89,2.89,0,0,0,76.43,9.73Z"/><path class="cls-2" d="M26.34,23.8V15.88h3a4.93,4.93,0,0,1,2.13.42,2.89,2.89,0,0,1,1.34,1.29,4.76,4.76,0,0,1,.47,2.25,4.74,4.74,0,0,1-.47,2.24,2.91,2.91,0,0,1-1.34,1.3,4.93,4.93,0,0,1-2.13.42Zm1.1-.94h1.84a3.91,3.91,0,0,0,1.18-.17,2.27,2.27,0,0,0,.88-.51,2.12,2.12,0,0,0,.56-.9A3.94,3.94,0,0,0,32.09,20v-.23a4,4,0,0,0-.19-1.33,2.14,2.14,0,0,0-.55-.9,2.27,2.27,0,0,0-.88-.51,4,4,0,0,0-1.19-.17H27.44Z"/><path class="cls-2" d="M34.62,16.59V15.46h1v1.13Zm0,7.21V17.73h1V23.8Z"/><path class="cls-2" d="M37.46,23.8V18.58h-.9v-.85h.9v-1a2.2,2.2,0,0,1,.11-.68,1,1,0,0,1,.39-.51,1.35,1.35,0,0,1,.81-.21l.32,0,.3,0,.26.06v.73H39a.48.48,0,0,0-.55.55v1h2v-1a2.2,2.2,0,0,1,.11-.68,1.06,1.06,0,0,1,.4-.51,1.39,1.39,0,0,1,.81-.21l.31,0,.3,0,.26.06v.73H42a.5.5,0,0,0-.57.55v1h1.17v.85H41.47V23.8h-1V18.58h-2V23.8Z"/><path class="cls-2" d="M45.82,23.94a3.1,3.1,0,0,1-1.52-.34,2.16,2.16,0,0,1-.93-1,4.41,4.41,0,0,1-.32-1.79,4.43,4.43,0,0,1,.32-1.8,2.17,2.17,0,0,1,.94-1,3.33,3.33,0,0,1,1.56-.34,2.83,2.83,0,0,1,1.43.33,2,2,0,0,1,.87,1,3.94,3.94,0,0,1,.3,1.64V21H44.1a3.57,3.57,0,0,0,.22,1.2,1.29,1.29,0,0,0,.57.68,2,2,0,0,0,1,.21,2,2,0,0,0,.68-.1,1.35,1.35,0,0,0,.5-.28,1.25,1.25,0,0,0,.31-.44,1.63,1.63,0,0,0,.11-.55h1a2.18,2.18,0,0,1-.18.89,1.89,1.89,0,0,1-.51.7,2.39,2.39,0,0,1-.82.45A3.42,3.42,0,0,1,45.82,23.94Zm-1.69-3.68h3.29a2.7,2.7,0,0,0-.12-.86,1.54,1.54,0,0,0-.33-.56,1.3,1.3,0,0,0-.49-.32,2.15,2.15,0,0,0-.64-.1,1.94,1.94,0,0,0-.91.2,1.31,1.31,0,0,0-.56.6A2.9,2.9,0,0,0,44.13,20.26Z"/><path class="cls-2" d="M49.73,23.8V17.73h.82l.09,1h.08a2.65,2.65,0,0,1,.25-.54,1.29,1.29,0,0,1,.44-.43,1.32,1.32,0,0,1,.68-.17,1.58,1.58,0,0,1,.32,0l.22.06v.94h-.39a1.54,1.54,0,0,0-.67.13,1.26,1.26,0,0,0-.47.38,1.64,1.64,0,0,0-.27.58,2.71,2.71,0,0,0-.09.71V23.8Z"/><path class="cls-2" d="M55.87,23.94a3.08,3.08,0,0,1-1.52-.34,2.16,2.16,0,0,1-.93-1,4.25,4.25,0,0,1-.32-1.79,4.27,4.27,0,0,1,.32-1.8,2.17,2.17,0,0,1,.94-1,3.28,3.28,0,0,1,1.56-.34,2.88,2.88,0,0,1,1.43.33,2.14,2.14,0,0,1,.87,1,4,4,0,0,1,.29,1.64V21H54.15a3.59,3.59,0,0,0,.21,1.2,1.38,1.38,0,0,0,.57.68,2,2,0,0,0,1,.21,2.09,2.09,0,0,0,.69-.1,1.35,1.35,0,0,0,.5-.28,1.23,1.23,0,0,0,.3-.44,1.64,1.64,0,0,0,.12-.55h1a2.57,2.57,0,0,1-.18.89,1.89,1.89,0,0,1-.51.7,2.59,2.59,0,0,1-.82.45A3.5,3.5,0,0,1,55.87,23.94Zm-1.7-3.68h3.29a3,3,0,0,0-.11-.86,1.54,1.54,0,0,0-.33-.56,1.26,1.26,0,0,0-.5-.32,2.1,2.1,0,0,0-.64-.1,1.93,1.93,0,0,0-.9.2,1.33,1.33,0,0,0-.57.6A2.9,2.9,0,0,0,54.17,20.26Z"/><path class="cls-2" d="M59.77,23.8V17.73h.82l.09.91h.08a2.91,2.91,0,0,1,.55-.6A2.17,2.17,0,0,1,62,17.7a3,3,0,0,1,.81-.11,2.46,2.46,0,0,1,1,.2,1.48,1.48,0,0,1,.68.63,2.51,2.51,0,0,1,.25,1.19V23.8h-1V19.75a1.58,1.58,0,0,0-.1-.62.89.89,0,0,0-.26-.38.93.93,0,0,0-.41-.2,2.06,2.06,0,0,0-.52-.06,1.63,1.63,0,0,0-.81.21,1.53,1.53,0,0,0-.61.6,1.84,1.84,0,0,0-.22.94V23.8Z"/><path class="cls-2" d="M68.58,23.94a2.91,2.91,0,0,1-1.47-.34,2.13,2.13,0,0,1-.9-1.05,4.58,4.58,0,0,1-.31-1.78A4.55,4.55,0,0,1,66.21,19a2.14,2.14,0,0,1,.91-1,3,3,0,0,1,1.5-.35,3.51,3.51,0,0,1,1.08.16,1.94,1.94,0,0,1,.75.48,1.88,1.88,0,0,1,.45.75A3.35,3.35,0,0,1,71,20H70a2.2,2.2,0,0,0-.14-.87,1,1,0,0,0-.46-.51,1.73,1.73,0,0,0-.82-.17,1.61,1.61,0,0,0-.87.23,1.42,1.42,0,0,0-.57.71,3.47,3.47,0,0,0-.2,1.28v.24a3.69,3.69,0,0,0,.19,1.25,1.51,1.51,0,0,0,.56.73,1.72,1.72,0,0,0,.9.23,1.58,1.58,0,0,0,.84-.19,1,1,0,0,0,.46-.53,2.09,2.09,0,0,0,.15-.83h1a3.21,3.21,0,0,1-.14.95,2.07,2.07,0,0,1-.45.76,1.94,1.94,0,0,1-.76.5A3.07,3.07,0,0,1,68.58,23.94Z"/><path class="cls-2" d="M74.69,23.94a3.08,3.08,0,0,1-1.52-.34,2.16,2.16,0,0,1-.93-1,4.25,4.25,0,0,1-.32-1.79,4.27,4.27,0,0,1,.32-1.8,2.17,2.17,0,0,1,.94-1,3.28,3.28,0,0,1,1.56-.34,2.88,2.88,0,0,1,1.43.33,2.14,2.14,0,0,1,.87,1,4,4,0,0,1,.29,1.64V21H73a3.59,3.59,0,0,0,.21,1.2,1.38,1.38,0,0,0,.57.68,2,2,0,0,0,1,.21,2.09,2.09,0,0,0,.69-.1,1.35,1.35,0,0,0,.5-.28,1.23,1.23,0,0,0,.3-.44,1.64,1.64,0,0,0,.12-.55h1a2.57,2.57,0,0,1-.18.89,1.89,1.89,0,0,1-.51.7,2.59,2.59,0,0,1-.82.45A3.5,3.5,0,0,1,74.69,23.94ZM73,20.26h3.29a3,3,0,0,0-.11-.86,1.54,1.54,0,0,0-.33-.56,1.26,1.26,0,0,0-.5-.32,2.1,2.1,0,0,0-.64-.1,1.93,1.93,0,0,0-.9.2,1.33,1.33,0,0,0-.57.6A2.9,2.9,0,0,0,73,20.26Z"/></g></g></svg>