<svg width="577" height="87" viewBox="0 0 577 87" fill="none" xmlns="http://www.w3.org/2000/svg">
<path d="M8.024 21.312H21.032V17.136H8.024V5.808H25.4V1.44H2.984V36H8.024V21.312ZM32.6495 6.816C33.4175 6.816 34.0895 6.576 34.6655 6C35.1935 5.424 35.4815 4.752 35.4815 3.888C35.4815 3.168 35.1935 2.544 34.6655 2.016C34.0895 1.488 33.4175 1.2 32.6495 1.2C31.7375 1.2 31.0175 1.488 30.4415 2.016C29.8655 2.544 29.6255 3.168 29.6255 3.888C29.6255 4.752 29.8655 5.472 30.4415 6C31.0175 6.576 31.7375 6.816 32.6495 6.816ZM30.0095 36H35.0495V10.992H30.0095V36ZM55.1581 10.272C52.9981 10.272 51.2221 10.752 49.7821 11.616C48.3421 12.528 47.3341 13.536 46.7101 14.688V10.992H41.6701V36H46.7101V21.888C46.7101 19.968 47.3341 18.24 48.6301 16.8C49.9261 15.36 51.5581 14.64 53.5261 14.64C55.0621 14.64 56.3101 15.216 57.2221 16.272C58.0861 17.328 58.5661 18.72 58.5661 20.4V36H63.6061V19.344C63.6061 16.752 62.8381 14.592 61.3501 12.864C59.8141 11.136 57.7501 10.272 55.1581 10.272ZM88.4937 0.239997V14.352C87.6297 13.2 86.5257 12.192 85.1337 11.424C83.6937 10.656 82.2057 10.272 80.6217 10.272C77.2617 10.272 74.4777 11.472 72.2697 13.776C70.0617 16.08 69.0057 19.296 69.0057 23.424C69.0057 27.504 70.1097 30.72 72.3177 33.12C74.5257 35.52 77.2617 36.72 80.6217 36.72C82.4457 36.72 84.0777 36.288 85.4697 35.328C86.8137 34.416 87.8217 33.312 88.4937 32.016V36H93.4857V0.239997H88.4937ZM81.1497 32.448C79.0377 32.448 77.3577 31.632 76.0137 30C74.6697 28.368 74.0457 26.16 74.0457 23.328C74.0457 20.544 74.6697 18.384 76.0137 16.896C77.3097 15.408 79.0377 14.64 81.1497 14.64C83.2617 14.64 84.9897 15.408 86.3817 16.944C87.7257 18.48 88.4457 20.64 88.4457 23.424C88.4457 26.16 87.7257 28.368 86.3337 30C84.8937 31.632 83.1657 32.448 81.1497 32.448ZM126.058 4.896C127.114 4.896 128.17 5.088 129.322 5.424V1.392C127.882 0.959999 126.634 0.719999 125.482 0.719999C122.746 0.719999 120.538 1.488 118.858 2.976C117.178 4.464 116.362 6.768 116.362 9.936V10.992H111.658V14.976H116.362V36H121.402V14.976H127.642V10.992H121.402V9.504C121.402 6.432 122.938 4.896 126.058 4.896ZM143.946 10.752C142.362 10.752 141.018 11.232 139.866 12.096C138.714 13.008 137.85 14.16 137.274 15.504V10.992H132.234V36H137.274V23.76C137.274 21.264 137.898 19.296 139.146 17.856C140.394 16.416 141.93 15.696 143.85 15.696C144.762 15.696 145.722 15.888 146.778 16.176V11.184C145.77 10.896 144.81 10.752 143.946 10.752ZM161.687 10.272C158.039 10.272 155.111 11.52 152.807 13.968C150.503 16.464 149.351 19.68 149.351 23.616C149.351 27.552 150.503 30.72 152.807 33.12C155.111 35.52 158.039 36.72 161.687 36.72C164.567 36.72 167.015 36.048 169.031 34.656C171.047 33.264 172.295 31.152 172.871 28.32H167.783C167.399 29.76 166.679 30.816 165.623 31.536C164.519 32.304 163.223 32.64 161.687 32.64C159.527 32.64 157.751 31.872 156.359 30.24C154.919 28.656 154.199 26.544 154.151 23.904H173.159C173.159 23.568 173.207 23.088 173.207 22.512C173.207 18.816 172.199 15.84 170.087 13.632C167.975 11.424 165.143 10.272 161.687 10.272ZM154.535 20.256C155.015 18.336 155.879 16.848 157.175 15.792C158.471 14.784 160.007 14.256 161.831 14.256C163.511 14.256 164.903 14.832 166.055 15.888C167.159 16.992 167.783 18.432 167.879 20.256H154.535ZM189.707 10.272C186.059 10.272 183.131 11.52 180.827 13.968C178.523 16.464 177.371 19.68 177.371 23.616C177.371 27.552 178.523 30.72 180.827 33.12C183.131 35.52 186.059 36.72 189.707 36.72C192.587 36.72 195.035 36.048 197.051 34.656C199.067 33.264 200.315 31.152 200.891 28.32H195.803C195.419 29.76 194.699 30.816 193.643 31.536C192.539 32.304 191.243 32.64 189.707 32.64C187.547 32.64 185.771 31.872 184.379 30.24C182.939 28.656 182.219 26.544 182.171 23.904H201.179C201.179 23.568 201.227 23.088 201.227 22.512C201.227 18.816 200.219 15.84 198.107 13.632C195.995 11.424 193.163 10.272 189.707 10.272ZM182.555 20.256C183.035 18.336 183.899 16.848 185.195 15.792C186.491 14.784 188.027 14.256 189.851 14.256C191.531 14.256 192.923 14.832 194.075 15.888C195.179 16.992 195.803 18.432 195.899 20.256H182.555ZM206.638 0.239997V36H211.678V0.239997H206.638ZM227.95 10.272C225.022 10.272 222.574 11.04 220.654 12.528C218.686 14.016 217.582 16.08 217.39 18.768L222.19 18.72C222.286 17.376 222.91 16.32 223.966 15.456C225.022 14.64 226.318 14.208 227.854 14.208C229.438 14.208 230.782 14.64 231.838 15.408C232.894 16.224 233.422 17.424 233.422 18.96V20.064L229.342 20.496C221.566 21.264 217.726 24.336 217.726 29.664C217.726 31.776 218.446 33.456 219.982 34.656C221.47 35.904 223.294 36.48 225.406 36.48C227.422 36.48 229.054 36.144 230.302 35.424C231.502 34.752 232.51 33.696 233.374 32.304V36H238.222V19.296C238.222 16.176 237.214 13.872 235.294 12.432C233.374 10.992 230.926 10.272 227.95 10.272ZM226.606 32.544C225.358 32.544 224.398 32.256 223.678 31.632C222.958 31.008 222.622 30.192 222.622 29.184C222.622 27.84 223.198 26.736 224.398 25.872C225.55 25.008 227.134 24.48 229.15 24.24L233.374 23.712V25.584C233.374 27.792 232.702 29.472 231.454 30.72C230.206 31.968 228.574 32.544 226.606 32.544ZM258.401 10.272C256.241 10.272 254.465 10.752 253.025 11.616C251.585 12.528 250.577 13.536 249.953 14.688V10.992H244.913V36H249.953V21.888C249.953 19.968 250.577 18.24 251.873 16.8C253.169 15.36 254.801 14.64 256.769 14.64C258.305 14.64 259.553 15.216 260.465 16.272C261.329 17.328 261.809 18.72 261.809 20.4V36H266.849V19.344C266.849 16.752 266.081 14.592 264.593 12.864C263.057 11.136 260.993 10.272 258.401 10.272ZM291.016 19.296H295.96C295.576 16.416 294.328 14.16 292.264 12.624C290.152 11.088 287.56 10.272 284.488 10.272C280.984 10.272 278.056 11.52 275.752 14.016C273.4 16.512 272.248 19.776 272.248 23.712C272.248 27.648 273.4 30.816 275.752 33.168C278.104 35.568 281.08 36.72 284.632 36.72C287.704 36.72 290.296 35.952 292.408 34.368C294.52 32.784 295.768 30.528 296.056 27.552H291.064C290.776 29.136 290.056 30.336 288.904 31.152C287.752 31.968 286.312 32.352 284.68 32.352C282.568 32.352 280.84 31.584 279.4 29.952C277.96 28.368 277.24 26.256 277.24 23.616C277.24 21.024 277.96 18.864 279.4 17.184C280.84 15.552 282.616 14.688 284.68 14.688C286.216 14.688 287.608 15.072 288.76 15.84C289.912 16.608 290.632 17.76 291.016 19.296ZM312.557 10.272C308.909 10.272 305.981 11.52 303.677 13.968C301.373 16.464 300.221 19.68 300.221 23.616C300.221 27.552 301.373 30.72 303.677 33.12C305.981 35.52 308.909 36.72 312.557 36.72C315.437 36.72 317.885 36.048 319.901 34.656C321.917 33.264 323.165 31.152 323.741 28.32H318.653C318.269 29.76 317.549 30.816 316.493 31.536C315.389 32.304 314.093 32.64 312.557 32.64C310.397 32.64 308.621 31.872 307.229 30.24C305.789 28.656 305.069 26.544 305.021 23.904H324.029C324.029 23.568 324.077 23.088 324.077 22.512C324.077 18.816 323.069 15.84 320.957 13.632C318.845 11.424 316.013 10.272 312.557 10.272ZM305.405 20.256C305.885 18.336 306.749 16.848 308.045 15.792C309.341 14.784 310.877 14.256 312.701 14.256C314.381 14.256 315.773 14.832 316.925 15.888C318.029 16.992 318.653 18.432 318.749 20.256H305.405ZM14.552 54.896C15.608 54.896 16.664 55.088 17.816 55.424V51.392C16.376 50.96 15.128 50.72 13.976 50.72C11.24 50.72 9.032 51.488 7.352 52.976C5.672 54.464 4.856 56.768 4.856 59.936V60.992H0.152V64.976H4.856V86H9.896V64.976H16.136V60.992H9.896V59.504C9.896 56.432 11.432 54.896 14.552 54.896ZM32.4403 60.752C30.8563 60.752 29.5123 61.232 28.3603 62.096C27.2083 63.008 26.3443 64.16 25.7683 65.504V60.992H20.7283V86H25.7683V73.76C25.7683 71.264 26.3923 69.296 27.6403 67.856C28.8883 66.416 30.4243 65.696 32.3443 65.696C33.2563 65.696 34.2163 65.888 35.2723 66.176V61.184C34.2643 60.896 33.3043 60.752 32.4403 60.752ZM37.8451 73.52C37.8451 77.648 39.0451 80.912 41.4451 83.216C43.8451 85.568 46.8691 86.72 50.4691 86.72C54.0691 86.72 57.0451 85.568 59.4451 83.216C61.8451 80.912 63.0451 77.648 63.0451 73.52C63.0451 69.44 61.8451 66.224 59.4451 63.824C57.0451 61.472 54.0211 60.272 50.4691 60.272C46.8691 60.272 43.8451 61.472 41.4451 63.824C39.0451 66.224 37.8451 69.44 37.8451 73.52ZM42.8371 73.52C42.8371 70.688 43.5571 68.48 45.0451 66.944C46.5331 65.408 48.3571 64.592 50.4691 64.592C52.5811 64.592 54.3571 65.36 55.8451 66.896C57.2851 68.432 58.0531 70.64 58.0531 73.52C58.0531 76.4 57.2851 78.608 55.8451 80.144C54.3571 81.68 52.5811 82.448 50.4691 82.448C48.3571 82.448 46.5331 81.68 45.0451 80.144C43.5571 78.608 42.8371 76.4 42.8371 73.52ZM96.2622 60.272C94.1502 60.272 92.4222 60.8 90.9823 61.76C89.5422 62.72 88.4862 63.92 87.8142 65.36C87.4782 63.92 86.7582 62.672 85.6542 61.712C84.5022 60.752 83.1582 60.272 81.5262 60.272C79.6542 60.272 78.0222 60.752 76.5822 61.664C75.1422 62.576 74.1342 63.632 73.5102 64.88V60.992H68.5182V86H73.5102V72.128C73.5102 69.824 74.0862 68 75.2382 66.656C76.3902 65.36 77.7342 64.688 79.3182 64.688C80.6622 64.688 81.7182 65.216 82.5822 66.176C83.4462 67.136 83.8782 68.384 83.8782 69.92V86H88.8702V72.128C88.8702 69.824 89.3982 68.048 90.5503 66.704C91.7022 65.36 93.0942 64.688 94.8222 64.688C96.1662 64.688 97.2702 65.168 98.0382 66.032C98.8062 66.944 99.2382 68.24 99.2382 69.872V86H104.278V68.432C104.278 65.84 103.558 63.824 102.166 62.384C100.726 60.992 98.7583 60.272 96.2622 60.272ZM134.585 60.272C131.657 60.272 129.209 61.04 127.289 62.528C125.321 64.016 124.217 66.08 124.025 68.768L128.825 68.72C128.921 67.376 129.545 66.32 130.601 65.456C131.657 64.64 132.953 64.208 134.489 64.208C136.073 64.208 137.417 64.64 138.473 65.408C139.529 66.224 140.057 67.424 140.057 68.96V70.064L135.977 70.496C128.201 71.264 124.361 74.336 124.361 79.664C124.361 81.776 125.081 83.456 126.617 84.656C128.105 85.904 129.929 86.48 132.041 86.48C134.057 86.48 135.689 86.144 136.937 85.424C138.137 84.752 139.145 83.696 140.009 82.304V86H144.857V69.296C144.857 66.176 143.849 63.872 141.929 62.432C140.009 60.992 137.561 60.272 134.585 60.272ZM133.241 82.544C131.993 82.544 131.033 82.256 130.313 81.632C129.593 81.008 129.257 80.192 129.257 79.184C129.257 77.84 129.833 76.736 131.033 75.872C132.185 75.008 133.769 74.48 135.785 74.24L140.009 73.712V75.584C140.009 77.792 139.337 79.472 138.089 80.72C136.841 81.968 135.209 82.544 133.241 82.544ZM151.547 50.24V86H156.587V50.24H151.547ZM163.208 50.24V86H168.248V50.24H163.208ZM192.523 77.744H187.579C187.579 80.72 188.635 82.976 190.747 84.464C192.811 86 195.307 86.72 198.235 86.72C200.923 86.72 203.227 86.096 205.147 84.848C207.067 83.6 208.027 81.68 208.027 79.04C208.027 77.072 207.307 75.392 205.915 74.048C204.523 72.704 202.555 71.84 200.011 71.36C197.899 70.976 196.267 70.544 195.211 69.968C194.107 69.44 193.579 68.672 193.579 67.616C193.579 66.512 194.011 65.648 194.923 65.072C195.787 64.496 196.891 64.16 198.139 64.16C199.579 64.16 200.779 64.592 201.739 65.408C202.699 66.272 203.227 67.328 203.275 68.576H208.123C208.075 65.936 207.067 63.92 205.051 62.48C203.035 61.04 200.683 60.32 198.043 60.32C195.547 60.32 193.339 60.992 191.419 62.288C189.499 63.584 188.587 65.456 188.587 67.856C188.587 70.16 189.403 71.888 191.131 72.944C192.811 74.048 195.211 74.912 198.331 75.488C201.499 76.064 203.083 77.36 203.083 79.376C203.083 80.528 202.603 81.392 201.739 81.968C200.827 82.544 199.675 82.832 198.283 82.832C196.651 82.832 195.259 82.4 194.203 81.44C193.099 80.528 192.523 79.28 192.523 77.744ZM216.345 56.816C217.113 56.816 217.785 56.576 218.361 56C218.889 55.424 219.177 54.752 219.177 53.888C219.177 53.168 218.889 52.544 218.361 52.016C217.785 51.488 217.113 51.2 216.345 51.2C215.433 51.2 214.713 51.488 214.137 52.016C213.561 52.544 213.321 53.168 213.321 53.888C213.321 54.752 213.561 55.472 214.137 56C214.713 56.576 215.433 56.816 216.345 56.816ZM213.705 86H218.745V60.992H213.705V86ZM243.654 50.24V64.352C242.79 63.2 241.686 62.192 240.294 61.424C238.854 60.656 237.366 60.272 235.782 60.272C232.422 60.272 229.638 61.472 227.43 63.776C225.222 66.08 224.166 69.296 224.166 73.424C224.166 77.504 225.27 80.72 227.478 83.12C229.686 85.52 232.422 86.72 235.782 86.72C237.606 86.72 239.238 86.288 240.63 85.328C241.974 84.416 242.982 83.312 243.654 82.016V86H248.646V50.24H243.654ZM236.31 82.448C234.198 82.448 232.518 81.632 231.174 80C229.83 78.368 229.206 76.16 229.206 73.328C229.206 70.544 229.83 68.384 231.174 66.896C232.47 65.408 234.198 64.64 236.31 64.64C238.422 64.64 240.15 65.408 241.542 66.944C242.886 68.48 243.606 70.64 243.606 73.424C243.606 76.16 242.886 78.368 241.494 80C240.054 81.632 238.326 82.448 236.31 82.448ZM266.444 60.272C262.796 60.272 259.868 61.52 257.564 63.968C255.26 66.464 254.108 69.68 254.108 73.616C254.108 77.552 255.26 80.72 257.564 83.12C259.868 85.52 262.796 86.72 266.444 86.72C269.324 86.72 271.772 86.048 273.788 84.656C275.804 83.264 277.052 81.152 277.628 78.32H272.54C272.156 79.76 271.436 80.816 270.38 81.536C269.276 82.304 267.98 82.64 266.444 82.64C264.284 82.64 262.508 81.872 261.116 80.24C259.676 78.656 258.956 76.544 258.908 73.904H277.916C277.916 73.568 277.964 73.088 277.964 72.512C277.964 68.816 276.956 65.84 274.844 63.632C272.732 61.424 269.9 60.272 266.444 60.272ZM259.292 70.256C259.772 68.336 260.636 66.848 261.932 65.792C263.228 64.784 264.764 64.256 266.588 64.256C268.268 64.256 269.66 64.832 270.812 65.888C271.916 66.992 272.54 68.432 272.636 70.256H259.292ZM286.931 77.744H281.987C281.987 80.72 283.043 82.976 285.155 84.464C287.219 86 289.715 86.72 292.643 86.72C295.331 86.72 297.635 86.096 299.555 84.848C301.475 83.6 302.435 81.68 302.435 79.04C302.435 77.072 301.715 75.392 300.323 74.048C298.931 72.704 296.963 71.84 294.419 71.36C292.307 70.976 290.675 70.544 289.619 69.968C288.515 69.44 287.987 68.672 287.987 67.616C287.987 66.512 288.419 65.648 289.331 65.072C290.195 64.496 291.299 64.16 292.547 64.16C293.987 64.16 295.187 64.592 296.147 65.408C297.107 66.272 297.635 67.328 297.683 68.576H302.531C302.483 65.936 301.475 63.92 299.459 62.48C297.443 61.04 295.091 60.32 292.451 60.32C289.955 60.32 287.747 60.992 285.827 62.288C283.907 63.584 282.995 65.456 282.995 67.856C282.995 70.16 283.811 71.888 285.539 72.944C287.219 74.048 289.619 74.912 292.739 75.488C295.907 76.064 297.491 77.36 297.491 79.376C297.491 80.528 297.011 81.392 296.147 81.968C295.235 82.544 294.083 82.832 292.691 82.832C291.059 82.832 289.667 82.4 288.611 81.44C287.507 80.528 286.931 79.28 286.931 77.744Z" fill="#F1F4CB"/>
<path d="M361.255 29.952C360.103 32.096 358.759 33.728 357.223 34.848C355.719 35.936 354.071 36.48 352.279 36.48C349.975 36.48 348.135 35.728 346.759 34.224C345.415 32.688 344.743 30.624 344.743 28.032C344.743 23.744 346.023 20.016 348.583 16.848C351.143 13.648 354.231 12.048 357.847 12.048C359.575 12.048 361.031 12.56 362.215 13.584C363.431 14.576 364.151 15.856 364.375 17.424L367.351 4.992C367.447 4.544 367.511 4.192 367.543 3.936C367.575 3.648 367.591 3.408 367.591 3.216C367.591 2.576 367.431 2.048 367.111 1.632C366.791 1.184 366.135 0.687999 365.143 0.143998V0.0479994H373.975L366.295 31.584C366.231 31.744 366.183 31.904 366.151 32.064C366.151 32.224 366.151 32.368 366.151 32.496C366.151 33.072 366.327 33.536 366.679 33.888C367.063 34.208 367.591 34.368 368.263 34.368C368.647 34.368 369.047 34.304 369.463 34.176C369.911 34.048 370.375 33.872 370.855 33.648L370.903 33.744C370.007 34.672 369.079 35.36 368.119 35.808C367.159 36.256 366.151 36.48 365.095 36.48C363.783 36.48 362.743 36.128 361.975 35.424C361.207 34.72 360.823 33.76 360.823 32.544C360.823 32.32 360.855 31.968 360.919 31.488C361.015 31.008 361.127 30.496 361.255 29.952ZM359.239 13.872C356.807 13.872 354.695 15.36 352.903 18.336C351.143 21.312 350.263 24.608 350.263 28.224C350.263 30.08 350.631 31.504 351.367 32.496C352.103 33.456 353.191 33.936 354.631 33.936C356.295 33.936 357.831 33.2 359.239 31.728C360.647 30.224 361.655 28.256 362.263 25.824L363.367 21.552C363.495 21.104 363.591 20.656 363.655 20.208C363.719 19.76 363.751 19.312 363.751 18.864C363.751 17.36 363.319 16.16 362.455 15.264C361.623 14.336 360.551 13.872 359.239 13.872ZM382.606 36.48C379.79 36.48 377.518 35.616 375.79 33.888C374.094 32.16 373.246 29.872 373.246 27.024C373.246 23.024 374.67 19.536 377.518 16.56C380.366 13.552 383.774 12.048 387.742 12.048C389.79 12.048 391.454 12.528 392.734 13.488C394.046 14.448 394.702 15.696 394.702 17.232C394.702 19.632 393.358 21.488 390.67 22.8C387.982 24.112 384.062 24.832 378.91 24.96C378.878 25.344 378.846 25.728 378.814 26.112C378.782 26.496 378.766 26.864 378.766 27.216C378.766 29.488 379.294 31.216 380.35 32.4C381.406 33.584 382.926 34.176 384.91 34.176C386.35 34.176 387.694 33.84 388.942 33.168C390.222 32.464 391.438 31.392 392.59 29.952H392.782C391.822 32 390.446 33.6 388.654 34.752C386.894 35.904 384.878 36.48 382.606 36.48ZM390.142 15.792C390.142 14.928 389.934 14.24 389.518 13.728C389.102 13.216 388.526 12.96 387.79 12.96C385.87 12.96 384.046 14.096 382.318 16.368C380.622 18.608 379.518 21.28 379.006 24.384C382.59 24.064 385.342 23.168 387.262 21.696C389.182 20.224 390.142 18.256 390.142 15.792ZM402.793 27.456C402.793 29.472 403.257 31.072 404.185 32.256C405.145 33.44 406.441 34.032 408.073 34.032C410.537 34.032 412.633 32.736 414.361 30.144C416.089 27.552 416.953 24.64 416.953 21.408C416.953 19.744 416.585 18.448 415.849 17.52C415.145 16.592 414.137 16.128 412.825 16.128C412.121 16.128 411.513 16.272 411.001 16.56C410.489 16.848 410.121 17.248 409.897 17.76C409.865 17.664 409.849 17.568 409.849 17.472C409.849 17.376 409.849 17.248 409.849 17.088C409.849 15.616 410.281 14.416 411.145 13.488C412.041 12.528 413.161 12.048 414.505 12.048C416.105 12.048 417.353 12.624 418.249 13.776C419.145 14.928 419.593 16.496 419.593 18.48C419.593 20.496 419.225 22.576 418.489 24.72C417.785 26.832 416.793 28.736 415.513 30.432C414.073 32.384 412.409 33.888 410.521 34.944C408.665 35.968 406.713 36.48 404.665 36.48C402.425 36.48 400.649 35.872 399.337 34.656C398.057 33.408 397.417 31.744 397.417 29.664C397.417 27.904 398.025 26.064 399.241 24.144C400.457 22.192 402.681 19.648 405.913 16.512L403.897 16.608C401.401 16.768 399.705 17.024 398.809 17.376C397.945 17.728 397.257 18.4 396.745 19.392C396.713 19.328 396.697 19.264 396.697 19.2C396.697 19.104 396.697 18.992 396.697 18.864C396.697 17.008 397.129 15.472 397.993 14.256C398.857 13.04 399.977 12.432 401.353 12.432C401.705 12.432 402.073 12.48 402.457 12.576C402.841 12.672 403.417 12.88 404.185 13.2C404.889 13.488 405.433 13.696 405.817 13.824C406.233 13.92 406.617 14 406.969 14.064L408.121 12.24H409.129C406.473 16.816 404.745 20.096 403.945 22.08C403.177 24.064 402.793 25.856 402.793 27.456ZM431.356 36.48C428.54 36.48 426.268 35.616 424.54 33.888C422.844 32.16 421.996 29.872 421.996 27.024C421.996 23.024 423.42 19.536 426.268 16.56C429.116 13.552 432.524 12.048 436.492 12.048C438.54 12.048 440.204 12.528 441.484 13.488C442.796 14.448 443.452 15.696 443.452 17.232C443.452 19.632 442.108 21.488 439.42 22.8C436.732 24.112 432.812 24.832 427.66 24.96C427.628 25.344 427.596 25.728 427.564 26.112C427.532 26.496 427.516 26.864 427.516 27.216C427.516 29.488 428.044 31.216 429.1 32.4C430.156 33.584 431.676 34.176 433.66 34.176C435.1 34.176 436.444 33.84 437.692 33.168C438.972 32.464 440.188 31.392 441.34 29.952H441.532C440.572 32 439.196 33.6 437.404 34.752C435.644 35.904 433.628 36.48 431.356 36.48ZM438.892 15.792C438.892 14.928 438.684 14.24 438.268 13.728C437.852 13.216 437.276 12.96 436.54 12.96C434.62 12.96 432.796 14.096 431.068 16.368C429.372 18.608 428.268 21.28 427.756 24.384C431.34 24.064 434.092 23.168 436.012 21.696C437.932 20.224 438.892 18.256 438.892 15.792ZM445.071 32.592C445.071 32.304 445.087 32.032 445.119 31.776C445.151 31.52 445.199 31.28 445.263 31.056L451.599 4.992C451.695 4.512 451.759 4.128 451.791 3.84C451.855 3.52 451.887 3.312 451.887 3.216C451.887 2.576 451.727 2.048 451.407 1.632C451.087 1.184 450.415 0.687999 449.391 0.143998V0.0479994H458.223L450.543 31.584C450.479 31.744 450.431 31.904 450.399 32.064C450.399 32.224 450.399 32.368 450.399 32.496C450.399 33.072 450.591 33.536 450.975 33.888C451.359 34.208 451.871 34.368 452.511 34.368C452.895 34.368 453.295 34.304 453.711 34.176C454.159 34.048 454.623 33.872 455.103 33.648L455.151 33.744C454.255 34.672 453.327 35.36 452.367 35.808C451.407 36.256 450.399 36.48 449.343 36.48C448.031 36.48 446.991 36.128 446.223 35.424C445.455 34.72 445.071 33.776 445.071 32.592ZM467.364 36.48C464.484 36.48 462.148 35.632 460.356 33.936C458.596 32.208 457.7 29.888 457.668 26.976C457.668 22.912 459.012 19.408 461.7 16.464C464.42 13.52 467.668 12.048 471.444 12.048C474.356 12.048 476.692 12.912 478.452 14.64C480.244 16.368 481.14 18.672 481.14 21.552C481.14 25.616 479.78 29.12 477.06 32.064C474.372 35.008 471.14 36.48 467.364 36.48ZM474.516 26.496C474.9 25.12 475.188 23.872 475.38 22.752C475.572 21.632 475.668 20.608 475.668 19.68C475.668 17.44 475.316 15.76 474.612 14.64C473.908 13.52 472.868 12.96 471.492 12.96C470.052 12.96 468.692 13.776 467.412 15.408C466.132 17.04 465.092 19.248 464.292 22.032C463.94 23.312 463.668 24.544 463.476 25.728C463.284 26.88 463.188 27.936 463.188 28.896C463.188 31.136 463.524 32.816 464.196 33.936C464.9 35.024 465.94 35.568 467.316 35.568C468.756 35.568 470.116 34.752 471.396 33.12C472.708 31.456 473.748 29.248 474.516 26.496ZM495.065 34.656C497.497 34.656 499.593 33.216 501.353 30.336C503.113 27.424 503.993 24.128 503.993 20.448C503.993 18.56 503.641 17.12 502.937 16.128C502.265 15.104 501.273 14.592 499.961 14.592C498.233 14.592 496.617 15.36 495.113 16.896C493.609 18.432 492.585 20.384 492.041 22.752L490.985 27.024C490.857 27.472 490.761 27.92 490.697 28.368C490.633 28.816 490.601 29.28 490.601 29.76C490.601 31.264 491.001 32.464 491.801 33.36C492.633 34.224 493.721 34.656 495.065 34.656ZM496.601 36.48C494.873 36.48 493.385 35.984 492.137 34.992C490.921 33.968 490.185 32.672 489.929 31.104L486.089 46.704H480.665L487.913 17.472C488.009 17.184 488.073 16.912 488.105 16.656C488.137 16.368 488.153 16.08 488.153 15.792C488.153 15.152 487.993 14.592 487.673 14.112C487.385 13.632 486.857 13.136 486.089 12.624V12.528H494.585L493.049 18.624C494.201 16.544 495.577 14.928 497.177 13.776C498.777 12.624 500.473 12.048 502.265 12.048C504.569 12.048 506.345 12.816 507.593 14.352C508.873 15.888 509.513 18.032 509.513 20.784C509.513 25.008 508.249 28.688 505.721 31.824C503.225 34.928 500.185 36.48 496.601 36.48ZM521.356 36.48C518.54 36.48 516.268 35.616 514.54 33.888C512.844 32.16 511.996 29.872 511.996 27.024C511.996 23.024 513.42 19.536 516.268 16.56C519.116 13.552 522.524 12.048 526.492 12.048C528.54 12.048 530.204 12.528 531.484 13.488C532.796 14.448 533.452 15.696 533.452 17.232C533.452 19.632 532.108 21.488 529.42 22.8C526.732 24.112 522.812 24.832 517.66 24.96C517.628 25.344 517.596 25.728 517.564 26.112C517.532 26.496 517.516 26.864 517.516 27.216C517.516 29.488 518.044 31.216 519.1 32.4C520.156 33.584 521.676 34.176 523.66 34.176C525.1 34.176 526.444 33.84 527.692 33.168C528.972 32.464 530.188 31.392 531.34 29.952H531.532C530.572 32 529.196 33.6 527.404 34.752C525.644 35.904 523.628 36.48 521.356 36.48ZM528.892 15.792C528.892 14.928 528.684 14.24 528.268 13.728C527.852 13.216 527.276 12.96 526.54 12.96C524.62 12.96 522.796 14.096 521.068 16.368C519.372 18.608 518.268 21.28 517.756 24.384C521.34 24.064 524.092 23.168 526.012 21.696C527.932 20.224 528.892 18.256 528.892 15.792ZM552.063 20.496C551.647 20.496 551.263 20.448 550.911 20.352C550.559 20.224 550.287 20.08 550.095 19.92C550.735 19.824 551.247 19.52 551.631 19.008C552.047 18.496 552.255 17.872 552.255 17.136C552.255 16.528 552.079 16.064 551.727 15.744C551.407 15.424 550.943 15.264 550.335 15.264C548.831 15.264 547.295 16.336 545.727 18.48C544.159 20.624 543.023 23.12 542.319 25.968L539.823 36H534.399L539.007 17.472C539.103 17.184 539.167 16.912 539.199 16.656C539.231 16.368 539.247 16.08 539.247 15.792C539.247 15.152 539.087 14.592 538.767 14.112C538.479 13.632 537.951 13.136 537.183 12.624V12.528H545.679L543.567 21.024C545.007 17.92 546.479 15.648 547.983 14.208C549.487 12.768 551.087 12.048 552.783 12.048C553.967 12.048 554.927 12.4 555.663 13.104C556.399 13.776 556.767 14.672 556.767 15.792C556.767 17.168 556.319 18.304 555.423 19.2C554.559 20.064 553.439 20.496 552.063 20.496ZM565.068 26.352C562.86 25.168 561.324 24.048 560.46 22.992C559.596 21.936 559.164 20.752 559.164 19.44C559.164 17.36 560.06 15.616 561.852 14.208C563.676 12.768 565.884 12.048 568.476 12.048C570.652 12.048 572.46 12.496 573.9 13.392C575.372 14.256 576.108 15.376 576.108 16.752C576.108 17.648 575.804 18.368 575.196 18.912C574.62 19.456 573.868 19.728 572.94 19.728C572.46 19.728 572.012 19.648 571.596 19.488C571.212 19.296 570.876 19.04 570.588 18.72C571.132 18.688 571.564 18.448 571.884 18C572.204 17.52 572.364 16.928 572.364 16.224C572.364 15.168 571.996 14.352 571.26 13.776C570.556 13.168 569.532 12.864 568.188 12.864C566.78 12.864 565.612 13.248 564.684 14.016C563.788 14.752 563.34 15.712 563.34 16.896C563.34 17.792 563.628 18.576 564.204 19.248C564.78 19.888 565.948 20.72 567.708 21.744C570.14 23.152 571.772 24.352 572.604 25.344C573.436 26.336 573.852 27.488 573.852 28.8C573.852 30.976 572.876 32.8 570.924 34.272C569.004 35.744 566.636 36.48 563.82 36.48C561.324 36.48 559.26 35.984 557.628 34.992C556.028 34 555.228 32.736 555.228 31.2C555.228 30.24 555.532 29.472 556.14 28.896C556.78 28.32 557.58 28.032 558.54 28.032C559.116 28.064 559.612 28.16 560.028 28.32C560.476 28.48 560.86 28.704 561.18 28.992C560.572 29.024 560.076 29.28 559.692 29.76C559.308 30.208 559.116 30.8 559.116 31.536C559.116 32.752 559.564 33.744 560.46 34.512C561.356 35.28 562.54 35.664 564.012 35.664C565.612 35.664 566.924 35.264 567.948 34.464C568.972 33.632 569.484 32.576 569.484 31.296C569.484 30.368 569.148 29.536 568.476 28.8C567.804 28.032 566.668 27.216 565.068 26.352Z" fill="#FF80AE"/>
</svg>
