<svg xmlns="http://www.w3.org/2000/svg" viewBox="0 0 546.7 33.82"><defs><style>.cls-1{fill:#221f20;}</style></defs><g id="Layer_2" data-name="Layer 2"><g id="Layer_1-2" data-name="Layer 1"><path class="cls-1" d="M10.69,26.23H6.24V6.34H0V2.21H16.93V6.34H10.69Z"/><path class="cls-1" d="M22.17,26.23H17.85V9.4h3.6V13c.88-2.58,2.46-3.86,4.75-3.86a6.36,6.36,0,0,1,1.88.29l-.76,4.13a4.58,4.58,0,0,0-1.48-.26,3.15,3.15,0,0,0-2.18.8,4.2,4.2,0,0,0-1.22,2.2,15.77,15.77,0,0,0-.27,3Z"/><path class="cls-1" d="M37.25,26.63a7.62,7.62,0,0,1-6-2.43,9.26,9.26,0,0,1-2.15-6.38,9.3,9.3,0,0,1,2.15-6.39,7.65,7.65,0,0,1,6-2.42,6.92,6.92,0,0,1,5.86,2.57q2,2.58,2,7.3H33.26a6,6,0,0,0,1.27,3.25,3.42,3.42,0,0,0,2.72,1.2A3.86,3.86,0,0,0,40.82,21l3.83,1A7.41,7.41,0,0,1,37.25,26.63Zm0-14.35a3.55,3.55,0,0,0-2.6,1,5.06,5.06,0,0,0-1.32,2.89h7.52a4.84,4.84,0,0,0-1.15-2.89A3.24,3.24,0,0,0,37.25,12.28Z"/><path class="cls-1" d="M62.5,26l-4.06.4a25.31,25.31,0,0,1-.53-2.58,6,6,0,0,1-5.38,2.77,6.33,6.33,0,0,1-4.11-1.27,4.35,4.35,0,0,1-1.56-3.58,4.46,4.46,0,0,1,2-3.89,9.27,9.27,0,0,1,5.4-1.39,29.76,29.76,0,0,1,3.33.17V16a3.51,3.51,0,0,0-.84-2.54,3.07,3.07,0,0,0-2.29-.85,3.92,3.92,0,0,0-2,.49,3.41,3.41,0,0,0-1.32,1.22l-3.43-1.85A6.21,6.21,0,0,1,50.47,10a9.41,9.41,0,0,1,4.37-1q7,0,7,7.42v4.33A22,22,0,0,0,62.5,26Zm-5.12-5.15a7.05,7.05,0,0,0,.2-1.55c-1-.09-2-.13-3-.13a4.82,4.82,0,0,0-2.55.58,1.8,1.8,0,0,0-.94,1.63A2,2,0,0,0,51.72,23a2.71,2.71,0,0,0,1.83.58A4.21,4.21,0,0,0,56,22.8,3.1,3.1,0,0,0,57.38,20.82Z"/><path class="cls-1" d="M75.53,13H71.24v7.62a2.54,2.54,0,0,0,.6,1.78,2.13,2.13,0,0,0,1.68.66,5.53,5.53,0,0,0,2-.39l.36,3.56a16.37,16.37,0,0,1-3.43.4A5.19,5.19,0,0,1,68.22,25a7.65,7.65,0,0,1-1.3-4.93V13H64.21V9.4h2.71V5.28l4.32-.86v5h4.29Z"/><path class="cls-1" d="M81.47,6.83a2.54,2.54,0,0,1-1.86-.76,2.5,2.5,0,0,1-.78-1.88,2.51,2.51,0,0,1,.78-1.83,2.62,2.62,0,0,1,3.73,0,2.53,2.53,0,0,1,.77,1.83,2.6,2.6,0,0,1-2.64,2.64Zm2.18,19.4H79.33V9.4h4.32Z"/><path class="cls-1" d="M92.86,26.23H88.53V9.4h3.7v3.21A6.05,6.05,0,0,1,97.9,9,5.06,5.06,0,0,1,102,10.66a7.27,7.27,0,0,1,1.4,4.82V26.23H99.06V16.5c0-2.38-.84-3.56-2.51-3.56a3.21,3.21,0,0,0-2.38.89A4.45,4.45,0,0,0,93,16.07a14,14,0,0,0-.13,2.34Z"/><path class="cls-1" d="M114,21.15a7.25,7.25,0,0,1-1.59-.13l-.82.92a1.51,1.51,0,0,0-.46.83c0,.26.19.4.59.4h4.75a7.21,7.21,0,0,1,4.74,1.3,4.16,4.16,0,0,1,1.53,3.31,5.29,5.29,0,0,1-2.19,4.33q-2.2,1.71-6.52,1.71-8,0-8.71-4.75l4.12-.82a2.06,2.06,0,0,0,1.18,1.86,6.89,6.89,0,0,0,3.41.68,6.09,6.09,0,0,0,3.25-.73,2.06,2.06,0,0,0,1.14-1.71c0-1.13-.85-1.69-2.54-1.69H111a4.15,4.15,0,0,1-2.83-.87,3.06,3.06,0,0,1-1-2.43,5.32,5.32,0,0,1,1.74-3.3l.37-.39A5.73,5.73,0,0,1,106.91,15a5.37,5.37,0,0,1,2-4.34A7.72,7.72,0,0,1,114,9a7.5,7.5,0,0,1,3.82,1L120,7.52l2.88,2.05-2.64,3a4.79,4.79,0,0,1,.82,2.67,5.28,5.28,0,0,1-2,4.29A7.76,7.76,0,0,1,114,21.15Zm-2.12-3.89A3,3,0,0,0,117,15.11a3,3,0,1,0-5.94,0A2.92,2.92,0,0,0,111.89,17.26Z"/><path class="cls-1" d="M137.93,26.1l-4.46.27a17.28,17.28,0,0,1-.59-4.62V2.21h4.32V19.47A29.28,29.28,0,0,0,137.93,26.1Z"/><path class="cls-1" d="M144.23,6.83a2.54,2.54,0,0,1-1.86-.76,2.5,2.5,0,0,1-.78-1.88,2.51,2.51,0,0,1,.78-1.83,2.62,2.62,0,0,1,3.73,0,2.53,2.53,0,0,1,.77,1.83,2.6,2.6,0,0,1-2.64,2.64Zm2.18,19.4h-4.32V9.4h4.32Z"/><path class="cls-1" d="M160,26.23h-5.21L149.08,9.4h4.59l3.76,13.4,3.83-13.4h4.45Z"/><path class="cls-1" d="M175,26.63a7.63,7.63,0,0,1-6-2.43,9.26,9.26,0,0,1-2.15-6.38A9.3,9.3,0,0,1,169,11.43,7.65,7.65,0,0,1,175,9a6.91,6.91,0,0,1,5.85,2.57q2,2.58,2,7.3H171a6,6,0,0,0,1.27,3.25,3.44,3.44,0,0,0,2.73,1.2A3.85,3.85,0,0,0,178.55,21l3.83,1A7.41,7.41,0,0,1,175,26.63Zm0-14.35a3.56,3.56,0,0,0-2.61,1,5.06,5.06,0,0,0-1.32,2.89h7.52a4.84,4.84,0,0,0-1.15-2.89A3.23,3.23,0,0,0,175,12.28Z"/><path class="cls-1" d="M190.76,26.23h-4.32V9.4H190V13c.88-2.58,2.47-3.86,4.75-3.86a6.31,6.31,0,0,1,1.88.29l-.75,4.13a4.63,4.63,0,0,0-1.49-.26,3.17,3.17,0,0,0-2.18.8,4.2,4.2,0,0,0-1.22,2.2,16.66,16.66,0,0,0-.26,3Z"/><path class="cls-1" d="M213.56,26.6a7.68,7.68,0,0,1-6-2.4,9.19,9.19,0,0,1-2.14-6.38,9.3,9.3,0,0,1,2.14-6.39,8.55,8.55,0,0,1,10.68-1,5.87,5.87,0,0,1,2.39,3.46l-3.76.79a3.65,3.65,0,0,0-6.16-.67,6.55,6.55,0,0,0-1,3.81,6.58,6.58,0,0,0,1,3.83A3.31,3.31,0,0,0,213.56,23a3.54,3.54,0,0,0,3.36-2.14l3.7.79a6.3,6.3,0,0,1-2.44,3.51A7.51,7.51,0,0,1,213.56,26.6Z"/><path class="cls-1" d="M237.91,26l-4.06.4a25.31,25.31,0,0,1-.53-2.58A5.94,5.94,0,0,1,228,26.56a6.29,6.29,0,0,1-4.11-1.27,4.33,4.33,0,0,1-1.57-3.58,4.47,4.47,0,0,1,2-3.89,9.26,9.26,0,0,1,5.39-1.39,29.51,29.51,0,0,1,3.33.17V16a3.51,3.51,0,0,0-.84-2.54,3.06,3.06,0,0,0-2.29-.85,4,4,0,0,0-2,.49,3.48,3.48,0,0,0-1.32,1.22l-3.43-1.85A6.21,6.21,0,0,1,225.88,10a9.48,9.48,0,0,1,4.38-1q7,0,7,7.42v4.33A21.92,21.92,0,0,0,237.91,26Zm-5.11-5.15a7.12,7.12,0,0,0,.19-1.55c-1-.09-2-.13-3-.13a4.83,4.83,0,0,0-2.56.58,1.8,1.8,0,0,0-.94,1.63,2,2,0,0,0,.68,1.63,2.7,2.7,0,0,0,1.83.58,4.18,4.18,0,0,0,2.47-.76A3.15,3.15,0,0,0,232.8,20.82Z"/><path class="cls-1" d="M246.19,26.23h-4.32V9.4h3.7v3.21A6.05,6.05,0,0,1,251.24,9a5.07,5.07,0,0,1,4.08,1.65,7.27,7.27,0,0,1,1.4,4.82V26.23H252.4V16.5c0-2.38-.84-3.56-2.51-3.56a3.21,3.21,0,0,0-2.38.89,4.38,4.38,0,0,0-1.18,2.24,13.74,13.74,0,0,0-.14,2.34Z"/><path class="cls-1" d="M268.1,26.6a7.67,7.67,0,0,1-6-2.4,9.14,9.14,0,0,1-2.15-6.38,9.26,9.26,0,0,1,2.15-6.39,8.54,8.54,0,0,1,10.67-1,5.83,5.83,0,0,1,2.39,3.46l-3.76.79a3.64,3.64,0,0,0-6.15-.67,6.55,6.55,0,0,0-1,3.81,6.58,6.58,0,0,0,1,3.83A3.3,3.3,0,0,0,268.1,23a3.56,3.56,0,0,0,3.37-2.14l3.7.79a6.31,6.31,0,0,1-2.45,3.51A7.47,7.47,0,0,1,268.1,26.6Z"/><path class="cls-1" d="M285.36,26.63a7.64,7.64,0,0,1-6-2.43,9.25,9.25,0,0,1-2.14-6.38,9.3,9.3,0,0,1,2.14-6.39,7.67,7.67,0,0,1,6-2.42,6.92,6.92,0,0,1,5.86,2.57q2,2.58,2,7.3H281.37a5.88,5.88,0,0,0,1.27,3.25,3.42,3.42,0,0,0,2.72,1.2A3.87,3.87,0,0,0,288.93,21l3.82,1A7.39,7.39,0,0,1,285.36,26.63Zm0-14.35a3.59,3.59,0,0,0-2.61,1,5,5,0,0,0-1.31,2.89H289a4.79,4.79,0,0,0-1.16-2.89A3.2,3.2,0,0,0,285.36,12.28Z"/><path class="cls-1" d="M301.13,26.23h-4.32V9.4h3.6V13c.88-2.58,2.46-3.86,4.75-3.86A6.36,6.36,0,0,1,307,9.4l-.76,4.13a4.58,4.58,0,0,0-1.48-.26,3.15,3.15,0,0,0-2.18.8,4.2,4.2,0,0,0-1.22,2.2,15.77,15.77,0,0,0-.27,3Z"/><path class="cls-1" d="M320,26.23,314.79,9.4h4.59l3.4,13.37L325.85,9.4H330L333,22.77l3.4-13.37h4.46l-5.25,16.83h-4.88l-2.94-11.81-2.91,11.81Z"/><path class="cls-1" d="M345.71,6.83a2.56,2.56,0,0,1-1.86-.76,2.5,2.5,0,0,1-.78-1.88,2.51,2.51,0,0,1,.78-1.83,2.62,2.62,0,0,1,3.73,0,2.53,2.53,0,0,1,.77,1.83,2.6,2.6,0,0,1-2.64,2.64Zm2.18,19.4h-4.32V9.4h4.32Z"/><path class="cls-1" d="M362.41,13h-4.29v7.62a2.58,2.58,0,0,0,.59,1.78,2.16,2.16,0,0,0,1.69.66,5.53,5.53,0,0,0,2-.39l.36,3.56a16.37,16.37,0,0,1-3.43.4A5.19,5.19,0,0,1,355.1,25a7.65,7.65,0,0,1-1.3-4.93V13h-2.71V9.4h2.71V5.28l4.32-.86v5h4.29Z"/><path class="cls-1" d="M370.53,26.23h-4.32v-24h4.32v9.64A5.64,5.64,0,0,1,375.58,9a5,5,0,0,1,4.07,1.65,7.22,7.22,0,0,1,1.4,4.82V26.23h-4.32V16.5c0-2.38-.84-3.56-2.51-3.56a3.17,3.17,0,0,0-2.37.89,4.39,4.39,0,0,0-1.19,2.24,6,6,0,0,0-.13,1.42Z"/><path class="cls-1" d="M395.28,23.43a1.47,1.47,0,0,0,.08,1.35,1.13,1.13,0,0,0,.94.43,2.08,2.08,0,0,0,1.4-.66,5.89,5.89,0,0,0,1.3-2.31l.5-1.35h.63l-.66,2a5.81,5.81,0,0,1-1.92,2.93,4.74,4.74,0,0,1-2.9.9,3.39,3.39,0,0,1-2.26-.66,2.73,2.73,0,0,1-.93-1.8,6.58,6.58,0,0,1,.28-2.59l5-17.39c.79,0,1.53-.07,2.23-.13a13.12,13.12,0,0,0,2-.34Zm8-14.22-.09.66H392.14l.17-.66Z"/><path class="cls-1" d="M406.59,26.23h-4L406.49,12a3,3,0,0,0,.2-1.38c-.06-.27-.26-.4-.59-.4a1.51,1.51,0,0,0-1.16.63,7.56,7.56,0,0,0-1.09,2.21l-.56,1.55h-.62l.85-2.48a5.9,5.9,0,0,1,1.16-2.06,4,4,0,0,1,1.52-1,4.88,4.88,0,0,1,1.68-.3,2.45,2.45,0,0,1,1.57.43,2,2,0,0,1,.66,1.13,4.63,4.63,0,0,1,.06,1.5,8.77,8.77,0,0,1-.28,1.56ZM415,9.5a2.64,2.64,0,0,0-1.48.51A6.94,6.94,0,0,0,412,11.65a17.12,17.12,0,0,0-1.66,2.95,46.13,46.13,0,0,0-1.74,4.46c-.59,1.75-1.19,3.81-1.78,6.18l.79-4.39c.68-2.31,1.33-4.24,1.93-5.79a24,24,0,0,1,1.78-3.73,5.93,5.93,0,0,1,1.87-2,4,4,0,0,1,2.14-.6,2.4,2.4,0,0,1,1.84.7,2.45,2.45,0,0,1,.64,1.71,3.08,3.08,0,0,1-.4,1.54,3,3,0,0,1-1,1.12,2.65,2.65,0,0,1-1.46.41,1.88,1.88,0,0,1-1.31-.43,1.58,1.58,0,0,1-.48-1.25,2.69,2.69,0,0,1,.33-1.32,3.35,3.35,0,0,1,.86-1,3.22,3.22,0,0,1,1.16-.57.37.37,0,0,0-.17-.1A.53.53,0,0,0,415,9.5Z"/><path class="cls-1" d="M421.61,25.18a2.17,2.17,0,0,0,1.35-.71,9.52,9.52,0,0,0,1.55-2A21.42,21.42,0,0,0,426,19.4a29.13,29.13,0,0,0,1.25-3.89l-.69,3.56a21.06,21.06,0,0,1-2,4.49A7.43,7.43,0,0,1,422.32,26a4.59,4.59,0,0,1-2.43.73,3.12,3.12,0,0,1-2.64-1.11,4.7,4.7,0,0,1-.86-2.95A12.6,12.6,0,0,1,417,19a19,19,0,0,1,1.56-3.73A18.48,18.48,0,0,1,420.81,12a12.13,12.13,0,0,1,2.74-2.36,5.49,5.49,0,0,1,2.91-.9,1.91,1.91,0,0,1,1.71.94,4.18,4.18,0,0,1,.3,2.86l-.36.2a4,4,0,0,0-.12-2.18,1.17,1.17,0,0,0-1.14-.79,2.42,2.42,0,0,0-1.6.79,10.4,10.4,0,0,0-1.66,2.14,20.4,20.4,0,0,0-1.5,3.07A22.66,22.66,0,0,0,421,19.34a17.36,17.36,0,0,0-.39,3.59,4.24,4.24,0,0,0,.25,1.74A.78.78,0,0,0,421.61,25.18Zm7.42-16c.79,0,1.54-.07,2.23-.14a12.84,12.84,0,0,0,2-.33L429,23.4a3.7,3.7,0,0,0-.18.8,1.41,1.41,0,0,0,.06.7.54.54,0,0,0,.55.28,1.63,1.63,0,0,0,1.09-.56,6.49,6.49,0,0,0,1.15-2.28l.5-1.49h.62L432,23.26a5.69,5.69,0,0,1-1.16,2.1,4.08,4.08,0,0,1-1.46,1,4.26,4.26,0,0,1-1.54.3,2.48,2.48,0,0,1-2.24-1,2.87,2.87,0,0,1-.33-1.79,13,13,0,0,1,.43-2.27Z"/><path class="cls-1" d="M439.13,26.23h-4.06l4-14.22a6.55,6.55,0,0,0,.2-.86,1.18,1.18,0,0,0-.05-.66c-.08-.17-.27-.26-.58-.26a1.46,1.46,0,0,0-1.13.61,7.91,7.91,0,0,0-1.11,2.23l-.56,1.55h-.63l.86-2.48a5.25,5.25,0,0,1,1.78-2.67,4.3,4.3,0,0,1,2.41-.73,2.82,2.82,0,0,1,1.67.43,2,2,0,0,1,.74,1.11,4.23,4.23,0,0,1,.07,1.48,14.11,14.11,0,0,1-.3,1.6Zm1.22-6a48.37,48.37,0,0,1,2.34-5.61,20.36,20.36,0,0,1,2.18-3.52,6.55,6.55,0,0,1,2.18-1.83,5.48,5.48,0,0,1,2.34-.53,3,3,0,0,1,2.26.71,2.6,2.6,0,0,1,.63,1.85,8,8,0,0,1-.45,2.43l-3.23,9.7a2.46,2.46,0,0,0-.17,1.33.61.61,0,0,0,.66.45,1.53,1.53,0,0,0,1-.56,6.6,6.6,0,0,0,1.17-2.28l.53-1.48h.63l-.83,2.41a5.33,5.33,0,0,1-1.17,2.11,4.05,4.05,0,0,1-1.51,1,5.09,5.09,0,0,1-1.6.28,3.57,3.57,0,0,1-1.47-.28,2.21,2.21,0,0,1-.94-.78,2.51,2.51,0,0,1-.37-1.62,9.93,9.93,0,0,1,.53-2.37l3-9.08a9.85,9.85,0,0,0,.27-1.07,2,2,0,0,0,0-.92c-.09-.26-.32-.38-.7-.38a2.33,2.33,0,0,0-1.51.77,11.21,11.21,0,0,0-1.72,2.16,29.68,29.68,0,0,0-1.78,3.24c-.6,1.23-1.16,2.57-1.7,4s-1,2.93-1.44,4.47Z"/><path class="cls-1" d="M456.29,25.74a2.49,2.49,0,0,0,.56.21,3,3,0,0,0,.82.09,2.91,2.91,0,0,0,2.1-.81,3,3,0,0,0,.84-2.26,5.78,5.78,0,0,0-.44-2.15,14.37,14.37,0,0,0-1.34-2.41c-.53-.77-1-1.53-1.44-2.27a5.09,5.09,0,0,1-.64-2.58,4.52,4.52,0,0,1,.69-2.49,4.81,4.81,0,0,1,2-1.7,6.77,6.77,0,0,1,3-.63,9.22,9.22,0,0,1,2.21.27,3.59,3.59,0,0,1,1.78,1,2.72,2.72,0,0,1,.69,2,2.71,2.71,0,0,1-.2,1,2.4,2.4,0,0,1-.59.88,1.53,1.53,0,0,1-1.06.36,1.43,1.43,0,0,1-1.15-.55,2.07,2.07,0,0,1-.46-1.4,3.56,3.56,0,0,1,.28-1.42,4.76,4.76,0,0,1,.67-1.15,2.63,2.63,0,0,0-1.32-.27,2.54,2.54,0,0,0-1.91.76,3,3,0,0,0-.73,2.15,3.92,3.92,0,0,0,.25,1.37,7.63,7.63,0,0,0,.69,1.32c.3.45.64,1,1,1.57A21.5,21.5,0,0,1,464,19.22a5.8,5.8,0,0,1,.53,2.39,4.56,4.56,0,0,1-.78,2.61A5.25,5.25,0,0,1,461.67,26a7.18,7.18,0,0,1-3.17.66,8.66,8.66,0,0,1-2.46-.35,4.13,4.13,0,0,1-1.91-1.14,3,3,0,0,1-.75-2.18,2.52,2.52,0,0,1,.42-1.4,1.38,1.38,0,0,1,1.27-.64,1.4,1.4,0,0,1,1.28.69,3.16,3.16,0,0,1,.43,1.72,4.65,4.65,0,0,1-.18,1.33C456.48,25.14,456.38,25.47,456.29,25.74Z"/><path class="cls-1" d="M474.47,4.42c.77-.06,1.51-.16,2.23-.28a12.82,12.82,0,0,0,2-.51l-7.16,25.24c-.31,1.06-.22,1.76.26,2.12a4,4,0,0,0,2.34.52l-.2.7-2.11-.09c-.9,0-1.85,0-2.83,0-.82,0-1.64,0-2.48,0s-1.45.06-1.85.09l.2-.7a2.73,2.73,0,0,0,1.72-.44,3.26,3.26,0,0,0,.85-1.6ZM467.9,14.58c.84-.83,1.61-1.67,2.33-2.52a22.71,22.71,0,0,0,2.09-3,29.28,29.28,0,0,0,2.05-4.37l.1.52a20.41,20.41,0,0,1-1.65,4,20.22,20.22,0,0,1-2.1,3.12A30.74,30.74,0,0,1,468.27,15Zm12-4.32a2.35,2.35,0,0,0-1.6,1,13,13,0,0,0-1.77,2.62,30,30,0,0,0-1.66,3.75,38.05,38.05,0,0,0-1.34,4.35l.63-3.43a36,36,0,0,1,2.31-5.64,10.37,10.37,0,0,1,2.37-3.14,4.08,4.08,0,0,1,2.61-1A3.44,3.44,0,0,1,484.25,10a5.8,5.8,0,0,1,1,3.69,13.56,13.56,0,0,1-.43,3.27,18.73,18.73,0,0,1-1.24,3.47,15.11,15.11,0,0,1-2,3.15,9.58,9.58,0,0,1-2.72,2.27,6.94,6.94,0,0,1-3.42.85,3.75,3.75,0,0,1-1.88-.47A2.8,2.8,0,0,1,472.36,25l.26-.56a3.09,3.09,0,0,0,.86,1.08,1.83,1.83,0,0,0,1.09.33,3.06,3.06,0,0,0,2-.8,8.33,8.33,0,0,0,1.79-2.18,19.14,19.14,0,0,0,1.43-3.05,23.2,23.2,0,0,0,1-3.44,16.81,16.81,0,0,0,.34-3.26,5.1,5.1,0,0,0-.33-2.2A1,1,0,0,0,479.85,10.26Z"/><path class="cls-1" d="M490.61,23.43a2.33,2.33,0,0,0-.12,1.33.61.61,0,0,0,.64.45,1.47,1.47,0,0,0,1-.58,7.28,7.28,0,0,0,1.17-2.26l.53-1.48h.63l-.83,2.41a5.89,5.89,0,0,1-1.15,2.06,4.09,4.09,0,0,1-1.49,1,4.55,4.55,0,0,1-1.62.3,3.16,3.16,0,0,1-1.68-.4,2,2,0,0,1-.86-1.09,4.05,4.05,0,0,1-.16-1.6,8.39,8.39,0,0,1,.39-2l5.25-17.43a1.89,1.89,0,0,0-.06-1.65c-.27-.35-.94-.52-2-.52l.23-.7A20.59,20.59,0,0,0,494.3,1a18.64,18.64,0,0,0,3.24-1Z"/><path class="cls-1" d="M501.33,25.18a2.12,2.12,0,0,0,1.35-.71,9.2,9.2,0,0,0,1.55-2,20.42,20.42,0,0,0,1.52-3.07A30.63,30.63,0,0,0,507,15.51l-.7,3.56a21.06,21.06,0,0,1-2,4.49A7.43,7.43,0,0,1,502,26a4.59,4.59,0,0,1-2.43.73A3.15,3.15,0,0,1,497,25.59a4.7,4.7,0,0,1-.85-2.95,12.57,12.57,0,0,1,.56-3.62,19,19,0,0,1,1.56-3.73,18.52,18.52,0,0,1,2.3-3.29,11.92,11.92,0,0,1,2.74-2.36,5.43,5.43,0,0,1,2.9-.9,1.93,1.93,0,0,1,1.72.94,4.25,4.25,0,0,1,.29,2.86l-.36.2a3.88,3.88,0,0,0-.12-2.18,1.17,1.17,0,0,0-1.13-.79,2.4,2.4,0,0,0-1.6.79,10.41,10.41,0,0,0-1.67,2.14,20.4,20.4,0,0,0-1.5,3.07,22.63,22.63,0,0,0-1.07,3.57,16.73,16.73,0,0,0-.4,3.59,4.24,4.24,0,0,0,.25,1.74A.78.78,0,0,0,501.33,25.18Zm7.42-16c.8,0,1.54-.07,2.23-.14a12.84,12.84,0,0,0,2-.33L508.72,23.4a3.7,3.7,0,0,0-.18.8,1.41,1.41,0,0,0,.07.7c.07.18.25.28.54.28a1.61,1.61,0,0,0,1.09-.56,6.49,6.49,0,0,0,1.15-2.28l.5-1.49h.63l-.83,2.41a5.83,5.83,0,0,1-1.15,2.1,4.2,4.2,0,0,1-1.47,1,4.26,4.26,0,0,1-1.54.3,2.49,2.49,0,0,1-2.24-1,2.87,2.87,0,0,1-.33-1.79,14,14,0,0,1,.43-2.27Z"/><path class="cls-1" d="M518.85,26.23h-4.06l4-14.22a8.49,8.49,0,0,0,.19-.86,1.1,1.1,0,0,0-.05-.66c-.07-.17-.27-.26-.57-.26a1.46,1.46,0,0,0-1.14.61,8.2,8.2,0,0,0-1.11,2.23l-.56,1.55h-.63l.86-2.48a5.25,5.25,0,0,1,1.78-2.67A4.3,4.3,0,0,1,520,8.74a2.82,2.82,0,0,1,1.67.43,2,2,0,0,1,.74,1.11,4.23,4.23,0,0,1,.07,1.48,14.11,14.11,0,0,1-.3,1.6Zm1.22-6a50,50,0,0,1,2.35-5.61,19.79,19.79,0,0,1,2.17-3.52,6.65,6.65,0,0,1,2.18-1.83,5.48,5.48,0,0,1,2.34-.53,3,3,0,0,1,2.27.71A2.64,2.64,0,0,1,532,11.3a8.23,8.23,0,0,1-.44,2.43l-3.24,9.7a2.34,2.34,0,0,0-.16,1.33.6.6,0,0,0,.66.45,1.55,1.55,0,0,0,1-.56A7,7,0,0,0,531,22.37l.53-1.48h.62l-.82,2.41a5.59,5.59,0,0,1-1.17,2.11,4.08,4.08,0,0,1-1.52,1,5,5,0,0,1-1.6.28,3.64,3.64,0,0,1-1.47-.28,2.21,2.21,0,0,1-.94-.78A2.45,2.45,0,0,1,524.3,24a9.85,9.85,0,0,1,.52-2.37l3-9.08a7.94,7.94,0,0,0,.26-1.07,1.75,1.75,0,0,0,0-.92c-.09-.26-.32-.38-.69-.38a2.35,2.35,0,0,0-1.52.77,11.61,11.61,0,0,0-1.72,2.16,31.47,31.47,0,0,0-1.78,3.24c-.59,1.23-1.16,2.57-1.7,4s-1,2.93-1.44,4.47Z"/><path class="cls-1" d="M538.68,23.43a1.49,1.49,0,0,0,.09,1.35,1.13,1.13,0,0,0,.94.43,2.1,2.1,0,0,0,1.4-.66,5.89,5.89,0,0,0,1.3-2.31l.5-1.35h.62l-.66,2A5.8,5.8,0,0,1,541,25.8a4.74,4.74,0,0,1-2.9.9A3.39,3.39,0,0,1,535.8,26a2.73,2.73,0,0,1-.93-1.8,6.4,6.4,0,0,1,.28-2.59l5-17.39c.8,0,1.54-.07,2.23-.13a13.26,13.26,0,0,0,2-.34Zm8-14.22-.1.66H535.55l.16-.66Z"/></g></g></svg>