<svg xmlns="http://www.w3.org/2000/svg" viewBox="0 0 100.25 125"><defs><style>.cls-1{fill:none;}.cls-2{fill:lime;}.cls-2,.cls-3{stroke:#19102c;stroke-miterlimit:10;stroke-width:1.74px;}.cls-3{fill:red;}</style></defs><g id="Layer_2" data-name="Layer 2"><g id="Layer_1-2" data-name="Layer 1"><rect class="cls-1" width="100.25" height="125" rx="11.6"/><path class="cls-2" d="M72.62,13.77h15a0,0,0,0,1,0,0v7.48a7.48,7.48,0,0,1-7.48,7.48h0a7.48,7.48,0,0,1-7.48-7.48V13.77a0,0,0,0,1,0,0Z" transform="translate(58.85 101.35) rotate(-90)"/><rect class="cls-2" x="58.28" y="13.77" width="14.97" height="14.97" transform="translate(44.52 87.02) rotate(-90)"/><rect class="cls-2" x="43.32" y="13.77" width="14.97" height="14.97" transform="translate(29.55 72.05) rotate(-90)"/><rect class="cls-2" x="28.35" y="13.77" width="14.97" height="14.97" transform="translate(14.58 57.08) rotate(-90)"/><path class="cls-2" d="M20.87,13.77h0a7.48,7.48,0,0,1,7.48,7.48v7.48a0,0,0,0,1,0,0h-15a0,0,0,0,1,0,0V21.25a7.48,7.48,0,0,1,7.48-7.48Z" transform="translate(-0.38 42.12) rotate(-90)"/><path class="cls-2" d="M72.62,50.43h15a0,0,0,0,1,0,0v7.48A7.48,7.48,0,0,1,80.1,65.4h0a7.48,7.48,0,0,1-7.48-7.48V50.43A0,0,0,0,1,72.62,50.43Z" transform="translate(22.18 138.01) rotate(-90)"/><rect class="cls-2" x="58.28" y="50.43" width="14.97" height="14.97" transform="translate(7.85 123.68) rotate(-90)"/><rect class="cls-2" x="43.32" y="50.43" width="14.97" height="14.97" transform="translate(-7.12 108.72) rotate(-90)"/><rect class="cls-2" x="28.35" y="50.43" width="14.97" height="14.97" transform="translate(-22.08 93.75) rotate(-90)"/><path class="cls-2" d="M20.87,50.43h0a7.48,7.48,0,0,1,7.48,7.48V65.4a0,0,0,0,1,0,0h-15a0,0,0,0,1,0,0V57.92A7.48,7.48,0,0,1,20.87,50.43Z" transform="translate(-37.05 78.79) rotate(-90)"/><path class="cls-3" d="M72.41,88.08h15a0,0,0,0,1,0,0v7.48A7.48,7.48,0,0,1,79.9,103h0a7.48,7.48,0,0,1-7.48-7.48V88.08A0,0,0,0,1,72.41,88.08Z" transform="translate(-15.66 175.46) rotate(-90)"/><rect class="cls-3" x="58.11" y="88.08" width="14.97" height="14.97" transform="translate(-29.97 161.15) rotate(-90)"/><rect class="cls-3" x="43.14" y="88.08" width="14.97" height="14.97" transform="translate(-44.93 146.19) rotate(-90)"/><rect class="cls-3" x="28.18" y="88.08" width="14.97" height="14.97" transform="translate(-59.9 131.22) rotate(-90)"/><path class="cls-3" d="M20.69,88.08h0a7.48,7.48,0,0,1,7.48,7.48V103a0,0,0,0,1,0,0h-15a0,0,0,0,1,0,0V95.56A7.48,7.48,0,0,1,20.69,88.08Z" transform="translate(-74.87 116.25) rotate(-90)"/></g></g></svg>