<svg xmlns="http://www.w3.org/2000/svg" viewBox="0 0 123.19 34.02"><defs><style>.cls-1{fill:#fff;}</style></defs><g id="Layer_2" data-name="Layer 2"><g id="Layer_1-2" data-name="Layer 1"><rect class="cls-1" width="123.19" height="34.02" rx="4.71"/><path d="M19.87,13.48h1.87v10H19.87Zm.83,8.15h5.84v1.81H20.7Z"/><path d="M27.91,13.48h1.88v10H27.91Zm.68,0h6v1.81h-6Zm0,4.11h5.24V19.4H28.59Zm0,4h6v1.81h-6Z"/><path d="M39.15,13.48h1.19l3.81,10h-2l-2.39-6.8-2.38,6.8h-2Zm-2,6.56h5.24v1.81H37.17Z"/><path d="M45.38,13.47h1.88v10H45.38Zm.75,4.16H49.6a.84.84,0,0,0,.5-.15.87.87,0,0,0,.34-.41,1.67,1.67,0,0,0,.13-.62,1.48,1.48,0,0,0-.12-.61.87.87,0,0,0-.34-.41.9.9,0,0,0-.51-.15H46.13V13.47h3.62a2.83,2.83,0,0,1,1.44.37,2.53,2.53,0,0,1,1,1.05,3.38,3.38,0,0,1,.34,1.56A3.39,3.39,0,0,1,52.16,18a2.44,2.44,0,0,1-1,1,2.76,2.76,0,0,1-1.44.37H46.13Zm2.09,1.5,2-.32,2.69,4.63H50.64Z"/><path d="M54.53,13.48h2.29l3.71,7.63-.16.18V13.48h1.79v10H59.85l-3.69-7.52.16-.18v7.7H54.53Z"/><path d="M74.39,13.48h2.48v10H75.16V15.71l.07.44-1.91,6.18H71.67l-1.91-6,.07-.57v7.73H68.12v-10H70.6l1.89,6.72Z"/><path d="M80.58,23.09A3.18,3.18,0,0,1,79.3,21.8a4,4,0,0,1-.45-1.93V17.05a4,4,0,0,1,.45-1.93,3.31,3.31,0,0,1,1.28-1.29,4.28,4.28,0,0,1,3.82,0,3.24,3.24,0,0,1,1.28,1.29,4,4,0,0,1,.45,1.93v2.82a4,4,0,0,1-.45,1.93,3.12,3.12,0,0,1-1.28,1.29,4.2,4.2,0,0,1-3.82,0Zm2.8-1.64a1.39,1.39,0,0,0,.59-.61,2,2,0,0,0,.21-.92V17a2,2,0,0,0-.21-.92,1.44,1.44,0,0,0-.59-.61,1.8,1.8,0,0,0-.89-.21,1.83,1.83,0,0,0-.89.21,1.57,1.57,0,0,0-.59.61,2,2,0,0,0-.21.92v2.92a2,2,0,0,0,.21.92,1.51,1.51,0,0,0,.59.61,1.73,1.73,0,0,0,.89.22A1.7,1.7,0,0,0,83.38,21.45Z"/><path d="M88,13.47h1.88v10H88Zm.75,4.16h3.46a.9.9,0,0,0,.51-.15.87.87,0,0,0,.34-.41,1.67,1.67,0,0,0,.13-.62,1.48,1.48,0,0,0-.12-.61.93.93,0,0,0-.34-.41.91.91,0,0,0-.52-.15H88.73V13.47h3.61a2.84,2.84,0,0,1,1.45.37,2.53,2.53,0,0,1,1,1.05,3.77,3.77,0,0,1,0,3.13,2.44,2.44,0,0,1-1,1,2.77,2.77,0,0,1-1.45.37H88.73Zm2.09,1.5,2-.32,2.69,4.63H93.24Z"/><path d="M97.13,13.48H99v10H97.13Zm.67,0h6v1.81h-6Zm0,4.11h5.25V19.4H97.8Zm0,4h6v1.81h-6Z"/></g></g></svg>