<svg xmlns="http://www.w3.org/2000/svg" viewBox="0 0 136.25 31.3"><defs><style>.cls-1{fill:#fff;}</style></defs><g id="Layer_2" data-name="Layer 2"><g id="Layer_1-2" data-name="Layer 1"><path class="cls-1" d="M116.7,30h.07v-.06Zm.07.3s0,0,.06-.06Z"/><path class="cls-1" d="M2,23.11c.7,3.65,4,5.37,7.31,5.78a10.75,10.75,0,0,0,7.85-1.74,5.06,5.06,0,0,0,2.46-4.75c-.18-2.26-1.66-3.58-3.54-4.49a17.92,17.92,0,0,0-5.52-1.23c-2.78-.36-5.58-.79-7.81-2.77-3.7-3.29-3.73-7.83,0-11.08,4.48-3.95,12.93-3.61,17.13.71a8.1,8.1,0,0,1,1.59,2.4c.47,1,0,1.56-.93,2-1.27.54-.88-.56-1.08-1A6.66,6.66,0,0,0,15.28,3C11.45,1.71,7.72,1.74,4.35,4.38-.09,7.85,3,12.25,6.23,13.57c2.12.85,4.42.88,6.66,1.21a11.25,11.25,0,0,1,6.58,2.88,7.12,7.12,0,0,1-.57,11c-4.61,3.64-12.51,3.25-16.76-.85A7.26,7.26,0,0,1,.89,26.27C-.21,24.4,0,23.89,2,23.11Z"/><path class="cls-1" d="M116.77,29.94V30h-.07Z"/><path class="cls-1" d="M116.83,30.25s0,.06-.06.06Z"/><path class="cls-1" d="M84.75,1.06C80.55-.1,76.33.66,72.13.38c-.7,0-.73.56-1,.92Q65.47,9.57,59.81,17.83c-.2-.09-.35-.11-.41-.2C55.69,12.2,51.92,6.81,48.31,1.31,47.46,0,46.42.29,45.47.46S45,1.7,45,2.34c0,6.15,0,12.3,0,18.45v4.26L23.92,0c0,10.27,0,20,0,29.79,0,.75.14,1.12,1,1.1s1.22-.16,1.2-1.12c-.06-2.64,0-5.29,0-7.93V6.76l.39-.14L47.17,31.3V3.44c3.45,5.08,6.55,9.81,9.84,14.42a8.16,8.16,0,0,1,1.66,5.6c-.14,2.08,0,4.18-.05,6.27,0,.91.3,1.16,1.16,1.16s1-.35,1-1.11c0-2,.15-4.07-.06-6.08a8.91,8.91,0,0,1,2.12-6.59c1-1.36,2-2.8,2.93-4.2l5.6-8.16.32.16V6c0,7.75,0,15.49,0,23.24,0,1.21.2,1.76,1.58,1.69,2.26-.12,4.54,0,6.81,0a16.24,16.24,0,0,0,6.62-1.35c5.48-2.54,8.08-7.15,8.56-12.89C95.79,10,91.78,3,84.75,1.06Zm7.1,20.35c-2.21,4.93-6.28,7.26-11.64,7.36-1.71,0-3.43-.05-5.15,0-1,0-1.37-.22-1.36-1.31q.06-11.79,0-23.58c0-1,.24-1.43,1.31-1.35s2.33,0,3.95,0c4.42-.36,8.67.9,11.62,5.06A13.28,13.28,0,0,1,91.85,21.41Z"/><path class="cls-1" d="M130,16.9c4.08-1.16,8.1-6.22,5.38-11.27A9.29,9.29,0,0,0,127.07.48c-9.82-.18-19.64,0-29.46,0h-.36c-.72.08-.44.64-.44,1,0,9.41,0,18.82,0,28.23,0,1.22.58,1.21,1.46,1.21,6,0,11.9,0,17.86,0,1.22,0,1.51-.38,1.51-1.57-.06-8.42,0-16.84-.06-25.27,0-1.18.26-1.6,1.51-1.55,2.45.1,4.91.09,7.36,0a7.56,7.56,0,0,1,4.2,1.14c3.93,2.4,5.06,6.69.84,10-1.77,1.4-3.89,1.67-6,1.8-1.43.09-2.86,0-4.64,0,4.21,5.07,8.15,9.78,12,14.53,1,1.21,2.06.79,3.32.62L125.3,17.54A19.74,19.74,0,0,0,130,16.9Zm-14.57-1.23c0,3.88,0,7.75,0,11.63,0,1-.24,1.37-1.31,1.35-4.66,0-9.33,0-14,0-1,0-1.28-.28-1.26-1.26.06-3.13.06-6.27,0-9.4,0-1.13.44-1.3,1.41-1.29,3.68.05,7.36,0,11,0,.8,0,1.39,0,1.37-1.11s-.68-1.08-1.44-1.08c-3.62,0-7.24,0-10.86,0-1.24,0-1.56-.34-1.53-1.55.08-3.07.07-6.14,0-9.22,0-1,.28-1.25,1.25-1.24,4.66,0,9.32,0,14,0,1,0,1.34.25,1.33,1.31C115.38,7.8,115.41,11.74,115.41,15.67Zm1.36,14.27V30h-.07Zm0,.37.06-.06S116.79,30.31,116.77,30.31Z"/></g></g></svg>