<svg xmlns="http://www.w3.org/2000/svg" viewBox="0 0 99.78 29.66"><defs><style>.cls-1{fill:#f0c14d;}</style></defs><g id="Layer_2" data-name="Layer 2"><g id="Layer_1-2" data-name="Layer 1"><rect class="cls-1" width="99.78" height="29.66" rx="4.66"/><path d="M25.62,11.47V6.69h.89v4.78a2.2,2.2,0,0,1-.27,1.13,1.75,1.75,0,0,1-.75.7,2.45,2.45,0,0,1-1.11.24,2.57,2.57,0,0,1-1.1-.22,1.72,1.72,0,0,1-.76-.65,2,2,0,0,1-.27-1.1h.9a1.43,1.43,0,0,0,.15.7,1,1,0,0,0,.44.41,1.62,1.62,0,0,0,.64.13,1.34,1.34,0,0,0,.64-.15,1.12,1.12,0,0,0,.44-.45A1.53,1.53,0,0,0,25.62,11.47Z"/><path d="M28.92,6.69v6.75H28V6.69Zm3.35,0v.73H28.74V6.69Zm-.42,2.9v.73H28.74V9.59Zm.47,3.13v.72H28.74v-.72Z"/><path d="M38.19,6.69v.73H33V6.69ZM36,6.69v6.75h-.88V6.69Z"/><path d="M43.57,7.34l-4.21,6.1h-.55v-.66L43,6.69h.55Zm-.38-.65v.73H38.87V6.69Zm.53,6v.72H39.15v-.72Z"/><path d="M49.55,6.69v.73H44.33V6.69Zm-2.17,0v6.75H46.5V6.69Z"/><path d="M13.86,20.28H12.15v-.71h1.55a1.7,1.7,0,0,0,.67-.13,1,1,0,0,0,.45-.38,1,1,0,0,0,.16-.58,1.13,1.13,0,0,0-.14-.61.82.82,0,0,0-.43-.34,2.18,2.18,0,0,0-.74-.11H12.35v6h-.9V16.69h2.21a3.73,3.73,0,0,1,.93.1,1.89,1.89,0,0,1,.7.33,1.41,1.41,0,0,1,.43.56,2,2,0,0,1,.15.81,1.3,1.3,0,0,1-.22.75,1.57,1.57,0,0,1-.59.55,2.17,2.17,0,0,1-.88.28Zm0,3.16h-2l.51-.72h1.52a1.59,1.59,0,0,0,.72-.15,1,1,0,0,0,.46-.42,1.33,1.33,0,0,0,.16-.65,1.41,1.41,0,0,0-.14-.64.92.92,0,0,0-.42-.43,1.6,1.6,0,0,0-.74-.15H12.58v-.71h1.75l.19.26a1.63,1.63,0,0,1,.82.27,1.58,1.58,0,0,1,.52.6,1.74,1.74,0,0,1,.18.8,1.88,1.88,0,0,1-.28,1.06,1.72,1.72,0,0,1-.77.66A2.89,2.89,0,0,1,13.82,23.44Z"/><path d="M18.27,16.69v6.75h-.9V16.69Zm3.34,0v.73H18.08v-.73Zm-.42,2.9v.73H18.08v-.73Zm.47,3.13v.72H18.08v-.72Z"/><path d="M26.37,21.74a1.09,1.09,0,0,0-.07-.42.73.73,0,0,0-.25-.33,2.18,2.18,0,0,0-.49-.29,6.7,6.7,0,0,0-.8-.27,7.76,7.76,0,0,1-.9-.33,3.71,3.71,0,0,1-.69-.42,1.65,1.65,0,0,1-.44-.55,1.54,1.54,0,0,1-.16-.7,1.59,1.59,0,0,1,.17-.72,1.75,1.75,0,0,1,.46-.59,2.41,2.41,0,0,1,.73-.38,2.77,2.77,0,0,1,.94-.14,2.56,2.56,0,0,1,1.29.29,2,2,0,0,1,.81.75,1.89,1.89,0,0,1,.28,1h-.89A1.37,1.37,0,0,0,26.2,18a1.15,1.15,0,0,0-.49-.46,1.87,1.87,0,0,0-.84-.17,2,2,0,0,0-.79.14,1.12,1.12,0,0,0-.46.39,1.07,1.07,0,0,0-.15.56.8.8,0,0,0,.09.39.94.94,0,0,0,.28.32,2.54,2.54,0,0,0,.5.28,6.45,6.45,0,0,0,.71.24A6.16,6.16,0,0,1,26,20a2.58,2.58,0,0,1,.69.45,1.59,1.59,0,0,1,.41.56,1.76,1.76,0,0,1,.13.71,1.64,1.64,0,0,1-.17.74,1.47,1.47,0,0,1-.48.57,2.23,2.23,0,0,1-.74.37,3.5,3.5,0,0,1-1.89,0,3,3,0,0,1-.82-.39,2.16,2.16,0,0,1-.59-.65,1.79,1.79,0,0,1-.22-.88h.89a1.2,1.2,0,0,0,.14.59,1.12,1.12,0,0,0,.37.41,1.51,1.51,0,0,0,.53.24,2.57,2.57,0,0,0,.62.08,2.31,2.31,0,0,0,.8-.13,1.1,1.1,0,0,0,.49-.37A1,1,0,0,0,26.37,21.74Z"/><path d="M33.08,16.69v.73H27.86v-.73Zm-2.17,0v6.75H30V16.69Z"/><path d="M35,16.69v6.75h-.89V16.69Zm3.35,0v.73H34.79v-.73Zm-.42,2.9v.73H34.79v-.73Zm.47,3.13v.72H34.79v-.72Z"/><path d="M40.37,16.69v6.75h-.89V16.69Zm3.2,6v.72H40.2v-.72Z"/><path d="M45.49,16.69v6.75H44.6V16.69Zm3.2,6v.72H45.31v-.72Z"/><path d="M50.61,16.69v6.75h-.9V16.69Zm3.35,0v.73H50.43v-.73Zm-.43,2.9v.73h-3.1v-.73ZM54,22.72v.72H50.43v-.72Z"/><path d="M60.31,16.69v6.75h-.9L56,18.23v5.21h-.9V16.69H56l3.41,5.22V16.69Z"/></g></g></svg>