<svg xmlns="http://www.w3.org/2000/svg" viewBox="0 0 208.83 36.79"><defs><style>.cls-1{fill:#131c42;}.cls-2{fill:#010101;}</style></defs><g id="Layer_2" data-name="Layer 2"><g id="Layer_1-2" data-name="Layer 1"><path class="cls-1" d="M.5.63h9.71v2H2.87V7.43H9.52v2H2.87v6.82H.5Z"/><path class="cls-1" d="M11.51,1.37a1.45,1.45,0,0,1,2.89,0,1.45,1.45,0,0,1-2.89,0Zm.29,3.17h2.29V16.28H11.8Z"/><path class="cls-1" d="M18.33,16.28H16V.63h2.29Z"/><path class="cls-1" d="M19.75,10.49c0-3.61,2.16-6.1,5.43-6.1,2.66,0,5.2,1.66,5.2,5.9v.81H22c.06,2.26,1.37,3.53,3.33,3.53A2.66,2.66,0,0,0,28.07,13l2.16.39c-.52,1.91-2.33,3.17-4.89,3.17C21.88,16.52,19.75,14.13,19.75,10.49Zm8.39-1.1a2.9,2.9,0,0,0-2.95-3.11A3.14,3.14,0,0,0,22,9.39Z"/><path class="cls-1" d="M36.55,16.28V.63h5.23c4.61,0,7.37,2.93,7.37,7.8s-2.76,7.85-7.53,7.85Zm4.94-2.06c3.57,0,5.34-2.08,5.34-5.79s-1.77-5.74-5.19-5.74H38.92V14.22Z"/><path class="cls-1" d="M50.24,10.47c0-3.66,2.17-6.08,5.48-6.08s5.47,2.42,5.47,6.08-2.16,6-5.47,6S50.24,14.1,50.24,10.47Zm8.64,0c0-2.25-1-4.16-3.15-4.16s-3.18,1.91-3.18,4.16,1,4.14,3.18,4.14S58.88,12.71,58.88,10.46Z"/><path class="cls-1" d="M62.61,4.54h2.21V6.41h.12a3,3,0,0,1,3-2,9.5,9.5,0,0,1,1,0V6.61a5,5,0,0,0-1.19-.14,2.64,2.64,0,0,0-2.81,2.64v7.17H62.61Z"/><path class="cls-1" d="M69.75,4.54H72V6.45h.14a3.48,3.48,0,0,1,6.36,0h.12a3.66,3.66,0,0,1,3.52-2.06c2.13,0,3.63,1.34,3.63,4v7.87H83.43V8.62a2,2,0,0,0-2.2-2.26A2.25,2.25,0,0,0,78.87,8.8v7.48H76.6V8.48a2,2,0,0,0-2.15-2.12A2.51,2.51,0,0,0,72,9v7.24H69.75Z"/><path class="cls-1" d="M87.09,13c0-2.67,2.28-3.25,4.5-3.51s3-.23,3-1.07V8.34a2,2,0,0,0-2.23-2.1A2.73,2.73,0,0,0,89.6,7.87l-2.15-.49c.76-2.14,2.72-3,4.84-3,1.87,0,4.56.68,4.56,4.1v7.79H94.62v-1.6h-.09a3.67,3.67,0,0,1-3.47,1.86C88.82,16.54,87.09,15.27,87.09,13Zm7.48-.92V10.53a8.92,8.92,0,0,1-2.83.63c-1.33.18-2.41.61-2.41,1.84s.93,1.71,2.22,1.71A2.76,2.76,0,0,0,94.57,12.05Z"/><path class="cls-1" d="M101.05,16.28H98.76V4.54H101V6.45h.14a3.51,3.51,0,0,1,3.47-2.06c2.4,0,4,1.52,4,4.42v7.47h-2.28V9.09a2.4,2.4,0,0,0-2.49-2.72,2.66,2.66,0,0,0-2.74,2.94Z"/><path class="cls-1" d="M116,6.38h-2.4v6.46c0,1.32.66,1.56,1.4,1.56a3.87,3.87,0,0,0,.81-.1l.41,1.89a4.41,4.41,0,0,1-1.48.25,3.08,3.08,0,0,1-3.43-3.13V6.38h-1.72V4.54h1.72V1.73h2.29V4.54H116Z"/><path class="cls-1" d="M121,16.28,126.58.63h2.73L135,16.28h-2.51L131,12.14h-6.12l-1.43,4.14Zm9.37-6.13L128,3.47h-.12l-2.31,6.68Z"/><path class="cls-1" d="M135.18,10.47c0-3.59,2.14-6.08,5.45-6.08,2.66,0,4.6,1.57,4.84,3.94h-2.22a2.52,2.52,0,0,0-2.58-2c-1.92,0-3.19,1.59-3.19,4.1s1.25,4.18,3.19,4.18a2.51,2.51,0,0,0,2.58-2h2.22c-.25,2.28-2.05,3.95-4.82,3.95C137.24,16.52,135.18,14,135.18,10.47Z"/><path class="cls-1" d="M146.27,10.47c0-3.59,2.14-6.08,5.45-6.08,2.67,0,4.6,1.57,4.85,3.94h-2.23a2.52,2.52,0,0,0-2.58-2c-1.91,0-3.18,1.59-3.18,4.1s1.25,4.18,3.18,4.18a2.5,2.5,0,0,0,2.58-2h2.23c-.25,2.28-2,3.95-4.83,3.95C148.33,16.52,146.27,14,146.27,10.47Z"/><path class="cls-1" d="M157.37,10.47c0-3.66,2.16-6.08,5.47-6.08s5.47,2.42,5.47,6.08-2.16,6-5.47,6S157.37,14.1,157.37,10.47Zm8.63,0c0-2.25-1-4.16-3.15-4.16s-3.18,1.91-3.18,4.16,1,4.14,3.18,4.14S166,12.71,166,10.46Z"/><path class="cls-1" d="M177.17,4.54h2.29V16.28h-2.25v-2h-.12a3.64,3.64,0,0,1-3.51,2.19c-2.25,0-3.85-1.52-3.85-4.43V4.54H172v7.19a2.38,2.38,0,0,0,2.4,2.63,2.78,2.78,0,0,0,2.76-2.95Z"/><path class="cls-1" d="M183.68,16.28H181.4V4.54h2.19V6.45h.15a3.49,3.49,0,0,1,3.46-2.06c2.4,0,4,1.52,4,4.42v7.47h-2.29V9.09a2.4,2.4,0,0,0-2.49-2.72,2.66,2.66,0,0,0-2.74,2.94Z"/><path class="cls-1" d="M198.61,6.38H196.2v6.46c0,1.32.66,1.56,1.41,1.56a3.85,3.85,0,0,0,.8-.1l.41,1.89a4.41,4.41,0,0,1-1.48.25,3.08,3.08,0,0,1-3.43-3.13V6.38h-1.72V4.54h1.72V1.73h2.29V4.54h2.41Z"/><path class="cls-1" d="M206.53,7.77a2.26,2.26,0,0,0-2.34-1.57c-1.3,0-2.28.64-2.27,1.54s.55,1.23,1.84,1.54l1.86.43c2.16.5,3.21,1.52,3.21,3.18,0,2.12-2,3.63-4.8,3.63-2.63,0-4.36-1.17-4.74-3.25l2.2-.34A2.29,2.29,0,0,0,204,14.68c1.5,0,2.47-.71,2.47-1.62,0-.74-.53-1.24-1.66-1.49l-2-.44c-2.2-.49-3.21-1.6-3.21-3.26,0-2.08,1.88-3.48,4.53-3.48s4,1.19,4.44,3Z"/><path class="cls-1" d="M7.06,36.77c-4.07,0-7.06-3-7.06-8s3-8,7.06-8,7,3,7,8S11.11,36.77,7.06,36.77Zm0-13.93c-2.7,0-4.71,2.08-4.71,5.89s2,5.89,4.71,5.89,4.7-2.08,4.7-5.89S9.75,22.84,7.06,22.84Z"/><path class="cls-1" d="M18,36.56H15.72V24.82h2.2v1.91h.14a3.51,3.51,0,0,1,3.47-2.07c2.4,0,4,1.52,4,4.43v7.47H23.24v-7.2a2.41,2.41,0,0,0-2.49-2.72A2.66,2.66,0,0,0,18,29.59Z"/><path class="cls-1" d="M29.74,36.56H27.45V20.9h2.29Z"/><path class="cls-1" d="M31.4,21.64A1.45,1.45,0,1,1,32.84,23,1.41,1.41,0,0,1,31.4,21.64Zm.29,3.18H34V36.56H31.69Z"/><path class="cls-1" d="M38.21,36.56H35.92V24.82h2.2v1.91h.14a3.51,3.51,0,0,1,3.47-2.07c2.4,0,4,1.52,4,4.43v7.47H43.44v-7.2A2.41,2.41,0,0,0,41,26.64a2.66,2.66,0,0,0-2.74,2.95Z"/><path class="cls-1" d="M47.12,30.76c0-3.61,2.16-6.1,5.43-6.1,2.66,0,5.2,1.66,5.2,5.9v.82H49.4c.06,2.26,1.38,3.53,3.34,3.53a2.65,2.65,0,0,0,2.7-1.68l2.17.39c-.53,1.91-2.34,3.17-4.9,3.17C49.25,36.79,47.12,34.41,47.12,30.76Zm8.39-1.1a2.9,2.9,0,0,0-2.94-3.11,3.16,3.16,0,0,0-3.16,3.11Z"/><path class="cls-1" d="M63.46,21.64A1.45,1.45,0,1,1,64.9,23,1.41,1.41,0,0,1,63.46,21.64Zm.29,3.18H66V36.56H63.75Z"/><path class="cls-1" d="M70.27,36.56H68V24.82h2.2v1.91h.14a3.49,3.49,0,0,1,3.46-2.07c2.4,0,4,1.52,4,4.43v7.47H75.5v-7.2A2.41,2.41,0,0,0,73,26.64a2.66,2.66,0,0,0-2.73,2.95Z"/><path class="cls-2" d="M87.34,20.9l5,12.17h.18l5-12.17h2.87V36.56H98.11V25.23H98L93.35,36.54H91.48L86.87,25.22h-.15V36.56H84.47V20.9Z"/><path class="cls-2" d="M102.58,21.64A1.45,1.45,0,1,1,104,23,1.42,1.42,0,0,1,102.58,21.64Zm.29,3.18h2.29V36.56h-2.29Z"/><path class="cls-2" d="M109.39,36.56h-2.28V24.82h2.19v1.91h.15a3.48,3.48,0,0,1,3.46-2.07c2.4,0,4,1.52,4,4.43v7.47h-2.29v-7.2a2.41,2.41,0,0,0-2.49-2.72,2.66,2.66,0,0,0-2.74,2.95Z"/><path class="cls-2" d="M126.27,24.82h2.3V36.56h-2.25v-2h-.12a3.65,3.65,0,0,1-3.51,2.19c-2.26,0-3.86-1.51-3.86-4.43V24.82h2.29V32a2.37,2.37,0,0,0,2.39,2.62,2.76,2.76,0,0,0,2.76-2.94Z"/><path class="cls-2" d="M136,26.65h-2.4v6.46c0,1.32.66,1.57,1.4,1.57a3.87,3.87,0,0,0,.81-.1l.41,1.89a4.5,4.5,0,0,1-1.49.24,3.06,3.06,0,0,1-3.42-3.13V26.65h-1.72V24.82h1.72V22h2.29v2.82H136Z"/><path class="cls-2" d="M136.73,30.76c0-3.61,2.16-6.1,5.43-6.1,2.66,0,5.2,1.66,5.2,5.9v.82H139c.06,2.26,1.37,3.53,3.33,3.53a2.66,2.66,0,0,0,2.71-1.68l2.16.39c-.52,1.91-2.33,3.17-4.89,3.17C138.86,36.79,136.73,34.41,136.73,30.76Zm8.39-1.1a2.91,2.91,0,0,0-3-3.11A3.15,3.15,0,0,0,139,29.66Z"/><path class="cls-2" d="M155.5,28.05a2.27,2.27,0,0,0-2.35-1.58c-1.3,0-2.27.65-2.27,1.55s.55,1.23,1.85,1.53l1.86.43c2.16.5,3.21,1.52,3.21,3.18,0,2.13-2,3.63-4.8,3.63-2.64,0-4.36-1.16-4.75-3.24l2.21-.34A2.3,2.3,0,0,0,153,35c1.49,0,2.46-.71,2.46-1.62,0-.73-.52-1.24-1.65-1.49l-2-.43c-2.2-.49-3.21-1.6-3.21-3.27,0-2.08,1.88-3.48,4.53-3.48s4,1.2,4.44,3Z"/><path class="cls-2" d="M159.16,35.17a1.53,1.53,0,1,1,1.53,1.53A1.53,1.53,0,0,1,159.16,35.17Z"/></g></g></svg>