<svg xmlns="http://www.w3.org/2000/svg" viewBox="0 0 126.26 59.62"><defs><style>.cls-1{fill:#f98f0b;}</style></defs><g id="Layer_2" data-name="Layer 2"><g id="Layer_1-2" data-name="Layer 1"><path d="M17.83.89v.83h-5l.52-.6V8.33h-.83V.89ZM12.92,4.25H17.7v.82H12.92Z"/><path d="M23.82,5.53a5,5,0,0,1-.6,1.53,3.23,3.23,0,0,1-1,1A2.38,2.38,0,0,1,21,8.45a2.33,2.33,0,0,1-1.31-.37,2.49,2.49,0,0,1-.89-1,3.34,3.34,0,0,1-.33-1.52A3.38,3.38,0,0,1,18.76,4a2.52,2.52,0,0,1,.89-1A2.41,2.41,0,0,1,21,2.62,2.38,2.38,0,0,1,22.24,3a3.3,3.3,0,0,1,1,1A5,5,0,0,1,23.82,5.53Zm-4.55,0a2.49,2.49,0,0,0,.24,1.12,1.79,1.79,0,0,0,.65.76,1.67,1.67,0,0,0,.94.27,1.88,1.88,0,0,0,1-.27,2.9,2.9,0,0,0,.81-.76,4.53,4.53,0,0,0,.57-1.12,4.53,4.53,0,0,0-.57-1.12,2.9,2.9,0,0,0-.81-.76,1.88,1.88,0,0,0-1-.27,1.67,1.67,0,0,0-.94.27,1.79,1.79,0,0,0-.65.76A2.49,2.49,0,0,0,19.27,5.53Zm4.23,2.8-.18-2.12.22-.68-.22-.67.18-2.11h.84L24.1,5.53l.24,2.8Z"/><path d="M30.9,6.2a2.45,2.45,0,0,1-.48,1.17,2.78,2.78,0,0,1-1,.8,3,3,0,0,1-1.32.28,2.88,2.88,0,0,1-1.48-.37,2.61,2.61,0,0,1-1-1,3,3,0,0,1-.37-1.52A3,3,0,0,1,25.63,4a2.61,2.61,0,0,1,1-1,3,3,0,0,1,1.48-.36,3,3,0,0,1,1.32.28,2.65,2.65,0,0,1,1,.79,2.49,2.49,0,0,1,.48,1.18h-.85a1.7,1.7,0,0,0-.66-1.1,2.23,2.23,0,0,0-2.34-.13,1.88,1.88,0,0,0-.7.75,2.52,2.52,0,0,0-.25,1.14,2.57,2.57,0,0,0,.25,1.15,1.88,1.88,0,0,0,.7.75,2.13,2.13,0,0,0,1.06.26,2,2,0,0,0,1.29-.41,1.69,1.69,0,0,0,.65-1.08Z"/><path d="M31.19,3.48V3l1.1-.22.33-1.52h.5V2.75h2.44v.73H33.12V6.31a1.53,1.53,0,0,0,.29,1.06,1.27,1.27,0,0,0,.93.3,2.27,2.27,0,0,0,.72-.11,2.5,2.5,0,0,0,.6-.32v.81a2.37,2.37,0,0,1-.63.28,3.08,3.08,0,0,1-.86.12,2,2,0,0,1-1.09-.26,1.44,1.44,0,0,1-.6-.71,2.74,2.74,0,0,1-.19-1v-3Z"/><path d="M39,8.45a3.27,3.27,0,0,1-1.56-.36,2.67,2.67,0,0,1-1-1,3.07,3.07,0,0,1-.37-1.53A3,3,0,0,1,36.43,4a2.71,2.71,0,0,1,1-1A3.56,3.56,0,0,1,40.6,3a2.71,2.71,0,0,1,1,1A3,3,0,0,1,42,5.53a3.07,3.07,0,0,1-.38,1.53,2.67,2.67,0,0,1-1,1A3.27,3.27,0,0,1,39,8.45Zm0-.76a2.4,2.4,0,0,0,1.14-.26,1.93,1.93,0,0,0,.75-.75,2.44,2.44,0,0,0,.26-1.15,2.4,2.4,0,0,0-.26-1.14,1.93,1.93,0,0,0-.75-.75A2.29,2.29,0,0,0,39,3.37a2.34,2.34,0,0,0-1.14.27,1.84,1.84,0,0,0-.74.75,2.4,2.4,0,0,0-.26,1.14,2.44,2.44,0,0,0,.26,1.15,1.84,1.84,0,0,0,.74.75A2.46,2.46,0,0,0,39,7.69Z"/><path d="M42.82,2.75h.82l.29,1.9V8.33h-.82V4.48Zm3.78,0v.82a2.15,2.15,0,0,0-.4-.09l-.43,0a1.74,1.74,0,0,0-1,.27,1.77,1.77,0,0,0-.65.77,3,3,0,0,0-.23,1.21l-.23-.36a4.07,4.07,0,0,1,.17-1.08,2.52,2.52,0,0,1,.43-.85A2,2,0,0,1,45,2.82a1.85,1.85,0,0,1,.89-.2,2.56,2.56,0,0,1,.39,0A1.31,1.31,0,0,1,46.6,2.73Z"/><path d="M49.21,8.15l-2.38-5.4h.9L50,8.15Zm-.84,1.94a2.06,2.06,0,0,1-.68-.11,2.18,2.18,0,0,1-.6-.32V8.94a2.29,2.29,0,0,0,.57.31,2,2,0,0,0,.63.1,1.1,1.1,0,0,0,.66-.2,1.45,1.45,0,0,0,.47-.63l2.5-5.77h.88L50.05,8.86a2.62,2.62,0,0,1-.44.7,1.76,1.76,0,0,1-.56.4A1.68,1.68,0,0,1,48.37,10.09Z"/><path d="M58.75.89a4,4,0,0,1,2,.47A3.24,3.24,0,0,1,62,2.66a3.86,3.86,0,0,1,.47,2A3.85,3.85,0,0,1,62,6.55a3.3,3.3,0,0,1-1.32,1.3,3.9,3.9,0,0,1-2,.48H55.88V.89Zm-2,7.19-.53-.58h2.59a3,3,0,0,0,1.5-.36,2.75,2.75,0,0,0,1-1,3.09,3.09,0,0,0,.36-1.51,3.08,3.08,0,0,0-.36-1.52,2.75,2.75,0,0,0-1-1,3,3,0,0,0-1.5-.37H56.19l.53-.56Z"/><path d="M64,1.9a.55.55,0,0,1-.42-.17.59.59,0,0,1-.18-.44.57.57,0,0,1,.18-.43A.56.56,0,0,1,64,.68a.57.57,0,0,1,.44.18.6.6,0,0,1,.17.43.62.62,0,0,1-.17.44A.57.57,0,0,1,64,1.9Zm-.4.83.41.08.41-.08v5.6H63.6Z"/><path d="M65.52,2.75h.82l.28,1.9V8.33H65.8V4.48Zm3.77,0v.82a1.87,1.87,0,0,0-.39-.09l-.44,0a1.73,1.73,0,0,0-.95.27,1.71,1.71,0,0,0-.65.77,2.87,2.87,0,0,0-.24,1.21l-.23-.36a4.07,4.07,0,0,1,.17-1.08A2.54,2.54,0,0,1,67,3.39a1.87,1.87,0,0,1,1.57-.77l.39,0A1.33,1.33,0,0,1,69.29,2.73Z"/><path d="M72.45,8.45a3,3,0,0,1-1.53-.37,2.71,2.71,0,0,1-1-1,2.91,2.91,0,0,1-.38-1.52A3.14,3.14,0,0,1,69.86,4a2.56,2.56,0,0,1,1-1,2.86,2.86,0,0,1,1.45-.36A2.59,2.59,0,0,1,73.72,3a2.66,2.66,0,0,1,.94,1.12A4,4,0,0,1,75,5.8H70.12V5.07h4.53l-.49.33a2.46,2.46,0,0,0-.26-1.08,1.76,1.76,0,0,0-.65-.7,1.81,1.81,0,0,0-1-.25,2,2,0,0,0-1,.26,1.87,1.87,0,0,0-.68.74,2.46,2.46,0,0,0-.24,1.12,2.41,2.41,0,0,0,.27,1.17,2,2,0,0,0,.78.76,2.42,2.42,0,0,0,1.18.27,3.21,3.21,0,0,0,1.21-.23,3.74,3.74,0,0,0,1.06-.62v.71a3.47,3.47,0,0,1-1.1.66A3.68,3.68,0,0,1,72.45,8.45Z"/><path d="M81.35,6.2a2.46,2.46,0,0,1-.49,1.17,2.78,2.78,0,0,1-1,.8,3,3,0,0,1-1.32.28,2.88,2.88,0,0,1-1.48-.37,2.61,2.61,0,0,1-1-1,3.11,3.11,0,0,1-.36-1.52A3.13,3.13,0,0,1,76.07,4a2.61,2.61,0,0,1,1-1,3.24,3.24,0,0,1,2.8-.08,2.65,2.65,0,0,1,1,.79,2.5,2.5,0,0,1,.49,1.18H80.5a1.71,1.71,0,0,0-.67-1.1,2,2,0,0,0-1.28-.4,2,2,0,0,0-1,.27,1.81,1.81,0,0,0-.7.75,2.4,2.4,0,0,0-.25,1.14,2.44,2.44,0,0,0,.25,1.15,1.81,1.81,0,0,0,.7.75,2.1,2.1,0,0,0,1,.26,2,2,0,0,0,1.29-.41A1.71,1.71,0,0,0,80.5,6.2Z"/><path d="M81.63,3.48V3l1.11-.22.33-1.52h.49V2.75H86v.73H83.56V6.31a1.48,1.48,0,0,0,.3,1.06,1.24,1.24,0,0,0,.92.3,2.27,2.27,0,0,0,.72-.11,2.5,2.5,0,0,0,.6-.32v.81a2.37,2.37,0,0,1-.63.28,3.08,3.08,0,0,1-.86.12,2,2,0,0,1-1.09-.26,1.44,1.44,0,0,1-.6-.71,2.74,2.74,0,0,1-.18-1v-3Z"/><path d="M87.39,8.39a.52.52,0,0,1-.3-.08.58.58,0,0,1-.21-.23.72.72,0,0,1-.07-.33.67.67,0,0,1,.07-.33.58.58,0,0,1,.21-.23.48.48,0,0,1,.3-.08.51.51,0,0,1,.29.08.78.78,0,0,1,.21.23.73.73,0,0,1,.08.33.66.66,0,0,1-.08.32.83.83,0,0,1-.21.24A.6.6,0,0,1,87.39,8.39Z"/><path d="M97.59,7.86l-.41,0v-7H98V8.33H96.91l-5.09-7,.41,0v7h-.81V.89h1.09Z"/><path d="M102.08,8.45a3.27,3.27,0,0,1-1.56-.36,2.67,2.67,0,0,1-1-1,3.07,3.07,0,0,1-.37-1.53A3,3,0,0,1,99.47,4a2.71,2.71,0,0,1,1-1,3.56,3.56,0,0,1,3.12,0,2.85,2.85,0,0,1,1,1,3,3,0,0,1,.38,1.53,3.07,3.07,0,0,1-.38,1.53,2.8,2.8,0,0,1-1,1A3.27,3.27,0,0,1,102.08,8.45Zm0-.76a2.4,2.4,0,0,0,1.14-.26,1.84,1.84,0,0,0,.74-.75,2.33,2.33,0,0,0,.27-1.15A2.29,2.29,0,0,0,104,4.39a1.84,1.84,0,0,0-.74-.75,2.54,2.54,0,0,0-2.28,0,1.93,1.93,0,0,0-.75.75,2.4,2.4,0,0,0-.25,1.14,2.44,2.44,0,0,0,.25,1.15,1.93,1.93,0,0,0,.75.75A2.4,2.4,0,0,0,102.08,7.69Z"/><path d="M21.12,12.31v7.43h-.81V12.53h.33l-3.38,7.2h-.89L13,12.55h.33v7.2h-.8V12.31h1.26l3.3,7.12h-.52l3.29-7.12Z"/><path d="M23,13.32a.57.57,0,0,1-.43-.17.62.62,0,0,1-.17-.44.6.6,0,0,1,.17-.43A.58.58,0,0,1,23,12.1a.58.58,0,0,1,.6.61.61.61,0,0,1-.16.44A.58.58,0,0,1,23,13.32Zm-.4.83.41.07.41-.07v5.59H22.6Z"/><path d="M29.84,17a5,5,0,0,1-.6,1.53,3.23,3.23,0,0,1-1,1,2.48,2.48,0,0,1-2.59,0,2.49,2.49,0,0,1-.89-1A3.34,3.34,0,0,1,24.45,17a3.38,3.38,0,0,1,.33-1.53,2.52,2.52,0,0,1,.89-1A2.44,2.44,0,0,1,27,14a2.37,2.37,0,0,1,1.27.36,3.3,3.3,0,0,1,1,1A4.53,4.53,0,0,1,29.84,17Zm-4.55,0a2.49,2.49,0,0,0,.24,1.12,1.86,1.86,0,0,0,.65.76,1.69,1.69,0,0,0,.94.27,1.89,1.89,0,0,0,1-.27,2.86,2.86,0,0,0,.8-.76A4.21,4.21,0,0,0,29.48,17a4.21,4.21,0,0,0-.57-1.12,2.86,2.86,0,0,0-.8-.76,1.89,1.89,0,0,0-1-.27,1.69,1.69,0,0,0-.94.27,1.86,1.86,0,0,0-.65.76A2.49,2.49,0,0,0,25.29,17Zm4.24,2.79-.18-2.13.24-.65-.22-.7.35-4.15h.83l-.41,4.8.23,2.83Z"/><path d="M36.68,17a5,5,0,0,1-.6,1.53,3.23,3.23,0,0,1-1,1,2.46,2.46,0,0,1-2.58,0,2.59,2.59,0,0,1-.9-1A3.33,3.33,0,0,1,31.3,17a3.38,3.38,0,0,1,.32-1.53,2.62,2.62,0,0,1,.9-1A2.41,2.41,0,0,1,33.83,14a2.35,2.35,0,0,1,1.27.36,3.45,3.45,0,0,1,1,1A4.74,4.74,0,0,1,36.68,17Zm-4.55,0a2.49,2.49,0,0,0,.24,1.12,1.86,1.86,0,0,0,.65.76,1.69,1.69,0,0,0,.94.27,1.89,1.89,0,0,0,1-.27,2.74,2.74,0,0,0,.8-.76A4.23,4.23,0,0,0,36.33,17a4.23,4.23,0,0,0-.58-1.12,2.74,2.74,0,0,0-.8-.76,1.89,1.89,0,0,0-1-.27,1.69,1.69,0,0,0-.94.27,1.86,1.86,0,0,0-.65.76A2.49,2.49,0,0,0,32.13,17Zm4.24,2.79-.18-2.13.24-.65-.22-.7.35-4.15h.84L37,16.91l.23,2.83Z"/><path d="M38.43,12.11h.82v7.63h-.82Z"/><path d="M43.23,19.87a3.09,3.09,0,0,1-1.53-.37,2.71,2.71,0,0,1-1-1A3,3,0,0,1,40.28,17a3.14,3.14,0,0,1,.36-1.53,2.56,2.56,0,0,1,1-1A2.86,2.86,0,0,1,43.08,14a2.59,2.59,0,0,1,1.42.39,2.66,2.66,0,0,1,.94,1.12,4,4,0,0,1,.34,1.67H40.9v-.73h4.53l-.49.33a2.46,2.46,0,0,0-.26-1.08A1.76,1.76,0,0,0,44,15a1.81,1.81,0,0,0-1-.25,2,2,0,0,0-1,.26,1.83,1.83,0,0,0-.69.74,2.46,2.46,0,0,0-.24,1.12,2.3,2.3,0,0,0,.28,1.17,1.88,1.88,0,0,0,.77.76,2.45,2.45,0,0,0,1.18.27,3.21,3.21,0,0,0,1.21-.23,3.74,3.74,0,0,0,1.06-.62V19a3.47,3.47,0,0,1-1.1.66A3.68,3.68,0,0,1,43.23,19.87Z"/><path d="M46.56,14.17h.82l.29,1.89v3.68h-.82V15.93Zm3-.13a1.89,1.89,0,0,1,1.11.31,2,2,0,0,1,.7.9,3.77,3.77,0,0,1,.24,1.42v3.07h-.82V16.83a2.53,2.53,0,0,0-.38-1.51,1.27,1.27,0,0,0-1.09-.51,1.4,1.4,0,0,0-.88.28,1.71,1.71,0,0,0-.59.77,2.83,2.83,0,0,0-.2,1.14l-.33-.26a3.8,3.8,0,0,1,.36-1.43,2.36,2.36,0,0,1,.78-.94A1.92,1.92,0,0,1,49.58,14Zm4,0a1.93,1.93,0,0,1,1.11.31,2,2,0,0,1,.7.9,3.77,3.77,0,0,1,.24,1.42v3.07h-.82V16.83a2.53,2.53,0,0,0-.38-1.51,1.27,1.27,0,0,0-1.09-.51,1.42,1.42,0,0,0-.88.28,1.71,1.71,0,0,0-.59.77,3,3,0,0,0-.2,1.14l-.33-.26a3.8,3.8,0,0,1,.36-1.43,2.36,2.36,0,0,1,.78-.94A1.92,1.92,0,0,1,53.54,14Z"/><path d="M59.5,19.87A3,3,0,0,1,58,19.5a2.73,2.73,0,0,1-1-1A3,3,0,0,1,56.54,17a3.14,3.14,0,0,1,.36-1.53,2.69,2.69,0,0,1,1-1A2.89,2.89,0,0,1,59.34,14a2.54,2.54,0,0,1,1.42.39,2.59,2.59,0,0,1,.94,1.12A3.8,3.8,0,0,1,62,17.22H57.17v-.73h4.52l-.48.33a2.61,2.61,0,0,0-.27-1.08,1.74,1.74,0,0,0-1.6-1,2,2,0,0,0-1,.26,1.8,1.8,0,0,0-.68.74,2.34,2.34,0,0,0-.25,1.12,2.3,2.3,0,0,0,.28,1.17,1.88,1.88,0,0,0,.77.76,2.48,2.48,0,0,0,1.18.27,3.17,3.17,0,0,0,1.21-.23,3.79,3.79,0,0,0,1.07-.62V19a3.41,3.41,0,0,1-1.11.66A3.66,3.66,0,0,1,59.5,19.87Z"/><path d="M62.82,14.17h.82l.29,1.89v3.68h-.82V15.93ZM66,14a2.13,2.13,0,0,1,1.19.31,2,2,0,0,1,.75.9,3.4,3.4,0,0,1,.26,1.42v3.07h-.82V16.83A2.39,2.39,0,0,0,67,15.32a1.47,1.47,0,0,0-1.21-.51,1.68,1.68,0,0,0-1,.28,1.74,1.74,0,0,0-.64.77A2.66,2.66,0,0,0,63.93,17l-.33-.26A3.63,3.63,0,0,1,64,15.31a2.43,2.43,0,0,1,.85-.94A2.14,2.14,0,0,1,66,14Z"/><path d="M69.87,19.81a.49.49,0,0,1-.29-.08.58.58,0,0,1-.21-.23.73.73,0,0,1-.08-.33.67.67,0,0,1,.08-.33.64.64,0,0,1,.2-.23.52.52,0,0,1,.3-.08.49.49,0,0,1,.29.08.58.58,0,0,1,.21.23.73.73,0,0,1,.08.33.66.66,0,0,1-.08.32.52.52,0,0,1-.21.23A.5.5,0,0,1,69.87,19.81Z"/><path d="M19.39,30.24a3.2,3.2,0,0,1-.57,1.56,3.09,3.09,0,0,1-1.23,1.06,3.92,3.92,0,0,1-1.75.37,3.85,3.85,0,0,1-1.94-.48,3.35,3.35,0,0,1-1.29-1.35,4.2,4.2,0,0,1-.47-2,4.15,4.15,0,0,1,.47-2A3.29,3.29,0,0,1,13.9,26a3.85,3.85,0,0,1,1.94-.49,3.92,3.92,0,0,1,1.75.38,3.23,3.23,0,0,1,1.8,2.61h-.85a2.53,2.53,0,0,0-.47-1.14,2.24,2.24,0,0,0-.92-.74,3.38,3.38,0,0,0-2.82.1,2.58,2.58,0,0,0-1,1,3.37,3.37,0,0,0-.35,1.6A3.26,3.26,0,0,0,13.35,31a2.55,2.55,0,0,0,1,1.05,2.93,2.93,0,0,0,1.5.37,3.05,3.05,0,0,0,1.32-.26,2.33,2.33,0,0,0,.92-.74,2.57,2.57,0,0,0,.47-1.15Z"/><path d="M22.5,33.23a2.08,2.08,0,0,1-1.17-.31,2.05,2.05,0,0,1-.73-.9,3.66,3.66,0,0,1-.25-1.43V27.53h.82v2.91a2.37,2.37,0,0,0,.4,1.5,1.41,1.41,0,0,0,1.17.51,1.68,1.68,0,0,0,1-.27,1.84,1.84,0,0,0,.62-.77,2.74,2.74,0,0,0,.22-1.15l.32.21a3.7,3.7,0,0,1-.37,1.47,2.5,2.5,0,0,1-.82,1A2.1,2.1,0,0,1,22.5,33.23Zm2.31-.12-.28-1.91V27.53h.82v3.81l.28,1.77Z"/><path d="M31.63,31.47a1.47,1.47,0,0,1-.29.93,1.82,1.82,0,0,1-.84.62,3.91,3.91,0,0,1-1.35.21A3.78,3.78,0,0,1,27.71,33a2.29,2.29,0,0,1-1-.71,1.83,1.83,0,0,1-.37-1.06h.84a1.22,1.22,0,0,0,.31.68,1.56,1.56,0,0,0,.68.45,2.59,2.59,0,0,0,.95.16,2.43,2.43,0,0,0,1.22-.26.8.8,0,0,0,.44-.72.58.58,0,0,0-.28-.53,2.86,2.86,0,0,0-1.06-.26l-1-.11a3.49,3.49,0,0,1-1.15-.29,1.39,1.39,0,0,1-.62-.54,1.34,1.34,0,0,1-.19-.72,1.39,1.39,0,0,1,.3-.91,1.87,1.87,0,0,1,.83-.57,3.63,3.63,0,0,1,1.24-.19,3.52,3.52,0,0,1,1.34.24,2.22,2.22,0,0,1,.93.66,1.66,1.66,0,0,1,.38,1h-.83a1.13,1.13,0,0,0-.26-.58,1.69,1.69,0,0,0-.62-.42,2.58,2.58,0,0,0-1-.16,2.24,2.24,0,0,0-1.11.23.71.71,0,0,0-.4.66.62.62,0,0,0,.26.51,2.24,2.24,0,0,0,.92.27l1.11.12a4.25,4.25,0,0,1,1.19.28,1.31,1.31,0,0,1,.62.52A1.5,1.5,0,0,1,31.63,31.47Z"/><path d="M32,28.26v-.44l1.11-.22.33-1.52h.49v1.45h2.44v.73H33.9v2.83a1.48,1.48,0,0,0,.3,1.06,1.26,1.26,0,0,0,.92.3,2,2,0,0,0,.72-.11,2.44,2.44,0,0,0,.6-.31v.8a2.37,2.37,0,0,1-.63.28,3,3,0,0,1-.86.12A2,2,0,0,1,33.86,33a1.44,1.44,0,0,1-.6-.71,2.74,2.74,0,0,1-.18-1v-3Z"/><path d="M39.82,33.23a3.25,3.25,0,0,1-1.55-.36,2.67,2.67,0,0,1-1.05-1,3.07,3.07,0,0,1-.37-1.53,3,3,0,0,1,.37-1.52,2.67,2.67,0,0,1,1.05-1,3.56,3.56,0,0,1,3.12,0,2.71,2.71,0,0,1,1,1,2.88,2.88,0,0,1,.38,1.52,3,3,0,0,1-.38,1.53,2.71,2.71,0,0,1-1,1A3.28,3.28,0,0,1,39.82,33.23Zm0-.76A2.44,2.44,0,0,0,41,32.21a1.84,1.84,0,0,0,.74-.75,2.56,2.56,0,0,0,0-2.29,1.84,1.84,0,0,0-.74-.75,2.33,2.33,0,0,0-1.15-.27,2.28,2.28,0,0,0-1.13.27,1.81,1.81,0,0,0-.75.75,2.65,2.65,0,0,0,0,2.29,1.81,1.81,0,0,0,.75.75A2.39,2.39,0,0,0,39.82,32.47Z"/><path d="M43.61,27.53h.82l.28,1.89v3.69h-.82V29.29Zm3-.13a1.89,1.89,0,0,1,1.11.31,2,2,0,0,1,.69.9A3.76,3.76,0,0,1,48.68,30v3.08h-.83V30.19a2.55,2.55,0,0,0-.37-1.51,1.27,1.27,0,0,0-1.09-.51,1.45,1.45,0,0,0-.89.28,1.77,1.77,0,0,0-.58.77,2.83,2.83,0,0,0-.21,1.14l-.33-.26a4.22,4.22,0,0,1,.36-1.43,2.38,2.38,0,0,1,.79-.94A1.9,1.9,0,0,1,46.63,27.4Zm3.95,0a1.89,1.89,0,0,1,1.11.31,2,2,0,0,1,.71.9A3.77,3.77,0,0,1,52.64,30v3.08h-.82V30.19a2.55,2.55,0,0,0-.38-1.51,1.27,1.27,0,0,0-1.09-.51,1.45,1.45,0,0,0-.89.28,1.77,1.77,0,0,0-.58.77,2.83,2.83,0,0,0-.2,1.14l-.33-.26a3.8,3.8,0,0,1,.36-1.43,2.36,2.36,0,0,1,.78-.94A1.92,1.92,0,0,1,50.58,27.4Z"/><path d="M54.3,26.68a.57.57,0,0,1-.43-.17.6.6,0,0,1-.17-.44.6.6,0,0,1,.17-.43.57.57,0,0,1,.43-.17.58.58,0,0,1,.6.6.57.57,0,0,1-.17.44A.56.56,0,0,1,54.3,26.68Zm-.41.83.41.08.42-.08v5.6h-.83Z"/><path d="M60.94,31.47a1.47,1.47,0,0,1-.29.93,1.82,1.82,0,0,1-.84.62,3.93,3.93,0,0,1-1.36.21A3.76,3.76,0,0,1,57,33a2.29,2.29,0,0,1-1-.71,1.83,1.83,0,0,1-.37-1.06h.84a1.22,1.22,0,0,0,.31.68,1.56,1.56,0,0,0,.68.45,2.59,2.59,0,0,0,1,.16,2.43,2.43,0,0,0,1.22-.26.82.82,0,0,0,.44-.72.58.58,0,0,0-.28-.53,2.86,2.86,0,0,0-1.06-.26l-1-.11a3.49,3.49,0,0,1-1.15-.29,1.39,1.39,0,0,1-.62-.54,1.34,1.34,0,0,1-.19-.72,1.39,1.39,0,0,1,.3-.91,1.87,1.87,0,0,1,.83-.57,3.63,3.63,0,0,1,1.24-.19,3.52,3.52,0,0,1,1.34.24,2.22,2.22,0,0,1,.93.66,1.66,1.66,0,0,1,.38,1H60a1.22,1.22,0,0,0-.26-.58,1.69,1.69,0,0,0-.62-.42,2.61,2.61,0,0,0-1-.16,2.24,2.24,0,0,0-1.11.23.71.71,0,0,0-.4.66.62.62,0,0,0,.26.51,2.24,2.24,0,0,0,.92.27l1.1.12a4.24,4.24,0,0,1,1.2.28,1.31,1.31,0,0,1,.62.52A1.5,1.5,0,0,1,60.94,31.47Z"/><path d="M67.06,30.31a5,5,0,0,1-.6,1.53,3.23,3.23,0,0,1-1,1,2.35,2.35,0,0,1-1.27.36,2.31,2.31,0,0,1-1.31-.37,2.52,2.52,0,0,1-.9-1,3.67,3.67,0,0,1,0-3,2.59,2.59,0,0,1,.9-1,2.38,2.38,0,0,1,1.31-.36,2.35,2.35,0,0,1,1.27.36,3.37,3.37,0,0,1,1,1A4.59,4.59,0,0,1,67.06,30.31Zm-4.55,0a2.49,2.49,0,0,0,.24,1.12,1.86,1.86,0,0,0,.65.76,1.69,1.69,0,0,0,.94.27,1.89,1.89,0,0,0,1-.27,2.74,2.74,0,0,0,.8-.76,4.55,4.55,0,0,0,.58-1.12,4.55,4.55,0,0,0-.58-1.12,2.87,2.87,0,0,0-.8-.76,1.89,1.89,0,0,0-1-.27,1.69,1.69,0,0,0-.94.27,1.93,1.93,0,0,0-.65.76A2.49,2.49,0,0,0,62.51,30.31Zm4.23,2.8L66.56,31l.23-.68-.23-.67.18-2.11h.84l-.23,2.78.23,2.8Z"/><path d="M68.81,25.47h.82V29.6l-.15.29v.84l.15.38v2h-.82Zm.42,4.84a4.83,4.83,0,0,1,.6-1.52,3.23,3.23,0,0,1,1-1,2.38,2.38,0,0,1,1.28-.36,2.41,2.41,0,0,1,1.31.36,2.49,2.49,0,0,1,.89,1,3.67,3.67,0,0,1,0,3,2.43,2.43,0,0,1-.89,1,2.33,2.33,0,0,1-1.31.37,2.38,2.38,0,0,1-1.28-.36,3.23,3.23,0,0,1-1-1A5,5,0,0,1,69.23,30.31Zm4.55,0a2.49,2.49,0,0,0-.24-1.12,1.85,1.85,0,0,0-.65-.76,1.67,1.67,0,0,0-.94-.27,1.85,1.85,0,0,0-1,.27,2.87,2.87,0,0,0-.8.76,4.55,4.55,0,0,0-.58,1.12,4.55,4.55,0,0,0,.58,1.12,2.74,2.74,0,0,0,.8.76,1.85,1.85,0,0,0,1,.27,1.67,1.67,0,0,0,.94-.27,1.79,1.79,0,0,0,.65-.76A2.49,2.49,0,0,0,73.78,30.31Z"/><path d="M75.66,25.47h.82v7.64h-.82Z"/><path d="M80.46,33.23a3.09,3.09,0,0,1-1.53-.37,2.64,2.64,0,0,1-1-1,3,3,0,0,1-.38-1.52,3.08,3.08,0,0,1,.36-1.52,2.65,2.65,0,0,1,1-1,2.86,2.86,0,0,1,1.45-.36,2.59,2.59,0,0,1,1.42.39,2.66,2.66,0,0,1,.94,1.12A4,4,0,0,1,83,30.58H78.13v-.72h4.53l-.48.32a2.61,2.61,0,0,0-.27-1.08,1.76,1.76,0,0,0-.65-.7,1.81,1.81,0,0,0-1-.25,2,2,0,0,0-1,.26,1.9,1.9,0,0,0-.69.74,2.46,2.46,0,0,0-.24,1.12,2.3,2.3,0,0,0,.28,1.17,1.82,1.82,0,0,0,.77.76,2.45,2.45,0,0,0,1.18.27,3.21,3.21,0,0,0,1.21-.23,3.74,3.74,0,0,0,1.06-.62v.71a3.36,3.36,0,0,1-1.1.66A3.68,3.68,0,0,1,80.46,33.23Z"/><path d="M17.71,42.41a2.47,2.47,0,0,1-.49,1.16,2.73,2.73,0,0,1-1,.8,3,3,0,0,1-1.32.28,2.92,2.92,0,0,1-1.49-.37,2.61,2.61,0,0,1-1-1,3.39,3.39,0,0,1,0-3,2.68,2.68,0,0,1,1-1,3.26,3.26,0,0,1,2.81-.08,2.7,2.7,0,0,1,1,.79,2.5,2.5,0,0,1,.49,1.18h-.85A1.74,1.74,0,0,0,16.2,40a2.08,2.08,0,0,0-1.28-.4,2,2,0,0,0-1.06.27,1.81,1.81,0,0,0-.7.75,2.4,2.4,0,0,0-.25,1.14,2.44,2.44,0,0,0,.25,1.15,1.81,1.81,0,0,0,.7.75,2.11,2.11,0,0,0,1.06.26,2,2,0,0,0,1.28-.4,1.72,1.72,0,0,0,.66-1.08Z"/><path d="M21.36,44.65a3.27,3.27,0,0,1-1.56-.36,2.67,2.67,0,0,1-1.05-1,3.35,3.35,0,0,1,0-3.06,2.71,2.71,0,0,1,1.05-1,3.56,3.56,0,0,1,3.12,0,2.85,2.85,0,0,1,1,1,3.27,3.27,0,0,1,0,3.06,2.8,2.8,0,0,1-1,1A3.27,3.27,0,0,1,21.36,44.65Zm0-.76a2.4,2.4,0,0,0,1.14-.26,1.84,1.84,0,0,0,.74-.75,2.56,2.56,0,0,0,0-2.29,1.84,1.84,0,0,0-.74-.75,2.54,2.54,0,0,0-2.28,0,1.93,1.93,0,0,0-.75.75,2.75,2.75,0,0,0,0,2.29,1.93,1.93,0,0,0,.75.75A2.4,2.4,0,0,0,21.36,43.89Z"/><path d="M25.14,39H26l.29,1.89v3.69h-.82V40.71Zm3.18-.13a2.19,2.19,0,0,1,1.2.31,2,2,0,0,1,.75.9,3.57,3.57,0,0,1,.26,1.42v3.08h-.82V41.61a2.34,2.34,0,0,0-.42-1.51,1.46,1.46,0,0,0-1.21-.51,1.64,1.64,0,0,0-1,.28,1.83,1.83,0,0,0-.65.77,2.67,2.67,0,0,0-.22,1.14l-.33-.26a3.63,3.63,0,0,1,.38-1.43,2.33,2.33,0,0,1,.84-.94A2.16,2.16,0,0,1,28.32,38.82Z"/><path d="M31.36,40v-.75h4.3V40Zm3.25-2.52a1.39,1.39,0,0,0-1,.31,1.45,1.45,0,0,0-.33,1.08v5.63h-.83V39.05a3.05,3.05,0,0,1,.22-1.17,1.69,1.69,0,0,1,.67-.82,2.21,2.21,0,0,1,1.19-.29,2.35,2.35,0,0,1,.62.07,4,4,0,0,1,.52.18v.77a2,2,0,0,0-.5-.22A2.47,2.47,0,0,0,34.61,37.51ZM37,38.1a.57.57,0,0,1-.43-.17.6.6,0,0,1-.17-.44.6.6,0,0,1,.17-.43.57.57,0,0,1,.43-.17.58.58,0,0,1,.44.17.6.6,0,0,1,.17.43.6.6,0,0,1-.17.44A.58.58,0,0,1,37,38.1Zm-.41.83L37,39l.41-.08v5.6h-.82Z"/><path d="M40.91,44.17a2.22,2.22,0,0,1-1.22-.34,2.3,2.3,0,0,1-.87-.93,3.18,3.18,0,0,1,0-2.82,2.32,2.32,0,0,1,2.09-1.26,2.67,2.67,0,0,1,1,.17,3.27,3.27,0,0,1,.79.46,3.12,3.12,0,0,1,.61.65,3.32,3.32,0,0,1,.39.71,2,2,0,0,1,.13.68,2.12,2.12,0,0,1-.21.87,2.85,2.85,0,0,1-.59.87,3.24,3.24,0,0,1-.91.68A2.63,2.63,0,0,1,40.91,44.17Zm2.55-1v-1l0-.15V41.1l0-.2V39h.82V43a3.76,3.76,0,0,1-.39,1.81,2.61,2.61,0,0,1-1.08,1.08,3.21,3.21,0,0,1-1.54.36,3.61,3.61,0,0,1-1.21-.2A4,4,0,0,1,39,45.47v-.81a3.15,3.15,0,0,0,1.11.68,3.66,3.66,0,0,0,1.12.19,2.16,2.16,0,0,0,1.67-.63A2.49,2.49,0,0,0,43.46,43.17Zm-2.32.27A2.07,2.07,0,0,0,42.42,43a4.07,4.07,0,0,0,1.08-1.49A3.82,3.82,0,0,0,42.42,40a2.06,2.06,0,0,0-1.28-.45,1.91,1.91,0,0,0-1,.25,1.65,1.65,0,0,0-.62.69,2.51,2.51,0,0,0,0,2,1.65,1.65,0,0,0,.62.69A1.82,1.82,0,0,0,41.14,43.44Z"/><path d="M47.67,44.65a2.08,2.08,0,0,1-1.17-.31,2,2,0,0,1-.73-.9A3.66,3.66,0,0,1,45.52,42V39h.82v2.91a2.37,2.37,0,0,0,.4,1.5,1.41,1.41,0,0,0,1.17.51,1.65,1.65,0,0,0,.94-.27,1.79,1.79,0,0,0,.63-.77,2.91,2.91,0,0,0,.22-1.15l.32.21a3.7,3.7,0,0,1-.37,1.47,2.52,2.52,0,0,1-.83,1A2,2,0,0,1,47.67,44.65ZM50,44.53l-.28-1.91V39h.82v3.81l.28,1.77Z"/><path d="M51.67,39h.82l.29,1.9v3.68H52V40.68Zm3.77,0v.82a1.87,1.87,0,0,0-.39-.09l-.44,0a1.7,1.7,0,0,0-1.6,1,3,3,0,0,0-.23,1.2l-.23-.36a3.7,3.7,0,0,1,.17-1.08,2.52,2.52,0,0,1,.43-.85,1.87,1.87,0,0,1,.68-.57,2,2,0,0,1,.89-.2,2.56,2.56,0,0,1,.39,0A1.23,1.23,0,0,1,55.44,38.93Z"/><path d="M61.08,41.73a5.26,5.26,0,0,1-.61,1.53,3.13,3.13,0,0,1-1,1,2.46,2.46,0,0,1-2.58,0,2.52,2.52,0,0,1-.9-1,3.47,3.47,0,0,1-.32-1.52A3.51,3.51,0,0,1,56,40.2a2.62,2.62,0,0,1,.9-1,2.41,2.41,0,0,1,1.31-.36,2.35,2.35,0,0,1,1.27.36,3.33,3.33,0,0,1,1,1A5,5,0,0,1,61.08,41.73Zm-4.55,0a2.49,2.49,0,0,0,.23,1.12,1.94,1.94,0,0,0,.65.76,1.69,1.69,0,0,0,.94.27,1.89,1.89,0,0,0,1-.27,2.74,2.74,0,0,0,.8-.76,4.23,4.23,0,0,0,.58-1.12,4.23,4.23,0,0,0-.58-1.12,2.87,2.87,0,0,0-.8-.76,1.89,1.89,0,0,0-1-.27,1.69,1.69,0,0,0-.94.27,2,2,0,0,0-.65.76A2.49,2.49,0,0,0,56.53,41.73Zm4.22,2.8-.17-2.12.22-.68-.22-.67L60.75,39h.84l-.23,2.78.23,2.8Z"/><path d="M62.19,39.68v-.44L63.3,39l.33-1.52h.49V39h2.44v.73H64.12v2.83a1.48,1.48,0,0,0,.3,1.06,1.24,1.24,0,0,0,.92.3,2,2,0,0,0,.72-.11,2.86,2.86,0,0,0,.6-.31v.8a2.37,2.37,0,0,1-.63.28,3.08,3.08,0,0,1-.86.12,2,2,0,0,1-1.09-.26,1.44,1.44,0,0,1-.6-.71,2.74,2.74,0,0,1-.18-1v-3Z"/><path d="M67.94,38.1a.57.57,0,0,1-.42-.17.6.6,0,0,1-.17-.44.6.6,0,0,1,.17-.43.63.63,0,0,1,.86,0,.56.56,0,0,1,.17.43.58.58,0,0,1-.61.61Zm-.4.83L68,39l.41-.08v5.6h-.82Z"/><path d="M72.37,44.65a3.27,3.27,0,0,1-1.56-.36,2.64,2.64,0,0,1-1-1,3.27,3.27,0,0,1,0-3.06,2.68,2.68,0,0,1,1-1,3.27,3.27,0,0,1,1.56-.36,3.21,3.21,0,0,1,1.56.36,2.71,2.71,0,0,1,1,1,3.27,3.27,0,0,1,0,3.06,2.67,2.67,0,0,1-1,1A3.21,3.21,0,0,1,72.37,44.65Zm0-.76a2.4,2.4,0,0,0,1.14-.26,1.93,1.93,0,0,0,.75-.75,2.65,2.65,0,0,0,0-2.29,1.93,1.93,0,0,0-.75-.75,2.29,2.29,0,0,0-1.14-.27,2.34,2.34,0,0,0-1.14.27,1.84,1.84,0,0,0-.74.75,2.65,2.65,0,0,0,0,2.29,1.84,1.84,0,0,0,.74.75A2.46,2.46,0,0,0,72.37,43.89Z"/><path d="M76.15,39H77l.29,1.89v3.69h-.82V40.71Zm3.19-.13a2.13,2.13,0,0,1,1.19.31,2,2,0,0,1,.75.9,3.4,3.4,0,0,1,.26,1.42v3.08h-.82V41.61a2.4,2.4,0,0,0-.41-1.51,1.47,1.47,0,0,0-1.21-.51,1.68,1.68,0,0,0-1,.28,1.74,1.74,0,0,0-.64.77,2.66,2.66,0,0,0-.23,1.14l-.33-.26a3.63,3.63,0,0,1,.38-1.43,2.43,2.43,0,0,1,.85-.94A2.14,2.14,0,0,1,79.34,38.82Z"/><path d="M87.7,42.89a1.54,1.54,0,0,1-.29.93,1.9,1.9,0,0,1-.85.62,3.83,3.83,0,0,1-1.35.21,3.73,3.73,0,0,1-1.43-.25,2.18,2.18,0,0,1-1-.71,1.84,1.84,0,0,1-.38-1.06h.84a1.29,1.29,0,0,0,.31.68,1.62,1.62,0,0,0,.68.45,2.61,2.61,0,0,0,1,.16,2.46,2.46,0,0,0,1.22-.26.82.82,0,0,0,.44-.72.58.58,0,0,0-.29-.53,2.8,2.8,0,0,0-1.06-.26l-1-.11a3.56,3.56,0,0,1-1.16-.29,1.45,1.45,0,0,1-.62-.54,1.43,1.43,0,0,1-.19-.72,1.39,1.39,0,0,1,.3-.91,1.85,1.85,0,0,1,.84-.57A3.59,3.59,0,0,1,85,38.82a3.47,3.47,0,0,1,1.33.24,2.22,2.22,0,0,1,.93.66,1.67,1.67,0,0,1,.39,1h-.83a1.15,1.15,0,0,0-.27-.58,1.69,1.69,0,0,0-.62-.42,2.54,2.54,0,0,0-1-.16,2.29,2.29,0,0,0-1.11.23.72.72,0,0,0-.39.66.61.61,0,0,0,.25.51,2.29,2.29,0,0,0,.92.27l1.11.12a4.25,4.25,0,0,1,1.19.28,1.26,1.26,0,0,1,.62.52A1.41,1.41,0,0,1,87.7,42.89Z"/><path d="M12.07,55.44h.85a1.75,1.75,0,0,0,.37.92,2,2,0,0,0,.83.61,2.89,2.89,0,0,0,1.18.22,3,3,0,0,0,1.6-.38,1.17,1.17,0,0,0,.59-1,.88.88,0,0,0-.37-.77,2.88,2.88,0,0,0-1.29-.39l-1.29-.18a3.17,3.17,0,0,1-1.76-.65,1.72,1.72,0,0,1-.53-1.32,1.88,1.88,0,0,1,.36-1.15,2.23,2.23,0,0,1,1-.76,4.08,4.08,0,0,1,1.51-.26,3.92,3.92,0,0,1,1.54.29,2.69,2.69,0,0,1,1.07.81,2.18,2.18,0,0,1,.43,1.23h-.84A1.55,1.55,0,0,0,17,51.8a1.8,1.8,0,0,0-.77-.53,2.86,2.86,0,0,0-1.11-.2,2.61,2.61,0,0,0-1.46.36,1.15,1.15,0,0,0-.55,1,.89.89,0,0,0,.36.76,2.91,2.91,0,0,0,1.22.38l1.27.19a5.16,5.16,0,0,1,1.41.35,1.59,1.59,0,0,1,.75.6,1.81,1.81,0,0,1,.23,1A2,2,0,0,1,18,56.91a2.34,2.34,0,0,1-1.06.79,4.16,4.16,0,0,1-1.6.28,4,4,0,0,1-1.63-.32,2.84,2.84,0,0,1-1.14-.89A2.34,2.34,0,0,1,12.07,55.44Z"/><path d="M18.75,53v-.43l1.11-.23.33-1.52h.49v1.45h2.44V53H20.68v2.84a1.46,1.46,0,0,0,.3,1,1.22,1.22,0,0,0,.92.31,2.27,2.27,0,0,0,.72-.11,2.68,2.68,0,0,0,.6-.32v.8a2.37,2.37,0,0,1-.63.28,2.71,2.71,0,0,1-.86.13,2.07,2.07,0,0,1-1.09-.26A1.5,1.5,0,0,1,20,57a2.73,2.73,0,0,1-.18-1V53Z"/><path d="M23.87,52.27h.82l.29,1.9v3.68h-.82V54Zm3.78,0v.82a1.57,1.57,0,0,0-.4-.08l-.43,0a1.73,1.73,0,0,0-1,.26,1.8,1.8,0,0,0-.65.78A3,3,0,0,0,25,55.2l-.23-.35a4.07,4.07,0,0,1,.17-1.08,2.57,2.57,0,0,1,.43-.86,1.93,1.93,0,0,1,.68-.56,1.86,1.86,0,0,1,.89-.21,2.56,2.56,0,0,1,.39,0A1.9,1.9,0,0,1,27.65,52.25Z"/><path d="M30.83,58a3.09,3.09,0,0,1-1.55-.37,2.54,2.54,0,0,1-1.05-1,3.25,3.25,0,0,1,0-3,2.58,2.58,0,0,1,1.05-1,3.45,3.45,0,0,1,3.11,0,2.58,2.58,0,0,1,1,1,3.25,3.25,0,0,1,0,3,2.54,2.54,0,0,1-1,1A3.1,3.1,0,0,1,30.83,58Zm0-.76A2.29,2.29,0,0,0,32,57a1.78,1.78,0,0,0,.75-.74A2.35,2.35,0,0,0,33,55.06a2.29,2.29,0,0,0-.26-1.14,1.83,1.83,0,0,0-.75-.76,2.4,2.4,0,0,0-1.14-.26,2.46,2.46,0,0,0-1.14.26,1.81,1.81,0,0,0-.74.76,2.4,2.4,0,0,0-.26,1.14A2.47,2.47,0,0,0,29,56.21a1.76,1.76,0,0,0,.74.74A2.34,2.34,0,0,0,30.83,57.22Z"/><path d="M34.62,52.27h.82l.28,1.89v3.69H34.9V54Zm3.18-.13a2.28,2.28,0,0,1,1.2.31,2.07,2.07,0,0,1,.75.91A3.54,3.54,0,0,1,40,54.78v3.07h-.82V54.94a2.39,2.39,0,0,0-.41-1.51,1.47,1.47,0,0,0-1.21-.51,1.75,1.75,0,0,0-1,.27A1.87,1.87,0,0,0,36,54a2.74,2.74,0,0,0-.23,1.15l-.33-.26a3.47,3.47,0,0,1,.39-1.44,2.47,2.47,0,0,1,.84-.94A2.16,2.16,0,0,1,37.8,52.14Z"/><path d="M43.38,57.49a2.3,2.3,0,0,1-1.22-.33,2.39,2.39,0,0,1-.87-.94,3.24,3.24,0,0,1,0-2.81,2.39,2.39,0,0,1,.87-.94,2.3,2.3,0,0,1,1.22-.33,2.47,2.47,0,0,1,.95.18,3.2,3.2,0,0,1,1.4,1.1,3.19,3.19,0,0,1,.39.72,2,2,0,0,1,.14.68,2.12,2.12,0,0,1-.21.87,3.4,3.4,0,0,1-.6.87,3.2,3.2,0,0,1-.91.67A2.47,2.47,0,0,1,43.38,57.49Zm2.56-1v-1l0-.15v-.92l0-.2V52.27h.82v4.09a3.8,3.8,0,0,1-.4,1.82,2.56,2.56,0,0,1-1.08,1.08,3.21,3.21,0,0,1-1.54.36,3.42,3.42,0,0,1-1.21-.21,3.5,3.5,0,0,1-1.06-.62V58a3,3,0,0,0,1.1.67,3.44,3.44,0,0,0,1.13.19,2.13,2.13,0,0,0,1.66-.63A2.48,2.48,0,0,0,45.94,56.49Zm-2.33.27a2.06,2.06,0,0,0,1.28-.45A4,4,0,0,0,46,54.82a3.91,3.91,0,0,0-1.07-1.5,2.11,2.11,0,0,0-1.29-.45,1.82,1.82,0,0,0-1,.25,1.63,1.63,0,0,0-.61.69,2.31,2.31,0,0,0-.21,1,2.25,2.25,0,0,0,.21,1,1.6,1.6,0,0,0,.61.7A1.82,1.82,0,0,0,43.61,56.76Z"/><path d="M52.07,57.67l-2.38-5.4h.9l2.31,5.4Zm-.83,1.95a2.08,2.08,0,0,1-.69-.11,2.92,2.92,0,0,1-.6-.32v-.72a2.63,2.63,0,0,0,.57.3,1.81,1.81,0,0,0,.63.1,1.15,1.15,0,0,0,.67-.19,1.52,1.52,0,0,0,.46-.63l2.51-5.78h.87l-2.75,6.12a2.34,2.34,0,0,1-.44.69,1.65,1.65,0,0,1-.56.41A1.86,1.86,0,0,1,51.24,59.62Z"/><path d="M58.84,58a3,3,0,0,1-1.53-.37,2.73,2.73,0,0,1-1.05-1,3,3,0,0,1-.38-1.52,3.12,3.12,0,0,1,.36-1.53,2.56,2.56,0,0,1,1-1,2.79,2.79,0,0,1,1.45-.37,2.47,2.47,0,0,1,1.42.4A2.56,2.56,0,0,1,61,53.65a3.83,3.83,0,0,1,.34,1.67H56.51V54.6H61l-.48.33a2.53,2.53,0,0,0-.27-1.08,1.79,1.79,0,0,0-.65-.71,1.84,1.84,0,0,0-1-.24,1.9,1.9,0,0,0-1,.26,1.74,1.74,0,0,0-.68.74,2.61,2.61,0,0,0,0,2.29,1.88,1.88,0,0,0,.77.76,2.48,2.48,0,0,0,1.18.27A3.37,3.37,0,0,0,60.16,57a3.6,3.6,0,0,0,1.07-.63v.72a3.41,3.41,0,0,1-1.11.66A3.66,3.66,0,0,1,58.84,58Z"/><path d="M61.66,53v-.43l1.11-.23.33-1.52h.49v1.45H66V53H63.59v2.84a1.46,1.46,0,0,0,.3,1,1.22,1.22,0,0,0,.92.31,2.18,2.18,0,0,0,.72-.11,2.48,2.48,0,0,0,.6-.32v.8a2.37,2.37,0,0,1-.63.28,2.71,2.71,0,0,1-.86.13,2.07,2.07,0,0,1-1.09-.26A1.56,1.56,0,0,1,63,57a2.73,2.73,0,0,1-.18-1V53Z"/><path d="M69.48,50.22h.82v7.63h-.82Z"/><path d="M72,51.43a.57.57,0,0,1-.42-.17.61.61,0,0,1-.18-.45.58.58,0,0,1,.18-.43.57.57,0,0,1,.42-.17.6.6,0,0,1,.44.17.61.61,0,0,1,.17.43.64.64,0,0,1-.17.45A.6.6,0,0,1,72,51.43Zm-.4.82.41.08.41-.08v5.6h-.82Z"/><path d="M75.9,57.49a2.3,2.3,0,0,1-1.22-.33,2.39,2.39,0,0,1-.87-.94,3.24,3.24,0,0,1,0-2.81,2.39,2.39,0,0,1,.87-.94,2.3,2.3,0,0,1,1.22-.33,2.47,2.47,0,0,1,.95.18,3,3,0,0,1,.79.46,3.08,3.08,0,0,1,.61.64,3.19,3.19,0,0,1,.39.72,2,2,0,0,1,.14.68,2.12,2.12,0,0,1-.21.87,3.4,3.4,0,0,1-.6.87,3.2,3.2,0,0,1-.91.67A2.47,2.47,0,0,1,75.9,57.49Zm2.55-1v-1l0-.15v-.92l0-.2V52.27h.83v4.09a3.8,3.8,0,0,1-.4,1.82,2.61,2.61,0,0,1-1.08,1.08,3.21,3.21,0,0,1-1.54.36,3.42,3.42,0,0,1-1.21-.21A3.38,3.38,0,0,1,74,58.79V58a3,3,0,0,0,1.1.67,3.39,3.39,0,0,0,1.13.19,2.13,2.13,0,0,0,1.66-.63A2.47,2.47,0,0,0,78.45,56.49Zm-2.32.27a2.06,2.06,0,0,0,1.28-.45,4.16,4.16,0,0,0,1.08-1.49,3.91,3.91,0,0,0-1.07-1.5,2.11,2.11,0,0,0-1.29-.45,1.82,1.82,0,0,0-1,.25,1.57,1.57,0,0,0-.61.69,2.31,2.31,0,0,0-.21,1,2.25,2.25,0,0,0,.21,1,1.54,1.54,0,0,0,.61.7A1.82,1.82,0,0,0,76.13,56.76Z"/><path d="M80.58,50.22h.82v7.63h-.82Zm2.89,1.92a2.22,2.22,0,0,1,1.19.31,1.94,1.94,0,0,1,.75.91,3.37,3.37,0,0,1,.26,1.42v3.07h-.82V54.94a2.39,2.39,0,0,0-.41-1.51,1.46,1.46,0,0,0-1.21-.51,1.71,1.71,0,0,0-1,.27,1.8,1.8,0,0,0-.64.77,2.6,2.6,0,0,0-.23,1.15l-.33-.26a3.63,3.63,0,0,1,.38-1.44,2.58,2.58,0,0,1,.85-.94A2.11,2.11,0,0,1,83.47,52.14Z"/><path d="M86.23,53v-.43l1.1-.23.33-1.52h.49v1.45H90.6V53H88.15v2.84a1.46,1.46,0,0,0,.3,1,1.22,1.22,0,0,0,.92.31,2.18,2.18,0,0,0,.72-.11,2.48,2.48,0,0,0,.6-.32v.8a2.44,2.44,0,0,1-.62.28,2.8,2.8,0,0,1-.86.13,2.08,2.08,0,0,1-1.1-.26,1.54,1.54,0,0,1-.59-.72,2.54,2.54,0,0,1-.19-1V53Z"/><path d="M98,57.42h-.35l1.89-5.15h.84l-2.1,5.58h-.84l-1.9-5.19h.38L94,57.85h-.84l-2.1-5.58h.85l1.9,5.15h-.37l1.87-5.15h.85Z"/><path d="M103.63,58a3.07,3.07,0,0,1-1.53-.37,2.71,2.71,0,0,1-1-1,3,3,0,0,1-.38-1.52,3.12,3.12,0,0,1,.36-1.53,2.43,2.43,0,0,1,1-1,2.77,2.77,0,0,1,1.45-.37,2.51,2.51,0,0,1,1.42.4,2.63,2.63,0,0,1,.94,1.11,4,4,0,0,1,.33,1.67H101.3V54.6h4.53l-.49.33a2.39,2.39,0,0,0-.26-1.08,1.79,1.79,0,0,0-.65-.71,1.9,1.9,0,0,0-1-.24,2,2,0,0,0-1,.26,1.81,1.81,0,0,0-.68.74,2.44,2.44,0,0,0-.24,1.12,2.41,2.41,0,0,0,.27,1.17,2,2,0,0,0,.78.76,2.45,2.45,0,0,0,1.18.27A3.42,3.42,0,0,0,105,57a3.55,3.55,0,0,0,1.06-.63v.72a3.47,3.47,0,0,1-1.1.66A3.68,3.68,0,0,1,103.63,58Z"/><path d="M107.59,51.43a.59.59,0,0,1-.42-.17.61.61,0,0,1-.18-.45.58.58,0,0,1,.18-.43.59.59,0,0,1,.42-.17.6.6,0,0,1,.44.17.61.61,0,0,1,.17.43.64.64,0,0,1-.17.45A.6.6,0,0,1,107.59,51.43Zm-.4.82.41.08.41-.08v5.6h-.82Z"/><path d="M111.46,57.49a2.3,2.3,0,0,1-1.22-.33,2.39,2.39,0,0,1-.87-.94,3.24,3.24,0,0,1,0-2.81,2.39,2.39,0,0,1,.87-.94,2.3,2.3,0,0,1,1.22-.33,2.47,2.47,0,0,1,1,.18,3.2,3.2,0,0,1,1.4,1.1,3.19,3.19,0,0,1,.39.72,2,2,0,0,1,.14.68,2.12,2.12,0,0,1-.21.87,3.4,3.4,0,0,1-.6.87,3.2,3.2,0,0,1-.91.67A2.47,2.47,0,0,1,111.46,57.49Zm2.56-1v-1l0-.15v-.92l0-.2V52.27h.82v4.09a3.8,3.8,0,0,1-.4,1.82,2.56,2.56,0,0,1-1.08,1.08,3.21,3.21,0,0,1-1.54.36,3.46,3.46,0,0,1-1.21-.21,3.5,3.5,0,0,1-1.06-.62V58a3,3,0,0,0,1.1.67,3.44,3.44,0,0,0,1.13.19,2.13,2.13,0,0,0,1.66-.63A2.48,2.48,0,0,0,114,56.49Zm-2.33.27a2.06,2.06,0,0,0,1.28-.45,4,4,0,0,0,1.08-1.49,3.91,3.91,0,0,0-1.07-1.5,2.11,2.11,0,0,0-1.29-.45,1.82,1.82,0,0,0-1,.25,1.63,1.63,0,0,0-.61.69,2.31,2.31,0,0,0-.21,1,2.25,2.25,0,0,0,.21,1,1.6,1.6,0,0,0,.61.7A1.82,1.82,0,0,0,111.69,56.76Z"/><path d="M116.14,50.22H117v7.63h-.82ZM119,52.14a2.28,2.28,0,0,1,1.2.31,2.07,2.07,0,0,1,.75.91,3.54,3.54,0,0,1,.25,1.42v3.07h-.82V54.94a2.33,2.33,0,0,0-.41-1.51,1.46,1.46,0,0,0-1.21-.51,1.74,1.74,0,0,0-1,.27,1.8,1.8,0,0,0-.64.77,2.74,2.74,0,0,0-.23,1.15l-.33-.26a3.63,3.63,0,0,1,.38-1.44,2.58,2.58,0,0,1,.85-.94A2.13,2.13,0,0,1,119,52.14Z"/><path d="M121.79,53v-.43l1.1-.23.33-1.52h.49v1.45h2.45V53h-2.45v2.84a1.46,1.46,0,0,0,.3,1,1.23,1.23,0,0,0,.93.31,2.16,2.16,0,0,0,.71-.11,2.75,2.75,0,0,0,.61-.32v.8a2.71,2.71,0,0,1-.63.28,2.8,2.8,0,0,1-.86.13,2.11,2.11,0,0,1-1.1-.26,1.54,1.54,0,0,1-.59-.72,2.54,2.54,0,0,1-.19-1V53Z"/><path class="cls-1" d="M5,0a5,5,0,1,0,5,5A5,5,0,0,0,5,0ZM7.35,4.11,4.54,6.78a.37.37,0,0,1-.53,0L2.61,5.45a.39.39,0,0,1,0-.55.4.4,0,0,1,.55,0L4.27,6,6.82,3.55a.39.39,0,0,1,.54,0,.4.4,0,0,1,0,.55Z"/><path class="cls-1" d="M5,24.82a5,5,0,1,0,5,5A5,5,0,0,0,5,24.82Zm2.37,4.11L4.54,31.61a.39.39,0,0,1-.53,0l-1.4-1.34a.39.39,0,0,1,0-.55.4.4,0,0,1,.55,0L4.27,30.8l2.55-2.43a.39.39,0,0,1,.54,0,.4.4,0,0,1,0,.55Z"/><path class="cls-1" d="M5,49.6a5,5,0,1,0,5,5A5,5,0,0,0,5,49.6Zm2.37,4.11L4.54,56.39a.39.39,0,0,1-.53,0l-1.4-1.34a.38.38,0,0,1,0-.54.39.39,0,0,1,.55,0l1.13,1.09,2.55-2.43a.38.38,0,0,1,.54,0,.39.39,0,0,1,0,.54Z"/></g></g></svg>