<svg xmlns="http://www.w3.org/2000/svg" viewBox="0 0 19.88 19.88"><defs><style>.cls-1{fill:#fffef5;}.cls-2{fill:#ed7e23;}.cls-3{fill:#ee7e22;}.cls-4{fill:#e65125;}</style></defs><g id="Layer_2" data-name="Layer 2"><g id="Layer_1-2" data-name="Layer 1"><path class="cls-1" d="M9.94,18.81a8.87,8.87,0,1,1,8.87-8.87A8.87,8.87,0,0,1,9.94,18.81Z"/><path class="cls-2" d="M9.94,2.15a7.79,7.79,0,0,1,7.79,7.79h0a7.79,7.79,0,0,1-15.58,0h0A7.79,7.79,0,0,1,9.94,2.15M9.94,0a9.94,9.94,0,1,0,9.94,9.94A10,10,0,0,0,9.94,0Z"/><path class="cls-3" d="M7.86,8.22c-.12-.44-.35-.72-.75-.7h6a.84.84,0,0,1,.74,1.32l-1.65,2.9L10.85,14a.88.88,0,0,1-1.62-.23Z"/><path class="cls-4" d="M8.6,11.21a2,2,0,0,0-.27-.37L6.49,9.05a.89.89,0,0,1,.43-1.51.76.76,0,0,1,.94.67Z"/></g></g></svg>