<svg xmlns="http://www.w3.org/2000/svg" viewBox="0 0 143.29 38.8"><defs><style>.cls-1{fill:#232323;}.cls-2{fill:none;}</style></defs><g id="Layer_2" data-name="Layer 2"><g id="Layer_1-2" data-name="Layer 1"><path class="cls-1" d="M6.56.37H9.12a2.31,2.31,0,0,1,2.54,2.44A2.31,2.31,0,0,1,9.13,5.25H7.29v3H6.56ZM9.11,4.6A1.67,1.67,0,0,0,11,2.81,1.67,1.67,0,0,0,9.1,1H7.29V4.6Z"/><path class="cls-1" d="M13.22,2.34h.67v.91h0a1.72,1.72,0,0,1,1.62-1l.37,0V3c-.07,0-.24,0-.42,0a1.51,1.51,0,0,0-1.6,1.51V8.27h-.69Z"/><path class="cls-1" d="M16.61,5.34c0-1.79,1.06-3.08,2.6-3.08,1.29,0,2.51.93,2.51,2.91v.34H17.3a2,2,0,0,0,2,2.26,1.65,1.65,0,0,0,1.61-1l.65.22A2.3,2.3,0,0,1,19.31,8.4C17.65,8.4,16.61,7.14,16.61,5.34ZM21,4.91a1.87,1.87,0,0,0-1.81-2,2,2,0,0,0-1.9,2Z"/><path class="cls-1" d="M22.93,5.34c0-1.79,1.06-3.08,2.61-3.08A2.18,2.18,0,0,1,27.81,4.1h-.7a1.53,1.53,0,0,0-1.56-1.21c-1.14,0-1.93,1-1.93,2.42s.77,2.46,1.93,2.46a1.53,1.53,0,0,0,1.57-1.23h.69A2.17,2.17,0,0,1,25.55,8.4C24,8.4,22.93,7.1,22.93,5.34Z"/><path class="cls-1" d="M29,5.34c0-1.82,1.07-3.08,2.61-3.08S34.2,3.52,34.2,5.34,33.13,8.4,31.59,8.4,29,7.14,29,5.34Zm4.53,0c0-1.33-.69-2.45-1.92-2.45S29.67,4,29.67,5.34s.69,2.43,1.92,2.43S33.51,6.66,33.51,5.34Z"/><path class="cls-1" d="M36.4,8.27h-.69V2.34h.67v.93h.06a1.81,1.81,0,0,1,1.75-1,1.92,1.92,0,0,1,2,2.16V8.27h-.69V4.47A1.43,1.43,0,0,0,38,2.9,1.55,1.55,0,0,0,36.4,4.57Z"/><path class="cls-1" d="M44.46,2.94H43.15V8.27h-.68V2.94h-.92v-.6h.92V1.48A1.46,1.46,0,0,1,44,0a1.82,1.82,0,0,1,.73.13l-.2.6a1.43,1.43,0,0,0-.47-.08.86.86,0,0,0-.93,1v.72h1.31Z"/><path class="cls-1" d="M45.68.83a.52.52,0,0,1,1,0,.52.52,0,0,1-1,0Zm.16,1.51h.69V8.27h-.69Z"/><path class="cls-1" d="M48.3,9.43l.57-.37a1.84,1.84,0,0,0,1.75.94c1.05,0,1.76-.51,1.76-1.61V7.05h-.06a1.88,1.88,0,0,1-1.83,1.16c-1.42,0-2.44-1.1-2.44-2.92s1-3,2.45-3a1.91,1.91,0,0,1,1.83,1.21h.07V2.34h.67V8.43c0,1.5-1,2.19-2.45,2.19A2.43,2.43,0,0,1,48.3,9.43Zm4.09-4.15c0-1.39-.65-2.39-1.82-2.39S48.74,4,48.74,5.28s.66,2.3,1.83,2.3S52.39,6.71,52.39,5.28Z"/><path class="cls-1" d="M58.66,2.34h.69V8.27h-.69v-1h0a1.86,1.86,0,0,1-1.77,1.06,1.92,1.92,0,0,1-2-2.17V2.34h.69v3.8A1.42,1.42,0,0,0,57,7.68,1.6,1.6,0,0,0,58.66,6Z"/><path class="cls-1" d="M61.17,2.34h.67v.91h0a1.71,1.71,0,0,1,1.62-1l.36,0V3c-.06,0-.23,0-.41,0a1.5,1.5,0,0,0-1.6,1.51V8.27h-.69Z"/><path class="cls-1" d="M64.56,5.34c0-1.79,1.06-3.08,2.59-3.08,1.29,0,2.51.93,2.51,2.91v.34H65.25a2,2,0,0,0,2,2.26,1.63,1.63,0,0,0,1.6-1l.66.22A2.3,2.3,0,0,1,67.26,8.4C65.6,8.4,64.56,7.14,64.56,5.34ZM69,4.91a1.86,1.86,0,0,0-1.81-2,2,2,0,0,0-1.9,2Z"/><path class="cls-1" d="M70.87,5.32c0-1.82,1-3.06,2.45-3.06a1.86,1.86,0,0,1,1.81,1.21h.07V.37h.69v7.9h-.68V7.17h-.08A1.9,1.9,0,0,1,73.31,8.4C71.86,8.4,70.87,7.17,70.87,5.32Zm4.34,0c0-1.42-.66-2.42-1.82-2.42S71.56,4,71.56,5.31s.65,2.46,1.83,2.46S75.21,6.75,75.21,5.31Z"/><path class="cls-1" d="M81.05.37H83.6a2.31,2.31,0,0,1,2.55,2.44,2.32,2.32,0,0,1-2.54,2.44H81.77v3h-.72ZM83.59,4.6a1.68,1.68,0,0,0,1.85-1.79A1.68,1.68,0,0,0,83.58,1H81.77V4.6Z"/><path class="cls-1" d="M88.58,8.27h-.73V.37h.73Z"/><path class="cls-1" d="M91.51.37l2.87,6.88h.07L97.32.37h.83v7.9h-.68V1.89h-.06L94.74,8.27h-.65L91.42,1.89h-.06V8.27h-.68V.37Z"/><path class="cls-1" d="M6.56,16H9.12a2.27,2.27,0,0,1,2.54,2.37,2.14,2.14,0,0,1-1.49,2.19L12,23.86h-.84L9.43,20.65H7.29v3.2H6.56ZM9.11,20c1.24,0,1.84-.65,1.84-1.68A1.62,1.62,0,0,0,9.1,16.6H7.29V20Z"/><path class="cls-1" d="M12.92,20.93c0-1.8,1.06-3.08,2.6-3.08,1.28,0,2.51.93,2.51,2.91v.34H13.61a2,2,0,0,0,2,2.25,1.66,1.66,0,0,0,1.61-1l.65.21A2.28,2.28,0,0,1,15.62,24C14,24,12.92,22.73,12.92,20.93Zm4.4-.44a1.86,1.86,0,0,0-1.8-2,2,2,0,0,0-1.91,2Z"/><path class="cls-1" d="M19.25,22.2c0-1.17.93-1.55,2.27-1.71,1-.13,1.56-.13,1.56-.58v-.14a1.24,1.24,0,0,0-1.4-1.31,1.65,1.65,0,0,0-1.61.95l-.65-.24a2.28,2.28,0,0,1,2.24-1.32,1.88,1.88,0,0,1,2.1,2v4h-.68v-.94h0A2,2,0,0,1,21.2,24,1.78,1.78,0,0,1,19.25,22.2Zm3.83-.62v-.85a4.43,4.43,0,0,1-1.56.36c-1,.12-1.59.42-1.59,1.14s.58,1.13,1.36,1.13A1.73,1.73,0,0,0,23.08,21.58Z"/><path class="cls-1" d="M25.29,20.91c0-1.83,1-3.06,2.45-3.06a1.86,1.86,0,0,1,1.81,1.21h.06V16h.69v7.91h-.67v-1.1h-.08A1.89,1.89,0,0,1,27.73,24C26.27,24,25.29,22.75,25.29,20.91Zm4.33,0c0-1.42-.65-2.43-1.81-2.43S26,19.53,26,20.9s.65,2.45,1.83,2.45S29.62,22.33,29.62,20.9Z"/><path class="cls-1" d="M32.08,26l.18-.61c.7.22,1.17.06,1.49-.83l.22-.6-2.18-6h.75l1.75,5h.06l1.76-5h.74l-2.5,6.87a1.68,1.68,0,0,1-1.61,1.28A1.81,1.81,0,0,1,32.08,26Z"/><path class="cls-1" d="M43.7,18.53H42.38v5.33h-.69V18.53h-.91v-.6h.91v-.87a1.47,1.47,0,0,1,1.57-1.48,1.78,1.78,0,0,1,.73.14l-.2.6a1.17,1.17,0,0,0-.47-.09.87.87,0,0,0-.94,1v.73H43.7Z"/><path class="cls-1" d="M44.52,20.92c0-1.82,1.08-3.07,2.61-3.07s2.61,1.25,2.61,3.07S48.67,24,47.13,24,44.52,22.73,44.52,20.92Zm4.53,0c0-1.33-.69-2.45-1.92-2.45s-1.92,1.12-1.92,2.45.69,2.43,1.92,2.43S49.05,22.25,49.05,20.92Z"/><path class="cls-1" d="M51.26,17.93h.66v.91h0a1.71,1.71,0,0,1,1.63-1H54v.7a2.53,2.53,0,0,0-.42,0A1.51,1.51,0,0,0,51.94,20v3.83h-.68Z"/><path class="cls-1" d="M58.19,17.93h.67v.91h.06a1.76,1.76,0,0,1,3.2.09h.05a1.77,1.77,0,0,1,1.75-1.08c1.1,0,1.79.71,1.79,2v4H65v-4a1.24,1.24,0,0,0-1.31-1.4A1.35,1.35,0,0,0,62.3,20v3.91h-.7v-4a1.22,1.22,0,0,0-1.28-1.34,1.47,1.47,0,0,0-1.44,1.58v3.8h-.69Z"/><path class="cls-1" d="M67.37,16.41a.52.52,0,0,1,1,0,.52.52,0,0,1-1,0Zm.16,1.52h.69v5.93h-.69Z"/><path class="cls-1" d="M70.74,23.86h-.69V16h.69Z"/><path class="cls-1" d="M73.24,23.86h-.69V16h.69Z"/><path class="cls-1" d="M74.9,16.41a.52.52,0,0,1,1,0,.52.52,0,0,1-1,0Zm.16,1.52h.69v5.93h-.69Z"/><path class="cls-1" d="M77.27,20.92c0-1.82,1.08-3.07,2.61-3.07s2.61,1.25,2.61,3.07S81.42,24,79.88,24,77.27,22.73,77.27,20.92Zm4.53,0c0-1.33-.69-2.45-1.92-2.45S78,19.59,78,20.92s.69,2.43,1.92,2.43S81.8,22.25,81.8,20.92Z"/><path class="cls-1" d="M84.69,23.86H84V17.93h.66v.93h.07a1.77,1.77,0,0,1,1.74-1,1.93,1.93,0,0,1,2,2.17v3.84H87.8v-3.8a1.43,1.43,0,0,0-1.49-1.58,1.56,1.56,0,0,0-1.62,1.67Z"/><path class="cls-1" d="M93.67,19.41a1.33,1.33,0,0,0-1.38-1c-.8,0-1.38.42-1.38,1s.35.81,1.08,1l.9.22c1,.24,1.49.77,1.49,1.56,0,1-.9,1.73-2.2,1.73A2,2,0,0,1,90,22.46l.66-.17a1.36,1.36,0,0,0,1.49,1.07c.91,0,1.5-.46,1.5-1.07s-.31-.81-1-1l-1-.23c-1-.25-1.52-.79-1.52-1.58,0-1,.87-1.66,2.07-1.66a1.92,1.92,0,0,1,2,1.38Z"/><path class="cls-1" d="M98.64,20.92c0-1.82,1.08-3.07,2.61-3.07s2.61,1.25,2.61,3.07S102.79,24,101.25,24,98.64,22.73,98.64,20.92Zm4.53,0c0-1.33-.69-2.45-1.92-2.45s-1.92,1.12-1.92,2.45.69,2.43,1.92,2.43S103.17,22.25,103.17,20.92Z"/><path class="cls-1" d="M107.82,18.53H106.5v5.33h-.69V18.53h-.91v-.6h.91v-.87a1.47,1.47,0,0,1,1.57-1.48,1.78,1.78,0,0,1,.73.14l-.2.6a1.21,1.21,0,0,0-.47-.09.87.87,0,0,0-.94,1v.73h1.32Z"/><path class="cls-1" d="M114.8,16.49c-1.1,0-1.86.62-1.86,1.47s.81,1.22,1.58,1.44l.83.24c1,.28,2.15.8,2.15,2.12s-1,2.23-2.75,2.23-2.63-.86-2.71-2.11h.74c.08.94.91,1.45,2,1.45s2-.63,2-1.58-.67-1.18-1.66-1.46L114.2,20c-1.24-.37-2-1-2-2a2.62,2.62,0,0,1,5.15-.06h-.7A1.7,1.7,0,0,0,114.8,16.49Z"/><path class="cls-1" d="M119.24,16H120v4.26H120L123.89,16h1l-3.38,3.66,3.37,4.25H124L121,20.11,120,21.29v2.57h-.72Z"/><path class="cls-1" d="M132.2,16v5.24a3,3,0,0,1-6,0V16h.72v5.19a2.27,2.27,0,0,0,4.54,0V16Z"/><path class="cls-1" d="M137.51,19.41a1.31,1.31,0,0,0-1.37-1c-.8,0-1.38.42-1.38,1s.35.81,1.08,1l.9.22c1,.24,1.49.77,1.49,1.56,0,1-.9,1.73-2.2,1.73a2,2,0,0,1-2.16-1.52l.66-.17A1.36,1.36,0,0,0,136,23.36c.91,0,1.5-.46,1.5-1.07s-.31-.81-1-1l-1-.23c-1-.25-1.51-.79-1.51-1.58,0-1,.87-1.66,2.07-1.66a1.92,1.92,0,0,1,2,1.38Z"/><path class="cls-1" d="M6.56,30.76H9.23a2,2,0,0,1,2.32,2.07,1.65,1.65,0,0,1-1.25,1.72v.06a1.84,1.84,0,0,1,1.56,2c0,1.2-.78,2.07-2.48,2.07H6.56ZM9.3,34.33a1.47,1.47,0,0,0,1.56-1.5c0-.84-.55-1.43-1.63-1.43H7.29v2.93ZM9.38,38c1.22,0,1.79-.6,1.79-1.42A1.64,1.64,0,0,0,9.41,35H7.29v3Z"/><path class="cls-1" d="M17.23,32.73h.69v5.93h-.69v-1h-.05a1.86,1.86,0,0,1-1.77,1.06,1.91,1.91,0,0,1-1.95-2.17V32.73h.69v3.8a1.42,1.42,0,0,0,1.46,1.54,1.6,1.6,0,0,0,1.62-1.67Z"/><path class="cls-1" d="M19.58,31.22a.52.52,0,0,1,1,0,.52.52,0,0,1-1,0Zm.16,1.51h.7v5.93h-.7Z"/><path class="cls-1" d="M23,38.66h-.69v-7.9H23Z"/><path class="cls-1" d="M27.1,33.33H25.84v3.78c0,.75.43,1,.9,1a1.79,1.79,0,0,0,.4,0l.15.62a1.7,1.7,0,0,1-.61.1,1.45,1.45,0,0,1-1.53-1.47v-4h-.88v-.6h.88V31.31h.69v1.42H27.1Z"/><path class="cls-1" d="M31.25,32.73H32l1.41,4.89h0l1.4-4.89h.73L37,37.61h0l1.41-4.88h.72l-1.79,5.93h-.71L35.22,33.8h-.07l-1.4,4.86H33Z"/><path class="cls-1" d="M40.32,31.22a.52.52,0,0,1,1,0,.52.52,0,0,1-1,0Zm.17,1.51h.69v5.93h-.69Z"/><path class="cls-1" d="M45.34,33.33H44.08v3.78c0,.75.43,1,.9,1a1.79,1.79,0,0,0,.4,0l.14.62a1.63,1.63,0,0,1-.6.1,1.45,1.45,0,0,1-1.53-1.47v-4h-.88v-.6h.88V31.31h.69v1.42h1.26Z"/><path class="cls-1" d="M47.71,38.66H47v-7.9h.69v2.9h.06a1.78,1.78,0,0,1,1.76-1,1.93,1.93,0,0,1,2,2.16v3.84h-.69v-3.8a1.44,1.44,0,0,0-1.51-1.58A1.57,1.57,0,0,0,47.71,35Z"/><path class="cls-1" d="M56.57,30.76h4.59v.64H57.29v3h3.62V35H57.29v3h3.94v.65H56.57Z"/><path class="cls-1" d="M62.55,30.76h5.73v.64H65.77v7.26h-.72V31.4h-2.5Z"/><path class="cls-1" d="M70.63,38.66h-.72v-7.9h.72Z"/><path class="cls-1" d="M73.56,30.76l2.87,6.88h.07l2.87-6.88h.83v7.9h-.68V32.28h-.06l-2.67,6.38h-.65l-2.67-6.38h-.06v6.38h-.68v-7.9Z"/><path class="cls-1" d="M84.93,37c0-1.18.94-1.55,2.28-1.72,1-.12,1.55-.13,1.55-.58v-.14a1.23,1.23,0,0,0-1.39-1.3,1.65,1.65,0,0,0-1.61.94L85.1,34a2.29,2.29,0,0,1,2.25-1.33,1.89,1.89,0,0,1,2.1,2v4h-.69v-.94h0a2,2,0,0,1-1.84,1.08A1.79,1.79,0,0,1,84.93,37Zm3.83-.62v-.86a4,4,0,0,1-1.55.36c-1,.13-1.59.43-1.59,1.15s.58,1.13,1.36,1.13A1.72,1.72,0,0,0,88.76,36.39Z"/><path class="cls-1" d="M93.62,33.33H92.36v3.78c0,.75.43,1,.9,1a1.79,1.79,0,0,0,.4,0l.14.62a1.63,1.63,0,0,1-.6.1,1.45,1.45,0,0,1-1.53-1.47v-4h-.88v-.6h.88V31.31h.69v1.42h1.26Z"/><path class="cls-1" d="M100.57,33.33H99.32v3.78c0,.75.43,1,.89,1a1.81,1.81,0,0,0,.41,0l.14.62a1.65,1.65,0,0,1-.61.1,1.44,1.44,0,0,1-1.52-1.47v-4h-.89v-.6h.89V31.31h.69v1.42h1.25Z"/><path class="cls-1" d="M103,38.66h-.69v-7.9H103v2.9H103a1.77,1.77,0,0,1,1.75-1,1.93,1.93,0,0,1,2,2.16v3.84h-.69v-3.8a1.44,1.44,0,0,0-1.51-1.58A1.57,1.57,0,0,0,103,35Z"/><path class="cls-1" d="M108.3,35.73c0-1.79,1.06-3.08,2.6-3.08,1.28,0,2.51.93,2.51,2.91v.34H109a2,2,0,0,0,2,2.26,1.66,1.66,0,0,0,1.61-1l.65.22A2.3,2.3,0,0,1,111,38.79C109.34,38.79,108.3,37.53,108.3,35.73Zm4.41-.43a1.87,1.87,0,0,0-1.81-2,2,2,0,0,0-1.9,2Z"/><path class="cls-1" d="M117.68,35.72c0-1.78,1-3.07,2.61-3.07a2.18,2.18,0,0,1,2.27,1.84h-.7a1.54,1.54,0,0,0-1.56-1.21c-1.14,0-1.93,1-1.93,2.42s.77,2.46,1.93,2.46a1.54,1.54,0,0,0,1.57-1.23h.69a2.17,2.17,0,0,1-2.26,1.86C118.7,38.79,117.68,37.49,117.68,35.72Z"/><path class="cls-1" d="M123.73,35.72c0-1.81,1.07-3.07,2.61-3.07S129,33.91,129,35.72s-1.07,3.07-2.61,3.07S123.73,37.53,123.73,35.72Zm4.53,0c0-1.32-.69-2.44-1.92-2.44s-1.92,1.12-1.92,2.44.69,2.44,1.92,2.44S128.26,37.05,128.26,35.72Z"/><path class="cls-1" d="M130.46,32.73h.67v.91h.05a1.71,1.71,0,0,1,1.62-1l.37,0v.69c-.07,0-.24,0-.42,0a1.51,1.51,0,0,0-1.6,1.51v3.83h-.69Z"/><path class="cls-1" d="M133.85,35.73c0-1.79,1.06-3.08,2.6-3.08,1.28,0,2.51.93,2.51,2.91v.34h-4.42a2,2,0,0,0,2,2.26,1.66,1.66,0,0,0,1.61-1l.65.22a2.3,2.3,0,0,1-2.26,1.39C134.89,38.79,133.85,37.53,133.85,35.73Zm4.4-.43a1.86,1.86,0,0,0-1.8-2,2,2,0,0,0-1.91,2Z"/><path class="cls-1" d="M0,34.44a1.47,1.47,0,1,1,1.47,1.47A1.47,1.47,0,0,1,0,34.44Z"/><path class="cls-1" d="M0,19.92a1.47,1.47,0,1,1,1.47,1.47A1.47,1.47,0,0,1,0,19.92Z"/><path class="cls-1" d="M0,4.49A1.47,1.47,0,1,1,1.47,6,1.47,1.47,0,0,1,0,4.49Z"/><rect class="cls-2" x="142.29" y="17.18" width="1" height="7"/></g></g></svg>