<svg xmlns="http://www.w3.org/2000/svg" xmlns:xlink="http://www.w3.org/1999/xlink" viewBox="0 0 336 280"><defs><style>.cls-1{fill:url(#linear-gradient);}.cls-2{fill:#fff;}.cls-3{fill:#1a2d5e;}.cls-4{fill:#192c5d;}.cls-5{fill:url(#linear-gradient-2);}</style><linearGradient id="linear-gradient" x1="168" y1="15.88" x2="168" y2="351.88" gradientUnits="userSpaceOnUse"><stop offset="0" stop-color="#2950bb"/><stop offset="1" stop-color="#132a71"/></linearGradient><linearGradient id="linear-gradient-2" x1="121.52" y1="14.35" x2="121.52" y2="55.6" xlink:href="#linear-gradient"/></defs><g id="Layer_2" data-name="Layer 2"><g id="Layer_1-2" data-name="Layer 1"><rect class="cls-1" width="336" height="280"/><path class="cls-2" d="M0,68.32H106.4c19,0,21.28,14.56,21.28,14.56S129.92,68.32,149,68.32H336V0H0Z"/><path class="cls-2" d="M263.79,264.55h.7l-2.81,6.66h-.81L258,264.55h.72l2.5,6Z"/><path class="cls-2" d="M268.44,264.4a3,3,0,0,1,2.38,1,3.66,3.66,0,0,1,.91,2.47,1.1,1.1,0,0,1,0,.16v.16h-6a2.7,2.7,0,0,0,.9,1.8,2.79,2.79,0,0,0,1.92.69,2.84,2.84,0,0,0,1.4-.33,2.34,2.34,0,0,0,.91-.88l.59.34a3,3,0,0,1-1.18,1.1,3.6,3.6,0,0,1-1.73.41,3.45,3.45,0,0,1-2.52-1,3.37,3.37,0,0,1-1-2.5,3.46,3.46,0,0,1,1-2.49A3.31,3.31,0,0,1,268.44,264.4Zm0,.64a2.7,2.7,0,0,0-1.9.71,2.77,2.77,0,0,0-.86,1.82H271a2.8,2.8,0,0,0-.85-1.86A2.51,2.51,0,0,0,268.44,265Z"/><path class="cls-2" d="M276.34,264.4a2.49,2.49,0,0,1,1.89.73,2.7,2.7,0,0,1,.7,1.94v4.14h-.68v-4.14a2,2,0,0,0-.52-1.48,1.85,1.85,0,0,0-1.44-.55,2.22,2.22,0,0,0-1.68.68,2.71,2.71,0,0,0-.65,2v3.52h-.67v-9.33H274v3.93A2.47,2.47,0,0,1,276.34,264.4Z"/><path class="cls-2" d="M281.51,262.78a.53.53,0,0,1-.74,0,.49.49,0,0,1-.16-.38.5.5,0,0,1,.16-.37.53.53,0,0,1,.74,0,.5.5,0,0,1,.16.37A.49.49,0,0,1,281.51,262.78Zm-.7,8.43v-6.66h.66v6.66Z"/><path class="cls-2" d="M289.41,264.55h.66v9.33h-.66v-4.21a3.16,3.16,0,0,1-2.87,1.69,3.48,3.48,0,0,1,0-7,3.16,3.16,0,0,1,2.87,1.69Zm-4.84,5.34a2.74,2.74,0,0,0,2,.83,2.7,2.7,0,0,0,2-.83,2.85,2.85,0,0,0,0-4,2.7,2.7,0,0,0-2-.83,2.74,2.74,0,0,0-2,.83,2.87,2.87,0,0,0,0,4Z"/><path class="cls-2" d="M295.18,271.36a3.42,3.42,0,0,1-2.49-1,3.5,3.5,0,0,1,0-4.94,3.55,3.55,0,0,1,5,0,3.5,3.5,0,0,1,0,4.94A3.39,3.39,0,0,1,295.18,271.36Zm-2-1.47a2.87,2.87,0,1,0-.82-2A2.74,2.74,0,0,0,293.17,269.89Z"/><path class="cls-2" d="M300.56,271.17a.56.56,0,0,1-.42.18.58.58,0,0,1-.43-.18.55.55,0,0,1-.17-.42.56.56,0,0,1,.17-.43.57.57,0,0,1,.43-.17.55.55,0,0,1,.42.17.57.57,0,0,1,.18.43A.56.56,0,0,1,300.56,271.17Z"/><path class="cls-2" d="M307.91,264.55h.68v6.66h-.68v-1.5a3.19,3.19,0,0,1-1.18,1.21,3.27,3.27,0,0,1-1.69.44,3.48,3.48,0,0,1,0-7,3.27,3.27,0,0,1,1.69.44,3.19,3.19,0,0,1,1.18,1.21Zm-4.82,5.34a2.82,2.82,0,0,0,4,0,2.87,2.87,0,0,0,0-4,2.82,2.82,0,0,0-4,0,2.87,2.87,0,0,0,0,4Z"/><path class="cls-2" d="M314.17,264.4a3.48,3.48,0,0,1,0,7,3.27,3.27,0,0,1-1.7-.45,3.14,3.14,0,0,1-1.16-1.24v4.21h-.67v-9.33h.67v1.54a3.14,3.14,0,0,1,1.16-1.24A3.27,3.27,0,0,1,314.17,264.4Zm-2,5.49a2.7,2.7,0,0,0,2,.83,2.84,2.84,0,1,0,0-5.68,2.7,2.7,0,0,0-2,.83,2.87,2.87,0,0,0,0,4Z"/><path class="cls-2" d="M322.77,264.4a3.48,3.48,0,0,1,0,7,3.25,3.25,0,0,1-1.7-.45,3.14,3.14,0,0,1-1.16-1.24v4.21h-.67v-9.33h.67v1.54a3.14,3.14,0,0,1,1.16-1.24A3.25,3.25,0,0,1,322.77,264.4Zm-2,5.49a2.85,2.85,0,0,0,4,0,2.87,2.87,0,0,0,0-4,2.84,2.84,0,0,0-4,4Z"/><path class="cls-3" d="M204.83,35.21a8.74,8.74,0,0,0-.15-1.91,4.16,4.16,0,0,0-1.57-2.8s0,.09,0,.13H203s0,0,0-.05a.18.18,0,0,1,.06-.09,2.12,2.12,0,0,0-1-.63,6.28,6.28,0,0,0-4.67,0,3.24,3.24,0,0,0-1.76,1.46l0,0h0l0,0c-.09,0-.21.1-.22-.09s0-.46,0-.69c0-2.1,0-4.19,0-6.29,0-.39-.11-.54-.51-.52a20.62,20.62,0,0,1-2.08,0c-.48,0-.64.12-.63.62,0,2.6,0,5.19,0,7.79,0,3.18,0,6.36,0,9.54,0,1-.12.85.85.87.55,0,1.1,0,1.65,0s.68,0,.7-.69c0-2.22-.11-4.45.07-6.66a3.11,3.11,0,0,1,4.18-2.83,2.32,2.32,0,0,1,1.68,1.69,6.83,6.83,0,0,1,.21,1.85c0,2,0,4,0,6,0,.51.17.64.64.61a17.55,17.55,0,0,1,1.92,0c.51,0,.68-.11.67-.64C204.81,39.72,204.83,37.47,204.83,35.21Zm-3.32-1.27h.16a.2.2,0,0,0,0,.08A.93.93,0,0,1,201.51,33.94Zm2.77-.9s0,0,0-.07h.11Zm.34,9.24v-.1a.09.09,0,0,1,0,0v0h.07S204.65,42.31,204.62,42.28Z"/><path class="cls-4" d="M195.76,31.39h0l0,0,0,0Z"/><path class="cls-4" d="M201.71,34a.93.93,0,0,1-.2-.08h.16A.2.2,0,0,0,201.71,34Z"/><path class="cls-4" d="M203.11,30.5s0,.09,0,.13H203s0,0,0-.05A.18.18,0,0,1,203.11,30.5Z"/><path class="cls-4" d="M204.38,33l-.1.06s0,0,0-.07Z"/><polygon class="cls-4" points="122.85 69.29 122.84 69.28 122.84 69.27 122.85 69.28 122.85 69.28 122.85 69.29"/><path class="cls-4" d="M122.89,69.28s0,0,0,0h0Z"/><path class="cls-4" d="M220.12,29.78h0S220.13,29.77,220.12,29.78Z"/><path class="cls-4" d="M223.4,30.94h0l0,0v0h0Z"/><path class="cls-3" d="M211.05,36.18c0,2,0,3.94,0,5.92,0,.39-.1.53-.51.52-.71,0-1.42,0-2.13,0-.47,0-.61-.14-.61-.6,0-3.43,0-6.86,0-10.29,0-.5,0-1,0-1.49s.14-.52.53-.51c.73,0,1.46,0,2.18,0,.41,0,.56.11.55.54,0,2,0,3.94,0,5.91Z"/><path class="cls-3" d="M209.39,28.72a1.92,1.92,0,0,1-2-1.9,2,2,0,0,1,4.08,0A2,2,0,0,1,209.39,28.72Z"/><path class="cls-4" d="M195.76,31.39h0l0,0,0,0Z"/><path class="cls-4" d="M203.11,30.5s0,.09,0,.13H203s0,0,0-.05A.18.18,0,0,1,203.11,30.5Z"/><path class="cls-3" d="M180.74,37.33c1.46,0,2.92,0,4.38,0h3.62c1.23,0,1.24,0,1.22-1.24a7.16,7.16,0,0,0-1.46-4.42A6.56,6.56,0,0,0,180.78,30a6.48,6.48,0,0,0-3.8,6.83,6.38,6.38,0,0,0,2,4.35,7.77,7.77,0,0,0,10-.12c.21-.2.27-.34.06-.57-.43-.45-.86-.9-1.27-1.36-.18-.2-.32-.22-.53,0a4.39,4.39,0,0,1-3.06,1.19,3.62,3.62,0,0,1-3.78-2.45C180.22,37.42,180.32,37.32,180.74,37.33Zm-.47-2.61a3.43,3.43,0,0,1,2.14-2.47,3.2,3.2,0,0,1,3.36.53,3.16,3.16,0,0,1,1,1.89c.06.33,0,.45-.37.44h-5.75C180.38,35.1,180.17,35.07,180.27,34.72Z"/><polygon class="cls-4" points="195.76 31.39 195.76 31.39 195.76 31.39 195.76 31.39"/><path class="cls-4" d="M203.1,30.63H203s0,0,0-.05Z"/><path class="cls-4" d="M201.67,33.94a.2.2,0,0,0,0,.08.93.93,0,0,1-.2-.08Z"/><path class="cls-4" d="M204.38,33l-.1.06s0,0,0-.07Z"/><path class="cls-4" d="M201.67,33.94a.2.2,0,0,0,0,.08.93.93,0,0,1-.2-.08Z"/><path class="cls-4" d="M204.38,33l-.1.06s0,0,0-.07Z"/><path class="cls-4" d="M122.85,69.26v0h0v0h0Z"/><path class="cls-4" d="M122.89,69.28s0,0,0,0h0v0h0v0Z"/><path class="cls-4" d="M122.89,69.28s0,0,0,0h0Z"/><path class="cls-4" d="M220.12,29.78h0S220.13,29.77,220.12,29.78Z"/><path class="cls-4" d="M223.39,30.94h0l0,0v0Z"/><polygon class="cls-4" points="223.39 30.93 223.4 30.94 223.39 30.94 223.39 30.93"/><path class="cls-4" d="M217,34.49h0Z"/><path class="cls-3" d="M227.13,30.15c0-.36-.14-.45-.48-.44-.73,0-1.45,0-2.18,0-.39,0-.49.15-.47.51s0,.8,0,1.31l-.6-.61h0l0,0v0h0a1.27,1.27,0,0,0-.44-.45c-2.4-1.9-6.49-1.14-8.28,1.56a7.49,7.49,0,0,0-.87,6.39c1.41,5.14,7.52,5.58,9.81,2.81.06-.07.13-.18.27-.11a1.32,1.32,0,0,1,.05.56c0,1.69,0,3.38,0,5.07,0,.4.14.52.53.5q1.06,0,2.13,0c.35,0,.51-.08.51-.47Q227.12,38.47,227.13,30.15Zm-7-.37h0S220.13,29.77,220.12,29.78Zm3.24,8.65A3.39,3.39,0,0,1,219.72,40a3.48,3.48,0,0,1-2.86-2.92,6.15,6.15,0,0,1,.13-2.63h0c.18-.3.33-.63.53-.9a3.55,3.55,0,0,1,5.91.46A4.3,4.3,0,0,1,223.36,38.43Z"/><polygon class="cls-4" points="216.99 34.49 216.99 34.49 216.99 34.49 216.99 34.49"/><path class="cls-3" d="M177.65,25.52q-1.53,3.68-3,7.34c-1.26,3.06-2.53,6.11-3.77,9.18a.76.76,0,0,1-.85.58c-.78,0-1.57,0-2.35,0a.65.65,0,0,1-.71-.48c-1-2.43-2-4.85-2.93-7.27l-3.72-9.13c-.36-.86-.37-.75.47-.75s1.6,0,2.4,0a.59.59,0,0,1,.65.46q2.44,6.24,4.9,12.46c.05.13.06.28.26.38.4-1,.79-2,1.19-3,1.33-3.3,2.67-6.59,4-9.89a.6.6,0,0,1,.68-.43c.81,0,1.63,0,2.45,0C177.75,25,177.85,25.07,177.65,25.52Z"/><path class="cls-3" d="M243.2,34.15a6.5,6.5,0,0,0-6.67-4.67c-.24,0-.49,0-.74,0a6.3,6.3,0,0,0-5.78,4,6.71,6.71,0,0,0,1,7.12c2.09,2.59,5.8,2.9,8.55,1.76A6.7,6.7,0,0,0,243.2,34.15Zm-5.32,5.75a5.49,5.49,0,0,1-2.76,0,4,4,0,0,1-2-5.6,2.67,2.67,0,0,0,.15-.34l.33-.4a3.72,3.72,0,0,1,5.7,0A4.19,4.19,0,0,1,237.88,39.9Z"/><path class="cls-5" d="M150.22,27.76a1.54,1.54,0,0,0-.7-.56,8.49,8.49,0,0,0-2.43-.6,7.44,7.44,0,0,0-2-.07,1,1,0,0,0-1,1.06c0,.25-.06.49-.08.74a1,1,0,0,1-.45.77l-.08.06c-.22.05-.33-.05-.42-.25-.43-1-.87-2-1.31-2.94-.19-.4-.29-.82-.5-1.2l-.06-.17c-.28-.86-.63-1.69-1-2.52a10,10,0,0,0-.66-1.55A13.64,13.64,0,0,0,138.08,18a6.45,6.45,0,0,0-1.15-1.39,7.17,7.17,0,0,0-5.37-2.28H111.7a9.61,9.61,0,0,0-1.61.1,6.85,6.85,0,0,0-2.87,1.22,3.89,3.89,0,0,0-.88.73c-.08.07-.16.12-.23.19a11.56,11.56,0,0,0-2,2.65,37.77,37.77,0,0,0-2.15,5c-.26.67-.52,1.32-.79,2L100,28.84c-.19.4-.44.42-.72.06a.78.78,0,0,1-.18-.43c0-.31-.08-.63-.11-.94a1.16,1.16,0,0,0-.21-.57,1.29,1.29,0,0,0-1.08-.46,8.78,8.78,0,0,0-1.7.1,9,9,0,0,0-2.45.58,1.59,1.59,0,0,0-.92,2.22,1.2,1.2,0,0,0,.61.84.45.45,0,0,0,.28.16,1.82,1.82,0,0,0,.56.22.57.57,0,0,0,.28.11,15.79,15.79,0,0,0,3.56.33,3.81,3.81,0,0,1,.75.07c.13,0,.18.09.11.24a1.74,1.74,0,0,0-.24.58l-.25.47a13.36,13.36,0,0,0-.64,1.32c0,.06-.14.09-.12.19a10.84,10.84,0,0,0-.5,1,3.32,3.32,0,0,0-.31.59,10.08,10.08,0,0,0-1.11,4.77c0,4.06,0,8.13,0,12.19a4.15,4.15,0,0,0,0,.86,1.4,1.4,0,0,0,.17.94.51.51,0,0,0,.17.34,1.5,1.5,0,0,0,1,.78.24.24,0,0,0,.18.07h.11a1.11,1.11,0,0,0,.54.08h5.54a4.1,4.1,0,0,0,.78-.06A2.28,2.28,0,0,0,106,54.15a.39.39,0,0,0,.11-.28,6.24,6.24,0,0,0,.27-1.61A1.35,1.35,0,0,1,107.67,51a10.57,10.57,0,0,1,1.12,0h25.94a6,6,0,0,1,.73,0,1.3,1.3,0,0,1,1.21,1.21c0,.31.05.61.1.92a2.85,2.85,0,0,0,.56,1.51,1.33,1.33,0,0,0,.52.53,2.74,2.74,0,0,0,1.52.46c2,0,4,0,6,0a2,2,0,0,0,1.5-.67,1,1,0,0,0,.33-.5,1.67,1.67,0,0,0,.23-.93q0-7,0-14a6.58,6.58,0,0,0-.55-2.62,1.81,1.81,0,0,0-.2-.52c-.38-.87-.81-1.71-1.25-2.55-.3-.58-.6-1.15-.89-1.73-.12-.23-.22-.47-.34-.7s0-.2.11-.23a3,3,0,0,1,.6-.09,15.13,15.13,0,0,0,2.23-.09,10,10,0,0,0,2.15-.42,1.62,1.62,0,0,0,1.12-1.11A1.68,1.68,0,0,0,150.22,27.76ZM96.88,31h0Zm-1.13,16.6Zm.06-5ZM142,26.77Z"/><path class="cls-2" d="M133.43,21.6l.5.51a1,1,0,0,1,0,1.5,6.1,6.1,0,0,0-.54.59c-.71.65-1.36,1.36-2,2a11.76,11.76,0,0,0-1,1.08c0,.15-.13.22-.22.31l-2.91,2.91a1.14,1.14,0,0,0-.26.32l-4.24,4.23a4.23,4.23,0,0,0-.34.4c-.91.83-1.75,1.74-2.61,2.61l-.24.24c-.21.16-.33.42-.59.51a1.6,1.6,0,0,1-2.32-.37q-3-3-6-6a.81.81,0,0,0-.1-.09,4.73,4.73,0,0,1-1-.89,1.06,1.06,0,0,1-.17-1.21.73.73,0,0,1,.19-.28c.56-.6,1.2-1.13,1.78-1.71a1,1,0,0,1,1.42,0c.66.59,1.32,1.18,2,1.79.11.11.24.19.34.29a12,12,0,0,0,1.12,1c.42.41.86.8,1.3,1.17a.72.72,0,0,0,1,.05c.76-.75,1.56-1.46,2.29-2.23L122,29.13c.78-.77,1.55-1.55,2.33-2.33l.31-.31,0,0a.54.54,0,0,0,.14-.16,3.08,3.08,0,0,1,.24-.27c.11-.11.22-.23.34-.33a.46.46,0,0,0,.18-.16l0-.05.06,0a1.54,1.54,0,0,0,.19-.17l.06,0c.64-.57,1.21-1.2,1.82-1.8l.07,0a4.77,4.77,0,0,0,.77-.72l2.09-2.08a1.07,1.07,0,0,1,1.6,0Z"/><path class="cls-2" d="M144.75,37.09a8,8,0,0,1,.54,2.85,5,5,0,0,1-.15,1.22,1.86,1.86,0,0,1-1.64,1.49,6.11,6.11,0,0,1-1.05.07h-8.3a2.29,2.29,0,0,1-.93-.17,1.57,1.57,0,0,1-.77-2.13c0-.07.07-.15.11-.22a.93.93,0,0,1,.51-.52,15.05,15.05,0,0,1,1.87-.72c1-.39,2-.74,3-1.1l4.47-1.64a1.38,1.38,0,0,0,.27-.14l.14,0a2.7,2.7,0,0,1,.94,0A1.55,1.55,0,0,1,144.75,37.09Z"/><path class="cls-2" d="M98.66,36.54a1.46,1.46,0,0,1,1.65-.36l2.43.87.31.1a4.45,4.45,0,0,1,1.07.34,15.93,15.93,0,0,1,1.66.66l1.32.5,2.2.79a1.91,1.91,0,0,1,1.29.73,1.62,1.62,0,0,1,.17.32,1.71,1.71,0,0,1-1.63,2.31c-2.78,0-5.56,0-8.35,0a7.16,7.16,0,0,1-1.22,0A1.93,1.93,0,0,1,98,41.61a.43.43,0,0,1-.06-.29,6.53,6.53,0,0,1-.08-2.49A5.67,5.67,0,0,1,98.66,36.54Z"/></g></g></svg>