<svg xmlns="http://www.w3.org/2000/svg" viewBox="0 0 143 22.08"><defs><style>.cls-1{fill:#fff;}.cls-2{fill:#1a3c7a;}</style></defs><g id="Layer_2" data-name="Layer 2"><g id="Layer_1-2" data-name="Layer 1"><rect class="cls-1" width="143" height="22.08" rx="11.04"/><path class="cls-2" d="M9.84,14.54,9.74,13a1.07,1.07,0,0,0,.25,0h.2a1.57,1.57,0,0,0,.73-.14.74.74,0,0,0,.36-.43,2.4,2.4,0,0,0,.1-.77V7H13v4.78a4,4,0,0,1-.27,1.55,1.91,1.91,0,0,1-.83,1,2.86,2.86,0,0,1-1.47.33l-.24,0Z"/><path class="cls-2" d="M17.3,14.62a4.05,4.05,0,0,1-1.31-.2,2.78,2.78,0,0,1-1-.59,2.51,2.51,0,0,1-.61-1,3.66,3.66,0,0,1-.21-1.28,4.17,4.17,0,0,1,.2-1.3,3,3,0,0,1,.58-1,2.51,2.51,0,0,1,.95-.68,3.15,3.15,0,0,1,1.26-.24,3.3,3.3,0,0,1,1.21.22,2.19,2.19,0,0,1,.89.67,2.59,2.59,0,0,1,.52,1.08,4.87,4.87,0,0,1,.12,1.47l-4.67.05v-.9l3.73,0-.58.45a1.84,1.84,0,0,0-.08-1,1.12,1.12,0,0,0-.46-.56,1.18,1.18,0,0,0-.66-.19,1.31,1.31,0,0,0-.76.23,1.44,1.44,0,0,0-.51.66,2.82,2.82,0,0,0-.18,1.05A2,2,0,0,0,16.18,13a1.61,1.61,0,0,0,1.66.37.92.92,0,0,0,.36-.22,1,1,0,0,0,.23-.31,2,2,0,0,0,.14-.34l1.42.31a3,3,0,0,1-.3.76,1.91,1.91,0,0,1-.53.57,2.32,2.32,0,0,1-.79.38A3.78,3.78,0,0,1,17.3,14.62Z"/><path class="cls-2" d="M23.34,14.6a1.87,1.87,0,0,1-1.47-.53,2.51,2.51,0,0,1-.47-1.69V9.78h-.86l0-1.28h.6a1,1,0,0,0,.52-.1A.48.48,0,0,0,21.89,8L22,7.17H23V8.5h1.51V9.83H23v2.49a.79.79,0,0,0,.19.59.83.83,0,0,0,.59.18,1.84,1.84,0,0,0,.41-.05.93.93,0,0,0,.35-.15v1.53a3.46,3.46,0,0,1-.65.14A3.37,3.37,0,0,1,23.34,14.6Z"/><path class="cls-2" d="M25.43,14.46V13.09L28.51,10V9.81h-3V8.5h5.09V9.85L27.48,13v.15h3.13v1.32Z"/><path class="cls-2" d="M34.09,14.6a1.87,1.87,0,0,1-1.47-.53,2.51,2.51,0,0,1-.47-1.69V9.78h-.86l0-1.28h.6a1,1,0,0,0,.52-.1A.46.46,0,0,0,32.64,8l.15-.85h.93V8.5h1.51V9.83H33.72v2.49a.79.79,0,0,0,.19.59.85.85,0,0,0,.59.18,1.84,1.84,0,0,0,.41-.05.93.93,0,0,0,.35-.15v1.53a3.46,3.46,0,0,1-.65.14A3.37,3.37,0,0,1,34.09,14.6Z"/><path class="cls-2" d="M39.08,14.46V7h1.66v7.49Z"/><path class="cls-2" d="M42.32,14.46v-6h1.34v1.78h.23A3.58,3.58,0,0,1,44.3,9.2,1.76,1.76,0,0,1,45,8.56a2,2,0,0,1,1-.22,1.82,1.82,0,0,1,1.57.73,3.83,3.83,0,0,1,.54,2.28v3.11H46.43V11.53a2.63,2.63,0,0,0-.28-1.39.89.89,0,0,0-.81-.44,1.09,1.09,0,0,0-.76.29,1.79,1.79,0,0,0-.46.74,3.32,3.32,0,0,0-.16,1v2.7Z"/><path class="cls-2" d="M51.87,14.62a5.22,5.22,0,0,1-1.09-.11,3.2,3.2,0,0,1-.84-.33,2.2,2.2,0,0,1-.57-.52,1.65,1.65,0,0,1-.28-.67l1.25-.52a.87.87,0,0,0,.25.47,1.49,1.49,0,0,0,.55.35,2.54,2.54,0,0,0,.83.13,1.64,1.64,0,0,0,.81-.16.46.46,0,0,0,.28-.43.39.39,0,0,0-.16-.34,1.23,1.23,0,0,0-.46-.22,6.91,6.91,0,0,0-.74-.17l-.86-.22a3.33,3.33,0,0,1-.8-.31,1.74,1.74,0,0,1-.6-.54,1.46,1.46,0,0,1-.24-.86,1.56,1.56,0,0,1,.3-.95,1.88,1.88,0,0,1,.86-.65,3.78,3.78,0,0,1,1.39-.23,3.88,3.88,0,0,1,1.29.2,2.21,2.21,0,0,1,.91.57,1.92,1.92,0,0,1,.49.88l-1.33.44a1.06,1.06,0,0,0-.22-.48,1.19,1.19,0,0,0-.47-.3,2,2,0,0,0-.67-.1A1.57,1.57,0,0,0,51,9.7a.48.48,0,0,0-.27.42.43.43,0,0,0,.18.36,1.5,1.5,0,0,0,.49.22l.75.17c.31.06.6.13.89.21a3.44,3.44,0,0,1,.78.32,1.42,1.42,0,0,1,.55.51,1.52,1.52,0,0,1,.2.81,1.59,1.59,0,0,1-.32,1,1.94,1.94,0,0,1-.92.65A4.12,4.12,0,0,1,51.87,14.62Z"/><path class="cls-2" d="M58.49,14.62a4.05,4.05,0,0,1-1.31-.2,2.78,2.78,0,0,1-1-.59,2.51,2.51,0,0,1-.61-1,3.66,3.66,0,0,1-.21-1.28,4.17,4.17,0,0,1,.2-1.3,3,3,0,0,1,.58-1,2.51,2.51,0,0,1,.95-.68,3.15,3.15,0,0,1,1.26-.24,3.3,3.3,0,0,1,1.21.22,2.19,2.19,0,0,1,.89.67A2.72,2.72,0,0,1,61,10.31a4.87,4.87,0,0,1,.12,1.47l-4.67.05v-.9l3.73,0-.58.45a1.84,1.84,0,0,0-.08-1,1.12,1.12,0,0,0-.46-.56,1.18,1.18,0,0,0-.66-.19,1.31,1.31,0,0,0-.76.23,1.44,1.44,0,0,0-.51.66A2.82,2.82,0,0,0,57,11.55,2,2,0,0,0,57.37,13a1.61,1.61,0,0,0,1.66.37.92.92,0,0,0,.36-.22,1,1,0,0,0,.23-.31,2,2,0,0,0,.14-.34l1.42.31a3,3,0,0,1-.3.76,1.91,1.91,0,0,1-.53.57,2.32,2.32,0,0,1-.79.38A3.78,3.78,0,0,1,58.49,14.62Z"/><path class="cls-2" d="M62.32,14.46v-6h1.35v2h.21a4,4,0,0,1,.32-1.23,1.45,1.45,0,0,1,.62-.71,2,2,0,0,1,1-.23H66a1.57,1.57,0,0,1,.28,0l-.07,1.74a1.34,1.34,0,0,0-.37-.12l-.36,0a1.41,1.41,0,0,0-.76.2,1.43,1.43,0,0,0-.52.59,2.85,2.85,0,0,0-.27.92v2.75Z"/><path class="cls-2" d="M68.55,14.62a2,2,0,0,1-.89-.2,1.49,1.49,0,0,1-.6-.57,1.88,1.88,0,0,1-.21-.93A1.69,1.69,0,0,1,67,12.1a1.4,1.4,0,0,1,.55-.53,3.76,3.76,0,0,1,.9-.34A10.55,10.55,0,0,1,69.7,11l.59-.11a.72.72,0,0,0,.35-.17.52.52,0,0,0,.11-.35.7.7,0,0,0-.23-.54,1,1,0,0,0-.71-.23,1.74,1.74,0,0,0-.61.11,1.32,1.32,0,0,0-.47.34,1.38,1.38,0,0,0-.29.58L67,10.18a2.36,2.36,0,0,1,.4-.81A2.55,2.55,0,0,1,68,8.8a2.79,2.79,0,0,1,.83-.34,4.05,4.05,0,0,1,1-.12,3.11,3.11,0,0,1,1.43.28,1.72,1.72,0,0,1,.82.86A3.61,3.61,0,0,1,72.36,11v1c0,.26,0,.53,0,.8s0,.55.05.83l.06.82H71.05c0-.19-.06-.41-.09-.65s0-.5-.06-.75h-.2a2.73,2.73,0,0,1-.46.79,2.33,2.33,0,0,1-.72.56A2.16,2.16,0,0,1,68.55,14.62Zm.69-1.18a1.36,1.36,0,0,0,.44-.08,1.94,1.94,0,0,0,.43-.22,1.87,1.87,0,0,0,.39-.36,2.35,2.35,0,0,0,.29-.49l0-.95.26.06a1.87,1.87,0,0,1-.47.23,5.07,5.07,0,0,1-.56.13l-.58.1a2.71,2.71,0,0,0-.5.15,1,1,0,0,0-.36.24.69.69,0,0,0-.13.43.7.7,0,0,0,.23.55A.84.84,0,0,0,69.24,13.44Z"/><path class="cls-2" d="M76,14.6a1.87,1.87,0,0,1-1.47-.53,2.46,2.46,0,0,1-.47-1.69V9.78H73.2l0-1.28h.6a1,1,0,0,0,.52-.1.47.47,0,0,0,.2-.38l.15-.85h.93V8.5h1.51V9.83H75.63v2.49a.79.79,0,0,0,.2.59.83.83,0,0,0,.59.18,1.84,1.84,0,0,0,.41-.05,1,1,0,0,0,.35-.15v1.53a3.64,3.64,0,0,1-.65.14A3.46,3.46,0,0,1,76,14.6Z"/><path class="cls-2" d="M80.91,16.37V8.5h1.35v1.66h.21a2.8,2.8,0,0,1,.36-1,1.61,1.61,0,0,1,.66-.61,2,2,0,0,1,.94-.21,2.37,2.37,0,0,1,1.37.39,2.52,2.52,0,0,1,.86,1.1A4.16,4.16,0,0,1,87,11.51a4.34,4.34,0,0,1-.28,1.59,2.44,2.44,0,0,1-.81,1.11,2.18,2.18,0,0,1-1.34.41,1.89,1.89,0,0,1-1-.22,1.78,1.78,0,0,1-.65-.6,4.1,4.1,0,0,1-.43-.94H82.3l.12.62c0,.22.07.42.09.62a4,4,0,0,1,0,.59v1.68ZM84,13.31a1.08,1.08,0,0,0,.69-.22,1.44,1.44,0,0,0,.44-.64,2.67,2.67,0,0,0,.15-.93,2.56,2.56,0,0,0-.16-1,1.42,1.42,0,0,0-.45-.63,1.14,1.14,0,0,0-.71-.23,1.21,1.21,0,0,0-.62.16,1.6,1.6,0,0,0-.44.42,1.75,1.75,0,0,0-.25.56,2,2,0,0,0-.08.58v.21a2.3,2.3,0,0,0,0,.45,1.66,1.66,0,0,0,.19.46,1.88,1.88,0,0,0,.29.39,1.28,1.28,0,0,0,.4.29A1.18,1.18,0,0,0,84,13.31Z"/><path class="cls-2" d="M88.16,14.46v-6h1.35v2h.21a4,4,0,0,1,.32-1.23,1.45,1.45,0,0,1,.62-.71,2,2,0,0,1,1-.23h.23a1.6,1.6,0,0,1,.27,0l-.07,1.74a1.34,1.34,0,0,0-.37-.12l-.36,0a1.41,1.41,0,0,0-.76.2,1.43,1.43,0,0,0-.52.59,2.85,2.85,0,0,0-.27.92v2.75Z"/><path class="cls-2" d="M95.12,14.62a1.86,1.86,0,0,1-1.58-.71A3.62,3.62,0,0,1,93,11.75V8.5h1.63v3a2.56,2.56,0,0,0,.26,1.3.87.87,0,0,0,.8.43.94.94,0,0,0,.55-.16,1.34,1.34,0,0,0,.41-.44,2.13,2.13,0,0,0,.26-.67,4.4,4.4,0,0,0,.09-.83V8.5h1.64v6H97.34V12.6h-.2a4.71,4.71,0,0,1-.43,1.15,1.65,1.65,0,0,1-.65.66A1.94,1.94,0,0,1,95.12,14.62Zm-.48-7.1a1.05,1.05,0,0,1-.59-.15.63.63,0,0,1-.22-.55.65.65,0,0,1,.22-.54.94.94,0,0,1,.59-.16,1,1,0,0,1,.58.16.63.63,0,0,1,.23.54.63.63,0,0,1-.23.55A1,1,0,0,1,94.64,7.52Zm2.34,0a1.05,1.05,0,0,1-.59-.15.66.66,0,0,1-.22-.55.65.65,0,0,1,.22-.54A1,1,0,0,1,97,6.12a1,1,0,0,1,.58.16.65.65,0,0,1,.21.54.61.61,0,0,1-.22.55A1,1,0,0,1,97,7.52Z"/><path class="cls-2" d="M100.61,14.46V10.65h-.94V9.44l1.59.07V9.3a1.78,1.78,0,0,1-.65-.29,1.09,1.09,0,0,1-.37-.49,1.53,1.53,0,0,1-.12-.6,1.46,1.46,0,0,1,.25-.84,1.61,1.61,0,0,1,.71-.56,2.64,2.64,0,0,1,1.06-.2,3.12,3.12,0,0,1,1,.13,2.62,2.62,0,0,1,.69.32l-.1,1.48a3,3,0,0,0-.62-.32,1.9,1.9,0,0,0-.64-.12.88.88,0,0,0-.57.18.75.75,0,0,0-.22.59.75.75,0,0,0,.12.45.7.7,0,0,0,.3.24,1.07,1.07,0,0,0,.34.09h1.37v1.29H102.2v3.81Z"/><path class="cls-2" d="M107.45,14.62a4.11,4.11,0,0,1-1.32-.2,2.87,2.87,0,0,1-1-.59,2.61,2.61,0,0,1-.6-1,3.66,3.66,0,0,1-.21-1.28,4.17,4.17,0,0,1,.19-1.3,3,3,0,0,1,.59-1,2.56,2.56,0,0,1,.94-.68,3.15,3.15,0,0,1,1.26-.24,3.32,3.32,0,0,1,1.22.22,2.26,2.26,0,0,1,.89.67,2.72,2.72,0,0,1,.52,1.08,4.87,4.87,0,0,1,.12,1.47l-4.68.05v-.9l3.74,0-.58.45a2.06,2.06,0,0,0-.08-1A1.18,1.18,0,0,0,108,9.8a1.19,1.19,0,0,0-.67-.19,1.34,1.34,0,0,0-.76.23,1.44,1.44,0,0,0-.51.66,2.82,2.82,0,0,0-.18,1.05,2,2,0,0,0,.43,1.42,1.43,1.43,0,0,0,1.12.46,1.36,1.36,0,0,0,.53-.09,1,1,0,0,0,.37-.22,1.19,1.19,0,0,0,.23-.31,3.45,3.45,0,0,0,.14-.34l1.42.31a2.7,2.7,0,0,1-.31.76,1.88,1.88,0,0,1-.52.57,2.32,2.32,0,0,1-.79.38A3.87,3.87,0,0,1,107.45,14.62Z"/><path class="cls-2" d="M111.27,14.46v-6h1.34v1.78h.23a3.58,3.58,0,0,1,.42-1.08,1.81,1.81,0,0,1,.68-.64,2.07,2.07,0,0,1,1-.22,1.82,1.82,0,0,1,1.57.73,3.83,3.83,0,0,1,.54,2.28v3.11h-1.65V11.53a2.63,2.63,0,0,0-.28-1.39.89.89,0,0,0-.81-.44,1.09,1.09,0,0,0-.76.29,1.79,1.79,0,0,0-.46.74,3.32,3.32,0,0,0-.16,1v2.7Z"/></g></g></svg>