<svg xmlns="http://www.w3.org/2000/svg" viewBox="0 0 51.68 42.67"><defs><style>.cls-1{fill:#011427;}.cls-2{fill:#1a3141;}.cls-3{fill:#f25720;}</style></defs><g id="Layer_2" data-name="Layer 2"><g id="Layer_1-2" data-name="Layer 1"><path class="cls-1" d="M15,15.45s-1.4,5.34-.15,5.48,4.11-1.83,9-.57,10.69,3.39,15.46-2.42S36,8.83,36,8.83L15,15.45Z"/><polygon class="cls-2" points="25.49 16.89 0.32 14.57 0 13.38 26.87 0 51.39 1.42 51.68 2.48 25.49 16.89 25.49 16.89"/><path class="cls-3" d="M5.39,32.9a1,1,0,1,1,.45,1.31,1,1,0,0,1-.45-1.31Z"/><path class="cls-3" d="M6.17,33.31c-1-.25-2.79,8.77-2.79,8.77a2.16,2.16,0,0,0,.92.4c.33,0,.71-1.21.71-1.21l-.19,1.29a3.53,3.53,0,0,0,1.51,0s1.39-8.88-.16-9.28Z"/><polygon class="cls-3" points="6.03 33.23 9.4 13.42 9.54 13.35 24.19 6.04 24.54 6.75 10.04 13.98 6.65 33.31 6.03 33.23"/></g></g></svg>