<?xml version="1.0" encoding="UTF-8"?>
<svg id="Layer_2" data-name="Layer 2" xmlns="http://www.w3.org/2000/svg" viewBox="0 0 97.85 16.34">
  <defs>
    <style>
      .cls-1 {
        fill: #fff;
      }

      .cls-2 {
        fill: #00da2f;
      }
    </style>
  </defs>
  <g id="Layer_1-2" data-name="Layer 1">
    <g>
      <rect class="cls-1" x="2.1" y="2.24" width="95.75" height="14.1" rx="4.32" ry="4.32"/>
      <g>
        <rect class="cls-2" x=".34" y=".34" width="96.43" height="14.78" rx="4.02" ry="4.02"/>
        <path d="M92.75.68c2.03,0,3.68,1.65,3.68,3.68v6.74c0,2.03-1.65,3.68-3.68,3.68H4.36c-2.03,0-3.68-1.65-3.68-3.68v-6.74C.68,2.33,2.33.68,4.36.68h88.39M92.75,0H4.36C1.96,0,0,1.96,0,4.36v6.74c0,2.4,1.96,4.36,4.36,4.36h88.39c2.4,0,4.36-1.96,4.36-4.36v-6.74c0-2.4-1.96-4.36-4.36-4.36h0Z"/>
      </g>
      <g>
        <path d="M10.17,10.23c-2.43,0-3.16-1.49-3.16-2.71v-.17c0-1.17.7-2.67,3.31-2.67h.25c2.59,0,3.25,1.12,3.25,1.95v.02h-1.8c-.05-.14-.26-.64-1.56-.64s-1.65.7-1.65,1.37v.09c0,.65.4,1.43,1.67,1.43s1.49-.57,1.52-.74h-1.51v-.99h3.38v2.98h-1.29c-.02-.19-.13-.54-.22-.72-.15.17-.75.8-2.08.8h-.12Z"/>
        <path d="M17.68,10.25h-.3c-2.13,0-2.61-1.14-2.61-2.07v-.1c0-.92.46-2.07,2.51-2.07h.32c2.2,0,2.59,1.14,2.59,2.28v.15h-3.73c.08.45.36.76,1.12.76s.85-.28.88-.35h1.72c-.01.41-.31,1.39-2.5,1.39ZM16.49,7.65h1.96c0-.3-.16-.66-.97-.66-.66,0-.91.26-.99.66Z"/>
        <path d="M24.09,10.15h-1.43c-.65,0-1.08-.36-1.08-1.08v-1.84h-.85v-1.12h.85v-1.22h1.63v1.22h.88v1.12h-.88v1.3c0,.3.08.43.41.43h.47v1.2Z"/>
        <path d="M32.41,4.75v1.24h-3.45v.78h3.34v1.28h-3.34v.83h3.49v1.25h-5.21v-5.39h5.17Z"/>
        <path d="M35.06,10.23h-.12c-1.12,0-1.63-.58-1.63-1.29v-.03c0-.72.44-1.12,1.85-1.23l1.12-.09c.22-.01.3-.09.3-.24h0c0-.19-.08-.36-.75-.36h-.02c-.68,0-.73.28-.74.41h-1.65c0-.49.2-1.38,2.28-1.38h.23c2.1,0,2.27.8,2.27,1.38v1.29c0,.2.04.28.26.28h.19v1.18h-1.33c-.41,0-.61-.29-.68-.53-.16.18-.59.61-1.56.61ZM36.58,8.51v-.25c-.13.04-.46.1-.81.16-.64.11-.82.2-.82.46h0c0,.24.18.41.62.41.74,0,1.02-.46,1.02-.77Z"/>
        <path d="M39.4,10.15v-4.04h1.63v.66c.12-.2.51-.75,1.37-.75h.05c1.04,0,1.41.7,1.41,1.59,0,.22,0,.36-.01.52h-1.66v-.12c0-.49-.13-.76-.54-.76s-.6.3-.6.78v2.11h-1.65Z"/>
        <path d="M46.37,10.15h-1.65v-5.49h1.65v5.49Z"/>
        <path d="M47.77,10.43h.91c.12,0,.19-.05.19-.14,0-.08-.03-.16-.12-.36l-1.75-3.82h1.81l1.04,2.76.98-2.76h1.67l-1.81,4.41c-.28.67-.67,1.01-1.4,1.01h-1.51v-1.09Z"/>
        <path d="M59.73,9.21h-2.85l-.41.93h-1.73l2.45-5.39h2.28l2.53,5.39h-1.85l-.42-.93ZM58.29,6.01l-.88,2.01h1.79l-.91-2.01Z"/>
        <path d="M65.17,10.26h-.36c-2.16,0-2.52-1.3-2.52-2.09v-.1c0-.79.37-2.06,2.51-2.06h.31c2.2,0,2.5,1.12,2.5,1.68h0s-1.72,0-1.72,0c-.01-.12-.15-.57-.9-.57h-.06c-.74,0-.94.5-.94.97h0c0,.48.22,1.02.95,1.02h.06c.76,0,.88-.49.88-.6h1.72c0,.61-.31,1.74-2.45,1.74Z"/>
        <path d="M71.2,10.26h-.36c-2.16,0-2.52-1.3-2.52-2.09v-.1c0-.79.37-2.06,2.51-2.06h.31c2.2,0,2.5,1.12,2.5,1.68h0s-1.72,0-1.72,0c-.01-.12-.15-.57-.9-.57h-.06c-.74,0-.94.5-.94.97h0c0,.48.22,1.02.95,1.02h.06c.76,0,.88-.49.88-.6h1.72c0,.61-.31,1.74-2.45,1.74Z"/>
        <path d="M77.25,10.25h-.3c-2.13,0-2.61-1.14-2.61-2.07v-.1c0-.92.46-2.07,2.51-2.07h.32c2.2,0,2.59,1.14,2.59,2.28v.15h-3.73c.08.45.36.76,1.12.76s.85-.28.88-.35h1.72c-.01.41-.31,1.39-2.5,1.39ZM76.06,7.65h1.96c0-.3-.16-.66-.97-.66-.66,0-.91.26-.99.66Z"/>
        <path d="M82.76,10.24c-2.15,0-2.32-.93-2.32-1.33v-.03h1.76c.01.12.09.38.72.38h.01c.56,0,.7-.16.7-.33,0-.2-.1-.3-.72-.34l-.6-.04c-1.43-.09-1.83-.6-1.83-1.25v-.04c0-.68.43-1.23,2.25-1.23h.18c2.05,0,2.35.68,2.35,1.26h0s-1.71.01-1.71.01c-.03-.13-.11-.35-.7-.35h-.03c-.54,0-.68.12-.68.3s.14.31.68.33l.59.02c1.54.06,1.93.52,1.93,1.21v.07c0,.67-.3,1.36-2.39,1.36h-.2Z"/>
        <path d="M88.31,10.24c-2.15,0-2.32-.93-2.32-1.33v-.03h1.76c.01.12.09.38.72.38h.01c.56,0,.7-.16.7-.33,0-.2-.1-.3-.72-.34l-.6-.04c-1.43-.09-1.83-.6-1.83-1.25v-.04c0-.68.43-1.23,2.25-1.23h.18c2.05,0,2.35.68,2.35,1.26h0s-1.71.01-1.71.01c-.03-.13-.11-.35-.7-.35h-.03c-.54,0-.68.12-.68.3s.14.31.68.33l.59.02c1.54.06,1.93.52,1.93,1.21v.07c0,.67-.3,1.36-2.39,1.36h-.2Z"/>
      </g>
    </g>
  </g>
</svg>