<?xml version="1.0" encoding="UTF-8"?>
<svg id="Layer_2" data-name="Layer 2" xmlns="http://www.w3.org/2000/svg" viewBox="0 0 102.16 25.61">
  <defs>
    <style>
      .cls-1 {
        fill: #fff;
      }
    </style>
  </defs>
  <g id="Layer_1-2" data-name="Layer 1">
    <g>
      <path class="cls-1" d="M.46,10.76c0-1.18-.05-3.08-.16-5.68C.19,2.48.09,1.11,0,.96,0,.68.11.46.34.31c.08-.05.2-.09.34-.13.15-.04.28-.05.41-.05.06,0,.19-.02.38-.02.23,0,.4.04.5.12.1.08.15.21.15.41,0,.11-.04.2-.12.25-.08.06-.18.08-.31.08l-.15-.02h-.21c-.29,0-.43.06-.43.17,0,.53.04,1.22.11,2.08.06.71.1,1.39.12,2.04.07-.02.21-.05.41-.1.2-.05.35-.07.45-.07.11,0,.21.05.29.15.08.1.12.21.12.33,0,.14-.07.24-.2.31-.02.01-.07.03-.15.07-.08.04-.18.06-.3.07-.09.01-.25.03-.46.05h-.17c0,.61.05,1.44.15,2.5.09,1.1.14,1.93.14,2.5l-.02.06v.03s0,.11,0,.2c0,.13-.05.24-.14.31s-.21.12-.37.12c-.3,0-.44-.33-.44-.98Z"/>
      <path class="cls-1" d="M6.23,11.25c-.21-.53-.37-1.08-.47-1.64l-.11-.52c-.3-1.46-.49-2.29-.57-2.5h-.18c0,.3,0,.57-.02.81v.84c0,1.37.1,2.43.29,3.2l-.17.41h-.43l-.2-.23v-1.03c.01-.92-.03-2.31-.12-4.18-.08-1.99-.12-3.38-.12-4.18,0-.49.17-.74.5-.74.55,0,1,.14,1.35.43.35.29.53.68.53,1.19v1.07c0,.15-.03.33-.08.53-.05.2-.11.36-.17.48l-.29.55-.24.46.08.37.21,1.09c.14.79.28,1.42.41,1.91.13.49.3.93.49,1.33l.09.18c.1.2.15.37.15.49,0,.1-.03.19-.09.27s-.14.11-.25.11c-.22,0-.43-.24-.61-.73ZM5.53,4.92c.16-.51.24-.97.24-1.4,0-.33-.04-.63-.12-.92-.05-.16-.14-.29-.25-.38s-.26-.13-.44-.13l-.03.08-.03.14.03,1.81c.02.53.03,1.11.03,1.73.22-.11.42-.42.57-.93Z"/>
      <path class="cls-1" d="M9.74,11.76c-.22-.17-.41-.4-.55-.68-.3-.62-.48-1.3-.55-2.04-.09-.69-.14-1.36-.14-2,0-.12,0-.22.02-.31v-.28c0-.05,0-.08-.02-.08v-.28l.02-1.07c0-.33.05-.85.12-1.56.05-.49.17-.96.35-1.42.07-.2.16-.36.28-.47.11-.11.24-.16.38-.16.41,0,.78.07,1.1.22.33.15.6.36.83.62.2.26.38.57.52.94.14.37.24.77.31,1.19.06.43.09.88.09,1.36v.12c0,.32,0,.6.02.86v.87c.01,2.94-.67,4.41-2.04,4.41-.27,0-.51-.08-.73-.25ZM10.92,11.15c.15-.15.27-.35.35-.6.19-.52.31-1.08.35-1.68.05-.52.08-.97.08-1.35,0-.46-.04-1.06-.11-1.81-.06-.79-.09-1.37-.09-1.76v-.28c-.02-.39-.15-.72-.39-1.01-.24-.29-.53-.43-.88-.43s-.58.2-.69.6c-.1.32-.15.72-.15,1.22,0,.19,0,.36.02.49v.41l-.03.7c-.02.21-.03.45-.03.7,0,.55.02,1.1.05,1.64.04.77.14,1.51.31,2.24.16.75.4,1.13.72,1.13.18,0,.35-.07.51-.22Z"/>
      <path class="cls-1" d="M19.88,11.57v-1.96c0-.51-.04-1.18-.11-2-.08-.93-.12-1.57-.12-1.91l.03-.95c.02-.28.03-.59.03-.93-.04.13-.21.84-.51,2.11-.3,1.24-.6,2.38-.92,3.43-.31,1.01-.56,1.52-.75,1.52s-.35-.06-.47-.18-.18-.28-.18-.48c0-.45-.18-1.4-.54-2.86-.36-1.46-.69-2.65-.99-3.58l-.09,1.73c-.08,1.46-.14,2.67-.17,3.64-.02.94-.03,1.58-.03,1.93,0,.08,0,.16.02.23v.21c0,.17-.04.3-.11.39s-.2.13-.4.13c-.1,0-.2-.04-.29-.11s-.14-.16-.14-.25c0-1.04.08-2.6.23-4.68s.23-3.64.23-4.68c-.06-.09-.09-.19-.09-.29,0-.12.06-.22.18-.28s.26-.1.42-.1c.13,0,.38.48.74,1.44.36.96.71,2.05,1.07,3.26.36,1.21.59,2.09.69,2.63.08-.28.15-.53.2-.77l.09-.37c.33-1.43.65-2.72.98-3.87.19-.7.38-1.25.57-1.65.18-.43.35-.64.5-.64.14,0,.27.04.39.12.12.08.18.18.18.3,0,.74.03,1.84.09,3.31.07,1.37.11,2.43.11,3.18l-.02.81-.03.81c0,.12.02.31.05.55l.05.54c0,.09.02.16.02.21,0,.05,0,.08,0,.09.05.13.08.23.08.29,0,.17-.05.33-.15.46s-.22.2-.37.2c-.32,0-.47-.32-.47-.95Z"/>
      <path class="cls-1" d="M26.97,11.82c-.27-1.1-.63-3.1-1.09-5.99-.51-3.08-.82-4.91-.93-5.5.04-.19.18-.29.41-.29.17,0,.39.65.64,1.96.27,1.32.53,2.81.78,4.47l.41,2.71c.16-1.22.29-2.14.38-2.75.19-1.41.34-2.57.43-3.5s.14-1.8.14-2.62c.15-.2.34-.31.55-.31l.32.17-.23,2.07c-.05.63-.18,1.78-.38,3.44l-.14,1.01c-.11.9-.22,1.75-.34,2.54-.15,1.15-.3,1.95-.43,2.4-.06.23-.12.35-.18.35-.14,0-.26-.06-.35-.17Z"/>
      <path class="cls-1" d="M30.37,11.25c0-.25.16-.37.47-.37h.17l.15.02c.08,0,.14-.03.17-.08.03-.05.05-.14.05-.28,0-.17-.01-.44-.03-.81-.03-.24-.07-.68-.11-1.32-.09-1.56-.14-2.74-.14-3.54,0-.29,0-.55.01-.78l.02-.78c0-.34-.02-.62-.05-.84-.16.04-.28.06-.35.06-.24,0-.37-.12-.37-.37,0-.12.08-.23.23-.32.15-.09.35-.16.58-.2.41-.08.77-.12,1.09-.12.12,0,.23.04.31.13s.13.19.13.3-.03.21-.1.29c-.07.08-.15.12-.25.12-.06,0-.11,0-.15-.02h-.12c-.1,0-.18.02-.22.07s-.07.13-.07.25c0,.99.06,2.48.18,4.47.02.37.06.91.12,1.62.05.47.08.95.08,1.44v.58c.06,0,.16-.02.31-.02.43,0,.64.18.64.54v.09l-.38.26s-.04,0-.1,0c-.06,0-.16,0-.31,0-.33.02-.54.03-.63.03-.89,0-1.33-.15-1.33-.46Z"/>
      <path class="cls-1" d="M35.73,11.84c-.25-.07-.44-.14-.57-.22-.68-.44-1.03-1.64-1.03-3.6v-1.25c0-.41,0-.77.01-1.09.01-.32.03-.67.06-1.05.03-.4.08-.72.14-.97s.16-.53.31-.85c.12-.3.27-.53.45-.69.18-.16.41-.3.7-.41.25-.11.57-.17.95-.17.15,0,.27.04.35.11.08.07.12.16.12.28,0,.1-.03.19-.1.28s-.15.13-.24.14h-.72c-.2,0-.38.13-.54.38s-.26.59-.32,1c-.13.75-.2,1.37-.2,1.84v.08l-.03,1.47c-.02.44-.03.93-.03,1.48,0,.39.02.7.05.95.05.37.14.67.26.92.12.28.33.47.63.6.15.06.32.09.51.09.11,0,.22-.04.34-.12.13,0,.24.03.33.08.09.06.13.14.13.25,0,.4-.28.6-.84.6-.22,0-.46-.03-.71-.1Z"/>
      <path class="cls-1" d="M39.52,11.48l-.02-.6c0-.17-.01-.37-.01-.58v-.52c-.02-.11-.09-1.23-.21-3.35-.12-2.12-.19-3.49-.21-4.09-.59-.02-.97-.08-1.13-.18-.11-.08-.17-.17-.17-.28,0-.08.05-.16.16-.22s.22-.1.33-.1c.29,0,.63.02,1.04.06.39.05.73.08,1.04.08h.24c.32,0,.47.12.47.37,0,.12-.05.22-.15.3-.1.08-.22.12-.35.12-.09,0-.22-.02-.4-.05l-.31-.06-.02.08v.08c-.01.91.07,2.36.25,4.35.16,1.87.25,3.32.25,4.35,0,.12-.05.23-.16.32-.11.09-.23.14-.36.14l-.28-.2Z"/>
      <path class="cls-1" d="M42.02,11.25c0-.25.16-.37.47-.37h.17l.15.02c.08,0,.14-.03.17-.08.03-.05.05-.14.05-.28,0-.17-.01-.44-.03-.81-.03-.24-.07-.68-.11-1.32-.09-1.56-.14-2.74-.14-3.54,0-.29,0-.55.01-.78l.02-.78c0-.34-.02-.62-.05-.84-.16.04-.28.06-.35.06-.24,0-.37-.12-.37-.37,0-.12.08-.23.23-.32.15-.09.35-.16.58-.2.41-.08.77-.12,1.09-.12.12,0,.23.04.31.13s.13.19.13.3-.03.21-.1.29c-.07.08-.15.12-.25.12-.06,0-.11,0-.15-.02h-.12c-.1,0-.18.02-.22.07s-.07.13-.07.25c0,.99.06,2.48.18,4.47.02.37.06.91.12,1.62.05.47.08.95.08,1.44v.58c.06,0,.16-.02.31-.02.43,0,.64.18.64.54v.09l-.38.26s-.04,0-.1,0c-.06,0-.16,0-.31,0-.33.02-.54.03-.63.03-.89,0-1.33-.15-1.33-.46Z"/>
      <path class="cls-1" d="M51.74,11.57v-1.96c0-.51-.04-1.18-.11-2-.08-.93-.12-1.57-.12-1.91l.03-.95c.02-.28.03-.59.03-.93-.04.13-.21.84-.51,2.11-.3,1.24-.6,2.38-.92,3.43-.31,1.01-.56,1.52-.75,1.52s-.35-.06-.47-.18-.18-.28-.18-.48c0-.45-.18-1.4-.54-2.86-.36-1.46-.69-2.65-.99-3.58l-.09,1.73c-.08,1.46-.14,2.67-.17,3.64-.02.94-.03,1.58-.03,1.93,0,.08,0,.16.02.23v.21c0,.17-.04.3-.11.39s-.2.13-.4.13c-.1,0-.2-.04-.29-.11s-.14-.16-.14-.25c0-1.04.08-2.6.23-4.68s.23-3.64.23-4.68c-.06-.09-.09-.19-.09-.29,0-.12.06-.22.18-.28s.26-.1.42-.1c.13,0,.38.48.74,1.44.36.96.71,2.05,1.07,3.26.36,1.21.59,2.09.69,2.63.08-.28.15-.53.2-.77l.09-.37c.33-1.43.65-2.72.98-3.87.19-.7.38-1.25.57-1.65.18-.43.35-.64.5-.64.14,0,.27.04.39.12.12.08.18.18.18.3,0,.74.03,1.84.09,3.31.07,1.37.11,2.43.11,3.18l-.02.81-.03.81c0,.12.02.31.05.55l.05.54c0,.09.02.16.02.21,0,.05,0,.08,0,.09.05.13.08.23.08.29,0,.17-.05.33-.15.46s-.22.2-.37.2c-.32,0-.47-.32-.47-.95Z"/>
      <path class="cls-1" d="M58.29,11.48l-.02-.6c0-.17-.01-.37-.01-.58v-.52c-.02-.11-.09-1.23-.21-3.35-.12-2.12-.19-3.49-.21-4.09-.59-.02-.97-.08-1.13-.18-.11-.08-.17-.17-.17-.28,0-.08.05-.16.16-.22s.22-.1.33-.1c.29,0,.63.02,1.04.06.39.05.73.08,1.04.08h.24c.32,0,.47.12.47.37,0,.12-.05.22-.15.3-.1.08-.22.12-.35.12-.09,0-.22-.02-.4-.05l-.31-.06-.02.08v.08c-.01.91.07,2.36.25,4.35.16,1.87.25,3.32.25,4.35,0,.12-.05.23-.16.32-.11.09-.23.14-.36.14l-.28-.2Z"/>
      <path class="cls-1" d="M62.41,11.76c-.22-.17-.41-.4-.55-.68-.3-.62-.48-1.3-.55-2.04-.09-.69-.14-1.36-.14-2,0-.12,0-.22.02-.31v-.28c0-.05,0-.08-.02-.08v-.28l.02-1.07c0-.33.05-.85.12-1.56.05-.49.17-.96.35-1.42.07-.2.16-.36.28-.47.11-.11.24-.16.38-.16.41,0,.78.07,1.1.22.33.15.6.36.83.62.2.26.38.57.52.94.14.37.24.77.31,1.19.06.43.09.88.09,1.36v.12c0,.32,0,.6.02.86v.87c.01,2.94-.67,4.41-2.04,4.41-.27,0-.51-.08-.73-.25ZM63.58,11.15c.15-.15.27-.35.35-.6.19-.52.31-1.08.35-1.68.05-.52.08-.97.08-1.35,0-.46-.04-1.06-.11-1.81-.06-.79-.09-1.37-.09-1.76v-.28c-.02-.39-.15-.72-.39-1.01-.24-.29-.53-.43-.88-.43s-.58.2-.69.6c-.1.32-.15.72-.15,1.22,0,.19,0,.36.02.49v.41l-.03.7c-.02.21-.03.45-.03.7,0,.55.02,1.1.05,1.64.04.77.14,1.51.31,2.24.16.75.4,1.13.72,1.13.18,0,.35-.07.51-.22Z"/>
      <path class="cls-1" d="M71.05,11.82c-.27-1.1-.63-3.1-1.09-5.99-.51-3.08-.82-4.91-.93-5.5.04-.19.18-.29.41-.29.17,0,.39.65.64,1.96.27,1.32.53,2.81.78,4.47l.41,2.71c.16-1.22.29-2.14.38-2.75.19-1.41.34-2.57.43-3.5s.14-1.8.14-2.62c.15-.2.34-.31.55-.31l.32.17-.23,2.07c-.05.63-.18,1.78-.38,3.44l-.14,1.01c-.11.9-.22,1.75-.34,2.54-.15,1.15-.3,1.95-.43,2.4-.06.23-.12.35-.18.35-.14,0-.26-.06-.35-.17Z"/>
      <path class="cls-1" d="M76.9,11.76c-.11-.07-.17-.2-.17-.4,0-.31-.05-.83-.15-1.56l-.06-.32-1.52-.23c-.06.23-.15.71-.26,1.42-.06.5-.16.83-.29,1-.07.09-.17.14-.31.14-.12,0-.24-.04-.34-.11-.1-.08-.15-.17-.15-.28l.03-.08.02-.06c.67-2.62,1.18-5.21,1.53-7.76,0-.04,0-.11.01-.21.01-.1.02-.24.03-.42.03-.38.06-.68.1-.9.04-.22.09-.39.18-.5h.52c.14,0,.26.03.37.1.1.07.15.16.15.28,0,.78.11,1.93.32,3.46.2,1.57.31,2.67.31,3.31,0,.06.03.22.08.47.05.24.08.39.08.46s.05.38.15.92c.09.49.14.81.14.95h0c0,.24-.08.38-.25.44-.24,0-.41-.04-.52-.11ZM76.37,8.36c0-.92-.08-2.09-.24-3.52l-.15-1.59c-.44,2.4-.74,4.21-.9,5.43.15.1.6.18,1.35.25-.03-.15-.05-.34-.05-.57Z"/>
      <path class="cls-1" d="M82.89,11.67c-.06-.07-.11-.18-.14-.34l-.09-.29v-.08c0-.34-.35-1.48-1.05-3.44-.7-1.96-1.25-3.41-1.65-4.35v7.7l.06.11s.03.06.06.11c.03.05.05.1.05.15,0,.13-.05.25-.14.34s-.21.14-.34.14c-.33,0-.49-.31-.49-.93v-2.62c-.03-.79-.03-1.66-.03-2.63,0-.33.02-.8.05-1.42.03-.64.05-1.12.05-1.42,0-.48.18-.86.55-1.13v.09c.06-.02.1-.03.12-.03.23,0,.53.41.89,1.22.29.65.54,1.34.77,2.07s.53,1.76.91,3.09l.15.55c.23.83.41,1.42.54,1.78.2-2.19.31-4.79.31-7.78v-.2c-.01-.06-.02-.13-.02-.2,0-.31.12-.46.37-.46.14,0,.25.06.33.17.08.11.12.25.12.43v1.15c-.02,1.57-.08,3.28-.18,5.11-.1,1.84-.22,2.87-.37,3.11-.3.08-.48.12-.55.12-.12,0-.21-.03-.28-.1Z"/>
      <path class="cls-1" d="M86.41,9.81l.03-2.42c0-.71.01-1.52.01-2.4,0-.33-.03-.83-.09-1.51-.05-.75-.08-1.2-.08-1.36,0-.13.06-.25.17-.35.11-.1.23-.15.37-.15.36,0,.7.08,1.03.24.33.16.62.38.88.67.54.62.9,1.31,1.07,2.05.09.38.14.75.14,1.12,0,.13,0,.25-.02.37v.41s-.01.84-.01.84c0,.65-.02,1.17-.06,1.55-.06.51-.18.96-.35,1.36-.2.43-.5.81-.89,1.15-.18.15-.42.31-.7.46h-1.1c-.27,0-.4-.67-.4-2ZM88.04,10.88c.17-.11.32-.25.44-.44.1-.16.2-.37.28-.62s.15-.49.19-.73c.09-.46.15-.93.17-1.41.01-.12.02-.3.02-.54,0-3.08-.6-4.69-1.79-4.82-.07.46-.11.99-.11,1.59,0,.64.04,1.77.12,3.37.07,1.42.11,2.55.11,3.38v.37c.2,0,.39-.05.57-.16Z"/>
      <path class="cls-1" d="M94.11,11.76c-.11-.07-.17-.2-.17-.4,0-.31-.05-.83-.15-1.56l-.06-.32-1.52-.23c-.06.23-.15.71-.26,1.42-.06.5-.16.83-.29,1-.07.09-.17.14-.31.14-.12,0-.24-.04-.34-.11-.1-.08-.15-.17-.15-.28l.03-.08.02-.06c.67-2.62,1.18-5.21,1.53-7.76,0-.04,0-.11.01-.21.01-.1.02-.24.03-.42.03-.38.06-.68.1-.9.04-.22.09-.39.18-.5h.52c.14,0,.26.03.37.1.1.07.15.16.15.28,0,.78.11,1.93.32,3.46.2,1.57.31,2.67.31,3.31,0,.06.03.22.08.47.05.24.08.39.08.46s.05.38.15.92c.09.49.14.81.14.95h0c0,.24-.08.38-.25.44-.24,0-.41-.04-.52-.11ZM93.57,8.36c0-.92-.08-2.09-.24-3.52l-.15-1.59c-.44,2.4-.74,4.21-.9,5.43.15.1.6.18,1.35.25-.03-.15-.05-.34-.05-.57Z"/>
      <path class="cls-1" d="M97.18,11.79c-.16.1-.34.15-.52.15-.12,0-.23-.05-.31-.16-.09-.11-.13-.22-.13-.34,0-.86.04-2,.11-3.43.06-1.52.09-2.66.09-3.41v-.11c-.06-.64-.09-1.12-.09-1.44,0-.97.18-1.45.54-1.45.1,0,.19.04.27.11.08.08.12.17.12.27,0,.12-.02.32-.05.58-.03.25-.05.45-.05.58,0,.68,0,1.3.01,1.85.01.54.02,1.15.02,1.84-.05.15-.08.37-.08.64v.18l-.03,1.21c-.02.36-.03.77-.03,1.22,0,.7.17,1.06.5,1.06.02,0,.05,0,.1,0,.05,0,.11,0,.19,0,.09-.01.21-.02.35-.02.55,0,.83.15.83.46,0,.1-.05.19-.14.26-.09.07-.2.12-.34.14-.37-.12-.82-.18-1.36-.18Z"/>
      <path class="cls-1" d="M101.04,10.24c-.1-.11-.15-.24-.15-.38,0-.15.06-.29.17-.41.11-.12.25-.18.4-.18.14,0,.27.06.38.18.11.12.16.25.16.41,0,.16-.06.3-.17.41-.11.11-.26.16-.43.16-.13,0-.25-.06-.35-.17ZM101.19,4.46c-.1-.11-.15-.24-.15-.38,0-.15.06-.29.17-.41.11-.12.24-.18.4-.18.14,0,.27.06.38.18.11.12.17.25.17.4,0,.16-.06.3-.18.41-.12.11-.26.16-.44.16-.13,0-.25-.06-.35-.17Z"/>
      <path class="cls-1" d="M4.61,25.25c-.07-.1-.1-.22-.1-.36l.03-2.57c.03-1.25.05-2.21.05-2.89,0-2.38-.13-4.2-.4-5.46.15-.24.35-.35.58-.35.38,0,.72.08,1.03.25.31.17.57.4.77.68.4.59.6,1.26.6,1.99s-.16,1.45-.49,2.05c-.33.6-.8,1.07-1.42,1.41l.03,1.55.03.81c0,.17.02.42.02.75.03.68.05,1.24.05,1.67,0,.19-.04.35-.12.46s-.21.17-.38.17c-.11,0-.2-.05-.27-.15ZM6.11,18.07c.19-.41.28-.88.28-1.4v-.02c0-.23-.03-.53-.08-.89-.03-.12-.09-.25-.17-.37-.08-.12-.13-.19-.14-.21-.07-.1-.26-.26-.57-.47l-.4-.29c0,.52.03,1.33.09,2.42l.09,2.42c.4-.38.69-.77.88-1.19Z"/>
      <path class="cls-1" d="M9.12,25.38c-.11-.09-.17-.2-.18-.34v-.7c-.01-.09-.02-.2-.02-.32,0-.21-.02-.54-.05-.98l-.03-.98c0-.5.01-1.24.05-2.23.04-.89.06-1.63.06-2.24,0-.14-.01-.36-.05-.64-.03-.3-.05-.51-.05-.64,0-.72.21-1.09.64-1.09.34,0,.73.07,1.17.2.44.13.67.29.67.47,0,.1-.04.2-.13.28-.09.09-.19.16-.31.21-.43-.15-.82-.25-1.16-.31,0,.15.01.37.01.66,0,.41,0,.78-.01,1.1-.03.49-.05.86-.05,1.1l.05.25.24-.02c.08,0,.18-.02.31-.02.49,0,.73.14.73.43,0,.11-.05.21-.14.28s-.21.12-.35.12c-.18,0-.33-.01-.43-.03h-.38c.02.27.03.65.03,1.16s0,.97-.01,1.38c-.03.62-.05,1.09-.05,1.39,0,.57,0,.86.03.86h.5c.17-.03.38-.03.63-.03.39,0,.58.12.58.37,0,.14-.06.25-.19.33-.13.08-.28.12-.47.12h-1.3c-.13,0-.25-.05-.36-.14Z"/>
      <path class="cls-1" d="M13.46,25.43c-.13-.54-.2-1.29-.2-2.25l.03-1.36c.02-.41.03-.86.03-1.36-.06-.14-.09-.27-.09-.38v-.05c.1-.19.15-.63.15-1.32v-.7c.03-.22.03-.47.03-.75,0-.6-.04-1.08-.12-1.42.03-.14.08-.27.15-.38s.16-.16.26-.16h.67c.29,0,.54.06.75.19.21.13.38.31.49.54.2.42.31.91.31,1.48,0,.41,0,.73-.02.96-.02.3-.07.57-.15.81-.03.13-.07.24-.13.33-.06.09-.14.19-.24.31-.14.17-.38.34-.7.49-.13.07-.31.14-.52.2v1.64l.03.98.03.47c.04.57.06,1.06.06,1.45,0,.12-.05.23-.15.31-.1.09-.22.13-.35.13l-.32-.18ZM15.08,17.41c0-.3-.01-.53-.05-.69-.03-.12-.07-.22-.12-.3-.05-.08-.13-.14-.23-.19-.11-.06-.24-.09-.37-.09,0,0-.06-.01-.17-.01v.87c0,.6,0,1.14.02,1.61,0,.53,0,.88.02,1.04v.35c.6-.09.9-.95.9-2.59Z"/>
      <path class="cls-1" d="M17.77,25.38c-.11-.09-.17-.2-.18-.34v-.7c-.01-.09-.02-.2-.02-.32,0-.21-.02-.54-.05-.98l-.03-.98c0-.5.01-1.24.05-2.23.04-.89.06-1.63.06-2.24,0-.14-.01-.36-.05-.64-.03-.3-.05-.51-.05-.64,0-.72.21-1.09.64-1.09.34,0,.73.07,1.17.2.44.13.67.29.67.47,0,.1-.04.2-.13.28-.09.09-.19.16-.31.21-.43-.15-.82-.25-1.16-.31,0,.15.01.37.01.66,0,.41,0,.78-.01,1.1-.03.49-.05.86-.05,1.1l.05.25.24-.02c.08,0,.18-.02.31-.02.49,0,.73.14.73.43,0,.11-.05.21-.14.28s-.21.12-.35.12c-.18,0-.33-.01-.43-.03h-.38c.02.27.03.65.03,1.16s0,.97-.01,1.38c-.03.62-.05,1.09-.05,1.39,0,.57,0,.86.03.86h.5c.17-.03.38-.03.63-.03.39,0,.58.12.58.37,0,.14-.06.25-.19.33-.13.08-.28.12-.47.12h-1.3c-.13,0-.25-.05-.36-.14Z"/>
      <path class="cls-1" d="M22.31,16.96c0-.21.06-.58.17-1.1s.27-1.01.46-1.48c.2-.52.41-.78.63-.78.18,0,.28.11.28.34,0,.43-.07.91-.22,1.43-.15.53-.33.97-.56,1.34-.24.36-.44.54-.63.54-.08-.02-.12-.11-.12-.28Z"/>
      <path class="cls-1" d="M26.01,25.34c-.13-.1-.2-.24-.22-.4l.17-.26c.06,0,.16.02.29.06.15.03.27.05.35.05.18,0,.35-.08.5-.24.15-.16.26-.38.33-.64.13-.49.2-.93.2-1.32,0-.67-.21-1.38-.64-2.13l-.17-.29c-.19-.34-.36-.64-.49-.9-.13-.27-.25-.55-.34-.86-.12-.4-.18-.8-.18-1.19,0-.45.1-.92.31-1.41.1-.24.25-.43.44-.57.19-.15.4-.22.63-.22.18,0,.35.06.51.18s.24.26.24.42c0,.09-.04.16-.11.21-.07.05-.16.08-.26.08-.11,0-.22-.03-.32-.09-.22,0-.4.21-.54.6-.11.36-.17.65-.17.89,0,.3.05.59.14.9s.21.57.35.82l.34.61.54,1.01c.14.29.26.62.34,1,.09.38.13.76.13,1.15,0,.62-.14,1.21-.43,1.78-.14.29-.34.51-.6.69-.26.17-.55.26-.87.26v.05c-.18-.03-.34-.1-.47-.2Z"/>
      <path class="cls-1" d="M33.02,25.25c-.07-.1-.1-.22-.1-.36l.03-2.57c.03-1.25.05-2.21.05-2.89,0-2.38-.13-4.2-.4-5.46.15-.24.35-.35.58-.35.38,0,.72.08,1.03.25.31.17.57.4.77.68.4.59.6,1.26.6,1.99s-.16,1.45-.49,2.05c-.33.6-.8,1.07-1.42,1.41l.03,1.55.03.81c0,.17.02.42.02.75.03.68.05,1.24.05,1.67,0,.19-.04.35-.12.46s-.21.17-.38.17c-.11,0-.2-.05-.27-.15ZM34.52,18.07c.19-.41.28-.88.28-1.4v-.02c0-.23-.03-.53-.08-.89-.03-.12-.09-.25-.17-.37-.08-.12-.13-.19-.14-.21-.07-.1-.26-.26-.57-.47l-.4-.29c0,.52.03,1.33.09,2.42l.09,2.42c.4-.38.69-.77.88-1.19Z"/>
      <path class="cls-1" d="M39.22,25.35c-.11-.07-.17-.2-.17-.4,0-.31-.05-.83-.15-1.56l-.06-.32-1.52-.23c-.06.23-.15.71-.26,1.42-.06.5-.16.83-.29,1-.07.09-.17.14-.31.14-.12,0-.24-.04-.34-.11-.1-.08-.15-.17-.15-.28l.03-.08.02-.06c.67-2.62,1.18-5.21,1.53-7.76,0-.04,0-.11.01-.21.01-.1.02-.24.03-.42.03-.38.06-.68.1-.9.04-.22.09-.39.18-.5h.52c.14,0,.26.03.37.1.1.07.15.16.15.28,0,.78.11,1.93.32,3.46.2,1.57.31,2.67.31,3.31,0,.06.03.22.08.47.05.24.08.39.08.46s.05.38.15.92c.09.49.14.81.14.95h0c0,.24-.08.38-.25.44-.24,0-.41-.04-.52-.11ZM38.69,21.95c0-.92-.08-2.09-.24-3.52l-.15-1.59c-.44,2.4-.74,4.21-.9,5.43.15.1.6.18,1.35.25-.03-.15-.05-.34-.05-.57Z"/>
      <path class="cls-1" d="M42.13,25.2c.11-.21.17-1.08.17-2.6,0-.36-.03-.75-.08-1.16l-.05-.44c-.03-.28-.05-.48-.05-.63v-.4c-.1-.25-.29-.73-.56-1.42-.27-.69-.49-1.28-.65-1.75-.19-.54-.29-.91-.29-1.1v-.08l.35-.26c.17.02.36.25.55.67.16.38.34.92.54,1.62.2.7.3,1.08.3,1.12.04-.11.12-.49.25-1.15.12-.65.26-1.23.41-1.73.17-.5.35-.75.54-.75.1,0,.19.03.27.09.08.06.12.14.12.23,0,.52-.14,1.25-.43,2.2-.31,1.03-.46,1.78-.46,2.23v4.61c0,.68-.17,1.03-.51,1.03-.17,0-.32-.11-.43-.34Z"/>
      <path class="cls-1" d="M45.67,25.18c-.04-.12-.06-.3-.06-.52,0-.44.02-.98.06-1.62.05-.61.08-1.16.08-1.64,0-.54.02-1.35.05-2.43l.03-2.42c0-.09-.01-.23-.05-.41l-.05-.38v-.08c0-.23.04-.41.11-.52s.2-.17.4-.17c.27,0,.56.08.87.23s.55.35.69.58c.3.49.44,1.1.44,1.84,0,.55-.05,1.01-.14,1.39-.09.37-.25.72-.47,1.03.28.27.46.6.56,1.02.1.41.15.93.15,1.55s-.11,1.16-.32,1.62c-.25.52-.6.88-1.07,1.07-.29.1-.57.15-.86.15-.22,0-.36-.1-.41-.29ZM47.24,24.11c.18-.32.28-.68.28-1.09,0-.43-.03-.81-.08-1.13-.04-.25-.09-.47-.16-.64-.07-.17-.16-.32-.27-.47-.12-.15-.27-.24-.43-.28-.04.58-.06,1.35-.06,2.31,0,.06,0,.25-.03.58l-.03.52s0,.04.01.05v.72c.33-.07.58-.26.77-.58ZM47.37,17.76c0-1.32-.21-2-.63-2.07-.11.23-.17.79-.17,1.65v2.26c.53,0,.8-.63.8-1.85Z"/>
      <path class="cls-1" d="M52.49,25.35c-.11-.07-.17-.2-.17-.4,0-.31-.05-.83-.15-1.56l-.06-.32-1.52-.23c-.06.23-.15.71-.26,1.42-.06.5-.16.83-.29,1-.07.09-.17.14-.31.14-.12,0-.24-.04-.34-.11-.1-.08-.15-.17-.15-.28l.03-.08.02-.06c.67-2.62,1.18-5.21,1.53-7.76,0-.04,0-.11.01-.21.01-.1.02-.24.03-.42.03-.38.06-.68.1-.9.04-.22.09-.39.18-.5h.52c.14,0,.26.03.37.1.1.07.15.16.15.28,0,.78.11,1.93.32,3.46.2,1.57.31,2.67.31,3.31,0,.06.03.22.08.47.05.24.08.39.08.46s.05.38.15.92c.09.49.14.81.14.95h0c0,.24-.08.38-.25.44-.24,0-.41-.04-.52-.11ZM51.96,21.95c0-.92-.08-2.09-.24-3.52l-.15-1.59c-.44,2.4-.74,4.21-.9,5.43.15.1.6.18,1.35.25-.03-.15-.05-.34-.05-.57Z"/>
      <path class="cls-1" d="M55.92,25.44c-.25-.07-.44-.14-.57-.22-.68-.44-1.03-1.64-1.03-3.6v-1.25c0-.41,0-.77.01-1.09.01-.32.03-.67.06-1.05.03-.4.08-.72.14-.97s.16-.53.31-.85c.12-.3.27-.53.45-.69.18-.16.41-.3.7-.41.25-.11.57-.17.95-.17.15,0,.27.04.35.11.08.07.12.16.12.28,0,.1-.03.19-.1.28s-.15.13-.24.14h-.72c-.2,0-.38.13-.54.38s-.26.59-.32,1c-.13.75-.2,1.37-.2,1.84v.08l-.03,1.47c-.02.44-.03.93-.03,1.48,0,.39.02.7.05.95.05.37.14.67.26.92.12.28.33.47.63.6.15.06.32.09.51.09.11,0,.22-.04.34-.12.13,0,.24.03.33.08.09.06.13.14.13.25,0,.4-.28.6-.84.6-.22,0-.46-.03-.71-.1Z"/>
      <path class="cls-1" d="M61.71,24.82c-.4-.77-.79-2.03-1.18-3.78-.11-.48-.2-.92-.28-1.33-.37.73-.55,1.62-.55,2.66v2.83c0,.23-.1.35-.31.35-.15,0-.28-.04-.38-.13-.1-.09-.15-.21-.15-.36v-4.64c0-.45.05-1.28.15-2.48.1-1.05.15-1.88.15-2.48.08-.19.23-.29.44-.29.13,0,.24.05.34.14s.14.2.14.34v.05c-.13.22-.2,1.15-.2,2.79v.55l.57-1.12c.35-.72.67-1.35.98-1.87.29-.51.49-.76.63-.76.16,0,.3.04.42.11.12.07.18.17.18.31l-.37.61c-.77,1.23-1.19,1.95-1.29,2.14,0,.17,0,.33-.02.46v.46c-.01.44.16,1.26.51,2.46.35,1.2.65,1.99.88,2.38l.2.28c.19.27.29.5.29.7,0,.11-.04.21-.13.28s-.19.11-.3.11c-.23,0-.48-.25-.75-.76Z"/>
      <path class="cls-1" d="M67,25.06l.03-1.88.03-1.88c0-.68-.02-1.72-.05-3.11-.03-1.38-.05-2.41-.05-3.11v-.09c0-.27.03-.51.08-.74.06-.28.22-.41.49-.41.71,0,1.28.23,1.7.69.42.46.63,1.07.63,1.82,0,.46-.12.94-.37,1.44s-.54.87-.87,1.12c.59.4,1.03.91,1.31,1.54.28.63.42,1.32.42,2.07,0,.36-.12.8-.37,1.33-.3.63-.7,1.09-1.21,1.36-.31.15-.64.23-1.01.23h-.06c-.47,0-.7-.13-.7-.38ZM68.54,18.02c.15-.29.3-.63.43-1.04.03-.11.08-.25.15-.43v-.54c0-.31-.11-.6-.34-.89s-.48-.43-.76-.43c-.14,0-.21.16-.21.47,0,.67,0,1.28.03,1.81l.03,1.7c.27-.06.49-.28.67-.66ZM69.12,23.96c.3-.39.44-.85.44-1.39,0-.47-.04-.9-.12-1.29-.08-.39-.18-.69-.3-.9-.11-.19-.22-.36-.34-.49s-.21-.22-.29-.26l-.12-.05h-.55c.05,1.17.08,2.86.08,5.07.5-.07.9-.3,1.19-.69Z"/>
      <path class="cls-1" d="M72.16,25.38c-.11-.09-.17-.2-.18-.34v-.7c-.01-.09-.02-.2-.02-.32,0-.21-.02-.54-.05-.98l-.03-.98c0-.5.01-1.24.05-2.23.04-.89.06-1.63.06-2.24,0-.14-.01-.36-.05-.64-.03-.3-.05-.51-.05-.64,0-.72.21-1.09.64-1.09.34,0,.73.07,1.17.2.44.13.67.29.67.47,0,.1-.04.2-.13.28-.09.09-.19.16-.31.21-.43-.15-.82-.25-1.16-.31,0,.15.01.37.01.66,0,.41,0,.78-.01,1.1-.03.49-.05.86-.05,1.1l.05.25.24-.02c.08,0,.18-.02.31-.02.49,0,.73.14.73.43,0,.11-.05.21-.14.28s-.21.12-.35.12c-.18,0-.33-.01-.43-.03h-.38c.02.27.03.65.03,1.16s0,.97-.01,1.38c-.03.62-.05,1.09-.05,1.39,0,.57,0,.86.03.86h.5c.17-.03.38-.03.63-.03.39,0,.58.12.58.37,0,.14-.06.25-.19.33-.13.08-.28.12-.47.12h-1.3c-.13,0-.25-.05-.36-.14Z"/>
      <path class="cls-1" d="M77.37,25.28c-.23-.11-.43-.25-.6-.42-.13-.14-.25-.35-.37-.63s-.19-.54-.25-.8c-.05-.19-.09-.47-.12-.84-.03-.37-.05-.68-.06-.95v-1.5c0-.59,0-1.08.03-1.45.02-.46.09-.94.2-1.45.09-.46.25-.86.47-1.21.21-.35.52-.59.9-.72.18-.07.4-.11.64-.11.44,0,.66.13.66.38,0,.12-.05.22-.15.3-.1.08-.21.11-.34.11-.06,0-.12,0-.17-.01-.04-.01-.09-.02-.15-.02-.17,0-.33.09-.46.28s-.25.44-.34.77c-.16.63-.28,1.32-.34,2.07-.04.69-.06,1.21-.06,1.55s.02.82.05,1.42c.04.56.13,1.05.26,1.47.07.25.16.44.25.59s.22.27.38.38c.17.11.35.17.54.17.49,0,.73-.82.73-2.45v-.7c-.07-.03-.19-.05-.35-.05h-.31c-.36,0-.54-.12-.54-.35,0-.14.05-.25.15-.33s.22-.12.38-.12v.02h.21c.92,0,1.38.16,1.38.47,0,.09-.03.28-.08.55-.06.25-.09.43-.09.55,0,.17.02.44.05.81l.03.81c0,.49-.17.88-.51,1.16-.34.28-.76.42-1.25.42-.29,0-.55-.05-.78-.16Z"/>
      <path class="cls-1" d="M80.89,24.85c0-.25.16-.37.47-.37h.17l.15.02c.08,0,.14-.03.17-.08.03-.05.05-.14.05-.28,0-.17-.01-.44-.03-.81-.03-.24-.07-.68-.11-1.32-.09-1.56-.14-2.74-.14-3.54,0-.29,0-.55.01-.78l.02-.78c0-.34-.02-.62-.05-.84-.16.04-.28.06-.35.06-.24,0-.37-.12-.37-.37,0-.12.08-.23.23-.32.15-.09.35-.16.58-.2.41-.08.77-.12,1.09-.12.12,0,.23.04.31.13s.13.19.13.3-.03.21-.1.29c-.07.08-.15.12-.25.12-.06,0-.11,0-.15-.02h-.12c-.1,0-.18.02-.22.07s-.07.13-.07.25c0,.99.06,2.48.18,4.47.02.37.06.91.12,1.62.05.47.08.95.08,1.44v.58c.06,0,.16-.02.31-.02.43,0,.64.18.64.54v.09l-.38.26s-.04,0-.1,0c-.06,0-.16,0-.31,0-.33.02-.54.03-.63.03-.89,0-1.33-.15-1.33-.46Z"/>
      <path class="cls-1" d="M88.82,25.27c-.06-.07-.11-.18-.14-.34l-.09-.29v-.08c0-.34-.35-1.48-1.05-3.44-.7-1.96-1.25-3.41-1.65-4.35v7.7l.06.11s.03.06.06.11c.03.05.05.1.05.15,0,.13-.05.25-.14.34s-.21.14-.34.14c-.33,0-.49-.31-.49-.93v-2.62c-.03-.79-.03-1.66-.03-2.63,0-.33.02-.8.05-1.42.03-.64.05-1.12.05-1.42,0-.48.18-.86.55-1.13v.09c.06-.02.1-.03.12-.03.23,0,.53.41.89,1.22.29.65.54,1.34.77,2.07s.53,1.76.91,3.09l.15.55c.23.83.41,1.42.54,1.78.2-2.19.31-4.79.31-7.78v-.2c-.01-.06-.02-.13-.02-.2,0-.31.12-.46.37-.46.14,0,.25.06.33.17.08.11.12.25.12.43v1.15c-.02,1.57-.08,3.28-.18,5.11-.1,1.84-.22,2.87-.37,3.11-.3.08-.48.12-.55.12-.12,0-.21-.03-.28-.1Z"/>
      <path class="cls-1" d="M92.05,25.34c-.13-.1-.2-.24-.22-.4l.17-.26c.06,0,.16.02.29.06.15.03.27.05.35.05.18,0,.35-.08.5-.24.15-.16.26-.38.33-.64.13-.49.2-.93.2-1.32,0-.67-.21-1.38-.64-2.13l-.17-.29c-.19-.34-.36-.64-.49-.9-.13-.27-.25-.55-.34-.86-.12-.4-.18-.8-.18-1.19,0-.45.1-.92.31-1.41.1-.24.25-.43.44-.57.19-.15.4-.22.63-.22.18,0,.35.06.51.18s.24.26.24.42c0,.09-.04.16-.11.21-.07.05-.16.08-.26.08-.11,0-.22-.03-.32-.09-.22,0-.4.21-.54.6-.11.36-.17.65-.17.89,0,.3.05.59.14.9s.21.57.35.82l.34.61.54,1.01c.14.29.26.62.34,1,.09.38.13.76.13,1.15,0,.62-.14,1.21-.43,1.78-.14.29-.34.51-.6.69-.26.17-.55.26-.87.26v.05c-.18-.03-.34-.1-.47-.2Z"/>
      <path class="cls-1" d="M96.84,25.4c-.1-.11-.15-.24-.15-.38,0-.15.06-.29.17-.41.11-.12.24-.18.4-.18.14,0,.27.06.38.18.11.12.17.26.17.4,0,.16-.06.3-.18.41s-.26.16-.44.16c-.13,0-.25-.06-.35-.17Z"/>
    </g>
  </g>
</svg>