<svg xmlns="http://www.w3.org/2000/svg" viewBox="0 0 154 18.25"><defs><style>.cls-1{fill:#0471df;}.cls-2{fill:#fff;}</style></defs><g id="Layer_2" data-name="Layer 2"><g id="Layer_1-2" data-name="Layer 1"><rect class="cls-1" width="154" height="18.25" rx="9.13"/><path class="cls-2" d="M9.36,6.34h.88l1.89,4.85,2-4.85H15l-2.46,6H11.7Z"/><path class="cls-2" d="M15.24,7.73h.85V9a1.84,1.84,0,0,1,2.23-1.18l-.41.7A1.51,1.51,0,0,0,16.13,10v2.28h-.89Z"/><path class="cls-2" d="M18.19,10a2.21,2.21,0,0,1,2.27-2.4A2.06,2.06,0,0,1,22.4,8.87V7.73h.86v4.59h-.85V11.15a2.05,2.05,0,0,1-1.9,1.26A2.3,2.3,0,0,1,18.19,10Zm2.51,1.64a1.67,1.67,0,1,0,0-3.33A1.58,1.58,0,0,0,19,10,1.63,1.63,0,0,0,20.7,11.68Z"/><path class="cls-2" d="M23.93,10a2.21,2.21,0,0,1,2.27-2.4,2.06,2.06,0,0,1,1.94,1.23V7.73H29v4.59h-.85V11.15a2.05,2.05,0,0,1-1.9,1.26A2.3,2.3,0,0,1,23.93,10Zm2.51,1.64a1.67,1.67,0,1,0,0-3.33A1.58,1.58,0,0,0,24.78,10,1.63,1.63,0,0,0,26.44,11.68Z"/><path class="cls-2" d="M29.64,13.08a1.42,1.42,0,0,1,.93-1.32.49.49,0,0,1-.32-.51.87.87,0,0,1,.46-.67A1.4,1.4,0,0,1,30,9.33c0-1,.73-1.69,2-1.69a4.62,4.62,0,0,1,.84.08h1.45v.65h-.77a1.17,1.17,0,0,1,.41.91c0,1-.74,1.65-2,1.65-.22,0-.48,0-.59,0-.28.13-.43.31-.43.48s.31.3.63.3h.93c1.08,0,1.91.41,1.89,1.37s-.89,1.48-2.42,1.48S29.65,14,29.64,13.08Zm2.27.79c1.1,0,1.66-.27,1.67-.79s-.39-.85-1.23-.85h-.79c-.62,0-1.16.29-1.14.86S30.94,13.87,31.91,13.87Zm0-3.64c.76,0,1.17-.34,1.17-1s-.41-.94-1.17-.94-1.17.36-1.17,1S31.16,10.23,32,10.23Z"/><path class="cls-2" d="M37.33,10a2.51,2.51,0,0,1,5,0,2.51,2.51,0,0,1-5,0Zm2.49,1.65a1.67,1.67,0,1,0,0-3.34A1.61,1.61,0,0,0,38.18,10,1.64,1.64,0,0,0,39.82,11.69Z"/><path class="cls-2" d="M43.64,9.28h-.79V8.57h.79V8A1.81,1.81,0,0,1,46.3,6.43l-.17.74c-.75-.34-1.64-.07-1.64.85v.55h1.43v.71H44.5v3h-.85Z"/><path class="cls-2" d="M47.4,9.28h-.79V8.57h.79V8a1.8,1.8,0,0,1,2.65-1.57l-.16.74c-.75-.34-1.65-.07-1.65.85v.55h1.43v.71H48.25v3H47.4Z"/><path class="cls-2" d="M50.14,10a2.31,2.31,0,0,1,2.41-2.4,2.29,2.29,0,0,1,2.38,2.24,2,2,0,0,1,0,.35h-4a1.67,1.67,0,0,0,1.6,1.47A1.65,1.65,0,0,0,54,10.91l.65.34A2.43,2.43,0,0,1,50.14,10Zm4-.31a1.57,1.57,0,0,0-1.58-1.4A1.54,1.54,0,0,0,51,9.73Z"/><path class="cls-2" d="M55.62,7.73h.85V9A1.84,1.84,0,0,1,58.7,7.83l-.41.7A1.52,1.52,0,0,0,56.5,10v2.28h-.88Z"/><path class="cls-2" d="M60.13,10.61V8.44h-.75V7.69c.85,0,.75-.51.75-1.35H61V7.69h1.43v.75H61v2.08a1.07,1.07,0,0,0,1.62.93l.16.73A1.78,1.78,0,0,1,60.13,10.61Z"/><path class="cls-2" d="M63,10a2.4,2.4,0,0,1,4.8-.16v.35h-4a1.67,1.67,0,0,0,1.61,1.47,1.62,1.62,0,0,0,1.44-.79l.66.34A2.44,2.44,0,0,1,63,10Zm4-.31a1.57,1.57,0,0,0-1.57-1.4,1.55,1.55,0,0,0-1.55,1.4Z"/><path class="cls-2" d="M70.71,10A2.21,2.21,0,0,1,73,7.64a2.06,2.06,0,0,1,1.94,1.23V7.73h.86v4.59h-.85V11.15A2.05,2.05,0,0,1,73,12.41,2.3,2.3,0,0,1,70.71,10Zm2.51,1.64a1.67,1.67,0,1,0,0-3.33A1.58,1.58,0,0,0,71.56,10,1.63,1.63,0,0,0,73.22,11.68Z"/><path class="cls-2" d="M76.45,10a2.21,2.21,0,0,1,2.27-2.4,2.06,2.06,0,0,1,1.94,1.23V7.73h.86v4.59h-.85V11.15a2.05,2.05,0,0,1-1.9,1.26A2.3,2.3,0,0,1,76.45,10ZM79,11.68a1.67,1.67,0,1,0,0-3.33A1.58,1.58,0,0,0,77.3,10,1.63,1.63,0,0,0,79,11.68Z"/><path class="cls-2" d="M82.19,7.73H83V8.87A2.07,2.07,0,0,1,85,7.64,2.2,2.2,0,0,1,87.26,10v2.28H86.4V10a1.58,1.58,0,0,0-1.66-1.69A1.63,1.63,0,0,0,83.08,10v2.28h-.89Z"/></g></g></svg>