<svg xmlns="http://www.w3.org/2000/svg" width="39.81" height="39.81" viewBox="0 0 39.81 39.81"><defs><style>.cls-1{fill:#f90000;}.cls-2{fill:#f70000;}</style></defs><g id="Layer_2" data-name="Layer 2"><g id="Layer_1-2" data-name="Layer 1"><path class="cls-1" d="M9.24,13.14l1.34-4.09,4.47.73-.26,1.63-4.23-.68-.64,1.91a2,2,0,0,1,.49-.22,3.5,3.5,0,0,1,.58-.11c.2,0,.4,0,.59,0l.55.05a4.73,4.73,0,0,1,1.16.36,3.43,3.43,0,0,1,1,.68,2.57,2.57,0,0,1,.62,1,2.38,2.38,0,0,1,.09,1.2,2.71,2.71,0,0,1-.47,1.16,3.28,3.28,0,0,1-.89.85,3.33,3.33,0,0,1-1.17.46,3.6,3.6,0,0,1-1.31,0,5.39,5.39,0,0,1-1-.27,3.4,3.4,0,0,1-1-.51,2.55,2.55,0,0,1-.68-.75,1.52,1.52,0,0,1-.15-1l1.79.29a2,2,0,0,0,0,.6,1.56,1.56,0,0,0,.2.56,1.33,1.33,0,0,0,.37.45,1.1,1.1,0,0,0,.53.23,1.12,1.12,0,0,0,.84-.14,1.79,1.79,0,0,0,.57-.59A3.09,3.09,0,0,0,13,16.1a7.83,7.83,0,0,0,.18-.79,1.83,1.83,0,0,0-.06-.88,1.65,1.65,0,0,0-.42-.69,2.44,2.44,0,0,0-.68-.48,3.29,3.29,0,0,0-.84-.26,2.85,2.85,0,0,0-.87,0,3.32,3.32,0,0,0-.84.23Z"/><path class="cls-1" d="M15.8,14.35a7.15,7.15,0,0,1,.43-1.55A4.4,4.4,0,0,1,17,11.46a3.3,3.3,0,0,1,1.25-.86A3.13,3.13,0,0,1,20,10.47a3.21,3.21,0,0,1,1.6.66,3.15,3.15,0,0,1,.91,1.21,4.29,4.29,0,0,1,.36,1.53,7.16,7.16,0,0,1-.09,1.61A6.89,6.89,0,0,1,22.37,17a4.2,4.2,0,0,1-.81,1.3,3.32,3.32,0,0,1-1.24.82,3.48,3.48,0,0,1-1.73.11A3.4,3.4,0,0,1,17,18.6a3.23,3.23,0,0,1-.92-1.17A4,4,0,0,1,15.72,16,7.13,7.13,0,0,1,15.8,14.35Zm1.73.28c-.05.32-.09.7-.12,1.15a6.34,6.34,0,0,0,0,1.31,3,3,0,0,0,.37,1.12,1.2,1.2,0,0,0,.85.57,1.14,1.14,0,0,0,1-.28,3.12,3.12,0,0,0,.7-.94,6.23,6.23,0,0,0,.46-1.23c.11-.43.19-.81.24-1.13s.07-.47.1-.75a8.57,8.57,0,0,0,0-.89c0-.3,0-.6-.05-.91a3.4,3.4,0,0,0-.19-.82,2,2,0,0,0-.39-.62,1.06,1.06,0,0,0-.63-.32,1.14,1.14,0,0,0-1,.3,3.4,3.4,0,0,0-.71,1,7.46,7.46,0,0,0-.46,1.28C17.67,13.92,17.59,14.3,17.53,14.63Z"/><path class="cls-1" d="M23.85,13.08a1.92,1.92,0,0,1,.31-.82,1.82,1.82,0,0,1,.59-.55,2.34,2.34,0,0,1,.82-.28,3.46,3.46,0,0,1,1,0,3.07,3.07,0,0,1,1,.29,2.51,2.51,0,0,1,.7.52,2,2,0,0,1,.12,2.4,2,2,0,0,1-.59.56,2.2,2.2,0,0,1-.83.28,3.51,3.51,0,0,1-1,0,3.38,3.38,0,0,1-1-.3,2,2,0,0,1-.7-.53,1.84,1.84,0,0,1-.39-.71A2.1,2.1,0,0,1,23.85,13.08Zm.91,7L24,20l7.91-7.49.76.12Zm.45-6.82c0,.11,0,.27-.05.47a2.17,2.17,0,0,0,0,.62,1.45,1.45,0,0,0,.23.56.78.78,0,0,0,.55.31.8.8,0,0,0,.62-.12,1.45,1.45,0,0,0,.39-.46,2.6,2.6,0,0,0,.23-.58c.05-.2.08-.35.1-.46s0-.27.05-.48a2.52,2.52,0,0,0,0-.61,1.33,1.33,0,0,0-.22-.55.85.85,0,0,0-.56-.32.76.76,0,0,0-.62.13,1.33,1.33,0,0,0-.4.45,2.32,2.32,0,0,0-.22.57C25.26,13,25.23,13.18,25.21,13.3ZM28,18.7a1.93,1.93,0,0,1,.31-.79A1.69,1.69,0,0,1,29,17.4a2.12,2.12,0,0,1,.82-.24,3.64,3.64,0,0,1,1,0,3.43,3.43,0,0,1,.94.27,2.3,2.3,0,0,1,.71.49,1.67,1.67,0,0,1,.41.67,1.84,1.84,0,0,1,0,.85,1.81,1.81,0,0,1-.31.78,1.64,1.64,0,0,1-.6.51,2.37,2.37,0,0,1-.83.25,4.16,4.16,0,0,1-1,0,3.74,3.74,0,0,1-.93-.28,2.48,2.48,0,0,1-.71-.49,1.77,1.77,0,0,1-.41-.68A1.81,1.81,0,0,1,28,18.7Zm1.36.22c0,.11,0,.26-.05.45a1.93,1.93,0,0,0,.05.58,1.3,1.3,0,0,0,.24.52.95.95,0,0,0,1.16.18,1.18,1.18,0,0,0,.39-.41,2.09,2.09,0,0,0,.21-.54,4.31,4.31,0,0,0,.1-.45c0-.11,0-.26.05-.45a2.15,2.15,0,0,0,0-.56,1.24,1.24,0,0,0-.24-.52.81.81,0,0,0-.55-.3.79.79,0,0,0-.6.11,1.24,1.24,0,0,0-.4.42,2.14,2.14,0,0,0-.22.52C29.44,18.66,29.41,18.8,29.39,18.92Z"/><path class="cls-1" d="M7.29,24.57a4.75,4.75,0,0,1,.65-1.78,4.36,4.36,0,0,1,1.2-1.29,4.44,4.44,0,0,1,1.61-.72,4.83,4.83,0,0,1,1.9,0,4.52,4.52,0,0,1,1.77.64,4.47,4.47,0,0,1,1.3,1.18,4.56,4.56,0,0,1,.74,1.61,4.78,4.78,0,0,1,.05,1.89,4.7,4.7,0,0,1-.65,1.77,4.43,4.43,0,0,1-2.81,2,4.74,4.74,0,0,1-1.88.05,4.84,4.84,0,0,1-1.78-.64,4.56,4.56,0,0,1-1.31-1.2,4.49,4.49,0,0,1-.73-1.6A4.55,4.55,0,0,1,7.29,24.57ZM9.41,26a6.32,6.32,0,0,0,.49,1.33,5.6,5.6,0,0,0,.66,1,3.81,3.81,0,0,0,.8.72,2.15,2.15,0,0,0,.86.34,1.94,1.94,0,0,0,.76,0,1.79,1.79,0,0,0,.9-.56,2.91,2.91,0,0,0,.57-1.06,4.39,4.39,0,0,0,.18-1.41,6.29,6.29,0,0,0-.24-1.67,7.18,7.18,0,0,0-.48-1.33,5,5,0,0,0-.67-1,3.51,3.51,0,0,0-.79-.72,2.18,2.18,0,0,0-.86-.35,1.88,1.88,0,0,0-.75,0,1.84,1.84,0,0,0-.92.58,2.79,2.79,0,0,0-.57,1.05,4.49,4.49,0,0,0-.18,1.42A6.22,6.22,0,0,0,9.41,26Z"/><path class="cls-1" d="M17.38,30.77l1.44-8.91,5.87.95-.3,1.86a5.54,5.54,0,0,0-.39-.74,2,2,0,0,0-1.09-.88,5,5,0,0,0-.87-.22l-1.47-.22a.34.34,0,0,0-.15.22,1.57,1.57,0,0,0-.06.28l-.51,3.17,1,.16a1.85,1.85,0,0,0,.72-.05,1.33,1.33,0,0,0,.71-.38l.12,0-.33,2H22a6.46,6.46,0,0,0-.38-.58,3.78,3.78,0,0,0-.4-.4.92.92,0,0,0-.44-.24l-1-.16L19.08,31Z"/><path class="cls-1" d="M24.63,31.94,26.07,23l5.87.95-.3,1.86a6.23,6.23,0,0,0-.39-.74,2,2,0,0,0-1.09-.88,4.27,4.27,0,0,0-.87-.21l-1.47-.23a.36.36,0,0,0-.15.23,1.27,1.27,0,0,0-.06.28l-.51,3.16,1,.16a2,2,0,0,0,.72,0,1.42,1.42,0,0,0,.71-.39l.12,0-.33,2h-.06a6.46,6.46,0,0,0-.38-.58,3.78,3.78,0,0,0-.4-.4A.82.82,0,0,0,28,28l-1-.17-.71,4.39Z"/><path class="cls-2" d="M19.91,39.81a20.48,20.48,0,0,1-3.19-.26A19.9,19.9,0,1,1,39.55,23.08l-.26,0,.26,0A19.94,19.94,0,0,1,19.91,39.81ZM19.86.51A19.4,19.4,0,1,0,23,.76,19.64,19.64,0,0,0,19.86.51Z"/></g></g></svg>