<svg xmlns="http://www.w3.org/2000/svg" viewBox="0 0 113.4 34.59"><defs><style>.cls-1{fill:#ff5100;}.cls-2{fill:#f8f5f2;}</style></defs><g id="Layer_2" data-name="Layer 2"><g id="Layer_1-2" data-name="Layer 1"><path class="cls-1" d="M94.18,34.59h-75C8.61,34.59,0,26.85,0,17.3H0C0,7.74,8.61,0,19.22,0h75c10.61,0,19.22,7.74,19.22,17.3h0C113.4,26.85,104.79,34.59,94.18,34.59Z"/><path class="cls-2" d="M17.48,16.16a3.51,3.51,0,0,1-3.27-2,4.92,4.92,0,0,1-.49-2.28,5,5,0,0,1,.49-2.3,3.61,3.61,0,0,1,1.34-1.47,3.84,3.84,0,0,1,3.86,0,3.52,3.52,0,0,1,1.33,1.47,5,5,0,0,1,.49,2.3,4.93,4.93,0,0,1-.49,2.29,3.5,3.5,0,0,1-3.26,2Zm0-1.14a2.36,2.36,0,0,0,1.29-.36,2.48,2.48,0,0,0,.89-1.06A4,4,0,0,0,20,11.89a4,4,0,0,0-.32-1.72,2.48,2.48,0,0,0-.89-1.06,2.36,2.36,0,0,0-1.29-.36,2.31,2.31,0,0,0-1.28.36,2.43,2.43,0,0,0-.9,1.06A4,4,0,0,0,15,11.89a4,4,0,0,0,.33,1.71,2.43,2.43,0,0,0,.9,1.06A2.31,2.31,0,0,0,17.48,15Z"/><path class="cls-2" d="M23.43,12.34v3.71H22.22V9.8h1.17v1h.09a1.75,1.75,0,0,1,.66-.81,2.06,2.06,0,0,1,1.16-.3,2.34,2.34,0,0,1,1.12.26,1.8,1.8,0,0,1,.74.8,2.81,2.81,0,0,1,.27,1.3v4H26.22V12.22a1.5,1.5,0,0,0-.36-1.06,1.24,1.24,0,0,0-1-.39,1.44,1.44,0,0,0-.75.19,1.27,1.27,0,0,0-.52.53A1.72,1.72,0,0,0,23.43,12.34Z"/><path class="cls-2" d="M31.5,9.8v1H28.09v-1ZM29,8.31h1.22v5.91a1,1,0,0,0,.17.63A.77.77,0,0,0,31,15h.21l.22,0,.23,1a2.47,2.47,0,0,1-.41.09,3.11,3.11,0,0,1-.43,0,1.84,1.84,0,0,1-1.3-.45A1.58,1.58,0,0,1,29,14.46Z"/><path class="cls-2" d="M34.63,16.17a2.42,2.42,0,0,1-1.35-.39,2.57,2.57,0,0,1-.93-1.11A4.14,4.14,0,0,1,32,12.94a4,4,0,0,1,.34-1.74,2.6,2.6,0,0,1,.93-1.1,2.49,2.49,0,0,1,1.34-.38,2,2,0,0,1,.95.19,1.8,1.8,0,0,1,.55.45,3.1,3.1,0,0,1,.31.46h.07V7.72h1.21v8.33H36.54v-1h-.1a3,3,0,0,1-.32.45,1.85,1.85,0,0,1-.56.45A1.92,1.92,0,0,1,34.63,16.17Zm.27-1a1.41,1.41,0,0,0,.89-.28,1.81,1.81,0,0,0,.55-.78,3.58,3.58,0,0,0,0-2.3,1.65,1.65,0,0,0-.55-.76,1.45,1.45,0,0,0-.89-.27A1.42,1.42,0,0,0,34,11a1.66,1.66,0,0,0-.55.78,3,3,0,0,0-.19,1.11,3.12,3.12,0,0,0,.19,1.13,1.74,1.74,0,0,0,.55.79A1.44,1.44,0,0,0,34.9,15.14Z"/><path class="cls-2" d="M41.57,16.18a3,3,0,0,1-1.59-.4,2.66,2.66,0,0,1-1-1.12A3.76,3.76,0,0,1,38.59,13a4,4,0,0,1,.35-1.7,2.74,2.74,0,0,1,1-1.14,2.77,2.77,0,0,1,1.51-.41,3.22,3.22,0,0,1,1,.17,2.54,2.54,0,0,1,.9.55,2.72,2.72,0,0,1,.63,1,4.12,4.12,0,0,1,.23,1.45v.43h-5v-.91h4.34l-.56.3a2.73,2.73,0,0,0-.18-1,1.6,1.6,0,0,0-.53-.69,1.55,1.55,0,0,0-.89-.24,1.51,1.51,0,0,0-.89.25,1.65,1.65,0,0,0-.57.66,2.13,2.13,0,0,0-.2.91v.62A2.41,2.41,0,0,0,40,14.26a1.52,1.52,0,0,0,.62.68,1.79,1.79,0,0,0,.93.24,2.08,2.08,0,0,0,.63-.1,1.44,1.44,0,0,0,.49-.3,1.28,1.28,0,0,0,.31-.5l1.16.22a2.15,2.15,0,0,1-.5.88,2.39,2.39,0,0,1-.88.59A3.32,3.32,0,0,1,41.57,16.18Z"/><path class="cls-2" d="M45.1,16.05V7.72h1.21v8.33Zm1.12-2.12,0-1.48h.22L48.91,9.8h1.45l-2.83,3h-.2ZM49,16.05l-2.24-3,.84-.86,2.9,3.82Z"/><path class="cls-2" d="M55.87,16.17a2.38,2.38,0,0,1-1.35-.39,2.44,2.44,0,0,1-.93-1.11,4,4,0,0,1-.34-1.73,4,4,0,0,1,.34-1.74,2.55,2.55,0,0,1,.94-1.1,2.44,2.44,0,0,1,1.34-.38,2,2,0,0,1,.94.19,1.85,1.85,0,0,1,.56.45,3,3,0,0,1,.3.46h.07V7.72H59v8.33H57.77v-1h-.1a3.7,3.7,0,0,1-.31.45,1.81,1.81,0,0,1-1.49.64Zm.26-1a1.39,1.39,0,0,0,.89-.28,1.73,1.73,0,0,0,.55-.78,3.12,3.12,0,0,0,.19-1.15,3.12,3.12,0,0,0-.19-1.15A1.7,1.7,0,0,0,57,11a1.48,1.48,0,0,0-.9-.27,1.44,1.44,0,0,0-.91.29,1.73,1.73,0,0,0-.55.78,3.19,3.19,0,0,0-.18,1.11,3.35,3.35,0,0,0,.18,1.13,1.82,1.82,0,0,0,.55.79A1.46,1.46,0,0,0,56.13,15.14Z"/><path class="cls-2" d="M62.81,16.18a3,3,0,0,1-1.59-.4,2.62,2.62,0,0,1-1-1.12A3.76,3.76,0,0,1,59.82,13a3.83,3.83,0,0,1,.36-1.7,2.72,2.72,0,0,1,1-1.14,2.81,2.81,0,0,1,1.52-.41,3.27,3.27,0,0,1,1,.17,2.5,2.5,0,0,1,.89.55,2.48,2.48,0,0,1,.63,1,3.91,3.91,0,0,1,.23,1.45v.43h-5v-.91h4.35l-.57.3a2.73,2.73,0,0,0-.18-1,1.4,1.4,0,0,0-1.41-.93,1.56,1.56,0,0,0-.9.25,1.65,1.65,0,0,0-.57.66,2.12,2.12,0,0,0-.19.91v.62a2.41,2.41,0,0,0,.22,1.09,1.58,1.58,0,0,0,.62.68,1.8,1.8,0,0,0,.94.24,2.08,2.08,0,0,0,.63-.1,1.54,1.54,0,0,0,.49-.3,1.41,1.41,0,0,0,.31-.5l1.15.22a2.13,2.13,0,0,1-.49.88A2.43,2.43,0,0,1,64,16,3.27,3.27,0,0,1,62.81,16.18Z"/><path class="cls-2" d="M71.51,16.18a3,3,0,0,1-1.54-.4,2.77,2.77,0,0,1-1-1.13A3.66,3.66,0,0,1,68.59,13,3.71,3.71,0,0,1,69,11.25a2.77,2.77,0,0,1,1-1.13,2.86,2.86,0,0,1,4.1,1.13A3.84,3.84,0,0,1,74.43,13a3.79,3.79,0,0,1-.36,1.69,2.87,2.87,0,0,1-1,1.13A3,3,0,0,1,71.51,16.18Zm0-1a1.48,1.48,0,0,0,.95-.31,1.87,1.87,0,0,0,.56-.8A3.2,3.2,0,0,0,73.2,13,3.27,3.27,0,0,0,73,11.85a1.9,1.9,0,0,0-.56-.81,1.48,1.48,0,0,0-.95-.3,1.43,1.43,0,0,0-.94.3,1.82,1.82,0,0,0-.56.81A3.27,3.27,0,0,0,69.83,13,3.2,3.2,0,0,0,70,14.05a1.79,1.79,0,0,0,.56.8A1.44,1.44,0,0,0,71.51,15.16Z"/><path class="cls-2" d="M75.3,18.39V9.8h1.18v1h.1a2.47,2.47,0,0,1,.31-.46,1.8,1.8,0,0,1,.55-.45,2,2,0,0,1,.94-.19,2.44,2.44,0,0,1,1.34.38,2.47,2.47,0,0,1,.93,1.1A4,4,0,0,1,81,12.94a4.14,4.14,0,0,1-.34,1.73,2.44,2.44,0,0,1-.93,1.11,2.38,2.38,0,0,1-1.35.39,1.93,1.93,0,0,1-.92-.19,1.89,1.89,0,0,1-.57-.45,3.7,3.7,0,0,1-.31-.45h-.07v3.31Zm2.82-3.25a1.46,1.46,0,0,0,.91-.29,1.91,1.91,0,0,0,.55-.79,3.35,3.35,0,0,0,.19-1.13,3.19,3.19,0,0,0-.19-1.11A1.73,1.73,0,0,0,79,11a1.42,1.42,0,0,0-.91-.29,1.45,1.45,0,0,0-.89.27,1.74,1.74,0,0,0-.56.76,3.35,3.35,0,0,0-.18,1.15,3.12,3.12,0,0,0,.19,1.15,1.73,1.73,0,0,0,.55.78A1.41,1.41,0,0,0,78.12,15.14Z"/><path class="cls-2" d="M84.78,9.8v1H81.37v-1Zm-2.5-1.49H83.5v5.91a1,1,0,0,0,.17.63.77.77,0,0,0,.58.19h.21l.22,0,.23,1a2.47,2.47,0,0,1-.41.09,3.11,3.11,0,0,1-.43,0,1.84,1.84,0,0,1-1.3-.45,1.58,1.58,0,0,1-.49-1.22Z"/><path class="cls-2" d="M86.26,8.83a.76.76,0,0,1-.54-.21.68.68,0,0,1,0-1,.8.8,0,0,1,1.08,0,.68.68,0,0,1,0,1A.76.76,0,0,1,86.26,8.83Zm-.61,7.22V9.8h1.21v6.25Z"/><path class="cls-2" d="M90.71,16.18a3,3,0,0,1-1.59-.4,2.66,2.66,0,0,1-1-1.12A3.76,3.76,0,0,1,87.73,13a3.83,3.83,0,0,1,.36-1.7,2.65,2.65,0,0,1,1-1.14,2.78,2.78,0,0,1,1.52-.41,3.21,3.21,0,0,1,1,.17,2.46,2.46,0,0,1,.9.55,2.72,2.72,0,0,1,.63,1,4.12,4.12,0,0,1,.23,1.45v.43h-5v-.91h4.34l-.56.3a2.73,2.73,0,0,0-.18-1,1.6,1.6,0,0,0-.53-.69,1.74,1.74,0,0,0-1.78,0,1.65,1.65,0,0,0-.57.66,2.13,2.13,0,0,0-.2.91v.62a2.41,2.41,0,0,0,.23,1.09,1.52,1.52,0,0,0,.62.68,1.79,1.79,0,0,0,.93.24,2.08,2.08,0,0,0,.63-.1,1.44,1.44,0,0,0,.49-.3,1.28,1.28,0,0,0,.31-.5l1.16.22a2.15,2.15,0,0,1-.5.88,2.39,2.39,0,0,1-.88.59A3.32,3.32,0,0,1,90.71,16.18Z"/><path class="cls-2" d="M98.92,11.33l-1.1.19a1.45,1.45,0,0,0-.4-.58,1.26,1.26,0,0,0-.86-.26,1.55,1.55,0,0,0-.86.23.69.69,0,0,0-.34.59.65.65,0,0,0,.23.51,1.84,1.84,0,0,0,.74.32l1,.22a2.64,2.64,0,0,1,1.29.61A1.46,1.46,0,0,1,99,14.24a1.66,1.66,0,0,1-.32,1,2.26,2.26,0,0,1-.9.69,3.3,3.3,0,0,1-1.34.25,3,3,0,0,1-1.71-.45A1.92,1.92,0,0,1,94,14.45l1.17-.18a1.16,1.16,0,0,0,.46.7,1.59,1.59,0,0,0,.89.23,1.62,1.62,0,0,0,1-.25.73.73,0,0,0,.36-.61c0-.4-.29-.66-.88-.8l-1.06-.24a2.52,2.52,0,0,1-1.29-.63,1.5,1.5,0,0,1-.42-1.09,1.59,1.59,0,0,1,.31-1,2,2,0,0,1,.86-.65,3.22,3.22,0,0,1,1.24-.23,2.62,2.62,0,0,1,1.6.44A2.11,2.11,0,0,1,98.92,11.33Z"/><path class="cls-2" d="M35.27,27.23a3,3,0,0,1-1.59-.4,2.6,2.6,0,0,1-1-1.12A3.76,3.76,0,0,1,32.29,24a3.83,3.83,0,0,1,.35-1.7,2.72,2.72,0,0,1,1-1.14,2.81,2.81,0,0,1,1.52-.41,3.22,3.22,0,0,1,1,.17,2.5,2.5,0,0,1,.89.55,2.48,2.48,0,0,1,.63,1A3.89,3.89,0,0,1,38,23.91v.43H33v-.91h4.35l-.57.3a2.73,2.73,0,0,0-.17-1A1.61,1.61,0,0,0,34.26,22a1.63,1.63,0,0,0-.56.66,2,2,0,0,0-.2.91v.62a2.41,2.41,0,0,0,.22,1.09,1.54,1.54,0,0,0,.63.68,1.74,1.74,0,0,0,.93.24,2.08,2.08,0,0,0,.63-.1,1.44,1.44,0,0,0,.49-.3,1.41,1.41,0,0,0,.31-.5l1.15.22a2.13,2.13,0,0,1-.49.88,2.35,2.35,0,0,1-.89.59A3.27,3.27,0,0,1,35.27,27.23Z"/><path class="cls-2" d="M40,23.39V27.1H38.8V20.85H40v1h.09a1.75,1.75,0,0,1,.66-.81,2.06,2.06,0,0,1,1.16-.3A2.34,2.34,0,0,1,43,21a1.8,1.8,0,0,1,.74.8,2.81,2.81,0,0,1,.27,1.3v4H42.8V23.27a1.5,1.5,0,0,0-.36-1.06,1.24,1.24,0,0,0-1-.39,1.44,1.44,0,0,0-.75.19,1.35,1.35,0,0,0-.53.53A1.84,1.84,0,0,0,40,23.39Z"/><path class="cls-2" d="M47.72,29.44V20.85H48.9v1H49a3.1,3.1,0,0,1,.31-.46,1.73,1.73,0,0,1,.56-.45,2,2,0,0,1,.93-.19,2.5,2.5,0,0,1,1.35.38,2.6,2.6,0,0,1,.93,1.1A4.15,4.15,0,0,1,53.42,24a4,4,0,0,1-.34,1.73,2.54,2.54,0,0,1-.92,1.11,2.42,2.42,0,0,1-1.35.39,2,2,0,0,1-.93-.19,1.73,1.73,0,0,1-.56-.45,3,3,0,0,1-.32-.45h-.07v3.31Zm2.82-3.25a1.42,1.42,0,0,0,.91-.29,1.82,1.82,0,0,0,.55-.79A3.12,3.12,0,0,0,52.19,24,3,3,0,0,0,52,22.87a1.71,1.71,0,0,0-.54-.78,1.47,1.47,0,0,0-.92-.29,1.45,1.45,0,0,0-.89.27,1.72,1.72,0,0,0-.55.76,3.58,3.58,0,0,0,0,2.3,1.75,1.75,0,0,0,.56.78A1.38,1.38,0,0,0,50.54,26.19Z"/><path class="cls-2" d="M54.3,27.1V20.85h1.17v1h.06a1.57,1.57,0,0,1,.61-.8,1.76,1.76,0,0,1,1-.29h.52V22a1.7,1.7,0,0,0-.26-.05l-.38,0a1.59,1.59,0,0,0-.77.18,1.34,1.34,0,0,0-.53.5,1.38,1.38,0,0,0-.2.73V27.1Z"/><path class="cls-2" d="M58.83,19.88a.75.75,0,0,1-.54-.21.68.68,0,0,1,0-1,.75.75,0,0,1,.54-.21.76.76,0,0,1,.54.21.7.7,0,0,1,0,1A.76.76,0,0,1,58.83,19.88Zm-.61,7.22V20.85h1.21V27.1Z"/><path class="cls-2" d="M60.59,20.85H61.8v6.66a2.16,2.16,0,0,1-.23,1.06,1.51,1.51,0,0,1-.67.65,2.34,2.34,0,0,1-1.08.22h-.25V28.39h.2a.73.73,0,0,0,.62-.23,1,1,0,0,0,.2-.66Zm.6-1a.75.75,0,0,1-.54-.21.68.68,0,0,1,0-1,.75.75,0,0,1,.54-.21.76.76,0,0,1,.54.21.7.7,0,0,1,0,1A.76.76,0,0,1,61.19,19.88Z"/><path class="cls-2" d="M62.83,27.1v-.83L66.21,22V21.9H62.94v-1h4.79v.89L64.47,26V26h3.37V27.1Z"/><path class="cls-2" d="M71.31,27.23a3,3,0,0,1-1.59-.4,2.6,2.6,0,0,1-1-1.12A3.76,3.76,0,0,1,68.33,24a3.83,3.83,0,0,1,.35-1.7,2.72,2.72,0,0,1,1-1.14,2.81,2.81,0,0,1,1.52-.41,3.22,3.22,0,0,1,1,.17,2.5,2.5,0,0,1,.89.55,2.48,2.48,0,0,1,.63,1A3.89,3.89,0,0,1,74,23.91v.43H69v-.91h4.35l-.57.3a2.73,2.73,0,0,0-.17-1A1.61,1.61,0,0,0,70.3,22a1.63,1.63,0,0,0-.56.66,2,2,0,0,0-.2.91v.62a2.41,2.41,0,0,0,.22,1.09,1.54,1.54,0,0,0,.63.68,1.74,1.74,0,0,0,.93.24,2.08,2.08,0,0,0,.63-.1,1.44,1.44,0,0,0,.49-.3,1.41,1.41,0,0,0,.31-.5l1.15.22a2.13,2.13,0,0,1-.49.88,2.35,2.35,0,0,1-.89.59A3.27,3.27,0,0,1,71.31,27.23Z"/><path class="cls-2" d="M76,23.39V27.1h-1.2V20.85H76v1h.09a1.75,1.75,0,0,1,.66-.81,2.06,2.06,0,0,1,1.16-.3A2.34,2.34,0,0,1,79,21a1.8,1.8,0,0,1,.74.8,2.81,2.81,0,0,1,.27,1.3v4H78.84V23.27a1.5,1.5,0,0,0-.36-1.06,1.24,1.24,0,0,0-1-.39,1.44,1.44,0,0,0-.75.19,1.35,1.35,0,0,0-.53.53A1.84,1.84,0,0,0,76,23.39Z"/></g></g></svg>