<svg xmlns="http://www.w3.org/2000/svg" xmlns:xlink="http://www.w3.org/1999/xlink" viewBox="0 0 165.56 53.81"><defs><style>.cls-1{fill:url(#linear-gradient);}.cls-2{fill:#fff;}</style><linearGradient id="linear-gradient" x1="3.66" y1="-2447.83" x2="165.25" y2="-2502.36" gradientTransform="matrix(1, 0, 0, -1, 0, -2447.62)" gradientUnits="userSpaceOnUse"><stop offset="0" stop-color="#ed2e26"/><stop offset="1" stop-color="#de241d"/></linearGradient></defs><g id="Layer_2" data-name="Layer 2"><g id="Layer_1-2" data-name="Layer 1"><path class="cls-1" d="M26.9,0H138.66a26.91,26.91,0,0,1,26.9,26.9h0a26.91,26.91,0,0,1-26.9,26.91H26.9A26.91,26.91,0,0,1,0,26.9H0A26.91,26.91,0,0,1,26.9,0Z"/><path class="cls-2" d="M29.85,34.6V20.86h3v11h6.85V34.6Zm16.24.23a5.26,5.26,0,0,1-5.5-5.43v0a5.24,5.24,0,0,1,5.2-5.48c3.51,0,5.12,2.73,5.12,5.71,0,.24,0,.52,0,.79H43.55a2.45,2.45,0,0,0,2.57,2.06,3.44,3.44,0,0,0,2.56-1.08l1.7,1.51A5.24,5.24,0,0,1,46.09,34.83Zm-2.58-6.31H48a2.26,2.26,0,0,0-2.22-2.24A2.35,2.35,0,0,0,43.51,28.52Zm12.22,6.27c-2,0-3.62-1.13-3.62-3.21v0c0-2.3,1.75-3.36,4.24-3.36a7.57,7.57,0,0,1,2.57.43v-.17c0-1.24-.76-1.93-2.25-1.93a7.82,7.82,0,0,0-2.91.57L53,24.81A9.26,9.26,0,0,1,57.1,24a4.86,4.86,0,0,1,3.55,1.18,4.57,4.57,0,0,1,1.14,3.36v6.1H58.9V33.46A4,4,0,0,1,55.73,34.79Zm.9-2.06C58,32.73,59,32,59,30.89v-.53a4.52,4.52,0,0,0-1.9-.39c-1.28,0-2.06.51-2.06,1.45v0C55,32.26,55.67,32.73,56.63,32.73ZM64,34.6V24.08h3V26.2a3.26,3.26,0,0,1,3.35-2.32V27h-.16c-2,0-3.19,1.2-3.19,3.71V34.6Zm7.81,0V24.08h3v1.49a3.74,3.74,0,0,1,3.09-1.69c2.25,0,3.57,1.5,3.57,3.91V34.6h-3V28.73c0-1.41-.66-2.14-1.8-2.14s-1.87.73-1.87,2.14V34.6Zm17.64,0V20.86h3.26l3.61,5.81,3.61-5.81h3.26V34.6h-3v-9L96.28,31.5H96.2l-3.83-5.81V34.6Zm21.49.23a5.46,5.46,0,0,1-5.67-5.43v0a5.69,5.69,0,0,1,11.38,0v0A5.52,5.52,0,0,1,110.9,34.83Zm0-2.57a2.69,2.69,0,0,0,2.73-2.86v0a2.79,2.79,0,0,0-2.77-2.9,2.69,2.69,0,0,0-2.73,2.86v0A2.79,2.79,0,0,0,110.94,32.26Zm7.44,2.34V24.08h3V26.2a3.27,3.27,0,0,1,3.36-2.32V27h-.16c-2,0-3.2,1.2-3.2,3.71V34.6Zm12.5.23a5.25,5.25,0,0,1-5.49-5.43v0a5.24,5.24,0,0,1,5.2-5.48c3.51,0,5.12,2.73,5.12,5.71,0,.24,0,.52,0,.79h-7.32a2.45,2.45,0,0,0,2.57,2.06,3.42,3.42,0,0,0,2.55-1.08l1.71,1.51A5.24,5.24,0,0,1,130.88,34.83Zm-2.57-6.31h4.5a2.26,2.26,0,0,0-2.22-2.24A2.35,2.35,0,0,0,128.31,28.52Z"/></g></g></svg>