<svg xmlns="http://www.w3.org/2000/svg" viewBox="0 0 264 113.06"><defs><style>.cls-1{fill:#ba2030;}.cls-2{fill:#225733;}.cls-3{fill:#010101;}</style></defs><g id="Layer_2" data-name="Layer 2"><g id="Layer_1-2" data-name="Layer 1"><path class="cls-1" d="M53.88,32.07c-1.05.2-5.42,1-10.86,1.79a.19.19,0,0,1-.22-.2v-6a.2.2,0,0,1,.17-.2c5.61-.76,10.1-1.64,11-1.82a.2.2,0,0,0,.16-.2v-6a.21.21,0,0,0-.24-.2c-1.05.21-5.42,1.06-10.86,1.8a.2.2,0,0,1-.22-.2v-2a.2.2,0,0,0-.25-.19c-5.34,1.37-8.73.21-14.45,2.9a.17.17,0,0,1-.17,0c-5.72-2.69-9.1-1.53-14.44-2.9a.21.21,0,0,0-.26.19v2a.2.2,0,0,1-.22.2c-5.44-.74-9.82-1.59-10.86-1.8a.2.2,0,0,0-.24.2v6a.2.2,0,0,0,.16.2c.89.18,5.39,1.05,11,1.81a.2.2,0,0,1,.17.2v6a.19.19,0,0,1-.22.2c-5.44-.74-9.82-1.58-10.86-1.79a.19.19,0,0,0-.24.19v6a.19.19,0,0,0,.17.19,182.09,182.09,0,0,0,18.87,2.69c2.64.3,4,.57,5.81,1.68l1.15.71a.2.2,0,0,0,.21,0l1.16-.71A12,12,0,0,1,35,41.13a183.82,183.82,0,0,0,19-2.71.12.12,0,0,0,.09-.11V32.26A.2.2,0,0,0,53.88,32.07ZM40.39,21.69V37.93a.2.2,0,0,1-.17.2c-6.49.84-8.81.57-12.11,2.56a.18.18,0,0,1-.2,0c-3.3-2-5.62-1.72-12.11-2.56a.2.2,0,0,1-.17-.2V21.69a.2.2,0,0,1,.23-.2c3.46.53,7.65,0,12.05,2.63a.18.18,0,0,0,.2,0c4.4-2.6,8.59-2.1,12-2.63A.2.2,0,0,1,40.39,21.69Z"/><path class="cls-2" d="M26.94,11.47l.88-2.61a.2.2,0,0,1,.38,0l.88,2.61a.18.18,0,0,0,.19.14l2.74,0a.2.2,0,0,1,.12.36l-2.21,1.63a.22.22,0,0,0-.07.22l.83,2.63a.2.2,0,0,1-.31.23l-2.24-1.6a.21.21,0,0,0-.24,0L25.65,16.7a.2.2,0,0,1-.31-.22l.83-2.63a.19.19,0,0,0-.07-.22L23.89,12a.2.2,0,0,1,.12-.36l2.75,0A.18.18,0,0,0,26.94,11.47ZM9.67,10l.9-2.6a.2.2,0,0,1,.38,0l.9,2.6a.21.21,0,0,0,.19.13l2.74.06a.2.2,0,0,1,.12.36l-2.19,1.66a.19.19,0,0,0-.07.21l.8,2.63a.21.21,0,0,1-.31.23l-2.26-1.57a.18.18,0,0,0-.22,0L8.39,15.25A.21.21,0,0,1,8.08,15l.8-2.63a.19.19,0,0,0-.07-.21L6.62,10.52a.2.2,0,0,1,.12-.36l2.74-.06A.21.21,0,0,0,9.67,10Zm34.5,0,.9-2.6a.2.2,0,0,1,.38,0l.9,2.6a.21.21,0,0,0,.19.13l2.74.06a.2.2,0,0,1,.12.36l-2.19,1.66a.19.19,0,0,0-.07.21l.8,2.63a.21.21,0,0,1-.31.23l-2.26-1.57a.18.18,0,0,0-.22,0l-2.26,1.57a.21.21,0,0,1-.31-.23l.8-2.63a.19.19,0,0,0-.07-.21l-2.19-1.66a.2.2,0,0,1,.12-.36L44,10.1A.21.21,0,0,0,44.17,10ZM26,49.78a11.67,11.67,0,0,0,1.25,4.33s-.05.08-.07,0S26,51.42,24.13,51.42a1.89,1.89,0,0,0-2,1.79,1.07,1.07,0,0,0,.9,1.15.84.84,0,0,0,.89-.76.23.23,0,0,1,.1-.15c.17-.09.58-.2,1.35.15a6.51,6.51,0,0,1,2.09,2.11.15.15,0,0,1,0,.2l-.32.34a.66.66,0,0,0,0,.93l.74.74a.19.19,0,0,0,.28,0l.73-.74a.64.64,0,0,0,0-.93l-.32-.34a.15.15,0,0,1,0-.2,6.51,6.51,0,0,1,2.09-2.11c.77-.35,1.18-.24,1.35-.15a.23.23,0,0,1,.1.15.84.84,0,0,0,.89.76,1.07,1.07,0,0,0,.9-1.15,1.89,1.89,0,0,0-2-1.79c-1.87,0-3.05,2.72-3.05,2.72s-.09,0-.07,0A12.08,12.08,0,0,0,30,49.78c0-1.37-1.42-2.87-1.87-3.31a.19.19,0,0,0-.28,0C27.41,46.9,26,48.35,26,49.78ZM43.68,45.2a9.27,9.27,0,0,0,1,3.4s0,.06-.06,0-.92-2.13-2.38-2.13a1.48,1.48,0,0,0-1.56,1.4.85.85,0,0,0,.7.91.66.66,0,0,0,.7-.58.17.17,0,0,1,.12-.15,1.25,1.25,0,0,1,1,.13,5.13,5.13,0,0,1,1.64,1.66.14.14,0,0,1,0,.16l-.25.26a.52.52,0,0,0,0,.73l.55.55a.19.19,0,0,0,.28,0L46,51a.51.51,0,0,0,0-.73L45.7,50a.16.16,0,0,1,0-.16,5.25,5.25,0,0,1,1.64-1.66,1.27,1.27,0,0,1,1-.13.17.17,0,0,1,.12.15.66.66,0,0,0,.7.58.85.85,0,0,0,.7-.91,1.48,1.48,0,0,0-1.56-1.4c-1.46,0-2.39,2.13-2.39,2.13s-.07,0,0,0a9.62,9.62,0,0,0,1-3.4,4.47,4.47,0,0,0-1.44-2.57.19.19,0,0,0-.28,0A4.26,4.26,0,0,0,43.68,45.2Zm-34.5,0a9.27,9.27,0,0,0,1,3.4s0,.06-.06,0-.92-2.13-2.38-2.13a1.48,1.48,0,0,0-1.56,1.4.85.85,0,0,0,.7.91.66.66,0,0,0,.7-.58.17.17,0,0,1,.12-.15,1.25,1.25,0,0,1,1,.13,5.13,5.13,0,0,1,1.64,1.66.14.14,0,0,1,0,.16l-.25.26a.52.52,0,0,0,0,.73l.55.55a.19.19,0,0,0,.28,0l.55-.55a.51.51,0,0,0,0-.73L11.2,50a.16.16,0,0,1,0-.16,5.25,5.25,0,0,1,1.64-1.66,1.27,1.27,0,0,1,1-.13.17.17,0,0,1,.12.15.66.66,0,0,0,.7.58.85.85,0,0,0,.7-.91,1.48,1.48,0,0,0-1.56-1.4c-1.46,0-2.39,2.13-2.39,2.13s-.07,0-.05,0a9.62,9.62,0,0,0,1-3.4,4.47,4.47,0,0,0-1.44-2.57.19.19,0,0,0-.28,0A4.26,4.26,0,0,0,9.18,45.2ZM56,.23a.21.21,0,0,0-.24-.2A151,151,0,0,1,28,3.15,139.84,139.84,0,0,1,.25,0,.2.2,0,0,0,0,.2C0,3.59,0,40.35,0,47.28,0,54.54,6.88,56.41,27.94,64h.14C49.14,56.41,56,54.54,56,47.28ZM53.62,46.31c0,6.64-6.29,8.34-25.54,15.27a.17.17,0,0,1-.14,0C8.69,54.65,2.4,53,2.4,46.31V3.22A.21.21,0,0,1,2.64,3C4.58,3.4,17.81,5.92,28,5.92c9.62,0,23.39-2.5,25.37-2.87a.21.21,0,0,1,.24.2Z"/><path class="cls-3" d="M147.45,48.41c0-3.61,0-13,0-14.8,0-3.89.24-11.93-12.46-11.93-4.31,0-9.19,1.56-11.65,4.9s-1.09,7.22,1.55,7.22a3.79,3.79,0,0,0,4-3.8,4.86,4.86,0,0,1,5.18-5.11c2.52,0,5.85,1.83,5.85,4.74,0,.58,0,3.6,0,3.6s-10.83,2.73-14,4.44-5.67,4.29-5.67,9.26,3.2,9.07,9.19,9.07A19.5,19.5,0,0,0,140,52.56c.3,1.25,1.33,2.72,4.44,2.88h5.88v-2.5C148.17,52.94,147.45,52.45,147.45,48.41Zm-7.52.63a12.16,12.16,0,0,1-6.5,1.85c-3.89,0-5.59-2.22-5.59-4.9,0-3.65,2.78-5.64,4.83-6.68a70.78,70.78,0,0,1,7.26-2.56Zm41.71-3.24C181.64,52.18,175.1,56,169,56s-9.31-1.35-10.3-1.35a1.06,1.06,0,0,0-1.13.82h-2.49V43.57h2.49c.85,2.6,3.47,9.44,10.79,9.44,3.49,0,6.48-1.36,6.48-4.33,0-3.86-4.25-5.08-8.35-6.91s-11.44-4.09-11.44-10.4c0-6.54,7.09-9.69,13.27-9.69a28.09,28.09,0,0,1,8.08,1.38.5.5,0,0,0,.42-.22h2.32v9.25h-2.51c-.3-.6-2.5-7.51-8.62-7.51-2.51,0-5.53,1.26-5.53,4.08,0,3.29,4.54,4.94,8.93,6.81S181.64,40.1,181.64,45.8ZM128,8a41.58,41.58,0,0,1-13.45,0v2.53h1.61c1.39,0,3.79-.3,2.32,4.31-1.26,4-8.5,27.27-8.5,27.27S102.31,18,101.12,14.2s2.38-3.67,3.39-3.67V8A54.24,54.24,0,0,1,87,8s0,2.52,0,2.53c1.23,0,3.81-.56,5.63,5.07,1.88,5.81,3,9.33,3,9.33L88.4,43.61s-8.48-23.29-10-27.49c-1.34-3.79.07-5.58,1.41-5.58h1.65V8A54.3,54.3,0,0,1,64,8v2.53c2.38-.19,3.94.44,5.54,4.9S84,56,84,56h3.22L97.35,30l8.52,26h3.38s12.1-39,13-41.59,2.42-3.88,4.46-3.88H128Zm67.32,18a14.69,14.69,0,0,1,10.45-4.4c7.64,0,10.78,4.93,10.78,10.14,0,7.08,0,16.26,0,16.29v0c0,2.19.35,3.7,1,4.3s1.13.56,2.71.56v2.5H205.4v-2.5c1.11,0,2,.14,2.69-.56s1-2.12,1-4.31c0,0,0-11.86,0-16.21,0-3.83-2.51-5.78-5.17-5.78a10,10,0,0,0-8.5,4.92l0,17.07c0,2.19.28,3.63,1,4.3s1.38.57,2.69.57v2.5H184.15v-2.5c1.06,0,2,.14,2.7-.56s1-2.12,1-4.31V16c0-5.39-.67-5.53-3.81-5.53V8a34.26,34.26,0,0,0,11.34,0ZM264,8a40.48,40.48,0,0,1-13.36,0v2.5c2,0,5-.75,5,5.57V39.35c0,7.74-4.86,12.94-12.74,12.94-11.74,0-11.7-10.77-11.7-16.94V16.07c0-6.08,1.74-5.57,4.17-5.57V8a49.76,49.76,0,0,1-16.56,0v2.5c2.44,0,4.16-.57,4.16,5.57,0,.27.05,14.62.05,19.28,0,14.09,5.45,20.55,19.88,20.55,7.44,0,16.35-4.21,16.35-17.44,0-2.42,0-16.43,0-22.39s2.31-5.57,4.72-5.57Z"/><path class="cls-1" d="M37.87,112.54V77.59H43.2L53.86,100.1,64.52,77.59h5.32v35H65.76V83.44l-10.27,21.7H52.23L42,83.44v29.1Zm38.79-12.05c0-7.64,4.08-12.58,11.13-12.58S98.4,93,98.4,101.49H80.5c.29,5.24,3,8.41,7.29,8.41a7.23,7.23,0,0,0,6.63-4l3.45,1.15a10.6,10.6,0,0,1-10.08,6C80.69,113.06,76.66,108.22,76.66,100.49Zm3.93-2.07H94.47C94.13,94,91.68,91,87.79,91S81.17,93.72,80.59,98.42Zm41.52,14.31a46.37,46.37,0,0,1-1-5,9.12,9.12,0,0,1-8.4,5.33c-6.43,0-10-4.84-10-12.57s3.55-12.58,10-12.58a9.12,9.12,0,0,1,8,4.61V77.59h4v26a33.93,33.93,0,0,0,1,8.69Zm-1.34-11.57V99.82c0-4.57-2.4-8.55-7.25-8.55-4.27,0-6.82,3.46-6.82,9.22s2.55,9.21,6.82,9.21C118.13,109.7,120.77,106,120.77,101.16Zm11.61-19.73a2.79,2.79,0,1,1,2.79,2.78A2.78,2.78,0,0,1,132.38,81.43Zm.82,31.11V88.39h3.94v24.15Zm10.27-12.05c0-7.64,4-12.58,11.14-12.58,4.8,0,8,2.59,9.17,5.71l-3.51,1a5.73,5.73,0,0,0-5.66-3.31c-4.61,0-7.2,3.46-7.2,9.22s2.54,9.21,7.1,9.21a6.47,6.47,0,0,0,6.05-3.5l3.31,1c-1.2,3.12-4.46,5.9-9.36,5.9C147.41,113.06,143.47,108.22,143.47,100.49Zm25.15-19.06a2.79,2.79,0,1,1,2.79,2.78A2.78,2.78,0,0,1,168.62,81.43Zm.82,31.11V88.39h3.94v24.15Zm12.29,0V88.39h3.45v4.9a9.33,9.33,0,0,1,8.55-5.38c4.7,0,7.63,2.83,7.63,9.17v15.46h-4V97.8c0-4.56-1.78-6.34-4.61-6.34a7,7,0,0,0-6.72,5.14,10.9,10.9,0,0,0-.39,3v12.92Zm25.2-12.05c0-7.64,4.08-12.58,11.13-12.58s10.61,5,10.61,13.58h-17.9c.29,5.24,3,8.41,7.29,8.41a7.23,7.23,0,0,0,6.63-4l3.46,1.15a10.62,10.62,0,0,1-10.09,6C211,113.06,206.93,108.22,206.93,100.49Zm3.93-2.07h13.88C224.4,94,222,91,218.06,91S211.44,93.72,210.86,98.42Z"/></g></g></svg>