<svg xmlns="http://www.w3.org/2000/svg" width="189.51" height="33.73" viewBox="0 0 189.51 33.73"><defs><style>.cls-1{fill:#ff7f00;}.cls-2{fill:#fff;}</style></defs><g id="Layer_2" data-name="Layer 2"><g id="Layer_1-2" data-name="Layer 1"><rect class="cls-1" width="189.51" height="33.73" rx="16.87"/><path class="cls-2" d="M29.93,17.43a.88.88,0,0,0-.06.33,1.54,1.54,0,0,1,0,.37,3.1,3.1,0,0,1-.06.39,2.74,2.74,0,0,0-.09.39.78.78,0,0,0,0,.14.62.62,0,0,1,0,.13l-.07.15a.78.78,0,0,0-.05.14,1.55,1.55,0,0,0,0,.31,1.27,1.27,0,0,1,0,.28.73.73,0,0,0-.1.21.23.23,0,0,1,0,.1c-.06.13-.14.26-.23.42a1.68,1.68,0,0,0-.16.46,1.45,1.45,0,0,1-.23.43l-.28.31-.27.26a2.09,2.09,0,0,0-.24.28.46.46,0,0,0-.17.09l-.12.11a.34.34,0,0,0-.2.1.27.27,0,0,1-.21.07.31.31,0,0,1-.11.09.31.31,0,0,0-.11.08l-.36.18a1.51,1.51,0,0,0-.28.15.25.25,0,0,0-.24,0,.72.72,0,0,1-.19.11.32.32,0,0,1-.17,0,.67.67,0,0,0-.22,0,.35.35,0,0,1-.2,0c-.05,0-.08,0-.11.06s-.19,0-.2,0,0,.05-.1,0l-.32,0a.4.4,0,0,0-.24.09h-.15l-.16,0-.1,0h-.1l-.18,0h-.08l-.11,0-.09,0-.22,0H23a.11.11,0,0,0-.11,0h-.08l-.12,0-.1-.05a1.31,1.31,0,0,0-.28,0,1.27,1.27,0,0,1-.28,0,.19.19,0,0,1-.12-.07l-.12-.08a.33.33,0,0,1-.26,0,.59.59,0,0,0-.22-.12.48.48,0,0,0-.18,0,.57.57,0,0,1-.18,0,.65.65,0,0,1-.27-.22.21.21,0,0,1-.12,0,.2.2,0,0,0-.11,0l-.22-.16a.66.66,0,0,0-.24-.11.15.15,0,0,0-.11-.11.29.29,0,0,1-.13-.08l-.18-.16a.21.21,0,0,1-.06-.08.2.2,0,0,0-.11,0c-.05,0-.08,0-.08,0a.72.72,0,0,0-.19-.13.24.24,0,0,1-.13-.13.72.72,0,0,1-.31-.12,2.39,2.39,0,0,1-.23-.22h-.12l-.09,0c0-.06,0-.09-.06-.1a.16.16,0,0,1-.09-.09.22.22,0,0,1-.21-.1.22.22,0,0,0-.2-.12l-.07-.11a.12.12,0,0,0-.12-.06.72.72,0,0,0-.2-.31,3.44,3.44,0,0,1-.27-.27.24.24,0,0,1-.09-.08.24.24,0,0,0-.08-.09,1,1,0,0,1-.1-.31.19.19,0,0,0-.12-.16.17.17,0,0,0,0-.14.88.88,0,0,0-.05-.15.83.83,0,0,1,0-.15.24.24,0,0,0-.07-.13.51.51,0,0,0,0-.3,1.48,1.48,0,0,0-.08-.29,1.94,1.94,0,0,0,0-.22.82.82,0,0,0-.06-.19.66.66,0,0,0,0-.28c0-.1,0-.2,0-.3s0-.29,0-.43a3.37,3.37,0,0,1,0-.44.79.79,0,0,0,0-.17.38.38,0,0,0,0-.1.48.48,0,0,1,0-.18.46.46,0,0,1,0-.09,1.22,1.22,0,0,0,0-.26.79.79,0,0,1,0-.23.9.9,0,0,1,.13-.26.1.1,0,0,0,0-.09s0-.05,0-.11a.27.27,0,0,0,.1-.26,1,1,0,0,1,0-.35.43.43,0,0,1,.05-.16l.06-.15a.89.89,0,0,1,.16-.26V14a.5.5,0,0,0,.14-.26.42.42,0,0,1,.18-.25c0-.06,0-.11,0-.13s0-.06,0-.12l.16-.18A.21.21,0,0,0,17.6,13a.37.37,0,0,0,0-.11.16.16,0,0,1,.07-.09.82.82,0,0,1,.2-.22.48.48,0,0,0,.16-.26.16.16,0,0,0,.13-.06.87.87,0,0,1,.09-.11,1.23,1.23,0,0,0,.24-.15.16.16,0,0,0,.07-.09.39.39,0,0,1,.08-.1,1.7,1.7,0,0,0,.28-.21,2.08,2.08,0,0,0,.21-.21.74.74,0,0,1,.33-.17l.25-.05L20,11.1l.57-.18.47-.17a.94.94,0,0,1,.26-.1l.33-.09.11,0,.11,0,.09,0,.08,0h.11a.26.26,0,0,0,.15,0l.46-.06a2.4,2.4,0,0,1,.54,0h.37l.21,0a.17.17,0,0,1,.11,0l.13,0h.38l.11,0,.69,0a1.32,1.32,0,0,1,.62.11l.14.07a.54.54,0,0,0,.17.08l.09,0h.09a.23.23,0,0,1,.11,0l.1.07.27.12L27,11,27,11a.89.89,0,0,1,.32.21,1.68,1.68,0,0,0,.29.25c.07,0,.11,0,.11.08s0,0,0,0a.62.62,0,0,1,.16.1l.13.11a.38.38,0,0,1,.17.12l.15.17a.7.7,0,0,0,.18.09l.06,0a.62.62,0,0,1,.09.12.48.48,0,0,0,.09.13l.11.07.12.07a1.53,1.53,0,0,1,.15.19.37.37,0,0,1,.23.09,1.07,1.07,0,0,1,.14.16c0,.06,0,.11,0,.15s0,.06,0,0a.44.44,0,0,1-.19.19.29.29,0,0,0-.17.2l-.19.13a.34.34,0,0,0-.08.09.7.7,0,0,1-.15.14l-.12.11s0,0,0,0a.8.8,0,0,0-.16.16.31.31,0,0,1-.19.15,1.21,1.21,0,0,1-.17.25.43.43,0,0,1-.36.07.14.14,0,0,1-.07-.1.33.33,0,0,0-.05-.12c-.06,0-.1,0-.12,0a.24.24,0,0,0-.09-.08l-.09-.06,0,0a.05.05,0,0,1,0,0,1.37,1.37,0,0,1-.2-.16A.28.28,0,0,1,27,14a.58.58,0,0,1-.25-.12l-.23-.17a.74.74,0,0,1-.22-.14.68.68,0,0,1-.12-.12.39.39,0,0,0-.14-.1l-.18-.05a.36.36,0,0,0-.13,0h-.08a.92.92,0,0,0-.18-.13.15.15,0,0,1-.09-.06l-.16,0-.2-.05-.13-.06a.34.34,0,0,1-.12-.06l-.12-.06a.15.15,0,0,1-.1-.07.18.18,0,0,1-.16,0,.26.26,0,0,0-.15-.07l-.19,0-.06,0h-.19l-.16-.06-.21-.07a.8.8,0,0,0-.23,0c-.07,0-.11,0-.13-.1a.07.07,0,0,0-.06.07s0,0-.08.06a.32.32,0,0,0-.14,0H22.6l-.09,0-.11,0a.28.28,0,0,0-.15,0h-.14a.45.45,0,0,1-.2,0h-.16l-.32.15-.22.07a2.55,2.55,0,0,0-.42.23l-.28.15a.37.37,0,0,1-.12.13l-.13.12-.14.12a.44.44,0,0,1-.15.1.38.38,0,0,1,0,.11.41.41,0,0,0-.07.11c-.06,0-.09,0-.1.05s-.05,0-.11,0,0,.1,0,.12a.25.25,0,0,0,0,.1,1.21,1.21,0,0,0-.2.3,1.33,1.33,0,0,1-.23.3.25.25,0,0,1,0,.19,1.45,1.45,0,0,0-.1.18l-.07.18a1.24,1.24,0,0,1-.1.2.89.89,0,0,1-.05.18.15.15,0,0,0,0,.06.49.49,0,0,0,0,.12.45.45,0,0,1,0,.11,3.18,3.18,0,0,1-.08.33,3.79,3.79,0,0,0-.17.64,2.23,2.23,0,0,0-.05.36.75.75,0,0,0,0,.21v.22a2.25,2.25,0,0,1,.07.42.36.36,0,0,0,.08.24.2.2,0,0,0,0,.13c0,.05,0,.08,0,.09l.06.1,0,.1a.41.41,0,0,1,.05.17s0,.07,0,.09a.6.6,0,0,0,.19.23,1,1,0,0,1,.23.23.29.29,0,0,0,.06.19.87.87,0,0,0,.12.14.76.76,0,0,1,.11.14.41.41,0,0,1,.05.21.88.88,0,0,1,.17.12l.17.13a.66.66,0,0,0,.16.11l.16.11a1.28,1.28,0,0,0,.23.26.4.4,0,0,1,.11.19.43.43,0,0,1,.19.06.55.55,0,0,0,.14.09l.13.07a.41.41,0,0,1,.14.1,1.29,1.29,0,0,1,.48.14,1.3,1.3,0,0,0,.46.18.47.47,0,0,0,.15.06.31.31,0,0,0,.17,0,.26.26,0,0,0,.19.1.29.29,0,0,1,.2.11.68.68,0,0,1,.24,0,.33.33,0,0,1,.15.07l.3,0a.36.36,0,0,1,.26.06.36.36,0,0,1,.31-.05,1.15,1.15,0,0,0,.37,0l.11,0,.11,0h.14l0,0a.83.83,0,0,0,.31,0l.23-.06.16-.05a.7.7,0,0,0,.19-.06l.17-.06a.12.12,0,0,0,.08,0,.84.84,0,0,0,.18-.13l.09-.07a.38.38,0,0,1,.16-.13s.05,0,.06,0a.39.39,0,0,0,.11-.15l0-.07a.49.49,0,0,1,.13-.11s0,0,0,0a.53.53,0,0,1,.12-.21.4.4,0,0,0,.13-.14.24.24,0,0,1,.11-.09,1.45,1.45,0,0,1,.2-.7.34.34,0,0,0,0-.11s0-.07,0-.11a.17.17,0,0,1,0-.1.15.15,0,0,0,0-.09.19.19,0,0,0,0-.15.23.23,0,0,1,0-.14.66.66,0,0,0-.25,0H27l-.18,0a1.39,1.39,0,0,0-.35,0,1.06,1.06,0,0,1-.35,0c-.06,0-.09,0-.1,0l0-.1a.64.64,0,0,1-.34.12.52.52,0,0,1-.25,0,.9.9,0,0,1-.46.06,1.05,1.05,0,0,0-.44,0L24.34,19a.48.48,0,0,0-.22-.05.43.43,0,0,1-.06-.31,2,2,0,0,0,0-.35.57.57,0,0,0,0-.18.57.57,0,0,1,0-.23.51.51,0,0,0,0-.18l0-.07a.64.64,0,0,0-.05-.2.22.22,0,0,1,0-.14.71.71,0,0,1,.13-.12.33.33,0,0,1,.17-.07.14.14,0,0,1,.14,0,.26.26,0,0,0,.13.06.82.82,0,0,0,.27,0c.05,0,.09,0,.11,0a.24.24,0,0,1,.15-.05h.31l.12,0h.1l.14,0,.17,0,.18,0a.43.43,0,0,1,.15,0h.07a.37.37,0,0,1,.16,0h.06a.33.33,0,0,0,.15,0,.32.32,0,0,1,.14,0,.16.16,0,0,1,.09,0h.51a.9.9,0,0,1,.23,0,.63.63,0,0,0,.24,0l.17,0,.16,0a.68.68,0,0,1,.2,0l.22,0,.11,0h.93a.57.57,0,0,1,.11.16A.21.21,0,0,0,29.93,17.43Z"/><path class="cls-2" d="M41.11,18.65a.87.87,0,0,0,0,.33.26.26,0,0,1,0,.18.17.17,0,0,1-.13.1.22.22,0,0,0-.12.11.53.53,0,0,0-.22,0l-.21,0a.48.48,0,0,0-.33-.08.5.5,0,0,1-.35-.09.35.35,0,0,1-.18.05,1.47,1.47,0,0,1-.51,0c-.17,0-.35-.06-.53-.09h-.75l-.27,0a.66.66,0,0,1-.25-.07.66.66,0,0,0-.25-.05.5.5,0,0,0-.21,0,.75.75,0,0,1-.21,0l-.27,0a.68.68,0,0,1-.19,0H36l-.22,0a.21.21,0,0,1-.2-.09.4.4,0,0,1-.12.07l-.19,0-.12,0h-.08a.36.36,0,0,1-.2,0,.16.16,0,0,0-.14.05.14.14,0,0,0-.12,0,.17.17,0,0,1-.12,0,1.07,1.07,0,0,0-.36,0,1.29,1.29,0,0,1-.29,0,1.15,1.15,0,0,1-.26,0,.8.8,0,0,0-.31,0,.58.58,0,0,0-.06.38.74.74,0,0,0,.12.37.22.22,0,0,1,0,.14.25.25,0,0,0,0,.13,1.41,1.41,0,0,0,.23.27,1,1,0,0,1,.14.17,1.71,1.71,0,0,0,.21.26,2,2,0,0,1,.22.27.34.34,0,0,0,.09.14.47.47,0,0,1,.11.13,1,1,0,0,1,.23.1l.23.16a1.23,1.23,0,0,1,.27.18.52.52,0,0,0,.19.12.2.2,0,0,0,.14,0,.17.17,0,0,1,.1,0,.59.59,0,0,1,.19.12.49.49,0,0,0,.22.1h.27l.15,0a.65.65,0,0,0,.41-.11H37a.5.5,0,0,1,.23-.1.22.22,0,0,0,.13,0l.1-.06.07,0,.18-.09.16-.12a1.07,1.07,0,0,0,.22-.15,1,1,0,0,0,.3-.29,1.74,1.74,0,0,1,.28-.32,1,1,0,0,1,.07-.34,1.26,1.26,0,0,1,.13-.26.85.85,0,0,1,0-.3.71.71,0,0,1,.11-.21l.15,0a.27.27,0,0,1,.17,0l.09.05.13.06a.27.27,0,0,0,.11.05l.18,0L40,20l.1,0a.49.49,0,0,0,.25.05.44.44,0,0,1,.2,0,1.12,1.12,0,0,1,.22.21.63.63,0,0,1-.12.37.73.73,0,0,0-.08.23.31.31,0,0,1,0,.13.22.22,0,0,1-.05.08.28.28,0,0,0,0,.11,1.33,1.33,0,0,0-.05.19.6.6,0,0,1-.07.2l-.21.24a.56.56,0,0,1-.16.12.08.08,0,0,1,0,.12l-.1.08a.45.45,0,0,1-.14.19l-.22.15a1.31,1.31,0,0,1-.28.2l-.28.17-.25.22a.46.46,0,0,1-.17.09l-.13.06a.1.1,0,0,1-.06,0,.41.41,0,0,1-.19,0l-.2,0-.32.1-.28.06-.15.05a.66.66,0,0,1-.2,0,.36.36,0,0,0-.26,0,.14.14,0,0,1-.17,0l-.31.06a.47.47,0,0,1-.23,0,.16.16,0,0,1-.1,0l-.11,0-.51-.07a1.14,1.14,0,0,1-.35-.07h-.11s-.06,0-.08-.07a.5.5,0,0,1-.32,0,1.52,1.52,0,0,1-.23-.16l-.09,0-.09,0L33.76,23a.44.44,0,0,1-.19-.19.22.22,0,0,1-.19-.07l-.15-.14a.4.4,0,0,1-.24-.07.52.52,0,0,1-.18-.18,2.27,2.27,0,0,0-.26-.27c-.12-.13-.22-.23-.29-.32a.64.64,0,0,0-.25-.18,1,1,0,0,0-.1-.17.67.67,0,0,1-.14-.15L31.65,21l-.07-.09-.06-.26a1.38,1.38,0,0,0-.06-.26,1.6,1.6,0,0,1-.05-.27.91.91,0,0,0,0-.17l0-.11a1,1,0,0,1,0-.1.91.91,0,0,1,0-.17.62.62,0,0,0,0-.19l0-.16a.78.78,0,0,1,0-.16,2.29,2.29,0,0,1,0-.25,2.11,2.11,0,0,0,0-.26s0-.05,0-.09a.38.38,0,0,1,0-.1.7.7,0,0,1,.06-.17.94.94,0,0,0,.06-.18.42.42,0,0,1,0-.22.1.1,0,0,0,0-.11.19.19,0,0,0,.05-.09.39.39,0,0,1,0-.09.49.49,0,0,0,0-.12.34.34,0,0,1,0-.16.77.77,0,0,1,.11-.16s0,0,0,0a.91.91,0,0,1,0-.16.24.24,0,0,1,.06-.08.92.92,0,0,1,.11-.2l0-.07a.43.43,0,0,1,0-.15l0-.05c0-.07,0-.13,0-.18A.47.47,0,0,1,32,16a.76.76,0,0,1,.09-.18.51.51,0,0,1,.13-.16c.06-.14.11-.26.16-.35s.09-.19.13-.28a1.44,1.44,0,0,0,.27-.28,1.33,1.33,0,0,1,.26-.27l.08,0,.11,0a2.71,2.71,0,0,0,.27-.22.67.67,0,0,1,.2-.12,1.12,1.12,0,0,1,.32,0,.32.32,0,0,0,.29-.12.54.54,0,0,0,.21,0,1.76,1.76,0,0,0,.2-.09l.16-.08a.51.51,0,0,1,.23,0h.23a1.23,1.23,0,0,0,.25-.05l.15,0,.19,0a2.31,2.31,0,0,0,.4,0h.33a.55.55,0,0,0,.18,0,.64.64,0,0,1,.2,0,.44.44,0,0,0,.16,0l.16,0,.14,0h.05a.35.35,0,0,1,.14.06.53.53,0,0,0,.15.08.12.12,0,0,0,.09,0,.1.1,0,0,1,.09,0l.21.08.22.07a.18.18,0,0,1,.13.15.66.66,0,0,1,.28.14l.18.13a1,1,0,0,1,.14.15.4.4,0,0,0,.15.14.39.39,0,0,0,0,.09.19.19,0,0,1,.05.1,1.21,1.21,0,0,1,.24.21.6.6,0,0,0,.28.2,1.17,1.17,0,0,0,.12.2.43.43,0,0,1,.09.24l.07.11.1.15.06.08a.27.27,0,0,1,.06.1,3,3,0,0,0,.18.36l.1.12a.46.46,0,0,1,.09.15.68.68,0,0,1,0,.14.3.3,0,0,0,0,.13,1.31,1.31,0,0,0,0,.15l0,.09a.82.82,0,0,1,0,.27,1.13,1.13,0,0,0,0,.26A1.49,1.49,0,0,1,41,18l0,.21a.75.75,0,0,0,0,.23Zm-2.44-1.36s0-.06,0-.12a.22.22,0,0,0-.09-.12.19.19,0,0,0-.09-.14s0-.05,0-.09a.34.34,0,0,0-.14-.09c-.06,0-.08-.07-.07-.14a.08.08,0,0,1-.11,0,.09.09,0,0,0-.06-.07.44.44,0,0,1-.15-.17.3.3,0,0,0-.1-.14.11.11,0,0,0-.11,0s-.06,0-.06-.08a.55.55,0,0,1-.42-.09,2.1,2.1,0,0,1-.28-.25,1,1,0,0,1-.34,0h-.36a.41.41,0,0,0-.24-.07.74.74,0,0,1-.27,0s-.07,0-.07-.07,0-.06-.1-.06a.31.31,0,0,1-.23,0,.61.61,0,0,0-.24-.07.79.79,0,0,1-.29.11,1.77,1.77,0,0,0-.31.08.43.43,0,0,0-.19.16L34.2,16l-.24.27-.22.27a.27.27,0,0,1,0,.16.19.19,0,0,0,0,.15.4.4,0,0,0-.16.26c0,.12-.06.24-.08.35a1.22,1.22,0,0,0,.27,0l.33,0a.2.2,0,0,1,.11,0h.11a1.41,1.41,0,0,1,.44,0h.34a1.84,1.84,0,0,0,.33,0,.5.5,0,0,1,.3,0,1,1,0,0,1,.43-.07l.4,0a.32.32,0,0,0,.15,0h0a5.35,5.35,0,0,1,1,0A3.16,3.16,0,0,0,38.67,17.29Z"/><path class="cls-2" d="M47.64,14.81a.93.93,0,0,0,0,.24.17.17,0,0,1,0,.1.3.3,0,0,1-.12.16.91.91,0,0,0-.16.11.36.36,0,0,0-.3,0l-.27.08h-.22a.75.75,0,0,0-.26,0,1.11,1.11,0,0,1-.22.07h-.15a.24.24,0,0,0-.16,0,.62.62,0,0,0,0,.33,1.15,1.15,0,0,1,0,.37,2.15,2.15,0,0,0,0,.43,1.69,1.69,0,0,1,0,.3,2.71,2.71,0,0,1,0,.29.4.4,0,0,0,.06.26.77.77,0,0,0-.06.24,2.72,2.72,0,0,0,0,.28,2.52,2.52,0,0,0,0,.55c0,.2,0,.38,0,.54a2.11,2.11,0,0,0,0,.21,1.38,1.38,0,0,1,0,.2.34.34,0,0,0,0,.17.17.17,0,0,1,0,.07,2.52,2.52,0,0,0,0,.39c0,.15,0,.3,0,.46a1.09,1.09,0,0,1,0,.22.5.5,0,0,0,0,.12c0,.09,0,.18.05.29a.4.4,0,0,1-.1.3.17.17,0,0,0,0,.1.25.25,0,0,1,0,.09.47.47,0,0,0,0,.2.3.3,0,0,1,0,.11,1.17,1.17,0,0,0,0,.31l0,.25a.82.82,0,0,1-.22.69l-.43-.06a1,1,0,0,0-.43,0l-.21,0a.33.33,0,0,1-.23,0,.23.23,0,0,0-.12.05l-.11,0a.14.14,0,0,1-.12,0,.19.19,0,0,0-.12-.07,2.16,2.16,0,0,1,0-.51,4.69,4.69,0,0,0,0-.65.61.61,0,0,0,0-.14s0-.09,0-.15a1,1,0,0,1,0-.24,2.44,2.44,0,0,0,0-.27.45.45,0,0,1,0-.11.22.22,0,0,0,0-.11s0-.07,0-.07,0,0,0-.11a1.73,1.73,0,0,1,0-.41c0-.13.06-.25.08-.38a2.69,2.69,0,0,1,0-.29v-.16a.58.58,0,0,0,0-.16.51.51,0,0,1,0-.17.28.28,0,0,1,0-.1.25.25,0,0,0,0-.12,2.93,2.93,0,0,1,0-.52,2.26,2.26,0,0,0,0-.45,1.33,1.33,0,0,1,0-.3,1,1,0,0,0,0-.19,2.11,2.11,0,0,1,0-.26,1.4,1.4,0,0,1,0-.29.5.5,0,0,1,0-.12.37.37,0,0,0,0-.12.4.4,0,0,0,0-.15.61.61,0,0,1,0-.15c0-.09,0-.19,0-.29a1.5,1.5,0,0,0,0-.29.76.76,0,0,0,0-.11.45.45,0,0,1,0-.11.85.85,0,0,1,0-.32.65.65,0,0,0,0-.31,4.53,4.53,0,0,0-.54.14l-.13,0a.48.48,0,0,0-.14.05l-.22.06c-.06,0-.12,0-.19-.05a.67.67,0,0,1-.19-.22.31.31,0,0,1,0-.22,1.14,1.14,0,0,1,.15-.17c0-.05,0-.08,0-.1a.33.33,0,0,0,0-.12,1.09,1.09,0,0,0,0-.18.47.47,0,0,1,0-.2,1,1,0,0,1,.09-.18c0-.06,0-.12.07-.17a.65.65,0,0,0,0-.24.49.49,0,0,1,0-.24c0-.19.17-.27.42-.22l.19.05a.15.15,0,0,1,.12.1.32.32,0,0,1,.23,0,.41.41,0,0,0,.21.05.59.59,0,0,0,.1-.41,5,5,0,0,1,0-.55.45.45,0,0,0,0-.22l0-.13a1.28,1.28,0,0,1,0-.48s0-.07,0-.11a.45.45,0,0,0,0-.11.47.47,0,0,0,0-.24.32.32,0,0,0,0-.15l0-.08s0-.05-.05-.06a.16.16,0,0,1,0-.1.32.32,0,0,1,.17-.11H44l.23-.05a.57.57,0,0,1,.25,0,.4.4,0,0,1,.24,0l.18,0a.33.33,0,0,0,.12-.05l.1,0a.21.21,0,0,0,.14,0c.06,0,.1,0,.12,0a.67.67,0,0,0,.12.14.09.09,0,0,1,0,.06,1.19,1.19,0,0,1,0,.39c0,.16,0,.3,0,.43a.92.92,0,0,1,0,.16V12a.76.76,0,0,1,0,.14.74.74,0,0,0,0,.12.58.58,0,0,1,0,.23.34.34,0,0,0,0,.11,1.08,1.08,0,0,0,0,.21c0,.06,0,.13-.08.21a.35.35,0,0,1,0,.2l0,.21a.53.53,0,0,0,0,.12.53.53,0,0,1,0,.12.24.24,0,0,1,0,.15.19.19,0,0,0,0,.15.29.29,0,0,0,.24-.05,1,1,0,0,1,.21-.1.47.47,0,0,1,.21,0,.31.31,0,0,0,.21-.08.14.14,0,0,0,.19,0c.07-.05.12,0,.17,0a.56.56,0,0,1,.29-.15.65.65,0,0,1,.34,0,1.15,1.15,0,0,0,.1.18.35.35,0,0,1,0,.08.14.14,0,0,1,0,.09.28.28,0,0,0,0,.13,1.05,1.05,0,0,1,0,.18.17.17,0,0,0,0,.07,1.42,1.42,0,0,0,0,.22,1.8,1.8,0,0,1,0,.19Z"/><path class="cls-2" d="M67.15,22.79a.19.19,0,0,1-.16.11.19.19,0,0,0-.15.12c-.12,0-.19-.05-.22-.1a.41.41,0,0,1-.14.1l-.08,0a.46.46,0,0,0-.21.14l-.1-.05a.34.34,0,0,0-.12-.06l-.27,0-.15,0a.88.88,0,0,1-.24,0,.5.5,0,0,0-.24,0,.26.26,0,0,1-.15,0,.15.15,0,0,0-.16.06c-.05,0-.09,0-.1,0s0,0-.1,0a.93.93,0,0,1-.2.08l-.23.06a.29.29,0,0,1-.14-.13.4.4,0,0,0-.13-.16.5.5,0,0,0,0-.17q0-.09,0-.12a.14.14,0,0,1,0-.11,1,1,0,0,0,0-.15.73.73,0,0,1-.09-.22,1.25,1.25,0,0,0-.08-.27.22.22,0,0,1,0-.19.3.3,0,0,1-.1-.19,1.26,1.26,0,0,0-.07-.28c0-.06,0-.1,0-.13a.19.19,0,0,0,0-.08.66.66,0,0,1-.08-.25.68.68,0,0,0,0-.14,1.83,1.83,0,0,1-.1-.25,1.05,1.05,0,0,0,0-.19l-.07-.09a.35.35,0,0,1-.07-.12.32.32,0,0,1,0-.14.33.33,0,0,0,0-.14.67.67,0,0,0-.06-.12.49.49,0,0,1,0-.11.71.71,0,0,1,0-.21.33.33,0,0,0-.08-.19.23.23,0,0,0-.2,0l-.19.05h-.11a.2.2,0,0,0-.11,0l-.22,0a.31.31,0,0,1-.19,0l-.11,0h-.13a.29.29,0,0,0-.18,0h-.23l-.23,0a.28.28,0,0,1-.19,0l-.26,0-.12,0a1,1,0,0,0-.25,0,.58.58,0,0,1-.26,0,.33.33,0,0,1-.12.05.14.14,0,0,0-.1.07.54.54,0,0,0-.31,0,1.09,1.09,0,0,1-.32,0,.3.3,0,0,0-.13.24.84.84,0,0,1,0,.27.69.69,0,0,1-.1.25l-.13.23a1.22,1.22,0,0,0-.07.17,1.4,1.4,0,0,1-.09.17.87.87,0,0,1-.05.12l0,.07a.05.05,0,0,1,0,0,.44.44,0,0,1,0,.18.13.13,0,0,0,0,.08.4.4,0,0,0,0,.15.26.26,0,0,1,0,.15.67.67,0,0,1-.09.21.36.36,0,0,0-.06.22.58.58,0,0,0-.2.28.81.81,0,0,1-.21.3.89.89,0,0,1-.07.28,2.18,2.18,0,0,1-.11.27,1.07,1.07,0,0,0-.09.27,1.69,1.69,0,0,0,0,.33l-.17.1a.22.22,0,0,1-.21,0l-.26-.12a.93.93,0,0,1-.2-.08l-.18,0H56a.46.46,0,0,1-.17,0l-.1,0h-.13a.4.4,0,0,1-.15,0,1.2,1.2,0,0,1-.39-.13,2,2,0,0,0-.35-.14.57.57,0,0,1,0-.14s0-.09,0-.15a.21.21,0,0,1,.09-.11.08.08,0,0,0,0-.09c0-.09.07-.18.11-.28s.08-.18.13-.27a2.28,2.28,0,0,1,.1-.21l.07-.08a1.63,1.63,0,0,0,.09-.23.36.36,0,0,1,0-.09c0-.06,0-.1,0-.14a.51.51,0,0,1,.08-.13l.16-.21a.69.69,0,0,1,.1-.24l.08-.13a.85.85,0,0,0,.14-.21,1.87,1.87,0,0,1,.12-.25l.12-.16a.75.75,0,0,0,.08-.18.46.46,0,0,1,0-.14l0-.06c0-.07,0-.11,0-.13l0-.06a1.8,1.8,0,0,0,.14-.31,1.4,1.4,0,0,1,.15-.3.42.42,0,0,1,.11-.16.21.21,0,0,0,.07-.18.29.29,0,0,0,.12-.15,1.51,1.51,0,0,1,.09-.18.6.6,0,0,1,.09-.15.83.83,0,0,0,.11-.15,1.42,1.42,0,0,1,.08-.18l.09-.18a.51.51,0,0,1,.09-.16.25.25,0,0,1,.15-.11.23.23,0,0,1,0-.18l.08-.18.08-.13a.94.94,0,0,0,.09-.12l.08-.17a.84.84,0,0,1,.11-.22.19.19,0,0,0,.06-.07.23.23,0,0,0,0-.11.08.08,0,0,1,0-.08.61.61,0,0,0,.15-.17,1.64,1.64,0,0,1,.12-.22,2.09,2.09,0,0,0,.1-.21.68.68,0,0,1,.14-.23.19.19,0,0,1,0-.15l.07-.14.06-.11.06-.11a.66.66,0,0,0,.14-.28l.06-.22a.74.74,0,0,1,.08-.13l.08-.12a.78.78,0,0,0,.05-.14.16.16,0,0,1,.08-.1.82.82,0,0,1,.08-.29,1.89,1.89,0,0,0,.11-.25.67.67,0,0,1,.19-.24,1.48,1.48,0,0,0,0-.21.34.34,0,0,1,0-.18.37.37,0,0,1,.08-.14.27.27,0,0,0,.09-.12c0-.15.08-.27.11-.36l.09-.29a1.28,1.28,0,0,0,.1-.28c0-.1.07-.2.11-.29l.09-.2c0-.06,0-.13.08-.19a.64.64,0,0,0,.25-.24,2,2,0,0,0,.14-.34.31.31,0,0,1,.14,0h.1c.11,0,.18.06.2.12a.4.4,0,0,0,.1.15,1.29,1.29,0,0,1,.13.18l.08.15a1,1,0,0,1,.14.18.86.86,0,0,1,.11.24l.07.15a.87.87,0,0,0,.07.17l.09.19.09.22a2,2,0,0,1,.11.32l.12.34a1.24,1.24,0,0,1,0,.16.43.43,0,0,0,0,.14.81.81,0,0,0,.06.13l.06.1c0,.11.09.22.14.33s.11.25.17.37a.47.47,0,0,1,0,.1l.06.12a.15.15,0,0,1,.06.09l.06.1a.23.23,0,0,1,.06.12.83.83,0,0,0,.08.12l.09.17a.93.93,0,0,1,.08.22l.08.25c0,.11,0,.2.06.29s.11.22.16.35.1.26.14.38l.09.1a.57.57,0,0,1,.1.11.35.35,0,0,0,.07.12l0,.06.11.3c0,.1.05.19.07.28l.09.17a.46.46,0,0,1,0,.21,1.14,1.14,0,0,1,.15.24,1.59,1.59,0,0,1,.09.2l.12.19a.83.83,0,0,0,.07.13,1.14,1.14,0,0,1,.18.32.44.44,0,0,1,0,.15.28.28,0,0,0,0,.13,2.09,2.09,0,0,0,.08.23.85.85,0,0,1,.09.24.65.65,0,0,1,.13.16c0,.05,0,.11.07.17a.6.6,0,0,1,.07.14l.07.18a1.66,1.66,0,0,0,.13.27.8.8,0,0,1,.12.27c0,.06.05.12.08.17s.05.12.08.17a.28.28,0,0,1,0,.15.15.15,0,0,0,0,.11,1.29,1.29,0,0,0,.1.22c.07.23.15.46.24.71a4.32,4.32,0,0,0,.19.45A1.81,1.81,0,0,1,67.15,22.79Zm-4.58-5.12a.23.23,0,0,0,0-.14s0-.1,0-.15a.78.78,0,0,1,0-.16.83.83,0,0,0,0-.15,1,1,0,0,0-.08-.11.24.24,0,0,1-.06-.09q0-.24-.06-.42l-.06-.37a.47.47,0,0,1-.14-.17.7.7,0,0,1-.12-.22c0-.07,0-.13,0-.18s0-.17-.06-.23a1.34,1.34,0,0,1-.07-.18,1.29,1.29,0,0,1,0-.24c0-.07,0-.14-.05-.2l0-.1,0-.09a1.42,1.42,0,0,1-.07-.22.23.23,0,0,0-.12-.16.28.28,0,0,0-.19.21.48.48,0,0,1-.12.25.48.48,0,0,0-.08.11,1.46,1.46,0,0,1-.06.26l-.06.16-.06.16-.06.13-.06.1,0,.09-.27.5a4.25,4.25,0,0,0-.21.43,1.42,1.42,0,0,0,0,.16,1.09,1.09,0,0,1-.05.17.44.44,0,0,1-.08.11.34.34,0,0,0-.09.14.31.31,0,0,0,0,.09.22.22,0,0,1,0,.11,1.22,1.22,0,0,0-.14.3c0,.08,0,.14-.06.2a.84.84,0,0,0,.38.08h.39l.66-.05a4.19,4.19,0,0,0,.58-.07,1.48,1.48,0,0,1,.42,0A.79.79,0,0,0,62.57,17.67Z"/><path class="cls-2" d="M82.26,11.19a.88.88,0,0,1,0,.24,1.06,1.06,0,0,0,0,.27.21.21,0,0,0,0,.14,1.09,1.09,0,0,1,0,.18.78.78,0,0,1,0,.16.28.28,0,0,0,0,.13.4.4,0,0,0,0,.2.31.31,0,0,1,0,.19.11.11,0,0,1-.08.11l-.16.06-.21.06a.19.19,0,0,1-.17,0,.23.23,0,0,0-.17-.12.69.69,0,0,1-.24,0H80.9a.65.65,0,0,0-.24,0l-.27,0h-.18a.65.65,0,0,0-.31,0,.58.58,0,0,1-.32,0,.42.42,0,0,0-.23,0l-.18.05A.31.31,0,0,1,79,13a.25.25,0,0,0-.13,0,1.75,1.75,0,0,0-.33,0,1,1,0,0,1-.37,0A.32.32,0,0,0,78,13l-.08,0h-.26a.33.33,0,0,0-.15,0,2.32,2.32,0,0,0,0,.24.26.26,0,0,1,0,.23,2,2,0,0,1,.16.77,6.57,6.57,0,0,0,.08.85l.14,0a.42.42,0,0,0,.15,0,.49.49,0,0,0,.19-.05,1,1,0,0,1,.25-.06.32.32,0,0,1,.19,0h.08a.51.51,0,0,0,.17,0,.41.41,0,0,1,.16,0c.33,0,.67,0,1,0a5,5,0,0,1,.92.05l.16,0,.15,0a.57.57,0,0,0,.22,0,.2.2,0,0,1,.19,0,.59.59,0,0,1,.06.59.41.41,0,0,0,0,.22.94.94,0,0,1,0,.29,1.64,1.64,0,0,1,0,.32,2.74,2.74,0,0,0,0,.28.88.88,0,0,0,0,.16.24.24,0,0,1,0,.12.5.5,0,0,1-.09.2c0,.08-.07.12-.1.13l-.11,0-.11,0a.47.47,0,0,1-.24,0,.73.73,0,0,0-.22,0h-.26l-.21,0a.41.41,0,0,0-.16,0l-.15,0h-.13a.32.32,0,0,0-.14,0h-.58c-.1-.07-.16-.09-.18-.05s-.05,0-.11,0a.07.07,0,0,1-.09,0,.12.12,0,0,0-.1,0,.16.16,0,0,0-.09,0l-.09,0-.17,0a.29.29,0,0,0-.16,0H78l-.33,0a1.35,1.35,0,0,0-.06.41.94.94,0,0,0,.08.41.12.12,0,0,1,0,.12l-.06.08a.9.9,0,0,1,0,.09.25.25,0,0,1,0,.1.43.43,0,0,0,0,.19.25.25,0,0,1,0,.08l-.05.12a.19.19,0,0,0,0,.1.38.38,0,0,0,.1.29c-.06.05-.07.09,0,.14a.15.15,0,0,1,0,.13,2.43,2.43,0,0,1,0,.3,1.41,1.41,0,0,0,0,.28.43.43,0,0,0,0,.11.28.28,0,0,1,0,.13.29.29,0,0,1,0,.14.39.39,0,0,0-.06.13.53.53,0,0,0,0,.22c0,.08,0,.16,0,.24a.67.67,0,0,1,0,.2.48.48,0,0,0,0,.17c0,.06,0,.1,0,.12a.18.18,0,0,0-.08.07,1.13,1.13,0,0,1,.1.33.36.36,0,0,1,0,.11.53.53,0,0,0,0,.11.41.41,0,0,0,0,.22.5.5,0,0,0,.09.24.31.31,0,0,1,.08.18.35.35,0,0,1-.09.2.56.56,0,0,1-.18.13.24.24,0,0,1-.12,0L77,23.41l-.17-.09a.56.56,0,0,0-.22-.09l-.21,0h-.18a.72.72,0,0,0-.23-.05h-.11a.57.57,0,0,1-.18,0,.31.31,0,0,0-.19,0A1.06,1.06,0,0,0,75.4,23a.86.86,0,0,1-.13-.17.46.46,0,0,1,.09-.21l.13-.1a.12.12,0,0,0,0-.11.11.11,0,0,1-.06-.11.87.87,0,0,0,0-.36,1,1,0,0,1,0-.34.52.52,0,0,1,0-.14.3.3,0,0,0,0-.1,1,1,0,0,1,0-.25.5.5,0,0,1,0-.13l0-.14a2.1,2.1,0,0,1,0-.36l0-.21a.32.32,0,0,0,0-.17.17.17,0,0,1,.06-.15.22.22,0,0,1,0-.25.77.77,0,0,0,.07-.26c0-.09,0-.15,0-.17a.15.15,0,0,0,0-.07.22.22,0,0,0,0-.21.63.63,0,0,1,0-.21.88.88,0,0,1,0-.28,1.27,1.27,0,0,1,.06-.28.43.43,0,0,1,0-.24v-.29a.78.78,0,0,0,0-.22.3.3,0,0,1,0-.12.44.44,0,0,1,0-.15.39.39,0,0,0,0-.14V17a.22.22,0,0,1,0-.08v-.1a.7.7,0,0,0,0-.24l-.06-.17a1.05,1.05,0,0,0-.07-.26.5.5,0,0,1,0-.14.72.72,0,0,0,0-.13.25.25,0,0,1,0-.08.23.23,0,0,1,0-.14.34.34,0,0,0,.06-.15,1.24,1.24,0,0,0,0-.27,2.71,2.71,0,0,1,0-.29,1.49,1.49,0,0,0,0-.17.15.15,0,0,1,0-.07c0-.11,0-.21,0-.3a2.53,2.53,0,0,0,0-.28.89.89,0,0,0,0-.28.86.86,0,0,1,0-.33v-.15a.5.5,0,0,1,0-.19.19.19,0,0,1,0-.09.19.19,0,0,0,0-.09.41.41,0,0,0,0-.16.86.86,0,0,0,0-.16V12.5a.15.15,0,0,1,.08-.11.75.75,0,0,1-.09-.25,2.64,2.64,0,0,1,0-.29l0-.31a.9.9,0,0,0-.08-.28,1.37,1.37,0,0,0-.13-.2.32.32,0,0,1-.08-.2.2.2,0,0,1,.06-.14.35.35,0,0,0,.06-.14.18.18,0,0,0,.16,0,.22.22,0,0,1,.18,0,.79.79,0,0,0,.36,0,.15.15,0,0,1,.19.09.12.12,0,0,0,.11,0s0-.05.11-.05a1.93,1.93,0,0,1,.48,0,2.64,2.64,0,0,0,.49,0,.3.3,0,0,0,.13,0l.12,0a4.28,4.28,0,0,1,.62,0,2.9,2.9,0,0,0,.59,0l.13,0,.13,0h.35a1.9,1.9,0,0,0,.34,0H80l.21,0a1,1,0,0,1,.45,0l.35,0h.56a1.87,1.87,0,0,1,.56.09.63.63,0,0,1,0,.34l.06.17A.85.85,0,0,1,82.26,11.19Z"/><path class="cls-2" d="M89.87,15.76a.48.48,0,0,1-.13.12l-.06,0c-.14.08-.21.12-.22.11a.22.22,0,0,1-.19-.14.39.39,0,0,0-.19-.19.25.25,0,0,1-.17,0,.48.48,0,0,0-.17,0l-.15,0-.15.07-.33.13-.17.09-.1.13a.47.47,0,0,1-.12.14,1,1,0,0,1-.23.16,1.93,1.93,0,0,0-.21.17.33.33,0,0,0,0,.12.34.34,0,0,1-.07.15.7.7,0,0,0-.13.13l0,.05a.23.23,0,0,0,0,.14.28.28,0,0,1,0,.09.58.58,0,0,1-.07.11.19.19,0,0,0,0,.18c-.07.09-.11.15-.11.19a.22.22,0,0,1,0,.09.35.35,0,0,0-.1.15.21.21,0,0,1,0,.11.48.48,0,0,0-.08.23.33.33,0,0,1,0,.14,1.08,1.08,0,0,0-.06.28,1,1,0,0,1,0,.18,1.55,1.55,0,0,1,0,.23,1.82,1.82,0,0,0-.07.25.54.54,0,0,0,0,.18.53.53,0,0,1,0,.21.36.36,0,0,1,0,.1.29.29,0,0,0,0,.14.52.52,0,0,0,0,.25.21.21,0,0,1-.09.22.61.61,0,0,1,.06.3.36.36,0,0,1-.07.28,1.35,1.35,0,0,1,.06.41l0,.45,0,.46a1.49,1.49,0,0,0,0,.43.15.15,0,0,0,.15.13.33.33,0,0,1,.2.08.14.14,0,0,0,0,.09.5.5,0,0,1,.07.13.32.32,0,0,1-.07.24.34.34,0,0,1-.17.15.15.15,0,0,1-.13,0,.31.31,0,0,0-.21,0L86,23.8l-.17.07a2,2,0,0,1-.32.1L85.1,24l-.17,0-.17,0-.2.08a.33.33,0,0,1-.19,0,.36.36,0,0,1-.24-.19.93.93,0,0,1-.06-.34.78.78,0,0,1,0-.16.29.29,0,0,0,0-.16.78.78,0,0,0,0-.16A1.09,1.09,0,0,1,84,23a1.68,1.68,0,0,1,0-.45c0-.15,0-.31,0-.46a.51.51,0,0,1,0-.13.52.52,0,0,0,0-.11c0-.05,0-.09,0-.13a.53.53,0,0,1,0-.13c0-.09,0-.17-.06-.24s0-.15,0-.25a.53.53,0,0,0,0-.12c0-.05,0-.09,0-.12a.66.66,0,0,1,0-.21,1.18,1.18,0,0,0,0-.2,1.31,1.31,0,0,1,0-.34,1.39,1.39,0,0,0,0-.27c0-.07,0-.13,0-.2a1.6,1.6,0,0,1,0-.21s0-.07,0-.13a.44.44,0,0,0,0-.09q0-.23-.06-.36a1.27,1.27,0,0,0,0-.22.73.73,0,0,1,0-.26,1,1,0,0,0,.05-.16,1.37,1.37,0,0,0,0-.35,1.38,1.38,0,0,1,0-.35,1.22,1.22,0,0,1,.06-.26A.93.93,0,0,0,84,17a.45.45,0,0,0,0-.11.45.45,0,0,1,0-.11.43.43,0,0,1,0-.11.52.52,0,0,0,0-.11.23.23,0,0,1,0-.1.43.43,0,0,1,0-.11.45.45,0,0,1,0-.23.61.61,0,0,0,0-.24.88.88,0,0,0,0-.17l0-.17a.41.41,0,0,1,0-.1.22.22,0,0,0,0-.09.54.54,0,0,1,0-.28.78.78,0,0,0,0-.21,2.17,2.17,0,0,0,0-.26.39.39,0,0,1,0-.25.25.25,0,0,0,0-.15.6.6,0,0,1-.09-.13.32.32,0,0,0,0-.27.5.5,0,0,1,0-.27.33.33,0,0,1,.27-.12.23.23,0,0,1,.19.08.49.49,0,0,0,.12.13.8.8,0,0,0,.34,0,1.78,1.78,0,0,1,.34,0h.19l.18,0a.67.67,0,0,0,.25-.08.42.42,0,0,1,.31,0,.13.13,0,0,1,.08.1.73.73,0,0,0,.06.14.62.62,0,0,0,0,.16.14.14,0,0,1,0,.06,2.46,2.46,0,0,1-.07.29.68.68,0,0,0,0,.31.21.21,0,0,0,.16-.06l.13-.13.08-.08a.46.46,0,0,1,.07-.07l.2-.19A.33.33,0,0,1,87,14a.27.27,0,0,1,.12-.09.19.19,0,0,0,.1-.1,1,1,0,0,0,.3-.13.39.39,0,0,1,.35,0,.58.58,0,0,1,.26-.15.27.27,0,0,1,.28,0,1.4,1.4,0,0,0,.56-.1.77.77,0,0,1,.44-.05.23.23,0,0,1,.13.06l.11.08.11,0,.11.05a.53.53,0,0,1,.08.4,3.11,3.11,0,0,0-.06.44,1.47,1.47,0,0,1,0,.3,1.37,1.37,0,0,0,0,.19c0,.12,0,.25,0,.38S89.87,15.63,89.87,15.76Z"/><path class="cls-2" d="M100.55,18.65a.87.87,0,0,0,0,.33.26.26,0,0,1,0,.18.17.17,0,0,1-.13.1.22.22,0,0,0-.12.11.53.53,0,0,0-.22,0l-.21,0a.48.48,0,0,0-.33-.08.5.5,0,0,1-.35-.09.36.36,0,0,1-.19.05,1.41,1.41,0,0,1-.5,0c-.17,0-.35-.06-.53-.09h-.75l-.27,0a.66.66,0,0,1-.25-.07.66.66,0,0,0-.25-.05.5.5,0,0,0-.21,0,.75.75,0,0,1-.21,0l-.27,0a.68.68,0,0,1-.19,0h-.09l-.22,0A.21.21,0,0,1,95,19a.4.4,0,0,1-.12.07l-.19,0-.12,0h-.08a.37.37,0,0,1-.2,0,.16.16,0,0,0-.14.05.14.14,0,0,0-.12,0,.17.17,0,0,1-.12,0,1.07,1.07,0,0,0-.36,0,1.29,1.29,0,0,1-.29,0,1.15,1.15,0,0,1-.26,0,.8.8,0,0,0-.31,0,.58.58,0,0,0-.06.38.74.74,0,0,0,.12.37.22.22,0,0,1,0,.14.25.25,0,0,0,0,.13,1.41,1.41,0,0,0,.23.27,1,1,0,0,1,.14.17,1.71,1.71,0,0,0,.21.26,2,2,0,0,1,.22.27.34.34,0,0,0,.09.14.47.47,0,0,1,.11.13,1,1,0,0,1,.23.1l.23.16a1.55,1.55,0,0,1,.27.18.52.52,0,0,0,.19.12.2.2,0,0,0,.14,0,.17.17,0,0,1,.1,0,.59.59,0,0,1,.19.12.49.49,0,0,0,.22.1h.27l.15,0a.65.65,0,0,0,.41-.11h.27a.5.5,0,0,1,.23-.1.25.25,0,0,0,.13,0,.27.27,0,0,1,.1-.06l.07,0,.18-.09.16-.12a1.07,1.07,0,0,0,.22-.15,1,1,0,0,0,.3-.29,1.74,1.74,0,0,1,.28-.32,1,1,0,0,1,.07-.34,1.26,1.26,0,0,1,.13-.26.85.85,0,0,1,0-.3.71.71,0,0,1,.11-.21l.15,0a.27.27,0,0,1,.17,0l.09.05.13.06a.27.27,0,0,0,.11.05l.18,0,.17.05.1,0a.49.49,0,0,0,.25.05.44.44,0,0,1,.2,0,1.12,1.12,0,0,1,.22.21.63.63,0,0,1-.12.37.73.73,0,0,0-.08.23.31.31,0,0,1,0,.13.22.22,0,0,1,0,.08.28.28,0,0,0,0,.11,1.33,1.33,0,0,0-.05.19.6.6,0,0,1-.07.2l-.21.24a.56.56,0,0,1-.16.12.08.08,0,0,1,0,.12l-.1.08a.45.45,0,0,1-.14.19l-.22.15a1.31,1.31,0,0,1-.28.2l-.28.17-.25.22a.46.46,0,0,1-.17.09l-.13.06a.1.1,0,0,1-.06,0,.41.41,0,0,1-.19,0l-.2,0-.32.1-.28.06-.15.05a.66.66,0,0,1-.2,0,.36.36,0,0,0-.26,0,.14.14,0,0,1-.17,0l-.31.06a.47.47,0,0,1-.23,0,.16.16,0,0,1-.1,0l-.11,0-.51-.07a1.14,1.14,0,0,1-.35-.07h-.11s-.06,0-.08-.07a.5.5,0,0,1-.32,0,1.52,1.52,0,0,1-.23-.16l-.09,0-.09,0L93.2,23a.44.44,0,0,1-.19-.19.22.22,0,0,1-.19-.07l-.15-.14a.4.4,0,0,1-.24-.07.52.52,0,0,1-.18-.18A2.27,2.27,0,0,0,92,22c-.12-.13-.22-.23-.29-.32a.64.64,0,0,0-.25-.18,1,1,0,0,0-.1-.17.67.67,0,0,1-.14-.15L91.09,21,91,20.91,91,20.65a1.38,1.38,0,0,0-.06-.26,1.6,1.6,0,0,1-.05-.27.91.91,0,0,0,0-.17l0-.11a1,1,0,0,1,0-.1.91.91,0,0,1,0-.17.62.62,0,0,0,0-.19l0-.16a.78.78,0,0,1,0-.16,2.29,2.29,0,0,1,0-.25,2.11,2.11,0,0,0,0-.26s0-.05,0-.09a.38.38,0,0,1,0-.1.7.7,0,0,1,.06-.17.94.94,0,0,0,.06-.18.42.42,0,0,1,0-.22.1.1,0,0,0,0-.11.19.19,0,0,0,0-.09.39.39,0,0,1,0-.09.49.49,0,0,0,0-.12.34.34,0,0,1,0-.16.77.77,0,0,1,.11-.16l0,0a.91.91,0,0,1,0-.16.24.24,0,0,1,.06-.08.92.92,0,0,1,.11-.2l0-.07a.43.43,0,0,1,0-.15l0-.05c0-.07,0-.13,0-.18a.47.47,0,0,1,0-.16.76.76,0,0,1,.09-.18.51.51,0,0,1,.13-.16c.06-.14.11-.26.16-.35S92,15.09,92,15a1.44,1.44,0,0,0,.27-.28,1.33,1.33,0,0,1,.26-.27l.08,0,.11,0a2.71,2.71,0,0,0,.27-.22.67.67,0,0,1,.2-.12,1.12,1.12,0,0,1,.32,0,.32.32,0,0,0,.29-.12.54.54,0,0,0,.21,0,1.76,1.76,0,0,0,.2-.09l.16-.08a.51.51,0,0,1,.23,0h.23a1.23,1.23,0,0,0,.25-.05l.15,0,.19,0a2.31,2.31,0,0,0,.4,0h.33a.55.55,0,0,0,.18,0,.64.64,0,0,1,.2,0,.44.44,0,0,0,.16,0l.16,0,.14,0h0a.35.35,0,0,1,.14.06.53.53,0,0,0,.15.08.12.12,0,0,0,.09,0,.1.1,0,0,1,.09,0l.21.08.22.07a.18.18,0,0,1,.13.15.66.66,0,0,1,.28.14l.18.13a1,1,0,0,1,.14.15.4.4,0,0,0,.15.14.39.39,0,0,0,0,.09.3.3,0,0,1,.05.1,1.21,1.21,0,0,1,.24.21.6.6,0,0,0,.28.2,1.17,1.17,0,0,0,.12.2.43.43,0,0,1,.09.24l.07.11.1.15.06.08a.27.27,0,0,1,.06.1,3,3,0,0,0,.18.36l.1.12a.46.46,0,0,1,.09.15.68.68,0,0,1,0,.14.3.3,0,0,0,0,.13,1.31,1.31,0,0,0,0,.15l0,.09a.82.82,0,0,1,0,.27,1.13,1.13,0,0,0,0,.26,1.49,1.49,0,0,1,0,.21q0,.12,0,.21a.75.75,0,0,0,0,.23Zm-2.44-1.36s0-.06,0-.12a.22.22,0,0,0-.09-.12.19.19,0,0,0-.09-.14s0-.05,0-.09a.34.34,0,0,0-.14-.09c-.06,0-.08-.07-.07-.14a.08.08,0,0,1-.11,0,.09.09,0,0,0-.06-.07.44.44,0,0,1-.15-.17.3.3,0,0,0-.1-.14.11.11,0,0,0-.11,0s-.06,0-.06-.08a.55.55,0,0,1-.42-.09,1.62,1.62,0,0,1-.28-.25,1,1,0,0,1-.34,0h-.36a.41.41,0,0,0-.24-.07.74.74,0,0,1-.27,0s-.07,0-.07-.07,0-.06-.1-.06a.31.31,0,0,1-.23,0,.61.61,0,0,0-.24-.07.79.79,0,0,1-.29.11,1.77,1.77,0,0,0-.31.08.43.43,0,0,0-.19.16l-.15.18-.24.27-.22.27a.27.27,0,0,1,0,.16.19.19,0,0,0,0,.15.4.4,0,0,0-.16.26c0,.12-.06.24-.08.35a1.22,1.22,0,0,0,.27,0l.33,0a.2.2,0,0,1,.11,0h.11a1.41,1.41,0,0,1,.44,0h.34a1.84,1.84,0,0,0,.33,0,.5.5,0,0,1,.3,0,1,1,0,0,1,.43-.07l.4,0a.32.32,0,0,0,.15,0h0a5.35,5.35,0,0,1,1,0A3.16,3.16,0,0,0,98.11,17.29Z"/><path class="cls-2" d="M111.46,18.65a1.73,1.73,0,0,0,0,.33.25.25,0,0,1,0,.18.17.17,0,0,1-.13.1.22.22,0,0,0-.12.11.58.58,0,0,0-.23,0l-.2,0a.48.48,0,0,0-.33-.08.5.5,0,0,1-.35-.09.36.36,0,0,1-.19.05,1.41,1.41,0,0,1-.5,0c-.17,0-.35-.06-.53-.09h-.75l-.28,0a.61.61,0,0,1-.24-.07.7.7,0,0,0-.25-.05.5.5,0,0,0-.21,0,.78.78,0,0,1-.21,0l-.27,0a.69.69,0,0,1-.19,0h-.09l-.23,0a.2.2,0,0,1-.19-.09.4.4,0,0,1-.12.07l-.19,0-.13,0h-.07a.37.37,0,0,1-.2,0,.27.27,0,0,1-.26,0,.17.17,0,0,1-.12,0,1.07,1.07,0,0,0-.36,0,1.29,1.29,0,0,1-.29,0,1.09,1.09,0,0,1-.26,0,.85.85,0,0,0-.32,0,.74.74,0,0,0-.06.38.74.74,0,0,0,.13.37.21.21,0,0,1,0,.14.44.44,0,0,0,0,.13,1.41,1.41,0,0,0,.23.27,1,1,0,0,1,.14.17,1.71,1.71,0,0,0,.21.26,2,2,0,0,1,.22.27.34.34,0,0,0,.09.14.47.47,0,0,1,.11.13,1,1,0,0,1,.23.1l.23.16a1.11,1.11,0,0,1,.26.18.67.67,0,0,0,.2.12.2.2,0,0,0,.14,0,.18.18,0,0,1,.1,0A.56.56,0,0,1,106,22a.52.52,0,0,0,.23.1h.27l.15,0a.65.65,0,0,0,.41-.11h.27a.46.46,0,0,1,.23-.1.28.28,0,0,0,.13,0l.09-.06.08,0,.18-.09.16-.12a1.07,1.07,0,0,0,.22-.15,1.17,1.17,0,0,0,.3-.29,1.74,1.74,0,0,1,.28-.32,1,1,0,0,1,.07-.34,1.26,1.26,0,0,1,.13-.26.85.85,0,0,1,0-.3.71.71,0,0,1,.11-.21l.15,0a.27.27,0,0,1,.17,0l.09.05.13.06a.22.22,0,0,0,.11.05l.18,0a.58.58,0,0,0,.17.05l.1,0a.47.47,0,0,0,.25.05.39.39,0,0,1,.19,0c.13.1.2.16.22.21a.62.62,0,0,1-.11.37c-.06.13-.09.2-.08.23a.31.31,0,0,1,0,.13.22.22,0,0,1,0,.08.28.28,0,0,0-.05.11,1.33,1.33,0,0,0,0,.19,1,1,0,0,1-.07.2l-.21.24a.48.48,0,0,1-.17.12.08.08,0,0,1,0,.12l-.1.08a.47.47,0,0,1-.15.19l-.21.15a1.31,1.31,0,0,1-.28.2l-.28.17-.25.22a.56.56,0,0,1-.17.09l-.13.06a.1.1,0,0,1-.06,0,.41.41,0,0,1-.19,0,.69.69,0,0,0-.2,0,2.3,2.3,0,0,1-.33.1l-.27.06-.15.05a.72.72,0,0,1-.21,0,.34.34,0,0,0-.25,0,.14.14,0,0,1-.17,0l-.31.06a.48.48,0,0,1-.23,0,.22.22,0,0,1-.11,0l-.1,0-.52-.07a1.28,1.28,0,0,1-.35-.07h-.1s-.06,0-.08-.07a.5.5,0,0,1-.32,0,1.52,1.52,0,0,1-.23-.16l-.09,0-.09,0-.24-.11a.44.44,0,0,1-.19-.19.22.22,0,0,1-.19-.07l-.15-.14a.45.45,0,0,1-.25-.07.77.77,0,0,1-.18-.18,2.27,2.27,0,0,0-.25-.27c-.12-.13-.22-.23-.29-.32a.64.64,0,0,0-.25-.18.62.62,0,0,0-.11-.17,1,1,0,0,1-.13-.15L102,21l-.07-.09-.06-.26-.06-.26a1.6,1.6,0,0,1,0-.27.47.47,0,0,0,0-.17.49.49,0,0,0,0-.11.3.3,0,0,1,0-.1.47.47,0,0,1,0-.17.62.62,0,0,0,0-.19l0-.16a.78.78,0,0,1,0-.16,2.29,2.29,0,0,1,0-.25,2.11,2.11,0,0,0,0-.26s0-.05,0-.09a.38.38,0,0,1,0-.1.7.7,0,0,1,.06-.17.94.94,0,0,0,.06-.18.33.33,0,0,1,0-.22.1.1,0,0,0,0-.11.19.19,0,0,0,0-.09.19.19,0,0,1,0-.09.49.49,0,0,0,0-.12.34.34,0,0,1,0-.16.77.77,0,0,1,.11-.16l0,0a.91.91,0,0,1,0-.16.22.22,0,0,1,0-.08l.11-.2,0-.07a.43.43,0,0,1,0-.15l0-.05c0-.07,0-.13,0-.18a.47.47,0,0,1,0-.16,1.42,1.42,0,0,1,.08-.18.54.54,0,0,1,.14-.16l.15-.35.14-.28a1.16,1.16,0,0,0,.26-.28,1.38,1.38,0,0,1,.27-.27l.07,0,.11,0a2.1,2.1,0,0,0,.28-.22.56.56,0,0,1,.2-.12,1.06,1.06,0,0,1,.32,0,.32.32,0,0,0,.29-.12.54.54,0,0,0,.21,0l.2-.09.15-.08a.58.58,0,0,1,.24,0h.23a1.38,1.38,0,0,0,.25-.05l.15,0,.19,0a2.31,2.31,0,0,0,.4,0h.33a.55.55,0,0,0,.18,0,.63.63,0,0,1,.19,0,.5.5,0,0,0,.17,0l.16,0,.14,0h0a.34.34,0,0,1,.15.06l.14.08a.17.17,0,0,0,.1,0,.1.1,0,0,1,.09,0l.21.08.22.07a.2.2,0,0,1,.13.15.66.66,0,0,1,.28.14,1,1,0,0,0,.18.13,1,1,0,0,1,.14.15.4.4,0,0,0,.15.14.39.39,0,0,0,0,.09.19.19,0,0,1,0,.1,1,1,0,0,1,.24.21.69.69,0,0,0,.29.2,1.17,1.17,0,0,0,.12.2.52.52,0,0,1,.09.24l.07.11.1.15.06.08.06.1a2,2,0,0,0,.18.36l.1.12a.46.46,0,0,1,.09.15.68.68,0,0,1,0,.14.57.57,0,0,0,0,.13.65.65,0,0,1,.05.15l0,.09a.82.82,0,0,1,0,.27.57.57,0,0,0,0,.26,1.49,1.49,0,0,1,0,.21q0,.12,0,.21a1.48,1.48,0,0,0,0,.23ZM109,17.29s0-.06,0-.12a.27.27,0,0,0-.09-.12.2.2,0,0,0-.1-.14s0-.05,0-.09a.34.34,0,0,0-.14-.09c-.06,0-.08-.07-.07-.14a.08.08,0,0,1-.11,0,.14.14,0,0,0-.06-.07.44.44,0,0,1-.15-.17.39.39,0,0,0-.1-.14.11.11,0,0,0-.11,0s-.06,0-.06-.08a.54.54,0,0,1-.42-.09,1.62,1.62,0,0,1-.28-.25,1,1,0,0,1-.34,0h-.36a.41.41,0,0,0-.24-.07.71.71,0,0,1-.27,0s-.07,0-.07-.07,0-.06-.1-.06a.3.3,0,0,1-.23,0,.61.61,0,0,0-.25-.07.75.75,0,0,1-.28.11,1.57,1.57,0,0,0-.31.08.43.43,0,0,0-.19.16l-.15.18-.24.27-.22.27a.21.21,0,0,1,0,.16.24.24,0,0,0,0,.15.37.37,0,0,0-.16.26c0,.12-.06.24-.08.35a1.22,1.22,0,0,0,.27,0l.32,0a.22.22,0,0,1,.11,0h.11a1.47,1.47,0,0,1,.45,0h.34a1.84,1.84,0,0,0,.33,0,.51.51,0,0,1,.3,0,1,1,0,0,1,.43-.07l.4,0a.32.32,0,0,0,.15,0h0a5.22,5.22,0,0,1,1,0A3.22,3.22,0,0,0,109,17.29Z"/><path class="cls-2" d="M132.93,16.42a.57.57,0,0,1,0,.18.62.62,0,0,0,0,.18,1,1,0,0,0,0,.34,1.2,1.2,0,0,1,0,.33,2.19,2.19,0,0,0,0,.33.9.9,0,0,1,0,.18.56.56,0,0,1,0,.12.65.65,0,0,0,0,.13,1.63,1.63,0,0,0-.05.33.79.79,0,0,1-.06.32l-.07.11-.08.12a1.21,1.21,0,0,0,0,.14.88.88,0,0,1-.05.15,1.23,1.23,0,0,1-.12.26l-.14.24a1.54,1.54,0,0,1-.15.29l-.13.18a1.43,1.43,0,0,0-.15.22.6.6,0,0,1-.18.21.3.3,0,0,1-.06.14.52.52,0,0,0-.07.15.75.75,0,0,1-.16.24.39.39,0,0,0-.1.18,2.22,2.22,0,0,0,.18.33.55.55,0,0,1,.11.23.24.24,0,0,1,.1.1.8.8,0,0,0,.09.14,1.39,1.39,0,0,0,.15.22.42.42,0,0,1,.1.17.5.5,0,0,1,.14.1.77.77,0,0,0,.13.12l.08.1s0,0,.06.09l.18.29c.06.1.13.2.19.31a.49.49,0,0,1,0,.25.1.1,0,0,0,.08.08.14.14,0,0,1,.12.06.43.43,0,0,1,.14.3.42.42,0,0,1-.14.34,1,1,0,0,1-.35,0h-.38a2.58,2.58,0,0,0-.43.07.94.94,0,0,1-.37,0,.15.15,0,0,0-.11.06s-.06,0-.14,0a.28.28,0,0,1-.18-.17,1.47,1.47,0,0,0-.1-.22.51.51,0,0,0-.09-.16l-.11-.16-.12-.16a.57.57,0,0,0-.12-.15,2.37,2.37,0,0,0-.47-.48.57.57,0,0,0-.28-.27c0-.05,0-.11-.07-.17a.33.33,0,0,0-.13-.13.3.3,0,0,0-.14.11.8.8,0,0,0-.08.16.31.31,0,0,0-.19.08.5.5,0,0,1-.17.11,1.44,1.44,0,0,1-.52.08,1.54,1.54,0,0,0-.43,0,.28.28,0,0,0-.11.05l-.11.07-.25.06-.18,0-.17,0-.17,0-.28,0a.86.86,0,0,1-.31,0,.22.22,0,0,1-.19-.08.85.85,0,0,1-.25.05.6.6,0,0,1-.22,0,.59.59,0,0,0-.23,0,.83.83,0,0,0-.27,0,.23.23,0,0,1-.2-.1.51.51,0,0,1-.22,0,1,1,0,0,0-.21-.07l-.3-.07a1.33,1.33,0,0,1-.28-.1,1.08,1.08,0,0,0-.26-.14.33.33,0,0,1-.21-.17.46.46,0,0,1-.22-.07l-.12,0a.35.35,0,0,1-.12,0,.39.39,0,0,1-.16-.1.32.32,0,0,0-.2-.07,1,1,0,0,0-.25-.25.55.55,0,0,0-.14-.13.3.3,0,0,1-.1-.14l-.1,0a.31.31,0,0,0-.09-.07l-.17-.14-.07-.08-.27-.31-.2-.22a.41.41,0,0,0-.13-.12A.1.1,0,0,1,121,21a.71.71,0,0,1-.1-.2.19.19,0,0,0,0-.09l-.08-.1a.48.48,0,0,0-.11-.09.93.93,0,0,0-.08-.22.77.77,0,0,1-.07-.2.38.38,0,0,0-.19-.19.53.53,0,0,0-.11-.21.61.61,0,0,1-.11-.23.78.78,0,0,1,0-.21.19.19,0,0,1-.13-.13c0-.07,0-.14-.07-.22a.6.6,0,0,1-.09-.28.35.35,0,0,0-.1-.22.42.42,0,0,0,0-.15l0,0a.43.43,0,0,1,0-.11.2.2,0,0,0,0-.11l0-.1a.5.5,0,0,1,0-.13,1.31,1.31,0,0,1-.06-.31c0-.12,0-.25,0-.38a.43.43,0,0,1,0-.11.31.31,0,0,0,0-.08c0-.11,0-.22,0-.32a1.09,1.09,0,0,0,0-.31.33.33,0,0,0,.09-.25.62.62,0,0,1,.07-.31,1.61,1.61,0,0,0,0-.44,1.61,1.61,0,0,1,0-.38.26.26,0,0,1,.07-.11s0-.07,0-.13.1,0,.1-.11,0-.11.09-.11a.85.85,0,0,1,.28-.66.21.21,0,0,1,.06-.17l.11-.12c0-.07,0-.11,0-.13s0-.05,0-.11l.07-.07a.39.39,0,0,0,.08-.1.51.51,0,0,0,0-.09l.06-.09a1.59,1.59,0,0,1,.2-.24l.21-.21.29-.3a1.15,1.15,0,0,0,.19-.26.21.21,0,0,0,.12,0l.06-.07a.85.85,0,0,1,.14-.1l.17-.12a.31.31,0,0,0,.12-.07.46.46,0,0,0,.07-.07.55.55,0,0,0,.2-.13.09.09,0,0,1,.1,0,.53.53,0,0,1,.24-.17l.33-.11.29-.13a1.2,1.2,0,0,0,.27-.16l.34-.07.34-.05.33,0,.28-.05h.9a3.44,3.44,0,0,0,.46,0,.79.79,0,0,1,.43.06.13.13,0,0,1,.1,0,.31.31,0,0,0,.12,0,3.7,3.7,0,0,0,.48.08.59.59,0,0,1,.38.18.58.58,0,0,1,.32,0l.3.1.11.05a.08.08,0,0,1,.07.07.4.4,0,0,1,.24,0,.62.62,0,0,0,.27,0,.8.8,0,0,0,.2.08h.11a1.12,1.12,0,0,0,.29.21.56.56,0,0,1,.24.26.15.15,0,0,1,.12,0,.2.2,0,0,0,.11,0l.1.06.09.07.15.12.14.14a.34.34,0,0,1,.11.18.92.92,0,0,0,.11.23.53.53,0,0,0,.12.17.27.27,0,0,1,.1.18l.1.09.09.1a.47.47,0,0,0,.09.1l.08.07a1.57,1.57,0,0,0,.2.25,1.36,1.36,0,0,1,.21.28c0,.08.09.15.13.22l.11.19a2.08,2.08,0,0,1,.12.35.7.7,0,0,0,.08.27,1.36,1.36,0,0,1,.2.4,1.8,1.8,0,0,0,.16.34v.18a.24.24,0,0,1,.06.15.31.31,0,0,0,0,.16.14.14,0,0,1,.06.12.49.49,0,0,1,0,.12,1.49,1.49,0,0,0,0,.24S132.93,16.39,132.93,16.42Zm-2.09.53c0-.12,0-.21,0-.26a.83.83,0,0,1,0-.13.65.65,0,0,0,0-.13.24.24,0,0,0,0-.12.51.51,0,0,0-.1-.24.72.72,0,0,1-.14-.24,3.57,3.57,0,0,0-.07-.37.57.57,0,0,1,0-.26.44.44,0,0,1-.17-.23,1.8,1.8,0,0,1-.09-.28.38.38,0,0,0-.12-.09l-.12-.08c-.08-.09-.13-.16-.16-.2a.62.62,0,0,0-.08-.12.27.27,0,0,0-.14-.13s-.07,0-.08,0a.37.37,0,0,0-.14-.22.48.48,0,0,1-.16-.23.33.33,0,0,1-.19-.11.43.43,0,0,0-.19-.11.61.61,0,0,0-.22-.23l-.27-.16a.33.33,0,0,0-.12-.05.14.14,0,0,1-.1-.08l-.21,0a.5.5,0,0,0-.26-.14l-.35,0a.37.37,0,0,0-.22-.12.61.61,0,0,0-.27,0,.21.21,0,0,1-.21,0H126l-.4,0a.12.12,0,0,1-.11,0s0-.05-.11,0a2.5,2.5,0,0,1-.29.24l-.2.06a.43.43,0,0,0-.16,0,.68.68,0,0,0-.25.14.31.31,0,0,1-.27.06.35.35,0,0,1-.33.15.37.37,0,0,1-.19.14,1,1,0,0,0-.21.08.91.91,0,0,0-.19.13.4.4,0,0,1-.22.09.56.56,0,0,1-.43.41l-.18.23a2.35,2.35,0,0,1-.19.25.29.29,0,0,1,0,.14.35.35,0,0,0,0,.15.22.22,0,0,0-.05.08.35.35,0,0,1-.06.09.27.27,0,0,1-.06.25,1,1,0,0,0-.12.23.24.24,0,0,0,0,.15,1,1,0,0,1,0,.17l-.06.12a.16.16,0,0,0,0,.1.46.46,0,0,0,0,.23.53.53,0,0,1,0,.24.84.84,0,0,0-.06.18.08.08,0,0,1,0,.06.62.62,0,0,0-.08.18.36.36,0,0,1,0,.11.42.42,0,0,0,0,.28,1,1,0,0,0,.07.15s0,.09,0,.13a.39.39,0,0,0,.05.14.78.78,0,0,1,0,.14s0,.09,0,.15a.49.49,0,0,1,0,.15.28.28,0,0,0,0,.15l.08.12s0,0,0,.05l.06.09a.27.27,0,0,0,.06.1l.13.17a1.36,1.36,0,0,1,.12.17.62.62,0,0,1,.12.19c0,.08.07.15.1.23a.3.3,0,0,1,0,.23.29.29,0,0,1,.13.14l.09.16a.65.65,0,0,0,.15.12l.16.18a.61.61,0,0,1,.13.16.45.45,0,0,1,.22.21l.37.13a.88.88,0,0,1,.26.12.67.67,0,0,0,.2.12l.11.05a.64.64,0,0,0,.18.06l.19.06h.19a.86.86,0,0,1,.21.07,1.11,1.11,0,0,0,.22.07.34.34,0,0,0,.2,0,.47.47,0,0,1,.2,0,1.6,1.6,0,0,0,.27.08.18.18,0,0,1,.11,0,.07.07,0,0,1,.1-.05.38.38,0,0,0,.15,0l.14,0,.15,0a.32.32,0,0,0,.19,0l.08,0h.23a.38.38,0,0,0,.23-.1s0-.06,0-.07a1.61,1.61,0,0,0-.15-.34,1.89,1.89,0,0,1-.1-.21.61.61,0,0,1,0-.12l0-.11a2.58,2.58,0,0,0-.16-.33.38.38,0,0,1-.08-.17.39.39,0,0,1-.18-.18c0-.07-.09-.14-.14-.21s0-.09,0-.11a.09.09,0,0,1,0-.09.31.31,0,0,0-.08-.11.29.29,0,0,1-.07-.1.33.33,0,0,1,0-.12.32.32,0,0,0,0-.13.73.73,0,0,0-.2-.13.11.11,0,0,1-.08-.11c-.12,0-.19,0-.2-.09a.28.28,0,0,1,0-.3l.14-.1.12-.09a.8.8,0,0,1,.22,0,.62.62,0,0,0,.27,0,.56.56,0,0,0,.22-.06,1.47,1.47,0,0,1,.45,0,.1.1,0,0,0,.1-.05s.07,0,.13,0a.35.35,0,0,0,.15.07.24.24,0,0,1,.13.11.13.13,0,0,1,0,.11s0,.08,0,.12a1.05,1.05,0,0,1,.39.37c0,.06,0,.11.06.15a.39.39,0,0,0,0,.14l.21.21a.28.28,0,0,1,.08.2c.2.17.37.32.5.45a2,2,0,0,0,.43.33.29.29,0,0,0,.18-.16.28.28,0,0,1,.14-.16.49.49,0,0,1,.11-.23.36.36,0,0,0,.1-.25.24.24,0,0,0,.08-.09.36.36,0,0,0,.07-.1s.05-.12.08-.21,0-.16.07-.21a.58.58,0,0,1,.07-.18l.05-.06a1.88,1.88,0,0,0,.05-.2.68.68,0,0,1,0-.14.89.89,0,0,0,.12-.49A1.55,1.55,0,0,1,130.84,17Z"/><path class="cls-2" d="M144.29,14.35a.54.54,0,0,1,0,.2.76.76,0,0,0,0,.21,1.15,1.15,0,0,0,0,.18c0,.07,0,.14,0,.19a1.37,1.37,0,0,1,0,.34c0,.13,0,.26,0,.41s0,.22,0,.32a.61.61,0,0,1-.06.31.81.81,0,0,1,0,.32c0,.13,0,.27,0,.43a.59.59,0,0,0,0,.13.5.5,0,0,1,0,.12.3.3,0,0,0,0,.15.08.08,0,0,1,0,.07.48.48,0,0,1,0,.18.49.49,0,0,0,0,.16.34.34,0,0,0,0,.14c0,.05,0,.09,0,.14l0,.13,0,.16c0,.13,0,.28,0,.44a3.4,3.4,0,0,1-.07.46.83.83,0,0,0-.1.29,1.55,1.55,0,0,1,0,.23,1,1,0,0,0-.06.19q0,.09-.06.21c0,.05-.05.15-.09.28l-.08.33,0,.1a.51.51,0,0,1,0,.12l-.06.15a.42.42,0,0,1-.06.14.4.4,0,0,0-.06.13.06.06,0,0,1,0,.05l-.1.1s0,0,0,0a1.76,1.76,0,0,0-.12.2,2.22,2.22,0,0,1-.15.23.54.54,0,0,0-.14.18,1.4,1.4,0,0,1-.17.2,1.19,1.19,0,0,1-.2.19.37.37,0,0,1-.13.12.42.42,0,0,0-.14.09l-.21.21a.42.42,0,0,1-.13.11.66.66,0,0,1-.39.09.68.68,0,0,1-.39.22l-.5.1a.39.39,0,0,1-.19-.17.17.17,0,0,0-.11.06.16.16,0,0,1-.12,0l-.15,0a.28.28,0,0,0-.13,0,.4.4,0,0,1-.22,0,2.08,2.08,0,0,1-.3,0h-.16l-.15,0a1.17,1.17,0,0,0-.59-.14.22.22,0,0,0-.15-.1.67.67,0,0,1-.18-.07l-.18-.14s-.07,0-.06-.08a.45.45,0,0,0-.17-.1s-.05,0,0-.1h-.11l-.11-.06a.24.24,0,0,1-.08-.09s0,0-.11,0a.16.16,0,0,0-.09-.09s-.06,0-.06-.1a.17.17,0,0,1-.13,0,.21.21,0,0,0-.11-.07.72.72,0,0,0-.19-.24l-.27-.2-.11-.08a.26.26,0,0,1-.09-.09.56.56,0,0,1-.1-.14c0-.05-.06-.11-.09-.17l-.14-.17a.14.14,0,0,0-.05-.08.58.58,0,0,1-.15-.12l0-.05a1.28,1.28,0,0,1-.1-.15.33.33,0,0,1-.06-.19.35.35,0,0,0-.06-.09.36.36,0,0,1-.07-.1.12.12,0,0,0,0-.13.3.3,0,0,1-.06-.14,1.39,1.39,0,0,1,0-.3,1.27,1.27,0,0,0,0-.29.81.81,0,0,0-.13-.28.38.38,0,0,0,0-.24.6.6,0,0,0-.08-.08.52.52,0,0,0-.08-.39.45.45,0,0,0,0-.36.45.45,0,0,1,0-.34.17.17,0,0,0,0-.12s0-.08,0-.15a1,1,0,0,1,0-.36.13.13,0,0,0,0-.11l-.06-.13a.53.53,0,0,1,0-.23.82.82,0,0,0,0-.26.22.22,0,0,0,0-.12.17.17,0,0,1,0-.1.18.18,0,0,1,0-.11.31.31,0,0,0,.05-.1,2.14,2.14,0,0,1,0-.34,1.4,1.4,0,0,0,0-.35c.08-.1.11-.17.09-.2a.31.31,0,0,1,0-.11,1.68,1.68,0,0,0,.17-.42c0-.05,0-.09,0-.13a.2.2,0,0,1,0-.11,1.23,1.23,0,0,0,0-.27.31.31,0,0,1,0-.16.41.41,0,0,1,.11-.22,1.1,1.1,0,0,1-.06-.26.39.39,0,0,1,0-.28.34.34,0,0,1,.2-.06.6.6,0,0,0,.19-.06.14.14,0,0,0,.12,0c.06,0,.08,0,.08.06l.26-.06.14,0h.68a1.19,1.19,0,0,1,.12.29,1.46,1.46,0,0,1,.05.27,3.62,3.62,0,0,1,0,.58c0,.2,0,.41,0,.63a.57.57,0,0,0,0,.13.25.25,0,0,1,0,.12,4.35,4.35,0,0,0,0,.43.69.69,0,0,0,0,.22,1.76,1.76,0,0,1,.06.42c0,.13,0,.21,0,.26a.46.46,0,0,0,0,.26.32.32,0,0,1,0,.27.72.72,0,0,1,.14.44c0,.17,0,.35,0,.54a1.55,1.55,0,0,0,.05.23,1.06,1.06,0,0,1,0,.27.47.47,0,0,0,0,.2.3.3,0,0,1,0,.12c0,.12,0,.25,0,.37a.85.85,0,0,0,0,.36.74.74,0,0,0,0,.14l.06.13a1.54,1.54,0,0,1,.05.17.23.23,0,0,0,0,.12.31.31,0,0,0,.07.09l.07.06.21.26a.36.36,0,0,0,.18.12.36.36,0,0,0,0,.11.36.36,0,0,1,0,.09l.13,0,.15,0a.21.21,0,0,0,.1.11.17.17,0,0,1,.1.1.33.33,0,0,1,.27.1.26.26,0,0,1,.21,0,.62.62,0,0,0,.25.05l.14,0,.13,0,.51-.07a.9.9,0,0,0,.38-.12.37.37,0,0,1,.11-.11l.08-.06c.07-.09.12-.17.18-.24l.14-.19a.47.47,0,0,0,.15-.18l.08-.15a.32.32,0,0,1,.11-.12.72.72,0,0,1,.08-.3,1.42,1.42,0,0,1,.14-.23,1.15,1.15,0,0,1,0-.19.17.17,0,0,1,.08-.14.08.08,0,0,1,0-.11.27.27,0,0,0,0-.16.22.22,0,0,1,.05-.08.26.26,0,0,0,.07-.1.16.16,0,0,0,0-.1.08.08,0,0,1,0-.09,1,1,0,0,1-.06-.44c0-.17,0-.34.08-.5a.58.58,0,0,1,.05-.14.28.28,0,0,0,0-.13,1.42,1.42,0,0,1,0-.26.83.83,0,0,1,0-.15.77.77,0,0,0,0-.15.77.77,0,0,1,0-.15.43.43,0,0,1,0-.11.59.59,0,0,0,0-.13,1.11,1.11,0,0,0,0-.19,1.36,1.36,0,0,0,0-.17.59.59,0,0,1,0-.13.52.52,0,0,0,0-.14.54.54,0,0,0,0-.18,1.23,1.23,0,0,1,0-.19.51.51,0,0,1,0-.13.61.61,0,0,0,0-.15s0-.07,0-.11a.41.41,0,0,1,0-.11.55.55,0,0,1,0-.17.17.17,0,0,0,0-.17s-.06-.09,0-.12a.08.08,0,0,0,0-.07l-.05-.11a.46.46,0,0,0,0-.09l0-.07a.58.58,0,0,0,0-.19.52.52,0,0,1,0-.11.69.69,0,0,1,0-.2l0-.08a.45.45,0,0,1,.19-.14,1,1,0,0,1,.26-.06l.28,0h.29a1,1,0,0,1,.27,0h.13l.21-.05a.26.26,0,0,1,.24.06.48.48,0,0,1,.3-.09.33.33,0,0,1,.25.13.34.34,0,0,1,.06.12,1.2,1.2,0,0,0,0,.17.68.68,0,0,0,0,.12,1.1,1.1,0,0,1,0,.16.51.51,0,0,0,0,.21A.6.6,0,0,1,144.29,14.35Z"/><path class="cls-2" d="M155.8,18.11a.75.75,0,0,0,0,.3.25.25,0,0,1,0,.21.18.18,0,0,1,.07.2,1.38,1.38,0,0,1-.06.26.48.48,0,0,0,0,.17.15.15,0,0,1,0,.13l-.11.23s0,.06-.06.06a.38.38,0,0,1,0,.21c0,.07,0,.13-.07.2a.44.44,0,0,1-.06.17.1.1,0,0,0,0,.07,1.19,1.19,0,0,1,0,.23.39.39,0,0,1,0,.09l-.1.27c0,.1-.07.19-.1.28s-.11.22-.16.33a.75.75,0,0,1-.18.28v.11a.19.19,0,0,1,0,.11l-.16.15a.62.62,0,0,0-.13.19,1,1,0,0,1-.17.27.48.48,0,0,1-.16.13.86.86,0,0,0-.17.13h-.1s0,0-.08,0a1.07,1.07,0,0,1-.26.2,1.67,1.67,0,0,1-.34.14l-.14,0-.08,0-.21.08a1,1,0,0,1-.25,0,.67.67,0,0,0-.26,0l-.16,0a.93.93,0,0,1-.29,0h-.31a.29.29,0,0,0-.17,0,.1.1,0,0,1-.07,0h-.19a.17.17,0,0,0-.1,0l-.2.06a.48.48,0,0,1-.27,0,3,3,0,0,1-.58.08.72.72,0,0,1-.46-.13.33.33,0,0,1-.22,0,.57.57,0,0,0-.16,0h-.08l-.35-.1a1,1,0,0,1-.31-.16,1.79,1.79,0,0,1-.35-.15.77.77,0,0,0-.28-.09.73.73,0,0,1-.15-.17l-.09-.1-.08,0a.19.19,0,0,1-.09,0,1.1,1.1,0,0,0-.2-.15.15.15,0,0,1-.09-.06l-.07-.07-.07-.1a2.31,2.31,0,0,0-.22-.25.71.71,0,0,0-.13-.12.19.19,0,0,0,0-.1.16.16,0,0,1,0-.12.83.83,0,0,1-.14-.14l0,0a1.41,1.41,0,0,0-.21-.27.61.61,0,0,1,0-.12c0-.05,0-.11-.05-.19a1.84,1.84,0,0,0-.07-.24.28.28,0,0,1,0-.18.35.35,0,0,0-.07-.09.16.16,0,0,1-.06-.08.6.6,0,0,1,0-.26.65.65,0,0,0,0-.24l-.06-.15a.14.14,0,0,1,0-.15.35.35,0,0,1-.08-.13.35.35,0,0,0-.08-.13.28.28,0,0,0,0-.2.6.6,0,0,1-.05-.24c0-.05,0-.09,0-.13l0-.14v-.29a1.06,1.06,0,0,1,0-.19l.06-.17a1.41,1.41,0,0,0,0-.18.13.13,0,0,1,.06-.11.58.58,0,0,1,0-.41.9.9,0,0,0,.09-.4.31.31,0,0,0,0-.1.19.19,0,0,1,.05-.09.68.68,0,0,1,.06-.31,1.06,1.06,0,0,0,.09-.25.25.25,0,0,0,.15-.11,1.29,1.29,0,0,1,.09-.16.38.38,0,0,0,.14-.17.09.09,0,0,1,.11-.07l.17-.26a.55.55,0,0,1,.17-.17l.17-.08a.18.18,0,0,0,.07-.05l.09-.1.06-.07a1.53,1.53,0,0,1,.31-.19.49.49,0,0,1,.13-.12l.16-.1a.7.7,0,0,1,.19-.1.13.13,0,0,1,.08,0l.15-.09a.15.15,0,0,1,.18,0,1,1,0,0,1,.73-.21l.41-.1a1.24,1.24,0,0,1,.35,0l.13,0,.11,0,.16,0,.16,0,.34,0a1,1,0,0,1,.24,0,.82.82,0,0,0,.27,0h.11l.1,0,.08,0A1,1,0,0,0,152,14l.13,0a.35.35,0,0,1,.14,0l.13.05.14.05.14,0a1.33,1.33,0,0,0,.44,0,.94.94,0,0,1,.44.09l.08,0,.11.07a.33.33,0,0,1,.12.05l.06,0a2.47,2.47,0,0,1,.46.29l.33.27a.33.33,0,0,0,0,.15l.07.12.14.13.11.13a.07.07,0,0,1,0,.08.14.14,0,0,0,0,.12,1.07,1.07,0,0,0,.09.19l.11.19c0,.09,0,.14,0,.15a.74.74,0,0,1,.06.14,1.09,1.09,0,0,1,.09.21.34.34,0,0,0,.19.18.25.25,0,0,0,0,.18.62.62,0,0,1,.07.19,1.93,1.93,0,0,1,0,.24v.22a1.07,1.07,0,0,0,0,.26A.41.41,0,0,1,155.8,18.11Zm-2-.19a.55.55,0,0,1,0-.17.28.28,0,0,0,0-.12,1.7,1.7,0,0,0-.1-.32,1.18,1.18,0,0,1-.1-.36.74.74,0,0,1,0-.21.63.63,0,0,0,0-.23.12.12,0,0,1-.07-.1.14.14,0,0,0-.06-.1.36.36,0,0,0-.1-.11.14.14,0,0,1-.09-.12,1.91,1.91,0,0,1-.32-.17,1.87,1.87,0,0,1-.34,0,.32.32,0,0,1-.13-.07l-.11-.05a.22.22,0,0,0-.19,0s-.1,0-.2,0a.22.22,0,0,1-.13-.12.28.28,0,0,0-.13-.15.17.17,0,0,0-.11,0h-.11a.11.11,0,0,1-.07-.06s0,0-.1,0l-.33.09a.53.53,0,0,1-.37,0,.27.27,0,0,0-.12.05l-.1.07s0-.05-.07,0h-.11a1.29,1.29,0,0,1-.33.18l-.32.14a.7.7,0,0,0-.2.12l-.09.11a.43.43,0,0,0-.09.1l-.11.08a1.4,1.4,0,0,0-.36.27.91.91,0,0,1-.26.19.27.27,0,0,1-.11.21.55.55,0,0,0-.14.22,1.67,1.67,0,0,0-.06.2q0,.12-.06.21a1.31,1.31,0,0,0-.09.51.73.73,0,0,1-.1.39s0,.05,0,.1a.29.29,0,0,0,0,.13.7.7,0,0,1,.06.17.31.31,0,0,1,0,.19,1.42,1.42,0,0,0,0,.24.35.35,0,0,1,.08.15.08.08,0,0,0,0,.07.21.21,0,0,0,.06.1.17.17,0,0,1,0,.14.15.15,0,0,1,.09.1.11.11,0,0,0,.08.1.21.21,0,0,0,0,.21.3.3,0,0,1,0,.25c.06.05.09.08.09.1a.15.15,0,0,0,0,.07l.08.08a.17.17,0,0,1,0,.13.33.33,0,0,1,.15.11.62.62,0,0,0,.14.14l.08.06.07.06a.56.56,0,0,1,.14.1.41.41,0,0,0,.1.09c.06.05.11.09.15.09a.34.34,0,0,1,.12,0l.1.07.07.05a.72.72,0,0,0,.29.06.41.41,0,0,1,.28.15.61.61,0,0,1,.24,0,.62.62,0,0,0,.28,0,.11.11,0,0,1,.1,0,.16.16,0,0,0,.12,0l.12,0,.12,0a.29.29,0,0,1,.16,0,.39.39,0,0,0,.15,0l.19-.06.16-.09.16-.09a.29.29,0,0,1,.17-.05.16.16,0,0,1,.07-.12l.12-.1.15-.14.12-.15a.44.44,0,0,1,.08-.11s.06-.06.09-.09a2.7,2.7,0,0,0,.2-.31l.17-.34a1,1,0,0,0,.1-.17.88.88,0,0,0,.09-.2.58.58,0,0,1,0-.21.06.06,0,0,0,0-.08c0-.09,0-.17.06-.23a.44.44,0,0,0,0-.2.24.24,0,0,0,.08-.2,1.47,1.47,0,0,1,0-.27.53.53,0,0,1,.05-.15.29.29,0,0,0,0-.14,1,1,0,0,0,0-.31Z"/><path class="cls-2" d="M162.37,14.81a.93.93,0,0,0,0,.24.17.17,0,0,1,0,.1.3.3,0,0,1-.12.16.91.91,0,0,0-.16.11.36.36,0,0,0-.3,0l-.27.08h-.22a.75.75,0,0,0-.26,0,1.11,1.11,0,0,1-.22.07h-.15a.24.24,0,0,0-.16,0,.62.62,0,0,0,0,.33,1.15,1.15,0,0,1,0,.37,2.15,2.15,0,0,0,0,.43,1.69,1.69,0,0,1,0,.3,2.71,2.71,0,0,1,0,.29.4.4,0,0,0,.06.26.77.77,0,0,0-.06.24,2.72,2.72,0,0,0,0,.28,2.52,2.52,0,0,0,0,.55c0,.2,0,.38,0,.54a2.11,2.11,0,0,0,0,.21,1.38,1.38,0,0,1,0,.2.34.34,0,0,0,0,.17.17.17,0,0,1,0,.07,2.52,2.52,0,0,0,0,.39c0,.15,0,.3,0,.46a1.09,1.09,0,0,1,0,.22.5.5,0,0,0,0,.12c0,.09,0,.18.05.29a.4.4,0,0,1-.1.3.17.17,0,0,0,0,.1.25.25,0,0,1,0,.09.47.47,0,0,0,0,.2.3.3,0,0,1,0,.11,1.17,1.17,0,0,0,0,.31l0,.25a.82.82,0,0,1-.22.69l-.43-.06a1,1,0,0,0-.43,0l-.21,0a.33.33,0,0,1-.23,0,.32.32,0,0,0-.13.05.22.22,0,0,1-.1,0,.14.14,0,0,1-.12,0,.19.19,0,0,0-.12-.07,2.16,2.16,0,0,1,0-.51,4.69,4.69,0,0,0,0-.65.61.61,0,0,0,0-.14s0-.09,0-.15a1,1,0,0,1,0-.24,2.44,2.44,0,0,0,0-.27.45.45,0,0,1,0-.11.22.22,0,0,0,0-.11s0-.07,0-.07,0,0,0-.11a1.73,1.73,0,0,1,0-.41c0-.13.06-.25.08-.38a2.69,2.69,0,0,1,0-.29v-.16a.58.58,0,0,0,0-.16.51.51,0,0,1,0-.17.28.28,0,0,1,0-.1.25.25,0,0,0,0-.12,2.93,2.93,0,0,1,0-.52,2.26,2.26,0,0,0,0-.45,1.33,1.33,0,0,1-.05-.3,1,1,0,0,0,0-.19,2.11,2.11,0,0,1,0-.26,1.4,1.4,0,0,1,0-.29.5.5,0,0,1,0-.12.37.37,0,0,0,0-.12.4.4,0,0,0,0-.15.61.61,0,0,1,0-.15c0-.09,0-.19,0-.29a1.5,1.5,0,0,0,0-.29.76.76,0,0,0,0-.11.45.45,0,0,1,0-.11.85.85,0,0,1,0-.32.65.65,0,0,0,0-.31,4.53,4.53,0,0,0-.54.14l-.13,0a.48.48,0,0,0-.14.05l-.22.06c-.06,0-.12,0-.19-.05a.67.67,0,0,1-.19-.22.31.31,0,0,1,0-.22,1.14,1.14,0,0,1,.15-.17c0-.05,0-.08,0-.1a.33.33,0,0,0,0-.12,1.09,1.09,0,0,0,0-.18.47.47,0,0,1,0-.2,1,1,0,0,1,.09-.18c0-.06.05-.12.07-.17a.65.65,0,0,0,0-.24.49.49,0,0,1,0-.24c0-.19.17-.27.42-.22l.19.05a.15.15,0,0,1,.12.1.32.32,0,0,1,.23,0,.41.41,0,0,0,.21.05.59.59,0,0,0,.1-.41,5,5,0,0,1,0-.55.45.45,0,0,0,0-.22l0-.13a1.28,1.28,0,0,1,0-.48s0-.07,0-.11a.45.45,0,0,0,0-.11.47.47,0,0,0-.05-.24.32.32,0,0,0,0-.15l-.05-.08s0-.05-.05-.06a.16.16,0,0,1,0-.1.32.32,0,0,1,.17-.11h.14l.23-.05a.57.57,0,0,1,.25,0,.4.4,0,0,1,.24,0l.18,0a.33.33,0,0,0,.12-.05l.1,0a.21.21,0,0,0,.14,0c.06,0,.1,0,.12,0a.67.67,0,0,0,.12.14.09.09,0,0,1,0,.06,1.19,1.19,0,0,1,0,.39c0,.16,0,.3,0,.43a.92.92,0,0,1,0,.16V12a.76.76,0,0,1,0,.14.74.74,0,0,0,0,.12.58.58,0,0,1,0,.23.34.34,0,0,0,0,.11,1.08,1.08,0,0,0,.05.21c0,.06,0,.13-.08.21a.35.35,0,0,1,0,.2q0,.09,0,.21a.53.53,0,0,0,0,.12.53.53,0,0,1,0,.12.24.24,0,0,1,0,.15.19.19,0,0,0,0,.15.29.29,0,0,0,.24-.05,1,1,0,0,1,.21-.1.47.47,0,0,1,.21,0,.31.31,0,0,0,.21-.08.14.14,0,0,0,.19,0c.07-.05.12,0,.17,0a.56.56,0,0,1,.29-.15.65.65,0,0,1,.34,0,1.15,1.15,0,0,0,.1.18.35.35,0,0,1,0,.08.14.14,0,0,1,0,.09.28.28,0,0,0,0,.13,1.05,1.05,0,0,1,0,.18.17.17,0,0,0,0,.07,1.42,1.42,0,0,0,.05.22,1.8,1.8,0,0,1,0,.19Z"/><path class="cls-2" d="M173.12,18.65a.87.87,0,0,0,0,.33.26.26,0,0,1,0,.18.17.17,0,0,1-.13.1.22.22,0,0,0-.12.11.53.53,0,0,0-.22,0l-.21,0a.48.48,0,0,0-.33-.08.5.5,0,0,1-.35-.09.36.36,0,0,1-.19.05,1.41,1.41,0,0,1-.5,0c-.17,0-.35-.06-.53-.09h-.75l-.27,0a.66.66,0,0,1-.25-.07.66.66,0,0,0-.25-.05.5.5,0,0,0-.21,0,.75.75,0,0,1-.21,0l-.27,0a.68.68,0,0,1-.19,0H168l-.23,0a.2.2,0,0,1-.19-.09.4.4,0,0,1-.12.07l-.19,0-.13,0h-.07a.37.37,0,0,1-.2,0,.16.16,0,0,0-.14.05.14.14,0,0,0-.12,0,.17.17,0,0,1-.12,0,1.07,1.07,0,0,0-.36,0,1.29,1.29,0,0,1-.29,0,1.09,1.09,0,0,1-.26,0,.8.8,0,0,0-.31,0,.58.58,0,0,0-.06.38.74.74,0,0,0,.12.37.21.21,0,0,1,0,.14.44.44,0,0,0,0,.13,1.41,1.41,0,0,0,.23.27,1,1,0,0,1,.14.17,1.71,1.71,0,0,0,.21.26,2,2,0,0,1,.22.27.34.34,0,0,0,.09.14.47.47,0,0,1,.11.13,1,1,0,0,1,.23.1l.23.16a1.55,1.55,0,0,1,.27.18.52.52,0,0,0,.19.12.2.2,0,0,0,.14,0,.17.17,0,0,1,.1,0,.59.59,0,0,1,.19.12.44.44,0,0,0,.22.1h.27l.15,0a.65.65,0,0,0,.41-.11H169a.5.5,0,0,1,.23-.1.25.25,0,0,0,.13,0l.09-.06.08,0,.18-.09.16-.12a1.07,1.07,0,0,0,.22-.15,1.17,1.17,0,0,0,.3-.29,1.74,1.74,0,0,1,.28-.32,1,1,0,0,1,.07-.34,1.26,1.26,0,0,1,.13-.26.85.85,0,0,1,.05-.3.71.71,0,0,1,.11-.21l.15,0a.27.27,0,0,1,.17,0l.09.05.13.06a.27.27,0,0,0,.11.05l.18,0L172,20l.1,0a.47.47,0,0,0,.25.05.39.39,0,0,1,.19,0,1,1,0,0,1,.23.21.63.63,0,0,1-.12.37c-.06.13-.09.2-.08.23a.31.31,0,0,1,0,.13.22.22,0,0,1,0,.08.28.28,0,0,0-.05.11,1.33,1.33,0,0,0-.05.19,1,1,0,0,1-.07.2l-.21.24a.56.56,0,0,1-.16.12.08.08,0,0,1,0,.12l-.1.08a.45.45,0,0,1-.14.19l-.22.15a1.31,1.31,0,0,1-.28.2l-.28.17-.25.22a.46.46,0,0,1-.17.09l-.13.06a.1.1,0,0,1-.06,0,.41.41,0,0,1-.19,0,.69.69,0,0,0-.2,0l-.32.1a1.27,1.27,0,0,0-.28.06l-.15.05a.66.66,0,0,1-.2,0,.36.36,0,0,0-.26,0,.14.14,0,0,1-.17,0l-.31.06a.47.47,0,0,1-.23,0,.22.22,0,0,1-.11,0l-.1,0-.52-.07a1.14,1.14,0,0,1-.34-.07h-.11s-.06,0-.08-.07a.5.5,0,0,1-.32,0,1.52,1.52,0,0,1-.23-.16l-.09,0-.09,0-.24-.11a.44.44,0,0,1-.19-.19.22.22,0,0,1-.19-.07l-.15-.14a.45.45,0,0,1-.25-.07.58.58,0,0,1-.17-.18,2.27,2.27,0,0,0-.26-.27c-.12-.13-.22-.23-.29-.32a.64.64,0,0,0-.25-.18,1,1,0,0,0-.1-.17.67.67,0,0,1-.14-.15l-.12-.22-.07-.09-.06-.26a1.38,1.38,0,0,0-.06-.26,1.6,1.6,0,0,1-.05-.27.47.47,0,0,0,0-.17.49.49,0,0,0,0-.11.3.3,0,0,1,0-.1.47.47,0,0,1,0-.17.62.62,0,0,0,0-.19l0-.16a.78.78,0,0,1,0-.16,2.29,2.29,0,0,1,0-.25,2.11,2.11,0,0,0,0-.26s0-.05,0-.09a.38.38,0,0,1,0-.1.7.7,0,0,1,.06-.17.94.94,0,0,0,.06-.18.33.33,0,0,1,0-.22.1.1,0,0,0,0-.11.19.19,0,0,0,0-.09.39.39,0,0,1,0-.09.49.49,0,0,0,0-.12.34.34,0,0,1,0-.16.77.77,0,0,1,.11-.16l0,0a.91.91,0,0,1,0-.16.24.24,0,0,1,.06-.08.92.92,0,0,1,.11-.2l0-.07a.43.43,0,0,1,0-.15l0-.05c0-.07,0-.13,0-.18a.47.47,0,0,1,0-.16.76.76,0,0,1,.09-.18.51.51,0,0,1,.13-.16c.06-.14.11-.26.16-.35s.09-.19.13-.28a1.16,1.16,0,0,0,.26-.28,1.72,1.72,0,0,1,.27-.27l.07,0,.12,0a2.71,2.71,0,0,0,.27-.22.56.56,0,0,1,.2-.12,1.12,1.12,0,0,1,.32,0,.32.32,0,0,0,.29-.12.54.54,0,0,0,.21,0,1.76,1.76,0,0,0,.2-.09l.16-.08a.51.51,0,0,1,.23,0h.23a1.23,1.23,0,0,0,.25-.05l.15,0,.19,0a2.31,2.31,0,0,0,.4,0h.33a.55.55,0,0,0,.18,0,.64.64,0,0,1,.2,0,.44.44,0,0,0,.16,0l.16,0,.14,0h0a.35.35,0,0,1,.14.06l.14.08a.17.17,0,0,0,.1,0,.1.1,0,0,1,.09,0l.21.08.22.07a.18.18,0,0,1,.13.15.66.66,0,0,1,.28.14l.18.13a1,1,0,0,1,.14.15.4.4,0,0,0,.15.14.39.39,0,0,0,0,.09.3.3,0,0,1,.05.1.93.93,0,0,1,.23.21.69.69,0,0,0,.29.2,1.17,1.17,0,0,0,.12.2.43.43,0,0,1,.09.24l.07.11.1.15.06.08.06.1a3,3,0,0,0,.18.36l.1.12a.46.46,0,0,1,.09.15.68.68,0,0,1,0,.14.3.3,0,0,0,0,.13,1.31,1.31,0,0,0,0,.15l0,.09a.82.82,0,0,1,0,.27,1.13,1.13,0,0,0,0,.26,1.49,1.49,0,0,1,0,.21q0,.12,0,.21a.75.75,0,0,0,0,.23Zm-2.44-1.36s0-.06,0-.12a.22.22,0,0,0-.09-.12.19.19,0,0,0-.09-.14s0-.05,0-.09a.34.34,0,0,0-.14-.09c-.06,0-.08-.07-.07-.14a.08.08,0,0,1-.11,0,.14.14,0,0,0-.06-.07.44.44,0,0,1-.15-.17.3.3,0,0,0-.1-.14.11.11,0,0,0-.11,0s-.06,0-.06-.08a.55.55,0,0,1-.42-.09,1.62,1.62,0,0,1-.28-.25,1,1,0,0,1-.34,0h-.36a.41.41,0,0,0-.24-.07.71.71,0,0,1-.27,0s-.07,0-.07-.07,0-.06-.1-.06a.31.31,0,0,1-.23,0,.61.61,0,0,0-.24-.07.79.79,0,0,1-.29.11,1.77,1.77,0,0,0-.31.08.43.43,0,0,0-.19.16l-.15.18-.24.27-.22.27a.27.27,0,0,1,0,.16.19.19,0,0,0,0,.15.37.37,0,0,0-.16.26c0,.12-.06.24-.08.35a1.22,1.22,0,0,0,.27,0l.33,0a.2.2,0,0,1,.11,0h.11a1.41,1.41,0,0,1,.44,0h.34a1.84,1.84,0,0,0,.33,0,.5.5,0,0,1,.3,0,1,1,0,0,1,.43-.07l.4,0a.32.32,0,0,0,.15,0h0a5.35,5.35,0,0,1,1,0A3.16,3.16,0,0,0,170.68,17.29Z"/></g></g></svg>