<svg xmlns="http://www.w3.org/2000/svg" width="127.98" height="30.21" viewBox="0 0 127.98 30.21"><defs><style>.cls-1{fill:#fff;}.cls-2{fill:#004c17;}</style></defs><g id="Layer_2" data-name="Layer 2"><g id="Layer_1-2" data-name="Layer 1"><path class="cls-1" d="M15.29,19.26l-.11-5.32,13.46-.63a7.55,7.55,0,0,1,.08,1.57c0,10.63-7,15.15-13.51,15.15A14.56,14.56,0,0,1,.69,15.14C.69,6.12,7.77.76,16,.76A20,20,0,0,1,25.25,3L21.93,9.7A15.17,15.17,0,0,0,15.47,8c-3.4,0-6.32,1.78-6.32,7.15,0,4.64,3.55,7.92,6.47,7.92,1.93,0,3.61-1.1,4.3-3.72Z"/><path class="cls-1" d="M44.55,29.3l-4.19-9.89-2.19.29.51,9.68H31l.07-27.56A29.32,29.32,0,0,1,38.42,1c9.2,0,13.76,4.46,13.76,9,0,3-1.9,6-5.8,7.88l5.8,10.22ZM38,14.63c3.72,0,5.62-1.9,5.62-3.72,0-1.65-1.57-3.25-4.75-3.25a4.7,4.7,0,0,0-1.24.07Z"/><path class="cls-1" d="M71.12,29.78l-1.68-5.59-7.22.51L61,30.21l-8.25-1.57L61.49.69l7.77.25,9.85,26.54Zm-5.8-19.31-2.08,8.87,4.67-.3Z"/><path class="cls-1" d="M83.45,20.94a8.78,8.78,0,0,0,5.81,2.38c2.77,0,5-1.32,5-3.33,0-3.54-13.87-.36-13.87-10,0-6.61,8.1-9.24,13.8-9.24a18.31,18.31,0,0,1,7.11,1.35L98.75,8.53a10.5,10.5,0,0,0-5.19-1.38c-2.77,0-5,1.13-5,2.88,0,3.69,14.52-.15,14.52,10.77,0,5.29-6.06,8.94-12.52,8.94a14.69,14.69,0,0,1-10.8-4.38Z"/><path class="cls-1" d="M108.38,20.94a8.74,8.74,0,0,0,5.8,2.38c2.78,0,5-1.32,5-3.33,0-3.54-13.87-.36-13.87-10,0-6.61,8.1-9.24,13.79-9.24a18.36,18.36,0,0,1,7.12,1.35l-2.52,6.46a10.47,10.47,0,0,0-5.18-1.38c-2.78,0-5,1.13-5,2.88,0,3.69,14.53-.15,14.53,10.77,0,5.29-6.06,8.94-12.52,8.94a14.67,14.67,0,0,1-10.8-4.38Z"/><path class="cls-2" d="M14.6,18.58l-.11-5.33L28,12.63A7.51,7.51,0,0,1,28,14.2c0,10.62-7,15.14-13.5,15.14A14.56,14.56,0,0,1,0,14.45C0,5.44,7.08.07,15.33.07A19.94,19.94,0,0,1,24.56,2.3L21.24,9A15.13,15.13,0,0,0,14.78,7.3c-3.39,0-6.31,1.79-6.31,7.15,0,4.64,3.54,7.92,6.46,7.92,1.93,0,3.61-1.09,4.31-3.72Z"/><path class="cls-2" d="M43.87,28.62l-4.2-9.9-2.19.3L38,28.69h-7.7l.07-27.56a29.94,29.94,0,0,1,7.38-.8c9.19,0,13.76,4.45,13.76,9,0,3-1.9,6-5.81,7.89L51.5,27.45ZM37.26,13.94c3.72,0,5.62-1.9,5.62-3.72C42.88,8.58,41.31,7,38.14,7A4.7,4.7,0,0,0,36.9,7Z"/><path class="cls-2" d="M70.43,29.09,68.76,23.5,61.53,24l-1.21,5.51L52.08,28,60.8,0l7.77.25,9.86,26.54ZM64.63,9.78l-2.08,8.87,4.67-.29Z"/><path class="cls-2" d="M82.77,20.26a8.77,8.77,0,0,0,5.8,2.37c2.77,0,5-1.31,5-3.32,0-3.54-13.86-.37-13.86-10C79.67,2.66,87.77,0,93.46,0a18.17,18.17,0,0,1,7.12,1.35L98.06,7.85a10.4,10.4,0,0,0-5.18-1.39c-2.78,0-5,1.13-5,2.88,0,3.69,14.53-.14,14.53,10.77,0,5.29-6.06,8.94-12.52,8.94A14.7,14.7,0,0,1,79,24.67Z"/><path class="cls-2" d="M107.69,20.26a8.81,8.81,0,0,0,5.81,2.37c2.77,0,5-1.31,5-3.32,0-3.54-13.87-.37-13.87-10,0-6.61,8.1-9.23,13.8-9.23a18.13,18.13,0,0,1,7.11,1.35L123,7.85a10.44,10.44,0,0,0-5.19-1.39c-2.77,0-5,1.13-5,2.88,0,3.69,14.53-.14,14.53,10.77,0,5.29-6.06,8.94-12.52,8.94A14.69,14.69,0,0,1,104,24.67Z"/></g></g></svg>