<svg xmlns="http://www.w3.org/2000/svg" viewBox="0 0 68.12 72.68"><defs><style>.cls-1{fill:#18104f;}.cls-2{fill:#e089b7;}.cls-3{fill:#aa2d2d;}.cls-4{fill:#fff;}.cls-5{fill:#f26a60;}</style></defs><g id="Layer_2" data-name="Layer 2"><g id="Layer_1-2" data-name="Layer 1"><path class="cls-1" d="M45.17,52.82a14.68,14.68,0,0,1,6.19,0,.83.83,0,0,1,.63,1,.82.82,0,0,1-1,.64,12.85,12.85,0,0,0-14.2,6.92.83.83,0,0,1-1.11.38.82.82,0,0,1-.37-1.1A14.56,14.56,0,0,1,42,53.93,14.91,14.91,0,0,1,45.17,52.82Z"/><path class="cls-1" d="M51.2,21.81a6.17,6.17,0,1,0,4.74-7.32A6.16,6.16,0,0,0,51.2,21.81Z"/><path class="cls-1" d="M6.27,31.44A6.17,6.17,0,1,0,11,24.11,6.17,6.17,0,0,0,6.27,31.44Z"/><path class="cls-1" d="M65.14,6.91a.94.94,0,0,0,.22-.12,1.1,1.1,0,0,0,.28-1.53,12.28,12.28,0,0,0-16.3-3.57,1.1,1.1,0,0,0,1.12,1.9A10.06,10.06,0,0,1,63.83,6.52,1.09,1.09,0,0,0,65.14,6.91Z"/><path class="cls-1" d="M1.51,18A1.05,1.05,0,0,0,2,17.63a11.17,11.17,0,0,1,10-4.17,1.1,1.1,0,0,0,.27-2.19,13.43,13.43,0,0,0-12,5A1.1,1.1,0,0,0,1.51,18Z"/><path class="cls-2" d="M65.81,58.46a22.5,22.5,0,0,0-8.07-5.27,29.15,29.15,0,0,0-10.08-1.84,23,23,0,0,0-10.32,2.08,11,11,0,0,0-4,3.16A7,7,0,0,0,32,60.45c0,.17,0,.35,0,.52a.19.19,0,0,1,.07.14c.07.6.16,1.21.27,1.81s.22,1.06.36,1.6c.08.16.16.32.25.48a18.94,18.94,0,0,0,4.55,5.49,10.28,10.28,0,0,0,4.94,2.19,13.25,13.25,0,0,0,1.66-.5c1.84-.68,3.57-1.67,5.39-2.43a60.08,60.08,0,0,1,5.74-2c2-.59,3.94-1.11,5.92-1.62.87-.23,1.75-.46,2.63-.67a13,13,0,0,0,2.11-.68,5.1,5.1,0,0,0,1.78-1.15,2,2,0,0,0,.41-1.74A7.48,7.48,0,0,0,65.81,58.46Z"/><path class="cls-1" d="M61.9,55.87a21.1,21.1,0,0,0-8.62-3.51,24.84,24.84,0,0,0-9.64.29,20.18,20.18,0,0,0-7.89,3.49c-2.11,1.64-3.66,4.17-2.89,6.91A6.79,6.79,0,0,0,34,65.31a16.29,16.29,0,0,0,2.16,2.88,15.54,15.54,0,0,0,3.61,3.16,6.12,6.12,0,0,0,4,.76,11.78,11.78,0,0,0,4.88-2.38,16.6,16.6,0,0,1,5.66-2.53c1.88-.47,3.79-.76,5.67-1.23,2.08-.52,5.52-1,6.28-3.39C67.14,59.67,63.93,57.29,61.9,55.87Z"/><path class="cls-3" d="M60.64,65.21c-3.24.76-6.72,1.1-9.76,2.51-1.81.85-3.28,2.26-5.08,3.12a6.11,6.11,0,0,1-4.95.27,7.08,7.08,0,0,1-1.69-1,11.53,11.53,0,0,1-2.6-2.29c-1.09-1.29-2.41-2.66-2.88-4.33a4.89,4.89,0,0,1-.38-2.9,5.89,5.89,0,0,1,1.83-3.15,17.23,17.23,0,0,1,7.09-3.75,24.18,24.18,0,0,1,8.78-1,21.48,21.48,0,0,1,8.58,2.46A22.83,22.83,0,0,1,63,57.44a8,8,0,0,1,2.71,3.32C66.74,63.86,62.83,64.7,60.64,65.21Z"/><path class="cls-4" d="M38.74,57.89a10,10,0,0,0,4.48-.79,20.73,20.73,0,0,0,4.49-2.49,27.17,27.17,0,0,0,2.44-2,24.24,24.24,0,0,0-7.93,1,18.53,18.53,0,0,0-6.37,3.11A5.74,5.74,0,0,0,38.74,57.89Z"/><path class="cls-4" d="M48.27,63.59A6.39,6.39,0,0,0,45,65.4c-.2.19-.4.4-.59.61s-.21.46-.31.7a26.21,26.21,0,0,0-1.27,3.68c-.1.36-.18.73-.26,1.1a6.52,6.52,0,0,0,3.26-.65c1.8-.86,3.27-2.27,5.08-3.12a18.62,18.62,0,0,1,2.56-.94C52.23,65.06,50.45,63.26,48.27,63.59Z"/><path class="cls-5" d="M62.26,56.88h-.07a19.33,19.33,0,0,0-9.59,5.34,21.19,21.19,0,0,0-5,7.55,25.51,25.51,0,0,1,3.29-2.06c3-1.41,6.52-1.75,9.76-2.51,2.19-.51,6.1-1.35,5.06-4.45A8,8,0,0,0,63,57.44Z"/></g></g></svg>