<svg xmlns="http://www.w3.org/2000/svg" viewBox="0 0 394.1 455.82"><defs><style>.cls-1{isolation:isolate;}.cls-2{fill:#18104f;}.cls-3{fill:#e4ebff;}.cls-4{fill:#ffa4cf;}.cls-5{fill:#f8faff;}.cls-6{opacity:0.24;}.cls-7{fill:#8c9193;}.cls-8{fill:#31115a;}.cls-9{fill:#91a4e4;}.cls-10{fill:#d2c0fe;opacity:0.6;mix-blend-mode:multiply;}.cls-11{fill:#fff7ff;}.cls-12{fill:#e089b7;}.cls-13{fill:#ff30a2;}</style></defs><g class="cls-1"><g id="Layer_2" data-name="Layer 2"><g id="Layer_1-2" data-name="Layer 1"><circle class="cls-2" cx="318.06" cy="139.12" r="40.81"/><path class="cls-3" d="M391.39,310.68c-1.78,18.43-4.39,40.54-7.69,67.31-3.51,28.41-7.79,37.79-12.69,77.83H164.55c1.21-50,0-57,0-57.47,0-4.17-1.91-23.21-2-27.76-.78-38.58-12.75-62.44-10.6-105,0,0,2-52.39,9.18-59.27,5.53-5.3,18-10.7,31.46-15.35h.07c13.81-4.74,30.08-9.31,43.81-12.61,0,0,2.48-.59,2.51-.6l82.69,6.54c10.64,3.93,29.94,13.12,45.73,23.12C392.83,223.62,398.22,240,391.39,310.68Z"/><path class="cls-2" d="M245.51,283.21a1.1,1.1,0,0,1-1.07-.89c-9.1-46.59-53.34-62.12-53.79-62.27a1.1,1.1,0,0,1-.74-1,1.07,1.07,0,0,1,.63-1l38.63-18.1-36.56-9a1.09,1.09,0,0,1-.81-1.32,1.11,1.11,0,0,1,1.33-.81l39.58,9.71a1.1,1.1,0,0,1,.83,1,1.11,1.11,0,0,1-.63,1.1l-39.14,18.33c9.58,4.05,44.73,21.54,52.82,63a1.1,1.1,0,0,1-.87,1.29Z"/><polygon class="cls-4" points="75.02 240.86 39.34 259 8.22 216.9 62.54 173.17 75.02 240.86"/><path class="cls-5" d="M129.21,174.55c.24.7-.38,1.57-1.35,1.9l-6.14,2.09a.87.87,0,0,0-.56.59,6.4,6.4,0,0,1-4.22,4.08L25,214.48l-3-8.93,92-31.27a6.44,6.44,0,0,1,5.84.66.85.85,0,0,0,.8.13l6.14-2.09a1.75,1.75,0,0,1,2.23.68h0Z"/><path class="cls-5" d="M23,206.09l91.16-31a5.54,5.54,0,0,1,5,.54,1.74,1.74,0,0,0,1.59.25L127,173.8c.63-.21,1.09,0,1.13.15v0l.29.85c.05.15-.2.61-.81.82l-6.14,2.08a1.75,1.75,0,0,0-1.11,1.18,5.53,5.53,0,0,1-3.67,3.49l-91.16,31L23,206.09M20.83,205l3.59,10.56L117.22,184a7.24,7.24,0,0,0,4.77-4.67l6.15-2.09a2.53,2.53,0,0,0,1.89-3l-.3-.88v0a2.55,2.55,0,0,0-3.32-1.21l-6.14,2.09a7.27,7.27,0,0,0-6.63-.79L20.83,205Z"/><g class="cls-6"><path class="cls-7" d="M18.7,201.93a2.09,2.09,0,0,1,1.42,0,1.38,1.38,0,0,1,.88.85l.66,1.94,92-31.26a7.27,7.27,0,0,1,6.63.79l6.14-2.09a2.55,2.55,0,0,1,3.32,1.21L.1,217.43a5.18,5.18,0,0,1,.78-3.85,7.68,7.68,0,0,1,4.06-3.11L18.08,206l-.69-2A1.77,1.77,0,0,1,18.7,201.93Z"/></g><path class="cls-4" d="M2.32,213.78s10.37-28.5,22-28.58c0,0,4-8.83,13.76-6.35,0,0,2.43-10,11.69-6.89,0,0,3.29-8.15,10.44-5.85s19.23,22,14.28,26.71-11.83-3.29-11.83-3.29,0,13-11.15,11.34c0,0-6.55,9.08-12.71,3.08,0,0,2.5,9.82-5.58,7.94-3.37-.79-7.45-7.93-7.45-7.93Z"/><path class="cls-2" d="M71.38,195.48a7.7,7.7,0,0,1-1.8,0c-4.78-.46-8.68-5.37-8.84-5.58a1.08,1.08,0,0,1,.18-1.53,1.1,1.1,0,0,1,1.54.18S66,193,69.8,193.34a5.11,5.11,0,0,0,4-1.35c1.36-1.17,1-3.58.49-5.4-2.25-7.83-11.9-19.13-15.83-19.71-5.13-.76-7.55,5.22-7.65,5.48a1.1,1.1,0,1,1-2-.8c1.06-2.73,4.52-7.68,10-6.85,5.16.77,15.2,12.9,17.62,21.27,1.28,4.41.07,6.61-1.17,7.67A7.53,7.53,0,0,1,71.38,195.48Z"/><path class="cls-2" d="M52.55,201.89a5.33,5.33,0,0,1-1.18.08,1.11,1.11,0,0,1-1-1.2,1.1,1.1,0,0,1,1.2-1,14,14,0,0,0,7.11-2.94,5.35,5.35,0,0,0,2.15-3.61c.4-4.54-4.64-11.28-7.65-15.31l-.68-.91c-3.06-4.11-4.77-5.23-8.87-3.74a7.2,7.2,0,0,0-4.5,5.7,1.1,1.1,0,0,1-2.18-.24,9.41,9.41,0,0,1,5.93-7.52c5.36-2,8,0,11.38,4.49l.67.91c3.41,4.55,8.55,11.44,8.09,16.81a7.52,7.52,0,0,1-2.94,5.11A16.81,16.81,0,0,1,52.55,201.89Z"/><path class="cls-2" d="M45.11,206.86a6.55,6.55,0,0,1-6.64-2.74,1.1,1.1,0,1,1,1.9-1.1c.2.32,2.12,3.18,7,.82a3.06,3.06,0,0,0,1.62-2.1c1-3.82-1.71-10.73-4.09-14.26-1.51-2.24-7-9.41-13.36-7.66-5.21,1.41-6.12,5.43-6.16,5.6a1.09,1.09,0,0,1-1.29.85,1.1,1.1,0,0,1-.86-1.28c.05-.23,1.17-5.51,7.74-7.29,7.87-2.11,14,6,15.75,8.56,2.59,3.83,5.65,11.35,4.39,16.05a5.24,5.24,0,0,1-2.78,3.51A11.38,11.38,0,0,1,45.11,206.86Z"/><path class="cls-2" d="M35.66,212.39a5.23,5.23,0,0,1-2.07-.11C28.32,211,23.18,202.19,23,201.81a1.08,1.08,0,0,1,.4-1.49,1.09,1.09,0,0,1,1.5.4c1.34,2.32,5.62,8.55,9.25,9.43a2.79,2.79,0,0,0,2.27-.33c3-1.93,1.86-7.14-.22-11.37-3.18-6.45-8.32-13.78-14.67-12-6.05,1.68-15.17,20.6-18.17,27.75a1.11,1.11,0,0,1-1.44.59,1.09,1.09,0,0,1-.58-1.44c1.14-2.73,11.44-26.74,19.6-29,4.32-1.21,10.8.1,17.22,13.14,3.2,6.49,3,11.92-.56,14.18A4.76,4.76,0,0,1,35.66,212.39Z"/><path class="cls-8" d="M18.7,201.93a2.09,2.09,0,0,1,1.42,0,1.38,1.38,0,0,1,.88.85l4.92,14.45a1.77,1.77,0,0,1-1.31,2.08,2.09,2.09,0,0,1-1.42,0,1.38,1.38,0,0,1-.88-.85L17.39,204A1.77,1.77,0,0,1,18.7,201.93Z"/><path class="cls-8" d="M4.94,210.47l13.91-4.72,3.57,10.52L8.52,221c-3.58,1.21-7.29-.15-8.28-3.06,0-.17-.1-.34-.14-.51a5.18,5.18,0,0,1,.78-3.85A7.68,7.68,0,0,1,4.94,210.47Z"/><polygon class="cls-4" points="44.53 282.4 30.19 239.56 65.37 219.21 89.84 260.46 44.53 282.4"/><path class="cls-3" d="M160.45,208.56c-1.67,3.1-36.17,81.34-36.17,81.34L87,237.93,29.35,250.45s40.79,144.76,83.19,135,66-42.82,66-42.82Z"/><path class="cls-2" d="M162.56,370.59l.73,34.19h2.06l-.72-34.5a1,1,0,0,0-.14-.5c-.15-.23-13.55-23.42-12.53-34.22,1-11,11.45-40.64,11.55-40.93a1,1,0,0,0-.64-1.33,1,1,0,0,0-1.3.64c-.43,1.22-10.63,30.17-11.68,41.42C148.86,346.34,161.05,368,162.56,370.59Z"/><path class="cls-5" d="M163.36,285.6l-32.28-86.23-13.86,5.19,32.28,86.23a7.4,7.4,0,0,0,13.86-5.19Z"/><path class="cls-9" d="M158.19,292.91a5.05,5.05,0,0,1-6.48-3l-22.17-59.54,12.19,4.16,19.41,51.85a5.05,5.05,0,0,1-2.89,6.45Z"/><rect class="cls-10" x="117.3" y="201.87" width="14.8" height="3.11" transform="translate(-63.39 56.62) rotate(-20.52)"/><path class="cls-11" d="M131.62,200.44l-14,5.24a1.92,1.92,0,0,1-1.35-3.59l14-5.24a1.92,1.92,0,1,1,1.35,3.59Z"/><path class="cls-4" d="M209.58,271.28s-14.84-5.32-17.64-8.68-23.81-39.2-30.53-37.52-36.4,11.2-37.24,16.24-3.36,32.48,2.24,38.36,7.28.28,7.28.28,2,5.32,7,5.32,3.92-5,3.92-5,3.08,5.6,7.28,4.48,3.36-7,3.36-7,9,13.72,20.16,18.2,18.21,7.84,18.21,7.84Z"/><path class="cls-2" d="M156.72,264a1,1,0,0,0-.09-1.53,1.09,1.09,0,0,0-1.55.09l-2.79,3.18a.76.76,0,0,0-.15.23h0a1.28,1.28,0,0,0-.09.75c0,.06,1.87,7.63,2.24,10a10.8,10.8,0,0,1,.1,3,4.77,4.77,0,0,1-2.93,4.1,1.52,1.52,0,0,1-.28.09h0a2,2,0,0,1-.75.12,3.08,3.08,0,0,1-1.49-.42,6,6,0,0,1-1.35-1.07,12.35,12.35,0,0,1-1.91-2.58l0-.05c-1-2.85-3.08-9.12-4.17-13.76a18.06,18.06,0,0,1-.7-4.77,9.37,9.37,0,0,1,1.6-3.47c.61-.93,1.34-1.93,2.15-2.94.57-.74,1.19-1.47,1.82-2.19h0c1.38-1.62,2.82-3.15,4-4.33a1.12,1.12,0,0,0,0-1.56,1.07,1.07,0,0,0-1.56,0c-.36.36-1.77,1.79-3.44,3.65,0,0,0,0,0,0-.58.64-1.18,1.35-1.79,2.08-.78,1-1.55,2-2.26,2.95a21.83,21.83,0,0,0-2.16,3.68,6.27,6.27,0,0,0-.55,1.93c-.37,4,3.89,16.34,4.92,19.19,0,0,0,0,0,0v0a3.66,3.66,0,0,0,.13.37,15.69,15.69,0,0,0,1,1.63h0a4.48,4.48,0,0,1,.32.44h0l0,0h0c1.16,1.52,3.07,3.32,5.35,3.32h0a4.15,4.15,0,0,0,.7-.07h0a5,5,0,0,0,1.26-.4,7,7,0,0,0,4.21-6.11,12.55,12.55,0,0,0,0-1.94,10,10,0,0,0-.13-1.31c0-.27-.1-.59-.17-1a.13.13,0,0,1,0-.06c-.38-2-1.12-5.17-1.62-7.2v0c-.13-.58-.24-1.05-.33-1.4L155,266Z"/><path class="cls-2" d="M158.9,269.16l-.27,0-5-1.26a1.1,1.1,0,0,1,.53-2.13l5,1.26a1.1,1.1,0,0,1-.26,2.16Z"/><path class="cls-2" d="M139.68,286.57c-3.86,0-6.83-5.84-7-6.12a1.19,1.19,0,0,1-.11-.41c0-.75-1.26-18.47-1.12-24.88.14-6.82,12.27-15,13.65-15.88a1.1,1.1,0,0,1,1.2,1.84c-3.48,2.29-12.56,9.28-12.66,14.08-.13,5.94,1,22.34,1.1,24.46.87,1.64,3.4,5.42,5.53,4.6a5.09,5.09,0,0,0,3.22-4.11,1.1,1.1,0,0,1,2.19.17,7.33,7.33,0,0,1-4.62,6A4,4,0,0,1,139.68,286.57Z"/><path class="cls-2" d="M130.36,283.71h0c-2.36,0-4.23-2.29-4.89-3.5-1.19-2.17-.36-31.19,1-36.11,1.66-5.88,14-9.47,15.46-9.86a1.1,1.1,0,1,1,.59,2.11c-3.5,1-12.82,4.36-13.94,8.35-1.49,5.28-1.84,32.5-1.18,34.54.48.87,1.79,2.28,2.94,2.28h0c1,0,1.85-1.14,2.38-2.09a1.1,1.1,0,1,1,1.92,1.06C133.47,282.63,132,283.71,130.36,283.71Z"/><path class="cls-4" d="M201.21,64c-1.17,9.66-1.05,19.6-.73,28.93.37,11,1,22,1.07,33a28.95,28.95,0,0,0,27.57,28.75l12.33.82v.26l-.77,12.9-.28,4.77-1.3,21.42s3.58,5,14.18,8a48.38,48.38,0,0,0,36.52-4.74l22.89-12.81L308.63,134c18-1.46,30.76-17.93,23.39-33.43-4.83-10.15-14-8.89-20.84-6.11a58.54,58.54,0,0,0-49.86-83.76c-16.86-.82-33.77,5.29-45.34,17.76C206.82,38.28,202.82,50.9,201.21,64Z"/><path class="cls-2" d="M233.27,101.49c-2.55,0-4.53-2.3-5-4.63s.27-4.56,1-6.68a164.9,164.9,0,0,1,6.89-16.41,1.09,1.09,0,0,1,1.47-.51,1.11,1.11,0,0,1,.51,1.47,160.53,160.53,0,0,0-6.8,16.19c-.69,1.91-1.28,3.78-1,5.53.28,1.49,1.62,3,3.08,2.83a1.1,1.1,0,1,1,.28,2.18A5,5,0,0,1,233.27,101.49Z"/><path class="cls-12" d="M240.67,168.66c33-1.66,42-15.1,42-15.1a170.11,170.11,0,0,1-41.27,2.2Z"/><path class="cls-2" d="M307.8,124.19h.13a.84.84,0,0,0,.75-.92,31.09,31.09,0,0,1,3.85-18.09,20.48,20.48,0,0,1,6.53-7.3A12.18,12.18,0,0,1,328.24,96a.86.86,0,0,0,1-.64.85.85,0,0,0-.64-1,13.91,13.91,0,0,0-10.47,2.14,22.19,22.19,0,0,0-7.08,7.89A32.72,32.72,0,0,0,307,123.43.84.84,0,0,0,307.8,124.19Z"/><path class="cls-2" d="M332.09,101.65a9.83,9.83,0,0,0-5.54-5.59,18.21,18.21,0,0,0-7.95-1.21c-4.91.19-10.13,1.2-14,4.18-4.12-6-2.39-14.33-5.09-21.12-3.52-8.84-13.37-13-20.39-19.42-10-9.14-12.86-23.22-11.6-36.7a3.65,3.65,0,0,1,1.75-2.39c4.3-3.19,9.64-5.06,13.16-9.09,9.43,2.24,18.17,3.51,27.61,5.75a81,81,0,0,1,15,4.6c4.77,2.17,9.21,5.36,12,9.79a31.47,31.47,0,0,1,3.8,10.14,67.37,67.37,0,0,1,.27,27.35,134.09,134.09,0,0,1-4,14.56C335.14,88.54,334,95.61,332.09,101.65Z"/><path class="cls-2" d="M281,27c-5.36-2.49-11.76-1.49-17.16.91S253.72,33.94,248.65,37a71.81,71.81,0,0,1-26.54,9.37c-7,1-14.77.21-19.83-4.7a40.41,40.41,0,0,0,8.08-6.85,24.92,24.92,0,0,1-25.22-5.52c-1.07-1-1.55-2.76-2.53-3.9,3.54-4.34,8.46-7.3,13.38-10C209.76,7.94,224.6,2,240.18.4s32,1.47,44.69,10.63C284.27,16.32,283.6,22.32,281,27Z"/><polygon class="cls-13" points="321.68 184.29 299.66 228.71 285.16 243.25 246.6 281.9 236.6 230.99 233.06 212.96 221.99 221.25 240.28 167.11 258.57 186.53 311.96 158.14 321.68 184.29"/><path class="cls-2" d="M299.28,231.68a1.08,1.08,0,0,1-.81-.35l-39.94-43.24L222.75,222a1.09,1.09,0,1,1-1.51-1.58l36.59-34.73a1.06,1.06,0,0,1,.79-.3,1.1,1.1,0,0,1,.77.36L299,228.66l21.7-44.85a1.1,1.1,0,0,1,2,1l-22.4,46.29a1.09,1.09,0,0,1-.83.61Z"/><path class="cls-2" d="M240.37,381.74a5.43,5.43,0,0,1,0,.56,2.81,2.81,0,0,1,0,.41l0,1.51-.22,10.69-1.8,60.91h-2.22L238,387.2l.09-3.74a1.85,1.85,0,0,1,0-.23c0-.63,0-1.24.07-1.85,0-.2,0-.41,0-.6a22.35,22.35,0,0,1,.78-5.09c.11-.32.27-.65.4-.63.46-.64.85,2,.92,5.37C240.37,380.82,240.37,381.27,240.37,381.74Z"/><path class="cls-3" d="M391.39,310.68c-1.78,18.43-4.39,40.54-7.69,67.31-8.27,11.39-18.15,22.22-29,28.43l-.24.15c-.26.15-.53.31-.79.44A39,39,0,0,1,342,411.29a37.81,37.81,0,0,1-8.87.39h0c-1.43-.06-2.94-.19-4.5-.39-17.05-2-41.44-10.09-65.58-19.63l-.31-.14c-8.43-3.3-16.82-6.82-24.85-10.28l-1.46-.64c-31.89-13.81-57.92-27-57.92-27l12.94-50.85,9-35.15.49-1.92,19.28,8.37h.06l102.19,44.27,2.17-5.4.81-2L349.86,250Z"/><path class="cls-2" d="M326.54,311.33l-1.14-.41-6.55-2.46-1.54-.57L246.5,281.5l-2.43-.9-42.8-16a1.14,1.14,0,0,0-.87.05,1.15,1.15,0,0,0-.57.7l-.44,1.71v0l-9.13,35.1-13,50.16a1.08,1.08,0,0,0,.55,1.25l4.14,2.18c.23-.7.49-1.4.77-2.08l-3.13-1.63,12.72-49L201.41,268l.24-.9L220.18,274l.07,0,104.34,38.87,1.19.44a1.06,1.06,0,0,0,1.4-.63A1.08,1.08,0,0,0,326.54,311.33Z"/><path class="cls-2" d="M325.59,416.36a55,55,0,0,1-23-5L178,354a1.27,1.27,0,0,1-.63-1.7h0a1.27,1.27,0,0,1,1.7-.63L303.67,409A52.65,52.65,0,0,0,363.4,397.8l12.32-12.73a1.28,1.28,0,0,1,1.81,0h0a1.28,1.28,0,0,1,0,1.82l-12.32,12.72A55.16,55.16,0,0,1,325.59,416.36Z"/><path class="cls-2" d="M318.32,308.59a1,1,0,0,1-.48-.11,1.09,1.09,0,0,1-.51-1.46l19.79-40.7a1.1,1.1,0,0,1,2,1L319.31,308A1.1,1.1,0,0,1,318.32,308.59Z"/><path class="cls-2" d="M248.5,281.9a1.09,1.09,0,0,1-.66-.22,1.11,1.11,0,0,1-.22-1.54C275.11,243.65,339,235,352.75,233.48l-31.59-26.32a1.12,1.12,0,0,1-.33-1.22,1.11,1.11,0,0,1,1-.72h45.92a1.1,1.1,0,1,1,0,2.19h-42.9l31.28,26.07a1.09,1.09,0,0,1-.62,1.93c-.76.06-76,6-106.17,46A1.1,1.1,0,0,1,248.5,281.9Z"/></g></g></g></svg>