<svg xmlns="http://www.w3.org/2000/svg" viewBox="0 0 126.06 221.81"><defs><style>.cls-1{fill:#53317d;}.cls-2{fill:#31115a;}.cls-3{fill:#dcd4ff;}.cls-4{fill:#d1c0ff;}.cls-5{fill:#654696;}</style></defs><g id="Layer_2" data-name="Layer 2"><g id="Layer_1-2" data-name="Layer 1"><path class="cls-1" d="M47.86,91.86s-9.23-5.75-13,6.6c-3.52,11.47-10.71,37.9,11,55.09,9.27,7.34,21,4.61,21.23,4.41l2-1.1-1.16,2.24L84.92,185a5,5,0,0,1,.61,4.42,5.14,5.14,0,0,1-5.94,3.49c-15.76-3.17-43.47-13-55.58-43.79C6.6,104.93,33.45,68.54,33.45,68.54Z"/><rect class="cls-2" x="11.05" y="4.73" width="16.93" height="36.87" transform="translate(48.25 32.72) rotate(148.52)"/><polygon class="cls-2" points="59.29 88.13 68.34 82.43 74.35 94.18 66.09 99.24 57.82 104.3 50.09 93.61 59.29 88.13"/><rect class="cls-3" x="33.43" y="37.92" width="23.37" height="54.15" transform="translate(117.54 96.87) rotate(148.52)"/><rect class="cls-1" x="47.42" y="86.58" width="23.37" height="2.51" transform="matrix(-0.85, 0.52, -0.52, -0.85, 155.38, 131.89)"/><polygon class="cls-1" points="21.02 48.01 40.95 35.8 35.96 32.33 20.19 41.99 21.02 48.01"/><polygon class="cls-1" points="16.71 0 0 10.23 2.54 11.94 17.08 3.04 16.71 0"/><rect class="cls-1" x="18.18" y="34.79" width="18.47" height="2.55" transform="translate(69.63 52.51) rotate(148.52)"/><polygon class="cls-2" points="76.06 104.22 82.28 101.06 82.02 102.85 73.89 107.83 72.14 107.26 76.06 104.22"/><rect class="cls-2" x="70.87" y="102.75" width="11.93" height="1.5" transform="translate(196.4 151.66) rotate(148.52)"/><rect class="cls-1" x="77.31" y="104.18" width="9.54" height="15.81" transform="matrix(-0.85, 0.52, -0.52, -0.85, 210.61, 164.81)"/><path class="cls-4" d="M80.53,119.14a.51.51,0,0,0,.17,0,41.47,41.47,0,0,0,8.25-5,.46.46,0,0,0-.57-.72,40.81,40.81,0,0,1-8,4.92.46.46,0,0,0-.25.59A.45.45,0,0,0,80.53,119.14Z"/><polygon class="cls-2" points="86.1 95.77 90.65 90.48 91.1 92.23 85.47 99.93 83.63 100.07 86.1 95.77"/><rect class="cls-2" x="80.58" y="94.06" width="11.93" height="1.5" transform="translate(214.17 80.95) rotate(126.19)"/><rect class="cls-1" x="89.89" y="92.85" width="9.54" height="15.81" transform="translate(231.87 83.85) rotate(126.19)"/><path class="cls-4" d="M95.74,107.9a.43.43,0,0,0,.31-.13,40.57,40.57,0,0,0,5.71-7.8.45.45,0,0,0-.17-.62.46.46,0,0,0-.62.17,41.27,41.27,0,0,1-5.55,7.6.45.45,0,0,0,0,.64A.47.47,0,0,0,95.74,107.9Z"/><polygon class="cls-2" points="65.71 108.25 58.93 109.9 60.29 111.1 69.7 109.58 70.66 108.01 65.71 108.25"/><rect class="cls-2" x="58.69" y="107.46" width="11.93" height="1.5" transform="translate(-16.38 11.66) rotate(-9.15)"/><rect class="cls-1" x="61.48" y="110.24" width="9.54" height="15.81" transform="translate(-17.94 12.04) rotate(-9.15)"/><path class="cls-4" d="M62.31,124.12h0a41.19,41.19,0,0,0,9.55-1.55.46.46,0,0,0-.3-.86,41.39,41.39,0,0,1-9.29,1.5.45.45,0,0,0-.43.47A.46.46,0,0,0,62.31,124.12Z"/><path class="cls-1" d="M55.14,106.24l34-20.81h0a3.69,3.69,0,0,0-5.07-1.22l-27.7,17a3.69,3.69,0,0,0-1.22,5.07Z"/><path class="cls-2" d="M55.14,106.24l34-20.81a2.7,2.7,0,0,1,1.93,3.15l-34,20.81A2.71,2.71,0,0,1,55.14,106.24Z"/><path class="cls-1" d="M91.06,88.58S89.82,95.86,77,103.73s-19.9,5.66-19.9,5.66Z"/><path class="cls-2" d="M23.52,75.76a12.51,12.51,0,1,0,4.13-17.2A12.51,12.51,0,0,0,23.52,75.76Z"/><path class="cls-5" d="M27.07,73.59a8.34,8.34,0,1,0,2.76-11.48A8.34,8.34,0,0,0,27.07,73.59Z"/><path class="cls-2" d="M32.4,70.32a2.09,2.09,0,1,0,.69-2.87A2.08,2.08,0,0,0,32.4,70.32Z"/><path class="cls-1" d="M126.06,206.61v15.2h-105v-15.2a3.76,3.76,0,0,1,.81-2.38,2.55,2.55,0,0,1,2-1h99.44a2.72,2.72,0,0,1,2.36,1.58A4,4,0,0,1,126.06,206.61Z"/><path class="cls-1" d="M79.65,150.69l-3.58-6.29L106.91,127l2.23,3.91a2.74,2.74,0,0,1-1,3.74l-12.6,7.16,5.32,9.35a2.75,2.75,0,0,1-1,3.74l-29,16.52L64.1,159.65Z"/><rect class="cls-2" x="84.64" y="105.8" width="5.46" height="58.25" transform="translate(13.32 277.59) rotate(-119.64)"/><path class="cls-3" d="M101.37,203.24h0a11.64,11.64,0,0,0-10.22-11.56l-16.8-2.08s3.1-25.25-10.23-26.21c-15.51-1.12-17.56,23.68-17.56,23.68s-19.68,1.28-19.68,16.17Z"/><circle class="cls-2" cx="61.86" cy="173.17" r="12.51" transform="translate(-121.95 178.57) rotate(-72.03)"/><path class="cls-5" d="M54.74,177.52a8.34,8.34,0,1,0,2.76-11.47A8.34,8.34,0,0,0,54.74,177.52Z"/><path class="cls-2" d="M60.07,174.26a2.09,2.09,0,1,0,.69-2.88A2.1,2.1,0,0,0,60.07,174.26Z"/></g></g></svg>