<svg xmlns="http://www.w3.org/2000/svg" viewBox="0 0 208.85 50"><defs><style>.cls-1{fill:#181818;}.cls-2{opacity:0.11;}.cls-3{fill:#fff;}.cls-4{fill:#f9b219;}.cls-5{fill:#e42027;}.cls-6{fill:#e62826;}.cls-7{fill:#fefdfd;}.cls-8{fill:#e32029;}.cls-9{fill:#e52327;}.cls-10{fill:#e73425;}.cls-11{fill:#eb4824;}.cls-12{fill:#e94025;}.cls-13{fill:#ed5724;}.cls-14{fill:#f06b23;}.cls-15{fill:#f9a71b;}.cls-16{fill:#f8991d;}.cls-17{fill:#f27822;}.cls-18{fill:#f8a01d;}.cls-19{fill:#f9ad1a;}.cls-20{fill:#ec5024;}.cls-21{fill:#ef6423;}.cls-22{fill:#ef5e23;}.cls-23{fill:#f17122;}.cls-24{fill:#f6931f;}.cls-25{fill:#f27e21;}.cls-26{fill:#f58b20;}.cls-27{fill:#e02028;}.cls-28{fill:#f08821;}.cls-29{fill:#f38421;}.cls-30{fill:#efab1d;}.cls-31{fill:#ee8121;}.cls-32{fill:#e62b26;}.cls-33{fill:#d12926;}.cls-34{fill:#bab9b9;}.cls-35{fill:#625f60;}.cls-36{fill:#e42028;}.cls-37{fill:#70201d;}.cls-38{fill:#6c441c;}.cls-39{fill:#834a1f;}.cls-40{fill:#bbb9b9;}.cls-41{fill:#6e431c;}</style></defs><g id="Layer_2" data-name="Layer 2"><g id="Layer_1-2" data-name="Layer 1"><rect class="cls-1" width="208.85" height="50"/><g class="cls-2"><path class="cls-3" d="M103.59,16.58c-2.8-.08-5.59-.47-8.4-.43-2.22,0-4.42.26-6.63.43a8.9,8.9,0,0,1-1.36.19A2.4,2.4,0,0,0,86,17a27.17,27.17,0,0,0-7.36,2.26,13.2,13.2,0,0,0-5.14,4.28,6.15,6.15,0,0,0-1,2.27,2.61,2.61,0,0,0-.22.61c-.6,3.58.86,6.48,3,9.2a27.26,27.26,0,0,0,8.37,6.84c0,.33-.26.19-.43.14a27.26,27.26,0,0,1-11.66-8.18,11.58,11.58,0,0,1-2.27-4.16c-.1-.2-.14-.41-.25-.6a9.39,9.39,0,0,1-.14-4.88A10.06,10.06,0,0,1,71.64,20a16.47,16.47,0,0,1,5.83-3.6,3.06,3.06,0,0,1,.58-.27,25.44,25.44,0,0,1,6.5-1.59c.33-.13.7-.07,1-.23a57.68,57.68,0,0,1,10.09-.39c2.51.15,5,.31,7.52.7.33,0,.66.07,1,.11a5.18,5.18,0,0,0,1.31.19,10.73,10.73,0,0,1,1.11.19,7.69,7.69,0,0,1,2.27.53C108,16.1,107.4,17,106.32,17,105.42,16.76,104.5,16.72,103.59,16.58Z"/><path class="cls-4" d="M56.91,26l8.71,1c.36,0,.5.14.53.54a14.73,14.73,0,0,0,2.14,6.72c.37.59.3.66-.4.77-1.65.25-3.32.41-5,.78a.46.46,0,0,1-.46-.09,20.83,20.83,0,0,1-6-9.19C56.27,26,56.3,26,56.91,26Z"/><path class="cls-4" d="M65.21,26c-1.52-.14-3-.23-4.57-.47s-2.78-.2-4.15-.47c-.34-.06-.45-.16-.5-.51a11.51,11.51,0,0,1,.91-6.21,1.85,1.85,0,0,1,.37-.58c.26-.47.5-.57.94-.12C60.61,20,63,22.4,65.42,24.8l.24.26c.18.23.54.44.38.77S65.5,26,65.21,26Z"/><path class="cls-5" d="M102.49,9c.31.4.09.83.08,1.25s-.08.87-.12,1.31c-.2.34,0,.8-.29,1.11l-.09,0c-.38-.1-.78-.11-1.16-.24a58.33,58.33,0,0,0-7-.6c-.23,0-.43,0-.55-.31-.58-1.43-1.2-2.85-1.84-4.36,1.36.07,2.63.28,3.91.44,2.12.27,4.21.75,6.32,1.14A6.23,6.23,0,0,0,102.49,9Z"/><path class="cls-6" d="M78.05,7.2l.81,0A12.49,12.49,0,0,1,81.38,7a26.54,26.54,0,0,0,3-.07,1.6,1.6,0,0,1,1.57.65c1,1.24,2.21,2.19,3.23,3.36.09.11.2.2.29.31s.23.26.16.44-.27.14-.43.14a6,6,0,0,0-2,.2l-3.41.47a3.26,3.26,0,0,1-.93.18,18.39,18.39,0,0,0-2.9-3.14c-.57-.57-1.1-1.17-1.66-1.74C78.09,7.62,77.94,7.45,78.05,7.2Z"/><path class="cls-4" d="M69.36,35.91a22.71,22.71,0,0,0,4.24,4.57c.67.58,1.4,1.09,2.09,1.62-1.07,1.13-2.2.71-3.35.14a47,47,0,0,1-6.94-4.1l-1.67-1.28c-.12-.29.13-.31.29-.4,1.52,0,3-.47,4.5-.61A.72.72,0,0,1,69.36,35.91Z"/><path class="cls-7" d="M129.85,24.54l-.83-.3c-.17-.12-.38-.16-.56-.27a92.49,92.49,0,0,0-10.07-3.8,2.7,2.7,0,0,0-.41-.07c-.19-.11-.41-.15-.6-.25a21.17,21.17,0,0,0-2.24-.62,3.41,3.41,0,0,0-.6-.24l-2.8-.66a4.92,4.92,0,0,1,1.06-1.59c.12-.16.31,0,.47,0,2.24.72,4.44,1.53,6.62,2.43,2.44,1,4.81,2.15,7.14,3.38,1.13.6,2.21,1.29,3.31,1.93C130.22,24.88,130,24.57,129.85,24.54Z"/><path class="cls-8" d="M114.55,14.29c.09-.19.36-.28.31-.55h0a.64.64,0,0,1,.8-.07,88.66,88.66,0,0,1,7.95,4.2c.42.26.46.36,0,.66a2,2,0,0,1-2.16.17,52.71,52.71,0,0,0-6.34-2.3,6.14,6.14,0,0,0-.59-.25l-.8-.18c-.18-.12-.13-.26,0-.41l.57-.87C114.42,14.6,114.44,14.41,114.55,14.29Z"/><path class="cls-9" d="M87.14,12c.19-.35.52-.26.82-.26h1.68c-.7-.67-1.16-1.35-1.75-1.82a13.47,13.47,0,0,1-2.21-2.26A1.68,1.68,0,0,0,84,7.05a49.32,49.32,0,0,0-5.16.13A2.91,2.91,0,0,1,80,6.93c3.14-.14,6.27-.12,9.4,0a1.14,1.14,0,0,1,1.2.85C91,8.88,91.52,9.94,92,11a5.86,5.86,0,0,1,.26.57c0,.33-.25.27-.45.27C90.24,11.85,88.69,11.87,87.14,12Z"/><path class="cls-10" d="M78.05,7.2A24.81,24.81,0,0,0,80.74,10c.65.63,1.29,1.28,1.93,1.92a.47.47,0,0,1,.06.64.38.38,0,0,1-.14.14,2.6,2.6,0,0,1-2.88-.81c-1.43-1.33-3-2.53-4.47-3.79a6.58,6.58,0,0,0-.62-.41,7.66,7.66,0,0,1,2.57-.39.93.93,0,0,0,.71-.12Z"/><path class="cls-11" d="M70.22,8.74a.61.61,0,0,1,.55-.14c.41-.24.92-.1,1.31-.39l.28,0a4,4,0,0,1,1.11,1c1.24,1.23,2.47,2.48,3.72,3.7l.19.21c.6.65.59.73-.17,1.13a4.76,4.76,0,0,1-1.29.51c-1.66-1.78-3.39-3.48-5.14-5.17A1.53,1.53,0,0,1,70.22,8.74Z"/><path class="cls-12" d="M77.21,14.2c.47-.33.46-.6,0-1-1.49-1.43-2.93-2.92-4.4-4.37a2.33,2.33,0,0,1-.46-.62,1.22,1.22,0,0,1,1.69.19c1.7,1.5,3.44,2.94,5.18,4.4.39.33.68.57-.11.76A16,16,0,0,0,77.21,14.2Z"/><path class="cls-13" d="M66.67,10c.38-.4.93-.39,1.39-.58a1.77,1.77,0,0,1,2.28.58c1.35,1.47,2.81,2.84,4.22,4.26.23.23.59.44.37.88a11.13,11.13,0,0,1-1.71,1c.33-.71-.23-1-.61-1.41-1.31-1.32-2.65-2.61-3.93-4a1.64,1.64,0,0,0-1.83-.65A.4.4,0,0,1,66.67,10Z"/><path class="cls-14" d="M71.8,17.1a3.75,3.75,0,0,1-1,.78,1.74,1.74,0,0,0-.53-.95c-1.48-1.44-2.93-2.92-4.4-4.38a3.39,3.39,0,0,0-1.78-1.26,5.22,5.22,0,0,1,1.71-.87,1.16,1.16,0,0,1,.58.39L71.61,16C71.91,16.34,72.26,16.65,71.8,17.1Z"/><path class="cls-15" d="M57.72,17a2.85,2.85,0,0,1,.69-1c.35-.34.61-.08.83.15,2.24,2.3,4.54,4.53,6.8,6.82.6.61.62.84.24,1.61-.38.16-.63-.08-.86-.32-2.17-2.19-4.37-4.34-6.53-6.54A2,2,0,0,0,57.72,17Z"/><path class="cls-16" d="M59.59,15.12a16.33,16.33,0,0,1,2.12.88c1.45,1.29,2.79,2.69,4.14,4.08.36.37.77.7,1.12,1.08s.5.78.15,1.25a1.17,1.17,0,0,1-.28.71c-1-1.17-2.12-2.15-3.17-3.23-1.51-1.53-3-3-4.55-4.57a.19.19,0,0,1,0-.19v0A.48.48,0,0,1,59.59,15.12Z"/><path class="cls-17" d="M69.93,18l-.26,0c-.23-.28-.62-.19-.88-.38l-.8-.18a3.38,3.38,0,0,0-.46-.24c-.33-.18-.74-.14-1-.44.07-.14.51-.09.15-.45-1.21-1.18-2.4-2.38-3.59-3.59-.17-.17-.42-.2-.57-.39a.94.94,0,0,1,.69-.42c.76-.5.78-.52,1.42.12,1.79,1.77,3.58,3.55,5.35,5.34.11.12.26.23.3.39S70.24,18.13,69.93,18Z"/><path class="cls-18" d="M59.13,15.27A6.88,6.88,0,0,1,61,16.89c.73.84,1.58,1.54,2.33,2.36,1,1.14,2.21,2.18,3.34,3.24a.86.86,0,0,1,.22.63c-.19.72-.38,1.43-.56,2.14a.49.49,0,0,1,0-.74A1,1,0,0,0,66,23.19c-1.55-1.5-3.13-3-4.59-4.55a25.63,25.63,0,0,1-2.29-2.37c-.16-.21-.39-.43-.72-.29a.86.86,0,0,1,.31-.42C58.85,15.45,58.89,15.23,59.13,15.27Z"/><path class="cls-19" d="M66.25,24.52l0,.74c-.06.89-.09.9-1.07.69.24-.07.58.12.7-.18s-.23-.38-.38-.53q-3.06-3.1-6.16-6.16c-.57-.56-1.19-1.06-1.78-1.6l-.31.35a.24.24,0,0,1,0-.28c.16-.17.17-.47.43-.57.36-.33.65-.1.9.15q2.54,2.54,5,5.08c.66.66,1.31,1.34,2,2A1,1,0,0,0,66.25,24.52Z"/><path class="cls-20" d="M74.93,15.17c0-.32-.26-.48-.45-.68-1.36-1.37-2.76-2.71-4.08-4.11-.66-.7-1.29-1.28-2.34-.93a9.76,9.76,0,0,1,2.16-.71c.59.57,1.2,1.13,1.78,1.71L75.59,14a.82.82,0,0,1,.33.68A2.05,2.05,0,0,1,74.93,15.17Z"/><path class="cls-21" d="M71.8,17.1c.2-.39,0-.64-.29-.9q-2.61-2.59-5.2-5.2c-.18-.18-.33-.39-.5-.58a1.19,1.19,0,0,1,.86-.39h.16a1.61,1.61,0,0,1,.78.58c1.58,1.61,3.19,3.2,4.79,4.79.58.57.6.69.11,1.17A1.28,1.28,0,0,1,71.8,17.1Z"/><path class="cls-22" d="M72.51,16.58c.54-.65-.13-.88-.44-1.21-1.73-1.8-3.58-3.47-5.24-5.33a1.23,1.23,0,0,1,1.71.33c1.46,1.54,3,3,4.49,4.52.37.37,1,.71.19,1.26A1,1,0,0,1,72.51,16.58Z"/><path class="cls-23" d="M69.93,18c.29-.06.29-.14.07-.35-.72-.7-1.42-1.42-2.13-2.13-1.15-1.14-2.33-2.24-3.41-3.44a.9.9,0,0,0-1.26-.21c.18-.38.57-.42.9-.57.54-.18.89.07,1.27.46,1.79,1.83,3.6,3.65,5.45,5.43.36.33,0,.47,0,.7C70.56,18.28,70.28,18.42,69.93,18Z"/><path class="cls-24" d="M67.12,22.41c.37-.81-.34-1.15-.74-1.57-1.13-1.19-2.32-2.32-3.48-3.48-.42-.42-1-.74-1.19-1.36a10.07,10.07,0,0,1,2.14.82c1.26,1.18,2.41,2.46,3.66,3.63.41.38.27.75,0,1.14A1.2,1.2,0,0,1,67.12,22.41Z"/><path class="cls-25" d="M62.51,12.28c.2,0,.4-.06.59.13,1.43,1.41,2.87,2.81,4.35,4.25-.41.28-.67-.05-.93.05l-1.1-.31a.59.59,0,0,1-.29-.25c-.69-.89-1.57-1.61-2.34-2.43a3.61,3.61,0,0,1-.84-1C62,12.41,62.28,12.36,62.51,12.28Z"/><path class="cls-26" d="M67.56,21.59c.2-.55-.06-.9-.45-1.28-1-.94-1.94-1.91-2.89-2.89a3,3,0,0,1-.37-.6l1.11.32c.16.11.36.13.5.27s.68.2,1,.41h0a15.13,15.13,0,0,1,1.47,1.31c.79.81.79.86.1,1.75A1.11,1.11,0,0,1,67.56,21.59Z"/><path class="cls-27" d="M128.5,22.23a53.51,53.51,0,0,0-4.87-2.53c-.31-.14-.38-.23-.06-.46.76-.56,1-.56,1.73,0a27.94,27.94,0,0,1,3.6,2.91C128.86,22.44,128.68,22.32,128.5,22.23Z"/><path class="cls-28" d="M64,15.73a41.28,41.28,0,0,1-4-1.47A5.36,5.36,0,0,1,61.56,13c.33.11.5.41.7.65a10.71,10.71,0,0,0,1.38,1.47C63.82,15.26,64.09,15.41,64,15.73Z"/><path class="cls-29" d="M64,15.73a19.34,19.34,0,0,1-2.22-2.39.66.66,0,0,1-.2-.35A.35.35,0,0,1,62,12.7,26.63,26.63,0,0,1,64.36,15c.34.33.83.57.89,1.13a.48.48,0,0,1-.42,0C64.56,16,64.2,16,64,15.73Z"/><path class="cls-30" d="M78.05,44.39l-2.2-.71c-.13,0-.28-.1-.31-.25s.2-.15.29-.23a1.15,1.15,0,0,1,1.58,0c.87.58,1.84,1,2.76,1.52,0,.34-.27.18-.45.16l-.82-.18C78.63,44.54,78.33,44.5,78.05,44.39Z"/><path class="cls-31" d="M68,20.88c.42-1,.41-1-.45-1.84-.4-.38-.94-.64-1.12-1.22a27.55,27.55,0,0,1,2.89,1c.24.08.29.23.12.43Z"/><path class="cls-32" d="M115.82,11.62c-.15-.13-.29.05-.43.11-.67.29-1.1.95-1.82,1.17a6.85,6.85,0,0,1-1.73,1.35h0c-.48.36-1,.72-1.46,1.09-4.13,3.15-8.46,6-12.71,9L94,26.92c.12.07.15.11.19.11l9.73,0c.32,0,.45-.18.61-.39.89-1.16,1.79-2.3,2.67-3.46s1.91-2.51,2.86-3.76c.11-.17.3-.27.39-.47l3.23-4.12a2.8,2.8,0,0,0,.46-.57l.45-.56a5.71,5.71,0,0,1,.39-.47l.59-.94a2.75,2.75,0,0,1,.19-.28C115.83,11.9,116,11.76,115.82,11.62Z"/><path class="cls-33" d="M115.55,12.31l.06-.26c0-.12.26-.2.11-.34s-.21,0-.33,0a1.7,1.7,0,0,1,1.06-.63C116.09,11.59,116,12,115.55,12.31Z"/><path class="cls-30" d="M79.72,44.85c.15-.06.34,0,.45-.16.29.12.77,0,.7.56v0C80.5,45.08,80,45.18,79.72,44.85Z"/><path class="cls-30" d="M80.87,45.25c.36-.23.65-.11,1,.17a.93.93,0,0,1-1-.19Z"/><path class="cls-5" d="M102.06,12.7c.06-.3,0-.63.24-.89C102.27,12.12,102.5,12.5,102.06,12.7Z"/><path class="cls-3" d="M87.16,16.72a4.73,4.73,0,0,1,1.4-.14,2.51,2.51,0,0,1-1.45.25C87.08,16.77,87.1,16.73,87.16,16.72Z"/><path class="cls-12" d="M72.08,8.21c-.34.45-.88.24-1.31.39A2.89,2.89,0,0,1,72.08,8.21Z"/><path class="cls-31" d="M66.42,17.82c-.34-.11-.77,0-1-.38,0-.08.08-.09.15,0C65.83,17.57,66.21,17.51,66.42,17.82Z"/><path class="cls-3" d="M87.16,16.72a.54.54,0,0,1,0,.11L86,17C86.32,16.55,86.75,16.71,87.16,16.72Z"/><path class="cls-6" d="M82.59,12.73l.14-.14c.34,0,.65-.24,1-.12A1.41,1.41,0,0,1,82.59,12.73Z"/><path class="cls-34" d="M84.58,42.87c.17.09.39.07.55.28-.33.24-.54.07-.75-.14C84.4,42.9,84.5,42.9,84.58,42.87Z"/><path class="cls-23" d="M68.79,17.57c.34,0,.69,0,.88.38C69.36,17.86,69,17.85,68.79,17.57Z"/><path class="cls-35" d="M86,43.68v-.27c.28,0,.44.35.88.28A.83.83,0,0,1,86,43.68Z"/><path class="cls-36" d="M113.25,12.46a2.93,2.93,0,0,1-.86-.3A40.56,40.56,0,0,0,106.32,10c-.19-.09-.4-.13-.59-.24a11,11,0,0,1-1.29-.29c-.54-.18-.74,0-.79.53-.06.72-.13,1.44-.2,2.16l0,.71c1.8.33,3.59.69,5.37,1.15.81.21,1.67.85,2.54.11a7.28,7.28,0,0,0,1.68-1C113.28,13,113.53,12.77,113.25,12.46Z"/><path class="cls-30" d="M78.05,44.39a1,1,0,0,1,.85.28A1.38,1.38,0,0,1,78.05,44.39Z"/><path class="cls-4" d="M57.29,17.55v.28c-.19.1-.16.39-.38.46A.88.88,0,0,1,57.29,17.55Z"/><path class="cls-37" d="M116.62,11l-.14-.09a2.61,2.61,0,0,1,.17-.28s.13.06.14.1S116.75,11,116.62,11Z"/><path class="cls-38" d="M65.55,17.4l-.15,0-.44-.3A.52.52,0,0,1,65.55,17.4Z"/><path class="cls-39" d="M67.53,17.15c.21,0,.39,0,.46.24A.44.44,0,0,1,67.53,17.15Z"/><path class="cls-40" d="M84.58,42.87l-.2.14a.42.42,0,0,1-.42-.15l.19-.16Z"/><path class="cls-18" d="M59.13,15.27l-.41.29a.45.45,0,0,1,.42-.43Z"/><path class="cls-41" d="M64.83,16.15l.42,0,.17.23A.68.68,0,0,1,64.83,16.15Z"/></g></g></g></svg>