<svg xmlns="http://www.w3.org/2000/svg" xmlns:xlink="http://www.w3.org/1999/xlink" width="28.89" height="29.42" viewBox="0 0 28.89 29.42"><defs><style>.cls-1{fill:#232323;}.cls-2{fill:url(#linear-gradient);}</style><linearGradient id="linear-gradient" x1="-8" y1="214.52" x2="6.5" y2="200.4" gradientTransform="translate(-41.02 -185.22) rotate(-15.77)" gradientUnits="userSpaceOnUse"><stop offset="0" stop-color="#cf41e8"/><stop offset="1" stop-color="#10f2b0"/></linearGradient></defs><g id="Layer_2" data-name="Layer 2"><g id="_160x600" data-name="160x600"><path class="cls-1" d="M10.43.55h0a14.32,14.32,0,0,1,17.67,9.89l.22.77a14.33,14.33,0,0,1-9.89,17.68h0A14.32,14.32,0,0,1,.76,19l-.22-.77A14.32,14.32,0,0,1,10.43.55Z"/><path class="cls-2" d="M19.35,9.54a.34.34,0,0,1-.13.16.44.44,0,0,1-.19.1L6.25,13.41a.56.56,0,0,1-.62-.8L7.1,9.79a.57.57,0,0,1,.32-.27L20.25,5.9a.56.56,0,0,1,.62.81Zm2.81,10a.52.52,0,0,1-.31.25L9.07,23.37a.54.54,0,0,1-.62-.78l1.49-2.77a.51.51,0,0,1,.13-.16.66.66,0,0,1,.19-.09l12.83-3.63a.54.54,0,0,1,.61.79Zm-2.23-7.93a.54.54,0,0,0-.41-.05L6.74,15.14a.54.54,0,0,0-.11,1l2.71,1.59a.36.36,0,0,0,.2.06.5.5,0,0,0,.21,0l12.83-3.63a.53.53,0,0,0,.11-1Z"/></g></g></svg>