<svg xmlns="http://www.w3.org/2000/svg" viewBox="0 0 309 30.42"><defs><style>.cls-1{fill:#fff;}</style></defs><g id="Layer_2" data-name="Layer 2"><g id="Layer_1-2" data-name="Layer 1"><path class="cls-1" d="M6.06,29.94H0V.44H9.64L19.52,27.7l-1,.26V.44h6v29.5h-9.7L4.94,2.76,6.06,2.5Z"/><path class="cls-1" d="M30.06,5.24l2.8-3V14.5l-1.4-1.76H42.34v4.8H31.46l1.4-1.76V28.1l-2.8-3h14.5v4.8H26.62V.44H44.56v4.8Z"/><path class="cls-1" d="M49.92,29.94,45.6.44H52L55.12,28.6l-.9,0,5-28.12H67l5,28.12-.9,0L74.18.44h6.38l-4.32,29.5H66.72L62.78,4.74h.64l-4,25.2Z"/><path class="cls-1" d="M88.16,29.94V24.86a4.93,4.93,0,0,1,1.06-1.31c.59-.58,1.3-1.24,2.14-2S93.08,20.1,94,19.33l2.57-2.13c.93-.77,1.84-1.58,2.72-2.41a13.17,13.17,0,0,0,2.19-2.66,5.57,5.57,0,0,0,.87-3A4.93,4.93,0,0,0,101.43,6a3.51,3.51,0,0,0-3-1.18,4.21,4.21,0,0,0-2.57.71,3.83,3.83,0,0,0-1.35,2,9.84,9.84,0,0,0-.4,3H88a12,12,0,0,1,1.23-5.6,8.52,8.52,0,0,1,3.6-3.63A12.09,12.09,0,0,1,98.58,0a11.51,11.51,0,0,1,5.55,1.22,8.08,8.08,0,0,1,3.35,3.3,9.72,9.72,0,0,1,1.12,4.7,8.07,8.07,0,0,1-.67,3.29,12.32,12.32,0,0,1-1.74,2.83,19.81,19.81,0,0,1-2.29,2.37c-.81.71-1.58,1.36-2.3,1.93-1.21,1-2.27,1.81-3.16,2.54s-1.6,1.35-2.13,1.86a4.55,4.55,0,0,0-1,1.16h13.08v4.74Z"/><path class="cls-1" d="M120,30.42a9,9,0,0,1-4.79-1.22,9.39,9.39,0,0,1-3.2-3.33A15.78,15.78,0,0,1,110.24,21a28.28,28.28,0,0,1-.56-5.76,28.38,28.38,0,0,1,.56-5.77A16.23,16.23,0,0,1,112,4.6a9.43,9.43,0,0,1,3.2-3.37,9.94,9.94,0,0,1,9.58,0A9.43,9.43,0,0,1,128,4.6a16.23,16.23,0,0,1,1.79,4.89,29.11,29.11,0,0,1,.56,5.77A29,29,0,0,1,129.8,21,15.78,15.78,0,0,1,128,25.87a9.39,9.39,0,0,1-3.2,3.33A9,9,0,0,1,120,30.42Zm0-4.82a2.88,2.88,0,0,0,2.25-1,7.18,7.18,0,0,0,1.37-3.31,31.21,31.21,0,0,0,.46-6,31.18,31.18,0,0,0-.46-6,7.22,7.22,0,0,0-1.37-3.31,2.94,2.94,0,0,0-4.49,0,7.22,7.22,0,0,0-1.38,3.31,31.18,31.18,0,0,0-.46,6,31.18,31.18,0,0,0,.46,6,7.18,7.18,0,0,0,1.38,3.3A2.88,2.88,0,0,0,120,25.6Z"/><path class="cls-1" d="M131.1,29.94V24.86a4.93,4.93,0,0,1,1.06-1.31c.58-.58,1.3-1.24,2.14-2S136,20.1,137,19.33l2.57-2.13c.93-.77,1.84-1.58,2.72-2.41a13.17,13.17,0,0,0,2.19-2.66,5.57,5.57,0,0,0,.87-3A4.93,4.93,0,0,0,144.37,6a3.53,3.53,0,0,0-3-1.18,4.21,4.21,0,0,0-2.57.71,3.72,3.72,0,0,0-1.35,2,9.84,9.84,0,0,0-.4,3h-6.2a12,12,0,0,1,1.23-5.6,8.52,8.52,0,0,1,3.6-3.63A12.09,12.09,0,0,1,141.52,0a11.51,11.51,0,0,1,5.55,1.22,8.14,8.14,0,0,1,3.35,3.3,9.83,9.83,0,0,1,1.12,4.7,8.23,8.23,0,0,1-.67,3.29,12.32,12.32,0,0,1-1.74,2.83,20.61,20.61,0,0,1-2.29,2.37c-.82.71-1.58,1.36-2.3,1.93-1.22,1-2.27,1.81-3.16,2.54s-1.61,1.35-2.13,1.86a4.55,4.55,0,0,0-1,1.16h13.08v4.74Z"/><path class="cls-1" d="M172.46,5.12H160.78l-1.06,7.7a1.56,1.56,0,0,1,.42-.54,4.4,4.4,0,0,1,1-.69,6.59,6.59,0,0,1,1.62-.58,9.92,9.92,0,0,1,2.25-.23,7.37,7.37,0,0,1,6.09,2.59,10.47,10.47,0,0,1,2.09,6.77,12.59,12.59,0,0,1-1.15,5.64,7.74,7.74,0,0,1-3.39,3.47,12,12,0,0,1-5.58,1.17,11.67,11.67,0,0,1-4.61-.81,8.29,8.29,0,0,1-3.06-2.16,8.65,8.65,0,0,1-1.71-3,10.72,10.72,0,0,1-.54-3.35V21h6.14v.08a5.72,5.72,0,0,0,1,3.32,3.37,3.37,0,0,0,2.87,1.18,3.64,3.64,0,0,0,2.11-.58,3.51,3.51,0,0,0,1.27-1.77,9,9,0,0,0,.42-3,7,7,0,0,0-.84-3.73,3,3,0,0,0-2.7-1.33,4.19,4.19,0,0,0-1.93.42,4.27,4.27,0,0,0-1.36,1,3.77,3.77,0,0,0-.75,1.22l-5.9-1.54L155.8.44h16.66Z"/><path class="cls-1" d="M202.08,5.24h-9.74l2.48-3V29.94h-6.18V2.28l2.56,3h-9.8V.44h20.68Z"/><path class="cls-1" d="M203.06,29.94V.44h6.12v29.5Z"/><path class="cls-1" d="M223.08,30.42a11.94,11.94,0,0,1-6.37-1.75,12.15,12.15,0,0,1-4.56-5.12,18.33,18.33,0,0,1-1.69-8.29A17.68,17.68,0,0,1,212.24,7,12.6,12.6,0,0,1,217,1.78,12.92,12.92,0,0,1,223.76,0,12.39,12.39,0,0,1,229,1a10.35,10.35,0,0,1,3.5,2.56,10.55,10.55,0,0,1,2,3.29A9.6,9.6,0,0,1,235.1,10v.24h-6V10a5.38,5.38,0,0,0-.34-1.83,4.89,4.89,0,0,0-2.67-2.79A5.67,5.67,0,0,0,223.76,5a6.18,6.18,0,0,0-3.36,1,7.16,7.16,0,0,0-2.62,3.25,14.82,14.82,0,0,0-1,6,17.6,17.6,0,0,0,.57,4.84,8.71,8.71,0,0,0,1.53,3.13,5.74,5.74,0,0,0,2.19,1.69,6.43,6.43,0,0,0,2.55.52,6.79,6.79,0,0,0,3.05-.61,5.54,5.54,0,0,0,1.93-1.51,4.76,4.76,0,0,0,.9-1.78V19.62h-5.84V15.14H235v14.8h-3.26l-.56-3.26a4.76,4.76,0,0,1-.68,1A7.12,7.12,0,0,1,229,28.93,9.11,9.11,0,0,1,226.59,30,12.48,12.48,0,0,1,223.08,30.42Z"/><path class="cls-1" d="M259.3,19.28q0,5.59-3,8.37a11.39,11.39,0,0,1-8.1,2.77c-3.44,0-6.15-.92-8.11-2.77s-2.95-4.64-2.95-8.37V.44h6.22V19.38A7.48,7.48,0,0,0,244.54,24a4.39,4.39,0,0,0,3.7,1.47,4.44,4.44,0,0,0,3.7-1.47,7.41,7.41,0,0,0,1.16-4.59V.44h6.2Z"/><path class="cls-1" d="M259.36,29.94,266.72.4h9.82l7.32,29.54H277.5L271.62,4.18h0l-5.94,25.76Zm5.28-6.84V18.26h14V23.1Z"/><path class="cls-1" d="M290.54,29.94h-6.06V.44h9.64L304,27.7,303,28V.44h6v29.5h-9.7L289.42,2.76l1.12-.26Z"/></g></g></svg>