<svg xmlns="http://www.w3.org/2000/svg" viewBox="0 0 321.73 56.22"><defs><style>.cls-1{fill:#fff;}</style></defs><g id="Layer_2" data-name="Layer 2"><g id="Layer_1-2" data-name="Layer 1"><path class="cls-1" d="M14,.23h3.57V23.64H14.64L3.58,7.15V23.64H0V.23H3.11L14,16.48Z"/><path class="cls-1" d="M31.22,6.92h3.34V23.7H32l-.1-1.27a3.44,3.44,0,0,1-3,1.41H27A5.7,5.7,0,0,1,21.36,18v-11h3.38V18A2.51,2.51,0,0,0,27,20.73H29a2.4,2.4,0,0,0,2.27-2.44Z"/><path class="cls-1" d="M53.55,6.72a5.42,5.42,0,0,1,4,1.67,5.72,5.72,0,0,1,1.64,4.21v11H55.82v-11a2.48,2.48,0,0,0-2.27-2.74h-1.2a2.37,2.37,0,0,0-2.28,2.54V23.64H46.7V12.44a2.5,2.5,0,0,0-2.28-2.58h-1.2A2.31,2.31,0,0,0,41,12.27V23.64H37.6V6.89h2.54l.11,1.23a3.75,3.75,0,0,1,3.1-1.4h1.07a4.89,4.89,0,0,1,3.95,1.84,4.86,4.86,0,0,1,4-1.84Z"/><path class="cls-1" d="M78.15,6.72a5.42,5.42,0,0,1,4,1.67,5.68,5.68,0,0,1,1.64,4.21v11H80.43v-11a2.48,2.48,0,0,0-2.28-2.74H77a2.37,2.37,0,0,0-2.27,2.54V23.64H71.3V12.44A2.49,2.49,0,0,0,69,9.86H67.82a2.31,2.31,0,0,0-2.27,2.41V23.64H62.21V6.89h2.54l.1,1.23A3.77,3.77,0,0,1,68,6.72H69A4.87,4.87,0,0,1,73,8.56a4.86,4.86,0,0,1,4-1.84Z"/><path class="cls-1" d="M86.07,13.27a6.44,6.44,0,0,1,1.87-4.85,6.61,6.61,0,0,1,4.72-1.77c4.24,0,6.68,2.38,6.68,6.62v3.41H89.45v.14c0,2.44.84,3.64,3.08,3.64h6.38V23.6H92.53c-4.79,0-6.46-2.7-6.46-8Zm9.93.4v-.53c0-2.31-1.1-3.34-3.34-3.34a3,3,0,0,0-3.21,3.34v.53Z"/><path class="cls-1" d="M111.11,6.65V9.8h-2.67A3,3,0,0,0,105,13.21V23.6h-3.38V6.85h2.54l.17,1.71c.7-1.27,2.07-1.91,4.08-1.91Z"/><path class="cls-1" d="M129.46.77h2.64v22.9h-3.57V5.48l-4.72,3.18L122,5.75Z"/><path class="cls-1" d="M156.54,6.92h3.51L153.9,23.64h-3.61L144.17,6.92h3.54l4.38,12.4Z"/><path class="cls-1" d="M160.71,13.27a6.44,6.44,0,0,1,1.87-4.85,6.61,6.61,0,0,1,4.72-1.77c4.24,0,6.69,2.38,6.69,6.62v3.41h-9.9v.14c0,2.44.84,3.64,3.08,3.64h6.38V23.6h-6.38c-4.79,0-6.46-2.7-6.46-8Zm9.93.4v-.53c0-2.31-1.1-3.34-3.34-3.34a3,3,0,0,0-3.21,3.34v.53Z"/><path class="cls-1" d="M185.75,6.65V9.8h-2.67a3,3,0,0,0-3.41,3.41V23.6h-3.38V6.85h2.54L179,8.56c.7-1.27,2.07-1.91,4.08-1.91Z"/><path class="cls-1" d="M188,.23h3.37V8.12a3.09,3.09,0,0,1,2.81-1.37h1.34a5.43,5.43,0,0,1,4,1.67,5.75,5.75,0,0,1,1.67,4.22v11h-3.38v-11a2.48,2.48,0,0,0-2.27-2.74h-1.87a2.49,2.49,0,0,0-2.28,2.57V23.64H188Z"/><path class="cls-1" d="M213.76,6.92h3.35V23.7h-2.54l-.11-1.27a3.44,3.44,0,0,1-3,1.41h-1.94A5.7,5.7,0,0,1,203.9,18v-11h3.38V18a2.51,2.51,0,0,0,2.27,2.78h1.94a2.4,2.4,0,0,0,2.27-2.44Z"/><path class="cls-1" d="M220.28,1.34h3.38V5.05h-3.38Zm0,5.58h3.38V23.64h-3.38Z"/><path class="cls-1" d="M238.5,6.72V9.86h-6.32c-1.77,0-2.68.6-2.68,1.81,0,1,.87,1.54,2.71,1.7.44.07,1,.1,1.27.17,3.51.37,5.52,2.14,5.52,5,0,3.65-2.61,5.32-6.49,5.32H226.6V20.66h5.91c2.28,0,3.15-.57,3.15-2.14,0-1.1-.64-1.64-2.51-1.87l-1.27-.13c-3.45-.37-5.75-1.88-5.75-4.85,0-3.61,3.07-4.95,6.05-4.95Z"/><path class="cls-1" d="M241.44.23h3.37V8.12a3.26,3.26,0,0,1,2.81-1.4H249a5.43,5.43,0,0,1,4,1.67,5.74,5.74,0,0,1,1.67,4.21v4.48A6.91,6.91,0,0,1,253,21.8a5.15,5.15,0,0,1-4.11,1.84h-2.17a3.35,3.35,0,0,1-2.61-1.27L244,23.64h-2.54Zm9.79,12.37A2.49,2.49,0,0,0,249,9.86h-1.87a2.5,2.5,0,0,0-2.28,2.58v6.22a2,2,0,0,0,1.91,1.83h2.17c1.34,0,2.34-1.27,2.34-3.41Z"/><path class="cls-1" d="M256.38,13.27a6.4,6.4,0,0,1,1.87-4.85A6.61,6.61,0,0,1,263,6.65c4.24,0,6.68,2.38,6.68,6.62v3.41h-9.89v.14c0,2.44.83,3.64,3.07,3.64h6.39V23.6h-6.39c-4.78,0-6.45-2.7-6.45-8Zm9.93.4v-.53c0-2.31-1.1-3.34-3.34-3.34a3,3,0,0,0-3.21,3.34v.53Z"/><path class="cls-1" d="M281.05.23h3.38V23.64h-2.55l-.13-1.27a3.29,3.29,0,0,1-2.61,1.27H277a5.17,5.17,0,0,1-4.11-1.84,7,7,0,0,1-1.61-4.72V12.6a5.72,5.72,0,0,1,1.64-4.21,5.5,5.5,0,0,1,4-1.67h1.34a3.26,3.26,0,0,1,2.81,1.4Zm0,12.21a2.49,2.49,0,0,0-2.27-2.58H276.9a2.5,2.5,0,0,0-2.27,2.74v4.48c0,2.14,1,3.41,2.34,3.41h2.17a1.93,1.93,0,0,0,1.91-1.83Z"/><path class="cls-1" d="M297.19,6.65V9.8h-2.67a3.05,3.05,0,0,0-3.41,3.41V23.6h-3.38V6.85h2.54l.17,1.71c.7-1.27,2.07-1.91,4.08-1.91Z"/><path class="cls-1" d="M299.4,1.34h3.38V5.05H299.4Zm0,5.58h3.38V23.64H299.4Z"/><path class="cls-1" d="M306.12,6.92h3.34V21.06a9.11,9.11,0,0,1-1.54,5.18L305.25,30l-2.74-1.78,2.67-3.74a5.39,5.39,0,0,0,.94-3.38Zm0-5.62h3.34V5.05h-3.34Z"/><path class="cls-1" d="M313.77,6.92V6.35C314,1.71,317.38,0,321.23,0a2.85,2.85,0,0,1,.5,0V3c-2.71,0-4.52.94-4.52,3.34v.57h4.52v3H317V23.64h-3.37V9.93h-2v-3Z"/><path class="cls-1" d="M58,33.66h3.37v3.71H58Zm0,5.58h3.37V56H58Z"/><path class="cls-1" d="M72.15,39a5.41,5.41,0,0,1,3.95,1.67,5.74,5.74,0,0,1,1.67,4.21v11H74.42v-11a2.48,2.48,0,0,0-2.27-2.74H70.21a2.37,2.37,0,0,0-2.27,2.41V55.92H64.56V39.21H67.1l.1,1.23a3.68,3.68,0,0,1,3-1.4Z"/><path class="cls-1" d="M101,32.55h3.37v7.89a3.09,3.09,0,0,1,2.81-1.37h1.34a5.4,5.4,0,0,1,4,1.68A5.71,5.71,0,0,1,114.17,45V56h-3.38V45a2.47,2.47,0,0,0-2.27-2.74h-1.87a2.49,2.49,0,0,0-2.28,2.57V56H101Z"/><path class="cls-1" d="M116.44,45.59a6.4,6.4,0,0,1,1.87-4.84A6.62,6.62,0,0,1,123,39c4.24,0,6.68,2.38,6.68,6.62V49h-9.89v.14c0,2.44.83,3.64,3.07,3.64h6.39v3.14h-6.39c-4.78,0-6.45-2.7-6.45-8Zm9.93.4v-.53c0-2.31-1.1-3.34-3.34-3.34a3,3,0,0,0-3.21,3.34V46Z"/><path class="cls-1" d="M133.25,35.6h3.35v3.64h4.94v3.11H136.6v8.06c0,2,.53,2.67,2.1,2.67h2.84v3.14H138.7c-3.91,0-5.45-2.37-5.45-5.81V42.35h-2.4V39.24h2.4Z"/><path class="cls-1" d="M168.79,32.55h3.57V56h-2.94L158.36,39.47V56h-3.58V32.55h3.11l10.9,16.25Z"/><path class="cls-1" d="M183.43,39a5.3,5.3,0,0,1,4.21,2,6.64,6.64,0,0,1,1.7,4.51V50a6.27,6.27,0,0,1-1.67,4.38,5.53,5.53,0,0,1-4.24,1.8h-1.88a5.53,5.53,0,0,1-4.24-1.8A6.32,6.32,0,0,1,175.64,50V45.49A6.81,6.81,0,0,1,177.31,41a5.41,5.41,0,0,1,4.24-2ZM186,45.49c0-1.77-1.21-3.34-2.54-3.34h-1.88c-1.33,0-2.54,1.57-2.54,3.34V50c0,1.77,1.11,3.07,2.54,3.07h1.88A2.8,2.8,0,0,0,186,50Z"/><path class="cls-1" d="M198.9,39a5.32,5.32,0,0,1,4.22,2,6.69,6.69,0,0,1,1.7,4.51V50a6.32,6.32,0,0,1-1.67,4.38,5.54,5.54,0,0,1-4.25,1.8H197a5.53,5.53,0,0,1-4.24-1.8A6.28,6.28,0,0,1,191.11,50V45.49A6.77,6.77,0,0,1,192.79,41,5.4,5.4,0,0,1,197,39Zm2.54,6.48c0-1.77-1.2-3.34-2.54-3.34H197c-1.34,0-2.54,1.57-2.54,3.34V50c0,1.77,1.1,3.07,2.54,3.07h1.87A2.8,2.8,0,0,0,201.44,50Z"/><path class="cls-1" d="M216.75,39v3.15h-2.67a3.05,3.05,0,0,0-3.41,3.41V55.92h-3.38V39.17h2.54l.17,1.71c.7-1.27,2.07-1.91,4.08-1.91Z"/><path class="cls-1" d="M227.38,32.55h3.38V56h-2.54l-.13-1.27A3.3,3.3,0,0,1,225.48,56H223.3a5.17,5.17,0,0,1-4.11-1.84,7,7,0,0,1-1.6-4.72V44.92a5.68,5.68,0,0,1,1.64-4.21,5.48,5.48,0,0,1,4-1.67h1.34a3.23,3.23,0,0,1,2.8,1.4Zm0,12.21a2.49,2.49,0,0,0-2.27-2.58h-1.87A2.5,2.5,0,0,0,221,44.92V49.4c0,2.14,1,3.41,2.34,3.41h2.18a1.93,1.93,0,0,0,1.9-1.83Z"/><path class="cls-1" d="M233.36,45.59a6.37,6.37,0,0,1,1.88-4.84A6.57,6.57,0,0,1,240,39c4.25,0,6.69,2.38,6.69,6.62V49h-9.9v.14c0,2.44.84,3.64,3.08,3.64h6.38v3.14h-6.38c-4.78,0-6.46-2.7-6.46-8Zm9.93.4v-.53c0-2.31-1.1-3.34-3.34-3.34a3,3,0,0,0-3.21,3.34V46Z"/><path class="cls-1" d="M256.53,39a5.41,5.41,0,0,1,4,1.67,5.74,5.74,0,0,1,1.67,4.21v11H258.8v-11a2.48,2.48,0,0,0-2.27-2.74h-1.94a2.37,2.37,0,0,0-2.27,2.41V55.92h-3.38V39.21h2.54l.1,1.23a3.68,3.68,0,0,1,3-1.4Z"/></g></g></svg>