<svg xmlns="http://www.w3.org/2000/svg" viewBox="0 0 184.57 65.84"><defs><style>.cls-1{fill:#fff;}</style></defs><g id="Layer_2" data-name="Layer 2"><g id="Layer_1-2" data-name="Layer 1"><path class="cls-1" d="M6,0H9.22l6,16.15H11.81l-1.14-3.27H4.39L3.25,16.15H0ZM5.3,10.27H9.76L7.53,3.9Z"/><path class="cls-1" d="M23.66,14.57a3.87,3.87,0,0,1-3.5,1.87c-2.87,0-4-1.76-4-4.7V4.17h3.08v6.9c0,1.61.24,2.9,2,2.9,2,0,2.49-1.67,2.49-3.57V4.17h3.08v12H23.66Z"/><path class="cls-1" d="M29.92.91H33V4.17h2.49V6.28H33v6.2c0,1.22.42,1.47,1.51,1.47h.94v2.2H33.2c-2.76,0-3.28-.85-3.28-3.23V6.28H28.23V4.17h1.69Z"/><path class="cls-1" d="M36.65,10.18a6,6,0,1,1,12,0,6,6,0,1,1-12,0Zm3.12,0c0,2.52,1.2,3.86,2.9,3.86s2.89-1.34,2.89-3.86S44.36,6.3,42.67,6.3,39.77,7.66,39.77,10.18Z"/><path class="cls-1" d="M56,3.5C56,.47,57.4,0,60.4,0h1.05V2.27h-.6c-1.52,0-1.81.18-1.81,1.32v.58h2.41V6.28H59v9.87H56V6.28H54.28V4.17H56Z"/><path class="cls-1" d="M66.18,16.44c-2.3,0-4.33-1.34-4.33-3.52,0-2.83,3.17-3.67,7.89-4.21v-.2c0-1.85-1-2.5-2.25-2.5A2,2,0,0,0,65.26,8H62.39c.24-2.36,2.16-4.1,5.26-4.1,2.83,0,5.16,1.25,5.16,5.28,0,.36,0,2,0,3.06a15.63,15.63,0,0,0,.36,4H70.3a12.63,12.63,0,0,1-.2-1.49A4.33,4.33,0,0,1,66.18,16.44Zm3.65-5.77C66.38,11,65,11.43,65,12.76c0,.87.67,1.59,2.07,1.59,1.94,0,2.74-1,2.74-2.79Z"/><path class="cls-1" d="M78.45,5.75A3.81,3.81,0,0,1,81.93,3.9c2.87,0,4.14,1.74,4.14,4.7v7.55H83V9.27c0-1.54-.34-2.9-2.07-2.9-2,0-2.48,1.65-2.48,3.54v6.24H75.38V0h3.07Z"/><path class="cls-1" d="M95.52,7.13a7.67,7.67,0,0,0-1.27-.07c-1.51,0-2.52.56-2.52,2.81v6.28H88.66v-12h3V6.26a3.21,3.21,0,0,1,3.16-2.07c.2,0,.47,0,.67,0Z"/><path class="cls-1" d="M99.38,11a3,3,0,0,0,3,3.06,2.75,2.75,0,0,0,2.51-1.38h3.17a5.72,5.72,0,0,1-5.66,3.76c-3.86,0-6.11-2.87-6.11-6.33a5.91,5.91,0,0,1,6-6.21c3.7,0,6,2.87,5.88,7.1Zm0-2.11h5.68a2.62,2.62,0,0,0-2.78-2.74A2.89,2.89,0,0,0,99.42,8.89Z"/><path class="cls-1" d="M113.28,5.75a3.8,3.8,0,0,1,3.47-1.85c2.88,0,4.15,1.74,4.15,4.7v7.55h-3.08V9.27c0-1.54-.33-2.9-2.07-2.9-2,0-2.47,1.65-2.47,3.54v6.24h-3.07v-12h3.07Z"/><path class="cls-1" d="M132.35,16.44c-2.29,0-4.32-1.34-4.32-3.52,0-2.83,3.17-3.67,7.89-4.21v-.2c0-1.85-1-2.5-2.25-2.5A2,2,0,0,0,131.44,8h-2.87c.24-2.36,2.16-4.1,5.25-4.1,2.83,0,5.17,1.25,5.17,5.28,0,.36,0,2,0,3.06a16.22,16.22,0,0,0,.35,4h-2.83c-.08-.38-.13-.89-.2-1.49A4.31,4.31,0,0,1,132.35,16.44ZM136,10.67c-3.46.36-4.81.76-4.81,2.09,0,.87.66,1.59,2.07,1.59,1.94,0,2.74-1,2.74-2.79Z"/><path class="cls-1" d="M148.93,14.57a3.87,3.87,0,0,1-3.5,1.87c-2.87,0-4-1.76-4-4.7V4.17h3.08v6.9c0,1.61.24,2.9,2,2.9,2.05,0,2.49-1.67,2.49-3.57V4.17H152v12h-3.07Z"/><path class="cls-1" d="M155.06,3.5c0-3,1.43-3.5,4.43-3.5h1V2.27h-.6c-1.52,0-1.81.18-1.81,1.32v.58h2.41V6.28h-2.41v9.87h-3.07V6.28h-1.69V4.17h1.69Z"/><path class="cls-1" d="M3.65,34.26a3,3,0,0,0,3,3.05A2.75,2.75,0,0,0,9.2,35.93h3.16a5.7,5.7,0,0,1-5.65,3.76C2.85,39.69.6,36.82.6,33.37a5.91,5.91,0,0,1,6-6.22c3.69,0,6,2.87,5.88,7.11Zm.05-2.12H9.38A2.62,2.62,0,0,0,6.59,29.4,2.88,2.88,0,0,0,3.7,32.14Z"/><path class="cls-1" d="M17.56,29A3.8,3.8,0,0,1,21,27.15c2.88,0,4.15,1.74,4.15,4.7V39.4H22.1V32.52c0-1.54-.33-2.9-2.07-2.9-2,0-2.47,1.65-2.47,3.55V39.4H14.48v-12h3.08Z"/><path class="cls-1" d="M28.19,24.16h3.07v3.26h2.5v2.11h-2.5v6.2c0,1.22.42,1.47,1.52,1.47h.93v2.2H31.46c-2.76,0-3.27-.84-3.27-3.23V29.53h-1.7V27.42h1.7Z"/><path class="cls-1" d="M42.47,31a2.39,2.39,0,0,0-2.56-1.72c-1.14,0-1.94.42-1.94,1.16s.47,1.14,1.6,1.38l1.6.36c2.39.53,4.42,1.13,4.42,3.61s-2.48,3.87-5.19,3.87c-2.94,0-5.17-1.51-5.46-4.25h3a2.32,2.32,0,0,0,2.58,2c1.34,0,2.17-.49,2.17-1.35s-.92-1.23-2-1.48l-1.79-.37c-2.25-.47-3.74-1.41-3.74-3.59s2.32-3.57,4.9-3.57,4.86,1.16,5.28,3.93Z"/><path class="cls-1" d="M47.5,43.3V27.42h3.08V29A3.85,3.85,0,0,1,54,27.15c2.9,0,5.22,2.49,5.22,6.26S56.86,39.69,54,39.69a3.84,3.84,0,0,1-3.43-1.8V43.3ZM56,33.43c0-2.34-1.13-3.92-2.74-3.92s-2.8,1.49-2.8,3.9,1.11,3.92,2.8,3.92S56,35.77,56,33.43Z"/><path class="cls-1" d="M65,39.69c-2.29,0-4.32-1.33-4.32-3.52,0-2.83,3.16-3.67,7.88-4.21v-.2c0-1.85-1-2.49-2.25-2.49A2,2,0,0,0,64,31.2H61.16c.25-2.36,2.16-4.1,5.26-4.1,2.83,0,5.17,1.25,5.17,5.28,0,.36,0,2,0,3.06a16.12,16.12,0,0,0,.36,4H69.07c-.09-.38-.13-.89-.2-1.49A4.33,4.33,0,0,1,65,39.69Zm3.65-5.77c-3.45.36-4.81.76-4.81,2.1,0,.86.67,1.58,2.07,1.58,1.94,0,2.74-1,2.74-2.79Z"/><path class="cls-1" d="M77.23,29a3.8,3.8,0,0,1,3.47-1.85c2.88,0,4.15,1.74,4.15,4.7V39.4H81.77V32.52c0-1.54-.33-2.9-2.07-2.9-2,0-2.47,1.65-2.47,3.55V39.4H74.15v-12h3.08Z"/><path class="cls-1" d="M90.51,29A3.8,3.8,0,0,1,94,27.15c2.88,0,4.15,1.74,4.15,4.7V39.4H95.05V32.52c0-1.54-.33-2.9-2.07-2.9-2,0-2.47,1.65-2.47,3.55V39.4H87.43v-12h3.08Z"/><path class="cls-1" d="M101.14,24.16h3.07v3.26h2.5v2.11h-2.5v6.2c0,1.22.42,1.47,1.52,1.47h.93v2.2h-2.25c-2.76,0-3.27-.84-3.27-3.23V29.53h-1.7V27.42h1.7Z"/><path class="cls-1" d="M108.65,39.4V36.06h3.29V39.4Z"/><path class="cls-1" d="M4.2,65.61H.53L6.12,49.4h4.42l5.59,16.21H12.45l-4-12.5H8.27ZM4,59.24h8.67v2.67H4Z"/><path class="cls-1" d="M25.8,60.43v-7h3.37V65.61H25.94V63.4h-.13a3.65,3.65,0,0,1-1.36,1.72,4.44,4.44,0,0,1-4.47.09,3.71,3.71,0,0,1-1.44-1.57A5.31,5.31,0,0,1,18,61.19V53.45h3.37v7.14a2.41,2.41,0,0,0,.58,1.7,2,2,0,0,0,1.52.63,2.46,2.46,0,0,0,1.14-.28,2.17,2.17,0,0,0,.86-.84A2.53,2.53,0,0,0,25.8,60.43Z"/><path class="cls-1" d="M38.33,53.45V56H31V53.45Zm-5.66-2.91H36V61.87a1.6,1.6,0,0,0,.14.73.82.82,0,0,0,.4.36,1.57,1.57,0,0,0,.6.1,3.88,3.88,0,0,0,.48,0L38,63l.53,2.51-.71.18a5.66,5.66,0,0,1-1.12.13,4.93,4.93,0,0,1-2.13-.32,3,3,0,0,1-1.42-1.16,3.54,3.54,0,0,1-.5-2Z"/><path class="cls-1" d="M45.89,65.84a6.23,6.23,0,0,1-3.19-.78,5.42,5.42,0,0,1-2.07-2.2,7.78,7.78,0,0,1,0-6.58,5.42,5.42,0,0,1,2.07-2.2,6.89,6.89,0,0,1,6.37,0,5.42,5.42,0,0,1,2.07,2.2,7.78,7.78,0,0,1,0,6.58,5.42,5.42,0,0,1-2.07,2.2A6.22,6.22,0,0,1,45.89,65.84Zm0-2.61a2.07,2.07,0,0,0,1.4-.48,2.82,2.82,0,0,0,.85-1.3,6.34,6.34,0,0,0,0-3.79,2.9,2.9,0,0,0-.85-1.31,2.07,2.07,0,0,0-1.4-.48,2.14,2.14,0,0,0-1.42.48,2.92,2.92,0,0,0-.86,1.31,6.34,6.34,0,0,0,0,3.79,2.83,2.83,0,0,0,.86,1.3A2.14,2.14,0,0,0,45.9,63.23Z"/><path class="cls-1" d="M57,60.75v-.27a8.56,8.56,0,0,1,.25-2.21,3.31,3.31,0,0,1,.71-1.33A5.7,5.7,0,0,1,59,56a8.07,8.07,0,0,0,.88-.66,2.76,2.76,0,0,0,.62-.76,1.89,1.89,0,0,0,.23-.93,1.76,1.76,0,0,0-.26-1,1.79,1.79,0,0,0-.7-.64,2.26,2.26,0,0,0-1-.22,2.16,2.16,0,0,0-1,.23,1.93,1.93,0,0,0-.76.66,2.06,2.06,0,0,0-.31,1.09H53.57a4.64,4.64,0,0,1,.76-2.62,4.4,4.4,0,0,1,1.91-1.54,6.53,6.53,0,0,1,2.61-.51,7,7,0,0,1,2.79.52,4.26,4.26,0,0,1,1.9,1.5,4,4,0,0,1,.69,2.36,4.08,4.08,0,0,1-.31,1.65,3.84,3.84,0,0,1-.85,1.26,6.31,6.31,0,0,1-1.29,1,4.77,4.77,0,0,0-1,.77,2.57,2.57,0,0,0-.6.93,4.1,4.1,0,0,0-.2,1.31v.27Zm1.57,5.06a1.9,1.9,0,0,1-1.35-3.23,1.9,1.9,0,0,1,2.67,0,1.85,1.85,0,0,1,.58,1.33,2,2,0,0,1-.27,1,2.1,2.1,0,0,1-.7.69A1.75,1.75,0,0,1,58.53,65.81Z"/><path class="cls-1" d="M74.62,65.61H71l5.6-16.21H81l5.59,16.21H82.88l-4.06-12.5h-.13Zm-.23-6.37h8.68v2.67H74.39Z"/><path class="cls-1" d="M88.49,65.61V49.4h3.38v6.1H92a4.57,4.57,0,0,1,.64-1,3.45,3.45,0,0,1,1.11-.85,3.8,3.8,0,0,1,1.71-.34,4.61,4.61,0,0,1,2.45.69,4.73,4.73,0,0,1,1.79,2.08,7.9,7.9,0,0,1,.68,3.48A8,8,0,0,1,99.69,63a4.83,4.83,0,0,1-1.77,2.11,4.51,4.51,0,0,1-2.5.72,3.82,3.82,0,0,1-1.67-.33,3.53,3.53,0,0,1-1.12-.82,3.93,3.93,0,0,1-.66-1h-.15v2Zm3.3-6.08a5.43,5.43,0,0,0,.3,1.89A2.79,2.79,0,0,0,93,62.68a2.24,2.24,0,0,0,1.39.44,2.17,2.17,0,0,0,1.39-.45,2.88,2.88,0,0,0,.87-1.27,5.35,5.35,0,0,0,.3-1.87,5.24,5.24,0,0,0-.3-1.85,2.72,2.72,0,0,0-.86-1.25,2.43,2.43,0,0,0-2.79,0,2.68,2.68,0,0,0-.87,1.24A5.33,5.33,0,0,0,91.79,59.53Z"/><path class="cls-1" d="M108.08,65.84a6.26,6.26,0,0,1-3.19-.78,5.42,5.42,0,0,1-2.07-2.2,7.88,7.88,0,0,1,0-6.58,5.42,5.42,0,0,1,2.07-2.2,6.26,6.26,0,0,1,3.19-.78,6.19,6.19,0,0,1,3.18.78,5.29,5.29,0,0,1,2.07,2.2,7.78,7.78,0,0,1,0,6.58,5.29,5.29,0,0,1-2.07,2.2A6.19,6.19,0,0,1,108.08,65.84Zm0-2.61a2.07,2.07,0,0,0,1.4-.48,2.82,2.82,0,0,0,.85-1.3,6.34,6.34,0,0,0,0-3.79,2.9,2.9,0,0,0-.85-1.31,2.07,2.07,0,0,0-1.4-.48,2.16,2.16,0,0,0-1.42.48,2.92,2.92,0,0,0-.86,1.31,6.34,6.34,0,0,0,0,3.79,2.83,2.83,0,0,0,.86,1.3A2.16,2.16,0,0,0,108.09,63.23Z"/><path class="cls-1" d="M118.53,65.81a1.84,1.84,0,0,1-1.35-.56,1.9,1.9,0,0,1,0-2.67,1.91,1.91,0,0,1,1.35-.55,1.87,1.87,0,0,1,1.32.55,1.85,1.85,0,0,1,.58,1.33,2,2,0,0,1-.27,1,2.1,2.1,0,0,1-.7.69A1.75,1.75,0,0,1,118.53,65.81Zm1.76-16.41L120,60.75h-2.9l-.31-11.35Z"/><path class="cls-1" d="M128.72,65.61V49.4h10.73v2.83h-7.3v3.86h6.59v2.82h-6.59v6.7Z"/><path class="cls-1" d="M145.18,49.4V65.61h-3.43V49.4Z"/><path class="cls-1" d="M161.56,49.4V65.61h-3l-7-10.2h-.12v10.2H148V49.4h3l7,10.19h.14V49.4Z"/><path class="cls-1" d="M177.94,49.4V65.61h-3l-7-10.2h-.12v10.2h-3.43V49.4h3l7,10.19h.15V49.4Z"/><path class="cls-1" d="M182.67,65.81a1.8,1.8,0,0,1-1.34-.56,1.87,1.87,0,0,1,0-2.67,1.9,1.9,0,0,1,2.67,0,1.84,1.84,0,0,1,.3,2.29,2,2,0,0,1-.69.69A1.79,1.79,0,0,1,182.67,65.81Z"/></g></g></svg>