<svg xmlns="http://www.w3.org/2000/svg" viewBox="0 0 19.74 16.74"><defs><style>.cls-1{fill:#0e4d70;}.cls-2{fill:#fff;}</style></defs><g id="Layer_2" data-name="Layer 2"><g id="Layer_1-2" data-name="Layer 1"><rect class="cls-1" x="0.5" y="0.5" width="18.75" height="15.74" rx="3.97"/><path class="cls-2" d="M15.28,1a3.47,3.47,0,0,1,3.47,3.48v7.8a3.47,3.47,0,0,1-3.47,3.47H4.47A3.47,3.47,0,0,1,1,12.27V4.47A3.48,3.48,0,0,1,4.47,1H15.28m0-1H4.47A4.47,4.47,0,0,0,0,4.47v7.8a4.47,4.47,0,0,0,4.47,4.47H15.28a4.47,4.47,0,0,0,4.46-4.47V4.47A4.47,4.47,0,0,0,15.28,0Z"/><path class="cls-2" d="M7.19,11.22a.32.32,0,0,1-.2-.57l4.93-3.93L8.54,6.34A.32.32,0,0,1,8.26,6a.31.31,0,0,1,.35-.28l4.14.47h0a.29.29,0,0,1,.1,0h0a.22.22,0,0,1,.1.09.21.21,0,0,1,.06.1h0a.28.28,0,0,1,0,.13l-.46,4.14a.33.33,0,0,1-.36.28.32.32,0,0,1-.28-.35l.38-3.38L7.39,11.15A.31.31,0,0,1,7.19,11.22Z"/></g></g></svg>