<svg xmlns="http://www.w3.org/2000/svg" viewBox="0 0 198.84 38.43"><defs><style>.cls-1{fill:#fff;}</style></defs><g id="Layer_2" data-name="Layer 2"><g id="Layer_1-2" data-name="Layer 1"><path class="cls-1" d="M1.54,21.72V2.45H7.88L13.25,17h.14L18.65,2.45h6V21.72h-4l.27-15h-.33l-5.84,15h-3.5l-5.75-15H5.22l.26,15Z"/><path class="cls-1" d="M35.88,22.13a10.08,10.08,0,0,1-3.38-.52A6.81,6.81,0,0,1,30,20.09a6.5,6.5,0,0,1-1.57-2.46,9.42,9.42,0,0,1-.54-3.29A10.28,10.28,0,0,1,28.42,11a7.5,7.5,0,0,1,1.5-2.65A6.73,6.73,0,0,1,32.34,6.6,8.17,8.17,0,0,1,35.58,6a8.32,8.32,0,0,1,3.13.56A5.72,5.72,0,0,1,41,8.26a7.25,7.25,0,0,1,1.34,2.79,12.49,12.49,0,0,1,.31,3.78l-12,.12V12.64l9.61-.09-1.49,1.17a5.08,5.08,0,0,0-.21-2.54,2.91,2.91,0,0,0-1.18-1.46,3.27,3.27,0,0,0-1.71-.46,3.32,3.32,0,0,0-2,.58,3.73,3.73,0,0,0-1.32,1.71,7.05,7.05,0,0,0-.47,2.7A5.21,5.21,0,0,0,33,17.9a3.76,3.76,0,0,0,2.88,1.17,4,4,0,0,0,1.38-.22,3,3,0,0,0,.94-.57,3.15,3.15,0,0,0,.58-.79,6.09,6.09,0,0,0,.37-.88l3.64.79A6.84,6.84,0,0,1,42,19.34a4.94,4.94,0,0,1-1.36,1.49,6.28,6.28,0,0,1-2,1A10.21,10.21,0,0,1,35.88,22.13Z"/><path class="cls-1" d="M51.41,22.07a4.81,4.81,0,0,1-3.78-1.35,6.41,6.41,0,0,1-1.21-4.34V9.69H44.2l0-3.3H45.8a2.6,2.6,0,0,0,1.34-.26,1.2,1.2,0,0,0,.53-1L48.05,3h2.39V6.39h3.89V9.81H50.44V16.2a2,2,0,0,0,.5,1.52,2.16,2.16,0,0,0,1.52.47,4.59,4.59,0,0,0,1.06-.12,2.43,2.43,0,0,0,.9-.38v3.92a9.34,9.34,0,0,1-1.67.38C52.24,22,51.8,22.07,51.41,22.07Z"/><path class="cls-1" d="M60.9,22.13a4.91,4.91,0,0,1-2.28-.51,3.72,3.72,0,0,1-1.55-1.47,4.76,4.76,0,0,1-.55-2.4,4.21,4.21,0,0,1,.48-2.1,3.58,3.58,0,0,1,1.41-1.37,9.61,9.61,0,0,1,2.31-.88c.92-.23,2-.44,3.12-.61.63-.1,1.14-.19,1.54-.28a1.7,1.7,0,0,0,.89-.44,1.25,1.25,0,0,0,.29-.89A1.91,1.91,0,0,0,66,9.78a2.52,2.52,0,0,0-1.84-.58,3.94,3.94,0,0,0-1.56.29,3.17,3.17,0,0,0-1.23.88,3.57,3.57,0,0,0-.75,1.48l-3.7-1.13a6.59,6.59,0,0,1,1-2.08,6.08,6.08,0,0,1,1.6-1.47,6.79,6.79,0,0,1,2.13-.89A10.59,10.59,0,0,1,64.22,6a8.13,8.13,0,0,1,3.67.71A4.62,4.62,0,0,1,70,8.92a9.3,9.3,0,0,1,.7,3.87v2.63c0,.68,0,1.37,0,2.07s.07,1.41.12,2.12S71,21,71,21.72H67.32c-.08-.48-.15-1-.22-1.68s-.12-1.27-.16-1.91h-.53a6.9,6.9,0,0,1-1.16,2,5.75,5.75,0,0,1-1.86,1.44A5.56,5.56,0,0,1,60.9,22.13Zm1.78-3a3.2,3.2,0,0,0,1.12-.2,5.31,5.31,0,0,0,1.11-.57,4.5,4.5,0,0,0,1-.92,5.06,5.06,0,0,0,.75-1.25l-.06-2.46.67.15a4.48,4.48,0,0,1-1.22.6,9.85,9.85,0,0,1-1.45.33q-.75.12-1.47.27a6.24,6.24,0,0,0-1.3.38,2.26,2.26,0,0,0-.91.62,1.68,1.68,0,0,0-.33,1.1,1.83,1.83,0,0,0,.58,1.43A2.18,2.18,0,0,0,62.68,19.09Z"/><path class="cls-1" d="M74.38,21.72V.85h4.15V21.72Z"/><path class="cls-1" d="M89.3,21.72V2.45h7.83A15.62,15.62,0,0,1,100,2.7a9.85,9.85,0,0,1,2.28.72A5.88,5.88,0,0,1,104,4.57a4.6,4.6,0,0,1,1,1.58,5.19,5.19,0,0,1,.35,2A5,5,0,0,1,105,10a3.84,3.84,0,0,1-1,1.45,5.06,5.06,0,0,1-1.61,1,7.9,7.9,0,0,1-2.25.54v.44a5.64,5.64,0,0,1,2.38.69A4,4,0,0,1,104,15.53a11,11,0,0,1,.89,2.25L106,21.72h-4.64l-.9-3.65a4.82,4.82,0,0,0-.76-1.82,2.73,2.73,0,0,0-1.26-.94A5.5,5.5,0,0,0,96.63,15H93.51v6.68Zm4.21-9.84h3.33a5.24,5.24,0,0,0,3.06-.76A2.68,2.68,0,0,0,101,8.76a2.69,2.69,0,0,0-1-2.32,5.07,5.07,0,0,0-3-.75H93.51Z"/><path class="cls-1" d="M115.79,22.13a8.5,8.5,0,0,1-4.06-.92A6.59,6.59,0,0,1,109,18.5,9.21,9.21,0,0,1,108,14a9,9,0,0,1,1-4.46,6.42,6.42,0,0,1,2.77-2.67,8.74,8.74,0,0,1,4-.89,8.87,8.87,0,0,1,4.07.9,6.5,6.5,0,0,1,2.77,2.7,9.08,9.08,0,0,1,1,4.48,8.9,8.9,0,0,1-1,4.51,6.57,6.57,0,0,1-2.8,2.68A9,9,0,0,1,115.79,22.13Zm.14-3.12a3.31,3.31,0,0,0,1.91-.53A3.14,3.14,0,0,0,119,16.89a7.52,7.52,0,0,0,.4-2.58,7.82,7.82,0,0,0-.43-2.73,3.64,3.64,0,0,0-1.24-1.73,3.47,3.47,0,0,0-2.07-.59,3.38,3.38,0,0,0-1.87.51,3.15,3.15,0,0,0-1.2,1.57,7.39,7.39,0,0,0-.41,2.62,6,6,0,0,0,1,3.76A3.26,3.26,0,0,0,115.93,19Z"/><path class="cls-1" d="M133.57,22.13a8.53,8.53,0,0,1-4.06-.92,6.59,6.59,0,0,1-2.75-2.71,9.21,9.21,0,0,1-1-4.49,9,9,0,0,1,1-4.46,6.42,6.42,0,0,1,2.77-2.67,8.74,8.74,0,0,1,4-.89,8.87,8.87,0,0,1,4.07.9,6.5,6.5,0,0,1,2.77,2.7,9.08,9.08,0,0,1,1,4.48,8.9,8.9,0,0,1-1,4.51,6.57,6.57,0,0,1-2.8,2.68A9,9,0,0,1,133.57,22.13Zm.14-3.12a3.36,3.36,0,0,0,1.92-.53,3.19,3.19,0,0,0,1.16-1.59,7.28,7.28,0,0,0,.4-2.58,7.82,7.82,0,0,0-.43-2.73,3.64,3.64,0,0,0-1.24-1.73,3.45,3.45,0,0,0-2.07-.59,3.38,3.38,0,0,0-1.87.51,3.2,3.2,0,0,0-1.2,1.57A7.39,7.39,0,0,0,130,14a6.06,6.06,0,0,0,1,3.76A3.26,3.26,0,0,0,133.71,19Z"/><path class="cls-1" d="M145.57,21.72V11.91h-2.43V8.82l4.09.17V8.44a4.34,4.34,0,0,1-1.68-.75,2.94,2.94,0,0,1-1-1.24,4.17,4.17,0,0,1-.29-1.54A3.69,3.69,0,0,1,145,2.73a4.21,4.21,0,0,1,1.81-1.43,6.85,6.85,0,0,1,2.75-.51,8.52,8.52,0,0,1,2.44.33,6.14,6.14,0,0,1,1.76.84l-.26,3.79a6.93,6.93,0,0,0-1.58-.82,4.92,4.92,0,0,0-1.66-.32,2.22,2.22,0,0,0-1.45.47,1.86,1.86,0,0,0-.57,1.52,2,2,0,0,0,.31,1.15,1.82,1.82,0,0,0,.76.62,3.81,3.81,0,0,0,.89.24h3.5v3.3h-4v9.81Z"/><path class="cls-1" d="M158.21,4.09a3,3,0,0,1-1.89-.51,1.81,1.81,0,0,1-.65-1.51,1.87,1.87,0,0,1,.65-1.54A3,3,0,0,1,158.21,0a3,3,0,0,1,1.91.53,1.85,1.85,0,0,1,.66,1.54,1.79,1.79,0,0,1-.66,1.49A3,3,0,0,1,158.21,4.09Zm-2.13,17.63V6.39h4.2V21.72Z"/><path class="cls-1" d="M164.16,21.72V6.39h3.45l0,4.59h.58a9.27,9.27,0,0,1,1.08-2.78A4.6,4.6,0,0,1,171,6.54,5.4,5.4,0,0,1,173.54,6a4.73,4.73,0,0,1,4,1.86c.92,1.25,1.39,3.21,1.39,5.87v8h-4.24V14.19a7,7,0,0,0-.71-3.58,2.33,2.33,0,0,0-2.09-1.12,2.77,2.77,0,0,0-2,.73,4.5,4.5,0,0,0-1.18,1.91,9,9,0,0,0-.42,2.64v7Z"/><path class="cls-1" d="M188.66,27.07a18.05,18.05,0,0,1-4.13-.4,5,5,0,0,1-2.38-1.15,2.57,2.57,0,0,1-.76-1.9,2.68,2.68,0,0,1,1.07-2.19,5.82,5.82,0,0,1,3.13-1v-.58a6.92,6.92,0,0,1-2.42-.34,1.2,1.2,0,0,1-.85-1.18,1.83,1.83,0,0,1,.84-1.46,6.69,6.69,0,0,1,2.76-1v-.59a4.19,4.19,0,0,1-2.84-1.17,3.72,3.72,0,0,1-1-2.71,4.33,4.33,0,0,1,.82-2.61,5.45,5.45,0,0,1,2.44-1.84,10.17,10.17,0,0,1,4-.69h7.77V9.43l-4.82-.67v.67a5.58,5.58,0,0,1,2.7.94,2.23,2.23,0,0,1,.83,1.86,3.15,3.15,0,0,1-.78,2.11,5.2,5.2,0,0,1-2.24,1.41,10.39,10.39,0,0,1-3.46.51l-.81,0c-.3,0-.78-.06-1.46-.14a8.85,8.85,0,0,0-.87.71.88.88,0,0,0-.3.57.4.4,0,0,0,.22.35,1.41,1.41,0,0,0,.58.21,4.52,4.52,0,0,0,.74.06h4.38c.39,0,.9,0,1.52.07a6.38,6.38,0,0,1,1.87.45,3.47,3.47,0,0,1,2.22,3.59,4.19,4.19,0,0,1-.95,2.81,5.68,5.68,0,0,1-2.89,1.63A19,19,0,0,1,188.66,27.07Zm.47-3.36a16.26,16.26,0,0,0,2.77-.19,2.81,2.81,0,0,0,1.42-.61,1.47,1.47,0,0,0,.42-1.07,1.45,1.45,0,0,0-.25-.91,1.34,1.34,0,0,0-.64-.45,3.72,3.72,0,0,0-.79-.17,6.22,6.22,0,0,0-.68,0H187.7a2.84,2.84,0,0,0-1.77.66,1.7,1.7,0,0,0-.54,1.24,1.14,1.14,0,0,0,.41,1,2.66,2.66,0,0,0,1.24.46A14.8,14.8,0,0,0,189.13,23.71Zm-.06-9.64a2.93,2.93,0,0,0,2.1-.68,2.4,2.4,0,0,0,.7-1.8,2.74,2.74,0,0,0-.71-1.93,2.77,2.77,0,0,0-2.09-.75,2.83,2.83,0,0,0-2.1.74,2.55,2.55,0,0,0-.76,1.91,2.54,2.54,0,0,0,.33,1.3,2.29,2.29,0,0,0,1,.89A3.35,3.35,0,0,0,189.07,14.07Z"/><path class="cls-1" d="M3.92,38.43a6.55,6.55,0,0,1-1.6-.17,3.52,3.52,0,0,1-1.21-.52,2.55,2.55,0,0,1-.79-.88A3.14,3.14,0,0,1,0,35.64l1.73-.57a2.06,2.06,0,0,0,.31,1,1.67,1.67,0,0,0,.81.6,3.34,3.34,0,0,0,1.17.2,3.22,3.22,0,0,0,1.05-.16,1.44,1.44,0,0,0,.64-.4.83.83,0,0,0,.22-.56.72.72,0,0,0-.27-.58,2.62,2.62,0,0,0-.75-.37c-.32-.1-.68-.2-1.08-.29s-.9-.21-1.33-.34a5.83,5.83,0,0,1-1.19-.5,2.42,2.42,0,0,1-.84-.78,2.26,2.26,0,0,1-.3-1.21,2.53,2.53,0,0,1,.41-1.46,2.88,2.88,0,0,1,1.24-1,5,5,0,0,1,2-.35,5.32,5.32,0,0,1,2,.34A3,3,0,0,1,7,30.25a2.63,2.63,0,0,1,.5,1.45l-1.79.5a1.93,1.93,0,0,0-.14-.75,1.46,1.46,0,0,0-.39-.53,1.61,1.61,0,0,0-.61-.32,3,3,0,0,0-.83-.11,2.84,2.84,0,0,0-.93.14,1.28,1.28,0,0,0-.59.37.8.8,0,0,0-.2.55.73.73,0,0,0,.31.61,2.41,2.41,0,0,0,.82.4c.35.1.73.19,1.14.28s.79.19,1.2.31a6.22,6.22,0,0,1,1.15.49,2.39,2.39,0,0,1,.85.79,2.36,2.36,0,0,1,.32,1.26,2.46,2.46,0,0,1-.44,1.45,2.83,2.83,0,0,1-1.31,1A6.17,6.17,0,0,1,3.92,38.43Z"/><path class="cls-1" d="M12.57,38.43A4.06,4.06,0,0,1,10.65,38a3.12,3.12,0,0,1-1.29-1.28,4.33,4.33,0,0,1-.47-2.11,4.2,4.2,0,0,1,.48-2.11,3,3,0,0,1,1.3-1.26,4.18,4.18,0,0,1,1.9-.42,4.11,4.11,0,0,1,1.92.43,3.06,3.06,0,0,1,1.3,1.27,4.25,4.25,0,0,1,.48,2.11,4.15,4.15,0,0,1-.49,2.13A3,3,0,0,1,14.46,38,4.3,4.3,0,0,1,12.57,38.43ZM12.64,37a1.56,1.56,0,0,0,.9-.25,1.51,1.51,0,0,0,.55-.75,3.61,3.61,0,0,0,.18-1.22,3.48,3.48,0,0,0-.2-1.28,1.55,1.55,0,0,0-1.56-1.1,1.59,1.59,0,0,0-.88.24,1.47,1.47,0,0,0-.56.75,3.37,3.37,0,0,0-.2,1.23,2.85,2.85,0,0,0,.47,1.77A1.53,1.53,0,0,0,12.64,37Z"/><path class="cls-1" d="M17.67,38.24V28.4h2v9.84Z"/><path class="cls-1" d="M23.89,38.43a2.21,2.21,0,0,1-1.9-.86A4.34,4.34,0,0,1,21.35,35V31h2V34.7a3.11,3.11,0,0,0,.32,1.58,1.05,1.05,0,0,0,1,.51,1.2,1.2,0,0,0,.68-.19,1.79,1.79,0,0,0,.49-.53,2.64,2.64,0,0,0,.31-.82,5.17,5.17,0,0,0,.12-1V31h2v7.23h-1.6V36h-.25a5.34,5.34,0,0,1-.52,1.4,1.94,1.94,0,0,1-.78.8A2.4,2.4,0,0,1,23.89,38.43Z"/><path class="cls-1" d="M32.69,38.41a2.29,2.29,0,0,1-1.78-.64,3,3,0,0,1-.57-2.05V32.57H29.29l0-1.56h.73a1.3,1.3,0,0,0,.63-.12.56.56,0,0,0,.25-.45l.18-1h1.13V31h1.83v1.61H32.24v3a.91.91,0,0,0,.23.71,1,1,0,0,0,.72.23,2.07,2.07,0,0,0,.5-.06,1.33,1.33,0,0,0,.42-.18v1.85a3.76,3.76,0,0,1-.79.17A5.27,5.27,0,0,1,32.69,38.41Z"/><path class="cls-1" d="M36.47,29.93a1.4,1.4,0,0,1-.88-.24.84.84,0,0,1-.31-.71.86.86,0,0,1,.31-.73,1.34,1.34,0,0,1,.88-.25,1.41,1.41,0,0,1,.91.25.89.89,0,0,1,.31.73.87.87,0,0,1-.31.7A1.47,1.47,0,0,1,36.47,29.93Zm-1,8.31V31h2v7.23Z"/><path class="cls-1" d="M42.56,38.43A4,4,0,0,1,40.65,38a3.09,3.09,0,0,1-1.3-1.28,4.33,4.33,0,0,1-.47-2.11,4.2,4.2,0,0,1,.48-2.11,3,3,0,0,1,1.31-1.26,4.48,4.48,0,0,1,3.81,0,3.14,3.14,0,0,1,1.31,1.27,4.36,4.36,0,0,1,.47,2.11,4.15,4.15,0,0,1-.49,2.13A3,3,0,0,1,44.45,38,4.27,4.27,0,0,1,42.56,38.43ZM42.63,37a1.52,1.52,0,0,0,.9-.25,1.45,1.45,0,0,0,.55-.75,3.61,3.61,0,0,0,.18-1.22,3.71,3.71,0,0,0-.19-1.28,1.68,1.68,0,0,0-.59-.81,1.61,1.61,0,0,0-1-.29,1.59,1.59,0,0,0-.88.24,1.52,1.52,0,0,0-.56.75,3.38,3.38,0,0,0-.19,1.23,2.85,2.85,0,0,0,.46,1.77A1.55,1.55,0,0,0,42.63,37Z"/><path class="cls-1" d="M47.67,38.24V31h1.62v2.16h.27a4.2,4.2,0,0,1,.51-1.3,2.24,2.24,0,0,1,.83-.79,2.64,2.64,0,0,1,1.19-.26A2.25,2.25,0,0,1,54,31.7a4.66,4.66,0,0,1,.65,2.77v3.77h-2V34.69A3.22,3.22,0,0,0,52.31,33a1.09,1.09,0,0,0-1-.53,1.33,1.33,0,0,0-.93.35,2.14,2.14,0,0,0-.55.9,4,4,0,0,0-.2,1.24v3.28Z"/><path class="cls-1" d="M59.24,38.43a5.35,5.35,0,0,1-1.32-.14,3.39,3.39,0,0,1-1-.39,2.62,2.62,0,0,1-.69-.63,2,2,0,0,1-.34-.82l1.51-.62a1.22,1.22,0,0,0,.3.57,1.92,1.92,0,0,0,.67.42,3,3,0,0,0,1,.15,2.14,2.14,0,0,0,1-.18.59.59,0,0,0,.35-.53.48.48,0,0,0-.2-.41,1.62,1.62,0,0,0-.56-.27,9,9,0,0,0-.9-.2l-1-.26a4.27,4.27,0,0,1-1-.39,2.08,2.08,0,0,1-.73-.65A1.77,1.77,0,0,1,56,33a2,2,0,0,1,.35-1.16,2.38,2.38,0,0,1,1-.78,4.61,4.61,0,0,1,1.68-.28,4.67,4.67,0,0,1,1.57.24,2.83,2.83,0,0,1,1.11.69,2.33,2.33,0,0,1,.58,1.07l-1.61.53a1.16,1.16,0,0,0-.27-.57,1.33,1.33,0,0,0-.56-.38,2.57,2.57,0,0,0-.82-.12,1.8,1.8,0,0,0-.92.19.59.59,0,0,0-.32.51.52.52,0,0,0,.21.43,1.86,1.86,0,0,0,.6.27c.26.07.56.14.91.21s.73.16,1.07.26a4.27,4.27,0,0,1,1,.37,1.88,1.88,0,0,1,.66.62,1.77,1.77,0,0,1,.25,1,2.07,2.07,0,0,1-.38,1.24,2.49,2.49,0,0,1-1.12.79A5,5,0,0,1,59.24,38.43Z"/><path class="cls-1" d="M68,29.93a1.43,1.43,0,0,1-.89-.24.84.84,0,0,1-.31-.71.86.86,0,0,1,.31-.73A1.37,1.37,0,0,1,68,28a1.4,1.4,0,0,1,.9.25.86.86,0,0,1,.31.73.84.84,0,0,1-.31.7A1.46,1.46,0,0,1,68,29.93Zm-1,8.31V31h2v7.23Z"/><path class="cls-1" d="M70.82,38.24V31h1.62v2.16h.27a4.2,4.2,0,0,1,.51-1.3,2.24,2.24,0,0,1,.83-.79,2.64,2.64,0,0,1,1.19-.26,2.25,2.25,0,0,1,1.91.88,4.66,4.66,0,0,1,.65,2.77v3.77h-2V34.69A3.22,3.22,0,0,0,75.46,33a1.09,1.09,0,0,0-1-.53,1.33,1.33,0,0,0-.93.35,2.14,2.14,0,0,0-.55.9A4,4,0,0,0,72.8,35v3.28Z"/><path class="cls-1" d="M82.76,38.24V29.16h2.59l4.12,6.42h.15l-.13-6.42h1.93v9.08H89.08l-4.35-6.73h-.15l.12,6.73Z"/><path class="cls-1" d="M96.69,38.43a4.92,4.92,0,0,1-1.59-.24,3.3,3.3,0,0,1-1.17-.72,3,3,0,0,1-.74-1.16,4.42,4.42,0,0,1-.25-1.55,5,5,0,0,1,.24-1.58,3.55,3.55,0,0,1,.7-1.25A3.27,3.27,0,0,1,95,31.11a3.89,3.89,0,0,1,1.52-.29,3.79,3.79,0,0,1,1.48.27,2.78,2.78,0,0,1,1.08.8,3.38,3.38,0,0,1,.63,1.32A6.2,6.2,0,0,1,99.89,35l-5.68.06V34l4.53,0-.7.55a2.39,2.39,0,0,0-.09-1.2,1.45,1.45,0,0,0-.56-.69,1.63,1.63,0,0,0-1.73.06,1.75,1.75,0,0,0-.62.8,3.3,3.3,0,0,0-.22,1.28,2.42,2.42,0,0,0,.52,1.72,1.78,1.78,0,0,0,1.35.55,1.82,1.82,0,0,0,.66-.11,1.2,1.2,0,0,0,.44-.26,1.46,1.46,0,0,0,.27-.38,2.09,2.09,0,0,0,.17-.41l1.73.37a3.61,3.61,0,0,1-.37.92,2.36,2.36,0,0,1-.64.7,2.75,2.75,0,0,1-1,.45A4.58,4.58,0,0,1,96.69,38.43Z"/><path class="cls-1" d="M102.42,38.24,100.63,31h2.06l1,5.66H104L105.19,31h2.38l1.25,5.66h.26l1-5.66h2l-1.8,7.23h-2.72l-1.13-5.62h-.24l-1.07,5.62Z"/><path class="cls-1" d="M120,38.43a6.49,6.49,0,0,1-1.6-.17,3.52,3.52,0,0,1-1.21-.52,2.55,2.55,0,0,1-.79-.88,3,3,0,0,1-.32-1.22l1.73-.57a2,2,0,0,0,.31,1,1.67,1.67,0,0,0,.81.6,3.34,3.34,0,0,0,1.17.2,3.11,3.11,0,0,0,1-.16,1.48,1.48,0,0,0,.65-.4.83.83,0,0,0,.22-.56.72.72,0,0,0-.27-.58,2.62,2.62,0,0,0-.75-.37c-.32-.1-.68-.2-1.09-.29s-.89-.21-1.32-.34a5.83,5.83,0,0,1-1.19-.5,2.42,2.42,0,0,1-.84-.78,2.26,2.26,0,0,1-.31-1.21,2.53,2.53,0,0,1,.42-1.46,2.77,2.77,0,0,1,1.24-1,5,5,0,0,1,2-.35,5.32,5.32,0,0,1,2,.34,3,3,0,0,1,1.27.95,2.55,2.55,0,0,1,.49,1.45l-1.79.5a1.93,1.93,0,0,0-.13-.75,1.59,1.59,0,0,0-.39-.53,1.61,1.61,0,0,0-.61-.32,3,3,0,0,0-.83-.11,2.84,2.84,0,0,0-.93.14,1.37,1.37,0,0,0-.6.37.84.84,0,0,0-.19.55.73.73,0,0,0,.31.61,2.41,2.41,0,0,0,.82.4c.35.1.72.19,1.14.28s.79.19,1.2.31a5.85,5.85,0,0,1,1.14.49,2.16,2.16,0,0,1,1.18,2,2.46,2.46,0,0,1-.44,1.45,2.83,2.83,0,0,1-1.31,1A6.21,6.21,0,0,1,120,38.43Z"/><path class="cls-1" d="M128.63,38.43a4.06,4.06,0,0,1-1.92-.43,3.12,3.12,0,0,1-1.29-1.28,4.33,4.33,0,0,1-.47-2.11,4.2,4.2,0,0,1,.48-2.11,3,3,0,0,1,1.3-1.26,4.18,4.18,0,0,1,1.9-.42,4.11,4.11,0,0,1,1.92.43,3.06,3.06,0,0,1,1.3,1.27,4.25,4.25,0,0,1,.48,2.11,4.15,4.15,0,0,1-.49,2.13A3.08,3.08,0,0,1,130.52,38,4.3,4.3,0,0,1,128.63,38.43Zm.06-1.47a1.57,1.57,0,0,0,.91-.25,1.51,1.51,0,0,0,.55-.75,3.61,3.61,0,0,0,.18-1.22,3.48,3.48,0,0,0-.2-1.28,1.67,1.67,0,0,0-.58-.81,1.63,1.63,0,0,0-1-.29,1.59,1.59,0,0,0-.88.24,1.41,1.41,0,0,0-.56.75,3.37,3.37,0,0,0-.2,1.23,2.85,2.85,0,0,0,.47,1.77A1.52,1.52,0,0,0,128.69,37Z"/><path class="cls-1" d="M136.18,38.43a2.19,2.19,0,0,1-1.9-.86,4.34,4.34,0,0,1-.64-2.62V31h2V34.7a3.13,3.13,0,0,0,.31,1.58,1.07,1.07,0,0,0,1,.51,1.17,1.17,0,0,0,.67-.19,1.82,1.82,0,0,0,.5-.53,2.64,2.64,0,0,0,.31-.82,4.51,4.51,0,0,0,.11-1V31h2v7.23h-1.6V36h-.25a5.34,5.34,0,0,1-.52,1.4,2,2,0,0,1-.78.8A2.4,2.4,0,0,1,136.18,38.43Z"/><path class="cls-1" d="M145,38.41a2.32,2.32,0,0,1-1.79-.64,3,3,0,0,1-.57-2.05V32.57h-1l0-1.56h.72a1.32,1.32,0,0,0,.64-.12.56.56,0,0,0,.25-.45l.17-1h1.13V31h1.83v1.61h-1.83v3a.91.91,0,0,0,.24.71,1,1,0,0,0,.71.23,2.16,2.16,0,0,0,.51-.06,1.19,1.19,0,0,0,.41-.18v1.85a3.55,3.55,0,0,1-.78.17A5.27,5.27,0,0,1,145,38.41Z"/><path class="cls-1" d="M147.76,38.24V28.4h2v2.26a5.62,5.62,0,0,1,0,.57,4.36,4.36,0,0,1-.07.62l-.09.62c0,.21-.07.43-.11.64h.31a5.54,5.54,0,0,1,.48-1.22,2.08,2.08,0,0,1,1.95-1.07,2.18,2.18,0,0,1,1.9.89,4.72,4.72,0,0,1,.64,2.72v3.81h-2V34.73A3.32,3.32,0,0,0,152.4,33a1.1,1.1,0,0,0-1-.56,1.29,1.29,0,0,0-.91.33,1.93,1.93,0,0,0-.53.89,4.65,4.65,0,0,0-.21,1.24v3.32Z"/><path class="cls-1" d="M161.07,38.24l-2-9.08h2.16l1.35,7.39h.15l1.59-7.39h2.52l1.6,7.39h.17l1.34-7.39H172l-2.08,9.08h-2.77l-1.54-7.39h-.13l-1.54,7.39Z"/><path class="cls-1" d="M174.47,38.43a2.31,2.31,0,0,1-1.07-.24,1.74,1.74,0,0,1-.73-.69,2.3,2.3,0,0,1-.26-1.13,1.86,1.86,0,0,1,.23-1,1.72,1.72,0,0,1,.66-.65,4.88,4.88,0,0,1,1.09-.41,14.18,14.18,0,0,1,1.47-.29l.73-.13a.83.83,0,0,0,.42-.21.59.59,0,0,0,.13-.42.9.9,0,0,0-.27-.66,1.21,1.21,0,0,0-.87-.28,2,2,0,0,0-.74.14,1.46,1.46,0,0,0-.57.42,1.59,1.59,0,0,0-.35.7l-1.75-.54a3.18,3.18,0,0,1,.47-1,3.08,3.08,0,0,1,.75-.69,3.26,3.26,0,0,1,1-.42,5.17,5.17,0,0,1,1.22-.14,3.75,3.75,0,0,1,1.73.34,2.13,2.13,0,0,1,1,1.05A4.32,4.32,0,0,1,179.1,34v1.24c0,.32,0,.64,0,1s0,.67,0,1,.05.67.08,1H177.5c0-.23-.07-.49-.1-.79s-.06-.6-.08-.9h-.24a3.26,3.26,0,0,1-.56,1,2.66,2.66,0,0,1-.87.68A2.62,2.62,0,0,1,174.47,38.43Zm.84-1.43a1.64,1.64,0,0,0,.53-.09,2.94,2.94,0,0,0,.53-.27,2.12,2.12,0,0,0,.46-.44,2.33,2.33,0,0,0,.36-.59l0-1.15.31.06a1.91,1.91,0,0,1-.57.29,3.84,3.84,0,0,1-.69.15l-.69.13a2.57,2.57,0,0,0-.61.18,1.13,1.13,0,0,0-.43.29.93.93,0,0,0,.12,1.19A1,1,0,0,0,175.31,37Z"/><path class="cls-1" d="M180.83,38.24V28.4h2v9.84Z"/><path class="cls-1" d="M188,38.43a4.92,4.92,0,0,1-1.59-.24,3.3,3.3,0,0,1-1.17-.72,3,3,0,0,1-.74-1.16,4.42,4.42,0,0,1-.25-1.55,5,5,0,0,1,.24-1.58,3.55,3.55,0,0,1,.7-1.25,3.27,3.27,0,0,1,1.15-.82,3.89,3.89,0,0,1,1.52-.29,3.79,3.79,0,0,1,1.48.27,2.78,2.78,0,0,1,1.08.8,3.38,3.38,0,0,1,.63,1.32,6.2,6.2,0,0,1,.15,1.78l-5.68.06V34l4.53,0-.7.55a2.27,2.27,0,0,0-.1-1.2,1.37,1.37,0,0,0-.55-.69,1.63,1.63,0,0,0-1.73.06,1.75,1.75,0,0,0-.62.8,3.3,3.3,0,0,0-.22,1.28,2.42,2.42,0,0,0,.52,1.72A1.78,1.78,0,0,0,188,37a1.82,1.82,0,0,0,.66-.11,1.28,1.28,0,0,0,.44-.26,1.46,1.46,0,0,0,.27-.38,2.09,2.09,0,0,0,.17-.41l1.72.37a3.27,3.27,0,0,1-.36.92,2.36,2.36,0,0,1-.64.7,2.84,2.84,0,0,1-1,.45A4.58,4.58,0,0,1,188,38.43Z"/><path class="cls-1" d="M195.57,38.43a5.46,5.46,0,0,1-1.32-.14,3.61,3.61,0,0,1-1-.39,2.43,2.43,0,0,1-.68-.63,2,2,0,0,1-.35-.82l1.52-.62a1.06,1.06,0,0,0,.3.57,1.83,1.83,0,0,0,.67.42,3,3,0,0,0,1,.15,2.17,2.17,0,0,0,1-.18.6.6,0,0,0,.34-.53.48.48,0,0,0-.19-.41,1.68,1.68,0,0,0-.57-.27,8.71,8.71,0,0,0-.89-.2l-1-.26a4.45,4.45,0,0,1-1-.39,2.08,2.08,0,0,1-.73-.65,1.77,1.77,0,0,1-.28-1,1.93,1.93,0,0,1,.36-1.16,2.41,2.41,0,0,1,1-.78,4.61,4.61,0,0,1,1.68-.28,4.67,4.67,0,0,1,1.57.24,2.83,2.83,0,0,1,1.11.69,2.24,2.24,0,0,1,.58,1.07l-1.61.53a1.07,1.07,0,0,0-.26-.57,1.36,1.36,0,0,0-.57-.38,2.53,2.53,0,0,0-.82-.12,1.76,1.76,0,0,0-.91.19.58.58,0,0,0-.33.51.5.5,0,0,0,.22.43,1.68,1.68,0,0,0,.6.27c.25.07.56.14.9.21s.73.16,1.08.26a4.19,4.19,0,0,1,.94.37,2,2,0,0,1,.67.62,1.86,1.86,0,0,1,.25,1,2,2,0,0,1-.39,1.24,2.52,2.52,0,0,1-1.11.79A5.15,5.15,0,0,1,195.57,38.43Z"/></g></g></svg>