<svg xmlns="http://www.w3.org/2000/svg" xmlns:xlink="http://www.w3.org/1999/xlink" viewBox="0 0 126.85 49.11"><defs><style>.cls-1{fill:none;}.cls-2{clip-path:url(#clip-path);}.cls-3,.cls-4{fill:#fff;}.cls-4{opacity:0.8;isolation:isolate;}</style><clipPath id="clip-path"><rect id="SVGID" class="cls-1" x="0.13" width="126.72" height="35.96"/></clipPath></defs><g id="Layer_2" data-name="Layer 2"><g id="Layer_1-2" data-name="Layer 1"><g class="cls-2"><path class="cls-3" d="M82.67,11.23a3.26,3.26,0,0,0,.27,1.3,3.29,3.29,0,0,0,.76,1.1,3.37,3.37,0,0,0,1.12.74,3.26,3.26,0,0,0,1.31.26v2.28a5.74,5.74,0,0,1-5-2.84,5.39,5.39,0,0,1-.78-2.84V0h2.32V5.53h3.46v2.3H82.67v3.4Zm13.42-5.1a5.8,5.8,0,0,1,2.12,2.11A5.9,5.9,0,0,1,99,11.19v0a5.81,5.81,0,0,1-.77,2.94,5.75,5.75,0,0,1-2.11,2.13,5.63,5.63,0,0,1-2.93.79,5.73,5.73,0,0,1-2.91-.77,5.6,5.6,0,0,1-2.11-2.13,5.67,5.67,0,0,1-.79-3v0a5.84,5.84,0,0,1,.77-2.94,5.49,5.49,0,0,1,2.13-2.12,5.63,5.63,0,0,1,2.93-.77,5.52,5.52,0,0,1,2.9.77Zm.62,5.08a3.54,3.54,0,0,0-1-2.61,3.57,3.57,0,0,0-5,0,3.5,3.5,0,0,0-1,2.61,3.5,3.5,0,0,0,1,2.61,3.33,3.33,0,0,0,1.14.75,3.69,3.69,0,0,0,2.72,0,3.33,3.33,0,0,0,1.14-.75A3.47,3.47,0,0,0,96.71,11.21Zm4.08,11.12V5.51h5.92a5.9,5.9,0,0,1,4.9,2.86,5.64,5.64,0,0,1-2.12,7.74,5.91,5.91,0,0,1-6.38-.35v6.57Zm2.32-14.54v3.4a3.3,3.3,0,0,0,.27,1.31,3.24,3.24,0,0,0,.76,1.11,3.19,3.19,0,0,0,1.12.73,3.58,3.58,0,0,0,2.63,0,3.19,3.19,0,0,0,1.12-.73,3.38,3.38,0,0,0,1-2.42,3.17,3.17,0,0,0-.27-1.29A3.45,3.45,0,0,0,109,8.8a3.43,3.43,0,0,0-2.44-1ZM82.68,30.12a3.35,3.35,0,0,0,.26,1.3,3.45,3.45,0,0,0,.76,1.1,3.67,3.67,0,0,0,1.12.75,3.49,3.49,0,0,0,1.32.26v2.28a5.69,5.69,0,0,1-2.9-.77A5.59,5.59,0,0,1,81.14,33a5.4,5.4,0,0,1-.79-2.84V18.89h2.33v5.53h3.46v2.3H82.68v3.4ZM96.09,25A5.74,5.74,0,0,1,99,30.09h0a5.82,5.82,0,0,1-2.88,5.07,5.86,5.86,0,0,1-5.84,0,5.54,5.54,0,0,1-2.11-2.13,5.67,5.67,0,0,1-.79-3h0a5.85,5.85,0,0,1,.77-2.95A5.56,5.56,0,0,1,90.26,25a5.63,5.63,0,0,1,2.93-.77,5.52,5.52,0,0,1,2.9.77Zm.62,5.08a3.54,3.54,0,0,0-1-2.61,3.57,3.57,0,0,0-5,0,3.64,3.64,0,0,0,1.14,6,3.69,3.69,0,0,0,2.72,0,3.5,3.5,0,0,0,2.18-3.36Zm4.06-5.7h2.34v5.69a3.23,3.23,0,0,0,.27,1.31,3.29,3.29,0,0,0,.76,1.1,3.39,3.39,0,0,0,1.12.75,3.52,3.52,0,0,0,1.34.26H110V24.4h2.34V35.81H106.6a5.83,5.83,0,0,1-2.94-.76,5.59,5.59,0,0,1-2.1-2.08,5.4,5.4,0,0,1-.79-2.88Zm22.44,2.28h-2.94a3.53,3.53,0,0,0-2.46,1,3,3,0,0,0-.74,1.11,3.29,3.29,0,0,0-.26,1.31v5.7h-2.34V30a5.44,5.44,0,0,1,.83-2.79,5.71,5.71,0,0,1,2.1-2,5.87,5.87,0,0,1,2.87-.74h2.94v2.29ZM125,35.81A1.79,1.79,0,1,0,123.21,34,1.8,1.8,0,0,0,125,35.81Z"/><path class="cls-3" d="M36.6.08A18.07,18.07,0,0,0,18.36,18H36.6Z"/><path class="cls-4" d="M.13.08V18H18.36A18.06,18.06,0,0,0,.13.08Z"/><path class="cls-3" d="M18.36,18H.13V35.89H18.36Z"/><path class="cls-4" d="M36.59,18H18.36V35.89H36.59Z"/><path class="cls-4" d="M58.47,35.89A18.07,18.07,0,0,0,76.7,18H58.47Z"/><path class="cls-3" d="M76.7.08A18.06,18.06,0,0,0,58.47,18H76.7Z"/><path class="cls-3" d="M58.47,18A18.07,18.07,0,0,0,40.24,35.89H58.47Z"/><path class="cls-3" d="M58.47,18V.08H40.24A18.06,18.06,0,0,0,58.47,18Z"/></g><path class="cls-3" d="M0,48v-5.4H1V47.1H3.82V48ZM8.21,48a2.78,2.78,0,1,1,0-5.55,2.78,2.78,0,1,1,0,5.55Zm0-.88a1.9,1.9,0,1,0,0-3.79,1.9,1.9,0,0,0,0,3.79Zm8.91-4.6h1L15.77,48h-1l-2.36-5.4h1.09l1.8,4.17Zm3.75,4.56h3V48h-4v-5.4h3.94v.84H20.87V44.8h2.6v.82h-2.6Zm8.65.84v-5.4h1V47.1h2.82V48Zm5.79,0v-5.4h1V48Zm7.58-4.56H40V45h2.61v.84H40V48H39v-5.4h3.94ZM46,47.11h3V48H45v-5.4H49v.84H46V44.8h2.6v.82H46Zm5.64-.39a.61.61,0,0,1,.62.64,1.78,1.78,0,0,1-.18.67l-.39,1.08H51.1l.31-1.18a.59.59,0,0,1-.36-.57A.61.61,0,0,1,51.68,46.72ZM57.82,48v-5.4h1V47.1h2.82V48ZM66,48a2.78,2.78,0,1,1,2.9-2.78A2.76,2.76,0,0,1,66,48Zm0-.88a1.9,1.9,0,1,0-1.9-1.9A1.84,1.84,0,0,0,66,47.15Zm8.9-4.6h1L73.59,48h-1l-2.35-5.4h1.08l1.8,4.17Zm3.75,4.56h3V48h-4v-5.4h3.94v.84H78.69V44.8h2.6v.82h-2.6Zm9.74.84V43.4H86.65v-.85h4.57v.85H89.43V48Zm9.33,0H96.68l-1.1-1.58H94.15V48h-1v-5.4h2.22c1.42,0,2.3.73,2.3,1.92a1.74,1.74,0,0,1-1.15,1.71Zm-1.1-3.48c0-.67-.46-1.07-1.33-1.07H94.15v2.15h1.18C96.2,45.55,96.66,45.15,96.66,44.47ZM104,48l-.54-1.25h-2.7L100.24,48h-1l2.42-5.4h1l2.43,5.4Zm-2.9-2h2l-1-2.35Zm9.45-3.36h1L109.22,48h-1l-2.36-5.4H107l1.79,4.17Zm3.76,4.56h3V48h-4v-5.4h3.94v.84h-2.93V44.8h2.6v.82h-2.6Zm5.34.84v-5.4h1V47.1h2.82V48Zm6.24,0a.64.64,0,0,1,0-1.28.64.64,0,0,1,0,1.28Z"/></g></g></svg>