<svg xmlns="http://www.w3.org/2000/svg" viewBox="0 0 300 41"><defs><style>.cls-1{fill:#fff;}.cls-2{fill:#ff5e39;}</style></defs><g id="Layer_2" data-name="Layer 2"><g id="Layer_1-2" data-name="Layer 1"><path class="cls-1" d="M0,0H14.5A20.5,20.5,0,0,1,35,20.5v0A20.5,20.5,0,0,1,14.5,41H0a0,0,0,0,1,0,0V0A0,0,0,0,1,0,0Z"/><path class="cls-1" d="M265,0h14.5A20.5,20.5,0,0,1,300,20.5v0A20.5,20.5,0,0,1,279.5,41H265a0,0,0,0,1,0,0V0A0,0,0,0,1,265,0Z" transform="translate(565 41) rotate(180)"/><path class="cls-2" d="M292.83,22.48a64.77,64.77,0,0,1-9.25,6.65,2.66,2.66,0,0,1-1.36.4,2.28,2.28,0,0,1-1.68-.68,2.05,2.05,0,0,1,.3-3.29c1.43-1,3.56-2.45,6.37-4.45a38.68,38.68,0,0,1-4-3.37c-1.64-1.55-2.46-2.63-2.46-3.25a2,2,0,0,1,.74-1.55,2.46,2.46,0,0,1,3.48.15,27.86,27.86,0,0,0,7.36,5.79c1,.48,1.49,1.11,1.49,1.89A2.28,2.28,0,0,1,292.83,22.48Z"/><path class="cls-2" d="M7.17,20.77c0-.78.49-1.41,1.48-1.89A27.72,27.72,0,0,0,16,13.09a2.45,2.45,0,0,1,1.78-.8,2.48,2.48,0,0,1,1.7.65,2,2,0,0,1,.74,1.55c0,.62-.82,1.7-2.46,3.25a38.78,38.78,0,0,1-4.06,3.37c2.82,2,4.94,3.48,6.38,4.45a2.05,2.05,0,0,1,.3,3.29,2.28,2.28,0,0,1-1.68.68,2.63,2.63,0,0,1-1.36-.4A64.86,64.86,0,0,1,8.1,22.48,2.29,2.29,0,0,1,7.17,20.77Z"/></g></g></svg>