<svg xmlns="http://www.w3.org/2000/svg" viewBox="0 0 111.28 30.37"><defs><style>.cls-1{fill:#fff;}.cls-2{fill:#ff5e39;}</style></defs><g id="Layer_2" data-name="Layer 2"><g id="Layer_1-2" data-name="Layer 1"><rect class="cls-1" width="111.28" height="30.37" rx="15.19"/><rect class="cls-2" x="5.1" y="5.1" width="101.69" height="20.67" rx="10.34"/><path class="cls-1" d="M15.24,18.8V12h2.81a3.25,3.25,0,0,1,2.14.64A2.2,2.2,0,0,1,21,14.39a2.41,2.41,0,0,1-.35,1.3,2.35,2.35,0,0,1-1,.83,3.91,3.91,0,0,1-1.56.29H15.94l.57-.58V18.8Zm1.27-2.43-.57-.61H18a1.89,1.89,0,0,0,1.26-.36,1.24,1.24,0,0,0,.43-1,1.23,1.23,0,0,0-.43-1A2,2,0,0,0,18,13H15.94l.57-.62Zm3.21,2.43L18,16.32h1.36l1.74,2.48Z"/><path class="cls-1" d="M24.72,18.87a3.19,3.19,0,0,1-1.52-.35,2.48,2.48,0,0,1-1-.95,2.68,2.68,0,0,1-.36-1.38,2.62,2.62,0,0,1,.35-1.38,2.55,2.55,0,0,1,.95-1,2.9,2.9,0,0,1,1.4-.34,2.73,2.73,0,0,1,1.35.33,2.5,2.5,0,0,1,.94.94,2.85,2.85,0,0,1,.34,1.43v.18c0,.06,0,.12,0,.18H22.81v-.81h3.7L26,16a1.47,1.47,0,0,0-.18-.79,1.4,1.4,0,0,0-.54-.54,1.49,1.49,0,0,0-.77-.19,1.54,1.54,0,0,0-.79.19,1.4,1.4,0,0,0-.53.55,1.62,1.62,0,0,0-.19.81v.2a1.54,1.54,0,0,0,.22.83,1.41,1.41,0,0,0,.6.56,2.26,2.26,0,0,0,1.69.05,1.66,1.66,0,0,0,.63-.42l.65.75a2.36,2.36,0,0,1-.88.63A3.32,3.32,0,0,1,24.72,18.87Z"/><path class="cls-1" d="M30,18.87a4.73,4.73,0,0,1-1.26-.17,3.54,3.54,0,0,1-.95-.42l.47-.93a3.23,3.23,0,0,0,.84.37,3.33,3.33,0,0,0,1,.15,1.6,1.6,0,0,0,.83-.16.45.45,0,0,0,.26-.42A.36.36,0,0,0,31,17a1.13,1.13,0,0,0-.46-.17c-.19,0-.4-.08-.63-.11s-.47-.08-.7-.13a2.51,2.51,0,0,1-.63-.25,1.35,1.35,0,0,1-.46-.43,1.43,1.43,0,0,1-.17-.73,1.35,1.35,0,0,1,.28-.86,1.85,1.85,0,0,1,.8-.57,3.41,3.41,0,0,1,1.21-.2,4.88,4.88,0,0,1,1.07.12,3.07,3.07,0,0,1,.89.33l-.47.93a2.65,2.65,0,0,0-.75-.31,3.82,3.82,0,0,0-.75-.08,1.6,1.6,0,0,0-.82.16.51.51,0,0,0-.27.43.4.4,0,0,0,.18.35,1.42,1.42,0,0,0,.46.18,3.41,3.41,0,0,0,.63.11,5.12,5.12,0,0,1,.68.14,3.25,3.25,0,0,1,.64.24,1.24,1.24,0,0,1,.46.42,1.28,1.28,0,0,1,.18.72,1.37,1.37,0,0,1-.29.85,2,2,0,0,1-.82.56A3.62,3.62,0,0,1,30,18.87Z"/><path class="cls-1" d="M35.83,18.87a3.22,3.22,0,0,1-1.52-.35,2.54,2.54,0,0,1-1-.95A2.68,2.68,0,0,1,33,16.19a2.72,2.72,0,0,1,.35-1.38,2.5,2.5,0,0,1,1-1,2.86,2.86,0,0,1,1.39-.34,2.77,2.77,0,0,1,1.36.33,2.57,2.57,0,0,1,.94.94,3,3,0,0,1,.34,1.43,1.21,1.21,0,0,1,0,.18c0,.06,0,.12,0,.18H33.92v-.81h3.7l-.48.25a1.47,1.47,0,0,0-.18-.79,1.4,1.4,0,0,0-.54-.54,1.49,1.49,0,0,0-.77-.19,1.57,1.57,0,0,0-.79.19,1.47,1.47,0,0,0-.53.55,1.73,1.73,0,0,0-.19.81v.2a1.63,1.63,0,0,0,.22.83,1.41,1.41,0,0,0,.6.56,2,2,0,0,0,.9.19,2,2,0,0,0,.79-.14,1.66,1.66,0,0,0,.63-.42l.66.75a2.4,2.4,0,0,1-.89.63A3.28,3.28,0,0,1,35.83,18.87Z"/><path class="cls-1" d="M39.46,18.8V13.58h1.16V15l-.13-.42a1.59,1.59,0,0,1,.73-.8,2.55,2.55,0,0,1,1.26-.28v1.16l-.15,0H42.2a1.52,1.52,0,0,0-1.11.41,1.64,1.64,0,0,0-.41,1.21V18.8Z"/><path class="cls-1" d="M45.1,18.8l-2.24-5.22h1.27l1.93,4.6h-.63l2-4.6H48.6L46.36,18.8Z"/><path class="cls-1" d="M50.71,18.87a2.56,2.56,0,0,1-1-.2,1.56,1.56,0,0,1-.67-.56,1.36,1.36,0,0,1-.25-.81,1.54,1.54,0,0,1,.22-.79,1.37,1.37,0,0,1,.68-.55,3.23,3.23,0,0,1,1.27-.21h1.52v.81H51a1.32,1.32,0,0,0-.84.2.67.67,0,0,0-.21.5.6.6,0,0,0,.26.52A1.22,1.22,0,0,0,51,18a1.58,1.58,0,0,0,.81-.21,1.12,1.12,0,0,0,.51-.6l.21.73a1.36,1.36,0,0,1-.63.71A2.33,2.33,0,0,1,50.71,18.87Zm1.64-.07V17.74l-.07-.22V15.67a1,1,0,0,0-.32-.83,1.39,1.39,0,0,0-1-.3,2.8,2.8,0,0,0-.86.13,2.26,2.26,0,0,0-.72.39l-.48-.89a2.92,2.92,0,0,1,1-.49,4.84,4.84,0,0,1,1.21-.16,2.56,2.56,0,0,1,1.75.54,2.11,2.11,0,0,1,.63,1.68V18.8Z"/><path class="cls-1" d="M59.34,18.87a2.56,2.56,0,0,1-1-.2,1.65,1.65,0,0,1-.68-.56,1.43,1.43,0,0,1-.24-.81,1.54,1.54,0,0,1,.22-.79,1.37,1.37,0,0,1,.68-.55,3.23,3.23,0,0,1,1.27-.21h1.52v.81H59.65a1.32,1.32,0,0,0-.84.2.67.67,0,0,0-.21.5.6.6,0,0,0,.26.52,1.22,1.22,0,0,0,.73.2,1.58,1.58,0,0,0,.81-.21,1.12,1.12,0,0,0,.51-.6l.21.73a1.36,1.36,0,0,1-.63.71A2.33,2.33,0,0,1,59.34,18.87ZM61,18.8V17.74l-.07-.22V15.67a1,1,0,0,0-.32-.83,1.39,1.39,0,0,0-1-.3,2.8,2.8,0,0,0-.86.13,2.26,2.26,0,0,0-.72.39l-.48-.89a2.92,2.92,0,0,1,1-.49,4.84,4.84,0,0,1,1.21-.16,2.56,2.56,0,0,1,1.75.54,2.1,2.1,0,0,1,.62,1.68V18.8Z"/><path class="cls-1" d="M63.7,18.8V11.55h1.22V15l-.26-.43a1.84,1.84,0,0,1,.79-.77,2.6,2.6,0,0,1,1.21-.27,2.4,2.4,0,0,1,1.12.25,1.8,1.8,0,0,1,.78.74,2.64,2.64,0,0,1,.28,1.3v3H67.62V16a1.44,1.44,0,0,0-.33-1,1.19,1.19,0,0,0-.91-.34,1.74,1.74,0,0,0-.77.17,1.19,1.19,0,0,0-.51.53,1.87,1.87,0,0,0-.18.87V18.8Z"/><path class="cls-1" d="M72.75,18.87a2.94,2.94,0,0,1-1.43-.35,2.63,2.63,0,0,1-1-.95A2.59,2.59,0,0,1,70,16.19a2.55,2.55,0,0,1,.37-1.38,2.63,2.63,0,0,1,1-1,3.2,3.2,0,0,1,2.87,0,2.56,2.56,0,0,1,1,.94,2.64,2.64,0,0,1,.36,1.39,2.68,2.68,0,0,1-.36,1.38,2.58,2.58,0,0,1-1,.95A3,3,0,0,1,72.75,18.87Zm0-1.05a1.6,1.6,0,0,0,.8-.19,1.32,1.32,0,0,0,.55-.57,1.75,1.75,0,0,0,.2-.87,1.7,1.7,0,0,0-.2-.87,1.32,1.32,0,0,0-.55-.57,1.76,1.76,0,0,0-1.59,0,1.44,1.44,0,0,0-.55.57,1.7,1.7,0,0,0-.2.87,1.75,1.75,0,0,0,.2.87,1.44,1.44,0,0,0,.55.57A1.59,1.59,0,0,0,72.75,17.82Z"/><path class="cls-1" d="M76.71,18.8V13.58h1.16V15l-.14-.42a1.65,1.65,0,0,1,.74-.8,2.55,2.55,0,0,1,1.26-.28v1.16l-.15,0h-.14a1.49,1.49,0,0,0-1.1.41,1.64,1.64,0,0,0-.41,1.21V18.8Z"/><path class="cls-1" d="M82,18.87a2.52,2.52,0,0,1-1-.2,1.65,1.65,0,0,1-.68-.56A1.43,1.43,0,0,1,80,17.3a1.53,1.53,0,0,1,.21-.79,1.39,1.39,0,0,1,.69-.55,3.2,3.2,0,0,1,1.27-.21h1.52v.81H82.28a1.28,1.28,0,0,0-.84.2.68.68,0,0,0-.22.5.61.61,0,0,0,.27.52,1.2,1.2,0,0,0,.73.2,1.58,1.58,0,0,0,.81-.21,1.16,1.16,0,0,0,.51-.6l.21.73a1.34,1.34,0,0,1-.64.71A2.29,2.29,0,0,1,82,18.87Zm1.64-.07V17.74l-.07-.22V15.67a1.07,1.07,0,0,0-.32-.83,1.4,1.4,0,0,0-1-.3,2.8,2.8,0,0,0-.86.13,2.06,2.06,0,0,0-.72.39l-.48-.89a2.83,2.83,0,0,1,1-.49,4.84,4.84,0,0,1,1.21-.16,2.58,2.58,0,0,1,1.75.54,2.14,2.14,0,0,1,.62,1.68V18.8Z"/><rect class="cls-1" x="89.84" y="9.17" width="12.37" height="12.37" rx="6.19"/><path class="cls-2" d="M93.4,17.7a.43.43,0,0,1,.06-.6l3.8-3.16-2.58-.24a.43.43,0,0,1,.08-.85l3.6.34a.42.42,0,0,1,.16,0,.45.45,0,0,1,.13.11.44.44,0,0,1,.08.15.41.41,0,0,1,0,.16l-.34,3.6a.42.42,0,1,1-.84-.08l.23-2.57L94,17.75A.43.43,0,0,1,93.4,17.7Z"/></g></g></svg>