<svg xmlns="http://www.w3.org/2000/svg" viewBox="0 0 133.05 53.74"><defs><style>.cls-1{fill:#fff;}</style></defs><g id="Layer_2" data-name="Layer 2"><g id="Layer_1-2" data-name="Layer 1"><path class="cls-1" d="M4.14,5.13A2.32,2.32,0,0,1,3.22,6a3,3,0,0,1-1.42.32H0V1.28H1.8a3,3,0,0,1,1.42.31,2.17,2.17,0,0,1,.92.88A2.7,2.7,0,0,1,4.45,3.8,2.75,2.75,0,0,1,4.14,5.13ZM3,5a1.58,1.58,0,0,0,.45-1.2A1.58,1.58,0,0,0,3,2.59a1.75,1.75,0,0,0-1.27-.43H1V5.43h.7A1.75,1.75,0,0,0,3,5Z"/><path class="cls-1" d="M6.33,1.28v3a1.36,1.36,0,0,0,.26.9,1,1,0,0,0,.76.29,1,1,0,0,0,.75-.29,1.36,1.36,0,0,0,.26-.9v-3h1v3A2.52,2.52,0,0,1,9.1,5.43a1.78,1.78,0,0,1-.72.72,2.26,2.26,0,0,1-1.05.24,2,2,0,0,1-1.46-.55,2.17,2.17,0,0,1-.54-1.6v-3Z"/><path class="cls-1" d="M13,6.34l-1.18-2H11.4v2h-1V1.28h1.93a1.9,1.9,0,0,1,1.35.43,1.48,1.48,0,0,1,.46,1.13,1.48,1.48,0,0,1-.32,1,1.52,1.52,0,0,1-.92.51l1.26,2ZM11.4,3.67h.84c.57,0,.86-.26.86-.77a.77.77,0,0,0-.21-.57.94.94,0,0,0-.65-.2H11.4Z"/><path class="cls-1" d="M18.61,1.53a2.37,2.37,0,0,1,.91.92,2.72,2.72,0,0,1,.33,1.34,2.69,2.69,0,0,1-.33,1.34,2.33,2.33,0,0,1-.91.93,2.67,2.67,0,0,1-2.57,0,2.33,2.33,0,0,1-.91-.93,2.69,2.69,0,0,1-.34-1.34,2.72,2.72,0,0,1,.34-1.34A2.37,2.37,0,0,1,16,1.53a2.67,2.67,0,0,1,2.57,0Zm-2.07.81a1.31,1.31,0,0,0-.52.57,1.9,1.9,0,0,0-.19.88,1.87,1.87,0,0,0,.19.88,1.4,1.4,0,0,0,.52.58,1.64,1.64,0,0,0,1.57,0,1.4,1.4,0,0,0,.52-.58,1.87,1.87,0,0,0,.19-.88,1.9,1.9,0,0,0-.19-.88,1.31,1.31,0,0,0-.52-.57,1.64,1.64,0,0,0-1.57,0ZM18.69,0V.68H16V0Z"/><path class="cls-1" d="M26.32,1.71A2.28,2.28,0,0,1,27.14,3H26.08a1.43,1.43,0,0,0-.51-.65,1.5,1.5,0,0,0-.83-.23,1.32,1.32,0,0,0-.73.2,1.33,1.33,0,0,0-.5.57,2,2,0,0,0-.18.88,1.94,1.94,0,0,0,.18.86,1.42,1.42,0,0,0,.5.58,1.4,1.4,0,0,0,.73.2,1.42,1.42,0,0,0,.83-.24,1.4,1.4,0,0,0,.51-.64h1.06a2.23,2.23,0,0,1-.82,1.32,2.71,2.71,0,0,1-2.85.16,2.22,2.22,0,0,1-.86-.91,2.89,2.89,0,0,1-.3-1.33,3,3,0,0,1,.3-1.35,2.22,2.22,0,0,1,.86-.91,2.41,2.41,0,0,1,1.28-.32A2.51,2.51,0,0,1,26.32,1.71Z"/><path class="cls-1" d="M30.46,2.55a1.29,1.29,0,0,1,.51.64V2.37h1v4H31V5.5a1.31,1.31,0,0,1-.51.65,1.5,1.5,0,0,1-.86.24,1.74,1.74,0,0,1-.9-.25,1.65,1.65,0,0,1-.63-.7,2.47,2.47,0,0,1-.22-1.09,2.47,2.47,0,0,1,.22-1.09,1.65,1.65,0,0,1,.63-.7,1.74,1.74,0,0,1,.9-.25A1.5,1.5,0,0,1,30.46,2.55Zm-1.3,1a1.22,1.22,0,0,0-.29.85,1.17,1.17,0,0,0,.29.84,1,1,0,0,0,.76.31,1,1,0,0,0,.75-.31,1.17,1.17,0,0,0,.3-.84,1.17,1.17,0,0,0-.3-.84,1,1,0,0,0-.75-.31A1,1,0,0,0,29.16,3.5Z"/><path class="cls-1" d="M36.31,2.56a1.65,1.65,0,0,1,.63.7,2.47,2.47,0,0,1,.23,1.09,2.47,2.47,0,0,1-.23,1.09,1.65,1.65,0,0,1-.63.7,1.74,1.74,0,0,1-.9.25,1.5,1.5,0,0,1-.86-.24,1.35,1.35,0,0,1-.5-.65V8.23H33V2.37h1v.82a1.32,1.32,0,0,1,.5-.64,1.5,1.5,0,0,1,.86-.24A1.74,1.74,0,0,1,36.31,2.56Zm-2,.95a1.17,1.17,0,0,0-.3.84,1.17,1.17,0,0,0,.3.84,1,1,0,0,0,.75.31,1,1,0,0,0,.76-.31,1.17,1.17,0,0,0,.29-.84,1.22,1.22,0,0,0-.29-.85,1.09,1.09,0,0,0-1.51,0Z"/><path class="cls-1" d="M38.08.83a.64.64,0,0,1,.45-.16A.61.61,0,0,1,39,.83a.49.49,0,0,1,.18.4.51.51,0,0,1-.18.39.64.64,0,0,1-.45.15.68.68,0,0,1-.45-.15.54.54,0,0,1-.17-.39A.51.51,0,0,1,38.08.83Zm1,1.54v4H38v-4Z"/><path class="cls-1" d="M42.22,5.47v.87h-.53a1.42,1.42,0,0,1-1-.33,1.37,1.37,0,0,1-.36-1.07V3.22h-.55V2.37h.55v-1h1v1h.89v.85h-.89V5a.53.53,0,0,0,.12.4.49.49,0,0,0,.38.12Z"/><path class="cls-1" d="M45.5,2.55a1.29,1.29,0,0,1,.51.64V2.37h1v4H46V5.5a1.31,1.31,0,0,1-.51.65,1.52,1.52,0,0,1-.86.24,1.71,1.71,0,0,1-.9-.25,1.65,1.65,0,0,1-.63-.7,2.47,2.47,0,0,1-.23-1.09,2.47,2.47,0,0,1,.23-1.09,1.65,1.65,0,0,1,.63-.7,1.71,1.71,0,0,1,.9-.25A1.52,1.52,0,0,1,45.5,2.55Zm-1.3,1a1.17,1.17,0,0,0-.29.85,1.13,1.13,0,0,0,.29.84A1,1,0,0,0,45,5.5a1,1,0,0,0,.75-.31,1.17,1.17,0,0,0,.3-.84,1.17,1.17,0,0,0-.3-.84,1.09,1.09,0,0,0-1.51,0Z"/><path class="cls-1" d="M49.08,1V6.34h-1V1Z"/><path class="cls-1" d="M52.86,4.46V6.34h-1V1.28h1.84A1.87,1.87,0,0,1,55,1.71a1.49,1.49,0,0,1,.46,1.16A1.51,1.51,0,0,1,55,4a1.94,1.94,0,0,1-1.34.43Zm1.61-1.59a.77.77,0,0,0-.2-.58,1,1,0,0,0-.68-.2h-.73V3.65h.73C54.18,3.65,54.47,3.39,54.47,2.87Z"/><path class="cls-1" d="M57.31,1V6.34h-1V1Z"/><path class="cls-1" d="M60.79,2.55a1.29,1.29,0,0,1,.51.64V2.37h1v4h-1V5.5a1.31,1.31,0,0,1-.51.65,1.52,1.52,0,0,1-.86.24,1.69,1.69,0,0,1-.9-.25,1.65,1.65,0,0,1-.63-.7,2.47,2.47,0,0,1-.23-1.09,2.47,2.47,0,0,1,.23-1.09,1.65,1.65,0,0,1,.63-.7,1.69,1.69,0,0,1,.9-.25A1.52,1.52,0,0,1,60.79,2.55Zm-1.31,1a1.21,1.21,0,0,0-.28.85,1.17,1.17,0,0,0,.28.84,1,1,0,0,0,.76.31A1,1,0,0,0,61,5.19a1.17,1.17,0,0,0,.3-.84,1.17,1.17,0,0,0-.3-.84,1,1,0,0,0-.76-.31A1,1,0,0,0,59.48,3.5Z"/><path class="cls-1" d="M64.18,5.49h1.95v.85h-3V5.53L64.9,3.2H63.12V2.37h2.94v.79Z"/><path class="cls-1" d="M69.32,2.55a1.29,1.29,0,0,1,.51.64V2.37h1v4h-1V5.5a1.31,1.31,0,0,1-.51.65,1.52,1.52,0,0,1-.86.24,1.69,1.69,0,0,1-.9-.25,1.65,1.65,0,0,1-.63-.7,2.47,2.47,0,0,1-.23-1.09,2.47,2.47,0,0,1,.23-1.09,1.65,1.65,0,0,1,.63-.7,1.69,1.69,0,0,1,.9-.25A1.52,1.52,0,0,1,69.32,2.55ZM68,3.5a1.21,1.21,0,0,0-.28.85,1.17,1.17,0,0,0,.28.84,1,1,0,0,0,.76.31,1,1,0,0,0,.76-.31,1.17,1.17,0,0,0,.3-.84,1.17,1.17,0,0,0-.3-.84,1,1,0,0,0-.76-.31A1,1,0,0,0,68,3.5Z"/><path class="cls-1" d="M12,32.87H8.91L3.72,25v7.88H.61V20H3.72l5.19,8V20H12Z"/><path class="cls-1" d="M23.91,20.67A6.21,6.21,0,0,1,26.25,23a6.66,6.66,0,0,1,.85,3.38,6.79,6.79,0,0,1-.86,3.4,6.36,6.36,0,0,1-2.34,2.35,6.82,6.82,0,0,1-6.56,0A6.21,6.21,0,0,1,15,29.8a6.69,6.69,0,0,1-.86-3.4A6.56,6.56,0,0,1,15,23a6.21,6.21,0,0,1,2.34-2.35,6.84,6.84,0,0,1,6.57,0Zm-5.72,3a3.88,3.88,0,0,0-.89,2.69,3.91,3.91,0,0,0,.89,2.69,3.13,3.13,0,0,0,2.43,1,3.11,3.11,0,0,0,2.41-1,3.83,3.83,0,0,0,.91-2.69,3.89,3.89,0,0,0-.9-2.69,3.11,3.11,0,0,0-2.42-1A3.12,3.12,0,0,0,18.19,23.71Z"/><path class="cls-1" d="M31.6,20l3.14,9.66L37.88,20h3.33L36.74,32.87h-4L28.28,20Z"/><path class="cls-1" d="M50.72,30.52H45.91l-.8,2.35H41.84l4.7-12.75h3.58l4.7,12.75h-3.3Zm-.8-2.36-1.6-4.72-1.61,4.72Z"/><path class="cls-1" d="M68.33,30.52H63.52l-.8,2.35H59.45l4.7-12.75h3.58l4.7,12.75h-3.3Zm-.8-2.36-1.6-4.72-1.61,4.72Z"/><path class="cls-1" d="M84.73,29.77a5.72,5.72,0,0,1-2.32,2.28,7.47,7.47,0,0,1-3.57.82H74V20h4.85a7.6,7.6,0,0,1,3.58.8,5.57,5.57,0,0,1,2.31,2.25,6.74,6.74,0,0,1,.81,3.34A6.78,6.78,0,0,1,84.73,29.77Zm-3.34-.64a3.6,3.6,0,0,0,1-2.71,3.6,3.6,0,0,0-1-2.71,3.92,3.92,0,0,0-2.82-1H77.1v7.34h1.47A3.92,3.92,0,0,0,81.39,29.13Z"/><path class="cls-1" d="M94.25,32.87,91.48,28h-.71v4.85H87.66V20H93a5.73,5.73,0,0,1,2.58.53A3.58,3.58,0,0,1,97.12,22a4.15,4.15,0,0,1,.53,2.1,3.73,3.73,0,0,1-.77,2.37,3.92,3.92,0,0,1-2.24,1.35l3,5Zm-3.48-7h1.92a1.94,1.94,0,0,0,1.36-.4,1.85,1.85,0,0,0,0-2.41,1.84,1.84,0,0,0-1.35-.44H90.77Z"/><path class="cls-1" d="M102.68,22.5v2.69H107v2.34h-4.34v2.85h4.88v2.49h-8V20h8V22.5Z"/><path class="cls-1" d="M118.39,31.12a3.55,3.55,0,0,1-1.52,1.36,5.41,5.41,0,0,1-2.45.51,5.73,5.73,0,0,1-3.55-1.05A3.77,3.77,0,0,1,109.34,29h3.3a1.79,1.79,0,0,0,.52,1.14,1.61,1.61,0,0,0,1.14.42,1.3,1.3,0,0,0,.94-.33,1.15,1.15,0,0,0,.35-.87,1.14,1.14,0,0,0-.32-.82,2.67,2.67,0,0,0-.79-.53c-.32-.14-.75-.31-1.31-.5a16.81,16.81,0,0,1-2-.81,3.72,3.72,0,0,1-1.32-1.16,3.35,3.35,0,0,1-.56-2,3.45,3.45,0,0,1,.58-2,3.82,3.82,0,0,1,1.61-1.28,6,6,0,0,1,2.35-.44,5.27,5.27,0,0,1,3.41,1,3.87,3.87,0,0,1,1.42,2.79h-3.36a1.73,1.73,0,0,0-.46-1,1.39,1.39,0,0,0-1-.37,1.33,1.33,0,0,0-.88.29,1.09,1.09,0,0,0-.33.86,1.08,1.08,0,0,0,.3.77,2.44,2.44,0,0,0,.75.52c.3.13.74.3,1.31.5a14.86,14.86,0,0,1,2,.83,3.9,3.9,0,0,1,1.35,1.19,3.43,3.43,0,0,1,.56,2A3.49,3.49,0,0,1,118.39,31.12Z"/><path class="cls-1" d="M129,30.52h-4.81l-.8,2.35h-3.27l4.7-12.75h3.58l4.7,12.75h-3.3Zm-.8-2.36-1.6-4.72-1.61,4.72Z"/><path class="cls-1" d="M3.72,51.24H7.86v2.37H.61V40.78H3.72Z"/><path class="cls-1" d="M12.67,40.78v7.4a3,3,0,0,0,.57,2,2,2,0,0,0,1.66.67,2,2,0,0,0,1.66-.67,3,3,0,0,0,.57-2v-7.4h3.11v7.4a6.08,6.08,0,0,1-.71,3.06,4.57,4.57,0,0,1-1.93,1.87,6,6,0,0,1-2.77.63,5.72,5.72,0,0,1-2.73-.62,4.39,4.39,0,0,1-1.85-1.87,6.37,6.37,0,0,1-.67-3.07v-7.4Z"/><path class="cls-1" d="M28.72,47.06l5.17,6.55H30.13l-4.36-5.75v5.75h-3.1V40.78h3.1v5.64l4.4-5.64h3.72Z"/><path class="cls-1" d="M44.26,51.87a3.61,3.61,0,0,1-1.52,1.36,5.36,5.36,0,0,1-2.44.51,5.76,5.76,0,0,1-3.56-1.05,3.85,3.85,0,0,1-1.53-2.94h3.31A1.74,1.74,0,0,0,39,50.89a1.56,1.56,0,0,0,1.13.42,1.34,1.34,0,0,0,.95-.33,1.18,1.18,0,0,0,.34-.87,1.14,1.14,0,0,0-.32-.82,2.38,2.38,0,0,0-.79-.53c-.31-.14-.75-.31-1.31-.5a15.9,15.9,0,0,1-2-.81,3.67,3.67,0,0,1-1.33-1.16,3.8,3.8,0,0,1,0-4A3.76,3.76,0,0,1,37.37,41a5.93,5.93,0,0,1,2.35-.44,5.32,5.32,0,0,1,3.4,1,3.9,3.9,0,0,1,1.43,2.8H41.19a1.74,1.74,0,0,0-.47-1,1.33,1.33,0,0,0-1-.37,1.3,1.3,0,0,0-.88.29,1.06,1.06,0,0,0-.34.85,1.1,1.1,0,0,0,.3.78,2.26,2.26,0,0,0,.75.51c.31.14.74.31,1.31.51a15.05,15.05,0,0,1,2,.83A3.87,3.87,0,0,1,44.22,48a3.43,3.43,0,0,1,.56,2A3.49,3.49,0,0,1,44.26,51.87Z"/><path class="cls-1" d="M49.88,40.78v7.4a2.89,2.89,0,0,0,.58,2,2.39,2.39,0,0,0,3.32,0,3,3,0,0,0,.57-2v-7.4h3.1v7.4a6.08,6.08,0,0,1-.7,3.06,4.6,4.6,0,0,1-1.94,1.87,6,6,0,0,1-2.77.63,5.71,5.71,0,0,1-2.72-.62,4.34,4.34,0,0,1-1.85-1.87,6.37,6.37,0,0,1-.67-3.07v-7.4Z"/><path class="cls-1" d="M63.1,51.11h5.67v2.5H59.65V51.25l5.57-8h-5.5V40.78h9v2.36Z"/><path class="cls-1" d="M79,51.27H74.17l-.79,2.34H70.11l4.7-12.74h3.58l4.7,12.74h-3.3Zm-.8-2.36-1.6-4.72L75,48.91Z"/><path class="cls-1" d="M87.32,50.51v3.1H84.11v-3.1Z"/></g></g></svg>