<svg xmlns="http://www.w3.org/2000/svg" viewBox="0 0 189.28 28.47"><defs><style>.cls-1{fill:#f98f0b;}</style></defs><g id="Layer_2" data-name="Layer 2"><g id="Layer_1-2" data-name="Layer 1"><path class="cls-1" d="M183.93,28.47H5.35A5.36,5.36,0,0,1,0,23.11V5.35A5.36,5.36,0,0,1,5.35,0H183.93a5.36,5.36,0,0,1,5.35,5.35V23.11A5.36,5.36,0,0,1,183.93,28.47ZM5.35,1A4.33,4.33,0,0,0,1,5.35V23.11a4.33,4.33,0,0,0,4.32,4.33H183.93a4.33,4.33,0,0,0,4.32-4.33V5.35A4.33,4.33,0,0,0,183.93,1Z"/><path d="M11.63,6.23v4.35l-.23-.25h3.13v.51H11.11V6.23Z"/><path d="M15.27,6.86A.33.33,0,0,1,15,6.75a.37.37,0,0,1-.11-.27A.39.39,0,0,1,15,6.21a.35.35,0,0,1,.26-.1.36.36,0,0,1,.27.1.35.35,0,0,1,.11.27.38.38,0,0,1-.38.38ZM15,7.37l.25,0,.25,0v3.47H15Z"/><path d="M16,8.05V7.59h2.69v.46Zm2-1.56a.86.86,0,0,0-.64.22.92.92,0,0,0-.22.7v3.43h-.51V7.49a2.18,2.18,0,0,1,.13-.75,1.09,1.09,0,0,1,.43-.52A1.4,1.4,0,0,1,18,6a1.7,1.7,0,0,1,.41,0l.34.11v.48a1.17,1.17,0,0,0-.33-.14A2.21,2.21,0,0,0,18.08,6.49Z"/><path d="M20.66,10.92a1.94,1.94,0,0,1-.95-.23,1.6,1.6,0,0,1-.65-.64,1.8,1.8,0,0,1-.23-.94,1.93,1.93,0,0,1,.22-.95,1.54,1.54,0,0,1,.61-.63,1.77,1.77,0,0,1,.9-.23,1.59,1.59,0,0,1,.88.25,1.52,1.52,0,0,1,.58.69,2.41,2.41,0,0,1,.21,1h-3V8.83H22l-.3.2a1.54,1.54,0,0,0-.17-.67,1.14,1.14,0,0,0-.4-.44,1.15,1.15,0,0,0-.59-.15,1.29,1.29,0,0,0-.64.16,1.1,1.1,0,0,0-.42.46,1.53,1.53,0,0,0-.16.69,1.41,1.41,0,0,0,.18.73,1.15,1.15,0,0,0,.48.47,1.51,1.51,0,0,0,.73.17,2.21,2.21,0,0,0,.75-.14,2.73,2.73,0,0,0,.66-.39v.44a2.14,2.14,0,0,1-.69.41A2.21,2.21,0,0,1,20.66,10.92Z"/><path d="M22.41,7.84V7.57l.68-.14.21-.94h.3v.89h1.52v.46H23.6V9.59a.9.9,0,0,0,.19.66.78.78,0,0,0,.57.19,1.4,1.4,0,0,0,.44-.07,1.54,1.54,0,0,0,.38-.2v.5a1.45,1.45,0,0,1-.39.17,1.91,1.91,0,0,1-.54.08,1.21,1.21,0,0,1-.67-.16.93.93,0,0,1-.37-.44,1.62,1.62,0,0,1-.12-.64V7.84Z"/><path d="M26,6.86a.33.33,0,0,1-.27-.11.37.37,0,0,1-.11-.27.39.39,0,0,1,.11-.27.41.41,0,0,1,.54,0,.38.38,0,0,1,.1.27.36.36,0,0,1-.1.27A.33.33,0,0,1,26,6.86Zm-.25.51.25,0,.26,0v3.47h-.51Z"/><path d="M26.92,7.38h.5l.18,1.18v2.28h-.51V8.48Zm1.87-.08a1.19,1.19,0,0,1,.69.2,1.24,1.24,0,0,1,.43.56,2.28,2.28,0,0,1,.15.88v1.9h-.51V9a1.61,1.61,0,0,0-.23-.94.8.8,0,0,0-.68-.32.89.89,0,0,0-.55.18,1,1,0,0,0-.36.47,1.73,1.73,0,0,0-.13.71L27.4,9a2.38,2.38,0,0,1,.22-.89,1.48,1.48,0,0,1,.49-.58A1.16,1.16,0,0,1,28.79,7.3Zm2.45,0a1.19,1.19,0,0,1,.69.2,1.18,1.18,0,0,1,.43.56,2.28,2.28,0,0,1,.15.88v1.9H32V9a1.53,1.53,0,0,0-.23-.94.78.78,0,0,0-.67-.32.87.87,0,0,0-.55.18,1.1,1.1,0,0,0-.37.47,1.92,1.92,0,0,0-.12.71L29.85,9a2.38,2.38,0,0,1,.23-.89,1.46,1.46,0,0,1,.48-.58A1.16,1.16,0,0,1,31.24,7.3Z"/><path d="M34.93,10.92a1.92,1.92,0,0,1-.94-.23,1.6,1.6,0,0,1-.65-.64,1.8,1.8,0,0,1-.24-.94,1.94,1.94,0,0,1,.23-.95,1.54,1.54,0,0,1,.61-.63,1.77,1.77,0,0,1,.9-.23,1.55,1.55,0,0,1,1.46.94,2.41,2.41,0,0,1,.21,1h-3V8.83h2.8L36,9a1.69,1.69,0,0,0-.17-.67,1.14,1.14,0,0,0-.4-.44,1.16,1.16,0,0,0-.6-.15,1.28,1.28,0,0,0-.63.16,1.1,1.1,0,0,0-.42.46,1.41,1.41,0,0,0-.16.69,1.51,1.51,0,0,0,.17.73,1.23,1.23,0,0,0,.49.47,1.51,1.51,0,0,0,.73.17,2.11,2.11,0,0,0,.74-.14,2.62,2.62,0,0,0,.67-.39v.44a2.32,2.32,0,0,1-1.49.56Z"/><path d="M42.86,8.83a2.21,2.21,0,0,1-.15.82,2.08,2.08,0,0,1-.41.67,1.83,1.83,0,0,1-.65.44,2.11,2.11,0,0,1-.85.16,2.24,2.24,0,0,1-.91-.17,2.11,2.11,0,0,1-.73-.48,2.22,2.22,0,0,1-.47-.75,2.91,2.91,0,0,1,0-2,2,2,0,0,1,.48-.75,2.29,2.29,0,0,1,.73-.49,2.52,2.52,0,0,1,.93-.16,2.44,2.44,0,0,1,1.07.22,1.88,1.88,0,0,1,.76.63,1.86,1.86,0,0,1,.34.9h-.53a1.32,1.32,0,0,0-.28-.65,1.56,1.56,0,0,0-.57-.44,2,2,0,0,0-.8-.15,1.83,1.83,0,0,0-.93.23,1.53,1.53,0,0,0-.62.64,2.2,2.2,0,0,0-.22,1,2.07,2.07,0,0,0,.23,1,1.45,1.45,0,0,0,.62.65,1.81,1.81,0,0,0,1,.23,1.92,1.92,0,0,0,.92-.21,1.6,1.6,0,0,0,.62-.59,1.75,1.75,0,0,0,.23-.86Zm-1.81.25V8.62h2v2.22h-.4l0-1.95.14.19Z"/><path d="M45.11,10.92a1.29,1.29,0,0,1-.72-.19,1.26,1.26,0,0,1-.45-.56,2.18,2.18,0,0,1-.16-.89V7.38h.51V9.19a1.45,1.45,0,0,0,.25.93.88.88,0,0,0,.72.32,1,1,0,0,0,.59-.17,1.11,1.11,0,0,0,.39-.48,1.73,1.73,0,0,0,.14-.71l.19.13a2.14,2.14,0,0,1-.23.91,1.48,1.48,0,0,1-.51.59A1.27,1.27,0,0,1,45.11,10.92Zm1.44-.08-.17-1.18V7.38h.5V9.75l.18,1.09Z"/><path d="M50.9,9.11a3.25,3.25,0,0,1-.37,1,2,2,0,0,1-.61.63,1.38,1.38,0,0,1-.79.23,1.49,1.49,0,0,1-1.37-.87,2.13,2.13,0,0,1-.2-.94,2.18,2.18,0,0,1,.2-.95,1.49,1.49,0,0,1,.56-.63,1.51,1.51,0,0,1,1.6,0,2,2,0,0,1,.61.63A3,3,0,0,1,50.9,9.11Zm-2.82,0a1.67,1.67,0,0,0,.14.69,1.18,1.18,0,0,0,.41.47,1,1,0,0,0,.58.17,1.08,1.08,0,0,0,.61-.17,1.7,1.7,0,0,0,.5-.47,2.81,2.81,0,0,0,.36-.69,2.81,2.81,0,0,0-.36-.69,1.58,1.58,0,0,0-.5-.47,1.08,1.08,0,0,0-.61-.17,1,1,0,0,0-.58.17,1.12,1.12,0,0,0-.41.47A1.67,1.67,0,0,0,48.08,9.11Zm2.62,1.73-.11-1.31.14-.42-.14-.42.11-1.31h.52l-.14,1.73.14,1.73Z"/><path d="M51.84,7.38h.51l.17,1.18v2.28H52V8.46Zm2.34,0v.51a1.37,1.37,0,0,0-.25,0,1.23,1.23,0,0,0-.27,0,1.09,1.09,0,0,0-.59.16,1,1,0,0,0-.4.49,1.72,1.72,0,0,0-.15.74L52.38,9a2.41,2.41,0,0,1,.11-.67,1.75,1.75,0,0,1,.26-.53,1.21,1.21,0,0,1,1-.48l.24,0Z"/><path d="M57.67,9.11a3,3,0,0,1-.38,1,1.91,1.91,0,0,1-.6.63,1.38,1.38,0,0,1-.79.23,1.46,1.46,0,0,1-1.37-.87,2,2,0,0,1-.2-.94,2,2,0,0,1,.2-.95,1.54,1.54,0,0,1,.55-.63,1.51,1.51,0,0,1,.82-.23,1.46,1.46,0,0,1,.79.23,2,2,0,0,1,.61.63A3,3,0,0,1,57.67,9.11Zm-2.82,0A1.67,1.67,0,0,0,55,9.8a1.18,1.18,0,0,0,.41.47,1,1,0,0,0,.58.17,1.08,1.08,0,0,0,.61-.17,1.7,1.7,0,0,0,.5-.47,3.2,3.2,0,0,0,.36-.69,3.2,3.2,0,0,0-.36-.69,1.58,1.58,0,0,0-.5-.47A1.08,1.08,0,0,0,56,7.78,1,1,0,0,0,55.4,8a1.12,1.12,0,0,0-.41.47A1.67,1.67,0,0,0,54.85,9.11Zm2.62,1.73-.11-1.31.14-.42-.14-.42.11-1.31H58l-.15,1.73L58,10.84Z"/><path d="M58.61,7.38h.51l.17,1.18v2.28h-.51V8.48Zm2-.08a1.34,1.34,0,0,1,.74.2,1.25,1.25,0,0,1,.47.56,2.27,2.27,0,0,1,.16.88v1.9h-.51V9a1.46,1.46,0,0,0-.26-.94.91.91,0,0,0-.75-.32,1,1,0,0,0-.6.18,1.16,1.16,0,0,0-.4.47,1.73,1.73,0,0,0-.14.71L59.09,9a2.06,2.06,0,0,1,.24-.89,1.47,1.47,0,0,1,.52-.58A1.3,1.3,0,0,1,60.58,7.3Z"/><path d="M62.29,7.84V7.57L63,7.43l.2-.94h.31v.89H65v.46H63.48V9.59a1,1,0,0,0,.18.66.82.82,0,0,0,.58.19,1.45,1.45,0,0,0,.44-.07,1.74,1.74,0,0,0,.38-.2v.5a1.45,1.45,0,0,1-.39.17,2,2,0,0,1-.54.08,1.27,1.27,0,0,1-.68-.16,1,1,0,0,1-.37-.44A1.83,1.83,0,0,1,63,9.68V7.84Z"/><path d="M67.13,10.92a1.92,1.92,0,0,1-.94-.23,1.6,1.6,0,0,1-.65-.64,1.8,1.8,0,0,1-.24-.94,1.94,1.94,0,0,1,.23-.95,1.54,1.54,0,0,1,.61-.63A1.77,1.77,0,0,1,67,7.3a1.55,1.55,0,0,1,1.46.94,2.41,2.41,0,0,1,.21,1h-3V8.83H68.5l-.3.2A1.69,1.69,0,0,0,68,8.36a1.14,1.14,0,0,0-.4-.44A1.15,1.15,0,0,0,67,7.77a1.29,1.29,0,0,0-.64.16,1.1,1.1,0,0,0-.42.46,1.57,1.57,0,0,0,0,1.42,1.15,1.15,0,0,0,.48.47,1.51,1.51,0,0,0,.73.17,2.21,2.21,0,0,0,.75-.14,2.73,2.73,0,0,0,.66-.39v.44a2.26,2.26,0,0,1-.69.41A2.22,2.22,0,0,1,67.13,10.92Z"/><path d="M71,10.92a2,2,0,0,1-1-.23,1.58,1.58,0,0,1-.64-.64,1.8,1.8,0,0,1-.24-.94,2,2,0,0,1,.22-.95A1.63,1.63,0,0,1,70,7.53a1.77,1.77,0,0,1,.9-.23,1.62,1.62,0,0,1,.88.25,1.59,1.59,0,0,1,.58.69,2.41,2.41,0,0,1,.21,1h-3V8.83h2.8L72,9a1.54,1.54,0,0,0-.16-.67,1.22,1.22,0,0,0-.4-.44,1.16,1.16,0,0,0-.6-.15,1.28,1.28,0,0,0-.63.16,1.19,1.19,0,0,0-.43.46,1.66,1.66,0,0,0,0,1.42,1.23,1.23,0,0,0,.49.47,1.47,1.47,0,0,0,.72.17,2.12,2.12,0,0,0,.75-.14,2.4,2.4,0,0,0,.66-.39v.44a2.2,2.2,0,0,1-.68.41A2.26,2.26,0,0,1,71,10.92Z"/><path d="M134,7.09h2.92v.48h-2.73l.22-.18-.23,2.08H134a1.56,1.56,0,0,1,.37-.41,2,2,0,0,1,.54-.3,1.83,1.83,0,0,1,.68-.12,1.8,1.8,0,0,1,.91.21,1.46,1.46,0,0,1,.57.56,1.71,1.71,0,0,1,.19.79A1.5,1.5,0,0,1,137,11a1.6,1.6,0,0,1-.64.56,2.19,2.19,0,0,1-1,.2,2.24,2.24,0,0,1-1-.19,1.58,1.58,0,0,1-.65-.51,1.68,1.68,0,0,1-.31-.71H134a1.07,1.07,0,0,0,.45.67,1.62,1.62,0,0,0,.95.25,1.59,1.59,0,0,0,.68-.13,1.09,1.09,0,0,0,.46-.38,1,1,0,0,0,.16-.57,1.15,1.15,0,0,0-.14-.57,1.07,1.07,0,0,0-.41-.38,1.46,1.46,0,0,0-.66-.14,1.66,1.66,0,0,0-.61.11,1.62,1.62,0,0,0-.47.25,1.42,1.42,0,0,0-.32.33h-.41Z"/><path d="M139.2,10.21h.53a1.1,1.1,0,0,0,.23.57,1.2,1.2,0,0,0,.51.37,1.86,1.86,0,0,0,.73.14,1.83,1.83,0,0,0,1-.24.73.73,0,0,0,.36-.64.54.54,0,0,0-.23-.48,1.79,1.79,0,0,0-.79-.24l-.81-.11a2.09,2.09,0,0,1-1.09-.4,1.08,1.08,0,0,1-.33-.82,1.23,1.23,0,0,1,.22-.72,1.46,1.46,0,0,1,.63-.47,2.62,2.62,0,0,1,.93-.16,2.42,2.42,0,0,1,1,.18,1.55,1.55,0,0,1,.66.51,1.3,1.3,0,0,1,.27.76h-.53a.9.9,0,0,0-.21-.51,1.11,1.11,0,0,0-.47-.33,1.85,1.85,0,0,0-.69-.12,1.64,1.64,0,0,0-.91.22.72.72,0,0,0-.34.62.53.53,0,0,0,.23.47,1.73,1.73,0,0,0,.76.24l.78.12a3.46,3.46,0,0,1,.87.21,1,1,0,0,1,.47.38,1.11,1.11,0,0,1,.14.6,1.19,1.19,0,0,1-.23.75,1.53,1.53,0,0,1-.66.5,2.78,2.78,0,0,1-1,.17,2.46,2.46,0,0,1-1-.2,1.79,1.79,0,0,1-.71-.55A1.55,1.55,0,0,1,139.2,10.21Z"/><path d="M143.34,8.69V8.42l.69-.14.2-.94h.31v.9h1.51v.45h-1.51v1.76a1,1,0,0,0,.18.66.82.82,0,0,0,.58.18,1.46,1.46,0,0,0,.44-.06,2.32,2.32,0,0,0,.38-.2v.5a1.4,1.4,0,0,1-.4.17,1.84,1.84,0,0,1-.53.08,1.37,1.37,0,0,1-.68-.16,1,1,0,0,1-.37-.45,1.77,1.77,0,0,1-.11-.63V8.69Z"/><path d="M149.71,10a3.09,3.09,0,0,1-.37.95,1.94,1.94,0,0,1-.61.63,1.42,1.42,0,0,1-.78.23,1.51,1.51,0,0,1-.82-.23,1.64,1.64,0,0,1-.55-.64,2,2,0,0,1-.2-.94,2,2,0,0,1,.2-1,1.54,1.54,0,0,1,.55-.63,1.51,1.51,0,0,1,.82-.23,1.42,1.42,0,0,1,.78.23,1.94,1.94,0,0,1,.61.63A2.77,2.77,0,0,1,149.71,10Zm-2.82,0a1.52,1.52,0,0,0,.15.69,1.11,1.11,0,0,0,.41.47,1,1,0,0,0,.58.17,1.19,1.19,0,0,0,.61-.17,1.7,1.7,0,0,0,.5-.47,2.79,2.79,0,0,0,.35-.69,2.7,2.7,0,0,0-.35-.7,1.85,1.85,0,0,0-.5-.47,1.19,1.19,0,0,0-.61-.17,1,1,0,0,0-.58.17,1.17,1.17,0,0,0-.41.47A1.54,1.54,0,0,0,146.89,10Zm2.63,1.73-.11-1.31.13-.42-.13-.42.11-1.31H150L149.89,10,150,11.7Z"/><path d="M150.65,8.24h.51l.18,1.18V11.7h-.51V9.31Zm2.34,0v.51a.84.84,0,0,0-.24-.06l-.27,0a1.08,1.08,0,0,0-1,.65,1.89,1.89,0,0,0-.14.75l-.14-.22a2.35,2.35,0,0,1,.1-.67,1.47,1.47,0,0,1,.27-.53,1.27,1.27,0,0,1,.42-.35,1.13,1.13,0,0,1,.56-.13l.24,0A.83.83,0,0,1,153,8.23Z"/><path d="M156.42,10.68a.93.93,0,0,1-.18.58,1.09,1.09,0,0,1-.52.38,2.3,2.3,0,0,1-.84.14,2.24,2.24,0,0,1-.89-.16,1.42,1.42,0,0,1-.6-.44,1.16,1.16,0,0,1-.23-.65h.52a.85.85,0,0,0,.19.42,1.15,1.15,0,0,0,.42.28,1.89,1.89,0,0,0,.6.09,1.44,1.44,0,0,0,.75-.16.51.51,0,0,0,.28-.44.35.35,0,0,0-.18-.33,1.9,1.9,0,0,0-.66-.17l-.6-.06a2.69,2.69,0,0,1-.72-.18.8.8,0,0,1-.38-.34.91.91,0,0,1,.07-1,1.13,1.13,0,0,1,.51-.35,2.26,2.26,0,0,1,.77-.12,2.16,2.16,0,0,1,.83.15,1.45,1.45,0,0,1,.58.41,1,1,0,0,1,.23.61h-.51a.67.67,0,0,0-.17-.36.89.89,0,0,0-.38-.26,1.59,1.59,0,0,0-.61-.1,1.48,1.48,0,0,0-.69.14.44.44,0,0,0-.24.41.35.35,0,0,0,.16.31,1.24,1.24,0,0,0,.57.17l.68.08a2.45,2.45,0,0,1,.75.17.82.82,0,0,1,.38.32A.88.88,0,0,1,156.42,10.68Z"/><path d="M159,9.27h1.78a.93.93,0,0,0,.66-.23.81.81,0,0,0,.25-.61.8.8,0,0,0-.25-.61.93.93,0,0,0-.66-.23H159l.23-.3V11.7h-.52V7.09h2.16a1.58,1.58,0,0,1,.74.17,1.23,1.23,0,0,1,.49.47,1.43,1.43,0,0,1,0,1.39,1.17,1.17,0,0,1-.49.47,1.47,1.47,0,0,1-.74.17H159Zm.92.27h.64l1.73,2.16h-.64Z"/><path d="M164.46,11.78a2,2,0,0,1-1-.23,1.71,1.71,0,0,1-.64-.64,1.83,1.83,0,0,1-.24-.94,2,2,0,0,1,.22-1,1.63,1.63,0,0,1,.62-.63,1.77,1.77,0,0,1,.9-.23,1.52,1.52,0,0,1,.88.25,1.59,1.59,0,0,1,.58.69,2.37,2.37,0,0,1,.21,1h-3V9.68h2.8l-.29.21a1.69,1.69,0,0,0-.17-.67,1.07,1.07,0,0,0-.4-.44,1.16,1.16,0,0,0-.6-.15,1.18,1.18,0,0,0-.63.16,1.19,1.19,0,0,0-.43.46,1.47,1.47,0,0,0-.15.69,1.54,1.54,0,0,0,.17.73,1.23,1.23,0,0,0,.49.47,1.49,1.49,0,0,0,.73.16,1.91,1.91,0,0,0,.74-.14,2.33,2.33,0,0,0,.67-.38v.44a2.32,2.32,0,0,1-1.49.56Z"/><path d="M168.11,11.43h-.2l1.38-3.19h.54l-1.55,3.46h-.57l-1.55-3.46h.57Z"/><path d="M170.56,7.72a.39.39,0,0,1-.27-.11.41.41,0,0,1,0-.54.39.39,0,0,1,.27-.11.37.37,0,0,1,.27.11.41.41,0,0,1,0,.54A.37.37,0,0,1,170.56,7.72Zm-.25.51.25,0,.26,0V11.7h-.51Z"/><path d="M173.28,11.78a2,2,0,0,1-.95-.23,1.71,1.71,0,0,1-.64-.64,1.83,1.83,0,0,1-.24-.94,2,2,0,0,1,.22-1,1.63,1.63,0,0,1,.62-.63,1.77,1.77,0,0,1,.9-.23,1.52,1.52,0,0,1,.88.25,1.59,1.59,0,0,1,.58.69,2.37,2.37,0,0,1,.21,1h-3V9.68h2.8l-.29.21a1.69,1.69,0,0,0-.17-.67,1.07,1.07,0,0,0-.4-.44,1.16,1.16,0,0,0-.6-.15,1.18,1.18,0,0,0-.63.16,1.1,1.1,0,0,0-.42.46,1.35,1.35,0,0,0-.16.69,1.54,1.54,0,0,0,.17.73,1.23,1.23,0,0,0,.49.47,1.51,1.51,0,0,0,.73.16,1.91,1.91,0,0,0,.74-.14,2.33,2.33,0,0,0,.67-.38v.44a2.32,2.32,0,0,1-1.49.56Z"/><path d="M179.33,11.43h-.21l1.17-3.19h.52l-1.3,3.46H179l-1.18-3.22h.24l-1.19,3.22h-.52L175,8.24h.52l1.18,3.19h-.23l1.16-3.19h.52Z"/><path d="M35.64,16.41l2,4.6h-.57L35.2,16.6h.27L33.55,21H33l2-4.6Zm-1.79,3.46v-.49h2.92v.49Z"/><path d="M39.3,21.09a1.29,1.29,0,0,1-.72-.19,1.2,1.2,0,0,1-.45-.56,2.18,2.18,0,0,1-.16-.89v-1.9h.51v1.81a1.45,1.45,0,0,0,.25.93.86.86,0,0,0,.72.32,1,1,0,0,0,.59-.17,1.11,1.11,0,0,0,.39-.48,1.73,1.73,0,0,0,.13-.71l.2.13a2.14,2.14,0,0,1-.23.91,1.48,1.48,0,0,1-.51.59A1.27,1.27,0,0,1,39.3,21.09ZM40.74,21l-.18-1.18V17.55h.51v2.37L41.25,21Z"/><path d="M45,20a1,1,0,0,1-.18.58,1.19,1.19,0,0,1-.53.38,2.32,2.32,0,0,1-.84.13,2.39,2.39,0,0,1-.88-.15,1.38,1.38,0,0,1-.6-.44,1.11,1.11,0,0,1-.24-.66h.52a.82.82,0,0,0,.2.42,1,1,0,0,0,.42.28,1.82,1.82,0,0,0,1.34-.06.5.5,0,0,0,.28-.45.35.35,0,0,0-.18-.33,1.94,1.94,0,0,0-.66-.16l-.6-.07a2.1,2.1,0,0,1-.72-.18,1,1,0,0,1-.38-.33.84.84,0,0,1-.12-.45.93.93,0,0,1,.19-.57,1.11,1.11,0,0,1,.52-.35,2.2,2.2,0,0,1,.76-.12,2.16,2.16,0,0,1,.83.15,1.48,1.48,0,0,1,.58.41,1.13,1.13,0,0,1,.24.61H44.4a.73.73,0,0,0-.16-.36,1,1,0,0,0-.39-.26,1.71,1.71,0,0,0-.6-.1,1.42,1.42,0,0,0-.69.14.46.46,0,0,0-.25.42.38.38,0,0,0,.16.31A1.37,1.37,0,0,0,43,19l.69.08a2.45,2.45,0,0,1,.74.17.77.77,0,0,1,.38.32A.86.86,0,0,1,45,20Z"/><path d="M45.18,18v-.27l.68-.14.21-.94h.3v.89h1.52V18H46.37v1.76a.89.89,0,0,0,.19.65.78.78,0,0,0,.57.19,1.4,1.4,0,0,0,.44-.07,1.27,1.27,0,0,0,.38-.2v.5a1.45,1.45,0,0,1-.39.17,1.61,1.61,0,0,1-.54.08,1.21,1.21,0,0,1-.67-.16.93.93,0,0,1-.37-.44,1.62,1.62,0,0,1-.12-.64V18Z"/><path d="M48.35,17.55h.51L49,18.73V21h-.51V18.63Zm2.34,0v.51L50.45,18a1.32,1.32,0,0,0-.27,0,1.12,1.12,0,0,0-.6.16,1.16,1.16,0,0,0-.4.49,1.88,1.88,0,0,0-.14.74l-.15-.22a2.84,2.84,0,0,1,.11-.67,1.56,1.56,0,0,1,.27-.53,1.1,1.1,0,0,1,.42-.35,1.24,1.24,0,0,1,.55-.13l.24,0A.81.81,0,0,1,50.69,17.54Z"/><path d="M54.18,19.28a3,3,0,0,1-.37.95,2.08,2.08,0,0,1-.61.64,1.45,1.45,0,0,1-.79.22,1.4,1.4,0,0,1-.81-.23,1.53,1.53,0,0,1-.56-.64,2.13,2.13,0,0,1-.2-.94,2.18,2.18,0,0,1,.2-1,1.56,1.56,0,0,1,.56-.63,1.48,1.48,0,0,1,.81-.23,1.46,1.46,0,0,1,.79.23,1.94,1.94,0,0,1,.61.63A3,3,0,0,1,54.18,19.28Zm-2.82,0a1.52,1.52,0,0,0,.15.69,1.09,1.09,0,0,0,.4.47,1,1,0,0,0,.58.17,1.14,1.14,0,0,0,.62-.17A1.67,1.67,0,0,0,53.6,20a2.51,2.51,0,0,0,.36-.69,2.51,2.51,0,0,0-.36-.69,1.67,1.67,0,0,0-.49-.47,1.14,1.14,0,0,0-.62-.17,1,1,0,0,0-.58.17,1.09,1.09,0,0,0-.4.47A1.52,1.52,0,0,0,51.36,19.28ZM54,21l-.11-1.31.14-.42-.14-.42L54,17.55h.52l-.14,1.73L54.5,21Z"/><path d="M55.26,16.28h.51V21h-.51Z"/><path d="M56.85,17a.35.35,0,0,1-.27-.11.36.36,0,0,1-.1-.27.34.34,0,0,1,.37-.37.36.36,0,0,1,.27.1.38.38,0,0,1,.1.27.36.36,0,0,1-.1.27A.33.33,0,0,1,56.85,17Zm-.25.51.25.05.26-.05V21H56.6Z"/><path d="M61.09,19.28a3,3,0,0,1-.38.95,2.05,2.05,0,0,1-.6.64,1.45,1.45,0,0,1-.79.22,1.38,1.38,0,0,1-.81-.23,1.46,1.46,0,0,1-.56-.64,2.13,2.13,0,0,1-.2-.94,2.18,2.18,0,0,1,.2-1,1.49,1.49,0,0,1,.56-.63,1.51,1.51,0,0,1,1.6,0,2,2,0,0,1,.61.63A3,3,0,0,1,61.09,19.28Zm-2.82,0a1.67,1.67,0,0,0,.14.69,1.18,1.18,0,0,0,.41.47,1,1,0,0,0,.58.17,1.08,1.08,0,0,0,.61-.17,1.7,1.7,0,0,0,.5-.47,2.81,2.81,0,0,0,.36-.69,2.81,2.81,0,0,0-.36-.69,1.7,1.7,0,0,0-.5-.47A1.08,1.08,0,0,0,59.4,18a1,1,0,0,0-.58.17,1.18,1.18,0,0,0-.41.47A1.67,1.67,0,0,0,58.27,19.28ZM60.89,21l-.11-1.31.14-.42-.14-.42.11-1.31h.52l-.15,1.73L61.41,21Z"/><path d="M62,17.55h.51l.17,1.18V21h-.5V18.65Zm2-.08a1.34,1.34,0,0,1,.74.2,1.19,1.19,0,0,1,.47.56,2.27,2.27,0,0,1,.16.88V21h-.51v-1.8a1.46,1.46,0,0,0-.26-.94.91.91,0,0,0-.75-.32,1,1,0,0,0-.6.18,1.16,1.16,0,0,0-.4.47,1.73,1.73,0,0,0-.14.71l-.2-.16a2.06,2.06,0,0,1,.24-.89,1.47,1.47,0,0,1,.52-.58A1.32,1.32,0,0,1,64,17.47Z"/><path d="M73.09,16.41V21H72.6V16.54h.2L70.7,21h-.55l-2.1-4.46h.21V21h-.5v-4.6h.79l2,4.41h-.32l2-4.41Z"/><path d="M77.13,19.28a3.25,3.25,0,0,1-.37.95,2.2,2.2,0,0,1-.61.64,1.45,1.45,0,0,1-.79.22,1.38,1.38,0,0,1-.81-.23,1.53,1.53,0,0,1-.56-.64,2.13,2.13,0,0,1-.2-.94,2.18,2.18,0,0,1,.2-1,1.56,1.56,0,0,1,.56-.63,1.51,1.51,0,0,1,1.6,0,2,2,0,0,1,.61.63A3,3,0,0,1,77.13,19.28Zm-2.82,0a1.52,1.52,0,0,0,.15.69,1.09,1.09,0,0,0,.4.47,1,1,0,0,0,.58.17,1.08,1.08,0,0,0,.61-.17,1.59,1.59,0,0,0,.5-.47,2.51,2.51,0,0,0,.36-.69,2.51,2.51,0,0,0-.36-.69,1.59,1.59,0,0,0-.5-.47,1.08,1.08,0,0,0-.61-.17,1,1,0,0,0-.58.17,1.09,1.09,0,0,0-.4.47A1.52,1.52,0,0,0,74.31,19.28ZM76.93,21l-.11-1.31.14-.42-.14-.42.11-1.31h.52l-.14,1.73L77.45,21Z"/><path d="M81.37,19.28a3,3,0,0,1-.37.95,2.08,2.08,0,0,1-.61.64,1.45,1.45,0,0,1-.79.22,1.38,1.38,0,0,1-.81-.23,1.53,1.53,0,0,1-.56-.64,2.13,2.13,0,0,1-.2-.94,2.18,2.18,0,0,1,.2-1,1.56,1.56,0,0,1,.56-.63,1.51,1.51,0,0,1,1.6,0,1.94,1.94,0,0,1,.61.63A3,3,0,0,1,81.37,19.28Zm-2.82,0a1.52,1.52,0,0,0,.15.69,1.09,1.09,0,0,0,.4.47,1,1,0,0,0,.58.17,1.08,1.08,0,0,0,.61-.17,1.59,1.59,0,0,0,.5-.47,2.51,2.51,0,0,0,.36-.69,2.51,2.51,0,0,0-.36-.69,1.59,1.59,0,0,0-.5-.47,1.08,1.08,0,0,0-.61-.17,1,1,0,0,0-.58.17,1.09,1.09,0,0,0-.4.47A1.52,1.52,0,0,0,78.55,19.28ZM81.18,21l-.11-1.32.15-.4-.14-.44.21-2.57h.52l-.26,3L81.7,21Z"/><path d="M84.1,21.09a1.83,1.83,0,0,1-.95-.23,1.6,1.6,0,0,1-.65-.64,1.8,1.8,0,0,1-.23-.94,1.93,1.93,0,0,1,.22-1,1.54,1.54,0,0,1,.61-.63,1.77,1.77,0,0,1,.9-.23,1.59,1.59,0,0,1,.88.25,1.52,1.52,0,0,1,.58.69,2.41,2.41,0,0,1,.21,1h-3V19h2.81l-.3.2a1.54,1.54,0,0,0-.17-.67,1.14,1.14,0,0,0-.4-.44,1.15,1.15,0,0,0-.59-.15,1.29,1.29,0,0,0-.64.16,1.17,1.17,0,0,0-.42.46,1.54,1.54,0,0,0-.15.7A1.4,1.4,0,0,0,83,20a1.09,1.09,0,0,0,.48.47,1.51,1.51,0,0,0,.73.17,2.21,2.21,0,0,0,.75-.14,2.73,2.73,0,0,0,.66-.39v.44a2,2,0,0,1-.69.41A2.21,2.21,0,0,1,84.1,21.09Z"/><path d="M86.66,6.23v.51h-3.1l.33-.36v4.46h-.52V6.23Zm-3,2.09h3v.51h-3Z"/><path d="M90.37,9.11a3,3,0,0,1-.37,1,1.94,1.94,0,0,1-.61.63,1.38,1.38,0,0,1-.79.23,1.46,1.46,0,0,1-1.36-.87A2,2,0,0,1,87,9.11a2,2,0,0,1,.21-.95,1.54,1.54,0,0,1,.55-.63,1.5,1.5,0,0,1,.81-.23,1.46,1.46,0,0,1,.79.23,1.94,1.94,0,0,1,.61.63A2.77,2.77,0,0,1,90.37,9.11Zm-2.82,0a1.52,1.52,0,0,0,.15.69,1.16,1.16,0,0,0,.4.47,1,1,0,0,0,.59.17,1.1,1.1,0,0,0,.61-.17,1.84,1.84,0,0,0,.5-.47,2.79,2.79,0,0,0,.35-.69,2.79,2.79,0,0,0-.35-.69A1.69,1.69,0,0,0,89.3,8a1.1,1.1,0,0,0-.61-.17A1,1,0,0,0,88.1,8a1.1,1.1,0,0,0-.4.47A1.52,1.52,0,0,0,87.55,9.11Zm2.62,1.73-.11-1.31.14-.42-.14-.42.11-1.31h.53l-.15,1.73.15,1.73Z"/><path d="M94.49,9.83a1,1,0,0,1-.18.58,1.16,1.16,0,0,1-.52.38,2.32,2.32,0,0,1-.84.13,2.28,2.28,0,0,1-.89-.16,1.49,1.49,0,0,1-.6-.43,1.17,1.17,0,0,1-.23-.66h.52a.81.81,0,0,0,.19.42,1.15,1.15,0,0,0,.42.28,1.89,1.89,0,0,0,.6.1,1.44,1.44,0,0,0,.75-.17A.49.49,0,0,0,94,9.86a.35.35,0,0,0-.18-.33,1.73,1.73,0,0,0-.66-.16l-.6-.07a2.1,2.1,0,0,1-.72-.18.84.84,0,0,1-.38-.33.93.93,0,0,1,.07-1A1.13,1.13,0,0,1,92,7.42a2.26,2.26,0,0,1,.77-.12,2.16,2.16,0,0,1,.83.15,1.56,1.56,0,0,1,.58.41,1,1,0,0,1,.23.61h-.51a.67.67,0,0,0-.17-.36,1,1,0,0,0-.38-.26,1.81,1.81,0,0,0-.61-.1,1.48,1.48,0,0,0-.69.14.47.47,0,0,0-.24.41.36.36,0,0,0,.16.32,1.26,1.26,0,0,0,.57.16l.68.08A2.42,2.42,0,0,1,94,9a.76.76,0,0,1,.38.32A.86.86,0,0,1,94.49,9.83Z"/><path d="M94.7,7.84V7.57l.69-.14.2-.94h.31v.89h1.51v.46H95.9V9.59a1,1,0,0,0,.18.66.82.82,0,0,0,.58.19,1.45,1.45,0,0,0,.44-.07,1.48,1.48,0,0,0,.37-.2v.5a1.21,1.21,0,0,1-.39.17,1.84,1.84,0,0,1-.53.08,1.25,1.25,0,0,1-.68-.16,1,1,0,0,1-.37-.44,1.83,1.83,0,0,1-.11-.64V7.84Z"/><path d="M101.41,6.23a2.53,2.53,0,0,1,1.22.29,2.2,2.2,0,0,1,.82.81,2.65,2.65,0,0,1,0,2.41,2.13,2.13,0,0,1-.82.81,2.53,2.53,0,0,1-1.22.29H99.64V6.23Zm-1.25,4.46-.33-.36h1.6a1.74,1.74,0,0,0,.93-.23,1.59,1.59,0,0,0,.63-.63,2.1,2.1,0,0,0,0-1.87,1.59,1.59,0,0,0-.63-.63,1.74,1.74,0,0,0-.93-.23h-1.6l.33-.35Z"/><path d="M106.06,10.92a2,2,0,0,1-1-.23,1.58,1.58,0,0,1-.64-.64,1.8,1.8,0,0,1-.24-.94,2,2,0,0,1,.22-.95,1.63,1.63,0,0,1,.62-.63,1.77,1.77,0,0,1,.9-.23,1.62,1.62,0,0,1,.88.25,1.59,1.59,0,0,1,.58.69,2.41,2.41,0,0,1,.21,1h-3V8.83h2.8l-.29.2a1.69,1.69,0,0,0-.17-.67,1.22,1.22,0,0,0-.4-.44,1.16,1.16,0,0,0-.6-.15,1.28,1.28,0,0,0-.63.16,1.19,1.19,0,0,0-.43.46,1.66,1.66,0,0,0,0,1.42,1.23,1.23,0,0,0,.49.47,1.47,1.47,0,0,0,.72.17,2.12,2.12,0,0,0,.75-.14,2.4,2.4,0,0,0,.66-.39v.44a2.09,2.09,0,0,1-.68.41A2.26,2.26,0,0,1,106.06,10.92Z"/><path d="M108.27,6.11h.51v4.73h-.51Z"/><path d="M109.85,6.86a.33.33,0,0,1-.26-.11.37.37,0,0,1-.11-.27.39.39,0,0,1,.11-.27.35.35,0,0,1,.26-.1.36.36,0,0,1,.27.1.39.39,0,0,1,.11.27.37.37,0,0,1-.11.27A.33.33,0,0,1,109.85,6.86Zm-.25.51.26,0,.25,0v3.47h-.51Z"/><path d="M112.53,10.58h-.2l1.38-3.2h.54l-1.54,3.46h-.57l-1.55-3.46h.56Z"/><path d="M116.22,10.92a2,2,0,0,1-1-.23,1.58,1.58,0,0,1-.64-.64,1.8,1.8,0,0,1-.24-.94,2,2,0,0,1,.22-.95,1.57,1.57,0,0,1,.62-.63,1.77,1.77,0,0,1,.9-.23,1.62,1.62,0,0,1,.88.25,1.59,1.59,0,0,1,.58.69,2.41,2.41,0,0,1,.21,1h-3V8.83h2.8l-.3.2a1.54,1.54,0,0,0-.16-.67,1.16,1.16,0,0,0-.41-.44,1.13,1.13,0,0,0-.59-.15,1.28,1.28,0,0,0-.63.16,1.19,1.19,0,0,0-.43.46,1.66,1.66,0,0,0,0,1.42,1.27,1.27,0,0,0,.48.47,1.54,1.54,0,0,0,.73.17,2.12,2.12,0,0,0,.75-.14,2.4,2.4,0,0,0,.66-.39v.44a2.2,2.2,0,0,1-.68.41A2.26,2.26,0,0,1,116.22,10.92Z"/><path d="M118.28,7.38h.51L119,8.56v2.28h-.51V8.46Zm2.34,0v.51l-.24,0a1.32,1.32,0,0,0-.27,0,1.07,1.07,0,0,0-.59.16,1.05,1.05,0,0,0-.41.49,1.88,1.88,0,0,0-.14.74L118.83,9a2.41,2.41,0,0,1,.1-.67,1.56,1.56,0,0,1,.27-.53,1.27,1.27,0,0,1,.42-.35,1.25,1.25,0,0,1,.56-.13l.24,0Z"/><path d="M122.24,10.73l-1.47-3.35h.56l1.43,3.35Zm-.52,1.21a1.37,1.37,0,0,1-.42-.07,1.48,1.48,0,0,1-.37-.2v-.45a1.35,1.35,0,0,0,.35.19,1.23,1.23,0,0,0,.39.06.69.69,0,0,0,.41-.12.87.87,0,0,0,.29-.39l1.56-3.58h.54l-1.71,3.79a1.37,1.37,0,0,1-.27.44,1.07,1.07,0,0,1-.35.25A1.12,1.12,0,0,1,121.72,11.94Z"/><path d="M98.8,17h2.92v.48H99l.22-.18L99,19.37H98.8a1.54,1.54,0,0,1,.36-.41,1.78,1.78,0,0,1,.54-.3,1.91,1.91,0,0,1,.68-.12,1.84,1.84,0,0,1,.92.21,1.32,1.32,0,0,1,.56.56,1.55,1.55,0,0,1,.19.78,1.5,1.5,0,0,1-.22.82,1.57,1.57,0,0,1-.64.55,2.06,2.06,0,0,1-1,.21,2.36,2.36,0,0,1-1-.19,1.68,1.68,0,0,1-.65-.51,1.55,1.55,0,0,1-.31-.72h.52a1.09,1.09,0,0,0,.45.68,1.65,1.65,0,0,0,1,.25,1.45,1.45,0,0,0,.68-.14,1.07,1.07,0,0,0,.46-.37,1.09,1.09,0,0,0,.16-.58,1,1,0,0,0-.15-.56.89.89,0,0,0-.41-.38,1.42,1.42,0,0,0-.65-.14,1.69,1.69,0,0,0-1.08.36,2,2,0,0,0-.33.32H98.5Z"/><path d="M103,17h2.92v.48h-2.73l.21-.18-.23,2.08H103a1.79,1.79,0,0,1,.37-.41,1.57,1.57,0,0,1,.54-.3,2.06,2.06,0,0,1,1.6.09,1.37,1.37,0,0,1,.56.56,1.55,1.55,0,0,1,.19.78,1.51,1.51,0,0,1-.23.82,1.54,1.54,0,0,1-.63.55,2.12,2.12,0,0,1-1,.21,2.41,2.41,0,0,1-1-.19,1.76,1.76,0,0,1-.65-.51,1.54,1.54,0,0,1-.3-.72H103a1.09,1.09,0,0,0,.45.68,1.63,1.63,0,0,0,1,.25,1.48,1.48,0,0,0,.68-.14,1.1,1.1,0,0,0,.45-.37,1,1,0,0,0,.16-.58,1,1,0,0,0-.14-.56.94.94,0,0,0-.41-.38,1.46,1.46,0,0,0-.66-.14,1.89,1.89,0,0,0-.6.1,1.74,1.74,0,0,0-.47.26,1.44,1.44,0,0,0-.33.32h-.41Z"/><path d="M109.38,21.49l-1.48-3.35h.56l1.43,3.35Zm-.52,1.2a1.18,1.18,0,0,1-.43-.07,1.35,1.35,0,0,1-.37-.2V22a1.74,1.74,0,0,0,.35.19,1.25,1.25,0,0,0,.4.06.73.73,0,0,0,.41-.12.86.86,0,0,0,.28-.39l1.56-3.58h.54l-1.7,3.79a1.52,1.52,0,0,1-.28.43.94.94,0,0,1-.35.25A1.07,1.07,0,0,1,108.86,22.69Z"/><path d="M113.57,21.68a1.94,1.94,0,0,1-.95-.23,1.74,1.74,0,0,1-.65-.64,2,2,0,0,1-.23-.95,1.89,1.89,0,0,1,.22-.94,1.61,1.61,0,0,1,.61-.63,1.68,1.68,0,0,1,.9-.23,1.59,1.59,0,0,1,.88.24,1.73,1.73,0,0,1,.59.69,2.44,2.44,0,0,1,.2,1h-3v-.45h2.8l-.3.2a1.58,1.58,0,0,0-.17-.67,1.11,1.11,0,0,0-.4-.43,1.16,1.16,0,0,0-.59-.16,1.2,1.2,0,0,0-.64.17,1.14,1.14,0,0,0-.42.45,1.54,1.54,0,0,0-.15.7,1.37,1.37,0,0,0,.17.72,1.11,1.11,0,0,0,.48.48,1.54,1.54,0,0,0,.73.16,2,2,0,0,0,.75-.14,2.21,2.21,0,0,0,.66-.39v.45a2.34,2.34,0,0,1-.69.41A2.21,2.21,0,0,1,113.57,21.68Z"/><path d="M118.93,19.86a3,3,0,0,1-.37.95,2,2,0,0,1-.61.64,1.46,1.46,0,0,1-.79.23,1.48,1.48,0,0,1-.81-.23,1.66,1.66,0,0,1-.56-.64,2.21,2.21,0,0,1-.2-.95,2.13,2.13,0,0,1,.2-.94,1.56,1.56,0,0,1,.56-.63,1.4,1.4,0,0,1,.81-.23,1.38,1.38,0,0,1,.79.23,1.94,1.94,0,0,1,.61.63A2.93,2.93,0,0,1,118.93,19.86Zm-2.82,0a1.54,1.54,0,0,0,.15.7,1.16,1.16,0,0,0,.4.47,1.07,1.07,0,0,0,.59.17,1.19,1.19,0,0,0,.61-.17,1.67,1.67,0,0,0,.49-.47,2.43,2.43,0,0,0,.36-.7,2.51,2.51,0,0,0-.36-.69,1.67,1.67,0,0,0-.49-.47,1.19,1.19,0,0,0-.61-.17,1.07,1.07,0,0,0-.59.17,1.16,1.16,0,0,0-.4.47A1.52,1.52,0,0,0,116.11,19.86Zm2.62,1.74-.11-1.31.14-.43-.14-.41.11-1.31h.52l-.14,1.72.14,1.74Z"/><path d="M119.87,18.14h.51l.18,1.18V21.6h-.51V19.21Zm2.34,0v.5a1.37,1.37,0,0,0-.25-.05l-.26,0a1.06,1.06,0,0,0-1,.65,1.89,1.89,0,0,0-.14.75l-.15-.23a2.84,2.84,0,0,1,.11-.67,1.56,1.56,0,0,1,.27-.53,1.19,1.19,0,0,1,.42-.35,1.23,1.23,0,0,1,.55-.12,1,1,0,0,1,.24,0A.54.54,0,0,1,122.21,18.13Z"/><path d="M125.64,20.58a1,1,0,0,1-.18.58,1.19,1.19,0,0,1-.53.38,2.29,2.29,0,0,1-.83.14,2.4,2.4,0,0,1-.89-.16,1.38,1.38,0,0,1-.6-.44,1.1,1.1,0,0,1-.23-.66h.52a.74.74,0,0,0,.19.42,1,1,0,0,0,.42.28,1.55,1.55,0,0,0,.59.1,1.51,1.51,0,0,0,.76-.16.51.51,0,0,0,.27-.45.38.38,0,0,0-.18-.33,1.88,1.88,0,0,0-.66-.16l-.6-.07a2,2,0,0,1-.71-.18.93.93,0,0,1-.39-.33.82.82,0,0,1-.11-.44.88.88,0,0,1,.18-.57,1.14,1.14,0,0,1,.52-.35,2.26,2.26,0,0,1,.77-.12,2.1,2.1,0,0,1,.82.15,1.25,1.25,0,0,1,.58.41,1,1,0,0,1,.24.6h-.51a.68.68,0,0,0-.17-.35,1,1,0,0,0-.39-.27,1.72,1.72,0,0,0-.6-.09,1.32,1.32,0,0,0-.69.14.45.45,0,0,0-.25.41.37.37,0,0,0,.17.31,1.27,1.27,0,0,0,.56.17l.69.08a2.45,2.45,0,0,1,.74.17.85.85,0,0,1,.39.32A1,1,0,0,1,125.64,20.58Z"/><path d="M128.59,19.29l-.32,2.16-.27-.36h3.24v.51h-3.5l.34-2.31-.34-2.3h3.47v.5H128l.27-.36Zm2.5-.24v.49h-2.83v-.49Z"/><path d="M131.51,21.6l1.53-2V20l-1.44-1.87h.6l1.17,1.51h-.3l1.18-1.51h.58L133.37,20v-.44l1.55,2h-.59L133.05,20h.3l-1.26,1.64Z"/><path d="M135.32,18.14h.51v1.31l0,.11v.56l0,.17v2.32h-.51Zm.27,1.72a2.93,2.93,0,0,1,.37-.94,1.94,1.94,0,0,1,.61-.63,1.51,1.51,0,0,1,1.6,0,1.56,1.56,0,0,1,.56.63,2.13,2.13,0,0,1,.2.94,2.21,2.21,0,0,1-.2.95,1.66,1.66,0,0,1-.56.64,1.51,1.51,0,0,1-1.6,0,2,2,0,0,1-.61-.64A3,3,0,0,1,135.59,19.86Zm2.82,0a1.52,1.52,0,0,0-.15-.69,1.09,1.09,0,0,0-.4-.47,1.06,1.06,0,0,0-.58-.17,1.14,1.14,0,0,0-.61.17,1.59,1.59,0,0,0-.5.47,3.2,3.2,0,0,0-.36.69,3.06,3.06,0,0,0,.36.7,1.59,1.59,0,0,0,.5.47,1.14,1.14,0,0,0,.61.17,1.06,1.06,0,0,0,.58-.17,1.09,1.09,0,0,0,.4-.47A1.54,1.54,0,0,0,138.41,19.86Z"/><path d="M141.22,21.68a1.94,1.94,0,0,1-.95-.23,1.81,1.81,0,0,1-.65-.64,2,2,0,0,1-.23-.95,1.89,1.89,0,0,1,.22-.94,1.61,1.61,0,0,1,.61-.63,1.7,1.7,0,0,1,.9-.23,1.59,1.59,0,0,1,.88.24,1.73,1.73,0,0,1,.59.69,2.44,2.44,0,0,1,.2,1h-3v-.45h2.8l-.3.2a1.58,1.58,0,0,0-.17-.67,1.11,1.11,0,0,0-.4-.43,1.16,1.16,0,0,0-.59-.16,1.22,1.22,0,0,0-.64.17,1.14,1.14,0,0,0-.42.45,1.54,1.54,0,0,0-.15.7,1.37,1.37,0,0,0,.17.72,1.11,1.11,0,0,0,.48.48,1.54,1.54,0,0,0,.73.16,2,2,0,0,0,.75-.14,2.21,2.21,0,0,0,.66-.39v.45a2.34,2.34,0,0,1-.69.41A2.21,2.21,0,0,1,141.22,21.68Z"/><path d="M143.28,18.14h.51l.18,1.18V21.6h-.51V19.21Zm2.34,0v.5l-.25-.05-.26,0a1.11,1.11,0,0,0-.6.17,1.13,1.13,0,0,0-.4.48A1.73,1.73,0,0,0,144,20l-.15-.23a2.84,2.84,0,0,1,.11-.67,1.56,1.56,0,0,1,.27-.53,1.19,1.19,0,0,1,.42-.35,1.23,1.23,0,0,1,.55-.12,1,1,0,0,1,.24,0A.59.59,0,0,1,145.62,18.13Z"/><path d="M146.35,17.62a.36.36,0,0,1-.26-.11.39.39,0,0,1-.11-.28.38.38,0,0,1,.37-.37.37.37,0,0,1,.27.11.36.36,0,0,1,.11.26.39.39,0,0,1-.11.28A.37.37,0,0,1,146.35,17.62Zm-.25.51.26,0,.25,0V21.6h-.51Z"/><path d="M149.08,21.68a1.94,1.94,0,0,1-1-.23,1.74,1.74,0,0,1-.65-.64,1.86,1.86,0,0,1-.23-.95,1.89,1.89,0,0,1,.22-.94,1.61,1.61,0,0,1,.61-.63,1.68,1.68,0,0,1,.9-.23,1.59,1.59,0,0,1,.88.24,1.73,1.73,0,0,1,.59.69,2.61,2.61,0,0,1,.2,1h-3v-.45h2.81l-.3.2a1.58,1.58,0,0,0-.17-.67,1.11,1.11,0,0,0-.4-.43,1.16,1.16,0,0,0-.59-.16,1.2,1.2,0,0,0-.64.17,1.14,1.14,0,0,0-.42.45,1.54,1.54,0,0,0-.15.7,1.37,1.37,0,0,0,.17.72,1.11,1.11,0,0,0,.48.48,1.54,1.54,0,0,0,.73.16,2,2,0,0,0,.75-.14,2.21,2.21,0,0,0,.66-.39v.45a2.34,2.34,0,0,1-.69.41A2.21,2.21,0,0,1,149.08,21.68Z"/><path d="M151.14,18.14h.51l.18,1.17V21.6h-.51V19.23Zm2-.08a1.34,1.34,0,0,1,.74.19,1.24,1.24,0,0,1,.47.56,2.13,2.13,0,0,1,.16.88V21.6H154V19.79a1.48,1.48,0,0,0-.26-.94.91.91,0,0,0-.75-.31,1,1,0,0,0-.6.17,1.07,1.07,0,0,0-.39.47,1.61,1.61,0,0,0-.14.71l-.21-.16a2.38,2.38,0,0,1,.24-.89,1.54,1.54,0,0,1,.52-.58A1.4,1.4,0,0,1,153.11,18.06Z"/><path d="M158.57,20.28a1.65,1.65,0,0,1-.31.73,1.74,1.74,0,0,1-.61.49,1.83,1.83,0,0,1-.82.18,1.81,1.81,0,0,1-.91-.23,1.68,1.68,0,0,1-.63-.64,2.08,2.08,0,0,1-.22-.95,2,2,0,0,1,.22-.94,1.59,1.59,0,0,1,.63-.63,1.71,1.71,0,0,1,.91-.23,2,2,0,0,1,.82.17,1.64,1.64,0,0,1,.61.49,1.65,1.65,0,0,1,.31.73H158a1.12,1.12,0,0,0-.41-.68,1.34,1.34,0,0,0-.8-.25,1.26,1.26,0,0,0-.65.17,1.12,1.12,0,0,0-.43.46,1.68,1.68,0,0,0,0,1.43,1.06,1.06,0,0,0,.43.46,1.4,1.4,0,0,0,1.45-.09,1.05,1.05,0,0,0,.41-.67Z"/><path d="M160.81,21.68a2,2,0,0,1-.95-.23,1.81,1.81,0,0,1-.65-.64,2,2,0,0,1-.23-.95,1.89,1.89,0,0,1,.22-.94,1.61,1.61,0,0,1,.61-.63,1.74,1.74,0,0,1,.91-.23,1.64,1.64,0,0,1,.88.24,1.71,1.71,0,0,1,.58.69,2.44,2.44,0,0,1,.21,1h-3v-.45h2.8l-.3.2a1.58,1.58,0,0,0-.16-.67,1.12,1.12,0,0,0-1-.59,1.22,1.22,0,0,0-.64.17,1.14,1.14,0,0,0-.42.45,1.54,1.54,0,0,0-.15.7,1.47,1.47,0,0,0,.17.72,1.23,1.23,0,0,0,.48.48,1.54,1.54,0,0,0,.73.16,1.92,1.92,0,0,0,.75-.14,2,2,0,0,0,.66-.39v.45a2.42,2.42,0,0,1-.68.41A2.26,2.26,0,0,1,160.81,21.68Z"/><circle class="cls-1" cx="130.4" cy="9.3" r="1.87"/><circle class="cls-1" cx="94.7" cy="19.2" r="1.87"/><circle class="cls-1" cx="30.06" cy="18.61" r="1.87"/><circle class="cls-1" cx="80" cy="8.44" r="1.87"/><circle class="cls-1" cx="7.74" cy="8.98" r="1.87"/></g></g></svg>