<svg xmlns="http://www.w3.org/2000/svg" viewBox="0 0 112.11 22.82"><defs><style>.cls-1{fill:#f98f0e;}.cls-2{fill:#f98f0b;}</style></defs><g id="Layer_2" data-name="Layer 2"><g id="Layer_1-2" data-name="Layer 1"><path d="M34.44,8C35.5,8,36,8.41,36.16,9.4a5.16,5.16,0,0,1,0,1.92c-.18,1-.69,1.39-2,1.48a31.39,31.39,0,0,1-5.22-.08,1.37,1.37,0,0,1-1.3-.89c0-.38-.15-.72-.16-1.1s.08-.66.55-.58h.07c.53-.09.89,0,.89.67s.59.63,1,.74.65.08,1,.08a15.69,15.69,0,0,0,3.14-.11c.1,0,.2,0,.24-.14.44-.55.23-1.19.2-1.8,0-.19-.24-.27-.44-.28-.43,0-.87-.08-1.3-.09-1.16,0-2.32,0-3.49-.1s-1.74-.49-1.9-1.72c-.23-1.84.35-2.93,2.06-2.93a37.76,37.76,0,0,0,4.12,0,3.78,3.78,0,0,1,1.16.11,2,2,0,0,1,1.36,2c0,.22-.15.27-.34.27h-.69c-.36,0-.7.06-.65-.51,0-.25-.17-.48-.5-.53a26.58,26.58,0,0,0-4.37-.06c-.41,0-.58.34-.59.74s-.15,1.16.62,1.35a2.32,2.32,0,0,0,1.11,0h.14A12.92,12.92,0,0,0,34.44,8Z"/><path d="M107.09,4.46a1.74,1.74,0,0,1,2,1.38A.35.35,0,0,0,109,6c0,.82,0,.77-.81.83-.48,0-.56-.22-.64-.56a1,1,0,0,0-1-.5c-1.25,0-2.5,0-3.75,0-.52,0-.82.27-.75.83s-.23,1.09.53,1.26a8.38,8.38,0,0,0,1.87.14,14.47,14.47,0,0,0,2.55.07c.44,0,.85.2,1.29.09a1.35,1.35,0,0,1,.91,1.09,5.28,5.28,0,0,1,0,2.34,1.46,1.46,0,0,1-1.37,1.17,27.08,27.08,0,0,1-6,0,1.4,1.4,0,0,1-1.29-1c.12-.4-.15-.76-.11-1.15s.08-.43.39-.41a3.12,3.12,0,0,1,1,0c.36.16,0,.61.24.87.27.53.85.32,1.26.5,0,0-.07.06-.11.09h2.91s0,0,0,0a.19.19,0,0,1-.1-.08l.8-.11c.75-.08.85-.22.85-1.13s0-.92-.82-1a17.27,17.27,0,0,0-2.69-.06c-.75,0-1.49-.08-2.23-.14s-1.42-.79-1.52-1.85a4.22,4.22,0,0,1,.16-1.54c.28-1,1-1.3,2.36-1.23A35.39,35.39,0,0,0,107.09,4.46Z"/><path d="M81.92,9.08a18.91,18.91,0,0,0,0,2.38,2.91,2.91,0,0,0,1.1.06c1.61,0,3.21,0,4.82,0,.49,0,.53.22.53.6s-.09.55-.52.55q-3.49,0-7,0c-.4,0-.56-.13-.56-.54,0-2.31,0-4.63,0-6.94,0-.42.15-.59.58-.62,1.62-.11,3.25,0,4.88,0,.66,0,1.33,0,2,0,.44,0,.52.18.5.56s0,.59-.48.58c-1.72,0-3.44,0-5.15,0h5.09a1.06,1.06,0,0,1,.61.06c-.15.23-.38.1-.57.1q-2.66,0-5.31,0c-.41,0-.6.06-.55.53s0,1,0,1.5a2.32,2.32,0,0,0,1,.06c1.5,0,3,0,4.5,0,.48,0,.47.23.47.57s0,.59-.47.58c-1.63,0-3.25,0-4.87,0C82.33,9,82.11,8.94,81.92,9.08Z"/><path d="M39.47,7.83l6.24,0a16.92,16.92,0,0,0,.07-2.66c0-.33-.09-.68.47-.65.78,0,1,.11,1,.65,0,2.32,0,4.63,0,7,0,.45-.18.57-.6.56-1,0-.82.1-.85-.83a16.11,16.11,0,0,0-.07-2.6l-6.24,0A23.47,23.47,0,0,0,39.39,12c0,.22.17.58-.19.64A2.29,2.29,0,0,1,38,12.58c-.17-.08-.08-.35-.08-.53,0-2.26,0-4.53,0-6.79a1.94,1.94,0,0,0,0-.68,2,2,0,0,1,1.59,0A17.64,17.64,0,0,0,39.47,7.83Z"/><path d="M50.92,10.83c.1.27.38.34.58.49a5.35,5.35,0,0,0,2.25.2c.56,0,1.13,0,1.69,0a0,0,0,0,0,0,0,.14.14,0,0,0,0-.06c.48-.19,1.1,0,1.41-.61.15-.18.07-.4.07-.59,0-1.69,0-3.37,0-5.06,0-.24-.06-.57.26-.63a2.18,2.18,0,0,1,1.16,0c.13,0,.08.22.08.34,0,2,0,4,0,6,0,.23-.18.43-.1.66a2,2,0,0,1-2.05,1.21,27.05,27.05,0,0,1-5.09-.06,2.1,2.1,0,0,1-1.94-1.4c.07-2,0-4.08,0-6.12,0-.69,0-.69.66-.69h.25c.46-.07.61.09.6.57,0,1.73,0,3.46,0,5.19C50.8,10.46,50.67,10.69,50.92,10.83Z"/><path d="M60,5.81c-.25-.35-.07-.74-.11-1.12a4.88,4.88,0,0,1,1.9-.16c2.21,0,4.42,0,6.62,0,.55,0,.61.24.62.67s-.17.62-.63.6c-.87,0-1.75,0-2.62,0-.17,0-.38-.11-.51.1l0,0,0,0c-.15.19-.08.4-.08.61,0,1.87,0,3.75,0,5.62,0,.45-.08.64-.58.61-.93-.05-.8.08-.81-.8,0-1.81,0-3.63,0-5.44,0-.2.08-.42-.08-.6l0,0,0,0c-.15-.22-.38-.1-.56-.1-.87,0-1.74,0-2.6,0a.88.88,0,0,1-.43,0C60.06,5.67,60,5.68,60,5.81Z"/><path d="M58.74,15.36a.82.82,0,0,1,.88.43c.15.26.34.64,0,.8s-.75.29-.86-.32c0-.11-.19-.19-.29-.29a9.53,9.53,0,0,0-2.72,0c-.41.61-.39.86.12,1.21a10.75,10.75,0,0,0,2.47.06,1.42,1.42,0,0,1,1.38,2.28,1.23,1.23,0,0,1-1.19.56c-.91,0-1.83,0-2.75,0a1.12,1.12,0,0,1-1.16-.84c-.06-.23-.16-.56,0-.7a1,1,0,0,1,.72,0c.28.08.17.38.18.59s.08.28.21.28a12.58,12.58,0,0,0,2.94-.08c.49-1,.28-1.31-.8-1.33a11.63,11.63,0,0,1-2.36-.08,1.06,1.06,0,0,1-1-1.23c0-.84.26-1.16,1-1.31A20.31,20.31,0,0,0,58.74,15.36Z"/><path d="M48.47,19.49a1,1,0,0,1-.25-.67c0-1.12,0-2.24,0-3.36a.79.79,0,0,1,.3-.05c.46-.07.66.07.64.59,0,.86,0,1.73,0,2.6,0,.17-.11.38.12.49a9,9,0,0,0,2.83.08c.37,0,.56-.27.55-.68,0-.94,0-1.87,0-2.8,0-.11-.09-.25.07-.33.14,1,0,2,.06,2.95V15.84c0-.26,0-.44.36-.44s.39.12.39.41c0,1,0,2,0,3a1.11,1.11,0,0,1-1.07,1.09,16,16,0,0,1-3.17,0A2,2,0,0,1,48.47,19.49Z"/><path d="M109,18.08l-10.8,0-4.49,0c-.16-.42,0-.55.43-.55h14.43C109,17.53,109.14,17.66,109,18.08Z"/><path d="M40.72,18.08l-13.31,0c-.47,0-.36-.25-.33-.52a.75.75,0,0,1,.42-.05H40.23C40.63,17.53,40.91,17.58,40.72,18.08Z"/><path d="M88.32,5.7H82.07V5.57h2.31c1.1,0,2.21,0,3.31,0,.4,0,.5-.14.5-.51s-.12-.5-.51-.5H81.61c-.3,0-.61.09-.92.12s-.27.21-.27.4q0,3.54,0,7.07c0,.35.16.42.46.42h6.95c.39,0,.49-.14.49-.51s-.13-.5-.51-.5c-1.92,0-3.84,0-5.75,0a.24.24,0,0,1-.12,0,.33.33,0,0,1,0-.1c2,0,4,0,6.06,0,.59,0,.46.34.44.64s.21.72-.44.71c-2.44,0-4.88,0-7.31,0-.4,0-.49-.13-.49-.5q0-3.66,0-7.32c0-.37.1-.52.49-.52,2.42,0,4.83,0,7.25,0,.37,0,.48.12.44.47A7,7,0,0,0,88.32,5.7Z"/><path d="M45.71,9.23c.31,0,.13.24.13.35,0,.85,0,1.71,0,2.56,0,.51.31.45.62.44s.65.12.64-.41c0-2.36,0-4.72,0-7.07,0-.6-.51-.44-.83-.51s-.42.18-.42.49c0,.9,0,1.8,0,2.69,0,0,0,.05,0,.05h-.1c0-1,0-2,0-2.94,0-.33.11-.42.43-.43,1.22-.05,1.22-.06,1.22,1.15,0,2.21,0,4.41,0,6.62,0,.44-.12.57-.56.57-1.1,0-1.1,0-1.09-1.12C45.7,10.85,45.7,10,45.71,9.23Z"/><path class="cls-1" d="M18.85,21.13a5,5,0,0,1-1.43,1.55c-.28.21-.47.18-.64-.13s-.78-.87-.6-1.29.84-.09,1.28-.12S18.32,21.13,18.85,21.13Z"/><path d="M73.63,5.84c-1.08,0-2.17,0-3.25,0-.36,0-.56-.06-.49-.47a2.62,2.62,0,0,0,0-.56c0-.25,0-.38.34-.38h8.32c.32,0,.4.14.38.42a2.62,2.62,0,0,0,0,.56c0,.34-.1.43-.42.42H75.19l0-.1c.2-.29.52-.23.8-.24.69,0,1.38,0,2.06,0,.22,0,.51,0,.54-.3s-.29-.35-.52-.38a25.29,25.29,0,0,0-2.75-.05H71.2a5.42,5.42,0,0,0-.57,0c-.2,0-.36.09-.37.34s.17.36.4.37c.67,0,1.33,0,2,0,.34,0,.72-.09,1,.22Z"/><path d="M80.41,19.22c1.07,0,2.13,0,3.19,0,.35,0,.45.08.46.44s-.23.35-.47.35c-1.25,0-2.5,0-3.75,0-.35,0-.3-.17-.3-.38,0-1.31,0-2.63,0-3.94,0-.32.07-.43.4-.41s.51,0,.5.4c0,1.16,0,2.33,0,3.5-.39-.07-.31-.39-.32-.64,0-.68,0-1.37,0-2.05a1,1,0,0,0-.14-.7,1.35,1.35,0,0,0-.1.73c0,.84,0,1.67,0,2.5,0,.42.17.6.59.59,1,0,2,0,2.93-.06-.75-.07-1.51,0-2.27-.07C80.86,19.52,80.5,19.64,80.41,19.22Z"/><path d="M62.72,16.12c-.64,0-1.29,0-1.93,0-.29,0-.39-.07-.39-.38s.11-.37.4-.37q2.4,0,4.8,0c.32,0,.43.07.43.41s-.19.33-.43.33l-1.93,0-.06-.07c.22-.36.59-.23.9-.26s.49,0,.74,0H61.17c.56.07,1.09-.12,1.57.17A.12.12,0,0,1,62.72,16.12Z"/><path d="M48.47,19.49c1.22.62,2.53.32,3.8.34.81,0,1.21-.46,1.21-1.26s0-1.63,0-2.44c0-.25.18-.66-.32-.65s-.28.39-.29.62a25.13,25.13,0,0,1-.13,2.74V15.36l.12,0c.8,0,.8,0,.8.75s0,1.78,0,2.68A1.18,1.18,0,0,1,52.56,20a14.44,14.44,0,0,1-3.35,0A.89.89,0,0,1,48.47,19.49Z"/><path d="M109,18.08c0-.38-.11-.49-.5-.49q-7.14,0-14.3,0c-.38,0-.55.11-.49.49-.27-.5-.23-.6.27-.6h14.71C109.25,17.47,109.19,17.72,109,18.08Z"/><path d="M65.27,5.87c.12-.26.35-.17.55-.17.87,0,1.75,0,2.62,0,.5,0,.45-.28.46-.6s-.07-.54-.48-.53c-2.2,0-4.41,0-6.62,0-.63,0-1.27.07-1.91.09,0-.31.29-.24.48-.24,2.76,0,5.53,0,8.29,0,.41,0,.48.16.48.52,0,.88,0,.88-.88.89Z"/><path d="M58.34,11.57c0-1.08,0-2.17,0-3.26s0-2.12,0-3.18c0-.51-.2-.58-.63-.57s-.78,0-.77.6c0,1.73,0,3.45,0,5.18,0,.16,0,.32,0,.48l0,0s0,0-.06,0c0-1.94,0-3.87,0-5.81,0-.45.14-.57.57-.57,1.11,0,1.11,0,1.11,1.1,0,1.69,0,3.38,0,5.07A1.75,1.75,0,0,1,58.34,11.57Z"/><path d="M63.74,5.82c.22.18.13.42.13.64,0,1.85,0,3.71,0,5.56,0,.48.15.6.61.59s.68,0,.67-.59c0-1.85,0-3.71,0-5.56,0-.21-.08-.46.14-.64,0,2.1,0,4.21,0,6.31,0,.54-.17.7-.66.62a.81.81,0,0,0-.31,0c-.45.07-.61-.07-.6-.56C63.75,10.07,63.74,7.94,63.74,5.82Z"/><path d="M75.19,5.85c0,2.1,0,4.2,0,6.3,0,.52-.16.66-.63.59a1.61,1.61,0,0,0-.38,0c-.43.07-.55-.09-.55-.54,0-2.12,0-4.24,0-6.36h0c.43.16.31.54.31.84,0,1.58,0,3.17,0,4.75A4.29,4.29,0,0,0,74,12a.35.35,0,0,0,.4.31A.34.34,0,0,0,74.8,12a4.29,4.29,0,0,0,0-.62c0-1.59,0-3.17,0-4.75,0-.3-.12-.69.31-.84Z"/><path d="M50.92,10.83c-.29-.13-.18-.4-.18-.61,0-1.69,0-3.38,0-5.06,0-.62-.31-.59-.74-.6s-.68,0-.67.59c0,1.86,0,3.71,0,5.57,0,.2.07.42-.09.6a37.71,37.71,0,0,1-.07-4c0-.65,0-1.29,0-1.94,0-1,0-.9.93-1,.65,0,.78.18.76.79,0,1.62,0,3.24,0,4.87C50.86,10.33,50.9,10.58,50.92,10.83Z"/><path d="M40.72,18.08c.08-.53-.28-.49-.63-.49-4.34,0-8.67,0-13,0,.06-.22.24-.11.36-.11h13C41,17.47,40.92,17.72,40.72,18.08Z"/><path d="M81.92,9.08A.91.91,0,0,1,82.43,9C84,9,85.65,9,87.26,9c.37,0,.56-.06.56-.5s-.18-.52-.56-.51H82.44c-.17,0-.4.12-.52-.12,1.85,0,3.71,0,5.56,0,.8,0,.37.55.47.86s-.19.4-.47.4Z"/><path d="M37.85,4.58c.19.19.1.44.1.66,0,2.25,0,4.5,0,6.76,0,.6.27.59.72.61s.73-.07.69-.64c-.05-.73,0-1.46,0-2.19,0-.19-.09-.42.13-.57,0,1,0,2,0,3,0,.43-.1.57-.55.56-1.1,0-1.1,0-1.1-1.07Z"/><path d="M85.65,20.08h-.82c-.17-.18-.09-.4-.08-.59,0-1.38-.1-2.76.06-4.14h.86a23.55,23.55,0,0,1,.06,3.14A4.26,4.26,0,0,1,85.65,20.08Z"/><path d="M63.67,16.12c0,1.17,0,2.34,0,3.51,0,.42-.15.45-.5.46s-.5-.07-.49-.47c0-1.16,0-2.33,0-3.5l0,0c.37.09.3.41.3.65,0,.68,0,1.37,0,2.05a.89.89,0,0,0,.14.69,7.41,7.41,0,0,0,.09-1.81c0-.35,0-.7,0-1.05s0-.48.3-.53Z"/><path d="M108.34,8.1c-.44.3-.87-.06-1.32,0-1.45.11-2.9-.12-4.35-.11-.21,0-.34,0,0-.16l4.11.12A6.14,6.14,0,0,1,108.34,8.1Z"/><path d="M97.32,12.48V10.62h.13c0,.51,0,1,0,1.54,0,.77.65.34,1,.42s.28-.21.28-.46a6.6,6.6,0,0,1,.08-2l0,.36c.14.58,0,1.18.09,1.77s0,.6-.43.55a6.32,6.32,0,0,0-.87,0C97.43,12.76,97.31,12.7,97.32,12.48Z"/><path d="M28.94,10.82s0,0,0,.06-.09.11-.11,0c-.08-.28.16-.69-.43-.71-.81,0-.83,0-.84.8,0,.28.26.54,0,.83a2,2,0,0,1-.17-.53c-.23-1.2.14-1.55,1.34-1.21C29.22,10.21,28.86,10.58,28.94,10.82Z"/><path d="M91.69,10A.27.27,0,0,1,92,9.84h4.56l0,0s0,.07,0,.1Z"/><path d="M34.32,11.39a1.13,1.13,0,0,1-1,.3c-1.22,0-2.44,0-3.72,0,0,0,0-.14.09-.1s.15,0,.23,0A30.09,30.09,0,0,0,34.32,11.39Z"/><path d="M84.81,15.35l0,4.73c-.17,0-.16-.17-.16-.29V15.66C84.67,15.54,84.66,15.41,84.81,15.35Z"/><path d="M85.65,20.08l0-4.73a.26.26,0,0,1,.12.26v4.22A.24.24,0,0,1,85.65,20.08Z"/><path d="M49.29,19.09c-.26-.11-.18-.34-.18-.53,0-.75,0-1.49,0-2.23,0-1.06,0-.82-.86-.87.76-.33,1-.21,1,.54A29,29,0,0,0,49.29,19.09Z"/><path d="M55.45,11.43l.28.1a22.54,22.54,0,0,1-4.19-.07l0,0a.45.45,0,0,1,0-.11A23.68,23.68,0,0,0,55.45,11.43Z"/><path d="M60,5.81V5c-.07.83.48.77,1,.75.73,0,1.46,0,2.18,0,.2,0,.43-.09.55.17Z"/><path d="M102.11,11.06c-.2.08-.13-.08-.15-.16s.14-.57-.17-.65a2.07,2.07,0,0,0-1.05,0c-.3.11-.16.48-.12.73s.18.47,0,.71a2.21,2.21,0,0,0-.05-.25c-.31-1.33-.26-1.38,1.06-1.38.4,0,.51.13.46.49A2.83,2.83,0,0,0,102.11,11.06Z"/><path d="M34.44,8a10,10,0,0,1-2.56.11,1.23,1.23,0,0,1-1.06-.22Z"/><path d="M33.57,4.46c-.3.22-.65.12-1,.11a17.44,17.44,0,0,1-3.15-.1Z"/><path d="M107.09,4.46a9.33,9.33,0,0,1-2.53.1,3.43,3.43,0,0,1-1.59-.1Z"/><path d="M106.06,11.56l.54.09v0h-3.76c.17-.16.38,0,.54-.13Z"/><path d="M58.74,19.31c-.05.15-.17.17-.3.17H56c-.2,0-.5,0-.36-.36a.44.44,0,0,0,.46.24Z"/><path d="M107.59,6.22c.26.07.09.47.54.52.79.08.86-.37.94-.9.15,1,.15,1-.85,1C107.71,6.87,107.5,6.73,107.59,6.22Z"/><path d="M43,19.11a7.38,7.38,0,0,1,3.24,0Z"/><path d="M74,19.15a.24.24,0,0,1,.23-.16h3s0,0,0,0a.34.34,0,0,1,0,.1Z"/><path d="M87.94,19.15a.27.27,0,0,1,.24-.17H91a.28.28,0,0,1,.29.19C90.19,19.09,89.06,19.12,87.94,19.15Z"/><path d="M39.47,7.83c-.26-.26-.13-.59-.12-.88a9.4,9.4,0,0,1,.09-2.37Z"/><path d="M58.74,15.36a9.61,9.61,0,0,1-3.12,0A20.31,20.31,0,0,1,58.74,15.36Z"/><path d="M55.77,16v-.11a22.61,22.61,0,0,1,2.73,0s0,0,0,0,0,0,0,.06Z"/><path d="M58.36,17.26a9.8,9.8,0,0,1-2.48,0s0,0,0,0l0-.06Z"/><path d="M98.93,12.22a4.8,4.8,0,0,1-.09-1.77A5.84,5.84,0,0,1,98.93,12.22Z"/><path d="M30.68,7.85c-.38.21-.79.06-1.19.1l0,0,.12-.09Z"/><path class="cls-2" d="M22.29,8.86A20.25,20.25,0,0,0,16.36.23C15.88-.2,15.5.06,15.1.32A5.06,5.06,0,0,0,13.52,2.5a1.16,1.16,0,0,1-1.86.5,19.33,19.33,0,0,1-2-1.55,1.71,1.71,0,0,0-2.36-.2A17.12,17.12,0,0,0,1.07,8,8.57,8.57,0,0,0,0,11.62,8.68,8.68,0,0,0,2.86,18a.81.81,0,0,0,1.24.09,6.43,6.43,0,0,1,.9-.56,9.87,9.87,0,0,1,4.69-1.69,7,7,0,0,1,5.44,2.31,2.56,2.56,0,0,0,2.63,1,3.75,3.75,0,0,1,.75,0,1.43,1.43,0,0,0,1.56-.83A19.45,19.45,0,0,0,21.86,15,9.05,9.05,0,0,0,22.29,8.86Zm-1.22,2.39a10.44,10.44,0,0,1-2.87,6.52.59.59,0,0,1-.93,0l-1.7-1.47c-2.92-2.49-6.11-2.71-9.51-1.13-.58.27-1.15.58-1.7.9a.68.68,0,0,1-1-.16,6.07,6.07,0,0,1-.84-7.3A16,16,0,0,1,7.49,3c.93-.64,1-.63,1.9.07.38.32.75.65,1.15,1a2.7,2.7,0,0,0,4.35-1c.7-1.39.72-1.4,1.78-.29a17,17,0,0,1,4,5.9A6.38,6.38,0,0,1,21.07,11.25Z"/><path d="M91.69,8.56l4.58,0c.5,0,.9-.17,1-.75.24-.34,0-.73.19-1.09a4.18,4.18,0,0,1,0,1.27.85.85,0,0,1-.85.69c-1.51,0-3,0-4.51,0C91.88,8.7,91.76,8.69,91.69,8.56Z"/><path d="M98.94,7.56c.08-1.22-.15-2.49-1.24-2.83-.27.23-.51,0-.77,0q-3.08,0-6.13,0c-.4,0-.49.16-.49.52,0,2.3,0,4.59,0,6.88,0,.53.28.5.63.5s.67,0,.63-.51,0-1,0-1.56c0-.19-.08-.43.16-.56h0a5.34,5.34,0,0,1,1.69-.07,22.23,22.23,0,0,1,3.16.06c.55.16.68.54.66,1.08a2.82,2.82,0,0,0,.09,1.44,1.47,1.47,0,0,0,.07-.46c0,.74.15.72,1.14.63.27,0,.35-.09.33-.38,0-.72,0-1.45,0-2.18s-.66-.67-1.14-.94A1.6,1.6,0,0,0,98.94,7.56Zm-2.31,1a38.47,38.47,0,0,1-4.92,0v0l0,0h0a9.84,9.84,0,0,1,0-2.71h0l0,0h0A.36.36,0,0,1,92,5.7h4.32a.13.13,0,0,1,.1,0s0,.07,0,.1A.93.93,0,0,1,97.21,7a5.48,5.48,0,0,0,0,.81A.58.58,0,0,1,96.63,8.6Zm.76,2.4v.69A4,4,0,0,1,97.39,11Z"/><path d="M91.71,5.82V8.58A5.38,5.38,0,0,1,91.71,5.82Z"/><path d="M90.57,15.9a.9.9,0,0,0-.94-.58,1,1,0,0,0-1,.62c-.71,1.37-1.49,2.7-2.25,4.07,1.29.1,1,.21,1.55-.86,0-.09.1-.11.19-.11h2.94c.1,0,.21,0,.24.13.49,1,.49,1,1.51.81C92.07,18.61,91.31,17.26,90.57,15.9ZM88.4,18.36l1.23-2.28,1.21,2.28Z"/><path d="M45.5,15.91a.94.94,0,0,0-1-.59,1,1,0,0,0-1,.6c-.73,1.37-1.5,2.74-2.25,4.11a1.09,1.09,0,0,0,1.53-.77c0-.06.07-.1.11-.15a11,11,0,0,1,2.29-.06c.31,0,.65-.12.95.09.5,1,.5,1,1.55.84C47,18.61,46.23,17.27,45.5,15.91Zm-2.16,2.46,1.23-2.29c.42.78.81,1.49,1.23,2.29Z"/><path d="M78.56,19.45c-.68-1.26-1.37-2.51-2.07-3.76-.22-.4-1.34-.53-1.55-.15-.83,1.47-1.63,3-2.45,4.47,1.06.15,1.06.15,1.55-.86a11.27,11.27,0,0,1,3.23,0,6.22,6.22,0,0,0,.43.76c.27.37.72.23,1,.14S78.66,19.63,78.56,19.45Zm-4.1-1.08,1.23-2.29,1.23,2.29Z"/><path d="M71.24,18.16a1.6,1.6,0,0,0,.55-2.09,2.8,2.8,0,0,0-2.14-.47c-.79,0-1.58,0-2.37,0-.36,0-.53.09-.52.49,0,1.1,0,2.2,0,3.3,0,.23,0,.48.33.47s.28-.24.29-.45l0-.79,0,0,.06,0,2,0c.4,0,.83-.14,1.17.07s.15.71.19,1.08.26.36.49.31.53.21.53-.19C71.9,19.23,72.17,18.46,71.24,18.16Zm-.74-.33a10.26,10.26,0,0,1-3,0c0-.43,0-.87,0-1.31s.11-.41.42-.4c.71,0,1.42,0,2.12,0,.31,0,.78-.09.81.35S71.16,17.53,70.5,17.83Z"/><path d="M67.52,17.81l3,0c0,.06,0,.14,0,.14-.92,0-1.84,0-2.75,0C67.64,18,67.58,17.86,67.52,17.81Z"/><path d="M110.19.81a2,2,0,0,0-2,2,1.92,1.92,0,0,0,2,2,1.94,1.94,0,0,0,2-2A1.93,1.93,0,0,0,110.19.81Zm0,3.58a1.53,1.53,0,0,1-1.56-1.59,1.57,1.57,0,1,1,3.13,0A1.61,1.61,0,0,1,110.15,4.39Z"/><path d="M75.15,5.83C75,6,75,6.26,75,6.48c0,1.85,0,3.71,0,5.56,0,.53-.24.56-.64.56s-.65,0-.64-.56c0-1.85,0-3.71,0-5.56,0-.22.09-.47-.11-.65s-.38-.13-.58-.13c-.86,0-1.71,0-2.56,0-.46,0-.51-.2-.5-.56s0-.59.5-.57c2.55.07,5.11-.1,7.67.08.35,0,.62-.12.61.43s-.13.65-.63.63c-.81,0-1.63,0-2.44,0C75.54,5.7,75.31,5.63,75.15,5.83Z"/><path d="M80.41,19.22c.16.21.38.13.58.13h2.5c.17,0,.4-.05.42.24s-.2.26-.39.26H80.09c-.33,0-.43-.12-.43-.44,0-1.16,0-2.33,0-3.49,0-.24,0-.48.33-.46s.29.29.29.5c0,.89,0,1.79,0,2.68,0,.2-.08.43.13.58Z"/><path d="M63.63,16.1a5.07,5.07,0,0,0-.12,1.78c0,.51,0,1,0,1.56,0,.22,0,.42-.31.42s-.32-.2-.32-.42V16.56c0-.16,0-.34-.12-.46-.52-.3-1.09-.06-1.64-.14-.16,0-.45.09-.44-.18s.28-.18.45-.18h4.24c.17,0,.45-.09.46.17s-.27.17-.44.19C64.81,16,64.2,15.81,63.63,16.1Z"/><path d="M85.55,17.72v1.75c0,.2,0,.37-.28.39s-.35-.14-.35-.39c0-1.2,0-2.41,0-3.62,0-.19,0-.37.28-.38s.35.14.35.38C85.55,16.48,85.55,17.1,85.55,17.72Z"/><path d="M111,3.4c0-.17-.45-.22-.14-.48a.62.62,0,0,0,.13-.8c-.13-.31-.44-.25-.7-.24-1.06,0-1.06,0-1.06,1a5.23,5.23,0,0,0,0,.56c0,.16-.1.41.22.4s.16-.24.18-.37-.05-.28.13-.3.41-.11.57.09a2.71,2.71,0,0,1,.28.41.29.29,0,0,0,.43.11C111.22,3.64,111,3.52,111,3.4Zm-.93-.6c-.24,0-.45.05-.44-.33s.36-.2.53-.28.54-.08.52.27S110.33,2.81,110.05,2.8Z"/></g></g></svg>