<svg xmlns="http://www.w3.org/2000/svg" xmlns:xlink="http://www.w3.org/1999/xlink" viewBox="0 0 192.34 31.79"><defs><style>.cls-1{fill:url(#linear-gradient);}.cls-2{fill:#212626;}.cls-3{fill:#fff;}</style><linearGradient id="linear-gradient" y1="15.9" x2="192.34" y2="15.9" gradientUnits="userSpaceOnUse"><stop offset="0" stop-color="#fbdd55"/><stop offset="1" stop-color="#f79252"/></linearGradient></defs><g id="Layer_2" data-name="Layer 2"><g id="Layer_1-2" data-name="Layer 1"><rect class="cls-1" width="192.34" height="31.79" rx="15.9"/><rect class="cls-2" x="163.73" y="3.18" width="25.43" height="25.43" rx="12.72"/><path class="cls-2" d="M17.12,21.91V10.25h9v1.63H19v3.25h6.4v1.63H19v3.52h7.25v1.63Z"/><path class="cls-2" d="M27.4,21.91l3.2-4.59-3-4.35h2.14l2,3h.11l2-3h2l-3,4.3L36,21.91H33.86l-2.17-3.28H31.6l-2.17,3.28Z"/><path class="cls-2" d="M37.33,24.85V13h1.45l.15,1.22h.12a2.93,2.93,0,0,1,1.17-1.07,3.51,3.51,0,0,1,1.6-.35,3.48,3.48,0,0,1,1.89.49,3.11,3.11,0,0,1,1.22,1.53,7.21,7.21,0,0,1,.42,2.68,6.82,6.82,0,0,1-.43,2.63,3.14,3.14,0,0,1-1.22,1.52,3.28,3.28,0,0,1-1.8.49A4.31,4.31,0,0,1,40.8,22a2.72,2.72,0,0,1-1.6-1.16h-.1v4Zm4-4.27a2.37,2.37,0,0,0,1.29-.31,1.87,1.87,0,0,0,.73-1,5.3,5.3,0,0,0,.22-1.68V17.3a5.21,5.21,0,0,0-.23-1.73,1.8,1.8,0,0,0-.73-1,2.3,2.3,0,0,0-1.24-.31,2.18,2.18,0,0,0-1.28.35,2,2,0,0,0-.72,1,5.25,5.25,0,0,0-.23,1.65v.24a5.46,5.46,0,0,0,.15,1.37,2.62,2.62,0,0,0,.44.95,1.79,1.79,0,0,0,.7.53A2.19,2.19,0,0,0,41.29,20.58Z"/><path class="cls-2" d="M47.17,21.91V9.62h1.77V21.91Z"/><path class="cls-2" d="M55,22.11a5,5,0,0,1-2.36-.5,3.14,3.14,0,0,1-1.44-1.54,6.11,6.11,0,0,1-.49-2.63,6.07,6.07,0,0,1,.49-2.64,3.16,3.16,0,0,1,1.44-1.53,5.84,5.84,0,0,1,4.73,0,3.16,3.16,0,0,1,1.44,1.53,6.22,6.22,0,0,1,.49,2.64,6.27,6.27,0,0,1-.49,2.63,3.14,3.14,0,0,1-1.44,1.54A5,5,0,0,1,55,22.11Zm0-1.46a2.65,2.65,0,0,0,1.39-.33,2,2,0,0,0,.81-1,4.94,4.94,0,0,0,.26-1.72v-.3a4.94,4.94,0,0,0-.26-1.72,2,2,0,0,0-.81-1A2.65,2.65,0,0,0,55,14.23a2.61,2.61,0,0,0-1.38.33,2,2,0,0,0-.81,1,4.72,4.72,0,0,0-.26,1.72v.3a4.72,4.72,0,0,0,.26,1.72,2,2,0,0,0,.81,1A2.61,2.61,0,0,0,55,20.65Z"/><path class="cls-2" d="M61.13,21.91V13h1.46l.15,1.44h.1a4.6,4.6,0,0,1,.4-.8,2.11,2.11,0,0,1,.65-.61,1.85,1.85,0,0,1,1-.23,1.77,1.77,0,0,1,.48.05l.33.08v1.67h-.59a2.35,2.35,0,0,0-1,.17,1.77,1.77,0,0,0-.7.5,2.07,2.07,0,0,0-.41.81,4.29,4.29,0,0,0-.13,1.07v4.79Z"/><path class="cls-2" d="M70.54,22.11a4.74,4.74,0,0,1-2.3-.5,3.15,3.15,0,0,1-1.4-1.54,6.28,6.28,0,0,1-.48-2.63,6.23,6.23,0,0,1,.48-2.64,3.19,3.19,0,0,1,1.41-1.53,4.81,4.81,0,0,1,2.33-.5,4.3,4.3,0,0,1,2.13.48A3,3,0,0,1,74,14.72a6,6,0,0,1,.44,2.48v.68H68.18a4.65,4.65,0,0,0,.29,1.59,1.82,1.82,0,0,0,.77.94,2.74,2.74,0,0,0,1.32.29,3.09,3.09,0,0,0,.89-.12,1.79,1.79,0,0,0,.66-.38,1.67,1.67,0,0,0,.42-.59,1.86,1.86,0,0,0,.16-.79h1.73a3.48,3.48,0,0,1-.27,1.41,2.85,2.85,0,0,1-.79,1,3.72,3.72,0,0,1-1.24.63A5.2,5.2,0,0,1,70.54,22.11Zm-2.32-5.52H72.6a3.9,3.9,0,0,0-.14-1.11,2,2,0,0,0-.42-.74,1.56,1.56,0,0,0-.65-.42,2.71,2.71,0,0,0-.85-.13,2.64,2.64,0,0,0-1.21.26,1.69,1.69,0,0,0-.77.79A3.43,3.43,0,0,0,68.22,16.59Z"/><path class="cls-2" d="M85,22.11a6.7,6.7,0,0,1-3-.63,4.32,4.32,0,0,1-1.91-2,7.78,7.78,0,0,1-.66-3.42,6.2,6.2,0,0,1,1.48-4.55A5.62,5.62,0,0,1,85,10.05a6.67,6.67,0,0,1,2.63.49A4.06,4.06,0,0,1,89.5,12a4.28,4.28,0,0,1,.68,2.49H88.24a3,3,0,0,0-.39-1.57A2.5,2.5,0,0,0,86.73,12a4.15,4.15,0,0,0-1.67-.32,4,4,0,0,0-2,.47,3,3,0,0,0-1.25,1.4,6,6,0,0,0-.41,2.38v.37a6,6,0,0,0,.41,2.38A2.82,2.82,0,0,0,83,20.05a4.11,4.11,0,0,0,2,.45,4.33,4.33,0,0,0,1.72-.32,2.49,2.49,0,0,0,1.13-.94,2.91,2.91,0,0,0,.4-1.56h1.87a4.34,4.34,0,0,1-.68,2.5,4,4,0,0,1-1.83,1.46A7.1,7.1,0,0,1,85,22.11Z"/><path class="cls-2" d="M95.87,22.11a5,5,0,0,1-2.35-.5,3.16,3.16,0,0,1-1.45-1.54,6.28,6.28,0,0,1-.48-2.63,6.23,6.23,0,0,1,.48-2.64,3.18,3.18,0,0,1,1.45-1.53,5,5,0,0,1,2.35-.5,5,5,0,0,1,2.38.5,3.25,3.25,0,0,1,1.44,1.53,6.23,6.23,0,0,1,.48,2.64,6.28,6.28,0,0,1-.48,2.63,3.23,3.23,0,0,1-1.44,1.54A5,5,0,0,1,95.87,22.11Zm0-1.46a2.62,2.62,0,0,0,1.39-.33,1.92,1.92,0,0,0,.81-1,4.72,4.72,0,0,0,.26-1.72v-.3a4.72,4.72,0,0,0-.26-1.72,1.92,1.92,0,0,0-.81-1,3.07,3.07,0,0,0-2.77,0,2,2,0,0,0-.8,1,4.7,4.7,0,0,0-.27,1.72v.3a4.7,4.7,0,0,0,.27,1.72,2,2,0,0,0,.8,1A2.64,2.64,0,0,0,95.87,20.65Z"/><path class="cls-2" d="M102,21.91V9.62h1.77V21.91Z"/><path class="cls-2" d="M106,21.91V9.62h1.76V21.91Z"/><path class="cls-2" d="M113.77,22.11a4.76,4.76,0,0,1-2.31-.5,3.2,3.2,0,0,1-1.4-1.54,6.29,6.29,0,0,1-.47-2.63,6.24,6.24,0,0,1,.47-2.64,3.19,3.19,0,0,1,1.41-1.53,4.84,4.84,0,0,1,2.33-.5,4.37,4.37,0,0,1,2.14.48,3.08,3.08,0,0,1,1.3,1.47,6.15,6.15,0,0,1,.44,2.48v.68H111.4a4.91,4.91,0,0,0,.29,1.59,1.79,1.79,0,0,0,.78.94,2.67,2.67,0,0,0,1.31.29,3,3,0,0,0,.89-.12,1.79,1.79,0,0,0,.66-.38,1.83,1.83,0,0,0,.43-.59,2,2,0,0,0,.15-.79h1.73a3.48,3.48,0,0,1-.27,1.41,2.74,2.74,0,0,1-.79,1,3.67,3.67,0,0,1-1.23.63A5.25,5.25,0,0,1,113.77,22.11Zm-2.33-5.52h4.38a3.57,3.57,0,0,0-.14-1.11,1.84,1.84,0,0,0-.42-.74,1.52,1.52,0,0,0-.64-.42,2.81,2.81,0,0,0-.85-.13,2.68,2.68,0,0,0-1.22.26,1.73,1.73,0,0,0-.77.79A3.61,3.61,0,0,0,111.44,16.59Z"/><path class="cls-2" d="M123,22.11a4.5,4.5,0,0,1-2.24-.5,3.06,3.06,0,0,1-1.35-1.54,6.64,6.64,0,0,1-.45-2.63,6.43,6.43,0,0,1,.46-2.63,3.21,3.21,0,0,1,1.36-1.54,4.53,4.53,0,0,1,2.24-.5,5.16,5.16,0,0,1,1.6.22,3.14,3.14,0,0,1,1.15.68,2.72,2.72,0,0,1,.71,1.12,4.65,4.65,0,0,1,.23,1.51H125a3,3,0,0,0-.2-1.17,1.42,1.42,0,0,0-.63-.69,2.33,2.33,0,0,0-1.1-.23,2.12,2.12,0,0,0-1.21.33,2,2,0,0,0-.75,1,5.09,5.09,0,0,0-.25,1.76v.29a5.34,5.34,0,0,0,.24,1.73,2,2,0,0,0,.75,1,2.27,2.27,0,0,0,1.28.33,2.08,2.08,0,0,0,1.1-.25,1.51,1.51,0,0,0,.63-.71,2.75,2.75,0,0,0,.21-1.13h1.72a4.35,4.35,0,0,1-.23,1.44,3,3,0,0,1-.7,1.12,3.17,3.17,0,0,1-1.16.72A4.75,4.75,0,0,1,123,22.11Z"/><path class="cls-2" d="M130.75,22.11a2.17,2.17,0,0,1-1.2-.29,1.63,1.63,0,0,1-.61-.77,2.72,2.72,0,0,1-.18-1V14.43h-1.12V13h1.15l.33-2.5h1.41V13h1.61v1.46h-1.61v5.42a.89.89,0,0,0,.17.6.7.7,0,0,0,.56.2h.88v1.19a2.49,2.49,0,0,1-.41.13l-.51.1A2.63,2.63,0,0,1,130.75,22.11Z"/><path class="cls-2" d="M133.71,11.42V9.62h1.76v1.8Zm0,10.49V13h1.76v8.94Z"/><path class="cls-2" d="M141.56,22.11a5,5,0,0,1-2.36-.5,3.14,3.14,0,0,1-1.44-1.54,6.28,6.28,0,0,1-.48-2.63,6.23,6.23,0,0,1,.48-2.64,3.16,3.16,0,0,1,1.44-1.53,5.87,5.87,0,0,1,4.74,0,3.18,3.18,0,0,1,1.43,1.53,6.07,6.07,0,0,1,.49,2.64,6.11,6.11,0,0,1-.49,2.63,3.16,3.16,0,0,1-1.43,1.54A5,5,0,0,1,141.56,22.11Zm0-1.46a2.65,2.65,0,0,0,1.39-.33,2,2,0,0,0,.81-1,4.72,4.72,0,0,0,.26-1.72v-.3a4.72,4.72,0,0,0-.26-1.72,2,2,0,0,0-.81-1,2.65,2.65,0,0,0-1.39-.33,2.61,2.61,0,0,0-1.38.33,2,2,0,0,0-.81,1,4.94,4.94,0,0,0-.26,1.72v.3a4.94,4.94,0,0,0,.26,1.72,2,2,0,0,0,.81,1A2.61,2.61,0,0,0,141.56,20.65Z"/><path class="cls-2" d="M147.66,21.91V13h1.46l.16,1.27h.12a2.81,2.81,0,0,1,.76-.81,3.36,3.36,0,0,1,1-.5,4,4,0,0,1,1.18-.16,3.51,3.51,0,0,1,1.49.29,2.25,2.25,0,0,1,1,1,3.76,3.76,0,0,1,.36,1.79v6.1h-1.77V16.08a2.6,2.6,0,0,0-.12-.85,1.27,1.27,0,0,0-.37-.54,1.31,1.31,0,0,0-.56-.29,2.65,2.65,0,0,0-.71-.09,2.16,2.16,0,0,0-1.12.3,2.25,2.25,0,0,0-.8.82,2.4,2.4,0,0,0-.31,1.24v5.24Z"/><path class="cls-3" d="M172.75,20.72a.75.75,0,0,1-.54-.22.77.77,0,0,1,0-1.09l6.34-6.34h-5a.76.76,0,1,1,0-1.52h6.89a.93.93,0,0,1,.29,0,1.14,1.14,0,0,1,.23.15h0l0,0a.74.74,0,0,1,.14.22.72.72,0,0,1,.06.29h0v6.88a.77.77,0,1,1-1.53,0v-5l-6.34,6.34A.75.75,0,0,1,172.75,20.72Z"/></g></g></svg>