<svg xmlns="http://www.w3.org/2000/svg" viewBox="0 0 132.22 25.34"><defs><style>.cls-1{fill:#80d5ff;}.cls-2{fill:#b3e860;}.cls-3{fill:#02387d;}.cls-4{fill:#02377d;}.cls-5{fill:#03387e;}.cls-6{fill:#02387e;}.cls-7{fill:#03397e;}.cls-8{fill:#04397e;}.cls-9{fill:#01377d;}.cls-10{fill:#083b7f;}.cls-11{fill:#fff;}</style></defs><g id="Layer_2" data-name="Layer 2"><g id="Layer_1-2" data-name="Layer 1"><path class="cls-1" d="M11.48,11.09V.38c0-.07,0-.1.11-.11h4.08c.09,0,.12,0,.13.12v17.1c0,.42,0,.4-.38.4H11.74c-.25,0-.25,0-.39-.22L8.9,14l-2-3c-.67-1-1.35-2-2-3.07-.16-.23-.31-.46-.46-.69l-.07-.09h0l0,0a2.26,2.26,0,0,0,0,.26V17.53c0,.38,0,.36-.35.36H.31c-.32,0-.31,0-.31-.31V.59C0,.26,0,.27.31.27H4.16a.22.22,0,0,1,.23.12l.18.26L6,2.77C6.88,4.18,7.81,5.58,8.73,7L10,8.93c.42.65.84,1.29,1.27,1.93A.71.71,0,0,0,11.48,11.09Z"/><path class="cls-2" d="M39,6.37V.67c0-.37,0-.34.34-.34h1.31a.1.1,0,0,1,.09.1V.71q0,5.34,0,10.66A7.51,7.51,0,0,0,41,13.26a4.43,4.43,0,0,0,.52,1.3,3.77,3.77,0,0,0,2,1.62,5,5,0,0,0,1.57.29c.24,0,.49,0,.74,0a4.58,4.58,0,0,0,2.36-.73,3.6,3.6,0,0,0,1.34-1.6A5.94,5.94,0,0,0,50,12.47c0-.4,0-.8.06-1.2V.7c0-.41-.05-.37.36-.37h1.26c.12,0,.13,0,.14.16v11a8.83,8.83,0,0,1-.29,2.34,5.41,5.41,0,0,1-1.56,2.64,5.91,5.91,0,0,1-2.64,1.39A7.15,7.15,0,0,1,46,18c-.21,0-.43,0-.65,0a7.4,7.4,0,0,1-2.83-.56A5.46,5.46,0,0,1,39.78,15a6.36,6.36,0,0,1-.56-1.64A9.21,9.21,0,0,1,39,11.42C39,9.74,39,8.05,39,6.37Z"/><path class="cls-2" d="M112.07,6.38c.1-.14.19-.3.29-.44a4.6,4.6,0,0,1,2.25-1.68,5.77,5.77,0,0,1,1.93-.34,6.89,6.89,0,0,1,1.75.17,5.35,5.35,0,0,1,2.14,1.08A4.9,4.9,0,0,1,122,7.64,7.86,7.86,0,0,1,122.24,9c.05.52,0,1,0,1.56v7.19a.13.13,0,0,1-.11.11h-1.46c-.15,0-.18,0-.18-.19V10.14c0-.18,0-.36,0-.54a5.36,5.36,0,0,0-.33-1.73,3.59,3.59,0,0,0-1.41-1.78,4,4,0,0,0-1.53-.58,5.73,5.73,0,0,0-1.37,0,4,4,0,0,0-2.62,1.17A3.9,3.9,0,0,0,112.41,8a6.07,6.07,0,0,0-.36,1.69c0,.48,0,1,0,1.42v6.45c0,.32,0,.31-.31.31h-1.34a.12.12,0,0,1-.11-.11.28.28,0,0,1,0-.09V4.33c0-.14,0-.17.17-.17h1.51a.11.11,0,0,1,.08.08c0,.07,0,.15,0,.22V6.37Z"/><path class="cls-2" d="M72.67,9.11V.73c0-.45,0-.4.38-.4h9a.08.08,0,0,1,.08.07V1.64c0,.1,0,.12-.14.13h-7.2c-.42,0-.38,0-.38.38V8c0,.38,0,.35.35.35h5.83c.37,0,.34,0,.34.33v1a.1.1,0,0,1-.11.11h-6.3c-.07,0-.1,0-.11.11v7.58c0,.41,0,.39-.39.39H72.76a.08.08,0,0,1-.09-.09V9.11Z"/><path class="cls-2" d="M128.45,10.18v4a4.06,4.06,0,0,0,.11,1s0,.09,0,.14a1.29,1.29,0,0,0,1,.94,3.25,3.25,0,0,0,.82.12H132c.27,0,.26,0,.26.28v1a.91.91,0,0,1,0,.17.08.08,0,0,1-.07.08H132c-.52,0-1.05,0-1.57,0a6.2,6.2,0,0,1-1.66-.21,3.15,3.15,0,0,1-1.18-.67,2.74,2.74,0,0,1-.69-1.23,4.47,4.47,0,0,1-.19-1.26V14c0-2.66,0-5.33,0-8,0-.41,0-.37-.36-.37h-1.45c-.07,0-.1,0-.11-.11V4.35a.45.45,0,0,1,0-.11.07.07,0,0,1,.07-.07h1.74c.07,0,.1,0,.1-.11V3.81c0-.92,0-1.84,0-2.76,0-.35,0-.32.32-.32h1.37a.08.08,0,0,1,.07.08,2.09,2.09,0,0,1,0,.25V3.83c0,.34,0,.33.32.33h3.14c.32,0,.31,0,.31.31v1c0,.2,0,.2-.21.21h-3.46c-.05,0-.09,0-.09.09a2.26,2.26,0,0,0,0,.26Z"/><path class="cls-2" d="M85.05,11V4.51c0-.39,0-.35.35-.35h1.26c.1,0,.12,0,.13.14v2a1.11,1.11,0,0,0,0,.17h0l.08-.12a4.13,4.13,0,0,1,.86-1.13,4.45,4.45,0,0,1,2.06-1.1,5.56,5.56,0,0,1,1.35-.18h.17c.11,0,.14,0,.14.14V5.6c0,.13,0,.14-.16.14h-.54a5,5,0,0,0-1.75.35,3.57,3.57,0,0,0-1.13.7,2.84,2.84,0,0,0-.73,1.08,5,5,0,0,0-.32,1.21,12.08,12.08,0,0,0-.09,1.47v7.15c0,.13,0,.16-.15.16H85.19c-.1,0-.13,0-.14-.14V11Z"/><path class="cls-3" d="M119.77,21.68v3.53a.08.08,0,0,1-.09.08c-.39,0-.36.05-.36-.31V21.13c0-.27,0-.25.27-.26s.22.07.3.18c.7,1.07,1.41,2.14,2.12,3.21,0,.07.08.17.17.22s0-.11,0-.16v-3a1,1,0,0,1,0-.17c0-.09,0-.21,0-.26a.47.47,0,0,1,.33,0,.06.06,0,0,1,.05.05,1.41,1.41,0,0,1,0,.2V25c0,.31,0,.27-.28.28a.3.3,0,0,1-.27-.16l-1.36-2.07c-.27-.41-.54-.83-.82-1.24A.24.24,0,0,0,119.77,21.68Z"/><path class="cls-3" d="M76,23.45l1.09,1.8a1.27,1.27,0,0,1-.46,0s-.06,0-.08-.06l-.11-.17c-.28-.47-.57-.94-.84-1.42a.32.32,0,0,0-.34-.19c-.15,0-.3,0-.45,0s-.13,0-.13.14V25c0,.32,0,.29-.31.28-.12,0-.14,0-.14-.15v-4c0-.25,0-.26.24-.26h1.05a2.83,2.83,0,0,1,.65.09,1.18,1.18,0,0,1,.89,1.32,1.16,1.16,0,0,1-.86,1.08A.45.45,0,0,0,76,23.45Z"/><path class="cls-4" d="M14.07,22.67a1,1,0,0,0,.16-.24c.27-.45.54-.91.8-1.37a.3.3,0,0,1,.34-.19h.15c.07,0,.09,0,.05.11l-.12.2c-.33.55-.67,1.1-1,1.65a1,1,0,0,1-.1.17.13.13,0,0,0,0,.16l.1.17,1,1.66.11.19s0,.1-.05.1c-.36,0-.36,0-.56-.29s-.52-.86-.79-1.29L14,23.49c-.07,0-.09.1-.12.15L13.09,25a1.62,1.62,0,0,1-.1.18.15.15,0,0,1-.14.08h-.33c0-.09,0-.14.05-.19l1.06-1.78c.18-.3.18-.21,0-.5l-1-1.63-.12-.2c0-.07,0-.11.05-.12h.06c.37,0,.28,0,.47.26s.54.89.82,1.34A.48.48,0,0,0,14.07,22.67Z"/><path class="cls-5" d="M29.19,23.08V21.17a1.77,1.77,0,0,1,0-.23s0-.06.07-.07h2.14a.08.08,0,0,1,.09.09c0,.29,0,.29-.26.29s-.88,0-1.31,0a1.33,1.33,0,0,0-.2,0,.08.08,0,0,0-.09.09v1.4c0,.13,0,.14.15.14H30.9a2.26,2.26,0,0,1,.26,0c.14,0,.16,0,.16.17s0,.19-.19.19h-1.4a.09.09,0,0,0-.09.08v1.43c0,.13,0,.15.15.15h1.62a.08.08,0,0,1,.09.09c0,.29,0,.29-.26.29h-2a.07.07,0,0,1-.07-.07,1.85,1.85,0,0,1,0-.23Z"/><path class="cls-6" d="M83.88,23.06V21a.08.08,0,0,1,.09-.09h2a.41.41,0,0,1,.11,0c.09,0,.11,0,.12.12v0c0,.22,0,.22-.22.22-.45,0-.9,0-1.34,0h-.2c-.09,0-.11,0-.11.12a.13.13,0,0,0,0,.06c0,.43,0,.85,0,1.28,0,.17,0,.17.18.18h1.42s0,0,.06.05a.53.53,0,0,1,0,.25.15.15,0,0,1-.06.05H84.42c-.06,0-.09,0-.09.08v0c0,.48,0,.95,0,1.43,0,.09,0,.11.11.12H86c.18,0,.19,0,.19.2a.22.22,0,0,1,0,.08.08.08,0,0,1-.09.09H84a.08.08,0,0,1-.09-.09V23.06Z"/><path class="cls-6" d="M125.77,23.07V21.19a1.77,1.77,0,0,1,0-.23.08.08,0,0,1,.08-.09H128a.08.08,0,0,1,.08.07s0,.08,0,.11c0,.19,0,.2-.2.2h-1.54c-.1,0-.13,0-.13.11v1.42a.1.1,0,0,0,.11.1h1.43c.11,0,.13,0,.13.13v.15a.08.08,0,0,1-.09.08h-1.49a.07.07,0,0,0-.08.08V24.8c0,.09,0,.12.12.12h1c.17,0,.34,0,.51,0s.17,0,.21,0a.34.34,0,0,1,0,.28s0,0-.06.05h-2.14a.08.08,0,0,1-.09-.08,1.77,1.77,0,0,1,0-.23Z"/><path class="cls-6" d="M95.45,23.06V21c0-.07,0-.11.1-.11h2a.66.66,0,0,1,.14,0,.15.15,0,0,1,0,.06.13.13,0,0,1,0,.06c0,.26,0,.26-.24.26H96c-.07,0-.1,0-.1.11v1.31a.71.71,0,0,0,0,.14.07.07,0,0,0,.07.07h1.51a.08.08,0,0,1,.07.08,1.62,1.62,0,0,1,0,.22s0,0-.06,0H96a.08.08,0,0,0-.09.08v1.43c0,.13,0,.15.14.15h1.63a.08.08,0,0,1,.08.07v.14c0,.15,0,.16-.16.17h-2c-.16,0-.17,0-.17-.16V23.06Z"/><path class="cls-6" d="M43.84,23.06V21a.09.09,0,0,1,.1-.08h2.14l0,0a.47.47,0,0,1,0,.31l-.07,0a1.77,1.77,0,0,1-.23,0h-1.4c-.12,0-.13,0-.13.13v1.34c0,.15,0,.16.16.17H45.7c.28,0,.26,0,.25.27,0,.06,0,.09-.08.09H44.41c-.09,0-.12,0-.12.12v1.45a.1.1,0,0,0,.11.1H46c.12,0,.14,0,.14.15s0,.23-.22.23h-2a.08.08,0,0,1-.09-.09V23.06Z"/><path class="cls-4" d="M90.74,24.75a1,1,0,0,0,.15-.32c.4-1.09.81-2.18,1.21-3.28l.08-.18a.13.13,0,0,1,.12-.1h.26c.08,0,.11,0,.08.1-.15.39-.29.77-.44,1.15-.37,1-.74,2-1.12,2.95-.09.25-.09.21-.3.22h-.06c-.22,0-.21,0-.3-.21l-1-2.53c-.19-.5-.39-1-.58-1.52-.06-.16,0-.16.13-.17h0c.3,0,.25,0,.36.26l1.2,3.29Z"/><path class="cls-5" d="M61.9,23.09V21a.08.08,0,0,1,.08-.07H64.2c.06,0,.08,0,.09.09V21c0,.21,0,.22-.22.22H62.42a.07.07,0,0,0-.07.07s0,.06,0,.09c0,.43,0,.87,0,1.31,0,.15,0,.16.16.16h1.22c.29,0,.26,0,.26.27a.08.08,0,0,1-.09.09H62.48c-.12,0-.13,0-.13.13,0,.5,0,1,0,1.48v.18c0,.27,0,.25-.24.25s-.2,0-.2-.22Z"/><path class="cls-3" d="M107.87,23.11l.18-.36.83-1.65.06-.13a.17.17,0,0,1,.16-.1h.14c.24,0,.24,0,.14.21-.39.74-.77,1.48-1.17,2.22a1.2,1.2,0,0,0-.15.59c0,.38,0,.76,0,1.14a1,1,0,0,1,0,.17.08.08,0,0,1-.08.09h-.2c-.15,0-.16,0-.16-.17,0-.43,0-.85,0-1.28a.93.93,0,0,0-.14-.54l-1.14-2.16a2,2,0,0,1-.1-.21s0-.05,0-.06h0c.36,0,.37,0,.54.3.3.59.59,1.19.89,1.78C107.77,23,107.78,23.07,107.87,23.11Z"/><path class="cls-4" d="M49.47,23.09V21.18a1.77,1.77,0,0,1,0-.23.08.08,0,0,1,.08-.07h2.22a.08.08,0,0,1,.07.08.67.67,0,0,1,0,.2.09.09,0,0,1-.08.09H50c-.09,0-.11,0-.12.13v1.36c0,.13,0,.15.15.15h1.4a.08.08,0,0,1,.09.08v.12c0,.12,0,.16-.16.16H50.11c-.2,0-.2,0-.2.21v1.74a.09.09,0,0,1-.1.08h-.05c-.28,0-.29,0-.29-.28Z"/><path class="cls-7" d="M1.3,23.28V21.52a.75.75,0,0,0,0-.15c0-.09,0-.12-.11-.12H.3c-.07,0-.17,0-.21,0a.38.38,0,0,1,0-.28.15.15,0,0,1,.06-.05H2.87c.06,0,.1,0,.1.08a1.85,1.85,0,0,1,0,.23.05.05,0,0,1,0,0h-1c-.12,0-.13,0-.14.14V25.2a.08.08,0,0,1-.09.09H1.44c-.12,0-.13,0-.13-.14,0-.58,0-1.16,0-1.74Z"/><path class="cls-8" d="M34.82,23.11V21.2a1.77,1.77,0,0,1,0-.23.08.08,0,0,1,.08-.09h.2c.15,0,.16,0,.16.17V24.6c0,.08,0,.15,0,.23s0,.09.08.09h1.31c.18,0,.19,0,.19.2v.05c0,.07,0,.11-.1.11H34.9a.07.07,0,0,1-.07-.07c0-.08,0-.15,0-.23Z"/><path class="cls-9" d="M39.94,23.08V21.2a1.34,1.34,0,0,1,0-.2c0-.1,0-.12.11-.12.33,0,.32,0,.32.29V25c0,.3,0,.3-.3.29H40s-.07,0-.07-.07,0-.16,0-.23Z"/><path class="cls-5" d="M131.64,22.5c0,.48,0,1,0,1.45,0,.17,0,.17-.18.17h-.06c-.11,0-.13,0-.13-.14,0-.66,0-1.32,0-2,0-.33,0-.66,0-1,0-.09,0-.12.12-.12.4,0,.35-.05.35.35V22.5Z"/><path class="cls-10" d="M131.76,25a.33.33,0,0,1-.33.32.33.33,0,0,1,0-.65A.33.33,0,0,1,131.76,25Z"/><path class="cls-1" d="M36.25,9a9.44,9.44,0,0,0,0-1c0-.37-.1-.73-.17-1.09a8.53,8.53,0,0,0-3.57-5.28A8.87,8.87,0,0,0,29.81.35,7.73,7.73,0,0,0,27.68,0l-.29,0h-.28a.68.68,0,0,1-.2,0c-.3,0-.6,0-.91.06a9.28,9.28,0,0,0-1.72.38,8.22,8.22,0,0,0-1.69.75A9,9,0,0,0,20.8,2.56a10.06,10.06,0,0,0-.81.92,9.06,9.06,0,0,0-1.17,2.05,8.54,8.54,0,0,0-.51,1.86A14.91,14.91,0,0,0,18.16,9c0,.21,0,.41,0,.62a8.1,8.1,0,0,0,.24,1.69,7.71,7.71,0,0,0,.69,1.86,8.26,8.26,0,0,0,1.15,1.73,9.2,9.2,0,0,0,1.31,1.26,9.68,9.68,0,0,0,1.81,1.07,8.13,8.13,0,0,0,1.28.46,8.5,8.5,0,0,0,1.2.24,9.18,9.18,0,0,0,2.78,0,8.81,8.81,0,0,0,1.44-.32,8.46,8.46,0,0,0,1.82-.8,9.06,9.06,0,0,0,1.39-1,8.89,8.89,0,0,0,1.62-1.94,8.68,8.68,0,0,0,1-2.34,8.55,8.55,0,0,0,.31-2.36ZM31.9,9c0,.32,0,.66-.08,1s-.08.45-.13.67A4.79,4.79,0,0,1,31,12.25,4.22,4.22,0,0,1,28.46,14a5.46,5.46,0,0,1-1.21.12A5.36,5.36,0,0,1,25.81,14a4.05,4.05,0,0,1-1.49-.76,4.61,4.61,0,0,1-1.61-2.74,4.49,4.49,0,0,1-.11-1,1.36,1.36,0,0,0,0-.2.65.65,0,0,1,0-.31c.05-.35,0-.7.09-1a6,6,0,0,1,.29-1.18,4.5,4.5,0,0,1,1.38-1.92A4.28,4.28,0,0,1,26.23,4a3.93,3.93,0,0,1,1-.07A4.49,4.49,0,0,1,29,4.2a4.11,4.11,0,0,1,1.11.64A4.58,4.58,0,0,1,31.75,7.6a5,5,0,0,1,.11,1,1.23,1.23,0,0,0,0,.19A1.42,1.42,0,0,1,31.9,9Z"/><path class="cls-2" d="M69.35,9.77A8.2,8.2,0,0,0,68.92,8a6.42,6.42,0,0,0-1.33-2.14,6.2,6.2,0,0,0-4-1.9,7.59,7.59,0,0,0-2,.09,5.83,5.83,0,0,0-2.93,1.49,5.41,5.41,0,0,0-1.06,1.37s0,.12-.12.1V4.82c0-.17,0-.34,0-.51s0-.15-.15-.15H55.82a.1.1,0,0,0-.11.1V24.18c0,.13,0,.15.15.15.48,0,1,0,1.43,0,.12,0,.14,0,.14-.15V15.25c0-.08,0-.17,0-.25l0,0c.06,0,.08.12.12.18a5.51,5.51,0,0,0,1.17,1.42,5.89,5.89,0,0,0,3.63,1.47,7.42,7.42,0,0,0,1.82-.1,6.21,6.21,0,0,0,2.85-1.34A6.37,6.37,0,0,0,68.92,14a7.93,7.93,0,0,0,.48-2.3A9.08,9.08,0,0,0,69.35,9.77Zm-1.71,1.42a6.54,6.54,0,0,1-.52,2.43,4.69,4.69,0,0,1-3.44,2.8,5.39,5.39,0,0,1-1.65.09,4.82,4.82,0,0,1-3.91-2.59,5.28,5.28,0,0,1-.64-2.2,6.41,6.41,0,0,1,0-.88A5.91,5.91,0,0,1,58,8.39a4.8,4.8,0,0,1,3.27-2.74,4.21,4.21,0,0,1,1.25-.14,5.1,5.1,0,0,1,2.57.6,4.42,4.42,0,0,1,1.48,1.27,5.32,5.32,0,0,1,1,2.28A7.13,7.13,0,0,1,67.64,11.19Z"/><path class="cls-2" d="M106.94,9.6A7,7,0,0,0,106,7a6.18,6.18,0,0,0-2.87-2.47,6.91,6.91,0,0,0-3-.58,6.82,6.82,0,0,0-1.33.11,7,7,0,0,0-1.89.62,6.3,6.3,0,0,0-2.83,2.83,7.09,7.09,0,0,0-.76,2.81,8.7,8.7,0,0,0,.28,3,6.46,6.46,0,0,0,6,4.75,8.12,8.12,0,0,0,1.84-.09,6.76,6.76,0,0,0,3-1.23,6.32,6.32,0,0,0,1.94-2.35,6.92,6.92,0,0,0,.7-2.68A8.7,8.7,0,0,0,106.94,9.6ZM105,12.75a5,5,0,0,1-1.25,2.3,4.48,4.48,0,0,1-1.57,1.07,5.37,5.37,0,0,1-2.57.39,5,5,0,0,1-2.3-.76,4.45,4.45,0,0,1-1.45-1.54,5.49,5.49,0,0,1-.69-2,8.79,8.79,0,0,1-.09-1.54,6,6,0,0,1,.52-2.4A4.53,4.53,0,0,1,98,6a4.88,4.88,0,0,1,1.48-.41,5.28,5.28,0,0,1,3.45.71,4.73,4.73,0,0,1,1.89,2.3,5.65,5.65,0,0,1,.36,1.4,9.77,9.77,0,0,1,.06,1.08A6.63,6.63,0,0,1,105,12.75Z"/><path class="cls-9" d="M116.41,23a2.19,2.19,0,0,0-4.31-.47,2.54,2.54,0,0,0,0,1,2.08,2.08,0,0,0,1.44,1.75,2.16,2.16,0,0,0,1,.09,2,2,0,0,0,1.64-1.17,2.37,2.37,0,0,0,.23-1.05Zm-.6.93a1.71,1.71,0,0,1-3.29-.45,2.19,2.19,0,0,1,.07-1,1.65,1.65,0,0,1,1.77-1.18,1.68,1.68,0,0,1,1.58,1.64,1.34,1.34,0,0,1,0,.2A1.87,1.87,0,0,1,115.81,23.88Z"/><path class="cls-9" d="M71.3,22.88A2.19,2.19,0,0,0,67,22.3a2.49,2.49,0,0,0,0,1.55,2.06,2.06,0,0,0,1.34,1.37,2.17,2.17,0,0,0,1,.1A2.07,2.07,0,0,0,71.15,24a2.29,2.29,0,0,0,.15-.89Zm-.61,1a1.64,1.64,0,0,1-1.81,1,1.66,1.66,0,0,1-1.47-1.48,2.29,2.29,0,0,1,.07-1,1.71,1.71,0,0,1,3.32.18,1.68,1.68,0,0,1,0,.44A2,2,0,0,1,70.69,23.91Z"/><path class="cls-11" d="M74.67,22.14v-.77c0-.09,0-.12.12-.12h.91a.69.69,0,0,1,.2,0,.77.77,0,0,1,.69.77.85.85,0,0,1-.81,1c-.34,0-.68,0-1,0-.08,0-.09-.06-.09-.12Z"/><path class="cls-3" d="M25.87,25.25l-1.06-1.8a.66.66,0,0,1,.28-.12,1.16,1.16,0,0,0,.69-.68,1.34,1.34,0,0,0,.08-.56A1.16,1.16,0,0,0,25,21a2.6,2.6,0,0,0-.68-.1H23.29c-.25,0-.26,0-.26.25V25c0,.33,0,.29.32.3h0a.08.08,0,0,0,.09-.08V23.78a1.41,1.41,0,0,1,0-.2c0-.1,0-.12.14-.13s.34,0,.51,0a.25.25,0,0,1,.25.15c.26.46.54.91.81,1.37s.2.34.6.32h.07A.08.08,0,0,0,25.87,25.25Zm-1.41-2.17c-.28,0-.55,0-.83,0s-.15,0-.16-.17v-.74h0c0-.26,0-.53,0-.79,0-.1,0-.12.11-.12.32,0,.63,0,.94,0a.86.86,0,0,1,.86,1.11.79.79,0,0,1-.6.66A1.26,1.26,0,0,1,24.46,23.08Z"/><path class="cls-9" d="M103.06,24.35c-.19-.3-.37-.6-.54-.89.07-.1.18-.09.27-.12a1.18,1.18,0,0,0,.75-.84,1.93,1.93,0,0,0,0-.42,1.19,1.19,0,0,0-.86-1.12,3,3,0,0,0-.67-.09h-1.2a.08.08,0,0,0-.09.09,1.33,1.33,0,0,0,0,.2V25c0,.32,0,.28.29.29h.06a.07.07,0,0,0,.07-.07,1.34,1.34,0,0,0,0-.2V23.57c0-.07,0-.11.1-.11h.63a.15.15,0,0,1,.14.09l.1.17c.26.45.53.89.8,1.34a1,1,0,0,0,.1.17.12.12,0,0,0,.12.07h.2a.51.51,0,0,0,.23,0Zm-.9-1.27c-.28,0-.55,0-.83,0-.13,0-.15,0-.15-.14v-.77h0v-.8c0-.09,0-.12.12-.12.32,0,.63,0,.94,0a.91.91,0,0,1,.23,1.78A1.1,1.1,0,0,1,102.16,23.08Z"/><path class="cls-9" d="M9.44,25c-.46-1.26-.92-2.51-1.39-3.77-.14-.38-.05-.31-.48-.32H7.51a.12.12,0,0,0-.1.08l0,.11c-.49,1.33-1,2.67-1.48,4,0,.05,0,.1,0,.17H6.2a.11.11,0,0,0,.12-.07L6.39,25l.24-.67a.16.16,0,0,1,.17-.13H8.56a.16.16,0,0,1,.17.13c.07.18.13.37.21.56.16.41,0,.38.59.35C9.5,25.18,9.47,25.1,9.44,25Zm-1-1.14H6.93c-.08,0-.1,0-.07-.11a.49.49,0,0,1,0-.11c.23-.65.47-1.3.71-1.95a1.2,1.2,0,0,1,.07-.18c.31.81.58,1.56.85,2.3A.13.13,0,0,1,8.41,23.88Z"/></g></g></svg>