<svg xmlns="http://www.w3.org/2000/svg" viewBox="0 0 300 27"><defs><style>.cls-1{fill:#40423f;}.cls-2{fill:#fff;}</style></defs><g id="Layer_2" data-name="Layer 2"><g id="Layer_1-2" data-name="Layer 1"><rect class="cls-1" width="300" height="27"/><path class="cls-2" d="M64.23,19.11h-.86l-1.86-6.86h2.22a1.5,1.5,0,0,0,.05.43c0,.24.1.54.17.88s.15.72.24,1.12.16.78.25,1.14.15.68.22.95.11.45.13.55a11.09,11.09,0,0,0,1-1.92,5.9,5.9,0,0,0,.39-1.51,2.17,2.17,0,0,0-.12-1.06,1.16,1.16,0,0,0-.5-.58h2.91a1.75,1.75,0,0,0,0,.43l.18.88c.07.34.15.72.23,1.12s.17.78.25,1.14.16.68.22.95.11.45.13.55a9.88,9.88,0,0,0,1.05-1.92,5.58,5.58,0,0,0,.4-1.51,2.29,2.29,0,0,0-.13-1.06,1.1,1.1,0,0,0-.49-.58h2.9l0,.14L69,19.11h-.86L67,14.76Z"/><path class="cls-2" d="M76,19.11h-.86l-1.85-6.86h2.21a2.06,2.06,0,0,0,0,.43c0,.24.1.54.17.88s.15.72.24,1.12.17.78.25,1.14.15.68.22.95.11.45.13.55a9.88,9.88,0,0,0,1-1.92A5.9,5.9,0,0,0,78,13.89a2.17,2.17,0,0,0-.12-1.06,1.15,1.15,0,0,0-.49-.58h2.9a2.06,2.06,0,0,0,.05.43c0,.24.1.54.17.88s.15.72.24,1.12.17.78.25,1.14.15.68.22.95.11.45.13.55a11.09,11.09,0,0,0,1.05-1.92,5.9,5.9,0,0,0,.39-1.51,2.17,2.17,0,0,0-.12-1.06,1.15,1.15,0,0,0-.49-.58h2.9l0,.14-4.26,6.72H80l-1.17-4.35Z"/><path class="cls-2" d="M87.84,19.11H87l-1.86-6.86h2.22a1.5,1.5,0,0,0,0,.43c0,.24.1.54.17.88s.15.72.23,1.12.17.78.25,1.14.16.68.22.95.11.45.13.55a9.88,9.88,0,0,0,1-1.92,5.58,5.58,0,0,0,.4-1.51,2.29,2.29,0,0,0-.13-1.06,1.1,1.1,0,0,0-.49-.58h2.9a2.06,2.06,0,0,0,0,.43c0,.24.1.54.17.88s.15.72.24,1.12.17.78.25,1.14.16.68.22.95.11.45.13.55a9.88,9.88,0,0,0,1-1.92,5.52,5.52,0,0,0,.39-1.51,2.17,2.17,0,0,0-.12-1.06,1.15,1.15,0,0,0-.49-.58h2.9l0,.14-4.26,6.72h-.85l-1.18-4.35Z"/><path class="cls-2" d="M96.51,18.16a1.32,1.32,0,0,1,1.22-1,.76.76,0,0,1,.62.26.88.88,0,0,1,.2.53,1.65,1.65,0,0,1,0,.21,1.24,1.24,0,0,1-.44.72,1.15,1.15,0,0,1-.77.3.74.74,0,0,1-.62-.27.79.79,0,0,1-.22-.53A.89.89,0,0,1,96.51,18.16Z"/><path class="cls-2" d="M100.7,19.11,102,12.65h-1.14l.07-.4H102l.24-1.25a2.89,2.89,0,0,1,.38-1,2.7,2.7,0,0,1,1.53-1.11,3.76,3.76,0,0,1,1-.13,4.91,4.91,0,0,1,.74.06,1.78,1.78,0,0,1,.7.26,1.26,1.26,0,0,1,.48.56,1.79,1.79,0,0,1,.09,1l-1.66.47a3.37,3.37,0,0,0,.18-1.45A.62.62,0,0,0,105,9.1a1.1,1.1,0,0,0-.81.32,1.59,1.59,0,0,0-.39.8,2.6,2.6,0,0,0,0,1c.07.35.12.68.16,1h2.26l-.07.38h-2.27l-1.26,6.48Z"/><path class="cls-2" d="M106.56,13.78a6.46,6.46,0,0,1,.68-.7,4.08,4.08,0,0,1,.78-.52,4.71,4.71,0,0,1,.94-.34,5,5,0,0,1,1.14-.12,4.28,4.28,0,0,1,1,.12,2.2,2.2,0,0,1,.82.36,1.5,1.5,0,0,1,.49.65,1.72,1.72,0,0,1,0,1l-1,4.91h-1.92l.16-.82a6.68,6.68,0,0,1-1.18.66,3.17,3.17,0,0,1-1.26.28,2.39,2.39,0,0,1-.77-.11,1.63,1.63,0,0,1-.59-.34,1.23,1.23,0,0,1-.34-.6,1.78,1.78,0,0,1,0-.86,1.93,1.93,0,0,1,.4-.87,3,3,0,0,1,.72-.65,4.68,4.68,0,0,1,.92-.47,9,9,0,0,1,1-.3,7.52,7.52,0,0,1,1-.19l.81-.09.1-.49c0-.22.08-.43.11-.63a2,2,0,0,0,0-.53.65.65,0,0,0-.18-.39.67.67,0,0,0-.44-.18,1.6,1.6,0,0,0-1.24.48,3.26,3.26,0,0,0-.9,1.55ZM110.4,15a7.41,7.41,0,0,0-.74.12,3.18,3.18,0,0,0-.87.33,2.54,2.54,0,0,0-.77.62,2.19,2.19,0,0,0-.44,1,1.12,1.12,0,0,0,.18.89.86.86,0,0,0,.71.34,2.67,2.67,0,0,0,.64-.11,2.12,2.12,0,0,0,.73-.34Z"/><path class="cls-2" d="M115.07,9.86a.34.34,0,0,0-.14-.37,1.68,1.68,0,0,0-.37-.2l0-.2,2.61-.29-.85,4.45a3.75,3.75,0,0,1,1.06-.83,2.66,2.66,0,0,1,1.24-.32,2.18,2.18,0,0,1,1.15.28,2,2,0,0,1,.73.72,2.7,2.7,0,0,1,.32,1,3.56,3.56,0,0,1-.06,1.21,4.81,4.81,0,0,1-.61,1.58,4.7,4.7,0,0,1-1.07,1.23,5,5,0,0,1-1.41.8,4.76,4.76,0,0,1-1.64.29c-.47,0-.93,0-1.4,0l-1.39-.1Zm1.05,9.07a1.6,1.6,0,0,0,1-.33,3.14,3.14,0,0,0,.75-.83,5.1,5.1,0,0,0,.51-1.05,7.71,7.71,0,0,0,.28-1,8.55,8.55,0,0,0,.11-.87,3.37,3.37,0,0,0-.06-.91,1.52,1.52,0,0,0-.35-.72,1,1,0,0,0-.77-.28,1.58,1.58,0,0,0-.72.17,1.79,1.79,0,0,0-.6.46L115.43,18a1.06,1.06,0,0,0,0,.72C115.57,18.85,115.78,18.93,116.12,18.93Z"/><path class="cls-2" d="M121.58,19.11l1.12-5.81a1.47,1.47,0,0,0,0-.43.27.27,0,0,0-.12-.22.66.66,0,0,0-.27-.1l-.4-.05,0-.2,2.89-.28-.3,1.57a6,6,0,0,1,1.27-1.06,4.54,4.54,0,0,1,.77-.37,2.42,2.42,0,0,1,.77-.14,1.25,1.25,0,0,1,.77.23l-.85,2.24q-.48-1.17-1.35-1.17a2.35,2.35,0,0,0-1.47.71l-1,5.08Z"/><path class="cls-2" d="M128,19.11,129,13.63a2.07,2.07,0,0,0,.05-.5.42.42,0,0,0-.12-.25.47.47,0,0,0-.27-.11l-.39,0,0-.2,2.89-.23-1.33,6.82Zm2.31-7.88a.91.91,0,0,1-.77-.31,1.05,1.05,0,0,1-.25-.67,2.46,2.46,0,0,1,0-.26,1.56,1.56,0,0,1,.53-.89,1.46,1.46,0,0,1,1-.35,1,1,0,0,1,.79.3,1.08,1.08,0,0,1,.24.67,1.39,1.39,0,0,1,0,.27,1.49,1.49,0,0,1-.52.88A1.44,1.44,0,0,1,130.26,11.23Z"/><path class="cls-2" d="M136.9,15.26a7.89,7.89,0,0,0,.19-1,3.09,3.09,0,0,0,0-.87,1.21,1.21,0,0,0-.25-.61.65.65,0,0,0-.53-.23,1.73,1.73,0,0,0-.9.24,2.55,2.55,0,0,0-.71.6,3.43,3.43,0,0,0-.49.8,5.61,5.61,0,0,0-.27.86,3.44,3.44,0,0,0,0,1.11,2.93,2.93,0,0,0,.36,1,2.37,2.37,0,0,0,.75.76,2.16,2.16,0,0,0,1.13.29,4.22,4.22,0,0,0,1.1-.15,2,2,0,0,0,1-.59l.1.08a3.87,3.87,0,0,1-.7.7,4.86,4.86,0,0,1-.87.54,4,4,0,0,1-.93.33,3.67,3.67,0,0,1-.91.12,3.27,3.27,0,0,1-1.34-.27,2.74,2.74,0,0,1-1-.72,2.57,2.57,0,0,1-.58-1.08,2.7,2.7,0,0,1,0-1.33,4.91,4.91,0,0,1,.58-1.54,4.47,4.47,0,0,1,2.32-1.94,4.4,4.4,0,0,1,1.53-.27,3,3,0,0,1,1.89.5,1.9,1.9,0,0,1,.74,1.28Z"/><path class="cls-2" d="M140.18,13.93l1.76-5h5.32l-.38,1.94h-5L141,13.23a2.68,2.68,0,0,1,.6-.34,4,4,0,0,1,.69-.24,6.27,6.27,0,0,1,.71-.13,5.13,5.13,0,0,1,.65,0,4.66,4.66,0,0,1,1.36.2,3.25,3.25,0,0,1,1.12.6,2.38,2.38,0,0,1,.76,2.38,3.53,3.53,0,0,1-.6,1.43,5,5,0,0,1-1.1,1.14,5.34,5.34,0,0,1-1.41.76,4.74,4.74,0,0,1-1.56.27,6.1,6.1,0,0,1-1.16-.12,3.71,3.71,0,0,1-1.13-.41,2.16,2.16,0,0,1-.78-.75,1.66,1.66,0,0,1-.15-1.15h2.13a2.28,2.28,0,0,0,0,.69,1.68,1.68,0,0,0,.21.62,1.32,1.32,0,0,0,.43.45,1.19,1.19,0,0,0,.63.17,1.62,1.62,0,0,0,1-.32,2.64,2.64,0,0,0,.7-.79,4,4,0,0,0,.44-1,7.12,7.12,0,0,0,.24-.93,1.92,1.92,0,0,0,0-1,1.74,1.74,0,0,0-.47-.71,2.19,2.19,0,0,0-.8-.43,3.61,3.61,0,0,0-1-.14,3.77,3.77,0,0,0-1,.13,5.45,5.45,0,0,0-1,.42Z"/><path class="cls-2" d="M148.36,13.78a6.46,6.46,0,0,1,.68-.7,4.08,4.08,0,0,1,.78-.52,4.71,4.71,0,0,1,.94-.34,5,5,0,0,1,1.14-.12,4.28,4.28,0,0,1,1,.12,2.2,2.2,0,0,1,.82.36,1.5,1.5,0,0,1,.49.65,1.72,1.72,0,0,1,0,1l-1,4.91h-1.92l.16-.82a6.68,6.68,0,0,1-1.18.66,3.17,3.17,0,0,1-1.26.28,2.39,2.39,0,0,1-.77-.11,1.63,1.63,0,0,1-.59-.34,1.23,1.23,0,0,1-.34-.6,1.78,1.78,0,0,1,0-.86,1.93,1.93,0,0,1,.4-.87,3,3,0,0,1,.72-.65,4.68,4.68,0,0,1,.92-.47,9,9,0,0,1,1-.3,7.52,7.52,0,0,1,1-.19l.81-.09.1-.49c0-.22.08-.43.11-.63a2.46,2.46,0,0,0,0-.53.65.65,0,0,0-.18-.39.67.67,0,0,0-.44-.18,1.6,1.6,0,0,0-1.24.48,3.26,3.26,0,0,0-.9,1.55ZM152.2,15a7.41,7.41,0,0,0-.74.12,3.18,3.18,0,0,0-.87.33,2.54,2.54,0,0,0-.77.62,2.19,2.19,0,0,0-.44,1,1.12,1.12,0,0,0,.18.89.86.86,0,0,0,.71.34,2.67,2.67,0,0,0,.64-.11,2.12,2.12,0,0,0,.73-.34Z"/><path class="cls-2" d="M157.37,19.11h-1.93l1.13-5.81a1.47,1.47,0,0,0,0-.43.34.34,0,0,0-.12-.22.66.66,0,0,0-.27-.1l-.4-.05,0-.2,2.89-.28-.3,1.57A3.85,3.85,0,0,1,159,13a5,5,0,0,1,.73-.47,5,5,0,0,1,.79-.34,2.76,2.76,0,0,1,.77-.13,1.7,1.7,0,0,1,1.46.57,1.84,1.84,0,0,1,.22,1.5l-.95,4.94h-1.93l.93-4.78a1,1,0,0,0-.1-.78.89.89,0,0,0-.78-.29,2.44,2.44,0,0,0-.92.19,3.22,3.22,0,0,0-.86.47Z"/><path class="cls-2" d="M169.52,18.56a1.25,1.25,0,0,0-.61-.17,2.18,2.18,0,0,0-1.1.4,4.47,4.47,0,0,1-.7.33,2.17,2.17,0,0,1-.73.13,2.12,2.12,0,0,1-1.15-.3,2.21,2.21,0,0,1-.74-.78,2.91,2.91,0,0,1-.34-1.08,3.79,3.79,0,0,1,0-1.21,4.59,4.59,0,0,1,.5-1.38,5,5,0,0,1,.91-1.21,4.68,4.68,0,0,1,1.21-.86,3.24,3.24,0,0,1,1.44-.33,2.87,2.87,0,0,1,.82.13,2.07,2.07,0,0,1,.69.37l.49-2.53a1.47,1.47,0,0,0,0-.43.33.33,0,0,0-.13-.21.47.47,0,0,0-.26-.09l-.41-.05,0-.2,2.9-.29-2,10.31Zm.17-5.63a1.11,1.11,0,0,0-.46-.23,2,2,0,0,0-.55-.07,1.68,1.68,0,0,0-1,.29,2.78,2.78,0,0,0-.74.71,4.48,4.48,0,0,0-.51.94,5,5,0,0,0-.28.95,4.76,4.76,0,0,0-.1.9,3.19,3.19,0,0,0,.13.94,1.6,1.6,0,0,0,.42.74,1.09,1.09,0,0,0,.8.29,1.41,1.41,0,0,0,.7-.21,3.15,3.15,0,0,0,.63-.43Z"/><path class="cls-2" d="M177.89,18.56a1.25,1.25,0,0,0-.61-.17,2.21,2.21,0,0,0-1.1.4,4.09,4.09,0,0,1-.7.33,2.12,2.12,0,0,1-.73.13,2.06,2.06,0,0,1-1.14-.3,2.15,2.15,0,0,1-.75-.78,2.91,2.91,0,0,1-.34-1.08,4.11,4.11,0,0,1,0-1.21,4.88,4.88,0,0,1,.5-1.38,5,5,0,0,1,.91-1.21,4.56,4.56,0,0,1,1.22-.86,3.22,3.22,0,0,1,1.43-.33,2.87,2.87,0,0,1,.82.13,2,2,0,0,1,.7.37l.48-2.53a1.47,1.47,0,0,0,0-.43.37.37,0,0,0-.12-.21.54.54,0,0,0-.27-.09l-.4-.05,0-.2,2.9-.29-2,10.31Zm.18-5.63a1.15,1.15,0,0,0-.47-.23,2,2,0,0,0-.55-.07,1.73,1.73,0,0,0-1,.29,2.94,2.94,0,0,0-.74.71,4.45,4.45,0,0,0-.5.94,5.07,5.07,0,0,0-.29.95,4.09,4.09,0,0,0-.09.9,2.89,2.89,0,0,0,.12.94,1.6,1.6,0,0,0,.42.74,1.11,1.11,0,0,0,.81.29,1.44,1.44,0,0,0,.7-.21,3.47,3.47,0,0,0,.63-.43Z"/><path class="cls-2" d="M181,19.11,182,13.63a1.66,1.66,0,0,0,.05-.5.42.42,0,0,0-.12-.25.47.47,0,0,0-.27-.11l-.39,0,0-.2,2.89-.23-1.33,6.82Zm2.32-7.88a.92.92,0,0,1-.78-.31,1.05,1.05,0,0,1-.25-.67,1.22,1.22,0,0,1,0-.26,1.49,1.49,0,0,1,.52-.89,1.46,1.46,0,0,1,1-.35,1,1,0,0,1,.79.3,1.08,1.08,0,0,1,.24.67,1.39,1.39,0,0,1,0,.27,1.54,1.54,0,0,1-1.48,1.24Z"/><path class="cls-2" d="M187,19.11h-1.93l1.06-5.45a1.72,1.72,0,0,0,.05-.51.32.32,0,0,0-.12-.25.45.45,0,0,0-.25-.11l-.41-.06,0-.2,2.9-.28-.26,1.34a4.28,4.28,0,0,1,.57-.55,4.61,4.61,0,0,1,1.43-.81,2.38,2.38,0,0,1,.72-.13,1.69,1.69,0,0,1,1.19.39,1.48,1.48,0,0,1,.42,1.14,4.28,4.28,0,0,1,.57-.55,4.65,4.65,0,0,1,.7-.49,4.71,4.71,0,0,1,.76-.35,2.24,2.24,0,0,1,.73-.14,1.41,1.41,0,0,1,1.35.65,2.52,2.52,0,0,1,.15,1.73l-.9,4.63h-1.93l.89-4.58a1.53,1.53,0,0,0,0-.93c-.1-.23-.32-.34-.67-.34a1.92,1.92,0,0,0-.85.22,3.19,3.19,0,0,0-.79.55,1,1,0,0,1,0,.16.78.78,0,0,1,0,.16l-.93,4.76H189.5l.88-4.58a1.47,1.47,0,0,0,0-.93.65.65,0,0,0-.67-.34,1.89,1.89,0,0,0-.85.22A3.19,3.19,0,0,0,188,14Z"/><path class="cls-2" d="M200.45,17.29a2.15,2.15,0,0,0,.72.51,2,2,0,0,0,.89.19,2.24,2.24,0,0,0,1.3-.38,3.29,3.29,0,0,0,.93-1l.1.09a5.7,5.7,0,0,1-.6,1,4.51,4.51,0,0,1-.77.8,3.43,3.43,0,0,1-1,.52,3.57,3.57,0,0,1-1.16.19,3.4,3.4,0,0,1-1.11-.18,3,3,0,0,1-.95-.52,2.64,2.64,0,0,1-.67-.81,2.56,2.56,0,0,1-.31-1.07,4.19,4.19,0,0,1,.21-1.83,4,4,0,0,1,.82-1.4,3.87,3.87,0,0,1,2.57-1.27h.3a3.09,3.09,0,0,1,1.26.22,2.13,2.13,0,0,1,.82.61,2.22,2.22,0,0,1,.43.9,4,4,0,0,1,.09,1.11Zm-.22-.23A5.92,5.92,0,0,0,201.65,16a3.28,3.28,0,0,0,.72-1.14,2.35,2.35,0,0,0,.16-.84,1.9,1.9,0,0,0-.13-.73,1.37,1.37,0,0,0-.39-.52.94.94,0,0,0-.59-.2h-.07a2.16,2.16,0,0,0-.69.16,1.52,1.52,0,0,0-.6.48,2.34,2.34,0,0,0-.39.87,4.2,4.2,0,0,0-.08,1.33,3,3,0,0,0,.19.89A2.69,2.69,0,0,0,200.23,17.06Z"/><path class="cls-2" d="M204.82,18.16a1.2,1.2,0,0,1,.44-.7,1.19,1.19,0,0,1,.77-.3.74.74,0,0,1,.62.26.83.83,0,0,1,.21.53.82.82,0,0,1,0,.21,1.28,1.28,0,0,1-1.2,1,.77.77,0,0,1-.63-.27.83.83,0,0,1-.21-.53A.89.89,0,0,1,204.82,18.16Z"/><path class="cls-2" d="M213.51,15.26a6.49,6.49,0,0,0,.19-1,3.56,3.56,0,0,0,0-.87,1.42,1.42,0,0,0-.25-.61.66.66,0,0,0-.53-.23,1.74,1.74,0,0,0-.91.24,2.55,2.55,0,0,0-.71.6,3.09,3.09,0,0,0-.48.8,4.76,4.76,0,0,0-.28.86,3.44,3.44,0,0,0,0,1.11,2.93,2.93,0,0,0,.36,1,2.37,2.37,0,0,0,.75.76,2.18,2.18,0,0,0,1.13.29,4.16,4.16,0,0,0,1.1-.15,2.07,2.07,0,0,0,1-.59l.1.08a3.93,3.93,0,0,1-.71.7,4.86,4.86,0,0,1-.87.54,4,4,0,0,1-.93.33,3.61,3.61,0,0,1-.91.12,3.27,3.27,0,0,1-1.34-.27,2.74,2.74,0,0,1-1-.72,2.69,2.69,0,0,1-.58-1.08,3,3,0,0,1,0-1.33,5.17,5.17,0,0,1,.58-1.54,4.41,4.41,0,0,1,1-1.18,4.45,4.45,0,0,1,2.85-1,3,3,0,0,1,1.9.5,1.89,1.89,0,0,1,.73,1.28Z"/><path class="cls-2" d="M219,19.25a3.55,3.55,0,0,1-1.41-.27A2.6,2.6,0,0,1,216,17.12a3.49,3.49,0,0,1,0-1.44,4.45,4.45,0,0,1,.57-1.46,4.4,4.4,0,0,1,2.3-1.86,4.48,4.48,0,0,1,1.51-.26,3.64,3.64,0,0,1,1.4.26,2.58,2.58,0,0,1,1,.73,2.69,2.69,0,0,1,.57,1.13,3.58,3.58,0,0,1,0,1.46,4.52,4.52,0,0,1-.57,1.44,4.32,4.32,0,0,1-1,1.13,4.54,4.54,0,0,1-1.31.73A4.29,4.29,0,0,1,219,19.25Zm.86-.54a1.54,1.54,0,0,0,.84-.55,3.35,3.35,0,0,0,.51-.95,4.53,4.53,0,0,0,.23-1.08,4.87,4.87,0,0,0,0-.91c0-.28,0-.57-.08-.87a4.51,4.51,0,0,0-.23-.86,1.76,1.76,0,0,0-.45-.66,1.14,1.14,0,0,0-.77-.26,1.84,1.84,0,0,0-.47.06,1.52,1.52,0,0,0-.83.54,3,3,0,0,0-.5.95,5,5,0,0,0-.24,1.07,4.89,4.89,0,0,0,0,.91,5.72,5.72,0,0,0,.13.8,4.06,4.06,0,0,0,.3.87,2.21,2.21,0,0,0,.51.69,1,1,0,0,0,.73.29A2,2,0,0,0,219.84,18.71Z"/><path class="cls-2" d="M226.15,19.11h-1.93l1.06-5.45a1.44,1.44,0,0,0,.05-.51.35.35,0,0,0-.11-.25.48.48,0,0,0-.26-.11l-.41-.06,0-.2,2.9-.28-.25,1.34a4.87,4.87,0,0,1,.56-.55,4.19,4.19,0,0,1,.69-.47,4.46,4.46,0,0,1,.74-.34,2.38,2.38,0,0,1,.72-.13,1.67,1.67,0,0,1,1.19.39,1.48,1.48,0,0,1,.43,1.14,4.28,4.28,0,0,1,.57-.55,4.19,4.19,0,0,1,.7-.49,4.62,4.62,0,0,1,.75-.35,2.24,2.24,0,0,1,.73-.14,1.41,1.41,0,0,1,1.35.65,2.41,2.41,0,0,1,.15,1.73l-.9,4.63H233l.89-4.58a1.55,1.55,0,0,0,0-.93.66.66,0,0,0-.67-.34,1.89,1.89,0,0,0-.85.22,3.07,3.07,0,0,0-.8.55.92.92,0,0,1,0,.16l0,.16-.93,4.76h-1.93l.89-4.58a1.53,1.53,0,0,0-.05-.93c-.1-.23-.32-.34-.67-.34a1.92,1.92,0,0,0-.85.22,3.19,3.19,0,0,0-.79.55Z"/></g></g></svg>