<?xml version="1.0" encoding="UTF-8"?>
<svg id="Layer_2" data-name="Layer 2" xmlns="http://www.w3.org/2000/svg" xmlns:xlink="http://www.w3.org/1999/xlink" viewBox="0 0 1441.04 250">
  <defs>
    <style>
      .cls-1 {
        fill: none;
      }

      .cls-1, .cls-2 {
        stroke-width: 0px;
      }

      .cls-3 {
        clip-path: url(#clippath);
      }

      .cls-2 {
        fill: #f3f2e9;
      }
    </style>
    <clipPath id="clippath">
      <rect class="cls-1" x="595.52" y="-595.52" width="250" height="1441.04" transform="translate(595.52 845.52) rotate(-90)"/>
    </clipPath>
  </defs>
  <g id="Layer_1-2" data-name="Layer 1">
    <g class="cls-3">
      <g>
        <path class="cls-2" d="M1031.51-395.61H-1449.88V446.24H1064.7c-.33-.8-.66-1.59-.99-2.4.38.79.76,1.58,1.16,2.4h11.53c-3.08-7.19-4.48-10.96-6.94-18.17-2.1-6.17-3.2-9.73-4.6-15,1.13,3.61,2.32,6.81,4.1,11.44,2.85,7.41,4.64,11,8.04,18.29.58,1.25,1.12,2.38,1.63,3.44h9.31c-1.05-2.53-2.06-5.13-3.32-8.47-2.77-7.36-4.02-11.1-6.16-18.33-2.14-7.23-3.12-10.8-4.55-17.84-1.43-7.04-1.95-10.48-2.6-17.36-.66-6.88-.82-10.22-.68-17.03.14-6.81.42-10.17,1.39-17.02.97-6.86,1.69-10.28,3.44-17.27,1.75-6.99,2.87-10.52,5.29-17.68,2.42-7.15,3.9-10.78,6.82-18.1,2.92-7.32,4.6-11.05,7.81-18.51,3.2-7.47,4.94-11.29,8.22-18.83,3.28-7.54,5.08-11.31,8.19-18.88,3.11-7.56,4.68-11.38,7.38-18.94,2.69-7.56,3.99-11.34,6.08-18.85,2.1-7.51,3.09-11.23,4.41-18.7,1.32-7.47,1.78-11.2,2.19-18.63.42-7.44.4-11.14-.11-18.54-.51-7.4-1.02-11.09-2.44-18.47-1.42-7.38-2.42-11.05-4.65-18.41-2.23-7.36-3.61-11.04-6.49-18.39-2.88-7.35-4.59-11.01-7.92-18.35-3.33-7.34-5.19-11.01-8.73-18.34-3.54-7.33-5.47-10.99-8.98-18.3-3.51-7.31-5.35-10.96-8.56-18.27-3.21-7.31-4.81-10.96-7.49-18.26-2.68-7.29-3.96-10.93-5.93-18.21-1.97-7.28-2.8-10.91-3.91-18.18-1.11-7.26-1.46-10.89-1.63-18.15-.17-7.26,0-10.87.78-18.13.77-7.26,1.41-10.88,3.06-18.16,1.64-7.27,2.75-10.91,5.16-18.21,2.41-7.3,3.89-10.96,6.89-18.28,3.01-7.32,4.75-10.99,8.14-18.33,3.39-7.34,5.28-11.01,8.82-18.35,3.54-7.34,5.44-11.01,8.86-18.36,3.42-7.35,5.18-11.02,8.23-18.37,3.05-7.35,4.55-11.03,7.01-18.37,2.46-7.35,3.6-11.02,5.3-18.37,1.7-7.35,2.39-11.02,3.2-18.37.81-7.35.98-11.03.84-18.38-.14-7.35-.47-11.03-1.54-18.39-1.07-7.36-1.88-11.04-3.82-18.4-1.93-7.36-3.21-11.03-5.85-18.4-2.64-7.37-4.2-11.07-7.34-18.46-3.14-7.39-4.95-11.08-8.37-18.47-3.41-7.4-5.26-11.13-8.69-18.53-2.12-4.57-3.61-7.73-5.2-11.21h-3.45c2.07,4.23,3.85,7.58,6.5,12.84,3.66,7.25,5.66,10.84,9.26,18.09,3.59,7.25,5.44,10.88,8.71,18.14,3.27,7.26,4.92,10.88,7.63,18.16,2.72,7.27,3.96,10.93,5.94,18.22,1.98,7.29,2.82,10.93,3.94,18.21,1.11,7.29,1.46,10.94,1.62,18.23.16,7.29-.02,10.94-.82,18.24-.8,7.3-1.48,10.95-3.18,18.25-1.7,7.3-2.84,10.95-5.32,18.25-2.48,7.3-4,10.94-7.08,18.24-3.08,7.3-4.87,10.94-8.32,18.24-3.46,7.3-5.37,10.96-8.96,18.26-3.59,7.3-5.51,10.95-8.98,18.26-3.46,7.31-5.26,10.96-8.35,18.28-3.09,7.32-4.61,10.99-7.09,18.34-2.48,7.35-3.62,11.03-5.32,18.4-1.69,7.37-2.38,11.07-3.15,18.46-.78,7.39-.92,11.09-.72,18.48.19,7.39.56,11.09,1.69,18.47,1.14,7.38,2,11.07,4,18.44,2,7.37,3.28,11.05,5.99,18.41,2.72,7.35,4.35,11.02,7.58,18.36,3.23,7.34,5.06,11.01,8.57,18.35,3.51,7.33,5.43,11,8.98,18.32,3.54,7.32,5.43,10.96,8.75,18.27,3.32,7.3,4.99,10.97,7.83,18.27,2.84,7.3,4.23,10.94,6.39,18.23,2.16,7.29,3.11,10.94,4.42,18.21,1.32,7.27,1.8,10.9,2.18,18.15.38,7.24.33,10.87-.28,18.08-.61,7.21-1.21,10.8-2.76,17.98-1.55,7.18-2.57,10.78-4.97,17.92-2.4,7.14-3.92,10.68-7.03,17.77-3.11,7.09-4.96,10.6-8.54,17.68-3.58,7.08-5.55,10.63-9.37,17.74-3.82,7.11-5.93,10.61-9.72,17.79-1.54,2.93-2.79,5.26-3.95,7.49,1.35-3.03,2.68-5.99,4.47-10.05,3.31-7.48,5.13-11.25,8.36-18.83,3.22-7.57,4.86-11.43,7.76-19.05,2.91-7.61,4.37-11.42,6.77-19.01,2.4-7.58,3.55-11.37,5.24-18.92,1.68-7.55,2.35-11.33,3.18-18.83.83-7.5,1.06-11.23.99-18.69-.07-7.45-.35-11.17-1.35-18.58-1-7.41-1.79-11.1-3.65-18.49-1.86-7.39-3.06-11.07-5.64-18.44-2.58-7.37-4.14-11.05-7.28-18.4-3.14-7.35-4.94-11.02-8.42-18.36-3.47-7.34-5.38-11.01-8.94-18.33-3.56-7.31-5.49-10.95-8.87-18.26-3.38-7.31-5.07-10.99-8.03-18.29-2.95-7.3-4.38-10.94-6.73-18.21-2.35-7.27-3.44-10.88-5-18.12-1.56-7.24-2.15-10.87-2.79-18.1-.63-7.23-.67-10.84-.37-18.06.3-7.23.67-10.84,1.87-18.08,1.2-7.24,2.08-10.87,4.13-18.13,2.05-7.26,3.38-10.88,6.11-18.18,2.73-7.3,4.32-10.98,7.53-18.31,3.21-7.33,5.04-11.01,8.52-18.36,3.48-7.35,5.4-11.02,8.89-18.38,3.49-7.36,5.32-11.05,8.57-18.42,3.25-7.36,4.89-11.05,7.67-18.4,2.78-7.36,4.13-11.02,6.24-18.38,2.1-7.36,3.01-11.04,4.27-18.4,1.26-7.36,1.7-11.04,2.04-18.4.34-7.36.25-11.04-.36-18.41-.61-7.37-1.19-11.05-2.69-18.43-1.51-7.37-2.55-11.06-4.84-18.45-2.29-7.39-3.71-11.09-6.6-18.49-2.89-7.41-4.59-11.12-7.86-18.54-3.27-7.43-5.08-11.17-8.51-18.6-3.43-7.43-5.32-11.12-8.62-18.53-.25-.56-.48-1.09-.72-1.61h-4.77c.65,1.26,1.34,2.61,2.1,4.13,3.64,7.23,5.59,10.87,9.28,18.09,3.69,7.22,5.67,10.8,9.17,18.02,3.5,7.22,5.27,10.83,8.31,18.07,3.04,7.24,4.52,10.86,6.91,18.12,2.38,7.26,3.46,10.89,5.02,18.16,1.57,7.27,2.17,10.91,2.81,18.19.64,7.28.72,10.92.39,18.21-.33,7.28-.76,10.93-2.02,18.21-1.26,7.29-2.2,10.92-4.3,18.22-2.11,7.29-3.43,10.95-6.23,18.24-2.8,7.29-4.48,10.93-7.79,18.21-3.31,7.28-5.2,10.91-8.77,18.2-3.57,7.29-5.51,10.94-9.08,18.24-3.57,7.3-5.45,10.95-8.78,18.26-3.33,7.31-5.03,10.96-7.85,18.31-2.82,7.35-4.13,11.05-6.23,18.43-2.11,7.38-3.03,11.08-4.29,18.49-1.26,7.41-1.72,11.12-2.02,18.54-.29,7.42-.13,11.14.55,18.55.69,7.41,1.3,11.12,2.88,18.52,1.58,7.4,2.63,11.11,5.01,18.5,2.38,7.38,3.87,11.06,6.89,18.41,3.02,7.35,4.81,10.99,8.22,18.33,3.41,7.33,5.28,11.02,8.84,18.35,3.55,7.33,5.48,10.98,8.94,18.29,3.46,7.31,5.25,10.96,8.35,18.26,3.1,7.3,4.64,10.94,7.17,18.22,2.52,7.28,3.7,10.92,5.43,18.18,1.74,7.26,2.43,10.9,3.26,18.13.83,7.23,1.04,10.84.9,18.03-.14,7.19-.47,10.78-1.6,17.93-1.13,7.14-2.02,10.69-4.05,17.79-2.03,7.1-3.31,10.64-6.11,17.7-2.8,7.06-4.48,10.57-7.88,17.61-3.4,7.03-5.39,10.5-9.13,17.57-2.48,4.69-4.2,7.83-6.19,11.51,2.19-4.91,3.81-8.54,6.26-14.51,3.12-7.61,4.7-11.45,7.36-19.1,2.66-7.65,3.91-11.51,5.96-19.14,2.04-7.63,2.99-11.42,4.26-19.01,1.27-7.58,1.71-11.37,2.07-18.91.36-7.54.32-11.29-.27-18.77-.58-7.48-1.18-11.18-2.65-18.62-1.47-7.43-2.43-11.14-4.69-18.54-2.25-7.4-3.67-11.08-6.58-18.45-2.91-7.36-4.64-11.02-7.98-18.37-3.34-7.35-5.19-11.04-8.73-18.38-3.54-7.33-5.48-10.98-8.99-18.29-3.5-7.31-5.33-10.96-8.53-18.25-3.2-7.29-4.81-10.93-7.48-18.19-2.67-7.26-3.92-10.89-5.87-18.13-1.95-7.23-2.78-10.84-3.88-18.05-1.09-7.21-1.44-10.8-1.6-17.99-.16-7.19.03-10.77.79-17.96.76-7.19,1.38-10.79,3.01-18.01,1.63-7.22,2.75-10.83,5.14-18.09,2.39-7.26,3.84-10.91,6.83-18.22,2.98-7.31,4.71-10.98,8.08-18.32,3.37-7.34,5.27-11.01,8.76-18.38,3.5-7.37,5.35-11.08,8.73-18.46,3.38-7.38,5.16-11.06,8.19-18.43,3.03-7.38,4.52-11.07,6.97-18.45,2.45-7.38,3.57-11.07,5.27-18.44,1.7-7.37,2.41-11.05,3.22-18.43.82-7.38.99-11.07.86-18.45-.13-7.38-.47-11.07-1.52-18.47-1.05-7.4-1.84-11.1-3.73-18.51-1.89-7.41-3.14-11.12-5.73-18.55-2.59-7.43-4.14-11.16-7.24-18.61-3.09-7.45-4.88-11.16-8.23-18.63-3.35-7.46-5.13-11.24-8.5-18.69-1.9-4.21-3.27-7.23-4.69-10.4h-6.68c2.3,4.65,4.18,8.07,7.08,13.65,3.73,7.2,5.79,10.75,9.45,17.93,3.66,7.18,5.53,10.79,8.85,17.99,3.32,7.2,4.98,10.8,7.74,18.01,2.76,7.22,4.04,10.84,6.06,18.07,2.02,7.23,2.89,10.85,4.02,18.1,1.13,7.25,1.47,10.88,1.63,18.15.16,7.26-.02,10.89-.81,18.16-.79,7.27-1.45,10.91-3.15,18.18-1.7,7.27-2.85,10.91-5.35,18.18-2.49,7.27-4.03,10.9-7.12,18.17-3.1,7.27-4.87,10.92-8.36,18.18-3.49,7.27-5.46,10.87-9.08,18.15-3.62,7.28-5.54,10.93-9.03,18.24-3.49,7.31-5.29,10.96-8.4,18.3-3.11,7.34-4.66,11.01-7.16,18.39-2.5,7.38-3.63,11.1-5.34,18.52-1.71,7.42-2.41,11.15-3.19,18.6-.78,7.45-.91,11.2-.71,18.65.2,7.46.57,11.19,1.73,18.63,1.15,7.44,2.01,11.16,4.03,18.57,2.02,7.41,3.32,11.11,6.05,18.49,2.73,7.38,4.35,11.07,7.59,18.42,3.24,7.36,5.09,11.03,8.6,18.37,3.51,7.34,5.42,11.01,8.97,18.32,3.54,7.31,5.45,10.94,8.75,18.24,3.31,7.3,4.95,10.96,7.77,18.24,2.81,7.28,4.16,10.92,6.3,18.17,2.14,7.25,3.12,10.86,4.39,18.07,1.27,7.21,1.66,10.83,1.97,18,.31,7.17.22,10.74-.44,17.85-.66,7.11-1.28,10.64-2.88,17.71-1.6,7.06-2.66,10.59-5.11,17.61-2.46,7.02-4.02,10.48-7.16,17.48-3.14,7-4.98,10.47-8.55,17.52-.41.8-.79,1.55-1.16,2.27.6-1.5,1.23-3.11,1.94-4.94,2.96-7.64,4.47-11.47,6.87-19.14,2.41-7.67,3.52-11.54,5.17-19.21,1.65-7.68,2.28-11.53,3.06-19.16.78-7.63.97-11.43.84-19-.13-7.56-.44-11.33-1.5-18.83-1.06-7.5-1.87-11.23-3.79-18.66-1.92-7.44-3.19-11.12-5.81-18.52-2.62-7.4-4.14-11.13-7.29-18.5-3.16-7.37-5.01-11.02-8.5-18.36-3.49-7.34-5.37-11.03-8.94-18.35-3.57-7.31-5.52-10.92-8.89-18.22-3.37-7.3-5.03-10.99-7.96-18.26-2.93-7.27-4.38-10.89-6.7-18.11-2.32-7.22-3.38-10.82-4.9-18-1.52-7.18-2.08-10.76-2.7-17.92-.62-7.15-.69-10.7-.39-17.85.3-7.14.69-10.7,1.89-17.86,1.19-7.16,2.06-10.75,4.09-17.95,2.02-7.21,3.33-10.81,6.03-18.07,2.7-7.26,4.31-10.91,7.48-18.24,3.17-7.33,4.94-11.04,8.39-18.4,3.44-7.37,5.37-11.03,8.84-18.42,3.47-7.38,5.28-11.1,8.51-18.5,3.22-7.4,4.85-11.1,7.62-18.5,2.76-7.4,4.1-11.09,6.2-18.49,2.09-7.4,3.01-11.1,4.28-18.5,1.27-7.4,1.71-11.11,2.06-18.52.35-7.41.29-11.12-.31-18.54-.6-7.42-1.2-11.12-2.68-18.56-1.48-7.44-2.47-11.17-4.71-18.63-2.24-7.46-3.65-11.19-6.49-18.67-2.84-7.48-4.51-11.23-7.73-18.72-3.22-7.49-4.99-11.28-8.36-18.75-3.37-7.47-5.23-11.18-8.47-18.62-.09-.21-.18-.41-.27-.62h-8.47c.81,1.54,1.68,3.2,2.67,5.12,3.7,7.21,5.68,10.83,9.42,18,3.75,7.17,5.76,10.72,9.31,17.87,3.55,7.15,5.36,10.73,8.45,17.89,3.09,7.17,4.58,10.76,7.01,17.95,2.43,7.18,3.56,10.78,5.15,17.98,1.59,7.21,2.17,10.83,2.82,18.06.65,7.23.76,10.84.44,18.07-.31,7.23-.74,10.86-2,18.1-1.26,7.24-2.18,10.86-4.29,18.11-2.11,7.25-3.44,10.88-6.27,18.13-2.82,7.25-4.51,10.87-7.85,18.11-3.34,7.25-5.24,10.86-8.84,18.12-3.59,7.26-5.52,10.92-9.13,18.2-3.61,7.28-5.55,10.89-8.91,18.21-3.36,7.32-5.06,10.99-7.9,18.38-2.84,7.38-4.18,11.1-6.31,18.55-2.13,7.44-3.06,11.18-4.33,18.66-1.27,7.49-1.71,11.25-2.01,18.76-.29,7.51-.17,11.28.53,18.77.7,7.49,1.36,11.24,2.97,18.7,1.61,7.46,2.7,11.19,5.1,18.61,2.41,7.42,3.88,11.14,6.92,18.51,3.04,7.37,4.87,11,8.29,18.35,3.42,7.35,5.26,11.07,8.81,18.4,3.55,7.33,5.5,10.96,8.94,18.27,3.44,7.3,5.19,10.98,8.27,18.25,3.08,7.28,4.67,10.88,7.15,18.12,2.48,7.25,3.59,10.89,5.27,18.1,1.68,7.21,2.35,10.81,3.12,17.95.77,7.15.94,10.71.74,17.79-.2,7.08-.56,10.6-1.74,17.62-1.18,7.01-2.09,10.48-4.16,17.45-2.07,6.97-3.39,10.43-6.18,17.4-2.1,5.26-3.55,8.54-5.57,12.84,2.24-6.32,3.5-10.17,5.36-17.13,2.06-7.72,2.93-11.62,4.18-19.33,1.26-7.71,1.77-11.56,2.1-19.23.34-7.66.23-11.5-.42-19.1-.64-7.59-1.27-11.36-2.8-18.87-1.53-7.52-2.55-11.25-4.85-18.71-2.3-7.46-3.7-11.18-6.65-18.58-2.94-7.4-4.7-11.05-8.08-18.42-3.38-7.36-5.24-11.05-8.79-18.38-3.55-7.34-5.47-11-8.97-18.3-3.5-7.3-5.34-10.93-8.52-18.2-3.18-7.26-4.76-10.89-7.41-18.12-2.64-7.22-3.89-10.82-5.8-17.99-1.91-7.17-2.69-10.75-3.75-17.87-1.06-7.12-1.41-10.66-1.55-17.74-.14-7.09.1-10.59.85-17.69.76-7.09,1.32-10.65,2.93-17.78,1.61-7.13,2.77-10.68,5.13-17.88,2.37-7.21,3.75-10.86,6.68-18.15,2.93-7.29,4.62-10.97,7.97-18.31,3.34-7.33,5.27-10.97,8.75-18.35,3.48-7.38,5.3-11.13,8.65-18.55,3.36-7.42,5.12-11.12,8.13-18.55,3.01-7.43,4.48-11.15,6.92-18.59,2.44-7.43,3.57-11.14,5.27-18.57,1.7-7.43,2.42-11.14,3.24-18.59.82-7.44.98-11.17.88-18.63-.11-7.46-.38-11.2-1.41-18.67-1.03-7.47-1.89-11.19-3.75-18.69-1.86-7.5-3-11.28-5.55-18.8-2.54-7.51-4.13-11.25-7.17-18.78-3.04-7.52-4.75-11.32-8.05-18.84-3.29-7.52-5.08-11.31-8.42-18.76-1.67-3.73-2.93-6.52-4.17-9.29h-10.67"/>
        <path class="cls-2" d="M1100.36-395.61c.53,1.07,1.09,2.2,1.71,3.45,3.57,7.27,5.48,10.93,9.1,18.21,3.62,7.27,5.58,10.88,9.02,18.15,3.44,7.27,5.17,10.93,8.17,18.21,3,7.29,4.46,10.93,6.82,18.22,2.36,7.29,3.43,10.94,4.98,18.24,1.55,7.3,2.14,10.95,2.77,18.26.63,7.3.72,10.96.38,18.26-.33,7.31-.77,10.96-2.04,18.26-1.26,7.31-2.18,10.96-4.28,18.27-2.1,7.31-3.43,10.97-6.23,18.28-2.8,7.31-4.46,10.96-7.76,18.27-3.3,7.31-5.17,10.95-8.72,18.26-3.55,7.31-5.47,10.97-9.02,18.28-3.55,7.31-5.42,10.96-8.72,18.28-3.29,7.32-4.96,10.98-7.76,18.31-2.79,7.33-4.11,11.01-6.21,18.36-2.1,7.35-3.03,11.02-4.28,18.38-1.25,7.36-1.67,11.05-1.96,18.43-.3,7.37-.19,11.06.48,18.43.67,7.37,1.3,11.05,2.88,18.41,1.57,7.36,2.63,11.05,5,18.4,2.37,7.35,3.83,11.03,6.83,18.37,3,7.33,4.78,10.98,8.18,18.31,3.4,7.33,5.28,11.01,8.85,18.33,3.56,7.32,5.5,10.97,8.96,18.28,3.47,7.31,5.25,10.98,8.36,18.29,3.11,7.31,4.66,10.96,7.2,18.26,2.54,7.3,3.71,10.96,5.48,18.25,1.77,7.29,2.49,10.94,3.37,18.22.88,7.28,1.11,10.91,1.02,18.18-.08,7.26-.37,10.89-1.44,18.13-1.06,7.23-1.9,10.84-3.87,18.04-1.96,7.2-3.23,10.8-5.96,17.97-2.73,7.17-4.35,10.76-7.7,17.88-3.35,7.13-5.33,10.62-9.04,17.74-3.71,7.12-5.71,10.69-9.52,17.85-3.81,7.15-5.89,10.68-9.54,17.9-3.66,7.22-5.53,10.85-8.74,18.2-3.22,7.36-4.8,11.07-7.34,18.59-2.54,7.52-3.72,11.33-5.37,19.01-1.65,7.67-2.27,11.59-2.88,19.36-.61,7.77-.68,11.73-.18,19.48.5,7.75,1.12,11.64,2.68,19.27,1.55,7.63,2.63,11.43,5.1,18.88,2.47,7.45,4.1,11.07,7.26,18.36,2.34,5.4,4.01,8.74,6.12,13.07h7.08c-2.74-6.49-4.12-10.26-6.43-17.15-2.47-7.35-3.54-11.06-5.34-18.25-1.79-7.2-2.59-10.72-3.63-17.74-1.04-7.02-1.32-10.45-1.55-17.34-.23-6.9-.18-10.26.4-17.14.57-6.88,1.09-10.28,2.45-17.25,1.36-6.97,2.27-10.48,4.35-17.61,2.08-7.13,3.37-10.74,6.05-18.03,2.68-7.29,4.26-10.99,7.35-18.41,3.09-7.42,4.8-11.22,8.1-18.71,3.3-7.5,5.15-11.24,8.4-18.77,3.25-7.53,4.89-11.36,7.85-18.88,2.96-7.52,4.48-11.26,6.94-18.73,2.47-7.47,3.64-11.2,5.39-18.65,1.75-7.45,2.46-11.16,3.36-18.58.9-7.41,1.16-11.1,1.15-18.49-.01-7.39-.27-11.07-1.22-18.44-.95-7.37-1.71-11.04-3.54-18.4-1.83-7.35-3.03-11.02-5.6-18.36-2.57-7.34-4.12-11.02-7.25-18.35-3.13-7.34-4.94-11-8.4-18.33-3.47-7.33-5.36-11.01-8.92-18.33-3.55-7.32-5.47-10.97-8.86-18.29-3.39-7.32-5.1-10.99-8.07-18.31-2.97-7.31-4.43-10.96-6.78-18.25-2.36-7.29-3.45-10.93-5.01-18.22-1.56-7.28-2.14-10.93-2.79-18.21-.65-7.28-.74-10.91-.45-18.19.3-7.28.71-10.91,1.93-18.19,1.21-7.29,2.08-10.94,4.14-18.23,2.05-7.3,3.38-10.95,6.13-18.26,2.75-7.31,4.38-10.98,7.62-18.31,3.24-7.33,5.07-11,8.58-18.34,3.51-7.33,5.44-11,8.95-18.33,3.51-7.34,5.36-11.02,8.62-18.36,3.27-7.34,4.92-11.01,7.71-18.35,2.79-7.34,4.13-11,6.24-18.34,2.11-7.34,3.03-11.01,4.29-18.35,1.26-7.34,1.69-11.01,2.02-18.36.33-7.34.25-11.01-.37-18.35-.62-7.34-1.21-11.01-2.73-18.36-1.52-7.35-2.57-11.03-4.88-18.38-2.31-7.35-3.75-11.03-6.68-18.39-2.94-7.36-4.67-11.03-8-18.4-3.33-7.37-5.17-11.09-8.66-18.46-3.49-7.37-5.42-11.03-8.8-18.41-.37-.8-.71-1.56-1.04-2.28h-2.24Z"/>
        <path class="cls-2" d="M1112.24-395.61c1.95,4.01,3.67,7.3,6.18,12.38,3.6,7.28,5.55,10.93,9.09,18.22,3.54,7.29,5.39,10.94,8.62,18.23,3.23,7.29,4.85,10.94,7.54,18.24,2.69,7.3,3.96,10.96,5.92,18.26,1.96,7.31,2.79,10.96,3.89,18.27,1.1,7.31,1.45,10.96,1.6,18.27.15,7.31-.03,10.96-.83,18.28-.8,7.31-1.48,10.97-3.18,18.28-1.7,7.31-2.84,10.97-5.32,18.28-2.48,7.31-3.99,10.96-7.06,18.28-3.07,7.31-4.84,10.97-8.29,18.28-3.44,7.31-5.37,10.96-8.94,18.28-3.57,7.32-5.47,10.99-8.91,18.3-3.44,7.32-5.24,10.96-8.31,18.28-3.07,7.32-4.56,11-7.02,18.33-2.46,7.34-3.61,11-5.29,18.35-1.68,7.35-2.35,11.03-3.13,18.38-.78,7.35-.93,11.03-.75,18.39.18,7.36.52,11.04,1.65,18.39,1.13,7.35,2.01,11.02,4,18.36,1.99,7.35,3.24,11.03,5.95,18.37,2.7,7.34,4.34,11,7.57,18.32,3.23,7.33,5.07,10.99,8.58,18.32,3.51,7.32,5.43,10.99,8.97,18.31,3.55,7.32,5.45,10.96,8.76,18.28,3.32,7.32,4.98,10.99,7.83,18.31,2.85,7.31,4.23,10.96,6.41,18.27,2.19,7.3,3.16,10.95,4.51,18.25,1.35,7.3,1.83,10.94,2.25,18.23.42,7.29.39,10.93-.16,18.2-.55,7.28-1.1,10.91-2.59,18.17-1.49,7.25-2.53,10.88-4.86,18.11-2.33,7.23-3.78,10.85-6.8,18.04-3.03,7.2-4.82,10.77-8.33,17.94-3.51,7.17-5.46,10.76-9.21,17.92-3.76,7.16-5.82,10.7-9.58,17.87-3.76,7.18-5.75,10.74-9.2,18-3.45,7.27-5.16,10.93-8.05,18.32-2.89,7.4-4.3,11.12-6.4,18.66-2.1,7.54-2.99,11.39-4.11,19.05-1.13,7.66-1.44,11.56-1.52,19.25-.08,7.7.1,11.61,1.13,19.23,1.03,7.62,1.99,11.41,4.04,18.88,2.04,7.47,3.37,11.16,6.19,18.49,2.82,7.33,4.56,10.89,7.9,18.15.78,1.69,1.47,3.17,2.13,4.55h5.05c-.91-2.19-1.83-4.5-2.93-7.36-2.83-7.39-4.13-11.15-6.3-18.47-2.18-7.32-3.15-10.96-4.57-18.13-1.41-7.17-1.86-10.71-2.5-17.73-.64-7.02-.86-10.44-.71-17.39.15-6.95.47-10.38,1.46-17.37.99-6.99,1.73-10.46,3.48-17.57,1.75-7.1,2.83-10.71,5.25-17.96,2.42-7.25,3.9-10.91,6.83-18.29,2.93-7.38,4.59-11.14,7.82-18.61,3.24-7.47,5.02-11.25,8.36-18.74,3.34-7.49,5.16-11.22,8.35-18.7,3.19-7.48,4.8-11.23,7.58-18.68,2.78-7.45,4.15-11.16,6.32-18.58,2.17-7.42,3.14-11.12,4.51-18.51,1.37-7.39,1.88-11.08,2.36-18.45.47-7.37.48-11.05.01-18.41-.47-7.36-.98-11.03-2.37-18.38-1.38-7.35-2.36-11.02-4.57-18.37-2.2-7.34-3.58-11.02-6.46-18.35-2.88-7.33-4.59-10.98-7.92-18.31-3.33-7.33-5.18-11.01-8.72-18.34-3.54-7.33-5.48-10.98-8.98-18.3-3.51-7.32-5.34-10.98-8.55-18.3-3.21-7.32-4.8-10.98-7.5-18.29-2.7-7.31-4-10.95-5.97-18.25-1.98-7.3-2.79-10.96-3.9-18.25-1.12-7.29-1.49-10.93-1.67-18.22-.18-7.29-.02-10.93.74-18.22.77-7.29,1.43-10.94,3.09-18.24,1.65-7.3,2.76-10.96,5.19-18.27,2.43-7.31,3.93-10.96,6.96-18.29,3.03-7.32,4.76-11.01,8.17-18.33,3.41-7.33,5.33-10.98,8.88-18.31,3.55-7.33,5.45-11,8.88-18.34,3.43-7.33,5.2-11,8.26-18.33,3.06-7.33,4.57-11,7.03-18.34,2.47-7.34,3.6-11,5.3-18.34,1.7-7.34,2.39-11,3.19-18.34.81-7.34.98-11,.84-18.34-.15-7.34-.47-11.01-1.56-18.35-1.08-7.34-1.91-11.01-3.86-18.35-1.95-7.34-3.21-11.01-5.87-18.35-2.66-7.35-4.25-11.02-7.43-18.37-3.18-7.35-4.99-11.03-8.46-18.39-3.46-7.36-5.37-11.04-8.86-18.4-2.26-4.76-3.8-7.99-5.51-11.66h-1.62Z"/>
        <path class="cls-2" d="M1125.28-395.61c.47.98.97,2.01,1.52,3.13,3.51,7.3,5.43,10.96,9.01,18.26,3.58,7.3,5.5,10.95,8.91,18.25,3.41,7.3,5.15,10.96,8.13,18.26,2.98,7.31,4.44,10.96,6.78,18.27,2.35,7.31,3.41,10.97,4.94,18.28,1.54,7.31,2.13,10.97,2.75,18.28.63,7.31.72,10.97.39,18.28-.33,7.31-.77,10.97-2.03,18.28-1.26,7.31-2.18,10.97-4.28,18.29-2.11,7.32-3.44,10.97-6.24,18.29-2.8,7.31-4.46,10.97-7.75,18.28-3.29,7.32-5.15,10.97-8.68,18.29-3.54,7.32-5.46,10.98-9,18.3-3.53,7.32-5.38,10.99-8.66,18.31-3.28,7.32-4.95,10.97-7.73,18.3-2.78,7.33-4.1,11-6.19,18.33-2.09,7.34-3,11-4.24,18.34-1.24,7.34-1.67,11.01-1.97,18.36-.3,7.35-.21,11.03.45,18.37.66,7.35,1.29,11.02,2.86,18.36,1.58,7.34,2.65,11.01,5.02,18.35,2.37,7.34,3.82,11.01,6.81,18.34,2.99,7.33,4.74,10.99,8.15,18.31,3.4,7.33,5.31,10.98,8.87,18.31,3.56,7.32,5.47,10.99,8.93,18.31,3.46,7.32,5.26,10.98,8.37,18.3,3.12,7.32,4.67,10.97,7.21,18.29,2.55,7.31,3.74,10.96,5.52,18.27,1.79,7.31,2.52,10.96,3.42,18.27.9,7.3,1.13,10.95,1.07,18.25-.06,7.29-.34,10.94-1.35,18.23-1.01,7.28-1.8,10.93-3.71,18.19-1.9,7.27-3.15,10.9-5.82,18.15-2.67,7.25-4.26,10.88-7.52,18.1-3.26,7.22-5.17,10.79-8.8,17.99-3.62,7.2-5.59,10.81-9.33,18.01-3.74,7.2-5.76,10.76-9.36,17.98-3.59,7.23-5.44,10.84-8.61,18.14-3.17,7.31-4.73,10.98-7.25,18.4-2.52,7.42-3.72,11.16-5.35,18.7-1.63,7.54-2.21,11.39-2.79,19.01-.58,7.62-.62,11.48-.13,19.08.49,7.6,1.07,11.41,2.59,18.9,1.52,7.5,2.6,11.22,5,18.58,2.41,7.37,3.95,10.97,7.02,18.24,2.43,5.77,4.09,9.2,6.37,14.02h3.54c-2.54-5.93-3.98-9.64-6.27-16.2-2.57-7.37-3.71-11.09-5.58-18.37-1.86-7.28-2.66-10.88-3.73-18.03-1.07-7.15-1.4-10.66-1.63-17.72-.24-7.05-.15-10.51.45-17.54.6-7.03,1.17-10.5,2.55-17.6,1.38-7.1,2.26-10.69,4.37-17.92,2.1-7.23,3.42-10.88,6.14-18.22,2.73-7.34,4.33-11.05,7.49-18.47,3.15-7.42,4.91-11.19,8.28-18.64,3.37-7.45,5.25-11.16,8.59-18.61,3.34-7.45,5.05-11.2,8.09-18.63,3.04-7.43,4.6-11.12,7.13-18.52,2.53-7.39,3.72-11.09,5.53-18.46,1.81-7.38,2.57-11.06,3.52-18.42.95-7.36,1.22-11.04,1.23-18.39.01-7.35-.24-11.03-1.17-18.37-.93-7.34-1.68-11.01-3.49-18.35-1.81-7.34-3-11.01-5.55-18.34-2.56-7.34-4.1-11-7.23-18.33-3.13-7.33-4.93-10.99-8.39-18.32-3.47-7.32-5.39-10.98-8.95-18.31-3.56-7.32-5.45-10.99-8.83-18.31-3.39-7.32-5.12-10.99-8.1-18.3-2.98-7.32-4.45-10.96-6.81-18.27-2.36-7.31-3.43-10.96-4.99-18.27-1.56-7.31-2.15-10.96-2.8-18.26-.65-7.3-.76-10.95-.47-18.25.29-7.3.7-10.95,1.92-18.26,1.22-7.31,2.11-10.96,4.18-18.27,2.07-7.31,3.4-10.96,6.16-18.28,2.76-7.32,4.38-10.99,7.64-18.32,3.25-7.33,5.11-10.98,8.63-18.31,3.52-7.33,5.45-10.99,8.97-18.32,3.53-7.33,5.38-10.99,8.66-18.32,3.28-7.33,4.93-11,7.72-18.33,2.79-7.33,4.13-11,6.23-18.33,2.1-7.33,3.03-11,4.29-18.33,1.27-7.33,1.7-11,2.03-18.33.33-7.33.26-11-.37-18.33-.62-7.33-1.22-11-2.75-18.33-1.53-7.33-2.59-11-4.91-18.34-2.33-7.34-3.77-11.01-6.72-18.35-2.95-7.34-4.68-11.01-8.04-18.35-3.36-7.35-5.24-11.03-8.77-18.37-3.53-7.35-5.45-11.01-8.88-18.35-.43-.92-.84-1.79-1.22-2.61h-1Z"/>
        <path class="cls-2" d="M1138.08-395.61c1.88,3.91,3.55,7.19,5.99,12.18,3.57,7.31,5.5,10.96,9.02,18.27,3.52,7.31,5.36,10.96,8.57,18.28,3.21,7.31,4.82,10.97,7.5,18.29,2.68,7.31,3.95,10.97,5.9,18.28,1.96,7.31,2.79,10.97,3.88,18.29,1.09,7.31,1.44,10.97,1.59,18.29.15,7.31-.03,10.97-.83,18.29-.8,7.32-1.49,10.97-3.19,18.29-1.7,7.32-2.84,10.98-5.31,18.29-2.47,7.32-3.98,10.98-7.05,18.29-3.07,7.32-4.85,10.97-8.29,18.29-3.44,7.32-5.35,10.98-8.92,18.3-3.57,7.32-5.48,10.98-8.91,18.3-3.43,7.32-5.21,10.98-8.26,18.31-3.05,7.33-4.55,10.99-7,18.32-2.45,7.33-3.59,10.99-5.27,18.32-1.68,7.33-2.34,11-3.12,18.34-.77,7.34-.93,11.01-.75,18.35.18,7.34.54,11.01,1.66,18.35,1.12,7.34,1.97,11.01,3.95,18.34,1.99,7.33,3.28,11,5.98,18.33,2.7,7.33,4.31,11,7.53,18.33,3.22,7.33,5.07,10.98,8.58,18.31,3.51,7.33,5.43,11,8.97,18.31,3.54,7.32,5.42,10.98,8.74,18.3,3.32,7.32,5.01,10.98,7.87,18.3,2.86,7.32,4.23,10.98,6.42,18.29,2.19,7.31,3.17,10.97,4.54,18.27,1.36,7.31,1.85,10.97,2.28,18.27.43,7.31.41,10.96-.12,18.26-.53,7.3-1.08,10.95-2.53,18.24-1.45,7.29-2.46,10.94-4.74,18.23-2.28,7.29-3.7,10.93-6.67,18.19-2.96,7.26-4.72,10.88-8.15,18.12-3.43,7.25-5.34,10.88-9.01,18.11-3.67,7.23-5.66,10.83-9.32,18.05-3.66,7.23-5.6,10.81-8.97,18.07-3.37,7.27-5.06,10.91-7.88,18.25-2.82,7.35-4.17,11.04-6.22,18.48-2.06,7.44-2.94,11.2-4.05,18.72-1.11,7.52-1.41,11.33-1.48,18.87-.07,7.54.16,11.35,1.14,18.83.98,7.49,1.82,11.22,3.76,18.61,1.95,7.39,3.27,11.02,5.97,18.33,2.7,7.31,4.32,10.93,7.54,18.2.88,1.98,1.66,3.69,2.39,5.28h2.38c-.84-1.98-1.71-4.08-2.73-6.63-2.94-7.37-4.37-11.07-6.66-18.42-2.29-7.34-3.27-11.03-4.78-18.29-1.51-7.26-2.08-10.85-2.77-18-.7-7.16-.86-10.68-.7-17.78.16-7.11.49-10.62,1.51-17.75,1.01-7.13,1.75-10.69,3.55-17.89,1.79-7.21,2.94-10.84,5.43-18.14,2.49-7.3,3.99-10.98,7-18.36,3.01-7.38,4.72-11.12,8.05-18.54,3.33-7.42,5.18-11.15,8.62-18.56,3.43-7.42,5.29-11.11,8.55-18.51,3.26-7.4,4.92-11.11,7.76-18.49,2.84-7.38,4.23-11.06,6.45-18.43,2.22-7.36,3.22-11.04,4.63-18.39,1.41-7.35,1.93-11.03,2.43-18.37.5-7.35.51-11.02.06-18.36-.46-7.34-.96-11.01-2.33-18.34-1.38-7.34-2.34-11.01-4.54-18.34-2.2-7.33-3.59-11-6.46-18.33-2.87-7.33-4.56-10.99-7.88-18.32-3.32-7.33-5.19-10.99-8.74-18.32-3.54-7.33-5.48-10.98-8.98-18.3-3.51-7.32-5.33-10.99-8.55-18.31-3.22-7.32-4.84-10.97-7.53-18.29-2.7-7.32-3.96-10.98-5.94-18.29-1.98-7.31-2.83-10.96-3.96-18.27-1.12-7.31-1.48-10.96-1.66-18.27-.18-7.31-.02-10.96.74-18.27.77-7.31,1.43-10.96,3.09-18.28,1.66-7.31,2.77-10.97,5.21-18.29,2.44-7.32,3.94-10.97,6.98-18.29,3.04-7.32,4.8-10.98,8.22-18.31,3.42-7.32,5.33-10.99,8.88-18.31,3.56-7.33,5.47-10.99,8.9-18.32,3.43-7.33,5.2-10.99,8.27-18.32,3.06-7.33,4.57-10.99,7.05-18.32,2.47-7.33,3.61-10.99,5.31-18.33,1.7-7.33,2.38-10.99,3.19-18.32.8-7.33.98-11,.84-18.33-.15-7.33-.48-11-1.57-18.33-1.09-7.33-1.92-11-3.87-18.33-1.95-7.33-3.21-11-5.89-18.33-2.67-7.33-4.28-11-7.47-18.33-3.2-7.33-5.02-11-8.51-18.34-3.49-7.34-5.4-11.01-8.93-18.35-2.33-4.85-3.92-8.1-5.69-11.86h-.72Z"/>
        <path class="cls-2" d="M1150.92-395.61c.45.94.92,1.92,1.43,3,3.49,7.31,5.42,10.97,8.98,18.28,3.57,7.31,5.46,10.97,8.86,18.29,3.39,7.32,5.14,10.97,8.11,18.29,2.97,7.32,4.42,10.97,6.76,18.29,2.34,7.32,3.39,10.98,4.93,18.29,1.54,7.32,2.13,10.97,2.76,18.29.63,7.32.7,10.97.37,18.29-.33,7.32-.77,10.97-2.03,18.29-1.26,7.32-2.18,10.98-4.29,18.29-2.1,7.32-3.44,10.98-6.23,18.3-2.79,7.32-4.45,10.98-7.73,18.3-3.28,7.32-5.15,10.98-8.68,18.3-3.53,7.32-5.46,10.98-8.99,18.3-3.53,7.32-5.39,10.98-8.66,18.3-3.27,7.32-4.92,10.99-7.7,18.31-2.78,7.33-4.1,10.99-6.18,18.32-2.08,7.33-2.98,11-4.22,18.33-1.23,7.33-1.66,11-1.96,18.33-.3,7.33-.2,11,.46,18.34.66,7.34,1.27,11,2.84,18.34,1.57,7.33,2.64,11,5.01,18.33,2.37,7.33,3.83,10.99,6.82,18.32,2.99,7.33,4.74,10.99,8.13,18.32,3.39,7.32,5.29,10.99,8.85,18.31,3.56,7.32,5.49,10.98,8.95,18.3,3.47,7.32,5.26,10.98,8.38,18.3,3.12,7.32,4.66,10.98,7.21,18.3,2.55,7.31,3.74,10.97,5.53,18.29,1.79,7.31,2.53,10.97,3.44,18.28.91,7.31,1.15,10.97,1.11,18.28-.04,7.31-.32,10.96-1.31,18.27-1,7.3-1.78,10.96-3.66,18.26-1.88,7.3-3.1,10.95-5.72,18.25-2.62,7.29-4.2,10.95-7.4,18.22-3.2,7.28-5.05,10.9-8.6,18.17-3.55,7.26-5.49,10.9-9.14,18.16-3.65,7.25-5.62,10.86-9.12,18.12-3.5,7.26-5.28,10.89-8.37,18.2-3.08,7.3-4.61,10.95-7.04,18.31-2.44,7.36-3.54,11.07-5.13,18.5-1.59,7.43-2.22,11.19-2.81,18.66-.6,7.48-.62,11.26-.16,18.72.46,7.46,1.02,11.2,2.46,18.6,1.44,7.4,2.47,11.08,4.76,18.41,2.29,7.33,3.74,10.96,6.68,18.25,2.42,5.99,4.02,9.51,6.37,14.62h1.55c-2.46-5.61-3.97-9.25-6.3-15.6-2.69-7.35-3.94-11.05-5.91-18.37-1.97-7.31-2.82-10.96-3.96-18.2-1.15-7.25-1.49-10.83-1.77-18.02-.27-7.18-.17-10.73.41-17.89.59-7.17,1.1-10.74,2.52-17.95,1.42-7.21,2.4-10.83,4.58-18.11,2.19-7.28,3.53-10.96,6.35-18.3,2.82-7.34,4.48-11.04,7.73-18.42,3.25-7.39,5.07-11.11,8.53-18.5,3.46-7.39,5.36-11.08,8.77-18.46,3.41-7.38,5.18-11.08,8.29-18.45,3.11-7.37,4.68-11.04,7.25-18.39,2.58-7.35,3.79-11.03,5.63-18.37,1.84-7.35,2.6-11.02,3.57-18.36.97-7.34,1.24-11.01,1.27-18.35.03-7.34-.21-11.01-1.13-18.34-.92-7.33-1.66-11-3.47-18.33-1.8-7.33-2.99-11-5.54-18.33-2.56-7.33-4.11-10.99-7.23-18.32-3.12-7.33-4.93-10.99-8.39-18.31-3.46-7.33-5.37-11-8.93-18.32-3.56-7.32-5.46-10.98-8.86-18.3-3.39-7.32-5.13-10.98-8.12-18.3-2.98-7.32-4.44-10.98-6.8-18.3-2.36-7.31-3.43-10.97-5-18.28-1.57-7.31-2.17-10.97-2.83-18.28-.66-7.31-.76-10.97-.47-18.28.29-7.31.71-10.97,1.93-18.28,1.23-7.31,2.13-10.97,4.2-18.29,2.07-7.32,3.39-10.98,6.16-18.3,2.77-7.32,4.41-10.98,7.68-18.3,3.26-7.32,5.11-10.99,8.64-18.31,3.52-7.32,5.45-10.99,8.98-18.31,3.53-7.33,5.38-10.99,8.66-18.32,3.28-7.33,4.94-10.99,7.73-18.31,2.79-7.33,4.13-10.99,6.24-18.32,2.1-7.33,3.02-10.99,4.29-18.32,1.26-7.33,1.7-11,2.03-18.33.33-7.33.25-11-.38-18.32-.63-7.33-1.21-11-2.75-18.33-1.54-7.33-2.6-10.99-4.93-18.32-2.34-7.33-3.78-10.99-6.74-18.33-2.96-7.33-4.69-11-8.06-18.33-3.38-7.33-5.27-11-8.82-18.33-3.55-7.33-5.46-11-8.91-18.33-.46-.98-.89-1.88-1.29-2.74h-.48Z"/>
      </g>
    </g>
  </g>
</svg>