<svg xmlns="http://www.w3.org/2000/svg" viewBox="0 0 192.16 45.27"><defs><style>.cls-1{fill:#fff;}</style></defs><g id="Layer_2" data-name="Layer 2"><g id="Layer_1-2" data-name="Layer 1"><path class="cls-1" d="M6.44.3c5.29,0,9.27,1.7,9.27,8.32S11.73,17,6.44,17H1.49V.3ZM6.3,2.88H4.78V14.4H6.3c3,0,6-.74,6-5.78S9.34,2.88,6.3,2.88Z"/><path class="cls-1" d="M20.54,11.66a3.14,3.14,0,0,0,3.13,3.15,2.83,2.83,0,0,0,2.59-1.43h3.27a5.9,5.9,0,0,1-5.84,3.89c-4,0-6.3-3-6.3-6.53A6.1,6.1,0,0,1,23.6,4.32c3.81,0,6.18,3,6.07,7.34Zm0-2.19h5.87a2.7,2.7,0,0,0-2.88-2.82A3,3,0,0,0,20.58,9.47Z"/><path class="cls-1" d="M34.89.3V3.24H31.72V.3Zm0,4.3V17H31.72V4.6Z"/><path class="cls-1" d="M40.92,6.23A3.93,3.93,0,0,1,44.5,4.32c3,0,4.28,1.8,4.28,4.86V17H45.61V9.87c0-1.59-.35-3-2.14-3-2.09,0-2.55,1.7-2.55,3.65V17H37.74V4.6h3.18Z"/><path class="cls-1" d="M67.92,4.6V15.73c0,4.05-2.28,5.56-6.07,5.56-2.65,0-5-1-5.41-3.84h3c.28,1,1.13,1.52,2.56,1.52,1.65,0,2.76-.78,2.76-2.64V14.67a4,4,0,0,1-3.55,1.86c-3,0-5.38-2.5-5.38-6.11s2.28-6.1,5.38-6.1a4,4,0,0,1,3.55,1.89V4.6Zm-3,5.82c0-2.19-1.08-3.68-2.85-3.68s-2.85,1.63-2.85,3.7S60.4,14.12,62,14.12,64.88,12.63,64.88,10.42Z"/><path class="cls-1" d="M77.88,7.66a8.35,8.35,0,0,0-1.32-.07C75,7.59,74,8.16,74,10.49V17H70.79V4.6h3.13V6.76a3.32,3.32,0,0,1,3.27-2.14c.2,0,.48,0,.69,0Z"/><path class="cls-1" d="M78.68,10.81a6.22,6.22,0,1,1,12.42,0,6.21,6.21,0,1,1-12.42,0ZM80.73.3h2.64V3H80.73ZM81.9,10.81c0,2.6,1.24,4,3,4s3-1.38,3-4-1.24-4-3-4S81.9,8.21,81.9,10.81ZM88.89.3V3H86.25V.3Z"/><path class="cls-1" d="M93.13,17V6.16c0-2.48.52-3.74,1.38-4.6A6.51,6.51,0,0,1,99.31,0c3.13,0,5.61,1.29,5.61,4.28a3.48,3.48,0,0,1-1.79,3.26,4.47,4.47,0,0,1,2.8,4.46c0,3.41-2.46,5.27-6,5.27a10.11,10.11,0,0,1-2.74-.3l.48-2.55a7.1,7.1,0,0,0,2.14.34A2.65,2.65,0,0,0,102.71,12c0-2.23-1.7-2.92-4-2.92h-.44V6.55h.33c2.11,0,3.21-.52,3.21-2.09,0-1.29-.89-2.07-2.55-2.07a2.68,2.68,0,0,0-2.3.94,4.21,4.21,0,0,0-.64,2.81V17Z"/><path class="cls-1" d="M108.56,1.24h3.17V4.6h2.58V6.78h-2.58v6.4c0,1.26.44,1.51,1.56,1.51h1V17h-2.32c-2.85,0-3.38-.87-3.38-3.33V6.78h-1.75V4.6h1.75Z"/><path class="cls-1" d="M118.68,11.66a3.14,3.14,0,0,0,3.13,3.15,2.83,2.83,0,0,0,2.59-1.43h3.27a5.9,5.9,0,0,1-5.84,3.89c-4,0-6.3-3-6.3-6.53a6.1,6.1,0,0,1,6.21-6.42c3.81,0,6.18,3,6.07,7.34Zm0-2.19h5.87a2.7,2.7,0,0,0-2.88-2.82A3,3,0,0,0,118.72,9.47Z"/><path class="cls-1" d="M136.94,7.66a8.22,8.22,0,0,0-1.31-.07c-1.57,0-2.6.57-2.6,2.9V17h-3.17V4.6H133V6.76a3.33,3.33,0,0,1,3.27-2.14c.21,0,.48,0,.69,0Z"/><path class="cls-1" d="M143.84.3H156V3h-8.85V7.11h8.37V9.77h-8.37V17h-3.29Z"/><path class="cls-1" d="M160.58,17h-3.17V.3h3.17Z"/><path class="cls-1" d="M165.78,11.66a3.14,3.14,0,0,0,3.13,3.15,2.84,2.84,0,0,0,2.6-1.43h3.26a5.89,5.89,0,0,1-5.84,3.89c-4,0-6.3-3-6.3-6.53a6.1,6.1,0,0,1,6.21-6.42c3.82,0,6.19,3,6.07,7.34Zm.05-2.19h5.86a2.7,2.7,0,0,0-2.87-2.82A3,3,0,0,0,165.83,9.47Z"/><path class="cls-1" d="M183,10.51,187.58,17H184l-2.81-4-2.89,4H175.1l4.55-6.23-4.3-6.14h3.54l2.58,3.66,2.67-3.66h3.24Z"/><path class="cls-1" d="M188.76,8.05V4.6h3.4V8.05Zm0,8.92V13.52h3.4V17Z"/><path class="cls-1" d="M6.21,28.3H9.52L15.75,45H12.19L11,41.59H4.53L3.36,45H0ZM5.47,38.9h4.6l-2.3-6.58Z"/><path class="cls-1" d="M24.42,43.34a4,4,0,0,1-3.61,1.93c-3,0-4.16-1.82-4.16-4.85V32.6h3.18v7.13c0,1.65.25,3,2,3C24,42.72,24.42,41,24.42,39V32.6H27.6V45H24.42Z"/><path class="cls-1" d="M30.89,29.24h3.17V32.6h2.58v2.18H34.06v6.4c0,1.26.44,1.51,1.57,1.51h1V45H34.27c-2.85,0-3.38-.87-3.38-3.33V34.78H29.14V32.6h1.75Z"/><path class="cls-1" d="M37.83,38.81a6.22,6.22,0,1,1,12.42,0,6.21,6.21,0,1,1-12.42,0Zm3.22,0c0,2.6,1.25,4,3,4s3-1.38,3-4-1.24-4-3-4S41.05,36.21,41.05,38.81Z"/><path class="cls-1" d="M60.65,28.3v2.94H57.48V28.3Zm0,4.3V45H57.48V32.6Z"/><path class="cls-1" d="M78.72,37.77c0-1.35-.11-2.89-2-2.89-2.12,0-2.46,1.77-2.46,3.65V45H71.11v-7.2c0-1.35-.11-2.89-2-2.89-2.12,0-2.46,1.77-2.46,3.65V45H63.5V32.6h3.18v1.63a3.84,3.84,0,0,1,3.44-1.91,3.67,3.67,0,0,1,3.52,2,4.55,4.55,0,0,1,4.07-2c3.11,0,4.19,1.93,4.19,4.86V45H78.72Z"/><path class="cls-1" d="M94.55,28.3h3.31L104.09,45h-3.56l-1.17-3.38H92.87L91.7,45H88.34Zm-.74,10.6h4.6l-2.3-6.58Z"/><path class="cls-1" d="M105.52,45V28.3h3.18v5.89a4,4,0,0,1,3.56-1.87c3,0,5.38,2.58,5.38,6.47s-2.44,6.48-5.38,6.48a4,4,0,0,1-3.56-1.86V45Zm8.79-6.16c0-2.42-1.18-4.05-2.83-4.05s-2.9,1.54-2.9,4,1.15,4,2.9,4S114.31,41.22,114.31,38.81Z"/><path class="cls-1" d="M119.05,38.81a6.21,6.21,0,1,1,12.41,0,6.21,6.21,0,1,1-12.41,0Zm3.22,0c0,2.6,1.24,4,3,4s3-1.38,3-4-1.24-4-3-4S122.27,36.21,122.27,38.81Z"/><path class="cls-1" d="M132.82,45V41.52h3.41V45Z"/></g></g></svg>