<svg xmlns="http://www.w3.org/2000/svg" viewBox="0 0 226.59 83.35"><defs><style>.cls-1{opacity:0.07;}.cls-2{fill:#fff;}</style></defs><g id="Layer_2" data-name="Layer 2"><g id="Layer_1-2" data-name="Layer 1"><g class="cls-1"><rect class="cls-2" x="0.48" width="225.63" height="83.05"/></g><path class="cls-2" d="M226.59,83.35H0V.62H226.59ZM1,82.38H225.63V1.58H1Z"/><path class="cls-2" d="M52,23.13h2.66l6.16,16.36H58.29L57,36H49.49l-1.27,3.54H45.88ZM50.19,34h6.09l-3.07-8.54Z"/><path class="cls-2" d="M69.69,37.75a4.08,4.08,0,0,1-3.82,2c-2.8,0-3.88-1.9-3.88-4.68V27.35H64V34.5c0,1.88.3,3.5,2.55,3.5,2,0,3.1-1.35,3.1-4V27.35h2V39.49h-2Z"/><path class="cls-2" d="M75.58,24.3h2v3.05h2.3V29h-2.3v7.2c0,1.26.09,1.58,1.27,1.58h1v1.71H78.44c-2.32,0-2.86-.52-2.86-3V29H73.66V27.35h1.92Z"/><path class="cls-2" d="M93.07,33.47c0,4.4-3,6.32-5.82,6.32s-5.83-1.92-5.83-6.32,3-6.32,5.83-6.32S93.07,29.07,93.07,33.47ZM87.25,38c1.87,0,3.63-1.4,3.63-4.51S89.12,29,87.25,29s-3.64,1.2-3.64,4.52S85.37,38,87.25,38Z"/><path class="cls-2" d="M100.16,36.29c0-2.87,3.25-3.73,8.21-4.27v-.29c0-2.23-1.22-3-2.75-3a2.46,2.46,0,0,0-2.78,2.42h-2.12a4.61,4.61,0,0,1,4.87-4.09c3.37,0,4.86,1.58,4.83,5l0,2.8a20.79,20.79,0,0,0,.32,4.58h-2.08a14.12,14.12,0,0,1-.16-1.67c-.74,1.27-2,2-4.15,2S100.16,38.52,100.16,36.29Zm8.37-2.64c-3.73.36-6.1.92-6.1,2.59,0,1.15.89,1.92,2.35,1.92,1.92,0,3.75-.88,3.75-3.75Z"/><path class="cls-2" d="M115.55,23.13v6.14a4.24,4.24,0,0,1,4-2.12c2.8,0,5.19,2.35,5.19,6.32s-2.39,6.32-5.19,6.32a4.25,4.25,0,0,1-4-2.13v1.83h-2.06V23.13ZM119,38c2.1,0,3.48-1.65,3.48-4.56s-1.38-4.56-3.48-4.56c-1.83,0-3.54,1.35-3.54,4.56S117.17,38,119,38Z"/><path class="cls-2" d="M133.17,39.49l2.74-12.79h-3.8l.3-1.4c2.32-.07,3.65-.39,4.89-2.17h1.43l-3.48,16.36Z"/><path class="cls-2" d="M151.88,35.45h-3l-.86,4H146l.84-4H138.7l.41-1.94,10.31-10.38h2.08l-2.21,10.38h3Zm-10.31-1.94h5.66l1.61-7.42Z"/><path class="cls-2" d="M155.88,35.54a2.43,2.43,0,0,0,2.64,2.53c2.69,0,4.36-2.39,5-6.07a5,5,0,0,1-4.18,2,4.7,4.7,0,0,1-4.92-4.94,5.89,5.89,0,0,1,6.19-6.23c3.34,0,5.39,2,5.39,6.25s-2,10.7-7.6,10.7c-2.44,0-4.56-1.25-4.74-4.25ZM160,32.2a3.85,3.85,0,0,0,3.89-4c0-1.9-1.06-3.66-3.3-3.66a4,4,0,0,0-3.9,4.18A3.15,3.15,0,0,0,160,32.2Z"/><path class="cls-2" d="M168.8,28.89h1.76c1-3.35,3.39-6.05,7.61-6.05,3.72,0,6.16,2.5,6.16,5.77h-2.08a4,4,0,0,0-4.13-4.06c-3,0-4.55,1.85-5.34,4.34h6.11l-1.29,1.42h-5.14a13.43,13.43,0,0,0-.18,1.92h4.06l-1.26,1.44h-2.76c.34,2.69,1.81,4.4,4.4,4.4a4.7,4.7,0,0,0,4.74-3.5h2.06c-1,3.59-3.46,5.22-7,5.22s-6-2.37-6.46-6.12h-3.27l1.24-1.44h2a13.71,13.71,0,0,1,.18-1.92h-2.71Z"/><path class="cls-2" d="M57,59.7c0-2.86,3.25-3.72,8.21-4.26v-.29c0-2.24-1.22-3-2.75-3a2.46,2.46,0,0,0-2.78,2.42H57.53c.18-2.62,2.53-4.09,4.88-4.09,3.36,0,4.85,1.58,4.82,5l0,2.8a20.79,20.79,0,0,0,.32,4.58H65.45a14.12,14.12,0,0,1-.16-1.67c-.74,1.26-2,2-4.15,2S57,61.94,57,59.7Zm8.37-2.63c-3.72.36-6.09.92-6.09,2.59,0,1.15.88,1.92,2.34,1.92,1.92,0,3.75-.88,3.75-3.75Z"/><path class="cls-2" d="M72.36,46.55v6.14a4.24,4.24,0,0,1,4-2.12c2.8,0,5.19,2.34,5.19,6.31s-2.39,6.32-5.19,6.32a4.24,4.24,0,0,1-4-2.12v1.83H70.3V46.55Zm3.45,14.89c2.1,0,3.48-1.64,3.48-4.56s-1.38-4.55-3.48-4.55c-1.83,0-3.54,1.35-3.54,4.55S74,61.44,75.81,61.44Z"/><path class="cls-2" d="M94.9,56.88c0,4.41-3,6.32-5.82,6.32s-5.82-1.91-5.82-6.32,3-6.31,5.82-6.31S94.9,52.48,94.9,56.88ZM89.08,61.4c1.87,0,3.63-1.4,3.63-4.52S91,52.37,89.08,52.37s-3.63,1.2-3.63,4.51S87.21,61.4,89.08,61.4Z"/><path class="cls-2" d="M99.42,52.6a4.23,4.23,0,0,1,3.93-2c2.93,0,4,1.89,4,4.67v7.67h-2V55.85c0-1.88-.32-3.5-2.67-3.5-2,0-3.2,1.35-3.2,4v6.59h-2V50.77h2Z"/><path class="cls-2" d="M112.46,52.6a4.24,4.24,0,0,1,3.93-2c2.93,0,4,1.89,4,4.67v7.67h-2V55.85c0-1.88-.32-3.5-2.66-3.5-2,0-3.21,1.35-3.21,4v6.59h-2V50.77h2Z"/><path class="cls-2" d="M125.51,46.55V49h-2.06V46.55Zm0,4.22V62.91h-2.06V50.77Z"/><path class="cls-2" d="M130.13,57.52a3.74,3.74,0,0,0,3.75,3.88,3.26,3.26,0,0,0,3.32-2h2.12a5.31,5.31,0,0,1-5.44,3.81c-3.84,0-6-2.75-6-6.34,0-3.86,2.58-6.29,5.89-6.29,3.73,0,5.92,3.09,5.67,7Zm0-1.76h7.15a3.58,3.58,0,0,0-7.15,0Z"/><path class="cls-2" d="M147.92,52.91a7.05,7.05,0,0,0-1.15-.09c-1.9,0-2.85,1-2.85,3.73v6.36h-2V50.77h2v2.12a3.68,3.68,0,0,1,3.43-2.19c.2,0,.36,0,.61,0Z"/><path class="cls-2" d="M151,57.52a3.74,3.74,0,0,0,3.75,3.88,3.27,3.27,0,0,0,3.32-2h2.12a5.31,5.31,0,0,1-5.44,3.81c-3.84,0-6-2.75-6-6.34,0-3.86,2.57-6.29,5.89-6.29,3.73,0,5.92,3.09,5.67,7Zm0-1.76h7.15a3.58,3.58,0,0,0-7.15,0Z"/><path class="cls-2" d="M164.82,52.6a4.24,4.24,0,0,1,3.93-2c2.93,0,4,1.89,4,4.67v7.67h-2.05V55.85c0-1.88-.31-3.5-2.66-3.5-2,0-3.21,1.35-3.21,4v6.59h-2V50.77h2Z"/></g></g></svg>