<svg xmlns="http://www.w3.org/2000/svg" viewBox="0 0 219.54 47.55"><defs><style>.cls-1{fill:#008c9b;}.cls-2{fill:#fff;}</style></defs><g id="Layer_2" data-name="Layer 2"><g id="Layer_1-2" data-name="Layer 1"><rect class="cls-1" width="219.54" height="47.55" rx="23.78"/><path class="cls-2" d="M53.66,27.9a6.16,6.16,0,0,0,.18,1.5,4,4,0,0,0,.54,1.25,2.56,2.56,0,0,0,.93.86,2.68,2.68,0,0,0,1.34.31,5.21,5.21,0,0,0,1-.1,3.9,3.9,0,0,0,1-.33,2.21,2.21,0,0,0,.76-.62,1.49,1.49,0,0,0,.3-1,2,2,0,0,0-.64-1.5,7.24,7.24,0,0,0-1.61-1.12c-.65-.35-1.34-.68-2.08-1a13.91,13.91,0,0,1-2.09-1.13,6.31,6.31,0,0,1-1.6-1.48,3.39,3.39,0,0,1-.65-2.1,2.83,2.83,0,0,1,.58-1.85A3.89,3.89,0,0,1,53,18.48a6.52,6.52,0,0,1,1.88-.57,12,12,0,0,1,1.92-.16,11.05,11.05,0,0,1,2,.18,5.27,5.27,0,0,1,1.77.65,3.91,3.91,0,0,1,1.3,1.26,4,4,0,0,1,.59,2h-3a9,9,0,0,0-.14-1.27,3.42,3.42,0,0,0-.42-1.12,2.24,2.24,0,0,0-.8-.79,2.58,2.58,0,0,0-1.32-.3,3.71,3.71,0,0,0-1.08.15,2.51,2.51,0,0,0-.89.46,2.18,2.18,0,0,0-.59.78A2.57,2.57,0,0,0,54,20.82a1.83,1.83,0,0,0,.64,1.38,7.75,7.75,0,0,0,1.62,1.1c.65.35,1.35.69,2.1,1a17.4,17.4,0,0,1,2.1,1.13,6.55,6.55,0,0,1,1.62,1.4,2.9,2.9,0,0,1,.65,1.88,2.31,2.31,0,0,1-.51,1.42,4.49,4.49,0,0,1-1.35,1.18,7.5,7.5,0,0,1-1.95.79,8.71,8.71,0,0,1-2.31.29,9.81,9.81,0,0,1-2.17-.23,5.87,5.87,0,0,1-1.91-.75,4.14,4.14,0,0,1-1.37-1.39,4.38,4.38,0,0,1-.56-2.15Z"/><path class="cls-2" d="M67.61,32.24H64.9V18h2.71v6.57h6.33V18h2.72V32.24H73.94v-7l-6.33,0Z"/><path class="cls-2" d="M79.23,25.08a7.47,7.47,0,0,1,.57-2.93,7,7,0,0,1,1.54-2.32,7.13,7.13,0,0,1,2.35-1.53,8.13,8.13,0,0,1,5.88,0,7.15,7.15,0,0,1,2.33,1.53,7,7,0,0,1,1.55,2.32,7.95,7.95,0,0,1,0,5.86,7.15,7.15,0,0,1-1.55,2.32,7.06,7.06,0,0,1-2.34,1.54,7.68,7.68,0,0,1-2.93.55,7.57,7.57,0,0,1-2.93-.55,7.21,7.21,0,0,1-2.35-1.54A7,7,0,0,1,79.8,28,7.4,7.4,0,0,1,79.23,25.08Zm3.66,1.65A10.56,10.56,0,0,0,84,28.67a8.49,8.49,0,0,0,1.3,1.46,6,6,0,0,0,1.43.93,3.65,3.65,0,0,0,1.44.32,3,3,0,0,0,1.17-.24A2.81,2.81,0,0,0,90.59,30a4.53,4.53,0,0,0,.63-1.79A7.58,7.58,0,0,0,91.15,26a11.08,11.08,0,0,0-.8-2.54,11.26,11.26,0,0,0-1.09-2A8.24,8.24,0,0,0,88,20a6,6,0,0,0-1.42-.93,3.57,3.57,0,0,0-1.43-.32,2.83,2.83,0,0,0-1.16.24,2.88,2.88,0,0,0-1.29,1.13A4.38,4.38,0,0,0,82,21.93a7.26,7.26,0,0,0,.07,2.26A10.57,10.57,0,0,0,82.89,26.73Z"/><path class="cls-2" d="M96.56,32.22V18h4.75a17.15,17.15,0,0,1,2,.11,5.31,5.31,0,0,1,1.8.5,3.27,3.27,0,0,1,1.3,1.15,3.61,3.61,0,0,1,.5,2,3,3,0,0,1-.39,1.59,3.47,3.47,0,0,1-1,1.06,4.93,4.93,0,0,1-1.45.65,11.52,11.52,0,0,1-1.65.35c-.57.07-1.12.11-1.67.13l-1.47,0v6.69Zm4.57-7.32a3,3,0,0,0,1.27-.24,2.1,2.1,0,0,0,.83-.66,2.63,2.63,0,0,0,.44-1,5.69,5.69,0,0,0,.13-1.27,4.27,4.27,0,0,0-.14-1.15,2.81,2.81,0,0,0-.44-1,2.19,2.19,0,0,0-.77-.68,2.4,2.4,0,0,0-1.14-.25H99.56a1,1,0,0,0-.24.32,1.32,1.32,0,0,0,0,.4V24.9Z"/><path class="cls-2" d="M113.39,23.34a18,18,0,0,0,.18,2.52,22.4,22.4,0,0,0,.49,2.44,19.28,19.28,0,0,0,.69,2.18,14.66,14.66,0,0,0,.79,1.74h-2.81V18h2.47l9.11,10.53V25a11.79,11.79,0,0,0-.15-1.6,21.26,21.26,0,0,0-.42-2.11,13.54,13.54,0,0,0-.67-2A3.48,3.48,0,0,0,122.2,18H125V32.22h-.92l-10.7-11.74Z"/><path class="cls-2" d="M127.61,25.08a7.65,7.65,0,0,1,.56-2.93,7,7,0,0,1,1.55-2.32,7.19,7.19,0,0,1,2.34-1.53,7.74,7.74,0,0,1,2.95-.55,7.57,7.57,0,0,1,2.93.55,7.19,7.19,0,0,1,2.34,1.53,7,7,0,0,1,1.54,2.32,7.82,7.82,0,0,1,0,5.86,7.13,7.13,0,0,1-1.54,2.32,7,7,0,0,1-2.35,1.54,8.08,8.08,0,0,1-5.86,0,7.06,7.06,0,0,1-2.34-1.54A7.18,7.18,0,0,1,128.17,28,7.57,7.57,0,0,1,127.61,25.08Zm3.66,1.65a10.54,10.54,0,0,0,1.09,1.94,8.53,8.53,0,0,0,1.31,1.46,5.82,5.82,0,0,0,1.43.93,3.65,3.65,0,0,0,1.44.32,2.9,2.9,0,0,0,1.16-.24A2.78,2.78,0,0,0,139,30a4.38,4.38,0,0,0,.62-1.79,7.26,7.26,0,0,0-.07-2.26,11.57,11.57,0,0,0-1.89-4.49A7.87,7.87,0,0,0,136.32,20a5.92,5.92,0,0,0-1.41-.93,3.6,3.6,0,0,0-1.43-.32A2.82,2.82,0,0,0,131,20.14a4.38,4.38,0,0,0-.63,1.79,7.58,7.58,0,0,0,.07,2.26A10.61,10.61,0,0,0,131.27,26.73Z"/><path class="cls-2" d="M150.69,32.22h-2.23L143,18h3.22l4.3,11.58L152,22a7.22,7.22,0,0,0,.16-1.58,6.6,6.6,0,0,0-.14-1.2,2.9,2.9,0,0,0-.31-.8,1.25,1.25,0,0,0-.4-.42h3.76l3.68,11.52L160.9,22a5.71,5.71,0,0,0,.25-1.57,4.63,4.63,0,0,0-.14-1.19,2.78,2.78,0,0,0-.37-.81,1.33,1.33,0,0,0-.42-.43h3.12l-4.57,14.27h-2.23l-3.28-11Z"/><path class="cls-2" d="M167.32,17.67c0,.69,0,1.49-.09,2.38s-.14,1.8-.24,2.73-.22,1.84-.36,2.73-.26,1.67-.4,2.35h-.54c-.13-.68-.27-1.47-.4-2.35s-.25-1.8-.35-2.73-.19-1.84-.25-2.73-.09-1.69-.09-2.38ZM164.6,30.92a1.33,1.33,0,0,1,.43-1,1.42,1.42,0,0,1,2,2,1.44,1.44,0,0,1-2.44-1Z"/></g></g></svg>