<svg xmlns="http://www.w3.org/2000/svg" viewBox="0 0 31.42 31.42"><defs><style>.cls-1{fill:#fff;}.cls-2{fill:#f4763b;}</style></defs><g id="Layer_2" data-name="Layer 2"><g id="Layer_1-2" data-name="Layer 1"><circle class="cls-1" cx="15.71" cy="15.71" r="13.62"/><path class="cls-2" d="M15.71,4.18a11.53,11.53,0,0,1,0,23.06h0a11.53,11.53,0,0,1,0-23.06h0m0-4.18A15.71,15.71,0,1,0,31.42,15.71,15.73,15.73,0,0,0,15.71,0Z"/><path class="cls-2" d="M12.55,19.73a.61.61,0,0,1-.43-1l5-5h-4a.61.61,0,1,1,0-1.21h5.46a.59.59,0,0,1,.23,0l.18.12h0l0,0a.42.42,0,0,1,.11.18.59.59,0,0,1,0,.23h0v5.46a.61.61,0,1,1-1.21,0v-4l-5,5A.6.6,0,0,1,12.55,19.73Z"/></g></g></svg>