<svg xmlns="http://www.w3.org/2000/svg" xmlns:xlink="http://www.w3.org/1999/xlink" viewBox="0 0 88.52 119.77"><defs><style>.cls-1{fill:none;}.cls-2{fill:#1d1d1b;}.cls-3{fill:#1e1f1c;}.cls-4{fill:#1e1e1c;}.cls-5{fill:#fcfcfb;}.cls-6{fill:#f9f9f9;}.cls-7{fill:#fbfbfa;}.cls-8{fill:#f8f7f7;}.cls-9{fill:#f8f8f7;}.cls-10{fill:#f7f7f6;}.cls-11{fill:#f9f9f7;}.cls-12{fill:#f9f9f8;}.cls-13{fill:#e9e9e8;}.cls-14{fill:#f8f8f6;}.cls-15{fill:#eeeeed;}.cls-16{fill:#1d1d1c;}.cls-17{fill:#2b2b2a;}.cls-18{fill:#323231;}.cls-19{fill:#292927;}.cls-20{fill:#2a2a29;}.cls-21{fill:#2c2c2a;}.cls-22{fill:#3f403e;}.cls-23{clip-path:url(#clip-path);}.cls-24{fill:#383836;}.cls-25{fill:#002f48;}.cls-26{fill:#ea5b0c;}.cls-27{fill:#1f1f1d;}.cls-28{fill:#646463;}.cls-29{fill:#696967;}</style><clipPath id="clip-path"><rect class="cls-1" x="1.95" y="41.77" width="85.57" height="26.8"/></clipPath></defs><g id="Layer_2" data-name="Layer 2"><g id="Layer_1-2" data-name="Layer 1"><path class="cls-2" d="M33.88,30.94a2.33,2.33,0,0,1-1.39-2.42c.08-.69-.43-.51-.78-.51-4.52,0-9,0-13.57,0q-6,0-12,0c-.28,0-.77.28-.8-.36s.5-.46.82-.46q12.59,0,25.17,0c.82,0,1.23-.1,1.17-1.09a1.83,1.83,0,0,1,2.07-2H82.45a2,2,0,0,1,2.18,2.09,25.83,25.83,0,0,1,0,2.64,2.31,2.31,0,0,1-1.56,2.15H81.89a1.81,1.81,0,0,0-1.23-.19c-3.45,0-6.9,0-10.36,0-.74,0-1.27-.18-1.47-.94a9.8,9.8,0,0,0,.31-3.1c.07-.72-.29-1.09-1.08-1.17s-.84.37-.87,1,.21,1.31-.35,1.83a11,11,0,0,1-3.19.12c-.71,0-.91-.5-.93-1.11s0-1.06-.61-1.31c-.43-.32-.77-.41-.8.31a11.69,11.69,0,0,0,0,1.45c0,.48-.28,1.17.31,1.4a1.82,1.82,0,0,0,2-.3c1-.14,1.24.08,1.24,1a1.35,1.35,0,0,1-.29,1Z"/><path class="cls-3" d="M68.9,29.57c.38,1,1.18,1,2.1,1,3.31,0,6.62,0,9.93,0,.34,0,.83-.22,1,.38H64.57c0-.41,0-.83,0-1.24,0-.86-.39-.91-1-.47-1.64.12-1.85-.07-1.84-1.72,0-.56-.14-1.16.29-1.66.84-.14,1,.26,1,1C63,28.2,63,28.2,64.29,28.2h2.62C67.11,29.33,68.15,29.24,68.9,29.57Z"/><path class="cls-2" d="M18.31,18.19a4.59,4.59,0,0,1-3.87-.87c-1.68-1.3-3.51-2.39-5.23-3.63a3,3,0,0,0-1.91-.56c-.5,0-.59.19-.58.63,0,1.31,0,2.61,0,3.92,0,.59-.26.62-.7.6s-.75.06-.75-.57q0-4.89,0-9.78c0-.62.34-.56.75-.58s.73,0,.7.61c0,1.14,0,2.29,0,3.43,0,.44.09.62.58.62a3.35,3.35,0,0,0,2.2-.6c1.57-1.16,3.26-2.18,4.81-3.37a4.3,4.3,0,0,1,3.33-.61L10,12.61Z"/><path class="cls-2" d="M65.17,12.23C63.88,14.11,62.6,16,61.3,17.87c-.57.83-1.12.83-1.7,0C58.31,16,57,14.1,55.54,12.25v4c0,.42,0,.85,0,1.27s.22.9-.59.91-.64-.42-.64-.87c0-2,0-4,0-6,0-.36-.32-1,.28-1.06s1.35-.33,1.86.43c1.09,1.66,2.24,3.29,3.36,4.92.65.94.65.94,1.28,0,1.09-1.58,2.25-3.13,3.25-4.76.57-.92,1.33-.62,2.07-.62.3,0,.25.33.25.55,0,2.25,0,4.5,0,6.75,0,.59-.31.57-.74.6s-.6-.15-.59-.61c0-1.85,0-3.7,0-5.55Z"/><path class="cls-2" d="M10.76,1.36H4.57A2.91,2.91,0,0,0,1.44,4c-.14.77-.62.52-1,.52-.7,0-.33-.48-.27-.76A4.41,4.41,0,0,1,4.72,0H17a4.43,4.43,0,0,1,4.6,3.8c0,.23.31.66-.21.66s-.91.32-1.09-.42c-.49-2-1.39-2.68-3.45-2.69Z"/><path class="cls-2" d="M32.49,14.43c0-1.11,0-2.21,0-3.32,0-.48.15-.61.61-.6q3.24,0,6.48,0c.45,0,.64.09.64.58s-.28.49-.63.49c-1.67,0-3.34,0-5,0-.61,0-.88.11-.86.79.06,1.75-.16,1.45,1.45,1.47,1.38,0,2.75,0,4.13,0,.44,0,.72,0,.71.6s-.4.47-.73.47c-1.57,0-3.14,0-4.71,0-.63,0-.87.14-.85.81.07,2.07-.24,1.66,1.71,1.69,1.38,0,2.75,0,4.13,0,.36,0,.7-.07.7.51s-.28.54-.67.54c-2.13,0-4.26,0-6.38,0-.54,0-.74-.12-.72-.7C32.52,16.65,32.49,15.54,32.49,14.43Z"/><path class="cls-4" d="M84,10.52c1.31,0,2.62,0,3.93,0,.45,0,.64.11.64.6s-.33.46-.66.46c-.82,0-1.64,0-2.45,0-.6,0-.79.14-.78.76,0,1.79,0,3.58,0,5.37,0,.46,0,.79-.63.77s-.7-.24-.69-.75c0-1.79,0-3.59,0-5.38,0-.59-.15-.81-.77-.77-.85,0-1.7,0-2.55,0-.36,0-.53-.08-.52-.48s0-.6.52-.59C81.33,10.53,82.64,10.52,84,10.52Z"/><path class="cls-5" d="M53.76,27.47c0,.59,0,1.17,0,1.76,0,.29-.1.4-.4.4s-.4-.12-.4-.4V25.71c0-.2,0-.39.3-.4a.57.57,0,0,1,.63.33,8.72,8.72,0,0,0,1,1.85c0-.57,0-1.14,0-1.71,0-.31.09-.49.45-.48s.35.22.35.46v3.42c0,.19,0,.41-.25.44a.55.55,0,0,1-.65-.29c-.29-.64-.6-1.28-.9-1.91Z"/><path class="cls-6" d="M68.9,29.57l-.29,0c-1.6.13-1.6.13-1.7-1.39,0-.78,0-1.55,0-2.33,0-.42.12-.59.56-.57.61,0,1.29-.1,1.74.43a1.08,1.08,0,0,1-.06,1.57s.1.2.15.31A1.42,1.42,0,0,1,68.9,29.57Z"/><path class="cls-7" d="M40.17,27.44a2.49,2.49,0,0,1,0-.67c.15-.48-.41-1.25.33-1.42a1.9,1.9,0,0,1,2.09.45,1.31,1.31,0,0,1-.18,1.77c-.41.49.23.9.3,1.37,0,.23.42.49.05.66a.53.53,0,0,1-.77-.36c-.14-.4-.31-.78-.46-1.18a.33.33,0,0,0-.38-.23c-.23,0-.18.22-.19.37,0,.33,0,.65,0,1s-.09.47-.44.46-.36-.19-.36-.44C40.18,28.61,40.17,28,40.17,27.44Z"/><path class="cls-8" d="M77.2,27.5a9.14,9.14,0,0,1,0,1.17,1.9,1.9,0,0,1-2.42.89c-.17-.14-.12-.36-.12-.55,0-1,0-2,0-3,0-.49.11-.68.65-.7C76.91,25.24,77.23,25.58,77.2,27.5Z"/><path class="cls-9" d="M38.73,27.52a9.73,9.73,0,0,1,0,1.08c-.07.82-.66,1.1-1.37,1.08s-1.28-.32-1.29-1.16,0-1.37,0-2.05.56-1.15,1.27-1.18a1.17,1.17,0,0,1,1.39,1.07A9,9,0,0,1,38.73,27.52Z"/><path class="cls-10" d="M47.35,27.44c0,.33,0,.65,0,1s0,.53.38.58.55,0,.63-.3.17-.59-.07-.82-.59,0-.48-.43.38-.21.58-.2.72-.17.77.18A2.13,2.13,0,0,1,49,29.22a1.3,1.3,0,0,1-1.42.42c-1.63-.44-.86-1.79-1-2.78a1.21,1.21,0,0,1,1.07-1.56,1.34,1.34,0,0,1,1.5.67c.09.18.18.39,0,.54s-.53.17-.62,0c-.2-.39-.38-.74-.87-.5s-.23.75-.29,1.14a2.8,2.8,0,0,0,0,.29Z"/><path class="cls-11" d="M79.92,25.28a1.35,1.35,0,0,1,.93.27c.31.23.68.59.33.95s-.62.09-.79-.34A.46.46,0,0,0,79.8,26a.57.57,0,0,0,0,1.05c.28.1.57.17.84.27.69.27.75.85.65,1.46a1.09,1.09,0,0,1-1.18.94,1.3,1.3,0,0,1-1.45-.75c-.07-.18-.16-.41.11-.48s.49-.15.6.14a.6.6,0,0,0,.85.4c.26-.08.28-.31.3-.55,0-.54-.37-.64-.73-.74-.75-.21-1.27-.56-1.12-1.43C78.77,25.56,79.29,25.35,79.92,25.28Z"/><path class="cls-12" d="M59.84,29.11c.07.33.06.51-.23.52s-.49,0-.51-.31c0-.46-.28-.57-.71-.59a.57.57,0,0,0-.65.55c-.06.36-.3.4-.58.34-.47-.1-.17-.39-.11-.6.29-1.09.59-2.18.91-3.27.06-.21.11-.45.42-.44s.39.06.45.28Z"/><path class="cls-12" d="M71.05,27.41v-.49c0-1.66,0-1.67,1.65-1.61.25,0,.68-.16.69.29s-.42.23-.66.3-.85-.27-.88.42c0,.52-.06,1,.72.88.21,0,.59-.16.62.25s-.32.35-.56.32c-.54-.05-.82,0-.8.71s.52.46.87.53.67-.17.7.29-.4.32-.65.33c-1.7.08-1.7.07-1.7-1.64Z"/><path class="cls-13" d="M62,25.85c0,.48,0,1,0,1.44A3.48,3.48,0,0,0,62,28.81c.23.46.89.05,1.33.23a1.24,1.24,0,0,1,.21.19c-.56.88-1.42.36-2.11.36s-.31-.66-.32-1c-.05-.87,0-1.75,0-2.63,0-.28-.07-.6.39-.64S61.94,25.57,62,25.85Z"/><path class="cls-14" d="M44.28,27.47V25.72c0-.27.09-.42.4-.42s.4.14.4.42v3.51c0,.29-.12.4-.41.41s-.39-.13-.39-.41C44.29,28.64,44.28,28.06,44.28,27.47Z"/><path class="cls-15" d="M50.65,27.35c0-.52,0-1,0-1.56,0-.31.08-.5.44-.49s.38.19.38.44c0,1.17,0,2.34,0,3.52,0,.29-.16.39-.44.38s-.39-.17-.39-.44Z"/><path class="cls-16" d="M29.69,11.55c-.44-1-1.36-1-2.25-1-1.93,0-3.86,0-5.79,0-.57,0-.73.18-.72.73q0,3.27,0,6.54c0,.62.26.65.75.68s.61-.29.6-.71c0-.58,0-1.17,0-1.76,0-.43.15-.55.57-.54,1.53,0,3.07,0,4.61,0,.81,0,1.11.41,1.12,1.14,0,.49,0,1,0,1.47,0,.31.16.41.42.36s.6.18.77-.21A4.49,4.49,0,0,0,29.08,15,3.19,3.19,0,0,0,29.69,11.55Zm-1.13,1.51c0,1-.27,1.22-1.42,1.24H25.08c-.76,0-1.51,0-2.26,0-.43,0-.54-.13-.56-.55-.13-2.19-.14-2.19,2.07-2.19,1,0,1.9,0,2.85,0C28.38,11.64,28.58,11.87,28.56,13.06Z"/><path class="cls-2" d="M48,10.81a1.34,1.34,0,0,0-1.81,0c-1.49,2.5-2.94,5-4.43,7.57,1.39.1,1.41.12,2-.94a1.06,1.06,0,0,1,1.09-.61c1.5,0,3,0,4.51,0,.52,0,.89.09,1.07.61a1.39,1.39,0,0,0,2,.9C50.92,15.83,49.46,13.31,48,10.81Zm-3.18,4.84c.77-1.31,1.47-2.52,2.28-3.91l2.28,3.91Z"/><path class="cls-2" d="M78.78,17.68c-1.26-2.15-2.52-4.31-3.79-6.46a1.24,1.24,0,0,0-2.31,0L71,14.1c-.82,1.42-1.65,2.83-2.48,4.25a1.4,1.4,0,0,0,2-.91c.18-.5.55-.62,1.07-.61,1.51,0,3,0,4.52,0,.51,0,.88.07,1.06.59a1.35,1.35,0,0,0,1.91.93C79.11,18.09,78.9,17.9,78.78,17.68Zm-7.19-2,2.26-3.92,2.27,3.92Z"/><path class="cls-17" d="M67.74,28.32c.07-.26-.16-.69.4-.68s.63.26.63.68-.13.68-.61.69S67.79,28.62,67.74,28.32Z"/><path class="cls-18" d="M67.75,26.54c0-.4,0-.71.44-.64s.6.23.57.64-.27.54-.64.54S67.77,26.72,67.75,26.54Z"/><path class="cls-19" d="M41.24,25.9c.48,0,.79.14.8.6s0,.7-.54.74-.61-.12-.53-.53S40.74,26,41.24,25.9Z"/><path class="cls-20" d="M75.45,27.49c0-.33,0-.65,0-1s0-.64.41-.61a.5.5,0,0,1,.55.54v2a.49.49,0,0,1-.53.55c-.44,0-.43-.28-.43-.58Z"/><path class="cls-21" d="M36.85,27.33c.15-.43-.37-1.34.5-1.36s.49.92.58,1.45a4.79,4.79,0,0,1,0,1.07c0,.33-.17.55-.55.54a.5.5,0,0,1-.53-.56Z"/><path class="cls-22" d="M58.35,26.9c.25.39.54.77.23,1.21a.37.37,0,0,1-.34,0C57.84,27.69,58.41,27.33,58.35,26.9Z"/><g class="cls-23"><path class="cls-24" d="M27.69,67.58A1.79,1.79,0,0,1,26.32,67l.41-.4a1.41,1.41,0,0,0,1,.45c.53,0,.79-.18.79-.56s-.22-.45-.86-.64c-.81-.24-1.2-.44-1.2-1.13s.56-1.07,1.26-1.07a1.75,1.75,0,0,1,1.26.52l-.41.41a1.14,1.14,0,0,0-.89-.36c-.45,0-.64.21-.64.47s.17.4.84.6,1.22.47,1.22,1.15-.44,1.16-1.41,1.16"/><polygon class="cls-24" points="29.95 67.52 29.95 63.83 30.51 63.53 30.51 67.52 29.95 67.52"/><path class="cls-24" d="M33.76,66.28H31.87c.06.55.38.79.72.79a1,1,0,0,0,.63-.23l.33.36a1.3,1.3,0,0,1-1,.38,1.32,1.32,0,0,1-1.24-1.49c0-1,.52-1.5,1.26-1.5s1.21.66,1.21,1.44a2.11,2.11,0,0,1,0,.25M32.54,65.1c-.38,0-.61.26-.66.72h1.34c0-.39-.22-.72-.68-.72"/><path class="cls-24" d="M36.89,66.28H35c.06.55.38.79.73.79a1,1,0,0,0,.62-.23l.33.36a1.3,1.3,0,0,1-1,.38,1.32,1.32,0,0,1-1.24-1.49c0-1,.52-1.5,1.26-1.5s1.21.66,1.21,1.44a2.11,2.11,0,0,1,0,.25M35.66,65.1c-.38,0-.61.26-.65.72h1.33c0-.39-.21-.72-.68-.72"/><path class="cls-24" d="M39,67.58a1.05,1.05,0,0,1-.72-.33v1l-.57.29V64.66h.57v.27A1.08,1.08,0,0,1,39,64.6c.61,0,1.1.45,1.1,1.54s-.53,1.45-1.13,1.45m-.08-2.47a.88.88,0,0,0-.65.36v1.21a.93.93,0,0,0,.67.38c.41,0,.63-.31.63-.91s-.23-1-.65-1"/><path class="cls-24" d="M45.11,67.52h-.48l-.39-1.45c-.06-.22-.12-.48-.14-.61,0,.13-.09.39-.15.61l-.38,1.45h-.48l-.79-2.86h.55l.34,1.39c.06.22.12.49.15.63,0-.14.1-.41.15-.63l.38-1.39h.46l.38,1.4c.06.22.13.48.16.62,0-.14.08-.41.14-.63l.34-1.39h.56Z"/><path class="cls-24" d="M48.86,66.28H47c.06.55.38.79.72.79a.93.93,0,0,0,.62-.23l.33.36a1.29,1.29,0,0,1-1,.38,1.32,1.32,0,0,1-1.25-1.49c0-1,.52-1.5,1.26-1.5s1.21.66,1.21,1.44a2.11,2.11,0,0,1,0,.25M47.63,65.1c-.37,0-.6.26-.65.72h1.33c0-.39-.21-.72-.68-.72"/><polygon class="cls-24" points="49.67 67.52 49.67 63.83 50.23 63.53 50.23 67.52 49.67 67.52"/><polygon class="cls-24" points="51.17 67.52 51.17 63.83 51.74 63.53 51.74 67.52 51.17 67.52"/><path class="cls-24" d="M53,67.58a.43.43,0,0,1-.43-.43.43.43,0,1,1,.86-.06v.06a.43.43,0,0,1-.43.43"/><path class="cls-24" d="M58.75,67.52v-2c0-.24,0-.57,0-.68,0,.11-.15.38-.24.6l-.93,2.16-.92-2.16-.25-.6c0,.11,0,.44,0,.68v2h-.55V63.69h.59l.86,2a4.93,4.93,0,0,1,.26.66l.26-.66.84-2h.62v3.83Z"/><path class="cls-24" d="M61.45,67.58a1.51,1.51,0,1,1,1.3-1.51,1.33,1.33,0,0,1-1.3,1.51m0-2.46c-.42,0-.69.38-.69.95s.29,1,.72,1,.71-.43.71-1-.28-1-.74-1"/><path class="cls-24" d="M64.78,67.52h-.57l-1-2.86h.59l.51,1.55c.09.28.18.55.21.71,0-.16.11-.43.19-.71l.5-1.55h.59Z"/><path class="cls-24" d="M68.68,66.28H66.79c.06.55.38.79.72.79a1,1,0,0,0,.62-.23l.34.36a1.32,1.32,0,0,1-2.23-1.11c0-1,.51-1.5,1.25-1.5s1.21.66,1.21,1.44a2.09,2.09,0,0,1,0,.25M67.46,65.1c-.38,0-.61.26-.66.72h1.33c0-.39-.21-.72-.67-.72"/><path class="cls-24" d="M72.37,67.58a1.05,1.05,0,0,1-.72-.33v.27h-.56v-3.7l.56-.29v1.39a1.12,1.12,0,0,1,.75-.33c.62,0,1.11.45,1.11,1.54s-.54,1.45-1.14,1.45m-.07-2.47a.88.88,0,0,0-.65.36v1.21a.89.89,0,0,0,.67.38c.4,0,.62-.3.62-.91s-.23-1-.64-1"/><path class="cls-24" d="M76.63,66.28H74.74c.06.55.38.79.72.79a1,1,0,0,0,.62-.23l.34.36a1.33,1.33,0,0,1-1,.38,1.32,1.32,0,0,1-1.25-1.49c0-1,.52-1.5,1.26-1.5s1.21.66,1.21,1.44a2.11,2.11,0,0,1,0,.25M75.4,65.1c-.37,0-.6.26-.65.72h1.32c0-.39-.21-.72-.67-.72"/><path class="cls-24" d="M78.78,67.45a1.18,1.18,0,0,1-.56.13c-.39,0-.64-.25-.64-.76V65.16h-.41v-.5h.41v-.82l.55-.3v1.12h.71v.51h-.71v1.56c0,.27.09.34.3.34a.84.84,0,0,0,.41-.11Z"/><path class="cls-24" d="M81.09,67.45a1.17,1.17,0,0,1-.55.13c-.4,0-.65-.25-.65-.76V65.16h-.41v-.5h.41v-.82l.56-.3v1.12h.7v.51h-.7v1.56c0,.27.08.34.29.34a.81.81,0,0,0,.41-.11Z"/><path class="cls-24" d="M84.22,66.28H82.33c.06.55.37.79.72.79a1,1,0,0,0,.62-.23l.34.36a1.34,1.34,0,0,1-1,.38,1.32,1.32,0,0,1-1.24-1.49c0-1,.52-1.5,1.26-1.5s1.21.66,1.21,1.44a2.11,2.11,0,0,1,0,.25M83,65.1c-.38,0-.6.26-.65.72h1.32c0-.39-.21-.72-.68-.72"/><path class="cls-24" d="M86.57,65.24a.8.8,0,0,0-.43-.1c-.35,0-.57.25-.57.74v1.64H85V64.66h.56v.27a.78.78,0,0,1,.66-.33.85.85,0,0,1,.49.12Z"/><path class="cls-24" d="M87,67.58a.43.43,0,0,1-.43-.43.43.43,0,1,1,.86-.06v.06a.43.43,0,0,1-.43.43"/><path class="cls-25" d="M52.46,43.28A1.44,1.44,0,0,0,52,42.23a1.47,1.47,0,0,0-2.09,0,1.45,1.45,0,0,0-.44.93l0,15.8v0a1.48,1.48,0,1,0,2.95.11V43.28"/><path class="cls-25" d="M57.14,41.79a1.78,1.78,0,0,0-1.26,3,1.79,1.79,0,0,0,2.52,0,1.77,1.77,0,0,0-1.26-3"/><path class="cls-25" d="M58.61,46.57H55.68V59a1.48,1.48,0,1,0,2.95,0h0V46.57"/><path class="cls-25" d="M72.52,51.61a5.79,5.79,0,0,0-.34-2,5.31,5.31,0,0,0-1.06-1.73,4.69,4.69,0,0,0-3.66-1.68,4.6,4.6,0,0,0-2.87.94v-.57H61.66V59a1.47,1.47,0,0,0,1.46,1.48A1.49,1.49,0,0,0,64.18,60,1.39,1.39,0,0,0,64.59,59V51.61a2.41,2.41,0,0,1,.74-1.75,2.47,2.47,0,0,1,3.51,0,2.35,2.35,0,0,1,.73,1.75V59a1.48,1.48,0,1,0,3,.11V51.61Z"/><path class="cls-25" d="M87.52,53.41a7.39,7.39,0,0,0-1.84-5.12,6.52,6.52,0,0,0-9.28,0,7.76,7.76,0,0,0,0,10.22,6,6,0,0,0,4.63,2,6.68,6.68,0,0,0,4.22-1.2,1.52,1.52,0,0,0,.49-2.27A1.44,1.44,0,0,0,84,56.79a6.83,6.83,0,0,1-2.91.64,4,4,0,0,1-2.29-.91,5.48,5.48,0,0,1-1.21-1.76h9.86a6.67,6.67,0,0,0,.1-1.34M77.61,52a7.45,7.45,0,0,1,.54-1,3.81,3.81,0,0,1,.62-.71A3.49,3.49,0,0,1,81,49.43a3.29,3.29,0,0,1,2.23.85A5.21,5.21,0,0,1,84.42,52Z"/><path class="cls-25" d="M43.76,41.83a1.46,1.46,0,0,1,.81.57,1.5,1.5,0,0,1,.32.91V59a1.54,1.54,0,0,1-3.08,0h0V48.84l-4.87,8v0h0l0,0,0,.09,0,.05-.06.07-.06,0,0,0-.08.07,0,0-.09.06h0a.13.13,0,0,1-.09.05l0,0-.07,0a1.53,1.53,0,0,1-.63.11h-.08a2,2,0,0,1-.34-.06l0,0H35l-.09,0,0,0-.1-.05h0a.31.31,0,0,1-.09-.07l0,0-.08-.07,0,0-.05,0a.23.23,0,0,0-.07-.07.08.08,0,0,1,0-.05l-.07-.09,0,0h0v0l-4.84-8V59A1.5,1.5,0,0,1,29,60.07a1.48,1.48,0,0,1-1.09.45A1.55,1.55,0,0,1,26.34,59V43.31a1.4,1.4,0,0,1,.31-.92,1.49,1.49,0,0,1,.82-.57,1.56,1.56,0,0,1,1.74.71l6.41,10.59L42,42.53a1.47,1.47,0,0,1,.74-.65,1.13,1.13,0,0,1,.48-.11,1.25,1.25,0,0,1,.51,0"/><path class="cls-26" d="M20.49,43.34A1.56,1.56,0,0,0,19,41.77H3.49A1.57,1.57,0,0,0,2,43.34H2V53.41c4.5,0,6.78-2.26,9.2-4.16a13.92,13.92,0,0,1,9.34-3.32Z"/><path class="cls-25" d="M20.49,48.82c-4.43,0-6.69,2.27-9.08,4.15A13.81,13.81,0,0,1,2,56.3v2.61H2a1.55,1.55,0,0,0,1.54,1.55H19a1.56,1.56,0,0,0,1.54-1.55h0Z"/></g><path class="cls-27" d="M88,80.32c.81,1.4.35,2.93.41,4.4.07,2.06,0,4.12,0,6.17s-.58,2.21-2.33,1.24c-4.66-2.61-9.33-5.22-13.94-7.92-1.61-.95-2-.64-1.9,1.09.11,2,0,4,0,6,0,.73,0,1.34-1.08,1.34s-1.08-.63-1.07-1.36q0-4.62,0-9.26a2.07,2.07,0,0,1,.65-1.67h1.28c5.33,2.34,10.1,5.69,15.47,8.32.42-2,.1-3.78.21-5.58.06-.94-.21-1.94.55-2.74Z"/><path class="cls-4" d="M46.17,80.32c1.45.65,2.26,1.94,3.21,3.08C50.93,85.27,52.5,87.13,54,89c1,1.31,2,1.33,3,0,1.88-2.32,3.81-4.59,5.74-6.87.48-.57.85-1.28,1.67-1.51,2.49-.25,2.49-.25,2.22,1.73A3.7,3.7,0,0,0,63.92,84c-1.78,2.3-3.64,4.54-5.51,6.77s-3.82,2.31-5.72,0S48.92,86.2,47,83.9c-.43-.53-.78-1.18-1.56-1.3-2.06-.34-1.2-1.33-.58-2.28Z"/><path class="cls-28" d="M42.75,80.32l0,.42a3.42,3.42,0,0,1-2.4.65c-4.26,0-8.52,0-12.77,0a3,3,0,0,1-2.37-.68.35.35,0,0,0,0-.38Z"/><path class="cls-28" d="M21,80.32l0,.42a3.12,3.12,0,0,1-2.19.64c-4,0-8,0-11.94,0a2.63,2.63,0,0,1-2.15-.69.77.77,0,0,0,.07-.36Z"/><path class="cls-29" d="M66.67,82.39c.3-1.82-1-1.71-2.22-1.73a1.3,1.3,0,0,1,.08-.34H67.1C66.81,81,67.49,81.82,66.67,82.39Z"/><path class="cls-4" d="M25.19,80.7l17.54,0c.45,1.51-.25,1.85-1.73,1.83-4.55-.08-9.1,0-13.66,0-1.1,0-2.17,0-2.25,1.5-.05,1.1.2,1.58,1.5,1.57,4.84-.07,9.67,0,14.51,0,.75,0,1.76-.41,1.75,1s-1,1-1.77,1c-4.7,0-9.39,0-14.09,0-.77,0-1.94-.54-1.9,1.08,0,1.41.78,1.72,2,1.71,4.63,0,9.25,0,13.88,0,.69,0,1.79-.54,1.84.94S41.78,92.59,41,92.6q-6.83,0-13.66,0c-3.17,0-4.27-1-4.3-4,0-1.58,0-3.15,0-4.73A3,3,0,0,1,25.19,80.7Z"/><path class="cls-27" d="M4.66,80.68l16.28.06c.45,1.51-.25,1.86-1.73,1.83-3.91-.08-7.82,0-11.74,0-.5,0-1,0-1.49,0C5,82.63,4.3,82.93,4.31,84S5.06,85.44,6,85.44c3.63,0,7.26,0,10.89,0,3,0,4.5,1.23,4.5,3.51s-1.54,3.62-4.61,3.63H4.18c-.84,0-1.72.21-1.69-1.15s.94-1,1.63-1c4,0,8,0,12,0,.5,0,1,0,1.5,0,1,0,1.66-.44,1.66-1.48s-.75-1.38-1.71-1.38c-3.84,0-7.68,0-11.53,0-2,0-3.44-1-3.77-2.93A3.2,3.2,0,0,1,4.66,80.68Z"/><path class="cls-27" d="M45.87,112.54v-6.28a.5.5,0,0,1,.1-.33.4.4,0,0,1,.33-.14h1.77a.4.4,0,0,1,.42.41v6a1.09,1.09,0,0,0,0,.18c0,.09.09.12.17.06l.09-.09L54,106.12a1,1,0,0,1,.79-.37c.81,0,1.63,0,2.45,0h.05c.09,0,.19,0,.23.1s0,.17-.08.23c-.2.26-.41.51-.62.76l-4.47,5.37a.5.5,0,0,0,0,.67l3.19,3.87L57.35,119a.22.22,0,0,1,.07.09.14.14,0,0,1-.1.23.43.43,0,0,1-.16,0H54.72a1,1,0,0,1-.8-.37L50.67,115a.33.33,0,0,0-.58,0l-1.31,1.59a1.18,1.18,0,0,0-.29.8c0,.47,0,.94,0,1.4a.42.42,0,0,1-.48.47H46.36c-.34,0-.49-.14-.49-.48Z"/><path class="cls-27" d="M17.93,105.75h1a.69.69,0,0,1,.64.42l3.49,7.59a.59.59,0,0,0,.1.17c.07.08.14.08.22,0s.05-.09.08-.14L27,106.2a.72.72,0,0,1,.71-.45c.65,0,1.3,0,1.95,0h.14a.21.21,0,0,1,.19.29.61.61,0,0,1,0,.12q-3.21,6.58-6.44,13.18c0,.09-.08.2-.21.2s-.15-.11-.2-.2q-3.21-6.59-6.41-13.18l-.05-.09a.22.22,0,0,1,.22-.32h1.1Z"/><path class="cls-27" d="M15.24,106.21a.41.41,0,0,0-.45-.46H13.08a.4.4,0,0,0-.45.46v1.35a1.9,1.9,0,0,1-.05.46l-.09-.12a6,6,0,0,0-1.67-1.67,5.44,5.44,0,0,0-4.37-.72,5.89,5.89,0,0,0-3.6,2.42,7.52,7.52,0,0,0-1.38,3.93A8.55,8.55,0,0,0,2,115.64a6.39,6.39,0,0,0,2.18,2.94,6,6,0,0,0,4.71,1.09,4.88,4.88,0,0,0,3.24-2,1.94,1.94,0,0,1,.34-.36s.05-.07.08-.05,0,.06,0,.09c0,.52,0,1,0,1.55a.41.41,0,0,0,.45.45h1.7a.41.41,0,0,0,.46-.45ZM12,115.48a4,4,0,0,1-3.06,1.93,4.06,4.06,0,0,1-2.78-.59,4.17,4.17,0,0,1-1.71-2.21,5.65,5.65,0,0,1,.34-4.83,3.82,3.82,0,0,1,2.66-2,4.21,4.21,0,0,1,5,2.81,6,6,0,0,1,.32,2A5.5,5.5,0,0,1,12,115.48Z"/><path class="cls-27" d="M33.22,113H43a.41.41,0,0,0,.46-.46,10.49,10.49,0,0,0-.08-1.25,8.19,8.19,0,0,0-.68-2.52,5.52,5.52,0,0,0-4.11-3.24,7.59,7.59,0,0,0-2.47-.08,6.44,6.44,0,0,0-2.23.65,5.8,5.8,0,0,0-2.74,3,9,9,0,0,0-.66,3.4,8.32,8.32,0,0,0,.54,3.2,6.21,6.21,0,0,0,2.72,3.23,6.46,6.46,0,0,0,2.57.82,7.07,7.07,0,0,0,2.59-.18,7.32,7.32,0,0,0,3.45-2.13,6.82,6.82,0,0,0,.84-1.1c.12-.2.09-.34-.09-.45l-1.64-.92a.23.23,0,0,0-.28,0,.54.54,0,0,0-.14.16c-.13.2-.26.4-.41.59a4.56,4.56,0,0,1-1.3,1.21,3.92,3.92,0,0,1-1.89.52,3.79,3.79,0,0,1-3.23-1.37,4.83,4.83,0,0,1-1.12-3C33.11,113,33.13,113,33.22,113Zm.19-2.24a5.24,5.24,0,0,1,.6-1.4,3.4,3.4,0,0,1,2.41-1.65,3.68,3.68,0,0,1,3.21.85,3.91,3.91,0,0,1,1.13,2c0,.16.07.32.1.49H33.59A.2.2,0,0,1,33.41,110.72Z"/></g></g></svg>