<svg id="cta" xmlns="http://www.w3.org/2000/svg" width="105.594" height="22.469" viewBox="0 0 105.594 22.469">
  <defs>
    <style>
      .cls-1, .cls-3 {
        fill: #fff;
      }

      .cls-1, .cls-2, .cls-3 {
        fill-rule: evenodd;
      }

      .cls-1 {
        opacity: 0.08;
      }

      .cls-2 {
        fill: none;
        stroke: #fff;
        stroke-width: 1px;
      }
    </style>
  </defs>
  <path id="Rectangle_2_copy" data-name="Rectangle 2 copy" class="cls-1" d="M8,490.637H112.592v21.448H8V490.637Z" transform="translate(-7.5 -490.125)"/>
  <path class="cls-2" d="M8,490.637H112.592v21.448H8V490.637Z" transform="translate(-7.5 -490.125)"/>
  <path id="bekijk_de_collectie" data-name="bekijk de collectie" class="cls-3" d="M27.368,500.155a1.483,1.483,0,0,0-1.252-.621,1.773,1.773,0,0,0-1.272.626v-2.817l-1.8.283v6.693a5.766,5.766,0,0,0,2.231.374,2.564,2.564,0,0,0,1.888-.661A2.759,2.759,0,0,0,27.832,502,3.054,3.054,0,0,0,27.368,500.155Zm-2.14,3.125a1.23,1.23,0,0,1-.384-0.071v-1.737a0.954,0.954,0,0,1,.626-0.343q0.575,0,.576,1,0,1.15-.818,1.151h0Zm7.193-3.019a2,2,0,0,0-1.691-.727,2.284,2.284,0,0,0-1.742.712,2.686,2.686,0,0,0-.671,1.923,2.44,2.44,0,0,0,.722,1.918,2.82,2.82,0,0,0,1.954.646,3.922,3.922,0,0,0,1.989-.515l-0.162-1.191a3.557,3.557,0,0,1-1.585.454,0.978,0.978,0,0,1-1.131-.837h2.847a2.75,2.75,0,0,0,.03-0.485A3.024,3.024,0,0,0,32.421,500.261Zm-2.347,1.464q0.02-1.091.606-1.091t0.616,1.091H30.074Zm7.006,0.2,1.353-2.292H36.545l-1.08,2.029v-4.321l-1.8.283v7.006h1.8v-2.211L36.6,504.7l1.848-.252Zm3.422-4.422a1.038,1.038,0,0,0-.717-0.253,1.027,1.027,0,0,0-.712.258,0.869,0.869,0,0,0-.288.681,0.855,0.855,0,0,0,.288.677,1.138,1.138,0,0,0,1.428,0,0.862,0.862,0,0,0,.283-0.677A0.873,0.873,0,0,0,40.5,497.505Zm0.182,2.13h-1.8v5h1.8v-5Zm2.544-2.13a1.038,1.038,0,0,0-.717-0.253,1.027,1.027,0,0,0-.712.258,0.869,0.869,0,0,0-.288.681,0.855,0.855,0,0,0,.288.677,1.138,1.138,0,0,0,1.429,0,0.863,0.863,0,0,0,.283-0.677A0.873,0.873,0,0,0,43.228,497.505Zm0.182,2.13h-1.8v4.806a0.712,0.712,0,0,1-.151.52,0.6,0.6,0,0,1-.434.146,2.149,2.149,0,0,1-.333-0.04l0.2,1.352a2.449,2.449,0,0,0,.6.051,1.687,1.687,0,0,0,1.918-1.9v-4.937Zm4.331,2.292,1.353-2.292H47.206l-1.08,2.029v-4.321l-1.8.283v7.006h1.8v-2.211l1.131,2.282,1.847-.252Zm8.47-4.584-1.8.283v2.12a3.386,3.386,0,0,0-.969-0.141,1.887,1.887,0,0,0-1.464.651,2.943,2.943,0,0,0-.586,2.014,3,3,0,0,0,.474,1.842,1.509,1.509,0,0,0,1.262.621,1.831,1.831,0,0,0,1.353-.727l0.1,0.626h1.625v-7.289Zm-2.423,5.795q-0.6,0-.6-1,0-1.152.717-1.151a1.316,1.316,0,0,1,.5.091v1.706a0.969,0.969,0,0,1-.626.353h0Zm7.193-2.877a2,2,0,0,0-1.691-.727,2.284,2.284,0,0,0-1.742.712,2.686,2.686,0,0,0-.671,1.923,2.44,2.44,0,0,0,.722,1.918,2.82,2.82,0,0,0,1.953.646,3.922,3.922,0,0,0,1.989-.515l-0.162-1.191a3.556,3.556,0,0,1-1.585.454,0.978,0.978,0,0,1-1.131-.837h2.847a2.75,2.75,0,0,0,.03-0.485A3.024,3.024,0,0,0,60.982,500.261Zm-2.347,1.464q0.02-1.091.606-1.091t0.616,1.091H58.634Zm9.228,1.151a2.235,2.235,0,0,1-1.01.313,0.96,0.96,0,0,1-.7-0.273,1.262,1.262,0,0,1-.015-1.56,0.907,0.907,0,0,1,.676-0.267,1.94,1.94,0,0,1,.979.3l0.242-1.5a3.177,3.177,0,0,0-1.434-.343,2.405,2.405,0,0,0-2.534,2.635,2.515,2.515,0,0,0,.666,1.853,2.4,2.4,0,0,0,1.787.671,3.162,3.162,0,0,0,1.545-.4Zm3.12-3.342a2.325,2.325,0,0,0-1.757.717,2.949,2.949,0,0,0-.01,3.771,2.3,2.3,0,0,0,1.747.711,2.341,2.341,0,0,0,1.762-.716,2.932,2.932,0,0,0,.01-3.771A2.316,2.316,0,0,0,70.981,499.534Zm-0.01,3.756a0.6,0.6,0,0,1-.535-0.313,1.617,1.617,0,0,1-.192-0.848,1.56,1.56,0,0,1,.192-0.838,0.6,0.6,0,0,1,.535-0.3,0.611,0.611,0,0,1,.54.308,1.9,1.9,0,0,1,0,1.686A0.611,0.611,0,0,1,70.971,503.29Zm4.927-5.947-1.8.283v7.006h1.8v-7.289Zm2.726,0-1.8.283v7.006h1.8v-7.289Zm4.79,2.918a2,2,0,0,0-1.691-.727,2.284,2.284,0,0,0-1.742.712,2.686,2.686,0,0,0-.671,1.923,2.44,2.44,0,0,0,.722,1.918,2.82,2.82,0,0,0,1.954.646,3.922,3.922,0,0,0,1.989-.515l-0.162-1.191a3.557,3.557,0,0,1-1.585.454,0.978,0.978,0,0,1-1.131-.837h2.847a2.75,2.75,0,0,0,.03-0.485A3.024,3.024,0,0,0,83.414,500.261Zm-2.347,1.464q0.02-1.091.606-1.091t0.616,1.091H81.067Zm7.168,1.151a2.235,2.235,0,0,1-1.01.313,0.96,0.96,0,0,1-.7-0.273,1.262,1.262,0,0,1-.015-1.56,0.907,0.907,0,0,1,.676-0.267,1.94,1.94,0,0,1,.979.3l0.242-1.5a3.177,3.177,0,0,0-1.434-.343,2.405,2.405,0,0,0-2.534,2.635,2.515,2.515,0,0,0,.666,1.853,2.4,2.4,0,0,0,1.787.671,3.162,3.162,0,0,0,1.545-.4Zm3.907,0.242a0.978,0.978,0,0,1-.343.061,0.509,0.509,0,0,1-.585-0.566v-1.534h1.121l-0.222-1.444h-0.9v-1.706l-1.787.282v1.424H88.8v1.444h0.626V502.9a1.688,1.688,0,0,0,.515,1.393,2.266,2.266,0,0,0,1.454.414,3.484,3.484,0,0,0,.959-0.121Zm2.4-5.613a1.038,1.038,0,0,0-.717-0.253,1.027,1.027,0,0,0-.712.258,0.869,0.869,0,0,0-.288.681,0.855,0.855,0,0,0,.288.677,1.138,1.138,0,0,0,1.428,0,0.862,0.862,0,0,0,.283-0.677A0.873,0.873,0,0,0,94.544,497.505Zm0.182,2.13h-1.8v5h1.8v-5Zm4.79,0.626a2,2,0,0,0-1.691-.727,2.284,2.284,0,0,0-1.742.712,2.686,2.686,0,0,0-.671,1.923,2.44,2.44,0,0,0,.722,1.918,2.82,2.82,0,0,0,1.954.646,3.923,3.923,0,0,0,1.989-.515l-0.162-1.191a3.557,3.557,0,0,1-1.585.454,0.978,0.978,0,0,1-1.131-.837h2.847a2.777,2.777,0,0,0,.03-0.485A3.024,3.024,0,0,0,99.517,500.261Zm-2.347,1.464q0.02-1.091.606-1.091t0.616,1.091H97.169Z" transform="translate(-7.5 -490.125)"/>
</svg>
