<svg xmlns="http://www.w3.org/2000/svg" viewBox="0 0 97.58 112.86"><defs><style>.cls-1{isolation:isolate;}.cls-2{fill:#18104f;}.cls-3{fill:#e4ebff;}.cls-4{fill:#ffa4cf;}.cls-5{fill:#f8faff;}.cls-6{opacity:0.24;}.cls-7{fill:#8c9193;}.cls-8{fill:#31115a;}.cls-9{fill:#91a4e4;}.cls-10{fill:#d2c0fe;opacity:0.6;mix-blend-mode:multiply;}.cls-11{fill:#fff7ff;}.cls-12{fill:#e089b7;}.cls-13{fill:#ff30a2;}</style></defs><g class="cls-1"><g id="Layer_2" data-name="Layer 2"><g id="Layer_1-2" data-name="Layer 1"><circle class="cls-2" cx="78.75" cy="34.44" r="10.1"/><path class="cls-3" d="M96.91,76.92c-.44,4.57-1.09,10-1.91,16.67-.87,7-1.93,9.36-3.14,19.27H40.74c.3-12.38,0-14.12,0-14.23,0-1-.48-5.75-.5-6.87-.19-9.55-3.16-15.46-2.63-26,0,0,.51-13,2.28-14.68,1.37-1.31,4.46-2.65,7.79-3.8h0c3.42-1.17,7.45-2.3,10.85-3.12l.62-.15,20.48,1.62A69.74,69.74,0,0,1,91,51.35C97.27,55.37,98.6,59.43,96.91,76.92Z"/><path class="cls-2" d="M60.79,70.12a.28.28,0,0,1-.27-.22C58.27,58.37,47.32,54.52,47.2,54.48a.27.27,0,0,1-.18-.24.29.29,0,0,1,.16-.26l9.56-4.48-9.05-2.22a.27.27,0,0,1-.2-.33.28.28,0,0,1,.33-.2l9.8,2.41a.26.26,0,0,1,.2.23.27.27,0,0,1-.15.28L48,54.21c2.37,1,11.07,5.33,13.08,15.59a.28.28,0,0,1-.22.32Z"/><polygon class="cls-4" points="18.58 59.64 9.74 64.13 2.04 53.7 15.48 42.88 18.58 59.64"/><path class="cls-5" d="M32,43.22c.06.17-.09.39-.33.47l-1.52.52a.2.2,0,0,0-.14.14,1.56,1.56,0,0,1-1.05,1L6.18,53.1l-.75-2.21L28.2,43.15a1.61,1.61,0,0,1,1.45.17.21.21,0,0,0,.19,0l1.53-.52a.43.43,0,0,1,.55.17h0Z"/><path class="cls-5" d="M5.7,51l22.57-7.67a1.35,1.35,0,0,1,1.25.13.42.42,0,0,0,.39.06L31.43,43a.28.28,0,0,1,.29,0h0l.07.22s-.05.15-.2.2L30.07,44a.45.45,0,0,0-.28.29,1.35,1.35,0,0,1-.91.87L6.31,52.83,5.7,51m-.54-.27.89,2.62,23-7.81a1.81,1.81,0,0,0,1.19-1.16l1.52-.52a.64.64,0,0,0,.47-.74l-.08-.22h0a.63.63,0,0,0-.82-.3l-1.52.51A1.83,1.83,0,0,0,28.13,43l-23,7.81Z"/><g class="cls-6"><path class="cls-7" d="M4.63,50A.52.52,0,0,1,5,50a.33.33,0,0,1,.22.21l.16.48L28.13,43a1.83,1.83,0,0,1,1.65.19l1.52-.51a.63.63,0,0,1,.82.3L0,53.84a1.27,1.27,0,0,1,.19-1,1.93,1.93,0,0,1,1-.77L4.48,51l-.17-.5A.42.42,0,0,1,4.63,50Z"/></g><path class="cls-4" d="M.57,52.93s2.57-7,5.44-7.07a2.94,2.94,0,0,1,3.41-1.58s.6-2.47,2.9-1.7c0,0,.81-2,2.58-1.45s4.76,5.44,3.54,6.61-2.93-.81-2.93-.81,0,3.22-2.76,2.81c0,0-1.62,2.24-3.15.76,0,0,.62,2.43-1.38,2-.84-.19-1.85-2-1.85-2Z"/><path class="cls-2" d="M17.67,48.4a1.61,1.61,0,0,1-.44,0A3.8,3.8,0,0,1,15,47a.27.27,0,0,1,.42-.34,3.28,3.28,0,0,0,1.82,1.18,1.27,1.27,0,0,0,1-.33c.34-.29.25-.89.12-1.34-.56-1.94-2.94-4.74-3.92-4.88-1.27-.19-1.87,1.29-1.89,1.36a.27.27,0,0,1-.51-.2,2.47,2.47,0,0,1,2.48-1.7c1.28.19,3.77,3.2,4.36,5.27.32,1.09,0,1.64-.29,1.9A1.79,1.79,0,0,1,17.67,48.4Z"/><path class="cls-2" d="M13,50a1.68,1.68,0,0,1-.29,0,.29.29,0,0,1-.25-.3.27.27,0,0,1,.3-.24,3.55,3.55,0,0,0,1.76-.73,1.27,1.27,0,0,0,.53-.9c.1-1.12-1.15-2.79-1.89-3.79L13,43.83c-.76-1-1.18-1.3-2.19-.93a1.79,1.79,0,0,0-1.12,1.41.27.27,0,0,1-.54-.06,2.34,2.34,0,0,1,1.47-1.86c1.33-.48,2,0,2.82,1.11l.16.23c.85,1.13,2.12,2.83,2,4.16a1.91,1.91,0,0,1-.73,1.27A4.25,4.25,0,0,1,13,50Z"/><path class="cls-2" d="M11.17,51.22a1.61,1.61,0,0,1-1.64-.68.26.26,0,0,1,.09-.37.28.28,0,0,1,.38.1c0,.08.52.78,1.72.2a.72.72,0,0,0,.4-.52c.26-.94-.42-2.66-1-3.53-.37-.55-1.72-2.33-3.3-1.9a2,2,0,0,0-1.53,1.39.27.27,0,1,1-.53-.11A2.54,2.54,0,0,1,7.66,44c1.95-.52,3.48,1.49,3.9,2.12.64,1,1.4,2.81,1.09,4A1.28,1.28,0,0,1,12,51,2.91,2.91,0,0,1,11.17,51.22Z"/><path class="cls-2" d="M8.83,52.59a1.49,1.49,0,0,1-.51,0C7,52.24,5.74,50.06,5.69,50a.27.27,0,0,1,.1-.37.27.27,0,0,1,.37.1c.33.57,1.39,2.11,2.29,2.33A.65.65,0,0,0,9,52c.75-.48.46-1.77-.06-2.81-.78-1.6-2-3.42-3.63-3S1.57,51.27.82,53a.26.26,0,0,1-.35.14.28.28,0,0,1-.15-.35c.29-.68,2.84-6.63,4.86-7.19,1.07-.3,2.67,0,4.26,3.26.79,1.6.74,3-.14,3.51A1.35,1.35,0,0,1,8.83,52.59Z"/><path class="cls-8" d="M4.63,50A.52.52,0,0,1,5,50a.33.33,0,0,1,.22.21l1.22,3.58a.44.44,0,0,1-.33.51.52.52,0,0,1-.35,0,.38.38,0,0,1-.22-.21L4.31,50.51A.42.42,0,0,1,4.63,50Z"/><path class="cls-8" d="M1.22,52.11l3.45-1.17.88,2.61L2.11,54.72a1.56,1.56,0,0,1-2-.76.53.53,0,0,1,0-.12,1.27,1.27,0,0,1,.19-1A1.93,1.93,0,0,1,1.22,52.11Z"/><polygon class="cls-4" points="11.03 69.92 7.47 59.31 16.18 54.28 22.24 64.49 11.03 69.92"/><path class="cls-3" d="M39.73,51.64c-.42.77-9,20.14-9,20.14L21.53,58.91,7.27,62s10.1,35.84,20.59,33.44A30,30,0,0,0,44.2,84.84Z"/><path class="cls-2" d="M40.25,91.76l.18,8.46h.51l-.18-8.54a.21.21,0,0,0,0-.12c0-.06-3.36-5.8-3.11-8.47S40.46,73,40.49,73a.27.27,0,0,0-.16-.33.25.25,0,0,0-.32.16c-.11.3-2.64,7.47-2.9,10.25S39.88,91.11,40.25,91.76Z"/><path class="cls-5" d="M40.45,70.71l-8-21.35L29,50.65,37,72a1.81,1.81,0,0,0,2.38,1.06A1.83,1.83,0,0,0,40.45,70.71Z"/><path class="cls-9" d="M39.17,72.52a1.25,1.25,0,0,1-1.61-.73L32.07,57.05l3,1L39.9,70.92a1.26,1.26,0,0,1-.72,1.6Z"/><rect class="cls-10" x="29.04" y="49.98" width="3.66" height="0.77" transform="translate(-15.7 14.02) rotate(-20.52)"/><path class="cls-11" d="M32.59,49.63l-3.47,1.3a.48.48,0,0,1-.61-.28.47.47,0,0,1,.28-.61l3.47-1.3a.47.47,0,1,1,.33.89Z"/><path class="cls-4" d="M51.89,67.17S48.22,65.85,47.52,65,41.63,55.31,40,55.73s-9,2.77-9.23,4-.83,8,.56,9.5,1.8.07,1.8.07a2,2,0,0,0,1.74,1.32c1.24,0,1-1.25,1-1.25s.76,1.38,1.8,1.11.83-1.74.83-1.74,2.22,3.4,5,4.51,4.51,1.94,4.51,1.94Z"/><path class="cls-2" d="M38.8,65.36a.25.25,0,0,0,0-.38.27.27,0,0,0-.38,0l-.69.79a.09.09,0,0,0,0,.06h0a.29.29,0,0,0,0,.18s.47,1.89.56,2.48a2.6,2.6,0,0,1,0,.73,1.16,1.16,0,0,1-.72,1s0,0-.07,0h0a.48.48,0,0,1-.18,0,.72.72,0,0,1-.37-.11,1.35,1.35,0,0,1-.33-.26,3.16,3.16,0,0,1-.48-.64h0c-.25-.71-.77-2.26-1-3.41a4.6,4.6,0,0,1-.17-1.18,2.35,2.35,0,0,1,.39-.86c.16-.23.34-.48.54-.73s.29-.36.45-.54h0c.34-.4.7-.78,1-1.08a.27.27,0,1,0-.38-.38c-.09.09-.44.44-.85.9h0c-.15.15-.3.33-.45.51l-.56.73a5.57,5.57,0,0,0-.53.91,1.79,1.79,0,0,0-.14.48c-.09,1,1,4,1.22,4.75h0a.47.47,0,0,1,0,.09,3.54,3.54,0,0,0,.25.4h0l.08.1h0a1.85,1.85,0,0,0,1.33.82h0l.18,0h0a1.12,1.12,0,0,0,.31-.1,1.74,1.74,0,0,0,1.05-1.51,3.84,3.84,0,0,0,0-.48c0-.11,0-.22,0-.33a1.24,1.24,0,0,0,0-.23h0c-.1-.49-.28-1.29-.4-1.79h0c0-.15-.06-.26-.08-.35l.17-.19Z"/><path class="cls-2" d="M39.34,66.64h-.06L38,66.32a.26.26,0,0,1-.2-.33.27.27,0,0,1,.33-.19l1.25.31a.28.28,0,0,1,.2.33A.29.29,0,0,1,39.34,66.64Z"/><path class="cls-2" d="M34.58,71c-.95,0-1.69-1.45-1.72-1.52a.19.19,0,0,1,0-.1c0-.19-.31-4.57-.28-6.16s3-3.71,3.38-3.93a.27.27,0,1,1,.3.45c-.86.57-3.11,2.3-3.13,3.49,0,1.47.23,5.53.27,6,.21.41.84,1.35,1.37,1.14a1.29,1.29,0,0,0,.8-1,.27.27,0,1,1,.54,0,1.83,1.83,0,0,1-1.15,1.48A1.09,1.09,0,0,1,34.58,71Z"/><path class="cls-2" d="M32.28,70.25h0a1.6,1.6,0,0,1-1.21-.87c-.29-.54-.09-7.72.26-8.94C31.73,59,34.8,58.09,35.14,58a.27.27,0,1,1,.15.52c-.87.24-3.17,1.08-3.45,2.07a47.45,47.45,0,0,0-.29,8.55c.12.21.44.56.72.56h0c.25,0,.45-.28.58-.51a.27.27,0,0,1,.48.26A1.26,1.26,0,0,1,32.28,70.25Z"/><path class="cls-4" d="M49.82,15.85A46.71,46.71,0,0,0,49.64,23c.09,2.72.25,5.44.26,8.16a7.17,7.17,0,0,0,6.83,7.12l3.05.2v.07l-.19,3.19-.07,1.18-.32,5.31a6.55,6.55,0,0,0,3.51,2,12,12,0,0,0,9-1.18l5.67-3.17-1-12.71c4.45-.36,7.61-4.43,5.79-8.27-1.2-2.51-3.47-2.2-5.16-1.51a14.68,14.68,0,0,0,1.41-5.59A14.56,14.56,0,0,0,53.48,7,15.33,15.33,0,0,0,49.82,15.85Z"/><path class="cls-2" d="M57.76,25.13A1.36,1.36,0,0,1,56.53,24a3.12,3.12,0,0,1,.25-1.65,42.68,42.68,0,0,1,1.71-4.07.27.27,0,0,1,.36-.12.27.27,0,0,1,.13.36,41.47,41.47,0,0,0-1.69,4,2.74,2.74,0,0,0-.23,1.37c.07.37.4.75.76.7a.28.28,0,0,1,.31.24.27.27,0,0,1-.24.3Z"/><path class="cls-12" d="M59.59,41.76C67.77,41.35,70,38,70,38a42.4,42.4,0,0,1-10.22.55Z"/><path class="cls-2" d="M76.21,30.75h0a.21.21,0,0,0,.19-.23A7.69,7.69,0,0,1,77.38,26,5.15,5.15,0,0,1,79,24.23a3.05,3.05,0,0,1,2.27-.47.21.21,0,0,0,.09-.41,3.5,3.5,0,0,0-2.59.53,5.62,5.62,0,0,0-1.75,2,8.18,8.18,0,0,0-1,4.72A.21.21,0,0,0,76.21,30.75Z"/><path class="cls-2" d="M82.23,25.17a2.45,2.45,0,0,0-1.38-1.39,4.68,4.68,0,0,0-2-.3,6.13,6.13,0,0,0-3.47,1c-1-1.49-.59-3.55-1.26-5.23-.87-2.19-3.31-3.22-5.05-4.81-2.48-2.26-3.18-5.75-2.87-9.09a.91.91,0,0,1,.43-.59c1.07-.79,2.39-1.25,3.26-2.25,2.34.56,4.5.87,6.84,1.43a20.65,20.65,0,0,1,3.71,1.13,6.74,6.74,0,0,1,3,2.43,7.69,7.69,0,0,1,.94,2.51,16.6,16.6,0,0,1,.07,6.77,32.15,32.15,0,0,1-1,3.61C83,21.92,82.7,23.67,82.23,25.17Z"/><path class="cls-2" d="M69.58,6.68a5.22,5.22,0,0,0-4.25.22,37.87,37.87,0,0,0-3.77,2.25A17.65,17.65,0,0,1,55,11.47a5.86,5.86,0,0,1-4.92-1.16,9.9,9.9,0,0,0,2-1.7,6.19,6.19,0,0,1-6.25-1.36c-.26-.26-.38-.69-.62-1a10.52,10.52,0,0,1,3.31-2.47A29.41,29.41,0,0,1,59.47.1,16.12,16.12,0,0,1,70.53,2.73,10.61,10.61,0,0,1,69.58,6.68Z"/><polygon class="cls-13" points="79.65 45.63 74.2 56.63 70.61 60.23 61.06 69.8 58.58 57.19 57.71 52.73 54.96 54.78 59.49 41.38 64.02 46.18 77.24 39.16 79.65 45.63"/><path class="cls-2" d="M74.1,57.36a.3.3,0,0,1-.2-.08L64,46.57,55.15,55a.27.27,0,0,1-.38,0,.27.27,0,0,1,0-.39L63.84,46a.26.26,0,0,1,.19-.08.31.31,0,0,1,.19.09L74,56.62,79.4,45.51a.28.28,0,0,1,.37-.12.26.26,0,0,1,.12.36L74.35,57.21a.27.27,0,0,1-.21.15Z"/><path class="cls-2" d="M59.51,94.52v.61l0,2.65L59,112.86h-.55l.48-17L59,95v-.06c0-.16,0-.31,0-.46s0-.1,0-.15A5.9,5.9,0,0,1,59.18,93c0-.08.07-.16.1-.15.12-.16.21.48.23,1.33Z"/><path class="cls-3" d="M96.91,76.92c-.44,4.57-1.09,10-1.91,16.67a25,25,0,0,1-7.17,7l-.06,0-.19.1a9.29,9.29,0,0,1-2.89,1.06,9,9,0,0,1-2.2.1h0a8.79,8.79,0,0,1-1.11-.1c-4.22-.48-10.26-2.49-16.24-4.85l-.08,0c-2.08-.82-4.16-1.69-6.15-2.54l-.36-.16c-7.9-3.42-14.34-6.69-14.34-6.69L47.4,75l2.22-8.7.12-.48,4.78,2.07h0l25.3,11,.54-1.34.2-.5L86.63,61.9Z"/><path class="cls-2" d="M80.85,77.09,80.57,77,79,76.37l-.38-.14L61,69.7l-.6-.22-10.59-4a.28.28,0,0,0-.22,0,.29.29,0,0,0-.14.17l-.11.43h0l-2.26,8.69L43.89,87.25a.27.27,0,0,0,.13.31l1,.54c.06-.17.12-.34.19-.51l-.78-.41,3.15-12.12,2.26-8.7.06-.22,4.59,1.71h0l25.84,9.62.29.11a.27.27,0,0,0,.35-.16A.26.26,0,0,0,80.85,77.09Z"/><path class="cls-2" d="M80.62,103.09a13.64,13.64,0,0,1-5.7-1.25L44.06,87.65a.32.32,0,0,1-.15-.43h0a.31.31,0,0,1,.42-.15l30.86,14.2A13,13,0,0,0,90,98.49l3-3.15a.32.32,0,0,1,.45,0h0a.32.32,0,0,1,0,.45l-3,3.15A13.65,13.65,0,0,1,80.62,103.09Z"/><path class="cls-2" d="M78.82,76.41a.27.27,0,0,1-.12,0,.27.27,0,0,1-.13-.36l4.9-10.08a.27.27,0,0,1,.36-.12.26.26,0,0,1,.13.36l-4.9,10.08A.28.28,0,0,1,78.82,76.41Z"/><path class="cls-2" d="M61.53,69.8a.23.23,0,0,1-.16-.06.27.27,0,0,1-.06-.38c6.81-9,22.62-11.19,26-11.55l-7.82-6.52a.26.26,0,0,1-.08-.3.27.27,0,0,1,.25-.18H91.06a.28.28,0,0,1,.28.27.29.29,0,0,1-.28.28H80.44l7.75,6.45a.27.27,0,0,1-.16.48c-.18,0-18.82,1.49-26.28,11.4A.29.29,0,0,1,61.53,69.8Z"/></g></g></g></svg>