<svg width="493" height="233" viewBox="0 0 493 233" fill="none" xmlns="http://www.w3.org/2000/svg">
<path d="M341.198 225.503C340.434 226.26 339.136 225.719 339.136 224.643V193.251C339.136 192.168 340.448 191.63 341.208 192.401L363.735 215.243C364.489 216.008 363.947 217.304 362.873 217.304H350.307C350.206 217.304 350.106 217.316 350.009 217.341L349.557 217.456C349.348 217.509 349.156 217.617 349.003 217.769L341.198 225.503Z" fill="#D0E500"/>
<path d="M359.574 228.068C359.825 228.681 359.536 229.383 358.925 229.641L352.882 232.194C352.264 232.455 351.552 232.164 351.294 231.545L341.441 207.95C341.182 207.33 341.477 206.619 342.098 206.364L348.344 203.796C348.964 203.541 349.672 203.838 349.925 204.457L359.574 228.068Z" fill="#D0E500"/>
<path d="M348.753 210.839L346.747 211.693C346.131 211.955 345.84 212.668 346.096 213.285L352.279 228.222C352.535 228.839 353.241 229.128 353.856 228.866L355.862 228.012C356.478 227.75 356.769 227.037 356.513 226.419L350.33 211.483C350.074 210.865 349.368 210.577 348.753 210.839Z" fill="#4D1727"/>
<path d="M343.504 197.99C342.744 197.219 341.431 197.757 341.431 198.84V219.08C341.431 220.153 342.723 220.695 343.489 219.944L348.085 215.439C348.238 215.289 348.428 215.183 348.635 215.13L349.091 215.015C349.188 214.99 349.288 214.978 349.388 214.978H357.363C358.437 214.978 358.979 213.682 358.225 212.917L343.504 197.99Z" fill="#4D1727"/>
<path d="M441.961 25.9095C442.803 26.5793 442.418 27.9324 441.35 28.0588L410.175 31.7497C409.1 31.8769 408.411 30.637 409.087 29.7916L429.123 4.73548C429.794 3.89637 431.144 4.28221 431.271 5.34914L432.748 17.8284C432.76 17.928 432.784 18.0258 432.82 18.1194L432.987 18.5547C433.064 18.7565 433.194 18.934 433.363 19.0686L441.961 25.9095Z" fill="#D0E500"/>
<path d="M442.348 7.35966C442.928 7.03843 443.658 7.2435 443.986 7.81963L447.232 13.5206C447.564 14.1033 447.359 14.8447 446.775 15.174L424.501 27.7326C423.917 28.0622 423.175 27.8533 422.849 27.2668L419.564 21.3654C419.239 20.7804 419.45 20.0421 420.036 19.7178L442.348 7.35966Z" fill="#D0E500"/>
<path d="M426.51 20.1314L427.595 22.0234C427.927 22.6035 428.669 22.809 429.253 22.4824L443.358 14.5857C443.941 14.2591 444.145 13.5242 443.813 12.9441L442.729 11.0521C442.396 10.472 441.654 10.2665 441.07 10.5931L426.965 18.4898C426.382 18.8164 426.178 19.5514 426.51 20.1314Z" fill="#4D1727"/>
<path d="M414.368 26.8548C413.692 27.7003 414.38 28.9402 415.455 28.8129L435.555 26.4332C436.62 26.3071 437.008 24.9604 436.172 24.288L431.157 20.2534C430.991 20.1193 430.863 19.9434 430.786 19.7436L430.618 19.3051C430.582 19.2114 430.558 19.1136 430.546 19.014L429.608 11.0945C429.482 10.0276 428.132 9.64172 427.461 10.4808L414.368 26.8548Z" fill="#4D1727"/>
<path d="M8.16085 179.655C7.323 178.98 7.7159 177.629 8.78498 177.509L39.9811 174.003C41.0568 173.883 41.7382 175.127 41.0572 175.968L20.8729 200.905C20.1969 201.74 18.849 201.346 18.729 200.278L17.3258 187.79C17.3146 187.691 17.2911 187.593 17.2557 187.499L17.0914 187.063C17.0152 186.86 16.8863 186.682 16.7179 186.546L8.16085 179.655Z" fill="#D0E500"/>
<path d="M7.66407 198.202C7.08221 198.52 6.353 198.31 6.02839 197.732L2.81629 192.012C2.48798 191.427 2.69748 190.687 3.28351 190.361L25.6313 177.935C26.2179 177.609 26.9579 177.822 27.2808 178.411L30.5302 184.332C30.8523 184.919 30.6368 185.656 30.0492 185.977L7.66407 198.202Z" fill="#D0E500"/>
<path d="M23.577 185.524L22.5042 183.626C22.1753 183.044 21.4342 182.834 20.8489 183.157L6.6967 190.97C6.11142 191.293 5.90359 192.027 6.23249 192.609L7.30526 194.507C7.63416 195.089 8.37525 195.299 8.96054 194.976L23.1128 187.163C23.6981 186.84 23.9059 186.106 23.577 185.524Z" fill="#4D1727"/>
<path d="M35.7593 178.873C36.4404 178.032 35.759 176.788 34.6832 176.909L14.5695 179.169C13.5036 179.289 13.1086 180.633 13.9403 181.31L18.9306 185.375C19.0965 185.51 19.2236 185.687 19.299 185.887L19.4646 186.326C19.4999 186.42 19.5235 186.518 19.5347 186.618L20.4252 194.543C20.5452 195.61 21.8931 196.004 22.569 195.169L35.7593 178.873Z" fill="#4D1727"/>
<path d="M467.588 200.844C467.317 201.885 465.924 202.082 465.375 201.157L449.348 174.165C448.795 173.234 449.649 172.101 450.696 172.376L481.728 180.516C482.767 180.788 482.962 182.179 482.038 182.728L471.233 189.143C471.147 189.195 471.067 189.256 470.996 189.327L470.666 189.656C470.513 189.809 470.404 190 470.35 190.209L467.588 200.844Z" fill="#D0E500"/>
<path d="M484.698 193.667C485.227 194.066 485.336 194.817 484.942 195.351L481.05 200.632C480.652 201.171 479.891 201.285 479.353 200.885L458.834 185.627C458.296 185.226 458.186 184.464 458.589 183.928L462.649 178.53C463.052 177.995 463.812 177.888 464.346 178.292L484.698 193.667Z" fill="#D0E500"/>
<path d="M466.597 184.378L465.308 186.136C464.912 186.675 465.026 187.437 465.561 187.838L478.504 197.524C479.039 197.924 479.793 197.812 480.189 197.273L481.478 195.514C481.873 194.975 481.759 194.213 481.224 193.812L468.282 184.126C467.746 183.726 466.992 183.838 466.597 184.378Z" fill="#4D1727"/>
<path d="M455.523 176.009C454.476 175.735 453.622 176.867 454.175 177.798L464.509 195.202C465.056 196.124 466.444 195.931 466.719 194.894L468.371 188.674C468.426 188.467 468.535 188.279 468.686 188.128L469.019 187.796C469.09 187.725 469.169 187.663 469.256 187.612L476.113 183.541C477.037 182.992 476.841 181.601 475.802 181.329L455.523 176.009Z" fill="#4D1727"/>
<path d="M105.229 60.8778C105.478 59.8311 106.866 59.6046 107.435 60.518L124.022 87.1705C124.594 88.0895 123.764 89.2399 122.711 88.9871L91.5163 81.4961C90.4716 81.2452 90.2472 79.859 91.1593 79.2913L101.828 72.6515C101.913 72.5985 101.992 72.5352 102.061 72.4629L102.384 72.1269C102.534 71.971 102.64 71.7779 102.69 71.5676L105.229 60.8778Z" fill="#D0E500"/>
<path d="M88.2727 68.4097C87.7355 68.0212 87.6107 67.2729 87.9929 66.7311L91.7744 61.3703C92.161 60.8224 92.9192 60.6931 93.4655 61.0819L114.298 75.9088C114.845 76.298 114.971 77.0578 114.578 77.6024L110.632 83.0832C110.241 83.6266 109.483 83.7491 108.94 83.3567L88.2727 68.4097Z" fill="#D0E500"/>
<path d="M106.563 77.3195L107.815 75.5343C108.199 74.9869 108.07 74.2276 107.526 73.8383L94.3846 64.4246C93.8411 64.0353 93.0893 64.1634 92.7054 64.7107L91.4533 66.4959C91.0694 67.0433 91.1988 67.8026 91.7423 68.1919L104.884 77.6056C105.428 77.9949 106.179 77.8668 106.563 77.3195Z" fill="#4D1727"/>
<path d="M117.809 85.4549C118.862 85.7077 119.691 84.5573 119.119 83.6382L108.425 66.454C107.858 65.5434 106.475 65.7652 106.221 66.8074L104.699 73.061C104.649 73.2689 104.544 73.4596 104.396 73.6139L104.07 73.9524C104.001 74.0247 103.922 74.0881 103.837 74.1411L97.0665 78.3548C96.1543 78.9225 96.3788 80.3087 97.4234 80.5596L117.809 85.4549Z" fill="#4D1727"/>
</svg>
