<svg xmlns="http://www.w3.org/2000/svg" viewBox="0 0 261.75 127.67"><defs><style>.cls-1{fill:#010427;}.cls-2{fill:#0471df;}.cls-3{fill:#0571df;}.cls-4{fill:#0d74dd;}.cls-5{fill:#0672df;}.cls-6{fill:#0772df;}.cls-7{fill:#0c73dd;}.cls-8{fill:#0772e0;}.cls-9{fill:#fefefe;}.cls-10{fill:#0873e0;}.cls-11{fill:#277ad5;}.cls-12{fill:#fcfcfc;}.cls-13{fill:#0973e0;}.cls-14{fill:#1779dd;}.cls-15{fill:#297dd8;}.cls-16{fill:#3480d4;}.cls-17{fill:#0974e0;}.cls-18{fill:#0b74e0;}.cls-19{fill:#0a74e0;}.cls-20{fill:#0c75e0;}.cls-21{fill:#3d85d4;}.cls-22{fill:#0d75e0;}.cls-23{fill:#3080d6;}.cls-24{fill:#0e76e0;}.cls-25{fill:#3180d6;}.cls-26{fill:#0f77e0;}.cls-27{fill:#2e80d8;}.cls-28{fill:#1178e1;}.cls-29{fill:#0d76e0;}.cls-30{fill:#197de2;}.cls-31{fill:#4b89ca;}.cls-32{fill:#3380d4;}.cls-33{fill:#147ae1;}.cls-34{fill:#157ae1;}.cls-35{fill:#0b6fd6;}.cls-36{fill:#3480d2;}.cls-37{fill:#1379e1;}.cls-38{fill:#1371d4;}.cls-39{fill:#2282e3;}.cls-40{fill:#1279e1;}.cls-41{fill:#3b85d3;}.cls-42{fill:#3580d1;}.cls-43{fill:#a4b0b8;}.cls-44{fill:#8d9ca4;}.cls-45{fill:#a09888;}.cls-46{fill:#1c77d4;}.cls-47{fill:#9ea9b0;}.cls-48{fill:#3789de;}.cls-49{fill:#978a76;}.cls-50{fill:#94856a;}.cls-51{fill:#918a7f;}.cls-52{fill:#237ad5;}.cls-53{fill:#8d9da7;}.cls-54{fill:#897f6c;}.cls-55{fill:#eaeaed;}.cls-56{fill:#aea99c;}.cls-57{fill:#2b80de;}.cls-58{fill:#817159;}.cls-59{fill:#857f74;}.cls-60{fill:#5e8ab4;}.cls-61{fill:#bbcfe6;}.cls-62{fill:#d4d5da;}.cls-63{fill:#0671de;}.cls-64{fill:#b8b8c1;}.cls-65{fill:#eeeff1;}.cls-66{fill:#f6f8fb;}.cls-67{fill:#cfd0d6;}.cls-68{fill:#d6d9e0;}.cls-69{fill:#8ea8c8;}.cls-70{fill:#257cda;}.cls-71{fill:#277bd5;}.cls-72{fill:#3a80ce;}.cls-73{fill:#3d87d4;}.cls-74{fill:#357fce;}.cls-75{fill:#0175ee;}.cls-76{fill:#2c7fd9;}.cls-77{fill:#2d80db;}.cls-78{fill:#2079da;}.cls-79{fill:#2e80d9;}.cls-80{fill:#1d7add;}.cls-81{fill:#4a83bd;}.cls-82{fill:#3783d6;}.cls-83{fill:#2f7ed3;}.cls-84{fill:#6d87a1;}.cls-85{fill:#326aa4;}.cls-86{fill:#457cb6;}.cls-87{fill:#3b78b8;}.cls-88{fill:#3d78b5;}.cls-89{fill:#3d79b6;}.cls-90{fill:#3775b6;}.cls-91{fill:#3e79b6;}.cls-92{fill:#267cda;}.cls-93{fill:#487aae;}.cls-94{fill:#3d7bbd;}.cls-95{fill:#1f77e2;}.cls-96{fill:#477db6;}.cls-97{fill:#4479b2;}.cls-98{fill:#316397;}.cls-99{fill:#2e72b8;}.cls-100{fill:#417ebe;}.cls-101{fill:#4578af;}.cls-102{fill:#3978b8;}.cls-103{fill:#417cbb;}.cls-104{fill:#3376bd;}.cls-105{fill:#3975b5;}.cls-106{fill:#3b75b3;}.cls-107{fill:#3f76b0;}.cls-108{fill:#5080b2;}.cls-109{fill:#437cb5;}.cls-110{fill:#457cb4;}.cls-111{fill:#4279b1;}.cls-112{fill:#5885b4;}.cls-113{fill:#4479b1;}.cls-114{fill:#375e87;}.cls-115{fill:#205a94;}.cls-116{fill:#306aa5;}.cls-117{fill:#807462;}.cls-118{fill:#c2bcb1;}.cls-119{fill:#0b70e1;}.cls-120{fill:#b2aea1;}.cls-121{fill:#9e947e;}.cls-122{fill:#237cdd;}.cls-123{fill:#0e74dc;}.cls-124{fill:#887c6b;}.cls-125{fill:#7f7c79;}.cls-126{fill:#3c84ce;}.cls-127{fill:#a6adaf;}.cls-128{fill:#b9b3a8;}.cls-129{fill:#0f74dc;}.cls-130{fill:#448cd9;}.cls-131{fill:#9d927d;}.cls-132{fill:#877c6a;}.cls-133{fill:#b8b7b3;}.cls-134{fill:#1a78da;}.cls-135{fill:#1777d9;}.cls-136{fill:#4d8bcc;}.cls-137{fill:#297cd2;}.cls-138{fill:#8d8678;}.cls-139{fill:#1a79e0;}</style></defs><g id="Layer_2" data-name="Layer 2"><g id="Layer_1-2" data-name="Layer 1"><path class="cls-1" d="M122.62,27.28l.06,1c.17.46,0,.95.16,1.4l0,1.17c.17.46,0,.95.16,1.4l.06,1.17c.17.45,0,1,.16,1.39l0,1.19c.17.44,0,.93.16,1.38l.06,1.19c.17.44,0,.93.15,1.37l.06,1.2c.17.44,0,.93.16,1.36l.06,1.21c.17.44,0,.92.15,1.36l.06,1.21c.17.44-.05.92.16,1.35l.06,1c.18.51-.07,1.06.15,1.56l.06,1c.17.46,0,1,.16,1.4,0,1.6,0,1.6-1.69,1.6h-8.35c-.3-.66,0-1.37-.21-2l-.06-2.9c-.21-.75.11-1.54-.18-2.29-3.77,0-7.55,0-11.33-.08-.53,0-.65.33-.81.68-.89,1.94-1.8,3.87-2.63,5.83a1.05,1.05,0,0,1-1.14.81q-9,0-18,0c-.81,0-1-.39-.8-.93.66-2.32,1-4.72,1.53-7.06s1-4.5,1.48-6.74c.87-3.91,1.89-7.78,2.88-11.66,0-.06.06-.12.08-.19s.31-.48-.18-.44c-1.5,3.17-3,6.33-4.49,9.51C78.91,41,77,45.34,75,49.65c-.59,1.31-1.22,2.6-1.78,3.93a.93.93,0,0,1-1,.65c-2.72,0-5.43,0-8.14,0-.8,0-1-.19-1-1,0-8.53,0-17.07,0-25.6V26.47A10.71,10.71,0,0,0,62.23,30c-.75,4.92-1.63,9.8-2.67,14.66-.61,2.89-1.26,5.76-1.83,8.66-.12.65-.28.91-1,.9-2.57,0-5.14,0-7.71,0-.87,0-.81-.5-.68-1,.73-2.9,1.27-5.83,1.87-8.76s1.31-5.75,1.92-8.64,1.13-5.8,1.72-8.69c.45-2.15,1-4.29,1.44-6.45.34-1.56.62-3.13.91-4.69.09-.45.24-.74.79-.73q6.27,0,12.54,0c.83,0,.79.47.79,1q0,12.69,0,25.39V43c1-2.06,1.91-3.86,2.65-5.75.47-1.22,1.1-2.38,1.66-3.56,1.2-2.55,2.31-5.15,3.54-7.69,1-2.1,1.87-4.28,3-6.35.67-1.25,1.24-2.56,1.79-3.86.16-.38.28-.55.71-.55,4.29,0,8.57,0,12.86,0,.65,0,.7.29.59.79C95.55,23.18,94,30.28,92.46,37.4c-.85,4-1.64,8.05-2.59,12.05a3.51,3.51,0,0,0,0,.86.53.53,0,0,0,0,.57c.08.1.14-.08.22-.09,2.29-4.85,4.89-9.55,7.29-14.35.77-1.54,1.46-3.12,2.18-4.68.22-.37.23-.87.68-1.1,2-3.5,3.63-7.24,5.52-10.83.69-1.31,1.41-2.62,2.07-3.95a.92.92,0,0,1,1-.6c4,0,8.06,0,12.09,0,.31,0,.68-.11.77.36s0,.93.15,1.37l.06,1.2c.17.44,0,.93.16,1.37l.06,1.2c.17.44-.05.92.15,1.36l.06,1.21c.17.44,0,.92.16,1.36l.06,1C122.65,26.23,122.41,26.78,122.62,27.28Z"/><path class="cls-1" d="M115,98.08l-.06-1.43c-.17-.51,0-1.07-.15-1.58l-.06-1.42c-.18-.52,0-1.07-.16-1.58l-.06-1.42c-.17-.52.05-1.07-.15-1.58l-.06-1.42c-.18-.52,0-1.07-.16-1.59L114,84.65c-.17-.52,0-1.08-.15-1.59l-.06-1.41c-.17-.52.05-1.08-.15-1.6l-.06-1.4c-.18-.52,0-1.08-.16-1.6l-.06-1.4c-.17-.52,0-1.09-.15-1.6l-.06-1.4c-.18-.52,0-1.09-.16-1.6l-.06-1.4c-.17-.53.05-1.09-.15-1.61l-.06-1.39c-.18-.53,0-1.09-.16-1.61l0-1.39c-.18-.53,0-1.09-.16-1.62-.13-.91.25-1.15,1.17-1.12,2.67.07,5.35.05,8,0,.8,0,1.1.23,1.05,1a16.29,16.29,0,0,0,.06,1.71c.2,1.1-.08,2.22.16,3.32l.06,3.11c.2,1-.09,2.09.16,3.12l0,3.1c.2,1.1-.08,2.22.16,3.32v7.27c-.21.52,0,1.09-.16,1.62l0,.85c0,.2.06.42-.08.6.15-.17.1-.44.27-.6a63,63,0,0,1,2.87-8.11c.87-2,1.82-4,2.58-6.06.71-1.92,1.7-3.74,2.52-5.61s1.59-3.79,2.39-5.68c.33-.75.74-1.47,1-2.23s.62-.75,1.26-.75q15.9,0,31.8,0c.9,0,1.16.1.88,1.12a65.21,65.21,0,0,0-1.31,6.51c-.13.81-.49.87-1.13.86-3.6,0-7.21,0-10.81,0-.8,0-1,.31-1.17,1-.27,1.38-.55,2.75-.84,4.13-.14.7-.09,1.07.84,1,3.28-.07,6.57,0,9.85,0,.8,0,1,.17.75,1-.53,2.1-1,4.23-1.41,6.36-.17.88-.54,1.19-1.48,1.17-3.28-.07-6.57,0-9.85,0-.6,0-.84.13-1,.76-.4,2.18-.89,4.34-1.36,6.58H161c1.3,0,1.3,0,1.05,1.27-.43,2.17-.87,4.34-1.3,6.51-.1.55-.32.82-1,.81q-10.77,0-21.53,0c-.69,0-.83-.09-.66-.9.83-4.07,1.71-8.14,2.6-12.21.86-3.9,1.54-7.84,2.36-11.76.61-2.88,1.37-5.73,1.92-8.61a20.93,20.93,0,0,0,.43-2.06c.18-.26.06-.55.09-.81,0-.05,0-.1,0-.16s0-.07,0,0a1.16,1.16,0,0,1-.26.28A10.56,10.56,0,0,0,143.6,66a1.75,1.75,0,0,1-.78,1.52q-4,8-8,16c-1.45,2.93-2.88,5.88-4.32,8.82a1.77,1.77,0,0,1-.78,1.52c-.89,1.76-1.79,3.52-2.67,5.29-.21.43-.41.73-1,.72-3.48,0-7,0-10.44,0-.2,0-.44.06-.54-.21C114.93,99.14,115.16,98.59,115,98.08Z"/><path class="cls-1" d="M62.89,99.9l-1.25-.06q.72-3.24,1.41-6.43a1.78,1.78,0,0,1,.06-1,5.42,5.42,0,0,0,.17-.82c.07-.3.15-.6.22-.91.51-2.11,1.12-4.21,1.51-6.35.48-2.61,1.28-5.15,1.8-7.75.18-.89.5-1.74.76-2.61.2-.26.06-.55.07-.83a1.36,1.36,0,0,1,.11-.28c0-.08,0-.12,0-.12s0,.06,0,.09a1.33,1.33,0,0,1-.41.47L56.88,96c.13.41-.09.65-.39.85-.38.79-.81,1.56-1.13,2.37a1,1,0,0,1-1.09.68c-3,0-6,0-9,0a14.72,14.72,0,0,1-.14-2.57,5.21,5.21,0,0,1,0-2.42c0-4.23,0-8.47,0-12.7a8.56,8.56,0,0,1-.2-2.94c.05-2-.08-4,.06-5.57-.18,1.41-.46,3.16-.81,4.9-.21.47,0,1.07-.46,1.47-.35,1.87-.68,3.74-1.06,5.6-.8,3.87-1.64,7.74-2.46,11.61,0,0,0,.06-.05.09-.18.82-.09,2-.6,2.37s-1.7.16-2.59.16c-2.17,0-4.34,0-6.51,0a1.59,1.59,0,0,1,0-1.21c.66-1.11.6-2.4.89-3.61.53-2.16.94-4.36,1.4-6.54q.8-3.84,1.6-7.68c.27-1.28.57-2.57.86-3.85a1.83,1.83,0,0,1,0-.9,6.68,6.68,0,0,0,.18-.89,2.9,2.9,0,0,1,.42-1l1.44-6.87c.4-1.9.87-3.78,1.17-5.69.09-.55.26-.66.7-.66H51.87a.59.59,0,0,1,.61.32c-.06,7.85,0,15.7,0,23.55,0,.91.18,1.83.18,2.75.5-.07.37-.59.61-.83.41-.64.43-1.47,1-2,.88-1.86,1.78-3.71,2.65-5.57s1.6-3.43,2.38-5.15c1.4-3.07,2.78-6.15,4.18-9.22a17.84,17.84,0,0,0,1.2-2.63,1.56,1.56,0,0,1,1.82-1.25c3.92.08,7.85,0,11.77,0,.7,0,1.13-.12.88,1-1.71,7.59-3.31,15.22-4.93,22.83-1,4.77-2.06,9.54-3,14.33-.14.74-.43.81-1,.81-2.1,0-4.21,0-6.31,0A.76.76,0,0,1,62.89,99.9Z"/><path class="cls-2" d="M251.62,34.05a.39.39,0,0,0-.18,0,1.2,1.2,0,0,1-.41.23,6.41,6.41,0,0,0-1.51.37,6.86,6.86,0,0,1-1.08.28,11.5,11.5,0,0,0-1.73.34,1.16,1.16,0,0,1-.49-.05,1.94,1.94,0,0,0-1.63-.06c-1.53.41-3.09.71-4.63,1.09a4.11,4.11,0,0,0-.67.17c-1.7.42-1.68.42-1.7,2.19a28.33,28.33,0,0,1-.1,3.91,1.9,1.9,0,0,0-.09.53c0,4.7-.07,9.41,0,14.12a.66.66,0,0,1-.17.69c-.32.14-.54,0-.72-.27a2.74,2.74,0,0,0-.69-1c-.79-.88-1.47-1.84-2.18-2.78a25.64,25.64,0,0,1-1.47-2.11,1.72,1.72,0,0,0-.66-.86c-.57-.72-1-1.5-1.65-2.19s-.87-1.25-1.32-1.86a2.57,2.57,0,0,0-.51-.82,1.84,1.84,0,0,1-.17-.22,3.5,3.5,0,0,0-.62-.76,33.13,33.13,0,0,1-2.36-3.15,2.79,2.79,0,0,0-.72-1l-.18-.22c-.43-.57-.94-.23-1.42-.11-1.34.46-2.74.69-4.12,1-1.09.29-2.21.46-3.28.82-3,.65-6,1.38-8.92,2.23-.88.26-1.81.34-2.71.58a4.9,4.9,0,0,1-1.14.16.42.42,0,0,1-.33-.32c.3-1,1.16-1.54,1.53-2.45h0a21.63,21.63,0,0,0,2-2.2,2.66,2.66,0,0,0,.72-.81,5.8,5.8,0,0,1,.45-.52,2.89,2.89,0,0,0,.64-.9c1.21-1.23,2.15-2.69,3.34-3.95a3.7,3.7,0,0,0,.72-.86c.2-.27.44-.49.66-.75A14,14,0,0,0,213.34,31a6.85,6.85,0,0,1,1.08-1.32,1.3,1.3,0,0,0,.55-.75c-.13-.84-1-1.27-1.22-2a2.77,2.77,0,0,0-.85-1.1,31.24,31.24,0,0,1-2.17-2.93,10.83,10.83,0,0,0-1.81-2.39c-.1-.16-.19-.33-.28-.5a10.53,10.53,0,0,0-1-1.48,4.16,4.16,0,0,0-.72-.85A31.49,31.49,0,0,0,204,13.85c-.1-.16-.17-.33-.26-.5a2.82,2.82,0,0,0-.66-.84,2.4,2.4,0,0,1-.49-.7c-.08-.29-.42-.6-.17-.87s.72,0,1.08,0a1.33,1.33,0,0,1,.28.1,23.79,23.79,0,0,0,2.68,1l.27.1a6,6,0,0,0,1,.41l.39.16a4.49,4.49,0,0,0,1.39.38,1.45,1.45,0,0,1,.45.13A72.88,72.88,0,0,0,218,16a7.68,7.68,0,0,1,1.14.49,4.92,4.92,0,0,0,1.09.45c.42.16.85.28,1.26.43.6.28,1.22.5,1.84.73a.66.66,0,0,0,1-.31c1.52-2.09,3.28-4,4.79-6.07.65-.51,1-1.31,1.66-1.79a2.2,2.2,0,0,0,.48-.69c1.11-1.34,2.13-2.74,3.25-4.07.79-.76,1.32-1.73,2.14-2.46.28-.24.54-.74,1-.28.06,1.77,0,3.53,0,5.29v8.07c0,2.13,0,4.26-.1,6.39-.14.13-.07-.15,0,0,.22-2.11,0-4.23.09-6.34V7.76c0-1.92,0-3.84,0-5.76A.24.24,0,0,1,238,2a2.67,2.67,0,0,1,.15,1.37c.12,6.12.09,12.25.09,18.38a5.15,5.15,0,0,0,0,1,2,2,0,0,0,.12.31c0,.18,0,.35-.14.45s-.19.14,0,.15a2.75,2.75,0,0,1,.89.3c.2.26.57-.06.78.2a2.25,2.25,0,0,0,1,.34,3.33,3.33,0,0,1,.94.42,5.75,5.75,0,0,0,1.44.46c2.31.89,4.65,1.7,7,2.54a1.42,1.42,0,0,1,.29.1,23.85,23.85,0,0,0,2.35.92l.67.24.91.3c.29.1.63,0,.89.25a1.93,1.93,0,0,0,1,.35,7.51,7.51,0,0,0,1.74.49,1.47,1.47,0,0,1,.76.79c0,.35-.29.4-.54.48l-.44.13a6.86,6.86,0,0,0-1,.22l-.28.1c-1.23.24-2.42.62-3.64.88a1.08,1.08,0,0,0-.93.75C252,34.05,251.79,34,251.62,34.05Z"/><path class="cls-1" d="M112,79.5A41.49,41.49,0,0,1,110,87c-2.16,5.29-5.4,9.52-10.82,11.83a21.43,21.43,0,0,1-5.69,1.49,27.8,27.8,0,0,1-4.28,0A14.3,14.3,0,0,1,82,97.92c-2.93-2-4.38-4.81-5.19-8.12-.15-.65-.09-1.31-.28-1.94s0-1.09-.16-1.61a3.36,3.36,0,0,0,0-1.48c.24-.74,0-1.52.16-2.26a26.73,26.73,0,0,1,1.8-8.23,24.48,24.48,0,0,1,5.19-8.43A19,19,0,0,1,95.43,60.4a25.49,25.49,0,0,1,4.28,0,15.24,15.24,0,0,1,7.93,3.23c.56-.07.72.31.83.74a15.29,15.29,0,0,1,3.09,5.92,32.93,32.93,0,0,1,.62,4.08,5.89,5.89,0,0,1,0,1.92l-.06,1.86C111.92,78.58,112.14,79.06,112,79.5Z"/><path class="cls-1" d="M138.08,54.68a13.23,13.23,0,0,1-6.49-2.13,12.84,12.84,0,0,1-5.45-8.3c-.16-.67-.22-1.36-.32-2-.15-.37,0-.78-.15-1.15,0-1.29,0-2.58,0-3.87.2-.45,0-.94.16-1.4A24.34,24.34,0,0,1,129.32,25a21.6,21.6,0,0,1,4.15-5.08c2.77-2.54,6.08-3.79,9.56-4.76a20.91,20.91,0,0,1,3.19-.39,33.65,33.65,0,0,1,4.71,0,26.25,26.25,0,0,1,8.8,2.4c.62.32.59.61.36,1.11C159,20.64,157.83,23,156.7,25.4c-.3.63-.62.28-1,.06A16.64,16.64,0,0,0,150,23.55a12.32,12.32,0,0,0-3.21,0,9.3,9.3,0,0,0-5.9,3c-3.15,3.16-4.33,7-4.53,11.33a6.24,6.24,0,0,0,0,2.32c0,2.3.65,4.29,2.84,5.44a5.91,5.91,0,0,0,3.4.44c.43-.18.91.05,1.34-.16.83,0,1.43,0,1.54-1.19a28.87,28.87,0,0,1,1-4.14c.16-.65.07-1-.79-1-1.71.07-3.42,0-5.21,0l1.94-8.12c5.3-.09,10.59,0,15.89,0a.4.4,0,0,1,.37.17q-.85,3.88-1.7,7.79c-.86,4-1.78,8-2.52,12.06a2,2,0,0,1-1.76,1.69,69.9,69.9,0,0,1-6.86,1.36c-.38.15-.8,0-1.18.16l-1.18.06A43.41,43.41,0,0,1,138.08,54.68Z"/><path class="cls-1" d="M172.17,40.39a2.77,2.77,0,0,0,0-1.28c.23-.81,0-1.65.16-2.46a27.11,27.11,0,0,1,2.23-9.39,21.41,21.41,0,0,1,3.16-5.45c.22-.26.3-.63.63-.81a14.76,14.76,0,0,1,2.8-2.61c.19-.32.56-.39.82-.6a19.75,19.75,0,0,1,8.83-3,30.59,30.59,0,0,1,4.49,0,32.53,32.53,0,0,1,7.08,1.72c.43-.15.8.1,1.18.23a15.91,15.91,0,0,1,1.77,1c.32.27.57.55.25,1-1.13,2.29-2.29,4.57-3.39,6.88-.31.65-.55.72-1.17.37a18.19,18.19,0,0,0-6.24-2.38,8,8,0,0,0-8.33,3.36,19.32,19.32,0,0,0-3.33,15c.44,2.7,2.38,4.14,5.13,4.23a22.06,22.06,0,0,0,8.92-1.87c.36-.14.68-.42,1.17-.3,0,2.63,0,5.27,0,7.9,0,.61-.41.68-.79.84a29.88,29.88,0,0,1-8.48,2,33.65,33.65,0,0,1-4.71,0,13.12,13.12,0,0,1-6.83-2.41,12.79,12.79,0,0,1-4.91-8c-.14-.67-.2-1.35-.3-2S172.39,41,172.17,40.39Z"/><path class="cls-1" d="M173.21,24.86c-.76,2.49-1.15,5.05-1.7,7.59Q169.23,43,167,53.58c-.13.6-.35.65-.81.64h-9.11c-.57,0-.81,0-.66-.82.81-4.31,1.88-8.56,2.65-12.87.62-3.46,1.51-6.88,2.22-10.32s1.47-6.75,2.11-10.15a27.07,27.07,0,0,1,1-4.23c.11-.33.13-.55.57-.55,3.35,0,6.7,0,10.1,0-.49,2.95-1.34,5.75-1.7,8.64C173.23,24.21,173.48,24.59,173.21,24.86Z"/><path class="cls-3" d="M218.17,61.43l-2.23-.59c.95-2.9,1.88-5.79,2.85-8.68,1.21-3.61,2.45-7.21,3.67-10.81.23-.26-.07-.65.23-.89.58-.33,1.13-.47,1.54.26h0c.2.37.59.62.7,1,.05.27-.15.52-.11.79a2.26,2.26,0,0,1-.21.81A6.43,6.43,0,0,0,224,45a1,1,0,0,1-.11.28,3.27,3.27,0,0,0-.4,1.26c-.29.75-.48,1.53-.8,2.26a6.76,6.76,0,0,0-.53,1.59,1.72,1.72,0,0,1-.19.52,8.11,8.11,0,0,0-.41,1.17c-.08.22-.15.45-.22.67-.15.41-.28.82-.41,1.24-.28.71-.41,1.47-.69,2.18a5,5,0,0,0-.6,1.63c-.07.23-.14.46-.22.69-.09.39-.42.67-.49,1.07a1.38,1.38,0,0,1,0,.29C218.64,60.36,218.66,61,218.17,61.43Z"/><path class="cls-3" d="M236.66,57.46l.4.4c.45.14.37-.21.32-.4a9.87,9.87,0,0,1-.08-1.8V52.48c0-1.6,0-3.2,0-4.8a2.71,2.71,0,0,1,0-.4c.14-3.08.17-6.15.18-9.23,0-.42-.19-.94.34-1.24a.57.57,0,0,1,.28.29,47.37,47.37,0,0,1,.1,5.33c0,1.67,0,3.34,0,5-.06,1.94-.05,3.89-.19,5.83a3.33,3.33,0,0,0,0,.77,5.75,5.75,0,0,0,.65,1.79,5.42,5.42,0,0,1,.43,1c.07.14.12.28.18.42.87.53,1.85.07,2.76.27s1,.2.33,1.07a1.24,1.24,0,0,1-.71.36h-.09l-.06.05c-.18.14-.3.34-.48.48l-.21.19c-.38.28-.74.57-.48,1.12,0,.09.07.18.1.27a4.64,4.64,0,0,0,.59,1.82c0,.43.41.88,0,1.29-.59,0-.93-.53-1.45-.69a2.57,2.57,0,0,1-.89-.71,1.41,1.41,0,0,0-.69-.56l-.24-.06c-.3,0-.46.18-.62.38a3.57,3.57,0,0,1-1.09.92,4.59,4.59,0,0,0-1,.56.5.5,0,0,1-.3,0c-.43-.43-.07-.9-.08-1.35a1.94,1.94,0,0,1,.43-.86s0-.09,0-.14,0,0,0-.07a.55.55,0,0,1,0-.71c.6-.77,0-1-.56-1.22A3.64,3.64,0,0,1,232.76,58c0-.53.33-.55.69-.55.7,0,1.4,0,2.1-.09.28,0,.55-.06.83-.05A.39.39,0,0,1,236.66,57.46Z"/><path class="cls-3" d="M203.89,13.29a.48.48,0,0,1,.19.44c.08.16,0,.26-.1.37-.4.27-.21.79-.48,1.11-.2.14-.37,0-.54-.07a4.1,4.1,0,0,1-.63-.81,1.88,1.88,0,0,1-.14-.24,4.37,4.37,0,0,0-.52-.82c0-.08-.1-.16-.14-.24s-.21-.41-.49-.38a3.71,3.71,0,0,1-.66.15,7.17,7.17,0,0,0-1.66.25h0c-.38.13-.75.52-1.17.15s-.06-.52,0-.77a1.37,1.37,0,0,1,.2-.22,3,3,0,0,0,1-1.22,1.24,1.24,0,0,1,.18-.22c.42-.4.81-.8.23-1.36a1.2,1.2,0,0,1-.15-.24,5.1,5.1,0,0,0-.65-1.07,1,1,0,0,1-.1-.29c0-.41-.39-1,.39-1.09s1.43.93,2.35.67a2.58,2.58,0,0,1,.39-.14c.29-.06.43-.29.57-.52a1.21,1.21,0,0,1,.2-.19,1.44,1.44,0,0,0,.46-.67,1.39,1.39,0,0,1,.36-.44c.37-.12.46-.67,1-.6a.33.33,0,0,1,.25.33c0,.68,0,1.37,0,2.05a2.64,2.64,0,0,1,0,.28,1.39,1.39,0,0,0,0,.9l.15.21c.29.28.72.32,1,.57l.22.09a3.06,3.06,0,0,1,.83.25c.29.32,1.53.24.47,1.13-.64.12-1.19.6-1.89.51l0,0a.31.31,0,0,0,.05.1.29.29,0,0,1-.2.2,2.89,2.89,0,0,1-1.15-.34h0a2.76,2.76,0,0,0-1.39-.31c-.06.47.4.63.53,1l.42.6A6.48,6.48,0,0,0,203.89,13.29Z"/><path class="cls-4" d="M213.23,50.61c.54-1.4,1-2.55-.77-3.26,1.72.33,2.27-.56,2.41-2.28.76,1.2.67,3,2.48,2.14a.48.48,0,0,1-.3.56,1.16,1.16,0,0,0-.52,1.83c.11.2.18.41,0,.59s-.29,0-.37-.06C215.1,48.82,214.29,49.84,213.23,50.61Z"/><path class="cls-5" d="M30.49,98.62c.38.4,0,.81,0,1.21-.36.16-.56.36-.1.64.21.12.47.16.69.26s.68.25.48.66a.6.6,0,0,1-.79.22,1.06,1.06,0,0,0-1.49.58c-.19.41-.64.77-1.08.56s-.3-.68-.09-1.1-.14-.76-.54-.92c-.56-.23-1-.49-.48-1.15a3.51,3.51,0,0,1,1.25,0c.47.21.69,0,.92-.41A1,1,0,0,1,30.49,98.62Z"/><path class="cls-6" d="M18.05,69c-.48,0-.6-.25-.56-.69.07-.71-.24-1.08-1-.89-.42.11-.68,0-.78-.43s.25-.67.58-.69c.85-.07,1.59-.15,1.43-1.31a.45.45,0,0,1,.49-.43c.33,0,.59.24.57.53-.08,1,.33,1.28,1.24,1.13a.46.46,0,0,1,.56.36c.06.3-.19.47-.45.47a1.26,1.26,0,0,0-1.44,1.37A.62.62,0,0,1,18.05,69Z"/><path class="cls-7" d="M206.65,24.92c.23,1.13.23,1.13,2.4,1.5-1.48.61-1.82,1.53-1,2.92-1.14-.83-2.15-1.3-3,0a.54.54,0,0,1-.18-.81c.64-.83.3-1.33-.52-1.7-.35-.28-.35-.67.1-.61,1.12.14,1.48-.55,1.8-1.36h0C206.38,24.74,206.53,24.72,206.65,24.92Z"/><path class="cls-8" d="M27.39,62.53c-.14-.1-.39-.19-.43-.34a.75.75,0,0,1,.15-.8c.65-.49.57-.91.07-1.46a.69.69,0,0,1,0-.9c.23-.19.59,0,.77.19a1.44,1.44,0,0,0,1.89.39.55.55,0,0,1,.76.18c.17.3-.07.49-.26.62-.65.42-.61.88-.13,1.39.23.25.39.56.15.86s-.62,0-.73-.13C28.9,61.63,28.18,62.17,27.39,62.53Z"/><path class="cls-6" d="M25.76,51.19c-.07.34-.31.44-.62.46-.68.07-1.21.23-1.14,1.13a.75.75,0,0,1-.72.79c-.59.06-.43-.43-.52-.72-.16-.55-.42-.9-1.08-.79-.34,0-.76,0-.81-.45s.31-.54.69-.59c.74-.1,1.47-.22,1.33-1.28a.45.45,0,0,1,.48-.45c.3,0,.48.11.48.43,0,.84.36,1.21,1.22,1.08A.61.61,0,0,1,25.76,51.19Z"/><path class="cls-9" d="M241,64.06c.27-.43-.23-.82,0-1.23a.47.47,0,0,1,.25-.68c1,.44.8,1.39.7,2.09s-.87.81-1.45.23-1.71-.75-2.3-1.6c-.22-.32-.67.15-1,.4a5.58,5.58,0,0,1-2.45,1.59.65.65,0,0,1-.84-.43,2.49,2.49,0,0,1,.89-2.5.53.53,0,0,1,.11.56,3.92,3.92,0,0,1-.2,1c0,.21-.06.45.29.36a.28.28,0,0,1,.18,0,9.34,9.34,0,0,0,.91-.64l1-.87a1.73,1.73,0,0,1,.92-.47l0,0a3.88,3.88,0,0,0,.85.66l.82.66A6.87,6.87,0,0,0,241,64.06Z"/><path class="cls-6" d="M62.89,99.9h1c-.37.85-.48,1.6.68,1.91.21,0,.42.21.34.45a.52.52,0,0,1-.7.32,1.1,1.1,0,0,0-1.68.63.6.6,0,0,1-.92.19c-.36-.21-.3-.49-.12-.82s.4-.77-.34-.92c-.38-.08-1-.37-.83-.88s.79-.36,1.1-.24C62.2,100.84,62.58,100.51,62.89,99.9Z"/><path class="cls-10" d="M22.78,93.17c0,.45-.28.54-.64.31a1.45,1.45,0,0,0-2,.14.48.48,0,0,1-.71,0c-.34-.33-.06-.51,0-.7.26-.53.44-1-.2-1.4a.63.63,0,0,1-.2-.86c.21-.31.61-.18.86,0a1.14,1.14,0,0,0,1.66,0c.23-.19.56-.36.84,0s-.09.5-.23.71c-.28.4-.36.75.1,1.09A1.05,1.05,0,0,1,22.78,93.17Z"/><path class="cls-9" d="M241.37,23.79c.43-.41.85-.19,1.28,0,2.29,1,4.68,1.63,7,2.46a26.66,26.66,0,0,0,2.88,1,1.08,1.08,0,0,1,.82,1.22c-.4.3-.66-.06-1-.21a2.72,2.72,0,0,0-1.39-.39,1.21,1.21,0,0,1-.42-.13,1.62,1.62,0,0,0-1.13-.5,1.62,1.62,0,0,1-.83-.28,1.54,1.54,0,0,0-.88-.39,1.11,1.11,0,0,1-.4-.13,1.38,1.38,0,0,0-.9-.28,3.52,3.52,0,0,1-1.62-.67,6.46,6.46,0,0,0-1.2-.46,1.19,1.19,0,0,1-.25-.13,1.17,1.17,0,0,0-1-.26,1,1,0,0,1-.68-.25C241.52,24.23,241.26,24.1,241.37,23.79Z"/><path class="cls-8" d="M10.54,33a1,1,0,0,0-.48-1.53.48.48,0,0,1-.25-.71c.22-.33.5-.18.75-.1.64.21,1.22.25,1.63-.42a.56.56,0,0,1,.76-.17.49.49,0,0,1,.08.75c-.51.7-.07,1,.48,1.24.25.12.61.28.44.61a.55.55,0,0,1-.89.18c-.59-.42-1-.21-1.34.37a.78.78,0,0,1-.89.43C10.36,33.54,10.69,33.17,10.54,33Z"/><path class="cls-11" d="M203.44,45c2.53-.64,5.06-1.31,7.6-1.92a21,21,0,0,1,4.15-.86,1.62,1.62,0,0,1,1-.09.22.22,0,0,1,.07.31A67,67,0,0,1,209,44.18a1.63,1.63,0,0,0-.73,0,.64.64,0,0,1-.2,0c0,.08.1.07.11.14A31.53,31.53,0,0,1,203,45.68l-.08-.1C203,45.27,203.28,45.2,203.44,45Z"/><path class="cls-12" d="M236.43,1.93l.65-1.07a11.63,11.63,0,0,0,.86-.86c.59.1.42.57.43.93,0,2.19,0,4.39,0,6.58a2.78,2.78,0,0,1,.3,1.65,30,30,0,0,1-.11,3.91v9.22a.76.76,0,0,1,.23.89.36.36,0,0,1-.45,0h0c-.47-.35-.29-.85-.29-1.29q0-9.46,0-18.93a2.31,2.31,0,0,0-.15-1.25c-.14-.34-.32-.2-.51,0s-.49.61-.95.54a.16.16,0,0,1-.05-.17S236.42,1.93,236.43,1.93Z"/><path class="cls-13" d="M12.71,50.19c-.62,0-.41.58-.58.87s-.38.6-.8.53-.32-.44-.29-.67a.81.81,0,0,0-.8-1c-.37-.06-.75-.09-.73-.56s.54-.52.89-.48a1.12,1.12,0,0,0,1.36-.81c.09-.26.17-.55.57-.4s.45.28.36.56c-.27.85.21,1.13.92,1.23.43.06.51.3.38.67A1.94,1.94,0,0,1,12.71,50.19Z"/><path class="cls-14" d="M52.48,88.4a6,6,0,0,1-.08-.73V62a6,6,0,0,1,.08-.73c0,3.21.05,6.42.06,9.63,0,4.74,0,9.49,0,14.45.44-.29,1,.09,1.16-.68.1-.38.43-.26.6.07,0,.77-.53,1.34-.77,2-.27.06-.28-.29-.57-.33C52.65,87,53.07,87.85,52.48,88.4Z"/><path class="cls-10" d="M63.07,121.34c-.08.52-.91.53-.83,1.12s.7.76.5,1.21-.63.27-.87-.06c-.42-.56-.84-.75-1.48-.28a.62.62,0,0,1-.86-.13c-.26-.35,0-.61.21-.82.46-.37.7-.73.24-1.3a.56.56,0,0,1,0-.78c.2-.15.49,0,.66.2a1.28,1.28,0,0,0,1.76.46C62.68,120.82,63,121,63.07,121.34Z"/><path class="cls-6" d="M63.5,90.66c.38.29.06.57,0,.85a1.77,1.77,0,0,0-.2.9,2.05,2.05,0,0,1-.24,1c-.6-.22-.79.3-1.06.63a.83.83,0,0,1-.92.35c-.42-.16-.19-.57-.11-.89.13-.52.29-1-.52-1.18-.31,0-.4-.37-.35-.68a.39.39,0,0,1,.55-.33c.89.28,1.68.33,2.25-.6C63,90.61,63.29,90.67,63.5,90.66Z"/><path class="cls-15" d="M206.69,38.42q2.53-3,5.08-6a4.78,4.78,0,0,1,.44-.46.21.21,0,0,1,.26,0c.25.39-.17.6-.25.91a1.31,1.31,0,0,1-.62.63c-.22.28-.46.56-.66.86a36.22,36.22,0,0,1-3.44,4.08c-.18.3-.44.54-.63.82a.71.71,0,0,1-.41.45c-.22.29-.46.56-.67.86-.71.72-1,1.85-2.17,2.12-.07-.4.21-.63.43-.9C204.94,40.63,205.81,39.52,206.69,38.42Z"/><path class="cls-16" d="M238.36,23.16l.43,0a.27.27,0,0,1,.26-.07,5.9,5.9,0,0,1,1.25.64l.24.08a4,4,0,0,1,1.24.45c.13.29.38.25.62.22a1.92,1.92,0,0,1,1.1.4h0a5.71,5.71,0,0,0,1.27.41c.57.19,1,.77,1.66.68.29.14.69,0,.91.34l.35.09a2.85,2.85,0,0,1,.93.36.91.91,0,0,0,.81.28c.18.12.47,0,.55.31-.11.47.75.2.57.74a38.73,38.73,0,0,1-5-1.67c-.77-.25-1.51-.6-2.26-.9a3.83,3.83,0,0,0-1.51-.45c-.3-.09-.47-.45-.84-.42-.35-.18-.75-.25-1.1-.42l-.63-.2c-.34-.13-.64-.44-1-.25l-.55-.26C237.87,23.27,238.22,23.45,238.36,23.16Z"/><path class="cls-9" d="M221.85,50.77l.2-.38c.19-.3.06-.79.54-.93l.13,0a1.6,1.6,0,0,1,0,1.5,27.8,27.8,0,0,0-1.42,4.21c-.27,1.09-1,2-1.08,3.15a.89.89,0,0,1-.89.79.68.68,0,0,1,0-.69c0-.23-.06-.46.16-.63.46-.49.44-1.18.69-1.75a5.78,5.78,0,0,1,.62-2.11c.37-.37.34-.87.46-1.31,0-.22-.08-.48.2-.62C221.82,51.71,221.68,51.18,221.85,50.77Z"/><path class="cls-9" d="M239.23,37.09a4.19,4.19,0,0,0-.44,2.06c0,2.88,0,5.77,0,8.65a2.49,2.49,0,0,1-.43,1.7.86.86,0,0,1-.21-.69c-.14-3.62-.11-7.24-.11-10.86,0-.32,0-.65.26-.88a.83.83,0,0,1,.57-.16A.59.59,0,0,1,239.23,37.09Z"/><path class="cls-17" d="M49,107.49c-.11-1.39-1.25-.73-2-1-.42-.16,0-.65.27-.76a1.31,1.31,0,0,0,.92-1.44.36.36,0,0,1,.26-.41.4.4,0,0,1,.5.28c.17.65.51.88,1.15.56a.49.49,0,0,1,.73.21c.09.27-.21.42-.44.51-.54.21-.9.45-.62,1.16C49.94,107.08,49.55,107.34,49,107.49Z"/><path class="cls-18" d="M51.56,103c0-.48.33-.54.68-.54.55,0,1.1,0,1-.85,0-.29.24-.41.5-.43s.43.26.42.5c0,.68.32.85.91.81.29,0,.62,0,.58.44s-.29.38-.56.35c-.75-.11-1,.31-1,1a.59.59,0,0,1-.67.55c-.46,0-.35-.37-.35-.62,0-.58-.21-.82-.83-.71A.53.53,0,0,1,51.56,103Z"/><path class="cls-19" d="M26.74,83.47a2.09,2.09,0,0,1,.44.32c.36.42.72.58,1.23.24.23-.16.56-.23.74.09a.45.45,0,0,1-.22.63c-.58.36-.31.76-.07,1.16.12.2.41.39.11.61a.42.42,0,0,1-.58-.1c-.45-.65-1-.57-1.54-.2a.5.5,0,0,1-.6,0c-.16-.13-.26-.43-.14-.58a1.4,1.4,0,0,0,.18-1.79C26.18,83.72,26.26,83.38,26.74,83.47Z"/><path class="cls-9" d="M246.3,35.08l.36,0a6,6,0,0,0,1.78-.37c.36,0,.62-.44,1-.28.23-.06.49-.18.47.25a3.71,3.71,0,0,1-1.86.91c-1.75.36-3.46.89-5.19,1.32-.62.15-1.28-.08-1.91.28-.23.13-.44-.26-.47-.58a.88.88,0,0,1,.49-.38,2.32,2.32,0,0,1,.63-.11,2.4,2.4,0,0,0,1.65-.34A15,15,0,0,1,246.3,35.08Z"/><path class="cls-13" d="M8.84,26c-.06.33-.32.34-.57.35a.84.84,0,0,0-.91.93.55.55,0,0,1-.55.64.45.45,0,0,1-.48-.55c.08-.75-.39-.72-.87-.67-.32,0-.58,0-.66-.34s.34-.59.56-.6c.73,0,1.14-.3,1.2-1.05,0-.29.27-.29.48-.28a.28.28,0,0,1,.3.35c-.18.83.45.78.94.9C8.49,25.75,8.82,25.6,8.84,26Z"/><path class="cls-20" d="M14.87,15.43c.07,0,.2,0,.21,0,.25.89.88,1.12,1.74,1.18.25,0,0,.44-.24.49-.61.14-1,.38-1,1.11a.57.57,0,0,1-.48.62c-.4,0-.43-.26-.52-.53a.8.8,0,0,0-1-.56.49.49,0,0,1-.61-.29c-.08-.34.19-.46.49-.56.56-.18,1.2-.3,1-1.17C14.37,15.45,14.65,15.43,14.87,15.43Z"/><path class="cls-9" d="M260.23,38.36a3.62,3.62,0,0,0-.43,2.14,1.22,1.22,0,0,1-.64,1.15c-.45.32-.71-.06-1-.31s-.92-.51-1.33-.06c-.59.67-1.25.8-1.77.09s.16-1.12.67-1.51c.2.15.2.38.26.59a.59.59,0,0,0,.25.29c.3.07.31-.24.46-.35a1.47,1.47,0,0,1,.58-.44,1.13,1.13,0,0,1,1,.36,1.36,1.36,0,0,0,.8.43c.13-.36-.17-.55-.33-.79-.39-1-.28-1.2,1.09-1.76A.66.66,0,0,1,260.23,38.36Z"/><path class="cls-19" d="M35.82,74.16a1.85,1.85,0,0,1-.18,1,2.12,2.12,0,0,0-.33,1c0,.32,0,.65-.34.79-.21,0-.53.11-.58-.1-.22-.82-.64-1.11-1.46-.76-.18.07-.4,0-.44-.34a.48.48,0,0,1,.35-.56c.69-.26,1.12-.64.92-1.46,0-.16,0-.34.27-.34a.47.47,0,0,1,.49.34C34.68,74.65,35.22,74.46,35.82,74.16Z"/><path class="cls-21" d="M218,16.27a5.74,5.74,0,0,1-2.11-.59c-1.83-.64-3.65-1.31-5.47-1.95-.25-.09-.46-.17-.54-.45s-.16-.32,0-.48a.56.56,0,0,1,.4-.05,1.12,1.12,0,0,1,.54.15,5.57,5.57,0,0,0,.79.25,7.7,7.7,0,0,0,1,.4c.23.08.45.15.67.24a2.06,2.06,0,0,1,.85.54c.2.12.37.3.64.23a.82.82,0,0,1,.91,0c.42.18.74.6,1.26.56.62.2,1.43,0,1.74.87C218.57,16.33,218.24,16.17,218,16.27Z"/><path class="cls-18" d="M1.62,35.32c-.43,0-.4-.57-.39-.66.09-.58-.13-.74-.64-.65-.36.06-.45-.2-.49-.42-.08-.4.25-.47.53-.51.5-.07,1.1.05,1-.81,0-.2.33-.36.59-.31a.36.36,0,0,1,.27.49c-.2.63.15.74.64.78.27,0,.63,0,.59.4S3.4,34,3.15,34c-.63-.1-.77.32-.9.78A.67.67,0,0,1,1.62,35.32Z"/><path class="cls-10" d="M20.71,118.27a1.05,1.05,0,0,0-.23-1.6.4.4,0,0,1,0-.38.52.52,0,0,1,.68-.06c.49.31.92.5,1.33-.11.21-.32.45,0,.64,0,.41.19.12.43,0,.58-.47.46-.23.78.16,1.11.16.14.49.3.26.6s-.41.19-.65,0c-.47-.42-.91-.25-1.36.1S20.83,118.9,20.71,118.27Z"/><path class="cls-13" d="M17,56.94a1,1,0,0,0-.32-1.27.34.34,0,0,1-.06-.48.52.52,0,0,1,.61-.07.89.89,0,0,0,1.3-.16.52.52,0,0,1,.69,0c.2.16.08.4-.05.56-.4.47-.15.77.24,1,.19.12.39.25.3.49s-.49.22-.63.15a1.07,1.07,0,0,0-1.41.26C17.28,57.81,17,57.66,17,56.94Z"/><path class="cls-20" d="M8.22,60.05c-.15-.2-.36-.52-.06-.62a1.94,1.94,0,0,0,1.37-1.37c.12-.33.53-.17.58.16.1.6.36.89,1,.82.2,0,.47,0,.49.29s-.26.39-.51.42-.73.14-.72.61-.09.77-.52.79c-.63,0-.41-.61-.59-.93S8.54,60.21,8.22,60.05Z"/><path class="cls-19" d="M9.15,47.22a.36.36,0,0,1-.44.35c-.59-.08-1,.06-1.14.73a.51.51,0,0,1-.6.47c-.37-.06-.3-.4-.25-.6.13-.64-.37-.6-.71-.77s-.63-.17-.55-.54.35-.33.61-.32c.57,0,1.07,0,1.12-.76,0-.18.25-.25.43-.22s.39.12.36.32c-.13.78.2,1.11,1,1.13C9,47,9.08,47.15,9.15,47.22Z"/><path class="cls-18" d="M34.6,100.17c.31,0,.53.07.61.37.14.55.45.76,1,.52a.37.37,0,0,1,.54.19c0,.22-.19.37-.38.45-.46.22-.78.45-.6,1.07.09.29-.19.46-.49.57s-.35-.21-.39-.32c-.19-.47-.44-.68-1-.48a.48.48,0,0,1-.63-.26c-.12-.32.15-.48.37-.53C34.54,101.55,34.66,100.91,34.6,100.17Z"/><path class="cls-22" d="M74.17,112.25s0,.16-.11.18c-.67.19-1,.56-.76,1.29,0,.2-.15.4-.36.47s-.47,0-.51-.25c-.09-.65-.52-.63-1-.58-.21,0-.53.14-.61-.23s.16-.4.39-.53c.42-.24,1.25-.24.69-1.11-.08-.14.08-.24.21-.32s.42-.13.46,0c.22.81.77.82,1.42.67C74.12,111.85,74.23,112,74.17,112.25Z"/><path class="cls-23" d="M230.87,10.09c-.74.39-.84,1.44-1.72,1.69a.4.4,0,0,1-.31-.25.53.53,0,0,1,0-.28,2.09,2.09,0,0,1,.61-.89,1.56,1.56,0,0,0,.58-.69.65.65,0,0,1,.5-.42l.36-.29c.29-.75,1-1.2,1.38-1.89a.93.93,0,0,1,.38-.6,2.07,2.07,0,0,0,.66-.69,2.89,2.89,0,0,1,.68-.67.47.47,0,0,1,.26-.05.33.33,0,0,1,.25.29,28.91,28.91,0,0,1-3.21,4.09C231.17,9.68,230.93,9.83,230.87,10.09Z"/><path class="cls-24" d="M12,75.44c-.38.21-.51,0-.5,0,.19-.82-.32-1-1-1.26-.24-.08-.29-.52.17-.57s1.15,0,1.26-.83a.32.32,0,0,1,.44-.17.37.37,0,0,1,.24.43c-.13.56.12.77.66.75.21,0,.44.08.42.37a.25.25,0,0,1-.29.24c-.78-.17-1,.32-1.21.92C12.2,75.4,12,75.47,12,75.44Z"/><path class="cls-18" d="M33.92,67.88c-.34.28-.61.46-.84.36-.48-.21-.61,0-.72.4a.55.55,0,0,1-.73.44c-.34-.12-.36-.41-.19-.69.27-.46,0-.47-.35-.46a.46.46,0,0,1-.52-.53c0-.45.41-.34.65-.31.48,0,.83-.07,1-.56.06-.2.15-.31.36-.26s.31.13.27.28C32.57,67.41,33.27,67.57,33.92,67.88Z"/><path class="cls-12" d="M238.58,37.11c-.42.27-.43.67-.43,1.12,0,2.31-.09,4.62,0,6.93.09,1.45.17,2.89.18,4.34s-.21,3.16.21,4.72c-.12.14,0,.4-.26.48-.44,0-.12-.52-.4-.65s.12-.29,0-.44a45.84,45.84,0,0,0,0-6.09V37.13A.37.37,0,0,1,238.58,37.11Z"/><path class="cls-25" d="M250.58,28.08c-.16-.28-.52-.19-.72-.38-.37-.34.06-.23.17-.3a.84.84,0,0,1,.55.19l.44.05a9.76,9.76,0,0,0,1.51.46c.26.16.46.49.84.39s.7.33,1.08.42a6.08,6.08,0,0,1,2.71.62c.33.21.65.43,1,.65a1.34,1.34,0,0,1,.21.2.32.32,0,0,1,0,.27,3.18,3.18,0,0,1-1.91-.43c-.34-.2-.75-.25-1.1-.44-.15-.26-.51.17-.63-.19-.34-.13-.65-.44-1.06-.25l-.66-.21c-.63-.71-1.63-.57-2.36-1.05Z"/><path class="cls-26" d="M14.43,37.58c-.74.18-1.43,0-1.72.81-.14.36-.57.25-.61-.23s0-.72-.45-.82c-.25-.05-.51-.1-.42-.47s.33-.23.53-.22c.46,0,.85,0,1-.55.06-.2.21-.31.39-.24s.27.23.25.29C13.05,37,14,37.05,14.43,37.58Z"/><path class="cls-27" d="M232.36,51.65c.5.71,1,1.43,1.48,2.15-.08.16,0,.4-.24.48s-.48-.28-.56-.58l-.84-1a.59.59,0,0,1-.3-.28,3,3,0,0,0-.77-1,2.86,2.86,0,0,1-.85-1.29h0a1.33,1.33,0,0,1-.61-.8.73.73,0,0,1,0-.44c.07-.15.16-.26.34-.2.81.52,1.15,1.42,1.73,2.14C231.92,51.09,232.17,51.35,232.36,51.65Z"/><path class="cls-28" d="M22.32,108c-.71.43-1.27.75-1.28,1.51,0,.27-.47.27-.47.2.06-1-1.52-.54-1.28-1.26.14-.42,1.08-.59,1.1-1.39,0-.08.41-.08.41.12C20.85,108.08,21.63,107.69,22.32,108Z"/><path class="cls-28" d="M19,43c-.63-.16-1.08-.58-1.74-.2a.34.34,0,0,1-.39-.55.7.7,0,0,0,0-1.08.39.39,0,0,1,.07-.38c.08-.06.26,0,.39,0a.45.45,0,0,1,.25.19c.3.86,1.52-.56,1.38.4A2.54,2.54,0,0,0,19,43Z"/><path class="cls-29" d="M23.22,73.77c.62.58.83,1.33,1.65,1.15.14,0,.21.27,0,.38a5.12,5.12,0,0,1-.59.21c-.54.2.19,1.23-.69,1.15-.44,0-.29-1.11-1.11-.81-.16.06-.33-.07-.34-.29a.29.29,0,0,1,.3-.35C23.2,75.15,23.28,74.61,23.22,73.77Z"/><path class="cls-22" d="M48.92,115.11c-.71.26-1.35.26-1.35,1,0,.23-.5.24-.51.19-.07-.83-1-.73-1.29-1.21-.18-.29.38-.32.6-.36.45-.08.68-.21.68-.73,0-.35.52-.26.51-.12C47.48,114.79,48.24,114.73,48.92,115.11Z"/><path class="cls-12" d="M158.63,31.57a2.89,2.89,0,0,0-1.27-.12h-15c.31-.25.68-.15,1-.15h14.17C157.93,31.29,158.37,31.12,158.63,31.57Z"/><path class="cls-30" d="M33.68,126.62c-.58.33-1.42.07-1.55.94,0,.06-.25.08-.38.11a2.18,2.18,0,0,0-1-1.46c.09-.1.18-.28.27-.28a1.16,1.16,0,0,0,1.19-.64c.13-.24.51-.05.45.12C32.37,126.32,33.35,126.13,33.68,126.62Z"/><path class="cls-28" d="M17.66,61.64c-.64.19-1.32-.35-1.84.35-.16.21-.34-.15-.3-.35a.87.87,0,0,0-.36-1.07s-.06-.07-.05-.09.06-.26.09-.39c.66.3,1.23-.15,1.84-.22,0,0,.18.29.14.34C16.64,60.88,17.53,61.07,17.66,61.64Z"/><path class="cls-9" d="M244.58,45l.27,1.13c.27,1.11-.35,1.74-1.43,1.31a3.11,3.11,0,0,0-1.62-.12c-.22-.27-.09-.5.08-.73a1,1,0,0,1,1.38-.31c.21,0,.38.43.61,0a5.25,5.25,0,0,0,0-.8.66.66,0,0,1,.17-.38.88.88,0,0,1,.34-.24A.24.24,0,0,1,244.58,45Z"/><path class="cls-31" d="M200.88,39.42c-.42,0-.61.45-1.09.51.22-.69.3-1.34-.76-1.78,1,0,1.57-.15,1.58-1.12.42.61.58,1.35,1.48,1.1a1.25,1.25,0,0,1-.6.67C201.27,39,201.61,39.72,200.88,39.42Z"/><path class="cls-32" d="M222.74,40.53c-.08.28.15.66-.28.82-.3-.48-.69-.16-1-.09-1.44.29-2.83.8-4.29,1a.36.36,0,0,1-.1-.3c.44-.45,1.12-.26,1.6-.6l3.85-1C222.58,40.37,222.72,40.39,222.74,40.53Z"/><path class="cls-33" d="M37.68,113c.5.55.58,1.26,1.32,1.13,0,0,.1.16.15.24-.7.16-.9.85-1.35,1.27-.09.08-.43-.07-.4-.35s-.15-.42-.44-.43-.46.1-.46-.25a.36.36,0,0,1,.32-.37C37.41,114.12,37.57,113.67,37.68,113Z"/><path class="cls-34" d="M32.5,108c-.48.51-1.41.17-1.51,1,0,.11-.33.09-.35,0a1.42,1.42,0,0,0-.85-1.06.18.18,0,0,1-.07-.08c-.06-.25.07-.54.27-.41.71.43,1-1.21,1.5-.37A1.75,1.75,0,0,0,32.5,108Z"/><path class="cls-35" d="M45.21,79v3c0,.1-.07.12-.16.05-.47-.18-.44-.6-.36-1,.18-.82-.26-1.06-.94-1.14.06-.43.11-.87.16-1.3A1.24,1.24,0,0,1,45.21,79Z"/><path class="cls-9" d="M224.41,43.26c-.13-.34.26-.53.24-.83,1,.17,1.24,1.07,1.67,1.78a.87.87,0,0,0,.45.66,1,1,0,0,1,.43.61.67.67,0,0,1-.19.6c-.91.05-1.06-.8-1.47-1.3-.27-.33-.46-.7-.89-.85A.46.46,0,0,1,224.41,43.26Z"/><path class="cls-9" d="M258.3,30.46l-.21-.08a1.05,1.05,0,0,0-.92-.56l-2.72-.91A2.36,2.36,0,0,1,257,29a3.06,3.06,0,0,0,1.18.44c.6.07.9.4.51,1A.31.31,0,0,1,258.3,30.46Z"/><path class="cls-36" d="M258.3,30.46l.43,0a.16.16,0,0,0,.18,0c.35.12.74,0,1.08.17l.27.09a6,6,0,0,1,.65.27.65.65,0,0,1,.25.34c-.07.59-.58.57-1,.72l-.27.07a5.73,5.73,0,0,0-1.1.17l-.28.1a3.54,3.54,0,0,1-1.36.23c-.3-.13-.94,0-.39-.66H257c.33-.19.74,0,1.06-.23l.23-.19c.25.05.58.31.61-.23a1.47,1.47,0,0,1-.62-.64Z"/><path class="cls-9" d="M257.65,36c.05,0,.1-.13.16-.13a5,5,0,0,1,2.41,1.85,2.15,2.15,0,0,1-2.15,0,1,1,0,0,1-.43-.58C257.61,36.79,257.38,36.39,257.65,36Z"/><path class="cls-24" d="M.38,57.3c-.13-.75.43-1.41-.38-1.78.45-.44.79-.12,1.13,0s.63-.36,1.07-.09c-.41.5-.56,1,.28,1.49C1.69,57.07,1,56.65.38,57.3Z"/><path class="cls-9" d="M235.37,60.83l-.21.68c-.11-.08-.32-.15-.33-.25-.15-1.55-1.66-1.93-2.48-2.89-.19-.22-.72-.5,0-.72.28,0,.4.3.63.43l1.73,1.3C235.11,59.79,235.64,60.13,235.37,60.83Z"/><path class="cls-9" d="M254.86,38.37c-.57-.56-.53-1.26.15-1.41a2.27,2.27,0,0,0,1.64-1c.16-.26.43-.18.6.09a.29.29,0,0,1,0,.24,3.18,3.18,0,0,0-.13.76,2.76,2.76,0,0,1-.08.27c-.36,1-1.34.44-2,.78l-.15.2Z"/><path class="cls-12" d="M45.06,82.12l.16-.05V95l-.13,0Z"/><path class="cls-37" d="M18.44,80.14c-.44.51-.46,1,.22,1.55-.83-.15-1.41-.51-2,.06-.08-.71.47-1.31-.13-1.91C17.22,80,17.73,80.46,18.44,80.14Z"/><path class="cls-38" d="M206.91,87.51a2.66,2.66,0,0,1-1.13,3.73C206.16,90,206.54,88.75,206.91,87.51Z"/><path class="cls-28" d="M45.27,108.32c.6-.21,1.22.63,1.78-.25,0,.64-.09,1.14.48,1.47-.56.35-1.21-.28-1.59.37-.06.09-.56-.06-.4-.26C46,109.08,45.39,108.77,45.27,108.32Z"/><path class="cls-9" d="M261,31.3l-.19-.15c-.1-.39-.45-.15-.66-.26h-.09l-.08-.05c-.24-.23-.59-.24-.85-.43.17-.61.56-.67,1.06-.4a2.63,2.63,0,0,1,.44.3c.48.35,1.26.58,1.06,1.36s-1,.69-1.71.69a.32.32,0,0,1,0-.44h0C261,31.74,261,31.74,261,31.3Z"/><path class="cls-39" d="M42.79,102c-.12.06-.25.18-.36.17-.63-.1-.2,1.17-.93.76-.37-.21-.62-.68-1.18-.75.41-.52,1.34-.32,1.25-1.34a1.27,1.27,0,0,0,1.33.87Z"/><path class="cls-40" d="M59,109.53c.24.63.76,0,1.16.32-.24.37-.47.82-.07,1.27a.86.86,0,0,1-.28.08c-.9-.26-1.15-.51-1.28-1.27C58.45,109.53,58.51,109.29,59,109.53Z"/><path class="cls-29" d="M17.1,28.27A.77.77,0,0,0,18,29c.09.51-.48.31-.52.58-.14.9-.29.7-1,.27s-.89-.52,0-.8C16.89,28.92,16.68,28.5,17.1,28.27Z"/><path class="cls-9" d="M251.62,34.05c0-.25.22-.29.43-.3a5.4,5.4,0,0,1,2.78-.7c.17.07.3.17.25.38a7.91,7.91,0,0,1-2.35,1A1.05,1.05,0,0,1,251.62,34.05Z"/><path class="cls-9" d="M238.35,54.63l.23-.41a2.93,2.93,0,0,1,1.07,3,.44.44,0,0,1-.39.15.51.51,0,0,1-.25-.16l0-.4a2.27,2.27,0,0,0-.62-1.48A.66.66,0,0,1,238.35,54.63Z"/><path class="cls-9" d="M222.49,48.83a10.26,10.26,0,0,1,.8-2.36c.18,0,.27-.33.51-.18a4.93,4.93,0,0,1-1.08,3.21A.46.46,0,0,1,222.49,48.83Z"/><path class="cls-26" d="M44.85,121.36a1.49,1.49,0,0,0,1.41-.92c.05.72.17,1.15.87,1.23-.4.41-1.11.08-1.12.79,0,.15-.55.47-.48-.18C45.57,121.78,45,121.9,44.85,121.36Z"/><path class="cls-41" d="M202.17,45l.19.2c.18.19.54.06.64.37a.19.19,0,0,1,0,.1l-2.6.74a5.29,5.29,0,0,1,1.46-1.94C202.12,44.58,202.15,44.79,202.17,45Z"/><path class="cls-20" d="M5.68,39.94c1.22.1,1.22.1,1.83,1.27C6.42,41.48,5.75,41.15,5.68,39.94Z"/><path class="cls-9" d="M227.22,53.36a.68.68,0,0,1,.23,1.14c-.29.38-.73.54-1.09.19s-.89,0-1.28-.26c-.09-.51.35-.66.62-.93a.73.73,0,0,1,.7.1C226.78,53.87,227,53.54,227.22,53.36Z"/><path class="cls-9" d="M241.37,47.16c-.61.39-.63,0-.64-.46,0-.59.09-1.18-.52-1.63-.23-.17-.33-.7.33-.65a2.52,2.52,0,0,1,.43.49c.18.27.55.3.73.56a1,1,0,0,1,.06.69C241.66,46.5,241.47,46.81,241.37,47.16Z"/><path class="cls-9" d="M258.3,32.79a2.35,2.35,0,0,1-2.79.64c-.25-.73.41-.6.74-.79s.63,0,.93-.16a1.62,1.62,0,0,1,1,.18Z"/><path class="cls-26" d="M45.09,95a.15.15,0,0,1,.13,0c0,.76,0,1.51,0,2.27,0,.09-.07.11-.15,0a1.34,1.34,0,0,0-.4,0c-.33.1-.69.15-.84-.2s.3-.58.45-.61C45.2,96.34,44.67,95.42,45.09,95Z"/><path class="cls-12" d="M233,58.08a.68.68,0,0,1-.63-.43v-.22c0-.34.2-.36.45-.21h1.93c.24-.2.42-.48.78-.49.42.21.61.48.25.9-.82,0-1.64,0-2.46-.05C232.89,57.57,232.8,57.73,233,58.08Z"/><path class="cls-9" d="M241.58,59.36c-.55.69.14,1.82-.83,2.36-.28-.21-.26-.59-.46-.84v0c-.22-.68.26-1.06.64-1.47l.06,0A.45.45,0,0,1,241.58,59.36Z"/><path class="cls-9" d="M234.07,5.12a1.25,1.25,0,0,1-.61.67l-.66.81-.42.47a.14.14,0,0,1-.23,0c-.09-1.41,1-1.9,1.93-2.57l.07.12A.63.63,0,0,1,234.07,5.12Z"/><path class="cls-42" d="M202.17,45c-.21-.11-.24-.32-.28-.53.52-.67.84-1.54,1.73-1.87C203.71,43.76,202.7,44.24,202.17,45Z"/><path class="cls-9" d="M229.58,10.49l-.69.87c-.16.17-.31.37-.59.21a2.62,2.62,0,0,1,2.21-2.32l-.32.61A2.15,2.15,0,0,0,229.58,10.49Z"/><path class="cls-9" d="M224.65,54.22c-1-.72-1.23-1.93-.43-2.35a1.77,1.77,0,0,1,.4.46C224.9,53,225.23,53.58,224.65,54.22Z"/><path class="cls-43" d="M206.22,24.85c-.2.9-.42,1.76-1.69,1.51-.46-.09-.27.25-.21.46a1.07,1.07,0,0,1-.85-.67c.1-.08.15-.17.2-.16C204.73,26.07,205.7,26,206.22,24.85Z"/><path class="cls-9" d="M232.1,52.29l.1.37c-.14.21-.35.31-.51.1-.59-.82-1.56-1.44-1.42-2.65.52.24.62.84,1,1.18A2.69,2.69,0,0,0,232.1,52.29Z"/><path class="cls-9" d="M235.37,56.79c0,.43-.33.43-.64.43,0-.61-.65-.82-.88-1.3s-.49-.62-.41-1.06a.34.34,0,0,1,.37-.1.62.62,0,0,1,.22.15,3.57,3.57,0,0,0,.48.47.89.89,0,0,1,.16.22,2.52,2.52,0,0,0,.53.81A.66.66,0,0,1,235.37,56.79Z"/><path class="cls-9" d="M225.29,51.65c-.53-.27-.44-.64-.21-1.07a.68.68,0,0,1,.89-.38c.35.13.64.35.4.8A11.89,11.89,0,0,1,225.29,51.65Z"/><path class="cls-44" d="M219.28,5.78c.25-.09.19-.34.26-.52s-.21-.68.21-.68.42.45.36.81c-.08.7-.87.91-1.05,1.53a.35.35,0,0,1-.41,0l-.37-.25c0-.14-.07-.28-.11-.43C218.37,5.59,219,6.12,219.28,5.78Z"/><path class="cls-12" d="M210.29,12.64a1.48,1.48,0,0,1,0,.21l-.43,0a2.6,2.6,0,0,1-2.62-.93.32.32,0,0,1,.26-.37c.52.08.91.6,1.5.43.22.28.61.2.86.43Z"/><path class="cls-45" d="M244.58,45a.31.31,0,0,0-.19,0c-1.27,0-1.48-.14-1.84-1.47,0-.22,0-.44.24-.53.63.23.6.92.94,1.35l1.06,0c.18.08.35.16.19.4Z"/><path class="cls-9" d="M243.73,44.36c-.86,0-.5-.9-.87-1.27a.14.14,0,0,1-.05-.15s0-.08.06-.08C244,43,244.13,43.15,243.73,44.36Z"/><path class="cls-12" d="M204.94,11.14a6.45,6.45,0,0,1,1.85-.64c.18-.1.35-.15.51,0v.4a.91.91,0,0,0-.68.73.72.72,0,0,1-.43.09A1.94,1.94,0,0,1,204.94,11.14Z"/><path class="cls-12" d="M224.65,54.22a3.09,3.09,0,0,0-.22-1.92l.13-.07c.85.05.69,1,1.17,1.35,0,.46-.56.48-.65.85Z"/><path class="cls-12" d="M138.08,54.68h5.35A16.28,16.28,0,0,1,138.08,54.68Z"/><path class="cls-9" d="M238.93,23.18h-.08l-.06-.05a1.5,1.5,0,0,1-.21-.85c.61,0,1,.62,1.6.66.26,0,.27.37.1.61A3.22,3.22,0,0,1,238.93,23.18Z"/><path class="cls-9" d="M241.74,58.9a.56.56,0,0,1,.41-.43,1.68,1.68,0,0,0,.88-.67c.18-.23.4-.37.7-.15A1.54,1.54,0,0,1,241.74,58.9Z"/><path class="cls-46" d="M238.58,37.11l-.62,0,0-.25c.39-.47,1.1-.23,1.5-.69a.5.5,0,0,1,.44-.18c.25.39.91-.21,1.06.43-.08.2-.28.15-.42.21l-.21,0c-.38.42-.91.24-1.37.35Z"/><path class="cls-12" d="M150.93,14.75h-4.71A12.44,12.44,0,0,1,150.93,14.75Z"/><path class="cls-12" d="M232.15,7.07h.23A5.45,5.45,0,0,1,230.87,9C230.84,8,231.54,7.57,232.15,7.07Z"/><path class="cls-9" d="M229.81,49.28a1.12,1.12,0,0,1,.47.82c-1.05-.06-1.41-.76-1.55-1.67C229.42,48.29,229.44,49,229.81,49.28Z"/><path class="cls-12" d="M184.37,54.68h4.71A12.64,12.64,0,0,1,184.37,54.68Z"/><path class="cls-12" d="M195.29,14.75H190.8A11.31,11.31,0,0,1,195.29,14.75Z"/><path class="cls-12" d="M200.65,100.33h4.5A11.36,11.36,0,0,1,200.65,100.33Z"/><path class="cls-9" d="M206.64,11.62c0-.24-.47-.29-.28-.58s.62-.13.93-.11.21.41.22.64l-.23.24C207,12,206.75,12,206.64,11.62Z"/><path class="cls-12" d="M243.73,57.65c-.66,0-.81,1-1.58.82.11-.31.62-.34.57-.71s-.34-.13-.53-.16l0-.1.07-.07C242.77,57.21,243.31,57,243.73,57.65Z"/><path class="cls-9" d="M129.75,93.87a5.22,5.22,0,0,1,.78-1.52C130.92,93.24,130.64,93.79,129.75,93.87Z"/><path class="cls-47" d="M240.74,45l-.2-.53,1.26-.07c.16-.13.3-.3.54-.28a.27.27,0,0,1,.21.22c-.1.87-.84.7-1.39.86C241,45.13,240.83,45.13,240.74,45Z"/><path class="cls-9" d="M142.82,67.51A5.76,5.76,0,0,1,143.6,66C144,66.88,143.71,67.43,142.82,67.51Z"/><path class="cls-12" d="M99.71,60.4H95.43A10.29,10.29,0,0,1,99.71,60.4Z"/><path class="cls-12" d="M89.22,100.33H93.5A10.46,10.46,0,0,1,89.22,100.33Z"/><path class="cls-9" d="M255.73,39.65c-.49-.3-1-.58-.87-1.28l.07-.07a.44.44,0,0,1,.42,0,4.69,4.69,0,0,0,.88.72,1,1,0,0,1,.1.29.55.55,0,0,1-.17.42A.36.36,0,0,1,255.73,39.65Z"/><path class="cls-12" d="M227.22,53.36c-.18.36-.08,1.3-.86.42a1.09,1.09,0,0,1,.43-1.31.16.16,0,0,1,.21.13C227,52.86,226.92,53.17,227.22,53.36Z"/><path class="cls-9" d="M213.72,76.08a1.15,1.15,0,0,1-.64,1.5,1.1,1.1,0,0,1,.16-1.57A.43.43,0,0,1,213.72,76.08Z"/><path class="cls-9" d="M228.73,48.22c-.83-.16-1.26-.62-1.08-1.5.21-.1.35,0,.49.15a3.25,3.25,0,0,0,.46.64,2,2,0,0,1,.4.54C229,48.19,228.91,48.31,228.73,48.22Z"/><path class="cls-48" d="M198.25,6.51c.08.17.24.17.38.19l.17.08-.16.11c-.67.21.07.61-.11.9-.3.07-.36-.3-.61-.33-.09-.26-.18-.52-.28-.78C197.79,6.43,198,6.33,198.25,6.51Z"/><path class="cls-9" d="M223.77,45.19a.17.17,0,0,1,0-.19c.35-.18.07-.82.62-.85.43.66.14,1.12-.43,1.5C223.6,45.67,223.69,45.42,223.77,45.19Z"/><path class="cls-9" d="M236.43,1.93v.22c.13.35-.14.52-.33.71a1.67,1.67,0,0,1-.75.35C234.92,2.12,236,2.28,236.43,1.93Z"/><path class="cls-49" d="M198.64,6.89a.25.25,0,0,0,0-.19l1.38.38a1.54,1.54,0,0,0,.84.26l.28.24C200.18,7.81,199.49,7.07,198.64,6.89Z"/><path class="cls-9" d="M259.8,32.36c-.35.67-1,.35-1.5.43-.14-.4.27-.41.43-.6l0,0C259.16,32,259.53,31.93,259.8,32.36Z"/><path class="cls-9" d="M214.15,74.15c.91.59.15.91-.21,1.29-.7-.23-.31-.64-.18-1A.68.68,0,0,1,214.15,74.15Z"/><path class="cls-12" d="M258,37.53a6.23,6.23,0,0,0,2.19.19c0,.21,0,.43,0,.64l-.49,0a10.89,10.89,0,0,0-1.13-.14C258.27,38.09,257.89,38,258,37.53Z"/><path class="cls-12" d="M123.27,79.62a14.77,14.77,0,0,1-.16-3.32A11.2,11.2,0,0,1,123.27,79.62Z"/><path class="cls-9" d="M234.08,4.5c0-.62,0-1.13.86-1.07.24.31.08.59-.07.87a.88.88,0,0,1-.36.3A.4.4,0,0,1,234.08,4.5Z"/><path class="cls-12" d="M122.84,67a15.38,15.38,0,0,1-.16-3.32A11.2,11.2,0,0,1,122.84,67Z"/><path class="cls-12" d="M123.06,73.2a12.55,12.55,0,0,1-.16-3.12A10.53,10.53,0,0,1,123.06,73.2Z"/><path class="cls-50" d="M206.86,9.62l1,.52a.74.74,0,0,1-.6.39l-.51,0c.79-.93-.58-.43-.56-.85A.56.56,0,0,1,206.86,9.62Z"/><path class="cls-12" d="M239.21,57.23h.44c.86.11,1.75-.23,2.57.21l0,0a19.65,19.65,0,0,1-2.66.06C239.34,57.54,239.2,57.46,239.21,57.23Z"/><path class="cls-12" d="M225.29,51.65c.07-.71.59-.65,1.08-.65a.69.69,0,0,1,0,.85l-.14,0a1.16,1.16,0,0,0-.84,0l-.12-.08A1.1,1.1,0,0,0,225.29,51.65Z"/><path class="cls-12" d="M146.77,23.55a6.24,6.24,0,0,1,3.21,0Z"/><path class="cls-12" d="M240.29,60.88a1.21,1.21,0,0,1,.46.84.64.64,0,0,0,.4.43c-.08.22-.16.45-.25.68A4.46,4.46,0,0,1,240.29,60.88Z"/><path class="cls-12" d="M214,74.37c0,.36-.47.71,0,1.07l-.22.64h-.44a1.28,1.28,0,0,1,.5-1.75Z"/><path class="cls-12" d="M218.17,61.43a6.91,6.91,0,0,1,.65-1.65.58.58,0,0,1,.05.87c-.36.29-.17.68-.22,1Z"/><path class="cls-9" d="M108.47,64.37l-.83-.74c.18-.41.45-.31.75-.14S108.6,64.06,108.47,64.37Z"/><path class="cls-12" d="M240.08,7.07a1.59,1.59,0,0,0,.88-.21c0,.93-.17,1-1.26.69l-.06-.06A.41.41,0,0,1,240.08,7.07Z"/><path class="cls-12" d="M204.3,7.29l-.24.19V5.17c.06-.14.13-.15.23,0Z"/><path class="cls-51" d="M219.45,8.12c-.31.08-.39.55-.79.44l.2-1.09a.27.27,0,0,1,.26,0,1.54,1.54,0,0,1,.46.49A.13.13,0,0,1,219.45,8.12Z"/><path class="cls-12" d="M228.06,47l-.41-.24-.64-.64v-.63c.55-.07.63.5,1,.72a.67.67,0,0,1,.19.68Z"/><path class="cls-12" d="M45.06,97.35a.66.66,0,0,0,.15,0c0,.85,0,1.71.08,2.56C44.82,99.06,45.18,98.19,45.06,97.35Z"/><path class="cls-9" d="M237.94,0c.05.62-.36.78-.86.86C237,.23,237.44.07,237.94,0Z"/><path class="cls-9" d="M251,34.12l.43,0c-.19.49-.31,1.11-1.07.63C250.28,34.2,250.8,34.32,251,34.12Z"/><path class="cls-12" d="M224.44,44.15c-.31.21-.19.73-.62.85a4.44,4.44,0,0,1,.59-1.74l.24.67Z"/><path class="cls-12" d="M251,34.12l-.64.6h-.43c-.1-.19-.29-.21-.47-.25A2.38,2.38,0,0,1,251,34.12Z"/><path class="cls-9" d="M203.22,4.71c0-.47.35-.64.72-.76s.32.16.34.37a4.89,4.89,0,0,1-.41.37C203.66,4.77,203.45,5,203.22,4.71Z"/><path class="cls-9" d="M218.87,60.65c0-.29,0-.58-.05-.87a.46.46,0,0,1,.05-.2c.07-.1.14-.11.21,0C219.32,60,219.88,60.48,218.87,60.65Z"/><path class="cls-12" d="M242.44,44.09l-.21,0c-.18-.09-.09-.31-.22-.42.44-.14.13-1,.86-.86v.23c-.27,0-.19.28-.22.45A.41.41,0,0,1,242.44,44.09Z"/><path class="cls-12" d="M228.73,48.22l.21-.17c.61,0,.69.47.82.9l.05.33c-.56,0-.59-.73-1.08-.85Z"/><path class="cls-12" d="M172.33,36.65a11.93,11.93,0,0,1-.16,2.46A6.19,6.19,0,0,1,172.33,36.65Z"/><path class="cls-12" d="M114.28,47a5.53,5.53,0,0,1,.18,2.29C114.09,48.55,114.37,47.76,114.28,47Z"/><path class="cls-12" d="M136.34,40.16a4.67,4.67,0,0,1,0-2.32Z"/><path class="cls-12" d="M256.37,32.81c-.19.33-.86,0-.86.62h-.43l-.27-.25a.38.38,0,0,1,.09-.29,1.41,1.41,0,0,1,.9-.33A.67.67,0,0,1,256.37,32.81Z"/><path class="cls-9" d="M100.19,30.66a1.47,1.47,0,0,1-.68,1.1C99.5,31.25,99.4,30.68,100.19,30.66Z"/><path class="cls-12" d="M241.37,47.16c-.37-.39,0-.61.2-.87a.7.7,0,0,1,.44.45l-.21.62Z"/><path class="cls-52" d="M56.49,96.83l.39-.85c.21.13.46.28.33.56A.6.6,0,0,1,56.49,96.83Z"/><path class="cls-53" d="M257.2,36.22a.48.48,0,0,0,.05-.17l.4,0c0,.38.34.69.18,1.09a1.42,1.42,0,0,1-.7-.33A.64.64,0,0,1,257.2,36.22Z"/><path class="cls-12" d="M76.53,82.51a8.55,8.55,0,0,1-.16,2.26C76.43,84,76.15,83.24,76.53,82.51Z"/><path class="cls-2" d="M208.2,44.39l-.41-.06c.41,0,.75-.66,1.23-.15A1.25,1.25,0,0,1,208.2,44.39Z"/><path class="cls-12" d="M238.93,37a3.27,3.27,0,0,1,1.37-.35c-.19.59-.58.62-1.07.4Z"/><path class="cls-12" d="M244.8,21.43h-.21a.34.34,0,0,1-.11-.3c.22-.35.35-.88,1-.5,0,.22,0,.45-.21.59Z"/><path class="cls-12" d="M213.05,76.71l0,.87c-.23.23.08.47,0,.71l-.47-.41C212.46,77.38,212.44,76.92,213.05,76.71Z"/><path class="cls-54" d="M226.37,51.85l1,.1c.14.36-.28.41-.37.65v-.17c-.25-.08-.57-.06-.64-.41A.25.25,0,0,1,226.37,51.85Z"/><path class="cls-12" d="M114.52,52.19l.21,2C114.27,53.58,114.58,52.87,114.52,52.19Z"/><path class="cls-12" d="M183.93,61a7.37,7.37,0,0,1-2-.16C182.57,60.93,183.28,60.68,183.93,61Z"/><path class="cls-12" d="M215.65,70.29a.47.47,0,0,1-.45.23c-.33-.31-.28-.47.23-.74l.66.29A.5.5,0,0,0,215.65,70.29Z"/><path class="cls-12" d="M223.77,45.19a.56.56,0,0,0,.24.46l-.21.64-.51.18A3.49,3.49,0,0,1,223.77,45.19Z"/><path class="cls-12" d="M233.89,54.85h-.45c0-.44-.52-.68-.4-1.16l.6.54C234,54.35,234.05,54.55,233.89,54.85Z"/><path class="cls-12" d="M214.15,74.15l-.2.22-.07-.05c-.26-.56-.21-1,.45-1.26l0,.23C214.63,73.66,214.27,73.88,214.15,74.15Z"/><path class="cls-12" d="M112.18,76.29V74.37A2.3,2.3,0,0,1,112.18,76.29Z"/><path class="cls-12" d="M259.8,32.36a1.68,1.68,0,0,0-1-.21,1.82,1.82,0,0,1,1.23-.23v.44Z"/><path class="cls-55" d="M123.25,89.36a1.75,1.75,0,0,1-.27,1.07,1.06,1.06,0,0,1,.08-1.07A.6.6,0,0,1,123.25,89.36Z"/><path class="cls-12" d="M228.3,11.57l.59-.21a1.18,1.18,0,0,1,0,.2c-.16.41-.25.88-.85.83V12Z"/><path class="cls-12" d="M238.93,23.18a3.34,3.34,0,0,1,1.35.39.59.59,0,0,1,0,.14A2.09,2.09,0,0,1,238.93,23.18Z"/><path class="cls-12" d="M241.78,24.24a2,2,0,0,1-1.24-.45c.28,0,.55-.2.83,0Z"/><path class="cls-56" d="M206.65,24.92l-.43-.07c0-.25-.25-.68.07-.71S206.65,24.59,206.65,24.92Z"/><path class="cls-12" d="M172.17,40.39a5.63,5.63,0,0,1,.16,1.83C172,41.64,172.21,41,172.17,40.39Z"/><path class="cls-12" d="M206.86,9.62l-.63,0c-.23-.12-.51-.14-.65-.39l.64-.26C206.18,9.46,206.69,9.36,206.86,9.62Z"/><path class="cls-9" d="M245,44.78l-.19-.4c.18-.24.43-.33.58,0S245.26,44.77,245,44.78Z"/><path class="cls-9" d="M232.8,57.22a.48.48,0,0,0-.45.21c-.22-.14-.49-.3-.13-.53S232.75,56.84,232.8,57.22Z"/><path class="cls-12" d="M67.32,73.28l.29-.61c.39,0,.26.23.19.44a1.15,1.15,0,0,1-.23.84C67.56,73.7,67.6,73.43,67.32,73.28Z"/><path class="cls-12" d="M122.62,27.28a3.44,3.44,0,0,1-.15-1.56C122.81,26.21,122.59,26.76,122.62,27.28Z"/><path class="cls-12" d="M112.81,68a3.65,3.65,0,0,1,.15,1.61C112.62,69.14,112.84,68.58,112.81,68Z"/><path class="cls-12" d="M113,71.05a3.61,3.61,0,0,1,.16,1.6C112.83,72.14,113.06,71.58,113,71.05Z"/><path class="cls-57" d="M217.15,42v.24a1.4,1.4,0,0,1-.85.21v-.23C216.45,41.67,216.83,41.91,217.15,42Z"/><path class="cls-12" d="M124.55,50.21a3.44,3.44,0,0,1-.15-1.56C124.74,49.14,124.52,49.69,124.55,50.21Z"/><path class="cls-12" d="M113.24,74.05a3.76,3.76,0,0,1,.15,1.6C113.05,75.14,113.27,74.58,113.24,74.05Z"/><path class="cls-12" d="M90,50.79c0,.28-.17.48-.61.86l.41-1.34Z"/><path class="cls-58" d="M203.91,4.94l0-.44a.41.41,0,0,1,.42-.18v.82l-.23,0Z"/><path class="cls-12" d="M113.45,77.05a3.78,3.78,0,0,1,.16,1.6C113.26,78.14,113.48,77.58,113.45,77.05Z"/><path class="cls-12" d="M234.73,62.59v-.66a.42.42,0,0,1,.42-.21,1.22,1.22,0,0,1-.18.81A.15.15,0,0,1,234.73,62.59Z"/><path class="cls-12" d="M113.67,80.05a3.94,3.94,0,0,1,.15,1.6C113.48,81.14,113.7,80.59,113.67,80.05Z"/><path class="cls-12" d="M112.38,62a3.85,3.85,0,0,1,.16,1.62C112.18,63.14,112.42,62.57,112.38,62Z"/><path class="cls-59" d="M242.86,7.69l-.43.17c-.37.08-.76.19-.85-.37l1.28,0A.48.48,0,0,1,242.86,7.69Z"/><path class="cls-12" d="M113.88,83.06a3.71,3.71,0,0,1,.15,1.59C113.69,84.15,113.91,83.59,113.88,83.06Z"/><path class="cls-12" d="M114.09,86.06a3.89,3.89,0,0,1,.16,1.59C113.91,87.15,114.12,86.59,114.09,86.06Z"/><path class="cls-12" d="M76.37,86.25a4,4,0,0,1,.16,1.61C76.18,87.35,76.42,86.78,76.37,86.25Z"/><path class="cls-12" d="M123.11,88.51a3.7,3.7,0,0,1,.16-1.62C123.22,87.43,123.46,88,123.11,88.51Z"/><path class="cls-12" d="M114.31,89.07a3.67,3.67,0,0,1,.15,1.58C114.12,90.15,114.34,89.6,114.31,89.07Z"/><path class="cls-9" d="M209.87,12.43c-.34,0-.79.14-.86-.43A.76.76,0,0,1,209.87,12.43Z"/><path class="cls-60" d="M200.88,39.42c.48.06.33-.49.61-.62-.1.29.2.67-.14.89S201,39.6,200.88,39.42Z"/><path class="cls-12" d="M114.52,92.07a3.83,3.83,0,0,1,.16,1.58C114.34,93.15,114.55,92.6,114.52,92.07Z"/><path class="cls-12" d="M112.59,65a3.65,3.65,0,0,1,.16,1.61C112.4,66.14,112.63,65.58,112.59,65Z"/><path class="cls-12" d="M114.74,95.07a3.84,3.84,0,0,1,.15,1.58C114.55,96.15,114.77,95.6,114.74,95.07Z"/><path class="cls-12" d="M115,98.08a3.79,3.79,0,0,1,.15,1.57C114.77,99.15,115,98.6,115,98.08Z"/><path class="cls-9" d="M182,17.79a1.15,1.15,0,0,1-.82.6C181.2,17.88,181.54,17.77,182,17.79Z"/><path class="cls-9" d="M178.35,21a1.2,1.2,0,0,1-.63.81C177.7,21.37,177.83,21,178.35,21Z"/><path class="cls-12" d="M255.73,39.65h.42a.5.5,0,0,1,.14.43c-.1.29-.11.65-.54.67l0-.89Z"/><path class="cls-12" d="M219.07,7.49l-.21,0-.21-.6h.44C219.55,7.09,219.27,7.29,219.07,7.49Z"/><path class="cls-12" d="M121.76,17a2.79,2.79,0,0,1-.15-1.37C121.94,16.07,121.74,16.56,121.76,17Z"/><path class="cls-12" d="M234.73,4.29l.21-.86.39.18.09.12C235.35,4.11,235.18,4.38,234.73,4.29Z"/><path class="cls-12" d="M123.27,34.82a2.63,2.63,0,0,1-.16-1.39C123.44,33.87,123.24,34.36,123.27,34.82Z"/><path class="cls-12" d="M235.36,3.21a.65.65,0,0,1,.61-.42c.12.51-.06.81-.6.85l0,0Z"/><path class="cls-12" d="M219.08,59.58h-.21a2.09,2.09,0,0,1,.4-1.12l0,.69Z"/><path class="cls-12" d="M125.82,35.79a2.68,2.68,0,0,1-.16,1.4C125.7,36.72,125.49,36.23,125.82,35.79Z"/><path class="cls-12" d="M123.69,40a2.79,2.79,0,0,1-.15-1.37C123.87,39,123.67,39.49,123.69,40Z"/><path class="cls-12" d="M28.34,99.61l-1.25,0A1.16,1.16,0,0,1,28.34,99.61Z"/><path class="cls-12" d="M124.12,45.08a2.87,2.87,0,0,1-.15-1.36C124.29,44.14,124.1,44.62,124.12,45.08Z"/><path class="cls-12" d="M145.16,63.46a1.36,1.36,0,0,1-.22.87c0-.24,0-.49-.18-.67l.19-.43C145.14,63.19,145.26,63.22,145.16,63.46Z"/><path class="cls-12" d="M123.05,32.26a2.77,2.77,0,0,1-.16-1.4C123.23,31.3,123,31.79,123.05,32.26Z"/><path class="cls-12" d="M259.16,30.41c.35,0,.69.05.85.43a2.22,2.22,0,0,1-1.1-.39Z"/><path class="cls-12" d="M123.91,42.51a2.86,2.86,0,0,1-.16-1.36C124.08,41.57,123.89,42.06,123.91,42.51Z"/><path class="cls-12" d="M12.71,50.19,14,50.13A1,1,0,0,1,12.71,50.19Z"/><path class="cls-9" d="M143.92,45.88a2.47,2.47,0,0,1-1.34.16C143,45.71,143.47,45.91,143.92,45.88Z"/><path class="cls-12" d="M122.84,29.69a2.66,2.66,0,0,1-.16-1.4C123,28.73,122.8,29.22,122.84,29.69Z"/><path class="cls-12" d="M124.77,52.62a2.66,2.66,0,0,1-.16-1.4C125,51.66,124.73,52.15,124.77,52.62Z"/><path class="cls-12" d="M85.39,27.22l.3-.82a1.36,1.36,0,0,1-.12,1.26Z"/><path class="cls-12" d="M224.43,52.3a.47.47,0,0,1-.21-.43l1.05,0,0,.05c-.06.61-.58.25-.85.41Z"/><path class="cls-12" d="M122.41,24.72a3,3,0,0,1-.16-1.36C122.58,23.78,122.39,24.26,122.41,24.72Z"/><path class="cls-12" d="M124.34,47.64a2.94,2.94,0,0,1-.16-1.35C124.51,46.71,124.31,47.19,124.34,47.64Z"/><path class="cls-12" d="M122.19,22.15a2.87,2.87,0,0,1-.15-1.36C122.36,21.21,122.17,21.69,122.19,22.15Z"/><path class="cls-12" d="M123.48,37.39a2.82,2.82,0,0,1-.16-1.38C123.65,36.44,123.45,36.92,123.48,37.39Z"/><path class="cls-12" d="M122,19.59a2.91,2.91,0,0,1-.16-1.37C122.15,18.64,122,19.13,122,19.59Z"/><path class="cls-12" d="M112,79.5a3,3,0,0,1,.15-1.35C112.1,78.6,112.29,79.08,112,79.5Z"/><path class="cls-9" d="M197.87,6l-.65.21C197.31,5.76,197.51,5.65,197.87,6Z"/><path class="cls-12" d="M8.22,60.05c.34.08.73-.17,1,.17C8.9,60.18,8.52,60.34,8.22,60.05Z"/><path class="cls-9" d="M242,43.72a.44.44,0,0,1,.22.42c-.07.22-.24.25-.43.21Z"/><path class="cls-12" d="M59,109.53c-.4-.16-.48.07-.47.4-.16-.17-.23-.36,0-.53S58.86,109.33,59,109.53Z"/><path class="cls-9" d="M173.21,24.86a1.37,1.37,0,0,1,.2-.93C173.4,24.25,173.78,24.65,173.21,24.86Z"/><path class="cls-12" d="M125.67,41.06a2.27,2.27,0,0,1,.15,1.15C125.52,41.86,125.68,41.45,125.67,41.06Z"/><path class="cls-61" d="M35,76.91a1.21,1.21,0,0,0,.26-.84c.07-.09.14-.1.21,0,0,.29.06.62-.2.86Z"/><path class="cls-12" d="M144.61,54.63a2.07,2.07,0,0,1,1.18-.16C145.43,54.78,145,54.61,144.61,54.63Z"/><path class="cls-12" d="M241.58,59.36l-.6,0c.15-.21.3-.43.61-.39Z"/><path class="cls-12" d="M202.37,6h.4a.78.78,0,0,1-.57.66,1.89,1.89,0,0,1,0-.23Z"/><path class="cls-9" d="M113.61,27c.15,3.56.28,7.12.47,10.68,0,.77-.18,1-.92.93-2.24,0-4.48,0-6.83,0,2.26-5.24,4.81-10.25,6.9-15.45.5.08.28.48.29.73C113.59,24.92,113.44,26,113.61,27Z"/><path class="cls-62" d="M113.61,27a9.37,9.37,0,0,1-.2-2.74c0-.38.16-.79-.18-1.12l.23-.91h.15Z"/><path class="cls-1" d="M221.61,63a24.42,24.42,0,0,0-3-1.31c-.13-.15-.24-.34-.45-.41a4.32,4.32,0,0,0-2.26-.43c-.28,0-.57,0-.85-.09a21,21,0,0,0-9.33.34c-5.82,1.74-9.06,6.3-8.76,12.35.19,3.7,2.07,6.53,4.74,8.91,1.22,1.1,2.5,2.13,3.73,3.22a3.53,3.53,0,0,1,.31,5.67,2.42,2.42,0,0,1-1.37.51,14.78,14.78,0,0,1-6.71-1,32.65,32.65,0,0,1-4.82-2.2V95.5c-1.8-3.79-3.44-7.6-5.12-11.41-.2-.46-.06-.58.33-.77,4.26-2.08,6.39-5.58,6.91-10.21.61-5.38-1.74-9.39-6.62-11.12a30.64,30.64,0,0,0-4.45-1c-.67-.19-1.37.07-2-.16-.25,0-.49,0-.74,0h-9.53c-.39,0-.84-.16-1,.51q-.84,4.39-1.77,8.78c-.67,3.11-1.52,6.18-2,9.32-.49,2.94-1.25,5.83-1.78,8.76-.69,3.86-1.65,7.67-2.5,11.56,3.38,0,6.63,0,9.88,0,.53,0,.69-.17.8-.71.83-4.17,1.69-8.33,2.62-12.48.06-.3-.17-1,.63-1s1.43-.24,1.75.68c.83,2.33,1.66,4.65,2.51,7,.74,2,1.53,4,2.26,6a.6.6,0,0,0,.68.47c3.56,0,7.13,0,10.57,0,.43-.42-.29-.7.1-1.1a17.91,17.91,0,0,0,6.29,1.56,29.39,29.39,0,0,0,4.5,0,28.85,28.85,0,0,0,3.09-.51c3.67-1,6.79-2.74,8.4-6.43a13.07,13.07,0,0,0,.6-9c-.7-2.53-2.41-4.35-4.18-6.13a1,1,0,0,0-.34-.48c-.62-.56-1.3-1-1.94-1.59a1.59,1.59,0,0,1-.13.13,8.19,8.19,0,0,1-2.8-2.72c-1.39-2.32-.21-4.59,2.47-4.81a7.07,7.07,0,0,1,2.74.29,1.64,1.64,0,0,0,0,.22c.83.17,1.63.5,2.47.64.2,0,.41,0,.58.1a14,14,0,0,1,1.45.73c.67.45,1,.4,1.38-.42,1-2.22,2.06-4.39,3.09-6.59C222.2,63.4,222,63.18,221.61,63Zm-42.52,14.8h-1.3c.59-2.83,1.15-5.54,1.7-8.26.09-.45.29-.69.79-.63s1.22,0,1.81.11a2.82,2.82,0,0,1,2.51,2.75C184.9,75.45,182.79,77.76,179.09,77.79Z"/><path class="cls-63" d="M210.65,76.35q1.2-3.63,2.41-7.24a8.13,8.13,0,0,1,2.37.67c-.14.23-.39.42-.23.74a1.67,1.67,0,0,0-.43,1.22c-.11.38-.26.74-.38,1.11l-.06.21a2,2,0,0,0-.45,1.26,3.69,3.69,0,0,0-.59,1.76.67.67,0,0,0-.24.63l-.46,1.17A8.45,8.45,0,0,1,210.65,76.35Z"/><path class="cls-64" d="M145.16,63.46l-.21-.23a.88.88,0,0,1,.32-.6A.71.71,0,0,1,145.16,63.46Z"/><path class="cls-65" d="M45.21,79a2.64,2.64,0,0,1-1.29-.31c.36-2.21.71-4.41,1.07-6.62l.22,0Z"/><path class="cls-66" d="M52.48,88.4c0-.63,0-1.26.07-1.89,0-.26-.22-.7.29-.73a.55.55,0,0,1,.63.65,1.88,1.88,0,0,0,.06.31C53.13,87.26,53.25,88.11,52.48,88.4Z"/><path class="cls-67" d="M67.8,73.11l-.19-.44.33-.87A1.47,1.47,0,0,1,67.8,73.11Z"/><path class="cls-68" d="M35.44,76.08h-.21c0-.39-.24-.84.41-.93A1.48,1.48,0,0,1,35.44,76.08Z"/><path class="cls-69" d="M63.29,92.41c-.42-.41,0-.63.2-.9A1.11,1.11,0,0,1,63.29,92.41Z"/><path class="cls-70" d="M212.44,31.93h-.23c.66-.83,1.28-1.69,2-2.48a.89.89,0,0,0,.05-1.35c-1.29-1.69-2.52-3.42-3.77-5.14a.33.33,0,0,1,.47-.23l2.14,3c.24.4.63.68.86,1.08.29.79,1.26,1.18,1.26,2.14-.17.3-.43.54-.62.84l-1.06,1.28C213.19,31.39,213.05,32,212.44,31.93Z"/><path class="cls-71" d="M228.08,12.39l.85-.83.22.22c-.23,1.17-1.22,1.88-1.89,2.71-.95,1.17-1.84,2.4-2.85,3.53a.37.37,0,0,1-.43,0,.51.51,0,0,1-.12-.43.71.71,0,0,1,.16-.26l.42-.5a1.63,1.63,0,0,1,.63-.79,2.28,2.28,0,0,1,.65-.86,3.67,3.67,0,0,1,.7-.82h0c.22-.2.34-.48.56-.69Z"/><path class="cls-16" d="M237.93.86c.53.23.25.69.25,1q0,10,0,19.91a2.28,2.28,0,0,0,.19,1.36c-.72-.18-.4-.76-.4-1.15q0-10,0-20A.89.89,0,0,1,237.93.86Z"/><path class="cls-72" d="M240.93,36.44c-.22-.48-1,.35-1.06-.43l4.8-1.14c.58-.14,1.16-.39,1.63.21-.89.66-2,.55-3,.93-.53.4-1.18.22-1.75.4Z"/><path class="cls-73" d="M239.43,36.19c-.23.82-1,.49-1.5.69s-.19.74-.2,1.11c0,2.78,0,5.57,0,8.35,0,.35.12.72-.19,1-.43-.52-.19-1.14-.22-1.72-.05-.94,0-1.88,0-2.82a.55.55,0,0,1,0-.38c0-1.34,0-2.69,0-4C237.31,36.6,237.54,36.36,239.43,36.19Z"/><path class="cls-74" d="M256.37,32.81h-.66c-.35-.26-.6,0-.84.19a.7.7,0,0,1-.06.19l-2.76.57c0-.41-.1-.73.55-.84,1.41-.23,2.8-.63,4.19-1-.22.59.28.35.5.44a.13.13,0,0,1-.08.17Z"/><path class="cls-75" d="M237.29,42.44c0,.07,0,.13,0,.2.21,1.63,0,3.28.09,4.92v8.31c-.06.52.14,1.06-.12,1.56-.28-.25-.19-.59-.19-.9q0-6.6,0-13.19C237.09,43,237,42.69,237.29,42.44Z"/><path class="cls-76" d="M224,17.54V18c-.18.58-.62.33-.91.2-.54-.25-1.12-.38-1.66-.64a2,2,0,0,1-1.28-.42c-.34-.21-.74-.25-1.09-.44a3,3,0,0,1-1.06-.44c.16-.24.41-.18.64-.2s.68.35,1.08.23a2.28,2.28,0,0,0,1.25.46.5.5,0,0,0,.59.2,3.62,3.62,0,0,1,.92.34l.21.09A7.1,7.1,0,0,0,224,17.54Z"/><path class="cls-77" d="M206.84,18.05c-1.14-1.18-1.92-2.63-3-3.87a.14.14,0,0,1-.08-.14c0-.06,0-.08.05-.08l.25-.23a14.75,14.75,0,0,1,3,3.85.2.2,0,0,1,.07.23A.47.47,0,0,1,206.84,18.05Z"/><path class="cls-70" d="M227.86,46.32l-.85-.87a.68.68,0,0,0-.4-.46c-.25-.14-.28-.44-.45-.64a6,6,0,0,0-1.51-1.92c-.43-.38.17-.41.21-.63a.13.13,0,0,1,.22,0L227.44,45c.19.3.44.57.65.86h0a.25.25,0,0,1,.08.23A.46.46,0,0,1,227.86,46.32Z"/><path class="cls-78" d="M235.37,3.64l.6-.85.47-.64.82-.73a.5.5,0,0,1,.32.28.81.81,0,0,1-.27.66c-1.08.87-1.67,2.2-2.83,3l-.22-.29a.56.56,0,0,1,.25-.56l.22-.21C235.07,4.2,235.15,3.86,235.37,3.64Z"/><path class="cls-79" d="M233.89,54.85l-.25-.61c.07-.15.14-.29.2-.44L236,56.59c.12.3.54.43.43.84-.22.1-.41.29-.68.2a.61.61,0,0,0-.39-.84l-.19-.21a3.94,3.94,0,0,1-.67-1l0,0a1.93,1.93,0,0,1-.6-.67Z"/><path class="cls-80" d="M210.94,22.72l-.47.23a15.42,15.42,0,0,1-1.71-2.3c-.1-.25,0-.3.24-.29A6.54,6.54,0,0,1,210.94,22.72Z"/><path class="cls-81" d="M237.7,7.72v8.15c-.06.09-.13.08-.18,0,0-2.71,0-5.43,0-8.14C237.59,7.62,237.64,7.62,237.7,7.72Z"/><path class="cls-82" d="M206.64,11.62c.15.25.41.17.64.19a7.83,7.83,0,0,0,2.59,1.06c-.12.14.68.24,0,.41h-.45a4.85,4.85,0,0,0-1.49-.45l-.23-.19c-.34-.18-.72-.25-1.06-.43h0c-.18-.22-.59,0-.71-.33,0-.16.13-.24.27-.3Z"/><path class="cls-83" d="M229.76,49l-.82-.9c-.18-.13-.4-.21-.43-.47a.9.9,0,0,1-.29-.61.66.66,0,0,1,.25-.32.22.22,0,0,1,.25.07c.44.64,1.09,1.14,1.27,1.94C229.92,48.76,229.84,48.85,229.76,49Z"/><path class="cls-84" d="M237.52,15.86h.18v6.47h-.18Z"/><path class="cls-85" d="M237.7,7.72h-.17c0-1.46,0-2.91,0-4.37,0-.33.12-.71-.2-1l.2-.65c.19,0,.3,0,.24.23Z"/><path class="cls-86" d="M217.15,42c-.29,0-.63-.08-.86.22h-1.1a12.59,12.59,0,0,1,3.46-.89C218.27,41.82,217.58,41.61,217.15,42Z"/><path class="cls-87" d="M202.8,11.8a2.23,2.23,0,0,1-1-1.3c.71.18,1.39.1,1.89.65L202.53,11Z"/><path class="cls-88" d="M221.44,17.57a4.48,4.48,0,0,1,1.61.48c.33.15.66.31,1,0h.4a.67.67,0,0,1-.9.44A5.86,5.86,0,0,1,221.44,17.57Z"/><path class="cls-89" d="M206,11.8l.65.41a6.74,6.74,0,0,1-3-1.07l1.29.21A1.57,1.57,0,0,1,206,11.8Z"/><path class="cls-16" d="M250.58,28.08c.82.27,1.82.15,2.36,1.05C252.21,28.66,251.22,28.76,250.58,28.08Z"/><path class="cls-90" d="M212.44,31.93l1.08-.87a5.07,5.07,0,0,1-1.3,1.74C212,32.43,212.57,32.27,212.44,31.93Z"/><path class="cls-91" d="M237.28,57.43l0-1.5c.07-.09.13-.09.19,0,0,.66,0,1.33,0,2,0,.15.08.41-.16.41s-.27-.26-.29-.47A.36.36,0,0,0,237.28,57.43Z"/><path class="cls-92" d="M209,20.36l-.24.29a1.86,1.86,0,0,1-.64-.87.33.33,0,0,1,0-.29c.42-.15.48.28.72.44A.42.42,0,0,1,209,20.36Z"/><path class="cls-93" d="M222.74,40.53l-.24-.23c.62,0,1.42-.79,1.73.42A1.2,1.2,0,0,0,222.74,40.53Z"/><path class="cls-94" d="M208.83,19.93l-.66-.45c-.31-.25-.61-.5-.53-1l.1-.11A3.19,3.19,0,0,1,208.83,19.93Z"/><path class="cls-12" d="M248.44,34.75c-.55.31-1.09.72-1.78.37A3.43,3.43,0,0,1,248.44,34.75Z"/><path class="cls-95" d="M237.75,1.94l-.24-.23-.25-.29c.16-.27.32-.53.67-.56,0,.36,0,.72,0,1.08h-.17Z"/><path class="cls-96" d="M208,12.83a1.55,1.55,0,0,1,1.49.45A3.16,3.16,0,0,1,208,12.83Z"/><path class="cls-97" d="M241.8,25.06c.63-.27,1.06.13,1.51.45A3.83,3.83,0,0,1,241.8,25.06Z"/><path class="cls-98" d="M203,45.58c-.23-.1-.5-.12-.64-.37l1.08-.21C203.49,45.34,203.17,45.4,203,45.58Z"/><path class="cls-99" d="M225.08,41.79h-.22a2.25,2.25,0,0,1-.64-1.09C224.62,41,225,41.25,225.08,41.79Z"/><path class="cls-74" d="M258.92,31.29c.09,0,.19-.14.26-.12s.15.22,0,.32a.58.58,0,0,1-.91,0C258.52,31.48,258.78,31.54,258.92,31.29Z"/><path class="cls-100" d="M213.94,26.8a1.57,1.57,0,0,1-.86-1.08A1.46,1.46,0,0,1,213.94,26.8Z"/><path class="cls-88" d="M219.07,16.71a1.29,1.29,0,0,1,1.09.44A1.25,1.25,0,0,1,219.07,16.71Z"/><path class="cls-101" d="M236.44,57.43c-.11-.3-.44-.48-.43-.84a1,1,0,0,1,.65.87Z"/><path class="cls-102" d="M205.79,40.5a1,1,0,0,1,.67-.86A1.08,1.08,0,0,1,205.79,40.5Z"/><path class="cls-103" d="M206.87,39.19a1,1,0,0,1,.63-.82A.88.88,0,0,1,206.87,39.19Z"/><path class="cls-104" d="M203.89,13.29a1,1,0,0,1-.67-.89A1.18,1.18,0,0,1,203.89,13.29Z"/><path class="cls-96" d="M206.66,12.21a1.3,1.3,0,0,1,1.06.43A1.12,1.12,0,0,1,206.66,12.21Z"/><path class="cls-74" d="M258.08,31.71a1.11,1.11,0,0,1-1.06.23C257.31,31.57,257.72,31.76,258.08,31.71Z"/><path class="cls-105" d="M228.09,45.86a1,1,0,0,1-.65-.86A1.08,1.08,0,0,1,228.09,45.86Z"/><path class="cls-106" d="M210.94,34.29a1,1,0,0,1,.66-.86A1.14,1.14,0,0,1,210.94,34.29Z"/><path class="cls-105" d="M228.72,46.72h-.2c-.29-.12-.51-.28-.46-.64l0-.22A1,1,0,0,1,228.72,46.72Z"/><path class="cls-107" d="M255.29,29.78a1.31,1.31,0,0,1,1.1.44A1.31,1.31,0,0,1,255.29,29.78Z"/><path class="cls-108" d="M253.6,29.34c.46-.39.75,0,1.06.25Z"/><path class="cls-109" d="M214.58,29.78a1.07,1.07,0,0,1,.62-.84C215.23,29.39,214.92,29.59,214.58,29.78Z"/><path class="cls-110" d="M232.36,51.65a1.05,1.05,0,0,1-.64-.85A1,1,0,0,1,232.36,51.65Z"/><path class="cls-111" d="M239.86,24.22a1.34,1.34,0,0,1,1.1.42A1.22,1.22,0,0,1,239.86,24.22Z"/><path class="cls-112" d="M238.18,23.77c.46-.4.74,0,1,.25Z"/><path class="cls-94" d="M207.07,17.79a1.48,1.48,0,0,1,0-.21,1.06,1.06,0,0,1,.66.83l0,0C207.25,18.47,207.07,18.22,207.07,17.79Z"/><path class="cls-113" d="M230.87,10.09c-.23-.44.23-.45.4-.65A.65.65,0,0,1,230.87,10.09Z"/><path class="cls-9" d="M101.62,76a23.28,23.28,0,0,1-2.53,10.7,11.36,11.36,0,0,1-3.35,4,6.09,6.09,0,0,1-4.89,1c-2.14-.42-3.54-2.07-3.75-4.61a22.87,22.87,0,0,1,3-13.65,10.32,10.32,0,0,1,2.42-2.84,5.79,5.79,0,0,1,6.08-1.21c2.21.89,2.74,2.93,3,5.06A14.2,14.2,0,0,1,101.62,76Z"/><path class="cls-9" d="M203.44,16.9a1.46,1.46,0,0,1,2.24.4c.13.37-.22.44-.51.48Z"/><path class="cls-12" d="M220.12,56.08c0,.67,0,1.36-.69,1.75A3.82,3.82,0,0,1,220.12,56.08Z"/><path class="cls-12" d="M222.49,48.83l.23.67c-.45.12-.33.69-.67.89A3.3,3.3,0,0,1,222.49,48.83Z"/><path class="cls-12" d="M221.85,50.77c0,.46.24,1-.45,1.27Z"/><path class="cls-12" d="M221.2,52.66c0,.5.09,1-.46,1.31C220.9,53.53,221.05,53.09,221.2,52.66Z"/><path class="cls-46" d="M238,47.52a29.51,29.51,0,0,1,0,6.09.53.53,0,0,1-.24-.56C238.14,51.22,237.79,49.36,238,47.52Z"/><path class="cls-114" d="M237.33,47.57c0-1.65,0-3.29,0-4.93.44,1,.1,2.08.19,3.12.05.53,0,1.07,0,1.6a1.55,1.55,0,0,1,0,.21C237.44,47.67,237.38,47.67,237.33,47.57Z"/><path class="cls-115" d="M237.33,47.57h.16c0,1.64,0,3.29,0,4.93q-.09.15-.18,0C237.32,50.86,237.33,49.21,237.33,47.57Z"/><path class="cls-116" d="M237.32,52.5h.18v3.43h-.19C237.32,54.79,237.32,53.65,237.32,52.5Z"/><path class="cls-117" d="M239.21,57.23c.95.6,2,.16,3,.24a.2.2,0,0,1,0,.13l-2.5,0c-.31,0-.66.06-.68-.42Z"/><path class="cls-12" d="M235.37,60.83c0-.58-.59-.9-.65-1.45C235.33,59.69,236.16,59.9,235.37,60.83Z"/><path class="cls-118" d="M234.73,62.59l.24-.06c.15.45-.43.88,0,1.34-.09.18-.17.42-.43.34s-.11-.26-.07-.42C234.54,63.39,234.63,63,234.73,62.59Z"/><path class="cls-12" d="M240.92,59.39a5.51,5.51,0,0,0-.64,1.47C239.51,59.94,240.35,59.72,240.92,59.39Z"/><path class="cls-46" d="M238.35,54.63c0,.25-.1.53.19.71a.41.41,0,0,1,0,.61,2.93,2.93,0,0,1-.66-1.9C238.21,54.13,238.14,54.49,238.35,54.63Z"/><path class="cls-12" d="M238.58,56c0-.21,0-.41,0-.61.44.4.76.84.44,1.47Z"/><path class="cls-12" d="M241,64.06a1.57,1.57,0,0,1-1.3-.84A2.42,2.42,0,0,1,241,64.06Z"/><path class="cls-12" d="M238.83,62.56a.83.83,0,0,1-.85-.66A1,1,0,0,1,238.83,62.56Z"/><path class="cls-12" d="M236,63.2c-.2.37-.44.67-.91.64A1.06,1.06,0,0,1,236,63.2Z"/><path class="cls-12" d="M238,61.86l-.92.47C237.3,62.09,237.43,61.59,238,61.86Z"/><path class="cls-12" d="M199,10.94a2.45,2.45,0,0,0,.23-1.74C200,10,200,10,199,10.94Z"/><path class="cls-12" d="M197.86,12.39A1.54,1.54,0,0,1,198.94,11,2.56,2.56,0,0,1,197.86,12.39Z"/><path class="cls-119" d="M206,11.8a2.18,2.18,0,0,1-1.06-.45v-.21l1.27.44Z"/><path class="cls-120" d="M203.65,15.22c-.07.2.14.56-.22.57s-.35-.37-.49-.59a.4.4,0,0,1,0-.32l.47.32C203.51,15.11,203.58,15.12,203.65,15.22Z"/><path class="cls-12" d="M201.72,13.93l0-.8c.29.28.65.52.62,1Z"/><path class="cls-12" d="M199.17,9.18c-.49-.2-.54-.64-.62-1.08A1.19,1.19,0,0,1,199.17,9.18Z"/><path class="cls-12" d="M201.69,13a1.33,1.33,0,0,1-.65-.63C201.63,12.23,201.55,12.74,201.69,13Z"/><path class="cls-121" d="M203.65,15.22l-.22,0c.21-.39-.45-1.06.4-1.24l0,.22C203.53,14.47,203.83,14.89,203.65,15.22Z"/><path class="cls-12" d="M203,14.88c0,.11,0,.21,0,.32a1.37,1.37,0,0,1-.56-1A1.66,1.66,0,0,1,203,14.88Z"/><path class="cls-12" d="M201.5,7.52c.19-.31.23-.74.68-.84C202.12,7.09,202,7.46,201.5,7.52Z"/><path class="cls-12" d="M204.06,7.5V8.56A.78.78,0,0,1,204.06,7.5Z"/><path class="cls-122" d="M207.07,17.79a1.49,1.49,0,0,0,.65.64l.45,1.05c0,.1,0,.2,0,.3a5.9,5.9,0,0,1-1.28-1.73Z"/><path class="cls-123" d="M245.44,20.63c-.4,0-.55.37-.84.53-.54.3-.6,0-.53-.43s.26-.58.11-.91c0-.19.09-.38-.08-.53s-.58-.2-.78-.44l.05-.05c-.3-.55.13-.52.46-.57s.86.1,1.21-.24c.14-.4.27-.79.41-1.18.05-.21.19-.21.36-.18a2.26,2.26,0,0,1,.45.8c0,.05,0,.1,0,.13s-.18.44.22.4c.37.53,1.21-.09,1.5.62v.22c-.22.32-.64.36-.87.66h0c-.17.55.26,1,.24,1.54l0,.21a.45.45,0,0,1-.47.2l-.23-.18a1.23,1.23,0,0,1-.61-.42C245.89,20.66,245.72,20.47,245.44,20.63Z"/><path class="cls-124" d="M248,18.58c-.47-.52-1.36.19-1.74-.59a.59.59,0,0,1,.68,0c.34,0,.68,0,1,0,.2,0,.56-.15.57.22S248.29,18.61,248,18.58Z"/><path class="cls-12" d="M247.34,21a2.61,2.61,0,0,1-.43-1.58.32.32,0,0,1,.1,0l.09,0A1.86,1.86,0,0,1,247.34,21Z"/><path class="cls-12" d="M246.92,21.41l.47-.2c.18.14.53.31.25.54S247.09,21.69,246.92,21.41Z"/><path class="cls-125" d="M245.87,16.29c0,.15,0,.3,0,.45l-.4.07,0-.52C245.57,16.13,245.72,16.11,245.87,16.29Z"/><path class="cls-12" d="M247.12,19.46c.12-.44.5-.54.87-.66C247.88,19.26,247.49,19.34,247.12,19.46Z"/><path class="cls-12" d="M246.94,18l-.68,0a.33.33,0,0,1,0-.43A.72.72,0,0,1,246.94,18Z"/><path class="cls-12" d="M246.08,20.81a.68.68,0,0,1,.61.42C246.24,21.46,246.12,21.19,246.08,20.81Z"/><path class="cls-12" d="M252.53,28.1a2.11,2.11,0,0,1-1.51-.46A2.07,2.07,0,0,1,252.53,28.1Z"/><path class="cls-12" d="M250.58,27.59c-.23.07-.38-.07-.55-.19l-.57-.37C249.94,27,250.4,27,250.58,27.59Z"/><path class="cls-12" d="M244.8,25.28a1.48,1.48,0,0,1-1.27-.41A2,2,0,0,1,244.8,25.28Z"/><path class="cls-12" d="M243.5,24.86a1.9,1.9,0,0,1-1.1-.4C242.88,24.29,243.29,24.28,243.5,24.86Z"/><path class="cls-12" d="M248.65,26.75a1.44,1.44,0,0,1-.93-.36A.77.77,0,0,1,248.65,26.75Z"/><path class="cls-12" d="M247.37,26.3l-.91-.34C246.8,26,247.23,25.75,247.37,26.3Z"/><path class="cls-126" d="M241.58,7.49c.18.37.64.08.85.38v.25a.9.9,0,0,0-.32.77c0,.26,0,.51-.39.5a.93.93,0,0,0-1-.16c-.3.11-.32-.11-.35-.31a1.15,1.15,0,0,0-.53-1l-.18-.4c.5-.08,1.29.36,1.26-.69a.15.15,0,0,0,0-.14C241.71,6.58,241.43,7.2,241.58,7.49Z"/><path class="cls-127" d="M240.52,8.77c0,.17,0,.39.24.46-.16.15-.29.52-.54.34s.18-.46.11-.73S240.41,8.66,240.52,8.77Z"/><path class="cls-128" d="M241.72,9.39l.28-.63c.1-.07.16,0,.21.06s0,.46.18.63C242.14,9.76,241.92,9.67,241.72,9.39Z"/><path class="cls-12" d="M240.52,8.77l-.19.07L239.88,8C240.36,8,240.52,8.33,240.52,8.77Z"/><path class="cls-12" d="M241.55,36.41a5,5,0,0,1,1.75-.4C242.85,36.73,242.14,36.34,241.55,36.41Z"/><path class="cls-129" d="M257.21,36.9c.34-.36.46,0,.62.19s0,.35.2.44c.09.62.59.28.89.38s.83-.28.82.41c-.53.4-1.59.5-.88,1.59.29.22.35.54.09.76s-.52-.18-.81-.22c-.27-.23-.53-.47-.93-.38-.23.14-.43.42-.73.28s-.13-.47-.12-.72a.77.77,0,0,0-.11-.49.33.33,0,0,0-.13-.13c-.35-.11-.49-.49-.82-.64l-.37-.07a.19.19,0,0,0-.05-.16c.23-.66.79-.3,1.15-.28a.83.83,0,0,0,1-.77h0A.32.32,0,0,1,257.21,36.9Z"/><path class="cls-12" d="M258.14,40.45c.49.16,1,.29.72-.54.37.27.91.61.43,1.05S258.45,40.81,258.14,40.45Z"/><path class="cls-130" d="M256.25,39.14c.69.19.11.65.23,1s.47-.19.73-.08l-.41.44c-.24.08-.41.42-.72.15a.76.76,0,0,1,.09-.64l0-.37Z"/><path class="cls-12" d="M256.2,40.75l.6-.24c-.16.23-.17.68-.65.42-.06-.06-.07-.1,0-.14A.09.09,0,0,1,256.2,40.75Z"/><path class="cls-131" d="M256.2,40.75a1.21,1.21,0,0,1-.05.18l-.4-.18.42-.73Z"/><path class="cls-12" d="M212.62,13.74c.29-.11.64-.42.65.23Z"/><path class="cls-12" d="M210.71,13.09c.31,0,.75-.37.84.28C211.27,13.28,211,13.31,210.71,13.09Z"/><path class="cls-132" d="M245,18c-.12.58-.58.34-.92.38s-.73-.11-.75.43a.9.9,0,0,1-.64-.75L244.8,18Z"/><path class="cls-133" d="M244.18,19.82c.32.31.17.65,0,1s.07.43.37.37c0,.09,0,.18,0,.27-.29.12-.57.31-.9.16A3.79,3.79,0,0,1,244.18,19.82Z"/><path class="cls-12" d="M243.32,18.85c.38-.08.57.19.78.44C243.75,19.3,243.44,19.24,243.32,18.85Z"/><path class="cls-12" d="M226.42,14.39a1.3,1.3,0,0,1-.7.82C225.66,14.69,226,14.49,226.42,14.39Z"/><path class="cls-12" d="M225.07,16.07a1.81,1.81,0,0,1-.63.79C224.42,16.42,224.57,16.1,225.07,16.07Z"/><path class="cls-12" d="M227,13.71a.82.82,0,0,1-.56.69C226.49,14.1,226.56,13.77,227,13.71Z"/><path class="cls-12" d="M234.51,4.5c.06.25-.16.38-.25.56a.7.7,0,0,0-.19.06.56.56,0,0,1,0-.62Z"/><path class="cls-12" d="M232.8,6.6a1,1,0,0,1,.66-.81A1.22,1.22,0,0,1,232.8,6.6Z"/><path class="cls-12" d="M229.58,10.49a.6.6,0,0,1,.61-.63A1.05,1.05,0,0,1,229.58,10.49Z"/><path class="cls-134" d="M219.07,7.49c0-.21.21-.41,0-.62s-.77-.66.16-.64c.58,0,.24-.9.86-.84l.19.22c0,.31.1.57.5.55s.47.12.38.45c-.3.13-.49.32-.38.68a.76.76,0,0,1,.17.54c-.05.19-.1.39-.37.32h-.24a2.76,2.76,0,0,0-.8-.25C219.23,8,219.08,7.81,219.07,7.49Z"/><path class="cls-12" d="M219.28,5.78c-.28.38-.84,0-1.11.41C218.28,5.36,218.94,6,219.28,5.78Z"/><path class="cls-12" d="M257.17,29.82c.6-.31.79.08.92.56Z"/><path class="cls-12" d="M232.1,52.29a.9.9,0,0,1-.8-1C231.72,51.5,231.87,51.93,232.1,52.29Z"/><path class="cls-135" d="M242,46.74c-.27,0-.38-.22-.44-.45a1.12,1.12,0,0,0,0-.86c-.12-.13-.32-.19-.35-.4s.37-.28.61-.29c.43,0,.66-.2.62-.65.07-.18.13-.37.2-.55A2.48,2.48,0,0,0,244.39,45l-.24.21c-.38.14-.38.42-.32.77s0,.73-.55.52C242.77,46.1,242.38,46.34,242,46.74Z"/><path class="cls-136" d="M243.28,46.51c.44,0,.36-.3.27-.61-.15-.51.08-.74.6-.68l-.19.26a5,5,0,0,0,.16,1.09C243.79,47.26,243.54,46.77,243.28,46.51Z"/><path class="cls-12" d="M244.12,46.57c-.21-.34-.51-.66-.16-1.09A1.48,1.48,0,0,1,244.12,46.57Z"/><path class="cls-12" d="M226.16,44.35a.88.88,0,0,1,.45.64C226.15,45,226.15,44.68,226.16,44.35Z"/><path class="cls-12" d="M257.21,32.56c0-.05.05-.11.08-.17.51.15.95-.23,1.44-.2,0,.32-.32.38-.43.6Z"/><path class="cls-12" d="M261,31.3c.49.39.05.52-.21.59a3.11,3.11,0,0,1-.81,0C260.25,31.54,260.94,31.92,261,31.3Z"/><path class="cls-12" d="M260.18,30.89c.3-.12.68-.43.66.26C260.6,31.1,260.35,31.1,260.18,30.89Z"/><path class="cls-12" d="M257,37.09c.1.66-.2.87-.84.83-.44,0-.93-.14-1.31.22.11-.41.11-.43.67-.42S256.75,37.79,257,37.09Z"/><path class="cls-12" d="M257.21,36.9l-.17.19c0-.31-.33-.66.16-.87C257.2,36.45,257.21,36.68,257.21,36.9Z"/><path class="cls-12" d="M214.39,72.85a1.57,1.57,0,0,1,.38-1.11A1.19,1.19,0,0,1,214.39,72.85Z"/><path class="cls-137" d="M224.46,52.29c.16-.38.64-.12.85-.41.45-.75.77-.47,1.05.14.11.29.61,0,.64.41-.62.26-.27,1-.64,1.35-.19-.13-.36-.35-.63-.2-.27,0-.72.17-.64-.36S224.79,52.51,224.46,52.29Z"/><path class="cls-12" d="M241.21,45c.15.11.35.17.35.4-.38,0-.71,0-.82-.48Z"/><path class="cls-12" d="M234.51,55.54a1.77,1.77,0,0,1,.67,1A1,1,0,0,1,234.51,55.54Z"/><path class="cls-12" d="M233.88,54.84a1.05,1.05,0,0,1,.6.67A.59.59,0,0,1,233.88,54.84Z"/><path class="cls-138" d="M220.6,8.15l.2-.22c.45-.07.26.35.4.51l0,.06C220.85,8.59,220.61,8.53,220.6,8.15Z"/><path class="cls-12" d="M221.2,8.44l-.4-.51V7.29C221.33,7.54,221.22,8,221.2,8.44Z"/><path class="cls-12" d="M255.3,38.37a.93.93,0,0,1,.82.64C255.45,39.31,255.55,38.63,255.3,38.37Z"/><path class="cls-12" d="M228.27,46.94c.06.22.3.37.24.64-.42,0-.42-.33-.45-.62l0,0A.11.11,0,0,1,228.27,46.94Z"/><path class="cls-12" d="M242.21,8.82,242,8.76c-.21-.46.1-.56.43-.64Z"/><path class="cls-139" d="M228.27,46.94l-.18,0-.23-.6.21-.24.45.64Z"/><path class="cls-2" d="M254.87,33c.12-.48.32-.52.84-.19Z"/></g></g></svg>