<svg xmlns="http://www.w3.org/2000/svg" viewBox="0 0 151.21 15.11"><defs><style>.cls-1{fill:#fff;}</style></defs><g id="Layer_2" data-name="Layer 2"><g id="Layer_1-2" data-name="Layer 1"><path class="cls-1" d="M1.9,12.18A2.07,2.07,0,0,1,1.1,12a1.47,1.47,0,0,1-.6-.44,1.74,1.74,0,0,1-.37-.73,3.53,3.53,0,0,1-.13-1A3.78,3.78,0,0,1,.17,8.71a2.38,2.38,0,0,1,.59-.94,2.8,2.8,0,0,1,1.15-.63,6.46,6.46,0,0,1,1.85-.22V5.54a2.35,2.35,0,0,0-.11-.76.88.88,0,0,0-.36-.48,1.08,1.08,0,0,0-.62-.16,1.12,1.12,0,0,0-.77.22,1.17,1.17,0,0,0-.33.6,4.15,4.15,0,0,0-.08.82v.11H.31a.66.66,0,0,1,0-.15V5.56A2.82,2.82,0,0,1,.63,4.08a1.9,1.9,0,0,1,.88-.78,3,3,0,0,1,1.22-.24,2.94,2.94,0,0,1,1.19.23,1.59,1.59,0,0,1,.79.77A3.33,3.33,0,0,1,5,5.59v4.94a.64.64,0,0,0,.11.42.34.34,0,0,0,.29.14h.49v.83a3.79,3.79,0,0,1-.48.17,2,2,0,0,1-.54.08A.9.9,0,0,1,4.3,12,1,1,0,0,1,4,11.55a2.28,2.28,0,0,1-.11-.61h-.1a2.66,2.66,0,0,1-.42.63,2.05,2.05,0,0,1-.61.45A1.92,1.92,0,0,1,1.9,12.18Zm.4-1.07A1.12,1.12,0,0,0,2.81,11a1.36,1.36,0,0,0,.47-.41,2.41,2.41,0,0,0,.35-.7,3.7,3.7,0,0,0,.13-1v-1a3.72,3.72,0,0,0-1.56.25,1.45,1.45,0,0,0-.72.68,2.19,2.19,0,0,0-.19.94,2.32,2.32,0,0,0,.12.8,1,1,0,0,0,.34.48A1,1,0,0,0,2.3,11.11Z"/><path class="cls-1" d="M8.09,12.18a1.23,1.23,0,0,1-.82-.24,1.11,1.11,0,0,1-.35-.68,4.92,4.92,0,0,1-.08-1V4.34H6.22V3.26h.63L7.07.79h1V3.26h1V4.34h-1v6a1.24,1.24,0,0,0,.09.55.33.33,0,0,0,.32.18h.56V12l-.32.11-.33.09Z"/><path class="cls-1" d="M15,12.18A4.84,4.84,0,0,1,13.77,12a2.2,2.2,0,0,1-1-.53,2.5,2.5,0,0,1-.63-1A5.3,5.3,0,0,1,12,8.79v-.3h1.37v.33a4.2,4.2,0,0,0,.16,1.24,1.19,1.19,0,0,0,.53.68A1.91,1.91,0,0,0,15,11a2.16,2.16,0,0,0,.59-.08,1.29,1.29,0,0,0,.47-.23,1.23,1.23,0,0,0,.35-.4,2.12,2.12,0,0,0,.22-.57,4.19,4.19,0,0,0,.07-.76,1.93,1.93,0,0,0-.19-.9A1.75,1.75,0,0,0,16,7.4,4.17,4.17,0,0,0,15.25,7l-.84-.39a6.77,6.77,0,0,1-.85-.43,3.15,3.15,0,0,1-.73-.59,2.39,2.39,0,0,1-.52-.84,3.36,3.36,0,0,1-.19-1.22,3.63,3.63,0,0,1,.23-1.38,2.55,2.55,0,0,1,.63-1A2.62,2.62,0,0,1,13.92.6,3.16,3.16,0,0,1,15,.41a3.86,3.86,0,0,1,1.22.18,2.25,2.25,0,0,1,1.49,1.49,4.29,4.29,0,0,1,.2,1.43v.28H16.58v-.3a3.24,3.24,0,0,0-.14-1A1.19,1.19,0,0,0,16,1.87a1.66,1.66,0,0,0-.88-.21,1.87,1.87,0,0,0-.76.15,1.22,1.22,0,0,0-.56.52,2,2,0,0,0-.2,1,1.86,1.86,0,0,0,.19.89,1.7,1.7,0,0,0,.52.61,3.54,3.54,0,0,0,.73.44c.27.13.55.25.85.37a7.21,7.21,0,0,1,.83.43,4.23,4.23,0,0,1,.74.6,2.36,2.36,0,0,1,.53.87,3.57,3.57,0,0,1,.19,1.25,4.13,4.13,0,0,1-.4,2,2.35,2.35,0,0,1-1.1,1.08A3.65,3.65,0,0,1,15,12.18Z"/><path class="cls-1" d="M20.92,12.18a2,2,0,0,1-.8-.15,1.57,1.57,0,0,1-.61-.44,1.86,1.86,0,0,1-.37-.73,3.94,3.94,0,0,1-.12-1,3.78,3.78,0,0,1,.17-1.14,2.27,2.27,0,0,1,.59-.94,2.74,2.74,0,0,1,1.15-.63,6.43,6.43,0,0,1,1.84-.22V5.54a2.37,2.37,0,0,0-.1-.76.93.93,0,0,0-.36-.48,1.09,1.09,0,0,0-.63-.16,1.11,1.11,0,0,0-.76.22,1,1,0,0,0-.33.6,3.51,3.51,0,0,0-.08.82v.11H19.33a.61.61,0,0,1,0-.15V5.56a2.73,2.73,0,0,1,.34-1.48,1.92,1.92,0,0,1,.87-.78,3,3,0,0,1,1.23-.24,2.89,2.89,0,0,1,1.18.23,1.61,1.61,0,0,1,.8.77A3.33,3.33,0,0,1,24,5.59v4.94a.71.71,0,0,0,.1.42.36.36,0,0,0,.29.14h.5v.83a3.79,3.79,0,0,1-.48.17,2,2,0,0,1-.55.08.88.88,0,0,1-.89-.62,2,2,0,0,1-.12-.61h-.1a2.66,2.66,0,0,1-.42.63,1.89,1.89,0,0,1-.6.45A1.92,1.92,0,0,1,20.92,12.18Zm.4-1.07a1.08,1.08,0,0,0,.5-.14,1.28,1.28,0,0,0,.47-.41,2.19,2.19,0,0,0,.35-.7,3.35,3.35,0,0,0,.13-1v-1a3.7,3.7,0,0,0-1.55.25,1.45,1.45,0,0,0-.72.68,2.19,2.19,0,0,0-.19.94,2.62,2.62,0,0,0,.11.8,1,1,0,0,0,.34.48A1,1,0,0,0,21.32,11.11Z"/><path class="cls-1" d="M25.8,12V3.26h1l.1,1.14H27a2.59,2.59,0,0,1,.47-.77,2,2,0,0,1,.63-.43,1.89,1.89,0,0,1,.72-.14,1.7,1.7,0,0,1,.91.22A1.32,1.32,0,0,1,30.3,4a3.29,3.29,0,0,1,.2,1.29V12H29.26V5.58a3,3,0,0,0,0-.54,1.6,1.6,0,0,0-.13-.42.64.64,0,0,0-.26-.28.83.83,0,0,0-.45-.1,1,1,0,0,0-.68.28,1.77,1.77,0,0,0-.48.86A5,5,0,0,0,27,6.84V12Z"/><path class="cls-1" d="M34,12.18a1.63,1.63,0,0,1-1.18-.44,2.77,2.77,0,0,1-.7-1.45,12.06,12.06,0,0,1-.24-2.69A13,13,0,0,1,32.06,5a2.74,2.74,0,0,1,.69-1.44A1.63,1.63,0,0,1,34,3.06a1.65,1.65,0,0,1,.68.14,1.81,1.81,0,0,1,.52.4,1.92,1.92,0,0,1,.35.65h.09V0h1.24V12h-1l-.1-1.12h-.08a1.93,1.93,0,0,1-.58.92A1.58,1.58,0,0,1,34,12.18Zm.37-1.12a.85.85,0,0,0,.73-.37,2.33,2.33,0,0,0,.4-1.06,10.05,10.05,0,0,0,.13-1.7V7.37A9.4,9.4,0,0,0,35.5,6a3.58,3.58,0,0,0-.25-1,1.41,1.41,0,0,0-.4-.57.87.87,0,0,0-.57-.19.76.76,0,0,0-.64.32,2.29,2.29,0,0,0-.38,1,10.89,10.89,0,0,0-.12,1.8v.56a12.26,12.26,0,0,0,.1,1.77,2.31,2.31,0,0,0,.38,1A.85.85,0,0,0,34.33,11.06Z"/><path class="cls-1" d="M40.93,12.18a2.48,2.48,0,0,1-1.57-.46,2.59,2.59,0,0,1-.85-1.47,11,11,0,0,1-.26-2.62A10.14,10.14,0,0,1,38.53,5a2.59,2.59,0,0,1,.9-1.45A2.57,2.57,0,0,1,41,3.06a2.48,2.48,0,0,1,1.37.37,2.3,2.3,0,0,1,.84,1.26,8.6,8.6,0,0,1,.28,2.43V7.9h-4a12.93,12.93,0,0,0,.11,1.82,2,2,0,0,0,.41,1,1.13,1.13,0,0,0,.86.34,1.24,1.24,0,0,0,.52-.11,1,1,0,0,0,.41-.36,1.72,1.72,0,0,0,.27-.64,4.37,4.37,0,0,0,.12-1h1.22a5,5,0,0,1-.19,1.37,2.82,2.82,0,0,1-.48,1A2,2,0,0,1,42,12,2.62,2.62,0,0,1,40.93,12.18ZM39.54,7h2.67a12.16,12.16,0,0,0-.06-1.31,3.81,3.81,0,0,0-.19-.9,1.11,1.11,0,0,0-.38-.52,1.25,1.25,0,0,0-1.49.2,2,2,0,0,0-.43,1A8.44,8.44,0,0,0,39.54,7Z"/><path class="cls-1" d="M44.92,12V3.26h1L46,4.45h.09a2.77,2.77,0,0,1,.38-.79A1.53,1.53,0,0,1,47,3.21a1.06,1.06,0,0,1,.55-.15l.19,0,.18,0V4.5H47.4a.89.89,0,0,0-.46.13,1.16,1.16,0,0,0-.41.39,2.29,2.29,0,0,0-.27.71,4.69,4.69,0,0,0-.1,1.07V12Z"/><path class="cls-1" d="M50.46,12.18A2.93,2.93,0,0,1,49.35,12a1.65,1.65,0,0,1-.71-.52,2.18,2.18,0,0,1-.37-.8,4.6,4.6,0,0,1-.11-1c0-.07,0-.14,0-.2l0-.2h1.14a1.23,1.23,0,0,0,0,.2v.2a2.41,2.41,0,0,0,.12.8,1,1,0,0,0,1,.7,1.26,1.26,0,0,0,.69-.17,1,1,0,0,0,.37-.51,2.57,2.57,0,0,0,.12-.84,1.47,1.47,0,0,0-.2-.81,1.5,1.5,0,0,0-.52-.48L50.2,8c-.23-.11-.46-.22-.68-.35a2.53,2.53,0,0,1-.6-.49,2,2,0,0,1-.42-.72,3.24,3.24,0,0,1-.15-1.07,2.91,2.91,0,0,1,.15-1A2,2,0,0,1,49,3.66a1.87,1.87,0,0,1,.71-.45,2.67,2.67,0,0,1,.91-.15,2.73,2.73,0,0,1,.94.15,1.82,1.82,0,0,1,.67.42,2,2,0,0,1,.4.67,2.39,2.39,0,0,1,.14.88c0,.09,0,.19,0,.29a2.48,2.48,0,0,1,0,.29H51.56V5.28a1.51,1.51,0,0,0-.13-.7.81.81,0,0,0-.35-.38.91.91,0,0,0-.5-.13,1.09,1.09,0,0,0-.5.1.94.94,0,0,0-.32.27,1.15,1.15,0,0,0-.17.41,1.86,1.86,0,0,0-.05.48,1.25,1.25,0,0,0,.19.74,1.44,1.44,0,0,0,.49.46c.21.12.43.23.66.34a7.33,7.33,0,0,1,.69.34,3,3,0,0,1,.65.48,2,2,0,0,1,.47.73,3.09,3.09,0,0,1,.17,1.13,3.83,3.83,0,0,1-.16,1.18,1.94,1.94,0,0,1-.49.81,1.9,1.9,0,0,1-.76.48A2.78,2.78,0,0,1,50.46,12.18Z"/><path class="cls-1" d="M56.41,12V.61h3.06a3.26,3.26,0,0,1,1.85.45,2.4,2.4,0,0,1,.94,1.21A5.17,5.17,0,0,1,62.53,4a5.09,5.09,0,0,1-.32,1.85,2.78,2.78,0,0,1-1,1.27,2.84,2.84,0,0,1-1.65.45H57.81V12Zm1.4-5.62H59.3a1.57,1.57,0,0,0,1.37-.62,2.87,2.87,0,0,0,.44-1.67,3.69,3.69,0,0,0-.18-1.24,1.32,1.32,0,0,0-.58-.74,2.18,2.18,0,0,0-1.11-.24H57.81Z"/><path class="cls-1" d="M63.66,12V0H64.9V12Z"/><path class="cls-1" d="M68.19,12.18A1.58,1.58,0,0,1,67,11.69,2.53,2.53,0,0,1,66.5,10V3.26h1.24V9.68a2.89,2.89,0,0,0,.05.53,1.28,1.28,0,0,0,.13.43.64.64,0,0,0,.26.28.84.84,0,0,0,.44.1,1,1,0,0,0,.69-.29,2,2,0,0,0,.48-.87A5.34,5.34,0,0,0,70,8.41V3.26H71.2V12h-1l-.1-1.14H70a2.65,2.65,0,0,1-.47.78,1.66,1.66,0,0,1-.61.43A2,2,0,0,1,68.19,12.18Z"/><path class="cls-1" d="M72.89,12V3.26h1L74,4.4h.08a2.59,2.59,0,0,1,.47-.77,2.06,2.06,0,0,1,.61-.43,1.87,1.87,0,0,1,.71-.14,1.62,1.62,0,0,1,1,.31,1.64,1.64,0,0,1,.53,1h.08A3.08,3.08,0,0,1,78,3.63a1.76,1.76,0,0,1,.59-.43,1.87,1.87,0,0,1,.71-.14,1.7,1.7,0,0,1,.91.22,1.36,1.36,0,0,1,.56.69A3.29,3.29,0,0,1,81,5.26V12H79.71V5.58a4.39,4.39,0,0,0,0-.54,1.29,1.29,0,0,0-.13-.42.62.62,0,0,0-.25-.28.83.83,0,0,0-.45-.1,1,1,0,0,0-.68.28,1.84,1.84,0,0,0-.46.86,5.42,5.42,0,0,0-.17,1.46V12H76.3V5.58a4.39,4.39,0,0,0,0-.54,1.29,1.29,0,0,0-.13-.42.62.62,0,0,0-.25-.28.81.81,0,0,0-.43-.1.94.94,0,0,0-.69.28,1.93,1.93,0,0,0-.46.86,5,5,0,0,0-.18,1.46V12Z"/><path class="cls-1" d="M85.42,12.18a1.55,1.55,0,0,1-1.12-.4,2.09,2.09,0,0,1-.58-.92h-.09L83.53,12h-1V0H83.8V4.25h.08a2.13,2.13,0,0,1,.37-.65,1.48,1.48,0,0,1,.52-.4,1.72,1.72,0,0,1,1.86.33A2.89,2.89,0,0,1,87.32,5a13,13,0,0,1,.22,2.63,12.78,12.78,0,0,1-.23,2.69,2.77,2.77,0,0,1-.71,1.45A1.63,1.63,0,0,1,85.42,12.18Zm-.36-1.12a.88.88,0,0,0,.71-.33,2.32,2.32,0,0,0,.37-1,12.07,12.07,0,0,0,.11-1.77V7.37a9.77,9.77,0,0,0-.13-1.8,2.3,2.3,0,0,0-.37-1,.76.76,0,0,0-.66-.32.86.86,0,0,0-.56.19,1.33,1.33,0,0,0-.41.57,4.57,4.57,0,0,0-.24,1,11.15,11.15,0,0,0-.08,1.4v.56a10.17,10.17,0,0,0,.12,1.7,2.33,2.33,0,0,0,.41,1.06A.87.87,0,0,0,85.06,11.06Z"/><path class="cls-1" d="M89,1.54V0H90.2V1.54ZM89,12V3.26H90.2V12Z"/><path class="cls-1" d="M91.89,12V3.26h1L93,4.4h.08a2.82,2.82,0,0,1,.48-.77,2.1,2.1,0,0,1,.62-.43,2,2,0,0,1,.72-.14,1.74,1.74,0,0,1,.92.22,1.32,1.32,0,0,1,.57.69,3.29,3.29,0,0,1,.2,1.29V12H95.35V5.58a3,3,0,0,0,0-.54,1.6,1.6,0,0,0-.13-.42.64.64,0,0,0-.26-.28.83.83,0,0,0-.45-.1,1,1,0,0,0-.68.28,1.77,1.77,0,0,0-.48.86,5,5,0,0,0-.18,1.46V12Z"/><path class="cls-1" d="M99.54,15.11a2,2,0,0,1-1.08-.29,1.93,1.93,0,0,1-.72-.8,2.5,2.5,0,0,1-.25-1.13,2.39,2.39,0,0,1,.31-1.23,2,2,0,0,1,.86-.8,1.52,1.52,0,0,1-.63-.6,1.61,1.61,0,0,1-.21-.79,1.46,1.46,0,0,1,.3-.91A1.51,1.51,0,0,1,99,8a2.15,2.15,0,0,1-.74-.94A3.19,3.19,0,0,1,98,5.81a3.4,3.4,0,0,1,.27-1.38,2.24,2.24,0,0,1,.79-1,2.32,2.32,0,0,1,1.33-.37,2.08,2.08,0,0,1,.63.09,1.59,1.59,0,0,1,.51.23,1.41,1.41,0,0,0,.5-.57,2.83,2.83,0,0,0,.29-1h1.06a2.93,2.93,0,0,1-.18,1,1.94,1.94,0,0,1-.43.7,1.37,1.37,0,0,1-.63.38,2.6,2.6,0,0,1,.46.89,3.58,3.58,0,0,1,.15,1,3.55,3.55,0,0,1-.25,1.39,2.29,2.29,0,0,1-.77,1,2.09,2.09,0,0,1-1.26.36h-.7a.75.75,0,0,0-.79.83.7.7,0,0,0,.28.61,1.2,1.2,0,0,0,.7.2h1.4a1.68,1.68,0,0,1,1.45.68,2.75,2.75,0,0,1,.49,1.67,3.13,3.13,0,0,1-.27,1.31,2.15,2.15,0,0,1-.76.94,2,2,0,0,1-1.24.35Zm.31-1h1a1.08,1.08,0,0,0,.66-.2,1.16,1.16,0,0,0,.42-.53,1.67,1.67,0,0,0,.14-.71,1.87,1.87,0,0,0-.27-1.06.89.89,0,0,0-.78-.39H99.85a1,1,0,0,0-.83.42,1.66,1.66,0,0,0-.31,1,1.67,1.67,0,0,0,.3,1A1,1,0,0,0,99.85,14.15Zm.52-6.55a.94.94,0,0,0,.85-.46,2.52,2.52,0,0,0,.29-1.33,2.59,2.59,0,0,0-.29-1.34.94.94,0,0,0-.85-.46,1,1,0,0,0-.87.46,2.59,2.59,0,0,0-.29,1.34,3.1,3.1,0,0,0,.13,1,1.19,1.19,0,0,0,.4.61A1,1,0,0,0,100.37,7.6Z"/><path class="cls-1" d="M106.47,12V.61h1.41V6.67L111.52.61H113L110.2,5.18l2.93,6.8h-1.54L109.3,6.57l-1.42,2.19V12Z"/><path class="cls-1" d="M114.09,12V3.26h1l.1,1.14h.08a2.41,2.41,0,0,1,.48-.77,2,2,0,0,1,.62-.43,1.89,1.89,0,0,1,.72-.14,1.77,1.77,0,0,1,.92.22,1.32,1.32,0,0,1,.57.69,3.49,3.49,0,0,1,.2,1.29V12h-1.24V5.58a2.92,2.92,0,0,0,0-.54,1.29,1.29,0,0,0-.13-.42.62.62,0,0,0-.25-.28.86.86,0,0,0-.45-.1,1,1,0,0,0-.69.28,1.94,1.94,0,0,0-.48.86,5.42,5.42,0,0,0-.17,1.46V12Z"/><path class="cls-1" d="M122.76,12.18a2.38,2.38,0,0,1-1.45-.44,2.79,2.79,0,0,1-.88-1.45,9.6,9.6,0,0,1-.3-2.66,9.6,9.6,0,0,1,.3-2.66,2.79,2.79,0,0,1,.88-1.45,2.27,2.27,0,0,1,1.45-.46,2.31,2.31,0,0,1,1.47.46,2.75,2.75,0,0,1,.9,1.45,9.65,9.65,0,0,1,.29,2.66,9.65,9.65,0,0,1-.29,2.66,2.75,2.75,0,0,1-.9,1.45A2.42,2.42,0,0,1,122.76,12.18Zm0-1.07a1.05,1.05,0,0,0,.79-.31,1.86,1.86,0,0,0,.43-1,10.09,10.09,0,0,0,.14-1.85V7.32A10.13,10.13,0,0,0,124,5.46a1.94,1.94,0,0,0-.43-1,1.14,1.14,0,0,0-1.56,0,2,2,0,0,0-.44,1,10.27,10.27,0,0,0-.13,1.86v.62a10.22,10.22,0,0,0,.13,1.85,1.94,1.94,0,0,0,.44,1A1.06,1.06,0,0,0,122.76,11.11Z"/><path class="cls-1" d="M125.89,12l1.93-4.47L126,3.26h1.37l1.24,3.11h.07l1.22-3.11h1.31L129.36,7.5l2,4.48h-1.38l-1.36-3.34h-.06L127.19,12Z"/><path class="cls-1" d="M133.29,12l-1.73-8.72h1.31l.93,5.23c0,.1,0,.26.07.46s.06.44.09.68,0,.47,0,.68h.1c0-.08,0-.22,0-.45s0-.46.07-.71.06-.49.09-.68l.94-5.21h1.25L134.79,12Z"/><path class="cls-1" d="M137.44,1.54V0h1.24V1.54Zm0,10.44V3.26h1.24V12Z"/><path class="cls-1" d="M140.37,12V0h1.24V12Z"/><path class="cls-1" d="M143.3,12V0h1.24V12Z"/><path class="cls-1" d="M148.64,12.18a2.48,2.48,0,0,1-1.57-.46,2.59,2.59,0,0,1-.85-1.47A11,11,0,0,1,146,7.63,10.58,10.58,0,0,1,146.24,5a2.59,2.59,0,0,1,.9-1.45,2.63,2.63,0,0,1,1.59-.45,2.44,2.44,0,0,1,1.36.37,2.3,2.3,0,0,1,.84,1.26,8.25,8.25,0,0,1,.28,2.43V7.9h-4a12.93,12.93,0,0,0,.11,1.82,2,2,0,0,0,.42,1,1.09,1.09,0,0,0,.85.34,1.29,1.29,0,0,0,.53-.11,1,1,0,0,0,.4-.36,1.9,1.9,0,0,0,.28-.64A5.11,5.11,0,0,0,150,9h1.23a5.46,5.46,0,0,1-.19,1.37,3,3,0,0,1-.49,1,1.94,1.94,0,0,1-.79.59A2.59,2.59,0,0,1,148.64,12.18ZM147.25,7h2.67a12.16,12.16,0,0,0-.06-1.31,3.81,3.81,0,0,0-.19-.9,1,1,0,0,0-.38-.52,1.09,1.09,0,0,0-.61-.16,1.1,1.1,0,0,0-.88.36,2.14,2.14,0,0,0-.43,1A8.44,8.44,0,0,0,147.25,7Z"/></g></g></svg>