<svg xmlns="http://www.w3.org/2000/svg" viewBox="0 0 127.27 26.43"><defs><style>.cls-1{fill:#edb35d;}.cls-2{fill:#fff;}</style></defs><g id="Layer_2" data-name="Layer 2"><g id="Layer_1-2" data-name="Layer 1"><rect class="cls-1" width="127.27" height="26.43"/><path class="cls-2" d="M9.66,16.24l1.15-1.17A3.25,3.25,0,0,0,14,17c1,0,1.74-.35,1.74-1.22s-.78-1.2-2-1.47l-.91-.2c-1.36-.29-2.82-.91-2.82-2.74s1.57-2.79,3.39-2.79a4.14,4.14,0,0,1,3.87,2.06L16,11.83a2.84,2.84,0,0,0-2.75-1.71c-.92,0-1.58.43-1.58,1.17s.66,1.15,1.71,1.41l1.08.26c1.54.37,2.92,1,2.92,2.82s-1.46,2.74-3.42,2.74S10.4,17.86,9.66,16.24Z"/><path class="cls-2" d="M18.82,18.38V8.74h6.82v1.44H20.45v2.56h4.3v1.44h-4.3v2.76h5.19v1.44Z"/><path class="cls-2" d="M26.89,18.38V8.74h6.82v1.44H28.52v2.56h4.3v1.44h-4.3v2.76h5.19v1.44Z"/><path class="cls-2" d="M38.18,18.38V8.74h2L42.25,13l1,2.46,1-2.46,2.07-4.23h2v9.64H46.6V13.85l.2-3.18-1.11,2.76L44,16.75H42.38l-1.67-3.32-1.13-2.76.23,3.18v4.53Z"/><path class="cls-2" d="M52.28,18.38V14.9L48.65,8.74h2l1.42,2.65,1,2.21,1-2.2,1.5-2.66h1.88L53.91,14.9v3.48Z"/><path class="cls-2" d="M61.23,13.55a4.75,4.75,0,1,1,9.49,0,4.75,4.75,0,1,1-9.49,0Zm7.8,0c0-2-1-3.41-3-3.41s-3,1.42-3,3.41S64,17,66,17,69,15.55,69,13.55Z"/><path class="cls-2" d="M72.24,18.38V8.74h4c2,0,3.61,1,3.61,3.34s-1.57,3.25-3.61,3.25H73.87v3Zm1.63-8.2v3.71H76c1.11,0,2.09-.42,2.09-1.81s-1-1.9-2.09-1.9Z"/><path class="cls-2" d="M82.78,18.38v-8.2h-3V8.74h7.54v1.44h-3v8.2Z"/><path class="cls-2" d="M88,18.38V8.74h1.62v9.64Z"/><path class="cls-2" d="M91.18,13.55a4.75,4.75,0,1,1,9.49,0,4.75,4.75,0,1,1-9.49,0Zm7.8,0c0-2-1-3.41-3-3.41s-3,1.42-3,3.41,1,3.41,3,3.41S99,15.55,99,13.55Z"/><path class="cls-2" d="M102.19,18.38V8.74h1.52l3.9,5.61,1,1.51L108.45,14V8.74h1.63v9.64h-1.5l-4-5.7-.87-1.36.11,1.75v5.31Z"/><path class="cls-2" d="M111.45,16.24l1.15-1.17a3.25,3.25,0,0,0,3.15,2c1,0,1.74-.35,1.74-1.22s-.78-1.2-2-1.47l-.91-.2c-1.36-.29-2.82-.91-2.82-2.74s1.57-2.79,3.38-2.79A4.12,4.12,0,0,1,119,10.67l-1.22,1.16A2.84,2.84,0,0,0,115,10.12c-.92,0-1.58.43-1.58,1.17s.66,1.15,1.71,1.41l1.08.26c1.54.37,2.92,1,2.92,2.82s-1.46,2.74-3.42,2.74S112.19,17.86,111.45,16.24Z"/></g></g></svg>