<?xml version="1.0" encoding="UTF-8"?><svg id="Layer_2" xmlns="http://www.w3.org/2000/svg" viewBox="0 0 204.17 12.38"><defs><style>.cls-1{fill:#fdfaec;}</style></defs><g id="Layer_1-2"><path class="cls-1" d="M0,11.72V.66h1.09v6.01l-.05.99,1.04-1.02,3.07-2.84h1.37l-3.2,2.97,3.27,4.95h-1.32l-2.69-4.31-1.49,1.4v2.91H0Z"/><path class="cls-1" d="M7.7,9.13V3.8h1.07v5.1c0,1.27.59,2.06,1.95,2.06,1.72,0,2.38-1.21,2.38-2.59V3.8h1.07v7.92h-1.07v-2.26c-.28,1.32-1.17,2.43-2.81,2.43s-2.59-.92-2.59-2.76Z"/><path class="cls-1" d="M16.48,11.72V3.8h1.09v2.16c.3-1.25,1.17-2.34,2.53-2.34.92,0,1.68.59,1.68,1.68,0,.59-.15,1.09-.3,1.35h-1.17c.21-.25.41-.76.41-1.24,0-.51-.3-.97-1.02-.97-1.19,0-2.13,1.32-2.13,2.69v4.59h-1.09Z"/><path class="cls-1" d="M22.31,11.72v-.86l4.61-5.4.73-.76-1.19.05h-3.81v-.96h6.26v.86l-4.61,5.33-.74.83,1.32-.05h4.19v.96h-6.75Z"/><path class="cls-1" d="M29.89,11.72v-.86l4.61-5.4.73-.76-1.19.05h-3.81v-.96h6.26v.86l-4.61,5.33-.74.83,1.32-.05h4.19v.96h-6.75Z"/><path class="cls-1" d="M37.24,7.76c0-2.58,1.47-4.13,3.62-4.13s3.52,1.45,3.52,3.85c0,.2-.03.4-.05.53h-6.04c.07,1.98,1.14,2.97,2.71,2.97s2.29-.88,2.64-1.65l.66.78c-.56.97-1.62,1.78-3.3,1.78-2.21,0-3.75-1.5-3.75-4.13ZM38.3,7.21h5.08c-.1-1.78-1.07-2.69-2.53-2.69s-2.41.91-2.56,2.69Z"/><path class="cls-1" d="M46.31,2.38V.66h1.09v1.72h-1.09ZM46.31,11.72V3.8h1.09v7.92h-1.09Z"/><path class="cls-1" d="M50.16,9.71v-5.07h-1.29v-.84h1.29v-1.14l1.07-.81v1.95h2.66v.84h-2.66v4.77c0,1.14.59,1.45,1.29,1.45s1.29-.51,1.55-1.07l.38,1.06c-.35.58-1.12,1.06-2.15,1.06-1.21,0-2.15-.76-2.15-2.2Z"/><path class="cls-1" d="M57.24,11.72l-2.99-7.92h1.19l1.72,4.82.79,2.28.76-2.28,1.72-4.82h1.16l-2.99,7.92h-1.35Z"/><path class="cls-1" d="M62.12,7.76c0-2.58,1.47-4.13,3.62-4.13s3.52,1.45,3.52,3.85c0,.2-.03.4-.05.53h-6.04c.07,1.98,1.14,2.97,2.71,2.97s2.29-.88,2.64-1.65l.66.78c-.56.97-1.62,1.78-3.3,1.78-2.21,0-3.75-1.5-3.75-4.13ZM63.17,7.21h5.08c-.1-1.78-1.07-2.69-2.53-2.69s-2.41.91-2.56,2.69Z"/><path class="cls-1" d="M71.15,11.72V3.8h1.09v2.16c.3-1.25,1.17-2.34,2.53-2.34.92,0,1.68.59,1.68,1.68,0,.59-.15,1.09-.3,1.35h-1.17c.21-.25.41-.76.41-1.24,0-.51-.3-.97-1.02-.97-1.19,0-2.13,1.32-2.13,2.69v4.59h-1.09Z"/><path class="cls-1" d="M77.84,11.72V3.8h1.09v2.21c.28-1.3,1.16-2.38,2.62-2.38s2.28.81,2.36,2.41c.26-1.3,1.17-2.41,2.66-2.41s2.38.91,2.38,2.72v5.37h-1.09v-5.12c0-1.39-.61-2.06-1.83-2.06-1.42,0-2.1,1.22-2.1,2.59v4.59h-1.07v-5.12c0-1.39-.61-2.06-1.85-2.06-1.4,0-2.08,1.22-2.08,2.59v4.59h-1.09Z"/><path class="cls-1" d="M91.2,2.38V.66h1.09v1.72h-1.09ZM91.2,11.72V3.8h1.09v7.92h-1.09Z"/><path class="cls-1" d="M94.17,7.76c0-2.58,1.47-4.13,3.62-4.13s3.52,1.45,3.52,3.85c0,.2-.03.4-.05.53h-6.04c.07,1.98,1.14,2.97,2.71,2.97s2.29-.88,2.64-1.65l.66.78c-.56.97-1.62,1.78-3.3,1.78-2.21,0-3.75-1.5-3.75-4.13ZM95.23,7.21h5.08c-.1-1.78-1.07-2.69-2.53-2.69s-2.41.91-2.56,2.69Z"/><path class="cls-1" d="M103.54,9.71v-5.07h-1.29v-.84h1.29v-1.14l1.07-.81v1.95h2.66v.84h-2.66v4.77c0,1.14.59,1.45,1.29,1.45s1.29-.51,1.55-1.07l.38,1.06c-.35.58-1.12,1.06-2.15,1.06-1.21,0-2.15-.76-2.15-2.2Z"/><path class="cls-1" d="M108.26,7.76c0-2.58,1.47-4.13,3.62-4.13s3.52,1.45,3.52,3.85c0,.2-.03.4-.05.53h-6.04c.07,1.98,1.14,2.97,2.71,2.97s2.29-.88,2.64-1.65l.66.78c-.56.97-1.62,1.78-3.3,1.78-2.21,0-3.75-1.5-3.75-4.13ZM109.32,7.21h5.08c-.1-1.78-1.07-2.69-2.53-2.69s-2.41.91-2.56,2.69Z"/><path class="cls-1" d="M117.3,11.72V3.8h1.09v2.16c.3-1.25,1.17-2.34,2.53-2.34.92,0,1.68.59,1.68,1.68,0,.59-.15,1.09-.3,1.35h-1.17c.21-.25.41-.76.41-1.24,0-.51-.3-.97-1.02-.97-1.19,0-2.13,1.32-2.13,2.69v4.59h-1.09Z"/><path class="cls-1" d="M122.55,11.72v-1.95h1.3v1.95h-1.3Z"/><path class="cls-1" d="M125.24,7.76c0-2.49,1.24-4.13,3.3-4.13,1.57,0,2.41,1.09,2.66,2.34V.66h1.07v11.06h-1.07v-2.16c-.25,1.25-1.09,2.34-2.66,2.34-2.06,0-3.3-1.63-3.3-4.14ZM128.87,11c1.6,0,2.33-1.17,2.33-2.49v-1.49c0-1.32-.73-2.48-2.33-2.48-1.44,0-2.53,1.01-2.53,3.22s1.09,3.24,2.53,3.24Z"/><path class="cls-1" d="M134.16,7.76c0-2.58,1.47-4.13,3.62-4.13s3.52,1.45,3.52,3.85c0,.2-.03.4-.05.53h-6.04c.07,1.98,1.14,2.97,2.71,2.97s2.29-.88,2.64-1.65l.66.78c-.56.97-1.62,1.78-3.3,1.78-2.21,0-3.75-1.5-3.75-4.13ZM135.22,7.21h5.08c-.1-1.78-1.07-2.69-2.53-2.69s-2.41.91-2.56,2.69Z"/><path class="cls-1" d="M142.52,12.38l4.29-12.38h.97l-4.29,12.38h-.97Z"/><path class="cls-1" d="M149.32,11.72V.66h1.09v6.01l-.05.99,1.04-1.02,3.07-2.84h1.37l-3.2,2.97,3.27,4.95h-1.32l-2.69-4.31-1.49,1.4v2.91h-1.09Z"/><path class="cls-1" d="M156.72,10.12c0-1.04.78-1.7,1.88-2.2l3-1.37v-.07c0-1.19-.56-1.88-1.85-1.88-1.19,0-2.05.68-2.46,1.55l-.76-.76c.5-.83,1.65-1.77,3.33-1.77,1.85,0,2.81,1.07,2.81,2.84v3.71c0,.41.18.56.56.56h.46v.97h-.74c-.79,0-1.32-.35-1.32-1.35v-.84c-.26,1.14-1.29,2.36-2.87,2.36-1.3,0-2.05-.71-2.05-1.77ZM159.08,10.98c1.47,0,2.56-1.14,2.56-2.21v-1.4l-2.58,1.22c-.86.4-1.25.79-1.25,1.39,0,.66.5,1.01,1.27,1.01Z"/><path class="cls-1" d="M165.46,11.72V3.8h1.09v2.16c.3-1.25,1.17-2.34,2.53-2.34.92,0,1.68.59,1.68,1.68,0,.59-.15,1.09-.3,1.35h-1.17c.21-.25.41-.76.41-1.24,0-.51-.3-.97-1.02-.97-1.19,0-2.13,1.32-2.13,2.69v4.59h-1.09Z"/><path class="cls-1" d="M172.15,11.72V3.8h1.09v2.16c.3-1.25,1.17-2.34,2.53-2.34.92,0,1.68.59,1.68,1.68,0,.59-.15,1.09-.3,1.35h-1.17c.21-.25.41-.76.41-1.24,0-.51-.3-.97-1.02-.97-1.19,0-2.13,1.32-2.13,2.69v4.59h-1.09Z"/><path class="cls-1" d="M178.93,2.38V.66h1.09v1.72h-1.09ZM178.93,11.72V3.8h1.09v7.92h-1.09Z"/><path class="cls-1" d="M181.91,7.76c0-2.58,1.47-4.13,3.62-4.13s3.52,1.45,3.52,3.85c0,.2-.03.4-.05.53h-6.04c.07,1.98,1.14,2.97,2.71,2.97s2.29-.88,2.64-1.65l.66.78c-.56.97-1.62,1.78-3.3,1.78-2.21,0-3.75-1.5-3.75-4.13ZM182.96,7.21h5.08c-.1-1.78-1.07-2.69-2.53-2.69s-2.41.91-2.56,2.69Z"/><path class="cls-1" d="M190.94,11.72V3.8h1.09v2.16c.3-1.25,1.17-2.34,2.53-2.34.92,0,1.68.59,1.68,1.68,0,.59-.15,1.09-.3,1.35h-1.17c.21-.25.41-.76.41-1.24,0-.51-.3-.97-1.02-.97-1.19,0-2.13,1.32-2.13,2.69v4.59h-1.09Z"/><path class="cls-1" d="M197.04,7.76c0-2.58,1.47-4.13,3.62-4.13s3.52,1.45,3.52,3.85c0,.2-.03.4-.05.53h-6.04c.07,1.98,1.14,2.97,2.71,2.97s2.29-.88,2.64-1.65l.66.78c-.56.97-1.62,1.78-3.3,1.78-2.21,0-3.75-1.5-3.75-4.13ZM198.09,7.21h5.08c-.1-1.78-1.07-2.69-2.53-2.69s-2.41.91-2.56,2.69Z"/></g></svg>