<?xml version="1.0" encoding="UTF-8"?><svg id="Layer_2" xmlns="http://www.w3.org/2000/svg" viewBox="0 0 266.4 50.48"><defs><style>.cls-1{fill:#d1370d;}</style></defs><g id="Layer_1-2"><path class="cls-1" d="M.53,6.34c-.15,0-.28-.05-.38-.16s-.15-.23-.15-.37c0-.15.05-.28.15-.38s.23-.15.38-.15h7.39c.14,0,.26.05.37.15s.16.23.16.38c0,.14-.05.26-.16.37s-.23.16-.37.16c-.32,0-.58.13-.78.4-.11.17-.17.34-.17.53,0,.11.02.23.06.34l7.81,21.72,5.52-13.81-2.71-7.54c-.19-.5-.5-.89-.92-1.19-.43-.3-.9-.45-1.42-.45-.14,0-.26-.05-.37-.16s-.16-.23-.16-.37c0-.15.05-.28.16-.38s.23-.15.37-.15h7.39c.15,0,.28.05.38.15.1.1.15.23.15.38,0,.14-.05.26-.15.37-.1.11-.23.16-.38.16-.32,0-.58.13-.78.4-.11.17-.17.34-.17.53,0,.11.02.23.06.34l7.77,21.57,7.77-21.57c.04-.11.06-.22.06-.32,0-.19-.06-.37-.19-.55-.2-.27-.46-.4-.78-.4-.14,0-.26-.05-.36-.16s-.15-.23-.15-.37c0-.15.05-.28.15-.38s.22-.15.36-.15h4.23c.15,0,.28.05.38.15.1.1.15.23.15.38,0,.14-.05.26-.15.37-.1.11-.23.16-.38.16-.52,0-.99.15-1.42.45-.43.3-.73.7-.91,1.19l-8.84,24.5s0,.03-.02.04l-.08.08s-.02.03-.02.04l-.04.02s-.02,0-.02.02l-.06.02s0,.02-.02.02h-.02s-.03.02-.04.02l-2.27.02c-.22,0-.38-.11-.5-.34l-5.52-15.37-6.19,15.45s-.02.03-.02.04l-.06.06s0,.02-.02.02l-.06.04s0,.02-.02.02c0,.01,0,.02-.02.02l-.04.02s-.03.02-.04.02h-.02s0,.02-.02.02l-2.27.02c-.23,0-.39-.11-.5-.34L2.86,7.98c-.19-.5-.5-.89-.91-1.19-.42-.3-.89-.45-1.41-.45Z"/><path class="cls-1" d="M47.13,30.1c0,.44.16.82.47,1.13.31.31.68.47,1.11.47.14,0,.26.05.37.15.11.1.16.22.16.36,0,.15-.05.28-.16.38s-.23.15-.37.15h-7.39c-.15,0-.28-.05-.38-.15s-.15-.23-.15-.38c0-.14.05-.26.15-.36.1-.1.23-.15.38-.15.43,0,.8-.16,1.11-.47s.47-.69.47-1.13V13.2c0-.43-.16-.8-.47-1.11-.31-.31-.68-.47-1.11-.47-.15,0-.28-.05-.38-.15s-.15-.23-.15-.38c0-.14.05-.26.15-.37s.23-.16.38-.16h5.28c.15,0,.28.05.38.16.1.11.15.23.15.37v19.01ZM47.13,4.23c0,.58-.21,1.08-.62,1.5s-.91.62-1.5.62-1.08-.21-1.5-.62c-.41-.41-.62-.91-.62-1.5s.21-1.08.62-1.5c.41-.41.91-.62,1.5-.62s1.08.21,1.5.62c.41.41.62.91.62,1.5Z"/><path class="cls-1" d="M50.98,11.09c0-.14.05-.26.15-.37s.23-.16.38-.16h5.28c.15,0,.28.05.38.16.1.11.15.23.15.37v1.83c.27-.42.61-.81,1.03-1.16.42-.36.93-.64,1.54-.87s1.33-.33,2.17-.33c1.16,0,2.1.18,2.83.53.73.36,1.3.79,1.71,1.31.41.52.7,1.04.89,1.56.18.52.3.96.33,1.32s.06.55.06.56c0,.28-.07.58-.2.91-.13.33-.36.61-.67.85-.31.24-.73.35-1.25.35s-.92-.12-1.23-.35c-.31-.23-.53-.52-.67-.85s-.2-.64-.2-.91c0-.05-.02-.23-.06-.55-.04-.32-.14-.68-.29-1.09-.16-.41-.42-.76-.78-1.08-.36-.31-.87-.47-1.51-.47-.84,0-1.5.16-1.99.48-.49.32-.86.69-1.1,1.11-.25.43-.41.83-.49,1.21-.08.38-.11.65-.11.82v13.81c0,.44.16.82.47,1.13.31.31.68.47,1.11.47.14,0,.26.05.37.15.11.1.16.22.16.36,0,.15-.05.28-.16.38s-.23.15-.37.15h-7.39c-.15,0-.28-.05-.38-.15s-.15-.23-.15-.38c0-.14.05-.26.15-.36.1-.1.23-.15.38-.15.43,0,.8-.16,1.11-.47s.47-.69.47-1.13V13.2c0-.43-.16-.8-.47-1.11-.31-.31-.68-.47-1.11-.47-.15,0-.28-.05-.38-.15s-.15-.23-.15-.38Z"/><path class="cls-1" d="M88.3,11.62c-.94,0-1.71.12-2.31.36-.6.24-1.06.54-1.4.9-.34.36-.58.71-.73,1.08-.15.36-.24.67-.28.93-.03.26-.05.4-.05.43,0,.93.29,1.68.86,2.26.57.58,1.31,1.06,2.21,1.45.9.39,1.87.75,2.91,1.08.8.25,1.59.53,2.36.84.77.31,1.48.66,2.11,1.07,1.49.98,2.23,2.27,2.23,3.89v1.05s-.02.18-.06.48c-.04.29-.14.66-.3,1.1-.17.44-.44.9-.82,1.4-.34.44-.83.88-1.47,1.31-.64.43-1.47.79-2.51,1.09s-2.31.44-3.84.44c-.84,0-1.76-.08-2.77-.24-1.01-.16-1.81-.38-2.41-.68-.08-.04-.15-.06-.21-.06-.01,0-.04,0-.09.02-.04.01-.09.03-.12.04-.04.03-.08.07-.13.13-.05.06-.08.15-.08.25,0,.15-.05.28-.15.38-.1.1-.23.15-.38.15-.14,0-.26-.05-.36-.15s-.15-.23-.15-.38v-5.28c0-.14.04-.26.13-.35s.2-.16.34-.18c.14,0,.26.04.36.11.1.08.17.18.21.32,0,.05.05.24.15.58s.28.74.53,1.21c.25.47.6.94,1.03,1.4.43.46.98.86,1.66,1.18.67.32,1.49.49,2.44.49s1.71-.12,2.31-.37c.6-.25,1.06-.55,1.4-.9.34-.35.58-.7.73-1.07.15-.36.24-.67.28-.93.03-.26.05-.41.05-.45,0-.93-.29-1.68-.86-2.26-.57-.58-1.31-1.06-2.21-1.45-.9-.39-1.87-.75-2.92-1.08-.8-.25-1.59-.53-2.37-.83-.78-.3-1.48-.66-2.1-1.08-1.49-.97-2.23-2.25-2.23-3.87v-1.07s.02-.16.06-.46c.04-.29.14-.66.3-1.1.17-.44.44-.91.82-1.41.33-.43.82-.86,1.46-1.3.64-.43,1.48-.8,2.51-1.1s2.31-.45,3.84-.45c.83,0,1.75.08,2.76.25,1.02.17,1.82.39,2.42.69.06.03.13.04.19.04.03,0,.06,0,.1,0,.04,0,.08-.02.1-.05.04-.03.09-.07.14-.12s.09-.14.09-.26c0-.14.05-.26.15-.37s.22-.16.36-.16c.15,0,.28.05.38.16s.15.23.15.37v5.28c0,.14-.04.26-.13.36s-.2.16-.34.17h-.06c-.11,0-.22-.04-.32-.11s-.17-.18-.19-.31c0-.05-.05-.24-.16-.58-.11-.34-.29-.74-.53-1.22-.25-.48-.59-.95-1.03-1.41-.44-.46-.99-.85-1.66-1.17-.67-.32-1.48-.48-2.43-.48Z"/><path class="cls-1" d="M106.86,30.63c.67,0,1.25-.19,1.72-.58.48-.39.86-.83,1.15-1.32.29-.5.5-.93.64-1.3s.2-.58.2-.62c.04-.14.11-.25.23-.32.08-.05.16-.08.27-.08.05,0,.1,0,.13.02.14.04.25.11.32.23.06.09.1.18.1.29,0,.03,0,.06-.02.1,0,.06-.09.37-.26.91-.17.55-.46,1.18-.87,1.9-1.19,1.93-2.76,2.9-4.69,2.9-2.39,0-4.09-1.16-5.11-3.49-.33-.86-.53-1.64-.6-2.31-.07-.68-.1-1.03-.1-1.06v-12.69c0-.37-.15-.72-.46-1.07-.3-.34-.68-.51-1.12-.51-.14,0-.26-.05-.37-.15-.11-.1-.16-.23-.16-.38,0-.14.05-.26.16-.37.11-.11.23-.16.37-.16,1.31,0,2.43-.46,3.36-1.39s1.4-2.04,1.4-3.35c0-.15.05-.28.15-.38.1-.1.22-.15.36-.15.15,0,.28.05.38.15.1.1.15.23.15.38v4.74h4.76c.14,0,.26.05.36.16s.15.23.15.37c0,.15-.05.28-.15.38s-.22.15-.36.15h-4.76v15.32c0,.05.02.26.06.64s.14.8.29,1.27c.16.47.42.89.78,1.25.36.36.87.54,1.51.54Z"/><path class="cls-1" d="M122.39,22.63c-1.28.29-2.34.6-3.18.93-.84.33-1.41.77-1.71,1.31.1.6.27,1.23.51,1.91.99,2.57,2.67,3.85,5.05,3.85.95,0,1.79-.2,2.52-.59.73-.39,1.34-.85,1.84-1.36.5-.51.87-.97,1.11-1.35.25-.39.38-.59.39-.62.06-.14.16-.23.29-.27.06-.02.13-.04.19-.04s.13.02.21.06c.13.06.22.16.27.29.03.06.04.13.04.19s-.01.13-.04.19c0,.06-.15.37-.44.91-.29.55-.75,1.17-1.37,1.89-1.73,1.88-3.75,2.82-6.08,2.82-1.55,0-2.85-.26-3.89-.78-1.04-.52-1.88-1.17-2.52-1.94-.64-.77-1.13-1.56-1.46-2.34-.36-.83-.61-1.61-.77-2.35-.16-.74-.25-1.36-.29-1.84-.03-.48-.05-.74-.05-.78v-2.11s.02-.28.05-.77c.03-.49.13-1.1.29-1.84.16-.74.42-1.52.77-2.36.33-.79.82-1.57,1.46-2.33.64-.77,1.48-1.42,2.52-1.94,1.04-.53,2.34-.79,3.89-.79,1.36,0,2.49.15,3.4.45.91.3,1.64.67,2.21,1.1.56.44,1,.88,1.3,1.32.33.48.57.94.71,1.38.15.44.23.8.26,1.1.03.29.04.44.04.46,0,1.99-.84,3.5-2.53,4.52-.72.43-1.52.78-2.38,1.05-.86.27-1.73.5-2.61.71ZM117.24,22.71s0,.17.02.46c.47-.46,1.03-.84,1.68-1.15.65-.31,1.32-.59,2.02-.85.83-.31,1.59-.64,2.31-1.01s1.3-.84,1.75-1.43c.46-.58.69-1.37.69-2.36,0-.05-.02-.24-.05-.56-.03-.32-.1-.72-.22-1.18-.11-.46-.3-.92-.56-1.38-.26-.46-.62-.84-1.09-1.15-.46-.31-1.06-.47-1.8-.47-.77,0-1.43.22-1.97.65-.54.43-.98.98-1.33,1.66-.35.67-.62,1.39-.82,2.15-.2.76-.34,1.48-.43,2.15-.09.67-.14,1.23-.16,1.68-.02.44-.03.67-.03.69v2.11Z"/><path class="cls-1" d="M132.25,1.05c-.14,0-.26-.05-.37-.15-.11-.1-.16-.22-.16-.36,0-.15.05-.28.16-.38.11-.1.23-.15.37-.15h5.28c.15,0,.28.05.38.15.1.1.15.23.15.38v29.57c0,.44.16.82.47,1.13.31.31.68.47,1.11.47.15,0,.28.05.38.15.1.1.15.22.15.36,0,.15-.05.28-.15.38s-.23.15-.38.15h-7.39c-.14,0-.26-.05-.37-.15-.11-.1-.16-.23-.16-.38,0-.14.05-.26.16-.36.11-.1.23-.15.37-.15.43,0,.8-.16,1.12-.47.31-.31.47-.69.47-1.13V2.65c0-.44-.16-.82-.47-1.13-.31-.31-.68-.47-1.12-.47Z"/><path class="cls-1" d="M142.33,1.05c-.14,0-.26-.05-.37-.15-.11-.1-.16-.22-.16-.36,0-.15.05-.28.16-.38.11-.1.23-.15.37-.15h5.28c.15,0,.28.05.38.15s.15.23.15.38v29.57c0,.44.16.82.47,1.13.31.31.68.47,1.12.47.15,0,.28.05.38.15.1.1.15.22.15.36,0,.15-.05.28-.15.38-.1.1-.23.15-.38.15h-7.39c-.14,0-.26-.05-.37-.15-.11-.1-.16-.23-.16-.38,0-.14.05-.26.16-.36.11-.1.23-.15.37-.15.43,0,.8-.16,1.12-.47.31-.31.47-.69.47-1.13V2.65c0-.44-.16-.82-.47-1.13-.31-.31-.68-.47-1.12-.47Z"/><path class="cls-1" d="M161.5,22.63c-1.28.29-2.34.6-3.18.93-.84.33-1.41.77-1.71,1.31.1.6.27,1.23.51,1.91.99,2.57,2.67,3.85,5.05,3.85.95,0,1.79-.2,2.52-.59s1.34-.85,1.84-1.36c.5-.51.87-.97,1.12-1.35.25-.39.38-.59.39-.62.06-.14.16-.23.29-.27.06-.02.13-.04.19-.04s.13.02.21.06c.13.06.22.16.27.29.03.06.04.13.04.19s-.01.13-.04.19c0,.06-.15.37-.44.91s-.75,1.17-1.37,1.89c-1.73,1.88-3.75,2.82-6.08,2.82-1.55,0-2.85-.26-3.89-.78-1.04-.52-1.88-1.17-2.52-1.94-.64-.77-1.13-1.56-1.46-2.34-.36-.83-.61-1.61-.77-2.35-.16-.74-.25-1.36-.29-1.84-.03-.48-.05-.74-.05-.78v-2.11s.02-.28.05-.77c.03-.49.13-1.1.29-1.84.16-.74.42-1.52.77-2.36.33-.79.82-1.57,1.46-2.33.64-.77,1.48-1.42,2.52-1.94,1.04-.53,2.34-.79,3.89-.79,1.36,0,2.49.15,3.4.45.91.3,1.64.67,2.21,1.1.56.44,1,.88,1.3,1.32.33.48.57.94.71,1.38.15.44.23.8.26,1.1.03.29.04.44.04.46,0,1.99-.84,3.5-2.53,4.52-.72.43-1.52.78-2.38,1.05-.86.27-1.73.5-2.61.71ZM156.35,22.71s0,.17.02.46c.47-.46,1.03-.84,1.68-1.15.65-.31,1.32-.59,2.02-.85.83-.31,1.59-.64,2.31-1.01.71-.37,1.29-.84,1.75-1.43.46-.58.69-1.37.69-2.36,0-.05-.02-.24-.05-.56-.03-.32-.1-.72-.22-1.18-.11-.46-.3-.92-.56-1.38-.26-.46-.62-.84-1.09-1.15-.46-.31-1.06-.47-1.8-.47-.78,0-1.43.22-1.97.65s-.98.98-1.33,1.66c-.35.67-.62,1.39-.82,2.15-.2.76-.34,1.48-.43,2.15-.09.67-.14,1.23-.16,1.68-.02.44-.03.67-.03.69v2.11Z"/><path class="cls-1" d="M177.39,13.39c.34-.43.8-.86,1.37-1.3.57-.43,1.28-.8,2.12-1.1.84-.3,1.84-.45,3.01-.45s2.15.15,2.94.46c.79.3,1.44.68,1.92,1.11.49.44.87.89,1.13,1.34.28.48.48.94.6,1.37.12.43.19.79.22,1.08.03.29.04.44.04.45v13.74c0,.44.16.82.47,1.13.31.31.68.47,1.11.47.15,0,.28.05.38.15.1.1.15.22.15.36,0,.15-.05.28-.15.38s-.23.15-.38.15h-7.39c-.14,0-.26-.05-.37-.15-.11-.1-.16-.23-.16-.38,0-.14.05-.26.16-.36.11-.1.23-.15.37-.15.44,0,.82-.16,1.12-.47.3-.31.46-.69.46-1.13v-13.79c0-.09-.02-.3-.07-.63-.04-.33-.18-.73-.41-1.21-.23-.48-.59-.9-1.09-1.26-.5-.36-1.21-.54-2.12-.54-1.13,0-2.06.17-2.8.51-.74.34-1.32.74-1.74,1.2-.43.46-.73.88-.92,1.27-.19.39-.3.65-.34.79v13.66c0,.44.16.82.47,1.13.31.31.68.47,1.12.47.15,0,.28.05.38.15.1.1.15.22.15.36,0,.15-.05.28-.15.38-.1.1-.23.15-.38.15h-7.39c-.14,0-.26-.05-.37-.15-.11-.1-.16-.23-.16-.38,0-.14.05-.26.16-.36.11-.1.23-.15.37-.15.44,0,.82-.16,1.12-.47.3-.31.46-.69.46-1.13V13.2c0-.43-.15-.8-.46-1.11-.3-.31-.68-.47-1.12-.47-.14,0-.26-.05-.37-.15-.11-.1-.16-.23-.16-.38,0-.14.05-.26.16-.37.11-.11.23-.16.37-.16h5.28c.15,0,.28.05.38.16s.15.23.15.37v2.84c.11-.18.24-.36.38-.53Z"/><path class="cls-1" d="M213.66,22.63c-1.28.29-2.34.6-3.18.93-.84.33-1.41.77-1.71,1.31.1.6.27,1.23.51,1.91.99,2.57,2.67,3.85,5.05,3.85.95,0,1.79-.2,2.52-.59s1.34-.85,1.84-1.36c.5-.51.87-.97,1.12-1.35.25-.39.38-.59.39-.62.06-.14.16-.23.29-.27.06-.02.13-.04.19-.04s.13.02.21.06c.13.06.22.16.27.29.03.06.04.13.04.19s-.01.13-.04.19c0,.06-.15.37-.44.91s-.75,1.17-1.37,1.89c-1.73,1.88-3.75,2.82-6.08,2.82-1.55,0-2.85-.26-3.89-.78-1.04-.52-1.88-1.17-2.52-1.94-.64-.77-1.13-1.56-1.46-2.34-.36-.83-.61-1.61-.77-2.35-.16-.74-.25-1.36-.29-1.84-.03-.48-.05-.74-.05-.78v-2.11s.02-.28.05-.77c.03-.49.13-1.1.29-1.84.16-.74.42-1.52.77-2.36.33-.79.82-1.57,1.46-2.33.64-.77,1.48-1.42,2.52-1.94,1.04-.53,2.34-.79,3.89-.79,1.36,0,2.49.15,3.4.45.91.3,1.64.67,2.21,1.1.56.44,1,.88,1.3,1.32.33.48.57.94.71,1.38.15.44.23.8.26,1.1.03.29.04.44.04.46,0,1.99-.84,3.5-2.53,4.52-.72.43-1.52.78-2.38,1.05-.86.27-1.73.5-2.61.71ZM208.52,22.71s0,.17.02.46c.47-.46,1.03-.84,1.68-1.15.65-.31,1.32-.59,2.02-.85.83-.31,1.59-.64,2.31-1.01.71-.37,1.29-.84,1.75-1.43.46-.58.69-1.37.69-2.36,0-.05-.02-.24-.05-.56-.03-.32-.1-.72-.22-1.18-.11-.46-.3-.92-.56-1.38-.26-.46-.62-.84-1.09-1.15-.46-.31-1.06-.47-1.8-.47-.78,0-1.43.22-1.97.65s-.98.98-1.33,1.66c-.35.67-.62,1.39-.82,2.15-.2.76-.34,1.48-.43,2.15-.09.67-.14,1.23-.16,1.68-.02.44-.03.67-.03.69v2.11Z"/><path class="cls-1" d="M229.24,30.1c0,.44.16.82.47,1.13.31.31.68.47,1.12.47.14,0,.26.05.37.15.11.1.16.22.16.36,0,.15-.05.28-.16.38-.11.1-.23.15-.37.15h-7.39c-.15,0-.28-.05-.38-.15s-.15-.23-.15-.38c0-.14.05-.26.15-.36.1-.1.23-.15.38-.15.43,0,.8-.16,1.11-.47.31-.31.47-.69.47-1.13V13.2c0-.43-.16-.8-.47-1.11-.31-.31-.68-.47-1.11-.47-.15,0-.28-.05-.38-.15s-.15-.23-.15-.38c0-.14.05-.26.15-.37s.23-.16.38-.16h5.28c.15,0,.28.05.38.16s.15.23.15.37v19.01ZM229.24,4.23c0,.58-.21,1.08-.62,1.5-.41.41-.91.62-1.5.62s-1.08-.21-1.5-.62c-.41-.41-.62-.91-.62-1.5s.21-1.08.62-1.5c.41-.41.91-.62,1.5-.62s1.08.21,1.5.62c.41.41.62.91.62,1.5Z"/><path class="cls-1" d="M239.82,13.39c.34-.43.8-.86,1.37-1.3.57-.43,1.28-.8,2.12-1.1.84-.3,1.84-.45,3.01-.45s2.15.15,2.94.46c.79.3,1.44.68,1.92,1.11.49.44.87.89,1.13,1.34.28.48.48.94.6,1.37.12.43.19.79.22,1.08.03.29.04.44.04.45v13.74c0,.44.16.82.47,1.13.31.31.68.47,1.11.47.15,0,.28.05.38.15.1.1.15.22.15.36,0,.15-.05.28-.15.38s-.23.15-.38.15h-7.39c-.14,0-.26-.05-.37-.15-.11-.1-.16-.23-.16-.38,0-.14.05-.26.16-.36.11-.1.23-.15.37-.15.44,0,.82-.16,1.12-.47.3-.31.46-.69.46-1.13v-13.79c0-.09-.02-.3-.07-.63-.04-.33-.18-.73-.41-1.21-.23-.48-.59-.9-1.09-1.26-.5-.36-1.21-.54-2.12-.54-1.13,0-2.06.17-2.8.51-.74.34-1.32.74-1.74,1.2-.43.46-.73.88-.92,1.27-.19.39-.3.65-.34.79v13.66c0,.44.16.82.47,1.13.31.31.68.47,1.12.47.15,0,.28.05.38.15.1.1.15.22.15.36,0,.15-.05.28-.15.38-.1.1-.23.15-.38.15h-7.39c-.14,0-.26-.05-.37-.15-.11-.1-.16-.23-.16-.38,0-.14.05-.26.16-.36.11-.1.23-.15.37-.15.44,0,.82-.16,1.12-.47.3-.31.46-.69.46-1.13V13.2c0-.43-.15-.8-.46-1.11-.3-.31-.68-.47-1.12-.47-.14,0-.26-.05-.37-.15-.11-.1-.16-.23-.16-.38,0-.14.05-.26.16-.37.11-.11.23-.16.37-.16h5.28c.15,0,.28.05.38.16s.15.23.15.37v2.84c.11-.18.24-.36.38-.53Z"/><path class="cls-1" d="M261.21,5.28c.51,0,.92.12,1.23.35.31.24.54.52.68.85.14.33.21.64.21.91v.04c-.01.13-.07,1.16-.18,3.1-.11,1.94-.25,4.16-.43,6.68-.19,2.86-.36,5.11-.51,6.74-.09.97-.17,1.71-.25,2.23-.05.36-.12.66-.21.91-.09.25-.27.38-.53.38s-.46-.13-.55-.38c-.09-.25-.15-.56-.19-.91-.08-.52-.17-1.26-.27-2.23-.15-1.64-.32-3.89-.51-6.74-.17-2.51-.3-4.74-.42-6.68s-.17-2.97-.17-3.1v-.04c0-.28.07-.58.2-.91.13-.33.36-.61.67-.85.31-.23.73-.35,1.25-.35ZM261.21,28.52c.58,0,1.08.21,1.5.62.41.41.62.91.62,1.5s-.21,1.08-.62,1.5c-.41.41-.91.62-1.5.62s-1.08-.21-1.5-.62c-.41-.41-.62-.91-.62-1.5s.21-1.08.62-1.5c.41-.41.91-.62,1.5-.62Z"/><path class="cls-1" d="M1.2,45.27l1.21-1.22c.54,1.48,2.07,2.05,3.31,2.05,1.01,0,1.83-.36,1.83-1.28,0-.98-.82-1.25-2.13-1.54l-.95-.21c-1.44-.3-2.96-.95-2.96-2.87s1.65-2.93,3.55-2.93,3.34.77,4.06,2.16l-1.28,1.22c-.56-1.25-1.65-1.8-2.89-1.8-.97,0-1.66.45-1.66,1.22,0,.89.69,1.21,1.8,1.48l1.13.27c1.62.39,3.07,1.03,3.07,2.96,0,1.83-1.54,2.89-3.6,2.89-1.93,0-3.7-.69-4.49-2.4Z"/><path class="cls-1" d="M10.94,45.51v-4.03h-1.15v-1.31h1.15v-.89l1.69-1.07v1.96h2.25v1.31h-2.25v3.63c0,.8.38,1,.88,1,.57,0,1-.47,1.21-.89l.53,1.51c-.32.47-1.04.97-2.12.97-1.39,0-2.19-.88-2.19-2.18Z"/><path class="cls-1" d="M15.8,45.94c0-1.04.73-1.68,1.92-2.15l2.46-1.04c-.06-.74-.39-1.24-1.4-1.24s-1.75.57-2.18,1.34l-1.01-1.21c.57-.79,1.72-1.63,3.35-1.63,1.83,0,2.85,1.04,2.85,2.85v2.76c0,.33.12.44.39.44h.47v1.45h-1.04c-.79,0-1.4-.36-1.4-1.42v-.54c-.23.97-.94,2.11-2.48,2.11-1.21,0-1.93-.68-1.93-1.74ZM18.34,46.36c1.12,0,1.87-.66,1.87-1.66v-.79l-1.89.85c-.63.29-.89.54-.89.92,0,.42.29.68.91.68Z"/><path class="cls-1" d="M23.95,47.52v-7.36h1.69v2.08c.27-1.18,1.01-2.24,2.33-2.24.92,0,1.6.6,1.6,1.69,0,.71-.2,1.24-.33,1.47h-1.74c.24-.24.47-.73.47-1.15s-.2-.74-.69-.74c-.85,0-1.63.97-1.63,2.19v4.05h-1.69Z"/><path class="cls-1" d="M31.16,45.51v-4.03h-1.15v-1.31h1.15v-.89l1.69-1.07v1.96h2.25v1.31h-2.25v3.63c0,.8.38,1,.88,1,.57,0,1-.47,1.21-.89l.53,1.51c-.32.47-1.04.97-2.12.97-1.39,0-2.19-.88-2.19-2.18Z"/><path class="cls-1" d="M35.76,43.85c0-2.31,1.44-3.84,3.5-3.84,2.21,0,3.43,1.47,3.43,3.5,0,.27-.03.59-.06.74h-5.26c.09,1.31.86,2.02,2.02,2.02,1.28,0,1.86-.66,2.13-1.28l1.04,1.09c-.56.85-1.56,1.59-3.19,1.59-2.19,0-3.63-1.53-3.63-3.82ZM37.39,43.17h3.78c-.12-1.16-.79-1.8-1.9-1.8-1.04,0-1.74.6-1.87,1.8Z"/><path class="cls-1" d="M46.94,43.85c0-2.37,1.15-3.84,2.93-3.84,1.47,0,2.11.98,2.36,2.13v-4.74h1.69v10.12h-1.69v-1.95c-.24,1.13-.86,2.11-2.33,2.11-1.81,0-2.96-1.47-2.96-3.84ZM50.55,46.31c1.18,0,1.68-.79,1.68-1.99v-.92c0-1.21-.5-2.01-1.69-2.01-1.06,0-1.86.82-1.86,2.46s.8,2.46,1.87,2.46Z"/><path class="cls-1" d="M55.33,43.85c0-2.31,1.44-3.84,3.5-3.84,2.21,0,3.43,1.47,3.43,3.5,0,.27-.03.59-.06.74h-5.26c.09,1.31.86,2.02,2.02,2.02,1.28,0,1.86-.66,2.13-1.28l1.04,1.09c-.56.85-1.56,1.59-3.19,1.59-2.19,0-3.63-1.53-3.63-3.82ZM56.96,43.17h3.78c-.12-1.16-.79-1.8-1.9-1.8-1.04,0-1.74.6-1.87,1.8Z"/><path class="cls-1" d="M63.77,39.12v-1.72h1.69v1.72h-1.69ZM63.77,47.52v-7.36h1.69v7.36h-1.69Z"/><path class="cls-1" d="M67.25,47.52v-7.36h1.69v2.01c.27-1.16,1.03-2.16,2.49-2.16s2.31.86,2.31,2.39v5.12h-1.71v-4.61c0-.91-.3-1.53-1.44-1.53-1.24,0-1.66.8-1.66,2.01v4.12h-1.69Z"/><path class="cls-1" d="M75.08,43.85c0-2.31,1.44-3.84,3.5-3.84,2.21,0,3.43,1.47,3.43,3.5,0,.27-.03.59-.06.74h-5.26c.09,1.31.86,2.02,2.02,2.02,1.28,0,1.86-.66,2.13-1.28l1.04,1.09c-.56.85-1.56,1.59-3.19,1.59-2.19,0-3.63-1.53-3.63-3.82ZM76.72,43.17h3.78c-.12-1.16-.79-1.8-1.9-1.8-1.04,0-1.74.6-1.87,1.8Z"/><path class="cls-1" d="M86.77,47.52v-10.12h1.71v3.07l-.06,1.98,1.47-1.66,3.2-3.38h2.07l-3.76,4.02,3.97,6.1h-2.04l-3.16-4.86-1.69,1.78v3.08h-1.71Z"/><path class="cls-1" d="M95.71,45.94c0-1.04.73-1.68,1.92-2.15l2.46-1.04c-.06-.74-.39-1.24-1.4-1.24s-1.75.57-2.18,1.34l-1.01-1.21c.57-.79,1.72-1.63,3.35-1.63,1.83,0,2.85,1.04,2.85,2.85v2.76c0,.33.12.44.39.44h.47v1.45h-1.04c-.79,0-1.4-.36-1.4-1.42v-.54c-.23.97-.94,2.11-2.48,2.11-1.21,0-1.93-.68-1.93-1.74ZM98.25,46.36c1.12,0,1.87-.66,1.87-1.66v-.79l-1.89.85c-.63.29-.89.54-.89.92,0,.42.29.68.91.68Z"/><path class="cls-1" d="M103.87,47.52v-7.36h1.69v2.08c.27-1.18,1.01-2.24,2.33-2.24.92,0,1.6.6,1.6,1.69,0,.71-.2,1.24-.33,1.47h-1.74c.24-.24.47-.73.47-1.15s-.2-.74-.69-.74c-.85,0-1.63.97-1.63,2.19v4.05h-1.69Z"/><path class="cls-1" d="M110.48,47.52v-7.36h1.69v2.08c.27-1.18,1.01-2.24,2.33-2.24.92,0,1.6.6,1.6,1.69,0,.71-.2,1.24-.33,1.47h-1.74c.24-.24.47-.73.47-1.15s-.2-.74-.69-.74c-.85,0-1.63.97-1.63,2.19v4.05h-1.69Z"/><path class="cls-1" d="M117.19,39.12v-1.72h1.69v1.72h-1.69ZM117.19,47.52v-7.36h1.69v7.36h-1.69Z"/><path class="cls-1" d="M120.3,43.85c0-2.31,1.44-3.84,3.5-3.84,2.21,0,3.43,1.47,3.43,3.5,0,.27-.03.59-.06.74h-5.26c.09,1.31.86,2.02,2.02,2.02,1.28,0,1.86-.66,2.13-1.28l1.04,1.09c-.56.85-1.56,1.59-3.19,1.59-2.19,0-3.63-1.53-3.63-3.82ZM121.93,43.17h3.78c-.12-1.16-.79-1.8-1.9-1.8-1.04,0-1.74.6-1.87,1.8Z"/><path class="cls-1" d="M128.71,47.52v-7.36h1.69v2.08c.27-1.18,1.01-2.24,2.33-2.24.92,0,1.6.6,1.6,1.69,0,.71-.2,1.24-.33,1.47h-1.74c.24-.24.47-.73.47-1.15s-.2-.74-.69-.74c-.85,0-1.63.97-1.63,2.19v4.05h-1.69Z"/><path class="cls-1" d="M134.9,43.85c0-2.31,1.44-3.84,3.5-3.84,2.21,0,3.43,1.47,3.43,3.5,0,.27-.03.59-.06.74h-5.26c.09,1.31.86,2.02,2.02,2.02,1.28,0,1.86-.66,2.13-1.28l1.04,1.09c-.56.85-1.56,1.59-3.19,1.59-2.19,0-3.63-1.53-3.63-3.82ZM136.53,43.17h3.78c-.12-1.16-.79-1.8-1.9-1.8-1.04,0-1.74.6-1.87,1.8Z"/><path class="cls-1" d="M146.48,47.52v-10.12h1.69v4.74c.24-1.15.89-2.13,2.36-2.13,1.8,0,2.95,1.47,2.95,3.84s-1.15,3.84-2.98,3.84c-1.46,0-2.08-.98-2.33-2.11v1.95h-1.69ZM149.86,46.31c1.07,0,1.87-.8,1.87-2.46s-.8-2.46-1.87-2.46c-1.19,0-1.69.8-1.69,2.01v.92c0,1.21.5,1.99,1.69,1.99Z"/><path class="cls-1" d="M154.62,43.85c0-2.31,1.44-3.84,3.5-3.84,2.21,0,3.43,1.47,3.43,3.5,0,.27-.03.59-.06.74h-5.26c.09,1.31.86,2.02,2.02,2.02,1.28,0,1.86-.66,2.13-1.28l1.04,1.09c-.56.85-1.56,1.59-3.19,1.59-2.19,0-3.63-1.53-3.63-3.82ZM156.25,43.17h3.78c-.12-1.16-.79-1.8-1.9-1.8-1.04,0-1.74.6-1.87,1.8Z"/><path class="cls-1" d="M163.06,39.12v-1.72h1.69v1.72h-1.69ZM163.06,47.52v-7.36h1.69v7.36h-1.69Z"/><path class="cls-1" d="M169.43,45.27l1.21-1.22c.54,1.48,2.07,2.05,3.31,2.05,1.01,0,1.83-.36,1.83-1.28,0-.98-.82-1.25-2.13-1.54l-.95-.21c-1.43-.3-2.96-.95-2.96-2.87s1.65-2.93,3.55-2.93,3.34.77,4.06,2.16l-1.28,1.22c-.56-1.25-1.65-1.8-2.89-1.8-.97,0-1.66.45-1.66,1.22,0,.89.69,1.21,1.8,1.48l1.13.27c1.62.39,3.07,1.03,3.07,2.96,0,1.83-1.54,2.89-3.6,2.89-1.93,0-3.7-.69-4.49-2.4Z"/><path class="cls-1" d="M178.64,45.94c0-1.04.72-1.68,1.92-2.15l2.46-1.04c-.06-.74-.39-1.24-1.41-1.24s-1.75.57-2.17,1.34l-1.01-1.21c.57-.79,1.72-1.63,3.35-1.63,1.83,0,2.86,1.04,2.86,2.85v2.76c0,.33.12.44.39.44h.47v1.45h-1.04c-.79,0-1.4-.36-1.4-1.42v-.54c-.23.97-.94,2.11-2.48,2.11-1.21,0-1.93-.68-1.93-1.74ZM181.18,46.36c1.12,0,1.87-.66,1.87-1.66v-.79l-1.89.85c-.63.29-.89.54-.89.92,0,.42.29.68.91.68Z"/><path class="cls-1" d="M186.8,47.52v-10.12h1.69v10.12h-1.69Z"/><path class="cls-1" d="M190.27,47.52v-7.36h1.69v7.36h-1.69ZM190.36,39.26l1.15-1.8h2.1l-1.77,1.8h-1.48Z"/><path class="cls-1" d="M196.66,42.45c0-2.92,1.75-5.2,4.86-5.2,2.24,0,3.78,1.15,4.49,3.13l-1.48,1.09c-.32-1.53-1.25-2.6-2.99-2.6-2.08,0-3.07,1.48-3.07,3.58s.98,3.58,3.07,3.58c1.74,0,2.67-1.09,2.99-2.6l1.48,1.09c-.71,1.96-2.25,3.13-4.49,3.13-3.11,0-4.86-2.28-4.86-5.2Z"/><path class="cls-1" d="M206.88,43.85c0-2.3,1.45-3.84,3.57-3.84s3.59,1.54,3.59,3.84-1.45,3.82-3.59,3.82-3.57-1.54-3.57-3.82ZM212.32,43.85c0-1.71-.76-2.43-1.86-2.43s-1.84.73-1.84,2.43.75,2.42,1.84,2.42,1.86-.73,1.86-2.42Z"/><path class="cls-1" d="M215.49,47.52v-7.36h1.69v2.01c.27-1.16,1.03-2.16,2.49-2.16s2.31.86,2.31,2.39v5.12h-1.71v-4.61c0-.91-.3-1.53-1.43-1.53-1.24,0-1.66.8-1.66,2.01v4.12h-1.69Z"/><path class="cls-1" d="M222.95,45.88l1-1.06c.41.74,1.31,1.5,2.63,1.5.72,0,1.19-.26,1.19-.79s-.56-.73-1.38-.92l-.98-.24c-1.16-.27-2.24-.79-2.24-2.13s1.1-2.21,2.79-2.21c1.57,0,2.67.76,3.13,1.59l-1,1.06c-.51-.82-1.3-1.3-2.25-1.3-.65,0-1.09.27-1.09.77,0,.53.39.73,1.39.98l.89.23c1.65.42,2.25,1.09,2.25,2.15,0,1.45-1.22,2.18-2.78,2.18s-3.01-.63-3.57-1.8Z"/><path class="cls-1" d="M230.43,45.29v-5.12h1.69v4.61c0,.91.3,1.53,1.43,1.53,1.24,0,1.66-.8,1.66-2.01v-4.12h1.71v7.36h-1.71v-2.01c-.27,1.16-1.03,2.16-2.49,2.16s-2.3-.86-2.3-2.39Z"/><path class="cls-1" d="M238.7,47.52v-10.12h1.69v10.12h-1.69Z"/><path class="cls-1" d="M242.64,45.51v-4.03h-1.15v-1.31h1.15v-.89l1.69-1.07v1.96h2.25v1.31h-2.25v3.63c0,.8.38,1,.88,1,.57,0,1-.47,1.21-.89l.53,1.51c-.32.47-1.04.97-2.12.97-1.39,0-2.19-.88-2.19-2.18Z"/><path class="cls-1" d="M248.09,39.12v-1.72h1.69v1.72h-1.69ZM248.09,47.52v-7.36h1.69v7.36h-1.69Z"/><path class="cls-1" d="M251.57,47.52v-7.36h1.69v2.01c.27-1.16,1.03-2.16,2.49-2.16s2.31.86,2.31,2.39v5.12h-1.71v-4.61c0-.91-.3-1.53-1.43-1.53-1.24,0-1.66.8-1.66,2.01v4.12h-1.69Z"/><path class="cls-1" d="M261.19,45c-.14.23-.3.51-.3.77,0,.38.2.57.88.57h2.37c1.47,0,2.27.59,2.27,1.69,0,1.39-1.36,2.45-4.03,2.45-2.05,0-3.25-.65-3.25-1.57,0-.69.66-1.07,1.38-1.24-.53-.15-.88-.5-.88-1.06,0-.67.57-1.31,1.25-1.78-.74-.45-1.19-1.22-1.19-2.16,0-1.56,1.24-2.66,3.05-2.66.47,0,.89.08,1.27.21l.36-1.77,1.63.56-1.38,1.51c.73.47,1.15,1.22,1.15,2.15,0,1.56-1.22,2.64-3.04,2.64-.57,0-1.1-.11-1.54-.32ZM264.87,48.25c0-.39-.32-.56-.97-.56h-3.07c-.17.17-.35.41-.35.67,0,.54.6.86,1.95.86,1.59,0,2.43-.35,2.43-.97ZM264.16,42.67c0-.92-.63-1.44-1.43-1.44s-1.44.51-1.44,1.44.63,1.44,1.44,1.44,1.43-.51,1.43-1.44Z"/></g></svg>