<svg xmlns="http://www.w3.org/2000/svg" viewBox="0 0 219.5 87.03"><defs><style>.cls-1{fill:#fff;}</style></defs><g id="Layer_2" data-name="Layer 2"><g id="Layer_1-2" data-name="Layer 1"><path class="cls-1" d="M26.91,56.4H23.05l-.73,2h-.9l3.07-8.38h1l3.11,8.36h-.9Zm-.26-.7L25,51.12l-1.66,4.59Z"/><path class="cls-1" d="M35.05,52.11a2.92,2.92,0,0,1,1.64-.45,3.21,3.21,0,0,1,1.62.42,2.86,2.86,0,0,1,1.13,1.18,3.78,3.78,0,0,1,.41,1.79,3.85,3.85,0,0,1-.4,1.8,3,3,0,0,1-1.12,1.2,3.19,3.19,0,0,1-1.62.43A2.9,2.9,0,0,1,35.08,58a2.65,2.65,0,0,1-1-1.1l0,4.58h-.84l0-9.75h.83v1.45A2.76,2.76,0,0,1,35.05,52.11Zm3.61,1.52a2.23,2.23,0,0,0-.88-.92,2.5,2.5,0,0,0-1.26-.31,2.47,2.47,0,0,0-1.24.33,2.31,2.31,0,0,0-.89.94,2.94,2.94,0,0,0-.33,1.41,3.06,3.06,0,0,0,.34,1.41,2.35,2.35,0,0,0,.89.93,2.53,2.53,0,0,0,1.25.32,2.47,2.47,0,0,0,1.26-.33,2.18,2.18,0,0,0,.87-.93A3,3,0,0,0,39,55.05,2.89,2.89,0,0,0,38.66,53.63Z"/><path class="cls-1" d="M43.11,52a2.68,2.68,0,0,1,1.41-.35v.89h-.23a1.87,1.87,0,0,0-2,2.16v3.7h-.84l0-6.63h.85v1.18A2,2,0,0,1,43.11,52Z"/><path class="cls-1" d="M45.78,50.3a.66.66,0,0,1-.19-.45.55.55,0,0,1,.19-.44.58.58,0,0,1,.43-.18.64.64,0,0,1,.44.17.61.61,0,0,1,.18.45.64.64,0,0,1-.18.45.6.6,0,0,1-.44.18A.6.6,0,0,1,45.78,50.3Zm.86,1.43,0,6.62h-.85l0-6.62Z"/><path class="cls-1" d="M50.94,57.51l2.22-5.8h.89l-2.63,6.63h-1l-2.68-6.62h.91Z"/><path class="cls-1" d="M55.23,53.21A2.92,2.92,0,0,1,56.35,52,3.3,3.3,0,0,1,58,51.59a3,3,0,0,1,1.64.43,2.59,2.59,0,0,1,1,1.12V51.68h.85l0,6.62h-.84V56.84a2.62,2.62,0,0,1-1,1.12,2.85,2.85,0,0,1-1.62.45A3.22,3.22,0,0,1,56.37,58a2.91,2.91,0,0,1-1.13-1.2,4.16,4.16,0,0,1,0-3.58Zm5.05.38a2.22,2.22,0,0,0-.89-.93,2.43,2.43,0,0,0-1.25-.33,2.54,2.54,0,0,0-1.26.32,2.21,2.21,0,0,0-.87.92,3.29,3.29,0,0,0,0,2.85,2.2,2.2,0,0,0,.88.93,2.57,2.57,0,0,0,2.5,0,2.25,2.25,0,0,0,.89-.94A2.88,2.88,0,0,0,60.62,55,3,3,0,0,0,60.28,53.59Z"/><path class="cls-1" d="M64.5,52.38V56.5a1.17,1.17,0,0,0,.24.83,1.09,1.09,0,0,0,.81.23h.78v.73h-.91a1.94,1.94,0,0,1-1.34-.41,1.86,1.86,0,0,1-.44-1.38V52.39h-.92v-.72h.93V50h.86v1.66h1.82v.72Z"/><path class="cls-1" d="M73.69,55.28l-5.49,0a2.57,2.57,0,0,0,.37,1.28,2.07,2.07,0,0,0,.86.8,2.42,2.42,0,0,0,1.16.27,2.31,2.31,0,0,0,1.39-.4,1.82,1.82,0,0,0,.74-1.08h.9a2.8,2.8,0,0,1-1,1.59,3.15,3.15,0,0,1-2,.62A3.45,3.45,0,0,1,68.92,58a3,3,0,0,1-1.16-1.19,3.8,3.8,0,0,1-.43-1.8,3.87,3.87,0,0,1,.41-1.81A2.93,2.93,0,0,1,68.89,52a3.34,3.34,0,0,1,1.69-.42,3.26,3.26,0,0,1,1.65.41,2.8,2.8,0,0,1,1.1,1.11,3.17,3.17,0,0,1,.38,1.54A4.34,4.34,0,0,1,73.69,55.28Zm-1.14-2a2.06,2.06,0,0,0-.84-.79,2.71,2.71,0,0,0-1.17-.26,2.32,2.32,0,0,0-1.61.61,2.42,2.42,0,0,0-.73,1.71h4.65A2.31,2.31,0,0,0,72.55,53.33Z"/><path class="cls-1" d="M79.51,59.81a1.55,1.55,0,0,1-.4,1.18,1.67,1.67,0,0,1-1.2.39h-.59v-.73h.46a1,1,0,0,0,.68-.2.92.92,0,0,0,.21-.68l0-8.15h.85Zm-.89-9.62a.61.61,0,0,1-.18-.45.61.61,0,0,1,.62-.62.58.58,0,0,1,.43.18.57.57,0,0,1,.18.44.61.61,0,0,1-.18.45.57.57,0,0,1-.43.18A.62.62,0,0,1,78.62,50.19Z"/><path class="cls-1" d="M87.4,55.23l-5.5,0a2.75,2.75,0,0,0,.37,1.29,2.16,2.16,0,0,0,.87.8,2.51,2.51,0,0,0,1.16.27,2.33,2.33,0,0,0,1.39-.41,1.85,1.85,0,0,0,.74-1.08h.9a2.8,2.8,0,0,1-1,1.59,3.18,3.18,0,0,1-2,.61,3.21,3.21,0,0,1-1.67-.41,2.93,2.93,0,0,1-1.16-1.18,4.09,4.09,0,0,1,0-3.61,2.76,2.76,0,0,1,1.15-1.19,3.61,3.61,0,0,1,3.34,0A2.9,2.9,0,0,1,87,53a3.13,3.13,0,0,1,.39,1.55C87.42,54.86,87.41,55.08,87.4,55.23Zm-1.14-1.95a2.06,2.06,0,0,0-.85-.78,2.38,2.38,0,0,0-1.16-.26,2.28,2.28,0,0,0-1.61.61,2.39,2.39,0,0,0-.74,1.71l4.66,0A2.31,2.31,0,0,0,86.26,53.28Z"/><path class="cls-1" d="M90.07,52.3v4.11a.88.88,0,0,0,1,1.07h.78v.73H91a1.89,1.89,0,0,1-1.34-.42,1.83,1.83,0,0,1-.44-1.37V52.3h-.92v-.72h.93V49.93h.86v1.67h1.82v.72Z"/><path class="cls-1" d="M97,57.76a1.94,1.94,0,0,1-.81-1.44h.88a1.22,1.22,0,0,0,.53.9,2.06,2.06,0,0,0,1.25.34,1.65,1.65,0,0,0,1.09-.33,1,1,0,0,0,.39-.81.77.77,0,0,0-.22-.56,1.46,1.46,0,0,0-.55-.34,7,7,0,0,0-.91-.27,9.45,9.45,0,0,1-1.2-.39,2,2,0,0,1-.78-.57,1.64,1.64,0,0,1,0-1.92,1.94,1.94,0,0,1,.82-.66,2.79,2.79,0,0,1,1.21-.25,2.63,2.63,0,0,1,1.73.54,2,2,0,0,1,.71,1.48h-.85a1.31,1.31,0,0,0-.46-.94,1.75,1.75,0,0,0-1.15-.35,1.63,1.63,0,0,0-1,.31.9.9,0,0,0-.4.75.85.85,0,0,0,.24.63,1.52,1.52,0,0,0,.59.39,9.72,9.72,0,0,0,1,.31,9,9,0,0,1,1.14.37,2,2,0,0,1,.73.53,1.45,1.45,0,0,1,.32.93,1.67,1.67,0,0,1-.29,1,2,2,0,0,1-.81.66,2.86,2.86,0,0,1-1.2.25A3.13,3.13,0,0,1,97,57.76Z"/><path class="cls-1" d="M108.53,51.53l0,6.62h-.85V57a2,2,0,0,1-.9.95,2.75,2.75,0,0,1-1.35.33,2.68,2.68,0,0,1-2-.73,2.89,2.89,0,0,1-.76-2.13V51.54h.84v3.77a2.27,2.27,0,0,0,.55,1.65,1.93,1.93,0,0,0,1.47.57,2,2,0,0,0,1.53-.61,2.53,2.53,0,0,0,.56-1.79v-3.6Z"/><path class="cls-1" d="M112.32,51.85a3,3,0,0,1,1.62-.44,3.22,3.22,0,0,1,1.62.41A3,3,0,0,1,116.69,53a3.78,3.78,0,0,1,.41,1.79,3.67,3.67,0,0,1-.4,1.79,3,3,0,0,1-1.12,1.21,3.16,3.16,0,0,1-1.62.43,3,3,0,0,1-1.63-.43,2.59,2.59,0,0,1-1-1.12v1.46h-.84l0-9h.84V53A2.73,2.73,0,0,1,112.32,51.85Zm3.6,1.53a2.26,2.26,0,0,0-.89-.92,2.5,2.5,0,0,0-1.26-.31,2.4,2.4,0,0,0-1.24.33,2.37,2.37,0,0,0-.89.94,2.9,2.9,0,0,0-.32,1.41,2.87,2.87,0,0,0,.33,1.4,2.38,2.38,0,0,0,.89.94,2.53,2.53,0,0,0,1.25.32,2.42,2.42,0,0,0,1.26-.33,2.18,2.18,0,0,0,.87-.93,3.33,3.33,0,0,0,0-2.85Z"/><path class="cls-1" d="M119.1,57.68a1.91,1.91,0,0,1-.82-1.43h.88a1.25,1.25,0,0,0,.53.9,2.06,2.06,0,0,0,1.25.34,1.65,1.65,0,0,0,1.09-.33,1,1,0,0,0,.39-.82.72.72,0,0,0-.22-.55,1.62,1.62,0,0,0-.55-.35c-.23-.08-.53-.17-.91-.27a8.2,8.2,0,0,1-1.2-.38,2,2,0,0,1-.78-.57,1.53,1.53,0,0,1-.33-1,1.58,1.58,0,0,1,.29-.9,2,2,0,0,1,.82-.65,2.79,2.79,0,0,1,1.21-.25,2.63,2.63,0,0,1,1.73.53,2,2,0,0,1,.71,1.49h-.85a1.31,1.31,0,0,0-.46-.94,2,2,0,0,0-2.19,0,.93.93,0,0,0-.4.76.85.85,0,0,0,.24.63,1.6,1.6,0,0,0,.59.39c.24.09.55.19.95.31a7.66,7.66,0,0,1,1.14.37,2,2,0,0,1,.73.53,1.43,1.43,0,0,1,.32.93,1.67,1.67,0,0,1-.29,1,2.05,2.05,0,0,1-.81.66,3,3,0,0,1-1.2.25A3.08,3.08,0,0,1,119.1,57.68Z"/><path class="cls-1" d="M124.87,53A3,3,0,0,1,126,51.79a3.25,3.25,0,0,1,1.66-.42,3.13,3.13,0,0,1,2,.6,2.76,2.76,0,0,1,1,1.64h-.91a1.82,1.82,0,0,0-.74-1.12,2.32,2.32,0,0,0-1.4-.41,2.55,2.55,0,0,0-1.2.31,2.19,2.19,0,0,0-.84.91,3.72,3.72,0,0,0,0,2.95,2.09,2.09,0,0,0,.85.91,2.38,2.38,0,0,0,1.2.3,2.34,2.34,0,0,0,1.4-.41,1.9,1.9,0,0,0,.73-1.14h.91a2.8,2.8,0,0,1-1,1.64,3.19,3.19,0,0,1-2,.62,3.15,3.15,0,0,1-1.66-.41,3,3,0,0,1-1.15-1.18,4,4,0,0,1-.42-1.8A3.87,3.87,0,0,1,124.87,53Z"/><path class="cls-1" d="M134,51.66a2.74,2.74,0,0,1,1.42-.34v.88h-.23a2.14,2.14,0,0,0-1.48.51,2.09,2.09,0,0,0-.55,1.66v3.7h-.85l0-6.62h.85v1.17A2.14,2.14,0,0,1,134,51.66Z"/><path class="cls-1" d="M136.65,50a.6.6,0,0,1-.18-.44.61.61,0,0,1,.18-.45.64.64,0,0,1,.43-.18.6.6,0,0,1,.44.18.6.6,0,0,1,.19.44.61.61,0,0,1-.18.45.62.62,0,0,1-.44.18A.6.6,0,0,1,136.65,50Zm.87,1.43,0,6.62h-.85l0-6.63Z"/><path class="cls-1" d="M141.28,51.77a2.92,2.92,0,0,1,1.64-.45,3.2,3.2,0,0,1,1.62.41,2.89,2.89,0,0,1,1.13,1.19,3.74,3.74,0,0,1,.41,1.78,3.85,3.85,0,0,1-.4,1.8,2.85,2.85,0,0,1-1.13,1.2,3,3,0,0,1-1.61.43,2.9,2.9,0,0,1-1.63-.43,2.74,2.74,0,0,1-1-1.11l0,4.58h-.84l0-9.75h.83v1.46A2.63,2.63,0,0,1,141.28,51.77Zm3.61,1.51a2.21,2.21,0,0,0-.88-.91,2.5,2.5,0,0,0-1.26-.31,2.43,2.43,0,0,0-1.25.33,2.29,2.29,0,0,0-.88.94,2.87,2.87,0,0,0-.33,1.4,3,3,0,0,0,.34,1.41,2.35,2.35,0,0,0,.89.93,2.32,2.32,0,0,0,1.24.32,2.58,2.58,0,0,0,1.27-.32,2.26,2.26,0,0,0,.87-.94,3.29,3.29,0,0,0,0-2.85Z"/><path class="cls-1" d="M148.74,52.11v4.11a.88.88,0,0,0,1.05,1.07h.78V58h-.91a1.89,1.89,0,0,1-1.34-.42,1.85,1.85,0,0,1-.44-1.37V52.11H147V51.4h.93V49.74h.86V51.4h1.82v.71Z"/><path class="cls-1" d="M151.93,50a.6.6,0,0,1-.18-.44.61.61,0,0,1,.18-.45.65.65,0,0,1,.44-.18.62.62,0,0,1,.44.18.59.59,0,0,1,.18.44.61.61,0,0,1-.18.45.6.6,0,0,1-.44.18A.62.62,0,0,1,151.93,50Zm.87,1.43,0,6.62H152l0-6.63Z"/><path class="cls-1" d="M156,57.67a3,3,0,0,1-1.18-1.18,3.94,3.94,0,0,1,0-3.6,3.05,3.05,0,0,1,1.19-1.2,3.38,3.38,0,0,1,1.68-.42,3.45,3.45,0,0,1,1.7.41,3,3,0,0,1,1.19,1.19,3.58,3.58,0,0,1,.43,1.8,3.47,3.47,0,0,1-.43,1.79,3,3,0,0,1-1.19,1.2,3.6,3.6,0,0,1-1.7.43A3.38,3.38,0,0,1,156,57.67Zm2.89-.62a2.25,2.25,0,0,0,.9-.91,3.35,3.35,0,0,0,0-2.94,2.29,2.29,0,0,0-.9-.9,2.67,2.67,0,0,0-1.22-.29,2.52,2.52,0,0,0-1.21.3,2.2,2.2,0,0,0-.89.9,3.41,3.41,0,0,0,0,2.95,2.18,2.18,0,0,0,.89.89,2.49,2.49,0,0,0,1.21.3A2.77,2.77,0,0,0,158.86,57.05Z"/><path class="cls-1" d="M167.56,52a2.78,2.78,0,0,1,.76,2.12l0,3.88h-.84V54.17a2.36,2.36,0,0,0-.55-1.65,2,2,0,0,0-1.47-.56,2,2,0,0,0-1.53.61,2.48,2.48,0,0,0-.56,1.79V58h-.85l0-6.62h.85v1.13a2.17,2.17,0,0,1,.91-.94,2.79,2.79,0,0,1,1.34-.32A2.66,2.66,0,0,1,167.56,52Z"/><path class="cls-1" d="M182.25,51.29l-2.05,6.63h-.85l-1.85-5.55-1.81,5.56h-.86l-2.1-6.61h.86l1.67,5.76,1.84-5.77H178l1.85,5.77,1.62-5.78Z"/><path class="cls-1" d="M183.39,49.85a.66.66,0,0,1-.19-.45.62.62,0,0,1,1.06-.44.57.57,0,0,1,.18.44.61.61,0,0,1-.18.45.6.6,0,0,1-.44.18A.6.6,0,0,1,183.39,49.85Zm.86,1.43,0,6.62h-.84l0-6.63Z"/><path class="cls-1" d="M187.29,52V56.1a1.18,1.18,0,0,0,.23.83,1.13,1.13,0,0,0,.82.23h.77v.73h-.91a1.92,1.92,0,0,1-1.34-.41,1.86,1.86,0,0,1-.44-1.38V52h-.93v-.71h.92V49.61h.86v1.66h1.81V52Z"/><path class="cls-1" d="M195,51.44a2.31,2.31,0,0,1,1,1,3.45,3.45,0,0,1,.35,1.58v3.88h-.84V54.08a2.27,2.27,0,0,0-.55-1.65,2,2,0,0,0-1.47-.56,2,2,0,0,0-1.53.61,2.52,2.52,0,0,0-.56,1.78v3.62h-.85l0-9h.85v3.48a2.23,2.23,0,0,1,.93-.92,2.8,2.8,0,0,1,1.37-.33A2.9,2.9,0,0,1,195,51.44Z"/><path class="cls-1" d="M7,71.07a3.07,3.07,0,0,1-1.19-1.18,3.74,3.74,0,0,1-.43-1.8,3.64,3.64,0,0,1,.43-1.81A3.07,3.07,0,0,1,7,65.09a3.42,3.42,0,0,1,1.69-.42,3.41,3.41,0,0,1,1.69.41,2.94,2.94,0,0,1,1.19,1.18,3.94,3.94,0,0,1,0,3.6,3,3,0,0,1-1.2,1.2,3.42,3.42,0,0,1-1.69.42A3.22,3.22,0,0,1,7,71.07Zm2.89-.63a2.29,2.29,0,0,0,.9-.9,3.3,3.3,0,0,0,0-2.94,2.17,2.17,0,0,0-.9-.9,2.63,2.63,0,0,0-2.42,0,2.2,2.2,0,0,0-.89.9,3,3,0,0,0-.33,1.47,2.92,2.92,0,0,0,.34,1.48,2.18,2.18,0,0,0,.89.89,2.34,2.34,0,0,0,1.2.29A2.56,2.56,0,0,0,9.89,70.44Z"/><path class="cls-1" d="M22.28,64.72l-2.06,6.63h-.85L17.53,65.8l-1.82,5.56h-.86l-2.1-6.62h.87l1.66,5.75,1.84-5.76H18l1.85,5.77,1.62-5.78Z"/><path class="cls-1" d="M28.48,65.31a2.85,2.85,0,0,1,.75,2.13l0,3.88h-.84V67.54a2.31,2.31,0,0,0-.55-1.65,1.89,1.89,0,0,0-1.47-.56,2,2,0,0,0-1.53.61,2.46,2.46,0,0,0-.56,1.78v3.62h-.85l0-6.62h.85v1.13a2.21,2.21,0,0,1,.91-.93,2.92,2.92,0,0,1,1.34-.33A2.68,2.68,0,0,1,28.48,65.31Z"/><path class="cls-1" d="M37.09,68.31l-5.5,0A2.67,2.67,0,0,0,32,69.61a2.15,2.15,0,0,0,.86.81,2.58,2.58,0,0,0,1.17.27,2.4,2.4,0,0,0,1.39-.41,1.91,1.91,0,0,0,.74-1.08H37a2.82,2.82,0,0,1-1,1.58,3.13,3.13,0,0,1-2,.62A3.31,3.31,0,0,1,32.32,71a2.92,2.92,0,0,1-1.17-1.19,4.11,4.11,0,0,1,0-3.6A2.87,2.87,0,0,1,32.28,65,3.61,3.61,0,0,1,34,64.58a3.32,3.32,0,0,1,1.66.41,2.9,2.9,0,0,1,1.09,1.11,3.09,3.09,0,0,1,.39,1.54C37.11,67.93,37.1,68.16,37.09,68.31Zm-1.14-2a1.94,1.94,0,0,0-.85-.78,2.58,2.58,0,0,0-1.17-.27,2.34,2.34,0,0,0-1.61.61,2.47,2.47,0,0,0-.73,1.72l4.66,0A2.5,2.5,0,0,0,36,66.36Z"/><path class="cls-1" d="M40.36,64.88a2.68,2.68,0,0,1,1.41-.34v.88h-.23a2.14,2.14,0,0,0-1.48.5,2.17,2.17,0,0,0-.55,1.67v3.7h-.85l0-6.62h.85v1.18A2.11,2.11,0,0,1,40.36,64.88Z"/><path class="cls-1" d="M47.16,66.41v.72H42.44v-.71Z"/><path class="cls-1" d="M50.18,62.28l0,9h-.85l0-9Z"/><path class="cls-1" d="M58.09,68.24l-5.49,0A2.67,2.67,0,0,0,53,69.54a2.09,2.09,0,0,0,.86.81,2.58,2.58,0,0,0,1.17.27,2.28,2.28,0,0,0,1.38-.41,1.85,1.85,0,0,0,.75-1.08H58a2.77,2.77,0,0,1-1,1.58,3.09,3.09,0,0,1-2,.62,3.27,3.27,0,0,1-1.68-.41,3,3,0,0,1-1.16-1.18,4.18,4.18,0,0,1,0-3.61,3,3,0,0,1,1.15-1.2A3.46,3.46,0,0,1,55,64.52a3.15,3.15,0,0,1,1.65.4A2.93,2.93,0,0,1,57.73,66a3.21,3.21,0,0,1,.39,1.55A5.39,5.39,0,0,1,58.09,68.24ZM57,66.29a2,2,0,0,0-.84-.78,2.58,2.58,0,0,0-1.17-.27,2.33,2.33,0,0,0-1.61.62,2.38,2.38,0,0,0-.73,1.71l4.65,0A2.31,2.31,0,0,0,57,66.29Z"/><path class="cls-1" d="M62,70.39l2.21-5.81h.9l-2.63,6.63h-1L58.87,64.6h.91Z"/><path class="cls-1" d="M72.27,68.2H66.78a2.61,2.61,0,0,0,.37,1.29,2.13,2.13,0,0,0,.86.8,2.55,2.55,0,0,0,1.17.27,2.28,2.28,0,0,0,1.38-.4,1.87,1.87,0,0,0,.75-1.09h.89a2.8,2.8,0,0,1-1,1.59,3.15,3.15,0,0,1-2,.62,3.38,3.38,0,0,1-1.68-.42,2.93,2.93,0,0,1-1.16-1.18,3.68,3.68,0,0,1-.42-1.8,3.75,3.75,0,0,1,.4-1.81,2.87,2.87,0,0,1,1.15-1.19,3.36,3.36,0,0,1,1.69-.42,3.16,3.16,0,0,1,1.65.41,2.84,2.84,0,0,1,1.1,1.1,3.24,3.24,0,0,1,.39,1.55A5.7,5.7,0,0,1,72.27,68.2Zm-1.14-2a2,2,0,0,0-.84-.79,2.71,2.71,0,0,0-1.17-.26,2.28,2.28,0,0,0-1.61.61,2.42,2.42,0,0,0-.73,1.71h4.65A2.27,2.27,0,0,0,71.13,66.25Z"/><path class="cls-1" d="M74.68,62.2l0,9h-.85l0-9Z"/><path class="cls-1" d="M81.78,64.87a3.05,3.05,0,0,1,1.63-.45,3.16,3.16,0,0,1,1.62.42A2.86,2.86,0,0,1,86.16,66a3.81,3.81,0,0,1,.41,1.79,3.73,3.73,0,0,1-.4,1.8,2.89,2.89,0,0,1-1.12,1.2,3.07,3.07,0,0,1-1.62.43,3,3,0,0,1-1.63-.44,2.65,2.65,0,0,1-1-1.1l0,4.58H80l0-9.75h.84V66A2.68,2.68,0,0,1,81.78,64.87Zm3.6,1.52a2.15,2.15,0,0,0-.88-.91,2.53,2.53,0,0,0-2.5,0,2.35,2.35,0,0,0-.89.93,3.22,3.22,0,0,0,0,2.82,2.34,2.34,0,0,0,2.14,1.25,2.51,2.51,0,0,0,1.26-.32,2.26,2.26,0,0,0,.87-.94,3,3,0,0,0,.32-1.43A2.89,2.89,0,0,0,85.38,66.39Z"/><path class="cls-1" d="M89.83,64.72a2.8,2.8,0,0,1,1.41-.35v.89H91a1.86,1.86,0,0,0-2,2.17v3.7h-.85l0-6.62H89v1.18A2.14,2.14,0,0,1,89.83,64.72Z"/><path class="cls-1" d="M92.5,63.06a.61.61,0,0,1-.18-.45.59.59,0,0,1,.18-.44.6.6,0,0,1,.43-.18.6.6,0,0,1,.44.18.62.62,0,0,1,.19.44.61.61,0,0,1-.18.45.62.62,0,0,1-.44.18A.6.6,0,0,1,92.5,63.06Zm.87,1.43,0,6.62h-.85l0-6.62Z"/><path class="cls-1" d="M95.33,66a3,3,0,0,1,1.13-1.19,3.28,3.28,0,0,1,1.66-.42,3.13,3.13,0,0,1,2,.6,2.71,2.71,0,0,1,1,1.64h-.91a1.85,1.85,0,0,0-.73-1.12,2.37,2.37,0,0,0-1.41-.41,2.55,2.55,0,0,0-1.2.31,2.19,2.19,0,0,0-.84.91,3.72,3.72,0,0,0,0,3,2.14,2.14,0,0,0,.85.91,2.43,2.43,0,0,0,1.2.3,2.32,2.32,0,0,0,1.4-.41,1.86,1.86,0,0,0,.73-1.14h.91a2.79,2.79,0,0,1-1,1.64,3.24,3.24,0,0,1-2,.62,3.17,3.17,0,0,1-1.66-.41,2.88,2.88,0,0,1-1.14-1.18,4.13,4.13,0,0,1,0-3.61Z"/><path class="cls-1" d="M102.71,63a.61.61,0,0,1-.18-.45.57.57,0,0,1,.18-.44.6.6,0,0,1,.44-.18.66.66,0,0,1,.44.17.61.61,0,0,1,.18.45.6.6,0,0,1-.18.44.58.58,0,0,1-.44.19A.62.62,0,0,1,102.71,63Zm.87,1.43,0,6.62h-.85l0-6.62Z"/><path class="cls-1" d="M110.56,65.05a2.85,2.85,0,0,1,.76,2.12v3.88h-.84V67.27a2.31,2.31,0,0,0-.55-1.65,2,2,0,0,0-1.47-.56,2,2,0,0,0-1.53.61,2.52,2.52,0,0,0-.56,1.78v3.62h-.85l0-6.62h.85v1.12a2.21,2.21,0,0,1,.91-.93,2.79,2.79,0,0,1,1.34-.32A2.68,2.68,0,0,1,110.56,65.05Z"/><path class="cls-1" d="M117.59,64.75a2.56,2.56,0,0,1,1,1.1V64.41h.85l0,6.8a3.28,3.28,0,0,1-.39,1.61A2.75,2.75,0,0,1,118,73.9a3.24,3.24,0,0,1-1.6.39,3.59,3.59,0,0,1-2.12-.6,2.57,2.57,0,0,1-1-1.65H114a2,2,0,0,0,.83,1.1,2.67,2.67,0,0,0,1.5.41,2.42,2.42,0,0,0,1.15-.28,1.9,1.9,0,0,0,.8-.81,2.63,2.63,0,0,0,.29-1.26V69.56a2.64,2.64,0,0,1-1,1.13,3,3,0,0,1-1.61.45,3.23,3.23,0,0,1-1.64-.42,3,3,0,0,1-1.13-1.2,4.18,4.18,0,0,1,0-3.59,2.92,2.92,0,0,1,1.12-1.19,3.19,3.19,0,0,1,1.63-.42A3,3,0,0,1,117.59,64.75Zm.67,1.56a2.35,2.35,0,0,0-.89-.93,2.41,2.41,0,0,0-1.24-.32,2.58,2.58,0,0,0-1.27.32,2.21,2.21,0,0,0-.87.92,3.29,3.29,0,0,0,0,2.85,2.32,2.32,0,0,0,.88.93,2.6,2.6,0,0,0,2.5,0,2.28,2.28,0,0,0,.89-.93,2.94,2.94,0,0,0,.33-1.41A3,3,0,0,0,118.26,66.31Z"/><path class="cls-1" d="M124.72,65.9a2.86,2.86,0,0,1,1.12-1.19,3.1,3.1,0,0,1,1.63-.43,3,3,0,0,1,1.64.43,2.57,2.57,0,0,1,1,1.11V64.37h.85L131,71h-.84V69.52a2.64,2.64,0,0,1-1,1.13,2.85,2.85,0,0,1-1.62.45,3.22,3.22,0,0,1-1.63-.42,2.91,2.91,0,0,1-1.13-1.2,4.16,4.16,0,0,1,0-3.58Zm5.05.38a2.31,2.31,0,0,0-.89-.94,2.53,2.53,0,0,0-1.25-.32,2.56,2.56,0,0,0-1.26.32,2.21,2.21,0,0,0-.87.92,3,3,0,0,0-.32,1.42,3,3,0,0,0,.33,1.43,2.2,2.2,0,0,0,.88.93,2.51,2.51,0,0,0,1.26.32,2.4,2.4,0,0,0,1.24-.33,2.31,2.31,0,0,0,.89-.94,2.94,2.94,0,0,0,.33-1.41A3,3,0,0,0,129.77,66.28Z"/><path class="cls-1" d="M137.93,65a2.78,2.78,0,0,1,.76,2.12V71h-.83V67.18a2.36,2.36,0,0,0-.55-1.65,2,2,0,0,0-1.48-.56,2,2,0,0,0-1.52.61,2.53,2.53,0,0,0-.57,1.79V71h-.84l0-6.62h.85v1.13a2.21,2.21,0,0,1,.9-.94,2.86,2.86,0,0,1,1.35-.32A2.66,2.66,0,0,1,137.93,65Z"/><path class="cls-1" d="M140.59,65.85a3,3,0,0,1,1.13-1.2,3.19,3.19,0,0,1,1.63-.42,3,3,0,0,1,1.58.42,2.59,2.59,0,0,1,1,1.1V62h.85l0,9H146V69.46a2.58,2.58,0,0,1-1,1.14,3,3,0,0,1-1.63.45,3.19,3.19,0,0,1-1.63-.42,2.91,2.91,0,0,1-1.13-1.2,3.84,3.84,0,0,1-.42-1.79A3.78,3.78,0,0,1,140.59,65.85Zm5,.37a2.37,2.37,0,0,0-.9-.93,2.6,2.6,0,0,0-2.5,0,2.3,2.3,0,0,0-.88.92,2.89,2.89,0,0,0-.31,1.42,3.08,3.08,0,0,0,.32,1.43,2.26,2.26,0,0,0,.88.93,2.58,2.58,0,0,0,1.27.32,2.53,2.53,0,0,0,1.24-.34,2.42,2.42,0,0,0,.89-.93,3.22,3.22,0,0,0,0-2.82Z"/><path class="cls-1" d="M157.12,64.89a2.85,2.85,0,0,1,.76,2.13V70.9h-.83l0-3.78a2.31,2.31,0,0,0-.54-1.65,1.89,1.89,0,0,0-1.48-.56,2,2,0,0,0-1.52.61,2.5,2.5,0,0,0-.57,1.78v3.62h-.85l0-6.62h.85v1.13a2.18,2.18,0,0,1,.9-.93,2.86,2.86,0,0,1,1.35-.32A2.65,2.65,0,0,1,157.12,64.89Z"/><path class="cls-1" d="M161,70.57a3,3,0,0,1-1.18-1.18,4,4,0,0,1,0-3.61A3.09,3.09,0,0,1,161,64.59a3.38,3.38,0,0,1,1.68-.42,3.34,3.34,0,0,1,1.7.41,3.07,3.07,0,0,1,1.19,1.18,3.94,3.94,0,0,1,0,3.6,3,3,0,0,1-1.2,1.2,3.46,3.46,0,0,1-1.7.42A3.27,3.27,0,0,1,161,70.57Zm2.89-.63a2.29,2.29,0,0,0,.9-.9,2.81,2.81,0,0,0,.34-1.47,2.92,2.92,0,0,0-.34-1.48,2.26,2.26,0,0,0-.9-.89,2.65,2.65,0,0,0-2.43,0,2.27,2.27,0,0,0-.89.9,2.91,2.91,0,0,0-.32,1.47,3,3,0,0,0,.33,1.48,2.24,2.24,0,0,0,.89.89,2.38,2.38,0,0,0,1.21.29A2.49,2.49,0,0,0,163.88,69.94Z"/><path class="cls-1" d="M170.88,65.75a3,3,0,0,1,1.13-1.2,3.17,3.17,0,0,1,1.63-.42,3,3,0,0,1,1.63.43,2.51,2.51,0,0,1,1,1.11V64.22h.85l0,6.62h-.85V69.37a2.64,2.64,0,0,1-1,1.13,2.91,2.91,0,0,1-1.63.45,3.16,3.16,0,0,1-1.62-.42,2.91,2.91,0,0,1-1.13-1.2,3.81,3.81,0,0,1-.42-1.79A3.9,3.9,0,0,1,170.88,65.75Zm5.06.38a2.33,2.33,0,0,0-.9-.94,2.6,2.6,0,0,0-2.5,0,2.3,2.3,0,0,0-.88.92,2.89,2.89,0,0,0-.31,1.42,3.08,3.08,0,0,0,.32,1.43,2.26,2.26,0,0,0,.88.93,2.58,2.58,0,0,0,1.27.32A2.36,2.36,0,0,0,176,68.94a2.93,2.93,0,0,0,.32-1.41A2.87,2.87,0,0,0,175.94,66.13Z"/><path class="cls-1" d="M179,62.78a.61.61,0,0,1-.18-.45.57.57,0,0,1,.18-.44.6.6,0,0,1,.44-.18.61.61,0,0,1,.43.17.58.58,0,0,1,.19.45.64.64,0,0,1-.18.45.63.63,0,0,1-.88,0Zm.87,1.43,0,6.62h-.85l0-6.62Z"/><path class="cls-1" d="M183.53,64.41a2.83,2.83,0,0,1,1.41-.34V65h-.23a2.14,2.14,0,0,0-1.48.5,2.11,2.11,0,0,0-.55,1.66v3.7h-.85l0-6.62h.85v1.18A2.12,2.12,0,0,1,183.53,64.41Z"/><path class="cls-1" d="M186.25,65.7a3,3,0,0,1,1.13-1.2,3.62,3.62,0,0,1,3.69.18,2.76,2.76,0,0,1,1,1.65h-.91a1.87,1.87,0,0,0-.74-1.12,2.36,2.36,0,0,0-1.4-.4,2.28,2.28,0,0,0-1.2.31,2,2,0,0,0-.84.9,3.63,3.63,0,0,0,0,3,2.1,2.1,0,0,0,.84.9,2.43,2.43,0,0,0,1.2.3,2.32,2.32,0,0,0,1.4-.41,1.83,1.83,0,0,0,.73-1.14h.91a2.76,2.76,0,0,1-1,1.64,3.14,3.14,0,0,1-2,.63,3.29,3.29,0,0,1-1.67-.42,3,3,0,0,1-1.14-1.18,4.11,4.11,0,0,1,0-3.6Z"/><path class="cls-1" d="M195.36,64.38a2.68,2.68,0,0,1,1.41-.35v.89h-.23a1.87,1.87,0,0,0-2,2.16v3.7h-.84l0-6.63h.85v1.18A2,2,0,0,1,195.36,64.38Z"/><path class="cls-1" d="M198.07,65.66a2.86,2.86,0,0,1,1.12-1.19,3.2,3.2,0,0,1,1.63-.43,3,3,0,0,1,1.64.43,2.6,2.6,0,0,1,1,1.12V64.13h.85l0,6.62h-.85V69.29a2.62,2.62,0,0,1-1,1.12,2.89,2.89,0,0,1-1.63.45,3.16,3.16,0,0,1-1.62-.42,2.91,2.91,0,0,1-1.13-1.2,4.16,4.16,0,0,1,0-3.58Zm5.05.38a2.28,2.28,0,0,0-.89-.93,2.46,2.46,0,0,0-1.25-.33,2.51,2.51,0,0,0-1.26.32,2.3,2.3,0,0,0-.88.92,3.38,3.38,0,0,0,0,2.85,2.22,2.22,0,0,0,.89.93,2.51,2.51,0,0,0,1.26.32,2.4,2.4,0,0,0,1.24-.33,2.31,2.31,0,0,0,.89-.94,2.77,2.77,0,0,0,.32-1.41A2.87,2.87,0,0,0,203.12,66Z"/><path class="cls-1" d="M208.84,64.83H207.3l0,5.91h-.85l0-5.9h-.92v-.72h.92v-.46a2.06,2.06,0,0,1,.55-1.59,2.61,2.61,0,0,1,1.78-.52v.73a1.68,1.68,0,0,0-1.16.32,1.42,1.42,0,0,0-.33,1.06v.46h1.54Z"/><path class="cls-1" d="M211.28,64.82v4.11a1.18,1.18,0,0,0,.24.84,1.14,1.14,0,0,0,.81.23h.78v.73h-.91a1.89,1.89,0,0,1-1.34-.42,1.83,1.83,0,0,1-.44-1.37V64.82h-.92v-.72h.92V62.45h.86v1.67h1.82v.72Z"/><path class="cls-1" d="M79.24,83.75a3.07,3.07,0,0,1-1.18-1.19,4,4,0,0,1,0-3.6,3.07,3.07,0,0,1,1.18-1.19,3.39,3.39,0,0,1,1.69-.42,3.33,3.33,0,0,1,1.69.41,3,3,0,0,1,1.19,1.18,3.94,3.94,0,0,1,0,3.6,3,3,0,0,1-1.2,1.2,3.46,3.46,0,0,1-1.7.42A3.27,3.27,0,0,1,79.24,83.75Zm2.89-.63a2.31,2.31,0,0,0,.91-.9,3.33,3.33,0,0,0,0-3,2.26,2.26,0,0,0-.9-.89,2.41,2.41,0,0,0-1.21-.29,2.49,2.49,0,0,0-1.21.3,2.15,2.15,0,0,0-.89.9,3,3,0,0,0-.33,1.47,2.88,2.88,0,0,0,.34,1.47,2.18,2.18,0,0,0,.88.9,2.63,2.63,0,0,0,2.42,0Z"/><path class="cls-1" d="M94.52,77.4l-2,6.63h-.85l-1.85-5.55L88,84H87.1L85,77.43h.86l1.67,5.75,1.84-5.76h.85l1.85,5.77,1.62-5.78Z"/><path class="cls-1" d="M100.72,78a2.82,2.82,0,0,1,.76,2.13l0,3.88h-.84V80.22a2.36,2.36,0,0,0-.55-1.65A1.93,1.93,0,0,0,98.63,78a2,2,0,0,0-1.53.62,2.46,2.46,0,0,0-.56,1.78V84H95.7l0-6.62h.85v1.13a2.21,2.21,0,0,1,.91-.93,2.8,2.8,0,0,1,1.34-.33A2.66,2.66,0,0,1,100.72,78Z"/><path class="cls-1" d="M109.33,81l-5.49,0a2.67,2.67,0,0,0,.37,1.28,2.15,2.15,0,0,0,.86.81,2.58,2.58,0,0,0,1.17.27,2.4,2.4,0,0,0,1.39-.41,1.91,1.91,0,0,0,.74-1.08h.89a2.75,2.75,0,0,1-1,1.58,3.13,3.13,0,0,1-2,.62,3.48,3.48,0,0,1-1.68-.41,3,3,0,0,1-1.16-1.19,3.68,3.68,0,0,1-.42-1.8,3.89,3.89,0,0,1,.4-1.81,3,3,0,0,1,1.15-1.19,3.58,3.58,0,0,1,1.69-.42,3.26,3.26,0,0,1,1.65.41,2.8,2.8,0,0,1,1.1,1.11,3.09,3.09,0,0,1,.39,1.54A5.58,5.58,0,0,1,109.33,81ZM108.19,79a1.94,1.94,0,0,0-.84-.79,2.71,2.71,0,0,0-1.17-.26,2.34,2.34,0,0,0-1.61.61,2.43,2.43,0,0,0-.73,1.72l4.66,0A2.4,2.4,0,0,0,108.19,79Z"/><path class="cls-1" d="M112.6,77.56a2.84,2.84,0,0,1,1.42-.35v.89h-.23a1.86,1.86,0,0,0-2,2.17V84h-.85l0-6.62h.85v1.18A2.14,2.14,0,0,1,112.6,77.56Z"/><path class="cls-1" d="M115.73,83.52a1.93,1.93,0,0,1-.81-1.43h.87a1.25,1.25,0,0,0,.53.91,2.07,2.07,0,0,0,1.26.34,1.62,1.62,0,0,0,1.08-.33,1,1,0,0,0,.39-.82.72.72,0,0,0-.22-.55,1.53,1.53,0,0,0-.55-.35q-.33-.12-.9-.27a9.32,9.32,0,0,1-1.21-.38,2.1,2.1,0,0,1-.78-.58,1.49,1.49,0,0,1-.32-1,1.57,1.57,0,0,1,.28-.9,2.14,2.14,0,0,1,.83-.66,2.9,2.9,0,0,1,1.21-.24,2.62,2.62,0,0,1,1.72.53,1.94,1.94,0,0,1,.71,1.49H119a1.27,1.27,0,0,0-.46-.94,1.62,1.62,0,0,0-1.14-.35,1.72,1.72,0,0,0-1.05.3.93.93,0,0,0-.39.76.87.87,0,0,0,.24.63,1.49,1.49,0,0,0,.58.39c.24.09.56.19,1,.3a8.83,8.83,0,0,1,1.14.38,1.84,1.84,0,0,1,.73.53,1.38,1.38,0,0,1,.32.93,1.57,1.57,0,0,1-.29.95,2,2,0,0,1-.81.67,2.79,2.79,0,0,1-1.2.24A3,3,0,0,1,115.73,83.52Z"/><path class="cls-1" d="M126,77.49a2.26,2.26,0,0,1,1,1,3.32,3.32,0,0,1,.35,1.58v3.89h-.83V80.13a2.31,2.31,0,0,0-.55-1.64,1.94,1.94,0,0,0-1.48-.57,2,2,0,0,0-1.52.61,2.53,2.53,0,0,0-.57,1.79l0,3.61h-.85l0-9h.85v3.48a2.23,2.23,0,0,1,.92-.93,3.07,3.07,0,0,1,2.73,0Z"/><path class="cls-1" d="M129.14,75.85a.66.66,0,0,1-.19-.44.61.61,0,0,1,.18-.45.64.64,0,0,1,.44-.17A.6.6,0,0,1,130,75a.6.6,0,0,1,.18.44.63.63,0,0,1-.62.64A.57.57,0,0,1,129.14,75.85Zm.86,1.43,0,6.63h-.84l0-6.62Z"/><path class="cls-1" d="M133.77,77.62a2.91,2.91,0,0,1,1.63-.45,3.15,3.15,0,0,1,1.62.41,2.89,2.89,0,0,1,1.13,1.19,3.77,3.77,0,0,1,.42,1.78,3.85,3.85,0,0,1-.41,1.8A2.91,2.91,0,0,1,137,83.56a3.26,3.26,0,0,1-1.62.43,3,3,0,0,1-1.62-.44,2.61,2.61,0,0,1-1-1.11V87H132l0-9.75h.84v1.46A2.59,2.59,0,0,1,133.77,77.62Zm3.61,1.51a2.27,2.27,0,0,0-.88-.91,2.57,2.57,0,0,0-1.27-.31,2.42,2.42,0,0,0-1.24.33,2.38,2.38,0,0,0-.89.94,3,3,0,0,0-.32,1.41,2.87,2.87,0,0,0,.33,1.4,2.24,2.24,0,0,0,.9.93,2.4,2.4,0,0,0,1.24.33,2.52,2.52,0,0,0,1.26-.33,2.29,2.29,0,0,0,.88-.94,2.92,2.92,0,0,0,.31-1.42A3,3,0,0,0,137.38,79.13Z"/><path class="cls-1" d="M139.84,83.75a.6.6,0,0,1-.17-.45.6.6,0,0,1,.17-.44.59.59,0,0,1,.44-.18.57.57,0,0,1,.43.18.59.59,0,0,1,.18.44.64.64,0,0,1-.17.45.58.58,0,0,1-.43.18A.61.61,0,0,1,139.84,83.75Z"/><path class="cls-1" d="M3.51,7.22h8.57a.42.42,0,0,1,.47.46v1.9a.43.43,0,0,1-.47.48H3.51v5.53a.45.45,0,0,1-.5.46H.48A.42.42,0,0,1,0,15.59V1.32C0,1,.15.87.48.87H13.79a.43.43,0,0,1,.48.45V3.25a.44.44,0,0,1-.48.46H3.51Z"/><path class="cls-1" d="M20.54,13.47c.28,0,.43.13.43.41v1.75a.39.39,0,0,1-.43.42H18.93c-2.08,0-2.92-.81-2.92-2.8V.41A.39.39,0,0,1,16.44,0h2.32a.38.38,0,0,1,.43.41V12.73c0,.52.2.74.83.74Z"/><path class="cls-1" d="M30.84,20.47H26.11c-2.12,0-3-.83-3-2.86v-.22a.39.39,0,0,1,.43-.43h2.21c.31,0,.46.15.46.43v.11c0,.43.24.61.71.61h2.74c1.3,0,1.62-.33,1.62-1.44v-2.1a3,3,0,0,1-2.95,1.48H26.09c-2.25,0-3.25-1-3.25-3.11V5.05a.39.39,0,0,1,.43-.41h2.32a.38.38,0,0,1,.44.41v7.07c0,1.13.23,1.35,1.58,1.35h1.65c1.43,0,2-.59,2-1.78V5.05a.38.38,0,0,1,.44-.41H34a.37.37,0,0,1,.41.41V17C34.42,19.3,33.2,20.47,30.84,20.47Z"/><path class="cls-1" d="M43.19,13.16v-1c0-2.23.84-2.88,3-2.88h5.55V8.54c0-1.12-.24-1.34-1.58-1.34H47.44c-.52,0-.76.17-.76.65,0,.28-.16.43-.46.43H44a.41.41,0,0,1-.46-.43v-.3c0-2,.91-2.91,3-2.91h5.09c2.24,0,3.24,1,3.24,3.1V13a.41.41,0,0,0,.47.46h.13c.28,0,.44.13.44.41v1.75a.39.39,0,0,1-.44.42H54c-1.43,0-2-.68-2-1.85-.44,1.22-1.45,1.85-3.12,1.85H46.18C44,16.05,43.19,15.26,43.19,13.16Zm8.54-1.45v-.35H47.26c-.58,0-.89.22-.89.78v.57c0,.56.28.78.89.78h2.47C51.16,13.49,51.73,12.92,51.73,11.71Z"/><path class="cls-1" d="M61.58,7.22v5.25c0,.78.21,1,1,1H64.2c.3,0,.43.13.43.41v1.75a.38.38,0,0,1-.43.42H61.51c-2.19,0-3.12-.89-3.12-3V7.22H57.3a.38.38,0,0,1-.43-.41V5.05a.39.39,0,0,1,.43-.41h1.09V2.15a.39.39,0,0,1,.43-.42h2.3a.4.4,0,0,1,.46.42V4.64H64.2c.3,0,.43.15.43.41V6.81c0,.28-.13.41-.43.41Z"/><path class="cls-1" d="M89,12.58c0,2.38-1.12,3.47-3.62,3.47H76.7c-2.48,0-3.65-1.09-3.65-3.47V4.34C73.05,2,74.22.87,76.7.87h8.71C87.91.87,89,2,89,4.34ZM85.52,5.33c0-1.34-.33-1.62-1.93-1.62H78.5c-1.61,0-1.94.28-1.94,1.62v6.25c0,1.34.33,1.63,1.94,1.63h5.09c1.6,0,1.93-.29,1.93-1.63Z"/><path class="cls-1" d="M93.7,15.63,90.62,5.05A.3.3,0,0,1,91,4.64h2.51a.52.52,0,0,1,.57.41l2.21,8.46,2-8.46a.49.49,0,0,1,.56-.41h3a.54.54,0,0,1,.59.41l2,8.39,2.21-8.39a.52.52,0,0,1,.57-.41h2.36c.26,0,.39.15.3.41l-3.07,10.58a.51.51,0,0,1-.57.42h-3.47a.5.5,0,0,1-.56-.42L100.25,8l-1.89,7.61a.5.5,0,0,1-.56.42H94.29A.54.54,0,0,1,93.7,15.63Z"/><path class="cls-1" d="M120,8.56c0-1.12-.22-1.34-1.59-1.34h-1.62c-1.43,0-2,.59-2,1.78v6.63a.38.38,0,0,1-.43.42h-2.3a.39.39,0,0,1-.45-.42V5.05c0-.26.15-.41.45-.41H114c.3,0,.46.15.46.41V6.61c.36-1.3,1.41-2,3.14-2h2.36c2.26,0,3.23,1,3.23,3.1v7.89a.39.39,0,0,1-.43.42h-2.3a.4.4,0,0,1-.45-.42Z"/><path class="cls-1" d="M128.92,16.05c-2.25,0-3.23-1-3.23-3.11V7.74c0-2.15,1-3.1,3.23-3.1h5.6c2.12,0,3.06.89,3.06,2.91v3.38c0,.28-.16.41-.46.41h-8.24v.8c0,1.13.22,1.35,1.58,1.35h3.24c.52,0,.78-.18.78-.65a.39.39,0,0,1,.43-.42h2.21a.4.4,0,0,1,.46.42v.3c0,2-.91,2.91-3,2.91Zm0-6.81h5.55V8c0-.56-.3-.78-.89-.78h-3.08c-1.36,0-1.58.22-1.58,1.34Z"/><path class="cls-1" d="M146.17,7.22c-1.93,0-2.76,1-2.76,2.62v5.79a.38.38,0,0,1-.43.42h-2.3a.39.39,0,0,1-.45-.42V5.05c0-.26.15-.41.45-.41h1.93a.38.38,0,0,1,.43.41V6.77c.37-1.41,1.44-2.13,3.32-2.13h.78a.39.39,0,0,1,.44.41V6.81c0,.28-.16.41-.44.41Z"/><path class="cls-1" d="M149.1,11a.39.39,0,0,1-.44-.41v-2a.39.39,0,0,1,.44-.41h5.11a.38.38,0,0,1,.44.41v2a.38.38,0,0,1-.44.41Z"/><path class="cls-1" d="M160.55,13.21h9.89a.42.42,0,0,1,.47.45v1.93a.43.43,0,0,1-.47.46H157.51a.42.42,0,0,1-.47-.46V1.32a.41.41,0,0,1,.47-.45h2.54a.45.45,0,0,1,.5.45Z"/><path class="cls-1" d="M175.69,16.05c-2.26,0-3.23-1-3.23-3.11V7.74c0-2.15,1-3.1,3.23-3.1h5.59c2.13,0,3.06.89,3.06,2.91v3.38c0,.28-.15.41-.46.41h-8.24v.8c0,1.13.22,1.35,1.59,1.35h3.23c.52,0,.78-.18.78-.65a.39.39,0,0,1,.43-.42h2.21c.31,0,.46.16.46.42v.3c0,2-.91,2.91-3,2.91Zm-.05-6.81h5.56V8c0-.56-.31-.78-.89-.78h-3.08c-1.37,0-1.59.22-1.59,1.34Z"/><path class="cls-1" d="M185.71,5.05c-.09-.26,0-.41.24-.41h2.6c.37,0,.52.11.61.39l3.14,8.5L195.47,5c.08-.28.24-.39.6-.39h2.45c.22,0,.35.15.24.41l-4.31,10.61a.55.55,0,0,1-.61.39h-3.21a.55.55,0,0,1-.61-.39Z"/><path class="cls-1" d="M203.41,16.05c-2.26,0-3.23-1-3.23-3.11V7.74c0-2.15,1-3.1,3.23-3.1H209c2.13,0,3.06.89,3.06,2.91v3.38c0,.28-.15.41-.46.41h-8.24v.8c0,1.13.22,1.35,1.59,1.35h3.23c.52,0,.78-.18.78-.65a.39.39,0,0,1,.43-.42h2.21c.31,0,.46.16.46.42v.3c0,2-.91,2.91-3,2.91Zm0-6.81h5.56V8c0-.56-.31-.78-.89-.78H205c-1.37,0-1.59.22-1.59,1.34Z"/><path class="cls-1" d="M219.07,13.47c.28,0,.43.13.43.41v1.75a.39.39,0,0,1-.43.42h-1.61c-2.08,0-2.92-.81-2.92-2.8V.41A.39.39,0,0,1,215,0h2.32a.38.38,0,0,1,.43.41V12.73c0,.52.2.74.83.74Z"/><path class="cls-1" d="M91.67,27.45v3c0,2.34-1.09,3.53-3.56,3.53h-.58l4.59,4.81a.25.25,0,0,1-.15.46H88.7a.88.88,0,0,1-.81-.35l-4.27-4.77H79.76v4.66a.44.44,0,0,1-.5.46H76.73a.42.42,0,0,1-.48-.46V24.53a.42.42,0,0,1,.48-.46H88.11C90.58,24.07,91.67,25.13,91.67,27.45ZM79.76,31.29h6.62c1.51,0,1.77-.26,1.77-1.52V28.43c0-1.26-.26-1.52-1.77-1.52H79.76Z"/><path class="cls-1" d="M93.67,36.36v-1c0-2.24.84-2.89,3-2.89h5.55v-.71c0-1.13-.24-1.35-1.58-1.35H97.92c-.52,0-.76.18-.76.65a.4.4,0,0,1-.46.44H94.49a.41.41,0,0,1-.45-.44v-.3c0-2,.91-2.91,3-2.91h5.1c2.23,0,3.23,1,3.23,3.1v5.27c0,.31.15.46.48.46H106c.29,0,.44.13.44.41v1.76a.38.38,0,0,1-.44.41h-1.49c-1.43,0-2-.67-2-1.84-.43,1.21-1.45,1.84-3.12,1.84H96.66C94.51,39.25,93.67,38.47,93.67,36.36Zm8.54-1.45v-.35H97.74c-.58,0-.88.22-.88.79v.56c0,.56.28.78.88.78h2.48C101.65,36.69,102.21,36.13,102.21,34.91Z"/><path class="cls-1" d="M112.06,30.42v5.25c0,.78.22,1,1,1h1.67c.31,0,.44.13.44.41v1.76c0,.26-.13.41-.44.41H112c-2.19,0-3.12-.89-3.12-3V30.42h-1.08a.39.39,0,0,1-.44-.41V28.26a.4.4,0,0,1,.44-.42h1.08V25.35a.38.38,0,0,1,.44-.41h2.29c.31,0,.46.15.46.41v2.49h2.62c.31,0,.44.16.44.42V30c0,.28-.13.41-.44.41Z"/><path class="cls-1" d="M120.26,39.25c-2.26,0-3.23-1-3.23-3.1V30.94c0-2.14,1-3.1,3.23-3.1h5.59c2.13,0,3.06.89,3.06,2.91v3.38c0,.28-.15.41-.46.41h-8.24v.81c0,1.12.22,1.34,1.59,1.34H125c.52,0,.78-.17.78-.65a.38.38,0,0,1,.43-.41h2.21c.31,0,.46.15.46.41v.3c0,2-.91,2.91-3,2.91Zm-.05-6.81h5.56V31.18c0-.56-.31-.78-.89-.78H121.8c-1.37,0-1.59.22-1.59,1.35Z"/><path class="cls-1" d="M134.29,31.7c0,.55.26.76.87.76h4.68c2.15,0,3,.65,3,2.89v1c0,2.11-.87,2.89-3,2.89H133.9c-2.15,0-3-.83-3-2.89V36a.39.39,0,0,1,.43-.43h2.23A.39.39,0,0,1,134,36c0,.48.24.65.78.65h4c.61,0,.91-.22.91-.78v-.5c0-.54-.3-.85-.91-.85H134.1c-2.13,0-3-.62-3-2.88v-.95c0-2.11.87-2.89,3-2.89h5.44c2.12,0,3,.83,3,2.89v.32a.4.4,0,0,1-.45.44h-2.21a.41.41,0,0,1-.46-.44c0-.47-.24-.65-.76-.65h-3.51c-.61,0-.87.22-.87.78Z"/></g></g></svg>