<svg xmlns="http://www.w3.org/2000/svg" viewBox="0 0 270 32"><defs><style>.cls-1{fill:#0471df;}.cls-2{fill:#fff;}</style></defs><g id="Layer_2" data-name="Layer 2"><g id="Layer_1-2" data-name="Layer 1"><rect class="cls-1" width="270" height="32" rx="16"/><path class="cls-2" d="M16.41,11.11H18l3.32,8.51,3.47-8.51h1.54L22,21.59H20.53Z"/><path class="cls-2" d="M26.72,13.54h1.49v2.25a3.25,3.25,0,0,1,3.92-2.08L31.4,15a2.65,2.65,0,0,0-3.13,2.66v4H26.72Z"/><path class="cls-2" d="M31.89,17.61a3.88,3.88,0,0,1,4-4.23,3.6,3.6,0,0,1,3.4,2.16v-2h1.51v8.05h-1.5V19.54A3.58,3.58,0,0,1,36,21.75,4,4,0,0,1,31.89,17.61Zm4.4,2.87a2.93,2.93,0,1,0,0-5.85,2.77,2.77,0,0,0-2.9,3A2.86,2.86,0,0,0,36.29,20.48Z"/><path class="cls-2" d="M42,17.61a3.88,3.88,0,0,1,4-4.23,3.58,3.58,0,0,1,3.39,2.16v-2h1.51v8.05H49.36V19.54A3.58,3.58,0,0,1,46,21.75,4,4,0,0,1,42,17.61Zm4.4,2.87a2.93,2.93,0,1,0,0-5.85,2.78,2.78,0,0,0-2.91,3A2.86,2.86,0,0,0,46.36,20.48Z"/><path class="cls-2" d="M52,22.93a2.51,2.51,0,0,1,1.64-2.31.89.89,0,0,1-.56-.9,1.56,1.56,0,0,1,.81-1.18,2.46,2.46,0,0,1-1.25-2.19c0-1.83,1.28-3,3.46-3a9.69,9.69,0,0,1,1.48.14h2.54v1.15H58.73a2,2,0,0,1,.71,1.6c0,1.78-1.3,2.89-3.43,2.89a8.35,8.35,0,0,1-1-.08c-.49.24-.74.56-.74.84,0,.48.54.54,1.11.54H57c1.91,0,3.35.72,3.32,2.4S58.71,25.45,56,25.45,52,24.53,52,22.93Zm4,1.39c1.94,0,2.92-.47,2.94-1.39s-.69-1.48-2.16-1.48H55.34c-1.09,0-2,.51-2,1.51S54.25,24.32,56,24.32ZM56,17.94c1.33,0,2-.6,2-1.67s-.72-1.65-2-1.65S54,15.24,54,16.32,54.63,17.94,56,17.94Z"/><path class="cls-2" d="M65.46,17.61a4.4,4.4,0,0,1,8.8,0,4.41,4.41,0,0,1-8.8,0Zm4.37,2.89a2.94,2.94,0,0,0,0-5.87,2.82,2.82,0,0,0-2.89,3A2.88,2.88,0,0,0,69.83,20.5Z"/><path class="cls-2" d="M76.53,16.27h-1.4V15h1.4V14c0-2.77,2.74-3.58,4.65-2.75l-.29,1.28C79.58,12,78,12.44,78,14.05v1h2.51v1.25H78l0,5.32H76.53Z"/><path class="cls-2" d="M83.11,16.27H81.72V15h1.39V14c0-2.77,2.75-3.58,4.66-2.75l-.29,1.28c-1.32-.58-2.89-.11-2.89,1.5v1H87.1v1.25H84.61l0,5.32H83.11Z"/><path class="cls-2" d="M87.91,17.59a4.21,4.21,0,0,1,8.42-.27c0,.19,0,.41,0,.62h-7a2.9,2.9,0,0,0,5.35,1.19l1.15.59a4.27,4.27,0,0,1-7.91-2.13Zm7-.54a2.75,2.75,0,0,0-2.76-2.45,2.71,2.71,0,0,0-2.72,2.45Z"/><path class="cls-2" d="M97.51,13.54H99v2.25a3.25,3.25,0,0,1,3.92-2.08L102.2,15a2.65,2.65,0,0,0-3.13,2.66v4H97.51Z"/><path class="cls-2" d="M105.42,18.61V14.79H104.1V13.48c1.51,0,1.32-.91,1.32-2.37h1.49l0,2.37h2.51v1.31h-2.53v3.66c0,1.62,1.51,2.21,2.85,1.62l.28,1.28C108.14,22.18,105.42,21.37,105.42,18.61Z"/><path class="cls-2" d="M110.41,17.59a4.21,4.21,0,0,1,8.42-.27c0,.19,0,.41,0,.62h-7a2.9,2.9,0,0,0,5.35,1.19l1.15.59a4.27,4.27,0,0,1-7.91-2.13Zm7-.54a2.75,2.75,0,0,0-2.76-2.45,2.71,2.71,0,0,0-2.72,2.45Z"/><path class="cls-2" d="M124,17.61a3.88,3.88,0,0,1,4-4.23,3.6,3.6,0,0,1,3.4,2.16v-2h1.51v8.05h-1.5V19.54a3.58,3.58,0,0,1-3.33,2.21A4,4,0,0,1,124,17.61Zm4.4,2.87a2.93,2.93,0,1,0,0-5.85,2.78,2.78,0,0,0-2.91,3A2.86,2.86,0,0,0,128.38,20.48Z"/><path class="cls-2" d="M134.05,17.61a3.88,3.88,0,0,1,4-4.23,3.58,3.58,0,0,1,3.39,2.16v-2h1.51v8.05h-1.49V19.54a3.58,3.58,0,0,1-3.34,2.21A4,4,0,0,1,134.05,17.61Zm4.4,2.87a2.93,2.93,0,1,0,0-5.85,2.78,2.78,0,0,0-2.91,3A2.86,2.86,0,0,0,138.45,20.48Z"/><path class="cls-2" d="M144.11,13.54h1.5v2A3.61,3.61,0,0,1,149,13.38a3.88,3.88,0,0,1,4,4.23v4H151.5l0-4a2.79,2.79,0,0,0-2.93-3,2.85,2.85,0,0,0-2.92,3v4h-1.56Z"/></g></g></svg>