<svg 
 xmlns="http://www.w3.org/2000/svg"
 xmlns:xlink="http://www.w3.org/1999/xlink"
 width="137px" height="12px">
<path fill-rule="evenodd"  fill="rgb(252, 184, 5)"
 d="M135.095,10.826 L135.095,9.629 L136.292,9.629 L136.292,10.826 L135.095,10.826 ZM133.786,4.183 C133.459,4.220 133.158,4.351 132.883,4.575 C132.631,4.771 132.442,5.005 132.316,5.278 C132.190,5.551 132.106,5.841 132.064,6.146 C132.022,6.452 132.001,6.754 132.001,7.053 L132.001,10.826 L130.972,10.826 L130.972,3.266 L131.896,3.266 L131.896,4.466 C131.941,4.385 131.988,4.304 132.043,4.228 C132.178,4.039 132.325,3.884 132.484,3.763 C132.680,3.590 132.908,3.458 133.170,3.367 C133.431,3.276 133.695,3.223 133.961,3.206 C134.227,3.190 134.469,3.210 134.689,3.266 L134.689,4.232 C134.413,4.162 134.112,4.146 133.786,4.183 ZM128.375,7.333 L123.469,7.333 C123.509,8.147 123.721,8.791 124.108,9.261 C124.540,9.786 125.152,10.049 125.946,10.049 C126.487,10.049 126.960,9.924 127.363,9.674 C127.767,9.425 128.085,9.064 128.319,8.593 L129.278,8.964 C128.979,9.622 128.539,10.132 127.958,10.493 C127.377,10.855 126.720,11.036 125.988,11.036 C125.250,11.036 124.612,10.873 124.073,10.546 C123.534,10.219 123.115,9.760 122.817,9.167 C122.518,8.574 122.369,7.879 122.369,7.081 C122.369,6.255 122.516,5.541 122.810,4.939 C123.104,4.337 123.518,3.873 124.052,3.546 C124.587,3.219 125.218,3.056 125.946,3.056 C126.692,3.056 127.329,3.227 127.857,3.570 C128.384,3.913 128.783,4.405 129.054,5.044 C129.324,5.683 129.448,6.446 129.425,7.333 L128.872,7.333 L128.375,7.333 ZM127.741,4.750 C127.338,4.251 126.748,4.001 125.974,4.001 C125.162,4.001 124.540,4.265 124.108,4.792 C123.766,5.210 123.562,5.772 123.491,6.472 L128.344,6.472 C128.273,5.736 128.073,5.161 127.741,4.750 ZM119.660,3.266 L120.689,3.266 L120.689,10.826 L119.660,10.826 L119.660,3.266 ZM119.660,0.676 L120.689,0.676 L120.689,1.831 L119.660,1.831 L119.660,0.676 ZM113.867,6.080 C114.187,6.206 114.643,6.344 115.236,6.493 C115.931,6.670 116.477,6.857 116.874,7.053 C117.271,7.249 117.553,7.480 117.721,7.746 C117.889,8.012 117.973,8.341 117.973,8.733 C117.973,9.447 117.708,10.008 117.178,10.416 C116.649,10.825 115.920,11.029 114.991,11.029 C114.104,11.029 113.375,10.838 112.803,10.455 C112.232,10.072 111.881,9.540 111.750,8.859 L112.800,8.684 C112.912,9.113 113.167,9.455 113.566,9.709 C113.965,9.964 114.459,10.091 115.047,10.091 C115.621,10.091 116.074,9.971 116.405,9.730 C116.736,9.490 116.902,9.162 116.902,8.747 C116.902,8.514 116.849,8.323 116.744,8.176 C116.639,8.029 116.426,7.893 116.104,7.767 C115.782,7.641 115.301,7.492 114.662,7.319 C113.976,7.132 113.439,6.946 113.052,6.759 C112.665,6.572 112.389,6.356 112.226,6.111 C112.063,5.866 111.981,5.567 111.981,5.212 C111.981,4.783 112.102,4.406 112.345,4.081 C112.588,3.757 112.924,3.505 113.353,3.325 C113.782,3.146 114.282,3.056 114.851,3.056 C115.420,3.056 115.930,3.148 116.380,3.332 C116.831,3.517 117.194,3.775 117.469,4.106 C117.744,4.437 117.908,4.822 117.959,5.261 L116.909,5.450 C116.839,5.007 116.618,4.655 116.247,4.396 C115.876,4.137 115.406,4.003 114.837,3.994 C114.300,3.980 113.864,4.081 113.528,4.298 C113.192,4.515 113.024,4.804 113.024,5.163 C113.024,5.364 113.085,5.535 113.206,5.677 C113.327,5.820 113.548,5.954 113.867,6.080 ZM109.433,9.573 C109.193,9.967 108.884,10.285 108.502,10.525 C107.961,10.866 107.312,11.036 106.556,11.036 C105.987,11.036 105.510,10.933 105.125,10.728 C104.740,10.523 104.451,10.250 104.260,9.909 C104.069,9.568 103.973,9.197 103.973,8.796 C103.973,8.385 104.056,8.034 104.222,7.742 C104.387,7.451 104.614,7.212 104.901,7.025 C105.188,6.838 105.520,6.696 105.898,6.598 C106.281,6.505 106.704,6.422 107.169,6.349 C107.633,6.277 108.088,6.214 108.534,6.160 C108.840,6.124 109.086,6.088 109.341,6.052 C109.330,5.394 109.187,4.898 108.908,4.568 C108.605,4.209 108.077,4.029 107.326,4.029 C106.808,4.029 106.371,4.146 106.014,4.379 C105.657,4.612 105.406,4.981 105.261,5.485 L104.260,5.191 C104.433,4.514 104.780,3.989 105.303,3.616 C105.826,3.243 106.505,3.056 107.340,3.056 C108.031,3.056 108.618,3.185 109.101,3.444 C109.584,3.703 109.925,4.078 110.126,4.568 C110.219,4.787 110.280,5.032 110.308,5.303 C110.336,5.574 110.350,5.849 110.350,6.129 L110.350,10.826 L109.433,10.826 L109.433,9.573 ZM108.583,7.046 C108.174,7.093 107.773,7.146 107.379,7.207 C106.984,7.268 106.628,7.340 106.311,7.424 C106.096,7.485 105.889,7.570 105.688,7.679 C105.487,7.789 105.323,7.935 105.195,8.117 C105.066,8.299 105.002,8.525 105.002,8.796 C105.002,9.015 105.057,9.228 105.167,9.433 C105.276,9.638 105.454,9.809 105.699,9.944 C105.944,10.079 106.269,10.147 106.675,10.147 C107.156,10.147 107.576,10.061 107.935,9.888 C108.294,9.715 108.584,9.478 108.803,9.177 C109.022,8.876 109.165,8.537 109.230,8.159 C109.286,7.916 109.316,7.649 109.321,7.357 C109.323,7.202 109.325,7.068 109.326,6.954 C109.084,6.985 108.850,7.015 108.583,7.046 ZM101.936,7.333 L97.030,7.333 C97.070,8.147 97.283,8.791 97.670,9.261 C98.101,9.786 98.714,10.049 99.507,10.049 C100.048,10.049 100.521,9.924 100.925,9.674 C101.328,9.425 101.647,9.064 101.880,8.593 L102.839,8.964 C102.540,9.622 102.101,10.132 101.520,10.493 C100.939,10.855 100.282,11.036 99.549,11.036 C98.812,11.036 98.174,10.873 97.635,10.546 C97.096,10.219 96.677,9.760 96.378,9.167 C96.079,8.574 95.930,7.879 95.930,7.081 C95.930,6.255 96.077,5.541 96.371,4.939 C96.665,4.337 97.079,3.873 97.614,3.546 C98.148,3.219 98.779,3.056 99.507,3.056 C100.254,3.056 100.891,3.227 101.418,3.570 C101.945,3.913 102.344,4.405 102.615,5.044 C102.886,5.683 103.009,6.446 102.986,7.333 L102.433,7.333 L101.936,7.333 ZM101.303,4.750 C100.899,4.251 100.310,4.001 99.535,4.001 C98.723,4.001 98.101,4.265 97.670,4.792 C97.327,5.210 97.123,5.772 97.052,6.472 L101.906,6.472 C101.834,5.736 101.634,5.161 101.303,4.750 ZM90.694,6.969 C90.694,6.549 90.655,6.163 90.575,5.810 C90.496,5.458 90.369,5.150 90.194,4.886 C90.019,4.623 89.792,4.419 89.515,4.274 C89.237,4.129 88.900,4.057 88.503,4.057 C88.139,4.057 87.818,4.120 87.541,4.246 C87.263,4.372 87.030,4.553 86.841,4.788 C86.652,5.024 86.508,5.310 86.410,5.646 C86.312,5.982 86.263,6.365 86.263,6.794 L86.263,10.826 L85.227,10.826 L85.227,3.266 L86.158,3.266 L86.158,4.317 C86.401,3.966 86.701,3.688 87.061,3.483 C87.537,3.212 88.083,3.077 88.699,3.077 C89.152,3.077 89.547,3.147 89.886,3.287 C90.224,3.427 90.511,3.616 90.747,3.854 C90.982,4.092 91.173,4.364 91.317,4.669 C91.462,4.975 91.567,5.299 91.632,5.642 C91.698,5.985 91.730,6.327 91.730,6.668 L91.730,10.826 L90.694,10.826 L90.694,6.969 ZM82.847,7.333 L77.942,7.333 C77.982,8.147 78.194,8.791 78.581,9.261 C79.012,9.786 79.625,10.049 80.418,10.049 C80.960,10.049 81.432,9.924 81.836,9.674 C82.239,9.425 82.558,9.064 82.791,8.593 L83.750,8.964 C83.452,9.622 83.012,10.132 82.431,10.493 C81.850,10.855 81.193,11.036 80.460,11.036 C79.723,11.036 79.085,10.873 78.546,10.546 C78.007,10.219 77.588,9.760 77.289,9.167 C76.991,8.574 76.841,7.879 76.841,7.081 C76.841,6.255 76.988,5.541 77.282,4.939 C77.576,4.337 77.990,3.873 78.525,3.546 C79.059,3.219 79.690,3.056 80.418,3.056 C81.165,3.056 81.802,3.227 82.329,3.570 C82.857,3.913 83.256,4.405 83.526,5.044 C83.797,5.683 83.921,6.446 83.897,7.333 L83.344,7.333 L82.847,7.333 ZM82.214,4.750 C81.810,4.251 81.221,4.001 80.446,4.001 C79.634,4.001 79.012,4.265 78.581,4.792 C78.238,5.210 78.034,5.772 77.963,6.472 L82.817,6.472 C82.745,5.736 82.546,5.161 82.214,4.750 ZM74.665,7.333 L69.759,7.333 C69.799,8.147 70.011,8.791 70.398,9.261 C70.830,9.786 71.442,10.049 72.236,10.049 C72.777,10.049 73.249,9.924 73.653,9.674 C74.057,9.425 74.375,9.064 74.609,8.593 L75.568,8.964 C75.269,9.622 74.829,10.132 74.248,10.493 C73.667,10.855 73.010,11.036 72.278,11.036 C71.540,11.036 70.902,10.873 70.363,10.546 C69.824,10.219 69.405,9.760 69.107,9.167 C68.808,8.574 68.659,7.879 68.659,7.081 C68.659,6.255 68.806,5.541 69.100,4.939 C69.394,4.337 69.808,3.873 70.342,3.546 C70.876,3.219 71.508,3.056 72.236,3.056 C72.982,3.056 73.619,3.227 74.147,3.570 C74.674,3.913 75.073,4.405 75.344,5.044 C75.614,5.683 75.738,6.446 75.715,7.333 L75.162,7.333 L74.665,7.333 ZM74.031,4.750 C73.627,4.251 73.038,4.001 72.264,4.001 C71.452,4.001 70.830,4.265 70.398,4.792 C70.056,5.210 69.851,5.772 69.781,6.472 L74.634,6.472 C74.563,5.736 74.363,5.161 74.031,4.750 ZM65.992,10.507 C65.492,10.860 64.890,11.036 64.186,11.036 C63.490,11.036 62.902,10.860 62.422,10.507 C62.143,10.303 61.908,10.051 61.708,9.762 L61.708,10.826 L60.784,10.826 L60.784,0.746 L61.820,0.746 L61.820,4.161 C61.998,3.937 62.203,3.740 62.436,3.574 C62.921,3.229 63.518,3.056 64.228,3.056 C64.918,3.056 65.511,3.231 66.006,3.581 C66.500,3.931 66.879,4.407 67.143,5.009 C67.407,5.611 67.539,6.288 67.539,7.039 C67.539,7.795 67.406,8.474 67.140,9.076 C66.874,9.678 66.491,10.155 65.992,10.507 ZM66.188,5.499 C66.015,5.042 65.752,4.680 65.400,4.414 C65.048,4.148 64.601,4.015 64.060,4.015 C63.532,4.015 63.095,4.143 62.747,4.400 C62.399,4.657 62.139,5.012 61.967,5.467 C61.794,5.922 61.708,6.446 61.708,7.039 C61.708,7.622 61.794,8.144 61.967,8.603 C62.139,9.063 62.401,9.424 62.751,9.685 C63.101,9.946 63.544,10.077 64.081,10.077 C64.608,10.077 65.047,9.944 65.397,9.678 C65.747,9.412 66.009,9.049 66.184,8.589 C66.359,8.130 66.447,7.613 66.447,7.039 C66.447,6.470 66.360,5.956 66.188,5.499 ZM55.758,4.183 C55.431,4.220 55.130,4.351 54.855,4.575 C54.603,4.771 54.414,5.005 54.288,5.278 C54.162,5.551 54.078,5.841 54.036,6.146 C53.994,6.452 53.973,6.754 53.973,7.053 L53.973,10.826 L52.944,10.826 L52.944,3.266 L53.868,3.266 L53.868,4.466 C53.914,4.385 53.961,4.304 54.015,4.228 C54.150,4.039 54.297,3.884 54.456,3.763 C54.652,3.590 54.880,3.458 55.142,3.367 C55.403,3.276 55.667,3.223 55.933,3.206 C56.199,3.190 56.441,3.210 56.661,3.266 L56.661,4.232 C56.385,4.162 56.084,4.146 55.758,4.183 ZM50.347,7.333 L45.441,7.333 C45.481,8.147 45.693,8.791 46.081,9.261 C46.512,9.786 47.125,10.049 47.918,10.049 C48.459,10.049 48.932,9.924 49.336,9.674 C49.739,9.425 50.058,9.064 50.291,8.593 L51.250,8.964 C50.951,9.622 50.512,10.132 49.931,10.493 C49.350,10.855 48.693,11.036 47.960,11.036 C47.223,11.036 46.585,10.873 46.046,10.546 C45.507,10.219 45.088,9.760 44.789,9.167 C44.490,8.574 44.341,7.879 44.341,7.081 C44.341,6.255 44.488,5.541 44.782,4.939 C45.076,4.337 45.490,3.873 46.025,3.546 C46.559,3.219 47.190,3.056 47.918,3.056 C48.665,3.056 49.302,3.227 49.829,3.570 C50.356,3.913 50.755,4.405 51.026,5.044 C51.297,5.683 51.420,6.446 51.397,7.333 L50.844,7.333 L50.347,7.333 ZM49.714,4.750 C49.310,4.251 48.721,4.001 47.946,4.001 C47.134,4.001 46.512,4.265 46.081,4.792 C45.738,5.210 45.534,5.772 45.463,6.472 L50.317,6.472 C50.245,5.736 50.045,5.161 49.714,4.750 ZM39.973,10.826 L37.229,3.266 L38.272,3.266 L40.505,9.482 L42.724,3.266 L43.781,3.266 L41.037,10.826 L39.973,10.826 ZM35.612,7.333 L30.706,7.333 C30.746,8.147 30.958,8.791 31.345,9.261 C31.777,9.786 32.390,10.049 33.183,10.049 C33.724,10.049 34.197,9.924 34.600,9.674 C35.004,9.425 35.323,9.064 35.556,8.593 L36.515,8.964 C36.216,9.622 35.776,10.132 35.195,10.493 C34.614,10.855 33.958,11.036 33.225,11.036 C32.488,11.036 31.849,10.873 31.310,10.546 C30.771,10.219 30.353,9.760 30.054,9.167 C29.755,8.574 29.606,7.879 29.606,7.081 C29.606,6.255 29.753,5.541 30.047,4.939 C30.341,4.337 30.755,3.873 31.289,3.546 C31.824,3.219 32.455,3.056 33.183,3.056 C33.930,3.056 34.567,3.227 35.094,3.570 C35.621,3.913 36.020,4.405 36.291,5.044 C36.562,5.683 36.685,6.446 36.662,7.333 L36.109,7.333 L35.612,7.333 ZM34.978,4.750 C34.575,4.251 33.986,4.001 33.211,4.001 C32.399,4.001 31.777,4.265 31.345,4.792 C31.003,5.210 30.799,5.772 30.728,6.472 L35.582,6.472 C35.510,5.736 35.310,5.161 34.978,4.750 ZM27.219,6.969 C27.219,6.549 27.179,6.163 27.100,5.810 C27.021,5.458 26.893,5.150 26.718,4.886 C26.543,4.623 26.317,4.419 26.039,4.274 C25.762,4.129 25.425,4.057 25.028,4.057 C24.664,4.057 24.343,4.120 24.065,4.246 C23.788,4.372 23.554,4.553 23.365,4.788 C23.176,5.024 23.033,5.310 22.935,5.646 C22.837,5.982 22.788,6.365 22.788,6.794 L22.788,10.826 L21.752,10.826 L21.752,3.266 L22.683,3.266 L22.683,4.317 C22.925,3.966 23.226,3.688 23.586,3.483 C24.062,3.212 24.608,3.077 25.224,3.077 C25.677,3.077 26.072,3.147 26.410,3.287 C26.749,3.427 27.036,3.616 27.271,3.854 C27.507,4.092 27.697,4.364 27.842,4.669 C27.987,4.975 28.092,5.299 28.157,5.642 C28.222,5.985 28.255,6.327 28.255,6.668 L28.255,10.826 L27.219,10.826 L27.219,6.969 ZM13.307,6.080 C13.626,6.206 14.082,6.344 14.675,6.493 C15.370,6.670 15.916,6.857 16.313,7.053 C16.710,7.249 16.992,7.480 17.160,7.746 C17.328,8.012 17.412,8.341 17.412,8.733 C17.412,9.447 17.147,10.008 16.618,10.416 C16.088,10.825 15.359,11.029 14.430,11.029 C13.543,11.029 12.814,10.838 12.243,10.455 C11.671,10.072 11.320,9.540 11.189,8.859 L12.239,8.684 C12.351,9.113 12.607,9.455 13.006,9.709 C13.405,9.964 13.898,10.091 14.486,10.091 C15.060,10.091 15.513,9.971 15.844,9.730 C16.175,9.490 16.341,9.162 16.341,8.747 C16.341,8.514 16.289,8.323 16.184,8.176 C16.079,8.029 15.865,7.893 15.543,7.767 C15.221,7.641 14.740,7.492 14.101,7.319 C13.415,7.132 12.878,6.946 12.491,6.759 C12.104,6.572 11.828,6.356 11.665,6.111 C11.502,5.866 11.420,5.567 11.420,5.212 C11.420,4.783 11.541,4.406 11.784,4.081 C12.027,3.757 12.363,3.505 12.792,3.325 C13.221,3.146 13.721,3.056 14.290,3.056 C14.859,3.056 15.369,3.148 15.820,3.332 C16.270,3.517 16.633,3.775 16.908,4.106 C17.183,4.437 17.347,4.822 17.398,5.261 L16.348,5.450 C16.278,5.007 16.058,4.655 15.687,4.396 C15.316,4.137 14.845,4.003 14.276,3.994 C13.739,3.980 13.303,4.081 12.967,4.298 C12.631,4.515 12.463,4.804 12.463,5.163 C12.463,5.364 12.524,5.535 12.645,5.677 C12.766,5.820 12.987,5.954 13.307,6.080 ZM9.628,3.686 L9.691,3.175 C9.878,3.189 10.013,3.152 10.097,3.063 C10.181,2.974 10.232,2.855 10.251,2.706 C10.270,2.557 10.274,2.396 10.265,2.223 L9.628,2.223 L9.628,0.746 L10.825,0.746 L10.825,2.503 C10.825,2.932 10.716,3.254 10.499,3.469 C10.282,3.684 9.992,3.756 9.628,3.686 ZM6.880,10.931 C6.467,10.912 6.099,10.824 5.774,10.665 C5.450,10.506 5.204,10.259 5.036,9.923 C4.901,9.643 4.827,9.359 4.815,9.072 C4.804,8.785 4.798,8.458 4.798,8.089 L4.798,4.148 L3.181,4.148 L3.181,3.266 L4.798,3.266 L4.798,1.166 L5.820,1.166 L5.820,3.266 L8.137,3.266 L8.137,4.148 L5.820,4.148 L5.820,8.047 C5.820,8.364 5.823,8.629 5.830,8.841 C5.837,9.054 5.885,9.242 5.974,9.405 C6.142,9.718 6.409,9.904 6.775,9.965 C7.142,10.026 7.596,10.012 8.137,9.923 L8.137,10.826 C7.712,10.915 7.293,10.950 6.880,10.931 ZM0.892,0.746 L1.921,0.746 L1.921,10.826 L0.892,10.826 L0.892,0.746 Z"/>
</svg>