<svg xmlns="http://www.w3.org/2000/svg" viewBox="0 0 211.55 21.1"><g id="Layer_2" data-name="Layer 2"><g id="Layer_1-2" data-name="Layer 1"><path d="M7,1.4a9.33,9.33,0,0,1,4.4,1,7.28,7.28,0,0,1,2.94,2.77,8,8,0,0,1,1.06,4.17,8,8,0,0,1-1.06,4.16,7.23,7.23,0,0,1-2.94,2.78,9.33,9.33,0,0,1-4.4,1H0V1.4ZM3.58,15.64,1.83,13.73H7.24a4.87,4.87,0,0,0,2.38-.55,3.89,3.89,0,0,0,1.56-1.53,4.66,4.66,0,0,0,.55-2.32A4.64,4.64,0,0,0,11.18,7,4,4,0,0,0,9.62,5.48a4.87,4.87,0,0,0-2.38-.55H1.83L3.58,3Z"/><path d="M23.43,17.6A7.32,7.32,0,0,1,20,16.8a6.12,6.12,0,0,1-2.41-2.24,6.38,6.38,0,0,1-.87-3.37,6.47,6.47,0,0,1,.83-3.3,6,6,0,0,1,2.32-2.22,6.82,6.82,0,0,1,3.34-.8,5.72,5.72,0,0,1,3.28.93,6,6,0,0,1,2.11,2.62,9.78,9.78,0,0,1,.75,4H19.5V9.92h7.85l-1.27.89a4,4,0,0,0-.43-1.68A2.59,2.59,0,0,0,23.22,7.7a3.06,3.06,0,0,0-1.58.4,2.77,2.77,0,0,0-1,1.13,3.54,3.54,0,0,0-.37,1.67,4.09,4.09,0,0,0,.48,2,3.27,3.27,0,0,0,1.41,1.29,5.15,5.15,0,0,0,2.26.44,8.26,8.26,0,0,0,2.44-.37,7.63,7.63,0,0,0,2.19-1v2.56a8.62,8.62,0,0,1-2.52,1.31A9.81,9.81,0,0,1,23.43,17.6Z"/><path d="M43.3,13.39a3.67,3.67,0,0,1-.72,2.3,4.36,4.36,0,0,1-2.08,1.43,10.21,10.21,0,0,1-3.34.48,10.09,10.09,0,0,1-3.5-.55,5.33,5.33,0,0,1-2.34-1.54,3.74,3.74,0,0,1-.9-2.31H34a1.77,1.77,0,0,0,.54.93,2.8,2.8,0,0,0,1.12.61,5.87,5.87,0,0,0,1.62.2,4.7,4.7,0,0,0,1.9-.3,1,1,0,0,0,.65-.89.73.73,0,0,0-.47-.67,5,5,0,0,0-1.66-.34l-2-.17a9,9,0,0,1-3-.66,3.45,3.45,0,0,1-1.57-1.29,3.37,3.37,0,0,1-.47-1.75,3.37,3.37,0,0,1,.76-2.23,4.54,4.54,0,0,1,2.08-1.33,9.81,9.81,0,0,1,3.13-.44,8.86,8.86,0,0,1,3.19.53,5.75,5.75,0,0,1,2.25,1.46,3.68,3.68,0,0,1,1,2.18h-3.6a1.55,1.55,0,0,0-.41-.79,2.37,2.37,0,0,0-.95-.58,4.85,4.85,0,0,0-1.61-.22,4.28,4.28,0,0,0-1.72.27.88.88,0,0,0-.59.81.72.72,0,0,0,.36.63,3.36,3.36,0,0,0,1.37.34l2.58.21a9.17,9.17,0,0,1,2.86.65,3.13,3.13,0,0,1,1.48,1.23A3.58,3.58,0,0,1,43.3,13.39Z"/><path d="M46.82,3.94A2.16,2.16,0,0,1,45.3,3.4,1.83,1.83,0,0,1,44.71,2,1.81,1.81,0,0,1,45.3.53,2.2,2.2,0,0,1,46.82,0a2.15,2.15,0,0,1,1.52.53A1.83,1.83,0,0,1,48.92,2a1.85,1.85,0,0,1-.58,1.43A2.11,2.11,0,0,1,46.82,3.94ZM45.05,5l1.75.4L48.57,5V17.27H45.05Z"/><path d="M55.62,16.08a5.25,5.25,0,0,1-2.72-.7,5,5,0,0,1-1.89-2,6.08,6.08,0,0,1-.68-3,6.06,6.06,0,0,1,.68-3A4.93,4.93,0,0,1,52.9,5.57a5.25,5.25,0,0,1,2.72-.7,5.53,5.53,0,0,1,2.1.39,6.24,6.24,0,0,1,1.69,1,7.11,7.11,0,0,1,1.26,1.39,6.73,6.73,0,0,1,.78,1.5,4,4,0,0,1,.27,1.35,4.4,4.4,0,0,1-.42,1.74,6.92,6.92,0,0,1-1.21,1.83,6.43,6.43,0,0,1-1.92,1.43A5.69,5.69,0,0,1,55.62,16.08Zm4.8-1.84V12.19l.12-.49V8.91l-.12-.45V5.21H64v8.84A7.4,7.4,0,0,1,63,17.87a6.11,6.11,0,0,1-2.56,2.4,8.35,8.35,0,0,1-3.81.83,8.47,8.47,0,0,1-2.77-.44,10,10,0,0,1-2.51-1.3v-3a7.78,7.78,0,0,0,2.45,1.4,8.07,8.07,0,0,0,2.6.44,4.12,4.12,0,0,0,3-1A3.9,3.9,0,0,0,60.42,14.24Zm-3.62-.89a3.44,3.44,0,0,0,2.12-.7,5.57,5.57,0,0,0,1.62-2.18,5.57,5.57,0,0,0-1.63-2.2,3.49,3.49,0,0,0-2.11-.69,3.31,3.31,0,0,0-1.55.35,2.46,2.46,0,0,0-1,1,3.09,3.09,0,0,0-.35,1.53A3.19,3.19,0,0,0,54.23,12a2.41,2.41,0,0,0,1,1A3.22,3.22,0,0,0,56.8,13.35Z"/><path d="M65.68,5.21H69.2l.71,4.69v7.37H66.36v-8ZM74,4.87a5,5,0,0,1,2.66.68,4.49,4.49,0,0,1,1.68,2,7.38,7.38,0,0,1,.58,3v6.73H75.33V11.13a3.4,3.4,0,0,0-.66-2.27,2.38,2.38,0,0,0-1.91-.78,2.67,2.67,0,0,0-1.51.42,2.63,2.63,0,0,0-1,1.16,4.11,4.11,0,0,0-.35,1.79l-1.13-.66a8.71,8.71,0,0,1,.94-3.24,5.47,5.47,0,0,1,1.83-2A4.52,4.52,0,0,1,74,4.87Z"/><path d="M87.24,17.6a7.35,7.35,0,0,1-3.48-.8,6.12,6.12,0,0,1-2.41-2.24,6.38,6.38,0,0,1-.87-3.37,6.38,6.38,0,0,1,.84-3.3,5.94,5.94,0,0,1,2.31-2.22A6.82,6.82,0,0,1,87,4.87a5.72,5.72,0,0,1,3.28.93,6,6,0,0,1,2.11,2.62,9.78,9.78,0,0,1,.75,4H83.32V9.92h7.84l-1.27.89a4,4,0,0,0-.43-1.68A2.59,2.59,0,0,0,87,7.7a3.06,3.06,0,0,0-1.58.4,2.77,2.77,0,0,0-1,1.13A3.54,3.54,0,0,0,84,10.9a4,4,0,0,0,.49,2,3.19,3.19,0,0,0,1.4,1.29,5.15,5.15,0,0,0,2.26.44,8.26,8.26,0,0,0,2.44-.37,7.63,7.63,0,0,0,2.19-1v2.56a8.62,8.62,0,0,1-2.52,1.31A9.81,9.81,0,0,1,87.24,17.6Z"/><path d="M94.33,5.21h3.58l.64,4.33v7.73H95v-8ZM103.74,5V8.42a10.07,10.07,0,0,0-1-.19,8,8,0,0,0-.93-.06,3.26,3.26,0,0,0-1.65.41A3,3,0,0,0,99,9.88a5.41,5.41,0,0,0-.43,2.31l-.7-1a15,15,0,0,1,.44-2.43,7.52,7.52,0,0,1,.84-2,4.07,4.07,0,0,1,1.32-1.38,3.45,3.45,0,0,1,1.91-.51,5.53,5.53,0,0,1,.69,0A5,5,0,0,1,103.74,5Z"/><path d="M125.39,10.71a7.58,7.58,0,0,1-1.27,3.6,7.24,7.24,0,0,1-2.82,2.43,9,9,0,0,1-4,.86,8.79,8.79,0,0,1-4.34-1,7.3,7.3,0,0,1-2.88-2.9,8.79,8.79,0,0,1-1-4.34,8.81,8.81,0,0,1,1-4.34A7.37,7.37,0,0,1,113,2.09a9.6,9.6,0,0,1,8.32-.16,7.19,7.19,0,0,1,2.82,2.41A7.58,7.58,0,0,1,125.39,8h-3.62A4,4,0,0,0,121,6.12a3.75,3.75,0,0,0-1.52-1.18,5.5,5.5,0,0,0-2.18-.41,4.92,4.92,0,0,0-2.46.58,4,4,0,0,0-1.58,1.66,5.52,5.52,0,0,0-.55,2.56,5.52,5.52,0,0,0,.55,2.56,4,4,0,0,0,1.58,1.66,4.92,4.92,0,0,0,2.46.58,5.51,5.51,0,0,0,2.18-.4A3.62,3.62,0,0,0,121,12.57a4.11,4.11,0,0,0,.77-1.86Z"/><path d="M131.79,17.58a4.76,4.76,0,0,1-2.59-.68,4.45,4.45,0,0,1-1.63-2,7.49,7.49,0,0,1-.56-3V5.21h3.54v6.15a3.53,3.53,0,0,0,.63,2.25,2.2,2.2,0,0,0,1.81.78,2.71,2.71,0,0,0,1.49-.4,2.63,2.63,0,0,0,.94-1.17,4.52,4.52,0,0,0,.33-1.8l1.11.66a8.72,8.72,0,0,1-.9,3.23,5.26,5.26,0,0,1-1.8,2A4.33,4.33,0,0,1,131.79,17.58Zm4.65-.31-.69-4.7V5.21h3.55v8l.68,4.11Z"/><path d="M141.24,5.21h3.58l.65,4.33v7.73h-3.54v-8ZM150.65,5V8.42a9.13,9.13,0,0,0-1-.19,7.85,7.85,0,0,0-.92-.06,3.26,3.26,0,0,0-1.65.41,2.85,2.85,0,0,0-1.16,1.3,5.26,5.26,0,0,0-.43,2.31l-.71-1a16.14,16.14,0,0,1,.44-2.43,8.23,8.23,0,0,1,.84-2,4.19,4.19,0,0,1,1.33-1.38,3.42,3.42,0,0,1,1.91-.51,5.38,5.38,0,0,1,.68,0A4.69,4.69,0,0,1,150.65,5Z"/><path d="M151.13,8.13V6.41l2.24-.91L154.9,2h2V5.21h4.68V8.13h-4.68v4a2.82,2.82,0,0,0,.49,1.9,2.34,2.34,0,0,0,1.77.54,6.09,6.09,0,0,0,1.44-.16,5.87,5.87,0,0,0,1.17-.44v3a8.33,8.33,0,0,1-1.49.46,8.69,8.69,0,0,1-1.92.21,5.83,5.83,0,0,1-2.84-.61,3.74,3.74,0,0,1-1.64-1.72,6.06,6.06,0,0,1-.53-2.62V8.13Z"/><path d="M173.89,11.24a9.58,9.58,0,0,1-1.09,3.35,6.13,6.13,0,0,1-2,2.22,5.24,5.24,0,0,1-5.55,0,5.38,5.38,0,0,1-1.89-2.23,7.59,7.59,0,0,1-.69-3.33,7.64,7.64,0,0,1,.69-3.34,5.38,5.38,0,0,1,1.89-2.23,5.24,5.24,0,0,1,5.55,0,6.29,6.29,0,0,1,2,2.21A9.35,9.35,0,0,1,173.89,11.24Zm-7.66,0a4,4,0,0,0,.36,1.72,2.9,2.9,0,0,0,1,1.18,2.58,2.58,0,0,0,1.48.44,3.13,3.13,0,0,0,1.59-.44A4.33,4.33,0,0,0,172,13a5.15,5.15,0,0,0,.86-1.72A5.1,5.1,0,0,0,172,9.51a4.46,4.46,0,0,0-1.32-1.18,3.13,3.13,0,0,0-1.59-.44,2.58,2.58,0,0,0-1.48.44,3,3,0,0,0-1,1.18A4,4,0,0,0,166.23,11.24Zm6.78,6-.47-4.38.51-1.65-.51-1.63.47-4.4h3.68l-.67,6,.67,6Z"/><path d="M180.46,3.94a2.16,2.16,0,0,1-1.52-.54A1.83,1.83,0,0,1,178.35,2a1.81,1.81,0,0,1,.59-1.44A2.2,2.2,0,0,1,180.46,0,2.16,2.16,0,0,1,182,.53,1.83,1.83,0,0,1,182.56,2,1.85,1.85,0,0,1,182,3.4,2.12,2.12,0,0,1,180.46,3.94ZM178.69,5l1.75.4,1.77-.4V17.27h-3.52Z"/><path d="M184,5.21h3.53l.7,4.69v7.37h-3.54v-8Zm8.29-.34a5,5,0,0,1,2.66.68,4.4,4.4,0,0,1,1.67,2,7.22,7.22,0,0,1,.58,3v6.73h-3.54V11.13A3.34,3.34,0,0,0,193,8.86a2.35,2.35,0,0,0-1.9-.78,2.67,2.67,0,0,0-1.51.42,2.63,2.63,0,0,0-1,1.16,4.11,4.11,0,0,0-.36,1.79l-1.12-.66A8.53,8.53,0,0,1,188,7.55a5.47,5.47,0,0,1,1.83-2A4.5,4.5,0,0,1,192.27,4.87Z"/><path d="M211.55,13.39a3.67,3.67,0,0,1-.72,2.3,4.36,4.36,0,0,1-2.08,1.43,10.21,10.21,0,0,1-3.34.48,10.09,10.09,0,0,1-3.5-.55,5.33,5.33,0,0,1-2.34-1.54,3.74,3.74,0,0,1-.9-2.31h3.6a1.77,1.77,0,0,0,.54.93,2.8,2.8,0,0,0,1.12.61,5.87,5.87,0,0,0,1.62.2,4.7,4.7,0,0,0,1.9-.3,1,1,0,0,0,.65-.89.73.73,0,0,0-.47-.67,5,5,0,0,0-1.66-.34l-2-.17a9,9,0,0,1-3-.66,3.45,3.45,0,0,1-1.57-1.29A3.37,3.37,0,0,1,199,8.87a3.37,3.37,0,0,1,.76-2.23,4.54,4.54,0,0,1,2.08-1.33,9.81,9.81,0,0,1,3.13-.44,8.86,8.86,0,0,1,3.19.53,5.75,5.75,0,0,1,2.25,1.46,3.68,3.68,0,0,1,1,2.18h-3.6a1.55,1.55,0,0,0-.41-.79,2.37,2.37,0,0,0-1-.58,4.85,4.85,0,0,0-1.61-.22,4.28,4.28,0,0,0-1.72.27.88.88,0,0,0-.59.81.72.72,0,0,0,.36.63,3.36,3.36,0,0,0,1.37.34l2.58.21a9.17,9.17,0,0,1,2.86.65,3.13,3.13,0,0,1,1.48,1.23A3.58,3.58,0,0,1,211.55,13.39Z"/></g></g></svg>