<svg xmlns="http://www.w3.org/2000/svg" width="186.99" height="33.28" viewBox="0 0 186.99 33.28"><defs><style>.cls-1{fill:#ff7f00;}.cls-2{fill:#fff;}</style></defs><g id="Layer_2" data-name="Layer 2"><g id="Layer_1-2" data-name="Layer 1"><rect class="cls-1" width="186.99" height="33.28" rx="16.64"/><path class="cls-2" d="M29.54,17.2a.58.58,0,0,0-.06.32c0,.12,0,.24,0,.36a1.89,1.89,0,0,1-.07.39c0,.13-.06.26-.08.38a1,1,0,0,0,0,.15.25.25,0,0,1,0,.12,1.16,1.16,0,0,1-.06.15.78.78,0,0,0,0,.14,1.54,1.54,0,0,0,0,.3,1.36,1.36,0,0,1,0,.29.6.6,0,0,0-.1.2l0,.1-.23.41a1.33,1.33,0,0,0-.16.46,2,2,0,0,1-.23.42q-.13.16-.27.3l-.27.26a2.09,2.09,0,0,0-.24.28l-.16.08-.12.12a.29.29,0,0,0-.2.09.28.28,0,0,1-.2.08l-.12.08a.22.22,0,0,0-.1.09l-.36.17-.28.14a.28.28,0,0,0-.24,0,.4.4,0,0,1-.18.1.34.34,0,0,1-.17,0,.61.61,0,0,0-.22,0,.37.37,0,0,1-.2,0,.09.09,0,0,0-.1.05c-.12,0-.19,0-.2,0s0,0-.1,0h-.31a.36.36,0,0,0-.24.09h-.15l-.16,0-.1,0h-.1a.48.48,0,0,1-.17,0h-.08l-.11,0-.09,0-.22,0h-.4a.22.22,0,0,1-.12,0l-.1,0a1.29,1.29,0,0,0-.28,0,.83.83,0,0,1-.27,0,.23.23,0,0,1-.12-.06.38.38,0,0,0-.12-.09.27.27,0,0,1-.25,0A.91.91,0,0,0,21,23.1a.47.47,0,0,0-.17,0,.34.34,0,0,1-.18,0,.48.48,0,0,1-.27-.21.18.18,0,0,1-.13,0,.15.15,0,0,0-.1,0L20,22.62a1.12,1.12,0,0,0-.25-.11.12.12,0,0,0-.1-.1.41.41,0,0,1-.13-.08l-.18-.16a.21.21,0,0,1-.06-.08.16.16,0,0,0-.1,0c-.06,0-.08,0-.08,0a.92.92,0,0,0-.19-.13.2.2,0,0,1-.13-.12.83.83,0,0,1-.3-.13,2.25,2.25,0,0,1-.24-.21.2.2,0,0,1-.11,0l-.09,0c0-.06,0-.09-.06-.1a.16.16,0,0,1-.09-.09c-.1,0-.17,0-.2-.1a.24.24,0,0,0-.2-.11,1.27,1.27,0,0,1-.07-.12.14.14,0,0,0-.12-.05.59.59,0,0,0-.2-.3,3.44,3.44,0,0,1-.27-.27.34.34,0,0,1-.08-.09.3.3,0,0,0-.08-.08,1.69,1.69,0,0,1-.11-.31.17.17,0,0,0-.11-.16.23.23,0,0,0,0-.14,1.16,1.16,0,0,1-.06-.15s0-.09,0-.14a.31.31,0,0,0-.06-.13.75.75,0,0,0,0-.3,1.54,1.54,0,0,0-.09-.28.88.88,0,0,0,0-.22.38.38,0,0,0-.06-.19.49.49,0,0,0,0-.27,1.42,1.42,0,0,1,0-.29c0-.15,0-.29,0-.43a2.09,2.09,0,0,1,0-.43c0-.08,0-.14,0-.18s0-.07,0-.09a1.52,1.52,0,0,1,0-.19l0-.08a.78.78,0,0,0,0-.26.85.85,0,0,1,0-.23.84.84,0,0,1,.13-.25.1.1,0,0,0,0-.09s0-.05,0-.11a.28.28,0,0,0,.1-.26,1.28,1.28,0,0,1,0-.34.52.52,0,0,1,.06-.15l.06-.15a1,1,0,0,1,.15-.26v-.21a.59.59,0,0,0,.15-.27.37.37,0,0,1,.17-.24c0-.06,0-.11,0-.13s0-.06,0-.12l.16-.18a.19.19,0,0,0,.06-.07.54.54,0,0,0,.05-.11.16.16,0,0,1,.07-.09.77.77,0,0,1,.19-.22.45.45,0,0,0,.16-.25.15.15,0,0,0,.13-.06.48.48,0,0,1,.09-.11l.23-.15a.18.18,0,0,0,.08-.09.36.36,0,0,1,.07-.1.89.89,0,0,0,.28-.21l.21-.21a.64.64,0,0,1,.32-.16L19.5,11l.19-.09.56-.18c.17-.06.33-.11.46-.17l.26-.09.33-.09a.35.35,0,0,1,.11,0l.11,0a.25.25,0,0,1,.08,0l.08,0h.25l.46-.07a2.31,2.31,0,0,1,.53,0h.37l.21,0s.05,0,.1,0l.13,0h.38l.11,0,.68,0a1.28,1.28,0,0,1,.61.11l.13.07.17.08h.09l.1,0,.11.05.09.07a.85.85,0,0,1,.27.12l.15.1.06,0a.78.78,0,0,1,.31.21l.3.24c.07,0,.1,0,.11.09s0,0,0,0a.35.35,0,0,1,.16.09.69.69,0,0,0,.13.11.31.31,0,0,1,.16.12l.15.17.18.09.06,0,.09.13a.62.62,0,0,0,.09.12l.11.07.11.07.15.18a.45.45,0,0,1,.23.1,1.07,1.07,0,0,1,.14.16.42.42,0,0,0,0,.15s0,.05,0,0a.37.37,0,0,1-.19.18.37.37,0,0,0-.17.21l-.18.12-.08.09a.7.7,0,0,1-.15.14.46.46,0,0,1-.12.11l0,0-.16.16a.35.35,0,0,1-.19.15.89.89,0,0,1-.16.25.43.43,0,0,1-.36.06.14.14,0,0,1-.06-.1,1.17,1.17,0,0,0,0-.11.14.14,0,0,1-.12-.05.71.71,0,0,0-.09-.07L27,14.15l0,0,0,0a1.37,1.37,0,0,1-.2-.16.3.3,0,0,1-.1-.14.55.55,0,0,1-.24-.12l-.23-.16a1,1,0,0,1-.22-.14l-.12-.12a.34.34,0,0,0-.13-.1l-.19-.05a.28.28,0,0,0-.12-.05h-.08a.6.6,0,0,0-.17-.12L25,12.85l-.16,0-.2-.05-.13-.06-.12-.06-.11-.06a.21.21,0,0,1-.11-.07.16.16,0,0,1-.15,0,.35.35,0,0,0-.15-.07l-.18,0-.07,0h-.1a.06.06,0,0,1-.08,0l-.16-.05-.21-.08a.73.73,0,0,0-.22,0c-.07,0-.11,0-.14-.1s0,0,0,.07a.11.11,0,0,1-.08.07.33.33,0,0,0-.14,0H22.3l-.09,0-.11,0a.24.24,0,0,0-.14,0h-.49l-.32.15-.22.07a2.11,2.11,0,0,0-.41.22,1.1,1.1,0,0,1-.28.15.41.41,0,0,1-.12.14l-.13.11-.14.12a.31.31,0,0,1-.15.1.19.19,0,0,1-.05.11l-.06.11c-.06,0-.09,0-.11,0s0,0-.1,0a.24.24,0,0,1,0,.12.13.13,0,0,0,0,.1,1.49,1.49,0,0,0-.2.29,1.23,1.23,0,0,1-.22.29.31.31,0,0,1,0,.19,1,1,0,0,0-.1.18,1.34,1.34,0,0,0-.07.18,1.18,1.18,0,0,1-.1.19.89.89,0,0,1-.05.18l0,.06a.24.24,0,0,0,0,.12v.11a3,3,0,0,1-.08.32c0,.1-.07.21-.1.32s0,.21-.07.32,0,.23-.05.35a1.48,1.48,0,0,0,0,.21v.21a2.08,2.08,0,0,1,.06.42.29.29,0,0,0,.09.23.23.23,0,0,0,0,.14s0,.07,0,.08l.06.1a1,1,0,0,0,0,.1.35.35,0,0,1,0,.17.11.11,0,0,0,0,.08.6.6,0,0,0,.19.23,1,1,0,0,1,.23.23.29.29,0,0,0,.06.19.81.81,0,0,0,.12.14.73.73,0,0,1,.1.13.33.33,0,0,1,.05.21.88.88,0,0,1,.17.12l.17.13.16.11.16.11a1.19,1.19,0,0,0,.22.25.4.4,0,0,1,.11.19.47.47,0,0,1,.19.06,1,1,0,0,0,.13.09l.14.06a.63.63,0,0,1,.13.11,1,1,0,0,1,.47.14,1.57,1.57,0,0,0,.45.17l.15.06a.31.31,0,0,0,.17,0,.28.28,0,0,0,.2.1.32.32,0,0,1,.19.1h.23a.28.28,0,0,1,.15.08l.3,0a.53.53,0,0,1,.26.06.42.42,0,0,1,.3,0,1.53,1.53,0,0,0,.37,0l.11,0a.23.23,0,0,1,.11,0,.31.31,0,0,0,.13,0l.05,0a1,1,0,0,0,.3,0,.87.87,0,0,0,.24-.07l.15,0a.48.48,0,0,0,.18-.06.59.59,0,0,1,.18-.06s.05,0,.08,0a.76.76,0,0,0,.17-.12l.09-.08C26,21,26,21,26.05,21l.06,0c.07-.08.11-.13.11-.15l0-.07a.36.36,0,0,1,.12-.11s.05,0,.05,0a.53.53,0,0,1,.11-.2.88.88,0,0,0,.14-.15.3.3,0,0,1,.1-.09,1.45,1.45,0,0,1,.2-.69.28.28,0,0,0,0-.1s0-.07,0-.11a.17.17,0,0,1,0-.1.24.24,0,0,0,0-.09.38.38,0,0,0,0-.15.2.2,0,0,1,0-.13.51.51,0,0,0-.24,0l-.11,0a.63.63,0,0,1-.19,0,1.4,1.4,0,0,0-.34.05,1.37,1.37,0,0,1-.35,0c-.05,0-.08,0-.1,0l0-.1a.64.64,0,0,1-.34.12.44.44,0,0,1-.25-.06.85.85,0,0,1-.45.06,1.07,1.07,0,0,0-.44.05L24,18.78a.48.48,0,0,0-.22,0,.43.43,0,0,1-.06-.31,2,2,0,0,0,0-.35.55.55,0,0,0,0-.17.57.57,0,0,1,0-.23.51.51,0,0,0,0-.18l0-.07a1.18,1.18,0,0,0,0-.19.24.24,0,0,1,0-.15l.13-.11a.36.36,0,0,1,.17-.07.14.14,0,0,1,.14,0,.23.23,0,0,0,.13.06.79.79,0,0,0,.26,0c.05,0,.09,0,.11,0a.24.24,0,0,1,.15-.05H25l.12,0h.1l.13,0,.18,0,.18,0c.08,0,.12,0,.14,0h.07a.43.43,0,0,1,.17,0h.05a.33.33,0,0,0,.15,0,.26.26,0,0,1,.14,0l.08,0H27a.82.82,0,0,1,.22,0,.69.69,0,0,0,.25,0l.15,0,.17,0,.2,0,.21,0,.11,0h.92l.11.15A.22.22,0,0,0,29.54,17.2Z"/><path class="cls-2" d="M40.56,18.4a1.6,1.6,0,0,0,0,.32.33.33,0,0,1,0,.19.23.23,0,0,1-.13.1.18.18,0,0,0-.12.1.78.78,0,0,0-.22,0l-.2,0a.48.48,0,0,0-.33-.08.52.52,0,0,1-.34-.08A.49.49,0,0,1,39,19a1.64,1.64,0,0,1-.49,0L38,18.91l-.39,0h-.35l-.27,0a.84.84,0,0,1-.24-.06.53.53,0,0,0-.25-.05.45.45,0,0,0-.2,0l-.22,0-.26,0a.58.58,0,0,1-.19,0H35.3a.19.19,0,0,1-.19-.08l-.12.07h-.18l-.13,0h-.07a.5.5,0,0,1-.2,0,.12.12,0,0,0-.14.05s-.06,0-.12,0a.16.16,0,0,1-.12,0,.68.68,0,0,0-.35,0,1.27,1.27,0,0,1-.28,0,1.09,1.09,0,0,1-.26,0,.54.54,0,0,0-.31,0,.55.55,0,0,0-.06.37.7.7,0,0,0,.12.36.22.22,0,0,1,0,.14.25.25,0,0,0,0,.13,1.37,1.37,0,0,0,.23.27,1,1,0,0,1,.14.17,1.57,1.57,0,0,0,.2.25,2,2,0,0,1,.22.27.25.25,0,0,0,.09.13.53.53,0,0,1,.11.14.6.6,0,0,1,.23.1l.22.15a1.11,1.11,0,0,1,.26.18.56.56,0,0,0,.2.12l.13,0a.12.12,0,0,1,.1,0,.77.77,0,0,1,.19.11.35.35,0,0,0,.21.1,1.16,1.16,0,0,1,.27,0l.15,0a.66.66,0,0,0,.41-.1h.13l.13,0a.58.58,0,0,1,.23-.1.28.28,0,0,0,.13,0,.16.16,0,0,1,.09-.06s0,0,.07,0a.75.75,0,0,0,.18-.08l.16-.12a1.07,1.07,0,0,0,.22-.15.86.86,0,0,0,.29-.28,1.78,1.78,0,0,1,.28-.32,1,1,0,0,1,.07-.34.85.85,0,0,1,.13-.25.78.78,0,0,1,0-.29,1,1,0,0,1,.11-.21l.15,0a.36.36,0,0,1,.17,0l.09.06.13.06.11,0,.17,0a.41.41,0,0,0,.17.05l.1,0a.47.47,0,0,0,.25.05.31.31,0,0,1,.19,0,.91.91,0,0,1,.22.2.63.63,0,0,1-.12.37.72.72,0,0,0-.08.22.2.2,0,0,1,0,.13.14.14,0,0,1-.05.08l0,.1c0,.07,0,.14-.05.2a.82.82,0,0,1-.06.19l-.21.24a.51.51,0,0,1-.16.11.1.1,0,0,1,0,.13l-.1.07a.45.45,0,0,1-.14.19l-.21.15a1.31,1.31,0,0,1-.28.2l-.27.17-.25.21a.46.46,0,0,1-.17.09l-.13.06-.06,0a.34.34,0,0,1-.18,0,.64.64,0,0,0-.2,0,1.32,1.32,0,0,1-.32.09l-.27.06a.56.56,0,0,1-.35.05.38.38,0,0,0-.25,0,.14.14,0,0,1-.17,0l-.31.07a.63.63,0,0,1-.23,0l-.1,0-.1,0a4.62,4.62,0,0,0-.51-.07,1.28,1.28,0,0,1-.35-.07l-.1,0a.09.09,0,0,1-.08-.06A.47.47,0,0,1,34,23a1.14,1.14,0,0,1-.23-.16l-.09,0-.09,0-.24-.11a.39.39,0,0,1-.18-.2.24.24,0,0,1-.19-.06,1,1,0,0,0-.15-.14.4.4,0,0,1-.24-.07.77.77,0,0,1-.18-.18,2.27,2.27,0,0,0-.25-.27,2.36,2.36,0,0,1-.28-.31.53.53,0,0,0-.25-.17.42.42,0,0,0-.11-.17l-.13-.15-.12-.22-.06-.08a1.47,1.47,0,0,1-.06-.27c0-.08,0-.16-.06-.26a.86.86,0,0,1-.05-.26,1,1,0,0,0,0-.17.3.3,0,0,0,0-.1l0-.1a.49.49,0,0,1,0-.17,1.28,1.28,0,0,0,0-.19l0-.15a.88.88,0,0,1,0-.16,2.29,2.29,0,0,1,0-.25,2.17,2.17,0,0,0,0-.26.34.34,0,0,0,0-.09v-.09a1.21,1.21,0,0,1,0-.18.7.7,0,0,0,.06-.17.39.39,0,0,1,0-.22c0-.05,0-.08,0-.1a.31.31,0,0,0,.05-.1.94.94,0,0,1,0-.09.36.36,0,0,0,0-.11.5.5,0,0,1,0-.16l.11-.16s0,0,0,0a.4.4,0,0,1,0-.16.12.12,0,0,1,.05-.07c.05-.11.09-.18.1-.2l0-.07a.43.43,0,0,1,0-.15l0-.05c0-.07,0-.13,0-.18a.53.53,0,0,1,0-.16l.08-.17a.44.44,0,0,1,.14-.16,3.05,3.05,0,0,1,.15-.35l.13-.27a1.33,1.33,0,0,0,.26-.27,1.66,1.66,0,0,1,.26-.27.12.12,0,0,1,.08,0l.11,0,.26-.22a.72.72,0,0,1,.21-.12,1.05,1.05,0,0,1,.31,0,.36.36,0,0,0,.29-.13.48.48,0,0,0,.2,0l.2-.09.15-.08a.45.45,0,0,1,.24,0h.22a.77.77,0,0,0,.25,0l.15,0,.19,0a2.13,2.13,0,0,0,.39,0h.33l.17,0a.63.63,0,0,1,.19,0l.17,0,.15,0,.15,0h0a.3.3,0,0,1,.14.06l.14.07a.13.13,0,0,0,.1,0,.14.14,0,0,1,.09,0l.2.09.22.06a.18.18,0,0,1,.13.15.66.66,0,0,1,.28.14,1,1,0,0,0,.18.13l.13.14a.43.43,0,0,0,.15.15.59.59,0,0,0,0,.08.46.46,0,0,1,0,.1,1.51,1.51,0,0,1,.23.21.63.63,0,0,0,.28.19,1.17,1.17,0,0,0,.12.2.52.52,0,0,1,.09.24l.07.11.09.14s0,.05.06.09a.21.21,0,0,1,.06.1,3.9,3.9,0,0,0,.19.35l.09.12a.38.38,0,0,1,.09.15.59.59,0,0,1,0,.13.66.66,0,0,0,0,.14.48.48,0,0,1,0,.14l0,.09a.58.58,0,0,1,0,.26,1.13,1.13,0,0,0,0,.26,1.52,1.52,0,0,1,0,.21,1.49,1.49,0,0,0,0,.21,1.27,1.27,0,0,0,0,.22Zm-2.4-1.34a.12.12,0,0,0,0-.12.2.2,0,0,0-.09-.11.22.22,0,0,0-.09-.15s-.05-.05,0-.09a.47.47,0,0,0-.14-.08.12.12,0,0,1-.06-.14c-.06,0-.1,0-.11,0a.28.28,0,0,0-.06-.08.37.37,0,0,1-.15-.16.5.5,0,0,0-.1-.14.11.11,0,0,0-.11,0s-.06,0-.06-.08a.61.61,0,0,1-.41-.09l-.28-.25a.89.89,0,0,1-.33,0,2.16,2.16,0,0,0-.36,0,.41.41,0,0,0-.24-.07.69.69,0,0,1-.26-.05.09.09,0,0,1-.08-.07s0-.06-.09-.06a.31.31,0,0,1-.23,0,.61.61,0,0,0-.24-.07.75.75,0,0,1-.28.11,2,2,0,0,0-.31.08.49.49,0,0,0-.18.16l-.15.17-.24.27c-.07.09-.15.18-.21.27a.26.26,0,0,1,0,.16.21.21,0,0,0,0,.14.43.43,0,0,0-.16.26c0,.12-.05.23-.07.35a1.21,1.21,0,0,0,.27,0l.31,0h.22a1.91,1.91,0,0,1,.44,0,1.9,1.9,0,0,0,.34,0,1.67,1.67,0,0,0,.32,0,.5.5,0,0,1,.3,0,.81.81,0,0,1,.42-.07l.4,0a.32.32,0,0,0,.15,0h0a5.22,5.22,0,0,1,1,0A3.1,3.1,0,0,0,38.16,17.06Z"/><path class="cls-2" d="M47,14.61a.47.47,0,0,0,0,.24.17.17,0,0,1,0,.1.3.3,0,0,1-.12.16.4.4,0,0,0-.15.1.43.43,0,0,0-.31,0l-.26.08H46a.66.66,0,0,0-.25.05.79.79,0,0,1-.22.07h-.15a.21.21,0,0,0-.15,0,.61.61,0,0,0,0,.33,1.09,1.09,0,0,1,0,.36,1.26,1.26,0,0,0,0,.43c0,.1,0,.2,0,.29a2.71,2.71,0,0,1,0,.29.54.54,0,0,0,.06.25.84.84,0,0,0-.06.24v.28a1.63,1.63,0,0,0,0,.54c0,.2,0,.38,0,.53s0,.15,0,.21a1.5,1.5,0,0,1,0,.2.37.37,0,0,0,0,.16.25.25,0,0,1,0,.07,2.4,2.4,0,0,0,0,.39,3.45,3.45,0,0,1,0,.45,1.28,1.28,0,0,1,0,.22.25.25,0,0,0,0,.12c0,.09,0,.18,0,.28a.36.36,0,0,1-.09.3.3.3,0,0,0,0,.1.36.36,0,0,1,0,.09.28.28,0,0,0,0,.2.58.58,0,0,1,0,.1.83.83,0,0,0,0,.31l0,.24a.82.82,0,0,1-.22.69L44.46,23A1.48,1.48,0,0,0,44,23l-.21,0a.5.5,0,0,1-.23,0,.4.4,0,0,0-.12,0,.15.15,0,0,1-.1,0,.12.12,0,0,1-.12,0,.24.24,0,0,0-.11-.06,1.68,1.68,0,0,1,0-.51c0-.2,0-.41,0-.63a.61.61,0,0,0,0-.15l0-.14a1,1,0,0,1,0-.24,2.26,2.26,0,0,0,0-.26.45.45,0,0,1,0-.11.23.23,0,0,0,0-.11.13.13,0,0,0,0-.08s0,0,0-.1a1.78,1.78,0,0,1,0-.41c0-.12.06-.24.08-.37a2.16,2.16,0,0,1,0-.29v-.16a.77.77,0,0,0-.06-.15.51.51,0,0,1,0-.17.28.28,0,0,1,0-.1.25.25,0,0,0,0-.12,4.16,4.16,0,0,1,0-.51,2.17,2.17,0,0,0,0-.44,1.42,1.42,0,0,1-.05-.3.58.58,0,0,0,0-.19,2,2,0,0,1,0-.25,1.43,1.43,0,0,1,0-.29.37.37,0,0,1,0-.11.25.25,0,0,0,0-.12.61.61,0,0,0,0-.15.4.4,0,0,1,0-.15,1.5,1.5,0,0,1,0-.29c0-.1,0-.19,0-.28l0-.11a.52.52,0,0,1,0-.11.85.85,0,0,1,0-.32.61.61,0,0,0,0-.3,4.57,4.57,0,0,0-.53.13l-.13,0a.51.51,0,0,0-.14,0l-.22.06a.15.15,0,0,1-.18,0A.66.66,0,0,1,41.6,15a.3.3,0,0,1,0-.22,1.14,1.14,0,0,1,.15-.17s0-.08,0-.1a.23.23,0,0,0,.05-.12.91.91,0,0,0,0-.17.47.47,0,0,1,0-.2,1,1,0,0,1,.08-.18.41.41,0,0,0,.07-.17.44.44,0,0,0,0-.23.49.49,0,0,1,0-.24c0-.19.18-.26.42-.22a.77.77,0,0,0,.19,0,.19.19,0,0,1,.12.1.29.29,0,0,1,.22,0,.41.41,0,0,0,.21.05.59.59,0,0,0,.1-.41,4.68,4.68,0,0,1,0-.53.45.45,0,0,0,0-.22l0-.13a1.22,1.22,0,0,1,0-.47s0-.07,0-.11a.45.45,0,0,0,0-.11.47.47,0,0,0-.05-.24.61.61,0,0,0,0-.15l-.05-.08,0-.06a.14.14,0,0,1,0-.09c.07-.08.13-.12.16-.11h.14l.22,0a.54.54,0,0,1,.25,0,.62.62,0,0,1,.23,0l.19,0,.12,0a.19.19,0,0,1,.1-.05.14.14,0,0,0,.13,0,.1.1,0,0,1,.12.05l.11.14a.05.05,0,0,1,0,.06A1.41,1.41,0,0,1,45,11l0,.43a.47.47,0,0,1,0,.16v.16a.42.42,0,0,1,0,.14.54.54,0,0,0,0,.11.58.58,0,0,1,0,.23.18.18,0,0,0,0,.11,1.08,1.08,0,0,0,0,.21q0,.09-.09.21a.32.32,0,0,1,0,.19l0,.21a.57.57,0,0,0,0,.12v.12a.4.4,0,0,1,0,.15.19.19,0,0,0,0,.15.39.39,0,0,0,.24-.05.54.54,0,0,1,.2-.1.47.47,0,0,1,.21,0,.3.3,0,0,0,.21-.07.15.15,0,0,0,.18,0,.1.1,0,0,1,.17,0,.5.5,0,0,1,.28-.15.65.65,0,0,1,.34,0,.66.66,0,0,0,.1.17l0,.08a.14.14,0,0,1,0,.09.28.28,0,0,0,0,.13,1.19,1.19,0,0,1,0,.17.25.25,0,0,0,0,.08.79.79,0,0,0,0,.22c0,.07,0,.13.05.18Z"/><path class="cls-2" d="M66.25,22.48a.16.16,0,0,1-.15.12.16.16,0,0,0-.15.12.41.41,0,0,1-.22-.11.32.32,0,0,1-.13.1l-.08,0a.55.55,0,0,0-.21.14l-.1-.05a.22.22,0,0,0-.11-.05l-.27,0-.15,0a.88.88,0,0,1-.24,0,.61.61,0,0,0-.23,0,.29.29,0,0,1-.16,0,.17.17,0,0,0-.15.06s-.09,0-.1,0,0,0-.1,0l-.19.08-.23.05a.21.21,0,0,1-.14-.12A.4.4,0,0,0,63,22.7a.33.33,0,0,0,0-.17.21.21,0,0,1,0-.12.12.12,0,0,1,0-.1,1,1,0,0,0,0-.15,1,1,0,0,1-.08-.22.71.71,0,0,0-.09-.26.21.21,0,0,1,0-.19.3.3,0,0,1-.1-.19c0-.07,0-.17-.07-.28s-.05-.1,0-.13a.17.17,0,0,0,0-.07.75.75,0,0,1-.09-.25.66.66,0,0,0,0-.14,1.43,1.43,0,0,1-.1-.25.78.78,0,0,0-.05-.18l-.07-.09-.07-.11a.4.4,0,0,1,0-.15.35.35,0,0,0,0-.14.34.34,0,0,1-.06-.12.93.93,0,0,1,0-.1,1.3,1.3,0,0,1,0-.21.18.18,0,0,0-.27-.19l-.19.05H61.3l-.21,0a.25.25,0,0,1-.19,0l-.11,0-.13,0a.34.34,0,0,0-.17,0h-.23L60,19a.3.3,0,0,1-.19,0,1,1,0,0,1-.25,0h-.12a1,1,0,0,0-.25,0,.72.72,0,0,1-.25,0,.33.33,0,0,1-.12,0,.14.14,0,0,0-.1.07.8.8,0,0,0-.31,0,.78.78,0,0,1-.31,0,.3.3,0,0,0-.13.24.84.84,0,0,1,0,.27.64.64,0,0,1-.1.24l-.13.23c0,.05,0,.11-.07.17a1.19,1.19,0,0,1-.08.16c0,.06,0,.1,0,.12a.43.43,0,0,0,0,.07l0,0a.44.44,0,0,1-.05.18.13.13,0,0,0,0,.07.32.32,0,0,0,0,.16.4.4,0,0,1,0,.15.72.72,0,0,1-.09.2.35.35,0,0,0-.06.21.58.58,0,0,0-.2.28.61.61,0,0,1-.2.29,1.23,1.23,0,0,1-.07.29,2,2,0,0,1-.11.26,1.22,1.22,0,0,0-.09.27,1.55,1.55,0,0,0,0,.33l-.17.09a.21.21,0,0,1-.2,0,1.14,1.14,0,0,0-.26-.12.93.93,0,0,1-.2-.08l-.18,0h-.23a.46.46,0,0,1-.17,0l-.1,0h-.27a1.28,1.28,0,0,1-.39-.13,2,2,0,0,0-.35-.14.52.52,0,0,1,0-.14.65.65,0,0,1,0-.15.17.17,0,0,1,.08-.1s0-.05,0-.1.07-.18.11-.27l.13-.26a.66.66,0,0,1,.1-.21.27.27,0,0,1,.07-.08c0-.11.07-.19.09-.23l0-.09.05-.13a.51.51,0,0,1,.09-.14l.15-.2a.69.69,0,0,1,.1-.24l.08-.13a.77.77,0,0,0,.14-.21l.11-.24a1.33,1.33,0,0,0,.12-.16.75.75,0,0,0,.08-.18c0-.07,0-.12,0-.14a.09.09,0,0,0,0-.06c0-.06,0-.1,0-.12l0-.06a2.09,2.09,0,0,0,.14-.3A1.8,1.8,0,0,1,56,18.6a.72.72,0,0,1,.11-.15.22.22,0,0,0,.08-.18.26.26,0,0,0,.11-.14,1.51,1.51,0,0,1,.09-.18.38.38,0,0,1,.09-.15l.11-.15a1.42,1.42,0,0,1,.08-.18.56.56,0,0,1,.09-.17.8.8,0,0,1,.08-.16A.33.33,0,0,1,57,17a.23.23,0,0,1,0-.18l.08-.18.08-.12.09-.13.08-.17a.47.47,0,0,1,.11-.2l.06-.08a.12.12,0,0,0,0-.1.28.28,0,0,1,0-.09.38.38,0,0,0,.15-.16c0-.07.07-.14.12-.22a2.09,2.09,0,0,0,.1-.21,1,1,0,0,1,.13-.23.22.22,0,0,1,0-.14s.05-.09.07-.14l.06-.11a.24.24,0,0,1,.06-.11.87.87,0,0,0,.14-.27.79.79,0,0,1,.06-.22.4.4,0,0,1,.07-.13.36.36,0,0,0,.08-.12.69.69,0,0,0,.05-.13.14.14,0,0,1,.08-.1.82.82,0,0,1,.08-.29c0-.08.07-.16.11-.25a.63.63,0,0,1,.18-.24,1.23,1.23,0,0,0,0-.2.52.52,0,0,1,0-.18.34.34,0,0,1,.09-.14.44.44,0,0,0,.08-.11c0-.15.08-.27.11-.36l.09-.28a2.91,2.91,0,0,0,.1-.28c0-.1.07-.2.1-.29l.1-.2c0-.06,0-.12.07-.19a.51.51,0,0,0,.25-.23,1.51,1.51,0,0,0,.14-.34.26.26,0,0,1,.14,0h.09c.11,0,.18.06.2.11a.56.56,0,0,0,.1.15,1.29,1.29,0,0,1,.13.18c0,.05,0,.1.07.14a1,1,0,0,1,.15.19,1.2,1.2,0,0,1,.11.23l.06.15c0,.06,0,.12.07.17l.09.19.1.21c0,.09.06.2.1.31s.08.24.11.35a.42.42,0,0,1,0,.15.35.35,0,0,0,0,.13,1,1,0,0,0,.06.14.93.93,0,0,0,.05.1l.15.33.16.36a.31.31,0,0,1,.05.1.67.67,0,0,1,.06.12.16.16,0,0,1,.06.08l.06.1a.67.67,0,0,1,.06.12.42.42,0,0,0,.08.12l.09.17a1.27,1.27,0,0,1,.07.21,2.5,2.5,0,0,1,.08.25,1.67,1.67,0,0,1,.06.29,3.68,3.68,0,0,1,.16.34c.05.13.1.26.14.38l.09.09.09.11a.54.54,0,0,0,.07.12l.05.06a1.82,1.82,0,0,1,.11.3c0,.09,0,.18.08.28l.08.16a.46.46,0,0,1,.05.2,1.17,1.17,0,0,1,.15.25c0,.07.06.13.09.19l.11.19a.54.54,0,0,1,.07.13,1.14,1.14,0,0,1,.18.32.34.34,0,0,1,0,.14.28.28,0,0,0,0,.13,1.43,1.43,0,0,0,.08.22,1.84,1.84,0,0,1,.09.25.44.44,0,0,1,.12.15c0,.05,0,.11.08.16l.07.15.06.17a1.74,1.74,0,0,0,.14.27,1,1,0,0,1,.11.27,1.3,1.3,0,0,0,.08.17l.08.17a.24.24,0,0,1,0,.14.11.11,0,0,0,0,.11,1.77,1.77,0,0,0,.1.22c.06.22.14.45.23.7s.12.29.19.44A1.52,1.52,0,0,1,66.25,22.48Zm-4.51-5.05a.2.2,0,0,0,0-.13.83.83,0,0,1,0-.15.78.78,0,0,1,0-.16.83.83,0,0,0,0-.15,1,1,0,0,0-.08-.11.18.18,0,0,1-.06-.09c0-.16,0-.29-.06-.41s0-.24-.06-.36a.55.55,0,0,1-.13-.17.77.77,0,0,1-.13-.22c0-.07,0-.13,0-.18a1,1,0,0,0-.07-.23L61,14.9a1.29,1.29,0,0,1,0-.24,1.46,1.46,0,0,0-.05-.2l0-.09,0-.09c0-.07,0-.14-.07-.22a.19.19,0,0,0-.12-.15.24.24,0,0,0-.18.2.53.53,0,0,1-.12.25l-.08.1a1.46,1.46,0,0,1-.06.26l-.06.16s0,.11-.06.15a.31.31,0,0,1-.06.13l-.05.1,0,.09-.27.5c-.07.13-.14.28-.2.42a1.42,1.42,0,0,0-.05.16,1.42,1.42,0,0,1,0,.16l-.08.12a.43.43,0,0,0-.09.13.14.14,0,0,0,0,.09.45.45,0,0,1,0,.11.93.93,0,0,0-.14.3l-.06.19a.83.83,0,0,0,.37.08h.38l.66,0c.22,0,.41,0,.57-.08a1.48,1.48,0,0,1,.42,0A.68.68,0,0,0,61.74,17.43Z"/><path class="cls-2" d="M81.17,11a.88.88,0,0,1,0,.24.68.68,0,0,0,0,.26.53.53,0,0,0,0,.14.54.54,0,0,1,0,.18.88.88,0,0,1,0,.16.24.24,0,0,0,0,.12.56.56,0,0,0,0,.2.21.21,0,0,1,0,.19.1.1,0,0,1-.07.11l-.16.06-.2.06a.21.21,0,0,1-.17,0,.26.26,0,0,0-.17-.12.72.72,0,0,1-.24,0h-.26a.65.65,0,0,0-.24,0,1.23,1.23,0,0,1-.27,0h-.18a.63.63,0,0,0-.3,0,.5.5,0,0,1-.32,0,.55.55,0,0,0-.23,0l-.17,0a.21.21,0,0,1-.14,0l-.13,0a1.12,1.12,0,0,0-.32,0,.88.88,0,0,1-.37,0,.26.26,0,0,0-.18,0l-.09,0-.25,0a.33.33,0,0,0-.15,0,2.32,2.32,0,0,0,0,.24.26.26,0,0,1,0,.23,2,2,0,0,1,.16.76,6.26,6.26,0,0,0,.08.84l.13.05L77,15a.54.54,0,0,0,.2,0,.84.84,0,0,1,.24-.06.44.44,0,0,1,.18,0l.09,0a.45.45,0,0,0,.16,0,.29.29,0,0,1,.16,0c.32,0,.66,0,1,0a4,4,0,0,1,.9,0l.16,0,.15,0a.42.42,0,0,0,.22,0,.25.25,0,0,1,.18.05.62.62,0,0,1,.07.59.32.32,0,0,0,0,.22.87.87,0,0,1,0,.28,2.51,2.51,0,0,1,0,.31,1.51,1.51,0,0,0,0,.28.81.81,0,0,0,0,.16.24.24,0,0,1,0,.12.64.64,0,0,1-.08.2.33.33,0,0,1-.1.12l-.11,0h-.11a.57.57,0,0,1-.23,0,.54.54,0,0,0-.22,0,1.11,1.11,0,0,1-.26,0h-.21a.34.34,0,0,0-.15,0,.4.4,0,0,1-.15,0l-.13,0-.14,0h-.57c-.1-.07-.16-.08-.18-.05s0,0-.11,0a.06.06,0,0,1-.09,0,.08.08,0,0,0-.09,0,.16.16,0,0,0-.1,0,.12.12,0,0,1-.09,0,.45.45,0,0,1-.16,0,.29.29,0,0,0-.16,0h-.57a1.25,1.25,0,0,0-.06.4.9.9,0,0,0,.08.4c0,.06,0,.1,0,.12l-.06.08,0,.09a.25.25,0,0,1,0,.1.39.39,0,0,0,0,.18.28.28,0,0,1,0,.09l-.05.11a.22.22,0,0,0,0,.1.38.38,0,0,0,.1.29c-.06,0-.07.09,0,.13a.17.17,0,0,1,0,.14,2.54,2.54,0,0,1,0,.29,1.41,1.41,0,0,0,0,.28.52.52,0,0,0,0,.11.24.24,0,0,1,0,.12.21.21,0,0,1,0,.14.89.89,0,0,0,0,.13.53.53,0,0,0,0,.22c0,.08,0,.16,0,.24a.61.61,0,0,1,0,.19.48.48,0,0,0,0,.17c0,.06,0,.1,0,.11l-.08.08a1.1,1.1,0,0,1,.1.32.2.2,0,0,1,0,.11.62.62,0,0,0,0,.1.41.41,0,0,0,0,.22.5.5,0,0,0,.09.24.25.25,0,0,1,0,.38.35.35,0,0,1-.18.12.24.24,0,0,1-.12,0,.55.55,0,0,1-.13,0,.7.7,0,0,1-.17-.09.56.56,0,0,0-.22-.09l-.21,0h-.17a.48.48,0,0,0-.23,0h-.11l-.18,0a.31.31,0,0,0-.19,0l-.14-.15a.64.64,0,0,1-.13-.17c0-.1,0-.17.09-.2l.13-.1a.11.11,0,0,0-.06-.11.11.11,0,0,1-.06-.11.83.83,0,0,0,0-.35,1,1,0,0,1,0-.34.44.44,0,0,1,0-.13.34.34,0,0,0,0-.1,1.61,1.61,0,0,1,0-.25l0-.13s0-.09,0-.14a2,2,0,0,1,0-.35l0-.21a.45.45,0,0,0,0-.16.17.17,0,0,1,.06-.16.22.22,0,0,1,0-.25.67.67,0,0,0,.08-.25.4.4,0,0,1,0-.17.14.14,0,0,0,0-.06.25.25,0,0,0,0-.21.68.68,0,0,1,0-.21.88.88,0,0,1,0-.28l.06-.28a.46.46,0,0,1,0-.23v-.29a.71.71,0,0,0,0-.21.57.57,0,0,1,0-.12.4.4,0,0,1,0-.15.78.78,0,0,0,0-.14.18.18,0,0,0,0-.06s0-.05,0-.07v-.1a1.38,1.38,0,0,0,0-.25l-.06-.16a1.64,1.64,0,0,0-.07-.25.64.64,0,0,1,0-.15.62.62,0,0,0,0-.12.25.25,0,0,1,0-.08.23.23,0,0,1,0-.14.34.34,0,0,0,.06-.15.74.74,0,0,0,0-.26v-.29a.45.45,0,0,0,0-.17v-.06c0-.12,0-.22,0-.3a2.53,2.53,0,0,0,0-.27.9.9,0,0,0,0-.28.89.89,0,0,1,0-.33v-.15a.42.42,0,0,1,0-.18.18.18,0,0,1,0-.1.25.25,0,0,0,0-.09.33.33,0,0,0,0-.15.81.81,0,0,0,0-.16.33.33,0,0,1,0-.14.12.12,0,0,1,.08-.1.58.58,0,0,1-.09-.25,2.64,2.64,0,0,1,0-.29l0-.3a1,1,0,0,0-.08-.29,2.14,2.14,0,0,0-.13-.19.28.28,0,0,1-.07-.19.2.2,0,0,1,0-.15.26.26,0,0,0,.06-.14.18.18,0,0,0,.16,0,.22.22,0,0,1,.18,0,.74.74,0,0,0,.35,0,.15.15,0,0,1,.19.08s.09,0,.11,0a.1.1,0,0,1,.1-.05,1.93,1.93,0,0,1,.48,0,2.57,2.57,0,0,0,.48,0l.13,0,.12,0a4.14,4.14,0,0,1,.61,0,3.72,3.72,0,0,0,.58,0l.13,0,.13,0h.35a1.82,1.82,0,0,0,.33,0h.22l.2,0a1,1,0,0,1,.45,0l.34,0h.56a1.86,1.86,0,0,1,.55.09.72.72,0,0,1,0,.33l.06.17C81.14,10.92,81.16,11,81.17,11Z"/><path class="cls-2" d="M88.67,15.55a.38.38,0,0,1-.12.12l-.06,0c-.14.08-.21.11-.22.1a.22.22,0,0,1-.19-.13.37.37,0,0,0-.18-.19.25.25,0,0,1-.17,0h-.17l-.15.05-.15.07-.32.12-.16.1a.6.6,0,0,0-.11.12.6.6,0,0,1-.11.14,1.34,1.34,0,0,1-.23.16,1.92,1.92,0,0,0-.21.16.5.5,0,0,0-.05.13.27.27,0,0,1-.07.14c-.08.07-.12.11-.13.14l0,.05a.21.21,0,0,0,0,.13.11.11,0,0,1,0,.08l-.07.11a.22.22,0,0,0,0,.18.49.49,0,0,0-.1.19.31.31,0,0,1,0,.1.28.28,0,0,0-.1.14.25.25,0,0,1,0,.11.45.45,0,0,0-.08.22.38.38,0,0,1,0,.15.86.86,0,0,0-.05.27,1.1,1.1,0,0,1,0,.18,1.89,1.89,0,0,1,0,.23c0,.07,0,.15-.07.24a.54.54,0,0,0,0,.18.46.46,0,0,1,0,.2.23.23,0,0,1,0,.11.24.24,0,0,0,0,.13.52.52,0,0,0,0,.25.2.2,0,0,1-.08.22.91.91,0,0,1,.06.29.38.38,0,0,1-.08.28,1.29,1.29,0,0,1,.06.4l0,.45c0,.15,0,.3,0,.45a1.53,1.53,0,0,0,0,.43.16.16,0,0,0,.15.13.32.32,0,0,1,.2.07.18.18,0,0,0,0,.09.32.32,0,0,1,.08.13.29.29,0,0,1-.07.23.37.37,0,0,1-.16.15.14.14,0,0,1-.14,0,.47.47,0,0,0-.2,0l-.15.06-.17.08-.32.09-.37.07-.17,0-.16,0-.2.08a.32.32,0,0,1-.19,0,.29.29,0,0,1-.23-.18.74.74,0,0,1-.07-.34.45.45,0,0,1,0-.16A.29.29,0,0,0,83,23a.39.39,0,0,0,0-.15.94.94,0,0,1,0-.16,1.7,1.7,0,0,1,0-.45c0-.15,0-.3,0-.46a.53.53,0,0,1,0-.13.43.43,0,0,0,0-.11l0-.12a.27.27,0,0,1,0-.13c0-.09,0-.16-.05-.23s0-.15,0-.25,0-.08,0-.12a.53.53,0,0,1,0-.12,1.25,1.25,0,0,1,0-.21c0-.06,0-.12.05-.19a.79.79,0,0,1,0-.34c0-.1,0-.19,0-.27a1.77,1.77,0,0,0,0-.2,1.18,1.18,0,0,1,0-.2.57.57,0,0,1,0-.12c0-.05,0-.08,0-.1a1.34,1.34,0,0,1-.06-.35c0-.09,0-.16,0-.22a.67.67,0,0,1,0-.26.75.75,0,0,0,0-.16,1,1,0,0,0,0-.34,1.3,1.3,0,0,1,0-.34,1.1,1.1,0,0,1,.06-.26.66.66,0,0,0,0-.25.45.45,0,0,0,0-.11v-.11a.34.34,0,0,1,0-.1.52.52,0,0,0,0-.11l0-.1a.22.22,0,0,1,0-.11.41.41,0,0,1,0-.22,1,1,0,0,0,0-.25.86.86,0,0,0,0-.16,1,1,0,0,1,0-.17.34.34,0,0,1,0-.09.16.16,0,0,0,0-.1.85.85,0,0,1,0-.27.82.82,0,0,0,0-.21,1.81,1.81,0,0,0,0-.25.45.45,0,0,1,0-.25.2.2,0,0,0,0-.15.83.83,0,0,1-.08-.12.36.36,0,0,0,0-.27.5.5,0,0,1,0-.27.3.3,0,0,1,.26-.12.23.23,0,0,1,.19.08.34.34,0,0,0,.12.12.77.77,0,0,0,.33,0,1.72,1.72,0,0,1,.34,0l.19,0,.18,0a.62.62,0,0,0,.24-.08.42.42,0,0,1,.31,0,.11.11,0,0,1,.07.09.53.53,0,0,0,.06.14.41.41,0,0,0,0,.16.14.14,0,0,1,0,.06c0,.1-.05.2-.07.29a.52.52,0,0,0,0,.3.21.21,0,0,0,.16-.06l.13-.12.07-.08.08-.07c.09-.08.15-.15.19-.19a.47.47,0,0,1,.11-.1.5.5,0,0,1,.12-.08.21.21,0,0,0,.1-.11.94.94,0,0,0,.3-.12.4.4,0,0,1,.34,0,.69.69,0,0,1,.26-.14.25.25,0,0,1,.27,0,1.37,1.37,0,0,0,.56-.1.69.69,0,0,1,.44-.05.23.23,0,0,1,.12.06l.11.08.11,0,.11.05a.5.5,0,0,1,.07.39c0,.14,0,.29,0,.43a1.44,1.44,0,0,1,0,.3.65.65,0,0,0,0,.19,2.48,2.48,0,0,0,0,.38C88.67,15.28,88.67,15.42,88.67,15.55Z"/><path class="cls-2" d="M99.21,18.4a1.6,1.6,0,0,0,0,.32.33.33,0,0,1,0,.19.27.27,0,0,1-.13.1.18.18,0,0,0-.12.1.83.83,0,0,0-.22,0l-.2,0a.48.48,0,0,0-.33-.08.55.55,0,0,1-.35-.08.41.41,0,0,1-.18.05,1.63,1.63,0,0,1-.49,0l-.53-.08-.39,0h-.35l-.27,0a1,1,0,0,1-.25-.06.47.47,0,0,0-.24-.05.49.49,0,0,0-.21,0,.76.76,0,0,1-.21,0l-.27,0a.51.51,0,0,1-.18,0H94a.19.19,0,0,1-.19-.08l-.12.07h-.19l-.12,0h-.08a.45.45,0,0,1-.19,0,.12.12,0,0,0-.14.05s-.06,0-.12,0a.14.14,0,0,1-.12,0,.68.68,0,0,0-.35,0,1.27,1.27,0,0,1-.28,0,1.18,1.18,0,0,1-.27,0,.54.54,0,0,0-.31,0,.7.7,0,0,0-.06.37.7.7,0,0,0,.13.36.21.21,0,0,1,0,.14.44.44,0,0,0,0,.13,1.89,1.89,0,0,0,.22.27.76.76,0,0,1,.15.17,1.16,1.16,0,0,0,.2.25,2,2,0,0,1,.22.27.25.25,0,0,0,.09.13.85.85,0,0,1,.11.14.5.5,0,0,1,.22.1l.23.15a1.39,1.39,0,0,1,.26.18.62.62,0,0,0,.19.12l.14,0a.12.12,0,0,1,.1,0,.58.58,0,0,1,.18.11.4.4,0,0,0,.22.1,1.17,1.17,0,0,1,.27,0l.15,0a.62.62,0,0,0,.4-.1H95l.13,0a.58.58,0,0,1,.23-.1.28.28,0,0,0,.13,0,.16.16,0,0,1,.09-.06s0,0,.07,0a.75.75,0,0,0,.18-.08l.16-.12a1.07,1.07,0,0,0,.22-.15.86.86,0,0,0,.29-.28,1.46,1.46,0,0,1,.28-.32,1.39,1.39,0,0,1,.06-.34A1.23,1.23,0,0,1,97,20a.78.78,0,0,1,0-.29.7.7,0,0,1,.11-.21l.15,0a.37.37,0,0,1,.17,0l.09.06.13.06.11,0,.17,0a.41.41,0,0,0,.17.05l.1,0a.45.45,0,0,0,.24.05.33.33,0,0,1,.2,0,.91.91,0,0,1,.22.2.63.63,0,0,1-.12.37.72.72,0,0,0-.08.22.31.31,0,0,1,0,.13.22.22,0,0,1,0,.08.31.31,0,0,0-.05.1,1.94,1.94,0,0,0,0,.2.82.82,0,0,1-.06.19l-.22.24a.48.48,0,0,1-.15.11.1.1,0,0,1,0,.13l-.1.07a.45.45,0,0,1-.14.19l-.21.15a1.31,1.31,0,0,1-.28.2l-.28.17-.25.21a.42.42,0,0,1-.16.09l-.13.06-.06,0a.37.37,0,0,1-.18,0,.64.64,0,0,0-.2,0,1.32,1.32,0,0,1-.32.09l-.27.06a.65.65,0,0,1-.15.05.66.66,0,0,1-.2,0,.42.42,0,0,0-.26,0,.12.12,0,0,1-.16,0l-.31.07a.63.63,0,0,1-.23,0l-.1,0-.1,0a5,5,0,0,0-.51-.07,1.21,1.21,0,0,1-.35-.07l-.1,0a.09.09,0,0,1-.08-.06.46.46,0,0,1-.31,0,1.14,1.14,0,0,1-.23-.16l-.09,0-.09,0L92,22.66a.39.39,0,0,1-.18-.2.28.28,0,0,1-.2-.06.92.92,0,0,0-.14-.14.4.4,0,0,1-.24-.07A.62.62,0,0,1,91,22a2.27,2.27,0,0,0-.25-.27,3.72,3.72,0,0,1-.29-.31.49.49,0,0,0-.25-.17.32.32,0,0,0-.1-.17L90,20.94l-.12-.22a.27.27,0,0,0-.07-.08c0-.1,0-.18-.06-.27a1.58,1.58,0,0,0-.06-.26,1.38,1.38,0,0,1,0-.26,1,1,0,0,0,0-.17,1,1,0,0,0,0-.1l0-.1a.49.49,0,0,1,0-.17,1.28,1.28,0,0,0,0-.19.83.83,0,0,0,0-.15.86.86,0,0,1,0-.16,2.18,2.18,0,0,1,0-.25,1.1,1.1,0,0,0,0-.26.34.34,0,0,0,0-.09s0-.07,0-.09l.06-.18a.7.7,0,0,0,.06-.17.57.57,0,0,1,0-.22c0-.05,0-.08,0-.1a.19.19,0,0,0,0-.1.63.63,0,0,0,0-.09.37.37,0,0,0,0-.11.53.53,0,0,1,0-.16.77.77,0,0,1,.11-.16s0,0,0,0a.91.91,0,0,1,0-.16l0-.07.11-.2,0-.07a.63.63,0,0,1,0-.15l0-.05a.74.74,0,0,0,0-.18.58.58,0,0,1,0-.16l.08-.17a.42.42,0,0,1,.13-.16l.15-.35.14-.27a1.33,1.33,0,0,0,.26-.27,1.33,1.33,0,0,1,.26-.27.13.13,0,0,1,.07,0l.11,0,.27-.22a.82.82,0,0,1,.2-.12,1.11,1.11,0,0,1,.31,0,.37.37,0,0,0,.3-.13.48.48,0,0,0,.2,0l.2-.09.15-.08a.45.45,0,0,1,.24,0h.22a.77.77,0,0,0,.25,0l.15,0,.18,0a2.31,2.31,0,0,0,.4,0h.32l.18,0a.63.63,0,0,1,.19,0l.16,0,.16,0,.14,0h0a.35.35,0,0,1,.14.06l.14.07a.1.1,0,0,0,.09,0,.17.17,0,0,1,.1,0l.2.09.22.06a.2.2,0,0,1,.13.15.81.81,0,0,1,.28.14l.17.13a.92.92,0,0,1,.14.14.43.43,0,0,0,.15.15.2.2,0,0,0,0,.08.23.23,0,0,1,0,.1,1.21,1.21,0,0,1,.24.21.58.58,0,0,0,.28.19,1.17,1.17,0,0,0,.12.2.52.52,0,0,1,.08.24,1,1,0,0,1,.08.11l.09.14.06.09a.21.21,0,0,1,.06.1,3.84,3.84,0,0,0,.18.35l.1.12a.38.38,0,0,1,.09.15.59.59,0,0,1,0,.13.66.66,0,0,0,0,.14A1.21,1.21,0,0,1,99,17a.19.19,0,0,0,0,.09.77.77,0,0,1,0,.26,1.13,1.13,0,0,0,0,.26l0,.21a1.49,1.49,0,0,0,0,.21,1.27,1.27,0,0,0,0,.22Zm-2.4-1.34a.12.12,0,0,0,0-.12.2.2,0,0,0-.09-.11.26.26,0,0,0-.1-.15s0-.05,0-.09a.47.47,0,0,0-.14-.08.13.13,0,0,1-.07-.14s-.09,0-.1,0a.28.28,0,0,0-.06-.08.37.37,0,0,1-.15-.16A.5.5,0,0,0,96,16a.11.11,0,0,0-.11,0s-.06,0-.06-.08a.61.61,0,0,1-.41-.09l-.28-.25a.93.93,0,0,1-.34,0,2,2,0,0,0-.35,0,.41.41,0,0,0-.24-.07.69.69,0,0,1-.26-.05.09.09,0,0,1-.08-.07s0-.06-.09-.06a.31.31,0,0,1-.23,0,.61.61,0,0,0-.24-.07.79.79,0,0,1-.29.11,1.67,1.67,0,0,0-.3.08.49.49,0,0,0-.18.16l-.15.17-.24.27-.22.27a.27.27,0,0,1,0,.16.16.16,0,0,0,0,.14.43.43,0,0,0-.16.26c0,.12,0,.23-.07.35a1.12,1.12,0,0,0,.26,0l.32,0h.22a1.85,1.85,0,0,1,.44,0,10.93,10.93,0,0,0,.66,0,.47.47,0,0,1,.29,0A.87.87,0,0,1,94.3,17l.4,0a.32.32,0,0,0,.15,0h0a5.25,5.25,0,0,1,1,0A3.1,3.1,0,0,0,96.81,17.06Z"/><path class="cls-2" d="M110,18.4a.81.81,0,0,0,0,.32.28.28,0,0,1,0,.19.2.2,0,0,1-.13.1.18.18,0,0,0-.12.1.78.78,0,0,0-.22,0l-.2,0A.48.48,0,0,0,109,19a.52.52,0,0,1-.34-.08.49.49,0,0,1-.19.05,1.64,1.64,0,0,1-.49,0l-.53-.08-.39,0h-.35l-.27,0a.84.84,0,0,1-.24-.06.47.47,0,0,0-.24-.05.5.5,0,0,0-.21,0l-.21,0-.27,0a.58.58,0,0,1-.19,0h-.31a.2.2,0,0,1-.19-.08l-.12.07h-.18l-.13,0H104a.5.5,0,0,1-.2,0s-.09,0-.14.05-.06,0-.12,0a.12.12,0,0,1-.11,0,.72.72,0,0,0-.36,0,1.27,1.27,0,0,1-.28,0,1.09,1.09,0,0,1-.26,0,.54.54,0,0,0-.31,0,.55.55,0,0,0-.06.37.7.7,0,0,0,.13.36.31.31,0,0,1,0,.14.25.25,0,0,0,0,.13,1.82,1.82,0,0,0,.23.27.7.7,0,0,1,.14.17,1.57,1.57,0,0,0,.2.25,2,2,0,0,1,.22.27.25.25,0,0,0,.09.13.53.53,0,0,1,.11.14.54.54,0,0,1,.23.1l.23.15a1.85,1.85,0,0,1,.26.18.52.52,0,0,0,.19.12l.13,0a.11.11,0,0,1,.1,0,.77.77,0,0,1,.19.11.37.37,0,0,0,.21.1,1.16,1.16,0,0,1,.27,0l.15,0a.66.66,0,0,0,.41-.1h.13l.14,0a.55.55,0,0,1,.22-.1.25.25,0,0,0,.13,0,.16.16,0,0,1,.09-.06l.08,0,.17-.08a.83.83,0,0,0,.16-.12,1.07,1.07,0,0,0,.22-.15.86.86,0,0,0,.29-.28,1.78,1.78,0,0,1,.28-.32,1,1,0,0,1,.07-.34,1.19,1.19,0,0,1,.13-.25,1.06,1.06,0,0,1,0-.29,1,1,0,0,1,.11-.21l.15,0a.36.36,0,0,1,.17,0l.1.06a.33.33,0,0,0,.12.06l.11,0,.18,0a.34.34,0,0,0,.16.05l.1,0a.49.49,0,0,0,.25.05.31.31,0,0,1,.19,0c.12.09.2.15.22.2a.63.63,0,0,1-.12.37.43.43,0,0,0-.07.22.72.72,0,0,1,0,.13.22.22,0,0,1,0,.08.19.19,0,0,0-.05.1.84.84,0,0,0,0,.2.89.89,0,0,1-.07.19l-.21.24a.42.42,0,0,1-.16.11.1.1,0,0,1,0,.13.29.29,0,0,0-.1.07.58.58,0,0,1-.15.19l-.21.15a1.56,1.56,0,0,1-.27.2l-.28.17-.25.21a.46.46,0,0,1-.17.09l-.13.06a.06.06,0,0,1,0,0,.41.41,0,0,1-.19,0,.69.69,0,0,0-.2,0,1.21,1.21,0,0,1-.32.09l-.27.06a.44.44,0,0,1-.15.05.65.65,0,0,1-.2,0,.38.38,0,0,0-.25,0,.14.14,0,0,1-.17,0l-.31.07a.62.62,0,0,1-.23,0l-.1,0-.1,0a4.62,4.62,0,0,0-.51-.07,1.14,1.14,0,0,1-.34-.07l-.1,0a.1.1,0,0,1-.09-.06.47.47,0,0,1-.31,0,1,1,0,0,1-.22-.16l-.1,0-.09,0-.23-.11a.41.41,0,0,1-.19-.2.25.25,0,0,1-.19-.06,1,1,0,0,0-.15-.14.4.4,0,0,1-.24-.07.77.77,0,0,1-.18-.18,1.66,1.66,0,0,0-.25-.27,2.36,2.36,0,0,1-.28-.31.53.53,0,0,0-.25-.17.55.55,0,0,0-.1-.17l-.14-.15a1,1,0,0,0-.12-.22l-.06-.08-.06-.27c0-.08,0-.16-.06-.26a1.38,1.38,0,0,1,0-.26,1,1,0,0,0,0-.17.3.3,0,0,0,0-.1l0-.1a.49.49,0,0,1,0-.17.62.62,0,0,0,0-.19l0-.15a.88.88,0,0,1,0-.16,2.29,2.29,0,0,1,0-.25,2.11,2.11,0,0,0,0-.26s0-.05,0-.09a.34.34,0,0,1,0-.09.64.64,0,0,1,.06-.18l.06-.17a.34.34,0,0,1,0-.22c0-.05,0-.08,0-.1a.31.31,0,0,0,0-.1.94.94,0,0,1,0-.09.36.36,0,0,0,0-.11.5.5,0,0,1,0-.16l.11-.16,0,0,0-.16a.18.18,0,0,1,0-.07.92.92,0,0,1,.11-.2.43.43,0,0,1,0-.07.43.43,0,0,1,0-.15l0-.05c0-.07,0-.13,0-.18a.53.53,0,0,1,0-.16l.08-.17a.44.44,0,0,1,.14-.16,3.05,3.05,0,0,1,.15-.35l.13-.27a1.33,1.33,0,0,0,.26-.27,1.66,1.66,0,0,1,.26-.27s0,0,.08,0l.11,0,.27-.22a.56.56,0,0,1,.2-.12,1.11,1.11,0,0,1,.31,0,.35.35,0,0,0,.29-.13.45.45,0,0,0,.2,0l.21-.09.15-.08a.4.4,0,0,1,.23,0h.23a.75.75,0,0,0,.24,0l.15,0,.19,0a2.13,2.13,0,0,0,.39,0h.33l.17,0a.69.69,0,0,1,.2,0l.16,0,.16,0,.14,0h0a.3.3,0,0,1,.14.06.52.52,0,0,0,.15.07.1.1,0,0,0,.09,0,.12.12,0,0,1,.09,0,.78.78,0,0,1,.2.09l.22.06a.18.18,0,0,1,.13.15.66.66,0,0,1,.28.14,1,1,0,0,0,.18.13.89.89,0,0,1,.13.14.71.71,0,0,0,.15.15.22.22,0,0,0,0,.08.51.51,0,0,1,0,.1,1.15,1.15,0,0,1,.23.21.61.61,0,0,0,.29.19.75.75,0,0,0,.11.2.43.43,0,0,1,.09.24l.07.11.1.14,0,.09a.21.21,0,0,1,.06.1,3.9,3.9,0,0,0,.19.35l.09.12a.38.38,0,0,1,.09.15.59.59,0,0,1,0,.13.34.34,0,0,0,0,.14c0,.05,0,.1,0,.14l0,.09a.78.78,0,0,1,0,.26,1.13,1.13,0,0,0,0,.26,1.49,1.49,0,0,1,0,.21l0,.21a1.41,1.41,0,0,0,0,.22Zm-2.41-1.34s0-.06,0-.12a.14.14,0,0,0-.09-.11.22.22,0,0,0-.09-.15s0-.05,0-.09a.41.41,0,0,0-.13-.08.12.12,0,0,1-.07-.14c-.06,0-.09,0-.11,0a.28.28,0,0,0-.06-.08.37.37,0,0,1-.15-.16.36.36,0,0,0-.1-.14.11.11,0,0,0-.11,0s-.06,0-.06-.08a.63.63,0,0,1-.41-.09l-.28-.25a.89.89,0,0,1-.33,0,2.16,2.16,0,0,0-.36,0,.39.39,0,0,0-.24-.07.69.69,0,0,1-.26-.05s-.07,0-.07-.07,0-.06-.1-.06a.28.28,0,0,1-.22,0,.72.72,0,0,0-.25-.07.69.69,0,0,1-.28.11,1.67,1.67,0,0,0-.3.08.43.43,0,0,0-.19.16.92.92,0,0,1-.15.17l-.23.27-.22.27a.26.26,0,0,1,0,.16.17.17,0,0,0,0,.14.44.44,0,0,0-.17.26c0,.12,0,.23-.07.35a1.22,1.22,0,0,0,.27,0l.32,0h.22a1.78,1.78,0,0,1,.43,0,1.87,1.87,0,0,0,.34,0,1.67,1.67,0,0,0,.32,0,.5.5,0,0,1,.3,0,.83.83,0,0,1,.43-.07l.39,0a.32.32,0,0,0,.15,0h0a5.22,5.22,0,0,1,1,0A3.1,3.1,0,0,0,107.58,17.06Z"/><path class="cls-2" d="M131.16,16.2a1.1,1.1,0,0,1,0,.18.57.57,0,0,0,0,.18,1.22,1.22,0,0,0,0,.33,1.66,1.66,0,0,1,0,.32c0,.15,0,.26,0,.33a1,1,0,0,1,0,.18s0,.08,0,.12a.5.5,0,0,0-.05.13,3.11,3.11,0,0,0,0,.32.71.71,0,0,1-.06.31l-.07.11a.57.57,0,0,0-.08.13,1.12,1.12,0,0,0-.05.13.88.88,0,0,1,0,.15,1.23,1.23,0,0,1-.12.26l-.13.23c-.06.13-.11.22-.15.29l-.14.18a1.64,1.64,0,0,0-.14.22.65.65,0,0,1-.17.2.37.37,0,0,1-.06.14.53.53,0,0,0-.08.15,1,1,0,0,1-.15.24.39.39,0,0,0-.1.18,1.83,1.83,0,0,0,.18.31.64.64,0,0,1,.1.24.24.24,0,0,1,.11.09l.08.14.15.21a.52.52,0,0,1,.1.18.34.34,0,0,1,.14.09.79.79,0,0,0,.13.13.54.54,0,0,1,.07.09l.06.09.18.29.19.3a.63.63,0,0,1,0,.25.09.09,0,0,0,.08.08.16.16,0,0,1,.12.06.38.38,0,0,1,.13.29.41.41,0,0,1-.13.34,1,1,0,0,1-.35,0,2.28,2.28,0,0,0-.37,0,2.58,2.58,0,0,0-.43.07.89.89,0,0,1-.36,0,.15.15,0,0,0-.11.06s-.07,0-.14,0a.28.28,0,0,1-.18-.17l-.09-.22L129,24a.91.91,0,0,1-.11-.16.83.83,0,0,1-.12-.16l-.12-.14a2.33,2.33,0,0,0-.47-.47.51.51,0,0,0-.27-.27s-.05-.11-.07-.17a.33.33,0,0,0-.13-.13.28.28,0,0,0-.13.11.51.51,0,0,0-.09.16.25.25,0,0,0-.18.08.5.5,0,0,1-.17.1,1.25,1.25,0,0,1-.51.09,2,2,0,0,0-.43,0,.39.39,0,0,0-.11.06l-.11.06-.24.06-.18,0-.17,0a.45.45,0,0,0-.16,0l-.28,0a1.17,1.17,0,0,1-.31,0,.22.22,0,0,1-.18-.08.85.85,0,0,1-.26,0,.63.63,0,0,1-.21,0,.78.78,0,0,0-.22,0h-.27a.2.2,0,0,1-.2-.09.39.39,0,0,1-.22,0l-.2-.06-.3-.07a1.48,1.48,0,0,1-.27-.1,1.3,1.3,0,0,0-.26-.14.32.32,0,0,1-.21-.16.46.46,0,0,1-.22-.07l-.12,0-.12,0a.44.44,0,0,1-.15-.1.27.27,0,0,0-.2-.07.85.85,0,0,0-.25-.25.47.47,0,0,0-.13-.12.24.24,0,0,1-.1-.15.31.31,0,0,1-.1-.05l-.09-.07-.17-.13-.06-.08-.27-.3-.2-.22a.41.41,0,0,0-.13-.12.1.1,0,0,1-.06,0,.71.71,0,0,1-.1-.2.41.41,0,0,0,0-.09.86.86,0,0,1-.07-.1l-.11-.08A1.77,1.77,0,0,0,119,20a2.07,2.07,0,0,1-.08-.2.37.37,0,0,0-.18-.19.56.56,0,0,0-.11-.2.82.82,0,0,1-.11-.23.75.75,0,0,1,0-.2.22.22,0,0,1-.14-.14l-.06-.22a.54.54,0,0,1-.09-.27.3.3,0,0,0-.1-.21.42.42,0,0,0,0-.15l0,0a.37.37,0,0,1,0-.11.21.21,0,0,0,0-.1l0-.1a.56.56,0,0,0,0-.12,1,1,0,0,1,0-.31c0-.12,0-.25,0-.38a.34.34,0,0,1,0-.1.16.16,0,0,0,0-.09,1.55,1.55,0,0,1,0-.31,1.07,1.07,0,0,0,0-.31.32.32,0,0,0,.09-.25.6.6,0,0,1,.07-.3,2.21,2.21,0,0,0,0-.44,1.15,1.15,0,0,1,0-.37.26.26,0,0,1,.07-.11.1.1,0,0,0,0-.12.1.1,0,0,0,.1-.11c0-.07,0-.11.08-.11a.82.82,0,0,1,.29-.65c0-.08,0-.14,0-.17l.11-.12q0-.11,0-.12s0-.06,0-.11l.08-.08.08-.09,0-.09.06-.1a1.45,1.45,0,0,1,.19-.23l.21-.2.29-.3a.87.87,0,0,0,.18-.26.17.17,0,0,0,.12,0l.07-.07.13-.1.17-.11.12-.07.06-.07a.63.63,0,0,0,.21-.13s.05-.05.1,0a.39.39,0,0,1,.23-.16l.32-.12.29-.13a.76.76,0,0,0,.26-.16l.34-.06a1.63,1.63,0,0,1,.33-.05l.33,0,.28,0h.89a3.29,3.29,0,0,0,.45,0,.75.75,0,0,1,.42.06.15.15,0,0,1,.1,0l.12,0,.48.07a.57.57,0,0,1,.37.18.54.54,0,0,1,.31,0l.3.1a.22.22,0,0,0,.11,0,.12.12,0,0,1,.07.07.4.4,0,0,1,.24,0,.63.63,0,0,0,.27,0l.19.07h.11a1.08,1.08,0,0,0,.28.21.56.56,0,0,1,.24.26.18.18,0,0,1,.13,0l.1,0,.1.07.09.07.14.11a1.84,1.84,0,0,1,.14.14.3.3,0,0,1,.11.17,1.17,1.17,0,0,0,.11.23.59.59,0,0,0,.12.17.3.3,0,0,1,.1.18l.09.09.09.1a.93.93,0,0,0,.1.1l.07.07a1.55,1.55,0,0,0,.19.24,1.09,1.09,0,0,1,.22.28c0,.07.08.15.12.21l.11.19a1.11,1.11,0,0,1,.12.35.92.92,0,0,0,.08.27,1.2,1.2,0,0,1,.2.39,2.63,2.63,0,0,0,.15.33v.18a.17.17,0,0,1,.06.15.5.5,0,0,0,0,.16.24.24,0,0,1,.06.11s0,.09,0,.12v.24A.45.45,0,0,1,131.16,16.2Zm-2.06.53a1.8,1.8,0,0,0,0-.26.72.72,0,0,1,0-.13l0-.13a.24.24,0,0,0,0-.12.43.43,0,0,0-.1-.24.65.65,0,0,1-.13-.23c0-.16,0-.28-.07-.36a.76.76,0,0,1,0-.26.55.55,0,0,1-.17-.23c0-.09-.06-.19-.08-.28l-.12-.09-.12-.07a2,2,0,0,1-.15-.2L128,14a.27.27,0,0,0-.14-.13.09.09,0,0,1-.08,0,.4.4,0,0,0-.14-.22.5.5,0,0,1-.16-.22.33.33,0,0,1-.18-.11.5.5,0,0,0-.19-.11.58.58,0,0,0-.22-.22l-.27-.16-.11-.05a.13.13,0,0,1-.1-.09h-.21a.51.51,0,0,0-.25-.14l-.35,0a.44.44,0,0,0-.22-.12.62.62,0,0,0-.27,0,.17.17,0,0,1-.2,0h-.59l-.4,0a.13.13,0,0,1-.11,0s0,0-.1,0l-.29.23-.2.05-.15,0a.62.62,0,0,0-.25.15.28.28,0,0,1-.27.05.32.32,0,0,1-.32.16.46.46,0,0,1-.19.13l-.22.08-.18.13a.4.4,0,0,1-.22.09.58.58,0,0,1-.42.41l-.17.22-.2.25a.59.59,0,0,1,0,.14.21.21,0,0,0,0,.14l-.06.08a.35.35,0,0,1-.06.09.27.27,0,0,1,0,.25.65.65,0,0,0-.11.22.19.19,0,0,0,0,.15.49.49,0,0,1,0,.17l-.06.11a.2.2,0,0,0,0,.1.63.63,0,0,0,0,.23.67.67,0,0,1,0,.24.53.53,0,0,0-.07.18.08.08,0,0,1,0,.06.53.53,0,0,0-.07.18l0,.11a.59.59,0,0,0,0,.27l.07.15a.5.5,0,0,1,.05.13.69.69,0,0,0,0,.13.78.78,0,0,1,0,.14l0,.15a.42.42,0,0,1,0,.15.49.49,0,0,0,0,.15.7.7,0,0,1,.08.12s0,0,0,.05a.22.22,0,0,1,.05.08l.06.1c.05.06.09.12.14.17a1.63,1.63,0,0,1,.11.17.46.46,0,0,1,.12.18c0,.08.07.16.1.23a.3.3,0,0,1,0,.23.27.27,0,0,1,.13.13.7.7,0,0,0,.09.17l.15.12.16.17a.61.61,0,0,1,.12.16.39.39,0,0,1,.22.2l.36.13a.89.89,0,0,1,.26.12.67.67,0,0,0,.2.12l.11.05.17.06.19.06h.19a.58.58,0,0,1,.21.07.83.83,0,0,0,.21.06.23.23,0,0,0,.2,0,.45.45,0,0,1,.2,0,1.13,1.13,0,0,0,.26.07.16.16,0,0,1,.11,0s.06-.07.1,0h.15l.14,0,.15,0a.31.31,0,0,0,.18,0l.09,0h.21a.39.39,0,0,0,.24-.09s0-.06,0-.07-.11-.26-.15-.34a.92.92,0,0,1-.1-.2.31.31,0,0,1,0-.12l0-.12a2,2,0,0,0-.16-.31.51.51,0,0,1-.08-.17.42.42,0,0,1-.17-.18,1.37,1.37,0,0,0-.15-.21c0-.05,0-.09,0-.11s0,0,0-.09a.27.27,0,0,0-.08-.1.43.43,0,0,1-.07-.1.5.5,0,0,1,0-.13.33.33,0,0,0,0-.12.61.61,0,0,0-.2-.13.1.1,0,0,1-.07-.11c-.12,0-.19,0-.2-.08s0-.24,0-.3l.14-.1.11-.09h.22a.82.82,0,0,0,.27,0,.61.61,0,0,0,.22-.07,1.33,1.33,0,0,1,.43,0,.1.1,0,0,0,.1-.06.15.15,0,0,1,.14,0,.37.37,0,0,0,.14.08.18.18,0,0,1,.13.11.1.1,0,0,1,0,.1s0,.08,0,.11a1.05,1.05,0,0,1,.39.37c0,.06,0,.11,0,.15a.78.78,0,0,0,.05.14l.21.21a.26.26,0,0,1,.08.19c.2.17.36.32.49.45a2.29,2.29,0,0,0,.43.32.29.29,0,0,0,.18-.16.27.27,0,0,1,.14-.16.42.42,0,0,1,.11-.22.39.39,0,0,0,.09-.25l.08-.08a.61.61,0,0,0,.07-.1l.08-.21a1.71,1.71,0,0,1,.07-.21.4.4,0,0,1,.07-.18.1.1,0,0,0,.05-.06,1,1,0,0,0,0-.2l0-.13a1,1,0,0,0,.11-.49A1.44,1.44,0,0,1,129.1,16.73Z"/><path class="cls-2" d="M142.37,14.16a.74.74,0,0,1,0,.19.52.52,0,0,0,0,.21c0,.06,0,.12,0,.19a1.09,1.09,0,0,1,0,.18,2,2,0,0,1,0,.33,2.55,2.55,0,0,0,0,.41,1.63,1.63,0,0,0,0,.31.94.94,0,0,1-.06.31,1.05,1.05,0,0,1,0,.32c0,.12,0,.26,0,.42a.5.5,0,0,0,0,.12.53.53,0,0,1,0,.13.24.24,0,0,0,0,.14.11.11,0,0,1,0,.08.31.31,0,0,1,0,.17,1,1,0,0,0-.05.16.66.66,0,0,0,0,.14.57.57,0,0,1,0,.13l0,.14s0,.09,0,.15,0,.28-.05.43a3.4,3.4,0,0,1-.06.46.79.79,0,0,0-.1.28,2,2,0,0,1,0,.24,1.27,1.27,0,0,0-.06.18c0,.06,0,.12-.06.2l-.09.28-.08.33,0,.1,0,.12-.06.15-.06.13a.32.32,0,0,0-.07.13s0,0,0,0l-.11.1s0,0,0,0a1.57,1.57,0,0,0-.12.19,1.5,1.5,0,0,1-.15.23.47.47,0,0,0-.13.18l-.17.2-.2.19a.47.47,0,0,1-.13.11l-.14.09-.2.21a.58.58,0,0,1-.13.11.66.66,0,0,1-.39.08.63.63,0,0,1-.38.22l-.49.1a.39.39,0,0,1-.19-.17.23.23,0,0,0-.12.06.12.12,0,0,1-.11,0,.28.28,0,0,1-.14,0l-.13,0a.42.42,0,0,1-.22.05,2.32,2.32,0,0,1-.3-.05h-.16a.32.32,0,0,1-.14,0,1.13,1.13,0,0,0-.59-.13.18.18,0,0,0-.14-.1.67.67,0,0,1-.18-.07l-.18-.14c-.05,0-.06-.05-.05-.08a.56.56,0,0,0-.18-.1s0,0,0-.1h-.1l-.11-.06a.2.2,0,0,1-.08-.08s-.05-.05-.11,0a.14.14,0,0,0-.09-.08s-.06,0-.06-.1a.14.14,0,0,1-.12-.05.19.19,0,0,0-.12-.07.53.53,0,0,0-.19-.23l-.26-.2-.11-.08-.09-.09a.85.85,0,0,1-.09-.14l-.09-.16a.86.86,0,0,1-.14-.18.18.18,0,0,0-.05-.07.58.58,0,0,1-.15-.12.11.11,0,0,0,0-.05l-.1-.15a.41.41,0,0,1,0-.19l-.07-.09-.07-.09a.14.14,0,0,0,0-.14.39.39,0,0,1-.05-.13,1,1,0,0,1,0-.3,1.36,1.36,0,0,0,0-.29.69.69,0,0,0-.14-.27c0-.12,0-.2,0-.23l-.08-.09a.54.54,0,0,0-.08-.38.45.45,0,0,0,0-.36.47.47,0,0,1,0-.33.18.18,0,0,0,0-.12v-.15a.9.9,0,0,1,0-.35.13.13,0,0,0,0-.11.5.5,0,0,1-.05-.13.35.35,0,0,1,0-.22.92.92,0,0,0,0-.26.41.41,0,0,0,0-.12.09.09,0,0,1,0-.1.18.18,0,0,1,0-.11.41.41,0,0,0,0-.09,2.26,2.26,0,0,1,0-.35,1.35,1.35,0,0,0,0-.34c.08-.1.11-.17.09-.19a.2.2,0,0,1,0-.11,1.81,1.81,0,0,0,.16-.42.53.53,0,0,0,0-.13.41.41,0,0,1,0-.11.86.86,0,0,0,.05-.26.31.31,0,0,1,0-.16.34.34,0,0,1,.1-.21q0-.12-.06-.27a.44.44,0,0,1,0-.27.31.31,0,0,1,.19-.06.53.53,0,0,0,.19-.06.17.17,0,0,0,.12,0c.05,0,.08,0,.08,0l.25,0a.35.35,0,0,1,.14,0h.67a1.31,1.31,0,0,1,.13.29c0,.06,0,.15,0,.26a3.62,3.62,0,0,1,0,.58c0,.2,0,.4,0,.62a.49.49,0,0,0,0,.12.27.27,0,0,1,0,.13,1.23,1.23,0,0,0,0,.2,1.55,1.55,0,0,0,0,.22.68.68,0,0,0,0,.21,1.76,1.76,0,0,1,.06.42c0,.13,0,.21,0,.26a.46.46,0,0,0,0,.26.31.31,0,0,1,0,.26.71.71,0,0,1,.14.43c0,.17,0,.35,0,.54a2,2,0,0,0,.06.23,1,1,0,0,1,0,.26.35.35,0,0,0,0,.2.26.26,0,0,1,0,.11c0,.13,0,.25,0,.37a1.05,1.05,0,0,0,0,.36.69.69,0,0,0,.05.13.78.78,0,0,0,0,.14.49.49,0,0,1,.05.16.23.23,0,0,0,.05.12l.07.08a.23.23,0,0,0,.07.07l.21.25a.38.38,0,0,0,.17.12.2.2,0,0,0,0,.11.36.36,0,0,1,0,.09l.13,0,.14,0a.19.19,0,0,0,.1.1.32.32,0,0,1,.1.1.37.37,0,0,1,.27.11.23.23,0,0,1,.2,0,.49.49,0,0,0,.25.05l.14,0,.13,0,.5-.06a1.23,1.23,0,0,0,.37-.12c.05-.06.08-.1.11-.11l.08-.06.18-.24.14-.18a.68.68,0,0,0,.15-.19s.05-.09.07-.14a.43.43,0,0,1,.11-.12.72.72,0,0,1,.08-.3,1.35,1.35,0,0,1,.14-.22,1.15,1.15,0,0,1,0-.19.16.16,0,0,1,.08-.13q0-.07,0-.12a.23.23,0,0,0,0-.15.26.26,0,0,1,.05-.09.29.29,0,0,0,.07-.1.22.22,0,0,0,0-.09.08.08,0,0,1,0-.09.78.78,0,0,1-.06-.44,3.7,3.7,0,0,1,.08-.48.33.33,0,0,1,.05-.15.24.24,0,0,0,0-.12,1.34,1.34,0,0,1,0-.26l0-.14a.78.78,0,0,0,0-.16.66.66,0,0,1,0-.15.45.45,0,0,1,0-.11.43.43,0,0,0,0-.12,1.11,1.11,0,0,0,0-.19l0-.16a.51.51,0,0,1,0-.13.61.61,0,0,0,0-.14.54.54,0,0,0,0-.18,1.21,1.21,0,0,1,0-.19.53.53,0,0,1,0-.13.52.52,0,0,0,0-.14.45.45,0,0,0,0-.11s0-.07,0-.11a.38.38,0,0,1,0-.17.22.22,0,0,0,0-.16c-.05-.06-.06-.1-.05-.12a.09.09,0,0,0,0-.07.34.34,0,0,1,0-.11.39.39,0,0,0,0-.09.23.23,0,0,1,0-.07.58.58,0,0,0,0-.19.22.22,0,0,1,0-.11.42.42,0,0,1,0-.19l0-.08a.4.4,0,0,1,.19-.14.92.92,0,0,1,.25-.06l.28,0h.29a.57.57,0,0,1,.26,0h.12l.21,0a.25.25,0,0,1,.24.06A.55.55,0,0,1,142,13a.31.31,0,0,1,.24.13.17.17,0,0,1,.06.12s0,.09,0,.16a.86.86,0,0,0,0,.13,1.18,1.18,0,0,1,0,.16.37.37,0,0,0,0,.2A.89.89,0,0,1,142.37,14.16Z"/><path class="cls-2" d="M153.73,17.87a.75.75,0,0,0,0,.3.2.2,0,0,1,0,.2.2.2,0,0,1,.08.2l-.06.25a.48.48,0,0,0,0,.17.28.28,0,0,1,0,.13,1.07,1.07,0,0,0-.11.22c0,.05,0,.07-.06.07a.46.46,0,0,1,0,.2,1.18,1.18,0,0,1-.07.2.94.94,0,0,1-.05.17.09.09,0,0,0,0,.07.65.65,0,0,1,0,.22.69.69,0,0,0,0,.1l-.11.27c0,.08-.06.17-.1.26l-.15.33a.75.75,0,0,1-.18.28.31.31,0,0,0,0,.11.66.66,0,0,1,0,.11l-.15.14a.62.62,0,0,0-.14.19,1,1,0,0,1-.16.27.58.58,0,0,1-.15.13.48.48,0,0,0-.17.12.16.16,0,0,0-.1,0s0,0-.09,0a1,1,0,0,1-.25.2,1.81,1.81,0,0,1-.33.14l-.15,0L151,23l-.21.07a.66.66,0,0,1-.25,0,1,1,0,0,0-.26,0l-.16.05a.86.86,0,0,1-.28,0h-.3a.49.49,0,0,0-.17,0,.11.11,0,0,1-.07,0H149a.66.66,0,0,0-.2.06.48.48,0,0,1-.27,0,2.78,2.78,0,0,1-.57.07.66.66,0,0,1-.46-.12.26.26,0,0,1-.21,0l-.16,0h-.08a2.14,2.14,0,0,1-.34-.09,1,1,0,0,1-.31-.16,1.79,1.79,0,0,1-.35-.15.66.66,0,0,0-.28-.08l-.15-.17a.49.49,0,0,0-.08-.1.12.12,0,0,0-.08,0,.13.13,0,0,1-.09-.05l-.19-.14-.09-.06-.07-.07A.86.86,0,0,1,145,22l-.21-.25-.14-.11a.66.66,0,0,0,0-.11s0-.06,0-.11a.63.63,0,0,1-.13-.14l0-.05a1.89,1.89,0,0,0-.2-.27.37.37,0,0,1,0-.11c0-.05,0-.11-.05-.19a1,1,0,0,0-.07-.24.28.28,0,0,1,0-.18.27.27,0,0,0-.07-.08.15.15,0,0,1-.06-.09,1.13,1.13,0,0,1,0-.25.62.62,0,0,0,0-.23.34.34,0,0,0-.06-.15.16.16,0,0,1,0-.15.33.33,0,0,1-.07-.13.57.57,0,0,0-.08-.13.28.28,0,0,0,0-.2.56.56,0,0,1,0-.23.53.53,0,0,1,0-.13.78.78,0,0,1,0-.14V18a1,1,0,0,1,0-.18,1.09,1.09,0,0,1,.05-.17,1.1,1.1,0,0,0,0-.18.1.1,0,0,1,.07-.1.58.58,0,0,1,0-.41.87.87,0,0,0,.09-.4.19.19,0,0,0,0-.09.19.19,0,0,1,.05-.09.68.68,0,0,1,.06-.31.92.92,0,0,0,.09-.25.2.2,0,0,0,.14-.11l.1-.16a.31.31,0,0,0,.13-.15.09.09,0,0,1,.12-.08l.16-.25a.46.46,0,0,1,.17-.17l.17-.08.07,0,.08-.1.07-.07a1.66,1.66,0,0,1,.3-.19.47.47,0,0,1,.13-.11l.16-.1a.9.9,0,0,1,.18-.1.13.13,0,0,1,.08,0l.15-.1a.15.15,0,0,1,.17,0,1,1,0,0,1,.72-.2l.41-.1a.94.94,0,0,1,.35,0,.3.3,0,0,1,.13,0h.26l.16,0,.34,0a.58.58,0,0,1,.23,0,.91.91,0,0,0,.26,0h.11l.1,0a.19.19,0,0,1,.09,0,1.31,1.31,0,0,0,.27.05h.13a.28.28,0,0,1,.13,0,.35.35,0,0,1,.14.06l.13,0,.14,0a1.64,1.64,0,0,0,.43,0,.91.91,0,0,1,.44.09l.09.05.1.07a.16.16,0,0,1,.11,0l.07.05a2.75,2.75,0,0,1,.45.28c.12.09.22.18.32.27a.23.23,0,0,0,0,.14l.06.13a.87.87,0,0,1,.14.12l.11.13a.08.08,0,0,1,0,.08.17.17,0,0,0,0,.12,1.62,1.62,0,0,0,.1.18l.1.19a.32.32,0,0,0,0,.15.61.61,0,0,1,.07.13l.08.22a.32.32,0,0,0,.19.17.29.29,0,0,0,0,.18.62.62,0,0,1,.07.19,1.94,1.94,0,0,1,0,.24v.21a1.07,1.07,0,0,0,0,.26A.76.76,0,0,1,153.73,17.87Zm-2-.19a.34.34,0,0,1,0-.17.54.54,0,0,0,0-.11,1.5,1.5,0,0,0-.1-.32,1.2,1.2,0,0,1-.1-.35.74.74,0,0,1,0-.21.61.61,0,0,0,0-.23.12.12,0,0,1-.07-.1.14.14,0,0,0-.06-.1.19.19,0,0,0-.1-.1.15.15,0,0,1-.08-.12,2.32,2.32,0,0,1-.32-.17,2,2,0,0,1-.34,0,.31.31,0,0,1-.12-.07l-.11,0a.25.25,0,0,0-.19,0s-.1,0-.2,0a.22.22,0,0,1-.13-.12.3.3,0,0,0-.12-.15c-.06,0-.09,0-.11,0h-.11a.13.13,0,0,1-.07-.05s0,0-.1,0l-.33.09a.5.5,0,0,1-.36,0,.33.33,0,0,0-.12,0l-.09.07s0-.05-.08,0h-.11a1.22,1.22,0,0,1-.32.18l-.32.14a.39.39,0,0,0-.19.12l-.09.1a.41.41,0,0,0-.09.1l-.11.08a1.68,1.68,0,0,0-.36.26.79.79,0,0,1-.25.2.31.31,0,0,1-.11.21.46.46,0,0,0-.14.21,1.67,1.67,0,0,0-.06.2.59.59,0,0,1-.06.2,1.52,1.52,0,0,0-.09.51.62.62,0,0,1-.09.38.09.09,0,0,1,0,.1.28.28,0,0,0,0,.13l.06.17a.31.31,0,0,1,0,.19,1.06,1.06,0,0,0,0,.23c.05.08.08.13.07.15a.15.15,0,0,0,0,.07.27.27,0,0,0,.06.1.12.12,0,0,1,0,.13.17.17,0,0,1,.09.1.16.16,0,0,0,.07.11.23.23,0,0,0,.05.2.3.3,0,0,1,0,.25c.06,0,.08.08.08.1a.25.25,0,0,0,0,.07l.08.07a.22.22,0,0,1,0,.13.36.36,0,0,1,.14.11.93.93,0,0,0,.14.14l.08.06a.13.13,0,0,1,.07.06.85.85,0,0,1,.14.1.39.39,0,0,0,.1.08.25.25,0,0,0,.15.09.31.31,0,0,1,.12.05l.09.06.08.05a.64.64,0,0,0,.28.06.45.45,0,0,1,.27.14.6.6,0,0,1,.24.05.82.82,0,0,0,.28,0,.15.15,0,0,1,.1,0,.14.14,0,0,0,.12.05l.11,0h.12a.29.29,0,0,1,.16,0l.14,0a.69.69,0,0,0,.2-.07l.16-.08a.6.6,0,0,1,.15-.09.28.28,0,0,1,.16,0,.25.25,0,0,1,.08-.12l.11-.09.15-.15a.87.87,0,0,0,.12-.14.44.44,0,0,1,.08-.11.76.76,0,0,0,.09-.09l.2-.31c0-.11.11-.22.17-.33l.1-.17a1.67,1.67,0,0,0,.08-.2.58.58,0,0,1,0-.21s0-.05,0-.07,0-.17.06-.23a.41.41,0,0,0,0-.19.27.27,0,0,0,.09-.2,1.39,1.39,0,0,1,0-.27.66.66,0,0,1,0-.15.29.29,0,0,0,0-.14,1.37,1.37,0,0,0,0-.31Z"/><path class="cls-2" d="M160.21,14.61a.93.93,0,0,0,0,.24.17.17,0,0,1,0,.1.23.23,0,0,1-.12.16.65.65,0,0,0-.15.1.4.4,0,0,0-.3,0l-.27.08h-.22a.7.7,0,0,0-.25.05.7.7,0,0,1-.22.07h-.15a.22.22,0,0,0-.15,0,.53.53,0,0,0,0,.33,1.45,1.45,0,0,1,0,.36,1.59,1.59,0,0,0,0,.43,1.5,1.5,0,0,1,0,.29c0,.1,0,.2,0,.29a.37.37,0,0,0,.06.25.48.48,0,0,0-.06.24,2.72,2.72,0,0,0,0,.28,2.43,2.43,0,0,0,0,.54c0,.2,0,.38,0,.53a1.83,1.83,0,0,0,0,.21l0,.2c0,.09,0,.14,0,.16a.2.2,0,0,1,0,.07c0,.11,0,.24,0,.39a3.38,3.38,0,0,1,0,.45,1.09,1.09,0,0,1,0,.22.5.5,0,0,0,0,.12c0,.09,0,.18,0,.28a.36.36,0,0,1-.09.3.17.17,0,0,0,0,.1.39.39,0,0,1,0,.09.35.35,0,0,0,0,.2.26.26,0,0,1,0,.1.86.86,0,0,0,0,.31l0,.24a.86.86,0,0,1-.21.69l-.43-.07a1.55,1.55,0,0,0-.43,0l-.2,0a.53.53,0,0,1-.24,0l-.12,0a.13.13,0,0,1-.1,0,.1.1,0,0,1-.11,0,.34.34,0,0,0-.12-.06,2.74,2.74,0,0,1,0-.51,4.37,4.37,0,0,0,0-.63.61.61,0,0,0,0-.15s0-.08,0-.14a1.93,1.93,0,0,1,0-.24,1.13,1.13,0,0,0,0-.26.52.52,0,0,1,0-.11.52.52,0,0,0,0-.11s0-.07,0-.08,0,0,0-.1a1.78,1.78,0,0,1,0-.41c0-.12.05-.24.07-.37a2.16,2.16,0,0,1,0-.29v-.16s0-.09,0-.15a.51.51,0,0,1,0-.17.28.28,0,0,1,0-.1.49.49,0,0,0,0-.12,2.81,2.81,0,0,1,0-.51,2.17,2.17,0,0,0,0-.44,1,1,0,0,1-.06-.3,1.15,1.15,0,0,0,0-.19l0-.25c0-.09,0-.19,0-.29a.36.36,0,0,1,0-.11.49.49,0,0,0,0-.12.34.34,0,0,0,0-.15.4.4,0,0,1,0-.15,1.5,1.5,0,0,1,0-.29,1.37,1.37,0,0,0,0-.28l0-.11a.52.52,0,0,1,0-.11.85.85,0,0,1,0-.32.61.61,0,0,0,0-.3,5.43,5.43,0,0,0-.54.13l-.12,0a.56.56,0,0,0-.15,0l-.21.06c-.06,0-.12,0-.19,0a.6.6,0,0,1-.18-.21.26.26,0,0,1,0-.22,1,1,0,0,1,.14-.17.09.09,0,0,1,0-.1.23.23,0,0,0,0-.12.47.47,0,0,0,0-.17.36.36,0,0,1,0-.2,1,1,0,0,1,.08-.18,1.22,1.22,0,0,0,.07-.17.58.58,0,0,0,0-.23.49.49,0,0,1,0-.24c0-.19.17-.26.42-.22a.83.83,0,0,0,.18,0,.15.15,0,0,1,.12.1.32.32,0,0,1,.23,0,.41.41,0,0,0,.21.05.64.64,0,0,0,.1-.41,4.68,4.68,0,0,1,0-.53.57.57,0,0,0,0-.22l0-.13a1.21,1.21,0,0,1,0-.47l0-.11a.52.52,0,0,0,0-.11.6.6,0,0,0-.05-.24.33.33,0,0,0,0-.15.22.22,0,0,0-.05-.08l0-.06a.14.14,0,0,1,0-.09c.08-.08.13-.12.17-.11h.13a1.39,1.39,0,0,1,.23,0,.5.5,0,0,1,.24,0,.67.67,0,0,1,.24,0l.18,0a.33.33,0,0,0,.12,0,.24.24,0,0,1,.1-.05.15.15,0,0,0,.13,0c.06,0,.1,0,.12.05l.12.14a.06.06,0,0,1,0,.06,1.08,1.08,0,0,1,0,.37l0,.43a1,1,0,0,1,0,.16v.16a1.15,1.15,0,0,1,0,.14.89.89,0,0,0,0,.11.44.44,0,0,1,0,.23.31.31,0,0,0,0,.11,1.08,1.08,0,0,0,.05.21c0,.06,0,.13-.08.21a.43.43,0,0,1,0,.19,1.12,1.12,0,0,0,0,.21.57.57,0,0,0,0,.12.49.49,0,0,1,0,.12.4.4,0,0,1,0,.15.14.14,0,0,0,0,.15.37.37,0,0,0,.23-.05.62.62,0,0,1,.2-.1.51.51,0,0,1,.21,0,.3.3,0,0,0,.21-.07.17.17,0,0,0,.19,0,.1.1,0,0,1,.16,0,.5.5,0,0,1,.29-.15.61.61,0,0,1,.33,0,1.24,1.24,0,0,0,.1.17.25.25,0,0,1,0,.08s0,.05,0,.09a.28.28,0,0,0,0,.13.52.52,0,0,1,0,.17.25.25,0,0,0,0,.08,1.42,1.42,0,0,0,0,.22.83.83,0,0,1,.05.18Z"/><path class="cls-2" d="M170.81,18.4a1.6,1.6,0,0,0,0,.32.33.33,0,0,1,0,.19.2.2,0,0,1-.13.1.18.18,0,0,0-.12.1.78.78,0,0,0-.22,0l-.2,0a.48.48,0,0,0-.33-.08.52.52,0,0,1-.34-.08.49.49,0,0,1-.19.05,1.64,1.64,0,0,1-.49,0l-.53-.08-.39,0h-.35l-.27,0a.84.84,0,0,1-.24-.06.47.47,0,0,0-.24-.05.5.5,0,0,0-.21,0l-.21,0-.27,0a.58.58,0,0,1-.19,0h-.31a.2.2,0,0,1-.19-.08l-.12.07h-.18l-.13,0h-.07a.5.5,0,0,1-.2,0s-.09,0-.14.05-.06,0-.12,0a.12.12,0,0,1-.11,0,.72.72,0,0,0-.36,0,1.27,1.27,0,0,1-.28,0,1.09,1.09,0,0,1-.26,0,.54.54,0,0,0-.31,0,.55.55,0,0,0-.06.37.7.7,0,0,0,.13.36.31.31,0,0,1,0,.14.25.25,0,0,0,0,.13,1.82,1.82,0,0,0,.23.27.7.7,0,0,1,.14.17,1.57,1.57,0,0,0,.2.25,2,2,0,0,1,.22.27.25.25,0,0,0,.09.13.53.53,0,0,1,.11.14.54.54,0,0,1,.23.1l.23.15a1.25,1.25,0,0,1,.25.18.67.67,0,0,0,.2.12l.13,0a.11.11,0,0,1,.1,0,.77.77,0,0,1,.19.11.37.37,0,0,0,.21.1,1.16,1.16,0,0,1,.27,0l.15,0a.66.66,0,0,0,.41-.1h.13l.14,0a.55.55,0,0,1,.22-.1.25.25,0,0,0,.13,0,.16.16,0,0,1,.09-.06l.08,0,.17-.08a.83.83,0,0,0,.16-.12,1.07,1.07,0,0,0,.22-.15.86.86,0,0,0,.29-.28,1.78,1.78,0,0,1,.28-.32,1,1,0,0,1,.07-.34,1.19,1.19,0,0,1,.13-.25,1.06,1.06,0,0,1,0-.29,1,1,0,0,1,.11-.21l.15,0a.36.36,0,0,1,.17,0l.1.06a.33.33,0,0,0,.12.06l.11,0,.18,0a.34.34,0,0,0,.16.05l.1,0a.49.49,0,0,0,.25.05.31.31,0,0,1,.19,0c.12.09.2.15.22.2a.63.63,0,0,1-.12.37.43.43,0,0,0-.07.22.72.72,0,0,1,0,.13.22.22,0,0,1-.05.08.19.19,0,0,0,0,.1.84.84,0,0,0-.05.2.89.89,0,0,1-.07.19l-.21.24a.42.42,0,0,1-.16.11.1.1,0,0,1,0,.13.29.29,0,0,0-.1.07.58.58,0,0,1-.15.19l-.21.15a1.56,1.56,0,0,1-.27.2l-.28.17-.25.21a.46.46,0,0,1-.17.09l-.13.06a.06.06,0,0,1,0,0,.41.41,0,0,1-.19,0,.69.69,0,0,0-.2,0,1.21,1.21,0,0,1-.32.09l-.27.06a.53.53,0,0,1-.15.05.65.65,0,0,1-.2,0,.38.38,0,0,0-.25,0,.14.14,0,0,1-.17,0l-.31.07a.62.62,0,0,1-.23,0l-.1,0-.1,0a4.62,4.62,0,0,0-.51-.07,1.14,1.14,0,0,1-.34-.07l-.1,0a.1.1,0,0,1-.09-.06.47.47,0,0,1-.31,0,1,1,0,0,1-.22-.16l-.1,0-.09,0-.23-.11a.41.41,0,0,1-.19-.2.25.25,0,0,1-.19-.06,1,1,0,0,0-.15-.14.4.4,0,0,1-.24-.07.77.77,0,0,1-.18-.18,1.66,1.66,0,0,0-.25-.27,2.36,2.36,0,0,1-.28-.31.53.53,0,0,0-.25-.17.55.55,0,0,0-.1-.17l-.14-.15a1,1,0,0,0-.12-.22l-.06-.08a1.47,1.47,0,0,1-.06-.27c0-.08,0-.16-.06-.26a1.38,1.38,0,0,1-.05-.26,1,1,0,0,0,0-.17.3.3,0,0,0,0-.1.69.69,0,0,1,0-.1.49.49,0,0,1,0-.17.62.62,0,0,0,0-.19l0-.15a.88.88,0,0,1,0-.16,2.29,2.29,0,0,1,0-.25,2.11,2.11,0,0,0,0-.26s0-.05,0-.09a.34.34,0,0,1,0-.09.64.64,0,0,1,.06-.18l.06-.17a.34.34,0,0,1,0-.22c0-.05,0-.08,0-.1a.31.31,0,0,0,.05-.1l0-.09a.36.36,0,0,0,0-.11.5.5,0,0,1,0-.16l.11-.16s0,0,0,0,0-.13,0-.16a.18.18,0,0,1,0-.07.92.92,0,0,1,.11-.2.43.43,0,0,1,0-.07.43.43,0,0,1,0-.15l0-.05c0-.07,0-.13,0-.18a.53.53,0,0,1,0-.16l.08-.17a.44.44,0,0,1,.14-.16,3.05,3.05,0,0,1,.15-.35l.13-.27a1.33,1.33,0,0,0,.26-.27,1.66,1.66,0,0,1,.26-.27s.05,0,.08,0l.11,0,.27-.22a.56.56,0,0,1,.2-.12,1.11,1.11,0,0,1,.31,0,.35.35,0,0,0,.29-.13.45.45,0,0,0,.2,0l.21-.09.15-.08a.4.4,0,0,1,.23,0h.23a.75.75,0,0,0,.24,0l.15,0,.19,0a2.13,2.13,0,0,0,.39,0h.33l.17,0a.69.69,0,0,1,.2,0l.16,0,.16,0,.14,0h0a.3.3,0,0,1,.14.06.52.52,0,0,0,.15.07.1.1,0,0,0,.09,0,.12.12,0,0,1,.09,0,.78.78,0,0,1,.2.09l.22.06a.18.18,0,0,1,.13.15.66.66,0,0,1,.28.14,1,1,0,0,0,.18.13.89.89,0,0,1,.13.14.71.71,0,0,0,.15.15.22.22,0,0,0,.05.08.51.51,0,0,1,0,.1,1.15,1.15,0,0,1,.23.21.61.61,0,0,0,.29.19.75.75,0,0,0,.11.2.43.43,0,0,1,.09.24l.07.11.1.14,0,.09a.21.21,0,0,1,.06.1,3.9,3.9,0,0,0,.19.35l.09.12a.38.38,0,0,1,.09.15.59.59,0,0,1,0,.13.34.34,0,0,0,0,.14c0,.05,0,.1.05.14a.46.46,0,0,0,0,.09.78.78,0,0,1,0,.26,1.13,1.13,0,0,0,0,.26,1.49,1.49,0,0,1,0,.21l0,.21a1.41,1.41,0,0,0,0,.22Zm-2.4-1.34s0-.06,0-.12a.14.14,0,0,0-.09-.11.22.22,0,0,0-.09-.15s0-.05,0-.09a.41.41,0,0,0-.13-.08.12.12,0,0,1-.07-.14c-.06,0-.09,0-.11,0a.28.28,0,0,0-.06-.08.37.37,0,0,1-.15-.16.36.36,0,0,0-.1-.14.11.11,0,0,0-.11,0s-.06,0-.06-.08a.63.63,0,0,1-.41-.09l-.28-.25a.89.89,0,0,1-.33,0,2.16,2.16,0,0,0-.36,0,.39.39,0,0,0-.24-.07.69.69,0,0,1-.26-.05s-.07,0-.07-.07,0-.06-.1-.06a.28.28,0,0,1-.22,0,.72.72,0,0,0-.25-.07.69.69,0,0,1-.28.11,1.67,1.67,0,0,0-.3.08.43.43,0,0,0-.19.16.92.92,0,0,1-.15.17l-.23.27-.22.27a.26.26,0,0,1,0,.16.21.21,0,0,0,0,.14.48.48,0,0,0-.16.26c0,.12,0,.23-.07.35a1.22,1.22,0,0,0,.27,0l.32,0h.22a1.78,1.78,0,0,1,.43,0,1.87,1.87,0,0,0,.34,0,1.67,1.67,0,0,0,.32,0,.5.5,0,0,1,.3,0,.83.83,0,0,1,.43-.07l.39,0a.32.32,0,0,0,.15,0h0a5.22,5.22,0,0,1,1,0A3.1,3.1,0,0,0,168.41,17.06Z"/></g></g></svg>