<svg xmlns="http://www.w3.org/2000/svg" viewBox="0 0 92.74 146.93"><defs><style>.cls-1{fill:#231f20;}</style></defs><g id="Layer_2" data-name="Layer 2"><g id="Layer_1-2" data-name="Layer 1"><path class="cls-1" d="M13.73,22.77H9.48V.35h4.25V10.66h9.94V.35h4.25V22.77H23.67v-11l-9.94,0Z"/><path class="cls-1" d="M32.31,11a12.54,12.54,0,0,1,1.21-1.53A6.36,6.36,0,0,1,35,8.29a8.25,8.25,0,0,1,1.92-.74,10.18,10.18,0,0,1,2.46-.27,10.44,10.44,0,0,1,2.32.26,5.91,5.91,0,0,1,2,.8,4.17,4.17,0,0,1,1.36,1.44,4.29,4.29,0,0,1,.5,2.14V22.74H41.33v-1.8A11.46,11.46,0,0,1,39,22.39a6.09,6.09,0,0,1-2.65.63,5.79,5.79,0,0,1-1.73-.25A4.27,4.27,0,0,1,33.16,22a3.52,3.52,0,0,1-1-1.31,4.46,4.46,0,0,1-.38-1.91,3.62,3.62,0,0,1,1.07-2.69,8,8,0,0,1,2.59-1.69,14.7,14.7,0,0,1,3.14-.91c1.08-.19,2-.32,2.76-.38V12.05c0-.49,0-1,0-1.39a3.84,3.84,0,0,0-.19-1.18,1.9,1.9,0,0,0-.53-.85,1.73,1.73,0,0,0-1.06-.4,2.81,2.81,0,0,0-1.36.22A3.45,3.45,0,0,0,37,9.3a4.61,4.61,0,0,0-.87,1.44,7.13,7.13,0,0,0-.44,2Zm9,2.78a12.69,12.69,0,0,0-1.6.27,5.77,5.77,0,0,0-1.78.71,4.25,4.25,0,0,0-1.42,1.38,4,4,0,0,0-.5,2.31,3,3,0,0,0,.77,2,2.27,2.27,0,0,0,1.69.74,5.19,5.19,0,0,0,1.37-.24,4.08,4.08,0,0,0,1.47-.74Z"/><path class="cls-1" d="M54.48,22.74H50.22V9.93a3.32,3.32,0,0,0-.11-1,.91.91,0,0,0-.35-.49,1.51,1.51,0,0,0-.63-.2l-.93-.11V7.73l6.28-.63v3.46a7.43,7.43,0,0,1,1.07-1.21,8.08,8.08,0,0,1,1.4-1,8.35,8.35,0,0,1,1.61-.74,5,5,0,0,1,1.62-.29,4.49,4.49,0,0,1,3.46,1.25,4.7,4.7,0,0,1,1.15,3.33V22.74H60.53V12.2A2.53,2.53,0,0,0,60,10.47a2.35,2.35,0,0,0-1.85-.63,5.23,5.23,0,0,0-2,.41,5.63,5.63,0,0,0-1.68,1Z"/><path class="cls-1" d="M81,21.54a3,3,0,0,0-1.42-.38,4.06,4.06,0,0,0-2.24.88,6.57,6.57,0,0,1-1.42.73,4.32,4.32,0,0,1-1.54.28,5.29,5.29,0,0,1-2.65-.66,6.27,6.27,0,0,1-2-1.72,7.69,7.69,0,0,1-1.23-2.38,8.54,8.54,0,0,1-.43-2.68,9.12,9.12,0,0,1,.52-3A8.69,8.69,0,0,1,70.13,9.9,7.6,7.6,0,0,1,72.45,8a6.34,6.34,0,0,1,3-.73,6.43,6.43,0,0,1,1.86.29A5.31,5.31,0,0,1,79,8.39V2.81a3.19,3.19,0,0,0-.11-.95.83.83,0,0,0-.36-.47,1.47,1.47,0,0,0-.63-.21L77,1.07V.63L83.27,0V22.74ZM79,9.11a3.1,3.1,0,0,0-1.12-.52,5.75,5.75,0,0,0-1.24-.14,3.2,3.2,0,0,0-2,.63,4.86,4.86,0,0,0-1.33,1.58,7.4,7.4,0,0,0-.72,2.06,10.07,10.07,0,0,0,0,4.09,9,9,0,0,0,.66,2.08,4.77,4.77,0,0,0,1.23,1.62,2.89,2.89,0,0,0,1.91.65,2.66,2.66,0,0,0,1.45-.46,5.49,5.49,0,0,0,1.2-1Z"/><path class="cls-1" d="M0,53.17V30.78H7.44a28.16,28.16,0,0,1,3.19.18,8.27,8.27,0,0,1,2.82.79,5.15,5.15,0,0,1,2,1.79,5.62,5.62,0,0,1,.79,3.17,4.69,4.69,0,0,1-.61,2.49,5.38,5.38,0,0,1-1.61,1.68,8,8,0,0,1-2.27,1,19,19,0,0,1-2.6.54c-.89.11-1.76.18-2.62.2l-2.3,0v10.5ZM7.16,41.7a4.69,4.69,0,0,0,2-.38,3.25,3.25,0,0,0,1.29-1,4.17,4.17,0,0,0,.7-1.6,9.68,9.68,0,0,0,.2-2,7,7,0,0,0-.22-1.8,4.74,4.74,0,0,0-.69-1.51,3.58,3.58,0,0,0-1.22-1.06,3.75,3.75,0,0,0-1.78-.39H4.7a1.57,1.57,0,0,0-.38.5,2.39,2.39,0,0,0-.06.64V41.7Z"/><path class="cls-1" d="M19.49,53.17V41.1A3.53,3.53,0,0,0,19.36,40a1.06,1.06,0,0,0-.38-.56,1.19,1.19,0,0,0-.63-.24l-.88-.11v-.44l6.28-.51v15ZM21.22,35.8a2.75,2.75,0,1,1,2-4.7,2.84,2.84,0,0,1,0,3.91A2.61,2.61,0,0,1,21.22,35.8Z"/><path class="cls-1" d="M37.59,44.69a14.08,14.08,0,0,0,0-2.25,7.57,7.57,0,0,0-.39-1.93,3.63,3.63,0,0,0-.82-1.34,1.81,1.81,0,0,0-1.28-.5,3.3,3.3,0,0,0-1.89.52,4.42,4.42,0,0,0-1.3,1.32,6.25,6.25,0,0,0-.74,1.78,8,8,0,0,0-.23,1.9,7.12,7.12,0,0,0,.44,2.44,7.54,7.54,0,0,0,1.26,2.27,6.74,6.74,0,0,0,2,1.67,5.23,5.23,0,0,0,2.6.65,8.69,8.69,0,0,0,2.37-.33,3.53,3.53,0,0,0,1.89-1.31l.25.19a5.84,5.84,0,0,1-1.24,1.54,8.6,8.6,0,0,1-1.69,1.19,8.89,8.89,0,0,1-1.91.74,7.88,7.88,0,0,1-2,.25,8.21,8.21,0,0,1-5.6-2.18,7.63,7.63,0,0,1-1.73-2.38,6.81,6.81,0,0,1-.65-3,9,9,0,0,1,.62-3.39A7.66,7.66,0,0,1,29.25,40a7.37,7.37,0,0,1,2.58-1.67,8.92,8.92,0,0,1,3.27-.59,7.59,7.59,0,0,1,4.4,1.09,5.65,5.65,0,0,1,2.16,2.82Z"/><path class="cls-1" d="M44.34,53.17V33.62a3.32,3.32,0,0,0-.11-1,1,1,0,0,0-.35-.49,1.51,1.51,0,0,0-.63-.2l-.93-.11v-.44l6.27-.64V45.51c.85-1,1.53-1.94,2.07-2.66A22.17,22.17,0,0,0,51.92,41a7,7,0,0,0,.62-1.21,1.58,1.58,0,0,0,.09-.77.86.86,0,0,0-.3-.52L51.78,38h8.89L49.23,45.39c.73,0,1.47-.11,2.22-.19a18.23,18.23,0,0,1,2.19-.13,8.69,8.69,0,0,1,2.3.3,4.68,4.68,0,0,1,2,1.17A7.11,7.11,0,0,1,59.54,49a17,17,0,0,1,1,4.17H55.12A8.78,8.78,0,0,0,54.81,50a5,5,0,0,0-1.26-2,6.51,6.51,0,0,0-2.12-1.31,30,30,0,0,0-2.84-1v7.54Z"/><path class="cls-1" d="M68.21,49.17A6.74,6.74,0,0,0,70,50.31a5.41,5.41,0,0,0,2.07.4,4.2,4.2,0,0,0,2.65-.8,5.55,5.55,0,0,0,1.67-2.29l.25.19a8.39,8.39,0,0,1-2.3,4.09,6,6,0,0,1-4.29,1.5,8.59,8.59,0,0,1-2.55-.4,8.2,8.2,0,0,1-2.32-1.13,8.31,8.31,0,0,1-1.85-1.8,7,7,0,0,1-1.13-2.35,9.79,9.79,0,0,1-.32-4,7.1,7.1,0,0,1,1.2-3.09,6.46,6.46,0,0,1,2.27-2,7.09,7.09,0,0,1,2.87-.8l.33,0,.33,0a7.83,7.83,0,0,1,2.89.49,6.09,6.09,0,0,1,3.4,3.33A9.31,9.31,0,0,1,75.87,44Zm-.57-.5a9.58,9.58,0,0,0,2.65-2.37,6.15,6.15,0,0,0,1.14-2.52,5.22,5.22,0,0,0,0-1.85,4.74,4.74,0,0,0-.62-1.61,3.94,3.94,0,0,0-1.07-1.15,2.38,2.38,0,0,0-1.38-.44h-.16a3.6,3.6,0,0,0-1.44.36,2.77,2.77,0,0,0-1.12,1.06,4.08,4.08,0,0,0-.5,1.91A9.7,9.7,0,0,0,65.53,45a7.43,7.43,0,0,0,.8,2A8.81,8.81,0,0,0,67.64,48.67Z"/><path class="cls-1" d="M90.5,52a2.83,2.83,0,0,0-1.42-.38,4,4,0,0,0-2.23.88,6.81,6.81,0,0,1-1.42.73,4.38,4.38,0,0,1-1.55.28,5.29,5.29,0,0,1-2.65-.66,6.63,6.63,0,0,1-2-1.72A8.14,8.14,0,0,1,78,48.73a8.82,8.82,0,0,1-.42-2.68,9.18,9.18,0,0,1,.52-3,8.55,8.55,0,0,1,1.48-2.66,7.48,7.48,0,0,1,2.32-1.89,6.22,6.22,0,0,1,3-.73,6.43,6.43,0,0,1,1.86.29,5.37,5.37,0,0,1,1.68.82V33.24a3.12,3.12,0,0,0-.11-.94.88.88,0,0,0-.37-.47,1.47,1.47,0,0,0-.63-.21l-.91-.11v-.44l6.27-.63V53.17Zm-2-12.43A3.1,3.1,0,0,0,87.37,39a5.84,5.84,0,0,0-1.25-.14,3.22,3.22,0,0,0-2,.63,4.83,4.83,0,0,0-1.32,1.58,7.42,7.42,0,0,0-.73,2.06,11.54,11.54,0,0,0-.22,2.1,10.79,10.79,0,0,0,.21,2,8.14,8.14,0,0,0,.66,2.08A4.53,4.53,0,0,0,83.93,51a2.87,2.87,0,0,0,1.91.65,2.69,2.69,0,0,0,1.45-.46,6,6,0,0,0,1.2-1Z"/><path class="cls-1" d="M20.41,74.73,15.58,61.94h1.59l3.41,9.17c.07.2.16.43.24.68s.18.5.26.75.16.46.23.66h.13c.06-.19.13-.4.22-.65s.17-.49.26-.74l.24-.68,3.38-9.19h1.54L22.24,74.73Z"/><path class="cls-1" d="M28.58,62.91V61.25h1.34v1.66Zm0,11.82V64.92h1.34v9.81Z"/><path class="cls-1" d="M32.54,74.73V64.92h1.07l.13,1.55h.13a3.43,3.43,0,0,1,.93-1,3.3,3.3,0,0,1,1.13-.55,4.47,4.47,0,0,1,1.29-.17,3.92,3.92,0,0,1,1.63.31,2.23,2.23,0,0,1,1.09,1,3.74,3.74,0,0,1,.4,1.89v6.84H39V68A2.94,2.94,0,0,0,38.83,67a1.64,1.64,0,0,0-.47-.64,1.81,1.81,0,0,0-.7-.33,4,4,0,0,0-.88-.09,2.86,2.86,0,0,0-2.48,1.4,3,3,0,0,0-.41,1.64v5.8Z"/><path class="cls-1" d="M45,74.93a2.09,2.09,0,0,1-1.07-.24,1.31,1.31,0,0,1-.56-.67,2.91,2.91,0,0,1-.16-1v-7H41.9V64.92h1.32l.27-2.72h1.08v2.72h1.88v1.14H44.57v6.76a1.47,1.47,0,0,0,.14.75c.09.16.3.24.62.24h1.12v.86a3.27,3.27,0,0,1-.44.14l-.51.09Z"/><path class="cls-1" d="M50.68,75a4.87,4.87,0,0,1-1.14-.14,2.93,2.93,0,0,1-1-.45,2.1,2.1,0,0,1-.69-.83,2.75,2.75,0,0,1-.27-1.28,2.63,2.63,0,0,1,.5-1.65,3.2,3.2,0,0,1,1.39-1,7.62,7.62,0,0,1,2.11-.49A24.42,24.42,0,0,1,54.24,69V67.72a2.14,2.14,0,0,0-.22-1,1.41,1.41,0,0,0-.74-.65,3.81,3.81,0,0,0-1.5-.23,3.69,3.69,0,0,0-1.47.24,1.56,1.56,0,0,0-.76.62,1.76,1.76,0,0,0-.21.85v.3H48.05a1.11,1.11,0,0,1,0-.19v-.22a2.32,2.32,0,0,1,.49-1.53A2.79,2.79,0,0,1,49.9,65,6.41,6.41,0,0,1,52,64.7a5,5,0,0,1,2,.34,2.71,2.71,0,0,1,1.23,1,2.62,2.62,0,0,1,.43,1.53v5.63a.7.7,0,0,0,.14.49.48.48,0,0,0,.38.14h.78v.86a4.92,4.92,0,0,1-.58.19,2.73,2.73,0,0,1-.64.07,1.36,1.36,0,0,1-.78-.2,1.12,1.12,0,0,1-.41-.58,4,4,0,0,1-.16-.82h-.13a3.22,3.22,0,0,1-.9.86,4.38,4.38,0,0,1-1.2.56A4.88,4.88,0,0,1,50.68,75ZM51,73.81a3.67,3.67,0,0,0,1.19-.2A4,4,0,0,0,53.2,73a3,3,0,0,0,.75-.87,2.22,2.22,0,0,0,.29-1.12v-1a19.48,19.48,0,0,0-2.9.18,3.81,3.81,0,0,0-1.75.66,1.76,1.76,0,0,0-.34,2.22,1.44,1.44,0,0,0,.7.53A2.71,2.71,0,0,0,51,73.81Z"/><path class="cls-1" d="M60,78.12a2.91,2.91,0,0,1-1.31-.31,2.36,2.36,0,0,1-1-.86,2.43,2.43,0,0,1,.08-2.67,2.61,2.61,0,0,1,1.11-.86,1.68,1.68,0,0,1-.75-.61,1.71,1.71,0,0,1-.26-.9,1.49,1.49,0,0,1,.47-1.09,2.34,2.34,0,0,1,1.14-.61,3,3,0,0,1-1-1,2.62,2.62,0,0,1-.37-1.36,3,3,0,0,1,.43-1.61,2.9,2.9,0,0,1,1.3-1.1A5.13,5.13,0,0,1,62,64.7a7,7,0,0,1,1.15.09,4.49,4.49,0,0,1,1,.28,2.13,2.13,0,0,0,1-.7,2.4,2.4,0,0,0,.47-1H67a2.4,2.4,0,0,1-.26,1,2.33,2.33,0,0,1-.67.82,2.12,2.12,0,0,1-1,.43,2.74,2.74,0,0,1,.71,1,3.15,3.15,0,0,1,.22,1.19,2.94,2.94,0,0,1-.42,1.58,2.85,2.85,0,0,1-1.26,1.1,4.91,4.91,0,0,1-2.17.41H60.52a1.75,1.75,0,0,0-.91.22.84.84,0,0,0,0,1.39,1.65,1.65,0,0,0,.93.24H64.4a2.29,2.29,0,0,1,1.76.73,2.57,2.57,0,0,1,.68,1.82,2.73,2.73,0,0,1-1.46,2.44,3.29,3.29,0,0,1-1.6.38Zm.3-1.07h3.48a1.81,1.81,0,0,0,.88-.2,1.62,1.62,0,0,0,.62-.57,1.37,1.37,0,0,0,.24-.77,1.61,1.61,0,0,0-.41-1.14,1.4,1.4,0,0,0-1-.43H60.26a1.5,1.5,0,0,0-1.1.46,1.49,1.49,0,0,0-.47,1.11,1.45,1.45,0,0,0,.46,1.13A1.56,1.56,0,0,0,60.26,77.05ZM62,69.84A2.85,2.85,0,0,0,64,69.29a1.85,1.85,0,0,0,.62-1.48,1.89,1.89,0,0,0-.62-1.5A2.85,2.85,0,0,0,62,65.76a2.8,2.8,0,0,0-1.9.55,1.91,1.91,0,0,0-.64,1.5,2,2,0,0,0,.28,1,1.8,1.8,0,0,0,.85.73A3.29,3.29,0,0,0,62,69.84Z"/><path class="cls-1" d="M72.13,75a4.72,4.72,0,0,1-2.37-.55,3.55,3.55,0,0,1-1.47-1.69,8.6,8.6,0,0,1,0-5.78,3.42,3.42,0,0,1,1.49-1.68,5,5,0,0,1,2.46-.55,4.49,4.49,0,0,1,2.29.54,3.41,3.41,0,0,1,1.39,1.56,6,6,0,0,1,.48,2.52v.86H69.19a5.26,5.26,0,0,0,.35,2.1,2.42,2.42,0,0,0,1,1.19,3.36,3.36,0,0,0,1.63.36,3.63,3.63,0,0,0,1.24-.19,2.33,2.33,0,0,0,.87-.51,2.17,2.17,0,0,0,.53-.77,2.31,2.31,0,0,0,.19-.93h1.3a3.52,3.52,0,0,1-.27,1.37,3.33,3.33,0,0,1-.78,1.12,3.42,3.42,0,0,1-1.29.76A5.73,5.73,0,0,1,72.13,75Zm-2.94-5.83H75a4.94,4.94,0,0,0-.21-1.56,2.75,2.75,0,0,0-.59-1,2.16,2.16,0,0,0-.89-.55,3.69,3.69,0,0,0-1.14-.17,3.34,3.34,0,0,0-1.57.35,2.25,2.25,0,0,0-1,1.07A5.22,5.22,0,0,0,69.19,69.12Z"/><path class="cls-1" d="M13.46,92.94a7,7,0,0,1-3.31-.72A4.77,4.77,0,0,1,8.1,90a8.67,8.67,0,0,1-.7-3.69,6.88,6.88,0,0,1,1.61-5,6,6,0,0,1,4.49-1.65,7.48,7.48,0,0,1,2.91.53,4.41,4.41,0,0,1,2,1.59,4.62,4.62,0,0,1,.72,2.67H17.62a3.51,3.51,0,0,0-.51-2,3,3,0,0,0-1.42-1.16A5.87,5.87,0,0,0,13.48,81a5.13,5.13,0,0,0-2.41.54,3.62,3.62,0,0,0-1.58,1.69,6.87,6.87,0,0,0-.56,3v.39a6.57,6.57,0,0,0,.56,2.92,3.5,3.5,0,0,0,1.58,1.64,5.31,5.31,0,0,0,2.43.53,5.79,5.79,0,0,0,2.22-.39,3,3,0,0,0,1.43-1.15,3.56,3.56,0,0,0,.5-2h1.46a4.66,4.66,0,0,1-.74,2.71,4.41,4.41,0,0,1-2,1.57A7.79,7.79,0,0,1,13.46,92.94Z"/><path class="cls-1" d="M23.79,92.94a4.34,4.34,0,0,1-1.14-.14,3,3,0,0,1-1-.44,2.29,2.29,0,0,1-.7-.83,2.93,2.93,0,0,1-.26-1.29,2.63,2.63,0,0,1,.5-1.65,3.15,3.15,0,0,1,1.38-1,7.77,7.77,0,0,1,2.12-.5A24.24,24.24,0,0,1,27.34,87V85.71a2.22,2.22,0,0,0-.21-1,1.45,1.45,0,0,0-.75-.66,3.93,3.93,0,0,0-1.5-.23,3.69,3.69,0,0,0-1.47.24,1.55,1.55,0,0,0-.75.63,1.63,1.63,0,0,0-.22.85v.29H21.16a.55.55,0,0,1,0-.18v-.23a2.33,2.33,0,0,1,.48-1.52A3,3,0,0,1,23,83a6.46,6.46,0,0,1,2.05-.3A5,5,0,0,1,27,83a2.75,2.75,0,0,1,1.23,1,2.69,2.69,0,0,1,.43,1.52v5.63a.68.68,0,0,0,.14.5.52.52,0,0,0,.38.14H30v.85a3.4,3.4,0,0,1-.59.19,2.61,2.61,0,0,1-.64.08,1.28,1.28,0,0,1-.77-.21,1.07,1.07,0,0,1-.41-.58,3.41,3.41,0,0,1-.16-.82h-.13a3.29,3.29,0,0,1-.91.87,4.4,4.4,0,0,1-1.2.56A4.81,4.81,0,0,1,23.79,92.94Zm.27-1.13a3.53,3.53,0,0,0,1.2-.21,3.4,3.4,0,0,0,1-.57,3.12,3.12,0,0,0,.76-.86,2.24,2.24,0,0,0,.28-1.12V88a17.94,17.94,0,0,0-2.89.19,3.71,3.71,0,0,0-1.75.65,1.78,1.78,0,0,0-.34,2.23,1.44,1.44,0,0,0,.7.53A2.87,2.87,0,0,0,24.06,91.81Z"/><path class="cls-1" d="M31.39,92.72v-9.8h1.06l.13,1.54h.13a4.13,4.13,0,0,1,.9-1,3.07,3.07,0,0,1,1.06-.55,4.4,4.4,0,0,1,1.23-.17,3.5,3.5,0,0,1,1.7.4,2.27,2.27,0,0,1,1,1.37h.11a4,4,0,0,1,.88-1,3.14,3.14,0,0,1,1.07-.56,4.23,4.23,0,0,1,1.24-.18,3.76,3.76,0,0,1,1.55.3,2.19,2.19,0,0,1,1,1,3.79,3.79,0,0,1,.38,1.86v6.88H43.54V86a2.9,2.9,0,0,0-.16-1A1.39,1.39,0,0,0,43,84.3a1.69,1.69,0,0,0-.66-.32,3.38,3.38,0,0,0-.8-.09,2.51,2.51,0,0,0-1.31.36,2.73,2.73,0,0,0-1,1,3.24,3.24,0,0,0-.38,1.64v5.8H37.47V86a3.15,3.15,0,0,0-.15-1,1.39,1.39,0,0,0-.43-.64,1.68,1.68,0,0,0-.64-.32,3.33,3.33,0,0,0-.78-.09,2.6,2.6,0,0,0-1.33.36,2.8,2.8,0,0,0-1,1,3.24,3.24,0,0,0-.39,1.64v5.8Z"/><path class="cls-1" d="M51.18,92.94a4.66,4.66,0,0,1-2.36-.55,3.45,3.45,0,0,1-1.48-1.68,8.63,8.63,0,0,1,0-5.79,3.56,3.56,0,0,1,1.49-1.68,5.08,5.08,0,0,1,2.46-.55,4.49,4.49,0,0,1,2.29.54A3.51,3.51,0,0,1,55,84.8a6.06,6.06,0,0,1,.47,2.52v.85H48.24a5.5,5.5,0,0,0,.35,2.11,2.35,2.35,0,0,0,1,1.18,3.36,3.36,0,0,0,1.63.37,3.89,3.89,0,0,0,1.24-.19,2.47,2.47,0,0,0,.87-.51,2.37,2.37,0,0,0,.54-.78,2.44,2.44,0,0,0,.18-.93h1.31a3.49,3.49,0,0,1-.27,1.37,3.17,3.17,0,0,1-.79,1.13,3.54,3.54,0,0,1-1.29.75A5.68,5.68,0,0,1,51.18,92.94Zm-2.94-5.83h5.81a5,5,0,0,0-.21-1.56,2.58,2.58,0,0,0-.59-1,2.09,2.09,0,0,0-.88-.55,3.8,3.8,0,0,0-1.15-.17,3.34,3.34,0,0,0-1.57.34,2.27,2.27,0,0,0-1,1.08A5.11,5.11,0,0,0,48.24,87.11Z"/><path class="cls-1" d="M57.48,92.72v-9.8h1.08l.11,1.64h.14a3.25,3.25,0,0,1,.39-.88,2.19,2.19,0,0,1,.71-.71A2.12,2.12,0,0,1,61,82.69a2.46,2.46,0,0,1,.49,0l.33.08v1.23h-.58a2.39,2.39,0,0,0-1.11.24,2,2,0,0,0-.77.66,3,3,0,0,0-.44,1,4.75,4.75,0,0,0-.14,1.14v5.65Z"/><path class="cls-1" d="M65.65,92.94a4.34,4.34,0,0,1-1.14-.14,3,3,0,0,1-1-.44,2.29,2.29,0,0,1-.7-.83,2.93,2.93,0,0,1-.26-1.29,2.63,2.63,0,0,1,.5-1.65,3.21,3.21,0,0,1,1.38-1,7.77,7.77,0,0,1,2.12-.5A24.3,24.3,0,0,1,69.21,87V85.71a2.22,2.22,0,0,0-.22-1,1.47,1.47,0,0,0-.74-.66,4,4,0,0,0-1.5-.23,3.71,3.71,0,0,0-1.48.24,1.55,1.55,0,0,0-.75.63,1.73,1.73,0,0,0-.22.85v.29H63a.55.55,0,0,1,0-.18v-.23a2.33,2.33,0,0,1,.48-1.52,3,3,0,0,1,1.38-.9,6.46,6.46,0,0,1,2-.3,5,5,0,0,1,2,.35,2.75,2.75,0,0,1,1.23,1,2.69,2.69,0,0,1,.43,1.52v5.63a.68.68,0,0,0,.14.5.52.52,0,0,0,.38.14h.78v.85a3.4,3.4,0,0,1-.59.19,2.61,2.61,0,0,1-.64.08,1.28,1.28,0,0,1-.77-.21,1.12,1.12,0,0,1-.41-.58,3.41,3.41,0,0,1-.16-.82h-.13a3.39,3.39,0,0,1-.9.87,4.61,4.61,0,0,1-1.21.56A4.81,4.81,0,0,1,65.65,92.94Zm.27-1.13a3.53,3.53,0,0,0,1.2-.21,3.4,3.4,0,0,0,1-.57,3.12,3.12,0,0,0,.76-.86,2.25,2.25,0,0,0,.29-1.12V88a18,18,0,0,0-2.9.19,3.71,3.71,0,0,0-1.75.65,1.78,1.78,0,0,0-.34,2.23,1.44,1.44,0,0,0,.7.53A2.87,2.87,0,0,0,65.92,91.81Z"/><path class="cls-1" d="M76.51,92.94a6.77,6.77,0,0,1-1.71-.19,3.32,3.32,0,0,1-1.24-.58,2.46,2.46,0,0,1-.75-.92A2.91,2.91,0,0,1,72.56,90v-.16a.78.78,0,0,1,0-.16H73.9a1.15,1.15,0,0,0,0,.16V90a1.62,1.62,0,0,0,1.31,1.7,5.45,5.45,0,0,0,1.41.17,3.66,3.66,0,0,0,1.24-.2,2,2,0,0,0,.88-.57,1.32,1.32,0,0,0,.33-.91,1.31,1.31,0,0,0-.42-1.05,3.28,3.28,0,0,0-1.09-.55l-1.4-.41L75,87.77a5.05,5.05,0,0,1-1-.49,2.15,2.15,0,0,1-1-1.94,2.32,2.32,0,0,1,.25-1.1,2.4,2.4,0,0,1,.73-.83A3.36,3.36,0,0,1,75,82.88a6.19,6.19,0,0,1,1.57-.19,5.41,5.41,0,0,1,1.66.23,3.16,3.16,0,0,1,1.11.6,2.48,2.48,0,0,1,.64.86,2.62,2.62,0,0,1,.2,1,.92.92,0,0,1,0,.16c0,.07,0,.12,0,.17H78.86v-.24a1.55,1.55,0,0,0-.89-1.4,3.23,3.23,0,0,0-1.46-.26,4.82,4.82,0,0,0-1,.1,2.5,2.5,0,0,0-.7.29,1.17,1.17,0,0,0-.43.46,1.26,1.26,0,0,0-.14.62,1,1,0,0,0,.34.83,2.51,2.51,0,0,0,.91.47l1.19.38,1.29.39a7.2,7.2,0,0,1,1.23.51,2.35,2.35,0,0,1,.89.79,2.29,2.29,0,0,1,.34,1.29,2.79,2.79,0,0,1-.3,1.32,2.65,2.65,0,0,1-.82.94,3.81,3.81,0,0,1-1.24.56A6.42,6.42,0,0,1,76.51,92.94Z"/><path class="cls-1" d="M82.63,95.31v-.67a.89.89,0,0,0,.54-.35,1.79,1.79,0,0,0,.29-.67,3.49,3.49,0,0,0,.1-.9h-.71V91h1.56v1.55a3.84,3.84,0,0,1-.28,1.64,1.94,1.94,0,0,1-.71.82A2.57,2.57,0,0,1,82.63,95.31Z"/><path class="cls-1" d="M18.65,110.72V97.93h1.47v11.5h6.32v1.29Z"/><path class="cls-1" d="M31.73,110.94a4.66,4.66,0,0,1-2.36-.55,3.52,3.52,0,0,1-1.48-1.69,8.6,8.6,0,0,1,0-5.78,3.44,3.44,0,0,1,1.5-1.68,4.92,4.92,0,0,1,2.46-.55,4.47,4.47,0,0,1,2.28.54,3.49,3.49,0,0,1,1.4,1.56,6.13,6.13,0,0,1,.47,2.52v.86H28.79a5.44,5.44,0,0,0,.35,2.1,2.42,2.42,0,0,0,1,1.19,3.36,3.36,0,0,0,1.63.36,3.63,3.63,0,0,0,1.24-.19,2.27,2.27,0,0,0,1.59-2.21h1.31a3.52,3.52,0,0,1-.27,1.37,3.22,3.22,0,0,1-.79,1.12,3.42,3.42,0,0,1-1.29.76A5.68,5.68,0,0,1,31.73,110.94Zm-2.94-5.83H34.6a4.94,4.94,0,0,0-.21-1.56,2.62,2.62,0,0,0-.59-1,2.19,2.19,0,0,0-.88-.55,3.76,3.76,0,0,0-1.15-.16,3.27,3.27,0,0,0-1.56.34,2.27,2.27,0,0,0-1,1.07A5.22,5.22,0,0,0,28.79,105.11Z"/><path class="cls-1" d="M38,110.72v-9.81H39.1l.13,1.55h.13a3.43,3.43,0,0,1,.93-1,3.3,3.3,0,0,1,1.13-.55,4.47,4.47,0,0,1,1.29-.17,3.92,3.92,0,0,1,1.63.31,2.23,2.23,0,0,1,1.09,1,3.86,3.86,0,0,1,.39,1.89v6.84H44.48V104a2.73,2.73,0,0,0-.17-1.07,1.53,1.53,0,0,0-.46-.64,2,2,0,0,0-.7-.33,4.06,4.06,0,0,0-.89-.09,2.86,2.86,0,0,0-2.47,1.4,3,3,0,0,0-.41,1.64v5.8Z"/><path class="cls-1" d="M51.6,110.94a6.75,6.75,0,0,1-1.71-.2,3.47,3.47,0,0,1-1.24-.57,2.57,2.57,0,0,1-.75-.93,2.88,2.88,0,0,1-.25-1.25v-.15a.78.78,0,0,1,0-.16H49a1,1,0,0,0,0,.16V108a1.76,1.76,0,0,0,.36,1.12,1.78,1.78,0,0,0,1,.57,5.45,5.45,0,0,0,1.41.17,3.67,3.67,0,0,0,1.24-.19,2.14,2.14,0,0,0,.88-.57,1.35,1.35,0,0,0,.33-.92,1.29,1.29,0,0,0-.42-1,2.94,2.94,0,0,0-1.09-.55l-1.4-.42c-.4-.11-.79-.23-1.18-.36a5.08,5.08,0,0,1-1-.5,2.18,2.18,0,0,1-.75-.76,2.22,2.22,0,0,1-.28-1.18,2.28,2.28,0,0,1,.25-1.09,2.31,2.31,0,0,1,.73-.83,3.56,3.56,0,0,1,1.16-.54,6.22,6.22,0,0,1,1.57-.18,5.32,5.32,0,0,1,1.65.22,3,3,0,0,1,1.12.61,2.39,2.39,0,0,1,.64.86,2.54,2.54,0,0,1,.2,1,1,1,0,0,1,0,.17c0,.06,0,.12,0,.17H54v-.24a1.64,1.64,0,0,0-.2-.77,1.53,1.53,0,0,0-.69-.63,3.1,3.1,0,0,0-1.46-.26,4.22,4.22,0,0,0-1,.1,2.23,2.23,0,0,0-.7.29,1.09,1.09,0,0,0-.43.45,1.27,1.27,0,0,0-.14.63,1,1,0,0,0,.34.83,2.51,2.51,0,0,0,.91.46l1.19.39,1.29.39a6.46,6.46,0,0,1,1.23.5,2.43,2.43,0,0,1,.89.79,2.3,2.3,0,0,1,.34,1.3,2.75,2.75,0,0,1-.3,1.31,2.65,2.65,0,0,1-.82.94,3.62,3.62,0,0,1-1.24.56A6,6,0,0,1,51.6,110.94Z"/><path class="cls-1" d="M61.35,110.94a4.72,4.72,0,0,1-2.37-.55,3.5,3.5,0,0,1-1.47-1.69,8.6,8.6,0,0,1,0-5.78A3.37,3.37,0,0,1,59,101.24a5,5,0,0,1,2.46-.55,4.42,4.42,0,0,1,2.28.54,3.38,3.38,0,0,1,1.4,1.56,6,6,0,0,1,.48,2.52v.86H58.4a5.25,5.25,0,0,0,.36,2.1,2.35,2.35,0,0,0,1,1.19,3.39,3.39,0,0,0,1.63.36,3.55,3.55,0,0,0,1.24-.19,2.3,2.3,0,0,0,.88-.51,2.17,2.17,0,0,0,.53-.77,2.31,2.31,0,0,0,.19-.93h1.3a3.52,3.52,0,0,1-.27,1.37,3.33,3.33,0,0,1-.78,1.12,3.39,3.39,0,0,1-1.3.76A5.62,5.62,0,0,1,61.35,110.94Zm-3-5.83h5.82a4.65,4.65,0,0,0-.22-1.56,2.61,2.61,0,0,0-.58-1,2.22,2.22,0,0,0-.89-.55,3.7,3.7,0,0,0-1.14-.16,3.31,3.31,0,0,0-1.57.34,2.31,2.31,0,0,0-1,1.07A5.22,5.22,0,0,0,58.4,105.11Z"/><path class="cls-1" d="M70.91,110.94a6.69,6.69,0,0,1-1.71-.2,3.47,3.47,0,0,1-1.24-.57,2.57,2.57,0,0,1-.75-.93A2.88,2.88,0,0,1,67,108v-.15a.41.41,0,0,1,0-.16H68.3a1,1,0,0,0,0,.16V108a1.71,1.71,0,0,0,.36,1.12,1.78,1.78,0,0,0,1,.57,5.45,5.45,0,0,0,1.41.17,3.67,3.67,0,0,0,1.24-.19,2.14,2.14,0,0,0,.88-.57,1.34,1.34,0,0,0,.32-.92,1.31,1.31,0,0,0-.41-1,2.94,2.94,0,0,0-1.09-.55l-1.4-.42c-.4-.11-.79-.23-1.18-.36a5.08,5.08,0,0,1-1-.5,2.18,2.18,0,0,1-.75-.76,2.22,2.22,0,0,1-.28-1.18,2.28,2.28,0,0,1,.25-1.09,2.38,2.38,0,0,1,.72-.83,3.72,3.72,0,0,1,1.17-.54,6.19,6.19,0,0,1,1.56-.18,5.38,5.38,0,0,1,1.66.22,3,3,0,0,1,1.12.61,2.39,2.39,0,0,1,.64.86,2.54,2.54,0,0,1,.2,1,1,1,0,0,1,0,.17,1,1,0,0,0,0,.17H73.26v-.24a1.64,1.64,0,0,0-.2-.77,1.53,1.53,0,0,0-.69-.63,3.12,3.12,0,0,0-1.46-.26,4.17,4.17,0,0,0-1,.1,2.14,2.14,0,0,0-.7.29,1.09,1.09,0,0,0-.43.45,1.27,1.27,0,0,0-.14.63,1,1,0,0,0,.34.83,2.54,2.54,0,0,0,.9.46l1.2.39,1.29.39a6.36,6.36,0,0,1,1.22.5,2.47,2.47,0,0,1,.9.79,2.3,2.3,0,0,1,.33,1.3,2.87,2.87,0,0,1-.29,1.31,2.75,2.75,0,0,1-.82.94,3.7,3.7,0,0,1-1.24.56A6,6,0,0,1,70.91,110.94Z"/><path class="cls-1" d="M15,128.93a4.4,4.4,0,0,1-1.14-.14,3.11,3.11,0,0,1-1-.44,2.17,2.17,0,0,1-.69-.83,2.8,2.8,0,0,1-.26-1.29,2.63,2.63,0,0,1,.49-1.65,3.19,3.19,0,0,1,1.39-1,7.6,7.6,0,0,1,2.11-.5c.82-.08,1.7-.13,2.66-.13V121.7a2.12,2.12,0,0,0-.22-1,1.47,1.47,0,0,0-.74-.66,4,4,0,0,0-1.5-.23,3.69,3.69,0,0,0-1.47.24,1.58,1.58,0,0,0-.76.63,1.73,1.73,0,0,0-.21.85v.29H12.34a1.1,1.1,0,0,1,0-.18v-.23a2.28,2.28,0,0,1,.49-1.52,2.87,2.87,0,0,1,1.38-.9,6.41,6.41,0,0,1,2-.3,5,5,0,0,1,2,.35,2.65,2.65,0,0,1,1.23,1,2.61,2.61,0,0,1,.43,1.52v5.63a.73.73,0,0,0,.14.5.52.52,0,0,0,.38.14h.78v.85a3.58,3.58,0,0,1-.58.19,2.74,2.74,0,0,1-.64.08,1.29,1.29,0,0,1-.78-.21,1.12,1.12,0,0,1-.41-.58,4,4,0,0,1-.16-.82h-.13a3.12,3.12,0,0,1-.9.87,4.7,4.7,0,0,1-1.2.56A4.88,4.88,0,0,1,15,128.93Zm.28-1.13a3.74,3.74,0,0,0,2.24-.78,3.08,3.08,0,0,0,.75-.86,2.25,2.25,0,0,0,.29-1.12v-1a18.08,18.08,0,0,0-2.9.19,3.71,3.71,0,0,0-1.75.65,1.59,1.59,0,0,0-.59,1.31,1.64,1.64,0,0,0,.25.92,1.44,1.44,0,0,0,.7.53A2.93,2.93,0,0,0,15.25,127.8Z"/><path class="cls-1" d="M22.57,128.71v-9.8h1.07l.13,1.54h.13a3.69,3.69,0,0,1,.93-1,3.49,3.49,0,0,1,1.13-.55,4.85,4.85,0,0,1,1.29-.17,4.08,4.08,0,0,1,1.63.31A2.3,2.3,0,0,1,30,120a3.84,3.84,0,0,1,.39,1.88v6.84H29V122a2.67,2.67,0,0,0-.17-1.06,1.47,1.47,0,0,0-.46-.64,1.68,1.68,0,0,0-.7-.33,4.06,4.06,0,0,0-.89-.09,2.89,2.89,0,0,0-1.4.36,2.86,2.86,0,0,0-1.07,1,3.05,3.05,0,0,0-.41,1.64v5.8Z"/><path class="cls-1" d="M36.2,128.93a3.89,3.89,0,0,1-2.09-.54,3.35,3.35,0,0,1-1.33-1.68,8.1,8.1,0,0,1-.46-3,7.44,7.44,0,0,1,.47-2.85,3.41,3.41,0,0,1,1.33-1.65,3.79,3.79,0,0,1,2-.54,4.56,4.56,0,0,1,1.19.15,2.94,2.94,0,0,1,1.79,1.34h.11v-4.93H40.6v13.47H39.55l-.15-1.43h-.13a3.36,3.36,0,0,1-1.33,1.24A3.72,3.72,0,0,1,36.2,128.93Zm.22-1.17a2.71,2.71,0,0,0,1.63-.45A2.49,2.49,0,0,0,39,126a6.18,6.18,0,0,0,.29-2v-.34a6.36,6.36,0,0,0-.23-1.9,2.9,2.9,0,0,0-.63-1.16,2.13,2.13,0,0,0-.89-.56,3,3,0,0,0-1-.16,2.85,2.85,0,0,0-1.55.38,2.25,2.25,0,0,0-.93,1.2,6.09,6.09,0,0,0-.31,2.14v.47a5.94,5.94,0,0,0,.33,2.19,2.36,2.36,0,0,0,1,1.17A2.79,2.79,0,0,0,36.42,127.76Z"/><path class="cls-1" d="M47.6,128.71V115.92h9v1.27H49.08v4.42h6.85v1.27H49.08v5.83Z"/><path class="cls-1" d="M58.66,116.89v-1.65H60v1.65Zm0,11.82v-9.8H60v9.8Z"/><path class="cls-1" d="M62.63,128.71V115.24H64v13.47Z"/><path class="cls-1" d="M66.59,128.71v-9.8h1.07l.13,1.54h.13a4.1,4.1,0,0,1,.89-1,3.2,3.2,0,0,1,1.07-.55,4.4,4.4,0,0,1,1.23-.17,3.46,3.46,0,0,1,1.69.4,2.28,2.28,0,0,1,1,1.37h.11a3.76,3.76,0,0,1,.87-1,3.48,3.48,0,0,1,1.08-.56,4.18,4.18,0,0,1,1.24-.18,3.71,3.71,0,0,1,1.54.3,2.25,2.25,0,0,1,1.06,1,3.9,3.9,0,0,1,.38,1.86v6.88H78.75V122a3.13,3.13,0,0,0-.16-1,1.46,1.46,0,0,0-.44-.64,1.65,1.65,0,0,0-.65-.32,3.44,3.44,0,0,0-.8-.09,2.54,2.54,0,0,0-1.32.36,2.88,2.88,0,0,0-1,1,3.34,3.34,0,0,0-.38,1.64v5.8H72.67V122a3.15,3.15,0,0,0-.15-1,1.37,1.37,0,0,0-.43-.64,1.61,1.61,0,0,0-.64-.32,3.19,3.19,0,0,0-.77-.09,2.64,2.64,0,0,0-1.34.36,2.85,2.85,0,0,0-1,1,3.24,3.24,0,0,0-.39,1.64v5.8Z"/><path class="cls-1" d="M5.91,146.71V133.92H15.7v1.27H7.38v4.32h7.5v1.29H7.38v4.64h8.43v1.27Z"/><path class="cls-1" d="M21.44,146.93a6.83,6.83,0,0,1-1.72-.2,3.55,3.55,0,0,1-1.24-.57,2.55,2.55,0,0,1-.74-.93,2.88,2.88,0,0,1-.25-1.25v-.15a.81.81,0,0,1,0-.16h1.33a1,1,0,0,0,0,.16V144a1.76,1.76,0,0,0,.35,1.12,1.82,1.82,0,0,0,.95.57,5.53,5.53,0,0,0,1.42.17,3.71,3.71,0,0,0,1.24-.19,2.14,2.14,0,0,0,.88-.57,1.39,1.39,0,0,0,.32-.92,1.29,1.29,0,0,0-.42-1,2.86,2.86,0,0,0-1.09-.55l-1.4-.42-1.17-.36a4.63,4.63,0,0,1-1.05-.5,2.1,2.1,0,0,1-1-1.93,2.44,2.44,0,0,1,.25-1.1,2.31,2.31,0,0,1,.73-.83,3.72,3.72,0,0,1,1.17-.54,6.19,6.19,0,0,1,1.56-.18,5.38,5.38,0,0,1,1.66.22,3.07,3.07,0,0,1,1.12.61,2.47,2.47,0,0,1,.84,1.85s0,.11,0,.17a1,1,0,0,0,0,.17H23.79v-.24a1.64,1.64,0,0,0-.2-.77,1.53,1.53,0,0,0-.69-.63,3.15,3.15,0,0,0-1.46-.26,4.17,4.17,0,0,0-1,.1,2.2,2.2,0,0,0-.71.29,1.23,1.23,0,0,0-.43.45,1.42,1.42,0,0,0-.14.63,1,1,0,0,0,.35.83,2.54,2.54,0,0,0,.9.46l1.2.39,1.29.39a6.36,6.36,0,0,1,1.22.5,2.55,2.55,0,0,1,.9.79,2.3,2.3,0,0,1,.33,1.3,2.75,2.75,0,0,1-.3,1.31,2.57,2.57,0,0,1-.82.94,3.62,3.62,0,0,1-1.24.56A5.83,5.83,0,0,1,21.44,146.93Z"/><path class="cls-1" d="M30.66,146.93a6.8,6.8,0,0,1-1.71-.2,3.47,3.47,0,0,1-1.24-.57,2.57,2.57,0,0,1-.75-.93,3,3,0,0,1-.25-1.25v-.15a.78.78,0,0,1,0-.16h1.32a.92.92,0,0,0,0,.16V144a1.76,1.76,0,0,0,.35,1.12,1.78,1.78,0,0,0,.95.57,5.47,5.47,0,0,0,1.42.17,3.71,3.71,0,0,0,1.24-.19,2.17,2.17,0,0,0,.87-.57,1.35,1.35,0,0,0,.33-.92,1.29,1.29,0,0,0-.42-1,2.86,2.86,0,0,0-1.09-.55l-1.4-.42q-.6-.17-1.17-.36a4.93,4.93,0,0,1-1.06-.5,2.27,2.27,0,0,1-.75-.76,2.2,2.2,0,0,1-.28-1.17,2.27,2.27,0,0,1,1-1.93,3.56,3.56,0,0,1,1.16-.54,6.22,6.22,0,0,1,1.57-.18,5.43,5.43,0,0,1,1.66.22,2.94,2.94,0,0,1,1.11.61,2.38,2.38,0,0,1,.84,1.85,1,1,0,0,1,0,.17c0,.06,0,.12,0,.17H33v-.24a1.62,1.62,0,0,0-.19-.77,1.53,1.53,0,0,0-.69-.63,3.17,3.17,0,0,0-1.47-.26,4.14,4.14,0,0,0-1,.1,2.2,2.2,0,0,0-.71.29,1.09,1.09,0,0,0-.43.45,1.42,1.42,0,0,0-.14.63,1,1,0,0,0,.34.83,2.51,2.51,0,0,0,.91.46l1.19.39,1.3.39a6.64,6.64,0,0,1,1.22.5,2.43,2.43,0,0,1,.89.79,2.3,2.3,0,0,1,.34,1.3,2.75,2.75,0,0,1-.3,1.31,2.57,2.57,0,0,1-.82.94,3.62,3.62,0,0,1-1.24.56A6,6,0,0,1,30.66,146.93Z"/><path class="cls-1" d="M40.41,146.93a4.72,4.72,0,0,1-2.37-.55,3.55,3.55,0,0,1-1.47-1.69,8.6,8.6,0,0,1,0-5.78,3.42,3.42,0,0,1,1.49-1.68,5,5,0,0,1,2.46-.55,4.49,4.49,0,0,1,2.29.54,3.41,3.41,0,0,1,1.39,1.56,6,6,0,0,1,.48,2.52v.86H37.47a5.23,5.23,0,0,0,.35,2.1,2.33,2.33,0,0,0,1,1.19,3.36,3.36,0,0,0,1.63.36,3.63,3.63,0,0,0,1.24-.19,2.33,2.33,0,0,0,.87-.51,2.08,2.08,0,0,0,.53-.77,2.31,2.31,0,0,0,.19-.93h1.3a3.52,3.52,0,0,1-.27,1.37,3.23,3.23,0,0,1-.78,1.12,3.42,3.42,0,0,1-1.29.76A5.73,5.73,0,0,1,40.41,146.93Zm-2.94-5.83h5.81a4.94,4.94,0,0,0-.21-1.56,2.75,2.75,0,0,0-.59-1,2.16,2.16,0,0,0-.89-.55,3.7,3.7,0,0,0-1.14-.16,3.34,3.34,0,0,0-1.57.34,2.31,2.31,0,0,0-1,1.07A5.23,5.23,0,0,0,37.47,141.1Z"/><path class="cls-1" d="M46.71,146.71V136.9h1.06l.13,1.55H48a3.71,3.71,0,0,1,.93-1,3.39,3.39,0,0,1,1.13-.55,4.59,4.59,0,0,1,1.3-.17A4,4,0,0,1,53,137a2.27,2.27,0,0,1,1.09,1,3.86,3.86,0,0,1,.39,1.89v6.84H53.16V140a2.92,2.92,0,0,0-.17-1.07,1.62,1.62,0,0,0-.46-.64,2.06,2.06,0,0,0-.7-.33,4.13,4.13,0,0,0-.89-.09,2.9,2.9,0,0,0-1.41.36,3,3,0,0,0-1.07,1,3.12,3.12,0,0,0-.41,1.64v5.8Z"/><path class="cls-1" d="M59.18,146.91a2,2,0,0,1-1.07-.24,1.26,1.26,0,0,1-.56-.67,2.63,2.63,0,0,1-.16-.95v-7H56.07V136.9h1.32l.26-2.72h1.08v2.72h1.88V138H58.73v6.76a1.58,1.58,0,0,0,.14.75q.14.24.63.24h1.11v.86a3.11,3.11,0,0,1-.43.14,4.34,4.34,0,0,1-.52.09Z"/><path class="cls-1" d="M62.4,134.89v-1.66h1.34v1.66Zm0,11.82V136.9h1.34v9.81Z"/><path class="cls-1" d="M68.81,146.93a4.79,4.79,0,0,1-1.13-.14,2.76,2.76,0,0,1-1-.45,2.12,2.12,0,0,1-.7-.83,2.86,2.86,0,0,1-.26-1.28,2.63,2.63,0,0,1,.49-1.65,3.26,3.26,0,0,1,1.39-1,7.69,7.69,0,0,1,2.12-.49,24.24,24.24,0,0,1,2.65-.13V139.7a2.26,2.26,0,0,0-.21-1,1.44,1.44,0,0,0-.75-.65,3.74,3.74,0,0,0-1.5-.23,3.69,3.69,0,0,0-1.47.24,1.53,1.53,0,0,0-.75.62,1.66,1.66,0,0,0-.22.85v.3H66.19a.58.58,0,0,1,0-.19v-.22a2.37,2.37,0,0,1,.48-1.53A2.86,2.86,0,0,1,68,137a6.46,6.46,0,0,1,2-.3,5.06,5.06,0,0,1,2,.34,2.82,2.82,0,0,1,1.23,1,2.7,2.7,0,0,1,.42,1.53v5.63a.64.64,0,0,0,.15.49.48.48,0,0,0,.38.14H75v.86a5.09,5.09,0,0,1-.59.19,2.67,2.67,0,0,1-.64.07,1.35,1.35,0,0,1-.77-.2,1.07,1.07,0,0,1-.41-.58,3.41,3.41,0,0,1-.16-.82h-.13a3.41,3.41,0,0,1-.91.86,4.13,4.13,0,0,1-1.2.56A4.83,4.83,0,0,1,68.81,146.93Zm.28-1.14a3.78,3.78,0,0,0,1.2-.2,3.89,3.89,0,0,0,1-.57,2.85,2.85,0,0,0,.75-.87,2.13,2.13,0,0,0,.29-1.12v-1a19.34,19.34,0,0,0-2.89.18,3.86,3.86,0,0,0-1.76.66,1.77,1.77,0,0,0-.33,2.22,1.39,1.39,0,0,0,.7.53A2.62,2.62,0,0,0,69.09,145.79Z"/><path class="cls-1" d="M76.42,146.71V133.23h1.34v13.48Z"/><path class="cls-1" d="M83.65,146.93a6.83,6.83,0,0,1-1.72-.2,3.42,3.42,0,0,1-1.23-.57,2.57,2.57,0,0,1-.75-.93A2.88,2.88,0,0,1,79.7,144v-.15a.41.41,0,0,1,0-.16H81a1,1,0,0,0,0,.16V144a1.71,1.71,0,0,0,.36,1.12,1.78,1.78,0,0,0,1,.57,5.45,5.45,0,0,0,1.41.17,3.67,3.67,0,0,0,1.24-.19,2.14,2.14,0,0,0,.88-.57,1.34,1.34,0,0,0,.32-.92,1.29,1.29,0,0,0-.42-1,2.79,2.79,0,0,0-1.09-.55l-1.39-.42c-.4-.11-.79-.23-1.18-.36a5.08,5.08,0,0,1-1-.5A2.35,2.35,0,0,1,81,137.4a3.72,3.72,0,0,1,1.17-.54,6.19,6.19,0,0,1,1.56-.18,5.38,5.38,0,0,1,1.66.22,3.07,3.07,0,0,1,1.12.61,2.25,2.25,0,0,1,.63.86,2.38,2.38,0,0,1,.21,1,1,1,0,0,1,0,.17,1,1,0,0,0,0,.17H86v-.24a1.64,1.64,0,0,0-.2-.77,1.53,1.53,0,0,0-.69-.63,3.15,3.15,0,0,0-1.46-.26,4.17,4.17,0,0,0-1,.1,2.3,2.3,0,0,0-.71.29,1.13,1.13,0,0,0-.42.45,1.3,1.3,0,0,0-.14.63,1,1,0,0,0,.34.83,2.54,2.54,0,0,0,.9.46l1.2.39,1.29.39a6.36,6.36,0,0,1,1.22.5,2.47,2.47,0,0,1,.9.79,2.3,2.3,0,0,1,.33,1.3,2.75,2.75,0,0,1-.3,1.31,2.54,2.54,0,0,1-.81.94,3.7,3.7,0,0,1-1.24.56A6,6,0,0,1,83.65,146.93Z"/></g></g></svg>