<svg xmlns="http://www.w3.org/2000/svg" viewBox="0 0 249.54 79.67"><defs><style>.cls-1{fill:#fff;}</style></defs><g id="Layer_2" data-name="Layer 2"><g id="Layer_1-2" data-name="Layer 1"><path class="cls-1" d="M7,0h3.72l7,18.76h-4L12.4,15H5.1l-1.32,3.8H0ZM6.16,11.93h5.17L8.75,4.53Z"/><path class="cls-1" d="M27.49,16.93a4.51,4.51,0,0,1-4.07,2.17c-3.34,0-4.68-2.05-4.68-5.46V4.84h3.57v8c0,1.87.28,3.37,2.28,3.37,2.38,0,2.9-1.94,2.9-4.14V4.84h3.57V18.76H27.49Z"/><path class="cls-1" d="M34.76,1.06h3.57V4.84h2.9V7.3h-2.9v7.19c0,1.43.49,1.71,1.76,1.71h1.08v2.56H38.56c-3.21,0-3.8-1-3.8-3.75V7.3h-2V4.84h2Z"/><path class="cls-1" d="M42.57,11.83c0-4.89,3.47-7.3,7-7.3s7,2.41,7,7.3-3.47,7.27-7,7.27S42.57,16.69,42.57,11.83Zm3.63,0c0,2.92,1.39,4.47,3.36,4.47s3.36-1.55,3.36-4.47-1.39-4.51-3.36-4.51S46.2,8.9,46.2,11.83Z"/><path class="cls-1" d="M68.25,0V10.43l5.07-5.59h4l-5,5.33,5.28,8.59h-4l-3.65-6-1.7,1.84v4.19H64.67V0Z"/><path class="cls-1" d="M83.1,19.1c-2.66,0-5-1.55-5-4.09,0-3.29,3.68-4.27,9.16-4.89V9.89c0-2.15-1.16-2.9-2.61-2.9A2.32,2.32,0,0,0,82,9.24H78.7C79,6.5,81.21,4.48,84.81,4.48c3.29,0,6,1.45,6,6.13,0,.42,0,2.3,0,3.55a18.13,18.13,0,0,0,.42,4.6H87.89A15.69,15.69,0,0,1,87.66,17,5,5,0,0,1,83.1,19.1Zm4.25-6.7c-4,.41-5.59.88-5.59,2.43,0,1,.77,1.84,2.4,1.84,2.25,0,3.19-1.19,3.19-3.24Z"/><path class="cls-1" d="M102.36,16.93a4.51,4.51,0,0,1-4.07,2.17c-3.34,0-4.68-2.05-4.68-5.46V4.84h3.57v8c0,1.87.28,3.37,2.28,3.37,2.38,0,2.9-1.94,2.9-4.14V4.84h3.57V18.76h-3.57Z"/><path class="cls-1" d="M109.47,4.06c0-3.52,1.66-4.06,5.15-4.06h1.22V2.64h-.7c-1.76,0-2.1.21-2.1,1.53v.67h2.8V7.3H113V18.76h-3.57V7.3h-2V4.84h2Z"/><path class="cls-1" d="M120.29,12.79a3.52,3.52,0,0,0,3.52,3.54,3.21,3.21,0,0,0,2.93-1.6h3.67a6.64,6.64,0,0,1-6.57,4.37c-4.48,0-7.09-3.34-7.09-7.35a6.86,6.86,0,0,1,7-7.22c4.3,0,7,3.34,6.84,8.26Zm0-2.46h6.6a3,3,0,0,0-3.23-3.19A3.36,3.36,0,0,0,120.34,10.33Z"/><path class="cls-1" d="M136.44,6.68a4.41,4.41,0,0,1,4-2.15c3.34,0,4.81,2,4.81,5.46v8.77h-3.57v-8c0-1.79-.39-3.37-2.41-3.37-2.35,0-2.87,1.92-2.87,4.12v7.24h-3.57V4.84h3.57Z"/><path class="cls-1" d="M148.22,14.88h4v4.17l-2.12,4.11h-2.05l1.92-4.4h-1.76Z"/><path class="cls-1" d="M164.57,18.76H161V0h3.57Z"/><path class="cls-1" d="M170.42,12.79a3.52,3.52,0,0,0,3.52,3.54,3.19,3.19,0,0,0,2.92-1.6h3.68A6.64,6.64,0,0,1,174,19.1c-4.48,0-7.09-3.34-7.09-7.35a6.86,6.86,0,0,1,7-7.22c4.3,0,7,3.34,6.83,8.26Zm.05-2.46h6.6a3,3,0,0,0-3.23-3.19A3.36,3.36,0,0,0,170.47,10.33Z"/><path class="cls-1" d="M187.45,19.1c-2.67,0-5-1.55-5-4.09,0-3.29,3.67-4.27,9.16-4.89V9.89c0-2.15-1.16-2.9-2.61-2.9a2.32,2.32,0,0,0-2.59,2.25h-3.34c.28-2.74,2.51-4.76,6.11-4.76,3.28,0,6,1.45,6,6.13,0,.42,0,2.3,0,3.55a18.71,18.71,0,0,0,.41,4.6h-3.28A15.37,15.37,0,0,1,192,17,5,5,0,0,1,187.45,19.1Zm4.24-6.7c-4,.41-5.59.88-5.59,2.43,0,1,.78,1.84,2.41,1.84,2.25,0,3.18-1.19,3.18-3.24Z"/><path class="cls-1" d="M206,9a2.78,2.78,0,0,0-3-2c-1.32,0-2.25.49-2.25,1.34s.55,1.33,1.87,1.61l1.86.41c2.77.63,5.12,1.32,5.12,4.2s-2.87,4.5-6,4.5c-3.41,0-6-1.76-6.34-4.94h3.44a2.71,2.71,0,0,0,3,2.35c1.55,0,2.51-.57,2.51-1.58s-1.06-1.42-2.28-1.71l-2.07-.43c-2.61-.55-4.35-1.64-4.35-4.17s2.69-4.14,5.69-4.14,5.65,1.34,6.14,4.55Z"/><path class="cls-1" d="M214.6,12.79a3.52,3.52,0,0,0,3.52,3.54,3.19,3.19,0,0,0,2.92-1.6h3.68a6.64,6.64,0,0,1-6.58,4.37c-4.47,0-7.09-3.34-7.09-7.35a6.86,6.86,0,0,1,7-7.22c4.29,0,7,3.34,6.83,8.26Zm.05-2.46h6.6A3.06,3.06,0,0,0,218,7.14,3.35,3.35,0,0,0,214.65,10.33Z"/><path class="cls-1" d="M230.75,6.68a4.41,4.41,0,0,1,4-2.15c3.34,0,4.82,2,4.82,5.46v8.77H236v-8c0-1.79-.39-3.37-2.41-3.37-2.36,0-2.87,1.92-2.87,4.12v7.24h-3.57V4.84h3.57Z"/><path class="cls-1" d="M242.52,14.88h4v4.17l-2.12,4.11h-2l1.91-4.4h-1.76Z"/><path class="cls-1" d="M4.24,43.07a3.54,3.54,0,0,0,3.52,3.55A3.19,3.19,0,0,0,10.69,45h3.67a6.64,6.64,0,0,1-6.57,4.37C3.31,49.38.7,46.05.7,42a6.86,6.86,0,0,1,7-7.23c4.29,0,7,3.34,6.83,8.26Zm.06-2.46h6.6a3.05,3.05,0,0,0-3.24-3.18A3.34,3.34,0,0,0,4.3,40.61Z"/><path class="cls-1" d="M20.39,30.29V33.6H16.82V30.29Zm0,4.84V49.05H16.82V35.13Z"/><path class="cls-1" d="M27.17,37a4.46,4.46,0,0,1,4-2.15c3.34,0,4.81,2,4.81,5.47v8.77H32.45v-8c0-1.78-.38-3.36-2.4-3.36-2.36,0-2.88,1.91-2.88,4.11v7.25H23.6V35.13h3.57Z"/><path class="cls-1" d="M39.36,34.35c0-3.52,1.66-4.06,5.15-4.06h1.22v2.64H45c-1.76,0-2.1.2-2.1,1.52v.68h2.8v2.45h-2.8V49.05H39.36V37.58h-2V35.13h2Z"/><path class="cls-1" d="M51.22,49.38c-2.67,0-5-1.55-5-4.09,0-3.28,3.67-4.26,9.16-4.89v-.23c0-2.15-1.17-2.9-2.62-2.9a2.31,2.31,0,0,0-2.58,2.25H46.82c.28-2.74,2.51-4.76,6.1-4.76,3.29,0,6,1.45,6,6.14,0,.41,0,2.3,0,3.54a18.86,18.86,0,0,0,.41,4.61H56c-.1-.44-.15-1-.23-1.74A5,5,0,0,1,51.22,49.38Zm4.24-6.7c-4,.42-5.59.88-5.59,2.43,0,1,.78,1.84,2.41,1.84,2.25,0,3.18-1.19,3.18-3.23Z"/><path class="cls-1" d="M74.3,39.89H70.89A3,3,0,0,0,68,37.58c-1.87,0-3.34,1.58-3.34,4.48s1.4,4.56,3.36,4.56a3,3,0,0,0,3-2.31h3.42c-.83,3.81-3.7,5.07-6.6,5.07-4.16,0-6.83-3.05-6.83-7.27s2.82-7.3,7-7.3C70.91,34.81,73.81,36.45,74.3,39.89Z"/><path class="cls-1" d="M80.13,37a4.43,4.43,0,0,1,4-2.15c3.34,0,4.82,2,4.82,5.47v8.77H85.4v-8c0-1.78-.38-3.36-2.4-3.36-2.36,0-2.87,1.91-2.87,4.11v7.25H76.55V30.29h3.58Z"/><path class="cls-1" d="M102.28,49.38c-2.67,0-5-1.55-5-4.09,0-3.28,3.67-4.26,9.16-4.89v-.23c0-2.15-1.17-2.9-2.61-2.9a2.31,2.31,0,0,0-2.59,2.25H97.88c.28-2.74,2.51-4.76,6.11-4.76,3.28,0,6,1.45,6,6.14,0,.41,0,2.3,0,3.54a18.86,18.86,0,0,0,.41,4.61h-3.28a15.59,15.59,0,0,1-.24-1.74A5,5,0,0,1,102.28,49.38Zm4.24-6.7c-4,.42-5.59.88-5.59,2.43,0,1,.78,1.84,2.41,1.84,2.25,0,3.18-1.19,3.18-3.23Z"/><path class="cls-1" d="M113,49.05V30.29h3.57v6.62a4.47,4.47,0,0,1,4-2.1c3.36,0,6,2.9,6,7.28s-2.74,7.29-6,7.29a4.49,4.49,0,0,1-4-2.09v1.76Zm9.88-6.94c0-2.72-1.32-4.55-3.18-4.55s-3.26,1.73-3.26,4.53,1.29,4.55,3.26,4.55S122.85,44.83,122.85,42.11Z"/><path class="cls-1" d="M128.18,42.11c0-4.89,3.47-7.3,7-7.3s7,2.41,7,7.3-3.47,7.27-7,7.27S128.18,47,128.18,42.11Zm3.63,0c0,2.93,1.4,4.48,3.36,4.48s3.37-1.55,3.37-4.48-1.4-4.5-3.37-4.5S131.81,39.19,131.81,42.11Z"/><path class="cls-1" d="M148,37a4.43,4.43,0,0,1,4-2.15c3.33,0,4.81,2,4.81,5.47v8.77h-3.57v-8c0-1.78-.39-3.36-2.41-3.36-2.35,0-2.87,1.91-2.87,4.11v7.25h-3.57V35.13H148Z"/><path class="cls-1" d="M163.43,37a4.46,4.46,0,0,1,4-2.15c3.34,0,4.81,2,4.81,5.47v8.77h-3.57v-8c0-1.78-.38-3.36-2.4-3.36-2.36,0-2.88,1.91-2.88,4.11v7.25h-3.57V35.13h3.57Z"/><path class="cls-1" d="M178.86,30.29V33.6h-3.57V30.29Zm0,4.84V49.05h-3.57V35.13Z"/><path class="cls-1" d="M184.71,43.07a3.53,3.53,0,0,0,3.52,3.55A3.18,3.18,0,0,0,191.15,45h3.68a6.64,6.64,0,0,1-6.58,4.37c-4.47,0-7.09-3.33-7.09-7.34a6.86,6.86,0,0,1,7-7.23c4.29,0,7,3.34,6.83,8.26Zm0-2.46h6.6a3.05,3.05,0,0,0-3.24-3.18A3.35,3.35,0,0,0,184.76,40.61Z"/><path class="cls-1" d="M205.26,38.57a9.18,9.18,0,0,0-1.48-.08c-1.76,0-2.92.65-2.92,3.26v7.3h-3.57V35.13h3.51v2.43a3.74,3.74,0,0,1,3.68-2.41c.23,0,.54,0,.78.05Z"/><path class="cls-1" d="M209.73,43.07a3.53,3.53,0,0,0,3.52,3.55A3.19,3.19,0,0,0,216.18,45h3.67a6.64,6.64,0,0,1-6.57,4.37c-4.48,0-7.09-3.33-7.09-7.34a6.86,6.86,0,0,1,7-7.23c4.3,0,7,3.34,6.84,8.26Zm.06-2.46h6.59a3,3,0,0,0-3.23-3.18A3.34,3.34,0,0,0,209.79,40.61Z"/><path class="cls-1" d="M225.88,37a4.44,4.44,0,0,1,4-2.15c3.34,0,4.81,2,4.81,5.47v8.77h-3.57v-8c0-1.78-.39-3.36-2.41-3.36-2.35,0-2.87,1.91-2.87,4.11v7.25h-3.57V35.13h3.57Z"/><path class="cls-1" d="M249.54,34.69a5.65,5.65,0,0,1-3.19,4.76c-1.68,1-2.43,1.52-2.43,3.41v.81h-3.49v-.88A4.83,4.83,0,0,1,243.2,38c1.63-1,2.74-1.81,2.74-3.15s-1.37-2.2-2.74-2.2c-1.89,0-3.34,1-3.42,3.49h-3.52c0-3.8,3-6.21,7-6.21C246.41,30,249.54,31.45,249.54,34.69Zm-9.29,14.36V45.17h3.83v3.88Z"/><path class="cls-1" d="M1.68,60.57H15.35v3h-10v4.66H14.8v3H5.38v8.1H1.68Z"/><path class="cls-1" d="M20.73,79.33H17V60.57h3.7Z"/><path class="cls-1" d="M35.09,79.33,27.59,65V79.33h-3.5V60.57h4.82l7.5,14.31V60.57h3.5V79.33Z"/><path class="cls-1" d="M54.27,79.33,46.77,65V79.33h-3.5V60.57h4.81l7.51,14.31V60.57h3.49V79.33Z"/><path class="cls-1" d="M61.44,72.4c0-4.89,3.47-7.3,7-7.3s7,2.41,7,7.3-3.47,7.27-7,7.27S61.44,77.26,61.44,72.4Zm3.62,0c0,2.92,1.4,4.48,3.37,4.48s3.36-1.56,3.36-4.48-1.4-4.5-3.36-4.5S65.06,69.47,65.06,72.4Z"/><path class="cls-1" d="M94.83,71.23c0-1.52-.13-3.26-2.23-3.26-2.38,0-2.77,2-2.77,4.12v7.24H86.26v-8.1c0-1.52-.13-3.26-2.23-3.26-2.38,0-2.77,2-2.77,4.12v7.24H77.69V65.41h3.57v1.84a4.36,4.36,0,0,1,3.89-2.15,4.16,4.16,0,0,1,4,2.28,5.11,5.11,0,0,1,4.58-2.28c3.49,0,4.71,2.17,4.71,5.46v8.77H94.83Z"/><path class="cls-1" d="M104,73.36a3.52,3.52,0,0,0,3.52,3.54,3.19,3.19,0,0,0,2.92-1.6h3.68a6.64,6.64,0,0,1-6.58,4.37c-4.47,0-7.09-3.34-7.09-7.35a6.86,6.86,0,0,1,7-7.22c4.3,0,7,3.34,6.83,8.26Zm0-2.46h6.6a3,3,0,0,0-3.23-3.19A3.36,3.36,0,0,0,104.09,70.9Z"/><path class="cls-1" d="M120.19,67.25a4.43,4.43,0,0,1,4-2.15c3.33,0,4.81,2,4.81,5.46v8.77h-3.57v-8c0-1.79-.39-3.37-2.41-3.37-2.35,0-2.87,1.92-2.87,4.12v7.24h-3.57V65.41h3.57Z"/><path class="cls-1" d="M136.49,79.67c-2.66,0-5-1.55-5-4.09,0-3.29,3.68-4.27,9.16-4.89v-.23c0-2.15-1.16-2.9-2.61-2.9a2.32,2.32,0,0,0-2.59,2.25h-3.34c.29-2.74,2.51-4.76,6.11-4.76,3.29,0,6,1.45,6,6.13,0,.42-.06,2.31-.06,3.55a18.13,18.13,0,0,0,.42,4.6h-3.29c-.1-.44-.15-1-.23-1.73A5,5,0,0,1,136.49,79.67Zm4.25-6.7c-4,.41-5.59.88-5.59,2.43,0,1,.77,1.84,2.4,1.84,2.26,0,3.19-1.19,3.19-3.24Z"/><path class="cls-1" d="M150.75,79.33h-3.57V60.57h3.57Z"/><path class="cls-1" d="M153.68,79.33V75.45h3.83v3.88Zm.77-5.53-.64-8.42V60.57h3.57v4.81l-.57,8.42Z"/></g></g></svg>