<svg xmlns="http://www.w3.org/2000/svg" xmlns:xlink="http://www.w3.org/1999/xlink" viewBox="0 0 390.27 750.17"><defs><style>.cls-1,.cls-4,.cls-5,.cls-6,.cls-7{fill:none;}.cls-2{clip-path:url(#clip-path);}.cls-3{fill:#fffbf5;}.cls-4,.cls-5,.cls-6,.cls-7{stroke:#fff;stroke-miterlimit:10;}.cls-4{stroke-width:1.73px;}.cls-5{stroke-width:1.3px;opacity:0.9;}.cls-6{stroke-width:0.87px;opacity:0.79;}.cls-7{stroke-width:0.43px;opacity:0.47;}</style><clipPath id="clip-path" transform="translate(36.41 331.78)"><rect class="cls-1" width="305" height="422.37"/></clipPath></defs><g id="Layer_2" data-name="Layer 2"><g id="Layer_1-2" data-name="Layer 1"><g class="cls-2"><path class="cls-3" d="M5.21,390c15.68,8,25.12-5,71-4.22s60.08,14.11,99,18.34c3.46.38,70.12,7,113.73-19.27,73.17-44.09,87.83-597.31,20.69-671.5C235.1-368.92,67.89-330.2-.14-239.17-58.68-160.82-35.87,369.14,5.21,390Z" transform="translate(36.41 331.78)"/><path class="cls-4" d="M5.21,392.42c15.68,8,25.12-5,71-4.22s60.08,14.11,99,18.35c3.46.37,70.12,7,113.73-19.28,73.17-44.09,87.83-597.31,20.69-671.5C235.1-366.54,67.89-327.82-.14-236.79-58.68-158.44-35.87,371.52,5.21,392.42Z" transform="translate(36.41 331.78)"/><path class="cls-5" d="M5.21,396.42c15.68,8,25.12-5,71-4.21s60.08,14.11,99,18.34c3.46.38,70.12,7,113.73-19.27,73.17-44.09,87.83-597.31,20.69-671.51C235.1-362.53,67.89-323.82-.14-232.78-58.68-154.43-35.87,375.53,5.21,396.42Z" transform="translate(36.41 331.78)"/><path class="cls-6" d="M6,399.78c15.68,8,25.12-5,71-4.22s60.08,14.11,99,18.35c3.46.37,70.11,7,113.73-19.28,73.17-44.09,87.83-597.31,20.69-671.5C235.86-359.17,68.64-320.46.62-229.43-57.92-151.08-35.11,378.88,6,399.78Z" transform="translate(36.41 331.78)"/><path class="cls-7" d="M5.32,403c15.68,8,25.12-5,71-4.22s60.08,14.11,99,18.34c3.46.38,70.12,7,113.73-19.27,73.17-44.09,87.83-597.31,20.69-671.5C235.21-355.93,68-317.22,0-226.18-58.57-147.83-35.76,382.13,5.32,403Z" transform="translate(36.41 331.78)"/></g></g></g></svg>