<svg xmlns="http://www.w3.org/2000/svg" viewBox="0 0 211.05 137.81"><defs><style>.cls-1{fill:#fff;}</style></defs><g id="Layer_2" data-name="Layer 2"><g id="Layer_1-2" data-name="Layer 1"><path class="cls-1" d="M11.38,0h6L28.82,30.46H22.31l-2.15-6.18H8.32L6.17,30.46H0ZM10,19.37h8.4l-4.2-12Z"/><path class="cls-1" d="M44.65,27.47A7.29,7.29,0,0,1,38.05,31c-5.41,0-7.6-3.32-7.6-8.86V7.86h5.8v13c0,3,.46,5.46,3.69,5.46,3.87,0,4.71-3.15,4.71-6.72V7.86h5.8v22.6h-5.8Z"/><path class="cls-1" d="M56.45,1.72h5.8V7.86H67v4h-4.7V23.52c0,2.31.79,2.78,2.85,2.78h1.77v4.16H62.62c-5.2,0-6.17-1.6-6.17-6.1V11.85H53.26v-4h3.19Z"/><path class="cls-1" d="M69.13,19.2c0-7.94,5.63-11.85,11.34-11.85S91.82,11.26,91.82,19.2,86.19,31,80.47,31,69.13,27.1,69.13,19.2Zm5.88,0c0,4.74,2.27,7.26,5.46,7.26s5.46-2.52,5.46-7.26-2.26-7.31-5.46-7.31S75,14.45,75,19.2Z"/><path class="cls-1" d="M3.19,56.6c0-5.72,2.69-6.6,8.36-6.6h2v4.29H12.39c-2.85,0-3.4.33-3.4,2.47v1.1h4.54v4H9V80.46H3.19V61.85H0v-4H3.19Z"/><path class="cls-1" d="M22.43,81c-4.33,0-8.15-2.52-8.15-6.64,0-5.33,6-6.93,14.87-7.93v-.38c0-3.49-1.89-4.71-4.24-4.71s-4.08,1.14-4.2,3.66H15.29c.46-4.46,4.07-7.73,9.91-7.73,5.34,0,9.75,2.35,9.75,9.95,0,.68-.09,3.74-.09,5.76a29.64,29.64,0,0,0,.68,7.48H30.2a27.88,27.88,0,0,1-.38-2.82C28.18,80,25.83,81,22.43,81Zm6.89-10.88c-6.51.67-9.07,1.43-9.07,3.95,0,1.64,1.25,3,3.9,3,3.66,0,5.17-1.93,5.17-5.25Z"/><path class="cls-1" d="M45.57,60.84a7.2,7.2,0,0,1,6.56-3.49c5.41,0,7.81,3.28,7.81,8.86V80.46h-5.8v-13c0-2.9-.63-5.47-3.91-5.47-3.82,0-4.66,3.11-4.66,6.68V80.46h-5.8V50h5.8Z"/><path class="cls-1" d="M77.74,63.44a16,16,0,0,0-2.39-.12c-2.86,0-4.75,1.05-4.75,5.29V80.46H64.81V57.86h5.71V61.8a6.05,6.05,0,0,1,6-3.9c.38,0,.89,0,1.26.08Z"/><path class="cls-1" d="M85,70.75c.33,3.87,2.94,5.76,5.71,5.76a5.17,5.17,0,0,0,4.75-2.61h6c-1.22,3.36-4.49,7.1-10.67,7.1-7.26,0-11.51-5.42-11.51-11.93,0-6.72,4.67-11.72,11.35-11.72,7,0,11.3,5.42,11.09,13.4Zm.08-4H95.8a5,5,0,0,0-5.25-5.17A5.44,5.44,0,0,0,85.09,66.76Z"/><path class="cls-1" d="M111.22,60.84a7.19,7.19,0,0,1,6.55-3.49c5.42,0,7.81,3.28,7.81,8.86V80.46h-5.79v-13c0-2.9-.63-5.47-3.91-5.47-3.82,0-4.66,3.11-4.66,6.68V80.46h-5.8V57.86h5.8Z"/><path class="cls-1" d="M147.17,81c-4.33,0-8.15-2.52-8.15-6.64,0-5.33,6-6.93,14.87-7.93v-.38c0-3.49-1.89-4.71-4.24-4.71s-4.08,1.14-4.2,3.66H140c.46-4.46,4.07-7.73,9.91-7.73,5.34,0,9.75,2.35,9.75,9.95,0,.68-.09,3.74-.09,5.76a29.64,29.64,0,0,0,.68,7.48h-5.34a27.88,27.88,0,0,1-.38-2.82C152.92,80,150.57,81,147.17,81Zm6.89-10.88c-6.51.67-9.08,1.43-9.08,3.95,0,1.64,1.26,3,3.91,3,3.66,0,5.17-1.93,5.17-5.25Z"/><path class="cls-1" d="M178.42,77.47a7.29,7.29,0,0,1-6.6,3.53c-5.42,0-7.6-3.32-7.6-8.86V57.86H170v13c0,3,.46,5.46,3.69,5.46,3.87,0,4.71-3.15,4.71-6.72V57.86h5.79v22.6h-5.79Z"/><path class="cls-1" d="M190,56.6c0-5.72,2.69-6.6,8.36-6.6h2v4.29h-1.14c-2.85,0-3.4.33-3.4,2.47v1.1h4.54v4h-4.54V80.46H190V61.85h-3.19v-4H190Z"/><path class="cls-1" d="M6.93,120.75c.34,3.87,2.94,5.76,5.71,5.76a5.17,5.17,0,0,0,4.75-2.61h6A10.78,10.78,0,0,1,12.69,131c-7.27,0-11.51-5.42-11.51-11.93,0-6.72,4.66-11.72,11.34-11.72,7,0,11.3,5.42,11.09,13.4Zm.09-4H17.73a5,5,0,0,0-5.25-5.17A5.43,5.43,0,0,0,7,116.76Z"/><path class="cls-1" d="M33.14,110.84a7.19,7.19,0,0,1,6.55-3.49c5.42,0,7.82,3.28,7.82,8.86v14.25h-5.8v-13c0-2.9-.63-5.47-3.91-5.47-3.82,0-4.66,3.11-4.66,6.68v11.77h-5.8v-22.6h5.8Z"/><path class="cls-1" d="M53.17,101.72H59v6.14h4.7v4H59v11.67c0,2.31.8,2.78,2.86,2.78h1.76v4.16H59.35c-5.21,0-6.18-1.6-6.18-6.1V111.85H50v-4h3.19Z"/><path class="cls-1" d="M80.1,114.66c-.47-1.89-2.15-3.23-4.83-3.23-2.15,0-3.66.79-3.66,2.18,0,1.22.88,2.14,3,2.6l3,.68c4.49,1,8.32,2.14,8.32,6.8S81.31,131,76.19,131c-5.55,0-9.75-2.85-10.29-8h5.59c.33,2.18,1.84,3.82,4.87,3.82,2.52,0,4.07-.92,4.07-2.56s-1.72-2.31-3.69-2.77l-3.36-.72c-4.25-.88-7.06-2.64-7.06-6.76s4.37-6.72,9.24-6.72c4.7,0,9.16,2.18,10,7.39Z"/><path class="cls-1" d="M89.59,137.81V107.86h5.79v2.89a7.27,7.27,0,0,1,6.51-3.4c5.47,0,9.83,4.71,9.83,11.81S107.23,131,101.85,131a7.23,7.23,0,0,1-6.47-3.4v10.21Zm16-18.61c0-4.41-2.14-7.4-5.16-7.4-3.2,0-5.3,2.82-5.3,7.36s2.1,7.39,5.3,7.39C103.49,126.55,105.63,123.61,105.63,119.2Z"/><path class="cls-1" d="M122.47,131c-4.32,0-8.15-2.52-8.15-6.64,0-5.33,6-6.93,14.87-7.93v-.38c0-3.49-1.89-4.71-4.24-4.71s-4.07,1.14-4.2,3.66h-5.42c.46-4.46,4.08-7.73,9.92-7.73,5.33,0,9.74,2.35,9.74,10,0,.68-.08,3.74-.08,5.76a30.22,30.22,0,0,0,.67,7.48h-5.33a25.27,25.27,0,0,1-.38-2.82C128.23,130,125.88,131,122.47,131Zm6.89-10.88c-6.51.67-9.07,1.43-9.07,3.95,0,1.64,1.26,3,3.91,3,3.65,0,5.16-1.93,5.16-5.25Z"/><path class="cls-1" d="M145.61,110.84a7.21,7.21,0,0,1,6.56-3.49c5.42,0,7.81,3.28,7.81,8.86v14.25h-5.8v-13c0-2.9-.63-5.47-3.9-5.47-3.83,0-4.67,3.11-4.67,6.68v11.77h-5.79v-22.6h5.79Z"/><path class="cls-1" d="M170.65,110.84a7.19,7.19,0,0,1,6.55-3.49c5.42,0,7.81,3.28,7.81,8.86v14.25h-5.79v-13c0-2.9-.63-5.47-3.91-5.47-3.82,0-4.66,3.11-4.66,6.68v11.77h-5.8v-22.6h5.8Z"/><path class="cls-1" d="M190.68,101.72h5.8v6.14h4.7v4h-4.7v11.67c0,2.31.79,2.78,2.85,2.78h1.77v4.16h-4.25c-5.2,0-6.17-1.6-6.17-6.1V111.85h-3.19v-4h3.19Z"/><path class="cls-1" d="M204.83,130.46v-6.31h6.22v6.31Z"/></g></g></svg>