<svg xmlns="http://www.w3.org/2000/svg" width="188.312" height="23.281" viewBox="0 0 188.312 23.281">
  <defs>
    <style>
      .cls-1 {
        fill: #fff;
        fill-rule: evenodd;
      }
    </style>
  </defs>
  <path id="Die_Show_weihnachtlicher_Pop-_und_Rock-Hits." data-name="Die Show weihnachtlicher Pop- und Rock-Hits." class="cls-1" d="M80.493,981.352h3.033a4.448,4.448,0,0,0,4.683-4.511c0-2.957-2.288-4.322-4.617-4.322H80.506Zm1.264-1.111v-6.625h1.849a3.1,3.1,0,0,1,3.34,3.279,3.248,3.248,0,0,1-3.419,3.346H81.757Zm8.223,1.111h1.2v-8.833h-1.2v8.833Zm2.967-.041h5.921v-1.244H94.2v-2.6h4.2V976.36H94.2v-2.583h4.683v-1.258H92.947v8.792Zm15.141,0.174c1.6,0.027,3.114-.655,3.18-2.328,0.053-1.633-1.064-2.449-3.246-2.8-1.4-.228-2.049-0.736-2.036-1.526a1.587,1.587,0,0,1,1.783-1.445,1.85,1.85,0,0,1,2.062,1.659h1.158c-0.04-1.686-1.544-2.663-3.22-2.663s-2.994.923-2.994,2.422,1.211,2.275,3.127,2.556c1.49,0.255,2.195.7,2.155,1.713-0.026,1.044-1.024,1.406-1.929,1.406a1.927,1.927,0,0,1-2.075-1.673H104.9C104.962,980.522,106.4,981.459,108.088,981.485Zm4.95-.133h1.251v-3.841h3.964v3.841H119.5v-8.833h-1.251V976.4h-3.964v-3.881h-1.251v8.833Zm12.786,0.133a4.55,4.55,0,0,0,.014-9.1,4.5,4.5,0,0,0-4.564,4.59A4.446,4.446,0,0,0,125.824,981.485Zm-3.286-4.51a3.35,3.35,0,0,1,3.313-3.479,3.446,3.446,0,0,1-.027,6.879A3.342,3.342,0,0,1,122.538,976.975Zm10.1,4.377h1.184l2.3-7.308,2.115,7.308h1.2l3.1-8.833h-1.291l-2.421,7.16-2.009-7.16h-1.331l-2.209,7.16-2.168-7.16h-1.291Zm18.614,0h1.184l2.3-7.308,2.115,7.308h1.2l3.1-8.833h-1.291l-2.421,7.16-2.009-7.16H154.1l-2.208,7.16-2.169-7.16H148.43Zm11.669-.041h5.921v-1.244h-4.67v-2.6h4.2V976.36h-4.2v-2.583h4.683v-1.258H162.92v8.792Zm7.7,0.041h1.2v-8.833h-1.2v8.833Zm2.967,0h1.251v-3.841h3.964v3.841h1.251v-8.833h-1.251V976.4h-3.964v-3.881h-1.251v8.833Zm8.236,0h1.251v-6.7l4.59,6.7H188.8v-8.833h-1.264v6.745l-4.55-6.745h-1.158v8.833Zm8.742,0h1.317l1.264-2.878L197,978.488l1.277,2.864h1.317l-3.925-8.833h-1.21Zm3.02-3.868,1.477-3.359,1.49,3.359h-2.967Zm9.62,4a4.271,4.271,0,0,0,3.871-2.261l-1.091-.509a3.129,3.129,0,0,1-2.78,1.66,3.451,3.451,0,0,1,.026-6.893,3.137,3.137,0,0,1,2.715,1.566l1.064-.535a4.238,4.238,0,0,0-3.792-2.128A4.55,4.55,0,0,0,203.209,981.485Zm5.641-.133H210.1v-3.841h3.965v3.841h1.251v-8.833h-1.251V976.4H210.1v-3.881H208.85v8.833Zm11.017,0h1.251l0.026-7.722,2.821-.014v-1.1h-6.879v1.1l2.808,0.014Zm5.868,0h5.828v-1.111h-4.577v-7.722h-1.251v8.833Zm7.584,0h1.2v-8.833h-1.2v8.833Zm7.478,0.133a4.271,4.271,0,0,0,3.871-2.261l-1.091-.509a3.131,3.131,0,0,1-2.78,1.66,3.451,3.451,0,0,1,.026-6.893,3.134,3.134,0,0,1,2.714,1.566l1.065-.535a4.238,4.238,0,0,0-3.792-2.128A4.55,4.55,0,0,0,240.8,981.485Zm5.641-.133h1.251v-3.841h3.965v3.841h1.25v-8.833h-1.25V976.4h-3.965v-3.881h-1.251v8.833Zm8.236-.041H260.6v-1.244h-4.67v-2.6h4.2V976.36h-4.2v-2.583h4.683v-1.258h-5.934v8.792Zm7.7,0.041h1.251v-3.574h0.984l2.236,3.574h1.41l-2.275-3.574,0.585-.013a2.314,2.314,0,0,0,2.249-2.543c0-1.218-.586-2.7-3.127-2.7h-3.313v8.833Zm1.251-4.644v-3.092h2.049c1.423,0,1.889.763,1.889,1.606,0,1.031-.652,1.486-1.876,1.486h-2.062ZM104.064,995.522h1.25v-3.573h2.062c2.236,0,3.127-1.151,3.127-2.569,0-1.151-.585-2.69-3.127-2.69h-3.312v8.832Zm1.25-4.684v-3.051h2.049c1.424,0,1.889.749,1.889,1.593,0,1.03-.651,1.458-1.876,1.458h-2.062Zm11.509,4.818a4.55,4.55,0,0,0,.014-9.1,4.5,4.5,0,0,0-4.564,4.59A4.446,4.446,0,0,0,116.823,995.656Zm-3.286-4.51a3.35,3.35,0,0,1,3.313-3.479,3.446,3.446,0,0,1-.027,6.878A3.341,3.341,0,0,1,113.537,991.146Zm9.567,4.376h1.25v-3.573h2.062c2.236,0,3.127-1.151,3.127-2.569,0-1.151-.585-2.69-3.127-2.69H123.1v8.832Zm1.25-4.684v-3.051H126.4c1.424,0,1.889.749,1.889,1.593,0,1.03-.651,1.458-1.876,1.458h-2.062Zm6.959,1.82h4.125v-1.164h-4.125v1.164Zm13.531,3a3.288,3.288,0,0,0,3.513-3.466v-5.5h-1.251V992.1a2.275,2.275,0,1,1-4.537,0V986.69h-1.25v5.5A3.278,3.278,0,0,0,144.844,995.656Zm5.283-.134h1.251v-6.705l4.59,6.705H157.1V986.69h-1.264v6.745l-4.551-6.745h-1.157v8.832Zm8.742,0H161.9a4.446,4.446,0,0,0,4.683-4.51c0-2.957-2.288-4.322-4.616-4.322h-3.087Zm1.263-1.11v-6.625h1.85a3.1,3.1,0,0,1,3.339,3.279,3.248,3.248,0,0,1-3.419,3.346h-1.77Zm12.348,1.11h1.251v-3.573h0.984l2.235,3.573h1.411l-2.275-3.573,0.585-.013a2.314,2.314,0,0,0,2.249-2.543c0-1.218-.586-2.7-3.127-2.7H172.48v8.832Zm1.251-4.644v-3.091h2.049c1.423,0,1.889.763,1.889,1.606,0,1.03-.652,1.485-1.876,1.485h-2.062Zm11.509,4.778a4.55,4.55,0,0,0,.013-9.1,4.5,4.5,0,0,0-4.564,4.59A4.447,4.447,0,0,0,185.24,995.656Zm-3.287-4.51a3.35,3.35,0,0,1,3.313-3.479,3.446,3.446,0,0,1-.026,6.878A3.342,3.342,0,0,1,181.953,991.146Zm14.077,4.51a4.271,4.271,0,0,0,3.872-2.262l-1.091-.508a3.13,3.13,0,0,1-2.781,1.659,3.451,3.451,0,0,1,.027-6.892,3.134,3.134,0,0,1,2.714,1.566l1.065-.535a4.238,4.238,0,0,0-3.792-2.128A4.55,4.55,0,0,0,196.03,995.656Zm5.642-.134h1.264v-2.81l1.384-1.432,2.714,4.242h1.384l-3.26-5.165,3.486-3.667h-1.437l-4.271,4.376-0.013-4.376h-1.251v8.832Zm8.742-2.864h4.124v-1.164h-4.124v1.164Zm5.881,2.864h1.25v-3.841h3.965v3.841h1.251V986.69H221.51v3.881h-3.965V986.69H216.3v8.832Zm8.236,0h1.2V986.69h-1.2v8.832Zm5.748,0h1.25l0.027-7.722,2.821-.013v-1.1H227.5v1.1l2.807,0.013Zm8.515,0.134c1.6,0.027,3.114-.656,3.18-2.328,0.053-1.633-1.064-2.45-3.246-2.8-1.4-.228-2.049-0.737-2.036-1.526a1.587,1.587,0,0,1,1.783-1.446,1.851,1.851,0,0,1,2.062,1.66H241.7c-0.04-1.686-1.544-2.663-3.22-2.663s-2.994.923-2.994,2.422,1.211,2.275,3.127,2.556c1.49,0.255,2.195.7,2.155,1.713-0.026,1.044-1.024,1.406-1.929,1.406a1.928,1.928,0,0,1-2.076-1.673H235.6C235.667,994.693,237.1,995.629,238.794,995.656Zm5.708-.16a0.75,0.75,0,1,0-.758-0.763A0.758,0.758,0,0,0,244.5,995.5Z" transform="translate(-80.5 -972.375)"/>
</svg>
