<svg xmlns="http://www.w3.org/2000/svg" viewBox="0 0 121.6 21.71"><defs><style>.cls-1{fill:#517bfe;}.cls-2{fill:#fff;}</style></defs><g id="Layer_2" data-name="Layer 2"><g id="Layer_1-2" data-name="Layer 1"><rect class="cls-1" width="121.6" height="21.71"/><path class="cls-2" d="M15,15.1V7.18H18.6c1.61,0,2.81.83,2.81,2.46a2.2,2.2,0,0,1-2.15,2.24,1.86,1.86,0,0,1,1.08.94l1.34,2.28H20.15l-1.37-2.35A1.41,1.41,0,0,0,17.33,12h-1V15.1Zm1.33-6.74v2.58h2.11c.84,0,1.56-.31,1.56-1.27s-.72-1.31-1.56-1.31Z"/><path class="cls-2" d="M22.39,11.72V7.18h1.33v4.55c0,1.57.53,2.21,1.83,2.21s1.83-.64,1.83-2.21V7.18h1.33v4.54c0,2.4-1,3.5-3.17,3.5S22.39,14.12,22.39,11.72Z"/><path class="cls-2" d="M30.38,15.1V7.18h1.24l3.2,4.61L35.61,13l-.09-1.5V7.18h1.34V15.1H35.63l-3.29-4.68L31.62,9.3l.1,1.44V15.1Z"/><path class="cls-2" d="M40.87,15.1V7.18h5.5V8.36H42.21V10.8h3.44V12H42.21V15.1Z"/><path class="cls-2" d="M47.22,15.1V7.18h3.57c1.61,0,2.81.83,2.81,2.46a2.2,2.2,0,0,1-2.15,2.24,1.8,1.8,0,0,1,1.08.94l1.35,2.28H52.34L51,12.75A1.41,1.41,0,0,0,49.53,12h-1V15.1Zm1.34-6.74v2.58h2.1c.84,0,1.56-.31,1.56-1.27s-.72-1.31-1.56-1.31Z"/><path class="cls-2" d="M54.68,15.1V7.18h5.6V8.36H56v2.11h3.54v1.18H56v2.27h4.27V15.1Z"/><path class="cls-2" d="M61.31,15.1V7.18h5.6V8.36H62.64v2.11h3.54v1.18H62.64v2.27h4.27V15.1Z"/><path class="cls-2" d="M69.86,15.1,73,7.18H74.5l3.1,7.92H76.13l-.75-2H72l-.76,2Zm2.61-3.16h2.47L74.13,9.8l-.42-1.43L73.28,9.8Z"/><path class="cls-2" d="M78,11.72V7.18h1.33v4.55c0,1.57.53,2.21,1.83,2.21S83,13.3,83,11.73V7.18h1.33v4.54c0,2.4-1,3.5-3.17,3.5S78,14.12,78,11.72Z"/><path class="cls-2" d="M86,15.1V7.18h3c2.45,0,3.77,1.51,3.77,4s-1.31,4-3.77,4Zm1.34-6.74v5.56h1.5c1.63,0,2.53-.79,2.53-2.78s-.9-2.78-2.54-2.78Z"/><path class="cls-2" d="M94,15.1V7.18h1.34V15.1Z"/><path class="cls-2" d="M98.35,15.1V8.36H95.92V7.18h6.2V8.36H99.68V15.1Z"/></g></g></svg>