<svg width="629" height="183" viewBox="0 0 629 183" fill="none" xmlns="http://www.w3.org/2000/svg">
<path d="M95.0098 66.8281V0H123.008C140.22 0 149.812 7.43555 149.812 21.8936C149.812 36.2139 140.22 44.1543 122.962 43.833H109.422V66.8281H95.0098ZM109.422 33.2305H121.723C131.774 33.2305 135.4 29.375 135.4 21.8936C135.4 14.5039 131.774 10.7402 121.723 10.7402H109.422V33.2305ZM155.688 42.7773V41.3086C155.688 33.5059 158.304 27.3096 163.582 22.7197C168.86 18.1758 175.699 15.8809 184.19 15.8809C192.636 15.8809 199.475 18.1758 204.753 22.7197C210.031 27.3096 212.647 33.5059 212.647 41.3086V42.7773C212.647 50.5342 210.031 56.7305 204.753 61.3203C199.475 65.9102 192.636 68.2051 184.19 68.2051C175.699 68.2051 168.86 65.9102 163.582 61.3203C158.304 56.7305 155.688 50.5342 155.688 42.7773ZM169.962 40.5283V43.5117C169.962 52.4619 175.148 57.6484 184.19 57.6484C193.187 57.6484 198.373 52.4619 198.373 43.5117V40.5283C198.373 31.5781 193.141 26.4375 184.19 26.4375C175.194 26.4375 169.962 31.5781 169.962 40.5283ZM216.641 17.2578H230.961L238.855 45.21C239.544 47.6426 240.324 50.8096 240.554 53.1963H240.875C241.104 50.8096 241.885 47.6426 242.665 45.21L252.35 17.2578H266.486L276.125 45.2559C276.905 47.6426 277.777 50.8555 278.099 53.2422H278.374C278.695 50.8555 279.292 47.6426 279.98 45.2559L288.104 17.2578H300.727L284.662 66.8281H270.847L260.795 38.4629C259.923 36.1221 259.28 33.6436 258.729 31.3027H258.546C257.995 33.6436 257.307 36.1221 256.526 38.4629L246.612 66.8281H232.659L216.641 17.2578ZM304.674 42.7773V41.3086C304.674 33.6436 307.244 27.4932 312.385 22.8574C317.479 18.2217 324.089 15.8809 332.121 15.8809C348.277 15.8809 357.962 25.1064 357.962 40.4824V45.3018H318.397C319.04 53.2422 323.722 57.9238 333.177 57.9238C339.419 57.9238 343.963 55.3076 347.222 51.4521L356.952 58.0615C353.51 63.9365 344.743 68.2051 333.406 68.2051C324.456 68.2051 317.388 65.8643 312.339 61.2285C307.244 56.5928 304.674 50.4424 304.674 42.7773ZM331.892 25.9326C324.135 25.9326 319.637 30.0176 318.581 37.1777H344.146V36.5811C344.146 30.0176 340.888 25.9326 331.892 25.9326ZM367.142 66.8281V17.2578H380.406L380.636 24.0049H380.957C383.298 19.2314 388.714 16.0645 394.038 16.0645C395.507 16.0645 397.205 16.4775 397.894 16.707V28.4111C396.608 28.1816 395.277 27.998 393.625 27.998C387.979 27.998 383.206 31.1191 381.141 35.2959V66.8281H367.142ZM427.728 45.9902V17.2578H441.727V46.4492C441.727 54.4814 445.582 57.1436 451.824 57.1436C457.332 57.1436 461.692 53.9307 464.033 49.708V17.2578H478.032V66.8281H464.768L464.354 60.3105H464.217C460.361 65.2676 454.257 67.7461 446.775 67.7461C441.176 67.7461 436.586 66.0938 433.052 62.7432C429.518 59.3926 427.728 53.8389 427.728 45.9902ZM489.966 85.9219V17.2578H503.093L503.414 23.2705H503.552C506.26 19.2773 512.823 16.2939 520.396 16.2939C527.557 16.2939 533.34 18.543 537.7 23.0869C542.061 27.6309 544.264 33.7354 544.264 41.3086V42.7773C544.264 50.3047 542.106 56.3633 537.792 60.9072C533.478 65.4512 527.832 67.7461 520.81 67.7461C513.282 67.7461 506.994 65.3594 503.919 61.458V85.9219H489.966ZM503.735 49.9834C505.571 53.8848 510.62 57.2354 516.862 57.2354C525.721 57.2354 529.989 51.957 529.989 43.5117V40.5742C529.989 32.083 525.904 26.8506 516.771 26.8506C510.391 26.8506 505.709 30.1553 503.735 33.873V49.9834ZM3.67188 181.876L3.80957 171.641C5.64551 172.146 8.26172 172.467 10.2354 172.467C13.0352 172.467 15.376 171.916 17.2119 170.814C19.002 169.759 20.6084 167.28 21.9854 163.471L20.8838 162.369L0 113.258H14.3203L25.749 142.541C26.6211 144.882 27.3555 147.131 27.7686 149.839H28.0439C28.5488 147.131 29.0996 144.928 29.9717 142.541L41.2168 113.258H54.3896L31.8994 168.565C28.0439 177.883 20.8379 182.84 11.3369 182.84C8.21582 182.84 5.64551 182.564 3.67188 181.876ZM56.5928 138.777V137.309C56.5928 129.506 59.209 123.31 64.4873 118.72C69.7656 114.176 76.6045 111.881 85.0957 111.881C93.541 111.881 100.38 114.176 105.658 118.72C110.937 123.31 113.553 129.506 113.553 137.309V138.777C113.553 146.534 110.937 152.73 105.658 157.32C100.38 161.91 93.541 164.205 85.0957 164.205C76.6045 164.205 69.7656 161.91 64.4873 157.32C59.209 152.73 56.5928 146.534 56.5928 138.777ZM70.8672 136.528V139.512C70.8672 148.462 76.0537 153.648 85.0957 153.648C94.0918 153.648 99.2783 148.462 99.2783 139.512V136.528C99.2783 127.578 94.0459 122.438 85.0957 122.438C76.0996 122.438 70.8672 127.578 70.8672 136.528ZM122.457 141.99V113.258H136.456V142.449C136.456 150.481 140.312 153.144 146.554 153.144C152.062 153.144 156.422 149.931 158.763 145.708V113.258H172.762V162.828H159.497L159.084 156.311H158.946C155.091 161.268 148.986 163.746 141.505 163.746C135.905 163.746 131.315 162.094 127.781 158.743C124.247 155.393 122.457 149.839 122.457 141.99ZM184.695 162.828V113.258H197.96L198.189 120.005H198.511C200.852 115.231 206.268 112.064 211.592 112.064C213.061 112.064 214.759 112.478 215.447 112.707V124.411C214.162 124.182 212.831 123.998 211.179 123.998C205.533 123.998 200.76 127.119 198.694 131.296V162.828H184.695ZM245.74 162.828V92.5576H259.693V120.785C263.595 115.461 268.781 112.294 277.089 112.294C288.472 112.294 295.815 118.261 295.815 132.719V162.828H281.816V133.499C281.816 125.926 277.869 122.988 271.443 122.988C265.89 122.988 261.942 125.88 259.693 130.883V162.828H245.74ZM304.949 148.278C304.949 137.492 314.129 131.938 330.147 131.938H342.448V128.45C342.448 123.539 339.281 121.336 332.075 121.336C324.961 121.336 321.473 123.493 321.473 127.349V127.854H307.841V127.349C307.841 117.205 317.434 111.881 332.626 111.881C347.543 111.881 356.264 117.48 356.264 128.542V151.95C356.264 155.852 357.09 159.569 358.421 162.094V162.828H344.789C344.009 161.359 343.183 158.743 342.999 156.494C340.75 160.35 333.911 163.7 324.181 163.7C312.385 163.7 304.949 158.422 304.949 148.278ZM318.856 147.177C318.856 152.134 321.84 154.383 329.229 154.383C332.947 154.383 336.114 153.465 338.73 151.583C341.347 149.701 342.632 147.498 342.632 144.882V139.787H332.167C323.4 139.787 318.856 142.449 318.856 147.177ZM368.564 162.828V113.258H381.829L382.059 120.005H382.38C384.721 115.231 390.137 112.064 395.461 112.064C396.93 112.064 398.628 112.478 399.316 112.707V124.411C398.031 124.182 396.7 123.998 395.048 123.998C389.402 123.998 384.629 127.119 382.563 131.296V162.828H368.564ZM400.647 113.258H415.197L426.259 142.22C427.177 144.561 427.773 146.534 428.324 149.472H428.6C429.15 146.534 429.701 144.561 430.619 142.22L441.727 113.258H454.808L434.566 162.828H420.705L400.647 113.258ZM457.103 138.777V137.309C457.103 129.644 459.673 123.493 464.813 118.857C469.908 114.222 476.518 111.881 484.55 111.881C500.706 111.881 510.391 121.106 510.391 136.482V141.302H470.826C471.469 149.242 476.15 153.924 485.605 153.924C491.848 153.924 496.392 151.308 499.65 147.452L509.381 154.062C505.938 159.937 497.172 164.205 485.835 164.205C476.885 164.205 469.816 161.864 464.768 157.229C459.673 152.593 457.103 146.442 457.103 138.777ZM484.32 121.933C476.563 121.933 472.065 126.018 471.01 133.178H496.575V132.581C496.575 126.018 493.316 121.933 484.32 121.933ZM516.587 147.269L530.311 147.314V148.095C530.311 152.685 534.763 154.704 541.602 154.704C548.899 154.704 552.525 152.868 552.525 149.15C552.525 147.406 551.699 146.075 550.047 145.203C548.349 144.377 544.172 143.367 537.471 142.22C524.068 139.971 518.102 135.381 518.102 127.119C518.102 117.71 527.235 111.881 541.602 111.835C556.151 111.835 565.423 118.215 565.423 127.808V128.588H551.745V127.532C551.745 123.447 548.578 121.061 541.556 121.061C534.717 121.061 531.779 122.759 531.779 126.201C531.779 127.716 532.651 128.909 534.396 129.827C536.14 130.745 540.362 131.755 547.018 132.856C560.787 135.105 566.524 139.649 566.524 148.141C566.524 158.009 557.941 164.205 541.647 164.205C525.675 164.205 516.587 158.284 516.587 147.819V147.269ZM578.458 148.278V123.401H569.6V113.258H578.504V101.691H592.365V113.258H603.61V123.401H592.365V148.003C592.365 152.363 594.568 153.786 598.378 153.786C600.214 153.786 601.958 153.373 603.656 152.868V162.782C602.05 163.517 598.837 164.159 595.303 164.159C585.205 164.159 578.458 159.248 578.458 148.278ZM611.184 155.622C611.184 151.032 614.351 147.36 619.996 147.36C625.688 147.36 628.809 151.032 628.809 155.576C628.809 160.166 625.688 163.838 619.95 163.838C614.396 163.838 611.184 160.166 611.184 155.622Z" fill="white"/>
</svg>
