<svg xmlns="http://www.w3.org/2000/svg" viewBox="0 0 528.85 247.47"><defs><style>.cls-1{fill:#221f20;}</style></defs><g id="Layer_2" data-name="Layer 2"><g id="Layer_1-2" data-name="Layer 1"><path class="cls-1" d="M10.37,54.3H0L17,.74H30.24l17,53.56H36.86l-3.6-11.7H14ZM23.62,11.63l-7,22.58h14Z"/><path class="cls-1" d="M73.5,24.72H63.94v17a5.72,5.72,0,0,0,1.32,4A4.78,4.78,0,0,0,69,47.16a12.2,12.2,0,0,0,4.42-.88l.81,7.95a36.55,36.55,0,0,1-7.66.88q-6.46,0-9.38-3.5t-2.9-11V24.72h-6V16.78h6V7.58l9.64-1.91V16.78H73.5Z"/><path class="cls-1" d="M119.19,24.72h-9.56v17a5.72,5.72,0,0,0,1.32,4,4.78,4.78,0,0,0,3.75,1.47,12.2,12.2,0,0,0,4.42-.88l.81,7.95a36.55,36.55,0,0,1-7.66.88q-6.47,0-9.38-3.5t-2.9-11V24.72H94V16.78h6V7.58l9.64-1.91V16.78h9.56Z"/><path class="cls-1" d="M137.29,54.3h-9.64V.74h9.64V22.22a12.57,12.57,0,0,1,11.26-6.33q6,0,9.08,3.68t3.13,10.74v24h-9.64V32.59q0-7.94-5.59-7.94a7.18,7.18,0,0,0-5.3,2,10,10,0,0,0-2.65,5,13.9,13.9,0,0,0-.29,3.16Z"/><path class="cls-1" d="M186.14,55.18q-8.67,0-13.46-5.41T167.9,35.54q0-8.84,4.78-14.24t13.46-5.41q8.69,0,13.06,5.74t4.38,16.26H177.24a13.08,13.08,0,0,0,2.83,7.25,7.64,7.64,0,0,0,6.07,2.68c3.49,0,6.13-1.74,8-5.22l8.53,2.13Q198.06,55.19,186.14,55.18Zm0-32a7.92,7.92,0,0,0-5.81,2.24,11.2,11.2,0,0,0-2.94,6.44h16.77a10.68,10.68,0,0,0-2.57-6.44A7.17,7.17,0,0,0,186.14,23.18Z"/><path class="cls-1" d="M239.63,54.3H230V24.72h-6.1V16.78H230V14.64Q230,0,243.31,0a18.56,18.56,0,0,1,9.34,2.35l-2.87,7.44a10,10,0,0,0-5.22-1.55A4.4,4.4,0,0,0,241,9.86a7.36,7.36,0,0,0-1.33,4.78v2.14h9.42v7.94h-9.42Z"/><path class="cls-1" d="M284.33,49.74q-4.83,5.37-13.43,5.37t-13.43-5.37q-4.82-5.37-4.82-14.2t4.82-14.24q4.81-5.4,13.43-5.41t13.43,5.41q4.82,5.41,4.82,14.24T284.33,49.74ZM264.46,44a8.23,8.23,0,0,0,12.88,0c1.44-2.06,2.17-4.9,2.17-8.53s-.73-6.48-2.17-8.54a8.22,8.22,0,0,0-12.88,0q-2.18,3.13-2.17,8.5T264.46,44Z"/><path class="cls-1" d="M306.88,54.3h-9.64V16.78h8v7.94q2.94-8.61,10.59-8.61a13.42,13.42,0,0,1,4.2.67L318.36,26a10.64,10.64,0,0,0-3.32-.59,7,7,0,0,0-4.85,1.81,9.26,9.26,0,0,0-2.72,4.89,35.52,35.52,0,0,0-.59,6.62Z"/><path class="cls-1" d="M340.5,55.18q-8.69,0-13.46-5.41t-4.79-14.23q0-8.84,4.79-14.24t13.46-5.41q8.69,0,13.06,5.74t4.38,16.26H331.6a13.08,13.08,0,0,0,2.83,7.25,7.64,7.64,0,0,0,6.07,2.68q5.22,0,7.95-5.22L357,44.73Q352.42,55.19,340.5,55.18Zm0-32a7.92,7.92,0,0,0-5.81,2.24,11.2,11.2,0,0,0-2.94,6.44h16.77A10.68,10.68,0,0,0,346,25.42,7.19,7.19,0,0,0,340.5,23.18Z"/><path class="cls-1" d="M377,54.3h-9.64V24.72h-6.11V16.78h6.11V14.64Q367.36,0,380.67,0A18.6,18.6,0,0,1,390,2.35l-2.87,7.44a10.08,10.08,0,0,0-5.23-1.55,4.4,4.4,0,0,0-3.6,1.62A7.42,7.42,0,0,0,377,14.64v2.14h9.41v7.94H377Z"/><path class="cls-1" d="M403.92,54.3h-9.64V16.78h8v7.94q3-8.61,10.6-8.61a13.36,13.36,0,0,1,4.19.67L415.4,26a10.58,10.58,0,0,0-3.31-.59,7,7,0,0,0-4.86,1.81,9.32,9.32,0,0,0-2.72,4.89,36.39,36.39,0,0,0-.59,6.62Z"/><path class="cls-1" d="M451,49.74q-4.82,5.37-13.42,5.37t-13.43-5.37q-4.81-5.37-4.82-14.2t4.82-14.24q4.81-5.4,13.43-5.41T451,21.3q4.83,5.41,4.82,14.24T451,49.74ZM431.11,44a8.22,8.22,0,0,0,12.87,0q2.17-3.09,2.18-8.53T444,27a8.21,8.21,0,0,0-12.87,0q-2.17,3.13-2.17,8.5T431.11,44Z"/><path class="cls-1" d="M473.52,54.3h-9.63V16.78h8.24v7.13q4.19-8,12.65-8,6,0,9.09,3.68T497,30.31v24h-9.64V32.59q0-7.94-5.6-7.94a7.16,7.16,0,0,0-5.29,2,9.89,9.89,0,0,0-2.65,5,31.15,31.15,0,0,0-.3,5.22Z"/><path class="cls-1" d="M528.12,24.72h-9.57v17a5.67,5.67,0,0,0,1.33,4,4.78,4.78,0,0,0,3.75,1.47,12.15,12.15,0,0,0,4.41-.88l.81,7.95a36.53,36.53,0,0,1-7.65.88q-6.48,0-9.38-3.5t-2.91-11V24.72h-6V16.78h6V7.58l9.64-1.91V16.78h9.57Z"/><path class="cls-1" d="M33.51,139.66Q28.7,145,20.09,145T6.66,139.66q-4.81-5.37-4.82-14.2t4.82-14.23q4.81-5.42,13.43-5.41t13.42,5.41q4.83,5.4,4.82,14.23T33.51,139.66ZM13.65,134a7.33,7.33,0,0,0,6.44,3.13A7.34,7.34,0,0,0,26.52,134q2.18-3.09,2.17-8.54t-2.17-8.53a7.34,7.34,0,0,0-6.43-3.09A7.32,7.32,0,0,0,13.65,117q-2.18,3.14-2.17,8.5C11.48,129,12.2,131.88,13.65,134Z"/><path class="cls-1" d="M57.39,144.22H47.75V114.65H41.64v-8h6.11v-2.13q0-14.64,13.32-14.65a18.49,18.49,0,0,1,9.34,2.36l-2.87,7.43a10.06,10.06,0,0,0-5.22-1.54,4.44,4.44,0,0,0-3.61,1.61,7.45,7.45,0,0,0-1.32,4.79v2.13H66.8v8H57.39Z"/><path class="cls-1" d="M96.09,144.22H85.86L97.63,125,86.3,106.7H97l7,11.63L111,106.7H121.1l-11,18.1L122,144.22H111.24l-7.57-12.72Z"/><path class="cls-1" d="M141.56,145.11q-8.69,0-13.47-5.41t-4.78-14.24q0-8.82,4.78-14.23t13.47-5.41q8.67,0,13.06,5.74T159,127.82H132.65a13,13,0,0,0,2.84,7.24,7.62,7.62,0,0,0,6.07,2.69q5.22,0,7.94-5.22l8.54,2.13Q153.47,145.1,141.56,145.11Zm0-32a7.94,7.94,0,0,0-5.82,2.25,11.17,11.17,0,0,0-2.94,6.43h16.78a10.72,10.72,0,0,0-2.58-6.43A7.17,7.17,0,0,0,141.56,113.1Z"/><path class="cls-1" d="M176.72,144.22h-9.64V106.7h8.25v7.14q4.18-8,12.65-8,6,0,9.09,3.68t3.12,10.74v24h-9.63v-21.7q0-8-5.6-8a7.17,7.17,0,0,0-5.29,2,9.82,9.82,0,0,0-2.65,5,31.21,31.21,0,0,0-.3,5.23Z"/><path class="cls-1" d="M239,139.66Q234.19,145,225.58,145t-13.43-5.37q-4.82-5.37-4.82-14.2t4.82-14.23q4.82-5.42,13.43-5.41T239,111.23q4.83,5.4,4.82,14.23T239,139.66ZM219.14,134A8.21,8.21,0,0,0,232,134q2.18-3.09,2.18-8.54T232,116.93a8.22,8.22,0,0,0-12.87,0q-2.17,3.14-2.17,8.5C217,129,217.69,131.88,219.14,134Z"/><path class="cls-1" d="M10.23,227.89c-.4,1.38-.33,2.38.18,3a2.57,2.57,0,0,0,2.1,1,4.64,4.64,0,0,0,3.12-1.47,13.13,13.13,0,0,0,2.91-5.15l1.1-3H21l-1.47,4.41a12.87,12.87,0,0,1-4.27,6.55,10.63,10.63,0,0,1-6.47,2,7.58,7.58,0,0,1-5-1.47,6.09,6.09,0,0,1-2.06-4,14.23,14.23,0,0,1,.62-5.78l11.11-38.77c1.77-.05,3.42-.15,5-.3a29.21,29.21,0,0,0,4.38-.73Zm17.88-31.71-.23,1.48H3.24l.36-1.48Z"/><path class="cls-1" d="M35.46,234.15h-9l8.83-31.71a6.78,6.78,0,0,0,.44-3.09,1.18,1.18,0,0,0-1.32-.89,3.39,3.39,0,0,0-2.58,1.4,16.88,16.88,0,0,0-2.42,4.93l-1.26,3.46H26.71l1.91-5.52a13.06,13.06,0,0,1,2.58-4.6,8.54,8.54,0,0,1,3.38-2.31,10.79,10.79,0,0,1,3.75-.67,5.36,5.36,0,0,1,3.5,1,4.35,4.35,0,0,1,1.47,2.5,10.85,10.85,0,0,1,.15,3.35,24.45,24.45,0,0,1-.63,3.49Zm18.84-37.3A5.9,5.9,0,0,0,51,198a15,15,0,0,0-3.53,3.64,37.91,37.91,0,0,0-3.72,6.58,105.2,105.2,0,0,0-3.86,9.94q-2,5.83-4,13.79l1.77-9.78q2.28-7.72,4.3-12.92a51.33,51.33,0,0,1,4-8.31,13.06,13.06,0,0,1,4.15-4.45,9.11,9.11,0,0,1,4.79-1.33A5.31,5.31,0,0,1,59,196.7a5.38,5.38,0,0,1,1.43,3.82,7.07,7.07,0,0,1-3.2,5.93,5.92,5.92,0,0,1-3.27.92,4.19,4.19,0,0,1-2.91-1A3.56,3.56,0,0,1,50,203.62a6,6,0,0,1,.73-3,7.27,7.27,0,0,1,1.92-2.24,7.16,7.16,0,0,1,2.57-1.29.91.91,0,0,0-.37-.22A1.57,1.57,0,0,0,54.3,196.85Z"/><path class="cls-1" d="M68.94,231.79a4.75,4.75,0,0,0,3-1.58,21.58,21.58,0,0,0,3.45-4.45,46.36,46.36,0,0,0,3.39-6.84,63.64,63.64,0,0,0,2.79-8.68l-1.54,7.94a46.9,46.9,0,0,1-4.53,10,16.71,16.71,0,0,1-5,5.37,10.11,10.11,0,0,1-5.41,1.62q-4,0-5.88-2.47a10.4,10.4,0,0,1-1.92-6.58,28.58,28.58,0,0,1,1.25-8.06,42,42,0,0,1,3.5-8.31,41.09,41.09,0,0,1,5.11-7.36,26.92,26.92,0,0,1,6.11-5.26,12.32,12.32,0,0,1,6.47-2,4.26,4.26,0,0,1,3.83,2.1q1.32,2.1.66,6.37l-.81.44a8.66,8.66,0,0,0-.26-4.86,2.61,2.61,0,0,0-2.53-1.77,5.39,5.39,0,0,0-3.57,1.77A23.22,23.22,0,0,0,73.35,204,45.52,45.52,0,0,0,70,210.83a51,51,0,0,0-2.39,7.94,38.82,38.82,0,0,0-.88,8,9.75,9.75,0,0,0,.55,3.86A1.76,1.76,0,0,0,68.94,231.79Zm16.55-35.61c1.77,0,3.42-.14,5-.29a31.3,31.3,0,0,0,4.45-.74l-9.49,32.67a9.38,9.38,0,0,0-.41,1.8,3.16,3.16,0,0,0,.15,1.55c.17.42.58.62,1.22.62a3.51,3.51,0,0,0,2.42-1.25,14,14,0,0,0,2.58-5.07l1.1-3.31h1.4L92,227.53a13,13,0,0,1-2.57,4.67,8.94,8.94,0,0,1-3.28,2.32,9.52,9.52,0,0,1-3.42.66q-3.52,0-5-2.21a6.41,6.41,0,0,1-.74-4,31,31,0,0,1,1-5.08Z"/><path class="cls-1" d="M108,234.15H99l8.9-31.71c.19-.69.34-1.33.44-1.92a2.6,2.6,0,0,0-.11-1.47c-.17-.39-.6-.59-1.29-.59a3.3,3.3,0,0,0-2.54,1.37,17.74,17.74,0,0,0-2.46,5l-1.25,3.46h-1.4l1.91-5.52q1.55-4.33,4-6a9.48,9.48,0,0,1,5.37-1.62,6.12,6.12,0,0,1,3.71,1,4.28,4.28,0,0,1,1.66,2.47,9.46,9.46,0,0,1,.15,3.31,28.63,28.63,0,0,1-.67,3.56Zm2.72-13.39A110.8,110.8,0,0,1,116,208.25a45,45,0,0,1,4.86-7.84,14.48,14.48,0,0,1,4.85-4.08,12.22,12.22,0,0,1,5.23-1.18q3.6,0,5,1.59a5.79,5.79,0,0,1,1.4,4.12,18,18,0,0,1-1,5.4l-7.21,21.63a5.46,5.46,0,0,0-.37,3,1.36,1.36,0,0,0,1.48,1,3.4,3.4,0,0,0,2.31-1.25,15.73,15.73,0,0,0,2.62-5.08l1.17-3.31h1.4l-1.84,5.37a12.28,12.28,0,0,1-2.61,4.71,8.68,8.68,0,0,1-3.39,2.24,10.74,10.74,0,0,1-3.56.63,7.77,7.77,0,0,1-3.28-.63,4.79,4.79,0,0,1-2.09-1.73,5.53,5.53,0,0,1-.81-3.6,21.75,21.75,0,0,1,1.17-5.3l6.7-20.23a21.93,21.93,0,0,0,.59-2.39,4.09,4.09,0,0,0-.08-2.06c-.19-.57-.71-.85-1.54-.85a5.26,5.26,0,0,0-3.39,1.73,25.76,25.76,0,0,0-3.82,4.82,66,66,0,0,0-4,7.21q-2,4.13-3.79,8.94t-3.2,10Z"/><path class="cls-1" d="M146.27,233a6.23,6.23,0,0,0,1.25.48,6.81,6.81,0,0,0,1.84.19A6.45,6.45,0,0,0,154,231.9a6.65,6.65,0,0,0,1.87-5,12.6,12.6,0,0,0-1-4.78,30.41,30.41,0,0,0-3-5.37c-1.18-1.71-2.24-3.41-3.2-5.08a11.26,11.26,0,0,1-1.44-5.73,10,10,0,0,1,1.55-5.56,10.68,10.68,0,0,1,4.41-3.79,15.19,15.19,0,0,1,6.7-1.4,21,21,0,0,1,4.93.59,8.27,8.27,0,0,1,4,2.14,6.63,6.63,0,0,1,1.11,6.65,5,5,0,0,1-1.33,1.95,3.34,3.34,0,0,1-2.35.81,3.25,3.25,0,0,1-2.58-1.21,4.65,4.65,0,0,1-1-3.13,8,8,0,0,1,.63-3.16,10.81,10.81,0,0,1,1.51-2.58,6.07,6.07,0,0,0-2.95-.58,5.6,5.6,0,0,0-4.26,1.69A6.64,6.64,0,0,0,156,203.1a8.34,8.34,0,0,0,.55,3.05,15.8,15.8,0,0,0,1.54,2.95c.67,1,1.41,2.17,2.25,3.49a53.36,53.36,0,0,1,3.24,5.92,13,13,0,0,1,1.17,5.34,10.13,10.13,0,0,1-1.73,5.81,11.76,11.76,0,0,1-4.74,4.05,16,16,0,0,1-7.07,1.47,19.4,19.4,0,0,1-5.48-.77,9.41,9.41,0,0,1-4.26-2.54,6.81,6.81,0,0,1-1.66-4.86,5.72,5.72,0,0,1,.92-3.13,3.47,3.47,0,0,1,5.7.12,7.1,7.1,0,0,1,1,3.82,10.42,10.42,0,0,1-.41,3C146.69,231.71,146.46,232.46,146.27,233Z"/><path class="cls-1" d="M186.81,185.52c1.71-.15,3.37-.36,5-.63a28.58,28.58,0,0,0,4.53-1.14l-16,56.28q-1,3.54.59,4.71t5.22,1.18l-.44,1.55-4.71-.19q-3-.1-6.32-.11c-1.82,0-3.66,0-5.52.11l-4.12.19.44-1.55a5.91,5.91,0,0,0,3.82-1,7.19,7.19,0,0,0,1.92-3.57Zm-14.65,22.66c1.87-1.87,3.6-3.74,5.19-5.63a49.16,49.16,0,0,0,4.67-6.7,66.64,66.64,0,0,0,4.56-9.75l.23,1.18a46.33,46.33,0,0,1-3.68,8.94,45.56,45.56,0,0,1-4.68,6.95,72.82,72.82,0,0,1-5.48,6Zm26.64-9.64q-1.62,0-3.57,2.13a29.08,29.08,0,0,0-3.94,5.85,69,69,0,0,0-3.71,8.35,85.91,85.91,0,0,0-3,9.71l1.4-7.65a79.22,79.22,0,0,1,5.15-12.58,22.84,22.84,0,0,1,5.29-7,9.11,9.11,0,0,1,5.82-2.21,7.71,7.71,0,0,1,6.36,2.8c1.5,1.86,2.24,4.61,2.24,8.24a30.93,30.93,0,0,1-1,7.28,41.36,41.36,0,0,1-2.76,7.73,33.45,33.45,0,0,1-4.45,7,21,21,0,0,1-6.07,5.07,15.59,15.59,0,0,1-7.62,1.88,8.47,8.47,0,0,1-4.19-1,6.39,6.39,0,0,1-2.72-2.87l.59-1.25a6.63,6.63,0,0,0,1.91,2.43,4,4,0,0,0,2.43.73,6.94,6.94,0,0,0,4.45-1.8,18.37,18.37,0,0,0,4-4.86,42.4,42.4,0,0,0,3.2-6.8,48.94,48.94,0,0,0,2.17-7.65,37.24,37.24,0,0,0,.77-7.29,11.34,11.34,0,0,0-.73-4.89A2.26,2.26,0,0,0,198.8,198.54Z"/><path class="cls-1" d="M222.78,227.89a5.25,5.25,0,0,0-.25,3,1.36,1.36,0,0,0,1.43,1,3.29,3.29,0,0,0,2.24-1.29,16.24,16.24,0,0,0,2.62-5l1.17-3.31h1.4l-1.84,5.37a13.06,13.06,0,0,1-2.57,4.6,8.87,8.87,0,0,1-3.31,2.32,10.24,10.24,0,0,1-3.61.66,7,7,0,0,1-3.75-.88,4.47,4.47,0,0,1-1.91-2.43,9,9,0,0,1-.37-3.57,19.64,19.64,0,0,1,.88-4.38l11.7-38.85c.49-1.66.44-2.89-.15-3.67s-2.08-1.18-4.49-1.18l.52-1.55a45.7,45.7,0,0,0,8.53-.84,41.79,41.79,0,0,0,7.21-2.17Z"/><path class="cls-1" d="M246.7,231.79a4.73,4.73,0,0,0,3-1.58,21.59,21.59,0,0,0,3.46-4.45,46.38,46.38,0,0,0,3.38-6.84,65,65,0,0,0,2.8-8.68l-1.55,7.94a47.44,47.44,0,0,1-4.52,10,16.71,16.71,0,0,1-5,5.37,10.14,10.14,0,0,1-5.41,1.62q-4,0-5.89-2.47a10.46,10.46,0,0,1-1.91-6.58,28.58,28.58,0,0,1,1.25-8.06,43.24,43.24,0,0,1,8.61-15.67,26.71,26.71,0,0,1,6.11-5.26,12.29,12.29,0,0,1,6.47-2,4.27,4.27,0,0,1,3.83,2.1q1.32,2.1.66,6.37l-.81.44a8.75,8.75,0,0,0-.26-4.86,2.62,2.62,0,0,0-2.54-1.77,5.37,5.37,0,0,0-3.56,1.77,22.56,22.56,0,0,0-3.72,4.78,44.59,44.59,0,0,0-3.35,6.85,51,51,0,0,0-2.39,7.94,38.15,38.15,0,0,0-.88,8,9.57,9.57,0,0,0,.55,3.86A1.76,1.76,0,0,0,246.7,231.79Zm16.55-35.61c1.77,0,3.42-.14,5-.29a31.54,31.54,0,0,0,4.45-.74l-9.49,32.67a8.68,8.68,0,0,0-.41,1.8,3.16,3.16,0,0,0,.15,1.55c.17.42.57.62,1.21.62a3.51,3.51,0,0,0,2.43-1.25,14.37,14.37,0,0,0,2.58-5.07l1.1-3.31h1.4l-1.84,5.37a13,13,0,0,1-2.58,4.67,8.91,8.91,0,0,1-3.27,2.32,9.52,9.52,0,0,1-3.42.66q-3.54,0-5-2.21a6.48,6.48,0,0,1-.73-4,29.94,29.94,0,0,1,1-5.08Z"/><path class="cls-1" d="M285.76,234.15h-9.05l8.91-31.71c.19-.69.34-1.33.44-1.92a2.6,2.6,0,0,0-.11-1.47c-.18-.39-.6-.59-1.29-.59a3.3,3.3,0,0,0-2.54,1.37,17.74,17.74,0,0,0-2.46,5l-1.25,3.46H277l1.91-5.52c1-2.89,2.36-4.88,4-6a9.48,9.48,0,0,1,5.37-1.62,6.16,6.16,0,0,1,3.72,1,4.28,4.28,0,0,1,1.66,2.47,9.24,9.24,0,0,1,.14,3.31,26.87,26.87,0,0,1-.66,3.56Zm2.73-13.39a110.8,110.8,0,0,1,5.22-12.51,45,45,0,0,1,4.86-7.84,14.29,14.29,0,0,1,4.85-4.08,12.21,12.21,0,0,1,5.22-1.18q3.62,0,5,1.59a5.71,5.71,0,0,1,1.4,4.12,17.69,17.69,0,0,1-1,5.4l-7.21,21.63a5.36,5.36,0,0,0-.37,3,1.36,1.36,0,0,0,1.47,1,3.4,3.4,0,0,0,2.32-1.25,15.56,15.56,0,0,0,2.61-5.08l1.18-3.31h1.4l-1.84,5.37a12.28,12.28,0,0,1-2.61,4.71,8.75,8.75,0,0,1-3.39,2.24,10.75,10.75,0,0,1-3.57.63,7.75,7.75,0,0,1-3.27-.63,4.82,4.82,0,0,1-2.1-1.73,5.53,5.53,0,0,1-.81-3.6,21.83,21.83,0,0,1,1.18-5.3l6.7-20.23a19.81,19.81,0,0,0,.58-2.39,4,4,0,0,0-.07-2.06c-.2-.57-.71-.85-1.54-.85a5.26,5.26,0,0,0-3.39,1.73,25.36,25.36,0,0,0-3.82,4.82,67.66,67.66,0,0,0-4,7.21q-2,4.13-3.79,8.94t-3.2,10Z"/><path class="cls-1" d="M330,227.89c-.39,1.38-.33,2.38.19,3a2.53,2.53,0,0,0,2.09,1,4.68,4.68,0,0,0,3.13-1.47,13.38,13.38,0,0,0,2.91-5.15l1.1-3h1.4l-1.47,4.41a12.93,12.93,0,0,1-4.27,6.55,10.68,10.68,0,0,1-6.48,2,7.61,7.61,0,0,1-5-1.47,6.09,6.09,0,0,1-2.06-4,14.08,14.08,0,0,1,.63-5.78l11.11-38.77c1.76-.05,3.42-.15,5-.3a29.07,29.07,0,0,0,4.37-.73Zm17.88-31.71-.22,1.48H323l.37-1.48Z"/></g></g></svg>