<svg xmlns="http://www.w3.org/2000/svg" viewBox="0 0 131.65 25.81"><defs><style>.cls-1,.cls-2{fill:#2f80ec;}.cls-1{opacity:0.25;}.cls-3{fill:#fff;}</style></defs><g id="Layer_2" data-name="Layer 2"><g id="Layer_1-2" data-name="Layer 1"><rect class="cls-1" width="131.65" height="25.81" rx="12.91"/><rect class="cls-2" width="131.65" height="25.81" rx="12.91"/><path class="cls-3" d="M25,7.73V5.65h3.48v12a2.68,2.68,0,0,1-2.68,2.68H24.2a2.69,2.69,0,0,1-2.69-2.68V16.16H23.6v1.62a.49.49,0,0,0,.49.49H25.9a.49.49,0,0,0,.49-.49v-10Z"/><path class="cls-3" d="M36,5.65V7.74H31.59V12h3.35v2.08H31.59v4.23h4.24v2.09H29.5V5.65Z"/><path class="cls-3" d="M36.66,7.75V5.66h7V7.75H41.18V20.37H39.09V7.75Z"/><path class="cls-3" d="M44.27,7.74V5.65h6.4L46.44,18.28h3.49v2.09h-6.4L47.76,7.74Z"/><path class="cls-3" d="M51.31,7.75V5.66h7V7.75H55.84V20.37H53.75V7.75Z"/><path class="cls-3" d="M70.26,9.17v1.24a3.44,3.44,0,0,1-.76,2.15,4.28,4.28,0,0,1,.33.29,3.47,3.47,0,0,1,1,2.45v1.56a3.47,3.47,0,0,1-1,2.45c-1.39,1.38-3.6,1-5.38,1h-.56V5.7c1.78,0,4-.36,5.35,1A3.47,3.47,0,0,1,70.26,9.17Zm-2.09,1.24V9.17a1.39,1.39,0,0,0-1.39-1.39H66v4h.84A1.41,1.41,0,0,0,68.17,10.41Zm-.8,7.84a1.39,1.39,0,0,0,1.39-1.39V15.3a1.39,1.39,0,0,0-1.39-1.39H66v4.33Z"/><path class="cls-3" d="M76.55,5.66h2.08v12A2.69,2.69,0,0,1,76,20.37H74.36a2.69,2.69,0,0,1-2.69-2.68v-12h2.09q0,6.06,0,12.12a.5.5,0,0,0,.49.49h1.82a.49.49,0,0,0,.49-.49Z"/><path class="cls-3" d="M82.24,18.27h1.81a.49.49,0,0,0,.49-.49V16.16h2.08v1.53a2.68,2.68,0,0,1-2.68,2.68H82.35a2.69,2.69,0,0,1-2.69-2.68V8.33a2.69,2.69,0,0,1,2.69-2.68h1.59a2.68,2.68,0,0,1,2.68,2.68V9.84H84.54V8.24a.49.49,0,0,0-.49-.49H82.24a.49.49,0,0,0-.49.49v9.54A.49.49,0,0,0,82.24,18.27Z"/><path class="cls-3" d="M89.74,5.65V12h2.79V5.65h2.09V20.37H92.53V14.05H89.74v6.32H87.66V5.65Z"/><path class="cls-3" d="M102.12,5.65V7.74H97.73V12h3.35v2.08H97.73v4.23H102v2.09H95.65V5.65Z"/><path class="cls-3" d="M105.24,20.37h-2.08V5.65h1.67l3.2,6.22V5.65h2.09V20.37H108V16.42L105.24,11Z"/></g></g></svg>