<svg width="142" height="29" viewBox="0 0 142 29" fill="none" xmlns="http://www.w3.org/2000/svg">
<rect width="141.101" height="28.3434" rx="14.1717" fill="#BE5272"/>
<path d="M29.8841 13.1369C30.2581 13.2469 30.5588 13.4779 30.7861 13.8299C31.0135 14.1746 31.1271 14.5926 31.1271 15.0839C31.1271 15.8173 30.8741 16.3856 30.3681 16.7889C29.8695 17.1923 29.1801 17.3939 28.3001 17.3939H25.2971V9.47392H28.4101C29.1875 9.47392 29.8108 9.63159 30.2801 9.94692C30.7495 10.2549 30.9841 10.7609 30.9841 11.4649C30.9841 11.8756 30.8851 12.2203 30.6871 12.4989C30.4965 12.7776 30.2288 12.9903 29.8841 13.1369ZM26.6391 10.5849V12.6419H28.4101C28.7915 12.6419 29.0921 12.5539 29.3121 12.3779C29.5321 12.2019 29.6421 11.9416 29.6421 11.5969C29.6421 11.2523 29.5285 10.9993 29.3011 10.8379C29.0738 10.6693 28.7768 10.5849 28.4101 10.5849H26.6391ZM28.2561 16.2389C28.7108 16.2389 29.0701 16.1289 29.3341 15.9089C29.6055 15.6816 29.7411 15.3663 29.7411 14.9629C29.7411 14.5376 29.6018 14.2296 29.3231 14.0389C29.0518 13.8409 28.7071 13.7419 28.2891 13.7419H26.6391V16.2389H28.2561ZM32.1424 14.5229C32.1424 13.8923 32.2707 13.3459 32.5274 12.8839C32.7841 12.4219 33.1324 12.0699 33.5724 11.8279C34.0124 11.5859 34.4964 11.4649 35.0244 11.4649C35.5597 11.4649 36.0437 11.5859 36.4764 11.8279C36.9164 12.0699 37.2611 12.4219 37.5104 12.8839C37.7671 13.3459 37.8954 13.8923 37.8954 14.5229C37.8954 15.1536 37.7671 15.6999 37.5104 16.1619C37.2611 16.6166 36.9164 16.9649 36.4764 17.2069C36.0437 17.4416 35.5597 17.5589 35.0244 17.5589C34.4891 17.5589 34.0014 17.4416 33.5614 17.2069C33.1287 16.9649 32.7841 16.6166 32.5274 16.1619C32.2707 15.6999 32.1424 15.1536 32.1424 14.5229ZM33.4844 14.5229C33.4844 15.1389 33.6311 15.6083 33.9244 15.9309C34.2251 16.2536 34.5917 16.4149 35.0244 16.4149C35.4571 16.4149 35.8201 16.2536 36.1134 15.9309C36.4067 15.6083 36.5534 15.1389 36.5534 14.5229C36.5534 13.9069 36.4067 13.4376 36.1134 13.1149C35.8201 12.7849 35.4571 12.6199 35.0244 12.6199C34.7531 12.6199 34.5001 12.6896 34.2654 12.8289C34.0307 12.9683 33.8401 13.1846 33.6934 13.4779C33.5541 13.7639 33.4844 14.1123 33.4844 14.5229ZM38.824 14.5229C38.824 13.8923 38.9524 13.3459 39.209 12.8839C39.4657 12.4219 39.814 12.0699 40.254 11.8279C40.694 11.5859 41.178 11.4649 41.7061 11.4649C42.2414 11.4649 42.7254 11.5859 43.1581 11.8279C43.5981 12.0699 43.9427 12.4219 44.192 12.8839C44.4487 13.3459 44.5771 13.8923 44.5771 14.5229C44.5771 15.1536 44.4487 15.6999 44.192 16.1619C43.9427 16.6166 43.5981 16.9649 43.1581 17.2069C42.7254 17.4416 42.2414 17.5589 41.7061 17.5589C41.1707 17.5589 40.683 17.4416 40.243 17.2069C39.8104 16.9649 39.4657 16.6166 39.209 16.1619C38.9524 15.6999 38.824 15.1536 38.824 14.5229ZM40.166 14.5229C40.166 15.1389 40.3127 15.6083 40.606 15.9309C40.9067 16.2536 41.2734 16.4149 41.7061 16.4149C42.1387 16.4149 42.5017 16.2536 42.7951 15.9309C43.0884 15.6083 43.235 15.1389 43.235 14.5229C43.235 13.9069 43.0884 13.4376 42.7951 13.1149C42.5017 12.7849 42.1387 12.6199 41.7061 12.6199C41.4347 12.6199 41.1817 12.6896 40.947 12.8289C40.7124 12.9683 40.5217 13.1846 40.375 13.4779C40.2357 13.7639 40.166 14.1123 40.166 14.5229ZM46.8152 15.4799C46.8225 15.8026 46.9362 16.0593 47.1562 16.2499C47.3835 16.4406 47.6695 16.5359 48.0142 16.5359C48.3002 16.5359 48.5349 16.4773 48.7182 16.3599C48.9015 16.2426 48.9932 16.0703 48.9932 15.8429C48.9932 15.4249 48.6485 15.1536 47.9592 15.0289C47.2332 14.8969 46.6759 14.7026 46.2872 14.4459C45.9059 14.1893 45.7152 13.7896 45.7152 13.2469C45.7152 12.8583 45.8252 12.5319 46.0452 12.2679C46.2652 11.9966 46.5439 11.7986 46.8812 11.6739C47.2259 11.5419 47.5815 11.4759 47.9482 11.4759C48.3369 11.4759 48.7109 11.5456 49.0702 11.6849C49.4295 11.8169 49.7265 12.0259 49.9612 12.3119C50.2032 12.5979 50.3279 12.9573 50.3352 13.3899H49.0372C49.0299 13.1333 48.9272 12.9206 48.7292 12.7519C48.5312 12.5833 48.2819 12.4989 47.9812 12.4989C47.7319 12.4989 47.5119 12.5576 47.3212 12.6749C47.1305 12.7923 47.0352 12.9573 47.0352 13.1699C47.0352 13.3826 47.1525 13.5476 47.3872 13.6649C47.6292 13.7749 47.9849 13.8703 48.4542 13.9509C49.0629 14.0609 49.5249 14.2736 49.8402 14.5889C50.1555 14.9043 50.3132 15.2893 50.3132 15.7439C50.3132 16.3673 50.0859 16.8256 49.6312 17.1189C49.1765 17.4123 48.6339 17.5589 48.0032 17.5589C47.5705 17.5589 47.1635 17.4893 46.7822 17.3499C46.4082 17.2033 46.1002 16.9759 45.8582 16.6679C45.6162 16.3526 45.4915 15.9566 45.4842 15.4799H46.8152ZM54.3223 16.3489C54.4103 16.3489 54.5203 16.3416 54.6523 16.3269C54.7843 16.3049 54.9016 16.2793 55.0043 16.2499V17.3169C54.6889 17.4049 54.3846 17.4489 54.0913 17.4489C53.4679 17.4489 52.9803 17.2986 52.6283 16.9979C52.2836 16.6899 52.1113 16.1839 52.1113 15.4799V12.6859H50.9893V11.6299H52.1113V10.3869L53.4423 9.71592V11.6299H54.8613V12.6859H53.4423V15.4799C53.4423 15.7733 53.5193 15.9933 53.6733 16.1399C53.8346 16.2793 54.0509 16.3489 54.3223 16.3489ZM61.8018 15.5459L63.3308 11.6299H64.6838L61.5598 19.6489H60.1958L61.1638 17.1739L58.7658 11.6299H60.2398L61.8018 15.5459ZM65.1102 14.5229C65.1102 13.8923 65.2385 13.3459 65.4952 12.8839C65.7518 12.4219 66.1002 12.0699 66.5402 11.8279C66.9802 11.5859 67.4642 11.4649 67.9922 11.4649C68.5275 11.4649 69.0115 11.5859 69.4442 11.8279C69.8842 12.0699 70.2288 12.4219 70.4782 12.8839C70.7348 13.3459 70.8632 13.8923 70.8632 14.5229C70.8632 15.1536 70.7348 15.6999 70.4782 16.1619C70.2288 16.6166 69.8842 16.9649 69.4442 17.2069C69.0115 17.4416 68.5275 17.5589 67.9922 17.5589C67.4568 17.5589 66.9692 17.4416 66.5292 17.2069C66.0965 16.9649 65.7518 16.6166 65.4952 16.1619C65.2385 15.6999 65.1102 15.1536 65.1102 14.5229ZM66.4522 14.5229C66.4522 15.1389 66.5988 15.6083 66.8922 15.9309C67.1928 16.2536 67.5595 16.4149 67.9922 16.4149C68.4248 16.4149 68.7878 16.2536 69.0812 15.9309C69.3745 15.6083 69.5212 15.1389 69.5212 14.5229C69.5212 13.9069 69.3745 13.4376 69.0812 13.1149C68.7878 12.7849 68.4248 12.6199 67.9922 12.6199C67.7208 12.6199 67.4678 12.6896 67.2332 12.8289C66.9985 12.9683 66.8078 13.1846 66.6612 13.4779C66.5218 13.7639 66.4522 14.1123 66.4522 14.5229ZM75.8176 11.6299H77.1486V17.3939H75.8176V16.6019C75.6636 16.8586 75.4326 17.0823 75.1246 17.2729C74.8239 17.4636 74.4352 17.5589 73.9586 17.5589C73.3646 17.5589 72.8989 17.3609 72.5616 16.9649C72.2316 16.5689 72.0666 16.0703 72.0666 15.4689V11.6299H73.3976V15.1719C73.3976 15.5313 73.4856 15.8246 73.6616 16.0519C73.8376 16.2793 74.0906 16.3929 74.4206 16.3929C74.8312 16.3929 75.1649 16.2426 75.4216 15.9419C75.6856 15.6339 75.8176 15.2599 75.8176 14.8199V11.6299ZM81.4898 11.5749C81.7098 11.5749 81.9225 11.6116 82.1278 11.6849V12.9939C81.8785 12.9279 81.6548 12.8949 81.4568 12.8949C81.0315 12.8949 80.6758 13.0489 80.3898 13.3569C80.1111 13.6576 79.9718 14.0903 79.9718 14.6549V17.3939H78.6408V11.6299H79.9718V12.6529C80.0965 12.3449 80.2908 12.0883 80.5548 11.8829C80.8261 11.6776 81.1378 11.5749 81.4898 11.5749ZM89.4209 11.4649C89.9195 11.4649 90.3705 11.5859 90.7739 11.8279C91.1772 12.0626 91.4962 12.4073 91.7309 12.8619C91.9655 13.3166 92.0829 13.8593 92.0829 14.4899C92.0829 15.1133 91.9655 15.6596 91.7309 16.1289C91.4962 16.5909 91.1772 16.9466 90.7739 17.1959C90.3705 17.4379 89.9195 17.5589 89.4209 17.5589C89.0542 17.5589 88.7242 17.4709 88.4309 17.2949C88.1449 17.1189 87.9212 16.9026 87.7599 16.6459V17.3939H86.4289V9.19892H87.7599V12.3559C87.9432 12.0993 88.1852 11.8866 88.4859 11.7179C88.7939 11.5493 89.1055 11.4649 89.4209 11.4649ZM89.2779 16.4149C89.6959 16.4149 90.0405 16.2463 90.3119 15.9089C90.5905 15.5643 90.7299 15.0876 90.7299 14.4789C90.7299 13.8776 90.5942 13.4193 90.3229 13.1039C90.0515 12.7813 89.7032 12.6199 89.2779 12.6199C88.8452 12.6199 88.4859 12.7849 88.1999 13.1149C87.9139 13.4376 87.7709 13.9033 87.7709 14.5119C87.7709 14.9006 87.8369 15.2416 87.9689 15.5349C88.1082 15.8209 88.2915 16.0409 88.5189 16.1949C88.7462 16.3416 88.9992 16.4149 89.2779 16.4149ZM96.1529 11.5749C96.3729 11.5749 96.5855 11.6116 96.7909 11.6849V12.9939C96.5415 12.9279 96.3179 12.8949 96.1199 12.8949C95.6945 12.8949 95.3389 13.0489 95.0529 13.3569C94.7742 13.6576 94.6349 14.0903 94.6349 14.6549V17.3939H93.3039V11.6299H94.6349V12.6529C94.7595 12.3449 94.9539 12.0883 95.2179 11.8829C95.4892 11.6776 95.8009 11.5749 96.1529 11.5749ZM99.965 11.4649C100.654 11.4649 101.223 11.6336 101.67 11.9709C102.117 12.3009 102.341 12.8436 102.341 13.5989V17.3939H101.054V16.6239C100.863 16.9173 100.632 17.1373 100.361 17.2839C100.097 17.4306 99.7376 17.5039 99.283 17.5039C98.9676 17.5039 98.6706 17.4416 98.392 17.3169C98.1206 17.1849 97.9006 16.9979 97.732 16.7559C97.5706 16.5139 97.49 16.2279 97.49 15.8979C97.49 15.2159 97.7246 14.7173 98.194 14.4019C98.6706 14.0793 99.3196 13.8739 100.141 13.7859L101.065 13.6869V13.4889C101.065 13.1736 100.955 12.9316 100.735 12.7629C100.522 12.5869 100.258 12.4989 99.943 12.4989C99.635 12.4989 99.3636 12.5869 99.129 12.7629C98.9016 12.9389 98.7733 13.1663 98.744 13.4449H97.479C97.5303 12.8143 97.787 12.3266 98.249 11.9819C98.711 11.6373 99.283 11.4649 99.965 11.4649ZM99.624 16.4699C100.035 16.4699 100.376 16.3416 100.647 16.0849C100.918 15.8283 101.054 15.4799 101.054 15.0399V14.6329L100.13 14.7539C99.7266 14.8053 99.404 14.9189 99.162 15.0949C98.92 15.2709 98.799 15.4983 98.799 15.7769C98.799 15.9749 98.8723 16.1399 99.019 16.2719C99.173 16.4039 99.3746 16.4699 99.624 16.4699ZM107.087 11.4649C107.483 11.4649 107.828 11.5603 108.121 11.7509C108.422 11.9343 108.649 12.1873 108.803 12.5099C108.957 12.8253 109.034 13.1773 109.034 13.5659V17.3939H107.703V13.8519C107.703 13.4999 107.604 13.2103 107.406 12.9829C107.215 12.7483 106.955 12.6309 106.625 12.6309C106.354 12.6309 106.104 12.7043 105.877 12.8509C105.657 12.9903 105.485 13.1809 105.36 13.4229C105.235 13.6576 105.173 13.9179 105.173 14.2039V17.3939H103.842V11.6299H105.173V12.4219C105.327 12.1726 105.565 11.9526 105.888 11.7619C106.211 11.5639 106.61 11.4649 107.087 11.4649ZM114.561 9.19892H115.892V17.3939H114.561V16.5909C114.422 16.8549 114.205 17.0823 113.912 17.2729C113.619 17.4636 113.281 17.5589 112.9 17.5589C112.401 17.5589 111.95 17.4379 111.547 17.1959C111.144 16.9466 110.825 16.5909 110.59 16.1289C110.355 15.6596 110.238 15.1133 110.238 14.4899C110.238 13.8593 110.355 13.3166 110.59 12.8619C110.825 12.4073 111.144 12.0626 111.547 11.8279C111.95 11.5859 112.401 11.4649 112.9 11.4649C113.237 11.4649 113.553 11.5419 113.846 11.6959C114.139 11.8499 114.378 12.0516 114.561 12.3009V9.19892ZM113.054 16.4149C113.325 16.4149 113.575 16.3416 113.802 16.1949C114.037 16.0409 114.22 15.8209 114.352 15.5349C114.491 15.2416 114.561 14.9006 114.561 14.5119C114.561 13.9033 114.414 13.4376 114.121 13.1149C113.835 12.7849 113.479 12.6199 113.054 12.6199C112.629 12.6199 112.277 12.7813 111.998 13.1039C111.727 13.4193 111.591 13.8776 111.591 14.4789C111.591 15.0876 111.727 15.5643 111.998 15.9089C112.277 16.2463 112.629 16.4149 113.054 16.4149Z" fill="white"/>
</svg>
