<?xml version="1.0" encoding="UTF-8"?>
<svg id="Layer_2" data-name="Layer 2" xmlns="http://www.w3.org/2000/svg" viewBox="0 0 161.36 21.52">
  <defs>
    <style>
      .cls-1 {
        fill: #fff;
        stroke-width: 0px;
      }
    </style>
  </defs>
  <g id="Layer_1-2" data-name="Layer 1">
    <g>
      <path class="cls-1" d="M0,7.7V.55h1v7.15h-1ZM.5,4.48v-.86h4.65v.86H.5ZM4.75,7.7V.55h1v7.15h-1Z"/>
      <path class="cls-1" d="M8.03,1.13c-.23,0-.4-.05-.52-.14-.12-.09-.17-.23-.17-.42s.06-.33.17-.42c.12-.09.29-.14.51-.14s.4.05.52.14c.12.09.17.23.17.42s-.06.32-.17.42c-.12.1-.29.15-.51.15ZM7.53,7.7V2.1h.99v5.6h-.99Z"/>
      <path class="cls-1" d="M10.23,7.7V2.1h.89l-.09,1.95h.18c.07-.43.17-.79.3-1.11.14-.31.32-.55.55-.73s.51-.26.85-.26c.07,0,.16,0,.25.02s.2.04.33.08l-.05,1.03c-.11-.04-.22-.07-.33-.09s-.21-.03-.31-.03c-.28,0-.53.09-.73.27-.21.18-.38.42-.51.73-.14.31-.25.65-.34,1.03v2.7h-.99Z"/>
      <path class="cls-1" d="M16.86,7.84c-.44,0-.83-.07-1.17-.2s-.62-.33-.85-.58-.4-.55-.52-.9c-.12-.35-.17-.74-.17-1.17s.06-.85.17-1.21c.12-.37.29-.69.51-.96s.5-.49.82-.63.7-.22,1.12-.22c.37,0,.7.06,1.01.18.3.12.56.31.77.57s.37.58.48.96c.11.39.15.84.13,1.36l-4.4.03v-.67l3.8-.03-.34.46c.04-.46,0-.83-.13-1.13-.12-.3-.3-.52-.53-.67-.23-.15-.5-.23-.81-.23-.33,0-.62.09-.88.26s-.45.42-.58.75c-.13.33-.2.72-.2,1.18,0,.66.15,1.17.44,1.52.3.35.73.53,1.31.53.23,0,.43-.03.6-.08.17-.05.31-.13.43-.23.12-.1.22-.21.29-.34.08-.13.14-.27.18-.42l.87.21c-.07.26-.17.49-.3.7-.13.21-.3.38-.5.53-.2.15-.43.26-.69.34-.26.08-.56.12-.9.12Z"/>
      <path class="cls-1" d="M22.72,1.42v-.87h5.35v.87h-5.35ZM24.9,7.7V.55h1v7.15h-1Z"/>
      <path class="cls-1" d="M30.81,7.84c-.54,0-1.01-.12-1.41-.35-.41-.23-.73-.57-.95-1.01-.23-.44-.34-.98-.34-1.6s.12-1.19.36-1.62c.24-.43.56-.75.97-.97.4-.22.86-.33,1.35-.33s.98.11,1.39.34.73.56.97,1c.24.44.36.98.36,1.62s-.12,1.18-.35,1.61c-.24.43-.56.76-.96.98s-.87.33-1.38.33ZM30.85,7.03c.35,0,.64-.08.89-.25.25-.17.44-.41.58-.72.13-.31.2-.68.2-1.11s-.07-.82-.21-1.14c-.14-.32-.34-.57-.6-.75-.26-.18-.57-.27-.94-.27-.34,0-.63.08-.88.24-.25.16-.44.39-.58.7-.14.31-.21.68-.21,1.12,0,.68.16,1.21.47,1.6.31.39.74.58,1.28.58Z"/>
      <path class="cls-1" d="M34.91,9.46V2.1h.89l-.05,1.44h.16c.09-.32.21-.59.36-.83s.36-.42.6-.55c.25-.13.54-.2.89-.2.51,0,.94.13,1.28.38.34.26.6.61.78,1.05.17.44.26.95.26,1.51s-.09,1.07-.26,1.51c-.17.44-.43.79-.76,1.05s-.75.38-1.23.38c-.39,0-.71-.08-.97-.24-.26-.16-.46-.38-.61-.64-.15-.27-.27-.55-.36-.83h-.18c.04.2.08.4.11.61.03.21.05.42.07.62.02.21.03.4.03.59v1.52h-1ZM37.58,6.99c.32,0,.58-.09.8-.28.22-.18.38-.44.5-.75.12-.32.17-.68.17-1.07,0-.43-.06-.79-.18-1.09s-.29-.54-.5-.71c-.22-.17-.48-.25-.79-.25-.27,0-.5.06-.71.18s-.38.28-.53.48-.25.42-.33.65c-.08.23-.11.47-.11.7v.13c0,.14.02.31.07.48.04.18.11.36.2.54.09.18.2.35.33.5.13.15.29.27.47.37.18.09.39.14.62.14Z"/>
      <path class="cls-1" d="M41.22,5.28v-.91h2.88v.91h-2.88Z"/>
      <path class="cls-1" d="M51.6,9.19c-.46.08-.85.13-1.18.15-.33.02-.62.02-.89,0-.26-.02-.52-.05-.78-.09s-.54-.09-.84-.13c-.31-.04-.67-.08-1.07-.1s-.9-.03-1.48-.01v-.88c.26,0,.52,0,.78,0,.26,0,.52-.02.77-.04.26-.03.51-.06.76-.11.25-.05.49-.11.73-.19.24-.08.47-.18.68-.29v-.14c-.48.14-.91.2-1.31.17s-.75-.13-1.06-.3c-.31-.17-.57-.41-.78-.71-.21-.3-.37-.66-.49-1.06-.12-.4-.17-.85-.17-1.34,0-.53.07-1.03.21-1.47.14-.45.35-.84.62-1.17s.61-.59,1.01-.77c.4-.18.85-.27,1.37-.27.65,0,1.22.15,1.7.44.48.3.85.72,1.12,1.27.26.55.4,1.22.4,2.01,0,.59-.08,1.11-.23,1.56-.16.44-.39.83-.69,1.14-.31.32-.69.59-1.16.82-.47.23-1.01.42-1.64.58v.12c.35.04.66.07.94.09.28.03.56.04.83.04.27,0,.56,0,.86-.04.3-.03.63-.08,1.01-.15v.89ZM48.5,6.97c.48,0,.88-.11,1.2-.33.33-.22.57-.54.73-.96.16-.42.24-.92.24-1.52,0-.62-.09-1.15-.27-1.57-.18-.43-.43-.75-.76-.97s-.72-.33-1.19-.33-.87.11-1.19.34c-.33.22-.57.55-.74.97s-.25.94-.25,1.54.09,1.14.26,1.57c.17.42.43.74.76.95.33.21.73.31,1.19.31Z"/>
      <path class="cls-1" d="M55.05,7.84c-.62,0-1.09-.22-1.41-.65-.32-.43-.48-1.08-.48-1.94v-3.15h1v3.07c0,.61.09,1.06.28,1.35.19.3.48.44.89.44.22,0,.42-.05.6-.16.18-.11.33-.26.47-.47.14-.2.25-.44.34-.72.09-.28.14-.58.17-.9v-2.61h.99v5.6h-.88l.09-1.8h-.16c-.09.45-.23.81-.4,1.1-.17.29-.38.5-.63.63s-.54.21-.87.21Z"/>
      <path class="cls-1" d="M60.91,7.84c-.3,0-.58-.06-.82-.18-.25-.12-.44-.3-.59-.53s-.22-.53-.22-.89c0-.27.05-.5.15-.7.1-.2.25-.38.46-.52.21-.14.47-.26.8-.36.33-.09.72-.17,1.19-.24.27-.04.49-.07.66-.11.17-.04.29-.1.37-.18.08-.08.12-.21.12-.37,0-.27-.09-.51-.28-.69-.19-.19-.48-.28-.89-.28-.21,0-.42.04-.64.11-.22.07-.41.19-.57.36-.16.17-.27.41-.31.71l-.91-.3c.06-.26.15-.49.29-.7.13-.21.3-.39.51-.54.21-.15.45-.26.73-.34s.59-.12.93-.12c.47,0,.86.08,1.18.24.31.16.55.4.71.73.16.33.23.75.23,1.26v1.25c0,.22,0,.47.02.73s.03.53.05.79c.02.26.04.51.06.74h-.91c-.02-.23-.04-.46-.06-.69-.02-.23-.03-.46-.04-.69h-.14c-.11.27-.25.52-.43.75-.18.23-.41.42-.68.56-.27.14-.59.22-.96.22ZM61.2,7.04c.16,0,.32-.02.48-.08.16-.05.33-.13.49-.25.16-.12.32-.26.47-.44.15-.18.28-.4.4-.65v-1.08l.28.05c-.12.12-.27.2-.46.26-.19.06-.4.1-.63.14-.23.04-.46.07-.69.11-.23.04-.44.1-.63.17-.19.08-.34.18-.46.32-.12.14-.17.33-.17.56,0,.29.09.51.26.66.17.15.4.22.68.22Z"/>
      <path class="cls-1" d="M65.65,7.7V.12h.99v7.58h-.99Z"/>
      <path class="cls-1" d="M68.85,1.13c-.23,0-.4-.05-.52-.14-.12-.09-.17-.23-.17-.42s.06-.33.17-.42c.12-.09.29-.14.51-.14s.4.05.52.14c.12.09.17.23.17.42s-.06.32-.17.42c-.12.1-.29.15-.51.15ZM68.35,7.7V2.1h.99v5.6h-.99Z"/>
      <path class="cls-1" d="M72.79,7.81c-.52,0-.91-.14-1.16-.42s-.38-.71-.38-1.29v-3.17h-.84v-.82h.54c.18,0,.31-.03.4-.1.08-.07.13-.17.15-.33l.11-.85h.61v1.27h1.61v.83h-1.61v3.14c0,.29.07.5.2.62.13.13.33.19.58.19.14,0,.28-.02.43-.05.15-.04.29-.11.44-.22v.99c-.21.08-.4.13-.58.16-.18.03-.34.04-.48.04Z"/>
      <path class="cls-1" d="M77.07,9.59c-.3,0-.59-.03-.87-.1-.29-.07-.55-.17-.79-.31s-.43-.31-.58-.53l.5-.72c.17.25.4.43.7.56s.64.19,1,.19c.4,0,.74-.09,1.01-.27.27-.18.48-.45.61-.82.14-.37.21-.84.22-1.39l.12-1.13h-.21c-.08.53-.2.95-.37,1.26-.17.31-.38.54-.63.68s-.54.21-.86.21c-.4,0-.75-.1-1.02-.31-.28-.21-.49-.51-.63-.91s-.22-.89-.22-1.47v-2.44h.99v2.22c0,.7.1,1.22.3,1.54.2.33.5.49.89.49.22,0,.41-.05.58-.16.17-.11.32-.27.45-.48.13-.21.23-.48.3-.8s.12-.7.15-1.12v-1.7h.99v4.16c0,.44-.03.84-.1,1.19-.07.35-.17.66-.31.93-.14.26-.32.49-.53.67-.21.18-.46.32-.74.41-.28.09-.6.14-.95.14Z"/>
      <path class="cls-1" d="M84.21,7.7V.55h2.62c.4,0,.76.04,1.09.11.33.07.61.18.84.33s.41.34.54.58c.13.24.19.52.19.86,0,.27-.05.52-.16.73s-.28.38-.51.51c-.23.13-.54.23-.93.3v.12c.66.06,1.15.24,1.45.54.3.3.45.7.45,1.19,0,.4-.1.75-.29,1.02s-.48.49-.88.64c-.39.15-.9.22-1.52.22h-2.88ZM85.17,3.67h1.23c.71,0,1.24-.1,1.58-.29s.52-.48.52-.86-.15-.67-.45-.86c-.3-.19-.75-.28-1.36-.28h-1.53v2.29ZM85.17,6.86h2.03c.54,0,.95-.09,1.21-.28s.4-.47.4-.85c0-.44-.18-.77-.55-.99-.36-.22-.92-.33-1.65-.33h-1.43v2.45Z"/>
      <path class="cls-1" d="M93.66,7.84c-.44,0-.83-.07-1.17-.2s-.62-.33-.85-.58-.4-.55-.52-.9c-.12-.35-.17-.74-.17-1.17s.06-.85.17-1.21c.12-.37.29-.69.51-.96s.5-.49.82-.63.7-.22,1.12-.22c.37,0,.7.06,1.01.18.3.12.56.31.77.57s.37.58.48.96c.11.39.15.84.13,1.36l-4.4.03v-.67l3.8-.03-.34.46c.04-.46,0-.83-.13-1.13-.12-.3-.3-.52-.53-.67-.23-.15-.5-.23-.81-.23-.33,0-.62.09-.88.26s-.45.42-.58.75c-.13.33-.2.72-.2,1.18,0,.66.15,1.17.44,1.52.3.35.73.53,1.31.53.23,0,.43-.03.6-.08.17-.05.31-.13.43-.23.12-.1.22-.21.29-.34.08-.13.14-.27.18-.42l.87.21c-.07.26-.17.49-.3.7-.13.21-.3.38-.5.53-.2.15-.43.26-.69.34-.26.08-.56.12-.9.12Z"/>
      <path class="cls-1" d="M97.37,7.7V.12h.99v7.58h-.99Z"/>
      <path class="cls-1" d="M101.84,7.81c-.52,0-.91-.14-1.16-.42s-.38-.71-.38-1.29v-3.17h-.84v-.82h.54c.18,0,.31-.03.4-.1.08-.07.13-.17.15-.33l.11-.85h.61v1.27h1.61v.83h-1.61v3.14c0,.29.07.5.2.62.13.13.33.19.58.19.14,0,.28-.02.43-.05.15-.04.29-.11.44-.22v.99c-.21.08-.4.13-.58.16-.18.03-.34.04-.48.04Z"/>
      <path class="cls-1" d="M106.2,7.84c-.39,0-.74-.04-1.04-.12-.3-.08-.56-.2-.76-.36s-.36-.34-.47-.56-.17-.46-.17-.71l.83-.22c-.01.24.04.45.18.62.13.18.33.31.57.41s.55.14.9.14c.43,0,.76-.07.99-.22.23-.14.35-.34.35-.6,0-.2-.06-.36-.2-.47-.13-.11-.31-.2-.54-.27-.23-.07-.5-.13-.81-.19-.26-.06-.52-.12-.78-.2-.26-.07-.5-.17-.71-.29s-.38-.28-.51-.47c-.13-.2-.2-.44-.2-.73,0-.34.09-.63.27-.88.18-.25.44-.44.77-.57.33-.14.73-.21,1.19-.21s.86.07,1.18.21c.33.14.58.34.77.59s.29.55.31.89l-.86.22c0-.24-.07-.44-.19-.61s-.29-.29-.5-.37-.47-.12-.76-.12c-.38,0-.69.07-.91.22-.22.14-.34.34-.34.6,0,.19.07.34.2.46.13.12.32.21.55.27s.49.13.77.19c.29.06.57.12.83.2s.5.17.71.28c.21.12.38.27.5.46s.18.44.18.73c0,.37-.1.68-.29.93-.2.25-.47.44-.82.56s-.76.19-1.23.19Z"/>
      <path class="cls-1" d="M113.11,1.13c-.23,0-.4-.05-.52-.14-.12-.09-.17-.23-.17-.42s.06-.33.17-.42c.12-.09.29-.14.51-.14s.4.05.52.14c.12.09.17.23.17.42s-.06.32-.17.42c-.12.1-.29.15-.51.15ZM112.61,7.7V2.1h.99v5.6h-.99Z"/>
      <path class="cls-1" d="M115.31,7.7V2.1h.89l-.1,1.78h.18c.1-.44.24-.8.41-1.08.17-.28.38-.49.64-.63.26-.14.56-.21.91-.21.62,0,1.09.22,1.41.67.32.44.48,1.11.48,1.99v3.09h-1v-3c0-.64-.1-1.1-.3-1.41-.2-.3-.49-.46-.87-.46-.35,0-.64.11-.88.33-.24.22-.43.5-.57.86-.14.35-.21.74-.23,1.15v2.54h-.99Z"/>
      <path class="cls-1" d="M127.09,7.84c-.48,0-.89-.05-1.25-.15s-.66-.25-.9-.45-.42-.44-.54-.73c-.12-.29-.17-.62-.15-1.01l.9-.19c-.03.38.03.69.18.94.15.25.38.44.69.57.31.13.67.19,1.09.19s.75-.05,1.03-.15c.28-.1.49-.24.63-.42.14-.18.21-.39.21-.62,0-.26-.08-.47-.25-.62s-.39-.27-.67-.35c-.28-.08-.59-.16-.93-.23-.33-.07-.67-.16-1-.25-.33-.09-.63-.21-.89-.36s-.48-.34-.64-.59c-.16-.24-.24-.55-.24-.93,0-.43.11-.79.32-1.1.21-.31.51-.55.9-.72.39-.17.85-.25,1.38-.25s.98.08,1.39.25.73.41.97.73.37.72.38,1.19l-.93.23c0-.26-.04-.49-.13-.69-.09-.2-.22-.36-.37-.49-.16-.13-.35-.22-.57-.29-.22-.07-.47-.1-.74-.1-.33,0-.61.05-.86.15-.25.1-.44.24-.57.41-.14.17-.21.38-.21.62,0,.28.1.5.3.67.2.16.46.29.77.38.32.09.66.18,1.02.26.31.06.62.14.92.23s.57.21.82.36c.25.15.44.34.58.58.14.24.22.54.22.91,0,.41-.11.77-.32,1.07-.21.3-.53.54-.96.71-.43.17-.96.25-1.59.25Z"/>
      <path class="cls-1" d="M133.31,9.59c-.3,0-.59-.03-.87-.1-.29-.07-.55-.17-.79-.31s-.43-.31-.58-.53l.5-.72c.17.25.4.43.7.56s.64.19,1,.19c.4,0,.74-.09,1.01-.27.27-.18.48-.45.61-.82.14-.37.21-.84.22-1.39l.12-1.13h-.21c-.08.53-.2.95-.37,1.26-.17.31-.38.54-.63.68s-.54.21-.86.21c-.4,0-.75-.1-1.02-.31-.28-.21-.49-.51-.63-.91s-.22-.89-.22-1.47v-2.44h.99v2.22c0,.7.1,1.22.3,1.54.2.33.5.49.89.49.22,0,.41-.05.58-.16.17-.11.32-.27.45-.48.13-.21.23-.48.3-.8s.12-.7.15-1.12v-1.7h.99v4.16c0,.44-.03.84-.1,1.19-.07.35-.17.66-.31.93-.14.26-.32.49-.53.67-.21.18-.46.32-.74.41-.28.09-.6.14-.95.14Z"/>
      <path class="cls-1" d="M139.6,7.84c-.48,0-.88-.13-1.22-.38-.34-.25-.6-.6-.77-1.04-.18-.44-.27-.95-.27-1.52s.09-1.08.26-1.52c.17-.44.43-.79.76-1.04s.74-.38,1.22-.38c.4,0,.72.08.97.25.25.17.46.38.61.65s.27.55.34.86h.19c-.04-.21-.07-.43-.1-.66-.03-.23-.05-.45-.08-.67-.02-.22-.03-.42-.03-.59V.12h1v7.58h-.89l.05-1.52h-.17c-.09.33-.21.61-.37.86-.16.25-.36.44-.61.59-.25.14-.55.21-.91.21ZM139.83,6.98c.26,0,.5-.06.7-.18.21-.12.39-.28.53-.48.14-.2.25-.41.33-.64.08-.23.11-.46.11-.67v-.13c0-.15-.02-.32-.07-.49-.04-.18-.11-.36-.19-.54s-.19-.35-.33-.5-.29-.28-.47-.37c-.18-.09-.38-.14-.61-.14-.33,0-.6.09-.82.28-.22.18-.39.44-.5.75s-.17.68-.17,1.07.06.77.17,1.08c.12.31.28.55.5.72.22.17.48.25.79.25Z"/>
      <path class="cls-1" d="M144.21,7.7V2.1h.89l-.1,1.78h.18c.1-.44.24-.8.41-1.08.17-.28.38-.49.64-.63.26-.14.56-.21.91-.21.62,0,1.09.22,1.41.67.32.44.48,1.11.48,1.99v3.09h-1v-3c0-.64-.1-1.1-.3-1.41-.2-.3-.49-.46-.87-.46-.35,0-.64.11-.88.33-.24.22-.43.5-.57.86-.14.35-.21.74-.23,1.15v2.54h-.99Z"/>
      <path class="cls-1" d="M153.07,7.84c-.44,0-.83-.07-1.17-.2s-.62-.33-.85-.58-.4-.55-.52-.9c-.12-.35-.17-.74-.17-1.17s.06-.85.17-1.21c.12-.37.29-.69.51-.96s.5-.49.82-.63.7-.22,1.12-.22c.37,0,.7.06,1.01.18.3.12.56.31.77.57s.37.58.48.96c.11.39.15.84.13,1.36l-4.4.03v-.67l3.8-.03-.34.46c.04-.46,0-.83-.13-1.13-.12-.3-.3-.52-.53-.67-.23-.15-.5-.23-.81-.23-.33,0-.62.09-.88.26s-.45.42-.58.75c-.13.33-.2.72-.2,1.18,0,.66.15,1.17.44,1.52.3.35.73.53,1.31.53.23,0,.43-.03.6-.08.17-.05.31-.13.43-.23.12-.1.22-.21.29-.34.08-.13.14-.27.18-.42l.87.21c-.07.26-.17.49-.3.7-.13.21-.3.38-.5.53-.2.15-.43.26-.69.34-.26.08-.56.12-.9.12Z"/>
      <path class="cls-1" d="M158.74,9.59c-.3,0-.59-.03-.87-.1-.29-.07-.55-.17-.79-.31s-.43-.31-.58-.53l.5-.72c.17.25.4.43.7.56s.64.19,1,.19c.4,0,.74-.09,1.01-.27.27-.18.48-.45.61-.82.14-.37.21-.84.22-1.39l.12-1.13h-.21c-.08.53-.2.95-.37,1.26-.17.31-.38.54-.63.68s-.54.21-.86.21c-.4,0-.75-.1-1.02-.31-.28-.21-.49-.51-.63-.91s-.22-.89-.22-1.47v-2.44h.99v2.22c0,.7.1,1.22.3,1.54.2.33.5.49.89.49.22,0,.41-.05.58-.16.17-.11.32-.27.45-.48.13-.21.23-.48.3-.8s.12-.7.15-1.12v-1.7h.99v4.16c0,.44-.03.84-.1,1.19-.07.35-.17.66-.31.93-.14.26-.32.49-.53.67-.21.18-.46.32-.74.41-.28.09-.6.14-.95.14Z"/>
      <path class="cls-1" d="M13.44,17.61v-.91h4.83v.91h-4.83Z"/>
      <path class="cls-1" d="M22.3,20.03v-7.15h2.49c.36,0,.69.03.99.09.3.06.57.15.8.26.24.12.43.26.6.42.16.17.29.36.37.58s.12.46.12.73c0,.25-.04.48-.11.69s-.19.39-.34.55c-.15.16-.34.29-.56.38-.22.1-.48.16-.78.2v.14c.26.03.49.1.68.21.19.11.36.27.5.47.14.21.26.48.36.82l.46,1.6h-1.07l-.37-1.46c-.07-.3-.18-.53-.33-.71s-.35-.31-.58-.4c-.23-.09-.5-.13-.81-.13h-1.41v2.71h-1ZM23.3,16.51h1.41c.64,0,1.13-.12,1.46-.35.33-.23.49-.58.49-1.06s-.16-.83-.47-1.06c-.31-.23-.8-.34-1.46-.34h-1.43v2.81Z"/>
      <path class="cls-1" d="M31.65,20.17c-.44,0-.83-.07-1.17-.2s-.62-.33-.85-.58-.4-.55-.52-.9c-.12-.35-.17-.74-.17-1.17s.06-.85.17-1.21c.12-.37.29-.69.51-.96s.5-.49.82-.63.7-.22,1.12-.22c.37,0,.7.06,1.01.18.3.12.56.31.77.57s.37.58.48.96c.11.39.15.84.13,1.36l-4.4.03v-.67l3.8-.03-.34.46c.04-.46,0-.83-.13-1.13-.12-.3-.3-.52-.53-.67-.23-.15-.5-.23-.81-.23-.33,0-.62.09-.88.26s-.45.42-.58.75c-.13.33-.2.72-.2,1.18,0,.66.15,1.17.44,1.52.3.35.73.53,1.31.53.23,0,.43-.03.6-.08.17-.05.31-.13.43-.23.12-.1.22-.21.29-.34.08-.13.14-.27.18-.42l.87.21c-.07.26-.17.49-.3.7-.13.21-.3.38-.5.53-.2.15-.43.26-.69.34-.26.08-.56.12-.9.12Z"/>
      <path class="cls-1" d="M35.36,20.03v-7.58h.99v7.58h-.99Z"/>
      <path class="cls-1" d="M38.55,13.46c-.23,0-.4-.05-.52-.14-.12-.09-.17-.23-.17-.42s.06-.33.17-.42c.12-.09.29-.14.51-.14s.4.05.52.14c.12.09.17.23.17.42s-.06.32-.17.42c-.12.1-.29.15-.51.15ZM38.05,20.03v-5.6h.99v5.6h-.99Z"/>
      <path class="cls-1" d="M42.04,20.17c-.3,0-.58-.06-.82-.18-.25-.12-.44-.3-.59-.53s-.22-.53-.22-.89c0-.27.05-.5.15-.7.1-.2.25-.38.46-.52.21-.14.47-.26.8-.36.33-.09.72-.17,1.19-.24.27-.04.49-.07.66-.11.17-.04.29-.1.37-.18.08-.08.12-.21.12-.37,0-.27-.09-.51-.28-.69-.19-.19-.48-.28-.89-.28-.21,0-.42.04-.64.11-.22.07-.41.19-.57.36-.16.17-.27.41-.31.71l-.91-.3c.06-.26.15-.49.29-.7.13-.21.3-.39.51-.54.21-.15.45-.26.73-.34s.59-.12.93-.12c.47,0,.86.08,1.18.24.31.16.55.4.71.73.16.33.23.75.23,1.26v1.25c0,.22,0,.47.02.73s.03.53.05.79c.02.26.04.51.06.74h-.91c-.02-.23-.04-.46-.06-.69-.02-.23-.03-.46-.04-.69h-.14c-.11.27-.25.52-.43.75-.18.23-.41.42-.68.56-.27.14-.59.22-.96.22ZM42.33,19.37c.16,0,.32-.02.48-.08.16-.05.33-.13.49-.25.16-.12.32-.26.47-.44.15-.18.28-.4.4-.65v-1.08l.28.05c-.12.12-.27.2-.46.26-.19.06-.4.1-.63.14-.23.04-.46.07-.69.11-.23.04-.44.1-.63.17-.19.08-.34.18-.46.32-.12.14-.17.33-.17.56,0,.29.09.51.26.66.17.15.4.22.68.22Z"/>
      <path class="cls-1" d="M49.69,20.17c-.36,0-.67-.07-.93-.22-.26-.14-.46-.34-.62-.59-.16-.25-.27-.53-.35-.85h-.17l.05,1.52h-.89v-7.58h1v1.76c0,.19,0,.38-.03.59-.02.21-.04.42-.08.63s-.07.43-.1.63h.19c.08-.3.2-.59.35-.86.15-.27.36-.48.61-.65.26-.17.58-.25.96-.25.48,0,.88.12,1.22.37.34.25.59.59.78,1.03s.27.95.27,1.54-.09,1.07-.27,1.51c-.18.44-.43.79-.77,1.04-.33.25-.75.38-1.23.38ZM49.45,19.31c.31,0,.57-.08.79-.25s.38-.4.5-.72.18-.67.18-1.08-.06-.76-.17-1.08c-.12-.31-.28-.56-.5-.75s-.48-.28-.8-.28c-.23,0-.44.05-.62.14-.18.09-.34.21-.47.36s-.24.32-.33.5c-.09.18-.15.36-.2.54-.04.18-.07.35-.07.5v.13c0,.22.04.44.11.67.08.23.19.45.33.64.14.2.32.36.53.48.21.12.44.18.7.18Z"/>
      <path class="cls-1" d="M53.38,20.03v-7.58h.99v7.58h-.99Z"/>
      <path class="cls-1" d="M58.47,20.17c-.44,0-.83-.07-1.17-.2s-.62-.33-.85-.58-.4-.55-.52-.9c-.12-.35-.17-.74-.17-1.17s.06-.85.17-1.21c.12-.37.29-.69.51-.96s.5-.49.82-.63.7-.22,1.12-.22c.37,0,.7.06,1.01.18.3.12.56.31.77.57s.37.58.48.96c.11.39.15.84.13,1.36l-4.4.03v-.67l3.8-.03-.34.46c.04-.46,0-.83-.13-1.13-.12-.3-.3-.52-.53-.67-.23-.15-.5-.23-.81-.23-.33,0-.62.09-.88.26s-.45.42-.58.75c-.13.33-.2.72-.2,1.18,0,.66.15,1.17.44,1.52.3.35.73.53,1.31.53.23,0,.43-.03.6-.08.17-.05.31-.13.43-.23.12-.1.22-.21.29-.34.08-.13.14-.27.18-.42l.87.21c-.07.26-.17.49-.3.7-.13.21-.3.38-.5.53-.2.15-.43.26-.69.34-.26.08-.56.12-.9.12Z"/>
      <path class="cls-1" d="M61.29,21.52c.13-.34.22-.64.28-.91.05-.27.09-.52.1-.75.01-.23.02-.47.02-.7h.94c0,.38-.02.71-.07,1s-.11.55-.19.77c-.08.22-.16.42-.25.59h-.82Z"/>
      <path class="cls-1" d="M65.96,20.03l2.51-7.15h1.45l2.51,7.15h-1.07l-2.1-6.32h-.13l-2.1,6.32h-1.07ZM67.15,18.43v-.76h4.22v.76h-4.22Z"/>
      <path class="cls-1" d="M73.78,20.03v-3.96h-1v-.79l1.4.09v-.18c-.18-.07-.33-.17-.45-.3-.12-.13-.21-.27-.27-.44s-.09-.34-.09-.53c0-.3.07-.57.2-.79.13-.22.33-.4.57-.53s.55-.19.89-.19c.27,0,.52.04.74.11.22.08.4.17.55.3l-.12.92c-.14-.13-.3-.23-.5-.31-.19-.08-.39-.11-.58-.11-.24,0-.43.08-.58.23-.15.15-.23.39-.23.7,0,.18.03.34.08.47.05.13.12.24.2.33s.17.16.25.22h1.39v.81h-1.47v3.96h-.98Z"/>
      <path class="cls-1" d="M77.99,20.03v-3.96h-1v-.79l1.4.09v-.18c-.18-.07-.33-.17-.45-.3-.12-.13-.21-.27-.27-.44s-.09-.34-.09-.53c0-.3.07-.57.2-.79.13-.22.33-.4.57-.53s.55-.19.89-.19c.27,0,.52.04.74.11.22.08.4.17.55.3l-.12.92c-.14-.13-.3-.23-.5-.31-.19-.08-.39-.11-.58-.11-.24,0-.43.08-.58.23-.15.15-.23.39-.23.7,0,.18.03.34.08.47.05.13.12.24.2.33s.17.16.25.22h1.39v.81h-1.47v3.96h-.98Z"/>
      <path class="cls-1" d="M83.95,20.17c-.54,0-1.01-.12-1.41-.35-.41-.23-.73-.57-.95-1.01-.23-.44-.34-.98-.34-1.6s.12-1.19.36-1.62c.24-.43.56-.75.97-.97.4-.22.86-.33,1.35-.33s.98.11,1.39.34.73.56.97,1c.24.44.36.98.36,1.62s-.12,1.18-.35,1.61c-.24.43-.56.76-.96.98s-.87.33-1.38.33ZM84,19.36c.35,0,.64-.08.89-.25.25-.17.44-.41.58-.72.13-.31.2-.68.2-1.11s-.07-.82-.21-1.14c-.14-.32-.34-.57-.6-.75-.26-.18-.57-.27-.94-.27-.34,0-.63.08-.88.24-.25.16-.44.39-.58.7-.14.31-.21.68-.21,1.12,0,.68.16,1.21.47,1.6.31.39.74.58,1.28.58Z"/>
      <path class="cls-1" d="M88.06,20.03v-5.6h.89l-.09,1.95h.18c.07-.43.17-.79.3-1.11.14-.31.32-.55.55-.73s.51-.26.85-.26c.07,0,.16,0,.25.02s.2.04.33.08l-.05,1.03c-.11-.04-.22-.07-.33-.09s-.21-.03-.31-.03c-.28,0-.53.09-.73.27-.21.18-.38.42-.51.73-.14.31-.25.65-.34,1.03v2.7h-.99Z"/>
      <path class="cls-1" d="M94.27,20.17c-.48,0-.88-.13-1.22-.38-.34-.25-.6-.6-.77-1.04-.18-.44-.27-.95-.27-1.52s.09-1.08.26-1.52c.17-.44.43-.79.76-1.04s.74-.38,1.22-.38c.4,0,.72.08.97.25.25.17.46.38.61.65s.27.55.34.86h.19c-.04-.21-.07-.43-.1-.66-.03-.23-.05-.45-.08-.67-.02-.22-.03-.42-.03-.59v-1.69h1v7.58h-.89l.05-1.52h-.17c-.09.33-.21.61-.37.86-.16.25-.36.44-.61.59-.25.14-.55.21-.91.21ZM94.5,19.31c.26,0,.5-.06.7-.18.21-.12.39-.28.53-.48.14-.2.25-.41.33-.64.08-.23.11-.46.11-.67v-.13c0-.15-.02-.32-.07-.49-.04-.18-.11-.36-.19-.54s-.19-.35-.33-.5-.29-.28-.47-.37c-.18-.09-.38-.14-.61-.14-.33,0-.6.09-.82.28-.22.18-.39.44-.5.75s-.17.68-.17,1.07.06.77.17,1.08c.12.31.28.55.5.72.22.17.48.25.79.25Z"/>
      <path class="cls-1" d="M100.16,20.17c-.3,0-.58-.06-.82-.18-.25-.12-.44-.3-.59-.53s-.22-.53-.22-.89c0-.27.05-.5.15-.7.1-.2.25-.38.46-.52.21-.14.47-.26.8-.36.33-.09.72-.17,1.19-.24.27-.04.49-.07.66-.11.17-.04.29-.1.37-.18.08-.08.12-.21.12-.37,0-.27-.09-.51-.28-.69-.19-.19-.48-.28-.89-.28-.21,0-.42.04-.64.11-.22.07-.41.19-.57.36-.16.17-.27.41-.31.71l-.91-.3c.06-.26.15-.49.29-.7.13-.21.3-.39.51-.54.21-.15.45-.26.73-.34s.59-.12.93-.12c.47,0,.86.08,1.18.24.31.16.55.4.71.73.16.33.23.75.23,1.26v1.25c0,.22,0,.47.02.73s.03.53.05.79c.02.26.04.51.06.74h-.91c-.02-.23-.04-.46-.06-.69-.02-.23-.03-.46-.04-.69h-.14c-.11.27-.25.52-.43.75-.18.23-.41.42-.68.56-.27.14-.59.22-.96.22ZM100.45,19.37c.16,0,.32-.02.48-.08.16-.05.33-.13.49-.25.16-.12.32-.26.47-.44.15-.18.28-.4.4-.65v-1.08l.28.05c-.12.12-.27.2-.46.26-.19.06-.4.1-.63.14-.23.04-.46.07-.69.11-.23.04-.44.1-.63.17-.19.08-.34.18-.46.32-.12.14-.17.33-.17.56,0,.29.09.51.26.66.17.15.4.22.68.22Z"/>
      <path class="cls-1" d="M107.81,20.17c-.36,0-.67-.07-.93-.22-.26-.14-.46-.34-.62-.59-.16-.25-.27-.53-.35-.85h-.17l.05,1.52h-.89v-7.58h1v1.76c0,.19,0,.38-.03.59-.02.21-.04.42-.08.63s-.07.43-.1.63h.19c.08-.3.2-.59.35-.86.15-.27.36-.48.61-.65.26-.17.58-.25.96-.25.48,0,.88.12,1.22.37.34.25.59.59.78,1.03s.27.95.27,1.54-.09,1.07-.27,1.51c-.18.44-.43.79-.77,1.04-.33.25-.75.38-1.23.38ZM107.57,19.31c.31,0,.57-.08.79-.25s.38-.4.5-.72.18-.67.18-1.08-.06-.76-.17-1.08c-.12-.31-.28-.56-.5-.75s-.48-.28-.8-.28c-.23,0-.44.05-.62.14-.18.09-.34.21-.47.36s-.24.32-.33.5c-.09.18-.15.36-.2.54-.04.18-.07.35-.07.5v.13c0,.22.04.44.11.67.08.23.19.45.33.64.14.2.32.36.53.48.21.12.44.18.7.18Z"/>
      <path class="cls-1" d="M111.5,20.03v-7.58h.99v7.58h-.99Z"/>
      <path class="cls-1" d="M116.59,20.17c-.44,0-.83-.07-1.17-.2s-.62-.33-.85-.58-.4-.55-.52-.9c-.12-.35-.17-.74-.17-1.17s.06-.85.17-1.21c.12-.37.29-.69.51-.96s.5-.49.82-.63.7-.22,1.12-.22c.37,0,.7.06,1.01.18.3.12.56.31.77.57s.37.58.48.96c.11.39.15.84.13,1.36l-4.4.03v-.67l3.8-.03-.34.46c.04-.46,0-.83-.13-1.13-.12-.3-.3-.52-.53-.67-.23-.15-.5-.23-.81-.23-.33,0-.62.09-.88.26s-.45.42-.58.75c-.13.33-.2.72-.2,1.18,0,.66.15,1.17.44,1.52.3.35.73.53,1.31.53.23,0,.43-.03.6-.08.17-.05.31-.13.43-.23.12-.1.22-.21.29-.34.08-.13.14-.27.18-.42l.87.21c-.07.26-.17.49-.3.7-.13.21-.3.38-.5.53-.2.15-.43.26-.69.34-.26.08-.56.12-.9.12Z"/>
      <path class="cls-1" d="M119.41,21.52c.13-.34.22-.64.28-.91.05-.27.09-.52.1-.75.01-.23.02-.47.02-.7h.94c0,.38-.02.71-.07,1s-.11.55-.19.77c-.08.22-.16.42-.25.59h-.82Z"/>
      <path class="cls-1" d="M124.68,20.03v-7.15h1v7.15h-1ZM125.07,13.76v-.88h4.57v.88h-4.57ZM125.07,16.97v-.86h4.11v.86h-4.11Z"/>
      <path class="cls-1" d="M131.76,20.17c-.3,0-.58-.06-.82-.18-.25-.12-.44-.3-.59-.53s-.22-.53-.22-.89c0-.27.05-.5.15-.7.1-.2.25-.38.46-.52.21-.14.47-.26.8-.36.33-.09.72-.17,1.19-.24.27-.04.49-.07.66-.11.17-.04.29-.1.37-.18.08-.08.12-.21.12-.37,0-.27-.09-.51-.28-.69-.19-.19-.48-.28-.89-.28-.21,0-.42.04-.64.11-.22.07-.41.19-.57.36-.16.17-.27.41-.31.71l-.91-.3c.06-.26.15-.49.29-.7.13-.21.3-.39.51-.54.21-.15.45-.26.73-.34s.59-.12.93-.12c.47,0,.86.08,1.18.24.31.16.55.4.71.73.16.33.23.75.23,1.26v1.25c0,.22,0,.47.02.73s.03.53.05.79c.02.26.04.51.06.74h-.91c-.02-.23-.04-.46-.06-.69-.02-.23-.03-.46-.04-.69h-.14c-.11.27-.25.52-.43.75-.18.23-.41.42-.68.56-.27.14-.59.22-.96.22ZM132.05,19.37c.16,0,.32-.02.48-.08.16-.05.33-.13.49-.25.16-.12.32-.26.47-.44.15-.18.28-.4.4-.65v-1.08l.28.05c-.12.12-.27.2-.46.26-.19.06-.4.1-.63.14-.23.04-.46.07-.69.11-.23.04-.44.1-.63.17-.19.08-.34.18-.46.32-.12.14-.17.33-.17.56,0,.29.09.51.26.66.17.15.4.22.68.22Z"/>
      <path class="cls-1" d="M138.57,20.17c-.39,0-.74-.04-1.04-.12-.3-.08-.56-.2-.76-.36s-.36-.34-.47-.56-.17-.46-.17-.71l.83-.22c-.01.24.04.45.18.62.13.18.33.31.57.41s.55.14.9.14c.43,0,.76-.07.99-.22.23-.14.35-.34.35-.6,0-.2-.06-.36-.2-.47-.13-.11-.31-.2-.54-.27-.23-.07-.5-.13-.81-.19-.26-.06-.52-.12-.78-.2-.26-.07-.5-.17-.71-.29s-.38-.28-.51-.47c-.13-.2-.2-.44-.2-.73,0-.34.09-.63.27-.88.18-.25.44-.44.77-.57.33-.14.73-.21,1.19-.21s.86.07,1.18.21c.33.14.58.34.77.59s.29.55.31.89l-.86.22c0-.24-.07-.44-.19-.61s-.29-.29-.5-.37-.47-.12-.76-.12c-.38,0-.69.07-.91.22-.22.14-.34.34-.34.6,0,.19.07.34.2.46.13.12.32.21.55.27s.49.13.77.19c.29.06.57.12.83.2s.5.17.71.28c.21.12.38.27.5.46s.18.44.18.73c0,.37-.1.68-.29.93-.2.25-.47.44-.82.56s-.76.19-1.23.19Z"/>
      <path class="cls-1" d="M143.98,20.14c-.52,0-.91-.14-1.16-.42s-.38-.71-.38-1.29v-3.17h-.84v-.82h.54c.18,0,.31-.03.4-.1.08-.07.13-.17.15-.33l.11-.85h.61v1.27h1.61v.83h-1.61v3.14c0,.29.07.5.2.62.13.13.33.19.58.19.14,0,.28-.02.43-.05.15-.04.29-.11.44-.22v.99c-.21.08-.4.13-.58.16-.18.03-.34.04-.48.04Z"/>
      <path class="cls-1" d="M146.81,20.16c-.23,0-.4-.05-.52-.15-.12-.1-.17-.26-.17-.48s.06-.39.17-.49c.12-.1.29-.15.52-.15s.42.05.54.15.18.26.18.49c0,.42-.24.63-.71.63ZM146.5,18.18l-.29-5.31h1.2l-.28,5.31h-.63Z"/>
    </g>
  </g>
</svg>