<svg xmlns="http://www.w3.org/2000/svg" viewBox="0 0 580 401"><defs><style>.cls-1{fill:#b5c4e5;}.cls-2{opacity:0.15;}.cls-3{fill:#fff;}.cls-4{opacity:0.5;}.cls-5{fill:#91a4e4;}.cls-6{fill:#6d7cb5;}.cls-7{fill:#c7d9ff;}.cls-8{fill:#7890ce;}.cls-9{fill:#4a568e;}</style></defs><g id="Layer_2" data-name="Layer 2"><g id="Layer_1-2" data-name="Layer 1"><rect class="cls-1" y="1" width="580" height="400"/><g class="cls-2"><path class="cls-3" d="M580,1V84.32c-.55.16-1.09.3-1.64.43-3.73.89-7.75,1.32-11.3-.11-4.51-1.82-7.39-6.3-9.15-10.82s-2.75-9.37-5-13.68C545.31,45.57,525.61,41.05,517,27c-4.08-6.68-5.2-16.88-3.22-26Z"/><path class="cls-3" d="M190.38,22.59c-7.66,18.05-23.9,32.81-43.55,39.59-8.72,3-18.28,4.63-25.65,9.88-8.71,6.22-12.75,16.33-17.64,25.44-6.82,12.75-16.26,24.63-29.08,32.5-20.09,12.35-45.73,13.47-69.84,12.68-1.44-.05-3-.09-4.62-.16V1H193.82C194.93,8.15,193.27,15.76,190.38,22.59Z"/></g><g class="cls-4"><rect class="cls-5" x="248.41" y="103.31" width="61.73" height="27.66"/><rect class="cls-5" x="248.41" y="169.65" width="61.73" height="27.66"/><rect class="cls-5" x="213.82" y="136.48" width="61.73" height="27.66"/><rect class="cls-5" x="283" y="136.48" width="61.73" height="27.66"/><rect class="cls-5" x="527.64" y="35.41" width="52.36" height="27.67"/><rect class="cls-5" x="527.64" y="101.74" width="52.36" height="27.67"/><rect class="cls-5" x="562.22" y="68.58" width="17.78" height="27.65"/><rect class="cls-5" x="493.05" y="68.58" width="61.73" height="27.66" transform="translate(1047.82 164.81) rotate(180)"/></g><path class="cls-3" d="M0,116.49v1.22c8.48-2.7,16.89-5.87,24.16-11a53,53,0,0,0,21.6-34.64A42.71,42.71,0,0,0,46.23,62,34.91,34.91,0,0,0,58.7,58.18c8.8-4.58,16.47-13,22.17-24.24C86.66,22.51,89.24,10.79,88.29,0H87.1c1,10.59-1.55,22.15-7.27,33.43-5.6,11-13.08,19.25-21.68,23.71a33.56,33.56,0,0,1-12,3.67,30.46,30.46,0,0,0-1.68-7.12C42.14,47.47,37.49,42.46,32,40.28c-3-1.18-5.8-1.25-7.9-.18-3,1.54-4.61,5.52-3.65,9.27s3.9,6.43,6.21,8a28.54,28.54,0,0,0,18.39,4.69,41.81,41.81,0,0,1-.46,9.81,51.72,51.72,0,0,1-21.12,33.86C16.44,110.74,8.27,113.84,0,116.49ZM45,60.92a27.42,27.42,0,0,1-17.6-4.48c-2.15-1.47-4.89-4-5.74-7.37-.72-2.77.23-6.5,3-7.92,2.44-1.23,5.4-.4,7,.22,5.16,2.05,9.56,6.81,11.76,12.73A29.16,29.16,0,0,1,45,60.92Z"/><rect id="rect145345" class="cls-6" y="161.45" width="150.71" height="9.01"/><g id="use43571-71"><g id="layer20"><path id="path12214" class="cls-3" d="M43.41,122.63,36.59,144a13.46,13.46,0,0,0,1.16,10.83l3,5.17H78.11l3-5.17A13.46,13.46,0,0,0,82.26,144l-6.83-21.38Z"/><path id="path12223" class="cls-7" d="M44.66,124.34l-6.45,20.19a12,12,0,0,0,1,9.47l2.5,4.3H77.12l2.5-4.3a12,12,0,0,0,1-9.47l-6.45-20.19Z"/><path id="rect114367" class="cls-5" d="M41.38,134.62l-3.17,9.91a11.93,11.93,0,0,0,1,9.47l2.5,4.3H77.12l2.5-4.3a12,12,0,0,0,1-9.47l-3.16-9.91Z"/><rect id="rect12226" class="cls-3" x="41.34" y="120.96" width="36.44" height="4.12" rx="0.56"/><path id="path12509" class="cls-8" d="M59.46,133.3c9.83,0,17.8.54,17.8,1.21s-8,1.21-17.8,1.21-17.81-.54-17.81-1.21S49.62,133.3,59.46,133.3Z"/><path id="circle115574" class="cls-8" d="M50.54,141.34a2.88,2.88,0,1,1-2.88,2.87A2.88,2.88,0,0,1,50.54,141.34Z"/><path id="circle115578" class="cls-8" d="M60.09,138.15A2.07,2.07,0,1,1,58,140.22,2.07,2.07,0,0,1,60.09,138.15Z"/><path id="path115432" class="cls-8" d="M61,145.68a2.53,2.53,0,1,1-2.52,2.53A2.53,2.53,0,0,1,61,145.68Z"/></g></g><g id="use41611-6-1-3"><g id="layer34"><rect class="cls-6" x="430.05" y="213.92" width="149.8" height="162.58"/><rect class="cls-9" x="430.05" y="213.92" width="149.8" height="12.2"/><rect class="cls-5" x="442.22" y="351.52" width="137.63" height="24.98"/><rect class="cls-5" x="442.22" y="287.31" width="137.63" height="45.17"/><rect class="cls-5" x="442.22" y="239.46" width="137.63" height="35.24"/><path id="rect29155" class="cls-6" d="M563.13,246.89H498.28c-2.74,0-5,1.66-5,3.7h0c0,2,2.22,3.7,5,3.7h64.85c2.74,0,5-1.66,5-3.7h0C568.09,248.55,565.87,246.89,563.13,246.89Z"/><path id="rect29157" class="cls-6" d="M563.13,296.85H498.28c-2.74,0-5,1.65-5,3.7h0c0,2,2.22,3.7,5,3.7h64.85c2.74,0,5-1.66,5-3.7h0C568.09,298.5,565.87,296.85,563.13,296.85Z"/><path id="rect29153" class="cls-6" d="M563.13,363.65H498.28c-2.74,0-5,1.65-5,3.69h0c0,2.05,2.22,3.7,5,3.7h64.85c2.74,0,5-1.65,5-3.7h0C568.09,365.3,565.87,363.65,563.13,363.65Z"/></g></g><g id="use41611-6-1-3-2" data-name="use41611-6-1-3"><g id="layer34-2" data-name="layer34"><rect class="cls-6" x="0.95" y="234.47" width="141.25" height="153.3"/><rect class="cls-9" x="0.95" y="234.47" width="141.24" height="11.5"/><rect class="cls-5" x="0.95" y="364.22" width="129.77" height="23.56"/><rect class="cls-5" x="0.95" y="303.67" width="129.77" height="42.59"/><rect class="cls-5" x="0.95" y="258.56" width="129.77" height="33.23"/><path id="rect29155-2" data-name="rect29155" class="cls-6" d="M16.71,265.56H77.86c2.58,0,4.68,1.56,4.68,3.49h0c0,1.92-2.1,3.48-4.68,3.48H16.71c-2.58,0-4.68-1.56-4.68-3.48h0C12,267.12,14.13,265.56,16.71,265.56Z"/><path id="rect29157-2" data-name="rect29157" class="cls-6" d="M16.71,312.66H77.86c2.58,0,4.68,1.56,4.68,3.49h0c0,1.93-2.1,3.49-4.68,3.49H16.71c-2.58,0-4.68-1.56-4.68-3.49h0C12,314.22,14.13,312.66,16.71,312.66Z"/><path id="rect29153-2" data-name="rect29153" class="cls-6" d="M16.71,375.65H77.86c2.58,0,4.68,1.56,4.68,3.48h0c0,1.93-2.1,3.49-4.68,3.49H16.71c-2.58,0-4.68-1.56-4.68-3.49h0C12,377.21,14.13,375.65,16.71,375.65Z"/></g></g></g></g></svg>