<svg xmlns="http://www.w3.org/2000/svg" viewBox="0 0 131.52 164"><defs><style>.cls-1{opacity:0.49;}.cls-2{fill:#fff;}.cls-3,.cls-5,.cls-6{fill:none;}.cls-3,.cls-5{stroke:lime;}.cls-3,.cls-4,.cls-5,.cls-6{stroke-miterlimit:10;}.cls-3{stroke-width:7.29px;}.cls-4{fill:#2f2c63;stroke:#19102c;stroke-width:2.29px;}.cls-5,.cls-6{stroke-width:8.01px;}.cls-6{stroke:red;}.cls-7{fill:#18104f;}</style></defs><g id="Layer_2" data-name="Layer 2"><g id="Layer_1-2" data-name="Layer 1"><g class="cls-1"><rect class="cls-2" width="131.52" height="164" rx="15.22"/></g><rect class="cls-3" x="56.43" y="-20.78" width="19.64" height="97.31" rx="9.82" transform="translate(38.37 94.13) rotate(-90)"/><path class="cls-4" d="M95.27,18.06h19.64a0,0,0,0,1,0,0v9.82a9.82,9.82,0,0,1-9.82,9.82h0a9.82,9.82,0,0,1-9.82-9.82V18.06a0,0,0,0,1,0,0Z" transform="translate(77.21 132.97) rotate(-90)"/><rect class="cls-4" x="76.5" y="18.06" width="19.64" height="19.64" transform="translate(58.44 114.2) rotate(-90)"/><rect class="cls-4" x="56.87" y="18.06" width="19.64" height="19.64" transform="translate(38.81 94.56) rotate(-90)"/><rect class="cls-4" x="37.23" y="18.06" width="19.64" height="19.64" transform="translate(19.17 74.93) rotate(-90)"/><path class="cls-4" d="M27.41,18.06h0a9.82,9.82,0,0,1,9.82,9.82V37.7a0,0,0,0,1,0,0H17.6a0,0,0,0,1,0,0V27.88a9.82,9.82,0,0,1,9.82-9.82Z" transform="translate(-0.46 55.29) rotate(-90)"/><rect class="cls-5" x="56.43" y="27.17" width="19.64" height="97.31" rx="9.82" transform="translate(-9.58 142.08) rotate(-90)"/><path class="cls-4" d="M95.27,66h19.64a0,0,0,0,1,0,0v9.82a9.82,9.82,0,0,1-9.82,9.82h0a9.82,9.82,0,0,1-9.82-9.82V66A0,0,0,0,1,95.27,66Z" transform="translate(29.26 180.92) rotate(-90)"/><rect class="cls-4" x="76.5" y="66.01" width="19.64" height="19.64" transform="translate(10.49 162.15) rotate(-90)"/><rect class="cls-4" x="56.87" y="66.01" width="19.64" height="19.64" transform="translate(-9.14 142.51) rotate(-90)"/><rect class="cls-4" x="37.23" y="66.01" width="19.64" height="19.64" transform="translate(-28.78 122.88) rotate(-90)"/><path class="cls-4" d="M27.41,66h0a9.82,9.82,0,0,1,9.82,9.82v9.82a0,0,0,0,1,0,0H17.6a0,0,0,0,1,0,0V75.83A9.82,9.82,0,0,1,27.41,66Z" transform="translate(-48.41 103.24) rotate(-90)"/><rect class="cls-6" x="56.43" y="76.53" width="19.64" height="97.31" rx="9.82" transform="translate(-58.94 191.44) rotate(-90)"/><path class="cls-4" d="M95.27,115.37h19.64a0,0,0,0,1,0,0v9.82a9.82,9.82,0,0,1-9.82,9.82h0a9.82,9.82,0,0,1-9.82-9.82v-9.82A0,0,0,0,1,95.27,115.37Z" transform="translate(-20.1 230.28) rotate(-90)"/><rect class="cls-4" x="76.5" y="115.37" width="19.64" height="19.64" transform="translate(-38.87 211.51) rotate(-90)"/><rect class="cls-4" x="56.87" y="115.37" width="19.64" height="19.64" transform="translate(-58.5 191.88) rotate(-90)"/><rect class="cls-4" x="37.23" y="115.37" width="19.64" height="19.64" transform="translate(-78.14 172.24) rotate(-90)"/><path class="cls-4" d="M27.41,115.37h0a9.82,9.82,0,0,1,9.82,9.82V135a0,0,0,0,1,0,0H17.6a0,0,0,0,1,0,0v-9.82A9.82,9.82,0,0,1,27.41,115.37Z" transform="translate(-97.78 152.6) rotate(-90)"/><path class="cls-7" d="M57.36,44.19v2.14H54.29v9.21H52.05V46.33H49V44.19Z"/><path class="cls-7" d="M58.61,44.19h2.23V55.54H58.61Z"/><path class="cls-7" d="M74.06,44.19V55.54H71.84V48.18l-3.2,5.27h-.26l-3.19-5.25v7.33H63V44.19h2.3l3.26,5.36,3.24-5.36Z"/><path class="cls-7" d="M78.41,53.4h4.78v2.14h-7V44.19h6.94v2.14h-4.7v2.42H82.7v2.11H78.41Z"/><path class="cls-7" d="M50.6,91.73v11.36H48.37V95.72L45.17,101h-.26l-3.18-5.25v7.34H39.49V91.73h2.3l3.26,5.36,3.23-5.36Z"/><path class="cls-7" d="M62.26,101.6A6,6,0,1,1,64,97.41,5.72,5.72,0,0,1,62.26,101.6Zm-6.8-1.52a3.67,3.67,0,0,0,6.28-2.67,3.62,3.62,0,0,0-1.06-2.68,3.77,3.77,0,0,0-5.22,0,3.66,3.66,0,0,0-1.05,2.68A3.62,3.62,0,0,0,55.46,100.08Z"/><path class="cls-7" d="M72.12,91.73h2.23v11.36h-1.7l-4.86-6.94v6.94H65.55V91.73h1.7l4.87,6.92Z"/><path class="cls-7" d="M78.7,101h4.79v2.14h-7V91.73H83.4v2.15H78.7v2.41H83V98.4H78.7Z"/><path class="cls-7" d="M94,91.73l-3.89,6.93v4.43H87.93V98.66l-3.88-6.93h2.53L89,96.46l2.47-4.73Z"/><path class="cls-7" d="M43.72,153.09a5,5,0,0,1-2.84-.76,4,4,0,0,1-1.62-2.05l1.91-1.12a2.56,2.56,0,0,0,2.61,1.74,2.29,2.29,0,0,0,1.38-.34,1.07,1.07,0,0,0,.44-.86,1,1,0,0,0-.54-.93,7.66,7.66,0,0,0-1.91-.73,11.74,11.74,0,0,1-1.29-.45,5.18,5.18,0,0,1-1-.61,2.51,2.51,0,0,1-.81-1,3.25,3.25,0,0,1-.27-1.37,3,3,0,0,1,1.09-2.45,4,4,0,0,1,2.64-.92,4.42,4.42,0,0,1,2.42.67,4.54,4.54,0,0,1,1.63,1.88l-1.88,1.08a2.27,2.27,0,0,0-2.17-1.46,1.73,1.73,0,0,0-1.1.32,1,1,0,0,0-.39.82,1,1,0,0,0,.44.87,6.39,6.39,0,0,0,1.71.72l.79.25c.18.06.42.15.73.28a4.34,4.34,0,0,1,.71.34,6.87,6.87,0,0,1,.58.44,2.26,2.26,0,0,1,.49.57,3.15,3.15,0,0,1,.42,1.61,3,3,0,0,1-1.15,2.49A4.55,4.55,0,0,1,43.72,153.09Z"/><path class="cls-7" d="M56.4,141.51v2.14H53.33v9.21H51.1v-9.21H48.05v-2.14Z"/><path class="cls-7" d="M63.88,152.86l-2.3-3.94H59.89v3.94H57.65V141.51h4.54A3.77,3.77,0,0,1,66,145.27a3.45,3.45,0,0,1-.6,1.95,3.75,3.75,0,0,1-1.59,1.36l2.51,4.28Zm-4-9.26V147h2.3a1.45,1.45,0,0,0,1.09-.5,1.7,1.7,0,0,0,.45-1.19,1.67,1.67,0,0,0-.45-1.18,1.44,1.44,0,0,0-1.09-.49Z"/><path class="cls-7" d="M69.84,150.72h4.79v2.14h-7V141.51h6.94v2.14H69.84v2.41h4.3v2.11h-4.3Z"/><path class="cls-7" d="M80.08,153.09a5,5,0,0,1-2.84-.76,4,4,0,0,1-1.62-2.05l1.91-1.12a2.54,2.54,0,0,0,2.61,1.74,2.29,2.29,0,0,0,1.38-.34,1.07,1.07,0,0,0,.44-.86,1,1,0,0,0-.54-.93,7.66,7.66,0,0,0-1.91-.73,11.74,11.74,0,0,1-1.29-.45,5.53,5.53,0,0,1-1.06-.61,2.49,2.49,0,0,1-.8-1,3.25,3.25,0,0,1-.27-1.37,3,3,0,0,1,1.09-2.45,4,4,0,0,1,2.64-.92,4.44,4.44,0,0,1,2.42.67,4.54,4.54,0,0,1,1.63,1.88L82,144.91a2.27,2.27,0,0,0-2.17-1.46,1.73,1.73,0,0,0-1.1.32,1,1,0,0,0-.4.82,1,1,0,0,0,.45.87,6.39,6.39,0,0,0,1.71.72l.79.25c.18.06.42.15.73.28a4.8,4.8,0,0,1,.71.34,6.87,6.87,0,0,1,.58.44,2.49,2.49,0,0,1,.49.57,2.76,2.76,0,0,1,.29.71,2.84,2.84,0,0,1,.13.9,3,3,0,0,1-1.15,2.49A4.55,4.55,0,0,1,80.08,153.09Z"/><path class="cls-7" d="M89.19,153.09a5,5,0,0,1-2.84-.76,4,4,0,0,1-1.62-2.05l1.91-1.12a2.56,2.56,0,0,0,2.61,1.74,2.29,2.29,0,0,0,1.38-.34,1.07,1.07,0,0,0,.44-.86,1,1,0,0,0-.54-.93,7.66,7.66,0,0,0-1.91-.73,11.74,11.74,0,0,1-1.29-.45,5.18,5.18,0,0,1-1-.61,2.4,2.4,0,0,1-.8-1,3.1,3.1,0,0,1-.28-1.37,3.06,3.06,0,0,1,1.09-2.45,4,4,0,0,1,2.64-.92,4.42,4.42,0,0,1,2.42.67A4.54,4.54,0,0,1,93,143.83l-1.88,1.08a2.27,2.27,0,0,0-2.17-1.46,1.69,1.69,0,0,0-1.09.32,1,1,0,0,0-.4.82,1,1,0,0,0,.44.87,6.39,6.39,0,0,0,1.71.72l.79.25c.18.06.42.15.73.28a4.34,4.34,0,0,1,.71.34,6.87,6.87,0,0,1,.58.44,2.55,2.55,0,0,1,.5.57,3.29,3.29,0,0,1,.41,1.61,3,3,0,0,1-1.15,2.49A4.55,4.55,0,0,1,89.19,153.09Z"/></g></g></svg>