<svg xmlns="http://www.w3.org/2000/svg" xmlns:xlink="http://www.w3.org/1999/xlink" viewBox="0 0 204.33 147.93"><defs><style>.cls-1{fill:none;}.cls-2,.cls-6{fill:#fff;}.cls-2{stroke:#18104f;stroke-miterlimit:10;stroke-width:2.12px;}.cls-3{fill:#ffcf06;}.cls-4{fill:#e8a600;}.cls-5{fill:#ff5d4d;}.cls-7{clip-path:url(#clip-path);}.cls-8{fill:#472444;}.cls-9{opacity:0.4;}.cls-10{fill:#ffc762;}.cls-11{fill:#fbeee5;}.cls-12{fill:#b8cafa;}</style><clipPath id="clip-path"><circle class="cls-1" cx="34.18" cy="113.93" r="31.73"/></clipPath></defs><g id="Layer_2" data-name="Layer 2"><g id="Layer_1-2" data-name="Layer 1"><circle class="cls-2" cx="34" cy="113.93" r="32.94"/><circle class="cls-2" cx="76.42" cy="41.68" r="32.94"/><path class="cls-3" d="M95.76,41.39a18.62,18.62,0,0,1-16.22,18l-1-2.9L78.08,55l-.81-2.43,2.1-4,2.27-4.28-8.59-7.43,5.2-5.68,1-1.12-1.39-3.28-.65-1.52-1.25-3q.78,0,1.59,0A18.62,18.62,0,0,1,95.76,41.39Z"/><path class="cls-3" d="M76.28,53l3.26,6.39a18.14,18.14,0,0,1-2.77.57A18.61,18.61,0,0,1,70.5,23.32l4.42,7.18-5.15,7.65,9.6,6.07Z"/><path class="cls-4" d="M91.68,35.21a15.62,15.62,0,0,0-14.17-9.87h-.27l.65,1.52a14,14,0,0,1,9.47,4.35,14,14,0,0,1,3.91,10.08,14.14,14.14,0,0,1-8.93,12.81,13.86,13.86,0,0,1-4.26.95l.49,1.47a15.74,15.74,0,0,0,4.32-1,15.65,15.65,0,0,0,8.79-20.27Z"/><path class="cls-4" d="M78.15,56.68a17.59,17.59,0,0,1-1.76.33,15.67,15.67,0,0,1-15.48-7.65A15.61,15.61,0,0,1,66.58,28a15.26,15.26,0,0,1,5.61-2l.86,1.4-.41,0a14.1,14.1,0,0,0-9.38,5.37,13.86,13.86,0,0,0-2.44,4.83,14.09,14.09,0,0,0,4.95,15,14.26,14.26,0,0,0,4.84,2.44,14,14,0,0,0,5.59.4c.42-.05.84-.12,1.25-.21Z"/><path class="cls-4" d="M81.86,41.18a7.84,7.84,0,0,0-3.79-1.93l.1-4.26a2.26,2.26,0,0,1,1.36,1.78l3-.29a4.48,4.48,0,0,0-1.35-2.64,5.16,5.16,0,0,0-2.94-1.25l0-1.34-5.2,5.68,8.59,7.43-2.27,4.28a5.25,5.25,0,0,0,2.08-1.25,4.67,4.67,0,0,0,1.36-3.3A4.14,4.14,0,0,0,81.86,41.18Zm-5.48-2.49a2.54,2.54,0,0,1-1.12-.83,1.72,1.72,0,0,1-.35-1.08,1.83,1.83,0,0,1,.44-1.14,2.23,2.23,0,0,1,1.12-.72Z"/><path class="cls-4" d="M69.77,38.15l4.3-6.39v0L72.38,32l.17,1.35a5.06,5.06,0,0,0-3,1.79,4.08,4.08,0,0,0-.82,3.13,4.46,4.46,0,0,0,1.44,2.85,6.63,6.63,0,0,0,3.58,1.4L74.29,47A3.13,3.13,0,0,1,73,46.24a3.44,3.44,0,0,1-.89-1.4l-3,.69a5.22,5.22,0,0,0,5.47,4.07l.21,1.68,1.69-.21-.22-1.74a7.48,7.48,0,0,0,1.47-.55l1.6-4.56ZM77.32,46a2.41,2.41,0,0,1-1.32.93l-.54-4.22a3,3,0,0,1,1.61.62,1.85,1.85,0,0,1,.62,1.19A2.06,2.06,0,0,1,77.32,46Z"/><circle class="cls-2" cx="170.33" cy="34" r="32.94"/><path class="cls-5" d="M144.93,25.87S155,15,155,16.15s8.74,15.26,8.74,15.26L173.24,22c1.14,2.64,11.62,20.4,11.62,20.4l3.53-4c1-2.2,1.12,12.11,1.12,12.11s-12.42-1.47-11.17-2.61a33.05,33.05,0,0,1,3.86-2.33L170.74,31.76l-8.42,10.41C160.47,41.59,144.93,25.87,144.93,25.87Z"/><path class="cls-6" d="M172.8,24.8a.16.16,0,0,1,.3-.06l7.08,11.14a.16.16,0,1,1-.27.18l-7.09-11.14A.17.17,0,0,1,172.8,24.8Z"/><path class="cls-6" d="M188.05,41.9a.16.16,0,0,1,.15-.13.17.17,0,0,1,.17.16l.26,5.52a.15.15,0,0,1-.15.17.17.17,0,0,1-.17-.16l-.26-5.52Z"/><path class="cls-6" d="M180.36,36.86a.21.21,0,0,1,.08-.11.16.16,0,0,1,.22.06l.92,1.53a.16.16,0,0,1-.06.22.17.17,0,0,1-.23-.05L180.38,37A.17.17,0,0,1,180.36,36.86Z"/><g class="cls-7"><path class="cls-8" d="M35.14,105.46h-.06a.18.18,0,0,1-.1-.23,2.61,2.61,0,0,0-2.17-3.48,5.47,5.47,0,0,0-1.9.27,11.25,11.25,0,0,1-1.15.26,5.22,5.22,0,0,1-5.42-3.17.17.17,0,0,1,.1-.23.18.18,0,0,1,.23.1,4.85,4.85,0,0,0,5,2.94,10.26,10.26,0,0,0,1.1-.24,5.4,5.4,0,0,1,2-.28,2.94,2.94,0,0,1,2.47,4A.17.17,0,0,1,35.14,105.46Z"/><path class="cls-8" d="M40.68,107.62a.19.19,0,0,1-.17-.1.18.18,0,0,1,.1-.24,7.33,7.33,0,0,0,1.73-.91,2.4,2.4,0,0,0,.95-1.55,3.79,3.79,0,0,0-.27-1.45c-.06-.16-.11-.33-.16-.5a3.82,3.82,0,0,1,.38-3.22,2.44,2.44,0,0,1,3-.87.17.17,0,0,1,.07.24.17.17,0,0,1-.24.07,2.08,2.08,0,0,0-2.57.76,3.55,3.55,0,0,0-.33,2.92c0,.16.1.33.16.49a3.93,3.93,0,0,1,.28,1.59,2.67,2.67,0,0,1-1.08,1.8,7.68,7.68,0,0,1-1.81,1Z"/><polygon class="cls-8" points="14.94 104.45 47.91 109.84 85.47 100.82 48.45 124.11 14.94 104.45"/><path class="cls-5" d="M14.93,104.45v12.94l2.37,4.46-2.37,4.94v7.53a.52.52,0,0,0,.41.51l31.9,7.45,37.85-11.2a.51.51,0,0,0,.38-.5v-9l-3-5,3-5.92v-9.78L48.05,112.26Z"/><g class="cls-9"><path class="cls-8" d="M14.93,104.45v12.94l2.37,4.46-2.37,4.94v7.53a.52.52,0,0,0,.41.51l31.9,7.45,37.85-11.2a.51.51,0,0,0,.38-.5v-9l-3-5,3-5.92v-9.78L48.05,112.26Z"/></g><path class="cls-10" d="M28.19,120.76v6.3a1.23,1.23,0,0,1-1.39,1.22l-11.86-1.49v-9.4l12.23,2.15A1.24,1.24,0,0,1,28.19,120.76Z"/><path class="cls-8" d="M25.79,124c0,.94-.46,1.71-1,1.71s-1-.77-1-1.71.46-1.7,1-1.7S25.79,123,25.79,124Z"/><path class="cls-10" d="M85.47,110.6v11l-11.72,2.67a1.06,1.06,0,0,1-1.29-1v-7.66a1.05,1.05,0,0,1,.73-1Z"/><path class="cls-8" d="M76.41,119c0,.94-.47,1.7-1,1.7s-1-.76-1-1.7.46-1.71,1-1.71S76.41,118,76.41,119Z"/><path class="cls-8" d="M47.24,142.45h0a.17.17,0,0,1-.17-.18L48,111.4a.18.18,0,0,1,.18-.17.17.17,0,0,1,.17.18l-.89,30.87A.18.18,0,0,1,47.24,142.45Z"/><path class="cls-11" d="M83.91,130.64,73.85,133.3,83,128.5l.58-4.66.72,6.23A.53.53,0,0,1,83.91,130.64Z"/><path class="cls-11" d="M15.83,106.34l.05,10,1.52-7.76,9.34,0L16.3,106A.36.36,0,0,0,15.83,106.34Z"/><path class="cls-11" d="M15.54,125.36v0a.49.49,0,0,1,.55-.4l3.66.45a.49.49,0,0,1,.43.56h0a.49.49,0,0,1-.55.42L16,125.94A.5.5,0,0,1,15.54,125.36Z"/><path class="cls-11" d="M21.4,125.49a.55.55,0,0,1,.47.6A.54.54,0,0,1,20.8,126,.54.54,0,0,1,21.4,125.49Z"/><path class="cls-12" d="M20.7,96.51s-1.84-3.59,0-4.05c1.48-.37,1.35,3.38,1.35,3.38s1.46-2.7,2.54-1.06c.86,1.31-1.87,2.49-1.87,2.49Z"/><path class="cls-8" d="M22.24,96.36c1,.61,1.54,1.69,1.12,2.42s-1.62.83-2.66.22-1.54-1.69-1.11-2.42S21.2,95.75,22.24,96.36Z"/><path class="cls-12" d="M48.23,94.67s-.09-4-1.94-3.56c-1.48.38.42,3.62.42,3.62S44.14,93.05,44,95c-.14,1.55,2.83,1.3,2.83,1.3Z"/><path class="cls-8" d="M46.8,95.28c-.63,1-.55,2.22.17,2.66s1.81,0,2.44-1.07.55-2.22-.17-2.66S47.43,94.25,46.8,95.28Z"/></g></g></g></svg>