<svg xmlns="http://www.w3.org/2000/svg" viewBox="0 0 211.98 117.54"><g id="Layer_2" data-name="Layer 2"><g id="Layer_1-2" data-name="Layer 1"><path d="M4.3,9.16a14.78,14.78,0,0,1,5.23-4.5,14.37,14.37,0,0,1,6.73-1.61,10.72,10.72,0,0,1,7.17,2.33,9.07,9.07,0,0,1,3.1,6.38H19.87a4.08,4.08,0,0,0-1.68-2.32,5.39,5.39,0,0,0-3-.8,6.88,6.88,0,0,0-4.85,1.93,9,9,0,0,0-2.62,5.16,9.87,9.87,0,0,0-.18,1.73,5.44,5.44,0,0,0,1.39,3.93,5,5,0,0,0,3.79,1.46A6.78,6.78,0,0,0,16,22a7.14,7.14,0,0,0,2.53-2.34h6.66a14.33,14.33,0,0,1-13.36,8.68,11.84,11.84,0,0,1-5.56-1.24,8.68,8.68,0,0,1-3.64-3.51,10.57,10.57,0,0,1-1.28-5.27,13.3,13.3,0,0,1,.25-2.62A15.39,15.39,0,0,1,4.3,9.16Z"/><path d="M50.33,8.43,46.86,28.19H40.8l.46-2.69a8.76,8.76,0,0,1-2.85,2.11,8.3,8.3,0,0,1-3.59.8,6.32,6.32,0,0,1-4.68-1.69A6.3,6.3,0,0,1,28.44,22,10.64,10.64,0,0,1,28.62,20L30.67,8.43h6L34.82,19.16a6.12,6.12,0,0,0-.11,1.1,3,3,0,0,0,.83,2.28,3.19,3.19,0,0,0,2.32.8,4.31,4.31,0,0,0,2.89-1,5,5,0,0,0,1.58-2.89l1.94-11Z"/><path d="M85,9.9a6.14,6.14,0,0,1,1.79,4.69,11.41,11.41,0,0,1-.21,2.06L84.47,28.19h-6l1.92-10.73a5.73,5.73,0,0,0,.07-1,2.93,2.93,0,0,0-.84-2.26,3.24,3.24,0,0,0-2.32-.78,4.39,4.39,0,0,0-3,1,4.83,4.83,0,0,0-1.52,3L70.87,28.19h-6l1.91-10.73a4.83,4.83,0,0,0,.07-1A2.92,2.92,0,0,0,66,14.24a3.26,3.26,0,0,0-2.32-.78,4.39,4.39,0,0,0-3,1,4.84,4.84,0,0,0-1.53,3v-.18L57.27,28.19H51.22L54.69,8.43h6.05l-.42,2.51a8.09,8.09,0,0,1,2.74-2,8.48,8.48,0,0,1,3.49-.72,7.34,7.34,0,0,1,3.84.95,5.3,5.3,0,0,1,2.25,2.77,10.21,10.21,0,0,1,3.26-2.7,8.69,8.69,0,0,1,4.08-1A7,7,0,0,1,85,9.9Z"/><path d="M100.61,9a8.38,8.38,0,0,1,3.8-.85,6.73,6.73,0,0,1,5.16,2.09,7.92,7.92,0,0,1,2,5.66,14.66,14.66,0,0,1-.21,2.38,13.58,13.58,0,0,1-2.09,5.36,11.29,11.29,0,0,1-3.75,3.58,9.2,9.2,0,0,1-4.64,1.26,6.68,6.68,0,0,1-3.47-.85,5.25,5.25,0,0,1-2.09-2.2L93.12,37.61H87.06L92.19,8.43h6.06l-.49,2.8A8.33,8.33,0,0,1,100.61,9Zm4.69,8.18a3.7,3.7,0,0,0-1-2.76,3.48,3.48,0,0,0-2.57-1,4.88,4.88,0,0,0-3.29,1.31,6.11,6.11,0,0,0-1.91,3.58,6.37,6.37,0,0,0-.11,1.17,3.69,3.69,0,0,0,1,2.73,3.45,3.45,0,0,0,2.55,1,4.86,4.86,0,0,0,3.31-1.33,6.05,6.05,0,0,0,1.93-3.59A6.49,6.49,0,0,0,105.3,17.18Z"/><path d="M115.43,12.93a11.06,11.06,0,0,1,3.75-3.54,9.28,9.28,0,0,1,4.64-1.24,6.69,6.69,0,0,1,3.51.85,5,5,0,0,1,2,2.23l.5-2.8h6.06l-3.51,19.76h-6.06l.53-2.79A8.49,8.49,0,0,1,124,27.63a8.71,8.71,0,0,1-3.83.85,7.08,7.08,0,0,1-3.7-1,6.5,6.5,0,0,1-2.5-2.71,9,9,0,0,1-.88-4.13,14.8,14.8,0,0,1,.21-2.4A13.48,13.48,0,0,1,115.43,12.93Zm12.82,4.21a3.65,3.65,0,0,0-1-2.72,3.48,3.48,0,0,0-2.57-1,4.87,4.87,0,0,0-3.29,1.3,5.86,5.86,0,0,0-1.88,3.56,7.09,7.09,0,0,0-.1,1.16,3.68,3.68,0,0,0,1,2.75,3.43,3.43,0,0,0,2.53,1,4.88,4.88,0,0,0,3.29-1.31,6.08,6.08,0,0,0,1.91-3.58A7.18,7.18,0,0,0,128.25,17.14Zm2.92-11.95a7,7,0,0,1-4.65,1.61,5.34,5.34,0,0,1-3.72-1.24,4.39,4.39,0,0,1-1.38-3.47,10.46,10.46,0,0,1,.14-1.42L121.7,0h3a3.9,3.9,0,0,0-.07.64,1.47,1.47,0,0,0,.62,1.29,3.53,3.53,0,0,0,2,.44,4,4,0,0,0,2.45-.6,2.74,2.74,0,0,0,1-1.77h3l-.11.67A7.36,7.36,0,0,1,131.17,5.19Z"/><path d="M148.88,9.23a7.43,7.43,0,0,1,3.74-1l-1.14,6.41h-1.66a5.89,5.89,0,0,0-3.58,1A5.17,5.17,0,0,0,144.51,19l-1.63,9.17h-6.06l3.47-19.76h6.06L145.71,12A10.65,10.65,0,0,1,148.88,9.23Z"/><path d="M154.64,12.93a11.06,11.06,0,0,1,3.75-3.54A9.28,9.28,0,0,1,163,8.15a6.71,6.71,0,0,1,3.51.85,5,5,0,0,1,2.05,2.23l.5-2.8h6.06l-3.51,19.76h-6.06l.53-2.79a8.44,8.44,0,0,1-2.87,2.23,8.63,8.63,0,0,1-3.82.85,7.06,7.06,0,0,1-3.7-1,6.43,6.43,0,0,1-2.5-2.71,9,9,0,0,1-.88-4.13,14.8,14.8,0,0,1,.21-2.4A13.48,13.48,0,0,1,154.64,12.93Zm12.82,4.21a3.65,3.65,0,0,0-1-2.72,3.48,3.48,0,0,0-2.57-1,4.87,4.87,0,0,0-3.29,1.3,5.86,5.86,0,0,0-1.88,3.56,7.17,7.17,0,0,0-.11,1.16,3.72,3.72,0,0,0,1,2.75,3.47,3.47,0,0,0,2.54,1,4.88,4.88,0,0,0,3.29-1.31,6.08,6.08,0,0,0,1.91-3.58A7.18,7.18,0,0,0,167.46,17.14Zm2.92-11.95a7.06,7.06,0,0,1-4.66,1.61A5.38,5.38,0,0,1,162,5.56a4.43,4.43,0,0,1-1.38-3.47,11,11,0,0,1,.15-1.42l.14-.67h3a3.9,3.9,0,0,0-.07.64,1.47,1.47,0,0,0,.62,1.29,3.53,3.53,0,0,0,2,.44,4,4,0,0,0,2.45-.6,2.74,2.74,0,0,0,1-1.77h3l-.11.67A7.36,7.36,0,0,1,170.38,5.19Z"/><path d="M189.7,27.64a7.65,7.65,0,0,1-3-2.35A6,6,0,0,1,185.45,22h5a2.73,2.73,0,0,0,1.12,1.87,3.87,3.87,0,0,0,2.43.75,3.75,3.75,0,0,0,2.21-.57,1.72,1.72,0,0,0,.8-1.45,1.54,1.54,0,0,0-1-1.44,18.43,18.43,0,0,0-3.1-1,26.71,26.71,0,0,1-3.59-1.1,6.27,6.27,0,0,1-2.41-1.74,4.67,4.67,0,0,1-1-3.15,5,5,0,0,1,.94-3A6.31,6.31,0,0,1,189.54,9a10.11,10.11,0,0,1,4.13-.78A8.39,8.39,0,0,1,199.26,10a6.44,6.44,0,0,1,2.31,4.72h-4.75a2.57,2.57,0,0,0-1-1.86,3.64,3.64,0,0,0-2.32-.69,3.69,3.69,0,0,0-2.08.5,1.58,1.58,0,0,0-.72,1.38,1.64,1.64,0,0,0,1,1.51,15.36,15.36,0,0,0,3.08,1,26.53,26.53,0,0,1,3.51,1.1,6.2,6.2,0,0,1,2.39,1.75,4.82,4.82,0,0,1,1,3.14,5.2,5.2,0,0,1-.93,3,6.23,6.23,0,0,1-2.7,2.11,10.15,10.15,0,0,1-4.09.76A10.35,10.35,0,0,1,189.7,27.64Zm6.55,5.9a5.32,5.32,0,0,1-1.11,3.61,4.18,4.18,0,0,1-3.31,1.28v-2c1.18,0,1.77-.73,1.77-2.2v-.63h-2V29.72h4.11A14.71,14.71,0,0,1,196.25,33.54Z"/><path d="M206.15,5.4a2.72,2.72,0,0,1-.86-2.07,2.72,2.72,0,0,1,.86-2.07,3.25,3.25,0,0,1,4.36,0,2.73,2.73,0,0,1,.87,2.07,2.73,2.73,0,0,1-.87,2.07,3.28,3.28,0,0,1-4.36,0Zm4.63,3.17V28.19h-5V8.57Z"/><path d="M62.92,46.33,65.79,65.1l9.46-18.77h6.44L68.48,71.19H60.9L56.48,46.33Z"/><path d="M89.34,51.43,85.87,71.19H79.82l3.47-19.76Zm-4.87-2.82a2.5,2.5,0,0,1-.83-1.93A3.54,3.54,0,0,1,84.88,44a4.29,4.29,0,0,1,3-1.14,3.15,3.15,0,0,1,2.23.76,2.57,2.57,0,0,1,.82,2,3.54,3.54,0,0,1-1.24,2.69,4.25,4.25,0,0,1-3,1.14A3.22,3.22,0,0,1,84.47,48.61Z"/><path d="M110.49,52.88a6.22,6.22,0,0,1,1.7,4.64,11.8,11.8,0,0,1-.21,2.13l-2.06,11.54h-6l1.91-10.73a6.26,6.26,0,0,0,.11-1.06,3.09,3.09,0,0,0-.83-2.3,3.16,3.16,0,0,0-2.32-.82,4.27,4.27,0,0,0-3,1.1,5.31,5.31,0,0,0-1.56,3.08v-.18L96.32,71.19H90.26l3.48-19.76h6.05l-.46,2.66a8.67,8.67,0,0,1,6.48-2.87A6.39,6.39,0,0,1,110.49,52.88Z"/><path d="M116.79,55.93a11,11,0,0,1,3.76-3.54,9.25,9.25,0,0,1,4.64-1.24,6.93,6.93,0,0,1,3.41.81,5,5,0,0,1,2.15,2.2L132.38,45h6.06l-4.65,26.21h-6l.49-2.83a8.32,8.32,0,0,1-6.62,3.12,7.08,7.08,0,0,1-3.7-1,6.6,6.6,0,0,1-2.52-2.73,9,9,0,0,1-.9-4.14,14.64,14.64,0,0,1,.21-2.37A13.63,13.63,0,0,1,116.79,55.93Zm12.82,4.21a3.61,3.61,0,0,0-1-2.72,3.46,3.46,0,0,0-2.56-1,4.89,4.89,0,0,0-3.3,1.3,5.85,5.85,0,0,0-1.87,3.56,7.17,7.17,0,0,0-.11,1.16,3.72,3.72,0,0,0,1,2.75,3.44,3.44,0,0,0,2.53,1,4.91,4.91,0,0,0,3.3-1.31,6.08,6.08,0,0,0,1.91-3.58A7.11,7.11,0,0,0,129.61,60.14Z"/><path d="M156.59,53.22a7.29,7.29,0,0,1,2.25,5.65,11,11,0,0,1-.18,2.09,15,15,0,0,1-.43,1.73h-13.7a3.75,3.75,0,0,0,0,.68,3.11,3.11,0,0,0,.85,2.37,3.15,3.15,0,0,0,2.27.81,3.85,3.85,0,0,0,3.47-1.91h6.44a10.94,10.94,0,0,1-4.14,4.92,11.32,11.32,0,0,1-6.45,1.92,8.61,8.61,0,0,1-6.11-2.13,7.49,7.49,0,0,1-2.28-5.77A13.75,13.75,0,0,1,141,55.93a11.18,11.18,0,0,1,4.14-3.54,11.93,11.93,0,0,1,5.42-1.24A8.64,8.64,0,0,1,156.59,53.22Zm-3.81,5.72a2.72,2.72,0,0,0-.89-2.18,3.44,3.44,0,0,0-2.33-.76,4.29,4.29,0,0,0-2.75.94,5.25,5.25,0,0,0-1.72,2.67h7.62C152.75,59.28,152.78,59.06,152.78,58.94Z"/><path d="M4.85,107.25a9,9,0,0,1-3.56-3.55A10.72,10.72,0,0,1,0,98.38a10.39,10.39,0,0,1,1.33-5.31A9.14,9.14,0,0,1,5,89.51a10.51,10.51,0,0,1,5.13-1.26,10.52,10.52,0,0,1,5.14,1.26,9.14,9.14,0,0,1,3.63,3.56,11.17,11.17,0,0,1,0,10.63,9.39,9.39,0,0,1-3.69,3.55A10.69,10.69,0,0,1,10,108.51,10.31,10.31,0,0,1,4.85,107.25Zm7.64-3.71a4.8,4.8,0,0,0,1.89-2,6.65,6.65,0,0,0,.71-3.19,5.9,5.9,0,0,0-1.47-4.3A4.86,4.86,0,0,0,10,92.57a4.75,4.75,0,0,0-3.56,1.51A6,6,0,0,0,5,98.38a6.12,6.12,0,0,0,1.4,4.31,4.61,4.61,0,0,0,3.52,1.5A5.27,5.27,0,0,0,12.49,103.54Z"/><path d="M40.38,90.5a8.49,8.49,0,0,1,2.16,6.18v11.51h-5V97.35a5.09,5.09,0,0,0-1.17-3.59,4.14,4.14,0,0,0-3.19-1.26A4.23,4.23,0,0,0,30,93.76a5,5,0,0,0-1.19,3.59v10.84H23.84V88.57h4.95V91a7,7,0,0,1,2.54-2,7.85,7.85,0,0,1,3.38-.72A7.59,7.59,0,0,1,40.38,90.5Z"/><path d="M52.21,82v26.21h-5V82Z"/><path d="M57.43,85.4a2.9,2.9,0,0,1,0-4.14,3.25,3.25,0,0,1,4.36,0,2.9,2.9,0,0,1,0,4.14,3.28,3.28,0,0,1-4.36,0Zm4.62,3.17v19.62h-5V88.57Z"/><path d="M83.48,90.5a8.49,8.49,0,0,1,2.16,6.18v11.51h-5V97.35a5.13,5.13,0,0,0-1.16-3.59,4.15,4.15,0,0,0-3.19-1.26,4.23,4.23,0,0,0-3.24,1.26,5,5,0,0,0-1.19,3.59v10.84h-5V88.57h5V91a7,7,0,0,1,2.53-2,7.91,7.91,0,0,1,3.38-.72A7.59,7.59,0,0,1,83.48,90.5Z"/><path d="M108.45,99.87H94.11a4.85,4.85,0,0,0,1.49,3.33,4.57,4.57,0,0,0,3.22,1.2,4,4,0,0,0,3.93-2.37h5.35a9,9,0,0,1-3.26,4.66,9.57,9.57,0,0,1-5.92,1.82,10.23,10.23,0,0,1-5.08-1.26,8.73,8.73,0,0,1-3.5-3.55,10.92,10.92,0,0,1-1.26-5.32A11.09,11.09,0,0,1,90.32,93a8.64,8.64,0,0,1,3.47-3.54,10.47,10.47,0,0,1,5.13-1.24,10.27,10.27,0,0,1,5,1.21,8.47,8.47,0,0,1,3.43,3.41A10.3,10.3,0,0,1,108.59,98,11.11,11.11,0,0,1,108.45,99.87Zm-5-3.33a4,4,0,0,0-1.38-3.06,4.9,4.9,0,0,0-3.3-1.15,4.52,4.52,0,0,0-3.1,1.11,5,5,0,0,0-1.54,3.1Z"/><path d="M128.09,89.17a7,7,0,0,1,3.53-.88v5.2h-1.31a5,5,0,0,0-3.53,1.1c-.79.73-1.19,2-1.19,3.83v9.77h-5V88.57h5v3.05A7,7,0,0,1,128.09,89.17Z"/><path d="M134.86,93a8.5,8.5,0,0,1,7.77-4.78,8,8,0,0,1,3.84.89,7.74,7.74,0,0,1,2.64,2.23v-2.8h5v19.62h-5v-2.87a7.32,7.32,0,0,1-2.64,2.29,8.07,8.07,0,0,1-3.87.9,8.34,8.34,0,0,1-4.52-1.27,8.89,8.89,0,0,1-3.22-3.6,11.41,11.41,0,0,1-1.19-5.33A11.28,11.28,0,0,1,134.86,93Zm13.54,2.25a5,5,0,0,0-1.91-2,5.09,5.09,0,0,0-2.58-.69,5,5,0,0,0-2.56.67,5.13,5.13,0,0,0-1.89,2,6.18,6.18,0,0,0-.73,3.06,6.4,6.4,0,0,0,.73,3.1,5.16,5.16,0,0,0,1.91,2,4.9,4.9,0,0,0,2.54.71,5.1,5.1,0,0,0,4.49-2.68,7.12,7.12,0,0,0,0-6.2Z"/><path d="M166.56,89.16a7.9,7.9,0,0,1,3.84-.91A8.51,8.51,0,0,1,178.17,93a11.3,11.3,0,0,1,1.19,5.29,11.53,11.53,0,0,1-1.19,5.33,8.89,8.89,0,0,1-3.22,3.6,8.41,8.41,0,0,1-4.55,1.27,7.94,7.94,0,0,1-3.81-.88,8.16,8.16,0,0,1-2.67-2.23v12.14h-5v-29h5V91.4A7.43,7.43,0,0,1,166.56,89.16Zm7,6.09a5,5,0,0,0-4.48-2.64,4.94,4.94,0,0,0-2.53.69,5.14,5.14,0,0,0-1.92,2,6.95,6.95,0,0,0,0,6.16,5.07,5.07,0,0,0,1.92,2,4.85,4.85,0,0,0,2.53.7,5,5,0,0,0,2.57-.71,5.32,5.32,0,0,0,1.91-2,6.37,6.37,0,0,0,.72-3.12A6.18,6.18,0,0,0,173.57,95.25Z"/><path d="M183.31,85.4a2.9,2.9,0,0,1,0-4.14,3.24,3.24,0,0,1,4.35,0,2.9,2.9,0,0,1,0,4.14,3.26,3.26,0,0,1-4.35,0Zm4.62,3.17v19.62h-5V88.57Z"/><path d="M192.73,93a8.56,8.56,0,0,1,7.81-4.78,8.43,8.43,0,0,1,3.65.83A7.37,7.37,0,0,1,207,91.3V82h5v26.21h-5v-2.9a6.62,6.62,0,0,1-2.59,2.34,8.08,8.08,0,0,1-3.86.88,8.42,8.42,0,0,1-4.53-1.27,8.86,8.86,0,0,1-3.24-3.6,11.53,11.53,0,0,1-1.19-5.33A11.41,11.41,0,0,1,192.73,93Zm13.55,2.25a5,5,0,0,0-1.92-2,5.09,5.09,0,0,0-2.58-.69,5,5,0,0,0-2.55.67,5.15,5.15,0,0,0-1.9,2,6.18,6.18,0,0,0-.72,3.06,6.39,6.39,0,0,0,.72,3.1,5.26,5.26,0,0,0,1.92,2,4.86,4.86,0,0,0,2.53.71,5,5,0,0,0,2.58-.7,5,5,0,0,0,1.92-2,7.12,7.12,0,0,0,0-6.2Z"/></g></g></svg>