<svg xmlns="http://www.w3.org/2000/svg" viewBox="0 0 130.55 99.79"><defs><style>.cls-1{fill:#38ad49;}.cls-2{fill:#131c42;}.cls-3{fill:#fff;}</style></defs><g id="Layer_2" data-name="Layer 2"><g id="Layer_1-2" data-name="Layer 1"><rect class="cls-1" x="9.42" y="78.98" width="51.32" height="20.82" rx="4.36"/><path class="cls-2" d="M6.1,7.61V9.33h-6V7.61Z"/><path class="cls-2" d="M13.05,14.2H10.87L15.75.64h2.37L23,14.2H20.83L17,3.1h-.1Zm.36-5.31h7.05v1.72h-7Z"/><path class="cls-2" d="M31.26,4,27.57,14.2H25.45L21.75,4h2.13l2.58,7.82h.1L29.13,4Z"/><path class="cls-2" d="M36.08,14.4a4.64,4.64,0,0,1-2.5-.65,4.49,4.49,0,0,1-1.66-1.84,6.09,6.09,0,0,1-.59-2.75,6.18,6.18,0,0,1,.59-2.77,4.49,4.49,0,0,1,1.66-1.84,5,5,0,0,1,5,0,4.49,4.49,0,0,1,1.66,1.84,6.18,6.18,0,0,1,.59,2.77,6.09,6.09,0,0,1-.59,2.75,4.49,4.49,0,0,1-1.66,1.84A4.62,4.62,0,0,1,36.08,14.4Zm0-1.66a2.37,2.37,0,0,0,1.54-.49,2.85,2.85,0,0,0,.9-1.3,5.19,5.19,0,0,0,.3-1.8,5.17,5.17,0,0,0-.3-1.79,2.94,2.94,0,0,0-.9-1.31,2.62,2.62,0,0,0-3.08,0,2.88,2.88,0,0,0-.91,1.31,5.17,5.17,0,0,0-.3,1.79,5.19,5.19,0,0,0,.3,1.8,2.8,2.8,0,0,0,.91,1.3A2.35,2.35,0,0,0,36.08,12.74Z"/><path class="cls-2" d="M43.05,2.46a1.24,1.24,0,0,1-.88-.35,1.09,1.09,0,0,1-.37-.83,1.09,1.09,0,0,1,.37-.84,1.24,1.24,0,0,1,.88-.35,1.26,1.26,0,0,1,.89.35,1.12,1.12,0,0,1,.36.84,1.11,1.11,0,0,1-.36.83A1.26,1.26,0,0,1,43.05,2.46Zm-1,11.74V4h2V14.2Z"/><path class="cls-2" d="M49.53,14.4a3.9,3.9,0,0,1-2.19-.63A4.3,4.3,0,0,1,45.83,12a6.62,6.62,0,0,1-.55-2.83,6.69,6.69,0,0,1,.55-2.82,4.21,4.21,0,0,1,1.52-1.79,4,4,0,0,1,2.2-.63,3.15,3.15,0,0,1,1.52.32,2.69,2.69,0,0,1,.9.73,5.36,5.36,0,0,1,.5.74h.12v-5h2V14.2H52.64V12.62h-.17a6.27,6.27,0,0,1-.51.74,2.89,2.89,0,0,1-.92.73A3.29,3.29,0,0,1,49.53,14.4ZM50,12.71a2.34,2.34,0,0,0,1.45-.45,2.93,2.93,0,0,0,.9-1.27,5.33,5.33,0,0,0,.31-1.88,5.23,5.23,0,0,0-.31-1.85A2.74,2.74,0,0,0,51.43,6a2.64,2.64,0,0,0-3,0,2.78,2.78,0,0,0-.9,1.27,5.07,5.07,0,0,0-.3,1.8A5.11,5.11,0,0,0,47.59,11a2.9,2.9,0,0,0,.9,1.29A2.34,2.34,0,0,0,50,12.71Z"/><path class="cls-2" d="M62.38.64V14.2h-2V.64Z"/><path class="cls-2" d="M67,14.42a4.12,4.12,0,0,1-1.75-.36A3,3,0,0,1,64,13a3,3,0,0,1-.45-1.68,2.74,2.74,0,0,1,.33-1.42,2.38,2.38,0,0,1,.9-.88,4.41,4.41,0,0,1,1.26-.49,10.94,10.94,0,0,1,1.41-.25L69,8.11a2.08,2.08,0,0,0,.82-.23.54.54,0,0,0,.26-.52v0A1.83,1.83,0,0,0,69.58,6a2,2,0,0,0-1.45-.47,2.46,2.46,0,0,0-1.57.44,2.39,2.39,0,0,0-.8,1L63.9,6.49a3.62,3.62,0,0,1,1-1.5,3.94,3.94,0,0,1,1.48-.83,5.62,5.62,0,0,1,1.75-.27A6.11,6.11,0,0,1,69.4,4a3.64,3.64,0,0,1,1.28.52,2.93,2.93,0,0,1,1,1.07,3.83,3.83,0,0,1,.38,1.81V14.2H70.12V12.81H70a2.76,2.76,0,0,1-.58.75,2.94,2.94,0,0,1-1,.62A3.88,3.88,0,0,1,67,14.42Zm.43-1.58a2.83,2.83,0,0,0,1.41-.33,2.28,2.28,0,0,0,.89-.85,2.16,2.16,0,0,0,.31-1.13V9.22a1,1,0,0,1-.41.19c-.2.06-.43.11-.68.16l-.75.11-.61.08a4.49,4.49,0,0,0-1.05.25,1.79,1.79,0,0,0-.76.49,1.28,1.28,0,0,0-.28.85,1.25,1.25,0,0,0,.55,1.11A2.37,2.37,0,0,0,67.46,12.84Z"/><path class="cls-2" d="M78.46,4V5.62H72.91V4ZM74.4,1.59h2v9.62a1.81,1.81,0,0,0,.17.87.89.89,0,0,0,.45.39,1.64,1.64,0,0,0,.6.1,2.37,2.37,0,0,0,.41,0l.28-.06.36,1.64a4.75,4.75,0,0,1-.49.14,4.28,4.28,0,0,1-.79.07,3.37,3.37,0,0,1-1.46-.28,2.4,2.4,0,0,1-1.09-.9,2.61,2.61,0,0,1-.42-1.53Z"/><path class="cls-2" d="M84,14.4a5,5,0,0,1-2.59-.64,4.39,4.39,0,0,1-1.67-1.82,6.16,6.16,0,0,1-.58-2.76,6.22,6.22,0,0,1,.58-2.76,4.41,4.41,0,0,1,4.12-2.53,5,5,0,0,1,1.67.29,4.12,4.12,0,0,1,1.45.89,4.18,4.18,0,0,1,1,1.58A6.57,6.57,0,0,1,88.32,9v.7H80.24V8.23h6.14a2.94,2.94,0,0,0-.31-1.39,2.45,2.45,0,0,0-.9-1,2.52,2.52,0,0,0-1.34-.35,2.59,2.59,0,0,0-1.45.41A2.7,2.7,0,0,0,81.43,7a2.94,2.94,0,0,0-.34,1.41V9.57a3.86,3.86,0,0,0,.36,1.74,2.6,2.6,0,0,0,1,1.09,3.34,3.34,0,0,0,2.55.21,2.19,2.19,0,0,0,.8-.49,2.07,2.07,0,0,0,.51-.8l1.88.34a3.33,3.33,0,0,1-.81,1.44,3.69,3.69,0,0,1-1.45,1A5.34,5.34,0,0,1,84,14.4Z"/><path class="cls-2" d="M98.37,4V5.62H92.62V4ZM94.2,14.2V2.85a2.81,2.81,0,0,1,.42-1.59,2.54,2.54,0,0,1,1.1-.95A3.57,3.57,0,0,1,97.22,0a4.29,4.29,0,0,1,1,.1,5.16,5.16,0,0,1,.63.17l-.46,1.6-.36-.09a2.09,2.09,0,0,0-.53-.06,1.29,1.29,0,0,0-1,.36,1.51,1.51,0,0,0-.31,1V14.2Z"/><path class="cls-2" d="M100.44,2.46a1.24,1.24,0,0,1-.88-.35,1.09,1.09,0,0,1-.37-.83,1.09,1.09,0,0,1,.37-.84,1.24,1.24,0,0,1,.88-.35,1.26,1.26,0,0,1,.89.35,1.12,1.12,0,0,1,.36.84,1.11,1.11,0,0,1-.36.83A1.26,1.26,0,0,1,100.44,2.46Zm-1,11.74V4h2V14.2Z"/><path class="cls-2" d="M105.09.64V14.2h-2V.64Z"/><path class="cls-2" d="M107.79,2.46a1.26,1.26,0,0,1-.89-.35,1.13,1.13,0,0,1,0-1.67,1.26,1.26,0,0,1,.89-.35,1.24,1.24,0,0,1,.88.35,1.09,1.09,0,0,1,.37.84,1.09,1.09,0,0,1-.37.83A1.24,1.24,0,0,1,107.79,2.46Zm-1,11.74V4h2V14.2Z"/><path class="cls-2" d="M112.44,8.16v6h-2V4h1.9V5.68h.13a2.89,2.89,0,0,1,1.1-1.3,3.46,3.46,0,0,1,1.9-.49,3.69,3.69,0,0,1,1.82.44,3,3,0,0,1,1.21,1.29A4.61,4.61,0,0,1,119,7.73V14.2h-2V8a2.41,2.41,0,0,0-.58-1.73,2,2,0,0,0-1.58-.63,2.42,2.42,0,0,0-1.22.3,2.07,2.07,0,0,0-.84.87A2.81,2.81,0,0,0,112.44,8.16Z"/><path class="cls-2" d="M124.89,18.23a6.14,6.14,0,0,1-2.08-.32,4,4,0,0,1-1.42-.84,3.44,3.44,0,0,1-.82-1.15l1.7-.7a4.55,4.55,0,0,0,.48.62,2.57,2.57,0,0,0,.82.56,3.43,3.43,0,0,0,1.34.23,3,3,0,0,0,1.87-.55,2,2,0,0,0,.73-1.73v-2h-.13a4.68,4.68,0,0,1-.51.72,3,3,0,0,1-.92.69,3.41,3.41,0,0,1-1.51.29,4.16,4.16,0,0,1-2.17-.57,4,4,0,0,1-1.52-1.67,6,6,0,0,1-.56-2.74,6.38,6.38,0,0,1,.55-2.78,4.23,4.23,0,0,1,1.52-1.78,4,4,0,0,1,2.19-.62,3.22,3.22,0,0,1,1.53.32,2.84,2.84,0,0,1,.91.73,5.54,5.54,0,0,1,.51.74h.14V4h1.94V14.42a3.63,3.63,0,0,1-.6,2.16,3.62,3.62,0,0,1-1.65,1.24A6.38,6.38,0,0,1,124.89,18.23Zm0-5.83a2.5,2.5,0,0,0,1.45-.4,2.38,2.38,0,0,0,.9-1.15,4.64,4.64,0,0,0,.31-1.8,5,5,0,0,0-.3-1.81,2.77,2.77,0,0,0-.9-1.22,2.33,2.33,0,0,0-1.46-.44,2.36,2.36,0,0,0-1.49.46,2.77,2.77,0,0,0-.89,1.25,4.89,4.89,0,0,0-.3,1.76,4.72,4.72,0,0,0,.3,1.75,2.39,2.39,0,0,0,2.38,1.6Z"/><path class="cls-2" d="M12,34.34v-14H14V22h.17a5.19,5.19,0,0,1,.49-.74,2.91,2.91,0,0,1,.9-.73A3.19,3.19,0,0,1,17,20.22a4,4,0,0,1,2.2.63,4.12,4.12,0,0,1,1.51,1.79,6.53,6.53,0,0,1,.56,2.82,6.62,6.62,0,0,1-.55,2.83,4.37,4.37,0,0,1-1.51,1.81,3.9,3.9,0,0,1-2.19.63,3.34,3.34,0,0,1-1.52-.31,2.84,2.84,0,0,1-.91-.73,4.52,4.52,0,0,1-.51-.74H14v5.39ZM14,25.44a5.11,5.11,0,0,0,.31,1.88,2.93,2.93,0,0,0,.9,1.27,2.29,2.29,0,0,0,1.44.45,2.37,2.37,0,0,0,1.49-.47,3.06,3.06,0,0,0,.9-1.29,5.58,5.58,0,0,0,0-3.64,2.85,2.85,0,0,0-.9-1.27,2.37,2.37,0,0,0-1.5-.46,2.32,2.32,0,0,0-1.45.44,2.69,2.69,0,0,0-.9,1.24A5.24,5.24,0,0,0,14,25.44Z"/><path class="cls-2" d="M26.94,30.73a4.94,4.94,0,0,1-2.58-.64,4.27,4.27,0,0,1-1.67-1.82,6,6,0,0,1-.59-2.76,6.09,6.09,0,0,1,.59-2.76,4.5,4.5,0,0,1,1.64-1.86,4.57,4.57,0,0,1,2.47-.67,5,5,0,0,1,1.67.29,4.12,4.12,0,0,1,1.45.89,4.18,4.18,0,0,1,1,1.58,6.56,6.56,0,0,1,.38,2.36V26H23.22V24.56h6.15a2.94,2.94,0,0,0-.32-1.39,2.42,2.42,0,0,0-.89-1,2.57,2.57,0,0,0-1.34-.35,2.6,2.6,0,0,0-1.46.41,2.7,2.7,0,0,0-.95,1.06,2.94,2.94,0,0,0-.34,1.41V25.9a3.86,3.86,0,0,0,.36,1.74,2.6,2.6,0,0,0,1,1.09A3.11,3.11,0,0,0,27,29.1a3.05,3.05,0,0,0,1-.16,2.19,2.19,0,0,0,.8-.49,2.22,2.22,0,0,0,.52-.8l1.87.34a3.41,3.41,0,0,1-.8,1.44,3.72,3.72,0,0,1-1.46,1A5.34,5.34,0,0,1,26.94,30.73Z"/><path class="cls-2" d="M34.52,24.49v6h-2V20.36h1.9V22h.13a2.89,2.89,0,0,1,1.1-1.3,3.46,3.46,0,0,1,1.9-.49,3.69,3.69,0,0,1,1.82.44A3,3,0,0,1,40.6,22,4.61,4.61,0,0,1,41,24.06v6.47h-2V24.3a2.41,2.41,0,0,0-.58-1.73,2,2,0,0,0-1.58-.63,2.45,2.45,0,0,0-1.22.3,2.07,2.07,0,0,0-.84.87A2.81,2.81,0,0,0,34.52,24.49Z"/><path class="cls-2" d="M45.67,30.75a4.15,4.15,0,0,1-1.75-.36,2.87,2.87,0,0,1-1.23-1.05,2.91,2.91,0,0,1-.46-1.68,2.74,2.74,0,0,1,.33-1.42,2.45,2.45,0,0,1,.9-.88,4.41,4.41,0,0,1,1.26-.49,10.94,10.94,0,0,1,1.41-.25l1.49-.18a2.19,2.19,0,0,0,.83-.23.56.56,0,0,0,.25-.52v0a1.83,1.83,0,0,0-.48-1.35,2,2,0,0,0-1.45-.47,2.46,2.46,0,0,0-1.57.44,2.36,2.36,0,0,0-.79,1l-1.87-.42a3.72,3.72,0,0,1,1-1.5A3.94,3.94,0,0,1,45,20.49a5.62,5.62,0,0,1,1.75-.27,6.11,6.11,0,0,1,1.3.15,3.57,3.57,0,0,1,1.28.52,2.93,2.93,0,0,1,1,1.07,3.83,3.83,0,0,1,.38,1.81v6.76H48.76V29.14h-.08a2.62,2.62,0,0,1-.58.75,2.94,2.94,0,0,1-1,.62A3.88,3.88,0,0,1,45.67,30.75Zm.43-1.58a2.83,2.83,0,0,0,1.41-.33A2.28,2.28,0,0,0,48.4,28a2.16,2.16,0,0,0,.31-1.13V25.55a.92.92,0,0,1-.41.19c-.2.06-.43.11-.68.16l-.75.11-.61.08a4.75,4.75,0,0,0-1,.25,1.69,1.69,0,0,0-.75.49,1.23,1.23,0,0,0-.29.85,1.25,1.25,0,0,0,.55,1.11A2.37,2.37,0,0,0,46.1,29.17Z"/><path class="cls-2" d="M54.34,17V30.53h-2V17Z"/><path class="cls-2" d="M60.78,20.36V22H55.22V20.36Zm-4.07-2.44h2v9.62a1.69,1.69,0,0,0,.18.87.87.87,0,0,0,.44.39,1.72,1.72,0,0,0,.6.1,2.58,2.58,0,0,0,.42,0l.28-.06L61,30.45a4.1,4.1,0,0,1-.49.14,4.2,4.2,0,0,1-.79.07,3.4,3.4,0,0,1-1.46-.28,2.45,2.45,0,0,1-1.09-.9A2.61,2.61,0,0,1,56.71,28Z"/><path class="cls-2" d="M63,18.79a1.26,1.26,0,0,1-.89-.35,1.13,1.13,0,0,1,0-1.67,1.29,1.29,0,0,1,1.77,0,1.13,1.13,0,0,1,0,1.67A1.26,1.26,0,0,1,63,18.79ZM62,30.53V20.36h2V30.53Z"/><path class="cls-2" d="M70.05,30.73a4.94,4.94,0,0,1-2.58-.64,4.27,4.27,0,0,1-1.67-1.82,6.75,6.75,0,0,1,0-5.52,4.38,4.38,0,0,1,4.11-2.53,5,5,0,0,1,1.67.29A4.12,4.12,0,0,1,73,21.4a4.32,4.32,0,0,1,1,1.58,6.8,6.8,0,0,1,.37,2.36V26H66.33V24.56h6.15a2.94,2.94,0,0,0-.32-1.39,2.42,2.42,0,0,0-.89-1,2.55,2.55,0,0,0-1.34-.35,2.63,2.63,0,0,0-1.46.41,2.7,2.7,0,0,0-1,1.06,3.06,3.06,0,0,0-.34,1.41V25.9a3.73,3.73,0,0,0,.37,1.74,2.54,2.54,0,0,0,1,1.09,3.32,3.32,0,0,0,2.54.21,2.19,2.19,0,0,0,.8-.49,2.1,2.1,0,0,0,.52-.8l1.87.34a3.41,3.41,0,0,1-.8,1.44,3.76,3.76,0,0,1-1.45,1A5.39,5.39,0,0,1,70.05,30.73Z"/><path class="cls-2" d="M83.28,22.84l-1.8.32a2.11,2.11,0,0,0-.35-.66,1.91,1.91,0,0,0-.66-.51,2.34,2.34,0,0,0-1-.2,2.51,2.51,0,0,0-1.41.38,1.13,1.13,0,0,0-.56,1,1,1,0,0,0,.38.82,3,3,0,0,0,1.22.51l1.61.37a4.38,4.38,0,0,1,2.1,1,2.35,2.35,0,0,1,.68,1.76A2.69,2.69,0,0,1,83,29.22a3.5,3.5,0,0,1-1.47,1.11,5.37,5.37,0,0,1-2.16.4A4.86,4.86,0,0,1,76.53,30a3.07,3.07,0,0,1-1.33-2.08l1.92-.29a1.83,1.83,0,0,0,.73,1.13,2.56,2.56,0,0,0,1.45.38,2.69,2.69,0,0,0,1.56-.41,1.18,1.18,0,0,0,.58-1,1.08,1.08,0,0,0-.35-.8A2.46,2.46,0,0,0,80,26.44l-1.72-.37a4.07,4.07,0,0,1-2.1-1,2.49,2.49,0,0,1-.68-1.79,2.61,2.61,0,0,1,.5-1.58,3.42,3.42,0,0,1,1.39-1.06,5.23,5.23,0,0,1,2-.38,4.17,4.17,0,0,1,2.59.72A3.34,3.34,0,0,1,83.28,22.84Z"/><path class="cls-2" d="M86,30.66A1.33,1.33,0,0,1,86,28a1.29,1.29,0,0,1,.94.39,1.27,1.27,0,0,1,.39.93,1.21,1.21,0,0,1-.19.67,1.38,1.38,0,0,1-.48.48A1.23,1.23,0,0,1,86,30.66Z"/><path class="cls-2" d="M5.63,45.85v1.6H0v-1.6Z"/><path class="cls-2" d="M21.31,39.32V52H19.55l-6.46-9.31H13V52H11.06V39.32h1.77l6.46,9.32h.12V39.32Z"/><path class="cls-2" d="M27.05,52.21a4.48,4.48,0,0,1-2.34-.61,4.24,4.24,0,0,1-1.55-1.72,6.35,6.35,0,0,1,0-5.17A4.2,4.2,0,0,1,24.71,43a4.79,4.79,0,0,1,4.68,0,4.2,4.2,0,0,1,1.55,1.73,6.35,6.35,0,0,1,0,5.17,4.24,4.24,0,0,1-1.55,1.72A4.48,4.48,0,0,1,27.05,52.21Zm0-1.56a2.2,2.2,0,0,0,1.44-.46A2.63,2.63,0,0,0,29.34,49a5.15,5.15,0,0,0,0-3.35,2.71,2.71,0,0,0-.84-1.23,2.46,2.46,0,0,0-2.89,0,2.73,2.73,0,0,0-.85,1.23,5.15,5.15,0,0,0,0,3.35,2.64,2.64,0,0,0,.85,1.22A2.21,2.21,0,0,0,27.06,50.65Z"/><path class="cls-2" d="M39.13,52.23a3.78,3.78,0,0,1-1.63-.34,2.71,2.71,0,0,1-1.16-1,2.84,2.84,0,0,1-.42-1.58A2.54,2.54,0,0,1,36.23,48a2.18,2.18,0,0,1,.83-.82,4.2,4.2,0,0,1,1.18-.46,12,12,0,0,1,1.33-.24L41,46.32a2.1,2.1,0,0,0,.77-.22.52.52,0,0,0,.24-.48v0a1.69,1.69,0,0,0-.45-1.26,1.88,1.88,0,0,0-1.36-.45,2.4,2.4,0,0,0-1.47.41,2.25,2.25,0,0,0-.74.92l-1.74-.4a3.31,3.31,0,0,1,.91-1.4,3.56,3.56,0,0,1,1.38-.78,5.21,5.21,0,0,1,1.64-.25,6.66,6.66,0,0,1,1.21.13,3.71,3.71,0,0,1,1.2.49,2.65,2.65,0,0,1,.92,1,3.47,3.47,0,0,1,.36,1.69V52H42v-1.3H42a2.59,2.59,0,0,1-.54.7,2.9,2.9,0,0,1-.92.58A3.68,3.68,0,0,1,39.13,52.23Zm.41-1.49a2.67,2.67,0,0,0,1.31-.3,2.16,2.16,0,0,0,.84-.8A2.09,2.09,0,0,0,42,48.58V47.36a1.11,1.11,0,0,1-.38.18c-.19.05-.4.1-.64.14l-.7.11-.57.07a5.53,5.53,0,0,0-1,.23,1.68,1.68,0,0,0-.7.46,1.32,1.32,0,0,0,.24,1.84A2.27,2.27,0,0,0,39.54,50.74Z"/><path class="cls-2" d="M49.4,52.21A4.32,4.32,0,0,1,47,51.58a4,4,0,0,1-1.53-1.74,6.34,6.34,0,0,1,0-5.1A4.15,4.15,0,0,1,47.05,43a4.27,4.27,0,0,1,2.34-.63,4.44,4.44,0,0,1,1.93.4,3.51,3.51,0,0,1,1.37,1.12,3.43,3.43,0,0,1,.63,1.68H51.51a2.11,2.11,0,0,0-.68-1.15,2,2,0,0,0-1.41-.49,2.33,2.33,0,0,0-1.36.41,2.7,2.7,0,0,0-.9,1.15,4.55,4.55,0,0,0-.32,1.77,4.62,4.62,0,0,0,.31,1.79,2.72,2.72,0,0,0,.9,1.18,2.5,2.5,0,0,0,2.33.22,2,2,0,0,0,.72-.57,2.05,2.05,0,0,0,.41-.88h1.81a3.47,3.47,0,0,1-.61,1.65,3.32,3.32,0,0,1-1.34,1.14A4.33,4.33,0,0,1,49.4,52.21Z"/><path class="cls-2" d="M58.41,52.21A4.36,4.36,0,0,1,56,51.58a4.18,4.18,0,0,1-1.53-1.74A5.88,5.88,0,0,1,54,47.3a5.64,5.64,0,0,1,.55-2.56A4.06,4.06,0,0,1,56.05,43a4.27,4.27,0,0,1,2.34-.63,4.41,4.41,0,0,1,1.93.4,3.55,3.55,0,0,1,1.38,1.12,3.42,3.42,0,0,1,.62,1.68h-1.8a2.17,2.17,0,0,0-.68-1.15,2,2,0,0,0-1.42-.49,2.27,2.27,0,0,0-1.35.41,2.65,2.65,0,0,0-.91,1.15,4.55,4.55,0,0,0-.32,1.77,4.62,4.62,0,0,0,.32,1.79,2.7,2.7,0,0,0,.89,1.18,2.36,2.36,0,0,0,1.37.41,2.32,2.32,0,0,0,1-.19,1.83,1.83,0,0,0,.72-.57,2.06,2.06,0,0,0,.42-.88h1.8a3.57,3.57,0,0,1-.6,1.65,3.38,3.38,0,0,1-1.34,1.14A4.36,4.36,0,0,1,58.41,52.21Z"/><path class="cls-2" d="M67.41,52.21a4.42,4.42,0,0,1-2.33-.61,4.1,4.1,0,0,1-1.55-1.72,6.25,6.25,0,0,1,0-5.17A4.07,4.07,0,0,1,65.08,43a4.77,4.77,0,0,1,4.67,0,4.14,4.14,0,0,1,1.55,1.73,6.35,6.35,0,0,1,0,5.17,4.17,4.17,0,0,1-1.55,1.72A4.46,4.46,0,0,1,67.41,52.21Zm0-1.56a2.2,2.2,0,0,0,1.44-.46A2.63,2.63,0,0,0,69.7,49a5.15,5.15,0,0,0,0-3.35,2.71,2.71,0,0,0-.84-1.23,2.21,2.21,0,0,0-1.44-.47,2.23,2.23,0,0,0-1.45.47,2.81,2.81,0,0,0-.85,1.23,5.33,5.33,0,0,0,0,3.35A2.72,2.72,0,0,0,66,50.19,2.23,2.23,0,0,0,67.42,50.65Z"/><path class="cls-2" d="M79,48.07V42.5H80.9V52H79.08V50.37H79a3,3,0,0,1-1,1.27,3.45,3.45,0,0,1-3.42.09,2.73,2.73,0,0,1-1.1-1.2,4.34,4.34,0,0,1-.4-2v-6h1.85v5.83a2.18,2.18,0,0,0,.54,1.55,1.85,1.85,0,0,0,1.4.58,2.21,2.21,0,0,0,1-.27,2.14,2.14,0,0,0,.86-.78A2.4,2.4,0,0,0,79,48.07Z"/><path class="cls-2" d="M84.33,46.36V52H82.48V42.5h1.78V44h.11a2.77,2.77,0,0,1,1-1.21,3.15,3.15,0,0,1,1.77-.46,3.49,3.49,0,0,1,1.71.41A2.8,2.8,0,0,1,90,44a4.4,4.4,0,0,1,.4,2V52H88.57V46.18A2.3,2.3,0,0,0,88,44.56,1.91,1.91,0,0,0,86.55,44a2.24,2.24,0,0,0-1.14.28,1.87,1.87,0,0,0-.79.81A2.73,2.73,0,0,0,84.33,46.36Z"/><path class="cls-2" d="M96.44,42.5V44h-5.2V42.5Zm-3.81-2.29h1.86v9a1.59,1.59,0,0,0,.16.81.88.88,0,0,0,.42.37,1.69,1.69,0,0,0,.56.09,2.21,2.21,0,0,0,.39,0l.26-.05.33,1.53a2.88,2.88,0,0,1-.45.13,3.82,3.82,0,0,1-.75.07,3.24,3.24,0,0,1-1.36-.26A2.32,2.32,0,0,1,93,51a2.41,2.41,0,0,1-.4-1.43Z"/><path class="cls-2" d="M100.35,52.23a3.82,3.82,0,0,1-1.64-.34,2.63,2.63,0,0,1-1.15-1,2.77,2.77,0,0,1-.43-1.58A2.64,2.64,0,0,1,97.44,48a2.28,2.28,0,0,1,.84-.82,4,4,0,0,1,1.18-.46,11.38,11.38,0,0,1,1.32-.24l1.39-.16a2.1,2.1,0,0,0,.78-.22.52.52,0,0,0,.24-.48v0a1.65,1.65,0,0,0-.46-1.26,1.83,1.83,0,0,0-1.35-.45,2.36,2.36,0,0,0-1.47.41,2.18,2.18,0,0,0-.74.92l-1.75-.4a3.31,3.31,0,0,1,.91-1.4,3.64,3.64,0,0,1,1.38-.78,5.26,5.26,0,0,1,1.64-.25,6.76,6.76,0,0,1,1.22.13,3.9,3.9,0,0,1,1.2.49,2.74,2.74,0,0,1,.92,1,3.47,3.47,0,0,1,.36,1.69V52h-1.81v-1.3h-.08a2.59,2.59,0,0,1-.54.7,2.79,2.79,0,0,1-.92.58A3.67,3.67,0,0,1,100.35,52.23Zm.4-1.49a2.74,2.74,0,0,0,1.32-.3,2.23,2.23,0,0,0,.84-.8,2.08,2.08,0,0,0,.28-1.06V47.36a1,1,0,0,1-.38.18,6.31,6.31,0,0,1-.64.14l-.7.11-.57.07a5.23,5.23,0,0,0-1,.23,1.72,1.72,0,0,0-.71.46,1.22,1.22,0,0,0-.26.8,1.18,1.18,0,0,0,.51,1A2.23,2.23,0,0,0,100.75,50.74Z"/><path class="cls-2" d="M108.46,46.36V52h-1.85V42.5h1.78V44h.11a2.77,2.77,0,0,1,1-1.21,3.15,3.15,0,0,1,1.77-.46,3.49,3.49,0,0,1,1.71.41,2.74,2.74,0,0,1,1.13,1.2,4.39,4.39,0,0,1,.41,2V52H112.7V46.18a2.3,2.3,0,0,0-.54-1.62,1.91,1.91,0,0,0-1.48-.58,2.24,2.24,0,0,0-1.14.28,1.93,1.93,0,0,0-.79.81A2.73,2.73,0,0,0,108.46,46.36Z"/><path class="cls-2" d="M120.57,42.5V44h-5.2V42.5Zm-3.8-2.29h1.85v9a1.59,1.59,0,0,0,.16.81.88.88,0,0,0,.42.37,1.69,1.69,0,0,0,.56.09,2.21,2.21,0,0,0,.39,0l.26-.05.34,1.53a3.06,3.06,0,0,1-.46.13,3.82,3.82,0,0,1-.75.07,3.24,3.24,0,0,1-1.36-.26,2.32,2.32,0,0,1-1-.84,2.48,2.48,0,0,1-.39-1.43Z"/><path class="cls-2" d="M13,62.69v5.66H11.17V58.83H13v1.55h.12a2.72,2.72,0,0,1,1-1.22,3.15,3.15,0,0,1,1.77-.46,3.49,3.49,0,0,1,1.71.41,2.74,2.74,0,0,1,1.13,1.2,4.39,4.39,0,0,1,.41,2v6.06H17.26V62.51a2.3,2.3,0,0,0-.54-1.62,1.91,1.91,0,0,0-1.48-.58,2.24,2.24,0,0,0-1.14.28,1.93,1.93,0,0,0-.79.81A2.73,2.73,0,0,0,13,62.69Z"/><path class="cls-2" d="M24.79,68.54a4.67,4.67,0,0,1-2.42-.6,4.1,4.1,0,0,1-1.56-1.71,5.64,5.64,0,0,1-.55-2.58,5.7,5.7,0,0,1,.55-2.58,4.14,4.14,0,0,1,1.54-1.74,4.21,4.21,0,0,1,2.31-.63,4.57,4.57,0,0,1,1.56.27,3.75,3.75,0,0,1,1.36.83,4.06,4.06,0,0,1,1,1.48,6.25,6.25,0,0,1,.35,2.21v.65H21.31V62.76h5.75a2.71,2.71,0,0,0-.3-1.3,2.18,2.18,0,0,0-.83-.9,2.37,2.37,0,0,0-1.26-.33,2.46,2.46,0,0,0-1.36.38,2.68,2.68,0,0,0-.89,1,2.79,2.79,0,0,0-.31,1.32V64a3.54,3.54,0,0,0,.34,1.63,2.44,2.44,0,0,0,.94,1,2.85,2.85,0,0,0,1.42.35,2.93,2.93,0,0,0,1-.15,2.2,2.2,0,0,0,.75-.46,2.08,2.08,0,0,0,.49-.75l1.75.32A3.22,3.22,0,0,1,28,67.32a3.68,3.68,0,0,1-1.36.9A5.1,5.1,0,0,1,24.79,68.54Z"/><path class="cls-2" d="M34.14,68.54a4.65,4.65,0,0,1-2.42-.6,4,4,0,0,1-1.56-1.71,5.64,5.64,0,0,1-.55-2.58,5.7,5.7,0,0,1,.55-2.58,4.12,4.12,0,0,1,1.53-1.74A4.22,4.22,0,0,1,34,58.7a4.61,4.61,0,0,1,1.56.27,3.84,3.84,0,0,1,1.36.83,4.2,4.2,0,0,1,1,1.48,6.26,6.26,0,0,1,.34,2.21v.65H30.65V62.76h5.76a2.71,2.71,0,0,0-.3-1.3,2.32,2.32,0,0,0-.83-.9A2.37,2.37,0,0,0,34,60.23a2.46,2.46,0,0,0-1.36.38,2.59,2.59,0,0,0-.89,1,2.8,2.8,0,0,0-.32,1.32V64a3.67,3.67,0,0,0,.34,1.63,2.47,2.47,0,0,0,1,1,2.82,2.82,0,0,0,1.42.35,2.93,2.93,0,0,0,1-.15,2.2,2.2,0,0,0,.75-.46,1.94,1.94,0,0,0,.48-.75l1.76.32a3.35,3.35,0,0,1-.76,1.35,3.56,3.56,0,0,1-1.35.9A5.18,5.18,0,0,1,34.14,68.54Z"/><path class="cls-2" d="M43,68.53a3.63,3.63,0,0,1-2.06-.59,3.94,3.94,0,0,1-1.41-1.69,7.11,7.11,0,0,1,0-5.29,4,4,0,0,1,1.43-1.68A3.75,3.75,0,0,1,43,58.7a3,3,0,0,1,1.43.3,2.53,2.53,0,0,1,.84.68,5.68,5.68,0,0,1,.47.69h.11V55.65h1.85v12.7H45.85V66.87H45.7a4.89,4.89,0,0,1-.48.69,2.73,2.73,0,0,1-.86.68A2.92,2.92,0,0,1,43,68.53Zm.4-1.58a2.18,2.18,0,0,0,1.36-.42,2.65,2.65,0,0,0,.84-1.18,5,5,0,0,0,.29-1.76,4.85,4.85,0,0,0-.28-1.74,2.54,2.54,0,0,0-.84-1.16,2.48,2.48,0,0,0-2.76,0,2.65,2.65,0,0,0-.84,1.18,4.77,4.77,0,0,0-.28,1.7,4.87,4.87,0,0,0,.28,1.71A2.69,2.69,0,0,0,42,66.51,2.11,2.11,0,0,0,43.35,67Z"/><path class="cls-2" d="M53.5,68.54a4.65,4.65,0,0,1-2.42-.6,4,4,0,0,1-1.56-1.71A5.64,5.64,0,0,1,49,63.65a5.7,5.7,0,0,1,.55-2.58,4.12,4.12,0,0,1,1.53-1.74,4.22,4.22,0,0,1,2.32-.63,4.57,4.57,0,0,1,1.56.27,3.75,3.75,0,0,1,1.36.83,4.06,4.06,0,0,1,1,1.48,6.26,6.26,0,0,1,.34,2.21v.65H50V62.76h5.75a2.71,2.71,0,0,0-.3-1.3,2.32,2.32,0,0,0-.83-.9,2.37,2.37,0,0,0-1.26-.33,2.46,2.46,0,0,0-1.36.38,2.59,2.59,0,0,0-.89,1,2.79,2.79,0,0,0-.31,1.32V64a3.67,3.67,0,0,0,.33,1.63,2.47,2.47,0,0,0,1,1,2.82,2.82,0,0,0,1.42.35,2.93,2.93,0,0,0,1-.15,2.2,2.2,0,0,0,.75-.46,1.94,1.94,0,0,0,.48-.75l1.76.32a3.13,3.13,0,0,1-.76,1.35,3.56,3.56,0,0,1-1.35.9A5.18,5.18,0,0,1,53.5,68.54Z"/><path class="cls-2" d="M62.31,68.53a3.63,3.63,0,0,1-2.06-.59,3.94,3.94,0,0,1-1.41-1.69,7.11,7.11,0,0,1,0-5.29,4,4,0,0,1,1.43-1.68,3.75,3.75,0,0,1,2-.58,3,3,0,0,1,1.43.3,2.53,2.53,0,0,1,.84.68,5.68,5.68,0,0,1,.47.69h.11V55.65H67v12.7H65.21V66.87h-.15a4.89,4.89,0,0,1-.48.69,2.73,2.73,0,0,1-.86.68A2.9,2.9,0,0,1,62.31,68.53ZM62.72,67a2.17,2.17,0,0,0,1.35-.42,2.65,2.65,0,0,0,.84-1.18,4.78,4.78,0,0,0,.29-1.76,4.85,4.85,0,0,0-.28-1.74,2.54,2.54,0,0,0-.84-1.16,2.18,2.18,0,0,0-1.36-.41,2.2,2.2,0,0,0-1.4.43,2.65,2.65,0,0,0-.84,1.18,4.77,4.77,0,0,0-.28,1.7,4.87,4.87,0,0,0,.28,1.71,2.77,2.77,0,0,0,.85,1.21A2.14,2.14,0,0,0,62.72,67Z"/><path class="cls-2" d="M70,68.47a1.23,1.23,0,0,1-.88-.37,1.19,1.19,0,0,1-.36-.87A1.23,1.23,0,0,1,70,66a1.25,1.25,0,0,1,1.24,1.24,1.23,1.23,0,0,1-.17.62,1.38,1.38,0,0,1-.45.45A1.2,1.2,0,0,1,70,68.47Z"/><path class="cls-2" d="M6.06,87.36v1.71h-6V87.36Z"/><path class="cls-3" d="M18.86,90.4h-6.5V88.65h6.5Zm2.77,5.29H12.4V93.94h9.23Zm-6-9.5.21,5.68a3.83,3.83,0,0,1-.22,1.52,2.09,2.09,0,0,1-.93,1.07L13,93.94a.67.67,0,0,0,.55-.37,2.28,2.28,0,0,0,.26-.8,5.09,5.09,0,0,0,.05-.84l-.19-5.74a4,4,0,0,1,.52-2.31,3.63,3.63,0,0,1,1.51-1.4,4.81,4.81,0,0,1,3.8-.15,4,4,0,0,1,1.32.88,3.42,3.42,0,0,1,.77,1.27,3.16,3.16,0,0,1,.09,1.5l-1.9-.31a1.67,1.67,0,0,0-.21-1.07,1.71,1.71,0,0,0-.74-.64,2.38,2.38,0,0,0-2.08,0,2,2,0,0,0-.81.81A2.71,2.71,0,0,0,15.67,86.19Z"/><path class="cls-3" d="M28,95.87a6.13,6.13,0,0,1-2.5-.48A4.19,4.19,0,0,1,23.8,94a3.24,3.24,0,0,1-.6-2,3.36,3.36,0,0,1,.35-1.58,3.48,3.48,0,0,1,1-1.2,3,3,0,0,1,1.38-.62v-.08a2.69,2.69,0,0,1-1.61-1.08,3.07,3.07,0,0,1-.6-1.92,3.13,3.13,0,0,1,.55-1.85,3.79,3.79,0,0,1,1.53-1.28A5.1,5.1,0,0,1,28,82a5,5,0,0,1,2.2.47,4,4,0,0,1,1.54,1.29,3.29,3.29,0,0,1-.06,3.76,2.7,2.7,0,0,1-1.59,1.08v.08a3,3,0,0,1,1.37.62,3.57,3.57,0,0,1,1,1.2,3.5,3.5,0,0,1,.37,1.58,3.26,3.26,0,0,1-.62,2,4.1,4.1,0,0,1-1.69,1.35A6.08,6.08,0,0,1,28,95.87Zm0-1.66a3.57,3.57,0,0,0,1.45-.28,2.25,2.25,0,0,0,.95-.79A2.1,2.1,0,0,0,30.74,92a2.21,2.21,0,0,0-.36-1.25,2.54,2.54,0,0,0-1-.85,3.1,3.1,0,0,0-1.4-.3,3.25,3.25,0,0,0-1.42.3,2.51,2.51,0,0,0-1,.85A2.2,2.2,0,0,0,25.26,92a2.09,2.09,0,0,0,.33,1.18,2.19,2.19,0,0,0,.95.79A3.62,3.62,0,0,0,28,94.21Zm0-6.28a2.52,2.52,0,0,0,1.19-.27,2.05,2.05,0,0,0,.82-.75,2.1,2.1,0,0,0,.31-1.13,2,2,0,0,0-1.11-1.84A2.73,2.73,0,0,0,28,83.68a2.77,2.77,0,0,0-1.22.26,1.92,1.92,0,0,0-.81.73,2,2,0,0,0-.29,1.11A2.09,2.09,0,0,0,26,86.91a2.05,2.05,0,0,0,.82.75A2.6,2.6,0,0,0,28,87.93Z"/><path class="cls-3" d="M35.11,95.81A1.31,1.31,0,1,1,36,93.57a1.3,1.3,0,0,1,.38.93,1.26,1.26,0,0,1-.18.66,1.38,1.38,0,0,1-.48.48A1.29,1.29,0,0,1,35.11,95.81Z"/><path class="cls-3" d="M42.38,82a5.44,5.44,0,0,1,1.78.33,4.31,4.31,0,0,1,1.59,1.06,5.11,5.11,0,0,1,1.13,2,9.73,9.73,0,0,1,.43,3.08A13,13,0,0,1,47,91.61a7.33,7.33,0,0,1-1,2.33,4.5,4.5,0,0,1-1.61,1.44,4.45,4.45,0,0,1-2.12.49,4.78,4.78,0,0,1-2.14-.47,4.13,4.13,0,0,1-1.52-1.32,4.34,4.34,0,0,1-.73-1.93h2a2.61,2.61,0,0,0,.8,1.41,2.36,2.36,0,0,0,1.58.53,2.6,2.6,0,0,0,2.31-1.29,6.62,6.62,0,0,0,.84-3.62h-.1a3.64,3.64,0,0,1-.86,1,3.76,3.76,0,0,1-1.14.64,4,4,0,0,1-1.35.22,4,4,0,0,1-2.12-.57,4.12,4.12,0,0,1-1.52-1.58,4.51,4.51,0,0,1-.57-2.28,4.65,4.65,0,0,1,.58-2.32,4.26,4.26,0,0,1,1.64-1.65A4.68,4.68,0,0,1,42.38,82Zm0,1.72A2.63,2.63,0,0,0,41,84.1a2.8,2.8,0,0,0-1.32,2.45A2.92,2.92,0,0,0,40,88,2.71,2.71,0,0,0,41,89a2.55,2.55,0,0,0,1.38.37,2.58,2.58,0,0,0,1.08-.22,2.74,2.74,0,0,0,.88-.63,2.84,2.84,0,0,0,.58-.9,2.8,2.8,0,0,0,.21-1.07,2.85,2.85,0,0,0-1.31-2.41A2.57,2.57,0,0,0,42.39,83.73Z"/><path class="cls-3" d="M53.21,82a5.49,5.49,0,0,1,1.78.33,4.28,4.28,0,0,1,1.58,1.06,5.12,5.12,0,0,1,1.14,2,10,10,0,0,1,.43,3.08,12.54,12.54,0,0,1-.36,3.16,7.12,7.12,0,0,1-1,2.33A4.33,4.33,0,0,1,53,95.87a4.74,4.74,0,0,1-2.14-.47,4.05,4.05,0,0,1-1.52-1.32,4.23,4.23,0,0,1-.73-1.93h2a2.69,2.69,0,0,0,.81,1.41,2.34,2.34,0,0,0,1.58.53,2.6,2.6,0,0,0,2.31-1.29,6.71,6.71,0,0,0,.84-3.62h-.11a3.6,3.6,0,0,1-.85,1,3.76,3.76,0,0,1-1.14.64,4.24,4.24,0,0,1-3.47-.35,4.22,4.22,0,0,1-1.53-1.58,4.93,4.93,0,0,1,0-4.6,4.24,4.24,0,0,1,1.63-1.65A4.71,4.71,0,0,1,53.21,82Zm0,1.72a2.6,2.6,0,0,0-1.39.37,2.84,2.84,0,0,0-1.33,2.45A2.93,2.93,0,0,0,50.85,88a2.71,2.71,0,0,0,.95,1,2.55,2.55,0,0,0,1.38.37,2.64,2.64,0,0,0,1.08-.22,2.7,2.7,0,0,0,.87-.63,2.87,2.87,0,0,0,.59-.9,2.8,2.8,0,0,0,.21-1.07,2.83,2.83,0,0,0-1.32-2.41A2.51,2.51,0,0,0,53.22,83.73Z"/><path class="cls-2" d="M68.34,85.57v1.58H62.63V85.57ZM64.19,95.69V84.4a2.77,2.77,0,0,1,.42-1.58,2.52,2.52,0,0,1,1.1-.94,3.49,3.49,0,0,1,1.49-.32,4.85,4.85,0,0,1,1,.1,5.16,5.16,0,0,1,.63.17l-.46,1.6-.36-.1a2.58,2.58,0,0,0-.53,0,1.29,1.29,0,0,0-1,.35,1.51,1.51,0,0,0-.31,1v11Z"/><path class="cls-2" d="M70.4,84a1.26,1.26,0,0,1-.88-.35,1.09,1.09,0,0,1-.36-.82,1.12,1.12,0,0,1,.36-.84,1.25,1.25,0,0,1,.88-.34,1.23,1.23,0,0,1,.88.34,1.09,1.09,0,0,1,.37.84,1.07,1.07,0,0,1-.37.82A1.24,1.24,0,0,1,70.4,84Zm-1,11.68V85.57h2V95.69Z"/><path class="cls-2" d="M74.62,85.57l2.23,3.94,2.25-3.94h2.16L78.1,90.63l3.18,5.06H79.13l-2.28-3.78-2.27,3.78H72.42l3.14-5.06-3.1-5.06Z"/><path class="cls-2" d="M86.27,95.89a4.93,4.93,0,0,1-2.57-.64A4.28,4.28,0,0,1,82,93.44,6.79,6.79,0,0,1,82,88a4.34,4.34,0,0,1,4.09-2.51,4.86,4.86,0,0,1,1.66.28,4.12,4.12,0,0,1,1.45.89,4.3,4.3,0,0,1,1,1.57,6.69,6.69,0,0,1,.36,2.34v.7h-8V89.75h6.11a2.92,2.92,0,0,0-.31-1.38,2.42,2.42,0,0,0-.89-1,2.51,2.51,0,0,0-1.33-.35,2.57,2.57,0,0,0-1.45.41,2.74,2.74,0,0,0-1,1,3.11,3.11,0,0,0-.33,1.41v1.15a3.81,3.81,0,0,0,.36,1.73,2.5,2.5,0,0,0,1,1.08,3.17,3.17,0,0,0,2.53.21,2.09,2.09,0,0,0,.8-.48,2.22,2.22,0,0,0,.52-.8l1.86.34a3.41,3.41,0,0,1-.8,1.44,3.9,3.9,0,0,1-1.44,1A5.34,5.34,0,0,1,86.27,95.89Z"/><path class="cls-2" d="M95.63,95.89a3.87,3.87,0,0,1-2.18-.63,4.28,4.28,0,0,1-1.51-1.8,6.68,6.68,0,0,1-.54-2.81A6.52,6.52,0,0,1,92,87.84a4.16,4.16,0,0,1,1.51-1.78,3.88,3.88,0,0,1,2.18-.62,3.16,3.16,0,0,1,1.52.31,2.79,2.79,0,0,1,.9.73,7.46,7.46,0,0,1,.5.73h.11v-5h2V95.69H98.72V94.11h-.16a4.88,4.88,0,0,1-.52.74,2.84,2.84,0,0,1-.91.73A3.22,3.22,0,0,1,95.63,95.89Zm.44-1.68a2.23,2.23,0,0,0,1.43-.46,2.67,2.67,0,0,0,.9-1.25,5.35,5.35,0,0,0,.31-1.87,5,5,0,0,0-.31-1.85,2.69,2.69,0,0,0-.89-1.23,2.35,2.35,0,0,0-1.44-.44,2.4,2.4,0,0,0-1.49.46,2.86,2.86,0,0,0-.89,1.26,5.07,5.07,0,0,0-.3,1.8,5.18,5.18,0,0,0,.3,1.82,3,3,0,0,0,.9,1.28A2.29,2.29,0,0,0,96.07,94.21Z"/><path class="cls-2" d="M111.25,85.57v1.58h-5.72V85.57ZM107.1,95.69V84.4a2.77,2.77,0,0,1,.42-1.58,2.52,2.52,0,0,1,1.1-.94,3.48,3.48,0,0,1,1.48-.32,4.88,4.88,0,0,1,1,.1,5.16,5.16,0,0,1,.63.17l-.47,1.6-.35-.1a2.65,2.65,0,0,0-.53,0,1.29,1.29,0,0,0-1,.35,1.51,1.51,0,0,0-.31,1v11Z"/><path class="cls-2" d="M116.27,95.89a4.93,4.93,0,0,1-2.57-.64A4.28,4.28,0,0,1,112,93.44,6.79,6.79,0,0,1,112,88a4.52,4.52,0,0,1,1.63-1.85,4.58,4.58,0,0,1,2.47-.66,5,5,0,0,1,1.66.28,4.17,4.17,0,0,1,1.44.89,4.3,4.3,0,0,1,1,1.57,6.68,6.68,0,0,1,.37,2.34v.7h-8.05V89.75h6.12a2.93,2.93,0,0,0-.32-1.38,2.42,2.42,0,0,0-.89-1,2.51,2.51,0,0,0-1.33-.35,2.59,2.59,0,0,0-1.45.41,2.82,2.82,0,0,0-1,1,3.11,3.11,0,0,0-.33,1.41v1.15a3.81,3.81,0,0,0,.36,1.73,2.46,2.46,0,0,0,1,1.08,3.15,3.15,0,0,0,2.52.21,2.1,2.1,0,0,0,1.32-1.28l1.86.34a3.41,3.41,0,0,1-.8,1.44,3.82,3.82,0,0,1-1.44,1A5.34,5.34,0,0,1,116.27,95.89Z"/><path class="cls-2" d="M126.21,95.89a4.94,4.94,0,0,1-2.58-.64A4.28,4.28,0,0,1,122,93.44,6.79,6.79,0,0,1,122,88a4.36,4.36,0,0,1,4.1-2.51,5,5,0,0,1,1.66.28,4.17,4.17,0,0,1,1.44.89,4.3,4.3,0,0,1,1,1.57,6.68,6.68,0,0,1,.37,2.34v.7H122.5V89.75h6.12a2.93,2.93,0,0,0-.32-1.38,2.42,2.42,0,0,0-.89-1,2.51,2.51,0,0,0-1.33-.35,2.59,2.59,0,0,0-1.45.41,2.82,2.82,0,0,0-.95,1,3.11,3.11,0,0,0-.33,1.41v1.15a3.81,3.81,0,0,0,.36,1.73,2.52,2.52,0,0,0,1,1.08,2.93,2.93,0,0,0,1.5.38,3,3,0,0,0,1-.17,2.13,2.13,0,0,0,.79-.48,2.1,2.1,0,0,0,.52-.8l1.86.34a3.41,3.41,0,0,1-.8,1.44,3.82,3.82,0,0,1-1.44,1A5.32,5.32,0,0,1,126.21,95.89Z"/></g></g></svg>