<svg xmlns="http://www.w3.org/2000/svg" viewBox="0 0 111.45 36.53"><g id="Layer_2" data-name="Layer 2"><g id="Layer_1-2" data-name="Layer 1"><path d="M2.57,7.06v3.5H.69V1.12H4.13a3.53,3.53,0,0,1,2.52.81A2.87,2.87,0,0,1,7.5,4.11a2.8,2.8,0,0,1-.88,2.15,3.58,3.58,0,0,1-2.49.8Zm3-2.95A1.47,1.47,0,0,0,5.2,3a1.8,1.8,0,0,0-1.27-.37H2.57v2.9H3.93Q5.58,5.55,5.58,4.11Z"/><path d="M15.81,3.16v7.4H13.93V9.07a2.38,2.38,0,0,1-1,1.17,2.89,2.89,0,0,1-1.56.42,2.63,2.63,0,0,1-2.05-.84,3.45,3.45,0,0,1-.76-2.36V3.16h1.87V7.25a2,2,0,0,0,.46,1.37,1.61,1.61,0,0,0,1.23.49,1.72,1.72,0,0,0,1.3-.52,2.15,2.15,0,0,0,.48-1.5V3.16Z"/><path d="M23.64,3.52a3.05,3.05,0,0,1,1.17,1.31,4.6,4.6,0,0,1,.42,2,4.6,4.6,0,0,1-.42,2,3.05,3.05,0,0,1-1.17,1.31,3.13,3.13,0,0,1-1.69.46,2.79,2.79,0,0,1-1.6-.45A2.48,2.48,0,0,1,19.41,9v1.55H17.53V.67h1.88v4a2.45,2.45,0,0,1,.94-1.19A2.86,2.86,0,0,1,22,3.06,3.13,3.13,0,0,1,23.64,3.52ZM20,5.29a2.18,2.18,0,0,0-.55,1.57A2.17,2.17,0,0,0,20,8.42a2,2,0,0,0,2.83,0,2.19,2.19,0,0,0,.54-1.57,2.23,2.23,0,0,0-.54-1.58,2,2,0,0,0-2.83,0Z"/><path d="M28.45.67v9.89H26.57V.67Z"/><path d="M30.27.29A1.21,1.21,0,0,1,31.11,0,1.25,1.25,0,0,1,32,.29a1,1,0,0,1,.32.74,1,1,0,0,1-.32.73,1.25,1.25,0,0,1-.85.29,1.21,1.21,0,0,1-.84-.29A1,1,0,0,1,30,1,1,1,0,0,1,30.27.29Zm1.78,2.87v7.4H30.16V3.16Z"/><path d="M39.48,3.84A3.42,3.42,0,0,1,40.67,6h-2A1.53,1.53,0,0,0,38.13,5a1.64,1.64,0,0,0-1.08-.34,1.61,1.61,0,0,0-1.25.56,2.36,2.36,0,0,0-.5,1.62,2.39,2.39,0,0,0,.5,1.63A1.6,1.6,0,0,0,37.05,9a1.64,1.64,0,0,0,1.08-.34,1.53,1.53,0,0,0,.55-.93h2a3.39,3.39,0,0,1-1.19,2.11,3.67,3.67,0,0,1-2.39.78,4.08,4.08,0,0,1-1.93-.46,3.33,3.33,0,0,1-1.31-1.32,4.16,4.16,0,0,1-.46-2,4.22,4.22,0,0,1,.46-2,3.24,3.24,0,0,1,1.31-1.31,4,4,0,0,1,1.93-.46A3.67,3.67,0,0,1,39.48,3.84Z"/><path d="M46.52,3.5a2.47,2.47,0,0,1,.95,1.19V3.16h1.87v7.4H47.47V9a2.5,2.5,0,0,1-.95,1.2,2.82,2.82,0,0,1-1.61.45,3.12,3.12,0,0,1-1.68-.46,3.05,3.05,0,0,1-1.17-1.31,4.6,4.6,0,0,1-.42-2,4.6,4.6,0,0,1,.42-2,3.05,3.05,0,0,1,1.17-1.31,3.12,3.12,0,0,1,1.68-.46A2.89,2.89,0,0,1,46.52,3.5ZM43.93,1.87a2.15,2.15,0,0,1-.58-1.6V.11h.93c0,.66.41,1,1.21,1s1.2-.33,1.2-1h.94V.27a2.19,2.19,0,0,1-.58,1.6,2.36,2.36,0,0,1-3.12,0Zm.15,3.41a2.27,2.27,0,0,0-.53,1.58,2.23,2.23,0,0,0,.53,1.57,2,2,0,0,0,2.83,0,2.18,2.18,0,0,0,.56-1.56,2.18,2.18,0,0,0-.56-1.57,2,2,0,0,0-2.83,0Z"/><path d="M58.47,3.5a2.36,2.36,0,0,1,1,1.19V3.16h1.87v7.4H59.42V9a2.39,2.39,0,0,1-1,1.2,2.79,2.79,0,0,1-1.6.45,3.13,3.13,0,0,1-1.69-.46A3.05,3.05,0,0,1,54,8.89a4.6,4.6,0,0,1-.42-2,4.6,4.6,0,0,1,.42-2,3.05,3.05,0,0,1,1.17-1.31,3.13,3.13,0,0,1,1.69-.46A2.86,2.86,0,0,1,58.47,3.5ZM56,5.28a2.23,2.23,0,0,0-.54,1.58A2.19,2.19,0,0,0,56,8.43a2,2,0,0,0,2.83,0,2.17,2.17,0,0,0,.55-1.56,2.18,2.18,0,0,0-.55-1.57,2,2,0,0,0-2.83,0Z"/><path d="M69.47,3.89a3.44,3.44,0,0,1,.76,2.37v4.3H68.36V6.47A2,2,0,0,0,67.9,5.1a1.63,1.63,0,0,0-1.24-.49,1.67,1.67,0,0,0-1.29.53,2.1,2.1,0,0,0-.48,1.49v3.93H63V3.16h1.88V4.64a2.38,2.38,0,0,1,1-1.17,2.89,2.89,0,0,1,1.56-.42A2.63,2.63,0,0,1,69.47,3.89Z"/><path d="M79,3.16v7.4H77.09V9.07a2.38,2.38,0,0,1-1,1.17,2.89,2.89,0,0,1-1.56.42,2.65,2.65,0,0,1-2-.84,3.45,3.45,0,0,1-.76-2.36V3.16h1.87V7.25a2,2,0,0,0,.46,1.37,1.61,1.61,0,0,0,1.23.49,1.72,1.72,0,0,0,1.3-.52,2.15,2.15,0,0,0,.48-1.5V3.16Z"/><path d="M87.14,3.89a3.4,3.4,0,0,1,.77,2.37v4.3H86V6.47a2,2,0,0,0-.45-1.37,1.63,1.63,0,0,0-1.24-.49,1.67,1.67,0,0,0-1.29.53,2.1,2.1,0,0,0-.48,1.49v3.93H80.69V3.16h1.88V4.64a2.38,2.38,0,0,1,1-1.17,2.89,2.89,0,0,1,1.56-.42A2.61,2.61,0,0,1,87.14,3.89Z"/><path d="M93.52,9v1.61h-1a2.72,2.72,0,0,1-1.9-.6A2.6,2.6,0,0,1,90,8V4.75h-1V3.16h1V1.32h1.88V3.16h1.66V4.75H91.85V8a1,1,0,0,0,.22.75,1,1,0,0,0,.72.22Zm-1.16,2.22a3.71,3.71,0,0,1,.21,1.24,2.07,2.07,0,0,1-.42,1.38,1.56,1.56,0,0,1-1.25.49v-.72c.46,0,.68-.3.68-.9v-.12h-.74V11.17Z"/><path d="M102,3.16v7.4h-1.88V9.07a2.38,2.38,0,0,1-1,1.17,2.89,2.89,0,0,1-1.56.42,2.63,2.63,0,0,1-2-.84,3.4,3.4,0,0,1-.76-2.36V3.16h1.87V7.25a1.91,1.91,0,0,0,.46,1.37,1.61,1.61,0,0,0,1.23.49,1.69,1.69,0,0,0,1.29-.52,2.1,2.1,0,0,0,.49-1.5V3.16Z"/><path d="M106.66,3.46a2.91,2.91,0,0,1,1.52-.41v2h-.55q-2.07,0-2.07,1.92v3.57h-1.89V3.16h1.89V4.57A3,3,0,0,1,106.66,3.46Z"/><path d="M109.33.29a1.21,1.21,0,0,1,.84-.29,1.25,1.25,0,0,1,.85.29,1,1,0,0,1,.32.74,1,1,0,0,1-.32.73,1.25,1.25,0,0,1-.85.29,1.21,1.21,0,0,1-.84-.29A1,1,0,0,1,109,1,1,1,0,0,1,109.33.29Zm1.78,2.87v7.4h-1.89V3.16Z"/><path d="M5.18,16.76a2.75,2.75,0,0,1,1,1.43V16.32H7.44v7.46A3.74,3.74,0,0,1,7,25.58,3,3,0,0,1,5.8,26.81a3.48,3.48,0,0,1-1.8.44,3.84,3.84,0,0,1-2.42-.71A3.14,3.14,0,0,1,.39,24.61h1.2a2,2,0,0,0,.81,1.15,2.61,2.61,0,0,0,1.53.43,2.26,2.26,0,0,0,1.64-.64,2.36,2.36,0,0,0,.65-1.77v-2a2.83,2.83,0,0,1-1,1.43,3.05,3.05,0,0,1-1.81.53,3.37,3.37,0,0,1-1.74-.45A3.18,3.18,0,0,1,.43,22,4.31,4.31,0,0,1,0,20a4.36,4.36,0,0,1,.43-2,3.12,3.12,0,0,1,1.2-1.31,3.28,3.28,0,0,1,1.74-.46A3,3,0,0,1,5.18,16.76ZM1.92,18a2.77,2.77,0,0,0-.68,2,2.78,2.78,0,0,0,.68,2,2.38,2.38,0,0,0,1.8.71A2.53,2.53,0,0,0,5,22.35a2.4,2.4,0,0,0,.89-1A3,3,0,0,0,6.22,20a3.05,3.05,0,0,0-.32-1.41A2.34,2.34,0,0,0,5,17.63a2.52,2.52,0,0,0-1.29-.32A2.34,2.34,0,0,0,1.92,18Z"/><path d="M11.65,16.62a3.12,3.12,0,0,1,1.66-.42v1.32h-.38a2.58,2.58,0,0,0-1.68.53,2.09,2.09,0,0,0-.66,1.74v3.87H9.37V16.32h1.22V17.8A2.64,2.64,0,0,1,11.65,16.62Z"/><path d="M19.33,16.76a2.75,2.75,0,0,1,1,1.43V16.32h1.21v7.34H20.37V21.79a2.83,2.83,0,0,1-1,1.43,3.05,3.05,0,0,1-1.81.53,3.37,3.37,0,0,1-1.74-.45A3.18,3.18,0,0,1,14.58,22a4.31,4.31,0,0,1-.43-2,4.36,4.36,0,0,1,.43-2,3.12,3.12,0,0,1,1.2-1.31,3.28,3.28,0,0,1,1.74-.46A3,3,0,0,1,19.33,16.76ZM16.07,18a2.77,2.77,0,0,0-.68,2,2.78,2.78,0,0,0,.68,2,2.38,2.38,0,0,0,1.8.71,2.53,2.53,0,0,0,1.29-.33,2.4,2.4,0,0,0,.89-1A3,3,0,0,0,20.37,20a3.05,3.05,0,0,0-.32-1.41,2.34,2.34,0,0,0-.89-.95,2.52,2.52,0,0,0-1.29-.32A2.34,2.34,0,0,0,16.07,18Z"/><path d="M27,22.59v1.07h-.91a2.32,2.32,0,0,1-1.68-.54,2.4,2.4,0,0,1-.56-1.79v-4H22.79V16.32h1.09V14.48h1.23v1.84H27v1.05h-1.9v4a1.36,1.36,0,0,0,.27,1,1.26,1.26,0,0,0,.9.26Z"/><path d="M35,16.32v7.34H33.82V21.93a2.44,2.44,0,0,1-1,1.37,2.89,2.89,0,0,1-1.66.48A2.76,2.76,0,0,1,29.1,23a3.27,3.27,0,0,1-.79-2.36V16.32h1.22v4.16a2.35,2.35,0,0,0,.56,1.69,2,2,0,0,0,1.52.59,2.07,2.07,0,0,0,1.61-.65,2.68,2.68,0,0,0,.6-1.89v-3.9Z"/><path d="M37,13.62a.84.84,0,0,1,.6-.21.89.89,0,0,1,.61.21.7.7,0,0,1,.22.54.67.67,0,0,1-.22.54.89.89,0,0,1-.61.21.84.84,0,0,1-.6-.21.68.68,0,0,1-.23-.54A.71.71,0,0,1,37,13.62Zm1.21,2.7v7.34H37V16.32Z"/><path d="M43.66,22.59v1.07h-.91a2.32,2.32,0,0,1-1.68-.54,2.4,2.4,0,0,1-.55-1.79v-4h-1.1V16.32h1.1V14.48h1.23v1.84h1.9v1.05h-1.9v4a1.41,1.41,0,0,0,.26,1,1.27,1.27,0,0,0,.9.26Z"/><path d="M46,23.86A1.69,1.69,0,0,1,45.69,25a1.26,1.26,0,0,1-1,.42v-.53a.61.61,0,0,0,.49-.18.87.87,0,0,0,.15-.56V24h-.68V22.76h1.25A3.77,3.77,0,0,1,46,23.86Z"/><path d="M51.53,14.38,49.67,15.5v-.86l1.86-1.11,1.84,1.11v.86Zm.6,1.94v7.34H50.9V16.32Z"/><path d="M60.14,17a3.32,3.32,0,0,1,.79,2.37v4.27H59.71V19.5a2.39,2.39,0,0,0-.56-1.69,2,2,0,0,0-1.53-.58,2.07,2.07,0,0,0-1.6.64,2.72,2.72,0,0,0-.6,1.9v3.89H54.2V16.32h1.22v1.73a2.49,2.49,0,0,1,1-1.37,2.91,2.91,0,0,1,1.65-.48A2.75,2.75,0,0,1,60.14,17Z"/><path d="M71.68,17a3.18,3.18,0,0,1,1.13,2H71.53a1.87,1.87,0,0,0-.73-1.24,2.55,2.55,0,0,0-2.65-.15,2.12,2.12,0,0,0-.85.9,3.7,3.7,0,0,0,0,3,2.24,2.24,0,0,0,.85.9,2.59,2.59,0,0,0,2.65-.16A1.89,1.89,0,0,0,71.53,21h1.28a3.18,3.18,0,0,1-1.13,2,3.63,3.63,0,0,1-2.33.74,3.8,3.8,0,0,1-1.87-.45A3.23,3.23,0,0,1,66.2,22a4.08,4.08,0,0,1-.46-2,4.13,4.13,0,0,1,.46-2,3.17,3.17,0,0,1,1.28-1.31,3.7,3.7,0,0,1,1.87-.46A3.58,3.58,0,0,1,71.68,17Z"/><path d="M79.23,16.76a2.73,2.73,0,0,1,1,1.43V16.32h1.22v7.34H80.26V21.79a2.81,2.81,0,0,1-1,1.43,3.07,3.07,0,0,1-1.81.53,3.32,3.32,0,0,1-1.74-.45A3.18,3.18,0,0,1,74.48,22,4.31,4.31,0,0,1,74,20a4.37,4.37,0,0,1,.44-2,3.12,3.12,0,0,1,1.2-1.31,3.23,3.23,0,0,1,1.74-.46A3,3,0,0,1,79.23,16.76ZM76,18a2.77,2.77,0,0,0-.67,2A2.78,2.78,0,0,0,76,22a2.38,2.38,0,0,0,1.8.71,2.53,2.53,0,0,0,1.29-.33,2.33,2.33,0,0,0,.89-1A2.88,2.88,0,0,0,80.26,20a2.93,2.93,0,0,0-.32-1.41,2.27,2.27,0,0,0-.89-.95,2.52,2.52,0,0,0-1.29-.32A2.34,2.34,0,0,0,76,18Zm1.8-3.64L75.9,15.5v-.86l1.86-1.11,1.85,1.11v.86Z"/><path d="M86.92,22.59v1.07H86a2.31,2.31,0,0,1-1.67-.54,2.4,2.4,0,0,1-.56-1.79v-4h-1.1V16.32h1.1V14.48H85v1.84h1.9v1.05H85v4a1.41,1.41,0,0,0,.26,1,1.29,1.29,0,0,0,.9.26Z"/><path d="M95.11,20.25H89.24A2.53,2.53,0,0,0,90,22.13a2.33,2.33,0,0,0,1.65.63,2.39,2.39,0,0,0,1.48-.45,1.81,1.81,0,0,0,.73-1.19h1.3a3,3,0,0,1-.6,1.36,3.17,3.17,0,0,1-1.19.94,4.07,4.07,0,0,1-1.66.33,3.84,3.84,0,0,1-1.88-.45A3.27,3.27,0,0,1,88.51,22a4.08,4.08,0,0,1-.46-2,4.13,4.13,0,0,1,.46-2,3.21,3.21,0,0,1,1.27-1.31,3.74,3.74,0,0,1,1.88-.46,3.62,3.62,0,0,1,1.86.46,3.15,3.15,0,0,1,1.22,1.21,3.44,3.44,0,0,1,.42,1.69A4.27,4.27,0,0,1,95.11,20.25Zm-1.45-2a1.93,1.93,0,0,0-.84-.81,2.54,2.54,0,0,0-1.16-.27,2.45,2.45,0,0,0-1.69.62,2.52,2.52,0,0,0-.73,1.83h4.69A2.46,2.46,0,0,0,93.66,18.29Z"/><path d="M99.6,22.36l2.27-6h1.31l-2.87,7.34H98.87L96,16.32H97.3Z"/><path d="M109.2,16.76a2.73,2.73,0,0,1,1,1.43V16.32h1.22v7.34h-1.22V21.79a2.81,2.81,0,0,1-1,1.43,3.08,3.08,0,0,1-1.82.53,3.31,3.31,0,0,1-1.73-.45,3.18,3.18,0,0,1-1.2-1.31,4.31,4.31,0,0,1-.44-2,4.37,4.37,0,0,1,.44-2,3.12,3.12,0,0,1,1.2-1.31,3.22,3.22,0,0,1,1.73-.46A3,3,0,0,1,109.2,16.76ZM105.93,18a2.77,2.77,0,0,0-.67,2,2.78,2.78,0,0,0,.67,2,2.38,2.38,0,0,0,1.8.71,2.53,2.53,0,0,0,1.29-.33,2.33,2.33,0,0,0,.89-1,2.88,2.88,0,0,0,.32-1.41,2.93,2.93,0,0,0-.32-1.41,2.27,2.27,0,0,0-.89-.95,2.52,2.52,0,0,0-1.29-.32A2.34,2.34,0,0,0,105.93,18Z"/><path d="M31,29.62A2.71,2.71,0,0,1,32,31.36H30.78a1.65,1.65,0,0,0-.54-1.07A1.75,1.75,0,0,0,29,29.87a1.55,1.55,0,0,0-1,.31,1.07,1.07,0,0,0-.37.85.91.91,0,0,0,.25.65,1.6,1.6,0,0,0,.62.37,8.75,8.75,0,0,0,1,.28,9,9,0,0,1,1.31.38,2.11,2.11,0,0,1,.86.62A1.74,1.74,0,0,1,32,34.48a1.81,1.81,0,0,1-.67,1.46,2.75,2.75,0,0,1-1.8.56,3.44,3.44,0,0,1-2.14-.63,2.52,2.52,0,0,1-1-1.75H27.6a1.53,1.53,0,0,0,.58,1.08,2.1,2.1,0,0,0,1.36.42,1.41,1.41,0,0,0,1-.32,1.1,1.1,0,0,0,.36-.85.93.93,0,0,0-.26-.68,1.72,1.72,0,0,0-.62-.39,10,10,0,0,0-1-.28,10.2,10.2,0,0,1-1.31-.37,2,2,0,0,1-.83-.6,1.65,1.65,0,0,1-.34-1.1,1.87,1.87,0,0,1,.68-1.49A2.83,2.83,0,0,1,29,29,3,3,0,0,1,31,29.62Z"/><path d="M40.35,33H34.48a2.55,2.55,0,0,0,.71,1.88,2.33,2.33,0,0,0,1.65.63,2.39,2.39,0,0,0,1.48-.45,1.85,1.85,0,0,0,.73-1.19h1.3a3.09,3.09,0,0,1-.6,1.36,3.21,3.21,0,0,1-1.2.94,4,4,0,0,1-1.65.33A3.84,3.84,0,0,1,35,36.05a3.21,3.21,0,0,1-1.27-1.31,4.08,4.08,0,0,1-.46-2,4.13,4.13,0,0,1,.46-2A3.15,3.15,0,0,1,35,29.43,3.74,3.74,0,0,1,36.9,29a3.62,3.62,0,0,1,1.86.46A3.09,3.09,0,0,1,40,30.64a3.44,3.44,0,0,1,.42,1.69A4.27,4.27,0,0,1,40.35,33ZM38.9,31a1.93,1.93,0,0,0-.84-.81A2.57,2.57,0,0,0,36.9,30a2.45,2.45,0,0,0-1.69.62,2.52,2.52,0,0,0-.73,1.83h4.69A2.44,2.44,0,0,0,38.9,31Z"/><path d="M47.57,29.72a3.18,3.18,0,0,1,1.13,2H47.42a1.87,1.87,0,0,0-.73-1.24A2.39,2.39,0,0,0,45.21,30a2.47,2.47,0,0,0-1.17.29,2.21,2.21,0,0,0-.85.91,3.23,3.23,0,0,0-.32,1.5,3.27,3.27,0,0,0,.32,1.51,2.24,2.24,0,0,0,.85.9,2.36,2.36,0,0,0,1.17.29A2.39,2.39,0,0,0,46.69,35a1.89,1.89,0,0,0,.73-1.24H48.7a3.18,3.18,0,0,1-1.13,2,3.63,3.63,0,0,1-2.33.74,3.8,3.8,0,0,1-1.87-.45,3.23,3.23,0,0,1-1.28-1.31,4.08,4.08,0,0,1-.46-2,4.13,4.13,0,0,1,.46-2,3.17,3.17,0,0,1,1.28-1.31A3.7,3.7,0,0,1,45.24,29,3.58,3.58,0,0,1,47.57,29.72Z"/><path d="M56.82,29.06v7.35H55.6V34.68a2.43,2.43,0,0,1-1,1.37,2.93,2.93,0,0,1-1.67.48,2.74,2.74,0,0,1-2.06-.83,3.28,3.28,0,0,1-.79-2.36V29.06h1.22v4.16a2.42,2.42,0,0,0,.56,1.7,2,2,0,0,0,1.53.59,2.08,2.08,0,0,0,1.6-.65A2.68,2.68,0,0,0,55.6,33V29.06Z"/><path d="M64.71,29.77a3.26,3.26,0,0,1,.79,2.37v4.27H64.28V32.25a2.33,2.33,0,0,0-.56-1.69A2,2,0,0,0,62.2,30a2.1,2.1,0,0,0-1.61.65,2.71,2.71,0,0,0-.6,1.89v3.9H58.77V29.06H60V30.8a2.51,2.51,0,0,1,1-1.37,2.79,2.79,0,0,1,1.65-.49A2.73,2.73,0,0,1,64.71,29.77Z"/><path d="M72.19,29.51a2.75,2.75,0,0,1,1,1.43V26.51h1.22v9.9H73.23V34.53a2.75,2.75,0,0,1-1,1.43,3,3,0,0,1-1.81.54,3.37,3.37,0,0,1-1.74-.45,3.15,3.15,0,0,1-1.19-1.31,4.31,4.31,0,0,1-.44-2,4.37,4.37,0,0,1,.44-2,3.09,3.09,0,0,1,1.19-1.31A3.28,3.28,0,0,1,70.38,29,3,3,0,0,1,72.19,29.51Zm-3.26,1.26a3.19,3.19,0,0,0,0,3.94,2.35,2.35,0,0,0,1.8.72A2.53,2.53,0,0,0,72,35.1a2.4,2.4,0,0,0,.89-1,3,3,0,0,0,.32-1.41,3.09,3.09,0,0,0-.32-1.42,2.31,2.31,0,0,0-.89-.94,2.53,2.53,0,0,0-1.29-.33A2.35,2.35,0,0,0,68.93,30.77Z"/><path d="M83.09,33H77.21a2.59,2.59,0,0,0,.72,1.88,2.33,2.33,0,0,0,1.65.63,2.39,2.39,0,0,0,1.48-.45,1.85,1.85,0,0,0,.73-1.19h1.3a3.09,3.09,0,0,1-.6,1.36,3.21,3.21,0,0,1-1.2.94,4,4,0,0,1-1.65.33,3.84,3.84,0,0,1-1.88-.45,3.21,3.21,0,0,1-1.27-1.31,4.08,4.08,0,0,1-.47-2,4.13,4.13,0,0,1,.47-2,3.15,3.15,0,0,1,1.27-1.31A3.74,3.74,0,0,1,79.64,29a3.62,3.62,0,0,1,1.86.46,3.09,3.09,0,0,1,1.22,1.21,3.44,3.44,0,0,1,.42,1.69A4.27,4.27,0,0,1,83.09,33Zm-1.45-2a2,2,0,0,0-.84-.81A2.57,2.57,0,0,0,79.64,30a2.43,2.43,0,0,0-1.69.62,2.57,2.57,0,0,0-.74,1.83h4.7A2.44,2.44,0,0,0,81.64,31Z"/><path d="M85.63,35v1.43H84.16V35Z"/></g></g></svg>