<svg xmlns="http://www.w3.org/2000/svg" width="61.94" height="61.94" viewBox="0 0 61.94 61.94"><defs><style>.cls-1{fill:#f90000;}.cls-2{fill:#f70000;}</style></defs><g id="Layer_2" data-name="Layer 2"><g id="Layer_1-2" data-name="Layer 1"><path class="cls-1" d="M14.4,20.43l2.09-6.35,7,1.12L23,17.75l-6.57-1.06-1,3a3,3,0,0,1,.76-.34,5,5,0,0,1,.9-.17,7.23,7.23,0,0,1,.93,0,7.44,7.44,0,0,1,.85.08,6.65,6.65,0,0,1,1.79.56,5.33,5.33,0,0,1,1.5,1,4.17,4.17,0,0,1,.95,1.49,3.55,3.55,0,0,1,.14,1.88,4.21,4.21,0,0,1-.73,1.8,5.1,5.1,0,0,1-1.38,1.32,5.46,5.46,0,0,1-1.82.72,5.59,5.59,0,0,1-2,0,9.77,9.77,0,0,1-1.53-.41,6.07,6.07,0,0,1-1.49-.79,3.81,3.81,0,0,1-1.05-1.18A2.42,2.42,0,0,1,13,24.09l2.8.45a2.9,2.9,0,0,0,0,.93,2.6,2.6,0,0,0,.3.89,2.27,2.27,0,0,0,.58.69,1.74,1.74,0,0,0,.82.36,1.78,1.78,0,0,0,1.31-.22,3,3,0,0,0,.89-.91A4.73,4.73,0,0,0,20.23,25a10.83,10.83,0,0,0,.28-1.22,2.86,2.86,0,0,0-.09-1.38,2.89,2.89,0,0,0-.65-1.06,3.51,3.51,0,0,0-1.06-.75,5,5,0,0,0-1.31-.41,4.76,4.76,0,0,0-1.35,0,5.4,5.4,0,0,0-1.32.35Z"/><path class="cls-1" d="M24.61,22.31a11.87,11.87,0,0,1,.67-2.41,7,7,0,0,1,1.27-2.08,5.09,5.09,0,0,1,1.94-1.34,5,5,0,0,1,2.68-.2,4.84,4.84,0,0,1,3.91,2.92,6.86,6.86,0,0,1,.55,2.38,12.09,12.09,0,0,1-.13,2.49,11.2,11.2,0,0,1-.67,2.41,6.46,6.46,0,0,1-1.26,2,4.88,4.88,0,0,1-1.92,1.28,5.26,5.26,0,0,1-2.69.17,5.2,5.2,0,0,1-2.48-1,4.85,4.85,0,0,1-1.43-1.82,6.43,6.43,0,0,1-.56-2.31A11.56,11.56,0,0,1,24.61,22.31Zm2.7.44c-.08.5-.14,1.1-.19,1.8a9.79,9.79,0,0,0,.06,2,4.76,4.76,0,0,0,.58,1.74,1.9,1.9,0,0,0,2.86.46,5,5,0,0,0,1.09-1.46,9.36,9.36,0,0,0,.71-1.92c.17-.67.3-1.26.38-1.76q.09-.51.15-1.17A12.19,12.19,0,0,0,33,21.1a13.37,13.37,0,0,0-.08-1.42,4.9,4.9,0,0,0-.3-1.28,3,3,0,0,0-.6-1,1.68,1.68,0,0,0-1-.5,1.76,1.76,0,0,0-1.54.48A5,5,0,0,0,28.42,19a10.68,10.68,0,0,0-.72,2Q27.43,22,27.31,22.75Z"/><path class="cls-1" d="M37.14,20.34a3,3,0,0,1,.49-1.27,2.87,2.87,0,0,1,.91-.86,3.65,3.65,0,0,1,1.28-.43,5.22,5.22,0,0,1,1.57,0,5.14,5.14,0,0,1,1.51.46,3.65,3.65,0,0,1,1.09.81,2.87,2.87,0,0,1,.61,1.11,3.37,3.37,0,0,1,.06,1.35,3,3,0,0,1-.49,1.27,2.83,2.83,0,0,1-.92.87,3.46,3.46,0,0,1-1.29.44,5.29,5.29,0,0,1-1.58,0,5.17,5.17,0,0,1-1.5-.46,3.51,3.51,0,0,1-1.09-.82,2.83,2.83,0,0,1-.6-1.12A3.19,3.19,0,0,1,37.14,20.34Zm1.42,11-1.23-.2,12.3-11.66,1.18.19Zm.7-10.62a7.25,7.25,0,0,0-.08.74,3.44,3.44,0,0,0,0,1,2.08,2.08,0,0,0,.35.87,1.24,1.24,0,0,0,.86.49,1.22,1.22,0,0,0,1-.19,2.16,2.16,0,0,0,.62-.72,3.78,3.78,0,0,0,.34-.9c.08-.3.13-.55.16-.72s0-.42.08-.74a3.8,3.8,0,0,0,0-.95,2.09,2.09,0,0,0-.35-.86,1.44,1.44,0,0,0-1.84-.3,2.2,2.2,0,0,0-.61.71,3.21,3.21,0,0,0-.34.89C39.34,20.27,39.29,20.51,39.26,20.68Zm4.39,8.4a2.83,2.83,0,0,1,.49-1.22,2.77,2.77,0,0,1,.93-.8,4,4,0,0,1,1.28-.37,5.61,5.61,0,0,1,1.52.06,5.48,5.48,0,0,1,1.47.43,3.74,3.74,0,0,1,1.11.75,2.77,2.77,0,0,1-.71,4.39,4,4,0,0,1-1.29.38,5.68,5.68,0,0,1-1.53-.05,5.41,5.41,0,0,1-1.46-.44,3.84,3.84,0,0,1-1.1-.76,2.67,2.67,0,0,1-.63-1.06A2.7,2.7,0,0,1,43.65,29.08Zm2.12.35a6.92,6.92,0,0,0-.08.7,3,3,0,0,0,.07.9,2,2,0,0,0,.38.81,1.24,1.24,0,0,0,.84.45,1.27,1.27,0,0,0,1-.16,2,2,0,0,0,.6-.65,3.72,3.72,0,0,0,.34-.83c.07-.29.12-.52.15-.7s0-.41.07-.7a3.29,3.29,0,0,0-.06-.88,2,2,0,0,0-.36-.81,1.36,1.36,0,0,0-.86-.46,1.26,1.26,0,0,0-.94.17,2,2,0,0,0-.62.65,2.79,2.79,0,0,0-.34.82Q45.82,29.16,45.77,29.43Z"/><path class="cls-1" d="M11.38,38.22a7.35,7.35,0,0,1,1-2.76,6.81,6.81,0,0,1,1.87-2,7.05,7.05,0,0,1,2.51-1.12,7.47,7.47,0,0,1,2.95-.07,7.34,7.34,0,0,1,2.76,1,6.79,6.79,0,0,1,3.16,4.35,7.23,7.23,0,0,1,.09,2.94,7.31,7.31,0,0,1-1,2.75,6.89,6.89,0,0,1-1.86,2,7,7,0,0,1-2.52,1.13,7.52,7.52,0,0,1-2.92.07,7.63,7.63,0,0,1-2.77-1,7.1,7.1,0,0,1-2-1.86,7.22,7.22,0,0,1-1.15-2.5A7.36,7.36,0,0,1,11.38,38.22Zm3.29,2.17a10.61,10.61,0,0,0,.76,2.06,7.64,7.64,0,0,0,1,1.62,5.38,5.38,0,0,0,1.24,1.12,3.38,3.38,0,0,0,1.34.54,3.08,3.08,0,0,0,1.17,0,2.75,2.75,0,0,0,1.41-.88,4.37,4.37,0,0,0,.88-1.64A7.15,7.15,0,0,0,22.8,41a10.65,10.65,0,0,0-.37-2.6,10.86,10.86,0,0,0-.76-2.06,7.86,7.86,0,0,0-1-1.63,5.53,5.53,0,0,0-1.23-1.12A3.27,3.27,0,0,0,18.06,33a2.79,2.79,0,0,0-2.59.94,4.47,4.47,0,0,0-.89,1.64,7.55,7.55,0,0,0-.28,2.21A10.12,10.12,0,0,0,14.67,40.39Z"/><path class="cls-1" d="M27.08,47.87,29.32,34l9.13,1.48L38,38.37a11.78,11.78,0,0,0-.62-1.15,3.36,3.36,0,0,0-1.69-1.36,7.27,7.27,0,0,0-1.36-.34L32,35.17a.62.62,0,0,0-.24.35,3.43,3.43,0,0,0-.09.44l-.8,4.92,1.56.25a3,3,0,0,0,1.13-.07,2.23,2.23,0,0,0,1.1-.59l.18,0-.51,3.12-.09,0a8.63,8.63,0,0,0-.6-.89,5.15,5.15,0,0,0-.61-.63,1.35,1.35,0,0,0-.69-.37l-1.56-.25-1.11,6.83Z"/><path class="cls-1" d="M38.36,49.69,40.6,35.83l9.13,1.48-.46,2.89a10.72,10.72,0,0,0-.62-1.15,3.34,3.34,0,0,0-.72-.82,3.5,3.5,0,0,0-1-.55,7.27,7.27,0,0,0-1.36-.34L43.32,37a.64.64,0,0,0-.24.36,3.29,3.29,0,0,0-.09.43l-.8,4.92,1.57.25a3,3,0,0,0,1.12-.07A2.22,2.22,0,0,0,46,42.29l.17,0-.5,3.12h-.1a7.82,7.82,0,0,0-.6-.9,5.15,5.15,0,0,0-.61-.63,1.4,1.4,0,0,0-.69-.36l-1.56-.25L41,50.12Z"/><path class="cls-2" d="M31,61.94a31.33,31.33,0,0,1-5-.4A31,31,0,0,1,.4,26,31,31,0,0,1,56.08,12.85a31,31,0,0,1-7,43.23A30.7,30.7,0,0,1,31,61.94ZM31,.8a30.19,30.19,0,1,0,4.84.39A29.51,29.51,0,0,0,31,.8Z"/></g></g></svg>