<svg width="72" height="22" viewBox="0 0 72 22" fill="none" xmlns="http://www.w3.org/2000/svg">
<path d="M69.0119 22C70.6622 22 72 20.6348 72 18.9508C72 17.2668 70.6622 15.9016 69.0119 15.9016C67.3617 15.9016 66.0239 17.2668 66.0239 18.9508C66.0239 20.6348 67.3617 22 69.0119 22Z" fill="#BE5272"/>
<path d="M66.0239 10.6414H63.4756C61.835 10.6414 60.9568 11.8969 60.9568 13.9891V21.5519H56.1234V10.6414H54.0731C52.4325 10.6414 51.5543 11.8969 51.5543 13.9891V21.5519H46.7208V6.60587H51.5543V8.87773C52.3455 7.11407 53.4292 6.60587 55.0404 6.60587H60.9576V8.87773C61.7488 7.11407 62.8325 6.60587 64.4436 6.60587H66.0253V10.6414H66.0239ZM45.6659 15.2445H35.5893C35.853 16.9187 36.8778 17.875 38.6061 17.875C39.8946 17.875 40.8029 17.3367 41.0961 16.3805L45.3727 17.6059C44.3185 20.2063 41.7113 21.791 38.6061 21.791C33.363 21.791 30.9606 17.6359 30.9606 14.0793C30.9606 10.582 33.0698 6.39687 38.3129 6.39687C43.8787 6.39687 45.7241 10.6414 45.7241 13.7801C45.7248 14.4672 45.6954 14.916 45.6659 15.2445ZM40.979 12.3449C40.8619 11.0594 39.9535 9.86407 38.3136 9.86407C36.7901 9.86407 35.8825 10.5512 35.5893 12.3449H40.979ZM22.5254 21.5519H26.7725L32.0745 6.6066H27.2123L24.6345 15.3047L21.9979 6.60587H17.1644L22.5254 21.5519ZM2.72432 21.5519H7.52834V10.6414H12.0981V21.5519H16.8727V6.60587H7.52834V5.67967C7.52834 4.66327 8.23116 4.03553 9.34431 4.03553H12.0981V0H8.55382C5.06776 0 2.72432 2.1824 2.72432 5.38047V6.60587H0V10.6414H2.72432V21.5519Z" fill="#421300"/>
</svg>
