<svg xmlns="http://www.w3.org/2000/svg" viewBox="0 0 162 24.22"><defs><style>.cls-1{fill:#fff;}.cls-2{fill:#40423f;}</style></defs><g id="Layer_2" data-name="Layer 2"><g id="Layer_1-2" data-name="Layer 1"><rect class="cls-1" width="162" height="24.22" rx="3.6"/><path class="cls-2" d="M15.09,18.75H12.44v-13s0-.1,0-.14a.57.57,0,0,1,0-.14,9.65,9.65,0,0,0-1.64.13,3.48,3.48,0,0,0-1.24.47,3.86,3.86,0,0,0-1,.92,9.42,9.42,0,0,0-.89,1.51V4.82h12V8.55a15.89,15.89,0,0,0-.89-1.4,4.51,4.51,0,0,0-.92-.93,3.22,3.22,0,0,0-1.12-.53,7,7,0,0,0-1.55-.19.35.35,0,0,0-.07.15v13.1Z"/><path class="cls-2" d="M24.41,18.75H21.76V6.39a1.89,1.89,0,0,0-.07-.6.61.61,0,0,0-.22-.31.9.9,0,0,0-.39-.12l-.58-.07V5l3.91-.39v6.56a4,4,0,0,1,.63-.76,5.13,5.13,0,0,1,.81-.65,4.73,4.73,0,0,1,.93-.46,2.8,2.8,0,0,1,1-.18,2.53,2.53,0,0,1,2,.78A3.1,3.1,0,0,1,30.43,12v6.77H27.78V12.2a1.67,1.67,0,0,0-.31-1.08,1.21,1.21,0,0,0-1-.4,2.6,2.6,0,0,0-1.1.26,3,3,0,0,0-.94.65Z"/><path class="cls-2" d="M36.3,16.26a3.81,3.81,0,0,0,1.13.7,3.33,3.33,0,0,0,1.28.26,2.63,2.63,0,0,0,1.65-.5,3.37,3.37,0,0,0,1-1.42l.16.11A5.26,5.26,0,0,1,40.13,18a3.78,3.78,0,0,1-2.67.93,5.43,5.43,0,0,1-3-.95,4.89,4.89,0,0,1-1.15-1.12,4.4,4.4,0,0,1-.71-1.46,6.07,6.07,0,0,1-.19-2.53,4.32,4.32,0,0,1,.74-1.92,4.09,4.09,0,0,1,1.41-1.24,4.53,4.53,0,0,1,1.79-.5h.41a4.87,4.87,0,0,1,1.8.31,3.78,3.78,0,0,1,1.28.83,4.06,4.06,0,0,1,.84,1.24,6.15,6.15,0,0,1,.42,1.53ZM36,15.94a5.72,5.72,0,0,0,1.65-1.47,3.83,3.83,0,0,0,.7-1.57,3.17,3.17,0,0,0,0-1.15,3,3,0,0,0-.38-1,2.4,2.4,0,0,0-.67-.71,1.43,1.43,0,0,0-.86-.28h-.1a2.3,2.3,0,0,0-.89.23,1.64,1.64,0,0,0-.7.66,2.46,2.46,0,0,0-.31,1.18,6.15,6.15,0,0,0,.25,1.84,4.69,4.69,0,0,0,.5,1.21A4.77,4.77,0,0,0,36,15.94Z"/><path class="cls-2" d="M46.68,18.75V4.82h2.65V17.24a4.09,4.09,0,0,0,0,.47.63.63,0,0,0,.19.41h1.53a5.06,5.06,0,0,0,2.73-.65,5,5,0,0,0,1.7-2.09v3.37Z"/><path class="cls-2" d="M61.89,19a5.23,5.23,0,0,1-2-.37,4.64,4.64,0,0,1-1.6-1A4.72,4.72,0,0,1,57.22,16a4.93,4.93,0,0,1-.39-2,5,5,0,0,1,.39-2,4.72,4.72,0,0,1,1.07-1.55,4.62,4.62,0,0,1,1.6-1,5.74,5.74,0,0,1,4,0,4.62,4.62,0,0,1,1.6,1A4.72,4.72,0,0,1,66.56,12a5,5,0,0,1,.4,2,4.93,4.93,0,0,1-.4,2,4.72,4.72,0,0,1-1.07,1.55,4.64,4.64,0,0,1-1.6,1A5.23,5.23,0,0,1,61.89,19Zm1-.75a1.58,1.58,0,0,0,1-.75,3.55,3.55,0,0,0,.43-1.31,6,6,0,0,0,0-1.47,7.24,7.24,0,0,0-.2-1.26,10.57,10.57,0,0,0-.36-1.19A5.76,5.76,0,0,0,63.31,11a3,3,0,0,0-.79-.91,1.84,1.84,0,0,0-1.12-.35,2.59,2.59,0,0,0-.63.08,1.6,1.6,0,0,0-1,.75,3.58,3.58,0,0,0-.44,1.29,6.58,6.58,0,0,0,0,1.47,8.22,8.22,0,0,0,.21,1.26,7.66,7.66,0,0,0,.38,1.1,6.87,6.87,0,0,0,.65,1.19,4.21,4.21,0,0,0,.88.95,1.73,1.73,0,0,0,1.09.39A1.44,1.44,0,0,0,62.93,18.2Z"/><path class="cls-2" d="M72.59,18.75H71.41L67,9.33h3a2.89,2.89,0,0,0,.18.6c.13.33.28.74.47,1.21l.62,1.53c.22.55.44,1.07.65,1.57s.39.93.56,1.3.27.63.32.76a10.78,10.78,0,0,0,.93-2.64,6.92,6.92,0,0,0,.13-2.07,3.35,3.35,0,0,0-.45-1.46,2.23,2.23,0,0,0-.82-.8h4a2.58,2.58,0,0,0,.19.6c.12.33.28.74.47,1.21l.61,1.53.65,1.57.56,1.3c.17.37.27.63.33.76a10.78,10.78,0,0,0,.93-2.64,7.27,7.27,0,0,0,.13-2.07,3.49,3.49,0,0,0-.46-1.46,2.15,2.15,0,0,0-.82-.8h4v.2l-4.06,9.22H78l-2.76-6Z"/><path class="cls-2" d="M87.44,16.26a3.81,3.81,0,0,0,1.13.7,3.34,3.34,0,0,0,1.29.26,2.68,2.68,0,0,0,1.65-.5,3.55,3.55,0,0,0,1-1.42l.15.11A5.18,5.18,0,0,1,91.27,18a3.78,3.78,0,0,1-2.67.93A5.08,5.08,0,0,1,87,18.64a5.34,5.34,0,0,1-1.44-.7,5.09,5.09,0,0,1-1.15-1.12,4.4,4.4,0,0,1-.71-1.46,6.24,6.24,0,0,1-.19-2.53,4.44,4.44,0,0,1,.74-1.92,4,4,0,0,1,1.42-1.24,4.48,4.48,0,0,1,1.78-.5h.42a4.82,4.82,0,0,1,1.79.31,3.92,3.92,0,0,1,1.29.83,4,4,0,0,1,.83,1.24,6.15,6.15,0,0,1,.42,1.53Zm-.35-.32a5.72,5.72,0,0,0,1.65-1.47,3.7,3.7,0,0,0,.7-1.57,3,3,0,0,0,0-1.15,2.81,2.81,0,0,0-.38-1,2.28,2.28,0,0,0-.67-.71,1.41,1.41,0,0,0-.86-.28h-.1a2.3,2.3,0,0,0-.89.23,1.7,1.7,0,0,0-.7.66,2.58,2.58,0,0,0-.31,1.18,6.15,6.15,0,0,0,.25,1.84,5.23,5.23,0,0,0,1.32,2.27Z"/><path class="cls-2" d="M99.59,12.51q-.14-.47-.27-1a3.79,3.79,0,0,0-.39-.94,2.12,2.12,0,0,0-.63-.7,1.76,1.76,0,0,0-1-.26,1.39,1.39,0,0,0-.91.35,1.18,1.18,0,0,0-.29.4,1,1,0,0,0,0,.57,1.3,1.3,0,0,0,.53.82,6.08,6.08,0,0,0,1.08.68l1.34.67a7.29,7.29,0,0,1,1.32.81,4.54,4.54,0,0,1,1,1.1,2.77,2.77,0,0,1,.4,1.53,1.55,1.55,0,0,1-.33.95,2.94,2.94,0,0,1-.89.77,4.48,4.48,0,0,1-1.26.5,6.16,6.16,0,0,1-1.5.18,6.92,6.92,0,0,1-2.52-.47,4.13,4.13,0,0,1-1.94-1.63l1.55-1.71a7.11,7.11,0,0,0,.36,1,5,5,0,0,0,.59,1,3.42,3.42,0,0,0,.85.81,1.83,1.83,0,0,0,1.07.33,1.77,1.77,0,0,0,1.23-.4,1.15,1.15,0,0,0,.36-1,1.36,1.36,0,0,0-.49-.9,5.93,5.93,0,0,0-1-.68c-.4-.22-.83-.43-1.29-.64A8.21,8.21,0,0,1,95.16,14a3.83,3.83,0,0,1-1-.94,2.27,2.27,0,0,1-.38-1.33,2.27,2.27,0,0,1,.33-1.28,2.67,2.67,0,0,1,.87-.8,3.69,3.69,0,0,1,1.2-.4,8.52,8.52,0,0,1,1.33-.11,5.36,5.36,0,0,1,1.1.12,4.37,4.37,0,0,1,1.1.39,4.75,4.75,0,0,1,1,.71,3.46,3.46,0,0,1,.77,1.08Z"/><path class="cls-2" d="M108.91,17.44a3.65,3.65,0,0,1-1.21,1.09,2.88,2.88,0,0,1-1.38.38,2.24,2.24,0,0,1-1.12-.27,2.43,2.43,0,0,1-.78-.68,3,3,0,0,1-.47-1,3.86,3.86,0,0,1-.16-1.13V10.76a1,1,0,0,0-1.18-1.17h-.27v-.2l3.9-2.81h.2V9.33h2.32v.53h-2.32v6c0,.17,0,.37,0,.59a2.43,2.43,0,0,0,.14.66,1.33,1.33,0,0,0,.31.53.72.72,0,0,0,.56.22,2.45,2.45,0,0,0,1.32-.59Z"/><path class="cls-2" d="M123.57,9.33a3.83,3.83,0,0,0,0-1.35,3.32,3.32,0,0,0-.5-1.3,3.22,3.22,0,0,0-1-1,3,3,0,0,0-1.54-.44h-.14a3.72,3.72,0,0,0-1.47.3,3.41,3.41,0,0,0-1.24,1,5.16,5.16,0,0,0-.88,1.65,7.73,7.73,0,0,0-.33,2.4,8.34,8.34,0,0,0,.33,2.32,6.67,6.67,0,0,0,1,2.06,5.31,5.31,0,0,0,1.64,1.49,4.51,4.51,0,0,0,2.3.56,4.81,4.81,0,0,0,4.77-3.23l.33.15a7.46,7.46,0,0,1-.86,2,6.39,6.39,0,0,1-1.37,1.59,5.77,5.77,0,0,1-1.8,1,6.26,6.26,0,0,1-2.19.38,7.28,7.28,0,0,1-2.85-.56,7.16,7.16,0,0,1-2.26-1.53,7,7,0,0,1-1.5-2.3,7.26,7.26,0,0,1-.55-2.84A7.78,7.78,0,0,1,114,8.46a6.17,6.17,0,0,1,1.6-2.2A6.36,6.36,0,0,1,117.92,5a9,9,0,0,1,2.63-.39,10.69,10.69,0,0,1,2,.19,6.32,6.32,0,0,1,2,.7A5.08,5.08,0,0,1,126.07,7a4.73,4.73,0,0,1,.8,2.37Z"/><path class="cls-2" d="M133,19a5.27,5.27,0,0,1-2-.37A4.71,4.71,0,0,1,128.32,16a4.93,4.93,0,0,1-.39-2,5,5,0,0,1,.39-2A4.65,4.65,0,0,1,131,9.49a5.74,5.74,0,0,1,4,0A4.65,4.65,0,0,1,137.66,12a5,5,0,0,1,.4,2,4.93,4.93,0,0,1-.4,2,4.58,4.58,0,0,1-1.07,1.55,4.64,4.64,0,0,1-1.6,1A5.23,5.23,0,0,1,133,19Zm1-.75a1.58,1.58,0,0,0,1-.75,3.56,3.56,0,0,0,.44-1.31,6.55,6.55,0,0,0,0-1.47,7.24,7.24,0,0,0-.2-1.26c-.09-.38-.21-.78-.35-1.19a7.07,7.07,0,0,0-.54-1.18,3.22,3.22,0,0,0-.8-.91,1.84,1.84,0,0,0-1.12-.35,2.59,2.59,0,0,0-.63.08,1.62,1.62,0,0,0-1,.75,3.58,3.58,0,0,0-.44,1.29,6.58,6.58,0,0,0,0,1.47,8.22,8.22,0,0,0,.21,1.26,7.66,7.66,0,0,0,.38,1.1,6.87,6.87,0,0,0,.65,1.19,4.21,4.21,0,0,0,.88.95,1.76,1.76,0,0,0,1.09.39A1.44,1.44,0,0,0,134,18.2Z"/><path class="cls-2" d="M145.53,12.51q-.14-.47-.27-1a3.77,3.77,0,0,0-.38-.94,2.26,2.26,0,0,0-.64-.7,1.73,1.73,0,0,0-1-.26,1.36,1.36,0,0,0-.48.09,1.24,1.24,0,0,0-.43.26,1.08,1.08,0,0,0-.3.4,1,1,0,0,0-.05.57,1.3,1.3,0,0,0,.53.82,6.08,6.08,0,0,0,1.08.68c.42.22.87.44,1.35.67a7.56,7.56,0,0,1,1.31.81,4.54,4.54,0,0,1,1,1.1,2.77,2.77,0,0,1,.4,1.53,1.55,1.55,0,0,1-.33.95,3,3,0,0,1-.88.77,4.68,4.68,0,0,1-1.27.5,6.16,6.16,0,0,1-1.5.18,6.86,6.86,0,0,1-2.51-.47,4.1,4.1,0,0,1-2-1.63l1.55-1.71a7.11,7.11,0,0,0,.36,1,5,5,0,0,0,.6,1,3.22,3.22,0,0,0,.84.81,1.85,1.85,0,0,0,1.07.33,1.79,1.79,0,0,0,1.24-.4,1.17,1.17,0,0,0,.35-1,1.32,1.32,0,0,0-.49-.9,5.93,5.93,0,0,0-1-.68c-.4-.22-.83-.43-1.29-.64A8.7,8.7,0,0,1,141.1,14a3.78,3.78,0,0,1-1-.94,2.2,2.2,0,0,1-.39-1.33,2.2,2.2,0,0,1,.34-1.28,2.54,2.54,0,0,1,.86-.8,3.69,3.69,0,0,1,1.2-.4,8.52,8.52,0,0,1,1.33-.11,5.29,5.29,0,0,1,1.1.12,4.37,4.37,0,0,1,1.1.39,4.75,4.75,0,0,1,1,.71,3.66,3.66,0,0,1,.78,1.08Z"/><path class="cls-2" d="M154.86,17.44a3.67,3.67,0,0,1-1.22,1.09,2.88,2.88,0,0,1-1.38.38,2.17,2.17,0,0,1-1.11-.27,2.36,2.36,0,0,1-.79-.68,3,3,0,0,1-.47-1,4.23,4.23,0,0,1-.16-1.13V10.76a1,1,0,0,0-1.17-1.17h-.28v-.2l3.91-2.81h.19V9.33h2.32v.53h-2.32v6c0,.17,0,.37,0,.59a2.87,2.87,0,0,0,.14.66,1.46,1.46,0,0,0,.31.53.73.73,0,0,0,.56.22,2.42,2.42,0,0,0,1.32-.59Z"/></g></g></svg>