<svg xmlns="http://www.w3.org/2000/svg" viewBox="0 0 336 21.28"><defs><style>.cls-1{fill:#40423f;}.cls-2{fill:#f5f4f0;}</style></defs><g id="Layer_2" data-name="Layer 2"><g id="Layer_1-2" data-name="Layer 1"><rect class="cls-1" width="336" height="21.28"/><path class="cls-2" d="M98.81,15.44h-.69L95.56,9.92h1.78a1.83,1.83,0,0,0,.11.35c.07.2.16.43.28.71l.36.89c.13.33.25.63.38.92l.32.77c.1.22.16.36.19.44a6.19,6.19,0,0,0,.55-1.55,4,4,0,0,0,.07-1.21,1.89,1.89,0,0,0-.26-.85,1.26,1.26,0,0,0-.48-.47h2.33a1.83,1.83,0,0,0,.11.35c.07.2.16.43.27.71l.37.89.37.92c.13.29.24.55.33.77s.16.36.19.44a6.19,6.19,0,0,0,.55-1.55,4,4,0,0,0,.07-1.21,2,2,0,0,0-.26-.85,1.26,1.26,0,0,0-.48-.47H105V10l-2.38,5.4H102l-1.62-3.5Z"/><path class="cls-2" d="M108.46,15.44h-.69l-2.56-5.52H107a1.83,1.83,0,0,0,.11.35c.07.2.16.43.28.71l.36.89c.13.33.25.63.38.92l.32.77c.1.22.16.36.19.44a6.19,6.19,0,0,0,.55-1.55,4,4,0,0,0,.07-1.21,1.89,1.89,0,0,0-.26-.85,1.26,1.26,0,0,0-.48-.47h2.33a1.83,1.83,0,0,0,.11.35c.07.2.16.43.27.71s.24.57.37.89.25.63.38.92l.32.77c.1.22.16.36.19.44a6.19,6.19,0,0,0,.55-1.55,4,4,0,0,0,.07-1.21,2,2,0,0,0-.26-.85,1.26,1.26,0,0,0-.48-.47h2.33V10l-2.38,5.4h-.69L110,11.94Z"/><path class="cls-2" d="M118.11,15.44h-.69l-2.56-5.52h1.78a1.83,1.83,0,0,0,.11.35c.07.2.17.43.28.71l.36.89c.13.33.25.63.38.92l.32.77c.1.22.16.36.19.44a6.19,6.19,0,0,0,.55-1.55,4,4,0,0,0,.07-1.21,1.89,1.89,0,0,0-.26-.85,1.26,1.26,0,0,0-.48-.47h2.33a1.83,1.83,0,0,0,.11.35c.07.2.16.43.28.71l.36.89c.13.33.25.63.38.92l.32.77c.1.22.16.36.19.44a6.19,6.19,0,0,0,.55-1.55,4,4,0,0,0,.07-1.21,1.89,1.89,0,0,0-.26-.85,1.26,1.26,0,0,0-.48-.47h2.33V10L122,15.44h-.69l-1.62-3.5Z"/><path class="cls-2" d="M125.1,14.68a.76.76,0,0,1,.24-.57.78.78,0,0,1,.57-.24.82.82,0,0,1,.81.81.81.81,0,0,1-1.62,0Z"/><path class="cls-2" d="M128.77,15.44v-5.2h-.92V9.92h.92v-1a1.73,1.73,0,0,1,.16-.78,1.56,1.56,0,0,1,.42-.56,1.77,1.77,0,0,1,.64-.33,2.88,2.88,0,0,1,.78-.11,4.28,4.28,0,0,1,.6.05,2,2,0,0,1,.6.21,1.29,1.29,0,0,1,.48.45,1.53,1.53,0,0,1,.22.77L131.4,9a2.47,2.47,0,0,0-.08-1.16.6.6,0,0,0-.62-.45.69.69,0,0,0-.59.26,1,1,0,0,0-.2.64,2,2,0,0,0,.05.42l.12.42.15.41a3.57,3.57,0,0,1,.14.38h1.81v.31h-1.82v5.21Z"/><path class="cls-2" d="M132.82,11.15a4.19,4.19,0,0,1,.44-.56,2.58,2.58,0,0,1,.55-.42,3.19,3.19,0,0,1,.7-.27,4.25,4.25,0,0,1,1.74,0,2.31,2.31,0,0,1,.72.29,1.53,1.53,0,0,1,.49.52,1.61,1.61,0,0,1,.18.78v3.95H136.1v-.66a4,4,0,0,1-.85.53,2.25,2.25,0,0,1-1,.23,2.13,2.13,0,0,1-.63-.09,1.58,1.58,0,0,1-.53-.28,1.19,1.19,0,0,1-.37-.48,1.6,1.6,0,0,1-.14-.69,1.3,1.3,0,0,1,.39-1,3.08,3.08,0,0,1,.94-.62,5.62,5.62,0,0,1,1.15-.33c.39-.07.73-.12,1-.14V11a1.84,1.84,0,0,0-.07-.43.72.72,0,0,0-.2-.31.63.63,0,0,0-.38-.14,1,1,0,0,0-.5.08,1.27,1.27,0,0,0-.43.31,1.75,1.75,0,0,0-.31.52,2.24,2.24,0,0,0-.16.72Zm3.28,1c-.16,0-.35.05-.58.1a2.11,2.11,0,0,0-.65.26,1.52,1.52,0,0,0-.51.5,1.46,1.46,0,0,0-.19.84,1.12,1.12,0,0,0,.28.72.84.84,0,0,0,.62.27,1.83,1.83,0,0,0,.5-.09,1.27,1.27,0,0,0,.53-.27Z"/><path class="cls-2" d="M139.21,8a.33.33,0,0,0-.18-.3,1.66,1.66,0,0,0-.33-.16V7.38l2.06-.23v3.57a2.45,2.45,0,0,1,.73-.66,1.84,1.84,0,0,1,.94-.25,2.13,2.13,0,0,1,1,.21,2,2,0,0,1,.7.59,3,3,0,0,1,.42.83,3.5,3.5,0,0,1,.14,1,3.27,3.27,0,0,1-.24,1.27,2.89,2.89,0,0,1-.67,1,3.21,3.21,0,0,1-1,.64,3.5,3.5,0,0,1-1.27.23c-.38,0-.75,0-1.13,0l-1.13-.08Zm2.26,7.3a1.1,1.1,0,0,0,.76-.27,1.93,1.93,0,0,0,.47-.67,3.72,3.72,0,0,0,.24-.84,6.35,6.35,0,0,0,.07-.8,6.38,6.38,0,0,0,0-.7,3.4,3.4,0,0,0-.19-.73,1.69,1.69,0,0,0-.39-.58,1,1,0,0,0-.67-.23,1.14,1.14,0,0,0-.54.14,1.13,1.13,0,0,0-.41.37V14.5a1,1,0,0,0,.15.58A.63.63,0,0,0,141.47,15.3Z"/><path class="cls-2" d="M146,15.44V10.77a1.08,1.08,0,0,0,0-.35.35.35,0,0,0-.13-.18.45.45,0,0,0-.23-.07l-.34,0V10l2.29-.23V11a3.46,3.46,0,0,1,.37-.44,3.8,3.8,0,0,1,.49-.41,3,3,0,0,1,.56-.3,1.76,1.76,0,0,1,.59-.11,1.38,1.38,0,0,1,.67.18l-.35,1.8c-.37-.62-.79-.94-1.26-.94a1.47,1.47,0,0,0-1.07.58v4.08Z"/><path class="cls-2" d="M151.33,15.44V11a1.35,1.35,0,0,0-.05-.4.38.38,0,0,0-.14-.2.43.43,0,0,0-.23-.09l-.32,0v-.16l2.29-.18v5.48ZM152,9.11a1,1,0,0,1-.72-.29,1.05,1.05,0,0,1,0-1.43,1,1,0,0,1,.72-.28,1,1,0,0,1,.72.28,1.05,1.05,0,0,1,0,1.43A1,1,0,0,1,152,9.11Z"/><path class="cls-2" d="M158.08,12.34a5.61,5.61,0,0,0,0-.82,2.89,2.89,0,0,0-.14-.7,1.57,1.57,0,0,0-.3-.49.66.66,0,0,0-.47-.18,1.21,1.21,0,0,0-.69.19,1.79,1.79,0,0,0-.47.48,2.35,2.35,0,0,0-.27.65,3.4,3.4,0,0,0-.08.69,2.58,2.58,0,0,0,.16.89,2.93,2.93,0,0,0,.46.83,2.49,2.49,0,0,0,.72.61,1.92,1.92,0,0,0,.94.23,3.13,3.13,0,0,0,.86-.12,1.25,1.25,0,0,0,.69-.47l.1.06a2.26,2.26,0,0,1-.46.57,3.2,3.2,0,0,1-.61.43,3,3,0,0,1-2.53.15,3.17,3.17,0,0,1-.93-.58,3,3,0,0,1-.63-.87,2.57,2.57,0,0,1-.23-1.07,3.26,3.26,0,0,1,.22-1.24,2.85,2.85,0,0,1,.62-.95A2.68,2.68,0,0,1,156,10a3.31,3.31,0,0,1,1.19-.21,2.84,2.84,0,0,1,1.61.39,2.08,2.08,0,0,1,.78,1Z"/><path class="cls-2" d="M160.68,11.28l.63-4h4.27V8.84h-4l-.31,1.87a1.45,1.45,0,0,1,.42-.27,2.92,2.92,0,0,1,.52-.19,3.82,3.82,0,0,1,.55-.11,5.13,5.13,0,0,1,.52,0,4,4,0,0,1,1.13.17,3,3,0,0,1,1,.48,2.48,2.48,0,0,1,.71.8,2.17,2.17,0,0,1,.27,1.11,2.58,2.58,0,0,1-.26,1.14,3,3,0,0,1-.7.92,3.08,3.08,0,0,1-1,.61,3.33,3.33,0,0,1-1.21.22,4.9,4.9,0,0,1-1-.1,3.5,3.5,0,0,1-1-.32,2.37,2.37,0,0,1-.75-.61,1.43,1.43,0,0,1-.3-.92h1.72a1.76,1.76,0,0,0,.09.55,1.58,1.58,0,0,0,.26.5,1.32,1.32,0,0,0,.42.36,1,1,0,0,0,.52.14,1.09,1.09,0,0,0,.76-.26,1.67,1.67,0,0,0,.44-.63,3.07,3.07,0,0,0,.21-.79,7.18,7.18,0,0,0,0-.76,1.73,1.73,0,0,0-.18-.81,1.86,1.86,0,0,0-.5-.58,2.07,2.07,0,0,0-.7-.34,2.86,2.86,0,0,0-.82-.12,2.88,2.88,0,0,0-.81.11,3.36,3.36,0,0,0-.76.34Z"/><path class="cls-2" d="M167.39,11.15a3.51,3.51,0,0,1,.44-.56,2.52,2.52,0,0,1,.54-.42,3.4,3.4,0,0,1,.7-.27,4.09,4.09,0,0,1,.9-.09,3.86,3.86,0,0,1,.84.09,2.13,2.13,0,0,1,.72.29,1.55,1.55,0,0,1,.5.52,1.61,1.61,0,0,1,.18.78v3.95h-1.54v-.66a4,4,0,0,1-.85.53,2.25,2.25,0,0,1-1,.23,2.2,2.2,0,0,1-.64-.09,1.63,1.63,0,0,1-.52-.28,1.19,1.19,0,0,1-.37-.48,1.6,1.6,0,0,1-.14-.69,1.3,1.3,0,0,1,.39-1,3.08,3.08,0,0,1,.94-.62,5.62,5.62,0,0,1,1.15-.33c.39-.07.73-.12,1-.14V11a1.84,1.84,0,0,0-.07-.43.83.83,0,0,0-.2-.31.69.69,0,0,0-.38-.14,1,1,0,0,0-.5.08,1.27,1.27,0,0,0-.43.31,1.75,1.75,0,0,0-.31.52,2.24,2.24,0,0,0-.16.72Zm3.28,1c-.16,0-.35.05-.58.1a2.11,2.11,0,0,0-.65.26,1.52,1.52,0,0,0-.51.5,1.46,1.46,0,0,0-.19.84,1.12,1.12,0,0,0,.28.72.84.84,0,0,0,.62.27,1.89,1.89,0,0,0,.5-.09,1.27,1.27,0,0,0,.53-.27Z"/><path class="cls-2" d="M175.62,15.44h-1.55V10.77a1.08,1.08,0,0,0,0-.35.34.34,0,0,0-.12-.18.52.52,0,0,0-.23-.07l-.34,0V10l2.28-.23V11a3.16,3.16,0,0,1,.39-.44,3.75,3.75,0,0,1,.51-.38,3.47,3.47,0,0,1,.59-.27,1.78,1.78,0,0,1,.59-.1,1.64,1.64,0,0,1,1.26.45,1.71,1.71,0,0,1,.42,1.21v4h-1.55V11.6a.93.93,0,0,0-.2-.63.84.84,0,0,0-.67-.23,1.86,1.86,0,0,0-.72.15,2.22,2.22,0,0,0-.62.37Z"/><path class="cls-2" d="M185.46,15a1.1,1.1,0,0,0-.52-.14,1.47,1.47,0,0,0-.81.32,2.86,2.86,0,0,1-.52.27,1.58,1.58,0,0,1-.56.1,1.91,1.91,0,0,1-1-.24,2.41,2.41,0,0,1-.72-.63,3.06,3.06,0,0,1-.45-.86,3.33,3.33,0,0,1-.15-1,3.24,3.24,0,0,1,.19-1.11,2.88,2.88,0,0,1,.54-1,2.82,2.82,0,0,1,.84-.69,2.42,2.42,0,0,1,1.78-.16,1.93,1.93,0,0,1,.61.3v-2a1,1,0,0,0,0-.34.28.28,0,0,0-.13-.17.52.52,0,0,0-.23-.08l-.33,0V7.38l2.28-.23v8.29Zm-.74-4.53a1.18,1.18,0,0,0-.41-.19,2.22,2.22,0,0,0-.45,0,1.16,1.16,0,0,0-.73.23,1.79,1.79,0,0,0-.49.57,2.73,2.73,0,0,0-.26.76,4.18,4.18,0,0,0-.08.76,4,4,0,0,0,.07.73,3.13,3.13,0,0,0,.24.75,1.69,1.69,0,0,0,.45.6,1.09,1.09,0,0,0,.7.23,1,1,0,0,0,.53-.17,1.93,1.93,0,0,0,.43-.35Z"/><path class="cls-2" d="M192.35,15a1.1,1.1,0,0,0-.52-.14,1.5,1.5,0,0,0-.81.32,2.57,2.57,0,0,1-.52.27,1.54,1.54,0,0,1-.56.1,2,2,0,0,1-1-.24,2.41,2.41,0,0,1-.72-.63,2.8,2.8,0,0,1-.44-.86,3,3,0,0,1-.16-1,3.24,3.24,0,0,1,.19-1.11,3.28,3.28,0,0,1,.54-1,3,3,0,0,1,.84-.69,2.27,2.27,0,0,1,1.11-.26,2.33,2.33,0,0,1,.68.1,1.88,1.88,0,0,1,.6.3v-2a1,1,0,0,0,0-.34.28.28,0,0,0-.13-.17.52.52,0,0,0-.23-.08l-.33,0V7.38l2.29-.23v8.29Zm-.74-4.53a1.14,1.14,0,0,0-.4-.19,2.31,2.31,0,0,0-.46,0,1.18,1.18,0,0,0-.73.23,1.76,1.76,0,0,0-.48.57,2.46,2.46,0,0,0-.27.76,4.18,4.18,0,0,0-.08.76,4.06,4.06,0,0,0,.08.73,3.13,3.13,0,0,0,.24.75,1.8,1.8,0,0,0,.44.6,1.09,1.09,0,0,0,.7.23.92.92,0,0,0,.53-.17,1.93,1.93,0,0,0,.43-.35Z"/><path class="cls-2" d="M195.09,15.44V11a1.35,1.35,0,0,0-.05-.4.38.38,0,0,0-.14-.2.43.43,0,0,0-.23-.09l-.32,0v-.16l2.29-.18v5.48Zm.63-6.33a1,1,0,0,1-.72-.29,1.05,1.05,0,0,1,0-1.43,1,1,0,0,1,.72-.28.93.93,0,0,1,.71.28,1,1,0,0,1,0,1.43A.94.94,0,0,1,195.72,9.11Z"/><path class="cls-2" d="M200.12,15.44h-1.55V11.06a1.42,1.42,0,0,0,0-.41.34.34,0,0,0-.12-.21.52.52,0,0,0-.23-.08l-.34,0v-.16l2.29-.23V11a2.89,2.89,0,0,1,.36-.44,3.48,3.48,0,0,1,.48-.38,2.56,2.56,0,0,1,.55-.27,1.75,1.75,0,0,1,1.58.21,1.52,1.52,0,0,1,.52.91,2.47,2.47,0,0,1,.37-.44,2.28,2.28,0,0,1,.48-.39,3,3,0,0,1,.56-.29,1.63,1.63,0,0,1,.57-.1,1.4,1.4,0,0,1,1.18.51,2.27,2.27,0,0,1,.39,1.39v3.73h-1.55V11.76a1.26,1.26,0,0,0-.19-.75.66.66,0,0,0-.59-.27,1.43,1.43,0,0,0-.65.17,2.17,2.17,0,0,0-.55.45.49.49,0,0,1,0,.12v4h-1.55V11.76a1.34,1.34,0,0,0-.18-.75.67.67,0,0,0-.6-.27,1.39,1.39,0,0,0-.64.17,1.87,1.87,0,0,0-.55.45Z"/><path class="cls-2" d="M210.77,14a2.51,2.51,0,0,0,.66.41,1.93,1.93,0,0,0,.75.15,1.54,1.54,0,0,0,1-.29,2,2,0,0,0,.61-.84l.1.07A3.06,3.06,0,0,1,213,15a2.22,2.22,0,0,1-1.57.55,3,3,0,0,1-.93-.15,3,3,0,0,1-.84-.41,2.8,2.8,0,0,1-.67-.66,2.6,2.6,0,0,1-.42-.85,3.67,3.67,0,0,1-.11-1.48,2.49,2.49,0,0,1,.44-1.12,2.29,2.29,0,0,1,.82-.73,2.58,2.58,0,0,1,1.05-.29H211a2.74,2.74,0,0,1,1,.18,2.06,2.06,0,0,1,.75.48,2.29,2.29,0,0,1,.49.73,3.53,3.53,0,0,1,.25.89Zm-.21-.19a3.6,3.6,0,0,0,1-.86,2.2,2.2,0,0,0,.41-.92,1.88,1.88,0,0,0,0-.67,1.68,1.68,0,0,0-.22-.59,1.57,1.57,0,0,0-.39-.42.91.91,0,0,0-.51-.16h-.05a1.39,1.39,0,0,0-.53.14.91.91,0,0,0-.4.38,1.53,1.53,0,0,0-.19.7,3.94,3.94,0,0,0,.15,1.07,2.87,2.87,0,0,0,.29.71A3.3,3.3,0,0,0,210.56,13.79Z"/><path class="cls-2" d="M214.58,14.68a.76.76,0,0,1,.24-.57.8.8,0,0,1,.58-.24.78.78,0,0,1,.57.24.79.79,0,0,1,.23.57.79.79,0,0,1-.8.81.8.8,0,0,1-.58-.24A.78.78,0,0,1,214.58,14.68Z"/><path class="cls-2" d="M221.28,12.34a5.61,5.61,0,0,0,0-.82,2.89,2.89,0,0,0-.14-.7,1.57,1.57,0,0,0-.3-.49.67.67,0,0,0-.47-.18,1.19,1.19,0,0,0-.69.19,1.65,1.65,0,0,0-.47.48,2.35,2.35,0,0,0-.27.65,2.84,2.84,0,0,0-.09.69,2.6,2.6,0,0,0,.17.89,2.91,2.91,0,0,0,.45.83,2.49,2.49,0,0,0,.72.61,2,2,0,0,0,.95.23,3.13,3.13,0,0,0,.86-.12,1.25,1.25,0,0,0,.69-.47l.09.06a2,2,0,0,1-.45.57,3.2,3.2,0,0,1-.61.43,3.16,3.16,0,0,1-.7.27,3,3,0,0,1-1.83-.12,3.17,3.17,0,0,1-.93-.58,3,3,0,0,1-.63-.87,2.42,2.42,0,0,1-.23-1.07,3.26,3.26,0,0,1,.22-1.24,2.85,2.85,0,0,1,.62-.95,2.59,2.59,0,0,1,.94-.61,3.31,3.31,0,0,1,1.19-.21,2.8,2.8,0,0,1,1.6.39,2,2,0,0,1,.79,1Z"/><path class="cls-2" d="M226.46,15.55a3.2,3.2,0,0,1-1.17-.21,2.94,2.94,0,0,1-.94-.59,3.08,3.08,0,0,1-.63-.91,3.19,3.19,0,0,1,0-2.33,2.85,2.85,0,0,1,.63-.91,2.94,2.94,0,0,1,.94-.59,3.52,3.52,0,0,1,2.34,0,2.94,2.94,0,0,1,.94.59,2.67,2.67,0,0,1,.62.91,3.07,3.07,0,0,1,0,2.33,2.88,2.88,0,0,1-.62.91,2.94,2.94,0,0,1-.94.59A3.2,3.2,0,0,1,226.46,15.55Zm.61-.44a.91.91,0,0,0,.6-.44,2.06,2.06,0,0,0,.25-.76,4.12,4.12,0,0,0,0-.86,5.2,5.2,0,0,0-.12-.74c-.06-.22-.13-.46-.21-.7a3.64,3.64,0,0,0-.32-.69,1.82,1.82,0,0,0-.46-.53,1.06,1.06,0,0,0-.66-.21,1.5,1.5,0,0,0-.37.05.93.93,0,0,0-.58.44,2,2,0,0,0-.26.76,3.53,3.53,0,0,0,0,.86,3.36,3.36,0,0,0,.12.73,4.15,4.15,0,0,0,.22.65,4.64,4.64,0,0,0,.38.69,2.33,2.33,0,0,0,.52.56,1,1,0,0,0,.64.23A.69.69,0,0,0,227.07,15.11Z"/><path class="cls-2" d="M232.37,15.44h-1.56V11.06a1.48,1.48,0,0,0,0-.41.34.34,0,0,0-.12-.21.52.52,0,0,0-.23-.08l-.34,0v-.16l2.29-.23V11a2.89,2.89,0,0,1,.36-.44,3.48,3.48,0,0,1,.48-.38,2.56,2.56,0,0,1,.55-.27,1.75,1.75,0,0,1,1.58.21,1.52,1.52,0,0,1,.52.91,2.47,2.47,0,0,1,.37-.44,2.28,2.28,0,0,1,.48-.39,2.89,2.89,0,0,1,.55-.29,1.71,1.71,0,0,1,.57-.1,1.41,1.41,0,0,1,1.19.51,2.27,2.27,0,0,1,.39,1.39v3.73h-1.55V11.76a1.26,1.26,0,0,0-.19-.75.66.66,0,0,0-.59-.27,1.43,1.43,0,0,0-.65.17,2,2,0,0,0-.55.45.49.49,0,0,1,0,.12v4h-1.55V11.76a1.34,1.34,0,0,0-.18-.75.67.67,0,0,0-.6-.27,1.39,1.39,0,0,0-.64.17,1.87,1.87,0,0,0-.55.45Z"/></g></g></svg>