<svg xmlns="http://www.w3.org/2000/svg" viewBox="0 0 128.37 98.67"><defs><style>.cls-1{fill:#f98f0b;}</style></defs><g id="Layer_2" data-name="Layer 2"><g id="Layer_1-2" data-name="Layer 1"><path d="M24.83,1.24V2.39h-7l.73-.83v10H17.42V1.24ZM18,5.92h6.66V7.06H18Z"/><path d="M33.16,7.7a6.78,6.78,0,0,1-.84,2.13A4.35,4.35,0,0,1,31,11.26a3.4,3.4,0,0,1-3.6,0,3.56,3.56,0,0,1-1.25-1.43,4.76,4.76,0,0,1-.45-2.12,4.77,4.77,0,0,1,.45-2.13,3.6,3.6,0,0,1,1.25-1.42,3.31,3.31,0,0,1,1.83-.51A3.26,3.26,0,0,1,31,4.15a4.55,4.55,0,0,1,1.37,1.42A6.53,6.53,0,0,1,33.16,7.7Zm-6.33,0a3.51,3.51,0,0,0,.33,1.56,2.58,2.58,0,0,0,.9,1.05,2.31,2.31,0,0,0,1.31.38,2.56,2.56,0,0,0,1.38-.38,3.79,3.79,0,0,0,1.11-1.05,6,6,0,0,0,.81-1.56,6,6,0,0,0-.81-1.56,4,4,0,0,0-1.11-1.06,2.64,2.64,0,0,0-1.38-.37,2.38,2.38,0,0,0-1.31.37,2.68,2.68,0,0,0-.9,1.06A3.51,3.51,0,0,0,26.83,7.7Zm5.89,3.89-.25-2.94.31-1-.31-.94.25-2.94h1.16L33.56,7.7l.32,3.89Z"/><path d="M43,8.64a3.47,3.47,0,0,1-.67,1.63A3.79,3.79,0,0,1,41,11.37a4.17,4.17,0,0,1-1.84.4,4,4,0,0,1-2.06-.52,3.57,3.57,0,0,1-1.4-1.43,4.29,4.29,0,0,1-.5-2.12,4.29,4.29,0,0,1,.5-2.12,3.57,3.57,0,0,1,1.4-1.43,4.06,4.06,0,0,1,2.06-.51A4.17,4.17,0,0,1,41,4a3.67,3.67,0,0,1,1.37,1.09A3.46,3.46,0,0,1,43,6.78H41.84a2.39,2.39,0,0,0-.92-1.53,3.11,3.11,0,0,0-3.25-.19,2.55,2.55,0,0,0-1,1.05,3.39,3.39,0,0,0-.35,1.59,3.47,3.47,0,0,0,.35,1.6,2.46,2.46,0,0,0,1,1,2.77,2.77,0,0,0,1.47.37,2.84,2.84,0,0,0,1.79-.57,2.33,2.33,0,0,0,.91-1.5Z"/><path d="M43.42,4.84v-.6L45,3.92l.46-2.11h.69v2h3.4v1h-3.4V8.79a2.05,2.05,0,0,0,.41,1.47,1.76,1.76,0,0,0,1.29.42,3,3,0,0,0,1-.15,3.77,3.77,0,0,0,.84-.44V11.2a3.21,3.21,0,0,1-.88.39,4,4,0,0,1-1.2.18,2.74,2.74,0,0,1-1.52-.37,2.06,2.06,0,0,1-.83-1A3.76,3.76,0,0,1,45,9V4.84Z"/><path d="M54.35,11.77a4.42,4.42,0,0,1-2.16-.51,3.61,3.61,0,0,1-1.46-1.44,4.19,4.19,0,0,1-.52-2.12,4.2,4.2,0,0,1,.52-2.13,3.69,3.69,0,0,1,1.46-1.42,4.42,4.42,0,0,1,2.16-.51,4.47,4.47,0,0,1,2.18.51A3.76,3.76,0,0,1,58,5.57a4.21,4.21,0,0,1,.53,2.13A4.2,4.2,0,0,1,58,9.82a3.68,3.68,0,0,1-1.46,1.44A4.47,4.47,0,0,1,54.35,11.77Zm0-1.06a3.17,3.17,0,0,0,1.59-.37,2.48,2.48,0,0,0,1-1,3.23,3.23,0,0,0,.37-1.6A3.22,3.22,0,0,0,57,6.11a2.57,2.57,0,0,0-1-1.05,3.28,3.28,0,0,0-1.59-.37,3.32,3.32,0,0,0-1.58.37,2.57,2.57,0,0,0-1,1.05,3.33,3.33,0,0,0-.36,1.59,3.34,3.34,0,0,0,.36,1.6,2.48,2.48,0,0,0,1,1A3.21,3.21,0,0,0,54.35,10.71Z"/><path d="M59.62,3.82h1.14l.4,2.65v5.12H60V6.24Zm5.26,0V4.94a2.21,2.21,0,0,0-.56-.12,4.28,4.28,0,0,0-.6-.05,2.41,2.41,0,0,0-1.33.38,2.5,2.5,0,0,0-.91,1.08,4.09,4.09,0,0,0-.32,1.68l-.32-.5a5.89,5.89,0,0,1,.23-1.5,4,4,0,0,1,.61-1.2,2.72,2.72,0,0,1,2.19-1.07,5.29,5.29,0,0,1,.54,0A3.3,3.3,0,0,1,64.88,3.79Z"/><path d="M68.51,11.34,65.2,3.82h1.25l3.22,7.52Zm-1.16,2.71a2.61,2.61,0,0,1-1-.16,3.18,3.18,0,0,1-.83-.44v-1a3.39,3.39,0,0,0,.79.42,2.45,2.45,0,0,0,.89.14,1.53,1.53,0,0,0,.91-.27,2,2,0,0,0,.65-.87l3.49-8h1.22l-3.83,8.52a3.5,3.5,0,0,1-.61,1,2.23,2.23,0,0,1-1.72.74Z"/><path d="M81.79,1.24a5.63,5.63,0,0,1,2.74.65A4.62,4.62,0,0,1,86.36,3.7,5.45,5.45,0,0,1,87,6.42a5.34,5.34,0,0,1-.66,2.69,4.67,4.67,0,0,1-1.83,1.83,5.63,5.63,0,0,1-2.74.65h-4V1.24ZM79,11.25l-.74-.8h3.61a4.05,4.05,0,0,0,2.09-.52,3.61,3.61,0,0,0,1.4-1.42,4.28,4.28,0,0,0,.5-2.09,4.34,4.34,0,0,0-.5-2.12,3.67,3.67,0,0,0-1.4-1.42,4.15,4.15,0,0,0-2.09-.51H78.23L79,1.59Z"/><path d="M89.11,2.65a.81.81,0,0,1-.59-.24.84.84,0,0,1-.24-.62.84.84,0,1,1,1.67,0,.84.84,0,0,1-.23.62A.82.82,0,0,1,89.11,2.65Zm-.56,1.14.57.11.57-.11v7.8H88.55Z"/><path d="M91.22,3.82h1.14l.4,2.65v5.12H91.62V6.24Zm5.25,0V4.94a2,2,0,0,0-.55-.12,4.28,4.28,0,0,0-.6-.05A2.41,2.41,0,0,0,94,5.15a2.5,2.5,0,0,0-.91,1.08,4.09,4.09,0,0,0-.32,1.68l-.32-.5a5.48,5.48,0,0,1,.23-1.5,3.58,3.58,0,0,1,.61-1.2,2.71,2.71,0,0,1,.94-.78,2.68,2.68,0,0,1,1.25-.29,5.29,5.29,0,0,1,.54,0A2.84,2.84,0,0,1,96.47,3.79Z"/><path d="M100.87,11.77a4.25,4.25,0,0,1-2.13-.52,3.69,3.69,0,0,1-1.45-1.43,4.2,4.2,0,0,1-.53-2.12,4.41,4.41,0,0,1,.5-2.13,3.62,3.62,0,0,1,1.38-1.42,3.94,3.94,0,0,1,2-.51A3.45,3.45,0,0,1,104,5.75a5.43,5.43,0,0,1,.46,2.32H97.63v-1h6.3l-.67.46a3.46,3.46,0,0,0-.38-1.5,2.38,2.38,0,0,0-.9-1,2.54,2.54,0,0,0-1.33-.35,2.65,2.65,0,0,0-1.43.37,2.43,2.43,0,0,0-1,1,3.31,3.31,0,0,0-.34,1.55,3.36,3.36,0,0,0,.38,1.63,2.62,2.62,0,0,0,1.08,1.06,3.42,3.42,0,0,0,1.64.38,4.73,4.73,0,0,0,1.69-.32,5.11,5.11,0,0,0,1.48-.87v1a4.64,4.64,0,0,1-1.54.92A4.94,4.94,0,0,1,100.87,11.77Z"/><path d="M113.26,8.64a3.59,3.59,0,0,1-.68,1.63,3.79,3.79,0,0,1-1.37,1.1,4.17,4.17,0,0,1-1.84.4,4,4,0,0,1-2.06-.52,3.57,3.57,0,0,1-1.4-1.43,4.29,4.29,0,0,1-.5-2.12,4.29,4.29,0,0,1,.5-2.12,3.57,3.57,0,0,1,1.4-1.43,4.06,4.06,0,0,1,2.06-.51,4.17,4.17,0,0,1,1.84.4,3.67,3.67,0,0,1,1.37,1.09,3.58,3.58,0,0,1,.68,1.65h-1.18a2.44,2.44,0,0,0-.93-1.53,3.11,3.11,0,0,0-3.25-.19,2.55,2.55,0,0,0-1,1.05,3.39,3.39,0,0,0-.35,1.59,3.47,3.47,0,0,0,.35,1.6,2.46,2.46,0,0,0,1,1,2.77,2.77,0,0,0,1.47.37,2.84,2.84,0,0,0,1.79-.57,2.38,2.38,0,0,0,.92-1.5Z"/><path d="M113.65,4.84v-.6l1.54-.32.46-2.11h.69v2h3.4v1h-3.4V8.79a2.05,2.05,0,0,0,.41,1.47,1.76,1.76,0,0,0,1.29.42,3,3,0,0,0,1-.15,3.77,3.77,0,0,0,.84-.44V11.2a3.21,3.21,0,0,1-.88.39,4,4,0,0,1-1.2.18,2.76,2.76,0,0,1-1.52-.37,2.06,2.06,0,0,1-.83-1A3.76,3.76,0,0,1,115.19,9V4.84Z"/><path d="M121.67,11.69a.73.73,0,0,1-.41-.12.84.84,0,0,1-.3-.32,1,1,0,0,1-.1-.46,1,1,0,0,1,.1-.46.82.82,0,0,1,.29-.32.74.74,0,0,1,.42-.12.72.72,0,0,1,.4.12.91.91,0,0,1,.4.78.84.84,0,0,1-.11.45.89.89,0,0,1-.29.32A.66.66,0,0,1,121.67,11.69Z"/><path d="M26,26.94l-.57,0V17.24h1.13V27.59h-1.5L18,17.85l.57,0v9.78H17.42V17.24h1.52Z"/><path d="M32.27,27.77a4.49,4.49,0,0,1-2.17-.51,3.68,3.68,0,0,1-1.46-1.44,4.6,4.6,0,0,1,0-4.25,3.76,3.76,0,0,1,1.46-1.42,4.49,4.49,0,0,1,2.17-.51,4.43,4.43,0,0,1,2.17.51,3.76,3.76,0,0,1,1.46,1.42,4.53,4.53,0,0,1,0,4.25,3.68,3.68,0,0,1-1.46,1.44A4.43,4.43,0,0,1,32.27,27.77Zm0-1.06a3.22,3.22,0,0,0,1.59-.37,2.54,2.54,0,0,0,1-1,3.71,3.71,0,0,0,0-3.19,2.63,2.63,0,0,0-1-1.05,3.6,3.6,0,0,0-3.18,0,2.54,2.54,0,0,0-1,1.05,3.71,3.71,0,0,0,0,3.19,2.46,2.46,0,0,0,1,1A3.25,3.25,0,0,0,32.27,26.71Z"/><path d="M53.46,17.24V27.59H52.34v-10h.46l-4.71,10H46.85l-4.71-10h.46v10H41.48V17.24h1.77l4.59,9.91h-.73l4.59-9.91Z"/><path d="M56.08,18.65a.81.81,0,0,1-.59-.24.84.84,0,0,1-.24-.62.84.84,0,1,1,1.68,0,.84.84,0,0,1-.24.62A.82.82,0,0,1,56.08,18.65Zm-.56,1.14.57.11.57-.11v7.8H55.52Z"/><path d="M65.61,23.7a6.78,6.78,0,0,1-.84,2.13,4.38,4.38,0,0,1-1.37,1.43,3.39,3.39,0,0,1-3.59,0,3.49,3.49,0,0,1-1.25-1.43,5.14,5.14,0,0,1,0-4.25,3.53,3.53,0,0,1,1.25-1.42,3.3,3.3,0,0,1,1.82-.51,3.21,3.21,0,0,1,1.77.51,4.58,4.58,0,0,1,1.38,1.42A6.77,6.77,0,0,1,65.61,23.7Zm-6.34,0a3.51,3.51,0,0,0,.33,1.56,2.53,2.53,0,0,0,.91,1,2.26,2.26,0,0,0,1.31.38,2.53,2.53,0,0,0,1.37-.38,3.82,3.82,0,0,0,1.12-1,6,6,0,0,0,.8-1.56,6,6,0,0,0-.8-1.56,4,4,0,0,0-1.12-1.06,2.61,2.61,0,0,0-1.37-.37,2.33,2.33,0,0,0-1.31.37,2.62,2.62,0,0,0-.91,1.06A3.51,3.51,0,0,0,59.27,23.7Zm5.9,3.89-.25-3,.34-.91-.31-1L65.43,17H66.6L66,23.64l.32,3.95Z"/><path d="M75.14,23.7a7.29,7.29,0,0,1-.84,2.13,4.48,4.48,0,0,1-1.37,1.43,3.4,3.4,0,0,1-3.6,0,3.47,3.47,0,0,1-1.24-1.43,5.14,5.14,0,0,1,0-4.25,3.5,3.5,0,0,1,1.24-1.42,3.31,3.31,0,0,1,1.83-.51,3.21,3.21,0,0,1,1.77.51,4.55,4.55,0,0,1,1.37,1.42A6.78,6.78,0,0,1,75.14,23.7Zm-6.34,0a3.51,3.51,0,0,0,.33,1.56,2.53,2.53,0,0,0,.91,1,2.26,2.26,0,0,0,1.31.38,2.55,2.55,0,0,0,1.37-.38,3.82,3.82,0,0,0,1.12-1,6.36,6.36,0,0,0,.8-1.56,6.36,6.36,0,0,0-.8-1.56,4,4,0,0,0-1.12-1.06,2.63,2.63,0,0,0-1.37-.37,2.33,2.33,0,0,0-1.31.37,2.62,2.62,0,0,0-.91,1.06A3.51,3.51,0,0,0,68.8,23.7Zm5.9,3.89-.25-3,.34-.91-.31-1L75,17h1.17l-.58,6.67.32,3.95Z"/><path d="M77.57,17h1.14V27.59H77.57Z"/><path d="M84.25,27.77a4.25,4.25,0,0,1-2.13-.52,3.69,3.69,0,0,1-1.45-1.43,4.2,4.2,0,0,1-.53-2.12,4.41,4.41,0,0,1,.5-2.13A3.62,3.62,0,0,1,82,20.15a3.94,3.94,0,0,1,2-.51,3.45,3.45,0,0,1,3.29,2.11,5.43,5.43,0,0,1,.46,2.32H81v-1h6.3l-.67.46a3.46,3.46,0,0,0-.38-1.5,2.38,2.38,0,0,0-.9-1A2.54,2.54,0,0,0,84,20.69a2.67,2.67,0,0,0-1.43.37,2.43,2.43,0,0,0-.95,1,3.31,3.31,0,0,0-.34,1.55,3.36,3.36,0,0,0,.38,1.63,2.62,2.62,0,0,0,1.08,1.06,3.42,3.42,0,0,0,1.64.38,4.73,4.73,0,0,0,1.69-.32,5.11,5.11,0,0,0,1.48-.87v1a4.64,4.64,0,0,1-1.54.92A4.94,4.94,0,0,1,84.25,27.77Z"/><path d="M88.89,19.82H90l.4,2.64v5.13H89.28V22.28Zm4.21-.18a2.68,2.68,0,0,1,1.54.44,2.8,2.8,0,0,1,1,1.25,5.33,5.33,0,0,1,.33,2v4.28H94.8V23.53a3.59,3.59,0,0,0-.52-2.1,1.79,1.79,0,0,0-1.52-.71,2.06,2.06,0,0,0-1.24.39,2.43,2.43,0,0,0-.81,1.06,4.16,4.16,0,0,0-.28,1.6L90,23.41a5.21,5.21,0,0,1,.5-2,3.28,3.28,0,0,1,1.09-1.3A2.65,2.65,0,0,1,93.1,19.64Zm5.5,0a2.56,2.56,0,0,1,2.52,1.69,5.32,5.32,0,0,1,.34,2v4.28h-1.15V23.53a3.52,3.52,0,0,0-.52-2.1,1.77,1.77,0,0,0-1.51-.71,2,2,0,0,0-1.24.39,2.43,2.43,0,0,0-.81,1.06,4.15,4.15,0,0,0-.29,1.6l-.46-.36a5.59,5.59,0,0,1,.5-2,3.3,3.3,0,0,1,1.1-1.3A2.63,2.63,0,0,1,98.6,19.64Z"/><path d="M106.9,27.77a4.2,4.2,0,0,1-2.13-.52,3.72,3.72,0,0,1-1.46-1.43,4.19,4.19,0,0,1-.52-2.12,4.41,4.41,0,0,1,.49-2.13,3.62,3.62,0,0,1,1.38-1.42,4,4,0,0,1,2-.51,3.58,3.58,0,0,1,2,.55A3.67,3.67,0,0,1,110,21.75a5.43,5.43,0,0,1,.47,2.32h-6.79v-1H110l-.67.46a3.46,3.46,0,0,0-.37-1.5,2.47,2.47,0,0,0-.91-1,2.51,2.51,0,0,0-1.33-.35,2.7,2.7,0,0,0-1.43.37,2.5,2.5,0,0,0-.95,1,3.44,3.44,0,0,0-.34,1.55,3.25,3.25,0,0,0,.39,1.63,2.51,2.51,0,0,0,1.08,1.06,3.4,3.4,0,0,0,1.64.38,4.68,4.68,0,0,0,1.68-.32,5.16,5.16,0,0,0,1.49-.87v1a4.69,4.69,0,0,1-1.55.92A4.89,4.89,0,0,1,106.9,27.77Z"/><path d="M111.53,19.82h1.14l.4,2.64v5.13h-1.14V22.28Zm4.43-.18a3.05,3.05,0,0,1,1.67.44,2.8,2.8,0,0,1,1,1.25,4.93,4.93,0,0,1,.36,2v4.28h-1.14V23.53a3.25,3.25,0,0,0-.58-2.1,2,2,0,0,0-1.68-.71,2.38,2.38,0,0,0-1.35.39,2.51,2.51,0,0,0-.89,1.06,3.81,3.81,0,0,0-.32,1.6l-.46-.36a5.21,5.21,0,0,1,.53-2,3.31,3.31,0,0,1,1.18-1.3A3,3,0,0,1,116,19.64Z"/><path d="M121.34,27.69a.75.75,0,0,1-.41-.12.89.89,0,0,1-.29-.32,1,1,0,0,1-.1-.46,1,1,0,0,1,.1-.46.82.82,0,0,1,.29-.32.71.71,0,0,1,.41-.12.73.73,0,0,1,.41.12,1,1,0,0,1,.29.32,1,1,0,0,1,.11.46.94.94,0,0,1-.11.45,1,1,0,0,1-.29.32A.67.67,0,0,1,121.34,27.69Z"/><path d="M18.59,38v9.77l-.52-.57h7v1.15H17.42V38Z"/><path d="M32.93,44.44a7,7,0,0,1-.84,2.13A4.38,4.38,0,0,1,30.72,48a3.39,3.39,0,0,1-3.59,0,3.49,3.49,0,0,1-1.25-1.43,5.14,5.14,0,0,1,0-4.25,3.53,3.53,0,0,1,1.25-1.42A3.28,3.28,0,0,1,29,40.38a3.21,3.21,0,0,1,1.77.51,4.44,4.44,0,0,1,1.37,1.42A6.55,6.55,0,0,1,32.93,44.44Zm-6.34,0A3.51,3.51,0,0,0,26.92,46a2.53,2.53,0,0,0,.91,1,2.34,2.34,0,0,0,1.31.38,2.62,2.62,0,0,0,1.37-.38,3.82,3.82,0,0,0,1.12-1,6,6,0,0,0,.8-1.56,6,6,0,0,0-.8-1.56,4,4,0,0,0-1.12-1.06,2.62,2.62,0,0,0-1.37-.38,2.34,2.34,0,0,0-1.31.38,2.62,2.62,0,0,0-.91,1.06A3.51,3.51,0,0,0,26.59,44.44Zm5.89,3.89-.25-2.94.31-1-.31-.94.25-2.94h1.17l-.33,3.88.33,3.89Z"/><path d="M35,40.56h1.14l.4,2.65v5.12H35.44V43Zm5.25,0v1.15a2.47,2.47,0,0,0-.55-.13c-.21,0-.41,0-.6,0A2.35,2.35,0,0,0,36.9,43a4.08,4.08,0,0,0-.32,1.67l-.32-.49a5.49,5.49,0,0,1,.23-1.51,3.7,3.7,0,0,1,.6-1.19,2.68,2.68,0,0,1,2.2-1.07,3.44,3.44,0,0,1,.54,0A3.13,3.13,0,0,1,40.29,40.53Z"/><path d="M44,47.83a3.14,3.14,0,0,1-1.71-.47,3.3,3.3,0,0,1-1.21-1.3,4.49,4.49,0,0,1,0-3.92,3.3,3.3,0,0,1,1.21-1.3A3.22,3.22,0,0,1,44,40.38a3.6,3.6,0,0,1,1.32.24,4.46,4.46,0,0,1,1.1.64,4.81,4.81,0,0,1,.85.9,4.9,4.9,0,0,1,.54,1,2.86,2.86,0,0,1,.19,1,3,3,0,0,1-.29,1.2,4.37,4.37,0,0,1-.84,1.22,4.71,4.71,0,0,1-1.26.94A3.59,3.59,0,0,1,44,47.83Zm3.55-1.39V45l0-.2V43.55l0-.27V40.56h1.14v5.7a5.16,5.16,0,0,1-.55,2.52,3.68,3.68,0,0,1-1.49,1.51,4.57,4.57,0,0,1-2.15.49,4.87,4.87,0,0,1-1.69-.28,5,5,0,0,1-1.48-.86V48.52a4.41,4.41,0,0,0,1.53.94,5.11,5.11,0,0,0,1.57.26,3,3,0,0,0,2.32-.87A3.47,3.47,0,0,0,47.57,46.44Zm-3.24.37a2.88,2.88,0,0,0,1.79-.63,5.65,5.65,0,0,0,1.5-2.07A5.24,5.24,0,0,0,46.12,42a2.88,2.88,0,0,0-1.79-.63,2.56,2.56,0,0,0-1.37.35,2.17,2.17,0,0,0-.86,1,3.5,3.5,0,0,0,0,2.79,2.24,2.24,0,0,0,.86,1A2.56,2.56,0,0,0,44.33,46.81Z"/><path d="M54.22,48.51A4.2,4.2,0,0,1,52.09,48a3.72,3.72,0,0,1-1.46-1.43,4.22,4.22,0,0,1-.52-2.12,4.41,4.41,0,0,1,.49-2.13A3.62,3.62,0,0,1,52,40.89a4,4,0,0,1,2-.51,3.5,3.5,0,0,1,2,.55,3.67,3.67,0,0,1,1.31,1.56,5.43,5.43,0,0,1,.47,2.32H51v-1h6.3l-.67.46a3.54,3.54,0,0,0-.37-1.51,2.46,2.46,0,0,0-.91-1A2.51,2.51,0,0,0,54,41.43a2.7,2.7,0,0,0-1.43.37,2.53,2.53,0,0,0-1,1,3.45,3.45,0,0,0-.34,1.56A3.25,3.25,0,0,0,51.66,46a2.57,2.57,0,0,0,1.08,1.06,3.39,3.39,0,0,0,1.64.37,4.67,4.67,0,0,0,1.68-.31,5.16,5.16,0,0,0,1.49-.87v1a4.93,4.93,0,0,1-1.54.92A5.2,5.2,0,0,1,54.22,48.51Z"/><path d="M62.28,40.56h1.14l.4,2.65v5.12H62.68V43Zm5.25,0v1.15a2.47,2.47,0,0,0-.55-.13c-.21,0-.41,0-.6,0A2.35,2.35,0,0,0,64.14,43a4.08,4.08,0,0,0-.32,1.67l-.32-.49a5.49,5.49,0,0,1,.23-1.51,3.7,3.7,0,0,1,.6-1.19,2.68,2.68,0,0,1,2.2-1.07,3.44,3.44,0,0,1,.54,0A3.13,3.13,0,0,1,67.53,40.53Z"/><path d="M75.37,44.44a6.78,6.78,0,0,1-.84,2.13A4.45,4.45,0,0,1,73.17,48a3.4,3.4,0,0,1-3.6,0,3.49,3.49,0,0,1-1.25-1.43,5.24,5.24,0,0,1,0-4.25,3.53,3.53,0,0,1,1.25-1.42,3.31,3.31,0,0,1,1.83-.51,3.26,3.26,0,0,1,1.77.51,4.55,4.55,0,0,1,1.37,1.42A6.53,6.53,0,0,1,75.37,44.44Zm-6.33,0A3.51,3.51,0,0,0,69.36,46a2.6,2.6,0,0,0,.91,1,2.36,2.36,0,0,0,1.31.38A2.59,2.59,0,0,0,73,47.05a3.7,3.7,0,0,0,1.12-1,5.74,5.74,0,0,0,.8-1.56,5.74,5.74,0,0,0-.8-1.56A3.87,3.87,0,0,0,73,41.82a2.59,2.59,0,0,0-1.37-.38,2.36,2.36,0,0,0-1.31.38,2.7,2.7,0,0,0-.91,1.06A3.51,3.51,0,0,0,69,44.44Zm5.88,3.89-.24-2.94.31-1-.31-.94.24-2.94h1.17l-.32,3.88.32,3.89Z"/><path d="M77.48,40.56h1.14L79,43.2v5.13H77.88V43Zm4.44-.18a3,3,0,0,1,1.66.44,2.69,2.69,0,0,1,1,1.25,4.93,4.93,0,0,1,.36,2v4.28H83.84V44.27a3.23,3.23,0,0,0-.58-2.1,2,2,0,0,0-1.68-.71,2.45,2.45,0,0,0-1.35.38,2.61,2.61,0,0,0-.89,1.07,3.81,3.81,0,0,0-.32,1.6l-.46-.36a5,5,0,0,1,.54-2,3.39,3.39,0,0,1,1.17-1.31A3,3,0,0,1,81.92,40.38Z"/><path d="M89.69,47.83A3.14,3.14,0,0,1,88,47.36a3.3,3.3,0,0,1-1.21-1.3,4.59,4.59,0,0,1,0-3.92A3.3,3.3,0,0,1,88,40.84a3.22,3.22,0,0,1,1.71-.46,3.6,3.6,0,0,1,1.32.24,4.46,4.46,0,0,1,1.1.64,4.24,4.24,0,0,1,.85.9,4.9,4.9,0,0,1,.54,1,2.63,2.63,0,0,1,.19,1,3,3,0,0,1-.29,1.2,4.33,4.33,0,0,1-.83,1.22,4.61,4.61,0,0,1-1.27.94A3.56,3.56,0,0,1,89.69,47.83Zm3.55-1.39V45l.05-.2V43.55l-.05-.27V40.56h1.15v5.7a5.16,5.16,0,0,1-.56,2.52,3.56,3.56,0,0,1-1.49,1.51,4.57,4.57,0,0,1-2.15.49,4.78,4.78,0,0,1-1.68-.28A5,5,0,0,1,87,49.64V48.52a4.5,4.5,0,0,0,1.53.94,5.13,5.13,0,0,0,1.58.26,3,3,0,0,0,2.31-.87A3.42,3.42,0,0,0,93.24,46.44ZM90,46.81a2.88,2.88,0,0,0,1.79-.63,5.65,5.65,0,0,0,1.5-2.07A5.23,5.23,0,0,0,91.8,42a2.9,2.9,0,0,0-1.8-.63,2.58,2.58,0,0,0-1.37.35,2.23,2.23,0,0,0-.86,1,3.5,3.5,0,0,0,0,2.79,2.31,2.31,0,0,0,.86,1A2.58,2.58,0,0,0,90,46.81Z"/><path d="M99.89,48.51A4.25,4.25,0,0,1,97.76,48a3.69,3.69,0,0,1-1.45-1.43,4.12,4.12,0,0,1-.53-2.12,4.41,4.41,0,0,1,.49-2.13,3.77,3.77,0,0,1,1.38-1.42,4,4,0,0,1,2-.51,3.5,3.5,0,0,1,2,.55A3.6,3.6,0,0,1,103,42.49a5.43,5.43,0,0,1,.47,2.32H96.65v-1H103l-.68.46a3.4,3.4,0,0,0-.37-1.51,2.44,2.44,0,0,0-.9-1,2.56,2.56,0,0,0-1.33-.34,2.65,2.65,0,0,0-1.43.37,2.4,2.4,0,0,0-.95,1A3.32,3.32,0,0,0,97,44.38,3.25,3.25,0,0,0,97.33,46a2.69,2.69,0,0,0,1.08,1.06,3.42,3.42,0,0,0,1.64.37,4.67,4.67,0,0,0,1.68-.31,5.16,5.16,0,0,0,1.49-.87v1a4.93,4.93,0,0,1-1.54.92A5.16,5.16,0,0,1,99.89,48.51Z"/><path d="M107.42,42.06V41h6.06v1Zm4.62-3.5a2,2,0,0,0-1.44.48,2.07,2.07,0,0,0-.5,1.58v7.71H109V40.79a4.6,4.6,0,0,1,.29-1.67,2.54,2.54,0,0,1,1-1.17,3.14,3.14,0,0,1,1.71-.43,3.71,3.71,0,0,1,.93.11,5.64,5.64,0,0,1,.76.25V39a2.74,2.74,0,0,0-.74-.3A3.62,3.62,0,0,0,112,38.56Z"/><path d="M117.85,48.51a4.49,4.49,0,0,1-2.17-.51,3.68,3.68,0,0,1-1.46-1.44,4.6,4.6,0,0,1,0-4.25,3.76,3.76,0,0,1,1.46-1.42,4.49,4.49,0,0,1,2.17-.51,4.43,4.43,0,0,1,2.17.51,3.69,3.69,0,0,1,1.46,1.42,4.53,4.53,0,0,1,0,4.25A3.61,3.61,0,0,1,120,48,4.43,4.43,0,0,1,117.85,48.51Zm0-1.07a3.33,3.33,0,0,0,1.59-.36,2.54,2.54,0,0,0,1-1,3.37,3.37,0,0,0,.36-1.6,3.33,3.33,0,0,0-.36-1.59,2.63,2.63,0,0,0-1-1.05,3.58,3.58,0,0,0-3.17,0,2.57,2.57,0,0,0-1,1.05,3.33,3.33,0,0,0-.36,1.59,3.37,3.37,0,0,0,.36,1.6,2.48,2.48,0,0,0,1,1A3.32,3.32,0,0,0,117.85,47.44Z"/><path d="M123.12,40.56h1.14l.4,2.65v5.12h-1.15V43Zm5.25,0v1.15a2.47,2.47,0,0,0-.55-.13c-.21,0-.41,0-.6,0A2.35,2.35,0,0,0,125,43a4.08,4.08,0,0,0-.32,1.67l-.32-.49a5.49,5.49,0,0,1,.23-1.51,3.7,3.7,0,0,1,.6-1.19,2.68,2.68,0,0,1,2.2-1.07,3.44,3.44,0,0,1,.54,0A3.13,3.13,0,0,1,128.37,40.53Z"/><path d="M24.65,61.38A3.44,3.44,0,0,1,24,63a3.77,3.77,0,0,1-1.38,1.11,4.23,4.23,0,0,1-1.83.4A4,4,0,0,1,18.7,64a3.61,3.61,0,0,1-1.39-1.43,4.66,4.66,0,0,1,0-4.24,3.61,3.61,0,0,1,1.39-1.43,4.13,4.13,0,0,1,2.07-.51,4.23,4.23,0,0,1,1.83.39A3.75,3.75,0,0,1,24,57.87a3.47,3.47,0,0,1,.67,1.64H23.47A2.39,2.39,0,0,0,22.55,58a2.89,2.89,0,0,0-1.78-.56,2.83,2.83,0,0,0-1.48.37,2.63,2.63,0,0,0-1,1,3.83,3.83,0,0,0,0,3.2,2.5,2.5,0,0,0,1,1,2.92,2.92,0,0,0,1.48.36,2.83,2.83,0,0,0,1.79-.56,2.37,2.37,0,0,0,.91-1.5Z"/><path d="M29.73,64.51A4.42,4.42,0,0,1,27.57,64a3.61,3.61,0,0,1-1.46-1.44,4.6,4.6,0,0,1,0-4.25,3.69,3.69,0,0,1,1.46-1.42,4.42,4.42,0,0,1,2.16-.51,4.47,4.47,0,0,1,2.18.51,3.76,3.76,0,0,1,1.46,1.42,4.53,4.53,0,0,1,0,4.25A3.68,3.68,0,0,1,31.91,64,4.47,4.47,0,0,1,29.73,64.51Zm0-1.07a3.28,3.28,0,0,0,1.59-.36,2.48,2.48,0,0,0,1-1,3.26,3.26,0,0,0,.37-1.6,3.22,3.22,0,0,0-.37-1.59,2.57,2.57,0,0,0-1-1.05,3.17,3.17,0,0,0-1.59-.37,3.21,3.21,0,0,0-1.58.37,2.57,2.57,0,0,0-1,1.05,3.33,3.33,0,0,0-.36,1.59,3.37,3.37,0,0,0,.36,1.6,2.48,2.48,0,0,0,1,1A3.32,3.32,0,0,0,29.73,63.44Z"/><path d="M35,56.56h1.14l.4,2.64v5.13H35.4V59Zm4.21-.18a2.56,2.56,0,0,1,2.51,1.69,5.13,5.13,0,0,1,.34,2v4.28H40.91V60.27a3.5,3.5,0,0,0-.52-2.1,1.74,1.74,0,0,0-1.51-.71,2.07,2.07,0,0,0-1.24.38,2.52,2.52,0,0,0-.81,1.07,4.15,4.15,0,0,0-.29,1.6l-.46-.36a5.34,5.34,0,0,1,.51-2,3.3,3.3,0,0,1,1.09-1.31A2.63,2.63,0,0,1,39.21,56.38Zm5.51,0a2.66,2.66,0,0,1,1.54.44,2.7,2.7,0,0,1,1,1.25,5.33,5.33,0,0,1,.33,2v4.28H46.43V60.27a3.5,3.5,0,0,0-.52-2.1,1.76,1.76,0,0,0-1.52-.71,2.06,2.06,0,0,0-1.23.38,2.46,2.46,0,0,0-.82,1.07,4.16,4.16,0,0,0-.28,1.6l-.46-.36a5.34,5.34,0,0,1,.5-2,3.38,3.38,0,0,1,1.09-1.31A2.63,2.63,0,0,1,44.72,56.38Z"/><path d="M49,56.56h1.14l.4,2.64v5.13H49.4V59Zm4.21-.18a2.64,2.64,0,0,1,1.54.44,2.68,2.68,0,0,1,1,1.25,5.32,5.32,0,0,1,.34,2v4.28H54.91V60.27a3.5,3.5,0,0,0-.52-2.1,1.74,1.74,0,0,0-1.51-.71,2.07,2.07,0,0,0-1.24.38,2.52,2.52,0,0,0-.81,1.07,4.15,4.15,0,0,0-.29,1.6l-.46-.36a5.54,5.54,0,0,1,.5-2,3.4,3.4,0,0,1,1.1-1.31A2.63,2.63,0,0,1,53.21,56.38Zm5.5,0a2.58,2.58,0,0,1,2.53,1.69,5.33,5.33,0,0,1,.33,2v4.28H60.43V60.27a3.57,3.57,0,0,0-.52-2.1,1.76,1.76,0,0,0-1.52-.71,2.06,2.06,0,0,0-1.23.38,2.46,2.46,0,0,0-.82,1.07,4.16,4.16,0,0,0-.28,1.6l-.46-.36a5.16,5.16,0,0,1,.5-2,3.38,3.38,0,0,1,1.09-1.31A2.62,2.62,0,0,1,58.71,56.38Z"/><path d="M67,64.51A4.25,4.25,0,0,1,64.88,64a3.69,3.69,0,0,1-1.45-1.43,4.22,4.22,0,0,1-.53-2.12,4.41,4.41,0,0,1,.5-2.13,3.62,3.62,0,0,1,1.38-1.42,3.94,3.94,0,0,1,2-.51,3.55,3.55,0,0,1,2,.55,3.67,3.67,0,0,1,1.31,1.56,5.43,5.43,0,0,1,.46,2.32H63.77v-1h6.3l-.67.46A3.54,3.54,0,0,0,69,58.75a2.44,2.44,0,0,0-.9-1,2.53,2.53,0,0,0-1.33-.34,2.65,2.65,0,0,0-1.43.37,2.47,2.47,0,0,0-1,1,3.72,3.72,0,0,0,0,3.19,2.69,2.69,0,0,0,1.08,1.06,3.42,3.42,0,0,0,1.64.37,4.72,4.72,0,0,0,1.69-.31,5.11,5.11,0,0,0,1.48-.87v1a4.82,4.82,0,0,1-1.54.92A5.16,5.16,0,0,1,67,64.51Z"/><path d="M71.64,56.56h1.15l.4,2.65v5.12H72V59Zm5.26,0v1.15a2.62,2.62,0,0,0-.55-.13c-.21,0-.42,0-.61,0a2.45,2.45,0,0,0-1.32.37A2.4,2.4,0,0,0,73.51,59a3.92,3.92,0,0,0-.32,1.67l-.33-.49a5.89,5.89,0,0,1,.24-1.51,3.7,3.7,0,0,1,.6-1.19,2.65,2.65,0,0,1,2.19-1.07,3.27,3.27,0,0,1,.54,0A3,3,0,0,1,76.9,56.53Z"/><path d="M85,61.38A3.44,3.44,0,0,1,84.36,63,3.82,3.82,0,0,1,83,64.11a4.31,4.31,0,0,1-1.84.4A4,4,0,0,1,79.09,64a3.57,3.57,0,0,1-1.4-1.43,4.66,4.66,0,0,1,0-4.24,3.57,3.57,0,0,1,1.4-1.43,4.06,4.06,0,0,1,2.06-.51,4.3,4.3,0,0,1,1.84.39,3.79,3.79,0,0,1,1.37,1.1A3.47,3.47,0,0,1,85,59.51H83.85A2.39,2.39,0,0,0,82.93,58a2.89,2.89,0,0,0-1.78-.56,2.77,2.77,0,0,0-1.47.37,2.58,2.58,0,0,0-1,1,3.83,3.83,0,0,0,0,3.2,2.46,2.46,0,0,0,1,1,3.16,3.16,0,0,0,3.26-.2,2.37,2.37,0,0,0,.91-1.5Z"/><path d="M87,55.39a.81.81,0,0,1-.59-.24.84.84,0,0,1-.24-.62.85.85,0,0,1,1.44-.6.85.85,0,0,1,.23.6.88.88,0,0,1-.23.62A.82.82,0,0,1,87,55.39Zm-.56,1.14.57.11.57-.11v7.8H86.39Z"/><path d="M96.47,60.44a7,7,0,0,1-.83,2.13A4.48,4.48,0,0,1,94.27,64a3.4,3.4,0,0,1-3.6,0,3.47,3.47,0,0,1-1.24-1.43,5.14,5.14,0,0,1,0-4.25,3.5,3.5,0,0,1,1.24-1.42,3.31,3.31,0,0,1,1.83-.51,3.21,3.21,0,0,1,1.77.51,4.55,4.55,0,0,1,1.37,1.42A6.53,6.53,0,0,1,96.47,60.44Zm-6.33,0A3.51,3.51,0,0,0,90.47,62a2.53,2.53,0,0,0,.91,1,2.34,2.34,0,0,0,1.31.38,2.64,2.64,0,0,0,1.37-.38,3.82,3.82,0,0,0,1.12-1,6.36,6.36,0,0,0,.8-1.56,6.36,6.36,0,0,0-.8-1.56,4,4,0,0,0-1.12-1.06,2.64,2.64,0,0,0-1.37-.38,2.34,2.34,0,0,0-1.31.38,2.62,2.62,0,0,0-.91,1.06A3.51,3.51,0,0,0,90.14,60.44ZM96,64.33l-.25-2.94.31-1-.31-.94L96,56.56H97.2l-.33,3.88.33,3.89Z"/><path d="M98.91,53.7h1.14V64.33H98.91Z"/><path d="M25,75h1.27L24,78.22A7.27,7.27,0,0,1,23,79.49a4,4,0,0,1-2.81,1.05,3.63,3.63,0,0,1-1.8-.41,3,3,0,0,1-1.14-1.08,2.91,2.91,0,0,1-.4-1.48,2.73,2.73,0,0,1,.36-1.4,3,3,0,0,1,1.06-1.07A5.13,5.13,0,0,1,20,74.44l.36.54a3.72,3.72,0,0,0-1.75,1A2.12,2.12,0,0,0,18,77.45a2,2,0,0,0,.26,1,2,2,0,0,0,.77.75,2.53,2.53,0,0,0,1.22.28A3.08,3.08,0,0,0,22,79a4.45,4.45,0,0,0,1.28-1.31Zm-.46-2.27H23.37a2.06,2.06,0,0,0-.67-1.36,2.22,2.22,0,0,0-1.57-.52,2.78,2.78,0,0,0-1,.18,1.59,1.59,0,0,0-.71.52,1.36,1.36,0,0,0-.25.85,1.76,1.76,0,0,0,.21.78,3.47,3.47,0,0,0,.74.91l6.74,6.28H25.29l-6.1-5.67a4.73,4.73,0,0,1-1-1.21,2.47,2.47,0,0,1-.29-1.13,2.23,2.23,0,0,1,.4-1.33,2.56,2.56,0,0,1,1.12-.88,4.43,4.43,0,0,1,1.69-.31,3.88,3.88,0,0,1,1.77.38,2.82,2.82,0,0,1,1.16,1A3,3,0,0,1,24.53,72.72Z"/><path d="M30.29,72.59h1.14l.4,2.65v5.12H30.69V75Zm5.26,0v1.14a2.6,2.6,0,0,0-.56-.12,4.22,4.22,0,0,0-.6,0A2.34,2.34,0,0,0,32.16,75a4,4,0,0,0-.33,1.68l-.32-.5a5.48,5.48,0,0,1,.24-1.5,3.75,3.75,0,0,1,.6-1.2,2.83,2.83,0,0,1,.94-.78,2.71,2.71,0,0,1,1.25-.29,3.5,3.5,0,0,1,.54,0A1.81,1.81,0,0,1,35.55,72.57Z"/><path d="M39.94,80.54A4.25,4.25,0,0,1,37.81,80a3.76,3.76,0,0,1-1.45-1.43,4.2,4.2,0,0,1-.53-2.12,4.34,4.34,0,0,1,.5-2.12,3.65,3.65,0,0,1,1.38-1.43,4,4,0,0,1,2-.51,3.53,3.53,0,0,1,2,.56A3.58,3.58,0,0,1,43,74.52a5.46,5.46,0,0,1,.46,2.32H36.7v-1H43l-.67.45a3.6,3.6,0,0,0-.37-1.5,2.47,2.47,0,0,0-.91-1,2.51,2.51,0,0,0-1.33-.35,2.77,2.77,0,0,0-1.43.37,2.56,2.56,0,0,0-.95,1A3.32,3.32,0,0,0,37,76.42,3.24,3.24,0,0,0,37.39,78a2.59,2.59,0,0,0,1.08,1.07,3.51,3.51,0,0,0,1.64.37,4.68,4.68,0,0,0,1.68-.32,5.11,5.11,0,0,0,1.48-.87v1a4.8,4.8,0,0,1-1.54.91A4.9,4.9,0,0,1,39.94,80.54Z"/><path d="M51.72,78.09a2.13,2.13,0,0,1-.4,1.29,2.6,2.6,0,0,1-1.18.86,5.28,5.28,0,0,1-1.89.3,5.35,5.35,0,0,1-2-.35,3.15,3.15,0,0,1-1.35-1,2.59,2.59,0,0,1-.52-1.47h1.17a1.73,1.73,0,0,0,.43.94,2.4,2.4,0,0,0,.95.63,3.67,3.67,0,0,0,1.33.22A3.23,3.23,0,0,0,50,79.15a1.11,1.11,0,0,0,.62-1,.8.8,0,0,0-.4-.73,4,4,0,0,0-1.48-.37l-1.35-.15a4.76,4.76,0,0,1-1.61-.41,1.85,1.85,0,0,1-1.13-1.74A2,2,0,0,1,45,73.47a2.66,2.66,0,0,1,1.16-.79,5.07,5.07,0,0,1,1.73-.27,4.78,4.78,0,0,1,1.86.34,3.1,3.1,0,0,1,1.29.92A2.3,2.3,0,0,1,51.61,75H50.45a1.51,1.51,0,0,0-.37-.81,2.22,2.22,0,0,0-.86-.59,3.87,3.87,0,0,0-1.36-.22,3.14,3.14,0,0,0-1.55.32,1,1,0,0,0-.55.92.84.84,0,0,0,.36.71,2.87,2.87,0,0,0,1.28.37l1.54.18a5.19,5.19,0,0,1,1.66.39,1.81,1.81,0,0,1,.87.71A2.12,2.12,0,0,1,51.72,78.09Z"/><path d="M53.71,71.42a.81.81,0,0,1-.59-.24.84.84,0,0,1-.24-.61.85.85,0,0,1,.24-.61.81.81,0,0,1,.59-.24.82.82,0,0,1,.61.24.89.89,0,0,1,.23.61.87.87,0,0,1-.23.61A.82.82,0,0,1,53.71,71.42Zm-.56,1.15.57.11.57-.11v7.79H53.15Z"/><path d="M63.23,76.47a7,7,0,0,1-.83,2.13A4.48,4.48,0,0,1,61,80a3.4,3.4,0,0,1-3.6,0,3.56,3.56,0,0,1-1.25-1.43,4.76,4.76,0,0,1-.45-2.12,4.7,4.7,0,0,1,.45-2.12,3.63,3.63,0,0,1,1.25-1.43,3.31,3.31,0,0,1,1.83-.51,3.21,3.21,0,0,1,1.77.51,4.59,4.59,0,0,1,1.37,1.43A6.39,6.39,0,0,1,63.23,76.47Zm-6.33,0A3.51,3.51,0,0,0,57.23,78a2.62,2.62,0,0,0,.91,1.06,2.33,2.33,0,0,0,1.31.37,2.63,2.63,0,0,0,1.37-.37A4,4,0,0,0,61.94,78a6.36,6.36,0,0,0,.8-1.56,6.36,6.36,0,0,0-.8-1.56,3.82,3.82,0,0,0-1.12-1,2.55,2.55,0,0,0-1.37-.38,2.26,2.26,0,0,0-1.31.38,2.53,2.53,0,0,0-.91,1A3.51,3.51,0,0,0,56.9,76.47Zm5.9,3.89-.25-3,.34-.92-.31-1,.48-5.77h1.17l-.59,6.68L64,80.36Z"/><path d="M69.36,80.54A4.2,4.2,0,0,1,67.23,80a3.78,3.78,0,0,1-1.46-1.43,4.19,4.19,0,0,1-.52-2.12,4.34,4.34,0,0,1,.49-2.12,3.65,3.65,0,0,1,1.38-1.43,4,4,0,0,1,2-.51,3.49,3.49,0,0,1,3.28,2.11,5.46,5.46,0,0,1,.47,2.32H66.12v-1h6.29l-.67.45a3.46,3.46,0,0,0-.37-1.5,2.4,2.4,0,0,0-.91-1,2.5,2.5,0,0,0-1.32-.35,2.74,2.74,0,0,0-1.43.37,2.43,2.43,0,0,0-.95,1,3.32,3.32,0,0,0-.35,1.56A3.24,3.24,0,0,0,66.8,78a2.71,2.71,0,0,0,1.08,1.07,3.51,3.51,0,0,0,1.64.37,4.68,4.68,0,0,0,1.68-.32,5.16,5.16,0,0,0,1.49-.87v1a4.91,4.91,0,0,1-1.54.91A5,5,0,0,1,69.36,80.54Z"/><path d="M74,72.59h1.14l.4,2.64v5.13H74.39V75.05Zm4.44-.18a3,3,0,0,1,1.66.44,2.74,2.74,0,0,1,1,1.25,4.93,4.93,0,0,1,.36,2v4.28H80.35v-4a3.26,3.26,0,0,0-.58-2.11,2,2,0,0,0-1.68-.71,2.38,2.38,0,0,0-1.35.39A2.48,2.48,0,0,0,75.85,75a3.73,3.73,0,0,0-.32,1.59l-.46-.36a5,5,0,0,1,.54-2,3.29,3.29,0,0,1,1.17-1.3A3,3,0,0,1,78.43,72.41Z"/><path d="M82.25,73.61V73l1.54-.32.46-2.11h.68v2h3.41v1H84.93v4A2,2,0,0,0,85.35,79a1.76,1.76,0,0,0,1.29.42,3,3,0,0,0,1-.15,3.51,3.51,0,0,0,.83-.44V80a3.48,3.48,0,0,1-.87.38,4.06,4.06,0,0,1-1.2.18,2.83,2.83,0,0,1-1.52-.36,2.08,2.08,0,0,1-.83-1,3.76,3.76,0,0,1-.26-1.43V73.61Z"/><path d="M90.26,71.42a.82.82,0,0,1-.59-.24.84.84,0,0,1-.24-.61.85.85,0,0,1,.24-.61.82.82,0,0,1,.59-.24.81.81,0,0,1,.61.24.85.85,0,0,1,.24.61.84.84,0,0,1-.24.61A.81.81,0,0,1,90.26,71.42Zm-.55,1.15.57.11.57-.11v7.79H89.71Z"/><path d="M99.79,76.47A6.78,6.78,0,0,1,99,78.6,4.35,4.35,0,0,1,97.59,80,3.4,3.4,0,0,1,94,80a3.49,3.49,0,0,1-1.25-1.43,4.76,4.76,0,0,1-.45-2.12,4.7,4.7,0,0,1,.45-2.12A3.56,3.56,0,0,1,94,72.92a3.31,3.31,0,0,1,1.83-.51,3.26,3.26,0,0,1,1.77.51A4.59,4.59,0,0,1,99,74.35,6.39,6.39,0,0,1,99.79,76.47Zm-6.33,0A3.51,3.51,0,0,0,93.79,78a2.68,2.68,0,0,0,.9,1.06,2.36,2.36,0,0,0,1.31.37,2.64,2.64,0,0,0,1.38-.37A4,4,0,0,0,98.49,78a5.74,5.74,0,0,0,.8-1.56,5.74,5.74,0,0,0-.8-1.56,3.79,3.79,0,0,0-1.11-1A2.56,2.56,0,0,0,96,73.48a2.29,2.29,0,0,0-1.31.38,2.58,2.58,0,0,0-.9,1A3.51,3.51,0,0,0,93.46,76.47Zm5.88,3.89-.24-2.94.31-1-.31-.94.24-2.94h1.17l-.32,3.88.32,3.89Z"/><path d="M102.23,69.74h1.14V80.36h-1.14Z"/><path d="M17.23,88.63h1.14v2.94l-.06.25v1.25l.06.4v5.2H17.23Zm.6,3.88a7.29,7.29,0,0,1,.84-2.13A4.44,4.44,0,0,1,20,89a3.21,3.21,0,0,1,1.77-.51,3.31,3.31,0,0,1,1.83.51,3.44,3.44,0,0,1,1.24,1.42,4.64,4.64,0,0,1,.46,2.13,4.58,4.58,0,0,1-.46,2.11,3.5,3.5,0,0,1-1.24,1.44,3.32,3.32,0,0,1-1.83.52A3.21,3.21,0,0,1,20,96.07a4.59,4.59,0,0,1-1.37-1.43A7.4,7.4,0,0,1,17.83,92.51Zm6.34,0A3.51,3.51,0,0,0,23.84,91a2.56,2.56,0,0,0-.91-1.06,2.34,2.34,0,0,0-1.31-.38,2.64,2.64,0,0,0-1.37.38A3.71,3.71,0,0,0,19.14,91a6.74,6.74,0,0,0-.81,1.56,6.87,6.87,0,0,0,.81,1.55,3.59,3.59,0,0,0,1.11,1.06,2.64,2.64,0,0,0,1.37.38,2.34,2.34,0,0,0,1.31-.38,2.5,2.5,0,0,0,.91-1.06A3.5,3.5,0,0,0,24.17,92.51Z"/><path d="M26.47,88.63h1.14l.4,2.65V96.4H26.86V91Zm5.25,0v1.15a2.62,2.62,0,0,0-.55-.13,4.22,4.22,0,0,0-.6,0,2.4,2.4,0,0,0-1.33.37A2.47,2.47,0,0,0,28.33,91,4.08,4.08,0,0,0,28,92.71l-.33-.49a5.89,5.89,0,0,1,.24-1.51,3.6,3.6,0,0,1,.6-1.19,2.78,2.78,0,0,1,.95-.79,2.68,2.68,0,0,1,1.25-.28,3.44,3.44,0,0,1,.54,0A2.22,2.22,0,0,1,31.72,88.6Z"/><path d="M36.16,96.58A4.46,4.46,0,0,1,34,96.07a3.68,3.68,0,0,1-1.46-1.44,4.6,4.6,0,0,1,0-4.25A3.63,3.63,0,0,1,34,89a4.87,4.87,0,0,1,4.34,0,3.69,3.69,0,0,1,1.46,1.42,4.53,4.53,0,0,1,0,4.25,3.74,3.74,0,0,1-1.46,1.44A4.46,4.46,0,0,1,36.16,96.58Zm0-1.07a3.33,3.33,0,0,0,1.59-.36,2.58,2.58,0,0,0,1-1,3.29,3.29,0,0,0,.37-1.6,3.22,3.22,0,0,0-.37-1.59,2.6,2.6,0,0,0-1-1,3.6,3.6,0,0,0-3.18,0,2.57,2.57,0,0,0-1,1,3.33,3.33,0,0,0-.36,1.59,3.4,3.4,0,0,0,.36,1.6,2.54,2.54,0,0,0,1,1A3.33,3.33,0,0,0,36.16,95.51Z"/><path d="M41.75,88.63h1.14v2.94l-.06.25v1.25l.06.4v5.2H41.75Zm.6,3.88a7.29,7.29,0,0,1,.84-2.13A4.34,4.34,0,0,1,44.56,89a3.21,3.21,0,0,1,1.77-.51,3.26,3.26,0,0,1,1.82.51,3.46,3.46,0,0,1,1.25,1.42,4.64,4.64,0,0,1,.46,2.13,4.58,4.58,0,0,1-.46,2.11,3.52,3.52,0,0,1-1.25,1.44,3.26,3.26,0,0,1-1.82.52,3.21,3.21,0,0,1-1.77-.51,4.48,4.48,0,0,1-1.37-1.43A7.4,7.4,0,0,1,42.35,92.51Zm6.34,0A3.51,3.51,0,0,0,48.36,91a2.56,2.56,0,0,0-.91-1.06,2.34,2.34,0,0,0-1.31-.38,2.64,2.64,0,0,0-1.37.38A3.71,3.71,0,0,0,43.66,91a6.74,6.74,0,0,0-.81,1.56,6.87,6.87,0,0,0,.81,1.55,3.59,3.59,0,0,0,1.11,1.06,2.64,2.64,0,0,0,1.37.38,2.34,2.34,0,0,0,1.31-.38,2.5,2.5,0,0,0,.91-1.06A3.5,3.5,0,0,0,48.69,92.51Z"/><path d="M55,96.58a4.36,4.36,0,0,1-2.13-.52,3.72,3.72,0,0,1-1.45-1.44,4.06,4.06,0,0,1-.53-2.11,4.41,4.41,0,0,1,.49-2.13A3.69,3.69,0,0,1,52.76,89a4,4,0,0,1,2-.51,3.5,3.5,0,0,1,2,.55,3.63,3.63,0,0,1,1.31,1.55,5.47,5.47,0,0,1,.47,2.33H51.76v-1h6.29l-.67.46A3.5,3.5,0,0,0,57,90.82a2.4,2.4,0,0,0-.91-1,2.5,2.5,0,0,0-1.32-.34,2.74,2.74,0,0,0-1.43.36,2.49,2.49,0,0,0-1,1,3.32,3.32,0,0,0-.35,1.56,3.25,3.25,0,0,0,.39,1.63,2.69,2.69,0,0,0,1.08,1.06,3.39,3.39,0,0,0,1.64.37,4.67,4.67,0,0,0,1.68-.31,5.66,5.66,0,0,0,1.49-.87v1a4.93,4.93,0,0,1-1.54.92A5.2,5.2,0,0,1,55,96.58Z"/><path d="M59.63,88.63h1.14l.4,2.65V96.4H60V91Zm5.26,0v1.15a2.57,2.57,0,0,0-.56-.13,4.22,4.22,0,0,0-.6,0A2.33,2.33,0,0,0,61.5,91a3.92,3.92,0,0,0-.33,1.67l-.32-.49a5.49,5.49,0,0,1,.24-1.51,3.6,3.6,0,0,1,.6-1.19,2.74,2.74,0,0,1,.94-.79,2.7,2.7,0,0,1,1.25-.28,3.44,3.44,0,0,1,.54,0A2.33,2.33,0,0,1,64.89,88.6Z"/><path d="M65.17,89.65V89l1.54-.32.46-2.11h.68v2h3.41v1H67.85V93.6a2,2,0,0,0,.42,1.46,1.72,1.72,0,0,0,1.29.43,2.8,2.8,0,0,0,1-.16,3.18,3.18,0,0,0,.83-.44V96a3.12,3.12,0,0,1-.87.39,4.06,4.06,0,0,1-1.2.18,2.82,2.82,0,0,1-1.52-.37,2.05,2.05,0,0,1-.83-1,3.8,3.8,0,0,1-.26-1.43V89.65Z"/><path d="M73.18,87.46a.83.83,0,0,1-.59-.25.85.85,0,0,1,.59-1.45.81.81,0,0,1,.61.24.86.86,0,0,1-.61,1.46Zm-.55,1.14.57.11.57-.11v7.8H72.63Z"/><path d="M79.31,96.58a4.31,4.31,0,0,1-2.13-.52,3.81,3.81,0,0,1-1.46-1.44,4.15,4.15,0,0,1-.52-2.11,4.41,4.41,0,0,1,.49-2.13A3.56,3.56,0,0,1,77.07,89a4,4,0,0,1,2-.51,3.5,3.5,0,0,1,2,.55,3.63,3.63,0,0,1,1.31,1.55,5.47,5.47,0,0,1,.47,2.33H76.07v-1h6.29l-.67.46a3.5,3.5,0,0,0-.37-1.51,2.46,2.46,0,0,0-.91-1,2.51,2.51,0,0,0-1.33-.34,2.72,2.72,0,0,0-1.42.36,2.49,2.49,0,0,0-1,1,3.32,3.32,0,0,0-.35,1.56,3.25,3.25,0,0,0,.39,1.63,2.69,2.69,0,0,0,1.08,1.06,3.39,3.39,0,0,0,1.64.37,4.67,4.67,0,0,0,1.68-.31,5.66,5.66,0,0,0,1.49-.87v1a4.93,4.93,0,0,1-1.54.92A5.2,5.2,0,0,1,79.31,96.58Z"/><path d="M91.08,94.12a2.14,2.14,0,0,1-.4,1.3,2.6,2.6,0,0,1-1.18.85,5.25,5.25,0,0,1-1.88.31,5.17,5.17,0,0,1-2-.36,3.1,3.1,0,0,1-1.34-1,2.59,2.59,0,0,1-.53-1.48h1.17a1.81,1.81,0,0,0,.44.95,2.24,2.24,0,0,0,.94.62,3.67,3.67,0,0,0,1.33.22,3.38,3.38,0,0,0,1.7-.36,1.12,1.12,0,0,0,.61-1,.8.8,0,0,0-.4-.74,4.1,4.1,0,0,0-1.48-.37l-1.35-.15a5,5,0,0,1-1.61-.4,2,2,0,0,1-.86-.75,1.89,1.89,0,0,1-.26-1,2,2,0,0,1,.41-1.28,2.62,2.62,0,0,1,1.17-.78,5,5,0,0,1,1.72-.27,4.9,4.9,0,0,1,1.86.33,3.3,3.3,0,0,1,1.3.92A2.35,2.35,0,0,1,91,91.07H89.82a1.68,1.68,0,0,0-.38-.81,2,2,0,0,0-.86-.58,3.62,3.62,0,0,0-1.36-.22,3.18,3.18,0,0,0-1.55.31,1,1,0,0,0-.55.93.82.82,0,0,0,.36.7,2.79,2.79,0,0,0,1.28.37L88.3,92a5.87,5.87,0,0,1,1.67.39,1.79,1.79,0,0,1,.86.72A2.08,2.08,0,0,1,91.08,94.12Z"/><path class="cls-1" d="M6.93,0a6.93,6.93,0,1,0,6.93,6.93A6.93,6.93,0,0,0,6.93,0Zm3.3,5.72L6.32,9.45a.55.55,0,0,1-.74,0L3.63,7.58a.53.53,0,1,1,.74-.77L6,8.32,9.49,4.94a.54.54,0,0,1,.74.78Z"/><path class="cls-1" d="M6.93,36a6.93,6.93,0,1,0,6.93,6.93A6.93,6.93,0,0,0,6.93,36Zm3.3,5.72L6.32,45.4a.53.53,0,0,1-.74,0L3.63,43.54a.54.54,0,1,1,.74-.78L6,44.28,9.49,40.9a.53.53,0,1,1,.74.77Z"/></g></g></svg>