<svg xmlns="http://www.w3.org/2000/svg" viewBox="0 0 46 41.74"><defs><style>.cls-1{fill:#162e4e;}.cls-2{fill:#005992;}.cls-3{fill:#c5c5c5;}.cls-4{fill:#fff;}.cls-5{fill:#ffad00;}.cls-6{fill:#d18c0c;}.cls-7{fill:#fff8ea;}</style></defs><g id="Layer_2" data-name="Layer 2"><g id="Layer_1-2" data-name="Layer 1"><ellipse class="cls-1" cx="3.67" cy="33.94" rx="3.67" ry="7.8"/><path class="cls-1" d="M7.23,26.14H3.67c-2,0-3.67,3.49-3.67,7.8s1.64,7.8,3.67,7.8H7.23c2,0,3.67-3.49,3.67-7.8S9.26,26.14,7.23,26.14Z"/><path class="cls-2" d="M5.77,39.71a9.38,9.38,0,0,0,2-5.58,12.24,12.24,0,0,0-1.37-5.81A16.84,16.84,0,0,1,5.77,39.71Z"/><path class="cls-2" d="M1.34,33a12.65,12.65,0,0,0,0,2.61A4,4,0,0,0,2.43,38,16.45,16.45,0,0,1,1.34,33Z"/><ellipse class="cls-3" cx="3.95" cy="33.94" rx="1.88" ry="4"/><path class="cls-4" d="M2.07,33.94c0,2.21.84,4,1.88,4,.77,0,1.42-1,1.72-2.38a7.64,7.64,0,0,1-3.6-1.71Z"/><path class="cls-1" d="M4.47,36.07c-.61,0-1.08-.89-1.08-2.07s.47-2.08,1.08-2.08,1.09.89,1.09,2.08S5.09,36.07,4.47,36.07Zm0-3.76c-.32,0-.68.72-.68,1.69s.36,1.68.68,1.68S5.16,35,5.16,34,4.8,32.31,4.47,32.31Z"/><path class="cls-1" d="M24.18,26.14H20.63c-2,0-3.67,3.49-3.67,7.8s1.64,7.8,3.67,7.8h3.55c2,0,3.68-3.49,3.68-7.8S26.21,26.14,24.18,26.14Z"/><path class="cls-1" d="M35,29.72H32.28c-1.56,0-2.83,2.69-2.83,6s1.27,6,2.83,6H35c1.56,0,2.83-2.69,2.83-6S36.58,29.72,35,29.72Z"/><path class="cls-5" d="M38.69,19.24l-1.92-1.16L33.37,4.83a2.52,2.52,0,0,0-2.45-1.9H9.71A2.53,2.53,0,0,0,7.18,5.46V18.08H3.08v7.83c5.49.26,6.08,4.62,6.05,9.58H40.21V21.94A3.16,3.16,0,0,0,38.69,19.24Z"/><polygon class="cls-1" points="16.38 5.98 18.72 17.32 35.48 17.32 32.76 5.98 16.38 5.98"/><path class="cls-6" d="M19.07,19.21l-1.44-1.13-3-15.15H9.71A2.53,2.53,0,0,0,7.18,5.46V18.08H3.08v7.83c5.49.26,6.08,4.62,6.05,9.58H20.28V21.69A3.13,3.13,0,0,0,19.07,19.21Z"/><polygon class="cls-1" points="14.58 5.19 7.98 5.19 8.86 25.01 10.1 27.13 16.26 20.97 16.55 17.61 14.58 5.19"/><path class="cls-6" d="M14,28.66a18.77,18.77,0,0,1-6-.05c1,1.77,1.14,4.24,1.12,6.88H40.21V22.62A113.73,113.73,0,0,1,14,28.66Z"/><rect class="cls-1" x="22.4" y="21.43" width="16.96" height="11.63"/><rect class="cls-2" x="26.31" y="22.05" width="3.65" height="0.44"/><rect class="cls-2" x="26.31" y="23.82" width="3.65" height="0.44"/><rect class="cls-2" x="26.31" y="25.6" width="3.65" height="0.44"/><rect class="cls-2" x="26.31" y="27.37" width="3.65" height="0.44"/><rect class="cls-2" x="26.31" y="29.15" width="3.65" height="0.44"/><rect class="cls-2" x="26.31" y="30.92" width="3.65" height="0.44"/><rect class="cls-2" x="34.2" y="22.05" width="3.65" height="0.44"/><rect class="cls-2" x="34.2" y="23.82" width="3.65" height="0.44"/><rect class="cls-2" x="34.2" y="25.6" width="3.65" height="0.44"/><rect class="cls-2" x="34.2" y="27.37" width="3.65" height="0.44"/><rect class="cls-2" x="34.2" y="29.15" width="3.65" height="0.44"/><rect class="cls-2" x="34.2" y="30.92" width="3.65" height="0.44"/><path class="cls-2" d="M6.24,24.12H3.57a1.48,1.48,0,0,1-1.48-1.48V17.78A1.48,1.48,0,0,1,3.57,16.3H6.24Z"/><ellipse class="cls-1" cx="15.33" cy="35.73" rx="2.83" ry="6.01"/><path class="cls-1" d="M18.07,29.72H15.33c-1.57,0-2.83,2.69-2.83,6s1.26,6,2.83,6h2.74c1.56,0,2.82-2.69,2.82-6S19.63,29.72,18.07,29.72Z"/><path class="cls-2" d="M16.94,40.18a7.29,7.29,0,0,0,1.53-4.3,9.45,9.45,0,0,0-1.06-4.48A13,13,0,0,1,16.94,40.18Z"/><path class="cls-2" d="M13.53,35a9.74,9.74,0,0,0,0,2,3.1,3.1,0,0,0,.85,1.79A12.52,12.52,0,0,1,13.53,35Z"/><ellipse class="cls-3" cx="15.54" cy="35.73" rx="1.45" ry="3.08"/><path class="cls-4" d="M14.09,35.73c0,1.7.65,3.08,1.45,3.08.59,0,1.1-.75,1.32-1.83a5.83,5.83,0,0,1-2.77-1.32Z"/><path class="cls-1" d="M15.94,37.42c-.5,0-.87-.71-.87-1.64s.37-1.65.87-1.65.88.71.88,1.65S16.44,37.42,15.94,37.42Zm0-2.89c-.19,0-.48.48-.48,1.25s.29,1.25.48,1.25.49-.49.49-1.25S16.14,34.53,15.94,34.53Z"/><path class="cls-7" d="M46,36.28H39.36V3.55H38.9V36.28h-.4V0H36.8V9.34H35.48v.78H27.4V9.34h-.66V3.55h-.46V9.34h-.59V0H24V36.28H21.75v.79H24v2h1.71v-2H33v-.79H31.45V32H36.8v4.27h-2v.79h2v2h1.7v-2H46ZM35.48,10.72v.59H36.8V25.57H35.55v-.72h-2.3v.72h-3v-.72H28v.72H26.74V11.31h.66v-.59Zm-9.79,15.9h.59v4.8h-.59Zm0-15.31h.59V25.57h-.59Zm1,15.31H28v.2h2.25v4.6h-3.5Zm-1,5.39h.59v4.27h-.59Zm4.55,4.27h-3.5V32h3.5Zm1.21-4.86v-4.8h1.8v.2h2.3v-.2H36.8v4.8Z"/></g></g></svg>