<svg xmlns="http://www.w3.org/2000/svg" viewBox="0 0 218.19 83.94"><defs><style>.cls-1{fill:#162e4e;}.cls-2{fill:#ffad00;}.cls-3{fill:#fadeb8;}.cls-4{fill:#005992;}.cls-5{fill:#d18c0c;}</style></defs><g id="Layer_2" data-name="Layer 2"><g id="Layer_1-2" data-name="Layer 1"><rect class="cls-1" x="109.1" y="1.59" width="31.28" height="20.77"/><rect class="cls-2" x="115.93" y="1.59" width="31.28" height="20.77"/><rect class="cls-3" x="116.46" y="3.5" width="30.1" height="0.39"/><rect class="cls-3" x="117.71" y="3.78" width="0.39" height="6.35"/><rect class="cls-3" x="120.33" y="3.78" width="0.39" height="6.35"/><rect class="cls-3" x="122.96" y="3.78" width="0.39" height="6.35"/><rect class="cls-3" x="125.59" y="3.78" width="0.39" height="6.35"/><rect class="cls-3" x="128.22" y="3.78" width="0.39" height="6.35"/><rect class="cls-3" x="130.85" y="3.78" width="0.39" height="6.35"/><rect class="cls-3" x="133.48" y="3.78" width="0.39" height="6.35"/><rect class="cls-3" x="136.11" y="3.78" width="0.39" height="6.35"/><rect class="cls-3" x="138.74" y="3.78" width="0.39" height="6.35"/><rect class="cls-3" x="141.37" y="3.78" width="0.39" height="6.35"/><rect class="cls-3" x="143.99" y="3.78" width="0.39" height="6.35"/><rect class="cls-4" x="67.85" y="42.96" width="25.5" height="23.13"/><rect class="cls-1" x="67.85" y="42.96" width="4.8" height="23.13"/><rect class="cls-2" x="73.24" y="20.16" width="25.5" height="22.97"/><path class="cls-3" d="M97.53,22.62v-.39h-24v.39h.89V40.76h-.89v.4h24v-.4H96.15V22.62Zm-5.33,0V40.76H89.05V22.62Zm-3.54,0V40.76H85.5V22.62Zm-3.55,0V40.76H82V22.62Zm-3.55,0V40.76H78.4V22.62Zm-6.71,0H78V40.76H74.85Zm20.9,18.14H92.6V22.62h3.15Z"/><rect class="cls-5" x="98.32" y="20.26" width="24.71" height="22.87"/><rect class="cls-2" x="86.19" y="0.41" width="23.92" height="19.98"/><rect class="cls-5" x="76.33" y="0.41" width="23.92" height="19.98"/><rect class="cls-2" x="78.6" y="1.53" width="0.39" height="18.63"/><rect class="cls-2" x="81.75" y="1.53" width="0.39" height="18.63"/><rect class="cls-2" x="84.91" y="1.53" width="0.39" height="18.63"/><rect class="cls-2" x="88.06" y="1.53" width="0.39" height="18.63"/><rect class="cls-2" x="91.22" y="1.53" width="0.39" height="18.63"/><rect class="cls-2" x="94.37" y="1.53" width="0.39" height="18.63"/><rect class="cls-2" x="97.53" y="1.53" width="0.39" height="18.63"/><rect class="cls-1" x="23.52" y="32.35" width="34.24" height="37.66"/><rect class="cls-2" x="20.76" y="32.35" width="39.76" height="2.37"/><rect class="cls-5" x="33.78" y="32.35" width="34.24" height="37.66"/><rect class="cls-1" x="35.22" y="41.55" width="2.76" height="2.76"/><rect class="cls-1" x="39.27" y="41.55" width="2.76" height="2.76"/><rect class="cls-1" x="43.31" y="41.55" width="2.76" height="2.76"/><rect class="cls-1" x="56.32" y="41.55" width="2.76" height="2.76"/><rect class="cls-1" x="60.36" y="41.55" width="2.76" height="2.76"/><rect class="cls-1" x="64.4" y="41.55" width="2.76" height="2.76"/><path class="cls-2" d="M40.81,58.84H36.08V47.79h4.73Zm-4.34-.4h4V48.19h-4Z"/><path class="cls-2" d="M47.25,58.84H42.52V47.79h4.73Zm-4.34-.4h4V48.19h-4Z"/><path class="cls-2" d="M53.69,58.84H49V47.79h4.73Zm-4.34-.4H53.3V48.19H49.35Z"/><path class="cls-2" d="M60.13,58.84H55.4V47.79h4.73Zm-4.34-.4h4V48.19h-4Z"/><path class="cls-2" d="M66.57,58.84H61.84V47.79h4.73Zm-4.33-.4h3.94V48.19H62.24Z"/><rect class="cls-1" x="33.78" y="32.35" width="34.24" height="7.49"/><rect class="cls-2" x="31.02" y="32.35" width="39.76" height="2.37"/><rect class="cls-1" x="36.87" y="6.59" width="13.87" height="13.34"/><rect class="cls-5" x="43.18" y="6.59" width="13.87" height="13.34"/><rect class="cls-1" x="43.18" y="6.59" width="13.87" height="5.06"/><rect class="cls-3" x="53.69" y="12.44" width="1.58" height="3.88"/><rect class="cls-3" x="50.41" y="12.83" width="2.83" height="1.25"/><rect class="cls-2" x="34.37" y="5.14" width="24.38" height="2.37"/><rect class="cls-2" x="37.79" y="0.34" width="1.38" height="6.51"/><rect class="cls-2" x="42.32" y="2.51" width="1.38" height="3.35"/><rect class="cls-2" x="48.83" y="1.92" width="3.75" height="4.73"/><rect class="cls-1" x="27.99" y="19.01" width="25.3" height="13.34"/><rect class="cls-2" x="24.12" y="17.56" width="33.06" height="2.37"/><rect class="cls-5" x="38.25" y="19.01" width="25.3" height="13.34"/><rect class="cls-1" x="39.66" y="23.31" width="2.76" height="2.76"/><rect class="cls-1" x="43.7" y="23.31" width="2.76" height="2.76"/><rect class="cls-1" x="47.74" y="23.31" width="2.76" height="2.76"/><rect class="cls-1" x="51.79" y="23.31" width="2.76" height="2.76"/><rect class="cls-3" x="40.02" y="28.67" width="4.67" height="2.89"/><rect class="cls-3" x="59.87" y="23.21" width="1.25" height="2.56"/><rect class="cls-1" x="38.25" y="19.01" width="25.3" height="3.29"/><rect class="cls-2" x="34.37" y="17.56" width="33.06" height="2.37"/><path class="cls-1" d="M205.47,16.29C200.73,11.14,192.92,4.44,187.55,0c-19.62,1.54-38.85,6.55-57.63,12.62-7.38,2.39-15,5.15-20.32,11-4.27,4.71-6.71,11.16-11.74,15-2.7,2.06-5.94,3.18-9.12,4.26A824.86,824.86,0,0,1,0,67.43,95.28,95.28,0,0,0,9.37,83.94l188.79,0c-1.08-2.62-.33-5.71,1.14-8.11s3.59-4.28,5.53-6.3a54.34,54.34,0,0,0,9.76-14,32.1,32.1,0,0,0,3.59-13.29C218.35,32.26,212.09,23.5,205.47,16.29Z"/><path class="cls-4" d="M205.33,16.29C200.65,11.19,193,4.58,187.59.14c2,15.26,3.61,30.56,1.62,46.14a147,147,0,0,1-9.38,37.63H198c-1.07-2.62-.32-5.71,1.15-8.11s3.59-4.28,5.53-6.3a54.34,54.34,0,0,0,9.76-14,32.1,32.1,0,0,0,3.59-13.29C218.22,32.26,212,23.5,205.33,16.29Z"/><path class="cls-2" d="M32.53,63l-.13-.38c9-3,17.42-5.43,25.54-7.74,12.4-3.53,24.11-6.86,37.32-12.2,2.65-1.07,5.93-2.4,7.87-5l.05-.08a89.92,89.92,0,0,0,6-8.79c3.62-7.11,14.19-10,21.19-11.89,19.21-5.23,38.8-10.11,58.22-14.5l.09.38c-19.41,4.39-39,9.27-58.21,14.5-6.93,1.89-17.39,4.74-20.94,11.69a88.66,88.66,0,0,1-6,8.85l-.06.07c-2,2.7-5.34,4-8,5.13-13.23,5.35-25,8.69-37.36,12.22C49.94,57.61,41.54,60,32.53,63Z"/></g></g></svg>