<svg xmlns="http://www.w3.org/2000/svg" viewBox="0 0 162.6 152.34"><defs><style>.cls-1{fill:#d18c0c;}.cls-2{fill:#ffad00;}.cls-3{fill:#005992;}.cls-4{fill:#162e4e;}</style></defs><g id="Layer_2" data-name="Layer 2"><g id="Layer_1-2" data-name="Layer 1"><polygon class="cls-1" points="50.86 48.85 49.67 48.85 44.17 37.88 45.36 37.88 50.86 48.85"/><polygon class="cls-1" points="53.09 48.85 51.91 48.85 46.41 37.88 47.59 37.88 53.09 48.85"/><polygon class="cls-1" points="125.01 48.85 126.2 48.85 131.69 37.88 130.51 37.88 125.01 48.85"/><polygon class="cls-1" points="122.78 48.85 123.96 48.85 129.46 37.88 128.28 37.88 122.78 48.85"/><rect class="cls-1" x="77.81" y="7.23" width="8.68" height="145.12"/><rect class="cls-2" x="81.82" y="7.23" width="4.67" height="145.12"/><rect class="cls-1" x="13.14" y="26.95" width="1.38" height="6.7"/><rect class="cls-1" x="21.52" y="26.95" width="1.38" height="6.7"/><rect class="cls-1" x="29.9" y="26.95" width="1.38" height="6.7"/><rect class="cls-1" x="38.28" y="26.95" width="1.38" height="6.7"/><rect class="cls-1" x="46.66" y="26.95" width="1.38" height="6.7"/><rect class="cls-1" x="55.04" y="26.95" width="1.38" height="6.7"/><rect class="cls-1" x="63.42" y="26.95" width="1.38" height="6.7"/><rect class="cls-1" x="71.8" y="26.95" width="1.38" height="6.7"/><rect class="cls-1" x="102.95" y="26.95" width="1.38" height="6.7"/><rect class="cls-1" x="111.63" y="26.95" width="1.38" height="6.7"/><rect class="cls-1" x="120.31" y="26.95" width="1.38" height="6.7"/><rect class="cls-1" x="128.98" y="26.95" width="1.38" height="6.7"/><rect class="cls-1" x="137.66" y="26.95" width="1.38" height="6.7"/><rect class="cls-1" x="146.33" y="26.95" width="1.38" height="6.7"/><rect class="cls-1" x="155.01" y="26.95" width="1.38" height="6.7"/><rect class="cls-1" x="161.12" y="26.95" width="1.38" height="6.7"/><rect class="cls-1" x="83.6" y="7.23" width="2.89" height="145.12"/><rect class="cls-1" x="93.98" y="7.23" width="3.15" height="145.12"/><rect class="cls-1" x="12.75" y="31.7" width="149.85" height="9.7"/><rect class="cls-1" x="23.3" y="40.45" width="5.72" height="3.75"/><rect class="cls-1" x="12.75" y="26.63" width="149.85" height="1.27"/><rect class="cls-1" x="48.24" y="57.69" width="78.87" height="1.58"/><rect class="cls-1" x="48.24" y="46.85" width="78.87" height="4.15"/><rect class="cls-2" x="12.75" y="31.7" width="149.85" height="2.6"/><rect class="cls-1" x="81.63" y="62.44" width="13.67" height="1.84"/><rect class="cls-1" x="81.63" y="70.85" width="13.67" height="1.84"/><rect class="cls-1" x="14.56" y="37.99" width="0.52" height="16.56"/><path class="cls-1" d="M16.9,49.54l2.58-4.44a1.15,1.15,0,0,0-1-1.72h-6.8a1.15,1.15,0,0,0-1.1,1.46l1.28,4.44a1.13,1.13,0,0,0,1.1.83h2.94A1.12,1.12,0,0,0,16.9,49.54Z"/><rect class="cls-1" x="10.19" y="33.55" width="8.38" height="8.77"/><path class="cls-2" d="M15.31,36.68a2,2,0,1,1-2-2A2,2,0,0,1,15.31,36.68Z"/><circle class="cls-2" cx="25.37" cy="42.2" r="0.59"/><path class="cls-2" d="M31,40.06a.43.43,0,0,1-.43.43.43.43,0,0,1-.43-.43.43.43,0,0,1,.43-.43A.44.44,0,0,1,31,40.06Z"/><rect class="cls-1" x="139.04" y="40.45" width="5.72" height="3.75"/><rect class="cls-1" x="57.61" y="40.65" width="2.37" height="2.66"/><rect class="cls-1" x="62.63" y="40.65" width="2.37" height="2.66"/><rect class="cls-1" x="49.95" y="49.95" width="0.92" height="8.28"/><rect class="cls-1" x="68.35" y="49.95" width="0.92" height="8.28"/><rect class="cls-1" x="71.11" y="49.95" width="0.92" height="8.28"/><rect class="cls-1" x="102" y="49.95" width="0.92" height="8.28"/><rect class="cls-1" x="105.42" y="49.95" width="0.92" height="8.28"/><rect class="cls-1" x="124.48" y="49.95" width="0.92" height="8.28"/><rect class="cls-1" x="81.63" y="13.28" width="13.67" height="1.84"/><rect class="cls-1" x="77.42" y="6.97" width="22.08" height="1.84"/><rect class="cls-1" x="80.97" width="14.98" height="6.84"/><rect class="cls-2" x="93.59" width="2.37" height="6.84"/><rect class="cls-1" x="76.24" y="1.58" width="24.71" height="2.63"/><rect class="cls-3" y="53.37" width="20.51" height="20.51"/><rect class="cls-4" x="5.26" y="53.37" width="20.51" height="20.51"/><polygon class="cls-3" points="5.16 55.24 5.16 55.63 6.54 55.63 6.54 69.73 6.93 69.73 6.93 55.63 9 55.63 9 69.73 9.4 69.73 9.4 55.63 11.47 55.63 11.47 69.73 11.86 69.73 11.86 55.63 13.93 55.63 13.93 69.73 14.33 69.73 14.33 55.63 16.4 55.63 16.4 69.73 16.79 69.73 16.79 55.63 18.86 55.63 18.86 69.73 19.26 69.73 19.26 55.63 21.33 55.63 21.33 69.73 21.72 69.73 21.72 55.63 23.79 55.63 23.79 69.73 24.19 69.73 24.19 55.63 25.07 55.63 25.07 55.24 5.16 55.24"/><rect class="cls-3" x="5.16" y="71.8" width="19.92" height="0.39"/></g></g></svg>