<svg xmlns="http://www.w3.org/2000/svg" viewBox="0 0 182.08 58.32"><defs><style>.cls-1{fill:#fff;}</style></defs><g id="Layer_2" data-name="Layer 2"><g id="Layer_1-2" data-name="Layer 1"><path class="cls-1" d="M4.23,7.58C2.12,7.15.31,6.06.31,3.79.31,1.16,3.13,0,5.53,0c2.7,0,5,1.59,5.14,4.1H8.18c-.2-1.54-1.53-2-2.76-2s-2.53.45-2.53,1.62c0,.92.76,1.43,1.82,1.63l1.72.3c2.13.4,4.48,1.21,4.48,3.94s-2.68,4-5.31,4C2.39,13.56.26,11.82,0,9H2.51c.29,1.93,1.63,2.49,3.18,2.49,1.15,0,2.62-.44,2.62-1.83,0-1.1-1-1.55-2.42-1.78Z"/><path class="cls-1" d="M13,1h2.5V3.61h2V5.32h-2v5c0,1,.34,1.19,1.22,1.19h.76v1.79H15.62c-2.24,0-2.66-.68-2.66-2.62V5.32H11.59V3.61H13Z"/><path class="cls-1" d="M24.63,6a7.11,7.11,0,0,0-1,0c-1.23,0-2,.45-2,2.27v5.09H19.07V3.61h2.45v1.7a2.6,2.6,0,0,1,2.56-1.68l.55,0Z"/><path class="cls-1" d="M27.75,9.15a2.45,2.45,0,0,0,2.45,2.47,2.21,2.21,0,0,0,2-1.12h2.57a4.64,4.64,0,0,1-4.59,3.06,4.82,4.82,0,0,1-4.94-5.13,4.78,4.78,0,0,1,4.87-5c3,0,4.86,2.33,4.77,5.76Zm0-1.71h4.6a2.13,2.13,0,0,0-2.26-2.22A2.32,2.32,0,0,0,27.79,7.44Z"/><path class="cls-1" d="M42.08,6.53A1.94,1.94,0,0,0,40,5.14c-.92,0-1.57.35-1.57.94s.38.92,1.3,1.12l1.3.29c1.93.43,3.57.92,3.57,2.93s-2,3.14-4.21,3.14c-2.38,0-4.18-1.23-4.42-3.45h2.4a1.9,1.9,0,0,0,2.1,1.64c1.08,0,1.75-.4,1.75-1.1s-.74-1-1.59-1.19l-1.45-.31c-1.82-.38-3-1.14-3-2.9s1.88-2.89,4-2.89,3.94.94,4.28,3.17Z"/><path class="cls-1" d="M51.63,6.53a1.94,1.94,0,0,0-2.07-1.39c-.92,0-1.57.35-1.57.94s.38.92,1.3,1.12l1.3.29c1.93.43,3.57.92,3.57,2.93s-2,3.14-4.21,3.14c-2.38,0-4.18-1.23-4.42-3.45h2.4A1.9,1.9,0,0,0,50,11.75c1.08,0,1.75-.4,1.75-1.1s-.74-1-1.59-1.19l-1.45-.31c-1.82-.38-3-1.14-3-2.9s1.88-2.89,4-2.89S53.62,4.3,54,6.53Z"/><path class="cls-1" d="M71.74,7.67c0-1.06-.09-2.27-1.55-2.27-1.66,0-1.93,1.39-1.93,2.87v5.05H65.77V7.67c0-1.06-.09-2.27-1.55-2.27-1.67,0-1.94,1.39-1.94,2.87v5.05H59.79V3.61h2.49V4.89A3,3,0,0,1,65,3.39,2.9,2.9,0,0,1,67.75,5,3.59,3.59,0,0,1,71,3.39c2.44,0,3.28,1.52,3.28,3.81v6.12H71.74Z"/><path class="cls-1" d="M78.82.23V2.54H76.33V.23Zm0,3.38v9.71H76.33V3.61Z"/><path class="cls-1" d="M81.4,1h2.49V3.61h2V5.32h-2v5c0,1,.35,1.19,1.23,1.19h.76v1.79H84.05c-2.23,0-2.65-.68-2.65-2.62V5.32H80V3.61H81.4Z"/><path class="cls-1" d="M98,13.32V12.09a3.12,3.12,0,0,1-2.8,1.47c-2.31,0-4.22-2-4.22-5.09s1.88-5.08,4.22-5.08A3.1,3.1,0,0,1,98,4.86V.23h2.49V13.32Zm.09-4.85c0-2-.9-3.16-2.27-3.16s-2.22,1.28-2.22,3.17.92,3.16,2.22,3.16S98.06,10.47,98.06,8.47Z"/><path class="cls-1" d="M104.54,9.15A2.47,2.47,0,0,0,107,11.62a2.22,2.22,0,0,0,2-1.12h2.56A4.62,4.62,0,0,1,107,13.56a4.82,4.82,0,0,1-5-5.13,4.79,4.79,0,0,1,4.88-5c3,0,4.85,2.33,4.76,5.76Zm0-1.71h4.6a2.12,2.12,0,0,0-2.25-2.22A2.33,2.33,0,0,0,104.58,7.44Z"/><path class="cls-1" d="M125.27,7.67c0-1.06-.09-2.27-1.55-2.27-1.67,0-1.94,1.39-1.94,2.87v5.05h-2.49V7.67c0-1.06-.09-2.27-1.55-2.27-1.66,0-1.93,1.39-1.93,2.87v5.05h-2.49V3.61h2.49V4.89a3,3,0,0,1,2.71-1.5A2.9,2.9,0,0,1,121.28,5a3.56,3.56,0,0,1,3.19-1.59c2.44,0,3.29,1.52,3.29,3.81v6.12h-2.49Z"/><path class="cls-1" d="M137.69.23h2.6l4.89,13.09h-2.8l-.92-2.65h-5.09l-.92,2.65h-2.63Zm-.58,8.33h3.61l-1.8-5.17Z"/><path class="cls-1" d="M152,12a3.15,3.15,0,0,1-2.84,1.52c-2.33,0-3.26-1.43-3.26-3.81V3.61h2.49v5.6c0,1.29.2,2.34,1.58,2.34,1.67,0,2-1.35,2-2.89V3.61h2.49v9.71H152Z"/><path class="cls-1" d="M157.06,1h2.49V3.61h2V5.32h-2v5c0,1,.34,1.19,1.23,1.19h.76v1.79h-1.83c-2.24,0-2.65-.68-2.65-2.62V5.32h-1.37V3.61h1.37Z"/><path class="cls-1" d="M162.51,8.48a4.88,4.88,0,1,1,9.75,0,4.88,4.88,0,1,1-9.75,0Zm2.53,0c0,2,1,3.13,2.34,3.13s2.35-1.09,2.35-3.13-1-3.14-2.35-3.14S165,6.44,165,8.48Z"/><path class="cls-1" d="M182.08,3.3a3.93,3.93,0,0,1-2.22,3.32c-1.17.69-1.7,1.07-1.7,2.39v.56h-2.43V9a3.35,3.35,0,0,1,1.93-3.32c1.13-.67,1.91-1.26,1.91-2.2a1.76,1.76,0,0,0-1.91-1.54,2.23,2.23,0,0,0-2.39,2.44h-2.45c0-2.65,2.08-4.33,4.87-4.33C179.9,0,182.08,1.05,182.08,3.3Zm-6.48,10V10.61h2.67v2.71Z"/><path class="cls-1" d="M.74,21.36h9.53v2.09H3.33V26.7H9.9v2.09H3.33v3.56h6.94v2.09H.74Z"/><path class="cls-1" d="M14.86,21.36v2.31H12.37V21.36Zm0,3.37v9.71H12.37V24.73Z"/><path class="cls-1" d="M19.59,26a3.1,3.1,0,0,1,2.82-1.49c2.33,0,3.35,1.4,3.35,3.81v6.11H23.27V28.87c0-1.25-.27-2.35-1.68-2.35-1.64,0-2,1.34-2,2.87v5H17.1V24.73h2.49Z"/><path class="cls-1" d="M28.09,24.19c0-2.45,1.16-2.83,3.6-2.83h.84V23.2h-.48c-1.23,0-1.47.14-1.47,1.06v.47h2v1.72h-2v8H28.09v-8H26.72V24.73h1.37Z"/><path class="cls-1" d="M36.36,34.68c-1.86,0-3.5-1.08-3.5-2.85,0-2.3,2.56-3,6.39-3.41v-.17c0-1.5-.81-2-1.82-2a1.62,1.62,0,0,0-1.81,1.57H33.29c.2-1.91,1.75-3.32,4.26-3.32,2.3,0,4.19,1,4.19,4.28,0,.29,0,1.61,0,2.47A12.87,12.87,0,0,0,42,34.44H39.7a11.08,11.08,0,0,1-.16-1.2A3.53,3.53,0,0,1,36.36,34.68Zm3-4.68c-2.8.29-3.9.62-3.9,1.7,0,.7.54,1.28,1.68,1.28a2,2,0,0,0,2.22-2.25Z"/><path class="cls-1" d="M52.46,28.05H50.08a2.07,2.07,0,0,0-2-1.6c-1.3,0-2.33,1.1-2.33,3.12s1,3.18,2.35,3.18a2.1,2.1,0,0,0,2.09-1.61h2.38A4.31,4.31,0,0,1,48,34.68c-2.91,0-4.76-2.13-4.76-5.07a4.76,4.76,0,0,1,4.87-5.09A4.16,4.16,0,0,1,52.46,28.05Z"/><path class="cls-1" d="M56.53,26a3.08,3.08,0,0,1,2.81-1.49c2.33,0,3.36,1.4,3.36,3.81v6.11H60.21V28.87c0-1.25-.27-2.35-1.68-2.35-1.64,0-2,1.34-2,2.87v5H54V21.36h2.49Z"/><path class="cls-1" d="M74.34,27.66a1.92,1.92,0,0,0-2.07-1.39c-.92,0-1.57.34-1.57.94s.38.92,1.3,1.12l1.3.28c1.93.44,3.57.92,3.57,2.93s-2,3.14-4.2,3.14c-2.39,0-4.19-1.23-4.43-3.45h2.4a1.9,1.9,0,0,0,2.1,1.64c1.08,0,1.75-.39,1.75-1.1s-.74-1-1.59-1.19l-1.44-.31c-1.83-.37-3-1.13-3-2.9s1.88-2.89,4-2.89,3.94.94,4.28,3.18Z"/><path class="cls-1" d="M78.89,22.1h2.49v2.63h2v1.72h-2v5c0,1,.35,1.19,1.23,1.19h.76v1.78H81.55c-2.24,0-2.66-.68-2.66-2.61V26.45H77.52V24.73h1.37Z"/><path class="cls-1" d="M90.55,27.13a7,7,0,0,0-1-.05c-1.23,0-2,.45-2,2.27v5.09H85V24.73h2.45v1.7A2.6,2.6,0,0,1,90,24.75a4.73,4.73,0,0,1,.54,0Z"/><path class="cls-1" d="M93.68,30.27a2.46,2.46,0,0,0,2.45,2.48,2.21,2.21,0,0,0,2-1.12h2.57a4.65,4.65,0,0,1-4.59,3.05,4.82,4.82,0,0,1-4.94-5.13,4.78,4.78,0,0,1,4.87-5c3,0,4.85,2.32,4.76,5.75Zm0-1.71h4.61a2.13,2.13,0,0,0-2.26-2.22A2.34,2.34,0,0,0,93.71,28.56Z"/><path class="cls-1" d="M104.94,21.36v2.31h-2.49V21.36Zm0,3.37v9.71h-2.49V24.73Z"/><path class="cls-1" d="M115.83,28.05h-2.38a2.08,2.08,0,0,0-2-1.6c-1.3,0-2.33,1.1-2.33,3.12s1,3.18,2.35,3.18a2.11,2.11,0,0,0,2.1-1.61h2.38a4.32,4.32,0,0,1-4.6,3.54c-2.91,0-4.77-2.13-4.77-5.07a4.77,4.77,0,0,1,4.87-5.09A4.17,4.17,0,0,1,115.83,28.05Z"/><path class="cls-1" d="M119.89,26a3.1,3.1,0,0,1,2.82-1.49c2.33,0,3.35,1.4,3.35,3.81v6.11h-2.49V28.87c0-1.25-.27-2.35-1.68-2.35-1.64,0-2,1.34-2,2.87v5H117.4V21.36h2.49Z"/><path class="cls-1" d="M130,30.27a2.46,2.46,0,0,0,2.46,2.48,2.23,2.23,0,0,0,2-1.12h2.56a4.63,4.63,0,0,1-4.59,3.05,4.82,4.82,0,0,1-4.94-5.13,4.78,4.78,0,0,1,4.87-5c3,0,4.86,2.32,4.77,5.75Zm0-1.71h4.6a2.13,2.13,0,0,0-2.26-2.22A2.33,2.33,0,0,0,130,28.56Z"/><path class="cls-1" d="M141.27,26a3.08,3.08,0,0,1,2.81-1.49c2.33,0,3.36,1.4,3.36,3.81v6.11H145V28.87c0-1.25-.27-2.35-1.68-2.35-1.64,0-2,1.34-2,2.87v5h-2.5V24.73h2.5Z"/><path class="cls-1" d="M149.48,34.44v-2.7h2.67v2.7Z"/><path class="cls-1" d="M3,58.13H0L4.53,45H8.11l4.53,13.13h-3L6.37,48h-.1ZM2.79,53h7v2.16h-7Z"/><path class="cls-1" d="M20.48,53.94V48.28h2.73v9.85H20.58V56.34h-.1a2.9,2.9,0,0,1-1.1,1.39,3.59,3.59,0,0,1-3.62.08,3.09,3.09,0,0,1-1.17-1.28,4.45,4.45,0,0,1-.43-2V48.28h2.73v5.78a2,2,0,0,0,.47,1.38A1.59,1.59,0,0,0,18.6,56a2,2,0,0,0,.92-.23,1.76,1.76,0,0,0,.7-.68A2.16,2.16,0,0,0,20.48,53.94Z"/><path class="cls-1" d="M30.62,48.28v2H24.69v-2ZM26,45.92h2.73V55.1a1.21,1.21,0,0,0,.12.59.6.6,0,0,0,.32.29,1.21,1.21,0,0,0,.48.08l.39,0,.29-.06.43,2-.57.15a5.37,5.37,0,0,1-.91.1A4,4,0,0,1,27.6,58a2.4,2.4,0,0,1-1.16-.94,2.9,2.9,0,0,1-.4-1.6Z"/><path class="cls-1" d="M36.75,58.32a4.94,4.94,0,0,1-2.58-.64,4.24,4.24,0,0,1-1.68-1.78,5.76,5.76,0,0,1-.59-2.66,5.83,5.83,0,0,1,.59-2.67,4.3,4.3,0,0,1,1.68-1.78,5,5,0,0,1,2.58-.64,5.09,5.09,0,0,1,2.58.64A4.34,4.34,0,0,1,41,50.57a5.71,5.71,0,0,1,.59,2.67A5.64,5.64,0,0,1,41,55.9a4.28,4.28,0,0,1-1.67,1.78A5,5,0,0,1,36.75,58.32Zm0-2.11a1.67,1.67,0,0,0,1.13-.39,2.28,2.28,0,0,0,.69-1.06,5,5,0,0,0,0-3.07,2.28,2.28,0,0,0-.69-1.06,1.67,1.67,0,0,0-1.13-.39,1.72,1.72,0,0,0-1.15.39,2.38,2.38,0,0,0-.7,1.06,5,5,0,0,0,0,3.07,2.38,2.38,0,0,0,.7,1.06A1.72,1.72,0,0,0,36.76,56.21Z"/><path class="cls-1" d="M45.72,54.19V54a6.93,6.93,0,0,1,.2-1.78,2.65,2.65,0,0,1,.58-1.08,4.29,4.29,0,0,1,.91-.75,5.7,5.7,0,0,0,.71-.53,2.2,2.2,0,0,0,.5-.61,1.54,1.54,0,0,0,.18-.75,1.42,1.42,0,0,0-.21-.78,1.45,1.45,0,0,0-.56-.51,1.73,1.73,0,0,0-.79-.18,1.79,1.79,0,0,0-.79.18,1.51,1.51,0,0,0-.61.54,1.63,1.63,0,0,0-.25.88H43a3.79,3.79,0,0,1,.62-2.12,3.57,3.57,0,0,1,1.54-1.25,5.41,5.41,0,0,1,2.12-.41,5.69,5.69,0,0,1,2.26.42,3.53,3.53,0,0,1,1.54,1.21,3.27,3.27,0,0,1,.56,1.92,3.46,3.46,0,0,1-.25,1.33,3.11,3.11,0,0,1-.69,1,5.39,5.39,0,0,1-1,.8,4.18,4.18,0,0,0-.84.63,2.23,2.23,0,0,0-.48.76,3.41,3.41,0,0,0-.16,1v.22ZM47,58.29a1.53,1.53,0,1,1,1.07-2.61,1.47,1.47,0,0,1,.25,1.85,1.67,1.67,0,0,1-.56.56A1.54,1.54,0,0,1,47,58.29Z"/><path class="cls-1" d="M60,58.13h-3L61.59,45h3.58l4.52,13.13h-3L63.43,48h-.1ZM59.84,53h7v2.16h-7Z"/><path class="cls-1" d="M71.27,58.13V45H74v4.93h.08a4.21,4.21,0,0,1,.52-.81,2.91,2.91,0,0,1,.9-.69,3.14,3.14,0,0,1,1.38-.28,3.76,3.76,0,0,1,2,.56,4,4,0,0,1,1.46,1.69,7.59,7.59,0,0,1,0,5.6,4,4,0,0,1-1.43,1.71,3.75,3.75,0,0,1-2,.58A3.22,3.22,0,0,1,75.53,58a2.87,2.87,0,0,1-.91-.67,3.81,3.81,0,0,1-.54-.81H74v1.58Zm2.67-4.93a4.49,4.49,0,0,0,.24,1.54,2.31,2.31,0,0,0,.71,1,1.9,1.9,0,0,0,2.25,0,2.28,2.28,0,0,0,.7-1,4.41,4.41,0,0,0,.24-1.52,4.63,4.63,0,0,0-.23-1.5,2.29,2.29,0,0,0-.7-1A1.81,1.81,0,0,0,76,50.33a1.74,1.74,0,0,0-1.12.35,2.22,2.22,0,0,0-.71,1A4.37,4.37,0,0,0,73.94,53.2Z"/><path class="cls-1" d="M87.13,58.32a5,5,0,0,1-2.58-.64,4.28,4.28,0,0,1-1.67-1.78,5.64,5.64,0,0,1-.59-2.66,5.71,5.71,0,0,1,.59-2.67,4.34,4.34,0,0,1,1.67-1.78,5.09,5.09,0,0,1,2.58-.64,5,5,0,0,1,2.58.64,4.3,4.3,0,0,1,1.68,1.78A5.83,5.83,0,0,1,92,53.24a5.76,5.76,0,0,1-.59,2.66,4.24,4.24,0,0,1-1.68,1.78A4.94,4.94,0,0,1,87.13,58.32Zm0-2.11a1.67,1.67,0,0,0,1.13-.39A2.28,2.28,0,0,0,89,54.76a5,5,0,0,0,0-3.07,2.28,2.28,0,0,0-.69-1.06,1.67,1.67,0,0,0-1.13-.39,1.72,1.72,0,0,0-1.15.39,2.3,2.3,0,0,0-.7,1.06,5,5,0,0,0,0,3.07,2.3,2.3,0,0,0,.7,1.06A1.72,1.72,0,0,0,87.15,56.21Z"/><path class="cls-1" d="M95.6,58.29a1.51,1.51,0,0,1-1.09-.45,1.55,1.55,0,0,1,0-2.16,1.51,1.51,0,0,1,1.09-.45,1.51,1.51,0,0,1,1.32,2.3,1.67,1.67,0,0,1-.56.56A1.51,1.51,0,0,1,95.6,58.29ZM97,45l-.25,9.19H94.43L94.17,45Z"/><path class="cls-1" d="M103.86,58.13V45h8.69v2.29h-5.91v3.13H112V52.7h-5.34v5.43Z"/><path class="cls-1" d="M117.19,45V58.13h-2.77V45Z"/><path class="cls-1" d="M130.46,45V58.13h-2.39l-5.72-8.27h-.09v8.27h-2.78V45h2.44l5.67,8.26h.11V45Z"/><path class="cls-1" d="M143.74,45V58.13h-2.4l-5.71-8.27h-.1v8.27h-2.78V45h2.44l5.67,8.26H141V45Z"/><path class="cls-1" d="M147.57,58.29a1.5,1.5,0,0,1-1.09-.45,1.52,1.52,0,0,1,0-2.16,1.55,1.55,0,0,1,2.63,1.08,1.38,1.38,0,0,1-.22.77,1.67,1.67,0,0,1-.56.56A1.51,1.51,0,0,1,147.57,58.29Z"/></g></g></svg>