<svg xmlns="http://www.w3.org/2000/svg" width="89.06" height="30.03" viewBox="0 0 89.06 30.03"><defs><style>.cls-1{fill:#fff;}</style></defs><g id="Layer_2" data-name="Layer 2"><g id="Layer_1-2" data-name="Layer 1"><path class="cls-1" d="M0,11V.34H1.21V11ZM.52,7.47V6.4H3.24a4.06,4.06,0,0,0,2.41-.6,2.24,2.24,0,0,0,.83-1.94A2.19,2.19,0,0,0,5.72,2,3.65,3.65,0,0,0,3.4,1.41H.52V.34h3A6,6,0,0,1,5.24.57a3.8,3.8,0,0,1,1.33.68,3,3,0,0,1,.85,1.12,4,4,0,0,1,.29,1.55A3.45,3.45,0,0,1,7.2,5.83,3.2,3.2,0,0,1,5.67,7.05a6.82,6.82,0,0,1-2.58.42Z"/><path class="cls-1" d="M9.15,11V0h1.2V11Z"/><path class="cls-1" d="M15,11.24a2.38,2.38,0,0,1-2.14-1.05A6,6,0,0,1,12.15,7V2.72h1.21V6.93a5.17,5.17,0,0,0,.44,2.44,1.53,1.53,0,0,0,1.44.77,2,2,0,0,0,1.06-.28A2.33,2.33,0,0,0,17.07,9a4.49,4.49,0,0,0,.51-1.39,10.94,10.94,0,0,0,.19-2V2.72H19V6.9L19,11H17.85l.26-3.35h-.18a6.92,6.92,0,0,1-.54,2,2.76,2.76,0,0,1-1,1.16A2.58,2.58,0,0,1,15,11.24Z"/><path class="cls-1" d="M24.07,11.24a5.58,5.58,0,0,1-1.47-.18,3,3,0,0,1-1.13-.54,2.25,2.25,0,0,1-.7-.95,3,3,0,0,1-.2-1.37l1.12-.15a2,2,0,0,0,.23,1.26,1.61,1.61,0,0,0,.86.69,3.69,3.69,0,0,0,1.34.22,3,3,0,0,0,1.62-.36,1.12,1.12,0,0,0,.57-1A1,1,0,0,0,26,8.1a2.21,2.21,0,0,0-.87-.43c-.36-.1-.77-.2-1.23-.28s-.79-.17-1.18-.27a4.26,4.26,0,0,1-1-.41A1.82,1.82,0,0,1,20.94,6,2,2,0,0,1,20.67,5a2.2,2.2,0,0,1,.39-1.3,2.56,2.56,0,0,1,1.11-.86,4.36,4.36,0,0,1,1.69-.31,4.23,4.23,0,0,1,1.68.32,2.57,2.57,0,0,1,1.17.95,2.65,2.65,0,0,1,.39,1.59L26,5.54a1.86,1.86,0,0,0-.25-1.14A1.65,1.65,0,0,0,25,3.74a3.07,3.07,0,0,0-1.18-.21,2.55,2.55,0,0,0-1.43.36,1.11,1.11,0,0,0-.54,1,1,1,0,0,0,.32.8,2.2,2.2,0,0,0,.88.43c.36.09.77.18,1.21.26s.78.16,1.16.25A4.38,4.38,0,0,1,26.44,7a2.19,2.19,0,0,1,.75.7,2,2,0,0,1,.28,1.13,2,2,0,0,1-.42,1.3,2.59,2.59,0,0,1-1.18.82A5.16,5.16,0,0,1,24.07,11.24Z"/><path class="cls-1" d="M33.48,11V2.35H32v-1a3.5,3.5,0,0,0,1.11-.16,1,1,0,0,0,.64-.81h.91V11Z"/><path class="cls-1" d="M40.66,11.26a3.67,3.67,0,0,1-1.79-.42,3.73,3.73,0,0,1-1.29-1.15,5.54,5.54,0,0,1-.78-1.76,9,9,0,0,1-.26-2.2,8,8,0,0,1,.51-3A4.32,4.32,0,0,1,38.5.8,3.69,3.69,0,0,1,40.71.13,3.56,3.56,0,0,1,43,.83a4.4,4.4,0,0,1,1.39,2,8.07,8.07,0,0,1,.48,2.91,9.17,9.17,0,0,1-.26,2.21,5.38,5.38,0,0,1-.78,1.77,3.64,3.64,0,0,1-1.31,1.16A3.75,3.75,0,0,1,40.66,11.26Zm0-1.09a2.49,2.49,0,0,0,1.23-.3A2.63,2.63,0,0,0,42.82,9a4.37,4.37,0,0,0,.58-1.4,7.66,7.66,0,0,0,.21-1.88,7.71,7.71,0,0,0-.34-2.4,3.35,3.35,0,0,0-1-1.55,2.37,2.37,0,0,0-1.58-.56,2.48,2.48,0,0,0-1.55.52,3.18,3.18,0,0,0-1,1.53,7.34,7.34,0,0,0-.36,2.46A8.21,8.21,0,0,0,38,7.6,4.61,4.61,0,0,0,38.54,9a2.52,2.52,0,0,0,.91.87A2.48,2.48,0,0,0,40.67,10.17Z"/><path class="cls-1" d="M50.54,11.26a3.67,3.67,0,0,1-1.79-.42,3.73,3.73,0,0,1-1.29-1.15,5.77,5.77,0,0,1-.78-1.76,9,9,0,0,1-.26-2.2,8,8,0,0,1,.51-3A4.39,4.39,0,0,1,48.38.8,3.71,3.71,0,0,1,50.59.13a3.56,3.56,0,0,1,2.24.7,4.33,4.33,0,0,1,1.39,2A8.07,8.07,0,0,1,54.7,5.7a8.7,8.7,0,0,1-.26,2.21,5.38,5.38,0,0,1-.78,1.77,3.64,3.64,0,0,1-1.31,1.16A3.75,3.75,0,0,1,50.54,11.26Zm0-1.09a2.48,2.48,0,0,0,1.22-.3A2.63,2.63,0,0,0,52.7,9a4.38,4.38,0,0,0,.59-1.4,8.21,8.21,0,0,0,.2-1.88,7.71,7.71,0,0,0-.34-2.4,3.35,3.35,0,0,0-1-1.55,2.37,2.37,0,0,0-1.58-.56A2.48,2.48,0,0,0,49,1.73a3.18,3.18,0,0,0-1,1.53,7.34,7.34,0,0,0-.36,2.46,8.21,8.21,0,0,0,.2,1.88A4.61,4.61,0,0,0,48.42,9a2.6,2.6,0,0,0,.91.87A2.49,2.49,0,0,0,50.56,10.17Z"/><path class="cls-1" d="M60.26,11V.34h1.21V11Zm.44-9.6V.34h6.65V1.43Zm0,5V5.33h5.92V6.4Z"/><path class="cls-1" d="M68.15,11V7l0-4.26h1.15L69,6.4h.19a8.78,8.78,0,0,1,.43-2.13A3.12,3.12,0,0,1,70.46,3a1.79,1.79,0,0,1,1.2-.43,2.42,2.42,0,0,1,.45,0,2,2,0,0,1,.49.14l-.08,1.23a1.75,1.75,0,0,0-.47-.13,3.42,3.42,0,0,0-.44,0,1.55,1.55,0,0,0-1.15.51,3.67,3.67,0,0,0-.77,1.45A9.35,9.35,0,0,0,69.35,8V11Z"/><path class="cls-1" d="M77,11.24a4.36,4.36,0,0,1-1.67-.3,3.29,3.29,0,0,1-1.23-.86,3.69,3.69,0,0,1-.76-1.36A5.36,5.36,0,0,1,73,7a6.12,6.12,0,0,1,.24-1.75A4.28,4.28,0,0,1,74,3.79a3.37,3.37,0,0,1,1.19-1,3.93,3.93,0,0,1,1.66-.34,3.62,3.62,0,0,1,1.46.29,2.93,2.93,0,0,1,1.11.82A3.65,3.65,0,0,1,80.1,5a5.87,5.87,0,0,1,.18,1.84l-6.51.08V6l5.68-.08-.32.56a3.7,3.7,0,0,0-.23-1.54,2.09,2.09,0,0,0-.77-1,2.29,2.29,0,0,0-1.28-.35A2.44,2.44,0,0,0,75.42,4a2.56,2.56,0,0,0-.89,1.18,4.54,4.54,0,0,0-.31,1.76,3.73,3.73,0,0,0,.71,2.42,2.57,2.57,0,0,0,2.08.86A2.72,2.72,0,0,0,78.1,10a2,2,0,0,0,.72-.51,1.86,1.86,0,0,0,.4-.69,2.73,2.73,0,0,0,.14-.69l1.11.14a3.71,3.71,0,0,1-.32,1.23,2.66,2.66,0,0,1-.72.94,3.29,3.29,0,0,1-1.09.6A4.25,4.25,0,0,1,77,11.24Z"/><path class="cls-1" d="M85.54,11.24a4.31,4.31,0,0,1-1.66-.3,3.41,3.41,0,0,1-1.24-.86,4,4,0,0,1-.76-1.36A5.64,5.64,0,0,1,81.62,7a6.11,6.11,0,0,1,.25-1.75,4.28,4.28,0,0,1,.72-1.43,3.28,3.28,0,0,1,1.19-1,3.86,3.86,0,0,1,1.65-.34,3.67,3.67,0,0,1,1.47.29A3.09,3.09,0,0,1,88,3.6,3.65,3.65,0,0,1,88.69,5a5.87,5.87,0,0,1,.18,1.84l-6.52.08V6L88,5.9l-.33.56a3.71,3.71,0,0,0-.22-1.54,2,2,0,0,0-.78-1,2.24,2.24,0,0,0-1.28-.35A2.46,2.46,0,0,0,84,4a2.7,2.7,0,0,0-.89,1.18,4.73,4.73,0,0,0-.3,1.76,3.68,3.68,0,0,0,.71,2.42,2.54,2.54,0,0,0,2.07.86,2.77,2.77,0,0,0,1.1-.2,2.13,2.13,0,0,0,.72-.51,2,2,0,0,0,.39-.69,2.73,2.73,0,0,0,.14-.69l1.12.14a3.71,3.71,0,0,1-.32,1.23,2.81,2.81,0,0,1-.73.94,3.24,3.24,0,0,1-1.08.6A4.36,4.36,0,0,1,85.54,11.24Z"/><path class="cls-1" d="M29.9,27.91a6.29,6.29,0,0,1-1.75-.23A3.83,3.83,0,0,1,26.81,27,2.59,2.59,0,0,1,26,25.89a3.73,3.73,0,0,1-.2-1.58L27,24.12a2.56,2.56,0,0,0,.3,1.59,2.09,2.09,0,0,0,1.1.85,4.62,4.62,0,0,0,1.57.26,4.48,4.48,0,0,0,1.55-.23,2.13,2.13,0,0,0,1-.66,1.65,1.65,0,0,0,.34-1,1.36,1.36,0,0,0-.42-1.06,2.92,2.92,0,0,0-1.09-.59c-.44-.13-.92-.25-1.43-.36s-.93-.21-1.39-.35A6,6,0,0,1,27.19,22a2.69,2.69,0,0,1-.92-.85,2.51,2.51,0,0,1-.34-1.34,2.76,2.76,0,0,1,.47-1.59,3.05,3.05,0,0,1,1.31-1.07,4.77,4.77,0,0,1,2-.39,5.13,5.13,0,0,1,2,.37,3,3,0,0,1,1.37,1.1,3.06,3.06,0,0,1,.46,1.84l-1.17.23a2.31,2.31,0,0,0-.14-1.07,1.94,1.94,0,0,0-.56-.77,2.3,2.3,0,0,0-.89-.47,3.67,3.67,0,0,0-1.13-.16,3.4,3.4,0,0,0-1.33.24,2,2,0,0,0-.88.66,1.69,1.69,0,0,0-.32,1,1.36,1.36,0,0,0,.44,1.07,2.8,2.8,0,0,0,1.14.59c.47.14,1,.27,1.48.39s.93.21,1.37.34a5.7,5.7,0,0,1,1.23.53,2.62,2.62,0,0,1,.87.85A2.49,2.49,0,0,1,34,24.88a2.76,2.76,0,0,1-.47,1.62,3,3,0,0,1-1.4,1A6,6,0,0,1,29.9,27.91Z"/><path class="cls-1" d="M35.52,30l0-6.69,0-3.95h1.15l-.19,2.55h.16a4.7,4.7,0,0,1,.62-1.58,2.5,2.5,0,0,1,1-.91,2.86,2.86,0,0,1,1.3-.29,3.08,3.08,0,0,1,1.74.49,3.25,3.25,0,0,1,1.18,1.47,6,6,0,0,1,.42,2.38,6.14,6.14,0,0,1-.42,2.4,3.27,3.27,0,0,1-1.14,1.5,2.87,2.87,0,0,1-1.7.51,2.67,2.67,0,0,1-1.5-.41,2.82,2.82,0,0,1-1-1.12,5.51,5.51,0,0,1-.52-1.65h-.19c.07.45.12.87.16,1.26s.08.73.1,1.06,0,.62,0,.9V30Zm3.83-3.23a2,2,0,0,0,1.24-.39,2.62,2.62,0,0,0,.79-1.14,5,5,0,0,0,.28-1.79,4.92,4.92,0,0,0-.26-1.71,2.34,2.34,0,0,0-.77-1.11,2,2,0,0,0-1.27-.4,2.2,2.2,0,0,0-1.16.3,2.79,2.79,0,0,0-.81.76,3.53,3.53,0,0,0-.47,1,3.25,3.25,0,0,0-.17,1v.18a3.69,3.69,0,0,0,.09.71,5.34,5.34,0,0,0,.25.88,3.84,3.84,0,0,0,.48.86,2.24,2.24,0,0,0,.75.65A2,2,0,0,0,39.35,26.8Z"/><path class="cls-1" d="M45.11,18.12a1,1,0,0,1-.63-.18.68.68,0,0,1-.21-.53.61.61,0,0,1,.21-.5.94.94,0,0,1,.62-.18,1,1,0,0,1,.63.18.74.74,0,0,1,0,1A.94.94,0,0,1,45.11,18.12Zm-.6,9.58V19.39h1.2V27.7Z"/><path class="cls-1" d="M47.62,27.7V19.39h1.15l-.26,3.66h.18a6.86,6.86,0,0,1,.51-2.18,2.86,2.86,0,0,1,1-1.29,2.68,2.68,0,0,1,1.52-.42,2.32,2.32,0,0,1,2.09,1,5.68,5.68,0,0,1,.68,3.13V27.7h-1.2V23.32A4.7,4.7,0,0,0,52.86,21a1.53,1.53,0,0,0-1.41-.73,2,2,0,0,0-1.43.55,3.57,3.57,0,0,0-.88,1.63,9.94,9.94,0,0,0-.32,2.59V27.7Z"/><path class="cls-1" d="M59.45,27.91A5.72,5.72,0,0,1,58,27.73a3,3,0,0,1-1.12-.55,2.33,2.33,0,0,1-.71-.94A3.15,3.15,0,0,1,56,24.86l1.12-.15A2.05,2.05,0,0,0,57.29,26a1.78,1.78,0,0,0,.87.69,3.88,3.88,0,0,0,1.34.22,3,3,0,0,0,1.62-.37,1.08,1.08,0,0,0,.56-1,1,1,0,0,0-.31-.8,2.36,2.36,0,0,0-.87-.43c-.37-.1-.78-.19-1.23-.28a11.86,11.86,0,0,1-1.18-.27,4.49,4.49,0,0,1-1.05-.4,2,2,0,0,1-.73-.67,2.09,2.09,0,0,1-.26-1.09,2.14,2.14,0,0,1,.39-1.29,2.41,2.41,0,0,1,1.1-.86,4.76,4.76,0,0,1,3.38,0,2.57,2.57,0,0,1,1.17,1A2.65,2.65,0,0,1,62.48,22l-1.09.19a1.93,1.93,0,0,0-.25-1.14,1.63,1.63,0,0,0-.79-.65,3.07,3.07,0,0,0-1.18-.21,2.55,2.55,0,0,0-1.43.35,1.13,1.13,0,0,0-.54,1,1,1,0,0,0,.32.8,2.2,2.2,0,0,0,.88.43,11.05,11.05,0,0,0,1.21.26l1.16.25a4.16,4.16,0,0,1,1,.4,2,2,0,0,1,.76.7,2.29,2.29,0,0,1-.14,2.42,2.64,2.64,0,0,1-1.18.82A5.15,5.15,0,0,1,59.45,27.91Z"/></g></g></svg>