<svg xmlns="http://www.w3.org/2000/svg" viewBox="0 0 180.65 60.22"><defs><style>.cls-1{fill:none;stroke:#a6a6a6;stroke-width:1.51px;}.cls-2{fill:#fff;}</style></defs><g id="Layer_2" data-name="Layer 2"><g id="Layer_1-2" data-name="Layer 1"><rect x="0.75" y="0.75" width="179.14" height="58.71" rx="8.28"/><rect class="cls-1" x="0.75" y="0.75" width="179.14" height="58.71" rx="8.28"/><path class="cls-2" d="M37.19,31.26a8.07,8.07,0,0,1,1.1-4,8.28,8.28,0,0,1,2.91-2.94,8.7,8.7,0,0,0-6.79-3.58c-2.85-.29-5.62,1.67-7.07,1.67s-3.72-1.64-6.13-1.59a9.18,9.18,0,0,0-4.42,1.28,8.93,8.93,0,0,0-3.19,3.24C10.32,31,12.77,39.11,15.92,43.6c1.57,2.2,3.41,4.66,5.82,4.57S25,46.7,27.83,46.7s3.64,1.47,6.1,1.42,4.12-2.21,5.64-4.43a18.19,18.19,0,0,0,2.58-5.13,8.13,8.13,0,0,1-3.6-2.92A7.76,7.76,0,0,1,37.19,31.26Z"/><path class="cls-2" d="M32.55,17.83A7.91,7.91,0,0,0,34.44,12,8.51,8.51,0,0,0,29,14.8a7.63,7.63,0,0,0-1.54,2.6,7.5,7.5,0,0,0-.4,3,7.15,7.15,0,0,0,3.05-.65A6.88,6.88,0,0,0,32.55,17.83Z"/><path class="cls-2" d="M55.39,12.31H58.5c2.69,0,4,1.6,4,4.5s-1.32,4.53-4,4.53H55.39Zm1.5,1.26v6.5h1.45C60.12,20.07,61,19,61,16.83s-.84-3.26-2.62-3.26Zm10.36.65a2.94,2.94,0,0,1,3.11,3.15v.91a3.11,3.11,0,1,1-6.22,0v-.91A3,3,0,0,1,67.25,14.22Zm0,1.19c-1,0-1.64.87-1.64,2v.78c0,1.17.56,2,1.64,2s1.62-.86,1.62-2v-.78C68.88,16.28,68.31,15.41,67.26,15.41Zm13.88-1.07-1.84,7H77.81l-1.47-5.16h0l-1.43,5.16h-1.5l-1.92-7H73l1.12,5.34h.07l1.41-5.34H77l1.45,5.34h.07l1.14-5.34Zm1.46,7v-7H84V15.6h.07a2,2,0,0,1,2.1-1.36,2.15,2.15,0,0,1,2.36,2.37v4.73H87.1V17c0-1.06-.55-1.55-1.38-1.55-1.09,0-1.66.83-1.66,2v3.89Zm8.19,0V11.83h1.47v9.51Zm6.51-7.12a2.93,2.93,0,0,1,3.1,3.15v.91a3.11,3.11,0,1,1-6.21,0v-.91A3,3,0,0,1,97.3,14.22Zm0,1.19c-1,0-1.64.87-1.64,2v.78c0,1.17.55,2,1.64,2s1.62-.86,1.62-2v-.78C98.93,16.28,98.35,15.41,97.31,15.41Zm6.9,6a2.09,2.09,0,0,1-2.29-2.13c0-1.24.86-2.08,2.47-2.08h1.77v-.65c0-.8-.51-1.18-1.32-1.18s-1.15.33-1.26.8h-1.4c.09-1.18,1-2,2.71-2,1.5,0,2.73.62,2.73,2.36v4.74h-1.39v-.91h-.07A2.1,2.1,0,0,1,104.21,21.44Zm.45-1.14a1.39,1.39,0,0,0,1.5-1.33v-.75h-1.53c-.86,0-1.23.43-1.23,1S104,20.3,104.66,20.3Zm7.49-6.05a2,2,0,0,1,2,1.15h.07V11.83h1.47v9.51h-1.43V20.22h-.07a2,2,0,0,1-2.07,1.21c-1.61,0-2.66-1.15-2.66-3v-1.2C109.47,15.4,110.54,14.25,112.15,14.25Zm.41,1.2c-1,0-1.59.73-1.59,2v.77c0,1.28.62,2,1.62,2s1.64-.72,1.64-1.91V17.25A1.67,1.67,0,0,0,112.56,15.45Zm11.2-1.23a2.94,2.94,0,0,1,3.11,3.15v.91a3.11,3.11,0,1,1-6.22,0v-.91A3,3,0,0,1,123.76,14.22Zm0,1.19c-1,0-1.64.87-1.64,2v.78c0,1.17.56,2,1.64,2s1.62-.86,1.62-2v-.78C125.39,16.28,124.82,15.41,123.77,15.41Zm5,5.93v-7h1.44V15.6h.07a2,2,0,0,1,2.11-1.36,2.15,2.15,0,0,1,2.35,2.37v4.73h-1.47V17c0-1.06-.55-1.55-1.38-1.55-1.08,0-1.65.83-1.65,2v3.89Zm11.66-6.95V12.64h1.43v1.75h1.57v1.15h-1.57v3.71c0,.76.29,1,1.07,1l.58,0v1.12a8.63,8.63,0,0,1-.94.06c-1.7,0-2.16-.61-2.16-2V15.54h-1.07V14.39Zm4.85,7V11.83h1.46V15.6h.08a2.05,2.05,0,0,1,2.12-1.36,2.17,2.17,0,0,1,2.34,2.38v4.72H149.8V17.05c0-1.07-.59-1.56-1.42-1.56-1,0-1.65.82-1.65,2v3.89Zm10.92.12a2.88,2.88,0,0,1-3.09-3.15v-.94a3,3,0,1,1,6,0v.82h-4.54v.34a1.59,1.59,0,0,0,1.63,1.75,1.32,1.32,0,0,0,1.39-.8H159A2.59,2.59,0,0,1,156.19,21.46Zm-1.63-4.23h3.1v-.09a1.56,1.56,0,1,0-3.1,0Z"/><path class="cls-2" d="M57.52,46.56H54.46L60.68,28.5H64l6.2,18.06H67.07l-1.6-5H59.13Zm4.85-14.94h-.12L59.8,39.25h5ZM78.68,46.75a4.38,4.38,0,0,1-3.93-2.14h-.11V51.2H71.71V32.57h2.85v2h.11a4.55,4.55,0,0,1,4.08-2.23c3.13,0,5.37,2.36,5.37,6.54v1.25C84.12,44.33,81.91,46.75,78.68,46.75ZM78,44.33c1.87,0,3.14-1.49,3.14-4.31V39c0-2.71-1.19-4.26-3.19-4.26S74.62,36.45,74.62,39v1C74.62,42.67,75.91,44.33,78,44.33Zm15.61,2.42a4.38,4.38,0,0,1-3.93-2.14h-.1V51.2H86.64V32.57H89.5v2h.1a4.55,4.55,0,0,1,4.08-2.23c3.13,0,5.37,2.36,5.37,6.54v1.25C99.05,44.33,96.84,46.75,93.61,46.75Zm-.67-2.42c1.86,0,3.13-1.49,3.13-4.31V39c0-2.71-1.19-4.26-3.19-4.26S89.55,36.45,89.55,39v1C89.55,42.67,90.85,44.33,92.94,44.33Zm12.2-2.79h2.93c.14,1.56,1.51,2.9,4.07,2.9,2.34,0,3.73-1.1,3.73-2.81,0-1.37-.93-2.11-2.86-2.58l-3-.74c-2.33-.54-4.42-1.93-4.42-4.87,0-3.45,3-5.34,6.52-5.34s6.43,1.89,6.5,5.26h-2.89c-.13-1.53-1.31-2.8-3.65-2.8-2.06,0-3.47,1-3.47,2.66,0,1.18.82,2,2.5,2.41l3,.72c2.72.67,4.78,1.95,4.78,5,0,3.55-2.87,5.54-7,5.54C106.88,46.91,105.2,44,105.14,41.54Zm17.31-9v-3.4h2.88v3.4h2.73v2.36h-2.73v7.46c0,1.52.57,1.94,2.15,1.94a6.44,6.44,0,0,0,.66,0v2.25a9.87,9.87,0,0,1-1.39.09c-3.4,0-4.34-1.22-4.34-4v-7.7h-1.93V32.57ZM136,32.33c4,0,6.21,2.83,6.21,6.64V40.1c0,3.94-2.17,6.69-6.21,6.69s-6.23-2.75-6.23-6.69V39C129.76,35.18,132,32.33,136,32.33Zm0,2.36c-2.18,0-3.27,1.78-3.27,4.32v1.08c0,2.5,1.08,4.34,3.27,4.34s3.26-1.83,3.26-4.34V39C139.25,36.46,138.18,34.69,136,34.69Zm8.69,11.87v-14h2.94v1.84h.1a3.48,3.48,0,0,1,3.35-2,5.66,5.66,0,0,1,1,.08V35a6.64,6.64,0,0,0-1.26-.1c-2.35,0-3.14,1.45-3.14,3.33v8.29Zm14.51.23c-3.75,0-6.13-2.47-6.13-6.61V38.76c0-3.9,2.33-6.43,6-6.43s6,2.62,6,6.57v1.33H156v.33c0,2.36,1.27,3.92,3.27,3.92a2.75,2.75,0,0,0,2.87-1.95h2.79C164.47,44.8,162.64,46.79,159.19,46.79ZM156,38.18h6.22v0c0-2-1.23-3.54-3.1-3.54S156,36.17,156,38.15Z"/></g></g></svg>