<svg xmlns="http://www.w3.org/2000/svg" xmlns:xlink="http://www.w3.org/1999/xlink" viewBox="0 0 320 92.48"><defs><style>.cls-1{fill:none;}.cls-2{clip-path:url(#clip-path);}.cls-3{fill:#b8cafa;}.cls-4{fill:#6d7cb5;}.cls-5{fill:#4a568e;}.cls-6{fill:#91a4e4;}</style><clipPath id="clip-path"><rect class="cls-1" width="320" height="50"/></clipPath></defs><g id="Layer_2" data-name="Layer 2"><g id="Layer_1-2" data-name="Layer 1"><g class="cls-2"><rect class="cls-3" width="320" height="50"/><g id="use41611-6-1-3"><g id="layer34"><rect class="cls-4" x="2.99" y="46.24" width="85.54" height="46.24"/><rect class="cls-5" x="2.99" y="46.24" width="85.54" height="3.47"/><rect class="cls-6" x="2.99" y="85.38" width="78.59" height="7.11"/><rect class="cls-6" x="2.99" y="67.11" width="78.59" height="12.85"/><rect class="cls-6" x="2.99" y="53.5" width="78.59" height="10.02"/><path id="rect29155" class="cls-4" d="M12.54,55.62h37c1.57,0,2.83.47,2.83,1.05h0c0,.58-1.26,1-2.83,1h-37c-1.57,0-2.83-.47-2.83-1h0C9.71,56.09,11,55.62,12.54,55.62Z"/><path id="rect29157" class="cls-4" d="M12.54,69.83h37c1.57,0,2.83.47,2.83,1h0c0,.58-1.26,1.05-2.83,1.05h-37c-1.57,0-2.83-.47-2.83-1.05h0C9.71,70.3,11,69.83,12.54,69.83Z"/><path id="rect29153" class="cls-4" d="M12.54,88.82h37c1.57,0,2.83.48,2.83,1.06h0c0,.58-1.26,1.05-2.83,1.05h-37c-1.57,0-2.83-.47-2.83-1.05h0C9.71,89.3,11,88.82,12.54,88.82Z"/></g></g></g></g></g></svg>