<svg xmlns="http://www.w3.org/2000/svg" width="175.98" height="56.31" viewBox="0 0 175.98 56.31"><g id="Layer_2" data-name="Layer 2"><g id="Layer_1-2" data-name="Layer 1"><path d="M29.79,0a.13.13,0,0,1,0,.06.7.7,0,0,1-.71.05S29,.05,29.06,0Z"/><path d="M.13,45.86,0,45.78v-.44a.08.08,0,0,1,.1,0C.17,45.52.26,45.68.13,45.86Z"/><path d="M29.06,0V.06a.14.14,0,0,1-.22,0V0Z"/><path d="M.08,45.35H0v-.07l.14-.08C.19,45.27.19,45.33.08,45.35Z"/><path d="M40.48,56.24h.21s0,0,0,0,0,0,0,0h-.22Z"/><path d="M40.7,56.31v-.06c.09,0,.17,0,.23.06Z"/><path d="M41.65,56.31a.19.19,0,0,1,.22-.06s0,0,0,0,0,0,0,0Z"/><path d="M41.87,56.31s0,0,0-.06H42v.06Z"/><path d="M.08,45.35a.16.16,0,0,0,.06-.16,2.6,2.6,0,0,1,.78-.9,16,16,0,0,1,2.2-1.44,33.51,33.51,0,0,1,4-1.88,2.38,2.38,0,0,0,1.39-1.34c2-4.57,4.17-9.09,6.54-13.5s4.78-8.42,7.36-12.53c1.79-2.83,3.48-5.72,5-8.69a23.45,23.45,0,0,0,1.1-2.39l.08-.21c-.17-.12-.31,0-.45,0a17.83,17.83,0,0,0-2.55,1.17,23.91,23.91,0,0,0-7.88,7A14.66,14.66,0,0,0,16,13.74a6.22,6.22,0,0,1-.33.69.53.53,0,0,1-.61.29.55.55,0,0,1-.51-.4,1.78,1.78,0,0,1,0-.76,7.91,7.91,0,0,1,.88-2.92,20.15,20.15,0,0,1,3.48-4.72,22.49,22.49,0,0,1,6.58-4.86,10.47,10.47,0,0,1,3.38-1h1A1.58,1.58,0,0,1,31,.93a4,4,0,0,1,.11,3.52c-.42,1-.91,2.08-1.39,3.1-1.38,3-3,5.75-4.68,8.55-2,3.42-4.12,6.79-6.09,10.23a89.32,89.32,0,0,0-4.59,8.85c-.51,1.17-1,2.35-1.45,3.54l-.13.37a9.52,9.52,0,0,0,1.64-.28c2.44-.6,4.9-1.07,7.38-1.49,2.12-.36,4.26-.68,6.4-.92a43,43,0,0,1,4.67-.28,3.25,3.25,0,0,1,.88.08l.28.07c.31.13.61.28.63.68a.89.89,0,0,1-.59.84,7.66,7.66,0,0,1-1.5.46,18.24,18.24,0,0,1-2.21.26c-1.13.12-2.24.34-3.35.56-2.6.53-5.2,1.07-7.79,1.67-2.37.55-4.72,1.17-7.06,1.84-.26.08-.51.19-.76.27a1.51,1.51,0,0,0-.89.81c-.22.45-.41.91-.59,1.38a10.41,10.41,0,0,1-1.48,2.67,2.52,2.52,0,0,1-.53.55,1.14,1.14,0,0,1-1.37,0,.72.72,0,0,1-.27-.61,17,17,0,0,1,.17-1.75,5.11,5.11,0,0,1,.27-1.09.71.71,0,0,0,0-.48,1.68,1.68,0,0,0-.8.18l-2.51,1a14.72,14.72,0,0,1-2,.72,1.94,1.94,0,0,1-.58.06.79.79,0,0,1-.75-.44C.12,45.69,0,45.53.08,45.35Z"/><path d="M46,17.16a1.21,1.21,0,0,1,1.22,1.7,3.48,3.48,0,0,1-2,1.87,1.32,1.32,0,0,1-1.36-.3.84.84,0,0,1-.28-.79,2,2,0,0,1,.18-.63,3.55,3.55,0,0,1,1.63-1.66A1.52,1.52,0,0,1,46,17.16Z"/><path d="M101.43,17.16a1.21,1.21,0,0,1,1.24,1.67,3.46,3.46,0,0,1-2,1.9,1.32,1.32,0,0,1-1.36-.3.86.86,0,0,1-.27-.8,1.92,1.92,0,0,1,.19-.66,3.59,3.59,0,0,1,1.59-1.61A1.67,1.67,0,0,1,101.43,17.16Z"/><path d="M53,33.13s.08-.1.13,0,0,.08,0,.11Z"/><path d="M80.45,35.7c0-.06,0-.13.12-.11s0,.08,0,.13a.15.15,0,0,1-.07.12S80.52,35.72,80.45,35.7Z"/><path d="M71.65,31.06c0-.07.09-.1.12-.07s0,.12,0,.16S71.7,31.07,71.65,31.06Z"/><path d="M64.69,31.21c0-.07.1-.1.12-.08s0,.12,0,.17S64.74,31.22,64.69,31.21Z"/><path d="M152.47,29.12l0-.06s0,0,0,.05a.09.09,0,0,1-.06.07A0,0,0,0,1,152.47,29.12Z"/><path d="M175.84,27.44a1.14,1.14,0,0,0-.83-.16,5.1,5.1,0,0,0-.55.19,37.61,37.61,0,0,0-4,2l-3.14,1.68-.76-1.21a35.45,35.45,0,0,1-1.79-3.18,3.85,3.85,0,0,1-.37-1,1.11,1.11,0,0,1,.46-1.16,3,3,0,0,1,1.4-.46,1.69,1.69,0,0,1,0,.84,1.45,1.45,0,0,0,0,.55.54.54,0,0,0,.73.53,1.18,1.18,0,0,0,.63-.42,4.07,4.07,0,0,0,.83-1.77,1.36,1.36,0,0,0-.87-1.59,2.44,2.44,0,0,0-1.36-.16,5.47,5.47,0,0,0-1.32.41A6.69,6.69,0,0,0,162,24.63a2.64,2.64,0,0,0-.54,1.85A3.48,3.48,0,0,0,162,28c.17.26.16.26,0,.5L160,31.14c-1.2,1.65-2.35,3.35-3.64,4.94a25.41,25.41,0,0,1-2.92,3.13,5,5,0,0,1-1.07.74,2,2,0,0,1-.67.2c-.41,0-.53-.1-.49-.51a6.25,6.25,0,0,1,.38-1.59,44.66,44.66,0,0,1,2.26-5.1c.83-1.66,1.71-3.28,2.48-5a6.9,6.9,0,0,0,.39-1,.8.8,0,0,0-.19-.82,1,1,0,0,0-1.12-.32,4.73,4.73,0,0,0-1,.44c-.54.3-1.07.62-1.61.93l-2.44,1.41a3.16,3.16,0,0,1-1.08.42c-.08,0-.17,0-.22-.08.13-.19.27-.4.41-.59,1-1.39,2-2.81,2.88-4.28a13.19,13.19,0,0,0,.83-1.58,3.64,3.64,0,0,0,.29-1,1.1,1.1,0,0,0-.48-1.12,1.37,1.37,0,0,0-1.48,0,4.09,4.09,0,0,0-1.33,1.08,21.65,21.65,0,0,0-3.46,5.39,5.38,5.38,0,0,0-.5,1.67,3.33,3.33,0,0,0,.59,2.5l-.13.1c-1.36.93-2.72,1.85-4.15,2.67a25.08,25.08,0,0,1-4.36,2,5.25,5.25,0,0,1-2.08.32.94.94,0,0,1-1-.91,5.16,5.16,0,0,1,1-4.17.28.28,0,0,1,.31-.12,3.94,3.94,0,0,0,.91,0,6.21,6.21,0,0,0,2.15-.68,8.64,8.64,0,0,0,3.33-2.84,3.8,3.8,0,0,0,.71-1.89,1.71,1.71,0,0,0-1.38-1.94,2.92,2.92,0,0,0-1,0,6.45,6.45,0,0,0-2.74,1A14.43,14.43,0,0,0,132.85,31a1,1,0,0,1-.39.46c-.83.54-1.64,1.1-2.48,1.62a28.42,28.42,0,0,1-5.34,2.69,5.55,5.55,0,0,1-2.28.4c-.68,0-1-.26-1.08-.91a5.14,5.14,0,0,1,1-4.18.28.28,0,0,1,.31-.11,3.57,3.57,0,0,0,1.42,0,8.56,8.56,0,0,0,3.16-1.55A7.63,7.63,0,0,0,129,27.39a3.81,3.81,0,0,0,.67-1.83,1.72,1.72,0,0,0-1.36-1.94,2.86,2.86,0,0,0-1,0,6,6,0,0,0-2.4.84,14.48,14.48,0,0,0-6.05,7,1.68,1.68,0,0,1-.29.5c-1,1.1-1.93,2.2-2.92,3.28a18.9,18.9,0,0,1-4.7,3.74,2.67,2.67,0,0,1-1,.32,1.48,1.48,0,0,1,0-.55,4.93,4.93,0,0,1,.28-1.32A38.26,38.26,0,0,1,112,33c.73-1.62,1.54-3.2,2.25-4.83a4.89,4.89,0,0,0,.27-.76.92.92,0,0,0-.56-1.07,1.22,1.22,0,0,0-.82,0,4.71,4.71,0,0,0-1.22.58,60.48,60.48,0,0,0-5.36,3.94,3.37,3.37,0,0,1-.58.41.35.35,0,0,1,0-.27,5.46,5.46,0,0,1,.58-1.22c.63-1.09,1.29-2.18,1.92-3.28a17.2,17.2,0,0,0,1-1.9,2.81,2.81,0,0,0,.27-1,.73.73,0,0,0-.86-.79,1.1,1.1,0,0,0-.4.17,8.67,8.67,0,0,0-2.09,1.82,17.76,17.76,0,0,0-3.09,5.1,1.1,1.1,0,0,1-.32.47c-.66.56-1.31,1.14-2,1.69a29.94,29.94,0,0,1-4.69,3.29,5.25,5.25,0,0,1-1.41.58,1.85,1.85,0,0,1-.62.07c-.14,0-.2-.07-.18-.24a10.94,10.94,0,0,1,.23-1.11,17.46,17.46,0,0,1,1.16-2.79c.94-2,2-3.86,3-5.81a11,11,0,0,0,.67-1.54,3.16,3.16,0,0,0,.19-1,.78.78,0,0,0-.65-.78,1.15,1.15,0,0,0-1.05.28,5.3,5.3,0,0,0-.66.68,34.66,34.66,0,0,0-4.71,7.54,2.76,2.76,0,0,1-.3.5l-1.62,2.12c-1.28,1.63-2.57,3.25-4,4.77a15,15,0,0,1-1.86,1.7,3.4,3.4,0,0,1-1,.52c-.33.11-.38.07-.41-.27,0-.11,0-.22,0-.33a7,7,0,0,1,.27-1.94,43.28,43.28,0,0,1,1.75-5.34c1.42-3.66,3-7.23,4.68-10.78q1.89-4,3.91-8a.56.56,0,0,1,.56-.36c.37,0,.73,0,1.1,0l7.12-.41c1.63-.1,3.26-.2,4.89-.32,2-.16,4-.33,6.05-.56l4.76-.52a1.28,1.28,0,0,0,.68-.25.71.71,0,0,0,.2-.8c-.09-.26-.22-.34-.57-.35s-.7,0-1.06,0c-2.72,0-5.43.26-8.14.44-2,.12-3.93.22-5.89.26s-3.68,0-5.52.15c-.76.05-1.51.08-2.26.19a.83.83,0,0,1-.42-.08.22.22,0,0,1,0-.18c.46-.95.92-1.89,1.37-2.83a15.76,15.76,0,0,0,.92-2.3,2.75,2.75,0,0,0,.13-.75.56.56,0,0,0-.4-.58,1.09,1.09,0,0,0-.92.05,3.81,3.81,0,0,0-1,.75A25.25,25.25,0,0,0,93,8.26c-.76,1-1.46,2-2.15,3-.08.12-.15.24-.33.23-1,0-2.1.12-3.15.13a18.15,18.15,0,0,1-2.66-.1,4.34,4.34,0,0,1-1.53-.48c-.28-.16-.28-.16-.1-.42l.12-.18a18,18,0,0,0,1.55-2.56,7,7,0,0,0,.72-3.14,2,2,0,0,0-1.92-2,3.54,3.54,0,0,0-2.36.61,17.72,17.72,0,0,0-3.5,3.14,39.41,39.41,0,0,0-4.54,6.27,90.27,90.27,0,0,0-7.46,15.7.72.72,0,0,1-.35.43q-2.32,1.35-4.6,2.78Q58.7,33,56.63,34.3a.67.67,0,0,1-.37.16c.12-.36.24-.68.35-1,.66-1.9,1.37-3.78,1.9-5.72a8.32,8.32,0,0,0,.31-1.5,1.24,1.24,0,0,0-1-1.4,1.33,1.33,0,0,0-1.34.37,9.16,9.16,0,0,0-.76.89c-.19.24-.19.23-.47.14a5.49,5.49,0,0,0-4.4.3,7.57,7.57,0,0,0-3.47,3.68,1.39,1.39,0,0,1-.39.51c-.5.43-1,.86-1.5,1.28a30.82,30.82,0,0,1-4.67,3.27,5.12,5.12,0,0,1-1.41.58,2.79,2.79,0,0,1-.58.07c-.2,0-.23,0-.21-.27a7.29,7.29,0,0,1,.29-1.31,20.14,20.14,0,0,1,1.31-3c.91-1.81,1.85-3.59,2.78-5.39a9.17,9.17,0,0,0,.65-1.51,2.83,2.83,0,0,0,.19-1,.79.79,0,0,0-.71-.83,1.14,1.14,0,0,0-1,.31,6.69,6.69,0,0,0-.73.77,37,37,0,0,0-3.94,6,22.57,22.57,0,0,0-1.54,3.7,8.22,8.22,0,0,0-.42,2.91,2,2,0,0,0,1.77,1.9,4.47,4.47,0,0,0,1.59-.12,10.23,10.23,0,0,0,2.7-1.1,26.27,26.27,0,0,0,4.91-3.6c.09-.09.17-.21.3-.24a.8.8,0,0,1,.08.33,3.11,3.11,0,0,0,.58,1.33,1.82,1.82,0,0,0,1.56.73,2.44,2.44,0,0,0,1.15-.31,8.71,8.71,0,0,0,1.24-.84c.54-.44,1-.92,1.62-1.31,0,0,0,0,.06,0s.05,0,0,.08c-.26.82-.53,1.64-.79,2.46a2.55,2.55,0,0,1-.74,1.16c-.3.27-.6.54-.92.78-1.3,1-2.62,1.9-3.87,2.94a46.76,46.76,0,0,0-5.58,5.32A18.16,18.16,0,0,0,38.38,50a8,8,0,0,0-.73,2.81,3,3,0,0,0,2.19,3.23l.64.16c.06.06.13,0,.19,0s.17,0,.25,0h.73c.07-.06.15,0,.23,0a.22.22,0,0,0,.14,0l.49-.13a7,7,0,0,0,2.4-1.28,17.39,17.39,0,0,0,3.42-3.54,46.32,46.32,0,0,0,5.11-8.91c.62-1.4,1.15-2.84,1.81-4.23a1.14,1.14,0,0,1,.29-.4,79.72,79.72,0,0,1,9.15-6.55c.07,0,.13,0,.1.09-.19.63-.38,1.26-.55,1.89a4.26,4.26,0,0,0-.14,1.91,1.26,1.26,0,0,0,2,.84c.36-.26.7-.53,1-.82,1.09-.94,2.1-2,3.16-2.94a13.37,13.37,0,0,1,1.35-1.12c.07,0,.12,0,.09.09-.28.9-.58,1.79-.85,2.68a8.86,8.86,0,0,0-.4,3.43,2.2,2.2,0,0,0,1.52,2,4.5,4.5,0,0,0,1.35.27,6.57,6.57,0,0,0,4-1.09,14.32,14.32,0,0,0,3.14-2.77c.16,0,.08.08.08.14s0,.17,0,.25a12.81,12.81,0,0,0-.34,3.7A5,5,0,0,0,80.81,42a2.42,2.42,0,0,0,2.08,1.29,2.72,2.72,0,0,0,1.8-.58A16.75,16.75,0,0,0,86,41.6a42.64,42.64,0,0,0,4.72-5.24c.07-.09.11-.21.26-.26,0,.11,0,.19,0,.27a2,2,0,0,0,1.81,1.9A5.12,5.12,0,0,0,94.91,38a13.86,13.86,0,0,0,3.23-1.59,28.8,28.8,0,0,0,4.21-3.33c.07-.06.12-.19.26-.16a1.15,1.15,0,0,0,0,.19,1.24,1.24,0,0,0,1.59,1.23,3.71,3.71,0,0,0,1-.36A14.93,14.93,0,0,0,107,32.84l2.19-1.59a1,1,0,0,1,.35-.2,10.58,10.58,0,0,1-.77,1.82,28.53,28.53,0,0,0-1.46,3.18,6.32,6.32,0,0,0-.43,2.06,4.62,4.62,0,0,0,.54,2.39,1.88,1.88,0,0,0,1.2,1,2.82,2.82,0,0,0,1.26,0,4.78,4.78,0,0,0,1.74-.73A26.18,26.18,0,0,0,118,34.94l.27-.33c.11.07.08.16.1.24a3.65,3.65,0,0,0,1.8,2.62,4.78,4.78,0,0,0,3.1.59,8.91,8.91,0,0,0,2.47-.74,33.4,33.4,0,0,0,6-3.44l.43-.3c0,.28,0,.51,0,.74a3.74,3.74,0,0,0,2,3.23,4.78,4.78,0,0,0,3,.51,9,9,0,0,0,2.48-.74,36.86,36.86,0,0,0,9.25-6.06,1,1,0,0,1,.35-.26,14.82,14.82,0,0,0,2.64-1.47,4.43,4.43,0,0,1,.65-.41s0,0,0,0v0s0,0,0,.06a46.18,46.18,0,0,0-3.23,6.3,21.19,21.19,0,0,0-1.41,4.25,4.94,4.94,0,0,0-.05,2,1.72,1.72,0,0,0,1.58,1.45,4.31,4.31,0,0,0,.95,0,4.76,4.76,0,0,0,2.38-.82,14.65,14.65,0,0,0,2.26-2,49.3,49.3,0,0,0,5.44-7.1c.84-1.29,1.64-2.62,2.36-4l.1.07A19.91,19.91,0,0,1,164,31.22a3.23,3.23,0,0,1,.36,1.59.66.66,0,0,1-.23.5,9.76,9.76,0,0,1-.89.7,14.86,14.86,0,0,0-1.46,1.16,26.25,26.25,0,0,0-3.36,3.71A15.66,15.66,0,0,0,156.54,42a4.35,4.35,0,0,0-.39,1.7,1.55,1.55,0,0,0,1.36,1.71,4.88,4.88,0,0,0,2.18-.08,7,7,0,0,0,2.56-1.43,16.91,16.91,0,0,0,4.8-6.62,8.61,8.61,0,0,0,.72-4.13c0-.2.11-.25.23-.31a35.39,35.39,0,0,0,3.37-2c1.26-.82,2.54-1.59,3.87-2.28a1.38,1.38,0,0,0,.74-.91A.23.23,0,0,0,175.84,27.44Zm-34.37-1.59c.08.12,0,.21,0,.29a2.23,2.23,0,0,1-.27.56,6.28,6.28,0,0,1-3.52,2.51.58.58,0,0,1-.35,0A7.7,7.7,0,0,1,141.47,25.85Zm-13.78,0a1.88,1.88,0,0,1-.35.83,6.19,6.19,0,0,1-3.51,2.5.73.73,0,0,1-.29,0A7.09,7.09,0,0,1,127.69,25.88ZM49.24,44A49.09,49.09,0,0,1,46,49.23a18,18,0,0,1-2.66,3.05,6.05,6.05,0,0,1-1.27.92,2.79,2.79,0,0,1-1.26.34.89.89,0,0,1-1-.74,2.65,2.65,0,0,1,0-1.37,7.84,7.84,0,0,1,1.47-3,26.83,26.83,0,0,1,2.87-3.07,56.19,56.19,0,0,1,5.66-4.79,8,8,0,0,1,1.42-.87C50.72,41.2,50,42.61,49.24,44Zm3.67-13.48c-.9,1-1.94,1.8-2.95,2.7a1.72,1.72,0,0,1-.23-1,2.69,2.69,0,0,1,.18-1,5,5,0,0,1,2.46-2.77A2.28,2.28,0,0,1,54,28.22a1.17,1.17,0,0,1,.34.14A9.22,9.22,0,0,1,52.91,30.52ZM74.29,17.33c.82-1.54,1.71-3,2.64-4.51A58.68,58.68,0,0,1,81.1,7a13,13,0,0,1,1.67-1.73,5.53,5.53,0,0,1,.71-.49,1.44,1.44,0,0,1,.23,1A3.69,3.69,0,0,1,83.3,7,17.58,17.58,0,0,1,82,9.15a.21.21,0,0,1-.32.09c-.31-.16-.49-.09-.69.19a1.18,1.18,0,0,0-.22,1.07.37.37,0,0,1-.11.38c-.48.57-1,1.12-1.49,1.66-1.56,1.66-3.19,3.26-4.8,4.87C74.3,17.42,74.27,17.41,74.29,17.33Zm7.76,13.38a2,2,0,0,1-.28.54,38.5,38.5,0,0,1-2.6,3.22,19.19,19.19,0,0,1-2.07,2,5.84,5.84,0,0,1-1.75,1,2.88,2.88,0,0,1-1,.19c-.61,0-.88-.26-.87-.86A9.9,9.9,0,0,1,74,34.05c.36-1.14.79-2.25,1.12-3.4a8.47,8.47,0,0,0,.33-2.45,2.53,2.53,0,0,0-.17-.86,1,1,0,0,0-.92-.66,2.09,2.09,0,0,0-1,.19,4.53,4.53,0,0,0-.8.45,23.19,23.19,0,0,0-3.24,2.78A18.35,18.35,0,0,1,68,31.38a0,0,0,0,1-.07,0c.35-.89.77-1.75,1.17-2.63,1.12-2.43,2.3-4.83,3.58-7.18a7.2,7.2,0,0,1,1.75-2.09,65.29,65.29,0,0,0,5.68-5.22c.57-.6,1.13-1.21,1.66-1.85.18-.21.18-.21.4-.08a9.24,9.24,0,0,0,3.5,1.21,25.19,25.19,0,0,0,3.13.22l.84,0a1.21,1.21,0,0,1-.17.38c-2.11,4.13-4.12,8.3-5.91,12.58C83,28.06,82.51,29.37,82.05,30.71Zm82.15,5.06A14.55,14.55,0,0,1,160.59,42a4.38,4.38,0,0,1-2.06,1.19c-.22,0-.26,0-.28-.19a2.27,2.27,0,0,1,.18-1,5.15,5.15,0,0,1,.59-1.05,22,22,0,0,1,3.14-3.47c.63-.58,1.29-1.14,1.94-1.72C164.18,35.66,164.2,35.69,164.2,35.77Z"/><path d="M74.29,17.33l.08.08a.21.21,0,0,1-.14.15.07.07,0,0,1,0-.1A.15.15,0,0,1,74.29,17.33Z"/><path d="M164.2,35.77l-.1-.09c0-.06.07-.1.13,0S164.24,35.73,164.2,35.77Z"/><path d="M74.21,17.46l0,.1c0,.05,0,.07-.08.06s0,0,0,0,0,0,0,0Z"/><path d="M74.15,17.55v.07s0,.08-.05,0S74.11,17.58,74.15,17.55Z"/><path d="M67.93,31.37H68a.07.07,0,0,1-.1.06S67.89,31.38,67.93,31.37Z"/></g></g></svg>