<svg xmlns="http://www.w3.org/2000/svg" viewBox="0 0 97.44 11.4"><defs><style>.cls-1{fill:#fff;}</style></defs><g id="Layer_2" data-name="Layer 2"><g id="Layer_1-2" data-name="Layer 1"><path class="cls-1" d="M0,8.47,1.62.13H3.79C6.5.13,8.58,1.33,8,4.32S4.9,8.47,2.17,8.47Zm2.26-.41c2.22,0,3.49-1.73,3.87-3.74S5.9.55,3.71.55h-.5A1.22,1.22,0,0,0,3,1L1.76,7.57a.82.82,0,0,0,0,.49Z"/><path class="cls-1" d="M12.08,8.47l.21-1.08a3.46,3.46,0,0,1-2.23,1.22c-1.1,0-1.45-.78-1.25-1.82l.62-3.18c.07-.36-.31-.34-.57-.37l0-.17,2.27-.24L10.42,6.7c-.11.54,0,1,.61,1a2.14,2.14,0,0,0,1.32-.6L13,3.89c.11-.61-.11-.59-.63-.65l0-.16,2.37-.24L13.67,8.47Z"/><path class="cls-1" d="M15.4,8.47l.93-4.77c.12-.62-.09-.6-.62-.66l0-.16,2.37-.24-.25,1.3a3.64,3.64,0,0,1,2.32-1.3,1.11,1.11,0,0,1,.63.19l-.7,1.85c-.26-.64-.64-1-1.11-1a1.93,1.93,0,0,0-1.21.59L17,8.47Z"/><path class="cls-1" d="M21.05,4.09A3.51,3.51,0,0,1,24,2.71c1.2,0,2.19.47,2,1.73l-.79,4H23.57l.13-.67a3.91,3.91,0,0,1-2,.78c-.91,0-1.61-.47-1.4-1.58.32-1.62,2.84-2,4-2.11l.08-.4c.14-.72.27-1.36-.4-1.42s-1.43.56-1.76,1.67Zm3.16,1c-.67.06-2.1.33-2.31,1.74-.1.61.23,1,.73,1a2.28,2.28,0,0,0,1.12-.36Z"/><path class="cls-1" d="M28.05.87c.05-.27-.22-.4-.42-.47l0-.16L29.8,0l-.7,3.65A2.68,2.68,0,0,1,31,2.71c1.5,0,2,1.31,1.76,2.67a4,4,0,0,1-3.89,3.21c-.76,0-1.54-.06-2.29-.12ZM31,5.7c.16-.86.23-2.29-.88-2.29A1.5,1.5,0,0,0,29,3.92l-.7,3.6c-.1.51,0,.81.57.81C30.15,8.33,30.81,6.65,31,5.7Z"/><path class="cls-1" d="M35,8.47H33.39l1.42-7.32a1.44,1.44,0,0,0,0-.36.35.35,0,0,0-.08-.24A1.37,1.37,0,0,0,34.2.41l0-.16L36.62,0Z"/><path class="cls-1" d="M38.81,7a1.84,1.84,0,0,0,1.32.58A2.11,2.11,0,0,0,42,6.4l.08.07a3.1,3.1,0,0,1-2.87,2.08,2.36,2.36,0,0,1-2.5-2.11,3.29,3.29,0,0,1,3-3.7h.25c1.65,0,2.19,1,2.14,2.33Zm1.58-2c.34-.93,0-1.88-.78-1.88h-.06c-.76.05-1.58.58-1.45,2.34a2.54,2.54,0,0,0,.53,1.36A3.68,3.68,0,0,0,40.39,5Z"/><path class="cls-1" d="M51.19,7.45a7.78,7.78,0,0,1-3.87,1.13c-1.74,0-3-.84-2.55-2.35.4-1.28,2-2.18,3.17-2.73a2.39,2.39,0,0,1-.34-2.07A2.23,2.23,0,0,1,50.12,0c.82.11,1.57.51,1.26,1.5A2.16,2.16,0,0,1,49.66,2.9l2.65,3.21A2.85,2.85,0,0,0,53,5c.08-.26.15-.72-.19-.77a.49.49,0,0,0-.5.33l-.53-1a1.26,1.26,0,0,1,1.15-.8H53c.7.08.84,1.05.63,1.72a4.85,4.85,0,0,1-1.11,1.83l1.71,2.1H52Zm-3-3.71a3.33,3.33,0,0,0-1.77,1.79c-.33,1,.57,1.78,1.84,1.92l.5,0a5.92,5.92,0,0,0,2.16-.42Zm1.33-1.06a2.31,2.31,0,0,0,.83-1.12c.22-.65.1-1.18-.59-1.27a.91.91,0,0,0-1,.67C48.51,1.73,49.09,2.22,49.47,2.68Z"/><path class="cls-1" d="M59.33,7.57a.68.68,0,0,0,0,.49h1.52c1.36,0,1.59-.31,2.56-1.44l-.36,1.85h-5.5L59.19.13h5.5l-.34,1.74A1.94,1.94,0,0,0,62.19.54H60.81a.8.8,0,0,0-.21.5L60,4H61a2.09,2.09,0,0,0,1.37-.6h.1l-.36,1.88H62s-.55-.93-1.12-.93H60Z"/><path class="cls-1" d="M66.08,8.47H64.5l1.42-7.32a1.94,1.94,0,0,0,0-.36.3.3,0,0,0-.08-.24,1.31,1.31,0,0,0-.57-.14l0-.16L67.73,0Z"/><path class="cls-1" d="M69.91,7a1.84,1.84,0,0,0,1.33.58A2.09,2.09,0,0,0,73.07,6.4l.08.07a3.1,3.1,0,0,1-2.86,2.08,2.37,2.37,0,0,1-2.51-2.11,3.3,3.3,0,0,1,3-3.7H71a2,2,0,0,1,2.14,2.33ZM71.5,5c.34-.93,0-1.88-.79-1.88h-.06c-.75.05-1.57.58-1.44,2.34a2.45,2.45,0,0,0,.52,1.36A3.71,3.71,0,0,0,71.5,5Z"/><path class="cls-1" d="M79.33,2.75c.07-.35-.35-.51-.64-.51a1.27,1.27,0,0,0-1,.51,1.69,1.69,0,0,1,1.35,2.13A3,3,0,0,1,76,7.13a2.61,2.61,0,0,1-1.29-.29.69.69,0,0,0-.23.33.28.28,0,0,0,.15.28c1,.74,4.19-.2,3.78,1.89-.26,1.34-1.86,2.06-3.3,2.06s-2.59-.63-2.35-2.07h1.31c-.22,1.14.36,1.69,1.07,1.69.91,0,1.65-.38,1.76-1,.17-.93-1-.88-1.8-1s-1.85-.22-1.66-1.21a1.49,1.49,0,0,1,1.12-1.07,1.65,1.65,0,0,1-.7-1.86,3,3,0,0,1,3.1-2.22,4.58,4.58,0,0,1,.53,0C77.91,2,78.72,1,79.61,1a.67.67,0,0,1,.72.77ZM77.51,4.91c.13-.64.15-1.94-.7-1.94S75.53,4.25,75.4,4.88s-.15,1.92.69,1.92S77.38,5.55,77.51,4.91Z"/><path class="cls-1" d="M80.51,4.09a3.51,3.51,0,0,1,2.91-1.38c1.2,0,2.2.47,2,1.73l-.79,4H83l.12-.67a3.84,3.84,0,0,1-2,.78c-.91,0-1.61-.47-1.4-1.58.31-1.62,2.84-2,4-2.11l.08-.4c.14-.72.27-1.36-.4-1.42S82,3.63,81.64,4.74Zm3.16,1c-.67.06-2.1.33-2.31,1.74-.1.61.23,1,.72,1a2.28,2.28,0,0,0,1.13-.36Z"/><path class="cls-1" d="M87.92,8.47H86.33l.93-4.77c.12-.62-.09-.6-.62-.66l0-.16,2.38-.24-.25,1.3a3.69,3.69,0,0,1,2.36-1.23c1.14,0,1.59.67,1.39,1.71l-.79,4.05H90.18l.76-3.92c.11-.54-.08-.88-.72-.88a2.63,2.63,0,0,0-1.47.54Z"/><path class="cls-1" d="M96.59,7.68a2.48,2.48,0,0,1-1.72.89l-.15,0c-.72-.07-1.23-.68-1-1.82l.59-3c.09-.47-.1-.71-.57-.71h-.16l0-.11,2.67-1.68h.12l-.32,1.64h1.38l-.07.32H96l-.7,3.59c-.12.65-.07,1.18.36,1.2a1.54,1.54,0,0,0,.89-.35Z"/></g></g></svg>