<svg xmlns="http://www.w3.org/2000/svg" viewBox="0 0 86.33 27.62"><g id="Layer_2" data-name="Layer 2"><g id="Layer_1-2" data-name="Layer 1"><path d="M14.61,0a0,0,0,0,1,0,0,.36.36,0,0,1-.35,0s0,0,0-.06Z"/><path d="M.07,22.5l-.07,0v-.22s0,0,.05,0S.13,22.41.07,22.5Z"/><path d="M14.26,0V0a.06.06,0,0,1-.1,0V0Z"/><path d="M0,22.25H0v0l.07,0S.1,22.24,0,22.25Z"/><path d="M19.86,27.59H20l0,0h-.12Z"/><path d="M20,27.62v0s.08,0,.11,0Z"/><path d="M20.43,27.62s.07,0,.11,0v0a0,0,0,0,1,0,0Z"/><path d="M20.54,27.62v0h.07v0Z"/><path d="M0,22.25a.08.08,0,0,0,0-.08,1.24,1.24,0,0,1,.38-.44A7.74,7.74,0,0,1,1.53,21a16.15,16.15,0,0,1,2-.92,1.16,1.16,0,0,0,.68-.66c1-2.24,2.05-4.46,3.21-6.62S9.74,8.69,11,6.67c.87-1.39,1.7-2.81,2.47-4.26A12.31,12.31,0,0,0,14,1.24a.49.49,0,0,0,0-.11c-.08-.06-.15,0-.22,0a8.28,8.28,0,0,0-1.25.57A11.71,11.71,0,0,0,8.72,5.16a7,7,0,0,0-.87,1.58,2.11,2.11,0,0,1-.16.34.25.25,0,0,1-.3.14A.26.26,0,0,1,7.14,7a.92.92,0,0,1,0-.37,3.78,3.78,0,0,1,.44-1.43A9.9,9.9,0,0,1,9.26,2.9,11.13,11.13,0,0,1,12.49.52,5.3,5.3,0,0,1,14.15,0h.47a.77.77,0,0,1,.6.43,1.9,1.9,0,0,1,0,1.72c-.2.52-.44,1-.67,1.52-.68,1.45-1.49,2.83-2.3,4.2-1,1.67-2,3.33-3,5a43.45,43.45,0,0,0-2.25,4.34c-.25.57-.49,1.15-.71,1.74a1.89,1.89,0,0,0-.06.18,5.14,5.14,0,0,0,.8-.14c1.2-.29,2.4-.53,3.62-.73,1-.18,2.09-.33,3.14-.45a19.42,19.42,0,0,1,2.29-.14,1.57,1.57,0,0,1,.43,0l.14,0c.15.06.3.13.31.32a.44.44,0,0,1-.29.42,3.71,3.71,0,0,1-.74.22,7.77,7.77,0,0,1-1.08.13c-.56.06-1.1.17-1.65.28-1.27.25-2.55.52-3.82.82s-2.31.57-3.46.9L5.61,21a.73.73,0,0,0-.44.4c-.11.22-.2.45-.29.67a4.88,4.88,0,0,1-.73,1.32,1.1,1.1,0,0,1-.26.27.56.56,0,0,1-.67,0,.33.33,0,0,1-.13-.3,8.17,8.17,0,0,1,.09-.85A1.94,1.94,0,0,1,3.31,22a.47.47,0,0,0,0-.24.87.87,0,0,0-.39.1l-1.23.49a8.49,8.49,0,0,1-1,.36.86.86,0,0,1-.28,0,.36.36,0,0,1-.36-.21C.06,22.41,0,22.33,0,22.25Z"/><path d="M22.55,8.42a.58.58,0,0,1,.59.83,1.71,1.71,0,0,1-1,.92.65.65,0,0,1-.66-.15.41.41,0,0,1-.14-.39.8.8,0,0,1,.09-.3,1.68,1.68,0,0,1,.8-.82A.71.71,0,0,1,22.55,8.42Z"/><path d="M49.76,8.42a.6.6,0,0,1,.61.82,1.72,1.72,0,0,1-1,.93.66.66,0,0,1-.67-.15.41.41,0,0,1-.13-.39.75.75,0,0,1,.1-.32,1.73,1.73,0,0,1,.77-.79A.81.81,0,0,1,49.76,8.42Z"/><path d="M26,16.25s0-.05.06,0,0,0,0,.06Z"/><path d="M39.47,17.51s0-.06.06-.05,0,0,0,.06,0,.05,0,.06S39.5,17.52,39.47,17.51Z"/><path d="M35.15,15.24s0-.05.06,0,0,.06,0,.08S35.17,15.24,35.15,15.24Z"/><path d="M31.73,15.31s.05-.05.07,0,0,.06,0,.08A.07.07,0,0,0,31.73,15.31Z"/><path d="M74.79,14.28l0,0,0,0a0,0,0,0,1,0,0A0,0,0,0,1,74.79,14.28Z"/><path d="M86.26,13.46a.59.59,0,0,0-.41-.08l-.27.09a21.32,21.32,0,0,0-2,1l-1.54.82-.37-.59c-.31-.51-.62-1-.88-1.56a1.94,1.94,0,0,1-.18-.51.55.55,0,0,1,.22-.57,1.52,1.52,0,0,1,.69-.22.8.8,0,0,1,0,.41.82.82,0,0,0,0,.27.26.26,0,0,0,.35.26.56.56,0,0,0,.31-.21,1.91,1.91,0,0,0,.41-.86.66.66,0,0,0-.43-.78,1.15,1.15,0,0,0-.66-.08,2.45,2.45,0,0,0-.65.2,3.3,3.3,0,0,0-1.39,1.06,1.31,1.31,0,0,0-.27.91,1.71,1.71,0,0,0,.28.73c.08.13.08.13,0,.25l-.95,1.3c-.59.82-1.15,1.65-1.79,2.43a12.17,12.17,0,0,1-1.43,1.53,2.19,2.19,0,0,1-.53.37.7.7,0,0,1-.32.09c-.2,0-.26,0-.24-.24a3.12,3.12,0,0,1,.18-.79,25.34,25.34,0,0,1,1.11-2.5c.41-.81.84-1.61,1.22-2.43a4.14,4.14,0,0,0,.19-.49.4.4,0,0,0-.09-.4.51.51,0,0,0-.55-.15,2.06,2.06,0,0,0-.48.21l-.79.46-1.19.69a1.73,1.73,0,0,1-.53.21s-.09,0-.11,0a3,3,0,0,1,.2-.29q.75-1,1.41-2.1a7.22,7.22,0,0,0,.41-.78,1.69,1.69,0,0,0,.14-.5.53.53,0,0,0-.23-.54.67.67,0,0,0-.73,0,2.1,2.1,0,0,0-.65.53A10.7,10.7,0,0,0,72,13.16a2.6,2.6,0,0,0-.25.82,1.66,1.66,0,0,0,.29,1.22.1.1,0,0,1-.06.05c-.66.46-1.33.91-2,1.31a11.82,11.82,0,0,1-2.13,1,2.54,2.54,0,0,1-1,.16c-.33,0-.46-.13-.52-.45a2.53,2.53,0,0,1,.49-2,.13.13,0,0,1,.15-.06,1.68,1.68,0,0,0,.45,0,3.22,3.22,0,0,0,1-.33,4.15,4.15,0,0,0,1.63-1.39,1.86,1.86,0,0,0,.35-.93.83.83,0,0,0-.68-.95,1.39,1.39,0,0,0-.5,0,3,3,0,0,0-1.34.51,7.15,7.15,0,0,0-2.71,3.1.48.48,0,0,1-.19.23c-.41.26-.81.54-1.22.79a13.61,13.61,0,0,1-2.61,1.32,2.93,2.93,0,0,1-1.13.2c-.33,0-.46-.13-.52-.45a2.52,2.52,0,0,1,.48-2,.16.16,0,0,1,.16-.05,1.78,1.78,0,0,0,.69,0,4.08,4.08,0,0,0,1.55-.76,3.74,3.74,0,0,0,.91-1,2,2,0,0,0,.33-.9.85.85,0,0,0-.67-.95,1.51,1.51,0,0,0-.52,0,2.88,2.88,0,0,0-1.17.41,7,7,0,0,0-3,3.42,1,1,0,0,1-.14.24c-.47.55-.95,1.08-1.43,1.61a9.55,9.55,0,0,1-2.31,1.84,1.54,1.54,0,0,1-.47.16,1.37,1.37,0,0,1,0-.28,2.37,2.37,0,0,1,.14-.64,18.09,18.09,0,0,1,.87-2.14c.36-.8.75-1.57,1.1-2.37a1.63,1.63,0,0,0,.13-.37.44.44,0,0,0-.27-.53.61.61,0,0,0-.4,0,2.22,2.22,0,0,0-.6.29,29.09,29.09,0,0,0-2.63,1.93,1.49,1.49,0,0,1-.29.2.19.19,0,0,1,0-.13,2.53,2.53,0,0,1,.28-.6c.32-.54.64-1.07,1-1.61a10.28,10.28,0,0,0,.49-.93,1.76,1.76,0,0,0,.13-.5.36.36,0,0,0-.42-.39.6.6,0,0,0-.2.08,4.18,4.18,0,0,0-1,.9,8.77,8.77,0,0,0-1.52,2.5.53.53,0,0,1-.16.23c-.32.27-.64.56-1,.83a14.16,14.16,0,0,1-2.3,1.61,2.47,2.47,0,0,1-.69.29,1,1,0,0,1-.3,0c-.07,0-.1,0-.09-.12a5.17,5.17,0,0,1,.11-.54,9.65,9.65,0,0,1,.57-1.37c.46-1,1-1.9,1.47-2.85a5.09,5.09,0,0,0,.32-.76,1.38,1.38,0,0,0,.1-.49.39.39,0,0,0-.32-.38.58.58,0,0,0-.52.14,3.34,3.34,0,0,0-.32.33,16.88,16.88,0,0,0-2.31,3.7,1.28,1.28,0,0,1-.15.25l-.79,1c-.63.81-1.26,1.6-2,2.34a6.57,6.57,0,0,1-.91.84A1.77,1.77,0,0,1,41,20c-.17,0-.19,0-.2-.14a.81.81,0,0,1,0-.16,3.82,3.82,0,0,1,.13-.95,21.69,21.69,0,0,1,.86-2.62c.7-1.79,1.48-3.55,2.3-5.29Q45,8.87,46,6.92a.27.27,0,0,1,.27-.17l.54,0,3.49-.2q1.2-.06,2.4-.15c1-.08,2-.17,3-.28L58,5.85a.68.68,0,0,0,.33-.13.35.35,0,0,0,.1-.39c0-.12-.11-.16-.28-.17H57.6c-1.34,0-2.67.12-4,.21-1,.06-1.92.11-2.89.13s-1.8,0-2.7.08c-.37,0-.75,0-1.11.08a.49.49,0,0,1-.21,0,.09.09,0,0,1,0-.09c.22-.47.45-.93.67-1.39A7.82,7.82,0,0,0,47.84,3a1.51,1.51,0,0,0,.06-.37.26.26,0,0,0-.19-.28.57.57,0,0,0-.46,0,2.12,2.12,0,0,0-.48.37,12.68,12.68,0,0,0-1.13,1.3c-.37.48-.71,1-1,1.49,0,.06-.07.12-.17.12-.51,0-1,.06-1.54.06a8.2,8.2,0,0,1-1.31,0,2.13,2.13,0,0,1-.74-.23c-.14-.08-.14-.08-.06-.21l.07-.09a8.8,8.8,0,0,0,.75-1.25A3.45,3.45,0,0,0,42,2.35a1,1,0,0,0-.94-1,1.7,1.7,0,0,0-1.16.3A8.7,8.7,0,0,0,38.13,3.2a19,19,0,0,0-2.22,3.07A44.22,44.22,0,0,0,32.25,14a.41.41,0,0,1-.18.21c-.76.44-1.51.9-2.25,1.36l-2,1.28a.43.43,0,0,1-.18.08l.17-.49c.33-.93.67-1.85.93-2.8a3.89,3.89,0,0,0,.15-.74.6.6,0,0,0-.49-.69.63.63,0,0,0-.65.18,5.2,5.2,0,0,0-.38.44c-.09.11-.09.11-.23.07A2.68,2.68,0,0,0,25,13a3.71,3.71,0,0,0-1.71,1.81.58.58,0,0,1-.19.25l-.73.63A14.47,14.47,0,0,1,20,17.31a2.87,2.87,0,0,1-.7.29,1.33,1.33,0,0,1-.28,0c-.1,0-.12,0-.11-.13a3.61,3.61,0,0,1,.15-.65,10.06,10.06,0,0,1,.64-1.47c.45-.89.91-1.76,1.36-2.64a4.35,4.35,0,0,0,.32-.74,1.58,1.58,0,0,0,.1-.48.39.39,0,0,0-.35-.41.59.59,0,0,0-.5.16,3.06,3.06,0,0,0-.35.37,19,19,0,0,0-1.94,2.95,11.07,11.07,0,0,0-.75,1.82,3.85,3.85,0,0,0-.21,1.43,1,1,0,0,0,.87.93,2.06,2.06,0,0,0,.78-.06,4.89,4.89,0,0,0,1.32-.54,12.36,12.36,0,0,0,2.41-1.77c.05,0,.08-.1.15-.11a.47.47,0,0,1,0,.16,1.4,1.4,0,0,0,.28.65.93.93,0,0,0,.77.36,1.33,1.33,0,0,0,.56-.15,3.67,3.67,0,0,0,.61-.42c.27-.21.51-.45.8-.64a0,0,0,0,1,0,0s0,0,0,0c-.13.4-.27.8-.39,1.21a1.25,1.25,0,0,1-.37.56,3.23,3.23,0,0,1-.45.38c-.63.48-1.28.94-1.9,1.45A22.43,22.43,0,0,0,20.2,22.5a8.64,8.64,0,0,0-1.37,2.05,3.81,3.81,0,0,0-.36,1.37,1.48,1.48,0,0,0,1.08,1.59l.31.08s.06,0,.09,0,.09,0,.12,0h.36s.08,0,.11,0a.08.08,0,0,0,.07,0l.24-.06A3.45,3.45,0,0,0,22,26.9a8.66,8.66,0,0,0,1.68-1.74,22.52,22.52,0,0,0,2.51-4.37c.3-.68.56-1.39.88-2.07a.59.59,0,0,1,.15-.2,39.28,39.28,0,0,1,4.48-3.21s.07,0,.05,0l-.27.93a2.13,2.13,0,0,0-.06.94.61.61,0,0,0,1,.41,5,5,0,0,0,.51-.4c.53-.46,1-1,1.55-1.44a4.94,4.94,0,0,1,.66-.55s.06,0,0,0c-.14.44-.28.88-.41,1.32a4.34,4.34,0,0,0-.2,1.68,1.06,1.06,0,0,0,.75,1,2.1,2.1,0,0,0,.66.14,3.2,3.2,0,0,0,1.94-.54,6.87,6.87,0,0,0,1.54-1.36c.08,0,0,0,0,.07l0,.13a6.46,6.46,0,0,0-.16,1.81,2.51,2.51,0,0,0,.32,1.07,1.18,1.18,0,0,0,1,.63,1.3,1.3,0,0,0,.89-.28c.22-.17.43-.35.63-.53a21.63,21.63,0,0,0,2.31-2.57c0-.05.06-.11.13-.13a.62.62,0,0,1,0,.13,1,1,0,0,0,.89.93,2.48,2.48,0,0,0,1-.14,6.28,6.28,0,0,0,1.58-.78,14.14,14.14,0,0,0,2.07-1.63s.06-.1.13-.08v.09a.6.6,0,0,0,.78.6,1.56,1.56,0,0,0,.47-.17,7.21,7.21,0,0,0,.88-.55l1.08-.78a.35.35,0,0,1,.17-.1,5.54,5.54,0,0,1-.38.89,14.69,14.69,0,0,0-.72,1.56,3.2,3.2,0,0,0-.21,1,2.19,2.19,0,0,0,.27,1.17.91.91,0,0,0,.58.47,1.67,1.67,0,0,0,.63,0,2.45,2.45,0,0,0,.85-.36,13,13,0,0,0,3.14-2.86A1.83,1.83,0,0,0,58,17c.06,0,0,.08.05.12A1.8,1.8,0,0,0,59,18.38a2.3,2.3,0,0,0,1.52.29,4.32,4.32,0,0,0,1.21-.36,16.75,16.75,0,0,0,2.93-1.69l.21-.15c0,.14,0,.25,0,.36a1.83,1.83,0,0,0,1,1.59,2.32,2.32,0,0,0,1.46.25,4.32,4.32,0,0,0,1.21-.36,17.83,17.83,0,0,0,4.54-3c.06,0,.1-.1.17-.12a7.83,7.83,0,0,0,1.3-.72,3.37,3.37,0,0,1,.31-.21h0s0,0,0,0a22.54,22.54,0,0,0-1.59,3.09,10.89,10.89,0,0,0-.69,2.09,2.48,2.48,0,0,0,0,1,.84.84,0,0,0,.77.71,2.71,2.71,0,0,0,1.63-.42,6.77,6.77,0,0,0,1.11-1,24.34,24.34,0,0,0,2.67-3.48c.41-.64.8-1.29,1.16-2a.1.1,0,0,1,0,0,9.32,9.32,0,0,1,.55.92,1.48,1.48,0,0,1,.18.77.33.33,0,0,1-.12.25c-.14.12-.28.24-.43.35a7.72,7.72,0,0,0-.72.56,13.56,13.56,0,0,0-1.65,1.82,8.05,8.05,0,0,0-.91,1.52,2.39,2.39,0,0,0-.19.83.76.76,0,0,0,.67.84,2.43,2.43,0,0,0,1.07,0,3.36,3.36,0,0,0,1.25-.7A8.2,8.2,0,0,0,82,18.27a4.12,4.12,0,0,0,.35-2c0-.1,0-.12.12-.16a18.26,18.26,0,0,0,1.65-1c.61-.4,1.25-.77,1.9-1.12a.69.69,0,0,0,.36-.44A.14.14,0,0,0,86.26,13.46ZM69.4,12.68c0,.06,0,.1,0,.15a1.11,1.11,0,0,1-.13.27,3.06,3.06,0,0,1-1.72,1.23.36.36,0,0,1-.18,0A3.8,3.8,0,0,1,69.4,12.68Zm-6.76,0a.85.85,0,0,1-.17.4,3.05,3.05,0,0,1-1.73,1.23.32.32,0,0,1-.14,0A3.47,3.47,0,0,1,62.64,12.7ZM24.16,21.58a24.84,24.84,0,0,1-1.57,2.57,8.92,8.92,0,0,1-1.31,1.5,3.07,3.07,0,0,1-.62.45,1.25,1.25,0,0,1-.62.16.43.43,0,0,1-.47-.36,1.38,1.38,0,0,1,0-.67,3.87,3.87,0,0,1,.72-1.45,13.41,13.41,0,0,1,1.41-1.51,28.31,28.31,0,0,1,2.78-2.35,4.1,4.1,0,0,1,.7-.43C24.88,20.21,24.53,20.9,24.16,21.58ZM26,15c-.45.48-.95.89-1.45,1.33a.85.85,0,0,1-.11-.51,1.27,1.27,0,0,1,.09-.47A2.47,2.47,0,0,1,25.69,14a1.15,1.15,0,0,1,.81-.12.61.61,0,0,1,.17.07A4.1,4.1,0,0,1,26,15ZM36.44,8.5c.41-.75.84-1.49,1.3-2.21a29.17,29.17,0,0,1,2-2.87,5.56,5.56,0,0,1,.83-.85A1.72,1.72,0,0,1,41,2.33a.67.67,0,0,1,.11.49,1.71,1.71,0,0,1-.19.63,10,10,0,0,1-.64,1c0,.06-.08.08-.16,0a.23.23,0,0,0-.34.1.57.57,0,0,0-.11.52.17.17,0,0,1,0,.19c-.24.28-.48.55-.73.81-.77.82-1.57,1.6-2.36,2.39C36.45,8.55,36.43,8.54,36.44,8.5Zm3.81,6.56a.87.87,0,0,1-.14.27,17.56,17.56,0,0,1-1.27,1.58,9.27,9.27,0,0,1-1,1,2.83,2.83,0,0,1-.85.51,2,2,0,0,1-.48.1c-.29,0-.43-.13-.42-.43a4.8,4.8,0,0,1,.25-1.35c.17-.56.38-1.1.54-1.66A3.85,3.85,0,0,0,37,13.83a1.27,1.27,0,0,0-.09-.42.46.46,0,0,0-.45-.32,1,1,0,0,0-.48.09,2.46,2.46,0,0,0-.39.22A10.94,10.94,0,0,0,34,14.77c-.22.21-.43.43-.67.62h0c.18-.44.38-.86.58-1.29.55-1.19,1.12-2.37,1.75-3.53a3.52,3.52,0,0,1,.86-1A32.18,32.18,0,0,0,39.3,7c.28-.3.55-.6.81-.91.09-.1.09-.1.2,0A4.77,4.77,0,0,0,42,6.64a13.29,13.29,0,0,0,1.54.11l.41,0a.49.49,0,0,1-.08.18c-1,2-2,4.07-2.9,6.17C40.72,13.76,40.48,14.41,40.25,15.06Zm40.3,2.49a7.11,7.11,0,0,1-1.77,3,2.18,2.18,0,0,1-1,.58c-.11,0-.13,0-.14-.09a1.25,1.25,0,0,1,.09-.51,2.58,2.58,0,0,1,.29-.51,10.34,10.34,0,0,1,1.54-1.7c.31-.29.63-.56,1-.85C80.54,17.49,80.55,17.51,80.55,17.55Z"/><path d="M36.44,8.5l0,0a.11.11,0,0,1-.07.08s0,0,0-.06A.07.07,0,0,1,36.44,8.5Z"/><path d="M80.55,17.55l0-.05s0,0,.06,0S80.57,17.53,80.55,17.55Z"/><path d="M36.41,8.56v.06s0,0,0,0,0,0,0,0h0Z"/><path d="M36.37,8.61v0s0,0,0,0S36.36,8.62,36.37,8.61Z"/><path d="M33.32,15.39h0s0,0,0,0S33.3,15.4,33.32,15.39Z"/></g></g></svg>