<svg xmlns="http://www.w3.org/2000/svg" viewBox="0 0 245.18 75.56"><defs><style>.cls-1{fill:#fff;}</style></defs><g id="Layer_2" data-name="Layer 2"><g id="Layer_1-2" data-name="Layer 1"><path class="cls-1" d="M8.41,4.43H0V.25H21.61V4.43H13.2l-.08,22.88H8.32Z"/><path class="cls-1" d="M20,6.52H24.8v5.53c1.15-4.3,6.32-6.51,10.5-5l-2.46,4C29.77,9.72,25,12.3,25,17V27.31H20Z"/><path class="cls-1" d="M40.63,0C42,0,43.29.82,43.29,2.05S42,4.14,40.63,4.14,38,3.32,38,2.05,39.24,0,40.63,0ZM38.21,6.52H43V27.31h-4.8Z"/><path class="cls-1" d="M46,6.85h4.8v5a8.62,8.62,0,0,1,8.08-5.54c5.9,0,10.25,4.64,10.25,10.58,0,6.81-4.35,10.87-10,10.83-3.61,0-7.13-2-8.32-5.42V34.52H46ZM57.69,23.74c3.6,0,6.64-2.38,6.64-6.81a6.48,6.48,0,0,0-6.64-6.6A6.59,6.59,0,0,0,51,16.93,6.52,6.52,0,0,0,57.69,23.74Z"/><path class="cls-1" d="M71.83.25h4.8V27.31h-4.8Z"/><path class="cls-1" d="M79.33,17c0-7.09,5.25-10.86,11.07-10.86,5.66,0,10.25,3.61,10.83,10a7.47,7.47,0,0,1,0,1.89L83.88,18a6.77,6.77,0,0,0,12.39,2.58l3.6,1.85a10.64,10.64,0,0,1-9.47,5.25A10.77,10.77,0,0,1,79.33,17Zm17.39-1.72A6.29,6.29,0,0,0,90.4,10a6.16,6.16,0,0,0-6.19,5.29Z"/><path class="cls-1" d="M122.63,4.43h-8.41V.25h21.61V4.43h-8.4l-.09,22.88h-4.79Z"/><path class="cls-1" d="M138.54.25h4.79V11.56c1.19-3.44,4.76-5.45,8.41-5.45,5.74,0,10.13,4,10.13,10.91V27.31h-4.8V17c0-4.51-3.08-6.93-6.77-6.88A6.6,6.6,0,0,0,143.54,17V27.31h-5Z"/><path class="cls-1" d="M164.57,6.52h4.8v5.53c1.15-4.3,6.31-6.51,10.5-5l-2.46,4c-3.08-1.35-7.84,1.23-7.84,5.9V27.31h-5Z"/><path class="cls-1" d="M178.84,17c0-7.09,5.25-10.86,11.07-10.86,5.66,0,10.25,3.61,10.82,10a6.65,6.65,0,0,1,0,1.89l-17.34,0a6.76,6.76,0,0,0,12.38,2.58l3.61,1.85a10.64,10.64,0,0,1-9.47,5.25A10.77,10.77,0,0,1,178.84,17Zm17.38-1.72A6.27,6.27,0,0,0,189.91,10a6.16,6.16,0,0,0-6.19,5.29Z"/><path class="cls-1" d="M203.48,17c0-6.89,4.39-10.95,10.13-10.91,3.65,0,7.21,2,8.4,5.45v-5h4.8V27.31H222V22.18a8.67,8.67,0,0,1-8.16,5.54C207.87,27.76,203.48,23,203.48,17ZM215,23.7A6.74,6.74,0,0,0,221.81,17,6.62,6.62,0,0,0,215,10.09c-3.69-.05-6.76,2.37-6.76,6.88A6.61,6.61,0,0,0,215,23.7Z"/><path class="cls-1" d="M232.79,19.39V10.5h-3.28V6.31c3.74,0,3.28-2.21,3.28-6.06h4.8l0,6.06h6V10.5h-6v8.36c0,3.77,3.41,5.17,6.77,3.73l.82,4.14C239.93,29,232.79,26.73,232.79,19.39Z"/><path class="cls-1" d="M41.88,38.25H52.46c8.12,0,10.08,4.83,10.08,8.44,0,4.27-2.74,8.12-10.08,8.12H46.68v10.5h-4.8ZM52.46,50.63c3.4,0,5.25-1.11,5.25-3.94,0-2.42-1.4-4.26-5.29-4.26H46.68v8.2Z"/><path class="cls-1" d="M63.57,55c0-6.89,4.39-11,10.13-10.91,3.64,0,7.21,2,8.4,5.45v-5h4.8V65.31H82.1V60.18a8.68,8.68,0,0,1-8.16,5.54C68,65.76,63.57,61,63.57,55ZM75.13,61.7A6.74,6.74,0,0,0,81.9,55a6.62,6.62,0,0,0-6.77-6.88C71.44,48,68.37,50.46,68.37,55A6.61,6.61,0,0,0,75.13,61.7Z"/><path class="cls-1" d="M89.6,55c0-6.73,5-10.91,11.48-10.91,4.84,0,8.94,2.46,10.58,6.19l-4.47,1.64A6.72,6.72,0,0,0,101,48.09a6.83,6.83,0,0,0,0,13.65,6.82,6.82,0,0,0,6.23-4l4.43,1.68c-1.72,3.73-5.7,6.28-10.62,6.28C94.81,65.72,89.64,61.37,89.6,55Z"/><path class="cls-1" d="M114.41,38.25h4.84V52.72l8.44-7.87h5.21l-8.41,8.4,9.76,12.06h-5.2l-7.88-9.56-2,1.85v7.71h-4.8Z"/><path class="cls-1" d="M132.65,55c0-6.89,4.39-11,10.13-10.91,3.65,0,7.22,2,8.4,5.45v-5H156V65.31h-4.8V60.18A8.67,8.67,0,0,1,143,65.72C137,65.76,132.65,61,132.65,55Zm11.56,6.68A6.74,6.74,0,0,0,151,55a6.62,6.62,0,0,0-6.77-6.88c-3.68-.05-6.76,2.37-6.76,6.88A6.61,6.61,0,0,0,144.21,61.7Z"/><path class="cls-1" d="M158.48,68.71a6.59,6.59,0,0,1,3.9-5.9,2.38,2.38,0,0,1-1.23-2.26A4,4,0,0,1,163,57.64a6.55,6.55,0,0,1-2.95-5.58c0-4.88,3.45-8,9.23-8a18,18,0,0,1,3.73.37h7V48h-3.36a5,5,0,0,1,1.6,3.82c0,4.75-3.45,7.79-9.07,7.79a22.92,22.92,0,0,1-2.7-.25,2.44,2.44,0,0,0-1.6,1.81c0,1.06,1.15,1.23,2.58,1.23h4.22c4.76,0,8.74,1.72,8.66,6.19-.05,4.79-4.19,6.93-11.24,6.93C162.46,75.56,158.56,73.06,158.48,68.71ZM168.77,72c4.84,0,7.14-1,7.18-3.2s-1.6-3.36-4.92-3.36H167.5c-2.62,0-4.71,1.11-4.63,3.44S164.92,72,168.77,72Zm.41-16.32c3.08,0,4.68-1.39,4.68-3.85S172.26,48,169.18,48c-3.23,0-4.71,1.44-4.71,3.94C164.47,54.24,166,55.71,169.18,55.71Z"/><path class="cls-1" d="M181.32,55c0-7.09,5.25-10.86,11.07-10.86,5.66,0,10.25,3.61,10.82,10a6.65,6.65,0,0,1,0,1.89l-17.34,0a6.76,6.76,0,0,0,12.38,2.58l3.61,1.85a10.64,10.64,0,0,1-9.47,5.25A10.77,10.77,0,0,1,181.32,55Zm17.38-1.72A6.27,6.27,0,0,0,192.39,48a6.16,6.16,0,0,0-6.19,5.29Z"/></g></g></svg>