<svg xmlns="http://www.w3.org/2000/svg" viewBox="0 0 153.59 51.29"><defs><style>.cls-1{fill:#f4f4f6;}.cls-2{fill:#141c42;}</style></defs><g id="Layer_2" data-name="Layer 2"><g id="Layer_1-2" data-name="Layer 1"><rect class="cls-1" width="153.59" height="51.29" rx="17.17"/><path class="cls-2" d="M13.22,33.9V17.7h4V33.9Zm1.84,0V30.71h4.69a4,4,0,0,0,2.14-.54,3.23,3.23,0,0,0,1.28-1.62,7.28,7.28,0,0,0,.43-2.7,8.18,8.18,0,0,0-.27-2.24,4,4,0,0,0-.79-1.53,3.34,3.34,0,0,0-1.35-.9,5.89,5.89,0,0,0-1.93-.29h-4.2V17.7h4a11.06,11.06,0,0,1,4.94,1,6,6,0,0,1,2.79,2.73,9.5,9.5,0,0,1,.89,4.26A10.5,10.5,0,0,1,27.27,29,6.81,6.81,0,0,1,26,31.31a6.34,6.34,0,0,1-1.8,1.52,7.34,7.34,0,0,1-2.14.82,9.88,9.88,0,0,1-2.22.25Z"/><path class="cls-2" d="M31.06,19.12a2.74,2.74,0,0,1-1.73-.48,1.62,1.62,0,0,1-.6-1.36,1.7,1.7,0,0,1,.6-1.41,2.74,2.74,0,0,1,1.73-.48,2.78,2.78,0,0,1,1.76.48,1.67,1.67,0,0,1,.6,1.39,1.65,1.65,0,0,1-.6,1.38A2.78,2.78,0,0,1,31.06,19.12Zm-2,14.78v-13h4v13Z"/><path class="cls-2" d="M40.12,34.24A11.21,11.21,0,0,1,37.77,34a6.71,6.71,0,0,1-1.85-.68,4.35,4.35,0,0,1-1.28-1.06,3.58,3.58,0,0,1-.7-1.39l2.94-1.3a2.9,2.9,0,0,0,.6.85,3.26,3.26,0,0,0,1.16.7,5,5,0,0,0,1.75.27,3.4,3.4,0,0,0,1.54-.29.9.9,0,0,0,.55-.82.75.75,0,0,0-.31-.63,3,3,0,0,0-.92-.41,15.09,15.09,0,0,0-1.52-.36q-.93-.2-1.89-.45a8.05,8.05,0,0,1-1.79-.71,3.74,3.74,0,0,1-1.34-1.21,3.3,3.3,0,0,1-.5-1.9,3.57,3.57,0,0,1,.63-2.1,4.24,4.24,0,0,1,1.91-1.41,8.24,8.24,0,0,1,3.08-.51,8.72,8.72,0,0,1,2.84.41,5.57,5.57,0,0,1,2,1.19,4.1,4.1,0,0,1,1.14,1.86L42.7,25.19a2,2,0,0,0-.5-.94,2.61,2.61,0,0,0-1-.6,4,4,0,0,0-1.36-.21,3,3,0,0,0-1.49.3.88.88,0,0,0-.53.78.77.77,0,0,0,.36.65,3.06,3.06,0,0,0,1,.43c.44.12,1,.24,1.57.37s1.27.28,1.9.45a8.58,8.58,0,0,1,1.72.69,3.52,3.52,0,0,1,1.23,1.13,3.29,3.29,0,0,1,.45,1.8,3.71,3.71,0,0,1-.69,2.25,4.27,4.27,0,0,1-2,1.45A9.51,9.51,0,0,1,40.12,34.24Z"/><path class="cls-2" d="M52.07,34.22A4.27,4.27,0,0,1,48.71,33a5.76,5.76,0,0,1-1.08-3.89V24H45.79L45.86,21h1.33a2.62,2.62,0,0,0,1.19-.24,1.07,1.07,0,0,0,.5-.84l.32-1.81h2.24v2.87h3.11v3.21H51.44v4.79a1.64,1.64,0,0,0,.4,1.23,1.72,1.72,0,0,0,1.24.39,3.54,3.54,0,0,0,.88-.1,2,2,0,0,0,.69-.27v3.66a7.26,7.26,0,0,1-1.43.31C52.78,34.2,52.4,34.22,52.07,34.22Z"/><path class="cls-2" d="M55.71,33.9v-13H59L59,25.33h.49a8.61,8.61,0,0,1,.65-2.73,3.09,3.09,0,0,1,1.38-1.49,4.74,4.74,0,0,1,2.22-.47l.44,0,.56.06-.14,4.22a2.79,2.79,0,0,0-.85-.26,6.17,6.17,0,0,0-.8-.06,3.48,3.48,0,0,0-1.66.37,2.61,2.61,0,0,0-1.1,1.13A5.4,5.4,0,0,0,59.68,28V33.9Z"/><path class="cls-2" d="M67.36,19.12a2.74,2.74,0,0,1-1.73-.48,1.62,1.62,0,0,1-.6-1.36,1.7,1.7,0,0,1,.6-1.41,2.74,2.74,0,0,1,1.73-.48,2.78,2.78,0,0,1,1.76.48,1.67,1.67,0,0,1,.6,1.39,1.65,1.65,0,0,1-.6,1.38A2.78,2.78,0,0,1,67.36,19.12Zm-2,14.78v-13h4v13Z"/><path class="cls-2" d="M79.32,34.24a4.7,4.7,0,0,1-2.15-.46,3.87,3.87,0,0,1-1.5-1.4,6,6,0,0,1-.77-2.31h-.47l-.07,3.83H71.12V16.23h3.95v4.29A10.88,10.88,0,0,1,75,21.76c-.06.43-.14.89-.22,1.36s-.19,1-.29,1.53h.57A7.54,7.54,0,0,1,76,22.44a3.69,3.69,0,0,1,1.41-1.34,4.19,4.19,0,0,1,2-.46,4.76,4.76,0,0,1,2.81.84A5.49,5.49,0,0,1,84,23.85a9.22,9.22,0,0,1,.66,3.67A8.89,8.89,0,0,1,84,31.09a5.28,5.28,0,0,1-1.85,2.33A5,5,0,0,1,79.32,34.24Zm-1.47-3.19a2.33,2.33,0,0,0,1.42-.45,2.9,2.9,0,0,0,.94-1.28,5.16,5.16,0,0,0,.33-1.93,5.22,5.22,0,0,0-.31-1.92,2.94,2.94,0,0,0-.9-1.24,2.2,2.2,0,0,0-1.39-.44A2.46,2.46,0,0,0,77,24a2.57,2.57,0,0,0-.8.54,3.81,3.81,0,0,0-.59.78,3.66,3.66,0,0,0-.49,1.85v.51a4.47,4.47,0,0,0,.15,1.11,3.72,3.72,0,0,0,.48,1.1,2.59,2.59,0,0,0,.86.85A2.38,2.38,0,0,0,77.85,31.05Z"/><path class="cls-2" d="M90.19,34.24a4.06,4.06,0,0,1-3.47-1.56,7.89,7.89,0,0,1-1.17-4.75v-7h4v6.48a5.37,5.37,0,0,0,.54,2.71,1.79,1.79,0,0,0,1.64.9,1.94,1.94,0,0,0,1.14-.33,2.78,2.78,0,0,0,.81-.94,4.42,4.42,0,0,0,.49-1.38,8.45,8.45,0,0,0,.16-1.72V20.94h4v13H95.12l-.07-4h-.49a9.87,9.87,0,0,1-.92,2.49,3.43,3.43,0,0,1-1.39,1.41A4.39,4.39,0,0,1,90.19,34.24Z"/><path class="cls-2" d="M105.09,34.22A4.27,4.27,0,0,1,101.73,33a5.76,5.76,0,0,1-1.08-3.89V24H98.81L98.88,21h1.32a2.56,2.56,0,0,0,1.19-.24,1.08,1.08,0,0,0,.51-.84l.32-1.81h2.23v2.87h3.12v3.21h-3.12v4.79a1.64,1.64,0,0,0,.41,1.23,1.72,1.72,0,0,0,1.24.39,3.6,3.6,0,0,0,.88-.1,2,2,0,0,0,.69-.27v3.66a7.5,7.5,0,0,1-1.44.31Q105.59,34.22,105.09,34.22Z"/><path class="cls-2" d="M110.71,19.12a2.72,2.72,0,0,1-1.73-.48,1.62,1.62,0,0,1-.6-1.36,1.7,1.7,0,0,1,.6-1.41,3.39,3.39,0,0,1,3.48,0,1.68,1.68,0,0,1,.61,1.39,1.66,1.66,0,0,1-.61,1.38A2.74,2.74,0,0,1,110.71,19.12Zm-2,14.78v-13h4v13Z"/><path class="cls-2" d="M120.43,34.24a7.54,7.54,0,0,1-3.47-.76,5.54,5.54,0,0,1-2.37-2.28,7.59,7.59,0,0,1-.86-3.81,7.51,7.51,0,0,1,.86-3.79A5.47,5.47,0,0,1,117,21.34a7.88,7.88,0,0,1,3.48-.74,7.69,7.69,0,0,1,3.49.76,5.49,5.49,0,0,1,2.38,2.27,7.59,7.59,0,0,1,.86,3.79,7.67,7.67,0,0,1-.88,3.85,5.42,5.42,0,0,1-2.42,2.25A8,8,0,0,1,120.43,34.24Zm.12-2.87A2.52,2.52,0,0,0,122,31a2.44,2.44,0,0,0,.89-1.24,6.49,6.49,0,0,0,.29-2.07,6.41,6.41,0,0,0-.32-2.19,2.86,2.86,0,0,0-.94-1.38,2.59,2.59,0,0,0-1.61-.48,2.54,2.54,0,0,0-1.44.41,2.4,2.4,0,0,0-.89,1.24,6.25,6.25,0,0,0-.3,2.09,5,5,0,0,0,.75,3A2.45,2.45,0,0,0,120.55,31.37Z"/><path class="cls-2" d="M128.21,33.9v-13h3.19l0,3.8h.49a7.46,7.46,0,0,1,.91-2.3,3.63,3.63,0,0,1,1.5-1.39,4.71,4.71,0,0,1,2.13-.45A4.06,4.06,0,0,1,140,22.19c.8,1.06,1.19,2.76,1.19,5.08V33.9h-4V27.71a5.63,5.63,0,0,0-.58-2.93,1.88,1.88,0,0,0-1.7-.92,2.18,2.18,0,0,0-1.54.56,3.4,3.4,0,0,0-.89,1.5,6.81,6.81,0,0,0-.3,2.09V33.9Z"/></g></g></svg>