<svg xmlns="http://www.w3.org/2000/svg" viewBox="0 0 128.42 35.18"><defs><style>.cls-1{fill:#fff;}.cls-2{fill:#0e4d70;}</style></defs><g id="Layer_2" data-name="Layer 2"><g id="Layer_1-2" data-name="Layer 1"><rect class="cls-1" width="128.42" height="35.18" rx="9.44"/><path class="cls-2" d="M14.12,15.62a3.84,3.84,0,0,1-2-.51,3.61,3.61,0,0,1-1.38-1.55,6,6,0,0,1-.5-2.58,6.55,6.55,0,0,1,.28-2,4,4,0,0,1,.82-1.5,3.68,3.68,0,0,1,1.34-1A5.2,5.2,0,0,1,16,6.39a3.44,3.44,0,0,1,1.1.55,2.7,2.7,0,0,1,.75.86A2.61,2.61,0,0,1,18.12,9l-1.43.43a2,2,0,0,0-.35-1.12,1.84,1.84,0,0,0-.81-.62,2.94,2.94,0,0,0-1-.19,2.66,2.66,0,0,0-1.41.36A2.33,2.33,0,0,0,12.16,9a5,5,0,0,0-.33,2,5.6,5.6,0,0,0,.2,1.59,2.72,2.72,0,0,0,.55,1.06,2.07,2.07,0,0,0,.84.59,3,3,0,0,0,1.05.18,2.67,2.67,0,0,0,1.18-.24,2,2,0,0,0,.8-.76,3.12,3.12,0,0,0,.37-1.29h-2V10.91H18.3v4.53H17.16L17.34,13h-.22a4.51,4.51,0,0,1-.57,1.44,2.43,2.43,0,0,1-1,.86A3.19,3.19,0,0,1,14.12,15.62Z"/><path class="cls-2" d="M23.35,15.62a4.21,4.21,0,0,1-1.52-.25,3,3,0,0,1-1.11-.73A3.29,3.29,0,0,1,20,13.5,4.7,4.7,0,0,1,19.8,12,5.07,5.07,0,0,1,20,10.45a3.84,3.84,0,0,1,.67-1.23,3,3,0,0,1,1.07-.81,3.39,3.39,0,0,1,1.45-.29,3.44,3.44,0,0,1,1.36.25,2.55,2.55,0,0,1,1,.75,3.41,3.41,0,0,1,.62,1.25,5.92,5.92,0,0,1,.15,1.75l-5.6,0v-.94l4.72,0-.53.58a2.88,2.88,0,0,0-.13-1.36,1.67,1.67,0,0,0-.64-.8,1.75,1.75,0,0,0-.94-.26,1.86,1.86,0,0,0-1.06.31,2.13,2.13,0,0,0-.69.9A3.79,3.79,0,0,0,21.24,12a2.79,2.79,0,0,0,.55,1.86,2,2,0,0,0,1.57.62,2.26,2.26,0,0,0,.73-.1,1.76,1.76,0,0,0,.51-.27,1.5,1.5,0,0,0,.33-.42,2.81,2.81,0,0,0,.22-.5l1.3.3a3,3,0,0,1-.38.91,2.67,2.67,0,0,1-.63.67,2.89,2.89,0,0,1-.9.43A4.35,4.35,0,0,1,23.35,15.62Z"/><path class="cls-2" d="M30.4,15.6A2,2,0,0,1,28.82,15a2.65,2.65,0,0,1-.51-1.78V9.52H27.25l0-1.22H28a1,1,0,0,0,.54-.12.57.57,0,0,0,.22-.42l.14-1.06h.89V8.3h2V9.55h-2V13.2A1,1,0,0,0,30,14a1,1,0,0,0,.73.24,2.46,2.46,0,0,0,.53-.06,1.82,1.82,0,0,0,.51-.24v1.44a5.5,5.5,0,0,1-.75.19A3.69,3.69,0,0,1,30.4,15.6Z"/><path class="cls-2" d="M39,15.44v-2.9L35.76,6.37h1.76l2.18,4.76h.07L42,6.37h1.75l-3.23,6.16v2.91Z"/><path class="cls-2" d="M47.15,15.62a3.65,3.65,0,0,1-1.83-.44,3.1,3.1,0,0,1-1.24-1.27,4.34,4.34,0,0,1-.45-2.07,4.17,4.17,0,0,1,.47-2.07,3.07,3.07,0,0,1,1.26-1.24,4.09,4.09,0,0,1,3.59,0,3.14,3.14,0,0,1,1.26,1.27,4.25,4.25,0,0,1,.46,2.09A4.22,4.22,0,0,1,50.21,14,3,3,0,0,1,49,15.21,3.79,3.79,0,0,1,47.15,15.62Zm.06-1.18a1.88,1.88,0,0,0,1-.29,1.77,1.77,0,0,0,.68-.85A3.63,3.63,0,0,0,49.17,12a3.45,3.45,0,0,0-.25-1.39,2,2,0,0,0-.7-.9,1.94,1.94,0,0,0-1.12-.32,2,2,0,0,0-1,.28,1.74,1.74,0,0,0-.68.84,3.41,3.41,0,0,0-.24,1.36,3,3,0,0,0,.55,1.93A1.84,1.84,0,0,0,47.21,14.44Z"/><path class="cls-2" d="M54.67,15.62a2.12,2.12,0,0,1-1.83-.83,4.2,4.2,0,0,1-.62-2.51v-4h1.5v3.82a3.18,3.18,0,0,0,.34,1.67,1.19,1.19,0,0,0,1.09.55,1.29,1.29,0,0,0,.73-.2,2.08,2.08,0,0,0,.56-.58,3.46,3.46,0,0,0,.38-.87,5.94,5.94,0,0,0,.2-1.11V8.3H58.5v7.14H57.24l.07-2.26h-.24a4.26,4.26,0,0,1-.5,1.39,2.09,2.09,0,0,1-.79.8A2.33,2.33,0,0,1,54.67,15.62Z"/><path class="cls-2" d="M60.57,15.44V8.3h1.29l-.07,2.47H62a5.29,5.29,0,0,1,.39-1.43,2.09,2.09,0,0,1,.71-.9,2,2,0,0,1,1.13-.31l.3,0a1.46,1.46,0,0,1,.37.08L64.85,9.8a1.55,1.55,0,0,0-.42-.12,3.18,3.18,0,0,0-.4,0,1.5,1.5,0,0,0-.94.31,2.29,2.29,0,0,0-.63.86,5.24,5.24,0,0,0-.4,1.25v3.38Z"/><path class="cls-2" d="M10.59,27.86V18.79h1.5v9.07Zm.65-7.77v-1.3H17v1.3Zm0,4V22.87h5.23v1.26Z"/><path class="cls-2" d="M18.19,27.86V20.71h1.29l-.06,2.48h.23A5.58,5.58,0,0,1,20,21.76a2.06,2.06,0,0,1,.72-.9,1.93,1.93,0,0,1,1.13-.31h.3a2.07,2.07,0,0,1,.37.08l-.07,1.57a3,3,0,0,0-.43-.12l-.39,0a1.44,1.44,0,0,0-.94.31,2.27,2.27,0,0,0-.64.85,5.19,5.19,0,0,0-.39,1.26v3.38Z"/><path class="cls-2" d="M26.89,28a4.15,4.15,0,0,1-1.51-.26,3,3,0,0,1-1.11-.72,3.1,3.1,0,0,1-.69-1.15,4.38,4.38,0,0,1-.23-1.5,4.8,4.8,0,0,1,.23-1.55,3.84,3.84,0,0,1,.67-1.23,2.87,2.87,0,0,1,1.07-.81,3.51,3.51,0,0,1,1.45-.29,3.61,3.61,0,0,1,1.35.25,2.6,2.6,0,0,1,1,.75,3.33,3.33,0,0,1,.62,1.25,5.32,5.32,0,0,1,.15,1.75l-5.59,0v-.93l4.71,0-.52.58a2.85,2.85,0,0,0-.14-1.36,1.56,1.56,0,0,0-.63-.8,1.67,1.67,0,0,0-.95-.26,1.78,1.78,0,0,0-1.05.31A1.88,1.88,0,0,0,25,23a3.52,3.52,0,0,0-.25,1.41,2.7,2.7,0,0,0,.55,1.86,2,2,0,0,0,1.57.63,2.5,2.5,0,0,0,.72-.1,1.38,1.38,0,0,0,.51-.28,1.36,1.36,0,0,0,.34-.41,2.41,2.41,0,0,0,.21-.5l1.31.3a2.81,2.81,0,0,1-.38.9,2.4,2.4,0,0,1-.64.67,2.9,2.9,0,0,1-.9.44A4.25,4.25,0,0,1,26.89,28Z"/><path class="cls-2" d="M34.77,28a4.15,4.15,0,0,1-1.51-.26,3.18,3.18,0,0,1-1.12-.72,3.08,3.08,0,0,1-.68-1.15,4.37,4.37,0,0,1-.24-1.5,4.8,4.8,0,0,1,.24-1.55,3.64,3.64,0,0,1,.66-1.23,3,3,0,0,1,1.07-.81,3.54,3.54,0,0,1,1.45-.29,3.62,3.62,0,0,1,1.36.25,2.68,2.68,0,0,1,1,.75,3.49,3.49,0,0,1,.62,1.25,5.92,5.92,0,0,1,.15,1.75l-5.6,0v-.93l4.72,0-.52.58a3,3,0,0,0-.14-1.36,1.67,1.67,0,0,0-.63-.8,1.7,1.7,0,0,0-1-.26,1.74,1.74,0,0,0-1,.31,2,2,0,0,0-.7.9,3.71,3.71,0,0,0-.24,1.41,2.75,2.75,0,0,0,.54,1.86,2,2,0,0,0,1.57.63,2.52,2.52,0,0,0,.73-.1,1.56,1.56,0,0,0,.51-.28,1.36,1.36,0,0,0,.34-.41,4.4,4.4,0,0,0,.21-.5l1.3.3a2.8,2.8,0,0,1-.37.9,2.55,2.55,0,0,1-.64.67,2.9,2.9,0,0,1-.9.44A4.3,4.3,0,0,1,34.77,28Z"/><path class="cls-2" d="M50.81,29.81a14.83,14.83,0,0,1-1.56.21,11.37,11.37,0,0,1-1.17,0c-.34,0-.68-.07-1-.13L46,29.71c-.39-.06-.85-.11-1.37-.14s-1.16,0-1.91,0V28.27h1c.34,0,.69,0,1-.06s.69-.07,1-.13a7.54,7.54,0,0,0,1-.24,4.42,4.42,0,0,0,.86-.35v-.18a5.4,5.4,0,0,1-1.75.24,3.3,3.3,0,0,1-1.4-.37,2.87,2.87,0,0,1-1-.89A4.53,4.53,0,0,1,42.81,25a6.75,6.75,0,0,1,.06-3.56,4.24,4.24,0,0,1,.8-1.48A3.52,3.52,0,0,1,45,19a4.28,4.28,0,0,1,1.78-.34,4.15,4.15,0,0,1,2.21.56,3.63,3.63,0,0,1,1.43,1.61,6,6,0,0,1,.5,2.54,5.8,5.8,0,0,1-.31,2,3.85,3.85,0,0,1-.91,1.45,4.9,4.9,0,0,1-1.5,1,11.65,11.65,0,0,1-2,.66v.16l1.24.13,1.09.06a10.42,10.42,0,0,0,1.1-.06c.37,0,.79-.11,1.25-.2Zm-4-3a2.51,2.51,0,0,0,1.43-.4,2.48,2.48,0,0,0,.87-1.16,5.26,5.26,0,0,0,.28-1.85,5.15,5.15,0,0,0-.31-1.92,2.39,2.39,0,0,0-.89-1.17,2.76,2.76,0,0,0-2.86,0,2.39,2.39,0,0,0-.88,1.16,5.54,5.54,0,0,0-.29,1.9,5,5,0,0,0,.31,1.9,2.29,2.29,0,0,0,.9,1.15A2.54,2.54,0,0,0,46.78,26.79Z"/><path class="cls-2" d="M55.09,28a2.13,2.13,0,0,1-1.82-.83,4.15,4.15,0,0,1-.62-2.51v-4h1.5v3.82a3.25,3.25,0,0,0,.34,1.68,1.18,1.18,0,0,0,1.09.55,1.27,1.27,0,0,0,.72-.21,1.91,1.91,0,0,0,.56-.57,3.39,3.39,0,0,0,.39-.88,6.75,6.75,0,0,0,.2-1.1V20.71h1.48v7.15H57.67l.06-2.27H57.5A4.84,4.84,0,0,1,57,27a2.09,2.09,0,0,1-.8.79A2.3,2.3,0,0,1,55.09,28Z"/><path class="cls-2" d="M64.11,28a3.75,3.75,0,0,1-1.83-.44A3.12,3.12,0,0,1,61,26.32a4.33,4.33,0,0,1-.45-2.06,4.18,4.18,0,0,1,.47-2.08A3,3,0,0,1,62.32,21a3.71,3.71,0,0,1,1.78-.42,3.81,3.81,0,0,1,1.81.43,3.06,3.06,0,0,1,1.26,1.26,4.28,4.28,0,0,1,.46,2.09,4.17,4.17,0,0,1-.46,2.07,3,3,0,0,1-1.26,1.25A3.91,3.91,0,0,1,64.11,28Zm.06-1.18a1.88,1.88,0,0,0,1-.29,1.85,1.85,0,0,0,.68-.86,3.57,3.57,0,0,0,.23-1.34,3.5,3.5,0,0,0-.25-1.4,2,2,0,0,0-.7-.9,1.94,1.94,0,0,0-1.12-.31A1.88,1.88,0,0,0,63,22a1.74,1.74,0,0,0-.68.84,3.4,3.4,0,0,0-.24,1.35,3.09,3.09,0,0,0,.55,1.94A1.84,1.84,0,0,0,64.17,26.86Z"/><path class="cls-2" d="M71.66,28a2,2,0,0,1-1.58-.58,2.6,2.6,0,0,1-.51-1.77V21.94H68.51l0-1.23h.68a1.09,1.09,0,0,0,.54-.11.57.57,0,0,0,.22-.42l.14-1.06H71v1.59h2V22H71v3.66a1,1,0,0,0,.25.77,1,1,0,0,0,.73.23,2.46,2.46,0,0,0,.53-.06,1.39,1.39,0,0,0,.51-.24v1.44a5.66,5.66,0,0,1-.75.2A5,5,0,0,1,71.66,28Z"/><path class="cls-2" d="M77.59,28a4.19,4.19,0,0,1-1.51-.26A3,3,0,0,1,75,27.06a3.24,3.24,0,0,1-.69-1.15,4.63,4.63,0,0,1-.23-1.5,5.09,5.09,0,0,1,.23-1.55A3.84,3.84,0,0,1,75,21.63,2.87,2.87,0,0,1,76,20.82a3.77,3.77,0,0,1,2.8,0,2.6,2.6,0,0,1,1,.75,3.19,3.19,0,0,1,.62,1.25,5.32,5.32,0,0,1,.15,1.75l-5.59,0v-.93l4.71,0-.52.58a2.73,2.73,0,0,0-.14-1.36,1.56,1.56,0,0,0-.63-.8,1.67,1.67,0,0,0-1-.26,1.78,1.78,0,0,0-1,.31,1.88,1.88,0,0,0-.69.9,3.52,3.52,0,0,0-.25,1.41A2.7,2.7,0,0,0,76,26.24a2,2,0,0,0,1.57.63,2.63,2.63,0,0,0,.73-.1,1.42,1.42,0,0,0,.5-.28,1.36,1.36,0,0,0,.34-.41,2.41,2.41,0,0,0,.21-.5l1.31.3a2.81,2.81,0,0,1-.38.9,2.4,2.4,0,0,1-.64.67,2.7,2.7,0,0,1-.9.44A4.25,4.25,0,0,1,77.59,28Z"/></g></g></svg>