<svg xmlns="http://www.w3.org/2000/svg" viewBox="0 0 300 600"><defs><style>.cls-1{fill:#fffefd;}.cls-2{fill:#fff;}</style></defs><g id="Layer_2" data-name="Layer 2"><g id="Layer_1-2" data-name="Layer 1"><rect class="cls-1" width="300" height="600"/><rect y="567.15" width="300" height="32.85"/><path class="cls-2" d="M79.57,577.2h1.7L88,587.05V577.2h1.86v12.9H88.15l-6.75-9.79v9.79H79.57Z"/><path class="cls-2" d="M91.26,585.2a5.06,5.06,0,0,1,5.39-5.2c3.09,0,5.45,2,5.43,5.2a5.12,5.12,0,0,1-5.43,5.1A5.18,5.18,0,0,1,91.26,585.2Zm5.37,3.55a3.61,3.61,0,1,0,0-7.21,3.47,3.47,0,0,0-3.56,3.66A3.54,3.54,0,0,0,96.63,588.75Z"/><path class="cls-2" d="M103.53,585.24v-8h1.84v7.9c0,2.07,1.15,3.58,3.36,3.58s3.31-1.51,3.31-3.58v-7.9h1.83v8a5.17,5.17,0,0,1-10.34,0Z"/><path class="cls-2" d="M115.32,580.41h1.84v2.42a4.39,4.39,0,0,1,4-2.71,4.9,4.9,0,0,1,5,5c0,3.22-2.11,5.16-4.87,5.14a4.36,4.36,0,0,1-4.12-2.62v6h-1.84Zm5.45,8.34a3.35,3.35,0,0,0,3.54-3.59,3.45,3.45,0,0,0-3.54-3.48,3.5,3.5,0,0,0-3.53,3.48A3.44,3.44,0,0,0,120.77,588.75Z"/><path class="cls-2" d="M127.58,577.2h8.72V579h-6.88v3.77H135v1.63h-5.57v5.66h-1.84Z"/><path class="cls-2" d="M136.77,580.19h1.83V583a4,4,0,0,1,4.83-2.56l-.9,1.52a3.26,3.26,0,0,0-3.85,3.27v4.9h-1.91Z"/><path class="cls-2" d="M143.06,585.2a5.07,5.07,0,0,1,5.4-5.2c3.08,0,5.45,2,5.43,5.2a5.13,5.13,0,0,1-5.43,5.1A5.18,5.18,0,0,1,143.06,585.2Zm5.38,3.55a3.61,3.61,0,0,0,0-7.21,3.47,3.47,0,0,0-3.56,3.66A3.54,3.54,0,0,0,148.44,588.75Z"/><path class="cls-2" d="M155.34,580.19h1.83v2.47a4.46,4.46,0,0,1,4.21-2.66c2.77,0,4.9,1.93,4.9,5.2v4.9h-1.85l0-4.9a3.42,3.42,0,0,0-3.6-3.66,3.51,3.51,0,0,0-3.6,3.66v4.9h-1.91Z"/><path class="cls-2" d="M168.61,586.43v-4.69H167v-1.62c1.85,0,1.62-1.12,1.62-2.92h1.84l0,2.92h3.08v1.62h-3.1v4.49c0,2,1.85,2.72,3.5,2l.35,1.58C172,590.83,168.61,589.83,168.61,586.43Z"/><path class="cls-2" d="M175.75,589a1.1,1.1,0,1,1,1.11,1.11A1.09,1.09,0,0,1,175.75,589Z"/><path class="cls-2" d="M179.4,585.2a5,5,0,0,1,5.39-5.2,5.29,5.29,0,0,1,5,2.91l-1.7.65a3.6,3.6,0,0,0-3.27-2,3.61,3.61,0,0,0,0,7.21,3.63,3.63,0,0,0,3.3-2.09l1.7.69a5.4,5.4,0,0,1-5,2.95A5.17,5.17,0,0,1,179.4,585.2Z"/><path class="cls-2" d="M191.23,585.2a5.06,5.06,0,0,1,5.39-5.2c3.09,0,5.46,2,5.44,5.2a5.42,5.42,0,0,1-10.83,0Zm5.37,3.55a3.61,3.61,0,1,0,0-7.21,3.47,3.47,0,0,0-3.56,3.66A3.54,3.54,0,0,0,196.6,588.75Z"/><path class="cls-2" d="M203.5,580.19h1.84v2.47a3.64,3.64,0,0,1,3.42-2.66,3.68,3.68,0,0,1,3.75,2.73,3.86,3.86,0,0,1,3.72-2.73c2.54,0,4.2,1.74,4.2,4.77v5.33h-1.84v-5.31c0-2-1.07-3.27-2.87-3.25s-2.78,1.29-2.78,3.27v5.29h-1.83v-5.31c0-2-1.1-3.29-2.88-3.25a3.07,3.07,0,0,0-2.81,3.23l0,5.33h-1.9Z"/></g></g></svg>