<svg xmlns="http://www.w3.org/2000/svg" viewBox="0 0 108 38"><defs><style>.cls-1{fill:#b3e860;}.cls-2{fill:#fff;}</style></defs><g id="Layer_2" data-name="Layer 2"><g id="Layer_1-2" data-name="Layer 1"><rect class="cls-1" width="108" height="38" rx="19"/><rect class="cls-2" x="6" y="6" width="95.45" height="26" rx="13"/><path d="M19.56,18.84c0-2.69,1.61-4.8,4.49-4.8a4.12,4.12,0,0,1,4.14,2.89l-1.37,1a2.67,2.67,0,0,0-2.76-2.4c-1.92,0-2.83,1.37-2.83,3.31s.91,3.3,2.83,3.3a2.68,2.68,0,0,0,2.76-2.39l1.37,1a4.15,4.15,0,0,1-4.14,2.89C21.17,23.64,19.56,21.53,19.56,18.84Z"/><path d="M29,20.14a3.31,3.31,0,1,1,6.61,0,3.31,3.31,0,1,1-6.61,0Zm5,0c0-1.58-.7-2.25-1.72-2.25s-1.7.67-1.7,2.25.7,2.23,1.7,2.23S34,21.7,34,20.14Z"/><path d="M37,23.53v-6.8h1.56v1.86a2.3,2.3,0,0,1,2.3-2A2,2,0,0,1,43,18.8v4.73H41.37V19.27c0-.84-.28-1.41-1.32-1.41s-1.54.74-1.54,1.86v3.81Z"/><path d="M43.84,22l.92-1a2.75,2.75,0,0,0,2.43,1.38c.67,0,1.1-.24,1.1-.73S47.77,21,47,20.83l-.91-.22c-1.07-.25-2.06-.72-2.06-2s1-2,2.58-2a3.22,3.22,0,0,1,2.89,1.46l-.92,1a2.42,2.42,0,0,0-2.08-1.2c-.6,0-1,.25-1,.71s.37.67,1.29.91l.82.21c1.52.39,2.08,1,2.08,2,0,1.34-1.13,2-2.57,2A3.52,3.52,0,0,1,43.84,22Z"/><path d="M50.74,21.46V16.73h1.57V21c0,.83.27,1.41,1.32,1.41s1.54-.74,1.54-1.86V16.73h1.57v6.8H55.17V21.67a2.32,2.32,0,0,1-2.31,2A2,2,0,0,1,50.74,21.46Z"/><path d="M58.39,23.53V14.18H60v9.35Z"/><path d="M62,21.67V18H61V16.73H62v-.82l1.56-1v1.81h2.08V18H63.59v3.34c0,.74.35.92.81.92a1.33,1.33,0,0,0,1.11-.82l.49,1.4a2.32,2.32,0,0,1-2,.89A1.87,1.87,0,0,1,62,21.67Z"/><path d="M69.87,19.54V14.18h1.56v5.37c0,1.86.63,2.61,2.16,2.61s2.16-.75,2.16-2.61V14.18h1.56v5.36c0,2.83-1.18,4.13-3.73,4.13S69.87,22.37,69.87,19.54Z"/><path d="M78.38,22l.92-1a2.73,2.73,0,0,0,2.42,1.38c.67,0,1.1-.24,1.1-.73s-.51-.67-1.26-.85l-.91-.22c-1.07-.25-2.07-.72-2.07-2s1-2,2.59-2a3.21,3.21,0,0,1,2.88,1.46l-.92,1a2.41,2.41,0,0,0-2.08-1.2c-.6,0-1,.25-1,.71s.36.67,1.28.91l.83.21c1.52.39,2.07,1,2.07,2,0,1.34-1.13,2-2.56,2A3.51,3.51,0,0,1,78.38,22Z"/><path d="M85.63,20.58c0-1.81-.29-4-.29-6.4h2c0,2.36-.3,4.59-.3,6.4Zm-.2,3v-2h1.79v2Z"/></g></g></svg>