<svg xmlns="http://www.w3.org/2000/svg" viewBox="0 0 162.92 37.1"><g id="Layer_2" data-name="Layer 2"><g id="Layer_1-2" data-name="Layer 1"><path d="M1.18,15.69V1H3.23V15.69Zm1.09-4.5V9.45H5.88a5.17,5.17,0,0,0,3.19-.82A3.07,3.07,0,0,0,10.14,6a3.1,3.1,0,0,0-1-2.51A4.65,4.65,0,0,0,6.1,2.67H2.27V1H6.15a9.11,9.11,0,0,1,2.57.33,5.47,5.47,0,0,1,1.91,1,4.28,4.28,0,0,1,1.19,1.6,5.35,5.35,0,0,1,.41,2.19,5,5,0,0,1-.75,2.79A4.74,4.74,0,0,1,9.25,10.6a9.81,9.81,0,0,1-3.61.59Z"/><path d="M17.27,16a3.88,3.88,0,0,1-1.69-.37,2.9,2.9,0,0,1-1.21-1.09,3.46,3.46,0,0,1-.44-1.84,3.32,3.32,0,0,1,.3-1.45,2.78,2.78,0,0,1,.93-1.07,5.43,5.43,0,0,1,1.64-.73,16.49,16.49,0,0,1,2.45-.49c.55-.08,1-.15,1.35-.23a1.36,1.36,0,0,0,.77-.37,1.07,1.07,0,0,0,.24-.76A1.93,1.93,0,0,0,21,6.15a2.46,2.46,0,0,0-1.82-.58,4.45,4.45,0,0,0-1.32.22,2.94,2.94,0,0,0-1.17.75A2.62,2.62,0,0,0,16.09,8l-1.87-.62a4.14,4.14,0,0,1,.59-1.45,4,4,0,0,1,1-1.11,5.38,5.38,0,0,1,1.51-.7,7.06,7.06,0,0,1,1.9-.24,5.27,5.27,0,0,1,2.42.49,3.11,3.11,0,0,1,1.45,1.5,6.1,6.1,0,0,1,.48,2.6V11q0,.69,0,1.5c0,.55.06,1.09.1,1.63s.09,1.05.14,1.53H22l-.12-1.43c0-.47-.06-.95-.08-1.43h-.29a6.24,6.24,0,0,1-.89,1.54,4.25,4.25,0,0,1-1.39,1.16A4.09,4.09,0,0,1,17.27,16Zm.6-1.65a3.11,3.11,0,0,0,1-.16,3.27,3.27,0,0,0,1-.51,4.8,4.8,0,0,0,1-.91,6.21,6.21,0,0,0,.82-1.34V9.18l.58.11a2.26,2.26,0,0,1-.95.54,10.64,10.64,0,0,1-1.31.29l-1.42.23a6,6,0,0,0-1.3.36,2.27,2.27,0,0,0-.95.65,1.75,1.75,0,0,0-.36,1.16,1.66,1.66,0,0,0,.54,1.35A2.09,2.09,0,0,0,17.87,14.33Z"/><path d="M30.84,19.56a7.77,7.77,0,0,1-1.8-.21,6.14,6.14,0,0,1-1.61-.63,3.82,3.82,0,0,1-1.2-1.09l1-1.48a3.12,3.12,0,0,0,1.45,1.16,5.1,5.1,0,0,0,2.05.4,3.76,3.76,0,0,0,2.08-.54,3.3,3.3,0,0,0,1.26-1.7,8.79,8.79,0,0,0,.45-2.86l.24-2.32h-.42a8.21,8.21,0,0,1-.77,2.6,3.31,3.31,0,0,1-1.29,1.39,3.57,3.57,0,0,1-1.77.43,3.46,3.46,0,0,1-2.11-.64,3.85,3.85,0,0,1-1.3-1.87,8.86,8.86,0,0,1-.45-3v-5h2V8.73a6.33,6.33,0,0,0,.61,3.18,2,2,0,0,0,1.84,1,2.21,2.21,0,0,0,1.2-.33,2.84,2.84,0,0,0,.93-1A5.57,5.57,0,0,0,33.9,10a12.25,12.25,0,0,0,.3-2.3V4.17h2v8.55a13.87,13.87,0,0,1-.2,2.45,6.4,6.4,0,0,1-.64,1.91,4.75,4.75,0,0,1-1.08,1.37,4.36,4.36,0,0,1-1.51.84A6.59,6.59,0,0,1,30.84,19.56Z"/><path d="M47.7,16A3.91,3.91,0,0,1,46,15.61a2.87,2.87,0,0,1-1.2-1.09,3.46,3.46,0,0,1-.45-1.84,3.32,3.32,0,0,1,.3-1.45,2.81,2.81,0,0,1,.94-1.07,5.32,5.32,0,0,1,1.64-.73,16.23,16.23,0,0,1,2.45-.49c.55-.08,1-.15,1.35-.23a1.36,1.36,0,0,0,.76-.37,1,1,0,0,0,.25-.76,1.93,1.93,0,0,0-.58-1.43,2.48,2.48,0,0,0-1.83-.58,4.34,4.34,0,0,0-1.31.22,2.81,2.81,0,0,0-1.17.75A2.56,2.56,0,0,0,46.52,8l-1.87-.62a4.56,4.56,0,0,1,.59-1.45A4.14,4.14,0,0,1,46.3,4.82a5.13,5.13,0,0,1,1.51-.7,7,7,0,0,1,1.9-.24,5.3,5.3,0,0,1,2.42.49,3.15,3.15,0,0,1,1.45,1.5,6.1,6.1,0,0,1,.48,2.6V11q0,.69,0,1.5c0,.55,0,1.09.1,1.63s.09,1.05.13,1.53H52.45l-.12-1.43c0-.47-.06-.95-.08-1.43H52a6.24,6.24,0,0,1-.89,1.54,4.36,4.36,0,0,1-1.39,1.16A4.13,4.13,0,0,1,47.7,16Zm.61-1.65a3.2,3.2,0,0,0,1-.16,3.39,3.39,0,0,0,1-.51,5.41,5.41,0,0,0,1-.91,6.61,6.61,0,0,0,.81-1.34V9.18l.58.11a2.2,2.2,0,0,1-.95.54,10.08,10.08,0,0,1-1.3.29L49,10.35a6.17,6.17,0,0,0-1.3.36,2.33,2.33,0,0,0-1,.65,1.8,1.8,0,0,0-.35,1.16,1.68,1.68,0,0,0,.53,1.35A2.13,2.13,0,0,0,48.31,14.33Z"/><path d="M58.2,15.69V7.55H56.15V5.93L59,6.11V5.73a2.53,2.53,0,0,1-.92-.62,2.63,2.63,0,0,1-.56-.9,3.24,3.24,0,0,1-.19-1.09,3.09,3.09,0,0,1,.42-1.63A2.84,2.84,0,0,1,59,.4,3.86,3.86,0,0,1,60.78,0a4.82,4.82,0,0,1,1.53.23,3.49,3.49,0,0,1,1.13.62l-.25,1.89a2.93,2.93,0,0,0-1-.63A3.3,3.3,0,0,0,61,1.87a1.63,1.63,0,0,0-1.2.47,2,2,0,0,0-.47,1.45,2.54,2.54,0,0,0,.16,1,2.2,2.2,0,0,0,.41.68,3.48,3.48,0,0,0,.52.45h2.86l0,1.67h-3v8.14Z"/><path d="M69.23,15.91A3.06,3.06,0,0,1,66.84,15a3.87,3.87,0,0,1-.78-2.65V5.86H64.33l0-1.69h1.09a1.34,1.34,0,0,0,.81-.2.94.94,0,0,0,.3-.67l.23-1.74H68V4.17h3.32V5.88H68v6.46a1.69,1.69,0,0,0,.41,1.29,1.66,1.66,0,0,0,1.19.39,3.45,3.45,0,0,0,.88-.12,2.5,2.5,0,0,0,.9-.44v2a6.54,6.54,0,0,1-1.19.33A6.06,6.06,0,0,1,69.23,15.91Z"/><path d="M78.54,16a6.33,6.33,0,0,1-2.39-.42,4.58,4.58,0,0,1-1.75-1.19,5,5,0,0,1-1.07-1.85,7.47,7.47,0,0,1-.36-2.4,8.25,8.25,0,0,1,.36-2.5,5.86,5.86,0,0,1,1-2,4.62,4.62,0,0,1,1.69-1.31,5.54,5.54,0,0,1,2.29-.45,5.39,5.39,0,0,1,2.08.38A4,4,0,0,1,82,5.43a5.12,5.12,0,0,1,1,2,9.24,9.24,0,0,1,.27,2.8l-9.05.06V8.89l7.82-.07-.69.94a4.87,4.87,0,0,0-.27-2.32,2.8,2.8,0,0,0-2.74-1.85,3.08,3.08,0,0,0-1.8.54,3.28,3.28,0,0,0-1.19,1.54A6.22,6.22,0,0,0,75,10.09a4.71,4.71,0,0,0,.91,3.13,3.3,3.3,0,0,0,2.69,1.08,4.15,4.15,0,0,0,1.24-.16,2.6,2.6,0,0,0,.89-.47,2.35,2.35,0,0,0,.6-.7,3.74,3.74,0,0,0,.37-.87l1.78.42A4.44,4.44,0,0,1,82.83,14a4.19,4.19,0,0,1-1,1.08,4.58,4.58,0,0,1-1.42.69A6.42,6.42,0,0,1,78.54,16Z"/><path d="M86,15.69V4.17h1.82l-.17,4H88a9.38,9.38,0,0,1,.63-2.28,3.83,3.83,0,0,1,1.12-1.49,2.84,2.84,0,0,1,1.75-.53l.52,0a2.92,2.92,0,0,1,.66.17L92.6,6.19A3.93,3.93,0,0,0,91.93,6a4.72,4.72,0,0,0-.64,0,2.24,2.24,0,0,0-1.51.56,4.27,4.27,0,0,0-1,1.5,10.86,10.86,0,0,0-.7,2.13v5.55Z"/><path d="M100.38,15.69V1h5.12a10.6,10.6,0,0,1,2,.18,6.8,6.8,0,0,1,1.65.53,4.68,4.68,0,0,1,1.23.87,3.44,3.44,0,0,1,.75,1.19,4.31,4.31,0,0,1,.26,1.51,4.27,4.27,0,0,1-.23,1.42,3.14,3.14,0,0,1-.71,1.14,3.41,3.41,0,0,1-1.15.79,5.66,5.66,0,0,1-1.61.41v.29a3.54,3.54,0,0,1,1.4.43,2.8,2.8,0,0,1,1,1,6.33,6.33,0,0,1,.74,1.68l.93,3.3h-2.2l-.76-3a3.35,3.35,0,0,0-.68-1.47,3,3,0,0,0-1.19-.83,5,5,0,0,0-1.68-.26h-2.89v5.57Zm2.05-7.25h2.89a5.15,5.15,0,0,0,3-.71,2.47,2.47,0,0,0,1-2.18,2.5,2.5,0,0,0-1-2.17,5.14,5.14,0,0,0-3-.71h-2.94Z"/><path d="M119.45,16a6.3,6.3,0,0,1-2.39-.42,4.5,4.5,0,0,1-1.75-1.19,4.87,4.87,0,0,1-1.07-1.85,7.47,7.47,0,0,1-.36-2.4,8.25,8.25,0,0,1,.36-2.5,5.67,5.67,0,0,1,1-2A4.66,4.66,0,0,1,117,4.33a5.54,5.54,0,0,1,2.29-.45,5.3,5.3,0,0,1,2.07.38,3.94,3.94,0,0,1,1.6,1.17,5.12,5.12,0,0,1,1,2,9.24,9.24,0,0,1,.27,2.8l-9,.06V8.89L123,8.82l-.69.94A5,5,0,0,0,122,7.44a2.8,2.8,0,0,0-2.74-1.85,3.08,3.08,0,0,0-1.8.54,3.28,3.28,0,0,0-1.19,1.54,6.21,6.21,0,0,0-.42,2.42,4.71,4.71,0,0,0,.92,3.13,3.29,3.29,0,0,0,2.69,1.08,4.15,4.15,0,0,0,1.24-.16,2.6,2.6,0,0,0,.89-.47,2.35,2.35,0,0,0,.6-.7,3.74,3.74,0,0,0,.37-.87l1.78.42a4.44,4.44,0,0,1-.61,1.44,4.19,4.19,0,0,1-1,1.08,4.69,4.69,0,0,1-1.42.69A6.42,6.42,0,0,1,119.45,16Z"/><path d="M131.37,16a8.2,8.2,0,0,1-2.14-.26,4.52,4.52,0,0,1-1.56-.74,3.39,3.39,0,0,1-1-1.14,3.46,3.46,0,0,1-.35-1.47l1.71-.45a1.88,1.88,0,0,0,.37,1.28,2.62,2.62,0,0,0,1.18.84,5.34,5.34,0,0,0,1.86.29,3.86,3.86,0,0,0,2-.45,1.38,1.38,0,0,0,.73-1.22,1.2,1.2,0,0,0-.41-1,2.9,2.9,0,0,0-1.1-.56,16.54,16.54,0,0,0-1.66-.39c-.53-.12-1.07-.25-1.6-.4A6.85,6.85,0,0,1,128,9.75a3.09,3.09,0,0,1-1.06-1,2.61,2.61,0,0,1-.4-1.49,2.93,2.93,0,0,1,.56-1.81A3.59,3.59,0,0,1,128.7,4.3a6.44,6.44,0,0,1,2.45-.42,6.11,6.11,0,0,1,2.43.43,3.82,3.82,0,0,1,1.58,1.22,3.37,3.37,0,0,1,.65,1.82L134,7.8a2.2,2.2,0,0,0-.38-1.25,2.28,2.28,0,0,0-1-.77,4.4,4.4,0,0,0-1.56-.25,3.38,3.38,0,0,0-1.87.44,1.4,1.4,0,0,0-.69,1.23,1.15,1.15,0,0,0,.41.93,2.8,2.8,0,0,0,1.12.56c.48.13,1,.27,1.59.4s1.16.25,1.7.4a6.64,6.64,0,0,1,1.46.58,2.94,2.94,0,0,1,1,.95,2.73,2.73,0,0,1,.37,1.5,3,3,0,0,1-.6,1.91,3.65,3.65,0,0,1-1.68,1.16A7.43,7.43,0,0,1,131.37,16Z"/><path d="M142.47,16a3.37,3.37,0,0,1-2.9-1.34,6.74,6.74,0,0,1-1-4V4.17h2v6.3a5.28,5.28,0,0,0,.58,2.79,2,2,0,0,0,1.83.91,2.31,2.31,0,0,0,1.23-.33,3.28,3.28,0,0,0,1-1,5.19,5.19,0,0,0,.69-1.48,8.76,8.76,0,0,0,.36-1.86V4.17h2V15.69h-1.81l.18-3.7h-.33a7.6,7.6,0,0,1-.82,2.26,3.31,3.31,0,0,1-1.3,1.3A3.69,3.69,0,0,1,142.47,16Z"/><path d="M151.69,15.69V.09h2v15.6Z"/><path d="M160.74,15.91a3.06,3.06,0,0,1-2.39-.87,3.87,3.87,0,0,1-.78-2.65V5.86h-1.73l0-1.69H157a1.34,1.34,0,0,0,.81-.2.94.94,0,0,0,.3-.67l.23-1.74h1.25V4.17h3.32V5.88h-3.32v6.46a1.69,1.69,0,0,0,.41,1.29,1.66,1.66,0,0,0,1.19.39,3.51,3.51,0,0,0,.88-.12,2.43,2.43,0,0,0,.9-.44v2a6.54,6.54,0,0,1-1.19.33A6.06,6.06,0,0,1,160.74,15.91Z"/><path d="M0,31.82V30H9.94v1.87Z"/><path d="M17.91,36.81V22.11h2.72l7.76,12h.17l-.15-12h2v14.7H27.92L20,24.54h-.2l.16,12.27Z"/><path d="M38.86,37.1A5.76,5.76,0,0,1,36,36.38a5,5,0,0,1-2-2.08,7.12,7.12,0,0,1-.7-3.3A6.67,6.67,0,0,1,34,27.67a4.91,4.91,0,0,1,2-2A5.86,5.86,0,0,1,38.81,25a5.79,5.79,0,0,1,2.87.71,5,5,0,0,1,2,2.05,6.86,6.86,0,0,1,.74,3.33,6.82,6.82,0,0,1-.73,3.32,4.8,4.8,0,0,1-2,2A5.82,5.82,0,0,1,38.86,37.1ZM39,35.43a3.21,3.21,0,0,0,1.84-.52A3.38,3.38,0,0,0,42,33.43a5.84,5.84,0,0,0,.41-2.28A6,6,0,0,0,42,28.8a3.51,3.51,0,0,0-1.24-1.53A3.66,3.66,0,0,0,37,27.21a3.22,3.22,0,0,0-1.19,1.44,5.66,5.66,0,0,0-.42,2.3,5,5,0,0,0,1,3.29A3.19,3.19,0,0,0,39,35.43Z"/><path d="M50.74,37a3.06,3.06,0,0,1-2.39-.87,3.88,3.88,0,0,1-.78-2.65V27H45.83l0-1.7H47a1.27,1.27,0,0,0,.81-.2.9.9,0,0,0,.3-.67l.22-1.73h1.25v2.6h3.32V27H49.53v6.46a1.43,1.43,0,0,0,1.61,1.67A3.48,3.48,0,0,0,52,35a2.38,2.38,0,0,0,.9-.45v2a5.9,5.9,0,0,1-1.19.34A6.26,6.26,0,0,1,50.74,37Z"/><path d="M66.71,37.1a3.87,3.87,0,0,1-1.9-.44,3.38,3.38,0,0,1-1.27-1.22,5.87,5.87,0,0,1-.73-1.75h-.35l.11,3.12H60.74V21.22h2v3.61c0,.38,0,.79-.06,1.21s-.09.86-.15,1.3-.14.88-.21,1.3h.4a7.13,7.13,0,0,1,.71-1.76,3.77,3.77,0,0,1,1.26-1.34,3.56,3.56,0,0,1,2-.51,4.11,4.11,0,0,1,2.51.76,5,5,0,0,1,1.59,2.13,8.35,8.35,0,0,1,.56,3.17,8.07,8.07,0,0,1-.55,3.09,4.83,4.83,0,0,1-1.58,2.14A4.08,4.08,0,0,1,66.71,37.1Zm-.49-1.78a2.62,2.62,0,0,0,1.63-.51,3.25,3.25,0,0,0,1-1.47,6.1,6.1,0,0,0,.37-2.23,6.38,6.38,0,0,0-.36-2.22,3.62,3.62,0,0,0-1-1.54,2.52,2.52,0,0,0-1.65-.56,2.76,2.76,0,0,0-1.27.28,3.17,3.17,0,0,0-1,.74,4.71,4.71,0,0,0-.68,1A5.49,5.49,0,0,0,62.9,30a4.33,4.33,0,0,0-.13,1v.26A4.25,4.25,0,0,0,63,32.62,4.78,4.78,0,0,0,63.68,34a3.55,3.55,0,0,0,1.09,1A2.85,2.85,0,0,0,66.22,35.32Z"/><path d="M79.08,37.1a6.35,6.35,0,0,1-2.4-.41,4.66,4.66,0,0,1-1.75-1.19,5.23,5.23,0,0,1-1.07-1.85,7.83,7.83,0,0,1-.35-2.41,8.51,8.51,0,0,1,.35-2.49,6,6,0,0,1,1-2,4.79,4.79,0,0,1,1.69-1.3A5.59,5.59,0,0,1,78.9,25a5.49,5.49,0,0,1,2.07.38,4.09,4.09,0,0,1,1.59,1.17,5.4,5.4,0,0,1,1,2,8.89,8.89,0,0,1,.26,2.79l-9,.07V30L82.6,30l-.69.94a5.13,5.13,0,0,0-.27-2.32,2.8,2.8,0,0,0-2.74-1.85,3.18,3.18,0,0,0-1.81.53,3.39,3.39,0,0,0-1.19,1.54,6.5,6.5,0,0,0-.41,2.43,4.71,4.71,0,0,0,.91,3.13,3.34,3.34,0,0,0,2.7,1.08,3.87,3.87,0,0,0,1.24-.17,2.78,2.78,0,0,0,.89-.46,2.73,2.73,0,0,0,.6-.71,3.91,3.91,0,0,0,.37-.86l1.78.42a4.88,4.88,0,0,1-.61,1.44,4.23,4.23,0,0,1-1,1.08,5.14,5.14,0,0,1-1.41.69A6.53,6.53,0,0,1,79.08,37.1Z"/><path d="M87.46,36.81V28.68h-2V27.05l2.87.18v-.38a2.51,2.51,0,0,1-.93-.61,2.6,2.6,0,0,1-.55-.9,3,3,0,0,1-.19-1.09A3.16,3.16,0,0,1,87,22.62a3,3,0,0,1,1.18-1.09,3.9,3.9,0,0,1,1.84-.4,4.91,4.91,0,0,1,1.53.23,3.61,3.61,0,0,1,1.12.61l-.24,1.9a3.26,3.26,0,0,0-1-.64,3.4,3.4,0,0,0-1.2-.23,1.63,1.63,0,0,0-1.21.47,2,2,0,0,0-.46,1.45,2.67,2.67,0,0,0,.15.95,2,2,0,0,0,.42.68,2.73,2.73,0,0,0,.52.46h2.85l0,1.67h-3v8.13Z"/><path d="M99.55,37.1a5.72,5.72,0,0,1-2.9-.72,4.93,4.93,0,0,1-2-2.08A7.12,7.12,0,0,1,94,31a6.67,6.67,0,0,1,.75-3.33,5,5,0,0,1,2-2A5.9,5.9,0,0,1,99.51,25a5.75,5.75,0,0,1,2.86.71,5,5,0,0,1,2,2.05,6.86,6.86,0,0,1,.73,3.33,6.94,6.94,0,0,1-.72,3.32,4.86,4.86,0,0,1-2,2A5.83,5.83,0,0,1,99.55,37.1Zm.09-1.67a3.16,3.16,0,0,0,1.84-.52,3.31,3.31,0,0,0,1.18-1.48,5.66,5.66,0,0,0,.41-2.28,5.83,5.83,0,0,0-.43-2.35,3.44,3.44,0,0,0-1.24-1.53,3.31,3.31,0,0,0-1.94-.55,3.27,3.27,0,0,0-1.81.49,3.22,3.22,0,0,0-1.19,1.44A5.49,5.49,0,0,0,96,31a5.1,5.1,0,0,0,1,3.29A3.21,3.21,0,0,0,99.64,35.43Z"/><path d="M107.84,36.81V25.29h1.83l-.18,4h.38a9,9,0,0,1,.62-2.27,3.78,3.78,0,0,1,1.13-1.49,2.79,2.79,0,0,1,1.75-.54c.15,0,.32,0,.51,0a3,3,0,0,1,.67.17l-.11,2.11a3.37,3.37,0,0,0-.67-.19,3.63,3.63,0,0,0-.65-.05,2.19,2.19,0,0,0-1.5.55,4.34,4.34,0,0,0-1.06,1.51,11.58,11.58,0,0,0-.69,2.13v5.54Z"/><path d="M121.32,37.1a6.34,6.34,0,0,1-2.39-.41,4.58,4.58,0,0,1-1.75-1.19,5.08,5.08,0,0,1-1.07-1.85,7.53,7.53,0,0,1-.36-2.41,8.19,8.19,0,0,1,.36-2.49,6,6,0,0,1,1-2,4.71,4.71,0,0,1,1.69-1.3,5.91,5.91,0,0,1,4.37-.08,4.17,4.17,0,0,1,1.59,1.17,5.24,5.24,0,0,1,1,2,9.18,9.18,0,0,1,.27,2.79l-9,.07V30l7.82-.07-.69.94a5,5,0,0,0-.26-2.32,3,3,0,0,0-1.09-1.38,2.91,2.91,0,0,0-1.65-.47,3.16,3.16,0,0,0-1.81.53,3.33,3.33,0,0,0-1.19,1.54,6.3,6.3,0,0,0-.41,2.43,4.71,4.71,0,0,0,.91,3.13,3.34,3.34,0,0,0,2.7,1.08,3.81,3.81,0,0,0,1.23-.17,2.58,2.58,0,0,0,.89-.46,2.39,2.39,0,0,0,.6-.71,3.49,3.49,0,0,0,.37-.86l1.78.42a4.63,4.63,0,0,1-.61,1.44,4,4,0,0,1-1,1.08,5.07,5.07,0,0,1-1.42.69A6.44,6.44,0,0,1,121.32,37.1Z"/></g></g></svg>