<svg xmlns="http://www.w3.org/2000/svg" width="144.52" height="25.72" viewBox="0 0 144.52 25.72"><defs><style>.cls-1{fill:#ff7f00;}.cls-2{fill:#fff;}</style></defs><g id="Layer_2" data-name="Layer 2"><g id="Layer_1-2" data-name="Layer 1"><rect class="cls-1" width="144.52" height="25.72" rx="12.86"/><path class="cls-2" d="M24,13.29a.53.53,0,0,0,0,.25,2.62,2.62,0,0,1,0,.28,1.57,1.57,0,0,1-.05.3c0,.1-.05.2-.06.3a.52.52,0,0,0,0,.11.38.38,0,0,1,0,.1,1.17,1.17,0,0,1-.05.11.49.49,0,0,0,0,.11.85.85,0,0,0,0,.23.78.78,0,0,1,0,.22.46.46,0,0,0-.08.16.24.24,0,0,1,0,.07l-.17.32a.85.85,0,0,0-.12.36,1.35,1.35,0,0,1-.19.32,2.54,2.54,0,0,1-.2.24l-.21.2a.91.91,0,0,0-.18.21.4.4,0,0,0-.13.07.2.2,0,0,0-.09.09.26.26,0,0,0-.16.07.18.18,0,0,1-.15.06l-.09.06s-.07,0-.08.07l-.28.13a1.51,1.51,0,0,0-.22.11.19.19,0,0,0-.18,0,.37.37,0,0,1-.14.07.2.2,0,0,1-.13,0l-.17,0a.5.5,0,0,1-.15,0,.06.06,0,0,0-.08,0c-.1,0-.15,0-.16,0s0,0-.08,0h-.24a.32.32,0,0,0-.18.06h-.39l-.14,0h-.06l-.08,0-.07,0h-.17l-.17,0h-.08l-.06,0-.09,0-.08,0a.74.74,0,0,0-.21,0,.78.78,0,0,1-.22,0L17.84,18,17.75,18a.23.23,0,0,1-.2,0,.35.35,0,0,0-.16-.08.35.35,0,0,0-.14,0,.35.35,0,0,1-.14,0c-.12-.06-.19-.11-.2-.16h-.1l-.09,0a1,1,0,0,0-.16-.12.61.61,0,0,0-.18-.09.11.11,0,0,0-.08-.08.2.2,0,0,1-.11-.06l-.13-.12,0-.06h-.08s-.06,0-.06,0a.6.6,0,0,0-.15-.09.19.19,0,0,1-.1-.1.54.54,0,0,1-.23-.1,1.29,1.29,0,0,1-.18-.16q-.08,0-.09,0l-.07,0s0-.06,0-.07a.1.1,0,0,1-.07-.07.15.15,0,0,1-.16-.08.2.2,0,0,0-.16-.09l0-.08a.11.11,0,0,0-.09-.05.61.61,0,0,0-.15-.23l-.21-.21s0,0-.07-.06,0-.05-.06-.07a1,1,0,0,1-.08-.24.14.14,0,0,0-.09-.12.12.12,0,0,0,0-.1L13.78,15a.36.36,0,0,1,0-.11.21.21,0,0,0-.06-.1.45.45,0,0,0,0-.23,1,1,0,0,0-.06-.22.48.48,0,0,0,0-.17.27.27,0,0,0,0-.14.54.54,0,0,0,0-.22.82.82,0,0,1,0-.22c0-.12,0-.23,0-.33a2,2,0,0,1,0-.34.86.86,0,0,1,0-.13v-.07a1,1,0,0,1,0-.15l0-.06a1.5,1.5,0,0,0,0-.2.52.52,0,0,1,0-.18.57.57,0,0,1,.1-.19s0-.06,0-.07a.08.08,0,0,1,0-.09.2.2,0,0,0,.08-.2.75.75,0,0,1,0-.26.34.34,0,0,1,0-.12l.05-.12a.57.57,0,0,1,.12-.19v-.17a.43.43,0,0,0,.11-.2.33.33,0,0,1,.13-.19c0-.05,0-.09,0-.1s0-.05,0-.09l.13-.14a.21.21,0,0,0,0-.06.2.2,0,0,0,0-.08.13.13,0,0,1,.05-.07.8.8,0,0,1,.15-.17.34.34,0,0,0,.13-.2.1.1,0,0,0,.09,0l.07-.09.19-.11a.18.18,0,0,0,.05-.07A.28.28,0,0,1,15.4,9a1,1,0,0,0,.22-.16l.16-.16A.52.52,0,0,1,16,8.57l.2,0,.14-.06.44-.15a2.34,2.34,0,0,0,.35-.13l.2-.07.26-.07.08,0,.09,0,.06,0,.07,0h.19l.35,0a1.93,1.93,0,0,1,.42,0h.27l.17,0s0,0,.08,0l.1,0h.21l.08,0h.61a1,1,0,0,1,.47.07L21,8l.13.06h.07l.07,0a.19.19,0,0,1,.08,0l.07.06a.51.51,0,0,1,.21.09l.12.08.05,0a.78.78,0,0,1,.24.16,1,1,0,0,0,.23.19c.05,0,.08,0,.08.07s0,0,0,0a.32.32,0,0,1,.13.07l.09.09a.25.25,0,0,1,.13.09l.12.13.14.07a.05.05,0,0,1,0,0,.26.26,0,0,1,.07.1l.07.09.09.06.08,0a.63.63,0,0,1,.12.14.3.3,0,0,1,.18.07l.11.12,0,.12s0,0,0,0a.27.27,0,0,1-.14.14.24.24,0,0,0-.13.16l-.15.09-.06.07a.69.69,0,0,1-.12.11c0,.05-.07.08-.09.08l0,0a.49.49,0,0,0-.13.12.23.23,0,0,1-.15.11.46.46,0,0,1-.13.2.31.31,0,0,1-.27.05.16.16,0,0,1-.05-.08.36.36,0,0,0,0-.09.12.12,0,0,1-.09,0L22.06,11l-.08,0,0,0s0,0,0,0l-.16-.12a.26.26,0,0,1-.07-.11.44.44,0,0,1-.19-.1l-.18-.13a.75.75,0,0,1-.17-.1l-.09-.1a.26.26,0,0,0-.1-.07l-.14,0-.1,0h-.06L20.55,10l-.08-.05-.12,0-.15,0-.1,0L20,9.76l-.09,0s-.07,0-.08-.06a.13.13,0,0,1-.12,0,.23.23,0,0,0-.12-.06l-.14,0-.05,0h-.08a.06.06,0,0,1-.06,0l-.13,0L19,9.44l-.17,0s-.08,0-.1-.07a.06.06,0,0,0-.05,0s0,0-.05.05l-.11,0h-.12l-.07,0-.08,0-.11,0h-.38l-.25.11a.85.85,0,0,1-.17.06,2.24,2.24,0,0,0-.32.17l-.21.12a.45.45,0,0,1-.09.1l-.1.09-.11.09a.28.28,0,0,1-.11.08.59.59,0,0,1,0,.08.7.7,0,0,0-.06.09s-.07,0-.07,0,0,0-.08,0a.13.13,0,0,1,0,.09.19.19,0,0,0,0,.08.91.91,0,0,0-.15.23,1.18,1.18,0,0,1-.17.22.2.2,0,0,1,0,.15l-.08.14a1.21,1.21,0,0,1-.05.14.61.61,0,0,1-.07.14l0,.14,0,.05a.28.28,0,0,0,0,.09.28.28,0,0,1,0,.09l-.06.24a2.3,2.3,0,0,0-.13.5,1.93,1.93,0,0,0,0,.27.88.88,0,0,0,0,.16v.16a1.29,1.29,0,0,1,.06.33.24.24,0,0,0,.06.18.12.12,0,0,0,0,.1s0,.06,0,.07a.56.56,0,0,1,.05.08l0,.07a.53.53,0,0,1,0,.13.15.15,0,0,0,0,.07.35.35,0,0,0,.15.17,1,1,0,0,1,.17.18.25.25,0,0,0,.05.15l.09.1.08.1a.29.29,0,0,1,0,.17.51.51,0,0,1,.13.09l.13.1.12.09.13.08a.89.89,0,0,0,.16.19.31.31,0,0,1,.1.15.29.29,0,0,1,.14,0l.1.06.11.06a.3.3,0,0,1,.1.07,1,1,0,0,1,.36.11,1.11,1.11,0,0,0,.35.14l.12.05h.13a.19.19,0,0,0,.15.08.22.22,0,0,1,.15.08h.18a.33.33,0,0,1,.12.06l.22,0a.31.31,0,0,1,.2,0,.27.27,0,0,1,.24,0,1.31,1.31,0,0,0,.28,0l.09,0h.19s0,0,0,0a.65.65,0,0,0,.24,0l.18-.05.12,0,.14,0a.3.3,0,0,1,.13,0,.06.06,0,0,0,.06,0,.46.46,0,0,0,.14-.1.18.18,0,0,1,.07-.05c.05-.06.09-.1.12-.1l0,0c.05-.06.08-.1.08-.12l0-.05c.05,0,.08-.08.1-.08l0,0a.57.57,0,0,1,.09-.16.37.37,0,0,0,.11-.11s0-.05.08-.07a1,1,0,0,1,.15-.53A.22.22,0,0,0,22,15V14.9a.08.08,0,0,1,0-.07.19.19,0,0,0,0-.07.24.24,0,0,0,0-.12.11.11,0,0,1,0-.1.4.4,0,0,0-.19,0h-.08l-.15,0-.26,0a.82.82,0,0,1-.27,0s-.07,0-.07,0l0-.08a.45.45,0,0,1-.27.1.4.4,0,0,1-.18,0,.73.73,0,0,1-.36,0,.89.89,0,0,0-.33,0l-.13-.05a.29.29,0,0,0-.17,0,.39.39,0,0,1-.05-.24.75.75,0,0,0,0-.26.78.78,0,0,0,0-.14.86.86,0,0,1,0-.17.31.31,0,0,0,0-.14.14.14,0,0,0,0-.06,1,1,0,0,0,0-.15.13.13,0,0,1,0-.11l.1-.09.13,0a.1.1,0,0,1,.11,0,.23.23,0,0,0,.1,0,.5.5,0,0,0,.2,0,.09.09,0,0,1,.09,0,.3.3,0,0,1,.11,0h.12l.12,0h.83l.05,0,.11,0a.2.2,0,0,1,.11,0h.06l.08,0h.16l.15,0,.18,0a.39.39,0,0,0,.19,0h.12l.12,0h.16l.17,0h.07l.08,0,.29,0h.35a.44.44,0,0,1,.08.11A.14.14,0,0,0,24,13.29Z"/><path class="cls-2" d="M32.5,14.22a1,1,0,0,0,0,.25.25.25,0,0,1,0,.14.16.16,0,0,1-.1.08s-.08,0-.09.08a.5.5,0,0,0-.17,0,.65.65,0,0,0-.16,0,.32.32,0,0,0-.25-.06.39.39,0,0,1-.27-.07.27.27,0,0,1-.14,0,1.22,1.22,0,0,1-.38,0l-.41-.07h-.57l-.21,0a.6.6,0,0,1-.19-.06.54.54,0,0,0-.19,0h-.16a.44.44,0,0,1-.16,0l-.21,0a.63.63,0,0,1-.14,0h-.24a.14.14,0,0,1-.15-.07l-.09.06h-.14l-.1,0h-.06a.44.44,0,0,1-.15,0,.12.12,0,0,0-.11,0,.12.12,0,0,0-.09,0l-.09,0a.61.61,0,0,0-.27,0l-.22,0-.2,0a.49.49,0,0,0-.24,0,.44.44,0,0,0-.05.29.58.58,0,0,0,.1.28.11.11,0,0,1,0,.1.3.3,0,0,0,0,.1,1,1,0,0,0,.18.21.63.63,0,0,1,.11.13,1,1,0,0,0,.15.2,1.63,1.63,0,0,1,.17.2.3.3,0,0,0,.07.11.45.45,0,0,1,.09.1.38.38,0,0,1,.17.08l.18.12a1,1,0,0,1,.2.13.56.56,0,0,0,.15.1.22.22,0,0,0,.1,0,.22.22,0,0,1,.08,0,.53.53,0,0,1,.14.1.36.36,0,0,0,.17.07h.21l.12,0a.58.58,0,0,0,.31-.08h.2a.33.33,0,0,1,.18-.08.17.17,0,0,0,.1,0,.13.13,0,0,1,.07,0l.06,0,.13-.07.13-.09a.61.61,0,0,0,.16-.12.6.6,0,0,0,.23-.22,1.7,1.7,0,0,1,.22-.24.63.63,0,0,1,.05-.26.75.75,0,0,1,.1-.2.65.65,0,0,1,0-.22,1.4,1.4,0,0,1,.09-.17L31,15a.2.2,0,0,1,.13,0l.08.05.09,0,.09,0,.13,0,.13,0h.08a.34.34,0,0,0,.19,0,.26.26,0,0,1,.15,0,.66.66,0,0,1,.17.16.47.47,0,0,1-.09.28q-.07.15-.06.18a.34.34,0,0,1,0,.09.16.16,0,0,1,0,.07.15.15,0,0,0,0,.08c0,.05,0,.1,0,.15a.37.37,0,0,1-.05.15l-.16.18a.47.47,0,0,1-.12.09s0,.07,0,.09l-.08.06a.33.33,0,0,1-.11.15l-.16.11a1.46,1.46,0,0,1-.21.16l-.22.13-.19.16-.13.07-.1.05,0,0-.15,0a.4.4,0,0,0-.15,0l-.25.07-.21,0-.11,0a.42.42,0,0,1-.16,0,.28.28,0,0,0-.19,0,.11.11,0,0,1-.13,0l-.24.06a.57.57,0,0,1-.18,0h-.08l-.07,0-.4-.05-.27-.05-.07,0s-.05,0-.07-.05a.34.34,0,0,1-.24,0,.83.83,0,0,1-.17-.12l-.07,0-.08,0-.18-.09a.29.29,0,0,1-.14-.15.17.17,0,0,1-.15-.05l-.11-.1a.33.33,0,0,1-.19-.06.57.57,0,0,1-.13-.14,1.88,1.88,0,0,0-.2-.2l-.22-.24a.43.43,0,0,0-.19-.14.41.41,0,0,0-.08-.13.4.4,0,0,1-.1-.12l-.1-.17L25.23,16a1.77,1.77,0,0,1,0-.2l-.05-.2a1.72,1.72,0,0,1,0-.21.57.57,0,0,0,0-.13l0-.08a.19.19,0,0,1,0-.08.28.28,0,0,1,0-.13.71.71,0,0,0,0-.14s0-.08,0-.12a.5.5,0,0,1,0-.12,1.23,1.23,0,0,1,0-.19,1.34,1.34,0,0,0,0-.2.2.2,0,0,0,0-.07V14a.93.93,0,0,1,0-.13,1.21,1.21,0,0,0,0-.14.34.34,0,0,1,0-.17.08.08,0,0,0,0-.08s0,0,0-.07l0-.07a.22.22,0,0,0,0-.09.26.26,0,0,1,0-.11l.08-.13,0,0a.5.5,0,0,1,0-.12.09.09,0,0,1,0-.06l.08-.16,0-.05a.22.22,0,0,1,0-.12s0,0,0,0a.44.44,0,0,0,0-.14.53.53,0,0,1,0-.12l.07-.14a.29.29,0,0,1,.1-.12c.05-.11.08-.2.12-.27l.1-.21a.8.8,0,0,0,.2-.21,1.34,1.34,0,0,1,.2-.21l.06,0,.09,0,.2-.17a.83.83,0,0,1,.16-.09,1,1,0,0,1,.24,0,.27.27,0,0,0,.23-.09.28.28,0,0,0,.15,0l.16-.07.11-.06a.38.38,0,0,1,.19,0h.17l.19,0,.12,0h.14l.3,0h.26l.13,0,.15,0h.13l.12,0,.11,0h0l.11.05.11.06.07,0a.08.08,0,0,1,.07,0l.16.06.17.06a.13.13,0,0,1,.1.11.65.65,0,0,1,.22.1A.63.63,0,0,0,31,11a.38.38,0,0,1,.11.11.38.38,0,0,0,.11.11.09.09,0,0,0,0,.06l0,.08a.93.93,0,0,1,.18.16.44.44,0,0,0,.22.15,1.14,1.14,0,0,0,.09.16.38.38,0,0,1,.07.18.35.35,0,0,0,.05.08.47.47,0,0,1,.07.12l0,.06a.35.35,0,0,1,.05.08c0,.09.09.18.14.27l.07.09a.47.47,0,0,1,.07.12.34.34,0,0,1,0,.1.43.43,0,0,0,0,.11s0,.08,0,.11a.64.64,0,0,0,0,.07.68.68,0,0,1,0,.2.67.67,0,0,0,0,.2c0,.05,0,.1,0,.16a1,1,0,0,1,0,.16.72.72,0,0,0,0,.17Zm-1.86-1s0,0,0-.09,0-.08-.07-.09,0-.1-.07-.11,0,0,0-.08l-.11-.06a.09.09,0,0,1-.05-.11s-.07,0-.08,0a.1.1,0,0,0-.05-.06.24.24,0,0,1-.11-.12.31.31,0,0,0-.08-.11.1.1,0,0,0-.09,0s0,0,0-.05a.49.49,0,0,1-.32-.08,1.68,1.68,0,0,1-.21-.18,1.11,1.11,0,0,1-.26,0h-.27a.41.41,0,0,0-.19-.06.49.49,0,0,1-.2,0s-.06,0-.06-.06a.07.07,0,0,0-.07,0,.19.19,0,0,1-.18,0l-.19-.05a.6.6,0,0,1-.22.09l-.23.06a.29.29,0,0,0-.14.12l-.12.14-.18.2-.17.21a.23.23,0,0,1,0,.12.2.2,0,0,0,0,.11.34.34,0,0,0-.12.2l-.06.27a.74.74,0,0,0,.21,0l.25,0h.17l.33,0h.26a1,1,0,0,0,.25,0,.35.35,0,0,1,.23,0,.72.72,0,0,1,.33-.06l.31,0h.14a3.76,3.76,0,0,1,.75,0A2.63,2.63,0,0,0,30.64,13.19Z"/><path class="cls-2" d="M37.48,11.29a.58.58,0,0,0,0,.19.08.08,0,0,1,0,.07.25.25,0,0,1-.09.13.36.36,0,0,0-.12.08.33.33,0,0,0-.23,0l-.21.07h-.17a.48.48,0,0,0-.2,0,.58.58,0,0,1-.16.05h-.12a.15.15,0,0,0-.12,0,.52.52,0,0,0,0,.25.88.88,0,0,1,0,.28,1.79,1.79,0,0,0,0,.33A2,2,0,0,1,36,13a1.55,1.55,0,0,1,0,.22.32.32,0,0,0,0,.19.53.53,0,0,0,0,.19c0,.07,0,.15,0,.22a2.79,2.79,0,0,0,0,.41,3.31,3.31,0,0,1,0,.42c0,.06,0,.11,0,.16A.89.89,0,0,1,36,15a.2.2,0,0,0,0,.13.07.07,0,0,1,0,.05,1.49,1.49,0,0,0,0,.3c0,.11,0,.23,0,.35s0,.13,0,.17a.29.29,0,0,0,0,.09,2.07,2.07,0,0,0,0,.22.32.32,0,0,1-.08.23.14.14,0,0,0,0,.07.25.25,0,0,1,0,.07.3.3,0,0,0,0,.16.31.31,0,0,1,0,.08.66.66,0,0,0,0,.24,1.1,1.1,0,0,0,0,.18.65.65,0,0,1-.17.54l-.33-.06a1.82,1.82,0,0,0-.33,0l-.15,0a.43.43,0,0,1-.19,0l-.09,0a.13.13,0,0,1-.08,0,.07.07,0,0,1-.08,0l-.1-.05a1.67,1.67,0,0,1,0-.39,4,4,0,0,0,0-.49.37.37,0,0,0,0-.11.36.36,0,0,1,0-.11.59.59,0,0,1,0-.19,1.41,1.41,0,0,0,0-.2.24.24,0,0,1,0-.08s0-.06,0-.09a.08.08,0,0,0,0-.06s0,0,0-.08a1.48,1.48,0,0,1,0-.31l.06-.29a1.31,1.31,0,0,1,0-.23V15a1,1,0,0,0,0-.12.27.27,0,0,1,0-.12s0-.07,0-.08a.51.51,0,0,0,0-.09,2.66,2.66,0,0,1,0-.4,1.3,1.3,0,0,0,0-.34.79.79,0,0,1,0-.23.66.66,0,0,0,0-.15,1.11,1.11,0,0,1,0-.19,1.62,1.62,0,0,1,0-.22.2.2,0,0,1,0-.09.31.31,0,0,0,0-.1.36.36,0,0,0,0-.11.5.5,0,0,1,0-.12,1.8,1.8,0,0,1,0-.22,1.8,1.8,0,0,0,0-.22l0-.08s0-.06,0-.09a.69.69,0,0,1,0-.25.59.59,0,0,0,0-.23l-.42.1-.1,0-.1,0a.58.58,0,0,0-.17.05c-.05,0-.09,0-.15,0a.61.61,0,0,1-.14-.17.24.24,0,0,1,0-.17l.11-.13a.08.08,0,0,1,0-.07.19.19,0,0,0,0-.1.53.53,0,0,0,0-.13.26.26,0,0,1,0-.15l.06-.14a.49.49,0,0,0,.06-.13.55.55,0,0,0,0-.18.31.31,0,0,1,0-.19c0-.14.14-.2.33-.16l.14,0a.14.14,0,0,1,.09.08.21.21,0,0,1,.17,0,.39.39,0,0,0,.17,0,.49.49,0,0,0,.08-.31,2.94,2.94,0,0,1,0-.42.53.53,0,0,0,0-.17l0-.1a.92.92,0,0,1,0-.37.31.31,0,0,1,0-.08.25.25,0,0,0,0-.08.58.58,0,0,0,0-.19.27.27,0,0,0,0-.11l0-.07s0,0,0,0V8.21a.29.29,0,0,1,.13-.09h.11l.17,0a.65.65,0,0,1,.19,0,.36.36,0,0,1,.18,0l.15,0,.09,0,.07,0a.13.13,0,0,0,.11,0,.07.07,0,0,1,.09,0,.39.39,0,0,0,.09.11s0,0,0,.05a.85.85,0,0,1,0,.29q0,.18,0,.33a.49.49,0,0,1,0,.12v.12a.45.45,0,0,1,0,.11.34.34,0,0,0,0,.09.75.75,0,0,1,0,.17.26.26,0,0,0,0,.09c0,.06,0,.11,0,.16s0,.1-.06.16a.26.26,0,0,1,0,.15.78.78,0,0,0,0,.16v.09a.38.38,0,0,1,0,.1.2.2,0,0,1,0,.11.24.24,0,0,0,0,.12.27.27,0,0,0,.18,0l.16-.08a.44.44,0,0,1,.16,0,.17.17,0,0,0,.16-.06.11.11,0,0,0,.15,0,.09.09,0,0,1,.13,0,.41.41,0,0,1,.22-.12.57.57,0,0,1,.26,0l.07.14a.21.21,0,0,1,0,.06.08.08,0,0,1,0,.07.17.17,0,0,0,0,.1c0,.07,0,.11,0,.13v.06a.86.86,0,0,0,0,.17.43.43,0,0,1,0,.14Z"/><path class="cls-2" d="M52.35,17.38a.12.12,0,0,1-.11.09.14.14,0,0,0-.12.09.33.33,0,0,1-.17-.08.22.22,0,0,1-.1.07l-.07,0a.36.36,0,0,0-.15.1s-.05,0-.08,0a.18.18,0,0,0-.09,0l-.21,0-.12,0-.18,0a.28.28,0,0,0-.18,0,.22.22,0,0,1-.12,0,.09.09,0,0,0-.11.05s-.07,0-.08,0a.09.09,0,0,0-.08,0,.34.34,0,0,1-.15.06l-.17.05a.18.18,0,0,1-.11-.1.41.41,0,0,0-.1-.13.53.53,0,0,0,0-.13.09.09,0,0,1,0-.09.09.09,0,0,1,0-.08.52.52,0,0,0,0-.11,1.2,1.2,0,0,1-.06-.17.86.86,0,0,0-.07-.21.17.17,0,0,1,0-.14.28.28,0,0,1-.08-.15,1.23,1.23,0,0,0-.05-.21c0-.05,0-.08,0-.1a.13.13,0,0,0,0-.06.62.62,0,0,1-.06-.19.43.43,0,0,0,0-.11c0-.07,0-.14-.07-.19a.57.57,0,0,0,0-.14l0-.07a.7.7,0,0,1-.06-.09.36.36,0,0,1,0-.11.2.2,0,0,0,0-.11.36.36,0,0,1,0-.09.13.13,0,0,1,0-.08.75.75,0,0,1,0-.16A.2.2,0,0,0,49,14.6a.2.2,0,0,0-.15,0l-.14,0h-.17l-.17,0a.22.22,0,0,1-.14,0H48s-.07,0-.13,0h-.18l-.18,0a.21.21,0,0,1-.14,0l-.2,0-.09,0h-.19a.46.46,0,0,1-.2,0,.19.19,0,0,1-.09,0s-.06,0-.07.05a.48.48,0,0,0-.24,0,.63.63,0,0,1-.24,0,.26.26,0,0,0-.11.18,1.49,1.49,0,0,1,0,.21,1.08,1.08,0,0,1-.08.19l-.11.18a1.12,1.12,0,0,1,0,.13.67.67,0,0,1-.06.12l0,.1,0,.05,0,0a.29.29,0,0,1,0,.14.09.09,0,0,0,0,.06.23.23,0,0,0,0,.11.48.48,0,0,1,0,.12.8.8,0,0,1-.08.16.29.29,0,0,0,0,.17.49.49,0,0,0-.16.21.51.51,0,0,1-.15.23,1.74,1.74,0,0,1,0,.22l-.09.2a1,1,0,0,0-.07.21.9.9,0,0,0,0,.25l-.13.07a.16.16,0,0,1-.15,0,.65.65,0,0,0-.2-.09.52.52,0,0,1-.15-.07l-.14,0h-.32l-.07,0h-.21a1.18,1.18,0,0,1-.3-.1,1.53,1.53,0,0,0-.27-.11.37.37,0,0,1,0-.11.76.76,0,0,1,0-.11s0-.07.07-.08a.06.06,0,0,0,0-.07l.09-.21.09-.21a.73.73,0,0,1,.08-.16l.05-.06.07-.17,0-.08a1,1,0,0,1,0-.1s0-.06.06-.1l.12-.16a.77.77,0,0,1,.07-.19l.07-.1a.54.54,0,0,0,.1-.16A1.72,1.72,0,0,0,44,15.4l.1-.12.06-.13a.77.77,0,0,1,0-.12l0,0c0-.05,0-.08,0-.1l0,0a.88.88,0,0,0,.11-.24,1.63,1.63,0,0,1,.11-.23.47.47,0,0,1,.09-.12.17.17,0,0,0,.06-.14.24.24,0,0,0,.09-.11l.06-.14a.41.41,0,0,1,.07-.11l.09-.12L45,13.5a.83.83,0,0,1,.07-.13,1.34,1.34,0,0,1,.06-.12.27.27,0,0,1,.12-.09.14.14,0,0,1,0-.14.69.69,0,0,0,.05-.13.36.36,0,0,1,.07-.1.21.21,0,0,0,.06-.1l.07-.13a.56.56,0,0,1,.08-.16.13.13,0,0,0,0-.06.1.1,0,0,0,0-.07.16.16,0,0,1,0-.07.25.25,0,0,0,.12-.13l.09-.17a.79.79,0,0,0,.08-.16,1,1,0,0,1,.1-.17.13.13,0,0,1,0-.11l.05-.11a.36.36,0,0,0,0-.09.56.56,0,0,1,0-.08.53.53,0,0,0,.11-.21.84.84,0,0,1,.05-.17.23.23,0,0,1,0-.1.47.47,0,0,0,.06-.09.49.49,0,0,0,0-.11.13.13,0,0,1,.07-.08.51.51,0,0,1,0-.22L46.7,10a.44.44,0,0,1,.14-.18.86.86,0,0,0,0-.16.32.32,0,0,1,0-.14.44.44,0,0,1,.06-.1.36.36,0,0,0,.07-.1l.08-.27c0-.08,0-.15.08-.22s0-.13.07-.21.06-.16.08-.23a1,1,0,0,0,.07-.15l.06-.15a.37.37,0,0,0,.19-.18,1,1,0,0,0,.11-.26.28.28,0,0,1,.11,0h.07c.09,0,.14,0,.16.09a.37.37,0,0,0,.07.12.5.5,0,0,1,.1.13l.06.11.11.15a.48.48,0,0,1,.08.18l.06.11a.5.5,0,0,0,0,.13c0,.05.05.09.07.15l.07.16c0,.07.05.15.08.24s.06.18.09.27a.27.27,0,0,1,0,.12l0,.1,0,.1a.22.22,0,0,0,.05.08c0,.08.07.16.1.26s.08.18.13.27a.59.59,0,0,1,0,.08l0,.09a.16.16,0,0,1,0,.07.56.56,0,0,1,0,.08.36.36,0,0,1,0,.09.41.41,0,0,0,.05.09l.07.13a.38.38,0,0,1,.06.17,1.45,1.45,0,0,1,.06.19,2.25,2.25,0,0,1,.05.22l.12.27c0,.1.08.19.11.29l.07.07.07.08a.89.89,0,0,0,0,.1.07.07,0,0,1,0,.05,1,1,0,0,1,.09.22l.06.22a1.39,1.39,0,0,0,.06.13.24.24,0,0,1,0,.15,1.45,1.45,0,0,1,.12.19,1.16,1.16,0,0,0,.06.15l.09.15a.31.31,0,0,1,0,.1A1.2,1.2,0,0,1,51,14a.45.45,0,0,1,0,.11.17.17,0,0,0,0,.1,1.34,1.34,0,0,0,.07.18,1.89,1.89,0,0,1,.06.18.35.35,0,0,1,.1.12l.06.13.05.11,0,.14a1,1,0,0,0,.11.2,1,1,0,0,1,.09.21.69.69,0,0,0,0,.13.75.75,0,0,1,.06.13.15.15,0,0,1,0,.11.15.15,0,0,0,0,.09l.08.16c.05.18.11.36.18.55a3.23,3.23,0,0,0,.15.34A1.12,1.12,0,0,1,52.35,17.38Zm-3.49-3.91a.12.12,0,0,0,0-.1s0-.07,0-.12,0-.07,0-.11a.21.21,0,0,0,0-.12.7.7,0,0,0-.06-.09.1.1,0,0,1,0-.07c0-.12,0-.22-.05-.32a2.56,2.56,0,0,0,0-.27.64.64,0,0,1-.1-.13.85.85,0,0,1-.1-.18l0-.14c0-.06,0-.12,0-.17l0-.14c0-.07,0-.13,0-.18a.83.83,0,0,0,0-.15l0-.08a.25.25,0,0,0,0-.07.69.69,0,0,1,0-.17.2.2,0,0,0-.09-.11.2.2,0,0,0-.15.15.37.37,0,0,1-.09.2.33.33,0,0,0-.06.08l-.05.2s0,.08,0,.12a.61.61,0,0,0,0,.12l0,.1a.35.35,0,0,0-.05.08l0,.06-.21.39a3.36,3.36,0,0,0-.16.33.53.53,0,0,0,0,.12s0,.08,0,.12a.22.22,0,0,1-.07.09.39.39,0,0,0-.06.11.17.17,0,0,0,0,.07.25.25,0,0,1,0,.08,1.13,1.13,0,0,0-.11.23.54.54,0,0,1,0,.15.72.72,0,0,0,.29.06h.29l.51,0a2.46,2.46,0,0,0,.44-.06.86.86,0,0,1,.32,0A.46.46,0,0,0,48.86,13.47Z"/><path class="cls-2" d="M63.88,8.53a1.11,1.11,0,0,1,0,.19.56.56,0,0,0,0,.2.2.2,0,0,0,0,.11.66.66,0,0,1,0,.14s0,.08,0,.12a.17.17,0,0,0,0,.1.34.34,0,0,0,0,.15.19.19,0,0,1,0,.15.08.08,0,0,1-.06.08l-.12,0-.16,0c-.06,0-.1,0-.13,0a.18.18,0,0,0-.13-.09.58.58,0,0,1-.18,0h-.2a.61.61,0,0,0-.19,0l-.2,0h-.15a.47.47,0,0,0-.23,0,.42.42,0,0,1-.25,0,.31.31,0,0,0-.17,0l-.14,0a.11.11,0,0,1-.1,0l-.1,0a.69.69,0,0,0-.25,0,1.23,1.23,0,0,1-.29,0,.24.24,0,0,0-.14,0l-.06,0h-.2a.27.27,0,0,0-.12,0,1.41,1.41,0,0,0,0,.18.19.19,0,0,1,0,.18,1.63,1.63,0,0,1,.13.58,4.87,4.87,0,0,0,0,.65l.11,0,.11,0a.4.4,0,0,0,.15,0,.59.59,0,0,1,.19-.05.24.24,0,0,1,.14,0h.07l.12,0,.13,0a6.85,6.85,0,0,0,.79,0,3.67,3.67,0,0,1,.7,0l.11,0,.12,0a.35.35,0,0,0,.17,0,.15.15,0,0,1,.14,0,.43.43,0,0,1,.05.45.32.32,0,0,0,0,.17.81.81,0,0,1,0,.22,1.5,1.5,0,0,1,0,.24,1.52,1.52,0,0,0,0,.21.53.53,0,0,0,0,.13.14.14,0,0,1,0,.09.34.34,0,0,1-.07.15.37.37,0,0,1-.07.1l-.09,0h-.08a.51.51,0,0,1-.18,0,.51.51,0,0,0-.17,0h-.37a.2.2,0,0,0-.11,0l-.12,0-.1,0h-.55c-.08,0-.12-.06-.13,0a.08.08,0,0,1-.09,0,0,0,0,0,1-.07,0,.06.06,0,0,0-.07,0,.08.08,0,0,0-.07,0l-.07,0-.13,0a.17.17,0,0,0-.12,0h-.44a.9.9,0,0,0,0,.62s0,.07,0,.09a.18.18,0,0,0,0,.07l0,.06s0,0,0,.08a.24.24,0,0,0,0,.14s0,0,0,.07l0,.09a.19.19,0,0,0,0,.07.29.29,0,0,0,.08.22.11.11,0,0,0,0,.11.09.09,0,0,1,0,.1l0,.23a1.49,1.49,0,0,0,0,.21s0,.06,0,.09a.14.14,0,0,1,0,.09.18.18,0,0,1,0,.11.23.23,0,0,0,0,.1.32.32,0,0,0,0,.17c0,.06,0,.12,0,.18v.15a.33.33,0,0,0,0,.14s0,.07,0,.08a.13.13,0,0,0-.07.06.71.71,0,0,1,.08.25.19.19,0,0,1,0,.08.46.46,0,0,0,0,.09.43.43,0,0,0,0,.16.46.46,0,0,0,.08.19.27.27,0,0,1,0,.14.25.25,0,0,1-.07.15.35.35,0,0,1-.13.1H60l-.11,0-.13-.08a.54.54,0,0,0-.17-.07l-.16,0-.14,0-.17,0h-.08a.35.35,0,0,1-.14,0,.2.2,0,0,0-.15,0,1.13,1.13,0,0,0-.11-.11.5.5,0,0,1-.1-.13.34.34,0,0,1,.07-.16.44.44,0,0,1,.1-.08s0-.07,0-.08,0,0,0-.09a.5.5,0,0,0,0-.27,1.1,1.1,0,0,1,0-.26.25.25,0,0,1,0-.1.22.22,0,0,0,0-.08,1,1,0,0,1,0-.19l0-.1,0-.11a1.19,1.19,0,0,1,0-.27c0-.06,0-.12,0-.16a.2.2,0,0,0,0-.13.16.16,0,0,1,0-.12.18.18,0,0,1,0-.19.47.47,0,0,0,.06-.19c0-.07,0-.12,0-.13a.13.13,0,0,0,0-.06.17.17,0,0,0,0-.16.55.55,0,0,1,0-.16.74.74,0,0,1,0-.21c0-.08,0-.15,0-.22a.3.3,0,0,1,0-.18v-.22a.47.47,0,0,0,0-.17.28.28,0,0,1,0-.09.52.52,0,0,1,0-.11.76.76,0,0,0,0-.11v-.05a.11.11,0,0,1,0,0V12.8a.78.78,0,0,0,0-.19.61.61,0,0,0-.05-.12.64.64,0,0,0,0-.2.89.89,0,0,1,0-.11.16.16,0,0,0,0-.1V12a.2.2,0,0,1,0-.11.21.21,0,0,0,0-.11.5.5,0,0,0,0-.21v-.22a.26.26,0,0,0,0-.13v-.05c0-.09,0-.17,0-.23v-.21a.55.55,0,0,0,0-.22.67.67,0,0,1,0-.25v-.12a.52.52,0,0,1,0-.14.24.24,0,0,1,0-.07.09.09,0,0,0,0-.07.22.22,0,0,0,0-.12V9.64a.2.2,0,0,1,0-.11s0-.06.06-.08a.44.44,0,0,1-.07-.19c0-.07,0-.15,0-.22a1.94,1.94,0,0,0,0-.24.9.9,0,0,0-.06-.22,1.3,1.3,0,0,0-.1-.15.2.2,0,0,1-.06-.15.15.15,0,0,1,0-.11.19.19,0,0,0,0-.11.13.13,0,0,0,.12,0,.17.17,0,0,1,.14,0,.54.54,0,0,0,.27,0,.11.11,0,0,1,.15.06s.07,0,.08,0a.1.1,0,0,1,.09,0,2.26,2.26,0,0,1,.37,0,1.45,1.45,0,0,0,.36,0l.1,0,.1,0a2.46,2.46,0,0,1,.47,0,2.26,2.26,0,0,0,.45,0h.1l.1,0h.85a.81.81,0,0,1,.34,0l.27,0h.43a1.65,1.65,0,0,1,.43.06.75.75,0,0,1,0,.26l0,.13Z"/><path class="cls-2" d="M69.68,12c-.05.06-.08.09-.1.09a.05.05,0,0,0,0,0c-.11.06-.16.08-.17.07a.14.14,0,0,1-.14-.1.29.29,0,0,0-.15-.14A.28.28,0,0,1,69,12h-.13l-.11,0-.12.05-.25.1-.13.07a.3.3,0,0,0-.07.1l-.09.11-.18.12-.16.12a.3.3,0,0,0,0,.1.37.37,0,0,1,0,.11.53.53,0,0,0-.11.11s0,0,0,0,0,.08,0,.11,0,0,0,.06l0,.09a.15.15,0,0,0,0,.13.31.31,0,0,0-.07.15.12.12,0,0,1,0,.07.38.38,0,0,0-.07.11.16.16,0,0,1,0,.09.43.43,0,0,0-.06.17.4.4,0,0,1,0,.11.79.79,0,0,0,0,.22.51.51,0,0,1,0,.13,1.16,1.16,0,0,1,0,.18,1.8,1.8,0,0,1,0,.19A.29.29,0,0,0,67,15a.34.34,0,0,1,0,.17.19.19,0,0,1,0,.07.31.31,0,0,0,0,.11.59.59,0,0,0,0,.19.15.15,0,0,1-.06.17.63.63,0,0,1,0,.23.25.25,0,0,1,0,.21.8.8,0,0,1,0,.31c0,.12,0,.23,0,.35s0,.23,0,.35a1.84,1.84,0,0,0,0,.33.12.12,0,0,0,.12.09.44.44,0,0,1,.16.06.09.09,0,0,0,0,.07l.06.1a.25.25,0,0,1,0,.18.46.46,0,0,1-.13.12.14.14,0,0,1-.11,0,.19.19,0,0,0-.15,0l-.12,0-.13.06-.25.07-.28.06h-.13l-.13,0-.16.06a.24.24,0,0,1-.14,0,.21.21,0,0,1-.18-.14.55.55,0,0,1,0-.26.25.25,0,0,1,0-.12.28.28,0,0,0,0-.13.25.25,0,0,0,0-.12l0-.12a1.36,1.36,0,0,1,0-.35c0-.11,0-.23,0-.35s0-.07,0-.1a.31.31,0,0,0,0-.08l0-.1a.31.31,0,0,1,0-.1c0-.07,0-.13,0-.18s0-.12,0-.2V16a.28.28,0,0,1,0-.09.78.78,0,0,1,0-.16l0-.15a.76.76,0,0,1,0-.26,1.68,1.68,0,0,0,0-.2.75.75,0,0,0,0-.16l0-.16a.34.34,0,0,1,0-.09v-.07a2.06,2.06,0,0,1,0-.28c0-.07,0-.12,0-.17a.4.4,0,0,1,0-.2l0-.12a.61.61,0,0,0,0-.27,1.13,1.13,0,0,1,0-.26,1.18,1.18,0,0,1,0-.2.58.58,0,0,0,0-.19s0-.05,0-.08a.31.31,0,0,1,0-.09.24.24,0,0,1,0-.08s0-.06,0-.09l0-.07a.25.25,0,0,1,0-.08.28.28,0,0,1,0-.18.54.54,0,0,0,0-.19.69.69,0,0,0,0-.13s0-.08,0-.13v-.07a.08.08,0,0,0,0-.07.52.52,0,0,1,0-.21,1,1,0,0,0,0-.16,1.27,1.27,0,0,0,0-.2.27.27,0,0,1,0-.19.18.18,0,0,0,0-.11.61.61,0,0,1-.07-.1.26.26,0,0,0,0-.21.37.37,0,0,1,0-.21.22.22,0,0,1,.2-.09c.07,0,.12,0,.14.06a.47.47,0,0,0,.1.1.78.78,0,0,0,.26,0,1,1,0,0,1,.25,0h.29a.41.41,0,0,0,.19-.05.32.32,0,0,1,.24,0,.13.13,0,0,1,.06.07.3.3,0,0,0,0,.11.49.49,0,0,0,0,.13.06.06,0,0,1,0,0c0,.08,0,.15-.05.22a.5.5,0,0,0,0,.24.17.17,0,0,0,.12,0l.1-.1.06,0,.06-.06.15-.15.08-.07.09-.07a.16.16,0,0,0,.08-.08.65.65,0,0,0,.23-.09.27.27,0,0,1,.26,0,.46.46,0,0,1,.21-.11.19.19,0,0,1,.21,0,1.14,1.14,0,0,0,.43-.08.56.56,0,0,1,.33,0,.19.19,0,0,1,.1,0l.09.06.08,0,.08,0a.43.43,0,0,1,.06.31,3,3,0,0,0,0,.33.86.86,0,0,1,0,.23.78.78,0,0,0,0,.14,2.64,2.64,0,0,0,0,.29C69.68,11.81,69.68,11.92,69.68,12Z"/><path class="cls-2" d="M77.83,14.22a1,1,0,0,0,0,.25.25.25,0,0,1,0,.14.16.16,0,0,1-.1.08.16.16,0,0,0-.1.08.41.41,0,0,0-.16,0,.65.65,0,0,0-.16,0,.32.32,0,0,0-.25-.06.39.39,0,0,1-.27-.07.27.27,0,0,1-.14,0,1.22,1.22,0,0,1-.38,0l-.41-.07h-.57l-.21,0a.6.6,0,0,1-.19-.06.58.58,0,0,0-.19,0h-.16a.44.44,0,0,1-.16,0l-.21,0a.61.61,0,0,1-.14,0h-.24a.14.14,0,0,1-.15-.07l-.09.06h-.14l-.1,0h-.06a.44.44,0,0,1-.15,0,.12.12,0,0,0-.11,0,.13.13,0,0,0-.09,0l-.09,0a.61.61,0,0,0-.27,0l-.22,0-.2,0a.49.49,0,0,0-.24,0,.44.44,0,0,0,0,.29.58.58,0,0,0,.1.28.16.16,0,0,1,0,.1.3.3,0,0,0,0,.1,1,1,0,0,0,.18.21l.11.13a1,1,0,0,0,.15.2,1.63,1.63,0,0,1,.17.2.3.3,0,0,0,.07.11.45.45,0,0,1,.09.1.45.45,0,0,1,.17.08l.18.12a1,1,0,0,1,.2.13.56.56,0,0,0,.15.1.22.22,0,0,0,.1,0,.22.22,0,0,1,.08,0,.53.53,0,0,1,.14.1.36.36,0,0,0,.17.07H74l.11,0a.59.59,0,0,0,.32-.08h.2a.33.33,0,0,1,.18-.08.17.17,0,0,0,.1,0,.13.13,0,0,1,.07,0l.06,0,.13-.07.13-.09a.61.61,0,0,0,.16-.12.6.6,0,0,0,.23-.22,2.57,2.57,0,0,1,.21-.24.83.83,0,0,1,.06-.26.75.75,0,0,1,.1-.2.65.65,0,0,1,0-.22.7.7,0,0,1,.09-.17l.11,0a.2.2,0,0,1,.13,0l.07.05.1,0,.09,0,.13,0,.13,0h.08a.34.34,0,0,0,.19,0,.26.26,0,0,1,.15,0,.66.66,0,0,1,.17.16.42.42,0,0,1-.1.28c0,.1-.06.16,0,.18a.34.34,0,0,1,0,.09.16.16,0,0,1,0,.07.15.15,0,0,0,0,.08.83.83,0,0,0,0,.15.65.65,0,0,1-.05.15l-.16.18a.47.47,0,0,1-.12.09.08.08,0,0,1,0,.09l-.08.06a.33.33,0,0,1-.11.15l-.16.11a1.46,1.46,0,0,1-.21.16l-.22.13-.19.16-.13.07a.3.3,0,0,0-.1.05l0,0-.14,0a.4.4,0,0,0-.15,0l-.25.07-.21,0-.11,0a.42.42,0,0,1-.16,0,.27.27,0,0,0-.19,0,.11.11,0,0,1-.13,0L74.1,18a.57.57,0,0,1-.18,0h-.08l-.07,0-.4-.05-.27-.05-.07,0s0,0-.07-.05a.34.34,0,0,1-.24,0,.83.83,0,0,1-.17-.12l-.08,0-.07,0-.18-.09a.29.29,0,0,1-.14-.15.17.17,0,0,1-.15-.05l-.11-.1a.33.33,0,0,1-.19-.06A.57.57,0,0,1,71.5,17a1.88,1.88,0,0,0-.2-.2l-.22-.24a.43.43,0,0,0-.19-.14.41.41,0,0,0-.08-.13.65.65,0,0,1-.11-.12L70.61,16l0-.06a1.77,1.77,0,0,1,0-.2l0-.2a1.72,1.72,0,0,1,0-.21.57.57,0,0,0,0-.13l0-.08a.2.2,0,0,1,0-.08.56.56,0,0,1,0-.13.71.71,0,0,0,0-.14,1035120610088.76,1035120610088.76,0,0,1,0-.24,1.23,1.23,0,0,1,0-.19c0-.07,0-.13,0-.2a.2.2,0,0,0,0-.07V14a.38.38,0,0,1,0-.13,1.21,1.21,0,0,0,0-.14.34.34,0,0,1,0-.17.08.08,0,0,0,0-.08s0,0,0-.07l0-.07a.22.22,0,0,0,0-.09.26.26,0,0,1,0-.11l.08-.13,0,0a.5.5,0,0,1,0-.12.09.09,0,0,1,0-.06c0-.09.07-.14.08-.16l0-.05a.22.22,0,0,1,0-.12s0,0,0,0a1.21,1.21,0,0,0,0-.14.27.27,0,0,1,0-.12L71,12a.29.29,0,0,1,.1-.12,1.78,1.78,0,0,1,.12-.27l.1-.21a.8.8,0,0,0,.2-.21,1.34,1.34,0,0,1,.2-.21.09.09,0,0,1,.06,0l.09,0,.2-.17a.83.83,0,0,1,.16-.09,1,1,0,0,1,.24,0,.27.27,0,0,0,.23-.09.28.28,0,0,0,.15,0l.16-.07.11-.06a.38.38,0,0,1,.19,0h.17l.19,0,.12,0h.14l.3,0h.26l.13,0,.15,0h.12l.13,0,.11,0h0l.11.05.11.06.07,0a.08.08,0,0,1,.07,0l.16.06.17.06s.08,0,.1.11a.65.65,0,0,1,.22.1.63.63,0,0,0,.13.11.38.38,0,0,1,.11.11.38.38,0,0,0,.11.11.16.16,0,0,0,0,.06.2.2,0,0,1,0,.08.93.93,0,0,1,.18.16.4.4,0,0,0,.22.15,1.14,1.14,0,0,0,.09.16.38.38,0,0,1,.07.18.35.35,0,0,0,.05.08,1.27,1.27,0,0,1,.07.12l0,.06s0,0,0,.08l.15.27.07.09a.47.47,0,0,1,.07.12.34.34,0,0,1,0,.1.43.43,0,0,0,0,.11s0,.08,0,.11a.14.14,0,0,0,0,.07.45.45,0,0,1,0,.2v.2a.78.78,0,0,1,0,.16c0,.06,0,.11,0,.16a.72.72,0,0,0,0,.17Zm-1.86-1s0,0,0-.09,0-.08-.07-.09,0-.1-.08-.11,0,0,0-.08l-.11-.06a.09.09,0,0,1,0-.11s-.07,0-.08,0,0,0,0-.06a.24.24,0,0,1-.11-.12.31.31,0,0,0-.08-.11.1.1,0,0,0-.09,0s0,0,0-.05a.49.49,0,0,1-.32-.08,1.68,1.68,0,0,1-.21-.18,1.11,1.11,0,0,1-.26,0h-.28A.35.35,0,0,0,74,12a.49.49,0,0,1-.2,0s-.06,0-.06-.06a.07.07,0,0,0-.07,0,.19.19,0,0,1-.18,0l-.19-.05a.6.6,0,0,1-.22.09,1,1,0,0,0-.23.06.29.29,0,0,0-.14.12l-.12.14-.18.2-.17.21a.23.23,0,0,1,0,.12.14.14,0,0,0,0,.11.34.34,0,0,0-.12.2c0,.1,0,.18-.06.27a.74.74,0,0,0,.21,0l.25,0h.16l.34,0h.26a1,1,0,0,0,.25,0,.35.35,0,0,1,.23,0,.72.72,0,0,1,.33-.06l.31,0h.14a3.64,3.64,0,0,1,.74,0A2.69,2.69,0,0,0,76,13.19Z"/><path class="cls-2" d="M86.15,14.22a1,1,0,0,0,0,.25.24.24,0,0,1,0,.14.16.16,0,0,1-.1.08.16.16,0,0,0-.1.08.47.47,0,0,0-.17,0,.57.57,0,0,0-.15,0,.35.35,0,0,0-.26-.06.38.38,0,0,1-.26-.07.27.27,0,0,1-.14,0,1.28,1.28,0,0,1-.39,0l-.41-.07h-.57l-.2,0a.53.53,0,0,1-.19-.06.58.58,0,0,0-.19,0h-.16a.47.47,0,0,1-.16,0l-.21,0a.61.61,0,0,1-.14,0h-.24a.14.14,0,0,1-.15-.07l-.09.06H81.7l-.09,0h-.06a.44.44,0,0,1-.15,0,.11.11,0,0,0-.11,0,.13.13,0,0,0-.09,0,.14.14,0,0,1-.09,0,.65.65,0,0,0-.28,0l-.22,0-.2,0a.48.48,0,0,0-.24,0,.44.44,0,0,0,0,.29.58.58,0,0,0,.09.28.17.17,0,0,1,0,.1.3.3,0,0,0,0,.1,1.63,1.63,0,0,0,.17.21.42.42,0,0,1,.11.13,1.56,1.56,0,0,0,.16.2,1.63,1.63,0,0,1,.17.2.3.3,0,0,0,.07.11.27.27,0,0,1,.08.1.49.49,0,0,1,.18.08l.17.12a.86.86,0,0,1,.21.13.39.39,0,0,0,.14.1.26.26,0,0,0,.11,0s0,0,.08,0a.53.53,0,0,1,.14.1.36.36,0,0,0,.17.07h.21l.11,0a.55.55,0,0,0,.31-.08H83a.33.33,0,0,1,.18-.08.14.14,0,0,0,.09,0s0,0,.07,0l.06,0,.14-.07a.47.47,0,0,0,.12-.09.66.66,0,0,0,.17-.12.68.68,0,0,0,.23-.22,1.21,1.21,0,0,1,.21-.24,1.33,1.33,0,0,1,0-.26.78.78,0,0,1,.11-.2.65.65,0,0,1,0-.22,1.3,1.3,0,0,1,.08-.17l.12,0a.2.2,0,0,1,.13,0l.07.05.1,0a.11.11,0,0,0,.08,0l.14,0,.13,0h.08a.34.34,0,0,0,.19,0,.22.22,0,0,1,.14,0c.1.07.16.12.17.16a.47.47,0,0,1-.09.28.84.84,0,0,0-.06.18.14.14,0,0,1,0,.09.16.16,0,0,1,0,.07.15.15,0,0,0,0,.08.83.83,0,0,0,0,.15l-.05.15-.16.18a.38.38,0,0,1-.13.09.06.06,0,0,1,0,.09l-.08.06a.42.42,0,0,1-.11.15l-.16.11a1.12,1.12,0,0,1-.22.16l-.21.13-.2.16a.32.32,0,0,1-.13.07l-.09.05,0,0-.14,0-.16,0a1.53,1.53,0,0,1-.24.07l-.21,0a.53.53,0,0,1-.12,0,.36.36,0,0,1-.15,0,.31.31,0,0,0-.2,0,.11.11,0,0,1-.13,0l-.24.06a.5.5,0,0,1-.17,0h-.08l-.08,0-.39-.05-.27-.05-.08,0s0,0-.06-.05a.33.33,0,0,1-.24,0,.93.93,0,0,1-.18-.12l-.07,0-.07,0-.18-.09a.29.29,0,0,1-.14-.15.17.17,0,0,1-.15-.05l-.11-.1a.31.31,0,0,1-.19-.06.62.62,0,0,1-.14-.14,1.88,1.88,0,0,0-.19-.2l-.22-.24a.41.41,0,0,0-.2-.14.27.27,0,0,0-.07-.13.65.65,0,0,1-.11-.12L78.94,16l0-.06c0-.07,0-.14,0-.2a1.42,1.42,0,0,0,0-.2.8.8,0,0,1,0-.21.57.57,0,0,0,0-.13.3.3,0,0,0,0-.08l0-.08a.53.53,0,0,1,0-.13.33.33,0,0,0,0-.14l0-.12a.49.49,0,0,1,0-.12,1.21,1.21,0,0,1,0-.19,1.36,1.36,0,0,0,0-.2s0,0,0-.07a.25.25,0,0,1,0-.08,1.12,1.12,0,0,1,0-.13,1,1,0,0,0,0-.14.32.32,0,0,1,0-.17.08.08,0,0,0,0-.08s0,0,0-.07l0-.07s0-.05,0-.09a.52.52,0,0,1,0-.11l.09-.13,0,0a.5.5,0,0,1,0-.12.09.09,0,0,1,0-.06c0-.09.07-.14.08-.16l0-.05a.31.31,0,0,1,0-.12s0,0,0,0l0-.14a.27.27,0,0,1,0-.12L79.3,12a.32.32,0,0,1,.11-.12c0-.11.08-.2.11-.27l.11-.21a1,1,0,0,0,.2-.21A1,1,0,0,1,80,11a.09.09,0,0,1,.06,0l.08,0a1.63,1.63,0,0,0,.21-.17.61.61,0,0,1,.16-.09,1,1,0,0,1,.24,0,.25.25,0,0,0,.22-.09.32.32,0,0,0,.16,0l.15-.07.12-.06a.34.34,0,0,1,.18,0h.18l.19,0,.11,0h.15l.3,0h.25l.14,0,.15,0h.12l.12,0,.11,0h0l.11.05.11.06.07,0a.09.09,0,0,1,.07,0l.16.06.16.06a.14.14,0,0,1,.11.11.69.69,0,0,1,.21.1,1.1,1.1,0,0,0,.14.11.36.36,0,0,1,.1.11.6.6,0,0,0,.12.11.16.16,0,0,0,0,.06.11.11,0,0,1,0,.08l.19.16a.4.4,0,0,0,.22.15.42.42,0,0,0,.09.16.38.38,0,0,1,.06.18l.06.08a1.27,1.27,0,0,1,.07.12l0,.06a.3.3,0,0,1,0,.08l.14.27.08.09a.47.47,0,0,1,.07.12.34.34,0,0,1,0,.1A.41.41,0,0,0,86,13a.76.76,0,0,1,0,.11l0,.07a.45.45,0,0,1,0,.2.67.67,0,0,0,0,.2.78.78,0,0,1,0,.16c0,.06,0,.11,0,.16a.81.81,0,0,0,0,.17Zm-1.85-1a.09.09,0,0,0,0-.09s0-.08-.07-.09,0-.1-.07-.11,0,0,0-.08l-.1-.06a.09.09,0,0,1,0-.11s-.07,0-.08,0,0,0,0-.06a.34.34,0,0,1-.12-.12.18.18,0,0,0-.08-.11.08.08,0,0,0-.08,0s0,0,0-.05a.49.49,0,0,1-.32-.08A1.24,1.24,0,0,1,83,12a1.06,1.06,0,0,1-.26,0h-.27a.38.38,0,0,0-.19-.06.54.54,0,0,1-.2,0,.09.09,0,0,1-.06-.06s0,0-.07,0a.17.17,0,0,1-.17,0l-.19-.05a.6.6,0,0,1-.22.09.86.86,0,0,0-.23.06A.27.27,0,0,0,81,12l-.11.14-.18.2a1.57,1.57,0,0,0-.17.21.16.16,0,0,1,0,.12.2.2,0,0,0,0,.11.34.34,0,0,0-.12.2c0,.1,0,.18-.06.27a.74.74,0,0,0,.21,0l.24,0H81l.34,0h.26a1.06,1.06,0,0,0,.25,0,.37.37,0,0,1,.23,0,.67.67,0,0,1,.33-.06l.3,0h.15a3.64,3.64,0,0,1,.74,0A2.69,2.69,0,0,0,84.3,13.19Z"/><path class="cls-2" d="M102.52,12.52a.68.68,0,0,1,0,.14.68.68,0,0,0,0,.14,1.1,1.1,0,0,0,0,.26.63.63,0,0,1,0,.24c0,.12,0,.2,0,.26s0,.1,0,.13a.3.3,0,0,1,0,.1l0,.1a1,1,0,0,0,0,.25.85.85,0,0,1,0,.24.21.21,0,0,1-.06.08l0,.1a.49.49,0,0,0,0,.11.76.76,0,0,1,0,.11L102,15l-.11.18a2.22,2.22,0,0,1-.11.22,1.71,1.71,0,0,1-.11.14,1,1,0,0,0-.11.17.48.48,0,0,1-.13.16.37.37,0,0,1,0,.11.54.54,0,0,0-.06.11.63.63,0,0,1-.11.18.27.27,0,0,0-.08.14,1.72,1.72,0,0,0,.14.25.75.75,0,0,1,.08.18.27.27,0,0,1,.08.07s0,.07.06.11a1.32,1.32,0,0,0,.12.16.64.64,0,0,1,.08.14l.1.07.1.1.06.07s0,0,0,.07.09.14.13.22l.15.23a.46.46,0,0,1,0,.2.09.09,0,0,0,.06.06.18.18,0,0,1,.1,0,.38.38,0,0,1,.1.23.32.32,0,0,1-.1.26.86.86,0,0,1-.28,0,1.31,1.31,0,0,0-.28,0,1.63,1.63,0,0,0-.33.05.54.54,0,0,1-.28,0,.15.15,0,0,0-.09.05s0,0-.11,0a.21.21,0,0,1-.13-.13c0-.06,0-.12-.08-.17a.29.29,0,0,0-.07-.12l-.08-.13-.09-.12-.09-.11a1.8,1.8,0,0,0-.37-.36.37.37,0,0,0-.2-.21l-.06-.13a.26.26,0,0,0-.1-.11.22.22,0,0,0-.1.09.75.75,0,0,0-.07.12.23.23,0,0,0-.14.06.48.48,0,0,1-.13.09,1,1,0,0,1-.39.06,1.9,1.9,0,0,0-.34,0l-.08,0-.08.05L98.3,18l-.14,0A.32.32,0,0,1,98,18l-.13,0-.21,0a1,1,0,0,1-.24,0,.17.17,0,0,1-.14-.07.51.51,0,0,1-.2,0l-.16,0a.57.57,0,0,0-.18,0,.69.69,0,0,0-.2,0,.2.2,0,0,1-.16-.07.31.31,0,0,1-.17,0l-.15-.05-.24-.05a.7.7,0,0,1-.2-.08.68.68,0,0,0-.21-.1.34.34,0,0,1-.16-.13.51.51,0,0,1-.17-.05l-.09,0-.09,0a.42.42,0,0,1-.12-.08.25.25,0,0,0-.15,0,.76.76,0,0,0-.2-.2.28.28,0,0,0-.1-.09.31.31,0,0,1-.08-.11l-.07,0a.18.18,0,0,0-.07-.05L94,16.57s0,0-.05-.06l-.21-.24-.15-.17L93.5,16a.09.09,0,0,1,0,0,.45.45,0,0,1-.07-.15.59.59,0,0,0,0-.08l-.06-.07a.22.22,0,0,0-.09-.07.69.69,0,0,0,0-.17.34.34,0,0,1-.06-.15c0-.08-.09-.13-.15-.14a.34.34,0,0,0-.08-.17.3.3,0,0,1-.08-.17.45.45,0,0,1,0-.16.13.13,0,0,1-.1-.1.84.84,0,0,1,0-.17.56.56,0,0,1-.08-.21.22.22,0,0,0-.07-.17.25.25,0,0,0,0-.11l0,0a.19.19,0,0,1,0-.08.16.16,0,0,0,0-.09l0-.07,0-.1a.86.86,0,0,1,0-.24,2.62,2.62,0,0,1,0-.29.25.25,0,0,1,0-.08.14.14,0,0,0,0-.06,1,1,0,0,1,0-.25.89.89,0,0,0,0-.23.24.24,0,0,0,.07-.19.47.47,0,0,1,.05-.24,1.32,1.32,0,0,0,0-.34.66.66,0,0,1,0-.28.26.26,0,0,1,0-.09s0-.05,0-.09.08,0,.08-.09,0-.08.06-.08a.68.68,0,0,1,.22-.51.17.17,0,0,1,0-.13l.09-.09c0-.05,0-.08,0-.09a.06.06,0,0,0,0-.09L93.1,10l.06-.07a.56.56,0,0,1,0-.07.5.5,0,0,1,0-.07.65.65,0,0,1,.15-.18c.06,0,.11-.11.16-.16l.22-.23a.66.66,0,0,0,.14-.2S94,9,94,9L94,9a.27.27,0,0,1,.1-.08l.13-.09.09,0,0-.06a.39.39,0,0,0,.16-.1.06.06,0,0,1,.08,0,.35.35,0,0,1,.18-.13l.25-.09.22-.09a.69.69,0,0,0,.2-.13l.26,0L96,8h.25l.22,0h.69a2.06,2.06,0,0,0,.35,0,.7.7,0,0,1,.32,0,.1.1,0,0,1,.08,0l.09,0a2.2,2.2,0,0,0,.37.06.47.47,0,0,1,.29.14.49.49,0,0,1,.24,0l.23.08a.2.2,0,0,0,.08,0s0,0,.06.05a.28.28,0,0,1,.18,0,.82.82,0,0,1,.36.07h.08a1,1,0,0,0,.22.16.39.39,0,0,1,.18.2h.1l.09,0,.07.05a.18.18,0,0,0,.07.05l.11.09.11.11a.31.31,0,0,1,.08.13.75.75,0,0,0,.09.18.51.51,0,0,0,.09.13.29.29,0,0,1,.08.14.46.46,0,0,1,.07.07l.07.07a.3.3,0,0,0,.07.08l.06,0a.7.7,0,0,0,.15.19,1.4,1.4,0,0,1,.16.22l.1.17a1,1,0,0,1,.08.14,1.05,1.05,0,0,1,.09.27.58.58,0,0,0,.07.21.85.85,0,0,1,.15.3,1.47,1.47,0,0,0,.12.25v.15a.16.16,0,0,1,0,.11.17.17,0,0,0,0,.12.18.18,0,0,1,0,.09s0,.07,0,.09v.19A.25.25,0,0,1,102.52,12.52Zm-1.6.41a.81.81,0,0,0,0-.2.58.58,0,0,1,0-.1l0-.1a.14.14,0,0,0,0-.09.36.36,0,0,0-.08-.19.77.77,0,0,1-.1-.18c0-.12,0-.21,0-.28a.44.44,0,0,1,0-.2.27.27,0,0,1-.13-.17c0-.08-.05-.15-.07-.22l-.09-.07-.09-.06-.12-.15-.06-.09c0-.06-.08-.1-.11-.1a.09.09,0,0,1-.06,0,.34.34,0,0,0-.11-.17.33.33,0,0,1-.12-.17.32.32,0,0,1-.15-.09.37.37,0,0,0-.14-.08.35.35,0,0,0-.17-.17L99,9.89l-.09,0a.09.09,0,0,1-.07-.06h-.16a.36.36,0,0,0-.2-.11l-.27,0a.32.32,0,0,0-.17-.09.34.34,0,0,0-.2,0,.17.17,0,0,1-.16,0h-.46a1.36,1.36,0,0,0-.3,0,.1.1,0,0,1-.09,0s0,0-.08,0l-.22.18-.16,0-.12,0a.59.59,0,0,0-.19.11.24.24,0,0,1-.21.05.25.25,0,0,1-.24.11.48.48,0,0,1-.15.11.58.58,0,0,0-.17.06.71.71,0,0,0-.14.1.29.29,0,0,1-.17.07.44.44,0,0,1-.32.31l-.14.18-.15.18a.18.18,0,0,1,0,.11.2.2,0,0,0,0,.11l0,.07a.15.15,0,0,1,0,.06.26.26,0,0,1,0,.2.32.32,0,0,0-.09.17.14.14,0,0,0,0,.11.53.53,0,0,1,0,.13l0,.09a.13.13,0,0,0,0,.08.37.37,0,0,0,0,.18,1.24,1.24,0,0,1,0,.18.33.33,0,0,0-.05.14.08.08,0,0,1,0,.05l-.06.13a.29.29,0,0,1,0,.09.71.71,0,0,0,0,.21l.06.11a1,1,0,0,0,0,.1.45.45,0,0,0,0,.11.42.42,0,0,1,0,.1s0,.08,0,.12a.27.27,0,0,1,0,.12.52.52,0,0,0,0,.11l.07.09a.05.05,0,0,0,0,0,.43.43,0,0,1,0,.07l0,.08.1.12.09.13a.49.49,0,0,1,.09.15c0,.06,0,.12.08.17a.28.28,0,0,1,0,.18.19.19,0,0,1,.1.1.83.83,0,0,0,.07.13l.12.09.12.14.1.12a.37.37,0,0,1,.17.16l.28.09.2.1L96,16l.09,0,.14.05.14,0h.07a.11.11,0,0,1,.08,0l.16.05.16.06a.43.43,0,0,0,.16,0,.26.26,0,0,1,.15,0l.2.06.09,0a.08.08,0,0,1,.08,0h.22l.11,0a.42.42,0,0,0,.15,0l.06,0h.17a.33.33,0,0,0,.18-.08l0-.05a1.07,1.07,0,0,0-.12-.26,1,1,0,0,1-.07-.16.36.36,0,0,1,0-.09.36.36,0,0,0,0-.09,1.76,1.76,0,0,0-.13-.25.21.21,0,0,1,0-.13.35.35,0,0,1-.14-.13.91.91,0,0,0-.11-.16.11.11,0,0,0,0-.09.06.06,0,0,1,0-.07.12.12,0,0,0-.06-.08.16.16,0,0,1,0-.08.19.19,0,0,1,0-.09.23.23,0,0,0,0-.1.48.48,0,0,0-.15-.1.08.08,0,0,1-.06-.08c-.09,0-.15,0-.15-.07a.2.2,0,0,1,0-.23l.11-.08.09-.06h.17a.47.47,0,0,0,.2,0,.32.32,0,0,0,.17-.05,1.37,1.37,0,0,1,.34,0,.12.12,0,0,0,.08,0s0,0,.1,0a.2.2,0,0,0,.11.06.14.14,0,0,1,.1.08.19.19,0,0,1,0,.08.34.34,0,0,0,0,.09.91.91,0,0,1,.3.29.76.76,0,0,1,0,.11.49.49,0,0,0,0,.11l.16.16a.2.2,0,0,1,.06.15c.15.13.28.24.38.34a1.64,1.64,0,0,0,.33.26.26.26,0,0,0,.14-.13.21.21,0,0,1,.11-.12.3.3,0,0,1,.08-.18.27.27,0,0,0,.07-.18.23.23,0,0,0,.07-.07l.05-.08a.91.91,0,0,0,.06-.16,1.38,1.38,0,0,1,.06-.16.24.24,0,0,1,.05-.14l0,0a1.57,1.57,0,0,1,0-.16.36.36,0,0,1,0-.1.71.71,0,0,0,.09-.38A1.31,1.31,0,0,1,100.92,12.93Z"/><path class="cls-2" d="M111.18,10.94a.77.77,0,0,1,0,.15.5.5,0,0,0,0,.16.76.76,0,0,0,0,.15s0,.1,0,.14a1.3,1.3,0,0,1,0,.26,2.61,2.61,0,0,0,0,.31,2.09,2.09,0,0,0,0,.24.55.55,0,0,1,0,.24.94.94,0,0,1,0,.25c0,.09,0,.2,0,.32a.31.31,0,0,0,0,.1.28.28,0,0,1,0,.09.27.27,0,0,0,0,.12,0,0,0,0,1,0,0,.52.52,0,0,1,0,.14.56.56,0,0,0,0,.12.41.41,0,0,0,0,.11s0,.07,0,.1l0,.1,0,.12a3.31,3.31,0,0,0,0,.34,2,2,0,0,1-.06.35.61.61,0,0,0-.07.22c0,.06,0,.12,0,.18a1.21,1.21,0,0,0,0,.14c0,.05,0,.1,0,.16a1.65,1.65,0,0,0-.07.21c0,.1,0,.19-.06.26l0,.07a.36.36,0,0,1,0,.09c0,.05,0,.09,0,.12l0,.11a.29.29,0,0,0,0,.1s0,0,0,0l-.08.07s0,0,0,0a1,1,0,0,0-.09.15A.94.94,0,0,1,110,17a.33.33,0,0,0-.1.14l-.13.15-.15.15a.39.39,0,0,1-.1.08l-.11.07c-.07.07-.12.13-.16.16a.41.41,0,0,1-.1.09.51.51,0,0,1-.3.06.46.46,0,0,1-.29.17l-.38.08a.37.37,0,0,1-.15-.13.13.13,0,0,0-.09.05.12.12,0,0,1-.09,0l-.11,0-.1,0a.22.22,0,0,1-.16,0l-.24,0h-.12a.2.2,0,0,1-.11,0,1,1,0,0,0-.46-.1.15.15,0,0,0-.11-.08.35.35,0,0,1-.13-.05.63.63,0,0,0-.14-.1s0,0,0-.07l-.14-.08s0,0,0-.07h-.08l-.09-.05s0,0-.06-.06,0,0-.08,0a.13.13,0,0,0-.07-.06.08.08,0,0,1,0-.08.1.1,0,0,1-.09,0,.26.26,0,0,0-.09-.05.43.43,0,0,0-.15-.18l-.2-.16-.08-.06a.16.16,0,0,1-.07-.07.44.44,0,0,1-.08-.1.83.83,0,0,0-.07-.13.77.77,0,0,1-.1-.14l0-.06a.35.35,0,0,1-.12-.09.08.08,0,0,0,0,0,.72.72,0,0,1-.07-.11.24.24,0,0,1,0-.14l0-.08a.18.18,0,0,1,0-.07.11.11,0,0,0,0-.1.18.18,0,0,1,0-.1.85.85,0,0,1,0-.23.85.85,0,0,0,0-.23.68.68,0,0,0-.1-.21.29.29,0,0,0,0-.18s0-.05-.06-.06a.45.45,0,0,0-.06-.3.32.32,0,0,0,0-.27.34.34,0,0,1,0-.26.18.18,0,0,0,0-.09.41.41,0,0,1,0-.12.69.69,0,0,1,0-.27.1.1,0,0,0,0-.09.41.41,0,0,1,0-.09.4.4,0,0,1,0-.18.75.75,0,0,0,0-.2.25.25,0,0,0,0-.09.11.11,0,0,1,0-.08.11.11,0,0,1,0-.08l0-.07a.86.86,0,0,1,0-.27c0-.08,0-.17,0-.27s.08-.12.07-.15a.15.15,0,0,1,0-.08,1.27,1.27,0,0,0,.13-.32.31.31,0,0,0,0-.1.28.28,0,0,1,0-.09.59.59,0,0,0,0-.2.25.25,0,0,1,0-.12.27.27,0,0,1,.08-.17c0-.06,0-.13,0-.2a.32.32,0,0,1,0-.21.34.34,0,0,1,.14-.05.33.33,0,0,0,.15,0,.22.22,0,0,0,.1,0s.06,0,.06,0l.19,0a.22.22,0,0,1,.11,0h.52a.73.73,0,0,1,.09.22.88.88,0,0,1,0,.2c0,.14,0,.29,0,.44s0,.32,0,.49a.28.28,0,0,0,0,.09.34.34,0,0,1,0,.1c0,.05,0,.1,0,.15V12a.67.67,0,0,0,0,.17,2.21,2.21,0,0,1,.05.33v.19a.34.34,0,0,0,0,.2.28.28,0,0,1,0,.2.57.57,0,0,1,.1.34c0,.13,0,.27,0,.42a1,1,0,0,0,0,.17.6.6,0,0,1,0,.2.3.3,0,0,0,0,.16.15.15,0,0,1,0,.09,2.62,2.62,0,0,1,0,.28.65.65,0,0,0,0,.28l0,.1,0,.1a.93.93,0,0,1,0,.13.19.19,0,0,0,0,.09l0,.07.06.05.16.19a.31.31,0,0,0,.13.1.19.19,0,0,0,0,.08.25.25,0,0,1,0,.07h.09l.11,0a.3.3,0,0,0,.08.08.16.16,0,0,1,.08.08.28.28,0,0,1,.21.07.2.2,0,0,1,.15,0,.54.54,0,0,0,.2,0l.1,0a.22.22,0,0,1,.1,0l.39-.06a.59.59,0,0,0,.29-.09.29.29,0,0,1,.08-.08s0,0,.06,0l.14-.18a1.71,1.71,0,0,1,.11-.14,1,1,0,0,0,.12-.14.54.54,0,0,1,0-.11.28.28,0,0,1,.09-.1.64.64,0,0,1,.06-.23,1.2,1.2,0,0,1,.11-.17V14.8a.2.2,0,0,1,.06-.11.08.08,0,0,1,0-.09s0-.06,0-.12l0-.06a.16.16,0,0,0,0-.08.08.08,0,0,0,0-.07.09.09,0,0,1,0-.07.74.74,0,0,1,0-.34,2.5,2.5,0,0,1,.06-.38.49.49,0,0,1,0-.11.29.29,0,0,0,0-.09c0-.1,0-.16,0-.2l0-.11a.41.41,0,0,0,0-.12.43.43,0,0,1,0-.12.31.31,0,0,1,0-.08.31.31,0,0,0,0-.1.61.61,0,0,0,0-.14l0-.13s0-.07,0-.1a.36.36,0,0,0,0-.11.29.29,0,0,0,0-.13.77.77,0,0,1,0-.15.3.3,0,0,1,0-.1.37.37,0,0,0,0-.11.28.28,0,0,0,0-.09v-.08a.59.59,0,0,1,0-.13.15.15,0,0,0,0-.13.16.16,0,0,1,0-.09,0,0,0,0,0,0-.05.92.92,0,0,1,0-.09l0-.07a.11.11,0,0,1,0,0,.36.36,0,0,0,0-.15.31.31,0,0,1,0-.08.4.4,0,0,1,0-.15s0,0,0-.06a.33.33,0,0,1,.15-.11l.19-.05H110a.43.43,0,0,1,.2,0h.1l.16,0a.21.21,0,0,1,.19.05.37.37,0,0,1,.23-.07.24.24,0,0,1,.18.1.2.2,0,0,1,0,.09.53.53,0,0,0,0,.13.44.44,0,0,1,0,.1.45.45,0,0,1,0,.12.27.27,0,0,0,0,.15A1.28,1.28,0,0,1,111.18,10.94Z"/><path class="cls-2" d="M120,13.81a.88.88,0,0,0,0,.23.18.18,0,0,1,0,.16.15.15,0,0,1,.06.15c0,.06,0,.13,0,.2a.29.29,0,0,0,0,.13.17.17,0,0,1,0,.1l-.08.17s0,.05-.05.05a.29.29,0,0,1,0,.16.88.88,0,0,0,0,.15.48.48,0,0,1-.05.13.14.14,0,0,0,0,.06,1.09,1.09,0,0,1,0,.17.24.24,0,0,1,0,.07l-.08.21-.08.21-.12.25a.6.6,0,0,1-.14.21.2.2,0,0,0,0,.09.32.32,0,0,1,0,.08.6.6,0,0,1-.12.11.76.76,0,0,0-.1.15.6.6,0,0,1-.13.21.35.35,0,0,1-.11.1.38.38,0,0,0-.13.09c-.05,0-.07,0-.08,0s0,0-.07,0a1.24,1.24,0,0,1-.19.16,1.42,1.42,0,0,1-.26.1l-.11,0h-.06l-.16.06a.58.58,0,0,1-.19,0,.56.56,0,0,0-.2,0l-.12,0a.55.55,0,0,1-.22,0h-.24c-.07,0-.11,0-.13,0l0,0h-.22l-.16,0a.33.33,0,0,1-.2,0l-.44.06a.52.52,0,0,1-.35-.1.2.2,0,0,1-.17,0l-.13,0h-.05a1.34,1.34,0,0,1-.27-.07.9.9,0,0,1-.24-.12,1.18,1.18,0,0,1-.27-.12.53.53,0,0,0-.21-.06l-.12-.13a.28.28,0,0,0-.06-.08.09.09,0,0,0-.07,0l-.06,0a.65.65,0,0,0-.15-.11l-.07-.05,0-.06-.06-.07a1.34,1.34,0,0,0-.16-.19l-.11-.1a.24.24,0,0,0,0-.07.13.13,0,0,1,0-.09l-.1-.11,0,0a1.45,1.45,0,0,0-.15-.2.3.3,0,0,1,0-.1s0-.08,0-.14a1.67,1.67,0,0,0,0-.19.15.15,0,0,1,0-.13l-.06-.07a.15.15,0,0,1,0-.06,1.5,1.5,0,0,1,0-.2.55.55,0,0,0,0-.18.37.37,0,0,0,0-.11.17.17,0,0,1,0-.12l-.06-.1a.31.31,0,0,0,0-.1.26.26,0,0,0,0-.15.48.48,0,0,1,0-.18v-.1s0-.07,0-.11v-.22a.57.57,0,0,1,0-.14.5.5,0,0,1,0-.13.76.76,0,0,0,0-.14.08.08,0,0,1,.06-.08.41.41,0,0,1,0-.31.83.83,0,0,0,.06-.32s0,0,0-.07a.16.16,0,0,1,0-.07.52.52,0,0,1,0-.23,1.18,1.18,0,0,0,.07-.2.15.15,0,0,0,.11-.08.75.75,0,0,1,.07-.12.24.24,0,0,0,.1-.13q0-.08.09-.06a1.3,1.3,0,0,0,.13-.19.33.33,0,0,1,.13-.13l.13-.06.06,0,.06-.08,0,0a1.58,1.58,0,0,1,.24-.15.38.38,0,0,1,.09-.09L114,11l.14-.07.06,0,.11-.07a.12.12,0,0,1,.14,0,.75.75,0,0,1,.56-.16l.31-.08a1.12,1.12,0,0,1,.27,0h.1l.08,0,.13,0,.12,0,.26,0,.18,0,.2,0h.09l.07,0,.07,0a.68.68,0,0,0,.21,0h.1l.1,0,.11.05.1,0,.1,0a1,1,0,0,0,.34,0,.7.7,0,0,1,.34.06l.06,0,.08.05.09,0,0,0a2.59,2.59,0,0,1,.36.22l.24.21a.2.2,0,0,0,0,.11.93.93,0,0,0,0,.1.32.32,0,0,1,.1.1l.09.09a.06.06,0,0,1,0,.07.51.51,0,0,0,0,.09s0,.09.07.14l.09.14c0,.07,0,.11,0,.12a.28.28,0,0,1,.05.1l.07.17a.2.2,0,0,0,.14.13.18.18,0,0,0,0,.14.88.88,0,0,1,0,.15,1.09,1.09,0,0,1,0,.18v.17a.65.65,0,0,0,0,.2A.41.41,0,0,1,120,13.81Zm-1.54-.14a.93.93,0,0,1,0-.13.14.14,0,0,0,0-.09,1.83,1.83,0,0,0-.08-.25,1.73,1.73,0,0,1-.08-.27.43.43,0,0,1,0-.16,1.1,1.1,0,0,0,0-.18s-.06,0-.06-.08,0-.06,0-.07a.11.11,0,0,0-.07-.08.13.13,0,0,1-.07-.09l-.25-.13-.26,0-.09,0a.19.19,0,0,0-.09,0,.15.15,0,0,0-.14,0,.2.2,0,0,1-.16,0,.18.18,0,0,1-.09-.1.27.27,0,0,0-.1-.11.18.18,0,0,0-.09,0h-.08l0-.05s0,0-.08,0l-.25.07a.34.34,0,0,1-.28,0l-.1,0-.07.06s0,0-.06,0h-.08a1.17,1.17,0,0,1-.25.14,1.08,1.08,0,0,0-.24.11.27.27,0,0,0-.15.09l-.07.08-.08.07a.27.27,0,0,1-.08.07,1,1,0,0,0-.27.2,1,1,0,0,1-.2.15.23.23,0,0,1-.08.16.31.31,0,0,0-.11.16c0,.05,0,.1,0,.16a1.55,1.55,0,0,1,0,.15,1.09,1.09,0,0,0-.07.4.49.49,0,0,1-.08.29.08.08,0,0,1,0,.08.17.17,0,0,0,0,.1,1.12,1.12,0,0,1,0,.13.23.23,0,0,1,0,.14.78.78,0,0,0,0,.19c0,.06.06.1.05.11a.07.07,0,0,0,0,.05.14.14,0,0,0,0,.08.11.11,0,0,1,0,.11c.05,0,.07,0,.07.07a.12.12,0,0,0,.06.08.16.16,0,0,0,0,.16.24.24,0,0,1,0,.19s.06.06.06.08a.43.43,0,0,0,0,.05l.06.06a.13.13,0,0,1,0,.1.2.2,0,0,1,.12.08.38.38,0,0,0,.11.11l0,.05a.15.15,0,0,1,.06,0l.11.08.07.07a.4.4,0,0,0,.12.07.14.14,0,0,1,.09,0l.07.05.06,0a.79.79,0,0,0,.22.05.28.28,0,0,1,.21.11.58.58,0,0,1,.19,0,.44.44,0,0,0,.21,0,.1.1,0,0,1,.08,0,.12.12,0,0,0,.09,0l.09,0,.09,0a.24.24,0,0,1,.12,0l.11,0,.15-.05.13-.07.11-.07a.28.28,0,0,1,.13,0,.17.17,0,0,1,.06-.1l.09-.07.11-.11a.31.31,0,0,0,.09-.11.27.27,0,0,1,.07-.08s0-.05.06-.08a1,1,0,0,0,.16-.24c0-.08.09-.16.13-.25l.08-.13.06-.15a.89.89,0,0,1,0-.17,0,0,0,0,0,0-.05c0-.07,0-.13,0-.18a.26.26,0,0,0,0-.15.2.2,0,0,0,.06-.15.88.88,0,0,1,0-.21.28.28,0,0,1,0-.11.2.2,0,0,0,0-.11.88.88,0,0,0,0-.24Z"/><path class="cls-2" d="M125,11.29a.58.58,0,0,0,0,.19.08.08,0,0,1,0,.07.25.25,0,0,1-.09.13l-.12.08a.32.32,0,0,0-.23,0l-.21.07h-.17a.41.41,0,0,0-.19,0,.64.64,0,0,1-.17.05h-.12a.13.13,0,0,0-.11,0,.43.43,0,0,0,0,.25.88.88,0,0,1,0,.28,1.27,1.27,0,0,0,0,.33,2,2,0,0,1,0,.23,1.55,1.55,0,0,1,0,.22.32.32,0,0,0,0,.19.53.53,0,0,0,0,.19v.22a1.4,1.4,0,0,0,0,.41c0,.16,0,.29,0,.42s0,.11,0,.16a.89.89,0,0,1,0,.15c0,.07,0,.11,0,.13a.07.07,0,0,1,0,.05,3,3,0,0,0,0,.3c0,.11,0,.23,0,.35a.81.81,0,0,1,0,.17.28.28,0,0,0,0,.09,1.92,1.92,0,0,0,0,.22.31.31,0,0,1-.07.23.08.08,0,0,0,0,.07l0,.07a.3.3,0,0,0,0,.16.13.13,0,0,1,0,.08.66.66,0,0,0,0,.24,1.1,1.1,0,0,1,0,.18.68.68,0,0,1-.16.54L123,17.8a1.93,1.93,0,0,0-.34,0l-.15,0a.4.4,0,0,1-.18,0l-.09,0-.08,0a.08.08,0,0,1-.09,0l-.09-.05a1.59,1.59,0,0,1,0-.39,3.92,3.92,0,0,0,0-.49.36.36,0,0,0,0-.11s0-.07,0-.11a1.15,1.15,0,0,1,0-.19.69.69,0,0,0,0-.2.24.24,0,0,1,0-.08.28.28,0,0,0,0-.09.08.08,0,0,0,0-.06s0,0,0-.08a1.48,1.48,0,0,1,0-.31,1.5,1.5,0,0,0,.06-.29c0-.1,0-.18,0-.23V15a.83.83,0,0,1,0-.12.27.27,0,0,1,0-.12s0-.07,0-.08a.18.18,0,0,0,0-.09,1.74,1.74,0,0,1,0-.4,1.93,1.93,0,0,0,0-.34,1.39,1.39,0,0,1,0-.23.66.66,0,0,0,0-.15,1.11,1.11,0,0,1,0-.19,1.62,1.62,0,0,1,0-.22.22.22,0,0,1,0-.09.31.31,0,0,0,0-.1.2.2,0,0,0,0-.11.5.5,0,0,1,0-.12,1.8,1.8,0,0,1,0-.22.86.86,0,0,0,0-.22s0-.05,0-.08a.29.29,0,0,1,0-.09,1,1,0,0,1,0-.25.44.44,0,0,0,0-.23l-.41.1-.1,0-.11,0a.58.58,0,0,0-.17.05s-.09,0-.14,0a.53.53,0,0,1-.15-.17.31.31,0,0,1,0-.17l.11-.13s0-.06,0-.07a.34.34,0,0,0,0-.1.56.56,0,0,0,0-.13.39.39,0,0,1,0-.15.61.61,0,0,1,.07-.14,1.12,1.12,0,0,0,.05-.13.37.37,0,0,0,0-.18.6.6,0,0,1,0-.19c0-.14.14-.2.33-.16l.14,0a.11.11,0,0,1,.09.08.25.25,0,0,1,.18,0,.34.34,0,0,0,.16,0,.44.44,0,0,0,.08-.31,2.94,2.94,0,0,1,0-.42.53.53,0,0,0,0-.17l0-.1a1.14,1.14,0,0,1,0-.37s0,0,0-.08a.31.31,0,0,0,0-.08.58.58,0,0,0,0-.19.27.27,0,0,0,0-.11.43.43,0,0,0,0-.07l0,0a.08.08,0,0,1,0-.07c.06-.06.1-.09.13-.09h.1l.18,0a.59.59,0,0,1,.18,0,.36.36,0,0,1,.18,0l.15,0,.09,0a.2.2,0,0,1,.08,0,.11.11,0,0,0,.1,0,.07.07,0,0,1,.09,0,.39.39,0,0,0,.09.11.05.05,0,0,1,0,.05.69.69,0,0,1,0,.29q0,.18,0,.33a.5.5,0,0,1,0,.12v.12a.52.52,0,0,1,0,.11.34.34,0,0,0,0,.09.3.3,0,0,1,0,.17.22.22,0,0,0,0,.09.75.75,0,0,0,0,.16.18.18,0,0,1-.07.16.39.39,0,0,1,0,.15l0,.16a.28.28,0,0,0,0,.09v.1a.36.36,0,0,1,0,.11.13.13,0,0,0,0,.12.27.27,0,0,0,.18,0l.15-.08a.47.47,0,0,1,.17,0,.18.18,0,0,0,.16-.06.1.1,0,0,0,.14,0,.09.09,0,0,1,.13,0,.45.45,0,0,1,.22-.12.57.57,0,0,1,.26,0,.51.51,0,0,0,.08.14l0,.06a.08.08,0,0,1,0,.07.17.17,0,0,0,0,.1c0,.07,0,.11,0,.13a.13.13,0,0,0,0,.06.85.85,0,0,0,0,.17,1,1,0,0,1,0,.14Z"/><path class="cls-2" d="M133.17,14.22a1,1,0,0,0,0,.25.19.19,0,0,1,0,.14.18.18,0,0,1-.09.08c-.05,0-.09,0-.1.08a.47.47,0,0,0-.17,0,.76.76,0,0,0-.16,0,.32.32,0,0,0-.25-.06.39.39,0,0,1-.27-.07.25.25,0,0,1-.14,0,1.22,1.22,0,0,1-.38,0l-.41-.07h-.57l-.21,0a.6.6,0,0,1-.19-.06.48.48,0,0,0-.18,0h-.17a.44.44,0,0,1-.16,0l-.21,0a.64.64,0,0,1-.14,0h-.24a.15.15,0,0,1-.15-.07l-.09.06h-.14l-.1,0h-.06a.44.44,0,0,1-.15,0,.13.13,0,0,0-.11,0,.11.11,0,0,0-.09,0l-.09,0a.61.61,0,0,0-.27,0l-.22,0-.2,0a.49.49,0,0,0-.24,0,.51.51,0,0,0,0,.29.71.71,0,0,0,.1.28.11.11,0,0,1,0,.1.3.3,0,0,0,0,.1,1,1,0,0,0,.18.21.63.63,0,0,1,.11.13.74.74,0,0,0,.16.2,1.56,1.56,0,0,1,.16.2.31.31,0,0,0,.08.11.44.44,0,0,1,.08.1.49.49,0,0,1,.18.08l.17.12a1,1,0,0,1,.2.13.56.56,0,0,0,.15.1.22.22,0,0,0,.1,0,.21.21,0,0,1,.08,0,.41.41,0,0,1,.14.1.41.41,0,0,0,.17.07h.21l.12,0a.58.58,0,0,0,.31-.08H130a.28.28,0,0,1,.17-.08.17.17,0,0,0,.1,0,.13.13,0,0,1,.07,0l.06,0a.4.4,0,0,0,.13-.07l.13-.09a.88.88,0,0,0,.17-.12.66.66,0,0,0,.22-.22,1.7,1.7,0,0,1,.22-.24.86.86,0,0,1,.05-.26,1.24,1.24,0,0,1,.1-.2.46.46,0,0,1,0-.22.65.65,0,0,1,.08-.17l.12,0a.2.2,0,0,1,.13,0l.07.05.09,0,.09,0,.14,0,.12,0h.08a.34.34,0,0,0,.19,0,.24.24,0,0,1,.15,0,.52.52,0,0,1,.17.16.47.47,0,0,1-.09.28.48.48,0,0,0-.06.18.34.34,0,0,1,0,.09.16.16,0,0,1,0,.07.29.29,0,0,0,0,.08.8.8,0,0,0,0,.15.77.77,0,0,1-.06.15l-.16.18a.47.47,0,0,1-.12.09.06.06,0,0,1,0,.09l-.07.06a.58.58,0,0,1-.11.15l-.17.11a1.46,1.46,0,0,1-.21.16l-.22.13-.19.16a.4.4,0,0,1-.13.07l-.1.05,0,0-.15,0-.15,0-.25.07-.2,0-.12,0a.42.42,0,0,1-.16,0,.28.28,0,0,0-.19,0,.11.11,0,0,1-.13,0l-.24.06a.56.56,0,0,1-.18,0h-.07l-.08,0-.4-.05-.26-.05-.08,0s-.05,0-.07-.05a.34.34,0,0,1-.24,0,.83.83,0,0,1-.17-.12l-.07,0-.07,0-.19-.09a.34.34,0,0,1-.14-.15.17.17,0,0,1-.15-.05.55.55,0,0,0-.11-.1.33.33,0,0,1-.19-.06.57.57,0,0,1-.13-.14,1.88,1.88,0,0,0-.2-.2l-.22-.24a.38.38,0,0,0-.19-.14.29.29,0,0,0-.08-.13.63.63,0,0,1-.1-.12A1,1,0,0,1,126,16L125.9,16c0-.07,0-.14,0-.2a1.46,1.46,0,0,0,0-.2,1.26,1.26,0,0,1,0-.21.59.59,0,0,0,0-.13l0-.08,0-.08a.53.53,0,0,1,0-.13.34.34,0,0,0,0-.14.5.5,0,0,0,0-.12.49.49,0,0,1,0-.12,1.21,1.21,0,0,1,0-.19,1.34,1.34,0,0,0,0-.2v-.07a.25.25,0,0,1,0-.08.93.93,0,0,1,0-.13,1.21,1.21,0,0,0,0-.14.34.34,0,0,1,0-.17.08.08,0,0,0,0-.08.21.21,0,0,0,0-.07.14.14,0,0,1,0-.07.22.22,0,0,0,0-.09.26.26,0,0,1,0-.11l.08-.13,0,0a.29.29,0,0,1,0-.12.09.09,0,0,1,0-.06.61.61,0,0,1,.09-.16l0-.05,0-.12s0,0,0,0a.44.44,0,0,0,0-.14.56.56,0,0,1,0-.12.42.42,0,0,1,.06-.14.4.4,0,0,1,.1-.12l.12-.27.1-.21a.8.8,0,0,0,.2-.21,1,1,0,0,1,.21-.21.05.05,0,0,1,0,0l.09,0,.21-.17a.54.54,0,0,1,.15-.09,1,1,0,0,1,.24,0,.26.26,0,0,0,.23-.09.28.28,0,0,0,.15,0l.16-.07.12-.06a.33.33,0,0,1,.18,0h.17l.19,0,.12,0h.14l.31,0h.25l.13,0,.15,0h.13l.12,0,.11,0h0a.28.28,0,0,1,.11.05l.11.06.07,0a.11.11,0,0,1,.08,0l.15.06.17.06a.13.13,0,0,1,.1.11.65.65,0,0,1,.22.1l.13.11a.38.38,0,0,1,.11.11.38.38,0,0,0,.11.11.09.09,0,0,0,0,.06l0,.08a.93.93,0,0,1,.18.16.44.44,0,0,0,.22.15,1.14,1.14,0,0,0,.09.16.3.3,0,0,1,.07.18.21.21,0,0,0,.06.08l.07.12,0,.06a.35.35,0,0,1,.05.08c0,.09.09.18.14.27l.07.09a.29.29,0,0,1,.07.12.36.36,0,0,1,0,.1.41.41,0,0,0,0,.11.76.76,0,0,1,0,.11.25.25,0,0,1,0,.07.46.46,0,0,1,0,.2.67.67,0,0,0,0,.2c0,.05,0,.1,0,.16a.78.78,0,0,0,0,.16.81.81,0,0,0,0,.17Zm-1.86-1s0,0,0-.09a.11.11,0,0,0-.07-.09c0-.07,0-.1-.07-.11s0,0,0-.08l-.1-.06s-.06,0-.06-.11-.07,0-.08,0a.1.1,0,0,0-.05-.06.3.3,0,0,1-.11-.12.31.31,0,0,0-.08-.11.08.08,0,0,0-.08,0s-.05,0-.05-.05a.51.51,0,0,1-.32-.08A1.68,1.68,0,0,1,130,12a1.11,1.11,0,0,1-.26,0h-.27a.38.38,0,0,0-.19-.06.51.51,0,0,1-.2,0s-.06,0-.06-.06,0,0-.07,0a.19.19,0,0,1-.18,0l-.18-.05a.65.65,0,0,1-.23.09l-.23.06A.29.29,0,0,0,128,12l-.12.14-.18.2-.17.21a.16.16,0,0,1,0,.12.14.14,0,0,0,0,.11.31.31,0,0,0-.13.2l-.06.27a.74.74,0,0,0,.21,0l.25,0H128l.33,0h.26a1.14,1.14,0,0,0,.26,0,.34.34,0,0,1,.22,0,.72.72,0,0,1,.33-.06l.31,0h.14a3.76,3.76,0,0,1,.75,0A2.63,2.63,0,0,0,131.31,13.19Z"/></g></g></svg>