<svg xmlns="http://www.w3.org/2000/svg" viewBox="0 0 74.23 54.36"><defs><style>.cls-1{isolation:isolate;}.cls-2,.cls-3{fill:#ef9c93;}.cls-2,.cls-5,.cls-6{stroke:#001880;stroke-width:1.09px;}.cls-2,.cls-5{stroke-miterlimit:10;}.cls-3{mix-blend-mode:multiply;}.cls-4{fill:#001880;}.cls-5,.cls-6{fill:none;}.cls-6{stroke-linecap:round;stroke-linejoin:round;}</style></defs><g class="cls-1"><g id="Layer_2" data-name="Layer 2"><g id="Layer_1-2" data-name="Layer 1"><path class="cls-2" d="M58,9.36,63.9,3s-6.49-6.76-13.67,2.2C50.23,5.19,55.46,7.14,58,9.36Z"/><polygon class="cls-2" points="23.34 53.81 14.59 53.81 14.59 37.07 28.55 37.07 23.34 53.81"/><polygon class="cls-3" points="23.34 53.81 14.59 53.81 14.59 37.07 28.55 37.07 23.34 53.81"/><polygon class="cls-2" points="58.21 53.81 49.46 53.81 49.46 37.07 63.42 37.07 58.21 53.81"/><path class="cls-2" d="M69.86,20.21H66.29C62.89,10.29,52,3,39.09,3,23.45,3,10.77,13.68,10.77,26.82S23.45,50.61,39.09,50.61c12.9,0,23.8-7.26,27.2-17.18h3.57a3.68,3.68,0,0,0,3.83-3.51v-6.2A3.68,3.68,0,0,0,69.86,20.21Z"/><path class="cls-3" d="M38.68,3c-15.45.19-27.91,10.76-27.91,23.79S23.23,50.42,38.68,50.6Z"/><path class="cls-4" d="M45.5,9.36a1.1,1.1,0,0,1-.47-.1,15.09,15.09,0,0,0-12.38,0,1.16,1.16,0,0,1-1.55-.47,1.14,1.14,0,0,1,.47-1.54,15.19,15.19,0,0,1,4.3-1.33A17.69,17.69,0,0,1,46,7.18a1.14,1.14,0,0,1-.46,2.18Z"/><path class="cls-5" d="M10.77,24.88S4.4,27,2.66,22.38c-1-2.67,2.35-3.69,4-1.84,1.17,1.35,1.15,4.27.44,5-3,3-6.74.32-6.74.32"/><path class="cls-6" d="M52.14,19.32a5.17,5.17,0,0,0,7.3,0"/><line class="cls-6" x1="55.79" y1="20.82" x2="55.79" y2="23.27"/><line class="cls-6" x1="58.15" y1="20.26" x2="59.44" y2="22.23"/><line class="cls-6" x1="53.44" y1="20.26" x2="52.14" y2="22.23"/></g></g></g></svg>