<svg xmlns="http://www.w3.org/2000/svg" xmlns:xlink="http://www.w3.org/1999/xlink" viewBox="0 0 131.71 50.99"><defs><style>.cls-1{fill:none;}.cls-2{clip-path:url(#clip-path);}.cls-3,.cls-4{fill:#fff;}.cls-4{opacity:0.8;isolation:isolate;}</style><clipPath id="clip-path"><rect id="SVGID" class="cls-1" x="0.14" width="131.57" height="37.34"/></clipPath></defs><g id="Layer_2" data-name="Layer 2"><g id="Layer_1-2" data-name="Layer 1"><g class="cls-2"><path class="cls-3" d="M85.83,11.66A3.47,3.47,0,0,0,86.11,13a3.54,3.54,0,0,0,.79,1.14,3.73,3.73,0,0,0,1.16.77,3.56,3.56,0,0,0,1.37.27v2.37a6,6,0,0,1-3-.79,5.84,5.84,0,0,1-2.17-2.16,5.54,5.54,0,0,1-.82-2.95V0h2.41V5.74h3.6V8.13h-3.6v3.53Zm13.94-5.3a5.93,5.93,0,0,1,3,5.26v0a6,6,0,0,1-3,5.26,6,6,0,0,1-6.07,0,5.74,5.74,0,0,1-2.19-2.21,5.89,5.89,0,0,1-.81-3.07v0a6.07,6.07,0,0,1,.79-3.06,5.84,5.84,0,0,1,2.21-2.2,6,6,0,0,1,3.05-.8,5.87,5.87,0,0,1,3,.8Zm.64,5.28a3.65,3.65,0,0,0-1.08-2.71,3.71,3.71,0,0,0-5.19,0,3.63,3.63,0,0,0-1.06,2.71,3.62,3.62,0,0,0,1.06,2.71,3.57,3.57,0,0,0,1.18.78,3.82,3.82,0,0,0,2.82,0,3.42,3.42,0,0,0,1.19-.78A3.64,3.64,0,0,0,100.41,11.64Zm4.23,11.54V5.72h6.15a6.1,6.1,0,0,1,2.94.84,6.18,6.18,0,0,1,2.15,2.13,5.88,5.88,0,0,1,0,5.89,5.74,5.74,0,0,1-2.18,2.14,6.15,6.15,0,0,1-6.63-.36v6.83h-2.41Zm2.42-15.09v3.53a3.55,3.55,0,0,0,.27,1.36,3.63,3.63,0,0,0,.79,1.15,3.53,3.53,0,0,0,1.16.76,3.59,3.59,0,0,0,1.37.26,3.52,3.52,0,0,0,1.37-.26,3.53,3.53,0,0,0,2.23-3.27,3.39,3.39,0,0,0-.28-1.34,3.58,3.58,0,0,0-.79-1.15A3.73,3.73,0,0,0,112,8.36a3.56,3.56,0,0,0-1.37-.27h-3.59ZM85.84,31.28a3.25,3.25,0,0,0,.28,1.34,3.3,3.3,0,0,0,.79,1.14,3.54,3.54,0,0,0,2.53,1.05v2.37a6,6,0,0,1-3-.8,5.74,5.74,0,0,1-2.17-2.15,5.54,5.54,0,0,1-.82-2.95V19.61h2.41v5.74h3.6v2.39h-3.6v3.54ZM99.77,26a6,6,0,0,1,2.2,2.19,6.11,6.11,0,0,1,.79,3.07v0a6,6,0,0,1-.79,3.05,6.1,6.1,0,0,1-2.19,2.21,6.09,6.09,0,0,1-6.07,0,6.08,6.08,0,0,1-3-5.28v0a6.13,6.13,0,0,1,.79-3.07A5.81,5.81,0,0,1,93.71,26a5.87,5.87,0,0,1,3.05-.81,5.78,5.78,0,0,1,3,.81Zm.64,5.27a3.65,3.65,0,0,0-1.08-2.71,3.56,3.56,0,0,0-2.59-1.06A3.84,3.84,0,0,0,94.14,34a3.7,3.7,0,0,0,1.18.77,3.82,3.82,0,0,0,2.82,0A3.54,3.54,0,0,0,99.33,34,3.66,3.66,0,0,0,100.41,31.25Zm4.21-5.91h2.44v5.9a3.44,3.44,0,0,0,.27,1.36,3.66,3.66,0,0,0,2,1.92,3.62,3.62,0,0,0,1.39.27h3.56V25.34h2.43V37.18h-6a6,6,0,0,1-3-.79,5.82,5.82,0,0,1-2.19-2.16,5.69,5.69,0,0,1-.82-3Zm23.3,2.36h-3a3.64,3.64,0,0,0-2.56,1.05,3.45,3.45,0,0,0-.78,1.15,3.73,3.73,0,0,0-.26,1.36v5.92h-2.43V31.12a5.61,5.61,0,0,1,.86-2.9,6,6,0,0,1,2.18-2.12,6.1,6.1,0,0,1,3-.76h3v2.37Zm1.89,9.48a1.86,1.86,0,1,0-1.89-1.86A1.88,1.88,0,0,0,129.81,37.18Z"/><path class="cls-3" d="M38,.08A18.76,18.76,0,0,0,19.07,18.67H38Z"/><path class="cls-4" d="M.14.08V18.67H19.07A18.76,18.76,0,0,0,.14.08Z"/><path class="cls-3" d="M19.07,18.67H.14V37.26H19.07Z"/><path class="cls-4" d="M38,18.67H19.07V37.26H38Z"/><path class="cls-4" d="M60.71,37.26A18.76,18.76,0,0,0,79.64,18.67H60.71Z"/><path class="cls-3" d="M79.64.08A18.76,18.76,0,0,0,60.71,18.67H79.64Z"/><path class="cls-3" d="M60.71,18.67A18.76,18.76,0,0,0,41.78,37.26H60.71Z"/><path class="cls-3" d="M60.71,18.67V.08H41.78A18.76,18.76,0,0,0,60.71,18.67Z"/></g><path class="cls-3" d="M0,49.78v-5.6H1V48.9H4v.88Zm8.53.08a2.88,2.88,0,1,1,0-5.76,2.88,2.88,0,1,1,0,5.76Zm0-.91a2,2,0,0,0,0-3.94,2,2,0,1,0,0,3.94Zm9.24-4.77h1l-2.44,5.6h-1l-2.45-5.6H14l1.86,4.32Zm3.9,4.73h3.16v.87h-4.2v-5.6h4.09v.87h-3v1.46h2.7v.86h-2.7Zm9,.87v-5.6h1V48.9h2.93v.88Zm6,0v-5.6h1v5.6Zm7.87-4.73H41.48v1.71h2.7v.88h-2.7v2.14h-1v-5.6h4.09Zm3.27,3.86H51v.87h-4.2v-5.6h4.09v.87H47.8v1.46h2.7v.86H47.8Zm5.85-.4a.63.63,0,0,1,.65.67,1.82,1.82,0,0,1-.18.68L53.71,51h-.65l.32-1.22a.66.66,0,0,1,.27-1.26ZM60,49.78v-5.6h1V48.9H64v.88Zm8.53.08a2.88,2.88,0,1,1,3-2.88A2.86,2.86,0,0,1,68.56,49.86Zm0-.91a2,2,0,1,0-2-2A1.91,1.91,0,0,0,68.56,49Zm9.25-4.77h1l-2.44,5.6h-1l-2.45-5.6h1.13l1.87,4.32Zm3.89,4.73h3.16v.87h-4.2v-5.6h4.09v.87h-3v1.46h2.7v.86H81.7Zm10.12.87V45.06H90v-.88h4.75v.88H92.86v4.72Zm9.68,0h-1.12l-1.14-1.64H97.76v1.63h-1v-5.6H99c1.47,0,2.39.75,2.39,2a1.79,1.79,0,0,1-1.2,1.77Zm-1.14-3.61c0-.7-.47-1.11-1.39-1.11H97.76v2.23H99C99.89,47.29,100.36,46.88,100.36,46.17ZM108,49.78l-.56-1.29h-2.8l-.56,1.29H103l2.52-5.6h1l2.52,5.6Zm-3-2.11h2.1l-1-2.45Zm9.81-3.49h1l-2.44,5.6h-1l-2.45-5.6h1.13l1.86,4.32Zm3.9,4.73h3.16v.87h-4.2v-5.6h4.09v.87h-3v1.46h2.7v.86h-2.7Zm5.54.87v-5.6h1V48.9h2.93v.88Zm6.48.06a.67.67,0,1,1,.66-.66A.65.65,0,0,1,130.71,49.84Z"/></g></g></svg>