<svg xmlns="http://www.w3.org/2000/svg" viewBox="0 0 58.23 11.37"><defs><style>.cls-1{fill:#0071a8;}</style></defs><g id="Layer_2" data-name="Layer 2"><g id="Layer_1-2" data-name="Layer 1"><path class="cls-1" d="M2.45.62H1.34L1.45.37V4.06H1V.37l.13.25H0V.23H2.45Z"/><path class="cls-1" d="M3.78,4.11A1.88,1.88,0,0,1,3.13,4a1.07,1.07,0,0,1-.46-.34.86.86,0,0,1-.16-.53.85.85,0,0,1,.14-.49,1.71,1.71,0,0,1,.4-.41,5.79,5.79,0,0,1,.63-.39,2,2,0,0,0,.52-.42A.69.69,0,0,0,4.37,1,.4.4,0,0,0,4.3.7.4.4,0,0,0,4.12.54a.6.6,0,0,0-.48,0,.43.43,0,0,0-.2.15A.46.46,0,0,0,3.36,1a.83.83,0,0,0,.12.41,3.37,3.37,0,0,0,.34.48L5.18,3.58a.44.44,0,0,0,.17.15.24.24,0,0,0,.12,0h.09l.05,0v.32l-.06,0H5.41a.63.63,0,0,1-.22,0A.77.77,0,0,1,5,3.85L3.53,2.05c-.09-.11-.18-.23-.26-.35a2.71,2.71,0,0,1-.21-.37A1,1,0,0,1,3,.94a.7.7,0,0,1,.12-.4A.92.92,0,0,1,3.43.28,1.13,1.13,0,0,1,3.88.19a1,1,0,0,1,.44.09.76.76,0,0,1,.3.26.67.67,0,0,1,.11.4,1,1,0,0,1-.1.45,1.29,1.29,0,0,1-.3.37,2.8,2.8,0,0,1-.47.33,3.64,3.64,0,0,0-.7.49.71.71,0,0,0-.24.53A.61.61,0,0,0,3,3.46a.65.65,0,0,0,.32.24,1,1,0,0,0,.43.09,1.5,1.5,0,0,0,.64-.11,1.15,1.15,0,0,0,.42-.28,1.26,1.26,0,0,0,.28-.49,1.89,1.89,0,0,0,.09-.6h.37a2.29,2.29,0,0,1-.06.54,1.92,1.92,0,0,1-.17.44,1.87,1.87,0,0,1-.26.35A1.52,1.52,0,0,1,4.57,4,2,2,0,0,1,3.78,4.11Z"/><path class="cls-1" d="M8.79,2.73a1.35,1.35,0,0,1-.09.47,1.26,1.26,0,0,1-.26.45A1.32,1.32,0,0,1,8,4a1.49,1.49,0,0,1-.62.13,1.37,1.37,0,0,1-.83-.26A1.63,1.63,0,0,1,6,3.16a2.85,2.85,0,0,1-.17-1,2.91,2.91,0,0,1,.17-1,1.63,1.63,0,0,1,.52-.7A1.43,1.43,0,0,1,7.39.18a1.36,1.36,0,0,1,.69.17,1.43,1.43,0,0,1,.46.42,1.61,1.61,0,0,1,.22.53,1.22,1.22,0,0,1,0,.26H8.34A1,1,0,0,0,8.18,1,.84.84,0,0,0,7.86.7.88.88,0,0,0,7.39.59a.89.89,0,0,0-.56.17,1.19,1.19,0,0,0-.38.53,2.4,2.4,0,0,0-.13.86A2.4,2.4,0,0,0,6.45,3a1.19,1.19,0,0,0,.38.53.89.89,0,0,0,.56.18.91.91,0,0,0,.41-.09,1,1,0,0,0,.3-.22,1.06,1.06,0,0,0,.24-.68Z"/><path class="cls-1" d="M9.18.7A.28.28,0,0,1,9,.63.3.3,0,0,1,8.89.42.29.29,0,0,1,9,.21.31.31,0,0,1,9.22.13a.29.29,0,0,1,.26.11.43.43,0,0,1,.09.28.56.56,0,0,1-.08.3.74.74,0,0,1-.2.23A1,1,0,0,1,9,1.19L9,1.06A.54.54,0,0,0,9.16,1,.47.47,0,0,0,9.29.81.27.27,0,0,0,9.35.64a.15.15,0,0,1-.06,0A.18.18,0,0,1,9.18.7Z"/><path class="cls-1" d="M10.73,4.12a1.65,1.65,0,0,1-.46-.06,1.11,1.11,0,0,1-.37-.15.74.74,0,0,1-.24-.26.64.64,0,0,1-.09-.34V3.23H10v0a.38.38,0,0,0,.2.33,1.13,1.13,0,0,0,.53.11,1.38,1.38,0,0,0,.37-.05.57.57,0,0,0,.26-.12.27.27,0,0,0,.1-.22.33.33,0,0,0-.2-.31,3,3,0,0,0-.61-.16,2.59,2.59,0,0,1-.4-.09,1.43,1.43,0,0,1-.33-.15.78.78,0,0,1-.24-.24.67.67,0,0,1-.08-.33.64.64,0,0,1,.15-.43,1,1,0,0,1,.4-.27,1.7,1.7,0,0,1,.57-.09,1.47,1.47,0,0,1,.56.1.91.91,0,0,1,.41.28.68.68,0,0,1,.15.45v.05h-.44v0a.33.33,0,0,0-.1-.25.55.55,0,0,0-.25-.14.86.86,0,0,0-.32-.05,1.84,1.84,0,0,0-.33,0,.89.89,0,0,0-.26.12.26.26,0,0,0-.1.22.32.32,0,0,0,.09.23.81.81,0,0,0,.28.13,3.26,3.26,0,0,0,.42.1l.41.1a1.52,1.52,0,0,1,.34.15.72.72,0,0,1,.23.23.59.59,0,0,1,.08.34.68.68,0,0,1-.09.35.75.75,0,0,1-.25.25,1.45,1.45,0,0,1-.38.16A2.14,2.14,0,0,1,10.73,4.12Z"/><path class="cls-1" d="M13,4.06,14,.22h.69l1,3.84h-.45L14.37.51h0l-.94,3.55Zm.55-1V2.66h1.71v.39Z"/><path class="cls-1" d="M16,5.2V1.3h.44V5.2Zm1.35-1.08a1.28,1.28,0,0,1-.6-.16,1.42,1.42,0,0,1-.45-.43,1.24,1.24,0,0,1-.17-.63v0h.32v0a.77.77,0,0,0,.11.4.84.84,0,0,0,.32.3.81.81,0,0,0,.41.11.85.85,0,0,0,.61-.25,1.09,1.09,0,0,0,.24-.77,1,1,0,0,0-.24-.76.88.88,0,0,0-1-.15,1,1,0,0,0-.32.29.84.84,0,0,0-.11.41h-.32a1.18,1.18,0,0,1,.17-.62,1.32,1.32,0,0,1,.45-.43,1.27,1.27,0,0,1,.6-.15,1.23,1.23,0,0,1,.62.17,1.16,1.16,0,0,1,.45.48,1.54,1.54,0,0,1,.18.77,1.67,1.67,0,0,1-.17.78A1.26,1.26,0,0,1,18,4,1.24,1.24,0,0,1,17.35,4.12Z"/><path class="cls-1" d="M18.92,5.2V1.3h.44V5.2Zm1.35-1.08a1.28,1.28,0,0,1-.6-.16,1.42,1.42,0,0,1-.45-.43,1.24,1.24,0,0,1-.17-.63v0h.32v0a.77.77,0,0,0,.11.4.84.84,0,0,0,.32.3.81.81,0,0,0,.41.11.85.85,0,0,0,.61-.25,1.09,1.09,0,0,0,.24-.77,1,1,0,0,0-.24-.76.88.88,0,0,0-1-.15,1,1,0,0,0-.32.29.84.84,0,0,0-.11.41h-.32a1.18,1.18,0,0,1,.17-.62,1.32,1.32,0,0,1,.45-.43,1.27,1.27,0,0,1,.6-.15,1.23,1.23,0,0,1,.62.17,1.16,1.16,0,0,1,.45.48,1.54,1.54,0,0,1,.18.77,1.67,1.67,0,0,1-.17.78,1.21,1.21,0,0,1-.46.49A1.18,1.18,0,0,1,20.27,4.12Z"/><path class="cls-1" d="M22.32,0V4.06h-.44V0Z"/><path class="cls-1" d="M22.84,5.23h-.18l-.11,0V4.81l.11,0h.16a.61.61,0,0,0,.28-.07.69.69,0,0,0,.19-.19,1.69,1.69,0,0,0,.13-.27l.08-.24L22.55,1.3H23l.77,2.38h-.07l.75-2.38h.46l-1,3a2.78,2.78,0,0,1-.21.46,1,1,0,0,1-.32.34A1,1,0,0,1,22.84,5.23Z"/><path class="cls-1" d="M26.05.94l.41.48-.2.13L25.85,1l-.41.53-.2-.13.41-.48-.6-.21.11-.2.57.22V.2H26V.75l.57-.22.11.2Z"/><path class="cls-1" d="M1.53,10.72a1.39,1.39,0,0,1-.61-.13,1.41,1.41,0,0,1-.49-.39,2,2,0,0,1-.32-.62A3,3,0,0,1,0,8.75a3.05,3.05,0,0,1,.11-.84A2,2,0,0,1,.43,7.3a1.28,1.28,0,0,1,.49-.38,1.39,1.39,0,0,1,.61-.13,1.41,1.41,0,0,1,.62.13,1.28,1.28,0,0,1,.49.38A1.76,1.76,0,0,1,3,7.91a3.05,3.05,0,0,1,.11.84A3,3,0,0,1,3,9.58a1.82,1.82,0,0,1-.32.62,1.41,1.41,0,0,1-.49.39A1.41,1.41,0,0,1,1.53,10.72Zm0-.4a1,1,0,0,0,.57-.17,1.14,1.14,0,0,0,.38-.53,2.4,2.4,0,0,0,.14-.87,2.42,2.42,0,0,0-.14-.88,1.07,1.07,0,0,0-.38-.51A1,1,0,0,0,1,7.36a1.07,1.07,0,0,0-.38.51,2.42,2.42,0,0,0-.14.88,2.4,2.4,0,0,0,.14.87,1.14,1.14,0,0,0,.38.53A1,1,0,0,0,1.53,10.32Z"/><path class="cls-1" d="M3.71,10.67V8.3H3.1V7.91h.61V7.55a1.22,1.22,0,0,1,0-.34.84.84,0,0,1,.13-.27,1,1,0,0,1,.19-.21,1.11,1.11,0,0,1,.27-.12,1.15,1.15,0,0,1,.33,0h.2l.1,0V7l-.1,0L4.71,7A.62.62,0,0,0,4.42,7a.35.35,0,0,0-.17.15.66.66,0,0,0-.08.21,2,2,0,0,0,0,.25v.28H5V8.3H4.15v2.37Zm2.1,0V8.3h-.6V7.91h.6V7.55a1.22,1.22,0,0,1,0-.34A.84.84,0,0,1,6,6.94a.8.8,0,0,1,.2-.21.89.89,0,0,1,.26-.12,1.15,1.15,0,0,1,.33,0H7l.1,0V7L7,7,6.81,7A.55.55,0,0,0,6.53,7a.34.34,0,0,0-.18.15,1,1,0,0,0-.08.21,2,2,0,0,0,0,.25v.28h.81V8.3H6.25v2.37Z"/><path class="cls-1" d="M7.21,9.46V9.07H9.34l-.08.13V9.14a1,1,0,0,0-.1-.44.67.67,0,0,0-.29-.31.94.94,0,0,0-.49-.12,1.08,1.08,0,0,0-.52.12.91.91,0,0,0-.35.35,1.16,1.16,0,0,0-.12.54,1.22,1.22,0,0,0,.12.56.82.82,0,0,0,.34.35,1,1,0,0,0,.53.13,1.35,1.35,0,0,0,.38-.05A.85.85,0,0,0,9,10.15.64.64,0,0,0,9.19,10a.32.32,0,0,0,.06-.18H9.7a.86.86,0,0,1-.11.33.91.91,0,0,1-.26.3,1.17,1.17,0,0,1-.4.21,1.61,1.61,0,0,1-.56.08,1.44,1.44,0,0,1-.73-.18,1.33,1.33,0,0,1-.5-.5A1.53,1.53,0,0,1,7,9.3a1.49,1.49,0,0,1,.18-.75,1.33,1.33,0,0,1,.5-.5,1.49,1.49,0,0,1,.73-.18,1.44,1.44,0,0,1,.73.18,1.2,1.2,0,0,1,.47.5,1.52,1.52,0,0,1,.17.71v.11a.44.44,0,0,0,0,.09Z"/><path class="cls-1" d="M10.06,10.67V7.91h.44v.84l-.14-.05a1.11,1.11,0,0,1,.08-.3,1,1,0,0,1,.17-.27.7.7,0,0,1,.28-.19.94.94,0,0,1,.39-.07,1.06,1.06,0,0,1,.27,0l.13.05-.11.43-.11,0a.65.65,0,0,0-.22,0,.74.74,0,0,0-.36.08.58.58,0,0,0-.23.21.86.86,0,0,0-.11.28,1.54,1.54,0,0,0,0,.3v1.51Z"/><path class="cls-1" d="M12.94,7.22l.2-.25V8.7L13,8.55H14.5v.39H13l.11-.15v1.74l-.2-.25h1.85v.39H12.7V6.83h2.09v.39Z"/><path class="cls-1" d="M15.19,10.67V7.91h.44v2.76Zm2,0V9a1.12,1.12,0,0,0-.07-.38.61.61,0,0,0-.23-.25,1,1,0,0,0-.41-.08.74.74,0,0,0-.41.11.79.79,0,0,0-.3.3.8.8,0,0,0-.12.43L15.38,9a1.16,1.16,0,0,1,.16-.59A1.26,1.26,0,0,1,16,8a1.17,1.17,0,0,1,.58-.15,1.25,1.25,0,0,1,.56.12.89.89,0,0,1,.37.35,1,1,0,0,1,.13.54v1.79Z"/><path class="cls-1" d="M19.16,10.72a1.23,1.23,0,0,1-.63-.16,1.25,1.25,0,0,1-.45-.49,1.71,1.71,0,0,1-.17-.79,1.65,1.65,0,0,1,.17-.77A1.25,1.25,0,0,1,18.54,8a1.26,1.26,0,0,1,1.21,0,1.24,1.24,0,0,1,.46.42,1.19,1.19,0,0,1,.17.63h0v0h-.32v0h0a.73.73,0,0,0-.12-.41.86.86,0,0,0-.31-.29.84.84,0,0,0-.41-.11.79.79,0,0,0-.61.25,1,1,0,0,0-.24.76,1.08,1.08,0,0,0,.24.77.79.79,0,0,0,.61.25.88.88,0,0,0,.42-.11.89.89,0,0,0,.31-.3.88.88,0,0,0,.11-.42h.32a1.25,1.25,0,0,1-.17.64,1.19,1.19,0,0,1-.44.45A1.16,1.16,0,0,1,19.16,10.72Zm.9-.05V6.6h.45v4.07Z"/><path class="cls-1" d="M22,10.72a2.24,2.24,0,0,1-.46-.05,1.38,1.38,0,0,1-.37-.16.82.82,0,0,1-.24-.25.68.68,0,0,1-.09-.35V9.83h.45v.06a.34.34,0,0,0,.19.32,1.13,1.13,0,0,0,.53.11,1.48,1.48,0,0,0,.38,0,.64.64,0,0,0,.26-.13.29.29,0,0,0,.09-.22.31.31,0,0,0-.2-.3,2.52,2.52,0,0,0-.6-.16,3.89,3.89,0,0,1-.4-.1,1.52,1.52,0,0,1-.34-.15.65.65,0,0,1-.32-.57A.62.62,0,0,1,21,8.23.92.92,0,0,1,21.41,8,1.69,1.69,0,0,1,22,7.87a1.64,1.64,0,0,1,.56.09,1,1,0,0,1,.41.28.68.68,0,0,1,.15.45v.05h-.44v0h0a.33.33,0,0,0-.09-.25.58.58,0,0,0-.25-.15A1.2,1.2,0,0,0,22,8.26a1.12,1.12,0,0,0-.32,0,.67.67,0,0,0-.27.11.27.27,0,0,0-.1.22.28.28,0,0,0,.1.23.68.68,0,0,0,.27.14l.42.1a2.47,2.47,0,0,1,.41.09,1.52,1.52,0,0,1,.34.15.68.68,0,0,1,.22.93.75.75,0,0,1-.25.25,1.11,1.11,0,0,1-.37.15A2.31,2.31,0,0,1,22,10.72Z"/><path class="cls-1" d="M25.34,10.72a1.13,1.13,0,0,1-.64-.16.83.83,0,0,1-.36-.44,1.62,1.62,0,0,1-.12-.66V9.31h.44v.11a1.37,1.37,0,0,0,.07.47.72.72,0,0,0,.21.32.7.7,0,0,0,.4.11.65.65,0,0,0,.39-.11A.71.71,0,0,0,26,9.88a1.83,1.83,0,0,0,.07-.5V6.83h.44V9.44a2.1,2.1,0,0,1-.06.51,1.06,1.06,0,0,1-.19.4.79.79,0,0,1-.35.27A1.15,1.15,0,0,1,25.34,10.72Z"/><path class="cls-1" d="M27.88,10.72a1,1,0,0,1-.49-.11.75.75,0,0,1-.32-.26,1,1,0,0,1-.16-.36,1.56,1.56,0,0,1-.05-.36V7.91h.44V9.52a1.23,1.23,0,0,0,.06.39.56.56,0,0,0,.21.29.66.66,0,0,0,.4.11.64.64,0,0,0,.42-.15.92.92,0,0,0,.28-.36,1.12,1.12,0,0,0,.1-.43l.26.11a1.42,1.42,0,0,1-.08.45,1.67,1.67,0,0,1-.23.39,1.16,1.16,0,0,1-.37.29A1,1,0,0,1,27.88,10.72Zm.89-.05V7.91h.44v2.76Z"/><path class="cls-1" d="M29.62,10.67V7.91h.44v2.76Zm2,0V9a.92.92,0,0,0-.07-.38.61.61,0,0,0-.23-.25.93.93,0,0,0-.41-.08.74.74,0,0,0-.41.11,1,1,0,0,0-.3.3.89.89,0,0,0-.11.43L29.81,9A1.07,1.07,0,0,1,30,8.45,1.15,1.15,0,0,1,30.39,8,1.17,1.17,0,0,1,31,7.87a1.22,1.22,0,0,1,.56.12.84.84,0,0,1,.37.35,1,1,0,0,1,.13.54v1.79Z"/><path class="cls-1" d="M32.58,9.46V9.07h2.14l-.08.13V9.14a1,1,0,0,0-.1-.44.75.75,0,0,0-.3-.31.91.91,0,0,0-.49-.12,1,1,0,0,0-.51.12.84.84,0,0,0-.35.35,1.05,1.05,0,0,0-.13.54,1.22,1.22,0,0,0,.12.56.84.84,0,0,0,.35.35,1,1,0,0,0,.53.13,1.46,1.46,0,0,0,.38-.05.79.79,0,0,0,.26-.12.51.51,0,0,0,.16-.17.45.45,0,0,0,.07-.18h.44a.84.84,0,0,1-.1.33,1,1,0,0,1-.26.3,1.22,1.22,0,0,1-.41.21,1.59,1.59,0,0,1-.55.08,1.47,1.47,0,0,1-.74-.18,1.33,1.33,0,0,1-.5-.5,1.53,1.53,0,0,1-.18-.74,1.39,1.39,0,0,1,.19-.75,1.27,1.27,0,0,1,.5-.5,1.44,1.44,0,0,1,.73-.18,1.37,1.37,0,0,1,.72.18,1.16,1.16,0,0,1,.48.5,1.51,1.51,0,0,1,.16.71v.11c0,.05,0,.08,0,.09Z"/><path class="cls-1" d="M37.92,8.65a.53.53,0,0,1,.36.13.72.72,0,0,1,.21.32,1.51,1.51,0,0,1,.06.44,1.46,1.46,0,0,1-.12.6.93.93,0,0,1-.36.42,1.08,1.08,0,0,1-.62.16,1.64,1.64,0,0,1-.53-.08.87.87,0,0,1-.34-.24,1,1,0,0,1-.2-.39,2,2,0,0,1-.06-.51h.44a1.36,1.36,0,0,0,.08.51.53.53,0,0,0,.24.25.89.89,0,0,0,.38.07.62.62,0,0,0,.47-.2.91.91,0,0,0,.17-.6,1.09,1.09,0,0,0,0-.26.55.55,0,0,0-.1-.22.46.46,0,0,0-.2-.15.78.78,0,0,0-.33-.06h-.15V8.48h.15a1,1,0,0,0,.33-.05.62.62,0,0,0,.2-.15.51.51,0,0,0,.1-.21,1,1,0,0,0,0-.24.67.67,0,0,0-.17-.5.7.7,0,0,0-.47-.15.77.77,0,0,0-.51.17.78.78,0,0,0-.19.61h-.44a1.51,1.51,0,0,1,.07-.48,1,1,0,0,1,.2-.37A1.13,1.13,0,0,1,37,6.87a1.3,1.3,0,0,1,.51-.08,1.25,1.25,0,0,1,.61.13.86.86,0,0,1,.36.37,1.11,1.11,0,0,1,.12.52,1.25,1.25,0,0,1-.06.4.69.69,0,0,1-.21.31A.58.58,0,0,1,37.92,8.65Z"/><path class="cls-1" d="M40,10.72a.9.9,0,0,1-.53-.15,1.17,1.17,0,0,1-.37-.42,2.22,2.22,0,0,1-.2-.63,4.59,4.59,0,0,1-.06-.76A4.51,4.51,0,0,1,38.94,8a2.22,2.22,0,0,1,.2-.63,1.21,1.21,0,0,1,.37-.43A.9.9,0,0,1,40,6.79a1,1,0,0,1,.54.15,1.09,1.09,0,0,1,.36.43,2.22,2.22,0,0,1,.2.63,3.64,3.64,0,0,1,.07.76,3.7,3.7,0,0,1-.07.76,2.22,2.22,0,0,1-.2.63,1.06,1.06,0,0,1-.36.42A1,1,0,0,1,40,10.72Zm0-.39a.49.49,0,0,0,.4-.18,1.14,1.14,0,0,0,.24-.53,4.12,4.12,0,0,0,.08-.86,4.12,4.12,0,0,0-.08-.86,1.18,1.18,0,0,0-.24-.54.49.49,0,0,0-.4-.18.52.52,0,0,0-.4.18,1.18,1.18,0,0,0-.24.54,4.12,4.12,0,0,0-.08.86,4.12,4.12,0,0,0,.08.86,1.09,1.09,0,0,0,.24.53A.52.52,0,0,0,40,10.33Z"/><path class="cls-1" d="M42.67,10.71a1,1,0,0,1-.25,0,.5.5,0,0,1-.22-.1.49.49,0,0,1-.16-.21A.88.88,0,0,1,42,10V8.3h-.67V7.91h.57a.11.11,0,0,0,.07,0,.12.12,0,0,0,0-.09V7h.45v.92h.86V8.3h-.86V9.85a1.08,1.08,0,0,0,0,.35.24.24,0,0,0,.24.12h.15l.1,0v.39l-.13,0Z"/><path class="cls-1" d="M43.5,10.67V6.6h.44v4.07Zm2,0V9.09a.86.86,0,0,0-.17-.6.64.64,0,0,0-.54-.2,1,1,0,0,0-.43.09.75.75,0,0,0-.29.27.66.66,0,0,0-.1.37l-.28-.08a1,1,0,0,1,.15-.54A1.08,1.08,0,0,1,44.24,8a1.18,1.18,0,0,1,.6-.14,1.07,1.07,0,0,1,.79.29,1.16,1.16,0,0,1,.29.83v1.68Z"/><path class="cls-1" d="M46.37,11.37l-.07-.12a.77.77,0,0,0,.19-.14,1.18,1.18,0,0,0,.18-.21.43.43,0,0,0,.07-.23.09.09,0,0,0,0-.05s0,0,0,0h.13a.3.3,0,0,1-.12.13.53.53,0,0,1-.16,0,.33.33,0,0,1-.22-.08.27.27,0,0,1-.09-.22.27.27,0,0,1,.1-.22.4.4,0,0,1,.26-.08.33.33,0,0,1,.26.1.38.38,0,0,1,.1.29.73.73,0,0,1-.09.35,1.23,1.23,0,0,1-.24.31A1.06,1.06,0,0,1,46.37,11.37Z"/><path class="cls-1" d="M48.24,10.67v-.38a.62.62,0,0,1,.12-.27,3.14,3.14,0,0,1,.25-.32l.31-.33.31-.3.36-.36a1.8,1.8,0,0,0,.29-.39A.88.88,0,0,0,50,7.88a.74.74,0,0,0-.16-.52.6.6,0,0,0-.48-.18.68.68,0,0,0-.4.11.58.58,0,0,0-.23.3,1.53,1.53,0,0,0-.06.45h-.45a1.53,1.53,0,0,1,.13-.66,1,1,0,0,1,.38-.44,1.24,1.24,0,0,1,.64-.15,1.05,1.05,0,0,1,.59.14,1,1,0,0,1,.37.38,1.32,1.32,0,0,1,.12.57,1.2,1.2,0,0,1-.08.42,2.71,2.71,0,0,1-.21.37q-.13.18-.27.33l-.28.28-.41.38a3.09,3.09,0,0,0-.31.34.62.62,0,0,0-.15.27h1.73v.4Z"/><path class="cls-1" d="M52,10.72a1,1,0,0,1-.54-.15,1.06,1.06,0,0,1-.36-.42,2.22,2.22,0,0,1-.2-.63,4.56,4.56,0,0,1-.07-.76A4.47,4.47,0,0,1,50.86,8a2.22,2.22,0,0,1,.2-.63,1.09,1.09,0,0,1,.36-.43,1,1,0,0,1,1.08,0,1.29,1.29,0,0,1,.36.43,2.22,2.22,0,0,1,.2.63,4.51,4.51,0,0,1,.06.76,4.59,4.59,0,0,1-.06.76,2.22,2.22,0,0,1-.2.63,1.25,1.25,0,0,1-.36.42A1,1,0,0,1,52,10.72Zm0-.39a.5.5,0,0,0,.4-.18,1.25,1.25,0,0,0,.24-.53,4.2,4.2,0,0,0,.07-.86,4.2,4.2,0,0,0-.07-.86,1.29,1.29,0,0,0-.24-.54.53.53,0,0,0-.8,0,1.18,1.18,0,0,0-.24.54,4.12,4.12,0,0,0-.08.86,4.12,4.12,0,0,0,.08.86,1.09,1.09,0,0,0,.24.53A.5.5,0,0,0,52,10.33Z"/><path class="cls-1" d="M53.42,10.67v-.38a.62.62,0,0,1,.12-.27,3.14,3.14,0,0,1,.25-.32l.32-.33.31-.3c.12-.12.24-.23.35-.36a1.85,1.85,0,0,0,.3-.39,1,1,0,0,0,.11-.44A.74.74,0,0,0,55,7.36a.58.58,0,0,0-.47-.18.71.71,0,0,0-.41.11.57.57,0,0,0-.22.3,1.25,1.25,0,0,0-.07.45h-.44a1.69,1.69,0,0,1,.12-.66,1,1,0,0,1,.38-.44,1.26,1.26,0,0,1,.64-.15,1.11,1.11,0,0,1,.6.14.88.88,0,0,1,.36.38,1.32,1.32,0,0,1,.12.57,1.2,1.2,0,0,1-.08.42,1.53,1.53,0,0,1-.21.37,2.16,2.16,0,0,1-.27.33c-.1.1-.19.2-.28.28s-.28.25-.4.38a3.26,3.26,0,0,0-.32.34.74.74,0,0,0-.15.27h1.74v.4Z"/><path class="cls-1" d="M58.16,7.22H56.67l-.14,1.26,0-.08.14-.11.22-.09a1.51,1.51,0,0,1,.32,0A.83.83,0,0,1,58,8.5a1.55,1.55,0,0,1,.25.9,1.74,1.74,0,0,1-.14.72.93.93,0,0,1-.37.45,1.16,1.16,0,0,1-.6.15,1.4,1.4,0,0,1-.49-.08,1,1,0,0,1-.35-.24,1,1,0,0,1-.2-.36A1.63,1.63,0,0,1,56,9.59h.43a.88.88,0,0,0,.18.57.69.69,0,0,0,.49.17.58.58,0,0,0,.35-.1.62.62,0,0,0,.23-.31,1.49,1.49,0,0,0,.08-.52,1.13,1.13,0,0,0-.15-.63.53.53,0,0,0-.45-.21.67.67,0,0,0-.33.07.76.76,0,0,0-.24.18,1,1,0,0,0-.13.2l-.43-.1.24-2.08h1.87Z"/></g></g></svg>