<svg xmlns="http://www.w3.org/2000/svg" viewBox="0 0 324.05 58.8"><defs><style>.cls-1{fill:#2b3336;fill-rule:evenodd;}</style></defs><g id="Layer_2" data-name="Layer 2"><g id="Layer_1-2" data-name="Layer 1"><path d="M19.19,12V.8h1.29V10.87H26V12Z"/><path d="M29.47,12.19a3.64,3.64,0,0,1-1-.13,2.6,2.6,0,0,1-.88-.39A2,2,0,0,1,27,11a2.56,2.56,0,0,1-.23-1.13,2.33,2.33,0,0,1,.43-1.44,2.81,2.81,0,0,1,1.22-.88,6.7,6.7,0,0,1,1.85-.44C31,7,31.75,7,32.59,7V5.86A2,2,0,0,0,32.4,5a1.23,1.23,0,0,0-.65-.57,3.3,3.3,0,0,0-1.32-.21,3.09,3.09,0,0,0-1.29.22,1.4,1.4,0,0,0-.66.54,1.53,1.53,0,0,0-.18.74V6H27.17a1,1,0,0,1,0-.17V5.6a2,2,0,0,1,.43-1.34,2.46,2.46,0,0,1,1.21-.78,5.48,5.48,0,0,1,1.79-.27,4.22,4.22,0,0,1,1.73.31,2.38,2.38,0,0,1,1.08.85,2.34,2.34,0,0,1,.37,1.34v4.93a.61.61,0,0,0,.12.43.49.49,0,0,0,.34.12h.68v.75a3.81,3.81,0,0,1-.51.17,2.6,2.6,0,0,1-.56.06,1.14,1.14,0,0,1-.68-.18,1,1,0,0,1-.36-.5,3.17,3.17,0,0,1-.14-.72h-.11a3.18,3.18,0,0,1-.79.76,4.11,4.11,0,0,1-1.06.49A4.33,4.33,0,0,1,29.47,12.19Zm.25-1a3.12,3.12,0,0,0,1-.18,3.19,3.19,0,0,0,.91-.49,2.5,2.5,0,0,0,.66-.76,1.94,1.94,0,0,0,.26-1V7.9a16.42,16.42,0,0,0-2.54.16,3.31,3.31,0,0,0-1.53.57A1.35,1.35,0,0,0,28,9.77a1.43,1.43,0,0,0,.22.81,1.29,1.29,0,0,0,.62.47A2.66,2.66,0,0,0,29.72,11.19Z"/><path d="M39,12.19a6.19,6.19,0,0,1-1.5-.17,3.1,3.1,0,0,1-1.08-.51,2.15,2.15,0,0,1-.66-.81,2.65,2.65,0,0,1-.22-1.09V9.47a.68.68,0,0,1,0-.14H36.7a.93.93,0,0,0,0,.14v.11a1.57,1.57,0,0,0,.31,1,1.58,1.58,0,0,0,.83.5,4.68,4.68,0,0,0,1.24.15A3.33,3.33,0,0,0,40.15,11a1.84,1.84,0,0,0,.77-.5,1.17,1.17,0,0,0,.28-.8,1.1,1.1,0,0,0-.37-.91,2.43,2.43,0,0,0-.95-.48L38.66,8l-1-.32a4.11,4.11,0,0,1-.92-.43,2,2,0,0,1-.66-.67,1.92,1.92,0,0,1-.25-1,2,2,0,0,1,.86-1.69,3,3,0,0,1,1-.46,5.19,5.19,0,0,1,1.37-.17,4.74,4.74,0,0,1,1.45.2,2.77,2.77,0,0,1,1,.53,2.08,2.08,0,0,1,.55.75,2.19,2.19,0,0,1,.18.87v.15a.76.76,0,0,0,0,.15H41V5.65A1.45,1.45,0,0,0,40.87,5a1.4,1.4,0,0,0-.61-.56A2.84,2.84,0,0,0,39,4.19a3.69,3.69,0,0,0-.87.09,2.07,2.07,0,0,0-.62.26,1,1,0,0,0-.38.4,1.16,1.16,0,0,0-.12.54.9.9,0,0,0,.3.73,2.5,2.5,0,0,0,.8.41l1,.33,1.13.34a6.13,6.13,0,0,1,1.07.44,2.23,2.23,0,0,1,.79.7,2,2,0,0,1,.29,1.13,2.47,2.47,0,0,1-.26,1.15,2.38,2.38,0,0,1-.72.82,3,3,0,0,1-1.09.49A5.27,5.27,0,0,1,39,12.19Z"/><path d="M47.52,12.19a4.18,4.18,0,0,1-2.08-.48,3.14,3.14,0,0,1-1.29-1.48,6.34,6.34,0,0,1-.44-2.53,6.36,6.36,0,0,1,.44-2.54A3.07,3.07,0,0,1,45.46,3.7a4.27,4.27,0,0,1,2.15-.49,3.85,3.85,0,0,1,2,.48,3,3,0,0,1,1.23,1.37,5.33,5.33,0,0,1,.41,2.2V8H44.94a4.58,4.58,0,0,0,.31,1.84,2,2,0,0,0,.89,1,2.92,2.92,0,0,0,1.42.32,3.53,3.53,0,0,0,1.09-.16,2.24,2.24,0,0,0,.77-.45,2,2,0,0,0,.46-.68A2.07,2.07,0,0,0,50,9.1h1.15A3,3,0,0,1,51,10.3a2.85,2.85,0,0,1-.69,1,3,3,0,0,1-1.13.66A4.87,4.87,0,0,1,47.52,12.19ZM44.94,7.08H50a4.09,4.09,0,0,0-.19-1.36,2.27,2.27,0,0,0-.51-.88,1.77,1.77,0,0,0-.78-.48,3.13,3.13,0,0,0-1-.15,2.92,2.92,0,0,0-1.37.3,2,2,0,0,0-.88.94A4.47,4.47,0,0,0,44.94,7.08Z"/><path d="M53,12V3.41H54l.09,1.44h.12a2.92,2.92,0,0,1,.34-.77,1.84,1.84,0,0,1,.62-.62,1.87,1.87,0,0,1,1-.25,2.72,2.72,0,0,1,.42,0l.29.08V4.41h-.5a2.12,2.12,0,0,0-1,.2,1.79,1.79,0,0,0-.67.58,2.63,2.63,0,0,0-.38.85,4.24,4.24,0,0,0-.13,1V12Z"/><path d="M61.71,12V.8h2l2.92,7.75c.06.18.13.38.19.59l.19.61c.06.19.11.35.14.48h.1c0-.15.1-.33.16-.54s.13-.41.19-.61.11-.38.17-.53L70.65.8h1.94V12H71.3V5c0-.27,0-.57,0-.92s0-.67,0-1,0-.58,0-.75h-.11c0,.16-.1.36-.17.58s-.15.45-.22.68-.13.44-.2.63l-3,7.75H66.6l-3-7.75c-.07-.17-.13-.36-.2-.57s-.13-.42-.19-.65-.13-.45-.2-.67h-.11c0,.22,0,.49,0,.82s0,.65,0,1,0,.62,0,.88v7Z"/><path d="M77.36,12.19a3.76,3.76,0,0,1-1-.13,2.47,2.47,0,0,1-.87-.39,1.87,1.87,0,0,1-.61-.72,2.42,2.42,0,0,1-.23-1.13,2.26,2.26,0,0,1,.43-1.44,2.78,2.78,0,0,1,1.21-.88,6.78,6.78,0,0,1,1.86-.44C78.86,7,79.63,7,80.47,7V5.86A1.86,1.86,0,0,0,80.28,5a1.19,1.19,0,0,0-.65-.57,3.28,3.28,0,0,0-1.31-.21A3,3,0,0,0,77,4.41a1.31,1.31,0,0,0-.66.54,1.43,1.43,0,0,0-.19.74V6H75.05a1,1,0,0,1,0-.17V5.6a2.07,2.07,0,0,1,.42-1.34,2.55,2.55,0,0,1,1.21-.78,5.48,5.48,0,0,1,1.79-.27,4.18,4.18,0,0,1,1.73.31,2.38,2.38,0,0,1,1.08.85,2.35,2.35,0,0,1,.38,1.34v4.93a.61.61,0,0,0,.12.43.45.45,0,0,0,.33.12h.69v.75a4,4,0,0,1-.52.17,2.53,2.53,0,0,1-.56.06A1.16,1.16,0,0,1,81,12a1,1,0,0,1-.35-.5,2.71,2.71,0,0,1-.14-.72h-.12a3,3,0,0,1-.79.76,4.2,4.2,0,0,1-1,.49A4.39,4.39,0,0,1,77.36,12.19Zm.24-1a3,3,0,0,0,1-.18,3.24,3.24,0,0,0,.92-.49,2.8,2.8,0,0,0,.66-.76,1.93,1.93,0,0,0,.25-1V7.9a16.42,16.42,0,0,0-2.54.16,3.31,3.31,0,0,0-1.53.57,1.37,1.37,0,0,0-.51,1.14,1.36,1.36,0,0,0,.22.81,1.26,1.26,0,0,0,.61.47A2.66,2.66,0,0,0,77.6,11.19Z"/><path d="M84,12V3.41H85l.1,1.44h.11a3.29,3.29,0,0,1,.34-.77,1.93,1.93,0,0,1,.62-.62,1.9,1.9,0,0,1,1-.25,2.72,2.72,0,0,1,.42,0l.3.08V4.41h-.51a2.12,2.12,0,0,0-1,.2,1.87,1.87,0,0,0-.67.58,2.63,2.63,0,0,0-.38.85,4.23,4.23,0,0,0-.12,1V12Z"/><path d="M89.18,12V.2h1.18V7.8l3.9-4.39h1.42l-3,3.34L95.84,12H94.47L91.94,7.62,90.36,9.23V12Z"/><path d="M97.34,1.65V.2h1.18V1.65Zm0,10.34V3.41h1.18V12Z"/><path d="M100.82,12V3.41h.93l.11,1.35H102a3.19,3.19,0,0,1,.81-.92,3.13,3.13,0,0,1,1-.48,4.11,4.11,0,0,1,1.13-.15,3.51,3.51,0,0,1,1.43.27,1.93,1.93,0,0,1,1,.88A3.3,3.3,0,0,1,107.64,6v6h-1.18V6.12a2.68,2.68,0,0,0-.14-.93,1.34,1.34,0,0,0-.41-.56,1.5,1.5,0,0,0-.61-.29,3.81,3.81,0,0,0-.78-.08,2.43,2.43,0,0,0-1.23.32,2.46,2.46,0,0,0-.94.9A2.7,2.7,0,0,0,102,6.92V12Z"/><path d="M111.31,15a2.47,2.47,0,0,1-1.15-.27,2,2,0,0,1-.84-.75,2,2,0,0,1-.31-1.12,2,2,0,0,1,.38-1.22,2.3,2.3,0,0,1,1-.75,1.39,1.39,0,0,1-.65-.54,1.45,1.45,0,0,1-.23-.78,1.32,1.32,0,0,1,.41-1,2.07,2.07,0,0,1,1-.53,2.64,2.64,0,0,1-.85-.91,2.29,2.29,0,0,1-.32-1.19,2.65,2.65,0,0,1,.37-1.41,2.56,2.56,0,0,1,1.14-1,4.57,4.57,0,0,1,1.9-.35,5.24,5.24,0,0,1,1,.09,3.44,3.44,0,0,1,.84.24,1.86,1.86,0,0,0,.88-.61,2,2,0,0,0,.41-.89h1.18a2.15,2.15,0,0,1-.82,1.6,1.91,1.91,0,0,1-.9.37,2.36,2.36,0,0,1,.62.88,2.84,2.84,0,0,1,.2,1.05,2.59,2.59,0,0,1-.37,1.38,2.47,2.47,0,0,1-1.11,1,4.35,4.35,0,0,1-1.9.36H111.8a1.55,1.55,0,0,0-.8.18.75.75,0,0,0,0,1.22,1.49,1.49,0,0,0,.82.21h3.36a2,2,0,0,1,1.54.64,2.24,2.24,0,0,1,.6,1.6,2.37,2.37,0,0,1-1.28,2.13,2.84,2.84,0,0,1-1.4.33Zm.26-.93h3.05a1.65,1.65,0,0,0,.77-.18,1.3,1.3,0,0,0,.54-.5,1.18,1.18,0,0,0,.21-.67,1.38,1.38,0,0,0-.36-1,1.19,1.19,0,0,0-.9-.37h-3.31a1.31,1.31,0,0,0-1,.4,1.27,1.27,0,0,0-.41,1,1.25,1.25,0,0,0,.4,1A1.35,1.35,0,0,0,111.57,14Zm1.55-6.31a2.53,2.53,0,0,0,1.69-.48,1.66,1.66,0,0,0,.54-1.3,1.65,1.65,0,0,0-.54-1.31,3.12,3.12,0,0,0-3.36,0,1.66,1.66,0,0,0-.55,1.31,1.74,1.74,0,0,0,.24.91,1.64,1.64,0,0,0,.75.64A3,3,0,0,0,113.12,7.72Z"/><path d="M117.51,12.79,121.26,0h1l-3.75,12.79Z"/><path d="M128.45,12.19a6,6,0,0,1-2.89-.64,4.1,4.1,0,0,1-1.8-1.92,7.66,7.66,0,0,1-.61-3.23,6,6,0,0,1,1.4-4.35A5.22,5.22,0,0,1,128.49.6a6.48,6.48,0,0,1,2.55.47,3.85,3.85,0,0,1,1.73,1.39,4,4,0,0,1,.63,2.34h-1.31a3.08,3.08,0,0,0-.44-1.74,2.62,2.62,0,0,0-1.25-1,4.86,4.86,0,0,0-1.93-.34,4.37,4.37,0,0,0-2.1.48A3.11,3.11,0,0,0,125,3.66a6,6,0,0,0-.49,2.62v.34A5.74,5.74,0,0,0,125,9.19a3.06,3.06,0,0,0,1.39,1.43,4.51,4.51,0,0,0,2.12.46,5,5,0,0,0,1.94-.34,2.62,2.62,0,0,0,1.25-1A3.08,3.08,0,0,0,132.13,8h1.27a4.07,4.07,0,0,1-.65,2.37A3.82,3.82,0,0,1,131,11.74,6.75,6.75,0,0,1,128.45,12.19Z"/><path d="M138,12.19a3,3,0,0,1-2-.62,2.7,2.7,0,0,1-.75-2.17v-6h1.18V9.28a2.44,2.44,0,0,0,.15.93,1.34,1.34,0,0,0,.4.57,1.6,1.6,0,0,0,.62.28,3,3,0,0,0,.75.08,2.45,2.45,0,0,0,2.17-1.23,2.71,2.71,0,0,0,.36-1.43V3.41h1.18V12h-.92L141,10.64h-.11a3.2,3.2,0,0,1-.81.92,3,3,0,0,1-1,.48A4.11,4.11,0,0,1,138,12.19Z"/><path d="M146.27,12.17a1.84,1.84,0,0,1-.94-.21,1.18,1.18,0,0,1-.49-.59,2.45,2.45,0,0,1-.13-.83V4.41h-1.16v-1h1.16L144.93,1h.95V3.41h1.65v1h-1.65v5.92A1.36,1.36,0,0,0,146,11c.08.14.27.21.55.21h1v.75a1.8,1.8,0,0,1-.39.12,3.12,3.12,0,0,1-.44.09Z"/><path d="M151,12.17a1.79,1.79,0,0,1-.94-.21,1.09,1.09,0,0,1-.49-.59,2.45,2.45,0,0,1-.14-.83V4.41h-1.16v-1h1.16L149.65,1h.94V3.41h1.65v1h-1.65v5.92a1.24,1.24,0,0,0,.13.65q.12.21.54.21h1v.75a1.7,1.7,0,0,1-.38.12l-.45.09Z"/><path d="M153.81,1.65V.2H155V1.65Zm0,10.34V3.41H155V12Z"/><path d="M157.28,12V3.41h.93l.12,1.35h.11a3.21,3.21,0,0,1,.82-.92,3.08,3.08,0,0,1,1-.48,4.24,4.24,0,0,1,1.14-.15,3.54,3.54,0,0,1,1.43.27,2,2,0,0,1,.95.88A3.31,3.31,0,0,1,164.1,6v6h-1.17V6.12a2.44,2.44,0,0,0-.15-.93,1.26,1.26,0,0,0-.41-.56,1.39,1.39,0,0,0-.61-.29,3.64,3.64,0,0,0-.77-.08,2.47,2.47,0,0,0-1.24.32,2.5,2.5,0,0,0-.93.9,2.7,2.7,0,0,0-.36,1.44V12Z"/><path d="M167.77,15a2.53,2.53,0,0,1-1.15-.27,2.18,2.18,0,0,1-.84-.75,2.07,2.07,0,0,1-.31-1.12,2,2,0,0,1,.39-1.22,2.24,2.24,0,0,1,1-.75,1.42,1.42,0,0,1-.66-.54,1.44,1.44,0,0,1-.22-.78,1.31,1.31,0,0,1,.4-1,2.15,2.15,0,0,1,1-.53,2.77,2.77,0,0,1-.86-.91,2.39,2.39,0,0,1-.32-1.19,2.66,2.66,0,0,1,.38-1.41,2.58,2.58,0,0,1,1.13-1,4.62,4.62,0,0,1,1.91-.35,5.31,5.31,0,0,1,1,.09,3.44,3.44,0,0,1,.84.24,1.91,1.91,0,0,0,.88-.61,2.13,2.13,0,0,0,.41-.89h1.17a2.13,2.13,0,0,1-.23.88,2.12,2.12,0,0,1-.58.72,1.91,1.91,0,0,1-.9.37,2.49,2.49,0,0,1,.62.88A2.84,2.84,0,0,1,173,5.94a2.68,2.68,0,0,1-.36,1.38,2.58,2.58,0,0,1-1.11,1,4.38,4.38,0,0,1-1.9.36h-1.36a1.61,1.61,0,0,0-.8.18.7.7,0,0,0-.31.63.67.67,0,0,0,.33.59,1.49,1.49,0,0,0,.82.21h3.36a2,2,0,0,1,1.54.64,2.23,2.23,0,0,1,.59,1.6,2.37,2.37,0,0,1-.34,1.25,2.42,2.42,0,0,1-.94.88,2.8,2.8,0,0,1-1.39.33ZM168,14h3.06a1.61,1.61,0,0,0,.76-.18,1.39,1.39,0,0,0,.55-.5,1.17,1.17,0,0,0,.2-.67,1.38,1.38,0,0,0-.36-1,1.17,1.17,0,0,0-.89-.37H168a1.32,1.32,0,0,0-1,.4,1.31,1.31,0,0,0-.41,1,1.28,1.28,0,0,0,.4,1A1.37,1.37,0,0,0,168,14Zm1.56-6.31a2.48,2.48,0,0,0,1.68-.48,1.64,1.64,0,0,0,.55-1.3,1.63,1.63,0,0,0-.55-1.31,3.11,3.11,0,0,0-3.35,0,1.63,1.63,0,0,0-.55,1.31,1.74,1.74,0,0,0,.24.91,1.62,1.62,0,0,0,.74.64A3,3,0,0,0,169.59,7.72Z"/><path d="M174,12.79,177.73,0h1L175,12.79Z"/><path d="M180.22,12V.8h8.57V1.91h-7.28V5.69h6.56V6.82h-6.56v4.06h7.38V12Z"/><path d="M192.85,12.17a1.84,1.84,0,0,1-.94-.21,1.13,1.13,0,0,1-.49-.59,2.45,2.45,0,0,1-.14-.83V4.41h-1.15v-1h1.15L191.51,1h1V3.41h1.65v1h-1.65v5.92a1.36,1.36,0,0,0,.12.65c.08.14.26.21.55.21h1v.75a1.8,1.8,0,0,1-.39.12,3,3,0,0,1-.45.09Z"/><path d="M198.8,12.19a3.94,3.94,0,0,1-2-.49,3,3,0,0,1-1.25-1.49,6.48,6.48,0,0,1-.42-2.51,6.49,6.49,0,0,1,.42-2.5,3.07,3.07,0,0,1,1.27-1.49,4,4,0,0,1,2.06-.5,4.31,4.31,0,0,1,1.53.24A2.55,2.55,0,0,1,202,5.19a4.93,4.93,0,0,1,.18,1.39H201a3.4,3.4,0,0,0-.22-1.35,1.5,1.5,0,0,0-.7-.77,2.69,2.69,0,0,0-1.26-.25,2.54,2.54,0,0,0-1.3.33,2.15,2.15,0,0,0-.88,1,4.84,4.84,0,0,0-.32,1.93v.4a5.19,5.19,0,0,0,.29,1.88,2.18,2.18,0,0,0,.86,1.07,2.56,2.56,0,0,0,1.35.34,2.52,2.52,0,0,0,1.29-.28,1.61,1.61,0,0,0,.7-.82A3.39,3.39,0,0,0,201,8.83h1.14a4.52,4.52,0,0,1-.18,1.29,2.71,2.71,0,0,1-.58,1.07,2.67,2.67,0,0,1-1,.73A4.11,4.11,0,0,1,198.8,12.19Z"/><path d="M203.91,12V.2h1.18V4.52h.11a3.28,3.28,0,0,1,.78-.76,3.25,3.25,0,0,1,.93-.42,4.74,4.74,0,0,1,1.1-.13,3.46,3.46,0,0,1,1.42.27,2,2,0,0,1,1,.88A3.31,3.31,0,0,1,210.73,6v6h-1.17V6.12a2.44,2.44,0,0,0-.15-.93,1.34,1.34,0,0,0-.41-.56,1.44,1.44,0,0,0-.61-.29,3.67,3.67,0,0,0-.78-.08,2.78,2.78,0,0,0-1.23.29,2.36,2.36,0,0,0-.94.89,2.92,2.92,0,0,0-.35,1.48V12Z"/><path d="M212.93,1.65V.2h1.18V1.65Zm0,10.34V3.41h1.18V12Z"/><path d="M216.41,12V3.41h.93l.11,1.35h.12a3.34,3.34,0,0,1,.81-.92,3.24,3.24,0,0,1,1-.48,4.11,4.11,0,0,1,1.13-.15,3.51,3.51,0,0,1,1.43.27,2,2,0,0,1,1,.88A3.42,3.42,0,0,1,223.23,6v6h-1.18V6.12a2.68,2.68,0,0,0-.14-.93,1.34,1.34,0,0,0-.41-.56,1.44,1.44,0,0,0-.61-.29,3.81,3.81,0,0,0-.78-.08,2.55,2.55,0,0,0-2.17,1.22,2.7,2.7,0,0,0-.36,1.44V12Z"/><path d="M226.9,15a2.5,2.5,0,0,1-1.15-.27,2,2,0,0,1-.84-.75,2,2,0,0,1-.31-1.12A2,2,0,0,1,225,11.6a2.3,2.3,0,0,1,1-.75,1.39,1.39,0,0,1-.65-.54,1.45,1.45,0,0,1-.23-.78,1.32,1.32,0,0,1,.41-1,2.07,2.07,0,0,1,1-.53,2.74,2.74,0,0,1-.85-.91,2.39,2.39,0,0,1-.32-1.19,2.65,2.65,0,0,1,.37-1.41,2.56,2.56,0,0,1,1.14-1,4.57,4.57,0,0,1,1.9-.35,5.24,5.24,0,0,1,1,.09,3.44,3.44,0,0,1,.84.24,1.86,1.86,0,0,0,.88-.61,2,2,0,0,0,.41-.89H233a2.15,2.15,0,0,1-.82,1.6,1.91,1.91,0,0,1-.9.37,2.36,2.36,0,0,1,.62.88,2.84,2.84,0,0,1,.2,1.05,2.59,2.59,0,0,1-.37,1.38,2.47,2.47,0,0,1-1.11,1,4.35,4.35,0,0,1-1.9.36h-1.35a1.55,1.55,0,0,0-.8.18.75.75,0,0,0,0,1.22,1.49,1.49,0,0,0,.82.21h3.36a2,2,0,0,1,1.54.64,2.24,2.24,0,0,1,.6,1.6,2.47,2.47,0,0,1-.34,1.25,2.42,2.42,0,0,1-.94.88,2.84,2.84,0,0,1-1.4.33Zm.26-.93h3.05a1.65,1.65,0,0,0,.77-.18,1.3,1.3,0,0,0,.54-.5,1.18,1.18,0,0,0,.21-.67,1.38,1.38,0,0,0-.36-1,1.19,1.19,0,0,0-.9-.37h-3.31a1.31,1.31,0,0,0-1,.4,1.27,1.27,0,0,0-.41,1,1.25,1.25,0,0,0,.4,1A1.37,1.37,0,0,0,227.16,14Zm1.55-6.31a2.53,2.53,0,0,0,1.69-.48,1.66,1.66,0,0,0,.54-1.3,1.65,1.65,0,0,0-.54-1.31,3.12,3.12,0,0,0-3.36,0,1.66,1.66,0,0,0-.55,1.31,1.66,1.66,0,0,0,.25.91,1.62,1.62,0,0,0,.74.64A3,3,0,0,0,228.71,7.72Z"/><path class="cls-1" d="M13,6.85A6.49,6.49,0,1,1,6.48.37,6.5,6.5,0,0,1,13,6.85Zm-3.87-2a.48.48,0,0,1,0,.68L5.86,8.82a.49.49,0,0,1-.69,0l-1.3-1.3a.49.49,0,0,1,.69-.69l1,1L7,6.34,8.41,4.89A.49.49,0,0,1,9.1,4.89Z"/><path d="M23.66,33a9.19,9.19,0,0,1-1.75-.16,4.54,4.54,0,0,1-1.5-.56,2.83,2.83,0,0,1-1-1A3.05,3.05,0,0,1,19,29.69v-.15a.92.92,0,0,1,0-.16h1.29a1.21,1.21,0,0,1,0,.18c0,.08,0,.14,0,.2a1.72,1.72,0,0,0,.44,1.2,2.55,2.55,0,0,0,1.17.71,5.5,5.5,0,0,0,1.68.24,7.24,7.24,0,0,0,.74,0,5.63,5.63,0,0,0,.88-.16,3.17,3.17,0,0,0,.82-.35,1.67,1.67,0,0,0,.61-.57,1.67,1.67,0,0,0-.09-1.86,2.35,2.35,0,0,0-.85-.65,7.81,7.81,0,0,0-1.22-.45c-.45-.13-.92-.25-1.4-.37s-.94-.26-1.4-.41a5.4,5.4,0,0,1-1.21-.57,2.72,2.72,0,0,1-.86-.86,2.36,2.36,0,0,1-.32-1.26,2.7,2.7,0,0,1,.26-1.19,2.62,2.62,0,0,1,.8-.93,4.22,4.22,0,0,1,1.37-.59,8.23,8.23,0,0,1,2-.21,6.84,6.84,0,0,1,1.61.18,4,4,0,0,1,1.33.56,2.69,2.69,0,0,1,.88,1,2.79,2.79,0,0,1,.32,1.4v.19H26.56v-.27a1.44,1.44,0,0,0-.37-1,2.61,2.61,0,0,0-1-.66,4.2,4.2,0,0,0-1.43-.23,6,6,0,0,0-1.79.22,2.12,2.12,0,0,0-1,.6,1.26,1.26,0,0,0-.35.86,1.33,1.33,0,0,0,.33.92,2.54,2.54,0,0,0,.86.6,9.57,9.57,0,0,0,1.22.43l1.39.36c.48.12.95.26,1.4.42a5.52,5.52,0,0,1,1.22.59,2.59,2.59,0,0,1,.87.87,2.47,2.47,0,0,1,.32,1.29,3,3,0,0,1-.58,1.89A3.37,3.37,0,0,1,26,32.68,7.32,7.32,0,0,1,23.66,33Z"/><path d="M30.59,32.82V21.63h2l2.92,7.75c.06.19.13.39.19.6s.13.41.19.6.11.35.14.48h.1c0-.15.1-.33.16-.54s.13-.41.19-.61.12-.38.17-.53l2.92-7.75h1.94V32.82H40.18v-7c0-.27,0-.58,0-.92s0-.68,0-1,0-.57,0-.75h-.11c0,.17-.1.36-.17.58l-.21.68c-.08.23-.14.44-.21.63l-3,7.75H35.48l-3-7.75c-.07-.17-.13-.36-.2-.57s-.13-.42-.19-.65-.13-.45-.2-.67H31.8c0,.22,0,.49,0,.82s0,.65,0,1,0,.62,0,.88v7Z"/><path d="M47.18,32.82V22.76h-4V21.63h9.25v1.13h-4V32.82Z"/><path d="M57.71,32.82V21.63h5.87a3.59,3.59,0,0,1,1.83.42,2.72,2.72,0,0,1,1.1,1.13,3.89,3.89,0,0,1-.18,3.65A3,3,0,0,1,64.88,28l2.39,4.82H65.85l-2.24-4.6H59v4.6ZM59,27.11h4.46A2,2,0,0,0,65,26.5a2.34,2.34,0,0,0,.58-1.69,2.39,2.39,0,0,0-.25-1.11,1.7,1.7,0,0,0-.72-.71,2.53,2.53,0,0,0-1.17-.25H59Z"/><path d="M72.46,33a4.18,4.18,0,0,1-2.08-.48,3.09,3.09,0,0,1-1.29-1.48,6.31,6.31,0,0,1-.44-2.53A6.28,6.28,0,0,1,69.09,26a3,3,0,0,1,1.31-1.47,4.38,4.38,0,0,1,2.15-.48,4,4,0,0,1,2,.47,3,3,0,0,1,1.23,1.37,5.33,5.33,0,0,1,.41,2.2v.75H69.88a4.67,4.67,0,0,0,.31,1.85,2,2,0,0,0,.89,1A2.81,2.81,0,0,0,72.5,32a3.25,3.25,0,0,0,1.09-.16,2.24,2.24,0,0,0,.77-.45,2,2,0,0,0,.46-.68,2.05,2.05,0,0,0,.16-.81h1.15a3.06,3.06,0,0,1-.24,1.2,2.91,2.91,0,0,1-.69,1,2.8,2.8,0,0,1-1.13.66A4.87,4.87,0,0,1,72.46,33Zm-2.58-5.11H75a4.13,4.13,0,0,0-.19-1.36,2.35,2.35,0,0,0-.51-.88,2,2,0,0,0-.78-.48,3.13,3.13,0,0,0-1-.15,2.92,2.92,0,0,0-1.37.3,2.11,2.11,0,0,0-.88.94A4.52,4.52,0,0,0,69.88,27.91Z"/><path d="M78.28,32.82V25.24H77v-1h1.27v-1.5a2.89,2.89,0,0,1,.14-.88,1.34,1.34,0,0,1,.51-.69A1.81,1.81,0,0,1,80,20.9h.43l.4.05.33.1v.83h-.86a.79.79,0,0,0-.63.22.83.83,0,0,0-.21.62v1.51h1.7v1h-1.7v7.58Zm4.06,0V21h1.18V32.82Z"/><path d="M89.21,33a4.3,4.3,0,0,1-2.11-.48,3,3,0,0,1-1.32-1.48,6.13,6.13,0,0,1-.45-2.53A6.1,6.1,0,0,1,85.78,26a3.07,3.07,0,0,1,1.32-1.47,4.92,4.92,0,0,1,4.24,0A3,3,0,0,1,92.64,26a6.1,6.1,0,0,1,.45,2.53,6.13,6.13,0,0,1-.45,2.53,3,3,0,0,1-1.3,1.48A4.3,4.3,0,0,1,89.21,33Zm0-1a2.8,2.8,0,0,0,1.45-.35,2.19,2.19,0,0,0,.9-1.07,4.76,4.76,0,0,0,.31-1.88v-.39a4.85,4.85,0,0,0-.31-1.89,2.23,2.23,0,0,0-.9-1.07,3.26,3.26,0,0,0-2.9,0,2.23,2.23,0,0,0-.9,1.07,4.85,4.85,0,0,0-.31,1.89v.39a4.76,4.76,0,0,0,.31,1.88,2.19,2.19,0,0,0,.9,1.07A2.8,2.8,0,0,0,89.21,32Z"/><path d="M96.47,32.82l-2.61-8.58h1.22L96.45,29c.07.22.14.47.21.74l.2.8c.07.26.12.46.15.61h.1c0-.2.1-.44.16-.72s.13-.55.19-.81l.15-.64,1.18-4.73h1.29l1.2,4.73c.06.2.12.43.18.7s.11.53.17.79.11.49.14.68h.1c0-.18.1-.4.17-.66l.21-.8c.08-.26.14-.49.19-.69l1.37-4.75h1.11l-2.59,8.58h-1.16L100,28.22l-.18-.72c-.07-.29-.14-.59-.2-.89s-.12-.57-.16-.8h-.1c0,.19-.09.43-.15.72s-.12.57-.19.86-.13.58-.2.85l-1.17,4.58Z"/><path d="M115.1,33a6.38,6.38,0,0,1-3-.64,4.34,4.34,0,0,1-1.92-1.94,6.87,6.87,0,0,1-.67-3.21,6.83,6.83,0,0,1,.67-3.22,4.32,4.32,0,0,1,1.92-1.93,6.38,6.38,0,0,1,3-.64,6.48,6.48,0,0,1,3,.64A4.35,4.35,0,0,1,120,24a7,7,0,0,1,.66,3.22,7,7,0,0,1-.66,3.21,4.37,4.37,0,0,1-1.91,1.94A6.48,6.48,0,0,1,115.1,33Zm0-1.11a5.65,5.65,0,0,0,1.75-.25,3.33,3.33,0,0,0,1.34-.81,3.71,3.71,0,0,0,.85-1.4,6.18,6.18,0,0,0,.3-2v-.34A6.22,6.22,0,0,0,119,25a3.63,3.63,0,0,0-.85-1.4,3.33,3.33,0,0,0-1.34-.81,5.65,5.65,0,0,0-1.75-.25,5.48,5.48,0,0,0-1.73.25,3.29,3.29,0,0,0-1.33.81,3.65,3.65,0,0,0-.86,1.4,6.22,6.22,0,0,0-.3,2.06v.34a6.18,6.18,0,0,0,.3,2,3.73,3.73,0,0,0,.86,1.4,3.29,3.29,0,0,0,1.33.81A5.48,5.48,0,0,0,115.1,31.91Z"/><path d="M125,32.82l-3.19-8.58h1.24l1.65,4.49c.08.22.17.48.27.79s.21.62.31.94l.27.83h.08l.27-.82c.1-.31.21-.63.32-.94l.28-.8,1.63-4.49h1.19l-3.18,8.58Z"/><path d="M134,33a4.18,4.18,0,0,1-2.08-.48,3,3,0,0,1-1.28-1.48,6.13,6.13,0,0,1-.45-2.53,6.1,6.1,0,0,1,.45-2.53,3,3,0,0,1,1.3-1.47,4.38,4.38,0,0,1,2.15-.48,4,4,0,0,1,2,.47,3,3,0,0,1,1.23,1.37,5.33,5.33,0,0,1,.41,2.2v.75h-6.31a4.67,4.67,0,0,0,.31,1.85,2,2,0,0,0,.89,1A2.83,2.83,0,0,0,134,32a3.23,3.23,0,0,0,1.08-.16,2.15,2.15,0,0,0,.77-.45,2,2,0,0,0,.46-.68,2.06,2.06,0,0,0,.17-.81h1.14a3.06,3.06,0,0,1-.24,1.2,3,3,0,0,1-.68,1,2.91,2.91,0,0,1-1.14.66A4.87,4.87,0,0,1,134,33Zm-2.58-5.11h5.09a4.13,4.13,0,0,0-.19-1.36,2.35,2.35,0,0,0-.51-.88,2,2,0,0,0-.78-.48,3.13,3.13,0,0,0-1-.15,2.92,2.92,0,0,0-1.37.3,2,2,0,0,0-.87.94A4.31,4.31,0,0,0,131.37,27.91Z"/><path d="M139.46,32.82V24.24h.93l.11,1.36h.12a3.2,3.2,0,0,1,.81-.92,3.05,3.05,0,0,1,1-.49,4.62,4.62,0,0,1,1.14-.14,3.46,3.46,0,0,1,1.42.27,2,2,0,0,1,1,.87,3.32,3.32,0,0,1,.34,1.65v6h-1.17V27A2.44,2.44,0,0,0,145,26a1.34,1.34,0,0,0-.41-.56,1.57,1.57,0,0,0-.61-.29,3.67,3.67,0,0,0-.78-.08,2.56,2.56,0,0,0-1.23.32,2.53,2.53,0,0,0-.94.9,2.75,2.75,0,0,0-.36,1.44v5.07Z"/><path d="M151.34,33a6.07,6.07,0,0,1-1.5-.17,3,3,0,0,1-1.09-.51,2.17,2.17,0,0,1-.65-.8,2.54,2.54,0,0,1-.22-1.1V30.3a.27.27,0,0,1,0-.13h1.15a.66.66,0,0,0,0,.13v.11a1.56,1.56,0,0,0,.31,1,1.53,1.53,0,0,0,.83.49,4.63,4.63,0,0,0,1.24.15,3.31,3.31,0,0,0,1.08-.17,1.7,1.7,0,0,0,.77-.5,1.28,1.28,0,0,0-.08-1.71,2.43,2.43,0,0,0-.95-.48L151,28.81c-.35-.1-.69-.2-1-.32a4.56,4.56,0,0,1-.92-.43,2,2,0,0,1-.66-.67,2.27,2.27,0,0,1,0-2,2.05,2.05,0,0,1,.63-.72,3,3,0,0,1,1-.47,5.26,5.26,0,0,1,1.37-.16,4.83,4.83,0,0,1,1.46.19,2.72,2.72,0,0,1,1,.53,2.3,2.3,0,0,1,.56.75,2.2,2.2,0,0,1,.18.88.71.71,0,0,1,0,.14.86.86,0,0,0,0,.15h-1.16v-.21a1.34,1.34,0,0,0-.77-1.23,2.89,2.89,0,0,0-1.28-.22,3.78,3.78,0,0,0-.88.09,1.9,1.9,0,0,0-.61.25,1,1,0,0,0-.38.4,1.19,1.19,0,0,0-.12.54.9.9,0,0,0,.3.73,2.18,2.18,0,0,0,.79.41l1.05.33,1.13.35a6,6,0,0,1,1.07.44,2.17,2.17,0,0,1,.78.69,2,2,0,0,1,.29,1.13,2.35,2.35,0,0,1-.26,1.15,2.28,2.28,0,0,1-.71.83,3.3,3.3,0,0,1-1.09.49A5.34,5.34,0,0,1,151.34,33Z"/><path class="cls-1" d="M13.35,27.69A6.48,6.48,0,1,1,6.87,21.2,6.48,6.48,0,0,1,13.35,27.69Zm-3.87-2a.49.49,0,0,1,0,.69L6.24,29.65a.49.49,0,0,1-.69,0l-1.29-1.3a.48.48,0,1,1,.68-.68l1,.95,1.45-1.45L8.8,25.72A.48.48,0,0,1,9.48,25.72Z"/><path d="M188.68,33a9,9,0,0,1-1.74-.16,4.54,4.54,0,0,1-1.5-.56,2.83,2.83,0,0,1-1-1,3.05,3.05,0,0,1-.38-1.58v-.15a1,1,0,0,1,0-.16h1.29a1.21,1.21,0,0,1,0,.18,1.48,1.48,0,0,0,0,.2,1.76,1.76,0,0,0,.43,1.2,2.53,2.53,0,0,0,1.18.71,5.39,5.39,0,0,0,1.67.24,7.1,7.1,0,0,0,.74,0,5.63,5.63,0,0,0,.88-.16,3.24,3.24,0,0,0,.83-.35,1.75,1.75,0,0,0,.61-.57,1.67,1.67,0,0,0-.09-1.86,2.39,2.39,0,0,0-.86-.65,7.32,7.32,0,0,0-1.21-.45l-1.4-.37c-.48-.12-.95-.26-1.4-.41a5.48,5.48,0,0,1-1.22-.57,2.79,2.79,0,0,1-.85-.86,2.36,2.36,0,0,1-.32-1.26,2.7,2.7,0,0,1,.26-1.19,2.52,2.52,0,0,1,.8-.93,4.22,4.22,0,0,1,1.37-.59,8.15,8.15,0,0,1,2-.21,6.93,6.93,0,0,1,1.62.18,3.93,3.93,0,0,1,1.32.56,2.72,2.72,0,0,1,.89,1,2.9,2.9,0,0,1,.32,1.4v.19h-1.27v-.27a1.45,1.45,0,0,0-.38-1,2.5,2.5,0,0,0-1-.66,4.25,4.25,0,0,0-1.43-.23,5.93,5.93,0,0,0-1.79.22,2.21,2.21,0,0,0-1.05.6,1.25,1.25,0,0,0-.34.86,1.33,1.33,0,0,0,.33.92,2.44,2.44,0,0,0,.86.6,9.05,9.05,0,0,0,1.22.43l1.39.36c.48.12.94.26,1.4.42a5.75,5.75,0,0,1,1.22.59,2.65,2.65,0,0,1,.86.87,2.38,2.38,0,0,1,.32,1.29,2.94,2.94,0,0,1-.58,1.89A3.28,3.28,0,0,1,191,32.68,7.28,7.28,0,0,1,188.68,33Z"/><path d="M198.59,33a4.18,4.18,0,0,1-2.08-.48,3.09,3.09,0,0,1-1.29-1.48,6.31,6.31,0,0,1-.44-2.53,6.28,6.28,0,0,1,.44-2.53,3,3,0,0,1,1.31-1.47,4.38,4.38,0,0,1,2.15-.48,4,4,0,0,1,2,.47,3,3,0,0,1,1.23,1.37,5.33,5.33,0,0,1,.41,2.2v.75H196a4.67,4.67,0,0,0,.31,1.85,2,2,0,0,0,.89,1,2.81,2.81,0,0,0,1.42.32,3.25,3.25,0,0,0,1.09-.16,2.15,2.15,0,0,0,.77-.45,2,2,0,0,0,.46-.68,2.06,2.06,0,0,0,.17-.81h1.14a3.06,3.06,0,0,1-.24,1.2,3,3,0,0,1-.68,1,2.91,2.91,0,0,1-1.14.66A4.87,4.87,0,0,1,198.59,33ZM196,27.91h5.09a4.13,4.13,0,0,0-.19-1.36,2.35,2.35,0,0,0-.51-.88,2,2,0,0,0-.78-.48,3.13,3.13,0,0,0-1-.15,2.92,2.92,0,0,0-1.37.3,2,2,0,0,0-.87.94A4.31,4.31,0,0,0,196,27.91Z"/><path d="M204.1,32.82V21h1.17V32.82Z"/><path d="M210.89,33a4.12,4.12,0,0,1-2.07-.48,3,3,0,0,1-1.29-1.48,6.14,6.14,0,0,1-.44-2.53,6.11,6.11,0,0,1,.44-2.53,3,3,0,0,1,1.3-1.47,4.42,4.42,0,0,1,2.16-.48,3.91,3.91,0,0,1,2,.47,3,3,0,0,1,1.23,1.37,5.18,5.18,0,0,1,.41,2.2v.75h-6.31a4.67,4.67,0,0,0,.31,1.85,2,2,0,0,0,.89,1,2.83,2.83,0,0,0,1.43.32,3.23,3.23,0,0,0,1.08-.16,2.15,2.15,0,0,0,.77-.45,2,2,0,0,0,.46-.68,2.06,2.06,0,0,0,.17-.81h1.14a3.06,3.06,0,0,1-.24,1.2,2.88,2.88,0,0,1-1.82,1.64A4.83,4.83,0,0,1,210.89,33Zm-2.58-5.11h5.09a4.13,4.13,0,0,0-.19-1.36,2.22,2.22,0,0,0-.51-.88,2,2,0,0,0-.78-.48,3.13,3.13,0,0,0-1-.15,2.92,2.92,0,0,0-1.37.3,2,2,0,0,0-.87.94A4.51,4.51,0,0,0,208.31,27.91Z"/><path d="M219.53,33a3.84,3.84,0,0,1-2-.49,3.06,3.06,0,0,1-1.25-1.48,6.53,6.53,0,0,1-.42-2.52,6.41,6.41,0,0,1,.42-2.49,3.09,3.09,0,0,1,1.27-1.5,4,4,0,0,1,2.06-.49,4.56,4.56,0,0,1,1.53.23,2.65,2.65,0,0,1,1,.68,2.61,2.61,0,0,1,.58,1.06,5,5,0,0,1,.18,1.39h-1.16a3.4,3.4,0,0,0-.22-1.35,1.45,1.45,0,0,0-.7-.76,2.68,2.68,0,0,0-1.26-.26,2.54,2.54,0,0,0-1.3.33,2.15,2.15,0,0,0-.88,1,4.89,4.89,0,0,0-.32,1.94v.39a5.19,5.19,0,0,0,.29,1.88,2.18,2.18,0,0,0,.86,1.07,2.89,2.89,0,0,0,2.64.06,1.61,1.61,0,0,0,.7-.82,3.39,3.39,0,0,0,.21-1.26h1.14a4.59,4.59,0,0,1-.18,1.3,2.86,2.86,0,0,1-.58,1.07,2.76,2.76,0,0,1-1,.72A4.11,4.11,0,0,1,219.53,33Z"/><path d="M226.53,33a1.78,1.78,0,0,1-.93-.21,1.06,1.06,0,0,1-.49-.59,2.19,2.19,0,0,1-.14-.83V25.24h-1.16v-1H225l.23-2.38h.94v2.38h1.65v1h-1.65v5.92a1.36,1.36,0,0,0,.12.65.61.61,0,0,0,.55.22h1v.75l-.38.12A3.54,3.54,0,0,1,227,33,3.24,3.24,0,0,1,226.53,33Z"/><path d="M229.36,22.48V21h1.17v1.45Zm0,10.34V24.24h1.17v8.58Z"/><path d="M235.13,32.82,232,24.24h1.24l1.65,4.49c.07.22.16.48.27.79s.2.62.31.94l.27.83h.08c.07-.24.16-.51.27-.82l.31-.94c.11-.32.21-.58.28-.8l1.63-4.49h1.19l-3.18,8.58Z"/><path d="M244.07,33a4.17,4.17,0,0,1-2.07-.48,3,3,0,0,1-1.29-1.48,6.31,6.31,0,0,1-.44-2.53,6.28,6.28,0,0,1,.44-2.53A3,3,0,0,1,242,24.53a4.36,4.36,0,0,1,2.15-.48,4,4,0,0,1,2,.47,3,3,0,0,1,1.22,1.37,5.17,5.17,0,0,1,.42,2.2v.75h-6.32a4.85,4.85,0,0,0,.31,1.85,2.08,2.08,0,0,0,.89,1,2.88,2.88,0,0,0,1.43.32,3.29,3.29,0,0,0,1.09-.16,2.1,2.1,0,0,0,.76-.45,2,2,0,0,0,.47-.68,2.05,2.05,0,0,0,.16-.81h1.14a3.24,3.24,0,0,1-.23,1.2,2.95,2.95,0,0,1-1.82,1.64A4.94,4.94,0,0,1,244.07,33Zm-2.58-5.11h5.1a4.41,4.41,0,0,0-.19-1.36,2.36,2.36,0,0,0-.52-.88,1.86,1.86,0,0,0-.77-.48,3.2,3.2,0,0,0-1-.15,2.94,2.94,0,0,0-1.37.3,2,2,0,0,0-.87.94A4.73,4.73,0,0,0,241.49,27.91Z"/><path d="M257.5,33a9.19,9.19,0,0,1-1.75-.16,4.71,4.71,0,0,1-1.5-.56,2.9,2.9,0,0,1-1-1,3.05,3.05,0,0,1-.37-1.58v-.15a.47.47,0,0,1,0-.16h1.28v.18a1.48,1.48,0,0,0,0,.2,1.72,1.72,0,0,0,.43,1.2,2.53,2.53,0,0,0,1.18.71,5.39,5.39,0,0,0,1.67.24,7.24,7.24,0,0,0,.74,0,5.63,5.63,0,0,0,.88-.16,3.39,3.39,0,0,0,.83-.35,1.75,1.75,0,0,0,.61-.57,1.56,1.56,0,0,0,.23-.87,1.53,1.53,0,0,0-.32-1,2.48,2.48,0,0,0-.86-.65,7.45,7.45,0,0,0-1.22-.45c-.45-.13-.92-.25-1.4-.37s-.94-.26-1.39-.41a5.48,5.48,0,0,1-1.22-.57,2.82,2.82,0,0,1-.86-.86,2.35,2.35,0,0,1-.31-1.26,2.57,2.57,0,0,1,.26-1.19,2.43,2.43,0,0,1,.8-.93,4.13,4.13,0,0,1,1.37-.59,8.09,8.09,0,0,1,2-.21,6.93,6.93,0,0,1,1.62.18,3.93,3.93,0,0,1,1.32.56,2.72,2.72,0,0,1,.89,1,2.9,2.9,0,0,1,.32,1.4v.19H260.4v-.27a1.44,1.44,0,0,0-.37-1,2.54,2.54,0,0,0-1-.66,4.15,4.15,0,0,0-1.42-.23,6,6,0,0,0-1.8.22,2.22,2.22,0,0,0-1,.6,1.25,1.25,0,0,0-.34.86,1.32,1.32,0,0,0,.32.92,2.58,2.58,0,0,0,.87.6,9.4,9.4,0,0,0,1.21.43l1.4.36c.48.12.94.26,1.39.42a5.83,5.83,0,0,1,1.23.59,2.65,2.65,0,0,1,.86.87,2.47,2.47,0,0,1,.32,1.29,2.94,2.94,0,0,1-.58,1.89,3.37,3.37,0,0,1-1.59,1.08A7.32,7.32,0,0,1,257.5,33Z"/><path d="M267.48,33a4.33,4.33,0,0,1-2.11-.48,3,3,0,0,1-1.32-1.48,6.13,6.13,0,0,1-.45-2.53,6.1,6.1,0,0,1,.45-2.53,3.07,3.07,0,0,1,1.32-1.47,4.92,4.92,0,0,1,4.24,0A3.1,3.1,0,0,1,270.92,26a6.1,6.1,0,0,1,.45,2.53,6.13,6.13,0,0,1-.45,2.53,3.08,3.08,0,0,1-1.31,1.48A4.3,4.3,0,0,1,267.48,33Zm0-1a2.87,2.87,0,0,0,1.46-.35,2.12,2.12,0,0,0,.89-1.07,4.76,4.76,0,0,0,.31-1.88v-.39a4.85,4.85,0,0,0-.31-1.89,2.16,2.16,0,0,0-.89-1.07,3,3,0,0,0-1.46-.34,2.93,2.93,0,0,0-1.45.34,2.23,2.23,0,0,0-.9,1.07,5,5,0,0,0-.31,1.89v.39a5,5,0,0,0,.31,1.88,2.19,2.19,0,0,0,.9,1.07A2.83,2.83,0,0,0,267.48,32Z"/><path d="M273.16,32.82V21h1.18V32.82Z"/><path d="M279.54,33a3.46,3.46,0,0,1-1.83-.47,2.93,2.93,0,0,1-1.16-1.48,7.11,7.11,0,0,1-.4-2.62,6.55,6.55,0,0,1,.4-2.49,3.14,3.14,0,0,1,1.17-1.44,3.36,3.36,0,0,1,1.79-.47,3.85,3.85,0,0,1,1,.13,2.45,2.45,0,0,1,.88.41,2.83,2.83,0,0,1,.69.76h.1V21h1.17V32.82h-.91l-.13-1.25h-.12a2.88,2.88,0,0,1-1.16,1.09A3.38,3.38,0,0,1,279.54,33Zm.2-1a2.39,2.39,0,0,0,1.42-.39,2.22,2.22,0,0,0,.8-1.12,5.52,5.52,0,0,0,.26-1.8v-.29a5.57,5.57,0,0,0-.21-1.67,2.49,2.49,0,0,0-.55-1,2.08,2.08,0,0,0-.78-.5,2.82,2.82,0,0,0-.86-.14,2.56,2.56,0,0,0-1.36.34,2,2,0,0,0-.82,1.05,5.46,5.46,0,0,0-.27,1.88v.41a5.22,5.22,0,0,0,.29,1.91,2,2,0,0,0,.83,1A2.39,2.39,0,0,0,279.74,32Z"/><path d="M289,33a4.17,4.17,0,0,1-2.07-.48,3.09,3.09,0,0,1-1.29-1.48,6.31,6.31,0,0,1-.44-2.53,6.28,6.28,0,0,1,.44-2.53A3,3,0,0,1,287,24.53a4.36,4.36,0,0,1,2.15-.48,4,4,0,0,1,2,.47,3,3,0,0,1,1.22,1.37,5.17,5.17,0,0,1,.42,2.2v.75h-6.31a4.67,4.67,0,0,0,.31,1.85,2,2,0,0,0,.89,1,2.81,2.81,0,0,0,1.42.32,3.25,3.25,0,0,0,1.09-.16,2.1,2.1,0,0,0,.76-.45,1.89,1.89,0,0,0,.47-.68,2.05,2.05,0,0,0,.16-.81h1.14a3.05,3.05,0,0,1-.23,1.2,2.91,2.91,0,0,1-.69,1,2.87,2.87,0,0,1-1.13.66A4.94,4.94,0,0,1,289,33Zm-2.57-5.11h5.09a4.41,4.41,0,0,0-.19-1.36,2.36,2.36,0,0,0-.52-.88,1.86,1.86,0,0,0-.77-.48,3.13,3.13,0,0,0-1-.15,2.89,2.89,0,0,0-1.37.3,2.06,2.06,0,0,0-.88.94A4.52,4.52,0,0,0,286.43,27.91Z"/><path d="M294.52,32.82V24.24h.94l.1,1.44h.12a3.07,3.07,0,0,1,.34-.77,1.93,1.93,0,0,1,.62-.62,1.86,1.86,0,0,1,1-.24,1.91,1.91,0,0,1,.43,0l.29.07v1.08h-.5a2.25,2.25,0,0,0-1,.2,1.79,1.79,0,0,0-.67.58,2.48,2.48,0,0,0-.38.86,3.66,3.66,0,0,0-.13,1v4.94Z"/><path class="cls-1" d="M178.38,27.69a6.49,6.49,0,1,1-6.49-6.49A6.48,6.48,0,0,1,178.38,27.69Zm-3.87-2a.49.49,0,0,1,0,.69l-3.24,3.24a.49.49,0,0,1-.69,0l-1.3-1.3a.48.48,0,0,1,0-.68.49.49,0,0,1,.69,0l.95.95,1.45-1.45,1.45-1.45A.49.49,0,0,1,174.51,25.72Z"/><path d="M24.66,54.66A6.05,6.05,0,0,1,21.77,54,4.17,4.17,0,0,1,20,52.1a7.48,7.48,0,0,1-.61-3.23,6.06,6.06,0,0,1,1.4-4.35,5.25,5.25,0,0,1,3.93-1.44,6.57,6.57,0,0,1,2.56.46A3.91,3.91,0,0,1,29,44.93a4.08,4.08,0,0,1,.63,2.34H28.3a3.21,3.21,0,0,0-.44-1.74,2.68,2.68,0,0,0-1.25-1,5.09,5.09,0,0,0-1.93-.33,4.53,4.53,0,0,0-2.11.47,3.21,3.21,0,0,0-1.38,1.48,6,6,0,0,0-.49,2.62v.34a5.7,5.7,0,0,0,.49,2.56,3.16,3.16,0,0,0,1.38,1.44,4.7,4.7,0,0,0,2.12.45,5.2,5.2,0,0,0,1.95-.33,2.62,2.62,0,0,0,1.25-1,3.08,3.08,0,0,0,.44-1.74h1.28A4.07,4.07,0,0,1,29,52.84a3.74,3.74,0,0,1-1.75,1.37A6.75,6.75,0,0,1,24.66,54.66Z"/><path d="M35,54.66a4.37,4.37,0,0,1-2.12-.48,3.07,3.07,0,0,1-1.32-1.47,7.37,7.37,0,0,1,0-5.07,3.07,3.07,0,0,1,1.32-1.47,4.94,4.94,0,0,1,4.25,0,3.08,3.08,0,0,1,1.3,1.47,7.37,7.37,0,0,1,0,5.07,3.08,3.08,0,0,1-1.3,1.47A4.36,4.36,0,0,1,35,54.66Zm0-1a2.93,2.93,0,0,0,1.45-.34,2.23,2.23,0,0,0,.9-1.07,5,5,0,0,0,.31-1.89V50a5,5,0,0,0-.31-1.88,2.19,2.19,0,0,0-.9-1.07A2.83,2.83,0,0,0,35,46.69,2.87,2.87,0,0,0,33.5,47a2.12,2.12,0,0,0-.89,1.07A4.76,4.76,0,0,0,32.3,50v.39a4.85,4.85,0,0,0,.31,1.89,2.16,2.16,0,0,0,.89,1.07A3,3,0,0,0,35,53.67Z"/><path d="M40.63,54.47V45.89h.93l.12,1.35h.11a3.09,3.09,0,0,1,.82-.92,2.85,2.85,0,0,1,1-.48,4.11,4.11,0,0,1,1.13-.15,3.54,3.54,0,0,1,1.43.27,2,2,0,0,1,1,.87,3.32,3.32,0,0,1,.34,1.65v6H46.28V48.59a2.44,2.44,0,0,0-.15-.93,1.32,1.32,0,0,0-.41-.56,1.37,1.37,0,0,0-.61-.28,3.07,3.07,0,0,0-.77-.09A2.53,2.53,0,0,0,42.17,48a2.69,2.69,0,0,0-.36,1.43v5.08Z"/><path d="M50,54.47V46.88H48.69v-1H50V44.38a2.66,2.66,0,0,1,.14-.88,1.34,1.34,0,0,1,.51-.69,1.79,1.79,0,0,1,1.06-.27l.42,0a2.3,2.3,0,0,1,.4,0,1.53,1.53,0,0,1,.34.09v.84H52a.82.82,0,0,0-.62.21.85.85,0,0,0-.21.62v1.52h1.7v1h-1.7v7.59Z"/><path d="M57.34,54.66a4.3,4.3,0,0,1-2.11-.48,3.07,3.07,0,0,1-1.32-1.47,7.37,7.37,0,0,1,0-5.07,3.07,3.07,0,0,1,1.32-1.47,4.92,4.92,0,0,1,4.24,0,3.1,3.1,0,0,1,1.31,1.47,7.52,7.52,0,0,1,0,5.07,3.1,3.1,0,0,1-1.31,1.47A4.3,4.3,0,0,1,57.34,54.66Zm0-1a2.91,2.91,0,0,0,1.45-.34,2.23,2.23,0,0,0,.9-1.07A4.85,4.85,0,0,0,60,50.37V50a4.76,4.76,0,0,0-.31-1.88,2.19,2.19,0,0,0-.9-1.07,3.26,3.26,0,0,0-2.9,0A2.19,2.19,0,0,0,55,48.1,5,5,0,0,0,54.68,50v.39A5,5,0,0,0,55,52.26a2.23,2.23,0,0,0,.9,1.07A2.91,2.91,0,0,0,57.34,53.67Z"/><path d="M63,54.47V45.89H64l.1,1.43h.12a3.07,3.07,0,0,1,.34-.77,1.93,1.93,0,0,1,.62-.62,1.86,1.86,0,0,1,1-.24,1.91,1.91,0,0,1,.43,0l.29.07v1.08h-.5a2.25,2.25,0,0,0-1,.2,1.79,1.79,0,0,0-.67.58,2.68,2.68,0,0,0-.38.86,3.71,3.71,0,0,0-.13,1v4.95Z"/><path d="M68.19,54.47V45.89h.93l.12,1.35h.11a3.46,3.46,0,0,1,.78-.92,2.75,2.75,0,0,1,.93-.48,3.81,3.81,0,0,1,1.08-.15,3,3,0,0,1,1.48.35,1.9,1.9,0,0,1,.88,1.2h.1a3.52,3.52,0,0,1,.77-.91,2.91,2.91,0,0,1,.94-.49,3.81,3.81,0,0,1,1.08-.15,3.4,3.4,0,0,1,1.36.26,1.93,1.93,0,0,1,.92.87A3.39,3.39,0,0,1,80,48.45v6H78.83V48.58a2.66,2.66,0,0,0-.14-.92,1.27,1.27,0,0,0-.38-.57,1.5,1.5,0,0,0-.57-.27,2.71,2.71,0,0,0-.71-.09,2.24,2.24,0,0,0-1.15.32A2.44,2.44,0,0,0,75,48a2.88,2.88,0,0,0-.34,1.43v5.08H73.51V48.58a2.68,2.68,0,0,0-.13-.92,1.2,1.2,0,0,0-.38-.57,1.39,1.39,0,0,0-.56-.27,2.48,2.48,0,0,0-.68-.09,2.28,2.28,0,0,0-1.16.32,2.43,2.43,0,0,0-.89.91,2.78,2.78,0,0,0-.34,1.43v5.08Z"/><path d="M84.34,54.66a4.13,4.13,0,0,1-1-.12,2.6,2.6,0,0,1-.88-.39,1.91,1.91,0,0,1-.61-.73,2.51,2.51,0,0,1-.23-1.12,2.32,2.32,0,0,1,.44-1.45A2.8,2.8,0,0,1,83.28,50a7.09,7.09,0,0,1,1.85-.43,21.18,21.18,0,0,1,2.33-.11v-1.1a1.89,1.89,0,0,0-.19-.89,1.28,1.28,0,0,0-.65-.57,3.5,3.5,0,0,0-1.31-.2,3.21,3.21,0,0,0-1.29.21,1.28,1.28,0,0,0-.66.55,1.43,1.43,0,0,0-.19.74v.26H82a.86.86,0,0,1,0-.16v-.2a2.08,2.08,0,0,1,.42-1.34A2.65,2.65,0,0,1,83.66,46a5.77,5.77,0,0,1,1.79-.26,4.4,4.4,0,0,1,1.73.3,2.4,2.4,0,0,1,1.08.86,2.32,2.32,0,0,1,.37,1.34v4.92a.59.59,0,0,0,.13.44.45.45,0,0,0,.33.12h.69v.75a4.48,4.48,0,0,1-.52.16,2.1,2.1,0,0,1-.56.07,1.16,1.16,0,0,1-.68-.18,1,1,0,0,1-.36-.51,3.83,3.83,0,0,1-.14-.72h-.11a2.86,2.86,0,0,1-.79.76,3.88,3.88,0,0,1-1.05.49A4.07,4.07,0,0,1,84.34,54.66Zm.25-1a3.08,3.08,0,0,0,1-.18,3.41,3.41,0,0,0,.92-.5,2.54,2.54,0,0,0,.66-.76,1.91,1.91,0,0,0,.25-1v-.88a16.27,16.27,0,0,0-2.54.17,3.1,3.1,0,0,0-1.53.57,1.38,1.38,0,0,0-.52,1.14,1.48,1.48,0,0,0,.22.81,1.32,1.32,0,0,0,.62.46A2.42,2.42,0,0,0,84.59,53.67Z"/><path d="M91,54.47V42.67h1.17v11.8Z"/><path d="M103,54.66a6.1,6.1,0,0,1-2.9-.63,4.1,4.1,0,0,1-1.79-1.93,7.47,7.47,0,0,1-.62-3.23,6,6,0,0,1,1.41-4.35A5.22,5.22,0,0,1,103,43.08a6.48,6.48,0,0,1,2.55.46,3.86,3.86,0,0,1,1.73,1.39,4.08,4.08,0,0,1,.63,2.34h-1.3a3.12,3.12,0,0,0-.45-1.74,2.66,2.66,0,0,0-1.24-1,5.15,5.15,0,0,0-1.94-.33,4.52,4.52,0,0,0-2.1.47,3.23,3.23,0,0,0-1.39,1.48A6.09,6.09,0,0,0,99,48.76v.34a5.84,5.84,0,0,0,.49,2.56,3.18,3.18,0,0,0,1.39,1.44,4.67,4.67,0,0,0,2.12.45,5.15,5.15,0,0,0,1.94-.33,2.7,2.7,0,0,0,1.26-1,3.16,3.16,0,0,0,.44-1.74H108a4.07,4.07,0,0,1-.64,2.37,3.76,3.76,0,0,1-1.76,1.37A6.73,6.73,0,0,1,103,54.66Z"/><path d="M113.3,54.66a4.33,4.33,0,0,1-2.11-.48,3.07,3.07,0,0,1-1.32-1.47,7.37,7.37,0,0,1,0-5.07,3.07,3.07,0,0,1,1.32-1.47,4.92,4.92,0,0,1,4.24,0,3.1,3.1,0,0,1,1.31,1.47,7.37,7.37,0,0,1,0,5.07,3.1,3.1,0,0,1-1.31,1.47A4.3,4.3,0,0,1,113.3,54.66Zm0-1a2.91,2.91,0,0,0,1.45-.34,2.13,2.13,0,0,0,.9-1.07,4.85,4.85,0,0,0,.31-1.89V50a4.76,4.76,0,0,0-.31-1.88,2.09,2.09,0,0,0-.9-1.07,3.26,3.26,0,0,0-2.9,0,2.19,2.19,0,0,0-.9,1.07,5,5,0,0,0-.31,1.88v.39a5,5,0,0,0,.31,1.89,2.23,2.23,0,0,0,.9,1.07A2.93,2.93,0,0,0,113.3,53.67Z"/><path d="M121.12,54.66a4.21,4.21,0,0,1-1-.12,2.55,2.55,0,0,1-.87-.39,1.83,1.83,0,0,1-.61-.73,2.51,2.51,0,0,1-.23-1.12,2.31,2.31,0,0,1,.43-1.45,2.9,2.9,0,0,1,1.22-.88,7.09,7.09,0,0,1,1.85-.43,21,21,0,0,1,2.32-.11v-1.1a2,2,0,0,0-.18-.89,1.34,1.34,0,0,0-.66-.57,3.46,3.46,0,0,0-1.31-.2,3.27,3.27,0,0,0-1.29.21,1.32,1.32,0,0,0-.66.55,1.43,1.43,0,0,0-.19.74v.26h-1.12a.88.88,0,0,1,0-.16v-.2a2.08,2.08,0,0,1,.42-1.34,2.71,2.71,0,0,1,1.21-.78,5.79,5.79,0,0,1,1.8-.26A4.43,4.43,0,0,1,124,46a2.43,2.43,0,0,1,1.07.86,2.32,2.32,0,0,1,.38,1.34v4.92a.64.64,0,0,0,.12.44.45.45,0,0,0,.34.12h.68v.75a3.8,3.8,0,0,1-.51.16,2.12,2.12,0,0,1-.57.07,1.11,1.11,0,0,1-.67-.18,1,1,0,0,1-.36-.51,3.17,3.17,0,0,1-.14-.72h-.12a2.73,2.73,0,0,1-.79.76,3.88,3.88,0,0,1-1,.49A4,4,0,0,1,121.12,54.66Zm.24-1a3.13,3.13,0,0,0,1-.18,3.35,3.35,0,0,0,.91-.5,2.54,2.54,0,0,0,.66-.76,1.91,1.91,0,0,0,.25-1v-.88a16.13,16.13,0,0,0-2.53.17,3.19,3.19,0,0,0-1.54.57,1.37,1.37,0,0,0-.51,1.14,1.4,1.4,0,0,0,.22.81,1.29,1.29,0,0,0,.61.46A2.46,2.46,0,0,0,121.36,53.67Z"/><path d="M129.67,54.65a1.7,1.7,0,0,1-.94-.22,1.07,1.07,0,0,1-.49-.58,2.45,2.45,0,0,1-.14-.83V46.88h-1.16v-1h1.16l.23-2.39h.94v2.39h1.65v1h-1.65V52.8a1.28,1.28,0,0,0,.13.66q.12.21.54.21h1v.75l-.38.12a2.36,2.36,0,0,1-.45.08Z"/><path d="M132.49,44.12V42.67h1.17v1.45Zm0,10.35V45.89h1.17v8.58Z"/><path d="M136,54.47V45.89h.93l.12,1.35h.11a3.09,3.09,0,0,1,.82-.92,2.89,2.89,0,0,1,1-.48,4.24,4.24,0,0,1,1.14-.15,3.54,3.54,0,0,1,1.43.27,2,2,0,0,1,.95.87,3.32,3.32,0,0,1,.34,1.65v6h-1.17V48.59a2.44,2.44,0,0,0-.15-.93,1.32,1.32,0,0,0-.41-.56,1.37,1.37,0,0,0-.61-.28,3.07,3.07,0,0,0-.77-.09A2.53,2.53,0,0,0,137.5,48a2.69,2.69,0,0,0-.36,1.43v5.08Z"/><path d="M146.45,57.44a2.53,2.53,0,0,1-1.15-.27,2.18,2.18,0,0,1-.84-.75,2.09,2.09,0,0,1-.31-1.12,1.92,1.92,0,0,1,.39-1.22,2.24,2.24,0,0,1,1-.75,1.34,1.34,0,0,1-.65-.54,1.38,1.38,0,0,1-.23-.79,1.26,1.26,0,0,1,.41-1,2,2,0,0,1,1-.53,2.77,2.77,0,0,1-.86-.91,2.39,2.39,0,0,1-.31-1.2,2.65,2.65,0,0,1,.37-1.41,2.57,2.57,0,0,1,1.13-1,4.62,4.62,0,0,1,1.91-.35,6.33,6.33,0,0,1,1,.08,3.94,3.94,0,0,1,.84.25,2,2,0,0,0,.88-.62,2.09,2.09,0,0,0,.41-.88h1.17a2,2,0,0,1-.23.88,2,2,0,0,1-.58.71,1.93,1.93,0,0,1-.9.38,2.4,2.4,0,0,1,.62.88,2.78,2.78,0,0,1,.19,1,2.63,2.63,0,0,1-.36,1.38,2.58,2.58,0,0,1-1.11,1,4.38,4.38,0,0,1-1.9.36h-1.36a1.6,1.6,0,0,0-.8.19.69.69,0,0,0-.31.63.68.68,0,0,0,.33.59,1.49,1.49,0,0,0,.82.21h3.36a2,2,0,0,1,1.54.63,2.25,2.25,0,0,1,.59,1.6,2.32,2.32,0,0,1-.34,1.25,2.44,2.44,0,0,1-.94.89,2.8,2.8,0,0,1-1.39.33Zm.26-.93h3.06a1.61,1.61,0,0,0,.76-.18,1.47,1.47,0,0,0,.55-.5,1.2,1.2,0,0,0,.2-.68,1.37,1.37,0,0,0-.36-1,1.16,1.16,0,0,0-.89-.38h-3.32a1.36,1.36,0,0,0-1,.4,1.32,1.32,0,0,0-.41,1,1.29,1.29,0,0,0,.4,1A1.41,1.41,0,0,0,146.71,56.51Zm1.56-6.32a2.48,2.48,0,0,0,1.68-.48,1.62,1.62,0,0,0,.55-1.3A1.64,1.64,0,0,0,150,47.1a3.16,3.16,0,0,0-3.35,0,1.64,1.64,0,0,0-.55,1.31,1.78,1.78,0,0,0,.24.92A1.6,1.6,0,0,0,147,50,2.89,2.89,0,0,0,148.27,50.19Z"/><path d="M156.65,54.66a5.68,5.68,0,0,1-1.5-.17,3,3,0,0,1-1.09-.5,2.4,2.4,0,0,1-.65-.81,2.68,2.68,0,0,1-.22-1.09V52a.59.59,0,0,1,0-.14h1.16a.78.78,0,0,0,0,.14v.1a1.52,1.52,0,0,0,.31,1,1.65,1.65,0,0,0,.83.5,4.65,4.65,0,0,0,1.24.14,3.12,3.12,0,0,0,1.09-.17,1.79,1.79,0,0,0,.76-.49,1.19,1.19,0,0,0,.29-.8,1.12,1.12,0,0,0-.37-.92,2.73,2.73,0,0,0-.95-.48l-1.23-.37c-.34-.09-.69-.2-1-.31a4.12,4.12,0,0,1-.92-.44,2,2,0,0,1-.67-.67,2,2,0,0,1-.24-1,2,2,0,0,1,.86-1.69,3,3,0,0,1,1-.47,5.15,5.15,0,0,1,1.37-.16,4.46,4.46,0,0,1,1.45.2,2.62,2.62,0,0,1,1,.53,2.08,2.08,0,0,1,.55.75,2.12,2.12,0,0,1,.18.87.86.86,0,0,1,0,.15c0,.05,0,.1,0,.14h-1.15v-.21a1.48,1.48,0,0,0-.17-.67,1.38,1.38,0,0,0-.61-.55,2.71,2.71,0,0,0-1.28-.23,3.63,3.63,0,0,0-.87.09,2,2,0,0,0-.62.25,1,1,0,0,0-.38.4,1.2,1.2,0,0,0-.12.55.88.88,0,0,0,.3.72,2.26,2.26,0,0,0,.79.41l1.05.34c.37.1.74.22,1.13.34a6.47,6.47,0,0,1,1.07.44,2,2,0,0,1,.78.69,2,2,0,0,1,.3,1.14,2.53,2.53,0,0,1-.26,1.15,2.47,2.47,0,0,1-.72.82,3.3,3.3,0,0,1-1.09.49A5.34,5.34,0,0,1,156.65,54.66Z"/><path class="cls-1" d="M13.74,49.33a6.49,6.49,0,1,1-6.49-6.49A6.48,6.48,0,0,1,13.74,49.33Zm-3.87-2a.49.49,0,0,1,0,.69L6.63,51.29a.49.49,0,0,1-.69,0L4.64,50a.49.49,0,1,1,.69-.69l1,.95,1.45-1.45,1.45-1.45A.49.49,0,0,1,9.87,47.36Z"/><path d="M188.72,55.83V44.64h5.48a3.66,3.66,0,0,1,1.88.43,2.69,2.69,0,0,1,1.11,1.18,3.77,3.77,0,0,1,.37,1.71,3.69,3.69,0,0,1-.42,1.78A3.08,3.08,0,0,1,196,51a3.39,3.39,0,0,1-1.73.43H190v4.44ZM190,50.28h4.12a2,2,0,0,0,1.54-.61,2.34,2.34,0,0,0,.58-1.69,2.73,2.73,0,0,0-.23-1.2,1.69,1.69,0,0,0-.71-.76,2.37,2.37,0,0,0-1.18-.27H190Z"/><path d="M199.19,55.83V47.25h.95l.1,1.43h.11a3.41,3.41,0,0,1,.34-.76,1.84,1.84,0,0,1,.62-.62,1.81,1.81,0,0,1,1-.25,1.87,1.87,0,0,1,.42,0,2,2,0,0,1,.3.08v1.07h-.51a2.12,2.12,0,0,0-1,.21,1.75,1.75,0,0,0-.67.57,2.78,2.78,0,0,0-.38.86,4.17,4.17,0,0,0-.12,1v4.94Z"/><path d="M204.36,45.48V44h1.18v1.45Zm0,10.35V47.25h1.18v8.58Z"/><path d="M207.84,55.83V47.25h.93l.11,1.35H209a3.2,3.2,0,0,1,.81-.92,3.24,3.24,0,0,1,1-.48,4.11,4.11,0,0,1,1.13-.15,3.51,3.51,0,0,1,1.43.27,2,2,0,0,1,1,.87,3.49,3.49,0,0,1,.34,1.65v6h-1.18V50a2.7,2.7,0,0,0-.14-.94,1.48,1.48,0,0,0-.41-.56,1.62,1.62,0,0,0-.61-.28,3.22,3.22,0,0,0-.78-.08,2.5,2.5,0,0,0-2.17,1.22,2.69,2.69,0,0,0-.36,1.43v5.08Z"/><path d="M218.75,56a1.78,1.78,0,0,1-.93-.21,1.13,1.13,0,0,1-.49-.59,2.23,2.23,0,0,1-.14-.83V48.24H216v-1h1.16l.23-2.39h.94v2.39H220v1h-1.65v5.92a1.38,1.38,0,0,0,.12.66A.61.61,0,0,0,219,55h1v.75l-.38.12a2.36,2.36,0,0,1-.45.08Z"/><path d="M221.58,45.48V44h1.17v1.45Zm0,10.35V47.25h1.17v8.58Z"/><path d="M225.05,55.83V47.25H226l.11,1.35h.12a3.2,3.2,0,0,1,.81-.92,3.24,3.24,0,0,1,1-.48,4.19,4.19,0,0,1,1.14-.15,3.46,3.46,0,0,1,1.42.27,2,2,0,0,1,1,.87,3.38,3.38,0,0,1,.34,1.65v6H230.7V50a2.46,2.46,0,0,0-.15-.94,1.48,1.48,0,0,0-.41-.56,1.55,1.55,0,0,0-.61-.28,3.17,3.17,0,0,0-.78-.08,2.55,2.55,0,0,0-1.23.31,2.64,2.64,0,0,0-.94.91,2.69,2.69,0,0,0-.36,1.43v5.08Z"/><path d="M235.54,58.8a2.5,2.5,0,0,1-1.15-.27,2.18,2.18,0,0,1-.84-.75,2,2,0,0,1-.31-1.12,2,2,0,0,1,.38-1.22,2.3,2.3,0,0,1,1-.75,1.39,1.39,0,0,1-.65-.54,1.45,1.45,0,0,1-.23-.78,1.32,1.32,0,0,1,.41-1,2,2,0,0,1,1-.53,2.67,2.67,0,0,1-.86-.91,2.39,2.39,0,0,1-.32-1.19,2.67,2.67,0,0,1,.38-1.42,2.63,2.63,0,0,1,1.13-1,4.61,4.61,0,0,1,1.9-.35,6.36,6.36,0,0,1,1,.08,3.94,3.94,0,0,1,.84.25,2,2,0,0,0,.88-.61,2.17,2.17,0,0,0,.4-.89h1.18a2.15,2.15,0,0,1-.82,1.6,1.92,1.92,0,0,1-.89.37,2.49,2.49,0,0,1,.62.88,2.84,2.84,0,0,1,.19,1.05,2.53,2.53,0,0,1-1.47,2.35,4.56,4.56,0,0,1-1.91.35H236a1.58,1.58,0,0,0-.8.19.68.68,0,0,0-.31.63.67.67,0,0,0,.33.59,1.46,1.46,0,0,0,.81.21h3.36a2,2,0,0,1,1.55.64,2.25,2.25,0,0,1,.59,1.59,2.32,2.32,0,0,1-.34,1.25,2.44,2.44,0,0,1-.94.89,2.83,2.83,0,0,1-1.39.33Zm.26-.93h3a1.62,1.62,0,0,0,.77-.18,1.47,1.47,0,0,0,.55-.5,1.28,1.28,0,0,0,.2-.68,1.37,1.37,0,0,0-.36-1,1.2,1.2,0,0,0-.9-.38H235.8a1.35,1.35,0,0,0-1,.4,1.32,1.32,0,0,0-.41,1,1.25,1.25,0,0,0,.4,1A1.37,1.37,0,0,0,235.8,57.87Zm1.55-6.32a2.51,2.51,0,0,0,1.69-.48,1.62,1.62,0,0,0,.55-1.29,1.65,1.65,0,0,0-.55-1.32,2.51,2.51,0,0,0-1.69-.48,2.47,2.47,0,0,0-1.66.48,1.66,1.66,0,0,0-.56,1.32,1.65,1.65,0,0,0,1,1.55A3,3,0,0,0,237.35,51.55Z"/><path d="M248.51,56a4.07,4.07,0,0,1-1-.12,2.6,2.6,0,0,1-.88-.39,1.91,1.91,0,0,1-.61-.73,2.51,2.51,0,0,1-.23-1.12,2.32,2.32,0,0,1,.44-1.45,2.88,2.88,0,0,1,1.21-.88,7.09,7.09,0,0,1,1.85-.43c.72-.07,1.49-.11,2.33-.11v-1.1a1.91,1.91,0,0,0-.19-.89,1.28,1.28,0,0,0-.65-.57,3.52,3.52,0,0,0-1.32-.2,3.19,3.19,0,0,0-1.28.21,1.4,1.4,0,0,0-.67.55,1.53,1.53,0,0,0-.18.74v.26h-1.13a.86.86,0,0,1,0-.16v-.2a2,2,0,0,1,.42-1.33,2.54,2.54,0,0,1,1.21-.79,5.77,5.77,0,0,1,1.79-.26,4.4,4.4,0,0,1,1.73.3,2.4,2.4,0,0,1,1.08.86,2.32,2.32,0,0,1,.37,1.34v4.92a.63.63,0,0,0,.12.44.49.49,0,0,0,.34.12h.68v.75a3.8,3.8,0,0,1-.51.16,2.1,2.1,0,0,1-.56.07,1.16,1.16,0,0,1-.68-.18,1,1,0,0,1-.36-.51,3,3,0,0,1-.14-.72h-.11a2.86,2.86,0,0,1-.79.76,3.6,3.6,0,0,1-1,.49A4.11,4.11,0,0,1,248.51,56Zm.25-1a3.08,3.08,0,0,0,1-.18,3.21,3.21,0,0,0,.91-.5,2.44,2.44,0,0,0,.67-.76,2,2,0,0,0,.25-1v-.88a16.27,16.27,0,0,0-2.54.17,3.31,3.31,0,0,0-1.53.57,1.35,1.35,0,0,0-.52,1.14,1.43,1.43,0,0,0,.22.81,1.27,1.27,0,0,0,.62.46A2.42,2.42,0,0,0,248.76,55Z"/><path d="M255.17,55.83V47.25h.93l.11,1.35h.12a3.2,3.2,0,0,1,.81-.92,3.24,3.24,0,0,1,1-.48,4.11,4.11,0,0,1,1.13-.15,3.51,3.51,0,0,1,1.43.27,2,2,0,0,1,1,.87,3.49,3.49,0,0,1,.34,1.65v6h-1.18V50a2.7,2.7,0,0,0-.14-.94,1.48,1.48,0,0,0-.41-.56,1.55,1.55,0,0,0-.61-.28,3.22,3.22,0,0,0-.78-.08,2.5,2.5,0,0,0-2.17,1.22,2.69,2.69,0,0,0-.36,1.43v5.08Z"/><path d="M267.09,56a3.36,3.36,0,0,1-1.82-.47,2.9,2.9,0,0,1-1.17-1.48,7.05,7.05,0,0,1-.4-2.61,6.5,6.5,0,0,1,.41-2.49,3,3,0,0,1,1.16-1.45,3.39,3.39,0,0,1,1.79-.47,4,4,0,0,1,1.05.13,2.75,2.75,0,0,1,.88.42,2.52,2.52,0,0,1,.68.76h.1V44h1.17v11.8H270l-.13-1.26h-.11a3,3,0,0,1-1.17,1.1A3.44,3.44,0,0,1,267.09,56Zm.2-1a2.35,2.35,0,0,0,1.43-.4,2.24,2.24,0,0,0,.8-1.12,5.54,5.54,0,0,0,.25-1.8v-.29a5.88,5.88,0,0,0-.2-1.66,2.37,2.37,0,0,0-.56-1,1.86,1.86,0,0,0-.77-.5,2.88,2.88,0,0,0-.87-.14,2.59,2.59,0,0,0-1.36.33,2,2,0,0,0-.82,1.06,5.36,5.36,0,0,0-.27,1.87v.41a5.08,5.08,0,0,0,.3,1.92,2,2,0,0,0,.82,1A2.52,2.52,0,0,0,267.29,55Z"/><path d="M276.74,55.83V47.25h.93l.11,1.35h.12a3.29,3.29,0,0,1,.78-.92,2.75,2.75,0,0,1,.93-.48,3.76,3.76,0,0,1,1.08-.15,3,3,0,0,1,1.48.35,2,2,0,0,1,.88,1.2h.1a3.15,3.15,0,0,1,.77-.9,2.6,2.6,0,0,1,.93-.49,3.6,3.6,0,0,1,1.09-.16,3.35,3.35,0,0,1,1.35.26,1.93,1.93,0,0,1,.92.87,3.27,3.27,0,0,1,.34,1.63v6h-1.18V49.94a2.68,2.68,0,0,0-.13-.92,1.29,1.29,0,0,0-.39-.57,1.37,1.37,0,0,0-.57-.27,2.64,2.64,0,0,0-.7-.08,2.21,2.21,0,0,0-1.15.31,2.62,2.62,0,0,0-.87.91,2.88,2.88,0,0,0-.33,1.43v5.08h-1.17V49.94a2.66,2.66,0,0,0-.14-.92,1.18,1.18,0,0,0-.37-.57,1.39,1.39,0,0,0-.56-.27,2.53,2.53,0,0,0-.68-.08,2.33,2.33,0,0,0-1.17.31,2.59,2.59,0,0,0-.89.91,2.88,2.88,0,0,0-.34,1.43v5.08Z"/><path d="M294.15,56a4.34,4.34,0,0,1-2.12-.48,3.07,3.07,0,0,1-1.32-1.47,7.37,7.37,0,0,1,0-5.07A3.07,3.07,0,0,1,292,47.53a4.34,4.34,0,0,1,2.12-.48,4.29,4.29,0,0,1,2.12.48A3.1,3.1,0,0,1,297.58,49a7.37,7.37,0,0,1,0,5.07,3.1,3.1,0,0,1-1.31,1.47A4.29,4.29,0,0,1,294.15,56Zm0-1a2.83,2.83,0,0,0,1.45-.34,2.16,2.16,0,0,0,.89-1.07,4.81,4.81,0,0,0,.31-1.89v-.39a4.76,4.76,0,0,0-.31-1.88,2.12,2.12,0,0,0-.89-1.07,2.83,2.83,0,0,0-1.45-.34,2.87,2.87,0,0,0-1.46.34,2.12,2.12,0,0,0-.89,1.07,4.76,4.76,0,0,0-.31,1.88v.39a4.81,4.81,0,0,0,.31,1.89,2.16,2.16,0,0,0,.89,1.07A2.87,2.87,0,0,0,294.15,55Z"/><path d="M299.82,55.83V47.25h.95l.1,1.43H301a3.41,3.41,0,0,1,.34-.76,1.93,1.93,0,0,1,.62-.62,1.83,1.83,0,0,1,1-.25,1.87,1.87,0,0,1,.42,0,2,2,0,0,1,.3.08v1.07h-.51a2.12,2.12,0,0,0-1,.21,1.75,1.75,0,0,0-.67.57,2.78,2.78,0,0,0-.38.86,4.17,4.17,0,0,0-.12,1v4.94Z"/><path d="M308.14,56a4.17,4.17,0,0,1-2.07-.48,3.11,3.11,0,0,1-1.29-1.47,7.52,7.52,0,0,1,0-5.07,3,3,0,0,1,1.31-1.47,4.36,4.36,0,0,1,2.15-.48,4,4,0,0,1,2,.47,3,3,0,0,1,1.22,1.37,5.22,5.22,0,0,1,.42,2.21v.75h-6.31a4.61,4.61,0,0,0,.31,1.84,2,2,0,0,0,.88,1,3,3,0,0,0,1.43.32,3.24,3.24,0,0,0,1.09-.17,2.1,2.1,0,0,0,.76-.45,1.85,1.85,0,0,0,.47-.67,2.1,2.1,0,0,0,.16-.82h1.14a3,3,0,0,1-.23,1.2,3,3,0,0,1-.69,1,3.13,3.13,0,0,1-1.13.66A5,5,0,0,1,308.14,56Zm-2.57-5.1h5.09a4.32,4.32,0,0,0-.19-1.36,2.41,2.41,0,0,0-.52-.89,1.86,1.86,0,0,0-.77-.48,3.45,3.45,0,0,0-1-.14,2.89,2.89,0,0,0-1.37.3,1.92,1.92,0,0,0-.88.94A4.42,4.42,0,0,0,305.57,50.92Z"/><path d="M314,55.83V54.29h1.37v1.54Z"/><path d="M318.34,55.83V54.29h1.37v1.54Z"/><path d="M322.68,55.83V54.29h1.37v1.54Z"/><path class="cls-1" d="M182.49,49.31A6.48,6.48,0,1,1,176,42.83,6.48,6.48,0,0,1,182.49,49.31Zm-3.87-2a.48.48,0,0,1,0,.68l-3.24,3.25a.51.51,0,0,1-.69,0L173.4,50a.49.49,0,0,1,0-.69.48.48,0,0,1,.68,0l1,1,1.45-1.45,1.44-1.44A.49.49,0,0,1,178.62,47.35Z"/></g></g></svg>