<svg width="64" height="19" viewBox="0 0 64 19" fill="none" xmlns="http://www.w3.org/2000/svg">
<path d="M61.344 19C62.8109 19 64.0001 17.821 64.0001 16.3666C64.0001 14.9122 62.8109 13.7332 61.344 13.7332C59.8771 13.7332 58.688 14.9122 58.688 16.3666C58.688 17.821 59.8771 19 61.344 19Z" fill="#D0E500"/>
<path d="M58.6879 9.1903H56.4228C54.9645 9.1903 54.1839 10.2746 54.1839 12.0815V18.613H49.8874V9.1903H48.065C46.6067 9.1903 45.8261 10.2746 45.8261 12.0815V18.613H41.5296V5.70507H45.8261V7.66713C46.5294 6.14397 47.4927 5.70507 48.9248 5.70507H54.1845V7.66713C54.8878 6.14397 55.8511 5.70507 57.2832 5.70507H58.6892V9.1903H58.6879ZM40.5919 13.1657H31.6349C31.8694 14.6116 32.7803 15.4375 34.3165 15.4375C35.4619 15.4375 36.2693 14.9726 36.5299 14.1468L40.3313 15.2051C39.3942 17.4509 37.0767 18.8195 34.3165 18.8195C29.656 18.8195 27.5206 15.231 27.5206 12.1594C27.5206 9.139 29.3954 5.52457 34.0559 5.52457C39.0033 5.52457 40.6437 9.1903 40.6437 11.901C40.6443 12.4944 40.6181 12.882 40.5919 13.1657ZM36.4258 10.6615C36.3217 9.5513 35.5143 8.51897 34.0566 8.51897C32.7023 8.51897 31.8956 9.1124 31.6349 10.6615H36.4258ZM20.0226 18.613H23.7977L28.5107 5.7057H24.1887L21.8974 13.2177L19.5537 5.70507H15.2573L20.0226 18.613ZM2.42161 18.613H6.69186V9.1903H10.7539V18.613H14.9979V5.70507H6.69186V4.90517C6.69186 4.02737 7.31659 3.48523 8.30606 3.48523H10.7539V0H7.6034C4.50468 0 2.42161 1.8848 2.42161 4.64677V5.70507H0V9.1903H2.42161V18.613Z" fill="white"/>
</svg>
