<svg xmlns="http://www.w3.org/2000/svg" viewBox="0 0 129.22 41.25"><defs><style>.cls-1{fill:#fff;}</style></defs><g id="Layer_2" data-name="Layer 2"><g id="Layer_1-2" data-name="Layer 1"><path class="cls-1" d="M3.62,0H5.55L9.18,9.71H7.1l-.68-2H2.64L2,9.71H0ZM3.19,6.18H5.87L4.53,2.34Z"/><path class="cls-1" d="M14.23,8.76a2.31,2.31,0,0,1-2.1,1.13C10.4,9.89,9.7,8.83,9.7,7.06V2.5h1.85V6.66c0,1,.15,1.74,1.18,1.74,1.23,0,1.5-1,1.5-2.14V2.5h1.85V9.71H14.23Z"/><path class="cls-1" d="M18,.55h1.85v2h1.5V3.78h-1.5V7.5c0,.74.25.89.91.89h.56V9.71H20c-1.66,0-2-.51-2-1.94v-4H17V2.5h1Z"/><path class="cls-1" d="M22.05,6.12a3.62,3.62,0,1,1,7.23,0,3.62,3.62,0,1,1-7.23,0Zm1.87,0c0,1.52.73,2.32,1.74,2.32s1.75-.8,1.75-2.32-.73-2.33-1.75-2.33S23.92,4.61,23.92,6.12Z"/><path class="cls-1" d="M35.34,0V5.4L38,2.5H40L37.46,5.26l2.73,4.45H38.11L36.22,6.59l-.88,1V9.71H33.49V0Z"/><path class="cls-1" d="M43,9.89a2.34,2.34,0,0,1-2.6-2.12c0-1.7,1.91-2.21,4.75-2.53V5.12c0-1.11-.61-1.5-1.36-1.5a1.2,1.2,0,0,0-1.34,1.16H40.76c.14-1.42,1.3-2.46,3.16-2.46,1.7,0,3.11.75,3.11,3.17,0,.22,0,1.2,0,1.84a9.94,9.94,0,0,0,.21,2.38h-1.7c0-.22-.08-.53-.12-.89A2.6,2.6,0,0,1,43,9.89Zm2.2-3.47c-2.08.21-2.89.45-2.89,1.26,0,.52.4,1,1.24,1A1.47,1.47,0,0,0,45.23,7Z"/><path class="cls-1" d="M53,8.76a2.31,2.31,0,0,1-2.1,1.13c-1.73,0-2.42-1.06-2.42-2.83V2.5h1.84V6.66c0,1,.15,1.74,1.18,1.74,1.24,0,1.5-1,1.5-2.14V2.5h1.85V9.71H53Z"/><path class="cls-1" d="M56.69,2.1c0-1.82.86-2.1,2.67-2.1H60V1.37h-.36c-.92,0-1.09.1-1.09.79V2.5H60V3.78H58.54V9.71H56.69V3.78h-1V2.5h1Z"/><path class="cls-1" d="M62.29,6.62a1.83,1.83,0,0,0,1.82,1.83,1.66,1.66,0,0,0,1.52-.83h1.9a3.44,3.44,0,0,1-3.4,2.27,3.58,3.58,0,0,1-3.67-3.81,3.55,3.55,0,0,1,3.61-3.74c2.23,0,3.61,1.73,3.54,4.28Zm0-1.27h3.42A1.58,1.58,0,0,0,64.06,3.7,1.73,1.73,0,0,0,62.32,5.35Z"/><path class="cls-1" d="M70.66,3.46a2.29,2.29,0,0,1,2.09-1.12c1.72,0,2.49,1.05,2.49,2.83V9.71H73.39V5.57c0-.92-.2-1.74-1.25-1.74-1.22,0-1.48,1-1.48,2.13V9.71H68.81V2.5h1.85Z"/><path class="cls-1" d="M76.75,7.7h2.08V9.86L77.73,12H76.67l1-2.28h-.92Z"/><path class="cls-1" d="M85.22,9.71H83.38V0h1.84Z"/><path class="cls-1" d="M88.25,6.62a1.83,1.83,0,0,0,1.82,1.83,1.66,1.66,0,0,0,1.52-.83h1.9a3.44,3.44,0,0,1-3.4,2.27,3.58,3.58,0,0,1-3.67-3.81A3.55,3.55,0,0,1,90,2.34c2.23,0,3.61,1.73,3.54,4.28Zm0-1.27H91.7A1.58,1.58,0,0,0,90,3.7,1.73,1.73,0,0,0,88.28,5.35Z"/><path class="cls-1" d="M97.07,9.89a2.34,2.34,0,0,1-2.6-2.12c0-1.7,1.91-2.21,4.74-2.53V5.12c0-1.11-.6-1.5-1.35-1.5a1.2,1.2,0,0,0-1.34,1.16H94.79c.15-1.42,1.3-2.46,3.17-2.46,1.7,0,3.1.75,3.1,3.17,0,.22,0,1.2,0,1.84a9.44,9.44,0,0,0,.21,2.38h-1.7c0-.22-.08-.53-.12-.89A2.6,2.6,0,0,1,97.07,9.89Zm2.2-3.47c-2.08.21-2.89.45-2.89,1.26,0,.52.4,1,1.24,1A1.47,1.47,0,0,0,99.27,7Z"/><path class="cls-1" d="M106.67,4.68a1.44,1.44,0,0,0-1.54-1c-.69,0-1.17.26-1.17.7s.28.68,1,.83l1,.22c1.43.32,2.65.68,2.65,2.17s-1.48,2.33-3.12,2.33-3.11-.91-3.28-2.56h1.78a1.41,1.41,0,0,0,1.55,1.22c.81,0,1.3-.3,1.3-.82s-.55-.74-1.17-.88l-1.08-.23c-1.35-.28-2.25-.85-2.25-2.16s1.4-2.14,3-2.14a2.9,2.9,0,0,1,3.18,2.36Z"/><path class="cls-1" d="M111.13,6.62A1.83,1.83,0,0,0,113,8.45a1.66,1.66,0,0,0,1.52-.83h1.9A3.44,3.44,0,0,1,113,9.89a3.58,3.58,0,0,1-3.67-3.81,3.55,3.55,0,0,1,3.61-3.74c2.23,0,3.61,1.73,3.54,4.28Zm0-1.27h3.41A1.57,1.57,0,0,0,112.9,3.7,1.73,1.73,0,0,0,111.16,5.35Z"/><path class="cls-1" d="M119.49,3.46a2.31,2.31,0,0,1,2.09-1.12c1.73,0,2.5,1.05,2.5,2.83V9.71h-1.85V5.57c0-.92-.2-1.74-1.25-1.74-1.22,0-1.49,1-1.49,2.13V9.71h-1.84V2.5h1.84Z"/><path class="cls-1" d="M125.59,7.7h2.08V9.86L126.57,12h-1.06l1-2.28h-.92Z"/><path class="cls-1" d="M2.2,22.3A1.82,1.82,0,0,0,4,24.14a1.63,1.63,0,0,0,1.51-.83H7.44A3.45,3.45,0,0,1,4,25.57a3.58,3.58,0,0,1-3.67-3.8A3.55,3.55,0,0,1,4,18c2.22,0,3.6,1.73,3.54,4.27Zm0-1.27H5.64A1.58,1.58,0,0,0,4,19.38,1.74,1.74,0,0,0,2.22,21Z"/><path class="cls-1" d="M10.56,15.68V17.4H8.71V15.68Zm0,2.51V25.4H8.71V18.19Z"/><path class="cls-1" d="M14.07,19.14A2.29,2.29,0,0,1,16.16,18c1.73,0,2.49,1,2.49,2.82V25.4H16.8V21.26c0-.93-.2-1.75-1.24-1.75-1.22,0-1.49,1-1.49,2.14V25.4H12.22V18.19h1.85Z"/><path class="cls-1" d="M20.38,17.79c0-1.83.86-2.11,2.67-2.11h.63v1.37h-.36c-.91,0-1.09.11-1.09.79v.35h1.45v1.27H22.23V25.4H20.38V19.46h-1V18.19h1Z"/><path class="cls-1" d="M26.52,25.57a2.33,2.33,0,0,1-2.6-2.12c0-1.7,1.91-2.21,4.75-2.53V20.8c0-1.11-.61-1.5-1.36-1.5A1.2,1.2,0,0,0,26,20.47H24.24A2.87,2.87,0,0,1,27.41,18c1.7,0,3.1.75,3.1,3.18,0,.21,0,1.19,0,1.83a9.58,9.58,0,0,0,.21,2.39H29c-.05-.23-.08-.54-.12-.9A2.6,2.6,0,0,1,26.52,25.57Zm2.2-3.47c-2.08.22-2.89.46-2.89,1.26,0,.52.4.95,1.24.95a1.46,1.46,0,0,0,1.65-1.67Z"/><path class="cls-1" d="M38.48,20.65H36.71a1.54,1.54,0,0,0-1.5-1.19c-1,0-1.73.82-1.73,2.32s.72,2.36,1.74,2.36a1.56,1.56,0,0,0,1.55-1.2h1.77a3.2,3.2,0,0,1-3.41,2.63,3.47,3.47,0,0,1-3.54-3.76A3.54,3.54,0,0,1,35.21,18,3.1,3.1,0,0,1,38.48,20.65Z"/><path class="cls-1" d="M41.49,19.14A2.3,2.3,0,0,1,43.58,18c1.73,0,2.49,1,2.49,2.82V25.4H44.23V21.26c0-.93-.21-1.75-1.25-1.75-1.22,0-1.49,1-1.49,2.14V25.4H39.64V15.68h1.85Z"/><path class="cls-1" d="M53,25.57a2.32,2.32,0,0,1-2.59-2.12c0-1.7,1.9-2.21,4.74-2.53V20.8c0-1.11-.6-1.5-1.35-1.5a1.2,1.2,0,0,0-1.34,1.17H50.69C50.83,19.05,52,18,53.85,18c1.7,0,3.11.75,3.11,3.18,0,.21,0,1.19,0,1.83a9.49,9.49,0,0,0,.22,2.39H55.44c0-.23-.08-.54-.12-.9A2.6,2.6,0,0,1,53,25.57Zm2.2-3.47c-2.07.22-2.89.46-2.89,1.26,0,.52.4.95,1.24.95a1.46,1.46,0,0,0,1.65-1.67Z"/><path class="cls-1" d="M58.5,25.4V15.68h1.85v3.43A2.33,2.33,0,0,1,62.43,18c1.74,0,3.13,1.5,3.13,3.76s-1.42,3.78-3.13,3.78a2.34,2.34,0,0,1-2.08-1.08v.91Zm5.12-3.59c0-1.41-.68-2.36-1.65-2.36s-1.69.9-1.69,2.34S61,24.15,62,24.15,63.62,23.21,63.62,21.81Z"/><path class="cls-1" d="M66.38,21.81a3.62,3.62,0,1,1,7.24,0,3.62,3.62,0,1,1-7.24,0Zm1.88,0c0,1.51.72,2.31,1.74,2.31s1.74-.8,1.74-2.31S71,19.47,70,19.47,68.26,20.29,68.26,21.81Z"/><path class="cls-1" d="M76.65,19.14A2.28,2.28,0,0,1,78.74,18c1.72,0,2.49,1,2.49,2.82V25.4H79.38V21.26c0-.93-.2-1.75-1.25-1.75-1.22,0-1.48,1-1.48,2.14V25.4H74.8V18.19h1.85Z"/><path class="cls-1" d="M84.63,19.14A2.3,2.3,0,0,1,86.72,18c1.73,0,2.5,1,2.5,2.82V25.4H87.37V21.26c0-.93-.2-1.75-1.25-1.75-1.22,0-1.49,1-1.49,2.14V25.4H82.79V18.19h1.84Z"/><path class="cls-1" d="M92.62,15.68V17.4H90.77V15.68Zm0,2.51V25.4H90.77V18.19Z"/><path class="cls-1" d="M95.65,22.3a1.84,1.84,0,0,0,1.82,1.84A1.66,1.66,0,0,0,99,23.31h1.9a3.43,3.43,0,0,1-3.4,2.26,3.58,3.58,0,0,1-3.67-3.8A3.54,3.54,0,0,1,97.43,18c2.23,0,3.61,1.73,3.54,4.27Zm0-1.27h3.41a1.57,1.57,0,0,0-1.67-1.65A1.73,1.73,0,0,0,95.68,21Z"/><path class="cls-1" d="M106.29,20a4.84,4.84,0,0,0-.76,0c-.91,0-1.52.34-1.52,1.69V25.4h-1.84V18.19H104v1.26a1.93,1.93,0,0,1,1.9-1.25l.4,0Z"/><path class="cls-1" d="M108.61,22.3a1.84,1.84,0,0,0,1.82,1.84,1.66,1.66,0,0,0,1.52-.83h1.9a3.43,3.43,0,0,1-3.4,2.26,3.58,3.58,0,0,1-3.67-3.8A3.54,3.54,0,0,1,110.39,18c2.23,0,3.61,1.73,3.54,4.27Zm0-1.27h3.41a1.57,1.57,0,0,0-1.67-1.65A1.73,1.73,0,0,0,108.64,21Z"/><path class="cls-1" d="M117,19.14A2.3,2.3,0,0,1,119.06,18c1.73,0,2.5,1,2.5,2.82V25.4h-1.85V21.26c0-.93-.2-1.75-1.25-1.75-1.22,0-1.49,1-1.49,2.14V25.4h-1.84V18.19H117Z"/><path class="cls-1" d="M129.22,18a2.94,2.94,0,0,1-1.64,2.47c-.88.51-1.26.79-1.26,1.76v.42h-1.81v-.46a2.5,2.5,0,0,1,1.43-2.46c.84-.5,1.42-.94,1.42-1.64a1.3,1.3,0,0,0-1.42-1.13,1.64,1.64,0,0,0-1.77,1.8h-1.82c0-2,1.54-3.21,3.62-3.21C127.6,15.51,129.22,16.29,129.22,18Zm-4.81,7.44v-2h2v2Z"/><path class="cls-1" d="M.87,31.37H7.94v1.55H2.79v2.41H7.66v1.56H2.79v4.19H.87Z"/><path class="cls-1" d="M10.73,41.08H8.82V31.37h1.91Z"/><path class="cls-1" d="M18.17,41.08l-3.88-7.41v7.41H12.48V31.37H15l3.88,7.41V31.37h1.81v9.71Z"/><path class="cls-1" d="M28.1,41.08l-3.88-7.41v7.41H22.41V31.37H24.9l3.89,7.41V31.37h1.8v9.71Z"/><path class="cls-1" d="M31.82,37.49a3.62,3.62,0,1,1,7.23,0,3.62,3.62,0,1,1-7.23,0Zm1.87,0c0,1.51.73,2.32,1.74,2.32s1.75-.81,1.75-2.32-.73-2.33-1.75-2.33S33.69,36,33.69,37.49Z"/><path class="cls-1" d="M49.1,36.89c0-.79-.06-1.69-1.15-1.69s-1.43,1-1.43,2.13v3.75H44.67V36.89c0-.79-.07-1.69-1.15-1.69-1.24,0-1.44,1-1.44,2.13v3.75H40.23V33.87h1.85v1a2.25,2.25,0,0,1,2-1.11,2.15,2.15,0,0,1,2,1.18,2.66,2.66,0,0,1,2.37-1.18c1.81,0,2.44,1.13,2.44,2.83v4.54H49.1Z"/><path class="cls-1" d="M53.88,38a1.81,1.81,0,0,0,1.82,1.83A1.64,1.64,0,0,0,57.21,39h1.9a3.42,3.42,0,0,1-3.4,2.26A3.57,3.57,0,0,1,52,37.45a3.56,3.56,0,0,1,3.62-3.74c2.22,0,3.6,1.73,3.53,4.28Zm0-1.28h3.42a1.58,1.58,0,0,0-1.68-1.65A1.74,1.74,0,0,0,53.9,36.71Z"/><path class="cls-1" d="M62.24,34.82a2.3,2.3,0,0,1,2.09-1.11c1.73,0,2.49,1,2.49,2.83v4.54H65V36.94c0-.92-.2-1.74-1.24-1.74-1.22,0-1.49,1-1.49,2.13v3.75H60.39V33.87h1.85Z"/><path class="cls-1" d="M70.68,41.25a2.33,2.33,0,0,1-2.6-2.11c0-1.7,1.91-2.21,4.75-2.53v-.13c0-1.11-.61-1.5-1.36-1.5a1.21,1.21,0,0,0-1.34,1.17H68.4a2.87,2.87,0,0,1,3.17-2.47c1.7,0,3.1.75,3.1,3.18,0,.21,0,1.19,0,1.84a9.49,9.49,0,0,0,.21,2.38h-1.7c0-.23-.08-.54-.12-.9A2.6,2.6,0,0,1,70.68,41.25Zm2.2-3.47C70.8,38,70,38.24,70,39c0,.53.4,1,1.24,1a1.47,1.47,0,0,0,1.65-1.68Z"/><path class="cls-1" d="M78.07,41.08H76.22V31.37h1.85Z"/><path class="cls-1" d="M79.58,41.08v-2h2v2Zm.4-2.87-.33-4.35V31.37H81.5v2.49l-.3,4.35Z"/></g></g></svg>