<svg xmlns="http://www.w3.org/2000/svg" viewBox="0 0 135.19 42.34"><defs><style>.cls-1{fill:#fff;}</style></defs><g id="Layer_2" data-name="Layer 2"><g id="Layer_1-2" data-name="Layer 1"><path class="cls-1" d="M3.14,5.63C1.57,5.3.23,4.5.23,2.81.23.86,2.32,0,4.1,0c2,0,3.71,1.18,3.82,3H6.07A1.84,1.84,0,0,0,4,1.53c-.9,0-1.87.33-1.87,1.2,0,.69.56,1.06,1.35,1.21l1.27.23c1.58.29,3.32.89,3.32,2.92s-2,3-3.93,3c-2.39,0-4-1.29-4.14-3.38H1.86A2.07,2.07,0,0,0,4.22,8.53c.86,0,2-.32,2-1.35,0-.82-.77-1.15-1.8-1.33Z"/><path class="cls-1" d="M9.63.72h1.85v2H13V4h-1.5V7.68c0,.73.25.88.91.88H13V9.89H11.6c-1.67,0-2-.51-2-1.95V4h-1V2.68h1Z"/><path class="cls-1" d="M18.28,4.46a4.78,4.78,0,0,0-.76,0c-.91,0-1.51.34-1.51,1.69V9.89H14.16V2.68H16V3.94a1.93,1.93,0,0,1,1.9-1.25l.4,0Z"/><path class="cls-1" d="M20.6,6.79a1.84,1.84,0,0,0,1.83,1.84,1.65,1.65,0,0,0,1.51-.83h1.9a3.43,3.43,0,0,1-3.4,2.26,3.58,3.58,0,0,1-3.67-3.8,3.55,3.55,0,0,1,3.62-3.74c2.22,0,3.6,1.73,3.53,4.27Zm0-1.27h3.42a1.58,1.58,0,0,0-1.68-1.65A1.74,1.74,0,0,0,20.63,5.52Z"/><path class="cls-1" d="M31.25,4.85a1.45,1.45,0,0,0-1.55-1c-.68,0-1.16.25-1.16.69s.28.69,1,.83l1,.22c1.43.32,2.65.68,2.65,2.17S31.63,10.06,30,10.06s-3.11-.91-3.28-2.56H28.5a1.4,1.4,0,0,0,1.55,1.22c.81,0,1.3-.29,1.3-.82S30.8,7.17,30.17,7L29.1,6.79c-1.35-.28-2.25-.84-2.25-2.16s1.39-2.14,2.95-2.14A2.9,2.9,0,0,1,33,4.85Z"/><path class="cls-1" d="M38.34,4.85a1.45,1.45,0,0,0-1.55-1c-.68,0-1.16.25-1.16.69s.28.69,1,.83l1,.22c1.43.32,2.65.68,2.65,2.17s-1.49,2.33-3.12,2.33S34,9.15,33.81,7.5h1.78a1.4,1.4,0,0,0,1.55,1.22c.81,0,1.3-.29,1.3-.82s-.55-.73-1.18-.88l-1.07-.23c-1.35-.28-2.25-.84-2.25-2.16s1.39-2.14,3-2.14a2.9,2.9,0,0,1,3.17,2.36Z"/><path class="cls-1" d="M53.27,5.69C53.27,4.9,53.2,4,52.11,4s-1.43,1-1.43,2.14V9.89H48.83V5.69c0-.79-.07-1.69-1.15-1.69s-1.43,1-1.43,2.14V9.89H44.4V2.68h1.85v.95a2.22,2.22,0,0,1,2-1.11,2.13,2.13,0,0,1,2,1.18,2.65,2.65,0,0,1,2.38-1.18c1.8,0,2.43,1.12,2.43,2.82V9.89H53.27Z"/><path class="cls-1" d="M58.52.17V1.89H56.67V.17Zm0,2.51V9.89H56.67V2.68Z"/><path class="cls-1" d="M60.44.72h1.85v2h1.5V4h-1.5V7.68c0,.73.25.88.91.88h.56V9.89H62.41c-1.66,0-2-.51-2-1.95V4h-1V2.68h1Z"/><path class="cls-1" d="M72.74,9.89V9a2.32,2.32,0,0,1-2.07,1.08c-1.72,0-3.14-1.47-3.14-3.78s1.4-3.76,3.14-3.76A2.31,2.31,0,0,1,72.74,3.6V.17h1.85V9.89Zm.07-3.61c0-1.44-.67-2.34-1.69-2.34s-1.65.95-1.65,2.36.69,2.34,1.65,2.34S72.81,7.77,72.81,6.28Z"/><path class="cls-1" d="M77.62,6.79a1.84,1.84,0,0,0,1.83,1.84A1.65,1.65,0,0,0,81,7.8h1.9a3.43,3.43,0,0,1-3.4,2.26,3.58,3.58,0,0,1-3.67-3.8,3.55,3.55,0,0,1,3.62-3.74c2.22,0,3.6,1.73,3.53,4.27Zm0-1.27h3.42a1.58,1.58,0,0,0-1.68-1.65A1.74,1.74,0,0,0,77.65,5.52Z"/><path class="cls-1" d="M93,5.69C93,4.9,92.94,4,91.86,4c-1.24,0-1.44,1-1.44,2.14V9.89H88.57V5.69c0-.79-.06-1.69-1.15-1.69S86,5,86,6.14V9.89H84.14V2.68H86v.95a2.24,2.24,0,0,1,2-1.11,2.13,2.13,0,0,1,2,1.18,2.62,2.62,0,0,1,2.37-1.18c1.81,0,2.44,1.12,2.44,2.82V9.89H93Z"/><path class="cls-1" d="M102.23.17h1.93l3.63,9.72h-2.07l-.69-2h-3.77l-.69,2H98.62Zm-.42,6.18h2.67l-1.33-3.83Z"/><path class="cls-1" d="M112.85,8.94a2.34,2.34,0,0,1-2.1,1.12c-1.73,0-2.43-1.06-2.43-2.83V2.68h1.85V6.83c0,1,.15,1.74,1.18,1.74,1.23,0,1.5-1,1.5-2.14V2.68h1.85V9.89h-1.85Z"/><path class="cls-1" d="M116.62.72h1.85v2H120V4h-1.5V7.68c0,.73.25.88.91.88h.56V9.89h-1.35c-1.66,0-2-.51-2-1.95V4h-1V2.68h1Z"/><path class="cls-1" d="M120.67,6.3a3.62,3.62,0,1,1,7.23,0,3.62,3.62,0,1,1-7.23,0Zm1.87,0c0,1.51.73,2.31,1.74,2.31S126,7.81,126,6.3,125.3,4,124.28,4,122.54,4.78,122.54,6.3Z"/><path class="cls-1" d="M135.19,2.45a2.94,2.94,0,0,1-1.64,2.47c-.87.51-1.26.79-1.26,1.76V7.1h-1.81V6.64a2.5,2.5,0,0,1,1.43-2.46c.85-.5,1.42-.94,1.42-1.64a1.3,1.3,0,0,0-1.42-1.13,1.64,1.64,0,0,0-1.77,1.8h-1.82c0-2,1.54-3.21,3.62-3.21C133.57,0,135.19.78,135.19,2.45Zm-4.81,7.44v-2h2v2Z"/><path class="cls-1" d="M.55,15.86H7.63v1.55H2.47v2.41H7.34v1.56H2.47V24H7.63v1.55H.55Z"/><path class="cls-1" d="M11,15.86v1.71H9.18V15.86Zm0,2.5v7.21H9.18V18.36Z"/><path class="cls-1" d="M14.55,19.31a2.3,2.3,0,0,1,2.09-1.11c1.72,0,2.49,1.05,2.49,2.83v4.54H17.28V21.43c0-.92-.2-1.74-1.25-1.74-1.22,0-1.48,1-1.48,2.13v3.75H12.7V18.36h1.85Z"/><path class="cls-1" d="M20.86,18c0-1.82.86-2.1,2.66-2.1h.63v1.36h-.36c-.91,0-1.08.11-1.08.79v.35h1.44v1.28H22.71v5.93H20.86V19.64h-1V18.36h1Z"/><path class="cls-1" d="M27,25.74a2.33,2.33,0,0,1-2.6-2.11c0-1.7,1.9-2.21,4.74-2.53V21c0-1.11-.6-1.5-1.35-1.5a1.21,1.21,0,0,0-1.34,1.17H24.72a2.86,2.86,0,0,1,3.16-2.47c1.7,0,3.11.76,3.11,3.18,0,.21,0,1.19,0,1.84a9.4,9.4,0,0,0,.22,2.38h-1.7c-.06-.23-.08-.54-.13-.9A2.59,2.59,0,0,1,27,25.74Zm2.19-3.47c-2.07.22-2.89.46-2.89,1.26,0,.53.4,1,1.25,1a1.46,1.46,0,0,0,1.64-1.68Z"/><path class="cls-1" d="M39,20.83H37.18a1.52,1.52,0,0,0-1.5-1.19c-1,0-1.73.81-1.73,2.31s.73,2.36,1.75,2.36a1.55,1.55,0,0,0,1.55-1.19H39a3.2,3.2,0,0,1-3.42,2.62A3.47,3.47,0,0,1,32.07,22a3.54,3.54,0,0,1,3.61-3.78A3.1,3.1,0,0,1,39,20.83Z"/><path class="cls-1" d="M42,19.31a2.31,2.31,0,0,1,2.09-1.11c1.73,0,2.49,1.05,2.49,2.83v4.54H44.7V21.43c0-.92-.2-1.74-1.24-1.74-1.22,0-1.49,1-1.49,2.13v3.75H40.12V15.86H42Z"/><path class="cls-1" d="M55.2,20.53a1.44,1.44,0,0,0-1.54-1c-.69,0-1.17.26-1.17.7s.28.68,1,.83l1,.21c1.43.32,2.65.69,2.65,2.17S55.59,25.74,54,25.74s-3.11-.91-3.28-2.55h1.78A1.4,1.4,0,0,0,54,24.4c.8,0,1.3-.29,1.3-.81s-.55-.74-1.18-.89l-1.07-.22c-1.36-.29-2.26-.85-2.26-2.16s1.4-2.15,3-2.15a2.91,2.91,0,0,1,3.18,2.36Z"/><path class="cls-1" d="M58.58,16.41h1.85v1.95h1.5v1.28h-1.5v3.72c0,.74.25.88.91.88h.56v1.33H60.55c-1.66,0-2-.51-2-1.94v-4h-1V18.36h1Z"/><path class="cls-1" d="M67.24,20.14a5,5,0,0,0-.77,0c-.91,0-1.51.34-1.51,1.69v3.78H63.11V18.36h1.82v1.26a1.93,1.93,0,0,1,1.9-1.24l.41,0Z"/><path class="cls-1" d="M69.56,22.48a1.81,1.81,0,0,0,1.82,1.83,1.64,1.64,0,0,0,1.51-.83h1.9a3.42,3.42,0,0,1-3.4,2.26,3.57,3.57,0,0,1-3.67-3.8,3.56,3.56,0,0,1,3.62-3.74c2.22,0,3.6,1.73,3.53,4.28Zm0-1.28H73a1.58,1.58,0,0,0-1.68-1.65A1.74,1.74,0,0,0,69.58,21.2Z"/><path class="cls-1" d="M77.92,15.86v1.71H76.07V15.86Zm0,2.5v7.21H76.07V18.36Z"/><path class="cls-1" d="M86,20.83H84.23a1.53,1.53,0,0,0-1.5-1.19c-1,0-1.73.81-1.73,2.31s.73,2.36,1.74,2.36a1.56,1.56,0,0,0,1.56-1.19h1.77a3.2,3.2,0,0,1-3.42,2.62A3.47,3.47,0,0,1,79.11,22a3.54,3.54,0,0,1,3.62-3.78A3.1,3.1,0,0,1,86,20.83Z"/><path class="cls-1" d="M89,19.31a2.3,2.3,0,0,1,2.09-1.11c1.73,0,2.49,1.05,2.49,2.83v4.54H91.75V21.43c0-.92-.2-1.74-1.24-1.74-1.22,0-1.49,1-1.49,2.13v3.75H87.17V15.86H89Z"/><path class="cls-1" d="M96.52,22.48a1.83,1.83,0,0,0,1.83,1.83,1.64,1.64,0,0,0,1.51-.83h1.9a3.43,3.43,0,0,1-3.4,2.26,3.57,3.57,0,0,1-3.67-3.8,3.56,3.56,0,0,1,3.62-3.74c2.22,0,3.6,1.73,3.53,4.28Zm0-1.28H100a1.58,1.58,0,0,0-1.68-1.65A1.74,1.74,0,0,0,96.55,21.2Z"/><path class="cls-1" d="M104.89,19.31A2.3,2.3,0,0,1,107,18.2c1.73,0,2.49,1.05,2.49,2.83v4.54h-1.85V21.43c0-.92-.2-1.74-1.24-1.74-1.22,0-1.49,1-1.49,2.13v3.75H103V18.36h1.85Z"/><path class="cls-1" d="M111,25.57v-2h2v2Z"/><path class="cls-1" d="M2.21,42.2H0l3.37-9.75H6L9.38,42.2H7.17L4.73,34.68H4.66Zm-.14-3.83H7.29V40H2.07Z"/><path class="cls-1" d="M15.2,39.09v-4.2h2V42.2h-2V40.87h-.07a2.21,2.21,0,0,1-.82,1,2.45,2.45,0,0,1-1.4.39A2.39,2.39,0,0,1,11.7,42a2.33,2.33,0,0,1-.87-.94,3.33,3.33,0,0,1-.32-1.48V34.89h2v4.29a1.51,1.51,0,0,0,.35,1,1.18,1.18,0,0,0,.92.37,1.35,1.35,0,0,0,.68-.17,1.25,1.25,0,0,0,.52-.5A1.49,1.49,0,0,0,15.2,39.09Z"/><path class="cls-1" d="M22.74,34.89v1.52h-4.4V34.89Zm-3.4-1.75h2V40a.88.88,0,0,0,.09.44.51.51,0,0,0,.24.22,1,1,0,0,0,.36.06,1.33,1.33,0,0,0,.28,0l.22,0,.32,1.51-.43.11a3,3,0,0,1-.67.08,3.2,3.2,0,0,1-1.28-.19,1.73,1.73,0,0,1-.85-.7,2,2,0,0,1-.3-1.19Z"/><path class="cls-1" d="M27.28,42.34a3.66,3.66,0,0,1-1.91-.47,3.31,3.31,0,0,1-1.25-1.32,4.77,4.77,0,0,1,0-4,3.25,3.25,0,0,1,1.25-1.32,3.66,3.66,0,0,1,1.91-.48,3.7,3.7,0,0,1,1.92.48,3.25,3.25,0,0,1,1.25,1.32,4.77,4.77,0,0,1,0,4,3.31,3.31,0,0,1-1.25,1.32A3.69,3.69,0,0,1,27.28,42.34Zm0-1.57a1.28,1.28,0,0,0,.85-.28,1.93,1.93,0,0,0,.51-.79,3.64,3.64,0,0,0,.17-1.14,3.6,3.6,0,0,0-.17-1.14,1.93,1.93,0,0,0-.51-.79,1.39,1.39,0,0,0-1.7,0,1.85,1.85,0,0,0-.52.79,3.6,3.6,0,0,0-.17,1.14,3.64,3.64,0,0,0,.17,1.14,1.85,1.85,0,0,0,.52.79A1.28,1.28,0,0,0,27.29,40.77Z"/><path class="cls-1" d="M34,39.28v-.16a4.72,4.72,0,0,1,.15-1.33,2.09,2.09,0,0,1,.42-.8,3.41,3.41,0,0,1,.68-.55,4.58,4.58,0,0,0,.53-.4,1.74,1.74,0,0,0,.37-.45,1.19,1.19,0,0,0,.14-.56,1,1,0,0,0-.58-1,1.27,1.27,0,0,0-.58-.13,1.34,1.34,0,0,0-.59.13,1.23,1.23,0,0,0-.45.4,1.25,1.25,0,0,0-.19.66H31.91a2.86,2.86,0,0,1,.45-1.58,2.67,2.67,0,0,1,1.15-.92,3.87,3.87,0,0,1,1.58-.31,4.15,4.15,0,0,1,1.67.31,2.58,2.58,0,0,1,1.14.9A2.42,2.42,0,0,1,38.32,35a2.48,2.48,0,0,1-.18,1,2.55,2.55,0,0,1-.52.77,3.56,3.56,0,0,1-.77.59,3.24,3.24,0,0,0-.62.47,1.58,1.58,0,0,0-.36.56,2.86,2.86,0,0,0-.12.79v.16Zm.94,3a1.14,1.14,0,1,1,0-2.28A1.14,1.14,0,0,1,36,41.18a1.08,1.08,0,0,1-.16.58,1.27,1.27,0,0,1-.42.41A1.1,1.1,0,0,1,34.89,42.33Z"/><path class="cls-1" d="M44.57,42.2H42.36l3.37-9.75h2.66l3.36,9.75H49.54L47.1,34.68H47Zm-.13-3.83h5.21V40H44.44Z"/><path class="cls-1" d="M52.92,42.2V32.45h2v3.67H55a2.55,2.55,0,0,1,.39-.6,1.93,1.93,0,0,1,.66-.52,2.28,2.28,0,0,1,1-.21,2.73,2.73,0,0,1,1.47.42,3,3,0,0,1,1.08,1.25,4.8,4.8,0,0,1,.41,2.09,4.9,4.9,0,0,1-.39,2.07,3,3,0,0,1-1.07,1.27,2.72,2.72,0,0,1-1.51.43,2.48,2.48,0,0,1-1-.19,2,2,0,0,1-.67-.5A2.32,2.32,0,0,1,55,41h-.09V42.2Zm2-3.65a3.23,3.23,0,0,0,.18,1.13,1.65,1.65,0,0,0,.53.76,1.29,1.29,0,0,0,.83.27,1.27,1.27,0,0,0,.84-.28,1.64,1.64,0,0,0,.52-.76A3.21,3.21,0,0,0,58,38.55a3.17,3.17,0,0,0-.18-1.12,1.66,1.66,0,0,0-.52-.75,1.32,1.32,0,0,0-.84-.27,1.38,1.38,0,0,0-.84.26,1.65,1.65,0,0,0-.52.74A3.25,3.25,0,0,0,54.9,38.55Z"/><path class="cls-1" d="M64.7,42.34a3.69,3.69,0,0,1-1.92-.47,3.22,3.22,0,0,1-1.24-1.32,4.68,4.68,0,0,1,0-4,3.16,3.16,0,0,1,1.24-1.32,3.7,3.7,0,0,1,1.92-.48,3.64,3.64,0,0,1,1.91.48,3.18,3.18,0,0,1,1.25,1.32,4.68,4.68,0,0,1,0,4,3.24,3.24,0,0,1-1.25,1.32A3.63,3.63,0,0,1,64.7,42.34Zm0-1.57a1.25,1.25,0,0,0,.84-.28,1.75,1.75,0,0,0,.51-.79,3.37,3.37,0,0,0,.18-1.14,3.33,3.33,0,0,0-.18-1.14,1.75,1.75,0,0,0-.51-.79,1.26,1.26,0,0,0-.84-.29,1.31,1.31,0,0,0-.86.29,1.85,1.85,0,0,0-.52.79,3.6,3.6,0,0,0-.17,1.14,3.64,3.64,0,0,0,.17,1.14,1.85,1.85,0,0,0,.52.79A1.31,1.31,0,0,0,64.71,40.77Z"/><path class="cls-1" d="M71,42.33a1.11,1.11,0,0,1-.81-.34,1.12,1.12,0,0,1,0-1.61,1.15,1.15,0,0,1,1.95.8,1.09,1.09,0,0,1-.17.58,1.15,1.15,0,0,1-.41.41A1.1,1.1,0,0,1,71,42.33ZM72,32.45l-.18,6.83H70.12l-.2-6.83Z"/><path class="cls-1" d="M77.12,42.2V32.45h6.45v1.7H79.18v2.32h4v1.7h-4v4Z"/><path class="cls-1" d="M87,32.45V42.2H85V32.45Z"/><path class="cls-1" d="M96.87,32.45V42.2H95.09l-4.24-6.13h-.07V42.2H88.72V32.45h1.81l4.2,6.13h.09V32.45Z"/><path class="cls-1" d="M106.73,32.45V42.2h-1.79l-4.24-6.13h-.07V42.2H98.57V32.45h1.81l4.21,6.13h.08V32.45Z"/><path class="cls-1" d="M109.57,42.33a1.14,1.14,0,0,1-.81-.34,1.15,1.15,0,0,1,0-1.61,1.13,1.13,0,0,1,.81-.33,1.11,1.11,0,0,1,.8.33,1.12,1.12,0,0,1,.18,1.38,1.15,1.15,0,0,1-.41.41A1.11,1.11,0,0,1,109.57,42.33Z"/></g></g></svg>