<svg xmlns="http://www.w3.org/2000/svg" xmlns:xlink="http://www.w3.org/1999/xlink" viewBox="0 0 183.27 240.33"><defs><style>.cls-1{fill:none;}.cls-2{clip-path:url(#clip-path);}.cls-3,.cls-4{fill:#000005;}.cls-10,.cls-11,.cls-4,.cls-5,.cls-6,.cls-7,.cls-9{fill-rule:evenodd;}.cls-5{fill:#5900c7;}.cls-6{fill:#e8baf7;}.cls-7{fill:#fff;}.cls-10,.cls-8{fill:#591a38;}.cls-9{fill:#000a3b;}.cls-11{fill:#d4a1e8;}</style><clipPath id="clip-path" transform="translate(-33.57 -20.16)"><path class="cls-1" d="M231.16,155.3C231.16,96.61,283.24,0,224.55,0c-27.84,0-199.89-1.6-218,28.73-20,33.61,12,95.7,12,126.56a106.27,106.27,0,0,0,212.53,0Z"/></clipPath></defs><g id="Layer_2" data-name="Layer 2"><g id="Layer_1-2" data-name="Layer 1"><g class="cls-2"><path class="cls-3" d="M163.55,87.84a.63.63,0,0,1,.61-.66.64.64,0,0,1,.67.61c.64,13.67,4.24,22.79,7.51,31.05,4.08,10.31,7.64,19.31,4.41,34.11a.64.64,0,1,1-1.25-.28c3.15-14.41-.35-23.24-4.35-33.36-3.3-8.35-7-17.56-7.6-31.47" transform="translate(-33.57 -20.16)"/><path class="cls-4" d="M125.59,20.38C93,17.57,87.81,42.94,84.87,67.63l9.58,51.56L166,128.48C156.19,102,175.07,92,167,76.74,155.06,54.35,161.89,18,125.59,20.38" transform="translate(-33.57 -20.16)"/><path class="cls-5" d="M89.74,125.37C54,147.64,59.66,224.26,59.66,260.5H191.52c0-36.24,5.71-112.86-30.08-135.13h0c-6.44-3.88-12.47-8-17.24-13.08H107c-4.77,5-10.8,9.2-17.24,13.08" transform="translate(-33.57 -20.16)"/><path class="cls-6" d="M115.89,97.11A36.57,36.57,0,0,1,107,112.29H144.2a36.57,36.57,0,0,1-8.91-15.18l-9.7-3.25Z" transform="translate(-33.57 -20.16)"/><path class="cls-6" d="M125.59,30.83c-5,12.1-13.55,28.37-22.91,38.08C92,80,105.69,98.34,125.59,98.83c14-.34,22.52-8.37,27.46-21.38,16.49-1,12.76-25.21,1.19-21.45a16.74,16.74,0,0,1,0,8.23C142.05,54.09,128.79,43,125.59,30.83" transform="translate(-33.57 -20.16)"/><path class="cls-4" d="M115.85,97.24a33.5,33.5,0,0,1-3.36,7.78c6.6-1.31,17.59-4,22.8-7.91l-.18.06h0l-.5.17h0l-.52.17h0l-.54.16h0l-.55.15h0l-.56.13h0q-.86.2-1.74.36h0l-.59.09h0c-.2,0-.4.06-.6.09h0l-.59.08h0q-.6.08-1.23.12h0l-1.26.08h0l-.65,0c-.57,0-1.14,0-1.69-.08l-.6,0-.46,0a31.8,31.8,0,0,1-7-1.42" transform="translate(-33.57 -20.16)"/><path class="cls-7" d="M107,112.29a43.91,43.91,0,0,0,4.11-5.06l14.5,5.06s-3.69,15-26.53,6.92a61.65,61.65,0,0,0,7.92-6.92" transform="translate(-33.57 -20.16)"/><path class="cls-5" d="M68.47,199.46l-31-12,19.3-38.69c7-13,23.13-16.61,34.69-24.92l-9.13,74.8Z" transform="translate(-33.57 -20.16)"/><path class="cls-4" d="M104.71,97.17c2.56,6.74,2.59,11.77,1.47,15.94a28.29,28.29,0,0,1-3.24,7.18c-1,1.75-2.18,3.4-3.19,5.08-2.93,4.87-4.9,9.94-1.33,18,8.38,26.15-19.41,22.13-7.65,43.23-2-6.85.6-11.44,4.94-15.14,8.58-5.65,11.58-12.22,10.84-19.4a30,30,0,0,0-2.9-9.58c-4.94-8.19-1.12-12.58,2.46-17.07l.33-.43c7.61-9.72,8.7-15.12,9.44-27.78a18.51,18.51,0,0,1-7.12-4.57,30.46,30.46,0,0,1-2.9-4c-3.74-6.32-4.14-12.92-3.18-19.63C99,82,101.6,89.8,104.71,97.17" transform="translate(-33.57 -20.16)"/><path class="cls-7" d="M144.2,112.29a43.91,43.91,0,0,1-4.11-5.06l-14.5,5.06s3.69,15,26.53,6.92a61.65,61.65,0,0,1-7.92-6.92" transform="translate(-33.57 -20.16)"/><path class="cls-7" d="M125.59,129.84a1.84,1.84,0,1,1-1.83,1.84,1.83,1.83,0,0,1,1.83-1.84m0,8.22a1.84,1.84,0,1,1-1.83,1.83A1.83,1.83,0,0,1,125.59,138.06Zm0-16.44a1.84,1.84,0,1,1-1.83,1.84A1.83,1.83,0,0,1,125.59,121.62Z" transform="translate(-33.57 -20.16)"/><path class="cls-6" d="M125.2,160.54c-7.63,9.14-9.33,22.47-10.79,36l-49.27,9.16,3.33-6.2-23.92-9.18-7.65,18c-23.89,55.85,88.3,4.85,88.3-8.42V160.54" transform="translate(-33.57 -20.16)"/><path class="cls-4" d="M67.32,201.6a68.62,68.62,0,0,1-12.83,5.48l10.65-1.42Z" transform="translate(-33.57 -20.16)"/><path class="cls-4" d="M125.2,165.26v-2.63c-2.55,5.24-6.13,13.73-7,19.88,1.12-5.21,4.78-12.89,7-17.25m0,9.57V172.2c-2.55,5.24-3.36,11.44-4.26,17.59C122.06,184.58,123,179.19,125.2,174.83Z" transform="translate(-33.57 -20.16)"/><path class="cls-6" d="M125.2,160.54c7.63,9.14,9.33,22.47,10.79,36l49.27,9.16-3.33-6.2,23.92-9.18,7.65,18c23.89,55.85-88.3,4.85-88.3-8.42V160.54" transform="translate(-33.57 -20.16)"/><path class="cls-4" d="M183.08,201.6a68.62,68.62,0,0,0,12.83,5.48l-10.65-1.42Z" transform="translate(-33.57 -20.16)"/><path class="cls-4" d="M125.2,165.26v-2.63c2.55,5.24,6.13,13.73,7,19.88-1.12-5.21-4.78-12.89-7-17.25m0,9.57V172.2c2.55,5.24,3.37,11.44,4.27,17.59C128.35,184.58,127.45,179.19,125.2,174.83Z" transform="translate(-33.57 -20.16)"/><path class="cls-4" d="M90.77,186.56c-2-6.85.6-11.44,4.94-15.14,12.27-8.08,13.13-18,7.94-29-5.1-8.44-.87-12.85,2.79-17.5,7.67-9.8,9.22-19.6,5.15-29.41-9-8.37-10.24-17.38-8.91-26.62L84.87,67.63c-10.51,29.17,10.27,31-5.16,40.57C59.55,120.74,74.24,136,67.15,148c-9.64,11.32-11.49,24.07-4,38.54H90.77" transform="translate(-33.57 -20.16)"/><path class="cls-8" d="M126,64.13c.27,4.65-.26,8.42,4.5,11.28l.63.38-.62.39-4,2,2.9-2.37c-4.55-3.07-3.15-7.06-3.42-11.67" transform="translate(-33.57 -20.16)"/><path class="cls-9" d="M107.22,63.09c2.27-4.55,8.2-8.52,14-.62-5.07-4-9.73-3.58-14,.62" transform="translate(-33.57 -20.16)"/><path class="cls-9" d="M144.55,63.09c-2.27-4.55-8.19-8.52-14-.62,5.06-4,9.72-3.58,14,.62" transform="translate(-33.57 -20.16)"/><path class="cls-10" d="M120.59,67.41c-2.78,6.12-8.45,7.81-9.86-1.24,2.25,6.86,5.6,6.9,9.86,1.24" transform="translate(-33.57 -20.16)"/><path class="cls-10" d="M131.18,67.41c2.79,6.12,8.45,7.81,9.86-1.24-2.24,6.86-5.59,6.9-9.86,1.24" transform="translate(-33.57 -20.16)"/><path class="cls-7" d="M122.42,80.87c1.35,2.71,4.87,5.07,8.35.36-3,2.39-5.79,2.14-8.35-.36" transform="translate(-33.57 -20.16)"/><path class="cls-11" d="M113.64,74.32c-2.24,0-4,1.38-4,3.08s1.81,3.08,4,3.08,4-1.38,4-3.08-1.81-3.08-4-3.08m25,0c2.23,0,4,1.38,4,3.08s-1.81,3.08-4,3.08-4.05-1.38-4.05-3.08S136.37,74.32,138.61,74.32Z" transform="translate(-33.57 -20.16)"/><path class="cls-5" d="M181.93,199.46l31-12-19.3-38.69c-7-13-23.13-16.61-34.69-24.92l9.13,74.8Z" transform="translate(-33.57 -20.16)"/><path class="cls-7" d="M141.66,203.78a1.54,1.54,0,1,1-1.54,1.54,1.54,1.54,0,0,1,1.54-1.54m-.3,4.2a1.54,1.54,0,1,1-1.54,1.54A1.54,1.54,0,0,1,141.36,208Zm-.64,4.16a1.54,1.54,0,1,1-1.54,1.54A1.53,1.53,0,0,1,140.72,212.14Zm-1.1,4.06a1.54,1.54,0,1,1-1.53,1.54A1.54,1.54,0,0,1,139.62,216.2ZM138,220.1a1.54,1.54,0,1,1-1.54,1.54A1.54,1.54,0,0,1,138,220.1Zm-2.25,3.55a1.54,1.54,0,1,1-1.53,1.54A1.54,1.54,0,0,1,135.79,223.65Zm-3,2.88a1.54,1.54,0,1,1-1.53,1.54A1.54,1.54,0,0,1,132.74,226.53Zm-3.82,1.67a1.54,1.54,0,1,1-1.54,1.54A1.54,1.54,0,0,1,128.92,228.2Zm12.51-32.83a1.54,1.54,0,1,1-1.54,1.54A1.54,1.54,0,0,1,141.43,195.37Zm.24,4.2a1.54,1.54,0,1,1-1.54,1.54A1.54,1.54,0,0,1,141.67,199.57Z" transform="translate(-33.57 -20.16)"/><polygon class="cls-7" points="84.29 213.91 89.57 213.91 89.57 208.63 93.7 208.63 93.7 213.91 98.98 213.91 98.98 218.04 93.7 218.04 93.7 234.45 89.57 234.45 89.57 218.04 84.29 218.04 84.29 213.91"/><path class="cls-7" d="M108.67,203.78a1.54,1.54,0,1,0,1.54,1.54,1.54,1.54,0,0,0-1.54-1.54m.3,4.2a1.54,1.54,0,1,0,1.54,1.54A1.54,1.54,0,0,0,109,208Zm.64,4.16a1.54,1.54,0,1,0,1.54,1.54A1.54,1.54,0,0,0,109.61,212.14Zm1.1,4.06a1.54,1.54,0,1,0,1.53,1.54A1.54,1.54,0,0,0,110.71,216.2Zm1.59,3.9a1.54,1.54,0,1,0,1.53,1.54A1.54,1.54,0,0,0,112.3,220.1Zm2.24,3.55a1.54,1.54,0,1,0,0,3.07,1.54,1.54,0,0,0,0-3.07Zm3,2.88a1.54,1.54,0,1,0,1.53,1.54A1.54,1.54,0,0,0,117.59,226.53Zm3.82,1.67a1.54,1.54,0,1,0,1.54,1.54A1.54,1.54,0,0,0,121.41,228.2ZM108.9,195.37a1.54,1.54,0,1,0,1.54,1.54A1.54,1.54,0,0,0,108.9,195.37Zm-.24,4.2a1.54,1.54,0,1,0,1.54,1.54A1.54,1.54,0,0,0,108.66,199.57Z" transform="translate(-33.57 -20.16)"/></g></g></g></svg>