<svg xmlns="http://www.w3.org/2000/svg" xmlns:xlink="http://www.w3.org/1999/xlink" viewBox="0 0 237.78 199.42"><defs><style>.cls-1{fill:none;}.cls-2{clip-path:url(#clip-path);}.cls-3{fill:#fc78ab;}.cls-3,.cls-4,.cls-6{fill-rule:evenodd;}.cls-4{fill:#6e2494;}.cls-5,.cls-6{fill:#857dde;}.cls-7{fill:#fff;}</style><clipPath id="clip-path" transform="translate(-18.13 -61.08)"><path class="cls-1" d="M231.16,155.3C231.16,96.61,283.24,0,224.55,0c-27.84,0-199.89-1.6-218,28.73-20,33.61,12,95.7,12,126.56a106.27,106.27,0,0,0,212.53,0Z"/></clipPath></defs><g id="Layer_2" data-name="Layer 2"><g id="Layer_1-2" data-name="Layer 1"><g class="cls-2"><path class="cls-3" d="M33.69,187.44a3.83,3.83,0,0,1,2.07-.81c2,.34-1.93,1.21-2.36,1.79-.57.78-3.11.72-1.95.06a15.18,15.18,0,0,0,2.24-1M24.06,199.8c5-24.51,22.22-13.6,33.32-20.41C50,193.81,34.9,191.29,24.06,199.8Z" transform="translate(-18.13 -61.08)"/><path class="cls-3" d="M81.65,178.15c-.58,4.24-2.54,3.66-2.16-.17a178.6,178.6,0,0,0-1.75-29.22A333.54,333.54,0,0,0,63,101.88a12.67,12.67,0,0,0-3.29-5.09c-1-1.33.67-2.83,2-.88A150.66,150.66,0,0,1,72,122.83q3,10.2,6,20.39Q83.8,159,81.65,178.15" transform="translate(-18.13 -61.08)"/><path class="cls-3" d="M67.36,139.51a8.82,8.82,0,0,0-1.94.1c-1.55.18-1,1.2.11,1.07a5.77,5.77,0,0,1,1.76,0c1.26.24,1.53-1,.07-1.17m9.17,1.07c-16.11-7.48-20.94,6.63-37,3.07C60.68,162.34,64.9,146.65,76.53,140.58Z" transform="translate(-18.13 -61.08)"/><path class="cls-3" d="M74.23,135c-9.28-.93-16.73-5.87-25.43-6.63-6.14.65-12.68-3.74-19.33-9.63,14.92,5.42,36.79,1.85,44.76,16.26" transform="translate(-18.13 -61.08)"/><path class="cls-3" d="M47.91,106.36a3.8,3.8,0,0,1-1.83-1.26c-.82-1.82,2.08.93,2.8,1,1,0,2.34,2.17,1.14,1.58a15.06,15.06,0,0,0-2.11-1.28m4.15,7.78c-1.37,0-7.73-5.24-9-7.28,0,0,8.31,3,11.15,6.36a25.54,25.54,0,0,0,2.65,2.71c.53.48.55.53-.23.35l-1-.23C52.73,115.37,53.44,114.14,52.06,114.14Zm18.34,8.39c.28.84.55,1.68.82,2.52C27.37,108.7,35.43,93.68,23.57,82.73,50.81,96.77,56,112,70.4,122.53Z" transform="translate(-18.13 -61.08)"/><path class="cls-3" d="M70.81,123.79l.41,1.26C48.64,116.63,39.83,108.57,35,101.23l6.48,2.7,4.09,3.93h0c-1.45-.63-2.48-1-2.48-1,1.27,2,7.63,7.27,9,7.28s.67,1.23,3.61,1.91l1,.23c.78.18.76.13.23-.35a25.54,25.54,0,0,1-2.65-2.71,15.37,15.37,0,0,0,4.69,1.18,28,28,0,0,0,4.26,5,23.44,23.44,0,0,0,7.65,4.4" transform="translate(-18.13 -61.08)"/><path class="cls-3" d="M71.05,87.16c.84-1.1.56-9.33-.28-11.57,0,0-2.68,8.42-1.75,12.71a26.69,26.69,0,0,1,.53,3.75c0,.72.08.76.41,0,.11-.22.24-.52.41-.9,1.25-2.74-.16-2.93.68-4m-1,29.34-1.74-5.12c2.06-5.92.75-12.45-.58-19-2.91-19.34,5.63-22.57,11.76-31.32C85.07,83.6,75.16,86.89,73,99.79A74,74,0,0,0,70.08,116.5Z" transform="translate(-18.13 -61.08)"/><path class="cls-3" d="M44.41,89.1c-3.23.36-14.64-9.46-15.75-11.08,0,0,14.7,9.59,16.61,10.34a8.68,8.68,0,0,1,3.11,2c.45.37.47.41-.17.29l-.8-.15c-2.41-.45-1.88-1.48-3-1.44M36.09,74a3.87,3.87,0,0,1-1.83-1.26c-.82-1.83,2.77,1.36,3.48,1.39,1,0,2.35,2.17,1.15,1.58A26.72,26.72,0,0,0,36.09,74ZM61.75,99.17A25.89,25.89,0,0,0,55.45,95c-10.05-5.61-19,.37-37.32-30.2,20.94,5.74,27.55,12.18,31.8,18.75,3.74,4.3,8.25,7.19,11.21,12.92Z" transform="translate(-18.13 -61.08)"/><path class="cls-4" d="M44.1,260.5c1.76-9.26-.4-19.15-4.15-30.57h0l5.92.17-7.69-5.36c-2.19-6.26-4.73-13-7.28-20.3-12.82-32-1.95-51.62,12.24-62.31,3.38-3.93,6.37-7.91,7.31-12.15,1.45-6.14,3.26-5.49,2.24.31-2.19,15.21,20.63,29.48,14.1,43.26-.08.17-.14.34-.21.51l-5.31,5.77,6-.6c4.73,5.75-4.49,21.69,1.47,37.51a44.64,44.64,0,0,1,3,18.2l-6.84,6.41,5.84-1,.42-.16a49.44,49.44,0,0,1-2.55,9.16c-1.24,3.74-2.6,7.52-3.58,11.18Z" transform="translate(-18.13 -61.08)"/><path class="cls-5" d="M58.13,260.5,60,258.94l-.43-.52-2.46,2.08Zm-8.25-114c-6.92,11.31-6,25.36-2.76,40.21L35.59,175.27l-.47.47L47.38,188c1.25,5.56,2.79,11.23,4.32,16.9.8,2.93,1.59,5.85,2.34,8.77L42.58,202.2l-.48.48,12.27,12.2a154.11,154.11,0,0,1,3.74,18.51L46.47,221.8l-.48.48,12.25,12.18a56.48,56.48,0,0,1-.3,16.83L46.05,239.46l-.47.48,12.2,12.14a34.38,34.38,0,0,1-2.89,8.42h.74a40.89,40.89,0,0,0,3.76-18.57l5.86-5.48-.46-.49L59.38,241a98.79,98.79,0,0,0-2.49-18.46l5.86-8.09-.54-.39L56.7,221.7c-1.25-5.61-2.8-11.32-4.35-17-.75-2.77-1.5-5.53-2.21-8.28l9-9.7-.49-.46-8.74,9.39c-2.54-9.84-4.59-19.5-4.6-28.43l10.13-6.15-.35-.57-9.77,5.94c.09-7.1,1.53-13.71,5.1-19.55Z" transform="translate(-18.13 -61.08)"/><path class="cls-6" d="M183,260.5c.64-16.12,4.74-29,10.79-39.62l3.79,2.76-1.07-7.19c17.24-26.17,46.31-37.51,59.39-51-5.32,7.88-9.47,17.1-13.21,26.78h0l-7.1,1.59,5.23,3.38h0c-8.63,23.34-15.72,48.43-31.75,63.35Z" transform="translate(-18.13 -61.08)"/><path class="cls-7" d="M189.75,260.5q4.25-8.13,8.9-16.06l16.69-2.11-.07-.53-16.27,2q4.5-7.65,9.39-15.15l16.69-2.1-.07-.54-16.24,2.05,1.43-2.17q4.22-6.36,8.67-12.61L232,211.4l-.08-.53-12.63,1.85q11.4-15.91,24.36-31.16l-.41-.35q-8.2,9.69-15.82,19.62l-.56-10.32-.54,0,.6,11q-6,7.86-11.57,15.88l-1.88-10.92-.53.09,2,11.46q-2.64,3.8-5.18,7.64-3.52,5.33-6.86,10.72l-2.36-11.25-.53.11L202.48,237q-4.41,7.17-8.5,14.49l-2.35-11.21-.53.11,2.48,11.82q-2.27,4.11-4.44,8.26Z" transform="translate(-18.13 -61.08)"/></g></g></g></svg>