<svg xmlns="http://www.w3.org/2000/svg" viewBox="0 0 174.43 16.2"><defs><style>.cls-1{fill:#fff;}</style></defs><g id="Layer_2" data-name="Layer 2"><g id="Layer_1-2" data-name="Layer 1"><path class="cls-1" d="M8,10a3.79,3.79,0,0,1-4,2.34C1.2,12.13,0,9.17,0,6.52S1.2.75,4,.75a4.81,4.81,0,0,1,2.19.52l.71.28a1.15,1.15,0,0,0,.48.13.5.5,0,0,0,.43-.27H8L6.75,5.69H6.67c-.25-1.57-1.51-4.5-3.23-4.5a1.65,1.65,0,0,0-.67.14C1.3,2,1.51,4.94,2.36,7.19,3,9,4.47,11.47,5.9,11.47c.62,0,1.23-.43,1.79-1.52Z"/><path class="cls-1" d="M10.62,7.85A18.42,18.42,0,0,1,13.83,7c-.13-1.46-.64-2.85-2-2.77-1.12,0-1.73,1.54-1.23,3.2h-.08L8.85,5.69a4.65,4.65,0,0,1,4-1.84,4.67,4.67,0,0,1,2.85,1.58,3.93,3.93,0,0,1,.59,1.8V9.85c0,1.29.34,1.89,1,2.2v.08H16.28A2.22,2.22,0,0,1,13.92,10a4.1,4.1,0,0,1-3.52,2.3A1.92,1.92,0,0,1,8.3,10C8.46,9.17,9.79,8.19,10.62,7.85Zm3.29,1c0-.43,0-1-.05-1.56a4.2,4.2,0,0,0-3,2.65c-.24.83-.06,1.74.63,1.74,1,0,2.27-1.61,2.45-2.53Z"/><path class="cls-1" d="M18.72.43a6.76,6.76,0,0,0,2.4-.32V9.85c0,1.29.34,1.89,1,2.2v.08H17.67v-.08c.71-.31,1-.91,1-2.2V2.71c0-1.28-.34-1.89-1-2.2V.43Z"/><path class="cls-1" d="M31,9.85c0,1.29.33,1.89,1,2.2v.08H31a2.24,2.24,0,0,1-2.37-2.37V8.35c0-1.8.08-3.69-.75-4.09a1,1,0,0,0-.4-.09c-.69,0-1.25.75-1.55,1.58v4.1c0,1.29.33,1.89,1,2.2v.08H22.48v-.08c.71-.31,1-.91,1-2.2V6.39c0-1.28-.33-1.89-1-2.19V4.12h1a6.82,6.82,0,0,0,2.41-.32V5a2,2,0,0,1,1.85-1.19,2.85,2.85,0,0,1,2.65,1.62,2.59,2.59,0,0,1,2.43-1.62c2.29,0,3.3,2.23,3.26,4.54v1.5c0,1.29.33,1.89,1,2.2v.08H36.08a2.24,2.24,0,0,1-2.37-2.37V8.35c0-1.8.08-3.69-.75-4.09a1.13,1.13,0,0,0-.45-.09,2.56,2.56,0,0,0-1.94,1.58A6.4,6.4,0,0,1,31,8.35Z"/><path class="cls-1" d="M38.52,4.12a6.73,6.73,0,0,0,2.4-.32V9.85c0,1.29.34,1.89,1,2.2v.08H37.48v-.08c.7-.31,1-.91,1-2.2V6.39c0-1.28-.34-1.89-1-2.19V4.12ZM39.75,0A1.14,1.14,0,0,1,41,1.2a1.21,1.21,0,0,1-2.41,0A1.13,1.13,0,0,1,39.75,0Z"/><path class="cls-1" d="M43.33,4.12a6.73,6.73,0,0,0,2.4-.32V5.26a2.58,2.58,0,0,1,2.36-1.45c2.29,0,3.3,2.23,3.25,4.54v1.5c0,1.29.34,1.89,1,2.2v.08H51.31a2.24,2.24,0,0,1-2.37-2.37V8.35c0-1.8.08-3.69-.76-4.09a1.13,1.13,0,0,0-.45-.09,2.61,2.61,0,0,0-2,1.76V9.85c0,1.29.34,1.89,1,2.2v.08H42.29v-.08c.7-.31,1-.91,1-2.2V6.39c0-1.28-.34-1.89-1-2.19V4.12Z"/><path class="cls-1" d="M56.64,3.81a4.05,4.05,0,0,0,3.94-2.4h.09v2.4a16.13,16.13,0,0,1-2.54.24,3.68,3.68,0,0,1,2.52,3.46,3.39,3.39,0,0,1-2,3.15,3,3,0,0,1,1.92,3.71c-.41,1.35-2.13,1.83-3.65,1.83A7,7,0,0,1,55.17,16c-1.68-.45-2.42-1.36-2.52-2.2a1.41,1.41,0,0,1,1.27-1.63c1.23-.08,3,1,3.88,1,.21,0,.32-.08.35-.23a.57.57,0,0,0-.18-.53,2.24,2.24,0,0,0-.91-.46v-.08l.3,0a1.54,1.54,0,0,1,.92.37.71.71,0,0,1,.14.85c-.22.42-1.09.62-1.78.72-.51.07-1.68.16-2,.23-1.08.22-.79,1.41.67,1.65s2.47-.66,3.23-2.39a2.07,2.07,0,0,0-.25-2.5,4.78,4.78,0,0,1-1.64.29,3.72,3.72,0,0,1-4-3.58A3.8,3.8,0,0,1,56.64,3.81ZM58,10.5a1,1,0,0,0,.42-.1c1-.42.53-2.1-.39-3.54s-2-2.37-2.85-2.37a.81.81,0,0,0-.35.06c-1,.35-.51,2.15.4,3.61C56,9.36,57.12,10.5,58,10.5Z"/><path class="cls-1" d="M65.1,12.13v-.08c.71-.31,1.05-.91,1.05-2.2V3.19c0-1.28-.34-1.89-1.05-2.2V.91h4.49V1c-.7.31-1,.92-1,2.2v8.62h.74A5.27,5.27,0,0,0,74.08,9h.08l-.48,3.13Z"/><path class="cls-1" d="M76.77,7.85A18.57,18.57,0,0,1,80,7c-.12-1.46-.64-2.85-2-2.77-1.12,0-1.73,1.54-1.24,3.2h-.08L75,5.69a4.27,4.27,0,0,1,6.87-.26,4,4,0,0,1,.6,1.8V9.85c0,1.29.33,1.89,1,2.2v.08H82.42A2.21,2.21,0,0,1,80.07,10a4.12,4.12,0,0,1-3.53,2.3A1.91,1.91,0,0,1,74.45,10C74.61,9.17,75.94,8.19,76.77,7.85Zm3.28,1c0-.43,0-1,0-1.56a4.18,4.18,0,0,0-3,2.65c-.24.83-.07,1.74.62,1.74,1,0,2.28-1.61,2.45-2.53Z"/><path class="cls-1" d="M83.79,6.3A3.69,3.69,0,0,0,82,4.2V4.12h4.5V4.2c-.61.25-.44,1.09-.22,1.82l1.94,5.42,1-2.77c.55-2,.37-3.77-1.17-4.47V4.12h4.5V4.2c-1.15.53-2,2.06-2.85,4.1l-1.38,3.83h0a3.38,3.38,0,0,1-3.17-2.24Z"/><path class="cls-1" d="M99.7,5.7c.93,1.77-.19,3.14-2,3.14a5.12,5.12,0,0,1-3.3-1.39c.45,1.46,1.92,4.05,3.46,4.05.7,0,1.33-.49,1.89-1.5h.35a4,4,0,0,1-3.7,2.29,4,4,0,0,1-4-4.17,4.13,4.13,0,0,1,3.32-4.26A3.91,3.91,0,0,1,99.7,5.7ZM96.64,8.16c.7,0,1.18-.49.88-1.66-.37-1.4-1.12-2.27-1.94-2.27a1,1,0,0,0-.48.11,2.21,2.21,0,0,0-.9,2.49A3.58,3.58,0,0,0,96.64,8.16Z"/><path class="cls-1" d="M101.25,4.12a6.79,6.79,0,0,0,2.41-.32V5.26A2.58,2.58,0,0,1,106,3.81c2.29,0,3.3,2.23,3.26,4.54v1.5c0,1.29.33,1.89,1,2.2v.08h-1.08a2.24,2.24,0,0,1-2.37-2.37V8.35c0-1.8.08-3.69-.75-4.09a1.17,1.17,0,0,0-.45-.09,2.58,2.58,0,0,0-2,1.76V9.85c0,1.29.33,1.89,1,2.2v.08h-4.49v-.08c.71-.31,1-.91,1-2.2V6.39c0-1.28-.33-1.89-1-2.19V4.12Z"/><path class="cls-1" d="M116.16.43a6.76,6.76,0,0,0,2.4-.32V9.85c0,1.29.34,1.89,1,2.2v.08h-1.07A2.21,2.21,0,0,1,116.17,10c-.35,1.32-1.1,2.37-2.43,2.29-1.88-.08-3.19-2.25-3.19-4.32,0-2.68,1.33-4.17,3.27-4.17a2.52,2.52,0,0,1,2.34,1.33V2.71c0-1.28-.34-1.89-1-2.2V.43Zm0,5.42a2.5,2.5,0,0,0-2-1.68,1.19,1.19,0,0,0-.47.09c-.88.4-1.17,2-.77,3.72a17.53,17.53,0,0,0,.61,1.94c.27.66.71,1.41,1.2,1.41a.77.77,0,0,0,.5-.24,4.69,4.69,0,0,0,.9-2.76Z"/><path class="cls-1" d="M126.91,5.7c.93,1.77-.2,3.14-2,3.14a5.1,5.1,0,0,1-3.3-1.39c.44,1.46,1.92,4.05,3.46,4.05.7,0,1.33-.49,1.89-1.5h.35a4,4,0,0,1-3.7,2.29,4,4,0,0,1-4-4.17,4.12,4.12,0,0,1,3.32-4.26A3.91,3.91,0,0,1,126.91,5.7Zm-3.06,2.46c.7,0,1.18-.49.88-1.66-.37-1.4-1.12-2.27-1.94-2.27a1,1,0,0,0-.48.11,2.2,2.2,0,0,0-.9,2.49A3.58,3.58,0,0,0,123.85,8.16Z"/><path class="cls-1" d="M128.46,4.12a6.82,6.82,0,0,0,2.41-.32V5A2.83,2.83,0,0,1,133,3.83a3.08,3.08,0,0,1,2.3.87l-1.11,2.13h-.08c-.3-1.43-1-2.15-1.79-2.15a1.63,1.63,0,0,0-1.41.88V9.85c0,1.29.33,1.89,1,2.2v.08h-4.49v-.08c.71-.31,1-.91,1-2.2V6.39c0-1.28-.33-1.89-1-2.19V4.12Z"/><path class="cls-1" d="M146.62,5.69c-.28-1.78-1.32-4.55-3-4.63-1.52-.1-2.2,1.47-1.22,2.95a5.7,5.7,0,0,0,2,1.57c.41.24.84.46,1.28.7a5.48,5.48,0,0,1,2,1.67A2.08,2.08,0,0,1,148,9.12c0,2.11-1.79,3.17-3.81,3.17a5.36,5.36,0,0,1-2.5-.59l-.3-.16a2.88,2.88,0,0,0-1.16-.44.51.51,0,0,0-.45.26h-.16l1.24-4.28H141c.53,2,1.55,4.89,3.28,4.89s2.64-1.75,1.38-2.8c-.58-.49-2.74-1.54-3.29-1.9a5.82,5.82,0,0,1-2-2A2.67,2.67,0,0,1,140,4c0-2,1.66-3.25,3.65-3.25a5.85,5.85,0,0,1,2.68.65,2.62,2.62,0,0,0,1,.31.53.53,0,0,0,.48-.29h.16L146.7,5.69Z"/><path class="cls-1" d="M152.35,3.81a4.11,4.11,0,0,1,4,4.31,4,4,0,1,1-8,0A4.11,4.11,0,0,1,152.35,3.81Zm1.41,7.81a1,1,0,0,0,.42-.1c1-.5.48-2.52-.42-4.15-.78-1.46-1.92-2.84-2.88-2.84a.74.74,0,0,0-.34.07c-1,.42-.49,2.61.42,4.28C151.71,10.25,152.82,11.62,153.76,11.62Z"/><path class="cls-1" d="M159.05,7.85A18.42,18.42,0,0,1,162.26,7c-.13-1.46-.64-2.85-2-2.77-1.12,0-1.73,1.54-1.23,3.2H159l-1.69-1.71a4.28,4.28,0,0,1,6.88-.26,3.93,3.93,0,0,1,.59,1.8V9.85c0,1.29.34,1.89,1,2.2v.08h-1.07A2.21,2.21,0,0,1,162.35,10a4.1,4.1,0,0,1-3.52,2.3,1.92,1.92,0,0,1-2.1-2.33C156.89,9.17,158.22,8.19,159.05,7.85Zm3.29,1c0-.43,0-1-.05-1.56a4.2,4.2,0,0,0-3,2.65c-.24.83-.06,1.74.63,1.74,1,0,2.27-1.61,2.45-2.53Z"/><path class="cls-1" d="M168.83,10.05v3.81c0,1.28.33,1.89,1,2.19v.08h-4.49v-.08c.71-.3,1-.91,1-2.19V6.39c0-1.28-.33-1.89-1-2.19V4.12h1a6.82,6.82,0,0,0,2.41-.32V5.14a2.49,2.49,0,0,1,2.34-1.33c1.93,0,3.26,1.49,3.26,4.17,0,2.08-1.29,4.24-3.18,4.32C169.93,12.38,169.16,11.33,168.83,10.05Zm0-1.72a4.6,4.6,0,0,0,.89,2.76.82.82,0,0,0,.5.24c.5,0,.93-.75,1.2-1.41A13.3,13.3,0,0,0,172,8c.4-1.75.11-3.32-.77-3.72a1.14,1.14,0,0,0-.46-.09,2.49,2.49,0,0,0-2,1.68Z"/></g></g></svg>