<svg xmlns="http://www.w3.org/2000/svg" viewBox="0 0 24.43 30.48"><defs><style>.cls-1{fill:#fff;}.cls-2{fill:#92beff;}.cls-3{fill:#0e478c;}</style></defs><g id="Layer_2" data-name="Layer 2"><g id="Layer_1-2" data-name="Layer 1"><path class="cls-1" d="M6.05,23.54V23c0-.45-.12-.67-.37-.77v0H7.26v0c-.25.1-.37.32-.37.77v.18c0,.45.12.67.37.77v0a1.44,1.44,0,0,1-.81-.14c-.12-.07-.24-.18-.3-.18a.16.16,0,0,0-.1,0,.89.89,0,0,1-.57.34.92.92,0,0,1-.76-.3,1.69,1.69,0,0,1-.27-.36,2.69,2.69,0,0,1-.33-.91,2.6,2.6,0,0,1,0-.46c0-.93.42-2,1.4-2a1.66,1.66,0,0,1,.77.19l.25.1a.38.38,0,0,0,.17,0,.18.18,0,0,0,.15-.09h.06l-.43,1.5h0c-.11-.66-.57-1.59-1.14-1.59a.46.46,0,0,0-.23.06.76.76,0,0,0-.38.73,4.53,4.53,0,0,0,.23,1.33c.2.64.71,1.46,1.1,1.33A.08.08,0,0,0,6.05,23.54Z"/><path class="cls-1" d="M9.92,21.76c.33.62-.06,1.11-.72,1.11A1.84,1.84,0,0,1,8,22.38c.16.51.68,1.42,1.22,1.42.25,0,.47-.17.66-.53h.13a1.42,1.42,0,0,1-1.3.81,1.4,1.4,0,0,1-1.41-1.46,1.45,1.45,0,0,1,1.17-1.5A1.37,1.37,0,0,1,9.92,21.76Zm-1.07.87c.25,0,.41-.17.31-.58s-.4-.8-.68-.8a.31.31,0,0,0-.17,0c-.25.1-.39.44-.32.87A1.25,1.25,0,0,0,8.85,22.63Z"/><path class="cls-1" d="M10.47,21.21a2.25,2.25,0,0,0,.85-.12v.52a.9.9,0,0,1,.83-.51c.8,0,1.15.78,1.14,1.59v.53c0,.45.12.67.36.77v0h-.37a.79.79,0,0,1-.84-.83v-.5c0-.63,0-1.29-.26-1.43a.42.42,0,0,0-.16,0c-.29,0-.58.31-.7.62v1.38c0,.45.12.67.36.77v0H10.11v0c.24-.1.36-.32.36-.77V22c0-.45-.12-.67-.36-.77v0Z"/><path class="cls-1" d="M14.19,20.37a2.44,2.44,0,0,0,.73-.11v.95h.52v.11h-.52v1.45c-.54.39-.54,1.14-.11,1.17a.34.34,0,0,0,.42-.36A1.65,1.65,0,0,0,15.1,23v0l.72.44a1.09,1.09,0,0,1-1,.64c-.53,0-.77-.65-.77-1.22V21.32h-.23v-.11h.23v0c0-.45-.12-.66-.37-.77v0Z"/><path class="cls-1" d="M16.3,19.91a2.54,2.54,0,0,0,.85-.11v3.42c0,.45.11.67.36.77v0H15.93v0c.25-.1.37-.32.37-.77V20.71c0-.45-.12-.66-.37-.77v0Z"/><path class="cls-1" d="M20.23,21.76c.33.62-.06,1.11-.72,1.11a1.84,1.84,0,0,1-1.16-.49c.16.51.68,1.42,1.22,1.42.25,0,.47-.17.66-.53h.13a1.42,1.42,0,0,1-1.3.81,1.4,1.4,0,0,1-1.41-1.46,1.45,1.45,0,0,1,1.17-1.5A1.37,1.37,0,0,1,20.23,21.76Zm-1.07.87c.25,0,.41-.17.31-.58s-.4-.8-.68-.8a.31.31,0,0,0-.17,0c-.25.1-.39.44-.32.87A1.25,1.25,0,0,0,19.16,22.63Z"/><path class="cls-1" d="M2,25a2.29,2.29,0,0,0,.85-.12v3.43c0,.45.11.66.36.77v0H2.8A.78.78,0,0,1,2,28.34c-.13.47-.39.84-.86.81-.66,0-1.12-.8-1.12-1.52,0-.94.47-1.46,1.15-1.46a.88.88,0,0,1,.82.46v-.85c0-.45-.12-.67-.37-.78v0Zm0,1.9a.89.89,0,0,0-.69-.59.51.51,0,0,0-.17,0c-.3.14-.41.69-.27,1.31a6.6,6.6,0,0,0,.22.68c.09.23.25.5.42.5a.28.28,0,0,0,.18-.09,1.65,1.65,0,0,0,.31-1Z"/><path class="cls-1" d="M4,27.58a7.93,7.93,0,0,1,1.12-.31c0-.51-.22-1-.69-1s-.61.54-.44,1.13H4l-.59-.61a1.63,1.63,0,0,1,1.42-.64,1.69,1.69,0,0,1,1,.55,1.44,1.44,0,0,1,.21.63v.93c0,.45.12.66.36.77v0H6a.78.78,0,0,1-.83-.75,1.45,1.45,0,0,1-1.24.81.68.68,0,0,1-.74-.82C3.26,28,3.73,27.7,4,27.58Zm1.15.35c0-.15,0-.35,0-.55a1.46,1.46,0,0,0-1.07.93c-.08.29,0,.61.22.61s.8-.57.86-.89Z"/><path class="cls-1" d="M6.86,26.27a2.5,2.5,0,0,0,.85-.11v2.13c0,.45.12.66.37.77v0H6.5v0c.25-.11.36-.32.36-.77V27.07c0-.45-.11-.66-.36-.77v0Zm.44-1.45a.43.43,0,1,1-.42.43A.4.4,0,0,1,7.3,24.82Z"/><path class="cls-1" d="M8.61,25a2.25,2.25,0,0,0,.85-.12v3.43c0,.45.12.66.36.77v0H8.25v0c.24-.11.36-.32.36-.77V25.78c0-.45-.12-.67-.36-.78v0Z"/><path class="cls-1" d="M10.59,27A1.3,1.3,0,0,0,10,26.3v0h1.58v0c-.21.09-.16.38-.08.64l.68,1.9.35-1c.19-.69.13-1.32-.41-1.57v0h1.58v0a2.66,2.66,0,0,0-1,1.44l-.48,1.35c-.24.62-.64,1.4-1.33,1.39a1.1,1.1,0,0,1-.9-.66l.72-.44v0c-.15.34-.11.95.26.95s.94-.71,1.12-1.27h.12A1.2,1.2,0,0,1,11,28.3Z"/><path class="cls-1" d="M15.55,27.07c0-.45-.12-.66-.37-.77v0h1.58v0c-.25.11-.37.32-.37.77v.47c0,.6,0,1.33.27,1.44l.14,0c.42,0,.68-.79.72-1.14v-.8c0-.45-.12-.66-.37-.77v0h1.58v0c-.25.11-.37.32-.37.77v1.22c0,.45.12.66.37.77v0h-.37a.79.79,0,0,1-.84-.76.93.93,0,0,1-.83.81c-.81,0-1.16-.79-1.14-1.6Z"/><path class="cls-1" d="M19.72,26.82c.08.24.63.45.94.56s.87.41.94.74c.14.69-.72,1.08-1.43,1.05a1.82,1.82,0,0,1-1.35-.75l.59-.61h0c-.14.43,0,1,.37,1.19a1,1,0,0,0,.36.06c.54,0,.85-.58.5-.8a10.81,10.81,0,0,0-1.09-.46c-.4-.18-.69-.45-.64-.88s.62-.75,1.14-.75a1.81,1.81,0,0,1,1.42.65l-.6.6h0c.19-.63-.06-1.14-.73-1.17A.43.43,0,0,0,19.72,26.82Z"/><path class="cls-1" d="M24.31,26.83c.32.62-.07,1.1-.72,1.1a1.76,1.76,0,0,1-1.16-.49c.16.52.67,1.43,1.21,1.43.25,0,.47-.18.67-.53h.12a1.42,1.42,0,0,1-2.7-.66,1.46,1.46,0,0,1,1.17-1.5A1.38,1.38,0,0,1,24.31,26.83Zm-1.08.86c.25,0,.42-.17.31-.58s-.39-.8-.68-.8a.33.33,0,0,0-.17,0,.76.76,0,0,0-.31.87A1.23,1.23,0,0,0,23.23,27.69Z"/><path class="cls-1" d="M12.05,18a8.82,8.82,0,1,1,8.82-8.82A8.84,8.84,0,0,1,12.05,18Z"/><path class="cls-2" d="M12.05.71A8.47,8.47,0,1,1,3.58,9.18,8.47,8.47,0,0,1,12.05.71m0-.71a9.18,9.18,0,1,0,9.18,9.18A9.19,9.19,0,0,0,12.05,0Z"/><path class="cls-3" d="M17,11a.12.12,0,0,1,.07-.17.13.13,0,0,1,.16.07,2.14,2.14,0,0,1,.13.48.12.12,0,0,1-.11.14h0a.13.13,0,0,1-.12-.11A1.85,1.85,0,0,0,17,11Zm-.57-.75a1.77,1.77,0,0,1,.31.3.12.12,0,0,0,.1.05l.08,0a.12.12,0,0,0,0-.17,1.93,1.93,0,0,0-.35-.35.12.12,0,0,0-.18,0,.14.14,0,0,0,0,.18Zm-.86-.37A2.17,2.17,0,0,1,16,10h0a.13.13,0,0,0,.12-.08.12.12,0,0,0-.07-.17,1.88,1.88,0,0,0-.48-.12.12.12,0,0,0-.14.1A.13.13,0,0,0,15.56,9.85Zm1.94,2.56h-.07a.14.14,0,0,1-.11-.06l-.05-.09a2.06,2.06,0,0,1-2,1.44,2.08,2.08,0,0,1-1.8-1,4.79,4.79,0,0,1-1.11,1.07,2.12,2.12,0,0,1-1.14.36H11.1a2.72,2.72,0,0,1-1.65-.9,9.88,9.88,0,0,1-1.6-2.37,3.74,3.74,0,0,1-.17-3.46l0-.07V6.41A2.34,2.34,0,0,1,9.08,4.28a2.11,2.11,0,0,1,2.2.17,3.28,3.28,0,0,1,3.28,1,1.73,1.73,0,0,1,.27,1.91,3.85,3.85,0,0,1,.27,2.21.1.1,0,0,1,.05.08.13.13,0,0,1-.11.15,1.81,1.81,0,1,0,2,2.32l-.13.07a.11.11,0,0,1-.17-.05.12.12,0,0,1,0-.17l.38-.21a.11.11,0,0,1,.1,0,.11.11,0,0,1,.07.06l.22.37a.14.14,0,0,1-.05.18ZM14.6,7.53a11.57,11.57,0,0,0-2.89.4,3.74,3.74,0,0,1,1.21.69A5,5,0,0,1,14.06,10a2,2,0,0,1,.78-.36,3.65,3.65,0,0,0-.24-2.1ZM8,6.83A5.25,5.25,0,0,1,9.1,5.52a5.09,5.09,0,0,1,1.85-1,1.88,1.88,0,0,0-1.76,0A2.09,2.09,0,0,0,8,6.41Zm.11,3.88h0l0,.08A4.45,4.45,0,0,1,10.69,8a10.3,10.3,0,0,1,3.92-.77,1.47,1.47,0,0,0-.25-1.61,3,3,0,0,0-3.08-.94h0A4.92,4.92,0,0,0,7.92,7.47,3.49,3.49,0,0,0,8.07,10.71Zm5.31,1.7a1.92,1.92,0,0,1-.15-.77,2.07,2.07,0,0,1,.51-1.36l.12-.12a4,4,0,0,0-2.63-2.07h0a4.3,4.3,0,0,0-2.94,3c1,1.73,1.91,2.65,2.83,2.73C11.86,13.9,12.62,13.42,13.38,12.41Zm1.91-.63h.86a.12.12,0,0,0,.12-.13.12.12,0,0,0-.12-.12h-.73V10.47a.13.13,0,0,0-.26,0v1.18a.13.13,0,0,0,.13.13ZM12,12.22a1.83,1.83,0,0,1-1.55,0,.13.13,0,0,0-.17.06.12.12,0,0,0,.07.17,2.2,2.2,0,0,0,.88.2,2.13,2.13,0,0,0,.88-.2.13.13,0,0,0-.11-.23ZM10.8,10.39a.13.13,0,0,0,0-.18,1.1,1.1,0,0,0-1.23,0,.13.13,0,0,0,0,.17.14.14,0,0,0,.11.06h.07a.83.83,0,0,1,1,0,.13.13,0,0,0,.18,0ZM13,10.21a1.1,1.1,0,0,0-1.23,0,.13.13,0,0,0-.05.17.13.13,0,0,0,.11.06h.07a.83.83,0,0,1,1,0,.13.13,0,0,0,.18,0,.13.13,0,0,0,0-.18Z"/></g></g></svg>