<svg xmlns="http://www.w3.org/2000/svg" viewBox="0 0 246.46 15.4"><defs><style>.cls-1{fill:#fff;}</style></defs><g id="Layer_2" data-name="Layer 2"><g id="Layer_1-2" data-name="Layer 1"><path class="cls-1" d="M5.57,15.15V9.36L0,.77H3.62L7.19,6.56h.1L10.83.77h3.42L8.71,9.36v5.79Z"/><path class="cls-1" d="M18.73,15.4a6.93,6.93,0,0,1-3.06-.62,4.16,4.16,0,0,1-1.91-1.91,7.17,7.17,0,0,1-.65-3.23,7.16,7.16,0,0,1,.65-3.26,4.21,4.21,0,0,1,1.91-1.89,6.93,6.93,0,0,1,3.06-.61,7,7,0,0,1,3.09.61,4.17,4.17,0,0,1,1.89,1.89,7,7,0,0,1,.65,3.26,7,7,0,0,1-.65,3.23,4.12,4.12,0,0,1-1.89,1.91A6.94,6.94,0,0,1,18.73,15.4Zm0-2.27a2.9,2.9,0,0,0,1.54-.35,2.15,2.15,0,0,0,.85-1.09,5.25,5.25,0,0,0,.27-1.8V9.38a5.25,5.25,0,0,0-.27-1.8,2.22,2.22,0,0,0-.85-1.1,2.9,2.9,0,0,0-1.54-.36,2.83,2.83,0,0,0-1.52.36,2.12,2.12,0,0,0-.85,1.1,5.25,5.25,0,0,0-.27,1.8v.51a5.25,5.25,0,0,0,.27,1.8,2.05,2.05,0,0,0,.85,1.09A2.83,2.83,0,0,0,18.73,13.13Z"/><path class="cls-1" d="M30.06,15.4a3.76,3.76,0,0,1-2.66-.92,3.92,3.92,0,0,1-1-3V4.13h2.91V11a3,3,0,0,0,.12.91,1.65,1.65,0,0,0,.37.6,1.46,1.46,0,0,0,.6.33,2.74,2.74,0,0,0,.79.11,2.24,2.24,0,0,0,1.18-.32,2.13,2.13,0,0,0,.81-.87,2.56,2.56,0,0,0,.3-1.24V4.13h2.91v11H34l-.21-1.51h-.15a4.51,4.51,0,0,1-.93.92,4.4,4.4,0,0,1-1.2.62A4.92,4.92,0,0,1,30.06,15.4Z"/><path class="cls-1" d="M46,15.15l-4.1-11H45l1.61,4.65c.08.23.19.55.3.94s.25.8.37,1.24.23.82.32,1.17h.1c.1-.32.2-.7.31-1.12s.23-.84.35-1.24l.3-1L50.3,4.13h2.93l-4.13,11Z"/><path class="cls-1" d="M54.65,2.51V0h2.92V2.51Zm0,12.64v-11h2.92v11Z"/><path class="cls-1" d="M64.71,15.4a8.15,8.15,0,0,1-2.07-.25,5.22,5.22,0,0,1-1.58-.71,3.17,3.17,0,0,1-1-1.08,2.87,2.87,0,0,1-.35-1.42v-.17a.21.21,0,0,1,0-.12h2.8v.16a1.26,1.26,0,0,0,.34.85,1.71,1.71,0,0,0,.82.47,3.91,3.91,0,0,0,1.08.15,5.25,5.25,0,0,0,1-.09,1.91,1.91,0,0,0,.79-.35.78.78,0,0,0,.33-.65.88.88,0,0,0-.41-.77A3.45,3.45,0,0,0,65.41,11L64,10.6c-.48-.11-.95-.24-1.43-.39a5.8,5.8,0,0,1-1.29-.57,2.88,2.88,0,0,1-.93-.94A2.69,2.69,0,0,1,60,7.25a2.93,2.93,0,0,1,.37-1.5,3.1,3.1,0,0,1,1-1.06,5,5,0,0,1,1.55-.62,8.93,8.93,0,0,1,1.92-.19,8,8,0,0,1,1.8.19,5.14,5.14,0,0,1,1.47.59,3.1,3.1,0,0,1,1,1,2.41,2.41,0,0,1,.35,1.29v.28a.32.32,0,0,1,0,.16H66.66V7.19a.93.93,0,0,0-.23-.64,1.55,1.55,0,0,0-.66-.41,3.17,3.17,0,0,0-1-.15,4.42,4.42,0,0,0-.76.06,2.83,2.83,0,0,0-.6.19,1.14,1.14,0,0,0-.39.31.69.69,0,0,0-.13.43.67.67,0,0,0,.3.57,2.55,2.55,0,0,0,.81.37l1.11.31c.5.14,1,.28,1.58.41a7.57,7.57,0,0,1,1.54.54,2.89,2.89,0,0,1,1.15,1,2.84,2.84,0,0,1,.44,1.66,3.42,3.42,0,0,1-.39,1.7,3,3,0,0,1-1.08,1.11,5.14,5.14,0,0,1-1.61.61A10.42,10.42,0,0,1,64.71,15.4Z"/><path class="cls-1" d="M71.89,2.51V0h2.92V2.51Zm0,12.64v-11h2.92v11Z"/><path class="cls-1" d="M80.78,15.4a3.37,3.37,0,0,1-1.7-.38,2.2,2.2,0,0,1-.94-1,3.24,3.24,0,0,1-.3-1.41V6.37H76.48V4.13H78L78.49,1h2.27V4.13h2V6.37h-2v5.74a1.08,1.08,0,0,0,.23.76.92.92,0,0,0,.75.26h1v1.93a5.47,5.47,0,0,1-.59.16,7,7,0,0,1-.71.12A4.39,4.39,0,0,1,80.78,15.4Z"/><path class="cls-1" d="M89.66,15.4a6.81,6.81,0,0,1-3.06-.62,4.08,4.08,0,0,1-1.86-1.9,7.31,7.31,0,0,1-.63-3.24,7.31,7.31,0,0,1,.63-3.26,4.08,4.08,0,0,1,1.85-1.89,6.67,6.67,0,0,1,3-.61,6,6,0,0,1,2.82.59,3.83,3.83,0,0,1,1.74,1.85,7.57,7.57,0,0,1,.59,3.21v.76H87.06a5,5,0,0,0,.31,1.63,1.83,1.83,0,0,0,.81,1,3.39,3.39,0,0,0,2.39.2,2,2,0,0,0,.7-.37,1.71,1.71,0,0,0,.46-.63,2.13,2.13,0,0,0,.17-.86h2.85a4.11,4.11,0,0,1-.38,1.82,3.56,3.56,0,0,1-1,1.29,4.93,4.93,0,0,1-1.61.78A7.79,7.79,0,0,1,89.66,15.4Zm-2.56-7h4.65a3.54,3.54,0,0,0-.15-1.09,2.17,2.17,0,0,0-.43-.75,1.55,1.55,0,0,0-.66-.43A2.65,2.65,0,0,0,89.64,6a3.06,3.06,0,0,0-1.33.26,1.81,1.81,0,0,0-.82.8A4,4,0,0,0,87.1,8.44Z"/><path class="cls-1" d="M100.78,15.4a4.38,4.38,0,0,1-2.35-.62,3.94,3.94,0,0,1-1.54-1.9,8.24,8.24,0,0,1-.55-3.26,8.16,8.16,0,0,1,.56-3.26,4,4,0,0,1,1.53-1.88,4.21,4.21,0,0,1,2.25-.6A5.64,5.64,0,0,1,102,4a3.49,3.49,0,0,1,1.09.49,3.46,3.46,0,0,1,.8.82H104V0h2.91V15.15h-2.39l-.23-1.49h-.14A3.53,3.53,0,0,1,102.75,15,4.49,4.49,0,0,1,100.78,15.4Zm.93-2.39a2,2,0,0,0,2.09-1.47,5,5,0,0,0,.25-1.69V9.47a6.15,6.15,0,0,0-.13-1.34,3,3,0,0,0-.43-1,2,2,0,0,0-.74-.63,2.38,2.38,0,0,0-1-.22,2.54,2.54,0,0,0-1.41.35,1.89,1.89,0,0,0-.75,1,5.46,5.46,0,0,0-.23,1.75v.48a5.39,5.39,0,0,0,.23,1.74,1.87,1.87,0,0,0,.75,1A2.54,2.54,0,0,0,101.71,13Z"/><path class="cls-1" d="M118.8,15.4a6.93,6.93,0,0,1-3.06-.62,4.16,4.16,0,0,1-1.91-1.91,7.17,7.17,0,0,1-.65-3.23,7.16,7.16,0,0,1,.65-3.26,4.21,4.21,0,0,1,1.91-1.89,8.06,8.06,0,0,1,6.15,0,4.17,4.17,0,0,1,1.89,1.89,7,7,0,0,1,.65,3.26,7,7,0,0,1-.65,3.23,4.12,4.12,0,0,1-1.89,1.91A6.94,6.94,0,0,1,118.8,15.4Zm0-2.27a2.9,2.9,0,0,0,1.54-.35,2.15,2.15,0,0,0,.85-1.09,5.25,5.25,0,0,0,.27-1.8V9.38a5.25,5.25,0,0,0-.27-1.8,2.22,2.22,0,0,0-.85-1.1,2.9,2.9,0,0,0-1.54-.36,2.83,2.83,0,0,0-1.52.36,2.12,2.12,0,0,0-.85,1.1,5.25,5.25,0,0,0-.27,1.8v.51a5.25,5.25,0,0,0,.27,1.8,2.05,2.05,0,0,0,.85,1.09A2.83,2.83,0,0,0,118.8,13.13Z"/><path class="cls-1" d="M130.13,15.4a3.76,3.76,0,0,1-2.66-.92,3.92,3.92,0,0,1-1-3V4.13h2.91V11a3,3,0,0,0,.12.91,1.65,1.65,0,0,0,.37.6,1.46,1.46,0,0,0,.6.33,2.74,2.74,0,0,0,.79.11,2.24,2.24,0,0,0,1.18-.32,2.13,2.13,0,0,0,.81-.87,2.56,2.56,0,0,0,.3-1.24V4.13h2.91v11h-2.39l-.21-1.51h-.15a4.51,4.51,0,0,1-.93.92,4.4,4.4,0,0,1-1.2.62A4.92,4.92,0,0,1,130.13,15.4Z"/><path class="cls-1" d="M139.16,15.15v-11h2.41l.23,1.71H142a4.3,4.3,0,0,1,.54-1,2.44,2.44,0,0,1,.84-.72,2.41,2.41,0,0,1,1.17-.28,2.57,2.57,0,0,1,.65.08,3.65,3.65,0,0,1,.44.13V6.7h-.9a3.33,3.33,0,0,0-1.14.18,2,2,0,0,0-.83.56,2.33,2.33,0,0,0-.49.92,4.43,4.43,0,0,0-.16,1.28v5.51Z"/><path class="cls-1" d="M153,15.15l-3.45-11h3.06L154,9.53c.07.28.14.58.2.9s.12.61.18.86.09.43.12.55h.15c.06-.28.11-.57.18-.87s.12-.59.19-.86l.13-.62,1.32-5.36h3l1.36,5.38c.06.2.11.44.17.72s.12.58.19.86.12.54.16.75h.13a6.62,6.62,0,0,1,.14-.7l.18-.81c.07-.28.13-.53.18-.76l1.36-5.44h2.81l-3.43,11h-3l-1.21-4.93-.21-.89c-.09-.33-.16-.65-.22-1s-.12-.6-.16-.84h-.13a3.49,3.49,0,0,1-.08.58c-.06.25-.12.56-.2.92s-.17.76-.28,1.2L156,15.15Z"/><path class="cls-1" d="M172.53,15.4a6.83,6.83,0,0,1-3.06-.62,4.08,4.08,0,0,1-1.86-1.9A7.31,7.31,0,0,1,167,9.64a7.31,7.31,0,0,1,.63-3.26,4.08,4.08,0,0,1,1.85-1.89,6.67,6.67,0,0,1,3-.61,6,6,0,0,1,2.82.59A3.83,3.83,0,0,1,177,6.32a7.57,7.57,0,0,1,.59,3.21v.76h-7.69a5,5,0,0,0,.31,1.63,1.83,1.83,0,0,0,.81,1,2.9,2.9,0,0,0,1.48.33,2.86,2.86,0,0,0,.91-.13,2,2,0,0,0,.7-.37,1.71,1.71,0,0,0,.46-.63,2,2,0,0,0,.17-.86h2.85a4,4,0,0,1-.38,1.82,3.56,3.56,0,0,1-1,1.29,4.93,4.93,0,0,1-1.61.78A7.79,7.79,0,0,1,172.53,15.4Zm-2.56-7h4.66a3.53,3.53,0,0,0-.16-1.09A2.17,2.17,0,0,0,174,6.6a1.55,1.55,0,0,0-.66-.43,2.65,2.65,0,0,0-.87-.14,3.09,3.09,0,0,0-1.33.26,1.81,1.81,0,0,0-.82.8A4,4,0,0,0,170,8.44Z"/><path class="cls-1" d="M185.92,15.4a4.51,4.51,0,0,1-2-.43,3.49,3.49,0,0,1-1.44-1.31h-.14l-.23,1.49h-2.39V0h2.91V5.34h.12a3.55,3.55,0,0,1,.82-.82A3.6,3.6,0,0,1,184.7,4,5.56,5.56,0,0,1,186,3.88a4.23,4.23,0,0,1,2.27.6,4,4,0,0,1,1.52,1.88,8.17,8.17,0,0,1,.55,3.26,8.44,8.44,0,0,1-.54,3.26,3.87,3.87,0,0,1-1.53,1.9A4.4,4.4,0,0,1,185.92,15.4ZM185,13a2.46,2.46,0,0,0,1.39-.35,1.91,1.91,0,0,0,.74-1,5.39,5.39,0,0,0,.23-1.74V9.41a5.46,5.46,0,0,0-.23-1.75,1.92,1.92,0,0,0-.74-1A2.83,2.83,0,0,0,184,6.48a1.94,1.94,0,0,0-.73.63,3.2,3.2,0,0,0-.43,1,6.13,6.13,0,0,0-.14,1.34v.38a5,5,0,0,0,.25,1.69,2.23,2.23,0,0,0,.77,1.09A2.27,2.27,0,0,0,185,13Z"/><path class="cls-1" d="M197,15.4a8.29,8.29,0,0,1-2.08-.25,5.16,5.16,0,0,1-1.57-.71,3.17,3.17,0,0,1-1-1.08,2.87,2.87,0,0,1-.35-1.42v-.17a.37.37,0,0,1,0-.12h2.81v.16a1.21,1.21,0,0,0,.33.85,1.74,1.74,0,0,0,.83.47,3.81,3.81,0,0,0,1.08.15,5.07,5.07,0,0,0,1-.09,2,2,0,0,0,.8-.35.77.77,0,0,0,.32-.65.87.87,0,0,0-.4-.77,3.55,3.55,0,0,0-1.07-.44l-1.44-.38c-.47-.11-.95-.24-1.42-.39a5.42,5.42,0,0,1-1.29-.57,2.88,2.88,0,0,1-.93-.94,2.69,2.69,0,0,1-.36-1.45,2.93,2.93,0,0,1,.38-1.5,3.1,3.1,0,0,1,1-1.06,4.93,4.93,0,0,1,1.55-.62,8.9,8.9,0,0,1,1.91-.19,7.83,7.83,0,0,1,1.8.19,5.14,5.14,0,0,1,1.47.59,3,3,0,0,1,1,1,2.5,2.5,0,0,1,.35,1.29v.28a.51.51,0,0,1,0,.16H198.9V7.19a.88.88,0,0,0-.23-.64,1.44,1.44,0,0,0-.66-.41A3.11,3.11,0,0,0,197,6a4.54,4.54,0,0,0-.77.06,2.56,2.56,0,0,0-.59.19,1.14,1.14,0,0,0-.39.31.69.69,0,0,0-.14.43.66.66,0,0,0,.31.57,2.59,2.59,0,0,0,.8.37l1.11.31c.5.14,1,.28,1.58.41a7.17,7.17,0,0,1,1.54.54,2.92,2.92,0,0,1,1.16,1,2.84,2.84,0,0,1,.44,1.66,3.42,3.42,0,0,1-.39,1.7,3,3,0,0,1-1.08,1.11,5.14,5.14,0,0,1-1.61.61A10.42,10.42,0,0,1,197,15.4Z"/><path class="cls-1" d="M204.14,2.51V0h2.91V2.51Zm0,12.64v-11h2.91v11Z"/><path class="cls-1" d="M213,15.4a3.33,3.33,0,0,1-1.69-.38,2.23,2.23,0,0,1-1-1,3.38,3.38,0,0,1-.29-1.41V6.37h-1.36V4.13h1.47L210.74,1H213V4.13h2V6.37h-2v5.74a1.13,1.13,0,0,0,.23.76,1,1,0,0,0,.76.26h1v1.93a4.7,4.7,0,0,1-.58.16,7.2,7.2,0,0,1-.72.12A4.39,4.39,0,0,1,213,15.4Z"/><path class="cls-1" d="M221.91,15.4a6.81,6.81,0,0,1-3.06-.62,4.06,4.06,0,0,1-1.87-1.9,7.31,7.31,0,0,1-.63-3.24A7.31,7.31,0,0,1,217,6.38a4.1,4.1,0,0,1,1.86-1.89,6.63,6.63,0,0,1,3-.61,6.08,6.08,0,0,1,2.83.59,3.83,3.83,0,0,1,1.74,1.85A7.57,7.57,0,0,1,227,9.53v.76h-7.69a5,5,0,0,0,.3,1.63,1.89,1.89,0,0,0,.82,1,2.87,2.87,0,0,0,1.48.33,2.94,2.94,0,0,0,.91-.13,2,2,0,0,0,.7-.37,1.83,1.83,0,0,0,.46-.63,2.13,2.13,0,0,0,.17-.86H227a4.11,4.11,0,0,1-.38,1.82,3.48,3.48,0,0,1-1.05,1.29,4.87,4.87,0,0,1-1.6.78A7.79,7.79,0,0,1,221.91,15.4Zm-2.56-7H224a3.25,3.25,0,0,0-.16-1.09,2,2,0,0,0-.43-.75,1.55,1.55,0,0,0-.66-.43,2.56,2.56,0,0,0-.87-.14,3.09,3.09,0,0,0-1.33.26,1.84,1.84,0,0,0-.81.8A4,4,0,0,0,219.35,8.44Z"/><path class="cls-1" d="M229.49,15.15v-3h3v3Zm7,0v-3h3v3Zm7,0v-3h3v3Z"/></g></g></svg>