<svg xmlns="http://www.w3.org/2000/svg" viewBox="0 0 420 213.82"><defs><style>.cls-1{fill:#010101;}</style></defs><g id="Layer_2" data-name="Layer 2"><g id="Layer_1-2" data-name="Layer 1"><path class="cls-1" d="M1.48,53.58l21-51.2H33.33l21.18,51.2h-12L38.27,42.45H16.11l-4.3,11.13Zm23.8-34.75-6,15.54H35.15L29.2,18.83a50.73,50.73,0,0,1-1.78-6H27A46.92,46.92,0,0,1,25.28,18.83ZM58.39,53.58V15.78H68.54l.25,5h.1c2.7-3.6,7.46-5.7,13.06-5.7a15.85,15.85,0,0,1,10.71,3.57q4.09,3.57,4.09,12.49V53.58H86.08V30.8c0-5.57-2.77-7.6-7.7-7.6A10.47,10.47,0,0,0,69,28.87V53.58Zm45.22,14.53.11-7.81a20.37,20.37,0,0,0,4.9.63,10.24,10.24,0,0,0,5.32-1.26c1.36-.8,2.59-2.69,3.64-5.6l-.84-.84L100.81,15.78h10.92l8.72,22.33A27.73,27.73,0,0,1,122,43.68h.21a32.19,32.19,0,0,1,1.47-5.57l8.57-22.33h10L125.14,58c-2.94,7.1-8.44,10.88-15.68,10.88A18.5,18.5,0,0,1,103.61,68.11Zm62.76-25.62v-19h-6.76V15.78h6.79V7H177v8.82h8.58v7.74H177V42.28c0,3.32,1.68,4.41,4.59,4.41a14.19,14.19,0,0,0,4-.7v7.56a17.23,17.23,0,0,1-6.37,1.05C171.51,54.6,166.37,50.85,166.37,42.49Zm23.41,0c0-8.23,7-12.46,19.21-12.46h9.38V27.37c0-3.75-2.41-5.43-7.91-5.43s-8.08,1.65-8.08,4.59v.38H192v-.38c0-7.74,7.32-11.8,18.9-11.8,11.38,0,18,4.27,18,12.71V45.29A17.38,17.38,0,0,0,230.55,53v.56H220.16a13.91,13.91,0,0,1-1.37-4.83c-1.71,2.94-6.93,5.5-14.35,5.5C195.45,54.25,189.78,50.22,189.78,42.49Zm10.61-.84c0,3.78,2.27,5.49,7.9,5.49A12.11,12.11,0,0,0,215.54,45a6.18,6.18,0,0,0,3-5.11V36h-8C203.85,36,200.39,38,200.39,41.65Zm35.62.07,10.47,0v.6c0,3.5,3.39,5,8.61,5,5.56,0,8.33-1.4,8.33-4.24a3.23,3.23,0,0,0-1.89-3c-1.3-.63-4.48-1.4-9.59-2.27-10.22-1.72-14.77-5.22-14.77-11.52,0-7.17,7-11.62,17.92-11.65s18.16,4.86,18.16,12.18v.59H262.82v-.8c0-3.12-2.41-4.94-7.77-4.94-5.21,0-7.45,1.3-7.45,3.92a3.11,3.11,0,0,0,2,2.77c1.33.7,4.55,1.47,9.63,2.31,10.5,1.71,14.87,5.18,14.87,11.65,0,7.53-6.54,12.25-19,12.25-12.18,0-19.11-4.51-19.11-12.49Zm45,11.86V0h10.64V29.68l14.91-13.9h13L302.51,31.22,321.2,53.58h-13L295.23,37.83l-3.6,3.26V53.58Zm42.56-5.49c0-3.5,2.41-6.3,6.72-6.3s6.72,2.8,6.72,6.26-2.38,6.3-6.76,6.3S323.55,51.55,323.55,48.09ZM.43,127.58l21-51.21H32.28l21.17,51.21h-12l-4.27-11.13H15.06l-4.31,11.13Zm23.8-34.76-6,15.54H34.1l-6-15.54a49.49,49.49,0,0,1-1.79-6H26A48.49,48.49,0,0,1,24.23,92.82Zm33.11,34.76V89.78H67.49l.24,5h.11c2.69-3.61,7.45-5.71,13-5.71A15.82,15.82,0,0,1,91.6,92.61q4.09,3.57,4.1,12.5v22.47H85V104.79c0-5.56-2.76-7.59-7.7-7.59A10.44,10.44,0,0,0,68,102.87v24.71Zm45.22,14.52.1-7.8a21,21,0,0,0,4.9.63,10.22,10.22,0,0,0,5.32-1.26c1.37-.81,2.59-2.7,3.64-5.6l-.84-.84L99.76,89.78h10.92l8.71,22.33a26.38,26.38,0,0,1,1.54,5.56h.21a34.24,34.24,0,0,1,1.47-5.56l8.58-22.33h10L124.08,132c-2.94,7.11-8.43,10.89-15.68,10.89A18.08,18.08,0,0,1,102.56,142.1Zm62.75-25.62v-19h-6.75V89.78h6.79V81h10.56v8.82h8.58v7.73h-8.58v18.76c0,3.33,1.69,4.41,4.59,4.41a13.84,13.84,0,0,0,4-.7v7.56a17.23,17.23,0,0,1-6.37,1C170.46,128.59,165.31,124.85,165.31,116.48Zm23.38-7.24v-1.12q0-8.78,5.88-14.07c3.88-3.54,8.92-5.32,15.05-5.32,12.32,0,19.7,7,19.7,18.76v3.67H199.15c.49,6.06,4.06,9.63,11.27,9.63a13.44,13.44,0,0,0,10.71-4.94l7.42,5c-2.62,4.48-9.31,7.74-18,7.74-6.83,0-12.22-1.79-16.07-5.32S188.69,115.08,188.69,109.24Zm20.75-12.85c-5.91,0-9.34,3.12-10.15,8.58h19.5v-.46C218.79,99.51,216.3,96.39,209.44,96.39Zm26.88,31.19V89.78h10.12l.17,5.14h.25a11.36,11.36,0,0,1,10-6,10.56,10.56,0,0,1,2.94.49v8.92a18.11,18.11,0,0,0-3.25-.31,10.57,10.57,0,0,0-9.52,5.56v24Zm28.84,0V89.78h10.12l.17,5.14h.25a11.36,11.36,0,0,1,10-6,10.56,10.56,0,0,1,2.94.49v8.92a18.11,18.11,0,0,0-3.25-.31,10.57,10.57,0,0,0-9.52,5.56v24Zm25.62-11.1c0-8.22,7-12.46,19.22-12.46h9.38v-2.66c0-3.74-2.42-5.42-7.91-5.42s-8.09,1.64-8.09,4.58v.39H293v-.39c0-7.73,7.31-11.79,18.9-11.79,11.37,0,18,4.27,18,12.7v17.85a17.29,17.29,0,0,0,1.65,7.74v.56h-10.4a14.2,14.2,0,0,1-1.36-4.83c-1.72,2.94-6.93,5.49-14.35,5.49C296.45,128.24,290.78,124.22,290.78,116.48Zm10.61-.84c0,3.78,2.27,5.5,7.91,5.5a12,12,0,0,0,7.24-2.14,6.15,6.15,0,0,0,3-5.11V110h-8C304.85,110,301.39,112,301.39,115.64Zm37.13-35.42c0-3.25,2.21-5.74,6.23-5.74S351,77,351,80.22,348.78,86,344.75,86,338.52,83.48,338.52,80.22Zm.91,47.36V89.78h10.68v37.8Zm19.88,0V89.78h10.15l.25,5h.1c2.7-3.61,7.46-5.71,13.06-5.71a15.85,15.85,0,0,1,10.71,3.57q4.1,3.57,4.09,12.5v22.47H387V104.79c0-5.56-2.77-7.59-7.7-7.59a10.46,10.46,0,0,0-9.35,5.67v24.71Zm47.25-5.5c0-3.5,2.42-6.3,6.72-6.3s6.72,2.8,6.72,6.27-2.38,6.3-6.75,6.3S406.56,125.55,406.56,122.08ZM0,198.56l21-51.2H31.85L53,198.56h-12l-4.27-11.13H14.63l-4.31,11.13Zm23.8-34.75-6,15.54H33.67l-6-15.54a49.08,49.08,0,0,1-1.79-6h-.38A48.6,48.6,0,0,1,23.8,163.81Zm33.11,34.75v-37.8H67.06l.24,5h.11c2.69-3.6,7.45-5.7,13-5.7a15.82,15.82,0,0,1,10.71,3.57q4.1,3.57,4.1,12.49v22.47H84.59V175.78c0-5.57-2.76-7.6-7.7-7.6a10.46,10.46,0,0,0-9.34,5.67v24.71Zm45.22,14.53.1-7.81a20.43,20.43,0,0,0,4.9.63,10.22,10.22,0,0,0,5.32-1.26c1.37-.8,2.59-2.69,3.64-5.6l-.84-.84L99.33,160.76h10.92L119,183.09a26.47,26.47,0,0,1,1.54,5.57h.21a34.1,34.1,0,0,1,1.47-5.57l8.58-22.33h10l-17.15,42.18c-2.94,7.1-8.43,10.88-15.68,10.88A18.39,18.39,0,0,1,102.13,213.09Zm62.75-25.62v-19h-6.75v-7.74h6.79v-8.82h10.57v8.82h8.57v7.74h-8.57v18.76c0,3.32,1.68,4.41,4.58,4.41a14.32,14.32,0,0,0,4-.7v7.56a17.31,17.31,0,0,1-6.37,1.05C170,199.58,164.88,195.83,164.88,187.47Zm24.61-36.26c0-3.26,2.2-5.74,6.23-5.74S202,148,202,151.21s-2.21,5.74-6.23,5.74S189.49,154.46,189.49,151.21Zm.91,47.35v-37.8h10.67v37.8Zm19.88,0v-37.8h10.11l.28,5h.11c3-3.92,7.63-5.74,12.84-5.74,5.88,0,10.54,2.38,12.53,6.9h.07c3.19-4.62,8.82-6.9,14.7-6.9a14.37,14.37,0,0,1,10.43,3.82q4,3.83,4,12.81v21.87H264.7v-22.5c0-5.43-2.55-7.88-7.45-7.88-4.17,0-7.18,2.21-9.1,5.74v24.64H237.47v-22.4c0-5.49-2.62-8-7.52-8a9.65,9.65,0,0,0-9,5.74v24.64Zm71.85-18.34V179.1q0-8.76,5.88-14.07c3.89-3.53,8.93-5.32,15.05-5.32,12.32,0,19.7,7,19.7,18.76v3.68H292.6c.49,6,4.06,9.62,11.26,9.62a13.42,13.42,0,0,0,10.71-4.93l7.43,5c-2.63,4.48-9.32,7.73-18,7.73-6.82,0-12.21-1.78-16.06-5.32S282.13,186.07,282.13,180.22Zm20.76-12.84c-5.92,0-9.35,3.11-10.15,8.57h19.49v-.45C312.23,170.49,309.75,167.38,302.89,167.38Zm26.45,25.69c0-3.5,2.42-6.3,6.72-6.3s6.72,2.8,6.72,6.26-2.38,6.3-6.75,6.3S329.34,196.53,329.34,193.07Z"/></g></g></svg>