<svg xmlns="http://www.w3.org/2000/svg" viewBox="0 0 142.6 43.12"><defs><style>.cls-1{fill:#231f20;}</style></defs><g id="Layer_2" data-name="Layer 2"><g id="Layer_1-2" data-name="Layer 1"><path class="cls-1" d="M3.32,17.84H0V.37H3.32v8h7.74v-8h3.31V17.84H11.06V9.29l-7.74,0Z"/><path class="cls-1" d="M17.79,8.65a8.81,8.81,0,0,1,.94-1.19,4.93,4.93,0,0,1,1.17-.9A5.93,5.93,0,0,1,21.4,6a8,8,0,0,1,1.92-.21,8.21,8.21,0,0,1,1.8.2,4.62,4.62,0,0,1,1.54.63,3.25,3.25,0,0,1,1.06,1.12,3.3,3.3,0,0,1,.39,1.67v8.42H24.82v-1.4A8.63,8.63,0,0,1,23,17.54a4.75,4.75,0,0,1-2.07.49,4.64,4.64,0,0,1-1.35-.19,3.48,3.48,0,0,1-1.13-.59,2.67,2.67,0,0,1-.78-1,3.41,3.41,0,0,1-.3-1.49,2.82,2.82,0,0,1,.84-2.1,6.09,6.09,0,0,1,2-1.31,11.5,11.5,0,0,1,2.45-.72c.84-.14,1.56-.24,2.15-.29V9.48c0-.37,0-.73,0-1.08a2.91,2.91,0,0,0-.14-.92,1.5,1.5,0,0,0-.42-.66,1.37,1.37,0,0,0-.82-.31,2.28,2.28,0,0,0-1.06.17,2.69,2.69,0,0,0-.92.67,3.54,3.54,0,0,0-.68,1.11A5.52,5.52,0,0,0,20.42,10Zm7,2.16a9.17,9.17,0,0,0-1.24.21,4.75,4.75,0,0,0-1.39.55,3.37,3.37,0,0,0-1.11,1.08,3.09,3.09,0,0,0-.39,1.8,2.26,2.26,0,0,0,.6,1.53,1.75,1.75,0,0,0,1.31.58,4.16,4.16,0,0,0,1.07-.18,3.37,3.37,0,0,0,1.15-.58Z"/><path class="cls-1" d="M35.06,17.81H31.74v-10a2.43,2.43,0,0,0-.08-.75.73.73,0,0,0-.27-.38,1.09,1.09,0,0,0-.49-.16l-.73-.09V6.12l4.89-.49v2.7a6.09,6.09,0,0,1,.84-1A6.43,6.43,0,0,1,37,6.57,6.69,6.69,0,0,1,38.24,6a3.93,3.93,0,0,1,1.27-.23,3.52,3.52,0,0,1,2.69,1,3.69,3.69,0,0,1,.9,2.6v8.47H39.78V9.61a1.94,1.94,0,0,0-.43-1.35,1.83,1.83,0,0,0-1.44-.5,4,4,0,0,0-1.53.32,4.76,4.76,0,0,0-1.32.81Z"/><path class="cls-1" d="M55.75,16.88a2.26,2.26,0,0,0-1.11-.3,3.16,3.16,0,0,0-1.74.69,5.28,5.28,0,0,1-1.11.57,3.31,3.31,0,0,1-1.2.22,4,4,0,0,1-2.06-.52A5,5,0,0,1,47,16.2a5.92,5.92,0,0,1-1-1.85,6.81,6.81,0,0,1-.33-2.09,7.21,7.21,0,0,1,.41-2.37,6.69,6.69,0,0,1,1.15-2.08,6,6,0,0,1,1.81-1.47,4.86,4.86,0,0,1,2.35-.57A4.93,4.93,0,0,1,52.87,6a4.19,4.19,0,0,1,1.31.63V2.29a2.27,2.27,0,0,0-.09-.74.67.67,0,0,0-.28-.37A1.18,1.18,0,0,0,53.32,1L52.6.93V.59L57.49.1V17.81ZM54.18,7.2a2.44,2.44,0,0,0-.88-.41,4.44,4.44,0,0,0-1-.11,2.55,2.55,0,0,0-1.57.49,3.85,3.85,0,0,0-1,1.23A6,6,0,0,0,49.16,10,8.87,8.87,0,0,0,49,11.65a9.16,9.16,0,0,0,.16,1.54,6.75,6.75,0,0,0,.52,1.63,3.67,3.67,0,0,0,1,1.26,2.19,2.19,0,0,0,1.48.5,2,2,0,0,0,1.13-.35,5,5,0,0,0,.94-.75Z"/><path class="cls-1" d="M59.75,9.75h8.14v2H59.75Z"/><path class="cls-1" d="M70.34,17.81V.37h5.8A22.63,22.63,0,0,1,78.62.5a6.49,6.49,0,0,1,2.2.62,4,4,0,0,1,1.59,1.4A4.39,4.39,0,0,1,83,5a3.67,3.67,0,0,1-.48,1.94,4.08,4.08,0,0,1-1.25,1.3,6.22,6.22,0,0,1-1.77.8,13.79,13.79,0,0,1-2,.42,20,20,0,0,1-2,.16l-1.79,0v8.18Zm5.58-8.94a3.78,3.78,0,0,0,1.56-.29,2.64,2.64,0,0,0,1-.82A3.27,3.27,0,0,0,79,6.52,7,7,0,0,0,79.19,5,5.77,5.77,0,0,0,79,3.56a3.86,3.86,0,0,0-.54-1.18,2.8,2.8,0,0,0-1-.82,3,3,0,0,0-1.39-.31H74a1.23,1.23,0,0,0-.29.4,1.77,1.77,0,0,0,0,.49V8.87Z"/><path class="cls-1" d="M85.53,17.81V8.4a3.11,3.11,0,0,0-.1-.86.89.89,0,0,0-.3-.44.93.93,0,0,0-.49-.18L84,6.83V6.49l4.88-.4V17.81ZM86.88,4.28a2.06,2.06,0,0,1-1.52-.62,2.07,2.07,0,0,1-.62-1.52,2.14,2.14,0,1,1,4.28,0,2.07,2.07,0,0,1-.61,1.52A2,2,0,0,1,86.88,4.28Z"/><path class="cls-1" d="M99.63,11.2a10.22,10.22,0,0,0,0-1.75A5.76,5.76,0,0,0,99.32,8a2.65,2.65,0,0,0-.63-1,1.41,1.41,0,0,0-1-.39,2.61,2.61,0,0,0-1.47.41,3.31,3.31,0,0,0-1,1,4.64,4.64,0,0,0-.58,1.39,6.35,6.35,0,0,0-.18,1.47,5.71,5.71,0,0,0,.34,1.91,6.2,6.2,0,0,0,1,1.76,5.24,5.24,0,0,0,1.54,1.31,4.13,4.13,0,0,0,2,.5,6.81,6.81,0,0,0,1.84-.26,2.68,2.68,0,0,0,1.47-1l.2.15a4.78,4.78,0,0,1-1,1.2,6.82,6.82,0,0,1-1.32.93,6.66,6.66,0,0,1-1.48.57,6.32,6.32,0,0,1-1.54.2,6.19,6.19,0,0,1-2.38-.46,6.32,6.32,0,0,1-2-1.24,6.09,6.09,0,0,1-1.35-1.85,5.26,5.26,0,0,1-.5-2.3,7,7,0,0,1,.48-2.64,6,6,0,0,1,1.32-2,5.85,5.85,0,0,1,2-1.3,7,7,0,0,1,2.54-.46,6,6,0,0,1,3.43.85,4.39,4.39,0,0,1,1.68,2.2Z"/><path class="cls-1" d="M104.89,17.81V2.58a2.38,2.38,0,0,0-.09-.75.73.73,0,0,0-.27-.38,1,1,0,0,0-.49-.16l-.72-.09V.86l4.89-.49V11.84c.65-.82,1.19-1.51,1.6-2.07s.75-1,1-1.44a6.47,6.47,0,0,0,.48-1,1.2,1.2,0,0,0,.07-.6.68.68,0,0,0-.23-.4L110.69,6h6.93l-8.92,5.72c.57,0,1.15-.08,1.73-.14a14.24,14.24,0,0,1,1.71-.1,7,7,0,0,1,1.79.23,3.7,3.7,0,0,1,1.57.91,5.39,5.39,0,0,1,1.23,1.92,13,13,0,0,1,.79,3.25h-4.23a7,7,0,0,0-.24-2.47,3.81,3.81,0,0,0-1-1.59,5.08,5.08,0,0,0-1.64-1c-.66-.26-1.4-.52-2.21-.76v5.87Z"/><path class="cls-1" d="M123.49,14.69a5,5,0,0,0,1.41.89,4.24,4.24,0,0,0,1.61.32,3.24,3.24,0,0,0,2.06-.63,4.38,4.38,0,0,0,1.31-1.78l.19.15a6.6,6.6,0,0,1-1.79,3.18A4.71,4.71,0,0,1,124.94,18a6.77,6.77,0,0,1-2-.31,6.49,6.49,0,0,1-1.81-.89,6.17,6.17,0,0,1-1.44-1.4,5.35,5.35,0,0,1-.88-1.83,7.77,7.77,0,0,1-.25-3.15A5.47,5.47,0,0,1,119.51,8a4.88,4.88,0,0,1,1.77-1.55,5.49,5.49,0,0,1,2.23-.63H124a6.09,6.09,0,0,1,2.25.38,4.81,4.81,0,0,1,1.61,1,5,5,0,0,1,1,1.55,7.75,7.75,0,0,1,.53,1.92Zm-.44-.39a7.52,7.52,0,0,0,2.06-1.84,4.77,4.77,0,0,0,.88-2,3.87,3.87,0,0,0,0-1.44,3.7,3.7,0,0,0-.48-1.25,3.13,3.13,0,0,0-.83-.9,1.92,1.92,0,0,0-1.08-.34h-.13a2.84,2.84,0,0,0-1.11.28,2.12,2.12,0,0,0-.88.83,3.09,3.09,0,0,0-.39,1.48,7.57,7.57,0,0,0,.32,2.3A5.69,5.69,0,0,0,122,13,6,6,0,0,0,123.05,14.3Z"/><path class="cls-1" d="M140.86,16.88a2.26,2.26,0,0,0-1.11-.3,3.16,3.16,0,0,0-1.74.69,5.54,5.54,0,0,1-1.11.57,3.31,3.31,0,0,1-1.2.22,4,4,0,0,1-2.06-.52,5,5,0,0,1-1.54-1.34,5.92,5.92,0,0,1-1-1.85,6.81,6.81,0,0,1-.33-2.09,7.19,7.19,0,0,1,.4-2.37,6.93,6.93,0,0,1,1.16-2.08,6,6,0,0,1,1.81-1.47,4.86,4.86,0,0,1,2.35-.57A4.93,4.93,0,0,1,138,6a4.19,4.19,0,0,1,1.31.63V2.29a2.27,2.27,0,0,0-.09-.74.67.67,0,0,0-.28-.37,1.18,1.18,0,0,0-.49-.16l-.72-.09V.59L142.6.1V17.81ZM139.29,7.2a2.44,2.44,0,0,0-.88-.41,4.51,4.51,0,0,0-1-.11,2.55,2.55,0,0,0-1.57.49,3.72,3.72,0,0,0-1,1.23,6,6,0,0,0-.57,1.61,8.87,8.87,0,0,0-.17,1.64,8.22,8.22,0,0,0,.16,1.54,6.75,6.75,0,0,0,.52,1.63,3.44,3.44,0,0,0,1,1.26,2.19,2.19,0,0,0,1.48.5,2,2,0,0,0,1.13-.35,5,5,0,0,0,.94-.75Z"/><path class="cls-1" d="M3.73,30.75.46,22.07H1.53l2.32,6.22.16.46q.09.27.18.51t.15.45h.09c0-.13.09-.27.15-.44l.18-.5c.06-.18.11-.33.16-.46l2.29-6.24h1L5,30.75Z"/><path class="cls-1" d="M9.28,22.73V21.6h.91v1.13Zm0,8V24.09h.91v6.66Z"/><path class="cls-1" d="M12,30.75V24.09h.72l.09,1.05h.09a2.45,2.45,0,0,1,.63-.71,2.31,2.31,0,0,1,.77-.38,3.48,3.48,0,0,1,.88-.11,2.67,2.67,0,0,1,1.1.21,1.48,1.48,0,0,1,.74.68,2.52,2.52,0,0,1,.27,1.27v4.65h-.91V26.19a2.1,2.1,0,0,0-.11-.72,1.22,1.22,0,0,0-.32-.44,1.41,1.41,0,0,0-.48-.22,2.77,2.77,0,0,0-.6-.06,1.9,1.9,0,0,0-.95.25,2,2,0,0,0-.73.7,2,2,0,0,0-.28,1.11v3.94Z"/><path class="cls-1" d="M20.44,30.89a1.38,1.38,0,0,1-.73-.17.88.88,0,0,1-.38-.45,1.93,1.93,0,0,1-.11-.65V24.86h-.9v-.77h.9l.18-1.85h.73v1.85h1.28v.77H20.13v4.6a.94.94,0,0,0,.1.5c.06.11.2.17.42.17h.76v.58a2.62,2.62,0,0,1-.3.1l-.34.06Z"/><path class="cls-1" d="M24.28,30.9a3.37,3.37,0,0,1-.77-.09,2.22,2.22,0,0,1-.68-.31,1.62,1.62,0,0,1-.47-.56,1.94,1.94,0,0,1-.18-.88,1.78,1.78,0,0,1,.34-1.12,2.25,2.25,0,0,1,.94-.68,5.56,5.56,0,0,1,1.44-.33,16.66,16.66,0,0,1,1.8-.09V26a1.6,1.6,0,0,0-.14-.69,1,1,0,0,0-.51-.44,3.27,3.27,0,0,0-2,0,1.05,1.05,0,0,0-.51.43,1.1,1.1,0,0,0-.15.57v.21H22.5a.62.62,0,0,1,0-.13v-.15a1.6,1.6,0,0,1,.33-1,2,2,0,0,1,.93-.61,4.57,4.57,0,0,1,1.39-.2,3.56,3.56,0,0,1,1.35.23,1.86,1.86,0,0,1,.83.67,1.77,1.77,0,0,1,.29,1V29.7a.42.42,0,0,0,.1.33.33.33,0,0,0,.26.1h.53v.58l-.4.13a2.12,2.12,0,0,1-.44.05.89.89,0,0,1-.52-.14.75.75,0,0,1-.28-.39,2.42,2.42,0,0,1-.11-.56h-.09a2.29,2.29,0,0,1-.61.59,3.14,3.14,0,0,1-1.77.51Zm.19-.77a2.46,2.46,0,0,0,.81-.14A2.34,2.34,0,0,0,26,29.6,1.93,1.93,0,0,0,26.5,29a1.39,1.39,0,0,0,.2-.76v-.68a12.14,12.14,0,0,0-2,.13,2.58,2.58,0,0,0-1.19.44,1.08,1.08,0,0,0-.39.89,1,1,0,0,0,.17.62.9.9,0,0,0,.47.36A1.83,1.83,0,0,0,24.47,30.13Z"/><path class="cls-1" d="M30.59,33.05a2,2,0,0,1-.9-.21,1.66,1.66,0,0,1-.65-.58,1.58,1.58,0,0,1-.24-.87,1.54,1.54,0,0,1,.3-.95,1.86,1.86,0,0,1,.75-.58,1,1,0,0,1-.5-.42,1.06,1.06,0,0,1-.18-.6,1,1,0,0,1,.31-.74,1.51,1.51,0,0,1,.78-.41,2.27,2.27,0,0,1-.67-.71,1.9,1.9,0,0,1-.24-.93A2,2,0,0,1,29.64,25a1.88,1.88,0,0,1,.88-.75A3.51,3.51,0,0,1,32,23.94a4.75,4.75,0,0,1,.78.06,3.57,3.57,0,0,1,.65.19,1.43,1.43,0,0,0,.68-.47,1.68,1.68,0,0,0,.32-.69h.91a1.68,1.68,0,0,1-.18.68,1.64,1.64,0,0,1-.45.56,1.51,1.51,0,0,1-.7.29,1.84,1.84,0,0,1,.48.68,2.25,2.25,0,0,1,.16.81,2,2,0,0,1-1.15,1.83,3.48,3.48,0,0,1-1.47.27H31a1.14,1.14,0,0,0-.62.15.54.54,0,0,0-.25.49.52.52,0,0,0,.26.45,1.14,1.14,0,0,0,.63.17H33.6a1.53,1.53,0,0,1,1.19.49,1.74,1.74,0,0,1,.47,1.24,1.82,1.82,0,0,1-.27,1,1.94,1.94,0,0,1-.73.69,2.21,2.21,0,0,1-1.08.25Zm.2-.72h2.36a1.33,1.33,0,0,0,.6-.14,1,1,0,0,0,.42-.39.91.91,0,0,0,.16-.52,1,1,0,0,0-.28-.77.88.88,0,0,0-.69-.29H30.79a1,1,0,0,0-.75.31,1.09,1.09,0,0,0,0,1.52A1.09,1.09,0,0,0,30.79,32.33Zm1.2-4.9a1.93,1.93,0,0,0,1.31-.37,1.28,1.28,0,0,0,.42-1,1.3,1.3,0,0,0-.42-1,2.47,2.47,0,0,0-2.6,0,1.27,1.27,0,0,0-.43,1,1.33,1.33,0,0,0,.19.71,1.3,1.3,0,0,0,.58.5A2.37,2.37,0,0,0,32,27.43Z"/><path class="cls-1" d="M38.85,30.9a3.22,3.22,0,0,1-1.61-.37,2.37,2.37,0,0,1-1-1.15,4.82,4.82,0,0,1-.34-2,4.84,4.84,0,0,1,.34-2,2.41,2.41,0,0,1,1-1.14,3.42,3.42,0,0,1,1.68-.37,3,3,0,0,1,1.55.37,2.32,2.32,0,0,1,.94,1.06,4,4,0,0,1,.33,1.71v.58h-4.9a3.64,3.64,0,0,0,.24,1.43,1.57,1.57,0,0,0,.69.8,2.22,2.22,0,0,0,1.11.25,2.39,2.39,0,0,0,.84-.13,1.61,1.61,0,0,0,.59-.34,1.47,1.47,0,0,0,.36-.53,1.51,1.51,0,0,0,.13-.63h.89a2.24,2.24,0,0,1-.19.93,2.22,2.22,0,0,1-.53.76,2.45,2.45,0,0,1-.88.52A3.88,3.88,0,0,1,38.85,30.9Zm-2-4H40.8a3.26,3.26,0,0,0-.15-1.06,1.68,1.68,0,0,0-.4-.68,1.44,1.44,0,0,0-.6-.37,2.37,2.37,0,0,0-.78-.12,2.21,2.21,0,0,0-1.06.24,1.54,1.54,0,0,0-.68.72A3.57,3.57,0,0,0,36.85,26.94Z"/><path class="cls-1" d="M49.75,30.9a4.68,4.68,0,0,1-2.25-.49,3.17,3.17,0,0,1-1.39-1.5,5.74,5.74,0,0,1-.48-2.5A4.63,4.63,0,0,1,46.72,23a4,4,0,0,1,3.05-1.12,5.07,5.07,0,0,1,2,.36,2.92,2.92,0,0,1,1.34,1.07,3.13,3.13,0,0,1,.49,1.82h-1a2.5,2.5,0,0,0-.34-1.35,2.09,2.09,0,0,0-1-.78,3.8,3.8,0,0,0-1.5-.26,3.47,3.47,0,0,0-1.63.36,2.47,2.47,0,0,0-1.08,1.15,4.68,4.68,0,0,0-.38,2v.26a4.49,4.49,0,0,0,.38,2,2.4,2.4,0,0,0,1.08,1.12,3.64,3.64,0,0,0,1.64.35,4.08,4.08,0,0,0,1.51-.26,2,2,0,0,0,1-.78,2.41,2.41,0,0,0,.34-1.35h1a3.16,3.16,0,0,1-.5,1.83,3,3,0,0,1-1.36,1.07A5.25,5.25,0,0,1,49.75,30.9Z"/><path class="cls-1" d="M56.76,30.9a3.39,3.39,0,0,1-.78-.09,2.06,2.06,0,0,1-.67-.31,1.54,1.54,0,0,1-.48-.56,1.94,1.94,0,0,1-.18-.88A1.84,1.84,0,0,1,55,27.94a2.25,2.25,0,0,1,.94-.68,5.66,5.66,0,0,1,1.44-.33,16.66,16.66,0,0,1,1.8-.09V26A1.6,1.6,0,0,0,59,25.3a1,1,0,0,0-.51-.44,3.27,3.27,0,0,0-2,0,1.05,1.05,0,0,0-.51.43,1.1,1.1,0,0,0-.15.57v.21H55a.62.62,0,0,1,0-.13v-.15a1.6,1.6,0,0,1,.33-1,2,2,0,0,1,.93-.61,4.59,4.59,0,0,1,1.4-.2,3.54,3.54,0,0,1,1.34.23,1.86,1.86,0,0,1,.83.67,1.77,1.77,0,0,1,.29,1V29.7a.46.46,0,0,0,.1.33.33.33,0,0,0,.26.1H61v.58l-.4.13a2,2,0,0,1-.44.05.91.91,0,0,1-.52-.14.8.8,0,0,1-.28-.39,3.09,3.09,0,0,1-.11-.56h-.09a2.29,2.29,0,0,1-.61.59,3.24,3.24,0,0,1-.82.38A3.19,3.19,0,0,1,56.76,30.9Zm.19-.77a2.56,2.56,0,0,0,.81-.14,2.29,2.29,0,0,0,.7-.39A2,2,0,0,0,59,29a1.48,1.48,0,0,0,.19-.76v-.68a12.14,12.14,0,0,0-2,.13,2.49,2.49,0,0,0-1.18.44,1.06,1.06,0,0,0-.4.89,1,1,0,0,0,.17.62.9.9,0,0,0,.47.36A1.85,1.85,0,0,0,57,30.13Z"/><path class="cls-1" d="M61.92,30.75V24.09h.72l.09,1.05h.09a2.71,2.71,0,0,1,.6-.71,2,2,0,0,1,.73-.38,3.2,3.2,0,0,1,.83-.11,2.3,2.3,0,0,1,1.15.27,1.54,1.54,0,0,1,.69.93h.07a2.63,2.63,0,0,1,.6-.7,2.27,2.27,0,0,1,.72-.38,3,3,0,0,1,.85-.12,2.69,2.69,0,0,1,1,.2,1.53,1.53,0,0,1,.71.67,2.7,2.7,0,0,1,.26,1.27v4.67h-.91V26.18a2.1,2.1,0,0,0-.11-.72.93.93,0,0,0-.3-.43,1.21,1.21,0,0,0-.44-.22,2.35,2.35,0,0,0-.54-.06,1.64,1.64,0,0,0-.89.25,1.91,1.91,0,0,0-.68.7A2.22,2.22,0,0,0,67,26.81v3.94H66V26.18a2.12,2.12,0,0,0-.1-.72.85.85,0,0,0-.29-.43,1.25,1.25,0,0,0-.43-.22,2.26,2.26,0,0,0-.53-.06,1.7,1.7,0,0,0-.9.25,1.79,1.79,0,0,0-.69.7,2.12,2.12,0,0,0-.27,1.11v3.94Z"/><path class="cls-1" d="M75.36,30.9a3.22,3.22,0,0,1-1.61-.37,2.37,2.37,0,0,1-1-1.15,4.82,4.82,0,0,1-.34-2,4.84,4.84,0,0,1,.34-2,2.41,2.41,0,0,1,1-1.14,3.41,3.41,0,0,1,1.67-.37,2.94,2.94,0,0,1,1.55.37,2.28,2.28,0,0,1,1,1.06,4,4,0,0,1,.33,1.71v.58h-4.9a3.64,3.64,0,0,0,.24,1.43,1.57,1.57,0,0,0,.69.8,2.22,2.22,0,0,0,1.11.25,2.39,2.39,0,0,0,.84-.13,1.61,1.61,0,0,0,.59-.34,1.47,1.47,0,0,0,.36-.53,1.51,1.51,0,0,0,.13-.63h.89a2.41,2.41,0,0,1-.19.93,2.22,2.22,0,0,1-.53.76,2.45,2.45,0,0,1-.88.52A3.88,3.88,0,0,1,75.36,30.9Zm-2-4h4a3.26,3.26,0,0,0-.15-1.06,1.8,1.8,0,0,0-.4-.68,1.44,1.44,0,0,0-.6-.37,2.37,2.37,0,0,0-.78-.12,2.21,2.21,0,0,0-1.06.24,1.49,1.49,0,0,0-.68.72A3.57,3.57,0,0,0,73.36,26.94Z"/><path class="cls-1" d="M79.64,30.75V24.09h.73l.08,1.12h.08a2.3,2.3,0,0,1,.27-.6,1.57,1.57,0,0,1,.48-.48,1.4,1.4,0,0,1,.77-.19,1.69,1.69,0,0,1,.33,0l.23.06v.83h-.39a1.74,1.74,0,0,0-.76.16,1.42,1.42,0,0,0-.52.45,1.94,1.94,0,0,0-.3.67,3.19,3.19,0,0,0-.09.77v3.84Z"/><path class="cls-1" d="M85.18,30.9a3.31,3.31,0,0,1-.77-.09,2.12,2.12,0,0,1-.68-.31,1.54,1.54,0,0,1-.48-.56,2.09,2.09,0,0,1-.17-.88,1.84,1.84,0,0,1,.33-1.12,2.28,2.28,0,0,1,1-.68,5.48,5.48,0,0,1,1.43-.33,16.86,16.86,0,0,1,1.81-.09V26a1.47,1.47,0,0,0-.15-.69,1,1,0,0,0-.51-.44,3.27,3.27,0,0,0-2,0,1.05,1.05,0,0,0-.51.43,1.2,1.2,0,0,0-.14.57v.21h-.88c0-.05,0-.09,0-.13v-.15a1.6,1.6,0,0,1,.33-1,2,2,0,0,1,.94-.61,4.52,4.52,0,0,1,1.39-.2,3.5,3.5,0,0,1,1.34.23,1.86,1.86,0,0,1,.83.67,1.77,1.77,0,0,1,.3,1V29.7a.47.47,0,0,0,.09.33.33.33,0,0,0,.26.1h.53v.58a3.76,3.76,0,0,1-.4.13,2,2,0,0,1-.43.05.92.92,0,0,1-.53-.14.8.8,0,0,1-.28-.39,2.42,2.42,0,0,1-.1-.56h-.09a2.33,2.33,0,0,1-.62.59,3.34,3.34,0,0,1-.81.38A3.26,3.26,0,0,1,85.18,30.9Zm.19-.77a2.46,2.46,0,0,0,.81-.14,2.34,2.34,0,0,0,.71-.39A1.93,1.93,0,0,0,87.4,29a1.49,1.49,0,0,0,.2-.76v-.68a12,12,0,0,0-2,.13,2.49,2.49,0,0,0-1.19.44A1.06,1.06,0,0,0,84,29a1.08,1.08,0,0,0,.17.62.9.9,0,0,0,.47.36A1.88,1.88,0,0,0,85.37,30.13Z"/><path class="cls-1" d="M92.56,30.9a4.6,4.6,0,0,1-1.17-.13,2.19,2.19,0,0,1-.84-.4,1.79,1.79,0,0,1-.51-.62,2.08,2.08,0,0,1-.17-.85v-.11a.3.3,0,0,1,0-.1h.89s0,.07,0,.1v.09a1.23,1.23,0,0,0,.24.76,1.28,1.28,0,0,0,.65.39,4,4,0,0,0,1,.11,2.47,2.47,0,0,0,.84-.13,1.42,1.42,0,0,0,.6-.39.94.94,0,0,0,.22-.62.88.88,0,0,0-.29-.71,2,2,0,0,0-.74-.37l-1-.29c-.27-.07-.53-.15-.79-.24a3.19,3.19,0,0,1-.72-.34,1.41,1.41,0,0,1-.51-.52,1.47,1.47,0,0,1-.19-.79,1.54,1.54,0,0,1,.66-1.31,2.3,2.3,0,0,1,.79-.36,3.87,3.87,0,0,1,1.07-.13,3.7,3.7,0,0,1,1.12.15,2.11,2.11,0,0,1,.76.41,1.65,1.65,0,0,1,.43.58,1.8,1.8,0,0,1,.14.68.53.53,0,0,1,0,.12V26h-.9v-.16a1.08,1.08,0,0,0-.13-.52,1,1,0,0,0-.47-.43,2.16,2.16,0,0,0-1-.18,2.68,2.68,0,0,0-.68.07,1.5,1.5,0,0,0-.48.19.85.85,0,0,0-.29.31.88.88,0,0,0-.1.43.68.68,0,0,0,.24.56,1.75,1.75,0,0,0,.61.32l.81.26.88.26a5.17,5.17,0,0,1,.83.35A1.74,1.74,0,0,1,95,28a1.57,1.57,0,0,1,.22.88,1.8,1.8,0,0,1-.2.89,1.65,1.65,0,0,1-.56.64,2.32,2.32,0,0,1-.84.38A3.87,3.87,0,0,1,92.56,30.9Z"/><path class="cls-1" d="M96.71,32.51v-.46a.58.58,0,0,0,.36-.23,1.3,1.3,0,0,0,.21-.46,2.8,2.8,0,0,0,.06-.61h-.48V29.56h1.06v1.05a2.55,2.55,0,0,1-.19,1.11,1.47,1.47,0,0,1-.49.57A1.93,1.93,0,0,1,96.71,32.51Z"/><path class="cls-1" d="M100.24,30.75V22.07h1v7.81h4.29v.87Z"/><path class="cls-1" d="M109.12,30.9a3.22,3.22,0,0,1-1.61-.37,2.37,2.37,0,0,1-1-1.15,5,5,0,0,1-.34-2,5,5,0,0,1,.34-2,2.37,2.37,0,0,1,1-1.14,3.36,3.36,0,0,1,1.67-.37,3,3,0,0,1,1.55.37,2.4,2.4,0,0,1,1,1.06,4.11,4.11,0,0,1,.32,1.71v.58h-4.9a3.64,3.64,0,0,0,.24,1.43,1.57,1.57,0,0,0,.69.8,2.22,2.22,0,0,0,1.11.25A2.39,2.39,0,0,0,110,30a1.74,1.74,0,0,0,.6-.34,1.77,1.77,0,0,0,.36-.53,1.68,1.68,0,0,0,.12-.63H112a2.24,2.24,0,0,1-.19.93,2.22,2.22,0,0,1-.53.76,2.45,2.45,0,0,1-.88.52A3.88,3.88,0,0,1,109.12,30.9Zm-2-4h3.95a3.26,3.26,0,0,0-.15-1.06,1.79,1.79,0,0,0-.39-.68,1.42,1.42,0,0,0-.61-.37,2.35,2.35,0,0,0-.77-.12,2.23,2.23,0,0,0-1.07.24,1.47,1.47,0,0,0-.67.72A3.35,3.35,0,0,0,107.12,26.94Z"/><path class="cls-1" d="M113.4,30.75V24.09h.72l.09,1.05h.09a2.31,2.31,0,0,1,.63-.71,2.36,2.36,0,0,1,.76-.38,3.6,3.6,0,0,1,.88-.11,2.68,2.68,0,0,1,1.11.21,1.52,1.52,0,0,1,.74.68,2.52,2.52,0,0,1,.27,1.27v4.65h-.91V26.19a1.87,1.87,0,0,0-.12-.72,1.1,1.1,0,0,0-.31-.44,1.51,1.51,0,0,0-.48-.22,2.77,2.77,0,0,0-.6-.06,1.85,1.85,0,0,0-1,.25,1.89,1.89,0,0,0-.73.7,2,2,0,0,0-.28,1.11v3.94Z"/><path class="cls-1" d="M122.61,30.9a4.47,4.47,0,0,1-1.16-.13,2.31,2.31,0,0,1-.85-.4,1.66,1.66,0,0,1-.5-.62,1.93,1.93,0,0,1-.17-.85v-.11a.31.31,0,0,1,0-.1h.9a.38.38,0,0,0,0,.1v.09a1.17,1.17,0,0,0,.24.76,1.25,1.25,0,0,0,.64.39,4,4,0,0,0,1,.11,2.49,2.49,0,0,0,.85-.13,1.45,1.45,0,0,0,.59-.39.89.89,0,0,0,.22-.62.88.88,0,0,0-.28-.71,2.05,2.05,0,0,0-.74-.37l-1-.29c-.27-.07-.54-.15-.8-.24a3.11,3.11,0,0,1-.71-.34,1.44,1.44,0,0,1-.52-.52,1.56,1.56,0,0,1-.19-.79,1.66,1.66,0,0,1,.17-.75,1.57,1.57,0,0,1,.5-.56,2.21,2.21,0,0,1,.79-.36,3.8,3.8,0,0,1,1.06-.13,3.73,3.73,0,0,1,1.13.15,2.2,2.2,0,0,1,.76.41,1.94,1.94,0,0,1,.43.58,1.8,1.8,0,0,1,.14.68s0,.07,0,.12,0,.08,0,.11h-.89v-.16a1.1,1.1,0,0,0-.14-.52,1,1,0,0,0-.47-.43,2.13,2.13,0,0,0-1-.18,2.73,2.73,0,0,0-.68.07,1.5,1.5,0,0,0-.48.19,1,1,0,0,0-.29.31,1,1,0,0,0-.09.43.68.68,0,0,0,.23.56,1.85,1.85,0,0,0,.61.32l.81.26.88.26a4.81,4.81,0,0,1,.83.35,1.45,1.45,0,0,1,.84,1.41,1.92,1.92,0,0,1-.2.89,1.73,1.73,0,0,1-.56.64,2.48,2.48,0,0,1-.84.38A4,4,0,0,1,122.61,30.9Z"/><path class="cls-1" d="M129.23,30.9a3.22,3.22,0,0,1-1.61-.37,2.37,2.37,0,0,1-1-1.15,4.82,4.82,0,0,1-.34-2,4.84,4.84,0,0,1,.34-2,2.41,2.41,0,0,1,1-1.14,3.42,3.42,0,0,1,1.68-.37,3,3,0,0,1,1.55.37,2.32,2.32,0,0,1,.94,1.06,4,4,0,0,1,.33,1.71v.58h-4.9a3.64,3.64,0,0,0,.24,1.43,1.57,1.57,0,0,0,.69.8,2.22,2.22,0,0,0,1.11.25,2.39,2.39,0,0,0,.84-.13,1.61,1.61,0,0,0,.59-.34,1.47,1.47,0,0,0,.36-.53,1.51,1.51,0,0,0,.13-.63h.89a2.24,2.24,0,0,1-.19.93,2.22,2.22,0,0,1-.53.76,2.45,2.45,0,0,1-.88.52A3.88,3.88,0,0,1,129.23,30.9Zm-2-4h4a3.26,3.26,0,0,0-.15-1.06,1.68,1.68,0,0,0-.4-.68,1.44,1.44,0,0,0-.6-.37,2.37,2.37,0,0,0-.78-.12,2.21,2.21,0,0,0-1.06.24,1.54,1.54,0,0,0-.68.72A3.57,3.57,0,0,0,127.23,26.94Z"/><path class="cls-1" d="M135.72,30.9a4.47,4.47,0,0,1-1.16-.13,2.19,2.19,0,0,1-.84-.4,1.59,1.59,0,0,1-.51-.62,2.08,2.08,0,0,1-.17-.85v-.11a.31.31,0,0,1,0-.1h.9a.38.38,0,0,0,0,.1v.09a1.17,1.17,0,0,0,.24.76,1.25,1.25,0,0,0,.64.39,4,4,0,0,0,1,.11,2.49,2.49,0,0,0,.85-.13,1.45,1.45,0,0,0,.59-.39.89.89,0,0,0,.22-.62.88.88,0,0,0-.28-.71,2.05,2.05,0,0,0-.74-.37l-.95-.29c-.27-.07-.54-.15-.8-.24a3.11,3.11,0,0,1-.71-.34,1.44,1.44,0,0,1-.52-.52,1.56,1.56,0,0,1-.19-.79,1.66,1.66,0,0,1,.17-.75,1.57,1.57,0,0,1,.5-.56,2.21,2.21,0,0,1,.79-.36,3.85,3.85,0,0,1,1.06-.13,3.73,3.73,0,0,1,1.13.15,2.2,2.2,0,0,1,.76.41,1.94,1.94,0,0,1,.43.58,1.8,1.8,0,0,1,.14.68s0,.07,0,.12,0,.08,0,.11h-.89v-.16a1.1,1.1,0,0,0-.14-.52,1,1,0,0,0-.47-.43,2.13,2.13,0,0,0-1-.18,2.73,2.73,0,0,0-.68.07,1.5,1.5,0,0,0-.48.19,1,1,0,0,0-.29.31,1,1,0,0,0-.09.43.68.68,0,0,0,.23.56,1.85,1.85,0,0,0,.61.32l.81.26.88.26a4.81,4.81,0,0,1,.83.35,1.45,1.45,0,0,1,.84,1.41,1.92,1.92,0,0,1-.2.89,1.73,1.73,0,0,1-.56.64,2.48,2.48,0,0,1-.84.38A4,4,0,0,1,135.72,30.9Z"/><path class="cls-1" d="M2.87,43.12A2.86,2.86,0,0,1,2.1,43a2,2,0,0,1-.68-.3A1.62,1.62,0,0,1,1,42.16a1.94,1.94,0,0,1-.18-.88,1.76,1.76,0,0,1,.34-1.12,2.11,2.11,0,0,1,.94-.68,5.44,5.44,0,0,1,1.44-.34c.55,0,1.15-.08,1.8-.08v-.85a1.47,1.47,0,0,0-.15-.69.92.92,0,0,0-.5-.44,2.53,2.53,0,0,0-1-.16,2.49,2.49,0,0,0-1,.16,1,1,0,0,0-.51.43,1.1,1.1,0,0,0-.15.57v.2H1.09a.49.49,0,0,1,0-.12V38a1.58,1.58,0,0,1,.32-1,2.05,2.05,0,0,1,.94-.61,4.57,4.57,0,0,1,1.39-.2,3.5,3.5,0,0,1,1.34.23,1.84,1.84,0,0,1,.84.67,1.81,1.81,0,0,1,.29,1v3.83a.42.42,0,0,0,.1.33.34.34,0,0,0,.25.1h.54v.58a2.64,2.64,0,0,1-.4.12,1.61,1.61,0,0,1-.44.06A.89.89,0,0,1,5.73,43a.77.77,0,0,1-.28-.4A2.23,2.23,0,0,1,5.34,42H5.25a2.29,2.29,0,0,1-.61.59,3.24,3.24,0,0,1-.82.38A3.57,3.57,0,0,1,2.87,43.12Zm.19-.77a2.46,2.46,0,0,0,.81-.14,2.58,2.58,0,0,0,.71-.39,1.93,1.93,0,0,0,.51-.59,1.51,1.51,0,0,0,.2-.76v-.68a12.06,12.06,0,0,0-2,.13,2.54,2.54,0,0,0-1.19.44,1.2,1.2,0,0,0-.23,1.51,1,1,0,0,0,.48.36A1.83,1.83,0,0,0,3.06,42.35Z"/><path class="cls-1" d="M8,43V36.31h.72l.09,1h.08a2.47,2.47,0,0,1,.64-.71,2.26,2.26,0,0,1,.76-.38,3.6,3.6,0,0,1,.88-.11,2.75,2.75,0,0,1,1.11.21,1.55,1.55,0,0,1,.74.67,2.59,2.59,0,0,1,.27,1.28V43h-.92V38.41a1.88,1.88,0,0,0-.11-.72,1,1,0,0,0-.32-.44,1.2,1.2,0,0,0-.47-.22,2.77,2.77,0,0,0-.6-.06,2,2,0,0,0-1,.24,2,2,0,0,0-.73.71A2.12,2.12,0,0,0,9,39V43Z"/><path class="cls-1" d="M17.29,43.12a2.61,2.61,0,0,1-1.42-.37A2.25,2.25,0,0,1,15,41.61a5.76,5.76,0,0,1-.31-2A5,5,0,0,1,15,37.65a2.31,2.31,0,0,1,.91-1.13,2.58,2.58,0,0,1,1.38-.36,3,3,0,0,1,.81.1,2,2,0,0,1,.68.32,2.2,2.2,0,0,1,.54.59h.07V33.82h.91V43h-.71l-.1-1h-.09a2.22,2.22,0,0,1-.9.85A2.53,2.53,0,0,1,17.29,43.12Zm.15-.8a1.86,1.86,0,0,0,1.1-.3,1.81,1.81,0,0,0,.63-.88,4.32,4.32,0,0,0,.19-1.39v-.23a4.28,4.28,0,0,0-.16-1.29,1.87,1.87,0,0,0-.43-.78,1.42,1.42,0,0,0-.6-.39,2.18,2.18,0,0,0-.67-.1,2.05,2.05,0,0,0-1.06.25,1.61,1.61,0,0,0-.63.82,4.22,4.22,0,0,0-.21,1.46v.31a4,4,0,0,0,.23,1.49,1.56,1.56,0,0,0,.64.79A1.89,1.89,0,0,0,17.44,42.32Z"/><path class="cls-1" d="M25,43V34.29h6.11v.86H26v3h4.66V39H26v4Z"/><path class="cls-1" d="M32.53,34.94V33.82h.92v1.12Zm0,8V36.31h.92V43Z"/><path class="cls-1" d="M35.23,43V33.82h.91V43Z"/><path class="cls-1" d="M37.93,43V36.31h.72l.09,1h.08a2.73,2.73,0,0,1,.61-.71,2.08,2.08,0,0,1,.72-.38,3.22,3.22,0,0,1,.84-.11,2.3,2.3,0,0,1,1.15.27,1.49,1.49,0,0,1,.68.93h.08a2.46,2.46,0,0,1,.59-.7,2.13,2.13,0,0,1,.73-.38,2.94,2.94,0,0,1,.84-.12,2.62,2.62,0,0,1,1,.2,1.51,1.51,0,0,1,.72.67,2.67,2.67,0,0,1,.26,1.27V43h-.91V38.4a2.1,2.1,0,0,0-.11-.72.93.93,0,0,0-.3-.43,1.07,1.07,0,0,0-.44-.22,2.38,2.38,0,0,0-.55-.06,1.75,1.75,0,0,0-.89.24,1.91,1.91,0,0,0-.67.71A2.22,2.22,0,0,0,43,39V43h-.91V38.4a2.12,2.12,0,0,0-.1-.72.91.91,0,0,0-.29-.43,1.14,1.14,0,0,0-.44-.22A2.18,2.18,0,0,0,40.7,37a1.82,1.82,0,0,0-.91.24,2,2,0,0,0-.69.71A2.22,2.22,0,0,0,38.84,39V43Z"/><path class="cls-1" d="M51.77,43V34.29h6.64v.86H52.77v2.93h5.09V39H52.77v3.16h5.72V43Z"/><path class="cls-1" d="M62.31,43.12A5,5,0,0,1,61.15,43a2.19,2.19,0,0,1-.84-.4A1.59,1.59,0,0,1,59.8,42a2.08,2.08,0,0,1-.17-.85V41a.41.41,0,0,1,0-.11h.9a.49.49,0,0,0,0,.11v.08a1.18,1.18,0,0,0,.24.77,1.25,1.25,0,0,0,.64.39,4,4,0,0,0,1,.11,2.76,2.76,0,0,0,.85-.13,1.45,1.45,0,0,0,.59-.39.91.91,0,0,0,.22-.62.88.88,0,0,0-.28-.71,2.05,2.05,0,0,0-.74-.37l-.95-.29c-.27-.07-.54-.16-.8-.24a3.11,3.11,0,0,1-.71-.34,1.52,1.52,0,0,1-.52-.52,1.56,1.56,0,0,1-.19-.79,1.66,1.66,0,0,1,.17-.75,1.57,1.57,0,0,1,.5-.56,2.41,2.41,0,0,1,.79-.37,4.24,4.24,0,0,1,1.06-.12,3.73,3.73,0,0,1,1.13.15,2.2,2.2,0,0,1,.76.41,1.82,1.82,0,0,1,.43.58,1.76,1.76,0,0,1,.14.68s0,.07,0,.11,0,.08,0,.12h-.89V38a1.13,1.13,0,0,0-.14-.52,1.11,1.11,0,0,0-.47-.43,2.29,2.29,0,0,0-1-.17,2.73,2.73,0,0,0-.68.07,1.5,1.5,0,0,0-.48.19,1,1,0,0,0-.29.31,1,1,0,0,0-.09.43.68.68,0,0,0,.23.56,1.85,1.85,0,0,0,.61.32c.26.08.53.16.81.26l.88.26a4.8,4.8,0,0,1,.83.34,1.69,1.69,0,0,1,.61.54,1.55,1.55,0,0,1,.23.88,1.92,1.92,0,0,1-.2.89,1.82,1.82,0,0,1-.56.64,2.48,2.48,0,0,1-.84.38A4,4,0,0,1,62.31,43.12Z"/><path class="cls-1" d="M68.58,43.12A5.1,5.1,0,0,1,67.41,43a2.19,2.19,0,0,1-.84-.4,1.79,1.79,0,0,1-.51-.62,2.08,2.08,0,0,1-.17-.85V41s0-.07,0-.11h.9a.49.49,0,0,0,0,.11v.08a1.24,1.24,0,0,0,.24.77,1.28,1.28,0,0,0,.65.39,4,4,0,0,0,1,.11,2.74,2.74,0,0,0,.84-.13,1.33,1.33,0,0,0,.59-.39.91.91,0,0,0,.23-.62.88.88,0,0,0-.29-.71,2.05,2.05,0,0,0-.74-.37l-1-.29c-.27-.07-.53-.16-.8-.24a3.11,3.11,0,0,1-.71-.34,1.41,1.41,0,0,1-.51-.52,1.47,1.47,0,0,1-.19-.79,1.54,1.54,0,0,1,.66-1.31,2.51,2.51,0,0,1,.79-.37,4.32,4.32,0,0,1,1.07-.12,3.7,3.7,0,0,1,1.12.15,2.11,2.11,0,0,1,.76.41,1.57,1.57,0,0,1,.43.58,1.76,1.76,0,0,1,.14.68.45.45,0,0,1,0,.11v.12h-.9V38a1.11,1.11,0,0,0-.13-.52,1.17,1.17,0,0,0-.47-.43,2.35,2.35,0,0,0-1-.17,2.68,2.68,0,0,0-.68.07,1.5,1.5,0,0,0-.48.19.85.85,0,0,0-.29.31.88.88,0,0,0-.1.43.68.68,0,0,0,.24.56,1.75,1.75,0,0,0,.61.32l.81.26.88.26a5.15,5.15,0,0,1,.83.34,1.74,1.74,0,0,1,.6.54,1.48,1.48,0,0,1,.23.88A1.8,1.8,0,0,1,71,42a1.72,1.72,0,0,1-.56.64,2.32,2.32,0,0,1-.84.38A3.92,3.92,0,0,1,68.58,43.12Z"/><path class="cls-1" d="M75.19,43.12a3.16,3.16,0,0,1-1.6-.38,2.29,2.29,0,0,1-1-1.14,5.85,5.85,0,0,1,0-3.93,2.31,2.31,0,0,1,1-1.14,3.38,3.38,0,0,1,1.67-.37,3.06,3.06,0,0,1,1.55.36,2.36,2.36,0,0,1,1,1.07,4.11,4.11,0,0,1,.32,1.71v.58h-4.9a3.64,3.64,0,0,0,.24,1.43,1.57,1.57,0,0,0,.69.8,2.22,2.22,0,0,0,1.11.25,2.39,2.39,0,0,0,.84-.13,1.53,1.53,0,0,0,1-.87,1.69,1.69,0,0,0,.13-.63H78a2.41,2.41,0,0,1-.18.93,2.37,2.37,0,0,1-.53.76,2.46,2.46,0,0,1-.88.51A3.71,3.71,0,0,1,75.19,43.12Zm-2-4h4A3.54,3.54,0,0,0,77,38.1a1.8,1.8,0,0,0-.4-.68A1.46,1.46,0,0,0,76,37a2.67,2.67,0,0,0-.78-.11,2.3,2.3,0,0,0-1.06.23,1.51,1.51,0,0,0-.68.73A3.55,3.55,0,0,0,73.19,39.16Z"/><path class="cls-1" d="M79.47,43V36.31h.72l.09,1h.09a2.45,2.45,0,0,1,.63-.71,2.31,2.31,0,0,1,.77-.38,3.48,3.48,0,0,1,.88-.11,2.67,2.67,0,0,1,1.1.21,1.51,1.51,0,0,1,.74.67,2.59,2.59,0,0,1,.27,1.28V43h-.91V38.41a2.1,2.1,0,0,0-.11-.72,1.14,1.14,0,0,0-.32-.44,1.25,1.25,0,0,0-.48-.22,2.77,2.77,0,0,0-.6-.06,1.93,1.93,0,0,0-1.68,1A2,2,0,0,0,80.38,39V43Z"/><path class="cls-1" d="M87.94,43.11a1.38,1.38,0,0,1-.73-.17.88.88,0,0,1-.38-.45,1.93,1.93,0,0,1-.11-.65V37.08h-.9v-.77h.9l.18-1.85h.73v1.85h1.28v.77H87.63v4.6a1,1,0,0,0,.1.5c.06.11.2.17.42.17h.76v.58l-.3.09-.34.07Z"/><path class="cls-1" d="M90.13,34.94V33.82H91v1.12Zm0,8V36.31H91V43Z"/><path class="cls-1" d="M94.48,43.12a2.86,2.86,0,0,1-.77-.1,1.91,1.91,0,0,1-.68-.3,1.43,1.43,0,0,1-.47-.56,1.94,1.94,0,0,1-.18-.88,1.82,1.82,0,0,1,.33-1.12,2.2,2.2,0,0,1,1-.68,5.46,5.46,0,0,1,1.43-.34c.56,0,1.16-.08,1.81-.08v-.85a1.47,1.47,0,0,0-.15-.69,1,1,0,0,0-.51-.44,2.51,2.51,0,0,0-1-.16,2.45,2.45,0,0,0-1,.16,1,1,0,0,0-.52.43,1.2,1.2,0,0,0-.14.57v.2h-.88s0-.08,0-.12V38A1.58,1.58,0,0,1,93,37a2,2,0,0,1,.94-.61,4.52,4.52,0,0,1,1.39-.2,3.5,3.5,0,0,1,1.34.23,2,2,0,0,1,.84.67,1.81,1.81,0,0,1,.29,1v3.83a.47.47,0,0,0,.09.33.38.38,0,0,0,.26.1h.53v.58a2.34,2.34,0,0,1-.4.12,1.49,1.49,0,0,1-.43.06.92.92,0,0,1-.53-.14.83.83,0,0,1-.28-.4A2.24,2.24,0,0,1,97,42h-.09a2.33,2.33,0,0,1-.62.59,3.17,3.17,0,0,1-.81.38A3.63,3.63,0,0,1,94.48,43.12Zm.19-.77a2.46,2.46,0,0,0,.81-.14,2.58,2.58,0,0,0,.71-.39,1.93,1.93,0,0,0,.51-.59,1.51,1.51,0,0,0,.2-.76v-.68a12.06,12.06,0,0,0-2,.13,2.49,2.49,0,0,0-1.19.44,1.06,1.06,0,0,0-.4.89,1.08,1.08,0,0,0,.17.62.92.92,0,0,0,.48.36A1.83,1.83,0,0,0,94.67,42.35Z"/><path class="cls-1" d="M99.64,43V33.82h.91V43Z"/><path class="cls-1" d="M104.55,43.12a5,5,0,0,1-1.16-.13,2.19,2.19,0,0,1-.84-.4A1.59,1.59,0,0,1,102,42a2.08,2.08,0,0,1-.17-.85V41a.41.41,0,0,1,0-.11h.9a.49.49,0,0,0,0,.11v.08a1.24,1.24,0,0,0,.24.77,1.29,1.29,0,0,0,.64.39,4,4,0,0,0,1,.11,2.74,2.74,0,0,0,.84-.13,1.39,1.39,0,0,0,.59-.39.91.91,0,0,0,.22-.62.88.88,0,0,0-.28-.71,2.05,2.05,0,0,0-.74-.37l-1-.29c-.27-.07-.54-.16-.8-.24a3.11,3.11,0,0,1-.71-.34,1.52,1.52,0,0,1-.52-.52,1.56,1.56,0,0,1-.19-.79,1.54,1.54,0,0,1,.18-.75,1.46,1.46,0,0,1,.49-.56,2.41,2.41,0,0,1,.79-.37,4.29,4.29,0,0,1,1.06-.12,3.73,3.73,0,0,1,1.13.15,2.2,2.2,0,0,1,.76.41,1.69,1.69,0,0,1,.43.58,1.76,1.76,0,0,1,.14.68.45.45,0,0,1,0,.11s0,.08,0,.12h-.89V38a1.13,1.13,0,0,0-.14-.52,1.07,1.07,0,0,0-.46-.43,2.37,2.37,0,0,0-1-.17,2.6,2.6,0,0,0-.67.07,1.57,1.57,0,0,0-.49.19,1,1,0,0,0-.29.31,1,1,0,0,0-.09.43.71.71,0,0,0,.23.56,1.81,1.81,0,0,0,.62.32l.81.26.88.26a5,5,0,0,1,.82.34,1.69,1.69,0,0,1,.61.54,1.55,1.55,0,0,1,.23.88,1.92,1.92,0,0,1-.2.89,1.82,1.82,0,0,1-.56.64,2.48,2.48,0,0,1-.84.38A4,4,0,0,1,104.55,43.12Z"/></g></g></svg>