<?xml version="1.0" encoding="UTF-8"?>
<svg xmlns="http://www.w3.org/2000/svg" xmlns:xlink="http://www.w3.org/1999/xlink" viewBox="0 0 160 600">
  <defs>
    <style>
      .cls-1 {
        fill: #fefefe;
      }

      .cls-1, .cls-2, .cls-3, .cls-4, .cls-5, .cls-6, .cls-7, .cls-8, .cls-9, .cls-10, .cls-11, .cls-12, .cls-13, .cls-14, .cls-15, .cls-16, .cls-17 {
        stroke-width: 0px;
      }

      .cls-2 {
        fill: #4b9fd3;
      }

      .cls-3 {
        fill: #fdfdfe;
      }

      .cls-4 {
        fill: #f1f7fb;
      }

      .cls-18 {
        opacity: .06;
      }

      .cls-19 {
        isolation: isolate;
      }

      .cls-5 {
        fill: #f3f8fb;
      }

      .cls-6 {
        fill: none;
      }

      .cls-7, .cls-10 {
        fill: #fff;
      }

      .cls-20 {
        fill: #0085ca;
        stroke: #fff;
        stroke-miterlimit: 10;
        stroke-width: 3px;
      }

      .cls-8 {
        fill: #f4f9fc;
      }

      .cls-9 {
        fill: #3f99d0;
      }

      .cls-10 {
        mix-blend-mode: soft-light;
      }

      .cls-21 {
        clip-path: url(#clippath);
      }

      .cls-11 {
        fill: #4a9ed3;
      }

      .cls-12 {
        fill: #d7eaf5;
      }

      .cls-13 {
        fill: #1e86c8;
      }

      .cls-14 {
        fill: #1a84c7;
      }

      .cls-15 {
        fill: #eef5fa;
      }

      .cls-16 {
        fill: #d1e6f3;
      }

      .cls-22 {
        opacity: .09;
      }

      .cls-17 {
        fill: #1a85c7;
      }
    </style>
    <clipPath id="clippath">
      <rect class="cls-6" width="160" height="600"/>
    </clipPath>
  </defs>
  <g class="cls-19">
    <g id="Layer_2" data-name="Layer 2">
      <g id="Layer_1-2" data-name="Layer 1">
        <g class="cls-21">
          <g>
            <path class="cls-20" d="M-94.4-16.41C-44.71-74.48,34.14-84.82,49.98-86.89c61.91-8.11,72.63,15.25,145.52,11.37,93.82-4.99,116.91-45.88,156.88-28.42,56.62,24.73,69.02,132.4,57.98,203.49-13.49,86.84-69.68,168.86-151.2,212.59-103.12,55.32-268.79,61.19-351.28-46.61-61.07-79.81-65.72-207.78-2.27-281.94Z"/>
            <g class="cls-22">
              <path class="cls-10" d="M-93.1,150.66v3.74c102.32-20.51,167.41-38.41,167.41-38.41-46.23,12.47-117.72,25.92-167.41,34.67Z"/>
              <path class="cls-10" d="M216.46.61C131.04,38.48,7.94,89.48-93.1,117.26v9.04C-7.16,102.16,127.29,43.11,219.32.61h-2.86Z"/>
              <path class="cls-10" d="M111.18.61C57.31,18.76-5.76,37.23-78.11,54.14c-4.96,1.16-9.97,2.28-14.99,3.38v13.23c5.98-1.29,11.83-2.62,17.53-4.02C-3.22,49.01,66.55,25.01,127.94.61h-16.76Z"/>
              <path class="cls-10" d="M56.32,91.81C-4.73,113.38-44.95,127.18-44.95,127.18c33-10.38,67.73-22.71,101.27-35.37Z"/>
              <path class="cls-10" d="M294.99,5.12V.61h-24.16c-39.82,15.84-83.48,32.68-130.02,49.86L247.25,12.68S157.17,53.74,56.32,91.81C120.39,69.17,207.41,37.95,294.99,5.12Z"/>
              <path class="cls-10" d="M140.81,50.47L19.41,93.56c42.06-14.32,82.71-28.82,121.4-43.09Z"/>
              <path class="cls-10" d="M294.99,77.11c-104.06,30.13-190.56,54.95-190.56,54.95l190.56-52.6v-2.35Z"/>
            </g>
            <g class="cls-18">
              <path class="cls-10" d="M-12,316.64v3.74c102.32-20.51,167.41-38.41,167.41-38.41-46.23,12.47-117.72,25.92-167.41,34.67Z"/>
              <path class="cls-10" d="M-12,311.41l22.78-5.97c-7.53,1.73-15.13,3.42-22.78,5.1v.87Z"/>
              <path class="cls-10" d="M297.55,166.59c-85.42,37.86-208.52,88.87-309.56,116.65v9.04c85.94-24.14,220.39-83.19,312.41-125.69h-2.86Z"/>
              <path class="cls-10" d="M192.28,166.59c-53.87,18.15-116.94,36.62-189.29,53.53-4.96,1.16-9.97,2.28-14.99,3.38v13.23c5.98-1.29,11.83-2.62,17.53-4.02,72.34-17.72,142.12-41.72,203.51-66.13h-16.76Z"/>
              <path class="cls-10" d="M137.41,257.79c-61.05,21.57-101.27,35.37-101.27,35.37,33-10.38,67.73-22.71,101.27-35.37Z"/>
              <path class="cls-10" d="M376.08,171.09v-4.5h-24.16c-39.82,15.84-83.48,32.68-130.02,49.86l106.44-37.78s-90.08,41.05-190.94,79.12c64.07-22.64,151.1-53.86,238.67-86.69Z"/>
              <path class="cls-10" d="M221.91,216.45l-121.4,43.09c42.06-14.32,82.71-28.82,121.4-43.09Z"/>
            </g>
          </g>
          <path class="cls-7" d="M4.9,523.47c53.3-15.61,105.39,9.4,115.85,14.43,40.9,19.64,38.15,38.12,84.04,64.69,59.08,34.21,89.36,18.5,106.76,44.99,24.64,37.53-10.56,107.98-45.51,146.86-42.69,47.49-109.45,75.1-176.42,69.35-84.72-7.27-187.87-69.48-195.28-167.83-5.48-72.82,42.5-152.54,110.55-172.48Z"/>
          <g>
            <path class="cls-14" d="M29.24,583.19c-1.56-1.74-3.05-3.4-4.53-5.07-1.52-1.71-3.02-3.44-4.57-5.12-.4-.44-.36-.64.02-1.06,2.91-3.13,5.79-6.29,8.68-9.44.11-.12.19-.28.48-.3,0,.89.04,1.77-.01,2.65-.03.58.18.74.71.68.19-.03.39,0,.59,0,26.69,0,53.37,0,80.06-.02.82,0,1.07.16,1.06,1.03-.05,4.06-.05,8.11,0,12.17,0,.79-.23.94-.98.94-26.77-.02-53.54-.02-80.31-.02q-1.12,0-1.12,1.09c0,.73,0,1.45,0,2.18,0,.05-.02.1-.08.3Z"/>
            <path class="cls-14" d="M112.72,546.94c1.15,1.27,2.21,2.44,3.26,3.62,1.93,2.17,3.84,4.36,5.79,6.51.36.4.43.63.01,1.08-2.39,2.55-4.73,5.14-7.09,7.71-.62.67-1.23,1.34-2.06,1.97,0-.71,0-1.41,0-2.12q0-1.15-1.2-1.15c-12.55,0-25.09,0-37.64,0-14.2,0-28.41,0-42.61.02-.83,0-1.01-.28-1.01-1.02.02-4.01.04-8.03,0-12.04,0-.82.18-1.06,1.05-1.06,17.82.03,35.65.02,53.47.02,8.93,0,17.85,0,26.78,0q1.15,0,1.15-1.11c0-.7,0-1.4,0-2.1,0-.05.02-.11.08-.34Z"/>
            <path class="cls-14" d="M19.72,569.65c0-6.56-.01-12.91.02-19.25,0-.77-.19-1.05-.97-.96-.49.06-1,.01-1.63.01.66-.94,1.52-1.52,2.24-2.23,1.47-1.45,3.01-2.84,4.5-4.27.26-.25.42-.36.74-.05,2.21,2.14,4.44,4.25,6.73,6.43-.67.22-1.3.11-1.91.11-.52,0-.68.08-.67.69.05,3.11,0,6.22,0,9.32,0,.53-.14.93-.52,1.33-2.6,2.7-5.17,5.42-7.76,8.13-.2.21-.43.41-.78.74Z"/>
            <path class="cls-14" d="M122.27,560.58c0,5.2,0,10.25,0,15.31,0,1.38-.03,2.76-.08,4.13-.02.5.12.67.65.64.59-.04,1.2.05,1.87.09-.41.69-.99,1.09-1.48,1.57-1.73,1.63-3.48,3.24-5.2,4.87-.27.25-.42.34-.73.03-2.19-2.12-4.4-4.22-6.6-6.33-.05-.05-.08-.12-.17-.28.71,0,1.35-.04,1.98.01.57.04.7-.18.69-.71-.02-3.13,0-6.26.01-9.4,0-.33-.01-.64.26-.92,2.83-2.91,5.64-5.83,8.45-8.75.07-.07.16-.13.35-.27Z"/>
            <path class="cls-14" d="M98.1,586.01c0-1.28.06-2.3-.02-3.3-.05-.65.12-.82.75-.82,2.09,0,2.09-.02,2.09,2.08,0,2.01-.02,4.03.01,6.04,0,.56-.13.71-.72.79-1.55.21-2.58-.34-3.3-1.71-.42-.81-1.01-1.52-1.71-2.24,0,1.01-.04,2.02.01,3.03.04.67-.11.92-.85.91-2.03-.04-2.03,0-2.03-2.03,0-2.1.03-4.2,0-6.29,0-.53.16-.59.62-.65,1.63-.22,2.75.32,3.48,1.83.38.78,1.01,1.45,1.67,2.37Z"/>
            <path class="cls-14" d="M86.68,590.93c-3.07,0-4.67-1.59-4.66-4.63.01-2.94,1.69-4.57,4.69-4.62,2.82-.05,4.59,1.87,4.59,4.74,0,2.87-1.68,4.51-4.62,4.51Z"/>
            <path class="cls-14" d="M45.58,590.93c-3.04,0-4.64-1.61-4.64-4.66,0-2.82,1.78-4.66,4.62-4.61,3.06.06,4.71,2.01,4.66,4.76-.05,2.91-1.65,4.5-4.64,4.5Z"/>
            <path class="cls-14" d="M59.01,584.68c0-.53-.02-1.06,0-1.59.05-1.3.06-1.3,1.4-1.3q1.58,0,1.58,1.55c0,1.26-.02,2.52.01,3.77.03,1.01.37,1.39,1.15,1.43.91.05,1.36-.3,1.42-1.34.08-1.56.06-3.13.03-4.69-.01-.6.19-.74.76-.73,2.22,0,2.19-.01,2.27,2.2.05,1.38.07,2.75-.22,4.11-.33,1.52-1.28,2.43-2.81,2.67-.7.11-1.39.14-2.09.06-2.17-.22-3.44-1.54-3.54-3.71-.04-.81,0-1.62,0-2.43h.04Z"/>
            <path class="cls-14" d="M37.75,584.95c.42.21.86.4,1.27.63,2.37,1.35,1.51,3.9-.05,4.72-1.57.82-3.19.94-4.83.25-1.03-.44-1.6-1.25-1.8-2.34-.07-.39,0-.59.44-.59.41,0,.83-.01,1.24-.07.63-.09,1.09-.11,1.26.73.14.67,1.54.87,2.01.34.38-.43.08-.71-.29-.93-.59-.34-1.24-.48-1.89-.66-1.06-.29-2.01-.73-2.38-1.88-.38-1.17-.05-2.05.99-2.73,1.49-.96,3.89-.99,5.23-.08.29.2.51.44.69.71.29.45.64.99.41,1.47-.16.34-.77.08-1.17.17-.38.08-.79-.09-1.14.15-.38.06-.53-.23-.71-.47-.13-.18-.26-.36-.49-.43-.24-.07-.57-.15-.67.11-.14.34.24.37.45.43.48.14.97.22,1.41.47Z"/>
            <path class="cls-14" d="M107.14,584.92c.39.15.81.25,1.16.46.94.56,1.75,1.26,1.71,2.48-.04,1.23-.69,2.1-1.81,2.59-1.61.7-3.23.77-4.83-.07-.89-.47-1.3-1.26-1.5-2.2-.09-.4.07-.57.47-.58.44-.01.88-.03,1.32-.09.57-.07.97-.02,1.15.68.17.68,1.44.93,1.98.45.38-.34.23-.66-.11-.89-.44-.3-.95-.46-1.47-.58-.68-.16-1.36-.35-1.94-.74-1.6-1.07-1.53-3.12.14-4.1,1.81-1.06,4.37-.85,5.56.46.19.2.36.43.48.68.46.99.34,1.15-.75,1.2-.52.02-1.07-.06-1.56.19-.29-.08-.46-.29-.59-.55-.13-.27-.35-.43-.66-.44-.2,0-.43-.01-.48.23-.04.21.17.26.32.32.46.18.99.19,1.41.5Z"/>
            <path class="cls-14" d="M72.1,581.82c1.41,0,2.83.01,4.24,0,.43,0,.55.11.55.55.03,1.78.05,1.82-1.71,1.76-.81-.03-1.12.13-1.07,1.03.09,1.64,0,3.29.03,4.94,0,.49-.1.72-.65.68-.53-.04-1.07-.05-1.59,0-.62.06-.74-.22-.73-.78.03-1.73,0-3.46.02-5.19,0-.5-.12-.74-.65-.66-.19.03-.39.02-.59,0-.47-.04-1.19.21-1.35-.12-.24-.51-.11-1.19-.1-1.8,0-.38.33-.32.56-.32,1.01,0,2.02,0,3.02,0,0-.02,0-.05,0-.07Z"/>
            <path class="cls-14" d="M51.42,585.65c0-1.06.04-2.12-.02-3.18-.02-.51.1-.68.61-.65.78.04,1.82-.27,2.27.12.46.4.12,1.47.13,2.24.02,1.17.03,2.35,0,3.52-.01.5.1.69.64.67,1-.04,2.01.01,3.01,0,.42,0,.56.13.57.55.04,1.86.05,1.86-1.79,1.86-1.54,0-3.08-.02-4.62,0-.52,0-.75-.11-.74-.69.04-1.48.01-2.96.01-4.44-.02,0-.04,0-.06,0Z"/>
            <path class="cls-14" d="M80.81,586.33c0,1.28-.03,2.55.01,3.83.01.45-.04.65-.55.62-.78-.06-1.8.24-2.28-.15-.51-.41-.15-1.47-.16-2.24-.02-1.98.02-3.97-.02-5.95-.01-.54.16-.6.64-.6,2.38,0,2.38-.02,2.38,2.35,0,.72,0,1.44,0,2.15h-.02Z"/>
            <path class="cls-5" d="M37.75,584.95c-.63-.09-1.27-.18-1.86-.43-.21-.09-.45-.17-.4-.46.05-.24.26-.37.49-.4.46-.07.89-.03,1.14.46.15.29.24.64.64.71,0,.04,0,.08,0,.11Z"/>
            <path class="cls-8" d="M107.14,584.92c-.56-.11-1.15-.15-1.68-.4-.21-.1-.53-.18-.43-.5.07-.23.3-.38.58-.39.51-.02.96.1,1.11.64.07.26.25.41.4.59,0,0,0,.06,0,.06Z"/>
            <path class="cls-12" d="M111.69,590.67c-.39.19-.78.28-1.18.05-.05-.06-.07-.12-.06-.19.04-.06.09-.11.15-.15.19-.1.38-.21.59-.25.25,0,.41.15.53.35.02.07.01.14-.04.2Z"/>
            <path class="cls-16" d="M110.5,589.69c.35-.39.96-.36,1.2.06-.09.2-.17.42-.47.35-.2-.07-.37-.21-.57-.27-.07-.03-.12-.08-.16-.14Z"/>
            <path class="cls-4" d="M111.18,590.02c.25.06.3-.26.52-.28.02.04.04.07.06.11.35.26.19.47-.06.68-.15-.11-.31-.23-.46-.34-.06-.02-.09-.05-.08-.09,0-.05.01-.07.03-.07Z"/>
            <path class="cls-9" d="M110.51,590.53c0,.06,0,.13,0,.19-.48-.24-.59-.57-.24-1,.34.19.34.49.24.81Z"/>
            <path class="cls-15" d="M110.51,590.53c-.25-.22-.09-.56-.24-.81.07,0,.15-.02.22-.03.07,0,.15,0,.22.01.2.3.16.58-.08.83h-.06s-.06,0-.06,0Z"/>
            <path class="cls-11" d="M111.7,590.53c.14-.21.19-.44.06-.68.31-.2.31.1.35.24.09.34-.15.48-.42.58.02-.05.03-.09,0-.14Z"/>
            <path class="cls-1" d="M93.2,572.67c0,1.19-.02,2.39,0,3.58.01.51-.09.74-.68.74-1.88,0-1.88.04-1.88-1.87,0-2.04.01-4.08-.01-6.13,0-.5.13-.63.65-.69,1.42-.18,2.43.19,3.1,1.57.46.93,1.2,1.72,1.99,2.55,0-1.12.03-2.25-.01-3.37-.02-.59.17-.75.75-.75,1.81.01,1.81-.01,1.81,1.78,0,2.01-.02,4.03.01,6.04,0,.58-.09.77-.75.84-1.32.12-2.2-.25-2.84-1.46-.54-1.02-1.3-1.93-1.96-2.89-.06.02-.13.04-.19.06Z"/>
            <path class="cls-1" d="M43.98,572.61c0-1.23.02-2.46-.01-3.69-.01-.48.15-.6.62-.61,2.12-.05,2.16-.06,2.11,2.05-.02.8.25,1.01,1,1,1.85-.02,1.85,0,1.85-1.82q0-1.18,1.21-1.18,1.51,0,1.51,1.55c0,2.1-.01,4.2,0,6.29,0,.49-.06.74-.66.74-2.07,0-2.07.03-2.07-2.02q0-1.48-1.5-1.48-1.33,0-1.33,1.3c0,.22.03.45,0,.67-.07.51.28,1.31-.19,1.46-.71.23-1.55.09-2.33.06-.32-.02-.2-.35-.21-.55-.01-1.26,0-2.52,0-3.78Z"/>
            <path class="cls-1" d="M107.06,572.01c2.09,0,1.97,0,2.12,2.07.1,1.39-.51,2.01-1.65,2.51-1.92.84-4.69.62-5.97-.55-1.37-1.25-1.72-3.83-.79-5.66.86-1.67,3.06-2.69,4.99-2.3,1.33.27,2.49.79,3.08,2.15.17.38.08.48-.29.52-.42.04-.84.08-1.24.19-.55.15-.94.11-1.38-.36-.75-.79-2.03-.54-2.55.42-.55,1.02-.58,2.09-.1,3.13.45.99,2.53,1.32,3.24.52.11-.13.18-.36.16-.53-.02-.18-.25-.19-.42-.18-.06,0-.11,0-.17,0-.37-.07-.93.21-1.08-.16-.18-.43-.07-.99-.06-1.49,0-.34.29-.27.5-.28.53,0,1.07,0,1.6,0Z"/>
            <path class="cls-1" d="M53.7,572.67c-.01-2.84,1.61-4.51,4.42-4.52,2.86-.01,4.57,1.65,4.59,4.45.02,2.84-1.6,4.48-4.43,4.49-2.94,0-4.56-1.56-4.58-4.43Z"/>
            <path class="cls-1" d="M34.5,568.16c.2.03.59.09.97.17.81.15,1.4.58,1.59,1.4.2.85-.12,1.51-.84,2.02-.81.57-.75,1.02.1,1.46.15.08.27.12.35,0,.61-.89,1.31-.08,1.95-.07.31,0,.14.49,0,.7-.47.65-.33,1.1.39,1.41.54.23.48.5.07.83-.19.16-.33.38-.49.57-.27.32-.57.45-.93.12-.48-.44-.98-.42-1.58-.17-.96.39-1.97.6-3.03.53-1.14-.08-2.08-.49-2.51-1.62-.37-.99.09-2.33,1.05-3.05.35-.26.46-.41.27-.86-.95-2.18.01-3.5,2.63-3.43Z"/>
            <path class="cls-1" d="M74.38,570.87c-.64.1-1.17.11-1.46-.68-.15-.41-.69-.51-1.17-.38-.33.09-.58.27-.62.6-.04.35.29.47.54.55.77.24,1.57.4,2.32.67,1.45.51,2.17,1.4,2.16,2.54-.02,1.16-.93,2.29-2.26,2.7-1.26.38-2.53.38-3.78-.1-.51-.2-.94-.53-1.24-.97-.33-.48-.77-1.06-.54-1.6.17-.41.87-.09,1.32-.19.7-.17,1.14-.11,1.41.72.23.72,1.63.82,2.18.26.46-.47.17-.81-.21-1.1-.55-.41-1.26-.43-1.88-.67-.44-.17-.9-.31-1.32-.53-.83-.44-1.32-1.14-1.27-2.09.04-.86.47-1.54,1.29-1.9,1.67-.72,3.32-.93,4.94.13.07.05.14.09.2.15.47.44.89,1.05.74,1.6-.14.52-.89.19-1.35.29Z"/>
            <path class="cls-1" d="M80.82,568.32c1.15,0,2.3.02,3.45,0,.46-.01.69.11.63.6-.03.28-.02.56,0,.84.02.35-.09.53-.47.5-.17-.01-.34,0-.5,0q-1.72,0-1.72,1.76c0,1.42-.03,2.85.01,4.27.02.57-.19.69-.72.69-2.02,0-2.02.03-2.02-1.99,0-1.26-.02-2.51.01-3.77.02-.59-.04-.97-.79-.87-.35.05-.73-.12-1.08-.08-.74.09-.84-.24-.87-.9-.03-.81.15-1.15,1.04-1.07,1,.09,2.02.02,3.02.02Z"/>
            <path class="cls-1" d="M88.78,572.68c0,1.23-.02,2.46,0,3.69,0,.44-.13.55-.57.57-2.18.07-2.18.08-2.18-2.07,0-1.96.02-3.91-.01-5.87,0-.52.16-.65.67-.65,2.08-.02,2.08-.04,2.08,2.07,0,.75,0,1.51,0,2.26Z"/>
            <path class="cls-1" d="M66.76,572.72c0,1.2-.02,2.41.01,3.61.01.49-.16.6-.62.61-2,.04-2,.06-2-1.91,0-2.01.01-4.03,0-6.04,0-.45.1-.62.6-.64,2.02-.08,2.02-.1,2.02,1.94,0,.81,0,1.62,0,2.43Z"/>
            <path class="cls-1" d="M99.9,557.34c0-1.43.02-2.63,0-3.81-.01-.46.1-.62.6-.63,1.98-.04,1.98-.06,1.98,1.93,0,2.01-.02,4.02.01,6.04,0,.51-.16.61-.66.68-1.39.18-2.36-.22-3.04-1.53-.51-.99-1.25-1.86-2.04-2.99,0,1.46-.02,2.65,0,3.84.01.5-.12.67-.65.68-1.93.03-1.93.05-1.93-1.9,0-2.01.02-4.02-.01-6.04,0-.55.16-.64.69-.71,1.41-.18,2.36.26,3.04,1.55.51.96,1.24,1.81,2.01,2.91Z"/>
            <path class="cls-1" d="M54.8,557.04c0,1.48-.01,2.68,0,3.88,0,.41-.1.58-.56.6-2.02.1-2.02.12-2.02-1.89,0-2.01.02-4.03-.01-6.04,0-.54.16-.64.69-.72,1.42-.2,2.35.29,3.02,1.56.51.96,1.25,1.81,2.03,2.92,0-1.43.02-2.61-.01-3.8-.01-.5.11-.66.64-.67,1.94,0,1.94-.03,1.94,1.89,0,2.01-.02,4.03.01,6.04,0,.56-.19.65-.71.71-1.31.15-2.27-.15-2.92-1.44-.52-1.02-1.3-1.91-2.11-3.06Z"/>
            <path class="cls-1" d="M110.64,556.56q2.04,0,2.04,2.03c0,1.84-.23,2.18-2.08,2.75-1.71.53-3.44.63-5.02-.36-1.56-.98-2.18-3.11-1.64-5.06.54-1.94,1.95-3.04,4.12-3.16,1.48-.08,2.93,0,3.93,1.34.13.18.23.38.33.58.25.48.08.71-.45.74-.36.03-.72.09-1.08.16-.51.09-.92.02-1.36-.37-.93-.83-2.2-.5-2.67.65-.37.91-.37,1.86-.03,2.77.4,1.08,2.42,1.48,3.25.67.16-.15.21-.35.19-.53-.03-.31-.31-.12-.47-.17-.03,0-.06,0-.08,0-.38-.06-.96.2-1.09-.15-.18-.5-.07-1.1-.06-1.66,0-.29.27-.23.45-.23.56,0,1.12,0,1.68,0Z"/>
            <path class="cls-1" d="M50.93,557.15c.2,2.53-1.56,4.52-4.54,4.39-2.81-.12-4.41-1.62-4.41-4.42,0-2.82,1.69-4.54,4.5-4.55,2.52,0,4.69,1.68,4.45,4.57Z"/>
            <path class="cls-1" d="M71.56,557.2c0-1.23.02-2.46,0-3.69-.01-.48.15-.61.62-.61,1.96.02,3.93.03,5.89,0,.51,0,.67.12.67.65,0,1.38.03,1.38-1.36,1.38-.84,0-1.68.03-2.52-.01-.55-.03-.56.25-.56.66,0,.42.03.69.57.66.98-.04,1.96.02,2.94-.02.8-.04.55.52.57.91.02.4.14.86-.57.82-.98-.05-1.96.03-2.94-.03-.65-.04-.6.35-.55.74.04.37-.28.96.53.93,1.09-.03,2.19.03,3.28-.02.66-.03.89.21.76.81-.09.39.38,1.1-.41,1.12-2.16.06-4.32.01-6.48.02-.49,0-.43-.33-.43-.63,0-1.23,0-2.46,0-3.69Z"/>
            <path class="cls-1" d="M36.99,561.69c-2.2,0-3.72-1.04-4.29-2.89-.64-2.09.05-4.37,1.75-5.4,1.82-1.1,5.01-.96,6.13,1.26.26.51.29.81-.37.9-.28.04-.55.12-.81.2-.53.17-.89.18-1.31-.37-.77-1.02-2.02-.79-2.54.37-.44.96-.4,1.97-.09,2.94.2.65.73.94,1.43.95.71.02,1.33-.16,1.52-.89.18-.68.52-.75,1.06-.46.47.25,1.34.13,1.39.68.06.69-.45,1.35-1.03,1.83-.84.69-1.82.94-2.84.88Z"/>
            <path class="cls-1" d="M66.12,558.72c.53-1.72,1.08-3.44,1.58-5.17.14-.48.33-.71.86-.65.66.07,1.61-.28,1.93.13.34.45-.3,1.21-.52,1.83-.74,2.04-1.51,4.07-2.23,6.11-.15.41-.35.57-.78.55-.78-.04-1.69.19-2.32-.12-.61-.31-.63-1.29-.9-1.99-.81-2.12-1.6-4.26-2.44-6.5.73,0,1.37.04,2-.01.51-.04.73.16.88.62.57,1.74,1.17,3.47,1.76,5.2.06,0,.12,0,.18,0Z"/>
            <path class="cls-1" d="M84.06,555.62c.23-.36.46-.59.55-.87.6-1.8,1.96-2.04,3.59-1.83.42.05.49.11.24.48-.67.99-1.25,2.04-1.95,3.01-.78,1.09-1.14,2.23-1.06,3.59.09,1.51,0,1.52-1.47,1.52-1.29,0-1.42-.02-1.25-1.28.22-1.72-.59-2.99-1.45-4.29-.55-.84-1.05-1.7-1.6-2.55-.23-.36-.15-.48.27-.48.7.01,1.4.02,2.1,0,.31-.01.43.15.57.38.46.76.94,1.5,1.46,2.32Z"/>
            <path class="cls-1" d="M92.32,557.19c0,1.25-.02,2.51,0,3.76,0,.44-.13.56-.57.58-2.18.09-2.18.1-2.18-2.07,0-1.92.03-3.85-.02-5.77-.02-.65.21-.79.81-.79,1.94,0,1.94-.02,1.94,1.95,0,.78,0,1.56,0,2.34Z"/>
            <path class="cls-3" d="M88.27,586.55c.03.49-.08.94-.33,1.36-.57.98-1.87,1.07-2.48.11-.57-.89-.66-1.88-.25-2.87.25-.59.65-1.04,1.37-1.04.7,0,1.1.37,1.39.98.22.47.31.95.3,1.45Z"/>
            <path class="cls-3" d="M47.22,586.35c-.05.54-.06.93-.23,1.3-.27.61-.68,1.01-1.39,1.03-.71.01-1.13-.38-1.42-.98-.38-.8-.37-1.63-.11-2.44.21-.65.68-1.15,1.39-1.17.74-.02,1.23.45,1.51,1.12.17.41.25.85.25,1.14Z"/>
            <path class="cls-2" d="M110.63,590.53c.03-.28.05-.56.08-.83.21.03.42.06.47.32.02.05.04.11.06.16-.2.12-.4.23-.61.35Z"/>
            <path class="cls-17" d="M56.42,572.62c0-.48.03-.94.28-1.38.32-.56.72-1.03,1.42-1.02.74,0,1.25.43,1.56,1.09.34.73.42,1.49.2,2.28-.3,1.06-.84,1.53-1.73,1.49-.81-.04-1.52-.75-1.67-1.71-.04-.25-.03-.5-.04-.75Z"/>
            <path class="cls-13" d="M35.15,574.98c-.54.43-1.11.53-1.7.42-.4-.07-.71-.31-.84-.73-.12-.41.07-.68.34-.96.25-.27.44-.24.7-.01.47.43.97.83,1.52,1.28Z"/>
            <path class="cls-13" d="M35.22,569.93c.02.36-.74,1.28-.92,1.2-.45-.2-.75-.58-.8-1.07-.05-.45.33-.51.67-.53.45-.03.87.03,1.06.4Z"/>
            <path class="cls-17" d="M44.65,557.14c0-1.38.83-2.54,1.81-2.5.99.04,1.94,1.35,1.82,2.62-.05.51-.13,1.03-.42,1.5-.72,1.14-2.11,1.11-2.84-.11-.28-.46-.36-.99-.38-1.52Z"/>
          </g>
        </g>
      </g>
    </g>
  </g>
</svg>