<svg xmlns="http://www.w3.org/2000/svg" viewBox="0 0 168.04 39.7"><defs><style>.cls-1{fill:#009a44;}.cls-2{fill:#fff;}</style></defs><g id="Layer_2" data-name="Layer 2"><g id="Layer_1-2" data-name="Layer 1"><rect class="cls-1" width="168.04" height="39.7" rx="17.72"/><path class="cls-2" d="M43,21.78v5.46H40.15V11.72h5.06a9,9,0,0,1,2.69.37,5.13,5.13,0,0,1,1.88,1,3.91,3.91,0,0,1,1.09,1.57,5.34,5.34,0,0,1,.36,2,5.56,5.56,0,0,1-.38,2.07,4.21,4.21,0,0,1-1.13,1.61,5.21,5.21,0,0,1-1.87,1,8.36,8.36,0,0,1-2.64.38Zm0-2.26h2.17a4.38,4.38,0,0,0,1.38-.19,2.85,2.85,0,0,0,1-.57,2.37,2.37,0,0,0,.58-.9,3.46,3.46,0,0,0,.19-1.19,3.15,3.15,0,0,0-.19-1.13,2.19,2.19,0,0,0-.58-.85,2.66,2.66,0,0,0-1-.55A4.71,4.71,0,0,0,45.21,14H43Z"/><path class="cls-2" d="M56.14,11.29v16H53.49V11.29Z"/><path class="cls-2" d="M67.76,27.24H66.57a1.35,1.35,0,0,1-.59-.11.75.75,0,0,1-.32-.46l-.24-.78a9.12,9.12,0,0,1-.82.66,4.3,4.3,0,0,1-.83.47,4,4,0,0,1-.91.29,5.06,5.06,0,0,1-1.07.1,4.06,4.06,0,0,1-1.29-.19,2.73,2.73,0,0,1-1-.56,2.66,2.66,0,0,1-.66-.94,3.47,3.47,0,0,1-.23-1.3,2.52,2.52,0,0,1,.33-1.23A3,3,0,0,1,60,22.09a7.07,7.07,0,0,1,2-.82A13.28,13.28,0,0,1,65.18,21V20.3a2.48,2.48,0,0,0-.47-1.65,1.72,1.72,0,0,0-1.36-.53,3.28,3.28,0,0,0-1.07.15,3.75,3.75,0,0,0-.75.34L61,19a1.2,1.2,0,0,1-.59.15A.78.78,0,0,1,59.9,19a1,1,0,0,1-.31-.35l-.49-.84A6.56,6.56,0,0,1,63.68,16a4.49,4.49,0,0,1,1.73.31,3.75,3.75,0,0,1,1.28.88,3.81,3.81,0,0,1,.8,1.35,5.22,5.22,0,0,1,.27,1.72Zm-5.15-1.65a3.52,3.52,0,0,0,.75-.08,2.77,2.77,0,0,0,.65-.22,3.58,3.58,0,0,0,.59-.36,6.62,6.62,0,0,0,.58-.52V22.57a10.46,10.46,0,0,0-1.94.15,4.8,4.8,0,0,0-1.25.37,1.56,1.56,0,0,0-.67.53,1.19,1.19,0,0,0-.2.66,1.16,1.16,0,0,0,.41,1A1.75,1.75,0,0,0,62.61,25.59Z"/><path class="cls-2" d="M73.89,30.27a1,1,0,0,1-.31.42.89.89,0,0,1-.57.14H71l2.06-4.41L68.64,16.23H71a.72.72,0,0,1,.49.15,1,1,0,0,1,.26.34l2.35,5.71a4,4,0,0,1,.2.58q.09.3.15.6c.06-.2.12-.4.19-.6s.14-.39.22-.59L77,16.72a.75.75,0,0,1,.29-.35.77.77,0,0,1,.44-.14h2.13Z"/><path class="cls-2" d="M87.56,11.74a.86.86,0,0,1,.23.06,1.21,1.21,0,0,1,.2.14l.21.25,8.15,10.37c0-.25,0-.49-.06-.73s0-.47,0-.67V11.72h2.54V27.24H97.32a1.13,1.13,0,0,1-1-.49L88.2,16.41c0,.23,0,.46,0,.68s0,.44,0,.62v9.53H85.72V11.72h1.52Z"/><path class="cls-2" d="M106.5,16.06a5.87,5.87,0,0,1,2.23.4,4.93,4.93,0,0,1,1.72,1.12,5.08,5.08,0,0,1,1.09,1.78,7.31,7.31,0,0,1,0,4.71,5.17,5.17,0,0,1-1.09,1.8A4.82,4.82,0,0,1,108.73,27a5.87,5.87,0,0,1-2.23.4,6,6,0,0,1-2.25-.4,4.82,4.82,0,0,1-1.72-1.13,5.19,5.19,0,0,1-1.1-1.8,7.31,7.31,0,0,1,0-4.71,5.1,5.1,0,0,1,1.1-1.78,4.93,4.93,0,0,1,1.72-1.12A6,6,0,0,1,106.5,16.06Zm0,9.3a2.34,2.34,0,0,0,2-.92,4.65,4.65,0,0,0,.66-2.71,4.67,4.67,0,0,0-.66-2.71,2.7,2.7,0,0,0-4.09,0,4.58,4.58,0,0,0-.67,2.7,4.54,4.54,0,0,0,.67,2.7A2.36,2.36,0,0,0,106.5,25.36Z"/><path class="cls-2" d="M112.66,16.23h2.1a.87.87,0,0,1,.5.14.56.56,0,0,1,.26.35l1.58,5.88c.08.33.15.64.21.95l.15.92c.08-.31.17-.61.26-.92s.18-.62.28-.95l1.82-5.9a.69.69,0,0,1,.26-.35.77.77,0,0,1,.45-.14h1.17a.8.8,0,0,1,.48.14.64.64,0,0,1,.26.35l1.8,6c.1.31.18.61.26.9s.15.58.22.87c0-.31.1-.61.16-.92s.14-.63.23-1l1.64-5.88a.58.58,0,0,1,.25-.35.86.86,0,0,1,.47-.14h2l-3.49,11h-2.13c-.23,0-.4-.16-.49-.47l-2-6.37-.18-.62c0-.21-.1-.42-.13-.63,0,.21-.09.43-.14.64s-.11.42-.17.64l-2,6.34a.58.58,0,0,1-.58.47h-2Z"/></g></g></svg>