<svg xmlns="http://www.w3.org/2000/svg" viewBox="0 0 160 34"><defs><style>.cls-1{fill:#fff;}</style></defs><g id="Layer_2" data-name="Layer 2"><g id="Layer_1-2" data-name="Layer 1"><rect width="160" height="34"/><path class="cls-1" d="M57.13,12.47a5.71,5.71,0,0,1,2,3.53H55.8a2.56,2.56,0,0,0-.91-1.55,2.82,2.82,0,0,0-1.81-.57A2.73,2.73,0,0,0,51,14.8a3.94,3.94,0,0,0-.83,2.72A3.91,3.91,0,0,0,51,20.23a2.73,2.73,0,0,0,2.09.92,2.82,2.82,0,0,0,1.81-.57A2.56,2.56,0,0,0,55.8,19h3.33a5.68,5.68,0,0,1-2,3.53,6.12,6.12,0,0,1-4,1.29,6.53,6.53,0,0,1-3.22-.77,5.37,5.37,0,0,1-2.18-2.2A6.9,6.9,0,0,1,47,17.52a7,7,0,0,1,.79-3.39,5.35,5.35,0,0,1,2.18-2.19,6.63,6.63,0,0,1,3.22-.76A6.12,6.12,0,0,1,57.13,12.47Z"/><path class="cls-1" d="M69.23,12.32a4.91,4.91,0,0,1,1.7,3H68a2.41,2.41,0,0,0-.8-1.43,2.46,2.46,0,0,0-1.63-.53,1.85,1.85,0,0,0-1.25.38,1.25,1.25,0,0,0-.44,1,1,1,0,0,0,.35.83,2.59,2.59,0,0,0,.9.49c.35.12.87.26,1.54.42a16.36,16.36,0,0,1,2.28.66,3.75,3.75,0,0,1,1.52,1.1,3,3,0,0,1,.64,2,3.13,3.13,0,0,1-1.24,2.57,5.21,5.21,0,0,1-3.34,1,6.33,6.33,0,0,1-3.86-1.08,4.53,4.53,0,0,1-1.76-3.09h3a2,2,0,0,0,.8,1.44,2.94,2.94,0,0,0,1.81.52,1.75,1.75,0,0,0,1.23-.39,1.32,1.32,0,0,0,.42-1,1.1,1.1,0,0,0-.37-.87,2.39,2.39,0,0,0-.91-.52c-.37-.11-.88-.26-1.55-.42a16.93,16.93,0,0,1-2.24-.64,3.55,3.55,0,0,1-1.48-1,2.92,2.92,0,0,1-.61-2,3.21,3.21,0,0,1,1.23-2.61,5.19,5.19,0,0,1,3.39-1A5.42,5.42,0,0,1,69.23,12.32Z"/><path class="cls-1" d="M78.81,20.55l3.12-9.22h3.35L80.7,23.7H76.86L72.29,11.33h3.37Z"/><path class="cls-1" d="M89.63,20.42V23.7H86.24V20.42Z"/><path class="cls-1" d="M96.7,11.84a4.82,4.82,0,0,1,2.55-.68v3.37h-.92q-3.47,0-3.46,3.21v6H91.73V11.33h3.14V13.7A5.1,5.1,0,0,1,96.7,11.84Z"/><path class="cls-1" d="M109.94,11.94a5.56,5.56,0,0,1,2.27,2.19,6.7,6.7,0,0,1,.83,3.39,6.59,6.59,0,0,1-.83,3.36,5.59,5.59,0,0,1-2.27,2.2,7.22,7.22,0,0,1-6.49,0,5.56,5.56,0,0,1-2.26-2.2,6.59,6.59,0,0,1-.83-3.36,6.7,6.7,0,0,1,.83-3.39,5.54,5.54,0,0,1,2.26-2.19,7.31,7.31,0,0,1,6.49,0Zm-5.47,2.89a3.65,3.65,0,0,0-.92,2.69,3.64,3.64,0,0,0,.92,2.68,3.14,3.14,0,0,0,4.46,0,3.64,3.64,0,0,0,.91-2.68,3.65,3.65,0,0,0-.91-2.69,3.14,3.14,0,0,0-4.46,0Z"/></g></g></svg>