<svg xmlns="http://www.w3.org/2000/svg" viewBox="0 0 270.71 25.9"><defs><style>.cls-1{fill:#fff;}</style></defs><g id="Layer_2" data-name="Layer 2"><g id="Layer_1-2" data-name="Layer 1"><path class="cls-1" d="M25.82,9.15h2V2.75c0-.19,0-.39,0-.58L26.18,3.6a.46.46,0,0,1-.13.08l-.12,0a.34.34,0,0,1-.18,0,.63.63,0,0,1-.12-.1l-.36-.51L28.05.63H29V9.15h1.85V10h-5Z"/><path class="cls-1" d="M35.33,10.14A4.37,4.37,0,0,1,34,10a3.2,3.2,0,0,1-1-.54,2.44,2.44,0,0,1-.65-.84,2.65,2.65,0,0,1-.22-1.11A2.27,2.27,0,0,1,32.64,6,2.5,2.5,0,0,1,34,5.15a2.26,2.26,0,0,1-1.12-.83A2.24,2.24,0,0,1,32.49,3a2.25,2.25,0,0,1,.21-1,2.31,2.31,0,0,1,.57-.79,2.84,2.84,0,0,1,.9-.52A3.25,3.25,0,0,1,35.33.55a3.32,3.32,0,0,1,1.16.19,2.79,2.79,0,0,1,.89.52,2.34,2.34,0,0,1,.58.79,2.25,2.25,0,0,1,.2,1,2.17,2.17,0,0,1-.38,1.3,2.27,2.27,0,0,1-1.11.83A2.5,2.5,0,0,1,38,6a2.33,2.33,0,0,1,.47,1.49,2.65,2.65,0,0,1-.23,1.11,2.44,2.44,0,0,1-.65.84,3.09,3.09,0,0,1-1,.54A4.35,4.35,0,0,1,35.33,10.14Zm0-.93a2.35,2.35,0,0,0,.82-.13,1.66,1.66,0,0,0,.62-.36,1.64,1.64,0,0,0,.38-.55,1.89,1.89,0,0,0,.14-.72,2.08,2.08,0,0,0-.16-.83,1.53,1.53,0,0,0-.44-.56,1.72,1.72,0,0,0-.62-.31,2.6,2.6,0,0,0-.74-.11,2.55,2.55,0,0,0-.74.11,1.69,1.69,0,0,0-.63.31,1.61,1.61,0,0,0-.43.56,1.92,1.92,0,0,0-.16.83,1.89,1.89,0,0,0,.14.72,1.4,1.4,0,0,0,.38.55,1.59,1.59,0,0,0,.62.36A2.31,2.31,0,0,0,35.33,9.21Zm0-4.5a2.05,2.05,0,0,0,.78-.14,1.5,1.5,0,0,0,.53-.38,1.44,1.44,0,0,0,.29-.53A2.16,2.16,0,0,0,37,3a1.79,1.79,0,0,0-.1-.62,1.53,1.53,0,0,0-.32-.5,1.42,1.42,0,0,0-.54-.34,2,2,0,0,0-.73-.13,2.08,2.08,0,0,0-.74.13,1.43,1.43,0,0,0-.85.84,1.8,1.8,0,0,0-.11.62,2.16,2.16,0,0,0,.09.62,1.46,1.46,0,0,0,.3.53,1.42,1.42,0,0,0,.53.38A2,2,0,0,0,35.33,4.71Z"/><path class="cls-1" d="M43.39,2.4V5.2h2.67v.88H43.39V8.9h-1V6.08H39.79V5.2h2.65V2.4Z"/><path class="cls-1" d="M50.76,0h.9V12.28h-.9Z"/><path class="cls-1" d="M57.76.7a.67.67,0,0,1,.18.17l5.44,7.07c0-.11,0-.22,0-.33s0-.21,0-.31V.65h1.12V10h-.65a.49.49,0,0,1-.25-.06.72.72,0,0,1-.2-.17L57.94,2.74c0,.11,0,.22,0,.32v7H56.85V.65h.65A.57.57,0,0,1,57.76.7Z"/><path class="cls-1" d="M69.19,3.3a3,3,0,0,1,1.1.2,2.38,2.38,0,0,1,.87.58,2.43,2.43,0,0,1,.57.93,3.47,3.47,0,0,1,.21,1.26.72.72,0,0,1-.06.36.24.24,0,0,1-.22.09H67.25a3.3,3.3,0,0,0,.17,1.1,2,2,0,0,0,.43.77,1.67,1.67,0,0,0,.65.47,2.34,2.34,0,0,0,.85.15,2.41,2.41,0,0,0,.76-.1,4.19,4.19,0,0,0,.55-.22A3.9,3.9,0,0,0,71,8.67a.48.48,0,0,1,.26-.1.28.28,0,0,1,.23.11l.33.43a2.51,2.51,0,0,1-.52.45,3,3,0,0,1-.65.32,4.12,4.12,0,0,1-.71.19,4.37,4.37,0,0,1-.72.06A3.5,3.5,0,0,1,68,9.9a2.91,2.91,0,0,1-1-.68,3.21,3.21,0,0,1-.66-1.11,4.45,4.45,0,0,1-.24-1.52,3.66,3.66,0,0,1,.22-1.3,2.92,2.92,0,0,1,.61-1,2.75,2.75,0,0,1,1-.7A3.21,3.21,0,0,1,69.19,3.3Zm0,.86a1.76,1.76,0,0,0-1.33.49A2.18,2.18,0,0,0,67.29,6h3.6a2.27,2.27,0,0,0-.11-.75,1.56,1.56,0,0,0-.85-1A1.8,1.8,0,0,0,69.22,4.16Z"/><path class="cls-1" d="M72.56,3.4h.92a.36.36,0,0,1,.23.08.27.27,0,0,1,.13.17l1.27,4.27c0,.15.07.3.1.45s.05.29.08.44c0-.15.07-.29.11-.44s.09-.3.14-.45l1.4-4.3a.31.31,0,0,1,.12-.16.27.27,0,0,1,.2-.07h.51a.3.3,0,0,1,.21.07.31.31,0,0,1,.12.16l1.37,4.3c0,.15.09.3.13.45s.07.29.11.44c0-.15.05-.3.08-.46s.07-.3.11-.43l1.3-4.27a.36.36,0,0,1,.12-.18.41.41,0,0,1,.22-.07h.88L80.27,10h-.92c-.12,0-.2-.08-.24-.23L77.64,5.32c0-.1-.06-.21-.08-.31s0-.2-.07-.3L77.43,5c0,.1-.05.2-.09.3L75.86,9.81a.28.28,0,0,1-.27.23h-.88Z"/><path class="cls-1" d="M90.51,4.58a.38.38,0,0,1-.11.11.21.21,0,0,1-.15,0A.35.35,0,0,1,90,4.65l-.29-.18a3.73,3.73,0,0,0-.43-.18,2.17,2.17,0,0,0-.62-.08,2.13,2.13,0,0,0-.86.17,1.78,1.78,0,0,0-.62.5,2.2,2.2,0,0,0-.38.8,3.7,3.7,0,0,0-.13,1,3.85,3.85,0,0,0,.14,1.07,2.37,2.37,0,0,0,.38.78,1.6,1.6,0,0,0,.61.49,1.91,1.91,0,0,0,.8.17,1.94,1.94,0,0,0,.7-.11,1.79,1.79,0,0,0,.46-.22,2.89,2.89,0,0,0,.3-.23.36.36,0,0,1,.24-.1.25.25,0,0,1,.22.11l.33.43a2.53,2.53,0,0,1-1.08.77,3.7,3.7,0,0,1-1.37.25,3,3,0,0,1-1.16-.23,2.6,2.6,0,0,1-.92-.66,3.21,3.21,0,0,1-.62-1.07,4.37,4.37,0,0,1-.23-1.45,4.28,4.28,0,0,1,.21-1.37,3.15,3.15,0,0,1,.6-1.08,2.69,2.69,0,0,1,1-.71,3.13,3.13,0,0,1,1.33-.26,3.19,3.19,0,0,1,1.24.23,3.15,3.15,0,0,1,.95.63Z"/><path class="cls-1" d="M93.11,3.4V7.63a1.72,1.72,0,0,0,.35,1.17,1.3,1.3,0,0,0,1,.41,2,2,0,0,0,1-.24,2.92,2.92,0,0,0,.83-.67V3.4h1.17V10h-.69a.3.3,0,0,1-.32-.25l-.09-.71a3.54,3.54,0,0,1-1,.77,2.57,2.57,0,0,1-1.23.29,2.42,2.42,0,0,1-1-.18,1.86,1.86,0,0,1-.69-.51,2.15,2.15,0,0,1-.43-.79,3.66,3.66,0,0,1-.14-1V3.4Z"/><path class="cls-1" d="M103.18,4.5a.27.27,0,0,1-.24.14.43.43,0,0,1-.23-.07l-.3-.16a3,3,0,0,0-.43-.16,2.05,2.05,0,0,0-.59-.08,1.74,1.74,0,0,0-.53.08,1.36,1.36,0,0,0-.4.2,1,1,0,0,0-.26.31.78.78,0,0,0-.09.37.63.63,0,0,0,.15.43,1.32,1.32,0,0,0,.39.29,2.74,2.74,0,0,0,.55.22c.21.07.42.13.63.21s.43.15.63.23a2.29,2.29,0,0,1,.55.33,1.4,1.4,0,0,1,.39.48,1.47,1.47,0,0,1,.15.69,2.18,2.18,0,0,1-.16.85,1.79,1.79,0,0,1-.49.67,2.29,2.29,0,0,1-.78.45,3.23,3.23,0,0,1-1.08.16,3.31,3.31,0,0,1-1.25-.22,3.23,3.23,0,0,1-1-.58l.28-.45a.3.3,0,0,1,.12-.13.36.36,0,0,1,.19,0,.47.47,0,0,1,.25.1L100,9a2.4,2.4,0,0,0,.45.2,2.1,2.1,0,0,0,.66.09,2.13,2.13,0,0,0,.6-.08,1.22,1.22,0,0,0,.42-.24,1,1,0,0,0,.26-.35,1.16,1.16,0,0,0,.08-.42.73.73,0,0,0-.15-.46,1.35,1.35,0,0,0-.39-.3,3.5,3.5,0,0,0-.55-.23L100.73,7c-.21-.07-.43-.15-.63-.24a2.61,2.61,0,0,1-.56-.34,1.61,1.61,0,0,1-.39-.5A1.76,1.76,0,0,1,99,5.22a1.79,1.79,0,0,1,.15-.72,1.86,1.86,0,0,1,.46-.62,2.14,2.14,0,0,1,.74-.42,2.84,2.84,0,0,1,1-.16,3.14,3.14,0,0,1,1.18.21,2.59,2.59,0,0,1,.9.56Z"/><path class="cls-1" d="M107.07,10.14a1.56,1.56,0,0,1-1.2-.44,1.7,1.7,0,0,1-.43-1.26V4.38h-.8a.25.25,0,0,1-.17-.06.24.24,0,0,1-.08-.19V3.66l1.09-.14.27-2a.26.26,0,0,1,.27-.22h.59V3.54h1.9v.84h-1.9v4a.85.85,0,0,0,.2.62.7.7,0,0,0,.52.21,1,1,0,0,0,.32,0,1.67,1.67,0,0,0,.23-.11l.17-.11a.28.28,0,0,1,.12-.05.22.22,0,0,1,.17.11l.34.56A2.07,2.07,0,0,1,108,10,2.37,2.37,0,0,1,107.07,10.14Z"/><path class="cls-1" d="M112.63,3.3a3.4,3.4,0,0,1,1.31.24,2.72,2.72,0,0,1,1,.69,3.2,3.2,0,0,1,.63,1.08,4.63,4.63,0,0,1,0,2.82,3.2,3.2,0,0,1-.63,1.08,2.82,2.82,0,0,1-1,.68,3.4,3.4,0,0,1-1.31.24,3.43,3.43,0,0,1-1.31-.24,2.78,2.78,0,0,1-1.63-1.76,4.17,4.17,0,0,1-.23-1.41,4.17,4.17,0,0,1,.23-1.41,2.91,2.91,0,0,1,.63-1.08,2.8,2.8,0,0,1,1-.69A3.43,3.43,0,0,1,112.63,3.3Zm0,5.92a1.7,1.7,0,0,0,1.47-.66,3.07,3.07,0,0,0,.48-1.84,3.07,3.07,0,0,0-.48-1.84,1.7,1.7,0,0,0-1.47-.66,1.91,1.91,0,0,0-.86.17,1.56,1.56,0,0,0-.62.49,2.14,2.14,0,0,0-.36.79,4.21,4.21,0,0,0-.12,1,4.24,4.24,0,0,0,.12,1.06,2.16,2.16,0,0,0,.36.78,1.75,1.75,0,0,0,.62.49A2.06,2.06,0,0,0,112.63,9.22Z"/><path class="cls-1" d="M117.23,10V3.4h.69a.31.31,0,0,1,.32.25l.08.68a3.55,3.55,0,0,1,.82-.74,2,2,0,0,1,1.06-.29,1.57,1.57,0,0,1,1.09.37,2.09,2.09,0,0,1,.6,1,2,2,0,0,1,.36-.62,1.88,1.88,0,0,1,.51-.43,2,2,0,0,1,.6-.25A2.8,2.8,0,0,1,124,3.3a2.54,2.54,0,0,1,.94.17,1.78,1.78,0,0,1,.69.49,2.12,2.12,0,0,1,.44.78,3.55,3.55,0,0,1,.15,1.07V10h-1.17V5.81a1.77,1.77,0,0,0-.34-1.18,1.23,1.23,0,0,0-1-.4,1.4,1.4,0,0,0-.54.1,1.31,1.31,0,0,0-.46.3,1.42,1.42,0,0,0-.31.49,1.85,1.85,0,0,0-.12.69V10h-1.16V5.81a1.88,1.88,0,0,0-.32-1.19,1.15,1.15,0,0,0-.94-.39,1.52,1.52,0,0,0-.8.23,2.87,2.87,0,0,0-.68.63V10Z"/><path class="cls-1" d="M130.6,3.3a3.08,3.08,0,0,1,1.11.2,2.42,2.42,0,0,1,.86.58,2.58,2.58,0,0,1,.58.93,3.47,3.47,0,0,1,.2,1.26.72.72,0,0,1-.06.36c0,.06-.11.09-.22.09h-4.41a3.58,3.58,0,0,0,.17,1.1,2.27,2.27,0,0,0,.43.77,1.71,1.71,0,0,0,.66.47,2.26,2.26,0,0,0,.85.15,2.39,2.39,0,0,0,.75-.1,3.3,3.3,0,0,0,.55-.22,3.9,3.9,0,0,0,.38-.22.5.5,0,0,1,.27-.1.27.27,0,0,1,.22.11l.33.43a2.28,2.28,0,0,1-.52.45,3,3,0,0,1-.64.32,4.38,4.38,0,0,1-.71.19,4.59,4.59,0,0,1-.73.06,3.5,3.5,0,0,1-1.27-.23,3,3,0,0,1-1-.68,3.21,3.21,0,0,1-.66-1.11,4.71,4.71,0,0,1-.23-1.52,3.9,3.9,0,0,1,.21-1.3,3.07,3.07,0,0,1,.61-1,2.79,2.79,0,0,1,1-.7A3.16,3.16,0,0,1,130.6,3.3Zm0,.86a1.79,1.79,0,0,0-1.33.49A2.29,2.29,0,0,0,128.7,6h3.61a2.56,2.56,0,0,0-.11-.75,1.83,1.83,0,0,0-.33-.58,1.56,1.56,0,0,0-.53-.38A1.76,1.76,0,0,0,130.63,4.16Z"/><path class="cls-1" d="M134.84,10V3.4h.67a.37.37,0,0,1,.26.08.42.42,0,0,1,.1.25l.08,1a3,3,0,0,1,.84-1.08A1.83,1.83,0,0,1,138,3.29a1.9,1.9,0,0,1,.5.06,1.68,1.68,0,0,1,.41.17l-.15.87a.19.19,0,0,1-.2.17,1.08,1.08,0,0,1-.28-.06,1.51,1.51,0,0,0-.53-.07,1.48,1.48,0,0,0-1,.36,2.56,2.56,0,0,0-.68,1V10Z"/><path class="cls-1" d="M143.91,4.5a.26.26,0,0,1-.24.14.43.43,0,0,1-.22-.07l-.31-.16a2.47,2.47,0,0,0-.42-.16,2.1,2.1,0,0,0-.59-.08,1.69,1.69,0,0,0-.53.08,1.42,1.42,0,0,0-.41.2.93.93,0,0,0-.25.31.78.78,0,0,0-.09.37.63.63,0,0,0,.15.43,1.2,1.2,0,0,0,.39.29,2.52,2.52,0,0,0,.55.22l.63.21c.22.07.43.15.63.23a2.29,2.29,0,0,1,.55.33,1.53,1.53,0,0,1,.39.48,1.47,1.47,0,0,1,.15.69,2.19,2.19,0,0,1-.17.85,1.88,1.88,0,0,1-.48.67,2.33,2.33,0,0,1-.79.45,3.17,3.17,0,0,1-1.07.16,3.4,3.4,0,0,1-1.26-.22,3.31,3.31,0,0,1-1-.58l.27-.45a.4.4,0,0,1,.13-.13.33.33,0,0,1,.19,0,.44.44,0,0,1,.24.1l.32.2a3.18,3.18,0,0,0,.45.2,2.13,2.13,0,0,0,.67.09,2.1,2.1,0,0,0,.59-.08,1.18,1.18,0,0,0,.43-.24.94.94,0,0,0,.25-.35,1,1,0,0,0,.08-.42.78.78,0,0,0-.14-.46,1.35,1.35,0,0,0-.39-.3,3.26,3.26,0,0,0-.56-.23L141.47,7c-.22-.07-.43-.15-.64-.24a2.54,2.54,0,0,1-.55-.34,1.51,1.51,0,0,1-.54-1.23,1.64,1.64,0,0,1,.16-.72,1.86,1.86,0,0,1,.46-.62,2.14,2.14,0,0,1,.74-.42,2.8,2.8,0,0,1,1-.16,3.14,3.14,0,0,1,1.18.21,2.79,2.79,0,0,1,.9.56Z"/><path class="cls-1" d="M151,3.3a3.4,3.4,0,0,1,1.31.24,2.72,2.72,0,0,1,1,.69A3.2,3.2,0,0,1,154,5.31a4.63,4.63,0,0,1,0,2.82,3.2,3.2,0,0,1-.63,1.08,2.82,2.82,0,0,1-1,.68,3.4,3.4,0,0,1-1.31.24,3.43,3.43,0,0,1-1.31-.24,2.91,2.91,0,0,1-1-.68,3,3,0,0,1-.63-1.08,4.17,4.17,0,0,1-.23-1.41,4.17,4.17,0,0,1,.23-1.41,3,3,0,0,1,.63-1.08,2.8,2.8,0,0,1,1-.69A3.43,3.43,0,0,1,151,3.3Zm0,5.92a1.7,1.7,0,0,0,1.47-.66A3.07,3.07,0,0,0,153,6.72a3.07,3.07,0,0,0-.48-1.84A1.7,1.7,0,0,0,151,4.22a1.91,1.91,0,0,0-.86.17,1.46,1.46,0,0,0-.61.49,2,2,0,0,0-.37.79,4.21,4.21,0,0,0-.12,1,4.24,4.24,0,0,0,.12,1.06,2,2,0,0,0,.37.78,1.64,1.64,0,0,0,.61.49A2.06,2.06,0,0,0,151,9.22Z"/><path class="cls-1" d="M155.61,10V3.4h.69a.31.31,0,0,1,.32.25l.09.72a3.92,3.92,0,0,1,1-.78,2.61,2.61,0,0,1,1.24-.29,2.42,2.42,0,0,1,1,.18,1.86,1.86,0,0,1,.69.51,2.11,2.11,0,0,1,.42.8,3.31,3.31,0,0,1,.15,1V10H160V5.81a1.75,1.75,0,0,0-.34-1.16,1.28,1.28,0,0,0-1.05-.42,1.92,1.92,0,0,0-1,.25,3.22,3.22,0,0,0-.83.67V10Z"/><path class="cls-1" d="M164.18.39V10H163V.39Z"/><path class="cls-1" d="M168.19,12a.62.62,0,0,1-.15.2.36.36,0,0,1-.27.08h-.87l1.21-2.63L165.38,3.4h1a.36.36,0,0,1,.24.08.38.38,0,0,1,.12.17l1.78,4.17c0,.1.07.2.1.29s0,.2.08.3l.09-.3c0-.09.06-.19.1-.29l1.72-4.17a.49.49,0,0,1,.14-.18A.38.38,0,0,1,171,3.4h.92Z"/><path class="cls-1" d="M176,0h.91V12.28H176Z"/><path class="cls-1" d="M188.5.65V1.72h-3V10H184.2V1.72h-3V.65Z"/><path class="cls-1" d="M192.15.55a2.63,2.63,0,0,1,.95.17,2.41,2.41,0,0,1,.73.44,1.8,1.8,0,0,1,.49.64,1.84,1.84,0,0,1,.21.75l-.73.15h-.05a.27.27,0,0,1-.16,0,.27.27,0,0,1-.11-.17,1.48,1.48,0,0,0-.15-.35,1.35,1.35,0,0,0-.26-.33,1.3,1.3,0,0,0-.39-.25,1.22,1.22,0,0,0-.53-.1,1.76,1.76,0,0,0-.58.1,1.19,1.19,0,0,0-.45.3,1.26,1.26,0,0,0-.29.43,1.45,1.45,0,0,0-.1.55,2.12,2.12,0,0,0,.05.44,2.47,2.47,0,0,0,.17.42,2.55,2.55,0,0,0,.29.44q.18.23.42.48l2.7,2.74a4.42,4.42,0,0,0,.4-.92,5.39,5.39,0,0,0,.2-1,.26.26,0,0,1,.08-.19.21.21,0,0,1,.18-.07h.72a5.26,5.26,0,0,1-.24,1.47A5.77,5.77,0,0,1,195,8.05l2,2h-1.13a.81.81,0,0,1-.3,0,.79.79,0,0,1-.27-.19l-.94-1a4.57,4.57,0,0,1-1.42.94,4.22,4.22,0,0,1-1.76.35,3.06,3.06,0,0,1-1-.18,2.66,2.66,0,0,1-1.54-1.33,2.42,2.42,0,0,1-.24-1.09,2.49,2.49,0,0,1,.15-.87,3,3,0,0,1,1.08-1.38,4.29,4.29,0,0,1,.81-.47,4.32,4.32,0,0,1-.59-1,2.81,2.81,0,0,1-.19-1,2.26,2.26,0,0,1,.18-.9,2,2,0,0,1,.5-.73,2.35,2.35,0,0,1,.79-.49A3,3,0,0,1,192.15.55Zm-2.6,6.89a1.73,1.73,0,0,0,.16.75,1.79,1.79,0,0,0,.42.55,1.68,1.68,0,0,0,.58.34,2.19,2.19,0,0,0,.67.11,3.07,3.07,0,0,0,1.31-.27,3.33,3.33,0,0,0,1-.71L191,5.42a2.71,2.71,0,0,0-1,.89A2,2,0,0,0,189.55,7.44Z"/><path class="cls-1" d="M204.79,8.1a.29.29,0,0,1,.19.08l.5.55a4.14,4.14,0,0,1-1.4,1,4.76,4.76,0,0,1-2,.37,4.54,4.54,0,0,1-1.84-.35,4,4,0,0,1-1.41-1,4.35,4.35,0,0,1-.9-1.52,5.49,5.49,0,0,1-.32-1.94A5.33,5.33,0,0,1,198,3.4a4.4,4.4,0,0,1,1-1.51,4.14,4.14,0,0,1,1.49-1,5.11,5.11,0,0,1,1.91-.35,4.62,4.62,0,0,1,1.79.32,4.57,4.57,0,0,1,1.33.87l-.41.58a.38.38,0,0,1-.11.11.27.27,0,0,1-.17,0,.32.32,0,0,1-.18-.06l-.22-.15-.31-.2a2.76,2.76,0,0,0-.42-.19,2.66,2.66,0,0,0-.56-.16,4.1,4.1,0,0,0-.74-.06,3.57,3.57,0,0,0-1.38.26,3,3,0,0,0-1.08.74,3.13,3.13,0,0,0-.7,1.16,4.4,4.4,0,0,0-.26,1.54,4.44,4.44,0,0,0,.26,1.56,3.37,3.37,0,0,0,.68,1.17,3.09,3.09,0,0,0,1,.72,3.26,3.26,0,0,0,1.29.25,5.54,5.54,0,0,0,.75-.05,3,3,0,0,0,.62-.15,2.4,2.4,0,0,0,.53-.27,4.06,4.06,0,0,0,.49-.38A.33.33,0,0,1,204.79,8.1Z"/><path class="cls-1" d="M210.76,4.5a.26.26,0,0,1-.24.14.4.4,0,0,1-.22-.07L210,4.41a2.61,2.61,0,0,0-.43-.16,2,2,0,0,0-.59-.08,1.78,1.78,0,0,0-.53.08,1.5,1.5,0,0,0-.4.2.93.93,0,0,0-.25.31.78.78,0,0,0-.09.37.63.63,0,0,0,.15.43,1.16,1.16,0,0,0,.38.29,2.84,2.84,0,0,0,.56.22l.63.21.63.23a2.51,2.51,0,0,1,.55.33,1.53,1.53,0,0,1,.39.48,1.47,1.47,0,0,1,.14.69,2.18,2.18,0,0,1-.16.85,1.88,1.88,0,0,1-.48.67,2.43,2.43,0,0,1-.79.45,3.21,3.21,0,0,1-1.07.16,3.26,3.26,0,0,1-2.22-.8l.28-.45a.33.33,0,0,1,.31-.18.47.47,0,0,1,.25.1l.32.2a2.74,2.74,0,0,0,.45.2,2.13,2.13,0,0,0,.67.09,2.1,2.1,0,0,0,.59-.08,1.37,1.37,0,0,0,.43-.24,1.07,1.07,0,0,0,.25-.35,1.16,1.16,0,0,0,.08-.42.73.73,0,0,0-.15-.46,1.12,1.12,0,0,0-.39-.3,3.14,3.14,0,0,0-.55-.23L208.32,7c-.22-.07-.43-.15-.64-.24a2.32,2.32,0,0,1-.55-.34,1.51,1.51,0,0,1-.54-1.23,1.64,1.64,0,0,1,.16-.72,1.73,1.73,0,0,1,.46-.62,2,2,0,0,1,.74-.42,2.8,2.8,0,0,1,1-.16,3.09,3.09,0,0,1,1.17.21,2.59,2.59,0,0,1,.9.56Z"/><path class="cls-1" d="M220,10h-.51a.55.55,0,0,1-.28-.06c-.07,0-.11-.1-.13-.22L219,9.15q-.25.22-.51.42a2.75,2.75,0,0,1-.52.31,2.84,2.84,0,0,1-.58.2,3.73,3.73,0,0,1-.7.06A2.13,2.13,0,0,1,216,10a1.68,1.68,0,0,1-.59-.32,1.71,1.71,0,0,1-.39-.55,1.87,1.87,0,0,1-.15-.78,1.4,1.4,0,0,1,.22-.76,1.82,1.82,0,0,1,.69-.65A4.45,4.45,0,0,1,217,6.51a8.09,8.09,0,0,1,1.91-.18V5.8a1.79,1.79,0,0,0-.33-1.17,1.19,1.19,0,0,0-1-.4,2.18,2.18,0,0,0-.72.11,2.59,2.59,0,0,0-.5.24l-.37.24a.53.53,0,0,1-.3.11.37.37,0,0,1-.21-.06.44.44,0,0,1-.14-.16l-.21-.37a3.75,3.75,0,0,1,1.19-.79,3.53,3.53,0,0,1,1.4-.26,2.5,2.5,0,0,1,1,.18,2,2,0,0,1,.73.51,2.1,2.1,0,0,1,.44.79,3,3,0,0,1,.15,1Zm-3-.72a2.4,2.4,0,0,0,.56-.06,2,2,0,0,0,.48-.18,2.27,2.27,0,0,0,.44-.27,4.67,4.67,0,0,0,.4-.38V7.06a7.59,7.59,0,0,0-1.37.11,3.44,3.44,0,0,0-.91.26,1.29,1.29,0,0,0-.52.39.83.83,0,0,0-.16.5,1.08,1.08,0,0,0,.09.46.87.87,0,0,0,.22.31,1,1,0,0,0,.35.18A1.86,1.86,0,0,0,217,9.32Z"/><path class="cls-1" d="M221.81,12.28V3.4h.7a.3.3,0,0,1,.31.25l.1.78a3.63,3.63,0,0,1,1-.83,2.5,2.5,0,0,1,1.26-.31,2.36,2.36,0,0,1,1,.22,2.11,2.11,0,0,1,.79.64,3,3,0,0,1,.5,1.07,5.35,5.35,0,0,1,.18,1.46,4.26,4.26,0,0,1-.2,1.36,3.27,3.27,0,0,1-.56,1.1,2.54,2.54,0,0,1-.9.72,2.65,2.65,0,0,1-1.2.27,2.55,2.55,0,0,1-1.05-.2,2.41,2.41,0,0,1-.77-.58v2.93Zm3-8a1.91,1.91,0,0,0-1,.26,2.89,2.89,0,0,0-.79.74V8.44a1.88,1.88,0,0,0,.7.61,2,2,0,0,0,.86.18A1.68,1.68,0,0,0,226,8.56a3.09,3.09,0,0,0,.5-1.88,4.49,4.49,0,0,0-.12-1.11A2.18,2.18,0,0,0,226,4.8a1.22,1.22,0,0,0-.53-.43A1.8,1.8,0,0,0,224.77,4.23Z"/><path class="cls-1" d="M229,12.28V3.4h.7a.3.3,0,0,1,.31.25l.1.78a3.63,3.63,0,0,1,1-.83,2.45,2.45,0,0,1,1.26-.31,2.29,2.29,0,0,1,1,.22,2.14,2.14,0,0,1,.8.64,3.12,3.12,0,0,1,.5,1.07,5.35,5.35,0,0,1,.18,1.46,4.56,4.56,0,0,1-.2,1.36,3.46,3.46,0,0,1-.56,1.1,2.73,2.73,0,0,1-.9.72,2.65,2.65,0,0,1-1.2.27,2.55,2.55,0,0,1-1.05-.2,2.41,2.41,0,0,1-.77-.58v2.93Zm3-8a1.9,1.9,0,0,0-1,.26,2.89,2.89,0,0,0-.79.74V8.44a1.88,1.88,0,0,0,.7.61,2,2,0,0,0,.86.18,1.7,1.7,0,0,0,1.42-.67,3.09,3.09,0,0,0,.49-1.88,5.08,5.08,0,0,0-.11-1.11,2.38,2.38,0,0,0-.33-.77,1.28,1.28,0,0,0-.53-.43A1.81,1.81,0,0,0,232,4.23Z"/><path class="cls-1" d="M237.57.39V10H236.4V.39Z"/><path class="cls-1" d="M241.57,12a.62.62,0,0,1-.15.2.36.36,0,0,1-.27.08h-.87l1.21-2.63L238.76,3.4h1a.32.32,0,0,1,.23.08.52.52,0,0,1,.13.17l1.77,4.17c0,.1.07.2.1.29s.05.2.08.3l.09-.3c0-.09.06-.19.1-.29L244,3.65a.49.49,0,0,1,.14-.18.38.38,0,0,1,.21-.07h.93Z"/><path class="cls-1" d="M0,13.47H.9V25.75H0Z"/><path class="cls-1" d="M10.27,22.58c.26,0,.49,0,.7,0a5.33,5.33,0,0,0,.6-.11c.19-.05.36-.11.53-.17l.5-.24V20H11.14a.28.28,0,0,1-.2-.08.21.21,0,0,1-.07-.17V19h2.88v3.6A4.65,4.65,0,0,1,13,23a4.24,4.24,0,0,1-.82.32,5.28,5.28,0,0,1-.93.19,9,9,0,0,1-1.08.06,4.76,4.76,0,0,1-1.87-.35,4.26,4.26,0,0,1-1.47-1,4.48,4.48,0,0,1-1-1.52,5.27,5.27,0,0,1-.34-1.94,5.34,5.34,0,0,1,.34-2,4.15,4.15,0,0,1,1-1.51,4.24,4.24,0,0,1,1.51-1,5.43,5.43,0,0,1,2-.35,6.63,6.63,0,0,1,1,.08,5.49,5.49,0,0,1,.89.24,4.86,4.86,0,0,1,.76.37,4.41,4.41,0,0,1,.64.5l-.36.57A.32.32,0,0,1,13,16a.55.55,0,0,1-.23-.07l-.37-.23a4.43,4.43,0,0,0-.49-.25,3.78,3.78,0,0,0-.69-.2,4.35,4.35,0,0,0-.94-.09,3.89,3.89,0,0,0-1.44.26,3.06,3.06,0,0,0-1.09.74,3.28,3.28,0,0,0-.69,1.16,4.93,4.93,0,0,0,0,3.13,3.19,3.19,0,0,0,.71,1.18,3,3,0,0,0,1.08.74A3.7,3.7,0,0,0,10.27,22.58Z"/><path class="cls-1" d="M20.39,23.51h-.52a.65.65,0,0,1-.27-.05.3.3,0,0,1-.14-.23l-.13-.61c-.18.15-.35.3-.51.42a3.18,3.18,0,0,1-.53.31,2.84,2.84,0,0,1-.58.2,3.69,3.69,0,0,1-.69.06,2.19,2.19,0,0,1-.73-.11,1.64,1.64,0,0,1-.58-.32,1.59,1.59,0,0,1-.4-.55,1.87,1.87,0,0,1-.15-.78,1.4,1.4,0,0,1,.22-.76,1.85,1.85,0,0,1,.7-.65A4.45,4.45,0,0,1,17.34,20a8.57,8.57,0,0,1,1.9-.18v-.52a1.82,1.82,0,0,0-.33-1.18,1.19,1.19,0,0,0-1-.4,2.18,2.18,0,0,0-.72.11,2.59,2.59,0,0,0-.5.24l-.37.24a.47.47,0,0,1-.3.11.37.37,0,0,1-.21-.06.56.56,0,0,1-.14-.16l-.21-.37A3.75,3.75,0,0,1,16.67,17a3.54,3.54,0,0,1,1.41-.26,2.48,2.48,0,0,1,1,.18,1.92,1.92,0,0,1,.73.51,2.12,2.12,0,0,1,.45.79,3.31,3.31,0,0,1,.15,1Zm-3-.72a2.49,2.49,0,0,0,.57-.06,2,2,0,0,0,.48-.18,2.2,2.2,0,0,0,.43-.27,3.55,3.55,0,0,0,.4-.38V20.54a7.76,7.76,0,0,0-1.37.1,3.86,3.86,0,0,0-.91.26,1.29,1.29,0,0,0-.52.39.9.9,0,0,0-.16.5,1.08,1.08,0,0,0,.09.46.72.72,0,0,0,.23.31.92.92,0,0,0,.34.18A1.42,1.42,0,0,0,17.36,22.79Z"/><path class="cls-1" d="M22.16,23.51V16.88h.69a.29.29,0,0,1,.31.24l.09.68a3.36,3.36,0,0,1,.82-.74,2,2,0,0,1,1.06-.29,1.57,1.57,0,0,1,1.09.37,2.09,2.09,0,0,1,.6,1,2,2,0,0,1,.87-1,2,2,0,0,1,.6-.25,2.74,2.74,0,0,1,.64-.08,2.54,2.54,0,0,1,.94.17,1.78,1.78,0,0,1,.69.49,2.1,2.1,0,0,1,.43.78,3.28,3.28,0,0,1,.15,1.08v4.22H30V19.29a1.8,1.8,0,0,0-.34-1.19,1.23,1.23,0,0,0-1-.4,1.49,1.49,0,0,0-.55.1,1.35,1.35,0,0,0-.76.79,1.86,1.86,0,0,0-.12.7v4.22H26.06V19.29a1.91,1.91,0,0,0-.32-1.2,1.16,1.16,0,0,0-.94-.39,1.52,1.52,0,0,0-.8.23,2.87,2.87,0,0,0-.68.63v5Z"/><path class="cls-1" d="M33,23.51V13.86h1.17v4a3.46,3.46,0,0,1,.94-.77,2.59,2.59,0,0,1,1.22-.29,2.31,2.31,0,0,1,1,.22,2.14,2.14,0,0,1,.8.64,3.16,3.16,0,0,1,.5,1.06,5.35,5.35,0,0,1,.18,1.46,4.56,4.56,0,0,1-.2,1.36,3.36,3.36,0,0,1-.56,1.1,2.55,2.55,0,0,1-.91.72,2.59,2.59,0,0,1-1.2.27,2.17,2.17,0,0,1-1.09-.25,2.56,2.56,0,0,1-.78-.69l-.06.6a.29.29,0,0,1-.3.25ZM35.9,17.7a1.9,1.9,0,0,0-1,.26,2.89,2.89,0,0,0-.79.74v3.21a1.86,1.86,0,0,0,.69.61,2,2,0,0,0,.86.18A1.68,1.68,0,0,0,37.1,22a3.09,3.09,0,0,0,.49-1.88A5.08,5.08,0,0,0,37.48,19a2.38,2.38,0,0,0-.33-.77,1.28,1.28,0,0,0-.53-.43A1.81,1.81,0,0,0,35.9,17.7Z"/><path class="cls-1" d="M41.52,13.86v9.65H40.36V13.86Z"/><path class="cls-1" d="M46.2,16.77a3,3,0,0,1,1.1.2,2.38,2.38,0,0,1,.87.58,2.58,2.58,0,0,1,.58.93,3.7,3.7,0,0,1,.2,1.26.72.72,0,0,1-.06.36.23.23,0,0,1-.22.1H44.26a3.56,3.56,0,0,0,.17,1.09,2.12,2.12,0,0,0,.43.77,1.63,1.63,0,0,0,.66.47,2.26,2.26,0,0,0,.85.15,2.39,2.39,0,0,0,.75-.1,3.7,3.7,0,0,0,.55-.22,3.9,3.9,0,0,0,.38-.22.56.56,0,0,1,.27-.1.27.27,0,0,1,.22.11l.33.43a2.51,2.51,0,0,1-.52.45,3,3,0,0,1-.64.32,4.38,4.38,0,0,1-.71.19,4.59,4.59,0,0,1-.73.06A3.5,3.5,0,0,1,45,23.37a2.87,2.87,0,0,1-1-.68,3.21,3.21,0,0,1-.66-1.11,4.71,4.71,0,0,1-.23-1.52,3.9,3.9,0,0,1,.21-1.3,2.92,2.92,0,0,1,.61-1,2.79,2.79,0,0,1,1-.7A3.13,3.13,0,0,1,46.2,16.77Zm0,.86a1.77,1.77,0,0,0-1.33.49,2.29,2.29,0,0,0-.6,1.35h3.61a2.27,2.27,0,0,0-.12-.75,1.73,1.73,0,0,0-.32-.58,1.56,1.56,0,0,0-.53-.38A1.76,1.76,0,0,0,46.23,17.63Z"/><path class="cls-1" d="M58.34,23.51h-1a.38.38,0,0,1-.27-.09.47.47,0,0,1-.16-.21l-.88-2.27H51.84L51,23.21a.51.51,0,0,1-.15.21.45.45,0,0,1-.28.09h-1l3.75-9.38h1.29ZM52.2,20h3.5l-1.48-3.81c-.09-.24-.18-.53-.28-.89,0,.18-.09.35-.14.5s-.09.28-.13.39Z"/><path class="cls-1" d="M58.48,16.88h.92a.35.35,0,0,1,.23.07.43.43,0,0,1,.13.17L61,21.39c0,.15.06.31.1.45s0,.29.07.44l.12-.44c0-.14.09-.3.14-.45l1.4-4.3a.36.36,0,0,1,.11-.16.31.31,0,0,1,.21-.07h.51a.35.35,0,0,1,.33.23l1.37,4.3c0,.15.09.3.13.45s.07.29.1.44a3.58,3.58,0,0,1,.09-.45,4,4,0,0,1,.11-.44l1.3-4.27a.36.36,0,0,1,.12-.18.38.38,0,0,1,.22-.06h.87l-2.14,6.63h-.93c-.11,0-.19-.08-.23-.22l-1.47-4.5-.09-.31-.06-.3c0,.1,0,.2-.07.31s-.05.2-.08.3l-1.49,4.5a.28.28,0,0,1-.27.22h-.87Z"/><path class="cls-1" d="M74.25,23.51h-.52a.74.74,0,0,1-.28-.05.29.29,0,0,1-.13-.23l-.13-.61c-.18.15-.35.3-.52.42a2.92,2.92,0,0,1-1.11.51,3.54,3.54,0,0,1-.69.06,2.17,2.17,0,0,1-.72-.11,1.77,1.77,0,0,1-.59-.32,1.71,1.71,0,0,1-.39-.55,1.87,1.87,0,0,1-.15-.78,1.4,1.4,0,0,1,.22-.76,1.82,1.82,0,0,1,.69-.65A4.65,4.65,0,0,1,71.2,20a8.5,8.5,0,0,1,1.9-.18v-.52a1.82,1.82,0,0,0-.33-1.18,1.19,1.19,0,0,0-1-.4,2.18,2.18,0,0,0-.72.11,2.59,2.59,0,0,0-.5.24l-.37.24a.47.47,0,0,1-.3.11.37.37,0,0,1-.21-.06.44.44,0,0,1-.14-.16l-.21-.37A3.75,3.75,0,0,1,70.53,17a3.53,3.53,0,0,1,1.4-.26,2.57,2.57,0,0,1,1,.18,2,2,0,0,1,.73.51,2.27,2.27,0,0,1,.45.79,3.31,3.31,0,0,1,.15,1Zm-3-.72a2.4,2.4,0,0,0,.56-.06,2.05,2.05,0,0,0,.49-.18,2.2,2.2,0,0,0,.43-.27,4.67,4.67,0,0,0,.4-.38V20.54a7.68,7.68,0,0,0-1.37.1,4.11,4.11,0,0,0-.92.26,1.32,1.32,0,0,0-.51.39.83.83,0,0,0-.16.5,1.26,1.26,0,0,0,.08.46.83.83,0,0,0,.24.31.88.88,0,0,0,.33.18A1.54,1.54,0,0,0,71.22,22.79Z"/><path class="cls-1" d="M76,23.51V16.88h.67a.35.35,0,0,1,.26.07.45.45,0,0,1,.1.25l.08,1A3.12,3.12,0,0,1,78,17.15a2,2,0,0,1,1.67-.33,1.94,1.94,0,0,1,.42.17l-.15.87a.2.2,0,0,1-.21.17,1.08,1.08,0,0,1-.28-.06,1.74,1.74,0,0,0-1.55.29,2.54,2.54,0,0,0-.68,1v4.22Z"/><path class="cls-1" d="M83.92,16.77A3.07,3.07,0,0,1,85,17a2.55,2.55,0,0,1,.87.58,2.7,2.7,0,0,1,.57.93,3.47,3.47,0,0,1,.21,1.26.72.72,0,0,1-.06.36.27.27,0,0,1-.23.1H82a3.89,3.89,0,0,0,.17,1.09,2.27,2.27,0,0,0,.43.77,1.71,1.71,0,0,0,.66.47,2.3,2.3,0,0,0,.85.15,2.5,2.5,0,0,0,.76-.1,3.54,3.54,0,0,0,.54-.22,4.19,4.19,0,0,0,.39-.22A.57.57,0,0,1,86,22a.25.25,0,0,1,.22.11l.33.43a2.28,2.28,0,0,1-.52.45,3,3,0,0,1-.64.32,4.38,4.38,0,0,1-.71.19,4.59,4.59,0,0,1-.73.06,3.5,3.5,0,0,1-1.27-.23,2.87,2.87,0,0,1-1-.68,3.21,3.21,0,0,1-.66-1.11,4.71,4.71,0,0,1-.23-1.52,3.9,3.9,0,0,1,.21-1.3,3.07,3.07,0,0,1,.61-1,2.79,2.79,0,0,1,1-.7A3.17,3.17,0,0,1,83.92,16.77Zm0,.86a1.79,1.79,0,0,0-1.33.49,2.29,2.29,0,0,0-.6,1.35h3.61a2.56,2.56,0,0,0-.11-.75,1.94,1.94,0,0,0-.33-.58,1.47,1.47,0,0,0-.53-.38A1.73,1.73,0,0,0,83.94,17.63Z"/><path class="cls-1" d="M87.77,22.79a.83.83,0,0,1,.06-.32,1,1,0,0,1,.17-.26.76.76,0,0,1,.26-.18.71.71,0,0,1,.32-.07.68.68,0,0,1,.32.07.71.71,0,0,1,.27.18.78.78,0,0,1,.17.26.88.88,0,0,1,0,.64.78.78,0,0,1-.17.26.94.94,0,0,1-.59.24.88.88,0,0,1-.32-.07.9.9,0,0,1-.26-.17,1,1,0,0,1-.17-.26A.83.83,0,0,1,87.77,22.79Z"/><path class="cls-1" d="M93.61,16.77a3.4,3.4,0,0,1,1.31.24,2.72,2.72,0,0,1,1,.69,3.2,3.2,0,0,1,.63,1.08,4.63,4.63,0,0,1,0,2.82,3.2,3.2,0,0,1-.63,1.08,2.82,2.82,0,0,1-1,.68,3.4,3.4,0,0,1-1.31.24,3.43,3.43,0,0,1-1.31-.24,2.91,2.91,0,0,1-1-.68,3,3,0,0,1-.63-1.08,4.44,4.44,0,0,1,0-2.82,3,3,0,0,1,.63-1.08,2.8,2.8,0,0,1,1-.69A3.43,3.43,0,0,1,93.61,16.77Zm0,5.92A1.7,1.7,0,0,0,95.08,22a3.06,3.06,0,0,0,.48-1.83,3.11,3.11,0,0,0-.48-1.85,1.7,1.7,0,0,0-1.47-.66,1.91,1.91,0,0,0-.86.17,1.56,1.56,0,0,0-.62.49,2.21,2.21,0,0,0-.36.79,4.7,4.7,0,0,0,0,2.11,2.16,2.16,0,0,0,.36.78,1.65,1.65,0,0,0,.62.49A2.06,2.06,0,0,0,93.61,22.69Z"/><path class="cls-1" d="M98.21,23.51V16.88h.67a.37.37,0,0,1,.26.07.45.45,0,0,1,.1.25l.07,1a3,3,0,0,1,.85-1.08,1.83,1.83,0,0,1,1.17-.39,1.9,1.9,0,0,1,.5.06,1.68,1.68,0,0,1,.41.17l-.15.87a.2.2,0,0,1-.2.17,1,1,0,0,1-.28-.06,1.54,1.54,0,0,0-.53-.07,1.48,1.48,0,0,0-1,.36,2.65,2.65,0,0,0-.69,1v4.22Z"/><path class="cls-1" d="M105.72,16.76a3.45,3.45,0,0,1,.81.1,2.17,2.17,0,0,1,.68.28H109v.43q0,.21-.27.27L108,18a2,2,0,0,1,.23.95,2.14,2.14,0,0,1-.19.88,2.16,2.16,0,0,1-.52.68,2.45,2.45,0,0,1-.78.43,3.22,3.22,0,0,1-1,.15,3.6,3.6,0,0,1-.88-.11,1.31,1.31,0,0,0-.32.29.51.51,0,0,0-.1.3.4.4,0,0,0,.19.37,1.09,1.09,0,0,0,.5.18,3.84,3.84,0,0,0,.71.06h.82a4.28,4.28,0,0,1,.81.07,2.54,2.54,0,0,1,.72.24,1.27,1.27,0,0,1,.69,1.21,1.8,1.8,0,0,1-.21.84,2.42,2.42,0,0,1-.61.72,3.22,3.22,0,0,1-1,.5,4.34,4.34,0,0,1-1.3.19,4.89,4.89,0,0,1-1.28-.15,2.87,2.87,0,0,1-.9-.38,1.69,1.69,0,0,1-.54-.56,1.38,1.38,0,0,1-.18-.67,1.17,1.17,0,0,1,.31-.83,2.09,2.09,0,0,1,.85-.55,1.33,1.33,0,0,1-.45-.35,1,1,0,0,1-.16-.59.77.77,0,0,1,0-.29,1,1,0,0,1,.16-.31,2.26,2.26,0,0,1,.26-.29,2,2,0,0,1,.37-.24,2,2,0,0,1-.77-.73,2,2,0,0,1-.27-1.06,2.1,2.1,0,0,1,.18-.88,2.06,2.06,0,0,1,.52-.68,2.26,2.26,0,0,1,.8-.42A2.93,2.93,0,0,1,105.72,16.76Zm2.07,7.08a.57.57,0,0,0-.14-.4.88.88,0,0,0-.37-.24,2.13,2.13,0,0,0-.55-.12,4.4,4.4,0,0,0-.64,0h-.7a2.41,2.41,0,0,1-.67-.09,2,2,0,0,0-.61.43.89.89,0,0,0-.23.61.88.88,0,0,0,.11.42,1,1,0,0,0,.35.33,2.09,2.09,0,0,0,.6.22,3.43,3.43,0,0,0,.84.09,3.61,3.61,0,0,0,.84-.09,2,2,0,0,0,.63-.25,1,1,0,0,0,.4-.38A.93.93,0,0,0,107.79,23.84Zm-2.07-3.57a2,2,0,0,0,.62-.1,1.23,1.23,0,0,0,.46-.28,1.09,1.09,0,0,0,.27-.42,1.53,1.53,0,0,0,.1-.54,1.3,1.3,0,0,0-.38-1,1.77,1.77,0,0,0-2.14,0,1.29,1.29,0,0,0-.37,1,1.53,1.53,0,0,0,.09.54,1.24,1.24,0,0,0,.28.42,1.28,1.28,0,0,0,.45.28A2,2,0,0,0,105.72,20.27Z"/><path class="cls-1" d="M115.78,13.47h.9V25.75h-.9Z"/><path class="cls-1" d="M123.26,20v3.51H122V14.13h2.77a5.16,5.16,0,0,1,1.55.2,3.07,3.07,0,0,1,1.09.59,2.32,2.32,0,0,1,.64.91,3.31,3.31,0,0,1,0,2.4,2.74,2.74,0,0,1-.67.94,3.24,3.24,0,0,1-1.1.61,4.64,4.64,0,0,1-1.5.22Zm0-1h1.51a3.13,3.13,0,0,0,1-.14,1.93,1.93,0,0,0,.7-.41,1.71,1.71,0,0,0,.42-.61A2.11,2.11,0,0,0,127,17a1.8,1.8,0,0,0-.56-1.4,2.38,2.38,0,0,0-1.67-.5h-1.51Z"/><path class="cls-1" d="M131,13.86v9.65h-1.16V13.86Z"/><path class="cls-1" d="M135.66,16.77a3.08,3.08,0,0,1,1.11.2,2.42,2.42,0,0,1,.86.58,2.58,2.58,0,0,1,.58.93,3.47,3.47,0,0,1,.2,1.26.91.91,0,0,1,0,.36.27.27,0,0,1-.23.1h-4.41a3.89,3.89,0,0,0,.17,1.09,2.27,2.27,0,0,0,.43.77,1.71,1.71,0,0,0,.66.47,2.26,2.26,0,0,0,.85.15,2.39,2.39,0,0,0,.75-.1,3.3,3.3,0,0,0,.55-.22,3,3,0,0,0,.38-.22.65.65,0,0,1,.27-.1.25.25,0,0,1,.22.11l.33.43a2.28,2.28,0,0,1-.52.45,3,3,0,0,1-.64.32,4.38,4.38,0,0,1-.71.19,4.59,4.59,0,0,1-.73.06,3.5,3.5,0,0,1-1.27-.23,2.87,2.87,0,0,1-1-.68,3.21,3.21,0,0,1-.66-1.11,4.71,4.71,0,0,1-.23-1.52,3.9,3.9,0,0,1,.21-1.3,3.07,3.07,0,0,1,.61-1,2.79,2.79,0,0,1,1-.7A3.16,3.16,0,0,1,135.66,16.77Zm0,.86a1.79,1.79,0,0,0-1.33.49,2.29,2.29,0,0,0-.6,1.35h3.61a2.56,2.56,0,0,0-.11-.75,1.94,1.94,0,0,0-.33-.58,1.47,1.47,0,0,0-.53-.38A1.76,1.76,0,0,0,135.69,17.63Z"/><path class="cls-1" d="M144.77,23.51h-.52a.68.68,0,0,1-.27-.05.3.3,0,0,1-.14-.23l-.13-.61a6.28,6.28,0,0,1-.51.42,2.75,2.75,0,0,1-.52.31,2.93,2.93,0,0,1-.59.2,3.69,3.69,0,0,1-.69.06,2.09,2.09,0,0,1-.72-.11,1.68,1.68,0,0,1-.59-.32,1.45,1.45,0,0,1-.39-.55,1.87,1.87,0,0,1-.15-.78,1.48,1.48,0,0,1,.21-.76,1.93,1.93,0,0,1,.7-.65,4.45,4.45,0,0,1,1.26-.46,8.66,8.66,0,0,1,1.91-.18v-.52a1.77,1.77,0,0,0-.34-1.18,1.17,1.17,0,0,0-1-.4,2.1,2.1,0,0,0-.72.11,2.59,2.59,0,0,0-.5.24l-.37.24a.47.47,0,0,1-.31.11.38.38,0,0,1-.34-.22l-.21-.37a3.71,3.71,0,0,1,1.18-.79,3.61,3.61,0,0,1,1.41-.26,2.57,2.57,0,0,1,1,.18,2,2,0,0,1,.73.51,2.25,2.25,0,0,1,.44.79,3.31,3.31,0,0,1,.15,1Zm-3-.72a2.47,2.47,0,0,0,.56-.06,2,2,0,0,0,.48-.18,1.94,1.94,0,0,0,.43-.27,3.62,3.62,0,0,0,.41-.38V20.54a7.61,7.61,0,0,0-1.37.1,4,4,0,0,0-.92.26,1.25,1.25,0,0,0-.51.39.83.83,0,0,0-.16.5,1.26,1.26,0,0,0,.08.46.81.81,0,0,0,.23.31,1,1,0,0,0,.34.18A1.45,1.45,0,0,0,141.75,22.79Z"/><path class="cls-1" d="M150.34,18a.27.27,0,0,1-.25.14.46.46,0,0,1-.22-.07l-.3-.16a3,3,0,0,0-.43-.16,2.05,2.05,0,0,0-.59-.08,1.74,1.74,0,0,0-.53.08,1.36,1.36,0,0,0-.4.2,1,1,0,0,0-.26.31.78.78,0,0,0-.09.37.63.63,0,0,0,.15.43,1.32,1.32,0,0,0,.39.29,2.52,2.52,0,0,0,.55.22l.63.21a5.87,5.87,0,0,1,.63.24,2,2,0,0,1,.55.32,1.53,1.53,0,0,1,.39.48,1.47,1.47,0,0,1,.15.69,2.18,2.18,0,0,1-.16.85,1.79,1.79,0,0,1-.49.67,2.29,2.29,0,0,1-.78.45,3.23,3.23,0,0,1-1.08.16,3.31,3.31,0,0,1-1.25-.22,3.23,3.23,0,0,1-1-.58l.27-.45a.53.53,0,0,1,.13-.13.36.36,0,0,1,.19,0,.45.45,0,0,1,.25.09l.31.2a2.88,2.88,0,0,0,.46.2,2,2,0,0,0,.66.09,1.82,1.82,0,0,0,.6-.08,1.22,1.22,0,0,0,.42-.24,1,1,0,0,0,.26-.35,1.16,1.16,0,0,0,.08-.42.68.68,0,0,0-.15-.45,1.22,1.22,0,0,0-.39-.31,2.74,2.74,0,0,0-.55-.22l-.64-.2c-.21-.07-.43-.15-.63-.24a2.26,2.26,0,0,1-.56-.34,1.47,1.47,0,0,1-.53-1.22,1.8,1.8,0,0,1,.15-.73,1.86,1.86,0,0,1,.46-.62,2.14,2.14,0,0,1,.74-.42,2.84,2.84,0,0,1,1-.16,3.14,3.14,0,0,1,1.18.21,2.68,2.68,0,0,1,.9.56Z"/><path class="cls-1" d="M154.85,16.77a3.07,3.07,0,0,1,1.1.2,2.55,2.55,0,0,1,.87.58,2.7,2.7,0,0,1,.57.93,3.47,3.47,0,0,1,.21,1.26.72.72,0,0,1-.06.36.25.25,0,0,1-.22.1H152.9a3.89,3.89,0,0,0,.17,1.09,2.13,2.13,0,0,0,.44.77,1.67,1.67,0,0,0,.65.47,2.3,2.3,0,0,0,.85.15,2.5,2.5,0,0,0,.76-.1,3.54,3.54,0,0,0,.54-.22,4.19,4.19,0,0,0,.39-.22A.57.57,0,0,1,157,22a.28.28,0,0,1,.23.11l.32.43A2.09,2.09,0,0,1,157,23a3,3,0,0,1-.64.32,4.38,4.38,0,0,1-.71.19,4.59,4.59,0,0,1-.73.06,3.44,3.44,0,0,1-1.26-.23,2.91,2.91,0,0,1-1-.68,3,3,0,0,1-.65-1.11,4.45,4.45,0,0,1-.24-1.52,3.9,3.9,0,0,1,.21-1.3,3.09,3.09,0,0,1,.62-1,2.75,2.75,0,0,1,1-.7A3.21,3.21,0,0,1,154.85,16.77Zm0,.86a1.79,1.79,0,0,0-1.33.49,2.29,2.29,0,0,0-.6,1.35h3.61a2.56,2.56,0,0,0-.11-.75,1.75,1.75,0,0,0-.33-.58,1.47,1.47,0,0,0-.53-.38A1.73,1.73,0,0,0,154.87,17.63Z"/><path class="cls-1" d="M163.84,16.76a3.45,3.45,0,0,1,.81.1,2.33,2.33,0,0,1,.69.28h1.8v.43c0,.14-.1.23-.28.27l-.75.11a2.08,2.08,0,0,1-.48,2.51,2.5,2.5,0,0,1-.79.43,3.13,3.13,0,0,1-1,.15,3.45,3.45,0,0,1-.87-.11,1.15,1.15,0,0,0-.32.29.53.53,0,0,0-.11.3.4.4,0,0,0,.19.37,1.18,1.18,0,0,0,.5.18,3.88,3.88,0,0,0,.72.06h.81a4.47,4.47,0,0,1,.82.07,2.58,2.58,0,0,1,.71.24,1.33,1.33,0,0,1,.51.46,1.39,1.39,0,0,1,.19.75,1.7,1.7,0,0,1-.22.84,2.28,2.28,0,0,1-.61.72,3.28,3.28,0,0,1-1,.5,4.4,4.4,0,0,1-1.31.19,4.81,4.81,0,0,1-1.27-.15,2.83,2.83,0,0,1-.91-.38,1.69,1.69,0,0,1-.54-.56,1.38,1.38,0,0,1-.18-.67,1.22,1.22,0,0,1,.31-.83,2.13,2.13,0,0,1,.86-.55,1.24,1.24,0,0,1-.45-.35,1,1,0,0,1-.17-.59,1,1,0,0,1,.05-.29,1.3,1.3,0,0,1,.16-.31,3.58,3.58,0,0,1,.27-.29,2,2,0,0,1,.37-.24,2,2,0,0,1-1-1.79,2,2,0,0,1,.19-.88,1.82,1.82,0,0,1,.52-.68,2.21,2.21,0,0,1,.79-.42A3,3,0,0,1,163.84,16.76Zm2.07,7.08a.57.57,0,0,0-.13-.4.92.92,0,0,0-.38-.24,2.14,2.14,0,0,0-.54-.12,4.54,4.54,0,0,0-.65,0h-.69a2.48,2.48,0,0,1-.68-.09,1.85,1.85,0,0,0-.6.43A.85.85,0,0,0,162,24a.79.79,0,0,0,.12.42.93.93,0,0,0,.35.33,2,2,0,0,0,.59.22,3.49,3.49,0,0,0,.84.09,3.63,3.63,0,0,0,.85-.09,2,2,0,0,0,.63-.25,1.22,1.22,0,0,0,.4-.38A.92.92,0,0,0,165.91,23.84Zm-2.07-3.57a2,2,0,0,0,.63-.1,1.28,1.28,0,0,0,.45-.28,1.11,1.11,0,0,0,.28-.42,1.53,1.53,0,0,0,.09-.54,1.29,1.29,0,0,0-.37-1,1.79,1.79,0,0,0-2.15,0,1.47,1.47,0,0,0-.27,1.51,1,1,0,0,0,.28.42,1.28,1.28,0,0,0,.45.28A1.9,1.9,0,0,0,163.84,20.27Z"/><path class="cls-1" d="M173.17,23.51h-.51a.7.7,0,0,1-.28-.05.33.33,0,0,1-.14-.23l-.13-.61a6.28,6.28,0,0,1-.51.42,2.75,2.75,0,0,1-.52.31,2.93,2.93,0,0,1-.59.2,3.62,3.62,0,0,1-.69.06,2.09,2.09,0,0,1-.72-.11,1.68,1.68,0,0,1-.59-.32,1.57,1.57,0,0,1-.39-.55,1.87,1.87,0,0,1-.15-.78,1.48,1.48,0,0,1,.21-.76,1.93,1.93,0,0,1,.7-.65,4.45,4.45,0,0,1,1.26-.46A8.66,8.66,0,0,1,172,19.8v-.52a1.82,1.82,0,0,0-.33-1.18,1.19,1.19,0,0,0-1-.4,2.14,2.14,0,0,0-.72.11,2.59,2.59,0,0,0-.5.24l-.37.24a.47.47,0,0,1-.3.11.37.37,0,0,1-.21-.06.36.36,0,0,1-.14-.16l-.21-.37a3.75,3.75,0,0,1,1.19-.79,3.53,3.53,0,0,1,1.4-.26,2.57,2.57,0,0,1,1,.18,2,2,0,0,1,.73.51,2.25,2.25,0,0,1,.44.79,3.31,3.31,0,0,1,.15,1Zm-3-.72a2.47,2.47,0,0,0,.56-.06,2,2,0,0,0,.48-.18,2.27,2.27,0,0,0,.44-.27,4.67,4.67,0,0,0,.4-.38V20.54a7.68,7.68,0,0,0-1.37.1,4,4,0,0,0-.92.26,1.32,1.32,0,0,0-.51.39.83.83,0,0,0-.16.5,1.26,1.26,0,0,0,.08.46.93.93,0,0,0,.23.31,1,1,0,0,0,.34.18A1.49,1.49,0,0,0,170.15,22.79Z"/><path class="cls-1" d="M174.94,23.51V16.88h.69a.3.3,0,0,1,.32.24l.09.68a3.19,3.19,0,0,1,.82-.74,1.92,1.92,0,0,1,1-.29,1.55,1.55,0,0,1,1.09.37,2.09,2.09,0,0,1,.6,1,1.93,1.93,0,0,1,.37-.62,2.24,2.24,0,0,1,.5-.43,2,2,0,0,1,.6-.25,2.82,2.82,0,0,1,.65-.08,2.45,2.45,0,0,1,.93.17,1.78,1.78,0,0,1,.69.49,2.12,2.12,0,0,1,.44.78,3.57,3.57,0,0,1,.15,1.08v4.22h-1.16V19.29a1.8,1.8,0,0,0-.35-1.19,1.19,1.19,0,0,0-1-.4,1.4,1.4,0,0,0-1,.4,1.52,1.52,0,0,0-.31.49,2.1,2.1,0,0,0-.11.7v4.22h-1.17V19.29a1.85,1.85,0,0,0-.32-1.2,1.12,1.12,0,0,0-.93-.39,1.55,1.55,0,0,0-.81.23,2.83,2.83,0,0,0-.67.63v5Z"/><path class="cls-1" d="M185.73,23.51V13.86h1.17v4a3.5,3.5,0,0,1,.95-.77,2.56,2.56,0,0,1,1.22-.29,2.33,2.33,0,0,1,1,.22,2,2,0,0,1,.79.64,3.17,3.17,0,0,1,.51,1.06,5.37,5.37,0,0,1,.17,1.46,4.56,4.56,0,0,1-.19,1.36,3.19,3.19,0,0,1-.57,1.1,2.61,2.61,0,0,1-.9.72,2.65,2.65,0,0,1-1.2.27,2.17,2.17,0,0,1-1.09-.25,2.71,2.71,0,0,1-.79-.69l-.05.6a.3.3,0,0,1-.31.25Zm3-5.81a1.93,1.93,0,0,0-1,.26,3,3,0,0,0-.79.74v3.21a1.88,1.88,0,0,0,.7.61,2,2,0,0,0,.86.18,1.66,1.66,0,0,0,1.42-.67,3.09,3.09,0,0,0,.5-1.88,5.08,5.08,0,0,0-.11-1.11,2.19,2.19,0,0,0-.34-.77,1.22,1.22,0,0,0-.53-.43A1.73,1.73,0,0,0,188.69,17.7Z"/><path class="cls-1" d="M194.31,13.86v9.65h-1.17V13.86Z"/><path class="cls-1" d="M199,16.77a3,3,0,0,1,1.1.2,2.46,2.46,0,0,1,.87.58,2.56,2.56,0,0,1,.57.93,3.47,3.47,0,0,1,.21,1.26.72.72,0,0,1-.06.36.25.25,0,0,1-.22.1H197a3.89,3.89,0,0,0,.17,1.09,2.13,2.13,0,0,0,.44.77,1.67,1.67,0,0,0,.65.47,2.3,2.3,0,0,0,.85.15,2.41,2.41,0,0,0,.76-.1,4.19,4.19,0,0,0,.55-.22,3.9,3.9,0,0,0,.38-.22.57.57,0,0,1,.26-.1.28.28,0,0,1,.23.11l.32.43a2.22,2.22,0,0,1-.51.45,3,3,0,0,1-.65.32,4.12,4.12,0,0,1-.71.19,4.49,4.49,0,0,1-.73.06,3.44,3.44,0,0,1-1.26-.23,2.78,2.78,0,0,1-1-.68,3.06,3.06,0,0,1-.66-1.11,4.45,4.45,0,0,1-.24-1.52,3.66,3.66,0,0,1,.22-1.3,2.92,2.92,0,0,1,.61-1,2.75,2.75,0,0,1,1-.7A3.21,3.21,0,0,1,199,16.77Zm0,.86a1.76,1.76,0,0,0-1.33.49,2.24,2.24,0,0,0-.61,1.35h3.61a2.56,2.56,0,0,0-.11-.75,1.59,1.59,0,0,0-.33-.58,1.52,1.52,0,0,0-.52-.38A1.8,1.8,0,0,0,199,17.63Z"/><path class="cls-1" d="M205.75,23.51V16.88h.67a.35.35,0,0,1,.26.07.45.45,0,0,1,.1.25l.08,1a3.12,3.12,0,0,1,.84-1.08,2,2,0,0,1,1.67-.33,1.94,1.94,0,0,1,.42.17l-.16.87a.19.19,0,0,1-.2.17,1.08,1.08,0,0,1-.28-.06,1.74,1.74,0,0,0-1.55.29,2.54,2.54,0,0,0-.68,1v4.22Z"/><path class="cls-1" d="M213.65,16.77a3.08,3.08,0,0,1,1.11.2,2.55,2.55,0,0,1,.87.58,2.7,2.7,0,0,1,.57.93,3.47,3.47,0,0,1,.2,1.26.91.91,0,0,1-.05.36.27.27,0,0,1-.23.1h-4.41a3.89,3.89,0,0,0,.17,1.09,2.27,2.27,0,0,0,.43.77,1.71,1.71,0,0,0,.66.47,2.26,2.26,0,0,0,.85.15,2.39,2.39,0,0,0,.75-.1,3.3,3.3,0,0,0,.55-.22,3,3,0,0,0,.38-.22.65.65,0,0,1,.27-.1.25.25,0,0,1,.22.11l.33.43a2.28,2.28,0,0,1-.52.45,3,3,0,0,1-.64.32,4.38,4.38,0,0,1-.71.19,4.59,4.59,0,0,1-.73.06,3.5,3.5,0,0,1-1.27-.23,2.87,2.87,0,0,1-1-.68,3.21,3.21,0,0,1-.66-1.11,4.71,4.71,0,0,1-.23-1.52,3.9,3.9,0,0,1,.21-1.3,3.07,3.07,0,0,1,.61-1,2.79,2.79,0,0,1,1-.7A3.16,3.16,0,0,1,213.65,16.77Zm0,.86a1.79,1.79,0,0,0-1.33.49,2.29,2.29,0,0,0-.6,1.35h3.61a2.56,2.56,0,0,0-.11-.75,1.94,1.94,0,0,0-.33-.58,1.47,1.47,0,0,0-.53-.38A1.76,1.76,0,0,0,213.68,17.63Z"/><path class="cls-1" d="M221.69,18a.27.27,0,0,1-.24.14.46.46,0,0,1-.23-.07l-.3-.16a2.61,2.61,0,0,0-.43-.16,2.05,2.05,0,0,0-.59-.08,1.78,1.78,0,0,0-.53.08,1.36,1.36,0,0,0-.4.2,1,1,0,0,0-.26.31.77.77,0,0,0-.08.37.62.62,0,0,0,.14.43,1.32,1.32,0,0,0,.39.29,2.74,2.74,0,0,0,.55.22l.63.21A5.87,5.87,0,0,1,221,20a2.2,2.2,0,0,1,.56.32,1.37,1.37,0,0,1,.38.48,1.47,1.47,0,0,1,.15.69,2.18,2.18,0,0,1-.16.85,1.79,1.79,0,0,1-.49.67,2.29,2.29,0,0,1-.78.45,3.23,3.23,0,0,1-1.08.16,3.31,3.31,0,0,1-1.25-.22,3.23,3.23,0,0,1-1-.58l.28-.45a.37.37,0,0,1,.12-.13.36.36,0,0,1,.19,0,.45.45,0,0,1,.25.09,3.71,3.71,0,0,0,.32.2,2.4,2.4,0,0,0,.45.2,2.1,2.1,0,0,0,.66.09,1.82,1.82,0,0,0,.6-.08,1.22,1.22,0,0,0,.42-.24,1,1,0,0,0,.26-.35,1.16,1.16,0,0,0,.08-.42.68.68,0,0,0-.15-.45,1.22,1.22,0,0,0-.39-.31,2.52,2.52,0,0,0-.55-.22l-.64-.2c-.21-.07-.43-.15-.63-.24a2.26,2.26,0,0,1-.56-.34,1.45,1.45,0,0,1-.38-.5,1.59,1.59,0,0,1-.15-.72,1.66,1.66,0,0,1,.16-.73,1.71,1.71,0,0,1,.45-.62,2.14,2.14,0,0,1,.74-.42,2.89,2.89,0,0,1,1-.16,3.13,3.13,0,0,1,1.17.21,2.59,2.59,0,0,1,.9.56Z"/><path class="cls-1" d="M223.57,25.75V16.88h.7a.29.29,0,0,1,.31.24l.1.78a3.63,3.63,0,0,1,1-.83,2.5,2.5,0,0,1,1.26-.31,2.36,2.36,0,0,1,1,.22,2,2,0,0,1,.79.65,2.9,2.9,0,0,1,.5,1.06,5.35,5.35,0,0,1,.18,1.46,4.26,4.26,0,0,1-.2,1.36,3.17,3.17,0,0,1-.56,1.1,2.44,2.44,0,0,1-.9.72,2.65,2.65,0,0,1-1.2.27,2.55,2.55,0,0,1-1.05-.2,2.41,2.41,0,0,1-.77-.58v2.93Zm3-8a1.91,1.91,0,0,0-1,.26,2.89,2.89,0,0,0-.79.74v3.21a1.88,1.88,0,0,0,.7.61,2,2,0,0,0,.86.18,1.66,1.66,0,0,0,1.42-.67,3.09,3.09,0,0,0,.49-1.88A4.53,4.53,0,0,0,228.1,19a2.18,2.18,0,0,0-.33-.77,1.22,1.22,0,0,0-.53-.43A1.8,1.8,0,0,0,226.53,17.7Z"/><path class="cls-1" d="M233.49,16.77a3.43,3.43,0,0,1,1.31.24,2.68,2.68,0,0,1,1,.69,2.91,2.91,0,0,1,.63,1.08,4.63,4.63,0,0,1,0,2.82,2.91,2.91,0,0,1-.63,1.08,2.78,2.78,0,0,1-1,.68,3.72,3.72,0,0,1-2.63,0,2.78,2.78,0,0,1-1-.68,3.07,3.07,0,0,1-.64-1.08,4.63,4.63,0,0,1,0-2.82,3.07,3.07,0,0,1,.64-1.08,2.68,2.68,0,0,1,1-.69A3.45,3.45,0,0,1,233.49,16.77Zm0,5.92A1.69,1.69,0,0,0,235,22a3,3,0,0,0,.49-1.83,3,3,0,0,0-.49-1.85,1.69,1.69,0,0,0-1.46-.66,2,2,0,0,0-.87.17,1.53,1.53,0,0,0-.61.49,2.22,2.22,0,0,0-.37.79,4.7,4.7,0,0,0,0,2.11A2.17,2.17,0,0,0,232,22a1.62,1.62,0,0,0,.61.49A2.11,2.11,0,0,0,233.49,22.69Z"/><path class="cls-1" d="M238.08,23.51V16.88h.7a.29.29,0,0,1,.31.24l.09.72a3.54,3.54,0,0,1,1-.77,2.46,2.46,0,0,1,1.23-.3,2.42,2.42,0,0,1,1,.18,1.89,1.89,0,0,1,.7.51,2.43,2.43,0,0,1,.42.8,3.66,3.66,0,0,1,.14,1v4.22h-1.16V19.29a1.76,1.76,0,0,0-.35-1.17A1.28,1.28,0,0,0,241,17.7a1.91,1.91,0,0,0-1,.25,3.26,3.26,0,0,0-.83.67v4.89Z"/><path class="cls-1" d="M249.16,18a.26.26,0,0,1-.24.14.4.4,0,0,1-.22-.07l-.31-.16a2.61,2.61,0,0,0-.43-.16,2,2,0,0,0-.59-.08,1.78,1.78,0,0,0-.53.08,1.5,1.5,0,0,0-.4.2.82.82,0,0,0-.25.31.78.78,0,0,0-.09.37.67.67,0,0,0,.14.43,1.32,1.32,0,0,0,.39.29,2.74,2.74,0,0,0,.55.22l.64.21q.31.11.63.24a2.14,2.14,0,0,1,.55.32,1.53,1.53,0,0,1,.39.48,1.6,1.6,0,0,1,.15.69,2.19,2.19,0,0,1-.17.85,1.88,1.88,0,0,1-.48.67,2.43,2.43,0,0,1-.79.45,3.21,3.21,0,0,1-1.07.16,3.33,3.33,0,0,1-1.26-.22,3.36,3.36,0,0,1-1-.58l.28-.45a.37.37,0,0,1,.12-.13.36.36,0,0,1,.19,0,.45.45,0,0,1,.25.09l.32.2a2.4,2.4,0,0,0,.45.2,2.13,2.13,0,0,0,.67.09,1.79,1.79,0,0,0,.59-.08,1.37,1.37,0,0,0,.43-.24,1.07,1.07,0,0,0,.25-.35,1.16,1.16,0,0,0,.08-.42.68.68,0,0,0-.15-.45,1,1,0,0,0-.39-.31,2.52,2.52,0,0,0-.55-.22l-.64-.2q-.32-.11-.63-.24a2,2,0,0,1-.55-.34A1.51,1.51,0,0,1,245,18.7a1.66,1.66,0,0,1,.16-.73,1.62,1.62,0,0,1,.46-.62,2,2,0,0,1,.74-.42,2.8,2.8,0,0,1,1-.16,3.09,3.09,0,0,1,1.17.21,2.59,2.59,0,0,1,.9.56Z"/><path class="cls-1" d="M252.61,14.79a.79.79,0,0,1-.26.58.68.68,0,0,1-.26.18.71.71,0,0,1-.32.07.85.85,0,0,1-.83-.83.71.71,0,0,1,.07-.32.8.8,0,0,1,.18-.27.68.68,0,0,1,.26-.18.83.83,0,0,1,.32-.06.87.87,0,0,1,.32.06.68.68,0,0,1,.26.18,1,1,0,0,1,.19.27A.88.88,0,0,1,252.61,14.79Zm-.27,2.09v6.63h-1.16V16.88Z"/><path class="cls-1" d="M254.44,23.51V13.86h1.17v4a3.35,3.35,0,0,1,.95-.77,2.53,2.53,0,0,1,1.22-.29,2.36,2.36,0,0,1,1,.22,2.11,2.11,0,0,1,.79.64,3.17,3.17,0,0,1,.51,1.06,5.8,5.8,0,0,1,.17,1.46,4.56,4.56,0,0,1-.19,1.36,3.37,3.37,0,0,1-.57,1.1,2.61,2.61,0,0,1-.9.72,2.66,2.66,0,0,1-1.21.27,2.2,2.2,0,0,1-1.09-.25,2.68,2.68,0,0,1-.78-.69l-.06.6a.28.28,0,0,1-.3.25Zm3-5.81a1.93,1.93,0,0,0-1,.26,2.89,2.89,0,0,0-.79.74v3.21a1.81,1.81,0,0,0,.7.61,2,2,0,0,0,.85.18,1.66,1.66,0,0,0,1.43-.67,3.09,3.09,0,0,0,.5-1.88A4.49,4.49,0,0,0,259,19a2,2,0,0,0-.33-.77,1.22,1.22,0,0,0-.53-.43A1.8,1.8,0,0,0,257.4,17.7Z"/><path class="cls-1" d="M263,13.86v9.65h-1.16V13.86Z"/><path class="cls-1" d="M267,25.47a.62.62,0,0,1-.15.2.36.36,0,0,1-.27.08h-.87l1.21-2.63-2.73-6.24h1a.36.36,0,0,1,.24.07.38.38,0,0,1,.12.17l1.78,4.17c0,.1.07.2.1.29s.05.2.08.3l.09-.3c0-.09.06-.19.1-.29l1.72-4.17a.49.49,0,0,1,.14-.18.37.37,0,0,1,.21-.06h.92Z"/></g></g></svg>