<svg xmlns="http://www.w3.org/2000/svg" viewBox="0 0 194 33.82"><defs><style>.cls-1{fill:#f98f0b;}.cls-2{fill:#fff;}</style></defs><g id="Layer_2" data-name="Layer 2"><g id="Layer_1-2" data-name="Layer 1"><rect class="cls-1" width="194" height="33.82" rx="16.91"/><path class="cls-2" d="M35.06,18a6.37,6.37,0,0,1-.39,2,5.12,5.12,0,0,1-1,1.71A4.7,4.7,0,0,1,32,22.89a5.55,5.55,0,0,1-2.28.43,6.38,6.38,0,0,1-2.33-.41,5.51,5.51,0,0,1-1.9-1.19,5.34,5.34,0,0,1-1.28-1.94,7.07,7.07,0,0,1-.45-2.61,6.94,6.94,0,0,1,.46-2.61,5.42,5.42,0,0,1,3.23-3.13A7,7,0,0,1,29.89,11a6.92,6.92,0,0,1,3,.6,5.17,5.17,0,0,1,3,4h-2.7a2.42,2.42,0,0,0-.6-1.14,3,3,0,0,0-1.14-.73,4.48,4.48,0,0,0-1.56-.26,3.75,3.75,0,0,0-1.83.42,2.89,2.89,0,0,0-1.19,1.23,4.29,4.29,0,0,0-.42,2,4.23,4.23,0,0,0,.45,2,3,3,0,0,0,1.27,1.26,4.23,4.23,0,0,0,1.94.42A4.77,4.77,0,0,0,32,20.52a3,3,0,0,0,1.88-2.66Zm-4.63,1.19v-2.1H36v6H34.08l-.37-4.72.54.8Z"/><path class="cls-2" d="M42.24,23.32a5.58,5.58,0,0,1-2.59-.59,4.51,4.51,0,0,1-1.79-1.67,4.78,4.78,0,0,1-.65-2.5,4.81,4.81,0,0,1,.62-2.46,4.47,4.47,0,0,1,1.72-1.65,5.1,5.1,0,0,1,2.49-.6,4.23,4.23,0,0,1,2.43.69,4.55,4.55,0,0,1,1.58,2,7.39,7.39,0,0,1,.55,2.95H39.32V17.61h5.83l-.94.66A3.06,3.06,0,0,0,43.89,17a2,2,0,0,0-.73-.78A2,2,0,0,0,42.08,16a2.21,2.21,0,0,0-1.17.3,2.08,2.08,0,0,0-.78.83,2.74,2.74,0,0,0-.27,1.25,3,3,0,0,0,.36,1.52,2.33,2.33,0,0,0,1.05,1,3.79,3.79,0,0,0,1.67.33,6.37,6.37,0,0,0,1.82-.27,6.29,6.29,0,0,0,1.63-.78V22a6.34,6.34,0,0,1-1.88,1A7.25,7.25,0,0,1,42.24,23.32Z"/><path class="cls-2" d="M47,16.27V15l1.67-.68,1.13-2.61h1.5V14.1h3.48v2.17H51.27v3a2.07,2.07,0,0,0,.37,1.41A1.72,1.72,0,0,0,53,21,4.32,4.32,0,0,0,54,20.92a4,4,0,0,0,.87-.32v2.22a7.77,7.77,0,0,1-1.11.35,6.74,6.74,0,0,1-1.43.15,4.37,4.37,0,0,1-2.11-.45A2.77,2.77,0,0,1,49,21.58a4.48,4.48,0,0,1-.39-1.94V16.27Z"/><path class="cls-2" d="M66.74,11.27l4.9,11.8H68.79L64.58,12.52h.82L61.21,23.07H58.35l4.92-11.8ZM61.27,20.7V18.29H68.6V20.7Z"/><path class="cls-2" d="M85,11.27v2.54H77.13l1.32-1.47V23.07H75.77V11.27Zm-8,4.91h7.69v2.53H77.07Z"/><path class="cls-2" d="M85.88,14.1h2.66L89,17.33v5.74H86.39v-6Zm7-.12V16.5a7.28,7.28,0,0,0-.76-.15,5.76,5.76,0,0,0-.69,0,2.48,2.48,0,0,0-1.22.3,2.18,2.18,0,0,0-.87,1A4,4,0,0,0,89,19.3l-.53-.73a12.38,12.38,0,0,1,.33-1.81,6,6,0,0,1,.62-1.5,3.13,3.13,0,0,1,1-1,2.63,2.63,0,0,1,1.43-.38l.51,0A3.84,3.84,0,0,1,92.88,14Z"/><path class="cls-2" d="M98.33,23.32a5.57,5.57,0,0,1-2.58-.59A4.6,4.6,0,0,1,94,21.06a4.78,4.78,0,0,1-.65-2.5,4.71,4.71,0,0,1,.63-2.46,4.41,4.41,0,0,1,1.72-1.65,5.08,5.08,0,0,1,2.48-.6,4.24,4.24,0,0,1,2.44.69,4.53,4.53,0,0,1,1.57,2,7.22,7.22,0,0,1,.55,2.95H95.41V17.61h5.84l-1,.66A3.06,3.06,0,0,0,100,17,2,2,0,0,0,98.17,16a2.21,2.21,0,0,0-1.17.3,2.06,2.06,0,0,0-.77.83A2.62,2.62,0,0,0,96,18.34a3,3,0,0,0,.36,1.52,2.33,2.33,0,0,0,1,1,3.87,3.87,0,0,0,1.68.33,6.3,6.3,0,0,0,1.81-.27,6,6,0,0,0,1.63-.78V22a6.22,6.22,0,0,1-1.88,1A7.25,7.25,0,0,1,98.33,23.32Z"/><path class="cls-2" d="M108.64,23.32a5.57,5.57,0,0,1-2.58-.59,4.53,4.53,0,0,1-1.8-1.67,4.78,4.78,0,0,1-.65-2.5,4.71,4.71,0,0,1,.63-2.46A4.34,4.34,0,0,1,106,14.45a5.08,5.08,0,0,1,2.48-.6,4.24,4.24,0,0,1,2.44.69,4.53,4.53,0,0,1,1.57,2,7.22,7.22,0,0,1,.55,2.95h-7.28V17.61h5.84l-1,.66a3.06,3.06,0,0,0-.32-1.25A2,2,0,0,0,108.48,16a2.21,2.21,0,0,0-1.17.3,2.06,2.06,0,0,0-.77.83,2.62,2.62,0,0,0-.28,1.25,3,3,0,0,0,.36,1.52,2.33,2.33,0,0,0,1,1,3.87,3.87,0,0,0,1.68.33,6.3,6.3,0,0,0,1.81-.27,6.14,6.14,0,0,0,1.63-.78V22a6.22,6.22,0,0,1-1.88,1A7.25,7.25,0,0,1,108.64,23.32Z"/><path class="cls-2" d="M123.83,23.32a6.64,6.64,0,0,1-3.27-.77,5.46,5.46,0,0,1-2.19-2.15,6.49,6.49,0,0,1-.78-3.23,6.42,6.42,0,0,1,.78-3.22,5.48,5.48,0,0,1,2.19-2.16,7.35,7.35,0,0,1,6.55,0,5.57,5.57,0,0,1,2.2,2.16,6.42,6.42,0,0,1,.78,3.22,6.49,6.49,0,0,1-.78,3.23,5.55,5.55,0,0,1-2.2,2.15A6.65,6.65,0,0,1,123.83,23.32Zm0-2.66a4.13,4.13,0,0,0,1.9-.41A2.93,2.93,0,0,0,127,19a3.8,3.8,0,0,0,.43-1.87A3.8,3.8,0,0,0,127,15.3a2.91,2.91,0,0,0-1.23-1.2,4.46,4.46,0,0,0-3.78,0,2.91,2.91,0,0,0-1.23,1.2,3.8,3.8,0,0,0-.44,1.87,3.8,3.8,0,0,0,.44,1.87A2.93,2.93,0,0,0,122,20.25,4.1,4.1,0,0,0,123.83,20.66Zm-1.69-2.31h3.18L130,23.94H126.7Z"/><path class="cls-2" d="M134.91,23.31A3.49,3.49,0,0,1,133,22.8a3.3,3.3,0,0,1-1.21-1.46,5.44,5.44,0,0,1-.42-2.23v-5H134v4.58a2.56,2.56,0,0,0,.47,1.67,1.61,1.61,0,0,0,1.34.58,2,2,0,0,0,1.11-.3,2,2,0,0,0,.7-.86,3.45,3.45,0,0,0,.24-1.34l.83.49a6.39,6.39,0,0,1-.68,2.4,3.78,3.78,0,0,1-1.33,1.48A3.2,3.2,0,0,1,134.91,23.31Zm3.45-.24-.51-3.49V14.1h2.64V20l.51,3.05Z"/><path class="cls-2" d="M147,23.32a5.82,5.82,0,0,1-2.68-.59,4.44,4.44,0,0,1-1.79-1.67,4.8,4.8,0,0,1-.63-2.47,4.76,4.76,0,0,1,.63-2.48,4.45,4.45,0,0,1,1.8-1.66,6.26,6.26,0,0,1,5.35,0,4.36,4.36,0,0,1,1.79,1.66,4.67,4.67,0,0,1,.64,2.48,4.64,4.64,0,0,1-.64,2.47,4.38,4.38,0,0,1-1.79,1.67A5.85,5.85,0,0,1,147,23.32Zm0-2.2a2.6,2.6,0,0,0,1.32-.31,2,2,0,0,0,.83-.87,2.86,2.86,0,0,0,.29-1.35,2.87,2.87,0,0,0-.29-1.36,2.11,2.11,0,0,0-.83-.87,3,3,0,0,0-2.63,0,2.16,2.16,0,0,0-.85.87,2.87,2.87,0,0,0-.29,1.36,2.86,2.86,0,0,0,.29,1.35,2,2,0,0,0,.85.87A2.59,2.59,0,0,0,147,21.12Z"/><path class="cls-2" d="M152.46,16.27V15l1.67-.68,1.13-2.61h1.5V14.1h3.48v2.17h-3.48v3a2.07,2.07,0,0,0,.37,1.41,1.72,1.72,0,0,0,1.32.4,4.32,4.32,0,0,0,1.07-.12,4,4,0,0,0,.87-.32v2.22a7.55,7.55,0,0,1-1.12.35,6.57,6.57,0,0,1-1.42.15,4.44,4.44,0,0,1-2.12-.45,2.8,2.8,0,0,1-1.21-1.29,4.48,4.48,0,0,1-.39-1.94V16.27Z"/><path class="cls-2" d="M166,23.32a5.58,5.58,0,0,1-2.59-.59,4.51,4.51,0,0,1-1.79-1.67,4.78,4.78,0,0,1-.65-2.5,4.81,4.81,0,0,1,.62-2.46,4.47,4.47,0,0,1,1.72-1.65,5.1,5.1,0,0,1,2.49-.6,4.23,4.23,0,0,1,2.43.69,4.55,4.55,0,0,1,1.58,2,7.39,7.39,0,0,1,.55,2.95h-7.28V17.61h5.83l-.95.66a2.91,2.91,0,0,0-.31-1.25,2,2,0,0,0-.73-.78,2,2,0,0,0-1.08-.28,2.25,2.25,0,0,0-1.18.3,2.13,2.13,0,0,0-.77.83,2.74,2.74,0,0,0-.27,1.25,3,3,0,0,0,.36,1.52,2.33,2.33,0,0,0,1.05,1,3.79,3.79,0,0,0,1.67.33,6.37,6.37,0,0,0,1.82-.27,6.29,6.29,0,0,0,1.63-.78V22a6.34,6.34,0,0,1-1.88,1A7.25,7.25,0,0,1,166,23.32Z"/></g></g></svg>