<svg xmlns="http://www.w3.org/2000/svg" viewBox="0 0 112.46 29.99"><defs><style>.cls-1{fill:red;}.cls-2{fill:#fffdf8;}</style></defs><g id="Layer_2" data-name="Layer 2"><g id="Layer_1-2" data-name="Layer 1"><rect class="cls-1" width="112.46" height="29.99"/><path class="cls-2" d="M8.42,9.73a4.24,4.24,0,0,1,.77-2.25A4.43,4.43,0,0,1,11,6a6.11,6.11,0,0,1,2.59-.52A5.85,5.85,0,0,1,16,6a3.77,3.77,0,0,1,1.6,1.3A3.31,3.31,0,0,1,18.2,9.2a3.24,3.24,0,0,1-.41,1.58,5.35,5.35,0,0,1-1.28,1.44,17.09,17.09,0,0,1-2.31,1.53l-2.92,1.71-.14-.75h7.34V17H8.6V15l4.34-2.78a16.58,16.58,0,0,0,1.63-1.13,3.47,3.47,0,0,0,.83-.88,1.65,1.65,0,0,0,.24-.87,1.55,1.55,0,0,0-.23-.85,1.54,1.54,0,0,0-.71-.58,2.92,2.92,0,0,0-1.19-.21,3.18,3.18,0,0,0-1.4.27,2,2,0,0,0-.83.74,2.64,2.64,0,0,0-.32,1Z"/><path class="cls-2" d="M25.24,17.22a5.79,5.79,0,0,1-3-.74,5.08,5.08,0,0,1-1.94-2,6.58,6.58,0,0,1-.69-3.09,6.53,6.53,0,0,1,.69-3.07,5,5,0,0,1,1.94-2,5.79,5.79,0,0,1,3-.74,5.75,5.75,0,0,1,3,.74,5,5,0,0,1,1.94,2,6.54,6.54,0,0,1,.69,3.08,6.57,6.57,0,0,1-.69,3.08,5,5,0,0,1-1.94,2.05A5.75,5.75,0,0,1,25.24,17.22Zm0-2.31A2.8,2.8,0,0,0,27.49,14a3.88,3.88,0,0,0,.8-2.63,3.86,3.86,0,0,0-.8-2.62,2.8,2.8,0,0,0-2.25-.93A2.83,2.83,0,0,0,23,8.73a3.86,3.86,0,0,0-.81,2.62A3.89,3.89,0,0,0,23,14,2.83,2.83,0,0,0,25.24,14.91Z"/><path class="cls-2" d="M32.17,10.62h3.44v2.22H32.17Z"/><path class="cls-2" d="M38,5.73h7.8V7.86h-7l1-.54-.57,4.23h-.65a3.72,3.72,0,0,1,.82-1,4,4,0,0,1,1.27-.75,5.45,5.45,0,0,1,4,.19,3.45,3.45,0,0,1,1.43,1.32,3.67,3.67,0,0,1,.51,1.94,3.67,3.67,0,0,1-.58,2,3.9,3.9,0,0,1-1.67,1.42,6.06,6.06,0,0,1-2.6.52,6.3,6.3,0,0,1-2.57-.48,4.2,4.2,0,0,1-1.72-1.31,3.76,3.76,0,0,1-.73-1.86h2.54a1.62,1.62,0,0,0,.79,1A3.79,3.79,0,0,0,43,14.8a1.88,1.88,0,0,0,.8-.63,1.62,1.62,0,0,0,.28-1,1.71,1.71,0,0,0-.25-.93,1.65,1.65,0,0,0-.74-.63,3,3,0,0,0-1.22-.22,3.64,3.64,0,0,0-1.09.15,3.17,3.17,0,0,0-1.42.88H37.19Z"/><path class="cls-2" d="M53.35,17.22a5.79,5.79,0,0,1-3-.74,5,5,0,0,1-2-2,6.7,6.7,0,0,1-.68-3.09,6.65,6.65,0,0,1,.68-3.07,5,5,0,0,1,2-2,6.31,6.31,0,0,1,5.93,0,5.08,5.08,0,0,1,1.94,2,6.54,6.54,0,0,1,.69,3.08,6.57,6.57,0,0,1-.69,3.08,5,5,0,0,1-1.94,2.05A5.78,5.78,0,0,1,53.35,17.22Zm0-2.31A2.83,2.83,0,0,0,55.6,14a3.94,3.94,0,0,0,.8-2.63,3.91,3.91,0,0,0-.8-2.62,3.2,3.2,0,0,0-4.51,0,3.91,3.91,0,0,0-.81,2.62A3.94,3.94,0,0,0,51.09,14,2.85,2.85,0,0,0,53.35,14.91Z"/><path class="cls-2" d="M63.37,12.28a3.8,3.8,0,0,1-1.83-.42,3.11,3.11,0,0,1-1.24-1.17,3.42,3.42,0,0,1-.44-1.77,3.3,3.3,0,0,1,.44-1.73A3.11,3.11,0,0,1,61.54,6,4.2,4.2,0,0,1,65.2,6a3.15,3.15,0,0,1,1.23,1.17,3.31,3.31,0,0,1,.45,1.73,3.43,3.43,0,0,1-.45,1.77,3.15,3.15,0,0,1-1.23,1.17A3.8,3.8,0,0,1,63.37,12.28Zm0-1.63a1.41,1.41,0,0,0,1.12-.46,1.76,1.76,0,0,0,.41-1.25,1.85,1.85,0,0,0-.4-1.26,1.42,1.42,0,0,0-1.13-.46,1.4,1.4,0,0,0-1.12.46,1.85,1.85,0,0,0-.41,1.26,1.81,1.81,0,0,0,.41,1.25A1.4,1.4,0,0,0,63.37,10.65ZM70,5.73h1.87L66.31,17H64.45Zm2.93,11.49a3.86,3.86,0,0,1-1.83-.42,3.13,3.13,0,0,1-1.23-1.19,3.47,3.47,0,0,1-.43-1.75,3.45,3.45,0,0,1,.43-1.76,3.15,3.15,0,0,1,1.23-1.17,4.22,4.22,0,0,1,3.67,0A3.15,3.15,0,0,1,76,12.1a3.72,3.72,0,0,1,0,3.51,3.13,3.13,0,0,1-1.23,1.19A3.84,3.84,0,0,1,72.88,17.22Zm0-1.65A1.46,1.46,0,0,0,74,15.12a1.82,1.82,0,0,0,.41-1.26,1.81,1.81,0,0,0-.4-1.25,1.43,1.43,0,0,0-1.14-.46,1.41,1.41,0,0,0-1.12.46,1.81,1.81,0,0,0-.4,1.25,1.82,1.82,0,0,0,.4,1.26A1.44,1.44,0,0,0,72.88,15.57Z"/><path class="cls-2" d="M85.41,17.22a5.45,5.45,0,0,1-2.55-.57,4.15,4.15,0,0,1-1.7-1.59,4.49,4.49,0,0,1-.61-2.36,4.46,4.46,0,0,1,.61-2.36,4.19,4.19,0,0,1,1.7-1.58,6,6,0,0,1,5.11,0,4.28,4.28,0,0,1,1.71,1.58,4.55,4.55,0,0,1,.6,2.36,4.59,4.59,0,0,1-.6,2.37A4.28,4.28,0,0,1,88,16.65,5.52,5.52,0,0,1,85.41,17.22Zm0-2.1a2.61,2.61,0,0,0,1.26-.29,2,2,0,0,0,.8-.84,2.86,2.86,0,0,0,.27-1.29,2.86,2.86,0,0,0-.27-1.29,2,2,0,0,0-.8-.83,2.61,2.61,0,0,0-1.26-.29,2.55,2.55,0,0,0-1.24.29,2,2,0,0,0-.81.83,2.73,2.73,0,0,0-.29,1.29A2.73,2.73,0,0,0,83.36,14a2,2,0,0,0,.81.84A2.55,2.55,0,0,0,85.41,15.12Z"/><path class="cls-2" d="M90.93,11.19V9.11h7v2.08Zm5.66-3.91a1.74,1.74,0,0,0-1.2.34A1.47,1.47,0,0,0,95,8.74V17H92.51V9a4.63,4.63,0,0,1,.42-2A3,3,0,0,1,94.2,5.65a4.29,4.29,0,0,1,2.1-.46,3.93,3.93,0,0,1,.94.1,5,5,0,0,1,.83.26V7.62a3.43,3.43,0,0,0-.7-.25A3.21,3.21,0,0,0,96.59,7.28Zm.83,3.91V9.11h7.06v2.08Zm5.67-3.91a1.74,1.74,0,0,0-1.2.34,1.47,1.47,0,0,0-.38,1.12V17H99V9a4.63,4.63,0,0,1,.42-2,3,3,0,0,1,1.26-1.31,4.29,4.29,0,0,1,2.1-.46,3.87,3.87,0,0,1,.94.1,5.4,5.4,0,0,1,.84.26V7.62a4,4,0,0,0-.71-.25A3.21,3.21,0,0,0,103.09,7.28Z"/><path class="cls-2" d="M15.53,22.55A3.5,3.5,0,0,1,15,24.17a3.24,3.24,0,0,1-1.26,1.08,4,4,0,0,1-1.78.39A3.89,3.89,0,0,1,10,25.18a3.25,3.25,0,0,1-1.3-1.3,4.34,4.34,0,0,1,0-3.89A3.29,3.29,0,0,1,10,18.7a3.9,3.9,0,0,1,1.94-.47,4,4,0,0,1,1.78.39A3.24,3.24,0,0,1,15,19.7a3.46,3.46,0,0,1,.58,1.62H13.9a1.79,1.79,0,0,0-.34-.82,1.63,1.63,0,0,0-.68-.53,2.48,2.48,0,0,0-1-.18,2.13,2.13,0,0,0-1.1.26,1.75,1.75,0,0,0-.71.74,2.75,2.75,0,0,0,0,2.29,1.77,1.77,0,0,0,.71.75,2.24,2.24,0,0,0,1.1.26,2.48,2.48,0,0,0,1-.18,1.61,1.61,0,0,0,.68-.52,1.87,1.87,0,0,0,.34-.84Z"/><path class="cls-2" d="M16.3,18.19h1.58v7.3H16.3Z"/><path class="cls-2" d="M21.69,25.64a3.25,3.25,0,0,1-1.55-.36,2.67,2.67,0,0,1-1.08-1,3.13,3.13,0,0,1,0-3,2.68,2.68,0,0,1,1-1,3.07,3.07,0,0,1,1.49-.36,2.61,2.61,0,0,1,1.47.41A2.67,2.67,0,0,1,24,21.53a4.45,4.45,0,0,1,.33,1.78H19.94V22.2h3.51l-.57.4a1.8,1.8,0,0,0-.19-.75,1.21,1.21,0,0,0-.44-.48,1.23,1.23,0,0,0-.65-.16,1.36,1.36,0,0,0-.71.18,1.23,1.23,0,0,0-.46.5,1.6,1.6,0,0,0-.17.75,1.77,1.77,0,0,0,.22.92,1.42,1.42,0,0,0,.63.58,2.37,2.37,0,0,0,1,.19,3.74,3.74,0,0,0,1.09-.16,3.42,3.42,0,0,0,1-.47v1.15a3.56,3.56,0,0,1-1.13.58A4.32,4.32,0,0,1,21.69,25.64Z"/><path class="cls-2" d="M29.93,22.79a4.34,4.34,0,0,1-.49,1.5,2.83,2.83,0,0,1-.9,1,2.29,2.29,0,0,1-1.23.35,2.22,2.22,0,0,1-1.26-.36,2.39,2.39,0,0,1-.85-1,3.74,3.74,0,0,1,0-3,2.39,2.39,0,0,1,.85-1,2.22,2.22,0,0,1,1.26-.36,2.29,2.29,0,0,1,1.23.35,2.88,2.88,0,0,1,.9,1A4.07,4.07,0,0,1,29.93,22.79Zm-3.43,0a1.71,1.71,0,0,0,.16.77,1.3,1.3,0,0,0,.45.53,1.14,1.14,0,0,0,.66.2,1.39,1.39,0,0,0,.71-.2,1.85,1.85,0,0,0,.59-.53,2.43,2.43,0,0,0,.39-.77,2.43,2.43,0,0,0-.39-.77,1.85,1.85,0,0,0-.59-.53,1.39,1.39,0,0,0-.71-.2,1.14,1.14,0,0,0-.66.2,1.3,1.3,0,0,0-.45.53A1.71,1.71,0,0,0,26.5,22.79Zm3,2.7-.21-2,.23-.74-.23-.73.21-2h1.65l-.3,2.7.3,2.7Z"/><path class="cls-2" d="M31.85,20.09h1.6L33.74,22v3.46H32.15v-3.6ZM36.06,20v1.52a3.4,3.4,0,0,0-.46-.09l-.41,0a1.53,1.53,0,0,0-.74.18,1.29,1.29,0,0,0-.52.58,2.39,2.39,0,0,0-.19,1l-.32-.44a7.27,7.27,0,0,1,.2-1.09,3.34,3.34,0,0,1,.38-.9,1.88,1.88,0,0,1,.59-.63,1.89,1.89,0,0,1,1.16-.2Z"/><path class="cls-2" d="M41.38,22.79a4.34,4.34,0,0,1-.49,1.5,2.76,2.76,0,0,1-.91,1,2.34,2.34,0,0,1-2.48,0,2.39,2.39,0,0,1-.85-1,3.74,3.74,0,0,1,0-3,2.39,2.39,0,0,1,.85-1,2.34,2.34,0,0,1,2.48,0,2.81,2.81,0,0,1,.91,1A4.07,4.07,0,0,1,41.38,22.79Zm-3.43,0a1.71,1.71,0,0,0,.16.77,1.3,1.3,0,0,0,.45.53,1.14,1.14,0,0,0,.66.2,1.41,1.41,0,0,0,.71-.2,2,2,0,0,0,.59-.53,2.43,2.43,0,0,0,.39-.77,2.43,2.43,0,0,0-.39-.77,2,2,0,0,0-.59-.53,1.41,1.41,0,0,0-.71-.2,1.14,1.14,0,0,0-.66.2,1.3,1.3,0,0,0-.45.53A1.71,1.71,0,0,0,38,22.79Zm3,2.7-.21-2,.23-.74-.23-.73.21-2h1.65l-.3,2.7.3,2.7Z"/><path class="cls-2" d="M43.3,20.09h1.57l.32,2.1v3.3H43.6V21.93ZM47,19.94a2.18,2.18,0,0,1,1.19.31,2,2,0,0,1,.75.87,3.3,3.3,0,0,1,.26,1.36v3H47.62V22.74a1.51,1.51,0,0,0-.3-1,1.06,1.06,0,0,0-.85-.34,1.15,1.15,0,0,0-1.12.7,1.84,1.84,0,0,0-.16.8l-.5-.29a3.75,3.75,0,0,1,.42-1.45,2.36,2.36,0,0,1,.82-.89A1.92,1.92,0,0,1,47,19.94Z"/><path class="cls-2" d="M55.85,23.24a2.49,2.49,0,0,1-.48,1.26,2.69,2.69,0,0,1-1,.84,3.3,3.3,0,0,1-1.43.3,3.25,3.25,0,0,1-1.55-.36,2.6,2.6,0,0,1-1.05-1,3.19,3.19,0,0,1,0-3,2.6,2.6,0,0,1,1.05-1,3.25,3.25,0,0,1,1.55-.36,3.3,3.3,0,0,1,1.43.3,2.69,2.69,0,0,1,1,.84,2.49,2.49,0,0,1,.48,1.25H54.27a1.23,1.23,0,0,0-.47-.79,1.46,1.46,0,0,0-.9-.28,1.44,1.44,0,0,0-.73.18,1.24,1.24,0,0,0-.48.53,1.84,1.84,0,0,0-.17.82,1.92,1.92,0,0,0,.17.83,1.27,1.27,0,0,0,.48.52,1.44,1.44,0,0,0,.73.18,1.46,1.46,0,0,0,.91-.29,1.35,1.35,0,0,0,.46-.79Z"/><path class="cls-2" d="M59.37,25.64a3.32,3.32,0,0,1-1.56-.36,2.67,2.67,0,0,1-1.08-1,2.85,2.85,0,0,1-.39-1.51,2.88,2.88,0,0,1,.38-1.48,2.65,2.65,0,0,1,1-1,3.08,3.08,0,0,1,1.5-.36,2.61,2.61,0,0,1,1.47.41,2.65,2.65,0,0,1,.94,1.18A4.28,4.28,0,0,1,62,23.31H57.61V22.2h3.52l-.57.4a1.79,1.79,0,0,0-.2-.75,1.14,1.14,0,0,0-.44-.48,1.19,1.19,0,0,0-.64-.16,1.34,1.34,0,0,0-.71.18,1.26,1.26,0,0,0-.47.5,1.6,1.6,0,0,0-.16.75,1.87,1.87,0,0,0,.21.92,1.54,1.54,0,0,0,.63.58,2.41,2.41,0,0,0,1,.19,3.79,3.79,0,0,0,1.09-.16,3.55,3.55,0,0,0,1-.47v1.15a3.66,3.66,0,0,1-1.13.58A4.37,4.37,0,0,1,59.37,25.64Z"/><path class="cls-2" d="M66.17,21.51h2.4a1,1,0,0,0,.71-.23.92.92,0,0,0,0-1.3,1,1,0,0,0-.71-.23H65.94l.72-.88v6.62H65.05V18.38h3.73a2.59,2.59,0,0,1,1.25.29,2.11,2.11,0,0,1,.84.78,2.28,2.28,0,0,1,.3,1.18,2.2,2.2,0,0,1-.3,1.16,2.07,2.07,0,0,1-.84.79,2.59,2.59,0,0,1-1.25.29H66.17Zm1,.65H69l2.35,3.33H69.51Z"/><path class="cls-2" d="M76.72,22.79a4.14,4.14,0,0,1-.48,1.5,2.76,2.76,0,0,1-.91,1,2.24,2.24,0,0,1-1.23.35,2.21,2.21,0,0,1-1.25-.36,2.32,2.32,0,0,1-.85-1,3.74,3.74,0,0,1,0-3,2.32,2.32,0,0,1,.85-1,2.21,2.21,0,0,1,1.25-.36,2.24,2.24,0,0,1,1.23.35,2.81,2.81,0,0,1,.91,1A4.26,4.26,0,0,1,76.72,22.79Zm-3.43,0a1.86,1.86,0,0,0,.16.77,1.3,1.3,0,0,0,.45.53,1.14,1.14,0,0,0,.66.2,1.45,1.45,0,0,0,.72-.2,2,2,0,0,0,.59-.53,2.22,2.22,0,0,0,.38-.77,2.22,2.22,0,0,0-.38-.77,2,2,0,0,0-.59-.53,1.45,1.45,0,0,0-.72-.2,1.14,1.14,0,0,0-.66.2,1.3,1.3,0,0,0-.45.53A1.86,1.86,0,0,0,73.29,22.79Zm3,2.7-.21-2,.23-.74-.23-.73.21-2H78l-.3,2.7.3,2.7Z"/><path class="cls-2" d="M78.64,20.09h1.58l.32,2.1v3.3H79V21.93Zm3.71-.15a2.13,2.13,0,0,1,1.19.31,1.89,1.89,0,0,1,.75.87,3.14,3.14,0,0,1,.26,1.36v3H83V22.74a1.51,1.51,0,0,0-.3-1,1.06,1.06,0,0,0-.85-.34,1.23,1.23,0,0,0-.68.18,1.34,1.34,0,0,0-.45.52,2,2,0,0,0-.15.8L80,22.59a3.93,3.93,0,0,1,.43-1.45,2.34,2.34,0,0,1,.81-.89A2,2,0,0,1,82.35,19.94Z"/><path class="cls-2" d="M87.64,25a2.38,2.38,0,0,1-1.22-.31,2.16,2.16,0,0,1-.84-.88,3,3,0,0,1,0-2.64,2.16,2.16,0,0,1,.84-.88,2.38,2.38,0,0,1,1.22-.31,2.58,2.58,0,0,1,.94.17,2.75,2.75,0,0,1,.76.46,3.24,3.24,0,0,1,.56.62,2.75,2.75,0,0,1,.35.68,1.77,1.77,0,0,1,.12.6,2.07,2.07,0,0,1-.18.78,3,3,0,0,1-.55.82,2.88,2.88,0,0,1-.85.64A2.52,2.52,0,0,1,87.64,25Zm2.15-.82v-.92l0-.22V21.75l0-.2V20.09h1.59v4A3.38,3.38,0,0,1,91,25.76a2.78,2.78,0,0,1-1.15,1.08,3.84,3.84,0,0,1-1.71.37,3.79,3.79,0,0,1-1.24-.2,4.44,4.44,0,0,1-1.12-.58V25.08a3.4,3.4,0,0,0,1.1.63,3.58,3.58,0,0,0,1.16.2,1.9,1.9,0,0,0,1.32-.43A1.76,1.76,0,0,0,89.79,24.14Zm-1.62-.4a1.55,1.55,0,0,0,1-.32,2.37,2.37,0,0,0,.72-1,2.37,2.37,0,0,0-.73-1,1.52,1.52,0,0,0-.94-.31,1.35,1.35,0,0,0-.69.16,1.17,1.17,0,0,0-.46.45,1.47,1.47,0,0,0-.15.69,1.48,1.48,0,0,0,.15.68,1.08,1.08,0,0,0,.45.45A1.51,1.51,0,0,0,88.17,23.74Z"/><path class="cls-2" d="M95.17,25.64a3.32,3.32,0,0,1-1.56-.36,2.67,2.67,0,0,1-1.08-1,2.85,2.85,0,0,1-.39-1.51,2.88,2.88,0,0,1,.38-1.48,2.65,2.65,0,0,1,1-1,3.08,3.08,0,0,1,1.5-.36,2.61,2.61,0,0,1,1.47.41,2.65,2.65,0,0,1,.94,1.18,4.45,4.45,0,0,1,.34,1.78H93.41V22.2h3.52l-.58.4a1.66,1.66,0,0,0-.19-.75,1.21,1.21,0,0,0-.44-.48,1.23,1.23,0,0,0-.65-.16,1.33,1.33,0,0,0-.7.18,1.26,1.26,0,0,0-.47.5,1.6,1.6,0,0,0-.17.75,1.87,1.87,0,0,0,.22.92,1.54,1.54,0,0,0,.63.58,2.41,2.41,0,0,0,1,.19,3.79,3.79,0,0,0,1.09-.16,3.55,3.55,0,0,0,1-.47v1.15a3.66,3.66,0,0,1-1.13.58A4.37,4.37,0,0,1,95.17,25.64Z"/><path class="cls-2" d="M104.07,23.76a1.71,1.71,0,0,1-.32,1,2,2,0,0,1-.94.63,4.34,4.34,0,0,1-1.49.22,4.67,4.67,0,0,1-1.57-.24,2.46,2.46,0,0,1-1-.7,1.67,1.67,0,0,1-.4-1h1.61a.89.89,0,0,0,.24.42,1.26,1.26,0,0,0,.5.27,2.65,2.65,0,0,0,.73.09,2.29,2.29,0,0,0,.85-.13.43.43,0,0,0,.29-.4.32.32,0,0,0-.21-.3,1.94,1.94,0,0,0-.74-.16l-.89-.07a4.16,4.16,0,0,1-1.33-.3,1.55,1.55,0,0,1-.71-.57,1.63,1.63,0,0,1-.2-.79,1.53,1.53,0,0,1,.33-1,2.08,2.08,0,0,1,.94-.59,4.18,4.18,0,0,1,1.4-.2,4.25,4.25,0,0,1,1.43.23,2.57,2.57,0,0,1,1,.66,1.57,1.57,0,0,1,.43,1h-1.61a.69.69,0,0,0-.18-.35,1.26,1.26,0,0,0-.43-.26,2.35,2.35,0,0,0-.72-.1,1.75,1.75,0,0,0-.77.13.39.39,0,0,0-.26.36.31.31,0,0,0,.16.28,1.51,1.51,0,0,0,.61.15l1.16.1a3.85,3.85,0,0,1,1.28.29,1.36,1.36,0,0,1,.66.55A1.62,1.62,0,0,1,104.07,23.76Z"/></g></g></svg>