<svg xmlns="http://www.w3.org/2000/svg" width="512.54" height="97.16"><defs><style>.cls-1{fill:#fff}</style></defs><g id="Layer_2" data-name="Layer 2"><g id="Layer_1-2" data-name="Layer 1"><path d="M22.8 6.43a.7.7 0 0 1-.16.68 1.46 1.46 0 0 0-.36.76A1 1 0 0 1 22 8a.6.6 0 0 0-.25.27c-.12.25-.27.4-.43.43a1.8 1.8 0 0 1-.36.62 3.5 3.5 0 0 0-.41.58c0 .16-.05.25-.16.26a.5.5 0 0 0-.27.12 1.93 1.93 0 0 1-.86 1.39 4 4 0 0 1-1.06-.24.47.47 0 0 1-.12-.38.77.77 0 0 0-.07-.43 4 4 0 0 0-.19-.34 2 2 0 0 1-.19-.33 2 2 0 0 0-.24-.29l-.24-.24a.87.87 0 0 0-.29-.36 1 1 0 0 1-.15-.06l-.2-.29-.19-.29-.21-.24-.22-.24a2 2 0 0 0-.34-.17.19.19 0 0 1-.14-.12 3.1 3.1 0 0 0-1.2-.28 8 8 0 0 1-.91 0 1 1 0 0 1-.29 0 1.2 1.2 0 0 0-.34 0 1 1 0 0 0-.24 0l-.28.1a.6.6 0 0 1-.29 0 .37.37 0 0 0-.24 0 1.3 1.3 0 0 0-.34.27.47.47 0 0 1-.38.17 2 2 0 0 1-.51.69A1.35 1.35 0 0 0 10 9a6 6 0 0 0-.14.62c-.07.26-.14.56-.24.91a2.6 2.6 0 0 0-.1 1 2.3 2.3 0 0 0 .2 1 4 4 0 0 1 .28.89.54.54 0 0 1 .27.24c0 .09.1.2.16.33a4 4 0 0 1 .27.29.57.57 0 0 0 .36.19.46.46 0 0 0 .1.34.4.4 0 0 1 .09.29 3.7 3.7 0 0 1 .87.72.88.88 0 0 0 .36.41c.11 0 .13.13.07.26a1.1 1.1 0 0 1 .48.24l.24.24a2.4 2.4 0 0 1 .77.6 1.6 1.6 0 0 0 .62.5.8.8 0 0 0 .19.39.66.66 0 0 1 .19.38c.16 0 .28 0 .34.1s.19.13.38.09a.68.68 0 0 0 .27.34l.36.19c.35.29.64.51.86.67a5.4 5.4 0 0 1 .63.53.7.7 0 0 0 .19.22 1.5 1.5 0 0 1 .19.17 12 12 0 0 1 1.06 1.08 7 7 0 0 0 .77.79 3.6 3.6 0 0 0 .67 1.34 1.4 1.4 0 0 0 .43.87 1.5 1.5 0 0 0 .1.79c.09.21.19.41.28.6a3.2 3.2 0 0 1 .17.57 1.3 1.3 0 0 1 0 .58.54.54 0 0 1 0 .36.42.42 0 0 0 0 .27 1.5 1.5 0 0 0 .08.47 4 4 0 0 1 .12.53 1.6 1.6 0 0 0 0 .65 1.2 1.2 0 0 1 0 .31 3 3 0 0 1-.15.58 1 1 0 0 0 0 .58.52.52 0 0 0-.14.62.63.63 0 0 1-.15.34 2 2 0 0 0-.19.24 1.6 1.6 0 0 1-.09.76 2.3 2.3 0 0 1-.27.48.65.65 0 0 1-.41.29c0 .23 0 .36-.07.41a.46.46 0 0 0-.17.17 1.53 1.53 0 0 1-.45.65 3.5 3.5 0 0 0-.51.5 5 5 0 0 1-.43.48l-.48.48-.31.34-.26.28a.6.6 0 0 1-.32.15 3 3 0 0 0-.45.14 9 9 0 0 1-.84.34 4.3 4.3 0 0 1-.7.14 1.7 1.7 0 0 0-.6.12.43.43 0 0 1-.21.08 1 1 0 0 1-.41-.08 2 2 0 0 0-.36-.12 1.33 1.33 0 0 1-.77.15c-.26 0-.56-.08-.91-.15a7 7 0 0 0-.65-.07A1.44 1.44 0 0 1 11 38l-.62.24a5.4 5.4 0 0 0-1-.19 6.6 6.6 0 0 1-1-.19 1.6 1.6 0 0 1-.39-.15l-.38-.19a1 1 0 0 0-.48-.07.77.77 0 0 1-.43-.07l-.29-.22a3 3 0 0 0-.22-.16 3.2 3.2 0 0 0-.55-.34.55.55 0 0 1-.31-.34.58.58 0 0 1-.67-.19.66.66 0 0 0-.58-.29.28.28 0 0 1-.08-.29.31.31 0 0 0-.07-.26c-.16-.07-.27-.07-.32 0s-.13.08-.26 0a1.6 1.6 0 0 0-.17-.28 3 3 0 0 1-.18-.25.8.8 0 0 0-.33-.19 1.07 1.07 0 0 1-.43-.34 1.4 1.4 0 0 0-.24-.31l-.15-.12a5 5 0 0 1-.43-.8 2.1 2.1 0 0 0-.42-.69v-.62a7.6 7.6 0 0 0-.65-1A2.1 2.1 0 0 1 0 29.38a.64.64 0 0 0 .22-.21A1 1 0 0 1 .38 29a.9.9 0 0 1 .32-.12.9.9 0 0 0 .3-.17 2.1 2.1 0 0 1 .53-.24.58.58 0 0 0 .39-.47.9.9 0 0 0 .43-.1c.13-.06.27-.13.43-.19a2.3 2.3 0 0 1 .44-.27.6.6 0 0 0 .19-.07 4 4 0 0 0 .26-.29 1.6 1.6 0 0 1 .27-.24q.28.11.36 0c0-.05.2 0 .45.12a2.05 2.05 0 0 1 .77 1.3 1.8 1.8 0 0 0 .26.71c.12.17.22.33.32.49a4.6 4.6 0 0 0 .62.72 5 5 0 0 0 .82.67 3.6 3.6 0 0 1 .52.38l.44.34a1.2 1.2 0 0 0 .36.05 2.4 2.4 0 0 1 .45 0l.34.1a1 1 0 0 0 .29.05 8.5 8.5 0 0 0 1.34.07 5.5 5.5 0 0 0 1.2-.22q.39-.09.75-.21a3 3 0 0 0 .64-.31 4.3 4.3 0 0 0 .6-.53 3 3 0 0 0 .46-.72 1 1 0 0 1 .17-.41.22.22 0 0 0 .07-.17 1.1 1.1 0 0 0 .05-.34 1.8 1.8 0 0 1 0-.43c0-.12.06-.26.09-.4a1.5 1.5 0 0 1 .1-.32 2.2 2.2 0 0 0-.1-.69 4.3 4.3 0 0 1-.14-.7 6 6 0 0 0-.43-.48 1.2 1.2 0 0 1-.34-.62l-.79-.68a1.53 1.53 0 0 1-.51-1 .6.6 0 0 0-.33-.12.9.9 0 0 1-.34-.12 1.12 1.12 0 0 0-.26-.77c-.18-.19-.36-.39-.55-.58a1.2 1.2 0 0 0-.17-.26 1.1 1.1 0 0 0-.22-.17c-.13-.22-.26-.35-.38-.38s-.4-.32-.63-.48a7 7 0 0 1-1.12-1.08 6.6 6.6 0 0 0-1.23-1.13 1.2 1.2 0 0 0-.19-.52 3 3 0 0 0-.43-.43 3.56 3.56 0 0 0-.91-1.73.5.5 0 0 0 0-.38 1.7 1.7 0 0 1-.19-.38 2.5 2.5 0 0 0-.24-.46l-.15-.17a5 5 0 0 1-.12-.79 2 2 0 0 0-.21-.79 1.5 1.5 0 0 1 .12-.34 1 1 0 0 0 .07-.38 3.4 3.4 0 0 1-.15-.72c0-.13 0-.2-.14-.2a.88.88 0 0 0 0-.64A2.5 2.5 0 0 1 5 9.94a6 6 0 0 1 0-.7q0-.36.09-.6a1.6 1.6 0 0 1 .1-.77q.15-.37.24-.57a3.8 3.8 0 0 1 .38-.87c.16-.25.32-.51.46-.76A2.2 2.2 0 0 0 6.62 5a1 1 0 0 0 .44-.44A1.4 1.4 0 0 1 7.39 4q.59-.48.72-.57a5 5 0 0 1 .6-.43l.55-.33a1.9 1.9 0 0 0 .58-.24.27.27 0 0 1 .19-.1 2 2 0 0 0 .48-.09.4.4 0 0 1 .15 0 2.2 2.2 0 0 1 .67-.1 5 5 0 0 0 .72 0 5 5 0 0 0 .53 0 2.4 2.4 0 0 1 .67.07 1.5 1.5 0 0 1 .34.12 1.3 1.3 0 0 0 .33.12 5.7 5.7 0 0 0 1.54 0l.31.22.31.22a1.9 1.9 0 0 1 1.11.47 3.3 3.3 0 0 1 1.15.41l.72.51.24.09a.35.35 0 0 0 .29 0 1.2 1.2 0 0 0 .36.46 3.4 3.4 0 0 1 .4.36 7 7 0 0 0 .94.33 2.6 2.6 0 0 1 .65.29.6.6 0 0 0 .29.12.55.55 0 0 1 .24.12.78.78 0 0 1 .33.38M36.77 38.5c0 .32-.17.45-.52.39-.07.06-.08.16 0 .31a.25.25 0 0 1-.2.31 1.45 1.45 0 0 1-.83.05 1.7 1.7 0 0 1-.7-.29 7.1 7.1 0 0 0-2.4-.07 9.6 9.6 0 0 1-2.45 0c-.22-.22-.33-.29-.31-.21s-.06.1-.22.07a.88.88 0 0 1-.33-.53 3 3 0 0 1-.05-.62v-.87a6 6 0 0 0 .05-.74v-.79c0-.55 0-1.19-.1-1.92a3.23 3.23 0 0 1 .29-1.86.75.75 0 0 1-.12-.72 5 5 0 0 0 .16-.86 2.4 2.4 0 0 0-.04-.55.58.58 0 0 1 .17-.56.57.57 0 0 1-.17-.57 7 7 0 0 0 .12-.72 1 1 0 0 0-.05-.36.28.28 0 0 1 .15-.31 3.2 3.2 0 0 0-.17-.72 1.67 1.67 0 0 1 0-.87 1 1 0 0 1 0-.26.9.9 0 0 0 0-.36 1.4 1.4 0 0 1-.08-.48 1.3 1.3 0 0 0 0-.24 2.6 2.6 0 0 0-.05-.48 3 3 0 0 1 0-.58 2.3 2.3 0 0 0 .1-.53 1.6 1.6 0 0 0-.07-.45 3.5 3.5 0 0 1-.12-.46 6 6 0 0 0 0-1.25c-.05-.32-.1-.67-.17-1s-.06-.49-.09-.79a5 5 0 0 1 0-.94 2.4 2.4 0 0 0 0-.79l-.12-.55a2.6 2.6 0 0 1 0-.49v-.48a1.4 1.4 0 0 1-.05-.6 1 1 0 0 0 .05-.26 2.7 2.7 0 0 0-.08-.57c0-.23-.08-.47-.12-.73a5.4 5.4 0 0 1-.09-1v-1.11a1.6 1.6 0 0 1 0-.36 1 1 0 0 0-.05-.31q.11-.28 0-.39a.26.26 0 0 1-.09-.19.75.75 0 0 0 0-.45.6.6 0 0 1 0-.22 1.4 1.4 0 0 0 0-.67 1 1 0 0 1-.07-.34 3 3 0 0 1 .05-.6 1 1 0 0 0-.1-.6.4.4 0 0 0 .19-.5 2 2 0 0 1-.09-.55 1.1 1.1 0 0 1 .14-.56.45.45 0 0 0 0-.5.43.43 0 0 0 .19-.29 1 1 0 0 1 .15-.34 1.57 1.57 0 0 1 .09-.93c.13-.37.24-.71.34-1 0-.16 0-.27-.07-.32a.9.9 0 0 1-.22-.16c.06-.26.13-.52.19-.77A.75.75 0 0 1 29 .48a15 15 0 0 0 1.78.17l1.63.07a1.8 1.8 0 0 0 .45-.22 1 1 0 0 1 .41-.16 1.4 1.4 0 0 1 .62.21 4.4 4.4 0 0 0 .63.31 1.4 1.4 0 0 1 .21.46 5 5 0 0 0 .17.5c0 .17-.06.25-.19.27a.37.37 0 0 0-.29.21v.63a1.5 1.5 0 0 0 0 .74 1.1 1.1 0 0 1 .1.36 1.6 1.6 0 0 1 0 .63 3 3 0 0 0-.07.62 1.2 1.2 0 0 0 0 .31c0 .12.06.24.1.36a.37.37 0 0 0 0 .29 1.5 1.5 0 0 0 .09.24 6 6 0 0 1-.07.94 5.4 5.4 0 0 0-.07.89 1.4 1.4 0 0 1 0 .67.34.34 0 0 0 0 .29c.09.35.17.58.21.69a.7.7 0 0 1 .07.27 4 4 0 0 0 0 .84c0 .2.07.39.1.55a10 10 0 0 1 .1 1.32 3.5 3.5 0 0 0 .24 1.27 1 1 0 0 0-.07.77 2.9 2.9 0 0 1 .12.86 4 4 0 0 1 0 .63 4 4 0 0 0-.05.67.43.43 0 0 1 0 .41A1.2 1.2 0 0 0 35 18a7.6 7.6 0 0 0 .09 1.16 6.3 6.3 0 0 1 .1 1.15v1.34a10 10 0 0 0 0 1.35 1.3 1.3 0 0 0 0 .55 1.2 1.2 0 0 1 0 .31 5 5 0 0 1-.12.67 2.5 2.5 0 0 0-.07.63 1.4 1.4 0 0 0 0 .5 3.3 3.3 0 0 1 0 .55 6 6 0 0 1 0 .58v.58c0 .44.07.88.12 1.29a11 11 0 0 1 .07 1.3 7 7 0 0 1-.07 1 3.2 3.2 0 0 0 0 1c0 .23.07.46.1.7s.06.49.1.74.06.25.09.36a1.4 1.4 0 0 1 0 .36 6 6 0 0 1-.14 1.63 2.87 2.87 0 0 0 .09 1.64.85.85 0 0 0 .6.28 1.12 1.12 0 0 1 .65.29ZM49.4 3.07a1.23 1.23 0 0 1 .05.68 2.8 2.8 0 0 1-.15.81.9.9 0 0 1-.14.27L49 5a2.9 2.9 0 0 1-.29.91 6 6 0 0 0-.29.58 2 2 0 0 0-.46.26 1.7 1.7 0 0 1-.45.27q-.58.2-1 .36a2 2 0 0 1-.77.17.74.74 0 0 1-.34-.08l-.28-.12a2.6 2.6 0 0 0-.48 0 2.6 2.6 0 0 1-.48 0 4.5 4.5 0 0 0-.56-.79 2.3 2.3 0 0 1-.45-.89 5 5 0 0 0-.43-.48 1.6 1.6 0 0 0-.15-.7 1.7 1.7 0 0 1-.14-.69 2.1 2.1 0 0 1 .2-.8 4 4 0 0 0 .07-.48 1.4 1.4 0 0 1 .07-.34 2.3 2.3 0 0 1 .48-.45.64.64 0 0 0 .24-.22 1.5 1.5 0 0 0 .2-.43.5.5 0 0 1 0-.2 2.2 2.2 0 0 1 .45-.38l.51-.31a.88.88 0 0 1 .62-.19 6 6 0 0 0 .91 0 1 1 0 0 0 .63.53 1.2 1.2 0 0 1 .67.53l.48.12a.34.34 0 0 1 .19.12 3.4 3.4 0 0 1 1.2 1.53Zm.14 8.31c-.06.32-.12.63-.16.93a4.4 4.4 0 0 0 0 1 1.4 1.4 0 0 0 .07.43 1.2 1.2 0 0 1 .08.43 3 3 0 0 1-.1.7 2.6 2.6 0 0 0-.1.74v.7a6 6 0 0 0 .05.69.56.56 0 0 0 0 .27v.26a3.3 3.3 0 0 0-.14 1.73 15 15 0 0 1 .14 1.87c0 .32-.08.64-.14 1a8 8 0 0 0-.15 1c-.06.74-.1 1.46-.12 2.18s0 1.44-.12 2.14a2.4 2.4 0 0 0 0 .6 2.4 2.4 0 0 1 0 .55c0 .45-.08.88-.12 1.3s-.11.82-.17 1.2a4 4 0 0 0 0 .84 8 8 0 0 1 0 .84 3 3 0 0 0 0 .43 3 3 0 0 1 0 .43c0 .13.07.25.1.36a1.6 1.6 0 0 1 0 .41 1 1 0 0 0 0 .31V35a.16.16 0 0 0 0 .14 1 1 0 0 0 0 .51.6.6 0 0 1 0 .21c0 .1-.07.2-.12.32a1 1 0 0 0-.07.4 3.7 3.7 0 0 0 .07.75 1.55 1.55 0 0 1 0 .74c-.22.1-.43.2-.62.31a1 1 0 0 1-.82 0 .48.48 0 0 1-.29-.39.85.85 0 0 0-.24-.48 3 3 0 0 1-.64-.14 2.4 2.4 0 0 1-.51-.24.75.75 0 0 1-.5 0l-.61-.13a3.2 3.2 0 0 0-.72-.09 1.14 1.14 0 0 1-.53-.1 1.4 1.4 0 0 1-.31-.69.62.62 0 0 0-.22-.46 2.8 2.8 0 0 0 .24-.77 1.9 1.9 0 0 0 0-.89 2.6 2.6 0 0 1 0-.88 2.7 2.7 0 0 1 .09-.53 5 5 0 0 0 0-.58 2.6 2.6 0 0 1 .05-.48 1.7 1.7 0 0 1 .09-.46.6.6 0 0 0 .1-.16c0-.55.06-1.11.07-1.68s0-1 .07-1.25a1.6 1.6 0 0 1 0-.36 3 3 0 0 0 0-.36c0-.64 0-1.19.07-1.66a9 9 0 0 0 0-1.46 3.8 3.8 0 0 1 0-1 5 5 0 0 0 .07-.87 3.2 3.2 0 0 0 0-.93 1.25 1.25 0 0 1 .17-.84 1.8 1.8 0 0 1-.12-1 6 6 0 0 0 .07-.91V18a6 6 0 0 1 0-.72 3 3 0 0 0 0-.51.86.86 0 0 1 0-.5c0-.35 0-.6.07-.75a2 2 0 0 0 0-.31.74.74 0 0 0-.07-.34.6.6 0 0 1-.07-.28 3 3 0 0 1 0-.34.6.6 0 0 0 0-.29c-.06-.38-.1-.65-.12-.79a.84.84 0 0 1 0-.36.33.33 0 0 0-.28-.29.44.44 0 0 1-.34-.24c-.06-.25-.13-.53-.19-.84a.6.6 0 0 1 .24-.69.94.94 0 0 1 .45-.08l.56.08c.19.06.32.08.38 0a.21.21 0 0 1 .19 0l.31.12a2.5 2.5 0 0 0 .36.12 5 5 0 0 0 1.11 0c.41 0 .82-.07 1.22-.12s.76-.08 1.08-.09a1 1 0 0 1 .67.12.29.29 0 0 1 .15.26.21.21 0 0 0 .32.22M86 24a9 9 0 0 1 0 1.28v1.22a1.4 1.4 0 0 0 0 .62.9.9 0 0 1 0 .25c0 .06-.07.16-.12.28s-.09.26-.12.39a7 7 0 0 0-.14.81c0 .29-.08.6-.14.92a1.8 1.8 0 0 1-.15.43c-.06.13-.13.25-.19.38a6.5 6.5 0 0 1-.31.89c-.12.24-.22.44-.31.6a1.4 1.4 0 0 0-.12.41q0 .17-.27.21a1 1 0 0 1-.24.75 1.08 1.08 0 0 0-.29.74 4 4 0 0 0-.33.46 1.4 1.4 0 0 0-.2.6 1 1 0 0 0-.38.26c-.1.11-.19.22-.29.31-.29.26-.58.52-.89.77a7 7 0 0 0-.84.87 1.08 1.08 0 0 0-.86.62 1.3 1.3 0 0 0-.86.39c-.29-.1-.44-.11-.46 0a.25.25 0 0 1-.12.17c-.32.09-.54.17-.67.21l-.39.17a5 5 0 0 1-.67.24 2.5 2.5 0 0 0-.43.15 1.5 1.5 0 0 1-.5.07 1.5 1.5 0 0 0-.27 0 3 3 0 0 0-.74 0l-.65.07-.77.15a3.4 3.4 0 0 1-1 0 2.8 2.8 0 0 1-.67-.17l-.43-.17a1.66 1.66 0 0 1-.75 0l-.69-.12A2.2 2.2 0 0 0 69 39a4 4 0 0 1-.48-.08l-.52-.08a2.2 2.2 0 0 1-.5-.15.7.7 0 0 0-.27 0 .6.6 0 0 1-.26 0 3.7 3.7 0 0 0-.84-.36.7.7 0 0 1-.46-.31 4.1 4.1 0 0 0-1.1-.22c-.35 0-.56-.14-.62-.36a.82.82 0 0 1-.77-.1 3.4 3.4 0 0 1-.63-.48 1.1 1.1 0 0 0-.16.7 6 6 0 0 0 .09.84c.05.29.08.58.1.86a1.66 1.66 0 0 1-.17.82 4 4 0 0 0 .24.65.61.61 0 0 1-.1.65 3.4 3.4 0 0 1 .27.88v.61c0 .2 0 .23-.17.21a.21.21 0 0 0-.26.17 4.5 4.5 0 0 1 .34 1.42 6 6 0 0 0 .19 1.27 1 1 0 0 0 .14.57 1.2 1.2 0 0 0 .31.58.83.83 0 0 1 .27.48v.41a.55.55 0 0 1-.1.36.87.87 0 0 1-.53.36.73.73 0 0 1-.72-.17 12 12 0 0 0-1.89.43 9.5 9.5 0 0 1-1.85.39 3 3 0 0 1-.53.33 1.44 1.44 0 0 1-.67.15.8.8 0 0 1-.22.33l-.21.19c-.23.07-.36.13-.39.2a.15.15 0 0 1-.14.09 1.1 1.1 0 0 1-.51-.12 3 3 0 0 0-.45-.21 2.4 2.4 0 0 0-.17-.51.4.4 0 0 1-.07-.21v-.44c0-.23 0-.43.07-.62s.06-.3.08-.43a.66.66 0 0 1 .12-.34 1.3 1.3 0 0 1-.15-.62 4.2 4.2 0 0 1 .07-1.15c.08-.42.16-.84.22-1.25V43.4c.06-.38.13-.77.19-1.15s.13-.75.19-1.11a.34.34 0 0 1 0-.31 1.2 1.2 0 0 0 0-.31 4 4 0 0 1 0-.6 5 5 0 0 0 0-.7c-.06-.16-.08-.27 0-.33a.5.5 0 0 0 0-.2.8.8 0 0 0-.1-.38.9.9 0 0 1-.09-.38v-.36c0-.17 0-.35.07-.51a2 2 0 0 0 .15-.33c0-.1.08-.23.14-.39a6 6 0 0 1-.09-1v-2.17c0-.16.07-.33.12-.52a3 3 0 0 0 .07-.58 1.4 1.4 0 0 0-.07-.43 1.2 1.2 0 0 1-.08-.43 1.7 1.7 0 0 1 .05-.39 1.7 1.7 0 0 0 0-.38v-.29a2 2 0 0 1 0-.29c.07-.38.12-.72.17-1a5 5 0 0 0 .07-.91 1.6 1.6 0 0 0 .05-.36v-.31c0-.39-.05-.75-.05-1.1V25a1.4 1.4 0 0 0 0-.67 1 1 0 0 1-.08-.38 1.8 1.8 0 0 0 0-.7.53.53 0 0 1 0-.31 3.8 3.8 0 0 1 .1-.77 2.7 2.7 0 0 0-.07-.6.59.59 0 0 1 .16-.55.4.4 0 0 1-.07-.26.5.5 0 0 0 0-.27 4 4 0 0 0 0-.74.9.9 0 0 0-.1-.31 1.7 1.7 0 0 1 0-.34 3 3 0 0 0 0-.29c0-.16-.07-.33-.12-.53a5 5 0 0 1-.12-.62 13 13 0 0 1 0-1.75 9 9 0 0 0 0-1.71 1.9 1.9 0 0 0 0-.72c0-.16-.06-.32-.1-.48a7 7 0 0 0-.19-1.22c-.09-.4-.17-.79-.24-1.18a1.7 1.7 0 0 1 .58-.45.63.63 0 0 1 .72.12 2.74 2.74 0 0 0 1.27.16 6.3 6.3 0 0 0 1.08-.21 1.14 1.14 0 0 0 .53-.1c.06 0 .1-.06.1-.09a5 5 0 0 0 .57-.1 1.16 1.16 0 0 1 .59-.09 1.52 1.52 0 0 1 1 .63 1.3 1.3 0 0 0 0 .53 1.2 1.2 0 0 1-.07.55.7.7 0 0 1-.05.29l-.09.29a.9.9 0 0 0 0 .4.7.7 0 0 1 0 .36 5 5 0 0 1-.2.44 1 1 0 0 0-.09.43 2.5 2.5 0 0 0 .43-.24 1 1 0 0 1 .48-.19 1.85 1.85 0 0 1 .75-.6 3.8 3.8 0 0 0 .84-.56c.28-.06.48 0 .57.1a.6.6 0 0 0 .29-.31.8.8 0 0 1 .29-.36 1 1 0 0 1 .36-.15 2 2 0 0 0 .41-.14 1.7 1.7 0 0 1 .4-.14.7.7 0 0 0 .36-.2.46.46 0 0 0 .44 0 3 3 0 0 1 .43-.22 3.6 3.6 0 0 1 .91-.19 1.3 1.3 0 0 1 .46-.09 2.5 2.5 0 0 0 .45-.05l.82-.19a4.3 4.3 0 0 1 1-.1 1.8 1.8 0 0 1 .5.07 5 5 0 0 0 .6.12c.38.07.75.11 1.08.15a1.55 1.55 0 0 1 .89.38 3 3 0 0 1 .65 0 .38.38 0 0 1 .26.12.6.6 0 0 0 .19.12.8.8 0 0 1 .2.07.4.4 0 0 0 .14 0l.36.36a.7.7 0 0 0 .22.16.6.6 0 0 0 .33.12.9.9 0 0 1 .34.12 3.6 3.6 0 0 1 .72.32 2.3 2.3 0 0 0 .91.26 1.4 1.4 0 0 0 .31.24 3 3 0 0 1 .36.24 1.6 1.6 0 0 0 .24.19 2 2 0 0 0 .34.19 6 6 0 0 1 .53.32.43.43 0 0 0 .24.07 4 4 0 0 0 .48.5l.24.22a1.6 1.6 0 0 0 .33.38l.15.1.24.41a1.3 1.3 0 0 0 .33.36 1.1 1.1 0 0 1 .31.33 4 4 0 0 1 .27.43l.38.39a5 5 0 0 1 .41.46 3 3 0 0 1 .36.55 4 4 0 0 0 .24.53 2 2 0 0 1 .15.24 3 3 0 0 1 .07.28.35.35 0 0 0 .12.24 1 1 0 0 0 .19.17.8.8 0 0 1 .19.27 2 2 0 0 0 .24.48.24.24 0 0 1 .1.19 4 4 0 0 0 .09.55 1 1 0 0 1 0 .22 3 3 0 0 1 .15.33l.09.29a1.3 1.3 0 0 1 0 .55.49.49 0 0 0 .17.51.94.94 0 0 0 0 .62 2 2 0 0 1 .1.65m-6.14-.62a2 2 0 0 1-.12-.43 1.6 1.6 0 0 0-.12-.34c-.07-.22-.14-.44-.22-.65a1.7 1.7 0 0 1-.12-.64 1.5 1.5 0 0 1-.48-.92 1.1 1.1 0 0 1-.43-.48 3 3 0 0 0-.37-.52l-.38-.48a1.6 1.6 0 0 1-.29-.53 3 3 0 0 1-.7-.48c-.2-.2-.37-.37-.5-.53a1.6 1.6 0 0 1-.34-.26 1.4 1.4 0 0 0-.19-.22c-.32-.16-.53-.26-.62-.29a.6.6 0 0 1-.24-.14 1.1 1.1 0 0 0-.58-.22.27.27 0 0 1-.29-.17 4.3 4.3 0 0 1-1.25 0 3.1 3.1 0 0 0-1.2.07l-.27-.15a.56.56 0 0 1-.24-.22 1.4 1.4 0 0 1-.27-.21.38.38 0 0 0-.36-.07 6 6 0 0 1-.69.26.8.8 0 0 0-.32.22 1.5 1.5 0 0 0-.28.26l-.1.12a3 3 0 0 0-.36.17l-.22.12a1.47 1.47 0 0 1-.84.46.94.94 0 0 0-.69.45q-.19-.09-.27 0c0 .08-.15.11-.31.11a.8.8 0 0 1-.29.39 4 4 0 0 1-.33.24 1 1 0 0 0-.27.24.23.23 0 0 1-.31.05.8.8 0 0 1-.21.45 1.3 1.3 0 0 1-.41.27.41.41 0 0 1-.19.36.49.49 0 0 0-.2.45 6 6 0 0 0-.5.63 3.5 3.5 0 0 0-.22.43 3 3 0 0 1-.4.74.84.84 0 0 0-.17.75c-.07.38-.13.72-.19 1a2.5 2.5 0 0 0 0 .91.9.9 0 0 0 .07.36.7.7 0 0 1 .07.31.9.9 0 0 1-.05.31.8.8 0 0 0 0 .27 2.8 2.8 0 0 0 .09.72 2.4 2.4 0 0 1 .1.72 1 1 0 0 1-.07.36.65.65 0 0 0 0 .4 7 7 0 0 1 .34.68 6 6 0 0 1 .24.72 1.8 1.8 0 0 1 .53.6 3.5 3.5 0 0 1 .28.74 1.6 1.6 0 0 1 .51.41 5 5 0 0 0 .41.46l1.1.21a2.7 2.7 0 0 1 .86.31 1.5 1.5 0 0 1 .36.29.6.6 0 0 0 .17.15 3.7 3.7 0 0 0 1.27.21 5.3 5.3 0 0 1 1 .07 3 3 0 0 0 .57.27.7.7 0 0 1 .24.07 1.3 1.3 0 0 0 .65 0 2.3 2.3 0 0 1 .5-.07.77.77 0 0 0 .49 0 .3.3 0 0 1 .19-.08.7.7 0 0 1 .36 0 .29.29 0 0 0 .26 0c.32-.12.55-.2.7-.24a1.2 1.2 0 0 0 .36-.14l1-.29a2.2 2.2 0 0 0 .79-.4 1.1 1.1 0 0 0 .62-.26.83.83 0 0 1 .68-.17c0-.16 0-.26.09-.31a.56.56 0 0 0 .24-.22.37.37 0 0 0 .27-.19.33.33 0 0 1 .26-.19 1.1 1.1 0 0 1 .31-.58 1.4 1.4 0 0 0 .36-.48 2 2 0 0 1 .36-.67 1.5 1.5 0 0 0 .31-.48 1.5 1.5 0 0 0 .08-.6 2.4 2.4 0 0 1 0-.6 4 4 0 0 1 .14-.58 1.8 1.8 0 0 0 .1-.62c.06-.42.11-.9.14-1.47a4.4 4.4 0 0 0-.02-1.2ZM97.6 37a8 8 0 0 1-.1.84 3.4 3.4 0 0 1-.09.46 1.1 1.1 0 0 1 0 .55c0 .11-.09.2-.12.27a1.5 1.5 0 0 1-.09.45l-.1.12a2 2 0 0 1-.36.48.33.33 0 0 1-.21.1c-.07.16-.07.26 0 .31s.08.15 0 .31a1.7 1.7 0 0 0-.38.58 1.25 1.25 0 0 1-.43.53 1.09 1.09 0 0 1-.53 1.05 1 1 0 0 1-.17.36l-.21.32a2.6 2.6 0 0 0-.17.38 2 2 0 0 1-.17.34 1.4 1.4 0 0 0-.34.43.7.7 0 0 1-.14.24 1.4 1.4 0 0 0-.55.38 1.4 1.4 0 0 1-.46.34 4 4 0 0 0-.82.21.7.7 0 0 1-.43.08.28.28 0 0 0-.26.12.32.32 0 0 1-.27.12 2.3 2.3 0 0 0-.52-.24 3.3 3.3 0 0 1-.53-.24 1 1 0 0 1 .07-.44.65.65 0 0 0 0-.43.73.73 0 0 0 .34-.41c.06-.17.13-.37.19-.57l.19-.58a.8.8 0 0 1 .34-.41 1 1 0 0 1 .12-.91 2.2 2.2 0 0 0 .36-.77 2.6 2.6 0 0 1 0-.62c0-.19 0-.38.07-.58a1.5 1.5 0 0 1 .09-.5A1.35 1.35 0 0 0 92 39a.74.74 0 0 0-.14-.43.5.5 0 0 1 0-.48 3.3 3.3 0 0 0-.72.05 1.6 1.6 0 0 0-.34.21.35.35 0 0 1-.33.08.7.7 0 0 1-.46-.32.94.94 0 0 0-.45-.36.9.9 0 0 0 .12-.5 4 4 0 0 0-.08-.51 2.4 2.4 0 0 1 0-.45.41.41 0 0 1 .19-.36 1.07 1.07 0 0 1-.24-.82.77.77 0 0 1 .43-.67 1.5 1.5 0 0 1 .34-.84 3.2 3.2 0 0 1 .62-.6 1.24 1.24 0 0 1 .79-.22 1 1 0 0 0 .84-.36.54.54 0 0 0 .48 0 1 1 0 0 1 .44-.12.74.74 0 0 1 .45.22.86.86 0 0 0 .5.21 4 4 0 0 1 .34.46.8.8 0 0 0 .38.31.74.74 0 0 1 .17.41 1.1 1.1 0 0 0 .17.45 2.4 2.4 0 0 1 .43-.12.6.6 0 0 1 .39.12.34.34 0 0 1 .29.15.9.9 0 0 0 .24.24 2.2 2.2 0 0 1 .81.72 1.3 1.3 0 0 0 0 .72 1.6 1.6 0 0 1-.06.81M147.77 37.45a1.63 1.63 0 0 1-.63.57 2.3 2.3 0 0 0-.5.31.35.35 0 0 1-.22.13.83.83 0 0 1-.76-.15 3.5 3.5 0 0 1-1.23.15 3 3 0 0 0-1.08.09.8.8 0 0 0-.38.17 1.6 1.6 0 0 1-.34.21 1.2 1.2 0 0 1-.5.08 4 4 0 0 0-.51 0 1 1 0 0 1-.31-.36 5 5 0 0 1-.22-.45 2.8 2.8 0 0 1-.57-.58.7.7 0 0 1-.17-.26.8.8 0 0 0-.17-.27 5 5 0 0 1-.53-.84 7 7 0 0 1-.28-.69c-.1-.13-.2-.26-.32-.39a4 4 0 0 1-.31-.43c-.09-.13-.21-.26-.33-.41a1.6 1.6 0 0 1-.29-.41.7.7 0 0 1-.1-.36.9.9 0 0 0-.09-.36 2.7 2.7 0 0 0-.36-.52 1.07 1.07 0 0 1-.27-.63 3.5 3.5 0 0 1-.36-.41 1 1 0 0 0-.5-.31 1.34 1.34 0 0 0-.31-.55 1.45 1.45 0 0 1-.36-.6 4 4 0 0 1-.29-.62.63.63 0 0 1-.12-.32.9.9 0 0 0-.12-.31 1.07 1.07 0 0 0-.41-.38.76.76 0 0 1-.36-.53c-.26 0-.43-.07-.5-.22a.61.61 0 0 0-.46-.26 3.7 3.7 0 0 0-.6-.87 4.2 4.2 0 0 1-.65-.91 4.5 4.5 0 0 1-1.2-.86 5.1 5.1 0 0 0-1.25-.91 1 1 0 0 0-.86-.53 1.07 1.07 0 0 0-.19.79 3 3 0 0 1 0 .89 7 7 0 0 1-.17 1 9 9 0 0 1-.26.89c-.07.16-.05.26 0 .31s.13.15.1.31-.07.21-.12.34a.56.56 0 0 0 0 .38 1 1 0 0 0 .12.46 1.1 1.1 0 0 1 .12.55 2.6 2.6 0 0 1-.08.87 8 8 0 0 0-.16.91 1.7 1.7 0 0 1 0 .48.6.6 0 0 0 0 .19v.67a5 5 0 0 1-.05.63 2 2 0 0 1 0 .79 3.4 3.4 0 0 0-.14.5c.06.23.08.35 0 .39a.2.2 0 0 0 0 .14 1 1 0 0 0 0 .29.25.25 0 0 1 0 .24 2.8 2.8 0 0 1-.16.81 1.54 1.54 0 0 0 0 .82c.07.22.11.38.15.46a.26.26 0 0 1 0 .21.94.94 0 0 1-.34.58.69.69 0 0 0-.29.53 2.6 2.6 0 0 0-1 .09 1.08 1.08 0 0 1-.89-.09l-.81.19a3.2 3.2 0 0 1-.92.05 1.6 1.6 0 0 0-.69-.1.26.26 0 0 1-.27-.05 11 11 0 0 0-.24-1.58 1.28 1.28 0 0 1 .24-1.11.9.9 0 0 0 0-.28.5.5 0 0 1 0-.34 2.2 2.2 0 0 0 0-.77 1.4 1.4 0 0 1-.07-.43 1.5 1.5 0 0 1 .12-.34.6.6 0 0 0 .07-.28.9.9 0 0 0 0-.51 1.7 1.7 0 0 1-.09-.55 2.6 2.6 0 0 1 .05-.53 3.4 3.4 0 0 0 0-.53 1.3 1.3 0 0 0-.12-.52.58.58 0 0 1 .08-.58 1.3 1.3 0 0 0 .07-.58v-.76a3 3 0 0 1 0-.44c0-.12 0-.27.07-.43s0-.38 0-.55a5 5 0 0 1 0-.5 1.1 1.1 0 0 1 .05-.27.38.38 0 0 0 0-.26 2 2 0 0 1-.07-.67v-.39a2 2 0 0 0 0-.5 2.5 2.5 0 0 1 0-.6 1.7 1.7 0 0 0-.05-.39 1 1 0 0 1 0-.43 1.8 1.8 0 0 0 0-.58l-.09-.28a1 1 0 0 1 0-.29 1.2 1.2 0 0 0 0-.34 5 5 0 0 0-.09-.86 4 4 0 0 1-.1-.87c.06-.64 0-1-.1-1.05a3 3 0 0 0 .15-.43c0-.13.06-.28.09-.44a5 5 0 0 0 0-.67 2.6 2.6 0 0 1 0-.86c0-.07.08-.15.12-.24a.7.7 0 0 0 .08-.29 1.6 1.6 0 0 0 0-.38 1.1 1.1 0 0 1 0-.44 7 7 0 0 1 0-.91c0-.32.08-.64.14-1a1.6 1.6 0 0 0 0-.62 1.6 1.6 0 0 1 0-.34 1.8 1.8 0 0 1 .1-.62 1.3 1.3 0 0 0 0-.68 1.6 1.6 0 0 0 0-.26V11a2.6 2.6 0 0 0 0-.69 2 2 0 0 1 0-.41c.06-.26.08-.4 0-.43a.23.23 0 0 1 0-.15c.06-.13.08-.21 0-.26a.56.56 0 0 1 0-.27c0-.25.06-.47.07-.64a4 4 0 0 0 0-.75c-.07-.22-.07-.35 0-.38s.06-.08 0-.15a.7.7 0 0 0-.1-.33l-.19-.39a1.6 1.6 0 0 0 0-.67 3.3 3.3 0 0 1 0-.77.8.8 0 0 1 0-.26 1 1 0 0 0 0-.27 2.6 2.6 0 0 1-.16-.55 1 1 0 0 0-.08-.26 2 2 0 0 0-.14-.39.65.65 0 0 1-.1-.33 1 1 0 0 1 .15-.53c.09-.16.19-.32.29-.48a1.2 1.2 0 0 1 .21-.17.4.4 0 0 1 .31 0l.22-.22a1.7 1.7 0 0 1 .26-.21.66.66 0 0 1 .6.07 2 2 0 0 0 .46.26 2.8 2.8 0 0 1 .82-.07 4.2 4.2 0 0 0 1-.07 1.7 1.7 0 0 1 .62-.07h.29a4.4 4.4 0 0 1 1-.14 4.5 4.5 0 0 1 .67 0 1.2 1.2 0 0 1 .45 0 .34.34 0 0 0 .17.05.6.6 0 0 1 .43 0l.39.12a7 7 0 0 0 .77 0 7 7 0 0 1 .77 0l.79.1a3.1 3.1 0 0 1 .79.19 1.5 1.5 0 0 1 .29.14.9.9 0 0 0 .29.15A1.3 1.3 0 0 0 135 2a1.2 1.2 0 0 1 .51.07 5 5 0 0 1 1 .32 5.3 5.3 0 0 0 1 .31 6 6 0 0 0 .53.17 1.4 1.4 0 0 1 .53.26 5.5 5.5 0 0 1 1.2.12 4.6 4.6 0 0 1 .91.31c.16.07.34.13.55.2a1.15 1.15 0 0 1 .5.28l.44.34a4 4 0 0 1 .38.34 2 2 0 0 1 .36.36.9.9 0 0 0 .17.21 1.5 1.5 0 0 1 .36.39.4.4 0 0 0 .17.19 1.7 1.7 0 0 1 .36.26.6.6 0 0 0 .26.17 1 1 0 0 0 .36.58 3.4 3.4 0 0 1 .5.43 2.6 2.6 0 0 1 .29.67.5.5 0 0 0 .24.34 7 7 0 0 1 .38 1.43 1.4 1.4 0 0 0 .43 1 1.4 1.4 0 0 0 .08.69c.08.21.16.43.26.65a.8.8 0 0 0 0 .46 2 2 0 0 1 0 .45 1.1 1.1 0 0 1-.12.48.35.35 0 0 0 .07.44q-.19.57-.36 1.17a4.2 4.2 0 0 1-.5 1.13.54.54 0 0 0-.15.22c0 .08-.12.11-.28.11 0 .2 0 .33-.1.41a.43.43 0 0 0-.15.36 3.6 3.6 0 0 0-.59.46 3 3 0 0 0-.46.6 3 3 0 0 1-.26.29l-.36.24a6 6 0 0 1-.58.33 3 3 0 0 0-.34.2 1 1 0 0 0-.41.24.43.43 0 0 1-.16.14 2.4 2.4 0 0 1-.32.17 2 2 0 0 0-.31.17 1.7 1.7 0 0 1-.41.28.6.6 0 0 0-.16.1 9 9 0 0 1-.94.36 3.8 3.8 0 0 0-1 .5.55.55 0 0 0-.48.05 2.3 2.3 0 0 1-.53.24 1.8 1.8 0 0 1-.65.07q-.27 0-.36.36a.36.36 0 0 0 .22.48 3.4 3.4 0 0 1 .6.39 1.7 1.7 0 0 0 .26.45.9.9 0 0 0 .46.32 1.6 1.6 0 0 1 .45.67.47.47 0 0 0 .46.33 3 3 0 0 0 .38.63c.23.19.35.32.36.38a1 1 0 0 0 .07.19 1.5 1.5 0 0 0 .34.44.16.16 0 0 1 .1.14l.4.62a2.6 2.6 0 0 1 .32.72l.28.29a2.5 2.5 0 0 0 .34.29.46.46 0 0 0 .07.29.46.46 0 0 1 .07.29c.2.22.4.45.63.67a2 2 0 0 1 .48.86 1.7 1.7 0 0 1 .24.22.5.5 0 0 0 .29.17 2.14 2.14 0 0 0 .45.84 7 7 0 0 1 .6.79 2 2 0 0 0 .43.48 3 3 0 0 1 .34.5 3.5 3.5 0 0 0 .34.51 5 5 0 0 1 .36.65.7.7 0 0 0 .36.36.67.67 0 0 0 .17.36.45.45 0 0 1 .07.4l.38.22a3.5 3.5 0 0 0 .43.22c.07.25.12.47.17.64a1 1 0 0 1-.01.52M141.09 12a2.6 2.6 0 0 1-.26-.67 1.2 1.2 0 0 0-.07-.29.56.56 0 0 0-.17-.24 1 1 0 0 1-.22-.24 1.7 1.7 0 0 0-.43-.62.9.9 0 0 1-.24-.27.4.4 0 0 0-.24-.21A2.1 2.1 0 0 1 139 9a.32.32 0 0 0-.36-.15.54.54 0 0 0-.41-.36.51.51 0 0 1-.41-.36 1.5 1.5 0 0 1-.62-.19l-.53-.33a.8.8 0 0 0-.26.14.45.45 0 0 1-.36 0 1.1 1.1 0 0 1-.41-.15 1.4 1.4 0 0 0-.41-.14 2.6 2.6 0 0 1-.77 0 1.4 1.4 0 0 0-.38-.08 2.4 2.4 0 0 0-.77-.19 2.9 2.9 0 0 0-.82 0l-.86.12a14 14 0 0 1-1.59-.1 6.5 6.5 0 0 0-1.53 0 .24.24 0 0 0 0 .31.5.5 0 0 1 .12.36 3 3 0 0 0 0 .75 2 2 0 0 1 0 .4 1 1 0 0 0 0 .48.5.5 0 0 1 0 .15v.81a6.4 6.4 0 0 0-.07 1.23 10 10 0 0 1 0 1.22v1.27c0 .36 0 .75-.07 1.13a1.7 1.7 0 0 1 0 .7 1 1 0 0 0-.07.36 3.1 3.1 0 0 0 .1 1.06 4.2 4.2 0 0 0 1 .14h.75a1.2 1.2 0 0 0 .4 0h.27c.32 0 .61.07.88.12a2.3 2.3 0 0 0 .89 0 3.5 3.5 0 0 0 .46 0c.14 0 .29 0 .46-.07a1.6 1.6 0 0 1 .55-.14h.26a4.4 4.4 0 0 1 .72-.22 1.1 1.1 0 0 0 .29-.07c.64-.26 1.1-.44 1.39-.53.45-.16.79-.27 1-.34s.46-.11.65-.14a.76.76 0 0 1 .58-.53.69.69 0 0 0 .53-.62.5.5 0 0 1 .31-.1c.11 0 .18-.06.21-.19.1-.29.2-.59.29-.91a2.8 2.8 0 0 1 .39-.82c0-.26 0-.42.07-.5a1.13 1.13 0 0 0 .22-.52M179.31 24.29a4.4 4.4 0 0 0 0 .91.8.8 0 0 1-.1.53.57.57 0 0 1-.36.29.63.63 0 0 0-.36.29 1.6 1.6 0 0 0-.62-.07 1.6 1.6 0 0 0-.58.12 1.2 1.2 0 0 0-.93-.24 1.44 1.44 0 0 1-1-.24 1.3 1.3 0 0 1-.53.14 4.2 4.2 0 0 1-1.41-.05c-.5-.09-1-.17-1.51-.24-.36 0-.72-.05-1.11-.05h-1a3.7 3.7 0 0 1-.76.1 2.5 2.5 0 0 1-.7-.19 1.6 1.6 0 0 0-.7-.15 1.5 1.5 0 0 0-.6 0 2.6 2.6 0 0 1-.6.07 3.8 3.8 0 0 1-.77-.1 1.7 1.7 0 0 1-.52 0h-.24a4.5 4.5 0 0 0-.65 0 .58.58 0 0 1-.55-.24 1.1 1.1 0 0 1-.34.19 1.7 1.7 0 0 1-.53 0l-.36-.07a.8.8 0 0 0-.21 0 1.1 1.1 0 0 1-.56 0 .42.42 0 0 0-.4.15.39.39 0 0 0-.34-.07.42.42 0 0 1-.34-.08 2.8 2.8 0 0 0-1 0 3 3 0 0 1-.81.1 2.7 2.7 0 0 1-.75-.1 2.15 2.15 0 0 0-.88 0 1.77 1.77 0 0 0-.17 1.08 2.1 2.1 0 0 0 .36 1 .58.58 0 0 1 0 .38 1 1 0 0 0-.07.39 5.2 5.2 0 0 0 .65.76 2.2 2.2 0 0 1 .41.48 3.6 3.6 0 0 0 .58.72 5.4 5.4 0 0 1 .62.77 1 1 0 0 0 .26.39 1.4 1.4 0 0 1 .32.38 1.7 1.7 0 0 1 .64.29c.18.13.39.27.65.43a3.8 3.8 0 0 1 .75.5 1.46 1.46 0 0 0 .55.36.8.8 0 0 0 .38.08.6.6 0 0 1 .29 0 2 2 0 0 1 .53.34 1.2 1.2 0 0 0 .62.28 4.3 4.3 0 0 1 .77 0l.43.07a1.8 1.8 0 0 0 1.15-.29h.39a2 2 0 0 0 .38 0 1.34 1.34 0 0 1 .65-.29.6.6 0 0 0 .36-.1.63.63 0 0 1 .27-.17.7.7 0 0 0 .21-.07 1.8 1.8 0 0 0 .5-.24c.15-.09.3-.21.46-.33a4.6 4.6 0 0 0 .62-.44 2.6 2.6 0 0 0 .84-.81 4.7 4.7 0 0 1 .8-.91 3.3 3.3 0 0 1 .19-1 3.4 3.4 0 0 1 .38-.73A2.4 2.4 0 0 1 173 28a3 3 0 0 1 .32-.59l.43-.1a.84.84 0 0 1 .48.05l.26.16a2 2 0 0 0 .36.17.63.63 0 0 0 .31.12l.51.12a1.4 1.4 0 0 0 .48.15 1 1 0 0 1 .29 0 1.15 1.15 0 0 0 .69.15 1 1 0 0 1 .55.05 2.3 2.3 0 0 1 .63.57 1.76 1.76 0 0 1-.34 1.06 1.6 1.6 0 0 0-.21.65 1.3 1.3 0 0 1 0 .36.7.7 0 0 1-.14.24.6.6 0 0 0-.15.29 4 4 0 0 0-.14.55 2.3 2.3 0 0 1-.19.55c-.26.32-.46.55-.6.7a1.6 1.6 0 0 1-.46.31.26.26 0 0 1-.09.36 1.7 1.7 0 0 0-.29.21 1.2 1.2 0 0 1-.41.53l-.6.43a5 5 0 0 1-.79.58c-.28.16-.54.32-.79.48s-.6.49-.72.6a1.4 1.4 0 0 1-.48.26 3 3 0 0 0-.37.17.4.4 0 0 1-.16.07 1.3 1.3 0 0 1-.53.1 1.7 1.7 0 0 0-.58.1 7 7 0 0 1-.91.26c-.26 0-.51.1-.77.17a4 4 0 0 1-.43.14 1.8 1.8 0 0 1-.58 0 1 1 0 0 0-.72 0 .38.38 0 0 1-.48 0l-.88.19a1.5 1.5 0 0 1-.65 0 .7.7 0 0 1-.29 0l-.29-.09c-.61-.1-1.09-.16-1.46-.19a4.6 4.6 0 0 1-1-.2.9.9 0 0 0-.28 0c-.1 0-.18-.07-.24-.2a1.24 1.24 0 0 1-.89-.12 2.5 2.5 0 0 1-.65-.45.8.8 0 0 1-.27-.05l-.26-.1a7 7 0 0 1-.67-.31 1.14 1.14 0 0 1-.53-.55.68.68 0 0 1-.55-.19 3 3 0 0 0-.41-.39 1.23 1.23 0 0 1-.7-.21 2 2 0 0 1-.5-.51 6 6 0 0 0-.72-.76c-.35-.36-.62-.65-.82-.89a1.54 1.54 0 0 0-.72-.51 1.3 1.3 0 0 0-.28-.48 4 4 0 0 1-.39-.43 8 8 0 0 0-.33-.62 1.3 1.3 0 0 0-.2-.24c-.06-.26-.12-.51-.16-.75s-.11-.48-.17-.74a3.2 3.2 0 0 1-.15-.77 2.6 2.6 0 0 0 0-.48l-.12-.29a1.7 1.7 0 0 1-.12-.28 1.6 1.6 0 0 1 0-.49 1.9 1.9 0 0 0 0-.52c0-.16-.07-.32-.1-.46a2 2 0 0 1 0-.46 6 6 0 0 1 0-.69 6 6 0 0 0 .05-.75v-.26a1.6 1.6 0 0 1 0-.26 2.4 2.4 0 0 1 .17-.51 2 2 0 0 0 .17-.5 1.3 1.3 0 0 1 0-.63.25.25 0 0 0 0-.28.7.7 0 0 0 .14-.27c0-.11.07-.2.1-.26a1.2 1.2 0 0 0 .05-.34 1.2 1.2 0 0 1 .09-.43 3 3 0 0 1 .32-.46l.12-.12a2.4 2.4 0 0 1 .09-.45.6.6 0 0 1 .15-.22 4.6 4.6 0 0 1 .31-.57 1 1 0 0 0 .12-.2 1.3 1.3 0 0 1 .09-.43.4.4 0 0 0 .1-.14 3 3 0 0 0 .12-.51 2.2 2.2 0 0 1 .12-.45 4 4 0 0 1 .24-.51 1.6 1.6 0 0 1 .38-.45c.16-.39.31-.71.44-1s.25-.53.38-.79a3.4 3.4 0 0 0 .74-.77 4 4 0 0 1 .75-.77.45.45 0 0 1 .21-.12 1 1 0 0 0 .32-.12c.35-.25.6-.45.77-.6a2.1 2.1 0 0 1 .57-.36 4 4 0 0 1 .89-.12 1 1 0 0 0 .84-.36 1.5 1.5 0 0 0 .58-.12c.19-.08.38-.16.57-.26l.43-.22a1.27 1.27 0 0 1 .68-.07 3.5 3.5 0 0 0 .64 0 5 5 0 0 0 .7-.12l.43-.1a3 3 0 0 1 .53-.05 8 8 0 0 0 1.13.1 8 8 0 0 1 .93.05 2 2 0 0 0 .51-.08 2.4 2.4 0 0 1 .55-.07 2.5 2.5 0 0 0 .46.05 2.5 2.5 0 0 1 .45 0 2.6 2.6 0 0 0 .41.09h.12a1.2 1.2 0 0 1 .41.17 2.2 2.2 0 0 0 .41.22.36.36 0 0 0 .26.09.36.36 0 0 1 .26.1 3 3 0 0 1 .58.24l.63.19a.61.61 0 0 1 .38.43 1.94 1.94 0 0 1 .79.39 2.7 2.7 0 0 0 .51.38 2.2 2.2 0 0 1 .38.41 1.5 1.5 0 0 0 .43.41.9.9 0 0 0 .12.24.7.7 0 0 1 .12.29 2.6 2.6 0 0 1 .67.6 1.9 1.9 0 0 0 .82.55 2.4 2.4 0 0 0 .34.57 1.5 1.5 0 0 1 .24.68l.21.31c.08.11.17.25.27.41a1.4 1.4 0 0 0 .16.24.8.8 0 0 1 .17.29 11 11 0 0 0 .53 1 3 3 0 0 0 .26.34 1.5 1.5 0 0 1 .27.43 1.7 1.7 0 0 1 0 .39 1.7 1.7 0 0 0 0 .38 3 3 0 0 1 .15.41 1.5 1.5 0 0 0 .09.26 1.9 1.9 0 0 1 .05.75 3 3 0 0 0 0 .74 6 6 0 0 1 .07.6 5 5 0 0 0 .08.6 3.5 3.5 0 0 0 0 .62Zm-6.87-3.84q.1-.09 0-.33a.53.53 0 0 0-.27-.34.6.6 0 0 0-.26-.41c-.11-.05-.12-.13 0-.26a1.1 1.1 0 0 0-.39-.24.32.32 0 0 1-.19-.39c-.16 0-.26 0-.31-.12a.42.42 0 0 0-.17-.21 1.1 1.1 0 0 1-.43-.48 1 1 0 0 0-.29-.39.31.31 0 0 0-.31 0c-.12 0-.17 0-.17-.22a1.68 1.68 0 0 1-1.18-.26 8 8 0 0 1-.79-.7 3 3 0 0 1-1 .05 5.7 5.7 0 0 0-1 0 1.12 1.12 0 0 0-.69-.21 2 2 0 0 1-.75-.13.23.23 0 0 1-.21-.21c0-.11-.11-.17-.27-.17a.74.74 0 0 1-.65 0 2.1 2.1 0 0 0-.69-.19 2.3 2.3 0 0 1-.82.31 5.4 5.4 0 0 0-.86.22 1.36 1.36 0 0 0-.53.45c-.19.24-.34.41-.43.51s-.45.51-.67.77-.44.51-.63.76a.66.66 0 0 1-.05.46.6.6 0 0 0-.05.41 1.24 1.24 0 0 0-.45.74c-.08.34-.15.67-.22 1a3.3 3.3 0 0 0 .77 0l.91-.1a1 1 0 0 1 .32 0h.31a6 6 0 0 1 1.25-.12 6 6 0 0 0 1 0 7 7 0 0 0 .93-.07 1.32 1.32 0 0 1 .84.12 2.54 2.54 0 0 1 1.23-.2l1.12.1a1.05 1.05 0 0 0 .44-.05.06.06 0 0 1 .09 0 15 15 0 0 1 2.76.07 9.2 9.2 0 0 0 2.76-.17M192.8 38.5c0 .32-.18.45-.53.39a.33.33 0 0 0-.05.31.25.25 0 0 1-.19.31 1.5 1.5 0 0 1-.84.05 1.8 1.8 0 0 1-.7-.29 7.1 7.1 0 0 0-2.4-.07 9.5 9.5 0 0 1-2.44 0c-.23-.22-.33-.29-.32-.21s-.05.1-.21.07a.9.9 0 0 1-.34-.53 4 4 0 0 1-.05-.62v-.87a6 6 0 0 0 .05-.74v-.79q0-.83-.09-1.92a3.16 3.16 0 0 1 .33-1.88.75.75 0 0 1-.12-.72 5 5 0 0 0 .17-.86 2.4 2.4 0 0 0-.07-.55.56.56 0 0 1 .17-.56.55.55 0 0 1-.17-.57c.05-.22.08-.46.12-.72a1.4 1.4 0 0 0-.05-.36.28.28 0 0 1 .14-.31 4 4 0 0 0-.16-.72 1.65 1.65 0 0 1 0-.87 1 1 0 0 1 0-.26 1.3 1.3 0 0 0 0-.36 1.3 1.3 0 0 1-.07-.48v-.24a2.6 2.6 0 0 0 0-.48 2.5 2.5 0 0 1-.05-.58 2.7 2.7 0 0 0 .09-.53 1.3 1.3 0 0 0-.07-.45 3.5 3.5 0 0 1-.12-.46 6.2 6.2 0 0 0 0-1.25c0-.32-.11-.67-.17-1s-.06-.49-.1-.79a5 5 0 0 1 0-.94 2.2 2.2 0 0 0 0-.79 5 5 0 0 1-.12-.55 2.6 2.6 0 0 1 0-.49v-.48a1.5 1.5 0 0 1-.05-.6.7.7 0 0 0 .05-.26 2.6 2.6 0 0 0-.07-.57c0-.23-.09-.47-.12-.73a4.7 4.7 0 0 1-.1-1v-1.09a1.6 1.6 0 0 1 0-.36 1 1 0 0 0-.05-.31q.09-.28 0-.39a.24.24 0 0 1-.1-.19.9.9 0 0 0 .05-.45.7.7 0 0 1-.05-.22 1.6 1.6 0 0 0 0-.67 1 1 0 0 1-.08-.34 4 4 0 0 1 0-.6 1 1 0 0 0-.09-.6.41.41 0 0 0 .19-.5 1.7 1.7 0 0 1-.1-.55 1.1 1.1 0 0 1 .15-.56.5.5 0 0 0 0-.5.5.5 0 0 0 .19-.29 1.2 1.2 0 0 1 .14-.34 1.67 1.67 0 0 1 .1-.93c.13-.37.24-.71.33-1 0-.16 0-.27-.07-.32a.8.8 0 0 1-.21-.16c.06-.26.12-.52.19-.77a.73.73 0 0 1 .43-.53 15 15 0 0 0 1.78.17l1.63.07a2 2 0 0 0 .41-.22 1 1 0 0 1 .4-.16 1.44 1.44 0 0 1 .63.21 4 4 0 0 0 .62.31 1.4 1.4 0 0 1 .22.46 3 3 0 0 0 .17.5c0 .17-.07.25-.2.27a.37.37 0 0 0-.28.21v.63a1.27 1.27 0 0 0 0 .74 1 1 0 0 1 .09.36 1.7 1.7 0 0 1 0 .63 2.5 2.5 0 0 0-.07.62 1.2 1.2 0 0 0 0 .31c0 .12.07.24.1.36a.5.5 0 0 0 0 .29 1 1 0 0 0 .1.24 6 6 0 0 1-.08.94 7 7 0 0 0-.07.89 1.4 1.4 0 0 1 0 .67.4.4 0 0 0 0 .29 7 7 0 0 0 .22.69.7.7 0 0 1 .07.27 4 4 0 0 0 0 .84c0 .2.06.39.1.55a10 10 0 0 1 .09 1.32 3.5 3.5 0 0 0 .24 1.27 1 1 0 0 0-.07.77 2.9 2.9 0 0 1 .12.86 4 4 0 0 1-.05.63 4 4 0 0 0 0 .67.4.4 0 0 1 0 .41 1.4 1.4 0 0 0-.34.42 6.5 6.5 0 0 0 .1 1.16 7.3 7.3 0 0 1 .09 1.15v1.34a7.6 7.6 0 0 0 0 1.35 1.14 1.14 0 0 0 0 .55 1.2 1.2 0 0 1 0 .31c0 .26-.08.48-.12.67a2.5 2.5 0 0 0-.08.63 1.4 1.4 0 0 0 0 .5 2.5 2.5 0 0 1 .05.55v.58a6 6 0 0 0 0 .58c0 .44.08.88.12 1.29a11 11 0 0 1 .08 1.3 7 7 0 0 1-.08 1 3.3 3.3 0 0 0 0 1l.09.7c0 .24.07.49.1.74a3 3 0 0 0 .1.36 1.4 1.4 0 0 1 .05.36 5.6 5.6 0 0 1-.15 1.63 2.8 2.8 0 0 0 .1 1.64.82.82 0 0 0 .6.28 1.15 1.15 0 0 1 .65.29ZM225.73 10.9a.9.9 0 0 1-.12.38 1 1 0 0 0-.12.43 2 2 0 0 1 0 .44.6.6 0 0 0 0 .19.6.6 0 0 1 0 .33.23.23 0 0 0 0 .2.73.73 0 0 1 0 .43.5.5 0 0 0-.07.24.4.4 0 0 0 0 .31 1.2 1.2 0 0 1 0 .31q-.09.39-.12.6a1 1 0 0 1-.07.32v.52a2.7 2.7 0 0 0 0 .63.8.8 0 0 0 .07.24.6.6 0 0 1 .08.28 5.2 5.2 0 0 1 0 1.11 5 5 0 0 0 0 1.1 1.5 1.5 0 0 0 .05.44 1 1 0 0 1 0 .43 2 2 0 0 1-.1.62 4 4 0 0 0-.14.67 2.4 2.4 0 0 1 0 .65.9.9 0 0 0 .09.6 2.1 2.1 0 0 1-.28.63 3.7 3.7 0 0 1 0 1.29 7 7 0 0 0-.12 1.3l.12.41a1.6 1.6 0 0 1 0 .45.6.6 0 0 1 0 .24 1 1 0 0 0 0 .29 1.2 1.2 0 0 1 0 .62c-.05.13-.09.23-.12.29v.84a1.36 1.36 0 0 1-.24.7 1.14 1.14 0 0 0-.05.74 1 1 0 0 1-.14.84 1.3 1.3 0 0 1 .07.53v.63a3.1 3.1 0 0 1 0 .93 2.4 2.4 0 0 0-.07.51 4.3 4.3 0 0 0 .05 1.08c.06.33.11.66.14 1a.77.77 0 0 0 .1.82 1.1 1.1 0 0 1 .29.72 3 3 0 0 0-.15.4 1 1 0 0 0 0 .22 2.3 2.3 0 0 0-.44.22 1.1 1.1 0 0 1-.38.16 1 1 0 0 1-.29 0 .9.9 0 0 0-.33-.05.9.9 0 0 0-.46 0 1.9 1.9 0 0 1-.5.07 2 2 0 0 1-.56 0 1.2 1.2 0 0 0-.55.07 1.8 1.8 0 0 0-.55.19 1.05 1.05 0 0 1-.5.15.85.85 0 0 1-.58.31.7.7 0 0 0-.34 0 1.76 1.76 0 0 1-.48-.77.72.72 0 0 1 .1-.81 2.57 2.57 0 0 1-.1-1.39 4 4 0 0 0 0-1.54 2.7 2.7 0 0 0-.69.38 6 6 0 0 0-.6.53.7.7 0 0 0-.24.27.67.67 0 0 1-.29.26c-.13.06-.27.13-.43.19a.8.8 0 0 0-.34.24 1.2 1.2 0 0 1-.5.1 1.4 1.4 0 0 0-.51.09c-.22.07-.45.12-.67.17l-.77.17-.77.24a2.1 2.1 0 0 1-1 0 .83.83 0 0 0-.51 0 .5.5 0 0 1-.26.08 1.26 1.26 0 0 1-.82-.1c-.06.13-.21.16-.45.1a3 3 0 0 1-.56-.2 1.06 1.06 0 0 1-.72.05 5 5 0 0 0-.72-.14c-.16 0-.25-.05-.26-.15a.26.26 0 0 0-.22-.19 8.2 8.2 0 0 1-2.25-.24.76.76 0 0 0-.27-.29.44.44 0 0 1-.21-.33c-.16 0-.27 0-.32-.1s-.15-.14-.31-.14a.77.77 0 0 0-.26-.36 1.2 1.2 0 0 1-.27-.27.6.6 0 0 1-.36-.09.53.53 0 0 0-.36-.1l-.33-.43-.1-.1a.77.77 0 0 0-.36-.19.22.22 0 0 1-.17 0l-.38-.38a3.4 3.4 0 0 1-.29-.34 2.1 2.1 0 0 0-.48-.5c-.13-.08-.17-.23-.14-.46a3.6 3.6 0 0 1-.55-.4 1.4 1.4 0 0 1-.22-.27 1.1 1.1 0 0 1-.24-.48.42.42 0 0 0-.24-.33l-.53-.85a.9.9 0 0 0-.53-.4c.07-.16.07-.26 0-.29s-.08-.11 0-.24a2.1 2.1 0 0 1-.58-.82 9 9 0 0 1-.34-1c-.09-.37-.17-.73-.24-1.1a6.6 6.6 0 0 0-.28-1.08v-1.42a3.4 3.4 0 0 1 .24-1.32 1.5 1.5 0 0 0 .15-.58 2.6 2.6 0 0 1 0-.48 4 4 0 0 0 .08-.45 4 4 0 0 1 .07-.46c.1-.51.18-.89.26-1.15a1.9 1.9 0 0 1 .36-.67 1 1 0 0 1 0-.6 2.7 2.7 0 0 1 .24-.48c.1-.15.2-.3.29-.46a1 1 0 0 0 .15-.53 1.2 1.2 0 0 0 .36-.45 2 2 0 0 1 .31-.51c.06-.12.14-.27.24-.43s.19-.32.29-.48a1.4 1.4 0 0 1 .26-.29.37.37 0 0 0 .12-.38 2 2 0 0 0 .24-.19 1 1 0 0 1 .34-.2 12 12 0 0 0 .62-1 4.3 4.3 0 0 1 .58-.84 2 2 0 0 1 .36-.31l.36-.26a.51.51 0 0 1 .36-.32.38.38 0 0 0 .31-.31q.48-.09 1-.21a2.4 2.4 0 0 0 .86-.41 6 6 0 0 1 .6-.07 1 1 0 0 0 .55-.22 1.12 1.12 0 0 0 .77-.07 4 4 0 0 0 .53-.36h2.98a6 6 0 0 0 .74-.05 2.4 2.4 0 0 1 .65 0h.43a.5.5 0 0 1 .34.14.83.83 0 0 1 .81 0 .5.5 0 0 0 .24 0 .67.67 0 0 1 .39.07 3 3 0 0 0 .65.14h.26l.48.24a2.3 2.3 0 0 1 .34.24 9 9 0 0 0 1 .55 5.6 5.6 0 0 1 .7.41 1.7 1.7 0 0 0 .33.34.6.6 0 0 1 .19.14l.2.22a2 2 0 0 0 .24.26.9.9 0 0 0 .29.34c.12.09.25.21.38.33a1.5 1.5 0 0 1 .17.24.54.54 0 0 0 .21.24 3 3 0 0 0 .32.27.51.51 0 0 1 .21.41 3.5 3.5 0 0 0 .1-1.42 6 6 0 0 0-.53-1.27 2.3 2.3 0 0 0-.29-.46q-.15-.16 0-.6a1.2 1.2 0 0 1 .22-.43 4 4 0 0 1 .26-.34s.11.06.34.08h.57l.41.07a2 2 0 0 0 .36 0h1.3a5.3 5.3 0 0 1 1.29.24.93.93 0 0 1 .63 0 3.3 3.3 0 0 0 .53.21.7.7 0 0 1 0 .32.7.7 0 0 0 0 .31Zm-7 11.52a1 1 0 0 1-.12-.41 4 4 0 0 1 0-.5.8.8 0 0 0-.22-.22 1.2 1.2 0 0 1-.22-.17 1.4 1.4 0 0 0-.12-.62 1.8 1.8 0 0 1-.16-.48.7.7 0 0 0 0-.55 1.2 1.2 0 0 1-.17-.36 1.4 1.4 0 0 1-.09-.51 3.6 3.6 0 0 0-.05-.55.57.57 0 0 1-.29-.29.7.7 0 0 0-.14-.24l-.58-.57-.38-.39a2.9 2.9 0 0 0-.91-.62c-.26-.16-.5-.3-.72-.41l-.63-.31a1.2 1.2 0 0 0-.57-.14 3 3 0 0 1-.68-.1 4 4 0 0 1-.38-.17 2 2 0 0 0-.29-.12h-.29a1 1 0 0 1-.38 0 .7.7 0 0 1-.31-.07.7.7 0 0 0-.27-.07 1.2 1.2 0 0 1-.72 0c-.16-.08-.27-.09-.33 0a1.2 1.2 0 0 0-.65.19 3 3 0 0 1-.51.34c-.28.13-.47.21-.55.26l-.21.12a6 6 0 0 0-.68.38l-.33.25a1.1 1.1 0 0 0-.39.21.15.15 0 0 1-.14.07 1.3 1.3 0 0 1-.19.24 1.6 1.6 0 0 0-.19.24l-.48.41a3 3 0 0 0-.29.27 2 2 0 0 1-.67.43 1.23 1.23 0 0 1-.34.79 1 1 0 0 0-.29.79 2.2 2.2 0 0 0-.29.46l-.19.45a3 3 0 0 0-.12.6 3.3 3.3 0 0 1-.12.7 4 4 0 0 1-.19.48 1.8 1.8 0 0 0-.14.43 2.2 2.2 0 0 1 0 1 3.3 3.3 0 0 0-.17.69 1.1 1.1 0 0 0 .08.39 1.4 1.4 0 0 1 .07.43 2.3 2.3 0 0 1-.05.55 1.1 1.1 0 0 0 0 .26 1.7 1.7 0 0 0 .22.63.9.9 0 0 1 .07.67c.22.16.43.32.62.48a3.3 3.3 0 0 0 .68.43 3.2 3.2 0 0 0 .81 1c.32.26.63.52.91.77a2.3 2.3 0 0 0 1 .67 3.3 3.3 0 0 0 .69.32l.51.12.35.11a2 2 0 0 1 .32.13 12 12 0 0 1 1.49.26 5 5 0 0 0 1.2.17.7.7 0 0 0 .33 0 1.6 1.6 0 0 0 .34-.07h.41a1.3 1.3 0 0 0 .36-.05 1.5 1.5 0 0 1 .48-.19.5.5 0 0 0 .19-.05l.33-.14a.32.32 0 0 1 .39.09 1.26 1.26 0 0 1 .41-.48l.5-.36a2.5 2.5 0 0 0 .46-.41 1.07 1.07 0 0 0 .26-.62 2.3 2.3 0 0 1 .43-.55 2.3 2.3 0 0 0 .34-.36 2 2 0 0 0 .17-.36.7.7 0 0 1 .16-.31 6 6 0 0 0 .36-.65 1.8 1.8 0 0 1 .36-.51.51.51 0 0 1 0-.45c.08-.15.15-.28.21-.41a7 7 0 0 0 .34-1.27 9.6 9.6 0 0 0 .1-1.42 3.8 3.8 0 0 0 .29-.75ZM254.92 35.48a1 1 0 0 1 0 .57 1 1 0 0 0 0 .58 1.12 1.12 0 0 1-.63.34 1.1 1.1 0 0 1-.82-.15 6.2 6.2 0 0 1-1.15.39 4.6 4.6 0 0 1-1.29.09.5.5 0 0 1-.32-.07s-.13-.07-.26-.07a1.6 1.6 0 0 0-.5.05l-.36.09h-.72a.76.76 0 0 1-.48-.26 1.2 1.2 0 0 0-.44-.32 5.6 5.6 0 0 0-.57-1c-.23-.3-.45-.58-.67-.84a2 2 0 0 1-.2-.22 2 2 0 0 0-.19-.21.55.55 0 0 1-.12-.24.7.7 0 0 0-.2-.21 4 4 0 0 1-.38-.41.6.6 0 0 0-.1-.12 12 12 0 0 0-.69-1.08 2.06 2.06 0 0 1-.41-.93l-.48-.72q-.24-.48-.51-1c-.17-.32-.34-.61-.5-.87a1.44 1.44 0 0 1-.26-.62 2.4 2.4 0 0 0-.08-.39 2 2 0 0 1-.24-.52 1.9 1.9 0 0 1-.38-.53 1.5 1.5 0 0 0-.38-.48c-.17.09-.33.2-.51.31a1.8 1.8 0 0 0-.46.41.42.42 0 0 0-.11.26.5.5 0 0 1-.12.26l-.22.2-.22.19a2.7 2.7 0 0 1-.31.5 2 2 0 0 0-.26.46 9.4 9.4 0 0 1-.82 1.05 4.7 4.7 0 0 0-.62.87c-.07.1-.12.18-.17.24a1.4 1.4 0 0 0-.17.29 2 2 0 0 0-.17.21.32.32 0 0 1-.26.17 1.12 1.12 0 0 1-.29.82 3.6 3.6 0 0 0-.53.67 2.8 2.8 0 0 1-.36.55l-.21.22c-.16.32-.28.54-.34.67a1.2 1.2 0 0 1-.19.29l-.27.45a.86.86 0 0 1-.26.32c0 .28-.05.45-.14.5s-.15.2-.15.46l-.53.24a.9.9 0 0 1-.67-.1 5 5 0 0 1-.86-.43 2.6 2.6 0 0 0-.53-.29 2 2 0 0 1-.94-.34.78.78 0 0 0-.69-.14.8.8 0 0 0-.39-.53.73.73 0 0 1-.38-.53c0-.22 0-.36.19-.4s.22-.19.19-.41a1.9 1.9 0 0 0 .82-.67 1.85 1.85 0 0 1 .82-.68c.09-.28.15-.47.19-.55s.08-.18.14-.31a2 2 0 0 0 .17-.31.8.8 0 0 1 .07-.17l.36-.74a4.5 4.5 0 0 1 .31-.56 3 3 0 0 1 .24-.45l.29-.46a5.7 5.7 0 0 1 .55-.86c.15-.16.28-.32.41-.48l.24-.31a1.7 1.7 0 0 0 .24-.37 5.7 5.7 0 0 0 .46-.81 2.1 2.1 0 0 1 .41-.63.72.72 0 0 0 .19-.4.38.38 0 0 1 .09-.27l.22-.19.22-.19a3.3 3.3 0 0 0 .4-.75.81.81 0 0 1 .51-.5c0-.32.09-.51.26-.58a.46.46 0 0 0 .31-.43.5.5 0 0 0-.07-.29c0-.06-.1-.14-.17-.24a3.5 3.5 0 0 0-.6-.64 3 3 0 0 1-.36-.36c-.16-.36-.28-.62-.38-.8a1.6 1.6 0 0 1-.19-.6.65.65 0 0 0-.29-.28 3 3 0 0 1-.38-.24c.06-.23 0-.38-.1-.46a.44.44 0 0 1-.19-.41c-.39-.51-.61-.81-.67-.91a2.4 2.4 0 0 0-.41-.58 4 4 0 0 0-.36-.24 3 3 0 0 1 0-.33.25.25 0 0 0-.07-.24 5 5 0 0 1-.7-.84 1.9 1.9 0 0 0-.55-.6v-.34l-.19-.19a3.7 3.7 0 0 0-.65-.87l-.55-.52a2.4 2.4 0 0 1-.17-.32 2 2 0 0 0-.16-.31 3 3 0 0 1-.27-.19.9.9 0 0 1-.26-.3 1.7 1.7 0 0 0 .08-.55.6.6 0 0 1 .12-.41 1.2 1.2 0 0 1 .43-.21.5.5 0 0 0 .33-.32 2.47 2.47 0 0 0 1.52 0 8 8 0 0 1 1.37-.33 1.8 1.8 0 0 1 .38-.15 4 4 0 0 0 .43-.14l.7-.24a1 1 0 0 1 .79.05 3.5 3.5 0 0 0 .36.5.8.8 0 0 1 .17.22 2.3 2.3 0 0 0 .19.6c.06.11.13.21.19.31a1.5 1.5 0 0 0 .27.5l.21.22a4.7 4.7 0 0 1 .48.7 5 5 0 0 0 .53.74 1.06 1.06 0 0 0 .38.38 1 1 0 0 0 .39.44 4 4 0 0 1 .17.4.49.49 0 0 0 .31.32 1.7 1.7 0 0 0 .26.55 3.3 3.3 0 0 1 .32.5 5 5 0 0 1 .26.53 1.7 1.7 0 0 0 .36.53 4 4 0 0 0 .24.72.57.57 0 0 0 .48.38 3.35 3.35 0 0 0 1.1-1.29.36.36 0 0 0 .31-.24 2 2 0 0 1 .17-.34 1.5 1.5 0 0 0 .17-.19.46.46 0 0 1 .17-.14.11.11 0 0 1 .1-.05 1 1 0 0 1 .24-.48 3 3 0 0 0 .23-.29 3.5 3.5 0 0 0 .44-.58 1 1 0 0 1 .19-.29 1 1 0 0 0 .17-.24 1 1 0 0 1 .17-.24q.38-.42.57-.6A1.6 1.6 0 0 0 246 12a3 3 0 0 1 .19-.33 1.3 1.3 0 0 1 .19-.24 1.2 1.2 0 0 0 .1-.46.72.72 0 0 1 .14-.41l.27-.19a2 2 0 0 1 .31-.19h.72l.29-.1a1 1 0 0 1 .29-.05 3 3 0 0 0 .91.05.58.58 0 0 1 .57.19.72.72 0 0 1 .7-.12 1.8 1.8 0 0 0 .79.07 1.86 1.86 0 0 0 1.16-.12 1.56 1.56 0 0 1 .76-.21.83.83 0 0 1 .44.12.77.77 0 0 0 .43.12 1.4 1.4 0 0 1 .09.5 2 2 0 0 1 0 .51 4 4 0 0 1-.67.69c-.25.21-.51.41-.77.6a.37.37 0 0 1-.23.31.73.73 0 0 0-.34.27 4 4 0 0 0-.36.33.5.5 0 0 1-.17.15 4.8 4.8 0 0 1-.84.89 11 11 0 0 0-.89.79c-.32.38-.51.56-.57.53a1.7 1.7 0 0 1-.27.43l-.31.38a3 3 0 0 1-.29.51.43.43 0 0 0-.09.26c-.16.16-.31.31-.44.46a1.4 1.4 0 0 0-.28.6 1 1 0 0 0-.63.5 2.7 2.7 0 0 1-.57.7c-.2.13-.3.23-.32.31s0 .12-.07.12a1.7 1.7 0 0 0-.53.38.74.74 0 0 0-.24.63.23.23 0 0 0 .1.26 1 1 0 0 1 .24.27 3 3 0 0 1 .41.67 1.7 1.7 0 0 0 .45.62 6 6 0 0 0 .46 1l.41.7c.16.13.25.23.26.31a1.4 1.4 0 0 0 .07.22 3.5 3.5 0 0 0 .34.38 2.2 2.2 0 0 1 .29.39.86.86 0 0 1 .21.38.7.7 0 0 0 .08.24c.16.19.28.36.38.5l.29.46c.16.19.23.33.21.41a.22.22 0 0 0 .08.21 3.2 3.2 0 0 0 .33.53l.19.19.24.34.29.39c.1.16.2.32.31.47a2.1 2.1 0 0 0 .41.44.55.55 0 0 0 .22.43 1.8 1.8 0 0 1 .31.34 4 4 0 0 0 .26.45l.12.12a4.3 4.3 0 0 0 .53 1 2.8 2.8 0 0 1 .43.82 2 2 0 0 0 .34.41 2.4 2.4 0 0 1 .38.4c0 .16 0 .27.05.32s.1.13.1.26a.47.47 0 0 0 .33.26.5.5 0 0 1 .33.31M266.06 37c0 .36-.07.64-.1.84a3.4 3.4 0 0 1-.09.46 1.1 1.1 0 0 1 0 .55l-.12.27a1.5 1.5 0 0 1-.09.45l-.1.12a2 2 0 0 1-.36.48.33.33 0 0 1-.22.1c-.06.16-.06.26 0 .31s.08.15.05.31a1.7 1.7 0 0 0-.38.58 1.25 1.25 0 0 1-.43.53 1.09 1.09 0 0 1-.53 1.05 1 1 0 0 1-.17.36l-.22.32a2.5 2.5 0 0 0-.16.38 2 2 0 0 1-.17.34 1.4 1.4 0 0 0-.34.43.7.7 0 0 1-.14.24 1.4 1.4 0 0 0-.55.38 1.4 1.4 0 0 1-.46.34 4 4 0 0 0-.82.21.7.7 0 0 1-.43.08.28.28 0 0 0-.26.12.32.32 0 0 1-.27.12 2.3 2.3 0 0 0-.52-.24 3.3 3.3 0 0 1-.53-.24 1 1 0 0 1 .07-.44.65.65 0 0 0 0-.43.73.73 0 0 0 .34-.41c.06-.17.13-.37.19-.57l.19-.58a.8.8 0 0 1 .34-.41 1 1 0 0 1 .12-.91 2.2 2.2 0 0 0 .36-.77 2.6 2.6 0 0 1 0-.62c0-.19 0-.38.07-.58a1.5 1.5 0 0 1 .09-.5 1.35 1.35 0 0 0 .05-.65.74.74 0 0 0-.14-.43.5.5 0 0 1-.05-.48 3.3 3.3 0 0 0-.72.05 1.6 1.6 0 0 0-.34.21.35.35 0 0 1-.33.08.7.7 0 0 1-.46-.32.94.94 0 0 0-.45-.36.9.9 0 0 0 .12-.5c0-.18-.05-.35-.08-.51a2.4 2.4 0 0 1 0-.45.41.41 0 0 1 .19-.36 1.07 1.07 0 0 1-.24-.82.77.77 0 0 1 .43-.67 1.5 1.5 0 0 1 .34-.84 3.2 3.2 0 0 1 .62-.6 1.24 1.24 0 0 1 .79-.22 1 1 0 0 0 .84-.36.54.54 0 0 0 .48 0 1 1 0 0 1 .43-.12.74.74 0 0 1 .46.22.86.86 0 0 0 .5.21c.13.16.24.31.34.46a.8.8 0 0 0 .38.31.74.74 0 0 1 .17.41 1.1 1.1 0 0 0 .17.45 2.2 2.2 0 0 1 .43-.12.6.6 0 0 1 .39.12.31.31 0 0 1 .28.15 1.4 1.4 0 0 0 .24.24 2.15 2.15 0 0 1 .82.72 1.27 1.27 0 0 0 0 .72 1.6 1.6 0 0 1-.02.79M318.72 10.9a.9.9 0 0 1-.12.38 1 1 0 0 0-.12.43 2 2 0 0 1 0 .44.6.6 0 0 0 0 .19.6.6 0 0 1 0 .33.23.23 0 0 0 0 .2.73.73 0 0 1 0 .43.5.5 0 0 0-.07.24.4.4 0 0 0 0 .31 1.2 1.2 0 0 1 0 .31 4.4 4.4 0 0 0-.11.6 1.2 1.2 0 0 1-.08.32v.52a2.7 2.7 0 0 0 0 .63.6.6 0 0 0 .08.24.7.7 0 0 1 .07.28 5.2 5.2 0 0 1 0 1.11 6 6 0 0 0 0 1.1 1.5 1.5 0 0 0 .05.44 1 1 0 0 1 0 .43 2 2 0 0 1-.1.62 4 4 0 0 0-.14.67 2.4 2.4 0 0 1 0 .65.9.9 0 0 0 .09.6 2.1 2.1 0 0 1-.27.63 3.7 3.7 0 0 1 0 1.29 7 7 0 0 0-.12 1.3c0 .16.06.31.1.46a2 2 0 0 1 0 .45.8.8 0 0 1 0 .24.7.7 0 0 0 0 .29 1.2 1.2 0 0 1 0 .62c-.05.13-.09.23-.12.29 0 .36-.05.64-.05.84a1.36 1.36 0 0 1-.24.7 1.14 1.14 0 0 0 0 .74 1 1 0 0 1-.14.84 1.3 1.3 0 0 1 .07.53v.63a3.1 3.1 0 0 1 0 .93 2.4 2.4 0 0 0-.07.51 4.3 4.3 0 0 0 .05 1.08c.06.33.11.66.14 1a.77.77 0 0 0 .1.82 1.1 1.1 0 0 1 .29.72c-.07.16-.11.29-.15.4a1 1 0 0 0 0 .22 2.6 2.6 0 0 0-.44.22 1.1 1.1 0 0 1-.38.16 1 1 0 0 1-.29 0 .9.9 0 0 0-.33-.05.9.9 0 0 0-.46 0 1.8 1.8 0 0 1-.5.07 2 2 0 0 1-.56 0 1.2 1.2 0 0 0-.55.07 1.9 1.9 0 0 0-.55.19 1 1 0 0 1-.5.15.85.85 0 0 1-.58.31.7.7 0 0 0-.34 0 1.76 1.76 0 0 1-.48-.77.73.73 0 0 1 .1-.81 2.57 2.57 0 0 1-.1-1.39 4 4 0 0 0 0-1.54 3 3 0 0 0-.69.38 6 6 0 0 0-.6.53.7.7 0 0 0-.24.27.67.67 0 0 1-.29.26c-.13.06-.27.13-.43.19a.85.85 0 0 0-.34.24 1.2 1.2 0 0 1-.5.1 1.4 1.4 0 0 0-.51.09c-.22.07-.44.12-.67.17l-.77.17-.76.24a2.15 2.15 0 0 1-1 0 .83.83 0 0 0-.51 0 .5.5 0 0 1-.26.08 1.26 1.26 0 0 1-.82-.1c-.06.13-.21.16-.45.1a3 3 0 0 1-.56-.2 1.06 1.06 0 0 1-.72.05 5 5 0 0 0-.72-.14c-.16 0-.24-.05-.26-.15a.26.26 0 0 0-.22-.19 8.2 8.2 0 0 1-2.25-.24.7.7 0 0 0-.27-.29.44.44 0 0 1-.21-.33c-.16 0-.27 0-.31-.1a.34.34 0 0 0-.32-.14.77.77 0 0 0-.26-.36 1 1 0 0 1-.26-.27.56.56 0 0 1-.36-.09.55.55 0 0 0-.36-.1l-.34-.43-.1-.1a.77.77 0 0 0-.36-.19h-.16l-.39-.38a3.4 3.4 0 0 1-.29-.34 2.1 2.1 0 0 0-.48-.5.44.44 0 0 1-.14-.46 4 4 0 0 1-.55-.4 1.4 1.4 0 0 1-.22-.27 1.1 1.1 0 0 1-.24-.48.42.42 0 0 0-.24-.33l-.53-.85a.9.9 0 0 0-.53-.4c.07-.16.07-.26 0-.29s-.08-.11 0-.24a2.1 2.1 0 0 1-.58-.82 9 9 0 0 1-.34-1c-.09-.37-.17-.73-.24-1.1a6.6 6.6 0 0 0-.28-1.08V23.6a3.4 3.4 0 0 1 .24-1.32 1.5 1.5 0 0 0 .15-.58 2 2 0 0 1 0-.48c0-.16.05-.31.07-.45a4 4 0 0 1 .07-.46c.1-.51.18-.89.26-1.15a1.9 1.9 0 0 1 .36-.67 1 1 0 0 1 0-.6 2.7 2.7 0 0 1 .24-.48c.1-.15.2-.3.29-.46a1 1 0 0 0 .15-.53 1.2 1.2 0 0 0 .36-.45 2.3 2.3 0 0 1 .31-.51c.06-.12.14-.27.24-.43l.29-.48a1.4 1.4 0 0 1 .26-.29.37.37 0 0 0 .12-.38 2 2 0 0 0 .24-.19 1.1 1.1 0 0 1 .34-.2 12 12 0 0 0 .62-1 4.3 4.3 0 0 1 .58-.84 2 2 0 0 1 .36-.31l.36-.26a.51.51 0 0 1 .36-.32.38.38 0 0 0 .31-.31q.48-.09 1-.21a2.4 2.4 0 0 0 .86-.41c.2 0 .4-.06.6-.07a1 1 0 0 0 .56-.22 1.1 1.1 0 0 0 .76-.07 3.5 3.5 0 0 0 .53-.36h2.98a6 6 0 0 0 .74-.05 2.4 2.4 0 0 1 .65 0h.43a.5.5 0 0 1 .34.14.83.83 0 0 1 .81 0 .5.5 0 0 0 .25 0 .65.65 0 0 1 .38.07 3 3 0 0 0 .65.14h.26l.48.24a2 2 0 0 1 .34.24 9 9 0 0 0 1 .55 5.6 5.6 0 0 1 .7.41 1.7 1.7 0 0 0 .33.34.8.8 0 0 1 .2.14l.19.22a2 2 0 0 0 .24.26.9.9 0 0 0 .29.34c.12.09.25.21.38.33a1.5 1.5 0 0 1 .17.24.6.6 0 0 0 .21.24 3 3 0 0 0 .32.27.51.51 0 0 1 .21.41 3.5 3.5 0 0 0 .1-1.42 6 6 0 0 0-.51-1.32 2.3 2.3 0 0 0-.29-.46q-.14-.16 0-.6a1.4 1.4 0 0 1 .22-.43 4 4 0 0 1 .26-.34s.11.06.34.08h.57l.41.07a2 2 0 0 0 .36 0h1.3a5.3 5.3 0 0 1 1.29.24.93.93 0 0 1 .63 0 3.3 3.3 0 0 0 .53.21.7.7 0 0 1 0 .32.7.7 0 0 0 0 .31Zm-7 11.52a1 1 0 0 1-.12-.41 4 4 0 0 1 0-.5.8.8 0 0 0-.22-.22.9.9 0 0 1-.21-.17 1.4 1.4 0 0 0-.12-.62 1.8 1.8 0 0 1-.17-.48.7.7 0 0 0 0-.55 1 1 0 0 1-.16-.36 1.25 1.25 0 0 1-.1-.51 3.6 3.6 0 0 0-.05-.55.57.57 0 0 1-.29-.29.7.7 0 0 0-.14-.24l-.58-.57-.38-.39a2.9 2.9 0 0 0-.91-.62c-.26-.16-.5-.3-.72-.41l-.63-.31a1.2 1.2 0 0 0-.57-.14 3 3 0 0 1-.67-.1 3 3 0 0 1-.39-.17 2 2 0 0 0-.29-.12h-.28a1 1 0 0 1-.39 0 .7.7 0 0 1-.31-.07.7.7 0 0 0-.27-.07 1.2 1.2 0 0 1-.72 0c-.16-.08-.27-.09-.33 0a1.2 1.2 0 0 0-.65.19 3.2 3.2 0 0 1-.5.34c-.29.13-.48.21-.56.26l-.21.12a5 5 0 0 0-.67.38l-.34.25a1 1 0 0 0-.38.21.17.17 0 0 1-.15.07 1.3 1.3 0 0 1-.19.24 3 3 0 0 0-.19.24l-.48.41a3 3 0 0 0-.29.27 2 2 0 0 1-.67.43 1.18 1.18 0 0 1-.34.79 1 1 0 0 0-.29.79 2 2 0 0 0-.28.46c-.07.14-.13.29-.2.45a3 3 0 0 0-.12.6 3.3 3.3 0 0 1-.12.7 3 3 0 0 1-.19.48 1.8 1.8 0 0 0-.14.43 2.2 2.2 0 0 1 0 1 2.8 2.8 0 0 0-.16.69 1.1 1.1 0 0 0 .07.39 1.1 1.1 0 0 1 .07.43 2.3 2.3 0 0 1-.05.55 1.1 1.1 0 0 0-.05.26 1.9 1.9 0 0 0 .22.63.84.84 0 0 1 .07.67l.63.48a3 3 0 0 0 .67.43 3.2 3.2 0 0 0 .81 1l.92.77a2.2 2.2 0 0 0 1 .67 3.5 3.5 0 0 0 .69.32l.51.12.36.11a2 2 0 0 1 .31.13 12 12 0 0 1 1.49.26 5 5 0 0 0 1.2.17.7.7 0 0 0 .33 0 1.6 1.6 0 0 0 .34-.07h.41a1.3 1.3 0 0 0 .36-.05 1.5 1.5 0 0 1 .48-.19.5.5 0 0 0 .19-.05l.34-.14c.12-.07.25 0 .38.09a1.26 1.26 0 0 1 .41-.48l.5-.36a2.5 2.5 0 0 0 .46-.41 1.07 1.07 0 0 0 .26-.62 2.6 2.6 0 0 1 .43-.55 2.3 2.3 0 0 0 .34-.36 2 2 0 0 0 .17-.36.7.7 0 0 1 .17-.31 6 6 0 0 0 .36-.65 1.5 1.5 0 0 1 .36-.51.48.48 0 0 1 0-.45l.22-.41a7 7 0 0 0 .33-1.27 8.4 8.4 0 0 0 .1-1.42 3.3 3.3 0 0 0 .32-.75ZM350.94 38c0 .16 0 .26-.12.29a.42.42 0 0 0-.27.24.5.5 0 0 0-.12.27c0 .11-.09.16-.21.16a1.3 1.3 0 0 0-.44 0 .21.21 0 0 1-.19 0 .57.57 0 0 1-.29-.09.9.9 0 0 0-.38-.15 3.3 3.3 0 0 0-.94 0 4.6 4.6 0 0 1-.88.1 1.3 1.3 0 0 1-.32 0 1.2 1.2 0 0 0-.31-.05h-.91a3.2 3.2 0 0 1-.91-.07 1.4 1.4 0 0 1-.36-.14.56.56 0 0 0-.41-.05.46.46 0 0 0-.22-.34.44.44 0 0 1-.21-.33 1.53 1.53 0 0 1 .09-.91 1.57 1.57 0 0 0 .1-.92 2.9 2.9 0 0 0 .34-1 1.5 1.5 0 0 1 0-.46 3 3 0 0 0 0-.31 1.7 1.7 0 0 0 0-.72 4.6 4.6 0 0 1 0-.91c0-.32.05-.65.05-1v-1.12a7 7 0 0 0-.09-.75c0-.14-.07-.28-.1-.41a1.4 1.4 0 0 0 .05-.55.4.4 0 0 1-.05-.21 2 2 0 0 0 0-.68 2.4 2.4 0 0 1-.12-.38.7.7 0 0 1 0-.26.6.6 0 0 0 .05-.27 4 4 0 0 0-.05-.79q0-.27-.09-.51a1.5 1.5 0 0 1 .05-.4c0-.15 0-.25-.2-.32a.93.93 0 0 0 .1-.52 6 6 0 0 1-.1-.77v-.39a2.6 2.6 0 0 1-.09-.4v-.12c0-.13-.07-.28-.12-.46s-.11-.34-.17-.5a1 1 0 0 0 0-.56c0-.17-.1-.36-.16-.55a1.3 1.3 0 0 0-.17-.45.7.7 0 0 1-.12-.17q-.28-.72-.51-1.32a6.4 6.4 0 0 1-.31-1.37 6 6 0 0 0-.5-.53 1.5 1.5 0 0 1-.41-.62c-.35-.19-.65-.36-.89-.51a2 2 0 0 0-1.18-.12 1.2 1.2 0 0 0-.33.07 3 3 0 0 1-.39.12 5 5 0 0 1-.69.22 2.4 2.4 0 0 0-.65.27.8.8 0 0 1-.41.23.26.26 0 0 0-.17 0 .9.9 0 0 0-.24.27.9.9 0 0 1-.19.26 4 4 0 0 0-.31.41.9.9 0 0 1-.17.21 3 3 0 0 1-.29.37 1.3 1.3 0 0 1-.38.31.34.34 0 0 1-.14.29.7.7 0 0 0-.24.24c-.07.19-.13.3-.2.33a.6.6 0 0 0-.14.1 2.1 2.1 0 0 0-.24.57.7.7 0 0 1-.38.48 1.8 1.8 0 0 1-.2.68 2.3 2.3 0 0 1-.38.48 1.23 1.23 0 0 1-.24 1 2.4 2.4 0 0 0-.48.72c-.07.35-.12.63-.17.84a3.3 3.3 0 0 1-.17.55 3 3 0 0 0-.14.5 1.1 1.1 0 0 1-.19.46 2.56 2.56 0 0 1-.15 1.29 5.8 5.8 0 0 0-.33 1.35.75.75 0 0 0 0 .34.7.7 0 0 1 0 .33c0 .29-.07.63-.1 1s-.06.78-.09 1.13a1 1 0 0 0 0 .24 1.4 1.4 0 0 1 0 .29 2.8 2.8 0 0 1-.08.65 3.4 3.4 0 0 0-.07.65.9.9 0 0 0 .05.5 1 1 0 0 1 .05.5 4.4 4.4 0 0 0 0 .68 2.5 2.5 0 0 0 .08.43c0 .13 0 .25.07.36a.33.33 0 0 0 .17.26 1.63 1.63 0 0 0 0 .82 2.2 2.2 0 0 0 .28.69.67.67 0 0 1-.09.75 1.06 1.06 0 0 1-1.11.41 7 7 0 0 0-1.53-.08 4.5 4.5 0 0 0-.68 0 4 4 0 0 1-.57.05l-.67.1a1.5 1.5 0 0 1-.63 0 .8.8 0 0 1-.29-.07 1.5 1.5 0 0 1-.24-.17 2 2 0 0 1-.48-.24.9.9 0 0 1-.12-.51 1.7 1.7 0 0 0 0-.5.7.7 0 0 0-.07-.31.9.9 0 0 1-.07-.36 7 7 0 0 1 0-.77c0-.26.07-.51.1-.77a5 5 0 0 1 .05-.69 4 4 0 0 0 .05-.6 5 5 0 0 0 0-.53.68.68 0 0 1 .22-.53c-.1-.26-.12-.42-.07-.5a.6.6 0 0 0 .07-.17 2.5 2.5 0 0 0-.07-.6v-1.62l-.09-1c0-.32-.07-.69-.1-1.1a1.4 1.4 0 0 0-.05-.39.8.8 0 0 1 0-.24.9.9 0 0 0 0-.55.8.8 0 0 1-.07-.31 5 5 0 0 1 .09-.87c0-.09.07-.18.1-.26l.09-.26a1 1 0 0 1 0-.53.9.9 0 0 0 0-.24q0-.39-.12-.87a1.8 1.8 0 0 1 .17-1c-.06-.16-.13-.34-.19-.53a.41.41 0 0 1 .14-.48c-.06-.16-.12-.31-.19-.46a1.4 1.4 0 0 1-.09-.55 5.5 5.5 0 0 0 0-1.34 1.45 1.45 0 0 1 .17-1 1.33 1.33 0 0 1-.15-.94 4.3 4.3 0 0 0 0-1.13l-.09-.28a.8.8 0 0 1-.05-.29 2 2 0 0 1-.05-.77 3 3 0 0 0 0-.72 5 5 0 0 1-.29-1.27 3.6 3.6 0 0 0-.19-1 .56.56 0 0 0 .22-.24 3 3 0 0 1 .16-.29 2.1 2.1 0 0 1 .8 0 .7.7 0 0 1 .6.33.59.59 0 0 1 .5-.14l.55.09h1.2000000000000002a7 7 0 0 1 .87-.05h.77l.23.24a1 1 0 0 1 .2.29 3.1 3.1 0 0 1 .31 1.22c.05.53.1 1 .17 1.47.16 0 .24 0 .26-.15a.55.55 0 0 1 .12-.29l.48-.29a2.3 2.3 0 0 0 .48-.38 1 1 0 0 0 .31-.12.47.47 0 0 1 .36 0 .8.8 0 0 0 .24-.27 1.2 1.2 0 0 1 .2-.26 1.2 1.2 0 0 0 .57-.39 1.7 1.7 0 0 1 .29-.09.22.22 0 0 0 .19-.24.85.85 0 0 0 .51-.17 3.6 3.6 0 0 1 .45-.31 4 4 0 0 0 .63-.36 1 1 0 0 1 .24-.17.43.43 0 0 1 .26 0 1.6 1.6 0 0 0 .41 0l.57-.14c.32-.07.55-.11.68-.15a1.4 1.4 0 0 1 .33 0 4 4 0 0 1 .48-.08h.39a2 2 0 0 0 .76.14 3.5 3.5 0 0 1 .63.05 4.3 4.3 0 0 0 .84.24l.55.1a1.1 1.1 0 0 0 .53.24c.29.09.49.17.6.21a2 2 0 0 1 .46.36l.19.22a.43.43 0 0 1 .09.26c.2.17.38.31.56.44a3.8 3.8 0 0 1 .55.48.6.6 0 0 1 .14.24.6.6 0 0 0 .15.24 2 2 0 0 0 .31.24 1.4 1.4 0 0 1 .31.24.64.64 0 0 1 .24.29.42.42 0 0 0 .29.23.71.71 0 0 0 .26.56 1.06 1.06 0 0 1 .36.45 1.5 1.5 0 0 1 .12.51.86.86 0 0 0 .27.5 2.2 2.2 0 0 0 .26.82c.14.25.28.53.41.81a3.4 3.4 0 0 1 .14.46 2.5 2.5 0 0 0 .15.46c.06.16.11.29.14.4a1.8 1.8 0 0 0 .14.36 3.5 3.5 0 0 1 .15.7.8.8 0 0 0 0 .31 7.2 7.2 0 0 1 .57 1.73 5 5 0 0 0 .15.62.9.9 0 0 1 0 .24 2 2 0 0 1 0 .44 2.5 2.5 0 0 0 .05.43 1.6 1.6 0 0 0 .05.38 1.7 1.7 0 0 1 .05.39.7.7 0 0 1 0 .36.7.7 0 0 0 0 .4c0 .26.08.52.14.8s.13.53.19.79.06.27 0 .34a.34.34 0 0 0-.12.28 4 4 0 0 1 .17.43l.12.49a.8.8 0 0 1-.05.23 1 1 0 0 0-.05.29 5 5 0 0 0 .05.63.61.61 0 0 1-.24.57 2.7 2.7 0 0 1 .29 1 2.3 2.3 0 0 1-.15 1.06c-.06.16-.05.25.05.26s.13.11.1.27a1 1 0 0 0-.12.69 1.5 1.5 0 0 1 0 .7.7.7 0 0 1-.07.36.57.57 0 0 0-.07.31.37.37 0 0 0 .05.41.35.35 0 0 1-.05.45 1 1 0 0 0 .17.41.8.8 0 0 1 0 .6.56.56 0 0 0 .24.22 2 2 0 0 1 .29.17c-.07.22 0 .36.1.4a.35.35 0 0 1 .36.23M382.67 1.39a.36.36 0 0 1-.07.32c-.08.11-.11.2-.07.26a3.35 3.35 0 0 0-.08 1.44 1.31 1.31 0 0 1-.26 1.15.52.52 0 0 1 .07.55 3 3 0 0 0-.17.65 3.3 3.3 0 0 0 0 1.08 1.28 1.28 0 0 1-.14.94.9.9 0 0 1 .12.33.46.46 0 0 0 .12.29 3.3 3.3 0 0 0-.07.94 5.5 5.5 0 0 1-.07 1 2 2 0 0 0 0 .55 6 6 0 0 1 0 .6 1.7 1.7 0 0 0 0 .77 1.4 1.4 0 0 1 .07.43 3.3 3.3 0 0 0 0 1 3.3 3.3 0 0 1 .07.65v1.35a1.8 1.8 0 0 0 0 .67c.05.19.09.37.12.53s0 .36 0 .6v.6a3.4 3.4 0 0 0-.05 1 5 5 0 0 0 .14.75.6.6 0 0 1-.07.31.5.5 0 0 0-.07.26 3 3 0 0 1 .21.84v.51a1.2 1.2 0 0 0 0 .48.54.54 0 0 1 0 .24 9.3 9.3 0 0 1 0 1.75c-.05.56-.1 1.13-.17 1.7a1 1 0 0 1-.07.41.8.8 0 0 0-.07.31 4.7 4.7 0 0 0 .14 1 1.68 1.68 0 0 1-.09 1.13.43.43 0 0 0-.05.34 1.5 1.5 0 0 1 .05.43c0 .16-.06.28-.08.36a1.7 1.7 0 0 0 0 .41c.06 0 .08.13.05.29a1.6 1.6 0 0 0-.05.38.74.74 0 0 0 .09.36.65.65 0 0 1 .1.36 1.5 1.5 0 0 1-.1.53 5 5 0 0 0-.14.53c.06.25.07.41 0 .48a.19.19 0 0 0 0 .19 3.8 3.8 0 0 1 0 .84c0 .4-.05.68-.05.84a3.7 3.7 0 0 0 .1 1.18 2.1 2.1 0 0 1-.05 1.17 2.6 2.6 0 0 1-.62.34 1.34 1.34 0 0 1-.82-.1 4 4 0 0 0-.41-.21 1.3 1.3 0 0 0-.55-.12 1.8 1.8 0 0 0-.82.09 1.4 1.4 0 0 1-.67.1.9.9 0 0 1-.29-.19.19.19 0 0 0-.28-.05c.06-.26 0-.43-.05-.51a.8.8 0 0 1-.24-.36.52.52 0 0 1 0-.36.4.4 0 0 0 .07-.21 1 1 0 0 1-.12-.65.66.66 0 0 0-.16-.6.6.6 0 0 0-.37 0l-.26.17a3.8 3.8 0 0 0-1 .51 6.6 6.6 0 0 0-.81.69 1.5 1.5 0 0 1-.48.1.67.67 0 0 0-.44.24 3 3 0 0 1-.55.12.67.67 0 0 0-.41.17 1.86 1.86 0 0 0-.93.14 2 2 0 0 1-1 .14 3 3 0 0 1-.36 0 .39.39 0 0 1-.31-.22 2.5 2.5 0 0 1-1.34.44 3.5 3.5 0 0 0-1.39.33.57.57 0 0 1-.34-.07.46.46 0 0 0-.29-.07c-.16 0-.26 0-.29.07s-.17.07-.43.07l-.57-.12a3.3 3.3 0 0 1-.53-.17l-.51-.07h-.5a1.2 1.2 0 0 0-.41.05 1.4 1.4 0 0 1-.36 0l-.43-.09-.48-.1a2 2 0 0 1-.6 0 3.4 3.4 0 0 1-.46-.09l-.24-.17-.19-.17a6 6 0 0 1-.86-.46 2.9 2.9 0 0 0-.72-.31 3 3 0 0 0-.2-.24 2 2 0 0 1-.19-.24.37.37 0 0 1-.17-.24.4.4 0 0 0-.12-.24 2 2 0 0 0-.4-.33 2 2 0 0 1-.46-.44 2 2 0 0 0-.41-.5 4 4 0 0 1-.31-.26 1.6 1.6 0 0 1-.19-.27l-.19-.31a1.1 1.1 0 0 0-.29-.17 1.1 1.1 0 0 1-.34-.21 1.3 1.3 0 0 0-.17-.34.7.7 0 0 0-.31-.19 1.17 1.17 0 0 0-.36-.63 1.64 1.64 0 0 1-.41-.62.8.8 0 0 1 0-.34 1 1 0 0 0 0-.38 3.5 3.5 0 0 0-.39-1.08 2.6 2.6 0 0 1-.33-1.08 1.8 1.8 0 0 1 .09-.53 1.4 1.4 0 0 0 .1-.48 6 6 0 0 1-.1-.91 3 3 0 0 1 .05-.53v-1c0-.16.06-.31.1-.45l.09-.46c.06-.32.12-.62.17-.91a2.3 2.3 0 0 1 .31-.82 2.5 2.5 0 0 1 0-.62 6 6 0 0 1 .07-.63 1.6 1.6 0 0 1 .19-.52c.1-.16.19-.34.29-.53a1.2 1.2 0 0 0 .14-.34.84.84 0 0 1 .15-.33c.16-.36.29-.68.41-1a2.5 2.5 0 0 1 .4-.74 3.4 3.4 0 0 0 .34-.63 1.8 1.8 0 0 1 .41-.74A3.6 3.6 0 0 1 358 15a1.4 1.4 0 0 1 0-.29 1 1 0 0 0 0-.24 1.7 1.7 0 0 0 .34-.22 2.3 2.3 0 0 0 .29-.26 2 2 0 0 1 .33-.34.8.8 0 0 0 .2-.14 2.8 2.8 0 0 1 .52-.5 1.3 1.3 0 0 0 .34-.32c.1-.19.18-.29.24-.31a.26.26 0 0 0 .14-.07c.29-.26.42-.38.39-.38a1.7 1.7 0 0 1 .38-.27.6.6 0 0 0 .19-.07.53.53 0 0 1 .39-.24.57.57 0 0 0 .34-.1 1 1 0 0 1 .35-.09.5.5 0 0 0 .22-.05 1.9 1.9 0 0 1 .48-.14.45.45 0 0 0 .19 0 2.1 2.1 0 0 1 .65-.24l.74-.19.25-.12a.7.7 0 0 1 .24-.12 2.3 2.3 0 0 1 .69-.1.8.8 0 0 0 .6-.24.75.75 0 0 1 .55-.07.47.47 0 0 0 .46-.12 6 6 0 0 0 .82.09h.48a2.3 2.3 0 0 1 1.27 0c.37.13.73.28 1.08.44a2.8 2.8 0 0 1 .69.26 1.75 1.75 0 0 1 .56.46 1.8 1.8 0 0 1 .88.19c.24.13.49.27.75.43a2.2 2.2 0 0 1 .45.29 2.4 2.4 0 0 1 .27.24 2.2 2.2 0 0 1 .43.26 2 2 0 0 1 .24.22 1.4 1.4 0 0 1 .31.29.4.4 0 0 0 .41.14.51.51 0 0 0 .27-.46 2 2 0 0 1 0-.55 2 2 0 0 1 .1-.33c0-.1.06-.21.09-.34V11a1 1 0 0 1 .05-.31 2 2 0 0 0 .17-.34c0-.13.08-.24.12-.34a1.26 1.26 0 0 0-.08-.64.47.47 0 0 1 .17-.56A1.7 1.7 0 0 1 377 8c0-.24.06-.53.09-.89 0-.12.07-.26.1-.4a.7.7 0 0 0 0-.36.8.8 0 0 0 0-.27c0-.08-.06-.18-.1-.31a.67.67 0 0 0 0-.41 1.1 1.1 0 0 1 .05-.55.53.53 0 0 0 .1-.41.38.38 0 0 1 0-.26 2.2 2.2 0 0 0 .07-1 .79.79 0 0 1 .17-.68 1.36 1.36 0 0 1-.1-.88 1.28 1.28 0 0 1 .39-.75c.44-.06.91-.1 1.39-.12s1 0 1.44-.07a1.2 1.2 0 0 1 .62-.07 2.1 2.1 0 0 1 .68.12 1.3 1.3 0 0 1 .45.24 2 2 0 0 1 .32.46m-6.29 20a2.6 2.6 0 0 0-.21-.41.7.7 0 0 1-.13-.45.58.58 0 0 1-.28-.43 1.6 1.6 0 0 0-.15-.48 2.4 2.4 0 0 0-.33-.41l-.15-.12a1.45 1.45 0 0 1-.19-.58 1 1 0 0 1-.58-.48 1.9 1.9 0 0 0-.48-.57.51.51 0 0 1-.5-.17.9.9 0 0 0-.38-.29 1.4 1.4 0 0 0-.55-.2.7.7 0 0 1-.5-.29 2.8 2.8 0 0 1-1.13-.38 2.7 2.7 0 0 0-1.23-.34.75.75 0 0 1-.43-.19q-.09 0-.09-.09a1.16 1.16 0 0 0-.63 0 2.5 2.5 0 0 1-.57.12 3 3 0 0 1-.46 0h-.31a2.4 2.4 0 0 1-.58.17 1.2 1.2 0 0 0-.29.07 3 3 0 0 0-.33.17l-.29.17a1.3 1.3 0 0 0-.46.12 1.2 1.2 0 0 0-.21.17 6.4 6.4 0 0 1-1.54.67 1.15 1.15 0 0 1-.38.46.87.87 0 0 0-.34.55.94.94 0 0 0-.53.36.81.81 0 0 1-.62.31 2.3 2.3 0 0 1-.31.7 2.8 2.8 0 0 0-.36.69 9 9 0 0 1-.27.84 2 2 0 0 0-.12.7 2.2 2.2 0 0 0-.43.84.48.48 0 0 1-.29.41.64.64 0 0 1 .17.55c-.05.14-.1.33-.17.55a2.5 2.5 0 0 0-.09.91 5 5 0 0 1 0 .68 2.5 2.5 0 0 1-.07.62.8.8 0 0 0 0 .53 1.8 1.8 0 0 0 .28.91.94.94 0 0 1 .15.77 1.17 1.17 0 0 1 .33.86 2.1 2.1 0 0 1 .77.67 1.56 1.56 0 0 1 .65.34 1.2 1.2 0 0 0 .7.29 1.5 1.5 0 0 1 .38.48 1.7 1.7 0 0 1 .58.19 2.7 2.7 0 0 0 .48.24.86.86 0 0 0 .41.19.5.5 0 0 1 .21.05c.13.1.23.13.31.1a.28.28 0 0 1 .22 0 1.9 1.9 0 0 0 .72.14h.62l.7.1a4.5 4.5 0 0 0 .65.05 5 5 0 0 0 1-.24l.67-.15a1.5 1.5 0 0 1 .29-.05 1.8 1.8 0 0 1 .57 0 .8.8 0 0 0 .48 0 .8.8 0 0 0 .34-.24.64.64 0 0 1 .29-.24 1 1 0 0 0 .38-.17.6.6 0 0 1 .1-.12 1.6 1.6 0 0 0 .45-.27.9.9 0 0 1 .22-.16q.33-.15.36-.27a.27.27 0 0 1 .12-.17 3 3 0 0 1 .24-.21l.19-.17.27-.36.21-.27a.64.64 0 0 0 .29-.24l.19-.28c.23-.29.43-.59.63-.89a7 7 0 0 0 .48-.89 9 9 0 0 1 .36-.91 5 5 0 0 0 .21-.48.68.68 0 0 1 .05-.43.5.5 0 0 1 .1-.15.6.6 0 0 0 .09-.33v-2.62a.66.66 0 0 1 .05-.31c.08-.05.06-.12 0-.22ZM434 37.45a1.6 1.6 0 0 1-.62.57 2.2 2.2 0 0 0-.51.31.35.35 0 0 1-.21.13.84.84 0 0 1-.77-.15 3.5 3.5 0 0 1-1.23.15 3 3 0 0 0-1.08.09.83.83 0 0 0-.38.17 1.6 1.6 0 0 1-.34.21 1.2 1.2 0 0 1-.5.08 4 4 0 0 0-.5 0 1 1 0 0 1-.32-.36 3 3 0 0 1-.21-.45 2.6 2.6 0 0 1-.58-.58.9.9 0 0 1-.17-.26.8.8 0 0 0-.16-.27 4 4 0 0 1-.53-.84 5.5 5.5 0 0 1-.29-.69l-.31-.39a3 3 0 0 1-.32-.43 5 5 0 0 0-.33-.41 1.6 1.6 0 0 1-.29-.41.8.8 0 0 1-.09-.36.9.9 0 0 0-.1-.36 2.7 2.7 0 0 0-.36-.52 1.14 1.14 0 0 1-.27-.63c-.12-.13-.24-.26-.36-.41a1 1 0 0 0-.5-.31 1.24 1.24 0 0 0-.31-.55 1.45 1.45 0 0 1-.36-.6 4 4 0 0 1-.29-.62.9.9 0 0 1-.12-.32.9.9 0 0 0-.12-.31 1 1 0 0 0-.41-.38.82.82 0 0 1-.36-.53.51.51 0 0 1-.5-.22.57.57 0 0 0-.46-.26 3.7 3.7 0 0 0-.6-.87 4.6 4.6 0 0 1-.65-.91 4.8 4.8 0 0 1-1.2-.86A5 5 0 0 0 416 24a1 1 0 0 0-.87-.53 1.12 1.12 0 0 0-.19.79 2.7 2.7 0 0 1-.05.89 7 7 0 0 1-.17 1 9 9 0 0 1-.26.89c-.07.16-.05.26.05.31s.12.15.09.31-.07.21-.12.34a.7.7 0 0 0 0 .38 1 1 0 0 0 .12.46 1.1 1.1 0 0 1 .12.55 2.5 2.5 0 0 1-.07.87 9 9 0 0 0-.17.91 1.7 1.7 0 0 1 0 .48 1 1 0 0 0 0 .19v.67a5 5 0 0 1-.05.63 1.9 1.9 0 0 1-.05.79 3.4 3.4 0 0 0-.14.5c.06.23.08.35.05.39a.16.16 0 0 0-.05.14.7.7 0 0 0 .05.29.33.33 0 0 1 0 .24 3.1 3.1 0 0 1-.17.81 1.46 1.46 0 0 0 0 .82c.06.22.11.38.14.46a.26.26 0 0 1 0 .21.86.86 0 0 1-.34.58.69.69 0 0 0-.29.53 2.7 2.7 0 0 0-1 .09 1.08 1.08 0 0 1-.89-.09l-.81.19a3.2 3.2 0 0 1-.91.05 1.7 1.7 0 0 0-.7-.1.24.24 0 0 1-.32-.04 16 16 0 0 0-.24-1.58 1.22 1.22 0 0 1 .24-1.11 1 1 0 0 0 0-.28.65.65 0 0 1 0-.34 2.2 2.2 0 0 0 0-.77 1.8 1.8 0 0 1-.07-.43 1.5 1.5 0 0 1 .12-.34.6.6 0 0 0 .07-.28.9.9 0 0 0 0-.51 1.5 1.5 0 0 1-.1-.55 3.5 3.5 0 0 1 .05-.53 3.5 3.5 0 0 0 0-.53 1.3 1.3 0 0 0-.12-.52.58.58 0 0 1 .07-.58 1.2 1.2 0 0 0 .07-.58v-.76a3 3 0 0 1 0-.44c0-.12 0-.27.07-.43s0-.38 0-.55a5 5 0 0 1 0-.5 1.1 1.1 0 0 1 .05-.27.38.38 0 0 0 0-.26 2.3 2.3 0 0 1-.07-.67 3 3 0 0 0 0-.39 1.7 1.7 0 0 0 0-.5 2.5 2.5 0 0 1 0-.6 1.3 1.3 0 0 0-.05-.39 1 1 0 0 1 0-.43 1.3 1.3 0 0 0 0-.58L409 23a.7.7 0 0 1 0-.29 1.2 1.2 0 0 0 0-.34 5 5 0 0 0-.09-.86 4 4 0 0 1-.1-.87c.07-.64 0-1-.09-1.05a4 4 0 0 0 .14-.43c0-.13.06-.28.1-.44a5 5 0 0 0 0-.67 2.7 2.7 0 0 1 0-.86l.12-.24a.8.8 0 0 0 .07-.29 1.6 1.6 0 0 0-.05-.38 1.1 1.1 0 0 1 0-.44c0-.29 0-.59.05-.91s.08-.64.14-1a1.45 1.45 0 0 0 .05-.62 1.6 1.6 0 0 1-.05-.34 1.8 1.8 0 0 1 .1-.62 1.3 1.3 0 0 0 0-.68 1.6 1.6 0 0 0 0-.26V11a2.6 2.6 0 0 0 0-.69 2 2 0 0 1-.05-.41c.07-.26.08-.4.05-.43a.23.23 0 0 1-.05-.15c.07-.13.08-.21.05-.26a.56.56 0 0 1-.05-.27c0-.25.06-.47.07-.64a4 4 0 0 0 0-.75c-.06-.22-.07-.35 0-.38s.05-.08 0-.15a.7.7 0 0 0-.1-.33c-.06-.13-.12-.26-.19-.39a1.45 1.45 0 0 0 .05-.67 3.3 3.3 0 0 1 0-.77 1.1 1.1 0 0 1 .05-.26 1 1 0 0 0 0-.27 2.2 2.2 0 0 1-.17-.55 1 1 0 0 0-.07-.26 2 2 0 0 0-.15-.39.75.75 0 0 1-.09-.33 1 1 0 0 1 .14-.53l.29-.48a1.2 1.2 0 0 1 .21-.17.42.42 0 0 1 .32 0l.21-.22a1.4 1.4 0 0 1 .27-.21.67.67 0 0 1 .6.07 1.7 1.7 0 0 0 .45.26 2.8 2.8 0 0 1 .82-.07 4 4 0 0 0 1-.07 1.8 1.8 0 0 1 .62-.07h.29a4.4 4.4 0 0 1 1-.14 4.4 4.4 0 0 1 .67 0 1.2 1.2 0 0 1 .46 0 .3.3 0 0 0 .17.05.6.6 0 0 1 .43 0l.38.12a7 7 0 0 0 .77 0 7 7 0 0 1 .77 0l.79.1a3 3 0 0 1 .79.19 1.3 1.3 0 0 1 .29.14 1 1 0 0 0 .29.15 1.3 1.3 0 0 0 .45 0 1.2 1.2 0 0 1 .51.07 5 5 0 0 1 1 .32 5.5 5.5 0 0 0 1 .31 6 6 0 0 0 .53.17 1.4 1.4 0 0 1 .53.26 5.4 5.4 0 0 1 1.2.12 4.6 4.6 0 0 1 .91.31c.16.07.35.13.55.2A1.25 1.25 0 0 1 428 4l.43.34a2.4 2.4 0 0 1 .38.34 1.4 1.4 0 0 1 .36.36 1.2 1.2 0 0 0 .17.21 1.5 1.5 0 0 1 .36.39.4.4 0 0 0 .17.19 1.7 1.7 0 0 1 .36.26.7.7 0 0 0 .26.17 1 1 0 0 0 .36.58 3.4 3.4 0 0 1 .51.43 3 3 0 0 1 .29.67.46.46 0 0 0 .24.34 7 7 0 0 1 .28 1.44 1.4 1.4 0 0 0 .44 1 1.3 1.3 0 0 0 .07.69c.08.21.17.43.26.65a.8.8 0 0 0-.05.46 1.6 1.6 0 0 1 .11.48 1.1 1.1 0 0 1-.12.48.37.37 0 0 0 .07.44q-.18.57-.36 1.17a4.2 4.2 0 0 1-.5 1.13.6.6 0 0 0-.14.22c0 .08-.13.11-.29.11 0 .2 0 .33-.1.41a.46.46 0 0 0-.14.36 3.3 3.3 0 0 0-.6.46 3 3 0 0 0-.46.6 1.5 1.5 0 0 1-.26.29l-.36.24a6 6 0 0 1-.58.33 2.4 2.4 0 0 0-.33.2 1 1 0 0 0-.41.24.6.6 0 0 1-.17.14 3 3 0 0 1-.31.17 1.3 1.3 0 0 0-.31.17 2 2 0 0 1-.41.28.8.8 0 0 0-.17.1 9 9 0 0 1-.94.36 4 4 0 0 0-1 .5.55.55 0 0 0-.48.05 2.3 2.3 0 0 1-.53.24 1.8 1.8 0 0 1-.65.07q-.26 0-.36.36a.36.36 0 0 0 .22.48 2.8 2.8 0 0 1 .6.39 1.7 1.7 0 0 0 .26.45 1 1 0 0 0 .46.32 1.53 1.53 0 0 1 .45.67.47.47 0 0 0 .46.33 3 3 0 0 0 .38.63 1.4 1.4 0 0 1 .37.38.6.6 0 0 0 .07.19 1.6 1.6 0 0 0 .33.44.15.15 0 0 1 .1.14l.41.62a2.9 2.9 0 0 1 .31.72c.1.1.19.2.29.29a2 2 0 0 0 .33.29.46.46 0 0 0 .08.29.54.54 0 0 1 .07.29c.19.22.4.45.62.67a1.86 1.86 0 0 1 .48.86 1 1 0 0 1 .24.22.52.52 0 0 0 .29.17 2.3 2.3 0 0 0 .46.84c.2.24.4.5.6.79a1.9 1.9 0 0 0 .43.48 3 3 0 0 1 .33.5 3.5 3.5 0 0 0 .34.51 5 5 0 0 1 .36.65.7.7 0 0 0 .36.36.67.67 0 0 0 .17.36.45.45 0 0 1 .07.4c.13.07.26.14.38.22a4 4 0 0 0 .44.22c.06.25.12.47.16.64a1 1 0 0 1-.01.52M427.32 12a2.8 2.8 0 0 1-.27-.67.9.9 0 0 0-.05-.33.56.56 0 0 0-.17-.24.8.8 0 0 1-.21-.24 1.9 1.9 0 0 0-.43-.62.8.8 0 0 1-.25-.27.4.4 0 0 0-.24-.21 2.1 2.1 0 0 1-.5-.48.32.32 0 0 0-.36-.15.52.52 0 0 0-.41-.36.51.51 0 0 1-.41-.36 1.5 1.5 0 0 1-.62-.19l-.53-.33a1 1 0 0 0-.26.14.45.45 0 0 1-.36 0 1.2 1.2 0 0 1-.41-.15 1.4 1.4 0 0 0-.41-.14 2.6 2.6 0 0 1-.77 0 1.4 1.4 0 0 0-.38-.08 2.4 2.4 0 0 0-.77-.19 2.8 2.8 0 0 0-.81 0l-.87.12a14 14 0 0 1-1.58-.1 6.6 6.6 0 0 0-1.54 0 .25.25 0 0 0 0 .31.5.5 0 0 1 .12.36 3 3 0 0 0 0 .75 1.5 1.5 0 0 1 .05.4 1 1 0 0 0-.05.48.3.3 0 0 1 .05.15v.81a6.4 6.4 0 0 0-.07 1.23 10 10 0 0 1 0 1.22v1.27c0 .36 0 .75-.07 1.13a2 2 0 0 1 0 .7.9.9 0 0 0-.08.36 3.1 3.1 0 0 0 .1 1.06 4.2 4.2 0 0 0 1 .14h.75a1.2 1.2 0 0 0 .41 0 1.3 1.3 0 0 1 .26 0c.32 0 .62.07.89.12a2.3 2.3 0 0 0 .89 0 3 3 0 0 0 .45 0 4 4 0 0 0 .46-.07 1.7 1.7 0 0 1 .55-.14h.26a5 5 0 0 1 .72-.22 1.1 1.1 0 0 0 .29-.07c.64-.26 1.11-.44 1.39-.53.45-.16.8-.27 1-.34s.45-.11.64-.14a.76.76 0 0 1 .58-.53.69.69 0 0 0 .53-.62.5.5 0 0 1 .31-.1.21.21 0 0 0 .22-.19l.29-.91A2.6 2.6 0 0 1 427 13c0-.26 0-.42.07-.5a1.2 1.2 0 0 0 .25-.5M446.62 3.07c.06.07.08.29 0 .68a3.3 3.3 0 0 1-.14.81.9.9 0 0 1-.14.27 2 2 0 0 1-.2.21 2.9 2.9 0 0 1-.28.91 4.4 4.4 0 0 0-.29.58 2 2 0 0 0-.46.26 1.7 1.7 0 0 1-.45.27q-.58.2-1 .36a2 2 0 0 1-.77.17.74.74 0 0 1-.34-.08l-.29-.12a2.6 2.6 0 0 0-.48 0 2.6 2.6 0 0 1-.48 0 4.5 4.5 0 0 0-.55-.79 2.14 2.14 0 0 1-.45-.89 5 5 0 0 0-.44-.48 1.75 1.75 0 0 0-.14-.7 1.6 1.6 0 0 1-.14-.69 2.1 2.1 0 0 1 .19-.77c0-.16 0-.32.07-.48a1 1 0 0 1 .07-.34 2.1 2.1 0 0 1 .48-.45.64.64 0 0 0 .24-.22 1.3 1.3 0 0 0 .19-.43.5.5 0 0 1 .05-.2 1.9 1.9 0 0 1 .41-.36l.5-.31a.9.9 0 0 1 .63-.17 6 6 0 0 0 .91 0 1.05 1.05 0 0 0 .62.53 1.2 1.2 0 0 1 .68.53l.48.12a.37.37 0 0 1 .19.12 3.4 3.4 0 0 1 1.2 1.53Zm.14 8.31c-.06.32-.12.63-.17.93a4.4 4.4 0 0 0 0 1 1.2 1.2 0 0 0 .07.43 1.2 1.2 0 0 1 .07.43 3 3 0 0 1-.09.7 2.6 2.6 0 0 0-.1.74v.7a6 6 0 0 0 .05.69.46.46 0 0 0 .05.27c0 .05 0 .13-.05.26a3.37 3.37 0 0 0-.15 1.73 13.5 13.5 0 0 1 .15 1.87 8 8 0 0 1-.15 1c-.06.32-.11.66-.14 1-.06.74-.1 1.46-.12 2.18s-.06 1.44-.12 2.14a2.4 2.4 0 0 0 0 .6 2.4 2.4 0 0 1 0 .55c0 .45-.07.88-.12 1.3s-.1.82-.17 1.2a4 4 0 0 0 0 .84 6 6 0 0 1 .05.84 3 3 0 0 0 0 .43v.43a3 3 0 0 0 .1.36 1.7 1.7 0 0 1 0 .41 1.4 1.4 0 0 0 0 .31V35a.2.2 0 0 0 0 .14 1 1 0 0 0 0 .51.6.6 0 0 1 0 .21 3 3 0 0 1-.12.32 1.2 1.2 0 0 0-.07.4 4.5 4.5 0 0 0 .07.75 1.7 1.7 0 0 1 0 .74c-.22.1-.43.2-.62.31a1 1 0 0 1-.82 0 .47.47 0 0 1-.29-.39.85.85 0 0 0-.24-.48 3.3 3.3 0 0 1-.65-.14 2.6 2.6 0 0 1-.5-.24.78.78 0 0 1-.51 0l-.64-.12a3.2 3.2 0 0 0-.72-.09 1.1 1.1 0 0 1-.53-.1 1.34 1.34 0 0 1-.31-.69.62.62 0 0 0-.22-.46 2.8 2.8 0 0 0 .24-.77 2.2 2.2 0 0 0 0-.89 2.8 2.8 0 0 1-.05-.88 2.3 2.3 0 0 1 .1-.53 5 5 0 0 0 0-.58 2.6 2.6 0 0 1 0-.48 2 2 0 0 1 .1-.46l.1-.16c0-.55.05-1.11.07-1.68s0-1 .07-1.25a1.6 1.6 0 0 1 0-.36 3 3 0 0 0 0-.36 16 16 0 0 1 .07-1.66 9 9 0 0 0 0-1.46 3.4 3.4 0 0 1 0-1 5 5 0 0 0 .07-.87 3.5 3.5 0 0 0 0-.93 1.2 1.2 0 0 1 .17-.84 1.8 1.8 0 0 1-.12-1 8 8 0 0 0 .07-.91V18a4.5 4.5 0 0 1 .05-.72 3 3 0 0 0-.05-.51.78.78 0 0 1 .05-.5c0-.35.05-.6.07-.75s0-.24 0-.31a.74.74 0 0 0-.07-.34.6.6 0 0 1-.07-.28 2 2 0 0 1 0-.34.6.6 0 0 0 0-.29 9 9 0 0 1-.12-.79.84.84 0 0 1 0-.36.34.34 0 0 0-.29-.29.42.42 0 0 1-.33-.24c-.07-.25-.13-.53-.2-.84a.63.63 0 0 1 .24-.69 1 1 0 0 1 .46-.08l.55.08c.19.06.32.08.39 0a.21.21 0 0 1 .19 0l.31.12a2 2 0 0 0 .36.12 5 5 0 0 0 1.11 0c.41 0 .82-.07 1.22-.12s.76-.08 1.08-.09a1 1 0 0 1 .67.12.29.29 0 0 1 .15.26.2.2 0 0 0 .35.22M480.27 1.39a.36.36 0 0 1-.07.32c-.08.11-.11.2-.07.26a3.35 3.35 0 0 0-.08 1.44 1.34 1.34 0 0 1-.26 1.15.52.52 0 0 1 .07.55 3 3 0 0 0-.17.65 3.3 3.3 0 0 0 0 1.08 1.28 1.28 0 0 1-.14.94.9.9 0 0 1 .12.33.46.46 0 0 0 .12.29 3.3 3.3 0 0 0-.07.94 5.5 5.5 0 0 1-.07 1 2 2 0 0 0 0 .55 6 6 0 0 1 0 .6 1.7 1.7 0 0 0 0 .77 1.4 1.4 0 0 1 .07.43 3.3 3.3 0 0 0 0 1 3.3 3.3 0 0 1 .07.65v1.35a1.8 1.8 0 0 0 0 .67c0 .19.09.37.12.53s0 .36 0 .6v.6a3.4 3.4 0 0 0-.05 1 5 5 0 0 0 .14.75.6.6 0 0 1-.07.31.5.5 0 0 0-.07.26 3.4 3.4 0 0 1 .21.84v.51a.9.9 0 0 0 0 .48.54.54 0 0 1 .05.24 9.3 9.3 0 0 1 0 1.75c0 .56-.11 1.13-.17 1.7a1 1 0 0 1-.07.41.8.8 0 0 0-.07.31 4.7 4.7 0 0 0 .14 1 1.74 1.74 0 0 1-.09 1.13.43.43 0 0 0-.05.34 1.5 1.5 0 0 1 .05.43c0 .16-.06.28-.08.36a1.7 1.7 0 0 0 0 .41c.06 0 .08.13.05.29a1.6 1.6 0 0 0-.05.38.74.74 0 0 0 .09.36.65.65 0 0 1 .1.36 1.5 1.5 0 0 1-.1.53 5 5 0 0 0-.14.53c.06.25.07.41 0 .48a.19.19 0 0 0 0 .19 3.8 3.8 0 0 1 0 .84c0 .4-.05.68-.05.84a3.7 3.7 0 0 0 .1 1.18 2.1 2.1 0 0 1 0 1.17 2.6 2.6 0 0 1-.62.34 1.34 1.34 0 0 1-.82-.1 4 4 0 0 0-.41-.21 1.3 1.3 0 0 0-.55-.12 1.8 1.8 0 0 0-.82.09 1.4 1.4 0 0 1-.67.1.8.8 0 0 1-.29-.19.19.19 0 0 0-.28-.05c.06-.26 0-.43-.05-.51a.8.8 0 0 1-.24-.36.47.47 0 0 1 0-.36.4.4 0 0 0 .07-.21.87.87 0 0 1-.12-.65.66.66 0 0 0-.17-.6.58.58 0 0 0-.36 0l-.26.17a3.8 3.8 0 0 0-1 .51 6 6 0 0 0-.81.69 1.5 1.5 0 0 1-.48.1.67.67 0 0 0-.44.24 3 3 0 0 1-.55.12.67.67 0 0 0-.41.17 1.86 1.86 0 0 0-.93.14 2 2 0 0 1-1 .14 3 3 0 0 1-.36 0 .39.39 0 0 1-.31-.22 2.5 2.5 0 0 1-1.34.44 3.5 3.5 0 0 0-1.39.33.57.57 0 0 1-.34-.07.5.5 0 0 0-.29-.07c-.16 0-.26 0-.29.07s-.17.07-.43.07l-.57-.12a3.3 3.3 0 0 1-.53-.17l-.51-.07h-.5a1.2 1.2 0 0 0-.41.05 1.4 1.4 0 0 1-.36 0l-.43-.09-.48-.1a2 2 0 0 1-.6 0 3 3 0 0 1-.43.03l-.24-.17-.19-.17a6 6 0 0 1-.86-.46 2.9 2.9 0 0 0-.72-.31 3 3 0 0 0-.2-.24 2 2 0 0 1-.19-.24.37.37 0 0 1-.17-.24.4.4 0 0 0-.12-.24 2 2 0 0 0-.4-.33 2 2 0 0 1-.46-.44 2 2 0 0 0-.41-.5 4 4 0 0 1-.31-.26 1.6 1.6 0 0 1-.19-.27l-.19-.31a1.1 1.1 0 0 0-.29-.17 1.1 1.1 0 0 1-.34-.21 1.3 1.3 0 0 0-.17-.34.75.75 0 0 0-.31-.19 1.17 1.17 0 0 0-.36-.63 1.64 1.64 0 0 1-.41-.62.8.8 0 0 1 0-.34 1 1 0 0 0 0-.38 3.2 3.2 0 0 0-.38-1.08 2.6 2.6 0 0 1-.33-1.08 1.8 1.8 0 0 1 .09-.53 1.4 1.4 0 0 0 .1-.48 6 6 0 0 1-.1-.91 3 3 0 0 1 .05-.53v-1c0-.16.06-.31.1-.45l.09-.46c.06-.32.12-.62.17-.91a2.3 2.3 0 0 1 .31-.82 2.5 2.5 0 0 1 0-.62 6 6 0 0 1 .07-.63 1.6 1.6 0 0 1 .19-.52c.1-.16.19-.34.29-.53a1.2 1.2 0 0 0 .14-.34.84.84 0 0 1 .15-.33c.16-.36.29-.68.41-1a2.5 2.5 0 0 1 .4-.74 3.4 3.4 0 0 0 .34-.63 1.8 1.8 0 0 1 .41-.74 3.6 3.6 0 0 1 .65-.6 1.4 1.4 0 0 1 0-.29v-.24a1.7 1.7 0 0 0 .34-.22 2.3 2.3 0 0 0 .29-.26 2 2 0 0 1 .33-.34.8.8 0 0 0 .2-.14 2.8 2.8 0 0 1 .52-.5 1.3 1.3 0 0 0 .34-.32c.1-.19.18-.29.24-.31a.26.26 0 0 0 .14-.07c.29-.26.42-.38.39-.38a1.7 1.7 0 0 1 .38-.27.6.6 0 0 0 .19-.07.53.53 0 0 1 .39-.24.52.52 0 0 0 .33-.1 1.2 1.2 0 0 1 .36-.09.5.5 0 0 0 .22-.05 1.9 1.9 0 0 1 .48-.14.45.45 0 0 0 .19 0 2.1 2.1 0 0 1 .65-.24l.74-.19a1.3 1.3 0 0 0 .24-.12.9.9 0 0 1 .24-.12 2.4 2.4 0 0 1 .7-.1.8.8 0 0 0 .6-.24.75.75 0 0 1 .55-.07.47.47 0 0 0 .46-.12 6 6 0 0 0 .82.09h.48a2.3 2.3 0 0 1 1.27 0c.37.13.73.28 1.08.44a2.8 2.8 0 0 1 .69.26 1.8 1.8 0 0 1 .53.43 1.8 1.8 0 0 1 .88.19c.24.13.49.27.75.43a2.2 2.2 0 0 1 .45.29 2.4 2.4 0 0 1 .27.24 2.2 2.2 0 0 1 .43.26 2 2 0 0 1 .24.22 1.4 1.4 0 0 1 .31.29.4.4 0 0 0 .41.14.48.48 0 0 0 .26-.46 2.6 2.6 0 0 1 0-.55c0-.12.06-.24.09-.33a2.3 2.3 0 0 0 .1-.34V11a1 1 0 0 1 0-.31 2 2 0 0 0 .17-.34c0-.13.08-.24.12-.34a1.26 1.26 0 0 0-.08-.64.47.47 0 0 1 .17-.56 1.7 1.7 0 0 1-.09-.79c0-.24.06-.53.09-.89 0-.12.07-.26.1-.4a.7.7 0 0 0 0-.36.8.8 0 0 0-.05-.27c0-.08-.06-.18-.1-.31a.67.67 0 0 0 0-.41 1.1 1.1 0 0 1 0-.55.53.53 0 0 0 .1-.41.38.38 0 0 1 0-.26 2.4 2.4 0 0 0 .07-1 .79.79 0 0 1 .17-.68 1.36 1.36 0 0 1-.1-.88 1.23 1.23 0 0 1 .39-.75c.44-.06.91-.1 1.39-.12s1 0 1.44-.07a1.2 1.2 0 0 1 .62-.07 2.1 2.1 0 0 1 .68.12 1.3 1.3 0 0 1 .45.24 1.9 1.9 0 0 1 .54.44m-6.29 20a2 2 0 0 0-.22-.41.75.75 0 0 1-.12-.45.58.58 0 0 1-.28-.43 1.6 1.6 0 0 0-.15-.48 2.4 2.4 0 0 0-.33-.41l-.15-.12a1.45 1.45 0 0 1-.19-.58 1 1 0 0 1-.58-.48 1.9 1.9 0 0 0-.48-.57.51.51 0 0 1-.5-.17.9.9 0 0 0-.41-.31 1.4 1.4 0 0 0-.55-.2.7.7 0 0 1-.5-.29 2.8 2.8 0 0 1-1.13-.38 2.76 2.76 0 0 0-1.23-.34.75.75 0 0 1-.43-.19q-.09 0-.09-.09a1.16 1.16 0 0 0-.63 0 2.5 2.5 0 0 1-.57.12 3 3 0 0 1-.46 0h-.31a2.4 2.4 0 0 1-.58.17 1.2 1.2 0 0 0-.29.07 2 2 0 0 0-.33.17l-.29.17a1.3 1.3 0 0 0-.46.12 1.2 1.2 0 0 0-.21.17 6.6 6.6 0 0 1-1.54.67 1.15 1.15 0 0 1-.38.46.87.87 0 0 0-.34.55.94.94 0 0 0-.53.36.81.81 0 0 1-.62.31 2.3 2.3 0 0 1-.31.7 2.8 2.8 0 0 0-.36.69 9 9 0 0 1-.27.84 2 2 0 0 0-.12.7 2.2 2.2 0 0 0-.43.84.48.48 0 0 1-.29.41.64.64 0 0 1 .17.55c-.05.14-.1.33-.17.55a2.5 2.5 0 0 0-.09.91 5 5 0 0 1 0 .68 2.5 2.5 0 0 1-.07.62.8.8 0 0 0 0 .53 1.8 1.8 0 0 0 .28.91.94.94 0 0 1 .15.77 1.17 1.17 0 0 1 .33.86 2.1 2.1 0 0 1 .77.67 1.56 1.56 0 0 1 .65.34 1.2 1.2 0 0 0 .7.29 1.5 1.5 0 0 1 .38.48 1.7 1.7 0 0 1 .58.19 2.7 2.7 0 0 0 .48.24.86.86 0 0 0 .41.19.5.5 0 0 1 .21.05c.13.1.23.13.31.1a.28.28 0 0 1 .22 0 1.9 1.9 0 0 0 .72.14h.65l.7.1a4.5 4.5 0 0 0 .65.05 5 5 0 0 0 1-.24l.67-.15a1.5 1.5 0 0 1 .29-.05 1.8 1.8 0 0 1 .57 0 .8.8 0 0 0 .48 0 .8.8 0 0 0 .34-.24.64.64 0 0 1 .29-.24 1 1 0 0 0 .38-.17.6.6 0 0 1 .1-.12 1.6 1.6 0 0 0 .45-.27.9.9 0 0 1 .22-.16q.33-.15.36-.27a.27.27 0 0 1 .12-.17 3 3 0 0 1 .24-.21l.19-.17.27-.36.21-.27a.64.64 0 0 0 .29-.24l.19-.28c.23-.29.43-.59.63-.89a7 7 0 0 0 .48-.89 9 9 0 0 1 .36-.91 5 5 0 0 0 .21-.48.68.68 0 0 1 .05-.43.36.36 0 0 1 .1-.15.6.6 0 0 0 .09-.33v-2.6a.66.66 0 0 1 0-.31c.13-.05.07-.12.07-.22ZM512.53 24.29a4.4 4.4 0 0 0 0 .91.8.8 0 0 1-.1.53.58.58 0 0 1-.35.29.62.62 0 0 0-.37.29 1.6 1.6 0 0 0-.62-.07 1.7 1.7 0 0 0-.58.12 1.2 1.2 0 0 0-.93-.24 1.44 1.44 0 0 1-1-.24 1.2 1.2 0 0 1-.52.14 4.3 4.3 0 0 1-1.42-.05c-.5-.09-1-.17-1.51-.24-.35 0-.72-.05-1.11-.05h-1a3.8 3.8 0 0 1-.77.1 2.5 2.5 0 0 1-.7-.19 2.5 2.5 0 0 0-1.3-.12 2.4 2.4 0 0 1-.59.07 3.7 3.7 0 0 1-.77-.1 1.8 1.8 0 0 1-.53 0h-.24a4.5 4.5 0 0 0-.65 0 .58.58 0 0 1-.55-.24 1.1 1.1 0 0 1-.34.19 1.6 1.6 0 0 1-.53 0l-.36-.07a.8.8 0 0 0-.21 0 1.1 1.1 0 0 1-.55 0 .43.43 0 0 0-.41.15.39.39 0 0 0-.34-.07c-.16 0-.27 0-.33-.08a2.8 2.8 0 0 0-1 0 3.1 3.1 0 0 1-.82.1 2.6 2.6 0 0 1-.74-.1 2.2 2.2 0 0 0-.89 0 1.77 1.77 0 0 0-.17 1.08 2.1 2.1 0 0 0 .36 1 .6.6 0 0 1 0 .38.9.9 0 0 0-.07.39 5.3 5.3 0 0 0 .64.76 2 2 0 0 1 .41.48 3.6 3.6 0 0 0 .58.72 5.4 5.4 0 0 1 .62.77 1 1 0 0 0 .27.39 1.5 1.5 0 0 1 .31.38 1.8 1.8 0 0 1 .65.29c.17.13.39.27.64.43a3.5 3.5 0 0 1 .75.5 1.55 1.55 0 0 0 .55.36.8.8 0 0 0 .38.08.6.6 0 0 1 .29 0 2 2 0 0 1 .53.34 1.2 1.2 0 0 0 .62.28 4.3 4.3 0 0 1 .77 0 4 4 0 0 1 .43.07 1.84 1.84 0 0 0 1.16-.29h.38a2 2 0 0 0 .39 0 1.3 1.3 0 0 1 .64-.29.57.57 0 0 0 .36-.1.7.7 0 0 1 .27-.17.7.7 0 0 0 .21-.07 2 2 0 0 0 .51-.24c.14-.09.29-.21.45-.33a4 4 0 0 0 .63-.44 2.7 2.7 0 0 0 .84-.81 4.7 4.7 0 0 1 .79-.91 3.7 3.7 0 0 1 .19-1 3.4 3.4 0 0 1 .39-.73 2.4 2.4 0 0 1 .12-.84 3 3 0 0 1 .31-.59l.43-.1a.84.84 0 0 1 .48.05l.26.16a2 2 0 0 0 .36.17.63.63 0 0 0 .32.12l.5.12a1.4 1.4 0 0 0 .48.15 1 1 0 0 1 .29 0 1.16 1.16 0 0 0 .69.15 1 1 0 0 1 .56.05 2.2 2.2 0 0 1 .62.57 1.76 1.76 0 0 1-.34 1.06 1.6 1.6 0 0 0-.21.65 1.2 1.2 0 0 1 0 .36 1 1 0 0 1-.15.24.6.6 0 0 0-.14.29 3 3 0 0 0-.15.55 1.9 1.9 0 0 1-.19.55c-.26.32-.45.55-.6.7a1.5 1.5 0 0 1-.46.31.25.25 0 0 1-.09.36 1.7 1.7 0 0 0-.29.21 1.2 1.2 0 0 1-.41.53l-.6.43a4.7 4.7 0 0 1-.79.58l-.79.48-.72.6a1.4 1.4 0 0 1-.48.26 3 3 0 0 0-.36.17.4.4 0 0 1-.17.07 1.3 1.3 0 0 1-.53.1 1.6 1.6 0 0 0-.57.1 8 8 0 0 1-.92.26c-.25 0-.51.1-.76.17a4 4 0 0 1-.44.14 1.8 1.8 0 0 1-.57 0 1 1 0 0 0-.72 0 .38.38 0 0 1-.48 0l-.89.19a1.5 1.5 0 0 1-.65 0 .7.7 0 0 1-.29 0l-.29-.09c-.6-.1-1.09-.16-1.46-.19a4.3 4.3 0 0 1-1-.2 1 1 0 0 0-.29 0c-.1 0-.18-.07-.24-.2a1.24 1.24 0 0 1-.89-.12 2.6 2.6 0 0 1-.65-.45.8.8 0 0 1-.26-.05l-.27-.1a8 8 0 0 1-.67-.31 1.18 1.18 0 0 1-.53-.55.69.69 0 0 1-.55-.19 3 3 0 0 0-.41-.39 1.2 1.2 0 0 1-.69-.21 1.9 1.9 0 0 1-.51-.51 5 5 0 0 0-.72-.76c-.35-.36-.62-.65-.81-.89a1.6 1.6 0 0 0-.72-.51 1.3 1.3 0 0 0-.29-.48 4 4 0 0 1-.39-.43 8 8 0 0 0-.33-.62 2 2 0 0 0-.19-.24c-.07-.26-.12-.51-.17-.75s-.11-.48-.17-.74a3 3 0 0 1-.14-.77 2.6 2.6 0 0 0-.05-.48 2 2 0 0 0-.12-.29 1.7 1.7 0 0 1-.12-.28 2 2 0 0 1 0-.49 1.9 1.9 0 0 0 0-.52c0-.16-.06-.32-.1-.46a2.2 2.2 0 0 1 0-.46 6 6 0 0 1 0-.69 4.6 4.6 0 0 0 0-.75v-.26a1.6 1.6 0 0 1 0-.26 3 3 0 0 1 .17-.51 2 2 0 0 0 .17-.5 1.24 1.24 0 0 1 0-.63v-.28a.7.7 0 0 0 .15-.27 1.5 1.5 0 0 1 .09-.26 1.2 1.2 0 0 0 .05-.34 1.1 1.1 0 0 1 .1-.43 3.5 3.5 0 0 1 .31-.46l.12-.12a2.4 2.4 0 0 1 .09-.45.8.8 0 0 1 .15-.22 4.6 4.6 0 0 1 .31-.57 1 1 0 0 0 .12-.2 1 1 0 0 1 .1-.43.6.6 0 0 0 .09-.14 1.9 1.9 0 0 0 .12-.51 2.2 2.2 0 0 1 .12-.45q.1-.24.24-.51a1.7 1.7 0 0 1 .39-.45c.16-.39.3-.71.43-1s.25-.53.38-.79a3.7 3.7 0 0 0 .75-.77 3.6 3.6 0 0 1 .74-.77.5.5 0 0 1 .22-.12 1 1 0 0 0 .31-.12 8 8 0 0 0 .77-.6 2.3 2.3 0 0 1 .57-.36 4 4 0 0 1 .89-.12 1 1 0 0 0 .84-.36 1.5 1.5 0 0 0 .58-.12c.19-.08.38-.16.57-.26l.44-.22a1.23 1.23 0 0 1 .67-.07 3.6 3.6 0 0 0 .65 0 5 5 0 0 0 .69-.12l.43-.1a3 3 0 0 1 .53-.05 8 8 0 0 0 1.13.1 8 8 0 0 1 .94.05 1.9 1.9 0 0 0 .5-.08 2.5 2.5 0 0 1 .55-.07 2.5 2.5 0 0 0 .46.05 2.7 2.7 0 0 1 .46 0 2.6 2.6 0 0 0 .4.09h.12a1.2 1.2 0 0 1 .41.17 2.2 2.2 0 0 0 .41.22.36.36 0 0 0 .26.09.4.4 0 0 1 .27.1 2.7 2.7 0 0 1 .57.24l.63.19a.59.59 0 0 1 .38.43 1.94 1.94 0 0 1 .79.39 3 3 0 0 0 .51.38 2 2 0 0 1 .38.41 1.5 1.5 0 0 0 .43.41 3 3 0 0 0 .12.24.7.7 0 0 1 .12.29 2.8 2.8 0 0 1 .68.6 1.8 1.8 0 0 0 .81.55 2.4 2.4 0 0 0 .34.57 1.3 1.3 0 0 1 .24.68l.21.31c.08.11.17.25.27.41a1.6 1.6 0 0 0 .17.24.8.8 0 0 1 .16.29 11 11 0 0 0 .53 1 3 3 0 0 0 .27.34 1.5 1.5 0 0 1 .26.43 1.7 1.7 0 0 1 .05.39 1.7 1.7 0 0 0 .05.38c.06.16.11.3.14.41a1 1 0 0 0 .1.26 2.1 2.1 0 0 1 .05.75 2.3 2.3 0 0 0 0 .74c0 .19 0 .39.07.6a6 6 0 0 0 .07.6 2.7 2.7 0 0 0 0 .62Zm-6.86-3.84c.06-.06.07-.17 0-.33a.54.54 0 0 0-.26-.34.64.64 0 0 0-.27-.41c-.11-.05-.12-.13 0-.26a1.1 1.1 0 0 0-.39-.24.32.32 0 0 1-.19-.39c-.16 0-.26 0-.31-.12a.38.38 0 0 0-.17-.21 1.17 1.17 0 0 1-.43-.48 1 1 0 0 0-.29-.39.31.31 0 0 0-.31 0c-.11 0-.17 0-.17-.22a1.65 1.65 0 0 1-1.17-.26 7.4 7.4 0 0 1-.8-.7 3 3 0 0 1-1 .05 5.7 5.7 0 0 0-1 0 1.1 1.1 0 0 0-.69-.21 2 2 0 0 1-.75-.13.24.24 0 0 1-.21-.21c0-.11-.11-.17-.27-.17a.72.72 0 0 1-.64 0 2.2 2.2 0 0 0-.7-.19 2.3 2.3 0 0 1-.82.31 6 6 0 0 0-.86.22 1.36 1.36 0 0 0-.53.45c-.19.24-.33.41-.43.51l-.67.77c-.23.25-.43.51-.63.76a.67.67 0 0 1 0 .46.56.56 0 0 0-.05.41 1.2 1.2 0 0 0-.46.74q-.12.51-.21 1a3.2 3.2 0 0 0 .76 0l.92-.1a1 1 0 0 1 .31 0h.31a6 6 0 0 1 1.25-.12 6 6 0 0 0 1 0 7 7 0 0 0 .93-.07 1.32 1.32 0 0 1 .84.12 2.56 2.56 0 0 1 1.23-.2l1.13.1a1 1 0 0 0 .43-.05.06.06 0 0 1 .09 0 15 15 0 0 1 2.77.07 9.2 9.2 0 0 0 2.71-.17M9.94 52.67c.06.06.08.29.05.67a3.3 3.3 0 0 1-.15.82 1 1 0 0 1-.14.26l-.2.22a3 3 0 0 1-.28.91 4 4 0 0 0-.29.57 2.4 2.4 0 0 0-.46.27 1.7 1.7 0 0 1-.45.26q-.58.2-1 .36a2 2 0 0 1-.77.17.7.7 0 0 1-.25-.07 1.5 1.5 0 0 0-.34-.11 2.6 2.6 0 0 0-.48-.05 2.6 2.6 0 0 1-.48 0 4.5 4.5 0 0 0-.55-.79 2.14 2.14 0 0 1-.45-.89 4 4 0 0 0-.44-.48 1.55 1.55 0 0 0-.14-.79 1.6 1.6 0 0 1-.14-.7 2.2 2.2 0 0 1 .19-.77c0-.16.05-.32.07-.48a1.2 1.2 0 0 1 .07-.33 2.5 2.5 0 0 1 .48-.46.56.56 0 0 0 .21-.18 1.2 1.2 0 0 0 .19-.43.45.45 0 0 1 0-.19 1.5 1.5 0 0 1 .41-.36l.5-.31a.86.86 0 0 1 .63-.17 5 5 0 0 0 .91 0 1 1 0 0 0 .62.53 1.3 1.3 0 0 1 .68.53l.48.12a.6.6 0 0 1 .19.12 3.46 3.46 0 0 1 1.2 1.54Zm.14 8.3c-.06.32-.12.64-.17.94a5 5 0 0 0 0 1 1.1 1.1 0 0 0 .07.43 1.2 1.2 0 0 1 .07.44 2.8 2.8 0 0 1-.09.69 2.7 2.7 0 0 0-.1.75v.69a6 6 0 0 0 .05.7.5.5 0 0 0 0 .26v.27a3.23 3.23 0 0 0-.14 1.72 15 15 0 0 1 .14 1.88c0 .32-.08.64-.14 1a8 8 0 0 0-.15 1q-.09 1.11-.12 2.19c0 .72-.06 1.43-.12 2.14a2.4 2.4 0 0 0 0 .6 2.4 2.4 0 0 1 0 .55q0 .67-.12 1.29c0 .42-.1.82-.16 1.2a3 3 0 0 0 0 .84 8 8 0 0 1 0 .84 3 3 0 0 0 0 .44v.43a3 3 0 0 0 .1.36 1.6 1.6 0 0 1 0 .41 1.3 1.3 0 0 0 0 .31v.21a.2.2 0 0 0 0 .15.9.9 0 0 0 0 .5.6.6 0 0 1 0 .22l-.11.31a1 1 0 0 0-.08.41 3.6 3.6 0 0 0 .08.74 1.9 1.9 0 0 1 0 .75 5 5 0 0 0-.62.31 1.07 1.07 0 0 1-.82 0 .45.45 0 0 1-.29-.38.85.85 0 0 0-.24-.48A3.3 3.3 0 0 1 6.5 87a5 5 0 0 1-.5-.24.75.75 0 0 1-.5 0c-.21 0-.43-.09-.65-.12a2.8 2.8 0 0 0-.72-.1 1.3 1.3 0 0 1-.53-.09 1.36 1.36 0 0 1-.31-.7.62.62 0 0 0-.22-.46 2.7 2.7 0 0 0 .24-.76 1.9 1.9 0 0 0 0-.89 2.9 2.9 0 0 1-.05-.89 3 3 0 0 1 .1-.53 4 4 0 0 0 .05-.57 2 2 0 0 1 0-.48 1.6 1.6 0 0 1 .09-.46 1.3 1.3 0 0 0 .1-.17c0-.54.05-1.1.07-1.68s0-1 .07-1.25a1.6 1.6 0 0 1 0-.36 3 3 0 0 0 0-.36 16 16 0 0 1 .07-1.65 9 9 0 0 0 0-1.47 3.4 3.4 0 0 1 0-1 5 5 0 0 0 .19-.85A3.6 3.6 0 0 0 4 71a1.25 1.25 0 0 1 .17-.84 1.8 1.8 0 0 1-.12-1 7 7 0 0 0 .07-.91v-.72a5 5 0 0 1 0-.72 3 3 0 0 0 0-.5.9.9 0 0 1 0-.51c0-.35.05-.6.07-.74s0-.25 0-.31a.74.74 0 0 0-.07-.34.6.6 0 0 1-.07-.29 3 3 0 0 1 0-.33.6.6 0 0 0 0-.29c-.07-.39-.11-.65-.12-.79a.8.8 0 0 1 0-.36.34.34 0 0 0-.29-.29.42.42 0 0 1-.33-.24c-.07-.26-.13-.54-.19-.84a.61.61 0 0 1 .24-.7.9.9 0 0 1 .45-.07l.55.07a.6.6 0 0 0 .39.05.21.21 0 0 1 .19 0l.31.12a2 2 0 0 0 .36.12 7 7 0 0 0 1.11 0c.41 0 .82-.07 1.22-.12s.76-.08 1.08-.1a1.14 1.14 0 0 1 .67.12.32.32 0 0 1 .15.27.2.2 0 0 0 .24.26ZM43.3 87.57c0 .16 0 .26-.12.29a.41.41 0 0 0-.26.24.38.38 0 0 0-.12.26.2.2 0 0 1-.22.17 1 1 0 0 0-.43 0 .21.21 0 0 1-.19 0 .56.56 0 0 1-.29-.1 1.1 1.1 0 0 0-.38-.14 2.7 2.7 0 0 0-.94 0 4.6 4.6 0 0 1-.89.09 1.2 1.2 0 0 1-.31 0 1.2 1.2 0 0 0-.31 0h-.91a4.2 4.2 0 0 1-.92-.07 2 2 0 0 1-.36-.15.53.53 0 0 0-.4 0 .48.48 0 0 0-.22-.34.47.47 0 0 1-.22-.34 1.55 1.55 0 0 1 .1-.91 1.54 1.54 0 0 0 .1-.91 2.7 2.7 0 0 0 .33-1.06 1.4 1.4 0 0 1 0-.45v-.32a1.5 1.5 0 0 0 0-.72 4.6 4.6 0 0 1 0-.91v-2.12a6 6 0 0 0-.1-.74c0-.15-.06-.28-.09-.41.06-.32.08-.51 0-.55a.43.43 0 0 1 0-.22 1.6 1.6 0 0 0 0-.67 3 3 0 0 1-.12-.39.8.8 0 0 1 0-.26.8.8 0 0 0 .05-.26 5 5 0 0 0-.05-.8c0-.17-.07-.34-.1-.5a2 2 0 0 1 .05-.41.25.25 0 0 0-.19-.31A1.07 1.07 0 0 0 36 74a4.3 4.3 0 0 1-.1-.77v-.38a2 2 0 0 1-.1-.41v-.12c0-.13-.07-.28-.12-.46a4 4 0 0 0-.16-.5.94.94 0 0 0 0-.55c0-.18-.1-.36-.17-.55a1.2 1.2 0 0 0-.17-.46.7.7 0 0 1-.12-.17c-.19-.48-.36-.92-.5-1.32a6.3 6.3 0 0 1-.28-1.31 5 5 0 0 0-.51-.52 1.55 1.55 0 0 1-.4-.63c-.36-.19-.65-.36-.89-.5a1.87 1.87 0 0 0-1.18-.12 1 1 0 0 0-.34.07 2.4 2.4 0 0 1-.38.12 5.5 5.5 0 0 1-.7.22 2.1 2.1 0 0 0-.64.26c-.2.16-.33.24-.41.24a.25.25 0 0 0-.17 0 .67.67 0 0 0-.24.26 1.6 1.6 0 0 1-.19.27 3 3 0 0 0-.31.4 1.3 1.3 0 0 1-.17.22 3 3 0 0 1-.29.36 1.4 1.4 0 0 1-.38.31.32.32 0 0 1-.15.29.9.9 0 0 0-.24.24.66.66 0 0 1-.19.34.6.6 0 0 0-.14.09 2 2 0 0 0-.24.58.8.8 0 0 1-.39.48 1.6 1.6 0 0 1-.19.67 2.7 2.7 0 0 1-.38.48 1.21 1.21 0 0 1-.24 1 2.1 2.1 0 0 0-.48.72c-.07.35-.12.63-.17.84a5 5 0 0 1-.17.55 2.7 2.7 0 0 0-.14.51 1.1 1.1 0 0 1-.2.45 2.5 2.5 0 0 1-.14 1.3 6.3 6.3 0 0 0-.34 1.34.8.8 0 0 0 0 .34.8.8 0 0 1 0 .34c0 .28-.07.63-.1 1s-.06.77-.1 1.13a1.3 1.3 0 0 0 0 .24 3 3 0 0 1 0 .28 2.8 2.8 0 0 1-.07.65 2.8 2.8 0 0 0-.07.65.87.87 0 0 0 .06.53.9.9 0 0 1 0 .51 3.2 3.2 0 0 0 0 .67 4 4 0 0 0 .07.43 3 3 0 0 1 .07.36.4.4 0 0 0 .17.27 1.84 1.84 0 0 0 0 .81 2.6 2.6 0 0 0 .29.7.64.64 0 0 1-.1.74 1 1 0 0 1-1.1.41 7 7 0 0 0-1.54-.07 4.4 4.4 0 0 0-.67 0 4 4 0 0 1-.58 0L19 88a1.3 1.3 0 0 1-.62 0 .6.6 0 0 1-.29-.07 1 1 0 0 1-.24-.17 1.3 1.3 0 0 1-.48-.24.76.76 0 0 1-.12-.5 1.7 1.7 0 0 0 0-.51.8.8 0 0 0-.08-.31 1 1 0 0 1-.07-.36 7 7 0 0 1 .05-.77c0-.25.06-.51.1-.76a5 5 0 0 1 0-.7 3 3 0 0 0 .05-.6v-.53a.64.64 0 0 1 .21-.53c-.09-.25-.12-.42-.07-.5a.4.4 0 0 0 .07-.17 2.8 2.8 0 0 0-.09-.62V79c0-.32-.07-.64-.1-1s-.06-.69-.09-1.11a1.3 1.3 0 0 0-.05-.38 1 1 0 0 1-.05-.24 1 1 0 0 0 0-.55 1 1 0 0 1-.07-.32 4 4 0 0 1 .1-.86c0-.1.06-.18.09-.27a1.3 1.3 0 0 0 .1-.26 1.2 1.2 0 0 1 0-.53.8.8 0 0 0 0-.24c0-.25-.07-.54-.12-.86a1.76 1.76 0 0 1 .17-1 5 5 0 0 1-.19-.53.4.4 0 0 1 .14-.48c-.06-.16-.13-.31-.19-.45a1.3 1.3 0 0 1-.1-.56 5.5 5.5 0 0 0 0-1.34 1.46 1.46 0 0 1 .16-1 1.3 1.3 0 0 1-.14-.93 4.7 4.7 0 0 0 .06-1.09c0-.1-.07-.19-.1-.29a1 1 0 0 1 0-.29 1.8 1.8 0 0 1-.05-.77 3 3 0 0 0 0-.72 4.8 4.8 0 0 1-.29-1.27 3.8 3.8 0 0 0-.19-1 .8.8 0 0 0 .21-.24c.05-.1.11-.19.17-.29a2 2 0 0 1 .79 0 .68.68 0 0 1 .6.34.62.62 0 0 1 .51-.15l.55.1h2.83l.24.24a1 1 0 0 1 .19.29 3.2 3.2 0 0 1 .28 1.05c0 .53.1 1 .16 1.47.16 0 .25 0 .27-.14a.4.4 0 0 1 .12-.29l.48-.29a2.7 2.7 0 0 0 .48-.38 2 2 0 0 0 .31-.12.5.5 0 0 1 .36 0 .67.67 0 0 0 .24-.25 1.6 1.6 0 0 1 .19-.27 1.3 1.3 0 0 0 .58-.38l.29-.1a.23.23 0 0 0 .19-.24.74.74 0 0 0 .5-.17l.46-.31a3.5 3.5 0 0 0 .62-.36l.24-.17a.46.46 0 0 1 .27 0 1.1 1.1 0 0 0 .4 0l.58-.15.67-.14a1.6 1.6 0 0 1 .34-.05l.48-.07h.38a2.1 2.1 0 0 0 .77.15 3.4 3.4 0 0 1 .62 0 5.6 5.6 0 0 0 .85.24l.55.09a1.07 1.07 0 0 0 .53.24l.6.22a1.8 1.8 0 0 1 .45.36 2 2 0 0 1 .19.21.4.4 0 0 1 .1.27c.19.16.38.3.55.43a4.6 4.6 0 0 1 .55.48.6.6 0 0 1 .15.24.6.6 0 0 0 .14.24 1.4 1.4 0 0 0 .31.24 1.5 1.5 0 0 1 .32.24.9.9 0 0 1 .24.29.42.42 0 0 0 .28.24.67.67 0 0 0 .27.55 1.35 1.35 0 0 1 .36.46 2.2 2.2 0 0 1 .12.5.8.8 0 0 0 .26.51 2 2 0 0 0 .27.81 9 9 0 0 1 .4.82 2.4 2.4 0 0 1 .15.45 3 3 0 0 0 .14.46c.07.16.11.3.15.41A2.4 2.4 0 0 0 41 69a3 3 0 0 1 .14.69 1 1 0 0 0 0 .32 6.7 6.7 0 0 1 .58 1.72c.06.32.11.53.14.63a1 1 0 0 1 0 .24 2.4 2.4 0 0 1 .05.43 30 30 0 0 1 .09.82 1.2 1.2 0 0 1 .05.38.7.7 0 0 1 0 .36.94.94 0 0 0 0 .41 6 6 0 0 0 .15.79c.06.27.12.54.19.79s.05.28 0 .34a.32.32 0 0 0-.13.29 1.8 1.8 0 0 1 .17.43 4 4 0 0 1 .12.48.9.9 0 0 1 0 .24.7.7 0 0 0 0 .29 3.4 3.4 0 0 0 0 .62.6.6 0 0 1-.25.58 2.4 2.4 0 0 1 .29 1 2.3 2.3 0 0 1-.14 1c-.07.16 0 .25.05.27s.12.1.09.26a1.08 1.08 0 0 0-.12.7 1.5 1.5 0 0 1 0 .69.7.7 0 0 1-.07.36.6.6 0 0 0-.08.31.41.41 0 0 0 .05.41.36.36 0 0 1-.05.46 1.2 1.2 0 0 0 .17.41.8.8 0 0 1 0 .6.6.6 0 0 0 .24.21l.28.17c-.06.22 0 .36.1.41s.19.27.19.46M88.43 56a.68.68 0 0 1-.17.67 1.67 1.67 0 0 0-.36.77 1 1 0 0 1-.24.17.56.56 0 0 0-.24.26c-.13.26-.27.4-.43.43a2.1 2.1 0 0 1-.36.63 4 4 0 0 0-.41.57c0 .16 0 .25-.17.27a.38.38 0 0 0-.26.12 2 2 0 0 1-.86 1.39 4 4 0 0 1-1.06-.24.43.43 0 0 1-.12-.39.8.8 0 0 0-.07-.43c-.07-.13-.13-.24-.19-.33a3 3 0 0 1-.2-.34 1.5 1.5 0 0 0-.24-.29l-.24-.24a.8.8 0 0 0-.28-.36l-.2-.12-.19-.29L82 58l-.22-.24-.21-.24a1.5 1.5 0 0 0-.34-.17.24.24 0 0 1-.14-.12 3.2 3.2 0 0 0-1.2-.29 8 8 0 0 1-.92 0 .7.7 0 0 1-.28 0 1.2 1.2 0 0 0-.34 0 .9.9 0 0 0-.24 0l-.29.1a.6.6 0 0 1-.29 0 .5.5 0 0 0-.24 0 1 1 0 0 0-.33.26.48.48 0 0 1-.39.17 2.1 2.1 0 0 1-.5.7 1.06 1.06 0 0 0-.36.45c0 .1-.08.31-.14.63s-.15.56-.24.91a2.5 2.5 0 0 0-.1 1 2.26 2.26 0 0 0 .19 1 3.7 3.7 0 0 1 .29.89.5.5 0 0 1 .26.24l.17.34a2.4 2.4 0 0 1 .27.29.62.62 0 0 0 .36.19.47.47 0 0 0 .09.33.38.38 0 0 1 .1.29 3.5 3.5 0 0 1 .86.72.94.94 0 0 0 .36.41.17.17 0 0 1 .08.26 1.2 1.2 0 0 1 .47.24l.24.24a2.6 2.6 0 0 1 .77.6 1.8 1.8 0 0 0 .63.51.66.66 0 0 0 .19.38.72.72 0 0 1 .19.39.3.3 0 0 1 .34.09c.06.1.19.13.38.1a.6.6 0 0 0 .27.33l.35.2.87.67a4.5 4.5 0 0 1 .62.53 1 1 0 0 0 .2.21l.19.17a13 13 0 0 1 1 1.08 7 7 0 0 0 .77.79 3.9 3.9 0 0 0 .67 1.35 1.4 1.4 0 0 0 .44.86 1.5 1.5 0 0 0 .09.79c.1.21.19.41.29.6a5 5 0 0 1 .17.58 1.5 1.5 0 0 1 0 .58.7.7 0 0 1 0 .36.4.4 0 0 0 0 .26 2 2 0 0 0 .07.48 4 4 0 0 1 .12.53 1.5 1.5 0 0 0 0 .65 1.2 1.2 0 0 1 0 .31 4 4 0 0 1-.14.57 1 1 0 0 0 0 .58.52.52 0 0 0-.14.62.63.63 0 0 1-.15.34 1.3 1.3 0 0 0-.19.24 1.5 1.5 0 0 1-.1.77 2.3 2.3 0 0 1-.26.48.65.65 0 0 1-.41.29c0 .22 0 .36-.07.4a.46.46 0 0 0-.17.17 1.5 1.5 0 0 1-.45.65 4 4 0 0 0-.51.5 5 5 0 0 1-.43.49l-.48.47-.31.34-.27.29a.6.6 0 0 1-.31.14 2.2 2.2 0 0 0-.45.15 7 7 0 0 1-.85.33 3.2 3.2 0 0 1-.69.15 1.7 1.7 0 0 0-.6.12.4.4 0 0 1-.22.07A1 1 0 0 1 80 88a2 2 0 0 0-.36-.12 1.4 1.4 0 0 1-.76.14l-.88-.16a4 4 0 0 0-.64-.07 1.5 1.5 0 0 1-.65-.17 7 7 0 0 0-.63.24 4.7 4.7 0 0 0-1-.19 6.6 6.6 0 0 1-1-.2 2 2 0 0 1-.39-.14l-.38-.19a.9.9 0 0 0-.48-.07.76.76 0 0 1-.43-.07 2 2 0 0 1-.29-.21l-.29-.22a4 4 0 0 0-.55-.34.53.53 0 0 1-.31-.33c-.33.06-.55 0-.68-.19a.62.62 0 0 0-.57-.29.31.31 0 0 1-.08-.27.27.27 0 0 0-.07-.26c-.16-.06-.26-.06-.31 0s-.14.08-.26.05a3 3 0 0 0-.17-.29 1.4 1.4 0 0 1-.17-.29 1.3 1.3 0 0 0-.33-.19.94.94 0 0 1-.44-.34 1.1 1.1 0 0 0-.24-.31l-.14-.12a4.7 4.7 0 0 1-.46-.84 2 2 0 0 0-.41-.65v-.62a8 8 0 0 0-.64-1 2.1 2.1 0 0 1-.36-1.29.9.9 0 0 0 .21-.22 2 2 0 0 1 .17-.22.9.9 0 0 1 .31-.12.6.6 0 0 0 .31-.12 4 4 0 0 1 .53-.24.59.59 0 0 0 .39-.43 1 1 0 0 0 .43-.09l.43-.2a2 2 0 0 1 .43-.26L69 77c.09-.1.18-.19.26-.29a1.2 1.2 0 0 1 .26-.24c.19.06.32.07.36 0s.2 0 .46.12a2.08 2.08 0 0 1 .77 1.3 1.9 1.9 0 0 0 .26.72c.11.16.22.32.31.48a5.5 5.5 0 0 0 .63.72 5 5 0 0 0 .81.67 5 5 0 0 1 .53.39 5 5 0 0 0 .43.33 1.3 1.3 0 0 0 .36 0 2.5 2.5 0 0 1 .46 0l.34.09a.7.7 0 0 0 .28 0 7.6 7.6 0 0 0 1.35.07 5 5 0 0 0 1.2-.21l.74-.22a2.6 2.6 0 0 0 .65-.31 3.7 3.7 0 0 0 .6-.53 3 3 0 0 0 .46-.72 1.4 1.4 0 0 1 .16-.41.2.2 0 0 0 .12.04 1.2 1.2 0 0 0 0-.34 2.4 2.4 0 0 1 0-.43c0-.13.07-.27.1-.41a1.5 1.5 0 0 1 .09-.31 2.5 2.5 0 0 0-.09-.7 4.4 4.4 0 0 1-.15-.69 5 5 0 0 0-.43-.48 1.27 1.27 0 0 1-.33-.63l-.79-.67a1.47 1.47 0 0 1-.51-1 .9.9 0 0 0-.34-.12.8.8 0 0 1-.33-.12 1.1 1.1 0 0 0-.27-.77c-.17-.19-.36-.38-.55-.57a1 1 0 0 0-.17-.27l-.21-.17c-.13-.22-.26-.35-.39-.38s-.4-.32-.62-.48a7.5 7.5 0 0 1-1.13-1.08 6.9 6.9 0 0 0-1.22-1.13 1.2 1.2 0 0 0-.24-.62 2.5 2.5 0 0 0-.43-.43 3.53 3.53 0 0 0-.79-1.76.5.5 0 0 0 0-.39 2 2 0 0 1-.2-.38 1.9 1.9 0 0 0-.24-.46 1.4 1.4 0 0 0-.14-.16 5 5 0 0 1-.12-.8 2.1 2.1 0 0 0-.22-.79c0-.13.08-.24.12-.34a.8.8 0 0 0 .08-.38 3.2 3.2 0 0 1-.15-.72c0-.13 0-.19-.14-.19a.9.9 0 0 0 0-.65 2.1 2.1 0 0 1-.19-.65 4 4 0 0 1 0-.69q0-.36.09-.6a1.6 1.6 0 0 1 .1-.77 4 4 0 0 1 .24-.58 3.4 3.4 0 0 1 .38-.86l.46-.77a2.2 2.2 0 0 0 .26-.72.9.9 0 0 0 .43-.43 1.6 1.6 0 0 1 .34-.48c.38-.32.62-.51.72-.58a5 5 0 0 1 .6-.43l.55-.34a1.6 1.6 0 0 0 .58-.24.28.28 0 0 1 .19-.09 1.8 1.8 0 0 0 .48-.1.4.4 0 0 1 .14-.05 2.7 2.7 0 0 1 .68-.09 6 6 0 0 0 .72-.05h.53a1.8 1.8 0 0 1 .67.07 1.4 1.4 0 0 1 .33.12 1.5 1.5 0 0 0 .34.12 6.5 6.5 0 0 0 1.53 0l.32.21c.11.08.21.16.31.22a1.78 1.78 0 0 1 1.1.48 3.1 3.1 0 0 1 1.16.41l.72.5.24.1a.44.44 0 0 0 .28 0 1.4 1.4 0 0 0 .36.45c.15.12.28.24.41.36a8 8 0 0 0 .94.34 2.1 2.1 0 0 1 .65.29.9.9 0 0 0 .28.12.35.35 0 0 1 .24.12.74.74 0 0 1 .26.43M107.34 63a2.4 2.4 0 0 0 0 .67.36.36 0 0 1 0 .29.66.66 0 0 1-.33.45 1.5 1.5 0 0 0-.43.32 1.06 1.06 0 0 0-.87-.1 5 5 0 0 1-.77.24h-.62a1.9 1.9 0 0 0-.72.14 2.4 2.4 0 0 1-.62.19.8.8 0 0 1-.44 0 .57.57 0 0 0-.43.1 1.65 1.65 0 0 0-.12.94 3.3 3.3 0 0 1 0 1 4.7 4.7 0 0 0 0 1.22 5.4 5.4 0 0 1 .08.84v.82a1.3 1.3 0 0 0 .17.72 1.75 1.75 0 0 0-.17.69v.8A5.6 5.6 0 0 0 102 74a15 15 0 0 1 .09 1.54c0 .22 0 .42-.07.6a6 6 0 0 1-.07.55 1 1 0 0 0 0 .48.5.5 0 0 1 0 .19 8 8 0 0 0 0 1.11v1.29a2.5 2.5 0 0 1-.05.63 1.5 1.5 0 0 0 0 .33c0 .26.07.53.12.82a1.08 1.08 0 0 1-.27.86.6.6 0 0 0 .07.27 1.2 1.2 0 0 1 .12.26 1.05 1.05 0 0 0 0 .58.8.8 0 0 1 .07.29 3.1 3.1 0 0 0-.05.89c0 .24.07.47.1.69a2.44 2.44 0 0 1-.62 2l-1.23-.19a3.6 3.6 0 0 0-1.22 0c-.19 0-.39.07-.58.12a1.16 1.16 0 0 1-.67-.07.9.9 0 0 0-.34.12.5.5 0 0 1-.28.07.34.34 0 0 1-.34-.1.8.8 0 0 0-.34-.19 6 6 0 0 1 0-1.44 14 14 0 0 0 0-1.83 1.6 1.6 0 0 0 0-.4 3 3 0 0 1-.1-.41 3.2 3.2 0 0 1 0-.7 5 5 0 0 0 0-.74 1.2 1.2 0 0 1 0-.31 1.3 1.3 0 0 0 0-.32c0-.12 0-.19-.07-.21s-.08-.12-.08-.31a5.3 5.3 0 0 1 .12-1.16c.08-.35.15-.7.22-1.05a5 5 0 0 1-.1-.84v-.46a4 4 0 0 0-.14-.43 1.2 1.2 0 0 1-.1-.48 1 1 0 0 1 0-.29.8.8 0 0 0-.07-.33 8 8 0 0 1 0-1.47 6.8 6.8 0 0 0 0-1.27 3.6 3.6 0 0 1-.14-.84 3 3 0 0 0 0-.55c0-.23-.05-.47-.07-.72a4.6 4.6 0 0 1 0-.82 1.2 1.2 0 0 1 .05-.34 1 1 0 0 0 0-.33 1.1 1.1 0 0 0-.07-.43 1.2 1.2 0 0 1-.07-.44 5 5 0 0 1 .07-.81 5 5 0 0 0 .07-.82c0-.09-.07-.2-.1-.31a1.2 1.2 0 0 1 0-.31 2.3 2.3 0 0 1 .07-.91 1.7 1.7 0 0 0 0-.87 14 14 0 0 0-1.54.39l-.39.02a1.3 1.3 0 0 0-.4.12 5 5 0 0 0-.63.19.5.5 0 0 1-.52-.14 2 2 0 0 1-.53-.63.8.8 0 0 1 .12-.62 3 3 0 0 1 .41-.48c-.07-.13-.07-.23 0-.29a.7.7 0 0 0 .14-.34 1.7 1.7 0 0 0 0-.5 1.3 1.3 0 0 1 .08-.55 3 3 0 0 1 .23-.53 1.6 1.6 0 0 0 .2-.48 1.7 1.7 0 0 0 0-.67A1.13 1.13 0 0 1 93 59c.09-.54.5-.75 1.2-.62a3 3 0 0 0 .53.14.44.44 0 0 1 .33.29 1 1 0 0 1 .65.1 1.13 1.13 0 0 0 .6.14 1.62 1.62 0 0 0 .29-1.15 13 13 0 0 1 0-1.54 1.6 1.6 0 0 0 0-.62c0-.13-.07-.26-.1-.38a3.8 3.8 0 0 1 0-1.35c0-.09.06-.2.1-.31a1.2 1.2 0 0 0 0-.31 1.4 1.4 0 0 0-.14-.67 1 1 0 0 0-.07-.44 3 3 0 0 0-.15-.24l-.12-.16a.4.4 0 0 1 0-.27c.23-.22.39-.33.48-.31a2 2 0 0 0 .39 0l.65-.14a1.7 1.7 0 0 1 .69 0 1.4 1.4 0 0 1 .67 0 4 4 0 0 0 .53.12 1.2 1.2 0 0 0 .34-.14 1.1 1.1 0 0 1 .29-.14.44.44 0 0 0 .38 0 .25.25 0 0 1 .34.12 3 3 0 0 0 .33.41.2.2 0 0 1 .1.17 3.4 3.4 0 0 1 0 1.08c-.05.46-.09.87-.12 1.22a2.5 2.5 0 0 1 0 .46V55a2.3 2.3 0 0 1 0 .39 2.4 2.4 0 0 0 0 .33 1.6 1.6 0 0 1 .12.65.7.7 0 0 0 0 .31 3 3 0 0 0 .14.6q.11.27-.24.6a1.06 1.06 0 0 1 0 .55c0 .18-.06.38-.1.6a2 2 0 0 0 0 .34v.34a1 1 0 0 1-.09.43.47.47 0 0 0 0 .43 1 1 0 0 0 .67-.14 2.2 2.2 0 0 1 .57-.29 1.4 1.4 0 0 1 .6-.07.85.85 0 0 0 .6-.22.41.41 0 0 0 .53 0 .3.3 0 0 1 .48.1 1.48 1.48 0 0 1 .82-.44 1.73 1.73 0 0 1 1 0 3 3 0 0 0 .29.51 1 1 0 0 1 .14.22.38.38 0 0 1 0 .26.7.7 0 0 0 0 .36 1.5 1.5 0 0 1 .07.5 2 2 0 0 0 0 .22 4 4 0 0 0 .14.62c.07.2.11.37.15.53ZM134.33 59.77l-.12.29a1.5 1.5 0 0 0-.12.34 1.5 1.5 0 0 0-.2.43c0 .13-.08.29-.14.48a2.3 2.3 0 0 0-.22.57.66.66 0 0 1-.12.34 3 3 0 0 1-.12.24 2 2 0 0 1-.16.29 1.07 1.07 0 0 0-.24.53c-.1.25-.2.47-.29.65a1.1 1.1 0 0 0-.15.55 3.8 3.8 0 0 0-.52.81.78.78 0 0 1-.39.44 5 5 0 0 1-.24.81c-.09.26-.19.5-.29.72s-.19.55-.28.79-.2.49-.29.75a2.1 2.1 0 0 0-.27.67 2.6 2.6 0 0 1-.07.43 4.3 4.3 0 0 0-.34.94 8 8 0 0 1-.28 1 5 5 0 0 1-.36.75l-.46.74c-.13.35-.22.58-.26.67l-.12.24a1.4 1.4 0 0 0-.12.46 2 2 0 0 1-.12.45 3.3 3.3 0 0 0-.36.82 2 2 0 0 1-.22.53 3.4 3.4 0 0 0-.36.91 1.06 1.06 0 0 1-.36.63 1.6 1.6 0 0 1-.1.62.56.56 0 0 1-.19.26.8.8 0 0 0-.19.27 2.4 2.4 0 0 0-.19.69 1.46 1.46 0 0 1-.24.65 7 7 0 0 0-.41.75 4.6 4.6 0 0 0-.26.69 7 7 0 0 0-.39.94 1.66 1.66 0 0 1-.53.79.41.41 0 0 1 0 .43 1.4 1.4 0 0 0-.2.34 5 5 0 0 0-.24.6 2 2 0 0 1-.14.41 3 3 0 0 1-.19.33 1.8 1.8 0 0 0-.19.39c-.07.13-.12.25-.17.36a.85.85 0 0 1-.27.31 6 6 0 0 1-.21.89 5 5 0 0 1-.36.79 3 3 0 0 0-.24.74 2.2 2.2 0 0 1-.15.56 5 5 0 0 1-.19.45 2 2 0 0 1-.19.36 1.7 1.7 0 0 1-.38.63 1.26 1.26 0 0 1-.12.57 5 5 0 0 0-.22.48c-.07.16-.12.31-.17.46a.83.83 0 0 1-.26.36 1.74 1.74 0 0 1-.1.86q-.13.34-.24.72c-.06.16 0 .24.1.24s.17.08.14.24a2.6 2.6 0 0 1-.14.58 1.2 1.2 0 0 0 0 .62.73.73 0 0 0-.36.31 2 2 0 0 1-.31.41 5.8 5.8 0 0 0-1.76 0 1.94 1.94 0 0 1-1.46-.24 4.7 4.7 0 0 1-1.9-.19 6.3 6.3 0 0 1-1.65-.77.9.9 0 0 0-.1-.43.57.57 0 0 1 0-.38 1.23 1.23 0 0 1 .27-.75 1.24 1.24 0 0 0 .21-.89 2.2 2.2 0 0 0 .48-.67 2.4 2.4 0 0 0 .24-.91 1.7 1.7 0 0 0 .22-.38 3 3 0 0 1 .17-.39 1.7 1.7 0 0 0 .12-.33.56.56 0 0 1 .12-.29 3.4 3.4 0 0 0 .24-.67 1.7 1.7 0 0 0 .29-.65.46.46 0 0 1 .28-.41v-.62a.34.34 0 0 0 .24-.32.7.7 0 0 1 .1-.36 1 1 0 0 1 .19-.21.7.7 0 0 0 .19-.31.8.8 0 0 0 .13-.34.66.66 0 0 1 .12-.34 2 2 0 0 0 .16-.31 3 3 0 0 1 .17-.31 13.6 13.6 0 0 1 1.39-2.16.86.86 0 0 1 .2-.63 4 4 0 0 0-.22-.43 3.5 3.5 0 0 1-.22-.43 1 1 0 0 0-.21-.53.36.36 0 0 1-.07-.43.34.34 0 0 1-.22-.24.34.34 0 0 0-.17-.24 1.9 1.9 0 0 0-.17-.82 1.6 1.6 0 0 1-.12-.86c-.16-.06-.25-.13-.26-.19a.44.44 0 0 0-.12-.19 5.2 5.2 0 0 1-.48-1.64.47.47 0 0 0-.19-.28.7.7 0 0 1-.24-.34q-.1-.28.09-.36a.29.29 0 0 0 .19-.31 2.6 2.6 0 0 1-.6-.94 5 5 0 0 0-.31-.79 5 5 0 0 1-.29-.48l-.19-.43c-.09-.32-.17-.54-.21-.65l-.12-.27a10 10 0 0 0-.44-1.24c-.12-.29-.24-.56-.33-.82a6 6 0 0 1-.36-.86 4.4 4.4 0 0 0-.27-.68 3 3 0 0 1-.16-.36l-.17-.36c-.07-.16-.11-.29-.15-.4a4 4 0 0 0-.14-.41 1 1 0 0 1-.22-.43 1 1 0 0 0-.12-.39c-.09-.22-.2-.46-.31-.72a1.45 1.45 0 0 1-.07-.86c-.19-.39-.39-.77-.6-1.15a4 4 0 0 1-.41-1.35 1.9 1.9 0 0 1-.36-.67 5 5 0 0 0-.31-.77l-.24-.33a2.4 2.4 0 0 1-.19-.39.7.7 0 0 1-.1-.34 1.6 1.6 0 0 0 0-.38c.2-.26.32-.44.39-.55a.46.46 0 0 1 .24-.22 1.5 1.5 0 0 1 .81.1c.13.06.36.18.68.36a.9.9 0 0 0 1 0 1 1 0 0 1 .4-.21 1.2 1.2 0 0 0 .27-.07l.57-.15.32-.14a.4.4 0 0 1 .26 0 .69.69 0 0 1 .53.62 1.3 1.3 0 0 1 .36.41.4.4 0 0 0 .17.22 1.7 1.7 0 0 0 .21.64 1.3 1.3 0 0 0 .22.27 2.7 2.7 0 0 0 .43.86l.34 1c.09.29.2.6.33.91a4 4 0 0 1 .15.46 3 3 0 0 0 .14.46c.06.13.14.26.22.41s.15.28.21.4a1 1 0 0 1 .1.36 1.4 1.4 0 0 0 .1.41 2.1 2.1 0 0 0 .35.75 5 5 0 0 1 .46.74c.16.42.3.76.41 1s.21.52.31.75a12 12 0 0 1 .46 1.2c.14.45.29.86.45 1.24a2.7 2.7 0 0 1 .22.46c0 .14.1.3.17.46a3 3 0 0 0 .21.45.78.78 0 0 1 .08.51 3.9 3.9 0 0 1 .57 1.22 2.85 2.85 0 0 0 .63 1.18 3.1 3.1 0 0 0 .69-1.23 3.3 3.3 0 0 1 .7-1.22.42.42 0 0 1 0-.27 3 3 0 0 0 .09-.26c.1-.29.18-.51.24-.67.13-.32.24-.63.34-.91l.17-.44c0-.12.1-.28.17-.48a2.8 2.8 0 0 1 .4-1 2.6 2.6 0 0 0 .41-1 .47.47 0 0 0 .19-.24.47.47 0 0 1 .24-.24 7 7 0 0 1 .27-1 6.5 6.5 0 0 1 .41-.89 6 6 0 0 1 .21-.69 1.7 1.7 0 0 1 .41-.6.46.46 0 0 1 .07-.46 2 2 0 0 0 .27-.45 1.1 1.1 0 0 1 .07-.51.35.35 0 0 0 .07-.17.9.9 0 0 1 .1-.43.6.6 0 0 1 .09-.14 4 4 0 0 0 .15-.6.94.94 0 0 1 .28-.55 1.4 1.4 0 0 1 .1-1 2 2 0 0 0 .12-1 .89.89 0 0 1 .79-1.2.84.84 0 0 0 .48-.17 3.4 3.4 0 0 0 1.78.15 10 10 0 0 1 1.8-.12 12 12 0 0 1 1.46.12 1.35 1.35 0 0 1 .29.86 5 5 0 0 1-.32.95M145.9 88.1c0 .32-.18.44-.53.38-.07.06-.08.17-.05.31a.26.26 0 0 1-.19.32 1.5 1.5 0 0 1-.84 0 1.7 1.7 0 0 1-.7-.28 7.1 7.1 0 0 0-2.4-.08 9.6 9.6 0 0 1-2.45 0c-.22-.23-.33-.3-.31-.22s-.06.11-.22.07a.86.86 0 0 1-.33-.52 4 4 0 0 1 0-.63v-.86a7 7 0 0 0 0-.75v-.79c0-.54 0-1.18-.1-1.92a3.2 3.2 0 0 1 .34-1.87.75.75 0 0 1-.12-.72 7 7 0 0 0 .17-.87 2.4 2.4 0 0 0-.08-.55.58.58 0 0 1 .17-.55.62.62 0 0 1-.17-.58 7 7 0 0 0 .12-.72 1.5 1.5 0 0 0 0-.36c0-.11 0-.21.14-.31a3.4 3.4 0 0 0-.17-.72 1.6 1.6 0 0 1 0-.86 2 2 0 0 1 0-.27.9.9 0 0 0 0-.36 1.06 1.06 0 0 1-.07-.48 2 2 0 0 0 0-.24 2.6 2.6 0 0 0 0-.48 3 3 0 0 1-.05-.57 2.5 2.5 0 0 0 .1-.53 1.4 1.4 0 0 0-.07-.46 3 3 0 0 1-.12-.45 6 6 0 0 0 0-1.25c0-.32-.1-.67-.16-1.06 0-.22-.07-.48-.1-.79a5 5 0 0 1 0-.94 2.8 2.8 0 0 0 0-.79 4 4 0 0 1-.12-.55 2 2 0 0 1 0-.48v-.48a1.4 1.4 0 0 1-.05-.6 1.1 1.1 0 0 0 .05-.26 3.5 3.5 0 0 0-.07-.58 7 7 0 0 1-.12-.72 4.7 4.7 0 0 1-.1-1v-1a1.5 1.5 0 0 1-.05-.35.83.83 0 0 0-.25-.33c.07-.19.07-.32 0-.38a.28.28 0 0 1-.09-.19.9.9 0 0 0 .09-.43.5.5 0 0 1-.05-.22 1.4 1.4 0 0 0 0-.67.9.9 0 0 1-.07-.33 4 4 0 0 1 0-.6 1 1 0 0 0-.1-.6.41.41 0 0 0 .19-.51 2 2 0 0 1-.09-.55 1.2 1.2 0 0 1 .14-.55.47.47 0 0 0 0-.51.43.43 0 0 0 .19-.28 1.2 1.2 0 0 1 .15-.34 1.7 1.7 0 0 1 .09-.94c.13-.36.24-.71.34-1 0-.16 0-.26-.07-.31a1.2 1.2 0 0 1-.22-.17c.07-.25.13-.51.19-.77a.73.73 0 0 1 .44-.52 15 15 0 0 0 1.77.16c.55 0 1.09 0 1.64.08a2.5 2.5 0 0 0 .4-.22 1 1 0 0 1 .41-.17 1.3 1.3 0 0 1 .62.22 6 6 0 0 0 .63.31 1.3 1.3 0 0 1 .22.46 4 4 0 0 0 .16.5c0 .16-.06.25-.19.26a.38.38 0 0 0-.29.22v.62a1.5 1.5 0 0 0 0 .75.8.8 0 0 1 .1.36 1.8 1.8 0 0 1 0 .62 2.5 2.5 0 0 0-.08.63 1.2 1.2 0 0 0 .05.31c0 .11.07.23.1.36a.5.5 0 0 0 0 .29l.09.24a5.7 5.7 0 0 1-.07.93 5.5 5.5 0 0 0-.07.89 1.4 1.4 0 0 1 0 .67.43.43 0 0 0 0 .29 7 7 0 0 0 .22.7 1 1 0 0 1 .07.26 3 3 0 0 0 0 .84c0 .21.06.39.09.55a8.6 8.6 0 0 1 .1 1.32 3.6 3.6 0 0 0 .24 1.28 1 1 0 0 0-.07.76 3 3 0 0 1 .12.87 4 4 0 0 1 0 .62 4.4 4.4 0 0 0-.05.67.4.4 0 0 1 0 .41 1.6 1.6 0 0 0-.17.46 7.4 7.4 0 0 0 .09 1.15 6.4 6.4 0 0 1 .1 1.15c0 .42 0 .87-.05 1.35a10 10 0 0 0 0 1.34 1.3 1.3 0 0 0 0 .55 1 1 0 0 1 0 .32 5 5 0 0 1-.12.67 2.5 2.5 0 0 0-.07.62 1.4 1.4 0 0 0 0 .5 3.4 3.4 0 0 1 .05.56 5 5 0 0 1 0 .57v.58c0 .45.07.88.12 1.3a11 11 0 0 1 .07 1.29 7 7 0 0 1-.07 1 3.3 3.3 0 0 0 0 1c0 .22.07.45.1.69s.07.49.1.75l.09.36a1 1 0 0 1 .05.36 5.6 5.6 0 0 1-.14 1.63 2.84 2.84 0 0 0 .01 1.61.86.86 0 0 0 .6.29 1 1 0 0 1 .65.29ZM177.44 73.89a3.3 3.3 0 0 0 0 .91.82.82 0 0 1-.1.53.6.6 0 0 1-.36.29.6.6 0 0 0-.36.28 1.8 1.8 0 0 0-.62-.07 2.2 2.2 0 0 0-.58.12 1.26 1.26 0 0 0-.94-.24 1.42 1.42 0 0 1-1-.24 1.16 1.16 0 0 1-.53.15 4.5 4.5 0 0 1-1.41-.05c-.5-.1-1-.18-1.52-.24h-2.1a4.6 4.6 0 0 1-.77.1 2.4 2.4 0 0 1-.69-.2 2.85 2.85 0 0 0-1.3-.12 2.6 2.6 0 0 1-.6.07 4.4 4.4 0 0 1-.77-.09 2 2 0 0 1-.53 0L163 75a4.4 4.4 0 0 0-.64 0 .6.6 0 0 1-.56-.24 1.3 1.3 0 0 1-.33.19 2 2 0 0 1-.53 0l-.36-.07h-.22a1.1 1.1 0 0 1-.55.05.46.46 0 0 0-.41.14.43.43 0 0 0-.33-.07.43.43 0 0 1-.34-.07 2.8 2.8 0 0 0-1 0 3.5 3.5 0 0 1-.81.09 3 3 0 0 1-.75-.09 2.2 2.2 0 0 0-.89 0 1.77 1.77 0 0 0-.16 1.08 1.9 1.9 0 0 0 .36 1 .6.6 0 0 1 0 .39.8.8 0 0 0-.07.38 5.4 5.4 0 0 0 .65.77 2.5 2.5 0 0 1 .41.48 4.7 4.7 0 0 0 .57.72 5 5 0 0 1 .63.77 1 1 0 0 0 .26.38 1.5 1.5 0 0 1 .31.38 1.9 1.9 0 0 1 .65.29c.18.13.39.27.65.43a3.4 3.4 0 0 1 .74.51 1.9 1.9 0 0 0 .56.36.73.73 0 0 0 .38.07.6.6 0 0 1 .29 0 2.4 2.4 0 0 1 .53.34 1.2 1.2 0 0 0 .62.29 4.3 4.3 0 0 1 .77 0 2.6 2.6 0 0 1 .43.07 1.86 1.86 0 0 0 1.15-.29h.39a2.3 2.3 0 0 0 .38 0 1.4 1.4 0 0 1 .65-.29.7.7 0 0 0 .36-.09.57.57 0 0 1 .26-.17l.22-.07a2.6 2.6 0 0 0 .5-.24c.15-.1.3-.21.46-.34a4.6 4.6 0 0 0 .62-.43 2.7 2.7 0 0 0 .84-.82 5 5 0 0 1 .8-.91 3.5 3.5 0 0 1 .19-1 2.8 2.8 0 0 1 .38-.72 2.4 2.4 0 0 1 .12-.84 3.4 3.4 0 0 1 .31-.6 4 4 0 0 0 .44-.1 1 1 0 0 1 .48 0 3 3 0 0 0 .26.17 3 3 0 0 0 .36.17.9.9 0 0 0 .31.12 3 3 0 0 1 .51.12 1.5 1.5 0 0 0 .48.14 1 1 0 0 1 .28.05 1.1 1.1 0 0 0 .7.14 1.1 1.1 0 0 1 .55.05 2.5 2.5 0 0 1 .63.58 1.83 1.83 0 0 1-.34 1 2 2 0 0 0-.22.65.9.9 0 0 1 0 .36.6.6 0 0 1-.14.24.57.57 0 0 0-.15.29 5 5 0 0 0-.14.55 2.1 2.1 0 0 1-.19.55c-.26.32-.46.56-.6.7a1.4 1.4 0 0 1-.46.31.27.27 0 0 1-.1.36 2 2 0 0 0-.28.22 1.4 1.4 0 0 1-.41.53l-.6.43a5 5 0 0 1-.79.57c-.28.17-.54.32-.8.49l-.72.59a1.3 1.3 0 0 1-.48.27 2 2 0 0 0-.36.17.35.35 0 0 1-.17.07 1.5 1.5 0 0 1-.52.1 1.9 1.9 0 0 0-.58.09 6 6 0 0 1-.91.27c-.26 0-.51.1-.77.16a4 4 0 0 1-.43.15 1.8 1.8 0 0 1-.58 0 1 1 0 0 0-.72 0 .4.4 0 0 1-.48 0c-.35.06-.65.13-.89.19a1.6 1.6 0 0 1-.64 0 1 1 0 0 1-.29 0l-.29-.1c-.61-.09-1.1-.16-1.46-.19a4.6 4.6 0 0 1-1-.19 1 1 0 0 0-.29 0c-.09 0-.17-.06-.24-.19a1.36 1.36 0 0 1-.89-.12 2.6 2.6 0 0 1-.64-.46.6.6 0 0 1-.27-.05l-.26-.09-.67-.31a1.16 1.16 0 0 1-.53-.56.68.68 0 0 1-.55-.19 5 5 0 0 0-.41-.38 1.16 1.16 0 0 1-.7-.22 1.8 1.8 0 0 1-.5-.5 6 6 0 0 0-.72-.77 11 11 0 0 1-.82-.89 1.45 1.45 0 0 0-.72-.5 1.2 1.2 0 0 0-.29-.48c-.12-.13-.25-.27-.38-.43a6 6 0 0 0-.34-.63 1.6 1.6 0 0 0-.19-.24c-.06-.25-.12-.5-.17-.74s-.1-.49-.16-.75a3.2 3.2 0 0 1-.15-.76 2 2 0 0 0 0-.48 1.5 1.5 0 0 0-.12-.29l-.12-.29a1.6 1.6 0 0 1 0-.48 2 2 0 0 0 0-.53c0-.16-.07-.31-.1-.45a2.3 2.3 0 0 1 0-.46 6 6 0 0 1 0-.7 6 6 0 0 0 .05-.74 2 2 0 0 0 0-.27v-.26a2 2 0 0 1 .17-.5 3 3 0 0 0 .17-.51 1.1 1.1 0 0 1 0-.62.26.26 0 0 0 0-.29.6.6 0 0 0 .14-.26 1.6 1.6 0 0 1 .1-.27 1 1 0 0 0 .05-.33 1.3 1.3 0 0 1 .09-.44c.16-.25.27-.4.31-.45l.12-.12a3 3 0 0 1 .1-.46.6.6 0 0 1 .14-.21 4.5 4.5 0 0 1 .32-.58l.12-.19a1.2 1.2 0 0 1 .09-.43.7.7 0 0 0 .1-.15 3 3 0 0 0 .12-.5 1.4 1.4 0 0 1 .12-.46 3 3 0 0 1 .24-.5 1.4 1.4 0 0 1 .38-.46c.16-.38.31-.71.43-1s.26-.54.39-.79a4.1 4.1 0 0 0 .74-.77 3.7 3.7 0 0 1 .75-.77.45.45 0 0 1 .21-.12 1.6 1.6 0 0 0 .31-.12c.36-.26.61-.46.77-.6a1.8 1.8 0 0 1 .58-.36 4 4 0 0 1 .89-.12 1 1 0 0 0 .84-.36 1.5 1.5 0 0 0 .57-.12 6 6 0 0 0 .58-.27l.43-.21a1.25 1.25 0 0 1 .67-.07 3 3 0 0 0 .65 0 4 4 0 0 0 .7-.12l.43-.1a3 3 0 0 1 .53 0 10 10 0 0 0 1.13.09h.93a2 2 0 0 0 .51-.07 2 2 0 0 1 .55-.07 2.4 2.4 0 0 0 .45 0 2.5 2.5 0 0 1 .46.05 2 2 0 0 0 .41.1h.12a1.1 1.1 0 0 1 .41.17 1.7 1.7 0 0 0 .4.21.36.36 0 0 0 .27.1.33.33 0 0 1 .26.1 3 3 0 0 1 .58.24c.22.06.43.12.62.19a.59.59 0 0 1 .39.43 2 2 0 0 1 .79.38 3.3 3.3 0 0 0 .5.39 1.7 1.7 0 0 1 .39.41 1.5 1.5 0 0 0 .43.4.7.7 0 0 0 .12.24.8.8 0 0 1 .12.29 2.6 2.6 0 0 1 .67.6 1.75 1.75 0 0 0 .82.55 2.5 2.5 0 0 0 .33.58 1.24 1.24 0 0 1 .24.67l.22.31c.08.12.17.25.26.41a1.4 1.4 0 0 0 .17.24.9.9 0 0 1 .17.29 11 11 0 0 0 .53 1 3 3 0 0 0 .26.33 1.8 1.8 0 0 1 .27.44 1.6 1.6 0 0 1 0 .38 1.6 1.6 0 0 0 .05.38c.07.17.11.3.15.41a2 2 0 0 0 .09.27 1.9 1.9 0 0 1 0 .74 3 3 0 0 0 0 .74c0 .2.06.4.07.6s0 .41.07.6a3.5 3.5 0 0 0 0 .63Zm-6.87-3.84a.35.35 0 0 0 0-.34.51.51 0 0 0-.26-.34c-.06-.22-.15-.36-.26-.4s-.12-.14 0-.27a1.2 1.2 0 0 0-.38-.24.3.3 0 0 1-.19-.38c-.16 0-.27 0-.31-.12a.45.45 0 0 0-.17-.22 1.2 1.2 0 0 1-.44-.48.84.84 0 0 0-.28-.38.31.31 0 0 0-.31 0c-.12.05-.17 0-.17-.21a1.72 1.72 0 0 1-1.18-.27 7 7 0 0 1-.79-.69 3.3 3.3 0 0 1-1 0 4.3 4.3 0 0 0-1 0 1.16 1.16 0 0 0-.7-.22 1.8 1.8 0 0 1-.74-.12.25.25 0 0 1-.22-.22c0-.11-.1-.16-.26-.16a.82.82 0 0 1-.65 0 2.5 2.5 0 0 0-.69-.2 2.3 2.3 0 0 1-.82.32 5 5 0 0 0-.86.21 1.5 1.5 0 0 0-.53.46 6 6 0 0 1-.43.5l-.68.77c-.22.26-.43.51-.62.77a.64.64 0 0 1-.05.45.62.62 0 0 0 0 .41 1.23 1.23 0 0 0-.45.75c-.08.33-.16.66-.22 1a3.3 3.3 0 0 0 .77 0l.91-.1a1 1 0 0 1 .31 0h.32a4.8 4.8 0 0 1 1.24-.12 7 7 0 0 0 1 0 6 6 0 0 0 .94-.07 1.34 1.34 0 0 1 .84.12 2.5 2.5 0 0 1 1.22-.19l1.13.09a1 1 0 0 0 .43 0h.1a14 14 0 0 1 2.76.07 9.5 9.5 0 0 0 2.69-.18" class="cls-1"/></g></g></svg>