<svg xmlns="http://www.w3.org/2000/svg" viewBox="0 0 197.7 38.6"><defs><style>.cls-1{fill:#fff;}</style></defs><g id="Layer_2" data-name="Layer 2"><g id="Layer_1-2" data-name="Layer 1"><path class="cls-1" d="M11.52,13.89c.23,0,.34.1.34.31V16a.3.3,0,0,1-.34.34H1.89c-.21,0-.31-.12-.31-.34V.61c0-.23.1-.34.31-.34h9.32a.3.3,0,0,1,.34.34V2.43a.3.3,0,0,1-.34.32H4.3V7h6.32c.23,0,.34.11.34.33v1.8a.3.3,0,0,1-.34.34H4.3v4.46Z"/><path class="cls-1" d="M18.79,2.27a1.69,1.69,0,0,0-1.35.56A2.26,2.26,0,0,0,17,4.34v.52h2.59a.3.3,0,0,1,.34.34V6.82a.3.3,0,0,1-.34.34H17V16a.3.3,0,0,1-.34.34H14.7a.3.3,0,0,1-.34-.34V4.34A4.31,4.31,0,0,1,15.5,1.13,3.93,3.93,0,0,1,18.39,0a8.27,8.27,0,0,1,1.37.09.32.32,0,0,1,.32.36V2c0,.23-.09.34-.27.34A7,7,0,0,0,18.79,2.27Z"/><path class="cls-1" d="M26.18,2.27a1.66,1.66,0,0,0-1.35.56,2.21,2.21,0,0,0-.48,1.51v.52h2.59a.3.3,0,0,1,.34.34V6.82a.3.3,0,0,1-.34.34H24.35V16a.3.3,0,0,1-.33.34H22.08a.31.31,0,0,1-.34-.34V4.34a4.31,4.31,0,0,1,1.14-3.21A3.94,3.94,0,0,1,25.77,0a8.49,8.49,0,0,1,1.38.09.31.31,0,0,1,.31.36V2c0,.23-.09.34-.27.34A6.94,6.94,0,0,0,26.18,2.27Z"/><path class="cls-1" d="M38.78,12.09a4.2,4.2,0,0,1-1.39,3.32,5.46,5.46,0,0,1-3.74,1.23,5.46,5.46,0,0,1-3.74-1.23,4.2,4.2,0,0,1-1.39-3.32v-3A4.31,4.31,0,0,1,29.91,5.7a5.38,5.38,0,0,1,3.74-1.27A5.38,5.38,0,0,1,37.39,5.7a4.31,4.31,0,0,1,1.39,3.37Zm-7.63,0a2.08,2.08,0,0,0,.64,1.64,2.72,2.72,0,0,0,1.86.56,2.72,2.72,0,0,0,1.86-.56,2,2,0,0,0,.64-1.64v-3a2.21,2.21,0,0,0-.65-1.7,2.64,2.64,0,0,0-1.85-.59,2.68,2.68,0,0,0-1.86.58,2.22,2.22,0,0,0-.64,1.71Z"/><path class="cls-1" d="M41.55,16.37a.31.31,0,0,1-.34-.34V5.67a.37.37,0,0,1,.25-.38,7.44,7.44,0,0,1,1.88-.64,10.23,10.23,0,0,1,2.06-.22,14.87,14.87,0,0,1,2.3.19c.19,0,.29.12.29.33V6.57a.25.25,0,0,1-.1.23.37.37,0,0,1-.26,0,12.94,12.94,0,0,0-1.82-.09,5.11,5.11,0,0,0-2,.32v9a.31.31,0,0,1-.34.34Z"/><path class="cls-1" d="M52.31,12.29a2.06,2.06,0,0,0,.46,1.44,1.67,1.67,0,0,0,1.32.52L55,14.2c.24,0,.36.11.36.32v1.71c0,.23-.1.35-.31.36-.51,0-.91.05-1.2.05a4.36,4.36,0,0,1-3-1,4,4,0,0,1-1.15-3.14V2.18c0-.21.11-.31.34-.31h1.71A.33.33,0,0,1,52,2a.37.37,0,0,1,.12.21l.2,2.7H54.7a.3.3,0,0,1,.34.32V6.82a.3.3,0,0,1-.34.32H52.31Z"/><path class="cls-1" d="M61,16.64a3.45,3.45,0,0,1-2.78-1.15,4.79,4.79,0,0,1-1-3.22V.61c0-.23.11-.34.33-.34h1.94a.3.3,0,0,1,.34.34V12.18a2.75,2.75,0,0,0,.36,1.59,1.3,1.3,0,0,0,1.12.48c.18,0,.47,0,.86-.05a.31.31,0,0,1,.34.34v1.67c0,.22-.09.34-.25.36A12.51,12.51,0,0,1,61,16.64Z"/><path class="cls-1" d="M73.54,11.32c0,.21-.11.32-.34.32H66.36v.63A1.88,1.88,0,0,0,67,13.81a2.68,2.68,0,0,0,1.74.53,5,5,0,0,0,1.71-.27,6.48,6.48,0,0,0,1.47-.77.41.41,0,0,1,.2-.06.29.29,0,0,1,.25.13l.92,1.24a.29.29,0,0,1-.07.47,7.11,7.11,0,0,1-4.57,1.56,6.11,6.11,0,0,1-2.44-.49,4,4,0,0,1-2.49-3.9V9.05a4.61,4.61,0,0,1,.7-2.61,4.1,4.1,0,0,1,1.83-1.52,6.13,6.13,0,0,1,2.43-.49,5.92,5.92,0,0,1,2.4.49,4,4,0,0,1,1.78,1.52,4.69,4.69,0,0,1,.68,2.61ZM71,9a2.18,2.18,0,0,0-.66-1.74,2.47,2.47,0,0,0-1.66-.56A2.51,2.51,0,0,0,67,7.28,2.21,2.21,0,0,0,66.36,9v.58H71Z"/><path class="cls-1" d="M83.33,15.68a5.74,5.74,0,0,1-3.44,1,7.5,7.5,0,0,1-4.57-1.47.25.25,0,0,1-.16-.22.35.35,0,0,1,.07-.23l.85-1.46c.08-.12.15-.18.23-.18a.78.78,0,0,1,.22.09,6,6,0,0,0,1.64.85,5.47,5.47,0,0,0,1.76.3A3,3,0,0,0,81.44,14,1.07,1.07,0,0,0,82,13a.91.91,0,0,0-.55-.88,6.11,6.11,0,0,0-1.54-.45,9.63,9.63,0,0,1-3.22-1.16A2.78,2.78,0,0,1,75.38,8,3,3,0,0,1,76.77,5.3a6.16,6.16,0,0,1,3.39-.89,8.12,8.12,0,0,1,3.91,1,.31.31,0,0,1,.18.25.45.45,0,0,1-.06.2l-.86,1.44a.3.3,0,0,1-.27.16l-.18,0A6,6,0,0,0,80,6.71a2.82,2.82,0,0,0-1.51.34A1,1,0,0,0,78,8a.92.92,0,0,0,.58.9,9.11,9.11,0,0,0,1.92.54,12.28,12.28,0,0,1,2.07.55A3.51,3.51,0,0,1,84,11a2.83,2.83,0,0,1,.62,1.91A3.24,3.24,0,0,1,83.33,15.68Z"/><path class="cls-1" d="M94.22,15.68a5.72,5.72,0,0,1-3.44,1,7.54,7.54,0,0,1-4.57-1.47.27.27,0,0,1-.16-.22.42.42,0,0,1,.07-.23L87,13.26c.07-.12.15-.18.22-.18a.8.8,0,0,1,.23.09,5.82,5.82,0,0,0,1.64.85,5.43,5.43,0,0,0,1.76.3,3,3,0,0,0,1.5-.34,1.08,1.08,0,0,0,.59-1,.91.91,0,0,0-.55-.88,6.11,6.11,0,0,0-1.54-.45,9.47,9.47,0,0,1-3.22-1.16A2.76,2.76,0,0,1,86.28,8,3,3,0,0,1,87.66,5.3a6.18,6.18,0,0,1,3.39-.89,8.16,8.16,0,0,1,3.92,1,.31.31,0,0,1,.18.25.37.37,0,0,1-.07.2l-.86,1.44A.3.3,0,0,1,94,7.5l-.18,0a5.94,5.94,0,0,0-2.85-.74,2.79,2.79,0,0,0-1.51.34,1,1,0,0,0-.54.9.93.93,0,0,0,.57.9,9.06,9.06,0,0,0,1.93.54,12.82,12.82,0,0,1,2.07.55A3.54,3.54,0,0,1,94.93,11a2.78,2.78,0,0,1,.62,1.91A3.21,3.21,0,0,1,94.22,15.68Z"/><path class="cls-1" d="M113.53,6.55a3,3,0,0,1-1.19,1.28,3.7,3.7,0,0,1,1.72,1.46,4.22,4.22,0,0,1,.58,2.26,4.45,4.45,0,0,1-1.46,3.54,6,6,0,0,1-4.05,1.28h-5.86c-.21,0-.31-.12-.31-.34V.61c0-.23.1-.34.31-.34h5.86a5.08,5.08,0,0,1,3.54,1.16,4.17,4.17,0,0,1,1.27,3.25A4.21,4.21,0,0,1,113.53,6.55ZM110.6,3.22A2.28,2.28,0,0,0,109,2.7h-3.38V6.78H109a2.3,2.3,0,0,0,1.57-.52,2,2,0,0,0,.59-1.53A1.88,1.88,0,0,0,110.6,3.22Zm-1.5,10.71a3.2,3.2,0,0,0,2-.58,2.16,2.16,0,0,0,.74-1.82,2.25,2.25,0,0,0-.7-1.75,3,3,0,0,0-2.09-.64h-3.42v4.79Z"/><path class="cls-1" d="M121.37,4.43a4.88,4.88,0,0,1,3.43,1.14A4.39,4.39,0,0,1,126.05,9v6.58a.39.39,0,0,1-.24.38,14.31,14.31,0,0,1-2.15.48,15,15,0,0,1-2.38.2,6.72,6.72,0,0,1-3.6-.9,3.15,3.15,0,0,1-1.42-2.86,3,3,0,0,1,1.34-2.69,6.26,6.26,0,0,1,3.59-.92,16.14,16.14,0,0,1,2.25.19V9a2.52,2.52,0,0,0-.5-1.75,2.38,2.38,0,0,0-1.75-.53,6.66,6.66,0,0,0-1.56.19,5,5,0,0,0-1.32.53.37.37,0,0,1-.2.07.27.27,0,0,1-.25-.16L117,6c-.11-.16-.11-.29,0-.38A7.55,7.55,0,0,1,121.37,4.43ZM119.55,14a3.44,3.44,0,0,0,1.73.37,9.25,9.25,0,0,0,2.16-.27V11.55a15.07,15.07,0,0,0-2.18-.18c-1.58,0-2.37.49-2.37,1.48A1.23,1.23,0,0,0,119.55,14Z"/><path class="cls-1" d="M131.3,12.29a2.06,2.06,0,0,0,.46,1.44,1.67,1.67,0,0,0,1.32.52l.92-.05c.24,0,.36.11.36.32v1.71c0,.23-.11.35-.32.36-.51,0-.9.05-1.19.05a4.41,4.41,0,0,1-3-1,4,4,0,0,1-1.14-3.14V2.18c0-.21.11-.31.33-.31h1.72A.33.33,0,0,1,131,2a.31.31,0,0,1,.11.21l.21,2.7h2.4c.23,0,.34.11.34.32V6.82c0,.21-.11.32-.34.32H131.3Z"/><path class="cls-1" d="M138.88,4.82a7.3,7.3,0,0,1,2.44-.39,5,5,0,0,1,3.55,1.25,5,5,0,0,1,1.35,3.84V16c0,.22-.1.34-.31.34h-2a.3.3,0,0,1-.34-.34V9.59A3,3,0,0,0,143,7.41,2.63,2.63,0,0,0,141,6.78a4.87,4.87,0,0,0-2.16.4V16a.3.3,0,0,1-.33.34h-1.94a.3.3,0,0,1-.34-.34V.61a.3.3,0,0,1,.34-.34h1.94c.22,0,.33.11.33.34Z"/><path class="cls-1" d="M149.26,16.37a.31.31,0,0,1-.34-.34V5.67a.36.36,0,0,1,.25-.38,7.44,7.44,0,0,1,1.88-.64,10.23,10.23,0,0,1,2.06-.22,14.87,14.87,0,0,1,2.3.19c.19,0,.29.12.29.33V6.57a.25.25,0,0,1-.1.23.37.37,0,0,1-.26,0,13,13,0,0,0-1.83-.09,5.18,5.18,0,0,0-2,.32v9a.3.3,0,0,1-.33.34Z"/><path class="cls-1" d="M167.09,12.09a4.21,4.21,0,0,1-1.4,3.32,6.29,6.29,0,0,1-7.47,0,4.21,4.21,0,0,1-1.4-3.32v-3a4.32,4.32,0,0,1,1.4-3.37,6.13,6.13,0,0,1,7.47,0,4.32,4.32,0,0,1,1.4,3.37Zm-7.63,0a2,2,0,0,0,.64,1.64,2.72,2.72,0,0,0,1.86.56,2.68,2.68,0,0,0,1.85-.56,2,2,0,0,0,.64-1.64v-3a2.18,2.18,0,0,0-.65-1.7A2.61,2.61,0,0,0,162,6.78a2.68,2.68,0,0,0-1.86.58,2.19,2.19,0,0,0-.64,1.71Z"/><path class="cls-1" d="M179.42,12.09A4.2,4.2,0,0,1,178,15.41a6.3,6.3,0,0,1-7.48,0,4.2,4.2,0,0,1-1.39-3.32v-3a4.31,4.31,0,0,1,1.39-3.37,6.14,6.14,0,0,1,7.48,0,4.31,4.31,0,0,1,1.39,3.37Zm-7.63,0a2.08,2.08,0,0,0,.64,1.64,3.37,3.37,0,0,0,3.72,0,2,2,0,0,0,.64-1.64v-3a2.21,2.21,0,0,0-.65-1.7,2.64,2.64,0,0,0-1.85-.59,2.68,2.68,0,0,0-1.86.58,2.22,2.22,0,0,0-.64,1.71Z"/><path class="cls-1" d="M191.13,4.68a5.88,5.88,0,0,1,1.73-.25,4.91,4.91,0,0,1,3.51,1.25,4.64,4.64,0,0,1,1.33,3.55V16c0,.22-.1.34-.31.34h-2a.3.3,0,0,1-.32-.34V9.14a2.06,2.06,0,0,0-2.32-2.34,3.56,3.56,0,0,0-2,.56,5.6,5.6,0,0,1,.3,1.82V16a.31.31,0,0,1-.34.34h-1.94a.31.31,0,0,1-.34-.34V9.14a2.45,2.45,0,0,0-.56-1.79,2.23,2.23,0,0,0-1.66-.57,6.55,6.55,0,0,0-1.81.24v9a.3.3,0,0,1-.33.34h-1.94a.31.31,0,0,1-.34-.34V5.72a.41.41,0,0,1,.27-.41,10.2,10.2,0,0,1,4.08-.88,5.13,5.13,0,0,1,3.26,1A7.79,7.79,0,0,1,191.13,4.68Z"/><path class="cls-1" d="M12.11,22.23a.3.3,0,0,1,.34.34v1.85c0,.21-.12.31-.34.31H7.59V38a.3.3,0,0,1-.32.34H5.2A.3.3,0,0,1,4.88,38V24.73H.34c-.23,0-.34-.1-.34-.31V22.57a.3.3,0,0,1,.34-.34Z"/><path class="cls-1" d="M12.49,38.33a.3.3,0,0,1-.33-.34V27.63a.37.37,0,0,1,.24-.38,7.85,7.85,0,0,1,1.88-.64,10.21,10.21,0,0,1,2.06-.21,14.85,14.85,0,0,1,2.3.18c.19,0,.29.12.29.33v1.63a.25.25,0,0,1-.1.22.36.36,0,0,1-.26,0,12.47,12.47,0,0,0-1.82-.1,5.11,5.11,0,0,0-2,.32v9a.31.31,0,0,1-.34.34Z"/><path class="cls-1" d="M24.76,26.4a4.93,4.93,0,0,1,3.43,1.13A4.41,4.41,0,0,1,29.44,31v6.57a.38.38,0,0,1-.24.38,15.42,15.42,0,0,1-2.16.49,16,16,0,0,1-2.37.19,6.58,6.58,0,0,1-3.6-.9,3.14,3.14,0,0,1-1.42-2.86A3,3,0,0,1,21,32.15a6.26,6.26,0,0,1,3.59-.91,17.58,17.58,0,0,1,2.25.18V31a2.54,2.54,0,0,0-.5-1.75,2.38,2.38,0,0,0-1.75-.53,6.18,6.18,0,0,0-1.56.2,4.39,4.39,0,0,0-1.32.53.45.45,0,0,1-.2.06.27.27,0,0,1-.25-.15L20.35,28c-.11-.16-.11-.29,0-.38A7.55,7.55,0,0,1,24.76,26.4ZM22.94,36a3.44,3.44,0,0,0,1.73.37,9.25,9.25,0,0,0,2.16-.27V33.51a15.07,15.07,0,0,0-2.18-.18c-1.58,0-2.37.5-2.37,1.49A1.2,1.2,0,0,0,22.94,36Z"/><path class="cls-1" d="M32.46,38.33a.3.3,0,0,1-.34-.34V27.68a.42.42,0,0,1,.25-.41,11.22,11.22,0,0,1,4.48-.87,5.65,5.65,0,0,1,3.84,1.22,4.86,4.86,0,0,1,1.38,3.82V38c0,.22-.1.34-.31.34h-2a.3.3,0,0,1-.34-.34V31.48a2.86,2.86,0,0,0-.65-2.12,2.73,2.73,0,0,0-2-.62,8.17,8.17,0,0,0-2.12.25v9a.3.3,0,0,1-.34.34Z"/><path class="cls-1" d="M52.25,37.64a5.77,5.77,0,0,1-3.45,1,7.54,7.54,0,0,1-4.57-1.47.27.27,0,0,1-.16-.22.42.42,0,0,1,.07-.23L45,35.22c.07-.12.15-.18.22-.18a.8.8,0,0,1,.23.09,5.85,5.85,0,0,0,1.64.86,5.69,5.69,0,0,0,1.76.29,2.92,2.92,0,0,0,1.5-.34,1.06,1.06,0,0,0,.59-1,.9.9,0,0,0-.55-.87,6.11,6.11,0,0,0-1.54-.45,9.68,9.68,0,0,1-3.22-1.16,2.79,2.79,0,0,1-1.33-2.58,3,3,0,0,1,1.38-2.65,6.2,6.2,0,0,1,3.39-.89,8.16,8.16,0,0,1,3.92,1c.12.08.18.16.18.25a.35.35,0,0,1-.07.2l-.85,1.44a.31.31,0,0,1-.28.16l-.18-.05a5.94,5.94,0,0,0-2.85-.74,2.79,2.79,0,0,0-1.51.34,1,1,0,0,0-.54.9.93.93,0,0,0,.57.9,9.25,9.25,0,0,0,1.93.54,12.82,12.82,0,0,1,2.07.55A3.63,3.63,0,0,1,53,33a2.8,2.8,0,0,1,.62,1.91A3.22,3.22,0,0,1,52.25,37.64Z"/><path class="cls-1" d="M60.15,24.24a1.69,1.69,0,0,0-1.36.55,2.28,2.28,0,0,0-.47,1.52v.51h2.59a.3.3,0,0,1,.34.34v1.62a.3.3,0,0,1-.34.34H58.32V38a.3.3,0,0,1-.34.34H56.05a.3.3,0,0,1-.34-.34V26.31a4.32,4.32,0,0,1,1.14-3.22A3.94,3.94,0,0,1,59.74,22a8.27,8.27,0,0,1,1.37.09.32.32,0,0,1,.32.36V24q0,.33-.27.33A7.11,7.11,0,0,0,60.15,24.24Z"/><path class="cls-1" d="M72.75,34.05a4.19,4.19,0,0,1-1.39,3.32,6.3,6.3,0,0,1-7.48,0,4.19,4.19,0,0,1-1.39-3.32V31a4.31,4.31,0,0,1,1.39-3.37,6.18,6.18,0,0,1,7.48,0A4.31,4.31,0,0,1,72.75,31Zm-7.63,0a2,2,0,0,0,.64,1.64,3.32,3.32,0,0,0,3.72,0,2.08,2.08,0,0,0,.64-1.64V31a2.19,2.19,0,0,0-.66-1.7,3.22,3.22,0,0,0-3.7,0A2.19,2.19,0,0,0,65.12,31Z"/><path class="cls-1" d="M75.52,38.33a.3.3,0,0,1-.34-.34V27.63a.36.36,0,0,1,.25-.38,7.85,7.85,0,0,1,1.88-.64,10.21,10.21,0,0,1,2.06-.21,15,15,0,0,1,2.3.18c.19,0,.29.12.29.33v1.63a.27.27,0,0,1-.1.22.37.37,0,0,1-.26,0,12.73,12.73,0,0,0-1.83-.1,5.18,5.18,0,0,0-2,.32v9a.3.3,0,0,1-.33.34Z"/><path class="cls-1" d="M93,26.64a5.88,5.88,0,0,1,1.73-.24,4.87,4.87,0,0,1,3.51,1.25,4.6,4.6,0,0,1,1.33,3.54V38c0,.22-.1.34-.31.34h-2A.3.3,0,0,1,97,38V31.1a2.06,2.06,0,0,0-2.32-2.34,3.56,3.56,0,0,0-2,.56A5.65,5.65,0,0,1,93,31.15V38a.3.3,0,0,1-.33.34H90.69a.31.31,0,0,1-.34-.34V31.1a2.45,2.45,0,0,0-.56-1.79,2.23,2.23,0,0,0-1.66-.57,6.19,6.19,0,0,0-1.81.25v9a.3.3,0,0,1-.33.34H84.05a.31.31,0,0,1-.34-.34V27.68a.42.42,0,0,1,.27-.41,10.18,10.18,0,0,1,4.08-.87,5.12,5.12,0,0,1,3.26,1A7.79,7.79,0,0,1,93,26.64Z"/><path class="cls-1" d="M106.61,26.4A4.94,4.94,0,0,1,110,27.53,4.44,4.44,0,0,1,111.29,31v6.57a.38.38,0,0,1-.25.38,15.27,15.27,0,0,1-2.15.49,16.09,16.09,0,0,1-2.37.19,6.64,6.64,0,0,1-3.61-.9,3.15,3.15,0,0,1-1.41-2.86,3,3,0,0,1,1.33-2.69,6.28,6.28,0,0,1,3.59-.91,17.58,17.58,0,0,1,2.26.18V31a2.49,2.49,0,0,0-.51-1.75,2.38,2.38,0,0,0-1.75-.53,6.18,6.18,0,0,0-1.56.2,4.62,4.62,0,0,0-1.32.53.41.41,0,0,1-.2.06.29.29,0,0,1-.25-.15l-.9-1.38c-.1-.16-.1-.29,0-.38A7.6,7.6,0,0,1,106.61,26.4ZM104.78,36a3.49,3.49,0,0,0,1.74.37,9.25,9.25,0,0,0,2.16-.27V33.51a15.08,15.08,0,0,0-2.19-.18c-1.57,0-2.36.5-2.36,1.49A1.21,1.21,0,0,0,104.78,36Z"/><path class="cls-1" d="M116.53,34.25a2.11,2.11,0,0,0,.46,1.44,1.67,1.67,0,0,0,1.32.52l.92,0c.24,0,.36.1.36.31v1.71c0,.23-.1.35-.31.36-.51,0-.91.05-1.2.05a4.31,4.31,0,0,1-3-1,4,4,0,0,1-1.15-3.14V24.15c0-.21.11-.32.34-.32H116a.33.33,0,0,1,.22.08.37.37,0,0,1,.12.21l.2,2.7h2.41a.3.3,0,0,1,.34.32v1.64a.3.3,0,0,1-.34.32h-2.39Z"/><path class="cls-1" d="M123.86,24.66a1.4,1.4,0,0,1-1,.43,1.49,1.49,0,0,1-1.06-2.53,1.46,1.46,0,0,1,1.06-.42,1.49,1.49,0,0,1,1,2.52Zm-2,13.67a.31.31,0,0,1-.34-.34V27c0-.21.12-.31.34-.31h2a.28.28,0,0,1,.32.31V38a.3.3,0,0,1-.32.34Z"/><path class="cls-1" d="M136.81,34.05a4.19,4.19,0,0,1-1.39,3.32,6.3,6.3,0,0,1-7.48,0,4.19,4.19,0,0,1-1.39-3.32V31a4.31,4.31,0,0,1,1.39-3.37,6.18,6.18,0,0,1,7.48,0A4.31,4.31,0,0,1,136.81,31Zm-7.63,0a2.08,2.08,0,0,0,.64,1.64,3.32,3.32,0,0,0,3.72,0,2,2,0,0,0,.64-1.64V31a2.21,2.21,0,0,0-.65-1.7,3.23,3.23,0,0,0-3.71,0,2.22,2.22,0,0,0-.64,1.71Z"/><path class="cls-1" d="M139.58,38.33a.31.31,0,0,1-.34-.34V27.68a.43.43,0,0,1,.25-.41A11.26,11.26,0,0,1,144,26.4a5.62,5.62,0,0,1,3.84,1.22,4.86,4.86,0,0,1,1.38,3.82V38c0,.22-.1.34-.31.34h-2a.31.31,0,0,1-.34-.34V31.48a2.82,2.82,0,0,0-.65-2.12,2.73,2.73,0,0,0-2-.62,8.09,8.09,0,0,0-2.11.25v9a.31.31,0,0,1-.34.34Z"/></g></g></svg>