<svg xmlns="http://www.w3.org/2000/svg" xmlns:xlink="http://www.w3.org/1999/xlink" viewBox="0 0 240.91 145.32"><defs><style>.cls-1{stroke-width:4.9px;fill:url(#linear-gradient);stroke:url(#linear-gradient);}</style><linearGradient id="linear-gradient" x1="229.88" y1="-3114.46" x2="37.95" y2="-3292.28" gradientTransform="matrix(1, 0, 0, -1, 0, -3116.18)" gradientUnits="userSpaceOnUse"><stop offset="0.3" stop-color="#1f90fb"/><stop offset="1" stop-color="#095db3"/></linearGradient></defs><g id="Layer_2" data-name="Layer 2"><g id="Layer_1-2" data-name="Layer 1"><path class="cls-1" d="M145.59,2.45a55.92,55.92,0,0,0-44.18,21.36l-1,1.33h0a9.08,9.08,0,0,1-10.24,3.14A49.87,49.87,0,0,0,26.1,90l.66,2a9,9,0,0,1-1.15,8.25,9.17,9.17,0,0,1-5.31,3.61l-.91.16h0a19.5,19.5,0,0,0,2.58,38.82l186.3,0a30.23,30.23,0,0,0,1-60.44h0a9.24,9.24,0,0,1-6.2-2.6,9,9,0,0,1-2.49-8.46A56.58,56.58,0,0,0,202,58.81l0-1.45A56.41,56.41,0,0,0,145.59,2.45Z"/></g></g></svg>