<svg xmlns="http://www.w3.org/2000/svg" viewBox="0 0 482.85 107.76"><defs><style>.cls-1{fill:#262626;}</style></defs><g id="Layer_2" data-name="Layer 2"><g id="Layer_1-2" data-name="Layer 1"><path class="cls-1" d="M31.87,39.67v-38h7.72L57.41,25.05V1.63h8.26v38H58.55L40.13,15.49V39.67Zm56.36.65c-9,0-15.71-6.68-15.71-15v-.11C72.52,16.79,79.26,10,88.33,10S104,16.68,104,25.05v.11C104,33.53,97.3,40.32,88.23,40.32Zm.1-7.12c4.73,0,7.56-3.64,7.56-7.93v-.11a7.74,7.74,0,0,0-7.66-8c-4.73,0-7.56,3.64-7.56,7.93v.11A7.74,7.74,0,0,0,88.33,33.2Zm38.85,6.47v-38h17.67c4.34,0,7.77,1.2,9.94,3.37a8.73,8.73,0,0,1,2.61,6.47v.11a8.84,8.84,0,0,1-5,8.2c4.4,1.69,7.12,4.24,7.12,9.35v.11c0,7-5.65,10.43-14.24,10.43ZM149.08,13v-.11c0-2.5-2-3.91-5.48-3.91h-8.26v8h7.71C146.75,17,149.08,15.81,149.08,13ZM151.2,28.1c0-2.56-1.9-4.13-6.19-4.13h-9.67v8.36h9.94c3.7,0,5.92-1.3,5.92-4.13Zm14.71,11.57V0h8.26V39.67ZM182.09,7.34V0h8.7V7.34Zm.22,32.33V10.54h8.26V39.67Zm16,0V10.54h8.26v4.13c1.9-2.44,4.35-4.67,8.53-4.67,6.25,0,9.89,4.13,9.89,10.81V39.67h-8.26V23.42c0-3.91-1.84-5.92-5-5.92s-5.16,2-5.16,5.92V39.67Zm45.82.54c-6.8,0-13.26-5.32-13.26-15v-.11c0-9.72,6.35-15,13.26-15a11.18,11.18,0,0,1,9.07,4.35V0h8.26V39.67h-8.26V35.49A10.7,10.7,0,0,1,244.15,40.21Zm2.11-7c3.86,0,7.07-3.2,7.07-8v-.11c0-4.83-3.21-8-7.07-8s-7.11,3.15-7.11,8v.11C239.15,30,242.41,33.2,246.26,33.2Zm53.3,7a24.22,24.22,0,0,1-16.14-6.08l4.94-5.93c3.42,2.83,7,4.62,11.36,4.62,3.42,0,5.49-1.35,5.49-3.58v-.11c0-2.12-1.31-3.21-7.66-4.84-7.67-1.95-12.61-4.07-12.61-11.63v-.11c0-6.9,5.54-11.46,13.31-11.46a22.07,22.07,0,0,1,14.13,4.83L308,12.23c-3.37-2.34-6.68-3.75-9.89-3.75s-4.89,1.46-4.89,3.31v.11c0,2.5,1.63,3.32,8.21,5,7.71,2,12.06,4.78,12.06,11.41v.11C313.52,36,307.76,40.21,299.56,40.21Zm20.36,8.16V10.54h8.26v4.19A10.69,10.69,0,0,1,337.25,10c6.79,0,13.26,5.33,13.26,15.05v.11c0,9.73-6.36,15.05-13.26,15.05a11.18,11.18,0,0,1-9.07-4.34v12.5ZM335.13,33.2c3.86,0,7.12-3.15,7.12-8v-.11c0-4.83-3.26-8-7.12-8s-7.06,3.21-7.06,8v.11C328.07,30,331.27,33.2,335.13,33.2Zm35.75,7.12c-9,0-15.71-6.68-15.71-15v-.11C355.17,16.79,361.91,10,371,10s15.7,6.68,15.7,15.05v.11C386.69,33.53,380,40.32,370.88,40.32ZM371,33.2c4.73,0,7.55-3.64,7.55-7.93v-.11a7.73,7.73,0,0,0-7.66-8c-4.73,0-7.55,3.64-7.55,7.93v.11A7.73,7.73,0,0,0,371,33.2Zm31.52,7c-5.05,0-8.48-2-8.48-8.75V17.61h-3.47V10.54H394V3.1h8.26v7.44h6.85v7.07h-6.85V30.05c0,1.9.82,2.83,2.67,2.83a8.39,8.39,0,0,0,4.07-1v6.63A12.2,12.2,0,0,1,402.51,40.16Zm22.94.05a20.36,20.36,0,0,1-12.5-4.4l3.53-5.43a16.49,16.49,0,0,0,9.18,3.48c2.4,0,3.48-.87,3.48-2.18v-.11c0-1.79-2.82-2.39-6-3.37-4.08-1.19-8.7-3.09-8.7-8.74v-.11c0-5.93,4.79-9.24,10.66-9.24a20.19,20.19,0,0,1,10.87,3.37l-3.16,5.7c-2.88-1.68-5.76-2.71-7.88-2.71s-3,.87-3,2v.11c0,1.63,2.77,2.39,5.92,3.47,4.08,1.36,8.81,3.32,8.81,8.64v.11C436.59,37.28,431.75,40.21,425.45,40.21Zm16.73-.54V31H451v8.69ZM0,99v-38H7.72L25.54,84.34V60.91H33.8V99H26.68L8.26,74.77V99Zm56.36.65c-9,0-15.71-6.69-15.71-15.06v-.1c0-8.37,6.74-15.17,15.82-15.17S72.17,76,72.17,84.34v.11C72.17,92.81,65.43,99.61,56.36,99.61Zm.11-7.12c4.72,0,7.55-3.64,7.55-7.94v-.1a7.74,7.74,0,0,0-7.66-8c-4.73,0-7.56,3.64-7.56,7.94v.11A7.74,7.74,0,0,0,56.47,92.49Zm47.49,7a15.55,15.55,0,0,1-12.45-5.71l5.27-5.87c2.18,2.4,4.3,3.81,7,3.81,3.15,0,5.11-1.9,5.11-6.31V60.91h8.58V85.8c0,4.52-1.3,7.88-3.58,10.17S108.09,99.5,104,99.5Zm30.83,0c-6.25,0-9.89-4.13-9.89-10.82V69.83h8.26V86.08c0,3.91,1.85,5.92,5,5.92s5.17-2,5.17-5.92V69.83h8.26V99h-8.26V94.83C141.42,97.27,139,99.5,134.79,99.5ZM172,107.76a27.72,27.72,0,0,1-12.88-3l2.83-6.2a19,19,0,0,0,9.83,2.66c5.66,0,8.32-2.71,8.32-7.93V91.84c-2.45,2.93-5.11,4.72-9.51,4.72-6.79,0-12.94-4.94-12.94-13.58v-.11c0-8.7,6.25-13.59,12.94-13.59a11.81,11.81,0,0,1,9.4,4.35v-3.8h8.26V92.38c0,5.22-1.25,9-3.7,11.47C181.86,106.56,177.67,107.76,172,107.76Zm1-18c4,0,7.12-2.77,7.12-6.74v-.11c0-4-3.1-6.74-7.12-6.74s-7.07,2.77-7.07,6.74V83C165.93,87,169,89.72,173,89.72Zm35.69,18a27.75,27.75,0,0,1-12.88-3l2.83-6.2a19,19,0,0,0,9.84,2.66c5.65,0,8.31-2.71,8.31-7.93V91.84c-2.45,2.93-5.11,4.72-9.51,4.72-6.79,0-12.93-4.94-12.93-13.58v-.11c0-8.7,6.25-13.59,12.93-13.59a11.81,11.81,0,0,1,9.4,4.35v-3.8h8.26V92.38c0,5.22-1.25,9-3.69,11.47C218.53,106.56,214.34,107.76,208.69,107.76Zm1-18c4,0,7.12-2.77,7.12-6.74v-.11c0-4-3.1-6.74-7.12-6.74s-7.06,2.77-7.06,6.74V83C202.61,87,205.65,89.72,209.67,89.72Zm23,9.24V59.28H241V99Zm16.18-32.34V59.28h8.7v7.34ZM249.1,99V69.83h8.26V99Zm16,0V69.83h8.26V74c1.9-2.45,4.35-4.68,8.53-4.68,6.25,0,9.89,4.13,9.89,10.82V99h-8.26V82.71c0-3.92-1.85-5.93-5-5.93s-5.16,2-5.16,5.93V99Zm46.9,8.8a27.72,27.72,0,0,1-12.88-3l2.83-6.2a18.93,18.93,0,0,0,9.83,2.66c5.65,0,8.32-2.71,8.32-7.93V91.84c-2.45,2.93-5.11,4.72-9.51,4.72-6.8,0-12.94-4.94-12.94-13.58v-.11c0-8.7,6.25-13.59,12.94-13.59a11.81,11.81,0,0,1,9.4,4.35v-3.8h8.26V92.38c0,5.22-1.25,9-3.7,11.47C321.86,106.56,317.67,107.76,312,107.76Zm1-18c4,0,7.12-2.77,7.12-6.74v-.11c0-4-3.1-6.74-7.12-6.74s-7.07,2.77-7.07,6.74V83C305.93,87,309,89.72,313,89.72ZM349.55,99l16.31-38.32h7.71L389.88,99h-8.75l-3.48-8.54H361.56L358.08,99Zm15-15.93h10.11L369.61,70.7Zm42.7,16.58a14.88,14.88,0,0,1-15.17-15.06v-.1a15,15,0,0,1,15.27-15.17c5.49,0,8.92,1.85,11.63,4.89l-5.05,5.44c-1.85-2-3.69-3.21-6.63-3.21-4.13,0-7.06,3.64-7.06,7.94v.11c0,4.45,2.88,8,7.39,8,2.77,0,4.67-1.2,6.68-3.1l4.84,4.89A14.67,14.67,0,0,1,407.25,99.61Zm27.13-.17c-5.06,0-8.48-2-8.48-8.74V76.89h-3.48V69.83h3.48V62.38h8.26v7.45H441v7.06h-6.85V89.34c0,1.9.82,2.82,2.66,2.82a8.43,8.43,0,0,0,4.08-1v6.63A12.2,12.2,0,0,1,434.38,99.44Zm22.93.06a20.39,20.39,0,0,1-12.49-4.4l3.53-5.44a16.39,16.39,0,0,0,9.18,3.48c2.39,0,3.48-.87,3.48-2.17v-.11c0-1.79-2.83-2.39-6-3.37-4.08-1.2-8.7-3.1-8.7-8.75v-.11c0-5.92,4.78-9.24,10.65-9.24a20.14,20.14,0,0,1,10.87,3.37l-3.15,5.71c-2.88-1.69-5.76-2.72-7.88-2.72s-3,.87-3,2v.11c0,1.63,2.77,2.39,5.92,3.48,4.08,1.36,8.81,3.31,8.81,8.64v.11C468.46,96.56,463.62,99.5,457.31,99.5ZM474.05,99v-8.7h8.8V99Z"/></g></g></svg>