<svg xmlns="http://www.w3.org/2000/svg" viewBox="0 0 128.93 36.07"><defs><style>.cls-1{fill:#008246;}.cls-2{fill:#fff;}</style></defs><g id="Layer_2" data-name="Layer 2"><g id="Layer_1-2" data-name="Layer 1"><rect class="cls-1" width="128.93" height="36.07"/><path class="cls-2" d="M10.89,19.51l1.58-.15a1.91,1.91,0,0,0,.58,1.17,1.74,1.74,0,0,0,1.18.37,1.82,1.82,0,0,0,1.18-.33,1,1,0,0,0,.4-.78.72.72,0,0,0-.17-.48,1.31,1.31,0,0,0-.58-.35c-.2-.07-.63-.18-1.31-.35a4.37,4.37,0,0,1-1.83-.8A2.11,2.11,0,0,1,11.53,15a2.19,2.19,0,0,1,1-.81A4,4,0,0,1,14.12,14a3.41,3.41,0,0,1,2.28.66,2.33,2.33,0,0,1,.8,1.77l-1.62.08a1.41,1.41,0,0,0-.45-.9,1.65,1.65,0,0,0-1-.27,1.9,1.9,0,0,0-1.11.29.6.6,0,0,0-.26.5.62.62,0,0,0,.24.49,4.49,4.49,0,0,0,1.5.54,8,8,0,0,1,1.75.58,2.21,2.21,0,0,1,.89.82,2.54,2.54,0,0,1-.06,2.57A2.25,2.25,0,0,1,16,22a4.48,4.48,0,0,1-1.75.29,3.46,3.46,0,0,1-2.34-.7A3,3,0,0,1,10.89,19.51Z"/><path class="cls-2" d="M20.61,22.13V15.45H18.22V14.09h6.4v1.36H22.24v6.68Z"/><path class="cls-2" d="M32.09,22.13H30.32l-.7-1.83H26.4l-.66,1.83H24l3.14-8h1.72ZM29.1,19,28,16,26.9,19Z"/><path class="cls-2" d="M33,22.13v-8h3.42a6,6,0,0,1,1.87.21,1.9,1.9,0,0,1,.94.77,2.38,2.38,0,0,1,.35,1.27,2.16,2.16,0,0,1-.54,1.5,2.53,2.53,0,0,1-1.59.74,3.87,3.87,0,0,1,.87.68,9,9,0,0,1,.93,1.3l1,1.57H38.25l-1.18-1.75a10.24,10.24,0,0,0-.85-1.18,1.36,1.36,0,0,0-.49-.34,2.72,2.72,0,0,0-.82-.09h-.33v3.36Zm1.62-4.64h1.2a5.93,5.93,0,0,0,1.46-.1.89.89,0,0,0,.46-.34,1,1,0,0,0,.16-.6,1,1,0,0,0-.21-.66,1,1,0,0,0-.62-.32c-.13,0-.52,0-1.18,0H34.58Z"/><path class="cls-2" d="M42.88,22.13V15.45H40.49V14.09h6.4v1.36H44.51v6.68Z"/><path class="cls-2" d="M51.07,22.13v-8h5.52v1.36H52.7v1.9h3.35v1.36H52.7v3.42Z"/><path class="cls-2" d="M57.88,22.13v-8H59.5v8Z"/><path class="cls-2" d="M61.09,22.13v-8h1.63v6.63h4v1.35Z"/><path class="cls-2" d="M67.87,22.13v-8h1.62v8Z"/><path class="cls-2" d="M71.06,22.13v-8h1.58l3.29,5.37V14.09h1.51v8H75.81l-3.24-5.25v5.25Z"/><path class="cls-2" d="M82.9,19.17V17.82h3.51V21a4.55,4.55,0,0,1-1.48.87,5.43,5.43,0,0,1-2,.38,4.45,4.45,0,0,1-2.2-.53,3.41,3.41,0,0,1-1.41-1.52,4.93,4.93,0,0,1-.47-2.14,4.51,4.51,0,0,1,.53-2.23A3.54,3.54,0,0,1,81,14.35a4.12,4.12,0,0,1,1.93-.4,3.87,3.87,0,0,1,2.34.63,2.82,2.82,0,0,1,1.08,1.73l-1.61.31a1.75,1.75,0,0,0-.64-.94,2,2,0,0,0-1.17-.34,2.21,2.21,0,0,0-1.7.67,2.84,2.84,0,0,0-.63,2,3.15,3.15,0,0,0,.64,2.15,2.11,2.11,0,0,0,1.67.72,2.85,2.85,0,0,0,1-.2,3.36,3.36,0,0,0,.88-.49v-1Z"/><path class="cls-2" d="M91,22.13v-8h1.58l3.3,5.37V14.09h1.51v8H95.8l-3.25-5.25v5.25Z"/><path class="cls-2" d="M98.82,18.16a5.26,5.26,0,0,1,.36-2.07,4.12,4.12,0,0,1,.75-1.1,3.05,3.05,0,0,1,1-.72,4.29,4.29,0,0,1,1.74-.32,3.79,3.79,0,0,1,2.84,1.1,4.21,4.21,0,0,1,1.07,3.07,4.21,4.21,0,0,1-1.06,3.05,4.22,4.22,0,0,1-5.68,0A4.13,4.13,0,0,1,98.82,18.16Zm1.67-.06a3,3,0,0,0,.63,2.07,2.17,2.17,0,0,0,3.2,0,3.12,3.12,0,0,0,.62-2.1,3,3,0,0,0-.6-2.06,2.25,2.25,0,0,0-3.23,0A3,3,0,0,0,100.49,18.1Z"/><path class="cls-2" d="M109,22.13l-1.92-8h1.66L110,19.61l1.47-5.52h1.93l1.41,5.62L116,14.09h1.63l-2,8H114l-1.6-6-1.6,6Z"/></g></g></svg>