<svg xmlns="http://www.w3.org/2000/svg" viewBox="0 0 150.86 29.86"><defs><style>.cls-1{fill:#fff;}</style></defs><g id="Layer_2" data-name="Layer 2"><g id="Layer_1-2" data-name="Layer 1"><path class="cls-1" d="M23,12.57,22.93,1l4.89,0a7.15,7.15,0,0,1,3.27.72,5.36,5.36,0,0,1,2.21,2,5.8,5.8,0,0,1,.8,3,5.79,5.79,0,0,1-.78,3,5.32,5.32,0,0,1-2.2,2.05,7.1,7.1,0,0,1-3.27.74Zm1.65-1.44h3.13a5.38,5.38,0,0,0,2.49-.56A4,4,0,0,0,31.87,9a4.44,4.44,0,0,0,.57-2.28,4.35,4.35,0,0,0-.59-2.28,4,4,0,0,0-1.63-1.52,5.45,5.45,0,0,0-2.5-.54H24.59Z"/><path class="cls-1" d="M40.33,12.62A5.08,5.08,0,0,1,37.85,12a4.15,4.15,0,0,1-1.66-1.58,4.46,4.46,0,0,1-.6-2.32,4.67,4.67,0,0,1,.57-2.32,4.25,4.25,0,0,1,1.56-1.59A4.6,4.6,0,0,1,40,3.65a4.51,4.51,0,0,1,2.26.56,4,4,0,0,1,1.54,1.58,4.88,4.88,0,0,1,.56,2.37,1.85,1.85,0,0,1,0,.23,1.81,1.81,0,0,1,0,.25l-7.47,0V7.52l6.65,0-.65.4a3,3,0,0,0-.35-1.5,2.73,2.73,0,0,0-1-1,3.16,3.16,0,0,0-2.95,0,2.62,2.62,0,0,0-1,1A3.2,3.2,0,0,0,37.15,8v.27a3,3,0,0,0,.41,1.56,2.74,2.74,0,0,0,1.14,1.07,3.48,3.48,0,0,0,1.67.37A3.63,3.63,0,0,0,41.79,11a3.06,3.06,0,0,0,1.11-.79l.89,1a4,4,0,0,1-1.48,1.07A5.41,5.41,0,0,1,40.33,12.62Z"/><path class="cls-1" d="M49.07,12.59a7.17,7.17,0,0,1-2.08-.3,4.76,4.76,0,0,1-1.55-.72l.66-1.26a5.9,5.9,0,0,0,3.09.9,3,3,0,0,0,1.59-.32,1,1,0,0,0,.49-.88.76.76,0,0,0-.3-.64A2,2,0,0,0,50.18,9c-.33-.07-.69-.14-1.09-.2s-.79-.14-1.19-.23a4.53,4.53,0,0,1-1.09-.39,2.11,2.11,0,0,1-.8-.71,2.2,2.2,0,0,1-.3-1.22,2.24,2.24,0,0,1,.44-1.39A2.89,2.89,0,0,1,47.41,4a5.68,5.68,0,0,1,2-.33,7.6,7.6,0,0,1,1.75.21,4.31,4.31,0,0,1,1.45.58l-.68,1.26a3.58,3.58,0,0,0-1.24-.54A5.68,5.68,0,0,0,49.35,5a2.9,2.9,0,0,0-1.56.35,1,1,0,0,0-.51.87.78.78,0,0,0,.31.68,2,2,0,0,0,.8.37,8.82,8.82,0,0,0,1.08.23c.4.06.8.13,1.2.22a5.11,5.11,0,0,1,1.08.39,2.05,2.05,0,0,1,.8.69A2.12,2.12,0,0,1,52.86,10a2.15,2.15,0,0,1-.46,1.38,3,3,0,0,1-1.31.91A6,6,0,0,1,49.07,12.59Z"/><path class="cls-1" d="M58.68,12.56A4.83,4.83,0,0,1,56.29,12a4.21,4.21,0,0,1-1.66-1.58A4.46,4.46,0,0,1,54,8.08a4.47,4.47,0,0,1,.59-2.32,4.25,4.25,0,0,1,1.64-1.59,5.06,5.06,0,0,1,2.39-.58,4.7,4.7,0,0,1,2.13.47,3.38,3.38,0,0,1,1.46,1.39L61,6.24a2.66,2.66,0,0,0-1.06-1A2.74,2.74,0,0,0,58.64,5a3.14,3.14,0,0,0-1.54.38A2.82,2.82,0,0,0,56,6.44a3.09,3.09,0,0,0-.39,1.64A3.15,3.15,0,0,0,56,9.71a2.74,2.74,0,0,0,1.08,1.08,3,3,0,0,0,1.54.37A2.89,2.89,0,0,0,60,10.85a2.57,2.57,0,0,0,1-.95l1.21.76a3.53,3.53,0,0,1-1.44,1.4A4.59,4.59,0,0,1,58.68,12.56Z"/><path class="cls-1" d="M68,12.53a4.51,4.51,0,0,1-2-.41,3,3,0,0,1-1.33-1.27,4.29,4.29,0,0,1-.48-2.14l0-5.05h1.59l0,4.87a2.72,2.72,0,0,0,.62,1.94,2.33,2.33,0,0,0,1.75.64,3,3,0,0,0,1.44-.34,2.28,2.28,0,0,0,.94-1,3.51,3.51,0,0,0,.33-1.58V3.64h1.59l0,8.78H71V10.05l.25.63A3,3,0,0,1,69.94,12,4,4,0,0,1,68,12.53Z"/><path class="cls-1" d="M75.53,12.4l0-12.29h1.59V6l-.15,2,.1,2V12.4Zm4.65.09a4.15,4.15,0,0,1-2-.5,3.64,3.64,0,0,1-1.43-1.5A5.26,5.26,0,0,1,76.19,8a5.21,5.21,0,0,1,.53-2.49A3.63,3.63,0,0,1,78.16,4a4.06,4.06,0,0,1,2-.51,4.62,4.62,0,0,1,2.29.56A4.15,4.15,0,0,1,84,5.64,4.67,4.67,0,0,1,84.61,8,4.64,4.64,0,0,1,84,10.34a4.11,4.11,0,0,1-1.57,1.58A4.7,4.7,0,0,1,80.18,12.49ZM80,11.09a3.06,3.06,0,0,0,1.52-.38,2.76,2.76,0,0,0,1-1.09A3.3,3.3,0,0,0,83,8a3.15,3.15,0,0,0-.4-1.63,2.73,2.73,0,0,0-1.06-1.07,3.21,3.21,0,0,0-3,0,2.86,2.86,0,0,0-1.06,1.07A3.29,3.29,0,0,0,77.08,8a3.42,3.42,0,0,0,.4,1.63,2.69,2.69,0,0,0,1.06,1.08A2.93,2.93,0,0,0,80,11.09Z"/><path class="cls-1" d="M86.82,12.37l0-8.78h1.53V6l-.16-.6A2.76,2.76,0,0,1,89.4,4a4.29,4.29,0,0,1,2.12-.48V5l-.19,0h-.17a2.72,2.72,0,0,0-2,.77A3,3,0,0,0,88.4,8v4.37Z"/><path class="cls-1" d="M97.33,12.43a5.19,5.19,0,0,1-2.48-.57,4.11,4.11,0,0,1-1.66-1.59A4.42,4.42,0,0,1,92.59,8a4.78,4.78,0,0,1,.56-2.33,4.18,4.18,0,0,1,1.57-1.58A4.5,4.5,0,0,1,97,3.47,4.43,4.43,0,0,1,99.24,4a3.92,3.92,0,0,1,1.53,1.57A4.9,4.9,0,0,1,101.34,8c0,.06,0,.14,0,.23s0,.17,0,.25l-7.48,0V7.34l6.64,0-.64.4a3,3,0,0,0-.35-1.51,2.7,2.7,0,0,0-1-1,3.11,3.11,0,0,0-3,0,2.6,2.6,0,0,0-1,1,3.06,3.06,0,0,0-.36,1.53V8a3,3,0,0,0,.41,1.57,2.72,2.72,0,0,0,1.14,1.06,3.46,3.46,0,0,0,1.67.38,3.63,3.63,0,0,0,1.42-.27A3.21,3.21,0,0,0,99.9,10l.88,1a3.82,3.82,0,0,1-1.48,1.07A5.2,5.2,0,0,1,97.33,12.43Z"/><path class="cls-1" d="M108,12.3,108,0h1.59l0,12.29Z"/><path class="cls-1" d="M115.2,12.37a4.22,4.22,0,0,1-1.72-.32,2.6,2.6,0,0,1-1.13-.92,2.35,2.35,0,0,1-.41-1.33,2.44,2.44,0,0,1,.34-1.29,2.33,2.33,0,0,1,1.11-.94,5.11,5.11,0,0,1,2.07-.35h2.79V8.35h-2.72a2.43,2.43,0,0,0-1.6.4,1.29,1.29,0,0,0-.41,1,1.23,1.23,0,0,0,.51,1,2.34,2.34,0,0,0,1.43.39,3,3,0,0,0,1.56-.41,2.23,2.23,0,0,0,1-1.16l.32,1.09a2.51,2.51,0,0,1-1.11,1.24A4,4,0,0,1,115.2,12.37Zm2.88-.11V10.41l-.08-.35V6.9a2.06,2.06,0,0,0-.59-1.57,2.5,2.5,0,0,0-1.77-.55,4.63,4.63,0,0,0-1.52.27,3.8,3.8,0,0,0-1.26.69l-.66-1.19a4.62,4.62,0,0,1,1.62-.84,6.63,6.63,0,0,1,2-.3,4,4,0,0,1,2.78.87,3.38,3.38,0,0,1,1,2.68l0,5.3Z"/><path class="cls-1" d="M125.05,12.34a7.16,7.16,0,0,1-2.08-.29,5,5,0,0,1-1.55-.73l.66-1.26a5.67,5.67,0,0,0,3.09.9,3,3,0,0,0,1.59-.31,1,1,0,0,0,.49-.88.77.77,0,0,0-.3-.65,2,2,0,0,0-.79-.34q-.5-.12-1.08-.21c-.4-.06-.8-.13-1.2-.23A4.53,4.53,0,0,1,122.79,8a2.11,2.11,0,0,1-.8-.71,2.18,2.18,0,0,1-.3-1.22,2.24,2.24,0,0,1,.44-1.39,2.8,2.8,0,0,1,1.26-.92,5.24,5.24,0,0,1,2-.33,7.58,7.58,0,0,1,1.75.2,4.52,4.52,0,0,1,1.45.58l-.68,1.26a3.78,3.78,0,0,0-1.24-.54,5.15,5.15,0,0,0-1.29-.14,2.82,2.82,0,0,0-1.56.34,1,1,0,0,0-.51.87.81.81,0,0,0,.31.69,2.28,2.28,0,0,0,.8.37,8.91,8.91,0,0,0,1.08.22c.4.06.8.13,1.2.23a4.91,4.91,0,0,1,1.08.38,2.16,2.16,0,0,1,.8.7,2.07,2.07,0,0,1,.31,1.19,2.1,2.1,0,0,1-.46,1.37,3,3,0,0,1-1.31.91A5.51,5.51,0,0,1,125.05,12.34Z"/><path class="cls-1" d="M4.65,29.86a4.72,4.72,0,0,1-2.39-.57A4.28,4.28,0,0,1,.6,27.71,4.55,4.55,0,0,1,0,25.39a4.45,4.45,0,0,1,.59-2.32,4.18,4.18,0,0,1,1.64-1.59,5.06,5.06,0,0,1,2.39-.58,4.57,4.57,0,0,1,2.13.47,3.38,3.38,0,0,1,1.46,1.39L7,23.54a2.76,2.76,0,0,0-1-.94,2.93,2.93,0,0,0-1.34-.31,3.14,3.14,0,0,0-1.54.39A2.82,2.82,0,0,0,2,23.75a3.25,3.25,0,0,0-.39,1.63A3.19,3.19,0,0,0,2,27,2.87,2.87,0,0,0,3.09,28.1a3.13,3.13,0,0,0,1.54.37A2.86,2.86,0,0,0,6,28.16a2.57,2.57,0,0,0,1-.95L8.23,28a3.58,3.58,0,0,1-1.45,1.41A4.46,4.46,0,0,1,4.65,29.86Z"/><path class="cls-1" d="M13.91,29.83a4.55,4.55,0,0,1-2.35-.57,4.22,4.22,0,0,1-1.63-1.59,4.47,4.47,0,0,1-.6-2.31A4.36,4.36,0,0,1,9.92,23a4.17,4.17,0,0,1,1.61-1.59,4.9,4.9,0,0,1,2.35-.58,4.78,4.78,0,0,1,2.35.57A4.22,4.22,0,0,1,17.86,23a4.56,4.56,0,0,1,.59,2.33,4.44,4.44,0,0,1-.58,2.32,4.22,4.22,0,0,1-1.62,1.6A4.62,4.62,0,0,1,13.91,29.83Zm0-1.39a3,3,0,0,0,1.51-.38,2.69,2.69,0,0,0,1-1.09,3.44,3.44,0,0,0,.38-1.63,3.33,3.33,0,0,0-.39-1.63,2.7,2.7,0,0,0-1.05-1.07,3.09,3.09,0,0,0-1.52-.38,3,3,0,0,0-1.51.39,2.84,2.84,0,0,0-1.05,1.07,3.15,3.15,0,0,0-.4,1.63A3.35,3.35,0,0,0,11.34,27a2.89,2.89,0,0,0,1.06,1.08A3,3,0,0,0,13.91,28.44Z"/><path class="cls-1" d="M20.67,29.71l0-12.29h1.59l0,12.29Z"/><path class="cls-1" d="M29.2,29.79a5.1,5.1,0,0,1-2.48-.58,4.21,4.21,0,0,1-1.66-1.58A5,5,0,0,1,25,23,4.2,4.2,0,0,1,26.6,21.4a4.6,4.6,0,0,1,2.26-.58,4.47,4.47,0,0,1,2.25.56A4,4,0,0,1,32.65,23a4.86,4.86,0,0,1,.56,2.37v.23c0,.09,0,.18,0,.25l-7.47,0V24.69l6.64,0-.65.4a2.87,2.87,0,0,0-.35-1.5,2.7,2.7,0,0,0-1-1,3.18,3.18,0,0,0-3,0,2.62,2.62,0,0,0-1,1.05A3.2,3.2,0,0,0,26,25.12v.27A3.1,3.1,0,0,0,26.43,27,2.86,2.86,0,0,0,27.57,28a3.64,3.64,0,0,0,1.68.37,3.55,3.55,0,0,0,1.41-.27,2.93,2.93,0,0,0,1.12-.8l.88,1a3.87,3.87,0,0,1-1.48,1.06A5.21,5.21,0,0,1,29.2,29.79Z"/><path class="cls-1" d="M39.26,29.75a5,5,0,0,1-2.4-.57,4.32,4.32,0,0,1-1.65-1.58,4.79,4.79,0,0,1,0-4.64,4.21,4.21,0,0,1,1.65-1.59,4.91,4.91,0,0,1,2.39-.58,4.63,4.63,0,0,1,2.13.47,3.3,3.3,0,0,1,1.45,1.39l-1.2.78a2.81,2.81,0,0,0-1.06-.95,3,3,0,0,0-1.33-.3,3,3,0,0,0-1.54.39,2.78,2.78,0,0,0-1.08,1.07,3.25,3.25,0,0,0-.39,1.63,3.29,3.29,0,0,0,.4,1.64A2.84,2.84,0,0,0,37.69,28a3.07,3.07,0,0,0,1.55.38,2.92,2.92,0,0,0,1.33-.31,2.73,2.73,0,0,0,1-1l1.21.76a3.46,3.46,0,0,1-1.45,1.41A4.57,4.57,0,0,1,39.26,29.75Z"/><path class="cls-1" d="M48.58,29.72a4.94,4.94,0,0,1-2.39-.57,4.3,4.3,0,0,1-1.66-1.59,4.8,4.8,0,0,1,0-4.63,4.11,4.11,0,0,1,1.64-1.59,4.94,4.94,0,0,1,2.39-.58,4.57,4.57,0,0,1,2.13.47,3.32,3.32,0,0,1,1.46,1.39l-1.21.78a2.79,2.79,0,0,0-1-.95,3.19,3.19,0,0,0-2.88.09,2.75,2.75,0,0,0-1.07,1.07,3.25,3.25,0,0,0-.39,1.63,3.19,3.19,0,0,0,.4,1.64A2.84,2.84,0,0,0,47,28a3,3,0,0,0,1.54.38A2.86,2.86,0,0,0,49.89,28a2.6,2.6,0,0,0,1-1l1.22.76a3.58,3.58,0,0,1-1.45,1.41A4.58,4.58,0,0,1,48.58,29.72Z"/><path class="cls-1" d="M54.86,19.13a1,1,0,0,1-.77-.29,1,1,0,0,1-.31-.73,1,1,0,0,1,.3-.75,1.06,1.06,0,0,1,.77-.3,1.12,1.12,0,0,1,.78.29,1,1,0,0,1,.3.72,1,1,0,0,1-.29.75A1,1,0,0,1,54.86,19.13ZM54.1,29.6l0-8.77h1.59l0,8.78Z"/><path class="cls-1" d="M62.48,29.68a4.65,4.65,0,0,1-2.35-.58,4.22,4.22,0,0,1-1.63-1.59,4.77,4.77,0,0,1,0-4.63,4.41,4.41,0,0,1,1.62-1.59,4.87,4.87,0,0,1,2.35-.58,4.81,4.81,0,0,1,2.35.57,4.15,4.15,0,0,1,1.62,1.57,4.41,4.41,0,0,1,.6,2.32,4.54,4.54,0,0,1-.58,2.32,4.22,4.22,0,0,1-1.62,1.6A4.78,4.78,0,0,1,62.48,29.68Zm0-1.39A3.17,3.17,0,0,0,64,27.9,2.69,2.69,0,0,0,65,26.81a3.73,3.73,0,0,0,0-3.26A2.73,2.73,0,0,0,64,22.48a2.94,2.94,0,0,0-1.51-.37,3,3,0,0,0-1.51.38,2.94,2.94,0,0,0-1.06,1.07,3.58,3.58,0,0,0,0,3.27A2.78,2.78,0,0,0,61,27.91,3,3,0,0,0,62.48,28.29Z"/><path class="cls-1" d="M69.24,29.55l0-8.77h1.52v2.37l-.25-.63a3.1,3.1,0,0,1,1.32-1.34,4.25,4.25,0,0,1,2.09-.49,4.08,4.08,0,0,1,1.89.4,3,3,0,0,1,1.29,1.26,4.37,4.37,0,0,1,.47,2.14l0,5.05H76l0-4.87a2.69,2.69,0,0,0-.62-1.92,2.33,2.33,0,0,0-1.75-.64,3.26,3.26,0,0,0-1.48.34,2.22,2.22,0,0,0-1,1A3.4,3.4,0,0,0,70.81,25l0,4.52Z"/><path class="cls-1" d="M84.43,29.61A5.08,5.08,0,0,1,82,29a4.15,4.15,0,0,1-1.66-1.58,4.55,4.55,0,0,1-.6-2.32,4.67,4.67,0,0,1,.57-2.32,4.2,4.2,0,0,1,1.57-1.59,4.56,4.56,0,0,1,2.25-.58,4.51,4.51,0,0,1,2.26.56,4,4,0,0,1,1.54,1.58,4.88,4.88,0,0,1,.56,2.37,1.85,1.85,0,0,1,0,.23,1.81,1.81,0,0,1,0,.25l-7.47,0V24.51l6.65,0-.65.4a3,3,0,0,0-.35-1.5,2.73,2.73,0,0,0-1-1,3.16,3.16,0,0,0-2.95,0,2.62,2.62,0,0,0-1,1.05,3.2,3.2,0,0,0-.36,1.53v.27a3,3,0,0,0,.41,1.56,2.74,2.74,0,0,0,1.14,1.07,3.48,3.48,0,0,0,1.67.37,3.63,3.63,0,0,0,1.42-.27,2.9,2.9,0,0,0,1.11-.8l.89,1a3.87,3.87,0,0,1-1.48,1.06A5.21,5.21,0,0,1,84.43,29.61Z"/><path class="cls-1" d="M93.17,29.58a7.52,7.52,0,0,1-2.08-.29,5,5,0,0,1-1.55-.73l.66-1.26a5.9,5.9,0,0,0,3.09.9,3,3,0,0,0,1.59-.32,1,1,0,0,0,.49-.88.76.76,0,0,0-.3-.64,2,2,0,0,0-.79-.35c-.32-.07-.69-.14-1.08-.2s-.8-.14-1.2-.23a4.53,4.53,0,0,1-1.09-.39,2.11,2.11,0,0,1-.8-.71,2.51,2.51,0,0,1,.14-2.61,2.89,2.89,0,0,1,1.26-.93,5.68,5.68,0,0,1,1.95-.33,7.6,7.6,0,0,1,1.75.21,4.31,4.31,0,0,1,1.45.58L96,22.66a3.58,3.58,0,0,0-1.24-.54A5.68,5.68,0,0,0,93.45,22a2.81,2.81,0,0,0-1.56.35,1,1,0,0,0-.51.87.82.82,0,0,0,.31.69,2.48,2.48,0,0,0,.8.37,9,9,0,0,0,1.08.21c.4.06.8.14,1.2.23a4.92,4.92,0,0,1,1.08.39,2.05,2.05,0,0,1,.8.69A2.12,2.12,0,0,1,97,27a2.15,2.15,0,0,1-.46,1.38,3,3,0,0,1-1.31.91A6,6,0,0,1,93.17,29.58Z"/><path class="cls-1" d="M103.41,29.44l0-8.77h1.53V23l-.15-.59a2.71,2.71,0,0,1,1.23-1.4,4.25,4.25,0,0,1,2.11-.48v1.54l-.19,0h-.18a2.66,2.66,0,0,0-2,.77,3,3,0,0,0-.74,2.21v4.37Z"/><path class="cls-1" d="M113.91,29.51a5.22,5.22,0,0,1-2.48-.57,4.23,4.23,0,0,1-1.66-1.59,4.51,4.51,0,0,1-.59-2.31,4.57,4.57,0,0,1,.56-2.33,4.11,4.11,0,0,1,1.57-1.58,4.4,4.4,0,0,1,2.26-.58,4.47,4.47,0,0,1,2.25.55,4,4,0,0,1,1.54,1.58,4.9,4.9,0,0,1,.56,2.38v.23l0,.25-7.47,0V24.42l6.64,0-.64.4a3,3,0,0,0-.36-1.51,2.61,2.61,0,0,0-1-1,3.11,3.11,0,0,0-3,0,2.66,2.66,0,0,0-1,1,3.21,3.21,0,0,0-.36,1.54v.26a3,3,0,0,0,.42,1.57,2.82,2.82,0,0,0,1.13,1.06,3.65,3.65,0,0,0,1.68.38,3.55,3.55,0,0,0,1.41-.27,3.16,3.16,0,0,0,1.12-.8l.88,1a3.89,3.89,0,0,1-1.48,1.07A5.21,5.21,0,0,1,113.91,29.51Z"/><path class="cls-1" d="M122.46,29.48a4.14,4.14,0,0,1-1.71-.32,2.58,2.58,0,0,1-1.14-.92,2.27,2.27,0,0,1-.4-1.33,2.43,2.43,0,0,1,.33-1.29,2.38,2.38,0,0,1,1.11-.94,5.13,5.13,0,0,1,2.08-.35h2.78v1.14H122.8a2.39,2.39,0,0,0-1.61.4,1.32,1.32,0,0,0-.41,1,1.21,1.21,0,0,0,.52,1,2.22,2.22,0,0,0,1.42.38,3,3,0,0,0,1.57-.4,2.26,2.26,0,0,0,1-1.16l.32,1.09A2.51,2.51,0,0,1,124.46,29,4,4,0,0,1,122.46,29.48Zm2.88-.11V27.52l-.09-.35V24a2.06,2.06,0,0,0-.59-1.57,2.49,2.49,0,0,0-1.77-.55,4.43,4.43,0,0,0-1.52.27,3.8,3.8,0,0,0-1.26.69l-.66-1.19a4.76,4.76,0,0,1,1.63-.85,6.89,6.89,0,0,1,2-.29,4,4,0,0,1,2.79.87,3.41,3.41,0,0,1,1,2.68l0,5.3Z"/><path class="cls-1" d="M129.8,29.36l0-12.29h1.59l0,12.29Z"/><path class="cls-1" d="M138.33,29.43a5.19,5.19,0,0,1-2.48-.57,4.17,4.17,0,0,1-1.66-1.59,4.62,4.62,0,0,1-.6-2.31,4.68,4.68,0,0,1,.57-2.33,4.11,4.11,0,0,1,1.57-1.58,4.47,4.47,0,0,1,2.26-.58,4.37,4.37,0,0,1,2.25.56,3.94,3.94,0,0,1,1.54,1.57,4.9,4.9,0,0,1,.56,2.38,2,2,0,0,1,0,.23,2,2,0,0,1,0,.25l-7.47,0V24.34l6.65,0-.65.4a3,3,0,0,0-.35-1.51,2.63,2.63,0,0,0-1-1,3.09,3.09,0,0,0-2.95,0,2.62,2.62,0,0,0-1,1,3.17,3.17,0,0,0-.36,1.53V25a3,3,0,0,0,.41,1.57,2.72,2.72,0,0,0,1.14,1.06,3.53,3.53,0,0,0,1.68.38,3.58,3.58,0,0,0,1.41-.27,3.25,3.25,0,0,0,1.12-.8l.88,1a3.89,3.89,0,0,1-1.48,1.07A5.21,5.21,0,0,1,138.33,29.43Z"/><path class="cls-1" d="M147.08,29.4a7.07,7.07,0,0,1-2.08-.29,5,5,0,0,1-1.55-.72l.65-1.26a5.9,5.9,0,0,0,3.09.9,3.11,3.11,0,0,0,1.59-.32,1,1,0,0,0,.49-.88.78.78,0,0,0-.3-.65,2,2,0,0,0-.79-.34q-.48-.12-1.08-.21c-.4-.06-.8-.13-1.2-.23a4.53,4.53,0,0,1-1.09-.39,2.11,2.11,0,0,1-.8-.71,2.18,2.18,0,0,1-.3-1.22,2.3,2.3,0,0,1,.44-1.39,2.78,2.78,0,0,1,1.27-.92,5.15,5.15,0,0,1,1.94-.33,7.52,7.52,0,0,1,1.75.2,4.52,4.52,0,0,1,1.45.58l-.67,1.26a3.92,3.92,0,0,0-1.25-.54,5.66,5.66,0,0,0-1.29-.14,2.82,2.82,0,0,0-1.56.34,1,1,0,0,0-.51.87.84.84,0,0,0,.31.69,2.28,2.28,0,0,0,.8.37,9.33,9.33,0,0,0,1.08.22c.4.06.8.13,1.2.23a4.91,4.91,0,0,1,1.08.38,2.16,2.16,0,0,1,.8.7,2,2,0,0,1,.31,1.19,2.15,2.15,0,0,1-.46,1.38,3.09,3.09,0,0,1-1.3.9A5.59,5.59,0,0,1,147.08,29.4Z"/></g></g></svg>