<svg xmlns="http://www.w3.org/2000/svg" xmlns:xlink="http://www.w3.org/1999/xlink" viewBox="0 0 163.69 27.06"><defs><style>.cls-1{fill:url(#linear-gradient);}.cls-2{fill:#212626;}.cls-3{fill:#fff;}</style><linearGradient id="linear-gradient" y1="13.53" x2="163.69" y2="13.53" gradientUnits="userSpaceOnUse"><stop offset="0" stop-color="#fbdd55"/><stop offset="1" stop-color="#f79252"/></linearGradient></defs><g id="Layer_2" data-name="Layer 2"><g id="Layer_1-2" data-name="Layer 1"><rect class="cls-1" width="163.69" height="27.06" rx="13.53"/><rect class="cls-2" x="139.34" y="2.71" width="21.65" height="21.65" rx="10.82"/><path class="cls-2" d="M14.57,18.65V8.72h7.7v1.39H16.19v2.76h5.44v1.39H16.19v3h6.16v1.39Z"/><path class="cls-2" d="M23.32,18.65,26,14.74,23.48,11H25.3L27,13.58h.09L28.76,11h1.72L27.91,14.7l2.72,3.95H28.82L27,15.85H26.9L25,18.65Z"/><path class="cls-2" d="M31.77,21.15V11H33l.13,1h.1a2.43,2.43,0,0,1,1-.91,2.9,2.9,0,0,1,1.36-.31,3,3,0,0,1,1.61.42,2.69,2.69,0,0,1,1,1.3,6.18,6.18,0,0,1,.36,2.29,5.76,5.76,0,0,1-.37,2.24,2.72,2.72,0,0,1-1,1.29,2.79,2.79,0,0,1-1.53.42,3.51,3.51,0,0,1-.94-.12,2,2,0,0,1-.77-.36,2.33,2.33,0,0,1-.59-.62h-.09v3.43Zm3.37-3.63a2,2,0,0,0,1.1-.27,1.51,1.51,0,0,0,.61-.83,4.21,4.21,0,0,0,.2-1.43v-.26a4.64,4.64,0,0,0-.2-1.48,1.52,1.52,0,0,0-.62-.82,1.89,1.89,0,0,0-1.06-.26,1.79,1.79,0,0,0-1.08.29,1.7,1.7,0,0,0-.62.88,4.37,4.37,0,0,0-.2,1.4v.2a4.85,4.85,0,0,0,.13,1.17,2.35,2.35,0,0,0,.38.81,1.44,1.44,0,0,0,.59.45A2,2,0,0,0,35.14,17.52Z"/><path class="cls-2" d="M40.15,18.65V8.19h1.5V18.65Z"/><path class="cls-2" d="M46.83,18.82a4.2,4.2,0,0,1-2-.43,2.66,2.66,0,0,1-1.23-1.31,5.17,5.17,0,0,1-.42-2.24,5.25,5.25,0,0,1,.42-2.25,2.68,2.68,0,0,1,1.23-1.3,4.91,4.91,0,0,1,4,0,2.78,2.78,0,0,1,1.23,1.3,5.42,5.42,0,0,1,.41,2.25,5.34,5.34,0,0,1-.41,2.24,2.75,2.75,0,0,1-1.23,1.31A4.22,4.22,0,0,1,46.83,18.82Zm0-1.24A2.25,2.25,0,0,0,48,17.29a1.66,1.66,0,0,0,.68-.86A4,4,0,0,0,48.93,15v-.26a4.06,4.06,0,0,0-.23-1.46,1.7,1.7,0,0,0-.68-.86,2.26,2.26,0,0,0-1.19-.28,2.2,2.2,0,0,0-1.17.28,1.67,1.67,0,0,0-.69.86,4.08,4.08,0,0,0-.22,1.46V15A4,4,0,0,0,45,16.43a1.63,1.63,0,0,0,.69.86A2.2,2.2,0,0,0,46.83,17.58Z"/><path class="cls-2" d="M52,18.65V11h1.25l.13,1.23h.08a3.32,3.32,0,0,1,.34-.68,1.61,1.61,0,0,1,.55-.52,1.57,1.57,0,0,1,.83-.21,1.73,1.73,0,0,1,.42.05l.28.07V12.4h-.51a2.21,2.21,0,0,0-.81.14A1.54,1.54,0,0,0,54,13a1.72,1.72,0,0,0-.34.69,3.2,3.2,0,0,0-.11.91v4.08Z"/><path class="cls-2" d="M60,18.82a4,4,0,0,1-2-.43,2.7,2.7,0,0,1-1.2-1.31,5.35,5.35,0,0,1-.4-2.24,5.43,5.43,0,0,1,.4-2.25,2.72,2.72,0,0,1,1.2-1.3,4.2,4.2,0,0,1,2-.43,3.6,3.6,0,0,1,1.82.42A2.57,2.57,0,0,1,63,12.53a5.18,5.18,0,0,1,.37,2.11v.58H58a3.93,3.93,0,0,0,.24,1.35,1.61,1.61,0,0,0,.66.8,2.32,2.32,0,0,0,1.12.25,2.47,2.47,0,0,0,.75-.11,1.59,1.59,0,0,0,.57-.32A1.52,1.52,0,0,0,61.86,16h1.47a2.79,2.79,0,0,1-.23,1.2,2.32,2.32,0,0,1-.67.88,2.9,2.9,0,0,1-1,.54A4.34,4.34,0,0,1,60,18.82Zm-2-4.7h3.74a2.91,2.91,0,0,0-.13-.95,1.75,1.75,0,0,0-.35-.63,1.4,1.4,0,0,0-.55-.35,2,2,0,0,0-.72-.11,2.22,2.22,0,0,0-1,.22,1.48,1.48,0,0,0-.66.67A3.22,3.22,0,0,0,58.05,14.12Z"/><path class="cls-2" d="M72.36,18.82a5.65,5.65,0,0,1-2.58-.54,3.66,3.66,0,0,1-1.63-1.69,6.51,6.51,0,0,1-.56-2.91,5.3,5.3,0,0,1,1.26-3.87,4.78,4.78,0,0,1,3.52-1.26A5.7,5.7,0,0,1,74.61,9a3.52,3.52,0,0,1,1.56,1.25,3.66,3.66,0,0,1,.57,2.12H75.09A2.47,2.47,0,0,0,74.76,11a2,2,0,0,0-1-.81,3.33,3.33,0,0,0-1.42-.28,3.43,3.43,0,0,0-1.71.4,2.47,2.47,0,0,0-1.06,1.19,5,5,0,0,0-.36,2v.32a4.9,4.9,0,0,0,.36,2,2.34,2.34,0,0,0,1,1.18,3.45,3.45,0,0,0,1.72.39,3.62,3.62,0,0,0,1.46-.27,2,2,0,0,0,1-.81A2.39,2.39,0,0,0,75.15,15h1.59a3.71,3.71,0,0,1-.57,2.13,3.37,3.37,0,0,1-1.56,1.24A5.9,5.9,0,0,1,72.36,18.82Z"/><path class="cls-2" d="M81.59,18.82a4.2,4.2,0,0,1-2-.43,2.66,2.66,0,0,1-1.23-1.31,5.17,5.17,0,0,1-.42-2.24,5.25,5.25,0,0,1,.42-2.25,2.68,2.68,0,0,1,1.23-1.3,4.91,4.91,0,0,1,4,0,2.78,2.78,0,0,1,1.23,1.3,5.42,5.42,0,0,1,.41,2.25,5.34,5.34,0,0,1-.41,2.24,2.75,2.75,0,0,1-1.23,1.31A4.22,4.22,0,0,1,81.59,18.82Zm0-1.24a2.19,2.19,0,0,0,1.18-.29,1.63,1.63,0,0,0,.69-.86A4,4,0,0,0,83.69,15v-.26a4.06,4.06,0,0,0-.23-1.46,1.67,1.67,0,0,0-.69-.86,2.61,2.61,0,0,0-2.35,0,1.67,1.67,0,0,0-.69.86,4.08,4.08,0,0,0-.22,1.46V15a4,4,0,0,0,.22,1.46,1.63,1.63,0,0,0,.69.86A2.2,2.2,0,0,0,81.59,17.58Z"/><path class="cls-2" d="M86.78,18.65V8.19h1.51V18.65Z"/><path class="cls-2" d="M90.22,18.65V8.19h1.51V18.65Z"/><path class="cls-2" d="M96.82,18.82a4,4,0,0,1-2-.43,2.68,2.68,0,0,1-1.19-1.31,5.34,5.34,0,0,1-.41-2.24,5.42,5.42,0,0,1,.41-2.25,2.72,2.72,0,0,1,1.2-1.3,4.2,4.2,0,0,1,2-.43,3.56,3.56,0,0,1,1.81.42,2.57,2.57,0,0,1,1.11,1.25,5.17,5.17,0,0,1,.38,2.11v.58H94.81a3.92,3.92,0,0,0,.25,1.35,1.54,1.54,0,0,0,.65.8,2.36,2.36,0,0,0,1.13.25,2.51,2.51,0,0,0,.75-.11,1.47,1.47,0,0,0,.56-.32,1.36,1.36,0,0,0,.36-.5,1.65,1.65,0,0,0,.13-.68h1.48a3,3,0,0,1-.23,1.2,2.35,2.35,0,0,1-.68.88,2.94,2.94,0,0,1-1,.54A4.45,4.45,0,0,1,96.82,18.82Zm-2-4.7h3.73a3.23,3.23,0,0,0-.12-.95,1.63,1.63,0,0,0-.36-.63,1.27,1.27,0,0,0-.55-.35,2,2,0,0,0-.72-.11,2.18,2.18,0,0,0-1,.22,1.39,1.39,0,0,0-.66.67A3,3,0,0,0,94.84,14.12Z"/><path class="cls-2" d="M104.7,18.82a3.85,3.85,0,0,1-1.91-.43,2.65,2.65,0,0,1-1.15-1.31,5.71,5.71,0,0,1-.38-2.24,5.5,5.5,0,0,1,.39-2.23,2.68,2.68,0,0,1,1.17-1.31,3.81,3.81,0,0,1,1.9-.44,4.28,4.28,0,0,1,1.36.2,2.61,2.61,0,0,1,1,.58,2.3,2.3,0,0,1,.6.94,4,4,0,0,1,.2,1.29h-1.52a2.6,2.6,0,0,0-.17-1,1.22,1.22,0,0,0-.54-.58,2,2,0,0,0-.94-.2,1.86,1.86,0,0,0-1,.28,1.72,1.72,0,0,0-.63.86,4.17,4.17,0,0,0-.22,1.5V15a4.4,4.4,0,0,0,.21,1.47,1.71,1.71,0,0,0,.63.87,2,2,0,0,0,1.1.28,1.83,1.83,0,0,0,.93-.21,1.29,1.29,0,0,0,.54-.61,2.28,2.28,0,0,0,.18-1h1.46a3.69,3.69,0,0,1-.2,1.23,2.58,2.58,0,0,1-.59.95,2.76,2.76,0,0,1-1,.61A3.88,3.88,0,0,1,104.7,18.82Z"/><path class="cls-2" d="M111.27,18.82a1.87,1.87,0,0,1-1-.25,1.43,1.43,0,0,1-.52-.65,2.41,2.41,0,0,1-.15-.85V12.28h-1V11h1l.27-2.13h1.2V11h1.38v1.24h-1.38V16.9a.73.73,0,0,0,.15.5.56.56,0,0,0,.48.18h.75v1l-.36.11-.42.08A2,2,0,0,1,111.27,18.82Z"/><path class="cls-2" d="M113.79,9.72V8.19h1.5V9.72Zm0,8.93V11h1.5v7.61Z"/><path class="cls-2" d="M120.47,18.82a4.2,4.2,0,0,1-2-.43,2.66,2.66,0,0,1-1.23-1.31,5.18,5.18,0,0,1-.41-2.24,5.26,5.26,0,0,1,.41-2.25,2.68,2.68,0,0,1,1.23-1.3,4.32,4.32,0,0,1,2-.43,4.39,4.39,0,0,1,2,.43,2.76,2.76,0,0,1,1.22,1.3,5.42,5.42,0,0,1,.41,2.25,5.34,5.34,0,0,1-.41,2.24,2.73,2.73,0,0,1-1.22,1.31A4.27,4.27,0,0,1,120.47,18.82Zm0-1.24a2.25,2.25,0,0,0,1.19-.29,1.63,1.63,0,0,0,.69-.86,4.28,4.28,0,0,0,.22-1.46v-.26a4.32,4.32,0,0,0-.22-1.46,1.67,1.67,0,0,0-.69-.86,2.26,2.26,0,0,0-1.19-.28,2.2,2.2,0,0,0-1.17.28,1.67,1.67,0,0,0-.69.86,4.08,4.08,0,0,0-.22,1.46V15a4,4,0,0,0,.22,1.46,1.63,1.63,0,0,0,.69.86A2.2,2.2,0,0,0,120.47,17.58Z"/><path class="cls-2" d="M125.66,18.65V11h1.25l.13,1.08h.1a2.53,2.53,0,0,1,.65-.69,2.6,2.6,0,0,1,.83-.42,3.24,3.24,0,0,1,1-.15,3,3,0,0,1,1.27.26,1.82,1.82,0,0,1,.86.81,3.16,3.16,0,0,1,.31,1.52v5.2h-1.5v-5a2.14,2.14,0,0,0-.11-.72,1.1,1.1,0,0,0-.31-.46,1.23,1.23,0,0,0-.48-.25,2.27,2.27,0,0,0-.61-.07,1.79,1.79,0,0,0-.94.25,1.93,1.93,0,0,0-.69.7,2.13,2.13,0,0,0-.26,1.06v4.46Z"/><path class="cls-3" d="M147,17.63a.65.65,0,0,1-.46-1.11L152,11.13h-4.28a.65.65,0,1,1,0-1.3h5.86a.61.61,0,0,1,.24,0,.86.86,0,0,1,.2.13h0l0,0a.5.5,0,0,1,.12.19.54.54,0,0,1,.06.25h0v5.85a.66.66,0,0,1-1.31,0V12.05l-5.39,5.39A.63.63,0,0,1,147,17.63Z"/></g></g></svg>