<svg xmlns="http://www.w3.org/2000/svg" viewBox="0 0 153.05 32.16"><defs><style>.cls-1{fill:#f98f0b;}</style></defs><g id="Layer_2" data-name="Layer 2"><g id="Layer_1-2" data-name="Layer 1"><path d="M16.38.82v.75h-4.6L12.26,1V7.65H11.5V.82ZM11.86,3.9h4.4v.76h-4.4Z"/><path d="M21.88,5.08a4.67,4.67,0,0,1-.56,1.41,2.9,2.9,0,0,1-.9.94,2.26,2.26,0,0,1-2.37,0,2.28,2.28,0,0,1-.82-.94,3.13,3.13,0,0,1-.3-1.4,3.1,3.1,0,0,1,.3-1.4,2.28,2.28,0,0,1,.82-.94,2.22,2.22,0,0,1,1.21-.34,2.15,2.15,0,0,1,1.16.34,2.93,2.93,0,0,1,.91.94A4.5,4.5,0,0,1,21.88,5.08Zm-4.18,0a2.26,2.26,0,0,0,.22,1,1.67,1.67,0,0,0,.59.69,1.53,1.53,0,0,0,.87.25,1.65,1.65,0,0,0,.9-.25A2.53,2.53,0,0,0,21,6.11a4,4,0,0,0,.53-1,4,4,0,0,0-.53-1,2.57,2.57,0,0,0-.74-.7,1.74,1.74,0,0,0-.9-.25,1.61,1.61,0,0,0-.87.25,1.69,1.69,0,0,0-.59.7A2.26,2.26,0,0,0,17.7,5.08Zm3.88,2.57-.16-1.94.2-.63-.2-.62.16-1.94h.77l-.21,2.56.21,2.57Z"/><path d="M28.38,5.7a2.37,2.37,0,0,1-.44,1.07A2.52,2.52,0,0,1,27,7.5a2.68,2.68,0,0,1-1.21.26,2.62,2.62,0,0,1-1.36-.34,2.31,2.31,0,0,1-.92-.94,2.79,2.79,0,0,1-.34-1.4,2.79,2.79,0,0,1,.34-1.4,2.31,2.31,0,0,1,.92-.94,2.72,2.72,0,0,1,1.36-.34A2.82,2.82,0,0,1,27,2.66a2.52,2.52,0,0,1,.91.73,2.36,2.36,0,0,1,.44,1.08H27.6a1.57,1.57,0,0,0-.61-1,2,2,0,0,0-2.14-.12A1.67,1.67,0,0,0,24.2,4a2.26,2.26,0,0,0-.23,1,2.33,2.33,0,0,0,.23,1.06,1.7,1.7,0,0,0,.65.68A2.07,2.07,0,0,0,27,6.69a1.52,1.52,0,0,0,.6-1Z"/><path d="M28.65,3.19v-.4l1-.2.3-1.4h.46V2.52h2.24v.67H30.42V5.8a1.39,1.39,0,0,0,.27,1,1.17,1.17,0,0,0,.85.28,1.9,1.9,0,0,0,.66-.11,2,2,0,0,0,.55-.29v.74a2.13,2.13,0,0,1-.58.26,2.56,2.56,0,0,1-.79.11,1.85,1.85,0,0,1-1-.24,1.34,1.34,0,0,1-.55-.65,2.54,2.54,0,0,1-.17-.94V3.19Z"/><path d="M35.86,7.76a3,3,0,0,1-1.43-.33,2.4,2.4,0,0,1-1-.95,2.79,2.79,0,0,1-.34-1.4,2.77,2.77,0,0,1,.34-1.4,2.37,2.37,0,0,1,1-.94,3.18,3.18,0,0,1,2.86,0,2.41,2.41,0,0,1,1,.94,2.67,2.67,0,0,1,.35,1.4,2.7,2.7,0,0,1-.35,1.4,2.44,2.44,0,0,1-1,.95A3,3,0,0,1,35.86,7.76Zm0-.7a2.2,2.2,0,0,0,1-.24,1.71,1.71,0,0,0,.68-.68,2.21,2.21,0,0,0,.24-1.06,2.2,2.2,0,0,0-.24-1,1.67,1.67,0,0,0-.68-.69,2.33,2.33,0,0,0-2.1,0,1.62,1.62,0,0,0-.68.69,2.2,2.2,0,0,0-.24,1,2.21,2.21,0,0,0,.24,1.06,1.65,1.65,0,0,0,.68.68A2.2,2.2,0,0,0,35.86,7.06Z"/><path d="M39.33,2.52h.75l.27,1.75V7.65h-.76V4.11Zm3.47,0v.76a1.34,1.34,0,0,0-.37-.08l-.4,0a1.6,1.6,0,0,0-.87.24,1.64,1.64,0,0,0-.6.72,2.68,2.68,0,0,0-.21,1.11l-.22-.33a3.8,3.8,0,0,1,.16-1,2.18,2.18,0,0,1,.4-.79,1.77,1.77,0,0,1,1.44-.71l.36,0Z"/><path d="M45.2,7.48,43,2.52h.83l2.12,5Zm-.77,1.79a2,2,0,0,1-.63-.1,2.29,2.29,0,0,1-.55-.3V8.21a2,2,0,0,0,.52.28,1.72,1.72,0,0,0,.58.09A1.09,1.09,0,0,0,45,8.41a1.35,1.35,0,0,0,.43-.58l2.3-5.31h.8L46,8.14a2.35,2.35,0,0,1-.41.64,1.48,1.48,0,0,1-.51.37A1.59,1.59,0,0,1,44.43,9.27Z"/><path d="M54,.82a3.63,3.63,0,0,1,1.8.43A3,3,0,0,1,57,2.44a3.6,3.6,0,0,1,.44,1.79A3.53,3.53,0,0,1,57,6a3,3,0,0,1-1.21,1.2,3.64,3.64,0,0,1-1.8.44H51.33V.82ZM52.1,7.42l-.49-.53H54a2.72,2.72,0,0,0,1.38-.34,2.35,2.35,0,0,0,.92-.93,2.86,2.86,0,0,0,.33-1.39,2.8,2.8,0,0,0-.33-1.39,2.44,2.44,0,0,0-.92-.94A2.82,2.82,0,0,0,54,1.57H51.61l.49-.52Z"/><path d="M58.78,1.75a.57.57,0,0,1-.39-.16.58.58,0,0,1-.15-.41.54.54,0,0,1,.15-.39.53.53,0,0,1,.39-.16.53.53,0,0,1,.56.55.58.58,0,0,1-.15.41A.58.58,0,0,1,58.78,1.75Zm-.36.75.37.08.38-.08V7.65h-.75Z"/><path d="M60.18,2.52h.75l.26,1.75V7.65h-.75V4.11Zm3.46,0v.76a1.2,1.2,0,0,0-.36-.08l-.4,0a1.64,1.64,0,0,0-.88.24,1.69,1.69,0,0,0-.59.72,2.53,2.53,0,0,0-.22,1.11L61,4.89a3.42,3.42,0,0,1,.16-1,2.34,2.34,0,0,1,.39-.79,1.85,1.85,0,0,1,.63-.52A1.8,1.8,0,0,1,63,2.4l.36,0A1.67,1.67,0,0,1,63.64,2.5Z"/><path d="M66.54,7.76a2.79,2.79,0,0,1-1.4-.34,2.41,2.41,0,0,1-1-.94,2.8,2.8,0,0,1-.35-1.4,2.87,2.87,0,0,1,.33-1.4,2.35,2.35,0,0,1,.91-.94A2.66,2.66,0,0,1,66.4,2.4a2.29,2.29,0,0,1,1.31.37,2.34,2.34,0,0,1,.86,1,3.51,3.51,0,0,1,.31,1.53H64.4V4.66h4.16l-.44.3a2.33,2.33,0,0,0-.25-1,1.64,1.64,0,0,0-.6-.65,1.66,1.66,0,0,0-.87-.23,1.84,1.84,0,0,0-1,.25,1.67,1.67,0,0,0-.62.67,2.26,2.26,0,0,0-.23,1,2.18,2.18,0,0,0,.26,1.08,1.71,1.71,0,0,0,.71.7,2.27,2.27,0,0,0,1.08.24,3,3,0,0,0,1.11-.21,3.54,3.54,0,0,0,1-.57v.66a3.2,3.2,0,0,1-1,.6A3.24,3.24,0,0,1,66.54,7.76Z"/><path d="M74.71,5.7a2.37,2.37,0,0,1-.44,1.07,2.52,2.52,0,0,1-.91.73,2.68,2.68,0,0,1-1.21.26,2.62,2.62,0,0,1-1.36-.34,2.31,2.31,0,0,1-.92-.94,2.79,2.79,0,0,1-.34-1.4,2.79,2.79,0,0,1,.34-1.4,2.31,2.31,0,0,1,.92-.94,2.72,2.72,0,0,1,1.36-.34,2.82,2.82,0,0,1,1.21.26,2.52,2.52,0,0,1,.91.73,2.36,2.36,0,0,1,.44,1.08h-.78a1.57,1.57,0,0,0-.61-1,2,2,0,0,0-2.14-.12,1.67,1.67,0,0,0-.65.69,2.26,2.26,0,0,0-.23,1,2.33,2.33,0,0,0,.23,1.06,1.7,1.7,0,0,0,.65.68,2.07,2.07,0,0,0,2.15-.13,1.52,1.52,0,0,0,.6-1Z"/><path d="M75,3.19v-.4l1-.2.31-1.4h.45V2.52H79v.67H76.75V5.8a1.39,1.39,0,0,0,.27,1,1.17,1.17,0,0,0,.85.28,1.9,1.9,0,0,0,.66-.11,2,2,0,0,0,.55-.29v.74a2.13,2.13,0,0,1-.58.26,2.56,2.56,0,0,1-.79.11,1.85,1.85,0,0,1-1-.24,1.34,1.34,0,0,1-.55-.65A2.54,2.54,0,0,1,76,5.93V3.19Z"/><path d="M80.26,7.71A.5.5,0,0,1,80,7.63a.48.48,0,0,1-.19-.21.6.6,0,0,1-.07-.3.62.62,0,0,1,.07-.31A.63.63,0,0,1,80,6.6a.56.56,0,0,1,.54,0,.67.67,0,0,1,.19.22.6.6,0,0,1,.07.3.54.54,0,0,1-.07.29.67.67,0,0,1-.19.22A.5.5,0,0,1,80.26,7.71Z"/><path d="M89.63,7.22l-.37,0V.82H90V7.65H89L84.33,1.22l.38,0V7.65H84V.82h1Z"/><path d="M93.76,7.76a3,3,0,0,1-1.43-.33,2.4,2.4,0,0,1-1-.95A2.79,2.79,0,0,1,91,5.08a2.77,2.77,0,0,1,.34-1.4,2.37,2.37,0,0,1,1-.94,3.18,3.18,0,0,1,2.86,0,2.41,2.41,0,0,1,1,.94,2.67,2.67,0,0,1,.35,1.4,2.7,2.7,0,0,1-.35,1.4,2.44,2.44,0,0,1-1,.95A3,3,0,0,1,93.76,7.76Zm0-.7a2.2,2.2,0,0,0,1-.24,1.71,1.71,0,0,0,.68-.68,2.21,2.21,0,0,0,.24-1.06,2.2,2.2,0,0,0-.24-1,1.67,1.67,0,0,0-.68-.69,2.33,2.33,0,0,0-2.1,0A1.62,1.62,0,0,0,92,4a2.2,2.2,0,0,0-.24,1A2.21,2.21,0,0,0,92,6.14a1.65,1.65,0,0,0,.68.68A2.2,2.2,0,0,0,93.76,7.06Z"/><path d="M107.74.82V7.65H107V1h.3l-3.1,6.62h-.82L100.27,1h.3V7.65h-.73V.82H101l3,6.53h-.48l3-6.53Z"/><path d="M109.46,1.75a.53.53,0,0,1-.38-.16.54.54,0,0,1-.16-.41.51.51,0,0,1,.16-.39.49.49,0,0,1,.38-.16.53.53,0,0,1,.56.55.58.58,0,0,1-.15.41A.58.58,0,0,1,109.46,1.75Zm-.36.75.37.08.38-.08V7.65h-.75Z"/><path d="M115.75,5.08a4.66,4.66,0,0,1-.55,1.41,3,3,0,0,1-.9.94,2.2,2.2,0,0,1-1.17.33,2.14,2.14,0,0,1-1.21-.34,2.28,2.28,0,0,1-.82-.94,3.13,3.13,0,0,1-.3-1.4,3.1,3.1,0,0,1,.3-1.4,2.28,2.28,0,0,1,.82-.94,2.25,2.25,0,0,1,2.38,0,2.9,2.9,0,0,1,.9.94A4.5,4.5,0,0,1,115.75,5.08Zm-4.18,0a2.26,2.26,0,0,0,.22,1,1.62,1.62,0,0,0,.6.69,1.5,1.5,0,0,0,.86.25,1.71,1.71,0,0,0,.91-.25,2.5,2.5,0,0,0,.73-.69,3.71,3.71,0,0,0,.53-1,3.71,3.71,0,0,0-.53-1,2.54,2.54,0,0,0-.73-.7,1.8,1.8,0,0,0-.91-.25,1.58,1.58,0,0,0-.86.25,1.64,1.64,0,0,0-.6.7A2.26,2.26,0,0,0,111.57,5.08Zm3.89,2.57-.16-2,.22-.6-.2-.65.31-3.8h.78L116,5l.21,2.61Z"/><path d="M122,5.08a4.67,4.67,0,0,1-.56,1.41,3,3,0,0,1-.9.94,2.15,2.15,0,0,1-1.17.33,2.13,2.13,0,0,1-1.2-.34,2.31,2.31,0,0,1-.83-.94,3.13,3.13,0,0,1-.29-1.4,3.1,3.1,0,0,1,.29-1.4,2.31,2.31,0,0,1,.83-.94,2.21,2.21,0,0,1,1.2-.34,2.16,2.16,0,0,1,1.17.34,3,3,0,0,1,.91.94A4.5,4.5,0,0,1,122,5.08Zm-4.18,0a2.4,2.4,0,0,0,.21,1,1.76,1.76,0,0,0,.6.69,1.51,1.51,0,0,0,.87.25,1.67,1.67,0,0,0,.9-.25,2.53,2.53,0,0,0,.74-.69,4.34,4.34,0,0,0,.53-1,4.34,4.34,0,0,0-.53-1,2.57,2.57,0,0,0-.74-.7,1.77,1.77,0,0,0-.9-.25,1.58,1.58,0,0,0-.87.25,1.79,1.79,0,0,0-.6.7A2.4,2.4,0,0,0,117.86,5.08Zm3.89,2.57-.17-2,.23-.6-.21-.65.32-3.8h.77L122.31,5l.21,2.61Z"/><path d="M123.64.64h.75v7h-.75Z"/><path d="M128.05,7.76a2.83,2.83,0,0,1-1.41-.34,2.45,2.45,0,0,1-1-.94,2.7,2.7,0,0,1-.35-1.4,2.87,2.87,0,0,1,.33-1.4,2.33,2.33,0,0,1,.9-.94,2.69,2.69,0,0,1,1.34-.34,2.26,2.26,0,0,1,1.3.37,2.43,2.43,0,0,1,.87,1,3.66,3.66,0,0,1,.3,1.53h-4.47V4.66h4.16l-.45.3a2.33,2.33,0,0,0-.24-1,1.64,1.64,0,0,0-.6-.65,1.67,1.67,0,0,0-.88-.23,1.81,1.81,0,0,0-.94.25,1.63,1.63,0,0,0-.63.67,2.26,2.26,0,0,0-.22,1,2.18,2.18,0,0,0,.25,1.08,1.84,1.84,0,0,0,.71.7,2.34,2.34,0,0,0,1.09.24,3.12,3.12,0,0,0,1.11-.21,3.54,3.54,0,0,0,1-.57v.66a3.43,3.43,0,0,1-1,.6A3.28,3.28,0,0,1,128.05,7.76Z"/><path d="M131.11,2.52h.75l.26,1.74V7.65h-.75V4.14Zm2.77-.12a1.78,1.78,0,0,1,1,.29,1.81,1.81,0,0,1,.64.83,3.37,3.37,0,0,1,.22,1.3V7.65H135V5a2.33,2.33,0,0,0-.35-1.39,1.17,1.17,0,0,0-1-.47,1.33,1.33,0,0,0-.81.26,1.59,1.59,0,0,0-.54.7,2.62,2.62,0,0,0-.19,1l-.3-.23a3.66,3.66,0,0,1,.33-1.32,2.12,2.12,0,0,1,.72-.86A1.72,1.72,0,0,1,133.88,2.4Zm3.63,0a1.71,1.71,0,0,1,1.67,1.12,3.37,3.37,0,0,1,.22,1.3V7.65h-.76V5a2.34,2.34,0,0,0-.34-1.39,1.17,1.17,0,0,0-1-.47,1.33,1.33,0,0,0-.81.26,1.53,1.53,0,0,0-.54.7,2.62,2.62,0,0,0-.19,1l-.3-.23a3.66,3.66,0,0,1,.33-1.32,2.12,2.12,0,0,1,.72-.86A1.69,1.69,0,0,1,137.51,2.4Z"/><path d="M143,7.76a2.83,2.83,0,0,1-1.41-.34,2.55,2.55,0,0,1-1-.94,2.79,2.79,0,0,1-.34-1.4,2.87,2.87,0,0,1,.32-1.4,2.42,2.42,0,0,1,.91-.94,2.69,2.69,0,0,1,1.34-.34,2.26,2.26,0,0,1,1.3.37,2.43,2.43,0,0,1,.87,1,3.66,3.66,0,0,1,.3,1.53h-4.47V4.66H145l-.44.3a2.33,2.33,0,0,0-.24-1,1.64,1.64,0,0,0-.6-.65,1.7,1.7,0,0,0-.88-.23,1.81,1.81,0,0,0-.94.25,1.63,1.63,0,0,0-.63.67,2.26,2.26,0,0,0-.22,1,2.18,2.18,0,0,0,.25,1.08,1.84,1.84,0,0,0,.71.7,2.32,2.32,0,0,0,1.08.24,3.13,3.13,0,0,0,1.12-.21,3.49,3.49,0,0,0,1-.57v.66a3.26,3.26,0,0,1-1,.6A3.32,3.32,0,0,1,143,7.76Z"/><path d="M146,2.52h.76l.26,1.74V7.65h-.75V4.14ZM149,2.4a2,2,0,0,1,1.1.29,1.83,1.83,0,0,1,.69.83,3.36,3.36,0,0,1,.23,1.3V7.65h-.75V5a2.19,2.19,0,0,0-.38-1.39,1.37,1.37,0,0,0-1.11-.47,1.55,1.55,0,0,0-.89.26,1.69,1.69,0,0,0-.59.7,2.46,2.46,0,0,0-.21,1l-.3-.23a3.29,3.29,0,0,1,.35-1.32,2.23,2.23,0,0,1,.77-.86A2,2,0,0,1,149,2.4Z"/><path d="M152.52,7.71a.5.5,0,0,1-.27-.08.58.58,0,0,1-.2-.21.73.73,0,0,1-.06-.3.75.75,0,0,1,.06-.31.76.76,0,0,1,.19-.21.51.51,0,0,1,.28-.07.44.44,0,0,1,.26.07.7.7,0,0,1,.2.22.6.6,0,0,1,.07.3.54.54,0,0,1-.07.29.7.7,0,0,1-.2.22A.45.45,0,0,1,152.52,7.71Z"/><path d="M12.53,17.56l-.47,3.2-.41-.54h4.8V21H11.27l.51-3.41-.51-3.42h5.14v.75H11.65l.41-.54Zm3.7-.37v.73H12v-.73Z"/><path d="M16.86,21l2.27-3v.61L17,15.84h.9l1.73,2.24h-.45l1.74-2.24h.86l-2.15,2.79,0-.66,2.3,3H21l-1.88-2.43h.45L17.71,21Z"/><path d="M21.9,16.52v-.4l1-.21.3-1.4h.45v1.33h2.25v.68H23.67v2.6a1.34,1.34,0,0,0,.28,1,1.16,1.16,0,0,0,.85.28,2.06,2.06,0,0,0,.65-.1A2.71,2.71,0,0,0,26,20v.73a2.29,2.29,0,0,1-.58.26,2.61,2.61,0,0,1-.79.12,1.89,1.89,0,0,1-1-.24,1.4,1.4,0,0,1-.54-.66,2.35,2.35,0,0,1-.17-.94V16.52Z"/><path d="M29.09,21.09a2.94,2.94,0,0,1-1.41-.34,2.65,2.65,0,0,1-1-.95,2.79,2.79,0,0,1-.34-1.4A3,3,0,0,1,26.7,17a2.49,2.49,0,0,1,.91-.94A2.69,2.69,0,0,1,29,15.73a2.33,2.33,0,0,1,1.3.36,2.43,2.43,0,0,1,.87,1,3.68,3.68,0,0,1,.3,1.54H27V18H31.1l-.44.3a2.33,2.33,0,0,0-.24-1,1.71,1.71,0,0,0-.6-.65,1.69,1.69,0,0,0-.88-.22,1.8,1.8,0,0,0-.94.24,1.66,1.66,0,0,0-.63.68,2.19,2.19,0,0,0-.22,1,2.16,2.16,0,0,0,.25,1.08,1.77,1.77,0,0,0,.71.7,2.34,2.34,0,0,0,1.09.25,3.12,3.12,0,0,0,1.11-.21,3.17,3.17,0,0,0,1-.58v.66a3.08,3.08,0,0,1-1,.6A3.3,3.3,0,0,1,29.09,21.09Z"/><path d="M32.14,15.84h.76l.26,1.74V21h-.75V17.46Zm2.93-.11a2,2,0,0,1,1.1.28,1.83,1.83,0,0,1,.69.83,3.41,3.41,0,0,1,.23,1.31V21h-.75V18.29A2.21,2.21,0,0,0,36,16.9a1.34,1.34,0,0,0-1.11-.47,1.55,1.55,0,0,0-.89.26,1.72,1.72,0,0,0-.59.71,2.46,2.46,0,0,0-.21,1.05l-.3-.24a3.29,3.29,0,0,1,.35-1.32A2.31,2.31,0,0,1,34,16,2,2,0,0,1,35.07,15.73Z"/><path d="M42.75,19.47a1.39,1.39,0,0,1-.27.85,1.75,1.75,0,0,1-.78.57,3.46,3.46,0,0,1-1.24.2,3.33,3.33,0,0,1-1.31-.24,2,2,0,0,1-.89-.65,1.73,1.73,0,0,1-.35-1h.77a1.19,1.19,0,0,0,.29.62,1.62,1.62,0,0,0,.62.42,2.66,2.66,0,0,0,.88.14,2.19,2.19,0,0,0,1.12-.24.73.73,0,0,0,.4-.66.53.53,0,0,0-.26-.49,2.89,2.89,0,0,0-1-.24l-.9-.1a2.87,2.87,0,0,1-1.06-.27,1.33,1.33,0,0,1-.57-.49,1.3,1.3,0,0,1-.17-.66,1.27,1.27,0,0,1,.28-.84,1.64,1.64,0,0,1,.76-.52,3.33,3.33,0,0,1,1.14-.17,3.37,3.37,0,0,1,1.23.21,2.16,2.16,0,0,1,.85.61,1.48,1.48,0,0,1,.35.9h-.76a1.11,1.11,0,0,0-.24-.53,1.39,1.39,0,0,0-.57-.38,2.42,2.42,0,0,0-.9-.15,2,2,0,0,0-1,.21.67.67,0,0,0-.37.61.54.54,0,0,0,.24.46,1.86,1.86,0,0,0,.85.25l1,.12a3.74,3.74,0,0,1,1.1.25,1.15,1.15,0,0,1,.57.48A1.37,1.37,0,0,1,42.75,19.47Z"/><path d="M44.06,15.07a.53.53,0,0,1-.39-.16.58.58,0,0,1,0-.8.53.53,0,0,1,.39-.16.52.52,0,0,1,.4.16.58.58,0,0,1,0,.8A.52.52,0,0,1,44.06,15.07Zm-.37.76.38.07.37-.07V21h-.75Z"/><path d="M48,20.58h-.29l2-4.74h.8L48.29,21h-.84l-2.3-5.13H46Z"/><path d="M53.5,21.09a2.94,2.94,0,0,1-1.41-.34,2.55,2.55,0,0,1-1-.95,2.7,2.7,0,0,1-.35-1.4,2.87,2.87,0,0,1,.33-1.4,2.39,2.39,0,0,1,.9-.94,2.69,2.69,0,0,1,1.34-.33,2.33,2.33,0,0,1,1.3.36,2.43,2.43,0,0,1,.87,1,3.68,3.68,0,0,1,.31,1.54H51.36V18h4.16l-.45.3a2.33,2.33,0,0,0-.24-1,1.71,1.71,0,0,0-.6-.65,1.67,1.67,0,0,0-.88-.22,1.8,1.8,0,0,0-.94.24,1.66,1.66,0,0,0-.63.68,2.19,2.19,0,0,0-.22,1,2.16,2.16,0,0,0,.25,1.08,1.77,1.77,0,0,0,.71.7,2.34,2.34,0,0,0,1.09.25,3.12,3.12,0,0,0,1.11-.21,3.34,3.34,0,0,0,1-.58v.66a3.23,3.23,0,0,1-1,.6A3.3,3.3,0,0,1,53.5,21.09Z"/><path d="M58.82,15.84h.75l.26,1.75V21h-.75V17.44Zm3.46,0v.75a1.6,1.6,0,0,0-.36-.08l-.4,0a1.56,1.56,0,0,0-.88.25,1.61,1.61,0,0,0-.59.71,2.53,2.53,0,0,0-.22,1.11l-.21-.33a3.42,3.42,0,0,1,.16-1,2.34,2.34,0,0,1,.39-.79,2,2,0,0,1,.63-.52,1.8,1.8,0,0,1,.82-.18,2.3,2.3,0,0,1,.36,0A1.6,1.6,0,0,1,62.28,15.83Z"/><path d="M67.46,18.4a4.67,4.67,0,0,1-.56,1.41,3,3,0,0,1-.9.94,2.16,2.16,0,0,1-1.17.34,2.21,2.21,0,0,1-1.2-.34,2.4,2.4,0,0,1-.83-.95,3.52,3.52,0,0,1,0-2.8,2.37,2.37,0,0,1,.83-.94,2.21,2.21,0,0,1,1.2-.33,2.15,2.15,0,0,1,1.17.33,3.15,3.15,0,0,1,.91.94A4.5,4.5,0,0,1,67.46,18.4Zm-4.18,0a2.4,2.4,0,0,0,.21,1,1.79,1.79,0,0,0,.6.7,1.58,1.58,0,0,0,.87.25,1.77,1.77,0,0,0,.9-.25,2.57,2.57,0,0,0,.74-.7,4.34,4.34,0,0,0,.53-1,4.34,4.34,0,0,0-.53-1,2.53,2.53,0,0,0-.74-.69,1.67,1.67,0,0,0-.9-.25,1.51,1.51,0,0,0-.87.25,1.76,1.76,0,0,0-.6.69A2.4,2.4,0,0,0,63.28,18.4ZM67.16,21,67,19l.2-.63-.2-.62.16-1.94h.77l-.21,2.56L67.93,21Z"/><path d="M68.85,15.84h.75l.26,1.74V21h-.75V17.46Zm2.92-.11a2,2,0,0,1,1.1.28,1.83,1.83,0,0,1,.69.83,3.23,3.23,0,0,1,.24,1.31V21H73V18.29a2.15,2.15,0,0,0-.38-1.39,1.34,1.34,0,0,0-1.11-.47,1.58,1.58,0,0,0-.89.26,1.72,1.72,0,0,0-.59.71,2.46,2.46,0,0,0-.21,1.05l-.3-.24a3.46,3.46,0,0,1,.35-1.32,2.25,2.25,0,0,1,.78-.86A2,2,0,0,1,71.77,15.73Z"/><path d="M76.9,20.64a2.05,2.05,0,0,1-1.12-.31,2.14,2.14,0,0,1-.8-.86,2.67,2.67,0,0,1-.3-1.29,2.62,2.62,0,0,1,.3-1.29,2.08,2.08,0,0,1,.8-.86,2.13,2.13,0,0,1,1.12-.3,2.49,2.49,0,0,1,.87.15,2.81,2.81,0,0,1,.73.43,2.6,2.6,0,0,1,.56.59,3,3,0,0,1,.35.66,1.64,1.64,0,0,1,.13.62,1.9,1.9,0,0,1-.19.8,2.94,2.94,0,0,1-.55.8,3.05,3.05,0,0,1-.84.62A2.33,2.33,0,0,1,76.9,20.64Zm2.35-.92V18.8l0-.13v-.85l0-.18v-1.8H80V19.6a3.47,3.47,0,0,1-.36,1.67,2.48,2.48,0,0,1-1,1,3,3,0,0,1-1.42.33,3.08,3.08,0,0,1-1.11-.19,3.17,3.17,0,0,1-1-.57V21.1a2.94,2.94,0,0,0,1,.61,3.21,3.21,0,0,0,1,.18,2,2,0,0,0,1.53-.58A2.3,2.3,0,0,0,79.25,19.72ZM77.11,20a1.89,1.89,0,0,0,1.18-.42,3.76,3.76,0,0,0,1-1.37,3.61,3.61,0,0,0-1-1.38,1.94,1.94,0,0,0-1.18-.41,1.73,1.73,0,0,0-.91.23,1.48,1.48,0,0,0-.56.63,2.24,2.24,0,0,0,0,1.85,1.37,1.37,0,0,0,.56.63A1.65,1.65,0,0,0,77.11,20Z"/><path d="M83.63,21.09a2.94,2.94,0,0,1-1.41-.34,2.55,2.55,0,0,1-1-.95,2.7,2.7,0,0,1-.35-1.4,2.87,2.87,0,0,1,.33-1.4,2.35,2.35,0,0,1,.91-.94,2.62,2.62,0,0,1,1.33-.33,2.33,2.33,0,0,1,1.3.36,2.36,2.36,0,0,1,.87,1A3.68,3.68,0,0,1,86,18.65H81.49V18h4.16l-.45.3a2.19,2.19,0,0,0-.24-1,1.71,1.71,0,0,0-.6-.65,1.67,1.67,0,0,0-.88-.22,1.8,1.8,0,0,0-.94.24,1.66,1.66,0,0,0-.63.68,2.19,2.19,0,0,0-.22,1,2.16,2.16,0,0,0,.25,1.08,1.74,1.74,0,0,0,.72.7,2.27,2.27,0,0,0,1.08.25,3.12,3.12,0,0,0,1.11-.21,3.34,3.34,0,0,0,1-.58v.66a3.23,3.23,0,0,1-1,.6A3.3,3.3,0,0,1,83.63,21.09Z"/><path d="M91.62,21.09a3,3,0,0,1-1.43-.34,2.44,2.44,0,0,1-1-.95,3,3,0,0,1,0-2.8,2.48,2.48,0,0,1,1-.94,3.26,3.26,0,0,1,2.86,0A2.58,2.58,0,0,1,94,17a3,3,0,0,1,0,2.8,2.53,2.53,0,0,1-1,.95A3,3,0,0,1,91.62,21.09Zm0-.7a2.09,2.09,0,0,0,1-.25,1.71,1.71,0,0,0,.68-.68,2.44,2.44,0,0,0,0-2.11,1.8,1.8,0,0,0-.68-.69,2.2,2.2,0,0,0-1-.24,2.13,2.13,0,0,0-1,.24,1.76,1.76,0,0,0-.69.69,2.44,2.44,0,0,0,0,2.11,1.67,1.67,0,0,0,.69.68A2,2,0,0,0,91.62,20.39Z"/><path d="M94.74,16.84v-.69h4v.69Zm3.05-2.32a1.31,1.31,0,0,0-1,.32,1.38,1.38,0,0,0-.33,1V21h-.75V16A3,3,0,0,1,96,14.89a1.7,1.7,0,0,1,.63-.77,2,2,0,0,1,1.13-.28,2.27,2.27,0,0,1,.61.07,2.67,2.67,0,0,1,.5.17v.7a1.87,1.87,0,0,0-.49-.2A2.35,2.35,0,0,0,97.79,14.52Z"/><path d="M106.08,18.4a4.67,4.67,0,0,1-.56,1.41,3,3,0,0,1-.9.94,2.16,2.16,0,0,1-1.17.34,2.21,2.21,0,0,1-1.2-.34,2.4,2.4,0,0,1-.83-.95,3.52,3.52,0,0,1,0-2.8,2.37,2.37,0,0,1,.83-.94,2.21,2.21,0,0,1,1.2-.33,2.15,2.15,0,0,1,1.17.33,3.15,3.15,0,0,1,.91.94A4.5,4.5,0,0,1,106.08,18.4Zm-4.18,0a2.4,2.4,0,0,0,.21,1,1.79,1.79,0,0,0,.6.7,1.58,1.58,0,0,0,.87.25,1.77,1.77,0,0,0,.9-.25,2.57,2.57,0,0,0,.74-.7,4.34,4.34,0,0,0,.53-1,4.34,4.34,0,0,0-.53-1,2.53,2.53,0,0,0-.74-.69,1.67,1.67,0,0,0-.9-.25,1.51,1.51,0,0,0-.87.25,1.76,1.76,0,0,0-.6.69A2.4,2.4,0,0,0,101.9,18.4ZM105.79,21l-.17-2,.23-.6-.21-.65L106,14h.77l-.38,4.4.21,2.61Z"/><path d="M110.12,21.09a2.94,2.94,0,0,1-1.41-.34,2.5,2.5,0,0,1-1-.95,2.8,2.8,0,0,1-.35-1.4,2.87,2.87,0,0,1,.33-1.4,2.42,2.42,0,0,1,.91-.94,2.66,2.66,0,0,1,1.34-.33,2.27,2.27,0,0,1,2.16,1.38,3.53,3.53,0,0,1,.31,1.54H108V18h4.15l-.44.3a2.33,2.33,0,0,0-.25-1,1.57,1.57,0,0,0-.6-.65,1.66,1.66,0,0,0-.87-.22,1.78,1.78,0,0,0-.94.24,1.66,1.66,0,0,0-.63.68,2.19,2.19,0,0,0-.23,1,2.16,2.16,0,0,0,.26,1.08,1.71,1.71,0,0,0,.71.7,2.33,2.33,0,0,0,1.08.25,3,3,0,0,0,1.11-.21,3.22,3.22,0,0,0,1-.58v.66a3.08,3.08,0,0,1-1,.6A3.34,3.34,0,0,1,110.12,21.09Z"/><path d="M117.88,19.47a1.45,1.45,0,0,1-.26.85,1.8,1.8,0,0,1-.78.57,3.5,3.5,0,0,1-1.24.2,3.38,3.38,0,0,1-1.32-.24,2.07,2.07,0,0,1-.89-.65,1.65,1.65,0,0,1-.34-1h.77a1.12,1.12,0,0,0,.29.62,1.48,1.48,0,0,0,.62.42,2.6,2.6,0,0,0,.87.14,2.19,2.19,0,0,0,1.12-.24.74.74,0,0,0,.41-.66.55.55,0,0,0-.26-.49,3,3,0,0,0-1-.24l-.89-.1a2.82,2.82,0,0,1-1.06-.27,1.22,1.22,0,0,1-.57-.49,1.2,1.2,0,0,1-.17-.66,1.32,1.32,0,0,1,.27-.84,1.67,1.67,0,0,1,.77-.52,3.26,3.26,0,0,1,1.14-.17,3.36,3.36,0,0,1,1.22.21,2.2,2.2,0,0,1,.86.61,1.55,1.55,0,0,1,.35.9h-.76a1,1,0,0,0-.25-.53,1.33,1.33,0,0,0-.57-.38,2.35,2.35,0,0,0-.9-.15,2.09,2.09,0,0,0-1,.21.66.66,0,0,0-.36.61.54.54,0,0,0,.24.46,1.85,1.85,0,0,0,.84.25l1,.12a3.82,3.82,0,0,1,1.1.25,1.17,1.17,0,0,1,.56.48A1.28,1.28,0,0,1,117.88,19.47Z"/><path d="M119.19,15.07a.53.53,0,0,1-.39-.16.61.61,0,0,1,0-.8.53.53,0,0,1,.39-.16.54.54,0,0,1,.41.16.61.61,0,0,1,0,.8A.54.54,0,0,1,119.19,15.07Zm-.36.76.37.07.38-.07V21h-.75Z"/><path d="M122.75,20.64a2.11,2.11,0,0,1-1.13-.31,2.19,2.19,0,0,1-.79-.86,2.67,2.67,0,0,1-.3-1.29,2.62,2.62,0,0,1,.3-1.29,2.12,2.12,0,0,1,.79-.86,2.2,2.2,0,0,1,1.13-.3,2.49,2.49,0,0,1,.87.15,2.81,2.81,0,0,1,.73.43,2.84,2.84,0,0,1,.56.59,3,3,0,0,1,.35.66,1.64,1.64,0,0,1,.13.62,1.9,1.9,0,0,1-.19.8,3.18,3.18,0,0,1-.55.8,3.05,3.05,0,0,1-.84.62A2.33,2.33,0,0,1,122.75,20.64Zm2.34-.92V18.8l0-.13v-.85l0-.18v-1.8h.76V19.6a3.36,3.36,0,0,1-.37,1.67,2.4,2.4,0,0,1-1,1,3,3,0,0,1-1.42.33A3.08,3.08,0,0,1,122,22.4a3.17,3.17,0,0,1-1-.57V21.1a2.85,2.85,0,0,0,1,.61,3.16,3.16,0,0,0,1,.18,2,2,0,0,0,1.53-.58A2.29,2.29,0,0,0,125.09,19.72ZM123,20a1.92,1.92,0,0,0,1.18-.42,3.76,3.76,0,0,0,1-1.37,3.72,3.72,0,0,0-1-1.38,1.94,1.94,0,0,0-1.18-.41,1.73,1.73,0,0,0-.91.23,1.57,1.57,0,0,0-.57.63,2.35,2.35,0,0,0,0,1.85,1.45,1.45,0,0,0,.57.63A1.65,1.65,0,0,0,123,20Z"/><path d="M126.83,15.84h.76l.26,1.74V21h-.76V17.46Zm2.93-.11a2,2,0,0,1,1.09.28,1.77,1.77,0,0,1,.69.83,3.23,3.23,0,0,1,.24,1.31V21H131V18.29a2.21,2.21,0,0,0-.38-1.39,1.37,1.37,0,0,0-1.11-.47,1.55,1.55,0,0,0-.89.26,1.65,1.65,0,0,0-.59.71,2.46,2.46,0,0,0-.21,1.05l-.31-.24a3.29,3.29,0,0,1,.36-1.32,2.15,2.15,0,0,1,.77-.86A2,2,0,0,1,129.76,15.73Z"/><path d="M135.37,21.09a2.94,2.94,0,0,1-1.41-.34,2.55,2.55,0,0,1-1-.95,2.7,2.7,0,0,1-.35-1.4A2.87,2.87,0,0,1,133,17a2.39,2.39,0,0,1,.9-.94,2.69,2.69,0,0,1,1.34-.33,2.33,2.33,0,0,1,1.3.36,2.43,2.43,0,0,1,.87,1,3.68,3.68,0,0,1,.31,1.54h-4.48V18h4.16l-.45.3a2.33,2.33,0,0,0-.24-1,1.71,1.71,0,0,0-.6-.65,1.67,1.67,0,0,0-.88-.22,1.8,1.8,0,0,0-.94.24,1.66,1.66,0,0,0-.63.68,2.19,2.19,0,0,0-.22,1,2.16,2.16,0,0,0,.25,1.08,1.77,1.77,0,0,0,.71.7,2.34,2.34,0,0,0,1.09.25,3.12,3.12,0,0,0,1.11-.21,3.34,3.34,0,0,0,1-.58v.66a3.23,3.23,0,0,1-1,.6A3.3,3.3,0,0,1,135.37,21.09Z"/><path d="M138.43,15.84h.75l.26,1.75V21h-.75V17.44Zm3.46,0v.75a1.6,1.6,0,0,0-.36-.08l-.4,0a1.56,1.56,0,0,0-.88.25,1.61,1.61,0,0,0-.59.71,2.53,2.53,0,0,0-.22,1.11l-.21-.33a3.81,3.81,0,0,1,.15-1,2.55,2.55,0,0,1,.4-.79,1.87,1.87,0,0,1,.63-.52,1.8,1.8,0,0,1,.82-.18,2.3,2.3,0,0,1,.36,0A1.6,1.6,0,0,1,141.89,15.83Z"/><path d="M16.26,29a2.32,2.32,0,0,1-.44,1.07,2.42,2.42,0,0,1-.91.73,2.69,2.69,0,0,1-1.21.27,2.74,2.74,0,0,1-1.36-.34,2.47,2.47,0,0,1-.92-.95,3.13,3.13,0,0,1,0-2.8,2.44,2.44,0,0,1,.92-.94,2.74,2.74,0,0,1,1.36-.33,2.68,2.68,0,0,1,1.21.26,2.39,2.39,0,0,1,.91.72,2.36,2.36,0,0,1,.44,1.08h-.77a1.63,1.63,0,0,0-.61-1,2.07,2.07,0,0,0-2.15-.13,1.7,1.7,0,0,0-.64.69,2.14,2.14,0,0,0-.23,1.05,2.21,2.21,0,0,0,.23,1.06,1.62,1.62,0,0,0,.64.68,1.8,1.8,0,0,0,1,.25A1.87,1.87,0,0,0,14.88,30a1.57,1.57,0,0,0,.61-1Z"/><path d="M19.62,31.08a3,3,0,0,1-1.44-.34,2.37,2.37,0,0,1-1-.95,3.05,3.05,0,0,1,0-2.8,2.48,2.48,0,0,1,1-.94,3,3,0,0,1,1.44-.33,3,3,0,0,1,1.43.33A2.48,2.48,0,0,1,22,27a3,3,0,0,1,0,2.8,2.37,2.37,0,0,1-1,.95A3,3,0,0,1,19.62,31.08Zm0-.7a2,2,0,0,0,1-.25,1.67,1.67,0,0,0,.69-.68,2.21,2.21,0,0,0,.24-1.06,2.13,2.13,0,0,0-.24-1,1.72,1.72,0,0,0-.69-.7,2.13,2.13,0,0,0-1-.24,2.2,2.2,0,0,0-1.05.24,1.64,1.64,0,0,0-.68.7,2.13,2.13,0,0,0-.24,1,2.21,2.21,0,0,0,.24,1.06,1.59,1.59,0,0,0,.68.68A2.09,2.09,0,0,0,19.62,30.38Z"/><path d="M23.3,24h.76v7H23.3Z"/><path d="M27.74,31.08a3,3,0,0,1-1.44-.34,2.37,2.37,0,0,1-1-.95,3.05,3.05,0,0,1,0-2.8,2.48,2.48,0,0,1,1-.94,3,3,0,0,1,1.44-.33,3,3,0,0,1,1.43.33,2.48,2.48,0,0,1,1,.94,3,3,0,0,1,0,2.8,2.37,2.37,0,0,1-1,.95A3,3,0,0,1,27.74,31.08Zm0-.7a2,2,0,0,0,1-.25,1.67,1.67,0,0,0,.69-.68,2.21,2.21,0,0,0,.24-1.06,2.13,2.13,0,0,0-.24-1,1.72,1.72,0,0,0-.69-.7,2.13,2.13,0,0,0-1-.24,2.2,2.2,0,0,0-1,.24,1.64,1.64,0,0,0-.68.7,2.13,2.13,0,0,0-.24,1A2.21,2.21,0,0,0,26,29.45a1.59,1.59,0,0,0,.68.68A2.09,2.09,0,0,0,27.74,30.38Z"/><path d="M33.33,31.08a1.92,1.92,0,0,1-1.07-.29,1.86,1.86,0,0,1-.67-.83,3.27,3.27,0,0,1-.23-1.31V25.83h.75v2.68a2.16,2.16,0,0,0,.37,1.38,1.29,1.29,0,0,0,1.07.47,1.54,1.54,0,0,0,.87-.25A1.64,1.64,0,0,0,35,29.4a2.62,2.62,0,0,0,.2-1l.3.19a3.62,3.62,0,0,1-.34,1.34,2.31,2.31,0,0,1-.76.89A1.94,1.94,0,0,1,33.33,31.08ZM35.45,31l-.25-1.75V25.83H36v3.51L36.21,31Z"/><path d="M37,25.83h.75L38,27.58V31h-.76V27.43Zm3.47,0v.75a1.85,1.85,0,0,0-.37-.08l-.4,0a1.53,1.53,0,0,0-.87.25,1.56,1.56,0,0,0-.6.71A2.68,2.68,0,0,0,38,28.53l-.22-.33a4.27,4.27,0,0,1,.16-1,2.35,2.35,0,0,1,.4-.79A1.94,1.94,0,0,1,39,25.9a1.83,1.83,0,0,1,.82-.18,2.17,2.17,0,0,1,.36,0A1.73,1.73,0,0,1,40.48,25.82Z"/><path d="M45.56,29.46a1.39,1.39,0,0,1-.27.85,1.73,1.73,0,0,1-.78.57,3.46,3.46,0,0,1-1.24.2A3.33,3.33,0,0,1,42,30.84a2,2,0,0,1-.89-.65,1.66,1.66,0,0,1-.35-1h.77a1.19,1.19,0,0,0,.29.62,1.62,1.62,0,0,0,.62.42,2.66,2.66,0,0,0,.88.14,2.19,2.19,0,0,0,1.12-.24.73.73,0,0,0,.4-.66.5.5,0,0,0-.26-.48,2.62,2.62,0,0,0-1-.25l-.9-.1a2.87,2.87,0,0,1-1.06-.27,1.33,1.33,0,0,1-.57-.49,1.3,1.3,0,0,1-.17-.66,1.32,1.32,0,0,1,.27-.84,1.73,1.73,0,0,1,.77-.52,3.33,3.33,0,0,1,1.14-.17,3.37,3.37,0,0,1,1.23.21,2.16,2.16,0,0,1,.85.61,1.57,1.57,0,0,1,.35.9h-.76a1.11,1.11,0,0,0-.24-.53,1.39,1.39,0,0,0-.57-.38,2.42,2.42,0,0,0-.9-.15,2,2,0,0,0-1,.21.67.67,0,0,0-.37.61.54.54,0,0,0,.24.46,1.86,1.86,0,0,0,.85.25l1,.12a3.74,3.74,0,0,1,1.1.25,1.15,1.15,0,0,1,.57.48A1.37,1.37,0,0,1,45.56,29.46Z"/><path d="M46.21,32.16l.59-1.46,0,.3a.5.5,0,0,1-.27-.07.59.59,0,0,1-.19-.22.73.73,0,0,1-.07-.29.65.65,0,0,1,.07-.29.55.55,0,0,1,.19-.21.43.43,0,0,1,.27-.08.51.51,0,0,1,.28.08.67.67,0,0,1,.19.22.83.83,0,0,1,.07.32,1.24,1.24,0,0,1-.06.37,4.71,4.71,0,0,1-.23.51l-.41.82Z"/><path d="M49.82,26.83v-.69h4v.69Zm3-2.32a1.31,1.31,0,0,0-.95.32,1.38,1.38,0,0,0-.33,1V31h-.75V26A3,3,0,0,1,51,24.88a1.64,1.64,0,0,1,.63-.77,2.1,2.1,0,0,1,1.13-.28,2.32,2.32,0,0,1,.61.07,3,3,0,0,1,.5.17v.7a1.87,1.87,0,0,0-.49-.2A2.35,2.35,0,0,0,52.87,24.51Z"/><path d="M59,28.39a4.57,4.57,0,0,1-.56,1.41,2.8,2.8,0,0,1-.9.94,2.15,2.15,0,0,1-1.16.34,2.22,2.22,0,0,1-1.21-.34,2.38,2.38,0,0,1-.82-.95,3.42,3.42,0,0,1,0-2.8,2.35,2.35,0,0,1,.82-.94,2.22,2.22,0,0,1,1.21-.33,2.14,2.14,0,0,1,1.16.33,3,3,0,0,1,.91.94A4.5,4.5,0,0,1,59,28.39Zm-4.18,0a2.26,2.26,0,0,0,.22,1,1.69,1.69,0,0,0,.59.7,1.61,1.61,0,0,0,.87.25,1.74,1.74,0,0,0,.9-.25,2.57,2.57,0,0,0,.74-.7,4,4,0,0,0,.53-1,4,4,0,0,0-.53-1,2.53,2.53,0,0,0-.74-.69,1.65,1.65,0,0,0-.9-.25,1.53,1.53,0,0,0-.87.25,1.67,1.67,0,0,0-.59.69A2.26,2.26,0,0,0,54.78,28.39ZM58.66,31,58.5,29l.2-.63-.2-.62.16-1.94h.77l-.21,2.56L59.43,31Z"/><path d="M60.56,24h.76v3.79l-.14.26v.77l.14.36V31h-.76ZM61,28.39A4.5,4.5,0,0,1,61.5,27a3,3,0,0,1,.9-.94,2.18,2.18,0,0,1,1.17-.33,2.21,2.21,0,0,1,1.2.33,2.37,2.37,0,0,1,.83.94,3.42,3.42,0,0,1,0,2.8,2.4,2.4,0,0,1-.83.95,2.21,2.21,0,0,1-1.2.34,2.19,2.19,0,0,1-1.17-.34,2.9,2.9,0,0,1-.9-.94A4.56,4.56,0,0,1,61,28.39Zm4.18,0a2.4,2.4,0,0,0-.22-1,1.62,1.62,0,0,0-.6-.69,1.5,1.5,0,0,0-.86-.25,1.71,1.71,0,0,0-.91.25,2.5,2.5,0,0,0-.73.69,4.34,4.34,0,0,0-.53,1,4.34,4.34,0,0,0,.53,1,2.54,2.54,0,0,0,.73.7,1.8,1.8,0,0,0,.91.25,1.58,1.58,0,0,0,.86-.25,1.64,1.64,0,0,0,.6-.7A2.4,2.4,0,0,0,65.13,28.39Z"/><path d="M66.64,25.83h.76l.26,1.75V31h-.75V27.43Zm3.47,0v.75a1.7,1.7,0,0,0-.37-.08,2.66,2.66,0,0,0-.39,0,1.58,1.58,0,0,0-1.48,1,2.68,2.68,0,0,0-.21,1.11l-.21-.33a3.81,3.81,0,0,1,.15-1,2.35,2.35,0,0,1,.4-.79,1.94,1.94,0,0,1,.62-.52,1.87,1.87,0,0,1,.83-.18,2.11,2.11,0,0,1,.35,0A1.73,1.73,0,0,1,70.11,25.82Z"/><path d="M71.19,25.06a.53.53,0,0,1-.39-.16.58.58,0,0,1,0-.8.53.53,0,0,1,.39-.16.52.52,0,0,1,.4.16.58.58,0,0,1,0,.8A.52.52,0,0,1,71.19,25.06Zm-.37.76.38.07.38-.07V31h-.76Z"/><path d="M77.7,29a2.23,2.23,0,0,1-.45,1.07,2.42,2.42,0,0,1-.91.73,2.69,2.69,0,0,1-1.21.27,2.77,2.77,0,0,1-1.36-.34,2.47,2.47,0,0,1-.92-.95,3.13,3.13,0,0,1,0-2.8,2.44,2.44,0,0,1,.92-.94,2.77,2.77,0,0,1,1.36-.33,2.68,2.68,0,0,1,1.21.26,2.39,2.39,0,0,1,.91.72,2.27,2.27,0,0,1,.45,1.08h-.78a1.59,1.59,0,0,0-.61-1,1.89,1.89,0,0,0-1.18-.37,1.91,1.91,0,0,0-1,.24,1.7,1.7,0,0,0-.64.69,2.14,2.14,0,0,0-.23,1.05,2.21,2.21,0,0,0,.23,1.06,1.62,1.62,0,0,0,.64.68,1.82,1.82,0,0,0,1,.25A1.9,1.9,0,0,0,76.32,30a1.6,1.6,0,0,0,.6-1Z"/><path d="M83.09,29.46a1.39,1.39,0,0,1-.27.85,1.73,1.73,0,0,1-.78.57,3.46,3.46,0,0,1-1.24.2,3.33,3.33,0,0,1-1.31-.24,2,2,0,0,1-.89-.65,1.66,1.66,0,0,1-.35-1H79a1.19,1.19,0,0,0,.29.62,1.62,1.62,0,0,0,.62.42,2.66,2.66,0,0,0,.88.14,2.19,2.19,0,0,0,1.12-.24.73.73,0,0,0,.4-.66.5.5,0,0,0-.26-.48,2.62,2.62,0,0,0-1-.25l-.9-.1a2.87,2.87,0,0,1-1.06-.27,1.33,1.33,0,0,1-.57-.49,1.3,1.3,0,0,1-.17-.66,1.32,1.32,0,0,1,.27-.84,1.73,1.73,0,0,1,.77-.52,3.33,3.33,0,0,1,1.14-.17,3.37,3.37,0,0,1,1.23.21,2.16,2.16,0,0,1,.85.61,1.51,1.51,0,0,1,.35.9h-.76a1.11,1.11,0,0,0-.24-.53,1.39,1.39,0,0,0-.57-.38,2.42,2.42,0,0,0-.9-.15,2,2,0,0,0-1,.21.67.67,0,0,0-.37.61.54.54,0,0,0,.24.46,1.86,1.86,0,0,0,.85.25l1,.12a3.74,3.74,0,0,1,1.1.25,1.15,1.15,0,0,1,.57.48A1.37,1.37,0,0,1,83.09,29.46Z"/><path d="M91,28.39a4.56,4.56,0,0,1-.55,1.41,2.9,2.9,0,0,1-.9.94,2.19,2.19,0,0,1-1.17.34,2.25,2.25,0,0,1-1.21-.34,2.46,2.46,0,0,1-.82-.95,3.42,3.42,0,0,1,0-2.8,2.43,2.43,0,0,1,.82-.94,2.24,2.24,0,0,1,1.21-.33,2.18,2.18,0,0,1,1.17.33,3,3,0,0,1,.9.94A4.27,4.27,0,0,1,91,28.39Zm-4.18,0a2.26,2.26,0,0,0,.22,1,1.64,1.64,0,0,0,.6.7,1.58,1.58,0,0,0,.86.25,1.8,1.8,0,0,0,.91-.25,2.71,2.71,0,0,0,.74-.7,4,4,0,0,0,.52-1,4,4,0,0,0-.52-1,2.66,2.66,0,0,0-.74-.69,1.71,1.71,0,0,0-.91-.25,1.5,1.5,0,0,0-.86.25,1.62,1.62,0,0,0-.6.69A2.26,2.26,0,0,0,86.79,28.39ZM90.68,31,90.51,29l.21-.63-.21-.62.17-1.94h.77l-.22,2.56L91.45,31Z"/><path d="M92.36,25.83h.76l.26,1.74V31h-.75V27.45Zm2.93-.11a2,2,0,0,1,1.1.28,1.83,1.83,0,0,1,.69.83,3.41,3.41,0,0,1,.23,1.31V31h-.75V28.28a2.21,2.21,0,0,0-.38-1.39,1.36,1.36,0,0,0-1.11-.46,1.55,1.55,0,0,0-.89.25,1.72,1.72,0,0,0-.59.71,2.46,2.46,0,0,0-.21,1.05l-.3-.24a3.29,3.29,0,0,1,.35-1.32A2.23,2.23,0,0,1,94.2,26,2,2,0,0,1,95.29,25.72Z"/><path d="M103.15,28.39a4.57,4.57,0,0,1-.56,1.41,2.71,2.71,0,0,1-.9.94,2.15,2.15,0,0,1-1.16.34,2.22,2.22,0,0,1-1.21-.34,2.38,2.38,0,0,1-.82-.95,3.42,3.42,0,0,1,0-2.8,2.35,2.35,0,0,1,.82-.94,2.22,2.22,0,0,1,1.21-.33,2.14,2.14,0,0,1,1.16.33,2.93,2.93,0,0,1,.91.94A4.5,4.5,0,0,1,103.15,28.39Zm-4.18,0a2.26,2.26,0,0,0,.22,1,1.69,1.69,0,0,0,.59.7,1.64,1.64,0,0,0,.87.25,1.74,1.74,0,0,0,.9-.25,2.45,2.45,0,0,0,.74-.7,4,4,0,0,0,.53-1,4,4,0,0,0-.53-1,2.41,2.41,0,0,0-.74-.69,1.65,1.65,0,0,0-.9-.25,1.55,1.55,0,0,0-.87.25,1.67,1.67,0,0,0-.59.69A2.26,2.26,0,0,0,99,28.39ZM102.86,31l-.16-2,.22-.6-.21-.65L103,24h.77l-.38,4.4.21,2.61Z"/><path d="M106.25,26.51v-.4l1-.21.3-1.4H108v1.33h2.25v.68H108v2.6a1.39,1.39,0,0,0,.28,1,1.12,1.12,0,0,0,.85.28,2.18,2.18,0,0,0,.66-.1,2.92,2.92,0,0,0,.55-.29v.73a2.13,2.13,0,0,1-.58.26,2.61,2.61,0,0,1-.79.12,1.85,1.85,0,0,1-1-.24,1.32,1.32,0,0,1-.55-.66,2.54,2.54,0,0,1-.17-.94V26.51Z"/><path d="M113.44,31.08a2.94,2.94,0,0,1-1.41-.34,2.55,2.55,0,0,1-1-.95,2.67,2.67,0,0,1-.35-1.4,2.87,2.87,0,0,1,.33-1.4,2.39,2.39,0,0,1,.9-.94,2.69,2.69,0,0,1,1.34-.33,2.33,2.33,0,0,1,1.3.36,2.43,2.43,0,0,1,.87,1,3.71,3.71,0,0,1,.31,1.54H111.3V28h4.16l-.45.3a2.19,2.19,0,0,0-.24-1,1.61,1.61,0,0,0-.6-.64,1.58,1.58,0,0,0-.88-.23,1.8,1.8,0,0,0-.94.24,1.66,1.66,0,0,0-.63.68,2.19,2.19,0,0,0-.22,1,2.16,2.16,0,0,0,.25,1.08,1.77,1.77,0,0,0,.71.7,2.34,2.34,0,0,0,1.09.25,3.12,3.12,0,0,0,1.11-.21,3.34,3.34,0,0,0,1-.58v.66a3.23,3.23,0,0,1-1,.6A3.3,3.3,0,0,1,113.44,31.08Z"/><path d="M115.93,31l2.27-3v.61l-2.13-2.78h.9l1.72,2.24h-.44L120,25.83h.86l-2.16,2.79V28l2.3,3h-.88l-1.88-2.43h.45L116.78,31Z"/><path d="M121,26.51v-.4l1-.21.3-1.4h.45v1.33H125v.68h-2.25v2.6a1.39,1.39,0,0,0,.27,1,1.15,1.15,0,0,0,.85.28,2.18,2.18,0,0,0,.66-.1,2.71,2.71,0,0,0,.56-.29v.73a2.47,2.47,0,0,1-.58.26,2.66,2.66,0,0,1-.79.12,1.89,1.89,0,0,1-1-.24,1.43,1.43,0,0,1-.55-.66,2.54,2.54,0,0,1-.16-.94V26.51Z"/><path d="M127.8,31.08a1.92,1.92,0,0,1-1.07-.29,1.82,1.82,0,0,1-.68-.83,3.45,3.45,0,0,1-.23-1.31V25.83h.76v2.68a2.23,2.23,0,0,0,.36,1.38,1.31,1.31,0,0,0,1.08.47,1.58,1.58,0,0,0,.87-.25,1.7,1.7,0,0,0,.57-.71,2.46,2.46,0,0,0,.21-1l.29.19a3.43,3.43,0,0,1-.34,1.34,2.23,2.23,0,0,1-.76.89A1.91,1.91,0,0,1,127.8,31.08Zm2.12-.12-.25-1.75V25.83h.75v3.51l.25,1.62Z"/><path d="M131.48,25.83h.75l.26,1.75V31h-.75V27.43Zm3.46,0v.75a1.6,1.6,0,0,0-.36-.08l-.4,0a1.56,1.56,0,0,0-.88.25,1.61,1.61,0,0,0-.59.71,2.53,2.53,0,0,0-.22,1.11l-.21-.33a3.81,3.81,0,0,1,.15-1,2.55,2.55,0,0,1,.4-.79,1.87,1.87,0,0,1,.63-.52,1.8,1.8,0,0,1,.82-.18,2.11,2.11,0,0,1,.35,0A1.53,1.53,0,0,1,134.94,25.82Z"/><path d="M137.84,31.08a2.87,2.87,0,0,1-1.4-.34,2.5,2.5,0,0,1-1-.95,2.77,2.77,0,0,1-.35-1.4,2.87,2.87,0,0,1,.33-1.4,2.42,2.42,0,0,1,.91-.94,2.65,2.65,0,0,1,1.33-.33,2.27,2.27,0,0,1,2.17,1.38,3.56,3.56,0,0,1,.31,1.54H135.7V28h4.16l-.44.3a2.33,2.33,0,0,0-.25-1,1.61,1.61,0,0,0-.6-.64,1.57,1.57,0,0,0-.87-.23,1.84,1.84,0,0,0-.95.24,1.7,1.7,0,0,0-.62.68,2.19,2.19,0,0,0-.23,1,2.16,2.16,0,0,0,.26,1.08,1.65,1.65,0,0,0,.71.7,2.27,2.27,0,0,0,1.08.25,3,3,0,0,0,1.11-.21,3.34,3.34,0,0,0,1-.58v.66a3,3,0,0,1-1,.6A3.26,3.26,0,0,1,137.84,31.08Z"/><path d="M145.61,29.46a1.39,1.39,0,0,1-.27.85,1.64,1.64,0,0,1-.77.57,3.5,3.5,0,0,1-1.24.2,3.38,3.38,0,0,1-1.32-.24,2,2,0,0,1-.89-.65,1.65,1.65,0,0,1-.34-1h.77a1.1,1.1,0,0,0,.28.62,1.59,1.59,0,0,0,.63.42,2.6,2.6,0,0,0,.87.14,2.19,2.19,0,0,0,1.12-.24.74.74,0,0,0,.41-.66.52.52,0,0,0-.26-.48,2.69,2.69,0,0,0-1-.25l-.89-.1a2.77,2.77,0,0,1-1.06-.27,1.23,1.23,0,0,1-.75-1.15,1.33,1.33,0,0,1,.28-.84,1.69,1.69,0,0,1,.76-.52,3.33,3.33,0,0,1,1.14-.17,3.37,3.37,0,0,1,1.23.21,2.2,2.2,0,0,1,.86.61,1.57,1.57,0,0,1,.35.9h-.76a1,1,0,0,0-.25-.53,1.39,1.39,0,0,0-.57-.38,2.35,2.35,0,0,0-.9-.15,2.09,2.09,0,0,0-1,.21.66.66,0,0,0-.36.61.54.54,0,0,0,.24.46,1.81,1.81,0,0,0,.84.25l1,.12a3.66,3.66,0,0,1,1.09.25,1.15,1.15,0,0,1,.57.48A1.28,1.28,0,0,1,145.61,29.46Z"/><path class="cls-1" d="M4.57,0A4.57,4.57,0,1,0,9.14,4.57,4.58,4.58,0,0,0,4.57,0ZM6.75,3.77,4.17,6.23a.36.36,0,0,1-.49,0L2.39,5a.35.35,0,1,1,.49-.51l1.05,1L6.26,3.26a.35.35,0,0,1,.49.51Z"/><path class="cls-1" d="M4.57,13.36a4.57,4.57,0,1,0,4.57,4.57A4.57,4.57,0,0,0,4.57,13.36Zm2.18,3.77L4.17,19.59a.36.36,0,0,1-.49,0L2.39,18.36a.35.35,0,0,1,.49-.51l1.05,1,2.33-2.23a.35.35,0,1,1,.49.51Z"/></g></g></svg>