<?xml version="1.0" encoding="UTF-8"?>
<svg id="Layer_2" data-name="Layer 2" xmlns="http://www.w3.org/2000/svg" viewBox="0 0 84.94 9.79">
  <defs>
    <style>
      .cls-1 {
        fill: #fff;
      }

      .cls-1, .cls-2 {
        stroke-width: 0px;
      }

      .cls-2 {
        fill: #0085ca;
      }
    </style>
  </defs>
  <g id="Layer_1-2" data-name="Layer 1">
    <g>
      <rect class="cls-1" width="84.94" height="9.79" rx="2.24" ry="2.24"/>
      <g>
        <path class="cls-2" d="M3.66,6.61v-3.21h1.19c.19,0,.36.02.51.05.15.04.28.09.38.16.1.07.18.15.23.26.05.1.08.22.08.36,0,.12-.03.24-.08.34-.05.1-.14.19-.25.25s-.27.11-.45.13v.05c.31.02.54.1.69.23.15.13.22.32.22.54,0,.19-.04.34-.14.46s-.23.22-.4.28c-.18.07-.4.1-.67.1h-1.31ZM4.18,4.78h.6c.25,0,.44-.04.56-.12.12-.08.19-.2.19-.36s-.06-.28-.18-.35c-.12-.07-.3-.11-.54-.11h-.62v.94ZM4.18,6.16h.78c.23,0,.4-.04.52-.12s.17-.19.17-.35c0-.18-.07-.32-.21-.4s-.36-.13-.65-.13h-.61v1Z"/>
        <path class="cls-2" d="M7.98,6.68c-.23,0-.43-.04-.61-.11s-.33-.19-.45-.33c-.12-.14-.21-.32-.28-.52-.06-.21-.09-.43-.09-.69,0-.38.06-.69.19-.94s.3-.43.51-.56c.22-.12.47-.19.75-.19.22,0,.42.04.59.11.18.07.33.18.45.32s.22.32.29.53c.07.21.1.45.1.72s-.03.49-.1.7c-.06.21-.16.38-.28.52-.12.14-.27.25-.45.33-.18.08-.38.11-.61.11ZM7.99,6.22c.2,0,.36-.05.49-.14.13-.09.23-.23.3-.41s.1-.39.1-.65-.04-.49-.1-.67c-.07-.18-.17-.32-.3-.42-.13-.1-.29-.15-.49-.15s-.35.05-.48.14c-.13.09-.23.23-.3.41-.07.18-.1.4-.1.66,0,.2.02.37.06.53s.1.28.17.38c.08.1.17.18.28.23.11.05.24.08.38.08Z"/>
        <path class="cls-2" d="M11.26,6.68c-.23,0-.43-.04-.61-.11s-.33-.19-.45-.33c-.12-.14-.21-.32-.28-.52-.06-.21-.09-.43-.09-.69,0-.38.06-.69.19-.94s.3-.43.51-.56c.22-.12.47-.19.75-.19.22,0,.42.04.59.11.18.07.33.18.45.32s.22.32.29.53c.07.21.1.45.1.72s-.03.49-.1.7c-.06.21-.16.38-.28.52-.12.14-.27.25-.45.33-.18.08-.38.11-.61.11ZM11.27,6.22c.2,0,.36-.05.49-.14.13-.09.23-.23.3-.41s.1-.39.1-.65-.04-.49-.1-.67c-.07-.18-.17-.32-.3-.42-.13-.1-.29-.15-.49-.15s-.35.05-.48.14c-.13.09-.23.23-.3.41-.07.18-.1.4-.1.66,0,.2.02.37.06.53s.1.28.17.38c.08.1.17.18.28.23.11.05.24.08.38.08Z"/>
        <path class="cls-2" d="M13.19,6.61v-3.21h.53v1.47c.19-.04.37-.11.53-.21s.3-.22.43-.35c.12-.14.22-.28.3-.44.08-.16.13-.31.16-.47h.59c-.04.18-.1.36-.19.53-.09.17-.19.32-.31.46-.12.14-.26.26-.41.37-.15.1-.32.18-.49.24v.04c.19,0,.35.01.49.06.13.04.25.1.34.18.09.08.17.17.23.28.06.11.11.23.16.37l.22.69h-.59l-.15-.55c-.05-.17-.11-.31-.19-.42-.08-.11-.18-.19-.32-.25-.13-.06-.31-.08-.52-.08h-.29v1.3h-.53Z"/>
        <path class="cls-2" d="M17.03,6.61l1.12-3.21h.73l1.12,3.21h-.57l-.89-2.77h-.03l-.89,2.77h-.57ZM17.58,5.93v-.4h1.93v.4h-1.93Z"/>
        <path class="cls-2" d="M21.43,6.61v-3.21h.53v3.21h-.53ZM21.66,3.85v-.46h1.95v.46h-1.95ZM21.66,5.31v-.45h1.75v.45h-1.75Z"/>
        <path class="cls-2" d="M23.99,6.61v-3.21h1.18c.15,0,.29.01.42.04.13.03.25.06.35.11.1.05.19.11.27.19.07.08.13.17.17.27.04.1.06.22.06.34,0,.1-.01.2-.05.29-.03.09-.08.17-.15.25-.07.07-.16.13-.28.18s-.25.08-.41.09v.05c.17,0,.31.05.41.11s.19.15.25.25.11.24.15.39l.17.64h-.58l-.14-.59c-.03-.12-.07-.23-.12-.32-.05-.09-.13-.16-.22-.21-.1-.05-.22-.07-.38-.07h-.58v1.18h-.53ZM24.52,5h.58c.25,0,.45-.05.58-.14.13-.09.2-.24.2-.43s-.06-.35-.19-.44c-.12-.1-.32-.15-.57-.15h-.6v1.16Z"/>
        <path class="cls-2" d="M26.97,6.61v-3.21h.53v3.21h-.53ZM27.29,3.85v-.45h1.92v.45h-1.92ZM27.29,5.19v-.42h1.69v.42h-1.69ZM27.29,6.61v-.45h1.92v.45h-1.92Z"/>
        <path class="cls-2" d="M29.64,6.61v-3.21h.53v3.21h-.53ZM29.96,3.85v-.45h1.92v.45h-1.92ZM29.96,5.19v-.42h1.69v.42h-1.69ZM29.96,6.61v-.45h1.92v.45h-1.92Z"/>
        <path class="cls-2" d="M34.57,6.67c-.21,0-.39-.02-.55-.07s-.3-.11-.41-.2c-.11-.09-.2-.2-.25-.34-.05-.13-.08-.29-.07-.46l.5-.11c0,.18.02.32.09.43s.17.19.3.24c.13.05.27.07.42.07s.28-.02.39-.06.19-.09.25-.16c.06-.07.09-.15.09-.25,0-.11-.04-.2-.11-.26-.08-.06-.17-.12-.29-.16-.12-.04-.25-.07-.4-.11-.15-.04-.29-.07-.43-.12-.14-.04-.27-.1-.38-.17-.12-.07-.21-.16-.27-.26-.07-.11-.1-.25-.1-.41,0-.19.05-.36.14-.5s.23-.25.41-.33c.18-.08.39-.12.63-.12s.45.04.64.12c.18.08.33.19.43.34.1.15.15.34.14.56l-.49.1c0-.11,0-.21-.04-.29s-.08-.16-.15-.21c-.07-.06-.14-.1-.24-.13s-.2-.04-.31-.04c-.13,0-.25.02-.35.06s-.17.09-.22.16c-.05.07-.08.15-.08.24,0,.11.04.2.11.27.07.07.17.12.3.15s.26.07.41.11c.14.03.28.07.42.11s.26.1.38.17c.12.07.21.16.28.27.07.11.1.25.1.42,0,.2-.05.37-.15.51-.1.14-.25.25-.44.32-.19.07-.42.11-.68.11Z"/>
        <path class="cls-2" d="M36.28,6.61v-3.21h.54v3.21h-.54Z"/>
        <path class="cls-2" d="M37.18,3.86v-.46h2.35v.46h-2.35ZM38.09,6.61v-3.21h.54v3.21h-.54Z"/>
        <path class="cls-2" d="M39.9,6.61v-3.21h.53v3.21h-.53ZM40.23,3.85v-.45h1.92v.45h-1.92ZM40.23,5.19v-.42h1.69v.42h-1.69ZM40.23,6.61v-.45h1.92v.45h-1.92Z"/>
        <path class="cls-2" d="M43.66,6.61v-3.21h.54v3.21h-.54Z"/>
        <path class="cls-2" d="M44.76,6.61v-3.21h.72l1.52,2.54h.02v-2.54s.52,0,.52,0v3.21h-.69l-1.56-2.59h-.02v2.59s-.51,0-.51,0Z"/>
        <path class="cls-2" d="M49.29,6.67c-.21,0-.39-.02-.55-.07s-.3-.11-.41-.2c-.11-.09-.2-.2-.25-.34-.05-.13-.08-.29-.07-.46l.5-.11c0,.18.02.32.09.43s.17.19.3.24c.13.05.27.07.42.07s.28-.02.39-.06.19-.09.25-.16c.06-.07.09-.15.09-.25,0-.11-.04-.2-.11-.26-.08-.06-.17-.12-.29-.16-.12-.04-.25-.07-.4-.11-.15-.04-.29-.07-.43-.12-.14-.04-.27-.1-.38-.17-.12-.07-.21-.16-.27-.26-.07-.11-.1-.25-.1-.41,0-.19.05-.36.14-.5s.23-.25.41-.33c.18-.08.39-.12.63-.12s.45.04.64.12c.18.08.33.19.43.34.1.15.15.34.14.56l-.49.1c0-.11,0-.21-.04-.29s-.08-.16-.15-.21c-.07-.06-.14-.1-.24-.13s-.2-.04-.31-.04c-.13,0-.25.02-.35.06s-.17.09-.22.16c-.05.07-.08.15-.08.24,0,.11.04.2.11.27.07.07.17.12.3.15s.26.07.41.11c.14.03.28.07.42.11s.26.1.38.17c.12.07.21.16.28.27.07.11.1.25.1.42,0,.2-.05.37-.15.51-.1.14-.25.25-.44.32-.19.07-.42.11-.68.11Z"/>
        <path class="cls-2" d="M51,6.61v-3.21h.53v3.21h-.53ZM51.32,5.61v-.44h.74c.27,0,.48-.05.62-.16.14-.11.21-.28.21-.51,0-.22-.06-.38-.19-.49-.13-.11-.32-.16-.59-.16h-.79v-.44h.83c.19,0,.37.02.52.07.16.05.29.11.4.21s.2.21.26.35c.06.14.09.3.09.48,0,.24-.05.44-.16.6-.11.17-.27.29-.48.37-.21.08-.48.13-.79.13h-.68Z"/>
        <path class="cls-2" d="M53.84,6.61v-3.21h.53v3.21h-.53ZM54.16,3.85v-.45h1.92v.45h-1.92ZM54.16,5.19v-.42h1.69v.42h-1.69ZM54.16,6.61v-.45h1.92v.45h-1.92Z"/>
        <path class="cls-2" d="M57.79,6.67c-.24,0-.46-.04-.64-.12-.18-.08-.34-.19-.46-.33-.12-.15-.22-.32-.28-.52-.06-.2-.09-.43-.09-.67s.03-.48.1-.69c.06-.21.16-.39.28-.54s.28-.26.46-.34c.18-.08.39-.12.62-.12.19,0,.36.03.51.08.15.06.28.13.38.23.1.1.18.22.23.35.05.14.08.29.08.45l-.49.09c0-.16-.04-.3-.1-.41s-.15-.2-.25-.26c-.11-.06-.23-.09-.37-.09-.12,0-.24.02-.35.07-.11.05-.2.12-.28.22-.08.1-.14.22-.19.38-.05.15-.07.33-.07.54,0,.27.04.49.11.67.07.18.18.32.33.41.14.09.31.14.51.14.18,0,.33-.04.44-.12.12-.08.2-.18.26-.32.05-.14.08-.3.08-.49l.5.06c0,.18-.01.35-.06.51s-.13.3-.23.42c-.11.12-.24.22-.4.28-.16.07-.36.1-.59.1Z"/>
        <path class="cls-2" d="M59.2,3.86v-.46h2.35v.46h-2.35ZM60.11,6.61v-3.21h.54v3.21h-.54Z"/>
        <path class="cls-2" d="M61.92,6.61v-3.21h.54v3.21h-.54Z"/>
        <path class="cls-2" d="M64.38,6.68c-.23,0-.43-.04-.61-.11s-.33-.19-.45-.33c-.12-.14-.21-.32-.28-.52-.06-.21-.09-.43-.09-.69,0-.38.06-.69.19-.94s.3-.43.51-.56c.22-.12.47-.19.75-.19.22,0,.42.04.59.11.18.07.33.18.45.32s.22.32.29.53c.07.21.1.45.1.72s-.03.49-.1.7c-.06.21-.16.38-.28.52-.12.14-.27.25-.45.33-.18.08-.38.11-.61.11ZM64.39,6.22c.2,0,.36-.05.49-.14.13-.09.23-.23.3-.41s.1-.39.1-.65-.04-.49-.1-.67c-.07-.18-.17-.32-.3-.42-.13-.1-.29-.15-.49-.15s-.35.05-.48.14c-.13.09-.23.23-.3.41-.07.18-.1.4-.1.66,0,.2.02.37.06.53s.1.28.17.38c.08.1.17.18.28.23.11.05.24.08.38.08Z"/>
        <path class="cls-2" d="M66.31,6.61v-3.21h.72l1.52,2.54h.02v-2.54s.52,0,.52,0v3.21h-.69l-1.56-2.59h-.02v2.59s-.51,0-.51,0Z"/>
      </g>
    </g>
  </g>
</svg>