<svg xmlns="http://www.w3.org/2000/svg" viewBox="0 0 116.85 5.15"><defs><style>.cls-1{fill:#fff;}</style></defs><g id="Layer_2" data-name="Layer 2"><g id="Layer_1-2" data-name="Layer 1"><path class="cls-1" d="M0,4.13V.3H.54V4.13ZM.27.75V.3H2.69V.75Zm0,1.64V2H2.42v.43Zm0,1.74V3.67H2.69v.46Z"/><path class="cls-1" d="M3.38,4.13V.06h.53V4.13Z"/><path class="cls-1" d="M6.11,4.21a1.71,1.71,0,0,1-.62-.11A1.14,1.14,0,0,1,5,3.79a1.35,1.35,0,0,1-.28-.48,2.08,2.08,0,0,1-.09-.63A2.22,2.22,0,0,1,4.75,2,1.51,1.51,0,0,1,5,1.51a1.17,1.17,0,0,1,.45-.34,1.54,1.54,0,0,1,1.14,0A1,1,0,0,1,7,1.46,1.29,1.29,0,0,1,7.28,2a2.35,2.35,0,0,1,.07.73L5,2.72V2.36l2,0-.18.25A1.27,1.27,0,0,0,6.78,2a.8.8,0,0,0-.28-.36.77.77,0,0,0-.43-.12.87.87,0,0,0-.48.14.9.9,0,0,0-.31.4,1.7,1.7,0,0,0-.1.63,1.23,1.23,0,0,0,.23.82.88.88,0,0,0,.71.28,1,1,0,0,0,.32,0,.71.71,0,0,0,.23-.12.58.58,0,0,0,.16-.19,1.47,1.47,0,0,0,.1-.22l.46.11a1.12,1.12,0,0,1-.16.37A.9.9,0,0,1,7,4a1.29,1.29,0,0,1-.37.19A1.75,1.75,0,0,1,6.11,4.21Z"/><path class="cls-1" d="M8.79,4.13l-1.07-3H8.3l.82,2.56H9.2L10,1.13h.57l-1.07,3Z"/><path class="cls-1" d="M11.8,4.21a.92.92,0,0,1-.44-.1.76.76,0,0,1-.31-.28.9.9,0,0,1-.12-.48A.92.92,0,0,1,11,3a.71.71,0,0,1,.24-.28,1.43,1.43,0,0,1,.43-.19,6,6,0,0,1,.64-.13l.35-.06a.41.41,0,0,0,.2-.09.26.26,0,0,0,.07-.2.5.5,0,0,0-.15-.37.62.62,0,0,0-.48-.16,1,1,0,0,0-.34.06.79.79,0,0,0-.31.2.61.61,0,0,0-.16.38L11,2a1.2,1.2,0,0,1,.15-.37,1,1,0,0,1,.28-.29,1.17,1.17,0,0,1,.39-.18,1.55,1.55,0,0,1,.5-.07,1.34,1.34,0,0,1,.63.13.89.89,0,0,1,.38.39,1.66,1.66,0,0,1,.12.68v.67c0,.12,0,.25,0,.39s0,.28,0,.43l0,.39H13l0-.37c0-.12,0-.25,0-.37h-.08a1.34,1.34,0,0,1-.23.4,1,1,0,0,1-.36.3A1.08,1.08,0,0,1,11.8,4.21ZM12,3.78a.78.78,0,0,0,.26,0,.83.83,0,0,0,.26-.14,1.34,1.34,0,0,0,.25-.23A1.71,1.71,0,0,0,12.94,3V2.44l.15,0a.48.48,0,0,1-.24.14,1.87,1.87,0,0,1-.34.08l-.38.06a1.89,1.89,0,0,0-.34.09.63.63,0,0,0-.24.18.45.45,0,0,0-.09.3.45.45,0,0,0,.13.35A.57.57,0,0,0,12,3.78Z"/><path class="cls-1" d="M15.29,4.19A.79.79,0,0,1,14.66,4a1,1,0,0,1-.2-.69V1.57H14V1.13h.29a.41.41,0,0,0,.21,0A.3.3,0,0,0,14.59.9l.06-.45H15v.68h.87v.45H15V3.26a.46.46,0,0,0,.11.34.46.46,0,0,0,.31.1l.23,0a.68.68,0,0,0,.24-.12v.53l-.32.09Z"/><path class="cls-1" d="M17.76,4.21a1.73,1.73,0,0,1-.63-.11,1.1,1.1,0,0,1-.45-.31,1.22,1.22,0,0,1-.28-.48,1.81,1.81,0,0,1-.1-.63A1.93,1.93,0,0,1,16.4,2a1.51,1.51,0,0,1,.27-.52,1.22,1.22,0,0,1,.44-.34,1.46,1.46,0,0,1,.6-.12,1.33,1.33,0,0,1,.54.1,1.07,1.07,0,0,1,.42.31,1.44,1.44,0,0,1,.26.51A2.35,2.35,0,0,1,19,2.7l-2.36,0V2.36l2,0-.18.25A1.4,1.4,0,0,0,18.43,2a.74.74,0,0,0-.72-.48.81.81,0,0,0-.78.54,1.69,1.69,0,0,0-.11.63,1.23,1.23,0,0,0,.24.82.86.86,0,0,0,.7.28,1.06,1.06,0,0,0,.33,0,.84.84,0,0,0,.23-.12.74.74,0,0,0,.16-.19.85.85,0,0,0,.09-.22l.47.11a1.38,1.38,0,0,1-.16.37.9.9,0,0,1-.27.28,1.43,1.43,0,0,1-.37.19A1.75,1.75,0,0,1,17.76,4.21Z"/><path class="cls-1" d="M22.3,5.15a1.84,1.84,0,0,1-.47-.06,1.54,1.54,0,0,1-.42-.17,1,1,0,0,1-.32-.28l.27-.38a.88.88,0,0,0,.38.3,1.33,1.33,0,0,0,.54.1,1,1,0,0,0,.54-.14.9.9,0,0,0,.33-.44,2.28,2.28,0,0,0,.11-.75l.07-.6h-.11a2.23,2.23,0,0,1-.2.67,1,1,0,0,1-.34.37,1,1,0,0,1-.46.11.9.9,0,0,1-.55-.17,1,1,0,0,1-.34-.49,2.21,2.21,0,0,1-.12-.78V1.13h.53V2.32a1.62,1.62,0,0,0,.16.83.54.54,0,0,0,.48.26.62.62,0,0,0,.31-.08.78.78,0,0,0,.25-.26,1.76,1.76,0,0,0,.16-.43,3.23,3.23,0,0,0,.08-.6V1.13h.53V3.36a3.1,3.1,0,0,1-.06.64,1.73,1.73,0,0,1-.16.5,1.23,1.23,0,0,1-.28.35,1.2,1.2,0,0,1-.4.22A1.6,1.6,0,0,1,22.3,5.15Z"/><path class="cls-1" d="M25.91,4.21A1.45,1.45,0,0,1,25.15,4a1.33,1.33,0,0,1-.51-.54,1.91,1.91,0,0,1-.18-.86,1.75,1.75,0,0,1,.19-.87,1.24,1.24,0,0,1,.52-.52,1.49,1.49,0,0,1,.73-.18,1.38,1.38,0,0,1,.74.19,1.35,1.35,0,0,1,.53.53,1.87,1.87,0,0,1,.19.87,1.93,1.93,0,0,1-.19.87,1.3,1.3,0,0,1-.52.52A1.53,1.53,0,0,1,25.91,4.21Zm0-.44a.82.82,0,0,0,.48-.13.81.81,0,0,0,.31-.39,1.51,1.51,0,0,0,.11-.59A1.49,1.49,0,0,0,26.71,2a.91.91,0,0,0-.32-.4.92.92,0,0,0-.5-.14.84.84,0,0,0-.48.13A.81.81,0,0,0,25.1,2a1.57,1.57,0,0,0-.11.6,1.37,1.37,0,0,0,.25.86A.84.84,0,0,0,25.93,3.77Z"/><path class="cls-1" d="M29.08,4.21a.9.9,0,0,1-.76-.35,1.75,1.75,0,0,1-.25-1V1.13h.53V2.77a1.4,1.4,0,0,0,.15.73.52.52,0,0,0,.48.24.57.57,0,0,0,.32-.09.88.88,0,0,0,.26-.25A1.76,1.76,0,0,0,30,3a3.16,3.16,0,0,0,.09-.48V1.13h.53v3h-.47l0-1H30.1a1.69,1.69,0,0,1-.22.59.85.85,0,0,1-.34.34A1,1,0,0,1,29.08,4.21Z"/><path class="cls-1" d="M31.53,4.13v-3H32l0,1h.1a2,2,0,0,1,.16-.59,1,1,0,0,1,.29-.39A.76.76,0,0,1,33,1.05h.13l.18,0,0,.56a.61.61,0,0,0-.18,0l-.16,0a.57.57,0,0,0-.4.15,1,1,0,0,0-.27.39,2.3,2.3,0,0,0-.18.56V4.13Z"/><path class="cls-1" d="M36.61,4.21A1.45,1.45,0,0,1,35.85,4a1.33,1.33,0,0,1-.51-.54,1.79,1.79,0,0,1-.19-.86,1.75,1.75,0,0,1,.2-.87,1.24,1.24,0,0,1,.52-.52,1.49,1.49,0,0,1,.73-.18,1.41,1.41,0,0,1,.74.19,1.27,1.27,0,0,1,.52.53,1.75,1.75,0,0,1,.2.87,1.93,1.93,0,0,1-.19.87,1.3,1.3,0,0,1-.52.52A1.53,1.53,0,0,1,36.61,4.21Zm0-.44a.82.82,0,0,0,.48-.13.87.87,0,0,0,.31-.39,1.51,1.51,0,0,0,.11-.59A1.49,1.49,0,0,0,37.41,2a.91.91,0,0,0-.32-.4.93.93,0,0,0-.51-.14.82.82,0,0,0-.78.5,1.57,1.57,0,0,0-.11.6,1.32,1.32,0,0,0,.25.86A.84.84,0,0,0,36.63,3.77Z"/><path class="cls-1" d="M39.78,4.21A.88.88,0,0,1,39,3.86a1.75,1.75,0,0,1-.25-1V1.13h.53V2.77a1.4,1.4,0,0,0,.15.73.52.52,0,0,0,.48.24.57.57,0,0,0,.32-.09.75.75,0,0,0,.25-.25A1.17,1.17,0,0,0,40.68,3a2.26,2.26,0,0,0,.1-.48V1.13h.53v3h-.48l.05-1h-.09a1.93,1.93,0,0,1-.21.59.85.85,0,0,1-.34.34A1,1,0,0,1,39.78,4.21Z"/><path class="cls-1" d="M43.17,4.19A.79.79,0,0,1,42.54,4a1,1,0,0,1-.2-.69V1.57h-.45V1.13h.29a.36.36,0,0,0,.21,0A.25.25,0,0,0,42.47.9l.06-.45h.32v.68h.87v.45h-.87V3.26A.46.46,0,0,0,43,3.6a.48.48,0,0,0,.31.1.91.91,0,0,0,.23,0,.68.68,0,0,0,.24-.12v.53l-.31.09Z"/><path class="cls-1" d="M45.41,4.21a1.14,1.14,0,0,1-.66-.2,1.3,1.3,0,0,1-.41-.56,2.11,2.11,0,0,1-.14-.82,2.09,2.09,0,0,1,.14-.81,1.23,1.23,0,0,1,.4-.56,1.1,1.1,0,0,1,.66-.2.91.91,0,0,1,.52.13,1,1,0,0,1,.33.35,1.43,1.43,0,0,1,.18.46h.11c0-.11,0-.23,0-.35s0-.24,0-.36a1.89,1.89,0,0,1,0-.32V.06H47V4.13h-.47l0-.81h-.1a1.59,1.59,0,0,1-.19.46,1,1,0,0,1-.33.32A1,1,0,0,1,45.41,4.21Zm.12-.47a.79.79,0,0,0,.38-.09,1.2,1.2,0,0,0,.29-.26A1.42,1.42,0,0,0,46.37,3a1.13,1.13,0,0,0,.06-.36V2.61a1.22,1.22,0,0,0,0-.26,1.66,1.66,0,0,0-.1-.29,1,1,0,0,0-.18-.27.71.71,0,0,0-.58-.27.63.63,0,0,0-.43.15.84.84,0,0,0-.27.4,1.72,1.72,0,0,0-.09.58,1.62,1.62,0,0,0,.09.57.81.81,0,0,0,.27.39A.68.68,0,0,0,45.53,3.74Z"/><path class="cls-1" d="M49.17,4.21A1.48,1.48,0,0,1,48.41,4a1.4,1.4,0,0,1-.51-.54,1.91,1.91,0,0,1-.18-.86,1.75,1.75,0,0,1,.19-.87,1.3,1.3,0,0,1,.52-.52,1.49,1.49,0,0,1,.73-.18,1.44,1.44,0,0,1,.75.19,1.33,1.33,0,0,1,.52.53,1.75,1.75,0,0,1,.19.87,1.8,1.8,0,0,1-.19.87,1.24,1.24,0,0,1-.52.52A1.47,1.47,0,0,1,49.17,4.21Zm0-.44a.86.86,0,0,0,.48-.13.85.85,0,0,0,.3-.39,1.35,1.35,0,0,0,.11-.59A1.67,1.67,0,0,0,50,2a1.07,1.07,0,0,0-.32-.4.93.93,0,0,0-.51-.14.81.81,0,0,0-.47.13.76.76,0,0,0-.31.37,1.4,1.4,0,0,0-.12.6,1.32,1.32,0,0,0,.26.86A.84.84,0,0,0,49.2,3.77Z"/><path class="cls-1" d="M52.67,4.21A1.45,1.45,0,0,1,51.91,4a1.33,1.33,0,0,1-.51-.54,1.91,1.91,0,0,1-.19-.86,1.75,1.75,0,0,1,.2-.87,1.24,1.24,0,0,1,.52-.52,1.49,1.49,0,0,1,.73-.18,1.41,1.41,0,0,1,.74.19,1.27,1.27,0,0,1,.52.53,1.75,1.75,0,0,1,.2.87,1.93,1.93,0,0,1-.19.87,1.3,1.3,0,0,1-.52.52A1.53,1.53,0,0,1,52.67,4.21Zm0-.44a.82.82,0,0,0,.48-.13.87.87,0,0,0,.31-.39,1.51,1.51,0,0,0,.11-.59A1.49,1.49,0,0,0,53.47,2a.91.91,0,0,0-.32-.4.93.93,0,0,0-.51-.14.82.82,0,0,0-.78.5,1.57,1.57,0,0,0-.11.6,1.32,1.32,0,0,0,.25.86A.84.84,0,0,0,52.69,3.77Z"/><path class="cls-1" d="M54.87,4.13v-3h.48l-.05,1h.1a3,3,0,0,1,.16-.59,1.1,1.1,0,0,1,.3-.39.73.73,0,0,1,.45-.14h.14l.17,0,0,.56a.55.55,0,0,0-.17,0l-.17,0a.56.56,0,0,0-.39.15,1.06,1.06,0,0,0-.28.39,3.69,3.69,0,0,0-.18.56V4.13Z"/><path class="cls-1" d="M58.66,4.13V.06h.53V4.13Z"/><path class="cls-1" d="M60.38.6A.43.43,0,0,1,60.1.53.29.29,0,0,1,60,.3a.27.27,0,0,1,.1-.22A.36.36,0,0,1,60.37,0a.38.38,0,0,1,.28.08.27.27,0,0,1,.09.22.3.3,0,0,1-.09.23A.41.41,0,0,1,60.38.6Zm-.27,3.53v-3h.53v3Z"/><path class="cls-1" d="M62.29,4.13l-1.08-3h.59l.82,2.56h.08l.81-2.56h.58L63,4.13Z"/><path class="cls-1" d="M64.93.6a.45.45,0,0,1-.28-.07A.29.29,0,0,1,64.56.3a.27.27,0,0,1,.09-.22A.36.36,0,0,1,64.92,0a.38.38,0,0,1,.28.08.25.25,0,0,1,.1.22.28.28,0,0,1-.1.23A.41.41,0,0,1,64.93.6Zm-.27,3.53v-3h.53v3Z"/><path class="cls-1" d="M66.11,4.13v-3h.48l0,1h.09a2.13,2.13,0,0,1,.22-.58,1,1,0,0,1,.35-.34,1.07,1.07,0,0,1,.49-.11.89.89,0,0,1,.76.36,1.84,1.84,0,0,1,.25,1.07V4.13h-.53V2.52A1.35,1.35,0,0,0,68,1.77a.52.52,0,0,0-.47-.25.67.67,0,0,0-.47.18,1.2,1.2,0,0,0-.31.46,2,2,0,0,0-.12.61V4.13Z"/><path class="cls-1" d="M70.7,5.15a3.35,3.35,0,0,1-.78-.07.86.86,0,0,1-.45-.22.5.5,0,0,1-.15-.37.54.54,0,0,1,.21-.44,1.22,1.22,0,0,1,.63-.24v-.1a1.08,1.08,0,0,1-.46-.08.23.23,0,0,1-.16-.22.31.31,0,0,1,.16-.27,1.62,1.62,0,0,1,.51-.2V2.83a.67.67,0,0,1-.54-.21.81.81,0,0,1-.19-.54.86.86,0,0,1,.16-.51,1,1,0,0,1,.47-.34,2,2,0,0,1,.73-.12h1.42v.45l-.93-.15v.11a1.1,1.1,0,0,1,.51.24A.57.57,0,0,1,72,2.2a.66.66,0,0,1-.14.44,1,1,0,0,1-.43.29,2,2,0,0,1-.69.1h-.18l-.23,0a1.35,1.35,0,0,0-.25.18c-.07.05-.1.1-.1.14s0,.08.09.11a.67.67,0,0,0,.22,0l.24,0h.68a1.65,1.65,0,0,1,.65.12.93.93,0,0,1,.3.23.72.72,0,0,1,.12.44.69.69,0,0,1-.19.51,1,1,0,0,1-.54.28A3.63,3.63,0,0,1,70.7,5.15Zm0-.44a3.62,3.62,0,0,0,.63,0,.86.86,0,0,0,.36-.16.37.37,0,0,0,.11-.27A.34.34,0,0,0,71.73,4a.39.39,0,0,0-.19-.12,1,1,0,0,0-.24,0h-.87a.94.94,0,0,0-.47.21.43.43,0,0,0-.13.28.29.29,0,0,0,.12.25.8.8,0,0,0,.32.11A3,3,0,0,0,70.71,4.71Zm.07-2a.86.86,0,0,0,.55-.15.5.5,0,0,0,.19-.41.58.58,0,0,0-.19-.45.81.81,0,0,0-.57-.18.85.85,0,0,0-.56.17A.54.54,0,0,0,70,2.1a.52.52,0,0,0,.35.51A1,1,0,0,0,70.78,2.69Z"/><path class="cls-1" d="M75.72,4.21a1.71,1.71,0,0,1-.62-.11,1.14,1.14,0,0,1-.46-.31,1.35,1.35,0,0,1-.28-.48,2.08,2.08,0,0,1-.09-.63A2.22,2.22,0,0,1,74.36,2a1.51,1.51,0,0,1,.27-.52,1.17,1.17,0,0,1,.45-.34,1.54,1.54,0,0,1,1.14,0,1,1,0,0,1,.41.31,1.29,1.29,0,0,1,.26.51A2.35,2.35,0,0,1,77,2.7l-2.36,0V2.36l2,0-.18.25A1.27,1.27,0,0,0,76.39,2a.8.8,0,0,0-.28-.36.77.77,0,0,0-.43-.12.87.87,0,0,0-.48.14.9.9,0,0,0-.31.4,1.7,1.7,0,0,0-.1.63,1.29,1.29,0,0,0,.23.82.88.88,0,0,0,.71.28,1,1,0,0,0,.32,0,.71.71,0,0,0,.23-.12.58.58,0,0,0,.16-.19,1.47,1.47,0,0,0,.1-.22l.46.11a1.12,1.12,0,0,1-.16.37.9.9,0,0,1-.27.28,1.29,1.29,0,0,1-.37.19A1.75,1.75,0,0,1,75.72,4.21Z"/><path class="cls-1" d="M77.34,4.13l1-1.5-1-1.5H78l.71,1.21h.07l.7-1.21h.62l-1,1.5,1,1.5h-.62l-.72-1.21h-.07L78,4.13Z"/><path class="cls-1" d="M80.66,5.08V1.13h.48l0,.77h.08a1.37,1.37,0,0,1,.2-.44.84.84,0,0,1,.32-.3,1,1,0,0,1,.48-.11,1.13,1.13,0,0,1,.69.21,1.24,1.24,0,0,1,.41.56,2.09,2.09,0,0,1,.14.81,2,2,0,0,1-.14.81,1.19,1.19,0,0,1-.41.56,1,1,0,0,1-.66.21.93.93,0,0,1-.52-.13,1,1,0,0,1-.33-.35,2.44,2.44,0,0,1-.19-.44h-.1a1.65,1.65,0,0,1,.06.32c0,.11,0,.22,0,.33s0,.22,0,.32v.82Zm1.43-1.33a.64.64,0,0,0,.43-.15,1,1,0,0,0,.27-.4,1.76,1.76,0,0,0,.09-.58,1.44,1.44,0,0,0-.1-.58.86.86,0,0,0-.27-.39.64.64,0,0,0-.42-.13.79.79,0,0,0-.38.09.87.87,0,0,0-.28.26,1.16,1.16,0,0,0-.18.35,1.19,1.19,0,0,0-.06.37v.07a1.22,1.22,0,0,0,0,.26,1.72,1.72,0,0,0,.11.29,1,1,0,0,0,.17.27,1,1,0,0,0,.26.19A.67.67,0,0,0,82.09,3.75Z"/><path class="cls-1" d="M85.49,4.21a1.67,1.67,0,0,1-.62-.11,1.14,1.14,0,0,1-.46-.31,1.35,1.35,0,0,1-.28-.48A2.08,2.08,0,0,1,84,2.68,2.22,2.22,0,0,1,84.13,2a1.51,1.51,0,0,1,.27-.52,1.22,1.22,0,0,1,.44-.34,1.46,1.46,0,0,1,.6-.12,1.33,1.33,0,0,1,.54.1,1,1,0,0,1,.42.31,1.44,1.44,0,0,1,.26.51,2.35,2.35,0,0,1,.07.73l-2.36,0V2.36l2,0-.18.25A1.4,1.4,0,0,0,86.16,2a.8.8,0,0,0-.28-.36.81.81,0,0,0-.44-.12.86.86,0,0,0-.47.14.9.9,0,0,0-.31.4,1.69,1.69,0,0,0-.11.63,1.23,1.23,0,0,0,.24.82.88.88,0,0,0,.71.28,1,1,0,0,0,.32,0,.71.71,0,0,0,.23-.12.58.58,0,0,0,.16-.19.85.85,0,0,0,.09-.22l.47.11a1.38,1.38,0,0,1-.16.37.9.9,0,0,1-.27.28,1.29,1.29,0,0,1-.37.19A1.75,1.75,0,0,1,85.49,4.21Z"/><path class="cls-1" d="M87.48,4.13v-3H88l0,1H88a2.41,2.41,0,0,1,.16-.59,1,1,0,0,1,.29-.39.78.78,0,0,1,.46-.14h.13l.18,0,0,.56a.64.64,0,0,0-.17,0l-.17,0a.6.6,0,0,0-.4.15,1,1,0,0,0-.27.39,2.3,2.3,0,0,0-.18.56V4.13Z"/><path class="cls-1" d="M90.07.6a.47.47,0,0,1-.28-.07A.29.29,0,0,1,89.7.3a.27.27,0,0,1,.09-.22.53.53,0,0,1,.56,0,.27.27,0,0,1,.09.22.3.3,0,0,1-.09.23A.47.47,0,0,1,90.07.6ZM89.8,4.13v-3h.53v3Z"/><path class="cls-1" d="M92.54,4.21a1.71,1.71,0,0,1-.62-.11,1.21,1.21,0,0,1-.46-.31,1.35,1.35,0,0,1-.28-.48,2.08,2.08,0,0,1-.09-.63A2.22,2.22,0,0,1,91.18,2a1.53,1.53,0,0,1,.28-.52,1.14,1.14,0,0,1,.44-.34,1.4,1.4,0,0,1,.6-.12,1.37,1.37,0,0,1,.54.1,1,1,0,0,1,.41.31,1.29,1.29,0,0,1,.26.51,2.35,2.35,0,0,1,.07.73l-2.36,0V2.36l2,0-.18.25A1.27,1.27,0,0,0,93.21,2a.74.74,0,0,0-.28-.36.77.77,0,0,0-.43-.12.82.82,0,0,0-.47.14.92.92,0,0,0-.32.4,1.7,1.7,0,0,0-.1.63,1.23,1.23,0,0,0,.24.82.84.84,0,0,0,.7.28,1,1,0,0,0,.32,0,.71.71,0,0,0,.23-.12.58.58,0,0,0,.16-.19,1.47,1.47,0,0,0,.1-.22l.46.11a1.12,1.12,0,0,1-.16.37.9.9,0,0,1-.27.28,1.23,1.23,0,0,1-.36.19A1.77,1.77,0,0,1,92.54,4.21Z"/><path class="cls-1" d="M94.53,4.13v-3H95l-.05,1h.09a2.13,2.13,0,0,1,.22-.58,1,1,0,0,1,.35-.34,1.07,1.07,0,0,1,.49-.11.89.89,0,0,1,.76.36,1.83,1.83,0,0,1,.26,1.07V4.13h-.54V2.52a1.35,1.35,0,0,0-.16-.75A.52.52,0,0,0,96,1.52a.67.67,0,0,0-.47.18,1.2,1.2,0,0,0-.31.46,2,2,0,0,0-.12.61V4.13Z"/><path class="cls-1" d="M99.29,4.21a1.48,1.48,0,0,1-.67-.13,1.12,1.12,0,0,1-.45-.34,1.31,1.31,0,0,1-.25-.5,2.2,2.2,0,0,1-.08-.58A2.06,2.06,0,0,1,97.93,2a1.45,1.45,0,0,1,.26-.51,1.24,1.24,0,0,1,.44-.35,1.38,1.38,0,0,1,.62-.13,1.48,1.48,0,0,1,.61.12,1.18,1.18,0,0,1,.43.34,1.06,1.06,0,0,1,.21.51l-.51.14a.9.9,0,0,0-.09-.32.64.64,0,0,0-.25-.24.72.72,0,0,0-.4-.1.8.8,0,0,0-.39.09.88.88,0,0,0-.27.24,1.38,1.38,0,0,0-.16.37,1.64,1.64,0,0,0-.05.45,1.74,1.74,0,0,0,.09.59.79.79,0,0,0,.3.39.94.94,0,0,0,.52.14.86.86,0,0,0,.41-.09.62.62,0,0,0,.27-.24,1,1,0,0,0,.13-.36l.48.11a1,1,0,0,1-.15.44.87.87,0,0,1-.28.32,1.23,1.23,0,0,1-.38.19A1.51,1.51,0,0,1,99.29,4.21Z"/><path class="cls-1" d="M102.48,4.21a1.67,1.67,0,0,1-.62-.11,1.14,1.14,0,0,1-.46-.31,1.35,1.35,0,0,1-.28-.48,2.08,2.08,0,0,1-.09-.63,2.22,2.22,0,0,1,.09-.65,1.51,1.51,0,0,1,.27-.52,1.22,1.22,0,0,1,.44-.34,1.46,1.46,0,0,1,.6-.12,1.33,1.33,0,0,1,.54.1,1,1,0,0,1,.42.31,1.44,1.44,0,0,1,.26.51,2.35,2.35,0,0,1,.07.73l-2.36,0V2.36l2,0-.18.25a1.4,1.4,0,0,0-.07-.61.8.8,0,0,0-.28-.36.78.78,0,0,0-.44-.12.86.86,0,0,0-.47.14.9.9,0,0,0-.31.4,1.69,1.69,0,0,0-.11.63,1.23,1.23,0,0,0,.24.82.88.88,0,0,0,.71.28,1,1,0,0,0,.32,0,.71.71,0,0,0,.23-.12.58.58,0,0,0,.16-.19.85.85,0,0,0,.09-.22l.47.11a1.38,1.38,0,0,1-.16.37.9.9,0,0,1-.27.28,1.29,1.29,0,0,1-.37.19A1.75,1.75,0,0,1,102.48,4.21Z"/><path class="cls-1" d="M106.42,4.13l-.79-3h.54l.6,2.56h.09l.63-2.56h.69l.64,2.56h.09l.59-2.56H110l-.81,3h-.74l-.63-2.55h-.07l-.62,2.55Z"/><path class="cls-1" d="M110.92.6a.43.43,0,0,1-.28-.07.29.29,0,0,1-.1-.23.27.27,0,0,1,.1-.22.36.36,0,0,1,.27-.08.38.38,0,0,1,.28.08.27.27,0,0,1,.09.22.3.3,0,0,1-.09.23A.41.41,0,0,1,110.92.6Zm-.27,3.53v-3h.53v3Z"/><path class="cls-1" d="M113,4.19a.77.77,0,0,1-.62-.23,1,1,0,0,1-.2-.69V1.57h-.46V1.13H112a.42.42,0,0,0,.22,0,.25.25,0,0,0,.07-.18l.06-.45h.33v.68h.87v.45h-.87V3.26a.42.42,0,0,0,.11.34.46.46,0,0,0,.31.1l.23,0a.57.57,0,0,0,.23-.12v.53l-.31.09Z"/><path class="cls-1" d="M114.25,4.13V.06h.55V1a2.35,2.35,0,0,1,0,.26,2.28,2.28,0,0,1,0,.26l0,.27c0,.09,0,.19,0,.28h.09A2.18,2.18,0,0,1,115,1.5a.87.87,0,0,1,.33-.33.9.9,0,0,1,.48-.12.86.86,0,0,1,.76.36,1.83,1.83,0,0,1,.26,1.07V4.13h-.54V2.53a1.4,1.4,0,0,0-.16-.77.52.52,0,0,0-.48-.24.71.71,0,0,0-.45.16,1.17,1.17,0,0,0-.29.42,2.27,2.27,0,0,0-.15.61V4.13Z"/></g></g></svg>