<svg xmlns="http://www.w3.org/2000/svg" viewBox="0 0 36.64 10.14"><defs><style>.cls-1{fill:#fff;}</style></defs><g id="Layer_2" data-name="Layer 2"><g id="Layer_1-2" data-name="Layer 1"><path class="cls-1" d="M1.67,4A1.67,1.67,0,0,1,1,3.84a1.37,1.37,0,0,1-.51-.38,1.57,1.57,0,0,1-.3-.59A2.6,2.6,0,0,1,.06,2.1a2.29,2.29,0,0,1,.21-1A1.5,1.5,0,0,1,.85.42,1.63,1.63,0,0,1,1.68.21a1.73,1.73,0,0,1,.66.12,1.37,1.37,0,0,1,.51.38,1.73,1.73,0,0,1,.33.6,2.76,2.76,0,0,1,.11.8,2.35,2.35,0,0,1-.11.77,1.54,1.54,0,0,1-.31.58,1.26,1.26,0,0,1-.5.38A1.68,1.68,0,0,1,1.67,4Zm0-.43a1,1,0,0,0,1-.65,2.17,2.17,0,0,0,.13-.77,2.07,2.07,0,0,0-.14-.79,1.06,1.06,0,0,0-.37-.5,1,1,0,0,0-.6-.18,1,1,0,0,0-.58.17,1.08,1.08,0,0,0-.38.5,2,2,0,0,0-.13.79,2.27,2.27,0,0,0,.07.61,1.34,1.34,0,0,0,.21.45,1.06,1.06,0,0,0,.35.28A1.16,1.16,0,0,0,1.68,3.54Z"/><path class="cls-1" d="M4.29,3.9v-2h-.5V1.5l.7,0V1.45a.71.71,0,0,1-.22-.15.74.74,0,0,1-.14-.22.86.86,0,0,1,0-.27.82.82,0,0,1,.1-.4A.69.69,0,0,1,4.47.14,1,1,0,0,1,4.93,0,1.06,1.06,0,0,1,5.3.1a.63.63,0,0,1,.28.15L5.52.71A.87.87,0,0,0,5.27.56.8.8,0,0,0,5,.5a.44.44,0,0,0-.3.11A.53.53,0,0,0,4.56,1a.61.61,0,0,0,0,.24.44.44,0,0,0,.1.16.49.49,0,0,0,.13.12h.7V1.9H4.78v2Z"/><path class="cls-1" d="M6.42,3.9v-2h-.5V1.5l.71,0V1.45A.76.76,0,0,1,6.4,1.3a.74.74,0,0,1-.14-.22.84.84,0,0,1,0-.27.72.72,0,0,1,.1-.4A.59.59,0,0,1,6.61.14.88.88,0,0,1,7.06,0,1.16,1.16,0,0,1,7.44.1a.59.59,0,0,1,.27.15L7.65.71A.87.87,0,0,0,7.4.56.8.8,0,0,0,7.1.5a.4.4,0,0,0-.29.11A.49.49,0,0,0,6.69,1a.86.86,0,0,0,0,.24.62.62,0,0,0,.1.16L7,1.49h.7V1.9H6.92v2Z"/><path class="cls-1" d="M9.44,4a1.52,1.52,0,0,1-.59-.1,1.09,1.09,0,0,1-.43-.29,1.24,1.24,0,0,1-.27-.46,1.78,1.78,0,0,1-.09-.59,2,2,0,0,1,.09-.61,1.53,1.53,0,0,1,.26-.49,1,1,0,0,1,.42-.32A1.25,1.25,0,0,1,9.39,1a1.19,1.19,0,0,1,.51.1.85.85,0,0,1,.39.28,1.42,1.42,0,0,1,.25.49,2.14,2.14,0,0,1,.06.69l-2.22,0V2.23l1.92,0-.17.23a1.25,1.25,0,0,0-.06-.57.77.77,0,0,0-.27-.34.7.7,0,0,0-.41-.11A.74.74,0,0,0,9,1.55a.78.78,0,0,0-.3.38,1.69,1.69,0,0,0-.1.59,1.14,1.14,0,0,0,.23.77.81.81,0,0,0,.66.27,1,1,0,0,0,.31,0A.72.72,0,0,0,10,3.4a.49.49,0,0,0,.15-.17A.78.78,0,0,0,10.2,3l.44.1a1.14,1.14,0,0,1-.15.36,1,1,0,0,1-.25.26,1.27,1.27,0,0,1-.35.17A1.53,1.53,0,0,1,9.44,4Z"/><path class="cls-1" d="M11.31,3.9V1.06h.45l0,1h.09A2.67,2.67,0,0,1,12,1.49a.87.87,0,0,1,.28-.36A.69.69,0,0,1,12.67,1h.13L13,1l0,.52-.17,0-.16,0a.57.57,0,0,0-.37.14A1.16,1.16,0,0,0,12,2a3.52,3.52,0,0,0-.17.52V3.9Z"/><path class="cls-1" d="M15.57,3.9l-1-2.83h.55l.78,2.41H16l.77-2.41h.54l-1,2.83Z"/><path class="cls-1" d="M18.42,4A.93.93,0,0,1,18,3.88a.77.77,0,0,1-.3-.27.88.88,0,0,1-.11-.45.83.83,0,0,1,.08-.36.63.63,0,0,1,.23-.26,1.5,1.5,0,0,1,.4-.18,4,4,0,0,1,.6-.12l.34-.06a.34.34,0,0,0,.19-.09.25.25,0,0,0,.06-.19.47.47,0,0,0-.15-.35.62.62,0,0,0-.45-.14,1.25,1.25,0,0,0-.32.05.7.7,0,0,0-.29.19.6.6,0,0,0-.15.36l-.46-.16a.83.83,0,0,1,.14-.35.84.84,0,0,1,.26-.27,1.16,1.16,0,0,1,.37-.18A1.73,1.73,0,0,1,18.91,1a1.26,1.26,0,0,1,.59.12.81.81,0,0,1,.36.37,1.49,1.49,0,0,1,.12.64v.63c0,.12,0,.24,0,.37s0,.27,0,.4,0,.26,0,.38h-.47l0-.35c0-.12,0-.23,0-.35h-.08a1.34,1.34,0,0,1-.22.38,1,1,0,0,1-.34.28A1,1,0,0,1,18.42,4Zm.14-.4a1.09,1.09,0,0,0,.25,0,1.2,1.2,0,0,0,.25-.13,1.19,1.19,0,0,0,.23-.22,1.52,1.52,0,0,0,.2-.33V2.3l.14,0a.56.56,0,0,1-.23.13l-.32.07-.35.06a2.13,2.13,0,0,0-.32.08.61.61,0,0,0-.24.17.47.47,0,0,0-.08.28.39.39,0,0,0,.13.33A.49.49,0,0,0,18.56,3.57Z"/><path class="cls-1" d="M20.82,3.9V.06h.5V3.9Z"/><path class="cls-1" d="M22.44.57A.41.41,0,0,1,22.17.5a.29.29,0,0,1-.08-.21.29.29,0,0,1,.08-.22A.4.4,0,0,1,22.43,0a.41.41,0,0,1,.27.07.29.29,0,0,1,.08.22A.29.29,0,0,1,22.7.5.4.4,0,0,1,22.44.57ZM22.18,3.9V1.06h.5V3.9Z"/><path class="cls-1" d="M24.55,4a1,1,0,0,1-.62-.19,1.19,1.19,0,0,1-.39-.53,2,2,0,0,1-.14-.76,2.26,2.26,0,0,1,.13-.77,1.19,1.19,0,0,1,.39-.53A1,1,0,0,1,24.54,1a.83.83,0,0,1,.49.13,1,1,0,0,1,.31.32,1.3,1.3,0,0,1,.17.44h.1c0-.11,0-.22-.05-.33l0-.35a1.57,1.57,0,0,1,0-.29V.06H26V3.9h-.45l0-.77H25.5a1.45,1.45,0,0,1-.18.44,1,1,0,0,1-.31.29A.83.83,0,0,1,24.55,4Zm.11-.44A.69.69,0,0,0,25,3.44a.78.78,0,0,0,.27-.24,1.48,1.48,0,0,0,.17-.33,1,1,0,0,0,.05-.34V2.46a1.21,1.21,0,0,0,0-.25,1.43,1.43,0,0,0-.09-.27,1.38,1.38,0,0,0-.17-.25A.88.88,0,0,0,25,1.5a.74.74,0,0,0-.31-.07.64.64,0,0,0-.41.14A.94.94,0,0,0,24,2a1.55,1.55,0,0,0-.09.55A1.49,1.49,0,0,0,24,3a.77.77,0,0,0,.26.36A.59.59,0,0,0,24.66,3.53Z"/><path class="cls-1" d="M29.15,4a.78.78,0,0,1-.59-.22,1,1,0,0,1-.19-.65V1.48h-.43V1.06h.27a.28.28,0,0,0,.2-.05.19.19,0,0,0,.07-.16l.06-.43h.31v.64h.81v.43h-.81V3.08a.4.4,0,0,0,.1.31.37.37,0,0,0,.29.1l.22,0a.57.57,0,0,0,.22-.11v.5a1.28,1.28,0,0,1-.29.08Z"/><path class="cls-1" d="M30.56.57A.38.38,0,0,1,30.3.5a.26.26,0,0,1-.09-.21A.27.27,0,0,1,30.3.07.38.38,0,0,1,30.56,0a.4.4,0,0,1,.26.07.27.27,0,0,1,.09.22.26.26,0,0,1-.09.21A.4.4,0,0,1,30.56.57ZM30.31,3.9V1.06h.5V3.9Z"/><path class="cls-1" d="M31.67,3.9V.06h.5V3.9Z"/><path class="cls-1" d="M33,3.9V.06h.49V3.9Z"/><path class="cls-1" d="M1.37,9.25a1.78,1.78,0,0,1-.59-.1A1.2,1.2,0,0,1,.09,8.4,1.83,1.83,0,0,1,0,7.81a2,2,0,0,1,.09-.62A1.44,1.44,0,0,1,.35,6.7a1.17,1.17,0,0,1,.41-.32,1.48,1.48,0,0,1,.57-.11,1.44,1.44,0,0,1,.51.09,1.11,1.11,0,0,1,.39.29,1.18,1.18,0,0,1,.24.49,2.1,2.1,0,0,1,.07.69H.31V7.5H2.24l-.17.23A1.24,1.24,0,0,0,2,7.15a.69.69,0,0,0-.67-.46.85.85,0,0,0-.45.13.94.94,0,0,0-.29.38,1.57,1.57,0,0,0-.1.6,1.16,1.16,0,0,0,.22.77.82.82,0,0,0,.67.27,1.28,1.28,0,0,0,.3,0,.66.66,0,0,0,.22-.12.8.8,0,0,0,.15-.17.85.85,0,0,0,.09-.22l.44.11a1,1,0,0,1-.15.35A.93.93,0,0,1,2.18,9a1.27,1.27,0,0,1-.35.17A1.6,1.6,0,0,1,1.37,9.25Z"/><path class="cls-1" d="M3.25,9.18V6.34H3.7l-.05.9h.09A1.76,1.76,0,0,1,4,6.69a.73.73,0,0,1,.32-.31.9.9,0,0,1,.46-.11.82.82,0,0,1,.72.34,1.72,1.72,0,0,1,.24,1V9.18h-.5V7.66A1.32,1.32,0,0,0,5,7a.49.49,0,0,0-.44-.24.64.64,0,0,0-.45.17,1.13,1.13,0,0,0-.29.43,1.62,1.62,0,0,0-.11.58V9.18Z"/><path class="cls-1" d="M7.53,9.25a1.06,1.06,0,0,1-.62-.19,1.19,1.19,0,0,1-.4-.53,2,2,0,0,1-.13-.77A2.07,2.07,0,0,1,6.51,7a1.21,1.21,0,0,1,.39-.52,1,1,0,0,1,.62-.19A.91.91,0,0,1,8,6.4a1,1,0,0,1,.31.33,1.33,1.33,0,0,1,.17.43h.1c0-.1,0-.21-.05-.33s0-.23,0-.34,0-.21,0-.3V5.34H9V9.18H8.54l0-.77H8.48a1.34,1.34,0,0,1-.19.44.92.92,0,0,1-.3.29A1,1,0,0,1,7.53,9.25Zm.11-.44A.74.74,0,0,0,8,8.72a1.14,1.14,0,0,0,.49-.91V7.74a1.13,1.13,0,0,0,0-.25,1,1,0,0,0-.1-.27A1,1,0,0,0,8.2,7,.84.84,0,0,0,8,6.78a.62.62,0,0,0-.31-.07.64.64,0,0,0-.41.14A.79.79,0,0,0,7,7.23a1.53,1.53,0,0,0-.09.54A1.55,1.55,0,0,0,7,8.32a.8.8,0,0,0,.25.36A.64.64,0,0,0,7.64,8.81Z"/><path class="cls-1" d="M12.46,9.25a1.36,1.36,0,0,1-.71-.18,1.27,1.27,0,0,1-.49-.51,1.86,1.86,0,0,1-.17-.81,1.56,1.56,0,0,1,.19-.82,1.18,1.18,0,0,1,.49-.5,1.51,1.51,0,0,1,.68-.16,1.49,1.49,0,0,1,.71.17,1.34,1.34,0,0,1,.49.51,1.69,1.69,0,0,1,.18.82,1.65,1.65,0,0,1-.18.81,1.18,1.18,0,0,1-.49.5A1.45,1.45,0,0,1,12.46,9.25Zm0-.41a.85.85,0,0,0,.45-.13.91.91,0,0,0,.29-.37,1.34,1.34,0,0,0,.1-.56,1.41,1.41,0,0,0-.11-.57.81.81,0,0,0-.78-.52.78.78,0,0,0-.44.12.77.77,0,0,0-.3.36,1.35,1.35,0,0,0-.1.57,1.21,1.21,0,0,0,.24.8A.78.78,0,0,0,12.49,8.84Z"/><path class="cls-1" d="M14.76,9.18v-2h-.5v-.4l.71,0V6.73a.66.66,0,0,1-.23-.15.68.68,0,0,1-.14-.23.76.76,0,0,1,0-.27.77.77,0,0,1,.11-.4A.69.69,0,0,1,15,5.41a1,1,0,0,1,.45-.09,1.07,1.07,0,0,1,.37,0,.82.82,0,0,1,.28.15L16,6a.72.72,0,0,0-.25-.16,1,1,0,0,0-.3,0,.4.4,0,0,0-.29.11.49.49,0,0,0-.12.36.53.53,0,0,0,0,.23.55.55,0,0,0,.1.17.63.63,0,0,0,.13.11H16v.42h-.74v2Z"/><path class="cls-1" d="M17.69,9.18,19,5.56h.73L21,9.18h-.55L19.36,6h-.07l-1.06,3.2Zm.6-.81V8h2.13v.39Z"/><path class="cls-1" d="M22.37,9.25a.83.83,0,0,1-.71-.33,1.67,1.67,0,0,1-.24-1V6.34h.5V7.89a1.37,1.37,0,0,0,.14.69.5.5,0,0,0,.45.22.53.53,0,0,0,.31-.08.75.75,0,0,0,.24-.23,1.8,1.8,0,0,0,.17-.37,2.1,2.1,0,0,0,.08-.46V6.34h.5V9.18h-.44l0-.91h-.08a1.76,1.76,0,0,1-.2.55.76.76,0,0,1-.32.32A.9.9,0,0,1,22.37,9.25Z"/><path class="cls-1" d="M25.74,10.14a3,3,0,0,1-.74-.07.92.92,0,0,1-.42-.21.45.45,0,0,1-.14-.35.48.48,0,0,1,.2-.41,1.11,1.11,0,0,1,.59-.22v-.1a1.12,1.12,0,0,1-.43-.07.23.23,0,0,1-.15-.22.3.3,0,0,1,.15-.25,1.52,1.52,0,0,1,.48-.19V8a.65.65,0,0,1-.51-.2.72.72,0,0,1-.18-.51.76.76,0,0,1,.15-.48.92.92,0,0,1,.44-.32,1.78,1.78,0,0,1,.69-.11h1.34v.42l-.88-.14v.1a1,1,0,0,1,.49.23.54.54,0,0,1,.17.42.68.68,0,0,1-.14.41.86.86,0,0,1-.4.27,2.08,2.08,0,0,1-.66.1h-.16l-.22,0a1.91,1.91,0,0,0-.24.17c-.06.05-.09.09-.09.13a.11.11,0,0,0,.09.1l.2.05h.87l.28,0a1.35,1.35,0,0,1,.33.09.67.67,0,0,1,.28.22.65.65,0,0,1,.12.41.69.69,0,0,1-.18.49,1,1,0,0,1-.51.27A3.79,3.79,0,0,1,25.74,10.14Zm0-.41a3.09,3.09,0,0,0,.59-.05.63.63,0,0,0,.34-.15.33.33,0,0,0,.11-.25.31.31,0,0,0-.08-.22A.42.42,0,0,0,26.53,9a.85.85,0,0,0-.22,0h-.83a.86.86,0,0,0-.44.2.37.37,0,0,0-.12.26.26.26,0,0,0,.11.23.59.59,0,0,0,.3.11A2.77,2.77,0,0,0,25.75,9.73Zm.07-1.92a.85.85,0,0,0,.52-.14.49.49,0,0,0,.17-.38.55.55,0,0,0-.18-.43.73.73,0,0,0-.53-.17.82.82,0,0,0-.53.16.52.52,0,0,0-.18.41.47.47,0,0,0,.08.29.54.54,0,0,0,.25.19A1,1,0,0,0,25.82,7.81Z"/><path class="cls-1" d="M28.78,9.25a.83.83,0,0,1-.71-.33,1.67,1.67,0,0,1-.24-1V6.34h.5V7.89a1.26,1.26,0,0,0,.15.69.48.48,0,0,0,.45.22.52.52,0,0,0,.3-.08.75.75,0,0,0,.24-.23,1.4,1.4,0,0,0,.17-.37,2.88,2.88,0,0,0,.09-.46V6.34h.5V9.18h-.45l0-.91h-.09a1.54,1.54,0,0,1-.2.55.71.71,0,0,1-.32.32A.9.9,0,0,1,28.78,9.25Z"/><path class="cls-1" d="M32.15,9.25a2.09,2.09,0,0,1-.53-.06A1.23,1.23,0,0,1,31.24,9,.65.65,0,0,1,31,8.72a1.06,1.06,0,0,1-.09-.36l.42-.11a.51.51,0,0,0,.1.32.58.58,0,0,0,.29.2,1.22,1.22,0,0,0,.45.07.92.92,0,0,0,.51-.11.34.34,0,0,0,.17-.3.32.32,0,0,0-.09-.24.81.81,0,0,0-.28-.13,2.91,2.91,0,0,0-.4-.1l-.4-.1a1.92,1.92,0,0,1-.36-.14.75.75,0,0,1-.26-.24.7.7,0,0,1-.1-.37.72.72,0,0,1,.14-.44.78.78,0,0,1,.39-.29,1.4,1.4,0,0,1,.6-.11,1.5,1.5,0,0,1,.6.11,1,1,0,0,1,.39.3.81.81,0,0,1,.16.45l-.44.11a.52.52,0,0,0-.09-.31.51.51,0,0,0-.26-.19,1.08,1.08,0,0,0-.38-.06.78.78,0,0,0-.46.11.34.34,0,0,0-.17.3.29.29,0,0,0,.1.23.81.81,0,0,0,.28.14l.39.09.42.1a3,3,0,0,1,.36.14.72.72,0,0,1,.25.24.7.7,0,0,1,.09.37.75.75,0,0,1-.15.47.88.88,0,0,1-.41.28A1.72,1.72,0,0,1,32.15,9.25Z"/><path class="cls-1" d="M34.88,9.23A.73.73,0,0,1,34.3,9a.94.94,0,0,1-.19-.65V6.76h-.43V6.34H34a.28.28,0,0,0,.2,0,.24.24,0,0,0,.08-.16l.05-.43h.31v.64h.82v.42h-.82V8.35a.41.41,0,0,0,.1.32.42.42,0,0,0,.29.1l.22,0a.76.76,0,0,0,.22-.11v.5a1.15,1.15,0,0,1-.29.08A1.1,1.1,0,0,1,34.88,9.23Z"/><path class="cls-1" d="M36.28,9.24A.4.4,0,0,1,36,9.17a.32.32,0,0,1-.09-.25A.3.3,0,0,1,36,8.68a.4.4,0,0,1,.26-.08.41.41,0,0,1,.27.08.3.3,0,0,1,.09.25C36.64,9.14,36.52,9.24,36.28,9.24Z"/></g></g></svg>