<?xml version="1.0" encoding="UTF-8"?>
<svg id="Layer_2" data-name="Layer 2" xmlns="http://www.w3.org/2000/svg" viewBox="0 0 114.3 13.17">
  <defs>
    <style>
      .cls-1 {
        fill: #fff;
      }

      .cls-1, .cls-2 {
        stroke-width: 0px;
      }

      .cls-2 {
        fill: #0085ca;
      }
    </style>
  </defs>
  <g id="Layer_1-2" data-name="Layer 1">
    <g>
      <rect class="cls-1" width="114.3" height="13.17" rx="3.01" ry="3.01"/>
      <g>
        <path class="cls-2" d="M4.92,8.89v-4.32h1.6c.26,0,.49.02.69.07s.37.12.51.21c.14.09.24.21.31.35.07.14.11.3.11.48,0,.17-.04.32-.1.45-.07.14-.18.25-.34.34-.16.09-.36.14-.61.17v.07c.42.03.73.13.93.31.2.18.3.42.3.73,0,.25-.06.46-.18.62s-.3.3-.54.38c-.24.09-.54.13-.9.13h-1.76ZM5.63,6.43h.8c.34,0,.59-.05.75-.16.17-.11.25-.27.25-.48s-.08-.37-.24-.47c-.16-.1-.4-.15-.73-.15h-.84v1.26ZM5.63,8.3h1.05c.31,0,.54-.05.69-.16.15-.1.23-.26.23-.47,0-.25-.1-.43-.29-.54-.19-.12-.48-.18-.87-.18h-.82v1.35Z"/>
        <path class="cls-2" d="M10.73,8.98c-.31,0-.58-.05-.82-.15-.24-.1-.44-.25-.61-.44-.16-.19-.29-.43-.37-.7-.09-.28-.13-.58-.13-.93,0-.51.08-.93.25-1.26s.4-.58.69-.75.63-.25,1.01-.25c.3,0,.56.05.8.15.24.1.44.24.61.44.17.19.3.43.39.71.09.28.13.6.13.96s-.04.66-.13.94c-.09.28-.21.51-.38.7s-.37.34-.61.44c-.24.1-.52.15-.83.15ZM10.75,8.37c.27,0,.49-.06.66-.19.18-.13.31-.31.4-.55.09-.24.13-.53.13-.88s-.05-.65-.14-.9c-.09-.25-.23-.43-.41-.57-.18-.13-.4-.2-.65-.2s-.47.06-.65.19c-.18.13-.32.31-.41.56-.09.25-.14.54-.14.89,0,.27.03.5.08.71.05.21.13.38.23.51s.23.24.38.31.32.11.52.11Z"/>
        <path class="cls-2" d="M15.15,8.98c-.31,0-.58-.05-.82-.15-.24-.1-.44-.25-.61-.44-.16-.19-.29-.43-.37-.7-.09-.28-.13-.58-.13-.93,0-.51.08-.93.25-1.26s.4-.58.69-.75.63-.25,1.01-.25c.3,0,.56.05.8.15.24.1.44.24.61.44.17.19.3.43.39.71.09.28.13.6.13.96s-.04.66-.13.94c-.09.28-.21.51-.38.7s-.37.34-.61.44c-.24.1-.52.15-.83.15ZM15.16,8.37c.27,0,.49-.06.66-.19.18-.13.31-.31.4-.55.09-.24.13-.53.13-.88s-.05-.65-.14-.9c-.09-.25-.23-.43-.41-.57-.18-.13-.4-.2-.65-.2s-.47.06-.65.19c-.18.13-.32.31-.41.56-.09.25-.14.54-.14.89,0,.27.03.5.08.71.05.21.13.38.23.51s.23.24.38.31.32.11.52.11Z"/>
        <path class="cls-2" d="M17.75,8.89v-4.32h.71v1.98c.26-.06.5-.15.71-.28.22-.13.41-.29.58-.47.17-.18.3-.38.41-.59.11-.21.18-.42.22-.63h.79c-.05.24-.14.48-.25.71s-.26.44-.42.62c-.17.19-.35.35-.56.49s-.42.25-.65.32v.06c.26,0,.48.02.66.08.18.06.33.14.46.25.12.11.23.23.31.38.08.15.15.31.21.49l.3.92h-.79l-.2-.75c-.07-.23-.15-.42-.26-.57-.1-.15-.25-.26-.42-.33-.18-.07-.41-.11-.7-.11h-.39v1.75h-.71Z"/>
        <path class="cls-2" d="M22.92,8.89l1.51-4.32h.98l1.5,4.32h-.77l-1.2-3.72h-.05l-1.2,3.72h-.77ZM23.66,7.98v-.54h2.59v.54h-2.59Z"/>
        <path class="cls-2" d="M28.83,8.89v-4.32h.71v4.32h-.71ZM29.14,5.19v-.62h2.62v.62h-2.62ZM29.14,7.15v-.6h2.36v.6h-2.36Z"/>
        <path class="cls-2" d="M32.29,8.89v-4.32h1.58c.21,0,.39.02.57.05.17.04.33.09.47.15.14.07.26.15.36.26.1.1.17.22.23.36.05.14.08.29.08.46,0,.13-.02.26-.06.39-.04.12-.11.24-.2.33-.09.1-.22.18-.37.25s-.34.11-.55.12v.07c.23.01.42.06.56.14s.25.2.33.34c.08.14.15.32.2.53l.24.86h-.78l-.18-.79c-.03-.17-.09-.31-.16-.43-.07-.12-.17-.21-.3-.27s-.3-.1-.51-.1h-.79v1.59h-.71ZM33,6.72h.79c.34,0,.6-.06.78-.19.18-.12.27-.32.27-.58s-.08-.47-.25-.6-.42-.2-.77-.2h-.81v1.56Z"/>
        <path class="cls-2" d="M36.29,8.89v-4.32h.71v4.32h-.71ZM36.72,5.18v-.61h2.58v.61h-2.58ZM36.72,6.99v-.56h2.28v.56h-2.28ZM36.72,8.89v-.61h2.58v.61h-2.58Z"/>
        <path class="cls-2" d="M39.88,8.89v-4.32h.71v4.32h-.71ZM40.32,5.18v-.61h2.58v.61h-2.58ZM40.32,6.99v-.56h2.28v.56h-2.28ZM40.32,8.89v-.61h2.58v.61h-2.58Z"/>
        <path class="cls-2" d="M46.52,8.98c-.28,0-.53-.03-.75-.09-.22-.06-.4-.15-.55-.27s-.26-.27-.34-.46-.11-.39-.1-.62l.67-.14c-.01.24.03.43.12.58.1.15.23.25.4.32s.36.1.57.1.37-.03.52-.08c.15-.05.26-.13.34-.22.08-.09.12-.21.12-.34,0-.15-.05-.27-.15-.35-.1-.09-.23-.16-.4-.21-.16-.05-.34-.1-.53-.14-.2-.05-.39-.1-.58-.16-.19-.06-.36-.13-.52-.22-.16-.09-.28-.21-.37-.36-.09-.15-.14-.33-.14-.55,0-.26.06-.48.19-.67.13-.19.31-.33.55-.44.24-.1.52-.16.84-.16s.61.05.86.16c.25.1.44.26.58.46.14.2.2.46.18.76l-.66.13c0-.15,0-.28-.05-.4-.04-.12-.11-.21-.2-.29-.09-.08-.19-.13-.32-.17-.12-.04-.26-.06-.42-.06-.18,0-.33.03-.46.08-.13.05-.23.12-.3.22-.07.09-.1.2-.1.32,0,.15.05.27.15.36.1.09.23.16.4.21.17.05.35.1.55.15.19.04.37.09.56.15s.36.13.51.23c.15.09.28.22.37.37.09.15.14.34.14.57,0,.27-.07.49-.21.68s-.33.33-.59.43c-.26.1-.56.15-.91.15Z"/>
        <path class="cls-2" d="M48.81,8.89v-4.32h.72v4.32h-.72Z"/>
        <path class="cls-2" d="M50.03,5.19v-.62h3.17v.62h-3.17ZM51.26,8.89v-4.32h.72v4.32h-.72Z"/>
        <path class="cls-2" d="M53.7,8.89v-4.32h.71v4.32h-.71ZM54.13,5.18v-.61h2.58v.61h-2.58ZM54.13,6.99v-.56h2.28v.56h-2.28ZM54.13,8.89v-.61h2.58v.61h-2.58Z"/>
        <path class="cls-2" d="M58.74,8.89v-4.32h.72v4.32h-.72Z"/>
        <path class="cls-2" d="M60.24,8.89v-4.32h.98l2.04,3.42h.03l-.02-3.42h.71v4.32h-.93l-2.09-3.48h-.03v3.48s-.69,0-.69,0Z"/>
        <path class="cls-2" d="M66.32,8.98c-.28,0-.53-.03-.75-.09-.22-.06-.4-.15-.55-.27s-.26-.27-.34-.46-.11-.39-.1-.62l.67-.14c-.01.24.03.43.12.58.1.15.23.25.4.32s.36.1.57.1.37-.03.52-.08c.15-.05.26-.13.34-.22.08-.09.12-.21.12-.34,0-.15-.05-.27-.15-.35-.1-.09-.23-.16-.4-.21-.16-.05-.34-.1-.53-.14-.2-.05-.39-.1-.58-.16-.19-.06-.36-.13-.52-.22-.16-.09-.28-.21-.37-.36-.09-.15-.14-.33-.14-.55,0-.26.06-.48.19-.67.13-.19.31-.33.55-.44.24-.1.52-.16.84-.16s.61.05.86.16c.25.1.44.26.58.46.14.2.2.46.18.76l-.66.13c0-.15,0-.28-.05-.4-.04-.12-.11-.21-.2-.29-.09-.08-.19-.13-.32-.17-.12-.04-.26-.06-.42-.06-.18,0-.33.03-.46.08-.13.05-.23.12-.3.22-.07.09-.1.2-.1.32,0,.15.05.27.15.36.1.09.23.16.4.21.17.05.35.1.55.15.19.04.37.09.56.15s.36.13.51.23c.15.09.28.22.37.37.09.15.14.34.14.57,0,.27-.07.49-.21.68s-.33.33-.59.43c-.26.1-.56.15-.91.15Z"/>
        <path class="cls-2" d="M68.62,8.89v-4.32h.71v4.32h-.71ZM69.06,7.54v-.6h.99c.37,0,.64-.07.83-.21.19-.14.28-.37.28-.69,0-.3-.09-.52-.26-.66-.17-.15-.44-.22-.79-.22h-1.06v-.59h1.11c.26,0,.49.03.7.09.21.06.39.15.54.28.15.12.27.28.36.46s.13.4.13.65c0,.32-.07.59-.22.81-.14.22-.36.39-.64.5-.28.11-.64.17-1.07.17h-.92Z"/>
        <path class="cls-2" d="M72.45,8.89v-4.32h.71v4.32h-.71ZM72.88,5.18v-.61h2.58v.61h-2.58ZM72.88,6.99v-.56h2.28v.56h-2.28ZM72.88,8.89v-.61h2.58v.61h-2.58Z"/>
        <path class="cls-2" d="M77.77,8.98c-.33,0-.62-.05-.86-.16-.25-.1-.46-.25-.62-.45s-.29-.43-.38-.7c-.09-.27-.13-.57-.13-.91s.04-.65.13-.93c.09-.28.21-.52.38-.72.17-.2.37-.35.62-.46.25-.11.52-.16.83-.16.26,0,.49.04.69.11s.37.18.51.31c.14.13.24.29.31.47.07.18.11.39.1.61l-.66.12c0-.22-.05-.4-.13-.55s-.2-.26-.34-.34c-.14-.08-.31-.12-.5-.12-.17,0-.32.03-.47.1-.15.07-.27.17-.38.3s-.19.3-.25.51c-.06.21-.09.45-.09.73,0,.36.05.66.15.9.1.25.25.43.44.55.19.12.42.19.68.19.24,0,.44-.05.59-.15.15-.1.27-.25.34-.43.07-.19.11-.41.1-.66l.67.08c0,.25-.02.47-.08.69s-.17.4-.31.57-.32.29-.54.38c-.22.09-.48.13-.79.13Z"/>
        <path class="cls-2" d="M79.66,5.19v-.62h3.17v.62h-3.17ZM80.89,8.89v-4.32h.72v4.32h-.72Z"/>
        <path class="cls-2" d="M83.33,8.89v-4.32h.72v4.32h-.72Z"/>
        <path class="cls-2" d="M86.63,8.98c-.31,0-.58-.05-.82-.15-.24-.1-.44-.25-.61-.44-.16-.19-.29-.43-.37-.7-.09-.28-.13-.58-.13-.93,0-.51.08-.93.25-1.26s.4-.58.69-.75.63-.25,1.01-.25c.3,0,.56.05.8.15.24.1.44.24.61.44.17.19.3.43.39.71.09.28.13.6.13.96s-.04.66-.13.94c-.09.28-.21.51-.38.7s-.37.34-.61.44c-.24.1-.52.15-.83.15ZM86.65,8.37c.27,0,.49-.06.66-.19.18-.13.31-.31.4-.55.09-.24.13-.53.13-.88s-.05-.65-.14-.9c-.09-.25-.23-.43-.41-.57-.18-.13-.4-.2-.65-.2s-.47.06-.65.19c-.18.13-.32.31-.41.56-.09.25-.14.54-.14.89,0,.27.03.5.08.71.05.21.13.38.23.51s.23.24.38.31.32.11.52.11Z"/>
        <path class="cls-2" d="M89.23,8.89v-4.32h.98l2.04,3.42h.03l-.02-3.42h.71v4.32h-.93l-2.09-3.48h-.03v3.48s-.69,0-.69,0Z"/>
      </g>
    </g>
  </g>
</svg>