<svg xmlns="http://www.w3.org/2000/svg" width="109.81" height="25.92" viewBox="0 0 109.81 25.92"><defs><style>.cls-1{fill:#fff;}.cls-2{fill:#004c17;}</style></defs><g id="Layer_2" data-name="Layer 2"><g id="Layer_1-2" data-name="Layer 1"><path class="cls-1" d="M13.11,16.53,13,12l11.55-.54a6.12,6.12,0,0,1,.07,1.35c0,9.11-6.05,13-11.59,13A12.49,12.49,0,0,1,.59,13C.59,5.25,6.66.65,13.74.65a17.21,17.21,0,0,1,7.92,1.91L18.81,8.32a13,13,0,0,0-5.54-1.47c-2.91,0-5.42,1.54-5.42,6.14,0,4,3,6.79,5.54,6.79,1.66,0,3.1-.94,3.7-3.19Z"/><path class="cls-1" d="M38.23,25.14l-3.6-8.49-1.88.25.44,8.3H26.58l.06-23.64A25.55,25.55,0,0,1,33,.87c7.89,0,11.8,3.82,11.8,7.73,0,2.6-1.63,5.17-5,6.77l5,8.77ZM32.56,12.55c3.19,0,4.82-1.63,4.82-3.19C37.38,8,36,6.57,33.31,6.57a4.2,4.2,0,0,0-1.06.06Z"/><path class="cls-1" d="M61,25.54l-1.44-4.79-6.2.44-1,4.73-7.08-1.35,7.49-24,6.67.22,8.45,22.76ZM56,9l-1.78,7.61,4-.25Z"/><path class="cls-1" d="M71.61,18a7.51,7.51,0,0,0,5,2c2.38,0,4.25-1.12,4.25-2.85,0-3-11.89-.31-11.89-8.61C69,2.88,75.9.62,80.78.62a15.59,15.59,0,0,1,6.11,1.16L84.73,7.32a9,9,0,0,0-4.45-1.19C77.9,6.13,76,7.1,76,8.6c0,3.17,12.46-.12,12.46,9.24,0,4.54-5.2,7.67-10.74,7.67a12.62,12.62,0,0,1-9.27-3.75Z"/><path class="cls-1" d="M93,18a7.51,7.51,0,0,0,5,2c2.38,0,4.26-1.12,4.26-2.85,0-3-11.9-.31-11.9-8.61,0-5.66,7-7.92,11.84-7.92a15.62,15.62,0,0,1,6.11,1.16l-2.16,5.54a9,9,0,0,0-4.45-1.19c-2.38,0-4.32,1-4.32,2.47,0,3.17,12.46-.12,12.46,9.24,0,4.54-5.2,7.67-10.74,7.67a12.62,12.62,0,0,1-9.27-3.75Z"/><path class="cls-2" d="M12.52,15.94l-.09-4.57L24,10.83a6.12,6.12,0,0,1,.07,1.35c0,9.11-6.05,13-11.59,13A12.49,12.49,0,0,1,0,12.4C0,4.67,6.07.06,13.15.06A17.21,17.21,0,0,1,21.07,2L18.22,7.73a13,13,0,0,0-5.54-1.47c-2.91,0-5.42,1.54-5.42,6.14,0,4,3,6.79,5.55,6.79,1.66,0,3.1-.94,3.69-3.19Z"/><path class="cls-2" d="M37.64,24.55,34,16.06l-1.88.25.44,8.3H26L26.05,1A25.55,25.55,0,0,1,32.38.28C40.27.28,44.18,4.1,44.18,8c0,2.59-1.63,5.16-5,6.76l5,8.77ZM32,12c3.2,0,4.82-1.63,4.82-3.19C36.79,7.36,35.45,6,32.72,6A4.2,4.2,0,0,0,31.66,6Z"/><path class="cls-2" d="M60.43,25,59,20.16l-6.2.44-1,4.73L44.68,24,52.17,0l6.67.22L67.29,23Zm-5-16.57L53.67,16l4-.25Z"/><path class="cls-2" d="M71,17.38a7.51,7.51,0,0,0,5,2c2.38,0,4.26-1.12,4.26-2.85,0-3-11.9-.31-11.9-8.61,0-5.66,7-7.92,11.83-7.92A15.59,15.59,0,0,1,86.3,1.19L84.14,6.73a9,9,0,0,0-4.45-1.19c-2.38,0-4.32,1-4.32,2.48,0,3.16,12.46-.13,12.46,9.23,0,4.54-5.19,7.67-10.74,7.67a12.58,12.58,0,0,1-9.26-3.75Z"/><path class="cls-2" d="M92.41,17.38a7.51,7.51,0,0,0,5,2c2.37,0,4.25-1.12,4.25-2.85,0-3-11.89-.31-11.89-8.61,0-5.66,7-7.92,11.83-7.92a15.62,15.62,0,0,1,6.11,1.16l-2.16,5.54a9,9,0,0,0-4.45-1.19c-2.38,0-4.32,1-4.32,2.48,0,3.16,12.46-.13,12.46,9.23,0,4.54-5.2,7.67-10.74,7.67a12.62,12.62,0,0,1-9.27-3.75Z"/></g></g></svg>