<svg xmlns="http://www.w3.org/2000/svg" viewBox="0 0 227.05 51.2"><defs><style>.cls-1{fill:#fff;}</style></defs><g id="Layer_2" data-name="Layer 2"><g id="Layer_1-2" data-name="Layer 1"><path class="cls-1" d="M2,19.91V8.76H0V5.56H2V5.21C2,2.11,3.84,0,7.26,0a6,6,0,0,1,4,1.41l-1.43,3A2.91,2.91,0,0,0,7.61,3.22,1.3,1.3,0,0,0,6.18,4.71v.85h3.6v3.2H6.18V19.91Z"/><path class="cls-1" d="M10.63,12.74c0-4.37,2.81-7.47,7.17-7.47s7.33,3.1,7.33,7.47S22.28,20.2,17.8,20.2,10.63,17.13,10.63,12.74Zm10.25,0c0-3-1.23-4.07-3-4.07s-3,1.11-3,4.07,1.23,4.07,3,4.07S20.88,15.67,20.88,12.74Z"/><path class="cls-1" d="M27.73,19.91V5.56h4.19v4.51c.47-2.4,1.87-4.8,4.63-4.8,2.1,0,3.28,1.35,3.28,3.6A6.71,6.71,0,0,1,39,12.21H35a3.81,3.81,0,0,0,1-2.37C36,9,35.61,8.4,34.7,8.4c-1.43,0-2.78,1.56-2.78,3.93v7.58Z"/><path class="cls-1" d="M48.76,15.67V8.76H46.62V5.56h2.14V3.87L53,1.67V5.56h4v3.2H53V14.9c0,1.18.58,1.59,1.4,1.59A2.69,2.69,0,0,0,56.49,15l1.2,3.43a5.44,5.44,0,0,1-4.28,1.81C50.25,20.2,48.76,18.33,48.76,15.67Z"/><path class="cls-1" d="M59.86,19.91V.29H64V9.72c.47-2.34,1.85-4.45,4.81-4.45,2.72,0,4.39,1.67,4.39,4.63v10H69.05V11.36c0-1.76-.47-2.84-2.37-2.84S64,9.63,64,12v7.93Z"/><path class="cls-1" d="M75.7,12.74c0-4.42,2.78-7.47,7-7.47,4.57,0,6.85,3.05,6.85,6.79a9.9,9.9,0,0,1-.14,1.76H79.63a3.2,3.2,0,0,0,3.48,3,3.54,3.54,0,0,0,3.63-2.11l2.55,2.55a7.18,7.18,0,0,1-6.24,2.95C78.48,20.2,75.7,17.16,75.7,12.74Zm3.93-1.32h6.14a2.79,2.79,0,0,0-3-2.93A2.9,2.9,0,0,0,79.63,11.42Z"/><path class="cls-1" d="M98.31,19.91V.29h4.19v15.9h9.81v3.72Z"/><path class="cls-1" d="M112.42,10.07C112.42,4.25,116,0,122.29,0c4.16,0,7.29,1.93,8.67,5.18l-3.54,2.7A5,5,0,0,0,122.29,4c-3.63,0-5.36,2.46-5.36,6.06,0,3.78,1.91,6.12,5.24,6.12a4.77,4.77,0,0,0,4.92-3.42h-5.38V9.4h9.4V19.91h-2.79l-1-7.14c-.21,4.62-2.61,7.38-6.79,7.38C115.82,20.15,112.42,16.72,112.42,10.07Z"/><path class="cls-1" d="M134.56,19.91V.29h9.64c4.33,0,6.06,2.2,6.06,5,0,3.34-3,4.42-6,4.57C149.2,10,151,12,151,14.79c0,3.66-2.72,5.12-6.88,5.12ZM138.75,4V8.23h4.39c1.64,0,2.7-.53,2.7-2.11S144.75,4,143.08,4Zm0,7.59v4.59h4.71c2.23,0,3.2-.73,3.2-2.31s-1.15-2.28-3.14-2.28Z"/><path class="cls-1" d="M157.29,19.91V4h-5.86V.29h15.9V4h-5.85v15.9Z"/><path class="cls-1" d="M175.94,20.09c-5.12-.59-8.55-4.78-8.55-10,0-5.65,4-10.07,9.87-10.07s9.87,4.42,9.87,10.07c0,5.22-3.37,9.34-8.43,10a2.09,2.09,0,0,0,2.19,2.08c2,0,3.4-1.64,4.13-3.11l1.46,4.19a6.9,6.9,0,0,1-5.32,2.43C177.76,25.65,175.8,23.4,175.94,20.09Zm6.77-10c0-3.34-1.82-5.94-5.45-5.94s-5.45,2.6-5.45,5.94S173.66,16,177.26,16,182.71,13.44,182.71,10.07Z"/><path class="cls-1" d="M189.94,19.91V.29h4.19V19.91Z"/><path class="cls-1" d="M195.39,19.91,202.74.29h5.39l7.35,19.62h-4.6l-1.55-4.36h-7.91l-1.58,4.36Zm7.29-7.9H208l-1.49-4.22-1.17-4.16L204.2,7.79Z"/><path class="cls-1" d="M220.43,15.11v-3.4H217V8.46h3.4V5.1h3.25V8.46h3.37v3.25h-3.37v3.4Z"/><path class="cls-1" d="M.56,36.09C.56,30.44,4.16,26,10.31,26a9,9,0,0,1,8.78,5.59l-3.57,2.87C14.93,32,13.26,30,10.28,30c-3.43,0-5.21,2.49-5.21,6.06s1.78,6.06,5.21,6.06c3,0,4.65-2,5.24-4.45l3.57,2.87a9,9,0,0,1-8.78,5.59C4.16,46.16.56,41.74.56,36.09Z"/><path class="cls-1" d="M20.65,38.75c0-4.36,2.81-7.46,7.17-7.46s7.32,3.1,7.32,7.46-2.84,7.47-7.32,7.47S20.65,43.15,20.65,38.75Zm10.24,0c0-3-1.22-4.07-3-4.07s-3,1.12-3,4.07,1.23,4.07,3,4.07S30.89,41.68,30.89,38.75Z"/><path class="cls-1" d="M37.75,45.93V31.58h4.19v4.13c.44-2.35,1.72-4.42,4.68-4.42,2.64,0,4.1,1.67,4.1,4.45.44-2.38,1.73-4.45,4.69-4.45,2.63,0,4.09,1.67,4.09,4.62v10H55.32V37.38c0-1.88-.59-2.84-2.29-2.84S50.72,35.65,50.72,38v7.94H46.53V37.38c0-1.88-.58-2.84-2.28-2.84S41.94,35.65,41.94,38v7.94Z"/><path class="cls-1" d="M62.67,45.93V31.58h4.19v4.13c.44-2.35,1.72-4.42,4.68-4.42,2.64,0,4.1,1.67,4.1,4.45.44-2.38,1.73-4.45,4.69-4.45,2.63,0,4.1,1.67,4.1,4.62v10H80.24V37.38c0-1.88-.59-2.84-2.28-2.84S75.64,35.65,75.64,38v7.94H71.46V37.38c0-1.88-.59-2.84-2.29-2.84S66.86,35.65,66.86,38v7.94Z"/><path class="cls-1" d="M87.5,41.59v-10h4.19v8.55c0,1.76.47,2.84,2.4,2.84s2.61-1.11,2.61-3.46V31.58h4.18V45.93H96.7v-4c-.5,2.28-1.88,4.3-4.78,4.3C89.2,46.22,87.5,44.55,87.5,41.59Z"/><path class="cls-1" d="M104.14,45.93V31.58h4.18v4.16c.47-2.35,1.85-4.45,4.81-4.45,2.72,0,4.39,1.67,4.39,4.62v10h-4.19V37.38c0-1.76-.47-2.84-2.37-2.84s-2.64,1.11-2.64,3.45v7.94Z"/><path class="cls-1" d="M120.68,29.88V26.31h4.19v3.57Zm0,16.05V31.58h4.19V45.93Z"/><path class="cls-1" d="M129.15,41.68V34.77H127V31.58h2.14v-1.7l4.18-2.2v3.9h4v3.19h-4v6.15c0,1.17.59,1.58,1.41,1.58A2.68,2.68,0,0,0,136.88,41l1.2,3.42a5.45,5.45,0,0,1-4.28,1.82C130.64,46.22,129.15,44.35,129.15,41.68Z"/><path class="cls-1" d="M138.11,49.24l1.67-3.52A4.32,4.32,0,0,0,143,47.51c1.11,0,1.75-.38,2.22-1.76l.3-.76H143l-4.66-13.41h4.63L145,38.34l1,4.81,1.09-4.81,2-6.76h4.71l-5.15,15.23c-1.11,3.19-2.9,4.39-5.59,4.39A7.18,7.18,0,0,1,138.11,49.24Z"/></g></g></svg>