<svg xmlns="http://www.w3.org/2000/svg" viewBox="0 0 149.95 71.71"><defs><style>.cls-1{fill:#f98f0b;}</style></defs><g id="Layer_2" data-name="Layer 2"><g id="Layer_1-2" data-name="Layer 1"><path d="M22.61,1.13v1H16.27l.66-.75v9.14H15.87V1.13ZM16.38,5.39h6.06v1H16.38Z"/><path d="M30.2,7A6.14,6.14,0,0,1,29.44,9a4,4,0,0,1-1.24,1.3,3,3,0,0,1-1.62.47,3,3,0,0,1-1.66-.47,3.32,3.32,0,0,1-1.14-1.31A4.38,4.38,0,0,1,23.37,7a4.32,4.32,0,0,1,.41-1.93,3.22,3.22,0,0,1,1.14-1.3,3,3,0,0,1,1.66-.46,3,3,0,0,1,1.62.46,4.11,4.11,0,0,1,1.25,1.3A5.85,5.85,0,0,1,30.2,7ZM24.43,7a3.19,3.19,0,0,0,.3,1.42,2.36,2.36,0,0,0,.83,1,2.13,2.13,0,0,0,1.19.35A2.36,2.36,0,0,0,28,9.39a3.55,3.55,0,0,0,1-1A5.43,5.43,0,0,0,29.75,7,5.59,5.59,0,0,0,29,5.59a3.55,3.55,0,0,0-1-1,2.36,2.36,0,0,0-1.25-.35,2.13,2.13,0,0,0-1.19.35,2.36,2.36,0,0,0-.83,1A3.22,3.22,0,0,0,24.43,7Zm5.37,3.55-.23-2.68L29.85,7l-.28-.85.23-2.68h1.06L30.57,7l.29,3.55Z"/><path d="M39.19,7.87a3.21,3.21,0,0,1-.62,1.48,3.32,3.32,0,0,1-1.25,1,4,4,0,0,1-3.55-.1,3.36,3.36,0,0,1-1.28-1.31A4,4,0,0,1,32,7a4,4,0,0,1,.45-1.93,3.33,3.33,0,0,1,1.28-1.3,3.72,3.72,0,0,1,1.88-.46,4,4,0,0,1,1.67.35,3.42,3.42,0,0,1,1.25,1,3.24,3.24,0,0,1,.62,1.5H38.11a2.17,2.17,0,0,0-.84-1.39,2.61,2.61,0,0,0-1.62-.51,2.52,2.52,0,0,0-1.34.34,2.27,2.27,0,0,0-.89.95A3.13,3.13,0,0,0,33.1,7a3.18,3.18,0,0,0,.32,1.46,2.21,2.21,0,0,0,.89.95,2.87,2.87,0,0,0,3-.18,2.15,2.15,0,0,0,.83-1.37Z"/><path d="M39.55,4.41V3.86L41,3.57l.42-1.92H42V3.48h3.1v.93H42V8a1.88,1.88,0,0,0,.38,1.34,1.59,1.59,0,0,0,1.17.39,2.76,2.76,0,0,0,.91-.14,3.33,3.33,0,0,0,.77-.4v1a2.89,2.89,0,0,1-.8.36,3.94,3.94,0,0,1-1.09.16,2.6,2.6,0,0,1-1.39-.33,2,2,0,0,1-.76-.91A3.51,3.51,0,0,1,41,8.18V4.41Z"/><path d="M49.51,10.72a4.08,4.08,0,0,1-2-.47A3.33,3.33,0,0,1,46.2,9,4,4,0,0,1,45.73,7a3.86,3.86,0,0,1,.47-1.93,3.33,3.33,0,0,1,1.33-1.3,4.49,4.49,0,0,1,4,0,3.37,3.37,0,0,1,1.32,1.3A3.67,3.67,0,0,1,53.3,7,3.76,3.76,0,0,1,52.81,9a3.37,3.37,0,0,1-1.32,1.3A4.08,4.08,0,0,1,49.51,10.72Zm0-1A3,3,0,0,0,51,9.42a2.29,2.29,0,0,0,.95-.95A3.06,3.06,0,0,0,52.23,7a3,3,0,0,0-.33-1.44,2.37,2.37,0,0,0-.95-1,2.87,2.87,0,0,0-1.44-.34,2.93,2.93,0,0,0-1.45.34,2.35,2.35,0,0,0-.94,1A3,3,0,0,0,46.79,7a3.06,3.06,0,0,0,.33,1.46,2.27,2.27,0,0,0,.94.95A3,3,0,0,0,49.51,9.75Z"/><path d="M54.3,3.48h1l.37,2.41v4.67H54.66V5.68Zm4.79,0v1a2.83,2.83,0,0,0-.5-.12l-.55,0a2.14,2.14,0,0,0-1.21.34,2.18,2.18,0,0,0-.83,1,3.6,3.6,0,0,0-.29,1.53l-.3-.45a5.31,5.31,0,0,1,.22-1.37,3.2,3.2,0,0,1,.55-1.09A2.61,2.61,0,0,1,57,3.57a2.44,2.44,0,0,1,1.13-.25l.49,0A1.91,1.91,0,0,1,59.09,3.46Z"/><path d="M62.4,10.33l-3-6.85h1.14l2.94,6.85Zm-1.06,2.46a2.37,2.37,0,0,1-.87-.14,2.93,2.93,0,0,1-.76-.4v-.92a2.86,2.86,0,0,0,.72.39,2.3,2.3,0,0,0,.81.13,1.48,1.48,0,0,0,.84-.24,1.81,1.81,0,0,0,.58-.8l3.18-7.33H67l-3.48,7.75a3.31,3.31,0,0,1-.56.89,2,2,0,0,1-1.57.67Z"/><path d="M74.5,1.13A5.15,5.15,0,0,1,77,1.72a4.27,4.27,0,0,1,1.67,1.65,4.94,4.94,0,0,1,.6,2.47,4.93,4.93,0,0,1-.6,2.46A4.3,4.3,0,0,1,77,10a5,5,0,0,1-2.49.6H70.86V1.13Zm-2.57,9.11-.68-.73h3.29a3.74,3.74,0,0,0,1.9-.46,3.27,3.27,0,0,0,1.28-1.3,3.93,3.93,0,0,0,.45-1.91,4,4,0,0,0-.45-1.93,3.35,3.35,0,0,0-1.28-1.28,3.74,3.74,0,0,0-1.9-.47H71.25l.68-.72Z"/><path d="M81.16,2.41a.73.73,0,0,1-.54-.22.79.79,0,0,1-.22-.56.76.76,0,0,1,.22-.54.73.73,0,0,1,.54-.22.74.74,0,0,1,.77.76.78.78,0,0,1-.21.56A.75.75,0,0,1,81.16,2.41Zm-.51,1,.52.1.52-.1v7.1h-1Z"/><path d="M83.08,3.48h1l.36,2.41v4.67h-1V5.68Zm4.79,0v1a2.83,2.83,0,0,0-.5-.12l-.55,0a2.17,2.17,0,0,0-2,1.32,3.76,3.76,0,0,0-.29,1.53l-.3-.45a5.31,5.31,0,0,1,.22-1.37A3.39,3.39,0,0,1,85,4.29a2.61,2.61,0,0,1,.86-.72A2.44,2.44,0,0,1,87,3.32l.5,0A1.81,1.81,0,0,1,87.87,3.46Z"/><path d="M91.88,10.72a4,4,0,0,1-1.95-.47,3.46,3.46,0,0,1-1.32-1.31A3.81,3.81,0,0,1,88.13,7a4,4,0,0,1,.45-1.93,3.22,3.22,0,0,1,1.26-1.3,3.59,3.59,0,0,1,1.84-.46,3.16,3.16,0,0,1,1.8.5,3.4,3.4,0,0,1,1.2,1.41,5,5,0,0,1,.42,2.12H88.92V6.43h5.74l-.61.42a3.33,3.33,0,0,0-.34-1.37,2.23,2.23,0,0,0-.83-.89,2.28,2.28,0,0,0-1.21-.32,2.49,2.49,0,0,0-1.3.33,2.3,2.3,0,0,0-.86.94A3,3,0,0,0,89.19,7a3,3,0,0,0,.35,1.48,2.43,2.43,0,0,0,1,1A3.06,3.06,0,0,0,92,9.75a4.16,4.16,0,0,0,1.54-.29,4.57,4.57,0,0,0,1.35-.79v.91a4.28,4.28,0,0,1-1.41.83A4.43,4.43,0,0,1,91.88,10.72Z"/><path d="M103.16,7.87a3.21,3.21,0,0,1-.62,1.48,3.4,3.4,0,0,1-1.25,1,3.76,3.76,0,0,1-1.68.37,3.71,3.71,0,0,1-1.87-.47,3.36,3.36,0,0,1-1.28-1.31A4,4,0,0,1,96,7a4,4,0,0,1,.45-1.93,3.33,3.33,0,0,1,1.28-1.3,3.7,3.7,0,0,1,1.87-.46,4,4,0,0,1,1.68.35,3.51,3.51,0,0,1,1.25,1,3.24,3.24,0,0,1,.62,1.5h-1.08a2.17,2.17,0,0,0-.84-1.39,2.62,2.62,0,0,0-1.63-.51,2.54,2.54,0,0,0-1.34.34,2.31,2.31,0,0,0-.88.95A3,3,0,0,0,97.07,7a3.05,3.05,0,0,0,.32,1.46,2.25,2.25,0,0,0,.88.95,2.89,2.89,0,0,0,3-.18,2.19,2.19,0,0,0,.83-1.37Z"/><path d="M103.52,4.41V3.86l1.4-.29.42-1.92H106V3.48h3.1v.93H106V8a1.88,1.88,0,0,0,.38,1.34,1.56,1.56,0,0,0,1.17.39,2.76,2.76,0,0,0,.91-.14,3.33,3.33,0,0,0,.77-.4v1a3,3,0,0,1-.8.36,4,4,0,0,1-1.09.16,2.58,2.58,0,0,1-1.39-.33,2,2,0,0,1-.76-.91,3.51,3.51,0,0,1-.23-1.3V4.41Z"/><path d="M110.81,10.64a.71.71,0,0,1-.37-.1.7.7,0,0,1-.26-.3.8.8,0,0,1-.1-.41.82.82,0,0,1,.1-.42.69.69,0,0,1,1-.29.84.84,0,0,1,.27.29.87.87,0,0,1,.1.42.81.81,0,0,1-.37.7A.6.6,0,0,1,110.81,10.64Z"/><path d="M23.7,22.13l-.52,0V13.3h1v9.43H22.84l-6.46-8.88.52,0v8.91h-1V13.3h1.38Z"/><path d="M29.39,22.89a4,4,0,0,1-2-.47,3.27,3.27,0,0,1-1.33-1.3,3.85,3.85,0,0,1-.48-1.94,3.76,3.76,0,0,1,.48-1.93A3.27,3.27,0,0,1,27.42,16a4,4,0,0,1,2-.46,4.08,4.08,0,0,1,2,.46,3.39,3.39,0,0,1,1.33,1.3,3.76,3.76,0,0,1,.48,1.93,3.85,3.85,0,0,1-.48,1.94,3.39,3.39,0,0,1-1.33,1.3A4.08,4.08,0,0,1,29.39,22.89Zm0-1a3,3,0,0,0,1.45-.33,2.27,2.27,0,0,0,.94-.95,3,3,0,0,0,.34-1.46,2.89,2.89,0,0,0-.34-1.44,2.35,2.35,0,0,0-.94-1,3.24,3.24,0,0,0-2.89,0,2.37,2.37,0,0,0-.95,1,3,3,0,0,0-.33,1.44A3.06,3.06,0,0,0,27,20.64a2.29,2.29,0,0,0,.95.95A3,3,0,0,0,29.39,21.92Z"/><path d="M48.69,13.3v9.43h-1V13.58h.42L43.8,22.73H42.67L38.38,13.6h.42v9.14h-1V13.3h1.61l4.19,9h-.67l4.17-9Z"/><path d="M51.08,14.58a.73.73,0,0,1-.54-.22.75.75,0,0,1-.22-.56.7.7,0,0,1,.22-.54.73.73,0,0,1,.54-.22.72.72,0,0,1,.55.22.7.7,0,0,1,.22.54.75.75,0,0,1-.22.56A.72.72,0,0,1,51.08,14.58Zm-.51,1.05.52.1.52-.1v7.1h-1Z"/><path d="M59.76,19.18A6.15,6.15,0,0,1,59,21.12a4,4,0,0,1-1.24,1.3,3,3,0,0,1-1.61.47,3,3,0,0,1-1.67-.47,3.32,3.32,0,0,1-1.14-1.31,4.38,4.38,0,0,1-.41-1.93,4.32,4.32,0,0,1,.41-1.93A3.22,3.22,0,0,1,54.47,16a3,3,0,0,1,1.67-.46,3,3,0,0,1,1.61.46A4.11,4.11,0,0,1,59,17.25,6.08,6.08,0,0,1,59.76,19.18Zm-5.77,0a3.19,3.19,0,0,0,.3,1.42,2.27,2.27,0,0,0,.82,1,2.14,2.14,0,0,0,1.2.35,2.41,2.41,0,0,0,1.25-.35,3.52,3.52,0,0,0,1-1,5.43,5.43,0,0,0,.73-1.42,5.59,5.59,0,0,0-.73-1.42,3.52,3.52,0,0,0-1-1,2.41,2.41,0,0,0-1.25-.35,2.14,2.14,0,0,0-1.2.35,2.27,2.27,0,0,0-.82,1A3.22,3.22,0,0,0,54,19.18Zm5.37,3.55L59.13,20l.31-.83-.28-.89.44-5.25h1.06l-.53,6.08.29,3.6Z"/><path d="M68.43,19.18a6.14,6.14,0,0,1-.76,1.94,4,4,0,0,1-1.24,1.3,3,3,0,0,1-1.62.47,3,3,0,0,1-1.66-.47A3.32,3.32,0,0,1,62,21.11a4.38,4.38,0,0,1-.41-1.93A4.32,4.32,0,0,1,62,17.25,3.22,3.22,0,0,1,63.15,16a3,3,0,0,1,1.66-.46,3,3,0,0,1,1.62.46,4.11,4.11,0,0,1,1.25,1.3A6.07,6.07,0,0,1,68.43,19.18Zm-5.77,0A3.19,3.19,0,0,0,63,20.6a2.36,2.36,0,0,0,.83,1,2.13,2.13,0,0,0,1.19.35,2.38,2.38,0,0,0,1.25-.35,3.55,3.55,0,0,0,1-1A5.43,5.43,0,0,0,68,19.18a5.59,5.59,0,0,0-.73-1.42,3.55,3.55,0,0,0-1-1A2.38,2.38,0,0,0,65,16.45a2.13,2.13,0,0,0-1.19.35,2.36,2.36,0,0,0-.83,1A3.22,3.22,0,0,0,62.66,19.18ZM68,22.73,67.81,20l.31-.83-.29-.89.44-5.25h1.07l-.53,6.08.29,3.6Z"/><path d="M70.65,13.05h1v9.68h-1Z"/><path d="M76.74,22.89a4,4,0,0,1-1.94-.47,3.42,3.42,0,0,1-1.33-1.31A3.81,3.81,0,0,1,73,19.18a4,4,0,0,1,.45-1.93A3.35,3.35,0,0,1,74.7,16a3.63,3.63,0,0,1,1.85-.46,3.15,3.15,0,0,1,1.79.5,3.26,3.26,0,0,1,1.2,1.41A5,5,0,0,1,80,19.52H73.78V18.6h5.74l-.61.42a3.18,3.18,0,0,0-.34-1.37,2.17,2.17,0,0,0-.83-.89,2.28,2.28,0,0,0-1.21-.32,2.51,2.51,0,0,0-1.3.33,2.3,2.3,0,0,0-.86.94,3,3,0,0,0-.31,1.42,2.9,2.9,0,0,0,.35,1.48,2.35,2.35,0,0,0,1,1,3.06,3.06,0,0,0,1.49.34,4.13,4.13,0,0,0,1.54-.29,4.57,4.57,0,0,0,1.35-.79v.91a4.33,4.33,0,0,1-1.4.83A4.52,4.52,0,0,1,76.74,22.89Z"/><path d="M81,15.65h1l.36,2.4v4.68h-1V17.89Zm3.83-.16a2.48,2.48,0,0,1,1.41.39A2.52,2.52,0,0,1,87.08,17a4.81,4.81,0,0,1,.3,1.8v3.9h-1V19a3.29,3.29,0,0,0-.47-1.92,1.61,1.61,0,0,0-1.38-.64,1.83,1.83,0,0,0-1.13.35,2.21,2.21,0,0,0-.74,1,3.83,3.83,0,0,0-.26,1.45l-.42-.32a5.06,5.06,0,0,1,.46-1.82,2.88,2.88,0,0,1,1-1.19A2.4,2.4,0,0,1,84.79,15.49Zm5,0a2.43,2.43,0,0,1,1.4.39A2.47,2.47,0,0,1,92.1,17a4.61,4.61,0,0,1,.31,1.8v3.9h-1V19a3.22,3.22,0,0,0-.48-1.92,1.6,1.6,0,0,0-1.38-.64,1.8,1.8,0,0,0-1.12.35,2.23,2.23,0,0,0-.75,1,3.83,3.83,0,0,0-.26,1.45L87,18.92a4.87,4.87,0,0,1,.45-1.82,3,3,0,0,1,1-1.19A2.4,2.4,0,0,1,89.81,15.49Z"/><path d="M97.36,22.89a4,4,0,0,1-1.94-.47,3.46,3.46,0,0,1-1.32-1.31,3.81,3.81,0,0,1-.48-1.93,4,4,0,0,1,.45-1.93A3.22,3.22,0,0,1,95.33,16a3.59,3.59,0,0,1,1.84-.46A3.16,3.16,0,0,1,99,16a3.31,3.31,0,0,1,1.19,1.41,4.9,4.9,0,0,1,.43,2.12H94.41V18.6h5.74l-.61.42a3.33,3.33,0,0,0-.34-1.37,2.23,2.23,0,0,0-.83-.89,2.3,2.3,0,0,0-1.21-.32,2.49,2.49,0,0,0-1.3.33,2.39,2.39,0,0,0-.87.94,3.16,3.16,0,0,0-.31,1.42A3,3,0,0,0,95,20.61a2.43,2.43,0,0,0,1,1,3.06,3.06,0,0,0,1.49.34A4.07,4.07,0,0,0,99,21.63a4.49,4.49,0,0,0,1.36-.79v.91a4.38,4.38,0,0,1-1.41.83A4.45,4.45,0,0,1,97.36,22.89Z"/><path d="M101.58,15.65h1l.36,2.4v4.68h-1V17.89Zm4-.16a2.82,2.82,0,0,1,1.52.39,2.58,2.58,0,0,1,1,1.15,4.42,4.42,0,0,1,.33,1.8v3.9h-1V19a3,3,0,0,0-.53-1.92,1.85,1.85,0,0,0-1.53-.64,2.12,2.12,0,0,0-1.23.35,2.28,2.28,0,0,0-.81,1,3.32,3.32,0,0,0-.29,1.45l-.42-.32a4.36,4.36,0,0,1,.49-1.82,3,3,0,0,1,1.06-1.19A2.76,2.76,0,0,1,105.62,15.49Z"/><path d="M110.52,22.81a.69.69,0,0,1-.37-.1.79.79,0,0,1-.27-.3.91.91,0,0,1-.09-.41.93.93,0,0,1,.09-.42.74.74,0,0,1,.26-.29.7.7,0,0,1,.38-.11.67.67,0,0,1,.37.11.84.84,0,0,1,.27.29,1,1,0,0,1,.1.42,1,1,0,0,1-.1.41.84.84,0,0,1-.27.29A.6.6,0,0,1,110.52,22.81Z"/><path d="M26.78,30v9.43h-1V30.27h.42l-4.29,9.14H20.76L16.47,30.3l.42,0v9.14h-1V30h1.6l4.19,9H21l4.18-9Z"/><path d="M32,39.58a4.08,4.08,0,0,1-2-.46,3.33,3.33,0,0,1-1.32-1.31,3.84,3.84,0,0,1-.48-1.93,3.8,3.8,0,0,1,.48-1.94A3.34,3.34,0,0,1,30,32.65a4.41,4.41,0,0,1,4,0,3.44,3.44,0,0,1,1.33,1.29,3.8,3.8,0,0,1,.48,1.94,3.84,3.84,0,0,1-.48,1.93A3.42,3.42,0,0,1,34,39.12,4.08,4.08,0,0,1,32,39.58Zm0-1a3,3,0,0,0,1.45-.34,2.32,2.32,0,0,0,.94-1,3.26,3.26,0,0,0,0-2.9,2.32,2.32,0,0,0-.94-1,3.24,3.24,0,0,0-2.89,0,2.23,2.23,0,0,0-1,1,3.35,3.35,0,0,0,0,2.9,2.23,2.23,0,0,0,1,1A3,3,0,0,0,32,38.62Z"/><path d="M36.12,33.27v-.55l1.4-.29.42-1.92h.62v1.83h3.1v.93h-3.1v3.6a1.9,1.9,0,0,0,.38,1.34,1.63,1.63,0,0,0,1.17.38,2.82,2.82,0,0,0,.92-.14,2.93,2.93,0,0,0,.76-.4v1a3.25,3.25,0,0,1-.8.35,3.6,3.6,0,0,1-1.09.16,2.6,2.6,0,0,1-1.39-.33,1.83,1.83,0,0,1-.75-.9A3.4,3.4,0,0,1,37.52,37V33.27Z"/><path d="M46.08,39.58a4.08,4.08,0,0,1-2-.46,3.35,3.35,0,0,1-1.33-1.31,3.94,3.94,0,0,1-.47-1.93,3.9,3.9,0,0,1,.47-1.94,3.37,3.37,0,0,1,1.33-1.29,4.41,4.41,0,0,1,4,0,3.44,3.44,0,0,1,1.33,1.29,3.8,3.8,0,0,1,.48,1.94,3.84,3.84,0,0,1-.48,1.93,3.42,3.42,0,0,1-1.33,1.31A4.08,4.08,0,0,1,46.08,39.58Zm0-1a3,3,0,0,0,1.45-.34,2.32,2.32,0,0,0,.94-1,3.26,3.26,0,0,0,0-2.9,2.32,2.32,0,0,0-.94-1,3.24,3.24,0,0,0-2.89,0,2.23,2.23,0,0,0-1,1,3.35,3.35,0,0,0,0,2.9,2.23,2.23,0,0,0,1,1A3,3,0,0,0,46.08,38.62Z"/><path d="M50.88,32.34h1l.36,2.42v4.66h-1V34.54Zm4.78,0v1a2.18,2.18,0,0,0-.5-.11,3.56,3.56,0,0,0-.55,0,2.16,2.16,0,0,0-1.21.34,2.26,2.26,0,0,0-.83,1,3.75,3.75,0,0,0-.29,1.52l-.3-.45a5.38,5.38,0,0,1,.22-1.37,3.24,3.24,0,0,1,.55-1.08,2.39,2.39,0,0,1,.86-.72,2.44,2.44,0,0,1,1.13-.26,2.89,2.89,0,0,1,.5,0A1.85,1.85,0,0,1,55.66,32.32Z"/><path d="M57.15,31.28a.73.73,0,0,1-.53-.22.76.76,0,0,1-.22-.56.74.74,0,0,1,.22-.55.69.69,0,0,1,.53-.22.75.75,0,0,1,.56.22.77.77,0,0,1,.21.55.79.79,0,0,1-.21.56A.79.79,0,0,1,57.15,31.28Zm-.51,1,.53.1.52-.1v7.1h-1Z"/><path d="M58.92,39.42v-.88l5.27-5.68.56.4H59v-.92h6.19v.87l-5.27,5.68-.49-.4h5.79v.93Z"/><path d="M69.6,39.58a3.85,3.85,0,0,1-1.94-.47,3.49,3.49,0,0,1-1.33-1.31,3.77,3.77,0,0,1-.48-1.92,3.89,3.89,0,0,1,.46-1.94,3.3,3.3,0,0,1,1.25-1.29,3.63,3.63,0,0,1,1.85-.47,3.29,3.29,0,0,1,1.8.5A3.34,3.34,0,0,1,72.4,34.1a5,5,0,0,1,.42,2.11H66.65V35.3h5.73l-.61.41a3.08,3.08,0,0,0-.34-1.37,2.28,2.28,0,0,0-.82-.89,2.33,2.33,0,0,0-1.22-.31,2.51,2.51,0,0,0-1.3.33,2.24,2.24,0,0,0-.86.94,3,3,0,0,0-.31,1.42,2.92,2.92,0,0,0,.35,1.48,2.41,2.41,0,0,0,1,1,3.22,3.22,0,0,0,1.5.34,4.28,4.28,0,0,0,1.53-.29,5,5,0,0,0,1.35-.79v.9a4.54,4.54,0,0,1-1.4.84A4.73,4.73,0,0,1,69.6,39.58Z"/><path d="M80.57,35.88a6.34,6.34,0,0,1-.76,1.94,4,4,0,0,1-1.24,1.3,3,3,0,0,1-1.62.46,2.93,2.93,0,0,1-1.66-.47,3.25,3.25,0,0,1-1.14-1.31,4.75,4.75,0,0,1,0-3.86,3.26,3.26,0,0,1,1.14-1.29A3,3,0,0,1,77,32.18a3,3,0,0,1,1.62.47,4.17,4.17,0,0,1,1.25,1.29A5.91,5.91,0,0,1,80.57,35.88Zm-5.77,0a3.22,3.22,0,0,0,.3,1.42,2.36,2.36,0,0,0,.83,1,2.12,2.12,0,0,0,1.19.34,2.35,2.35,0,0,0,1.25-.34,3.55,3.55,0,0,0,1-1,5.59,5.59,0,0,0,.73-1.42,5.43,5.43,0,0,0-.73-1.42,3.46,3.46,0,0,0-1-1,2.35,2.35,0,0,0-1.25-.34,2.12,2.12,0,0,0-1.19.34,2.33,2.33,0,0,0-.83,1A3.19,3.19,0,0,0,74.8,35.88Zm5.38,3.54L80,36.72l.31-.83L80,35l.45-5.26h1.06L81,35.83l.29,3.59Z"/><path d="M89.31,39.58a4.08,4.08,0,0,1-2-.46A3.35,3.35,0,0,1,86,37.81a3.94,3.94,0,0,1-.47-1.93A3.9,3.9,0,0,1,86,33.94a3.37,3.37,0,0,1,1.33-1.29,4.41,4.41,0,0,1,4,0,3.44,3.44,0,0,1,1.33,1.29,3.8,3.8,0,0,1,.48,1.94,3.84,3.84,0,0,1-.48,1.93,3.42,3.42,0,0,1-1.33,1.31A4.08,4.08,0,0,1,89.31,39.58Zm0-1a3,3,0,0,0,1.45-.34,2.32,2.32,0,0,0,.94-1,3.35,3.35,0,0,0,0-2.9,2.32,2.32,0,0,0-.94-1,2.91,2.91,0,0,0-1.45-.34,3,3,0,0,0-1.45.34,2.27,2.27,0,0,0-.94,1,3.35,3.35,0,0,0,0,2.9,2.27,2.27,0,0,0,.94,1A3.07,3.07,0,0,0,89.31,38.62Z"/><path d="M94.1,32.34h1.05l.36,2.42v4.66h-1V34.54Zm4.79,0v1a2.18,2.18,0,0,0-.5-.11,3.65,3.65,0,0,0-.55,0,2.16,2.16,0,0,0-1.21.34,2.26,2.26,0,0,0-.83,1,3.75,3.75,0,0,0-.29,1.52l-.3-.45a5.38,5.38,0,0,1,.22-1.37A3.24,3.24,0,0,1,96,33.16a2.39,2.39,0,0,1,.86-.72A2.44,2.44,0,0,1,98,32.18a2.89,2.89,0,0,1,.5,0A1.85,1.85,0,0,1,98.89,32.32Z"/><path d="M102.36,32.34h1l.37,2.41v4.67h-1V34.58Zm3.84-.16a2.32,2.32,0,0,1,2.28,1.54,4.64,4.64,0,0,1,.31,1.8v3.9h-1v-3.7a3.18,3.18,0,0,0-.48-1.91,1.6,1.6,0,0,0-1.38-.65,1.87,1.87,0,0,0-1.12.35,2.24,2.24,0,0,0-.74,1,3.61,3.61,0,0,0-.26,1.45l-.42-.33a4.73,4.73,0,0,1,.46-1.82,3,3,0,0,1,1-1.19A2.43,2.43,0,0,1,106.2,32.18Zm5,0a2.41,2.41,0,0,1,1.41.4,2.46,2.46,0,0,1,.89,1.14,4.84,4.84,0,0,1,.3,1.8v3.9h-1v-3.7a3.26,3.26,0,0,0-.47-1.91,1.62,1.62,0,0,0-1.38-.65,1.9,1.9,0,0,0-1.13.35,2.24,2.24,0,0,0-.74,1,3.79,3.79,0,0,0-.26,1.45l-.42-.33a4.92,4.92,0,0,1,.46-1.82,3,3,0,0,1,1-1.19A2.45,2.45,0,0,1,111.21,32.18Z"/><path d="M121.87,35.88a6.35,6.35,0,0,1-.77,1.94,3.88,3.88,0,0,1-1.24,1.3,3.11,3.11,0,0,1-3.27,0,3.11,3.11,0,0,1-1.14-1.31,4.75,4.75,0,0,1,0-3.86,3.11,3.11,0,0,1,1.14-1.29,3,3,0,0,1,1.66-.47,2.94,2.94,0,0,1,1.61.47,4.07,4.07,0,0,1,1.25,1.29A5.91,5.91,0,0,1,121.87,35.88Zm-5.77,0a3.22,3.22,0,0,0,.3,1.42,2.34,2.34,0,0,0,.82,1,2.16,2.16,0,0,0,1.2.34,2.37,2.37,0,0,0,1.25-.34,3.55,3.55,0,0,0,1-1,5.93,5.93,0,0,0,.73-1.42,5.75,5.75,0,0,0-.73-1.42,3.46,3.46,0,0,0-1-1,2.37,2.37,0,0,0-1.25-.34,2.16,2.16,0,0,0-1.2.34,2.31,2.31,0,0,0-.82,1A3.19,3.19,0,0,0,116.1,35.88Zm5.36,3.54-.22-2.68.28-.86-.28-.86.22-2.68h1.06l-.29,3.54.29,3.54Z"/><path d="M123.79,32.34h1l.36,2.41v4.67h-1V34.58Zm4-.16a2.73,2.73,0,0,1,1.52.4,2.5,2.5,0,0,1,1,1.14,4.45,4.45,0,0,1,.33,1.8v3.9h-1v-3.7a3,3,0,0,0-.53-1.91,1.86,1.86,0,0,0-1.53-.65,2.19,2.19,0,0,0-1.23.35,2.4,2.4,0,0,0-.82,1,3.44,3.44,0,0,0-.29,1.45l-.41-.33a4.56,4.56,0,0,1,.48-1.82,3.1,3.1,0,0,1,1.07-1.19A2.73,2.73,0,0,1,127.83,32.18Z"/><path d="M134.86,39.58a2.68,2.68,0,0,1-1.48-.39,2.61,2.61,0,0,1-.93-1.15,4.69,4.69,0,0,1-.32-1.81V32.34h1V36a3,3,0,0,0,.51,1.9,1.75,1.75,0,0,0,1.48.65,2.09,2.09,0,0,0,1.2-.34,2.27,2.27,0,0,0,.79-1,3.49,3.49,0,0,0,.29-1.46l.4.27a4.63,4.63,0,0,1-.47,1.86,3.12,3.12,0,0,1-1,1.22A2.63,2.63,0,0,1,134.86,39.58Zm2.93-.16L137.44,37V32.34h1v4.84l.35,2.24Z"/><path d="M146.69,35.88a6.34,6.34,0,0,1-.76,1.94,3.9,3.9,0,0,1-1.25,1.3,3.11,3.11,0,0,1-3.27,0,3.25,3.25,0,0,1-1.14-1.31,4.75,4.75,0,0,1,0-3.86,3.26,3.26,0,0,1,1.14-1.29,3,3,0,0,1,1.66-.47,2.92,2.92,0,0,1,1.61.47,4,4,0,0,1,1.25,1.29A5.91,5.91,0,0,1,146.69,35.88Zm-5.77,0a3.22,3.22,0,0,0,.3,1.42,2.36,2.36,0,0,0,.83,1,2.12,2.12,0,0,0,1.19.34,2.37,2.37,0,0,0,1.25-.34,3.55,3.55,0,0,0,1-1,5.59,5.59,0,0,0,.73-1.42,5.43,5.43,0,0,0-.73-1.42,3.46,3.46,0,0,0-1-1,2.37,2.37,0,0,0-1.25-.34,2.12,2.12,0,0,0-1.19.34,2.33,2.33,0,0,0-.83,1A3.19,3.19,0,0,0,140.92,35.88Zm5.36,3.54-.22-2.68.28-.86-.28-.86.22-2.68h1.07l-.3,3.54.3,3.54Z"/><path d="M148.91,29.74h1v9.68h-1Z"/><path class="cls-1" d="M6.31,0a6.31,6.31,0,1,0,6.31,6.31A6.32,6.32,0,0,0,6.31,0Zm3,5.21L5.76,8.6a.48.48,0,0,1-.67,0L3.31,6.91A.49.49,0,1,1,4,6.2L5.42,7.58,8.65,4.5a.49.49,0,0,1,.67.71Z"/><path class="cls-1" d="M6.31,29a6.32,6.32,0,1,0,6.31,6.31A6.32,6.32,0,0,0,6.31,29Zm3,5.21-3.56,3.4a.48.48,0,0,1-.67,0l-1.78-1.7a.48.48,0,1,1,.67-.7l1.44,1.37,3.23-3.07a.48.48,0,0,1,.68,0,.49.49,0,0,1,0,.69Z"/><path d="M20.39,49.14l4.18,9.42H23.42l-3.93-9h.57l-3.94,9H15l4.18-9.42Zm-3.65,7.08v-1h6v1Z"/><path d="M28,58h-.41l2.82-6.53h1.11l-3.17,7.07H27.23l-3.18-7.07H25.2Z"/><path d="M38.7,55A6.6,6.6,0,0,1,37.94,57a4,4,0,0,1-1.25,1.3,3.11,3.11,0,0,1-3.27,0A3.21,3.21,0,0,1,32.28,57a4.77,4.77,0,0,1,0-3.87,3.18,3.18,0,0,1,1.14-1.29,3,3,0,0,1,1.66-.47,2.92,2.92,0,0,1,1.61.47,4,4,0,0,1,1.25,1.29A5.91,5.91,0,0,1,38.7,55Zm-5.77,0a3.22,3.22,0,0,0,.3,1.42,2.36,2.36,0,0,0,.83,1,2.12,2.12,0,0,0,1.19.34,2.37,2.37,0,0,0,1.25-.34,3.55,3.55,0,0,0,1-1A5.59,5.59,0,0,0,38.25,55a5.43,5.43,0,0,0-.73-1.42,3.55,3.55,0,0,0-1-1,2.38,2.38,0,0,0-1.25-.35,2.13,2.13,0,0,0-1.19.35,2.36,2.36,0,0,0-.83,1A3.19,3.19,0,0,0,32.93,55Zm5.36,3.54-.22-2.68.28-.86-.28-.86.22-2.67h1.07L39.06,55l.3,3.54Z"/><path d="M41.43,50.42a.77.77,0,0,1-.54-.22.76.76,0,0,1-.22-.56.74.74,0,0,1,.22-.55.77.77,0,0,1,.54-.22.76.76,0,0,1,.55.22.74.74,0,0,1,.22.55.75.75,0,0,1-.77.78Zm-.51,1,.52.1.52-.1v7.1h-1Z"/><path d="M43.64,48.88h1v9.68h-1Z"/><path d="M52.83,55A6.34,6.34,0,0,1,52.07,57a4,4,0,0,1-1.25,1.3,3.11,3.11,0,0,1-3.27,0A3.21,3.21,0,0,1,46.41,57a4.77,4.77,0,0,1,0-3.87,3.18,3.18,0,0,1,1.14-1.29,3,3,0,0,1,1.66-.47,2.92,2.92,0,0,1,1.61.47,4,4,0,0,1,1.25,1.29A5.91,5.91,0,0,1,52.83,55Zm-5.77,0a3.22,3.22,0,0,0,.3,1.42,2.36,2.36,0,0,0,.83,1,2.12,2.12,0,0,0,1.19.34,2.37,2.37,0,0,0,1.25-.34,3.55,3.55,0,0,0,1-1A5.59,5.59,0,0,0,52.38,55a5.43,5.43,0,0,0-.73-1.42,3.55,3.55,0,0,0-1-1,2.38,2.38,0,0,0-1.25-.35,2.13,2.13,0,0,0-1.19.35,2.36,2.36,0,0,0-.83,1A3.19,3.19,0,0,0,47.06,55Zm5.36,3.54-.22-2.68.28-.86-.28-.86.22-2.67h1.07L53.19,55l.3,3.54Z"/><path d="M55.05,48.88h1v5.23l-.19.37v1.06l.19.5v2.52h-1ZM55.58,55a6.39,6.39,0,0,1,.76-1.94,4.07,4.07,0,0,1,1.25-1.29,2.94,2.94,0,0,1,1.61-.47,3,3,0,0,1,1.66.47A3.11,3.11,0,0,1,62,53.08,4.77,4.77,0,0,1,62,57a3.14,3.14,0,0,1-1.14,1.3,3.11,3.11,0,0,1-3.27,0A4,4,0,0,1,56.34,57,6.6,6.6,0,0,1,55.58,55Zm5.77,0a3.19,3.19,0,0,0-.3-1.42,2.29,2.29,0,0,0-.83-1A2.11,2.11,0,0,0,59,52.29a2.38,2.38,0,0,0-1.25.35,3.4,3.4,0,0,0-1,1A5.77,5.77,0,0,0,56,55a6,6,0,0,0,.74,1.42,3.4,3.4,0,0,0,1,1,2.37,2.37,0,0,0,1.25.34,2.1,2.1,0,0,0,1.19-.34,2.29,2.29,0,0,0,.83-1A3.22,3.22,0,0,0,61.35,55Z"/><path d="M63.74,48.88h1v9.68h-1Z"/><path d="M69.83,58.72a3.82,3.82,0,0,1-1.94-.47A3.39,3.39,0,0,1,66.56,57,3.81,3.81,0,0,1,66.08,55a4,4,0,0,1,.45-1.94,3.26,3.26,0,0,1,1.26-1.29,3.6,3.6,0,0,1,1.84-.47,3.17,3.17,0,0,1,1.8.51,3.34,3.34,0,0,1,1.2,1.41,5,5,0,0,1,.42,2.12H66.87v-.92h5.74l-.61.41a3.41,3.41,0,0,0-.34-1.37,2.3,2.3,0,0,0-.83-.89,2.27,2.27,0,0,0-1.21-.31,2.49,2.49,0,0,0-1.3.33,2.18,2.18,0,0,0-.86.94,3.31,3.31,0,0,0,0,2.9,2.5,2.5,0,0,0,1,1,3.18,3.18,0,0,0,1.49.34,4.38,4.38,0,0,0,1.54-.29,4.79,4.79,0,0,0,1.35-.79v.9a4.48,4.48,0,0,1-1.41.84A4.64,4.64,0,0,1,69.83,58.72Z"/><path d="M78,50.42a.77.77,0,0,1-.54-.22.8.8,0,0,1-.22-.56.78.78,0,0,1,1.32-.55.77.77,0,0,1,.21.55.79.79,0,0,1-.21.56A.79.79,0,0,1,78,50.42Zm-.51,1,.52.1.52-.1v7.1h-1Z"/><path d="M79.89,51.49h1l.36,2.4v4.67h-1V53.72Zm4-.17a2.73,2.73,0,0,1,1.52.4,2.5,2.5,0,0,1,1,1.14,4.47,4.47,0,0,1,.33,1.81v3.89h-1V54.87A3,3,0,0,0,85.16,53a1.86,1.86,0,0,0-1.53-.65,2.19,2.19,0,0,0-1.23.35,2.31,2.31,0,0,0-.81,1,3.29,3.29,0,0,0-.29,1.45l-.42-.33a4.4,4.4,0,0,1,.49-1.82,3.07,3.07,0,0,1,1.06-1.19A2.78,2.78,0,0,1,83.93,51.32Z"/><path d="M97.91,55A6.35,6.35,0,0,1,97.14,57a4,4,0,0,1-1.24,1.3,3.12,3.12,0,0,1-3.28,0A3.29,3.29,0,0,1,91.48,57a4.77,4.77,0,0,1,0-3.87,3.26,3.26,0,0,1,1.14-1.29,3,3,0,0,1,1.67-.47,3,3,0,0,1,1.61.47,4.17,4.17,0,0,1,1.25,1.29A6.14,6.14,0,0,1,97.91,55Zm-5.77,0a3.22,3.22,0,0,0,.3,1.42,2.34,2.34,0,0,0,.82,1,2.13,2.13,0,0,0,1.2.34,2.4,2.4,0,0,0,1.25-.34,3.4,3.4,0,0,0,1-1A5.29,5.29,0,0,0,97.45,55a5.14,5.14,0,0,0-.73-1.42,3.4,3.4,0,0,0-1-1,2.41,2.41,0,0,0-1.25-.35,2.14,2.14,0,0,0-1.2.35,2.34,2.34,0,0,0-.82,1A3.19,3.19,0,0,0,92.14,55Zm5.36,3.54-.23-2.68.29-.86-.29-.86.23-2.67h1.06L98.27,55l.29,3.54Z"/><path d="M106.15,58h-.4l2.81-6.53h1.11l-3.17,7.07h-1.15l-3.18-7.07h1.15Z"/><path d="M116.82,55a6.34,6.34,0,0,1-.76,1.94,3.9,3.9,0,0,1-1.25,1.3,3.11,3.11,0,0,1-3.27,0A3.29,3.29,0,0,1,110.4,57a4.77,4.77,0,0,1,0-3.87,3.26,3.26,0,0,1,1.14-1.29,3,3,0,0,1,1.66-.47,2.92,2.92,0,0,1,1.61.47,4,4,0,0,1,1.25,1.29A5.91,5.91,0,0,1,116.82,55Zm-5.77,0a3.22,3.22,0,0,0,.3,1.42,2.36,2.36,0,0,0,.83,1,2.12,2.12,0,0,0,1.19.34,2.37,2.37,0,0,0,1.25-.34,3.55,3.55,0,0,0,1-1,5.59,5.59,0,0,0,.73-1.42,5.43,5.43,0,0,0-.73-1.42,3.55,3.55,0,0,0-1-1,2.38,2.38,0,0,0-1.25-.35,2.13,2.13,0,0,0-1.19.35,2.36,2.36,0,0,0-.83,1A3.19,3.19,0,0,0,111.05,55Zm5.36,3.54-.22-2.68.28-.86-.28-.86.22-2.67h1.07l-.3,3.53.3,3.54Z"/><path d="M118.75,51.49h1l.36,2.41v4.66h-1V53.69Zm4.78,0v1a2.88,2.88,0,0,0-.5-.11,5.48,5.48,0,0,0-.55,0,2.16,2.16,0,0,0-2,1.33,3.76,3.76,0,0,0-.29,1.53l-.3-.46a5.38,5.38,0,0,1,.22-1.37,3.24,3.24,0,0,1,.55-1.08,2.39,2.39,0,0,1,.86-.72,2.44,2.44,0,0,1,1.13-.26,2.89,2.89,0,0,1,.5,0A2.61,2.61,0,0,1,123.53,51.46Z"/><path d="M125,50.42a.73.73,0,0,1-.53-.22.76.76,0,0,1-.22-.56.75.75,0,0,1,.75-.77.79.79,0,0,1,.56.22.77.77,0,0,1,.21.55.79.79,0,0,1-.21.56A.79.79,0,0,1,125,50.42Zm-.5,1,.52.1.52-.1v7.1h-1Z"/><path d="M130.6,58.72a3.85,3.85,0,0,1-1.94-.47,3.43,3.43,0,0,1-1.32-1.3,3.81,3.81,0,0,1-.48-1.93,4,4,0,0,1,.45-1.94,3.3,3.3,0,0,1,1.25-1.29,3.66,3.66,0,0,1,1.85-.47,3.17,3.17,0,0,1,1.8.51,3.25,3.25,0,0,1,1.19,1.41,5,5,0,0,1,.43,2.12h-6.18v-.92h5.74l-.62.41a3.11,3.11,0,0,0-.34-1.37,2.21,2.21,0,0,0-.82-.89,2.29,2.29,0,0,0-1.21-.31,2.49,2.49,0,0,0-1.3.33,2.26,2.26,0,0,0-.87.94,3.35,3.35,0,0,0,0,2.9,2.43,2.43,0,0,0,1,1,3.18,3.18,0,0,0,1.49.34,4.28,4.28,0,0,0,1.53-.29,4.79,4.79,0,0,0,1.35-.79v.9a4.54,4.54,0,0,1-1.4.84A4.69,4.69,0,0,1,130.6,58.72Z"/><path d="M134.19,52.42v-.56l1.4-.29.42-1.92h.62v1.84h3.1v.93h-3.1V56a1.9,1.9,0,0,0,.38,1.34,1.61,1.61,0,0,0,1.17.38,2.52,2.52,0,0,0,.91-.14,3,3,0,0,0,.77-.4v1a3.25,3.25,0,0,1-.8.35,3.6,3.6,0,0,1-1.09.16,2.58,2.58,0,0,1-1.39-.33,1.91,1.91,0,0,1-.76-.9,3.54,3.54,0,0,1-.23-1.3V52.42Z"/><path d="M143.27,58.33l-3-6.84h1.15l2.93,6.84Zm-1.06,2.47a2.65,2.65,0,0,1-.87-.14,3.27,3.27,0,0,1-.76-.4v-.92a2.74,2.74,0,0,0,.73.39,2.44,2.44,0,0,0,.8.13,1.49,1.49,0,0,0,.84-.25,1.75,1.75,0,0,0,.58-.8l3.18-7.32h1.11l-3.48,7.75a3.31,3.31,0,0,1-.56.89,1.92,1.92,0,0,1-.72.5A2.11,2.11,0,0,1,142.21,60.8Z"/><path d="M19.08,71.71a4.07,4.07,0,0,1-2-.47,3.29,3.29,0,0,1-1.33-1.31,4.14,4.14,0,0,1,0-3.87,3.37,3.37,0,0,1,1.33-1.29,4.07,4.07,0,0,1,2-.47,4,4,0,0,1,2,.47,3.37,3.37,0,0,1,1.33,1.29,4.14,4.14,0,0,1,0,3.87,3.29,3.29,0,0,1-1.33,1.31A4,4,0,0,1,19.08,71.71Zm0-1a3,3,0,0,0,1.45-.33,2.32,2.32,0,0,0,.94-1,3.28,3.28,0,0,0,0-2.91,2.27,2.27,0,0,0-.94-1,3.24,3.24,0,0,0-2.89,0,2.29,2.29,0,0,0-.95,1,3.47,3.47,0,0,0,0,2.91,2.35,2.35,0,0,0,.95,1A3,3,0,0,0,19.08,70.74Z"/><path d="M23.39,65.84v-1h5.52v1Zm4.21-3.2a1.82,1.82,0,0,0-1.31.44,1.94,1.94,0,0,0-.45,1.44v7h-1V64.68a4.09,4.09,0,0,1,.27-1.53,2.3,2.3,0,0,1,.86-1.06,2.82,2.82,0,0,1,1.56-.39,3,3,0,0,1,.84.1A4.78,4.78,0,0,1,29,62v1a2.3,2.3,0,0,0-.68-.27A3,3,0,0,0,27.6,62.64Z"/><path d="M39.35,68.85a3.2,3.2,0,0,1-.62,1.49,3.51,3.51,0,0,1-1.25,1,3.9,3.9,0,0,1-1.68.37,3.71,3.71,0,0,1-1.87-.47,3.36,3.36,0,0,1-1.28-1.31,4.28,4.28,0,0,1,0-3.86,3.27,3.27,0,0,1,1.28-1.3,3.71,3.71,0,0,1,1.87-.47,3.9,3.9,0,0,1,1.68.36,3.4,3.4,0,0,1,1.25,1,3.24,3.24,0,0,1,.62,1.5H38.27a2.17,2.17,0,0,0-.84-1.39,2.62,2.62,0,0,0-1.63-.51,2.54,2.54,0,0,0-1.34.34,2.34,2.34,0,0,0-.89,1A3.1,3.1,0,0,0,33.26,68a3.17,3.17,0,0,0,.31,1.46,2.4,2.4,0,0,0,.89,1,2.64,2.64,0,0,0,1.34.33,2.59,2.59,0,0,0,1.64-.52,2.16,2.16,0,0,0,.83-1.37Z"/><path d="M44,71.71a4.07,4.07,0,0,1-2-.47,3.29,3.29,0,0,1-1.33-1.31,4.14,4.14,0,0,1,0-3.87A3.37,3.37,0,0,1,42,64.77a4.07,4.07,0,0,1,2-.47,4,4,0,0,1,2,.47,3.37,3.37,0,0,1,1.33,1.29,4.14,4.14,0,0,1,0,3.87A3.29,3.29,0,0,1,46,71.24,4,4,0,0,1,44,71.71Zm0-1a3,3,0,0,0,1.45-.33,2.41,2.41,0,0,0,.95-1,3.37,3.37,0,0,0,0-2.91,2.35,2.35,0,0,0-.95-1,3.24,3.24,0,0,0-2.89,0,2.21,2.21,0,0,0-.94,1,3.37,3.37,0,0,0,0,2.91,2.27,2.27,0,0,0,.94,1A3,3,0,0,0,44,70.74Z"/><path d="M49.06,61.87h1v9.67h-1Z"/><path d="M55.18,71.71a4.07,4.07,0,0,1-2-.47,3.29,3.29,0,0,1-1.33-1.31,4.22,4.22,0,0,1,0-3.87,3.37,3.37,0,0,1,1.33-1.29,4.07,4.07,0,0,1,2-.47,4,4,0,0,1,2,.47,3.37,3.37,0,0,1,1.33,1.29,4.14,4.14,0,0,1,0,3.87,3.29,3.29,0,0,1-1.33,1.31A4,4,0,0,1,55.18,71.71Zm0-1a3,3,0,0,0,1.45-.33,2.41,2.41,0,0,0,.95-1,3.37,3.37,0,0,0,0-2.91,2.35,2.35,0,0,0-.95-1,3.24,3.24,0,0,0-2.89,0,2.27,2.27,0,0,0-.94,1,3.37,3.37,0,0,0,0,2.91,2.32,2.32,0,0,0,.94,1A3,3,0,0,0,55.18,70.74Z"/><path d="M62.91,71.71a2.7,2.7,0,0,1-1.48-.4,2.48,2.48,0,0,1-.92-1.15,4.5,4.5,0,0,1-.33-1.81V64.47h1v3.69a3.13,3.13,0,0,0,.5,1.91,1.79,1.79,0,0,0,1.49.64,2.09,2.09,0,0,0,1.2-.34,2.28,2.28,0,0,0,.79-1,3.47,3.47,0,0,0,.28-1.45l.41.26a4.8,4.8,0,0,1-.47,1.86,3.16,3.16,0,0,1-1.05,1.22A2.64,2.64,0,0,1,62.91,71.71Zm2.93-.17-.35-2.41V64.47h1v4.84l.35,2.23Z"/><path d="M68,64.47h1l.36,2.41v4.66h-1V66.67Zm4.79,0v1a2.13,2.13,0,0,0-.51-.12,5.29,5.29,0,0,0-.54,0,2.22,2.22,0,0,0-1.21.34,2.26,2.26,0,0,0-.83,1,3.6,3.6,0,0,0-.3,1.53l-.29-.45a5.24,5.24,0,0,1,.22-1.37,3.27,3.27,0,0,1,.54-1.09,2.57,2.57,0,0,1,.86-.72,2.52,2.52,0,0,1,1.14-.26,4.22,4.22,0,0,1,.49,0A2.76,2.76,0,0,1,72.78,64.44Z"/><path d="M79.79,69.47a1.91,1.91,0,0,1-.37,1.18,2.25,2.25,0,0,1-1.07.78,4.78,4.78,0,0,1-1.71.28,4.85,4.85,0,0,1-1.82-.32,3,3,0,0,1-1.23-.9,2.37,2.37,0,0,1-.47-1.35h1.06a1.53,1.53,0,0,0,.4.86,2.08,2.08,0,0,0,.86.58,3.45,3.45,0,0,0,1.21.2,2.93,2.93,0,0,0,1.54-.34,1,1,0,0,0,.56-.91.74.74,0,0,0-.36-.67A3.5,3.5,0,0,0,77,68.53l-1.23-.14A4.62,4.62,0,0,1,74.34,68a1.82,1.82,0,0,1-.78-.68,1.77,1.77,0,0,1-.24-.91,1.8,1.8,0,0,1,.38-1.16,2.23,2.23,0,0,1,1.06-.72,4.66,4.66,0,0,1,1.57-.25,4.28,4.28,0,0,1,1.69.31,2.82,2.82,0,0,1,1.18.84,2.09,2.09,0,0,1,.49,1.24h-1A1.41,1.41,0,0,0,78.3,66a1.94,1.94,0,0,0-.79-.54,3.43,3.43,0,0,0-1.24-.2,2.91,2.91,0,0,0-1.41.29.92.92,0,0,0-.5.84.75.75,0,0,0,.33.64,2.54,2.54,0,0,0,1.16.34l1.41.17a4.73,4.73,0,0,1,1.51.35,1.64,1.64,0,0,1,.79.65A2,2,0,0,1,79.79,69.47Z"/><path class="cls-1" d="M6.31,48.1a6.32,6.32,0,1,0,6.31,6.31A6.32,6.32,0,0,0,6.31,48.1Zm3,5.21-3.56,3.4a.48.48,0,0,1-.67,0L3.31,55a.48.48,0,1,1,.67-.7l1.44,1.38,3.23-3.08a.48.48,0,0,1,.68,0,.49.49,0,0,1,0,.69Z"/></g></g></svg>