<svg xmlns="http://www.w3.org/2000/svg" viewBox="0 0 175 31.35"><defs><style>.cls-1{fill:#e32026;}.cls-2{fill:#fff;}</style></defs><g id="Layer_2" data-name="Layer 2"><g id="Layer_1-2" data-name="Layer 1"><rect class="cls-1" y="0.18" width="175" height="31" rx="15.5" transform="translate(0.04 -0.21) rotate(0.14)"/><path class="cls-2" d="M24.58,9.48l1.19-1.3,0,6.35-.81-.71,6,0v2.09h-6l.82-.75,0,6.88h-2.6l0-14.67,8.65,0V9.49Z"/><path class="cls-2" d="M33.49,22.07l0-10.55h2.62V15l-.61-.34a4.94,4.94,0,0,1,.38-1.29,3.43,3.43,0,0,1,.71-1.08,3.17,3.17,0,0,1,1.09-.71,3.68,3.68,0,0,1,1.45-.26,4,4,0,0,1,1,.1,1.8,1.8,0,0,1,.46.15L40.14,14a1.75,1.75,0,0,0-.4-.18,2.63,2.63,0,0,0-.81-.1,2.88,2.88,0,0,0-1.35.27,2.2,2.2,0,0,0-.86.73,3,3,0,0,0-.46,1,4.2,4.2,0,0,0-.14,1.1l0,5.25Z"/><path class="cls-2" d="M43,17.66V15.8l7.38,0-.3.5v-.26a2.84,2.84,0,0,0-.3-1.29,2.41,2.41,0,0,0-.93-1,3.07,3.07,0,0,0-1.59-.38,3.27,3.27,0,0,0-1.66.4A2.69,2.69,0,0,0,44.55,15a4.06,4.06,0,0,0-.38,1.81,4.46,4.46,0,0,0,.36,1.87,2.55,2.55,0,0,0,1.08,1.19,3.33,3.33,0,0,0,1.73.42,4.69,4.69,0,0,0,1.2-.13,2.36,2.36,0,0,0,.83-.35,1.73,1.73,0,0,0,.49-.48,1.2,1.2,0,0,0,.2-.52h2.6a3.09,3.09,0,0,1-.44,1.3,4.25,4.25,0,0,1-1.07,1.14,5.53,5.53,0,0,1-1.67.81,7.62,7.62,0,0,1-2.23.3,6.1,6.1,0,0,1-3-.71,4.93,4.93,0,0,1-2-1.94,5.58,5.58,0,0,1-.71-2.85A5.69,5.69,0,0,1,42.32,14a4.93,4.93,0,0,1,2-1.91,6.11,6.11,0,0,1,2.94-.69,6,6,0,0,1,3,.7A4.91,4.91,0,0,1,52.15,14a6,6,0,0,1,.67,2.88c0,.14,0,.29,0,.45a1.5,1.5,0,0,1,0,.35Z"/><path class="cls-2" d="M56,17.69V15.84h7.39l-.3.5v-.26a2.76,2.76,0,0,0-.31-1.29,2.34,2.34,0,0,0-.93-1,3.07,3.07,0,0,0-1.59-.38,3.27,3.27,0,0,0-1.66.4A2.73,2.73,0,0,0,57.47,15a3.93,3.93,0,0,0-.39,1.81,4.42,4.42,0,0,0,.36,1.87,2.66,2.66,0,0,0,1.08,1.19,3.33,3.33,0,0,0,1.73.42,4.77,4.77,0,0,0,1.21-.13,2.53,2.53,0,0,0,.83-.35,1.87,1.87,0,0,0,.49-.48,1.18,1.18,0,0,0,.19-.51h2.61a3.07,3.07,0,0,1-.45,1.3,4.09,4.09,0,0,1-1.07,1.14,5.53,5.53,0,0,1-1.67.81,7.62,7.62,0,0,1-2.23.3,6.12,6.12,0,0,1-3-.71,4.93,4.93,0,0,1-2-1.94,5.57,5.57,0,0,1-.7-2.84A5.62,5.62,0,0,1,55.23,14a5.06,5.06,0,0,1,2-1.91,6.15,6.15,0,0,1,2.95-.69,6,6,0,0,1,3,.71A4.82,4.82,0,0,1,65.06,14a6,6,0,0,1,.67,2.88c0,.14,0,.29,0,.45s0,.28,0,.35Z"/><path class="cls-2" d="M78.76,22.4a6.26,6.26,0,0,1-2.49-.5,5.77,5.77,0,0,1-2-1.47,7,7,0,0,1-1.34-2.38,10,10,0,0,1-.48-3.23,10.23,10.23,0,0,1,.49-3.22,6.76,6.76,0,0,1,1.36-2.35,5.54,5.54,0,0,1,2-1.45,6.32,6.32,0,0,1,2.49-.49,6.46,6.46,0,0,1,2.51.5,5.69,5.69,0,0,1,2,1.46,6.71,6.71,0,0,1,1.34,2.36,10,10,0,0,1,.48,3.22,9.7,9.7,0,0,1-.5,3.23,6.7,6.7,0,0,1-1.36,2.37,5.69,5.69,0,0,1-2,1.46A6.08,6.08,0,0,1,78.76,22.4Zm0-2.15a3.32,3.32,0,0,0,1.87-.56A3.75,3.75,0,0,0,82,17.94a8,8,0,0,0,.5-3.09A7.9,7.9,0,0,0,82,11.76,3.67,3.67,0,0,0,80.65,10a3.43,3.43,0,0,0-3.71,0,3.72,3.72,0,0,0-1.34,1.72,7.9,7.9,0,0,0-.51,3.09,8,8,0,0,0,.49,3.1,3.78,3.78,0,0,0,1.34,1.75A3.28,3.28,0,0,0,78.76,20.25ZM77.6,22.08h2.23a1.22,1.22,0,0,0,.34.87,2.72,2.72,0,0,0,.83.57,5.53,5.53,0,0,0,.91.32l.6.14-.76,1.76-.63-.11a6.55,6.55,0,0,1-1.07-.32,5,5,0,0,1-1.15-.63,3.25,3.25,0,0,1-.94-1A3.07,3.07,0,0,1,77.6,22.08Z"/><path class="cls-2" d="M91.1,22.41A4.1,4.1,0,0,1,89.24,22a3,3,0,0,1-1.16-1,3.86,3.86,0,0,1-.59-1.36,6.31,6.31,0,0,1-.17-1.49V11.65H90v5.86a4.94,4.94,0,0,0,.17,1.31,1.88,1.88,0,0,0,.62,1,2,2,0,0,0,1.27.37,2.07,2.07,0,0,0,1.36-.46,3.12,3.12,0,0,0,.88-1.17,3.46,3.46,0,0,0,.32-1.43l.89.6a5.43,5.43,0,0,1-.3,1.82,4.68,4.68,0,0,1-.87,1.5,4.09,4.09,0,0,1-1.37,1A4.21,4.21,0,0,1,91.1,22.41Zm3.44-.19,0-10.55h2.61l0,10.56Z"/><path class="cls-2" d="M104.87,22.46a6.09,6.09,0,0,1-2.94-.71,5.11,5.11,0,0,1-2-1.95A5.57,5.57,0,0,1,99.23,17a5.41,5.41,0,0,1,.73-2.84,5,5,0,0,1,2-1.92,6.12,6.12,0,0,1,3-.69,6,6,0,0,1,2.94.71,5,5,0,0,1,2,1.92,5.52,5.52,0,0,1,.71,2.84,5.44,5.44,0,0,1-.73,2.84,5,5,0,0,1-2,1.94A6,6,0,0,1,104.87,22.46Zm0-2.14a3,3,0,0,0,1.58-.41,2.93,2.93,0,0,0,1.06-1.17,4.27,4.27,0,0,0,0-3.52,2.79,2.79,0,0,0-1-1.15,3.27,3.27,0,0,0-3.15,0,2.83,2.83,0,0,0-1.07,1.15,4,4,0,0,0-.38,1.75,3.91,3.91,0,0,0,.38,1.77,2.84,2.84,0,0,0,1,1.17A3,3,0,0,0,104.88,20.32Z"/><path class="cls-2" d="M117.41,22.48a6.69,6.69,0,0,1-1.16-.11,3.3,3.3,0,0,1-1.07-.41,2.24,2.24,0,0,1-.78-.88,3.31,3.31,0,0,1-.3-1.52V13.8h-2.5V11.71h1a5.92,5.92,0,0,0,.82,0,.62.62,0,0,0,.43-.22.94.94,0,0,0,.19-.53,8.38,8.38,0,0,0,0-1V8.23h2.63v3.48h3.14v2.09h-3.14v5a3.22,3.22,0,0,0,.18,1.18c.11.3.4.45.84.45a2.91,2.91,0,0,0,.6-.06,2.26,2.26,0,0,0,.42-.12v2.05a3.88,3.88,0,0,1-.55.14A4,4,0,0,1,117.41,22.48Z"/><path class="cls-2" d="M122.53,17.86V16l7.39,0-.3.49v-.25a2.84,2.84,0,0,0-.3-1.29,2.45,2.45,0,0,0-.94-1,3.11,3.11,0,0,0-1.59-.38,3.36,3.36,0,0,0-1.65.4,2.78,2.78,0,0,0-1.09,1.16,4,4,0,0,0-.39,1.81,4.26,4.26,0,0,0,.37,1.86A2.66,2.66,0,0,0,125.1,20a3.47,3.47,0,0,0,1.74.41,5.29,5.29,0,0,0,1.2-.12,2.92,2.92,0,0,0,.83-.35,1.63,1.63,0,0,0,.49-.49,1.18,1.18,0,0,0,.19-.51h2.61a2.94,2.94,0,0,1-.45,1.29,4,4,0,0,1-1.07,1.14,5.41,5.41,0,0,1-1.67.81,7.57,7.57,0,0,1-2.23.3,6.15,6.15,0,0,1-3-.7,5,5,0,0,1-2-1.95,5.64,5.64,0,0,1-.7-2.84,5.49,5.49,0,0,1,.73-2.87,5.06,5.06,0,0,1,2-1.92,6,6,0,0,1,3-.68,5.88,5.88,0,0,1,3,.7,4.84,4.84,0,0,1,1.92,1.94,5.89,5.89,0,0,1,.67,2.88c0,.14,0,.29,0,.44s0,.28,0,.35Z"/><rect class="cls-2" x="146" y="3.02" width="25.49" height="25.49" rx="12.18" transform="translate(0.04 -0.39) rotate(0.14)"/><path class="cls-1" d="M155.06,21a.93.93,0,0,1-.63-.26.91.91,0,0,1,0-1.27l5.82-5.79h-4.44a.9.9,0,0,1-.9-.9.91.91,0,0,1,.9-.89l6.6,0h0a.94.94,0,0,1,.29.06.92.92,0,0,1,.31.2.87.87,0,0,1,.2.31.94.94,0,0,1,.06.29v0l0,6.59a.89.89,0,1,1-1.78,0V15l-5.82,5.79A.93.93,0,0,1,155.06,21Z"/></g></g></svg>