<svg xmlns="http://www.w3.org/2000/svg" viewBox="0 0 109.64 69.2"><defs><style>.cls-1{isolation:isolate;}.cls-2{fill:#53317d;}.cls-3{fill:#f8faff;}.cls-4{fill:#d2c0fe;opacity:0.6;mix-blend-mode:multiply;}.cls-5{fill:#fff7ff;}.cls-6{fill:#ff6c86;}.cls-7,.cls-8,.cls-9{fill:#a5596c;}.cls-8{opacity:0.7;}.cls-9{opacity:0.51;}.cls-10{fill:#91a4e4;}.cls-11{fill:#934961;}.cls-12{fill:#9b5066;}.cls-13{fill:#914860;}.cls-14{fill:#b56576;}</style></defs><g class="cls-1"><g id="Layer_2" data-name="Layer 2"><g id="Layer_1-2" data-name="Layer 1"><ellipse class="cls-2" cx="21.33" cy="56.82" rx="21.33" ry="2.13"/><ellipse class="cls-2" cx="46.96" cy="67.07" rx="21.33" ry="2.13"/><ellipse class="cls-2" cx="85.4" cy="64.51" rx="21.33" ry="2.13"/><ellipse class="cls-2" cx="95.71" cy="67.92" rx="12.84" ry="1.28"/><path class="cls-3" d="M6.86,50.24,18.37,16.3V14l-7.75-4,1.21-2.34L18.37,11V8h6.52v8.39L36.36,50.24a4.65,4.65,0,0,1-4.22,6.59H11.08A4.64,4.64,0,0,1,6.86,50.24Z"/><rect class="cls-4" x="18.37" y="8" width="6.52" height="1.37"/><path class="cls-5" d="M18.32,8.52H24.9a.84.84,0,0,0,.85-.84.85.85,0,0,0-.85-.85H18.32a.85.85,0,0,0-.85.85A.84.84,0,0,0,18.32,8.52Z"/><path class="cls-6" d="M7.85,50.63l7.22-21.29H28.15l7.22,21.29,0,.06a3.58,3.58,0,0,1-3.25,5.07H11.08a3.57,3.57,0,0,1-3.25-5.07Z"/><path class="cls-7" d="M50,8.63H47.63a1,1,0,0,1-.94-.73L45.61,3.82a2.41,2.41,0,0,1-.08-.6v-2A1.24,1.24,0,0,1,46.77,0h4a1.23,1.23,0,0,1,1.24,1.24v2a2.41,2.41,0,0,1-.08.6L50.9,7.9A1,1,0,0,1,50,8.63Z"/><path class="cls-3" d="M65.11,60,52.38,32.3V5.47H45.17V32.4L32.48,60a5.14,5.14,0,0,0,4.67,7.28H60.44A5.13,5.13,0,0,0,65.11,60Z"/><path class="cls-8" d="M50,8.63a1,1,0,0,0,.94-.73l.65-2.43h-5.5l.64,2.43a1,1,0,0,0,.94.73Z"/><rect class="cls-4" x="45.17" y="5.47" width="7.21" height="1.51"/><path class="cls-5" d="M52.44,6.05H45.15a.94.94,0,0,1,0-1.87h7.29a.94.94,0,0,1,0,1.87Z"/><polygon class="cls-9" points="46.2 6.05 51.39 6.05 51.89 4.18 45.7 4.18 46.2 6.05"/><path class="cls-10" d="M58.81,48.83h-20L33.45,60.4a4.07,4.07,0,0,0,3.7,5.77H60.44a4.07,4.07,0,0,0,3.7-5.77Z"/><path class="cls-3" d="M73.57,64.14H89.94A3.88,3.88,0,0,0,92.69,63a15.57,15.57,0,0,0-7.31-26.26V22.39H78.13V36.75A15.57,15.57,0,0,0,70.82,63,3.88,3.88,0,0,0,73.57,64.14Z"/><rect class="cls-4" x="78.13" y="22.39" width="7.26" height="2.06"/><path class="cls-5" d="M85.88,23.1H77.63a1.3,1.3,0,1,1,0-2.6h8.25a1.3,1.3,0,0,1,0,2.6Z"/><path class="cls-10" d="M74.17,62.26H89.34a3.25,3.25,0,0,0,2.38-1A13.61,13.61,0,0,0,94.05,46H69.46a13.61,13.61,0,0,0,2.33,15.22A3.24,3.24,0,0,0,74.17,62.26Z"/><path class="cls-11" d="M103,67H91.49l.27-.92a.6.6,0,0,1,.59-.45h9.79a.6.6,0,0,1,.59.45Z"/><path class="cls-12" d="M103.81,68.54H90.67a.32.32,0,0,1-.31-.38l.06-.33a1.14,1.14,0,0,1,1.1-.92H103a1.14,1.14,0,0,1,1.1.92l.06.33A.32.32,0,0,1,103.81,68.54Z"/><path class="cls-7" d="M102.33,65.74a7.36,7.36,0,0,0,6.46-7.3V54.6H85.7v3.84a7.36,7.36,0,0,0,6.46,7.3Z"/><path class="cls-13" d="M85.7,57.1h23.09V54.6H85.7Z"/><rect class="cls-14" x="84.85" y="52.97" width="24.79" height="3.5" rx="0.96"/></g></g></g></svg>