<svg xmlns="http://www.w3.org/2000/svg" viewBox="0 0 54.53 66.69"><defs><style>.cls-1{isolation:isolate;}.cls-2{fill:#31115a;}.cls-3{fill:#53317d;}.cls-4{fill:#f8faff;}.cls-5{fill:#d2c0fe;opacity:0.6;mix-blend-mode:multiply;}.cls-6{fill:#654696;}.cls-7{fill:#91a4e4;}.cls-8{fill:#dcd4ff;}.cls-9{fill:#e6e1ff;}.cls-10{fill:#7890ce;}</style></defs><g class="cls-1"><g id="Layer_2" data-name="Layer 2"><g id="Layer_1-2" data-name="Layer 1"><rect class="cls-2" x="49.49" y="65.25" width="3.51" height="1.44" transform="translate(102.5 131.95) rotate(180)"/><rect class="cls-2" x="1.72" y="65.25" width="3.51" height="1.44" transform="translate(6.95 131.95) rotate(180)"/><rect class="cls-3" x="3.86" y="14.15" width="3.04" height="0.88" transform="translate(10.76 29.18) rotate(180)"/><path class="cls-2" d="M2.33,14.93a.56.56,0,0,0,0-.69A1.86,1.86,0,0,1,2,13.17a1.46,1.46,0,0,1,1.25-1.6,1.46,1.46,0,0,1,1.25,1.6,1.86,1.86,0,0,1-.33,1.07.56.56,0,0,0,0,.69A1.89,1.89,0,0,1,4.5,16a1.46,1.46,0,0,1-1.25,1.6A1.46,1.46,0,0,1,2,16,1.89,1.89,0,0,1,2.33,14.93Z"/><path class="cls-4" d="M36.62,21.82V11h5.69V21.82a12.22,12.22,0,1,1-5.69,0Z"/><rect class="cls-5" x="36.62" y="11.04" width="5.69" height="1.61"/><path class="cls-6" d="M36.23,11.6h6.46a1,1,0,0,0,0-2H36.23a1,1,0,1,0,0,2Z"/><path class="cls-7" d="M49.1,29.06a10.69,10.69,0,1,1-20.33,4.63,10.6,10.6,0,0,1,1.06-4.63Z"/><rect class="cls-3" x="7.53" width="1.8" height="61.38" transform="translate(16.86 61.38) rotate(180)"/><rect class="cls-3" x="21.04" y="0.54" width="1.8" height="28.1" transform="translate(36.52 -7.35) rotate(90)"/><path class="cls-8" d="M0,61H54.53a0,0,0,0,1,0,0v3.89A1.12,1.12,0,0,1,53.42,66H1.12A1.12,1.12,0,0,1,0,64.91V61A0,0,0,0,1,0,61Z" transform="translate(54.53 127.05) rotate(180)"/><path class="cls-9" d="M1.12,61h52.3a1.12,1.12,0,0,1,1.11,1.12v.06H0v-.06A1.12,1.12,0,0,1,1.12,61Z"/><rect class="cls-6" x="35.08" y="12.56" width="8.6" height="4.05" transform="translate(78.77 29.18) rotate(180)"/><rect class="cls-2" x="6.67" y="11.82" width="3.51" height="5.54" transform="translate(16.86 29.18) rotate(180)"/><rect class="cls-2" x="6.67" y="55.46" width="3.51" height="5.54" transform="translate(16.86 116.46) rotate(180)"/><path class="cls-10" d="M42.15,39.35a1.42,1.42,0,1,0,1.42-1.42A1.42,1.42,0,0,0,42.15,39.35Z"/><path class="cls-10" d="M31.68,31.89a1.66,1.66,0,1,0,1.66-1.66A1.66,1.66,0,0,0,31.68,31.89Z"/><path class="cls-10" d="M40.87,32.6a2,2,0,1,0,2-2A2,2,0,0,0,40.87,32.6Z"/><path class="cls-10" d="M31.28,38.31a1.45,1.45,0,1,0,1.45-1.46A1.45,1.45,0,0,0,31.28,38.31Z"/><path class="cls-10" d="M35.94,40.87a1.18,1.18,0,1,0,1.18-1.18A1.18,1.18,0,0,0,35.94,40.87Z"/><path class="cls-10" d="M37.09,35.4a.91.91,0,1,0,.91-.91A.91.91,0,0,0,37.09,35.4Z"/><path class="cls-10" d="M34.25,29.46a1.12,1.12,0,1,0,1.12-1.12A1.12,1.12,0,0,0,34.25,29.46Z"/><path class="cls-10" d="M42.42,29.29a.81.81,0,1,0,.81-.81A.81.81,0,0,0,42.42,29.29Z"/><circle class="cls-10" cx="47.72" cy="35.74" r="0.91"/><path class="cls-10" d="M37.36,28.92s0,.09,0,.14h3.15s0-.09,0-.14a1.59,1.59,0,1,0-3.17,0Zm-6.45.1s1.82,0,1.82,0a.92.92,0,0,0-.91-.95A.91.91,0,0,0,30.91,29Zm13.62,0h2.88a1.45,1.45,0,0,0-2.88,0Z"/></g></g></g></svg>