<svg xmlns="http://www.w3.org/2000/svg" viewBox="0 0 182.61 49.13"><defs><style>.cls-1{isolation:isolate;}.cls-2{fill:#f8faff;}.cls-3{fill:#91a4e4;}.cls-4{fill:#d2c0fe;opacity:0.6;mix-blend-mode:multiply;}.cls-5{fill:#fff7ff;}.cls-6{fill:#654696;}.cls-7{fill:#53317d;}.cls-8{fill:#31115a;}.cls-9{fill:#fff;opacity:0.7;}.cls-10{fill:#dcd4ff;}.cls-11{fill:#dbdaff;}.cls-12{fill:#7890ce;}</style></defs><g class="cls-1"><g id="Layer_2" data-name="Layer 2"><g id="Layer_1-2" data-name="Layer 1"><polygon class="cls-2" points="169.29 27.16 169.29 8.72 163.78 8.72 163.78 27.2 169.29 27.16"/><polygon class="cls-3" points="168.94 27.19 168.94 19.69 164.13 19.69 164.13 27.2 168.94 27.19"/><rect class="cls-4" x="163.78" y="8.72" width="5.51" height="0.64"/><path class="cls-5" d="M169.32,9h-5.54a.4.4,0,1,1,0-.79h5.54a.4.4,0,0,1,0,.79Z"/><path class="cls-6" d="M169.78,27.66H163.3l.14-.65a.3.3,0,0,1,.3-.24h5.6a.31.31,0,0,1,.3.24Z"/><path class="cls-7" d="M170.27,28.3H162.8l.17-.6a.4.4,0,0,1,.39-.28h6.36a.39.39,0,0,1,.38.28Z"/><path class="cls-8" d="M171.05,29.3h-9l.09-.47a.73.73,0,0,1,.71-.59h7.44a.75.75,0,0,1,.71.59Z"/><path class="cls-9" d="M164.7,25.41h1.69V25.2H164.7Zm.39-1.44v.22h.9V24Zm-.39-1h1.69v-.21H164.7Zm.39-1.43v.21h.9v-.21Zm-.39-1h1.69V20.3H164.7Zm.39-1.44v.21h.9v-.21Zm-.39-1h1.69v-.21H164.7Zm.39-1.44v.22h.9v-.22Zm-.39-1h1.69v-.21H164.7Zm.39-1.43v.21h.9v-.21Zm-.39-1h1.69V13H164.7Zm.39-1.44V12h.9v-.21Zm-.39-1.22v.21h1.69v-.21Z"/><polygon class="cls-2" points="8.71 46.37 8.71 24.28 2.11 24.28 2.11 46.42 8.71 46.37"/><polygon class="cls-3" points="8.29 46.4 8.29 37.41 2.53 37.41 2.53 46.42 8.29 46.4"/><rect class="cls-4" x="2.11" y="24.28" width="6.6" height="0.76"/><path class="cls-5" d="M8.74,24.57H2.1a.47.47,0,1,1,0-.94H8.74a.47.47,0,0,1,0,.94Z"/><path class="cls-6" d="M9.29,47H1.53l.16-.77a.37.37,0,0,1,.36-.29H8.76a.36.36,0,0,1,.36.29Z"/><path class="cls-7" d="M9.88,47.74h-9L1.14,47a.48.48,0,0,1,.46-.35H9.22a.48.48,0,0,1,.46.35Z"/><path class="cls-8" d="M10.82,48.93H0l.1-.56A.89.89,0,0,1,1,47.66H9.86a.89.89,0,0,1,.86.71Z"/><path class="cls-9" d="M3.2,44.27h2V44h-2Zm.48-1.72v.25H4.75v-.25ZM3.2,41.34h2v-.26h-2Zm.48-1.72v.25H4.75v-.25ZM3.2,38.41h2v-.26h-2Zm.48-1.72v.25H4.75v-.25ZM3.2,35.48h2v-.26h-2Zm.48-1.72V34H4.75v-.25ZM3.2,32.54h2v-.25h-2Zm.48-1.72v.26H4.75v-.26ZM3.2,29.61h2v-.25h-2Zm.48-1.72v.26H4.75v-.26ZM3.2,26.43v.25h2v-.25Z"/><path class="cls-2" d="M40.77,28.7V10.93h4.82V28.7a10.35,10.35,0,1,1-4.82,0Z"/><rect class="cls-4" x="40.77" y="10.93" width="4.82" height="1.37"/><path class="cls-5" d="M40.44,11.4h5.48a.86.86,0,0,0,0-1.72H40.44a.86.86,0,1,0,0,1.72Z"/><path class="cls-3" d="M51.35,34.85a9.06,9.06,0,1,1-17.23,3.92,8.89,8.89,0,0,1,.9-3.92Z"/><rect class="cls-10" x="33.39" y="42.68" width="2.61" height="0.75" transform="translate(69.38 86.11) rotate(180)"/><path class="cls-7" d="M32.08,43.35a.5.5,0,0,0,0-.59,1.55,1.55,0,0,1-.29-.92,1.25,1.25,0,0,1,1.07-1.37,1.24,1.24,0,0,1,1.07,1.37,1.55,1.55,0,0,1-.28.92.5.5,0,0,0,0,.59,1.58,1.58,0,0,1,.28.93,1.25,1.25,0,0,1-1.07,1.37,1.25,1.25,0,0,1-1.07-1.37A1.58,1.58,0,0,1,32.08,43.35Z"/><rect class="cls-10" x="35.64" y="39.02" width="3.78" height="7.18" transform="translate(75.05 85.21) rotate(180)"/><rect class="cls-7" x="35.3" y="38.64" width="4.44" height="2.24" transform="translate(75.05 79.52) rotate(180)"/><polygon class="cls-6" points="35.3 38.64 39.74 38.64 38.44 36.4 36.6 36.4 35.3 38.64"/><path class="cls-6" d="M34.63,47.19h5.79l-.13-.75a.29.29,0,0,0-.26-.28H35a.31.31,0,0,0-.27.28Z"/><path class="cls-7" d="M34.19,47.93h6.67l-.15-.69a.39.39,0,0,0-.35-.33H34.68a.39.39,0,0,0-.34.33Z"/><path class="cls-8" d="M33.49,49.08h8.07l-.08-.54a.75.75,0,0,0-.63-.69H34.2a.74.74,0,0,0-.63.69Z"/><path class="cls-2" d="M182.41,13.9H171.26a.2.2,0,0,0-.17.31l.23.37a1,1,0,0,1,.15.52V27.42a2,2,0,0,0,2,2h6.71a2,2,0,0,0,2-2V15.1a1,1,0,0,1,.15-.52l.23-.37A.21.21,0,0,0,182.41,13.9Z"/><path class="cls-3" d="M172,20.22v7.2a1.49,1.49,0,0,0,1.49,1.48h6.71a1.49,1.49,0,0,0,1.49-1.48v-7.2Z"/><path class="cls-11" d="M182.41,13.9H171.26a.2.2,0,0,0-.17.31l.23.37a1,1,0,0,1,.12.34h10.79a.82.82,0,0,1,.12-.34l.23-.37A.21.21,0,0,0,182.41,13.9Z"/><path class="cls-9" d="M178.34,25.7v.18h2.2V25.6h-2.2Zm0-6v.17h2.2v-.27h-2.2Zm0,2v.17h2.2v-.28h-2.2Zm0-4v.17h2.2v-.27h-2.2Zm0,6v.18h2.2v-.28h-2.2Zm0-8v.27h2.2v-.27Zm0,12v.17h2.2v-.27h-2.2Zm1.68-3v-.1h-1.17v.27H180v-.17Zm0,2v-.1h-1.17v.27H180V26.7Zm0-9.95v-.1h-1.17v.28H180v-.18Zm0,2v-.1h-1.17v.28H180v-.18Zm0,2v-.1h-1.17v.27H180v-.17Zm0,2v-.1h-1.17v.27H180v-.17Z"/><rect class="cls-12" x="173.04" y="21.58" width="2.59" height="4.08" transform="translate(348.66 47.24) rotate(180)"/><path class="cls-3" d="M146.53,5.11h11.62a1.27,1.27,0,0,1,1.27,1.27v17a5.73,5.73,0,0,1-5.73,5.73H151a5.73,5.73,0,0,1-5.73-5.73v-17A1.27,1.27,0,0,1,146.53,5.11Z" transform="translate(304.69 34.2) rotate(180)"/><rect class="cls-3" x="149.97" y="0.53" width="4.74" height="8" transform="translate(304.69 9.06) rotate(180)"/><rect class="cls-12" x="149.97" y="1.21" width="4.74" height="0.94"/><rect class="cls-6" x="149.39" width="5.91" height="1.38" rx="0.52" transform="translate(304.69 1.38) rotate(180)"/><path class="cls-9" d="M159.43,23.41H151a1,1,0,0,1-1-1V12.91a1,1,0,0,1,1-1h8.47Z"/></g></g></g></svg>