<svg xmlns="http://www.w3.org/2000/svg" viewBox="0 0 26.23 27.26"><defs><style>.cls-1{fill:#18104f;}.cls-2{fill:#aa2d2d;}.cls-3{fill:#f26a60;}.cls-4{fill:#fff;}</style></defs><g id="Layer_2" data-name="Layer 2"><g id="Layer_1-2" data-name="Layer 1"><path class="cls-1" d="M1,1.46a2.23,2.23,0,0,0-1,2.27,1.71,1.71,0,0,0,1.11,1,4.09,4.09,0,0,0,1.52.1,15.2,15.2,0,0,0,1.78-.23A5.55,5.55,0,0,0,6.14,4,2.12,2.12,0,0,0,5.61.14C4.23-.36,2.06.59,1,1.46Z"/><path class="cls-1" d="M25.19,2.16a2.24,2.24,0,0,1,1,2.27A1.7,1.7,0,0,1,25,5.4a4.27,4.27,0,0,1-1.51.11,17.32,17.32,0,0,1-1.78-.24,5.46,5.46,0,0,1-1.65-.56A2.11,2.11,0,0,1,20.62.84C22,.34,24.16,1.29,25.19,2.16Z"/><path class="cls-1" d="M19.61,7.76a2.37,2.37,0,0,0,3.23,3.4,1.21,1.21,0,0,0,.4-.38A2.37,2.37,0,0,0,20,7.38,1.41,1.41,0,0,0,19.61,7.76Z"/><path class="cls-1" d="M2.4,7.33a2.37,2.37,0,0,0,3.23,3.4,1.21,1.21,0,0,0,.4-.38A2.37,2.37,0,0,0,2.8,7,1.32,1.32,0,0,0,2.4,7.33Z"/><path class="cls-1" d="M19.89,18.32a14.9,14.9,0,0,1-5.81,1.33,29.9,29.9,0,0,1-3.14,0c-1,0-2-.08-3-.22a11.62,11.62,0,0,1-1.43-.27c-.27-.08-.66-.19-.8-.47a.06.06,0,0,0,0-.07l-.07-.06a.12.12,0,0,0-.17.11c.08.62,1.09.74,1.58.84H7a3.51,3.51,0,0,1,.88,1A15.73,15.73,0,0,1,8.77,22a6.19,6.19,0,0,0,2.72,3,4.34,4.34,0,0,0,3.82,0,6.61,6.61,0,0,0,2.54-2.87,14.84,14.84,0,0,0,.79-1.78,3.48,3.48,0,0,1,1.08-1.7l.05-.06.15-.07C20,18.44,20,18.25,19.89,18.32Z"/><path class="cls-2" d="M18,21.3a10.13,10.13,0,0,1-.9,1.65,5.5,5.5,0,0,1-1.33,1.51,4,4,0,0,1-4,.41,6.06,6.06,0,0,1-2.82-3,12.14,12.14,0,0,0-1-1.68,3.62,3.62,0,0,0-.6-.64,23,23,0,0,0,2.75.25c1.1.05,2.2.1,3.3.06a26.35,26.35,0,0,0,3.19-.34,12.47,12.47,0,0,0,2.54-.72A8.06,8.06,0,0,0,18,21.3Z"/><path class="cls-3" d="M14.93,22.68a9.9,9.9,0,0,0-1.69,1.19,4,4,0,0,0-1,1.16,3.92,3.92,0,0,0,3.52-.57A5.5,5.5,0,0,0,17.08,23a10,10,0,0,0,.73-1.27A8.81,8.81,0,0,0,14.93,22.68Z"/><path class="cls-4" d="M10.25,21.27a4.88,4.88,0,0,0,2.53.44,10.71,10.71,0,0,0,2.75-.47,10.42,10.42,0,0,0,3-1.45,3.46,3.46,0,0,1,.61-1,12.47,12.47,0,0,1-2.54.72,26.35,26.35,0,0,1-3.19.34c-1.1,0-2.2,0-3.3-.06-.44,0-.89,0-1.33-.08A3.39,3.39,0,0,0,10.25,21.27Z"/><path class="cls-1" d="M17,25.63c-.39.28-.73.63-1.14.88a3.49,3.49,0,0,1-1.53.49,3.44,3.44,0,0,1-1.52-.26A3.59,3.59,0,0,1,11.48,26s-.08,0-.06.05a3.07,3.07,0,0,0,1.2.94,3.29,3.29,0,0,0,1.57.3,4,4,0,0,0,1.61-.48,3.28,3.28,0,0,0,1.26-1C17.12,25.65,17,25.57,17,25.63Z"/></g></g></svg>