<svg xmlns="http://www.w3.org/2000/svg" viewBox="0 0 143.36 163"><defs><style>.cls-1{fill:#e4ebff;}.cls-2{fill:#18104f;}.cls-3{fill:#d15aa6;}.cls-4{fill:#28263f;}.cls-5{fill:#eaa7ca;}.cls-6{fill:#e089b7;}.cls-7{fill:#004393;}.cls-8{fill:#ffa4cf;}</style></defs><g id="Layer_2" data-name="Layer 2"><g id="Layer_1-2" data-name="Layer 1"><path class="cls-1" d="M134.88,76.16l-.39-.67c-5.31-9.15-12.94-16-22.72-19.29a42.22,42.22,0,0,0-12-2.14c-6.26-.24-12.79,1.45-19.31,4.39C68.16,64,55.87,74.13,45.62,84.23c-.36,2.61-.8,5.21-1.29,7.79-2.8,14.62,7.91,29.87,7.91,29.87L41.7,163l7.23-.21h77.89s12.8-6,16.11-41.32C144.53,104.38,141.71,88.32,134.88,76.16Z"/><path class="cls-2" d="M108.17,60.56a.37.37,0,0,0-.41-.31.36.36,0,0,0-.31.41L108.91,71l-7.28-1.53a.35.35,0,0,0-.34.56l5.39,6.91c-2.82.84-21.14,6.57-29.12,17.18a.35.35,0,0,0-.06.26.36.36,0,0,0,.13.23l.11,0,.1,0a.35.35,0,0,0,.28-.14c8.51-11.33,29-17,29.25-17.07a.35.35,0,0,0,.24-.22.39.39,0,0,0-.06-.33l-5.13-6.57,6.85,1.44a.35.35,0,0,0,.41-.27v0a.33.33,0,0,0,0-.14Z"/><path class="cls-2" d="M78.53,68.41a.33.33,0,0,0,.33-.2.3.3,0,0,0-.1-.37l-5.59-4.36L82.27,59a.33.33,0,0,0,.17-.21.27.27,0,0,0,0-.25h0a.37.37,0,0,0-.48-.13l-9.5,4.71-.1.07,0,0a.27.27,0,0,0-.09.24.31.31,0,0,0,.12.23l5.24,4.09-8.31-.12h0a.34.34,0,0,0-.28.14.29.29,0,0,0,0,.31c0,.12,5.5,12.55,5.3,23.54v.14h.13c.18,0,.2-.23.23-.45a1.37,1.37,0,0,1,0-.25h.07v-.1c.16-9.88-3.93-20.25-4.94-22.65Z"/><path class="cls-2" d="M70.34,119.86c.8-4.48,2.84-14.79,3.75-19.25.5-2.45,1-4.9,1.56-7.34s1-4.9,1.56-7.34c.08-.34-.43-.52-.51-.17-.55,2.16-1.1,4.31-1.6,6.49s-1,4.35-1.42,6.54c-.92,4.35-1.76,8.73-2.56,13.11l-1.26,7C70.11,119,70.09,119.78,70.34,119.86Z"/><path class="cls-3" d="M111.77,56.2,92.38,78.32,91.8,79,73.93,99.37c-.62-3.51,1.19-14.48,3.15-24.55.08-.39.16-.78.23-1.17,1.22-6.19,2.47-11.92,3.2-15.2,6.52-2.94,13-4.63,19.31-4.39A42.22,42.22,0,0,1,111.77,56.2Z"/><path class="cls-4" d="M97.83,25.26a20.15,20.15,0,0,0,2.52-2.7,6.66,6.66,0,0,1,3-2.14,2.91,2.91,0,0,1,3.28,1,11.38,11.38,0,0,1,16.17,10.62,9,9,0,0,1,4.43,6.61,14.21,14.21,0,0,1-1.35,8,14.39,14.39,0,0,1-6.37,7,9.32,9.32,0,0,1-9.18-.33,7.31,7.31,0,0,1-7.14,2.89,13.26,13.26,0,0,1-7.05-3.79,20.22,20.22,0,0,1-6.34-12.68A16.5,16.5,0,0,1,94.49,26.6Z"/><path class="cls-5" d="M55.38,25.71a66.53,66.53,0,0,0,2.4,10c1.13,3.75,2.36,7.48,3.38,11.26A10.32,10.32,0,0,0,73.3,54.39l4.32-.84,0,.09.91,4.51.34,1.68,1.52,7.5S82.1,68.72,86,68.77a17.23,17.23,0,0,0,12.15-5l6.72-6.51L98.8,40c6.07-2.15,9-9,5-13.66-2.59-3.06-5.65-1.78-7.74-.2a20.93,20.93,0,0,0-38.85-14C55,16.32,54.73,21,55.38,25.71Z"/><path class="cls-4" d="M104.2,26.5a3.9,3.9,0,0,0-2.31-1.17,7.25,7.25,0,0,0-5.68,1.59,10.26,10.26,0,0,0-3.27,5,6,6,0,0,1-2.33-4.82,22.62,22.62,0,0,1-11.4-10.69C76.87,11.66,74.53,5.79,75.89.64c3.7,0,9.28-1.11,12.91-.41S96,3.62,98.65,6.18a18.8,18.8,0,0,1,5,9.35C104.53,19,104.26,22.91,104.2,26.5Z"/><path class="cls-4" d="M73.91,8.47a36.89,36.89,0,0,0-2,5.79c-.65,1.93-1.7,3.89-3.51,4.83a3.41,3.41,0,0,1-1.64.44,2.91,2.91,0,0,1-2.66-2.16,10.31,10.31,0,0,1-4,4.53c-1.76,1.05-4.11,1.51-5.81.36a5.75,5.75,0,0,1-2.14-4.37c-1.89.8-4.22-.66-4.74-2.64a5.56,5.56,0,0,1,2-5.46A11.23,11.23,0,0,1,55.1,7.57a5.76,5.76,0,0,1,2.6-5.42,12,12,0,0,1,6-1.82c4.57-.36,9.15.44,13.73.3C79.37.58,81.3.35,83.24.37A2.89,2.89,0,0,1,85.36,1c.73.72.57,1.91.36,2.92a2.44,2.44,0,0,1-.62,1.38,2.3,2.3,0,0,1-1.53.41C81.8,5.7,80,5,78.31,5.11,76.39,5.2,74.75,6.88,73.91,8.47Z"/><path class="cls-6" d="M78.55,58.15c11.24-3.59,13.11-9,13.11-9a60.56,60.56,0,0,1-14,4.53Z"/><path class="cls-2" d="M97.62,36.69h0a.3.3,0,0,0,.18-.39,11,11,0,0,1-.33-6.58,7.41,7.41,0,0,1,1.58-3.12,4.35,4.35,0,0,1,3-1.5.29.29,0,0,0,.29-.31.3.3,0,0,0-.31-.29,5,5,0,0,0-3.41,1.7,7.87,7.87,0,0,0-1.72,3.36,11.62,11.62,0,0,0,.35,7A.3.3,0,0,0,97.62,36.69Z"/><path class="cls-2" d="M71,39.85a.39.39,0,0,0,.22-.23.4.4,0,0,0-.23-.5,4,4,0,0,1-1.64-1.18c-.36-.48-.29-2.12-.24-3.32a17.82,17.82,0,0,0,0-2.06C69,31,67,27.62,66.88,27.47a.39.39,0,0,0-.68.4,19.46,19.46,0,0,1,2.15,4.77,15.8,15.8,0,0,1,0,1.94c-.07,1.54-.14,3.13.39,3.83a4.88,4.88,0,0,0,2,1.45A.39.39,0,0,0,71,39.85Z"/><path class="cls-2" d="M71.47,113.47c-.44,2.46-.85,4.93-1.28,7.39s-.87,4.93-1.27,7.4q-2.17,13.16-3.67,26.42-.45,4-.83,8.09h-.8c.31-3.26.66-6.52,1-9.77q.78-6.69,1.72-13.35t2.06-13.2c.38-2.2.77-4.39,1.17-6.59s.89-4.37,1.35-6.55C71,113,71.53,113.13,71.47,113.47Z"/><path class="cls-7" d="M46.07,85.39,66.69,59.11a1.08,1.08,0,0,0-.18-1.51h0a1.08,1.08,0,0,0-1.51.19l-20.26,26Z"/><path class="cls-8" d="M29,81.52s4.52-9.9,8.68-9.6A4.25,4.25,0,0,1,42.79,70s1.16-3.51,4.39-2.13c0,0,1.4-2.83,3.9-1.8s6.25,8.42,4.35,10-4.14-1.51-4.14-1.51-.37,4.66-4.32,3.74c0,0-2.6,3.06-4.63.74,0,0,.61,3.58-2.23,2.68-1.18-.38-2.44-3-2.44-3Z"/><path class="cls-2" d="M54.25,76.94a2.38,2.38,0,0,1-.65,0,5.54,5.54,0,0,1-3-2.25.4.4,0,0,1,.11-.55.39.39,0,0,1,.54.11,4.79,4.79,0,0,0,2.49,1.91,1.85,1.85,0,0,0,1.46-.37c.52-.38.46-1.25.33-1.92-.59-2.86-3.72-7.18-5.11-7.5-1.81-.42-2.85,1.65-2.89,1.74a.39.39,0,0,1-.71-.34c.46-.95,1.84-2.62,3.78-2.17s5.07,5.05,5.7,8.11c.33,1.62-.16,2.37-.64,2.72A2.63,2.63,0,0,1,54.25,76.94Z"/><path class="cls-2" d="M47.33,78.7a1.45,1.45,0,0,1-.43,0,.4.4,0,0,1-.32-.45.39.39,0,0,1,.46-.32,5,5,0,0,0,2.63-.85,2,2,0,0,0,.87-1.23c.27-1.62-1.34-4.17-2.3-5.7L48,69.8c-1-1.57-1.56-2-3.06-1.6a2.58,2.58,0,0,0-1.78,1.91.39.39,0,1,1-.77-.14,3.36,3.36,0,0,1,2.34-2.53c2-.54,2.87.23,3.94,1.94l.21.34C50,71.45,51.64,74.06,51.32,76a2.72,2.72,0,0,1-1.2,1.74A6,6,0,0,1,47.33,78.7Z"/><path class="cls-2" d="M44.52,80.27a2.37,2.37,0,0,1-2.3-1.17.4.4,0,0,1,.19-.53.39.39,0,0,1,.52.19c.07.12.67,1.2,2.48.49a1.09,1.09,0,0,0,.64-.71c.48-1.33-.31-3.89-1.06-5.21-.47-.85-2.23-3.57-4.56-3.13A2.92,2.92,0,0,0,38.06,72a.39.39,0,0,1-.48.27.4.4,0,0,1-.27-.49,3.67,3.67,0,0,1,3-2.38c2.88-.53,4.86,2.55,5.4,3.51.81,1.45,1.7,4.22,1.11,5.87A1.89,1.89,0,0,1,45.7,80,4.25,4.25,0,0,1,44.52,80.27Z"/><path class="cls-2" d="M41,82a1.94,1.94,0,0,1-.74-.1c-1.85-.61-3.43-3.91-3.5-4a.39.39,0,0,1,.71-.34c.41.87,1.77,3.22,3,3.64a1,1,0,0,0,.83,0c1.13-.61.87-2.5.24-4.08-1-2.4-2.58-5.17-4.91-4.71s-6,6.94-7.29,9.41a.39.39,0,1,1-.7-.36c.49-.94,4.86-9.24,7.84-9.82,1.58-.31,3.86.34,5.79,5.19,1,2.42.73,4.35-.6,5.06A1.87,1.87,0,0,1,41,82Z"/><polygon class="cls-2" points="0 66.34 52.63 74.36 74.31 139.64 22.89 131.81 0 66.34"/><path class="cls-5" d="M92.76,133.36,86,133.25s-13.61-12.36-16.57-12.58c-.3,0-.82-.07-1.51-.13-2.23-.21-6.28-.61-10.52-.93l-.35,0c-.12,0-.25,0-.38,0-7-.53-14.28-.81-14.59.3-.49,1.74,7.4,5.17,9.67,6.12l.59.24s-3,1.64-2.41,4c.49,1.85,3.19,3,4.3,3.47a1.63,1.63,0,0,1,.23.07,1.8,1.8,0,0,0,.26.09l-.21.33a2.1,2.1,0,0,0-.18.34,5.09,5.09,0,0,0-.39.84,4.06,4.06,0,0,0-.25,1.17,1.88,1.88,0,0,0,0,.41,4.07,4.07,0,0,0,.08.61,2.69,2.69,0,0,0,.39.87,3.45,3.45,0,0,0,.86.84,1.36,1.36,0,0,0-.22.29c-.31.56-.67,2,1.5,4.27.75.8,2.86,1.91,5.59,3.13l27.71,4.27C90.92,145.26,92.33,139.42,92.76,133.36Z"/><path class="cls-5" d="M54.57,134.17c-.73-.12-3.71-.74-4.64-3.42-1-3.06,2.18-5,2.21-5a.37.37,0,0,1,.23,0L62,126.86a.35.35,0,0,1,.31.41.35.35,0,0,1-.4.31l-9.5-1.16c-.5.32-2.57,1.84-1.79,4.09.88,2.56,4.15,3,4.18,3a.36.36,0,0,1,.32.4.36.36,0,0,1-.4.32Z"/><path class="cls-5" d="M55,139.59a.24.24,0,0,1-.14-.05,3.33,3.33,0,0,1-1.58-2.24,5.51,5.51,0,0,1,1.1-3.77.35.35,0,0,1,.31-.14l7,.42a.37.37,0,0,1,.34.38.37.37,0,0,1-.39.34l-6.84-.41a4.67,4.67,0,0,0-.86,3.06,2.59,2.59,0,0,0,1.2,1.71L62.84,140a.36.36,0,0,1-.11.72L55,139.59Z"/><path class="cls-2" d="M132.69,132.26q-7.8-.39-15.63-.51a183.11,183.11,0,0,0-1.46-33.34c-.06-.46-.76-.27-.7.19a181.81,181.81,0,0,1,1.44,33.14q-11.39-.15-22.78.26l-.73,0h0c0,.24-.07.49-.12.73q-1.94,11.3-4.37,22.49c-.06.24-.11.47-.16.7l.72.11a324.36,324.36,0,0,0,38.5,3.38.36.36,0,0,0,0-.72,325.69,325.69,0,0,1-38.34-3.36q2.43-11.26,4.39-22.62,11.43-.42,22.87-.26H117c5.22.08,10.45.25,15.66.5C133.16,133,133.16,132.28,132.69,132.26Z"/></g></g></svg>