<svg xmlns="http://www.w3.org/2000/svg" viewBox="0 0 53.09 93.42"><defs><style>.cls-1{fill:#53317d;}.cls-2{fill:#31115a;}.cls-3{fill:#dcd4ff;}.cls-4{fill:#d1c0ff;}.cls-5{fill:#654696;}</style></defs><g id="Layer_2" data-name="Layer 2"><g id="Layer_1-2" data-name="Layer 1"><path class="cls-1" d="M20.16,38.69s-3.89-2.42-5.49,2.78c-1.49,4.83-4.51,16,4.63,23.2a11,11,0,0,0,8.94,1.86l.82-.47-.49,1,7.19,10.92A2.12,2.12,0,0,1,36,79.79a2.17,2.17,0,0,1-2.5,1.47c-6.64-1.34-18.31-5.5-23.41-18.44-7.33-18.63,4-33.95,4-33.95Z"/><rect class="cls-2" x="4.65" y="1.99" width="7.13" height="15.53" transform="translate(20.32 13.78) rotate(148.52)"/><polygon class="cls-2" points="24.97 37.12 28.78 34.72 31.31 39.66 27.83 41.79 24.35 43.92 21.09 39.42 24.97 37.12"/><rect class="cls-3" x="14.08" y="15.97" width="9.84" height="22.81" transform="translate(49.5 40.8) rotate(148.52)"/><rect class="cls-1" x="19.97" y="36.46" width="9.84" height="1.06" transform="translate(65.44 55.55) rotate(148.52)"/><polygon class="cls-1" points="8.85 20.22 17.25 15.08 15.14 13.62 8.5 17.68 8.85 20.22"/><polygon class="cls-1" points="7.04 0 0 4.31 1.07 5.03 7.19 1.28 7.04 0"/><rect class="cls-1" x="7.66" y="14.65" width="7.78" height="1.08" transform="translate(29.33 22.11) rotate(148.52)"/><polygon class="cls-2" points="32.03 43.89 34.65 42.56 34.54 43.32 31.12 45.41 30.38 45.17 32.03 43.89"/><rect class="cls-2" x="29.85" y="43.28" width="5.02" height="0.63" transform="translate(82.72 63.87) rotate(148.52)"/><rect class="cls-1" x="32.56" y="43.87" width="4.02" height="6.66" transform="translate(88.7 69.41) rotate(148.52)"/><path class="cls-4" d="M33.92,50.17H34A17.27,17.27,0,0,0,37.46,48a.19.19,0,0,0,0-.27.18.18,0,0,0-.27,0,18.08,18.08,0,0,1-3.37,2.07.18.18,0,0,0-.11.24A.18.18,0,0,0,33.92,50.17Z"/><polygon class="cls-2" points="36.26 40.33 38.18 38.1 38.37 38.84 35.99 42.09 35.22 42.15 36.26 40.33"/><rect class="cls-2" x="33.94" y="39.61" width="5.02" height="0.63" transform="translate(90.2 34.09) rotate(126.19)"/><rect class="cls-1" x="37.86" y="39.1" width="4.02" height="6.66" transform="translate(97.65 35.31) rotate(126.19)"/><path class="cls-4" d="M40.32,45.44a.19.19,0,0,0,.13,0,17.15,17.15,0,0,0,2.41-3.29.19.19,0,0,0-.07-.26.19.19,0,0,0-.26.07,17.69,17.69,0,0,1-2.34,3.2.19.19,0,0,0,0,.27A.2.2,0,0,0,40.32,45.44Z"/><polygon class="cls-2" points="27.67 45.59 24.82 46.28 25.39 46.79 29.36 46.15 29.76 45.49 27.67 45.59"/><rect class="cls-2" x="24.72" y="45.26" width="5.02" height="0.63" transform="translate(-6.9 4.91) rotate(-9.15)"/><rect class="cls-1" x="25.89" y="46.43" width="4.02" height="6.66" transform="translate(-7.56 5.07) rotate(-9.15)"/><path class="cls-4" d="M26.24,52.27h0a17,17,0,0,0,4-.65.19.19,0,0,0,.12-.24.19.19,0,0,0-.24-.12,17.32,17.32,0,0,1-3.92.63.19.19,0,0,0-.18.2A.19.19,0,0,0,26.24,52.27Z"/><path class="cls-1" d="M23.22,44.74,37.54,36h0a1.56,1.56,0,0,0-2.14-.51L23.74,42.61a1.54,1.54,0,0,0-.52,2.13Z"/><path class="cls-2" d="M23.22,44.74,37.54,36a1.14,1.14,0,0,1,.81,1.32L24,46.07A1.14,1.14,0,0,1,23.22,44.74Z"/><path class="cls-1" d="M38.35,37.3s-.52,3.07-5.93,6.38S24,46.07,24,46.07Z"/><path class="cls-2" d="M9.9,31.91a5.27,5.27,0,1,0,1.75-7.25A5.28,5.28,0,0,0,9.9,31.91Z"/><path class="cls-5" d="M11.4,31a3.51,3.51,0,1,0,1.16-4.83A3.5,3.5,0,0,0,11.4,31Z"/><path class="cls-2" d="M13.65,29.62a.88.88,0,1,0,.29-1.22A.89.89,0,0,0,13.65,29.62Z"/><path class="cls-1" d="M53.09,87v6.4H8.87V87a1.6,1.6,0,0,1,.34-1,1.08,1.08,0,0,1,.83-.42H51.92a1.13,1.13,0,0,1,1,.67A1.58,1.58,0,0,1,53.09,87Z"/><path class="cls-1" d="M33.54,63.46,32,60.81l13-7.34L46,55.12a1.14,1.14,0,0,1-.43,1.57l-5.3,3,2.24,3.93A1.16,1.16,0,0,1,42,65.22l-12.22,7L27,67.24Z"/><rect class="cls-2" x="35.64" y="44.56" width="2.3" height="24.53" transform="translate(5.61 116.91) rotate(-119.64)"/><path class="cls-3" d="M42.69,85.6h0a4.9,4.9,0,0,0-4.3-4.87l-7.08-.88s1.31-10.63-4.3-11c-6.54-.47-7.4,10-7.4,10s-8.29.53-8.29,6.81Z"/><circle class="cls-2" cx="26.05" cy="72.93" r="5.27" transform="translate(-51.36 75.2) rotate(-72.03)"/><path class="cls-5" d="M23.05,74.76a3.51,3.51,0,1,0,1.17-4.83A3.52,3.52,0,0,0,23.05,74.76Z"/><path class="cls-2" d="M25.3,73.39a.88.88,0,1,0,1.5-.92.87.87,0,0,0-1.21-.29A.89.89,0,0,0,25.3,73.39Z"/></g></g></svg>