<svg xmlns="http://www.w3.org/2000/svg" viewBox="0 0 138.23 27.05"><defs><style>.cls-1{fill:#531a4a;}</style></defs><g id="Layer_2" data-name="Layer 2"><g id="Layer_1-2" data-name="Layer 1"><path class="cls-1" d="M6.57.43l6,19.23,6-19.23h6.28L16,26.58H8.8L0,.43Z"/><path class="cls-1" d="M31.46.43h6.78l9.88,26.15H41.41l-1.59-4.65H29.72l-1.55,4.65H21.61Zm0,16.49h6.75L34.81,7Z"/><path class="cls-1" d="M56.49,26.58H50.32V.43h6.17Z"/><path class="cls-1" d="M61.22.43H72.61c5.74,0,10,1.3,10,6.78a6.07,6.07,0,0,1-3.11,5.45,5.79,5.79,0,0,1,4.15,5.88c0,5.88-4.22,8-10.57,8H61.22Zm6.16,10.46h5.45c2.17,0,3.36-1,3.36-2.67S75,5.63,72.83,5.63H67.38Zm0,10.5h5.78c2.63,0,4-1.12,4-3s-1.33-3-4-3H67.38Z"/><path class="cls-1" d="M97.32,16.74H93.14v9.84H87V.43H97C103.82.43,108.9,2,108.9,8.51c0,3.86-2.12,6.06-5.12,7.22l6.46,10.85H103ZM93.14,5.63v5.91h4.08c2.92,0,5.15-.47,5.15-3s-2.23-2.95-5.15-2.95Z"/><path class="cls-1" d="M124.67,27.05c-8,0-13.57-5.37-13.57-13.52S116.62,0,124.67,0s13.56,5.38,13.56,13.53S132.67,27.05,124.67,27.05Zm0-5.08c3.86,0,7-2.89,7-8.44s-3.17-8.44-7-8.44-7,2.88-7,8.44S120.81,22,124.67,22Z"/></g></g></svg>