<svg xmlns="http://www.w3.org/2000/svg" viewBox="0 0 171.68 20.07"><defs><style>.cls-1{fill:#fff;}</style></defs><g id="Layer_2" data-name="Layer 2"><g id="Layer_1-2" data-name="Layer 1"><path class="cls-1" d="M0,14.92,2.86.23H6.68c4.76,0,8.42,2.11,7.39,7.38S8.63,14.92,3.83,14.92Zm4-.73c3.91,0,6.15-3,6.83-6.58S10.39,1,6.54,1H5.65a2,2,0,0,0-.31.85L3.1,13.33a1.4,1.4,0,0,0,0,.86Z"/><path class="cls-1" d="M21.29,14.92,21.66,13a6.09,6.09,0,0,1-3.93,2.16c-1.94,0-2.57-1.39-2.21-3.21l1.09-5.61c.13-.62-.53-.6-1-.64l.06-.31,4-.41-1.32,6.8c-.18,1,0,1.7,1.08,1.7a3.78,3.78,0,0,0,2.33-1.06l1.1-5.58c.21-1.08-.19-1-1.1-1.14l.07-.29L26,5l-1.93,9.91Z"/><path class="cls-1" d="M27.14,14.92l1.64-8.4c.2-1.1-.17-1.06-1.1-1.16l.06-.29,4.18-.41-.43,2.27c.93-1,2.63-2.27,4.07-2.27A1.94,1.94,0,0,1,36.68,5L35.44,8.23C35,7.12,34.32,6.54,33.49,6.54a3.39,3.39,0,0,0-2.13,1l-1.42,7.35Z"/><path class="cls-1" d="M37.09,7.2a6.18,6.18,0,0,1,5.13-2.42c2.11,0,3.87.83,3.46,3l-1.39,7.1H41.52l.23-1.18a6.83,6.83,0,0,1-3.54,1.36c-1.59,0-2.83-.82-2.46-2.77.56-2.85,5-3.58,7-3.72l.15-.71c.24-1.26.47-2.4-.71-2.5s-2.52,1-3.1,2.94ZM42.66,9c-1.18.1-3.7.58-4.08,3.06-.16,1.08.42,1.78,1.29,1.78a3.91,3.91,0,0,0,2-.64Z"/><path class="cls-1" d="M49.42,1.53c.08-.48-.39-.7-.74-.83l0-.29L52.5,0,51.26,6.43a4.72,4.72,0,0,1,3.33-1.65c2.65,0,3.58,2.3,3.11,4.7a7,7,0,0,1-6.85,5.65c-1.35,0-2.71-.11-4-.21ZM54.62,10c.29-1.52.41-4-1.56-4a2.61,2.61,0,0,0-1.9.91l-1.22,6.33c-.19.89,0,1.43,1,1.43C53.13,14.67,54.28,11.71,54.62,10Z"/><path class="cls-1" d="M61.63,14.92h-2.8L61.34,2a3.12,3.12,0,0,0,.08-.64A.58.58,0,0,0,61.28,1a2.42,2.42,0,0,0-1-.25l.06-.29L64.52,0Z"/><path class="cls-1" d="M68.37,12.29a3.22,3.22,0,0,0,2.34,1,3.71,3.71,0,0,0,3.23-2l.14.12c-1,2.15-2.6,3.66-5,3.66a4.17,4.17,0,0,1-4.41-3.72,5.8,5.8,0,0,1,5.21-6.52l.44,0c2.91,0,3.87,1.82,3.76,4.12Zm2.8-3.54c.6-1.63-.07-3.31-1.39-3.31h-.1c-1.33.08-2.78,1-2.55,4.12a4.32,4.32,0,0,0,.93,2.4A6.5,6.5,0,0,0,71.17,8.75Z"/><path class="cls-1" d="M90.18,13.12a13.65,13.65,0,0,1-6.81,2c-3.06,0-5.3-1.47-4.49-4.13.7-2.26,3.56-3.83,5.59-4.8a4.2,4.2,0,0,1-.6-3.65A3.89,3.89,0,0,1,88.29,0c1.45.19,2.78.89,2.24,2.63a3.82,3.82,0,0,1-3,2.44l4.68,5.65a5.07,5.07,0,0,0,1.15-1.93c.15-.45.27-1.26-.33-1.34a.87.87,0,0,0-.89.58l-.93-1.72a2.22,2.22,0,0,1,2-1.4l.21,0c1.24.14,1.49,1.84,1.11,3a8.4,8.4,0,0,1-2,3.22l3,3.71H91.65ZM84.82,6.58A5.9,5.9,0,0,0,81.7,9.75c-.58,1.84,1,3.12,3.24,3.37.29,0,.58,0,.87,0a10.26,10.26,0,0,0,3.81-.75Zm2.34-1.86a4.13,4.13,0,0,0,1.47-2C89,1.59,88.79.66,87.57.52a1.57,1.57,0,0,0-1.7,1.18C85.46,3,86.5,3.91,87.16,4.72Z"/><path class="cls-1" d="M104.53,13.33a1.2,1.2,0,0,0,0,.86h2.66c2.4,0,2.8-.53,4.51-2.54l-.64,3.27h-9.68L104.29.23H114l-.6,3.06c-.81-1.7-1.55-2.36-3.81-2.34l-2.42,0a1.41,1.41,0,0,0-.37.87l-1,5.22h1.66A3.68,3.68,0,0,0,109.81,6H110l-.65,3.31h-.1s-1-1.63-2-1.63h-1.66Z"/><path class="cls-1" d="M116.43,14.92h-2.79L116.14,2a3.12,3.12,0,0,0,.08-.64.58.58,0,0,0-.14-.42,2.42,2.42,0,0,0-1-.25l.07-.29,4.2-.41Z"/><path class="cls-1" d="M123.17,12.29a3.22,3.22,0,0,0,2.34,1,3.71,3.71,0,0,0,3.23-2l.14.12c-1,2.15-2.6,3.66-5,3.66a4.17,4.17,0,0,1-4.4-3.72,5.8,5.8,0,0,1,5.21-6.52l.44,0c2.91,0,3.87,1.82,3.76,4.12ZM126,8.75c.6-1.63-.07-3.31-1.39-3.31h-.1c-1.33.08-2.78,1-2.55,4.12a4.32,4.32,0,0,0,.93,2.4A6.5,6.5,0,0,0,126,8.75Z"/><path class="cls-1" d="M139.77,4.84c.12-.62-.63-.89-1.12-.89a2.25,2.25,0,0,0-1.7.89,3,3,0,0,1,2.38,3.75c-.52,2.6-3.08,4-5.46,4a4.65,4.65,0,0,1-2.28-.52,1.25,1.25,0,0,0-.39.58.51.51,0,0,0,.25.5c1.82,1.3,7.38-.35,6.66,3.33-.45,2.36-3.27,3.62-5.81,3.62-2.38,0-4.56-1.1-4.14-3.64l2.32,0c-.4,2,.62,3,1.88,3,1.59,0,2.89-.68,3.1-1.84.29-1.64-1.86-1.55-3.18-1.7s-3.25-.39-2.92-2.13a2.59,2.59,0,0,1,2-1.88,2.93,2.93,0,0,1-1.22-3.29c.5-2.59,3.15-3.91,5.47-3.91a7.26,7.26,0,0,1,.93.06c.76-1.26,2.19-2.94,3.76-2.94a1.16,1.16,0,0,1,1.26,1.34Zm-3.21,3.81c.23-1.14.27-3.42-1.22-3.42s-2.26,2.26-2.49,3.36-.26,3.39,1.2,3.39S136.33,9.77,136.56,8.65Z"/><path class="cls-1" d="M141.85,7.2A6.18,6.18,0,0,1,147,4.78c2.11,0,3.87.83,3.46,3l-1.39,7.1h-2.77l.23-1.18A6.83,6.83,0,0,1,143,15.1c-1.59,0-2.84-.82-2.46-2.77.56-2.85,5-3.58,7-3.72l.15-.71c.24-1.26.47-2.4-.71-2.5s-2.52,1-3.1,2.94ZM147.42,9c-1.18.1-3.71.58-4.08,3.06-.16,1.08.42,1.78,1.29,1.78a3.91,3.91,0,0,0,2-.64Z"/><path class="cls-1" d="M154.91,14.92h-2.8l1.64-8.4c.21-1.1-.17-1.06-1.1-1.16l.06-.29,4.18-.41-.43,2.27a6.51,6.51,0,0,1,4.16-2.15c2,0,2.79,1.18,2.44,3l-1.39,7.14h-2.79L160.22,8c.19-1-.14-1.55-1.26-1.55a4.61,4.61,0,0,0-2.58,1Z"/><path class="cls-1" d="M170.17,13.53a4.31,4.31,0,0,1-3,1.55l-.27,0c-1.26-.12-2.17-1.2-1.77-3.2l1-5.36c.17-.83-.17-1.25-1-1.25h-.29l0-.2,4.7-3h.2L169.24,5h2.44l-.12.55h-2.44l-1.22,6.34c-.23,1.13-.13,2.07.62,2.11a2.88,2.88,0,0,0,1.57-.62Z"/></g></g></svg>