<svg xmlns="http://www.w3.org/2000/svg" viewBox="0 0 214.89 15.82"><defs><style>.cls-1{fill:#fff;}</style></defs><g id="Layer_2" data-name="Layer 2"><g id="Layer_1-2" data-name="Layer 1"><path class="cls-1" d="M5.44,10.69a3,3,0,0,1-1,.9,2.3,2.3,0,0,1-1.13.31,1.83,1.83,0,0,1-.93-.22,2,2,0,0,1-.65-.56,2.65,2.65,0,0,1-.39-.81,3.68,3.68,0,0,1-.13-.94V5.16a.85.85,0,0,0-1-1H0V4L3.23,1.71h.16V4H5.31v.44H3.39v5a4.73,4.73,0,0,0,0,.49,2.07,2.07,0,0,0,.11.55,1.15,1.15,0,0,0,.26.43.62.62,0,0,0,.46.18,2,2,0,0,0,1.09-.48Z"/><path class="cls-1" d="M10,11.94a4.49,4.49,0,0,1-1.66-.3A4.07,4.07,0,0,1,7,10.8a4.11,4.11,0,0,1-.88-1.28,4,4,0,0,1-.33-1.64,4.07,4.07,0,0,1,.33-1.66A3.83,3.83,0,0,1,8.3,4.11,4.49,4.49,0,0,1,10,3.82a4.48,4.48,0,0,1,1.65.29,3.91,3.91,0,0,1,2.21,2.11,4.06,4.06,0,0,1,.32,1.66,4,4,0,0,1-.32,1.64,4,4,0,0,1-.89,1.28,3.92,3.92,0,0,1-1.32.84A4.48,4.48,0,0,1,10,11.94Zm.86-.62a1.32,1.32,0,0,0,.84-.63A3.13,3.13,0,0,0,12,9.61,5.43,5.43,0,0,0,12,8.4a5.92,5.92,0,0,0-.17-1c-.08-.32-.17-.65-.29-1a5.15,5.15,0,0,0-.45-1,2.66,2.66,0,0,0-.66-.75,1.51,1.51,0,0,0-.92-.29A1.72,1.72,0,0,0,9,4.42,1.27,1.27,0,0,0,8.2,5a3.14,3.14,0,0,0-.37,1.08,5.43,5.43,0,0,0,0,1.21,7,7,0,0,0,.17,1,6.31,6.31,0,0,0,.32.91,5.46,5.46,0,0,0,.54,1,3.25,3.25,0,0,0,.73.79,1.39,1.39,0,0,0,.9.33A1.36,1.36,0,0,0,10.82,11.32Z"/><path class="cls-1" d="M21,11.77H18.8V1.66a2.62,2.62,0,0,0,0-.55.53.53,0,0,0-.17-.27.77.77,0,0,0-.32-.13l-.5-.08V.41L21,.08Z"/><path class="cls-1" d="M25.89,9.71a3.26,3.26,0,0,0,.93.59,2.75,2.75,0,0,0,1.06.21,2.15,2.15,0,0,0,1.37-.42,3,3,0,0,0,.86-1.17l.13.09a4.4,4.4,0,0,1-1.19,2.11,3.13,3.13,0,0,1-2.21.77,4.22,4.22,0,0,1-1.31-.21,4.44,4.44,0,0,1-1.2-.58,4.18,4.18,0,0,1-.95-.93A3.48,3.48,0,0,1,22.8,9a4.9,4.9,0,0,1-.16-2.08,3.65,3.65,0,0,1,.61-1.59,3.49,3.49,0,0,1,1.17-1,3.68,3.68,0,0,1,1.48-.41h.34a4.15,4.15,0,0,1,1.49.25,3.14,3.14,0,0,1,1.06.69,3.45,3.45,0,0,1,.69,1,4.69,4.69,0,0,1,.35,1.26Zm-.3-.26A4.88,4.88,0,0,0,27,8.23a3.06,3.06,0,0,0,.58-1.3,2.53,2.53,0,0,0,0-.95,2.45,2.45,0,0,0-.31-.82,2,2,0,0,0-.55-.6A1.25,1.25,0,0,0,26,4.34h-.08a1.87,1.87,0,0,0-.74.18,1.52,1.52,0,0,0-.58.55,2.19,2.19,0,0,0-.26,1,5.17,5.17,0,0,0,.21,1.52,3.94,3.94,0,0,0,.42,1A4.17,4.17,0,0,0,25.59,9.45Z"/><path class="cls-1" d="M34.38,11.77h-1L29.78,4H32.3a2.47,2.47,0,0,0,.15.49l.39,1,.52,1.27L33.89,8c.17.41.33.77.46,1.08s.23.52.27.62a8.7,8.7,0,0,0,.77-2.18,5.81,5.81,0,0,0,.11-1.71,3.08,3.08,0,0,0-.37-1.21A1.8,1.8,0,0,0,34.44,4h3.3v.16Z"/><path class="cls-1" d="M38.39,5.72A5,5,0,0,1,39,4.93a3.27,3.27,0,0,1,.78-.59,4,4,0,0,1,1-.39A5.36,5.36,0,0,1,42,3.82a5.25,5.25,0,0,1,1.2.13,2.94,2.94,0,0,1,1,.41,2.16,2.16,0,0,1,.7.74,2.21,2.21,0,0,1,.26,1.1v5.57H43v-.92a5.42,5.42,0,0,1-1.2.74,3.09,3.09,0,0,1-1.36.33,2.86,2.86,0,0,1-.89-.13,2.23,2.23,0,0,1-.75-.39,1.83,1.83,0,0,1-.52-.67,2.33,2.33,0,0,1-.2-1,1.85,1.85,0,0,1,.56-1.38A3.84,3.84,0,0,1,40,7.49,7.06,7.06,0,0,1,41.61,7c.56-.1,1-.17,1.42-.2V5.55a2.29,2.29,0,0,0-.1-.61,1,1,0,0,0-.28-.43.89.89,0,0,0-.54-.21,1.42,1.42,0,0,0-.7.12,1.61,1.61,0,0,0-.61.44,2.38,2.38,0,0,0-.45.73,3.83,3.83,0,0,0-.22,1ZM43,7.15a6.76,6.76,0,0,0-.82.13,3.11,3.11,0,0,0-.91.37,2.07,2.07,0,0,0-.73.71,1.92,1.92,0,0,0-.26,1.19,1.51,1.51,0,0,0,.39,1,1.17,1.17,0,0,0,.87.39,2.83,2.83,0,0,0,.71-.13,1.9,1.9,0,0,0,.75-.38Z"/><path class="cls-1" d="M51.61,10.69a3,3,0,0,1-1,.9,2.32,2.32,0,0,1-1.13.31,1.83,1.83,0,0,1-.93-.22,2,2,0,0,1-.65-.56,2.65,2.65,0,0,1-.39-.81,3.28,3.28,0,0,1-.13-.94V5.16a.85.85,0,0,0-1-1h-.23V4L49.4,1.71h.16V4h1.92v.44H49.56v5a4.73,4.73,0,0,0,0,.49,2.07,2.07,0,0,0,.11.55,1.15,1.15,0,0,0,.26.43.6.6,0,0,0,.46.18,2,2,0,0,0,1.09-.48Z"/><path class="cls-1" d="M55.29,9.71a3.45,3.45,0,0,0,.94.59,2.75,2.75,0,0,0,1.06.21,2.17,2.17,0,0,0,1.37-.42,3,3,0,0,0,.86-1.17l.13.09a4.4,4.4,0,0,1-1.19,2.11,3.13,3.13,0,0,1-2.21.77,4.22,4.22,0,0,1-1.31-.21,4.3,4.3,0,0,1-1.2-.58,4,4,0,0,1-1-.93A3.48,3.48,0,0,1,52.21,9a4.9,4.9,0,0,1-.16-2.08,3.53,3.53,0,0,1,.61-1.59,3.49,3.49,0,0,1,1.17-1,3.68,3.68,0,0,1,1.48-.41h.34a4.15,4.15,0,0,1,1.49.25,3.24,3.24,0,0,1,1.06.69,3.45,3.45,0,0,1,.69,1,4.69,4.69,0,0,1,.35,1.26ZM55,9.45a4.88,4.88,0,0,0,1.37-1.22A3.06,3.06,0,0,0,57,6.93a2.75,2.75,0,0,0,0-.95,2.45,2.45,0,0,0-.31-.82,2,2,0,0,0-.56-.6,1.19,1.19,0,0,0-.71-.22h-.08a1.87,1.87,0,0,0-.74.18,1.45,1.45,0,0,0-.58.55,2.07,2.07,0,0,0-.26,1,5.17,5.17,0,0,0,.21,1.52,3.94,3.94,0,0,0,.42,1A4.17,4.17,0,0,0,55,9.45Z"/><path class="cls-1" d="M66.5,7.76,62.72.24h2.77l3,6.69L70.66,3A2.33,2.33,0,0,0,71,1.45,1.91,1.91,0,0,0,70.25.24h2.58L68.69,7.68v4.09H66.5Z"/><path class="cls-1" d="M75.46,11.94a4.48,4.48,0,0,1-1.65-.3,4.07,4.07,0,0,1-1.33-.84,4.11,4.11,0,0,1-.88-1.28,4,4,0,0,1-.33-1.64,4.07,4.07,0,0,1,.33-1.66,3.83,3.83,0,0,1,2.21-2.11,4.87,4.87,0,0,1,3.31,0,3.91,3.91,0,0,1,2.21,2.11,4.06,4.06,0,0,1,.32,1.66,4,4,0,0,1-.32,1.64,4,4,0,0,1-.89,1.28,3.92,3.92,0,0,1-1.32.84A4.49,4.49,0,0,1,75.46,11.94Zm.87-.62a1.32,1.32,0,0,0,.84-.63,3.13,3.13,0,0,0,.36-1.08,5.43,5.43,0,0,0,0-1.21,5.92,5.92,0,0,0-.17-1c-.08-.32-.17-.65-.29-1a5.15,5.15,0,0,0-.45-1A2.66,2.66,0,0,0,76,4.64a1.51,1.51,0,0,0-.92-.29,1.72,1.72,0,0,0-.52.07,1.27,1.27,0,0,0-.83.61,3.14,3.14,0,0,0-.37,1.08,5.43,5.43,0,0,0,0,1.21,7,7,0,0,0,.17,1,6.31,6.31,0,0,0,.32.91,5.46,5.46,0,0,0,.54,1,3.25,3.25,0,0,0,.73.79,1.39,1.39,0,0,0,.9.33A1.36,1.36,0,0,0,76.33,11.32Z"/><path class="cls-1" d="M86.18,11.77V10.28a3.65,3.65,0,0,1-.53.62,4.48,4.48,0,0,1-.68.54,3.86,3.86,0,0,1-.76.38,2.25,2.25,0,0,1-.79.15,2.33,2.33,0,0,1-1-.2,2,2,0,0,1-.7-.52,2.15,2.15,0,0,1-.4-.8,3.56,3.56,0,0,1-.13-1V5.05a.47.47,0,0,0-.08-.28.55.55,0,0,0-.22-.14,1.15,1.15,0,0,0-.28-.06l-.3,0V4.3L83.39,4V9.32a1.74,1.74,0,0,0,.24.95.93.93,0,0,0,.86.38,2,2,0,0,0,.93-.24,2.67,2.67,0,0,0,.76-.59V5.44A1.93,1.93,0,0,0,86.13,5a.42.42,0,0,0-.19-.24,1,1,0,0,0-.33-.11l-.47,0V4.32L88.38,4v7.77Z"/><path class="cls-1" d="M90.78,11.77V5.18a1.61,1.61,0,0,0-.06-.5.52.52,0,0,0-.18-.25.71.71,0,0,0-.32-.1l-.48-.06V4L93,3.72V5.5a4.75,4.75,0,0,1,.53-.62,5.57,5.57,0,0,1,.69-.58A4,4,0,0,1,95,3.88a2.19,2.19,0,0,1,.83-.16,1.88,1.88,0,0,1,.94.26l-.48,2.55c-.53-.89-1.13-1.33-1.79-1.33A2.1,2.1,0,0,0,93,6v5.76Z"/><path class="cls-1" d="M100.41,6a6.1,6.1,0,0,1,.45-2.37,5.83,5.83,0,0,1,1.25-1.88A5.83,5.83,0,0,1,104,.53a6.26,6.26,0,0,1,2.38-.45,6.1,6.1,0,0,1,2.37.45,5.83,5.83,0,0,1,1.89,1.23,5.68,5.68,0,0,1,1.25,1.88A6.1,6.1,0,0,1,112.34,6a6.09,6.09,0,0,1-.45,2.36,5.78,5.78,0,0,1-1.25,1.88,5.7,5.7,0,0,1-1.89,1.24,6.47,6.47,0,0,1-4.74,0,5.91,5.91,0,0,1-1.89-1.24,5.81,5.81,0,0,1-1.26-1.88A6.09,6.09,0,0,1,100.41,6Zm3,1.33a9.06,9.06,0,0,0,.89,1.57,6.7,6.7,0,0,0,1,1.17,4.4,4.4,0,0,0,1.16.75,2.91,2.91,0,0,0,1.16.26,2.36,2.36,0,0,0,.94-.19,2.27,2.27,0,0,0,1-.9,3.63,3.63,0,0,0,.51-1.44A6.37,6.37,0,0,0,110,6.73a8.61,8.61,0,0,0-.64-2.05,9.16,9.16,0,0,0-.89-1.58,6.78,6.78,0,0,0-1-1.18,4.52,4.52,0,0,0-1.15-.75,2.86,2.86,0,0,0-1.15-.26,2.26,2.26,0,0,0-.94.19,2.35,2.35,0,0,0-1,.91,3.52,3.52,0,0,0-.5,1.45,6,6,0,0,0,0,1.83A8.61,8.61,0,0,0,103.36,7.34Z"/><path class="cls-1" d="M119.13,11.77V10.28a4.17,4.17,0,0,1-.53.62,4.48,4.48,0,0,1-.68.54,3.86,3.86,0,0,1-.76.38,2.25,2.25,0,0,1-.79.15,2.33,2.33,0,0,1-1-.2,2,2,0,0,1-.7-.52,2.15,2.15,0,0,1-.4-.8,3.56,3.56,0,0,1-.13-1V5.05a.41.41,0,0,0-.09-.28.46.46,0,0,0-.21-.14,1.15,1.15,0,0,0-.28-.06l-.3,0V4.3L116.34,4V9.32a1.74,1.74,0,0,0,.24.95.93.93,0,0,0,.86.38,2,2,0,0,0,.93-.24,2.67,2.67,0,0,0,.76-.59V5.44a1.93,1.93,0,0,0,0-.49.47.47,0,0,0-.19-.24,1,1,0,0,0-.33-.11l-.47,0V4.32L121.32,4v7.77Z"/><path class="cls-1" d="M127.75,10.69a2.92,2.92,0,0,1-1,.9,2.33,2.33,0,0,1-1.14.31,1.79,1.79,0,0,1-.92-.22,2,2,0,0,1-.65-.56,2.26,2.26,0,0,1-.39-.81,3.28,3.28,0,0,1-.13-.94V5.16a.86.86,0,0,0-1-1h-.23V4l3.24-2.32h.16V4h1.92v.44h-1.92v5c0,.14,0,.3,0,.49a2.57,2.57,0,0,0,.12.55,1,1,0,0,0,.26.43.59.59,0,0,0,.46.18,2,2,0,0,0,1.09-.48Z"/><path class="cls-1" d="M135,11.16a1.51,1.51,0,0,0-.73-.2,2,2,0,0,0-1.15.46,3.94,3.94,0,0,1-.74.37,2.13,2.13,0,0,1-.79.15,2.74,2.74,0,0,1-1.37-.35,3.28,3.28,0,0,1-1-.88,3.77,3.77,0,0,1-.63-1.23,4.33,4.33,0,0,1-.22-1.38,4.66,4.66,0,0,1,.27-1.56,4.21,4.21,0,0,1,.76-1.38,4,4,0,0,1,1.19-1,3.27,3.27,0,0,1,1.56-.37,3.6,3.6,0,0,1,1,.14,3,3,0,0,1,.86.42V1.51a1.5,1.5,0,0,0-.06-.49.49.49,0,0,0-.18-.24,1,1,0,0,0-.33-.11l-.47-.05V.39L136.1.06V11.77Zm-1-6.4a1.54,1.54,0,0,0-.58-.27,2.73,2.73,0,0,0-.64-.07,1.69,1.69,0,0,0-1,.32,2.54,2.54,0,0,0-.68.81,3.76,3.76,0,0,0-.37,1.07,5.25,5.25,0,0,0-.12,1.08,5.74,5.74,0,0,0,.11,1,4.18,4.18,0,0,0,.34,1.07,2.44,2.44,0,0,0,.63.84,1.52,1.52,0,0,0,1,.33,1.45,1.45,0,0,0,.74-.23,3.29,3.29,0,0,0,.62-.5Z"/><path class="cls-1" d="M142,11.94a4.49,4.49,0,0,1-1.66-.3,3.91,3.91,0,0,1-2.2-2.12,4,4,0,0,1-.33-1.64,4.07,4.07,0,0,1,.33-1.66,3.85,3.85,0,0,1,2.2-2.11,4.9,4.9,0,0,1,3.32,0,3.85,3.85,0,0,1,2.2,2.11,4.07,4.07,0,0,1,.33,1.66,4,4,0,0,1-.33,1.64,3.91,3.91,0,0,1-2.2,2.12A4.49,4.49,0,0,1,142,11.94Zm.86-.62a1.34,1.34,0,0,0,.85-.63A2.92,2.92,0,0,0,144,9.61a5.43,5.43,0,0,0,0-1.21,7,7,0,0,0-.17-1q-.12-.48-.3-1a5.13,5.13,0,0,0-.44-1,2.66,2.66,0,0,0-.66-.75,1.54,1.54,0,0,0-.93-.29,1.81,1.81,0,0,0-.52.07,1.28,1.28,0,0,0-.82.61,2.94,2.94,0,0,0-.37,1.08,4.89,4.89,0,0,0,0,1.21,5.92,5.92,0,0,0,.17,1,5.29,5.29,0,0,0,.32.91,4.86,4.86,0,0,0,.53,1,3.46,3.46,0,0,0,.73.79,1.43,1.43,0,0,0,.9.33A1.36,1.36,0,0,0,142.84,11.32Z"/><path class="cls-1" d="M151.3,11.94a4.53,4.53,0,0,1-1.66-.3,4.13,4.13,0,0,1-1.32-.84,4,4,0,0,1-.88-1.28,4,4,0,0,1-.33-1.64,4.07,4.07,0,0,1,.33-1.66,3.75,3.75,0,0,1,.88-1.28,3.94,3.94,0,0,1,1.32-.83,4.9,4.9,0,0,1,3.32,0,3.91,3.91,0,0,1,2.21,2.11,4.41,4.41,0,0,1,0,3.3,4,4,0,0,1-.89,1.28,3.92,3.92,0,0,1-1.32.84A4.49,4.49,0,0,1,151.3,11.94Zm.86-.62a1.34,1.34,0,0,0,.85-.63,2.92,2.92,0,0,0,.35-1.08,4.89,4.89,0,0,0,0-1.21,7,7,0,0,0-.17-1c-.08-.32-.18-.65-.29-1a5.15,5.15,0,0,0-.45-1,2.66,2.66,0,0,0-.66-.75,1.53,1.53,0,0,0-.92-.29,1.72,1.72,0,0,0-.52.07,1.27,1.27,0,0,0-.83.61,2.94,2.94,0,0,0-.37,1.08,4.89,4.89,0,0,0,0,1.21,5.92,5.92,0,0,0,.17,1,5.29,5.29,0,0,0,.32.91,4.86,4.86,0,0,0,.53,1,3.46,3.46,0,0,0,.73.79,1.43,1.43,0,0,0,.9.33A1.36,1.36,0,0,0,152.16,11.32Z"/><path class="cls-1" d="M157.23,11.77V5.18a1.61,1.61,0,0,0-.06-.5.47.47,0,0,0-.18-.25.71.71,0,0,0-.32-.1l-.48-.06V4l3.23-.32V5.5a4.75,4.75,0,0,1,.53-.62,5.57,5.57,0,0,1,.69-.58,4,4,0,0,1,.79-.42,2.19,2.19,0,0,1,.83-.16,1.94,1.94,0,0,1,1,.26l-.49,2.55c-.53-.89-1.13-1.33-1.79-1.33a2.1,2.1,0,0,0-1.51.81v5.76Z"/><path class="cls-1" d="M167.46,11.77V.24h2.19V10.52a2.77,2.77,0,0,0,0,.39.49.49,0,0,0,.15.34h1.27a4.12,4.12,0,0,0,2.25-.54A4,4,0,0,0,174.77,9v2.79Z"/><path class="cls-1" d="M176.65,11.77V5.55a2,2,0,0,0-.06-.56.66.66,0,0,0-.2-.3.76.76,0,0,0-.32-.12l-.46-.06V4.29L178.84,4v7.74Zm.89-8.94a1.36,1.36,0,0,1-1-.41,1.38,1.38,0,0,1-.41-1,1.36,1.36,0,0,1,.41-1,1.41,1.41,0,0,1,2.42,1,1.38,1.38,0,0,1-1.42,1.42Z"/><path class="cls-1" d="M184.71,11.77h-1L180.11,4h2.52a2.47,2.47,0,0,0,.15.49c.1.28.23.61.39,1s.33.81.51,1.27l.54,1.3c.17.41.33.77.46,1.08s.23.52.27.62a8.7,8.7,0,0,0,.77-2.18,5.81,5.81,0,0,0,.11-1.71,2.93,2.93,0,0,0-.38-1.21,1.71,1.71,0,0,0-.68-.66h3.3v.16Z"/><path class="cls-1" d="M189.71,11.77V5.55a1.62,1.62,0,0,0-.07-.56.65.65,0,0,0-.19-.3.81.81,0,0,0-.33-.12l-.45-.06V4.29L191.9,4v7.74Zm.89-8.94a1.38,1.38,0,0,1-1.41-1.42,1.35,1.35,0,0,1,.4-1,1.41,1.41,0,0,1,2.42,1,1.4,1.4,0,0,1-.39,1A1.39,1.39,0,0,1,190.6,2.83Z"/><path class="cls-1" d="M196.59,11.77H194.4V5.18a1.61,1.61,0,0,0-.06-.5.45.45,0,0,0-.17-.25.76.76,0,0,0-.33-.1l-.48-.06V4l3.23-.32V5.5a4.18,4.18,0,0,1,1.28-1.16A4.8,4.8,0,0,1,198.7,4a2.73,2.73,0,0,1,.83-.14,2.29,2.29,0,0,1,1.78.64,2.4,2.4,0,0,1,.59,1.71v5.6h-2.19V6.35a1.28,1.28,0,0,0-.28-.89,1.2,1.2,0,0,0-1-.33,2.66,2.66,0,0,0-1,.21,2.92,2.92,0,0,0-.87.54Z"/><path class="cls-1" d="M210.67,3.87a.51.51,0,0,0-.1-.32.86.86,0,0,0-.25-.22.93.93,0,0,0-.33-.12,1.33,1.33,0,0,0-.32,0,1.37,1.37,0,0,0-.69.18,1.44,1.44,0,0,0-.52.52,3.33,3.33,0,0,1,1.78,1,2.77,2.77,0,0,1,.66,1.91,2.8,2.8,0,0,1-.31,1.35,2.89,2.89,0,0,1-.82,1,3.73,3.73,0,0,1-1.18.59,4.76,4.76,0,0,1-1.36.2,5.36,5.36,0,0,1-1-.09,3.16,3.16,0,0,1-.91-.31,1.91,1.91,0,0,0-.15.21.41.41,0,0,0-.08.24.33.33,0,0,0,.09.23,1.35,1.35,0,0,0,.19.16,2.58,2.58,0,0,0,1,.35c.39.06.8.11,1.23.14s.85.07,1.26.12a4.16,4.16,0,0,1,1.13.28,1.77,1.77,0,0,1,.81.6,1.83,1.83,0,0,1,.31,1.13,2.1,2.1,0,0,1-.35,1.22,3,3,0,0,1-.91.89,4.42,4.42,0,0,1-1.27.54,6,6,0,0,1-1.46.19,5.79,5.79,0,0,1-1.38-.17,3.38,3.38,0,0,1-1.21-.51,2.81,2.81,0,0,1-.86-.89,2.64,2.64,0,0,1-.37-1.29l1.82,0a3.12,3.12,0,0,0,.16,1,2.29,2.29,0,0,0,.44.73,2.05,2.05,0,0,0,.63.44,2.12,2.12,0,0,0,.75.14,3.25,3.25,0,0,0,.85-.1,2.42,2.42,0,0,0,.67-.29,1.16,1.16,0,0,0,.59-1.05.93.93,0,0,0-.28-.74,1.74,1.74,0,0,0-.7-.37,4.87,4.87,0,0,0-.89-.14l-.89-.08-.87-.12a3.35,3.35,0,0,1-.85-.25,1.55,1.55,0,0,1-.64-.49,1.25,1.25,0,0,1-.25-.82,1.21,1.21,0,0,1,.36-.94,3.23,3.23,0,0,1,.89-.53A3,3,0,0,1,204,8.3a3.11,3.11,0,0,1-.36-1.5A2.66,2.66,0,0,1,204,5.46a3,3,0,0,1,.85-1A3.61,3.61,0,0,1,206,3.93a4.85,4.85,0,0,1,1.35-.2,5.84,5.84,0,0,1,.73,0,7.24,7.24,0,0,1,.4-.78,4.06,4.06,0,0,1,.55-.74,2.7,2.7,0,0,1,.71-.56,1.65,1.65,0,0,1,.84-.22,1.29,1.29,0,0,1,.43.07,1.22,1.22,0,0,1,.39.21,1,1,0,0,1,.28.33.92.92,0,0,1,.1.44Zm-3.38,5.6a1,1,0,0,0,.73-.29,1.9,1.9,0,0,0,.44-.69,3,3,0,0,0,.22-.86,6,6,0,0,0,.06-.78,4.88,4.88,0,0,0-.07-.79,3.68,3.68,0,0,0-.23-.88,2.08,2.08,0,0,0-.46-.71,1,1,0,0,0-.72-.3.91.91,0,0,0-.71.3,2.09,2.09,0,0,0-.44.7,3.75,3.75,0,0,0-.22.86,6,6,0,0,0-.06.77,5,5,0,0,0,.07.79,3.68,3.68,0,0,0,.23.88,2.34,2.34,0,0,0,.45.7A.91.91,0,0,0,207.29,9.47Z"/><path class="cls-1" d="M212.6,10.7a1.08,1.08,0,0,1,.35-.8,1.12,1.12,0,0,1,1.61,0,1.09,1.09,0,0,1,.33.8,1.11,1.11,0,0,1-.33.82,1.09,1.09,0,0,1-.8.33,1.18,1.18,0,0,1-1.16-1.15Z"/></g></g></svg>