<svg xmlns="http://www.w3.org/2000/svg" viewBox="0 0 60.61 33.15"><defs><style>.cls-1{fill:#fefefe;}.cls-2{fill:#fcfcfc;}.cls-3{fill:#f8f9f9;}.cls-4{fill:#fcfdfd;}.cls-5{fill:#f4f5f5;}.cls-6{fill:#6a7f77;}.cls-7{fill:#647b72;}.cls-8{fill:#e6eae8;}.cls-9{fill:#798d85;}.cls-10{fill:#d7dddb;}.cls-11{fill:#6f847c;}.cls-12{fill:#dee3e1;}.cls-13{fill:#466056;}.cls-14{fill:#476157;}.cls-15{fill:#415d52;}.cls-16{fill:#435e53;}.cls-17{fill:#3d594e;}.cls-18{fill:#486258;}.cls-19{fill:#496359;}.cls-20{fill:#566f64;}.cls-21{fill:#60776e;}.cls-22{fill:#61776e;}.cls-23{fill:#61786e;}.cls-24{fill:#637a71;}.cls-25{fill:#4a6459;}.cls-26{fill:#5f776d;}.cls-27{fill:#566e64;}.cls-28{fill:#4a645a;}.cls-29{fill:#687e75;}.cls-30{fill:#466256;}.cls-31{fill:#496459;}.cls-32{fill:#667c73;}.cls-33{fill:#597168;}.cls-34{fill:#687e76;}.cls-35{fill:#466257;}.cls-36{fill:#697f76;}.cls-37{fill:#486257;}.cls-38{fill:#647a71;}.cls-39{fill:#6c8178;}.cls-40{fill:#72877f;}.cls-41{fill:#70857c;}.cls-42{fill:#546c62;}.cls-43{fill:#6b8178;}.cls-44{fill:#506a60;}.cls-45{fill:#4e685e;}.cls-46{fill:#486358;}.cls-47{fill:#536d62;}.cls-48{fill:#445f55;}.cls-49{fill:#455f55;}.cls-50{fill:#466156;}.cls-51{fill:#627970;}.cls-52{fill:#71867e;}.cls-53{fill:#445f53;}.cls-54{fill:#476257;}.cls-55{fill:#677e75;}.cls-56{fill:#597167;}.cls-57{fill:#4f695f;}.cls-58{fill:#546d64;}.cls-59{fill:#456155;}.cls-60{fill:#4c665c;}.cls-61{fill:#3f5b50;}.cls-62{fill:#637a70;}.cls-63{fill:#6b8078;}.cls-64{fill:#405c50;}.cls-65{fill:#446055;}.cls-66{fill:#50695f;}.cls-67{fill:#546d63;}.cls-68{fill:#5a7268;}.cls-69{fill:#556e64;}.cls-70{fill:#445f54;}.cls-71{fill:#fdfdfd;}.cls-72{fill:#425d53;}.cls-73{fill:#425e53;}.cls-74{fill:#fafafa;}</style></defs><g id="Layer_2" data-name="Layer 2"><g id="Layer_1-2" data-name="Layer 1"><path class="cls-1" d="M30.29,0H59.72c.28,0,.67-.14.83.11s-.13.64-.32.84a6.12,6.12,0,0,0-1.45,4.74c.09,3.46,0,6.92,0,10.38,0,.75-.06,1-1,.8A121.49,121.49,0,0,0,3,16.93c-.71.17-.86,0-.85-.67.06-3.87.06-7.75.15-11.62a3.27,3.27,0,0,0-.84-2.49C1,1.66.58,1.1.16.57-.1.23-.06,0,.41,0H30.29Z"/><path class="cls-1" d="M45.55,16.51c.25-.19.44-.44.83-.39,2.71.34,5.42.68,8.1,1.23a1.1,1.1,0,0,1,.29.17,2.8,2.8,0,0,1-.43,1.38c-.18.35-.53.57-.69.94-.07.14-.16.27-.23.41C53,21,52.4,21.56,52,22.3a5.12,5.12,0,0,0-.56.58,2.92,2.92,0,0,0-.56.71,3.45,3.45,0,0,0-1,1.14.46.46,0,0,1-.17.17,2.86,2.86,0,0,0-.68.52,12.56,12.56,0,0,0-1.73,1.35A15.27,15.27,0,0,1,45,28.27c-.15.08-.29.17-.44.24-.79.5-1.65.9-2.45,1.39-.26.13-.52.23-.79.34a2.05,2.05,0,0,0-.34.07c-.24.12-.52.13-.72.32a.86.86,0,0,1-.2.13,5.42,5.42,0,0,1-.56.22c-.4.14-.8.28-1.2.4a3.11,3.11,0,0,1-.9.17c-.42.11-.84.17-1.26.29a1.71,1.71,0,0,0-.49.1c-.25.14-.55.07-.82.13s-.35.21-.55.25a3.21,3.21,0,0,1-.53-.07,5.4,5.4,0,0,0-1.55.14c-1.15,0-2.31,0-3.46,0a7.79,7.79,0,0,0-1.8-.17h-.43l-2-.43c-.31-.07-.61-.16-.91-.24a1.89,1.89,0,0,1-.38-.09,3.31,3.31,0,0,0-1.76-.64c-1-.16-1.81-.69-2.76-.9-.8-.56-1.75-.82-2.52-1.42-.18-.09-.29-.27-.48-.35a4.2,4.2,0,0,0-.52-.26,1.38,1.38,0,0,0-.76-.49,5.25,5.25,0,0,1-1.36-1.12,2,2,0,0,0-.88-.54,21.51,21.51,0,0,0-2.56-2.67A3.07,3.07,0,0,0,8.74,22c-.08-.41-.46-.52-.73-.74A4.83,4.83,0,0,1,7.44,20,1.48,1.48,0,0,0,7,19.34a2.92,2.92,0,0,1-.6-1.41c-.14-.35-.24-.62.34-.72,2.55-.48,5.12-.79,7.69-1.12.33,0,.6,0,.71.36s.41.32.62.46L16,17a1.4,1.4,0,0,0,.61.3,1.43,1.43,0,0,1,.76.77,1.09,1.09,0,0,0,.33.59,1,1,0,0,0,.77.46.73.73,0,0,1,.28.24,2.17,2.17,0,0,0,.26.53,1.11,1.11,0,0,0,.54.39c.31.08.54.32.84.41s.41.24.61.37a2.89,2.89,0,0,0,1,.55c.51.21.87.74,1.51.68.31.09.6.24.92.33a5.66,5.66,0,0,0,1.15.35,4,4,0,0,0,.85,0,.64.64,0,0,1,.39,0,3.09,3.09,0,0,0,1.91.52,9.78,9.78,0,0,0,3.37,0l.27-.06a4,4,0,0,0,1-.17,4.41,4.41,0,0,0,.88-.17,4.25,4.25,0,0,0,.86-.18c.25-.05.48-.15.73-.21a7.53,7.53,0,0,0,1.55-.48,3.35,3.35,0,0,1,.7-.22,1.71,1.71,0,0,0,1-.5c.15-.05.27-.15.42-.2s.56-.21.74-.47a1.93,1.93,0,0,1,.42-.39c.22-.1.38-.26.6-.36a.77.77,0,0,0,.46-.24c.06-.08.11-.18.17-.27a.57.57,0,0,1,.16-.15.7.7,0,0,1,.2-.08.59.59,0,0,0,.4-.29c0-.1.08-.21.12-.31a.72.72,0,0,1,.24-.25.91.91,0,0,0,.43-.37.65.65,0,0,1,.17-.16,1,1,0,0,0,.56-.54.61.61,0,0,1,.15-.17,2,2,0,0,0,.47-.34C45.12,16.86,45.31,16.65,45.55,16.51Z"/><path class="cls-2" d="M43.24,18.92l-.11.07a3,3,0,0,1-1,.73l0,0a3.17,3.17,0,0,1-.63.52c-.37,0-.59.35-.9.5s-.33.32-.53.44-.4.25-.62.33c-.45.09-.73.5-1.18.59-.3,0-.54.21-.81.29-.68.27-1.38.45-2.07.69a5,5,0,0,0-.74.18,2.22,2.22,0,0,0-.76.18,3.46,3.46,0,0,0-1.05.18,5.12,5.12,0,0,0-.56,0,2,2,0,0,1-.59.07H29.12c-.25,0-.5-.09-.75-.09s-.68-.07-1-.15a1.29,1.29,0,0,1-.69-.2h-.23a.69.69,0,0,1-.24-.05c-.43-.12-.87-.21-1.31-.32s-.78-.31-1.2-.39-1.08-.45-1.61-.71a4.86,4.86,0,0,0-1.19-.58,1.64,1.64,0,0,0-.61-.36,2.63,2.63,0,0,0-1.11-.64c-.22-.22-.41-.48-.64-.7l-.12-.16c-.41,0-.57-.39-.84-.6a4.58,4.58,0,0,0-.51-.47,2.17,2.17,0,0,0-.65-.7l-.48-.46c-.32-.17-.31-.5-.43-.77s-.35-.54.13-.61a25.08,25.08,0,0,1,5-.34,9.5,9.5,0,0,1-2.43,1.38c-.73.33-.7.62-.17,1.11a18.14,18.14,0,0,0,11.9,4.85A18.05,18.05,0,0,0,42.74,18c.8-.72.78-.74-.15-1.21l-2.36-1.19c.11-.32.34-.27.52-.26a40,40,0,0,1,4.24.38c.39.06.66.15.4.6a2.1,2.1,0,0,1-.45.76c-.15.17-.3.32-.46.48l0,0c-.24.24-.49.48-.73.73l0,0A3.11,3.11,0,0,0,43.24,18.92Z"/><path class="cls-3" d="M37.2,32.3a8.29,8.29,0,0,1-1.91.38c-.36.17-.77,0-1.12.15l-.47,0c-.72.2-1.47-.1-2.19.17h0a6.84,6.84,0,0,1-2,0,26.48,26.48,0,0,1-12-3,28.86,28.86,0,0,1-12-11.36.51.51,0,0,1-.09-.16c-.07-.39-.73-.83-.27-1.13.64-.42.61.49,1,.73a10.35,10.35,0,0,1,1.26,1.62,4.68,4.68,0,0,0,.92,1.51,6,6,0,0,1,.6.73c.23.42.69.64.91,1.07a29.93,29.93,0,0,0,2.55,2.61c.84.46,1.38,1.34,2.29,1.7.23.07.36.28.57.39a2.16,2.16,0,0,0,.59.34,1.5,1.5,0,0,0,.58.38,21.43,21.43,0,0,0,2.23,1.28,16.24,16.24,0,0,0,3.17,1.08,20.29,20.29,0,0,0,2,.68c.18,0,.35.09.52.12A10.32,10.32,0,0,0,26,32a3.77,3.77,0,0,0,1.38.17c.24.06.48.07.72.12a17.61,17.61,0,0,0,4.7,0,2.78,2.78,0,0,1,.58,0,7.85,7.85,0,0,0,1,0,1.06,1.06,0,0,1,.52-.16,5.63,5.63,0,0,0,1.68-.33,7,7,0,0,0,1.12-.27,2.62,2.62,0,0,0,.73-.19c.35-.11.71-.23,1.06-.36s.53-.2.81-.27c.45-.27,1-.34,1.43-.6.16-.05.3-.14.45-.2s.37-.21.6-.16a.47.47,0,0,1,.34.35A17.53,17.53,0,0,1,39,31.78,13.75,13.75,0,0,0,37.2,32.3Z"/><path class="cls-4" d="M27.1,17.72c1-.35,1.89.13,2.39-.37a5.55,5.55,0,0,0,.74-1.84c.1.06.18.07.18.1.27,1.56,1.07,2.4,2.74,1.87.07.37-.15.42-.27.52-1.26,1-1.26,1-.85,2.53a.66.66,0,0,1,0,.64c-1.1-1.36-2.29-1.45-3.58,0C29.22,19.57,29.09,18.38,27.1,17.72Z"/><path class="cls-5" d="M43.1,30l-.39-.2c-.09-.27.09-.37.29-.44a11.24,11.24,0,0,0,1.69-.95c.14-.09.3-.14.43-.24a18.1,18.1,0,0,0,3.74-2.84,3,3,0,0,0,.79-.68l0,0a3.72,3.72,0,0,0,1.16-1.21,1.85,1.85,0,0,1,.35-.48,9,9,0,0,0,.76-.75,16.73,16.73,0,0,0,1.3-1.71,2.76,2.76,0,0,1,.33-.61,8.17,8.17,0,0,0,.6-.85c.33-.35.42-.87.84-1.14.09-.41.4-.69.75-.52s0,.57-.09.8a28.27,28.27,0,0,1-11.2,11.23C44,29.67,43.65,30.07,43.1,30Z"/><path class="cls-6" d="M7.14,19.89a5.93,5.93,0,0,1-1-1.78c.18.07.31,0,.34-.18l.84,1.26c.15.06.16.19.18.32A.41.41,0,0,1,7.14,19.89Z"/><path class="cls-7" d="M55,17.93a3.11,3.11,0,0,1-.68,1.28c-.18-.08-.3-.19-.21-.41l.69-1.28Z"/><path class="cls-8" d="M37.2,32.3a2.9,2.9,0,0,1,1.8-.52A5.72,5.72,0,0,1,37.2,32.3Z"/><path class="cls-9" d="M44.83,17c.05-.34.31-.51.56-.69l.16.16c.05.42-.26.53-.56.66A.23.23,0,0,1,44.83,17Z"/><path class="cls-8" d="M31.51,33a4.79,4.79,0,0,1,2.19-.17A5.39,5.39,0,0,1,31.51,33Z"/><path class="cls-10" d="M29.51,33a7.19,7.19,0,0,1,2,0A4.59,4.59,0,0,1,29.51,33Z"/><path class="cls-11" d="M15.49,16.35a1.59,1.59,0,0,1,.57.61c.12.22,0,.25-.19.26h-.13c-.19-.21-.49-.34-.41-.7Z"/><path class="cls-2" d="M15.33,16.51l.41.7a.79.79,0,0,1-.57-.76A.31.31,0,0,1,15.33,16.51Z"/><path class="cls-12" d="M34.17,32.83a1.51,1.51,0,0,1,1.12-.15A2,2,0,0,1,34.17,32.83Z"/><path class="cls-13" d="M9.91,8.1c0,1.39,0,2.78,0,4.17A1.65,1.65,0,0,1,8.4,14.14c-1.07.24-2.15.44-3.22.63s-1.46-.15-1.47-1.2q0-4.74,0-9.49c0-1.1.38-1.49,1.5-1.52s2.13,0,3.2,0,1.52.38,1.52,1.56,0,2.66,0,4Z"/><path class="cls-13" d="M56.45,6.87V9.79c0,.55-.12,1-.85,1-.49-.05-.35.26-.27.51.32,1.05.63,2.1,1,3.13.18.53,0,.63-.49.54-.77-.15-1.46-.26-1.61-1.29A22.59,22.59,0,0,0,53.42,11c-.12-.44-.35-.69-.8-.65s-.31.5-.32.77c0,.8,0,1.6,0,2.4,0,.43,0,.7-.63.58-1.57-.28-1.37-.06-1.38-1.62,0-3,0-6-.09-9,0-.66.12-1,.87-.92,1.3.06,2.6,0,3.9,0C56,2.58,56.41,3,56.43,4s0,1.89,0,2.84Z"/><path class="cls-13" d="M48.55,8.07V12c0,1.21-.3,1.52-1.46,1.4s-2.24-.24-3.35-.41-1.41-.59-1.42-1.66c0-2.39,0-4.78,0-7.17,0-1.27.29-1.55,1.58-1.57h3c1.31,0,1.63.34,1.64,1.63s0,2.59,0,3.89Z"/><path class="cls-13" d="M26.34,7.4c0-1.36,0-2.71,0-4.07,0-.56.14-.81.74-.79,1.37,0,2.73,0,4.09,0,1.07,0,1.35.32,1.36,1.4,0,2.25,0,4.49,0,6.74,0,1.14-.35,1.48-1.49,1.5-1.3,0-2.6,0-3.9.06-.72,0-.84-.25-.82-.87,0-1.33,0-2.66,0-4Z"/><path class="cls-13" d="M35.77,12.25c-1.22-.06-1.47-.3-1.47-1.46,0-2.36,0-4.72,0-7.08a1,1,0,0,1,1-1.12,27.77,27.77,0,0,1,4.18,0,1.12,1.12,0,0,1,1.12,1.24c0,2.54,0,5.08,0,7.63a1,1,0,0,1-1,1.08,21.85,21.85,0,0,1-3.61-.26c.07-.12.19-.1.3-.11C36.07,12.18,35.9,12.13,35.77,12.25Z"/><path class="cls-13" d="M11.74,4.61a7.62,7.62,0,0,0-.05-1c-.14-.9.2-1.18,1.11-1.14.72,0,1,.2.95,1,0,2.47,0,5,0,7.43,0,.5-.1,1,.71,1,1.13,0,1.38-.18,1.39-1.09s0-1.88,0-2.83a36.2,36.2,0,0,0,0-5.31s0-.06.06-.06c2-.34,2-.3,2,1.63v6.82c0,1.32-.37,1.74-1.69,1.91-1.14.15-2.28.32-3.43.39-1,.06-1.21-.24-1.11-1.28C11.79,9.59,11.78,7.1,11.74,4.61Z"/><path class="cls-14" d="M21,8.09c0-1.15,0-2.31,0-3.46,0-.57-.15-.81-.75-.77-.24,0-.72.19-.66-.29s.05-1,.66-1c1.24,0,2.49,0,3.73,0,.64,0,.61.61.66,1s-.45.34-.68.31c-.79-.09-.85.32-.84.94,0,2.28,0,4.56,0,6.83,0,1.25-.86.73-1.41.86s-.74-.33-.74-.86C21,10.45,21,9.27,21,8.09Z"/><path class="cls-15" d="M11.74,4.61a27.55,27.55,0,0,1,0,7.48Q11.58,8.34,11.74,4.61Z"/><path class="cls-16" d="M15.9,2.68a13.75,13.75,0,0,1,0,5.31A49.5,49.5,0,0,1,15.9,2.68Z"/><path class="cls-17" d="M35.77,12.25a1.12,1.12,0,0,1,1.08-.05l-.93.07-.08,0Z"/><path class="cls-14" d="M29.13,28.09c.08-.7.16-1.17.17-1.64s0-.77.63-.73.58.42.52.87c-.12,1.05-.22,2.11-.35,3.16,0,.24.21.67-.29.68s-.8.15-1-.4c-.36-.79-.84-1.54-1.34-2.43a5.45,5.45,0,0,0-.35,2.14c0,.57-.4.39-.68.38s-.58,0-.51-.5c.17-1.17.25-2.35.42-3.51,0-.22-.23-.74.28-.65s1.09-.25,1.38.45A10.22,10.22,0,0,0,29.13,28.09Z"/><path class="cls-14" d="M46.76,24.16a1.09,1.09,0,0,1-.8-.33c-.55-.53-1.09-1.07-1.61-1.62a1.17,1.17,0,0,1,0-1.74,8.25,8.25,0,0,1,.93-.94,1.33,1.33,0,0,1,2,0c.31.27.59.57.88.86s.49.69,1,.25c.26-.22.56,0,.76.26a.4.4,0,0,1-.1.62c-.85.56-1.26,1.53-2.05,2.14C47.45,23.9,47.19,24.18,46.76,24.16Z"/><path class="cls-14" d="M39.44,23.77c.27,0,.24.38.37.58.27.42.25,1.09,1.15.65s.59-.92.23-1.42-.35-.68.21-.92c.4-.18.58-.18.78.27.48,1,1,2.06,1.59,3.06.24.43.21.63-.24.87s-.6.14-.83-.29-.15-1.12-1-.8-1,.49-.41,1.34c.41.62.19.84-.35,1.09-.33.15-.44.06-.59-.24-.57-1.13-1.19-2.23-1.79-3.35C38.44,24.31,39,23.75,39.44,23.77Z"/><path class="cls-18" d="M36.09,26.33a7.35,7.35,0,0,0-1.83.07c-.53.1-.7.37-.57.87s.19.8.29,1.2a.59.59,0,0,0,.8.48c.41-.09.78-.2.63-.74s.37-.44.64-.55c.45-.17.43.16.49.47.23,1.32.06,1.6-1.28,1.83a9.28,9.28,0,0,1-1.06.09,1.08,1.08,0,0,1-1.28-1c-.1-.73-.25-1.45-.36-2.18a1.07,1.07,0,0,1,.92-1.36c.34-.07.69-.16,1-.22C35.66,25,35.66,25.05,36.09,26.33Z"/><path class="cls-18" d="M19.75,25.88a10,10,0,0,0,1.3-1.4c.55-.87,1.05-.57,1.67-.09a23.48,23.48,0,0,0-3,3.22c-.28.37-.53.19-.75,0s-.9-.13-.77-.77A23.42,23.42,0,0,0,19,22.81c0-.23.18-.34.35-.2s.9.12.76.76c-.18.8-.34,1.6-.51,2.41Z"/><path class="cls-18" d="M13.94,17.71l1,1a24.24,24.24,0,0,0-2.39,2.1c-.34.29-.42.52-.06.86A7.84,7.84,0,0,0,14,23c-.5.62-1,.78-1.51.05s-1.61-1.19-1.59-1.92,1.14-1.25,1.75-1.88A5.79,5.79,0,0,0,13.94,17.71Z"/><path class="cls-19" d="M23.36,29.4c-.72,0-.9-.33-.69-1,.36-1.12.73-2.24,1-3.38.14-.59.47-.33.72-.25s.66,0,.45.59c-.43,1.21-.76,2.47-1.12,3.71C23.66,29.29,23.67,29.49,23.36,29.4Z"/><path class="cls-19" d="M15.23,25.36a4.22,4.22,0,0,1-.7-.6c-.25-.3.16-.37.28-.53.72-1,1.51-1.89,2.18-2.9.29-.42.48-.26.66,0s.76.25.32.78c-.83,1-1.6,2-2.39,3.07C15.5,25.24,15.5,25.43,15.23,25.36Z"/><path class="cls-20" d="M49,25.44a13.37,13.37,0,0,1-3.78,2.95c-.24,0-.33-.07-.34-.29,1.48-.82,2.68-2,4.08-3A.23.23,0,0,1,49,25.44Z"/><path class="cls-21" d="M12.29,25.78a11.22,11.22,0,0,1-2.67-2.7c.07-.08.09-.22.22-.25a20.87,20.87,0,0,1,2.49,2.66A.23.23,0,0,1,12.29,25.78Z"/><path class="cls-7" d="M21.7,31.1a12,12,0,0,1-3.22-1.25c0-.13.13-.15.22-.2.72-.07,1.24.47,1.89.64a2.86,2.86,0,0,0,.92.26.5.5,0,0,1,.3.35A.24.24,0,0,1,21.7,31.1Z"/><path class="cls-22" d="M44.83,28.57a8.85,8.85,0,0,1-2.12,1.24l-.53.19c-.17-.06-.26-.17-.18-.36l2.5-1.34C44.65,28.35,44.79,28.4,44.83,28.57Z"/><path class="cls-23" d="M31.86,23.44l.53,0a.29.29,0,0,1,.11.19.4.4,0,0,1-.09.2h0a19.91,19.91,0,0,1-3.86,0c-.67-.07-1.41.11-1.9-.55h.76c.31.18.67,0,1,.16l.61,0A10,10,0,0,0,31.86,23.44Z"/><path class="cls-24" d="M12.29,25.78l0-.29c1,.28,1.44,1.24,2.29,1.69a.26.26,0,0,1,0,.38A7.41,7.41,0,0,1,12.29,25.78Z"/><path class="cls-21" d="M18.7,29.65l-.22.2a8.75,8.75,0,0,1-2.28-1.21.32.32,0,0,1,0-.42A14.61,14.61,0,0,1,18.7,29.65Z"/><path class="cls-25" d="M36.66,31.9a3,3,0,0,1-1.78.35c-.17-.1-.38,0-.55-.13a.54.54,0,0,1,.38-.35c.28-.21.64,0,.92-.16h.52C36.4,31.55,36.63,31.55,36.66,31.9Z"/><path class="cls-26" d="M53.38,20.6A6.63,6.63,0,0,1,52,22.41a.35.35,0,0,1-.26-.25l1.48-2.07C53.41,20.21,53.37,20.41,53.38,20.6Z"/><path class="cls-27" d="M28.71,32.1h3.64a.23.23,0,0,1,.25,0,.33.33,0,0,1,.08.25.27.27,0,0,1-.16.21,1.2,1.2,0,0,1-.42,0,26,26,0,0,0-3.18,0,1.18,1.18,0,0,1-.56,0,.29.29,0,0,1-.16-.22.36.36,0,0,1,.11-.25A.51.51,0,0,1,28.71,32.1Z"/><path class="cls-28" d="M22.11,21.64a4.9,4.9,0,0,1,1.59.69c.05.18,0,.27-.21.22-.66,0-1.09-.42-1.59-.7C21.86,21.67,21.92,21.59,22.11,21.64Z"/><path class="cls-29" d="M35.38,22.88l2.16-.73a.28.28,0,0,1,0,.4,4,4,0,0,1-1.61.53C35.78,23,35.5,23.14,35.38,22.88Z"/><path class="cls-30" d="M21.7,31.1l0-.23c.64-.35,1.08.19,1.61.34l.35.06a.3.3,0,0,1,0,.47A9.34,9.34,0,0,1,21.7,31.1Z"/><path class="cls-31" d="M26,32.15a4.92,4.92,0,0,1-1.82-.36c0-.21.28-.21.4-.34l2,.47C26.46,32.17,26.2,32.11,26,32.15Z"/><path class="cls-32" d="M51,23.46c-.27.6-.57,1.16-1.34,1.22.06-.66.65-.88,1-1.27A.25.25,0,0,1,51,23.46Z"/><path class="cls-33" d="M7.14,19.89l.22-.38c.3-.05.16.29.32.36l.56,1.18a.27.27,0,0,1-.06.32A4.67,4.67,0,0,1,7.14,19.89Z"/><path class="cls-33" d="M41.8,30.17l-1.41.69c-.11-.14-.35-.14-.39-.36a1.12,1.12,0,0,1,0-.13A3.8,3.8,0,0,1,41,30l.32,0A.39.39,0,0,1,41.8,30.17Z"/><path class="cls-32" d="M28.56,23.8h3.86A10.88,10.88,0,0,1,28.56,23.8Z"/><path class="cls-34" d="M9.84,22.83l-.22.25a2.26,2.26,0,0,1-.9-1c0-.22,0-.32.28-.26A4,4,0,0,1,9.84,22.83Z"/><path class="cls-35" d="M36.66,31.9l-.51-.3,1.23-.34c.11.11.28.17.34.33C37.37,31.71,37.09,32.07,36.66,31.9Z"/><path class="cls-3" d="M23.33,31.21c-.59.14-1-.59-1.61-.34l-.21-.32A2.22,2.22,0,0,1,23.33,31.21Z"/><path class="cls-36" d="M38.38,22c.18-.52.69-.54,1.1-.72a.39.39,0,0,1,.27.21.18.18,0,0,1-.08.2l-.34.22a3,3,0,0,1-.61.28C38.56,22.17,38.41,22.16,38.38,22Z"/><path class="cls-37" d="M26,32.15l.6-.23.29,0c.43.3,1-.13,1.41.25a.52.52,0,0,0,0,.11,1.3,1.3,0,0,1-.95,0A3.7,3.7,0,0,1,26,32.15Z"/><path class="cls-38" d="M54.08,18.8l.21.41a1.78,1.78,0,0,1-.56.82.57.57,0,0,1-.31-.32A1.94,1.94,0,0,1,54.08,18.8Z"/><path class="cls-39" d="M24.93,22.72a3.06,3.06,0,0,1,1.38.37c-.17.27-.48,0-.68.18a3.22,3.22,0,0,1-1.25-.36C24.5,22.67,24.76,22.83,24.93,22.72Z"/><path class="cls-40" d="M22.11,21.64l-.21.21a1.85,1.85,0,0,1-1.06-.55c-.05-.05-.07-.1-.05-.14s.05-.06.07-.06A1.44,1.44,0,0,1,22.11,21.64Z"/><path class="cls-41" d="M19.24,20.07c.54-.09.81.28,1.08.65a.17.17,0,0,1,0,.26c-.37.07-.5-.33-.79-.41s-.39-.14-.34-.41Z"/><path class="cls-28" d="M24.93,22.72l-.55.19a1.79,1.79,0,0,1-.89-.36l.21-.22A3.76,3.76,0,0,1,24.93,22.72Z"/><path class="cls-42" d="M32.58,32.31v-.12c.42-.37,1,0,1.42-.25.17-.06.24.09.33.18a.36.36,0,0,1,.55.13l-.53.08a2.66,2.66,0,0,1-.89.06C33.17,32.35,32.86,32.51,32.58,32.31Z"/><path class="cls-18" d="M39.51,31a2.27,2.27,0,0,1-1.07.36c-.15-.06-.26-.14-.17-.32a4.44,4.44,0,0,1,1.24-.37A.21.21,0,0,1,39.51,31Z"/><path class="cls-43" d="M38.38,22l.28.07c0,.32-.3.21-.44.32l-.66.2,0-.4C37.8,22,38,21.69,38.38,22Z"/><path class="cls-7" d="M9,21.81l-.28.26a1.5,1.5,0,0,1-.54-.7l.06-.32C8.7,21.1,8.8,21.5,9,21.81Z"/><path class="cls-44" d="M32.87,23.4a2.07,2.07,0,0,1,1.07-.17c.23-.1.35,0,.44.22a1.45,1.45,0,0,1-.89.18.31.31,0,0,1-.23,0C33.11,23.61,32.93,23.59,32.87,23.4Z"/><path class="cls-45" d="M17.64,18.64l.76.71c-.45.16-.52.12-.88-.56A.18.18,0,0,1,17.64,18.64Z"/><path class="cls-46" d="M24.57,31.45a.49.49,0,0,1-.4.34l-.49-.05v-.47Z"/><path class="cls-47" d="M34.38,23.45l-.44-.22a1.11,1.11,0,0,1,.73-.17.41.41,0,0,1,.61.21A1.24,1.24,0,0,1,34.38,23.45Z"/><path class="cls-48" d="M38.27,31.07l.17.32a.89.89,0,0,1-.72.2.42.42,0,0,1-.34-.33C37.67,31.17,38,31.29,38.27,31.07Z"/><path class="cls-49" d="M51.73,22.16l.26.25-.73.72a.29.29,0,0,1,0-.41A1.22,1.22,0,0,1,51.73,22.16Z"/><path class="cls-50" d="M14.59,27.56l0-.38c.4-.07.48.36.75.49a.32.32,0,0,1-.24.26Z"/><path class="cls-51" d="M35.28,23.27l-.61-.21a1.1,1.1,0,0,1,.71-.18l.57.2A1.07,1.07,0,0,1,35.28,23.27Z"/><path class="cls-52" d="M40.56,20.58c.29-.18.45-.55.86-.53a.2.2,0,0,1,.24,0c.08.2,0,.32-.19.41s-.27.38-.55.31C40.8,20.69,40.63,20.75,40.56,20.58Z"/><path class="cls-53" d="M39.51,31V30.7c.15-.1.28-.24.49-.2s.35.15.39.36Z"/><path class="cls-54" d="M53.42,19.71a.39.39,0,0,1,.31.32l-.35.57-.17-.51Z"/><path class="cls-55" d="M28.29,32.19c-.47-.11-1,.07-1.41-.25a6.61,6.61,0,0,1,1.83.16Z"/><path class="cls-56" d="M49,25.44l0-.29c.17-.27.33-.55.73-.49C49.72,25.19,49.36,25.33,49,25.44Z"/><path class="cls-41" d="M43.77,18.3a.74.74,0,0,1,.73-.73C44.49,18,44.27,18.31,43.77,18.3Z"/><path class="cls-57" d="M40.56,20.58l.36.17-.35.36a.39.39,0,0,1-.35.13c-.14-.06-.23-.13-.18-.29Z"/><path class="cls-58" d="M42.17,19.72a.86.86,0,0,1,1-.73l-.08.31c-.2.2-.37.43-.69.46Z"/><path class="cls-59" d="M41.8,30.17,41.29,30l.71-.36.18.36C42.1,30.17,41.93,30.13,41.8,30.17Z"/><path class="cls-29" d="M34,31.94c-.44.31-1,.13-1.42.25l-.23-.09A5.71,5.71,0,0,1,34,31.94Z"/><path class="cls-60" d="M18.52,19.51a.64.64,0,0,1,.72.56v0c-.19.12-.37.23-.52-.06A.61.61,0,0,1,18.52,19.51Z"/><path class="cls-61" d="M16.21,28.22v.42a.86.86,0,0,1-.55-.38c-.09-.21,0-.3.21-.35S16.08,28.13,16.21,28.22Z"/><path class="cls-62" d="M15.86,27.91l-.21.35a.62.62,0,0,1-.52-.33l.24-.26Z"/><path class="cls-63" d="M51.24,22.72l0,.41a.43.43,0,0,1-.29.33l-.31-.05A1.85,1.85,0,0,1,51.24,22.72Z"/><path class="cls-2" d="M41.47,20.44l.22-.34c.13-.2.29-.18.47-.08C42,20.28,41.9,20.63,41.47,20.44Z"/><path class="cls-2" d="M38.22,22.35l.44-.32.67-.16A1.25,1.25,0,0,1,38.22,22.35Z"/><path class="cls-64" d="M44.83,28.57l-.33-.27.34-.2.34.29C45.13,28.58,45,28.52,44.83,28.57Z"/><path class="cls-60" d="M20.29,21l0-.26c.23.05.49.06.54.38l0,.2C20.6,21.29,20.46,21.1,20.29,21Z"/><path class="cls-65" d="M25.63,23.27c.18-.22.44-.14.68-.18l.12.17C26.17,23.61,25.9,23.33,25.63,23.27Z"/><path class="cls-2" d="M18.72,20l.52.06c-.07.25.12.37.26.52A.78.78,0,0,1,18.72,20Z"/><path class="cls-66" d="M42.16,20l-.47.08-.27-.05a.75.75,0,0,1,.77-.35Z"/><path class="cls-67" d="M17.64,18.64l-.12.15c-.33,0-.4-.26-.47-.51C17.31,18.3,17.54,18.35,17.64,18.64Z"/><path class="cls-68" d="M43.24,18.92a.56.56,0,0,1,.55-.65C43.87,18.72,43.5,18.77,43.24,18.92Z"/><path class="cls-2" d="M40.28,21.16l.29-.05a.9.9,0,0,1-.9.54l.06-.15C39.79,21.2,40.06,21.22,40.28,21.16Z"/><path class="cls-69" d="M44.83,17l.16.13a.46.46,0,0,1-.51.42A.63.63,0,0,1,44.83,17Z"/><path class="cls-32" d="M33.24,23.56l.25.07a2.22,2.22,0,0,1-1.08.18c0-.06,0-.12,0-.18C32.66,23.41,33,23.54,33.24,23.56Z"/><path class="cls-8" d="M41,30a1.71,1.71,0,0,1-.92.35A1,1,0,0,1,41,30Z"/><path class="cls-24" d="M15.87,17.22l.19-.26a.75.75,0,0,1,.34.62A.55.55,0,0,1,15.87,17.22Z"/><path class="cls-2" d="M42.36,19.76l.69-.46C42.91,19.58,42.79,19.9,42.36,19.76Z"/><path class="cls-3" d="M7.68,19.87l-.32-.36-.09-.32A.65.65,0,0,1,7.68,19.87Z"/><path class="cls-8" d="M35.63,31.61a1.34,1.34,0,0,1-.92.16A1.24,1.24,0,0,1,35.63,31.61Z"/><path class="cls-32" d="M31.86,23.44a5.08,5.08,0,0,1-2.84,0Z"/><path class="cls-29" d="M40.28,21.16a.74.74,0,0,1-.55.34l-.25-.26A.88.88,0,0,1,40,21Z"/><path class="cls-32" d="M28.41,23.42a1.54,1.54,0,0,1-1-.16A2.11,2.11,0,0,1,28.41,23.42Z"/><path class="cls-70" d="M33.24,23.56l-.85.07v-.21l.48,0Z"/><path class="cls-10" d="M32.21,32.46h.36a.26.26,0,0,1,.37,0,14,14,0,0,1-5,0,.27.27,0,0,1,.37,0h.54A17.15,17.15,0,0,1,32.21,32.46Z"/><path class="cls-55" d="M28.31,32.45l-.37,0-.58-.16.95,0Z"/><path class="cls-29" d="M32.94,32.5l-.37,0c0-.05,0-.1,0-.15l.94,0v.08l-.09,0Z"/><path class="cls-12" d="M33.43,32.47l.09-.12.83,0A1.23,1.23,0,0,1,33.43,32.47Z"/><path class="cls-71" d="M5.71,8.5c0-1.18,0-2.36,0-3.54,0-1,.68-.82,1.28-.9s.93.23.92.85c0,2.42,0,4.84-.06,7.26,0,1-1,.68-1.52.78s-.62-.38-.62-.81V8.5Z"/><path class="cls-71" d="M52.29,6.45c0-.36,0-.71,0-1.07,0-1.43.1-1.51,1.56-1.3.39.06.61.2.62.6,0,1.27,0,2.53,0,3.8,0,.44-.24.61-.68.62-1.39.05-1.51,0-1.51-1.41V6.45Z"/><path class="cls-2" d="M44.3,7.78c0-1,0-2.07,0-3.1,0-.82.47-.83,1-.82s1.15-.08,1.15.81c0,2.12,0,4.25,0,6.38,0,.49-.09.94-.72.83s-1.49.22-1.47-.91,0-2.13,0-3.19Z"/><path class="cls-15" d="M46.76,4.44V7.29h-.08V4.44Z"/><path class="cls-72" d="M44,6.55V4.48h.09v2.1Z"/><path class="cls-71" d="M28.32,7.37c0-1,0-2,0-3,0-.5.15-.66.66-.66,1.5,0,1.55,0,1.55,1.51s-.05,3.26,0,4.88c0,1.09-.64.95-1.34,1s-.94-.27-.9-1c.05-.92,0-1.83,0-2.75Z"/><path class="cls-15" d="M28.89,11.23h1v.08H28.82Z"/><path class="cls-71" d="M38.46,7.61c0,1,0,1.89,0,2.84,0,.54-.17.88-.77.79s-1.38.27-1.39-.76c0-2,0-4,0-6,0-.7.46-.73,1-.7s1.16-.17,1.18.67c0,1.06,0,2.13,0,3.19Z"/><path class="cls-73" d="M40.24,11.34V5.19h.09v6.18Z"/><path class="cls-73" d="M13.4,8.54V3h.09V8.5Z"/><path class="cls-74" d="M47.21,21.91c.11.3.77-.15.54.4s-.6.84-1.13.58a3.4,3.4,0,0,1-1.39-1.32c-.26-.44.1-.78.41-1.07s.68-.42,1-.07S47.88,21.14,47.21,21.91Z"/><path class="cls-54" d="M32.21,32.46a18,18,0,0,1-3.36,0A8.09,8.09,0,0,1,32.21,32.46Z"/></g></g></svg>