<svg xmlns="http://www.w3.org/2000/svg" viewBox="0 0 300 21"><defs><style>.cls-1{fill:#fff;}</style></defs><g id="Layer_2" data-name="Layer 2"><g id="Layer_1-2" data-name="Layer 1"><rect width="300" height="21"/><path class="cls-1" d="M34.32,14.78l.62-.51V8.21l-.62-.52V7.6h3v.09l-1,.52V14.4H38.1l1.43-1h.09l-.18,1.46H34.32Z"/><path class="cls-1" d="M41.53,14.51a3.52,3.52,0,0,1-1.31-1.37,4.2,4.2,0,0,1,0-3.82A3.52,3.52,0,0,1,41.53,8,4,4,0,0,1,45.4,8a3.49,3.49,0,0,1,1.31,1.36,4.22,4.22,0,0,1,0,3.83,3.59,3.59,0,0,1-1.31,1.37,4,4,0,0,1-3.87,0Zm4.08-1.27a3.21,3.21,0,0,0,.27-1.32,4.08,4.08,0,0,0-.42-1.79A3.84,3.84,0,0,0,44.3,8.69a2.63,2.63,0,0,0-1.62-.56,2.74,2.74,0,0,0-.56.06,2.52,2.52,0,0,0-.87,1A3,3,0,0,0,41,10.51a4,4,0,0,0,.44,1.8,4,4,0,0,0,1.2,1.45,2.78,2.78,0,0,0,1.68.56,2.94,2.94,0,0,0,.51-.05A2.56,2.56,0,0,0,45.61,13.24Z"/><path class="cls-1" d="M47.83,14.78l.62-.51V8.21l-.62-.52V7.6h2.28a3.93,3.93,0,0,1,1.5.26,2.35,2.35,0,0,1,1,.75A1.83,1.83,0,0,1,53,9.73a1.89,1.89,0,0,1-.24.95,2.22,2.22,0,0,1-.63.7,2.63,2.63,0,0,1-.86.38l1.12.7.9,1.81.54.51v.1H52.08l-1.56-3c-.21,0-.45,0-.69,0v2.35l1,.51v.1h-3ZM50,11.45a1.63,1.63,0,0,0,.79-.2,1.47,1.47,0,0,0,.57-.59,1.88,1.88,0,0,0,.21-.91,1.81,1.81,0,0,0-.21-.9,1.39,1.39,0,0,0-.57-.58,1.52,1.52,0,0,0-.79-.2h-.12v3.38Z"/><path class="cls-1" d="M54.34,14.78l.62-.52v-6l-.62-.52V7.6h5L58.83,9h-.09l-.76-1H56.33v3.06l2.33-.33-.3.8h-2v2.8H58l1.43-1h.09l-.18,1.46h-5Z"/><path class="cls-1" d="M61.54,14.78l.62-.51V8.07a3.58,3.58,0,0,0-1,.32,3.52,3.52,0,0,0-.88.63h-.1L60.6,7.6h5.08L65.22,9h-.1a2.35,2.35,0,0,0-.68-.6,2.85,2.85,0,0,0-.9-.35v6.2l.62.51v.1H61.54Z"/><path class="cls-1" d="M67.73,14.51a3.59,3.59,0,0,1-1.31-1.37,4.2,4.2,0,0,1,0-3.82A3.59,3.59,0,0,1,67.73,8,4,4,0,0,1,71.6,8a3.43,3.43,0,0,1,1.31,1.36,4.14,4.14,0,0,1,0,3.83,3.49,3.49,0,0,1-1.3,1.37,4,4,0,0,1-3.88,0Zm4.09-1.27a3.21,3.21,0,0,0,.27-1.32,4.1,4.1,0,0,0-.43-1.79A3.84,3.84,0,0,0,70.5,8.69a2.63,2.63,0,0,0-1.62-.56,2.81,2.81,0,0,0-.56.06,2.52,2.52,0,0,0-.87,1,3,3,0,0,0-.28,1.32,3.92,3.92,0,0,0,.44,1.8,4,4,0,0,0,1.19,1.45,2.8,2.8,0,0,0,1.68.56,3,3,0,0,0,.52-.05A2.65,2.65,0,0,0,71.82,13.24Z"/><path class="cls-1" d="M74,14.6l.38-1.23h.1l1.37,1.18A2.26,2.26,0,0,0,77,14.3a.8.8,0,0,0,.42-.72,1.16,1.16,0,0,0-.18-.61,2.65,2.65,0,0,0-.6-.64,9.1,9.1,0,0,0-1.14-.74,3.16,3.16,0,0,1-1.11-1,2,2,0,0,1-.35-1.15,1.91,1.91,0,0,1,1.09-1.76,2.6,2.6,0,0,1,1.21-.26,4.31,4.31,0,0,1,1.1.13,3.17,3.17,0,0,1,.92.37l-.45,1.43h-.1L76.54,7.93a1.93,1.93,0,0,0-1,.24.79.79,0,0,0-.4.71,1.22,1.22,0,0,0,.16.6,2,2,0,0,0,.54.54,9,9,0,0,0,1,.68,4.27,4.27,0,0,1,1.39,1.17,2.07,2.07,0,0,1,.45,1.22,1.75,1.75,0,0,1-.31,1,2,2,0,0,1-.89.67,3.37,3.37,0,0,1-1.36.25A4.93,4.93,0,0,1,74,14.6Z"/><path class="cls-1" d="M80.42,14.78l.62-.51V8.07a3.58,3.58,0,0,0-1,.32,3.52,3.52,0,0,0-.88.63H79l.45-1.42h5.08L84.1,9H84a2.35,2.35,0,0,0-.68-.6,2.85,2.85,0,0,0-.9-.35v6.2l.62.51v.1H80.42Z"/><path class="cls-1" d="M85.26,14.78l.63-.51V8.21l-.63-.52V7.6h2.28a3.87,3.87,0,0,1,1.5.26,2.35,2.35,0,0,1,1,.75,1.78,1.78,0,0,1,.37,1.12,1.89,1.89,0,0,1-.24.95,2.25,2.25,0,0,1-.64.7,2.55,2.55,0,0,1-.86.38l1.13.7.89,1.81.55.51v.1H89.52L88,11.9c-.22,0-.45,0-.7,0v2.35l1,.51v.1h-3Zm2.12-3.33a1.6,1.6,0,0,0,.79-.2,1.47,1.47,0,0,0,.57-.59A1.88,1.88,0,0,0,89,9.75a1.81,1.81,0,0,0-.21-.9,1.39,1.39,0,0,0-.57-.58,1.5,1.5,0,0,0-.79-.2h-.12v3.38Z"/><path class="cls-1" d="M91.68,14.78l.57-.51L94.37,9.1,94,8.58l1.16-1.12h.09L98,14.27l.57.51v.1H95.48v-.09l1-.52L96,13h-2.7l-.53,1.27,1,.51v.1H91.68Zm4.13-2.22L94.63,9.73l-1.16,2.83Z"/><path class="cls-1" d="M99.16,14.6l.38-1.23h.1L101,14.55a2.33,2.33,0,0,0,1.18-.25.8.8,0,0,0,.42-.72,1.16,1.16,0,0,0-.18-.61,3,3,0,0,0-.61-.64,9.1,9.1,0,0,0-1.14-.74,3.35,3.35,0,0,1-1.11-1,2,2,0,0,1-.34-1.15,1.9,1.9,0,0,1,.28-1,2,2,0,0,1,.81-.73,2.6,2.6,0,0,1,1.21-.26,4.36,4.36,0,0,1,1.1.13,3.1,3.1,0,0,1,.91.37l-.44,1.43H103l-1.28-1.46a1.94,1.94,0,0,0-1,.24.8.8,0,0,0-.39.71,1.12,1.12,0,0,0,.16.6A1.91,1.91,0,0,0,101,10a10.29,10.29,0,0,0,1.05.68,4.27,4.27,0,0,1,1.39,1.17,2.12,2.12,0,0,1,.44,1.22,1.68,1.68,0,0,1-.31,1,2,2,0,0,1-.89.67,3.29,3.29,0,0,1-1.35.25A5,5,0,0,1,99.16,14.6Z"/><path class="cls-1" d="M104.53,14.6l.38-1.23h.1l1.37,1.18a2.26,2.26,0,0,0,1.17-.25.81.81,0,0,0,.43-.72,1.09,1.09,0,0,0-.19-.61,2.65,2.65,0,0,0-.6-.64,9.1,9.1,0,0,0-1.14-.74,3.16,3.16,0,0,1-1.11-1,2,2,0,0,1-.35-1.15,1.9,1.9,0,0,1,.29-1,2,2,0,0,1,.8-.73,2.64,2.64,0,0,1,1.22-.26,4.28,4.28,0,0,1,1.09.13,3.17,3.17,0,0,1,.92.37l-.45,1.43h-.09l-1.29-1.46a1.93,1.93,0,0,0-1,.24.8.8,0,0,0-.39.71,1.12,1.12,0,0,0,.16.6,1.78,1.78,0,0,0,.53.54,8.43,8.43,0,0,0,1,.68,4.23,4.23,0,0,1,1.38,1.17,2.07,2.07,0,0,1,.45,1.22,1.68,1.68,0,0,1-.31,1,2,2,0,0,1-.89.67,3.37,3.37,0,0,1-1.36.25A4.93,4.93,0,0,1,104.53,14.6Z"/><path class="cls-1" d="M109.89,14.78l.63-.52v-6l-.63-.52V7.6h5L114.39,9h-.09l-.76-1h-1.65v3.06l2.33-.33-.3.8h-2v2.8h1.64l1.42-1h.1l-.18,1.46h-5Z"/><path class="cls-1" d="M118.47,14.78l.6-.51V9.43L118,9.23V9.14l2.34-1.54h.1v6.67l.61.51v.1h-2.58Z"/><path class="cls-1" d="M122,15.71a1.26,1.26,0,0,0,.18-.66,1.38,1.38,0,0,0-.11-.55,1.7,1.7,0,0,0-.34-.53l.89-.89a1.85,1.85,0,0,1,.54,1.2,1.37,1.37,0,0,1-.29.83,2.9,2.9,0,0,1-.81.67Z"/><path class="cls-1" d="M127.74,14.63a2.81,2.81,0,0,1-1-1.15,4,4,0,0,1-.41-1.88,5.05,5.05,0,0,1,.49-2.39A3.33,3.33,0,0,1,128,7.87a2.67,2.67,0,0,1,1.37-.41,3.38,3.38,0,0,1,1,.14,3.23,3.23,0,0,1,.86.37l-.78,1.32h-.09l-.76-1.36s-.16,0-.47.16a2.34,2.34,0,0,0-.88.91,4.1,4.1,0,0,0-.48,1.89l2.38-.34a2.54,2.54,0,0,1,1,.83,2.13,2.13,0,0,1,.36,1.21,2.52,2.52,0,0,1-.33,1.33,2.1,2.1,0,0,1-.88.82,2.72,2.72,0,0,1-1.21.27A2.61,2.61,0,0,1,127.74,14.63Zm2.06-.54a2.09,2.09,0,0,0,.27-1.12,3.31,3.31,0,0,0-.14-1,2,2,0,0,0-.45-.82l-1.73.25a6.8,6.8,0,0,0,.31,2.37,1,1,0,0,0,.94.78A.89.89,0,0,0,129.8,14.09Z"/><path class="cls-1" d="M133.2,14.87a4.63,4.63,0,0,1-.92-.38l.78-1.33h.09l.77,1.38a2,2,0,0,0,.93-.2,1.41,1.41,0,0,0,.64-.59,1.75,1.75,0,0,0,.23-.94,2.29,2.29,0,0,0-.73-1.65l-1.64.23v-.47l1.51-.21a1.63,1.63,0,0,0,.47-.58,2,2,0,0,0,.16-.83,1.38,1.38,0,0,0-.18-.7,1.31,1.31,0,0,0-.5-.49,1.43,1.43,0,0,0-.72-.18l-.76,1.36h-.09L132.46,8a4.07,4.07,0,0,1,2.15-.51,2.94,2.94,0,0,1,1.21.24,2.14,2.14,0,0,1,.83.67,1.56,1.56,0,0,1,.3.93,1.44,1.44,0,0,1-.35.94,2.13,2.13,0,0,1-1,.61,2.35,2.35,0,0,1,.78.38,2.32,2.32,0,0,1,.6.68,1.78,1.78,0,0,1,.23.88,2,2,0,0,1-.35,1.16,2.25,2.25,0,0,1-1,.79,3.76,3.76,0,0,1-1.48.28A4.58,4.58,0,0,1,133.2,14.87Z"/><path class="cls-1" d="M139.77,14.58a3.4,3.4,0,0,1-1.24-1.28,4,4,0,0,1-.5-2.05,4.25,4.25,0,0,1,.49-2.11,3.32,3.32,0,0,1,1.25-1.27,3.06,3.06,0,0,1,3.06,0,3.23,3.23,0,0,1,1.25,1.24,4,4,0,0,1,.5,2,4.23,4.23,0,0,1-.5,2.12,3.41,3.41,0,0,1-1.25,1.3,3.06,3.06,0,0,1-1.53.43A3.15,3.15,0,0,1,139.77,14.58Zm3.36-1.27a3.18,3.18,0,0,0,.25-1.26,4,4,0,0,0-.23-1.31,4.13,4.13,0,0,0-.63-1.19,4,4,0,0,0-1-.92,3.22,3.22,0,0,0-1.27-.48,2.57,2.57,0,0,0-.76,1,3.2,3.2,0,0,0-.25,1.27,4,4,0,0,0,.23,1.31,4.22,4.22,0,0,0,.62,1.19,3.85,3.85,0,0,0,1,.92,3.63,3.63,0,0,0,1.3.48A2.62,2.62,0,0,0,143.13,13.31Z"/><path class="cls-1" d="M147.16,14.58a3.42,3.42,0,0,1-1.25-1.28,4,4,0,0,1-.49-2.05,4.14,4.14,0,0,1,.49-2.11,3.3,3.3,0,0,1,1.24-1.27,3.08,3.08,0,0,1,3.07,0,3.3,3.3,0,0,1,1.25,1.24,4.05,4.05,0,0,1,.49,2,4.23,4.23,0,0,1-.5,2.12,3.41,3.41,0,0,1-1.25,1.3,3,3,0,0,1-1.53.43A3.09,3.09,0,0,1,147.16,14.58Zm3.36-1.27a3.36,3.36,0,0,0,.24-1.26,4,4,0,0,0-.22-1.31,4.43,4.43,0,0,0-.64-1.19,4,4,0,0,0-1-.92,3.23,3.23,0,0,0-1.26-.48,2.48,2.48,0,0,0-.76,1,3.2,3.2,0,0,0-.25,1.27,4,4,0,0,0,.22,1.31,4,4,0,0,0,.63,1.19,3.81,3.81,0,0,0,1,.92,3.7,3.7,0,0,0,1.3.48A2.76,2.76,0,0,0,150.52,13.31Z"/><path class="cls-1" d="M155,14.78l3.8-6.71h-1.87l-1.54,1h-.1l.27-1.45h5.06v.09l-3.81,6.71h2.53l1.55-1h.1l-.27,1.45H155Z"/><path class="cls-1" d="M163.25,14.73a2,2,0,0,1-.8-.81,2.47,2.47,0,0,1-.28-1.2V8.21l-.62-.52V7.6h3v.09l-1,.52v4.52a2,2,0,0,0,.18.89,1.29,1.29,0,0,0,.52.56,1.38,1.38,0,0,0,.74.19,2.36,2.36,0,0,0,.89-.18,2.19,2.19,0,0,0,.75-.5V8.21l-1-.52V7.6h3v.09l-.62.52v6.06l.62.51v.1h-1.86l-.13-.56a2.83,2.83,0,0,1-.92.52,3.8,3.8,0,0,1-1.21.18A2.59,2.59,0,0,1,163.25,14.73Z"/><path class="cls-1" d="M171,14.51a3.57,3.57,0,0,1-1.33-1.37,4.12,4.12,0,0,1,0-3.82A3.57,3.57,0,0,1,171,8a3.74,3.74,0,0,1,2-.5,4.7,4.7,0,0,1,2.29.5l-.44,1.44h-.1a4.21,4.21,0,0,0-2.9-1.22h-.26a2.5,2.5,0,0,0-.84,1,2.88,2.88,0,0,0-.27,1.24,4.26,4.26,0,0,0,.48,1.92,4.71,4.71,0,0,0,1.23,1.59,2.27,2.27,0,0,0,1.49.6h.1V12.36l-1.13-.66v-.1h3.22v.1l-.71.66v2.52l-.43-.12a5.35,5.35,0,0,1-1.73.25A3.83,3.83,0,0,1,171,14.51Z"/><path class="cls-1" d="M193.18,14.58a3.42,3.42,0,0,1-1.25-1.28,4,4,0,0,1-.49-2.05,4.14,4.14,0,0,1,.49-2.11,3.3,3.3,0,0,1,1.24-1.27,3.08,3.08,0,0,1,3.07,0,3.3,3.3,0,0,1,1.25,1.24,4,4,0,0,1,.49,2,4.23,4.23,0,0,1-.5,2.12,3.34,3.34,0,0,1-1.25,1.3,3,3,0,0,1-1.53.43A3.09,3.09,0,0,1,193.18,14.58Zm3.36-1.27a3.36,3.36,0,0,0,.24-1.26,4,4,0,0,0-.22-1.31,4.43,4.43,0,0,0-.64-1.19,4.17,4.17,0,0,0-1-.92,3.34,3.34,0,0,0-1.27-.48,2.48,2.48,0,0,0-.76,1,3.2,3.2,0,0,0-.25,1.27,4,4,0,0,0,.22,1.31,4,4,0,0,0,.63,1.19,3.81,3.81,0,0,0,1,.92,3.7,3.7,0,0,0,1.3.48A2.65,2.65,0,0,0,196.54,13.31Z"/><path class="cls-1" d="M200.82,14.78l.87-.66V12.54h-2.92l2.72-4.8,2-.28-3.89,4.6h2.07V10.29L203,8.77h.09v3.29l1.43-.2v.68h-1.43v1.58l.62.66v.1h-2.87Z"/><path class="cls-1" d="M205.48,14.78l.6-.51V9.43L205,9.23V9.14l2.35-1.54h.1v6.67l.6.51v.1h-2.58Z"/><path class="cls-1" d="M215,9.2l.22-.23h-2.48l-1.56.24.3-1.61h4.31V9l-2.25,5.77-2,.28Z"/><path class="cls-1" d="M216.88,14.78l.6-.51V9.43l-1.07-.2V9.14l2.35-1.54h.1v6.67l.6.51v.1h-2.58Z"/><path class="cls-1" d="M220.59,14.78l.6-.51V9.43l-1.07-.2V9.14l2.35-1.54h.1v6.67l.6.51v.1h-2.58Z"/><path class="cls-1" d="M230.07,9.2,230.3,9h-2.49l-1.55.24.3-1.61h4.3V9l-2.24,5.77-2,.28Z"/><path class="cls-1" d="M233.35,14.58a3.42,3.42,0,0,1-1.25-1.28,4.09,4.09,0,0,1-.49-2.05,4.14,4.14,0,0,1,.49-2.11,3.25,3.25,0,0,1,1.25-1.27,3.06,3.06,0,0,1,3.06,0,3.3,3.3,0,0,1,1.25,1.24,4,4,0,0,1,.49,2,4.23,4.23,0,0,1-.49,2.12,3.36,3.36,0,0,1-1.26,1.3,3,3,0,0,1-1.52.43A3.1,3.1,0,0,1,233.35,14.58Zm3.36-1.27a3.36,3.36,0,0,0,.24-1.26,4,4,0,0,0-.22-1.31,4.17,4.17,0,0,0-.64-1.19,4,4,0,0,0-1-.92,3.28,3.28,0,0,0-1.27-.48,2.57,2.57,0,0,0-.76,1,3.2,3.2,0,0,0-.25,1.27,4,4,0,0,0,.22,1.31,4.53,4.53,0,0,0,.63,1.19,3.7,3.7,0,0,0,1,.92,3.56,3.56,0,0,0,1.3.48A2.73,2.73,0,0,0,236.71,13.31Z"/><path class="cls-1" d="M242.16,14.85a3.68,3.68,0,0,1-.87-.36l.76-1.33h.09l.77,1.38a1.84,1.84,0,0,0,1-.24,1.7,1.7,0,0,0,.62-.66,1.76,1.76,0,0,0,.22-.87,2.52,2.52,0,0,0-.52-1.64l-2.7.36V7.6h4.21l-.27,1.59L243.83,9H242v2l2.91-.41a2.31,2.31,0,0,1,1,.84,2.22,2.22,0,0,1,.35,1.27,2,2,0,0,1-.37,1.19,2.62,2.62,0,0,1-1.05.85,3.79,3.79,0,0,1-2.59.15Z"/><path class="cls-1" d="M249,14.78l.87-.66V12.54h-2.92l2.72-4.8,2-.28-3.89,4.6h2.07V10.29l1.29-1.52h.09v3.29l1.42-.2v.68h-1.42v1.58l.62.66v.1H249Z"/><rect class="cls-1" x="182" y="5.05" width="1" height="12"/></g></g></svg>