<svg xmlns="http://www.w3.org/2000/svg" viewBox="0 0 163.01 37"><defs><style>.cls-1{isolation:isolate;}</style></defs><g id="Layer_2" data-name="Layer 2"><g id="Layer_1-2" data-name="Layer 1"><g class="cls-1"><path d="M5,.92V14.76H8.38a6.74,6.74,0,0,0,1.53-.14,2.49,2.49,0,0,0,1.1-.71,3.87,3.87,0,0,0,.84-1.33,17.4,17.4,0,0,0,.63-2.14H13l-.42,4.89H0v-.57H2.36V.92H0V.35H7.51V.92Z"/><path d="M21.9,15.68A6.19,6.19,0,0,1,17,13.24a8,8,0,0,1-2-5.21,8.16,8.16,0,0,1,2.13-5.68A6.49,6.49,0,0,1,22,0a6.25,6.25,0,0,1,4.75,2.39,8,8,0,0,1,2.1,5.43,8,8,0,0,1-2.11,5.49A6.34,6.34,0,0,1,21.9,15.68ZM22,.57a4.4,4.4,0,0,0-2.21.56,3,3,0,0,0-1.33,2A23.15,23.15,0,0,0,18.06,8a29.51,29.51,0,0,0,.2,3.83,4.58,4.58,0,0,0,1,2.37,3.28,3.28,0,0,0,2.58.94A4.55,4.55,0,0,0,24,14.54a3,3,0,0,0,1.41-2.24,29.08,29.08,0,0,0,.33-5.14,15.42,15.42,0,0,0-.41-4.33A3,3,0,0,0,24,1.1,4,4,0,0,0,22,.57Z"/><path d="M34,14.76V.92H31.65V.35h8.21a10.23,10.23,0,0,1,2.65.28,3.49,3.49,0,0,1,1.78,1.15,3,3,0,0,1,.75,2,2.81,2.81,0,0,1-1.1,2.3,8.29,8.29,0,0,1-3.71,1.33v.06a6.3,6.3,0,0,1,3.08,1.43,4.59,4.59,0,0,1,1.2,3.6,3.37,3.37,0,0,0,.34,1.86,1.18,1.18,0,0,0,.95.4,3.69,3.69,0,0,0,.94-.15v.54a5.63,5.63,0,0,1-1.88.34,3,3,0,0,1-2.6-1,3.2,3.2,0,0,1-.74-2l0-1.9a3.55,3.55,0,0,0-.63-2c-.42-.64-1.37-1-2.86-1h-1.4v7.12H39v.57H31.65v-.57ZM36.67.92v6.2h2a8.31,8.31,0,0,0,2-.18A1.71,1.71,0,0,0,41.75,6a5,5,0,0,0,.41-2.33,3.4,3.4,0,0,0-.42-1.91,1.67,1.67,0,0,0-1-.74A6.42,6.42,0,0,0,39.21.92Z"/><path d="M53.94.92V7.34h1.35A4.28,4.28,0,0,0,56.5,7.2a1.6,1.6,0,0,0,.89-.75,3.9,3.9,0,0,0,.46-1.92h.58v6.34h-.58a3.63,3.63,0,0,0-.7-2.38,2.61,2.61,0,0,0-1.86-.58H53.94v6.85H57c1.72,0,2.92-.36,3.59-1.09a5.53,5.53,0,0,0,1.19-3.36h.57l-.15,5H48.91v-.57h2.38V.92H48.91V.35H61.65l.25,4h-.57a4.32,4.32,0,0,0-1.19-2.63,4.51,4.51,0,0,0-3-.8Z"/><path d="M64.79.35H77.56L78,5.44h-.57A8,8,0,0,0,76,1.9a2.86,2.86,0,0,0-2.27-1H72.5V14.76h2.68v.57h-8v-.57h2.68V.92H68.63a2.86,2.86,0,0,0-2.27,1A8,8,0,0,0,65,5.44H64.4Z"/><path d="M87.44,15.68a6.19,6.19,0,0,1-4.93-2.44,8,8,0,0,1-2-5.21,8.16,8.16,0,0,1,2.13-5.68A6.49,6.49,0,0,1,87.55,0,6.22,6.22,0,0,1,92.3,2.39a8,8,0,0,1,2.1,5.43,8,8,0,0,1-2.1,5.49A6.35,6.35,0,0,1,87.44,15.68Zm0-15.11a4.4,4.4,0,0,0-2.21.56A3,3,0,0,0,84,3.1,23.15,23.15,0,0,0,83.6,8a29.51,29.51,0,0,0,.2,3.83,4.5,4.5,0,0,0,1,2.37,3.28,3.28,0,0,0,2.58.94,4.58,4.58,0,0,0,2.15-.57A3,3,0,0,0,91,12.3a29.08,29.08,0,0,0,.33-5.14,15.42,15.42,0,0,0-.41-4.33A3,3,0,0,0,89.57,1.1,4,4,0,0,0,87.49.57Z"/><path d="M104.84,14.76V.92h-2.36V.35h7.4V.92H107.5v6.4H114V.92h-2.34V.35H119V.92h-2.35V14.76H119v.57h-7.35v-.57H114V7.89H107.5v6.87h2.38v.57h-7.4v-.57Z"/><path d="M129.76,10.66H125l-1.53,4.1h2.77v.57h-5.43v-.57h2.06L128.34,0h.35l5.24,14.76h2v.57H128.8v-.57h2.42Zm-4.55-.57h4.35l-2.11-6h0Z"/><path d="M140.05,14.76V.92h-2.44V.35h7.57V.92h-2.47V14.76h2.47v.57h-7.57v-.57Z"/><path d="M150.28,14.76V.92h-2.36V.35h8.22a10.2,10.2,0,0,1,2.64.28,3.49,3.49,0,0,1,1.78,1.15,3,3,0,0,1,.75,2,2.81,2.81,0,0,1-1.1,2.3,8.29,8.29,0,0,1-3.71,1.33v.06a6.3,6.3,0,0,1,3.08,1.43,4.59,4.59,0,0,1,1.2,3.6,3.37,3.37,0,0,0,.34,1.86,1.18,1.18,0,0,0,.95.4,3.69,3.69,0,0,0,.94-.15v.54a5.63,5.63,0,0,1-1.88.34,3,3,0,0,1-2.6-1,3.2,3.2,0,0,1-.74-2l0-1.9a3.55,3.55,0,0,0-.63-2c-.42-.64-1.37-1-2.86-1h-1.4v7.12h2.36v.57h-7.38v-.57ZM152.94.92v6.2h2a8.25,8.25,0,0,0,2-.18A1.71,1.71,0,0,0,158,6a5,5,0,0,0,.41-2.33A3.4,3.4,0,0,0,158,1.8a1.67,1.67,0,0,0-1-.74,6.42,6.42,0,0,0-1.53-.14Z"/></g><g class="cls-1"><path d="M20.11,25H22.8l1.6,5.3h0L26,25h2.62v.29H27.55v6.92h1.11v.28H25.13v-.28h1.15v-7h0L24,32.49h-.26l-2.23-7.33h0v7.05h1.14v.28H20.11v-.28h1.12V25.29H20.11Z"/><path d="M34.9,30.16H32.52l-.76,2.05h1.38v.28H30.43v-.28h1l2.73-7.38h.18L37,32.21h1v.28H34.42v-.28h1.21Zm-2.27-.29H34.8l-1-3h0Z"/><path d="M46.19,25.29v7.38H46L41,25.25h0v7h1.27v.28H39.61v-.28h1.11V25.29H39.53V25h2.86l3.49,5.25h0v-5H44.66V25h2.66v.29Z"/><path d="M55.46,25.29H54.24V25h2.68v.29H55.74v4.53a5.14,5.14,0,0,1-.15,1.45,1.65,1.65,0,0,1-.54.79,2.39,2.39,0,0,1-.93.46,4.28,4.28,0,0,1-1.13.15,3.25,3.25,0,0,1-1.8-.39,1.55,1.55,0,0,1-.7-1,6.75,6.75,0,0,1-.13-1.51V25.29H49.27V25h3.59v.29H51.68v4.4a9,9,0,0,0,.08,1.43,1.53,1.53,0,0,0,.45.87,1.69,1.69,0,0,0,1.17.34,2.57,2.57,0,0,0,1.16-.26,1.52,1.52,0,0,0,.72-.72,4.44,4.44,0,0,0,.2-1.66Z"/><path d="M61.31,25.29V28.5H62a2.18,2.18,0,0,0,.61-.07.87.87,0,0,0,.45-.38,2,2,0,0,0,.22-1h.29v3.18h-.29a1.77,1.77,0,0,0-.35-1.2,1.31,1.31,0,0,0-.93-.29h-.67v3.43h1.52a2.36,2.36,0,0,0,1.8-.55A2.76,2.76,0,0,0,65.22,30h.29l-.07,2.5H58.79v-.28H60V25.29H58.79V25h6.37l.13,2H65a2.2,2.2,0,0,0-.6-1.31,2.26,2.26,0,0,0-1.51-.4Z"/><path d="M70.09,25.29v6.92h1.68a3.06,3.06,0,0,0,.76-.07,1.25,1.25,0,0,0,.55-.35,1.86,1.86,0,0,0,.42-.67,8.57,8.57,0,0,0,.32-1.07h.26l-.2,2.44h-6.3v-.28h1.18V25.29H67.58V25h3.75v.29Z"/><path d="M80.06,30.16H77.68l-.76,2.05H78.3v.28H75.59v-.28h1l2.73-7.38h.18l2.62,7.38h1v.28H79.58v-.28H80.8Zm-2.27-.29H80l-1-3h0Z"/><path d="M91,25.29v6.92h1.68a3.15,3.15,0,0,0,.77-.07,1.3,1.3,0,0,0,.55-.35,2,2,0,0,0,.42-.67c.09-.26.2-.61.31-1.07H95l-.2,2.44h-6.3v-.28h1.18V25.29H88.45V25h3.76v.29Z"/><path d="M100.19,32.67a3.09,3.09,0,0,1-2.46-1.22,4,4,0,0,1-1-2.6A4.08,4.08,0,0,1,97.78,26a3.22,3.22,0,0,1,2.47-1.18A3.12,3.12,0,0,1,102.62,26a4.09,4.09,0,0,1,0,5.47A3.19,3.19,0,0,1,100.19,32.67Zm0-7.56a2.19,2.19,0,0,0-1.11.29,1.44,1.44,0,0,0-.66,1,11.06,11.06,0,0,0-.18,2.43,14,14,0,0,0,.1,1.92,2.24,2.24,0,0,0,.51,1.18,1.62,1.62,0,0,0,1.29.47,2.29,2.29,0,0,0,1.08-.28A1.51,1.51,0,0,0,102,31a14.61,14.61,0,0,0,.16-2.57,7.61,7.61,0,0,0-.2-2.17,1.53,1.53,0,0,0-.65-.86A2,2,0,0,0,100.22,25.11Zm-1.78-1.78a.56.56,0,0,1,.17-.4.53.53,0,0,1,.39-.16.56.56,0,1,1,0,1.12.51.51,0,0,1-.39-.16A.54.54,0,0,1,98.44,23.33Zm2.4,0a.55.55,0,0,1,.16-.4.53.53,0,0,1,.39-.16.56.56,0,1,1,0,1.12.53.53,0,0,1-.39-.16A.54.54,0,0,1,100.84,23.33Z"/><path d="M106.81,32.21V25.29h-1.18V25h3.7v.29h-1.19v3.2h3.23v-3.2H110.2V25h3.68v.29H112.7v6.92h1.18v.28H110.2v-.28h1.17V28.77h-3.23v3.44h1.19v.28h-3.7v-.28Z"/><path d="M117.2,32.21V25.29H116V25h4.1a5.27,5.27,0,0,1,1.32.14,1.83,1.83,0,0,1,.9.58,1.55,1.55,0,0,1,.37,1,1.39,1.39,0,0,1-.55,1.15,4.06,4.06,0,0,1-1.85.66v0a3.25,3.25,0,0,1,1.54.72,2.29,2.29,0,0,1,.6,1.8,1.6,1.6,0,0,0,.17.93.59.59,0,0,0,.47.2,1.84,1.84,0,0,0,.47-.08v.28a2.9,2.9,0,0,1-.94.16,1.52,1.52,0,0,1-1.3-.51,1.64,1.64,0,0,1-.37-1l0-.95a1.79,1.79,0,0,0-.31-1q-.31-.48-1.44-.48h-.69v3.56h1.17v.28H116v-.28Zm1.33-6.92v3.1h1a4.16,4.16,0,0,0,1-.09.85.85,0,0,0,.54-.45,2.43,2.43,0,0,0,.21-1.17,1.69,1.69,0,0,0-.21-.95.81.81,0,0,0-.5-.37,3.2,3.2,0,0,0-.77-.07Z"/><path d="M128,25.29V28.5h.67a2.18,2.18,0,0,0,.61-.07.8.8,0,0,0,.45-.38,1.88,1.88,0,0,0,.22-1h.29v3.18h-.29a1.77,1.77,0,0,0-.35-1.2,1.31,1.31,0,0,0-.93-.29H128v3.43h1.52a2.35,2.35,0,0,0,1.8-.55,2.76,2.76,0,0,0,.59-1.67h.29l-.07,2.5h-6.65v-.28h1.19V25.29h-1.19V25h6.37l.13,2h-.28a2.2,2.2,0,0,0-.6-1.31,2.26,2.26,0,0,0-1.51-.4Z"/><path d="M135.59,32.21V25.29h-1.17V25h4.1a5.27,5.27,0,0,1,1.32.14,1.76,1.76,0,0,1,.89.58,1.51,1.51,0,0,1,.38,1,1.39,1.39,0,0,1-.55,1.15,4.06,4.06,0,0,1-1.85.66v0a3.25,3.25,0,0,1,1.54.72,2.29,2.29,0,0,1,.6,1.8A1.6,1.6,0,0,0,141,32a.59.59,0,0,0,.47.2,1.84,1.84,0,0,0,.47-.08v.28a3,3,0,0,1-.94.16,1.52,1.52,0,0,1-1.3-.51,1.58,1.58,0,0,1-.37-1l0-.95a1.79,1.79,0,0,0-.31-1q-.31-.48-1.44-.48h-.7v3.56h1.18v.28h-3.68v-.28Zm1.33-6.92v3.1h1a4.16,4.16,0,0,0,1-.09.85.85,0,0,0,.54-.45,2.43,2.43,0,0,0,.21-1.17,1.69,1.69,0,0,0-.21-.95.81.81,0,0,0-.5-.37,3.2,3.2,0,0,0-.77-.07Z"/></g><rect x="24.2" y="36.57" width="114.42" height="0.43"/><rect x="24.2" y="19.98" width="114.42" height="0.43"/></g></g></svg>