<svg xmlns="http://www.w3.org/2000/svg" width="274.03" height="45.63" viewBox="0 0 274.03 45.63"><defs><style>.cls-1{fill:#2f2e5b;}</style></defs><g id="Layer_2" data-name="Layer 2"><g id="Livello_1" data-name="Livello 1"><path class="cls-1" d="M0,.22H2.11V8.29c0,2.65,2,4.6,6.25,4.6S14.61,11,14.61,8.38V.22h2.14V8.1c0,4.24-3.26,6.66-8.45,6.66S0,12.3,0,8.1Z"/><path class="cls-1" d="M21.54.22H24L35.88,12.08V.22H38V14.54H35.4L23.63,2.71V14.54H21.54Z"/><path class="cls-1" d="M47.48,14.54c0-.08-.47-1-1.08-2.33L41.84,2.55c-.61-1.34-1-2.26-1.07-2.33h2.37L48.6,12.3c0-.07.35-.84.83-2L53,2.18c.48-1.12.81-1.89.83-2h2.38L61.56,12.3c0-.07.35-.84.83-2l3.48-8.16c.49-1.12.82-1.89.84-2H69L62.7,14.54H60.44l-.88-2L55.84,4.27c-.51-1.12-.86-1.92-.88-2L49.74,14.54Z"/><path class="cls-1" d="M72.05.22h2.16V14.54H72.05Z"/><path class="cls-1" d="M78.83.22h2.48L93.17,12.08V.22h2.11V14.54H92.69L80.92,2.71V14.54H78.83Z"/><path class="cls-1" d="M99.79.22h9.79c3.92,0,7.59,2,7.59,7.15s-3.74,7.17-7.65,7.17H99.79Zm9.64,12.5c3.47,0,5.59-2.07,5.59-5.33s-2.12-5.34-5.57-5.34h-7.57V12.72Z"/><path class="cls-1" d="M129.16.22h2.16V14.54h-2.16Z"/><path class="cls-1" d="M135.94.22h2.48l11.86,11.86V.22h2.11V14.54H149.8L138,2.71V14.54h-2.09Z"/><path class="cls-1" d="M173.49,0c3.83,0,6.14,1.3,7.53,2.73,0,0-1.35,1.41-1.37,1.43a8.44,8.44,0,0,0-5.9-2.33c-4.4,0-7.3,2.35-7.3,5.56S169.29,13,173.87,13a9.37,9.37,0,0,0,6.11-2.4L181.21,12a11.71,11.71,0,0,1-7.67,2.72c-5.51,0-9.27-3-9.27-7.37C164.27,2.9,168.43,0,173.49,0Z"/><path class="cls-1" d="M184.84.22H187V6h12.65V.22h2.2V14.54h-2.2V7.85H187v6.69h-2.14Z"/><path class="cls-1" d="M213.55.22h2.27l9.06,14.32H222.4l-1.89-3.1H208.8l-1.91,3.1h-2.31ZM209.9,9.7h9.51l-4.78-7.63Z"/><path class="cls-1" d="M227.63.22h2.49L242,12.08V.22h2.11V14.54h-2.6L229.72,2.71V14.54h-2.09Z"/><path class="cls-1" d="M248.71.22h2.15V14.54h-2.15Z"/><path class="cls-1" d="M262.7.22H265L274,14.54h-2.48l-1.9-3.1H258L256,14.54h-2.31ZM259.05,9.7h9.5l-4.77-7.63Z"/><path class="cls-1" d="M14.65,24.15a6.61,6.61,0,0,1,4,1.3l.77-1.3h.41L19,29.46h-.22c-.21,0-.35-.16-.44-.47s-.17-.69-.25-1.13a6.89,6.89,0,0,0-.39-1.33,2.31,2.31,0,0,0-1-1.14,3.72,3.72,0,0,0-2-.47A5.39,5.39,0,0,0,11,26.29a8.25,8.25,0,0,0-2.33,3.53,14.2,14.2,0,0,0-.77,4.77,6.88,6.88,0,0,0,1,4A3.52,3.52,0,0,0,12,40a6.33,6.33,0,0,0,2.26-.38,4,4,0,0,0,1.5-1,8,8,0,0,0,.91-1.25,8.21,8.21,0,0,0,.6-1.25,4.78,4.78,0,0,1,.46-1,.67.67,0,0,1,.56-.38h.22l-1,5.83h-.43l-.41-1.42a8.38,8.38,0,0,1-4.82,1.51A5.63,5.63,0,0,1,7.37,39a6.89,6.89,0,0,1-1.62-4.72A10.48,10.48,0,0,1,8.3,27.07,8.1,8.1,0,0,1,14.65,24.15Z"/><path class="cls-1" d="M26.72,31c-.57.29-1.32,1.37-2.23,3.23a23.07,23.07,0,0,0-1.92,5.51l-.17.81H20.79l1.8-9.45-2.13,1.49-.36-.41c1.39-1.63,2.41-2.45,3.07-2.45s1.06.38,1.06,1.13A22.33,22.33,0,0,1,23.05,36h.1a21.66,21.66,0,0,1,1.14-2.82,12.35,12.35,0,0,1,1.05-1.81,5,5,0,0,1,1-1,3,3,0,0,1,.83-.45,3.15,3.15,0,0,1,.71-.08,1.58,1.58,0,0,1,.93.29.88.88,0,0,1,.39.74.93.93,0,0,1-.36.77,1.32,1.32,0,0,1-.84.29A1.12,1.12,0,0,1,26.72,31Z"/><path class="cls-1" d="M31.76,40.81a3.32,3.32,0,0,1-2.52-1,3.87,3.87,0,0,1-.91-2.75,8.91,8.91,0,0,1,.36-2.51,9.12,9.12,0,0,1,1.06-2.34,5.25,5.25,0,0,1,1.89-1.79,5.46,5.46,0,0,1,2.72-.68,2.78,2.78,0,0,1,1.89.59A2,2,0,0,1,37,32c0,1-.65,1.85-1.93,2.57a15.17,15.17,0,0,1-4.86,1.58,3.56,3.56,0,0,0,.4,2.59,2.21,2.21,0,0,0,1.95.94A5.57,5.57,0,0,0,36,38l.38.36A6,6,0,0,1,31.76,40.81Zm-1.53-5.4a7.37,7.37,0,0,0,3.38-1.19,2.8,2.8,0,0,0,1.49-2.29,1.47,1.47,0,0,0-.32-1,1.13,1.13,0,0,0-.86-.35,3,3,0,0,0-2.23,1.37A7.46,7.46,0,0,0,30.23,35.41Z"/><path class="cls-1" d="M38.39,38.94,40,30.82H38.27l.12-.57a3.74,3.74,0,0,0,2.11-.89,6.21,6.21,0,0,0,1.32-2.28h.48l-.6,3h2.59l-.14.74h-2.6L39.9,39.37l2.42-1.59.31.41a12.24,12.24,0,0,1-2,1.84,3.29,3.29,0,0,1-1.49.78c-.41,0-.68-.11-.79-.34A3.19,3.19,0,0,1,38.39,38.94Z"/><path class="cls-1" d="M47.72,40.81a3.32,3.32,0,0,1-2.52-1,3.87,3.87,0,0,1-.91-2.75,8.91,8.91,0,0,1,.36-2.51,9.12,9.12,0,0,1,1.06-2.34,5.25,5.25,0,0,1,1.89-1.79,5.46,5.46,0,0,1,2.72-.68,2.78,2.78,0,0,1,1.89.59,2,2,0,0,1,.7,1.64c0,1-.65,1.85-1.93,2.57a15.17,15.17,0,0,1-4.86,1.58,3.56,3.56,0,0,0,.4,2.59,2.21,2.21,0,0,0,1.95.94A5.57,5.57,0,0,0,52,38l.38.36A6,6,0,0,1,47.72,40.81Zm-1.53-5.4a7.37,7.37,0,0,0,3.38-1.19,2.8,2.8,0,0,0,1.49-2.29,1.47,1.47,0,0,0-.32-1,1.13,1.13,0,0,0-.86-.35,3,3,0,0,0-2.23,1.37A7.46,7.46,0,0,0,46.19,35.41Z"/><path class="cls-1" d="M56.91,23.79a.81.81,0,0,1,.66.28,1.05,1.05,0,0,1,.26.75,4,4,0,0,1-.92,2.2,6.44,6.44,0,0,1-2.23,2l-.24-.46a5.28,5.28,0,0,0,1.75-2.47.82.82,0,0,1-.6-.87,1.37,1.37,0,0,1,.41-1A1.25,1.25,0,0,1,56.91,23.79Z"/><path class="cls-1" d="M59.22,40.81A4.28,4.28,0,0,1,57,40.26a1.66,1.66,0,0,1-.87-1.44,1.1,1.1,0,0,1,.28-.83.9.9,0,0,1,.65-.28c.64,0,1,.35,1,1.06a1.62,1.62,0,0,1-.38,1.1,4,4,0,0,0,1.7.31,2.77,2.77,0,0,0,1.91-.63A2,2,0,0,0,61.91,38a1.63,1.63,0,0,0-.46-1.08,4.63,4.63,0,0,0-1.1-.88c-.43-.26-.87-.52-1.31-.8a4.26,4.26,0,0,1-1.12-1A2.07,2.07,0,0,1,57.47,33a2.88,2.88,0,0,1,1.08-2.34,4.14,4.14,0,0,1,2.69-.87,3.76,3.76,0,0,1,2.07.55,1.7,1.7,0,0,1,.88,1.49,1,1,0,0,1-.29.75.9.9,0,0,1-.65.28.92.92,0,0,1-.73-.31,1,1,0,0,1-.28-.7,1.86,1.86,0,0,1,.41-1.15,3.16,3.16,0,0,0-1.27-.24,2.44,2.44,0,0,0-1.57.52,1.72,1.72,0,0,0-.66,1.45,1.47,1.47,0,0,0,.45,1,5.38,5.38,0,0,0,1.1.86c.42.26.85.52,1.28.8a4.29,4.29,0,0,1,1.1,1,2.1,2.1,0,0,1,.46,1.32A3,3,0,0,1,62.3,39.8,4.72,4.72,0,0,1,59.22,40.81Z"/><path class="cls-1" d="M78.32,29.77a1.7,1.7,0,0,1,1.31.47,1.76,1.76,0,0,1,.44,1.28,11.69,11.69,0,0,1-.67,3.12h.1a10.55,10.55,0,0,1,2.23-3.7,3.41,3.41,0,0,1,2.14-1.17,1.67,1.67,0,0,1,1.3.47,1.77,1.77,0,0,1,.45,1.28,6.61,6.61,0,0,1-.17,1.42l-1.39,6.43,2.09-1.27.31.4a15.49,15.49,0,0,1-1.81,1.65,2.72,2.72,0,0,1-1.29.66q-1,0-1-.84a2.66,2.66,0,0,1,.1-.72L83.65,34a7.74,7.74,0,0,0,.26-1.76q0-1.17-.93-1.17c-.74,0-1.55.88-2.45,2.65a22.66,22.66,0,0,0-2,5.65l-.24,1.15H76.71L78.11,34a8.35,8.35,0,0,0,.26-1.76c0-.78-.31-1.17-.94-1.17S75.87,32,75,33.72A19.78,19.78,0,0,0,73,39.27l-.24,1.27H71.17L73,31.09l-2.14,1.49-.36-.41c1.4-1.63,2.42-2.45,3.08-2.45s1,.38,1,1.13a17.17,17.17,0,0,1-.93,4.22h.09a12,12,0,0,1,2.37-4.13A3.37,3.37,0,0,1,78.32,29.77Z"/><path class="cls-1" d="M93.75,29.77a3.64,3.64,0,0,1,2.88,1.15,4.33,4.33,0,0,1,1,3,7.06,7.06,0,0,1-1.83,4.8,5.5,5.5,0,0,1-4.25,2.09Q88,40.81,88,36.63a7.36,7.36,0,0,1,1.67-4.81A5,5,0,0,1,93.75,29.77Zm-.14.74a2.66,2.66,0,0,0-2.11,1.12,6.91,6.91,0,0,0-1.32,2.59,11,11,0,0,0-.41,2.92c0,2,.67,3,2,3a2.94,2.94,0,0,0,2.29-1.18,7.07,7.07,0,0,0,1.41-2.63,9.83,9.83,0,0,0,.42-2.74C95.91,31.52,95.15,30.51,93.61,30.51Z"/><path class="cls-1" d="M101.77,40.81a4.28,4.28,0,0,1-2.27-.55,1.66,1.66,0,0,1-.87-1.44,1.1,1.1,0,0,1,.28-.83.91.91,0,0,1,.65-.28c.64,0,1,.35,1,1.06a1.62,1.62,0,0,1-.38,1.1,4,4,0,0,0,1.7.31,2.77,2.77,0,0,0,1.91-.63,2,2,0,0,0,.71-1.53,1.58,1.58,0,0,0-.46-1.08,4.63,4.63,0,0,0-1.1-.88c-.43-.26-.87-.52-1.31-.8a4.26,4.26,0,0,1-1.12-1A2.07,2.07,0,0,1,100,33a2.88,2.88,0,0,1,1.08-2.34,4.14,4.14,0,0,1,2.69-.87,3.76,3.76,0,0,1,2.07.55,1.68,1.68,0,0,1,.88,1.49,1,1,0,0,1-.29.75.9.9,0,0,1-.65.28.92.92,0,0,1-.73-.31,1.05,1.05,0,0,1-.28-.7,1.86,1.86,0,0,1,.41-1.15,3.16,3.16,0,0,0-1.27-.24,2.44,2.44,0,0,0-1.57.52,1.72,1.72,0,0,0-.66,1.45,1.47,1.47,0,0,0,.45,1,5.38,5.38,0,0,0,1.1.86c.42.26.85.52,1.28.8a4.29,4.29,0,0,1,1.1,1,2.1,2.1,0,0,1,.46,1.32,3,3,0,0,1-1.24,2.38A4.72,4.72,0,0,1,101.77,40.81Z"/><path class="cls-1" d="M108.18,38.94l1.56-8.12h-1.68l.12-.57a3.71,3.71,0,0,0,2.11-.89,6.21,6.21,0,0,0,1.32-2.28h.48l-.6,3h2.59l-.14.74h-2.59l-1.66,8.55,2.42-1.59.32.41a12.72,12.72,0,0,1-2,1.84,3.32,3.32,0,0,1-1.48.78c-.42,0-.68-.11-.8-.34A3.19,3.19,0,0,1,108.18,38.94Z"/><path class="cls-1" d="M118.76,40.74l2.93-14.91a1.27,1.27,0,0,0,0-.85,1.1,1.1,0,0,0-.71-.42l-.23-.06-.2-.05-.17,0-.13-.05a.38.38,0,0,0-.11-.05s-.08,0-.09-.05a.17.17,0,0,1-.06-.06.09.09,0,0,1,0-.07.41.41,0,0,0,0-.1.16.16,0,0,1,0-.1l.05-.24,3.7-.53.07.09-1.47,7.47a24.39,24.39,0,0,1-.86,3.31h.09a8.59,8.59,0,0,1,2.34-3.3,4,4,0,0,1,2.37-1,2.59,2.59,0,0,1,2.11.95,4.15,4.15,0,0,1,.79,2.74,9.11,9.11,0,0,1-.63,3.3,7.39,7.39,0,0,1-2,2.85,4.51,4.51,0,0,1-6.13,0l-1.32,1.13Zm4.47-.8a3.47,3.47,0,0,0,2.94-2,8.91,8.91,0,0,0,1.21-4.63c0-1.6-.55-2.4-1.66-2.4-.81,0-1.68.6-2.6,1.8a12,12,0,0,0-2.05,4.72l-.34,1.49A3.4,3.4,0,0,0,123.23,39.94Z"/><path class="cls-1" d="M134.27,40.81a3.29,3.29,0,0,1-2.52-1,3.87,3.87,0,0,1-.92-2.75,8.91,8.91,0,0,1,.36-2.51,9.47,9.47,0,0,1,1.06-2.34,5.2,5.2,0,0,1,1.9-1.79,5.43,5.43,0,0,1,2.71-.68,2.78,2.78,0,0,1,1.89.59,2,2,0,0,1,.7,1.64c0,1-.65,1.85-1.93,2.57a15.17,15.17,0,0,1-4.86,1.58,3.51,3.51,0,0,0,.41,2.59,2.19,2.19,0,0,0,1.94.94,5.57,5.57,0,0,0,3.48-1.7l.38.36A6,6,0,0,1,134.27,40.81Zm-1.54-5.4a7.37,7.37,0,0,0,3.38-1.19,2.78,2.78,0,0,0,1.49-2.29,1.47,1.47,0,0,0-.32-1,1.13,1.13,0,0,0-.86-.35,3,3,0,0,0-2.23,1.37A7.46,7.46,0,0,0,132.73,35.41Z"/><path class="cls-1" d="M143.58,40.81q-2.81,0-2.81-3.7a8.89,8.89,0,0,1,.37-2.52,9.31,9.31,0,0,1,1.06-2.36A5.5,5.5,0,0,1,144,30.45a4.59,4.59,0,0,1,2.43-.68,4.29,4.29,0,0,1,3,1.17l1.25-1.12h.48a66.56,66.56,0,0,0-1.95,9.57l2.07-1.27.31.41c-1.43,1.5-2.43,2.25-3,2.25a.88.88,0,0,1-1-1,10.83,10.83,0,0,1,.48-2.91h-.1Q146.07,40.82,143.58,40.81Zm.57-1.08c.8,0,1.68-.71,2.64-2.11a12.83,12.83,0,0,0,2-4.85l.22-1.13a3.37,3.37,0,0,0-2.31-1,3.42,3.42,0,0,0-2.91,1.94,8.81,8.81,0,0,0-1.19,4.71C142.57,38.9,143.1,39.73,144.15,39.73Z"/><path class="cls-1" d="M162.92,30l.15.15-1.76,9.24,2.07-1.27.31.4c-1.43,1.51-2.43,2.26-3,2.26a.89.89,0,0,1-1-1,10.4,10.4,0,0,1,.45-2.69l.43-1.53h-.09A11.54,11.54,0,0,1,158,39.67a3.61,3.61,0,0,1-2.28,1.19A1.56,1.56,0,0,1,154,39.1a6.53,6.53,0,0,1,.17-1.41l1.34-6.6-2.13,1.49-.36-.41a13.19,13.19,0,0,1,1.78-1.75,2.48,2.48,0,0,1,1.36-.7c.69,0,1,.3,1,.91a8.63,8.63,0,0,1-.2,1.25l-1,4.73a7.78,7.78,0,0,0-.26,1.75c0,.78.31,1.18.93,1.18s1.55-.92,2.54-2.75a21,21,0,0,0,2.05-5.44l.26-1.27Z"/><path class="cls-1" d="M165.37,38.94l1.56-8.12h-1.68l.12-.57a3.71,3.71,0,0,0,2.11-.89,6.21,6.21,0,0,0,1.32-2.28h.48l-.6,3h2.59l-.14.74h-2.59l-1.66,8.55,2.42-1.59.32.41a12.72,12.72,0,0,1-2,1.84,3.32,3.32,0,0,1-1.48.78c-.42,0-.68-.11-.8-.34A3.19,3.19,0,0,1,165.37,38.94Z"/><path class="cls-1" d="M172.23,40.63a.89.89,0,0,1-.21-.69,6.18,6.18,0,0,1,.12-1l1.51-7.85-2.14,1.49-.36-.41c1.39-1.63,2.42-2.45,3.07-2.45s1.06.38,1.06,1.13a6.67,6.67,0,0,1-.17,1.25l-1.46,7.27,2-1.27.31.4a14.72,14.72,0,0,1-1.81,1.65,2.68,2.68,0,0,1-1.29.66A1.05,1.05,0,0,1,172.23,40.63Zm3-13.84a1.13,1.13,0,0,0,1.13-1.13,1.13,1.13,0,0,0-1.13-1.12,1.06,1.06,0,0,0-.79.32,1.05,1.05,0,0,0-.34.8,1.07,1.07,0,0,0,.34.81A1.1,1.1,0,0,0,175.21,26.79Z"/><path class="cls-1" d="M175.11,45.63a1.68,1.68,0,0,1-1.09-.35,1,1,0,0,1-.44-.82.94.94,0,0,1,.31-.74,1.09,1.09,0,0,1,.74-.27,1.37,1.37,0,0,1,.93.38,1.75,1.75,0,0,1,.51,1.11c.8-.34,1.39-1.6,1.78-3.8q1.08-6.21,1.92-10.34h-2.19l.12-.46,2.21-.24a14.66,14.66,0,0,1,2.17-5.35q1.46-2,3.09-2a1.58,1.58,0,0,1,1,.29.86.86,0,0,1,.39.72.89.89,0,0,1-.34.74,1.26,1.26,0,0,1-.82.27,1.58,1.58,0,0,1-.86-.29,1.52,1.52,0,0,1-.62-.82q-1.26,1-2,5.12l-.26,1.36h2.59l-.15.7h-2.59a86.84,86.84,0,0,1-1.91,9.29A12.75,12.75,0,0,1,177.85,44,3.45,3.45,0,0,1,175.11,45.63Z"/><path class="cls-1" d="M193.81,30l.14.15-1.75,9.24,2.06-1.27.32.4c-1.43,1.51-2.44,2.26-3,2.26a.9.9,0,0,1-1-1,10.48,10.48,0,0,1,.46-2.69l.43-1.53h-.09a11.39,11.39,0,0,1-2.43,4.14,3.61,3.61,0,0,1-2.28,1.19,1.55,1.55,0,0,1-1.75-1.76,6.53,6.53,0,0,1,.17-1.41l1.34-6.6-2.13,1.49-.36-.41a13.16,13.16,0,0,1,1.77-1.75,2.5,2.5,0,0,1,1.37-.7c.69,0,1,.3,1,.91a8.1,8.1,0,0,1-.19,1.25l-1,4.73a7.33,7.33,0,0,0-.27,1.75c0,.78.32,1.18.94,1.18s1.55-.92,2.53-2.75a20.32,20.32,0,0,0,2-5.44l.27-1.27Z"/><path class="cls-1" d="M200.62,23.26l-3.09,16.11,2-1.27.31.4a14.72,14.72,0,0,1-1.81,1.65,2.68,2.68,0,0,1-1.29.66c-.41,0-.68-.11-.79-.34a3.19,3.19,0,0,1,0-1.53l2.52-13.11a1.34,1.34,0,0,0,0-.85,1.13,1.13,0,0,0-.71-.42l-.23-.06-.2-.05-.17,0-.13-.05-.11-.05a.3.3,0,0,1-.1-.05l-.06-.06a.11.11,0,0,1,0-.07s0-.06,0-.1a.11.11,0,0,1,0-.1l.05-.24,3.69-.53Z"/><path class="cls-1" d="M209.79,40.81a3.32,3.32,0,0,1-2.52-1,3.87,3.87,0,0,1-.91-2.75,8.91,8.91,0,0,1,.36-2.51,9.12,9.12,0,0,1,1.06-2.34,5.25,5.25,0,0,1,1.89-1.79,5.45,5.45,0,0,1,2.71-.68,2.81,2.81,0,0,1,1.9.59A2,2,0,0,1,215,32c0,1-.65,1.85-1.94,2.57a15,15,0,0,1-4.86,1.58,3.56,3.56,0,0,0,.41,2.59,2.2,2.2,0,0,0,1.95.94A5.57,5.57,0,0,0,214,38l.38.36A6,6,0,0,1,209.79,40.81Zm-1.53-5.4a7.37,7.37,0,0,0,3.38-1.19,2.8,2.8,0,0,0,1.49-2.29,1.42,1.42,0,0,0-.33-1,1.11,1.11,0,0,0-.85-.35,3,3,0,0,0-2.23,1.37A7.36,7.36,0,0,0,208.26,35.41Z"/><path class="cls-1" d="M218.72,40.81a4.28,4.28,0,0,1-2.27-.55,1.66,1.66,0,0,1-.87-1.44,1.1,1.1,0,0,1,.28-.83.9.9,0,0,1,.65-.28c.64,0,1,.35,1,1.06a1.62,1.62,0,0,1-.38,1.1,4,4,0,0,0,1.7.31,2.77,2.77,0,0,0,1.91-.63,2,2,0,0,0,.71-1.53,1.63,1.63,0,0,0-.46-1.08,4.63,4.63,0,0,0-1.1-.88c-.43-.26-.87-.52-1.31-.8a4.26,4.26,0,0,1-1.12-1A2.07,2.07,0,0,1,217,33a2.88,2.88,0,0,1,1.08-2.34,4.14,4.14,0,0,1,2.69-.87,3.76,3.76,0,0,1,2.07.55,1.7,1.7,0,0,1,.88,1.49,1,1,0,0,1-.29.75.9.9,0,0,1-.65.28.92.92,0,0,1-.73-.31,1,1,0,0,1-.28-.7,1.86,1.86,0,0,1,.41-1.15,3.16,3.16,0,0,0-1.27-.24,2.44,2.44,0,0,0-1.57.52,1.72,1.72,0,0,0-.66,1.45,1.47,1.47,0,0,0,.45,1,5.38,5.38,0,0,0,1.1.86c.42.26.85.52,1.28.8a4.29,4.29,0,0,1,1.1,1,2.1,2.1,0,0,1,.46,1.32,3,3,0,0,1-1.24,2.38A4.72,4.72,0,0,1,218.72,40.81Z"/><path class="cls-1" d="M231.17,29.74a3.22,3.22,0,0,1,1.91.47,1.39,1.39,0,0,1,.64,1.17.86.86,0,0,1-.3.67,1,1,0,0,1-.66.26,1.23,1.23,0,0,1-1-.44,1.68,1.68,0,0,1-.35-1.05,1.42,1.42,0,0,1,0-.33,3.6,3.6,0,0,0-2.12.66,4.64,4.64,0,0,0-1.46,1.68,9.37,9.37,0,0,0-.79,2.07,8.12,8.12,0,0,0-.27,2c0,1.88.8,2.83,2.38,2.83A5.66,5.66,0,0,0,232.64,38l.38.36a6,6,0,0,1-4.6,2.47,3.19,3.19,0,0,1-2.5-1A4.1,4.1,0,0,1,225,37a8,8,0,0,1,1.66-5.1A5.44,5.44,0,0,1,231.17,29.74Z"/><path class="cls-1" d="M236.84,40.81q-2.81,0-2.81-3.7a8.89,8.89,0,0,1,.37-2.52,9.31,9.31,0,0,1,1.06-2.36,5.44,5.44,0,0,1,1.79-1.78,4.53,4.53,0,0,1,2.42-.68,4.29,4.29,0,0,1,3,1.17l1.25-1.12h.48a66.56,66.56,0,0,0-2,9.57l2.07-1.27.31.41c-1.42,1.5-2.43,2.25-3,2.25a.88.88,0,0,1-1-1,10.83,10.83,0,0,1,.48-2.91h-.1Q239.33,40.82,236.84,40.81Zm.57-1.08c.8,0,1.68-.71,2.64-2.11a12.83,12.83,0,0,0,2-4.85l.22-1.13a3.37,3.37,0,0,0-2.31-1A3.42,3.42,0,0,0,237,32.55a8.9,8.9,0,0,0-1.19,4.71C235.83,38.9,236.36,39.73,237.41,39.73Z"/><path class="cls-1" d="M250.06,30.82a11.6,11.6,0,0,1-.55,2.88h.1q1.84-3.93,4.34-3.93,2.81,0,2.81,3.69a9.15,9.15,0,0,1-.37,2.52,9.38,9.38,0,0,1-1.06,2.37,5.32,5.32,0,0,1-1.79,1.77,4.46,4.46,0,0,1-2.42.69,4.54,4.54,0,0,1-2.86-.82l-.62,3.19a1.18,1.18,0,0,0,.08.84.84.84,0,0,0,.53.41,5.44,5.44,0,0,0,.7.15,2.2,2.2,0,0,1,.59.15.3.3,0,0,1,.19.35l0,.31h-5.93l.05-.33c0-.16.13-.28.35-.36a3.58,3.58,0,0,1,.7-.18,1.47,1.47,0,0,0,.76-.41,1.73,1.73,0,0,0,.49-1l2.33-12-2.14,1.49-.36-.41c1.4-1.63,2.42-2.45,3.08-2.45S250.06,30.09,250.06,30.82Zm.79,9.2a3.43,3.43,0,0,0,2.92-2A9,9,0,0,0,255,33.32c0-1.65-.53-2.47-1.58-2.47-.82,0-1.7.66-2.63,2a12.58,12.58,0,0,0-2,5l-.27,1.34A3.33,3.33,0,0,0,250.85,40Z"/><path class="cls-1" d="M261.87,40.81a3.32,3.32,0,0,1-2.52-1,3.87,3.87,0,0,1-.91-2.75,8.91,8.91,0,0,1,.36-2.51,9.44,9.44,0,0,1,1.05-2.34,5.36,5.36,0,0,1,1.9-1.79,5.45,5.45,0,0,1,2.71-.68,2.83,2.83,0,0,1,1.9.59,2,2,0,0,1,.69,1.64c0,1-.64,1.85-1.93,2.57a15.17,15.17,0,0,1-4.86,1.58,3.56,3.56,0,0,0,.41,2.59,2.19,2.19,0,0,0,1.94.94,5.57,5.57,0,0,0,3.48-1.7l.39.36A6,6,0,0,1,261.87,40.81Zm-1.54-5.4a7.37,7.37,0,0,0,3.39-1.19,2.8,2.8,0,0,0,1.49-2.29,1.42,1.42,0,0,0-.33-1,1.11,1.11,0,0,0-.85-.35,3,3,0,0,0-2.23,1.37A7.36,7.36,0,0,0,260.33,35.41Z"/></g></g></svg>