<svg xmlns="http://www.w3.org/2000/svg" viewBox="0 0 247.09 51.57"><defs><style>.cls-1{fill:#fff;}</style></defs><g id="Layer_2" data-name="Layer 2"><g id="Layer_1-2" data-name="Layer 1"><path class="cls-1" d="M12,21.67a12.62,12.62,0,0,1-3.73.56,10.15,10.15,0,0,1-4.19-.84,6.8,6.8,0,0,1-3-2.56A7.7,7.7,0,0,1,0,14.56V7.7A7.82,7.82,0,0,1,1.11,3.41a6.82,6.82,0,0,1,3-2.57A10,10,0,0,1,8.24,0a11.38,11.38,0,0,1,3.4.53,10.5,10.5,0,0,1,3,1.49.38.38,0,0,1,.18.33.54.54,0,0,1-.09.27l-1.42,2a.37.37,0,0,1-.33.21.71.71,0,0,1-.3-.09,7.2,7.2,0,0,0-2.15-1,8.46,8.46,0,0,0-2.33-.33A4.75,4.75,0,0,0,4.86,4.57,4.14,4.14,0,0,0,3.64,7.73v6.74a4.19,4.19,0,0,0,1.22,3.19A4.8,4.8,0,0,0,8.27,18.8a8.85,8.85,0,0,0,2.63-.41,8.09,8.09,0,0,0,2.36-1.15.56.56,0,0,1,.28-.12q.18,0,.33.24l1.41,2a1.05,1.05,0,0,1,.12.3.43.43,0,0,1-.18.33A9.84,9.84,0,0,1,12,21.67Z"/><path class="cls-1" d="M18.35,21.87a.4.4,0,0,1-.45-.45V7.58a.49.49,0,0,1,.33-.51,10.31,10.31,0,0,1,2.51-.86,13.44,13.44,0,0,1,2.75-.28,19.85,19.85,0,0,1,3.07.24.39.39,0,0,1,.39.45V8.78a.34.34,0,0,1-.14.3.47.47,0,0,1-.34.06A17.31,17.31,0,0,0,24,9a6.76,6.76,0,0,0-2.65.43v12a.4.4,0,0,1-.45.45Z"/><path class="cls-1" d="M34.74,5.93a6.6,6.6,0,0,1,4.59,1.51A5.93,5.93,0,0,1,41,12v8.78a.53.53,0,0,1-.33.52,21,21,0,0,1-2.88.64,20.22,20.22,0,0,1-3.17.26A8.82,8.82,0,0,1,29.81,21a4.19,4.19,0,0,1-1.9-3.82,4.08,4.08,0,0,1,1.79-3.6,8.4,8.4,0,0,1,4.8-1.22,23.71,23.71,0,0,1,3,.24v-.57a3.31,3.31,0,0,0-.68-2.33A3.15,3.15,0,0,0,34.5,9a8.49,8.49,0,0,0-2.09.26,6.54,6.54,0,0,0-1.76.71.54.54,0,0,1-.27.09.37.37,0,0,1-.33-.21L28.84,8q-.21-.33,0-.51A10.21,10.21,0,0,1,34.74,5.93ZM32.3,18.69a4.72,4.72,0,0,0,2.32.5,12.48,12.48,0,0,0,2.89-.36v-3.4a20.3,20.3,0,0,0-2.92-.24c-2.11,0-3.16.66-3.16,2A1.63,1.63,0,0,0,32.3,18.69Z"/><path class="cls-1" d="M50.56,3a2.21,2.21,0,0,0-1.8.74,3,3,0,0,0-.63,2V6.5h3.45A.4.4,0,0,1,52,7V9.11a.41.41,0,0,1-.46.46H48.13V21.42a.4.4,0,0,1-.46.45H45.09a.4.4,0,0,1-.45-.45V5.81A5.78,5.78,0,0,1,46.16,1.5,5.26,5.26,0,0,1,50,0a11.13,11.13,0,0,1,1.83.12.42.42,0,0,1,.43.48V2.68q0,.45-.36.45A8.65,8.65,0,0,0,50.56,3Z"/><path class="cls-1" d="M57.87,16.42a2.8,2.8,0,0,0,.62,1.93,2.22,2.22,0,0,0,1.76.69L61.48,19q.48,0,.48.42v2.29a.42.42,0,0,1-.42.48q-1,.06-1.59.06a5.82,5.82,0,0,1-4-1.37,5.32,5.32,0,0,1-1.54-4.2V2.92q0-.42.45-.42h2.29a.44.44,0,0,1,.3.1.48.48,0,0,1,.15.29l.27,3.61h3.22q.45,0,.45.42V9.11c0,.29-.15.43-.45.43H57.87Z"/><path class="cls-1" d="M77,15.13q0,.42-.45.42H67.4v.84a2.52,2.52,0,0,0,.86,2.06,3.56,3.56,0,0,0,2.33.71,6.71,6.71,0,0,0,2.29-.36,8.69,8.69,0,0,0,2-1,.54.54,0,0,1,.27-.09.38.38,0,0,1,.33.18l1.24,1.65a.37.37,0,0,1,.12.27.39.39,0,0,1-.21.36,9.52,9.52,0,0,1-6.11,2.08,8.11,8.11,0,0,1-3.26-.65,5.41,5.41,0,0,1-3.33-5.22V12.09a6.15,6.15,0,0,1,.94-3.49,5.51,5.51,0,0,1,2.43-2,8.19,8.19,0,0,1,3.25-.64,8,8,0,0,1,3.22.64,5.44,5.44,0,0,1,2.38,2,6.31,6.31,0,0,1,.9,3.49Zm-3.4-3.07a2.89,2.89,0,0,0-.87-2.31,3.72,3.72,0,0,0-4.48,0,2.92,2.92,0,0,0-.85,2.33v.78h6.2Z"/><path class="cls-1" d="M89.39.81a.4.4,0,0,1,.45-.45h2.59a.4.4,0,0,1,.45.45V20.63a.5.5,0,0,1-.33.52,16.49,16.49,0,0,1-3,.79,18.15,18.15,0,0,1-3.09.29,7.3,7.3,0,0,1-5-1.66,6.26,6.26,0,0,1-1.88-5V12.3a6.61,6.61,0,0,1,.85-3.37,5.73,5.73,0,0,1,2.33-2.22,7.17,7.17,0,0,1,3.38-.78,8.11,8.11,0,0,1,3.25.66ZM83.1,15.64A3.54,3.54,0,0,0,84,18.33a3.64,3.64,0,0,0,2.57.83,8.08,8.08,0,0,0,2.83-.42V9.81A5,5,0,0,0,86.5,9c-2.26,0-3.4,1.1-3.4,3.28Z"/><path class="cls-1" d="M109.09,3a2.21,2.21,0,0,0-1.8.74,3,3,0,0,0-.64,2V6.5h3.46a.4.4,0,0,1,.45.45V9.11a.4.4,0,0,1-.45.46h-3.46V21.42a.4.4,0,0,1-.45.45h-2.58a.4.4,0,0,1-.45-.45V5.81a5.82,5.82,0,0,1,1.51-4.31A5.3,5.3,0,0,1,108.55,0a11.13,11.13,0,0,1,1.83.12c.29,0,.42.18.42.48V2.68q0,.45-.36.45A8.43,8.43,0,0,0,109.09,3Z"/><path class="cls-1" d="M125.94,16.15a5.62,5.62,0,0,1-1.87,4.44,8.43,8.43,0,0,1-10,0,5.61,5.61,0,0,1-1.86-4.44v-4a5.79,5.79,0,0,1,1.86-4.51,8.27,8.27,0,0,1,10,0,5.79,5.79,0,0,1,1.87,4.51Zm-10.2,0a2.74,2.74,0,0,0,.86,2.2,4.48,4.48,0,0,0,5,0,2.77,2.77,0,0,0,.86-2.2v-4a2.9,2.9,0,0,0-.88-2.27,4.23,4.23,0,0,0-4.94,0,2.9,2.9,0,0,0-.86,2.28Z"/><path class="cls-1" d="M129.63,21.87a.4.4,0,0,1-.45-.45V7.58a.49.49,0,0,1,.33-.51A10.39,10.39,0,0,1,132,6.21a13.44,13.44,0,0,1,2.75-.28,19.94,19.94,0,0,1,3.07.24.39.39,0,0,1,.39.45V8.78a.34.34,0,0,1-.14.3.47.47,0,0,1-.34.06A17.5,17.5,0,0,0,135.32,9a6.72,6.72,0,0,0-2.65.43v12a.4.4,0,0,1-.45.45Z"/><path class="cls-1" d="M155.92,6.71q0-.42.45-.42H159q.45,0,.45.42V20.88a7.45,7.45,0,0,1-1.64,5.26q-1.64,1.74-5.07,1.74a11,11,0,0,1-3.31-.45A7.49,7.49,0,0,1,146.81,26a.35.35,0,0,1-.18-.3.71.71,0,0,1,.09-.3L148,23.55q.15-.24.33-.24a.4.4,0,0,1,.24.09,7.21,7.21,0,0,0,4.09,1.39,3.33,3.33,0,0,0,2.53-.89,4.08,4.08,0,0,0,.75-3,11,11,0,0,1-3.22.54,7.13,7.13,0,0,1-3.1-.7,5.73,5.73,0,0,1-3.33-5.44V6.71q0-.42.45-.42h2.61a.38.38,0,0,1,.43.42v8.42a2.76,2.76,0,0,0,1,2.39,4.25,4.25,0,0,0,2.57.74,5.71,5.71,0,0,0,1.37-.17,5.18,5.18,0,0,0,1.19-.43Z"/><path class="cls-1" d="M176.43,16.15a5.61,5.61,0,0,1-1.86,4.44,8.43,8.43,0,0,1-10,0,5.61,5.61,0,0,1-1.86-4.44v-4a5.79,5.79,0,0,1,1.86-4.51,8.27,8.27,0,0,1,10,0,5.79,5.79,0,0,1,1.86,4.51Zm-10.19,0a2.76,2.76,0,0,0,.85,2.2,4.49,4.49,0,0,0,5,0,2.77,2.77,0,0,0,.86-2.2v-4A2.93,2.93,0,0,0,172,9.85a4.25,4.25,0,0,0-4.95,0,2.93,2.93,0,0,0-.85,2.28Z"/><path class="cls-1" d="M192.22,6.29c.31,0,.46.14.46.42V20.48a.56.56,0,0,1-.34.55,14.46,14.46,0,0,1-5.89,1.2,7.22,7.22,0,0,1-5-1.66q-1.85-1.65-1.84-5.11V6.71q0-.42.45-.42h2.62a.37.37,0,0,1,.42.42V15.4a3.93,3.93,0,0,0,.86,2.86,3.49,3.49,0,0,0,2.54.84,8.53,8.53,0,0,0,2.74-.36v-12a.37.37,0,0,1,.42-.42Z"/><path class="cls-1" d="M199.71,21.4a2.19,2.19,0,0,1-1.59.62,2.12,2.12,0,0,1-1.59-.62,2.18,2.18,0,0,1-.61-1.58,2.22,2.22,0,0,1,.61-1.61,2.12,2.12,0,0,1,1.59-.61,2.18,2.18,0,0,1,1.59.61,2.12,2.12,0,0,1,.64,1.61A2.09,2.09,0,0,1,199.71,21.4Z"/><path class="cls-1" d="M4.27,50.76q0,.45-.42.45H1.08q-.42,0-.42-.45V30.16q0-.45.42-.45H3.85q.42,0,.42.45Z"/><path class="cls-1" d="M9.05,51.21a.4.4,0,0,1-.45-.45V37a.56.56,0,0,1,.33-.55,15,15,0,0,1,6-1.17,7.51,7.51,0,0,1,5.13,1.64Q21.9,38.55,21.9,42v8.75q0,.45-.42.45H18.86a.4.4,0,0,1-.45-.45V42.07a3.81,3.81,0,0,0-.87-2.84,3.71,3.71,0,0,0-2.62-.83,11.22,11.22,0,0,0-2.83.33v12a.4.4,0,0,1-.45.45Z"/><path class="cls-1" d="M35.49,50.3a7.7,7.7,0,0,1-4.6,1.27,10.12,10.12,0,0,1-6.11-2,.35.35,0,0,1-.21-.3.49.49,0,0,1,.09-.3l1.15-2q.15-.24.3-.24a1.05,1.05,0,0,1,.3.12,7.89,7.89,0,0,0,2.19,1.14,7.21,7.21,0,0,0,2.35.4A3.88,3.88,0,0,0,33,48a1.41,1.41,0,0,0,.79-1.29A1.22,1.22,0,0,0,33,45.56,8.17,8.17,0,0,0,31,45a13,13,0,0,1-4.3-1.55A3.71,3.71,0,0,1,24.87,40a3.93,3.93,0,0,1,1.85-3.53,8.26,8.26,0,0,1,4.53-1.19,10.76,10.76,0,0,1,5.23,1.39q.24.15.24.33a.54.54,0,0,1-.09.27l-1.14,1.92a.39.39,0,0,1-.36.21,1,1,0,0,1-.24-.06,7.94,7.94,0,0,0-3.82-1,3.85,3.85,0,0,0-2,.45,1.36,1.36,0,0,0-.72,1.2,1.24,1.24,0,0,0,.77,1.21,12.35,12.35,0,0,0,2.57.72,16.19,16.19,0,0,1,2.77.74,4.8,4.8,0,0,1,2,1.39,3.82,3.82,0,0,1,.83,2.56A4.32,4.32,0,0,1,35.49,50.3Z"/><path class="cls-1" d="M43.49,45.77a2.79,2.79,0,0,0,.62,1.92,2.21,2.21,0,0,0,1.76.7l1.23-.06q.48,0,.48.42V51a.42.42,0,0,1-.42.48q-1,.06-1.59.06a5.82,5.82,0,0,1-4-1.36A5.34,5.34,0,0,1,40,46V32.26q0-.42.45-.42h2.29A.44.44,0,0,1,43,32a.45.45,0,0,1,.15.28l.27,3.61h3.22q.45,0,.45.42v2.2q0,.42-.45.42H43.49Z"/><path class="cls-1" d="M55.88,35.27a6.57,6.57,0,0,1,4.59,1.52,5.9,5.9,0,0,1,1.67,4.59v8.78a.52.52,0,0,1-.33.51,20.8,20.8,0,0,1-2.87.65,20.32,20.32,0,0,1-3.18.25A8.84,8.84,0,0,1,51,50.37a4.2,4.2,0,0,1-1.89-3.82A4,4,0,0,1,50.85,43a8.31,8.31,0,0,1,4.79-1.22,23.44,23.44,0,0,1,3,.24v-.57A3.25,3.25,0,0,0,58,39.08a3.14,3.14,0,0,0-2.33-.71,8.49,8.49,0,0,0-2.09.26,6.53,6.53,0,0,0-1.76.7.54.54,0,0,1-.27.09.37.37,0,0,1-.33-.21L50,37.38q-.21-.33,0-.51A10.11,10.11,0,0,1,55.88,35.27ZM53.45,48a4.66,4.66,0,0,0,2.31.5,11.87,11.87,0,0,0,2.89-.37V44.78a20.08,20.08,0,0,0-2.92-.24q-3.15,0-3.15,2A1.64,1.64,0,0,0,53.45,48Z"/><path class="cls-1" d="M70.68,51.57A4.61,4.61,0,0,1,67,50a6.44,6.44,0,0,1-1.31-4.3V30.16a.4.4,0,0,1,.45-.45H68.7a.4.4,0,0,1,.45.45V45.62a3.62,3.62,0,0,0,.48,2.12,1.75,1.75,0,0,0,1.5.65c.24,0,.62,0,1.15-.06a.4.4,0,0,1,.45.45V51q0,.45-.33.48A15.16,15.16,0,0,1,70.68,51.57Z"/><path class="cls-1" d="M79.8,51.57A4.62,4.62,0,0,1,76.08,50a6.44,6.44,0,0,1-1.31-4.3V30.16a.4.4,0,0,1,.45-.45h2.59a.4.4,0,0,1,.45.45V45.62a3.62,3.62,0,0,0,.48,2.12,1.76,1.76,0,0,0,1.51.65q.36,0,1.14-.06a.4.4,0,0,1,.45.45V51q0,.45-.33.48A15,15,0,0,1,79.8,51.57Z"/><path class="cls-1" d="M96.61,44.48q0,.42-.45.42H87v.84a2.52,2.52,0,0,0,.86,2.06,3.56,3.56,0,0,0,2.33.71,6.47,6.47,0,0,0,2.29-.37,8.69,8.69,0,0,0,2-1,.54.54,0,0,1,.27-.09.38.38,0,0,1,.33.18l1.24,1.66a.37.37,0,0,1,.12.27.39.39,0,0,1-.21.36,9.57,9.57,0,0,1-6.11,2.07,8.1,8.1,0,0,1-3.26-.64,5.38,5.38,0,0,1-3.32-5.22V41.44A6.11,6.11,0,0,1,84.43,38a5.51,5.51,0,0,1,2.43-2,8.2,8.2,0,0,1,3.25-.65,8,8,0,0,1,3.22.65,5.44,5.44,0,0,1,2.38,2,6.26,6.26,0,0,1,.9,3.49Zm-3.4-3.07a2.91,2.91,0,0,0-.87-2.32,3.31,3.31,0,0,0-2.23-.75,3.25,3.25,0,0,0-2.25.74A2.9,2.9,0,0,0,87,41.41v.78h6.2Z"/><path class="cls-1" d="M109,30.16a.4.4,0,0,1,.45-.45H112a.4.4,0,0,1,.45.45V50a.49.49,0,0,1-.33.51,16.48,16.48,0,0,1-3,.8,18.09,18.09,0,0,1-3.09.28,7.3,7.3,0,0,1-5-1.65,6.24,6.24,0,0,1-1.88-5V41.65a6.58,6.58,0,0,1,.84-3.37,5.82,5.82,0,0,1,2.33-2.23,7.17,7.17,0,0,1,3.38-.78,8.11,8.11,0,0,1,3.25.66ZM102.71,45a3.54,3.54,0,0,0,.89,2.69,3.64,3.64,0,0,0,2.57.83,7.84,7.84,0,0,0,2.83-.43V39.15a5.09,5.09,0,0,0-2.89-.78c-2.26,0-3.4,1.09-3.4,3.28Z"/><path class="cls-1" d="M126,51.21a.45.45,0,0,1-.48-.39l-4.24-14.71a.42.42,0,0,1,0-.18q0-.3.36-.3h2.71a.44.44,0,0,1,.48.36l1.14,4.94c.14.62.3,1.31.49,2.07s.36,1.52.54,2.26l.51,2.13h.06q.36-1.62,1.29-5.23l.18-.72,1.45-5.24a.44.44,0,0,1,.48-.36h2.79a.45.45,0,0,1,.49.36l1.47,5.24c.6,2.38,1.08,4.37,1.44,6h.09q.27-1.2,1.24-5.2l.3-1.26L139.86,36a.46.46,0,0,1,.51-.36h2.68a.37.37,0,0,1,.33.14.39.39,0,0,1,0,.34l-4.24,14.71a.45.45,0,0,1-.48.39h-3a.45.45,0,0,1-.48-.39l-1.69-6.1c-.52-2-.89-3.52-1.11-4.67h-.12c-.28,1.33-.66,2.88-1.14,4.67l-1.66,6.1a.45.45,0,0,1-.48.39Z"/><path class="cls-1" d="M149,33a1.88,1.88,0,0,1-1.4.57,1.92,1.92,0,0,1-1.41-.57,1.94,1.94,0,0,1-.57-1.42,1.88,1.88,0,0,1,.57-1.4,1.94,1.94,0,0,1,1.41-.55,1.87,1.87,0,0,1,2,1.95A2,2,0,0,1,149,33Zm-2.72,18.25a.4.4,0,0,1-.45-.45V36.05q0-.42.45-.42h2.61a.37.37,0,0,1,.42.42V50.76q0,.45-.42.45Z"/><path class="cls-1" d="M156.46,45.77a2.79,2.79,0,0,0,.62,1.92,2.21,2.21,0,0,0,1.76.7l1.23-.06q.48,0,.48.42V51a.42.42,0,0,1-.42.48q-1,.06-1.59.06a5.82,5.82,0,0,1-4-1.36A5.38,5.38,0,0,1,153,46V32.26q0-.42.45-.42h2.29a.44.44,0,0,1,.3.11.45.45,0,0,1,.15.28l.27,3.61h3.22q.45,0,.45.42v2.2q0,.42-.45.42h-3.19Z"/><path class="cls-1" d="M166.6,35.78a9.85,9.85,0,0,1,3.25-.51,6.73,6.73,0,0,1,4.75,1.67q1.8,1.66,1.8,5.13v8.69q0,.45-.42.45h-2.61a.4.4,0,0,1-.45-.45v-8.6a4.07,4.07,0,0,0-.85-2.92,3.51,3.51,0,0,0-2.58-.84,6.5,6.5,0,0,0-2.89.54V50.76a.4.4,0,0,1-.45.45h-2.59a.4.4,0,0,1-.45-.45V30.16a.4.4,0,0,1,.45-.45h2.59a.4.4,0,0,1,.45.45Z"/><path class="cls-1" d="M192.77,51.57a7.06,7.06,0,0,1-4.94-1.65A5.71,5.71,0,0,1,186,45.5V41.32a5.66,5.66,0,0,1,1.8-4.41,7.05,7.05,0,0,1,4.91-1.64,9.1,9.1,0,0,1,4.93,1.44.42.42,0,0,1,.21.37.54.54,0,0,1-.09.27l-1.17,1.8a.47.47,0,0,1-.37.21.44.44,0,0,1-.27-.09,6.19,6.19,0,0,0-3.15-.87,3.64,3.64,0,0,0-2.46.75,2.74,2.74,0,0,0-.85,2.17v4.21a2.74,2.74,0,0,0,.85,2.15,3.54,3.54,0,0,0,2.43.77,6.32,6.32,0,0,0,3.49-1.09.67.67,0,0,1,.3-.09.37.37,0,0,1,.33.21l1.26,1.81a.71.71,0,0,1,.09.3.41.41,0,0,1-.18.3A9,9,0,0,1,192.77,51.57Z"/><path class="cls-1" d="M206.51,35.27a6.59,6.59,0,0,1,4.59,1.52,5.9,5.9,0,0,1,1.67,4.59v8.78a.52.52,0,0,1-.33.51,21,21,0,0,1-2.88.65,20.2,20.2,0,0,1-3.17.25,8.84,8.84,0,0,1-4.81-1.2,4.18,4.18,0,0,1-1.9-3.82A4.07,4.07,0,0,1,201.47,43a8.35,8.35,0,0,1,4.8-1.22,23.58,23.58,0,0,1,3,.24v-.57a3.29,3.29,0,0,0-.68-2.33,3.15,3.15,0,0,0-2.33-.71,8.49,8.49,0,0,0-2.09.26,6.53,6.53,0,0,0-1.76.7.54.54,0,0,1-.27.09.37.37,0,0,1-.33-.21l-1.2-1.83q-.23-.33,0-.51A10.09,10.09,0,0,1,206.51,35.27ZM204.07,48a4.72,4.72,0,0,0,2.32.5,11.93,11.93,0,0,0,2.89-.37V44.78a20.19,20.19,0,0,0-2.92-.24c-2.11,0-3.16.66-3.16,2A1.64,1.64,0,0,0,204.07,48Z"/><path class="cls-1" d="M216.8,51.21a.4.4,0,0,1-.45-.45V36.93a.51.51,0,0,1,.33-.52,10.3,10.3,0,0,1,2.51-.85,13.45,13.45,0,0,1,2.75-.29,19.85,19.85,0,0,1,3.07.24.39.39,0,0,1,.39.45v2.17a.34.34,0,0,1-.14.3.47.47,0,0,1-.34.06,17.31,17.31,0,0,0-2.44-.12,7,7,0,0,0-2.65.42v12a.4.4,0,0,1-.45.45Z"/><path class="cls-1" d="M240.05,44.48q0,.42-.45.42h-9.15v.84a2.52,2.52,0,0,0,.86,2.06,3.56,3.56,0,0,0,2.33.71,6.47,6.47,0,0,0,2.29-.37,8.69,8.69,0,0,0,1.95-1,.54.54,0,0,1,.27-.09.38.38,0,0,1,.33.18l1.24,1.66a.37.37,0,0,1,.12.27.39.39,0,0,1-.21.36,9.57,9.57,0,0,1-6.11,2.07,8.1,8.1,0,0,1-3.26-.64,5.41,5.41,0,0,1-3.33-5.22V41.44a6.11,6.11,0,0,1,.94-3.49,5.51,5.51,0,0,1,2.43-2,8.2,8.2,0,0,1,3.25-.65,8,8,0,0,1,3.22.65,5.44,5.44,0,0,1,2.38,2,6.26,6.26,0,0,1,.9,3.49Zm-3.4-3.07a2.91,2.91,0,0,0-.87-2.32,3.31,3.31,0,0,0-2.23-.75,3.25,3.25,0,0,0-2.25.74,2.9,2.9,0,0,0-.85,2.33v.78h6.2Z"/><path class="cls-1" d="M246.46,50.75a2.22,2.22,0,0,1-1.6.61,2.12,2.12,0,0,1-1.59-.61,2.17,2.17,0,0,1-.6-1.58,2.21,2.21,0,0,1,.6-1.61,2.12,2.12,0,0,1,1.59-.62,2.23,2.23,0,0,1,1.6.62,2.15,2.15,0,0,1,.63,1.61A2.12,2.12,0,0,1,246.46,50.75Z"/></g></g></svg>