<svg xmlns="http://www.w3.org/2000/svg" viewBox="0 0 94.87 42.61"><defs><style>.cls-1{fill:#fff;}.cls-2{fill:#f9f9f9;}</style></defs><g id="Layer_2" data-name="Layer 2"><g id="Layer_1-2" data-name="Layer 1"><path class="cls-1" d="M4.85,14.52a5.16,5.16,0,0,1-2.64-.64A4.14,4.14,0,0,1,.56,12.07,6.44,6.44,0,0,1,0,9.29,10.9,10.9,0,0,1,.28,6.84,10.07,10.07,0,0,1,1.13,4.5a7.63,7.63,0,0,1,1.44-2,6.3,6.3,0,0,1,2-1.36A6.54,6.54,0,0,1,7.24.66a7.75,7.75,0,0,1,2,.22,6.89,6.89,0,0,1,1.64.64L10,3.32a6.71,6.71,0,0,0-1.25-.56,4.93,4.93,0,0,0-1.5-.22,4.17,4.17,0,0,0-1.83.39A4.4,4.4,0,0,0,4,4,6.35,6.35,0,0,0,3,5.52a8.69,8.69,0,0,0-.58,1.81A9.2,9.2,0,0,0,2.26,9.2,3.78,3.78,0,0,0,3,11.74a2.81,2.81,0,0,0,2.25.89,6.77,6.77,0,0,0,1.55-.18A10.06,10.06,0,0,0,8.33,12v1.88a11.26,11.26,0,0,1-1.49.44A9,9,0,0,1,4.85,14.52Z"/><path class="cls-1" d="M14.77,14.5a4.08,4.08,0,0,1-2-.48,3.25,3.25,0,0,1-1.34-1.36,4.3,4.3,0,0,1-.48-2.09,8.8,8.8,0,0,1,.22-2,7.69,7.69,0,0,1,.64-1.8,5.42,5.42,0,0,1,1.06-1.47,4.64,4.64,0,0,1,1.47-1A4.92,4.92,0,0,1,16.2,4a4.17,4.17,0,0,1,2.05.48,3.27,3.27,0,0,1,1.31,1.37A4.6,4.6,0,0,1,20,8a9.6,9.6,0,0,1-.2,1.94,7.52,7.52,0,0,1-.63,1.78,5.35,5.35,0,0,1-1,1.47,4.58,4.58,0,0,1-1.48,1A4.77,4.77,0,0,1,14.77,14.5Zm.16-1.77a2,2,0,0,0,1-.24,2.55,2.55,0,0,0,.81-.67,4.19,4.19,0,0,0,.61-1,6.38,6.38,0,0,0,.39-1.34,8.73,8.73,0,0,0,.14-1.57,3,3,0,0,0-.17-1A1.67,1.67,0,0,0,17.13,6a1.63,1.63,0,0,0-1-.3,2.11,2.11,0,0,0-1,.27,3,3,0,0,0-.84.75,5,5,0,0,0-.61,1.1,7,7,0,0,0-.37,1.33,7.5,7.5,0,0,0-.13,1.42,2.35,2.35,0,0,0,.46,1.57A1.67,1.67,0,0,0,14.93,12.73Z"/><path class="cls-1" d="M23.05,14.33,21.81,4.14H24l.51,5.6c0,.23.05.52.07.85s0,.66,0,1,0,.58,0,.78h.07l.37-.86c.13-.32.27-.64.42-1s.26-.57.37-.79l2.92-5.6h2.31L25.53,14.33Z"/><path class="cls-1" d="M34.8,14.52a4.38,4.38,0,0,1-2-.45,3.16,3.16,0,0,1-1.34-1.32A4.36,4.36,0,0,1,31,10.62a8.79,8.79,0,0,1,.35-2.45A7.31,7.31,0,0,1,32.36,6,5.39,5.39,0,0,1,34.07,4.5a4.64,4.64,0,0,1,2.28-.56,3.45,3.45,0,0,1,2.36.71,2.39,2.39,0,0,1,.78,1.86A3,3,0,0,1,39.13,8,3.25,3.25,0,0,1,38,9.09a5.86,5.86,0,0,1-1.85.73,11.93,11.93,0,0,1-2.63.26h-.41a2.46,2.46,0,0,0,0,.28,2.62,2.62,0,0,0,0,.28,2.33,2.33,0,0,0,.53,1.61,2.05,2.05,0,0,0,1.56.58,5,5,0,0,0,1.43-.19,11.56,11.56,0,0,0,1.46-.58v1.7a8.13,8.13,0,0,1-1.51.56A7.24,7.24,0,0,1,34.8,14.52Zm-1.39-6h.32a7.48,7.48,0,0,0,2-.22A2.9,2.9,0,0,0,37,7.65a1.39,1.39,0,0,0,.45-1.05,1,1,0,0,0-.3-.75,1.28,1.28,0,0,0-.89-.27,2.12,2.12,0,0,0-1.14.36,3.32,3.32,0,0,0-1,1A4.81,4.81,0,0,0,33.41,8.51Z"/><path class="cls-1" d="M40.46,14.33,42.62,4.14h1.69l-.22,1.92h.1A7.6,7.6,0,0,1,45.05,5a3.81,3.81,0,0,1,1-.76,2.79,2.79,0,0,1,1.27-.29l.52,0,.47.09-.47,2A2.63,2.63,0,0,0,47.44,6a2.78,2.78,0,0,0-.51,0,2.3,2.3,0,0,0-1.14.29,3.28,3.28,0,0,0-1,.79,5.51,5.51,0,0,0-.74,1.18,7.25,7.25,0,0,0-.49,1.47l-1,4.64Z"/><path class="cls-1" d="M52.46,14.52a4.38,4.38,0,0,1-2-.45,3.11,3.11,0,0,1-1.34-1.32,4.36,4.36,0,0,1-.48-2.13A8.45,8.45,0,0,1,49,8.17,7.08,7.08,0,0,1,50,6a5.36,5.36,0,0,1,1.7-1.52A4.65,4.65,0,0,1,54,3.94a3.44,3.44,0,0,1,2.35.71,2.39,2.39,0,0,1,.79,1.86A3,3,0,0,1,56.79,8,3.25,3.25,0,0,1,55.7,9.09a6,6,0,0,1-1.85.73,12,12,0,0,1-2.63.26H50.8c0,.09,0,.18,0,.28s0,.19,0,.28a2.29,2.29,0,0,0,.54,1.61,2,2,0,0,0,1.56.58,4.93,4.93,0,0,0,1.42-.19,11.08,11.08,0,0,0,1.47-.58v1.7a8.13,8.13,0,0,1-1.51.56A7.3,7.3,0,0,1,52.46,14.52Zm-1.39-6h.31a7.48,7.48,0,0,0,1.95-.22,3,3,0,0,0,1.29-.64,1.39,1.39,0,0,0,.45-1.05,1,1,0,0,0-.3-.75,1.3,1.3,0,0,0-.89-.27,2.07,2.07,0,0,0-1.14.36,3.35,3.35,0,0,0-1,1A5,5,0,0,0,51.07,8.51Z"/><path class="cls-1" d="M61.37,14.52a2.81,2.81,0,0,1-1.43-.38,2.72,2.72,0,0,1-1-1.18,4.82,4.82,0,0,1-.37-2.05,10,10,0,0,1,.21-2.05A9.41,9.41,0,0,1,59.39,7a6.64,6.64,0,0,1,1-1.57,4.6,4.6,0,0,1,1.36-1.06A3.64,3.64,0,0,1,63.42,4a2.59,2.59,0,0,1,1.13.23,2.3,2.3,0,0,1,.79.61,3.8,3.8,0,0,1,.55.82H66c0-.16,0-.36.07-.61s.06-.52.1-.81.1-.58.16-.86L67,0h2.15l-3,14.33H64.43l.2-1.65h-.06a6,6,0,0,1-.88.93,3.81,3.81,0,0,1-1,.66A3.32,3.32,0,0,1,61.37,14.52Zm.84-1.76a1.81,1.81,0,0,0,.84-.22,3,3,0,0,0,.74-.62,5.13,5.13,0,0,0,.63-.9,6.34,6.34,0,0,0,.49-1.09,7.08,7.08,0,0,0,.31-1.18,5.9,5.9,0,0,0,.11-1.16,2.09,2.09,0,0,0-.41-1.37,1.47,1.47,0,0,0-1.22-.51,1.78,1.78,0,0,0-1,.29,3.15,3.15,0,0,0-.82.81A4.75,4.75,0,0,0,61.28,8a7,7,0,0,0-.4,1.41,8.26,8.26,0,0,0-.14,1.49,2.26,2.26,0,0,0,.37,1.41A1.32,1.32,0,0,0,62.21,12.76Z"/><path class="cls-1" d="M78.94,14.52a2.89,2.89,0,0,1-1.18-.23,2.36,2.36,0,0,1-.85-.59,3.29,3.29,0,0,1-.55-.84h-.08l-.57,1.47H74.07L77.11,0h2.14L78.6,3.06q-.1.5-.24,1.05c-.09.37-.19.7-.27,1s-.17.54-.22.68h.07a10.2,10.2,0,0,1,.82-.91,3.78,3.78,0,0,1,1-.68A2.85,2.85,0,0,1,81,4a2.81,2.81,0,0,1,1.43.38,2.73,2.73,0,0,1,1,1.18,4.74,4.74,0,0,1,.38,2,9.58,9.58,0,0,1-.22,2.07A8.4,8.4,0,0,1,83,11.5a6.51,6.51,0,0,1-1,1.56,4.32,4.32,0,0,1-1.35,1.07A3.59,3.59,0,0,1,78.94,14.52Zm-.29-1.76a1.81,1.81,0,0,0,1-.29,3.26,3.26,0,0,0,.82-.8,5.88,5.88,0,0,0,.63-1.17,7.8,7.8,0,0,0,.39-1.4,8.46,8.46,0,0,0,.14-1.5,2.34,2.34,0,0,0-.36-1.42,1.32,1.32,0,0,0-1.1-.47,1.78,1.78,0,0,0-.85.23,3,3,0,0,0-.76.61,5.22,5.22,0,0,0-.63.91,6.31,6.31,0,0,0-.48,1.09,6.83,6.83,0,0,0-.31,1.18A6.67,6.67,0,0,0,77,10.88a2.09,2.09,0,0,0,.42,1.36A1.5,1.5,0,0,0,78.65,12.76Z"/><path class="cls-1" d="M84.45,18.86a5.2,5.2,0,0,1-.77-.05,5.61,5.61,0,0,1-.55-.13V17c.16,0,.34.07.52.09a3.91,3.91,0,0,0,.61,0,2,2,0,0,0,1.38-.49,5.09,5.09,0,0,0,1-1.36l.46-.85L85.61,4.14h2.13l.61,5c0,.34.08.71.11,1.1s0,.78.06,1.14,0,.68,0,.93h.07c.08-.21.19-.48.32-.79s.27-.66.43-1,.32-.7.48-1l2.71-5.31h2.33l-6.36,11.8a7.88,7.88,0,0,1-1.13,1.63,3.88,3.88,0,0,1-1.32,1A3.83,3.83,0,0,1,84.45,18.86Z"/><path class="cls-1" d="M50.47,37,53.32,23.5H57a6.76,6.76,0,0,1,2.19.31,2.86,2.86,0,0,1,1.42,1,2.76,2.76,0,0,1,.51,1.73,3.52,3.52,0,0,1-.37,1.62,3.1,3.1,0,0,1-1,1.16,4.34,4.34,0,0,1-1.6.64V30a2.93,2.93,0,0,1,1.51.92,2.51,2.51,0,0,1,.58,1.73,3.82,3.82,0,0,1-2.55,3.83A7.35,7.35,0,0,1,55,37ZM53,35.11H55.1a4,4,0,0,0,1.54-.27,2.26,2.26,0,0,0,1-.82A2.37,2.37,0,0,0,58,32.68a1.78,1.78,0,0,0-.53-1.34,2.29,2.29,0,0,0-1.66-.51H54Zm1.28-6.06h1.84a4.07,4.07,0,0,0,1.4-.22,2.12,2.12,0,0,0,1-.7,2,2,0,0,0,.35-1.21,1.46,1.46,0,0,0-.49-1.18,2.46,2.46,0,0,0-1.57-.41H55.11Z"/><path class="cls-1" d="M67.45,37.15a5.06,5.06,0,0,1-2.64-.64,4.14,4.14,0,0,1-1.65-1.81,6.4,6.4,0,0,1-.56-2.77,10.84,10.84,0,0,1,.28-2.45,10,10,0,0,1,.85-2.35,7.8,7.8,0,0,1,1.44-2,6.46,6.46,0,0,1,2-1.36,6.54,6.54,0,0,1,2.64-.5,8.26,8.26,0,0,1,2,.21,7.34,7.34,0,0,1,1.64.64L72.59,26a6.68,6.68,0,0,0-1.25-.55,4.64,4.64,0,0,0-1.5-.22,4.16,4.16,0,0,0-1.83.38,4.4,4.4,0,0,0-1.4,1.06,6.22,6.22,0,0,0-1,1.54,8.41,8.41,0,0,0-.58,1.8,9.2,9.2,0,0,0-.19,1.87,3.78,3.78,0,0,0,.76,2.54,2.81,2.81,0,0,0,2.25.89,7.36,7.36,0,0,0,1.55-.17,12,12,0,0,0,1.52-.46v1.88a11.91,11.91,0,0,1-1.5.44A9,9,0,0,1,67.45,37.15Z"/><path class="cls-1" d="M73.3,37,76.15,23.5h3.7a6.76,6.76,0,0,1,2.19.31,2.86,2.86,0,0,1,1.42,1A2.76,2.76,0,0,1,84,26.52a3.4,3.4,0,0,1-.37,1.62,3.1,3.1,0,0,1-1,1.16,4.27,4.27,0,0,1-1.6.64V30a2.93,2.93,0,0,1,1.51.92,2.51,2.51,0,0,1,.58,1.73,4,4,0,0,1-.68,2.41,4.06,4.06,0,0,1-1.87,1.42,7.35,7.35,0,0,1-2.7.46Zm2.57-1.85h2.06a4,4,0,0,0,1.54-.27,2.21,2.21,0,0,0,1-.82,2.37,2.37,0,0,0,.36-1.34,1.81,1.81,0,0,0-.52-1.34,2.32,2.32,0,0,0-1.67-.51H76.78Zm1.28-6.06H79a4,4,0,0,0,1.4-.22,2.12,2.12,0,0,0,1-.7,2,2,0,0,0,.35-1.21,1.43,1.43,0,0,0-.49-1.18,2.46,2.46,0,0,0-1.57-.41H77.94Z"/><path class="cls-1" d="M87.76,37.15A7.68,7.68,0,0,1,86,37a5.23,5.23,0,0,1-1.41-.53v-2A8.36,8.36,0,0,0,86,35a6,6,0,0,0,1.74.25,4.3,4.3,0,0,0,1-.12,2.5,2.5,0,0,0,.87-.36,2,2,0,0,0,.59-.63,1.88,1.88,0,0,0,.21-.91,1.92,1.92,0,0,0-.22-.92,2.62,2.62,0,0,0-.66-.73,12.19,12.19,0,0,0-1.08-.75,8.65,8.65,0,0,1-1.17-.9,3.71,3.71,0,0,1-.88-1.13,3.41,3.41,0,0,1-.33-1.55,3.84,3.84,0,0,1,.34-1.65,3.66,3.66,0,0,1,.94-1.26,4.39,4.39,0,0,1,1.44-.8,5.74,5.74,0,0,1,1.79-.27,7.81,7.81,0,0,1,1.89.21,8,8,0,0,1,1.62.63l-.8,1.74a8.16,8.16,0,0,0-1.3-.51,5.16,5.16,0,0,0-1.41-.19,3.19,3.19,0,0,0-.89.12,2.3,2.3,0,0,0-.71.38,1.76,1.76,0,0,0-.47.61,1.91,1.91,0,0,0-.17.84,1.81,1.81,0,0,0,.21.9,2.27,2.27,0,0,0,.61.68,11.29,11.29,0,0,0,1,.66,8.83,8.83,0,0,1,1.34,1,3.61,3.61,0,0,1,.86,1.15,3.46,3.46,0,0,1,.3,1.5,4.06,4.06,0,0,1-.38,1.81,3.53,3.53,0,0,1-1,1.28,4.66,4.66,0,0,1-1.58.77A7.56,7.56,0,0,1,87.76,37.15Z"/><g id="Group"><g id="Vector_29" data-name="Vector 29"><path class="cls-2" d="M12,32.69a.14.14,0,0,0-.09.05L9.77,36a5.45,5.45,0,0,0,4.43,0l-2.13-3.25A.11.11,0,0,0,12,32.69Z"/></g><g id="Vector_30" data-name="Vector 30"><path class="cls-2" d="M9.91,30l-3.21-.3A5.55,5.55,0,0,0,6.55,31a5.43,5.43,0,0,0,1.31,3.55l2.25-4.29c.05-.14,0-.24-.2-.25"/></g><path class="cls-2" d="M22.17,40.05a1.28,1.28,0,1,0,1.28,1.28A1.28,1.28,0,0,0,22.17,40.05Zm0,2.35a1.08,1.08,0,1,1,1.07-1.07A1,1,0,0,1,22.17,42.4Z"/><path class="cls-2" d="M22.32,40.59h-.63v1.46h.19V41.4h.31l.41.65h.21l-.43-.65c.25,0,.45-.13.45-.41h0C22.83,40.73,22.7,40.59,22.32,40.59Zm-.18.64h-.26v-.47h.4c.18,0,.35,0,.35.23S22.34,41.23,22.14,41.23Z"/><path class="cls-2" d="M17.06,25.89V19.51H6.87v6.38H.48V36.11H6.87V42.5H17.06V36.11h6.39V25.89ZM12,24.71a6.31,6.31,0,0,1,5.72,3.65h-4.5c-.64,0-.92-.39-.93-.7s0-.48.34-.86a.8.8,0,1,0-1.27,0c.3.38.36.5.34.86s-.29.68-.93.7H6.27A6.29,6.29,0,0,1,12,24.71ZM5.67,31h0a6.29,6.29,0,0,1,.4-2.22l4.24.41A.91.91,0,0,1,11,30.55L8.08,36h0A6.3,6.3,0,0,1,5.67,31Zm9.78,5.27a6.31,6.31,0,0,1-6.94,0l3.08-4.6a.46.46,0,0,1,.79,0l3.07,4.6Zm.43-.31h0L13,30.55a.91.91,0,0,1,.68-1.34l4.23-.41a6.29,6.29,0,0,1-2,7.19Z"/><g id="Vector_32" data-name="Vector 32"><path class="cls-2" d="M16.12,27.49A5.43,5.43,0,0,0,13.5,25.8a1.41,1.41,0,0,1-.25,1.56.07.07,0,0,0,0,.13Z"/></g><g id="Vector_33" data-name="Vector 33"><path class="cls-2" d="M14.06,30c-.24,0-.25.11-.2.25l2.25,4.29A5.48,5.48,0,0,0,17.42,31a5.56,5.56,0,0,0-.16-1.29Z"/></g><g id="Vector_34" data-name="Vector 34"><path class="cls-2" d="M10.47,25.8a5.43,5.43,0,0,0-2.62,1.69h2.84a.07.07,0,0,0,0-.13A1.43,1.43,0,0,1,10.47,25.8Z"/></g><path class="cls-2" d="M44.1,40.1a1.26,1.26,0,1,0,1.25,1.25A1.26,1.26,0,0,0,44.1,40.1Zm0,2.31a1.06,1.06,0,1,1,1-1.06A1,1,0,0,1,44.1,42.41Z"/><path class="cls-2" d="M44.24,40.63h-.62v1.43h.19v-.64h.3l.41.64h.2l-.42-.64c.25,0,.44-.12.44-.4h0C44.74,40.77,44.62,40.63,44.24,40.63Zm-.18.63h-.25V40.8h.4c.17,0,.34,0,.34.22S44.26,41.26,44.06,41.26Z"/><path class="cls-2" d="M39.25,23.74h0a23.25,23.25,0,0,1-3.09.25h0a23.25,23.25,0,0,1-3.09-.25,26.51,26.51,0,0,1-3.13-.66,13.34,13.34,0,0,0,0,7.23,15.84,15.84,0,0,0,6.23,9.48,15.84,15.84,0,0,0,6.23-9.48,13.34,13.34,0,0,0,0-7.23A26.51,26.51,0,0,1,39.25,23.74ZM35.56,37.68c0,.24.06.33,0,.44s-.16.13-.22,0a1.05,1.05,0,0,1-.18-.55.82.82,0,0,1,.27-.74,1.49,1.49,0,0,1,.21-.16l0,.73S35.59,37.45,35.56,37.68Zm1,.74h0c0,.12,0,.21-.28.22s-.28-.07-.28-.27c0-.89-.07-2.56-.07-2.56a2.51,2.51,0,0,1,.37.15,2.59,2.59,0,0,1,.28.22s0,0,0,.1C36.59,36.93,36.55,38.13,36.54,38.42Zm.73-1.68h0a1.31,1.31,0,0,1-.45.23l0-.66a.18.18,0,0,0,0-.15c0-.14-.5-.45-.76-.55s-.59-.2-.84-.3A.93.93,0,0,1,34.76,34a1,1,0,0,1,.44-.41,1.69,1.69,0,0,1,.33-.14l.06.77a.21.21,0,0,0-.1.1.18.18,0,0,0,.12.22,13.88,13.88,0,0,1,1.31.62c.51.3.68.51.68.87A.83.83,0,0,1,37.27,36.74Zm-1.44-3.67.82.1,0,1.54-.36-.19-.35-.17Zm2.25.34a1,1,0,0,1-.53.67,1.42,1.42,0,0,1-.63.2l0-.94a.21.21,0,0,0,.12-.07.2.2,0,0,0,0-.18.2.2,0,0,0-.14-.16.88.88,0,0,0-.29-.06l-1.34-.18c-.82-.14-1.4-.61-1.35-1.39,0-.52.59-.68,1-.84a4.74,4.74,0,0,1,.28.58c.08.21.12.35.12.35s-.18,0-.16.18.15.18.24.19a13,13,0,0,1,1.73.31,1.36,1.36,0,0,1,.68.45,1,1,0,0,1,.21.9Zm-2.59-3.72h0l.66,0a2.16,2.16,0,0,1,.59.13l0,1.7-1-.16a3.37,3.37,0,0,0-.51-1.28.12.12,0,0,1,0-.17c0-.06.28-.12.28-.12ZM37,31.39h0s0-.81,0-1.2a.34.34,0,0,0,.19-.47.53.53,0,0,0-.31-.19,9.39,9.39,0,0,0-1.31-.18,9.16,9.16,0,0,1-1.09-.19,2.46,2.46,0,0,1-1.73-1.23,1.8,1.8,0,0,1,.77-2.34,2.35,2.35,0,0,1,1.94,0A1.11,1.11,0,0,1,36,26c.06.09.15.12.2.21s0,.08-.06.08a3.06,3.06,0,0,1-.74,0,2.29,2.29,0,0,0-.69,0c.2.11.41.24.6.32s.22,0,.32.1.18.06.18.12-.12.08-.2.11A1.26,1.26,0,0,1,35,27c-.36-.08-.53-.29-.75-.16s-.14.29-.1.49.41.45.69.54c1,.31,2,.14,3,.62a1.61,1.61,0,0,1,.85,1C38.94,31.19,37,31.39,37,31.39Zm1.7-5.24h0c-.05.18-.09.18-.21.29s-.56.44-.88.75a2.66,2.66,0,0,0-.53.53,1.52,1.52,0,0,0-.11.2c-.54-.11-1.08-.12-1.5-.21l0-.45s.54,0,.59-.33a.22.22,0,0,0-.07-.16,2.12,2.12,0,0,0-.27-.13,4.7,4.7,0,0,1,1.18.4.32.32,0,0,0-.08-.23.38.38,0,0,0-.26-.15c-.26-.07-.87-.14-.87-.14l.52,0a.57.57,0,0,0,.29-.12c0-.07,0-.17-.1-.26l-.17-.19a1.28,1.28,0,0,0-.79-.67.85.85,0,0,1,0-.4c0-.1.27-.11.34-.08a3.27,3.27,0,0,0,1.06.43c.08.06.09.08.11.21s0,.67,0,.86.09.06.14,0c.38-.21.63-.56,1-.72C38.32,25.52,38.83,25.78,38.72,26.15Z"/><path class="cls-2" d="M44,19.52h0a17,17,0,0,1-7.83,1.92,16.74,16.74,0,0,1-7.83-1.93c-1.63,3.19-1.88,8.38-.48,12.72a17.81,17.81,0,0,0,8.31,10.38,17.78,17.78,0,0,0,8.31-10.38C45.87,27.89,45.61,22.71,44,19.52ZM42.83,31.73h0a15.93,15.93,0,0,1-6.67,8.93h0a15.94,15.94,0,0,1-6.68-8.94c-1.08-3.17-1.34-6.88-.15-9.77a19.86,19.86,0,0,0,3.79.95,19.82,19.82,0,0,0,3,.25h0a19.82,19.82,0,0,0,3-.25A19.86,19.86,0,0,0,43,22C44.17,24.85,43.91,28.57,42.83,31.73Z"/><g id="Vector_45" data-name="Vector 45"><path class="cls-2" d="M35,25.76c.12.08.1.23.27.2s.14-.07.22-.13l.13,0a1.2,1.2,0,0,0-.83-.2c.06.12.13.05.21.1"/></g></g></g></g></svg>