<svg xmlns="http://www.w3.org/2000/svg" viewBox="0 0 226 56.28"><defs><style>.cls-1{fill:#fff;}.cls-2{fill:#00b67a;}.cls-3{fill:#005128;}</style></defs><g id="Layer_2" data-name="Layer 2"><g id="Layer_1-2" data-name="Layer 1"><path id="Shape" class="cls-1" d="M59.38,19.94h23v4.43H73.56V48.3H68.24V24.37H59.38V19.94Zm21.71,7.53h4.44v4h0c0-.44.44-.88.88-1.77s.89-.89,1.33-1.33a3.38,3.38,0,0,1,1.77-.89A3.36,3.36,0,0,1,91.73,27h1.33v4.43H91.29a4,4,0,0,0-2.22.45,5.84,5.84,0,0,0-1.77,1.33A9.15,9.15,0,0,0,86,35.45a6.61,6.61,0,0,0-.44,3.1V48.3H81.09V27.47Zm32.8,20.83h-4.44V45.64h0a7.38,7.38,0,0,1-2.65,2.66,8.28,8.28,0,0,1-3.55.89c-2.66,0-4.43-.44-5.76-2.22a9.36,9.36,0,0,1-1.77-6.2V27.92h4.43V40.33a8.7,8.7,0,0,0,.89,4,4,4,0,0,0,3.1,1.33,3.33,3.33,0,0,0,2.21-.44c.45-.44,1.33-.89,1.33-1.33a2.28,2.28,0,0,0,.89-1.77c0-.89.44-1.33.44-2.22v-12h4.43V48.3Zm7.53-6.65a2.67,2.67,0,0,0,1.33,2.66,6.33,6.33,0,0,0,3.1.89h1.33a1.64,1.64,0,0,0,1.33-.44c.44,0,.89-.45,1.33-.89a1.64,1.64,0,0,0,.44-1.33c0-.44-.44-.89-.44-1.33-.44-.44-.89-.44-1.33-.88a18.74,18.74,0,0,0-2.22-.45,19.31,19.31,0,0,1-2.21-.44,3.37,3.37,0,0,1-2.22-.89c-.44-.44-1.33-.44-2.21-.88-.45-.45-1.33-.89-1.33-1.78a5.51,5.51,0,0,1-.45-2.65,3.76,3.76,0,0,1,.89-2.66A9.56,9.56,0,0,1,121,28.8a6.29,6.29,0,0,1,2.66-.88c.88,0,2.21-.45,3.1-.45a7.45,7.45,0,0,1,3.1.45,6.33,6.33,0,0,1,2.66.88c.88.45,1.33,1.33,1.77,1.78a6.41,6.41,0,0,1,.89,3.1h-4.88A3.76,3.76,0,0,0,129,31.46a11.3,11.3,0,0,0-3.1-.88h-1.33a1.65,1.65,0,0,0-1.33.44,1.54,1.54,0,0,0-.88.44c-.45.45-.45.45-.45.89a1.61,1.61,0,0,0,.45,1.33c.44.44.88.44,1.33.88a18.5,18.5,0,0,0,2.21.45c.89,0,1.77.44,2.66.44a3.37,3.37,0,0,1,2.22.89c.88.44,1.32.44,2.21.88s1.33.89,1.33,1.78a4.8,4.8,0,0,1,.44,2.65,6.48,6.48,0,0,1-.88,3.11c-.45.88-1.33,1.33-2.22,2.21a2.43,2.43,0,0,1-2.21,1.33c-.89,0-2.22.45-3.11.45a8.5,8.5,0,0,1-3.54-.45A13.93,13.93,0,0,1,120.09,47a4.38,4.38,0,0,1-1.77-2.21A4,4,0,0,1,117,41.65Zm15.07-14.18H140V21.71h4.43v6.21h4v3.54h-4V43.87c0,.44,0,.44.45.89l.44.44h3.1v3.1h-2.66c-1.33,0-2.21,0-2.66-.44a3.15,3.15,0,0,1-2.66-2.66A19.11,19.11,0,0,1,140,43V31h-3.54V27.47Zm15.06,0H156v3.11h0a4,4,0,0,1,2.66-2.66,10.31,10.31,0,0,1,3.55-.89,13,13,0,0,1,4.43.89,7.91,7.91,0,0,1,3.1,2.21,8.86,8.86,0,0,1,1.77,3.55,13.46,13.46,0,0,1,.45,4.43,12.1,12.1,0,0,1-.45,4,13,13,0,0,1-1.77,3.54,11.4,11.4,0,0,1-2.66,2.22,10.62,10.62,0,0,1-4,.89H161.3c-.44,0-1.33-.45-1.77-.45-.44-.44-1.33-.44-1.77-.88l-1.33-1.33h0V56.28H152V27.47Zm16,10.64a5.55,5.55,0,0,0-.45-2.66c-.44-.89-.44-1.77-.88-2.21s-.89-1.33-1.78-1.78a4.8,4.8,0,0,0-2.65-.44c-1.78,0-3.55.44-4.44,1.77A9.5,9.5,0,0,0,156,38.11c0,.89,0,2.22.45,2.66.44.88.44,1.77,1.33,2.21.44.45.88,1.33,1.77,1.33a4,4,0,0,0,2.22.45,5.51,5.51,0,0,0,2.65-.45,3.46,3.46,0,0,0,1.78-1.77c.44-.89.88-1.33.88-2.21A19.18,19.18,0,0,0,167.51,38.11Zm8-18.17h4.43v4.43h-4.43Zm0,7.53h4.43V48.3h-4.43Zm8.42-7.53h4.43V48.3H183.9Zm18.17,28.81a13.19,13.19,0,0,1-4.43-.89,7.83,7.83,0,0,1-3.1-2.22,9.49,9.49,0,0,1-2.22-3.54,13.2,13.2,0,0,1-.88-4.43,13.1,13.1,0,0,1,.88-4.43,9.61,9.61,0,0,1,2.22-3.55,7.93,7.93,0,0,1,3.1-2.22,11.59,11.59,0,0,1,8.86,0,7.93,7.93,0,0,1,3.1,2.22,9.61,9.61,0,0,1,2.22,3.55,13.09,13.09,0,0,1,.89,4.43,13.19,13.19,0,0,1-.89,4.43,9.49,9.49,0,0,1-2.22,3.54,7.83,7.83,0,0,1-3.1,2.22A13.19,13.19,0,0,1,202.07,48.75Zm0-3.55a5.66,5.66,0,0,0,2.66-.44A3.46,3.46,0,0,0,206.5,43c.45-.88.89-1.33.89-2.21s.44-1.77.44-2.66a5.66,5.66,0,0,0-.44-2.66,3.32,3.32,0,0,0-.89-2.21c-.44-.45-.88-1.33-1.77-1.78a8.26,8.26,0,0,0-5.32,0,3.49,3.49,0,0,0-1.77,1.78c-.44.88-.89,1.32-.89,2.21s-.44,1.77-.44,2.66a5.66,5.66,0,0,0,.44,2.66,3.39,3.39,0,0,0,.89,2.21,3.49,3.49,0,0,0,1.77,1.78C200.3,44.76,201.18,45.2,202.07,45.2Zm12-17.73h3.54V21.71H222v6.21h4v3.54h-4V43.87c0,.44,0,.44.44.89l.45.44H226v3.1h-2.66c-1.33,0-2.21,0-2.66-.44A3.15,3.15,0,0,1,218,45.2a19.11,19.11,0,0,1-.44-2.22V31H214V27.47Z"/><g id="Star"><polygon id="Path" class="cls-2" points="54.06 19.94 33.23 19.94 27.03 0 20.38 19.94 0 19.94 16.4 31.91 10.19 51.85 27.03 39.44 43.43 51.85 37.22 31.91 54.06 19.94"/><polygon id="Path-2" data-name="Path" class="cls-3" points="38.55 36.34 37.22 31.91 27.03 39.44 38.55 36.34"/></g></g></g></svg>