<svg xmlns="http://www.w3.org/2000/svg" viewBox="0 0 119.97 22.75"><defs><style>.cls-1{fill:#fff;}</style></defs><g id="Layer_2" data-name="Layer 2"><g id="Layer_1-2" data-name="Layer 1"><path class="cls-1" d="M.08,8.39V.48H1.19V8.39Zm.57-7V.48h5v.94Zm0,3.38V3.91H5.07V4.8Zm0,3.59V7.45h5v.94Z"/><path class="cls-1" d="M7.05,8.39V0H8.14V8.39Z"/><path class="cls-1" d="M12.68,8.55a3.61,3.61,0,0,1-1.28-.22,2.66,2.66,0,0,1-1-.64,2.9,2.9,0,0,1-.57-1A4,4,0,0,1,9.69,5.4a4.45,4.45,0,0,1,.19-1.35A3.07,3.07,0,0,1,10.44,3a2.53,2.53,0,0,1,.91-.71,3.25,3.25,0,0,1,2.35,0,2.23,2.23,0,0,1,.86.63,2.83,2.83,0,0,1,.53,1.07,5,5,0,0,1,.15,1.5l-4.87,0V4.74l4.21,0-.37.5A2.61,2.61,0,0,0,14.06,4a1.59,1.59,0,0,0-.58-.75A1.63,1.63,0,0,0,12.59,3a1.68,1.68,0,0,0-1,.29,1.74,1.74,0,0,0-.64.83,3.36,3.36,0,0,0-.23,1.3,2.54,2.54,0,0,0,.5,1.69,1.77,1.77,0,0,0,1.45.58,2.19,2.19,0,0,0,.66-.09,1.37,1.37,0,0,0,.48-.25,1.7,1.7,0,0,0,.33-.38,2.2,2.2,0,0,0,.19-.47l1,.23a2.33,2.33,0,0,1-.33.77,2.17,2.17,0,0,1-.55.58,2.36,2.36,0,0,1-.76.38A3.73,3.73,0,0,1,12.68,8.55Z"/><path class="cls-1" d="M18.21,8.39,16,2.21H17.2l1.69,5.26h.17l1.68-5.26h1.19L19.72,8.39Z"/><path class="cls-1" d="M24.42,8.55a2.09,2.09,0,0,1-.91-.2,1.54,1.54,0,0,1-.65-.59,1.86,1.86,0,0,1-.24-1A1.71,1.71,0,0,1,22.79,6a1.38,1.38,0,0,1,.5-.58,3.14,3.14,0,0,1,.88-.4,9.94,9.94,0,0,1,1.32-.26l.72-.12a.83.83,0,0,0,.42-.2A.56.56,0,0,0,26.76,4a1,1,0,0,0-.31-.77,1.35,1.35,0,0,0-1-.31,2.19,2.19,0,0,0-.7.12,1.51,1.51,0,0,0-.63.4,1.34,1.34,0,0,0-.34.79l-1-.34a2.25,2.25,0,0,1,.32-.78,2,2,0,0,1,.57-.59,2.53,2.53,0,0,1,.81-.38,3.6,3.6,0,0,1,1-.13,3,3,0,0,1,1.3.26,1.7,1.7,0,0,1,.78.81,3.33,3.33,0,0,1,.26,1.4V5.89c0,.24,0,.51,0,.81s0,.58.05.87.05.57.07.82H27c0-.25-.05-.51-.07-.76s0-.52,0-.77h-.16a3.65,3.65,0,0,1-.48.83,2.4,2.4,0,0,1-.75.62A2.21,2.21,0,0,1,24.42,8.55Zm.33-.89a1.75,1.75,0,0,0,1.07-.36,2.6,2.6,0,0,0,.51-.49,3.14,3.14,0,0,0,.44-.72V4.89l.31.06a1.06,1.06,0,0,1-.51.29,5.6,5.6,0,0,1-.7.16l-.76.12a4.58,4.58,0,0,0-.71.19,1.38,1.38,0,0,0-.51.36,1,1,0,0,0-.19.62.93.93,0,0,0,.29.73A1.14,1.14,0,0,0,24.75,7.66Z"/><path class="cls-1" d="M31.6,8.51A1.61,1.61,0,0,1,30.32,8a2.06,2.06,0,0,1-.42-1.42V3.11H29V2.19h.58a.73.73,0,0,0,.44-.1.51.51,0,0,0,.16-.36l.12-.94H31v1.4h1.78v.93H31V6.59a.91.91,0,0,0,.22.69.9.9,0,0,0,.64.21,2,2,0,0,0,.47-.06,1.31,1.31,0,0,0,.49-.24v1.1a3.84,3.84,0,0,1-.64.17A2.71,2.71,0,0,1,31.6,8.51Z"/><path class="cls-1" d="M36.7,8.55a3.63,3.63,0,0,1-1.29-.22,2.62,2.62,0,0,1-.94-.64,2.77,2.77,0,0,1-.58-1A4.27,4.27,0,0,1,33.7,5.4a4.79,4.79,0,0,1,.19-1.35A3.09,3.09,0,0,1,34.46,3a2.45,2.45,0,0,1,.91-.71A3,3,0,0,1,36.6,2a3.1,3.1,0,0,1,1.12.2,2.31,2.31,0,0,1,.86.63,3,3,0,0,1,.53,1.07,4.67,4.67,0,0,1,.14,1.5l-4.87,0V4.74l4.21,0-.37.5A2.76,2.76,0,0,0,38.08,4a1.65,1.65,0,0,0-.58-.75A1.66,1.66,0,0,0,36.6,3a1.71,1.71,0,0,0-1,.29,1.81,1.81,0,0,0-.64.83,3.37,3.37,0,0,0-.22,1.3,2.54,2.54,0,0,0,.49,1.69,1.79,1.79,0,0,0,1.45.58,2.22,2.22,0,0,0,.67-.09,1.57,1.57,0,0,0,.48-.25,1.44,1.44,0,0,0,.32-.38,2.22,2.22,0,0,0,.2-.47l1,.23a2.84,2.84,0,0,1-.33.77,2.34,2.34,0,0,1-.55.58,2.41,2.41,0,0,1-.77.38A3.65,3.65,0,0,1,36.7,8.55Z"/><path class="cls-1" d="M46.06,10.48a4.35,4.35,0,0,1-1-.11,3.37,3.37,0,0,1-.87-.35,1.92,1.92,0,0,1-.65-.58l.55-.8a1.81,1.81,0,0,0,.78.63,2.84,2.84,0,0,0,1.1.21,2,2,0,0,0,1.12-.29,1.79,1.79,0,0,0,.68-.91,4.79,4.79,0,0,0,.24-1.54l.13-1.25H48a4.31,4.31,0,0,1-.42,1.4,1.81,1.81,0,0,1-.69.75,2,2,0,0,1-1,.23,1.85,1.85,0,0,1-1.13-.35,2,2,0,0,1-.7-1,4.87,4.87,0,0,1-.24-1.63V2.19h1.09V4.65a3.39,3.39,0,0,0,.33,1.71,1.09,1.09,0,0,0,1,.55,1.2,1.2,0,0,0,.65-.18,1.71,1.71,0,0,0,.5-.53,3.31,3.31,0,0,0,.33-.88,7.07,7.07,0,0,0,.16-1.24V2.19H49V6.8a7.54,7.54,0,0,1-.1,1.32,3.6,3.6,0,0,1-.35,1,2.51,2.51,0,0,1-.58.74,2.29,2.29,0,0,1-.81.45A3.48,3.48,0,0,1,46.06,10.48Z"/><path class="cls-1" d="M53.51,8.55a3.1,3.1,0,0,1-1.57-.39,2.65,2.65,0,0,1-1-1.12,3.75,3.75,0,0,1-.38-1.78,3.59,3.59,0,0,1,.4-1.79A2.75,2.75,0,0,1,52,2.4,3.14,3.14,0,0,1,53.48,2,3,3,0,0,1,55,2.42a2.79,2.79,0,0,1,1.08,1.1,3.73,3.73,0,0,1,.39,1.79A3.73,3.73,0,0,1,56.1,7.1,2.57,2.57,0,0,1,55,8.18,3.15,3.15,0,0,1,53.51,8.55Zm0-.9a1.67,1.67,0,0,0,1-.28,1.83,1.83,0,0,0,.64-.8,3,3,0,0,0,.22-1.22,3.27,3.27,0,0,0-.23-1.27,2,2,0,0,0-.67-.83,1.84,1.84,0,0,0-1-.29,1.76,1.76,0,0,0-1,.27,1.7,1.7,0,0,0-.64.77,3,3,0,0,0-.23,1.24A2.78,2.78,0,0,0,52.13,7,1.74,1.74,0,0,0,53.55,7.65Z"/><path class="cls-1" d="M60,8.55a1.81,1.81,0,0,1-1.56-.72A3.65,3.65,0,0,1,58,5.68V2.19h1.1v3.4a2.85,2.85,0,0,0,.31,1.5,1.1,1.1,0,0,0,1,.49A1.27,1.27,0,0,0,61,7.4a1.72,1.72,0,0,0,.52-.52,2.82,2.82,0,0,0,.37-.8,4.33,4.33,0,0,0,.19-1V2.19h1.09v6.2h-1l.1-2h-.18a3.85,3.85,0,0,1-.44,1.22,1.81,1.81,0,0,1-.7.7A2,2,0,0,1,60,8.55Z"/><path class="cls-1" d="M65.09,8.39V2.19h1L66,4.35h.21a4.79,4.79,0,0,1,.33-1.22,2.1,2.1,0,0,1,.61-.8,1.73,1.73,0,0,1,1.22-.27,1.57,1.57,0,0,1,.36.09l-.06,1.14a1.65,1.65,0,0,0-.36-.11l-.35,0a1.2,1.2,0,0,0-.81.3,2.26,2.26,0,0,0-.57.81,5.75,5.75,0,0,0-.37,1.15v3Z"/><path class="cls-1" d="M75.57,8.55A3.07,3.07,0,0,1,74,8.16,2.65,2.65,0,0,1,73,7a3.75,3.75,0,0,1-.38-1.78A3.59,3.59,0,0,1,73,3.47,2.75,2.75,0,0,1,74,2.4,3.14,3.14,0,0,1,75.54,2a3,3,0,0,1,1.54.38,2.79,2.79,0,0,1,1.08,1.1,3.73,3.73,0,0,1,.39,1.79,3.73,3.73,0,0,1-.39,1.79,2.54,2.54,0,0,1-1.07,1.08A3.08,3.08,0,0,1,75.57,8.55Zm0-.9a1.67,1.67,0,0,0,1-.28,1.83,1.83,0,0,0,.64-.8,3,3,0,0,0,.22-1.22,3.27,3.27,0,0,0-.23-1.27,2,2,0,0,0-.67-.83,1.84,1.84,0,0,0-1-.29,1.76,1.76,0,0,0-1,.27A1.64,1.64,0,0,0,73.9,4a3,3,0,0,0-.23,1.24A2.78,2.78,0,0,0,74.19,7,1.73,1.73,0,0,0,75.61,7.65Z"/><path class="cls-1" d="M82.1,8.55a1.81,1.81,0,0,1-1.56-.72A3.64,3.64,0,0,1,80,5.68V2.19h1.11v3.4a2.85,2.85,0,0,0,.31,1.5,1.09,1.09,0,0,0,1,.49,1.27,1.27,0,0,0,.67-.18,1.72,1.72,0,0,0,.52-.52,2.82,2.82,0,0,0,.37-.8,4.33,4.33,0,0,0,.19-1V2.19h1.09v6.2h-1l.1-2H84.2a4.11,4.11,0,0,1-.44,1.22,1.81,1.81,0,0,1-.7.7A2,2,0,0,1,82.1,8.55Z"/><path class="cls-1" d="M89.09,8.51A1.6,1.6,0,0,1,87.81,8a2.06,2.06,0,0,1-.42-1.42V3.11h-.94V2.19h.59a.73.73,0,0,0,.44-.1.55.55,0,0,0,.16-.36l.12-.94h.67v1.4h1.79v.93H88.44V6.59a1,1,0,0,0,.22.69.91.91,0,0,0,.64.21,2,2,0,0,0,.48-.06,1.35,1.35,0,0,0,.48-.24v1.1a3.6,3.6,0,0,1-.64.17A2.55,2.55,0,0,1,89.09,8.51Z"/><path class="cls-1" d="M93.72,8.55a2.22,2.22,0,0,1-1.36-.42A2.67,2.67,0,0,1,91.5,7a4.62,4.62,0,0,1-.29-1.68,4.62,4.62,0,0,1,.29-1.68,2.56,2.56,0,0,1,.84-1.15,2.17,2.17,0,0,1,1.35-.42,1.88,1.88,0,0,1,1.08.28,2.1,2.1,0,0,1,.68.71,3.44,3.44,0,0,1,.38,1H96c0-.23-.07-.47-.11-.72s-.05-.5-.08-.75,0-.46,0-.65V0h1.1V8.39h-1L96,6.71h-.2a3.46,3.46,0,0,1-.4,1,1.89,1.89,0,0,1-.68.64A1.92,1.92,0,0,1,93.72,8.55Zm.25-1a1.56,1.56,0,0,0,.78-.2,2,2,0,0,0,.59-.54,2.5,2.5,0,0,0,.36-.71,2.27,2.27,0,0,0,.13-.74V5.25a2.14,2.14,0,0,0-.08-.54,2.39,2.39,0,0,0-.21-.6,2.75,2.75,0,0,0-.35-.56,1.73,1.73,0,0,0-.53-.4A1.47,1.47,0,0,0,94,3a1.36,1.36,0,0,0-.9.3,1.84,1.84,0,0,0-.55.84,3.36,3.36,0,0,0-.19,1.18,3.36,3.36,0,0,0,.19,1.2,1.8,1.8,0,0,0,.56.79A1.35,1.35,0,0,0,94,7.59Z"/><path class="cls-1" d="M101.47,8.55a3.06,3.06,0,0,1-1.56-.39A2.73,2.73,0,0,1,98.85,7a3.87,3.87,0,0,1-.37-1.78,3.59,3.59,0,0,1,.4-1.79A2.69,2.69,0,0,1,100,2.4a3.14,3.14,0,0,1,1.5-.36,3,3,0,0,1,1.54.38,2.7,2.7,0,0,1,1.07,1.1,3.62,3.62,0,0,1,.4,1.79,3.73,3.73,0,0,1-.39,1.79A2.59,2.59,0,0,1,103,8.18,3.09,3.09,0,0,1,101.47,8.55Zm0-.9a1.67,1.67,0,0,0,1-.28,1.83,1.83,0,0,0,.64-.8,3.2,3.2,0,0,0,.22-1.22,3.09,3.09,0,0,0-.24-1.27,1.88,1.88,0,0,0-.66-.83,1.87,1.87,0,0,0-1-.29,1.73,1.73,0,0,0-1,.27,1.64,1.64,0,0,0-.64.77,3,3,0,0,0-.23,1.24A2.72,2.72,0,0,0,100.1,7,1.73,1.73,0,0,0,101.52,7.65Z"/><path class="cls-1" d="M108.68,8.55a3.06,3.06,0,0,1-1.56-.39A2.61,2.61,0,0,1,106.06,7a3.87,3.87,0,0,1-.38-1.78,3.7,3.7,0,0,1,.4-1.79,2.71,2.71,0,0,1,1.08-1.07,3.08,3.08,0,0,1,1.5-.36,3,3,0,0,1,1.54.38,2.7,2.7,0,0,1,1.07,1.1,3.73,3.73,0,0,1,.4,1.79,3.73,3.73,0,0,1-.39,1.79,2.59,2.59,0,0,1-1.07,1.08A3.09,3.09,0,0,1,108.68,8.55Zm0-.9a1.72,1.72,0,0,0,1-.28,1.88,1.88,0,0,0,.63-.8,3,3,0,0,0,.22-1.22,3.1,3.1,0,0,0-.23-1.27,2,2,0,0,0-.67-.83,1.82,1.82,0,0,0-1-.29A1.71,1.71,0,0,0,107,4a3.06,3.06,0,0,0-.22,1.24A2.72,2.72,0,0,0,107.31,7,1.73,1.73,0,0,0,108.73,7.65Z"/><path class="cls-1" d="M113.22,8.39V2.19h1l-.1,2.16h.2a5.22,5.22,0,0,1,.34-1.22,1.92,1.92,0,0,1,.61-.8A1.45,1.45,0,0,1,116.2,2a1.32,1.32,0,0,1,.27,0,1.35,1.35,0,0,1,.36.09l-.06,1.14a1.65,1.65,0,0,0-.36-.11,2.07,2.07,0,0,0-.35,0,1.15,1.15,0,0,0-.8.3,2.26,2.26,0,0,0-.57.81,5.74,5.74,0,0,0-.38,1.15v3Z"/><path class="cls-1" d="M0,20.65v-8.4H1.09v8.4Z"/><path class="cls-1" d="M3.54,13.37A.87.87,0,0,1,3,13.21a.55.55,0,0,1-.19-.46A.56.56,0,0,1,3,12.28a.85.85,0,0,1,.56-.16.87.87,0,0,1,.58.16.66.66,0,0,1,0,.93A.85.85,0,0,1,3.54,13.37ZM3,20.65v-6.2h1.1v6.2Z"/><path class="cls-1" d="M7.47,20.65,5.25,14.46H6.46l1.69,5.26h.17L10,14.46h1.19L9,20.65Z"/><path class="cls-1" d="M12.92,13.37a.86.86,0,0,1-.57-.16.55.55,0,0,1-.19-.46.56.56,0,0,1,.19-.47.83.83,0,0,1,.56-.16.87.87,0,0,1,.58.16.66.66,0,0,1,0,.93A.86.86,0,0,1,12.92,13.37Zm-.55,7.28v-6.2h1.09v6.2Z"/><path class="cls-1" d="M15.36,20.65v-6.2h1l-.11,2h.21a4,4,0,0,1,.45-1.2,1.71,1.71,0,0,1,.71-.7,2.15,2.15,0,0,1,1-.23,1.81,1.81,0,0,1,1.56.74,3.72,3.72,0,0,1,.53,2.2v3.42H19.6V17.33a2.87,2.87,0,0,0-.33-1.56,1.07,1.07,0,0,0-1-.51,1.41,1.41,0,0,0-1,.36,2.4,2.4,0,0,0-.63,1,3.78,3.78,0,0,0-.25,1.27v2.81Z"/><path class="cls-1" d="M24.82,22.75a7.19,7.19,0,0,1-1.62-.15,1.85,1.85,0,0,1-.92-.46,1,1,0,0,1-.3-.76,1.12,1.12,0,0,1,.43-.91,2.53,2.53,0,0,1,1.3-.48v-.22a2.4,2.4,0,0,1-1-.15.51.51,0,0,1-.32-.47.66.66,0,0,1,.32-.55,4,4,0,0,1,1.06-.41V18a1.46,1.46,0,0,1-1.12-.44,1.6,1.6,0,0,1-.38-1.1,1.77,1.77,0,0,1,.33-1.07,2.06,2.06,0,0,1,1-.69,4.2,4.2,0,0,1,1.5-.25H28v.93L26.11,15v.22a2.22,2.22,0,0,1,1.07.49,1.18,1.18,0,0,1,.37.92,1.44,1.44,0,0,1-.3.9,1.93,1.93,0,0,1-.88.59,4.27,4.27,0,0,1-1.43.21l-.36,0-.48-.06a3.75,3.75,0,0,0-.52.37c-.14.11-.2.21-.2.3s.06.16.18.21a1.87,1.87,0,0,0,.45.1,4.27,4.27,0,0,0,.49,0h1.41a5.15,5.15,0,0,1,.6.05,2.74,2.74,0,0,1,.73.2,1.62,1.62,0,0,1,.62.48,1.44,1.44,0,0,1,.25.9A1.47,1.47,0,0,1,27.73,22a2.27,2.27,0,0,1-1.11.59A7.69,7.69,0,0,1,24.82,22.75Zm0-.9a6.56,6.56,0,0,0,1.3-.11,1.46,1.46,0,0,0,.73-.31.72.72,0,0,0,.24-.55.69.69,0,0,0-.17-.49.83.83,0,0,0-.4-.25,4,4,0,0,0-.48-.09H24.25a1.87,1.87,0,0,0-1,.43.85.85,0,0,0-.26.58.58.58,0,0,0,.24.51,1.55,1.55,0,0,0,.65.23A6.46,6.46,0,0,0,24.84,21.85ZM25,17.66a1.74,1.74,0,0,0,1.14-.31,1,1,0,0,0,.39-.84,1.24,1.24,0,0,0-.39-.93A1.67,1.67,0,0,0,25,15.22a1.75,1.75,0,0,0-1.16.34,1.15,1.15,0,0,0-.4.9,1,1,0,0,0,.19.63,1.16,1.16,0,0,0,.54.42A2.17,2.17,0,0,0,25,17.66Z"/><path class="cls-1" d="M35.17,20.8a3.4,3.4,0,0,1-1.28-.22,2.42,2.42,0,0,1-.94-.64,2.73,2.73,0,0,1-.58-1,4.08,4.08,0,0,1-.19-1.3,4.34,4.34,0,0,1,.19-1.34,3.3,3.3,0,0,1,.56-1.07,2.5,2.5,0,0,1,.91-.7,3,3,0,0,1,1.24-.25,2.82,2.82,0,0,1,1.11.21,2,2,0,0,1,.86.63,2.78,2.78,0,0,1,.53,1.06,4.69,4.69,0,0,1,.15,1.51l-4.87,0V17l4.21,0-.37.5a2.67,2.67,0,0,0-.15-1.25,1.5,1.5,0,0,0-1.47-1,1.68,1.68,0,0,0-1,.28,1.79,1.79,0,0,0-.64.83,3.42,3.42,0,0,0-.22,1.31,2.51,2.51,0,0,0,.49,1.68,1.77,1.77,0,0,0,1.45.58,2.15,2.15,0,0,0,.66-.09,1.37,1.37,0,0,0,.48-.25,1.51,1.51,0,0,0,.33-.38,1.86,1.86,0,0,0,.19-.46l1,.23a2.53,2.53,0,0,1-.33.77,2.17,2.17,0,0,1-.55.58,2.56,2.56,0,0,1-.76.37A3.37,3.37,0,0,1,35.17,20.8Z"/><path class="cls-1" d="M38.51,20.65l2.1-3.1-2.13-3.1h1.29l1.46,2.49h.16l1.43-2.49H44.1L42,17.55l2.14,3.1H42.86l-1.47-2.51h-.16l-1.44,2.51Z"/><path class="cls-1" d="M45.35,22.59V14.45h1L46.28,16h.18a3,3,0,0,1,.4-.91,1.87,1.87,0,0,1,.66-.62,2.16,2.16,0,0,1,1-.22,2.33,2.33,0,0,1,1.42.43,2.63,2.63,0,0,1,.86,1.16,4.61,4.61,0,0,1,.28,1.67,4.57,4.57,0,0,1-.28,1.67,2.75,2.75,0,0,1-.85,1.16,2.18,2.18,0,0,1-1.36.42,2,2,0,0,1-1.07-.27,1.93,1.93,0,0,1-.68-.71,4.66,4.66,0,0,1-.4-.92h-.2a6.66,6.66,0,0,1,.12.67c0,.23.06.46.08.69s0,.44,0,.65v1.68Zm2.95-2.73a1.34,1.34,0,0,0,.89-.31,1.92,1.92,0,0,0,.55-.83,3.42,3.42,0,0,0,.19-1.19,3.38,3.38,0,0,0-.19-1.21,1.88,1.88,0,0,0-.56-.79,1.42,1.42,0,0,0-.88-.28,1.56,1.56,0,0,0-.78.2,1.83,1.83,0,0,0-.58.53,2.73,2.73,0,0,0-.37.72,2.58,2.58,0,0,0-.12.77v.14a2.22,2.22,0,0,0,.07.54,3.81,3.81,0,0,0,.21.59,2.31,2.31,0,0,0,.37.55,1.72,1.72,0,0,0,.52.41A1.51,1.51,0,0,0,48.3,19.86Z"/><path class="cls-1" d="M55.32,20.8A3.42,3.42,0,0,1,54,20.58a2.5,2.5,0,0,1-.94-.64,2.73,2.73,0,0,1-.58-1,4.08,4.08,0,0,1-.19-1.3,4.34,4.34,0,0,1,.19-1.34,3.14,3.14,0,0,1,.57-1.07,2.42,2.42,0,0,1,.91-.7,3,3,0,0,1,1.23-.25,2.9,2.9,0,0,1,1.12.21,2,2,0,0,1,.85.63,2.79,2.79,0,0,1,.54,1.06,5,5,0,0,1,.14,1.51l-4.87,0V17l4.21,0-.37.5a2.82,2.82,0,0,0-.14-1.25,1.58,1.58,0,0,0-.59-.74,1.55,1.55,0,0,0-.89-.25,1.68,1.68,0,0,0-1,.28,1.86,1.86,0,0,0-.64.83,3.42,3.42,0,0,0-.22,1.31,2.51,2.51,0,0,0,.49,1.68,1.79,1.79,0,0,0,1.45.58,2.15,2.15,0,0,0,.66-.09,1.37,1.37,0,0,0,.48-.25,1.33,1.33,0,0,0,.33-.38,2.37,2.37,0,0,0,.2-.46L58,19a2.78,2.78,0,0,1-.32.77,2.21,2.21,0,0,1-.56.58,2.56,2.56,0,0,1-.76.37A3.35,3.35,0,0,1,55.32,20.8Z"/><path class="cls-1" d="M59.42,20.65v-6.2h1l-.1,2.16h.21a5,5,0,0,1,.33-1.23,2.1,2.1,0,0,1,.61-.8,1.5,1.5,0,0,1,.94-.29l.28,0a1.57,1.57,0,0,1,.36.09L63,15.54a1.61,1.61,0,0,0-.36-.1l-.35,0a1.2,1.2,0,0,0-.81.3,2.26,2.26,0,0,0-.57.81,5.86,5.86,0,0,0-.37,1.14v3Z"/><path class="cls-1" d="M64.76,13.37a.86.86,0,0,1-.57-.16.55.55,0,0,1-.19-.46.56.56,0,0,1,.19-.47.83.83,0,0,1,.56-.16.87.87,0,0,1,.58.16.66.66,0,0,1,0,.93A.86.86,0,0,1,64.76,13.37Zm-.55,7.28v-6.2H65.3v6.2Z"/><path class="cls-1" d="M69.86,20.8a3.42,3.42,0,0,1-1.29-.22,2.5,2.5,0,0,1-.94-.64,2.73,2.73,0,0,1-.58-1,4.38,4.38,0,0,1-.19-1.3,4.66,4.66,0,0,1,.19-1.34,3.14,3.14,0,0,1,.57-1.07,2.42,2.42,0,0,1,.91-.7,3,3,0,0,1,1.23-.25,2.9,2.9,0,0,1,1.12.21,2.11,2.11,0,0,1,.86.63,2.93,2.93,0,0,1,.53,1.06,4.71,4.71,0,0,1,.14,1.51l-4.87,0V17l4.21,0-.37.5a2.82,2.82,0,0,0-.14-1.25,1.62,1.62,0,0,0-.58-.74,1.58,1.58,0,0,0-.9-.25,1.7,1.7,0,0,0-1,.28,1.86,1.86,0,0,0-.64.83,3.42,3.42,0,0,0-.22,1.31,2.51,2.51,0,0,0,.49,1.68,1.79,1.79,0,0,0,1.45.58,2.22,2.22,0,0,0,.67-.09,1.57,1.57,0,0,0,.48-.25,1.3,1.3,0,0,0,.32-.38,2.37,2.37,0,0,0,.2-.46l1,.23a3.14,3.14,0,0,1-.33.77,2.34,2.34,0,0,1-.55.58,2.62,2.62,0,0,1-.77.37A3.3,3.3,0,0,1,69.86,20.8Z"/><path class="cls-1" d="M74,20.65v-6.2h1l-.11,2H75a4,4,0,0,1,.45-1.2,1.77,1.77,0,0,1,.71-.7,2.18,2.18,0,0,1,1-.23,1.8,1.8,0,0,1,1.56.74,3.72,3.72,0,0,1,.54,2.2v3.42H78.2V17.33a2.87,2.87,0,0,0-.33-1.56,1.07,1.07,0,0,0-1-.51,1.43,1.43,0,0,0-1,.36,2.4,2.4,0,0,0-.63,1,4,4,0,0,0-.25,1.27v2.81Z"/><path class="cls-1" d="M83.77,20.8a3.38,3.38,0,0,1-1.39-.26,2.44,2.44,0,0,1-.92-.71,2.74,2.74,0,0,1-.52-1,4.29,4.29,0,0,1-.16-1.2A4.45,4.45,0,0,1,81,16.33a3.06,3.06,0,0,1,.55-1.06,2.39,2.39,0,0,1,.91-.72,3,3,0,0,1,1.27-.26,3,3,0,0,1,1.25.25,2.24,2.24,0,0,1,1.32,1.74l-1,.29a1.75,1.75,0,0,0-.2-.65,1.55,1.55,0,0,0-.51-.51,1.62,1.62,0,0,0-.83-.19,1.66,1.66,0,0,0-.8.18,1.63,1.63,0,0,0-.55.5,2.5,2.5,0,0,0-.33.76,3.72,3.72,0,0,0,.08,2.14,1.66,1.66,0,0,0,.62.8,1.78,1.78,0,0,0,1.07.29,2,2,0,0,0,.85-.17,1.45,1.45,0,0,0,.55-.49,2,2,0,0,0,.26-.75l1,.23a2.88,2.88,0,0,1-.31.91,2.14,2.14,0,0,1-.58.65,2.86,2.86,0,0,1-.8.4A3.32,3.32,0,0,1,83.77,20.8Z"/><path class="cls-1" d="M90.35,20.8a3.42,3.42,0,0,1-1.29-.22,2.5,2.5,0,0,1-.94-.64,2.73,2.73,0,0,1-.58-1,4.38,4.38,0,0,1-.19-1.3,4.66,4.66,0,0,1,.19-1.34,3.14,3.14,0,0,1,.57-1.07,2.42,2.42,0,0,1,.91-.7,3,3,0,0,1,1.23-.25,2.9,2.9,0,0,1,1.12.21,2,2,0,0,1,.85.63,2.79,2.79,0,0,1,.54,1.06,4.71,4.71,0,0,1,.14,1.51l-4.87,0V17l4.21,0-.37.5a2.82,2.82,0,0,0-.14-1.25,1.62,1.62,0,0,0-.58-.74,1.58,1.58,0,0,0-.9-.25,1.68,1.68,0,0,0-1,.28,1.86,1.86,0,0,0-.64.83,3.42,3.42,0,0,0-.22,1.31,2.51,2.51,0,0,0,.49,1.68,1.79,1.79,0,0,0,1.45.58,2.22,2.22,0,0,0,.67-.09,1.41,1.41,0,0,0,.47-.25,1.19,1.19,0,0,0,.33-.38,2.37,2.37,0,0,0,.2-.46L93,19a3.14,3.14,0,0,1-.33.77,2.21,2.21,0,0,1-.56.58,2.56,2.56,0,0,1-.76.37A3.3,3.3,0,0,1,90.35,20.8Z"/><path class="cls-1" d="M98.48,20.65l-1.65-6.2H98l1.22,5.27h.2l1.3-5.27h1.42l1.32,5.27h.18l1.22-5.27h1.11l-1.66,6.2h-1.54l-1.28-5.27h-.14L100,20.65Z"/><path class="cls-1" d="M107.74,13.37a.86.86,0,0,1-.57-.16.55.55,0,0,1-.19-.46.56.56,0,0,1,.19-.47.83.83,0,0,1,.56-.16.87.87,0,0,1,.58.16.66.66,0,0,1,0,.93A.86.86,0,0,1,107.74,13.37Zm-.55,7.28v-6.2h1.09v6.2Z"/><path class="cls-1" d="M112.11,20.77a1.62,1.62,0,0,1-1.28-.47,2,2,0,0,1-.42-1.43V15.36h-.94v-.91h.59a.73.73,0,0,0,.44-.11.51.51,0,0,0,.16-.36l.12-.93h.67v1.4h1.79v.92h-1.79v3.48a.91.91,0,0,0,.22.69.9.9,0,0,0,.64.21,2,2,0,0,0,.48-.06,1.35,1.35,0,0,0,.48-.24v1.09a3,3,0,0,1-.64.18A3.49,3.49,0,0,1,112.11,20.77Z"/><path class="cls-1" d="M114.63,20.65v-8.4h1.12v1.94a4.78,4.78,0,0,1,0,.53c0,.18,0,.36,0,.54s0,.37-.07.56-.05.38-.08.57h.2a4.26,4.26,0,0,1,.46-1.17,1.83,1.83,0,0,1,.69-.69,1.91,1.91,0,0,1,1-.24,1.8,1.8,0,0,1,1.57.74,3.8,3.8,0,0,1,.52,2.2v3.42h-1.1V17.34a2.93,2.93,0,0,0-.33-1.58,1.11,1.11,0,0,0-1-.5,1.36,1.36,0,0,0-.93.33,2.17,2.17,0,0,0-.61.87,4.32,4.32,0,0,0-.29,1.26v2.93Z"/></g></g></svg>