<svg xmlns="http://www.w3.org/2000/svg" viewBox="0 0 39.38 32.48"><defs><style>.cls-1{fill:#fff;}</style></defs><g id="Layer_2" data-name="Layer 2"><g id="Layer_1-2" data-name="Layer 1"><path class="cls-1" d="M31.74,18.74c0,.23-.06.3-.28.29l-.88,0c-.49-.19-.49-.19-.49-.73,0-.84,0-1.67,0-2.5a.45.45,0,0,1,0-.28s.07-.06,0-.07-.07-.14-.07-.21c0-.63,0-1.25,0-1.88,0-.1.05-.22,0-.31H10.32c-.21,0-.27.05-.27.27,0,1.82,0,3.64,0,5.46,0,.22,0,.29-.28.28-.42,0-.84,0-1.27,0-.15,0-.2,0-.2-.19,0-2.4,0-4.81,0-7.21,0-.26.16-.18.28-.18H31.38c.27,0,.37,0,.36.34Q31.73,15.26,31.74,18.74Z"/><path class="cls-1" d="M13.42,3.8a.72.72,0,0,1,.31-.2c.09,0,.19,0,.2-.14.21-.07.36-.27.58-.32.07-.08.26,0,.26-.14l.08,0c.08-.05.2,0,.25-.15L18.74.69l.39-.21c.07,0,.19,0,.21-.12A4.8,4.8,0,0,1,19.88,0a.36.36,0,0,1,.4,0,1.41,1.41,0,0,0,.35.21c.08.2.27.17.42.24L24,2.2c1.41.82,2.83,1.63,4.23,2.47.39.23.76.49,1.17.7.07,0,.12.1.2.11h0a.67.67,0,0,0,.42.26c.17,0,.22.17.36.21,0,.07,0,.13.07.16l.56.22.15.08c-.1.25-.3.14-.46.15s.14.1.14.1a1.19,1.19,0,0,1-.46,0c0-.1-.12-.08-.19-.08a7.62,7.62,0,0,0-1.35,0,.23.23,0,0,1-.21,0c-.67-.37-1.34-.74-2-1.13L20.23,1.79a.3.3,0,0,0-.35,0Q16.09,4,12.28,6.15c-.32.19-.66.34-1,.52a1.4,1.4,0,0,1-.5,0h-.08a1.4,1.4,0,0,1-.5,0h0a1.09,1.09,0,0,1-.44,0H9.67a1.09,1.09,0,0,1-.44,0H8.5a1,1,0,0,1,.43-.27c.08-.05.2-.05.25-.15C9.86,5.8,10.59,5.42,11.3,5l1.45-.83A1,1,0,0,0,13.42,3.8Z"/><path class="cls-1" d="M20.05,9.41H30c.27,0,.37.07.34.34s0,.41,0,.62c0,.43-.14.55-.57.55H19.26l-9.12,0a.45.45,0,0,1-.49-.45c0-.23,0-.46,0-.68S9.7,9.4,10,9.4c2.48,0,5,0,7.44,0Z"/><path class="cls-1" d="M20.05,7.52c2.7,0,5.39,0,8.09,0,.24,0,.36,0,.32.31s0,.34,0,.52c0,.43-.15.56-.57.56H12a.43.43,0,0,1-.41-.42c-.08-1-.08-1,.86-1Z"/><path class="cls-1" d="M3.1,26.64a12.55,12.55,0,0,1-1.9-.06A1.47,1.47,0,0,1,0,25.15C0,24.08,0,23,0,21.93c0-.16,0-.22.22-.21a6.32,6.32,0,0,0,.87,0c.23,0,.28.07.28.28,0,.87,0,1.75,0,2.63,0,.69.19.89.87.91H4.35c.62,0,.82-.22.82-.83q0-1.36,0-2.73c0-.2,0-.26.25-.25s.61,0,.91,0,.23,0,.23.21c0,1.05,0,2.1,0,3.15a1.6,1.6,0,0,1-1.63,1.56Z"/><path class="cls-1" d="M28.37,26.63c-.55,0-1.1,0-1.65,0a1.49,1.49,0,0,1-1.54-1.45c0-1.09,0-2.19,0-3.28,0-.16.06-.19.21-.19.3,0,.61,0,.91,0s.25.05.25.25c0,.88,0,1.76,0,2.63s.23.95,1,.95,1.38,0,2.08,0c.53,0,.73-.23.73-.77,0-.93,0-1.86,0-2.79,0-.2,0-.27.25-.26s.65,0,1,0c.16,0,.19.05.19.21,0,1,0,2,0,3.08a1.6,1.6,0,0,1-1.65,1.64H28.37Z"/><path class="cls-1" d="M20.06,5.63c1.88,0,3.77,0,5.65,0,.25,0,.3.09.31.31,0,1,0,1.08-1,1.07H14.66c-.46,0-.59-.12-.59-.57,0-.8,0-.8.79-.8Z"/><path class="cls-1" d="M9,26.29a.58.58,0,0,1,0,.32c0-1,0-2,0-3,0-.1,0-.2.07-.27a3.05,3.05,0,0,0,0,.8C9,24.83,9,25.56,9,26.29Z"/><path class="cls-1" d="M16.52,26.36c0,.23-.06.3-.29.28a7.3,7.3,0,0,0-.81,0c-.2,0-.28,0-.28-.26,0-.73,0-1.47,0-2.2h0c0-.71,0-1.43,0-2.14,0-.25,0-.36.31-.33s.78-.14,1,.08.06.64.06,1C16.52,24,16.51,25.16,16.52,26.36Z"/><path class="cls-1" d="M19.68,30.91c0,.44,0,.89,0,1.33,0,.16-.05.19-.2.19H17.3a1,1,0,0,1-1.1-1.06c0-.25,0-.5,0-.75a1.09,1.09,0,0,1,1.29-1.14h2.05c.11-.07.16,0,.15.09s0,.25,0,.38-.13.15-.23.15H17.65c-.54,0-.7.15-.71.69,0,1,0,1.06,1,1.05a4.68,4.68,0,0,1,.65,0c.29,0,.34-.07.33-.33s-.07-.26-.26-.24-.26,0-.39,0c-.3.05-.36-.08-.34-.36s.06-.24.24-.23c.41,0,.83,0,1.24,0C19.61,30.67,19.69,30.71,19.68,30.91Z"/><path class="cls-1" d="M18,29.47h-.52A1.14,1.14,0,0,1,18,29.47Z"/><path class="cls-1" d="M35.42,31.83l0,.05a.71.71,0,0,1-.67.54H32.48c-.3,0-.16-.22-.18-.35s0-.27.2-.27c.62,0,1.24,0,1.85,0a.45.45,0,0,0,.37-.1.28.28,0,0,0-.26-.46c-.49,0-1,0-1.47,0a.75.75,0,0,1-.79-.58.91.91,0,0,1,.43-1.08.7.7,0,0,1,.48-.14H34.9c.4,0,.4,0,.37.41.07.19,0,.22-.19.22H33.2a.31.31,0,0,0-.32.3c0,.2.15.25.31.27a5.56,5.56,0,0,0,.58,0c.26,0,.52,0,.77,0a.76.76,0,0,1,.85.56A.55.55,0,0,1,35.42,31.83Z"/><path class="cls-1" d="M35.39,31.88l0-.05A.05.05,0,0,1,35.39,31.88Z"/><path class="cls-1" d="M27.65,32.28c0,.25-.12.15-.24.13h0l-2.53,0c-.12,0-.14,0-.14-.15,0-.88,0-1.75,0-2.63,0-.15.05-.22.2-.2s.32,0,.48,0a4.76,4.76,0,0,1,0,1v.32h0V31a1.51,1.51,0,0,1,0,.3c0,.08,0,.16,0,.24s0,.06,0,.09a.31.31,0,0,0,.06.13.38.38,0,0,0,.26.08c.16,0,.34,0,.49,0,.39,0,.78,0,1.17,0S27.63,32.11,27.65,32.28Z"/><path class="cls-1" d="M15.88,21.14c-.74,0-.74,0-.73-.73,0-.58,0-.58.6-.59.77,0,.77,0,.77.74C16.52,21.12,16.52,21.12,15.88,21.14Z"/><path class="cls-1" d="M14.1,26.4c0,.24-.1.27-.29.22h0c-.33,0-.73.12-.95,0s-.08-.6-.09-.91c0-.7,0-1.41,0-2.11,0-.47-.24-.7-.71-.7-.81,0-1.62,0-2.43,0a.7.7,0,0,0-.6.43c-.09.07-.07.17-.07.27,0,1,0,2,0,3-.41.06-.82,0-1.23,0-.14,0-.15-.07-.15-.18,0-1.07,0-2.14,0-3.21a1.53,1.53,0,0,1,1.51-1.52c1.15,0,2.3,0,3.44,0a1.42,1.42,0,0,1,1.3.76,1.33,1.33,0,0,1,.27.88C14.09,24.38,14.08,25.39,14.1,26.4Z"/><path class="cls-1" d="M30.05,13c.13.09.07.22.08.33a16.45,16.45,0,0,0,0,1.72c.06.52-.06,1,0,1.54s0,1.19,0,1.79c0,.23-.06.49.32.47.06,0,.11.07.13.13-.53,0-.53,0-.53-.46Z"/><path class="cls-1" d="M11.62,31.9c.07.52.07.53-.44.53l-2.12,0c-.47,0-.47,0-.47-.4,0-.76,0-1.53,0-2.3,0-.19,0-.27.23-.27h2.6c.22,0,.25.1.21.25s.16.39-.17.39l-2,0c-.25.14-.09.38-.1.56s.18,0,.27.05h1.65c.17,0,.25,0,.21.22s.12.36-.17.36H9.41c-.13.14-.05.31-.06.46s.15.12.24.12h1.75c.08,0,.19-.06.26.05A0,0,0,0,1,11.62,31.9Z"/><path class="cls-1" d="M28.57,6.59a11.33,11.33,0,0,1,1.84-.07c0,.08-.08.08-.09.15l-1.5,0A.32.32,0,0,1,28.57,6.59Z"/><path class="cls-1" d="M9,26.28c0,.11.06.23-.05.33,0-1,0-2,0-3,0-.1,0-.2.07-.27C9,24.29,9,25.28,9,26.28Z"/><path class="cls-1" d="M30.78,6.66c0-.08-.13,0-.22-.11a1.17,1.17,0,0,0,.54-.14l.45.24A3.34,3.34,0,0,1,30.78,6.66Z"/><path class="cls-1" d="M31,6.33a1,1,0,0,1-.69-.22c-.2-.14.08-.09.06-.16A1.69,1.69,0,0,1,31,6.33Z"/><path class="cls-1" d="M13.42,3.8a.51.51,0,0,1-.67.38A2.47,2.47,0,0,1,13.42,3.8Z"/><path class="cls-1" d="M23,29.47a8,8,0,0,0-1.47,0h-.17a.44.44,0,0,0-.32.05h0a1,1,0,0,0-.77.93,3.94,3.94,0,0,0,0,1,1,1,0,0,0,1.07,1c.6,0,1.19,0,1.79,0a1,1,0,0,0,1-1c0-.23,0-.47,0-.71A1.12,1.12,0,0,0,23,29.47Zm-.63,2.35h-.2c-.24,0-.47,0-.71,0a.47.47,0,0,1-.47-.48,5,5,0,0,1,0-.55c0-.52.15-.69.69-.7h1.1a.59.59,0,0,1,.64.66C23.42,31.62,23.37,31.86,22.36,31.82Z"/><path class="cls-1" d="M21.05.54c-.18,0-.42.09-.42-.24A1,1,0,0,1,21.05.54Z"/><path class="cls-1" d="M30,5.74c-.18,0-.43.07-.42-.26A1,1,0,0,1,30,5.74Z"/><path class="cls-1" d="M19.34.36s.11.06.05.12-.17.05-.26,0A.35.35,0,0,1,19.34.36Z"/><path class="cls-1" d="M13.93,3.46c0,.06.07.12,0,.17s-.13,0-.2,0Z"/><path class="cls-1" d="M14.77,3c.06.3-.18.08-.26.14Z"/><path class="cls-1" d="M10.79,6.67h.5A1.06,1.06,0,0,1,10.79,6.67Z"/><path class="cls-1" d="M10.21,6.67h.5A1.06,1.06,0,0,1,10.21,6.67Z"/><path class="cls-1" d="M18,29.47h-.52A1,1,0,0,1,18,29.47Z"/><path class="cls-1" d="M9.75,6.67h.44A.82.82,0,0,1,9.75,6.67Z"/><path class="cls-1" d="M9.23,6.67h.44A.82.82,0,0,1,9.23,6.67Z"/><path class="cls-1" d="M9.18,6.25c0,.14-.13.16-.25.15A.5.5,0,0,1,9.18,6.25Z"/><path class="cls-1" d="M29.55,5.48c-.14.09-.15,0-.2-.11S29.49,5.42,29.55,5.48Z"/><path class="cls-1" d="M15.1,2.8c0,.14-.13.16-.25.15Z"/><path class="cls-1" d="M31.73,32.41c.07,0,.15,0,.15-.13s.1.06.07.1S31.81,32.43,31.73,32.41Z"/><path class="cls-1" d="M24.16,23.35a1.63,1.63,0,0,0-1.62-1.62c-1.13,0-2.27,0-3.41,0a1.6,1.6,0,0,0-1.61,1.67c0,.56,0,1.11,0,1.66a1.55,1.55,0,0,0,1.62,1.58H22a1.22,1.22,0,0,0,.8-.18c0,.6,0,1.13,0,1.66,0,.14,0,.21.19.21h1c.13,0,.18,0,.18-.18C24.17,26.55,24.18,25,24.16,23.35ZM22.8,24.78a.69.69,0,0,1-.74.76q-1.23,0-2.46,0c-.43,0-.65-.2-.67-.63a14.83,14.83,0,0,1,0-1.49.61.61,0,0,1,.65-.55c.42,0,.84,0,1.27,0h1.23c.49,0,.71.22.73.71S22.81,24.38,22.8,24.78Z"/><path class="cls-1" d="M34.34,24.62h2.37c.82,0,1.63,0,2.44,0,.19,0,.24-.05.23-.23,0-.38,0-.76,0-1.14a1.57,1.57,0,0,0-1.51-1.53c-1.2,0-2.4,0-3.6,0a1.58,1.58,0,0,0-1.55,1.6v1.59a1.58,1.58,0,0,0,1.72,1.72h3.93c.27,0,.63.08.78-.06s0-.5,0-.77-.06-.26-.27-.26H34.86c-.52,0-.7-.18-.75-.69C34.09,24.67,34.14,24.61,34.34,24.62Zm-.24-1.07c0-.52.24-.75.77-.75.84,0,1.68,0,2.53,0,.51,0,.69.22.7.72,0,.2-.06.25-.25.25H34.31C34.14,23.78,34.09,23.73,34.1,23.55Z"/><path class="cls-1" d="M15.73,30.71c.11-.64-.09-.94-.81-1.24a9.09,9.09,0,0,0-1.65,0H12.4c-.11,0-.12.05-.12.14,0,.89,0,1.78,0,2.66,0,.08,0,.14.1.17.47.13.64,0,.64-.46v-.29c0-.07,0-.14.09-.14a5.85,5.85,0,0,1,.94,0c.2,0,.29.28.41.43a.94.94,0,0,0,1.25.37L15,31.51A.91.91,0,0,0,15.73,30.71Zm-1.1.2a5.31,5.31,0,0,1-1.49,0c-.27,0,0-.45-.1-.68s0-.18.15-.17h1.36c.24,0,.45.07.47.34A.41.41,0,0,1,14.63,30.91Z"/><path class="cls-1" d="M31.88,32.28c-.38-.74-.75-1.48-1.13-2.21s-.34-.65-1.07-.62a.28.28,0,0,0-.3.18c-.48.92-1,1.84-1.46,2.76.7.12.74.11,1-.45a.31.31,0,0,1,.31-.17c.41,0,.82,0,1.23,0s.42.05.48.3a.43.43,0,0,0,.56.36.62.62,0,0,1,.19,0C31.84,32.43,31.94,32.45,31.88,32.28Zm-2.49-1.11L30,30l.57,1.13Z"/><path class="cls-1" d="M7.7,29.67a.59.59,0,0,0-.49-.21H4.91c-.11,0-.18,0-.17.16,0,.89,0,1.79,0,2.68,0,0,0,.11,0,.11a1.83,1.83,0,0,0,.66,0c.16-.06,0-.31.06-.48a.43.43,0,0,0,0-.16c0-.16,0-.2.19-.2.46,0,.91,0,1.36,0a1,1,0,0,0,1-.6A1.05,1.05,0,0,0,7.7,29.67ZM7,30.93c-.47,0-.93,0-1.4,0,0,0-.13,0-.13-.07,0-.25,0-.5,0-.74s.12-.07.19-.07H7a.39.39,0,0,1,.44.41C7.41,30.75,7.29,30.92,7,30.93Z"/></g></g></svg>