<svg id="Feature-3" xmlns="http://www.w3.org/2000/svg" width="223.54" height="12.906" viewBox="0 0 223.54 12.906">
  <defs>
    <style>
      .cls-1 {
        fill: #fff;
        fill-rule: evenodd;
      }
    </style>
  </defs>
  <path id="_11.25_P.A" data-name="11.25% P.A" class="cls-1" d="M1668.83,49.763h-1.25a3.265,3.265,0,0,1-2.72,1.735v1.187a3.148,3.148,0,0,0,2.46-.867h0.1V61.45h1.41V49.763Zm7.11,0h-1.26a3.228,3.228,0,0,1-2.72,1.735v1.187a3.158,3.158,0,0,0,2.47-.867h0.09V61.45h1.42V49.763Zm4.36,11.778a1.027,1.027,0,1,0-1.02-1.027A1.029,1.029,0,0,0,1680.3,61.541Zm3.43-.091h7.38V60.195h-5.44V60.1l2.63-2.808c2.01-2.151,2.61-3.156,2.61-4.451a3.316,3.316,0,0,0-3.52-3.241,3.406,3.406,0,0,0-3.61,3.447h1.34a2.085,2.085,0,0,1,2.22-2.214,2.039,2.039,0,0,1,2.24,2.009c0,1.078-.63,1.877-1.99,3.355l-3.86,4.223V61.45Zm13.39,0.16a3.754,3.754,0,0,0,3.86-3.88,3.71,3.71,0,0,0-3.72-3.926,3.412,3.412,0,0,0-2.04.662h-0.06l0.41-3.447h4.89V49.763h-6.08l-0.71,5.752,1.33,0.16a3.733,3.733,0,0,1,2.03-.593,2.56,2.56,0,0,1,2.58,2.671,2.47,2.47,0,0,1-2.49,2.6,2.148,2.148,0,0,1-2.26-1.826h-1.37A3.383,3.383,0,0,0,1697.12,61.61Zm12.09-2.351a2.276,2.276,0,1,0,4.55,0V58.643a2.183,2.183,0,0,0-2.27-2.351,2.208,2.208,0,0,0-2.28,2.351v0.616Zm-5.83-6.688a2.276,2.276,0,1,0,4.55,0V51.954a2.181,2.181,0,0,0-2.26-2.351,2.21,2.21,0,0,0-2.29,2.351v0.616Zm0.44,8.879h1.3l8.04-11.687h-1.3Zm6.55-2.808a1.178,1.178,0,0,1,1.12-1.37,1.148,1.148,0,0,1,1.1,1.37v0.616a1.135,1.135,0,1,1-2.22,0V58.643Zm-5.82-6.688a1.177,1.177,0,0,1,1.12-1.37,1.146,1.146,0,0,1,1.09,1.37v0.616a1.131,1.131,0,1,1-2.21,0V51.954Zm15.9,4.144h0.83V53.611h1.49a2.166,2.166,0,1,0-.01-4.323h-2.31V56.1Zm0.83-3.219v-2.86h1.45a1.433,1.433,0,1,1,.01,2.86h-1.46Zm5.28,3.272a0.6,0.6,0,1,0-.6-0.6A0.6,0.6,0,0,0,1726.56,56.152Zm2.39-.053,0.69-1.929h2.76l0.68,1.929h0.87l-2.51-6.811h-0.85l-2.5,6.811h0.86Zm0.95-2.66,1.09-3.073h0.05l1.1,3.073h-2.24Z" transform="translate(-1664.84 -48.938)"/>
  <path id="BB" class="cls-1" d="M1772.37,60.631h4.22c2.77,0,3.91-1.347,3.91-3.1a2.733,2.733,0,0,0-2.35-2.922V54.49a2.335,2.335,0,0,0,1.89-2.442c0-1.712-1.14-3.1-3.59-3.1h-4.08V60.631Zm1.41-1.255V55.312h2.88a2.292,2.292,0,0,1,2.49,2.214c0,1.027-.71,1.849-2.56,1.849h-2.81Zm0-5.3V50.2h2.67c1.56,0,2.24.822,2.24,1.849a2.085,2.085,0,0,1-2.28,2.032h-2.63Zm9.05,6.551h4.23c2.76,0,3.9-1.347,3.9-3.1a2.726,2.726,0,0,0-2.35-2.922V54.49a2.334,2.334,0,0,0,1.9-2.442c0-1.712-1.14-3.1-3.59-3.1h-4.09V60.631Zm1.42-1.255V55.312h2.88a2.292,2.292,0,0,1,2.49,2.214c0,1.027-.71,1.849-2.56,1.849h-2.81Zm0-5.3V50.2h2.67c1.55,0,2.24.822,2.24,1.849a2.094,2.094,0,0,1-2.29,2.032h-2.62Z" transform="translate(-1664.84 -48.938)"/>
  <path id="_0.15_" data-name="0.15%" class="cls-1" d="M1851.59,61.835c2.58,0,4.07-2.186,4.07-6,0-3.789-1.51-6-4.07-6s-4.07,2.214-4.07,6C1847.52,59.649,1849.01,61.835,1851.59,61.835Zm0-1.255c-1.7,0-2.7-1.706-2.7-4.748s1.01-4.771,2.7-4.771,2.7,1.735,2.7,4.771S1853.29,60.579,1851.59,60.579Zm7.24,1.187a1.027,1.027,0,1,0-1.03-1.027A1.029,1.029,0,0,0,1858.83,61.766Zm5.9-11.778h-1.26a3.228,3.228,0,0,1-2.72,1.735V52.91a3.2,3.2,0,0,0,2.47-.867h0.09v9.633h1.42V49.988Zm7.01,11.847a3.754,3.754,0,0,0,3.86-3.881,3.71,3.71,0,0,0-3.72-3.926,3.381,3.381,0,0,0-2.03.662h-0.07l0.41-3.447h4.89V49.988H1869l-0.71,5.752,1.33,0.16a3.733,3.733,0,0,1,2.03-.593,2.56,2.56,0,0,1,2.58,2.671,2.47,2.47,0,0,1-2.49,2.6,2.148,2.148,0,0,1-2.26-1.826h-1.37A3.389,3.389,0,0,0,1871.74,61.835Zm12.09-2.351a2.276,2.276,0,1,0,4.55,0V58.867a2.181,2.181,0,0,0-2.26-2.351,2.21,2.21,0,0,0-2.29,2.351v0.616ZM1878,52.8a2.276,2.276,0,1,0,4.55,0V52.179a2.181,2.181,0,0,0-2.26-2.351,2.216,2.216,0,0,0-2.29,2.351V52.8Zm0.44,8.879h1.3l8.04-11.687h-1.3Zm6.56-2.808a1.178,1.178,0,0,1,1.12-1.37,1.146,1.146,0,0,1,1.09,1.37v0.616a1.131,1.131,0,1,1-2.21,0V58.867Zm-5.83-6.688a1.178,1.178,0,0,1,1.12-1.37,1.153,1.153,0,0,1,1.1,1.37V52.8a1.135,1.135,0,1,1-2.22,0V52.179Z" transform="translate(-1664.84 -48.938)"/>
</svg>
