<svg xmlns="http://www.w3.org/2000/svg" viewBox="0 0 133.64 57.28"><g id="Layer_2" data-name="Layer 2"><g id="Layer_1-2" data-name="Layer 1"><path d="M11.4,22.57a12.34,12.34,0,0,1-6-1.4,10,10,0,0,1-4-3.94A11.78,11.78,0,0,1,0,11.34,11.74,11.74,0,0,1,1.42,5.46a10,10,0,0,1,4-3.94,12.24,12.24,0,0,1,6-1.41,12.28,12.28,0,0,1,6,1.41,10,10,0,0,1,4,3.94,11.65,11.65,0,0,1,1.44,5.88,11.68,11.68,0,0,1-1.44,5.89,10,10,0,0,1-4,3.94A12.38,12.38,0,0,1,11.4,22.57Zm0-4.85A7.35,7.35,0,0,0,14.87,17a5.32,5.32,0,0,0,2.23-2.2,7,7,0,0,0,.79-3.42,6.9,6.9,0,0,0-.79-3.41,5.32,5.32,0,0,0-2.23-2.2A7.35,7.35,0,0,0,11.4,5,7.28,7.28,0,0,0,8,5.73a5.48,5.48,0,0,0-2.25,2.2,6.91,6.91,0,0,0-.8,3.41,7,7,0,0,0,.8,3.42A5.48,5.48,0,0,0,8,17,7.28,7.28,0,0,0,11.4,17.72Z"/><path d="M31.62,22.54a6.39,6.39,0,0,1-3.52-.93A6,6,0,0,1,25.89,19a9.92,9.92,0,0,1-.76-4.07V5.74h4.81V14.1a4.73,4.73,0,0,0,.85,3,3,3,0,0,0,2.46,1.07,3.52,3.52,0,0,0,2-.55,3.44,3.44,0,0,0,1.28-1.58A6.07,6.07,0,0,0,37,13.64l1.5.89a11.89,11.89,0,0,1-1.23,4.38,7.09,7.09,0,0,1-2.43,2.71A5.89,5.89,0,0,1,31.62,22.54Zm6.31-.43L37,15.74v-10h4.8v10.8l.94,5.57Z"/><path d="M43.67,9.71V7.38l3-1.23,2.07-4.77h2.74V5.74h6.36v4H51.53v5.4a3.81,3.81,0,0,0,.67,2.57,3.22,3.22,0,0,0,2.4.73,7.59,7.59,0,0,0,1.95-.22,7.75,7.75,0,0,0,1.59-.59v4a11.88,11.88,0,0,1-4.62.92,8,8,0,0,1-3.87-.83,5.12,5.12,0,0,1-2.22-2.34,8.18,8.18,0,0,1-.71-3.55V9.71Z"/><path d="M74.56,13.93a13.31,13.31,0,0,1-1.47,4.55,8.55,8.55,0,0,1-2.74,3,7.12,7.12,0,0,1-7.54,0,7.43,7.43,0,0,1-2.57-3,10.34,10.34,0,0,1-.93-4.52,10.34,10.34,0,0,1,.93-4.52,7.31,7.31,0,0,1,2.57-3,7.06,7.06,0,0,1,7.54,0,8.59,8.59,0,0,1,2.75,3A12.67,12.67,0,0,1,74.56,13.93Zm-10.39,0a5.29,5.29,0,0,0,.49,2.34A4.05,4.05,0,0,0,66,17.88a3.47,3.47,0,0,0,2,.59,4.28,4.28,0,0,0,2.16-.59A6.22,6.22,0,0,0,72,16.27a7.32,7.32,0,0,0,1.16-2.34A7.32,7.32,0,0,0,72,11.59,6.08,6.08,0,0,0,70.18,10,4.28,4.28,0,0,0,68,9.39,3.47,3.47,0,0,0,66,10a4,4,0,0,0-1.36,1.61A5.29,5.29,0,0,0,64.17,13.93Zm9.28,8.18-.65-6.17L73.68,14l-.85-2.47L74,0h5L77.53,13.53l.88,8.58Z"/><path d="M89.63,22.57a10.36,10.36,0,0,1-4.88-1.09,8,8,0,0,1-3.26-3,8.61,8.61,0,0,1-1.16-4.51,8.57,8.57,0,0,1,1.16-4.52,8,8,0,0,1,3.27-3,11.4,11.4,0,0,1,9.77,0,7.86,7.86,0,0,1,3.27,3A8.57,8.57,0,0,1,99,13.93a8.57,8.57,0,0,1-1.17,4.52,8,8,0,0,1-3.27,3A10.44,10.44,0,0,1,89.63,22.57Zm0-4A4.79,4.79,0,0,0,92.05,18a3.79,3.79,0,0,0,1.53-1.59,5.39,5.39,0,0,0,.53-2.47,5.39,5.39,0,0,0-.53-2.47,3.87,3.87,0,0,0-1.53-1.6,5.42,5.42,0,0,0-4.8,0,3.92,3.92,0,0,0-1.55,1.6,5.27,5.27,0,0,0-.54,2.47,5.27,5.27,0,0,0,.54,2.47A3.83,3.83,0,0,0,87.25,18,4.79,4.79,0,0,0,89.63,18.55Z"/><path d="M109.93,22.57A10.43,10.43,0,0,1,105,21.48a8.11,8.11,0,0,1-3.26-3,8.7,8.7,0,0,1-1.16-4.51,8.66,8.66,0,0,1,1.16-4.52,8,8,0,0,1,3.27-3,11.42,11.42,0,0,1,9.78,0,8,8,0,0,1,3.27,3,8.66,8.66,0,0,1,1.16,4.52,8.66,8.66,0,0,1-1.16,4.52,8.12,8.12,0,0,1-3.27,3A10.5,10.5,0,0,1,109.93,22.57Zm0-4a4.81,4.81,0,0,0,2.42-.56,3.71,3.71,0,0,0,1.52-1.59,5.39,5.39,0,0,0,.53-2.47,5.39,5.39,0,0,0-.53-2.47,3.79,3.79,0,0,0-1.52-1.6,4.92,4.92,0,0,0-2.42-.56,4.84,4.84,0,0,0-2.38.56,3.86,3.86,0,0,0-1.55,1.6,5.27,5.27,0,0,0-.54,2.47A5.27,5.27,0,0,0,106,16.4,3.77,3.77,0,0,0,107.55,18,4.73,4.73,0,0,0,109.93,18.55Z"/><path d="M120.87,5.74h4.86l.87,5.89V22.11h-4.8V11.2Zm12.77-.23v4.6a11.68,11.68,0,0,0-1.39-.26A9.54,9.54,0,0,0,131,9.76a4.54,4.54,0,0,0-2.24.56,3.91,3.91,0,0,0-1.57,1.77,7.19,7.19,0,0,0-.59,3.13l-.95-1.32a21.76,21.76,0,0,1,.59-3.3,10.72,10.72,0,0,1,1.14-2.75A5.7,5.7,0,0,1,129.18,6a4.69,4.69,0,0,1,2.6-.69,7.75,7.75,0,0,1,.93.06A9,9,0,0,1,133.64,5.51Z"/><path d="M20.28,42.54l.56-1.42a12,12,0,0,1,5,1,6.54,6.54,0,0,1,2.9,2.63,7.55,7.55,0,0,1,.95,3.82,8.84,8.84,0,0,1-1,4.17,6.93,6.93,0,0,1-2.89,2.86,10,10,0,0,1-4.79,1H2.38l2-14.78-2-14h18A7.87,7.87,0,0,1,26,29.73a6.72,6.72,0,0,1,2,5.13,8.26,8.26,0,0,1-.76,3.45,6.92,6.92,0,0,1-2.42,2.79A10,10,0,0,1,20.28,42.54ZM8.81,54.9,6.32,51.48H19.49a3.67,3.67,0,0,0,2.64-.9A3.32,3.32,0,0,0,23.08,48a3.42,3.42,0,0,0-1-2.63,4.42,4.42,0,0,0-3.13-1H8.12V39.35h10a3.24,3.24,0,0,0,2.35-.9A3.3,3.3,0,0,0,21.35,36a2.87,2.87,0,0,0-.81-2.09,3.09,3.09,0,0,0-2.3-.83H6.35l2.46-3.41,1.83,12.24Z"/><path d="M32.83,27.1h6.39V56.66H32.83Z"/><path d="M46.58,32.48a3.93,3.93,0,0,1-2.76-1,3.32,3.32,0,0,1-1.07-2.59,3.31,3.31,0,0,1,1.07-2.61,4,4,0,0,1,2.76-1,3.91,3.91,0,0,1,2.77,1,3.39,3.39,0,0,1,1,2.61,3.4,3.4,0,0,1-1,2.59A3.87,3.87,0,0,1,46.58,32.48Zm-3.21,2,3.18.73,3.21-.73V56.66H43.37Z"/><path d="M53,34.78h6.39l1.28,8.52V56.66H54.22V42.23Zm15-.61a8.8,8.8,0,0,1,4.82,1.25,7.92,7.92,0,0,1,3,3.55,13,13,0,0,1,1.06,5.49v12.2H70.5V45.53a6.15,6.15,0,0,0-1.21-4.13A4.34,4.34,0,0,0,65.83,40a4.77,4.77,0,0,0-4.54,2.86,7.54,7.54,0,0,0-.64,3.25l-2-1.19A15.31,15.31,0,0,1,60.32,39a9.82,9.82,0,0,1,3.32-3.62A8,8,0,0,1,68,34.17Z"/><path d="M100.29,45.72a17.53,17.53,0,0,1-2,6.09,11.28,11.28,0,0,1-3.66,4,9,9,0,0,1-5,1.44,9.05,9.05,0,0,1-5.1-1.46,9.86,9.86,0,0,1-3.44-4,14,14,0,0,1-1.24-6.05,13.92,13.92,0,0,1,1.24-6,9.86,9.86,0,0,1,3.44-4,9.48,9.48,0,0,1,10.08,0,11.44,11.44,0,0,1,3.68,4A16.72,16.72,0,0,1,100.29,45.72Zm-13.89,0a7.23,7.23,0,0,0,.65,3.13A5.34,5.34,0,0,0,88.87,51a4.6,4.6,0,0,0,2.68.79A5.63,5.63,0,0,0,94.43,51a8.15,8.15,0,0,0,2.41-2.15,9.66,9.66,0,0,0,1.55-3.13,9.76,9.76,0,0,0-1.55-3.13,8.43,8.43,0,0,0-2.41-2.15,5.72,5.72,0,0,0-2.88-.78,4.67,4.67,0,0,0-2.68.78,5.48,5.48,0,0,0-1.82,2.15A7.27,7.27,0,0,0,86.4,45.72ZM98.81,56.66l-.87-8.25,1.18-2.61L98,42.5l1.59-15.4h6.67l-2,18.09,1.17,11.47Z"/><path d="M131.26,49.64A6.62,6.62,0,0,1,130,53.8a7.89,7.89,0,0,1-3.78,2.6,21,21,0,0,1-12.41-.12,9.86,9.86,0,0,1-4.25-2.8,6.78,6.78,0,0,1-1.63-4.19h6.54a3.19,3.19,0,0,0,1,1.69,5,5,0,0,0,2,1.1,10.65,10.65,0,0,0,2.94.36,8.64,8.64,0,0,0,3.46-.54A1.71,1.71,0,0,0,125,50.29a1.33,1.33,0,0,0-.84-1.23,9.59,9.59,0,0,0-3-.61l-3.59-.31A16,16,0,0,1,112.15,47a5.67,5.67,0,0,1-3.7-5.53,6,6,0,0,1,1.36-4A8.27,8.27,0,0,1,113.6,35a18.17,18.17,0,0,1,5.67-.8,16.25,16.25,0,0,1,5.78,1,10.22,10.22,0,0,1,4.08,2.65,6.59,6.59,0,0,1,1.75,3.95h-6.53a2.86,2.86,0,0,0-.75-1.42,4.36,4.36,0,0,0-1.72-1.06,9.11,9.11,0,0,0-2.93-.4,7.67,7.67,0,0,0-3.11.5,1.58,1.58,0,0,0-1.07,1.46,1.3,1.3,0,0,0,.66,1.15,6.21,6.21,0,0,0,2.49.61l4.66.39a16.16,16.16,0,0,1,5.2,1.17,5.65,5.65,0,0,1,2.68,2.25A6.4,6.4,0,0,1,131.26,49.64Z"/></g></g></svg>