<svg xmlns="http://www.w3.org/2000/svg" viewBox="0 0 219.23 76.35"><defs><style>.cls-1{fill:#fff;}</style></defs><g id="Layer_2" data-name="Layer 2"><g id="Layer_1-2" data-name="Layer 1"><path class="cls-1" d="M8.26,22.33H3.62V.33h7.54a8.91,8.91,0,0,1,4.31,1A6.89,6.89,0,0,1,18.22,4a7.41,7.41,0,0,1,.94,3.75,7.65,7.65,0,0,1-1,3.79,7.22,7.22,0,0,1-2.75,2.76,8.41,8.41,0,0,1-4.29,1H8.26Zm0-8.47L6.17,11.71h4.49a4.2,4.2,0,0,0,2-.47A3.22,3.22,0,0,0,14,9.87a4.6,4.6,0,0,0,.48-2.17A4.36,4.36,0,0,0,14,5.57a2.88,2.88,0,0,0-1.33-1.25,4.6,4.6,0,0,0-2.05-.41H6.17L8.26,1.7Z"/><path class="cls-1" d="M22.07,22.33V.33H31A7.4,7.4,0,0,1,36.16,1.9a5.85,5.85,0,0,1,1.71,4.53,6.06,6.06,0,0,1-.65,2.9,5.26,5.26,0,0,1-1.6,1.86,3.87,3.87,0,0,1-1.83.73,4.66,4.66,0,0,1,1.73.45,3.18,3.18,0,0,1,1.33,1.25,4.28,4.28,0,0,1,.52,2.28v4.19a7.06,7.06,0,0,0,.12,1.35,1.93,1.93,0,0,0,.33.89H33.18a2.65,2.65,0,0,1-.31-.91,6.78,6.78,0,0,1-.12-1.33V16.44a2.79,2.79,0,0,0-.67-2,2.85,2.85,0,0,0-2.15-.71H25.37l1.24-1.48V22.33Zm4.54-10.5-1.24-1.69H30a3.14,3.14,0,0,0,1.6-.4A3,3,0,0,0,32.7,8.59a3.61,3.61,0,0,0,.41-1.74,2.82,2.82,0,0,0-.84-2.18,3.37,3.37,0,0,0-2.37-.78H25.26l1.35-1.5Z"/><path class="cls-1" d="M50.39,22.68a9.81,9.81,0,0,1-3.84-.74,9,9,0,0,1-3.15-2.19,10.18,10.18,0,0,1-2.13-3.58,14.06,14.06,0,0,1-.78-4.87,14.2,14.2,0,0,1,.77-4.86,10.17,10.17,0,0,1,2.12-3.55A9.14,9.14,0,0,1,46.53.73a10.57,10.57,0,0,1,7.72,0A9,9,0,0,1,57.4,2.89a10,10,0,0,1,2.12,3.55,14.21,14.21,0,0,1,.76,4.86,14.06,14.06,0,0,1-.77,4.87,10.18,10.18,0,0,1-2.13,3.58,9.17,9.17,0,0,1-3.16,2.19A9.83,9.83,0,0,1,50.39,22.68Zm0-3.71A4.66,4.66,0,0,0,53,18.21a5.27,5.27,0,0,0,1.9-2.45,11.6,11.6,0,0,0,.71-4.46,11.4,11.4,0,0,0-.72-4.44A5.16,5.16,0,0,0,53,4.45a4.83,4.83,0,0,0-5.14,0,5.1,5.1,0,0,0-1.9,2.41,11.4,11.4,0,0,0-.72,4.44,11.51,11.51,0,0,0,.72,4.46,5.22,5.22,0,0,0,1.9,2.45A4.65,4.65,0,0,0,50.39,19Z"/><path class="cls-1" d="M76.48,3.91H69.21L71.06,1.7V22.33h-4.6V1.7l1.9,2.21h-7.3V.33H76.48Z"/><path class="cls-1" d="M81.86,3.91,84,1.7v9.11l-1-1.31H91v3.58H82.91l1-1.31V21l-2.09-2.2H92.67v3.58H79.3V.33H92.67V3.91Z"/><path class="cls-1" d="M113.15,14.29a8.48,8.48,0,0,1-.54,2.91A8.74,8.74,0,0,1,111,19.91a8.26,8.26,0,0,1-2.78,2,9.5,9.5,0,0,1-4,.76A9.12,9.12,0,0,1,99,21.23a9.26,9.26,0,0,1-3.31-4,14.36,14.36,0,0,1-1.14-5.89,14.28,14.28,0,0,1,1.14-5.88A8.86,8.86,0,0,1,104.22,0a9.43,9.43,0,0,1,4.34.92,8,8,0,0,1,2.88,2.41,8.6,8.6,0,0,1,1.47,3.11,8.28,8.28,0,0,1,.24,1.93h-4.64a4.94,4.94,0,0,0-.07-.87,4.84,4.84,0,0,0-.69-1.94,4.08,4.08,0,0,0-1.42-1.35,4.28,4.28,0,0,0-2.11-.5,4.22,4.22,0,0,0-2.55.82A5.33,5.33,0,0,0,99.91,7a12.1,12.1,0,0,0-.64,4.28,12.22,12.22,0,0,0,.64,4.3,5.31,5.31,0,0,0,1.76,2.52,4.17,4.17,0,0,0,2.55.83A4.23,4.23,0,0,0,106,18.6a3.83,3.83,0,0,0,1.35-1,4.72,4.72,0,0,0,.83-1.51,5.26,5.26,0,0,0,.29-1.77Z"/><path class="cls-1" d="M129.33,3.91h-7.26l1.85-2.21V22.33h-4.61V1.7l1.91,2.21h-7.31V.33h15.42Z"/><path class="cls-1" d="M156,.33l-6.38,14.42v7.58H145V14.75L138.61.33h4.89l4.7,12.11h-1.85L151.05.33Z"/><path class="cls-1" d="M165.89,22.68a9.82,9.82,0,0,1-3.85-.74,9.23,9.23,0,0,1-3.15-2.19,10.48,10.48,0,0,1-2.13-3.58A14.06,14.06,0,0,1,156,11.3a14.2,14.2,0,0,1,.77-4.86,10,10,0,0,1,2.13-3.55A9,9,0,0,1,162,.73a10.57,10.57,0,0,1,7.72,0,9.09,9.09,0,0,1,3.16,2.16A10,10,0,0,1,175,6.44a14.21,14.21,0,0,1,.76,4.86,14.31,14.31,0,0,1-.76,4.87,10.35,10.35,0,0,1-2.14,3.58,9.17,9.17,0,0,1-3.16,2.19A9.81,9.81,0,0,1,165.89,22.68Zm0-3.71a4.65,4.65,0,0,0,2.57-.76,5.27,5.27,0,0,0,1.9-2.45,11.58,11.58,0,0,0,.72-4.46,11.38,11.38,0,0,0-.73-4.44,5.1,5.1,0,0,0-1.9-2.41,4.74,4.74,0,0,0-2.56-.74,4.81,4.81,0,0,0-2.58.74,5.1,5.1,0,0,0-1.9,2.41,11.61,11.61,0,0,0-.71,4.44,11.72,11.72,0,0,0,.71,4.46,5.22,5.22,0,0,0,1.9,2.45A4.66,4.66,0,0,0,165.89,19Z"/><path class="cls-1" d="M195.33,14.38q0,4.17-2.21,6.24a9.9,9.9,0,0,1-12.09,0q-2.21-2.07-2.2-6.24V.33h4.64V14.45a5.55,5.55,0,0,0,.85,3.42,4,4,0,0,0,5.52,0,5.55,5.55,0,0,0,.86-3.42V.33h4.63Z"/><path class="cls-1" d="M199,22.33V.33h8.92a7.38,7.38,0,0,1,5.16,1.57,5.85,5.85,0,0,1,1.71,4.53,6,6,0,0,1-.65,2.9,5.23,5.23,0,0,1-1.59,1.86,3.87,3.87,0,0,1-1.83.73,4.61,4.61,0,0,1,1.72.45,3.15,3.15,0,0,1,1.34,1.25,4.28,4.28,0,0,1,.52,2.28v4.19a8,8,0,0,0,.11,1.35,2,2,0,0,0,.34.89h-4.64a2.65,2.65,0,0,1-.31-.91,6.78,6.78,0,0,1-.12-1.33V16.44a2.83,2.83,0,0,0-.67-2,2.87,2.87,0,0,0-2.15-.71h-4.57l1.24-1.48V22.33Zm4.53-10.5-1.24-1.69h4.63a3.11,3.11,0,0,0,1.59-.4,2.86,2.86,0,0,0,1.11-1.15A3.5,3.5,0,0,0,210,6.85a2.82,2.82,0,0,0-.85-2.18,3.34,3.34,0,0,0-2.36-.78h-4.64l1.34-1.5Z"/><path class="cls-1" d="M20.58,43.43a9.58,9.58,0,0,1-2.42,6.22,8.9,8.9,0,0,1-3.07,2.22,10.44,10.44,0,0,1-4.4.85,10,10,0,0,1-5.77-1.61,10.16,10.16,0,0,1-3.66-4.44A16,16,0,0,1,0,40.15a15.8,15.8,0,0,1,1.26-6.5,10.11,10.11,0,0,1,3.66-4.42,10.11,10.11,0,0,1,5.77-1.6,10.42,10.42,0,0,1,4.81,1,9,9,0,0,1,3.19,2.65,9.54,9.54,0,0,1,1.62,3.45,9,9,0,0,1,.27,2.13H15.44a5,5,0,0,0-.08-1,5.27,5.27,0,0,0-.76-2.14A4.32,4.32,0,0,0,13,32.29a4.71,4.71,0,0,0-2.34-.56,4.7,4.7,0,0,0-2.82.91,6.06,6.06,0,0,0-1.95,2.77,13.6,13.6,0,0,0-.71,4.74,13.69,13.69,0,0,0,.71,4.76,6.08,6.08,0,0,0,2,2.79,4.64,4.64,0,0,0,2.82.91,4.65,4.65,0,0,0,2-.41,4.1,4.1,0,0,0,1.49-1.14,5.17,5.17,0,0,0,.92-1.66,5.9,5.9,0,0,0,.32-2Z"/><path class="cls-1" d="M21.81,52.33,27.88,28H36l6,24.37H36.78L31.93,31.07h0l-4.9,21.26Zm4.36-5.65v-4H37.72v4Z"/><path class="cls-1" d="M44.85,52.33V28h9.86c2.56,0,4.46.58,5.72,1.74a6.47,6.47,0,0,1,1.89,5A6.68,6.68,0,0,1,61.6,38a5.76,5.76,0,0,1-1.76,2,4.34,4.34,0,0,1-2,.81,5,5,0,0,1,1.9.5,3.55,3.55,0,0,1,1.48,1.38,4.84,4.84,0,0,1,.58,2.52v4.64a8.57,8.57,0,0,0,.12,1.49,2.22,2.22,0,0,0,.37,1H57.14a3.09,3.09,0,0,1-.35-1,7.55,7.55,0,0,1-.13-1.48v-4a3.12,3.12,0,0,0-.74-2.22,3.17,3.17,0,0,0-2.38-.78h-5l1.37-1.64V52.33Zm5-11.62-1.37-1.86h5.12a3.41,3.41,0,0,0,1.76-.45,3.2,3.2,0,0,0,1.23-1.27,3.85,3.85,0,0,0,.46-1.93,3.09,3.09,0,0,0-.94-2.41,3.72,3.72,0,0,0-2.61-.86H48.38l1.48-1.66Z"/><path class="cls-1" d="M74.13,52.33V28h5.05V52.33Z"/><path class="cls-1" d="M88.21,52.33h-5V28h8l8.15,22.49-.85.21V28h5V52.33h-8L87.28,29.9l.93-.21Z"/><path class="cls-1" d="M123.63,32h-8l2-2.44V52.33h-5.09V29.51L114.66,32h-8.09V28h17.06Z"/><path class="cls-1" d="M129.59,32l2.31-2.44V39.59l-1.15-1.45h9v4h-9l1.15-1.46V50.81l-2.31-2.44h12v4h-14.8V28h14.8v4Z"/><path class="cls-1" d="M145.58,52.33V28h9.87q3.83,0,5.71,1.74a6.47,6.47,0,0,1,1.89,5,6.68,6.68,0,0,1-.72,3.21,5.66,5.66,0,0,1-1.76,2,4.3,4.3,0,0,1-2,.81,5,5,0,0,1,1.9.5,3.5,3.5,0,0,1,1.48,1.38,4.84,4.84,0,0,1,.58,2.52v4.64a8.57,8.57,0,0,0,.12,1.49,2.22,2.22,0,0,0,.37,1h-5.13a3.09,3.09,0,0,1-.35-1,8.4,8.4,0,0,1-.13-1.48v-4a3.07,3.07,0,0,0-.74-2.22,3.16,3.16,0,0,0-2.38-.78h-5l1.37-1.64V52.33Zm5-11.62-1.37-1.86h5.11a3.48,3.48,0,0,0,1.77-.45,3.34,3.34,0,0,0,1.23-1.27,4,4,0,0,0,.45-1.93,3.12,3.12,0,0,0-.93-2.41,3.76,3.76,0,0,0-2.62-.86h-5.13l1.49-1.66Z"/><path class="cls-1" d="M166.62,52.33V28h5V52.33Z"/><path class="cls-1" d="M186,52.72a11,11,0,0,1-4.26-.82,10,10,0,0,1-3.48-2.43,11.29,11.29,0,0,1-2.36-3.95,15.71,15.71,0,0,1-.86-5.39,15.58,15.58,0,0,1,.85-5.38,11.14,11.14,0,0,1,2.35-3.92,9.88,9.88,0,0,1,3.48-2.4,11.8,11.8,0,0,1,8.54,0,9.83,9.83,0,0,1,3.49,2.4,11.14,11.14,0,0,1,2.35,3.92,15.83,15.83,0,0,1,.84,5.38,16,16,0,0,1-.85,5.39,11.29,11.29,0,0,1-2.36,3.95,10.13,10.13,0,0,1-3.5,2.43A11,11,0,0,1,186,52.72Zm0-4.11a5.15,5.15,0,0,0,2.84-.84,5.72,5.72,0,0,0,2.11-2.71,12.8,12.8,0,0,0,.79-4.93,12.61,12.61,0,0,0-.8-4.91,5.71,5.71,0,0,0-2.1-2.67,5.35,5.35,0,0,0-5.69,0,5.59,5.59,0,0,0-2.1,2.67,12.62,12.62,0,0,0-.79,4.91,12.82,12.82,0,0,0,.79,4.94,5.72,5.72,0,0,0,2.1,2.7A5.19,5.19,0,0,0,186,48.61Z"/><path class="cls-1" d="M200.31,52.33V28h9.87q3.82,0,5.71,1.74a6.47,6.47,0,0,1,1.89,5,6.68,6.68,0,0,1-.72,3.21,5.66,5.66,0,0,1-1.76,2,4.3,4.3,0,0,1-2,.81,5,5,0,0,1,1.9.5,3.55,3.55,0,0,1,1.48,1.38,4.84,4.84,0,0,1,.58,2.52v4.64a8.57,8.57,0,0,0,.12,1.49,2.22,2.22,0,0,0,.37,1H212.6a3.09,3.09,0,0,1-.35-1,8.4,8.4,0,0,1-.13-1.48v-4a3.12,3.12,0,0,0-.74-2.22,3.16,3.16,0,0,0-2.38-.78H204l1.37-1.64V52.33Zm5-11.62L204,38.85h5.12a3.48,3.48,0,0,0,1.77-.45,3.24,3.24,0,0,0,1.22-1.27,3.85,3.85,0,0,0,.46-1.93,3.12,3.12,0,0,0-.93-2.41,3.76,3.76,0,0,0-2.62-.86h-5.13l1.48-1.66Z"/><path class="cls-1" d="M5.47,59.26a5.67,5.67,0,0,1,2.06.33,2.62,2.62,0,0,1,1.3,1,3.64,3.64,0,0,1,0,3.45,2.8,2.8,0,0,1-1,1,3.07,3.07,0,0,1-1.33.38,3.75,3.75,0,0,1,1.46.34,2.73,2.73,0,0,1,1.16,1,3.38,3.38,0,0,1,.46,1.88,3.85,3.85,0,0,1-.46,2,2.91,2.91,0,0,1-1.37,1.24,5.65,5.65,0,0,1-2.33.42H1.13V59.26ZM2.59,65.37l-.51-.51H4.76A3.7,3.7,0,0,0,7,64.29a2,2,0,0,0,.79-1.69,1.9,1.9,0,0,0-.33-1.18,1.77,1.77,0,0,0-.92-.64,4.56,4.56,0,0,0-1.4-.19H1.91l.68-.86ZM5.11,71a3.41,3.41,0,0,0,2.13-.59A2.1,2.1,0,0,0,8,68.64a2.54,2.54,0,0,0-.26-1.2,1.92,1.92,0,0,0-.7-.74,3,3,0,0,0-1-.4,6,6,0,0,0-1.21-.12H2.08l.51-.51v6.19L1.91,71Z"/><path class="cls-1" d="M13.62,58.48V72.33H12.13V58.48Z"/><path class="cls-1" d="M20.84,72.5a4.92,4.92,0,0,1-2.51-.63,4.51,4.51,0,0,1-1.7-1.74A5.07,5.07,0,0,1,16,67.62a5,5,0,0,1,.61-2.5,4.43,4.43,0,0,1,1.7-1.71,4.92,4.92,0,0,1,2.51-.62,4.88,4.88,0,0,1,2.5.62,4.46,4.46,0,0,1,1.71,1.71,5,5,0,0,1,.61,2.5,5.07,5.07,0,0,1-.61,2.51,4.54,4.54,0,0,1-1.71,1.74A4.89,4.89,0,0,1,20.84,72.5Zm0-1.38a3.36,3.36,0,0,0,1.72-.44,3,3,0,0,0,1.16-1.22,3.85,3.85,0,0,0,.43-1.84,3.75,3.75,0,0,0-.43-1.83,3,3,0,0,0-1.16-1.2,3.73,3.73,0,0,0-3.44,0A2.94,2.94,0,0,0,18,65.79a3.75,3.75,0,0,0-.42,1.83A3.84,3.84,0,0,0,18,69.46a2.93,2.93,0,0,0,1.17,1.22A3.36,3.36,0,0,0,20.84,71.12Z"/><path class="cls-1" d="M32.48,72.51A5.16,5.16,0,0,1,30,71.92a4.35,4.35,0,0,1-1.74-1.69,5.64,5.64,0,0,1,0-5.22A4.41,4.41,0,0,1,30,63.35a5.26,5.26,0,0,1,2.45-.57,4.94,4.94,0,0,1,1.83.31,4.17,4.17,0,0,1,1.37.84,3.89,3.89,0,0,1,.86,1.15,3,3,0,0,1,.29,1.24v.06h-1.5v-.1l0-.12a2,2,0,0,0-.45-1,2.61,2.61,0,0,0-1-.7,3.76,3.76,0,0,0-3,.12,2.86,2.86,0,0,0-1.2,1.14,3.69,3.69,0,0,0-.46,1.94,3.84,3.84,0,0,0,.45,1.94,2.93,2.93,0,0,0,1.2,1.17,3.4,3.4,0,0,0,1.64.4,3.65,3.65,0,0,0,1.58-.3A2.22,2.22,0,0,0,35.33,69h1.5a3.07,3.07,0,0,1-.28,1.27,3.66,3.66,0,0,1-.83,1.15,4,4,0,0,1-1.37.83A5.13,5.13,0,0,1,32.48,72.51Z"/><path class="cls-1" d="M39.18,72.33V58.48h1.44V67l-.44-.2,4.51-3.85h2l-4.51,4,.39-.77,4.15,6.21H45.05L41.55,67l.31.18L40.4,68.4l.22-.72v4.65Z"/><path class="cls-1" d="M51.45,72.51a6.5,6.5,0,0,1-1.57-.18,4.23,4.23,0,0,1-1.26-.53,2.46,2.46,0,0,1-.83-.87,2.28,2.28,0,0,1-.3-1.18v-.27H49v.19a1.2,1.2,0,0,0,.66,1.1,3.71,3.71,0,0,0,1.82.38A5,5,0,0,0,52.76,71a2.07,2.07,0,0,0,.88-.43,1,1,0,0,0,.32-.74,1.08,1.08,0,0,0-.69-1,8.39,8.39,0,0,0-2.05-.54,9.32,9.32,0,0,1-1.36-.33,4.66,4.66,0,0,1-1.15-.51,2.41,2.41,0,0,1-.79-.8,2.14,2.14,0,0,1-.29-1.14A2.18,2.18,0,0,1,48.14,64a3.27,3.27,0,0,1,1.38-.91,5.62,5.62,0,0,1,1.93-.31,5.53,5.53,0,0,1,1.9.32,3.31,3.31,0,0,1,1.4,1,2.3,2.3,0,0,1,.52,1.54v.17h-1.5v-.13a1.16,1.16,0,0,0-.33-.85,2,2,0,0,0-.85-.49,3.7,3.7,0,0,0-1.12-.17,5.08,5.08,0,0,0-1.1.12,2.09,2.09,0,0,0-.89.4.88.88,0,0,0-.36.75,1,1,0,0,0,.33.77,2.66,2.66,0,0,0,.94.47,14.28,14.28,0,0,0,1.44.33,13.48,13.48,0,0,1,1.39.33,5.54,5.54,0,0,1,1.15.51,2.3,2.3,0,0,1,.79.79,2.09,2.09,0,0,1,.29,1.15A2.27,2.27,0,0,1,55.14,71a2.65,2.65,0,0,1-.87.86,4.46,4.46,0,0,1-1.28.52A6.85,6.85,0,0,1,51.45,72.51Z"/><path class="cls-1" d="M71,59.26V72.33H69.49V65.72l.68.75H63l.68-.75v6.61H62.13V59.26h1.51v6.68l-.68-.8h7.21l-.68.8V59.26Z"/><path class="cls-1" d="M74.1,68.23V66.88h7.28l-.27.44v-.19a3.23,3.23,0,0,0-.34-1.49,2.61,2.61,0,0,0-1-1.09,3.17,3.17,0,0,0-1.66-.41,3.52,3.52,0,0,0-1.77.43,3,3,0,0,0-1.19,1.2,3.83,3.83,0,0,0-.42,1.85,4.1,4.1,0,0,0,.41,1.88,2.93,2.93,0,0,0,1.18,1.21,3.55,3.55,0,0,0,1.8.43A5,5,0,0,0,79.4,71a2.84,2.84,0,0,0,.91-.41,2,2,0,0,0,.54-.58,1.37,1.37,0,0,0,.22-.62h1.51a2.85,2.85,0,0,1-.35,1.13,3.46,3.46,0,0,1-.88,1,4.47,4.47,0,0,1-1.39.74,6.14,6.14,0,0,1-1.9.27,5,5,0,0,1-2.5-.62,4.46,4.46,0,0,1-1.7-1.72,5.09,5.09,0,0,1-.61-2.53,5,5,0,0,1,.62-2.54,4.39,4.39,0,0,1,1.71-1.71,4.85,4.85,0,0,1,2.49-.62,4.7,4.7,0,0,1,2.47.62,4.25,4.25,0,0,1,1.62,1.69,5.31,5.31,0,0,1,.56,2.46c0,.09,0,.21,0,.37a1.85,1.85,0,0,1,0,.31Z"/><path class="cls-1" d="M88.36,72.51a4.69,4.69,0,0,1-1.87-.34,2.72,2.72,0,0,1-1.25-1,2.62,2.62,0,0,1-.44-1.52,2.46,2.46,0,0,1,.48-1.54,3.12,3.12,0,0,1,1.35-1,7.51,7.51,0,0,1,2-.46,21.56,21.56,0,0,0,2.47-.35c.49-.11.74-.3.74-.56v0h0a1.35,1.35,0,0,0-.67-1.22,3.71,3.71,0,0,0-1.92-.4,3.76,3.76,0,0,0-2,.46,1.59,1.59,0,0,0-.73,1.47H85a3,3,0,0,1,.54-1.79,3.33,3.33,0,0,1,1.5-1.13,6,6,0,0,1,2.23-.39,5.66,5.66,0,0,1,2.07.35,3.41,3.41,0,0,1,1.48,1,2.68,2.68,0,0,1,.54,1.7v4.7a5.74,5.74,0,0,0,0,.6,3.28,3.28,0,0,0,.09.52,2,2,0,0,0,.17.43,1.4,1.4,0,0,0,.16.22H92.31a.67.67,0,0,1-.13-.2,2.4,2.4,0,0,1-.17-.39,2.17,2.17,0,0,1-.1-.45,5.09,5.09,0,0,1,0-.56l.25.17a2.55,2.55,0,0,1-.8.84,4.37,4.37,0,0,1-1.27.57A6.7,6.7,0,0,1,88.36,72.51Zm.24-1.36a4.76,4.76,0,0,0,1.65-.27,2.74,2.74,0,0,0,1.17-.83,2.16,2.16,0,0,0,.44-1.37V66.81l.33.57a6.85,6.85,0,0,1-1.41.36c-.57.09-1.16.16-1.77.22a6,6,0,0,0-2,.47,1.21,1.21,0,0,0-.68,1.16,1.34,1.34,0,0,0,.56,1.17A3.07,3.07,0,0,0,88.6,71.15Z"/><path class="cls-1" d="M99.33,72.48a4,4,0,0,1-.85-.1,2,2,0,0,1-.75-.35,1.74,1.74,0,0,1-.53-.72,3.14,3.14,0,0,1-.19-1.2V64.25h-2.3V62.92h1.47l.47,0a.42.42,0,0,0,.25-.12.52.52,0,0,0,.09-.29c0-.13,0-.32,0-.56V59.8h1.51v3.12h3v1.33h-3v5.29a3.11,3.11,0,0,0,.18,1.18.81.81,0,0,0,.82.43,2.46,2.46,0,0,0,.49-.05,2.13,2.13,0,0,0,.35-.09v1.32l-.42.1A3.76,3.76,0,0,1,99.33,72.48Z"/><path class="cls-1" d="M111.56,72.5a5.83,5.83,0,0,1-2.23-.4A3.56,3.56,0,0,1,107.78,71a2.92,2.92,0,0,1-.57-1.81,3,3,0,0,1,.48-1.67,5.84,5.84,0,0,1,1.38-1.39,21,21,0,0,1,2.13-1.35A6.24,6.24,0,0,0,113,63.32a2.48,2.48,0,0,0,.59-1.57,1.54,1.54,0,0,0-.24-.9,1.39,1.39,0,0,0-.63-.52,1.89,1.89,0,0,0-.82-.18,2.28,2.28,0,0,0-.83.17,1.57,1.57,0,0,0-.67.52,1.42,1.42,0,0,0-.27.9,2.78,2.78,0,0,0,.41,1.4,16.55,16.55,0,0,0,1.15,1.66l4.66,5.88a1.88,1.88,0,0,0,.56.53,1,1,0,0,0,.42.12,1.36,1.36,0,0,0,.29,0l.19-.06v1.09l-.22.06a2.11,2.11,0,0,1-.47,0,1.79,1.79,0,0,1-.75-.18,2.41,2.41,0,0,1-.77-.66l-4.88-6.12c-.31-.39-.61-.79-.9-1.19a6.81,6.81,0,0,1-.7-1.26,3.45,3.45,0,0,1-.27-1.34,2.21,2.21,0,0,1,.42-1.35,2.77,2.77,0,0,1,1.11-.88,3.75,3.75,0,0,1,3,0,2.45,2.45,0,0,1,1,.89,2.33,2.33,0,0,1,.39,1.35,3.25,3.25,0,0,1-.36,1.52,4.58,4.58,0,0,1-1,1.28,8.73,8.73,0,0,1-1.59,1.12,13.65,13.65,0,0,0-2.36,1.66,2.4,2.4,0,0,0-.85,1.83,1.91,1.91,0,0,0,.4,1.2,2.68,2.68,0,0,0,1.06.82,3.81,3.81,0,0,0,1.49.29,5.64,5.64,0,0,0,2.18-.36,4,4,0,0,0,1.42-1,4.42,4.42,0,0,0,1-1.65,6.5,6.5,0,0,0,.31-2h1.26a7.37,7.37,0,0,1-.21,1.81,6.41,6.41,0,0,1-.59,1.52,6,6,0,0,1-.88,1.2,5.37,5.37,0,0,1-1.77,1.15A7.1,7.1,0,0,1,111.56,72.5Z"/><path class="cls-1" d="M133.68,67.51a5.25,5.25,0,0,1-1.19,3.77,5.06,5.06,0,0,1-6.61,0,5.24,5.24,0,0,1-1.18-3.77V59.26h1.51v8.22A4.17,4.17,0,0,0,127,70.3a2.82,2.82,0,0,0,2.21.85,2.85,2.85,0,0,0,2.23-.85,4.17,4.17,0,0,0,.76-2.82V59.26h1.51Z"/><path class="cls-1" d="M139.17,72.41l-3.55-13.15h1.66l3.05,12h-.11l3-12h1.67l-3.52,13.15Z"/><path class="cls-1" d="M151.28,72.33V59.26h3.28a5.8,5.8,0,0,1,2.33.45,4.92,4.92,0,0,1,1.79,1.3,5.81,5.81,0,0,1,1.13,2.05,9.52,9.52,0,0,1,0,5.46,6,6,0,0,1-1.13,2.06,4.92,4.92,0,0,1-1.79,1.3,5.8,5.8,0,0,1-2.33.45Zm1.52-.47-.68-.86h2.26a4,4,0,0,0,2.23-.63,4.23,4.23,0,0,0,1.52-1.8,7.3,7.3,0,0,0,0-5.56,4.2,4.2,0,0,0-1.52-1.79,4,4,0,0,0-2.23-.63h-2.26l.68-.86Z"/><path class="cls-1" d="M165.75,72.51a4.69,4.69,0,0,1-1.87-.34,2.72,2.72,0,0,1-1.25-1,2.62,2.62,0,0,1-.44-1.52,2.46,2.46,0,0,1,.48-1.54,3.12,3.12,0,0,1,1.35-1,7.6,7.6,0,0,1,2-.46,21.21,21.21,0,0,0,2.47-.35c.49-.11.74-.3.74-.56v0h0a1.33,1.33,0,0,0-.67-1.22,3.71,3.71,0,0,0-1.92-.4,3.76,3.76,0,0,0-2,.46,1.61,1.61,0,0,0-.73,1.47H162.4a3,3,0,0,1,.54-1.79,3.36,3.36,0,0,1,1.51-1.13,5.87,5.87,0,0,1,2.22-.39,5.71,5.71,0,0,1,2.08.35,3.44,3.44,0,0,1,1.47,1,2.68,2.68,0,0,1,.54,1.7v4.7a5.74,5.74,0,0,0,0,.6,3.28,3.28,0,0,0,.09.52,1.59,1.59,0,0,0,.18.43,1,1,0,0,0,.16.22H169.7a1,1,0,0,1-.13-.2,2.4,2.4,0,0,1-.17-.39,2.17,2.17,0,0,1-.1-.45,5.12,5.12,0,0,1,0-.56l.24.17a2.55,2.55,0,0,1-.8.84,4.25,4.25,0,0,1-1.27.57A6.7,6.7,0,0,1,165.75,72.51Zm.24-1.36a4.76,4.76,0,0,0,1.65-.27,2.74,2.74,0,0,0,1.17-.83,2.16,2.16,0,0,0,.44-1.37V66.81l.33.57a6.68,6.68,0,0,1-1.41.36c-.56.09-1.15.16-1.77.22a5.93,5.93,0,0,0-2,.47,1.19,1.19,0,0,0-.68,1.16,1.32,1.32,0,0,0,.56,1.17A3,3,0,0,0,166,71.15Z"/><path class="cls-1" d="M173.26,72.33V62.92h1.51v9.41Zm5.79,0V66.54a6.75,6.75,0,0,0,0-.75,2.57,2.57,0,0,0-.23-.76,1.48,1.48,0,0,0-.55-.59,2.07,2.07,0,0,0-1-.23,2.3,2.3,0,0,0-1.13.26,2.26,2.26,0,0,0-.75.69,2.9,2.9,0,0,0-.4.94,3.87,3.87,0,0,0-.13,1l-.85-.34a4.48,4.48,0,0,1,.44-2,3.77,3.77,0,0,1,1.25-1.46,3.62,3.62,0,0,1,3.63-.12,2.54,2.54,0,0,1,1,1.2,4.37,4.37,0,0,1,.32,1.75v6.17Zm5.78,0V66.51a6.9,6.9,0,0,0-.05-.75,2.23,2.23,0,0,0-.22-.75,1.46,1.46,0,0,0-.56-.57,2.17,2.17,0,0,0-1.08-.23,2.29,2.29,0,0,0-1.14.26,2.14,2.14,0,0,0-.73.67,2.74,2.74,0,0,0-.38.9,3.89,3.89,0,0,0-.12.93l-.85-.33a4.22,4.22,0,0,1,.43-1.89,3.69,3.69,0,0,1,1.22-1.43,3.28,3.28,0,0,1,1.89-.54,3.43,3.43,0,0,1,1.71.39,2.62,2.62,0,0,1,1,1.13,3.78,3.78,0,0,1,.35,1.71v6.32Z"/><path class="cls-1" d="M192.25,72.51a4.74,4.74,0,0,1-1.88-.34,2.69,2.69,0,0,1-1.24-1,2.55,2.55,0,0,1-.45-1.52,2.46,2.46,0,0,1,.48-1.54,3.12,3.12,0,0,1,1.35-1,7.6,7.6,0,0,1,2-.46,21.21,21.21,0,0,0,2.47-.35c.49-.11.74-.3.74-.56v0h0a1.34,1.34,0,0,0-.66-1.22,4.8,4.8,0,0,0-4,.06,1.6,1.6,0,0,0-.72,1.47H188.9a3,3,0,0,1,.54-1.79,3.33,3.33,0,0,1,1.5-1.13,5.87,5.87,0,0,1,2.22-.39,5.71,5.71,0,0,1,2.08.35,3.32,3.32,0,0,1,1.47,1,2.69,2.69,0,0,1,.55,1.7v4.7c0,.21,0,.41,0,.6a3.28,3.28,0,0,0,.09.52,2,2,0,0,0,.18.43,1,1,0,0,0,.16.22h-1.52a1,1,0,0,1-.13-.2,2.4,2.4,0,0,1-.17-.39,3.09,3.09,0,0,1-.1-.45,5.12,5.12,0,0,1,0-.56l.25.17a2.58,2.58,0,0,1-.81.84,4.25,4.25,0,0,1-1.27.57A6.62,6.62,0,0,1,192.25,72.51Zm.24-1.36a4.76,4.76,0,0,0,1.65-.27,2.74,2.74,0,0,0,1.17-.83,2.16,2.16,0,0,0,.43-1.37V66.81l.34.57a6.79,6.79,0,0,1-1.42.36c-.56.09-1.15.16-1.77.22a5.93,5.93,0,0,0-2,.47,1.21,1.21,0,0,0-.68,1.16,1.34,1.34,0,0,0,.56,1.17A3.05,3.05,0,0,0,192.49,71.15Z"/><path class="cls-1" d="M205.77,71.76a4.74,4.74,0,0,1,1.34.28,1.91,1.91,0,0,1,.91.64,1.72,1.72,0,0,1,.33,1.1,1.91,1.91,0,0,1-.52,1.33,3.35,3.35,0,0,1-1.56.91,8.83,8.83,0,0,1-2.63.33,7.07,7.07,0,0,1-3.39-.65,2,2,0,0,1-1.14-1.78,2.28,2.28,0,0,1,.08-.62,2.06,2.06,0,0,1,.19-.44l1.44.21a1.06,1.06,0,0,0-.14.3,1.6,1.6,0,0,0-.06.46,1,1,0,0,0,.8,1,7.16,7.16,0,0,0,2.29.29,9,9,0,0,0,1.82-.15,2.45,2.45,0,0,0,1.05-.44.85.85,0,0,0,.35-.66.66.66,0,0,0-.48-.72,6.72,6.72,0,0,0-1.2-.19l-3.58-.26a2.45,2.45,0,0,1-1.46-.56,1.5,1.5,0,0,1-.56-1.17,1.66,1.66,0,0,1,.21-.81,2.47,2.47,0,0,1,.49-.64,1.16,1.16,0,0,1,.5-.32l1.18.55a1.24,1.24,0,0,0-.54.3.79.79,0,0,0-.32.63.66.66,0,0,0,.25.54,2,2,0,0,0,1,.27Zm1.3-8.84h1.42l-.59,3.7a4.9,4.9,0,0,1-.66,1.88,3.75,3.75,0,0,1-1.38,1.33,4.31,4.31,0,0,1-2.16.49,4.93,4.93,0,0,1-2.29-.49A3.53,3.53,0,0,1,200,68.5a3.64,3.64,0,0,1-.51-1.91,3.65,3.65,0,0,1,2-3.31,4.43,4.43,0,0,1,2.15-.5,4.52,4.52,0,0,1,1.91.37,3.67,3.67,0,0,1,1.29.95,2.11,2.11,0,0,1,.53,1.14l-.57,0Zm-3.38,6a3.49,3.49,0,0,0,1.48-.28,2.12,2.12,0,0,0,1-.82,2.51,2.51,0,0,0,.33-1.32,2.48,2.48,0,0,0-.33-1.29,2.23,2.23,0,0,0-1-.84,3.62,3.62,0,0,0-2.91,0,2.3,2.3,0,0,0-1.32,2.15,2.43,2.43,0,0,0,.33,1.29,2.12,2.12,0,0,0,.95.82A3.47,3.47,0,0,0,203.69,69Z"/><path class="cls-1" d="M210.6,68.23V66.88h7.28l-.27.44v-.19a3.23,3.23,0,0,0-.34-1.49,2.59,2.59,0,0,0-1-1.09,3.2,3.2,0,0,0-1.67-.41,3.52,3.52,0,0,0-1.77.43,3,3,0,0,0-1.18,1.2,3.72,3.72,0,0,0-.43,1.85,4.1,4.1,0,0,0,.41,1.88,2.93,2.93,0,0,0,1.18,1.21,3.59,3.59,0,0,0,1.81.43A4.94,4.94,0,0,0,215.9,71a2.84,2.84,0,0,0,.91-.41,2.13,2.13,0,0,0,.55-.58,1.65,1.65,0,0,0,.22-.62h1.5a2.56,2.56,0,0,1-.35,1.13,3.46,3.46,0,0,1-.88,1,4.47,4.47,0,0,1-1.39.74,6.09,6.09,0,0,1-1.9.27,5,5,0,0,1-2.5-.62,4.46,4.46,0,0,1-1.7-1.72,5.53,5.53,0,0,1,0-5.07,4.39,4.39,0,0,1,1.71-1.71,4.9,4.9,0,0,1,2.49-.62,4.73,4.73,0,0,1,2.48.62,4.29,4.29,0,0,1,1.61,1.69,5.19,5.19,0,0,1,.57,2.46c0,.09,0,.21,0,.37s0,.26,0,.31Z"/></g></g></svg>