<svg xmlns="http://www.w3.org/2000/svg" viewBox="0 0 59.07 19.16"><defs><style>.cls-1{fill:#fff;}.cls-2{fill:#f16322;}.cls-3{fill:#4d4d4d;}.cls-4{fill:#4e4e4e;}</style></defs><g id="Layer_2" data-name="Layer 2"><g id="Layer_1-2" data-name="Layer 1"><rect class="cls-1" width="59.07" height="19.16" rx="9.58"/><path class="cls-2" d="M10.3,7,12.83,5.5l2-1.17a.13.13,0,0,1,.12,0l4.48,2.59a.1.1,0,0,1,.07.11V12.2a.12.12,0,0,1-.07.12L18.28,13l-.06,0a.19.19,0,0,1,0-.08V7.81a.12.12,0,0,0-.07-.13L15,5.86a.12.12,0,0,0-.14,0L11.67,7.68a.13.13,0,0,0-.06.11c0,1.71,0,3.43,0,5.14V13l-1.32-.76Z"/><path class="cls-2" d="M14.9,14.94a.8.8,0,0,0-.22-.13l-1.68-1a.09.09,0,0,1-.06-.1V8.54a.07.07,0,0,1,0-.08l1.24-.72h0s0,.06,0,.09V13a.12.12,0,0,0,.07.12l.54.31a.09.09,0,0,0,.11,0l.54-.31a.12.12,0,0,0,.07-.11c0-.58,0-1.15,0-1.72V7.74s0,0,.05,0l1.2.69a.08.08,0,0,1,.06.09v5.2s0,.07-.06.1L15,14.89s-.05,0-.06,0Z"/><path class="cls-3" d="M26.34,7.68l-.18.52c-.51,1.33-1.05,2.65-1.56,4a.09.09,0,0,1-.09.05h-.29c-.06,0-.09,0-.11-.07-.29-.72-.58-1.44-.86-2.17s-.57-1.39-.82-2.1c0-.07-.05-.14-.08-.22s0,.06,0,.09v4.38c0,.07,0,.1-.09.09h-.3s-.07,0-.06-.06V7.08c0-.07,0-.09.08-.09h.52a.09.09,0,0,1,.09.06c.49,1.25,1,2.49,1.48,3.73l.28.72a.15.15,0,0,0,.05.07l.24-.63c.5-1.29,1-2.58,1.49-3.88,0,0,.05-.07.11-.07h.51c.1,0,.1,0,.1.1V12a1.09,1.09,0,0,0,0,.18s0,.05-.06.05h-.37s-.06,0-.05-.05V7.68Z"/><path class="cls-3" d="M39.36,9l.1-.13a1.47,1.47,0,0,1,1.34-.54,1.29,1.29,0,0,1,.63.22,1.07,1.07,0,0,1,.43.89v2.7s0,.06-.06.05h-.32c-.06,0-.08,0-.08-.08V9.64a1.42,1.42,0,0,0,0-.29.64.64,0,0,0-.51-.55,1.23,1.23,0,0,0-1.16.26,1,1,0,0,0-.35.77v2.32c0,.07,0,.09-.08.09H39c-.07,0-.1,0-.09-.1V8.51s0-.07.06-.07h.33c.05,0,.06,0,.06.07Z"/><path class="cls-3" d="M42.84,10.29c0-.47,0-.93,0-1.39,0-.07,0-.09-.08-.08h-.44s-.06,0-.06-.06a1.13,1.13,0,0,0,0-.26s0-.06.06-.06h.45s.07,0,.07-.08c0-.34,0-.68,0-1,0,0,0-.08.07-.07h.32c.06,0,.07,0,.07.07v1c0,.06,0,.08.07.08h.57s.07,0,.07.07a.88.88,0,0,0,0,.23c0,.06,0,.08-.08.08h-.56s-.07,0-.07.06v2.64c0,.25.11.35.36.35a.86.86,0,0,0,.27,0s.06,0,.06,0v.28s0,0,0,.06a1.21,1.21,0,0,1-.68,0,.53.53,0,0,1-.41-.52c0-.33,0-.65,0-1C42.83,10.58,42.84,10.43,42.84,10.29Z"/><path class="cls-3" d="M34.42,8.51s0-.07-.07-.07H34A.05.05,0,0,0,34,8.5,3.84,3.84,0,0,1,34,9s0,0,0,0a.1.1,0,0,1,0,0,1.32,1.32,0,0,0-1-.61,1.53,1.53,0,0,0-1.54.85,2.37,2.37,0,0,0-.07,1.95,1.52,1.52,0,0,0,1.44,1,1.34,1.34,0,0,0,1.19-.6A.11.11,0,0,1,34,11.5a5.62,5.62,0,0,1,0,.92.88.88,0,0,1-.67.71,2,2,0,0,1-1,0,.71.71,0,0,1-.57-.53s0,0-.06,0h-.24c-.16,0-.16,0-.11.15a1.05,1.05,0,0,0,.73.73,2.34,2.34,0,0,0,1.48,0,1.18,1.18,0,0,0,.78-.73,1.67,1.67,0,0,0,.12-.62V8.51ZM34,10.24a2.17,2.17,0,0,1-.14.82A1.15,1.15,0,0,1,31.7,11a2.21,2.21,0,0,1,0-1.52,1,1,0,0,1,.79-.71,1.16,1.16,0,0,1,1.44,1A2.91,2.91,0,0,1,34,10.24Z"/><path class="cls-3" d="M30.93,12.14a.56.56,0,0,1,0-.13c0-.11,0-.11-.11-.09a.25.25,0,0,1-.33-.23v-.15c0-.71,0-1.42,0-2.13a1,1,0,0,0-.76-1,2.28,2.28,0,0,0-1.1,0,1.19,1.19,0,0,0-1,1.08c0,.06,0,.08.06.07H28c.06,0,.07,0,.08-.07a.74.74,0,0,1,.54-.69,1.5,1.5,0,0,1,.89,0,.61.61,0,0,1,.5.46.93.93,0,0,1,0,.37.33.33,0,0,1-.25.33,2.13,2.13,0,0,1-.5.11,7.21,7.21,0,0,0-.93.15,1,1,0,0,0-.9,1,1,1,0,0,0,.72,1.07,1.87,1.87,0,0,0,.67.07A1.49,1.49,0,0,0,30,11.76l.06-.09h0v.1a.48.48,0,0,0,.4.49.82.82,0,0,0,.38,0C30.91,12.24,30.94,12.21,30.93,12.14ZM30,11.07a1.09,1.09,0,0,1-.87.84,1.43,1.43,0,0,1-.74,0,.61.61,0,0,1-.48-.6.7.7,0,0,1,.59-.78c.29-.07.58-.1.86-.15a2.06,2.06,0,0,0,.67-.2A6.51,6.51,0,0,1,30,11.07Z"/><path class="cls-3" d="M35.53,10.42h2.73c.07,0,.08,0,.08-.09a3.29,3.29,0,0,0-.05-.54,1.94,1.94,0,0,0-.41-1,1.43,1.43,0,0,0-1.15-.49,1.58,1.58,0,0,0-1.46.83,2.4,2.4,0,0,0-.18,1.91,1.62,1.62,0,0,0,.81,1,1.81,1.81,0,0,0,1,.19,1.46,1.46,0,0,0,1.37-1.17c0-.05,0-.06,0-.06h-.32a.07.07,0,0,0-.08.06,1,1,0,0,1-1,.79,1.2,1.2,0,0,1-1.25-.71,2.23,2.23,0,0,1-.17-.72C35.45,10.44,35.46,10.42,35.53,10.42ZM35.46,10a1.94,1.94,0,0,1,.3-.81,1.14,1.14,0,0,1,1-.46,1.07,1.07,0,0,1,1.07,1c0,.1,0,.2,0,.3s0,.08-.06.08H35.52C35.47,10.07,35.46,10.06,35.46,10Z"/><path class="cls-3" d="M47.75,9.73a1.71,1.71,0,0,0-3.26-.32,2.54,2.54,0,0,0-.13,1.39,1.9,1.9,0,0,0,.37.89,1.72,1.72,0,0,0,2.8-.17,2.3,2.3,0,0,0,.3-1.18A3.19,3.19,0,0,0,47.75,9.73Zm-.39.61a2.17,2.17,0,0,1-.16.87,1.17,1.17,0,0,1-1.09.74A1.16,1.16,0,0,1,45,11.24a2.13,2.13,0,0,1-.18-1.05,2,2,0,0,1,.21-.8,1.22,1.22,0,0,1,2-.26,1.67,1.67,0,0,1,.35.82A1.71,1.71,0,0,1,47.36,10.34Z"/><path class="cls-4" d="M48.41,8.1a.46.46,0,0,0-.48.49.48.48,0,1,0,1,0A.46.46,0,0,0,48.41,8.1Zm0,.91a.39.39,0,0,1-.4-.44.4.4,0,0,1,.42-.42.41.41,0,0,1,.4.45A.39.39,0,0,1,48.4,9Z"/><path class="cls-4" d="M48.51,8.65s0,0,0-.06a.15.15,0,0,0,.07-.17.16.16,0,0,0-.14-.12h-.17s0,0,0,0v.44s0,.05,0,.05,0,0,0-.05v-.1s0-.06,0-.07,0,0,.07,0a.57.57,0,0,1,.08.13.08.08,0,0,0,.13,0Zm-.12-.11c-.08,0,0,0-.06-.08s0-.08.07-.08.1,0,.1.08S48.44,8.54,48.39,8.54Z"/></g></g></svg>