<svg xmlns="http://www.w3.org/2000/svg" xmlns:xlink="http://www.w3.org/1999/xlink" viewBox="0 0 102.3 139.62"><defs><style>.cls-1{isolation:isolate;}.cls-2{opacity:0.05;mix-blend-mode:multiply;}.cls-3{fill:#fff;}.cls-4{fill:#4546cf;}.cls-5{fill:#9bb4fe;}.cls-6{fill:url(#linear-gradient);}.cls-7{fill:url(#linear-gradient-2);}.cls-8{fill:url(#linear-gradient-3);}.cls-9{fill:url(#linear-gradient-4);}.cls-10{fill:url(#linear-gradient-5);}</style><linearGradient id="linear-gradient" x1="50.66" y1="134.61" x2="50.66" y2="110.68" gradientUnits="userSpaceOnUse"><stop offset="0.02" stop-color="#db4d61"/><stop offset="0.29" stop-color="#de5d6f"/><stop offset="0.7" stop-color="#e26e7e"/><stop offset="1" stop-color="#e37483"/></linearGradient><linearGradient id="linear-gradient-2" x1="13.43" y1="134.61" x2="13.43" y2="110.68" xlink:href="#linear-gradient"/><linearGradient id="linear-gradient-3" x1="30.35" y1="134.61" x2="30.35" y2="110.68" xlink:href="#linear-gradient"/><linearGradient id="linear-gradient-4" x1="67.82" y1="134.61" x2="67.82" y2="110.68" xlink:href="#linear-gradient"/><linearGradient id="linear-gradient-5" x1="84.71" y1="134.61" x2="84.71" y2="110.68" xlink:href="#linear-gradient"/></defs><g class="cls-1"><g id="Layer_2" data-name="Layer 2"><g id="Layer_1-2" data-name="Layer 1"><g class="cls-2"><rect x="1.45" y="1.45" width="100.84" height="138.17"/></g><rect class="cls-3" width="100.84" height="138.17"/><path class="cls-4" d="M31.81,63.32H9.59V41.1H31.81ZM11,61.87H30.36V42.55H11Z"/><path class="cls-4" d="M31.81,35H9.59V12.77H31.81ZM11,33.54H30.36V14.23H11Z"/><rect class="cls-4" x="8.81" y="126.68" width="81.15" height="1.1"/><rect class="cls-5" x="38.1" y="109.41" width="5.15" height="17.25"/><rect class="cls-6" x="47.52" y="100.1" width="6.27" height="26.57"/><rect class="cls-5" x="56.37" y="120.33" width="5.22" height="6.34"/><rect class="cls-7" x="10.86" y="107.13" width="5.15" height="19.53"/><rect class="cls-5" x="19.05" y="112.5" width="5.21" height="14.17"/><rect class="cls-8" x="27.74" y="115.61" width="5.22" height="11.06"/><rect class="cls-9" x="65.25" y="112.5" width="5.15" height="14.17"/><rect class="cls-5" x="74.1" y="104.55" width="5.21" height="22.11"/><rect class="cls-10" x="82.1" y="115.61" width="5.22" height="11.06"/><path class="cls-4" d="M84,46.25H39.14a1,1,0,0,1-1-1h0a1,1,0,0,1,1-.95H84a1,1,0,0,1,1,.95h0A1,1,0,0,1,84,46.25Z"/><path class="cls-5" d="M79.86,50.67H39.14a1,1,0,0,1-1-1h0a1,1,0,0,1,1-.95H79.86a1,1,0,0,1,1,.95h0A1,1,0,0,1,79.86,50.67Z"/><path class="cls-5" d="M79.86,60.07H39.14a1,1,0,0,1-1-1h0a1,1,0,0,1,1-.95H79.86a1,1,0,0,1,1,.95h0A1,1,0,0,1,79.86,60.07Z"/><path class="cls-5" d="M62.92,55.34H39.14a1,1,0,0,1-1-1h0a1,1,0,0,1,1-1H62.92a1,1,0,0,1,.95,1h0A1,1,0,0,1,62.92,55.34Z"/><path class="cls-5" d="M91.09,55.34H67.31a.94.94,0,0,1-1-1h0a1,1,0,0,1,1-1H91.09a1,1,0,0,1,1,1h0A1,1,0,0,1,91.09,55.34Z"/><path class="cls-4" d="M31.81,93H9.59V70.73H31.81ZM11,91.5H30.36V72.18H11Z"/><path class="cls-4" d="M84,75.88H39.14a1,1,0,0,1-1-.95h0a1,1,0,0,1,1-1H84a1,1,0,0,1,1,1h0A1,1,0,0,1,84,75.88Z"/><path class="cls-5" d="M79.86,80.31H39.14a1,1,0,0,1-1-1h0a1,1,0,0,1,1-.95H79.86a1,1,0,0,1,1,.95h0A1,1,0,0,1,79.86,80.31Z"/><path class="cls-5" d="M79.86,89.71H39.14a1,1,0,0,1-1-1h0a1,1,0,0,1,1-1H79.86a1,1,0,0,1,1,1h0A1,1,0,0,1,79.86,89.71Z"/><path class="cls-5" d="M62.92,85H39.14a1,1,0,0,1-1-1h0a1,1,0,0,1,1-1H62.92a1,1,0,0,1,.95,1h0A1,1,0,0,1,62.92,85Z"/><path class="cls-5" d="M91.09,85H67.31a1,1,0,0,1-1-1h0a1,1,0,0,1,1-1H91.09a1,1,0,0,1,1,1h0A1,1,0,0,1,91.09,85Z"/><path class="cls-4" d="M84,17.92H39.14a1,1,0,0,1-1-1h0a1,1,0,0,1,1-.95H84a1,1,0,0,1,1,.95h0A1,1,0,0,1,84,17.92Z"/><path class="cls-5" d="M79.86,22.35H39.14a1,1,0,0,1-1-1h0a1,1,0,0,1,1-.95H79.86a1,1,0,0,1,1,.95h0A1,1,0,0,1,79.86,22.35Z"/><path class="cls-5" d="M79.86,31.75H39.14a1,1,0,0,1-1-.95h0a1,1,0,0,1,1-.95H79.86a1,1,0,0,1,1,.95h0A1,1,0,0,1,79.86,31.75Z"/><path class="cls-5" d="M62.92,27H39.14a1,1,0,0,1-1-.95h0a1,1,0,0,1,1-.95H62.92a1,1,0,0,1,.95.95h0A1,1,0,0,1,62.92,27Z"/><path class="cls-5" d="M91.09,27H67.31a1,1,0,0,1-1-.95h0a.94.94,0,0,1,1-.95H91.09a1,1,0,0,1,1,.95h0A1,1,0,0,1,91.09,27Z"/></g></g></g></svg>