<svg xmlns="http://www.w3.org/2000/svg" viewBox="0 0 70.62 73.93"><defs><style>.cls-1{fill:#5d5dd9;}.cls-2{fill:#c2c0f2;opacity:0.33;}.cls-3{fill:#fff8f3;}.cls-4{fill:none;stroke:#fff8f3;stroke-linecap:round;stroke-linejoin:round;stroke-width:1.57px;}</style></defs><g id="Layer_2" data-name="Layer 2"><g id="Layer_1-2" data-name="Layer 1"><path class="cls-1" d="M31.94,42,4.12,73.15a2.37,2.37,0,0,1-3.33.19h0A2.37,2.37,0,0,1,.6,70L28.42,38.85a2.36,2.36,0,0,1,3.33-.19h0A2.36,2.36,0,0,1,31.94,42Z"/><path class="cls-1" d="M12.51,56.66.6,70a2.36,2.36,0,1,0,3.52,3.15L16.18,59.64C15,58.63,13.75,57.64,12.51,56.66Z"/><circle class="cls-1" cx="22.77" cy="48.59" r="5.8" transform="translate(-30.19 39.95) rotate(-55.63)"/><path class="cls-2" d="M68.66,19.38A21.95,21.95,0,1,1,43,2,21.95,21.95,0,0,1,68.66,19.38Z"/><path class="cls-1" d="M51.53,46.61A23.52,23.52,0,1,1,70.19,19.09,23.55,23.55,0,0,1,51.53,46.61ZM43.27,3.5A20.38,20.38,0,1,0,67.12,19.68,20.39,20.39,0,0,0,43.27,3.5Z"/><path class="cls-3" d="M49.13,13a4.62,4.62,0,1,1-5.41-3.67A4.62,4.62,0,0,1,49.13,13Z"/><path class="cls-4" d="M62.07,24.1a18.46,18.46,0,0,1-6.88,13.55"/><path class="cls-4" d="M59.53,13.52a20.5,20.5,0,0,1,1.82,4.66"/></g></g></svg>