<?xml version="1.0" encoding="UTF-8"?><svg id="Layer_2" xmlns="http://www.w3.org/2000/svg" viewBox="0 0 84.52 16.39"><defs><style>.cls-1{fill:#fff;}</style></defs><g id="Layer_1-2"><rect class="cls-1" y="1.12" width=".5" height="15.28"/><rect class="cls-1" x="84.02" y="1.12" width=".5" height="15.28"/><path class="cls-1" d="M38.67,8.33c-.5,0-.94-.05-1.31-.16-.37-.11-.68-.26-.93-.47-.25-.2-.43-.45-.56-.74-.13-.29-.21-.61-.23-.96l1.21-.36c.02.31.08.56.18.77.1.21.24.37.42.5.17.13.37.21.58.27.21.05.43.08.66.08.35,0,.66-.05.94-.15s.51-.25.68-.46.25-.48.25-.81c0-.43-.13-.76-.39-1.01-.26-.25-.64-.42-1.12-.52-.49-.1-1.07-.13-1.75-.09v-.81l2.77-2.06v-.1l-4.09.02V.17h5.41v1.34l-2.56,1.95v.1c.74-.02,1.34.08,1.78.28.45.2.77.48.97.83.2.35.3.74.3,1.18,0,.51-.12.95-.35,1.32-.23.37-.59.66-1.06.86s-1.07.31-1.79.31Z"/><path class="cls-1" d="M43.08,8.16v-1.46l2.93-2.12c.16-.13.33-.27.5-.42s.33-.32.48-.5c.15-.19.27-.38.36-.59.09-.21.14-.44.14-.69s-.05-.47-.17-.65-.28-.33-.5-.44c-.22-.1-.5-.16-.83-.16-.25,0-.48.04-.68.11-.2.08-.37.19-.51.35s-.24.36-.3.61-.1.55-.1.91l-1.27-.24c-.02-.59.08-1.1.3-1.52s.54-.76.97-1,.97-.36,1.6-.36c.56,0,1.04.09,1.46.27.42.18.74.44.97.78.23.34.34.75.34,1.23,0,.39-.06.74-.19,1.06-.13.32-.3.61-.5.87-.21.26-.43.49-.67.69-.24.2-.48.38-.71.53l-2.15,1.56v.1l4.41-.05v1.11h-5.9Z"/><path class="cls-1" d="M34.25,15.33v-5.08h.9l-.06,1.58h.18c.08-.38.2-.7.35-.95.15-.25.33-.44.54-.57.21-.13.46-.19.74-.19.31,0,.57.08.78.22.21.15.36.35.47.61s.16.54.17.86h.16c.08-.37.2-.68.36-.93.15-.25.34-.44.57-.57s.48-.19.76-.19.5.05.7.16.37.27.51.47c.14.21.24.47.31.78.07.31.1.67.1,1.07v2.72h-1.06v-2.59c0-.38-.03-.69-.1-.94-.06-.25-.17-.43-.3-.56-.14-.12-.31-.19-.52-.19-.23,0-.44.08-.62.24-.18.16-.32.38-.43.66-.11.28-.18.6-.21.97v2.4h-1.04v-2.52c0-.39-.03-.71-.1-.97-.07-.26-.17-.45-.3-.58-.14-.13-.31-.2-.52-.2-.25,0-.46.08-.64.25s-.32.39-.42.68c-.1.29-.17.61-.2.97v2.37h-1.05Z"/><path class="cls-1" d="M43.15,15.33v-5.08h.9l-.06,1.58h.18c.08-.38.2-.7.35-.95.15-.25.33-.44.54-.57s.46-.19.74-.19c.31,0,.57.08.78.22.21.15.36.35.47.61s.17.54.17.86h.16c.08-.37.2-.68.36-.93.15-.25.34-.44.57-.57.23-.13.48-.19.76-.19s.5.05.7.16c.2.11.37.27.51.47.14.21.24.47.31.78.07.31.1.67.1,1.07v2.72h-1.06v-2.59c0-.38-.03-.69-.1-.94-.07-.25-.17-.43-.3-.56-.14-.12-.31-.19-.52-.19-.24,0-.44.08-.62.24-.18.16-.32.38-.43.66-.11.28-.18.6-.21.97v2.4h-1.04v-2.52c0-.39-.03-.71-.1-.97-.06-.26-.17-.45-.3-.58-.14-.13-.31-.2-.52-.2-.25,0-.46.08-.64.25s-.32.39-.42.68c-.1.29-.17.61-.2.97v2.37h-1.05Z"/><rect class="cls-1" x=".25" y="8.44" width="2.5" height=".5"/><rect class="cls-1" x="18.54" y="8.44" width="5.26" height=".5"/><rect class="cls-1" x="8.01" y="8.44" width="5.26" height=".5"/><path class="cls-1" d="M29.86,8.44h-.8v.5h.79c0-.07-.03-.14-.03-.21,0-.1.02-.19.04-.29Z"/><path class="cls-1" d="M54.57,8.73c0,.07-.02.14-.03.21h.83v-.5h-.84c.02.1.04.19.04.29Z"/><rect class="cls-1" x="60.63" y="8.44" width="5.26" height=".5"/><rect class="cls-1" x="71.16" y="8.44" width="5.26" height=".5"/><rect class="cls-1" x="81.68" y="8.44" width="2.5" height=".5"/></g></svg>