<svg xmlns="http://www.w3.org/2000/svg" viewBox="0 0 48.54 48.54"><defs><style>.cls-1{fill:#1977bd;}.cls-2{fill:#fff;}</style></defs><g id="Layer_2" data-name="Layer 2"><g id="Layer_1-2" data-name="Layer 1"><rect class="cls-1" width="48.54" height="48.54" rx="11.32"/><path class="cls-2" d="M31.8,21.56c-3.49,0-6.81,0-10.14,0a1.43,1.43,0,0,0-1.46.87c-1.37,2.53-1.39,2.52-4.29,2.45l-.58,0L24.41,9.3c.31,0,.35.22.44.37,1.31,2.23,2.59,4.46,3.92,6.68.39.65.18.78-.45.72h-.26c-1.51.08-3.08.27-3.37-2l-.23.15c-.65,1.15-1.31,2.3-1.94,3.46-.24.43.12.39.37.4.86,0,1.73,0,2.59,0l4.3.07a.76.76,0,0,1,.79.37C30.92,20.14,31.32,20.77,31.8,21.56Z"/><path class="cls-2" d="M41.57,38.72Q37.12,31,32.66,23.22a.94.94,0,0,0-1-.49c-2,0-4,0-5.94,0-.72,0-.85.23-.84.88,0,4.42,0,8.84,0,13.26,0,2.4,0,2.38,2.41,2.31.56,0,.67-.23.65-.72,0-.8,0-1.61,0-2.41,0-.57.16-.72.72-.72,2.32,0,4.65,0,7-.06a.87.87,0,0,1,.86.55c.51,1,1.05,1.91,1.57,2.87a.72.72,0,0,0,.72.48c.94,0,1.89,0,3,0A3.49,3.49,0,0,0,41.57,38.72Zm-6.72-6.35H28.49c-.44,0-.53-.19-.53-.57,0-1.87,0-3.73,0-5.59,0-.42.16-.51.55-.54,2.36-.12,2.35-.13,3.55,1.89.8,1.35,1.62,2.7,2.41,4.06C34.63,31.89,34.88,32.11,34.85,32.37Z"/><path class="cls-2" d="M23.84,26.72c0-.57-.16-.73-.73-.73q-3.91,0-7.83,0a1.1,1.1,0,0,0-1.13.68C12,30.62,9.72,34.56,7.5,38.51c-.1.19-.28.36-.24.63a1.19,1.19,0,0,0,.23.07H20.4a.92.92,0,0,0,.71-.24c.85-.9,1.7-1.78,2.56-2.67.21-.21.16-.48.16-.73C23.83,32.63,23.82,29.67,23.84,26.72ZM20.89,34.3a2.42,2.42,0,0,1-2,1.89c-2.17,0-4.35,0-6.69,0,1.47-2.53,2.84-4.9,4.21-7.28.17-.31.43-.31.72-.31,1,0,2.07,0,3.1,0,.49,0,.65.15.64.64C20.88,30.92,20.91,32.61,20.89,34.3Z"/></g></g></svg>