<svg xmlns="http://www.w3.org/2000/svg" viewBox="0 0 224.53 139.34"><defs><style>.cls-1{fill:#131c42;}.cls-2{fill:#010101;}</style></defs><g id="Layer_2" data-name="Layer 2"><g id="Layer_1-2" data-name="Layer 1"><path class="cls-1" d="M2.27,31.26V1.2H20.91V5.11H6.81v9.15H19.58v3.89H6.81V31.26Z"/><path class="cls-1" d="M26.2,5.24a2.78,2.78,0,0,1-2-.77,2.45,2.45,0,0,1-.81-1.84A2.46,2.46,0,0,1,24.24.77a2.78,2.78,0,0,1,2-.77,2.75,2.75,0,0,1,2,.77A2.44,2.44,0,0,1,29,2.63a2.43,2.43,0,0,1-.82,1.84A2.75,2.75,0,0,1,26.2,5.24ZM24,31.26V8.72h4.39V31.26Z"/><path class="cls-1" d="M36.51,1.2V31.26H32.13V1.2Z"/><path class="cls-1" d="M50,31.71a10.93,10.93,0,0,1-5.73-1.43,9.56,9.56,0,0,1-3.7-4,13.53,13.53,0,0,1-1.3-6.12,13.62,13.62,0,0,1,1.3-6.1,9.74,9.74,0,0,1,9.12-5.61,11.11,11.11,0,0,1,3.7.63,9.14,9.14,0,0,1,3.21,2,9.28,9.28,0,0,1,2.25,3.5,14.57,14.57,0,0,1,.82,5.21v1.56H41.73V18H55.35a6.49,6.49,0,0,0-.7-3.07,5.26,5.26,0,0,0-2-2.12,5.55,5.55,0,0,0-3-.78,5.73,5.73,0,0,0-3.22.9,6,6,0,0,0-2.11,2.35,6.69,6.69,0,0,0-.74,3.13V21a8.45,8.45,0,0,0,.79,3.84,5.66,5.66,0,0,0,2.24,2.42,6.64,6.64,0,0,0,3.36.83,6.9,6.9,0,0,0,2.28-.36,4.85,4.85,0,0,0,1.77-1.08,4.76,4.76,0,0,0,1.15-1.78l4.15.75a7.54,7.54,0,0,1-1.78,3.21A8.8,8.8,0,0,1,54.37,31,12,12,0,0,1,50,31.71Z"/><path class="cls-1" d="M81.27,31.26H71.54V1.2h10A15.1,15.1,0,0,1,89.16,3,12,12,0,0,1,94,8.15a17.67,17.67,0,0,1,1.69,8A17.67,17.67,0,0,1,94,24.26a12.06,12.06,0,0,1-4.93,5.19A15.85,15.85,0,0,1,81.27,31.26Zm-5.2-4h5A11.46,11.46,0,0,0,86.73,26a8.16,8.16,0,0,0,3.4-3.77,14.57,14.57,0,0,0,1.13-6,14.46,14.46,0,0,0-1.12-6A8,8,0,0,0,86.8,6.44a10.89,10.89,0,0,0-5.5-1.27H76.07Z"/><path class="cls-1" d="M108.35,31.71a10.32,10.32,0,0,1-5.53-1.45,9.77,9.77,0,0,1-3.67-4.06,13.54,13.54,0,0,1-1.31-6.11A13.6,13.6,0,0,1,99.15,14a9.7,9.7,0,0,1,3.67-4.08,11.2,11.2,0,0,1,11.06,0A9.7,9.7,0,0,1,117.55,14a13.6,13.6,0,0,1,1.31,6.13,13.54,13.54,0,0,1-1.31,6.11,9.77,9.77,0,0,1-3.67,4.06A10.32,10.32,0,0,1,108.35,31.71Zm0-3.68a5.21,5.21,0,0,0,3.4-1.09,6.31,6.31,0,0,0,2-2.89,11.48,11.48,0,0,0,.66-4,11.48,11.48,0,0,0-.66-4,6.51,6.51,0,0,0-2-2.92,5.22,5.22,0,0,0-3.4-1.1,5.28,5.28,0,0,0-3.43,1.1,6.45,6.45,0,0,0-2,2.92,11.48,11.48,0,0,0-.65,4,11.48,11.48,0,0,0,.65,4,6.25,6.25,0,0,0,2,2.89A5.28,5.28,0,0,0,108.37,28Z"/><path class="cls-1" d="M121.6,31.26V8.72h4.24V12.3h.23a5.46,5.46,0,0,1,2.18-2.87,6.19,6.19,0,0,1,3.54-1l1,0c.38,0,.67,0,.89.07v4.2a7.62,7.62,0,0,0-.94-.17,10.2,10.2,0,0,0-1.35-.09,5.7,5.7,0,0,0-2.77.65,5,5,0,0,0-1.91,1.8,4.92,4.92,0,0,0-.71,2.62V31.26Z"/><path class="cls-1" d="M135.32,31.26V8.72h4.22v3.67h.28a5.83,5.83,0,0,1,2.3-2.92A6.82,6.82,0,0,1,146,8.42a6.54,6.54,0,0,1,3.79,1.06A6.13,6.13,0,0,1,152,12.39h.24a6.33,6.33,0,0,1,2.56-2.89A7.91,7.91,0,0,1,159,8.42a6.79,6.79,0,0,1,5,1.93Q166,12.27,166,16.14V31.26h-4.39V16.55a4.05,4.05,0,0,0-1.25-3.31,4.5,4.5,0,0,0-3-1A4.27,4.27,0,0,0,154,13.52a4.85,4.85,0,0,0-1.19,3.37V31.26h-4.37v-15a3.89,3.89,0,0,0-1.15-2.94,4.05,4.05,0,0,0-3-1.12,4.29,4.29,0,0,0-2.29.65,4.92,4.92,0,0,0-1.69,1.81,5.57,5.57,0,0,0-.64,2.69v13.9Z"/><path class="cls-1" d="M176.25,31.76a9.22,9.22,0,0,1-3.88-.8,6.47,6.47,0,0,1-2.73-2.33,6.65,6.65,0,0,1-1-3.74,6.16,6.16,0,0,1,.73-3.14,5.4,5.4,0,0,1,2-1.95,10.53,10.53,0,0,1,2.78-1.09,29.88,29.88,0,0,1,3.14-.56c1.35-.15,2.45-.28,3.29-.39a4.9,4.9,0,0,0,1.84-.5,1.26,1.26,0,0,0,.57-1.15V16a4,4,0,0,0-1.08-3A4.44,4.44,0,0,0,178.68,12a5.58,5.58,0,0,0-3.48,1,5.3,5.3,0,0,0-1.76,2.17l-4.12-.94a8,8,0,0,1,2.15-3.33A8.82,8.82,0,0,1,174.74,9a13.06,13.06,0,0,1,3.88-.58,14.17,14.17,0,0,1,2.87.32,8.51,8.51,0,0,1,2.85,1.15,6.33,6.33,0,0,1,2.18,2.39,8.25,8.25,0,0,1,.85,4v15h-4.29V28.18h-.17a6.27,6.27,0,0,1-1.28,1.67,6.6,6.6,0,0,1-2.18,1.36A8.33,8.33,0,0,1,176.25,31.76Zm.95-3.53a6.36,6.36,0,0,0,3.12-.71,5.08,5.08,0,0,0,2-1.89,4.92,4.92,0,0,0,.68-2.5V20.22a2.18,2.18,0,0,1-.9.44,12.47,12.47,0,0,1-1.52.33c-.57.1-1.12.18-1.66.25l-1.35.19a10,10,0,0,0-2.32.54,4,4,0,0,0-1.68,1.09,2.81,2.81,0,0,0-.62,1.89,2.81,2.81,0,0,0,1.2,2.46A5.34,5.34,0,0,0,177.2,28.23Z"/><path class="cls-1" d="M195.45,17.87V31.26h-4.39V8.72h4.21v3.67h.28A6.41,6.41,0,0,1,198,9.51a7.58,7.58,0,0,1,4.2-1.09,8.21,8.21,0,0,1,4,1,6.58,6.58,0,0,1,2.68,2.86,10.27,10.27,0,0,1,1,4.68V31.26h-4.39V17.45a5.46,5.46,0,0,0-1.28-3.84,4.55,4.55,0,0,0-3.51-1.39,5.43,5.43,0,0,0-2.7.66,4.83,4.83,0,0,0-1.87,1.93A6.46,6.46,0,0,0,195.45,17.87Z"/><path class="cls-1" d="M224.12,8.72v3.52H211.81V8.72Zm-9-5.4h4.39V24.64a3.72,3.72,0,0,0,.38,1.91,1.89,1.89,0,0,0,1,.87,3.79,3.79,0,0,0,1.33.23,4.92,4.92,0,0,0,.92-.08l.62-.11.79,3.62a7.52,7.52,0,0,1-1.09.3,8.44,8.44,0,0,1-1.76.17,7.6,7.6,0,0,1-3.23-.62,5.58,5.58,0,0,1-2.42-2,5.91,5.91,0,0,1-.92-3.39Z"/><path class="cls-1" d="M4.81,65.59H0L10.82,35.54h5.23L26.87,65.59H22.06L13.56,41h-.23Zm.81-11.77H21.23v3.82H5.62Z"/><path class="cls-1" d="M37.84,66.05a10.35,10.35,0,0,1-5.63-1.49,9.72,9.72,0,0,1-3.61-4.12,13.58,13.58,0,0,1-1.27-6,13.49,13.49,0,0,1,1.3-6.07,9.91,9.91,0,0,1,3.63-4.12,10.15,10.15,0,0,1,5.54-1.48,10.65,10.65,0,0,1,4.58,1,8.37,8.37,0,0,1,3.25,2.64,8.17,8.17,0,0,1,1.47,4H42.83a5.14,5.14,0,0,0-1.61-2.73,4.77,4.77,0,0,0-3.35-1.14,5.48,5.48,0,0,0-3.21,1,6.28,6.28,0,0,0-2.13,2.73,10.45,10.45,0,0,0-.76,4.17,11,11,0,0,0,.74,4.26,6.32,6.32,0,0,0,2.12,2.77,5.76,5.76,0,0,0,5.51.52,4.53,4.53,0,0,0,1.71-1.32,5.12,5.12,0,0,0,1-2.09H47.1a8.13,8.13,0,0,1-4.6,6.61A10.49,10.49,0,0,1,37.84,66.05Z"/><path class="cls-1" d="M59.16,66.05a10.35,10.35,0,0,1-5.63-1.49,9.74,9.74,0,0,1-3.62-4.12,14.94,14.94,0,0,1,0-12.08,9.93,9.93,0,0,1,3.64-4.12,10.14,10.14,0,0,1,5.53-1.48,10.62,10.62,0,0,1,4.58,1,8.29,8.29,0,0,1,3.25,2.64,8.08,8.08,0,0,1,1.48,4H64.15a5.2,5.2,0,0,0-1.61-2.73,4.79,4.79,0,0,0-3.35-1.14,5.44,5.44,0,0,0-3.21,1,6.3,6.3,0,0,0-2.14,2.73,10.63,10.63,0,0,0-.76,4.17,11,11,0,0,0,.75,4.26A6.32,6.32,0,0,0,56,61.35a5.74,5.74,0,0,0,5.5.52,4.57,4.57,0,0,0,1.72-1.32,5.12,5.12,0,0,0,1-2.09h4.27a8.18,8.18,0,0,1-4.6,6.61A10.49,10.49,0,0,1,59.16,66.05Z"/><path class="cls-1" d="M80.47,66.05a10.44,10.44,0,0,1-5.53-1.45,9.86,9.86,0,0,1-3.67-4.07,13.5,13.5,0,0,1-1.3-6.1,13.64,13.64,0,0,1,1.3-6.14,9.83,9.83,0,0,1,3.67-4.08,11.29,11.29,0,0,1,11.07,0,9.89,9.89,0,0,1,3.67,4.08A13.64,13.64,0,0,1,91,54.43a13.5,13.5,0,0,1-1.3,6.1A9.93,9.93,0,0,1,86,64.6,10.45,10.45,0,0,1,80.47,66.05Zm0-3.68a5.27,5.27,0,0,0,3.4-1.09,6.46,6.46,0,0,0,2-2.89,12.48,12.48,0,0,0,0-8,6.52,6.52,0,0,0-2-2.91,5.16,5.16,0,0,0-3.4-1.1,5.25,5.25,0,0,0-3.43,1.1,6.52,6.52,0,0,0-2,2.91,12.48,12.48,0,0,0,0,8,6.46,6.46,0,0,0,2,2.89A5.36,5.36,0,0,0,80.49,62.37Z"/><path class="cls-1" d="M108,56.25V43.05h4.4V65.59h-4.31v-3.9h-.24a7.05,7.05,0,0,1-2.49,3,7.19,7.19,0,0,1-4.24,1.2,7.55,7.55,0,0,1-3.84-1,6.61,6.61,0,0,1-2.61-2.86,10.4,10.4,0,0,1-1-4.68V43.05h4.39V56.86a5.15,5.15,0,0,0,1.27,3.67,4.36,4.36,0,0,0,3.32,1.37,5.47,5.47,0,0,0,2.46-.62,5.18,5.18,0,0,0,2-1.86A5.66,5.66,0,0,0,108,56.25Z"/><path class="cls-1" d="M120.52,52.21V65.59h-4.38V43.05h4.21v3.67h.28a6.42,6.42,0,0,1,2.44-2.87,7.49,7.49,0,0,1,4.2-1.09,8.18,8.18,0,0,1,4,1A6.55,6.55,0,0,1,134,46.58a10.4,10.4,0,0,1,.95,4.68V65.59h-4.39V51.78A5.43,5.43,0,0,0,129.29,48a4.54,4.54,0,0,0-3.51-1.39,5.47,5.47,0,0,0-2.71.66,4.62,4.62,0,0,0-1.86,1.93A6.34,6.34,0,0,0,120.52,52.21Z"/><path class="cls-1" d="M149.19,43.05v3.53H136.88V43.05Zm-9-5.4h4.39V59a3.85,3.85,0,0,0,.38,1.91,2,2,0,0,0,1,.87,3.83,3.83,0,0,0,1.33.22,5,5,0,0,0,.92-.07l.62-.12.79,3.63a7,7,0,0,1-1.08.3,9.27,9.27,0,0,1-1.76.17,7.69,7.69,0,0,1-3.23-.62,5.47,5.47,0,0,1-2.42-2,5.85,5.85,0,0,1-.93-3.4Z"/><path class="cls-1" d="M168.39,48.56l-4,.7a4.8,4.8,0,0,0-.79-1.45,3.93,3.93,0,0,0-1.44-1.13,5.15,5.15,0,0,0-2.28-.44,5.44,5.44,0,0,0-3.11.83,2.48,2.48,0,0,0-1.25,2.13,2.23,2.23,0,0,0,.84,1.82,6.75,6.75,0,0,0,2.7,1.13l3.58.82a9.59,9.59,0,0,1,4.64,2.22,5.19,5.19,0,0,1,1.52,3.89,5.87,5.87,0,0,1-1.16,3.6,7.68,7.68,0,0,1-3.25,2.47,12,12,0,0,1-4.8.9,10.81,10.81,0,0,1-6.18-1.62,6.8,6.8,0,0,1-2.93-4.62l4.24-.64a4,4,0,0,0,1.63,2.5,5.59,5.59,0,0,0,3.21.84,5.92,5.92,0,0,0,3.45-.9,2.64,2.64,0,0,0,1.29-2.21,2.28,2.28,0,0,0-.79-1.77,5.16,5.16,0,0,0-2.4-1.09l-3.81-.84a9.11,9.11,0,0,1-4.66-2.29,5.51,5.51,0,0,1-1.5-4,5.73,5.73,0,0,1,1.11-3.5,7.46,7.46,0,0,1,3.08-2.34,11.41,11.41,0,0,1,4.51-.84,9.39,9.39,0,0,1,5.75,1.58A7.36,7.36,0,0,1,168.39,48.56Z"/><path class="cls-1" d="M28.38,84.9a18.06,18.06,0,0,1-1.76,8.27,12.85,12.85,0,0,1-4.82,5.32,13.21,13.21,0,0,1-7,1.85,13.22,13.22,0,0,1-7-1.85,12.91,12.91,0,0,1-4.82-5.32A18,18,0,0,1,1.31,84.9a18,18,0,0,1,1.76-8.27,12.89,12.89,0,0,1,4.82-5.31,13.13,13.13,0,0,1,7-1.86,13.12,13.12,0,0,1,7,1.86,12.89,12.89,0,0,1,4.82,5.31A18.09,18.09,0,0,1,28.38,84.9Zm-4.49,0a14.47,14.47,0,0,0-1.18-6.18,8.81,8.81,0,0,0-3.23-3.82,8.5,8.5,0,0,0-4.63-1.3,8.51,8.51,0,0,0-4.64,1.3A8.85,8.85,0,0,0,7,78.72,16.8,16.8,0,0,0,7,91.09a8.77,8.77,0,0,0,3.22,3.81,8.43,8.43,0,0,0,4.64,1.3,8.42,8.42,0,0,0,4.63-1.3,8.72,8.72,0,0,0,3.23-3.81A14.48,14.48,0,0,0,23.89,84.9Z"/><path class="cls-1" d="M35.9,86.55V99.93H31.51V77.39h4.22v3.67H36a6.43,6.43,0,0,1,2.44-2.88,7.57,7.57,0,0,1,4.2-1.08,8.21,8.21,0,0,1,4,1,6.57,6.57,0,0,1,2.69,2.85,10.4,10.4,0,0,1,.95,4.68V99.93H45.94V86.12a5.48,5.48,0,0,0-1.28-3.84,4.53,4.53,0,0,0-3.5-1.38,5.47,5.47,0,0,0-2.71.66,4.71,4.71,0,0,0-1.87,1.93A6.4,6.4,0,0,0,35.9,86.55Z"/><path class="cls-1" d="M58.44,69.88V99.93H54.05V69.88Z"/><path class="cls-1" d="M64.4,73.91a2.74,2.74,0,0,1-2-.77,2.45,2.45,0,0,1-.81-1.84,2.49,2.49,0,0,1,.81-1.86,2.78,2.78,0,0,1,2-.77,2.75,2.75,0,0,1,2,.77,2.47,2.47,0,0,1,.82,1.86,2.43,2.43,0,0,1-.82,1.84A2.71,2.71,0,0,1,64.4,73.91Zm-2.21,26V77.39h4.39V99.93Z"/><path class="cls-1" d="M74.71,86.55V99.93H70.32V77.39h4.22v3.67h.28a6.43,6.43,0,0,1,2.44-2.88,7.57,7.57,0,0,1,4.2-1.08,8.21,8.21,0,0,1,4,1,6.5,6.5,0,0,1,2.68,2.85,10.27,10.27,0,0,1,1,4.68V99.93H84.75V86.12a5.48,5.48,0,0,0-1.28-3.84A4.53,4.53,0,0,0,80,80.9a5.47,5.47,0,0,0-2.71.66,4.71,4.71,0,0,0-1.87,1.93A6.4,6.4,0,0,0,74.71,86.55Z"/><path class="cls-1" d="M102.57,100.39A11,11,0,0,1,96.84,99a9.51,9.51,0,0,1-3.69-4,13.48,13.48,0,0,1-1.3-6.11,13.63,13.63,0,0,1,1.3-6.11,9.91,9.91,0,0,1,3.63-4.12,10,10,0,0,1,5.49-1.48,11,11,0,0,1,3.69.63,8.92,8.92,0,0,1,3.22,2,9.22,9.22,0,0,1,2.24,3.5,14.58,14.58,0,0,1,.83,5.22V90H94.33V86.69H108a6.5,6.5,0,0,0-.71-3.07,5.37,5.37,0,0,0-2-2.12,5.59,5.59,0,0,0-3-.78,5.75,5.75,0,0,0-3.22.9A6.19,6.19,0,0,0,97,84a6.84,6.84,0,0,0-.74,3.13v2.57a8.52,8.52,0,0,0,.8,3.85,5.63,5.63,0,0,0,2.24,2.41,6.64,6.64,0,0,0,3.36.83,6.8,6.8,0,0,0,2.27-.36,4.81,4.81,0,0,0,1.78-1.08,4.66,4.66,0,0,0,1.14-1.77l4.16.75a7.52,7.52,0,0,1-1.79,3.2A8.52,8.52,0,0,1,107,99.63,12.08,12.08,0,0,1,102.57,100.39Z"/><path class="cls-1" d="M4.14,112.86a2.72,2.72,0,0,1-2-.77,2.49,2.49,0,0,1,0-3.69,2.72,2.72,0,0,1,2-.77,2.74,2.74,0,0,1,2,.77,2.51,2.51,0,0,1,0,3.69A2.74,2.74,0,0,1,4.14,112.86Zm-2.22,26V116.34H6.31v22.54Z"/><path class="cls-1" d="M14.45,125.5v13.38H10.06V116.34h4.21V120h.28A6.45,6.45,0,0,1,17,117.13a7.57,7.57,0,0,1,4.2-1.08,8.21,8.21,0,0,1,4,1,6.55,6.55,0,0,1,2.68,2.85,10.33,10.33,0,0,1,.95,4.68v14.34H24.49V125.07a5.44,5.44,0,0,0-1.28-3.83,4.51,4.51,0,0,0-3.51-1.39,5.4,5.4,0,0,0-2.7.66,4.71,4.71,0,0,0-1.87,1.93A6.46,6.46,0,0,0,14.45,125.5Z"/><path class="cls-2" d="M41.75,108.83h5.5l9.57,23.36h.35l9.57-23.36h5.5v30.05H67.93V117.13h-.28l-8.87,21.71H55.2l-8.86-21.72h-.28v21.76H41.75Z"/><path class="cls-2" d="M78.56,112.86a2.71,2.71,0,0,1-2-.77,2.49,2.49,0,0,1,0-3.69,2.71,2.71,0,0,1,2-.77,2.74,2.74,0,0,1,2,.77,2.51,2.51,0,0,1,0,3.69A2.74,2.74,0,0,1,78.56,112.86Zm-2.22,26V116.34h4.39v22.54Z"/><path class="cls-2" d="M88.87,125.5v13.38H84.48V116.34h4.21V120H89a6.45,6.45,0,0,1,2.45-2.88,7.57,7.57,0,0,1,4.2-1.08,8.21,8.21,0,0,1,4,1,6.55,6.55,0,0,1,2.68,2.85,10.33,10.33,0,0,1,1,4.68v14.34H98.91V125.07a5.44,5.44,0,0,0-1.28-3.83,4.51,4.51,0,0,0-3.51-1.39,5.4,5.4,0,0,0-2.7.66,4.71,4.71,0,0,0-1.87,1.93A6.46,6.46,0,0,0,88.87,125.5Z"/><path class="cls-2" d="M121.29,129.54v-13.2h4.41v22.54h-4.32V135h-.23a7.05,7.05,0,0,1-2.49,3,7.22,7.22,0,0,1-4.25,1.2,7.46,7.46,0,0,1-3.84-1,6.58,6.58,0,0,1-2.61-2.85,10.4,10.4,0,0,1-.95-4.68V116.34h4.39v13.81a5.16,5.16,0,0,0,1.28,3.67,4.34,4.34,0,0,0,3.32,1.36,5.38,5.38,0,0,0,2.45-.61,5.18,5.18,0,0,0,2-1.86A5.57,5.57,0,0,0,121.29,129.54Z"/><path class="cls-2" d="M140,116.34v3.52H127.64v-3.52Zm-9-5.4h4.39v21.32a3.87,3.87,0,0,0,.38,1.92,1.94,1.94,0,0,0,1,.86,3.61,3.61,0,0,0,1.33.23,5.18,5.18,0,0,0,.93-.07l.61-.12.79,3.63a8.34,8.34,0,0,1-1.08.3,9.27,9.27,0,0,1-1.76.17,7.72,7.72,0,0,1-3.23-.62,5.49,5.49,0,0,1-2.42-2,5.84,5.84,0,0,1-.93-3.39Z"/><path class="cls-2" d="M152.13,139.34a11,11,0,0,1-5.73-1.43,9.53,9.53,0,0,1-3.7-4,13.48,13.48,0,0,1-1.3-6.11,13.66,13.66,0,0,1,1.3-6.11,9.71,9.71,0,0,1,9.12-5.6,11.11,11.11,0,0,1,3.7.63,9,9,0,0,1,3.21,2,9.36,9.36,0,0,1,2.25,3.5,14.82,14.82,0,0,1,.82,5.22v1.55H143.88v-3.28H157.5a6.54,6.54,0,0,0-.71-3.08,5.36,5.36,0,0,0-2-2.12,5.58,5.58,0,0,0-3-.78,5.66,5.66,0,0,0-3.22.91,6.11,6.11,0,0,0-2.12,2.34,6.85,6.85,0,0,0-.74,3.14v2.57a8.51,8.51,0,0,0,.8,3.84,5.63,5.63,0,0,0,2.24,2.41,6.54,6.54,0,0,0,3.36.83,6.9,6.9,0,0,0,2.28-.36,4.85,4.85,0,0,0,1.77-1.08,4.72,4.72,0,0,0,1.15-1.77l4.15.75a7.5,7.5,0,0,1-1.78,3.2,8.56,8.56,0,0,1-3.22,2.13A11.82,11.82,0,0,1,152.13,139.34Z"/><path class="cls-2" d="M181.43,121.84l-4,.71a5,5,0,0,0-.78-1.45,4,4,0,0,0-1.45-1.13,5.15,5.15,0,0,0-2.28-.44,5.47,5.47,0,0,0-3.11.83,2.47,2.47,0,0,0-1.24,2.13,2.26,2.26,0,0,0,.83,1.82,6.75,6.75,0,0,0,2.7,1.13l3.58.82a9.59,9.59,0,0,1,4.64,2.22,5.2,5.2,0,0,1,1.53,3.89,5.88,5.88,0,0,1-1.17,3.6,7.71,7.71,0,0,1-3.24,2.47,12,12,0,0,1-4.81.9,10.83,10.83,0,0,1-6.18-1.62,6.82,6.82,0,0,1-2.93-4.62l4.24-.64a4.05,4.05,0,0,0,1.63,2.5,5.59,5.59,0,0,0,3.21.84,5.92,5.92,0,0,0,3.45-.9,2.64,2.64,0,0,0,1.29-2.21,2.34,2.34,0,0,0-.78-1.78,5.26,5.26,0,0,0-2.4-1.08l-3.82-.84a9.15,9.15,0,0,1-4.66-2.29,5.51,5.51,0,0,1-1.5-4,5.73,5.73,0,0,1,1.11-3.5,7.49,7.49,0,0,1,3.09-2.34,11.36,11.36,0,0,1,4.5-.84,9.31,9.31,0,0,1,5.75,1.58A7.39,7.39,0,0,1,181.43,121.84Z"/><path class="cls-2" d="M187.42,139.16a2.93,2.93,0,1,1,2.07-5,2.86,2.86,0,0,1,.46,3.53,3.1,3.1,0,0,1-1.06,1.07A2.84,2.84,0,0,1,187.42,139.16Z"/></g></g></svg>