<svg xmlns="http://www.w3.org/2000/svg" viewBox="0 0 123.23 84.67"><defs><style>.cls-1{fill:#221f20;}</style></defs><g id="Layer_2" data-name="Layer 2"><g id="Layer_1-2" data-name="Layer 1"><path class="cls-1" d="M4.69,18.67H1.29V.47H6.84q7.1,0,7.1,5.85A5.2,5.2,0,0,1,12,10.84a8.74,8.74,0,0,1-5.18,1.38H4.69ZM6.84,3.42H4.69V9.27H6.84q3.71,0,3.7-2.95T6.84,3.42Z"/><path class="cls-1" d="M18.24,4a2,2,0,0,1-1.41-.57A1.92,1.92,0,0,1,16.24,2,1.89,1.89,0,0,1,16.83.59a2,2,0,0,1,2.82,0A1.89,1.89,0,0,1,20.24,2a1.91,1.91,0,0,1-.58,1.43A1.92,1.92,0,0,1,18.24,4Zm1.65,14.7H16.61V5.92h3.28Z"/><path class="cls-1" d="M33.4,17.12A5.8,5.8,0,0,1,28.84,19a5.8,5.8,0,0,1-4.56-1.83,6.89,6.89,0,0,1-1.64-4.82,7,7,0,0,1,1.64-4.84,5.81,5.81,0,0,1,4.56-1.84A5.81,5.81,0,0,1,33.4,7.46,7,7,0,0,1,35,12.3,6.94,6.94,0,0,1,33.4,17.12Zm-6.75-1.93a2.8,2.8,0,0,0,4.38,0,5,5,0,0,0,.73-2.9A5,5,0,0,0,31,9.4a2.52,2.52,0,0,0-2.19-1.05,2.48,2.48,0,0,0-2.19,1.06,5,5,0,0,0-.74,2.89A5,5,0,0,0,26.65,15.19Z"/><path class="cls-1" d="M41.06,18.67H37.79V5.92h2.8V8.35a4.59,4.59,0,0,1,4.3-2.73A3.82,3.82,0,0,1,48,6.87,5.5,5.5,0,0,1,49,10.52v8.15H45.76V11.3c0-1.8-.63-2.7-1.9-2.7a2.43,2.43,0,0,0-1.8.67,3.38,3.38,0,0,0-.9,1.7,10.53,10.53,0,0,0-.1,1.78Z"/><path class="cls-1" d="M57.66,19a5.81,5.81,0,0,1-4.58-1.83,7.06,7.06,0,0,1-1.62-4.84,7.06,7.06,0,0,1,1.62-4.84,5.82,5.82,0,0,1,4.58-1.84,5.24,5.24,0,0,1,4.44,2,9,9,0,0,1,1.48,5.53H54.63a4.43,4.43,0,0,0,1,2.46,2.57,2.57,0,0,0,2.06.91,2.92,2.92,0,0,0,2.7-1.77l2.9.72A5.6,5.6,0,0,1,57.66,19Zm0-10.87a2.71,2.71,0,0,0-2,.76,3.86,3.86,0,0,0-1,2.19h5.7a3.66,3.66,0,0,0-.87-2.19A2.43,2.43,0,0,0,57.66,8.1Z"/><path class="cls-1" d="M71.58,19A5.79,5.79,0,0,1,67,17.14a7,7,0,0,1-1.63-4.84A7,7,0,0,1,67,7.46a5.8,5.8,0,0,1,4.57-1.84,5.23,5.23,0,0,1,4.44,2,9,9,0,0,1,1.49,5.53h-9a4.43,4.43,0,0,0,1,2.46,2.59,2.59,0,0,0,2.06.91,2.9,2.9,0,0,0,2.7-1.77l2.9.72A5.6,5.6,0,0,1,71.58,19Zm0-10.87a2.67,2.67,0,0,0-2,.76,3.8,3.8,0,0,0-1,2.19h5.7a3.61,3.61,0,0,0-.88-2.19A2.43,2.43,0,0,0,71.58,8.1Z"/><path class="cls-1" d="M83.53,18.67H80.26V5.92H83v2.7q1-2.92,3.6-2.92A4.69,4.69,0,0,1,88,5.92l-.58,3.13a3.63,3.63,0,0,0-1.12-.2,2.36,2.36,0,0,0-1.65.61,3.19,3.19,0,0,0-.93,1.66,12.64,12.64,0,0,0-.2,2.25Z"/><path class="cls-1" d="M91.83,4a2,2,0,0,1-1.41-.57A1.92,1.92,0,0,1,89.83,2,1.89,1.89,0,0,1,90.42.59a2,2,0,0,1,2.82,0A1.89,1.89,0,0,1,93.83,2a1.91,1.91,0,0,1-.58,1.43A1.92,1.92,0,0,1,91.83,4Zm1.65,14.7H90.21V5.92h3.27Z"/><path class="cls-1" d="M100.45,18.67H97.18V5.92H100V8.35a4.59,4.59,0,0,1,4.3-2.73,3.84,3.84,0,0,1,3.09,1.25,5.55,5.55,0,0,1,1.06,3.65v8.15h-3.28V11.3c0-1.8-.63-2.7-1.9-2.7a2.43,2.43,0,0,0-1.8.67,3.38,3.38,0,0,0-.9,1.7,11.73,11.73,0,0,0-.1,1.78Z"/><path class="cls-1" d="M116.48,14.82a5.29,5.29,0,0,1-1.2-.1l-.63.7a1.18,1.18,0,0,0-.35.63q0,.3.45.3h3.6a5.46,5.46,0,0,1,3.59,1,3.14,3.14,0,0,1,1.16,2.51,4,4,0,0,1-1.66,3.27,7.91,7.91,0,0,1-4.94,1.3q-6.07,0-6.6-3.6L113,20.2a1.56,1.56,0,0,0,.88,1.41,5.32,5.32,0,0,0,2.59.51,4.53,4.53,0,0,0,2.46-.55,1.55,1.55,0,0,0,.87-1.3c0-.85-.65-1.27-1.93-1.27h-3.7a3.11,3.11,0,0,1-2.15-.67,2.31,2.31,0,0,1-.75-1.83,4,4,0,0,1,1.33-2.5l.27-.3a4.35,4.35,0,0,1-1.8-3.53,4,4,0,0,1,1.54-3.28,5.79,5.79,0,0,1,3.84-1.27,5.72,5.72,0,0,1,2.9.75l1.67-1.87,2.18,1.55-2,2.25a3.66,3.66,0,0,1,.62,2,4,4,0,0,1-1.54,3.25A5.83,5.83,0,0,1,116.48,14.82Zm-1.6-3a2.13,2.13,0,0,0,1.6.65,2.16,2.16,0,0,0,1.6-.65,2.2,2.2,0,0,0,.65-1.62,2.24,2.24,0,0,0-.65-1.63,2.2,2.2,0,0,0-1.6-.65,2.17,2.17,0,0,0-1.6.65,2.2,2.2,0,0,0-.65,1.63A2.16,2.16,0,0,0,114.88,11.87Z"/><path class="cls-1" d="M4.29,49.41H1V36.66H3.74v2.7q1-2.93,3.6-2.92a4.69,4.69,0,0,1,1.43.22l-.58,3.13a3.36,3.36,0,0,0-1.12-.2,2.36,2.36,0,0,0-1.65.61,3.19,3.19,0,0,0-.93,1.66,12.64,12.64,0,0,0-.2,2.25Z"/><path class="cls-1" d="M20.28,47.86a5.82,5.82,0,0,1-4.57,1.83,5.81,5.81,0,0,1-4.56-1.83A7,7,0,0,1,9.52,43a7,7,0,0,1,1.63-4.84,5.79,5.79,0,0,1,4.56-1.84,5.79,5.79,0,0,1,4.57,1.84A7,7,0,0,1,21.91,43,7,7,0,0,1,20.28,47.86Zm-6.75-1.94A2.48,2.48,0,0,0,15.71,47a2.5,2.5,0,0,0,2.19-1.05,5,5,0,0,0,.74-2.9,5,5,0,0,0-.74-2.9,2.5,2.5,0,0,0-2.19-1,2.48,2.48,0,0,0-2.18,1.06A5,5,0,0,0,12.79,43,5,5,0,0,0,13.53,45.92Z"/><path class="cls-1" d="M27.64,49.41h-3V31.21h3.28v7.13a4.43,4.43,0,0,1,3.82-2,4.44,4.44,0,0,1,3.85,1.81A8.17,8.17,0,0,1,36.91,43a8.11,8.11,0,0,1-1.3,4.85,4.46,4.46,0,0,1-3.85,1.8,4.38,4.38,0,0,1-4.12-2.43Zm3.22-10.32a2.52,2.52,0,0,0-2.17,1,4.25,4.25,0,0,0-.75,2.61v.5A4.55,4.55,0,0,0,28.68,46a2.53,2.53,0,0,0,2.18,1,2.35,2.35,0,0,0,2.07-1.07A5.16,5.16,0,0,0,33.64,43a5.17,5.17,0,0,0-.71-2.89A2.34,2.34,0,0,0,30.86,39.09Z"/><path class="cls-1" d="M49.57,47.86A5.8,5.8,0,0,1,45,49.69a5.8,5.8,0,0,1-4.56-1.83A7,7,0,0,1,38.81,43a7,7,0,0,1,1.64-4.84A5.77,5.77,0,0,1,45,36.36a5.77,5.77,0,0,1,4.56,1.84A7,7,0,0,1,51.21,43,7,7,0,0,1,49.57,47.86Zm-6.75-1.94a2.79,2.79,0,0,0,4.38,0,5,5,0,0,0,.74-2.9,5,5,0,0,0-.74-2.9,2.8,2.8,0,0,0-4.38,0A5,5,0,0,0,42.09,43,5,5,0,0,0,42.82,45.92Z"/><path class="cls-1" d="M60.83,39.36H57.58v5.78A2,2,0,0,0,58,46.49a1.65,1.65,0,0,0,1.28.5,4.17,4.17,0,0,0,1.5-.3l.27,2.69a12.18,12.18,0,0,1-2.6.31A3.92,3.92,0,0,1,55.3,48.5a5.79,5.79,0,0,1-1-3.74v-5.4H52.26v-2.7h2.05V33.54l3.27-.65v3.77h3.25Z"/><path class="cls-1" d="M65.33,34.71a2,2,0,0,1-1.41-3.39,1.92,1.92,0,0,1,1.41-.58,2,2,0,0,1,1.42.58,1.92,1.92,0,0,1,.58,1.39,1.95,1.95,0,0,1-2,2ZM67,49.41H63.71V36.66H67Z"/><path class="cls-1" d="M75.93,49.69a5.82,5.82,0,0,1-4.57-1.82A6.92,6.92,0,0,1,69.73,43a7,7,0,0,1,1.63-4.84,6.44,6.44,0,0,1,8.08-.76,4.43,4.43,0,0,1,1.82,2.62l-2.85.6a2.76,2.76,0,0,0-4.66-.51A4.93,4.93,0,0,0,73,43a4.92,4.92,0,0,0,.74,2.9A2.49,2.49,0,0,0,75.93,47a2.71,2.71,0,0,0,2.55-1.63l2.8.6a4.74,4.74,0,0,1-1.85,2.66A5.67,5.67,0,0,1,75.93,49.69Z"/><path class="cls-1" d="M87.81,49.71A8,8,0,0,1,82.53,48l1.33-2.08a5.59,5.59,0,0,0,1.77.88,7.18,7.18,0,0,0,2.23.37c1.31,0,2-.42,2-1.27a1,1,0,0,0-.29-.72,1.86,1.86,0,0,0-.61-.42l-1.05-.39L87,44.09a8.87,8.87,0,0,1-3-1.47,3,3,0,0,1-1-2.46,3.24,3.24,0,0,1,1.39-2.84,6.06,6.06,0,0,1,3.54-1,7,7,0,0,1,4.52,1.45l-1.32,2a4.78,4.78,0,0,0-3-1,2.6,2.6,0,0,0-1.35.3.92.92,0,0,0-.5.83q0,.9,1.92,1.47l.85.28a9.42,9.42,0,0,1,3,1.45,2.93,2.93,0,0,1,1,2.45,3.38,3.38,0,0,1-1.54,3A6.52,6.52,0,0,1,87.81,49.71Z"/><path class="cls-1" d="M102.68,34.71a2,2,0,0,1-1.41-.57,2,2,0,0,1,2.82-2.82,2,2,0,0,1-1.41,3.39Zm1.65,14.7h-3.28V36.66h3.28Z"/><path class="cls-1" d="M111.3,49.41H108V36.66h2.8v2.43a4.59,4.59,0,0,1,4.3-2.73,3.81,3.81,0,0,1,3.08,1.25,5.5,5.5,0,0,1,1.07,3.65v8.15H116V42c0-1.8-.63-2.7-1.9-2.7a2.43,2.43,0,0,0-1.8.67,3.38,3.38,0,0,0-.9,1.7,11.63,11.63,0,0,0-.1,1.78Z"/><path class="cls-1" d="M2.92,78a1.1,1.1,0,0,0,.06,1,.87.87,0,0,0,.71.32,1.53,1.53,0,0,0,1.06-.5,4.4,4.4,0,0,0,1-1.75l.38-1h.47l-.5,1.5a4.38,4.38,0,0,1-1.45,2.22,3.64,3.64,0,0,1-2.2.68A2.58,2.58,0,0,1,.73,80,2.07,2.07,0,0,1,0,78.63a4.65,4.65,0,0,1,.21-2L4,63.5c.6,0,1.16,0,1.68-.1a9.65,9.65,0,0,0,1.49-.25ZM9,67.25l-.07.5H.54l.13-.5Z"/><path class="cls-1" d="M11.49,80.15H8.42l3-10.78a2.42,2.42,0,0,0,.14-1.05.4.4,0,0,0-.45-.3,1.15,1.15,0,0,0-.87.48,5.56,5.56,0,0,0-.82,1.67L9,71.35H8.52l.65-1.88A4.43,4.43,0,0,1,10,67.91a3,3,0,0,1,1.15-.79,3.73,3.73,0,0,1,1.27-.22,1.86,1.86,0,0,1,1.19.32,1.45,1.45,0,0,1,.5.85,3.56,3.56,0,0,1,0,1.14A7.58,7.58,0,0,1,14,70.4Zm6.4-12.68a2,2,0,0,0-1.13.39,5.29,5.29,0,0,0-1.2,1.24,13.75,13.75,0,0,0-1.26,2.24c-.42.92-.86,2-1.31,3.37s-.9,2.89-1.35,4.69l.6-3.33c.52-1.75,1-3.21,1.46-4.38a17.63,17.63,0,0,1,1.35-2.83,4.42,4.42,0,0,1,1.41-1.51,3.13,3.13,0,0,1,1.63-.45,1.81,1.81,0,0,1,1.39.52,1.87,1.87,0,0,1,.48,1.3,2.37,2.37,0,0,1-.3,1.17,2.46,2.46,0,0,1-.78.85,2.12,2.12,0,0,1-1.12.31,1.4,1.4,0,0,1-1-.33,1.21,1.21,0,0,1-.37-1,2.12,2.12,0,0,1,.25-1,2.65,2.65,0,0,1,.65-.76,2.51,2.51,0,0,1,.88-.44.4.4,0,0,0-.13-.07A.43.43,0,0,0,17.89,67.47Z"/><path class="cls-1" d="M22.86,79.35a1.64,1.64,0,0,0,1-.54,7.48,7.48,0,0,0,1.17-1.51A15.33,15.33,0,0,0,26.21,75a20.43,20.43,0,0,0,.95-3l-.52,2.7a16.43,16.43,0,0,1-1.54,3.4A5.74,5.74,0,0,1,23.4,80a3.49,3.49,0,0,1-1.84.55,2.38,2.38,0,0,1-2-.84,3.57,3.57,0,0,1-.65-2.24,9.73,9.73,0,0,1,.43-2.73,14.09,14.09,0,0,1,1.19-2.83,13.69,13.69,0,0,1,1.73-2.5,9.27,9.27,0,0,1,2.08-1.79,4.14,4.14,0,0,1,2.2-.67,1.46,1.46,0,0,1,1.3.71,3.19,3.19,0,0,1,.22,2.16l-.27.15a3,3,0,0,0-.09-1.65.88.88,0,0,0-.86-.6,1.81,1.81,0,0,0-1.21.6,7.89,7.89,0,0,0-1.27,1.63,15.66,15.66,0,0,0-1.13,2.32,16.52,16.52,0,0,0-.82,2.7,13,13,0,0,0-.3,2.73A3.37,3.37,0,0,0,22.3,79,.6.6,0,0,0,22.86,79.35Zm5.63-12.1c.6,0,1.16,0,1.69-.1a10.57,10.57,0,0,0,1.51-.25L28.46,78a3.15,3.15,0,0,0-.13.61,1,1,0,0,0,.05.52c.05.15.19.22.41.22a1.18,1.18,0,0,0,.82-.43,4.73,4.73,0,0,0,.88-1.72l.37-1.13h.48l-.63,1.83a4.41,4.41,0,0,1-.87,1.59,3.05,3.05,0,0,1-1.11.78,3.29,3.29,0,0,1-1.17.23,1.9,1.9,0,0,1-1.7-.75,2.25,2.25,0,0,1-.25-1.35,10.05,10.05,0,0,1,.33-1.73Z"/><path class="cls-1" d="M36.14,80.15H33.06l3-10.78c.06-.23.11-.45.15-.65a.9.9,0,0,0,0-.5c-.06-.13-.2-.2-.44-.2a1.13,1.13,0,0,0-.86.47,5.93,5.93,0,0,0-.84,1.68l-.42,1.18h-.48l.65-1.88a3.93,3.93,0,0,1,1.35-2A3.2,3.2,0,0,1,37,66.9a2.13,2.13,0,0,1,1.26.32,1.45,1.45,0,0,1,.56.84,3.23,3.23,0,0,1,0,1.13,10.26,10.26,0,0,1-.22,1.21Zm.92-4.55a37,37,0,0,1,1.78-4.25,14.06,14.06,0,0,1,1.65-2.66,4.82,4.82,0,0,1,1.65-1.39,4,4,0,0,1,1.77-.4,2.22,2.22,0,0,1,1.71.54,1.91,1.91,0,0,1,.48,1.4,6,6,0,0,1-.34,1.83L43.31,78a1.8,1.8,0,0,0-.12,1,.45.45,0,0,0,.5.33,1.13,1.13,0,0,0,.78-.42,5.31,5.31,0,0,0,.89-1.73l.4-1.12h.48l-.63,1.82a4,4,0,0,1-.89,1.6,3.07,3.07,0,0,1-1.15.77,3.67,3.67,0,0,1-1.21.21,2.68,2.68,0,0,1-1.11-.21,1.67,1.67,0,0,1-.71-.59,1.91,1.91,0,0,1-.28-1.23,7.42,7.42,0,0,1,.4-1.8l2.28-6.87a8,8,0,0,0,.2-.81,1.34,1.34,0,0,0,0-.7c-.07-.2-.24-.29-.52-.29a1.77,1.77,0,0,0-1.15.59,8.49,8.49,0,0,0-1.3,1.63,23.45,23.45,0,0,0-1.35,2.45c-.45.94-.88,2-1.29,3s-.77,2.22-1.09,3.39Z"/><path class="cls-1" d="M49.14,79.77a1.92,1.92,0,0,0,.42.16,2.1,2.1,0,0,0,.63.07,2.18,2.18,0,0,0,1.58-.62,2.22,2.22,0,0,0,.64-1.71,4.17,4.17,0,0,0-.34-1.62,10.12,10.12,0,0,0-1-1.83c-.4-.58-.76-1.15-1.09-1.72a3.91,3.91,0,0,1-.48-2A3.39,3.39,0,0,1,50,68.66a3.66,3.66,0,0,1,1.5-1.29,5.24,5.24,0,0,1,2.28-.47,7.26,7.26,0,0,1,1.67.2,2.76,2.76,0,0,1,1.35.72,2.28,2.28,0,0,1,.37,2.27,1.77,1.77,0,0,1-.45.66,1.14,1.14,0,0,1-.8.27,1.07,1.07,0,0,1-.87-.41,1.59,1.59,0,0,1-.35-1.06,2.81,2.81,0,0,1,.21-1.08,3.69,3.69,0,0,1,.51-.87,2,2,0,0,0-1-.2A1.94,1.94,0,0,0,53,68a2.31,2.31,0,0,0-.54,1.63,3,3,0,0,0,.18,1,5.75,5.75,0,0,0,.53,1c.22.34.48.73.76,1.18a16.9,16.9,0,0,1,1.1,2,4.29,4.29,0,0,1,.4,1.81,3.46,3.46,0,0,1-.59,2A4,4,0,0,1,53.21,80a5.44,5.44,0,0,1-2.4.5A6.69,6.69,0,0,1,49,80.24a3.21,3.21,0,0,1-1.45-.87,2.29,2.29,0,0,1-.56-1.65,1.93,1.93,0,0,1,.31-1.06,1.06,1.06,0,0,1,1-.49,1.09,1.09,0,0,1,1,.53,2.48,2.48,0,0,1,.32,1.3,3.62,3.62,0,0,1-.14,1C49.28,79.32,49.2,79.57,49.14,79.77Z"/><path class="cls-1" d="M62.91,63.62c.58,0,1.14-.12,1.69-.21A9,9,0,0,0,66.13,63L60.71,82.15c-.23.8-.17,1.33.2,1.6a3.13,3.13,0,0,0,1.77.4l-.15.52-1.6-.06c-.68,0-1.4,0-2.15,0s-1.24,0-1.87,0l-1.4.06.15-.52a2,2,0,0,0,1.3-.34,2.48,2.48,0,0,0,.65-1.21Zm-5,7.7c.64-.63,1.22-1.27,1.77-1.91a16.34,16.34,0,0,0,1.58-2.27,21.86,21.86,0,0,0,1.55-3.32l.08.4a15.89,15.89,0,0,1-1.25,3,14.73,14.73,0,0,1-1.59,2.36,23.52,23.52,0,0,1-1.86,2ZM67,68.05a1.8,1.8,0,0,0-1.21.72,10.2,10.2,0,0,0-1.34,2,23,23,0,0,0-1.26,2.84,29.55,29.55,0,0,0-1,3.3l.47-2.6A28.47,28.47,0,0,1,64.38,70a8,8,0,0,1,1.8-2.37,3.1,3.1,0,0,1,2-.75,2.62,2.62,0,0,1,2.16.95,4.39,4.39,0,0,1,.76,2.8,10.67,10.67,0,0,1-.32,2.47,14,14,0,0,1-.94,2.63,11.29,11.29,0,0,1-1.51,2.38,7.18,7.18,0,0,1-2.06,1.73,5.26,5.26,0,0,1-2.59.64,2.94,2.94,0,0,1-1.43-.35,2.23,2.23,0,0,1-.92-1l.2-.42a2.28,2.28,0,0,0,.65.82,1.35,1.35,0,0,0,.82.25,2.37,2.37,0,0,0,1.52-.61,6.36,6.36,0,0,0,1.35-1.65,14.53,14.53,0,0,0,1.08-2.31,16,16,0,0,0,.74-2.6,12.38,12.38,0,0,0,.26-2.48,3.78,3.78,0,0,0-.25-1.66A.76.76,0,0,0,67,68.05Z"/><path class="cls-1" d="M75.13,78A1.92,1.92,0,0,0,75,79a.47.47,0,0,0,.49.33,1.09,1.09,0,0,0,.76-.43,5.37,5.37,0,0,0,.89-1.72l.4-1.12h.48l-.63,1.82a4.39,4.39,0,0,1-.87,1.57,3,3,0,0,1-1.13.78,3.47,3.47,0,0,1-1.22.23,2.38,2.38,0,0,1-1.28-.3,1.58,1.58,0,0,1-.65-.83,3.1,3.1,0,0,1-.12-1.21,6.35,6.35,0,0,1,.3-1.49l4-13.2a1.41,1.41,0,0,0-.05-1.25c-.2-.26-.71-.4-1.52-.4L75,61.3a15.45,15.45,0,0,0,2.9-.29,13.36,13.36,0,0,0,2.45-.74Z"/><path class="cls-1" d="M83.26,79.35a1.6,1.6,0,0,0,1-.54,7.48,7.48,0,0,0,1.18-1.51A16.33,16.33,0,0,0,86.61,75a23.24,23.24,0,0,0,1-3L87,74.72a15.44,15.44,0,0,1-1.54,3.4A5.63,5.63,0,0,1,83.79,80,3.48,3.48,0,0,1,82,80.5a2.37,2.37,0,0,1-2-.84,3.51,3.51,0,0,1-.65-2.24,9.7,9.7,0,0,1,.42-2.73,14.69,14.69,0,0,1,1.19-2.83,14.24,14.24,0,0,1,1.74-2.5,9.23,9.23,0,0,1,2.07-1.79,4.17,4.17,0,0,1,2.2-.67,1.45,1.45,0,0,1,1.3.71,3.18,3.18,0,0,1,.23,2.16l-.28.15a2.89,2.89,0,0,0-.09-1.65.88.88,0,0,0-.86-.6,1.83,1.83,0,0,0-1.21.6,7.55,7.55,0,0,0-1.26,1.63,14.74,14.74,0,0,0-1.14,2.32,17.53,17.53,0,0,0-.81,2.7,13,13,0,0,0-.3,2.73A3.41,3.41,0,0,0,82.69,79,.61.61,0,0,0,83.26,79.35Zm5.62-12.1c.6,0,1.16,0,1.69-.1a10.34,10.34,0,0,0,1.51-.25L88.86,78a2.57,2.57,0,0,0-.14.61,1,1,0,0,0,0,.52c.06.15.19.22.41.22a1.2,1.2,0,0,0,.83-.43,4.91,4.91,0,0,0,.87-1.72l.38-1.13h.47l-.62,1.83a4.57,4.57,0,0,1-.88,1.59,3.05,3.05,0,0,1-1.11.78A3.24,3.24,0,0,1,88,80.5a1.89,1.89,0,0,1-1.7-.75A2.18,2.18,0,0,1,86,78.4a10,10,0,0,1,.32-1.73Z"/><path class="cls-1" d="M96.53,80.15H93.46l3-10.78a4.6,4.6,0,0,0,.15-.65.9.9,0,0,0,0-.5c-.06-.13-.2-.2-.44-.2a1.13,1.13,0,0,0-.86.47,5.71,5.71,0,0,0-.83,1.68L94,71.35h-.47l.65-1.88a3.87,3.87,0,0,1,1.35-2,3.17,3.17,0,0,1,1.82-.55,2.13,2.13,0,0,1,1.26.32,1.45,1.45,0,0,1,.56.84,3,3,0,0,1,0,1.13A10.26,10.26,0,0,1,99,70.4Zm.92-4.55a37,37,0,0,1,1.78-4.25,15.17,15.17,0,0,1,1.65-2.66,4.82,4.82,0,0,1,1.65-1.39,4.08,4.08,0,0,1,1.77-.4,2.26,2.26,0,0,1,1.72.54,2,2,0,0,1,.47,1.4,6,6,0,0,1-.34,1.83L103.7,78a1.8,1.8,0,0,0-.12,1,.46.46,0,0,0,.5.33,1.17,1.17,0,0,0,.79-.42,5.33,5.33,0,0,0,.88-1.73l.4-1.12h.48L106,77.92a4.14,4.14,0,0,1-.88,1.6,3.14,3.14,0,0,1-1.15.77,3.77,3.77,0,0,1-1.22.21,2.68,2.68,0,0,1-1.11-.21,1.74,1.74,0,0,1-.71-.59,1.91,1.91,0,0,1-.28-1.23,7.93,7.93,0,0,1,.4-1.8l2.28-6.87a8,8,0,0,0,.2-.81,1.34,1.34,0,0,0,0-.7c-.06-.2-.24-.29-.52-.29a1.79,1.79,0,0,0-1.15.59,8.49,8.49,0,0,0-1.3,1.63,23.45,23.45,0,0,0-1.35,2.45c-.45.94-.88,2-1.29,3s-.77,2.22-1.09,3.39Z"/><path class="cls-1" d="M111.55,78a1.12,1.12,0,0,0,.07,1,.87.87,0,0,0,.71.32,1.55,1.55,0,0,0,1.06-.5,4.4,4.4,0,0,0,1-1.75l.37-1h.48l-.5,1.5a4.44,4.44,0,0,1-1.45,2.22,3.64,3.64,0,0,1-2.2.68,2.58,2.58,0,0,1-1.71-.5,2,2,0,0,1-.7-1.37,4.65,4.65,0,0,1,.21-2l3.77-13.17c.6,0,1.17,0,1.69-.1a9.65,9.65,0,0,0,1.49-.25Zm6.08-10.77-.08.5h-8.37l.12-.5Z"/></g></g></svg>