<svg xmlns="http://www.w3.org/2000/svg" viewBox="0 0 118.19 114.93"><defs><style>.cls-1{fill:#221f20;}</style></defs><g id="Layer_2" data-name="Layer 2"><g id="Layer_1-2" data-name="Layer 1"><path class="cls-1" d="M3.52,18.2H0L5.77,0h4.5l5.78,18.2H12.52l-1.22-4H4.75ZM8,3.7,5.65,11.37H10.4Z"/><path class="cls-1" d="M25,8.15H21.72v5.77a1.93,1.93,0,0,0,.45,1.35,1.62,1.62,0,0,0,1.28.5,4.17,4.17,0,0,0,1.5-.3l.27,2.7a12.14,12.14,0,0,1-2.6.3,3.9,3.9,0,0,1-3.18-1.18,5.81,5.81,0,0,1-1-3.74V8.15H16.4V5.45h2.05V2.33l3.27-.66V5.45H25Z"/><path class="cls-1" d="M40.5,8.15H37.25v5.77a1.93,1.93,0,0,0,.45,1.35,1.59,1.59,0,0,0,1.27.5,4.17,4.17,0,0,0,1.5-.3l.28,2.7a12.29,12.29,0,0,1-2.6.3A3.93,3.93,0,0,1,35,17.29a5.81,5.81,0,0,1-1-3.74V8.15h-2V5.45h2V2.33l3.28-.66V5.45H40.5Z"/><path class="cls-1" d="M46.64,18.2H43.37V0h3.27V7.3a4.29,4.29,0,0,1,3.83-2.15A3.84,3.84,0,0,1,53.56,6.4a5.54,5.54,0,0,1,1.06,3.65V18.2H51.34V10.82c0-1.8-.63-2.7-1.9-2.7a2.44,2.44,0,0,0-1.8.68,3.38,3.38,0,0,0-.9,1.7,5,5,0,0,0-.1,1.07Z"/><path class="cls-1" d="M63.24,18.5a5.77,5.77,0,0,1-4.57-1.84A7,7,0,0,1,57,11.82,7,7,0,0,1,58.67,7a5.77,5.77,0,0,1,4.57-1.84A5.23,5.23,0,0,1,67.68,7.1a9,9,0,0,1,1.49,5.52h-9a4.43,4.43,0,0,0,1,2.47,2.62,2.62,0,0,0,2.06.91,2.9,2.9,0,0,0,2.7-1.78l2.9.73A5.6,5.6,0,0,1,63.24,18.5Zm0-10.88a2.68,2.68,0,0,0-2,.77,3.77,3.77,0,0,0-1,2.18H66a3.58,3.58,0,0,0-.88-2.18A2.44,2.44,0,0,0,63.24,7.62Z"/><path class="cls-1" d="M5.72,48.94H2.45v-10H.38v-2.7H2.45v-.73q0-5,4.52-5a6.21,6.21,0,0,1,3.18.8l-1,2.52a3.38,3.38,0,0,0-1.77-.52,1.49,1.49,0,0,0-1.23.55,2.5,2.5,0,0,0-.45,1.62v.73h3.2v2.7H5.72Z"/><path class="cls-1" d="M20.91,47.39a5.83,5.83,0,0,1-4.56,1.82,5.83,5.83,0,0,1-4.56-1.82,6.93,6.93,0,0,1-1.64-4.83,7,7,0,0,1,1.64-4.84,5.8,5.8,0,0,1,4.56-1.83,5.8,5.8,0,0,1,4.56,1.83,7,7,0,0,1,1.64,4.84A7,7,0,0,1,20.91,47.39Zm-6.75-1.94a2.48,2.48,0,0,0,2.19,1.06,2.52,2.52,0,0,0,2.19-1,5,5,0,0,0,.73-2.9,5,5,0,0,0-.73-2.9,2.52,2.52,0,0,0-2.19-1,2.51,2.51,0,0,0-2.19,1.06,5,5,0,0,0-.74,2.89A5,5,0,0,0,14.16,45.45Z"/><path class="cls-1" d="M28.57,48.94H25.3V36.19H28v2.7Q29,36,31.62,36a4.7,4.7,0,0,1,1.43.23l-.58,3.12a3.63,3.63,0,0,0-1.12-.2,2.4,2.4,0,0,0-1.65.61,3.22,3.22,0,0,0-.93,1.67,12.47,12.47,0,0,0-.2,2.25Z"/><path class="cls-1" d="M40,49.24a5.81,5.81,0,0,1-4.58-1.84,7.06,7.06,0,0,1-1.62-4.84,7.06,7.06,0,0,1,1.62-4.84A5.8,5.8,0,0,1,40,35.89a5.22,5.22,0,0,1,4.43,2,9,9,0,0,1,1.49,5.52H37a4.5,4.5,0,0,0,1,2.46,2.62,2.62,0,0,0,2.07.92A2.91,2.91,0,0,0,42.69,45l2.9.73A5.61,5.61,0,0,1,40,49.24Zm0-10.88a2.75,2.75,0,0,0-2,.76,3.8,3.8,0,0,0-1,2.19h5.7a3.66,3.66,0,0,0-.87-2.19A2.48,2.48,0,0,0,40,38.36Z"/><path class="cls-1" d="M52.39,48.94H49.12v-10H47v-2.7h2.08v-.73q0-5,4.52-5a6.24,6.24,0,0,1,3.18.8l-1,2.52a3.38,3.38,0,0,0-1.77-.52,1.49,1.49,0,0,0-1.23.55,2.5,2.5,0,0,0-.45,1.62v.73h3.2v2.7h-3.2Z"/><path class="cls-1" d="M61.54,48.94H58.27V36.19H61v2.7Q62,36,64.59,36a4.65,4.65,0,0,1,1.43.23l-.58,3.12a3.63,3.63,0,0,0-1.12-.2,2.4,2.4,0,0,0-1.65.61,3.22,3.22,0,0,0-.93,1.67,12.47,12.47,0,0,0-.2,2.25Z"/><path class="cls-1" d="M77.53,47.39a6.64,6.64,0,0,1-9.13,0,7,7,0,0,1-1.63-4.83,7,7,0,0,1,1.63-4.84,6.61,6.61,0,0,1,9.13,0,7,7,0,0,1,1.64,4.84A7,7,0,0,1,77.53,47.39Zm-6.75-1.94a2.79,2.79,0,0,0,4.37,0,4.92,4.92,0,0,0,.74-2.9,4.92,4.92,0,0,0-.74-2.9,2.79,2.79,0,0,0-4.37,0A5,5,0,0,0,70,42.56,5,5,0,0,0,70.78,45.45Z"/><path class="cls-1" d="M85.19,48.94H81.92V36.19h2.79v2.42A4.62,4.62,0,0,1,89,35.89a3.81,3.81,0,0,1,3.09,1.25,5.48,5.48,0,0,1,1.06,3.65v8.15H89.89V41.56c0-1.8-.63-2.7-1.9-2.7a2.44,2.44,0,0,0-1.8.68,3.34,3.34,0,0,0-.9,1.7,10.39,10.39,0,0,0-.1,1.77Z"/><path class="cls-1" d="M103.74,38.89h-3.25v5.77a1.93,1.93,0,0,0,.45,1.35,1.63,1.63,0,0,0,1.27.5,4.09,4.09,0,0,0,1.5-.3l.28,2.7a12.29,12.29,0,0,1-2.6.3A3.93,3.93,0,0,1,98.2,48a5.76,5.76,0,0,1-1-3.73v-5.4h-2v-2.7h2V33.06l3.28-.65v3.78h3.25Z"/><path class="cls-1" d="M11.39,78.12A5.83,5.83,0,0,1,6.82,80a5.8,5.8,0,0,1-4.56-1.83A6.93,6.93,0,0,1,.63,73.3a7,7,0,0,1,1.63-4.84,5.81,5.81,0,0,1,4.56-1.84,5.84,5.84,0,0,1,4.57,1.84A7,7,0,0,1,13,73.3,6.93,6.93,0,0,1,11.39,78.12ZM4.64,76.19a2.5,2.5,0,0,0,2.18,1.06A2.5,2.5,0,0,0,9,76.2a6.05,6.05,0,0,0,0-5.8,2.5,2.5,0,0,0-2.19-1.05,2.48,2.48,0,0,0-2.18,1.06,6,6,0,0,0,0,5.78Z"/><path class="cls-1" d="M19.5,79.67H16.22v-10H14.15v-2.7h2.07V66.2q0-5,4.53-5a6.3,6.3,0,0,1,3.17.8l-1,2.53A3.46,3.46,0,0,0,21.17,64a1.52,1.52,0,0,0-1.22.55,2.53,2.53,0,0,0-.45,1.63v.72h3.2v2.7H19.5Z"/><path class="cls-1" d="M32.65,79.67H29.17l4-6.52-3.85-6.23H33l2.38,4,2.35-4h3.44L37.4,73.07l4,6.6H37.79l-2.57-4.32Z"/><path class="cls-1" d="M48.09,80a5.79,5.79,0,0,1-4.57-1.83,8,8,0,0,1,0-9.68,5.8,5.8,0,0,1,4.57-1.84,5.23,5.23,0,0,1,4.44,1.95A9,9,0,0,1,54,74.1h-9a4.5,4.5,0,0,0,1,2.46,2.59,2.59,0,0,0,2.06.91,2.9,2.9,0,0,0,2.7-1.77l2.9.72A5.6,5.6,0,0,1,48.09,80Zm0-10.87a2.68,2.68,0,0,0-2,.76,3.8,3.8,0,0,0-1,2.19h5.7a3.61,3.61,0,0,0-.88-2.19A2.43,2.43,0,0,0,48.09,69.1Z"/><path class="cls-1" d="M60,79.67H56.77V66.92h2.8v2.43a4.59,4.59,0,0,1,4.3-2.73A3.81,3.81,0,0,1,67,67.87,5.5,5.5,0,0,1,68,71.52v8.15H64.74V72.3c0-1.8-.63-2.7-1.9-2.7a2.43,2.43,0,0,0-1.8.67,3.38,3.38,0,0,0-.9,1.7,11.73,11.73,0,0,0-.1,1.78Z"/><path class="cls-1" d="M81.2,78.12a6.6,6.6,0,0,1-9.12,0,6.94,6.94,0,0,1-1.64-4.82,7,7,0,0,1,1.64-4.84,6.57,6.57,0,0,1,9.12,0,7,7,0,0,1,1.64,4.84A6.94,6.94,0,0,1,81.2,78.12Zm-6.75-1.93a2.8,2.8,0,0,0,4.38,0,6.13,6.13,0,0,0,0-5.8,2.8,2.8,0,0,0-4.38,0,6.09,6.09,0,0,0,0,5.78Z"/><path class="cls-1" d="M90.89,74.57H85.24V72h5.65Z"/><path class="cls-1" d="M3.47,108.29a1.11,1.11,0,0,0,.07,1,.84.84,0,0,0,.71.32,1.58,1.58,0,0,0,1.06-.49,4.55,4.55,0,0,0,1-1.75l.37-1h.48l-.5,1.5a4.38,4.38,0,0,1-1.45,2.22,3.58,3.58,0,0,1-2.2.68,2.58,2.58,0,0,1-1.71-.5,2,2,0,0,1-.7-1.36,4.62,4.62,0,0,1,.21-2L4.57,93.76c.6,0,1.17-.05,1.69-.1a9.65,9.65,0,0,0,1.49-.25ZM9.55,97.51l-.08.5H1.1l.13-.5Z"/><path class="cls-1" d="M12.05,110.41H9l3-10.77a2.32,2.32,0,0,0,.15-1,.4.4,0,0,0-.45-.3,1.15,1.15,0,0,0-.87.47,5.87,5.87,0,0,0-.83,1.68l-.42,1.17H9.07l.65-1.87a4.56,4.56,0,0,1,.88-1.57,3,3,0,0,1,1.15-.78A3.74,3.74,0,0,1,13,97.16a1.8,1.8,0,0,1,1.19.33,1.42,1.42,0,0,1,.5.85,3.51,3.51,0,0,1,0,1.13,7.58,7.58,0,0,1-.21,1.19Zm6.4-12.67a2.09,2.09,0,0,0-1.13.38,5.29,5.29,0,0,0-1.2,1.24,13.75,13.75,0,0,0-1.26,2.24c-.42.92-.86,2.05-1.31,3.37s-.9,2.89-1.35,4.69l.6-3.32c.51-1.75,1-3.22,1.46-4.39a17.63,17.63,0,0,1,1.35-2.83A4.51,4.51,0,0,1,17,97.61a3.1,3.1,0,0,1,1.63-.45,1.82,1.82,0,0,1,1.39.53,1.85,1.85,0,0,1,.48,1.3,2.43,2.43,0,0,1-1.08,2,2,2,0,0,1-1.12.31,1.44,1.44,0,0,1-1-.32A1.2,1.2,0,0,1,17,100a2.09,2.09,0,0,1,.25-1,2.69,2.69,0,0,1,.65-.77,2.49,2.49,0,0,1,.88-.43.35.35,0,0,0-.13-.08Z"/><path class="cls-1" d="M23.42,109.61a1.64,1.64,0,0,0,1-.54,7.48,7.48,0,0,0,1.17-1.51,16.17,16.17,0,0,0,1.15-2.32,22.21,22.21,0,0,0,.95-2.95L27.2,105a16.68,16.68,0,0,1-1.54,3.4,5.69,5.69,0,0,1-1.7,1.82,3.4,3.4,0,0,1-1.84.55,2.38,2.38,0,0,1-2-.84,3.56,3.56,0,0,1-.65-2.23A9.45,9.45,0,0,1,19.9,105a14.38,14.38,0,0,1,2.92-5.33,9,9,0,0,1,2.08-1.78,4.16,4.16,0,0,1,2.2-.68,1.46,1.46,0,0,1,1.3.71,3.21,3.21,0,0,1,.22,2.17l-.27.15a3.08,3.08,0,0,0-.09-1.65.89.89,0,0,0-.86-.6,1.85,1.85,0,0,0-1.22.6,8.15,8.15,0,0,0-1.26,1.62,15.32,15.32,0,0,0-1.14,2.33,16.89,16.89,0,0,0-.81,2.7,12.94,12.94,0,0,0-.3,2.72,3.16,3.16,0,0,0,.19,1.31A.59.59,0,0,0,23.42,109.61Zm5.63-12.1c.6,0,1.16-.05,1.68-.1a10.48,10.48,0,0,0,1.52-.25L29,108.26a3.36,3.36,0,0,0-.14.61,1.24,1.24,0,0,0,.05.53q.09.21.42.21a1.21,1.21,0,0,0,.82-.42,5,5,0,0,0,.88-1.73l.37-1.12h.48l-.63,1.82a4.41,4.41,0,0,1-.87,1.59,3.16,3.16,0,0,1-1.12.79,3.22,3.22,0,0,1-1.16.22,1.89,1.89,0,0,1-1.7-.75,2.25,2.25,0,0,1-.25-1.35,10,10,0,0,1,.33-1.72Z"/><path class="cls-1" d="M36.7,110.41H33.62l3-10.77c.06-.24.11-.45.15-.65a.89.89,0,0,0,0-.5c-.06-.14-.21-.2-.44-.2a1.1,1.1,0,0,0-.86.46,6,6,0,0,0-.84,1.69l-.42,1.17h-.48l.65-1.87a3.92,3.92,0,0,1,1.35-2,3.2,3.2,0,0,1,1.83-.55,2.06,2.06,0,0,1,1.26.33,1.4,1.4,0,0,1,.56.83,3.24,3.24,0,0,1,.05,1.13,12.26,12.26,0,0,1-.22,1.21Zm.92-4.55a37.82,37.82,0,0,1,1.78-4.25A15.35,15.35,0,0,1,41,99a5,5,0,0,1,1.65-1.39,4.09,4.09,0,0,1,1.78-.4,2.22,2.22,0,0,1,1.71.54,1.93,1.93,0,0,1,.48,1.4,6.1,6.1,0,0,1-.34,1.84l-2.45,7.35a1.89,1.89,0,0,0-.13,1,.47.47,0,0,0,.5.33,1.15,1.15,0,0,0,.79-.42,5.23,5.23,0,0,0,.89-1.72l.4-1.13h.47l-.62,1.83a4.1,4.1,0,0,1-.89,1.6,3,3,0,0,1-1.15.76,3.71,3.71,0,0,1-1.21.21,2.68,2.68,0,0,1-1.11-.21,1.69,1.69,0,0,1-.72-.59,2,2,0,0,1-.27-1.22,7.42,7.42,0,0,1,.4-1.8l2.27-6.88a6,6,0,0,0,.2-.81,1.35,1.35,0,0,0,0-.7c-.07-.19-.24-.29-.53-.29a1.79,1.79,0,0,0-1.15.59,9.46,9.46,0,0,0-1.3,1.64,22.52,22.52,0,0,0-1.34,2.45q-.68,1.4-1.29,3c-.41,1.09-.77,2.22-1.09,3.39Z"/><path class="cls-1" d="M49.69,110a3.16,3.16,0,0,0,.43.16,2.53,2.53,0,0,0,.62.06,2.18,2.18,0,0,0,1.59-.61,2.25,2.25,0,0,0,.64-1.71,4.18,4.18,0,0,0-.34-1.63,9.75,9.75,0,0,0-1-1.82c-.4-.59-.76-1.16-1.09-1.73a3.92,3.92,0,0,1-.49-2,3.42,3.42,0,0,1,.53-1.89,3.57,3.57,0,0,1,1.5-1.28,5.09,5.09,0,0,1,2.27-.48,7.28,7.28,0,0,1,1.68.2,2.85,2.85,0,0,1,1.35.73,2.27,2.27,0,0,1,.37,2.26,1.69,1.69,0,0,1-.45.66,1.14,1.14,0,0,1-.8.28,1.08,1.08,0,0,1-.87-.42,1.53,1.53,0,0,1-.35-1.06,2.72,2.72,0,0,1,.21-1.07,3.57,3.57,0,0,1,.51-.88,2.05,2.05,0,0,0-1-.2,1.9,1.9,0,0,0-1.45.58A2.27,2.27,0,0,0,53,99.86a3,3,0,0,0,.19,1,5.41,5.41,0,0,0,.53,1c.22.34.48.74.76,1.19a17.66,17.66,0,0,1,1.1,2,4.45,4.45,0,0,1,.4,1.81,3.52,3.52,0,0,1-.59,2,4,4,0,0,1-1.61,1.37,5.47,5.47,0,0,1-2.4.5,6.69,6.69,0,0,1-1.86-.26,3.13,3.13,0,0,1-1.45-.87,2.26,2.26,0,0,1-.57-1.64,1.94,1.94,0,0,1,.32-1.07,1.07,1.07,0,0,1,1-.48,1.06,1.06,0,0,1,1,.52,2.39,2.39,0,0,1,.33,1.3,3.57,3.57,0,0,1-.14,1C49.84,109.58,49.76,109.83,49.69,110Z"/><path class="cls-1" d="M63.47,93.89c.58,0,1.14-.12,1.68-.22a9.91,9.91,0,0,0,1.54-.38l-5.42,19.12c-.24.8-.17,1.33.2,1.6a3,3,0,0,0,1.77.4l-.15.52-1.6-.06c-.68,0-1.4,0-2.15,0s-1.24,0-1.87,0l-1.4.06.15-.52a2,2,0,0,0,1.3-.34,2.51,2.51,0,0,0,.65-1.21Zm-5,7.7c.64-.64,1.22-1.27,1.77-1.92a16.34,16.34,0,0,0,1.58-2.27,22.16,22.16,0,0,0,1.55-3.31l.08.4a15.79,15.79,0,0,1-1.25,3,15.53,15.53,0,0,1-1.59,2.37,25.13,25.13,0,0,1-1.86,2Zm9.05-3.28a1.78,1.78,0,0,0-1.21.73A9.79,9.79,0,0,0,65,101a23.66,23.66,0,0,0-1.26,2.84,29.55,29.55,0,0,0-1,3.3l.47-2.6a27.86,27.86,0,0,1,1.75-4.27,8,8,0,0,1,1.8-2.38,3.1,3.1,0,0,1,2-.75,2.62,2.62,0,0,1,2.16,1,4.41,4.41,0,0,1,.76,2.8,10.82,10.82,0,0,1-.32,2.48,14.2,14.2,0,0,1-.94,2.62,11.36,11.36,0,0,1-1.51,2.39,7,7,0,0,1-2.07,1.72,5.2,5.2,0,0,1-2.58.64,2.91,2.91,0,0,1-1.43-.35,2.21,2.21,0,0,1-.92-1l.2-.43a2.18,2.18,0,0,0,.65.82,1.35,1.35,0,0,0,.82.25,2.33,2.33,0,0,0,1.51-.61,6,6,0,0,0,1.35-1.65,13.72,13.72,0,0,0,1.09-2.31,17.08,17.08,0,0,0,.74-2.6,13.15,13.15,0,0,0,.26-2.47,3.83,3.83,0,0,0-.25-1.67A.77.77,0,0,0,67.54,98.31Z"/><path class="cls-1" d="M75.69,108.29a1.88,1.88,0,0,0-.09,1,.47.47,0,0,0,.49.33,1.11,1.11,0,0,0,.76-.43,5.49,5.49,0,0,0,.89-1.71l.4-1.13h.48L78,108.19a4.43,4.43,0,0,1-.87,1.56,3.19,3.19,0,0,1-1.13.79,3.46,3.46,0,0,1-1.22.22,2.38,2.38,0,0,1-1.28-.3,1.49,1.49,0,0,1-.65-.83,2.9,2.9,0,0,1-.12-1.21,6.17,6.17,0,0,1,.3-1.48l4-13.2a1.4,1.4,0,0,0,0-1.25c-.2-.27-.71-.4-1.52-.4l.17-.53a14.74,14.74,0,0,0,2.9-.29,14.16,14.16,0,0,0,2.45-.73Z"/><path class="cls-1" d="M83.81,109.61a1.6,1.6,0,0,0,1-.54A7.48,7.48,0,0,0,86,107.56a14.32,14.32,0,0,0,1.15-2.32,20.84,20.84,0,0,0,1-2.95l-.52,2.7a16.15,16.15,0,0,1-1.54,3.4,5.69,5.69,0,0,1-1.7,1.82,3.39,3.39,0,0,1-1.83.55,2.37,2.37,0,0,1-2-.84,3.5,3.5,0,0,1-.65-2.23,9.77,9.77,0,0,1,.42-2.74,14.09,14.09,0,0,1,1.19-2.83,14.62,14.62,0,0,1,1.74-2.5,9.17,9.17,0,0,1,2.07-1.78,4.18,4.18,0,0,1,2.2-.68,1.45,1.45,0,0,1,1.3.71A3.21,3.21,0,0,1,89,100l-.27.15a2.89,2.89,0,0,0-.09-1.65.88.88,0,0,0-.86-.6,1.83,1.83,0,0,0-1.21.6,7.81,7.81,0,0,0-1.27,1.62,15.32,15.32,0,0,0-1.13,2.33,15.92,15.92,0,0,0-.81,2.7,13,13,0,0,0-.31,2.72,3.33,3.33,0,0,0,.19,1.31A.6.6,0,0,0,83.81,109.61Zm5.63-12.1c.6,0,1.16-.05,1.69-.1a10.34,10.34,0,0,0,1.51-.25l-3.23,11.1a3.32,3.32,0,0,0-.13.61,1,1,0,0,0,0,.53c.06.14.19.21.41.21a1.19,1.19,0,0,0,.82-.42,4.79,4.79,0,0,0,.88-1.73l.37-1.12h.48l-.63,1.82a4.41,4.41,0,0,1-.87,1.59,3,3,0,0,1-2.28,1,1.9,1.9,0,0,1-1.7-.75,2.25,2.25,0,0,1-.25-1.35,10,10,0,0,1,.33-1.72Z"/><path class="cls-1" d="M97.09,110.41H94l3-10.77c.06-.24.11-.45.15-.65a.89.89,0,0,0,0-.5c-.06-.14-.2-.2-.44-.2a1.12,1.12,0,0,0-.86.46,6,6,0,0,0-.84,1.69l-.42,1.17h-.48l.65-1.87a3.92,3.92,0,0,1,1.35-2,3.2,3.2,0,0,1,1.83-.55,2.06,2.06,0,0,1,1.26.33,1.4,1.4,0,0,1,.56.83,3,3,0,0,1,0,1.13,9.9,9.9,0,0,1-.22,1.21Zm.92-4.55a37.82,37.82,0,0,1,1.78-4.25A14.74,14.74,0,0,1,101.44,99a4.82,4.82,0,0,1,1.65-1.39,4.05,4.05,0,0,1,1.77-.4,2.26,2.26,0,0,1,1.72.54,2,2,0,0,1,.47,1.4,6.1,6.1,0,0,1-.34,1.84l-2.45,7.35a1.77,1.77,0,0,0-.12,1,.45.45,0,0,0,.5.33,1.17,1.17,0,0,0,.79-.42,5.26,5.26,0,0,0,.88-1.72l.4-1.13h.48l-.63,1.83a4.22,4.22,0,0,1-.88,1.6,3.11,3.11,0,0,1-1.15.76,3.77,3.77,0,0,1-1.22.21,2.68,2.68,0,0,1-1.11-.21,1.61,1.61,0,0,1-.71-.59,1.88,1.88,0,0,1-.28-1.22,7.93,7.93,0,0,1,.4-1.8l2.28-6.88a8,8,0,0,0,.2-.81,1.34,1.34,0,0,0,0-.7c-.06-.19-.24-.29-.52-.29a1.77,1.77,0,0,0-1.15.59,8.59,8.59,0,0,0-1.3,1.64,22.47,22.47,0,0,0-1.35,2.45q-.67,1.4-1.29,3c-.41,1.09-.77,2.22-1.09,3.39Z"/><path class="cls-1" d="M112.11,108.29a1.14,1.14,0,0,0,.06,1,.88.88,0,0,0,.72.32,1.58,1.58,0,0,0,1.06-.49,4.55,4.55,0,0,0,1-1.75l.37-1h.48l-.5,1.5a4.44,4.44,0,0,1-1.45,2.22,3.58,3.58,0,0,1-2.2.68,2.63,2.63,0,0,1-1.72-.5,2.09,2.09,0,0,1-.7-1.36,4.81,4.81,0,0,1,.22-2l3.77-13.18c.6,0,1.16-.05,1.69-.1a9.85,9.85,0,0,0,1.49-.25Zm6.08-10.78-.08.5h-8.37l.12-.5Z"/></g></g></svg>