<svg xmlns="http://www.w3.org/2000/svg" viewBox="0 0 80.17 35.94"><defs><style>.cls-1{isolation:isolate;}.cls-2{opacity:0.6;mix-blend-mode:multiply;}.cls-26,.cls-3{fill:#fff;}.cls-3{opacity:0;}.cls-4{fill:#f5f5f5;opacity:0.05;}.cls-5{fill:#ebebeb;opacity:0.1;}.cls-6{fill:#e2e2e2;opacity:0.14;}.cls-7{fill:#d8d8d8;opacity:0.19;}.cls-8{fill:#cecece;opacity:0.24;}.cls-9{fill:#c4c4c4;opacity:0.29;}.cls-10{fill:#bababa;opacity:0.33;}.cls-11{fill:#b1b1b1;opacity:0.38;}.cls-12{fill:#a7a7a7;opacity:0.43;}.cls-13{fill:#9d9d9d;opacity:0.48;}.cls-14{fill:#939393;opacity:0.52;}.cls-15{fill:#898989;opacity:0.57;}.cls-16{fill:#7f7f7f;opacity:0.62;}.cls-17{fill:#767676;opacity:0.67;}.cls-18{fill:#6c6c6c;opacity:0.71;}.cls-19{fill:#626262;opacity:0.76;}.cls-20{fill:#585858;opacity:0.81;}.cls-21{fill:#4e4e4e;opacity:0.86;}.cls-22{fill:#454545;opacity:0.9;}.cls-23{fill:#3b3b3b;opacity:0.95;}.cls-24{fill:#313131;}.cls-25{fill:#476157;}.cls-27{fill:#f5f4f0;}</style></defs><g class="cls-1"><g id="Layer_2" data-name="Layer 2"><g id="Layer_1-2" data-name="Layer 1"><g class="cls-2"><polygon class="cls-3" points="0 0 13.34 17.97 0 35.94 80.17 35.94 80.17 0 0 0"/><polygon class="cls-4" points="0.24 0.06 13.52 17.97 0.24 35.88 80.17 35.88 80.17 0.06 0.24 0.06"/><polygon class="cls-5" points="0.48 0.12 13.71 17.97 0.48 35.81 80.17 35.81 80.17 0.12 0.48 0.12"/><polygon class="cls-6" points="0.71 0.18 13.9 17.97 0.71 35.75 80.17 35.75 80.17 0.18 0.71 0.18"/><polygon class="cls-7" points="0.95 0.25 14.08 17.97 0.95 35.69 80.17 35.69 80.17 0.25 0.95 0.25"/><polygon class="cls-8" points="1.19 0.31 14.27 17.97 1.19 35.63 80.17 35.63 80.17 0.31 1.19 0.31"/><polygon class="cls-9" points="1.43 0.37 14.46 17.97 1.43 35.57 80.17 35.57 80.17 0.37 1.43 0.37"/><polygon class="cls-10" points="1.67 0.43 14.64 17.97 1.67 35.51 80.17 35.51 80.17 0.43 1.67 0.43"/><polygon class="cls-11" points="1.9 0.49 14.83 17.97 1.9 35.44 80.17 35.44 80.17 0.49 1.9 0.49"/><polygon class="cls-12" points="2.14 0.56 15.02 17.97 2.14 35.38 80.17 35.38 80.17 0.56 2.14 0.56"/><polygon class="cls-13" points="2.38 0.62 15.21 17.97 2.38 35.32 80.17 35.32 80.17 0.62 2.38 0.62"/><polygon class="cls-14" points="2.62 0.68 15.39 17.97 2.62 35.26 80.17 35.26 80.17 0.68 2.62 0.68"/><polygon class="cls-15" points="2.86 0.74 15.58 17.97 2.86 35.2 80.17 35.2 80.17 0.74 2.86 0.74"/><polygon class="cls-16" points="3.09 0.8 15.77 17.97 3.09 35.14 80.17 35.14 80.17 0.8 3.09 0.8"/><polygon class="cls-17" points="3.33 0.86 15.95 17.97 3.33 35.07 80.17 35.07 80.17 0.86 3.33 0.86"/><polygon class="cls-18" points="3.57 0.92 16.14 17.97 3.57 35.01 80.17 35.01 80.17 0.92 3.57 0.92"/><polygon class="cls-19" points="3.81 0.99 16.33 17.97 3.81 34.95 80.17 34.95 80.17 0.99 3.81 0.99"/><polygon class="cls-20" points="4.04 1.05 16.51 17.97 4.04 34.89 80.17 34.89 80.17 1.05 4.04 1.05"/><polygon class="cls-21" points="4.28 1.11 16.7 17.97 4.28 34.83 80.17 34.83 80.17 1.11 4.28 1.11"/><polygon class="cls-22" points="4.52 1.17 16.89 17.97 4.52 34.77 80.17 34.77 80.17 1.17 4.52 1.17"/><polygon class="cls-23" points="4.76 1.23 17.07 17.97 4.76 34.7 80.17 34.7 80.17 1.23 4.76 1.23"/><polygon class="cls-24" points="5 1.29 17.26 17.97 5 34.64 80.17 34.64 80.17 1.29 5 1.29"/></g><polygon class="cls-25" points="5 1.29 17.26 17.97 5 34.64 80.17 34.64 80.17 1.29 5 1.29"/><rect class="cls-26" x="78.68" y="3.2" width="1.49" height="0.46"/><path class="cls-26" d="M16.67,3.2v.46H13.76V3.2Zm5.8,0v.46h-2.9V3.2Zm5.81,0v.46h-2.9V3.2Zm5.81,0v.46h-2.9V3.2Zm5.81,0v.46H37V3.2Zm5.82,0v.46H42.81V3.2Zm5.81,0v.46H48.62V3.2Zm5.81,0v.46H54.43V3.2Z"/><path class="cls-26" d="M34,3v.47H31.1V3Zm5.8,0v.47h-2.9V3Zm5.81,0v.47h-2.9V3Zm5.81,0v.47h-2.9V3Zm5.82,0v.47H54.34V3Zm5.81,0v.47h-2.9V3Zm5.81,0v.47H66V3Zm5.81,0v.47H71.77V3Z"/><path class="cls-26" d="M34,32.4v.46H31.1V32.4Zm5.8,0v.46h-2.9V32.4Zm5.81,0v.46h-2.9V32.4Zm5.81,0v.46h-2.9V32.4Zm5.82,0v.46H54.34V32.4Zm5.81,0v.46h-2.9V32.4Zm5.81,0v.46H66V32.4Zm5.81,0v.46H71.77V32.4Z"/><polygon class="cls-26" points="8.83 3.2 9.88 4.55 10.39 4.31 9.89 3.67 10.84 3.67 10.84 3.2 8.83 3.2"/><path class="cls-26" d="M11.79,6.11,13.18,7.9l-.51.25-1.4-1.8ZM14.58,9.7,16,11.5l-.51.24-1.39-1.8Zm2.79,3.6,1.4,1.79-.52.24-1.4-1.79Z"/><polygon class="cls-26" points="19.65 17.13 20.32 18.01 19.65 18.88 20.16 19.12 21.02 18.01 20.16 16.89 19.65 17.13"/><path class="cls-26" d="M12.67,27.87l.51.24-1.39,1.8-.52-.24Zm2.79-3.6.51.25-1.39,1.79-.51-.24Zm2.79-3.59.52.24-1.4,1.8-.52-.24Z"/><polygon class="cls-26" points="8.83 32.81 10.84 32.81 10.84 32.35 9.89 32.35 10.39 31.71 9.88 31.47 8.83 32.81"/><path class="cls-26" d="M16.66,32.35v.46h-2.9v-.46Zm5.81,0v.46h-2.9v-.46Zm5.81,0v.46h-2.9v-.46Zm5.81,0v.46H31.18v-.46Zm5.81,0v.46H37v-.46Zm5.82,0v.46H42.8v-.46Zm5.81,0v.46H48.62v-.46Zm5.8,0v.46h-2.9v-.46Z"/><rect class="cls-26" x="78.68" y="32.35" width="1.49" height="0.47"/><path class="cls-27" d="M37.33,9.76h4.84V11H38.79v1.7H42v1.23H38.79V16.7H37.33Z"/><path class="cls-27" d="M44.75,13.93V16.7H43.29V9.76h3.05c1.51,0,2.33.83,2.33,1.91a1.67,1.67,0,0,1-1,1.64c.34.13.86.48.86,1.73v.34a5.25,5.25,0,0,0,.1,1.32H47.2a4.58,4.58,0,0,1-.15-1.55V15c0-.76-.19-1.11-1.31-1.11Zm0-1.2H46c.82,0,1.14-.31,1.14-.89s-.37-.88-1.1-.88h-1.3Z"/><path class="cls-27" d="M54.78,13.71H51.46v1.76h3.66l-.18,1.23H50V9.76h4.92V11H51.46v1.49h3.32Z"/><path class="cls-27" d="M61,13.71H57.65v1.76h3.66l-.18,1.23H56.19V9.76h4.92V11H57.65v1.49H61Z"/><path class="cls-27" d="M26.81,24a1.29,1.29,0,0,0,1.46,1c.8,0,1.15-.32,1.15-.83s-.34-.81-1.53-1.08C26,22.63,25.54,22,25.54,21c0-1.21.9-2,2.55-2,1.84,0,2.58,1,2.67,2H29.25c-.07-.42-.31-.89-1.2-.89-.61,0-1,.25-1,.75s.3.68,1.42.94C30.51,22.25,31,23,31,24c0,1.27-1,2.14-2.79,2.14s-2.7-.87-2.86-2.13Z"/><path class="cls-27" d="M32.06,19.08h1.5v2.71h2.79V19.08h1.5V26h-1.5V23H33.56v3h-1.5Z"/><path class="cls-27" d="M41,19.08V26h-1.5V19.08Z"/><path class="cls-27" d="M42.68,19.08h2.87A2.2,2.2,0,0,1,48,21.23c0,1.51-1.15,2.2-2.52,2.2H44.18V26h-1.5Zm1.5,3.15h1.15c.69,0,1.18-.26,1.18-1s-.52-1-1.15-1H44.18Z"/><path class="cls-27" d="M49.15,19.08H52a2.19,2.19,0,0,1,2.48,2.15c0,1.51-1.14,2.2-2.51,2.2H50.65V26h-1.5Zm1.5,3.15H51.8c.69,0,1.18-.26,1.18-1s-.51-1-1.15-1H50.65Z"/><path class="cls-27" d="M57.13,19.08V26H55.62V19.08Z"/><path class="cls-27" d="M58.78,26V19.08h1.87c.86,1.56,2.47,4.37,2.78,5.12h0c-.07-.72-.07-1.93-.07-3.07V19.08h1.36V26H63c-.74-1.36-2.52-4.59-2.86-5.39h0c0,.61.06,2,.06,3.28V26Z"/><path class="cls-27" d="M72.43,26h-1.1a3.71,3.71,0,0,1-.12-.68,2.4,2.4,0,0,1-2,.8c-2,0-3.14-1.53-3.14-3.5S67.26,19,69.44,19a2.74,2.74,0,0,1,3,2.19H71a1.41,1.41,0,0,0-1.53-1c-1.42,0-1.83,1.2-1.83,2.42s.47,2.37,1.84,2.37A1.37,1.37,0,0,0,71,23.43v-.06H69.43V22.14h3Z"/></g></g></g></svg>