<svg xmlns="http://www.w3.org/2000/svg" viewBox="0 0 153.29 17.92"><defs><style>.cls-1{fill:#fff;}</style></defs><g id="Layer_2" data-name="Layer 2"><g id="Layer_1-2" data-name="Layer 1"><path class="cls-1" d="M0,13.32,2.55.2H6c4.25,0,7.52,1.89,6.59,6.6s-4.85,6.52-9.14,6.52Zm3.55-.64C7,12.68,9,10,9.65,6.8S9.28.87,5.84.87H5a1.87,1.87,0,0,0-.27.76l-2,10.27a1.3,1.3,0,0,0,0,.78Z"/><path class="cls-1" d="M19,13.32l.33-1.7a5.47,5.47,0,0,1-3.51,1.92c-1.74,0-2.29-1.23-2-2.86l1-5c.11-.55-.48-.53-.88-.57L14,4.82l3.57-.37-1.19,6.08c-.16.85,0,1.52,1,1.52a3.4,3.4,0,0,0,2.08-.94l1-5c.19-1-.16-.93-1-1l.06-.26,3.73-.37L21.5,13.32Z"/><path class="cls-1" d="M24.23,13.32l1.46-7.5c.19-1-.15-.94-1-1l.06-.26,3.73-.37-.39,2a5.76,5.76,0,0,1,3.64-2,1.75,1.75,0,0,1,1,.29l-1.11,2.9c-.4-1-1-1.51-1.73-1.51A3,3,0,0,0,28,6.76l-1.27,6.56Z"/><path class="cls-1" d="M33.12,6.43A5.53,5.53,0,0,1,37.7,4.27c1.89,0,3.46.74,3.09,2.71l-1.24,6.34H37.07l.21-1.05a6.07,6.07,0,0,1-3.16,1.22c-1.43,0-2.54-.74-2.2-2.48.5-2.55,4.47-3.19,6.24-3.32l.13-.63c.22-1.13.43-2.14-.63-2.24s-2.25.89-2.77,2.63Zm5,1.63c-1.05.09-3.31.51-3.64,2.73-.15,1,.37,1.59,1.14,1.59a3.54,3.54,0,0,0,1.78-.57Z"/><path class="cls-1" d="M44.13,1.37c.07-.43-.35-.63-.67-.74l0-.26L46.88,0,45.77,5.75a4.21,4.21,0,0,1,3-1.48c2.36,0,3.19,2.05,2.77,4.19a6.23,6.23,0,0,1-6.12,5c-1.2,0-2.42-.09-3.6-.19ZM48.76,9c.26-1.35.37-3.6-1.38-3.6a2.32,2.32,0,0,0-1.7.81l-1.09,5.66c-.17.79,0,1.27.89,1.27C47.43,13.1,48.47,10.46,48.76,9Z"/><path class="cls-1" d="M55,13.32H52.53L54.77,1.81a3,3,0,0,0,.07-.57.49.49,0,0,0-.13-.37,1.89,1.89,0,0,0-.9-.22l0-.26L57.61,0Z"/><path class="cls-1" d="M61.05,11a2.86,2.86,0,0,0,2.08.9A3.32,3.32,0,0,0,66,10.07l.13.11c-.89,1.92-2.33,3.27-4.51,3.27a3.73,3.73,0,0,1-3.94-3.32,5.17,5.17,0,0,1,4.66-5.82l.39,0c2.6,0,3.45,1.62,3.36,3.67Zm2.49-3.16c.54-1.46,0-3-1.24-3h-.09c-1.18.07-2.48.91-2.27,3.68a3.86,3.86,0,0,0,.83,2.14A5.8,5.8,0,0,0,63.54,7.82Z"/><path class="cls-1" d="M80.52,11.72a12.21,12.21,0,0,1-6.08,1.77c-2.74,0-4.73-1.31-4-3.7.63-2,3.18-3.41,5-4.28a3.76,3.76,0,0,1-.54-3.26,3.47,3.47,0,0,1,4-2.21c1.29.16,2.47.79,2,2.34a3.38,3.38,0,0,1-2.71,2.18l4.17,5.05a4.67,4.67,0,0,0,1-1.72c.13-.41.24-1.13-.3-1.2a.75.75,0,0,0-.79.52l-.83-1.54a2,2,0,0,1,1.81-1.25h.18c1.11.13,1.33,1.65,1,2.7A7.61,7.61,0,0,1,82.64,10l2.7,3.3H81.83ZM75.73,5.88A5.27,5.27,0,0,0,72.94,8.7c-.52,1.65.91,2.79,2.9,3l.78,0a9.26,9.26,0,0,0,3.4-.66Zm2.09-1.67a3.64,3.64,0,0,0,1.31-1.75c.33-1,.15-1.87-.94-2a1.42,1.42,0,0,0-1.52,1.06C76.3,2.72,77.23,3.49,77.82,4.21Z"/><path class="cls-1" d="M93.33,11.9a1.15,1.15,0,0,0,0,.78h2.38c2.15,0,2.5-.48,4-2.28l-.57,2.92H90.56L93.11.2h8.65l-.54,2.74C100.5,1.42,99.84.83,97.82.85l-2.16,0a1.24,1.24,0,0,0-.33.77L94.42,6.3H95.9a3.29,3.29,0,0,0,2.15-.94h.16l-.57,3h-.09s-.87-1.45-1.76-1.45H94.31Z"/><path class="cls-1" d="M104,13.32h-2.49L103.7,1.81a3,3,0,0,0,.07-.57.49.49,0,0,0-.13-.37,1.89,1.89,0,0,0-.9-.22l.05-.26L106.54,0Z"/><path class="cls-1" d="M110,11a2.86,2.86,0,0,0,2.08.9A3.32,3.32,0,0,0,115,10.07l.13.11c-.89,1.92-2.33,3.27-4.51,3.27a3.73,3.73,0,0,1-3.94-3.32,5.17,5.17,0,0,1,4.66-5.82l.39,0c2.6,0,3.45,1.62,3.36,3.67Zm2.49-3.16c.54-1.46,0-3-1.24-3h-.09c-1.18.07-2.48.91-2.27,3.68a3.86,3.86,0,0,0,.83,2.14A5.8,5.8,0,0,0,112.47,7.82Z"/><path class="cls-1" d="M124.79,4.32c.11-.55-.55-.79-1-.79a2,2,0,0,0-1.51.79,2.66,2.66,0,0,1,2.12,3.35,4.77,4.77,0,0,1-4.87,3.55,4.09,4.09,0,0,1-2-.47,1.2,1.2,0,0,0-.35.52.47.47,0,0,0,.22.45c1.63,1.16,6.6-.32,6,3-.4,2.11-2.92,3.23-5.19,3.23s-4.06-1-3.69-3.25l2.07,0c-.36,1.79.55,2.66,1.68,2.66,1.42,0,2.58-.61,2.77-1.64.26-1.46-1.66-1.39-2.85-1.52s-2.9-.35-2.6-1.9a2.29,2.29,0,0,1,1.75-1.68,2.61,2.61,0,0,1-1.09-2.94c.45-2.31,2.81-3.49,4.88-3.49a5.69,5.69,0,0,1,.83.05c.69-1.13,2-2.62,3.37-2.62a1,1,0,0,1,1.12,1.2Zm-2.86,3.4c.2-1,.24-3-1.09-3s-2,2-2.22,3-.24,3,1.07,3S121.72,8.72,121.93,7.72Z"/><path class="cls-1" d="M126.65,6.43a5.55,5.55,0,0,1,4.59-2.16c1.88,0,3.45.74,3.08,2.71l-1.24,6.34h-2.47l.2-1.05a6,6,0,0,1-3.16,1.22c-1.42,0-2.53-.74-2.2-2.48.5-2.55,4.47-3.19,6.25-3.32l.13-.63c.22-1.13.42-2.14-.63-2.24s-2.25.89-2.77,2.63Zm5,1.63c-1.06.09-3.31.51-3.65,2.73-.14,1,.37,1.59,1.15,1.59a3.48,3.48,0,0,0,1.77-.57Z"/><path class="cls-1" d="M138.31,13.32h-2.49l1.46-7.5c.18-1-.15-.94-1-1l0-.26,3.73-.37-.38,2a5.78,5.78,0,0,1,3.71-1.92c1.79,0,2.49,1.05,2.18,2.68l-1.24,6.37h-2.49l1.2-6.17c.17-.85-.13-1.38-1.13-1.38a4.09,4.09,0,0,0-2.31.85Z"/><path class="cls-1" d="M151.94,12.08a3.88,3.88,0,0,1-2.7,1.39l-.24,0c-1.12-.11-1.94-1.07-1.58-2.86l.92-4.79c.15-.74-.15-1.11-.89-1.11h-.26l0-.18,4.19-2.64h.19l-.5,2.58h2.18l-.11.5H151l-1.09,5.66c-.2,1-.11,1.84.55,1.88a2.56,2.56,0,0,0,1.41-.55Z"/></g></g></svg>