<svg xmlns="http://www.w3.org/2000/svg" viewBox="0 0 90.67 17.75"><defs><style>.cls-1{fill:#ee7e22;}.cls-2{fill:#fffef5;}</style></defs><g id="Layer_2" data-name="Layer 2"><g id="Layer_1-2" data-name="Layer 1"><rect class="cls-1" width="90.67" height="17.75" rx="8.88"/><path class="cls-2" d="M14.57,5.11h4.64v1.1H15.88v2h3v1.1h-3v3.08H14.57Z"/><path class="cls-2" d="M20.27,6.92h1.25v.91h.05a1.37,1.37,0,0,1,1.35-1,1.33,1.33,0,0,1,.72.2l-.39,1.07A1.1,1.1,0,0,0,22.74,8a1.14,1.14,0,0,0-1.18,1.17v3.2H20.27Z"/><path class="cls-2" d="M23.94,9.67a2.56,2.56,0,0,1,2.57-2.82A2.43,2.43,0,0,1,29,9.6V10H25.21a1.34,1.34,0,0,0,1.39,1.48,1.13,1.13,0,0,0,1.15-.7l1.2.13a2.22,2.22,0,0,1-2.37,1.57A2.53,2.53,0,0,1,23.94,9.67Zm3.83-.54a1.21,1.21,0,0,0-1.24-1.28,1.3,1.3,0,0,0-1.31,1.28Z"/><path class="cls-2" d="M29.85,9.67a2.56,2.56,0,0,1,2.58-2.82A2.43,2.43,0,0,1,34.91,9.6V10H31.12a1.34,1.34,0,0,0,1.39,1.48,1.13,1.13,0,0,0,1.15-.7l1.2.13a2.22,2.22,0,0,1-2.37,1.57A2.53,2.53,0,0,1,29.85,9.67Zm3.83-.54a1.21,1.21,0,0,0-1.24-1.28,1.3,1.3,0,0,0-1.31,1.28Z"/><path class="cls-2" d="M38.53,12.36V5.11H41A3.27,3.27,0,0,1,44.5,8.73,3.29,3.29,0,0,1,41,12.36Zm2.39-1.14c1.51,0,2.28-.82,2.28-2.49S42.43,6.25,41,6.25H39.84v5Z"/><path class="cls-2" d="M45.46,9.67A2.56,2.56,0,0,1,48,6.85,2.43,2.43,0,0,1,50.52,9.6V10H46.73a1.34,1.34,0,0,0,1.39,1.48,1.13,1.13,0,0,0,1.15-.7l1.2.13a2.22,2.22,0,0,1-2.37,1.57A2.53,2.53,0,0,1,45.46,9.67Zm3.83-.54a1.21,1.21,0,0,0-1.24-1.28,1.3,1.3,0,0,0-1.31,1.28Z"/><path class="cls-2" d="M51.61,6.92h1.22v.93h.07a1.5,1.5,0,0,1,1.5-1,1.46,1.46,0,0,1,1.47,1h.05a1.75,1.75,0,0,1,3.33.86v3.65H58V8.91a.88.88,0,0,0-.93-1,1,1,0,0,0-1,1v3.39H54.8V8.86a.87.87,0,0,0-.91-.93,1,1,0,0,0-1,1.12v3.31H51.61Z"/><path class="cls-2" d="M60.33,9.66a2.61,2.61,0,1,1,5.21,0,2.61,2.61,0,1,1-5.21,0Zm3.91,0c0-1-.44-1.79-1.3-1.79s-1.32.79-1.32,1.79.44,1.78,1.32,1.78S64.24,10.65,64.24,9.66Z"/></g></g></svg>