<svg xmlns="http://www.w3.org/2000/svg" viewBox="0 0 96.12 24.89"><defs><style>.cls-1{fill:#fff;}</style></defs><g id="Layer_2" data-name="Layer 2"><g id="Layer_1-2" data-name="Layer 1"><path class="cls-1" d="M.37.23C.75.16,1.17.1,1.63.06S2.54,0,3,0A8.63,8.63,0,0,1,4.42.12,3.44,3.44,0,0,1,5.7.58a2.79,2.79,0,0,1,.94,1A3.24,3.24,0,0,1,7,3.16a3.35,3.35,0,0,1-.32,1.52,2.84,2.84,0,0,1-.83,1,3.36,3.36,0,0,1-1.17.57,5.2,5.2,0,0,1-1.37.18H2.78l-.32,0-.23,0V9.66H.37ZM3.14,1.61a4.18,4.18,0,0,0-.51,0l-.4,0V4.76l.17,0,.23,0H3a3.51,3.51,0,0,0,.72-.07,1.76,1.76,0,0,0,.65-.25A1.34,1.34,0,0,0,4.87,4,1.93,1.93,0,0,0,5,3.13a1.47,1.47,0,0,0-.17-.74,1.3,1.3,0,0,0-.43-.47,1.62,1.62,0,0,0-.6-.25A4,4,0,0,0,3.14,1.61Z"/><path class="cls-1" d="M9.42,2.86V6.72a2.54,2.54,0,0,0,.2,1.2.77.77,0,0,0,.76.37,1.2,1.2,0,0,0,.84-.3,1.9,1.9,0,0,0,.5-.74V2.86h1.77V7.59c0,.38,0,.74,0,1.1a6.27,6.27,0,0,0,.17,1H12.37l-.31-1H12a2.37,2.37,0,0,1-.87.85,2.45,2.45,0,0,1-1.32.34,2.92,2.92,0,0,1-.92-.13,1.51,1.51,0,0,1-.68-.45,2.21,2.21,0,0,1-.42-.84,5.56,5.56,0,0,1-.14-1.34V2.86Z"/><path class="cls-1" d="M14.33,2.86h.94V1.58L17,1.08V2.86H18.7v1.5H17V7a2.67,2.67,0,0,0,.14,1,.54.54,0,0,0,.54.31,2.12,2.12,0,0,0,.47,0,4.31,4.31,0,0,0,.44-.17L19,9.43a4.31,4.31,0,0,1-.86.3,4.19,4.19,0,0,1-1,.12,1.82,1.82,0,0,1-1.39-.48,2.33,2.33,0,0,1-.44-1.58V4.36h-.94Z"/><path class="cls-1" d="M25.44,6.68l.24,1.07h.09l.17-1.08,1-3.81H28.8L26.73,9c-.17.51-.34,1-.49,1.39a6.64,6.64,0,0,1-.53,1.1,2.46,2.46,0,0,1-.63.71,1.36,1.36,0,0,1-.83.25,2.25,2.25,0,0,1-1.12-.23l.32-1.41a1.19,1.19,0,0,0,.41.08.91.91,0,0,0,.61-.27,1.79,1.79,0,0,0,.44-1l-2.85-6.8h2.13Z"/><path class="cls-1" d="M29.05,6.26a3.84,3.84,0,0,1,.84-2.66,3,3,0,0,1,2.37-.93,3.41,3.41,0,0,1,1.41.26,2.7,2.7,0,0,1,1,.72,3.25,3.25,0,0,1,.59,1.14,5.28,5.28,0,0,1,.2,1.47,3.84,3.84,0,0,1-.84,2.66,3,3,0,0,1-2.36.93,3.61,3.61,0,0,1-1.42-.25,2.85,2.85,0,0,1-1-.73,3.18,3.18,0,0,1-.6-1.14A5.18,5.18,0,0,1,29.05,6.26Zm1.82,0a4.25,4.25,0,0,0,.08.83,2.4,2.4,0,0,0,.25.67,1.26,1.26,0,0,0,2.09.09,2.85,2.85,0,0,0,.34-1.59,3.18,3.18,0,0,0-.31-1.52,1.11,1.11,0,0,0-1.06-.57,1.18,1.18,0,0,0-1,.49A2.66,2.66,0,0,0,30.87,6.26Z"/><path class="cls-1" d="M38.38,2.86V6.72a2.67,2.67,0,0,0,.2,1.2.79.79,0,0,0,.77.37,1.24,1.24,0,0,0,.84-.3,1.88,1.88,0,0,0,.49-.74V2.86h1.77V7.59a9.87,9.87,0,0,0,.06,1.1,6.33,6.33,0,0,0,.16,1H41.34l-.32-1H41a2.53,2.53,0,0,1-.87.85,2.45,2.45,0,0,1-1.32.34,2.94,2.94,0,0,1-.93-.13,1.51,1.51,0,0,1-.68-.45,2.06,2.06,0,0,1-.41-.84,5.05,5.05,0,0,1-.15-1.34V2.86Z"/><path class="cls-1" d="M47.76,4.52A2.27,2.27,0,0,0,47,4.37a1.25,1.25,0,0,0-.8.25,1.27,1.27,0,0,0-.43.65V9.66H44V2.86h1.38l.2.9h.06A1.81,1.81,0,0,1,46.26,3a1.64,1.64,0,0,1,.93-.27,2.59,2.59,0,0,1,.8.15Z"/><path class="cls-1" d="M52.22,2.86h1.3l.2.81h.06a2.3,2.3,0,0,1,.83-.76,2.67,2.67,0,0,1,1.18-.24,2.31,2.31,0,0,1,1.92.81,4.19,4.19,0,0,1,.64,2.6,5.88,5.88,0,0,1-.2,1.58,3.44,3.44,0,0,1-.61,1.19,2.79,2.79,0,0,1-1,.75,3.77,3.77,0,0,1-2,.19A2.57,2.57,0,0,1,54,9.6v2.79H52.22Zm3,1.31a1.21,1.21,0,0,0-.81.25A1.69,1.69,0,0,0,54,5.2V8a1.76,1.76,0,0,0,.42.24,1.63,1.63,0,0,0,.59.09,1.32,1.32,0,0,0,1.15-.54A3.2,3.2,0,0,0,56.53,6a2.62,2.62,0,0,0-.3-1.38A1,1,0,0,0,55.26,4.17Z"/><path class="cls-1" d="M63.33,4.52a2.27,2.27,0,0,0-.76-.15,1.25,1.25,0,0,0-.8.25,1.27,1.27,0,0,0-.43.65V9.66H59.57V2.86H61l.2.9h.06A1.81,1.81,0,0,1,61.83,3a1.64,1.64,0,0,1,.93-.27,2.54,2.54,0,0,1,.8.15Z"/><path class="cls-1" d="M64,6.26a3.84,3.84,0,0,1,.84-2.66,3,3,0,0,1,2.37-.93,3.41,3.41,0,0,1,1.41.26,2.7,2.7,0,0,1,1,.72,3.25,3.25,0,0,1,.59,1.14,5.28,5.28,0,0,1,.2,1.47,3.84,3.84,0,0,1-.84,2.66,3,3,0,0,1-2.36.93,3.61,3.61,0,0,1-1.42-.25,2.85,2.85,0,0,1-1-.73,3,3,0,0,1-.6-1.14A5.18,5.18,0,0,1,64,6.26Zm1.82,0a4.25,4.25,0,0,0,.08.83,2.4,2.4,0,0,0,.25.67,1.14,1.14,0,0,0,1.06.6,1.16,1.16,0,0,0,1-.51,2.85,2.85,0,0,0,.34-1.59,3.18,3.18,0,0,0-.31-1.52,1.11,1.11,0,0,0-1.06-.57,1.18,1.18,0,0,0-1,.49A2.66,2.66,0,0,0,65.85,6.26Z"/><path class="cls-1" d="M77.45,7.27c0,.38,0,.76,0,1.14a10.56,10.56,0,0,0,.12,1.27H76.32l-.25-.89h0a2.09,2.09,0,0,1-.79.77,2.32,2.32,0,0,1-1.2.29A2.46,2.46,0,0,1,72,9a4.06,4.06,0,0,1-.71-2.64,4.23,4.23,0,0,1,.79-2.71,2.84,2.84,0,0,1,2.32-1,4.41,4.41,0,0,1,.69,0,3.08,3.08,0,0,1,.55.16V.14h1.77Zm-3,1.09a1.26,1.26,0,0,0,.81-.25,1.43,1.43,0,0,0,.43-.73V4.49a1.35,1.35,0,0,0-.43-.22,1.91,1.91,0,0,0-.59-.08,1.32,1.32,0,0,0-1.13.51,3,3,0,0,0-.37,1.72,2.87,2.87,0,0,0,.3,1.41A1.06,1.06,0,0,0,74.44,8.36Z"/><path class="cls-1" d="M80.7,2.86V6.72a2.54,2.54,0,0,0,.2,1.2.77.77,0,0,0,.76.37A1.2,1.2,0,0,0,82.5,8a1.9,1.9,0,0,0,.5-.74V2.86h1.77V7.59c0,.38,0,.74,0,1.1a6.27,6.27,0,0,0,.17,1H83.65l-.31-1h-.06a2.37,2.37,0,0,1-.87.85,2.45,2.45,0,0,1-1.32.34,2.92,2.92,0,0,1-.92-.13,1.46,1.46,0,0,1-.68-.45,2.07,2.07,0,0,1-.42-.84,5.56,5.56,0,0,1-.14-1.34V2.86Z"/><path class="cls-1" d="M91.14,9.24a3,3,0,0,1-1,.46A4.68,4.68,0,0,1,89,9.85a3.37,3.37,0,0,1-1.38-.25,2.47,2.47,0,0,1-.92-.73,2.9,2.9,0,0,1-.51-1.14A6.08,6.08,0,0,1,86,6.26a4,4,0,0,1,.78-2.66A2.78,2.78,0,0,1,89,2.67a4.82,4.82,0,0,1,1.2.12,4.48,4.48,0,0,1,.83.31l-.43,1.45A3.85,3.85,0,0,0,90,4.31a3,3,0,0,0-.71-.08,1.3,1.3,0,0,0-1.11.49,2.44,2.44,0,0,0-.38,1.54,3.32,3.32,0,0,0,.09.8,2,2,0,0,0,.29.64,1.23,1.23,0,0,0,.5.43,1.46,1.46,0,0,0,.71.16,2.13,2.13,0,0,0,.76-.12,2.26,2.26,0,0,0,.56-.28Z"/><path class="cls-1" d="M91.51,2.86h.93V1.58l1.77-.5V2.86h1.67v1.5H94.21V7a2.45,2.45,0,0,0,.15,1,.52.52,0,0,0,.53.31,2,2,0,0,0,.47,0,4.4,4.4,0,0,0,.45-.17l.31,1.36a4.45,4.45,0,0,1-1.85.42,1.78,1.78,0,0,1-1.38-.48,2.28,2.28,0,0,1-.45-1.58V4.36h-.93Z"/><path class="cls-1" d="M6.11,22.3c0,.38,0,.76,0,1.15a7.4,7.4,0,0,0,.12,1.26H5l-.24-.88H4.68a2,2,0,0,1-.78.76,2.32,2.32,0,0,1-1.2.3,2.43,2.43,0,0,1-2-.85A4.06,4.06,0,0,1,0,21.4a4.17,4.17,0,0,1,.79-2.71,2.83,2.83,0,0,1,2.31-1,3.46,3.46,0,0,1,.7.05,2.72,2.72,0,0,1,.54.15V15.17H6.11Zm-3,1.09a1.22,1.22,0,0,0,.82-.25,1.35,1.35,0,0,0,.42-.73V19.53a1.24,1.24,0,0,0-.42-.23,2,2,0,0,0-.6-.07,1.29,1.29,0,0,0-1.12.5,3,3,0,0,0-.38,1.73,2.82,2.82,0,0,0,.31,1.4A1,1,0,0,0,3.1,23.39Z"/><path class="cls-1" d="M7.62,18.29a5.26,5.26,0,0,1,1.3-.39,7.87,7.87,0,0,1,1.56-.14,3.35,3.35,0,0,1,1.18.17,1.77,1.77,0,0,1,.76.48,1.69,1.69,0,0,1,.39.75,3.65,3.65,0,0,1,.12,1c0,.4,0,.8,0,1.2s0,.8-.05,1.19,0,.77,0,1.14a3.91,3.91,0,0,0,.2,1H11.64l-.29-.94h-.07a2.38,2.38,0,0,1-.75.73,2.34,2.34,0,0,1-1.25.31,2.35,2.35,0,0,1-.86-.15,1.76,1.76,0,0,1-.65-.41,1.79,1.79,0,0,1-.42-.62,2.09,2.09,0,0,1-.15-.81,1.88,1.88,0,0,1,.28-1.06,2.09,2.09,0,0,1,.8-.69,4,4,0,0,1,1.25-.37,8.53,8.53,0,0,1,1.63-.06,1.79,1.79,0,0,0-.11-1.1c-.13-.22-.44-.33-.91-.33A6.43,6.43,0,0,0,9,19.32a4,4,0,0,0-1,.29Zm2.25,5.06a1.35,1.35,0,0,0,.84-.24,1.66,1.66,0,0,0,.46-.51v-.88a4.43,4.43,0,0,0-.81,0,2.74,2.74,0,0,0-.68.13,1.12,1.12,0,0,0-.48.27.61.61,0,0,0-.18.45.78.78,0,0,0,.23.59A.86.86,0,0,0,9.87,23.35Z"/><path class="cls-1" d="M13.71,17.89h.93V16.61l1.77-.5v1.78h1.67v1.5H16.41V22a2.54,2.54,0,0,0,.15,1,.53.53,0,0,0,.53.3,2,2,0,0,0,.47-.05A2.87,2.87,0,0,0,18,23.1l.31,1.37a5.68,5.68,0,0,1-.86.3,4.13,4.13,0,0,1-1,.12,1.74,1.74,0,0,1-1.38-.49,2.28,2.28,0,0,1-.45-1.58V19.39h-.93Z"/><path class="cls-1" d="M19.12,18.29a5.39,5.39,0,0,1,1.3-.39A7.94,7.94,0,0,1,22,17.76a3.44,3.44,0,0,1,1.19.17,1.72,1.72,0,0,1,1.15,1.23,4.13,4.13,0,0,1,.11,1c0,.4,0,.8,0,1.2s0,.8-.05,1.19,0,.77,0,1.14a3.91,3.91,0,0,0,.2,1H23.14l-.29-.94h-.07a2.38,2.38,0,0,1-.75.73,2.34,2.34,0,0,1-1.25.31,2.3,2.3,0,0,1-.85-.15,1.72,1.72,0,0,1-.66-.41,1.79,1.79,0,0,1-.42-.62,2.09,2.09,0,0,1-.15-.81A1.88,1.88,0,0,1,19,21.76a2.09,2.09,0,0,1,.8-.69A4,4,0,0,1,21,20.7a8.39,8.39,0,0,1,1.62-.06,1.79,1.79,0,0,0-.11-1.1c-.13-.22-.44-.33-.91-.33a6.43,6.43,0,0,0-1.12.11,4,4,0,0,0-1,.29Zm2.25,5.06a1.35,1.35,0,0,0,.84-.24,1.55,1.55,0,0,0,.46-.51v-.88a4.34,4.34,0,0,0-.8,0,2.73,2.73,0,0,0-.69.13,1.12,1.12,0,0,0-.48.27.61.61,0,0,0-.18.45.78.78,0,0,0,.23.59A.88.88,0,0,0,21.37,23.35Z"/><path class="cls-1" d="M29.32,18.29a5.17,5.17,0,0,1,1.29-.39,8,8,0,0,1,1.57-.14,3.38,3.38,0,0,1,1.18.17,1.77,1.77,0,0,1,.76.48,1.92,1.92,0,0,1,.39.75,3.65,3.65,0,0,1,.12,1c0,.4,0,.8-.05,1.2s0,.8,0,1.19a10.71,10.71,0,0,0,0,1.14,4.36,4.36,0,0,0,.21,1H33.33l-.28-.94H33a2.42,2.42,0,0,1-.76.73,2.6,2.6,0,0,1-2.1.16,1.76,1.76,0,0,1-.65-.41,1.82,1.82,0,0,1-.43-.62,2.29,2.29,0,0,1-.14-.81,2,2,0,0,1,.27-1.06,2.13,2.13,0,0,1,.81-.69,3.91,3.91,0,0,1,1.25-.37,8.49,8.49,0,0,1,1.63-.06,1.86,1.86,0,0,0-.11-1.1c-.14-.22-.44-.33-.92-.33a6.52,6.52,0,0,0-1.12.11,3.87,3.87,0,0,0-1,.29Zm2.24,5.06a1.36,1.36,0,0,0,.85-.24,1.66,1.66,0,0,0,.46-.51v-.88a4.43,4.43,0,0,0-.81,0,2.73,2.73,0,0,0-.69.13,1,1,0,0,0-.47.27.61.61,0,0,0-.18.45.77.77,0,0,0,.22.59A.88.88,0,0,0,31.56,23.35Z"/><path class="cls-1" d="M35.4,17.89h.94V16.61l1.77-.5v1.78h1.66v1.5H38.11V22a2.77,2.77,0,0,0,.14,1,.55.55,0,0,0,.54.3,2.12,2.12,0,0,0,.47-.05,2.79,2.79,0,0,0,.44-.17L40,24.47a6.59,6.59,0,0,1-.86.3,4.21,4.21,0,0,1-1,.12,1.77,1.77,0,0,1-1.38-.49,2.33,2.33,0,0,1-.44-1.58V19.39H35.4Z"/><path class="cls-1" d="M49.05,17.89l1.24,3.49.25,1.13h.05l.19-1.15.87-3.47h1.62l-2.09,6.88H49.87L48.5,21l-.18-.85h-.07l-.16.87-1.31,3.8H45.43l-2.19-6.88h1.92l1,3.42.17,1.21h.06l.24-1.23,1.13-3.4Z"/><path class="cls-1" d="M53.49,21.29a3.84,3.84,0,0,1,.84-2.66,3.06,3.06,0,0,1,2.37-.93,3.6,3.6,0,0,1,1.42.26,2.61,2.61,0,0,1,1,.73,3,3,0,0,1,.59,1.13,5.28,5.28,0,0,1,.2,1.47A3.87,3.87,0,0,1,59.06,24a3,3,0,0,1-2.36.93,3.58,3.58,0,0,1-1.41-.26,2.65,2.65,0,0,1-1-.73,3,3,0,0,1-.6-1.14A5.17,5.17,0,0,1,53.49,21.29Zm1.82,0a3.73,3.73,0,0,0,.09.84,2.15,2.15,0,0,0,.24.66,1.14,1.14,0,0,0,.43.44,1.33,1.33,0,0,0,1.67-.34,3,3,0,0,0,.34-1.6,3.13,3.13,0,0,0-.32-1.51,1.09,1.09,0,0,0-1.06-.58,1.21,1.21,0,0,0-1,.49A2.73,2.73,0,0,0,55.31,21.29Z"/><path class="cls-1" d="M64.88,19.55a2.27,2.27,0,0,0-.76-.15,1.21,1.21,0,0,0-1.23.9v4.4H61.13V17.89H62.5l.2.9h.06a1.88,1.88,0,0,1,.62-.78,1.64,1.64,0,0,1,.93-.27,2.54,2.54,0,0,1,.8.15Z"/><path class="cls-1" d="M68.15,21.88h-.48V24.7H65.9V15.17h1.77v5.62l.41-.19,1.55-2.71h2L70,20.48l-.7.52.75.53,1.84,3.17h-2Z"/></g></g></svg>