<svg xmlns="http://www.w3.org/2000/svg" viewBox="0 0 669.52 983.25"><defs><style>.cls-1{fill:#fff;}</style></defs><g id="Layer_2" data-name="Layer 2"><g id="Layer_1-2" data-name="Layer 1"><path class="cls-1" d="M30.15.54Q29.34,4,28.44,7.92t-1.62,7.74q-.72,3.78-1.17,6.93H17.1l-.63-1q.81-3.15,2.07-6.75t2.79-7.38q1.53-3.69,3-6.93ZM13.5.54Q12.69,4,11.79,7.92t-1.62,7.74Q9.45,19.44,9,22.59H.54L0,21.6q.81-3.15,2.07-6.75t2.7-7.38Q6.3,3.78,7.74.54ZM46.56,64.8,34.41,1.8V0H43L53.4,55.53c.09.54.27.72.81.72s.72-.18.81-.72L65.51,0h15L91,55.53c.09.54.27.72.81.72s.72-.18.81-.72L103.08,0h8.55V1.8l-12.15,63H84.36L73.83,9.09c-.09-.45-.36-.54-.81-.54s-.72.09-.81.54L61.68,64.8Zm82.6,0h-8.1V0h8.1V23.13c0,.45.18.63.63.63s.63-.27,1-.72c3-4,7.74-6.39,14.58-6.39,11.7,0,18.9,6.75,18.9,18.9V64.8h-8.1V36.9c0-8.55-4.5-13-12.6-13-9,0-14.4,5.4-14.4,16.65Zm57.21,0-15.66-45V18h8.19l13.41,39.33c.18.54.35.72.9.72s.72-.18.89-.72L207.51,18h8.2v1.8L198.15,70.2c-3.06,8.82-7.56,11.7-17.46,11.7h-7.56V74.7h13.41a1.74,1.74,0,0,0,1.9-1.13L191,66.78c.26-.72.35-1.17.08-1.53s-.45-.45-1.17-.45Zm60.14,1.53h9c.95,5.85,5.85,9.72,14.49,9.72,9.77,0,15.39-5.76,15.39-15.75V57.06a.48.48,0,0,0-.54-.54A.86.86,0,0,0,284,57c-3.6,4.68-8.91,6.48-15.3,6.48-11.79,0-22.59-8.1-22.59-23.4s10.8-23.4,22.59-23.4c6.39,0,11.52,2,15.39,6.57.63.81,1,1,1.44,1s.63-.27.81-.81l1.71-5.4h5.4V59.85c0,14.85-8.82,23.4-23.58,23.4C255.42,83.25,247.46,76.23,246.51,66.33Zm7.83-26.28c0,10.35,7.2,16.2,15.75,16.2s15.75-5.85,15.75-16.2-7.2-16.2-15.75-16.2S254.34,29.7,254.34,40.05Zm73.42-23.4c13.59,0,24.39,8.55,24.39,24.75s-10.8,24.75-24.39,24.75S303.37,57.6,303.37,41.4,314.17,16.65,327.76,16.65Zm0,7.2c-9.45,0-16.2,6.3-16.2,17.55S318.31,59,327.76,59,344,52.65,344,41.4,337.21,23.85,327.76,23.85ZM2.88,151c0-8.1,5.4-13.1,17.1-13.59l17.1-.72V134.2c0-6.66-3.42-10.53-11.7-10.53s-11.61,3.87-11.79,8.73H5.22c.36-8.91,6.66-15.75,20.16-15.75s19.53,6.84,19.53,18V164.8H37.17v-5a.48.48,0,0,0-.54-.54c-.36,0-.54.09-.9.54-3.33,4.45-8.28,6.3-14.4,6.3C9.63,166.15,2.88,160,2.88,151Zm8.1,0c0,4.95,4,8.1,11.25,8.1,9,0,14.85-5.13,14.85-15v-.54l-17.1.72C13.68,144.55,11,147,11,151ZM65.35,164.8h-8.1V118h8v5.22c0,.45.18.63.63.63s.63-.27,1-.72c3.06-4,7.83-6.48,14.67-6.48,11.7,0,18.9,6.75,18.9,18.9V164.8h-8.1V136.9c0-8.55-4.5-13.05-12.6-13.05-9,0-14.4,5.4-14.4,16.65Zm57.21,0-15.66-45V118h8.19l13.41,39.33c.18.54.36.72.9.72s.72-.18.9-.72L143.71,118h8.19v1.8l-17.55,50.4c-3.06,8.82-7.56,11.7-17.46,11.7h-7.56v-7.2h13.41a1.73,1.73,0,0,0,1.89-1.13l2.52-6.79c.27-.72.36-1.17.09-1.53s-.45-.45-1.17-.45Zm45.17,0-11-45V118h7.92l9,38.07c.18.81.45,1.08,1.08,1.08s.9-.27,1.08-1.08l9-38.07h13.95l9,38.07c.18.81.45,1.08,1.08,1.08s.9-.27,1.08-1.08l9-38.07h7.92v1.8l-11,45H202l-9.27-39.24c-.18-.63-.45-.81-.9-.81s-.72.18-.9.81l-9.27,39.24Zm76.39,0H236V100h8.1v23.13c0,.45.18.63.63.63s.63-.27,1-.72c3-4,7.74-6.39,14.58-6.39,11.7,0,18.9,6.75,18.9,18.9V164.8h-8.1V136.9c0-8.55-4.5-13.05-12.6-13.05-9,0-14.4,5.4-14.4,16.65ZM326.49,150H335c-1.35,7.11-7.47,16.2-22.32,16.2-15.48,0-23.76-9.45-23.76-24.75s9.18-24.75,23.58-24.75c14.58,0,22.32,9.45,22.32,22.5v4.5H296.92c.54,10.53,7,15.48,15.71,15.48S325.18,155.26,326.49,150Zm-14-26.28c-7.74,0-13.95,4.41-15.3,13.23h29.52C326.31,128.26,321,123.67,312.45,123.67Zm40.39,41.13h-8.1V118h8.1v6.3c0,.45.18.63.63.63s.72-.27.9-.72c2.07-4.5,5.31-6.39,11.7-6.39h5.22v7.92h-6.48c-7.83,0-12,3.51-12,12.51Zm60-14.85h8.46c-1.35,7.11-7.47,16.2-22.32,16.2-15.48,0-23.76-9.45-23.76-24.75s9.18-24.75,23.58-24.75c14.58,0,22.32,9.45,22.32,22.5v4.5H383.23c.54,10.53,7,15.48,15.71,15.48S411.49,155.26,412.8,150Zm-14-26.28c-7.74,0-13.95,4.41-15.3,13.23H413C412.62,128.26,407.31,123.67,398.76,123.67ZM490.84,150h8.46c-1.35,7.11-7.47,16.2-22.32,16.2-15.48,0-23.76-9.45-23.76-24.75s9.18-24.75,23.58-24.75c14.58,0,22.32,9.45,22.32,22.5v4.5H461.28c.54,10.53,7,15.48,15.7,15.48S489.54,155.26,490.84,150Zm-14-26.28c-7.74,0-13.95,4.41-15.3,13.23H491C490.66,128.26,485.35,123.67,476.8,123.67Zm32.3,41.13V100h8.1v64.8Zm37.66-48.15c11.07,0,19.89,4.77,20.79,16.2h-8.28c-.63-6.39-4.95-9.27-12.51-9.27s-10.71,2.88-10.71,6.75,2.79,5.22,9.18,6.43l6.66,1.26c8.55,1.62,16,4.41,16,13.68s-7.11,14.45-19.17,14.45-21.11-5.22-21.87-16.38h8.23c.63,6.21,5.81,9.45,13.64,9.45s11.07-3,11.07-7.07-3.24-5.44-9.72-6.66l-6.66-1.26c-9.14-1.71-15.48-4.81-15.48-13.81S535.69,116.65,546.76,116.65ZM612.57,150H621c-1.35,7.11-7.47,16.2-22.32,16.2-15.48,0-23.76-9.45-23.76-24.75s9.18-24.75,23.58-24.75c14.58,0,22.32,9.45,22.32,22.5v4.5H583c.54,10.53,7,15.48,15.7,15.48S611.27,155.26,612.57,150Zm-14-26.28c-7.74,0-13.95,4.41-15.3,13.23h29.52C612.39,128.26,607.08,123.67,598.53,123.67Zm49.12-25c13.86,0,21.87,7.47,21.87,17.55s-6.25,14.53-13.32,18.4c-3.82,2.07-5.85,3.56-5.85,7.7l-1.08,3.6h-5.94l-1.08-3.6c0-6.75,2.52-10.35,8.55-13.5,6.48-3.38,10.53-6.21,10.53-12.6s-5-10.44-13.68-10.44-14.76,4-15,12.69h-8.19C624.7,106.12,633.79,98.65,647.65,98.65ZM640,164.8V153.1h12.6v11.7ZM6.12,264.8V200h8.64v64.8Zm30.23,0h-8.1V218h8v5.22c0,.45.18.63.63.63s.63-.27,1-.72c3.06-4,7.83-6.48,14.67-6.48,11.7,0,18.9,6.75,18.9,18.9V264.8h-8.1V236.9c0-8.55-4.5-13.05-12.6-13.05-9,0-14.4,5.4-14.4,16.65Zm83.08-18.45h8.37c-.72,11.25-8.64,19.8-22.68,19.8s-24-8.82-24-24.75,10-24.75,24-24.75,21.78,8.55,22.32,18.45h-8.37c-.81-6.57-4.95-11.25-13.95-11.25-9.45,0-15.84,6.3-15.84,17.55S95.67,259,105.12,259C114.21,259,118.8,253.73,119.43,246.35ZM147,264.8h-8.64V200h15.75l20.7,55.71a.8.8,0,0,0,.9.54c.45,0,.63-.27.63-.72V200h8.64v64.8H169.18l-20.7-55.71a.8.8,0,0,0-.9-.54c-.45,0-.63.27-.63.72Zm73.14-48.15c13.59,0,24.39,8.55,24.39,24.75s-10.8,24.75-24.39,24.75S195.7,257.6,195.7,241.4,206.5,216.65,220.09,216.65Zm0,7.2c-9.45,0-16.2,6.3-16.2,17.55S210.64,259,220.09,259s16.2-6.3,16.2-17.55S229.54,223.85,220.09,223.85Zm41.07,41-11-45V218h7.92l9,38.07c.18.81.45,1.08,1.08,1.08s.9-.27,1.08-1.08l9-38.07h13.95l9,38.07c.18.81.45,1.08,1.08,1.08s.9-.27,1.08-1.08l9-38.07h7.92v1.8l-11,45H295.4l-9.27-39.24c-.18-.63-.45-.81-.9-.81s-.72.18-.9.81l-9.27,39.24Zm90.46-23.4c0-17.1,11.7-24.75,23-24.75,6.57,0,11.7,2.07,15.48,6.57a1.22,1.22,0,0,0,1,.63c.45,0,.63-.27.63-.72V200h8.1v64.8h-8v-5.22c0-.45-.18-.72-.63-.72a1.22,1.22,0,0,0-1,.63c-3.87,4.59-9,6.66-15.57,6.66C363.32,266.15,351.62,258.5,351.62,241.4Zm8.19,0c0,11.25,6.75,17.55,16.2,17.55s16.2-6.3,16.2-17.55-6.75-17.55-16.2-17.55S359.81,230.15,359.81,241.4Zm74.3-24.75c13.59,0,24.39,8.55,24.39,24.75s-10.8,24.75-24.39,24.75-24.39-8.55-24.39-24.75S420.52,216.65,434.11,216.65Zm0,7.2c-9.45,0-16.2,6.3-16.2,17.55S424.66,259,434.11,259s16.2-6.3,16.2-17.55S443.56,223.85,434.11,223.85ZM503.32,250h8.46c-1.35,7.11-7.47,16.2-22.32,16.2-15.48,0-23.76-9.45-23.76-24.75s9.18-24.75,23.58-24.75c14.58,0,22.32,9.45,22.32,22.5v4.5H473.76c.54,10.53,7,15.48,15.7,15.48S502,255.26,503.32,250Zm-14-26.28c-7.74,0-13.95,4.41-15.3,13.23H503.5C503.14,228.26,497.83,223.67,489.28,223.67Zm49.22-7c11.07,0,19.89,4.77,20.79,16.2H551c-.63-6.39-5-9.27-12.51-9.27s-10.71,2.88-10.71,6.75,2.79,5.22,9.18,6.43l6.66,1.26c8.55,1.62,16,4.41,16,13.69s-7.11,14.44-19.17,14.44-21.11-5.22-21.87-16.38h8.23c.63,6.21,5.81,9.45,13.64,9.45s11.07-3,11.07-7.07-3.24-5.44-9.72-6.66l-6.66-1.26c-9.14-1.71-15.48-4.81-15.48-13.81S527.43,216.65,538.5,216.65Zm54-5.85V200h11.7v10.8Zm1.8,54V218h8.1v46.8Zm27-39.6h-10.8V218h10.8V205.4h8.11V218h13.5v7.2h-13.5v31.05a1.24,1.24,0,0,0,1.34,1.35h12.16v7.2h-8.11c-9.13,0-13.5-4.37-13.5-13.5ZM13.32,364.8H5.22V318h8.1v6.3c0,.45.18.63.63.63s.72-.27.9-.72c2.07-4.5,5.31-6.39,11.7-6.39h5.22v7.92H25.29c-7.83,0-12,3.51-12,12.51Zm24.55-54V300h11.7v10.8Zm1.8,54V318h8.1v46.8Zm18.4,1.53h9c1,5.85,5.86,9.72,14.49,9.72,9.77,0,15.4-5.76,15.4-15.75v-3.24a.48.48,0,0,0-.55-.54.87.87,0,0,0-.81.45c-3.6,4.68-8.91,6.48-15.29,6.48-11.8,0-22.59-8.1-22.59-23.4s10.79-23.4,22.59-23.4c6.38,0,11.51,2,15.38,6.57.63.81,1,1,1.44,1s.63-.27.81-.81l1.71-5.4h5.41v41.85c0,14.85-8.82,23.4-23.59,23.4C67,383.25,59,376.23,58.07,366.33Zm7.83-26.28c0,10.35,7.2,16.2,15.75,16.2s15.75-5.85,15.75-16.2-7.19-16.2-15.75-16.2S65.9,329.7,65.9,340.05Zm59.83,24.75h-8.1V300h8.1v23.13c0,.45.18.63.63.63s.63-.27,1-.72c3-4,7.74-6.39,14.58-6.39,11.7,0,18.9,6.75,18.9,18.9V364.8h-8.1V336.9c0-8.55-4.5-13-12.6-13-9,0-14.4,5.4-14.4,16.65ZM178,325.2h-10.8V318H178V305.4h8.1V318h13.5v7.2h-13.5v31.05a1.25,1.25,0,0,0,1.35,1.35h12.15v7.2h-8.1c-9.13,0-13.5-4.37-13.5-13.5ZM231.13,351c0-8.1,5.4-13.1,17.1-13.59l17.1-.72V334.2c0-6.66-3.42-10.53-11.7-10.53s-11.61,3.87-11.79,8.73h-8.37c.36-8.91,6.66-15.75,20.16-15.75s19.53,6.84,19.53,18V364.8h-7.74v-4.95a.48.48,0,0,0-.54-.54c-.36,0-.54.09-.9.54-3.33,4.45-8.28,6.3-14.4,6.3C237.88,366.15,231.13,360,231.13,351Zm8.1,0c0,5,4.05,8.1,11.25,8.1,9,0,14.85-5.13,14.85-15v-.54l-17.1.72C241.93,344.55,239.23,347,239.23,351ZM293.6,364.8h-8.1V318h8v5.22c0,.45.18.63.63.63s.63-.27,1-.72c3.06-4.05,7.83-6.48,14.67-6.48,11.7,0,18.9,6.75,18.9,18.9V364.8h-8.1V336.9c0-8.55-4.5-13-12.6-13-9,0-14.4,5.4-14.4,16.65Zm44.75-23.4c0-17.1,11.7-24.75,23-24.75,6.57,0,11.7,2.07,15.48,6.57a1.22,1.22,0,0,0,1,.63c.45,0,.63-.27.63-.72V300h8.1v64.8h-8v-5.22c0-.45-.18-.72-.63-.72a1.22,1.22,0,0,0-1,.63c-3.87,4.59-9,6.66-15.57,6.66C350.05,366.15,338.35,358.5,338.35,341.4Zm8.19,0c0,11.25,6.75,17.55,16.2,17.55s16.2-6.3,16.2-17.55-6.75-17.55-16.2-17.55S346.54,330.15,346.54,341.4ZM431,325.2H419.79V318H431v-3.15c0-10,4.86-14.85,14.85-14.85h9v7.2h-14.4a1.25,1.25,0,0,0-1.35,1.35V318h13.5v7.2h-13.5v39.6H431ZM456.92,351c0-8.1,5.4-13.1,17.1-13.59l17.1-.72V334.2c0-6.66-3.42-10.53-11.7-10.53s-11.61,3.87-11.79,8.73h-8.37c.36-8.91,6.66-15.75,20.16-15.75s19.53,6.84,19.53,18V364.8h-7.74v-4.95a.48.48,0,0,0-.54-.54c-.36,0-.54.09-.9.54-3.33,4.45-8.28,6.3-14.4,6.3C463.67,366.15,456.92,360,456.92,351Zm8.1,0c0,5,4.05,8.1,11.25,8.1,9,0,14.85-5.13,14.85-15v-.54l-17.1.72C467.72,344.55,465,347,465,351Zm63.19-34.38c11.07,0,19.89,4.77,20.79,16.2h-8.28c-.63-6.39-5-9.27-12.51-9.27s-10.71,2.88-10.71,6.75,2.79,5.22,9.18,6.44l6.66,1.25c8.55,1.62,16,4.41,16,13.69s-7.11,14.44-19.17,14.44-21.1-5.22-21.87-16.38h8.24c.63,6.21,5.8,9.45,13.63,9.45s11.07-3,11.07-7.07-3.24-5.44-9.72-6.66l-6.66-1.26c-9.13-1.71-15.48-4.81-15.48-13.81S517.14,316.65,528.21,316.65Zm36.67,8.55h-10.8V318h10.8V305.4H573V318h13.5v7.2H573v31.05a1.25,1.25,0,0,0,1.35,1.35h12.15v7.2h-8.1c-9.14,0-13.5-4.37-13.5-13.5ZM40.14,450H48.6c-1.35,7.11-7.47,16.2-22.32,16.2-15.48,0-23.76-9.45-23.76-24.75s9.18-24.75,23.58-24.75c14.58,0,22.32,9.45,22.32,22.5v4.5H10.57c.55,10.53,7,15.48,15.71,15.48S38.83,455.26,40.14,450Zm-14-26.28c-7.74,0-13.95,4.41-15.3,13.23H40.32C40,428.26,34.65,423.67,26.1,423.67ZM68.77,464.8l-15.66-45V418H61.3l13.41,39.33c.18.54.36.72.9.72s.72-.18.9-.72L89.92,418h8.19v1.8l-15.66,45ZM140.34,450h8.45c-1.35,7.11-7.47,16.2-22.32,16.2-15.47,0-23.75-9.45-23.75-24.75s9.18-24.75,23.57-24.75c14.58,0,22.33,9.45,22.33,22.5v4.5H110.77c.54,10.53,7,15.48,15.7,15.48S139,455.26,140.34,450Zm-14-26.28c-7.73,0-14,4.41-15.29,13.23h29.51C140.15,428.26,134.84,423.67,126.29,423.67Zm40.4,41.13h-8.1V418h8.1v6.3c0,.45.18.63.63.63s.72-.27.9-.72c2.07-4.5,5.31-6.39,11.7-6.39h5.22v7.92h-6.48c-7.83,0-12,3.51-12,12.51Zm37.69,0-15.66-45V418h8.19l13.41,39.33c.18.54.36.72.9.72s.72-.18.9-.72L225.53,418h8.19v1.8l-17.55,50.4c-3.06,8.82-7.56,11.7-17.46,11.7h-7.56v-7.2h13.41a1.72,1.72,0,0,0,1.89-1.12l2.52-6.8c.27-.72.36-1.17.09-1.53s-.45-.45-1.17-.45Zm68.7-39.6h-10.8V418h10.8V405.4h8.1V418h13.5v7.2h-13.5v31.05a1.25,1.25,0,0,0,1.35,1.35h12.15v7.2h-8.1c-9.14,0-13.5-4.37-13.5-13.5Zm28.82-14.4V400h11.7v10.8Zm1.8,54V418h8.1v46.8Zm28.84,0h-8.1V418h8v5.22c0,.45.18.63.63.63s.54-.18,1-.81c2.61-4,7-6.39,13.32-6.39,7.29,0,12.15,3.15,14.76,8.19.27.45.45.72,1,.72s.63-.18,1-.9c2.52-5.13,7.29-8,15.21-8,10.8,0,17.1,7.2,17.1,18.45v29.7h-8.1V436c0-8.1-4-12.15-11.7-12.15-6.3,0-12.15,4-12.15,14.4V464.8h-8.1V436c0-8.1-4.05-12.15-11.7-12.15-6.3,0-12.15,4-12.15,14.4ZM443.65,450h8.46c-1.35,7.11-7.47,16.2-22.32,16.2-15.48,0-23.76-9.45-23.76-24.75s9.18-24.75,23.58-24.75c14.58,0,22.32,9.45,22.32,22.5v4.5H414.08c.54,10.53,7,15.48,15.71,15.48S442.34,455.26,443.65,450Zm-14-26.28c-7.74,0-13.95,4.41-15.3,13.23h29.52C443.47,428.26,438.16,423.67,429.61,423.67Zm58.06,41.13V400h8.64v64.8ZM13.32,564.8H5.22V518h8v5.22c0,.45.18.63.63.63s.63-.27,1-.72c3.06-4,7.83-6.48,14.67-6.48,11.7,0,18.9,6.75,18.9,18.9V564.8h-8.1V536.9c0-8.55-4.5-13-12.6-13-9,0-14.4,5.4-14.4,16.65ZM95.69,550h8.46c-1.35,7.11-7.47,16.2-22.32,16.2-15.48,0-23.76-9.45-23.76-24.75s9.18-24.75,23.58-24.75c14.58,0,22.32,9.45,22.32,22.5v4.5H66.12c.54,10.53,7,15.48,15.71,15.48S94.38,555.26,95.69,550Zm-14-26.28c-7.74,0-14,4.41-15.3,13.23H95.87C95.51,528.26,90.2,523.67,81.65,523.67ZM148.86,550h8.46c-1.35,7.11-7.47,16.2-22.32,16.2-15.48,0-23.76-9.45-23.76-24.75s9.18-24.75,23.58-24.75c14.58,0,22.32,9.45,22.32,22.5v4.5H119.3c.54,10.53,7,15.48,15.7,15.48S147.56,555.26,148.86,550Zm-14-26.28c-7.74,0-13.95,4.41-15.3,13.23H149C148.68,528.26,143.37,523.67,134.82,523.67Zm29.59,17.73c0-17.1,11.71-24.75,23.05-24.75,6.57,0,11.69,2.07,15.48,6.57a1.21,1.21,0,0,0,1,.63c.44,0,.63-.27.63-.72V500h8.09v64.8h-8v-5.22c0-.45-.18-.72-.64-.72a1.19,1.19,0,0,0-1,.63c-3.88,4.59-9,6.66-15.57,6.66C176.12,566.15,164.41,558.5,164.41,541.4Zm8.19,0c0,11.25,6.75,17.55,16.21,17.55S205,552.65,205,541.4s-6.75-17.55-16.19-17.55S172.6,530.15,172.6,541.4ZM247.74,551c0-8.1,5.4-13.1,17.1-13.59l17.1-.72V534.2c0-6.66-3.42-10.53-11.7-10.53s-11.61,3.87-11.79,8.73h-8.37c.36-8.91,6.66-15.75,20.16-15.75s19.53,6.84,19.53,18V564.8H282v-4.95a.48.48,0,0,0-.54-.54c-.36,0-.54.09-.9.54-3.33,4.45-8.28,6.3-14.4,6.3C254.49,566.15,247.74,560,247.74,551Zm8.1,0c0,5,4,8.1,11.25,8.1,9,0,14.85-5.13,14.85-15v-.54l-17.1.72C258.54,544.55,255.84,547,255.84,551Zm54.37,13.77h-8.09V518h8v5.22c0,.45.18.63.63.63s.63-.27,1-.72c3.06-4,7.83-6.48,14.66-6.48,11.71,0,18.91,6.75,18.91,18.9V564.8h-8.11V536.9c0-8.55-4.5-13-12.59-13-9,0-14.41,5.4-14.41,16.65Zm112,0H383.43V500h8.64v57.06h30.15Zm47.38,0H430.81V500h8.64v57.06H469.6Zm1.81-32.4c0-20.25,12.78-33.75,32.58-33.75s29.25,12.19,29.43,26.5h-8.64c-.36-10-6.57-18.76-20.79-18.76-14.4,0-23.85,10.13-23.85,26s9.45,26,23.85,26,21.06-8.73,21.6-20.2h8.64c-.63,15.2-10.44,27.94-30.24,27.94S471.41,552.65,471.41,532.4Zm67.44,32.4V553.1h12.6v11.25l-6.3,11.25h-4v-1.8l3.15-7c.36-.81.45-1.26.18-1.62s-.63-.36-1.17-.36ZM26.91,616.65c13.59,0,24.39,8.55,24.39,24.75s-10.8,24.75-24.39,24.75S2.52,657.6,2.52,641.4,13.32,616.65,26.91,616.65Zm0,7.2c-9.45,0-16.2,6.3-16.2,17.55S17.46,659,26.91,659s16.2-6.3,16.2-17.55S36.36,623.85,26.91,623.85Zm82.54,17.55c0,17.1-11.7,24.75-23,24.75-6.57,0-11.88-2-15.48-6.57a1.22,1.22,0,0,0-1-.63c-.45,0-.63.27-.63.72V681.9h-8.1V618h8v5.22c0,.45.18.72.63.72a1.22,1.22,0,0,0,1-.63c3.69-4.68,9-6.66,15.57-6.66C97.75,616.65,109.45,624.3,109.45,641.4Zm-8.19,0c0-11.25-6.75-17.55-16.2-17.55s-16.2,6.3-16.2,17.55S75.61,659,85.06,659,101.26,652.65,101.26,641.4Zm53,8.55h8.46c-1.35,7.11-7.47,16.2-22.32,16.2-15.48,0-23.76-9.45-23.76-24.75s9.18-24.75,23.58-24.75c14.58,0,22.32,9.45,22.32,22.5v4.5H124.66c.54,10.53,7,15.48,15.7,15.48S152.92,655.26,154.22,650Zm-14-26.28c-7.74,0-14,4.41-15.3,13.23H154.4C154,628.26,148.73,623.67,140.18,623.67Zm40.4,41.13h-8.1V618h8.1v6.3c0,.45.18.63.63.63s.72-.27.9-.72c2.07-4.5,5.31-6.39,11.7-6.39H199v7.92h-6.48c-7.83,0-12,3.51-12,12.51ZM202.92,651c0-8.1,5.4-13.1,17.1-13.59l17.1-.72V634.2c0-6.66-3.42-10.53-11.7-10.53s-11.61,3.87-11.79,8.73h-8.37c.36-8.91,6.66-15.75,20.16-15.75s19.53,6.84,19.53,18V664.8h-7.74v-4.95a.48.48,0,0,0-.54-.54c-.36,0-.54.09-.9.54-3.33,4.45-8.28,6.3-14.4,6.3C209.67,666.15,202.92,660,202.92,651Zm8.1,0c0,5,4,8.1,11.25,8.1,9,0,14.85-5.13,14.85-15v-.54l-17.1.72C213.72,644.55,211,647,211,651Zm51.07-25.83h-10.8V618h10.8V605.4h8.1V618h13.5v7.2h-13.5v31a1.25,1.25,0,0,0,1.35,1.35h12.15v7.2h-8.1c-9.13,0-13.5-4.37-13.5-13.5Zm28.82-14.4V600h11.7v10.8Zm1.8,54V618h8.1v46.8Zm28.84,0h-8.1V618h8v5.22c0,.45.18.63.63.63s.63-.27,1-.72c3.06-4,7.83-6.48,14.67-6.48,11.7,0,18.9,6.75,18.9,18.9V664.8h-8.1V636.9c0-8.55-4.5-13-12.6-13-9,0-14.4,5.4-14.4,16.65Zm45.11,1.53h9c.94,5.85,5.85,9.72,14.49,9.72,9.76,0,15.39-5.76,15.39-15.75v-3.24a.48.48,0,0,0-.54-.54.86.86,0,0,0-.81.45c-3.6,4.68-8.91,6.48-15.3,6.48-11.79,0-22.59-8.1-22.59-23.4s10.8-23.4,22.59-23.4c6.39,0,11.52,2,15.39,6.57.63.81,1,1,1.44,1s.63-.27.81-.81l1.71-5.4h5.4v41.85c0,14.85-8.82,23.4-23.58,23.4C375.57,683.25,367.6,676.23,366.66,666.33Zm7.83-26.28c0,10.35,7.2,16.2,15.75,16.2S406,650.4,406,640.05s-7.2-16.2-15.75-16.2S374.49,629.7,374.49,640.05ZM2.88,751c0-8.1,5.4-13.1,17.1-13.59l17.1-.72V734.2c0-6.66-3.42-10.53-11.7-10.53s-11.61,3.87-11.79,8.73H5.22c.36-8.91,6.66-15.75,20.16-15.75s19.53,6.84,19.53,18V764.8H37.17v-4.95a.48.48,0,0,0-.54-.54c-.36,0-.54.09-.9.54-3.33,4.45-8.28,6.3-14.4,6.3C9.63,766.15,2.88,760,2.88,751Zm8.1,0c0,5,4,8.1,11.25,8.1,9,0,14.85-5.13,14.85-15v-.54l-17.1.72C13.68,744.55,11,747,11,751Zm43.93,15.3h9c1,5.85,5.85,9.72,14.49,9.72,9.77,0,15.39-5.76,15.39-15.75v-3.24a.48.48,0,0,0-.54-.54.86.86,0,0,0-.81.45c-3.6,4.68-8.91,6.48-15.3,6.48-11.79,0-22.59-8.1-22.59-23.4s10.8-23.4,22.59-23.4c6.39,0,11.52,2,15.39,6.57.63.81,1,1,1.44,1s.63-.27.81-.81l1.71-5.4h5.4v41.85c0,14.85-8.82,23.4-23.58,23.4C63.82,783.25,55.86,776.23,54.91,766.33Zm7.83-26.28c0,10.35,7.2,16.2,15.75,16.2s15.75-5.85,15.75-16.2-7.2-16.2-15.75-16.2S62.74,729.7,62.74,740.05Zm59.83,24.75h-8.1V718h8.1v6.3c0,.45.18.63.63.63s.72-.27.9-.72c2.07-4.5,5.31-6.39,11.7-6.39H141v7.92h-6.48c-7.83,0-12,3.51-12,12.51Zm60-14.85H191c-1.35,7.11-7.47,16.2-22.32,16.2-15.48,0-23.76-9.45-23.76-24.75s9.18-24.75,23.58-24.75c14.58,0,22.32,9.45,22.32,22.5v4.5H153c.54,10.53,7,15.48,15.7,15.48S181.22,755.26,182.52,750Zm-14-26.28c-7.74,0-13.95,4.41-15.3,13.23H182.7C182.34,728.26,177,723.67,168.48,723.67ZM235.7,750h8.46c-1.35,7.11-7.47,16.2-22.32,16.2-15.48,0-23.76-9.45-23.76-24.75s9.18-24.75,23.58-24.75c14.58,0,22.32,9.45,22.32,22.5v4.5H206.13c.54,10.53,7,15.48,15.71,15.48S234.39,755.26,235.7,750Zm-14-26.28c-7.74,0-13.95,4.41-15.3,13.23h29.52C235.52,728.26,230.21,723.67,221.66,723.67Zm40.39,41.13H254V718h8v5.22c0,.45.18.63.63.63s.54-.18,1-.81c2.61-4,7-6.39,13.32-6.39,7.29,0,12.15,3.15,14.76,8.19.27.45.45.72,1,.72s.63-.18,1-.9c2.52-5.13,7.29-8,15.21-8,10.8,0,17.1,7.2,17.1,18.45v29.7h-8.1V736c0-8.1-4.05-12.15-11.7-12.15-6.3,0-12.15,4-12.15,14.4V764.8h-8.1V736c0-8.1-4-12.15-11.7-12.15-6.3,0-12.15,4-12.15,14.4ZM373.16,750h8.46c-1.35,7.11-7.47,16.2-22.32,16.2-15.48,0-23.76-9.45-23.76-24.75s9.18-24.75,23.58-24.75c14.58,0,22.32,9.45,22.32,22.5v4.5H343.59c.54,10.53,7,15.48,15.71,15.48S371.85,755.26,373.16,750Zm-14-26.28c-7.74,0-13.95,4.41-15.3,13.23h29.52C373,728.26,367.67,723.67,359.12,723.67Zm40.39,41.13h-8.1V718h8v5.22c0,.45.18.63.63.63s.63-.27,1-.72c3.06-4,7.83-6.48,14.67-6.48,11.7,0,18.9,6.75,18.9,18.9V764.8h-8.1V736.9c0-8.55-4.5-13-12.6-13-9,0-14.4,5.4-14.4,16.65Zm52.25-39.6H441V718h10.8V705.4h8.1V718h13.5v7.2h-13.5v31a1.25,1.25,0,0,0,1.35,1.35h12.15v7.2h-8.1c-9.13,0-13.5-4.37-13.5-13.5Zm28.82,39.6V753.1h12.6v11.25l-6.3,11.25h-4.05v-1.8l3.15-7c.36-.81.45-1.26.18-1.62s-.63-.36-1.17-.36Zm90.68,0H529.77V700h41v7.74h-32.4v19.44h29.25v7.74H538.41v22.14h32.85Zm10.81,0V700h8.64v64.8Zm31.67,0h-8.65V700h15.75l20.7,55.71a.81.81,0,0,0,.91.54c.44,0,.63-.27.63-.72V700h8.63v64.8H636l-20.7-55.71a.79.79,0,0,0-.89-.54c-.46,0-.63.27-.63.72ZM2.88,851c0-8.1,5.4-13.1,17.1-13.59l17.1-.72V834.2c0-6.66-3.42-10.53-11.7-10.53s-11.61,3.87-11.79,8.73H5.22c.36-8.91,6.66-15.75,20.16-15.75s19.53,6.84,19.53,18V864.8H37.17v-4.95a.48.48,0,0,0-.54-.54c-.36,0-.54.09-.9.54-3.33,4.45-8.28,6.3-14.4,6.3C9.63,866.15,2.88,860,2.88,851Zm8.1,0c0,5,4,8.1,11.25,8.1,9,0,14.85-5.13,14.85-15v-.54l-17.1.72C13.68,844.55,11,847,11,851ZM65.35,864.8h-8.1V818h8v5.22c0,.45.18.63.63.63s.63-.27,1-.72c3.06-4,7.83-6.48,14.67-6.48,11.7,0,18.9,6.75,18.9,18.9V864.8h-8.1V836.9c0-8.55-4.5-13-12.6-13-9,0-14.4,5.4-14.4,16.65Zm44.75-23.4c0-17.1,11.7-24.75,23-24.75,6.57,0,11.7,2.07,15.48,6.57a1.22,1.22,0,0,0,1,.63c.45,0,.63-.27.63-.72V800h8.1v64.8h-8v-5.22c0-.45-.18-.72-.63-.72a1.22,1.22,0,0,0-1,.63c-3.87,4.59-9,6.66-15.57,6.66C121.8,866.15,110.1,858.5,110.1,841.4Zm8.19,0c0,11.25,6.75,17.55,16.2,17.55s16.2-6.3,16.2-17.55-6.75-17.55-16.2-17.55S118.29,830.15,118.29,841.4Zm85.58,23.4h-8.1V818h8.1v6.3c0,.45.18.63.63.63s.72-.27.9-.72c2.07-4.5,5.31-6.39,11.7-6.39h5.22v7.92h-6.48c-7.83,0-12,3.51-12,12.51ZM263.82,850h8.46c-1.35,7.11-7.47,16.2-22.32,16.2-15.48,0-23.76-9.45-23.76-24.75s9.18-24.75,23.58-24.75c14.58,0,22.32,9.45,22.32,22.5v4.5H234.26c.54,10.53,7,15.48,15.7,15.48S262.52,855.26,263.82,850Zm-14-26.28c-7.74,0-13.95,4.41-15.3,13.23H264C263.64,828.26,258.33,823.67,249.78,823.67Zm30,42.66h9c.94,5.85,5.85,9.72,14.48,9.72,9.77,0,15.4-5.76,15.4-15.75v-3.24a.48.48,0,0,0-.54-.54.87.87,0,0,0-.82.45c-3.6,4.68-8.91,6.48-15.29,6.48-11.79,0-22.6-8.1-22.6-23.4s10.81-23.4,22.6-23.4c6.38,0,11.52,2,15.38,6.57.64.81,1,1,1.44,1s.64-.27.81-.81l1.72-5.4h5.39v41.85c0,14.85-8.82,23.4-23.58,23.4C288.65,883.25,280.68,876.23,279.74,866.33Zm7.82-26.28c0,10.35,7.2,16.2,15.75,16.2s15.76-5.85,15.76-16.2-7.2-16.2-15.76-16.2S287.56,829.7,287.56,840.05Zm49.93-29.25V800h11.7v10.8Zm1.8,54V818h8.1v46.8ZM377,816.65c11.07,0,19.89,4.77,20.79,16.2h-8.28c-.63-6.39-4.95-9.27-12.51-9.27s-10.71,2.88-10.71,6.75,2.79,5.22,9.18,6.43l6.66,1.26c8.55,1.62,16,4.41,16,13.68s-7.11,14.45-19.17,14.45-21.1-5.22-21.87-16.38h8.24c.63,6.21,5.8,9.45,13.63,9.45s11.07-3,11.07-7.07-3.24-5.44-9.72-6.66l-6.66-1.26c-9.13-1.71-15.48-4.81-15.48-13.81S365.88,816.65,377,816.65Zm36.67,8.55h-10.8V818h10.8V805.4h8.1V818h13.5v7.2h-13.5v31a1.25,1.25,0,0,0,1.35,1.35h12.15v7.2h-8.1c-9.14,0-13.5-4.37-13.5-13.5ZM478.45,850h8.46c-1.35,7.11-7.47,16.2-22.32,16.2-15.48,0-23.76-9.45-23.76-24.75s9.18-24.75,23.58-24.75c14.58,0,22.32,9.45,22.32,22.5v4.5H448.89c.54,10.53,7,15.48,15.7,15.48S477.15,855.26,478.45,850Zm-14-26.28c-7.74,0-14,4.41-15.3,13.23h29.52C478.27,828.26,473,823.67,464.41,823.67ZM504.8,864.8h-8.1V818h8.1v6.3c0,.45.18.63.63.63s.72-.27.9-.72c2.07-4.5,5.31-6.39,11.7-6.39h5.22v7.92h-6.48c-7.83,0-12,3.51-12,12.51Zm60-14.85h8.46c-1.35,7.11-7.47,16.2-22.32,16.2-15.48,0-23.76-9.45-23.76-24.75s9.18-24.75,23.58-24.75c14.58,0,22.32,9.45,22.32,22.5v4.5H535.19c.54,10.53,7,15.48,15.71,15.48S563.45,855.26,564.76,850Zm-14-26.28c-7.74,0-14,4.41-15.3,13.23h29.52C564.58,828.26,559.27,823.67,550.72,823.67Zm29.59,17.73c0-17.1,11.7-24.75,23-24.75,6.57,0,11.7,2.07,15.48,6.57a1.22,1.22,0,0,0,1,.63c.45,0,.63-.27.63-.72V800h8.1v64.8h-8v-5.22c0-.45-.18-.72-.63-.72a1.22,1.22,0,0,0-1,.63c-3.87,4.59-9,6.66-15.57,6.66C592,866.15,580.31,858.5,580.31,841.4Zm8.19,0c0,11.25,6.75,17.55,16.2,17.55s16.2-6.3,16.2-17.55-6.75-17.55-16.2-17.55S588.5,830.15,588.5,841.4ZM2.88,951c0-8.1,5.4-13.1,17.1-13.59l17.1-.72V934.2c0-6.66-3.42-10.53-11.7-10.53s-11.61,3.87-11.79,8.73H5.22c.36-8.91,6.66-15.75,20.16-15.75s19.53,6.84,19.53,18V964.8H37.17v-4.95a.48.48,0,0,0-.54-.54c-.36,0-.54.09-.9.54-3.33,4.45-8.28,6.3-14.4,6.3C9.63,966.15,2.88,960,2.88,951Zm8.1,0c0,5,4,8.1,11.25,8.1,9,0,14.85-5.13,14.85-15v-.54l-17.1.72C13.68,944.55,11,947,11,951Zm43.93,15.3h9c1,5.85,5.85,9.72,14.49,9.72,9.77,0,15.39-5.76,15.39-15.75v-3.24a.48.48,0,0,0-.54-.54.86.86,0,0,0-.81.45c-3.6,4.68-8.91,6.48-15.3,6.48-11.79,0-22.59-8.1-22.59-23.4s10.8-23.4,22.59-23.4c6.39,0,11.52,2,15.39,6.57.63.81,1,1,1.44,1s.63-.27.81-.81l1.71-5.4h5.4v41.85c0,14.85-8.82,23.4-23.58,23.4C63.82,983.25,55.86,976.23,54.91,966.33Zm7.83-26.28c0,10.35,7.2,16.2,15.75,16.2s15.75-5.85,15.75-16.2-7.2-16.2-15.75-16.2S62.74,929.7,62.74,940.05Zm86.65,9.9h8.46c-1.35,7.11-7.47,16.2-22.32,16.2-15.48,0-23.76-9.45-23.76-24.75s9.18-24.75,23.58-24.75c14.58,0,22.32,9.45,22.32,22.5v4.5H119.82c.54,10.53,7,15.48,15.71,15.48S148.08,955.26,149.39,950Zm-14-26.28c-7.74,0-13.95,4.41-15.3,13.23h29.52C149.21,928.26,143.9,923.67,135.35,923.67Zm40.39,41.13h-8.1V918h8v5.22c0,.45.18.63.63.63s.63-.27,1-.72c3.06-4,7.83-6.48,14.67-6.48,11.7,0,18.9,6.75,18.9,18.9V964.8h-8.1V936.9c0-8.55-4.5-13-12.6-13-9,0-14.4,5.4-14.4,16.65ZM228,925.2h-10.8V918H228V905.4h8.1V918h13.5v7.2h-13.5v31a1.25,1.25,0,0,0,1.35,1.35h12.15v7.2h-8.1c-9.13,0-13.5-4.37-13.5-13.5Zm28.82,39.6V953.1h12.6v11.7Zm48.35-63.27q-.81,3.15-2.07,6.84t-2.79,7.38q-1.44,3.6-2.88,6.84h-5.94q.9-3.42,1.71-7.29t1.62-7.74q.81-3.87,1.26-7h8.46Zm-16.65,0q-.81,3.15-2.07,6.84t-2.79,7.38q-1.44,3.6-2.88,6.84H275q.63-2.52,1.26-5.4t1.17-5.76q.63-3,1.08-5.76t.9-5.13h8.46Z"/></g></g></svg>