<svg xmlns="http://www.w3.org/2000/svg" width="162.58" height="16.58" viewBox="0 0 162.58 16.58"><defs><style>.cls-1{fill:#353535;}</style></defs><g id="Layer_2" data-name="Layer 2"><g id="Layer_1-2" data-name="Layer 1"><path class="cls-1" d="M0,13.13V.27H3.35a11.83,11.83,0,0,1,3,.36A7.3,7.3,0,0,1,8.78,1.78a5.45,5.45,0,0,1,1.67,2,6.51,6.51,0,0,1,.62,3,6.6,6.6,0,0,1-.62,3,5.28,5.28,0,0,1-1.66,2,6.74,6.74,0,0,1-2.46,1.1,13,13,0,0,1-3,.33Zm3.35-.63A4.8,4.8,0,0,0,5.55,12a4.39,4.39,0,0,0,1.51-1.25A5.49,5.49,0,0,0,7.93,9a8.86,8.86,0,0,0,.28-2.21,8.9,8.9,0,0,0-.28-2.2,5.34,5.34,0,0,0-.88-1.86A4.57,4.57,0,0,0,5.54,1.4,4.69,4.69,0,0,0,3.35.92H2.57a1,1,0,0,0-.11.36c0,.14,0,.27,0,.39V11.74c0,.12,0,.25,0,.4a.82.82,0,0,0,.13.36Z"/><path class="cls-1" d="M18.64,13.13V11.47a4,4,0,0,1-.59.69,4.36,4.36,0,0,1-.76.6,4,4,0,0,1-.85.43,2.69,2.69,0,0,1-2-.06,2.1,2.1,0,0,1-.78-.58,2.27,2.27,0,0,1-.45-.89,4,4,0,0,1-.15-1.12V5.63a.45.45,0,0,0-.09-.3.53.53,0,0,0-.24-.17,1.42,1.42,0,0,0-.31-.06l-.34,0V4.8l3.43-.36v6a1.94,1.94,0,0,0,.27,1.06,1.05,1.05,0,0,0,1,.42,2.17,2.17,0,0,0,1-.27,3.14,3.14,0,0,0,.85-.65V6.07a1.82,1.82,0,0,0-.06-.54.5.5,0,0,0-.21-.28A.8.8,0,0,0,18,5.14l-.53-.07V4.82l3.61-.36v8.67Z"/><path class="cls-1" d="M23.37,6.38a6.29,6.29,0,0,1,.7-.88,3.33,3.33,0,0,1,.86-.66A4.35,4.35,0,0,1,26,4.41a6.07,6.07,0,0,1,1.42-.15,6.45,6.45,0,0,1,1.33.14,3.58,3.58,0,0,1,1.13.46,2.38,2.38,0,0,1,.78.83A2.49,2.49,0,0,1,31,6.92v6.21H28.55v-1a6.51,6.51,0,0,1-1.34.84,3.52,3.52,0,0,1-1.52.36,3.32,3.32,0,0,1-1-.15,2.43,2.43,0,0,1-.83-.43,2.07,2.07,0,0,1-.58-.75,2.51,2.51,0,0,1-.22-1.1,2.09,2.09,0,0,1,.62-1.55,4.64,4.64,0,0,1,1.48-1A8.55,8.55,0,0,1,27,7.83c.62-.11,1.15-.18,1.58-.22V7c0-.27,0-.54,0-.79a2,2,0,0,0-.11-.68,1.1,1.1,0,0,0-.3-.49,1.06,1.06,0,0,0-.61-.23,1.61,1.61,0,0,0-.78.13,2,2,0,0,0-.68.49,2.72,2.72,0,0,0-.5.82,3.83,3.83,0,0,0-.25,1.13ZM28.55,8a8.85,8.85,0,0,0-.91.16,3.34,3.34,0,0,0-1,.4,2.47,2.47,0,0,0-.81.8,2.16,2.16,0,0,0-.29,1.32A1.72,1.72,0,0,0,26,11.79a1.31,1.31,0,0,0,1,.42,3,3,0,0,0,.79-.13,2.57,2.57,0,0,0,.84-.43Z"/><path class="cls-1" d="M36.11,13.13H33.66V1.85a3,3,0,0,0,0-.61.57.57,0,0,0-.19-.31,1,1,0,0,0-.36-.14A4.65,4.65,0,0,0,32.5.71V.45L36.11.09Z"/><path class="cls-1" d="M44.82,10.83a3.67,3.67,0,0,0,1,.66,3.23,3.23,0,0,0,1.19.23,2.41,2.41,0,0,0,1.52-.46,3.22,3.22,0,0,0,1-1.31l.14.1a4.7,4.7,0,0,1-1.32,2.35,3.46,3.46,0,0,1-2.46.86,4.78,4.78,0,0,1-2.8-.88,4.51,4.51,0,0,1-1.06-1A3.84,3.84,0,0,1,41.38,10a5.61,5.61,0,0,1-.18-2.33,4.1,4.1,0,0,1,.68-1.77,3.76,3.76,0,0,1,1.31-1.14,4,4,0,0,1,1.65-.47h.38a4.41,4.41,0,0,1,1.66.28,3.52,3.52,0,0,1,1.95,1.91,5.23,5.23,0,0,1,.39,1.41Zm-.33-.29A5.43,5.43,0,0,0,46,9.19a3.64,3.64,0,0,0,.65-1.45,3.14,3.14,0,0,0,0-1.06,3,3,0,0,0-.35-.93,2.31,2.31,0,0,0-.62-.66,1.35,1.35,0,0,0-.8-.25H44.8a2,2,0,0,0-.82.21,1.55,1.55,0,0,0-.65.6A2.56,2.56,0,0,0,43,6.75a5.78,5.78,0,0,0,.24,1.69,4.55,4.55,0,0,0,.46,1.13A4.74,4.74,0,0,0,44.49,10.54Z"/><path class="cls-1" d="M53.52,13.13H51.07V1.85a3,3,0,0,0,0-.61.57.57,0,0,0-.19-.31,1,1,0,0,0-.36-.14,4.65,4.65,0,0,0-.56-.08V.45L53.52.09Z"/><path class="cls-1" d="M55.92,6.38a6.29,6.29,0,0,1,.7-.88,3.71,3.71,0,0,1,.86-.66,4.58,4.58,0,0,1,1.11-.43A6,6,0,0,1,60,4.26a6.45,6.45,0,0,1,1.33.14,3.48,3.48,0,0,1,1.13.46,2.32,2.32,0,0,1,1.07,2.06v6.21H61.11v-1a7.1,7.1,0,0,1-1.34.84,3.57,3.57,0,0,1-1.53.36,3.21,3.21,0,0,1-1-.15,2.48,2.48,0,0,1-.84-.43,2.19,2.19,0,0,1-.58-.75,2.67,2.67,0,0,1-.21-1.1,2.09,2.09,0,0,1,.61-1.55,4.69,4.69,0,0,1,1.49-1,8.63,8.63,0,0,1,1.8-.52c.62-.11,1.15-.18,1.59-.22V7c0-.27,0-.54,0-.79A2.69,2.69,0,0,0,61,5.52,1.12,1.12,0,0,0,60.68,5a1,1,0,0,0-.61-.23,1.65,1.65,0,0,0-.78.13,1.87,1.87,0,0,0-.67.49,2.53,2.53,0,0,0-.5.82,3.83,3.83,0,0,0-.26,1.13ZM61.11,8a9,9,0,0,0-.92.16,3.19,3.19,0,0,0-1,.4,2.5,2.5,0,0,0-.82.8,2.23,2.23,0,0,0-.29,1.32,1.73,1.73,0,0,0,.45,1.14,1.3,1.3,0,0,0,1,.42,3,3,0,0,0,.78-.13,2.72,2.72,0,0,0,.85-.43Z"/><path class="cls-1" d="M71.18,7.37c-.09-.29-.17-.59-.26-.91a3.37,3.37,0,0,0-.35-.87A2,2,0,0,0,70,5a1.56,1.56,0,0,0-1-.24,1.41,1.41,0,0,0-.44.08,1.15,1.15,0,0,0-.4.24,1,1,0,0,0-.27.37.88.88,0,0,0,0,.52,1.24,1.24,0,0,0,.49.77,6.93,6.93,0,0,0,1,.62l1.24.62a6.15,6.15,0,0,1,1.21.75,4.24,4.24,0,0,1,.93,1,2.57,2.57,0,0,1,.37,1.42,1.38,1.38,0,0,1-.31.87,2.68,2.68,0,0,1-.81.71,4.39,4.39,0,0,1-1.17.46,5.75,5.75,0,0,1-1.39.17,6.29,6.29,0,0,1-2.32-.44,3.76,3.76,0,0,1-1.79-1.5L66.74,9.8a5.69,5.69,0,0,0,.33.95,4.42,4.42,0,0,0,.55,1,3.08,3.08,0,0,0,.78.75,1.69,1.69,0,0,0,1,.3,1.62,1.62,0,0,0,1.15-.37,1.05,1.05,0,0,0,.32-1,1.16,1.16,0,0,0-.45-.82,5.42,5.42,0,0,0-1-.64c-.37-.2-.77-.39-1.19-.59a8,8,0,0,1-1.18-.66,3.51,3.51,0,0,1-.89-.87,2,2,0,0,1-.36-1.22,2.17,2.17,0,0,1,.31-1.19,2.24,2.24,0,0,1,.8-.73A3.25,3.25,0,0,1,68,4.36a7.49,7.49,0,0,1,1.24-.1,4.52,4.52,0,0,1,1,.11,3.88,3.88,0,0,1,1,.36,4.34,4.34,0,0,1,.91.65,3.61,3.61,0,0,1,.72,1Z"/><path class="cls-1" d="M79.78,11.92a3.36,3.36,0,0,1-1.12,1,2.6,2.6,0,0,1-1.27.34,2.09,2.09,0,0,1-1-.24,2.34,2.34,0,0,1-.72-.64,2.7,2.7,0,0,1-.44-.9,3.6,3.6,0,0,1-.14-1.05V5.76A1,1,0,0,0,74,4.67h-.25V4.49l3.6-2.59h.18V4.44h2.14v.49H77.5v5.54c0,.16,0,.34,0,.55a2.36,2.36,0,0,0,.13.61,1.21,1.21,0,0,0,.29.49.66.66,0,0,0,.51.2,2.24,2.24,0,0,0,1.22-.54Z"/><path class="cls-1" d="M81.25,13.13V6.2a2.13,2.13,0,0,0-.07-.64A.63.63,0,0,0,81,5.24a.65.65,0,0,0-.36-.14L80.09,5V4.78l3.61-.29v8.64Zm1-10a1.55,1.55,0,0,1-1.13-.45,1.53,1.53,0,0,1-.45-1.12A1.54,1.54,0,0,1,81.12.45,1.55,1.55,0,0,1,82.25,0a1.52,1.52,0,0,1,1.57,1.58,1.52,1.52,0,0,1-1.57,1.57Z"/><path class="cls-1" d="M91.65,8.26a7,7,0,0,0,0-1.29,4.35,4.35,0,0,0-.23-1.11A1.9,1.9,0,0,0,91,5.09a1,1,0,0,0-.73-.29,1.94,1.94,0,0,0-1.09.3,2.44,2.44,0,0,0-.74.76,3.56,3.56,0,0,0-.43,1A4.69,4.69,0,0,0,87.83,8a4.2,4.2,0,0,0,.25,1.41,4.39,4.39,0,0,0,.73,1.3,3.88,3.88,0,0,0,1.13,1,3,3,0,0,0,1.49.37,4.85,4.85,0,0,0,1.36-.19,2,2,0,0,0,1.09-.75l.14.11a3.71,3.71,0,0,1-.71.89,4.8,4.8,0,0,1-2.07,1.1,4.45,4.45,0,0,1-1.13.15A4.79,4.79,0,0,1,88.35,13a4.86,4.86,0,0,1-1.46-.91,4.67,4.67,0,0,1-1-1.37A3.91,3.91,0,0,1,85.53,9a5,5,0,0,1,.35-1.94,4.28,4.28,0,0,1,2.46-2.47,5.23,5.23,0,0,1,1.88-.33,4.44,4.44,0,0,1,2.53.62A3.29,3.29,0,0,1,94,6.5Z"/><path class="cls-1" d="M95.78,13.13V6.2a2.13,2.13,0,0,0-.07-.64.63.63,0,0,0-.22-.32.72.72,0,0,0-.36-.14L94.62,5V4.78l3.61-.29v8.64Zm1-10a1.55,1.55,0,0,1-1.13-.45,1.53,1.53,0,0,1-.45-1.12A1.54,1.54,0,0,1,95.65.45,1.55,1.55,0,0,1,96.78,0a1.52,1.52,0,0,1,1.57,1.58,1.52,1.52,0,0,1-1.57,1.57Z"/><path class="cls-1" d="M105.73,11.92a3.39,3.39,0,0,1-1.13,1,2.6,2.6,0,0,1-1.27.34,2.12,2.12,0,0,1-1-.24,2.34,2.34,0,0,1-.72-.64,2.7,2.7,0,0,1-.44-.9,4,4,0,0,1-.14-1.05V5.76a1,1,0,0,0-1.09-1.09h-.25V4.49l3.6-2.59h.18V4.44h2.14v.49h-2.14v5.54c0,.16,0,.34,0,.55a2.36,2.36,0,0,0,.13.61,1.21,1.21,0,0,0,.29.49.68.68,0,0,0,.51.2,2.24,2.24,0,0,0,1.22-.54Z"/><path class="cls-1" d="M106.92,15.15l3.21-1.53-4.24-9.18h2.73l2.63,6.43a13.07,13.07,0,0,0,.94-2.42,7.7,7.7,0,0,0,.31-1.89,3.16,3.16,0,0,0-.22-1.35,1.62,1.62,0,0,0-.68-.77h3.13v.18l-5.27,12-2.54-1.29Z"/><path class="cls-1" d="M124.66,8.26a9.25,9.25,0,0,0,0-1.29,4.35,4.35,0,0,0-.23-1.11,1.9,1.9,0,0,0-.47-.77,1,1,0,0,0-.73-.29,1.91,1.91,0,0,0-1.09.3,2.44,2.44,0,0,0-.74.76,3.3,3.3,0,0,0-.43,1A4.72,4.72,0,0,0,120.83,8a4.22,4.22,0,0,0,.26,1.41,4.6,4.6,0,0,0,.72,1.3,3.92,3.92,0,0,0,1.14,1,2.94,2.94,0,0,0,1.49.37,4.85,4.85,0,0,0,1.36-.19,2,2,0,0,0,1.09-.75l.14.11a3.71,3.71,0,0,1-.71.89,4.8,4.8,0,0,1-2.07,1.1,4.45,4.45,0,0,1-1.13.15,4.82,4.82,0,0,1-3.22-1.25,4.49,4.49,0,0,1-1-1.37,3.92,3.92,0,0,1-.38-1.7,5,5,0,0,1,.36-1.94,4.33,4.33,0,0,1,1-1.51,4.4,4.4,0,0,1,1.48-1,5.19,5.19,0,0,1,1.88-.33,4.4,4.4,0,0,1,2.52.62A3.24,3.24,0,0,1,127,6.5Z"/><path class="cls-1" d="M132.57,13.32a5,5,0,0,1-1.84-.34,4.43,4.43,0,0,1-1.48-.93,4.36,4.36,0,0,1-1-1.43,4.6,4.6,0,0,1-.36-1.83,4.59,4.59,0,0,1,.36-1.85,4.26,4.26,0,0,1,1-1.43,4.43,4.43,0,0,1,1.48-.93,5.23,5.23,0,0,1,1.84-.32,5.28,5.28,0,0,1,1.85.32,4.34,4.34,0,0,1,2.47,2.36,4.59,4.59,0,0,1,.36,1.85,4.6,4.6,0,0,1-.36,1.83,4.52,4.52,0,0,1-1,1.43,4.43,4.43,0,0,1-1.48.93A5.07,5.07,0,0,1,132.57,13.32Zm1-.69a1.46,1.46,0,0,0,.95-.7,3.61,3.61,0,0,0,.4-1.2,6.18,6.18,0,0,0,0-1.36,6.22,6.22,0,0,0-.19-1.16c-.08-.35-.19-.72-.32-1.11a6.74,6.74,0,0,0-.5-1.09,3,3,0,0,0-.74-.83,1.64,1.64,0,0,0-1-.32,2.2,2.2,0,0,0-.58.07,1.45,1.45,0,0,0-.92.69,3.29,3.29,0,0,0-.41,1.19,5.62,5.62,0,0,0,0,1.36,8.49,8.49,0,0,0,.19,1.16,7,7,0,0,0,.36,1,5.57,5.57,0,0,0,.6,1.1,3.6,3.6,0,0,0,.81.88,1.58,1.58,0,0,0,1.4.31Z"/><path class="cls-1" d="M141.85,13.13h-1.09l-4-8.69h2.81a3.1,3.1,0,0,0,.17.55c.12.31.26.68.44,1.12l.57,1.41c.2.51.4,1,.6,1.45s.36.86.51,1.2l.3.7A9.7,9.7,0,0,0,143,8.43a6.48,6.48,0,0,0,.12-1.91,3.16,3.16,0,0,0-.42-1.34,1.85,1.85,0,0,0-.76-.74h3.68v.18Z"/><path class="cls-1" d="M149.66,10.83a3.67,3.67,0,0,0,1,.66,3.23,3.23,0,0,0,1.19.23,2.41,2.41,0,0,0,1.52-.46,3.22,3.22,0,0,0,1-1.31l.14.1a4.7,4.7,0,0,1-1.32,2.35,3.48,3.48,0,0,1-2.46.86,4.78,4.78,0,0,1-2.8-.88,4.51,4.51,0,0,1-1.06-1,3.84,3.84,0,0,1-.65-1.35A5.61,5.61,0,0,1,146,7.67a4,4,0,0,1,.68-1.77A3.67,3.67,0,0,1,148,4.76a4,4,0,0,1,1.65-.47h.38a4.32,4.32,0,0,1,1.65.28,3.27,3.27,0,0,1,1.19.77,3.48,3.48,0,0,1,.77,1.14,5.23,5.23,0,0,1,.39,1.41Zm-.33-.29a5.37,5.37,0,0,0,1.52-1.35,3.67,3.67,0,0,0,.66-1.45,3.14,3.14,0,0,0,0-1.06,2.73,2.73,0,0,0-.36-.93,2.28,2.28,0,0,0-.61-.66,1.35,1.35,0,0,0-.8-.25h-.09a2,2,0,0,0-.82.21,1.55,1.55,0,0,0-.65.6,2.43,2.43,0,0,0-.29,1.1,5.78,5.78,0,0,0,.24,1.69,4.2,4.2,0,0,0,.46,1.13A4.74,4.74,0,0,0,149.33,10.54Z"/><path class="cls-1" d="M155.91,13.13V5.78a1.56,1.56,0,0,0-.07-.55.49.49,0,0,0-.19-.28,1,1,0,0,0-.37-.12l-.53-.07V4.51l3.6-.36v2a5.42,5.42,0,0,1,1.36-1.34,4.39,4.39,0,0,1,.88-.47,2.56,2.56,0,0,1,.93-.18,2.14,2.14,0,0,1,1.06.29L162,7.28c-.59-1-1.25-1.48-2-1.48a2.36,2.36,0,0,0-1.69.9v6.43Z"/></g></g></svg>