<svg xmlns="http://www.w3.org/2000/svg" width="96.19" height="28.25" viewBox="0 0 96.19 28.25"><defs><style>.cls-1{fill:#353535;}</style></defs><g id="Layer_2" data-name="Layer 2"><g id="Layer_1-2" data-name="Layer 1"><path class="cls-1" d="M2.43,13.09H0V.27H2.43v5.9H8.11V.27h2.44V13.09H8.11V6.82l-5.68,0Z"/><path class="cls-1" d="M13.45,13.07V6.17a2,2,0,0,0-.07-.63.62.62,0,0,0-.22-.33.65.65,0,0,0-.36-.13L12.3,5V4.76l3.59-.29v8.6Zm1-9.93a1.49,1.49,0,0,1-1.11-.45,1.5,1.5,0,0,1-.46-1.12A1.49,1.49,0,0,1,13.33.45a1.62,1.62,0,0,1,2.24,0A1.55,1.55,0,0,1,16,1.57a1.56,1.56,0,0,1-.44,1.12A1.51,1.51,0,0,1,14.44,3.14Z"/><path class="cls-1" d="M25.64,4.29a.55.55,0,0,0-.12-.35.92.92,0,0,0-.28-.24,1.29,1.29,0,0,0-.36-.14,1.59,1.59,0,0,0-.36,0,1.44,1.44,0,0,0-.76.2,1.56,1.56,0,0,0-.57.57,3.69,3.69,0,0,1,2,1.14,3.07,3.07,0,0,1,.73,2.12,3.13,3.13,0,0,1-.34,1.5,3.28,3.28,0,0,1-.91,1.08,4,4,0,0,1-1.31.66,5.17,5.17,0,0,1-1.51.23,6.56,6.56,0,0,1-1.07-.1,3.9,3.9,0,0,1-1-.35c-.06.07-.11.15-.17.23a.5.5,0,0,0-.08.27.33.33,0,0,0,.1.25.84.84,0,0,0,.21.18,2.62,2.62,0,0,0,1.1.39c.43.07.88.12,1.36.15l1.41.14a4.67,4.67,0,0,1,1.25.31,2.1,2.1,0,0,1,.9.67,2,2,0,0,1,.34,1.25,2.48,2.48,0,0,1-.38,1.36,3.38,3.38,0,0,1-1,1,4.9,4.9,0,0,1-1.42.6,6.32,6.32,0,0,1-1.62.21,6.53,6.53,0,0,1-1.53-.18,4.1,4.1,0,0,1-1.35-.57,3.1,3.1,0,0,1-1-1,2.86,2.86,0,0,1-.41-1.43l2,0a3.23,3.23,0,0,0,.18,1.13,2.17,2.17,0,0,0,.49.81,2,2,0,0,0,.7.49,2.12,2.12,0,0,0,.83.16,4,4,0,0,0,.94-.11,3,3,0,0,0,.75-.32,1.35,1.35,0,0,0,.48-.5,1.24,1.24,0,0,0,.17-.67,1,1,0,0,0-.31-.82,1.94,1.94,0,0,0-.78-.41A4.88,4.88,0,0,0,22,14c-.35,0-.68,0-1-.09l-1-.14a3.53,3.53,0,0,1-.94-.27,1.67,1.67,0,0,1-.71-.54,1.38,1.38,0,0,1-.29-.91,1.33,1.33,0,0,1,.41-1,3.52,3.52,0,0,1,1-.6,3.06,3.06,0,0,1-1.21-1.21,3.38,3.38,0,0,1-.41-1.66,3,3,0,0,1,.36-1.48A3.34,3.34,0,0,1,19.15,5a4.27,4.27,0,0,1,1.32-.64A5.42,5.42,0,0,1,22,4.15a7,7,0,0,1,.81,0,8.78,8.78,0,0,1,.44-.86,4.6,4.6,0,0,1,.62-.83,3.13,3.13,0,0,1,.78-.63,1.91,1.91,0,0,1,.94-.24,1.61,1.61,0,0,1,.48.08,1.4,1.4,0,0,1,.43.24,1.12,1.12,0,0,1,.31.37,1,1,0,0,1,.11.48Zm-3.75,6.22a1.09,1.09,0,0,0,.8-.31,2.28,2.28,0,0,0,.5-.77,3.75,3.75,0,0,0,.24-1,7.32,7.32,0,0,0,.06-.86,6,6,0,0,0-.07-.88,4,4,0,0,0-.26-1,2.27,2.27,0,0,0-.5-.79,1.07,1.07,0,0,0-.81-.33,1,1,0,0,0-.79.33,2.47,2.47,0,0,0-.49.78,4,4,0,0,0-.24,1,7.17,7.17,0,0,0-.06.85,6.16,6.16,0,0,0,.07.88,3.85,3.85,0,0,0,.26,1,2.54,2.54,0,0,0,.5.79A1.05,1.05,0,0,0,21.89,10.51Z"/><path class="cls-1" d="M30.71,13.07H28.27V1.71a1.94,1.94,0,0,0-.06-.55A.54.54,0,0,0,28,.88a.73.73,0,0,0-.36-.11L27.12.7V.45L30.71.09v6a4,4,0,0,1,.57-.69,5.48,5.48,0,0,1,.75-.6,4.56,4.56,0,0,1,.86-.42,2.52,2.52,0,0,1,.88-.16A2.31,2.31,0,0,1,35.63,5a2.8,2.8,0,0,1,.61,1.9v6.22H33.81v-6a1.56,1.56,0,0,0-.29-1,1.14,1.14,0,0,0-.94-.36,2.51,2.51,0,0,0-1,.23,3.15,3.15,0,0,0-.86.6Z"/><path class="cls-1" d="M44.88,10.78a3.43,3.43,0,0,0,1,.65,3,3,0,0,0,1.18.24,2.44,2.44,0,0,0,1.51-.46,3.22,3.22,0,0,0,1-1.31l.14.11a4.72,4.72,0,0,1-1.32,2.33,3.45,3.45,0,0,1-2.45.86A4.89,4.89,0,0,1,44.48,13a4.51,4.51,0,0,1-1.32-.65,4.46,4.46,0,0,1-1.06-1A3.93,3.93,0,0,1,41.45,10a5.52,5.52,0,0,1-.18-2.31A4.06,4.06,0,0,1,42,5.87a3.64,3.64,0,0,1,1.3-1.14,4.07,4.07,0,0,1,1.64-.46h.38a4.6,4.6,0,0,1,1.65.28,3.71,3.71,0,0,1,1.18.77,3.45,3.45,0,0,1,.76,1.14,5.26,5.26,0,0,1,.39,1.4Zm-.33-.29a5.51,5.51,0,0,0,1.52-1.35,3.55,3.55,0,0,0,.65-1.44,3.14,3.14,0,0,0,0-1.06,2.83,2.83,0,0,0-.35-.92,2.27,2.27,0,0,0-.62-.65A1.34,1.34,0,0,0,45,4.81h-.09A2.31,2.31,0,0,0,44,5a1.6,1.6,0,0,0-.64.6,2.43,2.43,0,0,0-.29,1.1,5.72,5.72,0,0,0,.24,1.68,4,4,0,0,0,.46,1.12A4.78,4.78,0,0,0,44.55,10.49Z"/><path class="cls-1" d="M53.53,13.07H51.1V5.75A1.94,1.94,0,0,0,51,5.2a.6.6,0,0,0-.2-.28.85.85,0,0,0-.36-.12l-.54-.06V4.49l3.59-.36v2a4.39,4.39,0,0,1,.62-.69,4.91,4.91,0,0,1,.8-.6,5.1,5.1,0,0,1,.92-.42,2.84,2.84,0,0,1,.93-.16,2.54,2.54,0,0,1,2,.71,2.68,2.68,0,0,1,.66,1.9v6.22H57v-6a1.45,1.45,0,0,0-.32-1,1.34,1.34,0,0,0-1.06-.36,3,3,0,0,0-1.12.23,3.46,3.46,0,0,0-1,.6Z"/><path class="cls-1" d="M64.82,10.78a3.43,3.43,0,0,0,1,.65,3,3,0,0,0,1.18.24,2.42,2.42,0,0,0,1.51-.46,3.22,3.22,0,0,0,1-1.31l.14.11a4.79,4.79,0,0,1-1.31,2.33,3.48,3.48,0,0,1-2.46.86A4.89,4.89,0,0,1,64.42,13a4.51,4.51,0,0,1-1.32-.65,4.66,4.66,0,0,1-1.06-1A4.12,4.12,0,0,1,61.39,10a5.87,5.87,0,0,1-.18-2.31,4.06,4.06,0,0,1,.69-1.77,3.64,3.64,0,0,1,1.3-1.14,4.07,4.07,0,0,1,1.64-.46h.38a4.6,4.6,0,0,1,1.65.28,3.71,3.71,0,0,1,1.18.77,3.45,3.45,0,0,1,.76,1.14,5.26,5.26,0,0,1,.39,1.4Zm-.32-.29A5.46,5.46,0,0,0,66,9.14a3.42,3.42,0,0,0,.65-1.44,2.9,2.9,0,0,0,0-1.06,2.83,2.83,0,0,0-.35-.92,2.24,2.24,0,0,0-.61-.65,1.36,1.36,0,0,0-.8-.26H64.8A2.31,2.31,0,0,0,64,5a1.6,1.6,0,0,0-.64.6,2.43,2.43,0,0,0-.29,1.1,5.72,5.72,0,0,0,.24,1.68,4,4,0,0,0,.46,1.12A4.49,4.49,0,0,0,64.5,10.49Z"/><path class="cls-1" d="M71,13.07V5.75A1.94,1.94,0,0,0,71,5.2a.54.54,0,0,0-.2-.28.85.85,0,0,0-.36-.12l-.53-.06V4.49l3.59-.36v2a4.43,4.43,0,0,1,.58-.69,5.23,5.23,0,0,1,.77-.64,4.31,4.31,0,0,1,.87-.47,2.56,2.56,0,0,1,.93-.18,2.13,2.13,0,0,1,1.05.29l-.54,2.83c-.59-1-1.25-1.48-2-1.48a2.33,2.33,0,0,0-1.67.9v6.4Z"/><path class="cls-1" d="M86.06,4.29a.55.55,0,0,0-.12-.35.81.81,0,0,0-.28-.24,1.18,1.18,0,0,0-.36-.14,1.59,1.59,0,0,0-.36,0,1.44,1.44,0,0,0-.76.2,1.56,1.56,0,0,0-.57.57,3.69,3.69,0,0,1,2,1.14,3.07,3.07,0,0,1,.73,2.12A3.13,3.13,0,0,1,86,9.05a3.28,3.28,0,0,1-.91,1.08,4,4,0,0,1-1.31.66,5.17,5.17,0,0,1-1.51.23,6.66,6.66,0,0,1-1.07-.1,3.71,3.71,0,0,1-1-.35,2,2,0,0,0-.18.23.5.5,0,0,0-.08.27.37.37,0,0,0,.1.25.84.84,0,0,0,.21.18,2.62,2.62,0,0,0,1.1.39c.43.07.89.12,1.36.15l1.41.14a4.67,4.67,0,0,1,1.25.31,2.1,2.1,0,0,1,.9.67,2,2,0,0,1,.34,1.25,2.4,2.4,0,0,1-.38,1.36,3.38,3.38,0,0,1-1,1,4.9,4.9,0,0,1-1.42.6,6.32,6.32,0,0,1-1.62.21,6.53,6.53,0,0,1-1.53-.18,4.1,4.1,0,0,1-1.35-.57,3.1,3.1,0,0,1-1-1,3,3,0,0,1-.41-1.43l2,0a3.23,3.23,0,0,0,.18,1.13,2.17,2.17,0,0,0,.49.81,2,2,0,0,0,.7.49,2.15,2.15,0,0,0,.83.16,4,4,0,0,0,.94-.11,2.87,2.87,0,0,0,.75-.32,1.35,1.35,0,0,0,.48-.5,1.24,1.24,0,0,0,.17-.67,1,1,0,0,0-.31-.82,1.94,1.94,0,0,0-.78-.41,4.88,4.88,0,0,0-1-.16c-.35,0-.68,0-1-.09l-1-.14a3.53,3.53,0,0,1-.94-.27,1.67,1.67,0,0,1-.71-.54,1.38,1.38,0,0,1-.28-.91,1.32,1.32,0,0,1,.4-1,3.52,3.52,0,0,1,1-.6,3.06,3.06,0,0,1-1.21-1.21,3.38,3.38,0,0,1-.41-1.66,3,3,0,0,1,.36-1.48A3.46,3.46,0,0,1,79.57,5a4.27,4.27,0,0,1,1.32-.64,5.42,5.42,0,0,1,1.49-.21,7,7,0,0,1,.81,0,7.15,7.15,0,0,1,.45-.86,4.13,4.13,0,0,1,.61-.83A3.32,3.32,0,0,1,85,1.88,1.91,1.91,0,0,1,86,1.64a1.61,1.61,0,0,1,.48.08,1.29,1.29,0,0,1,.43.24,1.12,1.12,0,0,1,.31.37,1,1,0,0,1,.12.48Zm-3.75,6.22a1.07,1.07,0,0,0,.8-.31,2.28,2.28,0,0,0,.5-.77,3.75,3.75,0,0,0,.24-1,7.58,7.58,0,0,0,.07-.86,6.09,6.09,0,0,0-.08-.88,4,4,0,0,0-.26-1,2.27,2.27,0,0,0-.5-.79,1.07,1.07,0,0,0-.81-.33,1,1,0,0,0-.79.33,2.47,2.47,0,0,0-.49.78,4,4,0,0,0-.24,1,7.17,7.17,0,0,0-.06.85,6.16,6.16,0,0,0,.07.88,4.33,4.33,0,0,0,.26,1,2.54,2.54,0,0,0,.5.79A1.05,1.05,0,0,0,82.31,10.51Z"/><path class="cls-1" d="M88.42,15.07l3.19-1.51L87.4,4.42h2.72l2.61,6.4a13,13,0,0,0,.94-2.41A8.61,8.61,0,0,0,94,6.53a3.18,3.18,0,0,0-.23-1.35,1.58,1.58,0,0,0-.67-.76h3.11V4.6L91,16.5l-2.53-1.28Z"/><path class="cls-1" d="M35.7,23.22a7,7,0,0,0,0-1.29,4.37,4.37,0,0,0-.22-1.1,2,2,0,0,0-.47-.76,1,1,0,0,0-.73-.29,1.9,1.9,0,0,0-1.08.3,2.31,2.31,0,0,0-.74.75,3.3,3.3,0,0,0-.43,1,4.55,4.55,0,0,0-.13,1.08,4.1,4.1,0,0,0,.25,1.4,4.46,4.46,0,0,0,.72,1.3,3.7,3.7,0,0,0,1.13.95,2.94,2.94,0,0,0,1.49.37,4.84,4.84,0,0,0,1.35-.19A2,2,0,0,0,37.92,26l.14.1a3.32,3.32,0,0,1-.71.89,4.59,4.59,0,0,1-1,.67,5,5,0,0,1-1.09.43,4.92,4.92,0,0,1-1.13.14A4.7,4.7,0,0,1,31,27a4.29,4.29,0,0,1-1-1.36A3.9,3.9,0,0,1,29.61,24,5.07,5.07,0,0,1,30,22a4.37,4.37,0,0,1,1-1.49,4.21,4.21,0,0,1,1.48-1,5.14,5.14,0,0,1,1.87-.33,4.29,4.29,0,0,1,2.51.62A3.17,3.17,0,0,1,38,21.47Z"/><path class="cls-1" d="M43.58,28.25a5.05,5.05,0,0,1-1.84-.33,4.33,4.33,0,0,1-2.45-2.35,4.83,4.83,0,0,1,0-3.66,4.38,4.38,0,0,1,1-1.43,4.46,4.46,0,0,1,1.47-.92,5.45,5.45,0,0,1,3.68,0,4.26,4.26,0,0,1,1.47.92,4.38,4.38,0,0,1,1,1.43,4.83,4.83,0,0,1,0,3.66,4.45,4.45,0,0,1-1,1.42,4.29,4.29,0,0,1-1.47.93A5,5,0,0,1,43.58,28.25Zm1-.68a1.42,1.42,0,0,0,.93-.7,3.1,3.1,0,0,0,.4-1.2,6.07,6.07,0,0,0,0-1.35,7.23,7.23,0,0,0-.19-1.15,11.19,11.19,0,0,0-.33-1.1A5.31,5.31,0,0,0,44.89,21a2.68,2.68,0,0,0-.73-.83,1.65,1.65,0,0,0-1-.33,2.71,2.71,0,0,0-.58.07,1.47,1.47,0,0,0-.92.69,3.22,3.22,0,0,0-.4,1.19,5.52,5.52,0,0,0,0,1.35,7.38,7.38,0,0,0,.19,1.16,7.71,7.71,0,0,0,.35,1,6.82,6.82,0,0,0,.6,1.09,3.74,3.74,0,0,0,.81.87,1.6,1.6,0,0,0,1,.36A1.68,1.68,0,0,0,44.54,27.57Z"/><path class="cls-1" d="M50.16,28.07V20.75a1.94,1.94,0,0,0-.06-.55.54.54,0,0,0-.2-.28.85.85,0,0,0-.36-.12L49,19.74v-.25l3.59-.36v2a4.43,4.43,0,0,1,.58-.69,5.23,5.23,0,0,1,.77-.64,4.6,4.6,0,0,1,.87-.47,2.56,2.56,0,0,1,.93-.18,2.13,2.13,0,0,1,1,.29l-.54,2.83c-.59-1-1.25-1.48-2-1.48a2.33,2.33,0,0,0-1.67.9v6.4Z"/><path class="cls-1" d="M60.84,25.78a3.51,3.51,0,0,0,1,.65,3,3,0,0,0,1.18.24,2.45,2.45,0,0,0,1.52-.46,3.2,3.2,0,0,0,1-1.31l.15.11a4.8,4.8,0,0,1-1.32,2.33,3.45,3.45,0,0,1-2.45.86A4.89,4.89,0,0,1,60.44,28a4.51,4.51,0,0,1-1.32-.65,4.46,4.46,0,0,1-1.06-1A3.93,3.93,0,0,1,57.41,25a5.52,5.52,0,0,1-.18-2.31,4.06,4.06,0,0,1,.69-1.77,3.61,3.61,0,0,1,1.29-1.14,4.16,4.16,0,0,1,1.64-.46h.38a4.52,4.52,0,0,1,1.65.28,3.52,3.52,0,0,1,1.95,1.91,5.26,5.26,0,0,1,.39,1.4Zm-.33-.29A5.51,5.51,0,0,0,62,24.14a3.55,3.55,0,0,0,.65-1.44,3.14,3.14,0,0,0,0-1.06,3.08,3.08,0,0,0-.35-.92,2.27,2.27,0,0,0-.62-.65,1.34,1.34,0,0,0-.79-.26h-.09A2.31,2.31,0,0,0,60,20a1.6,1.6,0,0,0-.64.6,2.31,2.31,0,0,0-.29,1.1,5.66,5.66,0,0,0,.23,1.68,4.34,4.34,0,0,0,.46,1.12A4.49,4.49,0,0,0,60.51,25.49Z"/></g></g></svg>