<svg xmlns="http://www.w3.org/2000/svg" viewBox="0 0 112.85 43.3"><defs><style>.cls-1{opacity:0.96;}.cls-2{fill:#fff;}</style></defs><g id="Layer_2" data-name="Layer 2"><g id="Layer_1-2" data-name="Layer 1"><g class="cls-1"><path class="cls-2" d="M28,5.25c-3.1,0-5.5,2.33-5.5,7.34s2.4,7.35,5.5,7.35a6.66,6.66,0,0,0,4.13-1.45l2,5.25a13.5,13.5,0,0,1-6.2,1.45c-6.53,0-11.79-4.78-11.79-12.6S21.39,0,27.92,0a13.5,13.5,0,0,1,6.2,1.45l-2,5.25A6.66,6.66,0,0,0,28,5.25Z"/><path class="cls-2" d="M41.11,17.65a2,2,0,0,0,2,2.29,2,2,0,0,0,2.1-2.29V7.34h5.89V24.85H46.3l-.56-3H45.4c0,2.06-1.66,3.37-4.56,3.37-4.3,0-5.63-3-5.63-5.83v-12h5.9Z"/><path class="cls-2" d="M62.16,12.26c-1.57,0-2.9,1.28-2.9,3.84s1.33,3.84,2.9,3.84a3.45,3.45,0,0,0,3-1.69L68,23.4a9.17,9.17,0,0,1-5.73,1.79c-5,0-9-3.2-9-9.09s4.06-9.1,9-9.1A9.23,9.23,0,0,1,68,8.79l-2.83,5.12A3.48,3.48,0,0,0,62.16,12.26Z"/><path class="cls-2" d="M69.71.34h5.9v6h-5.9Zm0,7h5.9V24.85h-5.9Z"/><path class="cls-2" d="M88.37,14.55a2,2,0,0,0-2-2.29,2,2,0,0,0-2.1,2.29v10.3h-5.9V7.34H83.2l.54,3h.36c0-2,1.64-3.34,4.53-3.34,4.33,0,5.63,3,5.63,5.83v12H88.37Z"/><path class="cls-2" d="M96.53,8.79C98.09,7.58,101.12,7,103.69,7c5.49,0,9.16,2.77,9.16,7.11V24.85H108l-.53-3h-.37c-.13,3-3,3.37-4.53,3.37-4.33,0-6.32-3-6.32-5.83,0-3.84,3.69-5.69,7-5.69a5.3,5.3,0,0,1,4.26,1.65l.3-.17a3.76,3.76,0,0,0-4-2.89c-1.57,0-3.83.6-4.4,1.65Zm8.09,8c-1.43,0-2.5.67-2.5,1.71s.87,1.49,2,1.49A2.85,2.85,0,0,0,107,17.28,5.69,5.69,0,0,0,104.62,16.74Z"/></g><g class="cls-1"><path class="cls-2" d="M5.92,35.2V43H0V19.76H4.94l.54,2.81h.31c.48-2.12,2.38-3.13,4.91-3.13,5.54,0,6.39,4.87,6.39,7.28,0,3.7-2.06,7.18-5.7,7V34l1,.06a2.3,2.3,0,0,1,1.93,1.46L18,43H11.42L8.1,36.31A1.81,1.81,0,0,0,6.39,35.2ZM11,27.32c0-1.61-.85-3-2.56-3a2.24,2.24,0,0,0-2.5,2.19v3.76h1.3C9.75,30.29,11,29.25,11,27.32Z"/><path class="cls-2" d="M26.65,26.21c4.71,0,8.57,3,8.57,8.55s-3.86,8.54-8.57,8.54-8.58-3-8.58-8.54S21.93,26.21,26.65,26.21Zm0,12.15c1.52,0,2.81-1.2,2.81-3.6s-1.29-3.61-2.81-3.61-2.82,1.2-2.82,3.61S25.1,38.36,26.65,38.36Z"/><path class="cls-2" d="M45.7,33.3c0-1.3-.54-2.15-1.43-2.15-.44,0-1.52.19-1.52,2.15V43h-5.6V26.53h4.62l.51,2.81h.35c0-1.89,1.39-3.13,3.83-3.13s4.17,1.36,4.36,3.13h.35c0-1.89,1.43-3.13,3.83-3.13,3.7,0,4.84,2.85,4.84,5.48V43H54.27V33.3c0-1.3-.57-2.15-1.45-2.15-.45,0-1.52.19-1.52,2.15V43H45.7Z"/><path class="cls-2" d="M62,27.89c1.49-1.14,4.37-1.68,6.81-1.68,5.22,0,8.7,2.6,8.7,6.68V43H72.88l-.51-2.84H72C71.9,43,69.15,43.3,67.72,43.3c-4.11,0-6-2.85-6-5.47,0-3.61,3.51-5.35,6.61-5.35A5,5,0,0,1,72.37,34l.29-.16a3.58,3.58,0,0,0-3.77-2.72c-1.48,0-3.64.57-4.18,1.55Zm7.69,7.47c-1.36,0-2.37.63-2.37,1.61s.82,1.39,1.87,1.39a2.69,2.69,0,0,0,2.72-2.5A5.58,5.58,0,0,0,69.68,35.36Z"/><path class="cls-2" d="M89.4,33.3a2,2,0,1,0-3.93,0V43h-5.6V26.53h4.62L85,29.34h.35c0-1.89,1.55-3.13,4.3-3.13,4.12,0,5.35,2.85,5.35,5.48V43H89.4Z"/><path class="cls-2" d="M97.15,27.89c1.49-1.14,4.37-1.68,6.81-1.68,5.22,0,8.7,2.6,8.7,6.68V43H108l-.51-2.84h-.35c-.12,2.84-2.88,3.16-4.3,3.16-4.12,0-6-2.85-6-5.47,0-3.61,3.51-5.35,6.61-5.35a5,5,0,0,1,4,1.55l.29-.16a3.59,3.59,0,0,0-3.77-2.72c-1.49,0-3.64.57-4.18,1.55Zm7.69,7.47c-1.36,0-2.37.63-2.37,1.61s.82,1.39,1.86,1.39a2.71,2.71,0,0,0,2.73-2.5A5.61,5.61,0,0,0,104.84,35.36Z"/></g></g></g></svg>