<svg xmlns="http://www.w3.org/2000/svg" viewBox="0 0 265.06 31.51"><defs><style>.cls-1{fill:#131c42;}.cls-2{fill:#38ad49;}.cls-3{fill:#fff;}</style></defs><g id="Layer_2" data-name="Layer 2"><g id="Layer_1-2" data-name="Layer 1"><path class="cls-1" d="M4.51,6.6V7.89H0V6.6Z"/><path class="cls-1" d="M9.72,11.54H8.09L11.75,1.37h1.77l3.66,10.17H15.55L12.68,3.22H12.6Zm.27-4h5.28V8.85H10Z"/><path class="cls-1" d="M23.37,3.91,20.6,11.54H19L16.24,3.91h1.6l1.93,5.87h.08l1.93-5.87Z"/><path class="cls-1" d="M27,11.69a3.48,3.48,0,0,1-1.87-.49,3.3,3.3,0,0,1-1.24-1.37,4.51,4.51,0,0,1-.44-2.07,4.51,4.51,0,0,1,.44-2.07,3.21,3.21,0,0,1,1.24-1.38,3.75,3.75,0,0,1,3.74,0A3.23,3.23,0,0,1,30.1,5.69a4.64,4.64,0,0,1,.44,2.07,4.64,4.64,0,0,1-.44,2.07,3.32,3.32,0,0,1-1.25,1.37A3.45,3.45,0,0,1,27,11.69Zm0-1.24a1.82,1.82,0,0,0,1.15-.37,2.25,2.25,0,0,0,.68-1A4.09,4.09,0,0,0,29,7.76a4.15,4.15,0,0,0-.22-1.35,2.25,2.25,0,0,0-.68-1,2,2,0,0,0-2.31,0,2.1,2.1,0,0,0-.68,1,3.9,3.9,0,0,0-.22,1.35,3.85,3.85,0,0,0,.22,1.34,2.1,2.1,0,0,0,.68,1A1.81,1.81,0,0,0,27,10.45Z"/><path class="cls-1" d="M32.21,2.74a.93.93,0,0,1-.66-.26.87.87,0,0,1-.28-.63.87.87,0,0,1,.28-.63A.93.93,0,0,1,32.21,1a1,1,0,0,1,.67.26.87.87,0,0,1,0,1.26A1,1,0,0,1,32.21,2.74Zm-.75,8.8V3.91H33v7.63Z"/><path class="cls-1" d="M37.07,11.69a2.9,2.9,0,0,1-1.64-.48,3.11,3.11,0,0,1-1.14-1.35,5.07,5.07,0,0,1-.41-2.12,4.84,4.84,0,0,1,.42-2.11,3.18,3.18,0,0,1,1.14-1.35,3,3,0,0,1,1.64-.47,2.4,2.4,0,0,1,1.15.24,2.08,2.08,0,0,1,.67.55,5.07,5.07,0,0,1,.38.55h.09V1.37h1.48V11.54H39.4V10.35h-.12a3.61,3.61,0,0,1-.39.56,2.18,2.18,0,0,1-.69.55A2.44,2.44,0,0,1,37.07,11.69Zm.33-1.27a1.68,1.68,0,0,0,1.08-.34,2,2,0,0,0,.68-.94,4.09,4.09,0,0,0,.23-1.41,3.89,3.89,0,0,0-.23-1.39,2,2,0,0,0-.67-.93,1.94,1.94,0,0,0-2.21,0,2.08,2.08,0,0,0-.67,1,3.84,3.84,0,0,0-.23,1.36,3.94,3.94,0,0,0,.23,1.37,2.16,2.16,0,0,0,.68,1A1.77,1.77,0,0,0,37.4,10.42Z"/><path class="cls-1" d="M46.7,1.37V11.54H45.22V1.37Z"/><path class="cls-1" d="M50.19,11.71a3.1,3.1,0,0,1-1.31-.27,2.13,2.13,0,0,1-1.27-2.06,2,2,0,0,1,.25-1.06,1.84,1.84,0,0,1,.67-.66,3.92,3.92,0,0,1,.94-.37,9.18,9.18,0,0,1,1.07-.18L51.65,7a1.55,1.55,0,0,0,.62-.17.41.41,0,0,0,.19-.38v0a1.37,1.37,0,0,0-.36-1A1.51,1.51,0,0,0,51,5a1.9,1.9,0,0,0-1.18.33,1.82,1.82,0,0,0-.59.73l-1.4-.32a2.7,2.7,0,0,1,.73-1.12A2.92,2.92,0,0,1,49.68,4,4.33,4.33,0,0,1,51,3.81a4.81,4.81,0,0,1,1,.11,2.83,2.83,0,0,1,1,.39,2.13,2.13,0,0,1,.73.81A2.72,2.72,0,0,1,54,6.48v5.06H52.5v-1h-.06a2,2,0,0,1-.43.56,2.17,2.17,0,0,1-.74.46A2.71,2.71,0,0,1,50.19,11.71Zm.32-1.19a2.1,2.1,0,0,0,1.06-.25,1.77,1.77,0,0,0,.67-.63,1.72,1.72,0,0,0,.23-.85v-1a.82.82,0,0,1-.31.14,4.83,4.83,0,0,1-.51.12l-.56.08-.46.06a3.66,3.66,0,0,0-.79.19,1.31,1.31,0,0,0-.56.37.92.92,0,0,0-.21.63,1,1,0,0,0,.4.84A1.85,1.85,0,0,0,50.51,10.52Z"/><path class="cls-1" d="M58.76,3.91v1.2H54.6V3.91Zm-3-1.82H57.2V9.3a1.27,1.27,0,0,0,.13.65.62.62,0,0,0,.33.29,1.33,1.33,0,0,0,.45.08,1.42,1.42,0,0,0,.31,0l.21,0,.27,1.23a2.64,2.64,0,0,1-.37.1,2.43,2.43,0,0,1-.59.06,2.54,2.54,0,0,1-1.1-.21,1.89,1.89,0,0,1-.81-.67,2,2,0,0,1-.32-1.15Z"/><path class="cls-1" d="M62.88,11.69a3.75,3.75,0,0,1-1.94-.48,3.2,3.2,0,0,1-1.25-1.37,4.57,4.57,0,0,1-.44-2.06,4.67,4.67,0,0,1,.44-2.07,3.35,3.35,0,0,1,1.23-1.4,3.45,3.45,0,0,1,1.86-.5A3.83,3.83,0,0,1,64,4a2.92,2.92,0,0,1,1.08.67,3,3,0,0,1,.76,1.18,4.87,4.87,0,0,1,.28,1.77v.52H60.09V7.06H64.7a2.19,2.19,0,0,0-.24-1,1.86,1.86,0,0,0-.67-.72,1.93,1.93,0,0,0-1-.26,1.86,1.86,0,0,0-1.09.31,2,2,0,0,0-.72.79,2.27,2.27,0,0,0-.25,1.06v.87A2.87,2.87,0,0,0,61,9.37a1.89,1.89,0,0,0,.76.82,2.28,2.28,0,0,0,1.13.28,2.3,2.3,0,0,0,.77-.12,1.65,1.65,0,0,0,.6-.37,1.56,1.56,0,0,0,.39-.6l1.41.25a2.51,2.51,0,0,1-.61,1.09,2.85,2.85,0,0,1-1.08.72A4.08,4.08,0,0,1,62.88,11.69Z"/><path class="cls-1" d="M73.69,3.91v1.2H69.38V3.91Zm-3.13,7.63V3a2.11,2.11,0,0,1,.31-1.19,1.91,1.91,0,0,1,.83-.71A2.62,2.62,0,0,1,72.82.89a3.44,3.44,0,0,1,.77.08,2.64,2.64,0,0,1,.47.13l-.35,1.2-.27-.07a1.54,1.54,0,0,0-.4,0,1,1,0,0,0-.77.26,1.19,1.19,0,0,0-.23.78v8.31Z"/><path class="cls-1" d="M75.24,2.74a.93.93,0,0,1-.66-.26.85.85,0,0,1,0-1.26,1,1,0,0,1,1.32,0,.87.87,0,0,1,.28.63.87.87,0,0,1-.28.63A.93.93,0,0,1,75.24,2.74Zm-.75,8.8V3.91H76v7.63Z"/><path class="cls-1" d="M78.73,1.37V11.54H77.24V1.37Z"/><path class="cls-1" d="M80.75,2.74a1,1,0,0,1-.67-.26.87.87,0,0,1,0-1.26,1,1,0,0,1,1.33,0,.87.87,0,0,1,0,1.26A1,1,0,0,1,80.75,2.74ZM80,11.54V3.91h1.48v7.63Z"/><path class="cls-1" d="M84.23,7v4.53H82.75V3.91h1.42V5.15h.1a2.2,2.2,0,0,1,.82-1,2.62,2.62,0,0,1,1.43-.37,2.71,2.71,0,0,1,1.36.33,2.2,2.2,0,0,1,.91,1,3.4,3.4,0,0,1,.32,1.58v4.85H87.63V6.87a1.82,1.82,0,0,0-.43-1.3A1.56,1.56,0,0,0,86,5.1a1.87,1.87,0,0,0-.92.22,1.67,1.67,0,0,0-.63.66A2.18,2.18,0,0,0,84.23,7Z"/><path class="cls-1" d="M93.57,14.56A4.49,4.49,0,0,1,92,14.32a3.09,3.09,0,0,1-1.07-.63,2.61,2.61,0,0,1-.61-.86l1.27-.53a2.81,2.81,0,0,0,.36.47,2,2,0,0,0,.62.42,2.57,2.57,0,0,0,1,.17A2.24,2.24,0,0,0,95,13a1.51,1.51,0,0,0,.55-1.3v-1.5h-.09a3.55,3.55,0,0,1-.39.54,2.12,2.12,0,0,1-.69.52,2.61,2.61,0,0,1-1.13.22A3.2,3.2,0,0,1,91.6,11a2.92,2.92,0,0,1-1.14-1.26,4.47,4.47,0,0,1-.42-2,4.93,4.93,0,0,1,.41-2.09,3.18,3.18,0,0,1,1.14-1.33,3,3,0,0,1,1.65-.47,2.35,2.35,0,0,1,1.14.24,2.29,2.29,0,0,1,.69.55,5.07,5.07,0,0,1,.38.55h.11V3.91H97v7.8a2.65,2.65,0,0,1-.46,1.61,2.71,2.71,0,0,1-1.23.94A4.83,4.83,0,0,1,93.57,14.56Zm0-4.37a1.91,1.91,0,0,0,1.09-.3A1.85,1.85,0,0,0,95.32,9a3.67,3.67,0,0,0,.23-1.35,3.76,3.76,0,0,0-.23-1.36,2.12,2.12,0,0,0-.67-.92,1.86,1.86,0,0,0-1.1-.33,1.77,1.77,0,0,0-1.11.35,2.14,2.14,0,0,0-.68.94,3.66,3.66,0,0,0-.22,1.32A3.52,3.52,0,0,0,91.77,9a2,2,0,0,0,.68.89A1.83,1.83,0,0,0,93.55,10.19Z"/><path class="cls-1" d="M101.25,14.4V3.91h1.45V5.15h.13a3.78,3.78,0,0,1,.37-.55,2.2,2.2,0,0,1,.67-.55A2.37,2.37,0,0,1,105,3.81a3,3,0,0,1,1.64.47,3,3,0,0,1,1.14,1.35,4.84,4.84,0,0,1,.42,2.11,5.07,5.07,0,0,1-.41,2.12,3.18,3.18,0,0,1-1.14,1.35,2.87,2.87,0,0,1-1.64.48,2.47,2.47,0,0,1-1.13-.23,2.07,2.07,0,0,1-.69-.55,3.47,3.47,0,0,1-.38-.56h-.09V14.4Zm1.46-6.67a3.86,3.86,0,0,0,.23,1.41,2.09,2.09,0,0,0,.68.94,1.68,1.68,0,0,0,1.08.34,1.77,1.77,0,0,0,1.11-.35,2.24,2.24,0,0,0,.68-1,3.94,3.94,0,0,0,.23-1.37,3.84,3.84,0,0,0-.23-1.36,2.08,2.08,0,0,0-.67-1,1.8,1.8,0,0,0-1.12-.35,1.77,1.77,0,0,0-1.09.34,2,2,0,0,0-.67.93A3.68,3.68,0,0,0,102.71,7.73Z"/><path class="cls-1" d="M112.44,11.69a3.75,3.75,0,0,1-1.94-.48,3.2,3.2,0,0,1-1.25-1.37,4.57,4.57,0,0,1-.44-2.06,4.67,4.67,0,0,1,.44-2.07,3.42,3.42,0,0,1,1.23-1.4,3.45,3.45,0,0,1,1.86-.5,3.78,3.78,0,0,1,1.25.22,3,3,0,0,1,1.09.67,3.21,3.21,0,0,1,.76,1.18,5.11,5.11,0,0,1,.27,1.77v.52h-6.06V7.06h4.61A2.19,2.19,0,0,0,114,6a1.86,1.86,0,0,0-.67-.72,1.91,1.91,0,0,0-1-.26,1.89,1.89,0,0,0-1.09.31,2,2,0,0,0-.72.79,2.4,2.4,0,0,0-.25,1.06v.87a2.87,2.87,0,0,0,.27,1.3,2,2,0,0,0,.76.82,2.29,2.29,0,0,0,1.14.28,2.35,2.35,0,0,0,.77-.12,1.84,1.84,0,0,0,.6-.37,1.44,1.44,0,0,0,.38-.6l1.41.25a2.49,2.49,0,0,1-.6,1.09,3,3,0,0,1-1.09.72A4.08,4.08,0,0,1,112.44,11.69Z"/><path class="cls-1" d="M118.13,7v4.53h-1.49V3.91h1.43V5.15h.09a2.16,2.16,0,0,1,.83-1,2.58,2.58,0,0,1,1.42-.37,2.71,2.71,0,0,1,1.36.33,2.14,2.14,0,0,1,.91,1A3.39,3.39,0,0,1,123,6.69v4.85h-1.49V6.87a1.82,1.82,0,0,0-.43-1.3,1.54,1.54,0,0,0-1.19-.47,1.8,1.8,0,0,0-.91.22,1.55,1.55,0,0,0-.63.66A2.06,2.06,0,0,0,118.13,7Z"/><path class="cls-1" d="M126.49,11.71a3.11,3.11,0,0,1-1.32-.27,2.15,2.15,0,0,1-.92-.79,2.23,2.23,0,0,1-.34-1.27,2,2,0,0,1,.25-1.06,1.7,1.7,0,0,1,.67-.66,3.76,3.76,0,0,1,.94-.37,9.38,9.38,0,0,1,1.06-.18L128,7a1.55,1.55,0,0,0,.62-.17.43.43,0,0,0,.19-.38v0a1.34,1.34,0,0,0-.37-1A1.46,1.46,0,0,0,127.31,5a1.9,1.9,0,0,0-1.18.33,1.74,1.74,0,0,0-.59.73l-1.4-.32a2.7,2.7,0,0,1,.73-1.12A3,3,0,0,1,126,4a4.44,4.44,0,0,1,1.32-.2,4.89,4.89,0,0,1,1,.11,2.86,2.86,0,0,1,1,.39,2.16,2.16,0,0,1,.74.81,2.83,2.83,0,0,1,.29,1.36v5.06H128.8v-1h-.06a2.2,2.2,0,0,1-1.17,1A2.71,2.71,0,0,1,126.49,11.71Zm.32-1.19a2,2,0,0,0,1-.25,1.65,1.65,0,0,0,.9-1.48v-1a.69.69,0,0,1-.3.14,4.83,4.83,0,0,1-.51.12l-.57.08-.45.06a3.66,3.66,0,0,0-.79.19,1.29,1.29,0,0,0-.57.37.92.92,0,0,0-.21.63,1,1,0,0,0,.41.84A1.85,1.85,0,0,0,126.81,10.52Z"/><path class="cls-1" d="M133,1.37V11.54H131.5V1.37Z"/><path class="cls-1" d="M137.81,3.91v1.2h-4.16V3.91Zm-3.05-1.82h1.49V9.3a1.27,1.27,0,0,0,.13.65.62.62,0,0,0,.33.29,1.33,1.33,0,0,0,.45.08,1.42,1.42,0,0,0,.31,0l.21,0,.27,1.23a2.64,2.64,0,0,1-.37.1,2.43,2.43,0,0,1-.59.06,2.54,2.54,0,0,1-1.1-.21,1.89,1.89,0,0,1-.81-.67,2,2,0,0,1-.32-1.15Z"/><path class="cls-1" d="M139.47,2.74a.93.93,0,0,1-.66-.26.87.87,0,0,1-.28-.63.87.87,0,0,1,.28-.63,1,1,0,0,1,1.32,0,.85.85,0,0,1,0,1.26A.93.93,0,0,1,139.47,2.74Zm-.75,8.8V3.91h1.49v7.63Z"/><path class="cls-1" d="M144.76,11.69a3.77,3.77,0,0,1-1.94-.48,3.26,3.26,0,0,1-1.25-1.37,4.57,4.57,0,0,1-.44-2.06,4.67,4.67,0,0,1,.44-2.07,3.5,3.5,0,0,1,1.23-1.4,3.45,3.45,0,0,1,1.86-.5,3.78,3.78,0,0,1,1.25.22A3,3,0,0,1,147,4.7a3.21,3.21,0,0,1,.76,1.18A5.09,5.09,0,0,1,148,7.65v.52H142V7.06h4.61a2.19,2.19,0,0,0-.24-1,1.86,1.86,0,0,0-.67-.72,1.91,1.91,0,0,0-1-.26,1.89,1.89,0,0,0-1.09.31,2,2,0,0,0-.72.79,2.4,2.4,0,0,0-.25,1.06v.87a2.87,2.87,0,0,0,.27,1.3,2,2,0,0,0,.76.82,2.29,2.29,0,0,0,1.14.28,2.35,2.35,0,0,0,.77-.12,1.84,1.84,0,0,0,.6-.37,1.56,1.56,0,0,0,.39-.6l1.4.25a2.49,2.49,0,0,1-.6,1.09,3,3,0,0,1-1.09.72A4.08,4.08,0,0,1,144.76,11.69Z"/><path class="cls-1" d="M154.68,5.77,153.33,6a1.59,1.59,0,0,0-.27-.49,1.42,1.42,0,0,0-.48-.38,1.79,1.79,0,0,0-.77-.15,1.88,1.88,0,0,0-1.06.28.85.85,0,0,0-.42.72.79.79,0,0,0,.28.62,2.29,2.29,0,0,0,.92.38l1.21.28a3.25,3.25,0,0,1,1.57.75,1.79,1.79,0,0,1,.52,1.32,2,2,0,0,1-.4,1.21,2.55,2.55,0,0,1-1.1.84,4.11,4.11,0,0,1-1.62.3,3.68,3.68,0,0,1-2.09-.54,2.35,2.35,0,0,1-1-1.57l1.44-.22a1.35,1.35,0,0,0,.55.85,1.9,1.9,0,0,0,1.09.29,1.94,1.94,0,0,0,1.16-.31.87.87,0,0,0,.44-.75.83.83,0,0,0-.26-.6,1.79,1.79,0,0,0-.82-.36l-1.29-.29a3.09,3.09,0,0,1-1.57-.77,1.87,1.87,0,0,1-.51-1.35,1.93,1.93,0,0,1,.37-1.18,2.5,2.5,0,0,1,1.05-.79,3.82,3.82,0,0,1,1.52-.29,3.16,3.16,0,0,1,2,.54A2.55,2.55,0,0,1,154.68,5.77Z"/><path class="cls-1" d="M156.71,11.63a1,1,0,0,1-1-1,1,1,0,0,1,2,0,1,1,0,0,1-.14.5,1,1,0,0,1-.36.36A.92.92,0,0,1,156.71,11.63Z"/><path class="cls-1" d="M4.51,26.4v1.29H0V26.4Z"/><path class="cls-1" d="M17.07,21.18V31.35H15.66l-5.17-7.46h-.1v7.46H8.86V21.18h1.42l5.17,7.46h.1V21.18Z"/><path class="cls-1" d="M21.67,31.5A3.51,3.51,0,0,1,19.79,31a3.39,3.39,0,0,1-1.24-1.38,4.63,4.63,0,0,1-.44-2.06,4.68,4.68,0,0,1,.44-2.08,3.39,3.39,0,0,1,1.24-1.38,3.83,3.83,0,0,1,3.75,0,3.39,3.39,0,0,1,1.24,1.38,4.68,4.68,0,0,1,.44,2.08,4.63,4.63,0,0,1-.44,2.06A3.39,3.39,0,0,1,23.54,31,3.5,3.5,0,0,1,21.67,31.5Zm0-1.25a1.8,1.8,0,0,0,1.15-.36,2.23,2.23,0,0,0,.68-1,3.9,3.9,0,0,0,.22-1.35,3.85,3.85,0,0,0-.22-1.34,2.2,2.2,0,0,0-.68-1,1.75,1.75,0,0,0-1.15-.37,1.77,1.77,0,0,0-1.16.37,2.28,2.28,0,0,0-.68,1,3.85,3.85,0,0,0-.22,1.34,3.9,3.9,0,0,0,.22,1.35,2.31,2.31,0,0,0,.68,1A1.83,1.83,0,0,0,21.67,30.25Z"/><path class="cls-1" d="M31.34,31.51A3.1,3.1,0,0,1,30,31.24a2.13,2.13,0,0,1-.92-.78,2.25,2.25,0,0,1-.34-1.27A2.11,2.11,0,0,1,29,28.13a1.8,1.8,0,0,1,.68-.66,3.42,3.42,0,0,1,.94-.37,9.4,9.4,0,0,1,1.06-.19l1.11-.13a1.67,1.67,0,0,0,.62-.17.43.43,0,0,0,.2-.39v0a1.32,1.32,0,0,0-.37-1,1.47,1.47,0,0,0-1.08-.36,1.88,1.88,0,0,0-1.18.33,1.72,1.72,0,0,0-.59.73L29,25.57a2.74,2.74,0,0,1,.73-1.13,3.1,3.1,0,0,1,1.1-.63,4.79,4.79,0,0,1,1.32-.19,4.24,4.24,0,0,1,1,.11,2.86,2.86,0,0,1,1,.39,2.05,2.05,0,0,1,.74.8,2.83,2.83,0,0,1,.29,1.36v5.07H33.66V30.3H33.6a2.37,2.37,0,0,1-.43.57,2.45,2.45,0,0,1-.74.46A3,3,0,0,1,31.34,31.51Zm.33-1.19a2.14,2.14,0,0,0,1-.24,1.72,1.72,0,0,0,.67-.64,1.57,1.57,0,0,0,.23-.85v-1a.81.81,0,0,1-.3.15,4.66,4.66,0,0,1-.52.11l-.56.09-.45.06a4.37,4.37,0,0,0-.79.18,1.38,1.38,0,0,0-.57.37,1,1,0,0,0-.21.64.94.94,0,0,0,.41.83A1.77,1.77,0,0,0,31.67,30.32Z"/><path class="cls-1" d="M39.57,31.5a3.52,3.52,0,0,1-1.9-.5,3.35,3.35,0,0,1-1.23-1.4,5,5,0,0,1,0-4.09,3.39,3.39,0,0,1,1.23-1.39,3.48,3.48,0,0,1,1.87-.5,3.64,3.64,0,0,1,1.55.32,2.71,2.71,0,0,1,1.1.9,2.66,2.66,0,0,1,.5,1.34H41.26a1.7,1.7,0,0,0-.55-.92,1.6,1.6,0,0,0-1.13-.39,1.85,1.85,0,0,0-1.09.33,2,2,0,0,0-.72.92,3.58,3.58,0,0,0-.26,1.41A3.67,3.67,0,0,0,37.77,29a2.08,2.08,0,0,0,.71.94,1.86,1.86,0,0,0,1.1.33,1.92,1.92,0,0,0,.77-.15,1.71,1.71,0,0,0,.58-.45,1.94,1.94,0,0,0,.33-.71H42.7a2.7,2.7,0,0,1-.48,1.32,2.9,2.9,0,0,1-1.07.92A3.57,3.57,0,0,1,39.57,31.5Z"/><path class="cls-1" d="M46.78,31.5a3.52,3.52,0,0,1-1.9-.5,3.42,3.42,0,0,1-1.23-1.4,5.13,5.13,0,0,1,0-4.09,3.39,3.39,0,0,1,1.23-1.39,3.49,3.49,0,0,1,1.88-.5,3.7,3.7,0,0,1,1.55.32,2.84,2.84,0,0,1,1.1.9,2.75,2.75,0,0,1,.49,1.34H48.47a1.74,1.74,0,0,0-.54-.92,1.64,1.64,0,0,0-1.14-.39,1.82,1.82,0,0,0-1.08.33,2.13,2.13,0,0,0-.73.92,3.59,3.59,0,0,0-.25,1.41A3.67,3.67,0,0,0,45,29a2.1,2.1,0,0,0,.72.94,1.83,1.83,0,0,0,1.09.33,1.92,1.92,0,0,0,.77-.15,1.71,1.71,0,0,0,.58-.45,1.66,1.66,0,0,0,.33-.71h1.44a2.7,2.7,0,0,1-.48,1.32,2.83,2.83,0,0,1-1.07.92A3.57,3.57,0,0,1,46.78,31.5Z"/><path class="cls-1" d="M54,31.5A3.48,3.48,0,0,1,52.12,31a3.32,3.32,0,0,1-1.24-1.38,4.63,4.63,0,0,1-.44-2.06,4.68,4.68,0,0,1,.44-2.08,3.32,3.32,0,0,1,1.24-1.38A3.48,3.48,0,0,1,54,23.62a3.51,3.51,0,0,1,1.88.49,3.39,3.39,0,0,1,1.24,1.38,4.68,4.68,0,0,1,.44,2.08,4.63,4.63,0,0,1-.44,2.06A3.39,3.39,0,0,1,55.87,31,3.51,3.51,0,0,1,54,31.5Zm0-1.25a1.8,1.8,0,0,0,1.15-.36,2.23,2.23,0,0,0,.68-1,3.9,3.9,0,0,0,.22-1.35,3.85,3.85,0,0,0-.22-1.34,2.2,2.2,0,0,0-.68-1A1.75,1.75,0,0,0,54,24.86a1.77,1.77,0,0,0-1.16.37,2.2,2.2,0,0,0-.68,1,3.85,3.85,0,0,0-.22,1.34,3.9,3.9,0,0,0,.22,1.35,2.23,2.23,0,0,0,.68,1A1.83,1.83,0,0,0,54,30.25Z"/><path class="cls-1" d="M63.31,28.18V23.72h1.48v7.63H63.34V30h-.08a2.39,2.39,0,0,1-.85,1,2.41,2.41,0,0,1-1.43.4,2.51,2.51,0,0,1-1.3-.32,2.27,2.27,0,0,1-.89-1,3.53,3.53,0,0,1-.32-1.58V23.72H60v4.67a1.73,1.73,0,0,0,.43,1.24,1.46,1.46,0,0,0,1.12.46,1.91,1.91,0,0,0,.83-.2,1.78,1.78,0,0,0,.7-.64A1.93,1.93,0,0,0,63.31,28.18Z"/><path class="cls-1" d="M67.54,26.82v4.53H66.06V23.72h1.42V25h.1a2.11,2.11,0,0,1,.83-1,2.5,2.5,0,0,1,1.42-.37,2.82,2.82,0,0,1,1.36.32,2.2,2.2,0,0,1,.91,1,3.45,3.45,0,0,1,.32,1.58v4.86H70.94V26.67a1.86,1.86,0,0,0-.43-1.3,1.54,1.54,0,0,0-1.19-.47,1.81,1.81,0,0,0-.91.23,1.58,1.58,0,0,0-.63.65A2.1,2.1,0,0,0,67.54,26.82Z"/><path class="cls-1" d="M77.24,23.72v1.19H73.08V23.72Zm-3-1.83h1.48v7.22a1.22,1.22,0,0,0,.13.64.63.63,0,0,0,.33.3,1.33,1.33,0,0,0,.45.07,1.57,1.57,0,0,0,.32,0l.2,0,.27,1.23-.36.1a3.28,3.28,0,0,1-.6.05,2.64,2.64,0,0,1-1.09-.2,1.87,1.87,0,0,1-.82-.68,2,2,0,0,1-.31-1.15Z"/><path class="cls-1" d="M80.38,31.51a3.11,3.11,0,0,1-1.32-.27,2.13,2.13,0,0,1-.92-.78,2.25,2.25,0,0,1-.34-1.27,2,2,0,0,1,.25-1.06,1.7,1.7,0,0,1,.67-.66,3.42,3.42,0,0,1,.94-.37,9.4,9.4,0,0,1,1.06-.19l1.11-.13a1.73,1.73,0,0,0,.63-.17.44.44,0,0,0,.19-.39v0a1.32,1.32,0,0,0-.37-1,1.47,1.47,0,0,0-1.08-.36,1.9,1.9,0,0,0-1.18.33,1.8,1.8,0,0,0-.59.73L78,25.57a2.74,2.74,0,0,1,.73-1.13,3.1,3.1,0,0,1,1.1-.63,4.79,4.79,0,0,1,1.32-.19,4.24,4.24,0,0,1,1,.11,2.86,2.86,0,0,1,1,.39,2.05,2.05,0,0,1,.74.8,2.83,2.83,0,0,1,.29,1.36v5.07H82.69V30.3h-.06a2.37,2.37,0,0,1-.43.57,2.45,2.45,0,0,1-.74.46A2.94,2.94,0,0,1,80.38,31.51Zm.32-1.19a2.14,2.14,0,0,0,1-.24,1.66,1.66,0,0,0,.67-.64,1.57,1.57,0,0,0,.23-.85v-1a.81.81,0,0,1-.3.15,4.66,4.66,0,0,1-.52.11l-.56.09-.45.06a4.37,4.37,0,0,0-.79.18,1.38,1.38,0,0,0-.57.37,1,1,0,0,0-.21.64.94.94,0,0,0,.41.83A1.77,1.77,0,0,0,80.7,30.32Z"/><path class="cls-1" d="M86.87,26.82v4.53H85.39V23.72h1.42V25h.1a2.15,2.15,0,0,1,.82-1,2.53,2.53,0,0,1,1.43-.37,2.85,2.85,0,0,1,1.36.32,2.25,2.25,0,0,1,.91,1,3.59,3.59,0,0,1,.32,1.58v4.86H90.27V26.67a1.9,1.9,0,0,0-.43-1.3,1.56,1.56,0,0,0-1.19-.47,1.85,1.85,0,0,0-.92.23,1.71,1.71,0,0,0-.63.65A2.22,2.22,0,0,0,86.87,26.82Z"/><path class="cls-1" d="M96.57,23.72v1.19H92.41V23.72Zm-3-1.83H95v7.22a1.22,1.22,0,0,0,.13.64.6.6,0,0,0,.33.3,1.33,1.33,0,0,0,.45.07,1.47,1.47,0,0,0,.31,0l.21,0,.27,1.23-.37.1a3.17,3.17,0,0,1-.59.05,2.61,2.61,0,0,1-1.09-.2,1.82,1.82,0,0,1-.82-.68,2,2,0,0,1-.32-1.15Z"/><path class="cls-1" d="M101.94,26.82v4.53h-1.48V23.72h1.42V25h.1a2.11,2.11,0,0,1,.83-1,2.5,2.5,0,0,1,1.42-.37,2.82,2.82,0,0,1,1.36.32,2.2,2.2,0,0,1,.91,1,3.45,3.45,0,0,1,.33,1.58v4.86h-1.49V26.67a1.86,1.86,0,0,0-.43-1.3,1.54,1.54,0,0,0-1.19-.47,1.81,1.81,0,0,0-.91.23,1.58,1.58,0,0,0-.63.65A2.1,2.1,0,0,0,101.94,26.82Z"/><path class="cls-1" d="M111.37,31.5a3.75,3.75,0,0,1-1.94-.48,3.25,3.25,0,0,1-1.25-1.37,5.07,5.07,0,0,1,0-4.13,3.35,3.35,0,0,1,1.23-1.4,3.45,3.45,0,0,1,1.86-.5,3.81,3.81,0,0,1,1.25.21,3.35,3.35,0,0,1,1.09.67,3.25,3.25,0,0,1,.76,1.19,5,5,0,0,1,.27,1.76V28h-6.06V26.87h4.61a2.19,2.19,0,0,0-.24-1,1.73,1.73,0,0,0-.67-.72,1.82,1.82,0,0,0-1-.26,2,2,0,0,0-1.09.3,2.13,2.13,0,0,0-.72.8,2.21,2.21,0,0,0-.25,1.06v.86a2.91,2.91,0,0,0,.27,1.31,1.86,1.86,0,0,0,.76.81,2.19,2.19,0,0,0,1.14.28,2.39,2.39,0,0,0,.77-.12,1.66,1.66,0,0,0,.6-.36,1.86,1.86,0,0,0,.38-.6l1.41.25a2.51,2.51,0,0,1-.6,1.08,3,3,0,0,1-1.09.72A4.08,4.08,0,0,1,111.37,31.5Z"/><path class="cls-1" d="M118.86,31.5a3.72,3.72,0,0,1-1.94-.48,3.25,3.25,0,0,1-1.25-1.37,5.07,5.07,0,0,1,0-4.13,3.35,3.35,0,0,1,1.23-1.4,3.41,3.41,0,0,1,1.85-.5,3.77,3.77,0,0,1,1.25.21,3,3,0,0,1,1.85,1.86,4.81,4.81,0,0,1,.28,1.76V28h-6.06V26.87h4.6a2.31,2.31,0,0,0-.23-1,1.79,1.79,0,0,0-.67-.72,1.85,1.85,0,0,0-1-.26,2,2,0,0,0-1.09.3,2,2,0,0,0-.71.8,2.21,2.21,0,0,0-.25,1.06v.86a2.91,2.91,0,0,0,.27,1.31,1.9,1.9,0,0,0,.75.81,2.24,2.24,0,0,0,1.14.28,2.35,2.35,0,0,0,.77-.12,1.66,1.66,0,0,0,.6-.36,1.73,1.73,0,0,0,.39-.6l1.4.25a2.51,2.51,0,0,1-.6,1.08,2.89,2.89,0,0,1-1.09.72A4,4,0,0,1,118.86,31.5Z"/><path class="cls-1" d="M125.91,31.49a2.92,2.92,0,0,1-1.65-.47,3.25,3.25,0,0,1-1.13-1.36,5,5,0,0,1-.41-2.11,4.89,4.89,0,0,1,.42-2.12,3.07,3.07,0,0,1,1.14-1.34,2.89,2.89,0,0,1,1.64-.47,2.4,2.4,0,0,1,1.15.24,2,2,0,0,1,.67.54,6.28,6.28,0,0,1,.38.55h.09V21.18h1.48V31.35h-1.45V30.16h-.12a3.58,3.58,0,0,1-.39.55,2.15,2.15,0,0,1-.69.55A2.34,2.34,0,0,1,125.91,31.49Zm.33-1.26a1.74,1.74,0,0,0,1.08-.34,2.12,2.12,0,0,0,.68-.95,4,4,0,0,0,.23-1.41,3.93,3.93,0,0,0-.23-1.39,2,2,0,0,0-.67-.93,2,2,0,0,0-2.21,0,2.08,2.08,0,0,0-.67.95,3.82,3.82,0,0,0-.23,1.35,4,4,0,0,0,.23,1.38,2.13,2.13,0,0,0,.68,1A1.72,1.72,0,0,0,126.24,30.23Z"/><path class="cls-1" d="M134.36,31.5a3.77,3.77,0,0,1-1.94-.48,3.32,3.32,0,0,1-1.25-1.37,5.07,5.07,0,0,1,0-4.13,3.45,3.45,0,0,1,1.24-1.4,3.39,3.39,0,0,1,1.85-.5,3.77,3.77,0,0,1,1.25.21,3.15,3.15,0,0,1,1.09.67,3.25,3.25,0,0,1,.76,1.19,5,5,0,0,1,.28,1.76V28h-6.07V26.87h4.61a2.19,2.19,0,0,0-.24-1,1.77,1.77,0,0,0-.66-.72,1.88,1.88,0,0,0-1-.26,2,2,0,0,0-1.09.3,2.13,2.13,0,0,0-.72.8,2.33,2.33,0,0,0-.25,1.06v.86a2.91,2.91,0,0,0,.27,1.31,2,2,0,0,0,.76.81,2.24,2.24,0,0,0,1.14.28,2.35,2.35,0,0,0,.77-.12,1.66,1.66,0,0,0,.6-.36,1.73,1.73,0,0,0,.39-.6l1.4.25a2.51,2.51,0,0,1-.6,1.08,2.89,2.89,0,0,1-1.09.72A4,4,0,0,1,134.36,31.5Z"/><path class="cls-1" d="M141.42,31.49a2.9,2.9,0,0,1-1.65-.47,3.18,3.18,0,0,1-1.13-1.36,5,5,0,0,1-.41-2.11,4.89,4.89,0,0,1,.42-2.12,3.07,3.07,0,0,1,1.14-1.34,2.89,2.89,0,0,1,1.64-.47,2.35,2.35,0,0,1,1.14.24,2,2,0,0,1,.68.54,5.9,5.9,0,0,1,.37.55h.09V21.18h1.49V31.35h-1.45V30.16h-.13a3.44,3.44,0,0,1-.38.55,2.15,2.15,0,0,1-.69.55A2.34,2.34,0,0,1,141.42,31.49Zm.33-1.26a1.76,1.76,0,0,0,1.08-.34,2.12,2.12,0,0,0,.68-.95,4,4,0,0,0,.23-1.41,3.93,3.93,0,0,0-.23-1.39,2.09,2.09,0,0,0-.67-.93,2,2,0,0,0-2.21,0,2.08,2.08,0,0,0-.67.95,3.82,3.82,0,0,0-.23,1.35,4,4,0,0,0,.23,1.38,2.13,2.13,0,0,0,.68,1A1.72,1.72,0,0,0,141.75,30.23Z"/><path class="cls-1" d="M147.56,31.44a1,1,0,0,1-.7-.29,1,1,0,0,1,0-1.4,1,1,0,0,1,.7-.29,1,1,0,0,1,.7.29.94.94,0,0,1,.3.7,1,1,0,0,1-.14.5,1,1,0,0,1-.36.36A.93.93,0,0,1,147.56,31.44Z"/><rect class="cls-2" x="174.93" width="38.19" height="15.49" rx="3.8"/><path class="cls-1" d="M172.42,6.24V7.51H168V6.24Z"/><path class="cls-3" d="M182,8.5h-4.84V7.2H182ZM184,12.43h-6.87v-1.3H184Zm-4.44-7.06.16,4.23a2.74,2.74,0,0,1-.17,1.13,1.51,1.51,0,0,1-.69.79l-1.25-.39a.5.5,0,0,0,.41-.27,2,2,0,0,0,.19-.6,4.8,4.8,0,0,0,0-.62l-.15-4.27a3.07,3.07,0,0,1,.39-1.72,2.63,2.63,0,0,1,1.13-1,3.3,3.3,0,0,1,1.52-.35,3.43,3.43,0,0,1,1.31.24,3.05,3.05,0,0,1,1,.65,2.57,2.57,0,0,1,.57.95,2.43,2.43,0,0,1,.07,1.11L182.66,5a1.29,1.29,0,0,0-.15-.8A1.31,1.31,0,0,0,182,3.7a1.87,1.87,0,0,0-.75-.16,1.68,1.68,0,0,0-.79.2,1.53,1.53,0,0,0-.61.6A2.07,2.07,0,0,0,179.57,5.37Z"/><path class="cls-3" d="M188.75,12.57a4.54,4.54,0,0,1-1.86-.36,3,3,0,0,1-1.26-1,2.34,2.34,0,0,1-.45-1.45,2.46,2.46,0,0,1,.26-1.18,2.63,2.63,0,0,1,.73-.89,2.19,2.19,0,0,1,1-.46V7.17a2.06,2.06,0,0,1-1.21-.8,2.34,2.34,0,0,1-.44-1.44A2.26,2.26,0,0,1,186,3.56a2.75,2.75,0,0,1,1.14-1,4,4,0,0,1,3.29,0,2.89,2.89,0,0,1,1.14,1A2.36,2.36,0,0,1,192,4.93a2.42,2.42,0,0,1-.46,1.44,2,2,0,0,1-1.19.8v.06a2.16,2.16,0,0,1,1,.46,2.75,2.75,0,0,1,.73.89,2.59,2.59,0,0,1,.27,1.18,2.41,2.41,0,0,1-.46,1.45,3,3,0,0,1-1.26,1A4.49,4.49,0,0,1,188.75,12.57Zm0-1.24a2.6,2.6,0,0,0,1.08-.21,1.61,1.61,0,0,0,.7-.58,1.52,1.52,0,0,0,.26-.88,1.64,1.64,0,0,0-.27-.93,1.87,1.87,0,0,0-.73-.63,2.49,2.49,0,0,0-2.09,0,1.87,1.87,0,0,0-.73.63,1.63,1.63,0,0,0-.26.93,1.59,1.59,0,0,0,.24.88,1.64,1.64,0,0,0,.71.58A2.62,2.62,0,0,0,188.75,11.33Zm0-4.67a2,2,0,0,0,.89-.2,1.64,1.64,0,0,0,.61-.56,1.55,1.55,0,0,0,.22-.84,1.48,1.48,0,0,0-.22-.82,1.45,1.45,0,0,0-.6-.55,2.25,2.25,0,0,0-1.81,0,1.48,1.48,0,0,0-.61.55,1.56,1.56,0,0,0-.21.82,1.55,1.55,0,0,0,.22.84,1.57,1.57,0,0,0,.61.56A2,2,0,0,0,188.75,6.66Z"/><path class="cls-3" d="M194,12.53a.94.94,0,0,1-.69-.29,1,1,0,0,1,0-1.38.94.94,0,0,1,.69-.29,1,1,0,0,1,.69.29.94.94,0,0,1,.29.69.93.93,0,0,1-.14.49,1.1,1.1,0,0,1-.35.36A1,1,0,0,1,194,12.53Z"/><path class="cls-3" d="M199.45,2.26a3.85,3.85,0,0,1,1.33.24,3.19,3.19,0,0,1,1.18.79,3.84,3.84,0,0,1,.84,1.47,7.14,7.14,0,0,1,.32,2.29,9.31,9.31,0,0,1-.27,2.35,5.18,5.18,0,0,1-.75,1.73,3.3,3.3,0,0,1-1.2,1.07,3.25,3.25,0,0,1-1.57.37,3.58,3.58,0,0,1-1.6-.35,3.06,3.06,0,0,1-1.13-1,3.22,3.22,0,0,1-.54-1.44h1.49a2,2,0,0,0,.6,1,1.74,1.74,0,0,0,1.18.4,1.94,1.94,0,0,0,1.72-1,5,5,0,0,0,.62-2.69h-.08a2.94,2.94,0,0,1-.63.73,3,3,0,0,1-.86.47,3,3,0,0,1-1,.16,3.06,3.06,0,0,1-1.58-.42,3.25,3.25,0,0,1-1.13-1.17A3.44,3.44,0,0,1,196,5.65a3.46,3.46,0,0,1,.43-1.72,3.2,3.2,0,0,1,1.22-1.23A3.5,3.5,0,0,1,199.45,2.26Zm0,1.27a2,2,0,0,0-1,.28,2.13,2.13,0,0,0-.73.76,2.26,2.26,0,0,0-.26,1.07,2.07,2.07,0,0,0,.26,1.05,1.91,1.91,0,0,0,1.73,1,1.94,1.94,0,0,0,.8-.17,1.88,1.88,0,0,0,.65-.46,2,2,0,0,0,.44-.68,2.1,2.1,0,0,0,.16-.79,2.06,2.06,0,0,0-.27-1,2.1,2.1,0,0,0-.71-.77A1.94,1.94,0,0,0,199.46,3.53Z"/><path class="cls-3" d="M207.51,2.26a3.76,3.76,0,0,1,1.32.24,3,3,0,0,1,1.18.79,3.84,3.84,0,0,1,.84,1.47,7.14,7.14,0,0,1,.32,2.29,9.34,9.34,0,0,1-.26,2.35,5.39,5.39,0,0,1-.76,1.73,3.24,3.24,0,0,1-2.77,1.44,3.51,3.51,0,0,1-1.59-.35,3,3,0,0,1-1.13-1,3.12,3.12,0,0,1-.55-1.44h1.5a1.85,1.85,0,0,0,.6,1,1.73,1.73,0,0,0,1.17.4,1.92,1.92,0,0,0,1.72-1,5,5,0,0,0,.62-2.69h-.07a3,3,0,0,1-.64.73,2.94,2.94,0,0,1-.85.47,3,3,0,0,1-1,.16,3,3,0,0,1-1.58-.42,3.28,3.28,0,0,1-1.14-1.17A3.44,3.44,0,0,1,204,5.65a3.47,3.47,0,0,1,.44-1.72,3.18,3.18,0,0,1,1.21-1.23A3.53,3.53,0,0,1,207.51,2.26Zm0,1.27a2,2,0,0,0-1,.28,2.1,2.1,0,0,0-.72.76,2.15,2.15,0,0,0-.27,1.07,2.18,2.18,0,0,0,.26,1.05,1.9,1.9,0,0,0,.71.75,1.86,1.86,0,0,0,1,.28,2,2,0,0,0,1.46-.63,2.21,2.21,0,0,0,.44-.68,2.09,2.09,0,0,0,.15-.79,2.12,2.12,0,0,0-1-1.8A1.91,1.91,0,0,0,207.51,3.53Z"/><path class="cls-1" d="M218.77,4.9V6.08h-4.26V4.9Zm-3.09,7.53V4A2,2,0,0,1,216,2.86a1.92,1.92,0,0,1,.82-.7,2.57,2.57,0,0,1,1.11-.24,4,4,0,0,1,.75.07,3.58,3.58,0,0,1,.47.14l-.35,1.18-.26-.07a1.51,1.51,0,0,0-.39,0,1,1,0,0,0-.77.26,1.18,1.18,0,0,0-.22.77v8.2Z"/><path class="cls-1" d="M220.3,3.74a.88.88,0,0,1-.65-.26.8.8,0,0,1-.27-.61.83.83,0,0,1,.27-.62A.92.92,0,0,1,220.3,2a1,1,0,0,1,.66.26.83.83,0,0,1,.27.62.8.8,0,0,1-.27.61A.9.9,0,0,1,220.3,3.74Zm-.74,8.69V4.9H221v7.53Z"/><path class="cls-1" d="M223.44,4.9l1.66,2.94,1.67-2.94h1.61L226,8.67l2.37,3.76h-1.61L225.1,9.62l-1.69,2.81H221.8l2.34-3.76L221.83,4.9Z"/><path class="cls-1" d="M232.11,12.59a3.64,3.64,0,0,1-1.91-.48A3.18,3.18,0,0,1,229,10.76a4.51,4.51,0,0,1-.43-2,4.57,4.57,0,0,1,.43-2,3.24,3.24,0,0,1,3-1.87,3.7,3.7,0,0,1,1.23.21,3,3,0,0,1,1.08.66,3.28,3.28,0,0,1,.75,1.17,5,5,0,0,1,.27,1.74v.52h-6V8h4.55a2.11,2.11,0,0,0-.24-1,1.81,1.81,0,0,0-.66-.71A1.79,1.79,0,0,0,232,6a2,2,0,0,0-1.08.3,2,2,0,0,0-.7.78A2.23,2.23,0,0,0,230,8.15V9a2.78,2.78,0,0,0,.27,1.28,1.82,1.82,0,0,0,.74.81,2.28,2.28,0,0,0,1.13.28,2.33,2.33,0,0,0,.76-.12,1.71,1.71,0,0,0,.59-.36,1.62,1.62,0,0,0,.38-.6l1.39.25a2.42,2.42,0,0,1-.6,1.07,2.68,2.68,0,0,1-1.07.71A4,4,0,0,1,232.11,12.59Z"/><path class="cls-1" d="M239.08,12.58a2.86,2.86,0,0,1-1.63-.47,3,3,0,0,1-1.12-1.34,4.9,4.9,0,0,1-.4-2.09,4.71,4.71,0,0,1,.41-2.08,3.08,3.08,0,0,1,1.12-1.33,2.92,2.92,0,0,1,1.62-.46,2.29,2.29,0,0,1,1.13.23,2.06,2.06,0,0,1,.67.54,4.82,4.82,0,0,1,.37.55h.09V2.4h1.47v10h-1.43V11.26h-.13a3.44,3.44,0,0,1-.38.55,2,2,0,0,1-.68.54A2.38,2.38,0,0,1,239.08,12.58Zm.32-1.25a1.73,1.73,0,0,0,1.07-.33,2.21,2.21,0,0,0,.67-.94,3.93,3.93,0,0,0,.23-1.39,3.82,3.82,0,0,0-.23-1.37,2,2,0,0,0-.66-.92,1.92,1.92,0,0,0-2.18,0,2,2,0,0,0-.67.93,3.77,3.77,0,0,0-.22,1.34,3.88,3.88,0,0,0,.22,1.36,2.16,2.16,0,0,0,.67,1A1.74,1.74,0,0,0,239.4,11.33Z"/><path class="cls-1" d="M250.7,4.9V6.08h-4.26V4.9Zm-3.09,7.53V4a2,2,0,0,1,.31-1.17,1.92,1.92,0,0,1,.82-.7,2.57,2.57,0,0,1,1.11-.24,4,4,0,0,1,.75.07,4.13,4.13,0,0,1,.47.14l-.35,1.18-.26-.07a1.51,1.51,0,0,0-.39,0,1,1,0,0,0-.77.26,1.18,1.18,0,0,0-.22.77v8.2Z"/><path class="cls-1" d="M254.44,12.59a3.67,3.67,0,0,1-1.92-.48,3.22,3.22,0,0,1-1.23-1.35,4.51,4.51,0,0,1-.44-2,4.57,4.57,0,0,1,.44-2,3.21,3.21,0,0,1,3-1.87,3.71,3.71,0,0,1,1.24.21,2.91,2.91,0,0,1,1.07.66,3,3,0,0,1,.75,1.17,4.74,4.74,0,0,1,.28,1.74v.52h-6V8h4.55A2.22,2.22,0,0,0,256,7a1.81,1.81,0,0,0-.66-.71,1.84,1.84,0,0,0-1-.26,1.89,1.89,0,0,0-1.07.3,2,2,0,0,0-.71.78,2.35,2.35,0,0,0-.25,1.05V9a2.78,2.78,0,0,0,.27,1.28,1.9,1.9,0,0,0,.75.81,2.24,2.24,0,0,0,1.12.28,2.29,2.29,0,0,0,.76-.12,1.54,1.54,0,0,0,.59-.36,1.64,1.64,0,0,0,.39-.6l1.38.25a2.5,2.5,0,0,1-.59,1.07,2.79,2.79,0,0,1-1.08.71A3.92,3.92,0,0,1,254.44,12.59Z"/><path class="cls-1" d="M261.83,12.59a3.67,3.67,0,0,1-1.92-.48,3.22,3.22,0,0,1-1.23-1.35,4.51,4.51,0,0,1-.44-2,4.57,4.57,0,0,1,.44-2,3.21,3.21,0,0,1,3-1.87A3.71,3.71,0,0,1,263,5a2.91,2.91,0,0,1,1.07.66,3,3,0,0,1,.75,1.17,4.74,4.74,0,0,1,.28,1.74v.52h-6V8h4.55a2.22,2.22,0,0,0-.23-1,1.81,1.81,0,0,0-.66-.71,1.84,1.84,0,0,0-1-.26,1.89,1.89,0,0,0-1.07.3,2,2,0,0,0-.71.78,2.35,2.35,0,0,0-.25,1.05V9a2.78,2.78,0,0,0,.27,1.28,1.9,1.9,0,0,0,.75.81,2.24,2.24,0,0,0,1.12.28,2.29,2.29,0,0,0,.76-.12,1.66,1.66,0,0,0,.6-.36,1.76,1.76,0,0,0,.38-.6l1.38.25a2.4,2.4,0,0,1-.59,1.07,2.79,2.79,0,0,1-1.08.71A3.88,3.88,0,0,1,261.83,12.59Z"/></g></g></svg>