<svg id="Headline" xmlns="http://www.w3.org/2000/svg" width="230.718" height="38.938" viewBox="0 0 230.718 38.938">
  <defs>
    <style>
      .cls-1 {
        fill: #fff;
      }

      .cls-1, .cls-2 {
        fill-rule: evenodd;
      }

      .cls-2 {
        fill: #0756ef;
      }
    </style>
  </defs>
  <path id="YOUR_FREE_GUIDE_TOP_10" data-name="YOUR FREE GUIDE TOP 10" class="cls-1" d="M712.182,420.726l4.9,8.117v5.246h2.032v-5.246l4.9-8.117H721.7l-3.53,6.075h-0.146l-3.53-6.075h-2.316Zm24.8,6.682c0-4.274-2.587-6.864-6.084-6.864s-6.091,2.59-6.091,6.864,2.58,6.863,6.091,6.863S736.984,431.681,736.984,427.408Zm-2.02,0c0,3.255-1.742,5.023-4.064,5.023s-4.065-1.768-4.065-5.023,1.735-5.024,4.065-5.024S734.964,424.152,734.964,427.408Zm13.247-6.682v8.809c0,1.872-1.512,2.923-3.333,2.923s-3.326-1.051-3.326-2.923v-8.809h-2.039v8.841c0,3.014,2.376,4.743,5.365,4.743s5.372-1.729,5.372-4.743v-8.841h-2.039Zm5,13.363h2.039v-5.057h2.9l2.745,5.057h2.323l-3-5.409a3.71,3.71,0,0,0,2.481-3.765c0-2.46-1.544-4.189-4.679-4.189h-4.817v13.363Zm2.039-6.792v-4.842h2.561c2.012,0,2.844.946,2.844,2.46s-0.832,2.382-2.818,2.382h-2.587Zm14.862,6.792h2.039v-5.827H777.9v-1.729h-5.741v-4.071H778.5v-1.736h-8.381v13.363Zm10.885,0h2.039v-5.057h2.9l2.745,5.057h2.322l-3-5.409a3.71,3.71,0,0,0,2.481-3.765c0-2.46-1.544-4.189-4.679-4.189H781v13.363Zm2.039-6.792v-4.842h2.56c2.013,0,2.844.946,2.844,2.46s-0.831,2.382-2.817,2.382H783.04Zm9.941,6.792h8.552v-1.736H795.02v-4.091h5.992v-1.729H795.02v-4.071h6.434v-1.736h-8.473v13.363Zm11.2,0h8.552v-1.736h-6.513v-4.091h5.992v-1.729h-5.992v-4.071h6.434v-1.736h-8.473v13.363Zm25.269-9.141h2.092a5.431,5.431,0,0,0-5.623-4.4c-3.5,0-6.051,2.6-6.051,6.87,0,4.228,2.481,6.857,6.144,6.857a5.265,5.265,0,0,0,5.622-5.5v-1.52h-5.312v1.664h3.339a3.4,3.4,0,0,1-3.649,3.516c-2.382,0-4.118-1.781-4.118-5.03s1.749-5.017,4.039-5.017A3.477,3.477,0,0,1,829.451,424.948Zm13.464-4.222v8.809c0,1.872-1.511,2.923-3.333,2.923s-3.325-1.051-3.325-2.923v-8.809h-2.039v8.841c0,3.014,2.375,4.743,5.364,4.743s5.372-1.729,5.372-4.743v-8.841h-2.039Zm7.043,0h-2.039v13.363h2.039V420.726Zm7.343,13.363c4.118,0,6.5-2.525,6.5-6.7,0-4.156-2.382-6.662-6.361-6.662h-4.514v13.363H857.3Zm-2.336-1.762v-9.839h2.35c2.956,0,4.48,1.749,4.48,4.9s-1.524,4.939-4.606,4.939h-2.224Zm11.366,1.762h8.552v-1.736H868.37v-4.091h5.992v-1.729H868.37v-4.071H874.8v-1.736h-8.473v13.363Zm15.456-11.627H886v11.627h2.033V422.462h4.216v-1.736H881.787v1.736Zm23.931,4.946c0-4.274-2.587-6.864-6.084-6.864s-6.091,2.59-6.091,6.864,2.58,6.863,6.091,6.863S905.718,431.681,905.718,427.408Zm-2.019,0c0,3.255-1.742,5.023-4.065,5.023s-4.065-1.768-4.065-5.023,1.736-5.024,4.065-5.024S903.7,424.152,903.7,427.408Zm4.549,6.681h2.039v-4.7h2.771c3.135,0,4.685-1.873,4.685-4.339s-1.537-4.326-4.678-4.326h-4.817v13.363Zm2.039-6.407v-5.227h2.56c2.019,0,2.844,1.083,2.844,2.6s-0.825,2.63-2.817,2.63h-2.587Zm19.323-6.956h-1.9a3.385,3.385,0,0,1-3.075,2.056v1.657a3.594,3.594,0,0,0,2.818-.992h0.112v10.642h2.046V420.726Zm8.358,13.584c3.121,0,4.949-2.518,4.949-6.9,0-4.345-1.854-6.87-4.949-6.87s-4.949,2.518-4.956,6.87C933.012,431.785,934.84,434.3,937.968,434.31Zm0-1.742c-1.828,0-2.93-1.813-2.93-5.154s1.108-5.161,2.93-5.161,2.923,1.834,2.923,5.161S939.789,432.568,937.968,432.568Z" transform="translate(-712.188 -420.531)"/>
  <path id="BONDS" class="cls-2" d="M728.487,459.215h5.919c3.589,0,5.21-1.766,5.21-4.107a3.564,3.564,0,0,0-3.2-3.78v-0.149a3.134,3.134,0,0,0,2.6-3.221c0-2.259-1.583-4.011-4.871-4.011h-5.655v15.268Zm2.33-1.975v-4.891h3.446A2.753,2.753,0,0,1,737.3,455c0,1.282-.882,2.244-3.121,2.244h-3.363Zm0-6.687v-4.645H734c1.847,0,2.729.962,2.729,2.229a2.518,2.518,0,0,1-2.79,2.416h-3.121Zm24.971,1.028c0-4.883-2.956-7.842-6.952-7.842s-6.959,2.959-6.959,7.842,2.948,7.843,6.959,7.843S755.788,456.464,755.788,451.581Zm-2.307,0c0,3.72-1.991,5.741-4.645,5.741s-4.645-2.021-4.645-5.741,1.983-5.74,4.645-5.74S753.481,447.861,753.481,451.581Zm17.664-7.634h-2.307V455.16H768.7l-7.857-11.213h-2.156v15.268h2.33v-11.2h0.143l7.849,11.2h2.141V443.947Zm8.391,15.268c4.705,0,7.427-2.885,7.427-7.656,0-4.749-2.722-7.612-7.269-7.612h-5.157v15.268h5Zm-2.669-2.012V445.96h2.684c3.378,0,5.12,2,5.12,5.6s-1.742,5.644-5.263,5.644h-2.541Zm21.412-9.245h2.247c-0.068-2.445-2.255-4.219-5.391-4.219-3.1,0-5.474,1.751-5.474,4.383,0,2.125,1.538,3.37,4.019,4.033l1.824,0.492c1.652,0.433,2.926.97,2.926,2.326,0,1.491-1.44,2.476-3.423,2.476-1.795,0-3.288-.791-3.424-2.453h-2.337c0.151,2.766,2.315,4.473,5.776,4.473,3.626,0,5.715-1.886,5.715-4.473,0-2.751-2.481-3.817-4.441-4.294l-1.508-.388c-1.206-.306-2.813-0.865-2.805-2.326,0-1.3,1.2-2.259,3.1-2.259C796.854,445.729,798.113,446.549,798.279,447.958Z" transform="translate(-712.188 -420.531)"/>
  <path id="AUSTRALIA" class="cls-2" d="M834.473,458.529L835.712,455h5.276l1.233,3.534h2.163l-4.86-13.353H837.17l-4.86,13.353h2.163Zm1.833-5.229,1.991-5.7H838.4l1.991,5.7h-4.088Zm18.72-8.124v8.8c0,1.871-1.511,2.921-3.331,2.921s-3.323-1.05-3.323-2.921v-8.8h-2.038v8.835c0,3.012,2.374,4.74,5.361,4.74s5.368-1.728,5.368-4.74v-8.835h-2.037Zm12.376,3.508h1.965c-0.059-2.139-1.972-3.69-4.715-3.69-2.71,0-4.787,1.532-4.787,3.833,0,1.858,1.345,2.947,3.514,3.528l1.6,0.43c1.444,0.378,2.559.848,2.559,2.034,0,1.3-1.26,2.165-2.994,2.165-1.569,0-2.875-.691-2.994-2.145H859.5c0.132,2.419,2.024,3.912,5.051,3.912,3.172,0,5-1.65,5-3.912,0-2.406-2.17-3.339-3.884-3.756l-1.319-.339c-1.055-.267-2.46-0.756-2.453-2.034,0-1.135,1.048-1.976,2.71-1.976C866.156,446.734,867.257,447.452,867.4,448.684Zm3.922-1.774h4.207v11.619h2.031V446.91h4.214v-1.734H871.324v1.734Zm12.758,11.619h2.037v-5.053h2.9l2.743,5.053h2.321l-2.994-5.4a3.705,3.705,0,0,0,2.48-3.762c0-2.458-1.543-4.186-4.675-4.186h-4.814v13.353Zm2.037-6.787V446.9h2.559c2.011,0,2.842.945,2.842,2.458s-0.831,2.38-2.816,2.38h-2.585Zm11.083,6.787,1.24-3.534h5.276l1.233,3.534h2.163l-4.86-13.353H899.9l-4.86,13.353H897.2Zm1.834-5.229,1.991-5.7h0.106l1.991,5.7h-4.088Zm10.028,5.229h8.157V456.8H911.1V445.176h-2.038v13.353Zm12.52-13.353h-2.038v13.353h2.038V445.176Zm4.11,13.353,1.24-3.534h5.275l1.234,3.534h2.162l-4.86-13.353h-2.354l-4.86,13.353h2.163Zm1.833-5.229,1.992-5.7h0.105l1.992,5.7h-4.089Z" transform="translate(-712.188 -420.531)"/>
  <path id="IN" class="cls-1" d="M811.166,445.176h-2.038v13.353h2.038V445.176Zm13.87,0h-2.018v9.806h-0.126l-6.871-9.806h-1.886v13.353h2.038v-9.793H816.3l6.865,9.793h1.873V445.176Z" transform="translate(-712.188 -420.531)"/>
</svg>
