<svg width="77" height="71" viewBox="0 0 77 71" fill="none" xmlns="http://www.w3.org/2000/svg">
<path d="M7.22696 7.6504C7.92261 7.6504 8.48655 7.08646 8.48655 6.39081C8.48655 5.69516 7.92261 5.13123 7.22696 5.13123C6.53131 5.13123 5.96738 5.69516 5.96738 6.39081C5.96738 7.08646 6.53131 7.6504 7.22696 7.6504Z" fill="white"/>
<path d="M12.2653 7.6504C12.9609 7.6504 13.5249 7.08646 13.5249 6.39081C13.5249 5.69516 12.9609 5.13123 12.2653 5.13123C11.5696 5.13123 11.0057 5.69516 11.0057 6.39081C11.0057 7.08646 11.5696 7.6504 12.2653 7.6504Z" fill="white"/>
<path d="M17.3037 7.6504C17.9993 7.6504 18.5632 7.08646 18.5632 6.39081C18.5632 5.69516 17.9993 5.13123 17.3037 5.13123C16.608 5.13123 16.0441 5.69516 16.0441 6.39081C16.0441 7.08646 16.608 7.6504 17.3037 7.6504Z" fill="white"/>
<path d="M28.6399 37.8805C25.1672 37.8805 22.342 40.7057 22.342 44.1784C22.342 47.6511 25.1672 50.4763 28.6399 50.4763C32.1126 50.4763 34.9378 47.6511 34.9378 44.1784C34.9378 40.7057 32.1126 37.8805 28.6399 37.8805ZM32.1869 42.9188H29.8995V40.6314C30.9664 41.0118 31.8065 41.852 32.1869 42.9188ZM28.6399 47.9572C26.5566 47.9572 24.8612 46.2618 24.8612 44.1784C24.8612 42.5384 25.9167 41.1529 27.3803 40.6314V44.1784C27.3803 44.875 27.9446 45.438 28.6399 45.438H32.1869C31.6654 46.9004 30.2799 47.9572 28.6399 47.9572Z" fill="white"/>
<mask id="mask0_654_307" style="mask-type:alpha" maskUnits="userSpaceOnUse" x="0" y="0" width="77" height="71">
<path d="M75.2446 34.1017C75.9411 34.1017 76.5042 33.5387 76.5042 32.8421V6.39082C76.5042 2.91815 73.6789 0.0928955 70.2062 0.0928955H7.22697C3.7543 0.0928955 0.929047 2.91815 0.929047 6.39082V27.8038C0.929047 28.5003 1.49334 29.0634 2.18863 29.0634C2.88392 29.0634 3.44822 28.5003 3.44822 27.8038V12.6887H17.3037V52.9955H7.22697C5.14362 52.9955 3.44822 51.3001 3.44822 49.2167V32.8421C3.44822 32.1456 2.88392 31.5825 2.18863 31.5825C1.49334 31.5825 0.929047 32.1456 0.929047 32.8421V49.2167C0.929047 52.6894 3.7543 55.5146 7.22697 55.5146H20.9842C20.5559 58.316 18.7182 60.7356 16.0567 61.8768L13.2667 63.0722H9.74614C6.27347 63.0722 3.44822 65.8974 3.44822 69.3701C3.44822 70.0666 4.01251 70.6297 4.7078 70.6297H53.8316C54.5282 70.6297 55.0912 70.0666 55.0912 69.3701C55.0912 68.6735 54.5282 68.1105 53.8316 68.1105H6.18278C6.70298 66.6443 8.10364 65.5913 9.74614 65.5913H67.687C69.3296 65.5913 70.7302 66.6443 71.2504 68.1105H58.87C58.1734 68.1105 57.6104 68.6735 57.6104 69.3701C57.6104 70.0666 58.1734 70.6297 58.87 70.6297H72.7254C73.4219 70.6297 73.985 70.0666 73.985 69.3701C73.985 65.8974 71.1597 63.0722 67.687 63.0722H64.1653L61.3753 61.8768C58.715 60.7356 56.8773 58.316 56.449 55.5146H70.2062C73.6789 55.5146 76.5042 52.6894 76.5042 49.2167V37.8805C76.5042 37.1839 75.9411 36.6209 75.2446 36.6209C74.548 36.6209 73.985 37.1839 73.985 37.8805V49.2167C73.985 51.3001 72.2896 52.9955 70.2062 52.9955H45.0145V12.6887H74.6114C75.3079 12.6887 75.8709 12.1257 75.8709 11.4292C75.8709 10.7326 75.3079 10.1696 74.6114 10.1696H3.44822V6.39082C3.44822 4.30747 5.14362 2.61207 7.22697 2.61207H70.2062C72.2896 2.61207 73.985 4.30747 73.985 6.39082V32.8421C73.985 33.5387 74.548 34.1017 75.2446 34.1017ZM58.385 63.0722H19.0482C21.5321 61.3125 23.1721 58.5704 23.5285 55.5146H53.9047C54.2611 58.5704 55.9011 61.3125 58.385 63.0722ZM19.8228 52.9955V35.3613H42.4954V52.9955H19.8228ZM42.4954 32.8421H19.8228V12.6887H42.4954V32.8421Z" fill="white"/>
</mask>
<g mask="url(#mask0_654_307)">
<path d="M-0.225128 -2.4364H80.5644V55.3762H-0.225128V-2.4364Z" fill="white"/>
</g>
<rect x="0.919922" y="26.3916" width="2.52901" height="7.67606" fill="white"/>
<rect x="73.9857" y="30.2811" width="2.52901" height="7.67606" fill="white"/>
<rect width="70.328" height="40.2906" rx="4.2" transform="matrix(-1 0 0 1 73.8922 12.6919)" fill="url(#paint0_linear_654_307)"/>
<path d="M22.0971 17.6459H42.2277C43.3323 17.6459 44.2277 18.5413 44.2277 19.6459V36.4332C44.2277 37.5378 43.3323 38.4332 42.2277 38.4332H22.0971C20.9926 38.4332 20.0971 37.5378 20.0971 36.4332V19.6459C20.0971 18.5413 20.9926 17.6459 22.0971 17.6459Z" fill="white"/>
<path d="M26.0053 29.2107H23.3083V33.3098H26.0053V29.2107Z" fill="#2E8BE0"/>
<path d="M30.8856 27.0148H28.1887V33.3098H30.8856V27.0148Z" fill="#2E8BE0"/>
<path d="M35.7663 27.6001H33.0693V33.3088H35.7663V27.6001Z" fill="#2E8BE0"/>
<path d="M40.6473 22.7694H37.9504V33.3089H40.6473V22.7694Z" fill="#2E8BE0"/>
<path d="M64.2887 42.5784H22.5773C21.2351 42.5784 20.1471 43.6664 20.1471 45.0086C20.1471 46.3508 21.2351 47.4389 22.5773 47.4389H64.2887C65.6309 47.4389 66.719 46.3508 66.719 45.0086C66.719 43.6664 65.6309 42.5784 64.2887 42.5784Z" fill="white"/>
<path d="M10.4928 33.9442L10.4928 45.03C10.4928 46.3721 11.5809 47.4602 12.923 47.4602C14.2652 47.4602 15.3533 46.3721 15.3533 45.03L15.3533 33.9442C15.3533 32.602 14.2652 31.5139 12.923 31.5139C11.5809 31.5139 10.4928 32.602 10.4928 33.9442Z" fill="white"/>
<path d="M12.9612 17.5576C15.6886 17.5576 17.0601 19.0175 17.0601 19.0175C17.0601 19.0175 17.217 20.098 17.117 22.2738C16.9657 25.5604 12.9622 27.5341 12.9619 27.5344C12.9619 27.5344 8.95801 25.5604 8.80709 22.2738C8.70704 20.098 8.8636 19.0175 8.8636 19.0175C8.8636 19.0175 10.2338 17.5576 12.9612 17.5576Z" fill="white"/>
<path d="M56.9475 17.7909C51.407 17.7909 46.8994 22.2984 46.8994 27.8389C46.8994 33.3794 51.407 37.887 56.9475 37.887C62.488 37.887 66.9955 33.3794 66.9955 27.8389C66.9955 22.2984 62.488 17.7909 56.9475 17.7909ZM62.6065 25.8293H58.9571V22.1799C60.6592 22.7868 61.9996 24.1272 62.6065 25.8293ZM56.9475 33.8678C53.6236 33.8678 50.9186 31.1628 50.9186 27.8389C50.9186 25.2224 52.6027 23.0119 54.9379 22.1799V27.8389C54.9379 28.9503 55.8382 29.8486 56.9475 29.8486H62.6065C61.7746 32.1817 59.564 33.8678 56.9475 33.8678Z" fill="white"/>
<defs>
<linearGradient id="paint0_linear_654_307" x1="8.02998" y1="-8.46766" x2="65.1755" y2="45.7241" gradientUnits="userSpaceOnUse">
<stop offset="0.302" stop-color="#1F90FB"/>
<stop offset="1" stop-color="#095DB3"/>
</linearGradient>
</defs>
</svg>
