<svg width="197" height="45" viewBox="0 0 197 45" fill="none" xmlns="http://www.w3.org/2000/svg">
<path d="M0.666634 16.9648V1.56484H3.79063L11.0066 11.0468V1.56484H14.3506V16.9648H11.4686L4.01063 7.17484V16.9648H0.666634ZM23.4815 17.2288C19.8515 17.2288 17.1235 14.5448 17.1235 11.1348V11.0908C17.1235 7.70284 19.8515 4.95284 23.5255 4.95284C27.1555 4.95284 29.8835 7.63684 29.8835 11.0468V11.0908C29.8835 14.4788 27.1555 17.2288 23.4815 17.2288ZM23.5255 14.3468C25.4395 14.3468 26.5835 12.8948 26.5835 11.1348V11.0908C26.5835 9.35284 25.3295 7.83484 23.4815 7.83484C21.5675 7.83484 20.4235 9.28684 20.4235 11.0468V11.0908C20.4235 12.8288 21.6775 14.3468 23.5255 14.3468ZM42.7506 17.1848C40.3526 17.1848 38.7686 16.1288 37.7126 14.8748L39.8466 12.4988C40.7266 13.4668 41.5846 14.0388 42.6626 14.0388C43.9606 14.0388 44.7306 13.2688 44.7306 11.4868V1.56484H48.2066V11.6408C48.2066 13.4888 47.7006 14.8088 46.7546 15.7548C45.8086 16.7008 44.4226 17.1848 42.7506 17.1848ZM55.2345 17.1848C52.6825 17.1848 51.2305 15.5348 51.2305 12.8068V5.17284H54.5745V11.7508C54.5745 13.3348 55.3005 14.1488 56.5985 14.1488C57.8965 14.1488 58.6885 13.3348 58.6885 11.7508V5.17284H62.0325V16.9648H58.6885V15.2928C57.9185 16.2828 56.9065 17.1848 55.2345 17.1848ZM70.3056 20.5288C68.3696 20.5288 66.5876 20.0888 65.0916 19.2968L66.2356 16.7888C67.4676 17.4708 68.6336 17.8668 70.2176 17.8668C72.5056 17.8668 73.5836 16.7668 73.5836 14.6548V14.0828C72.5936 15.2928 71.5156 15.9968 69.7336 15.9968C66.9836 15.9968 64.4976 14.0168 64.4976 10.4968V10.4528C64.4976 6.93284 67.0276 4.95284 69.7336 4.95284C71.5596 4.95284 72.6376 5.72284 73.5396 6.71284V5.17284H76.8836V14.3028C76.8836 16.3928 76.3776 17.9548 75.3876 18.9448C74.2656 20.0668 72.5936 20.5288 70.3056 20.5288ZM70.7016 13.2248C72.3516 13.2248 73.5836 12.1028 73.5836 10.4968V10.4528C73.5836 8.84684 72.3516 7.72484 70.7016 7.72484C69.0736 7.72484 67.8416 8.84684 67.8416 10.4528V10.4968C67.8416 12.1468 69.0516 13.2248 70.7016 13.2248ZM85.1513 20.5288C83.2153 20.5288 81.4333 20.0888 79.9373 19.2968L81.0813 16.7888C82.3133 17.4708 83.4793 17.8668 85.0633 17.8668C87.3513 17.8668 88.4293 16.7668 88.4293 14.6548V14.0828C87.4393 15.2928 86.3613 15.9968 84.5793 15.9968C81.8293 15.9968 79.3433 14.0168 79.3433 10.4968V10.4528C79.3433 6.93284 81.8733 4.95284 84.5793 4.95284C86.4053 4.95284 87.4833 5.72284 88.3853 6.71284V5.17284H91.7293V14.3028C91.7293 16.3928 91.2233 17.9548 90.2333 18.9448C89.1113 20.0668 87.4393 20.5288 85.1513 20.5288ZM85.5473 13.2248C87.1973 13.2248 88.4293 12.1028 88.4293 10.4968V10.4528C88.4293 8.84684 87.1973 7.72484 85.5473 7.72484C83.9193 7.72484 82.6873 8.84684 82.6873 10.4528V10.4968C82.6873 12.1468 83.8973 13.2248 85.5473 13.2248ZM94.871 16.9648V0.904843H98.215V16.9648H94.871ZM101.422 3.87484V0.904843H104.942V3.87484H101.422ZM101.51 16.9648V5.17284H104.854V16.9648H101.51ZM107.994 16.9648V5.17284H111.338V6.84484C112.108 5.85484 113.12 4.95284 114.792 4.95284C117.344 4.95284 118.796 6.60284 118.796 9.33084V16.9648H115.452V10.3868C115.452 8.80284 114.726 7.98884 113.428 7.98884C112.13 7.98884 111.338 8.80284 111.338 10.3868V16.9648H107.994ZM126.981 20.5288C125.045 20.5288 123.263 20.0888 121.767 19.2968L122.911 16.7888C124.143 17.4708 125.309 17.8668 126.893 17.8668C129.181 17.8668 130.259 16.7668 130.259 14.6548V14.0828C129.269 15.2928 128.191 15.9968 126.409 15.9968C123.659 15.9968 121.173 14.0168 121.173 10.4968V10.4528C121.173 6.93284 123.703 4.95284 126.409 4.95284C128.235 4.95284 129.313 5.72284 130.215 6.71284V5.17284H133.559V14.3028C133.559 16.3928 133.053 17.9548 132.063 18.9448C130.941 20.0668 129.269 20.5288 126.981 20.5288ZM127.377 13.2248C129.027 13.2248 130.259 12.1028 130.259 10.4968V10.4528C130.259 8.84684 129.027 7.72484 127.377 7.72484C125.749 7.72484 124.517 8.84684 124.517 10.4528V10.4968C124.517 12.1468 125.727 13.2248 127.377 13.2248ZM142.175 16.9648L148.775 1.45484H151.899L158.499 16.9648H154.957L153.549 13.5108H147.037L145.629 16.9648H142.175ZM148.247 10.5188H152.339L150.293 5.52484L148.247 10.5188ZM165.531 17.2288C161.989 17.2288 159.393 14.4788 159.393 11.1348V11.0908C159.393 7.72484 161.967 4.95284 165.575 4.95284C167.797 4.95284 169.161 5.70084 170.283 6.93284L168.237 9.13284C167.467 8.34084 166.763 7.83484 165.553 7.83484C163.881 7.83484 162.693 9.28684 162.693 11.0468V11.0908C162.693 12.9168 163.859 14.3468 165.685 14.3468C166.807 14.3468 167.577 13.8628 168.391 13.0928L170.349 15.0728C169.205 16.3268 167.885 17.2288 165.531 17.2288ZM176.515 17.1628C174.491 17.1628 173.083 16.3488 173.083 13.6208V8.03284H171.675V5.17284H173.083V2.15884H176.427V5.17284H179.199V8.03284H176.427V13.0708C176.427 13.8408 176.779 14.2148 177.505 14.2148C178.099 14.2148 178.649 14.0828 179.155 13.7968V16.4808C178.451 16.8988 177.637 17.1628 176.515 17.1628ZM185.8 17.1848C184.128 17.1848 182.324 16.6348 180.74 15.4028L182.17 13.2028C183.468 14.1488 184.766 14.6108 185.888 14.6108C186.856 14.6108 187.296 14.2588 187.296 13.7308V13.6868C187.296 12.9608 186.152 12.7408 184.854 12.3228C183.204 11.8608 181.334 11.0688 181.334 8.78084V8.73684C181.334 6.33884 183.27 4.99684 185.646 4.99684C187.142 4.99684 188.748 5.50284 190.046 6.36084L188.77 8.67084C187.604 7.98884 186.438 7.57084 185.58 7.57084C184.766 7.57084 184.348 7.92284 184.348 8.38484V8.42884C184.348 9.04484 185.47 9.44084 186.746 9.83684C188.396 10.3648 190.31 11.1788 190.31 13.3348V13.3788C190.31 15.9968 188.352 17.1848 185.8 17.1848ZM192.575 16.9648V13.4448H196.139V16.9648H192.575ZM13.568 40.9648V25.5648H16.692L23.908 35.0468V25.5648H27.252V40.9648H24.37L16.912 31.1748V40.9648H13.568ZM36.3829 41.2288C32.7529 41.2288 30.0249 38.5448 30.0249 35.1348V35.0908C30.0249 31.7028 32.7529 28.9528 36.4269 28.9528C40.0569 28.9528 42.7849 31.6368 42.7849 35.0468V35.0908C42.7849 38.4788 40.0569 41.2288 36.3829 41.2288ZM36.4269 38.3468C38.3409 38.3468 39.4849 36.8948 39.4849 35.1348V35.0908C39.4849 33.3528 38.2309 31.8348 36.3829 31.8348C34.4689 31.8348 33.3249 33.2868 33.3249 35.0468V35.0908C33.3249 36.8288 34.5789 38.3468 36.4269 38.3468ZM52.1539 40.9648V25.5648H59.3039C61.0859 25.5648 62.4279 26.0268 63.3299 26.9288C64.0339 27.6328 64.3859 28.5128 64.3859 29.5468V29.5908C64.3859 31.3068 63.4619 32.3408 62.3619 32.9128C64.1439 33.5948 65.2439 34.6508 65.2439 36.6968V36.7408C65.2439 39.5568 62.9559 40.9648 59.4799 40.9648H52.1539ZM61.0199 30.1628V30.1188C61.0199 29.0848 60.2279 28.5348 58.7979 28.5348H55.4539V31.7908H58.5779C60.0739 31.7908 61.0199 31.3068 61.0199 30.1628ZM61.8779 36.3228V36.2788C61.8779 35.2448 61.1299 34.6068 59.3699 34.6068H55.4539V37.9948H59.4799C60.9759 37.9948 61.8779 37.4668 61.8779 36.3228ZM67.8329 40.9648V24.9048H71.1769V40.9648H67.8329ZM74.3836 27.8748V24.9048H77.9036V27.8748H74.3836ZM74.4716 40.9648V29.1728H77.8156V40.9648H74.4716ZM80.9562 40.9648V29.1728H84.3002V30.8448C85.0702 29.8548 86.0822 28.9528 87.7542 28.9528C90.3062 28.9528 91.7582 30.6028 91.7582 33.3308V40.9648H88.4142V34.3868C88.4142 32.8028 87.6882 31.9888 86.3902 31.9888C85.0922 31.9888 84.3002 32.8028 84.3002 34.3868V40.9648H80.9562ZM99.5033 41.1848C96.7533 41.1848 94.1353 39.0288 94.1353 35.0908V35.0468C94.1353 31.1088 96.7093 28.9528 99.5033 28.9528C101.285 28.9528 102.385 29.7668 103.177 30.7128V24.9048H106.521V40.9648H103.177V39.2708C102.363 40.3928 101.263 41.1848 99.5033 41.1848ZM100.361 38.3468C101.923 38.3468 103.221 37.0488 103.221 35.0908V35.0468C103.221 33.0888 101.923 31.7908 100.361 31.7908C98.7993 31.7908 97.4793 33.0668 97.4793 35.0468V35.0908C97.4793 37.0488 98.7993 38.3468 100.361 38.3468ZM121.935 41.1848C119.581 41.1848 117.249 40.3928 115.401 38.7208L117.403 36.3228C118.811 37.4668 120.241 38.1928 122.001 38.1928C123.409 38.1928 124.223 37.6428 124.223 36.7408V36.6968C124.223 35.8388 123.695 35.3768 121.121 34.7388C117.997 33.9688 116.017 33.0668 116.017 30.0308V29.9868C116.017 27.1928 118.239 25.3448 121.407 25.3448C123.673 25.3448 125.543 26.0488 127.127 27.3028L125.367 29.8548C123.981 28.9088 122.683 28.3368 121.363 28.3368C120.043 28.3368 119.383 28.9088 119.383 29.6788V29.7228C119.383 30.7568 120.043 31.0428 122.705 31.7468C125.829 32.5828 127.589 33.6828 127.589 36.3668V36.4108C127.589 39.4688 125.257 41.1848 121.935 41.1848ZM130.177 44.4848V29.1728H133.521V30.8668C134.335 29.7448 135.435 28.9528 137.195 28.9528C139.945 28.9528 142.563 31.1088 142.563 35.0468V35.0908C142.563 39.0288 139.989 41.1848 137.195 41.1848C135.413 41.1848 134.313 40.3708 133.521 39.4248V44.4848H130.177ZM136.337 38.3468C137.899 38.3468 139.219 37.0708 139.219 35.0908V35.0468C139.219 33.0888 137.899 31.7908 136.337 31.7908C134.775 31.7908 133.477 33.0888 133.477 35.0468V35.0908C133.477 37.0488 134.775 38.3468 136.337 38.3468ZM150.809 41.2288C147.179 41.2288 144.451 38.5448 144.451 35.1348V35.0908C144.451 31.7028 147.179 28.9528 150.853 28.9528C154.483 28.9528 157.211 31.6368 157.211 35.0468V35.0908C157.211 38.4788 154.483 41.2288 150.809 41.2288ZM150.853 38.3468C152.767 38.3468 153.911 36.8948 153.911 35.1348V35.0908C153.911 33.3528 152.657 31.8348 150.809 31.8348C148.895 31.8348 147.751 33.2868 147.751 35.0468V35.0908C147.751 36.8288 149.005 38.3468 150.853 38.3468ZM163.614 41.1628C161.59 41.1628 160.182 40.3488 160.182 37.6208V32.0328H158.774V29.1728H160.182V26.1588H163.526V29.1728H166.298V32.0328H163.526V37.0708C163.526 37.8408 163.878 38.2148 164.604 38.2148C165.198 38.2148 165.748 38.0828 166.254 37.7968V40.4808C165.55 40.8988 164.736 41.1628 163.614 41.1628ZM172.899 41.1848C171.227 41.1848 169.423 40.6348 167.839 39.4028L169.269 37.2028C170.567 38.1488 171.865 38.6108 172.987 38.6108C173.955 38.6108 174.395 38.2588 174.395 37.7308V37.6868C174.395 36.9608 173.251 36.7408 171.953 36.3228C170.303 35.8608 168.433 35.0688 168.433 32.7808V32.7368C168.433 30.3388 170.369 28.9968 172.745 28.9968C174.241 28.9968 175.847 29.5028 177.145 30.3608L175.869 32.6708C174.703 31.9888 173.537 31.5708 172.679 31.5708C171.865 31.5708 171.447 31.9228 171.447 32.3848V32.4288C171.447 33.0448 172.569 33.4408 173.845 33.8368C175.495 34.3648 177.409 35.1788 177.409 37.3348V37.3788C177.409 39.9968 175.451 41.1848 172.899 41.1848ZM179.674 40.9648V37.4448H183.238V40.9648H179.674Z" fill="#262626"/>
</svg>
