<svg xmlns="http://www.w3.org/2000/svg" viewBox="0 0 115 38.49"><defs><style>.cls-1{fill:#fff;}</style></defs><g id="Layer_2" data-name="Layer 2"><g id="Layer_1-2" data-name="Layer 1"><path class="cls-1" d="M0,9.76,0,.83H1.28l0,7.82,4.84,0V9.74Z"/><path class="cls-1" d="M9.41,9.81a3.22,3.22,0,0,1-1.33-.25,2.06,2.06,0,0,1-.87-.71,1.73,1.73,0,0,1-.31-1,1.89,1.89,0,0,1,.26-1A1.81,1.81,0,0,1,8,6.11a3.94,3.94,0,0,1,1.6-.27h2.14v.88H9.66A1.77,1.77,0,0,0,8.43,7a1,1,0,0,0-.32.74,1,1,0,0,0,.4.8,1.78,1.78,0,0,0,1.1.29,2.23,2.23,0,0,0,1.2-.31,1.67,1.67,0,0,0,.74-.89l.25.84a1.86,1.86,0,0,1-.85.95A3,3,0,0,1,9.41,9.81Zm2.22-.09V8.29L11.56,8V5.59a1.57,1.57,0,0,0-.46-1.2A1.9,1.9,0,0,0,9.73,4a3.6,3.6,0,0,0-1.17.2,3,3,0,0,0-1,.54l-.51-.92a3.61,3.61,0,0,1,1.25-.65A5.22,5.22,0,0,1,9.87,2.9,3.09,3.09,0,0,1,12,3.57a2.62,2.62,0,0,1,.76,2.07l0,4.08Z"/><path class="cls-1" d="M17,9.78a5.57,5.57,0,0,1-1.6-.22A3.73,3.73,0,0,1,14.2,9l.51-1a4.25,4.25,0,0,0,1.07.49,3.88,3.88,0,0,0,1.3.2,2.37,2.37,0,0,0,1.23-.24.78.78,0,0,0,.38-.68.61.61,0,0,0-.23-.5A1.63,1.63,0,0,0,17.85,7c-.25-.06-.53-.11-.84-.16s-.61-.1-.92-.18a3.8,3.8,0,0,1-.84-.3,1.54,1.54,0,0,1-.61-.55,1.68,1.68,0,0,1-.24-.93,1.77,1.77,0,0,1,.35-1.08,2.2,2.2,0,0,1,1-.71,4.2,4.2,0,0,1,1.5-.25A6.18,6.18,0,0,1,18.56,3a3.53,3.53,0,0,1,1.12.45l-.52,1a2.56,2.56,0,0,0-1-.42,3.71,3.71,0,0,0-1-.11,2.23,2.23,0,0,0-1.2.26.79.79,0,0,0-.39.67.65.65,0,0,0,.23.53,1.88,1.88,0,0,0,.62.29c.25.06.53.12.83.17a9.32,9.32,0,0,1,.92.17,3.47,3.47,0,0,1,.84.3,1.49,1.49,0,0,1,.61.53,1.59,1.59,0,0,1,.24.92,1.63,1.63,0,0,1-.35,1.06,2.31,2.31,0,0,1-1,.7A4.23,4.23,0,0,1,17,9.78Z"/><path class="cls-1" d="M27.69,9.39A3.63,3.63,0,0,1,25.93,9a3.16,3.16,0,0,1-1.68-2.86,3.08,3.08,0,0,1,1.67-2.86,3.68,3.68,0,0,1,1.75-.41,3.45,3.45,0,0,1,1.58.34A2.65,2.65,0,0,1,30.4,4.27a3.59,3.59,0,0,1,.43,1.83,3.64,3.64,0,0,1-.42,1.83A2.72,2.72,0,0,1,29.27,9,3.35,3.35,0,0,1,27.69,9.39Zm.16,2.83A6.14,6.14,0,0,1,26,12a3.89,3.89,0,0,1-1.42-.74l.58-1a3.65,3.65,0,0,0,1.17.64,4.34,4.34,0,0,0,1.44.23,2.37,2.37,0,0,0,1.76-.57,2.33,2.33,0,0,0,.56-1.71V7.44l.12-1.34-.07-1.35V2.9h1.16l0,5.84a3.44,3.44,0,0,1-.89,2.63A3.61,3.61,0,0,1,27.85,12.22Zm0-3.9A2.41,2.41,0,0,0,29,8a1.93,1.93,0,0,0,.82-.78,2.17,2.17,0,0,0,.3-1.15A2.16,2.16,0,0,0,29.84,5,2.06,2.06,0,0,0,29,4.19a2.8,2.8,0,0,0-2.4,0,2.08,2.08,0,0,0-.83.78,2.19,2.19,0,0,0-.3,1.15,2.29,2.29,0,0,0,.31,1.15,2.06,2.06,0,0,0,.83.77A2.51,2.51,0,0,0,27.83,8.32Z"/><path class="cls-1" d="M33.69,9.65l0-6.76h1.17V4.72l-.11-.46a2.09,2.09,0,0,1,.94-1.07,3.38,3.38,0,0,1,1.63-.38V4H37a2.07,2.07,0,0,0-1.55.59,2.34,2.34,0,0,0-.57,1.7V9.65Z"/><path class="cls-1" d="M40.35,9.71A3.17,3.17,0,0,1,39,9.46a2,2,0,0,1-.88-.71,1.74,1.74,0,0,1-.31-1,2,2,0,0,1,.26-1A1.81,1.81,0,0,1,39,6a3.94,3.94,0,0,1,1.6-.27h2.14v.88H40.61a1.78,1.78,0,0,0-1.24.31,1,1,0,0,0-.32.74,1,1,0,0,0,.4.8,1.84,1.84,0,0,0,1.1.29,2.23,2.23,0,0,0,1.2-.31,1.74,1.74,0,0,0,.75-.89l.24.84a1.86,1.86,0,0,1-.85.95A3,3,0,0,1,40.35,9.71Zm2.22-.09V8.19l-.06-.26V5.49A1.53,1.53,0,0,0,42,4.29a1.88,1.88,0,0,0-1.36-.43,3.6,3.6,0,0,0-1.17.2,3,3,0,0,0-1,.54L38,3.68A3.71,3.71,0,0,1,39.27,3a5.22,5.22,0,0,1,1.54-.23A3.13,3.13,0,0,1,43,3.47a2.69,2.69,0,0,1,.76,2.07V9.62Z"/><path class="cls-1" d="M46,9.61l0-6.76h1.17V4.67L47,4.19a2.33,2.33,0,0,1,1-1,3.45,3.45,0,0,1,1.61-.38,3.23,3.23,0,0,1,1.46.32,2.29,2.29,0,0,1,1,1A3.41,3.41,0,0,1,52.4,5.7l0,3.89H51.19V5.84a2,2,0,0,0-.48-1.47,1.76,1.76,0,0,0-1.35-.5,2.46,2.46,0,0,0-1.14.26,1.7,1.7,0,0,0-.74.76,2.67,2.67,0,0,0-.26,1.23V9.61Z"/><path class="cls-1" d="M57.48,9.65a3.49,3.49,0,0,1-1.75-.43A3.15,3.15,0,0,1,54.5,8a3.69,3.69,0,0,1-.45-1.82,3.61,3.61,0,0,1,.44-1.8,3.15,3.15,0,0,1,1.22-1.21,3.5,3.5,0,0,1,1.75-.44A3.1,3.1,0,0,1,59,3.13a2.75,2.75,0,0,1,1.1,1.14,3.94,3.94,0,0,1,.42,1.91,4,4,0,0,1-.39,1.92,2.78,2.78,0,0,1-1.09,1.16A3.13,3.13,0,0,1,57.48,9.65Zm.1-1.07a2.28,2.28,0,0,0,1.16-.3,2.12,2.12,0,0,0,.81-.84,2.54,2.54,0,0,0,.3-1.25,2.61,2.61,0,0,0-.31-1.26,2.09,2.09,0,0,0-.82-.82,2.34,2.34,0,0,0-1.15-.29,2.24,2.24,0,0,0-2,1.12,2.55,2.55,0,0,0-.3,1.26,2.56,2.56,0,0,0,.31,1.26,2.25,2.25,0,0,0,.82.83A2.35,2.35,0,0,0,57.58,8.58Zm2.31,1V7.74L60,6.17,59.83,4.6l0-4.5H61l0,9.46Z"/><path class="cls-1" d="M66.4,9.62a3.82,3.82,0,0,1-1.91-.44A3.2,3.2,0,0,1,63.21,8a3.6,3.6,0,0,1-.46-1.78,3.6,3.6,0,0,1,.44-1.79A3.09,3.09,0,0,1,64.4,3.17a3.64,3.64,0,0,1,3.47,0,3.08,3.08,0,0,1,1.19,1.21,3.75,3.75,0,0,1,.43,1.83v.18c0,.07,0,.13,0,.19l-5.76,0V5.7l5.12,0-.5.31a2.24,2.24,0,0,0-.27-1.16A2,2,0,0,0,67.28,4,2.37,2.37,0,0,0,65,4a2.17,2.17,0,0,0-.78.81A2.42,2.42,0,0,0,64,6v.21a2.39,2.39,0,0,0,.32,1.2,2.11,2.11,0,0,0,.88.82,2.67,2.67,0,0,0,1.29.29,2.75,2.75,0,0,0,1.09-.21,2.42,2.42,0,0,0,.86-.61l.68.79a3.15,3.15,0,0,1-1.14.82A4,4,0,0,1,66.4,9.62Z"/><path class="cls-1" d="M73.14,9.6a5.57,5.57,0,0,1-1.6-.22,4,4,0,0,1-1.2-.56l.51-1a4.25,4.25,0,0,0,1.07.49,4.15,4.15,0,0,0,1.3.2,2.3,2.3,0,0,0,1.24-.25.75.75,0,0,0,.37-.67.6.6,0,0,0-.23-.5A1.57,1.57,0,0,0,74,6.85c-.25,0-.53-.11-.83-.15s-.62-.11-.92-.18a3.71,3.71,0,0,1-.85-.3,1.54,1.54,0,0,1-.61-.55,1.7,1.7,0,0,1-.23-.94,1.69,1.69,0,0,1,.34-1.07,2.18,2.18,0,0,1,1-.71,4,4,0,0,1,1.5-.25,6.34,6.34,0,0,1,1.35.15,3.57,3.57,0,0,1,1.11.45l-.52,1a2.93,2.93,0,0,0-1-.42,4.77,4.77,0,0,0-1-.11,2.13,2.13,0,0,0-1.2.27.78.78,0,0,0-.39.67.63.63,0,0,0,.24.53,1.57,1.57,0,0,0,.61.28,5.92,5.92,0,0,0,.84.17c.3,0,.61.11.91.18a3.47,3.47,0,0,1,.84.3,1.59,1.59,0,0,1,.62.53,1.65,1.65,0,0,1,.23.92,1.58,1.58,0,0,1-.35,1.06,2.34,2.34,0,0,1-1,.7A4.56,4.56,0,0,1,73.14,9.6Z"/><path class="cls-1" d="M83.92,9.57a3.6,3.6,0,0,1-1.81-.45A3.28,3.28,0,0,1,80.85,7.9a3.42,3.42,0,0,1-.46-1.78,3.53,3.53,0,0,1,.45-1.79,3.26,3.26,0,0,1,1.25-1.22,3.68,3.68,0,0,1,1.81-.45,3.76,3.76,0,0,1,1.81.44A3.16,3.16,0,0,1,87,4.31a3.48,3.48,0,0,1,.46,1.79A3.49,3.49,0,0,1,87,7.88a3.28,3.28,0,0,1-1.25,1.23A3.7,3.7,0,0,1,83.92,9.57Zm0-1.08a2.35,2.35,0,0,0,1.16-.29,2,2,0,0,0,.81-.84,2.66,2.66,0,0,0,.29-1.26,2.55,2.55,0,0,0-.3-1.26A2.06,2.06,0,0,0,85.07,4a2.42,2.42,0,0,0-1.17-.29,2.35,2.35,0,0,0-1.16.3,2.15,2.15,0,0,0-.81.83,2.3,2.3,0,0,0-.3,1.25,2.45,2.45,0,0,0,.31,1.26,2.09,2.09,0,0,0,.81.83A2.19,2.19,0,0,0,83.92,8.49Z"/><path class="cls-1" d="M89.13,9.47,89.1,0h1.22V4.5l-.12,1.57.08,1.57V9.47Zm3.58.07a3.11,3.11,0,0,1-1.56-.39A2.66,2.66,0,0,1,90.05,8a4.06,4.06,0,0,1-.41-1.91,4,4,0,0,1,.41-1.92A2.78,2.78,0,0,1,91.15,3a3.35,3.35,0,0,1,1.54-.39,3.5,3.5,0,0,1,1.76.43,3.27,3.27,0,0,1,1.22,1.2,3.55,3.55,0,0,1,.45,1.81,3.54,3.54,0,0,1-.44,1.81A3.22,3.22,0,0,1,94.47,9.1,3.59,3.59,0,0,1,92.71,9.54Zm-.1-1.07a2.35,2.35,0,0,0,1.16-.3,2.14,2.14,0,0,0,.82-.84,2.55,2.55,0,0,0,.29-1.26,2.49,2.49,0,0,0-.3-1.25A2.09,2.09,0,0,0,93.76,4a2.21,2.21,0,0,0-1.17-.29A2.34,2.34,0,0,0,91.44,4a2.18,2.18,0,0,0-.82.83,2.5,2.5,0,0,0-.29,1.26,2.54,2.54,0,0,0,.3,1.25,2.21,2.21,0,0,0,.82.84A2.38,2.38,0,0,0,92.61,8.47Z"/><path class="cls-1" d="M97.83,9.44l0-6.76H99V4.51l-.12-.45A2.11,2.11,0,0,1,99.81,3a3.27,3.27,0,0,1,1.63-.37V3.79h-.28a2.08,2.08,0,0,0-1.56.59A2.34,2.34,0,0,0,99,6.07V9.44Z"/><path class="cls-1" d="M104.49,9.5a3.17,3.17,0,0,1-1.32-.25,2.09,2.09,0,0,1-.88-.71,1.73,1.73,0,0,1-.31-1,2,2,0,0,1,.26-1,1.81,1.81,0,0,1,.85-.72,3.94,3.94,0,0,1,1.6-.27h2.14V6.4h-2.09a1.84,1.84,0,0,0-1.24.31,1,1,0,0,0-.32.74,1,1,0,0,0,.4.8,1.71,1.71,0,0,0,1.1.29,2.23,2.23,0,0,0,1.2-.31,1.69,1.69,0,0,0,.75-.89l.24.84a1.86,1.86,0,0,1-.85,1A3,3,0,0,1,104.49,9.5Zm2.22-.09V8l-.06-.27V5.28a1.53,1.53,0,0,0-.46-1.2,1.88,1.88,0,0,0-1.36-.43,3.61,3.61,0,0,0-1.17.21,3.11,3.11,0,0,0-1,.53l-.51-.92a3.71,3.71,0,0,1,1.25-.65A5.62,5.62,0,0,1,105,2.59a3.13,3.13,0,0,1,2.15.67,2.69,2.69,0,0,1,.76,2.07V9.41Z"/><path class="cls-1" d="M112.08,9.47a5.25,5.25,0,0,1-1.6-.22,3.73,3.73,0,0,1-1.2-.56l.51-1a3.93,3.93,0,0,0,1.07.49,3.9,3.9,0,0,0,1.31.2,2.37,2.37,0,0,0,1.23-.24.76.76,0,0,0,.37-.68.61.61,0,0,0-.23-.5,1.72,1.72,0,0,0-.61-.26c-.25-.06-.53-.11-.83-.16a9.32,9.32,0,0,1-.92-.17,4.27,4.27,0,0,1-.85-.31,1.54,1.54,0,0,1-.61-.55,1.68,1.68,0,0,1-.23-.93,1.71,1.71,0,0,1,.34-1.07,2.19,2.19,0,0,1,1-.72,4.2,4.2,0,0,1,1.5-.25,5.78,5.78,0,0,1,1.35.16,3.34,3.34,0,0,1,1.11.44l-.52,1a2.59,2.59,0,0,0-.95-.42,4.32,4.32,0,0,0-1-.11,2.23,2.23,0,0,0-1.2.26.79.79,0,0,0-.39.67.63.63,0,0,0,.24.53,1.73,1.73,0,0,0,.61.29c.25.06.53.12.84.17s.61.1.91.17a3.47,3.47,0,0,1,.84.3,1.67,1.67,0,0,1,.62.53,1.76,1.76,0,0,1,.24.92,1.64,1.64,0,0,1-.36,1.06,2.34,2.34,0,0,1-1,.7A4.33,4.33,0,0,1,112.08,9.47Z"/><path class="cls-1" d="M20.15,23a3.49,3.49,0,0,1-1.75-.43,3.18,3.18,0,0,1-1.23-1.21,3.62,3.62,0,0,1-.45-1.81,3.58,3.58,0,0,1,.44-1.8,3.15,3.15,0,0,1,1.22-1.21,3.5,3.5,0,0,1,1.75-.44,3.1,3.1,0,0,1,1.55.38,2.75,2.75,0,0,1,1.1,1.14,3.94,3.94,0,0,1,.42,1.91,4,4,0,0,1-.39,1.92,2.84,2.84,0,0,1-1.09,1.16A3.13,3.13,0,0,1,20.15,23Zm.1-1.07a2.28,2.28,0,0,0,1.16-.3,2.18,2.18,0,0,0,.81-.84,2.55,2.55,0,0,0,.3-1.26,2.6,2.6,0,0,0-.31-1.25,2.09,2.09,0,0,0-.82-.82,2.3,2.3,0,0,0-3.13.83,2.73,2.73,0,0,0,0,2.51,2.21,2.21,0,0,0,.82.84A2.35,2.35,0,0,0,20.25,21.9Zm2.31,1V21.06l.07-1.57-.13-1.57,0-4.5h1.23l0,9.47Z"/><path class="cls-1" d="M29.07,22.94a3.93,3.93,0,0,1-1.91-.44,3.2,3.2,0,0,1-1.28-1.22,3.77,3.77,0,0,1,0-3.57,3.18,3.18,0,0,1,1.21-1.23A3.46,3.46,0,0,1,28.81,16a3.39,3.39,0,0,1,1.73.43,3,3,0,0,1,1.19,1.21,3.7,3.7,0,0,1,.43,1.83v.18c0,.07,0,.13,0,.19l-5.76,0V19l5.12,0-.5.31a2.24,2.24,0,0,0-.27-1.16,2,2,0,0,0-.78-.79,2.37,2.37,0,0,0-2.27,0,2.1,2.1,0,0,0-.78.81,2.39,2.39,0,0,0-.28,1.18v.21a2.39,2.39,0,0,0,.32,1.2,2.11,2.11,0,0,0,.88.82,2.79,2.79,0,0,0,1.29.29,2.75,2.75,0,0,0,1.09-.21,2.56,2.56,0,0,0,.86-.61l.68.78a3.06,3.06,0,0,1-1.14.83A4.17,4.17,0,0,1,29.07,22.94Z"/><path class="cls-1" d="M37.3,22.84l0-9.47H38.5l0,9.46Z"/><path class="cls-1" d="M42.84,22.9a3.38,3.38,0,0,1-1.32-.25,2.09,2.09,0,0,1-.88-.71,1.81,1.81,0,0,1-.31-1,2,2,0,0,1,.26-1,1.81,1.81,0,0,1,.85-.72,3.94,3.94,0,0,1,1.6-.27h2.15v.88H43.1a1.78,1.78,0,0,0-1.24.31,1,1,0,0,0,.08,1.54A1.87,1.87,0,0,0,43,22a2.29,2.29,0,0,0,1.21-.31,1.72,1.72,0,0,0,.74-.89l.24.84a1.86,1.86,0,0,1-.85.95A3.1,3.1,0,0,1,42.84,22.9Zm2.22-.09V21.38L45,21.12V18.68a1.57,1.57,0,0,0-.46-1.21,1.92,1.92,0,0,0-1.35-.42,3.61,3.61,0,0,0-1.18.2,3.13,3.13,0,0,0-1,.54l-.51-.92a3.8,3.8,0,0,1,1.25-.65A5.27,5.27,0,0,1,43.3,16a3.13,3.13,0,0,1,2.15.67,2.65,2.65,0,0,1,.76,2.07v4.08Z"/><path class="cls-1" d="M51.93,25.27l0-9.24h1.18v1.83L53,19.42,53.14,21l0,4.27Zm3.58-2.41A3.12,3.12,0,0,1,54,22.47a2.8,2.8,0,0,1-1.11-1.15,3.94,3.94,0,0,1-.42-1.91,4.08,4.08,0,0,1,.39-1.92,2.72,2.72,0,0,1,1.1-1.15A3.11,3.11,0,0,1,55.49,16a3.5,3.5,0,0,1,1.76.43,3.27,3.27,0,0,1,1.22,1.2,3.55,3.55,0,0,1,.45,1.81,3.65,3.65,0,0,1-.44,1.81,3.29,3.29,0,0,1-1.21,1.22A3.62,3.62,0,0,1,55.51,22.86Zm-.11-1.08a2.36,2.36,0,0,0,1.17-.29,2.11,2.11,0,0,0,.81-.84,2.8,2.8,0,0,0,0-2.52,2.22,2.22,0,0,0-.82-.82A2.42,2.42,0,0,0,55.39,17a2.5,2.5,0,0,0-1.16.3,2.15,2.15,0,0,0-.81.83,2.39,2.39,0,0,0-.29,1.25,2.55,2.55,0,0,0,.3,1.26,2,2,0,0,0,.82.83A2.14,2.14,0,0,0,55.4,21.78Z"/><path class="cls-1" d="M61.21,14.7a.82.82,0,0,1-.59-.23.74.74,0,0,1-.24-.56.82.82,0,0,1,.23-.58.85.85,0,0,1,.6-.23.83.83,0,0,1,.59.22.74.74,0,0,1,.24.56.82.82,0,0,1-.23.58A.78.78,0,0,1,61.21,14.7Zm-.58,8.06,0-6.76h1.23l0,6.76Z"/><path class="cls-1" d="M64.19,22.75l0-6.76h1.18v1.83l-.19-.49a2.36,2.36,0,0,1,1-1,3.3,3.3,0,0,1,1.61-.38,3.27,3.27,0,0,1,1.46.32,2.29,2.29,0,0,1,1,1,3.39,3.39,0,0,1,.36,1.65v3.89H69.38V19a2.06,2.06,0,0,0-.49-1.48A1.78,1.78,0,0,0,67.54,17a2.4,2.4,0,0,0-1.14.26,1.73,1.73,0,0,0-.74.75,2.61,2.61,0,0,0-.26,1.24v3.49Z"/><path class="cls-1" d="M71.89,17V16H76.2v1Zm3.31,5.82a2.22,2.22,0,0,1-1.59-.54,2.12,2.12,0,0,1-.56-1.57l0-6.2h1.22l0,6.15a1.17,1.17,0,0,0,.28.84,1,1,0,0,0,.78.29,1.44,1.44,0,0,0,1-.32l.39.87a1.61,1.61,0,0,1-.67.36A2.74,2.74,0,0,1,75.2,22.79Z"/><path class="cls-1" d="M81,22.77a3.47,3.47,0,0,1-1.52-.31,2.35,2.35,0,0,1-1-1,3.54,3.54,0,0,1-.37-1.66V15.94H79.3v3.75a2.07,2.07,0,0,0,.48,1.49,1.75,1.75,0,0,0,1.35.49,2.33,2.33,0,0,0,1.11-.26,1.79,1.79,0,0,0,.72-.77,2.53,2.53,0,0,0,.25-1.22V15.93h1.23l0,6.76H83.3V20.86l.2.49a2.41,2.41,0,0,1-1,1A3,3,0,0,1,81,22.77Z"/><path class="cls-1" d="M86.79,22.68l0-6.77H88v1.84l-.11-.46a2.07,2.07,0,0,1,.94-1.08,3.36,3.36,0,0,1,1.63-.37V17l-.14,0h-.14a2.08,2.08,0,0,0-1.55.6A2.32,2.32,0,0,0,88,19.3v3.37Z"/><path class="cls-1" d="M93.46,22.73a3.22,3.22,0,0,1-1.33-.25,2,2,0,0,1-.87-.7,1.78,1.78,0,0,1-.31-1,1.89,1.89,0,0,1,.26-1,1.85,1.85,0,0,1,.85-.71,4.1,4.1,0,0,1,1.6-.28H95.8v.88h-2.1a1.88,1.88,0,0,0-1.23.31,1,1,0,0,0-.32.74.93.93,0,0,0,.4.8,1.78,1.78,0,0,0,1.1.3,2.33,2.33,0,0,0,1.2-.31,1.73,1.73,0,0,0,.74-.9l.25.84a1.92,1.92,0,0,1-.85,1A3.1,3.1,0,0,1,93.46,22.73Zm2.22-.08V21.22L95.61,21V18.51a1.58,1.58,0,0,0-.46-1.2,1.94,1.94,0,0,0-1.36-.42,3.6,3.6,0,0,0-1.17.2,3,3,0,0,0-1,.53l-.51-.92a3.6,3.6,0,0,1,1.25-.64,5.22,5.22,0,0,1,1.54-.23,3,3,0,0,1,2.14.67,2.59,2.59,0,0,1,.76,2.06l0,4.08Z"/><path class="cls-1" d="M32.06,36.13a4,4,0,0,1-1.91-.44,3.34,3.34,0,0,1-1.28-1.22,3.53,3.53,0,0,1-.45-1.79,3.48,3.48,0,0,1,.43-1.78,3.18,3.18,0,0,1,1.21-1.23,3.46,3.46,0,0,1,1.74-.44,3.39,3.39,0,0,1,1.73.42,3.1,3.1,0,0,1,1.19,1.22,3.7,3.7,0,0,1,.43,1.83v.18c0,.07,0,.13,0,.19l-5.76,0v-.88l5.12,0-.5.31a2.21,2.21,0,0,0-.27-1.16,2.07,2.07,0,0,0-.78-.8,2.4,2.4,0,0,0-2.27,0,2,2,0,0,0-.78.81,2.51,2.51,0,0,0-.28,1.18v.2A2.45,2.45,0,0,0,29.93,34a2.18,2.18,0,0,0,.88.82,2.79,2.79,0,0,0,1.29.29,2.75,2.75,0,0,0,1.09-.21,2.45,2.45,0,0,0,.86-.62l.68.79a3,3,0,0,1-1.14.82A4,4,0,0,1,32.06,36.13Z"/><path class="cls-1" d="M38.8,36.11a5.57,5.57,0,0,1-1.6-.23,3.73,3.73,0,0,1-1.2-.56l.51-1a4.26,4.26,0,0,0,1.07.5,4.46,4.46,0,0,0,1.3.2,2.37,2.37,0,0,0,1.24-.25.76.76,0,0,0,.37-.68.58.58,0,0,0-.23-.49,1.57,1.57,0,0,0-.61-.27c-.25-.06-.53-.11-.83-.16A9.32,9.32,0,0,1,37.9,33a3.71,3.71,0,0,1-.85-.3,1.71,1.71,0,0,1-.61-.55,1.93,1.93,0,0,1,.11-2,2.11,2.11,0,0,1,1-.71A4.19,4.19,0,0,1,39,29.2a5.78,5.78,0,0,1,1.35.16,3.14,3.14,0,0,1,1.11.45l-.52,1a2.93,2.93,0,0,0-1-.42,4.77,4.77,0,0,0-1-.11,2.23,2.23,0,0,0-1.2.26.79.79,0,0,0-.39.68.61.61,0,0,0,.24.52,1.58,1.58,0,0,0,.61.29,7.76,7.76,0,0,0,.84.17c.3,0,.61.1.91.18a4,4,0,0,1,.84.29,1.7,1.7,0,0,1,.62.54,1.61,1.61,0,0,1,.23.91,1.58,1.58,0,0,1-.35,1.06,2.26,2.26,0,0,1-1,.7A4.55,4.55,0,0,1,38.8,36.11Z"/><path class="cls-1" d="M43.26,38.49l0-9.24H44.4v1.82l-.07,1.57.13,1.57v4.28Zm3.58-2.41a3.19,3.19,0,0,1-1.54-.38,2.85,2.85,0,0,1-1.12-1.16,4.12,4.12,0,0,1-.42-1.91,4.06,4.06,0,0,1,.4-1.91,2.7,2.7,0,0,1,1.09-1.15,3.17,3.17,0,0,1,1.56-.39,3.52,3.52,0,0,1,1.77.43,3.1,3.1,0,0,1,1.21,1.2,3.59,3.59,0,0,1,.46,1.8,3.65,3.65,0,0,1-.44,1.81,3.22,3.22,0,0,1-1.21,1.22A3.51,3.51,0,0,1,46.84,36.08ZM46.73,35a2.26,2.26,0,0,0,1.17-.3,2.12,2.12,0,0,0,.81-.84,2.54,2.54,0,0,0,.3-1.25,2.5,2.5,0,0,0-.3-1.26,2.18,2.18,0,0,0-.83-.82,2.35,2.35,0,0,0-1.16-.29,2.28,2.28,0,0,0-1.16.3,2.13,2.13,0,0,0-.81.82,2.76,2.76,0,0,0,0,2.52,2.11,2.11,0,0,0,.82.83A2.34,2.34,0,0,0,46.73,35Z"/><path class="cls-1" d="M53.87,36.06a3.21,3.21,0,0,1-1.32-.25,2.09,2.09,0,0,1-.88-.71,1.81,1.81,0,0,1-.31-1,2,2,0,0,1,.26-1,1.81,1.81,0,0,1,.85-.72,3.94,3.94,0,0,1,1.6-.27h2.15V33H54.13a1.78,1.78,0,0,0-1.24.31A1,1,0,0,0,53,34.82a1.8,1.8,0,0,0,1.1.29,2.23,2.23,0,0,0,1.2-.31,1.69,1.69,0,0,0,.75-.89l.24.84a1.86,1.86,0,0,1-.85,1A3,3,0,0,1,53.87,36.06ZM56.09,36V34.54L56,34.28V31.84a1.53,1.53,0,0,0-.46-1.2,1.88,1.88,0,0,0-1.36-.43,3.6,3.6,0,0,0-1.17.2,3.35,3.35,0,0,0-1,.54L51.54,30a3.8,3.8,0,0,1,1.25-.65,5.57,5.57,0,0,1,1.54-.23,3.13,3.13,0,0,1,2.15.67,2.69,2.69,0,0,1,.76,2.07V36Z"/><path class="cls-1" d="M59.52,36l0-6.76h1.17V31l-.19-.48a2.31,2.31,0,0,1,1-1,3.33,3.33,0,0,1,1.61-.37,3.11,3.11,0,0,1,1.46.31,2.26,2.26,0,0,1,1,1,3.46,3.46,0,0,1,.37,1.64v3.89H64.71V32.19a2,2,0,0,0-.48-1.47,1.8,1.8,0,0,0-1.35-.5,2.39,2.39,0,0,0-1.13.26,1.72,1.72,0,0,0-.75.76,2.68,2.68,0,0,0-.26,1.24l0,3.48Zm4.08-7.79a1.08,1.08,0,0,1-.54-.13,1.84,1.84,0,0,1-.43-.3l-.37-.3a.65.65,0,0,0-.36-.12.57.57,0,0,0-.45.21,1,1,0,0,0-.19.58h-.69A1.85,1.85,0,0,1,60.92,27a1.06,1.06,0,0,1,.89-.43,1.21,1.21,0,0,1,.55.13,2.32,2.32,0,0,1,.44.31l.36.3a.62.62,0,0,0,.35.12.6.6,0,0,0,.46-.2.9.9,0,0,0,.19-.56h.69a1.74,1.74,0,0,1-.35,1.1A1.09,1.09,0,0,1,63.6,28.17Z"/><path class="cls-1" d="M71.11,36a3.63,3.63,0,0,1-1.82-.44A3.21,3.21,0,0,1,68,34.33a3.49,3.49,0,0,1-.47-1.77A3.41,3.41,0,0,1,68,30.77a3.33,3.33,0,0,1,1.24-1.23,4,4,0,0,1,3.62,0,3.33,3.33,0,0,1,1.26,1.21,3.5,3.5,0,0,1,.45,1.79,3.42,3.42,0,0,1-.44,1.79,3.28,3.28,0,0,1-1.25,1.23A3.59,3.59,0,0,1,71.11,36Zm0-1.07a2.26,2.26,0,0,0,1.17-.3,2.05,2.05,0,0,0,.81-.84,2.65,2.65,0,0,0,.29-1.25,2.5,2.5,0,0,0-.3-1.26,2.2,2.2,0,0,0-.81-.82,2.42,2.42,0,0,0-1.17-.29,2.23,2.23,0,0,0-1.16.3,2.3,2.3,0,0,0-.82.82,2.76,2.76,0,0,0,0,2.52,2.18,2.18,0,0,0,.82.83A2.35,2.35,0,0,0,71.1,34.93Z"/><path class="cls-1" d="M76.31,35.91l0-9.47h1.23l0,9.46Z"/><path class="cls-1" d="M81.85,36a3.38,3.38,0,0,1-1.32-.25,2.09,2.09,0,0,1-.88-.71,1.81,1.81,0,0,1-.31-1,2,2,0,0,1,.26-1,1.81,1.81,0,0,1,.85-.72,3.94,3.94,0,0,1,1.6-.27H84.2v.88H82.11a1.8,1.8,0,0,0-1.24.31,1,1,0,0,0-.31.74,1,1,0,0,0,.39.8,1.87,1.87,0,0,0,1.1.29,2.29,2.29,0,0,0,1.21-.31,1.72,1.72,0,0,0,.74-.89l.25.84a1.93,1.93,0,0,1-.86,1A3.08,3.08,0,0,1,81.85,36Zm2.22-.09V34.45L84,34.19V31.75a1.6,1.6,0,0,0-.45-1.21,2,2,0,0,0-1.36-.42,3.66,3.66,0,0,0-1.18.2,3.13,3.13,0,0,0-1,.54l-.51-.92a3.76,3.76,0,0,1,1.26-.65,5.15,5.15,0,0,1,1.53-.23,3.11,3.11,0,0,1,2.15.67,2.69,2.69,0,0,1,.76,2.07v4.08Z"/></g></g></svg>