<svg xmlns="http://www.w3.org/2000/svg" viewBox="0 0 348.33 38.98"><defs><style>.cls-1{fill:#353535;}</style></defs><g id="Layer_2" data-name="Layer 2"><g id="Layer_1-2" data-name="Layer 1"><path class="cls-1" d="M0,30.89V.64H10.05a41,41,0,0,1,4.31.23,11.27,11.27,0,0,1,3.81,1.07,6.91,6.91,0,0,1,2.75,2.43A7.6,7.6,0,0,1,22,8.65,6.27,6.27,0,0,1,21.15,12,7,7,0,0,1,19,14.27a10.78,10.78,0,0,1-3.07,1.39,24.55,24.55,0,0,1-3.51.72,32.86,32.86,0,0,1-3.54.28c-1.16,0-2.2,0-3.11,0V30.89ZM9.67,15.38a6.39,6.39,0,0,0,2.71-.51,4.49,4.49,0,0,0,1.74-1.41,5.48,5.48,0,0,0,.94-2.15,12.23,12.23,0,0,0,.28-2.7A9.52,9.52,0,0,0,15,6.18a6.11,6.11,0,0,0-.94-2,4.61,4.61,0,0,0-1.64-1.42,5,5,0,0,0-2.41-.54H6.35a1.94,1.94,0,0,0-.51.68,2.89,2.89,0,0,0-.09.86V15.38Z"/><path class="cls-1" d="M32.08,30.89H26.33V4.34a5.74,5.74,0,0,0-.13-1.42,1.21,1.21,0,0,0-.45-.73,2.19,2.19,0,0,0-.83-.34c-.34-.07-.78-.13-1.32-.19v-.6L32.08.21Z"/><path class="cls-1" d="M37.75,15a14.37,14.37,0,0,1,1.64-2.07,8.16,8.16,0,0,1,2-1.55,10.83,10.83,0,0,1,2.6-1A13.84,13.84,0,0,1,47.33,10a14.57,14.57,0,0,1,3.13.34,8.19,8.19,0,0,1,2.67,1.09A5.67,5.67,0,0,1,55,13.38a5.77,5.77,0,0,1,.68,2.89V30.89H49.93V28.46a15.74,15.74,0,0,1-3.15,2,8.24,8.24,0,0,1-3.58.85,7.84,7.84,0,0,1-2.34-.34,5.9,5.9,0,0,1-2-1,5.07,5.07,0,0,1-1.37-1.77A6,6,0,0,1,37,25.56a4.92,4.92,0,0,1,1.45-3.64A11,11,0,0,1,42,19.64,20.21,20.21,0,0,1,46.2,18.4c1.47-.25,2.71-.42,3.73-.51V16.44c0-.65,0-1.27,0-1.87a5.54,5.54,0,0,0-.25-1.6,2.68,2.68,0,0,0-.73-1.15,2.39,2.39,0,0,0-1.43-.53,3.65,3.65,0,0,0-1.83.3,4.65,4.65,0,0,0-1.6,1.15,6.42,6.42,0,0,0-1.17,1.94,9.2,9.2,0,0,0-.59,2.66Zm12.18,3.75a16.24,16.24,0,0,0-2.15.36,7.9,7.9,0,0,0-2.41,1,5.78,5.78,0,0,0-1.91,1.87,5.29,5.29,0,0,0-.69,3.11,4,4,0,0,0,1,2.66,3,3,0,0,0,2.28,1A7.14,7.14,0,0,0,48,28.4a5.63,5.63,0,0,0,2-1Z"/><path class="cls-1" d="M59.22,35.62,66.76,32l-10-21.6h6.43L69.4,25.56a33.26,33.26,0,0,0,2.22-5.69,19.35,19.35,0,0,0,.72-4.45,7.26,7.26,0,0,0-.53-3.17,3.72,3.72,0,0,0-1.6-1.81h7.37v.42L65.18,39l-6-3Z"/><path class="cls-1" d="M110.56,18.7a2.43,2.43,0,0,0-.81-2,2.91,2.91,0,0,0-1.92-.68v-.6h8.9l0,8.7a4.89,4.89,0,0,1-.66,2.55,6.45,6.45,0,0,1-1.77,1.92A10,10,0,0,1,111.81,30a21,21,0,0,1-2.89.81,27.48,27.48,0,0,1-2.88.43c-.94.08-1.77.12-2.51.12A18.82,18.82,0,0,1,97,30.23a14.87,14.87,0,0,1-5.11-3.11,14.06,14.06,0,0,1-3.35-4.9,17,17,0,0,1-1.19-6.5,18.45,18.45,0,0,1,1.15-6.8,12.9,12.9,0,0,1,3.26-4.85A13.76,13.76,0,0,1,96.9,1.15a21.53,21.53,0,0,1,6.67-1,19.35,19.35,0,0,1,4.79.6,13,13,0,0,1,4.22,1.85,9.77,9.77,0,0,1,3,3.2,9.49,9.49,0,0,1,1.24,4.62h-7.16q.86-4.14-1-6.54c-1.2-1.61-3.19-2.41-5.94-2.41a7.57,7.57,0,0,0-4.34,1.13,7.51,7.51,0,0,0-2.56,2.94,12.67,12.67,0,0,0-1.19,4.09,34.73,34.73,0,0,0-.3,4.54,25,25,0,0,0,.59,5.3,16.27,16.27,0,0,0,1.92,4.9A10.93,10.93,0,0,0,100.33,28a9.35,9.35,0,0,0,5.2,1.38,12,12,0,0,0,1.45-.1,7,7,0,0,0,1.64-.41,4.54,4.54,0,0,0,1.36-.79,1.54,1.54,0,0,0,.58-1.25Z"/><path class="cls-1" d="M132,31.31a11.88,11.88,0,0,1-4.35-.78,10.64,10.64,0,0,1-3.47-2.2A10.35,10.35,0,0,1,121.85,25a10.7,10.7,0,0,1-.85-4.31,10.7,10.7,0,0,1,.85-4.34,10.07,10.07,0,0,1,5.79-5.54,12.64,12.64,0,0,1,8.69,0A10.06,10.06,0,0,1,139.8,13a10.17,10.17,0,0,1,2.33,3.37,10.7,10.7,0,0,1,.85,4.34,10.7,10.7,0,0,1-.85,4.31,10.23,10.23,0,0,1-2.33,3.36,10.44,10.44,0,0,1-3.47,2.2A11.83,11.83,0,0,1,132,31.31Zm2.26-1.62a3.39,3.39,0,0,0,2.21-1.64,7.63,7.63,0,0,0,.94-2.83,14.15,14.15,0,0,0,.06-3.19A16.48,16.48,0,0,0,137,19.3c-.19-.82-.45-1.69-.76-2.6a15.29,15.29,0,0,0-1.17-2.56,6.84,6.84,0,0,0-1.73-2,3.93,3.93,0,0,0-2.43-.76,5,5,0,0,0-1.36.17,3.37,3.37,0,0,0-2.17,1.62,7.49,7.49,0,0,0-1,2.81,13.07,13.07,0,0,0-.09,3.19,16.48,16.48,0,0,0,.45,2.73,17.26,17.26,0,0,0,.83,2.39A14,14,0,0,0,129,26.9,9.24,9.24,0,0,0,130.94,29a3.77,3.77,0,0,0,2.37.85A3.14,3.14,0,0,0,134.25,29.69Z"/><path class="cls-1" d="M153.29,30.89h-5.75V4.34a6.27,6.27,0,0,0-.13-1.42,1.31,1.31,0,0,0-.45-.73,2.19,2.19,0,0,0-.83-.34c-.34-.07-.78-.13-1.32-.19v-.6l8.48-.85Z"/><path class="cls-1" d="M160.83,30.89V11.63h-3.41V10.44h3.41V6.73a6.73,6.73,0,0,1,.58-2.9A5.74,5.74,0,0,1,163,1.77,6.54,6.54,0,0,1,165.35.53a10,10,0,0,1,2.89-.4,13.87,13.87,0,0,1,2.22.19,6.85,6.85,0,0,1,2.24.77,5,5,0,0,1,1.76,1.66,5.45,5.45,0,0,1,.81,2.87L170.59,7a9.81,9.81,0,0,0-.3-4.32A2.27,2.27,0,0,0,168,1.06a2.59,2.59,0,0,0-2.22,1,3.84,3.84,0,0,0-.72,2.37,6.38,6.38,0,0,0,.19,1.55q.19.79.45,1.56c.17.51.35,1,.55,1.51s.37,1,.51,1.43h6.73v1.15h-6.77v19.3Z"/><path class="cls-1" d="M184.77,30.89V14.57a5.11,5.11,0,0,0-.17-1.49,1.5,1.5,0,0,0-.51-.77,1.84,1.84,0,0,0-.85-.32l-1.19-.15v-.59l8.47-.68V30.89Zm2.35-23.48a3.62,3.62,0,0,1-3.71-3.7,3.76,3.76,0,0,1,6.37-2.65,3.68,3.68,0,0,1,1,2.65,3.64,3.64,0,0,1-1,2.64A3.58,3.58,0,0,1,187.12,7.41Z"/><path class="cls-1" d="M202.84,30.89h-5.76V13.59a4.37,4.37,0,0,0-.14-1.3,1.23,1.23,0,0,0-.47-.66,2.13,2.13,0,0,0-.85-.28l-1.26-.15v-.59l8.48-.85v4.68a10.34,10.34,0,0,1,1.45-1.64,10.77,10.77,0,0,1,1.89-1.4,11.52,11.52,0,0,1,2.17-1,7,7,0,0,1,2.2-.38,6,6,0,0,1,4.66,1.68,6.37,6.37,0,0,1,1.56,4.5v14.7H211V16.66a3.44,3.44,0,0,0-.75-2.35,3.2,3.2,0,0,0-2.49-.85,6.91,6.91,0,0,0-2.66.56,7.58,7.58,0,0,0-2.28,1.4Z"/><path class="cls-1" d="M255.66,10.44c1.45-3.75.26-8.65-4.94-8.86h-.3c-4.34,0-9.2,3.49-10.73,11.5-1.32,6.82,1.1,14,8.69,14a13.2,13.2,0,0,0,11.71-7l.69.35c-3,6.43-8.78,10.94-15.64,10.94-8.86,0-14.23-6.9-12.52-15.67C234.79,4.56,243.31.21,251.1.21c5.24,0,12.53,1.79,11.72,10.23Z"/><path class="cls-1" d="M263.12,20.66a13.23,13.23,0,0,1,13-10.65c6.22,0,10.14,4.35,8.94,10.65A13.3,13.3,0,0,1,272,31.31C265.8,31.31,261.88,27,263.12,20.66Zm16.27-1.36c-.17-3.24-.81-7.88-4.56-7.88a5.61,5.61,0,0,0-1.4.17c-4.05,1-5,7.37-4.77,10.35.17,2.77,1.53,7.88,5,7.88a4,4,0,0,0,.94-.12C278.71,28.71,279.56,22.24,279.39,19.3Z"/><path class="cls-1" d="M293.41,30.89h-5.75l5.15-26.54A6.26,6.26,0,0,0,293,3a1.15,1.15,0,0,0-.3-.86,4.71,4.71,0,0,0-2.09-.51l.13-.59,8.65-.86Z"/><path class="cls-1" d="M299.93,20.66A13.23,13.23,0,0,1,313,10c6.22,0,10.13,4.35,8.94,10.65a13.3,13.3,0,0,1-13.08,10.65C302.61,31.31,298.69,27,299.93,20.66ZM316.2,19.3c-.17-3.24-.81-7.88-4.56-7.88a5.61,5.61,0,0,0-1.4.17c-4.05,1-5,7.37-4.77,10.35.17,2.77,1.53,7.88,5,7.88a4,4,0,0,0,.94-.12C315.52,28.71,316.37,22.24,316.2,19.3Z"/><path class="cls-1" d="M324.47,30.89l3.36-17.3c.43-2.26-.34-2.17-2.25-2.38l.13-.6,8.6-.85-.89,4.68c1.91-2.17,5.41-4.68,8.39-4.68a4,4,0,0,1,2.3.68l-2.56,6.69c-.93-2.3-2.3-3.5-4-3.5a7,7,0,0,0-4.39,2.13l-2.94,15.13Z"/><path class="cls-1" d="M342.32,28.08a2.85,2.85,0,0,1,.89-2.11,2.93,2.93,0,0,1,2.13-.88,3,3,0,0,1,3,3,3,3,0,0,1-3,3,3,3,0,0,1-3-3Z"/></g></g></svg>