<svg xmlns="http://www.w3.org/2000/svg" width="160" height="53.44" viewBox="0 0 160 53.44"><defs><style>.cls-1{fill:#476157;}.cls-2{fill:#fefefe;}.cls-3{fill:#fcfcfc;}.cls-4{fill:#f8f9f9;}.cls-5{fill:#fcfdfd;}.cls-6{fill:#f4f5f5;}.cls-7{fill:#6a7f77;}.cls-8{fill:#647b72;}.cls-9{fill:#e6eae8;}.cls-10{fill:#798d85;}.cls-11{fill:#d7dddb;}.cls-12{fill:#6f847c;}.cls-13{fill:#dee3e1;}.cls-14{fill:#466056;}.cls-15{fill:#415d52;}.cls-16{fill:#435e53;}.cls-17{fill:#3d594e;}.cls-18{fill:#486258;}.cls-19{fill:#496359;}.cls-20{fill:#566f64;}.cls-21{fill:#60776e;}.cls-22{fill:#61776e;}.cls-23{fill:#61786e;}.cls-24{fill:#637a71;}.cls-25{fill:#4a6459;}.cls-26{fill:#5f776d;}.cls-27{fill:#566e64;}.cls-28{fill:#4a645a;}.cls-29{fill:#687e75;}.cls-30{fill:#466256;}.cls-31{fill:#496459;}.cls-32{fill:#667c73;}.cls-33{fill:#597168;}.cls-34{fill:#687e76;}.cls-35{fill:#466257;}.cls-36{fill:#697f76;}.cls-37{fill:#486257;}.cls-38{fill:#647a71;}.cls-39{fill:#6c8178;}.cls-40{fill:#72877f;}.cls-41{fill:#70857c;}.cls-42{fill:#546c62;}.cls-43{fill:#6b8178;}.cls-44{fill:#506a60;}.cls-45{fill:#4e685e;}.cls-46{fill:#486358;}.cls-47{fill:#536d62;}.cls-48{fill:#445f55;}.cls-49{fill:#455f55;}.cls-50{fill:#466156;}.cls-51{fill:#627970;}.cls-52{fill:#71867e;}.cls-53{fill:#445f53;}.cls-54{fill:#476257;}.cls-55{fill:#677e75;}.cls-56{fill:#597167;}.cls-57{fill:#4f695f;}.cls-58{fill:#546d64;}.cls-59{fill:#456155;}.cls-60{fill:#4c665c;}.cls-61{fill:#3f5b50;}.cls-62{fill:#637a70;}.cls-63{fill:#6b8078;}.cls-64{fill:#405c50;}.cls-65{fill:#446055;}.cls-66{fill:#50695f;}.cls-67{fill:#546d63;}.cls-68{fill:#5a7268;}.cls-69{fill:#556e64;}.cls-70{fill:#445f54;}.cls-71{fill:#fdfdfd;}.cls-72{fill:#425d53;}.cls-73{fill:#425e53;}.cls-74{fill:#fafafa;}</style></defs><g id="Layer_2" data-name="Layer 2"><g id="Layer_1-2" data-name="Layer 1"><rect class="cls-1" width="160" height="53.44"/><path class="cls-2" d="M80,9.74h31.44c.31,0,.72-.16.9.12s-.14.68-.35.9a6.52,6.52,0,0,0-1.55,5.06c.1,3.7,0,7.39,0,11.09,0,.8-.06,1.08-1,.86a129.54,129.54,0,0,0-58.63,0c-.76.17-.92,0-.91-.72.07-4.14.07-8.28.16-12.42A3.46,3.46,0,0,0,49.16,12c-.5-.53-.92-1.13-1.37-1.7-.28-.36-.23-.57.27-.57H80Z"/><path class="cls-2" d="M96.29,27.34c.26-.2.47-.47.89-.41,2.89.36,5.79.73,8.65,1.31a1.13,1.13,0,0,1,.31.19,3.05,3.05,0,0,1-.45,1.47c-.2.37-.58.61-.75,1-.07.14-.17.28-.24.43-.42.8-1.09,1.41-1.52,2.19a6,6,0,0,0-.6.63,2.92,2.92,0,0,0-.6.75,3.82,3.82,0,0,0-1.08,1.22.45.45,0,0,1-.18.18,2.79,2.79,0,0,0-.72.56,13.5,13.5,0,0,0-1.85,1.44,17.84,17.84,0,0,1-2.42,1.61l-.46.25c-.86.53-1.77,1-2.63,1.48a7.86,7.86,0,0,1-.84.36c-.12,0-.25,0-.37.08a2.73,2.73,0,0,0-.76.34,1.37,1.37,0,0,1-.21.15c-.21.06-.4.18-.61.23-.42.14-.85.3-1.28.43a3.8,3.8,0,0,1-.95.18c-.45.11-.91.18-1.35.31a1.31,1.31,0,0,0-.52.11c-.28.14-.59.06-.88.13s-.37.23-.59.27a3.55,3.55,0,0,1-.57-.07,5.4,5.4,0,0,0-1.65.14h-3.7a7.81,7.81,0,0,0-1.92-.18l-.46,0-2.16-.46-1-.25a2.6,2.6,0,0,1-.4-.1,3.53,3.53,0,0,0-1.89-.68c-1-.18-1.94-.74-2.95-1-.85-.59-1.87-.88-2.69-1.51-.2-.1-.31-.3-.52-.38a2.81,2.81,0,0,0-.55-.27,1.48,1.48,0,0,0-.81-.53,5.77,5.77,0,0,1-1.45-1.19,2,2,0,0,0-1-.58,21,21,0,0,0-2.73-2.85,3.3,3.3,0,0,0-1-1.17c-.09-.44-.5-.55-.78-.8a5.06,5.06,0,0,1-.61-1.26,1.49,1.49,0,0,0-.44-.74,3.1,3.1,0,0,1-.64-1.5c-.15-.38-.25-.67.36-.78,2.72-.51,5.48-.84,8.22-1.2.35,0,.64,0,.76.39s.43.34.66.5l.22.11a1.42,1.42,0,0,0,.65.32,1.53,1.53,0,0,1,.8.82,1.25,1.25,0,0,0,.36.64,1.15,1.15,0,0,0,.83.49.7.7,0,0,1,.29.25,2.26,2.26,0,0,0,.28.56,1.19,1.19,0,0,0,.58.43c.33.08.57.34.9.43s.44.26.65.4a3,3,0,0,0,1.11.58c.54.23.93.79,1.61.73.33.1.65.26,1,.36a6.56,6.56,0,0,0,1.24.37,3.87,3.87,0,0,0,.9,0,.84.84,0,0,1,.42.05,3.36,3.36,0,0,0,2,.56,10.62,10.62,0,0,0,3.6,0,1.5,1.5,0,0,1,.29-.06,4.6,4.6,0,0,0,1.11-.18,5.05,5.05,0,0,0,.94-.19,4.18,4.18,0,0,0,.92-.19c.27,0,.51-.16.78-.22a7.91,7.91,0,0,0,1.65-.52,3.83,3.83,0,0,1,.75-.23,1.92,1.92,0,0,0,1.09-.54c.15-.05.28-.15.44-.21s.6-.23.79-.5a2.23,2.23,0,0,1,.45-.42c.23-.1.41-.28.64-.38a.87.87,0,0,0,.49-.26,2.82,2.82,0,0,0,.18-.29.64.64,0,0,1,.17-.16.58.58,0,0,1,.22-.08.63.63,0,0,0,.42-.31c0-.11.09-.22.13-.33a1,1,0,0,1,.26-.28,1,1,0,0,0,.46-.39.73.73,0,0,1,.18-.17,1,1,0,0,0,.6-.58.46.46,0,0,1,.17-.17,3.59,3.59,0,0,0,.5-.37C95.83,27.72,96,27.49,96.29,27.34Z"/><path class="cls-3" d="M93.82,29.92,93.7,30a2.93,2.93,0,0,1-1,.78l0,0a2.93,2.93,0,0,1-.67.55c-.4.05-.63.38-1,.54s-.36.35-.57.48-.43.27-.67.35c-.47.09-.78.53-1.25.63s-.58.22-.87.31c-.72.29-1.48.48-2.21.73a5.51,5.51,0,0,0-.8.2,2,2,0,0,0-.8.19,3.62,3.62,0,0,0-1.13.19c-.2,0-.4,0-.6,0a2.25,2.25,0,0,1-.63.06H78.73c-.27,0-.53-.1-.8-.1s-.73-.07-1.09-.16a1.39,1.39,0,0,1-.74-.22h-.24a.75.75,0,0,1-.26,0c-.46-.13-.93-.23-1.4-.34s-.83-.34-1.28-.42-1.15-.49-1.72-.76a4.6,4.6,0,0,0-1.28-.62,1.67,1.67,0,0,0-.64-.39,2.89,2.89,0,0,0-1.19-.68c-.23-.24-.44-.51-.68-.74l-.13-.18c-.44,0-.61-.41-.89-.64a5.27,5.27,0,0,0-.55-.51,2.35,2.35,0,0,0-.7-.74c-.17-.17-.34-.34-.52-.5-.33-.17-.33-.53-.45-.82s-.37-.57.13-.65a26.36,26.36,0,0,1,5.33-.36A10,10,0,0,1,67,27.63c-.78.36-.74.67-.17,1.19A19.61,19.61,0,0,0,93.28,29c.86-.76.84-.78-.15-1.28L90.6,26.41c.12-.35.37-.29.56-.29a42.84,42.84,0,0,1,4.53.42c.42.05.7.15.43.64a2.38,2.38,0,0,1-.48.81l-.5.51,0,0c-.25.27-.52.53-.78.78l0,0A3,3,0,0,0,93.82,29.92Z"/><path class="cls-4" d="M87.36,44.21a8.81,8.81,0,0,1-2,.42c-.37.18-.81-.06-1.19.16l-.5,0c-.77.21-1.58-.11-2.34.18h0a6.47,6.47,0,0,1-2.15,0,28.13,28.13,0,0,1-12.84-3.21A30.81,30.81,0,0,1,53.49,29.65a.65.65,0,0,1-.09-.16c-.08-.43-.79-.89-.29-1.22.69-.44.66.53,1,.78a11.34,11.34,0,0,1,1.34,1.74,4.87,4.87,0,0,0,1,1.61,6,6,0,0,1,.63.78c.25.45.75.69,1,1.15a34,34,0,0,0,2.72,2.78c.9.5,1.47,1.43,2.45,1.81.24.09.39.31.6.42a2.37,2.37,0,0,0,.63.37,1.61,1.61,0,0,0,.63.4,24.53,24.53,0,0,0,2.38,1.38,17.82,17.82,0,0,0,3.39,1.15c.72.22,1.38.57,2.12.72.19,0,.38.1.56.13a9.88,9.88,0,0,0,1.86.37,4.07,4.07,0,0,0,1.47.18c.26.07.52.08.77.13a18.75,18.75,0,0,0,5,0,2.56,2.56,0,0,1,.62,0,7.2,7.2,0,0,0,1,0,1.11,1.11,0,0,1,.55-.17,5.55,5.55,0,0,0,1.8-.36,7,7,0,0,0,1.2-.28,2.65,2.65,0,0,0,.78-.21c.38-.11.75-.24,1.13-.38s.57-.21.86-.29c.49-.28,1.06-.36,1.54-.64a4,4,0,0,0,.47-.22,1.31,1.31,0,0,1,.65-.17.51.51,0,0,1,.36.38,19.33,19.33,0,0,1-4.38,1.89A18.45,18.45,0,0,0,87.36,44.21Z"/><path class="cls-5" d="M76.58,28.64c1.09-.38,2,.14,2.54-.4a5.5,5.5,0,0,0,.8-2c.1.06.19.07.2.11.28,1.66,1.13,2.56,2.92,2,.07.39-.16.45-.29.56C81.4,30,81.4,30,81.84,31.64a.7.7,0,0,1,0,.69c-1.18-1.46-2.44-1.56-3.83,0C78.84,30.61,78.71,29.34,76.58,28.64Z"/><path class="cls-6" d="M93.67,41.77l-.42-.21c-.09-.29.1-.4.32-.48a11.26,11.26,0,0,0,1.79-1,3.54,3.54,0,0,0,.47-.26,19,19,0,0,0,4-3,3,3,0,0,0,.85-.73l0,0a4,4,0,0,0,1.24-1.29,1.91,1.91,0,0,1,.37-.51c.3-.24.54-.54.82-.8a19,19,0,0,0,1.38-1.83,2.79,2.79,0,0,1,.35-.66,8.23,8.23,0,0,0,.65-.9c.34-.38.45-.92.89-1.22.1-.44.44-.73.81-.55s0,.6-.1.85a30.24,30.24,0,0,1-12,12C94.65,41.41,94.26,41.84,93.67,41.77Z"/><path class="cls-7" d="M55.25,31a6.24,6.24,0,0,1-1.12-1.91c.19.08.32,0,.36-.18l.9,1.34c.15.06.17.2.19.34A.44.44,0,0,1,55.25,31Z"/><path class="cls-8" d="M106.35,28.86a3.23,3.23,0,0,1-.72,1.37c-.2-.08-.33-.2-.22-.43l.73-1.37Z"/><path class="cls-9" d="M87.36,44.21a3.16,3.16,0,0,1,1.93-.55A6.11,6.11,0,0,1,87.36,44.21Z"/><path class="cls-10" d="M95.52,27.91a1.13,1.13,0,0,1,.6-.73l.17.16c0,.45-.28.57-.6.72A.28.28,0,0,1,95.52,27.91Z"/><path class="cls-9" d="M81.29,45a4.88,4.88,0,0,1,2.34-.18A6,6,0,0,1,81.29,45Z"/><path class="cls-11" d="M79.15,45a8.15,8.15,0,0,1,2.15,0A4.73,4.73,0,0,1,79.15,45Z"/><path class="cls-12" d="M64.17,27.17a1.84,1.84,0,0,1,.61.66c.13.23,0,.27-.2.27h-.14c-.2-.22-.53-.36-.45-.74Z"/><path class="cls-3" d="M64,27.35l.45.74a.83.83,0,0,1-.61-.81A.33.33,0,0,1,64,27.35Z"/><path class="cls-13" d="M84.13,44.79a1.51,1.51,0,0,1,1.19-.16A2.31,2.31,0,0,1,84.13,44.79Z"/><path class="cls-14" d="M58.21,18.36c0,1.49,0,3,0,4.45a1.76,1.76,0,0,1-1.62,2c-1.14.26-2.29.48-3.44.68s-1.56-.16-1.56-1.28q0-5.07,0-10.14c0-1.19.41-1.59,1.6-1.63s2.28,0,3.42,0,1.63.4,1.63,1.67c0,1.42,0,2.84,0,4.26Z"/><path class="cls-14" d="M107.93,17c0,1,0,2.08,0,3.13,0,.59-.13,1.09-.9,1-.52-.05-.38.27-.29.55.34,1.12.67,2.24,1,3.34.18.57,0,.67-.53.57-.82-.15-1.56-.27-1.72-1.38a22.38,22.38,0,0,0-.84-2.8c-.12-.47-.36-.74-.85-.69s-.33.53-.34.82c0,.85,0,1.7,0,2.56,0,.46,0,.75-.67.62-1.68-.3-1.46-.07-1.48-1.73,0-3.22,0-6.43-.09-9.65,0-.71.12-1,.92-1,1.39.06,2.79,0,4.18,0,1.13,0,1.52.43,1.55,1.57s0,2,0,3Z"/><path class="cls-14" d="M99.49,18.33v4.16c0,1.29-.32,1.61-1.56,1.49s-2.39-.26-3.57-.43-1.51-.64-1.52-1.78c0-2.55,0-5.11,0-7.66,0-1.36.31-1.65,1.68-1.68,1.08,0,2.15,0,3.22,0,1.41,0,1.75.36,1.76,1.74s0,2.77,0,4.16Z"/><path class="cls-14" d="M75.76,17.61c0-1.45,0-2.9,0-4.35,0-.59.15-.86.8-.85,1.45,0,2.91,0,4.36,0,1.15,0,1.44.34,1.45,1.5q0,3.6,0,7.2c0,1.21-.37,1.58-1.59,1.6-1.39,0-2.78,0-4.17.07-.77,0-.9-.27-.88-.93,0-1.42,0-2.84,0-4.27Z"/><path class="cls-14" d="M85.84,22.8c-1.31-.07-1.57-.32-1.57-1.56,0-2.53,0-5,0-7.57a1,1,0,0,1,1-1.2,28.87,28.87,0,0,1,4.46,0A1.2,1.2,0,0,1,91,13.78q0,4.08,0,8.15a1,1,0,0,1-1.1,1.16A23.91,23.91,0,0,1,86,22.82c.08-.13.21-.11.33-.12C86.16,22.72,86,22.67,85.84,22.8Z"/><path class="cls-14" d="M60.16,14.63a8.88,8.88,0,0,0,0-1c-.15-1,.21-1.26,1.19-1.21.76,0,1,.21,1,1-.05,2.65,0,5.29,0,7.94,0,.54-.11,1.11.76,1.09,1.2,0,1.47-.19,1.48-1.16s0-2,0-3a39.89,39.89,0,0,0,0-5.68s0-.06.06-.07c2.1-.35,2.15-.32,2.15,1.75q0,3.63,0,7.28c0,1.42-.39,1.86-1.8,2-1.22.16-2.44.35-3.66.42-1.06.07-1.29-.26-1.19-1.37C60.22,20,60.2,17.3,60.16,14.63Z"/><path class="cls-1" d="M70.08,18.35c0-1.23,0-2.47,0-3.7,0-.6-.16-.87-.8-.82-.26,0-.77.2-.7-.31s0-1,.7-1.07c1.33,0,2.66,0,4,0,.68,0,.64.65.69,1.05s-.47.37-.72.34c-.84-.1-.9.34-.9,1,0,2.43,0,4.86,0,7.29,0,1.34-.92.79-1.5.92-.75.16-.8-.35-.79-.91C70.09,20.87,70.08,19.61,70.08,18.35Z"/><path class="cls-15" d="M60.16,14.63a29.69,29.69,0,0,1,0,8Q60,18.63,60.16,14.63Z"/><path class="cls-16" d="M64.61,12.57a14.87,14.87,0,0,1,0,5.68A48.91,48.91,0,0,1,64.61,12.57Z"/><path class="cls-17" d="M85.84,22.8A1.18,1.18,0,0,1,87,22.74l-1,.08-.07,0Z"/><path class="cls-1" d="M78.75,39.72c.08-.75.17-1.25.18-1.75s0-.83.67-.78.62.45.56.92c-.14,1.13-.24,2.26-.38,3.38,0,.26.22.72-.31.72s-.85.17-1.12-.42c-.39-.85-.9-1.64-1.43-2.6a5.52,5.52,0,0,0-.37,2.29c0,.61-.43.42-.74.4s-.62,0-.54-.53c.18-1.25.27-2.5.45-3.75,0-.24-.25-.79.3-.7s1.17-.26,1.48.49A10.53,10.53,0,0,0,78.75,39.72Z"/><path class="cls-1" d="M97.58,35.52a1.17,1.17,0,0,1-.85-.35C96.14,34.6,95.57,34,95,33.43a1.25,1.25,0,0,1,0-1.85,9.54,9.54,0,0,1,1-1,1.42,1.42,0,0,1,2.1,0c.33.29.64.61.95.93s.52.73,1.07.26c.27-.23.6,0,.81.28a.43.43,0,0,1-.11.66c-.91.59-1.34,1.63-2.19,2.28C98.32,35.24,98,35.54,97.58,35.52Z"/><path class="cls-1" d="M89.76,35.1c.28,0,.26.41.4.62.29.45.26,1.17,1.22.7s.63-1,.25-1.52-.37-.73.22-1c.43-.19.62-.2.84.28.52,1.12,1.09,2.21,1.69,3.28.27.46.23.67-.25.93s-.64.15-.88-.31-.16-1.2-1-.86-1,.52-.43,1.43c.44.66.2.9-.38,1.17-.35.16-.46.06-.62-.26-.62-1.21-1.28-2.39-1.92-3.58C88.69,35.68,89.24,35.08,89.76,35.1Z"/><path class="cls-18" d="M86.18,37.83a8.31,8.31,0,0,0-2,.08c-.57.11-.75.39-.61.93s.2.86.3,1.29a.64.64,0,0,0,.86.5c.44-.08.83-.21.67-.78s.4-.48.68-.59c.49-.18.47.17.53.5.25,1.42.07,1.71-1.37,2a8.49,8.49,0,0,1-1.12.11,1.17,1.17,0,0,1-1.38-1.11c-.11-.77-.26-1.55-.38-2.32a1.15,1.15,0,0,1,1-1.46l1.11-.24C85.72,36.46,85.72,36.47,86.18,37.83Z"/><path class="cls-18" d="M68.73,37.35a10.16,10.16,0,0,0,1.38-1.49c.58-.93,1.12-.61,1.79-.1a26.3,26.3,0,0,0-3.24,3.45c-.29.39-.56.2-.79,0s-1-.14-.82-.83a25.58,25.58,0,0,0,.83-4.34c0-.25.2-.36.38-.22s1,.13.81.81l-.54,2.58Z"/><path class="cls-18" d="M62.52,28.62l1,1.08A29.4,29.4,0,0,0,61,32c-.36.31-.44.55-.06.91a8,8,0,0,0,1.61,1.39c-.54.66-1,.83-1.62,0s-1.72-1.27-1.69-2,1.21-1.34,1.86-2A6.13,6.13,0,0,0,62.52,28.62Z"/><path class="cls-19" d="M72.58,41.12c-.77,0-1-.35-.74-1.07.38-1.2.78-2.39,1.07-3.61.15-.63.5-.35.77-.27s.71,0,.48.63c-.46,1.3-.82,2.64-1.19,4C72.9,41,72.91,41.21,72.58,41.12Z"/><path class="cls-19" d="M63.9,36.81a5.49,5.49,0,0,1-.76-.64c-.27-.33.17-.4.3-.57.77-1,1.62-2,2.34-3.1.3-.46.5-.28.7,0s.81.26.34.82c-.89,1.07-1.71,2.19-2.56,3.29C64.18,36.67,64.18,36.87,63.9,36.81Z"/><path class="cls-20" d="M99.93,36.89a14.22,14.22,0,0,1-4,3.15c-.25.05-.35-.08-.36-.31,1.58-.88,2.86-2.16,4.35-3.15A.23.23,0,0,1,99.93,36.89Z"/><path class="cls-21" d="M60.75,37.25a12,12,0,0,1-2.86-2.88c.08-.09.1-.24.24-.27a22.31,22.31,0,0,1,2.66,2.84A.24.24,0,0,1,60.75,37.25Z"/><path class="cls-8" d="M70.81,42.94a12.81,12.81,0,0,1-3.45-1.34c0-.14.14-.16.24-.21.77-.08,1.32.5,2,.68a3,3,0,0,0,1,.27.56.56,0,0,1,.32.38A.28.28,0,0,1,70.81,42.94Z"/><path class="cls-22" d="M95.52,40.23a9.59,9.59,0,0,1-2.27,1.33l-.56.2c-.19-.07-.28-.18-.2-.38l2.68-1.44C95.32,40,95.48,40.05,95.52,40.23Z"/><path class="cls-23" d="M81.66,34.75l.57,0a.37.37,0,0,1,.12.2.51.51,0,0,1-.1.21h0a21.11,21.11,0,0,1-4.13,0c-.71-.07-1.5.12-2-.59l.82,0c.33.19.72,0,1,.17l.65,0A10.68,10.68,0,0,0,81.66,34.75Z"/><path class="cls-24" d="M60.75,37.25l0-.31c1,.3,1.54,1.32,2.45,1.8a.28.28,0,0,1,0,.41A8.09,8.09,0,0,1,60.75,37.25Z"/><path class="cls-21" d="M67.6,41.39l-.24.21a9.3,9.3,0,0,1-2.43-1.29.34.34,0,0,1,0-.45A15.28,15.28,0,0,1,67.6,41.39Z"/><path class="cls-25" d="M86.79,43.79a3.15,3.15,0,0,1-1.9.37c-.18-.11-.41,0-.59-.14a.55.55,0,0,1,.4-.37c.3-.22.68,0,1-.17h.55C86.52,43.42,86.76,43.41,86.79,43.79Z"/><path class="cls-26" d="M104.66,31.71a7.23,7.23,0,0,1-1.49,1.94.4.4,0,0,1-.28-.27l1.59-2.21C104.69,31.3,104.64,31.51,104.66,31.71Z"/><path class="cls-27" d="M78.3,44h3.89a.21.21,0,0,1,.26,0,.44.44,0,0,1,.09.27.29.29,0,0,1-.18.22.93.93,0,0,1-.44,0,27.55,27.55,0,0,0-3.4,0,1.52,1.52,0,0,1-.6,0,.31.31,0,0,1-.17-.24.4.4,0,0,1,.11-.27A.56.56,0,0,1,78.3,44Z"/><path class="cls-28" d="M71.24,32.82a5.49,5.49,0,0,1,1.7.74c0,.2,0,.29-.23.24-.69.05-1.15-.45-1.7-.75C71,32.86,71,32.77,71.24,32.82Z"/><path class="cls-29" d="M85.42,34.15l2.31-.78a.3.3,0,0,1,0,.43,4.38,4.38,0,0,1-1.71.57C85.84,34.26,85.55,34.43,85.42,34.15Z"/><path class="cls-30" d="M70.81,42.94l0-.25c.68-.37,1.15.2,1.71.36l.38.07a.32.32,0,0,1,0,.5A9.8,9.8,0,0,1,70.81,42.94Z"/><path class="cls-31" d="M75.39,44.05a5,5,0,0,1-1.94-.38c0-.22.3-.23.42-.37l2.17.51C75.89,44.08,75.62,44,75.39,44.05Z"/><path class="cls-32" d="M102.08,34.77c-.29.64-.61,1.24-1.43,1.3.06-.7.69-.93,1.1-1.35A.26.26,0,0,1,102.08,34.77Z"/><path class="cls-33" d="M55.25,31l.23-.41c.33-.05.18.31.35.39l.6,1.26a.29.29,0,0,1-.07.34A5,5,0,0,1,55.25,31Z"/><path class="cls-33" d="M92.28,41.94l-1.5.74c-.12-.15-.38-.15-.42-.38a.58.58,0,0,1,0-.14,4,4,0,0,1,1-.38l.34,0A.41.41,0,0,1,92.28,41.94Z"/><path class="cls-32" d="M78.13,35.13h4.13A11.7,11.7,0,0,1,78.13,35.13Z"/><path class="cls-34" d="M58.13,34.1l-.24.27a2.51,2.51,0,0,1-1-1.08c0-.24,0-.35.3-.29A4.14,4.14,0,0,1,58.13,34.1Z"/><path class="cls-35" d="M86.79,43.79l-.55-.32,1.31-.36c.13.11.31.17.37.35C87.55,43.59,87.25,44,86.79,43.79Z"/><path class="cls-4" d="M72.54,43.05c-.63.15-1.06-.62-1.71-.36l-.23-.35A2.41,2.41,0,0,1,72.54,43.05Z"/><path class="cls-36" d="M88.62,33.17c.2-.55.75-.58,1.18-.77a.4.4,0,0,1,.29.23.18.18,0,0,1-.09.21l-.36.23a3.23,3.23,0,0,1-.65.31C88.82,33.39,88.66,33.38,88.62,33.17Z"/><path class="cls-37" d="M75.39,44.05l.65-.24.3,0c.46.32,1.06-.13,1.5.26a.69.69,0,0,1,0,.13,1.41,1.41,0,0,1-1,0A3.78,3.78,0,0,1,75.39,44.05Z"/><path class="cls-38" d="M105.41,29.8l.22.43a2,2,0,0,1-.6.87.57.57,0,0,1-.33-.33A2,2,0,0,1,105.41,29.8Z"/><path class="cls-39" d="M74.25,34a3.21,3.21,0,0,1,1.48.4c-.19.28-.52,0-.73.19a3.3,3.3,0,0,1-1.33-.39C73.8,33.92,74.08,34.1,74.25,34Z"/><path class="cls-40" d="M71.24,32.82l-.23.23a2.07,2.07,0,0,1-1.13-.59c0-.05-.07-.1,0-.15s0-.06.06-.06A1.53,1.53,0,0,1,71.24,32.82Z"/><path class="cls-41" d="M68.17,31.15c.58-.09.87.3,1.16.69a.2.2,0,0,1,0,.28c-.4.07-.53-.36-.85-.44s-.42-.14-.36-.43Z"/><path class="cls-28" d="M74.25,34l-.58.2a2,2,0,0,1-1-.38l.23-.24A3.94,3.94,0,0,1,74.25,34Z"/><path class="cls-42" d="M82.43,44.23V44.1c.45-.4,1,0,1.51-.26.19-.07.26.08.36.18a.39.39,0,0,1,.59.14l-.57.08a2.74,2.74,0,0,1-.95.08C83.06,44.27,82.73,44.44,82.43,44.23Z"/><path class="cls-18" d="M89.84,42.86a2.28,2.28,0,0,1-1.15.38c-.16-.06-.27-.14-.19-.34a4.83,4.83,0,0,1,1.33-.39A.22.22,0,0,1,89.84,42.86Z"/><path class="cls-43" d="M88.62,33.17l.31.08c0,.34-.32.21-.47.34l-.71.21,0-.43C88,33.22,88.25,32.88,88.62,33.17Z"/><path class="cls-8" d="M57.23,33l-.3.29a1.69,1.69,0,0,1-.57-.75l.07-.34C56.91,32.25,57,32.68,57.23,33Z"/><path class="cls-44" d="M82.74,34.71a2.24,2.24,0,0,1,1.14-.19c.25-.1.38,0,.48.24a1.52,1.52,0,0,1-1,.19.29.29,0,0,1-.24,0C83,34.93,82.8,34.91,82.74,34.71Z"/><path class="cls-45" d="M66.46,29.62l.82.76c-.48.17-.55.13-.94-.59A.22.22,0,0,1,66.46,29.62Z"/><path class="cls-46" d="M73.87,43.3a.53.53,0,0,1-.42.37l-.53-.05v-.5Z"/><path class="cls-47" d="M84.36,34.76l-.48-.24a1.26,1.26,0,0,1,.78-.18.45.45,0,0,1,.65.23A1.33,1.33,0,0,1,84.36,34.76Z"/><path class="cls-48" d="M88.5,42.9l.19.34a.93.93,0,0,1-.77.22.47.47,0,0,1-.37-.35C87.86,43,88.22,43.13,88.5,42.9Z"/><path class="cls-49" d="M102.89,33.38l.28.27-.78.77a.31.31,0,0,1,0-.44A1.37,1.37,0,0,1,102.89,33.38Z"/><path class="cls-50" d="M63.2,39.15l0-.41c.43-.07.51.39.8.53a.36.36,0,0,1-.25.28Z"/><path class="cls-51" d="M85.31,34.57l-.65-.23a1.25,1.25,0,0,1,.76-.19l.62.22A1.19,1.19,0,0,1,85.31,34.57Z"/><path class="cls-52" d="M91,31.7c.31-.19.49-.6.93-.57a.23.23,0,0,1,.25,0c.09.22,0,.35-.2.44s-.28.41-.59.34C91.22,31.81,91,31.88,91,31.7Z"/><path class="cls-53" d="M89.84,42.86v-.35c.16-.1.31-.26.53-.21s.37.15.42.38Z"/><path class="cls-54" d="M104.7,30.77a.4.4,0,0,1,.33.33l-.37.61-.18-.54Z"/><path class="cls-55" d="M77.84,44.09c-.49-.1-1,.08-1.5-.26a7.17,7.17,0,0,1,2,.18Z"/><path class="cls-56" d="M99.93,36.89l-.05-.31c.19-.29.37-.59.79-.53C100.74,36.61,100.36,36.77,99.93,36.89Z"/><path class="cls-41" d="M94.38,29.25a.81.81,0,0,1,.78-.78C95.15,29,94.92,29.27,94.38,29.25Z"/><path class="cls-57" d="M91,31.7l.39.18-.37.38a.42.42,0,0,1-.38.14c-.14-.06-.25-.14-.19-.32Z"/><path class="cls-58" d="M92.67,30.77a.93.93,0,0,1,1-.78l-.08.34a1.23,1.23,0,0,1-.74.49Z"/><path class="cls-59" d="M92.28,41.94l-.54-.18.75-.38.2.38C92.6,41.94,92.42,41.89,92.28,41.94Z"/><path class="cls-29" d="M83.94,43.84c-.46.33-1,.13-1.51.26L82.19,44A5.43,5.43,0,0,1,83.94,43.84Z"/><path class="cls-60" d="M67.41,30.56a.65.65,0,0,1,.76.59v0c-.2.13-.4.24-.56-.06A.63.63,0,0,1,67.41,30.56Z"/><path class="cls-61" d="M64.94,39.86v.45a.92.92,0,0,1-.59-.41c-.09-.22,0-.32.23-.38S64.8,39.76,64.94,39.86Z"/><path class="cls-62" d="M64.57,39.52l-.23.38a.64.64,0,0,1-.55-.35l.25-.28Z"/><path class="cls-63" d="M102.37,34l0,.44a.45.45,0,0,1-.31.35l-.33-.05A2,2,0,0,1,102.37,34Z"/><path class="cls-3" d="M91.93,31.54l.24-.36c.13-.22.31-.19.5-.08C92.5,31.38,92.39,31.75,91.93,31.54Z"/><path class="cls-3" d="M88.46,33.59l.47-.34.71-.18A1.36,1.36,0,0,1,88.46,33.59Z"/><path class="cls-64" d="M95.52,40.23l-.35-.29.36-.21.36.31C95.84,40.24,95.64,40.17,95.52,40.23Z"/><path class="cls-60" d="M69.3,32.12l0-.28c.24.06.53.06.57.41l0,.21C69.63,32.45,69.48,32.25,69.3,32.12Z"/><path class="cls-65" d="M75,34.57c.2-.24.48-.15.73-.19l.13.17C75.58,34.93,75.29,34.64,75,34.57Z"/><path class="cls-3" d="M67.62,31.07l.56.06c-.08.26.12.4.27.55A.84.84,0,0,1,67.62,31.07Z"/><path class="cls-66" d="M92.67,31.1l-.5.08-.29-.05a.8.8,0,0,1,.82-.38Z"/><path class="cls-67" d="M66.46,29.62l-.12.17c-.35,0-.43-.29-.5-.56C66.11,29.26,66.36,29.32,66.46,29.62Z"/><path class="cls-68" d="M93.82,29.92a.61.61,0,0,1,.59-.69C94.5,29.7,94.1,29.76,93.82,29.92Z"/><path class="cls-3" d="M90.66,32.31l.31-.05a1,1,0,0,1-1,.58,1.11,1.11,0,0,0,.07-.16C90.14,32.35,90.42,32.37,90.66,32.31Z"/><path class="cls-69" d="M95.52,27.91l.17.15a.5.5,0,0,1-.55.44A.69.69,0,0,1,95.52,27.91Z"/><path class="cls-32" d="M83.13,34.88l.27.07a2.18,2.18,0,0,1-1.15.19c0-.06,0-.12,0-.18C82.51,34.72,82.83,34.86,83.13,34.88Z"/><path class="cls-9" d="M91.4,41.78a1.94,1.94,0,0,1-1,.38A1.07,1.07,0,0,1,91.4,41.78Z"/><path class="cls-24" d="M64.58,28.1l.2-.27a.79.79,0,0,1,.36.66A.57.57,0,0,1,64.58,28.1Z"/><path class="cls-3" d="M92.88,30.82l.74-.49C93.46,30.62,93.34,31,92.88,30.82Z"/><path class="cls-4" d="M55.83,30.94l-.35-.39-.09-.34A.71.71,0,0,1,55.83,30.94Z"/><path class="cls-9" d="M85.69,43.48a1.48,1.48,0,0,1-1,.17A1.28,1.28,0,0,1,85.69,43.48Z"/><path class="cls-32" d="M81.66,34.75a5.42,5.42,0,0,1-3,0Z"/><path class="cls-29" d="M90.66,32.31a.81.81,0,0,1-.59.37l-.27-.28a1,1,0,0,1,.6-.32Z"/><path class="cls-32" d="M78,34.73a1.66,1.66,0,0,1-1-.17A2.22,2.22,0,0,1,78,34.73Z"/><path class="cls-70" d="M83.13,34.88l-.9.08v-.23l.51,0Z"/><path class="cls-11" d="M82,44.38h.39a.27.27,0,0,1,.39,0,14.92,14.92,0,0,1-5.33,0,.29.29,0,0,1,.39,0h.57A18.72,18.72,0,0,1,82,44.38Z"/><path class="cls-55" d="M77.87,44.38l-.39,0-.63-.17,1,0C77.86,44.27,77.87,44.32,77.87,44.38Z"/><path class="cls-29" d="M82.81,44.43l-.39,0c0-.06,0-.11,0-.16l1,0v.09l-.09,0Z"/><path class="cls-13" d="M83.34,44.39l.1-.12.88,0A1.25,1.25,0,0,1,83.34,44.39Z"/><path class="cls-71" d="M53.72,18.79c0-1.26,0-2.52,0-3.78,0-1,.72-.89,1.37-1s1,.24,1,.9c0,2.59,0,5.17-.07,7.76,0,1.07-1,.72-1.62.83s-.66-.4-.66-.87V18.79Z"/><path class="cls-71" d="M103.48,16.59c0-.38,0-.75,0-1.13,0-1.53.11-1.62,1.67-1.4.41.06.65.22.66.64,0,1.36,0,2.71,0,4.07,0,.47-.26.64-.73.66-1.48.05-1.61-.05-1.61-1.51V16.59Z"/><path class="cls-3" d="M95,18c0-1.1,0-2.21,0-3.31,0-.87.5-.88,1.11-.87s1.23-.09,1.23.86c0,2.27,0,4.54,0,6.82,0,.53-.09,1-.77.89s-1.59.23-1.57-1,0-2.27,0-3.41Z"/><path class="cls-15" d="M97.58,14.45v3H97.5v-3Z"/><path class="cls-72" d="M94.61,16.71V14.49h.09v2.25Z"/><path class="cls-71" d="M77.88,17.58c0-1.08,0-2.15,0-3.22,0-.54.17-.71.71-.71,1.61,0,1.66,0,1.65,1.61s0,3.48,0,5.22c0,1.16-.68,1-1.43,1.07s-1-.29-1-1c.06-1,0-2,0-2.94Z"/><path class="cls-15" d="M78.48,21.7h1.1v.09H78.41Z"/><path class="cls-71" d="M88.72,17.84c0,1,0,2,0,3,0,.57-.18.95-.82.84s-1.47.29-1.48-.81c0-2.15,0-4.29,0-6.44,0-.75.5-.78,1-.75s1.24-.18,1.26.71c0,1.14,0,2.28,0,3.42Z"/><path class="cls-73" d="M90.62,21.82V15.25h.09v6.61Z"/><path class="cls-73" d="M61.94,18.83v-5.9H62v5.86Z"/><path class="cls-74" d="M98.06,33.12c.12.31.82-.16.58.42s-.64.9-1.21.63A3.68,3.68,0,0,1,96,32.75c-.28-.47.11-.83.43-1.14s.73-.45,1.09-.08S98.78,32.29,98.06,33.12Z"/><path class="cls-54" d="M82,44.38a18.72,18.72,0,0,1-3.59,0A8.69,8.69,0,0,1,82,44.38Z"/></g></g></svg>