<svg xmlns="http://www.w3.org/2000/svg" viewBox="0 0 196.43 88.42"><defs><style>.cls-1{fill:#030104;}</style></defs><g id="Layer_2" data-name="Layer 2"><g id="Layer_1-2" data-name="Layer 1"><path d="M21.52,43h1.83v6.28a3.31,3.31,0,0,0,.18,1.11,2.87,2.87,0,0,0,.54.89,2.48,2.48,0,0,0,.88.59,2.94,2.94,0,0,0,1.19.22,3,3,0,0,0,1.2-.22,2.4,2.4,0,0,0,.86-.59,2.67,2.67,0,0,0,.53-.89,3.08,3.08,0,0,0,.19-1.11V43h1.83v6.31a4.73,4.73,0,0,1-.38,1.92,4.19,4.19,0,0,1-1,1.43,4.34,4.34,0,0,1-1.46.89,5.14,5.14,0,0,1-1.77.3,5.28,5.28,0,0,1-1.78-.3,4.49,4.49,0,0,1-1.47-.89,4.33,4.33,0,0,1-1-1.43,4.9,4.9,0,0,1-.37-1.92Z"/><path d="M36.9,47.94l-.21-.19a2.82,2.82,0,0,0-.36-.23,2.26,2.26,0,0,0-.5-.19,1.87,1.87,0,0,0-.59-.08,1.3,1.3,0,0,0-.84.22.68.68,0,0,0-.28.55.65.65,0,0,0,.27.5,2.54,2.54,0,0,0,.94.41l1,.25a4.3,4.3,0,0,1,1,.38,2.34,2.34,0,0,1,.78.65,1.74,1.74,0,0,1,.32,1.09,2.31,2.31,0,0,1-.23,1,2.24,2.24,0,0,1-.65.79,3.75,3.75,0,0,1-1,.51,4.53,4.53,0,0,1-1.32.18,5.08,5.08,0,0,1-1.9-.33,3.08,3.08,0,0,1-1.18-.75l1.08-1.26.25.2a2,2,0,0,0,.44.28,2.78,2.78,0,0,0,.6.23,2.48,2.48,0,0,0,.73.1,1.82,1.82,0,0,0,.94-.22.66.66,0,0,0,.38-.62.62.62,0,0,0-.29-.54,2.82,2.82,0,0,0-1-.4c-.4-.1-.78-.22-1.15-.34a3.87,3.87,0,0,1-1-.44,2.24,2.24,0,0,1-.66-.64,1.66,1.66,0,0,1-.24-.92,2.26,2.26,0,0,1,.23-1,2.35,2.35,0,0,1,.62-.75,2.91,2.91,0,0,1,1-.47,4.68,4.68,0,0,1,1.22-.16,4.49,4.49,0,0,1,1,.11,4.73,4.73,0,0,1,.8.25,3,3,0,0,1,.57.31,1.82,1.82,0,0,1,.34.27Z"/><path d="M46.35,52.8a4.28,4.28,0,0,1-.52.34,4.44,4.44,0,0,1-.69.33,6.31,6.31,0,0,1-.86.23,5.38,5.38,0,0,1-1,.09,4.3,4.3,0,0,1-1.68-.32,3.84,3.84,0,0,1-1.26-.85,3.77,3.77,0,0,1-.81-1.28,4.44,4.44,0,0,1,0-3.13,3.85,3.85,0,0,1,.84-1.28,3.91,3.91,0,0,1,1.27-.86,4.15,4.15,0,0,1,1.63-.31,4.25,4.25,0,0,1,1.69.31,3.67,3.67,0,0,1,1.24.86A3.62,3.62,0,0,1,47,48.2a4.7,4.7,0,0,1,.26,1.57,2.82,2.82,0,0,1-.09.67h-6a2.17,2.17,0,0,0,.82,1.31,2.41,2.41,0,0,0,1.47.47A3.21,3.21,0,0,0,44.72,52a4.45,4.45,0,0,0,.76-.46Zm-1-3.6a1.86,1.86,0,0,0-.56-1.38,2.11,2.11,0,0,0-1.49-.51,2.19,2.19,0,0,0-1.49.51,2.34,2.34,0,0,0-.75,1.38Z"/><path d="M52.52,47.12a5,5,0,0,1,.51-.46,4,4,0,0,1,.74-.44,6,6,0,0,1,1-.34,4.71,4.71,0,0,1,1.15-.14,4.3,4.3,0,0,1,1.32.2,3,3,0,0,1,1.07.58,2.55,2.55,0,0,1,.7,1,3.3,3.3,0,0,1,.25,1.34v4.8H57.69l-.11-1.09a3.06,3.06,0,0,1-1.08.91,3.36,3.36,0,0,1-1.51.32,3,3,0,0,1-1.06-.18,2.29,2.29,0,0,1-.83-.49,2.27,2.27,0,0,1-.71-1.67,2.06,2.06,0,0,1,.86-1.7,4.06,4.06,0,0,1,2.55-.67h1.71v-.15c0-1.07-.56-1.6-1.68-1.6a2.48,2.48,0,0,0-.73.1,3.12,3.12,0,0,0-.65.24,3,3,0,0,0-.53.32,2.2,2.2,0,0,0-.38.34Zm5,3.13H55.94a2.1,2.1,0,0,0-1.3.3,1,1,0,0,0-.41.78,1,1,0,0,0,.32.71,1.27,1.27,0,0,0,1,.33,2.07,2.07,0,0,0,.74-.14,2,2,0,0,0,1.09-1,1.77,1.77,0,0,0,.17-.8Z"/><path d="M62.78,53.63H61V45.9h1.54l.06,1.31a3.89,3.89,0,0,1,1.13-1.05,2.84,2.84,0,0,1,1.47-.4,3.36,3.36,0,0,1,1.42.27,2.56,2.56,0,0,1,.95.76,3.09,3.09,0,0,1,.55,1.12,5.65,5.65,0,0,1,.17,1.4v4.32H66.51V49.52a5.33,5.33,0,0,0-.07-.82,2,2,0,0,0-.26-.68,1.39,1.39,0,0,0-.51-.45,1.83,1.83,0,0,0-.83-.16,1.94,1.94,0,0,0-.83.18,2.13,2.13,0,0,0-.65.5,2.43,2.43,0,0,0-.43.73,2.58,2.58,0,0,0-.15.88Z"/><path d="M70.9,45.9l2,5.67h0l2-5.67h2L72.37,57.34H70.45L72,53.61,68.92,45.9Z"/><path d="M88.17,52.62a3.64,3.64,0,0,1-1.19.85,3.7,3.7,0,0,1-1.51.3,3.87,3.87,0,0,1-1.55-.31,4.13,4.13,0,0,1-1.27-.86,3.85,3.85,0,0,1-.84-1.28,4.06,4.06,0,0,1,0-3.11,3.85,3.85,0,0,1,.84-1.28,4.13,4.13,0,0,1,1.27-.86,3.87,3.87,0,0,1,1.55-.31,3.55,3.55,0,0,1,1.41.27,3.45,3.45,0,0,1,1.11.73V42h1.78V53.63H88.23Zm-4.88-2.85a2.32,2.32,0,0,0,.19.94A2.34,2.34,0,0,0,84.75,52a2.21,2.21,0,0,0,.92.2,2.38,2.38,0,0,0,1-.2,2.32,2.32,0,0,0,.75-.51,2.36,2.36,0,0,0,.49-.77,2.7,2.7,0,0,0,.17-.94,2.49,2.49,0,0,0-.18-1,2.42,2.42,0,0,0-.49-.76,2.07,2.07,0,0,0-.75-.52,2.4,2.4,0,0,0-1-.19,2.21,2.21,0,0,0-.92.2,2.42,2.42,0,0,0-.76.51,2.25,2.25,0,0,0-.51.77A2.34,2.34,0,0,0,83.29,49.77Z"/><path d="M91.08,49.78a3.9,3.9,0,0,1,1.19-2.84,4,4,0,0,1,1.32-.87,4.3,4.3,0,0,1,1.66-.31,4.2,4.2,0,0,1,1.64.31,4,4,0,0,1,2.19,2.15,4,4,0,0,1-.87,4.4,4.11,4.11,0,0,1-1.32.85,4.21,4.21,0,0,1-1.64.32,4.31,4.31,0,0,1-1.66-.32,4.11,4.11,0,0,1-1.32-.85,3.8,3.8,0,0,1-.88-1.28A3.91,3.91,0,0,1,91.08,49.78Zm1.77,0a2.5,2.5,0,0,0,.18.94,2.38,2.38,0,0,0,.5.77,2.32,2.32,0,0,0,.75.51,2.28,2.28,0,0,0,1,.2,2.42,2.42,0,0,0,1.7-.71,2.38,2.38,0,0,0,.5-.77,2.71,2.71,0,0,0,0-1.89,2.38,2.38,0,0,0-.5-.77,2.49,2.49,0,0,0-.75-.51,2.31,2.31,0,0,0-1-.2,2.28,2.28,0,0,0-1,.2,2.49,2.49,0,0,0-.75.51,2.38,2.38,0,0,0-.5.77A2.51,2.51,0,0,0,92.85,49.77Z"/><path d="M108,51.74a3.59,3.59,0,0,1-1.4,1.47,4,4,0,0,1-2.14.56,4.32,4.32,0,0,1-1.62-.3,4.17,4.17,0,0,1-1.31-.85,4,4,0,0,1-.87-4.44,4.1,4.1,0,0,1,.87-1.27,4,4,0,0,1,1.31-.84,4.14,4.14,0,0,1,1.62-.31,4.09,4.09,0,0,1,2.14.56A3.56,3.56,0,0,1,108,47.8l-1.46.77a2.46,2.46,0,0,0-.84-.89,2.15,2.15,0,0,0-1.22-.35,2.36,2.36,0,0,0-.92.18,2.39,2.39,0,0,0-.76.52,2.29,2.29,0,0,0-.51.78,2.32,2.32,0,0,0-.19,1,2.38,2.38,0,0,0,.19,1,2.35,2.35,0,0,0,.51.77,2.24,2.24,0,0,0,.76.52,2.36,2.36,0,0,0,.92.18,2.15,2.15,0,0,0,1.22-.35,2.38,2.38,0,0,0,.84-.89Z"/><path d="M109.88,45.9l.39-2.09h1.37V45.9H114v1.49h-2.31v3.49a1.61,1.61,0,0,0,.24,1,1,1,0,0,0,.78.28A5.63,5.63,0,0,0,114,52V53.5c-.33.09-.65.16-.94.21a6.21,6.21,0,0,1-.82.06,2.42,2.42,0,0,1-1.72-.56,2.18,2.18,0,0,1-.59-1.64V47.39h-1.37V45.9Z"/><path d="M114.76,49.78A3.9,3.9,0,0,1,116,46.94a4,4,0,0,1,1.32-.87,4.3,4.3,0,0,1,1.66-.31,4.2,4.2,0,0,1,1.64.31,4,4,0,0,1,2.19,2.15,4,4,0,0,1-.87,4.4,4.11,4.11,0,0,1-1.32.85,4.21,4.21,0,0,1-1.64.32,4.31,4.31,0,0,1-1.66-.32,4.11,4.11,0,0,1-1.32-.85,3.8,3.8,0,0,1-.88-1.28A3.91,3.91,0,0,1,114.76,49.78Zm1.78,0a2.49,2.49,0,0,0,.17.94A2.31,2.31,0,0,0,118,52a2.4,2.4,0,0,0,2.65-.51,2.38,2.38,0,0,0,.5-.77,2.71,2.71,0,0,0,0-1.89,2.38,2.38,0,0,0-.5-.77,2.49,2.49,0,0,0-.75-.51,2.36,2.36,0,0,0-1.9,0,2.37,2.37,0,0,0-.75.51,2.23,2.23,0,0,0-.5.77A2.5,2.5,0,0,0,116.54,49.77Z"/><path d="M126.18,53.63H124.4V45.9h1.52l.08,1.27a3.59,3.59,0,0,1,.91-1,2,2,0,0,1,1.26-.41,2.49,2.49,0,0,1,.8.15v1.73a1.94,1.94,0,0,0-.43-.11l-.4,0a1.82,1.82,0,0,0-1.4.58,2.27,2.27,0,0,0-.55,1.63Z"/><path d="M138.5,45.45a1,1,0,0,0-.25-.63.88.88,0,0,0-1.55.57.94.94,0,0,0,.07.37,2.36,2.36,0,0,0,.22.4c.11.14.24.3.4.47l.58.63,3,3.15a2.76,2.76,0,0,0,.16-.51,3.21,3.21,0,0,0,.05-.55h1.76a4,4,0,0,1-.19,1.26,4.73,4.73,0,0,1-.53,1.11L144,53.63h-2l-.78-.83a4.77,4.77,0,0,1-1.41.75,5.16,5.16,0,0,1-1.61.25,5.8,5.8,0,0,1-1.69-.23,3.92,3.92,0,0,1-1.35-.69,3.14,3.14,0,0,1-.91-1.13,3.51,3.51,0,0,1-.33-1.56,3,3,0,0,1,.16-1,3.7,3.7,0,0,1,.43-.84,3.75,3.75,0,0,1,.62-.7,4.88,4.88,0,0,1,.73-.56c-.17-.2-.32-.38-.44-.55a2.55,2.55,0,0,1-.27-.47,2.26,2.26,0,0,1-.14-.47,2.86,2.86,0,0,1,0-.53,2,2,0,0,1,.2-.86,2.07,2.07,0,0,1,.53-.72,2.37,2.37,0,0,1,.82-.48,3.08,3.08,0,0,1,1.07-.18,2.65,2.65,0,0,1,1.11.22,2.8,2.8,0,0,1,.85.59,2.91,2.91,0,0,1,.54.82,2.31,2.31,0,0,1,.2.92Zm-2.82,4.7a1.73,1.73,0,0,0,.74,1.49,2.53,2.53,0,0,0,.78.36,3.64,3.64,0,0,0,1,.12,3.51,3.51,0,0,0,.95-.13,2.62,2.62,0,0,0,.87-.43l-3.1-3.23a2.86,2.86,0,0,0-.83.73A1.68,1.68,0,0,0,135.68,50.15Z"/><path d="M149,43h7.77v1.19l-5.29,7.71h5.38v1.73H149v-1.2l5.32-7.7H149Z"/><path d="M166,53.63h-7.61V43h7.52v1.69h-5.7v2.7h5.56V49h-5.56v2.89H166Z"/><path d="M167.58,53.63V43h4.62a4.63,4.63,0,0,1,1.55.24,3.28,3.28,0,0,1,1.15.68,2.78,2.78,0,0,1,.72,1,3.58,3.58,0,0,1,.25,1.33,2.93,2.93,0,0,1-.61,1.84,3.31,3.31,0,0,1-1.61,1.1l2.54,4.4h-2l-2.33-4.12H169.4v4.12Zm1.82-8.9v3.13h2.8a2.19,2.19,0,0,0,1.35-.38,1.37,1.37,0,0,0,.49-1.17,1.44,1.44,0,0,0-.49-1.19,2.13,2.13,0,0,0-1.35-.39Z"/><path d="M176.82,48.33a5.46,5.46,0,0,1,.43-2.17,5.19,5.19,0,0,1,1.18-1.76,5.41,5.41,0,0,1,1.77-1.19,5.75,5.75,0,0,1,4.41,0,5.35,5.35,0,0,1,1.78,1.19,5.5,5.5,0,0,1,1.18,1.76,5.64,5.64,0,0,1,.43,2.17,5.53,5.53,0,0,1-.43,2.14,5.61,5.61,0,0,1-1.18,1.76,5.51,5.51,0,0,1-1.78,1.19,5.64,5.64,0,0,1-6.18-1.19,5.29,5.29,0,0,1-1.18-1.76A5.35,5.35,0,0,1,176.82,48.33Zm1.82,0a3.83,3.83,0,0,0,.29,1.48,4.08,4.08,0,0,0,.8,1.19,3.66,3.66,0,0,0,1.2.8,3.92,3.92,0,0,0,3,0,3.57,3.57,0,0,0,1.18-.8,3.84,3.84,0,0,0,.79-4.17,3.85,3.85,0,0,0-.79-1.2,3.76,3.76,0,0,0-1.18-.81,3.79,3.79,0,0,0-4.16.81,4.27,4.27,0,0,0-.8,1.2A3.89,3.89,0,0,0,178.64,48.33Z"/><path d="M21.09,67.09a3.94,3.94,0,0,1,1.18-2.84,4,4,0,0,1,1.33-.87,4.55,4.55,0,0,1,3.3,0,4,4,0,0,1,1.32.87,4,4,0,0,1,.87,4.4,3.88,3.88,0,0,1-.87,1.27,4.13,4.13,0,0,1-1.32.86,4.55,4.55,0,0,1-3.3,0,4.18,4.18,0,0,1-1.33-.86,3.9,3.9,0,0,1-1.18-2.83Zm1.77,0A2.51,2.51,0,0,0,23,68a2.31,2.31,0,0,0,.49.76,2.38,2.38,0,0,0,1.71.72,2.31,2.31,0,0,0,1-.2,2.34,2.34,0,0,0,.75-.52,2.16,2.16,0,0,0,.49-.76,2.51,2.51,0,0,0,.18-1,2.46,2.46,0,0,0-.18-.94,2.2,2.2,0,0,0-.49-.77,2.51,2.51,0,0,0-.75-.52,2.5,2.5,0,0,0-1.91,0,2.51,2.51,0,0,0-.75.52,2.36,2.36,0,0,0-.49.77A2.46,2.46,0,0,0,22.86,67.07Z"/><path d="M36.14,63.21H37.9v7.72H36.37l-.08-1.26a3.86,3.86,0,0,1-1.12,1,2.81,2.81,0,0,1-1.5.4,3.26,3.26,0,0,1-1.43-.28,2.44,2.44,0,0,1-1-.75,3,3,0,0,1-.53-1.13,5.69,5.69,0,0,1-.16-1.41v-4.3h1.78v3.93a5.49,5.49,0,0,0,.07.93,1.92,1.92,0,0,0,.26.72,1.19,1.19,0,0,0,.52.47,1.83,1.83,0,0,0,.83.17,1.8,1.8,0,0,0,.82-.19,1.93,1.93,0,0,0,.66-.5,2.42,2.42,0,0,0,.6-1.6Z"/><path d="M40.42,63.21l.39-2.1h1.37v2.1h2.31V64.7H42.18v3.49a1.61,1.61,0,0,0,.24,1,1,1,0,0,0,.78.28,6.25,6.25,0,0,0,1.29-.19V70.8a6.2,6.2,0,0,1-.94.21,5,5,0,0,1-.82.07A2.38,2.38,0,0,1,41,70.51a2.15,2.15,0,0,1-.59-1.63V64.7H39.05V63.21Z"/><path d="M47.56,63.34l.07,1a3.8,3.8,0,0,1,1.17-.84,3.73,3.73,0,0,1,1.51-.3,3.89,3.89,0,0,1,2.82,1.17A3.8,3.8,0,0,1,54,65.64a4.08,4.08,0,0,1,0,3.12,4,4,0,0,1-3.66,2.45,3.53,3.53,0,0,1-1.4-.27,3.4,3.4,0,0,1-1.11-.73V75H46V63.34ZM52.5,67.2a2.46,2.46,0,0,0-.18-.94,2.33,2.33,0,0,0-.52-.77A2.55,2.55,0,0,0,51,65a2.2,2.2,0,0,0-.92-.19,2.37,2.37,0,0,0-1,.19,2.28,2.28,0,0,0-.76.52,2.12,2.12,0,0,0-.49.77,2.66,2.66,0,0,0-.17.94,2.51,2.51,0,0,0,.18,1,2.47,2.47,0,0,0,.49.77,2.34,2.34,0,0,0,.75.52,2.54,2.54,0,0,0,1,.18,2.2,2.2,0,0,0,.92-.19,2.55,2.55,0,0,0,.77-.52,2.39,2.39,0,0,0,.52-.76A2.51,2.51,0,0,0,52.5,67.2Z"/><path d="M55.31,64.42a4,4,0,0,1,.51-.45,3.8,3.8,0,0,1,.75-.44,4.69,4.69,0,0,1,1-.34,4.62,4.62,0,0,1,1.14-.14,4.36,4.36,0,0,1,1.33.19,3.1,3.1,0,0,1,1.07.59,2.62,2.62,0,0,1,.7,1A3.53,3.53,0,0,1,62,66.14v4.79H60.48l-.11-1.08a3.12,3.12,0,0,1-1.07.91,3.39,3.39,0,0,1-1.51.32,3,3,0,0,1-1.07-.18,2.39,2.39,0,0,1-.82-.49,2.15,2.15,0,0,1-.53-.74,2.41,2.41,0,0,1-.18-.93A2.08,2.08,0,0,1,56,67a4.13,4.13,0,0,1,2.55-.67h1.72v-.14c0-1.07-.56-1.6-1.68-1.6a2.94,2.94,0,0,0-.74.09,4.18,4.18,0,0,0-.65.25,3.11,3.11,0,0,0-.53.32,3.34,3.34,0,0,0-.38.34Zm5,3.14H58.74a2.08,2.08,0,0,0-1.3.3.93.93,0,0,0-.41.78,1,1,0,0,0,.31.71,1.27,1.27,0,0,0,1,.32,2.11,2.11,0,0,0,.75-.13,2.18,2.18,0,0,0,.63-.4,2,2,0,0,0,.46-.62,1.91,1.91,0,0,0,.17-.8Z"/><path d="M64.41,63.21l.39-2.1h1.37v2.1h2.31V64.7H66.17v3.49a1.61,1.61,0,0,0,.24,1,1,1,0,0,0,.78.28,6.25,6.25,0,0,0,1.29-.19V70.8a6.06,6.06,0,0,1-1,.21,4.75,4.75,0,0,1-.81.07A2.38,2.38,0,0,1,65,70.51a2.15,2.15,0,0,1-.59-1.63V64.7H63V63.21Z"/><path d="M69.72,61.08a1.16,1.16,0,0,1,.35-.86,1.12,1.12,0,0,1,.85-.35,1.21,1.21,0,0,1,1.21,1.21,1.18,1.18,0,0,1-.36.86,1.11,1.11,0,0,1-.85.37,1.1,1.1,0,0,1-.85-.37A1.21,1.21,0,0,1,69.72,61.08ZM70,63.21h1.78v7.72H70Z"/><path d="M80.32,70.11a4.28,4.28,0,0,1-.52.34,4.44,4.44,0,0,1-.69.32,5.12,5.12,0,0,1-.86.24,6.4,6.4,0,0,1-1,.08,4.3,4.3,0,0,1-1.68-.31,3.86,3.86,0,0,1-1.26-.86,3.73,3.73,0,0,1-.81-1.27,4.27,4.27,0,0,1-.28-1.56,4.35,4.35,0,0,1,.29-1.58,3.8,3.8,0,0,1,.84-1.27,3.91,3.91,0,0,1,1.27-.86,4.15,4.15,0,0,1,1.63-.31,4.25,4.25,0,0,1,1.69.31,3.67,3.67,0,0,1,1.24.86,3.62,3.62,0,0,1,.76,1.27,4.64,4.64,0,0,1,.26,1.56,2.89,2.89,0,0,1-.09.68h-6a2.17,2.17,0,0,0,.82,1.31,2.41,2.41,0,0,0,1.47.47,3,3,0,0,0,1.33-.24,3.89,3.89,0,0,0,.76-.46Zm-1-3.6a1.86,1.86,0,0,0-.56-1.38,2.11,2.11,0,0,0-1.49-.51,2.19,2.19,0,0,0-1.49.51A2.34,2.34,0,0,0,75,66.51Z"/><path d="M84.39,70.93H82.61V63.21h1.54l.06,1.31a3.89,3.89,0,0,1,1.13-1,2.75,2.75,0,0,1,1.47-.4,3.33,3.33,0,0,1,1.42.27,2.55,2.55,0,0,1,1,.75,3,3,0,0,1,.54,1.12,5.73,5.73,0,0,1,.17,1.41v4.31H88.12v-4.1a4.32,4.32,0,0,0-.07-.82,2,2,0,0,0-.26-.68,1.12,1.12,0,0,0-.51-.45,1.78,1.78,0,0,0-.82-.17,1.91,1.91,0,0,0-.83.19,2,2,0,0,0-.66.5,2.51,2.51,0,0,0-.43.73,2.54,2.54,0,0,0-.15.88Z"/><path d="M92.22,63.21l.39-2.1H94v2.1H96.3V64.7H94v3.49a1.61,1.61,0,0,0,.24,1,1,1,0,0,0,.77.28,6.24,6.24,0,0,0,1.3-.19V70.8a6.32,6.32,0,0,1-1,.21,5,5,0,0,1-.82.07,2.4,2.4,0,0,1-1.72-.57,2.15,2.15,0,0,1-.59-1.63V64.7H90.85V63.21Z"/><path d="M108.46,70.11a4.28,4.28,0,0,1-.52.34,4.44,4.44,0,0,1-.69.32,5.12,5.12,0,0,1-.86.24,6.4,6.4,0,0,1-1,.08,4.3,4.3,0,0,1-1.68-.31,3.86,3.86,0,0,1-1.26-.86,3.59,3.59,0,0,1-.81-1.27,4.28,4.28,0,0,1-.29-1.56,4.15,4.15,0,0,1,.3-1.58,3.8,3.8,0,0,1,.84-1.27,3.91,3.91,0,0,1,1.27-.86,4.15,4.15,0,0,1,1.63-.31,4.25,4.25,0,0,1,1.69.31,3.67,3.67,0,0,1,1.24.86,3.77,3.77,0,0,1,.76,1.27,4.64,4.64,0,0,1,.25,1.56,2.85,2.85,0,0,1-.08.68h-6a2.17,2.17,0,0,0,.82,1.31,2.41,2.41,0,0,0,1.47.47,3.07,3.07,0,0,0,1.33-.24,3.89,3.89,0,0,0,.76-.46Zm-1-3.6a1.86,1.86,0,0,0-.56-1.38,2.11,2.11,0,0,0-1.49-.51,2.19,2.19,0,0,0-1.49.51,2.24,2.24,0,0,0-.75,1.38Z"/><path d="M112.08,63.21l1.68,2.46h0l1.7-2.46h2.08L114.86,67v0l2.82,3.92H115.6l-1.81-2.63h0L112,70.93h-2.12L112.67,67v0L110,63.21Z"/><path d="M120.32,63.34l.06,1a3.84,3.84,0,0,1,1.18-.84,3.65,3.65,0,0,1,1.5-.3,3.93,3.93,0,0,1,1.57.31,4.09,4.09,0,0,1,1.26.86,4.13,4.13,0,0,1,.84,1.27,4.21,4.21,0,0,1,0,3.12,4.18,4.18,0,0,1-.84,1.28,4.06,4.06,0,0,1-1.26.85,3.93,3.93,0,0,1-1.57.32,3.57,3.57,0,0,1-1.4-.27,3.47,3.47,0,0,1-1.1-.73l0,4.76h-1.76V63.34Zm4.94,3.86a2.29,2.29,0,0,0-.19-.94,2.16,2.16,0,0,0-.51-.77,2.68,2.68,0,0,0-.77-.52,2.23,2.23,0,0,0-.92-.19,2.41,2.41,0,0,0-1,.19,2.28,2.28,0,0,0-.76.52,2.1,2.1,0,0,0-.48.77,2.45,2.45,0,0,0-.17.94,2.71,2.71,0,0,0,.17,1,2.49,2.49,0,0,0,.5.77,2.34,2.34,0,0,0,.75.52,2.5,2.5,0,0,0,1,.18,2.23,2.23,0,0,0,.92-.19,2.68,2.68,0,0,0,.77-.52,2.21,2.21,0,0,0,.51-.76A2.34,2.34,0,0,0,125.26,67.2Z"/><path d="M135.13,70.11a5.24,5.24,0,0,1-.52.34,4.92,4.92,0,0,1-.69.32,5.12,5.12,0,0,1-.86.24,6.4,6.4,0,0,1-1,.08,4.3,4.3,0,0,1-1.68-.31,3.91,3.91,0,0,1-1.27-.86,3.56,3.56,0,0,1-.8-1.27,4.28,4.28,0,0,1-.29-1.56,4.15,4.15,0,0,1,.3-1.58,3.85,3.85,0,0,1,2.11-2.13,4.15,4.15,0,0,1,1.63-.31,4.25,4.25,0,0,1,1.69.31,3.67,3.67,0,0,1,1.24.86,3.59,3.59,0,0,1,.75,1.27,4.41,4.41,0,0,1,.26,1.56,2.85,2.85,0,0,1-.08.68h-6a2.17,2.17,0,0,0,.82,1.31,2.41,2.41,0,0,0,1.47.47,3.07,3.07,0,0,0,1.33-.24,3.5,3.5,0,0,0,.75-.46Zm-1-3.6a1.86,1.86,0,0,0-.56-1.38,2.12,2.12,0,0,0-1.49-.51,2.19,2.19,0,0,0-1.49.51,2.3,2.3,0,0,0-.76,1.38Z"/><path d="M139.2,70.93h-1.78V63.21H139l.07,1.31a3.89,3.89,0,0,1,1.13-1,2.75,2.75,0,0,1,1.47-.4,3.36,3.36,0,0,1,1.42.27,2.44,2.44,0,0,1,1,.75,3.17,3.17,0,0,1,.55,1.12,5.73,5.73,0,0,1,.17,1.41v4.31h-1.78v-4.1a4.32,4.32,0,0,0-.07-.82,2,2,0,0,0-.26-.68,1.23,1.23,0,0,0-.51-.45,1.81,1.81,0,0,0-.82-.17,2,2,0,0,0-.84.19,2,2,0,0,0-.65.5,2.31,2.31,0,0,0-.43.73,2.54,2.54,0,0,0-.15.88Z"/><path d="M150.81,65.25a1.44,1.44,0,0,0-.21-.19,1.72,1.72,0,0,0-.36-.23,3.13,3.13,0,0,0-.49-.2,2.35,2.35,0,0,0-.6-.08,1.3,1.3,0,0,0-.84.23.67.67,0,0,0-.28.55.65.65,0,0,0,.27.5,2.54,2.54,0,0,0,.95.4l.95.25a4.8,4.8,0,0,1,1,.38,2.26,2.26,0,0,1,.78.66,1.72,1.72,0,0,1,.32,1.09,2.3,2.3,0,0,1-.23,1,2.19,2.19,0,0,1-.65.8,3.75,3.75,0,0,1-1,.51,4.48,4.48,0,0,1-1.32.18,5,5,0,0,1-1.89-.33A3.13,3.13,0,0,1,146,70l1.08-1.26.25.2a2.42,2.42,0,0,0,.44.27,3.26,3.26,0,0,0,.6.24,2.86,2.86,0,0,0,.73.1,1.89,1.89,0,0,0,.94-.22.67.67,0,0,0,.38-.62.65.65,0,0,0-.29-.55,3.06,3.06,0,0,0-1-.39c-.4-.11-.78-.22-1.15-.34a4.73,4.73,0,0,1-1-.44,2.21,2.21,0,0,1-.65-.64,1.6,1.6,0,0,1-.25-.92,2.26,2.26,0,0,1,.23-1,2.35,2.35,0,0,1,.62-.75,3,3,0,0,1,1-.47,4.22,4.22,0,0,1,1.21-.16,4.49,4.49,0,0,1,1,.11,4.73,4.73,0,0,1,.8.25,2.85,2.85,0,0,1,.58.3,2.13,2.13,0,0,1,.33.28Z"/><path d="M160.26,70.11a4.28,4.28,0,0,1-.52.34,4.44,4.44,0,0,1-.69.32,4.86,4.86,0,0,1-.86.24,6.36,6.36,0,0,1-1,.08,4.23,4.23,0,0,1-1.68-.31,3.8,3.8,0,0,1-1.27-.86,3.73,3.73,0,0,1-.81-1.27,4.27,4.27,0,0,1-.28-1.56,4.15,4.15,0,0,1,.3-1.58,3.78,3.78,0,0,1,.83-1.27,3.91,3.91,0,0,1,1.27-.86,4.17,4.17,0,0,1,1.64-.31,4.23,4.23,0,0,1,1.68.31,3.58,3.58,0,0,1,1.24.86,3.62,3.62,0,0,1,.76,1.27,4.64,4.64,0,0,1,.26,1.56,3.47,3.47,0,0,1-.08.68h-6a2.19,2.19,0,0,0,.83,1.31,2.41,2.41,0,0,0,1.47.47,3,3,0,0,0,1.32-.24,3.61,3.61,0,0,0,.76-.46Zm-1-3.6a1.83,1.83,0,0,0-.57-1.38,2.1,2.1,0,0,0-1.48-.51,2.2,2.2,0,0,0-1.5.51,2.34,2.34,0,0,0-.75,1.38Z"/><path d="M27.76,87.24a3.89,3.89,0,0,1-1.19.84,3.74,3.74,0,0,1-1.51.31,3.84,3.84,0,0,1-1.55-.32,4,4,0,0,1-1.27-.85,4.15,4.15,0,0,1-.85-1.28,4.21,4.21,0,0,1,0-3.12,4,4,0,0,1,.85-1.27,4,4,0,0,1,2.82-1.18,3.5,3.5,0,0,1,2.52,1V76.61h1.78V88.24H27.82Zm-4.88-2.86a2.39,2.39,0,0,0,.69,1.71,2.51,2.51,0,0,0,.76.52,2.23,2.23,0,0,0,.92.19,2.4,2.4,0,0,0,1-.19,2.34,2.34,0,0,0,.75-.52,2.1,2.1,0,0,0,.48-.77,2.45,2.45,0,0,0,.17-.94,2.67,2.67,0,0,0-.17-.95,2.49,2.49,0,0,0-.5-.77,2.34,2.34,0,0,0-.75-.52,2.5,2.5,0,0,0-1-.18,2.23,2.23,0,0,0-.92.19,2.51,2.51,0,0,0-.76.52,2.39,2.39,0,0,0-.69,1.71Z"/><path d="M37.8,87.42c-.14.1-.31.22-.51.34a6.6,6.6,0,0,1-.7.32,5,5,0,0,1-.85.23,5.45,5.45,0,0,1-1,.09A4.23,4.23,0,0,1,33,88.09,3.73,3.73,0,0,1,31,86a4.4,4.4,0,0,1-.28-1.55,4.15,4.15,0,0,1,.3-1.58,3.94,3.94,0,0,1,.83-1.27,3.8,3.8,0,0,1,1.28-.86,4.12,4.12,0,0,1,1.63-.32,4.28,4.28,0,0,1,1.69.32,3.41,3.41,0,0,1,1.23.86,3.52,3.52,0,0,1,.76,1.26,4.74,4.74,0,0,1,.26,1.57,3.56,3.56,0,0,1-.08.68h-6a2.19,2.19,0,0,0,.83,1.31,2.41,2.41,0,0,0,1.47.47,3,3,0,0,0,1.32-.24,3.77,3.77,0,0,0,.76-.46Zm-1-3.61a1.83,1.83,0,0,0-.57-1.38,2.08,2.08,0,0,0-1.48-.51,2.22,2.22,0,0,0-1.5.51,2.34,2.34,0,0,0-.75,1.38Z"/><path d="M46.2,87.24a3.84,3.84,0,0,1-1.18.84,3.74,3.74,0,0,1-1.51.31A3.84,3.84,0,0,1,42,88.07a3.91,3.91,0,0,1-2.12-2.13,4.08,4.08,0,0,1,0-3.12,4,4,0,0,1,3.67-2.45,3.53,3.53,0,0,1,1.4.27,3.64,3.64,0,0,1,1.12.74V76.61H47.8V88.24H46.27Zm-4.87-2.86a2.46,2.46,0,0,0,.18.94,2.3,2.3,0,0,0,.51.77,2.51,2.51,0,0,0,.76.52,2.23,2.23,0,0,0,.92.19,2.4,2.4,0,0,0,1-.19,2.34,2.34,0,0,0,.75-.52,2.1,2.1,0,0,0,.48-.77,2.66,2.66,0,0,0,.17-.94,2.47,2.47,0,0,0-.18-.95,2.3,2.3,0,0,0-.49-.77,2.34,2.34,0,0,0-.75-.52,2.5,2.5,0,0,0-1-.18,2.23,2.23,0,0,0-.92.19,2.51,2.51,0,0,0-.76.52,2.3,2.3,0,0,0-.51.77A2.46,2.46,0,0,0,41.33,84.38Z"/><path d="M55.07,80.52h1.76v7.72H55.3L55.22,87a3.73,3.73,0,0,1-1.12,1,2.9,2.9,0,0,1-1.5.4,3.41,3.41,0,0,1-1.43-.28,2.44,2.44,0,0,1-1-.75,3.11,3.11,0,0,1-.53-1.13,6.34,6.34,0,0,1-.16-1.41v-4.3h1.78v3.92a5.33,5.33,0,0,0,.07.93,2.09,2.09,0,0,0,.26.73,1.25,1.25,0,0,0,.52.47,1.86,1.86,0,0,0,.83.17,1.8,1.8,0,0,0,.82-.19,1.93,1.93,0,0,0,.66-.5,2.33,2.33,0,0,0,.44-.73,2.37,2.37,0,0,0,.16-.88Z"/><path d="M65.91,86.35a3.62,3.62,0,0,1-1.4,1.48,4.09,4.09,0,0,1-2.14.56,4.33,4.33,0,0,1-1.62-.31,4.17,4.17,0,0,1-1.31-.85,4,4,0,0,1-.87-4.43,3.88,3.88,0,0,1,.87-1.27,4.17,4.17,0,0,1,1.31-.85,4.33,4.33,0,0,1,1.62-.31,4.09,4.09,0,0,1,2.14.56,3.62,3.62,0,0,1,1.4,1.48l-1.45.78a2.47,2.47,0,0,0-.84-.89,2.3,2.3,0,0,0-2.15-.17,2.32,2.32,0,0,0-1.27,1.29,2.57,2.57,0,0,0-.19,1,2.49,2.49,0,0,0,.19,1,2.32,2.32,0,0,0,1.27,1.29,2.3,2.3,0,0,0,2.15-.17,2.52,2.52,0,0,0,.84-.88Z"/><path d="M67.75,80.52l.39-2.1h1.37v2.1h2.31V82H69.51v3.48a1.5,1.5,0,0,0,.25,1,1,1,0,0,0,.77.29,5.65,5.65,0,0,0,1.29-.2v1.52a6.2,6.2,0,0,1-.94.21,6.33,6.33,0,0,1-.82.07,2.38,2.38,0,0,1-1.72-.57,2.17,2.17,0,0,1-.59-1.63V82H66.38V80.52Z"/><path d="M73.07,78.39a1.2,1.2,0,1,1,2.4,0,1.21,1.21,0,0,1-.35.86,1.2,1.2,0,0,1-1.71,0A1.2,1.2,0,0,1,73.07,78.39Zm.3,2.13h1.78v7.72H73.37Z"/><path d="M77.15,76.61h1.76l0,4.77A3.27,3.27,0,0,1,80,80.64a3.52,3.52,0,0,1,1.39-.27,3.9,3.9,0,0,1,1.57.32,3.71,3.71,0,0,1,1.26.86,3.8,3.8,0,0,1,.84,1.27,4.08,4.08,0,0,1-.84,4.4,3.84,3.84,0,0,1-1.26.85,3.9,3.9,0,0,1-1.57.32,3.66,3.66,0,0,1-1.5-.31,4,4,0,0,1-1.18-.84l-.06,1H77.15Zm6.48,7.77a2.46,2.46,0,0,0-.18-.94,2.33,2.33,0,0,0-.52-.77,2.55,2.55,0,0,0-.77-.52,2.23,2.23,0,0,0-.92-.19,2.31,2.31,0,0,0-1.72.69,2.36,2.36,0,0,0-.49.77,2.56,2.56,0,0,0-.18,1,2.66,2.66,0,0,0,.17.94,2.1,2.1,0,0,0,.48.77,2.39,2.39,0,0,0,.76.52,2.41,2.41,0,0,0,1,.19,2.23,2.23,0,0,0,.92-.19,2.55,2.55,0,0,0,.77-.52,2.33,2.33,0,0,0,.52-.77A2.46,2.46,0,0,0,83.63,84.38Z"/><path d="M88.49,88.24H86.72V76.61h1.77Z"/><path d="M96.93,87.42c-.15.1-.32.22-.52.34a6.6,6.6,0,0,1-.7.32,5,5,0,0,1-.85.23,5.45,5.45,0,0,1-1,.09,4.3,4.3,0,0,1-1.68-.31A3.73,3.73,0,0,1,90.08,86a4.4,4.4,0,0,1-.28-1.55,4.15,4.15,0,0,1,.3-1.58,3.94,3.94,0,0,1,.83-1.27,3.8,3.8,0,0,1,1.28-.86,4.12,4.12,0,0,1,1.63-.32,4.28,4.28,0,0,1,1.69.32,3.41,3.41,0,0,1,1.23.86,3.52,3.52,0,0,1,.76,1.26,4.74,4.74,0,0,1,.26,1.57,3.56,3.56,0,0,1-.08.68h-6a2.13,2.13,0,0,0,.82,1.31,2.41,2.41,0,0,0,1.47.47,3,3,0,0,0,1.32-.24,3.77,3.77,0,0,0,.76-.46Zm-1-3.61a1.83,1.83,0,0,0-.57-1.38,2.08,2.08,0,0,0-1.48-.51,2.22,2.22,0,0,0-1.5.51,2.34,2.34,0,0,0-.75,1.38Z"/><path d="M103.48,82.56a1.44,1.44,0,0,0-.21-.19,1.72,1.72,0,0,0-.36-.23,2.39,2.39,0,0,0-.49-.2,2.35,2.35,0,0,0-.6-.08,1.3,1.3,0,0,0-.84.23.7.7,0,0,0-.28.55.65.65,0,0,0,.27.5,2.54,2.54,0,0,0,1,.4l1,.25a4.8,4.8,0,0,1,1,.38,2.34,2.34,0,0,1,.78.65,1.76,1.76,0,0,1,.32,1.09,2.31,2.31,0,0,1-.23,1,2.16,2.16,0,0,1-.65.79,3.25,3.25,0,0,1-1,.51,4.17,4.17,0,0,1-1.32.19,5,5,0,0,1-1.89-.33,3.13,3.13,0,0,1-1.19-.75l1.08-1.26.25.2a2.42,2.42,0,0,0,.44.27,4.17,4.17,0,0,0,.6.24,2.86,2.86,0,0,0,.73.09,2,2,0,0,0,1-.21.7.7,0,0,0,.38-.63.66.66,0,0,0-.3-.54,3.06,3.06,0,0,0-1-.39c-.4-.11-.78-.22-1.15-.34a4.26,4.26,0,0,1-1-.45,2.18,2.18,0,0,1-.65-.63,1.68,1.68,0,0,1-.25-.92,2.26,2.26,0,0,1,.23-1,2.15,2.15,0,0,1,.62-.75,2.78,2.78,0,0,1,1-.47,4.24,4.24,0,0,1,1.22-.16,4.49,4.49,0,0,1,1,.1,5.85,5.85,0,0,1,.8.25,3.09,3.09,0,0,1,.58.31l.34.27Z"/><path d="M29.31,3.34a2.57,2.57,0,0,0-1-.65,3.78,3.78,0,0,0-1.37-.25c-1.05,0-1.66.38-1.83,1.13a1,1,0,0,0,.27,1,3.87,3.87,0,0,0,1.32.78c.46.18.9.38,1.31.58a4.76,4.76,0,0,1,1.06.7,2.4,2.4,0,0,1,.63.93,2.39,2.39,0,0,1,.05,1.26,3.61,3.61,0,0,1-.52,1.26,3.5,3.5,0,0,1-.94.94,4.32,4.32,0,0,1-1.3.6,6,6,0,0,1-1.64.21,6.73,6.73,0,0,1-1.18-.11A6,6,0,0,1,23,11.4a5.13,5.13,0,0,1-.94-.46,3,3,0,0,1-.69-.62L22.77,9a1.84,1.84,0,0,0,.5.45,4.46,4.46,0,0,0,.69.35,4.82,4.82,0,0,0,.79.22,4.11,4.11,0,0,0,.86.08,3,3,0,0,0,1.52-.35,1.42,1.42,0,0,0,.69-1,1,1,0,0,0-.33-1A4.42,4.42,0,0,0,26,7c-.47-.18-.9-.37-1.3-.57a3.88,3.88,0,0,1-1-.69,2.24,2.24,0,0,1-.56-.9,2.4,2.4,0,0,1,0-1.2,3.31,3.31,0,0,1,1.32-2.11A4.39,4.39,0,0,1,27.13.74a6.36,6.36,0,0,1,1.07.1,6,6,0,0,1,1,.27,5,5,0,0,1,.83.43,2.77,2.77,0,0,1,.61.56Z"/><path d="M31.65,5.06a4.51,4.51,0,0,1,.61-.42,6.56,6.56,0,0,1,.88-.43,5.5,5.5,0,0,1,1-.33,4.83,4.83,0,0,1,1.15-.13,4.3,4.3,0,0,1,1.3.18,2.28,2.28,0,0,1,.95.58,2,2,0,0,1,.51,1,3.1,3.1,0,0,1,0,1.35l-1,4.8H35.56l.1-1.08a3.94,3.94,0,0,1-1.26.9,3.62,3.62,0,0,1-1.57.33,2.4,2.4,0,0,1-1-.21,1.84,1.84,0,0,1-.71-.54,1.87,1.87,0,0,1-.36-.78,2.17,2.17,0,0,1,0-.95,2.49,2.49,0,0,1,1.18-1.64,5.07,5.07,0,0,1,2.68-.6h1.7l0-.15c.26-1.06-.16-1.6-1.25-1.6a3.46,3.46,0,0,0-.77.1c-.26.07-.5.15-.74.24a6.16,6.16,0,0,0-.63.32,3.83,3.83,0,0,0-.47.31Zm4.41,3.19H34.49a2.52,2.52,0,0,0-1.35.27,1.05,1.05,0,0,0-.55.75,1,1,0,0,0,0,.39.8.8,0,0,0,.14.36.81.81,0,0,0,.32.25,1.09,1.09,0,0,0,.52.1,2.47,2.47,0,0,0,.78-.14,2.82,2.82,0,0,0,.75-.39,2.72,2.72,0,0,0,.6-.62,2.4,2.4,0,0,0,.36-.8Z"/><path d="M41.13,3.91,42,9.71h0l3.25-5.8H47.4l-4.54,7.72H40.68L39.24,3.91Z"/><path d="M53.25,10.85a6.14,6.14,0,0,1-1.35.63,5.7,5.7,0,0,1-1.95.31,3.87,3.87,0,0,1-1.62-.31,2.8,2.8,0,0,1-1.1-.86,3,3,0,0,1-.55-1.28,4.26,4.26,0,0,1,0-1.55,5,5,0,0,1,.6-1.58,4.89,4.89,0,0,1,1.08-1.27,4.75,4.75,0,0,1,1.44-.86,4.67,4.67,0,0,1,1.7-.32,3.85,3.85,0,0,1,1.63.32,2.62,2.62,0,0,1,1.07.86,2.84,2.84,0,0,1,.52,1.26,4.2,4.2,0,0,1-.06,1.57,2,2,0,0,1-.08.33c0,.11-.07.23-.11.35h-6a1.8,1.8,0,0,0,.48,1.3,1.83,1.83,0,0,0,1.34.46A3.88,3.88,0,0,0,51.71,10a6,6,0,0,0,.91-.44ZM53,7.2a1.61,1.61,0,0,0-.25-1.38,1.61,1.61,0,0,0-1.33-.51,2.77,2.77,0,0,0-1.64.51A3,3,0,0,0,48.69,7.2Z"/><path d="M61,8.9a1.12,1.12,0,0,0,.14.45,1.42,1.42,0,0,0,.37.41,1.77,1.77,0,0,0,.56.31,2.19,2.19,0,0,0,.75.12,2.43,2.43,0,0,0,1.5-.44A1.85,1.85,0,0,0,65,8.63a1.26,1.26,0,0,0-.39-1.26A2.34,2.34,0,0,0,63,6.88h-.59L62.7,5.4h.61A2.86,2.86,0,0,0,65,4.93a2,2,0,0,0,.8-1.18,1.09,1.09,0,0,0-.22-1,1.46,1.46,0,0,0-1.12-.37,2.46,2.46,0,0,0-1.3.35,2.13,2.13,0,0,0-.83.83l-1.56-.69a4.1,4.1,0,0,1,.61-.81,3.94,3.94,0,0,1,.9-.68A5.6,5.6,0,0,1,63.45,1,5,5,0,0,1,64.83.78,4,4,0,0,1,66.18,1a2.71,2.71,0,0,1,1,.6,2.07,2.07,0,0,1,.52.91,2.33,2.33,0,0,1,0,1.15A3.18,3.18,0,0,1,67,5.13a3.94,3.94,0,0,1-1.37,1,2.43,2.43,0,0,1,1.12,1,2.6,2.6,0,0,1,.15,1.74,3.19,3.19,0,0,1-.49,1.19,3.65,3.65,0,0,1-.91.93,4.29,4.29,0,0,1-1.27.62,5.55,5.55,0,0,1-1.56.22,4,4,0,0,1-2.44-.65,2.42,2.42,0,0,1-1-1.71Z"/><path d="M69.16,6.32A9.81,9.81,0,0,1,70,3.85a6.74,6.74,0,0,1,1.22-1.73,4.79,4.79,0,0,1,1.53-1A4.61,4.61,0,0,1,74.44.78,3.63,3.63,0,0,1,76,1.11a2.75,2.75,0,0,1,1.11,1,4.1,4.1,0,0,1,.53,1.73,8.43,8.43,0,0,1-.17,2.47,9.86,9.86,0,0,1-.81,2.46,6.74,6.74,0,0,1-1.22,1.73,4.71,4.71,0,0,1-1.53,1,4.61,4.61,0,0,1-1.72.33,3.63,3.63,0,0,1-1.58-.33,2.62,2.62,0,0,1-1.12-1A4.25,4.25,0,0,1,69,8.78,8.05,8.05,0,0,1,69.16,6.32Zm1.86,0a5.46,5.46,0,0,0,0,2.85,1.43,1.43,0,0,0,1.48,1,2.52,2.52,0,0,0,2-1,6.38,6.38,0,0,0,1.21-2.85,5.43,5.43,0,0,0,0-2.86,1.44,1.44,0,0,0-1.48-1,2.47,2.47,0,0,0-2,1A6.26,6.26,0,0,0,71,6.32Z"/><path d="M79.58,5.57h6l-.29,1.49h-6Z"/><path d="M93.39,1,90.64,4.6l.36,0a2.22,2.22,0,0,1,.37,0,3.9,3.9,0,0,1,1.53.29A2.8,2.8,0,0,1,94,5.58a2.6,2.6,0,0,1,.59,1.17,3.4,3.4,0,0,1,0,1.46A4.13,4.13,0,0,1,94,9.64a4.42,4.42,0,0,1-1,1.16,4.65,4.65,0,0,1-1.4.77,5,5,0,0,1-1.69.29,3.88,3.88,0,0,1-1.54-.29,2.9,2.9,0,0,1-1.11-.78,2.74,2.74,0,0,1-.6-1.16,3.23,3.23,0,0,1,0-1.42,3.76,3.76,0,0,1,.3-1,4.41,4.41,0,0,1,.52-.85l4-5.41Zm-5,7.21a1.7,1.7,0,0,0,0,.78,1.57,1.57,0,0,0,.33.64,1.6,1.6,0,0,0,.61.43,2,2,0,0,0,.83.17,2.65,2.65,0,0,0,.89-.16,2.47,2.47,0,0,0,.78-.43A2.57,2.57,0,0,0,92.47,9a2.16,2.16,0,0,0,.32-.79,1.84,1.84,0,0,0,0-.81,1.56,1.56,0,0,0-1-1.09A2.09,2.09,0,0,0,91,6.15a2.51,2.51,0,0,0-.89.17,2.69,2.69,0,0,0-.78.43,3.09,3.09,0,0,0-.6.65A2,2,0,0,0,88.43,8.21Z"/><path d="M96.41,6.32a9.81,9.81,0,0,1,.81-2.47,6.74,6.74,0,0,1,1.22-1.73,4.79,4.79,0,0,1,1.53-1,4.61,4.61,0,0,1,1.72-.33,3.63,3.63,0,0,1,1.58.33,2.75,2.75,0,0,1,1.11,1,4.1,4.1,0,0,1,.53,1.73,8.43,8.43,0,0,1-.17,2.47,9.86,9.86,0,0,1-.81,2.46,6.74,6.74,0,0,1-1.22,1.73,4.71,4.71,0,0,1-1.53,1,4.61,4.61,0,0,1-1.72.33,3.63,3.63,0,0,1-1.58-.33,2.62,2.62,0,0,1-1.12-1,4.25,4.25,0,0,1-.53-1.73A8.05,8.05,0,0,1,96.41,6.32Zm1.86,0a5.46,5.46,0,0,0,0,2.85,1.43,1.43,0,0,0,1.48,1,2.52,2.52,0,0,0,2-1,6.38,6.38,0,0,0,1.21-2.85,5.43,5.43,0,0,0,0-2.86,1.44,1.44,0,0,0-1.48-1,2.47,2.47,0,0,0-2,1A6.26,6.26,0,0,0,98.27,6.32Z"/><path d="M107.21,4.3A4.79,4.79,0,0,1,107.66,3a3.52,3.52,0,0,1,.69-.92,2.51,2.51,0,0,1,.86-.55,2.56,2.56,0,0,1,.93-.18,2,2,0,0,1,.85.18,1.39,1.39,0,0,1,.63.55,1.93,1.93,0,0,1,.31.92,4.56,4.56,0,0,1-.08,1.34,5.27,5.27,0,0,1-.46,1.34,3.81,3.81,0,0,1-.69.94,2.38,2.38,0,0,1-.84.56,2.56,2.56,0,0,1-.93.18,2,2,0,0,1-.86-.18,1.42,1.42,0,0,1-.63-.56,2.18,2.18,0,0,1-.31-.94A4.23,4.23,0,0,1,107.21,4.3ZM115.49.71h1.3L109.4,11.94h-1.33Zm-7,3.59a2.75,2.75,0,0,0,0,1.39.7.7,0,0,0,.69.48,1.09,1.09,0,0,0,.86-.48,3.23,3.23,0,0,0,.54-1.39,2.66,2.66,0,0,0,0-1.39.65.65,0,0,0-.66-.47,1.12,1.12,0,0,0-.88.47A3.17,3.17,0,0,0,108.47,4.3Zm4.41,4.29a5.26,5.26,0,0,1,.48-1.42,3.64,3.64,0,0,1,.73-1,2.82,2.82,0,0,1,.89-.59,2.68,2.68,0,0,1,1-.19,2.09,2.09,0,0,1,.91.19,1.59,1.59,0,0,1,.67.59,2.19,2.19,0,0,1,.34,1,4.18,4.18,0,0,1-.08,1.42,5.33,5.33,0,0,1-.48,1.43,3.79,3.79,0,0,1-.75,1,3.14,3.14,0,0,1-.9.58,2.6,2.6,0,0,1-1,.19,2.12,2.12,0,0,1-.91-.19,1.68,1.68,0,0,1-.66-.58,2.19,2.19,0,0,1-.32-1A4.83,4.83,0,0,1,112.88,8.59Zm1.33,0a2.78,2.78,0,0,0,0,1.5.73.73,0,0,0,.72.51,1.16,1.16,0,0,0,.93-.51,3.77,3.77,0,0,0,.6-1.5,2.75,2.75,0,0,0,0-1.47.73.73,0,0,0-.72-.51,1.14,1.14,0,0,0-.92.51A3.41,3.41,0,0,0,114.21,8.59Z"/><path d="M124.42,3.91,126,9.76h0l1.63-5.85h1.79l1.65,5.85h0l1.49-5.85h2l-2.37,7.72h-2.1l-1.58-5.41h0L127,11.63h-2.11l-2.46-7.72Z"/><path d="M135.39,1.78a1.18,1.18,0,0,1,.34-.87,1.16,1.16,0,0,1,.85-.34,1.18,1.18,0,0,1,1.21,1.21,1.21,1.21,0,0,1-.35.86,1.16,1.16,0,0,1-.86.36,1.14,1.14,0,0,1-.85-.36A1.2,1.2,0,0,1,135.39,1.78Zm.3,2.13h1.78v7.72h-1.78Z"/><path d="M140.07,3.91l.39-2.1h1.37v2.1h2.31V5.4h-2.31V8.88a1.57,1.57,0,0,0,.24,1,1,1,0,0,0,.78.29,5.73,5.73,0,0,0,1.29-.2V11.5a6.2,6.2,0,0,1-.94.21,6.33,6.33,0,0,1-.82.07,2.38,2.38,0,0,1-1.72-.57,2.17,2.17,0,0,1-.59-1.63V5.4H138.7V3.91Z"/><path d="M147.47,11.63h-1.78V0h1.78V5a3.77,3.77,0,0,1,1.07-.92,2.7,2.7,0,0,1,1.37-.36,3.36,3.36,0,0,1,1.42.28,2.41,2.41,0,0,1,.94.75,3.15,3.15,0,0,1,.54,1.12A5.68,5.68,0,0,1,153,7.32v4.31H151.2V7.53a4.43,4.43,0,0,0-.07-.83,2,2,0,0,0-.26-.67,1.26,1.26,0,0,0-.51-.46,1.93,1.93,0,0,0-.82-.16,1.77,1.77,0,0,0-.82.19,2.27,2.27,0,0,0-.66.49,2,2,0,0,0-.44.72,2.54,2.54,0,0,0-.15.88Z"/><path d="M158.26,7.79a3.94,3.94,0,0,1,1.19-2.85,4.13,4.13,0,0,1,1.32-.86,4.31,4.31,0,0,1,1.66-.32,4.21,4.21,0,0,1,1.64.32,4.13,4.13,0,0,1,1.32.86,4.08,4.08,0,0,1,.87,1.29,4,4,0,0,1-.87,4.39,4.13,4.13,0,0,1-1.32.86,4.2,4.2,0,0,1-1.64.31,4.3,4.3,0,0,1-1.66-.31,4.13,4.13,0,0,1-1.32-.86,3.8,3.8,0,0,1-.88-1.28A3.9,3.9,0,0,1,158.26,7.79Zm1.78,0a2.45,2.45,0,0,0,.17.94,2.28,2.28,0,0,0,.5.77,2.34,2.34,0,0,0,.75.52,2.47,2.47,0,0,0,1.9,0,2.34,2.34,0,0,0,.75-.52,2.28,2.28,0,0,0,.5-.77,2.45,2.45,0,0,0,.17-.94,2.54,2.54,0,0,0-.17-.95,2.4,2.4,0,0,0-1.25-1.28,2.47,2.47,0,0,0-1.9,0,2.4,2.4,0,0,0-1.25,1.28A2.54,2.54,0,0,0,160,7.77Z"/><path d="M173.31,3.91h1.76v7.72h-1.53l-.08-1.26a3.62,3.62,0,0,1-1.12,1,2.9,2.9,0,0,1-1.5.4,3.44,3.44,0,0,1-1.43-.28,2.44,2.44,0,0,1-.95-.75,3.11,3.11,0,0,1-.53-1.13,6.34,6.34,0,0,1-.16-1.41V3.91h1.78V7.83a5.33,5.33,0,0,0,.07.93,2.09,2.09,0,0,0,.26.73,1.25,1.25,0,0,0,.52.47,1.86,1.86,0,0,0,.83.17,1.77,1.77,0,0,0,.82-.19,2.07,2.07,0,0,0,.67-.5,2.51,2.51,0,0,0,.43-.73,2.37,2.37,0,0,0,.16-.88Z"/><path d="M178.76,11.63H177V3.91h1.52l.08,1.26a3.59,3.59,0,0,1,.91-1,2,2,0,0,1,1.25-.4,2.76,2.76,0,0,1,.81.14l0,1.73a1.81,1.81,0,0,0-.42-.1l-.4,0a1.85,1.85,0,0,0-1.4.58,2.29,2.29,0,0,0-.55,1.64Z"/><path d="M23.14,21.35l.06,1a3.64,3.64,0,0,1,1.18-.84,3.5,3.5,0,0,1,1.5-.31,3.89,3.89,0,0,1,1.57.31,4.09,4.09,0,0,1,1.26.86,3.85,3.85,0,0,1,.84,1.28,4.06,4.06,0,0,1,0,3.11A3.85,3.85,0,0,1,28.71,28a4.09,4.09,0,0,1-1.26.86,3.89,3.89,0,0,1-1.57.31,3.52,3.52,0,0,1-1.39-.27,3.25,3.25,0,0,1-1.11-.73l0,4.77H21.6V21.35Zm4.94,3.86a2.34,2.34,0,0,0-.19-.95,2.25,2.25,0,0,0-.51-.77,2.72,2.72,0,0,0-.77-.51,2.24,2.24,0,0,0-.92-.2,2.42,2.42,0,0,0-1,.2,2.54,2.54,0,0,0-.76.51,2.18,2.18,0,0,0-.48.77,2.71,2.71,0,0,0-.17.95,2.5,2.5,0,0,0,.18.94,2.25,2.25,0,0,0,.49.78,2.17,2.17,0,0,0,.75.51,2.33,2.33,0,0,0,1,.19,2.4,2.4,0,0,0,.92-.19,2.75,2.75,0,0,0,.77-.52,2.25,2.25,0,0,0,.51-.77A2.32,2.32,0,0,0,28.08,25.21Z"/><path d="M32.94,28.94H31.17V21.22h1.51l.08,1.26a3.62,3.62,0,0,1,.92-1,2,2,0,0,1,1.25-.41,2.49,2.49,0,0,1,.81.15l0,1.73a1.82,1.82,0,0,0-.43-.11l-.39,0a1.86,1.86,0,0,0-1.41.58A2.31,2.31,0,0,0,32.94,25Z"/><path d="M36.63,19.08a1.18,1.18,0,0,1,1.19-1.21,1.21,1.21,0,0,1,.86.35,1.18,1.18,0,0,1,.35.86,1.22,1.22,0,0,1-.35.87,1.18,1.18,0,0,1-.86.36A1.14,1.14,0,0,1,37,20,1.21,1.21,0,0,1,36.63,19.08Zm.3,2.14h1.78v7.72H36.93Z"/><path d="M41.75,21.22,43.81,27h0l2.06-5.8h2l-3,7.72H42.73l-3-7.72Z"/><path d="M48.39,22.43a3.31,3.31,0,0,1,.5-.45,3.82,3.82,0,0,1,.75-.45,5.37,5.37,0,0,1,1-.34,4.65,4.65,0,0,1,1.15-.14,4.34,4.34,0,0,1,1.32.2,3.08,3.08,0,0,1,1.07.58,2.66,2.66,0,0,1,.7,1,3.3,3.3,0,0,1,.25,1.34v4.8H53.55l-.11-1.09a3.12,3.12,0,0,1-1.07.91,3.26,3.26,0,0,1-1.51.32,3,3,0,0,1-1.07-.18,2.24,2.24,0,0,1-.82-.49,2.29,2.29,0,0,1-.53-.74,2.41,2.41,0,0,1-.18-.93,2.05,2.05,0,0,1,.85-1.7,4.06,4.06,0,0,1,2.55-.67h1.72v-.15c0-1.07-.56-1.6-1.68-1.6a2.55,2.55,0,0,0-.74.1,3,3,0,0,0-.64.24,3.5,3.5,0,0,0-.54.32,4.68,4.68,0,0,0-.38.34Zm5,3.13H51.81a2.08,2.08,0,0,0-1.3.3,1,1,0,0,0-.41.78,1,1,0,0,0,.31.71,1.27,1.27,0,0,0,1,.33,2.12,2.12,0,0,0,.75-.14,2,2,0,0,0,.64-.4,2.2,2.2,0,0,0,.45-.62,1.91,1.91,0,0,0,.17-.8Z"/><path d="M57.48,21.22l.39-2.1h1.37v2.1h2.31V22.7H59.24v3.49a1.59,1.59,0,0,0,.24,1,1,1,0,0,0,.78.28,5.63,5.63,0,0,0,1.29-.19v1.52a7.71,7.71,0,0,1-.94.21,6.21,6.21,0,0,1-.82.06,2.42,2.42,0,0,1-1.72-.56,2.17,2.17,0,0,1-.59-1.63V22.7H56.11V21.22Z"/><path d="M69.5,28.11a4.28,4.28,0,0,1-.52.34,4.92,4.92,0,0,1-.69.33,6.31,6.31,0,0,1-.86.23,5.38,5.38,0,0,1-1,.09,4.3,4.3,0,0,1-1.68-.32,3.88,3.88,0,0,1-1.27-.85,3.6,3.6,0,0,1-.8-1.28,4.28,4.28,0,0,1-.29-1.56,4.1,4.1,0,0,1,.3-1.57,4,4,0,0,1,.83-1.28,4,4,0,0,1,1.28-.85,4.16,4.16,0,0,1,1.63-.32,4.24,4.24,0,0,1,1.69.32,3.65,3.65,0,0,1,1.24.85,3.77,3.77,0,0,1,.76,1.27,4.7,4.7,0,0,1,.25,1.57,2.77,2.77,0,0,1-.08.67h-6a2.17,2.17,0,0,0,.82,1.31,2.35,2.35,0,0,0,1.47.47,3.24,3.24,0,0,0,1.33-.23,4.45,4.45,0,0,0,.76-.46Zm-1-3.6A1.86,1.86,0,0,0,68,23.13a2.11,2.11,0,0,0-1.49-.51,2.19,2.19,0,0,0-1.49.51,2.24,2.24,0,0,0-.75,1.38Z"/><path d="M77.61,28.94H75.83V17.31h1.78Z"/><path d="M79.29,22.43A4,4,0,0,1,79.8,22a3.73,3.73,0,0,1,.74-.45,5.37,5.37,0,0,1,1-.34,4.65,4.65,0,0,1,1.15-.14,4.34,4.34,0,0,1,1.32.2,3,3,0,0,1,1.07.58,2.66,2.66,0,0,1,.7,1A3.3,3.3,0,0,1,86,24.14v4.8H84.46l-.12-1.09a3.12,3.12,0,0,1-1.07.91,3.26,3.26,0,0,1-1.51.32,3,3,0,0,1-1.07-.18,2.24,2.24,0,0,1-.82-.49,2.29,2.29,0,0,1-.53-.74,2.41,2.41,0,0,1-.18-.93A2.05,2.05,0,0,1,80,25a4.08,4.08,0,0,1,2.56-.67h1.71v-.15c0-1.07-.56-1.6-1.68-1.6a2.55,2.55,0,0,0-.74.1,3.25,3.25,0,0,0-.64.24,3.5,3.5,0,0,0-.54.32,4.68,4.68,0,0,0-.38.34Zm5,3.13H82.71a2.1,2.1,0,0,0-1.3.3,1,1,0,0,0-.41.78,1,1,0,0,0,.31.71,1.27,1.27,0,0,0,1,.33,2.12,2.12,0,0,0,.75-.14,2,2,0,0,0,.64-.4,2.2,2.2,0,0,0,.45-.62,1.91,1.91,0,0,0,.17-.8Z"/><path d="M87.83,17.31h1.76l0,4.76a3.31,3.31,0,0,1,1.1-.73,3.6,3.6,0,0,1,1.4-.27,3.93,3.93,0,0,1,1.57.32,4.06,4.06,0,0,1,1.26.85,4.18,4.18,0,0,1,.84,1.28,4,4,0,0,1-2.1,5.25,3.93,3.93,0,0,1-1.57.31,3.65,3.65,0,0,1-1.5-.3,3.84,3.84,0,0,1-1.18-.84l-.06,1H87.83Zm6.48,7.77a2.46,2.46,0,0,0-.7-1.72,2.87,2.87,0,0,0-.77-.51,2.24,2.24,0,0,0-.92-.2,2.5,2.5,0,0,0-1,.19,2.17,2.17,0,0,0-.75.51,2.28,2.28,0,0,0-.5.77,2.69,2.69,0,0,0-.17,1,2.45,2.45,0,0,0,.17.94,2.18,2.18,0,0,0,.48.77,2.44,2.44,0,0,0,.76.52,2.41,2.41,0,0,0,1,.19,2.23,2.23,0,0,0,.92-.19,2.9,2.9,0,0,0,.77-.52,2.25,2.25,0,0,0,.51-.77A2.29,2.29,0,0,0,94.31,25.08Z"/><path d="M104.18,28.11a4.28,4.28,0,0,1-.52.34,4.44,4.44,0,0,1-.69.33,6.31,6.31,0,0,1-.86.23,5.38,5.38,0,0,1-1,.09,4.3,4.3,0,0,1-1.68-.32,3.88,3.88,0,0,1-1.27-.85,3.75,3.75,0,0,1-.8-1.28,4.28,4.28,0,0,1-.29-1.56,4.1,4.1,0,0,1,.3-1.57,3.85,3.85,0,0,1,2.11-2.13,4.16,4.16,0,0,1,1.63-.32,4.24,4.24,0,0,1,1.69.32,3.65,3.65,0,0,1,1.24.85,3.77,3.77,0,0,1,.76,1.27,4.7,4.7,0,0,1,.25,1.57,2.77,2.77,0,0,1-.08.67h-6a2.17,2.17,0,0,0,.82,1.31,2.35,2.35,0,0,0,1.47.47,3.24,3.24,0,0,0,1.33-.23,4.45,4.45,0,0,0,.76-.46Zm-1-3.6a1.86,1.86,0,0,0-.56-1.38,2.11,2.11,0,0,0-1.49-.51,2.19,2.19,0,0,0-1.49.51,2.24,2.24,0,0,0-.75,1.38Z"/><path d="M108.25,28.94h-1.78V17.31h1.78Z"/><path d="M116,28.94h-1.77V17.31H116v5a3.53,3.53,0,0,1,1.08-.92,2.66,2.66,0,0,1,1.36-.36,3.26,3.26,0,0,1,1.43.28,2.49,2.49,0,0,1,.94.75,3.06,3.06,0,0,1,.53,1.12,5.22,5.22,0,0,1,.17,1.4v4.32h-1.78V24.83a4.32,4.32,0,0,0-.07-.82,1.85,1.85,0,0,0-.26-.68,1.25,1.25,0,0,0-.51-.45,1.79,1.79,0,0,0-.82-.16,1.85,1.85,0,0,0-.81.18,2.22,2.22,0,0,0-.67.5,2,2,0,0,0-.43.72A2.3,2.3,0,0,0,116,25Z"/><path d="M129.91,28.11a4.28,4.28,0,0,1-.52.34,4.44,4.44,0,0,1-.69.33,5.94,5.94,0,0,1-.86.23,5.38,5.38,0,0,1-1,.09,4.21,4.21,0,0,1-1.67-.32,3.68,3.68,0,0,1-2.08-2.13,4.27,4.27,0,0,1-.28-1.56,4.1,4.1,0,0,1,.3-1.57,3.68,3.68,0,0,1,.83-1.28,3.88,3.88,0,0,1,1.27-.85,4.16,4.16,0,0,1,1.63-.32,4.24,4.24,0,0,1,1.69.32,3.49,3.49,0,0,1,2,2.12,4.7,4.7,0,0,1,.26,1.57,3.38,3.38,0,0,1-.08.67h-6a2.17,2.17,0,0,0,.82,1.31,2.35,2.35,0,0,0,1.47.47,3.21,3.21,0,0,0,1.33-.23,4.45,4.45,0,0,0,.76-.46Zm-1-3.6a1.82,1.82,0,0,0-.56-1.38,2.11,2.11,0,0,0-1.49-.51,2.19,2.19,0,0,0-1.49.51,2.34,2.34,0,0,0-.75,1.38Z"/><path d="M131.82,22.43a3.88,3.88,0,0,1,.5-.45,3.82,3.82,0,0,1,.75-.45,5.37,5.37,0,0,1,1-.34,4.65,4.65,0,0,1,1.15-.14,4.34,4.34,0,0,1,1.32.2,3.08,3.08,0,0,1,1.07.58,2.66,2.66,0,0,1,.7,1,3.3,3.3,0,0,1,.25,1.34v4.8H137l-.12-1.09a3.12,3.12,0,0,1-1.07.91,3.26,3.26,0,0,1-1.51.32,3,3,0,0,1-1.07-.18,2.24,2.24,0,0,1-.82-.49,2.29,2.29,0,0,1-.53-.74,2.41,2.41,0,0,1-.18-.93,2.05,2.05,0,0,1,.85-1.7,4.06,4.06,0,0,1,2.55-.67h1.72v-.15c0-1.07-.56-1.6-1.68-1.6a2.55,2.55,0,0,0-.74.1,3.25,3.25,0,0,0-.64.24,3.5,3.5,0,0,0-.54.32,4.68,4.68,0,0,0-.38.34Zm5,3.13h-1.57a2.08,2.08,0,0,0-1.3.3.93.93,0,0,0-.41.78,1,1,0,0,0,.31.71,1.27,1.27,0,0,0,1,.33,2.12,2.12,0,0,0,.75-.14,2,2,0,0,0,.64-.4,2.2,2.2,0,0,0,.45-.62,1.91,1.91,0,0,0,.17-.8Z"/><path d="M142.12,28.94h-1.77V17.31h1.77Z"/><path d="M144.62,21.22l.39-2.1h1.38v2.1h2.31V22.7h-2.31v3.49a1.59,1.59,0,0,0,.24,1,1,1,0,0,0,.77.28,5.63,5.63,0,0,0,1.3-.19v1.52a7.85,7.85,0,0,1-.95.21,6.19,6.19,0,0,1-.81.06,2.45,2.45,0,0,1-1.73-.56,2.17,2.17,0,0,1-.59-1.63V22.7h-1.37V21.22Z"/><path d="M152,28.94h-1.77V17.31H152v5a3.53,3.53,0,0,1,1.08-.92,2.66,2.66,0,0,1,1.36-.36,3.18,3.18,0,0,1,1.42.28,2.44,2.44,0,0,1,1,.75,3.06,3.06,0,0,1,.53,1.12,5.22,5.22,0,0,1,.17,1.4v4.32h-1.78V24.83a4.32,4.32,0,0,0-.07-.82,1.85,1.85,0,0,0-.26-.68,1.25,1.25,0,0,0-.51-.45,1.79,1.79,0,0,0-.82-.16,1.85,1.85,0,0,0-.81.18,2.22,2.22,0,0,0-.67.5,2,2,0,0,0-.43.72A2.3,2.3,0,0,0,152,25Z"/><path d="M164.86,21.35l.07,1a3.62,3.62,0,0,1,2.68-1.15,3.93,3.93,0,0,1,1.57.31,4.09,4.09,0,0,1,1.26.86,4.18,4.18,0,0,1,.84,1.28,4.18,4.18,0,0,1,0,3.11,4.18,4.18,0,0,1-.84,1.28,4.09,4.09,0,0,1-1.26.86,3.93,3.93,0,0,1-1.57.31,3.57,3.57,0,0,1-1.4-.27,3.31,3.31,0,0,1-1.1-.73l0,4.77h-1.76V21.35Zm4.95,3.86a2.34,2.34,0,0,0-.19-.95,2.25,2.25,0,0,0-.51-.77,2.87,2.87,0,0,0-.77-.51,2.24,2.24,0,0,0-.92-.2,2.47,2.47,0,0,0-1.74.71,2.18,2.18,0,0,0-.48.77,2.5,2.5,0,0,0-.17.95,2.7,2.7,0,0,0,.17.94,2.43,2.43,0,0,0,.5.78,2.17,2.17,0,0,0,.75.51,2.33,2.33,0,0,0,1,.19,2.4,2.4,0,0,0,.92-.19,2.9,2.9,0,0,0,.77-.52,2.25,2.25,0,0,0,.51-.77A2.32,2.32,0,0,0,169.81,25.21Z"/><path d="M174.67,28.94h-1.78V17.31h1.78Z"/><path d="M176.35,22.43a4.38,4.38,0,0,1,1.25-.9,6,6,0,0,1,1-.34,4.71,4.71,0,0,1,1.15-.14,4.34,4.34,0,0,1,1.32.2,3,3,0,0,1,1.07.58,2.55,2.55,0,0,1,.7,1,3.3,3.3,0,0,1,.25,1.34v4.8h-1.53l-.11-1.09a3.15,3.15,0,0,1-1.08.91,3.23,3.23,0,0,1-1.51.32,3,3,0,0,1-1.06-.18,2.29,2.29,0,0,1-.83-.49,2.12,2.12,0,0,1-.52-.74,2.24,2.24,0,0,1-.19-.93,2.06,2.06,0,0,1,.86-1.7,4.06,4.06,0,0,1,2.55-.67h1.71v-.15c0-1.07-.56-1.6-1.68-1.6a2.48,2.48,0,0,0-.73.1,3.35,3.35,0,0,0-.65.24,3,3,0,0,0-.53.32,2.71,2.71,0,0,0-.38.34Zm5,3.13h-1.57a2.1,2.1,0,0,0-1.3.3,1,1,0,0,0-.41.78,1,1,0,0,0,.32.71,1.27,1.27,0,0,0,1,.33,2.07,2.07,0,0,0,.74-.14,2,2,0,0,0,1.09-1,1.91,1.91,0,0,0,.17-.8Z"/><path d="M186.61,28.94h-1.78V21.22h1.53l.07,1.3a3.89,3.89,0,0,1,1.13-1.05,2.84,2.84,0,0,1,1.47-.4,3.21,3.21,0,0,1,1.42.28,2.55,2.55,0,0,1,1,.75,3.24,3.24,0,0,1,.54,1.12,5.65,5.65,0,0,1,.17,1.4v4.32h-1.78V24.83a4.32,4.32,0,0,0-.07-.82,2,2,0,0,0-.26-.68,1.39,1.39,0,0,0-.51-.45,1.82,1.82,0,0,0-.82-.16,2,2,0,0,0-.84.18,2.13,2.13,0,0,0-.65.5,2.43,2.43,0,0,0-.43.73,2.58,2.58,0,0,0-.15.88Z"/><path d="M193.92,27.84a1.27,1.27,0,0,1,.37-.91,1.2,1.2,0,0,1,.88-.37,1.27,1.27,0,0,1,.89,2.17,1.22,1.22,0,0,1-.89.37,1.16,1.16,0,0,1-.49-.1,1.05,1.05,0,0,1-.39-.27,1.13,1.13,0,0,1-.27-.4A1.34,1.34,0,0,1,193.92,27.84Zm.33-6.62V18.31h1.86v2.91l-.28,4.45h-1.31Z"/><path class="cls-1" d="M7.63,15.64A7.64,7.64,0,1,1,15.27,8,7.64,7.64,0,0,1,7.63,15.64Zm0-13.74A6.11,6.11,0,1,0,13.74,8,6.11,6.11,0,0,0,7.63,1.9Z"/><path class="cls-1" d="M6.87,10.15a1.08,1.08,0,0,1-.78-.32L4.8,8.54a.78.78,0,0,1,0-1.08.76.76,0,0,1,1.08,0l1,1L9.38,5.94A.76.76,0,1,1,10.46,7L7.65,9.83a1.08,1.08,0,0,1-.78.32Z"/><path class="cls-1" d="M7.63,56.37a7.64,7.64,0,1,1,7.64-7.64A7.64,7.64,0,0,1,7.63,56.37Zm0-13.74a6.11,6.11,0,1,0,6.11,6.1A6.11,6.11,0,0,0,7.63,42.63Z"/><path class="cls-1" d="M6.87,50.88a1.08,1.08,0,0,1-.78-.32L4.8,49.27a.78.78,0,0,1,0-1.08.76.76,0,0,1,1.08,0l1,1,2.51-2.51a.76.76,0,1,1,1.08,1.08L7.65,50.56a1.12,1.12,0,0,1-.78.32Z"/></g></g></svg>