<svg xmlns="http://www.w3.org/2000/svg" viewBox="0 0 133.83 51.05"><defs><style>.cls-1{fill:#fefefe;}</style></defs><g id="Layer_2" data-name="Layer 2"><g id="Layer_1-2" data-name="Layer 1"><path class="cls-1" d="M14.57,8.66a4.57,4.57,0,0,1-2.68,1.6c.14.2.25.35.31.46l3,4.15h-5c-.54-1-1.39-2.43-2.56-4.28H4.9v4.28H.55Q.7,11.3.7,8.18T.55,1.49H4.9v0H8.68q3.72,0,5.2,1.2A4,4,0,0,1,15.35,6,4.59,4.59,0,0,1,14.57,8.66ZM4.9,5.05v2.1H7.39a20.12,20.12,0,0,0,2.37-.1,2.78,2.78,0,0,0,1.11-.32.76.76,0,0,0,.32-.65.74.74,0,0,0-.3-.63,2.51,2.51,0,0,0-1.11-.31,23.36,23.36,0,0,0-2.39-.09Z"/><path class="cls-1" d="M25.65,10.26h-6a2.23,2.23,0,0,0,.73,1.32,2.43,2.43,0,0,0,1.65.51,3.45,3.45,0,0,0,1.46-.31,2.7,2.7,0,0,0,1.08-.85,31.25,31.25,0,0,0,3.28,1.31,4.29,4.29,0,0,1-2.07,2,8.66,8.66,0,0,1-3.92.76,6.49,6.49,0,0,1-4.63-1.44,5.05,5.05,0,0,1-1.5-3.81,5,5,0,0,1,1.49-3.74,6.48,6.48,0,0,1,4.64-1.43,7.85,7.85,0,0,1,3.27.62A4.88,4.88,0,0,1,27.23,7,4.48,4.48,0,0,1,28,9.54a4.35,4.35,0,0,1,0,.72Zm-5-2.5a1.89,1.89,0,0,0-.83,1h4.35a2,2,0,0,0-.72-1,2.14,2.14,0,0,0-1.29-.36A2.86,2.86,0,0,0,20.6,7.76Z"/><path class="cls-1" d="M38,4.81H41.5c-.07,2-.1,4.88-.1,8.59A6.7,6.7,0,0,1,40.53,17a5.22,5.22,0,0,1-2.31,2,7.93,7.93,0,0,1-3.21.63,9,9,0,0,1-3.13-.51,4.78,4.78,0,0,1-2.1-1.35L30.61,15a8.53,8.53,0,0,0,1.88.82,6.59,6.59,0,0,0,1.84.25c2.09,0,3.13-.88,3.13-2.65,0-.26,0-.45,0-.56s0-.17,0-.29,0-.28,0-.48a3.82,3.82,0,0,1-4,2.62A3.81,3.81,0,0,1,31.3,14a4.32,4.32,0,0,1-1.5-1.79,5.75,5.75,0,0,1-.54-2.5,6.07,6.07,0,0,1,.54-2.57,4.42,4.42,0,0,1,1.49-1.85,3.59,3.59,0,0,1,2.15-.68q3.12,0,4.06,2.19ZM36.3,11.54a1.81,1.81,0,0,0,.79-.62,1.74,1.74,0,0,0,.33-1.08,2.18,2.18,0,0,0-.51-1.63,2.15,2.15,0,0,0-1.53-.49,1.77,1.77,0,0,0-1.4.59,2.2,2.2,0,0,0-.52,1.53A1.79,1.79,0,0,0,34,11.21a2,2,0,0,0,1.4.53A2.28,2.28,0,0,0,36.3,11.54Z"/><path class="cls-1" d="M47.25,7.54A3.57,3.57,0,0,1,51.1,4.75a6.93,6.93,0,0,1,1,.08L51.54,9a6.36,6.36,0,0,0-2.18-.5,1.86,1.86,0,0,0-1.54.62,2.59,2.59,0,0,0-.5,1.68v0l0,1.22c0,.87,0,1.84.07,2.91H43q.15-2.65.15-5c0-1.57,0-3.26-.15-5,.81,0,1.43.05,1.86.05s1.08,0,1.86-.05Z"/><path class="cls-1" d="M62.8,10.26h-6a2.23,2.23,0,0,0,.73,1.32,2.4,2.4,0,0,0,1.65.51,3.4,3.4,0,0,0,1.45-.31,2.66,2.66,0,0,0,1.09-.85A30.38,30.38,0,0,0,65,12.24a4.29,4.29,0,0,1-2.07,2,8.66,8.66,0,0,1-3.92.76,6.47,6.47,0,0,1-4.63-1.44,5.05,5.05,0,0,1-1.5-3.81,5,5,0,0,1,1.49-3.74A6.46,6.46,0,0,1,59,4.63a7.81,7.81,0,0,1,3.26.62A4.91,4.91,0,0,1,64.38,7a4.56,4.56,0,0,1,.74,2.55,4.35,4.35,0,0,1,0,.72Zm-5-2.5a1.85,1.85,0,0,0-.83,1h4.35a2,2,0,0,0-.72-1,2.14,2.14,0,0,0-1.29-.36A2.86,2.86,0,0,0,57.75,7.76Z"/><path class="cls-1" d="M74.76,8.11C73.63,8,72.59,8,71.66,7.94l0,2a2.54,2.54,0,0,0,.43,1.56,1.83,1.83,0,0,0,1.54.56,4.14,4.14,0,0,0,.81-.07,12.63,12.63,0,0,0-.07,1.38c0,.22,0,.73,0,1.51A13.75,13.75,0,0,1,73,15c-.37,0-.84,0-1.43,0a3.81,3.81,0,0,1-3-1,4.28,4.28,0,0,1-.9-2.9l0-3.11c-.58,0-1.18.06-1.8.11V4.85a2.35,2.35,0,0,0,1.62-.61,2.46,2.46,0,0,0,.79-1.46h5A8.68,8.68,0,0,1,71.2,4.85h3.56Z"/><path class="cls-1" d="M91.36,11.81a2.1,2.1,0,0,0,.14.89.89.89,0,0,0,.59.36L92,14.8c-.39.06-.73.1-1,.13s-.67,0-1.15,0a2.45,2.45,0,0,1-2.1-.71,3,3,0,0,1-.52-1.81V12a4.65,4.65,0,0,1-1.56,2.25,4.35,4.35,0,0,1-2.61.73,4.42,4.42,0,0,1-2.77-.73,2.66,2.66,0,0,1-.93-2.2,2.38,2.38,0,0,1,.79-1.88,5,5,0,0,1,2.45-.94,24.11,24.11,0,0,0-2.8-1.73,7.81,7.81,0,0,1,2.53-2.13,7.51,7.51,0,0,1,3.44-.72A6.14,6.14,0,0,1,90,5.85a4.79,4.79,0,0,1,1.38,3.77ZM84.5,8.18a3.76,3.76,0,0,0-1.29.94A26.12,26.12,0,0,1,86,9a2,2,0,0,0,1-.16.49.49,0,0,0,.28-.43c0-.15-.09-.27-.28-.38a1.62,1.62,0,0,0-.77-.15A4.1,4.1,0,0,0,84.5,8.18Zm1.59,3.38a2.29,2.29,0,0,0,1.14-1V10a4.19,4.19,0,0,1-1,.34c-.35.08-.78.16-1.29.23l-.66.11c-.69.14-1,.37-1,.7s.32.54,1,.54A4.22,4.22,0,0,0,86.09,11.56Z"/><path class="cls-1" d="M97.24,4.2a.55.55,0,0,0,.24.47,1.19,1.19,0,0,0,.7.18h2.43V8.11Q99.08,8,98.18,8q0,3.43.14,6.91H94Q94,12.7,94,8l-1.32.09V4.85H94V4.5A4.87,4.87,0,0,1,94.54,2,3.82,3.82,0,0,1,96.18.52,5.21,5.21,0,0,1,98.56,0a7.88,7.88,0,0,1,2.19.31c-.24.9-.49,2-.73,3.38l-.11.55a2.74,2.74,0,0,0-.9-.53,2.78,2.78,0,0,0-.89-.17,1.25,1.25,0,0,0-.55.11.57.57,0,0,0-.3.31A.78.78,0,0,0,97.24,4.2Z"/><path class="cls-1" d="M110.21,8.11C109.08,8,108,8,107.11,7.94l0,2a2.47,2.47,0,0,0,.44,1.56,1.8,1.8,0,0,0,1.53.56,4.32,4.32,0,0,0,.82-.07,12.62,12.62,0,0,0-.08,1.38c0,.22,0,.73,0,1.51-.54.1-1,.16-1.36.19s-.85,0-1.44,0A3.81,3.81,0,0,1,104,14a4.28,4.28,0,0,1-.9-2.9l0-3.11c-.57,0-1.18.06-1.8.11V4.85a2.33,2.33,0,0,0,1.62-.61,2.41,2.41,0,0,0,.79-1.46h5a8.5,8.5,0,0,1-2.08,2.07h3.56Z"/><path class="cls-1" d="M121.06,10.26h-6a2.23,2.23,0,0,0,.73,1.32,2.43,2.43,0,0,0,1.65.51,3.45,3.45,0,0,0,1.46-.31,2.7,2.7,0,0,0,1.08-.85,31.25,31.25,0,0,0,3.28,1.31,4.29,4.29,0,0,1-2.07,2,8.66,8.66,0,0,1-3.92.76,6.49,6.49,0,0,1-4.63-1.44,5.05,5.05,0,0,1-1.5-3.81,5,5,0,0,1,1.49-3.74,6.48,6.48,0,0,1,4.64-1.43,7.85,7.85,0,0,1,3.27.62A4.88,4.88,0,0,1,122.64,7a4.48,4.48,0,0,1,.74,2.55,4.35,4.35,0,0,1,0,.72Zm-5-2.5a1.89,1.89,0,0,0-.83,1h4.35a2,2,0,0,0-.72-1,2.14,2.14,0,0,0-1.29-.36A2.86,2.86,0,0,0,116,7.76Z"/><path class="cls-1" d="M129,7.54a3.58,3.58,0,0,1,3.85-2.79,6.93,6.93,0,0,1,1,.08L133.24,9a6.36,6.36,0,0,0-2.18-.5,1.86,1.86,0,0,0-1.54.62,2.65,2.65,0,0,0-.5,1.68v0L129,12c0,.87,0,1.84.08,2.91h-4.41q.15-2.65.15-5c0-1.57,0-3.26-.15-5,.81,0,1.43.05,1.86.05s1.08,0,1.86-.05Z"/><path class="cls-1" d="M8.9,26.11C7.77,26,6.74,26,5.8,25.94v1.95a2.47,2.47,0,0,0,.43,1.56A1.82,1.82,0,0,0,7.76,30a4.28,4.28,0,0,0,.81-.07,12.62,12.62,0,0,0-.08,1.38c0,.22,0,.73,0,1.51A13.6,13.6,0,0,1,7.17,33q-.55,0-1.44,0a3.82,3.82,0,0,1-3.05-1,4.33,4.33,0,0,1-.89-2.9l0-3.11c-.58,0-1.18.06-1.81.11V22.85a2.33,2.33,0,0,0,1.62-.61,2.41,2.41,0,0,0,.79-1.46h5a8.53,8.53,0,0,1-2.09,2.07H8.9Z"/><path class="cls-1" d="M19.75,28.26h-6a2.22,2.22,0,0,0,.72,1.32,2.43,2.43,0,0,0,1.65.51,3.45,3.45,0,0,0,1.46-.31,2.73,2.73,0,0,0,1.09-.85A29.56,29.56,0,0,0,22,30.24a4.36,4.36,0,0,1-2.08,2.05,8.61,8.61,0,0,1-3.91.76,6.5,6.5,0,0,1-4.64-1.44,5.05,5.05,0,0,1-1.5-3.81,5,5,0,0,1,1.49-3.74A6.51,6.51,0,0,1,16,22.63a7.81,7.81,0,0,1,3.26.62A4.91,4.91,0,0,1,21.34,25a4.55,4.55,0,0,1,.73,2.55,6.32,6.32,0,0,1,0,.72Zm-5.05-2.5a1.83,1.83,0,0,0-.82,1h4.34a1.94,1.94,0,0,0-.71-.95,2.18,2.18,0,0,0-1.29-.36A2.9,2.9,0,0,0,14.7,25.76Z"/><path class="cls-1" d="M31,27.71l3.87,5.16H30.27a16.58,16.58,0,0,0-1.29-2l-.42-.61c-.07.11-.16.22-.25.35s-.18.26-.27.4c-.24.35-.47.68-.69,1s-.39.62-.52.88H22.26l3.87-5.16-3.72-4.9H27a15.74,15.74,0,0,0,1,1.6l.61.92.52-.79c.51-.77.87-1.35,1.07-1.73H34.7Z"/><path class="cls-1" d="M43.93,26.11c-1.13-.08-2.16-.13-3.1-.17l0,1.95a2.47,2.47,0,0,0,.44,1.56,1.82,1.82,0,0,0,1.54.56,4.28,4.28,0,0,0,.81-.07,12.62,12.62,0,0,0-.08,1.38c0,.22,0,.73,0,1.51-.54.1-1,.16-1.36.19s-.85,0-1.44,0a3.82,3.82,0,0,1-3-1,4.28,4.28,0,0,1-.89-2.9V26c-.57,0-1.18.06-1.8.11V22.85a2.33,2.33,0,0,0,1.62-.61,2.41,2.41,0,0,0,.79-1.46h5a8.5,8.5,0,0,1-2.08,2.07h3.56Z"/><path class="cls-1" d="M45.78,21.15a2,2,0,0,1-.56-1.49,2,2,0,0,1,.56-1.49,2.24,2.24,0,0,1,1.72-.59,2.33,2.33,0,0,1,1.7.59,2.06,2.06,0,0,1,.59,1.49,2,2,0,0,1-.57,1.49,2.35,2.35,0,0,1-1.72.57A2.32,2.32,0,0,1,45.78,21.15Zm-.41,11.72c.08-2,.12-3.61.12-4.9,0-1.54-.05-3.26-.14-5.16h4.42q-.15,2.75-.15,5.16c0,1.35,0,3,.13,4.9Z"/><path class="cls-1" d="M58.63,32.87c.08-1.81.11-3.47.11-5a2,2,0,0,0-.39-1.29,1.26,1.26,0,0,0-1-.48,1.27,1.27,0,0,0-1,.54,2.74,2.74,0,0,0-.5,1.48c0,.94,0,1.6,0,2,0,.83,0,1.75.07,2.74h-4.4c.09-1.77.14-3.44.14-5s-.05-3.26-.14-5.05c.81,0,1.43.05,1.86.05s1.07,0,1.86-.05l.53,2.71A4.18,4.18,0,0,1,57,23.33a3.3,3.3,0,0,1,2.1-.7,3.7,3.7,0,0,1,1.92.48,3.16,3.16,0,0,1,1.22,1.32,4,4,0,0,1,.42,1.86V29c0,1.63,0,2.94.09,3.92Z"/><path class="cls-1" d="M73,22.81h3.54c-.06,2-.09,4.88-.09,8.59A6.7,6.7,0,0,1,75.52,35a5.17,5.17,0,0,1-2.31,2,7.93,7.93,0,0,1-3.21.63,9,9,0,0,1-3.13-.51,4.78,4.78,0,0,1-2.1-1.35L65.6,33a8.53,8.53,0,0,0,1.88.82,6.59,6.59,0,0,0,1.84.25c2.09,0,3.13-.88,3.13-2.65,0-.26,0-.45,0-.56s0-.17,0-.29a4.13,4.13,0,0,0,0-.48,4.21,4.21,0,0,1-6.18,2,4.32,4.32,0,0,1-1.5-1.79,5.75,5.75,0,0,1-.54-2.5,6.07,6.07,0,0,1,.54-2.57,4.42,4.42,0,0,1,1.49-1.85,3.6,3.6,0,0,1,2.16-.68q3.11,0,4,2.19Zm-1.66,6.73a1.81,1.81,0,0,0,.79-.62,1.74,1.74,0,0,0,.34-1.08,2.18,2.18,0,0,0-.52-1.63,2.12,2.12,0,0,0-1.53-.49,1.77,1.77,0,0,0-1.4.59,2.25,2.25,0,0,0-.52,1.53A1.77,1.77,0,0,0,69,29.21a1.94,1.94,0,0,0,1.39.53A2.28,2.28,0,0,0,71.29,29.54Z"/><path class="cls-1" d="M93.77,22.81l-.42,1.07q-1.75,4.66-3.67,9a8.59,8.59,0,0,1-2.87,3.55,7.75,7.75,0,0,1-4.72,1.28c-.24-1-.43-1.82-.58-2.39a15.32,15.32,0,0,0-.6-1.72,8.24,8.24,0,0,0,1.9.24,3.78,3.78,0,0,0,2.28-.61c-.44-1.31-1-2.73-1.56-4.24s-1.48-3.57-2.62-6.17h4.37c.14.61.35,1.33.6,2.14s.52,1.59.78,2.34c.07.23.19.58.36,1.06s.3.87.39,1.19l.48-1.46a53.84,53.84,0,0,0,1.64-5.27Z"/><path class="cls-1" d="M94.89,31.61A5.08,5.08,0,0,1,93.4,27.8a5,5,0,0,1,1.49-3.74,6.42,6.42,0,0,1,4.63-1.43,8.17,8.17,0,0,1,3.55.69,4.77,4.77,0,0,1,2.11,1.86,5.14,5.14,0,0,1,.68,2.62,4.93,4.93,0,0,1-1.58,3.82,6.84,6.84,0,0,1-4.76,1.43A6.42,6.42,0,0,1,94.89,31.61Zm6.49-2.26a2,2,0,0,0,.59-1.53,2,2,0,0,0-.59-1.48,2.44,2.44,0,0,0-1.79-.58,2.35,2.35,0,0,0-1.75.57,2,2,0,0,0-.55,1.49,2.1,2.1,0,0,0,.55,1.53,2.35,2.35,0,0,0,1.75.57A2.48,2.48,0,0,0,101.38,29.35Z"/><path class="cls-1" d="M118.35,27.82c0,1.81,0,3.49.13,5q-1.19-.06-1.86-.06t-1.86.06l-.54-2.71a4.1,4.1,0,0,1-1.32,2.18,3.25,3.25,0,0,1-2.1.71,3.7,3.7,0,0,1-1.92-.48,3.25,3.25,0,0,1-1.23-1.32,4.17,4.17,0,0,1-.41-1.86V26.73c0-1.63,0-2.94-.09-3.92h4.14c-.07,1.81-.11,3.59-.11,5.36a2,2,0,0,0,.4,1.29,1.24,1.24,0,0,0,1,.48,1.3,1.3,0,0,0,1-.51,2.44,2.44,0,0,0,.52-1.39v-.42c0-1,0-1.62,0-2,0-.85,0-1.79-.07-2.82h4.4C118.39,24.36,118.35,26,118.35,27.82Z"/><path class="cls-1" d="M124.23,25.54a3.58,3.58,0,0,1,3.85-2.79,6.83,6.83,0,0,1,1,.08L128.52,27a6.31,6.31,0,0,0-2.17-.5,1.88,1.88,0,0,0-1.55.62,2.65,2.65,0,0,0-.5,1.68v0l0,1.22c0,.87,0,1.84.08,2.91H120q.15-2.65.15-5c0-1.57,0-3.26-.15-5.05.82,0,1.44.05,1.87.05s1.07,0,1.86-.05Z"/><path class="cls-1" d="M10.3,46.26h-6A2.23,2.23,0,0,0,5,47.58a2.43,2.43,0,0,0,1.65.51,3.45,3.45,0,0,0,1.46-.31,2.7,2.7,0,0,0,1.08-.85,31.25,31.25,0,0,0,3.28,1.31,4.29,4.29,0,0,1-2.07,2,8.66,8.66,0,0,1-3.92.76,6.49,6.49,0,0,1-4.63-1.44A5.05,5.05,0,0,1,.37,45.8a5,5,0,0,1,1.49-3.74A6.48,6.48,0,0,1,6.5,40.63a7.85,7.85,0,0,1,3.27.62A5,5,0,0,1,11.89,43a4.55,4.55,0,0,1,.73,2.55,6.32,6.32,0,0,1,0,.72Zm-5.05-2.5a1.89,1.89,0,0,0-.83,1H8.77a2,2,0,0,0-.72-.95,2.14,2.14,0,0,0-1.29-.36A2.86,2.86,0,0,0,5.25,43.76Z"/><path class="cls-1" d="M21.52,45.71l3.87,5.16H20.82a16.58,16.58,0,0,0-1.29-2l-.42-.61-.25.35c-.09.12-.18.26-.27.4-.24.35-.47.68-.69,1s-.39.62-.52.88H12.81l3.87-5.16L13,40.81h4.56a15.74,15.74,0,0,0,1,1.6l.61.92.51-.79a17.65,17.65,0,0,0,1.07-1.73h4.55Z"/></g></g></svg>