<svg xmlns="http://www.w3.org/2000/svg" viewBox="0 0 129.62 69.27"><defs><style>.cls-1{fill:#fff;}.cls-2{fill:#7bec02;}</style></defs><g id="Layer_2" data-name="Layer 2"><g id="Layer_1-2" data-name="Layer 1"><path class="cls-1" d="M41.84,10.93V.56h7.41V2H43.53V5.08H48.7V6.52H43.53v4.41Z"/><path class="cls-1" d="M50.86,10.93V3h1.3l.14,1.28h.09a3.39,3.39,0,0,1,.36-.71A1.64,1.64,0,0,1,53.32,3a1.7,1.7,0,0,1,.87-.21,1.91,1.91,0,0,1,.43,0l.3.08V4.4h-.53a2.28,2.28,0,0,0-.86.15,1.55,1.55,0,0,0-.62.45,1.74,1.74,0,0,0-.36.72,3.49,3.49,0,0,0-.11,1v4.26Z"/><path class="cls-1" d="M59.24,11.11a4.35,4.35,0,0,1-2.05-.44A2.88,2.88,0,0,1,55.94,9.3,5.7,5.7,0,0,1,55.52,7a5.7,5.7,0,0,1,.42-2.36A2.83,2.83,0,0,1,57.2,3.24a4.41,4.41,0,0,1,2.07-.44,3.79,3.79,0,0,1,1.9.43,2.7,2.7,0,0,1,1.15,1.31,5.24,5.24,0,0,1,.4,2.2v.61H57.14a4.29,4.29,0,0,0,.25,1.41,1.6,1.6,0,0,0,.69.83,2.3,2.3,0,0,0,1.17.27A2.69,2.69,0,0,0,60,9.75a1.63,1.63,0,0,0,.59-.34A1.47,1.47,0,0,0,61,8.88a1.71,1.71,0,0,0,.13-.7h1.55a3,3,0,0,1-.25,1.26,2.4,2.4,0,0,1-.7.91,3.23,3.23,0,0,1-1.09.57A4.86,4.86,0,0,1,59.24,11.11ZM57.17,6.2h3.9a3.17,3.17,0,0,0-.13-1,1.75,1.75,0,0,0-.37-.66A1.44,1.44,0,0,0,60,4.18a2.58,2.58,0,0,0-.76-.11,2.39,2.39,0,0,0-1.08.22,1.58,1.58,0,0,0-.69.71A3.24,3.24,0,0,0,57.17,6.2Z"/><path class="cls-1" d="M67.62,11.11a4.35,4.35,0,0,1-2.05-.44A2.88,2.88,0,0,1,64.32,9.3,5.7,5.7,0,0,1,63.9,7a5.7,5.7,0,0,1,.42-2.36,2.86,2.86,0,0,1,1.25-1.36,4.48,4.48,0,0,1,2.08-.44,3.77,3.77,0,0,1,1.89.43A2.71,2.71,0,0,1,70.7,4.54a5.42,5.42,0,0,1,.39,2.2v.61H65.51a4.27,4.27,0,0,0,.26,1.41,1.56,1.56,0,0,0,.69.83,2.3,2.3,0,0,0,1.17.27,2.74,2.74,0,0,0,.79-.11A1.63,1.63,0,0,0,69,9.41a1.45,1.45,0,0,0,.37-.53,1.56,1.56,0,0,0,.14-.7h1.54a3.15,3.15,0,0,1-.24,1.26,2.4,2.4,0,0,1-.7.91,3.19,3.19,0,0,1-1.1.57A4.74,4.74,0,0,1,67.62,11.11ZM65.55,6.2h3.9a3.5,3.5,0,0,0-.13-1A1.75,1.75,0,0,0,69,4.55a1.48,1.48,0,0,0-.58-.37,2.47,2.47,0,0,0-.75-.11,2.34,2.34,0,0,0-1.08.22,1.58,1.58,0,0,0-.69.71A3.24,3.24,0,0,0,65.55,6.2Z"/><path class="cls-1" d="M79.85,11.11a7.21,7.21,0,0,1-1.63-.17,4.37,4.37,0,0,1-1.4-.56,2.87,2.87,0,0,1-.95-1A2.83,2.83,0,0,1,75.52,8c0-.06,0-.12,0-.18a.71.71,0,0,0,0-.14h1.69a.82.82,0,0,1,0,.14v.15a1.43,1.43,0,0,0,.33,1,2,2,0,0,0,.93.59,4.39,4.39,0,0,0,1.37.2,5.32,5.32,0,0,0,.81-.06,3.48,3.48,0,0,0,.72-.16A2.18,2.18,0,0,0,82,9.17a1.27,1.27,0,0,0,.38-.42,1.09,1.09,0,0,0,.13-.55,1.18,1.18,0,0,0-.28-.81,2.18,2.18,0,0,0-.75-.53,8,8,0,0,0-1.08-.37l-1.23-.34a12.57,12.57,0,0,1-1.23-.39,4.68,4.68,0,0,1-1.07-.55,2.48,2.48,0,0,1-.76-.82,2.37,2.37,0,0,1-.28-1.2A2.52,2.52,0,0,1,76.07,2a2.41,2.41,0,0,1,.83-.88A4,4,0,0,1,78.2.56,7.36,7.36,0,0,1,79.91.38a6.92,6.92,0,0,1,1.54.17,4.06,4.06,0,0,1,1.27.54,2.58,2.58,0,0,1,.85.92,2.67,2.67,0,0,1,.31,1.33v.18H82.21V3.33a1.21,1.21,0,0,0-.29-.82,1.84,1.84,0,0,0-.8-.51,3.64,3.64,0,0,0-1.2-.19A5.07,5.07,0,0,0,78.58,2a2.09,2.09,0,0,0-.83.44,1,1,0,0,0-.28.67,1,1,0,0,0,.29.72,2.36,2.36,0,0,0,.76.48,8.07,8.07,0,0,0,1.08.35L80.82,5a12.62,12.62,0,0,1,1.23.4,4.92,4.92,0,0,1,1.07.56,2.48,2.48,0,0,1,.76.82A2.27,2.27,0,0,1,84.17,8a2.82,2.82,0,0,1-.56,1.83,3.24,3.24,0,0,1-1.53,1A7.28,7.28,0,0,1,79.85,11.11Z"/><path class="cls-1" d="M85.93,1.6V0H87.5V1.6Zm0,9.33V3H87.5v8Z"/><path class="cls-1" d="M91.51,11.11a1.84,1.84,0,0,1-1.07-.26,1.38,1.38,0,0,1-.54-.68,2.38,2.38,0,0,1-.16-.89v-5h-1V3h1L90.05.76h1.26V3h1.44v1.3H91.31V9.1a.82.82,0,0,0,.15.53.62.62,0,0,0,.5.18h.79v1.06a2.74,2.74,0,0,1-.37.11l-.45.1Z"/><path class="cls-1" d="M97.43,11.11a4.38,4.38,0,0,1-2.05-.44A2.86,2.86,0,0,1,94.14,9.3,5.53,5.53,0,0,1,93.71,7a5.53,5.53,0,0,1,.43-2.36,2.86,2.86,0,0,1,1.25-1.36,4.46,4.46,0,0,1,2.07-.44,3.79,3.79,0,0,1,1.9.43,2.71,2.71,0,0,1,1.16,1.31,5.42,5.42,0,0,1,.39,2.2v.61H95.33a4.27,4.27,0,0,0,.26,1.41,1.56,1.56,0,0,0,.69.83,2.25,2.25,0,0,0,1.17.27,2.67,2.67,0,0,0,.78-.11,1.55,1.55,0,0,0,.59-.34,1.47,1.47,0,0,0,.38-.53,1.71,1.71,0,0,0,.14-.7h1.54a3.15,3.15,0,0,1-.24,1.26,2.42,2.42,0,0,1-.71.91,3.14,3.14,0,0,1-1.09.57A4.76,4.76,0,0,1,97.43,11.11ZM95.36,6.2h3.9a3.17,3.17,0,0,0-.13-1,1.63,1.63,0,0,0-.37-.66,1.44,1.44,0,0,0-.57-.37,2.49,2.49,0,0,0-.76-.11,2.39,2.39,0,0,0-1.08.22,1.58,1.58,0,0,0-.69.71A3.24,3.24,0,0,0,95.36,6.2Z"/><path class="cls-1" d="M34.31,29.08V18.7H36V29.08Z"/><path class="cls-1" d="M38.24,29.08v-8h1.3l.13,1.14h.11a2.8,2.8,0,0,1,.68-.73,3,3,0,0,1,.87-.44,3.51,3.51,0,0,1,1.05-.15,3.1,3.1,0,0,1,1.33.27,1.94,1.94,0,0,1,.9.85,3.24,3.24,0,0,1,.33,1.59v5.43H43.36V23.89a2.14,2.14,0,0,0-.11-.76,1.1,1.1,0,0,0-.32-.48,1.33,1.33,0,0,0-.5-.26,2.62,2.62,0,0,0-.64-.07,1.92,1.92,0,0,0-1.71,1,2.16,2.16,0,0,0-.27,1.1v4.66Z"/><path class="cls-1" d="M49.84,29.26a5.38,5.38,0,0,1-1.47-.18,3.26,3.26,0,0,1-1.06-.5,2.05,2.05,0,0,1-.64-.77,2.12,2.12,0,0,1-.22-1,.53.53,0,0,1,0-.13v-.11H48v.17a1.09,1.09,0,0,0,.26.75,1.46,1.46,0,0,0,.69.39,3.47,3.47,0,0,0,.94.11,2.84,2.84,0,0,0,.84-.11,1.58,1.58,0,0,0,.63-.34.72.72,0,0,0,.25-.57.82.82,0,0,0-.31-.7,2.56,2.56,0,0,0-.83-.39c-.35-.09-.71-.2-1.08-.31s-.66-.18-1-.29a3.77,3.77,0,0,1-.88-.42,1.9,1.9,0,0,1-.64-.65,1.85,1.85,0,0,1-.24-1,2,2,0,0,1,.24-1,2.16,2.16,0,0,1,.67-.71,3.34,3.34,0,0,1,1-.44A5.41,5.41,0,0,1,49.91,21a4.87,4.87,0,0,1,1.32.16,3,3,0,0,1,1,.44,1.91,1.91,0,0,1,.61.69,1.71,1.71,0,0,1,.22.85c0,.06,0,.13,0,.19a.85.85,0,0,0,0,.13H51.47v-.13a.94.94,0,0,0-.17-.55,1.13,1.13,0,0,0-.52-.39,2.46,2.46,0,0,0-.94-.15,2.91,2.91,0,0,0-.7.07,1.54,1.54,0,0,0-.5.18.8.8,0,0,0-.29.29.7.7,0,0,0-.1.38.64.64,0,0,0,.25.54,2.07,2.07,0,0,0,.65.31l.88.28,1.11.31a6.3,6.3,0,0,1,1,.4,2.09,2.09,0,0,1,.77.67,1.91,1.91,0,0,1,.3,1.13A2.43,2.43,0,0,1,53,27.9a2.07,2.07,0,0,1-.72.78,3.49,3.49,0,0,1-1.08.43A5.67,5.67,0,0,1,49.84,29.26Z"/><path class="cls-1" d="M54.82,31.69V21.12h1.29l.14,1.09h.1a2.59,2.59,0,0,1,1-.95,3.37,3.37,0,0,1,3.1.12,2.77,2.77,0,0,1,1.08,1.36A6.23,6.23,0,0,1,62,25.13a6.22,6.22,0,0,1-.38,2.34,2.86,2.86,0,0,1-1.08,1.35,3,3,0,0,1-1.61.44,3.81,3.81,0,0,1-1-.12,2.51,2.51,0,0,1-.81-.38,2.37,2.37,0,0,1-.61-.65H56.4v3.58Zm3.53-3.79a2.2,2.2,0,0,0,1.15-.28,1.67,1.67,0,0,0,.64-.87,4.58,4.58,0,0,0,.2-1.5V25a4.64,4.64,0,0,0-.21-1.54,1.63,1.63,0,0,0-.64-.87,2.07,2.07,0,0,0-1.11-.27,2,2,0,0,0-1.14.31,1.8,1.8,0,0,0-.64.92A4.77,4.77,0,0,0,56.4,25v.22a4.85,4.85,0,0,0,.13,1.22,2.35,2.35,0,0,0,.4.84,1.45,1.45,0,0,0,.62.48A2,2,0,0,0,58.35,27.9Z"/><path class="cls-1" d="M66.88,29.26a4.23,4.23,0,0,1-2-.45,2.84,2.84,0,0,1-1.25-1.37,5.63,5.63,0,0,1-.42-2.34,5.65,5.65,0,0,1,.42-2.35,2.86,2.86,0,0,1,1.25-1.36,4.35,4.35,0,0,1,2.08-.45,3.88,3.88,0,0,1,1.89.43A2.76,2.76,0,0,1,70,22.68a5.47,5.47,0,0,1,.39,2.21v.6H64.77A4.29,4.29,0,0,0,65,26.91a1.63,1.63,0,0,0,.69.83,2.3,2.3,0,0,0,1.17.26,2.43,2.43,0,0,0,.79-.11,1.77,1.77,0,0,0,.59-.33,1.64,1.64,0,0,0,.37-.53,1.61,1.61,0,0,0,.14-.71h1.54a3.08,3.08,0,0,1-.24,1.26,2.32,2.32,0,0,1-.7.91,3.19,3.19,0,0,1-1.1.57A4.73,4.73,0,0,1,66.88,29.26ZM64.8,24.34h3.91a3.5,3.5,0,0,0-.13-1,1.79,1.79,0,0,0-.37-.65,1.29,1.29,0,0,0-.58-.37,2.19,2.19,0,0,0-.75-.12,2.33,2.33,0,0,0-1.08.23,1.51,1.51,0,0,0-.69.7A3.29,3.29,0,0,0,64.8,24.34Z"/><path class="cls-1" d="M75.12,29.26a4,4,0,0,1-2-.45,2.75,2.75,0,0,1-1.2-1.37,5.82,5.82,0,0,1-.4-2.34,5.64,5.64,0,0,1,.41-2.34,2.78,2.78,0,0,1,1.21-1.36,3.93,3.93,0,0,1,2-.46,4.29,4.29,0,0,1,1.42.21,2.57,2.57,0,0,1,1,.6,2.55,2.55,0,0,1,.63,1,4.26,4.26,0,0,1,.2,1.35H76.82A2.64,2.64,0,0,0,76.64,23a1.23,1.23,0,0,0-.56-.61,2.13,2.13,0,0,0-1-.2,1.92,1.92,0,0,0-1.07.29,1.81,1.81,0,0,0-.67.89A4.53,4.53,0,0,0,73.13,25v.26a4.76,4.76,0,0,0,.22,1.53,1.78,1.78,0,0,0,.67.91,2.1,2.1,0,0,0,1.14.29,1.9,1.9,0,0,0,1-.22,1.38,1.38,0,0,0,.56-.63,2.53,2.53,0,0,0,.18-1h1.53a4,4,0,0,1-.2,1.29,2.68,2.68,0,0,1-.62,1,2.73,2.73,0,0,1-1,.64A4.16,4.16,0,0,1,75.12,29.26Z"/><path class="cls-1" d="M82,29.26A1.86,1.86,0,0,1,80.91,29a1.45,1.45,0,0,1-.54-.68,2.33,2.33,0,0,1-.16-.88v-5h-1v-1.3h1l.29-2.22h1.25v2.22h1.44v1.3H81.78v4.83a.82.82,0,0,0,.15.53.64.64,0,0,0,.5.18h.79V29a3.46,3.46,0,0,1-.37.11l-.45.09A2.12,2.12,0,0,1,82,29.26Z"/><path class="cls-1" d="M84.61,19.75V18.14h1.57v1.61Zm0,9.33v-8h1.57v8Z"/><path class="cls-1" d="M91.6,29.26a4.47,4.47,0,0,1-2.1-.45,2.8,2.8,0,0,1-1.28-1.37,5.47,5.47,0,0,1-.43-2.34,5.48,5.48,0,0,1,.43-2.35,2.82,2.82,0,0,1,1.28-1.36,5.15,5.15,0,0,1,4.21,0A2.87,2.87,0,0,1,95,22.75a5.48,5.48,0,0,1,.43,2.35A5.47,5.47,0,0,1,95,27.44a2.85,2.85,0,0,1-1.28,1.37A4.45,4.45,0,0,1,91.6,29.26Zm0-1.3a2.35,2.35,0,0,0,1.24-.3,1.67,1.67,0,0,0,.71-.9,4.14,4.14,0,0,0,.24-1.52V25a4.14,4.14,0,0,0-.24-1.52,1.67,1.67,0,0,0-.71-.9,2.35,2.35,0,0,0-1.24-.3,2.29,2.29,0,0,0-1.23.3,1.73,1.73,0,0,0-.72.9A4.38,4.38,0,0,0,89.42,25v.28a4.38,4.38,0,0,0,.23,1.52,1.73,1.73,0,0,0,.72.9A2.29,2.29,0,0,0,91.6,28Z"/><path class="cls-1" d="M97,29.08v-8h1.31l.13,1.14h.11a2.8,2.8,0,0,1,.68-.73,3,3,0,0,1,.87-.44,3.41,3.41,0,0,1,1-.15,3.1,3.1,0,0,1,1.33.27,1.94,1.94,0,0,1,.9.85,3.37,3.37,0,0,1,.32,1.59v5.43h-1.57V23.89a2.39,2.39,0,0,0-.11-.76,1.21,1.21,0,0,0-.33-.48,1.26,1.26,0,0,0-.5-.26,2.48,2.48,0,0,0-.63-.07,1.92,1.92,0,0,0-1.71,1,2.16,2.16,0,0,0-.27,1.1v4.66Z"/><path class="cls-1" d="M106,29.08V27.32h1.67v1.76Z"/><path class="cls-1" d="M18.93,53.55V43.18h7.41v1.45H20.62V47.7h5.17v1.44H20.62v4.41Z"/><path class="cls-1" d="M29.54,53.74a4,4,0,0,1-.81-.09,2.74,2.74,0,0,1-.83-.34,1.85,1.85,0,0,1-.63-.67A2.31,2.31,0,0,1,27,51.51a2.26,2.26,0,0,1,.38-1.34,2.47,2.47,0,0,1,1.06-.83,5.55,5.55,0,0,1,1.62-.43,16.5,16.5,0,0,1,2.07-.12V48a1.67,1.67,0,0,0-.13-.69.93.93,0,0,0-.47-.47,2.28,2.28,0,0,0-1-.17,2.54,2.54,0,0,0-1,.16,1,1,0,0,0-.5.4.89.89,0,0,0-.15.5V48H27.44a.76.76,0,0,1,0-.15v-.18a1.84,1.84,0,0,1,.4-1.21A2.48,2.48,0,0,1,29,45.68a5.11,5.11,0,0,1,1.68-.26,4.51,4.51,0,0,1,1.72.29,2.23,2.23,0,0,1,1,.84,2.34,2.34,0,0,1,.35,1.32v4a.48.48,0,0,0,.15.4.45.45,0,0,0,.34.13h.54v1.05l-.45.16a2.51,2.51,0,0,1-.64.07,1.6,1.6,0,0,1-.69-.14,1.18,1.18,0,0,1-.45-.41,1.56,1.56,0,0,1-.23-.6h-.1a2.92,2.92,0,0,1-1.54,1A3.84,3.84,0,0,1,29.54,53.74Zm.44-1.3a2.49,2.49,0,0,0,.87-.15,1.84,1.84,0,0,0,.69-.41,1.81,1.81,0,0,0,.45-.63,2,2,0,0,0,.17-.81v-.53a12.19,12.19,0,0,0-1.83.12,2.73,2.73,0,0,0-1.23.45,1,1,0,0,0-.43.9,1.06,1.06,0,0,0,.15.58.89.89,0,0,0,.45.35A1.73,1.73,0,0,0,30,52.44Z"/><path class="cls-1" d="M38.78,53.74a5.09,5.09,0,0,1-1.47-.19,3.2,3.2,0,0,1-1.05-.49,2.16,2.16,0,0,1-.65-.77,2.32,2.32,0,0,1-.22-1s0-.09,0-.13a.45.45,0,0,0,0-.11H37v.17a1,1,0,0,0,.25.74,1.39,1.39,0,0,0,.69.4,4,4,0,0,0,1,.11,3.22,3.22,0,0,0,.84-.11,1.73,1.73,0,0,0,.63-.34.74.74,0,0,0,.25-.58.82.82,0,0,0-.32-.69,2.56,2.56,0,0,0-.83-.39l-1.07-.31-1-.29a3.85,3.85,0,0,1-.89-.42,2.06,2.06,0,0,1-.63-.65,1.85,1.85,0,0,1-.24-1,2,2,0,0,1,.24-1,2.15,2.15,0,0,1,.67-.71,3.33,3.33,0,0,1,1-.43,5.34,5.34,0,0,1,1.31-.16,5.16,5.16,0,0,1,1.31.16,3.28,3.28,0,0,1,1,.45,2,2,0,0,1,.61.69,1.78,1.78,0,0,1,.21.85,1.21,1.21,0,0,1,0,.19v.13H40.41v-.14a.93.93,0,0,0-.16-.54,1.19,1.19,0,0,0-.52-.39,2.5,2.5,0,0,0-.95-.16,3.49,3.49,0,0,0-.69.07,1.69,1.69,0,0,0-.5.19.93.93,0,0,0-.3.29.8.8,0,0,0-.1.38.63.63,0,0,0,.25.53,2,2,0,0,0,.66.32l.88.28,1.1.31a6.41,6.41,0,0,1,1,.4,2.07,2.07,0,0,1,.77.67,2,2,0,0,1,.29,1.13,2.45,2.45,0,0,1-.25,1.14,2.13,2.13,0,0,1-.72.77,3.27,3.27,0,0,1-1.08.44A5.82,5.82,0,0,1,38.78,53.74Z"/><path class="cls-1" d="M45.75,53.74a1.86,1.86,0,0,1-1.07-.27,1.49,1.49,0,0,1-.54-.68,2.37,2.37,0,0,1-.16-.88v-5H43V45.6h1l.29-2.22h1.25V45.6H47v1.3H45.55v4.82a.75.75,0,0,0,.16.53.57.57,0,0,0,.49.19H47v1.05l-.37.12-.45.09A3.29,3.29,0,0,1,45.75,53.74Z"/><path class="cls-1" d="M48.56,55.88V55.2a1,1,0,0,0,.54-.29,1.4,1.4,0,0,0,.3-.58,2.73,2.73,0,0,0,.1-.78h-.8V51.8h1.68v1.59a3,3,0,0,1-.27,1.39,1.75,1.75,0,0,1-.68.76A2.59,2.59,0,0,1,48.56,55.88Z"/><path class="cls-1" d="M56.05,53.55V43.18h5.17a3.75,3.75,0,0,1,1.83.41,2.64,2.64,0,0,1,1.09,1.13,3.61,3.61,0,0,1,.37,1.7,3.71,3.71,0,0,1-.39,1.73A2.77,2.77,0,0,1,63,49.31a3.79,3.79,0,0,1-1.82.4H57.74v3.84Zm1.69-5.29h3.34a1.64,1.64,0,0,0,1.26-.48,1.86,1.86,0,0,0,.47-1.35,2.18,2.18,0,0,0-.2-1,1.39,1.39,0,0,0-.58-.62,1.91,1.91,0,0,0-1-.21H57.74Z"/><path class="cls-1" d="M69.07,53.74a4.23,4.23,0,0,1-2-.45,2.84,2.84,0,0,1-1.25-1.37,6.76,6.76,0,0,1,0-4.69A2.82,2.82,0,0,1,67,45.87a4.35,4.35,0,0,1,2.08-.45,3.77,3.77,0,0,1,1.89.43,2.71,2.71,0,0,1,1.16,1.31,5.43,5.43,0,0,1,.39,2.21V50H67a4,4,0,0,0,.25,1.41,1.62,1.62,0,0,0,.69.84,2.41,2.41,0,0,0,1.17.26,2.74,2.74,0,0,0,.79-.11,1.63,1.63,0,0,0,.59-.34,1.66,1.66,0,0,0,.38-.52A1.8,1.8,0,0,0,71,50.8h1.54a3.11,3.11,0,0,1-.24,1.26,2.32,2.32,0,0,1-.7.91,3.19,3.19,0,0,1-1.1.57A4.73,4.73,0,0,1,69.07,53.74ZM67,48.82h3.9a3.5,3.5,0,0,0-.13-1,1.75,1.75,0,0,0-.37-.66,1.48,1.48,0,0,0-.58-.37,2.47,2.47,0,0,0-.75-.11,2.33,2.33,0,0,0-1.08.23,1.51,1.51,0,0,0-.69.7A3.3,3.3,0,0,0,67,48.82Z"/><path class="cls-1" d="M74.15,53.55V45.6h1.3l.13,1.29h.09a3,3,0,0,1,.36-.71,1.76,1.76,0,0,1,.57-.55,1.7,1.7,0,0,1,.87-.21,1.85,1.85,0,0,1,.43,0l.3.08V47h-.53a2.31,2.31,0,0,0-.86.15,1.63,1.63,0,0,0-.62.45,2,2,0,0,0-.36.72,3.93,3.93,0,0,0-.11.95v4.26Z"/><path class="cls-1" d="M79.38,53.55V45.6h1.3l.13,1.13h.11a2.77,2.77,0,0,1,.63-.72,2.49,2.49,0,0,1,.8-.44,3,3,0,0,1,1-.15,2.67,2.67,0,0,1,1.29.3,1.9,1.9,0,0,1,.84,1h.11a2.89,2.89,0,0,1,.63-.71,2.47,2.47,0,0,1,.83-.45,3.12,3.12,0,0,1,1-.15,2.91,2.91,0,0,1,1.25.25,1.86,1.86,0,0,1,.86.83,3.28,3.28,0,0,1,.32,1.55v5.5H88.86V48.34a2.28,2.28,0,0,0-.11-.75,1.2,1.2,0,0,0-.28-.47,1.07,1.07,0,0,0-.44-.25,2,2,0,0,0-.56-.07,1.56,1.56,0,0,0-.9.26,2,2,0,0,0-.63.73,2.42,2.42,0,0,0-.24,1.11v4.65H84.13V48.34a2.28,2.28,0,0,0-.11-.75,1.21,1.21,0,0,0-.29-.47,1,1,0,0,0-.44-.25,1.9,1.9,0,0,0-.54-.07,1.61,1.61,0,0,0-.91.26,1.92,1.92,0,0,0-.65.73A2.42,2.42,0,0,0,81,48.9v4.65Z"/><path class="cls-1" d="M94.39,53.74a4,4,0,0,1-.81-.09,2.74,2.74,0,0,1-.83-.34,1.85,1.85,0,0,1-.63-.67,2.31,2.31,0,0,1-.24-1.13,2.26,2.26,0,0,1,.38-1.34,2.47,2.47,0,0,1,1.06-.83,5.46,5.46,0,0,1,1.62-.43A16.5,16.5,0,0,1,97,48.79V48a1.67,1.67,0,0,0-.13-.69.93.93,0,0,0-.47-.47,2.28,2.28,0,0,0-1-.17,2.54,2.54,0,0,0-1,.16,1,1,0,0,0-.5.4.89.89,0,0,0-.15.5V48H92.29a.76.76,0,0,1,0-.15v-.18a1.84,1.84,0,0,1,.4-1.21,2.48,2.48,0,0,1,1.12-.74,5.11,5.11,0,0,1,1.68-.26,4.51,4.51,0,0,1,1.72.29,2.23,2.23,0,0,1,1,.84,2.34,2.34,0,0,1,.35,1.32v4a.51.51,0,0,0,.14.4.48.48,0,0,0,.34.13h.55v1.05l-.45.16a2.51,2.51,0,0,1-.64.07,1.6,1.6,0,0,1-.69-.14,1.18,1.18,0,0,1-.45-.41,1.58,1.58,0,0,1-.24-.6h-.09a2.92,2.92,0,0,1-1.54,1A3.84,3.84,0,0,1,94.39,53.74Zm.44-1.3a2.49,2.49,0,0,0,.87-.15,1.84,1.84,0,0,0,.69-.41,1.81,1.81,0,0,0,.45-.63,2,2,0,0,0,.17-.81v-.53a12.19,12.19,0,0,0-1.83.12,2.73,2.73,0,0,0-1.23.45,1,1,0,0,0-.43.9,1.06,1.06,0,0,0,.15.58.89.89,0,0,0,.45.35A1.73,1.73,0,0,0,94.83,52.44Z"/><path class="cls-1" d="M100.7,53.55V45.6H102l.13,1.13h.11a2.76,2.76,0,0,1,.68-.72,3,3,0,0,1,.87-.44,3.51,3.51,0,0,1,1-.15,3.25,3.25,0,0,1,1.33.26,2,2,0,0,1,.9.86,3.25,3.25,0,0,1,.32,1.59v5.42h-1.57V48.37a2.35,2.35,0,0,0-.11-.76,1.12,1.12,0,0,0-.33-.48,1.2,1.2,0,0,0-.5-.26,2.48,2.48,0,0,0-.63-.07,1.88,1.88,0,0,0-1,.26,2,2,0,0,0-.72.73,2.2,2.2,0,0,0-.27,1.11v4.65Z"/><path class="cls-1" d="M112.66,53.74a4.23,4.23,0,0,1-2-.45,2.84,2.84,0,0,1-1.25-1.37,6.76,6.76,0,0,1,0-4.69,2.79,2.79,0,0,1,1.26-1.36,4.29,4.29,0,0,1,2.07-.45,3.81,3.81,0,0,1,1.9.43,2.75,2.75,0,0,1,1.15,1.31,5.43,5.43,0,0,1,.39,2.21V50h-5.57a4.19,4.19,0,0,0,.25,1.41,1.62,1.62,0,0,0,.69.84,2.41,2.41,0,0,0,1.17.26,2.74,2.74,0,0,0,.79-.11,1.63,1.63,0,0,0,.59-.34,1.52,1.52,0,0,0,.38-.52,1.8,1.8,0,0,0,.13-.71h1.54a3.11,3.11,0,0,1-.24,1.26,2.32,2.32,0,0,1-.7.91,3.19,3.19,0,0,1-1.1.57A4.73,4.73,0,0,1,112.66,53.74Zm-2.07-4.92h3.9a3.5,3.5,0,0,0-.13-1,1.75,1.75,0,0,0-.37-.66,1.48,1.48,0,0,0-.58-.37,2.47,2.47,0,0,0-.75-.11,2.33,2.33,0,0,0-1.08.23,1.51,1.51,0,0,0-.69.7A3.3,3.3,0,0,0,110.59,48.82Z"/><path class="cls-1" d="M117.74,53.55V45.6H119l.13,1.13h.11A2.76,2.76,0,0,1,120,46a3,3,0,0,1,.87-.44,3.51,3.51,0,0,1,1-.15,3.25,3.25,0,0,1,1.33.26,2,2,0,0,1,.9.86,3.25,3.25,0,0,1,.32,1.59v5.42h-1.57V48.37a2.35,2.35,0,0,0-.11-.76,1.12,1.12,0,0,0-.33-.48,1.22,1.22,0,0,0-.49-.26,2.62,2.62,0,0,0-.64-.07,1.88,1.88,0,0,0-1,.26,2,2,0,0,0-.72.73,2.2,2.2,0,0,0-.27,1.11v4.65Z"/><path class="cls-1" d="M128.38,53.74a1.81,1.81,0,0,1-1.06-.27,1.45,1.45,0,0,1-.55-.68,2.59,2.59,0,0,1-.16-.88v-5h-1V45.6h1l.29-2.22h1.25V45.6h1.44v1.3h-1.44v4.82a.8.8,0,0,0,.16.53.58.58,0,0,0,.5.19h.78v1.05l-.37.12-.45.09A3.29,3.29,0,0,1,128.38,53.74Z"/><path class="cls-1" d="M44.34,69.27a7.36,7.36,0,0,1-1.64-.18,4.18,4.18,0,0,1-1.39-.56A2.71,2.71,0,0,1,40,66.12.91.91,0,0,1,40,66c0-.06,0-.1,0-.14h1.69a.72.72,0,0,1,0,.13v.15a1.45,1.45,0,0,0,.33,1,2,2,0,0,0,.93.58,4.12,4.12,0,0,0,1.37.2,7,7,0,0,0,.81,0,3.62,3.62,0,0,0,.72-.17,1.91,1.91,0,0,0,.57-.29,1.24,1.24,0,0,0,.38-.41,1.13,1.13,0,0,0,.13-.56,1.15,1.15,0,0,0-.28-.8,2.15,2.15,0,0,0-.75-.53,8,8,0,0,0-1.08-.38l-1.23-.33a12.57,12.57,0,0,1-1.23-.39,5.49,5.49,0,0,1-1.08-.56,2.53,2.53,0,0,1-.75-.81,2.37,2.37,0,0,1-.28-1.2,2.49,2.49,0,0,1,.29-1.21,2.43,2.43,0,0,1,.83-.89,4.17,4.17,0,0,1,1.3-.54,7.36,7.36,0,0,1,1.71-.18,6.37,6.37,0,0,1,1.54.18,3.83,3.83,0,0,1,1.27.53,2.53,2.53,0,0,1,.85.93,2.64,2.64,0,0,1,.31,1.33v.18H46.7v-.2a1.24,1.24,0,0,0-.29-.82,1.84,1.84,0,0,0-.8-.51,3.65,3.65,0,0,0-1.2-.18,4.68,4.68,0,0,0-1.34.16,1.81,1.81,0,0,0-.83.44.93.93,0,0,0-.28.67,1,1,0,0,0,.29.72,2.53,2.53,0,0,0,.76.47,9.75,9.75,0,0,0,1.08.36l1.22.33c.42.12.83.25,1.23.4a5.16,5.16,0,0,1,1.07.56,2.51,2.51,0,0,1,.76.83,2.22,2.22,0,0,1,.29,1.2,2.86,2.86,0,0,1-.56,1.82,3.1,3.1,0,0,1-1.53,1A7.27,7.27,0,0,1,44.34,69.27Z"/><path class="cls-1" d="M53.8,69.27a4.45,4.45,0,0,1-2.09-.45,2.87,2.87,0,0,1-1.29-1.37,6.61,6.61,0,0,1,0-4.69,2.85,2.85,0,0,1,1.29-1.36,5.15,5.15,0,0,1,4.21,0,2.87,2.87,0,0,1,1.28,1.36,6.61,6.61,0,0,1,0,4.69,2.9,2.9,0,0,1-1.28,1.37A4.5,4.5,0,0,1,53.8,69.27Zm0-1.3a2.3,2.3,0,0,0,1.24-.3,1.73,1.73,0,0,0,.72-.9A4.14,4.14,0,0,0,56,65.25V65a4.14,4.14,0,0,0-.24-1.52,1.73,1.73,0,0,0-.72-.9,2.3,2.3,0,0,0-1.24-.3,2.27,2.27,0,0,0-1.22.3,1.73,1.73,0,0,0-.72.9A4.16,4.16,0,0,0,51.63,65v.28a4.16,4.16,0,0,0,.23,1.52,1.73,1.73,0,0,0,.72.9A2.27,2.27,0,0,0,53.8,68Z"/><path class="cls-1" d="M59.23,69.09V58.15H60.8V69.09Z"/><path class="cls-1" d="M65.32,69.27a2.81,2.81,0,0,1-1.86-.61,2.67,2.67,0,0,1-.71-2.1V61.13h1.58v5.19a2.14,2.14,0,0,0,.11.76,1.1,1.1,0,0,0,.32.48,1.33,1.33,0,0,0,.5.26,2.56,2.56,0,0,0,.64.07,2,2,0,0,0,1-.26,2,2,0,0,0,.72-.74,2.21,2.21,0,0,0,.27-1.1V61.13h1.57v8H68.17L68,68h-.11a2.51,2.51,0,0,1-.68.73,3,3,0,0,1-.87.44A3.41,3.41,0,0,1,65.32,69.27Z"/><path class="cls-1" d="M73.46,69.27A1.84,1.84,0,0,1,72.39,69a1.33,1.33,0,0,1-.54-.68,2.33,2.33,0,0,1-.16-.88v-5h-1v-1.3h1L72,58.91h1.25v2.22H74.7v1.3H73.26v4.83a.82.82,0,0,0,.15.53.62.62,0,0,0,.5.18h.79V69c-.1,0-.23.07-.37.11l-.45.09A2.12,2.12,0,0,1,73.46,69.27Z"/><path class="cls-1" d="M76.09,59.76V58.15h1.57v1.61Zm0,9.33v-8h1.57v8Z"/><path class="cls-1" d="M83.08,69.27a4.47,4.47,0,0,1-2.1-.45,2.8,2.8,0,0,1-1.28-1.37,6.47,6.47,0,0,1,0-4.69A2.78,2.78,0,0,1,81,61.4a5.15,5.15,0,0,1,4.21,0,2.83,2.83,0,0,1,1.28,1.36,6.61,6.61,0,0,1,0,4.69,2.85,2.85,0,0,1-1.28,1.37A4.45,4.45,0,0,1,83.08,69.27Zm0-1.3a2.29,2.29,0,0,0,1.23-.3,1.64,1.64,0,0,0,.72-.9,4.14,4.14,0,0,0,.24-1.52V65A4.14,4.14,0,0,0,85,63.45a1.64,1.64,0,0,0-.72-.9,2.67,2.67,0,0,0-2.46,0,1.73,1.73,0,0,0-.72.9A4.38,4.38,0,0,0,80.9,65v.28a4.38,4.38,0,0,0,.23,1.52,1.73,1.73,0,0,0,.72.9A2.29,2.29,0,0,0,83.08,68Z"/><path class="cls-1" d="M88.5,69.09v-8h1.3l.14,1.14h.11a2.77,2.77,0,0,1,.67-.73,3.24,3.24,0,0,1,.87-.44A3.53,3.53,0,0,1,92.65,61a3.13,3.13,0,0,1,1.33.27,1.94,1.94,0,0,1,.9.85,3.37,3.37,0,0,1,.32,1.59v5.43H93.63V63.9a2.13,2.13,0,0,0-.12-.76,1.1,1.1,0,0,0-.32-.48,1.26,1.26,0,0,0-.5-.26,2.48,2.48,0,0,0-.63-.07,1.92,1.92,0,0,0-1,.26,2,2,0,0,0-.72.74,2.16,2.16,0,0,0-.27,1.1v4.66Z"/><path class="cls-1" d="M100.1,69.27a5.48,5.48,0,0,1-1.47-.18,3.36,3.36,0,0,1-1.06-.5,2.15,2.15,0,0,1-.64-.77,2.25,2.25,0,0,1-.22-1s0-.09,0-.13a.45.45,0,0,0,0-.11h1.56v.17a1.08,1.08,0,0,0,.25.75,1.46,1.46,0,0,0,.69.39,3.54,3.54,0,0,0,1,.11,2.73,2.73,0,0,0,.83-.11,1.7,1.7,0,0,0,.64-.34.73.73,0,0,0,.25-.58.82.82,0,0,0-.32-.69,2.56,2.56,0,0,0-.83-.39l-1.07-.31-1-.29a3.85,3.85,0,0,1-.89-.42,2,2,0,0,1-.63-.65,1.85,1.85,0,0,1-.24-1,2,2,0,0,1,.24-1,2,2,0,0,1,.67-.71,3.11,3.11,0,0,1,1-.44,5.36,5.36,0,0,1,1.31-.15,4.75,4.75,0,0,1,1.31.16,3,3,0,0,1,1,.44,2,2,0,0,1,.61.69,1.81,1.81,0,0,1,.21.85,1.21,1.21,0,0,1,0,.19v.13h-1.55V63.3a.94.94,0,0,0-.16-.55,1.19,1.19,0,0,0-.52-.39,2.52,2.52,0,0,0-1-.15,3.73,3.73,0,0,0-.7.06,1.73,1.73,0,0,0-.49.19.84.84,0,0,0-.3.29.8.8,0,0,0-.1.38.67.67,0,0,0,.25.54,2.25,2.25,0,0,0,.66.31l.88.28,1.1.31a6.41,6.41,0,0,1,1,.4,2.27,2.27,0,0,1,.77.67,2,2,0,0,1,.29,1.13,2.43,2.43,0,0,1-.25,1.14,2.25,2.25,0,0,1-.72.78,3.49,3.49,0,0,1-1.08.43A5.82,5.82,0,0,1,100.1,69.27Z"/><path class="cls-1" d="M105.41,69.09V67.33h1.68v1.76Z"/><g id="Interface_Check_All" data-name="Interface / Check_All"><g id="Vector"><path class="cls-2" d="M30.29,10.28a.51.51,0,0,1-.37-.15L26.54,6.74A.52.52,0,0,1,27.28,6l3,3,6.4-6.4a.53.53,0,0,1,.75,0,.54.54,0,0,1,0,.75l-6.77,6.77A.54.54,0,0,1,30.29,10.28Zm-4,0a.53.53,0,0,1-.37-.15L22.55,6.74A.52.52,0,0,1,23.29,6l3.39,3.38a.54.54,0,0,1,0,.75A.55.55,0,0,1,26.3,10.28Zm4.2-4.17a.53.53,0,0,1-.38-.9l2.58-2.6a.53.53,0,0,1,.75.75L30.87,6A.49.49,0,0,1,30.5,6.11Z"/></g></g><g id="Interface_Check_All-2" data-name="Interface / Check_All"><g id="Vector-2" data-name="Vector"><path class="cls-2" d="M7.9,52.61a.51.51,0,0,1-.37-.15L4.14,49.07a.53.53,0,0,1,0-.74.53.53,0,0,1,.75,0l3,3,6.4-6.4a.53.53,0,0,1,.75.75L8.28,52.46A.54.54,0,0,1,7.9,52.61Zm-4,0a.53.53,0,0,1-.37-.15L.15,49.07a.53.53,0,0,1,0-.74.53.53,0,0,1,.75,0l3.39,3.38a.54.54,0,0,1,0,.75A.55.55,0,0,1,3.91,52.61Zm4.2-4.17a.51.51,0,0,1-.37-.15.53.53,0,0,1,0-.75l2.58-2.6a.53.53,0,0,1,.75.75l-2.58,2.6A.53.53,0,0,1,8.11,48.44Z"/></g></g></g></g></svg>