<svg xmlns="http://www.w3.org/2000/svg" viewBox="0 0 93.65 7.53"><g id="Layer_2" data-name="Layer 2"><g id="Layer_1-2" data-name="Layer 1"><path d="M.66,6V2.23H0V2H.66V1.28A1.4,1.4,0,0,1,.77.72a1.23,1.23,0,0,1,.31-.4A1.19,1.19,0,0,1,1.54.08,2,2,0,0,1,2.1,0a2.29,2.29,0,0,1,.43,0A1.11,1.11,0,0,1,3,.19.87.87,0,0,1,3.3.51a1,1,0,0,1,.16.56l-.91.27A1.82,1.82,0,0,0,2.49.5.43.43,0,0,0,2.05.18a.49.49,0,0,0-.43.19.74.74,0,0,0-.14.46,1,1,0,0,0,0,.3c0,.1.05.2.08.3s.07.2.11.29.07.19.1.28h1.3v.22H1.8V6Z"/><path d="M5.33,6.05a2.06,2.06,0,0,1-.84-.16,2,2,0,0,1-.68-.42,2,2,0,0,1-.45-.65A2.13,2.13,0,0,1,3.2,4a2.06,2.06,0,0,1,.16-.84,2,2,0,0,1,.45-.65,1.77,1.77,0,0,1,.68-.42,2.24,2.24,0,0,1,.84-.15,2.32,2.32,0,0,1,.84.15,1.73,1.73,0,0,1,.67.42,2,2,0,0,1,.45.65A2.07,2.07,0,0,1,7.46,4a2.14,2.14,0,0,1-.17.84A2,2,0,0,1,6.17,5.89,2.13,2.13,0,0,1,5.33,6.05Zm.44-.32a.69.69,0,0,0,.43-.31,1.69,1.69,0,0,0,.18-.55,3.21,3.21,0,0,0,0-.62,3,3,0,0,0-.09-.53q-.06-.24-.15-.51a2.71,2.71,0,0,0-.22-.49,1.25,1.25,0,0,0-.34-.38.75.75,0,0,0-.47-.15,1.09,1.09,0,0,0-.26,0,.66.66,0,0,0-.42.32,1.39,1.39,0,0,0-.19.54,2.58,2.58,0,0,0,0,.62,3,3,0,0,0,.09.53,3.19,3.19,0,0,0,.16.46,4,4,0,0,0,.27.5,1.61,1.61,0,0,0,.38.4.72.72,0,0,0,.45.17A.58.58,0,0,0,5.77,5.73Z"/><path d="M8.34,6V2.61a.81.81,0,0,0,0-.25.25.25,0,0,0-.25-.18l-.25,0V2l1.65-.16v.91a1.91,1.91,0,0,1,.27-.32,2,2,0,0,1,.35-.3,1.9,1.9,0,0,1,.4-.21,1,1,0,0,1,.42-.08.91.91,0,0,1,.48.13l-.25,1.3c-.27-.46-.57-.68-.9-.68A1.08,1.08,0,0,0,9.46,3V6Z"/><path d="M14.66,5.33c0,.06,0,.12,0,.18a.34.34,0,0,0,.07.16h1.07a3,3,0,0,0,.58,0,.93.93,0,0,0,.38-.16,1.16,1.16,0,0,0,.3-.32c.1-.13.21-.29.34-.49V6H13.55V.1h3.86V1.32a3.21,3.21,0,0,0-.33-.43,1.35,1.35,0,0,0-.79-.45,3.13,3.13,0,0,0-.58,0h-1a.22.22,0,0,0-.07.16,1.09,1.09,0,0,0,0,.18V2.83h.66a1.27,1.27,0,0,0,.46-.11,1,1,0,0,0,.42-.32h.07V3.73h0a2,2,0,0,0-.31-.33,1.69,1.69,0,0,0-.29-.22.58.58,0,0,0-.31-.11h-.66Z"/><path d="M20.13,6h-.5L17.79,2h1.28a1.44,1.44,0,0,0,.08.25c.05.14.12.31.2.51l.26.64q.13.35.27.66c.09.21.17.4.24.55s.11.27.13.32a4.87,4.87,0,0,0,.4-1.11A3,3,0,0,0,20.7,3a1.46,1.46,0,0,0-.19-.61A.94.94,0,0,0,20.16,2h1.68v.08Z"/><path d="M23.69,4.92a1.75,1.75,0,0,0,.47.29,1.5,1.5,0,0,0,.55.11,1.09,1.09,0,0,0,.69-.21,1.47,1.47,0,0,0,.44-.6l.06,0a2.2,2.2,0,0,1-.6,1.07A1.59,1.59,0,0,1,24.18,6a2.21,2.21,0,0,1-1.28-.4,2.14,2.14,0,0,1-.48-.47,1.74,1.74,0,0,1-.3-.61A2.52,2.52,0,0,1,22,3.47a1.93,1.93,0,0,1,.31-.81,1.77,1.77,0,0,1,.6-.52,1.91,1.91,0,0,1,.75-.21h.17a2.2,2.2,0,0,1,.76.13,1.68,1.68,0,0,1,.54.35,1.83,1.83,0,0,1,.35.52,3.26,3.26,0,0,1,.18.65Zm-.15-.14a2.49,2.49,0,0,0,.69-.62,1.62,1.62,0,0,0,.3-.66,1.29,1.29,0,0,0,0-.48,1.31,1.31,0,0,0-.16-.42.9.9,0,0,0-.28-.3.63.63,0,0,0-.37-.12h0a1,1,0,0,0-.38.1.74.74,0,0,0-.29.27,1.05,1.05,0,0,0-.13.5,2.33,2.33,0,0,0,.11.77,1.78,1.78,0,0,0,.21.52A2.07,2.07,0,0,0,23.54,4.78Z"/><path d="M26.54,6V2.61a.81.81,0,0,0,0-.25.25.25,0,0,0-.09-.13.29.29,0,0,0-.17,0l-.24,0V2l1.64-.16v.91a2.55,2.55,0,0,1,.27-.32,3.27,3.27,0,0,1,.35-.3,2.19,2.19,0,0,1,.4-.21,1.09,1.09,0,0,1,.43-.08,1,1,0,0,1,.48.13l-.25,1.3c-.27-.46-.57-.68-.91-.68a1.1,1.1,0,0,0-.77.41V6Z"/><path d="M30.1,6.88l1.46-.69L29.63,2h1.25l1.19,2.93a6.32,6.32,0,0,0,.43-1.1A3.39,3.39,0,0,0,32.64,3a1.42,1.42,0,0,0-.1-.62A.77.77,0,0,0,32.23,2h1.43v.08L31.25,7.53,30.1,7Z"/><path d="M35.56,3a3.13,3.13,0,0,1,.23-1.2,2.89,2.89,0,0,1,.64-1,3,3,0,0,1,1-.63,3.41,3.41,0,0,1,2.41,0,2.88,2.88,0,0,1,1.6,1.59A3.13,3.13,0,0,1,41.63,3a3.09,3.09,0,0,1-.23,1.2,3,3,0,0,1-.64,1,2.86,2.86,0,0,1-1,.63,3.27,3.27,0,0,1-2.41,0,2.88,2.88,0,0,1-1.6-1.59A3.09,3.09,0,0,1,35.56,3Zm1.5.68a4.38,4.38,0,0,0,.45.8,3.45,3.45,0,0,0,.54.59,2,2,0,0,0,.58.38,1.5,1.5,0,0,0,.6.14,1.37,1.37,0,0,0,.48-.1,1.19,1.19,0,0,0,.51-.46,1.72,1.72,0,0,0,.26-.73,3,3,0,0,0,0-.93,4.48,4.48,0,0,0-.32-1,6.7,6.7,0,0,0-.45-.8,4,4,0,0,0-.54-.6,2.74,2.74,0,0,0-.58-.38A1.43,1.43,0,0,0,38,.44a1.12,1.12,0,0,0-.48.1A1.18,1.18,0,0,0,37,1a1.86,1.86,0,0,0-.25.73,2.94,2.94,0,0,0,0,.93A4.05,4.05,0,0,0,37.06,3.71Z"/><path d="M45.08,6V5.2a1.91,1.91,0,0,1-.27.32,2.24,2.24,0,0,1-.34.27,2.4,2.4,0,0,1-.39.2,1.16,1.16,0,0,1-.4.07,1.19,1.19,0,0,1-.51-.1.92.92,0,0,1-.35-.26,1.14,1.14,0,0,1-.21-.41,2.1,2.1,0,0,1-.06-.51V2.54a.22.22,0,0,0,0-.14.26.26,0,0,0-.1-.07.4.4,0,0,0-.15,0H42.1V2.16L43.66,2V4.72a.82.82,0,0,0,.13.48.46.46,0,0,0,.43.19,1,1,0,0,0,.47-.12,1.19,1.19,0,0,0,.39-.3V2.74a.7.7,0,0,0,0-.24A.25.25,0,0,0,45,2.37a.42.42,0,0,0-.17-.05l-.24,0V2.17L46.2,2V6Z"/><path d="M49.47,5.41a1.57,1.57,0,0,1-.51.46,1.18,1.18,0,0,1-.58.16,1,1,0,0,1-.47-.11.94.94,0,0,1-.33-.29,1.12,1.12,0,0,1-.2-.41,1.51,1.51,0,0,1-.07-.48V2.6a.43.43,0,0,0-.49-.49H46.7V2L48.34.84h.09V2h1v.22h-1V4.75a2.26,2.26,0,0,0,0,.25,1.27,1.27,0,0,0,.06.28.54.54,0,0,0,.13.22.32.32,0,0,0,.23.09,1,1,0,0,0,.56-.25Z"/><path d="M53.13,5.65a.77.77,0,0,0-.38-.1,1.08,1.08,0,0,0-.58.23A1.85,1.85,0,0,1,51.8,6a1.19,1.19,0,0,1-.41.08,1.31,1.31,0,0,1-.69-.18,1.5,1.5,0,0,1-.52-.45,1.92,1.92,0,0,1-.32-.62,2.41,2.41,0,0,1,0-1.5,2.52,2.52,0,0,1,.39-.7,1.94,1.94,0,0,1,.61-.49,1.62,1.62,0,0,1,.79-.19,1.66,1.66,0,0,1,.49.07,1.3,1.3,0,0,1,.44.22V.74a.7.7,0,0,0,0-.24.22.22,0,0,0-.1-.13.34.34,0,0,0-.16,0l-.24,0V.17L53.71,0V6ZM52.6,2.4a.69.69,0,0,0-.3-.14,1.12,1.12,0,0,0-.32,0,.84.84,0,0,0-.53.17,1.27,1.27,0,0,0-.35.41,2,2,0,0,0-.19.54,2.74,2.74,0,0,0,0,.55,2.52,2.52,0,0,0,0,.52,2.07,2.07,0,0,0,.17.55,1.23,1.23,0,0,0,.32.42.8.8,0,0,0,.5.17.68.68,0,0,0,.38-.12,1.42,1.42,0,0,0,.32-.25Z"/><path d="M56.7,6.05a2.13,2.13,0,0,1-.84-.16,2,2,0,0,1-1.12-1.07A2.14,2.14,0,0,1,54.57,4a2.07,2.07,0,0,1,.17-.84,2,2,0,0,1,.45-.65,1.73,1.73,0,0,1,.67-.42,2.46,2.46,0,0,1,1.69,0,1.81,1.81,0,0,1,.67.42,2,2,0,0,1,.45.65,2.06,2.06,0,0,1,.16.84,2.13,2.13,0,0,1-.16.84,2,2,0,0,1-.45.65,2.11,2.11,0,0,1-.67.42A2.15,2.15,0,0,1,56.7,6.05Zm.44-.32a.66.66,0,0,0,.43-.31,1.69,1.69,0,0,0,.18-.55,2.57,2.57,0,0,0,0-.62,2.38,2.38,0,0,0-.08-.53q-.06-.24-.15-.51a2.75,2.75,0,0,0-.23-.49A1.23,1.23,0,0,0,57,2.34a.75.75,0,0,0-.47-.15,1.18,1.18,0,0,0-.27,0,.71.71,0,0,0-.42.32,1.56,1.56,0,0,0-.18.54,2.58,2.58,0,0,0,0,.62,3,3,0,0,0,.09.53,2.31,2.31,0,0,0,.16.46,2.42,2.42,0,0,0,.27.5,1.78,1.78,0,0,0,.37.4.73.73,0,0,0,.46.17A.48.48,0,0,0,57.14,5.73Z"/><path d="M61.44,6.05a2.13,2.13,0,0,1-.84-.16,2,2,0,0,1-1.12-1.07A2.14,2.14,0,0,1,59.31,4a2.07,2.07,0,0,1,.17-.84,2,2,0,0,1,.45-.65,1.73,1.73,0,0,1,.67-.42,2.46,2.46,0,0,1,1.69,0,1.73,1.73,0,0,1,.67.42,2,2,0,0,1,.45.65,2.07,2.07,0,0,1,.17.84,2.14,2.14,0,0,1-.17.84,2,2,0,0,1-1.12,1.07A2.15,2.15,0,0,1,61.44,6.05Zm.44-.32a.64.64,0,0,0,.43-.31,1.32,1.32,0,0,0,.18-.55,2.58,2.58,0,0,0,0-.62,3,3,0,0,0-.09-.53q-.06-.24-.15-.51A2.75,2.75,0,0,0,62,2.72a1.23,1.23,0,0,0-.33-.38.75.75,0,0,0-.47-.15,1.18,1.18,0,0,0-.27,0,.71.71,0,0,0-.42.32,1.56,1.56,0,0,0-.18.54,2.58,2.58,0,0,0,0,.62,3,3,0,0,0,.09.53,2.31,2.31,0,0,0,.16.46,2.42,2.42,0,0,0,.27.5,1.78,1.78,0,0,0,.37.4.75.75,0,0,0,.46.17A.48.48,0,0,0,61.88,5.73Z"/><path d="M64.46,6V2.61a.81.81,0,0,0,0-.25.25.25,0,0,0-.09-.13.29.29,0,0,0-.17,0l-.24,0V2l1.64-.16v.91a2.55,2.55,0,0,1,.27-.32,3.27,3.27,0,0,1,.35-.3,2.19,2.19,0,0,1,.4-.21A1.09,1.09,0,0,1,67,1.87,1,1,0,0,1,67.5,2l-.25,1.3c-.27-.46-.57-.68-.91-.68a1.1,1.1,0,0,0-.77.41V6Z"/><path d="M70.46,4.19a2.43,2.43,0,0,0,.07.61,1.63,1.63,0,0,0,.22.52,1.16,1.16,0,0,0,.38.35,1.1,1.1,0,0,0,.56.13,1.94,1.94,0,0,0,.4,0,1.65,1.65,0,0,0,.41-.14,1,1,0,0,0,.31-.25.65.65,0,0,0,.12-.4.8.8,0,0,0-.26-.61A3.49,3.49,0,0,0,72,3.89c-.27-.14-.55-.27-.86-.41A5.75,5.75,0,0,1,70.3,3a2.42,2.42,0,0,1-.66-.61,1.39,1.39,0,0,1-.27-.87,1.14,1.14,0,0,1,.24-.75A1.6,1.6,0,0,1,70.2.32,3.15,3.15,0,0,1,71,.08,5.56,5.56,0,0,1,71.76,0a4.57,4.57,0,0,1,.83.07,2.07,2.07,0,0,1,.72.27,1.58,1.58,0,0,1,.54.52,1.62,1.62,0,0,1,.24.81H72.83a3.05,3.05,0,0,0,0-.52,1.68,1.68,0,0,0-.17-.46.92.92,0,0,0-.33-.32,1.08,1.08,0,0,0-.54-.13,1.63,1.63,0,0,0-.45.07.89.89,0,0,0-.36.19.84.84,0,0,0-.25.31,1.25,1.25,0,0,0-.08.45.74.74,0,0,0,.26.57,3.25,3.25,0,0,0,.67.45c.26.14.55.28.86.42a8.69,8.69,0,0,1,.86.46,2.72,2.72,0,0,1,.67.58,1.24,1.24,0,0,1,.26.78,1,1,0,0,1-.21.58,1.87,1.87,0,0,1-.55.48,3,3,0,0,1-.8.33,3.69,3.69,0,0,1-1,.12,4.41,4.41,0,0,1-.89-.1A2.29,2.29,0,0,1,70,5.64a1.61,1.61,0,0,1-.56-.57,1.82,1.82,0,0,1-.23-.88Z"/><path d="M76.14,7.43H75v-5c0-.09,0-.14-.1-.14l-.27,0V2.15L76.14,2v.55a1.37,1.37,0,0,1,.49-.42,1.42,1.42,0,0,1,.71-.19,1.53,1.53,0,0,1,.64.14,1.62,1.62,0,0,1,.52.38,1.83,1.83,0,0,1,.36.59A2.34,2.34,0,0,1,79,3.8a2.43,2.43,0,0,1-.17.92,2.21,2.21,0,0,1-.44.69,1.87,1.87,0,0,1-.62.43,1.59,1.59,0,0,1-.7.16,1.81,1.81,0,0,1-.51-.08,1.22,1.22,0,0,1-.41-.21Zm.62-1.74a1,1,0,0,0,.4-.09,1.15,1.15,0,0,0,.36-.31,1.41,1.41,0,0,0,.26-.52,2.46,2.46,0,0,0,.1-.76,2,2,0,0,0-.3-1.16.91.91,0,0,0-.76-.43.94.94,0,0,0-.36.08.71.71,0,0,0-.32.22V5.51a.87.87,0,0,0,.29.14A1.24,1.24,0,0,0,76.76,5.69Z"/><path d="M79.72,2.88a3.3,3.3,0,0,1,.32-.4,1.62,1.62,0,0,1,.39-.3A1.93,1.93,0,0,1,80.94,2a2.51,2.51,0,0,1,.64-.07,3.08,3.08,0,0,1,.61.06,2,2,0,0,1,.52.21,1.27,1.27,0,0,1,.35.38,1.08,1.08,0,0,1,.13.56V6h-1.1V5.49a2.7,2.7,0,0,1-.62.38,1.59,1.59,0,0,1-.69.17A1.33,1.33,0,0,1,80.33,6a1,1,0,0,1-.38-.2.93.93,0,0,1-.27-.34,1.27,1.27,0,0,1-.1-.5,1,1,0,0,1,.28-.7,2.12,2.12,0,0,1,.68-.45,4,4,0,0,1,.82-.24c.29,0,.53-.08.73-.1V3.16c0-.12,0-.24,0-.36a1,1,0,0,0,0-.31.46.46,0,0,0-.14-.22.48.48,0,0,0-.27-.11.74.74,0,0,0-.36.06.87.87,0,0,0-.31.23,1.11,1.11,0,0,0-.23.37,1.6,1.6,0,0,0-.11.52Zm2.37.73a2.61,2.61,0,0,0-.42.07,1.72,1.72,0,0,0-.47.19,1.06,1.06,0,0,0-.37.36,1,1,0,0,0-.13.6.79.79,0,0,0,.2.52.58.58,0,0,0,.44.19,1.34,1.34,0,0,0,.36-.06,1,1,0,0,0,.39-.19Z"/><path d="M86.77,3.74a2.91,2.91,0,0,0,0-.59,2.21,2.21,0,0,0-.1-.5.92.92,0,0,0-.22-.35.45.45,0,0,0-.33-.14.89.89,0,0,0-.5.14,1.14,1.14,0,0,0-.34.35,1.44,1.44,0,0,0-.19.46,2.27,2.27,0,0,0-.06.5,1.84,1.84,0,0,0,.11.64,2,2,0,0,0,.33.59,1.82,1.82,0,0,0,.52.44,1.3,1.3,0,0,0,.68.17,2.64,2.64,0,0,0,.62-.08,1,1,0,0,0,.5-.35l.06.05a1.42,1.42,0,0,1-.33.41,2.32,2.32,0,0,1-.44.31,2.15,2.15,0,0,1-.5.19,2.24,2.24,0,0,1-.51.07,2,2,0,0,1-.8-.16,2.15,2.15,0,0,1-.67-.41,2,2,0,0,1-.45-.63A1.67,1.67,0,0,1,84,4.08a2.35,2.35,0,0,1,.16-.89,2.1,2.1,0,0,1,.44-.68,2,2,0,0,1,.68-.44,2.39,2.39,0,0,1,.86-.15,2,2,0,0,1,1.15.28,1.46,1.46,0,0,1,.56.74Z"/><path d="M89.86,4.92a1.75,1.75,0,0,0,.47.29,1.49,1.49,0,0,0,.54.11,1.1,1.1,0,0,0,.7-.21,1.47,1.47,0,0,0,.44-.6l.06,0a2.2,2.2,0,0,1-.6,1.07A1.59,1.59,0,0,1,90.35,6a2.21,2.21,0,0,1-1.28-.4,2,2,0,0,1-.48-.47,1.74,1.74,0,0,1-.3-.61,2.52,2.52,0,0,1-.08-1.07,1.93,1.93,0,0,1,.31-.81,1.83,1.83,0,0,1,.59-.52,2,2,0,0,1,.76-.21H90a2.2,2.2,0,0,1,.76.13,1.68,1.68,0,0,1,.54.35,1.83,1.83,0,0,1,.35.52,3.26,3.26,0,0,1,.18.65Zm-.15-.14a2.49,2.49,0,0,0,.69-.62,1.62,1.62,0,0,0,.3-.66,1.29,1.29,0,0,0,0-.48,1.31,1.31,0,0,0-.16-.42.93.93,0,0,0-.29-.3.6.6,0,0,0-.36-.12h0a1,1,0,0,0-.38.1.74.74,0,0,0-.29.27,1.05,1.05,0,0,0-.13.5,2.33,2.33,0,0,0,.11.77,1.78,1.78,0,0,0,.21.52A2.07,2.07,0,0,0,89.71,4.78Z"/><path d="M92.48,5.42A.54.54,0,0,1,92.66,5a.58.58,0,0,1,1,.41.61.61,0,0,1-.17.42.56.56,0,0,1-.41.16.53.53,0,0,1-.41-.17A.54.54,0,0,1,92.48,5.42Z"/></g></g></svg>