<svg id="Feature-head" xmlns="http://www.w3.org/2000/svg" width="111.25" height="71.624" viewBox="0 0 111.25 71.624">
  <defs>
    <style>
      .cls-1 {
        fill: #fff;
      }

      .cls-1, .cls-2 {
        fill-rule: evenodd;
      }

      .cls-2 {
        fill: none;
        stroke: #fff;
        stroke-width: 1px;
      }
    </style>
  </defs>
  <path id="Coupon_Rate" data-name="Coupon Rate" class="cls-1" d="M1583.55,377.931a1.765,1.765,0,0,0-1.82-1.477,2.353,2.353,0,0,0,0,4.652,1.765,1.765,0,0,0,1.82-1.477H1583a1.227,1.227,0,0,1-1.27.964,1.853,1.853,0,0,1,0-3.626,1.227,1.227,0,0,1,1.27.964h0.55Zm2.2,3.183a1.771,1.771,0,1,0-1.54-1.751A1.564,1.564,0,0,0,1585.75,381.114Zm0-.468a1.322,1.322,0,1,1,1.02-1.283A1.1,1.1,0,0,1,1585.75,380.646Zm4.48-.991a0.885,0.885,0,0,1-.88.929,0.74,0.74,0,0,1-.74-0.814v-2.122h-0.53v2.157a1.1,1.1,0,0,0,1.1,1.283,1.055,1.055,0,0,0,1.01-.619h0.04v0.575h0.52v-3.4h-0.52v2.007Zm1.48,2.662h0.52v-1.8h0.04a1.061,1.061,0,0,0,.99.592,1.787,1.787,0,0,0-.01-3.511,1.041,1.041,0,0,0-.98.584h-0.06v-0.539h-0.5v4.669Zm0.51-2.971a1.062,1.062,0,0,1,.97-1.274,1.074,1.074,0,0,1,.99,1.274,1.1,1.1,0,0,1-.99,1.3A1.082,1.082,0,0,1,1592.22,379.346Zm4.66,1.768a1.771,1.771,0,1,0-1.54-1.751A1.566,1.566,0,0,0,1596.88,381.114Zm0-.468a1.322,1.322,0,1,1,1.02-1.283A1.1,1.1,0,0,1,1596.88,380.646Zm2.86-1.645a0.844,0.844,0,0,1,.87-0.929,0.749,0.749,0,0,1,.78.849v2.123h0.52v-2.158a1.107,1.107,0,0,0-1.15-1.283,1,1,0,0,0-.99.575h-0.04v-0.53h-0.51v3.4h0.52V379Zm4.95,2.043h0.55v-1.769h0.99c0.04,0,.08,0,0.12,0l0.95,1.771h0.64l-1.02-1.871a1.233,1.233,0,0,0,.85-1.269,1.338,1.338,0,0,0-1.54-1.389h-1.54v4.529Zm0.55-2.264V377h0.97a0.856,0.856,0,0,1,1.02.9,0.836,0.836,0,0,1-1.01.876h-0.98Zm4.37,2.343a1.078,1.078,0,0,0,1.01-.539h0.02v0.46h0.53v-2.238a1.12,1.12,0,0,0-1.26-1.2,1.388,1.388,0,0,0-1.37.8l0.5,0.177a0.93,0.93,0,0,1,.89-0.513,0.626,0.626,0,0,1,.71.69v0.018c0,0.252-.25.23-0.87,0.309s-1.32.221-1.32,1A1.048,1.048,0,0,0,1609.61,381.123Zm0.08-.469a0.6,0.6,0,0,1-.72-0.548,0.684,0.684,0,0,1,.77-0.575,2.674,2.674,0,0,0,.9-0.194v0.477A0.866,0.866,0,0,1,1609.69,380.654Zm3.91-3.006h-0.73v-0.814h-0.52v0.814h-0.51v0.442h0.51v2.122a0.87,0.87,0,0,0,.92.876,1.075,1.075,0,0,0,.39-0.062l-0.1-.469a1.085,1.085,0,0,1-.23.027,0.42,0.42,0,0,1-.46-0.513V378.09h0.73v-0.442Zm2.18,3.466a1.318,1.318,0,0,0,1.35-.857l-0.5-.142a0.838,0.838,0,0,1-.85.531,1.024,1.024,0,0,1-1.06-1.124h2.47V379.3a1.467,1.467,0,0,0-1.47-1.7A1.768,1.768,0,0,0,1615.78,381.114Zm-1.06-2.043a1.01,1.01,0,0,1,1-1,0.92,0.92,0,0,1,.93,1h-1.93Z" transform="translate(-1579.72 -366.188)"/>
  <path id="Credit_Rating" data-name="Credit Rating" class="cls-1" d="M1617.38,409.217a1.765,1.765,0,0,0-1.82-1.477,2.353,2.353,0,0,0,0,4.652,1.765,1.765,0,0,0,1.82-1.477h-0.55a1.227,1.227,0,0,1-1.27.964,1.853,1.853,0,0,1,0-3.626,1.227,1.227,0,0,1,1.27.964h0.55Zm0.82,3.113h0.52v-2.149a0.8,0.8,0,0,1,.86-0.8,0.633,0.633,0,0,1,.3.062l0.18-.442a0.753,0.753,0,0,0-.44-0.124,0.911,0.911,0,0,0-.88.566h-0.04v-0.513h-0.5v3.4Zm3.71,0.071a1.317,1.317,0,0,0,1.35-.858l-0.5-.142a0.838,0.838,0,0,1-.85.531,1.023,1.023,0,0,1-1.06-1.123h2.46v-0.221a1.46,1.46,0,0,0-1.46-1.7,1.578,1.578,0,0,0-1.53,1.769A1.561,1.561,0,0,0,1621.91,412.4Zm-1.06-2.043a1.01,1.01,0,0,1,1-1,0.92,0.92,0,0,1,.93,1h-1.93Zm4.54,2.043a1.067,1.067,0,0,0,1-.593h0.06v0.522h0.5V407.8h-0.52v1.671h-0.04a1.048,1.048,0,0,0-.99-0.583A1.789,1.789,0,0,0,1625.39,412.4Zm0.08-.469a1.106,1.106,0,0,1-1-1.3,1.081,1.081,0,0,1,1-1.274,1.062,1.062,0,0,1,.97,1.274A1.088,1.088,0,0,1,1625.47,411.932Zm2.51,0.4h0.52v-3.4h-0.52v3.4Zm0.27-3.962a0.355,0.355,0,1,0-.38-0.354A0.365,0.365,0,0,0,1628.25,408.368Zm2.69,0.566h-0.73V408.12h-0.52v0.814h-0.51v0.442h0.51V411.5a0.87,0.87,0,0,0,.92.875,1.1,1.1,0,0,0,.39-0.062l-0.11-.468a0.99,0.99,0,0,1-.23.026,0.414,0.414,0,0,1-.45-0.513v-1.981h0.73v-0.442Zm2.61,3.4h0.55v-1.769h0.99c0.04,0,.08,0,0.11,0l0.96,1.771h0.64l-1.03-1.87a1.233,1.233,0,0,0,.85-1.27,1.337,1.337,0,0,0-1.54-1.388h-1.53v4.528Zm0.55-2.264v-1.778h0.96a0.852,0.852,0,0,1,1.02.9,0.832,0.832,0,0,1-1.01.876h-0.97Zm4.36,2.344a1.054,1.054,0,0,0,1.01-.54h0.03v0.46h0.52v-2.237a1.116,1.116,0,0,0-1.26-1.2,1.383,1.383,0,0,0-1.36.8l0.5,0.177a0.9,0.9,0,0,1,.88-0.513,0.633,0.633,0,0,1,.72.689v0.018c0,0.252-.26.23-0.88,0.31s-1.32.221-1.32,1A1.054,1.054,0,0,0,1638.46,412.41Zm0.08-.469a0.607,0.607,0,0,1-.72-0.548,0.694,0.694,0,0,1,.78-0.575,2.7,2.7,0,0,0,.9-0.195V411.1A0.876,0.876,0,0,1,1638.54,411.941Zm3.92-3.007h-0.73V408.12h-0.52v0.814h-0.52v0.442h0.52V411.5a0.87,0.87,0,0,0,.92.875,1.1,1.1,0,0,0,.39-0.062l-0.11-.468a0.99,0.99,0,0,1-.23.026,0.414,0.414,0,0,1-.45-0.513v-1.981h0.73v-0.442Zm0.78,3.4h0.53v-3.4h-0.53v3.4Zm0.27-3.962a0.354,0.354,0,1,0-.37-0.354A0.365,0.365,0,0,0,1643.51,408.368Zm1.73,1.919a0.845,0.845,0,0,1,.87-0.929,0.749,0.749,0,0,1,.78.849v2.123h0.52v-2.158a1.106,1.106,0,0,0-1.15-1.282,1,1,0,0,0-.99.575h-0.04v-0.531h-0.51v3.4h0.52v-2.043Zm4.5,3.387a1.258,1.258,0,0,0,1.47-1.247v-3.493h-0.5v0.539h-0.06a1.035,1.035,0,0,0-.99-0.583,1.516,1.516,0,0,0-1.45,1.724,1.466,1.466,0,0,0,1.44,1.663,1.017,1.017,0,0,0,.99-0.575h0.05v0.69a0.815,0.815,0,0,1-.95.822,1.056,1.056,0,0,1-.97-0.512l-0.42.291A1.5,1.5,0,0,0,1649.74,413.674Zm-0.02-1.866a1.026,1.026,0,0,1-.99-1.2,1.069,1.069,0,0,1,.99-1.247,1.052,1.052,0,0,1,.98,1.247A1.009,1.009,0,0,1,1649.72,411.808Z" transform="translate(-1579.72 -366.188)"/>
  <path id="Associated_Fees" data-name="Associated Fees" class="cls-1" d="M1643.7,381.2l0.45-1.282h1.84l0.45,1.282h0.58l-1.67-4.528h-0.56l-1.67,4.528h0.58Zm0.63-1.768,0.72-2.043h0.04l0.72,2.043h-1.48Zm5.73-.867a1.14,1.14,0,0,0-1.2-.805,1.1,1.1,0,0,0-1.25.982,0.95,0.95,0,0,0,.9.928l0.57,0.133a0.517,0.517,0,0,1,.5.478,0.673,0.673,0,0,1-.79.53,0.715,0.715,0,0,1-.79-0.548l-0.5.124a1.179,1.179,0,0,0,1.3.884,1.146,1.146,0,0,0,1.32-1.017,0.949,0.949,0,0,0-.9-0.92l-0.5-.124c-0.41-.1-0.59-0.234-0.59-0.5a0.628,0.628,0,0,1,.73-0.5,0.713,0.713,0,0,1,.73.486Zm3.26,0a1.14,1.14,0,0,0-1.2-.805,1.1,1.1,0,0,0-1.25.982,0.95,0.95,0,0,0,.9.928l0.57,0.133a0.517,0.517,0,0,1,.5.478,0.673,0.673,0,0,1-.79.53,0.715,0.715,0,0,1-.79-0.548l-0.5.124a1.167,1.167,0,0,0,1.29.884,1.156,1.156,0,0,0,1.33-1.017,0.949,0.949,0,0,0-.9-0.92l-0.51-.124c-0.4-.1-0.58-0.234-0.58-0.5a0.628,0.628,0,0,1,.73-0.5,0.713,0.713,0,0,1,.73.486Zm2.23,2.706a1.771,1.771,0,1,0-1.54-1.751A1.565,1.565,0,0,0,1655.55,381.271Zm0-.469a1.321,1.321,0,1,1,1.02-1.282A1.1,1.1,0,0,1,1655.55,380.8Zm3.72,0.469a1.267,1.267,0,0,0,1.34-1.061h-0.53a0.778,0.778,0,0,1-.81.592,1.321,1.321,0,0,1,0-2.573,0.792,0.792,0,0,1,.81.592h0.53a1.27,1.27,0,0,0-1.35-1.061A1.771,1.771,0,0,0,1659.27,381.271Zm2.1-.071h0.52v-3.4h-0.52v3.4Zm0.26-3.962a0.354,0.354,0,1,0-.37-0.354A0.368,0.368,0,0,0,1661.63,377.238Zm2.22,4.042a1.077,1.077,0,0,0,1.01-.54h0.02v0.46h0.53v-2.237a1.12,1.12,0,0,0-1.26-1.2,1.367,1.367,0,0,0-1.36.8l0.49,0.177a0.929,0.929,0,0,1,.89-0.513,0.626,0.626,0,0,1,.71.69v0.017c0,0.252-.25.23-0.87,0.31s-1.32.221-1.32,1A1.048,1.048,0,0,0,1663.85,381.28Zm0.08-.469a0.6,0.6,0,0,1-.72-0.548,0.684,0.684,0,0,1,.77-0.575,2.673,2.673,0,0,0,.9-0.195v0.478A0.866,0.866,0,0,1,1663.93,380.811Zm3.91-3.007h-0.73v-0.813h-0.52V377.8h-0.51v0.442h0.51v2.123a0.87,0.87,0,0,0,.92.876,1.075,1.075,0,0,0,.39-0.062l-0.1-.469a1.1,1.1,0,0,1-.23.026,0.419,0.419,0,0,1-.46-0.513v-1.981h0.73V377.8Zm2.18,3.467a1.317,1.317,0,0,0,1.35-.858l-0.5-.141a0.83,0.83,0,0,1-.85.53,1.028,1.028,0,0,1-1.06-1.123h2.47v-0.221a1.466,1.466,0,0,0-1.47-1.7A1.768,1.768,0,0,0,1670.02,381.271Zm-1.06-2.043a1.01,1.01,0,0,1,1-1,0.919,0.919,0,0,1,.93,1h-1.93Zm4.55,2.043a1.063,1.063,0,0,0,.99-0.592h0.06V381.2h0.5v-4.528h-0.52v1.672h-0.04a1.041,1.041,0,0,0-.98-0.584A1.787,1.787,0,0,0,1673.51,381.271Zm0.07-.469a1.1,1.1,0,0,1-.99-1.3,1.074,1.074,0,0,1,.99-1.273,1.062,1.062,0,0,1,.97,1.273A1.082,1.082,0,0,1,1673.58,380.8Zm4.34,0.4h0.54v-2.025h1.97v-0.486h-1.97v-1.53h2.17v-0.487h-2.71V381.2Zm4.76,0.071a1.317,1.317,0,0,0,1.35-.858l-0.5-.141a0.83,0.83,0,0,1-.85.53,1.028,1.028,0,0,1-1.06-1.123h2.47v-0.221a1.465,1.465,0,0,0-1.46-1.7A1.767,1.767,0,0,0,1682.68,381.271Zm-1.06-2.043a1.012,1.012,0,0,1,1.01-1,0.917,0.917,0,0,1,.92,1h-1.93Zm4.69,2.043a1.317,1.317,0,0,0,1.35-.858l-0.5-.141a0.83,0.83,0,0,1-.85.53,1.028,1.028,0,0,1-1.06-1.123h2.47v-0.221a1.465,1.465,0,0,0-1.46-1.7A1.767,1.767,0,0,0,1686.31,381.271Zm-1.06-2.043a1.012,1.012,0,0,1,1.01-1,0.917,0.917,0,0,1,.92,1h-1.93Zm5.67-.663a1.14,1.14,0,0,0-1.2-.805,1.1,1.1,0,0,0-1.25.982,0.95,0.95,0,0,0,.9.928l0.57,0.133a0.517,0.517,0,0,1,.5.478,0.673,0.673,0,0,1-.79.53,0.715,0.715,0,0,1-.79-0.548l-0.5.124a1.172,1.172,0,0,0,1.3.884,1.146,1.146,0,0,0,1.32-1.017,0.949,0.949,0,0,0-.9-0.92l-0.5-.124c-0.41-.1-0.59-0.234-0.59-0.5a0.628,0.628,0,0,1,.73-0.5,0.713,0.713,0,0,1,.73.486Z" transform="translate(-1579.72 -366.188)"/>
  <path class="cls-2" d="M1628.8,366.691h9.31" transform="translate(-1579.72 -366.188)"/>
  <path id="Shape_2_copy" data-name="Shape 2 copy" class="cls-2" d="M1627.92,436.3h9.31" transform="translate(-1579.72 -366.188)"/>
</svg>
