<svg xmlns="http://www.w3.org/2000/svg" viewBox="0 0 238.76 41.62"><defs><style>.cls-1{fill:#f98f0b;}.cls-2{fill:#fff;}</style></defs><g id="Layer_2" data-name="Layer 2"><g id="Layer_1-2" data-name="Layer 1"><rect class="cls-1" width="238.76" height="41.62" rx="20.81"/><path class="cls-2" d="M43.14,22.1a7.5,7.5,0,0,1-.47,2.51,6.41,6.41,0,0,1-1.25,2.11,5.84,5.84,0,0,1-2,1.45,6.81,6.81,0,0,1-2.81.53,8,8,0,0,1-2.87-.5,6.63,6.63,0,0,1-3.91-3.85,8.73,8.73,0,0,1-.56-3.22,8.51,8.51,0,0,1,.57-3.21,6.64,6.64,0,0,1,1.59-2.38,6.71,6.71,0,0,1,2.38-1.47,9.26,9.26,0,0,1,6.66.23,6.39,6.39,0,0,1,3.72,5H40.84a2.83,2.83,0,0,0-.73-1.4,3.8,3.8,0,0,0-1.4-.9,5.5,5.5,0,0,0-1.93-.32,4.5,4.5,0,0,0-2.24.52,3.52,3.52,0,0,0-1.47,1.51,5.21,5.21,0,0,0-.52,2.46,5.05,5.05,0,0,0,.56,2.5,3.65,3.65,0,0,0,1.56,1.55,5.14,5.14,0,0,0,2.39.52,5.78,5.78,0,0,0,2.36-.44A3.93,3.93,0,0,0,41.05,24a3.74,3.74,0,0,0,.68-2Zm-5.69,1.47V21H44.3v7.41H41.94l-.45-5.8.66,1Z"/><path class="cls-2" d="M52,28.7A6.77,6.77,0,0,1,48.8,28a5.58,5.58,0,0,1-2.2-2,5.78,5.78,0,0,1-.81-3.08,5.82,5.82,0,0,1,.77-3,5.38,5.38,0,0,1,2.12-2,6.3,6.3,0,0,1,3.06-.74,5.21,5.21,0,0,1,3,.85,5.52,5.52,0,0,1,1.93,2.4,9.09,9.09,0,0,1,.68,3.64h-9V21.68h7.18l-1.17.81A3.53,3.53,0,0,0,54,21a2.41,2.41,0,0,0-.9-1,2.54,2.54,0,0,0-1.32-.34,2.81,2.81,0,0,0-1.45.37,2.63,2.63,0,0,0-1,1,3.38,3.38,0,0,0-.34,1.53,3.71,3.71,0,0,0,.45,1.88,2.91,2.91,0,0,0,1.29,1.18,4.73,4.73,0,0,0,2.06.4,7.45,7.45,0,0,0,2.23-.34,6.9,6.9,0,0,0,2-1v2.34a8.17,8.17,0,0,1-2.31,1.2A9.07,9.07,0,0,1,52,28.7Z"/><path class="cls-2" d="M57.8,20V18.46l2.06-.83,1.39-3.21H63.1v2.94h4.29V20H63.1v3.64a2.57,2.57,0,0,0,.45,1.73,2.18,2.18,0,0,0,1.63.5,5.13,5.13,0,0,0,1.31-.15,4.72,4.72,0,0,0,1.07-.4v2.74a8,8,0,0,1-1.36.42,7.85,7.85,0,0,1-1.76.19,5.3,5.3,0,0,1-2.6-.56,3.45,3.45,0,0,1-1.5-1.57,5.59,5.59,0,0,1-.48-2.4V20Z"/><path class="cls-2" d="M82.13,13.87l6,14.52H84.66l-5.17-13h1l-5.16,13H71.82l6-14.52Zm-6.72,11.6v-3h9v3Z"/><path class="cls-2" d="M104.64,13.87V17H94.93l1.62-1.8v13.2H93.26V13.87Zm-9.78,6.05h9.46V23H94.86Z"/><path class="cls-2" d="M105.7,17.36H109l.6,4v7.06h-3.24V21Zm8.61-.16v3.1a8.34,8.34,0,0,0-.93-.17,6.65,6.65,0,0,0-.85-.06,3.05,3.05,0,0,0-1.51.38A2.64,2.64,0,0,0,110,21.64a4.88,4.88,0,0,0-.39,2.11l-.65-.89a15,15,0,0,1,.4-2.23,7,7,0,0,1,.77-1.85,4,4,0,0,1,1.21-1.27,3.17,3.17,0,0,1,1.75-.46,4.64,4.64,0,0,1,.63,0A4.14,4.14,0,0,1,114.31,17.2Z"/><path class="cls-2" d="M121,28.7a6.72,6.72,0,0,1-3.18-.73,5.6,5.6,0,0,1-2.21-2,5.86,5.86,0,0,1-.8-3.08,5.82,5.82,0,0,1,.77-3,5.38,5.38,0,0,1,2.12-2,6.29,6.29,0,0,1,3-.74,5.17,5.17,0,0,1,3,.85,5.53,5.53,0,0,1,1.94,2.4,9.09,9.09,0,0,1,.68,3.64h-9V21.68h7.18l-1.17.81a3.53,3.53,0,0,0-.39-1.54,2.39,2.39,0,0,0-2.22-1.31,2.81,2.81,0,0,0-1.45.37,2.56,2.56,0,0,0-.95,1,3.25,3.25,0,0,0-.34,1.53,3.71,3.71,0,0,0,.45,1.88,2.93,2.93,0,0,0,1.28,1.18,4.81,4.81,0,0,0,2.07.4,7.5,7.5,0,0,0,2.23-.34,7.16,7.16,0,0,0,2-1v2.34a8.17,8.17,0,0,1-2.31,1.2A9.07,9.07,0,0,1,121,28.7Z"/><path class="cls-2" d="M133.71,28.7a6.72,6.72,0,0,1-3.18-.73,5.6,5.6,0,0,1-2.21-2,5.86,5.86,0,0,1-.8-3.08,5.82,5.82,0,0,1,.77-3,5.35,5.35,0,0,1,2.11-2,6.3,6.3,0,0,1,3.06-.74,5.19,5.19,0,0,1,3,.85,5.53,5.53,0,0,1,1.94,2.4,9.09,9.09,0,0,1,.68,3.64h-9V21.68h7.18l-1.17.81a3.67,3.67,0,0,0-.39-1.54,2.39,2.39,0,0,0-2.22-1.31,2.81,2.81,0,0,0-1.45.37,2.56,2.56,0,0,0-.95,1,3.25,3.25,0,0,0-.34,1.53,3.81,3.81,0,0,0,.44,1.88,3,3,0,0,0,1.29,1.18,4.78,4.78,0,0,0,2.07.4,7.5,7.5,0,0,0,2.23-.34,7,7,0,0,0,2-1v2.34a7.91,7.91,0,0,1-2.31,1.2A9,9,0,0,1,133.71,28.7Z"/><path class="cls-2" d="M152.41,28.7a8.34,8.34,0,0,1-4-.94,6.81,6.81,0,0,1-2.69-2.66,7.94,7.94,0,0,1-1-4,7.9,7.9,0,0,1,1-4,6.81,6.81,0,0,1,2.69-2.66,9,9,0,0,1,8.07,0,6.86,6.86,0,0,1,2.71,2.66,7.9,7.9,0,0,1,1,4,7.94,7.94,0,0,1-1,4,6.86,6.86,0,0,1-2.71,2.66A8.27,8.27,0,0,1,152.41,28.7Zm0-3.27a5,5,0,0,0,2.33-.51,3.54,3.54,0,0,0,1.51-1.48,4.67,4.67,0,0,0,.53-2.31,4.65,4.65,0,0,0-.53-2.3,3.54,3.54,0,0,0-1.51-1.48,5.55,5.55,0,0,0-4.65,0,3.67,3.67,0,0,0-1.52,1.48,4.66,4.66,0,0,0-.54,2.3,4.67,4.67,0,0,0,.54,2.31,3.67,3.67,0,0,0,1.52,1.48A4.93,4.93,0,0,0,152.41,25.43Zm-2.09-2.84h3.92L160,29.46h-4Z"/><path class="cls-2" d="M166,28.68a4.36,4.36,0,0,1-2.37-.62,4,4,0,0,1-1.49-1.8,6.6,6.6,0,0,1-.52-2.74V17.36h3.25V23a3.26,3.26,0,0,0,.57,2.06,2,2,0,0,0,1.66.71,2.26,2.26,0,0,0,2.22-1.43,4.16,4.16,0,0,0,.3-1.65l1,.6a7.82,7.82,0,0,1-.82,3,5,5,0,0,1-1.64,1.83A4,4,0,0,1,166,28.68Zm4.25-.29-.63-4.29V17.36h3.25v7.28l.62,3.75Z"/><path class="cls-2" d="M180.89,28.7a7.07,7.07,0,0,1-3.3-.73,5.42,5.42,0,0,1-2.19-2,6.26,6.26,0,0,1,0-6.09,5.42,5.42,0,0,1,2.2-2,7.71,7.71,0,0,1,6.59,0,5.45,5.45,0,0,1,2.21,2,5.84,5.84,0,0,1,.78,3.05,5.86,5.86,0,0,1-.78,3.05,5.45,5.45,0,0,1-2.21,2A7.1,7.1,0,0,1,180.89,28.7Zm0-2.71a3.3,3.3,0,0,0,1.63-.37,2.56,2.56,0,0,0,1-1.08,3.7,3.7,0,0,0,.35-1.66,3.74,3.74,0,0,0-.35-1.67,2.53,2.53,0,0,0-1-1.07,3.64,3.64,0,0,0-3.24,0,2.55,2.55,0,0,0-1,1.07,3.61,3.61,0,0,0-.37,1.67,3.57,3.57,0,0,0,.37,1.66,2.58,2.58,0,0,0,1,1.08A3.3,3.3,0,0,0,180.89,26Z"/><path class="cls-2" d="M187.63,20V18.46l2.06-.83,1.39-3.21h1.85v2.94h4.29V20h-4.29v3.64a2.51,2.51,0,0,0,.46,1.73,2.13,2.13,0,0,0,1.62.5,5.13,5.13,0,0,0,1.31-.15,4.72,4.72,0,0,0,1.07-.4v2.74a8,8,0,0,1-1.36.42,7.85,7.85,0,0,1-1.76.19,5.3,5.3,0,0,1-2.6-.56,3.45,3.45,0,0,1-1.5-1.57,5.59,5.59,0,0,1-.48-2.4V20Z"/><path class="cls-2" d="M204.26,28.7a6.74,6.74,0,0,1-3.18-.73,5.51,5.51,0,0,1-2.2-2,5.78,5.78,0,0,1-.81-3.08,5.82,5.82,0,0,1,.77-3,5.38,5.38,0,0,1,2.12-2,6.3,6.3,0,0,1,3.06-.74,5.16,5.16,0,0,1,3,.85A5.47,5.47,0,0,1,209,20.3a9.09,9.09,0,0,1,.68,3.64h-9V21.68h7.18l-1.17.81a3.53,3.53,0,0,0-.39-1.54,2.48,2.48,0,0,0-.9-1,2.54,2.54,0,0,0-1.32-.34,2.81,2.81,0,0,0-1.45.37,2.63,2.63,0,0,0-1,1,3.38,3.38,0,0,0-.34,1.53,3.71,3.71,0,0,0,.45,1.88,2.91,2.91,0,0,0,1.29,1.18,4.73,4.73,0,0,0,2.06.4,7.45,7.45,0,0,0,2.23-.34,7,7,0,0,0,2-1v2.34a8.17,8.17,0,0,1-2.31,1.2A9.07,9.07,0,0,1,204.26,28.7Z"/></g></g></svg>