<svg xmlns="http://www.w3.org/2000/svg" viewBox="0 0 134.19 60.4"><defs><style>.cls-1{fill:#030104;}</style></defs><g id="Layer_2" data-name="Layer 2"><g id="Layer_1-2" data-name="Layer 1"><path d="M14.7,29.37H16v4.3a2,2,0,0,0,.13.75,1.59,1.59,0,0,0,.37.61,1.78,1.78,0,0,0,.59.41,2.32,2.32,0,0,0,1.64,0,1.78,1.78,0,0,0,.59-.41,1.86,1.86,0,0,0,.36-.61,2.27,2.27,0,0,0,.13-.75v-4.3H21v4.32A3.26,3.26,0,0,1,20.75,35a3,3,0,0,1-.68,1,2.93,2.93,0,0,1-1,.61,3.46,3.46,0,0,1-1.21.21,3.56,3.56,0,0,1-1.22-.21,2.93,2.93,0,0,1-1-.61A2.83,2.83,0,0,1,15,35a3.26,3.26,0,0,1-.26-1.31Z"/><path d="M25.21,32.75l-.14-.13-.25-.16a2.2,2.2,0,0,0-.34-.13,1.32,1.32,0,0,0-.41,0,.88.88,0,0,0-.57.15.44.44,0,0,0,0,.72,1.77,1.77,0,0,0,.65.27c.19.06.41.11.65.17a3.68,3.68,0,0,1,.68.26,1.48,1.48,0,0,1,.54.45,1.23,1.23,0,0,1,.21.75,1.58,1.58,0,0,1-.15.69,1.45,1.45,0,0,1-.45.54,2.24,2.24,0,0,1-.69.35,3.15,3.15,0,0,1-.9.13,3.47,3.47,0,0,1-1.3-.23,2.17,2.17,0,0,1-.81-.51l.74-.86.17.13a1.41,1.41,0,0,0,.3.19,2.19,2.19,0,0,0,.41.16,1.63,1.63,0,0,0,.5.07,1.24,1.24,0,0,0,.64-.15.47.47,0,0,0,.07-.8,2.62,2.62,0,0,0-.68-.27l-.78-.23a2.87,2.87,0,0,1-.66-.3,1.42,1.42,0,0,1-.44-.44,1.14,1.14,0,0,1-.17-.63,1.6,1.6,0,0,1,.15-.7,1.63,1.63,0,0,1,.43-.51,1.88,1.88,0,0,1,.65-.32,3.09,3.09,0,0,1,.83-.11,3,3,0,0,1,.7.07,4.34,4.34,0,0,1,.54.17,2.92,2.92,0,0,1,.4.21l.23.19Z"/><path d="M31.66,36.07a2.12,2.12,0,0,1-.35.23,2.92,2.92,0,0,1-.47.22,3.39,3.39,0,0,1-.59.16,3.66,3.66,0,0,1-.69.07,3,3,0,0,1-1.15-.22,2.53,2.53,0,0,1-.87-.59,2.44,2.44,0,0,1-.55-.87A2.89,2.89,0,0,1,26.8,34a3,3,0,0,1,.2-1.08,2.85,2.85,0,0,1,.57-.87,2.51,2.51,0,0,1,.87-.58,2.73,2.73,0,0,1,1.12-.22,2.78,2.78,0,0,1,1.15.22,2.3,2.3,0,0,1,.84.58,2.4,2.4,0,0,1,.52.87A3.08,3.08,0,0,1,32.25,34a2,2,0,0,1-.06.46H28.08a1.47,1.47,0,0,0,.56.89,1.59,1.59,0,0,0,1,.32,2.06,2.06,0,0,0,.91-.16,2.64,2.64,0,0,0,.52-.31ZM31,33.61a1.25,1.25,0,0,0-.39-.94,1.42,1.42,0,0,0-1-.35,1.48,1.48,0,0,0-1.53,1.29Z"/><path d="M35.88,32.19a2.25,2.25,0,0,1,.35-.31,2.65,2.65,0,0,1,.5-.3,3.93,3.93,0,0,1,.66-.24,3.27,3.27,0,0,1,.78-.09,2.94,2.94,0,0,1,.91.13,2.07,2.07,0,0,1,.73.4,2,2,0,0,1,.48.66,2.4,2.4,0,0,1,.17.92v3.27H39.41l-.08-.73a2,2,0,0,1-.73.61,2.23,2.23,0,0,1-1,.22,2.11,2.11,0,0,1-.73-.12,1.63,1.63,0,0,1-.56-.33,1.49,1.49,0,0,1-.36-.51,1.53,1.53,0,0,1-.13-.64A1.41,1.41,0,0,1,36.38,34a2.76,2.76,0,0,1,1.74-.46h1.17v-.1c0-.73-.38-1.09-1.15-1.09a1.63,1.63,0,0,0-.5.07,2.52,2.52,0,0,0-.44.16,2.58,2.58,0,0,0-.37.22,1.94,1.94,0,0,0-.25.23Zm3.41,2.14H38.22a1.43,1.43,0,0,0-.89.2.65.65,0,0,0-.28.54.68.68,0,0,0,.21.48.89.89,0,0,0,.66.22,1.44,1.44,0,0,0,.51-.09,1.35,1.35,0,0,0,.74-.7,1.19,1.19,0,0,0,.12-.54Z"/><path d="M42.89,36.63H41.67V31.36h1l0,.89a2.77,2.77,0,0,1,.78-.71,1.82,1.82,0,0,1,1-.28,2.18,2.18,0,0,1,1,.19,1.65,1.65,0,0,1,.65.51,2,2,0,0,1,.37.77,3.6,3.6,0,0,1,.12,1v2.94H45.44v-2.8a3.33,3.33,0,0,0,0-.56,1.47,1.47,0,0,0-.18-.46.76.76,0,0,0-.35-.31,1.17,1.17,0,0,0-.56-.11,1.32,1.32,0,0,0-.57.12,1.67,1.67,0,0,0-.45.34,1.77,1.77,0,0,0-.29.5,1.72,1.72,0,0,0-.1.6Z"/><path d="M48.44,31.36l1.37,3.87h0l1.37-3.87h1.36l-3.12,7.81H48.13l1-2.55-2.1-5.26Z"/><path d="M60.23,36a2.37,2.37,0,0,1-.81.57,2.46,2.46,0,0,1-1,.21,2.68,2.68,0,0,1-1.93-.8,2.63,2.63,0,0,1-.57-.87A2.71,2.71,0,0,1,55.68,34a2.76,2.76,0,0,1,.21-1.07,2.85,2.85,0,0,1,.57-.87,2.71,2.71,0,0,1,.87-.58,2.55,2.55,0,0,1,1.06-.22,2.49,2.49,0,0,1,1,.18,2.45,2.45,0,0,1,.76.5V28.69h1.22v7.94h-1ZM56.9,34a1.53,1.53,0,0,0,.13.64,1.49,1.49,0,0,0,.35.53,1.85,1.85,0,0,0,.51.35,1.51,1.51,0,0,0,.63.13,1.65,1.65,0,0,0,.68-.13,1.71,1.71,0,0,0,.51-.35,1.59,1.59,0,0,0,.33-.53,1.69,1.69,0,0,0,.12-.64,1.67,1.67,0,0,0-.12-.65,1.93,1.93,0,0,0-.34-.53,1.6,1.6,0,0,0-1.18-.48,1.55,1.55,0,0,0-1.14.49,1.54,1.54,0,0,0-.35.52A1.57,1.57,0,0,0,56.9,34Z"/><path d="M62.22,34a2.6,2.6,0,0,1,.22-1.07,2.73,2.73,0,0,1,.59-.87,2.94,2.94,0,0,1,2-.81,2.76,2.76,0,0,1,1.12.22,2.66,2.66,0,0,1,.9.59,2.61,2.61,0,0,1,.6.87A2.76,2.76,0,0,1,67.9,34a2.71,2.71,0,0,1-.21,1.06,2.42,2.42,0,0,1-.6.87,2.66,2.66,0,0,1-.9.59,2.94,2.94,0,0,1-1.12.22,3,3,0,0,1-1.13-.22,2.8,2.8,0,0,1-.91-.59A2.74,2.74,0,0,1,62.22,34Zm1.21,0a1.53,1.53,0,0,0,.13.64,1.59,1.59,0,0,0,.33.53,1.9,1.9,0,0,0,.52.35,1.51,1.51,0,0,0,.65.13,1.57,1.57,0,0,0,.65-.13,1.71,1.71,0,0,0,.51-.35,1.61,1.61,0,0,0,.34-.53,1.69,1.69,0,0,0,.12-.64,1.75,1.75,0,0,0-.12-.65,1.67,1.67,0,0,0-.34-.52,1.57,1.57,0,0,0-.51-.36,1.75,1.75,0,0,0-.65-.13,1.67,1.67,0,0,0-.65.13,1.73,1.73,0,0,0-.52.36,1.65,1.65,0,0,0-.33.52A1.57,1.57,0,0,0,63.43,34Z"/><path d="M73.81,35.34a2.45,2.45,0,0,1-1,1,2.72,2.72,0,0,1-1.46.38,2.89,2.89,0,0,1-1.11-.21,2.69,2.69,0,0,1-.89-.58,2.42,2.42,0,0,1-.6-.87,2.86,2.86,0,0,1,0-2.15,2.51,2.51,0,0,1,.6-.87,2.69,2.69,0,0,1,.89-.58,2.89,2.89,0,0,1,1.11-.21,2.81,2.81,0,0,1,1.46.38,2.51,2.51,0,0,1,1,1l-1,.53a1.74,1.74,0,0,0-.57-.61,1.62,1.62,0,0,0-2,.24,1.72,1.72,0,0,0-.34.53,1.72,1.72,0,0,0,0,1.31,1.61,1.61,0,0,0,.34.53,1.73,1.73,0,0,0,.52.36,1.68,1.68,0,0,0,.63.12,1.53,1.53,0,0,0,.84-.24,1.59,1.59,0,0,0,.57-.61Z"/><path d="M75.06,31.36l.27-1.43h.94v1.43h1.58v1H76.27v2.38a1.09,1.09,0,0,0,.16.69.66.66,0,0,0,.53.19,3.8,3.8,0,0,0,.89-.13v1a6.4,6.4,0,0,1-.65.14,3.78,3.78,0,0,1-.56,0,1.62,1.62,0,0,1-1.17-.38,1.48,1.48,0,0,1-.41-1.12V32.38h-.93v-1Z"/><path d="M78.4,34a2.64,2.64,0,0,1,.81-1.94,2.66,2.66,0,0,1,.9-.59,2.85,2.85,0,0,1,1.13-.22,2.81,2.81,0,0,1,1.13.22,2.87,2.87,0,0,1,.9.59,2.94,2.94,0,0,1,.6.87A2.76,2.76,0,0,1,84.08,34a2.64,2.64,0,0,1-.81,1.93,2.87,2.87,0,0,1-.9.59,3,3,0,0,1-1.13.22,3,3,0,0,1-1.13-.22,2.66,2.66,0,0,1-.9-.59,2.55,2.55,0,0,1-.6-.87A2.71,2.71,0,0,1,78.4,34Zm1.21,0a1.69,1.69,0,0,0,.12.64,1.46,1.46,0,0,0,.34.53,1.71,1.71,0,0,0,.51.35,1.57,1.57,0,0,0,.65.13,1.51,1.51,0,0,0,.65-.13,1.9,1.9,0,0,0,.52-.35,1.59,1.59,0,0,0,.33-.53,1.7,1.7,0,0,0,.13-.64,1.75,1.75,0,0,0-.13-.65,1.65,1.65,0,0,0-.33-.52,1.73,1.73,0,0,0-.52-.36,1.67,1.67,0,0,0-.65-.13,1.75,1.75,0,0,0-.65.13,1.57,1.57,0,0,0-.51.36,1.51,1.51,0,0,0-.34.52A1.75,1.75,0,0,0,79.61,34Z"/><path d="M86.2,36.63H85V31.36h1l.06.86a2.29,2.29,0,0,1,.62-.69,1.37,1.37,0,0,1,.86-.28,1.65,1.65,0,0,1,.55.1v1.18a1.18,1.18,0,0,0-.3-.07l-.27,0a1.25,1.25,0,0,0-1,.4A1.55,1.55,0,0,0,86.2,34Z"/><path d="M94.62,31.05a.67.67,0,0,0-.17-.43.6.6,0,0,0-.46-.2.57.57,0,0,0-.44.18.58.58,0,0,0-.17.41.7.7,0,0,0,.05.25,2.09,2.09,0,0,0,.16.27,3.3,3.3,0,0,0,.27.33c.11.11.24.26.39.43l2,2.15a3.57,3.57,0,0,0,.1-.35,1.58,1.58,0,0,0,0-.38h1.2a2.73,2.73,0,0,1-.13.87,2.91,2.91,0,0,1-.37.75l1.23,1.3H97l-.53-.56a3.33,3.33,0,0,1-1,.51,3.37,3.37,0,0,1-1.09.18,4.28,4.28,0,0,1-1.16-.16,3,3,0,0,1-.92-.47,2.15,2.15,0,0,1-.62-.78,2.38,2.38,0,0,1-.23-1.07,2.06,2.06,0,0,1,.11-.65,3.06,3.06,0,0,1,.29-.57,2.41,2.41,0,0,1,.42-.48,3.75,3.75,0,0,1,.51-.38c-.12-.14-.22-.27-.3-.38a1.58,1.58,0,0,1-.19-.32,1.41,1.41,0,0,1-.09-.32,2,2,0,0,1,0-.36,1.34,1.34,0,0,1,.13-.59,1.48,1.48,0,0,1,.37-.49,1.63,1.63,0,0,1,.56-.33,2.11,2.11,0,0,1,.73-.12,1.81,1.81,0,0,1,1.71,1.11,1.58,1.58,0,0,1,.13.63Zm-1.93,3.21a1.2,1.2,0,0,0,.51,1,1.73,1.73,0,0,0,.53.25,2.69,2.69,0,0,0,.65.08,2.14,2.14,0,0,0,.65-.1,1.71,1.71,0,0,0,.59-.29L93.5,33a2,2,0,0,0-.56.49A1.15,1.15,0,0,0,92.69,34.26Z"/><path d="M101.76,29.37h5.31v.82l-3.62,5.26h3.67v1.18h-5.36v-.81l3.63-5.27h-3.63Z"/><path d="M113.4,36.63h-5.2V29.37h5.15v1.16h-3.9v1.85h3.8V33.5h-3.8v2h4Z"/><path d="M114.48,36.63V29.37h3.16a3.14,3.14,0,0,1,1.06.17,2.29,2.29,0,0,1,.79.46,2.06,2.06,0,0,1,.49.71,2.47,2.47,0,0,1,.16.92,2,2,0,0,1-.41,1.25,2.26,2.26,0,0,1-1.1.75l1.73,3H119l-1.59-2.81h-1.66v2.81Zm1.25-6.08V32.7h1.91a1.5,1.5,0,0,0,.92-.26,1,1,0,0,0,.34-.8,1,1,0,0,0-.34-.82,1.44,1.44,0,0,0-.92-.27Z"/><path d="M120.79,33a3.66,3.66,0,0,1,.3-1.48,3.6,3.6,0,0,1,.8-1.21,3.83,3.83,0,0,1,1.22-.81,3.76,3.76,0,0,1,1.5-.3,3.8,3.8,0,0,1,3.53,5.26,3.85,3.85,0,0,1-.81,1.2,3.89,3.89,0,0,1-4.22.81,3.83,3.83,0,0,1-1.22-.81,3.83,3.83,0,0,1-1.1-2.66ZM122,33a2.55,2.55,0,0,0,.2,1,2.32,2.32,0,0,0,.55.82,2.53,2.53,0,0,0,.81.55,2.64,2.64,0,0,0,1,.2,2.6,2.6,0,0,0,1-.2A2.52,2.52,0,0,0,127,34a2.38,2.38,0,0,0,.2-1,2.52,2.52,0,0,0-.2-1,2.66,2.66,0,0,0-.54-.82,2.42,2.42,0,0,0-.81-.55,2.6,2.6,0,0,0-1-.2,2.64,2.64,0,0,0-1,.2A2.58,2.58,0,0,0,122.24,32,2.7,2.7,0,0,0,122,33Z"/><path d="M14.4,45.83a2.72,2.72,0,0,1,.22-1.06,2.55,2.55,0,0,1,.6-.88,2.66,2.66,0,0,1,.9-.59,3,3,0,0,1,1.13-.22,3,3,0,0,1,1.13.22,2.87,2.87,0,0,1,.9.59,2.67,2.67,0,0,1,.59.88,2.55,2.55,0,0,1,.22,1.06,2.6,2.6,0,0,1-.22,1.07,2.73,2.73,0,0,1-.59.87,3,3,0,0,1-.9.58,2.81,2.81,0,0,1-1.13.22,2.85,2.85,0,0,1-1.13-.22,2.79,2.79,0,0,1-.9-.58,2.61,2.61,0,0,1-.6-.87A2.77,2.77,0,0,1,14.4,45.83Zm1.22,0a1.78,1.78,0,0,0,.12.65,1.51,1.51,0,0,0,.34.52,1.41,1.41,0,0,0,.51.35A1.66,1.66,0,0,0,18.41,47a1.65,1.65,0,0,0,.33-.52,1.82,1.82,0,0,0,0-1.3,1.65,1.65,0,0,0-.33-.52,1.7,1.7,0,0,0-.52-.35,1.63,1.63,0,0,0-1.81.35,1.51,1.51,0,0,0-.34.52A1.78,1.78,0,0,0,15.62,45.82Z"/><path d="M24.69,43.18h1.2v5.28H24.84l-.05-.86a2.64,2.64,0,0,1-.76.69,2,2,0,0,1-1,.27,2.41,2.41,0,0,1-1-.19,1.94,1.94,0,0,1-.65-.51,2.33,2.33,0,0,1-.36-.78,4.15,4.15,0,0,1-.11-1V43.18h1.22v2.68a3.26,3.26,0,0,0,.05.64,1.47,1.47,0,0,0,.17.5,1,1,0,0,0,.36.32,1.35,1.35,0,0,0,.57.11,1.24,1.24,0,0,0,.56-.13,1.17,1.17,0,0,0,.45-.34,1.48,1.48,0,0,0,.3-.5,1.73,1.73,0,0,0,.11-.6Z"/><path d="M27.61,43.18l.27-1.43h.94v1.43h1.57v1H28.82v2.38a1.09,1.09,0,0,0,.16.69.66.66,0,0,0,.53.19,3.73,3.73,0,0,0,.88-.13v1a4.11,4.11,0,0,1-.64.14,3.87,3.87,0,0,1-.56.05A1.6,1.6,0,0,1,28,48.17a1.47,1.47,0,0,1-.41-1.11V44.2h-.93v-1Z"/><path d="M32.49,43.27l0,.69a2.32,2.32,0,0,1,.8-.58,2.46,2.46,0,0,1,1-.21,2.56,2.56,0,0,1,1.07.22,2.63,2.63,0,0,1,1.43,1.45,2.76,2.76,0,0,1,.21,1.07A2.71,2.71,0,0,1,36.87,47a2.78,2.78,0,0,1-.57.88,2.83,2.83,0,0,1-.86.58,2.73,2.73,0,0,1-1.07.22,2.49,2.49,0,0,1-1-.19,2.29,2.29,0,0,1-.75-.5v3.26H31.44V43.27Zm3.38,2.64a1.61,1.61,0,0,0-.13-.65,1.54,1.54,0,0,0-.35-.52,1.58,1.58,0,0,0-.53-.35,1.46,1.46,0,0,0-.63-.14,1.59,1.59,0,0,0-.66.14,1.52,1.52,0,0,0-.85.87,1.78,1.78,0,0,0-.12.65,1.69,1.69,0,0,0,.12.64,1.61,1.61,0,0,0,.34.53,1.57,1.57,0,0,0,.51.36,1.76,1.76,0,0,0,.66.12,1.45,1.45,0,0,0,.63-.13,1.75,1.75,0,0,0,.53-.35,1.49,1.49,0,0,0,.35-.53A1.53,1.53,0,0,0,35.87,45.91Z"/><path d="M37.79,44a2.92,2.92,0,0,1,.35-.31,2.65,2.65,0,0,1,.5-.3,3.93,3.93,0,0,1,.66-.23,2.78,2.78,0,0,1,.78-.1,2.94,2.94,0,0,1,.91.14,2.05,2.05,0,0,1,.73.39,2,2,0,0,1,.48.66,2.4,2.4,0,0,1,.17.92v3.28h-1l-.08-.74a2.18,2.18,0,0,1-.73.62,2.37,2.37,0,0,1-1,.22,2.11,2.11,0,0,1-.73-.12,1.82,1.82,0,0,1-.56-.34,1.32,1.32,0,0,1-.36-.51A1.45,1.45,0,0,1,37.7,47a1.43,1.43,0,0,1,.58-1.17A2.86,2.86,0,0,1,40,45.33H41.2v-.09c0-.73-.38-1.1-1.15-1.1a2,2,0,0,0-.5.07,1.92,1.92,0,0,0-.44.17,1.51,1.51,0,0,0-.37.22,2,2,0,0,0-.26.23Zm3.41,2.14H40.13a1.36,1.36,0,0,0-.89.21.63.63,0,0,0-.28.53.7.7,0,0,0,.21.49.94.94,0,0,0,.66.22,1.41,1.41,0,0,0,.94-.37,1.31,1.31,0,0,0,.31-.42,1.26,1.26,0,0,0,.12-.55Z"/><path d="M44,43.18l.27-1.43h.93v1.43h1.58v1H45.2v2.38a1.09,1.09,0,0,0,.17.69.66.66,0,0,0,.53.19,3.73,3.73,0,0,0,.88-.13v1a4.38,4.38,0,0,1-.64.14,4,4,0,0,1-.56.05,1.63,1.63,0,0,1-1.18-.39,1.47,1.47,0,0,1-.4-1.11V44.2h-.94v-1Z"/><path d="M47.63,41.73a.78.78,0,0,1,.24-.59.83.83,0,0,1,1.41.59.85.85,0,0,1-.25.59.8.8,0,0,1-1.16,0A.84.84,0,0,1,47.63,41.73Zm.21,1.45h1.21v5.28H47.84Z"/><path d="M54.87,47.9c-.1.07-.21.15-.35.23a3.61,3.61,0,0,1-.48.22,4,4,0,0,1-.58.16,3.88,3.88,0,0,1-.7.06,2.76,2.76,0,0,1-1.14-.22A2.49,2.49,0,0,1,50.2,46.9a3,3,0,0,1-.2-1.07,2.72,2.72,0,0,1,.21-1.07,2.48,2.48,0,0,1,.57-.88,2.65,2.65,0,0,1,.87-.58,2.89,2.89,0,0,1,1.11-.22,3,3,0,0,1,1.16.22,2.52,2.52,0,0,1,.84.58,2.55,2.55,0,0,1,.52.87,3.12,3.12,0,0,1,.18,1.07,2,2,0,0,1-.06.46H51.28a1.5,1.5,0,0,0,.57.9,1.64,1.64,0,0,0,1,.32A2,2,0,0,0,54.27,47Zm-.67-2.47a1.27,1.27,0,0,0-.39-.94,1.44,1.44,0,0,0-1-.35,1.53,1.53,0,0,0-1,.35,1.67,1.67,0,0,0-.51.94Z"/><path d="M57.65,48.46H56.44V43.18h1.05l0,.9a2.51,2.51,0,0,1,.77-.72,1.94,1.94,0,0,1,1-.28,2.36,2.36,0,0,1,1,.19,1.94,1.94,0,0,1,.65.51,2.2,2.2,0,0,1,.37.77,3.72,3.72,0,0,1,.11,1v3H60.2v-2.8a3.45,3.45,0,0,0-.05-.57,1.17,1.17,0,0,0-.18-.46.85.85,0,0,0-.34-.31,1.35,1.35,0,0,0-.57-.11,1.18,1.18,0,0,0-.56.13,1.28,1.28,0,0,0-.45.34,1.51,1.51,0,0,0-.29.49,1.74,1.74,0,0,0-.11.61Z"/><path d="M63,43.18l.27-1.43h.94v1.43h1.57v1H64.21v2.38a1.09,1.09,0,0,0,.16.69.66.66,0,0,0,.53.19,3.73,3.73,0,0,0,.88-.13v1a4.11,4.11,0,0,1-.64.14,3.87,3.87,0,0,1-.56.05,1.6,1.6,0,0,1-1.17-.39A1.47,1.47,0,0,1,63,47.06V44.2h-.93v-1Z"/><path d="M74.09,47.9a3,3,0,0,1-.35.23,4.12,4.12,0,0,1-.47.22,4.59,4.59,0,0,1-.59.16,3.69,3.69,0,0,1-.69.06,2.81,2.81,0,0,1-1.15-.22,2.49,2.49,0,0,1-1.42-1.45,2.94,2.94,0,0,1-.19-1.07,2.91,2.91,0,0,1,.2-1.07,2.78,2.78,0,0,1,.57-.88,2.65,2.65,0,0,1,.87-.58A2.9,2.9,0,0,1,72,43.08a3,3,0,0,1,1.15.22,2.52,2.52,0,0,1,.84.58,2.55,2.55,0,0,1,.52.87,3.12,3.12,0,0,1,.18,1.07,2,2,0,0,1-.06.46H70.51a1.49,1.49,0,0,0,.56.9,1.66,1.66,0,0,0,1,.32,2.22,2.22,0,0,0,.91-.16A2.62,2.62,0,0,0,73.5,47Zm-.67-2.47a1.27,1.27,0,0,0-.39-.94,1.42,1.42,0,0,0-1-.35,1.52,1.52,0,0,0-1,.35,1.56,1.56,0,0,0-.51.94Z"/><path d="M76.57,43.18l1.14,1.68h0l1.15-1.68h1.43l-1.86,2.57v0l1.93,2.68H79l-1.23-1.8h0l-1.23,1.8H75L77,45.78v0l-1.84-2.57Z"/><path d="M82.19,43.27l0,.69a2.32,2.32,0,0,1,.8-.58,2.46,2.46,0,0,1,1-.21,2.56,2.56,0,0,1,1.07.22A2.72,2.72,0,0,1,86,44a2.85,2.85,0,0,1,.57.87,2.76,2.76,0,0,1,.21,1.07A2.71,2.71,0,0,1,86.57,47a2.78,2.78,0,0,1-.57.88,2.74,2.74,0,0,1-1.93.8,2.53,2.53,0,0,1-1-.19,2.29,2.29,0,0,1-.75-.5v3.26H81.14V43.27Zm3.38,2.64a1.61,1.61,0,0,0-.13-.65,1.54,1.54,0,0,0-.35-.52,1.64,1.64,0,0,0-.52-.35,1.52,1.52,0,0,0-.63-.14,1.6,1.6,0,0,0-.67.14,1.45,1.45,0,0,0-.52.35,1.65,1.65,0,0,0-.33.52,1.78,1.78,0,0,0-.12.65,1.69,1.69,0,0,0,.12.64,1.79,1.79,0,0,0,.34.53,1.68,1.68,0,0,0,.51.36,1.78,1.78,0,0,0,.67.12,1.51,1.51,0,0,0,.63-.13,1.83,1.83,0,0,0,.52-.35,1.49,1.49,0,0,0,.35-.53A1.53,1.53,0,0,0,85.57,45.91Z"/><path d="M92.31,47.9a3,3,0,0,1-.35.23,4.12,4.12,0,0,1-.47.22,4.59,4.59,0,0,1-.59.16,3.69,3.69,0,0,1-.69.06,2.81,2.81,0,0,1-1.15-.22,2.49,2.49,0,0,1-1.42-1.45,2.94,2.94,0,0,1-.19-1.07,2.72,2.72,0,0,1,.2-1.07,2.78,2.78,0,0,1,.57-.88,2.65,2.65,0,0,1,.87-.58,2.9,2.9,0,0,1,1.12-.22,3,3,0,0,1,1.15.22,2.52,2.52,0,0,1,.84.58,2.55,2.55,0,0,1,.52.87,3.12,3.12,0,0,1,.18,1.07,2,2,0,0,1-.06.46H88.73a1.45,1.45,0,0,0,.56.9,1.66,1.66,0,0,0,1,.32,2.22,2.22,0,0,0,.91-.16,2.62,2.62,0,0,0,.52-.32Zm-.67-2.47a1.27,1.27,0,0,0-.39-.94,1.44,1.44,0,0,0-1-.35,1.52,1.52,0,0,0-1,.35,1.62,1.62,0,0,0-.52.94Z"/><path d="M95.09,48.46H93.88V43.18h1.05l0,.9a2.63,2.63,0,0,1,.77-.72,2,2,0,0,1,1-.28,2.33,2.33,0,0,1,1,.19,1.94,1.94,0,0,1,.65.51,2.2,2.2,0,0,1,.37.77,3.71,3.71,0,0,1,.12,1v3H97.64v-2.8a2.63,2.63,0,0,0,0-.57,1.33,1.33,0,0,0-.17-.46.88.88,0,0,0-.35-.31,1.33,1.33,0,0,0-.56-.11,1.2,1.2,0,0,0-.57.13,1.37,1.37,0,0,0-.45.34,1.72,1.72,0,0,0-.29.49,1.74,1.74,0,0,0-.11.61Z"/><path d="M103,44.57l-.15-.12a1.11,1.11,0,0,0-.24-.16l-.34-.14a1.77,1.77,0,0,0-.41,0,.88.88,0,0,0-.57.15.47.47,0,0,0-.19.38.45.45,0,0,0,.18.34,1.75,1.75,0,0,0,.65.28l.65.17a3.09,3.09,0,0,1,.68.26,1.77,1.77,0,0,1,.54.44,1.23,1.23,0,0,1,.21.75,1.58,1.58,0,0,1-.15.69,1.31,1.31,0,0,1-.45.54,2.14,2.14,0,0,1-.69.35,2.84,2.84,0,0,1-.9.13,3.43,3.43,0,0,1-1.3-.23,2.17,2.17,0,0,1-.81-.51l.74-.86.17.14a2,2,0,0,0,.3.18,1.67,1.67,0,0,0,.41.16,1.63,1.63,0,0,0,.5.07,1.24,1.24,0,0,0,.64-.15.45.45,0,0,0,.26-.42.43.43,0,0,0-.2-.37,1.9,1.9,0,0,0-.67-.27l-.78-.23a3.37,3.37,0,0,1-.66-.31,1.43,1.43,0,0,1-.45-.43,1.14,1.14,0,0,1-.16-.63A1.54,1.54,0,0,1,100,44a1.56,1.56,0,0,1,.43-.52,2,2,0,0,1,.65-.32,3.09,3.09,0,0,1,.83-.11,3.68,3.68,0,0,1,.7.07,3.42,3.42,0,0,1,.54.18,1.66,1.66,0,0,1,.4.21l.23.18Z"/><path d="M109.48,47.9a3,3,0,0,1-.35.23,4.12,4.12,0,0,1-.47.22,4.59,4.59,0,0,1-.59.16,3.69,3.69,0,0,1-.69.06,2.81,2.81,0,0,1-1.15-.22,2.49,2.49,0,0,1-1.42-1.45,2.94,2.94,0,0,1-.19-1.07,2.72,2.72,0,0,1,.2-1.07,2.78,2.78,0,0,1,.57-.88,2.65,2.65,0,0,1,.87-.58,2.9,2.9,0,0,1,1.12-.22,3,3,0,0,1,1.15.22,2.52,2.52,0,0,1,.84.58,2.55,2.55,0,0,1,.52.87,3.12,3.12,0,0,1,.18,1.07,2,2,0,0,1-.06.46H105.9a1.45,1.45,0,0,0,.56.9,1.66,1.66,0,0,0,1,.32,2.22,2.22,0,0,0,.91-.16,2.62,2.62,0,0,0,.52-.32Zm-.67-2.47a1.27,1.27,0,0,0-.39-.94,1.44,1.44,0,0,0-1-.35,1.52,1.52,0,0,0-1,.35,1.62,1.62,0,0,0-.52.94Z"/><path d="M19,59.6a2.58,2.58,0,0,1-.81.57,2.5,2.5,0,0,1-1,.21,2.67,2.67,0,0,1-1.06-.21,2.73,2.73,0,0,1-1.45-1.46,2.81,2.81,0,0,1,0-2.13,2.65,2.65,0,0,1,.58-.87,2.91,2.91,0,0,1,.87-.59,2.67,2.67,0,0,1,1.06-.21,2.49,2.49,0,0,1,1,.18,2.45,2.45,0,0,1,.76.5V52.34h1.21v7.94H19Zm-3.33-2a1.69,1.69,0,0,0,.47,1.17,1.73,1.73,0,0,0,.52.36,1.51,1.51,0,0,0,.63.13,1.57,1.57,0,0,0,.67-.13,1.61,1.61,0,0,0,.52-.36,1.54,1.54,0,0,0,.33-.52,1.89,1.89,0,0,0,0-1.3,1.65,1.65,0,0,0-.33-.52,1.54,1.54,0,0,0-.52-.35,1.59,1.59,0,0,0-.66-.13,1.51,1.51,0,0,0-.63.13,1.9,1.9,0,0,0-.52.35,1.72,1.72,0,0,0-.34.53A1.56,1.56,0,0,0,15.63,57.64Z"/><path d="M25.83,59.72l-.36.23a2.92,2.92,0,0,1-.47.22,3.16,3.16,0,0,1-.59.16,3.69,3.69,0,0,1-.69.06,3,3,0,0,1-1.15-.21,2.55,2.55,0,0,1-1.42-1.46A2.89,2.89,0,0,1,21,57.66a2.92,2.92,0,0,1,.2-1.08,2.63,2.63,0,0,1,.57-.87,2.79,2.79,0,0,1,.87-.59,2.9,2.9,0,0,1,1.12-.21,3,3,0,0,1,1.15.21,2.49,2.49,0,0,1,.85.59,2.4,2.4,0,0,1,.51.86,3.12,3.12,0,0,1,.18,1.07,2.79,2.79,0,0,1-.05.47H22.24a1.51,1.51,0,0,0,.56.89,1.67,1.67,0,0,0,1,.32,2,2,0,0,0,.9-.16,2.84,2.84,0,0,0,.52-.31Zm-.68-2.46a1.25,1.25,0,0,0-.38-.95,1.45,1.45,0,0,0-1-.34,1.51,1.51,0,0,0-1,.34,1.58,1.58,0,0,0-.51.95Z"/><path d="M31.56,59.6a2.37,2.37,0,0,1-.81.57,2.46,2.46,0,0,1-1,.21,2.71,2.71,0,0,1-1.06-.21,2.74,2.74,0,0,1-.86-.59,2.78,2.78,0,0,1-.58-3,2.51,2.51,0,0,1,.58-.87,2.74,2.74,0,0,1,.86-.59,2.71,2.71,0,0,1,1.06-.21,2.42,2.42,0,0,1,1,.18,2.45,2.45,0,0,1,.76.5V52.34h1.22v7.94h-1Zm-3.33-2a1.57,1.57,0,0,0,.13.65,1.45,1.45,0,0,0,.35.52,1.61,1.61,0,0,0,.52.36,1.44,1.44,0,0,0,.62.13,1.65,1.65,0,0,0,.68-.13,1.57,1.57,0,0,0,.51-.36,1.54,1.54,0,0,0,.33-.52,1.82,1.82,0,0,0,0-1.3,1.67,1.67,0,0,0-.34-.52,1.5,1.5,0,0,0-.51-.35,1.6,1.6,0,0,0-.67-.13,1.44,1.44,0,0,0-.62.13,1.76,1.76,0,0,0-.52.35,1.58,1.58,0,0,0-.35.53A1.56,1.56,0,0,0,28.23,57.64Z"/><path d="M37.62,55h1.21v5.27h-1l-.06-.86a2.51,2.51,0,0,1-.76.69,2,2,0,0,1-1,.27,2.21,2.21,0,0,1-1-.19,1.58,1.58,0,0,1-.65-.51,2,2,0,0,1-.36-.77,3.74,3.74,0,0,1-.11-1V55h1.21v2.68a4,4,0,0,0,.05.63,1.24,1.24,0,0,0,.18.5.84.84,0,0,0,.35.32,1.2,1.2,0,0,0,.57.12,1.32,1.32,0,0,0,.56-.13,1.41,1.41,0,0,0,.45-.34,1.53,1.53,0,0,0,.3-.51,1.51,1.51,0,0,0,.11-.59Z"/><path d="M45,59a2.45,2.45,0,0,1-1,1,2.81,2.81,0,0,1-1.46.38,2.89,2.89,0,0,1-1.11-.21,2.69,2.69,0,0,1-.89-.58,2.65,2.65,0,0,1-.6-.87,2.88,2.88,0,0,1,0-2.16,2.61,2.61,0,0,1,.6-.86,2.69,2.69,0,0,1,.89-.58,2.89,2.89,0,0,1,1.11-.21,2.72,2.72,0,0,1,1.46.38,2.45,2.45,0,0,1,1,1l-1,.53a1.59,1.59,0,0,0-.57-.61,1.53,1.53,0,0,0-.84-.24,1.68,1.68,0,0,0-.63.12,1.61,1.61,0,0,0-.86.89,1.72,1.72,0,0,0,0,1.31,1.72,1.72,0,0,0,.34.53,1.54,1.54,0,0,0,.52.35,1.59,1.59,0,0,0,1.47-.11,1.66,1.66,0,0,0,.57-.61Z"/><path d="M46.29,55l.26-1.44h.94V55h1.58v1H47.49v2.39a1.09,1.09,0,0,0,.16.69.7.7,0,0,0,.53.19,4.42,4.42,0,0,0,.89-.13v1a4.6,4.6,0,0,1-.65.15,3.78,3.78,0,0,1-.56,0A1.62,1.62,0,0,1,46.69,60a1.44,1.44,0,0,1-.4-1.11V56h-.94V55Z"/><path d="M49.92,53.55a.8.8,0,0,1,.81-.83.81.81,0,0,1,.59.24.79.79,0,0,1,.24.59.81.81,0,0,1-.24.59.78.78,0,0,1-.59.25.76.76,0,0,1-.58-.25A.8.8,0,0,1,49.92,53.55ZM50.13,55h1.21v5.27H50.13Z"/><path d="M52.71,52.34h1.2v3.25a2.34,2.34,0,0,1,.76-.5,2.47,2.47,0,0,1,1-.18,2.64,2.64,0,0,1,1.93.8,2.51,2.51,0,0,1,.58.87,2.75,2.75,0,0,1-.58,3,2.64,2.64,0,0,1-1.93.8,2.42,2.42,0,0,1-1-.21,2.58,2.58,0,0,1-.81-.57l0,.68h-1Zm4.42,5.3A1.56,1.56,0,0,0,57,57a1.58,1.58,0,0,0-.35-.53,1.9,1.9,0,0,0-.52-.35A1.51,1.51,0,0,0,55.5,56a1.59,1.59,0,0,0-.66.13,1.67,1.67,0,0,0-.52.34A1.69,1.69,0,0,0,54,57a1.89,1.89,0,0,0,0,1.3,1.54,1.54,0,0,0,.33.52,1.73,1.73,0,0,0,.52.36,1.63,1.63,0,0,0,.67.13,1.51,1.51,0,0,0,.63-.13,1.73,1.73,0,0,0,.52-.36,1.45,1.45,0,0,0,.35-.52A1.57,1.57,0,0,0,57.13,57.64Z"/><path d="M60.45,60.28H59.24V52.34h1.21Z"/><path d="M66.21,59.72a3,3,0,0,1-.35.23,2.92,2.92,0,0,1-.47.22,3.39,3.39,0,0,1-.59.16,3.69,3.69,0,0,1-.69.06A3,3,0,0,1,63,60.18a2.68,2.68,0,0,1-.87-.59,2.53,2.53,0,0,1-.55-.87,2.89,2.89,0,0,1-.19-1.06,2.92,2.92,0,0,1,.2-1.08,2.63,2.63,0,0,1,.57-.87,2.68,2.68,0,0,1,.87-.59,2.9,2.9,0,0,1,1.12-.21,3,3,0,0,1,1.15.21,2.45,2.45,0,0,1,.84.59,2.42,2.42,0,0,1,.52.86,3.12,3.12,0,0,1,.18,1.07,2.09,2.09,0,0,1-.06.47H62.63a1.47,1.47,0,0,0,.56.89,1.66,1.66,0,0,0,1,.32,2.06,2.06,0,0,0,.91-.16,3.23,3.23,0,0,0,.52-.31Zm-.67-2.46a1.29,1.29,0,0,0-.39-.95,1.42,1.42,0,0,0-1-.34,1.51,1.51,0,0,0-1,.34,1.58,1.58,0,0,0-.51.95Z"/><path d="M70.7,56.4l-.15-.13a1.36,1.36,0,0,0-.25-.16A2.52,2.52,0,0,0,70,56a1.35,1.35,0,0,0-.41-.06.87.87,0,0,0-.58.16.47.47,0,0,0-.18.37.43.43,0,0,0,.18.34,1.6,1.6,0,0,0,.65.28l.65.17a3.09,3.09,0,0,1,.68.26,1.67,1.67,0,0,1,.54.45,1.18,1.18,0,0,1,.21.74,1.48,1.48,0,0,1-.6,1.24,2.42,2.42,0,0,1-.7.35,3.11,3.11,0,0,1-.9.12,3.42,3.42,0,0,1-1.29-.22,2.06,2.06,0,0,1-.81-.52l.74-.86.17.14a1.3,1.3,0,0,0,.3.19,2.7,2.7,0,0,0,.41.16,2,2,0,0,0,.5.07,1.37,1.37,0,0,0,.64-.15.49.49,0,0,0,.26-.43.45.45,0,0,0-.2-.37,1.9,1.9,0,0,0-.67-.27l-.78-.23a2.69,2.69,0,0,1-.66-.3,1.58,1.58,0,0,1-.45-.44,1.14,1.14,0,0,1-.16-.63,1.57,1.57,0,0,1,.15-.7,1.5,1.5,0,0,1,.43-.51,1.8,1.8,0,0,1,.65-.32,2.73,2.73,0,0,1,.83-.11,2.87,2.87,0,0,1,.69.07,3.26,3.26,0,0,1,.55.17,2.29,2.29,0,0,1,.39.21,1.28,1.28,0,0,1,.23.19Z"/><path d="M20,2.28a1.68,1.68,0,0,0-.69-.44,2.56,2.56,0,0,0-.94-.17c-.72,0-1.13.25-1.25.77a.69.69,0,0,0,.18.67,2.76,2.76,0,0,0,.9.53c.32.13.62.26.9.4a2.82,2.82,0,0,1,.72.48,1.6,1.6,0,0,1,.44.63,1.64,1.64,0,0,1,0,.86,2.44,2.44,0,0,1-.35.86,2.63,2.63,0,0,1-.64.65,3.08,3.08,0,0,1-.9.4,3.92,3.92,0,0,1-1.11.15A5.42,5.42,0,0,1,16.5,8a4.46,4.46,0,0,1-.76-.21,2.94,2.94,0,0,1-.64-.32,1.74,1.74,0,0,1-.47-.42l.92-.89a1.49,1.49,0,0,0,.35.3,3,3,0,0,0,.47.24,3.06,3.06,0,0,0,.54.15,2.86,2.86,0,0,0,.58.06,2,2,0,0,0,1-.24A1,1,0,0,0,19,6a.72.72,0,0,0-.23-.69,3,3,0,0,0-1-.53c-.32-.13-.62-.26-.89-.4a2.82,2.82,0,0,1-.67-.46,1.49,1.49,0,0,1-.38-.62,1.72,1.72,0,0,1,0-.82A2.2,2.2,0,0,1,16.73,1a3,3,0,0,1,1.8-.51,4.52,4.52,0,0,1,.74.06,4.72,4.72,0,0,1,.67.19,3,3,0,0,1,.57.29,2,2,0,0,1,.42.38Z"/><path d="M21.62,3.45c.11-.08.25-.18.42-.28a5.59,5.59,0,0,1,.6-.3,4.91,4.91,0,0,1,.71-.22,3.42,3.42,0,0,1,.79-.09,2.73,2.73,0,0,1,.89.13,1.44,1.44,0,0,1,.64.39,1.41,1.41,0,0,1,.35.66,2.1,2.1,0,0,1,0,.93L25.35,8H24.29l.07-.74a2.7,2.7,0,0,1-.86.61A2.47,2.47,0,0,1,22.43,8a1.68,1.68,0,0,1-.7-.13,1.35,1.35,0,0,1-.49-.37A1.48,1.48,0,0,1,21,7a1.72,1.72,0,0,1,0-.64,1.69,1.69,0,0,1,.81-1.12,3.4,3.4,0,0,1,1.83-.42h1.16l0-.1C25,4,24.71,3.63,24,3.63a2,2,0,0,0-.53.07,4.16,4.16,0,0,0-.5.16l-.44.22a2.54,2.54,0,0,0-.32.21Zm3,2.19H23.56a1.69,1.69,0,0,0-.92.18.74.74,0,0,0-.38.51.62.62,0,0,0,0,.27.5.5,0,0,0,.09.24.53.53,0,0,0,.21.18,1,1,0,0,0,.36.06A1.69,1.69,0,0,0,23.44,7,1.72,1.72,0,0,0,24,6.72a2.33,2.33,0,0,0,.41-.42,1.42,1.42,0,0,0,.24-.55Z"/><path d="M28.1,2.67l.62,4h0l2.22-4h1.42L29.28,8H27.79l-1-5.28Z"/><path d="M36.38,7.42a4.86,4.86,0,0,1-.93.43,3.91,3.91,0,0,1-1.33.21A2.75,2.75,0,0,1,33,7.84a2,2,0,0,1-.75-.58,2.11,2.11,0,0,1-.37-.88,2.71,2.71,0,0,1,0-1.06,3.52,3.52,0,0,1,.4-1.08,3.63,3.63,0,0,1,.74-.87,3.49,3.49,0,0,1,1-.58,3,3,0,0,1,1.15-.22,2.54,2.54,0,0,1,1.12.22,1.85,1.85,0,0,1,.73.58,2.11,2.11,0,0,1,.36.87,3,3,0,0,1,0,1.07l-.06.22a2.25,2.25,0,0,1-.08.24H33.1a1.26,1.26,0,0,0,.33.89,1.24,1.24,0,0,0,.91.31,2.67,2.67,0,0,0,1-.16,4.55,4.55,0,0,0,.62-.3Zm-.19-2.5A1.14,1.14,0,0,0,36,4a1.11,1.11,0,0,0-.91-.35A1.89,1.89,0,0,0,34,4a2,2,0,0,0-.73.94Z"/><path d="M41.68,6.08a.75.75,0,0,0,.1.31.94.94,0,0,0,.25.28,1.22,1.22,0,0,0,.39.21,1.37,1.37,0,0,0,.51.08,1.63,1.63,0,0,0,1-.3,1.25,1.25,0,0,0,.48-.77A.87.87,0,0,0,44.17,5,1.66,1.66,0,0,0,43,4.7h-.41l.2-1h.42a1.93,1.93,0,0,0,1.15-.32A1.34,1.34,0,0,0,45,2.56a.73.73,0,0,0-.15-.65A1,1,0,0,0,44,1.66a1.63,1.63,0,0,0-.88.23,1.42,1.42,0,0,0-.57.57L41.52,2a2.36,2.36,0,0,1,.41-.56A2.7,2.7,0,0,1,42.55,1a3.73,3.73,0,0,1,.79-.32,3.58,3.58,0,0,1,.95-.12,2.65,2.65,0,0,1,.92.15,1.69,1.69,0,0,1,.66.41,1.41,1.41,0,0,1,.35.62,1.57,1.57,0,0,1,0,.78,2.14,2.14,0,0,1-.5,1,2.53,2.53,0,0,1-.93.67,1.66,1.66,0,0,1,.76.72,1.78,1.78,0,0,1,.11,1.19,2.15,2.15,0,0,1-.34.81,2.36,2.36,0,0,1-.62.64,2.93,2.93,0,0,1-.87.42,3.62,3.62,0,0,1-1.06.15,2.79,2.79,0,0,1-1.67-.44,1.66,1.66,0,0,1-.68-1.17Z"/><path d="M47.25,4.31a6.76,6.76,0,0,1,.55-1.68,4.45,4.45,0,0,1,.84-1.18,3,3,0,0,1,1-.69A3,3,0,0,1,50.85.53a2.32,2.32,0,0,1,1.08.23,1.8,1.8,0,0,1,.76.69,2.69,2.69,0,0,1,.37,1.18,6.37,6.37,0,0,1-.12,1.68A6.7,6.7,0,0,1,52.38,6a4.43,4.43,0,0,1-.83,1.18,3.25,3.25,0,0,1-1,.69,3.18,3.18,0,0,1-1.18.23,2.52,2.52,0,0,1-1.08-.23,1.74,1.74,0,0,1-.76-.69A2.83,2.83,0,0,1,47.12,6,5.43,5.43,0,0,1,47.25,4.31Zm1.26,0a3.73,3.73,0,0,0,0,2,1,1,0,0,0,1,.68,1.72,1.72,0,0,0,1.34-.68,4.2,4.2,0,0,0,.83-1.95,3.67,3.67,0,0,0,0-1.94,1,1,0,0,0-1-.68,1.66,1.66,0,0,0-1.33.68A4.31,4.31,0,0,0,48.51,4.31Z"/><path d="M54.36,3.81h4.13l-.2,1H54.16Z"/><path d="M63.8.68,61.92,3.15l.24,0,.26,0a2.61,2.61,0,0,1,1,.19,2,2,0,0,1,.75.53,1.78,1.78,0,0,1,.4.8,2.39,2.39,0,0,1,0,1,2.88,2.88,0,0,1-.39,1,3.33,3.33,0,0,1-.71.79,3.74,3.74,0,0,1-1,.53,3.36,3.36,0,0,1-1.16.19,2.69,2.69,0,0,1-1-.19,2,2,0,0,1-.76-.54,1.91,1.91,0,0,1-.4-.79,2.25,2.25,0,0,1,0-1A3.3,3.3,0,0,1,59.39,5a3.5,3.5,0,0,1,.36-.58L62.48.68ZM60.41,5.61a1.18,1.18,0,0,0,0,.53,1,1,0,0,0,.22.44,1.33,1.33,0,0,0,.42.3,1.47,1.47,0,0,0,.56.11,1.84,1.84,0,0,0,.62-.11,2.1,2.1,0,0,0,.53-.29,2.1,2.1,0,0,0,.4-.44,1.58,1.58,0,0,0,.22-.54,1.32,1.32,0,0,0,0-.56,1,1,0,0,0-.23-.44,1.08,1.08,0,0,0-.42-.3,1.38,1.38,0,0,0-.55-.11,1.83,1.83,0,0,0-.61.11,2.35,2.35,0,0,0-.54.3,2.1,2.1,0,0,0-.4.44A1.45,1.45,0,0,0,60.41,5.61Z"/><path d="M65.86,4.31a6.76,6.76,0,0,1,.56-1.68,4.66,4.66,0,0,1,.83-1.18,3.19,3.19,0,0,1,1-.69A2.94,2.94,0,0,1,69.47.53a2.38,2.38,0,0,1,1.08.23,1.86,1.86,0,0,1,.76.69,2.83,2.83,0,0,1,.36,1.18,5.93,5.93,0,0,1-.11,1.68A7.13,7.13,0,0,1,71,6a4.66,4.66,0,0,1-.83,1.18A3.18,3.18,0,0,1,68,8.1a2.45,2.45,0,0,1-1.08-.23,1.83,1.83,0,0,1-.77-.69A2.83,2.83,0,0,1,65.74,6,5.71,5.71,0,0,1,65.86,4.31Zm1.27,0a3.75,3.75,0,0,0,0,2,1,1,0,0,0,1,.68,1.72,1.72,0,0,0,1.35-.68,4.3,4.3,0,0,0,.83-1.95,3.67,3.67,0,0,0,0-1.94,1,1,0,0,0-1-.68A1.67,1.67,0,0,0,68,2.37,4.31,4.31,0,0,0,67.13,4.31Z"/><path d="M73.24,2.94A3.21,3.21,0,0,1,73.55,2,2.36,2.36,0,0,1,74,1.39,1.77,1.77,0,0,1,74.61,1a1.58,1.58,0,0,1,.63-.13,1.31,1.31,0,0,1,.59.13,1,1,0,0,1,.43.37,1.47,1.47,0,0,1,.21.63,3,3,0,0,1-.06.92,3.6,3.6,0,0,1-.31.91,3,3,0,0,1-.47.65,1.71,1.71,0,0,1-1.22.5,1.37,1.37,0,0,1-.58-.12,1,1,0,0,1-.43-.38,1.72,1.72,0,0,1-.22-.65A3,3,0,0,1,73.24,2.94ZM78.89.49h.9L74.73,8.15h-.9ZM74.1,2.94a1.85,1.85,0,0,0,0,1,.46.46,0,0,0,.47.33.72.72,0,0,0,.58-.33,2.27,2.27,0,0,0,.38-1,1.86,1.86,0,0,0,0-.95.44.44,0,0,0-.45-.32.73.73,0,0,0-.6.32A2.16,2.16,0,0,0,74.1,2.94Zm3,2.93a3.56,3.56,0,0,1,.32-1,2.79,2.79,0,0,1,.5-.68,2,2,0,0,1,.61-.4,1.77,1.77,0,0,1,.67-.13,1.45,1.45,0,0,1,.63.13,1.11,1.11,0,0,1,.46.4,1.82,1.82,0,0,1,.23.68,3,3,0,0,1-.06,1,3.32,3.32,0,0,1-.33,1,2.58,2.58,0,0,1-.51.68,2.11,2.11,0,0,1-.61.39,1.8,1.8,0,0,1-.68.14,1.44,1.44,0,0,1-.62-.14,1.07,1.07,0,0,1-.45-.39,1.52,1.52,0,0,1-.22-.68A2.83,2.83,0,0,1,77.12,5.87Zm.9,0a1.82,1.82,0,0,0,0,1,.49.49,0,0,0,.49.35.79.79,0,0,0,.63-.35,2.57,2.57,0,0,0,.42-1,2,2,0,0,0,0-1,.49.49,0,0,0-.49-.35.79.79,0,0,0-.63.35A2.44,2.44,0,0,0,78,5.87Z"/><path d="M85,2.67l1.07,4h0l1.11-4h1.23l1.12,4h0l1-4H92L90.33,8H88.89l-1.08-3.7h0l-1,3.7H85.32L83.64,2.67Z"/><path d="M92.49,1.21a.8.8,0,0,1,.82-.82.83.83,0,0,1,.58.23.81.81,0,0,1,.24.59.81.81,0,0,1-.24.59.77.77,0,0,1-.58.25.74.74,0,0,1-.58-.25A.81.81,0,0,1,92.49,1.21Zm.21,1.46h1.21V8H92.7Z"/><path d="M95.69,2.67,96,1.24h.94V2.67h1.58v1H96.89V6.07a1.09,1.09,0,0,0,.17.69.65.65,0,0,0,.53.19,3.73,3.73,0,0,0,.88-.13v1a6.24,6.24,0,0,1-.64.14,3.87,3.87,0,0,1-.56,0,1.63,1.63,0,0,1-1.18-.38,1.48,1.48,0,0,1-.4-1.12V3.69h-.94v-1Z"/><path d="M100.74,8H99.53V0h1.21V3.44a2.81,2.81,0,0,1,.74-.63,1.84,1.84,0,0,1,.93-.24,2.18,2.18,0,0,1,1,.19,1.74,1.74,0,0,1,.65.51,2.28,2.28,0,0,1,.36.77,3.6,3.6,0,0,1,.12,1V8h-1.22V5.14a2.54,2.54,0,0,0-.05-.56,1.26,1.26,0,0,0-.17-.46.81.81,0,0,0-.35-.31,1.19,1.19,0,0,0-.56-.11,1.31,1.31,0,0,0-.56.12,1.41,1.41,0,0,0-.45.34,1.44,1.44,0,0,0-.3.49,1.73,1.73,0,0,0-.11.6Z"/><path d="M108.11,5.32a2.77,2.77,0,0,1,.22-1.07,2.61,2.61,0,0,1,.6-.87,2.66,2.66,0,0,1,.9-.59A2.85,2.85,0,0,1,111,2.57a2.81,2.81,0,0,1,1.13.22,2.87,2.87,0,0,1,.9.59,2.73,2.73,0,0,1,.59.87,2.6,2.6,0,0,1,.22,1.07,2.55,2.55,0,0,1-.22,1.06,2.67,2.67,0,0,1-.59.88,3,3,0,0,1-3.16.58,2.79,2.79,0,0,1-.9-.58,2.55,2.55,0,0,1-.6-.88A2.72,2.72,0,0,1,108.11,5.32Zm1.22,0a1.69,1.69,0,0,0,.12.64,1.46,1.46,0,0,0,.34.53,1.66,1.66,0,0,0,1.81.35,1.7,1.7,0,0,0,.52-.35,1.59,1.59,0,0,0,.33-.53,1.69,1.69,0,0,0,.12-.64,1.75,1.75,0,0,0-.12-.65,1.65,1.65,0,0,0-.33-.52,1.62,1.62,0,0,0-1.82-.35,1.41,1.41,0,0,0-.51.35,1.51,1.51,0,0,0-.34.52A1.75,1.75,0,0,0,109.33,5.31Z"/><path d="M118.4,2.67h1.2V8h-1l0-.87a2.64,2.64,0,0,1-.76.69,2,2,0,0,1-1,.27,2.42,2.42,0,0,1-1-.18,1.85,1.85,0,0,1-.65-.52,2.19,2.19,0,0,1-.36-.77,4.21,4.21,0,0,1-.11-1V2.67h1.22V5.35a3.26,3.26,0,0,0,0,.64,1.35,1.35,0,0,0,.17.49.86.86,0,0,0,.36.32,1.2,1.2,0,0,0,.57.12,1.24,1.24,0,0,0,.56-.13,1.28,1.28,0,0,0,.45-.34,1.48,1.48,0,0,0,.3-.5,1.73,1.73,0,0,0,.11-.6Z"/><path d="M122.12,8H120.9V2.67h1l.06.86a2.29,2.29,0,0,1,.62-.69,1.37,1.37,0,0,1,.86-.28,1.69,1.69,0,0,1,.55.1V3.84a1.18,1.18,0,0,0-.3-.07l-.27,0a1.25,1.25,0,0,0-1,.4,1.55,1.55,0,0,0-.37,1.11Z"/><path d="M15.81,14.58l0,.69a2.46,2.46,0,0,1,.81-.58,2.42,2.42,0,0,1,1-.21,2.56,2.56,0,0,1,1.07.22,2.69,2.69,0,0,1,1.44,1.45,2.76,2.76,0,0,1,.21,1.07,2.71,2.71,0,0,1-.21,1.06,2.65,2.65,0,0,1-.58.88,2.74,2.74,0,0,1-1.93.8,2.3,2.3,0,0,1-.95-.19,2.19,2.19,0,0,1-.76-.5v3.26h-1.2v-8Zm3.37,2.64a1.78,1.78,0,0,0-.12-.65,1.73,1.73,0,0,0-.36-.52,1.54,1.54,0,0,0-.52-.35,1.52,1.52,0,0,0-.63-.14,1.64,1.64,0,0,0-.67.14,1.54,1.54,0,0,0-.52.35,1.65,1.65,0,0,0-.33.52,2,2,0,0,0-.11.65,1.69,1.69,0,0,0,.12.64,1.59,1.59,0,0,0,.33.53,1.57,1.57,0,0,0,.52.36,1.76,1.76,0,0,0,.66.12,1.51,1.51,0,0,0,.63-.13,1.7,1.7,0,0,0,.52-.35,1.66,1.66,0,0,0,.36-.53A1.69,1.69,0,0,0,19.18,17.22Z"/><path d="M22.5,19.77H21.29V14.49h1l.05.86a2.45,2.45,0,0,1,.63-.69,1.4,1.4,0,0,1,.85-.28,2,2,0,0,1,.55.1v1.18a1.74,1.74,0,0,0-.29-.07h-.27a1.27,1.27,0,0,0-1,.39,1.58,1.58,0,0,0-.38,1.12Z"/><path d="M25,13a.78.78,0,0,1,.24-.59.83.83,0,0,1,1.41.59.83.83,0,0,1-.25.59.8.8,0,0,1-1.16,0A.82.82,0,0,1,25,13Zm.21,1.45h1.21v5.28H25.23Z"/><path d="M28.52,14.49l1.41,4h0l1.42-4h1.36l-2,5.28H29.19l-2-5.28Z"/><path d="M33.05,15.32A4,4,0,0,1,33.4,15a2.74,2.74,0,0,1,.51-.3,3.39,3.39,0,0,1,.66-.23,2.78,2.78,0,0,1,.78-.1,2.93,2.93,0,0,1,.9.14,2,2,0,0,1,.73.39,1.72,1.72,0,0,1,.48.67,2.17,2.17,0,0,1,.17.91v3.28h-1L36.51,19a2.12,2.12,0,0,1-.74.62,2.34,2.34,0,0,1-1,.22,2.19,2.19,0,0,1-.73-.12,1.75,1.75,0,0,1-.56-.34,1.57,1.57,0,0,1-.36-.51,1.61,1.61,0,0,1-.12-.63,1.43,1.43,0,0,1,.58-1.17,2.84,2.84,0,0,1,1.75-.45h1.16v-.1a1,1,0,0,0-1.14-1.1,2.09,2.09,0,0,0-.51.07,2.35,2.35,0,0,0-.44.17,2.16,2.16,0,0,0-.36.22,1.51,1.51,0,0,0-.26.23Zm3.41,2.14H35.39a1.39,1.39,0,0,0-.88.21.64.64,0,0,0-.29.53.71.71,0,0,0,.22.49.9.9,0,0,0,.66.22,1.46,1.46,0,0,0,.94-.37,1.31,1.31,0,0,0,.31-.42,1.26,1.26,0,0,0,.11-.55Z"/><path d="M39.27,14.49l.26-1.43h.94v1.43h1.58v1H40.47v2.38a1.09,1.09,0,0,0,.16.69.69.69,0,0,0,.54.2,3.9,3.9,0,0,0,.88-.14v1a4.49,4.49,0,0,1-.65.14,3.87,3.87,0,0,1-.56.05,1.62,1.62,0,0,1-1.17-.39,1.47,1.47,0,0,1-.4-1.11V15.51h-.94v-1Z"/><path d="M47.48,19.21l-.36.23a3.45,3.45,0,0,1-.47.22,4.43,4.43,0,0,1-.58.16,3.88,3.88,0,0,1-.7.06,2.81,2.81,0,0,1-1.15-.22,2.38,2.38,0,0,1-.86-.58,2.65,2.65,0,0,1-.56-.87,3.17,3.17,0,0,1-.19-1.07,2.72,2.72,0,0,1,.21-1.07,2.6,2.6,0,0,1,.56-.88,2.79,2.79,0,0,1,2-.8,3,3,0,0,1,1.15.22,2.47,2.47,0,0,1,.85.58,2.72,2.72,0,0,1,.52.87,3.38,3.38,0,0,1,.17,1.07,2.58,2.58,0,0,1-.05.46H43.89a1.51,1.51,0,0,0,.56.9,1.69,1.69,0,0,0,1,.32,2,2,0,0,0,.9-.16,2.36,2.36,0,0,0,.52-.32Zm-.68-2.46a1.23,1.23,0,0,0-.38-.95,1.45,1.45,0,0,0-1-.35,1.52,1.52,0,0,0-1,.35,1.56,1.56,0,0,0-.51.95Z"/><path d="M53,19.77H51.8V11.82H53Z"/><path d="M54.17,15.32a2.73,2.73,0,0,1,.34-.31,3.11,3.11,0,0,1,.51-.3,3.39,3.39,0,0,1,.66-.23,2.78,2.78,0,0,1,.78-.1,3,3,0,0,1,.91.14,2,2,0,0,1,.72.39,1.72,1.72,0,0,1,.48.67,2.17,2.17,0,0,1,.17.91v3.28h-1L57.62,19a2.12,2.12,0,0,1-.74.62,2.34,2.34,0,0,1-1,.22,2.09,2.09,0,0,1-.72-.12,1.69,1.69,0,0,1-.57-.34,1.57,1.57,0,0,1-.36-.51,1.61,1.61,0,0,1-.12-.63,1.43,1.43,0,0,1,.58-1.17,2.84,2.84,0,0,1,1.75-.45h1.16v-.1a1,1,0,0,0-1.14-1.1,2.09,2.09,0,0,0-.51.07,2.35,2.35,0,0,0-.44.17,2.16,2.16,0,0,0-.36.22,1.51,1.51,0,0,0-.26.23Zm3.4,2.14H56.5a1.39,1.39,0,0,0-.88.21.63.63,0,0,0-.28.53.7.7,0,0,0,.21.49.9.9,0,0,0,.66.22,1.46,1.46,0,0,0,.94-.37,1.31,1.31,0,0,0,.31-.42,1.26,1.26,0,0,0,.11-.55Z"/><path d="M60,11.82h1.21v3.26a2.29,2.29,0,0,1,.75-.5,2.49,2.49,0,0,1,1-.19,2.73,2.73,0,0,1,1.07.22,2.83,2.83,0,0,1,.86.58,2.78,2.78,0,0,1,.57.88,2.71,2.71,0,0,1,.21,1.06,2.76,2.76,0,0,1-.21,1.07A2.63,2.63,0,0,1,64,19.65a2.56,2.56,0,0,1-1.07.22,2.45,2.45,0,0,1-1.84-.79l0,.69H60Zm4.43,5.31a1.7,1.7,0,0,0-.13-.64A1.49,1.49,0,0,0,64,16a1.75,1.75,0,0,0-.53-.35,1.51,1.51,0,0,0-.63-.13,1.76,1.76,0,0,0-.66.12,1.54,1.54,0,0,0-.51.35,1.67,1.67,0,0,0-.34.52,1.84,1.84,0,0,0-.12.66,1.78,1.78,0,0,0,.12.65,1.52,1.52,0,0,0,.85.87,1.59,1.59,0,0,0,.66.14,1.52,1.52,0,0,0,.63-.14A1.58,1.58,0,0,0,64,18.3a1.54,1.54,0,0,0,.35-.52A1.79,1.79,0,0,0,64.43,17.13Z"/><path d="M71.17,19.21c-.1.07-.21.15-.35.23a3.61,3.61,0,0,1-.48.22,4,4,0,0,1-.58.16,3.88,3.88,0,0,1-.7.06,2.76,2.76,0,0,1-1.14-.22,2.51,2.51,0,0,1-.87-.58,2.63,2.63,0,0,1-.55-.87,3,3,0,0,1-.2-1.07,2.72,2.72,0,0,1,.21-1.07,2.48,2.48,0,0,1,.57-.88,2.65,2.65,0,0,1,.87-.58,2.89,2.89,0,0,1,1.11-.22,3,3,0,0,1,1.16.22,2.52,2.52,0,0,1,.84.58,2.55,2.55,0,0,1,.52.87,3.12,3.12,0,0,1,.17,1.07,1.9,1.9,0,0,1,0,.46H67.58a1.47,1.47,0,0,0,.57.9,1.64,1.64,0,0,0,1,.32,2.09,2.09,0,0,0,.91-.16,2.26,2.26,0,0,0,.51-.32Zm-.67-2.46a1.28,1.28,0,0,0-.39-.95,1.44,1.44,0,0,0-1-.35,1.53,1.53,0,0,0-1,.35,1.61,1.61,0,0,0-.51.95Z"/><path d="M74,19.77H72.74V11.82H74Z"/><path d="M79.21,19.77H78V11.82h1.21v3.45a2.48,2.48,0,0,1,.74-.63,1.85,1.85,0,0,1,.93-.25,2.33,2.33,0,0,1,1,.19,1.76,1.76,0,0,1,.65.52,2.23,2.23,0,0,1,.36.76,3.71,3.71,0,0,1,.12,1v2.95H81.76V17a2.63,2.63,0,0,0-.05-.57,1.33,1.33,0,0,0-.17-.46.88.88,0,0,0-.35-.31,1.33,1.33,0,0,0-.56-.11,1.18,1.18,0,0,0-.56.13,1.45,1.45,0,0,0-.45.33,1.54,1.54,0,0,0-.3.49,1.74,1.74,0,0,0-.11.61Z"/><path d="M88.75,19.21l-.36.23a3.45,3.45,0,0,1-.47.22,4.43,4.43,0,0,1-.58.16,3.88,3.88,0,0,1-.7.06,2.81,2.81,0,0,1-1.15-.22,2.47,2.47,0,0,1-.86-.58,2.65,2.65,0,0,1-.56-.87,3.17,3.17,0,0,1-.19-1.07,2.72,2.72,0,0,1,.21-1.07,2.6,2.6,0,0,1,.56-.88,2.81,2.81,0,0,1,.88-.58,2.85,2.85,0,0,1,1.11-.22,3,3,0,0,1,1.15.22,2.47,2.47,0,0,1,.85.58,2.55,2.55,0,0,1,.52.87,3.38,3.38,0,0,1,.17,1.07,2.58,2.58,0,0,1,0,.46H85.16a1.51,1.51,0,0,0,.56.9,1.69,1.69,0,0,0,1,.32,2,2,0,0,0,.9-.16,2.36,2.36,0,0,0,.52-.32Zm-.67-2.46a1.28,1.28,0,0,0-.39-.95,1.45,1.45,0,0,0-1-.35,1.52,1.52,0,0,0-1,.35,1.56,1.56,0,0,0-.51.95Z"/><path d="M90.05,15.32A2.92,2.92,0,0,1,90.4,15a2.45,2.45,0,0,1,.51-.3,3.53,3.53,0,0,1,.65-.23,2.85,2.85,0,0,1,.79-.1,2.93,2.93,0,0,1,.9.14,2.05,2.05,0,0,1,.73.39,2,2,0,0,1,.48.67,2.34,2.34,0,0,1,.17.91v3.28h-1L93.5,19a2.09,2.09,0,0,1-.73.62,2.34,2.34,0,0,1-1,.22,2.11,2.11,0,0,1-.73-.12,1.65,1.65,0,0,1-.56-.34,1.32,1.32,0,0,1-.36-.51,1.49,1.49,0,0,1,.46-1.8,2.83,2.83,0,0,1,1.74-.45h1.17v-.1c0-.73-.38-1.1-1.15-1.1a2.08,2.08,0,0,0-.5.07,2.69,2.69,0,0,0-.81.39,1.42,1.42,0,0,0-.25.23Zm3.41,2.14H92.39a1.45,1.45,0,0,0-.89.21.63.63,0,0,0-.28.53.67.67,0,0,0,.22.49.89.89,0,0,0,.65.22,1.25,1.25,0,0,0,.51-.1,1.34,1.34,0,0,0,.44-.27,1.29,1.29,0,0,0,.3-.42,1.26,1.26,0,0,0,.12-.55Z"/><path d="M97.09,19.77H95.88V11.82h1.21Z"/><path d="M98.8,14.49l.27-1.43H100v1.43h1.58v1H100v2.38a1.09,1.09,0,0,0,.17.69.66.66,0,0,0,.53.2,3.82,3.82,0,0,0,.88-.14v1a4.38,4.38,0,0,1-.64.14,4,4,0,0,1-.56.05,1.63,1.63,0,0,1-1.18-.39,1.47,1.47,0,0,1-.4-1.11V15.51h-.94v-1Z"/><path d="M103.86,19.77h-1.22V11.82h1.22v3.45a2.45,2.45,0,0,1,.73-.63,1.85,1.85,0,0,1,.93-.25,2.33,2.33,0,0,1,1,.19,1.76,1.76,0,0,1,.65.52,2.23,2.23,0,0,1,.36.76,3.71,3.71,0,0,1,.12,1v2.95H106.4V17a2.63,2.63,0,0,0-.05-.57,1.33,1.33,0,0,0-.17-.46.88.88,0,0,0-.35-.31,1.3,1.3,0,0,0-.56-.11,1.18,1.18,0,0,0-.56.13,1.45,1.45,0,0,0-.45.33,1.54,1.54,0,0,0-.3.49,1.74,1.74,0,0,0-.1.61Z"/><path d="M112.63,14.58l0,.69a2.45,2.45,0,0,1,1.83-.79,2.53,2.53,0,0,1,1.07.22,2.61,2.61,0,0,1,.86.58,2.71,2.71,0,0,1,.58.87,2.76,2.76,0,0,1,.21,1.07,2.71,2.71,0,0,1-.21,1.06,2.65,2.65,0,0,1-.58.88,2.61,2.61,0,0,1-.86.58,2.69,2.69,0,0,1-1.07.22,2.46,2.46,0,0,1-1.71-.69v3.26h-1.2v-8ZM116,17.22a1.78,1.78,0,0,0-.12-.65,1.73,1.73,0,0,0-.36-.52,1.54,1.54,0,0,0-.52-.35,1.52,1.52,0,0,0-.63-.14,1.67,1.67,0,0,0-.67.14,1.54,1.54,0,0,0-.52.35,1.65,1.65,0,0,0-.33.52,2,2,0,0,0-.11.65,1.69,1.69,0,0,0,.12.64,1.46,1.46,0,0,0,.34.53,1.43,1.43,0,0,0,.51.36,1.76,1.76,0,0,0,.66.12,1.51,1.51,0,0,0,.63-.13,1.7,1.7,0,0,0,.52-.35,1.66,1.66,0,0,0,.36-.53A1.69,1.69,0,0,0,116,17.22Z"/><path d="M119.33,19.77h-1.22V11.82h1.22Z"/><path d="M120.47,15.32a4,4,0,0,1,.35-.31,2.45,2.45,0,0,1,.51-.3,3.39,3.39,0,0,1,.66-.23,2.78,2.78,0,0,1,.78-.1,2.93,2.93,0,0,1,.9.14,2,2,0,0,1,.73.39,1.72,1.72,0,0,1,.48.67,2.17,2.17,0,0,1,.17.91v3.28h-1l-.07-.74a2.21,2.21,0,0,1-.74.62,2.34,2.34,0,0,1-1,.22,2.15,2.15,0,0,1-.73-.12,1.75,1.75,0,0,1-.56-.34,1.57,1.57,0,0,1-.36-.51,1.61,1.61,0,0,1-.13-.63A1.44,1.44,0,0,1,121,17.1a2.83,2.83,0,0,1,1.74-.45h1.17v-.1a1,1,0,0,0-1.14-1.1,2.09,2.09,0,0,0-.51.07,2.35,2.35,0,0,0-.44.17,1.82,1.82,0,0,0-.36.22,1.21,1.21,0,0,0-.26.23Zm3.41,2.14h-1.07a1.45,1.45,0,0,0-.89.21.66.66,0,0,0-.28.53.67.67,0,0,0,.22.49.89.89,0,0,0,.65.22,1.25,1.25,0,0,0,.51-.1,1.34,1.34,0,0,0,.44-.27,1.31,1.31,0,0,0,.31-.42,1.42,1.42,0,0,0,.11-.55Z"/><path d="M127.48,19.77h-1.21V14.49h1l0,.9a2.51,2.51,0,0,1,.77-.72,1.94,1.94,0,0,1,1-.28,2.36,2.36,0,0,1,1,.19,1.85,1.85,0,0,1,.65.52,2.07,2.07,0,0,1,.37.76,3.72,3.72,0,0,1,.11,1v2.95H130V17a3.45,3.45,0,0,0-.05-.57,1.17,1.17,0,0,0-.18-.46.85.85,0,0,0-.34-.31,1.35,1.35,0,0,0-.57-.11,1.18,1.18,0,0,0-.56.13,1.28,1.28,0,0,0-.45.34,1.46,1.46,0,0,0-.29.5,1.64,1.64,0,0,0-.11.6Z"/><path d="M132.48,19a.84.84,0,0,1,.25-.62.79.79,0,0,1,.6-.25.87.87,0,0,1,.61,1.48.88.88,0,0,1-.61.25.72.72,0,0,1-.33-.07.64.64,0,0,1-.27-.18.75.75,0,0,1-.18-.28A.72.72,0,0,1,132.48,19Zm.22-4.53v-2H134v2l-.19,3h-.89Z"/><path class="cls-1" d="M5.21,10.68a5.22,5.22,0,1,1,5.22-5.21A5.22,5.22,0,0,1,5.21,10.68Zm0-9.38A4.17,4.17,0,1,0,9.39,5.47,4.17,4.17,0,0,0,5.21,1.3Z"/><path class="cls-1" d="M4.69,6.93a.71.71,0,0,1-.53-.22l-.88-.87a.53.53,0,0,1,0-.74A.51.51,0,0,1,4,5.1l.67.67L6.41,4.06a.51.51,0,0,1,.74,0,.52.52,0,0,1,0,.73L5.23,6.71a.72.72,0,0,1-.54.22Z"/><path class="cls-1" d="M5.21,38.51a5.22,5.22,0,1,1,5.22-5.22A5.22,5.22,0,0,1,5.21,38.51Zm0-9.39a4.17,4.17,0,1,0,4.18,4.17A4.17,4.17,0,0,0,5.21,29.12Z"/><path class="cls-1" d="M4.69,34.76a.75.75,0,0,1-.53-.22l-.88-.88A.52.52,0,1,1,4,32.92l.67.68,1.72-1.72a.52.52,0,0,1,.74.74L5.23,34.54a.76.76,0,0,1-.54.22Z"/></g></g></svg>