<svg xmlns="http://www.w3.org/2000/svg" xmlns:xlink="http://www.w3.org/1999/xlink" viewBox="0 0 300 92.48"><defs><style>.cls-1{fill:none;}.cls-2{clip-path:url(#clip-path);}.cls-3{fill:#b5c4e5;}.cls-4{fill:#6d7cb5;}.cls-5{fill:#4a568e;}.cls-6{fill:#91a4e4;}</style><clipPath id="clip-path"><rect class="cls-1" width="300" height="50"/></clipPath></defs><g id="Layer_2" data-name="Layer 2"><g id="Layer_1-2" data-name="Layer 1"><g class="cls-2"><rect class="cls-3" width="300" height="50"/><g id="use41611-6-1-3"><g id="layer34"><rect class="cls-4" x="2.81" y="46.24" width="80.19" height="46.24"/><rect class="cls-5" x="2.81" y="46.24" width="80.19" height="3.47"/><rect class="cls-6" x="2.81" y="85.38" width="73.68" height="7.11"/><rect class="cls-6" x="2.81" y="67.11" width="73.68" height="12.85"/><rect class="cls-6" x="2.81" y="53.5" width="73.68" height="10.02"/><path id="rect29155" class="cls-4" d="M11.75,55.62H46.47c1.47,0,2.66.47,2.66,1.05h0c0,.58-1.19,1-2.66,1H11.75c-1.46,0-2.65-.47-2.65-1h0C9.1,56.09,10.29,55.62,11.75,55.62Z"/><path id="rect29157" class="cls-4" d="M11.75,69.83H46.47c1.47,0,2.66.47,2.66,1h0c0,.58-1.19,1.05-2.66,1.05H11.75c-1.46,0-2.65-.47-2.65-1.05h0C9.1,70.3,10.29,69.83,11.75,69.83Z"/><path id="rect29153" class="cls-4" d="M11.75,88.82H46.47c1.47,0,2.66.48,2.66,1.06h0c0,.58-1.19,1.05-2.66,1.05H11.75c-1.46,0-2.65-.47-2.65-1.05h0C9.1,89.3,10.29,88.82,11.75,88.82Z"/></g></g></g></g></g></svg>