<?xml version="1.0" encoding="UTF-8"?>
<svg id="Layer_2" data-name="Layer 2" xmlns="http://www.w3.org/2000/svg" viewBox="0 0 151.33 26.46">
  <defs>
    <style>
      .cls-1 {
        fill: #fff;
      }
    </style>
  </defs>
  <g id="Layer_1-2" data-name="Layer 1">
    <g>
      <path class="cls-1" d="M24.51,21.87h-13.98l-2.03,4.59H0L12.02,0h11.2l12.41,26.46h-9.07l-2.06-4.59ZM17.46,6.15l-4.34,9.89h8.79l-4.45-9.89Z"/>
      <path class="cls-1" d="M69.85,20.31v3.45c0,1.67.18,2.13.43,2.53v.18h-8.79c-.11-.18-.21-.64-.21-1.74v-2.21c0-3.41-1.25-4.66-4.98-4.66h-8.93v8.61h-8.5V0h19.63c9.89,0,11.13,3.98,11.13,7.15v.32c0,3.52-2.6,5.58-5.76,6.26,3.52.68,5.98,2.6,5.98,6.58ZM47.37,11.35h9.99c2.74,0,3.42-1.17,3.42-2.52v-.07c0-1.28-.68-2.42-3.42-2.42h-9.99v5.02Z"/>
      <path class="cls-1" d="M75.29,0h11.52l7.79,16.47L102.57,0h10.96v26.46h-8.32V9.57l-7.93,16.9h-5.9l-7.9-16.9v16.9h-8.18V0Z"/>
      <path class="cls-1" d="M129.81,16.9L116.33,0h10.42l7.61,9.92,7.65-9.92h9.32l-13.05,16.93v9.53h-8.47v-9.57Z"/>
    </g>
  </g>
</svg>