<svg xmlns="http://www.w3.org/2000/svg" viewBox="0 0 105.16 27.25"><defs><style>.cls-1{fill:#1d1d1b;}.cls-2{fill:#e94e1b;}</style></defs><g id="Layer_2" data-name="Layer 2"><g id="Layer_1-2" data-name="Layer 1"><path class="cls-1" d="M9.78,16.42l.06-7.63h0L7,16.42H5.16L2.44,8.79h0l.06,7.63H0V5.64H3.71l2.44,6.92h.06L8.56,5.64h3.78V16.42Z"/><path class="cls-1" d="M17.32,16.42h-2.2V9h3.05a4.77,4.77,0,0,1,1.24.14,2.6,2.6,0,0,1,1,.43,2.08,2.08,0,0,1,.63.75,2.33,2.33,0,0,1,.22,1.08A2.64,2.64,0,0,1,21,12.54a2.17,2.17,0,0,1-.63.81,2.78,2.78,0,0,1-1,.47,4.42,4.42,0,0,1-1.25.16h-.82Zm0-4.09H18a1.2,1.2,0,0,0,.77-.22.82.82,0,0,0,.28-.67.72.72,0,0,0-.24-.55,1.16,1.16,0,0,0-.77-.22h-.69Z"/><path class="cls-1" d="M23.09,9H25.3v5.57H28v1.85H23.09Z"/><path class="cls-1" d="M33.11,16.63a4.24,4.24,0,0,1-1.41-.22A2.77,2.77,0,0,1,30,14.81a3.39,3.39,0,0,1-.23-1.26V9H32v4.4a1.47,1.47,0,0,0,.31,1,1.09,1.09,0,0,0,.87.35,1.15,1.15,0,0,0,.89-.35,1.44,1.44,0,0,0,.31-1V9h2.2v4.55a3.4,3.4,0,0,1-.24,1.26,2.75,2.75,0,0,1-.68,1,3,3,0,0,1-1.07.62A4.59,4.59,0,0,1,33.11,16.63Z"/><path class="cls-1" d="M43.05,11.21a3.46,3.46,0,0,0-.67-.46,1.72,1.72,0,0,0-.8-.2,1.23,1.23,0,0,0-.57.14.51.51,0,0,0-.2.7.5.5,0,0,0,.21.2,4.76,4.76,0,0,0,1,.31,5.57,5.57,0,0,1,.79.25,2.85,2.85,0,0,1,.72.41,2.21,2.21,0,0,1,.51.63,2,2,0,0,1,.2.92A2.42,2.42,0,0,1,44,15.29a2.25,2.25,0,0,1-.7.77,3,3,0,0,1-1,.44,4.22,4.22,0,0,1-1.06.13,4.9,4.9,0,0,1-1.65-.29,3.26,3.26,0,0,1-1.35-.86l1.26-1.42a2.51,2.51,0,0,0,.77.59,2.08,2.08,0,0,0,.95.23,1.18,1.18,0,0,0,.55-.14.53.53,0,0,0,.25-.5.51.51,0,0,0-.33-.51,6.32,6.32,0,0,0-1-.34,6.75,6.75,0,0,1-.72-.24,2,2,0,0,1-.65-.39,1.82,1.82,0,0,1-.47-.6,2,2,0,0,1-.18-.9,2.31,2.31,0,0,1,.26-1.12,2.39,2.39,0,0,1,.68-.77,2.94,2.94,0,0,1,.93-.44,3.6,3.6,0,0,1,1-.14,4.35,4.35,0,0,1,1.52.27,3.36,3.36,0,0,1,1.27.79Z"/><path class="cls-1" d="M53.09,16.42l-4-5h0v5H46.51V5.64h2.55V10h0L53,5.63h3.26l-4.64,5,4.92,5.82Z"/><path class="cls-1" d="M65.23,16.42,64.4,14.3H60.22l-.79,2.12H56.6L61.12,5.64h2.53l4.48,10.78ZM62.34,8.51,61,12.22h2.71Z"/><path class="cls-1" d="M75.49,8.44a2.33,2.33,0,0,0-.88-.68,2.5,2.5,0,0,0-1-.26,3.17,3.17,0,0,0-.53,0,1.2,1.2,0,0,0-.48.17,1.29,1.29,0,0,0-.36.34.84.84,0,0,0-.14.51.83.83,0,0,0,.11.46,1,1,0,0,0,.34.32,3.06,3.06,0,0,0,.51.26l.69.23,1.14.4a4.71,4.71,0,0,1,1.08.59,3.2,3.2,0,0,1,.81.91,2.74,2.74,0,0,1,.32,1.35,3.68,3.68,0,0,1-.34,1.6,3.25,3.25,0,0,1-.93,1.12,4,4,0,0,1-1.32.66,5.72,5.72,0,0,1-1.54.21,6.57,6.57,0,0,1-2.24-.4,5,5,0,0,1-1.8-1.15l1.71-1.74a3.09,3.09,0,0,0,1.05.81,2.71,2.71,0,0,0,1.28.33,2.6,2.6,0,0,0,.56-.06,1.26,1.26,0,0,0,.48-.2,1,1,0,0,0,.33-.36,1.3,1.3,0,0,0,.12-.55.92.92,0,0,0-.15-.51,1.49,1.49,0,0,0-.44-.39,3.42,3.42,0,0,0-.7-.32l-.95-.31c-.34-.12-.68-.25-1-.4a3.72,3.72,0,0,1-.89-.59,2.71,2.71,0,0,1-.62-.87,2.92,2.92,0,0,1-.24-1.24,3,3,0,0,1,.37-1.53,3.22,3.22,0,0,1,1-1,4.24,4.24,0,0,1,1.34-.6,6,6,0,0,1,1.51-.19,5.43,5.43,0,0,1,1.87.34,4.66,4.66,0,0,1,1.67,1Z"/><path class="cls-1" d="M85.25,8.44a2.22,2.22,0,0,0-.87-.68,2.54,2.54,0,0,0-1-.26,3.05,3.05,0,0,0-.52,0,1.15,1.15,0,0,0-.48.17,1.07,1.07,0,0,0-.36.34.94.94,0,0,0,0,1,1,1,0,0,0,.33.32,3.71,3.71,0,0,0,.53.26l.68.23,1.15.4a4.92,4.92,0,0,1,1.08.59,3.36,3.36,0,0,1,.81.91,2.63,2.63,0,0,1,.31,1.35,3.42,3.42,0,0,1-.34,1.6,3.11,3.11,0,0,1-.92,1.12,4.2,4.2,0,0,1-1.32.66,5.78,5.78,0,0,1-1.54.21,6.53,6.53,0,0,1-2.24-.4,5,5,0,0,1-1.8-1.15l1.71-1.74a3.15,3.15,0,0,0,1,.81,2.67,2.67,0,0,0,1.85.27,1.26,1.26,0,0,0,.48-.2.93.93,0,0,0,.33-.35,1.06,1.06,0,0,0,.12-.55.79.79,0,0,0-.15-.51,1.34,1.34,0,0,0-.43-.39,3.68,3.68,0,0,0-.7-.32l-1-.31a7.57,7.57,0,0,1-1-.4,3.44,3.44,0,0,1-.88-.58,2.7,2.7,0,0,1-.63-.87,3,3,0,0,1-.22-1.25,3.1,3.1,0,0,1,.37-1.54,3.32,3.32,0,0,1,1-1,4.15,4.15,0,0,1,1.34-.6,5.9,5.9,0,0,1,1.51-.19,5.41,5.41,0,0,1,1.86.34,4.63,4.63,0,0,1,1.65,1Z"/><path class="cls-1" d="M96.63,16.42l-.84-2.12H91.62l-.79,2.12H88L92.52,5.64h2.53l4.47,10.78ZM93.74,8.51l-1.38,3.71h2.72Z"/><path class="cls-2" d="M105.16,5.64H99.52V0h3.82a1.81,1.81,0,0,1,1.81,1.81Zm-4.31-1.32h3V1.81a.49.49,0,0,0-.5-.49h-2.49Z"/><path d="M1.75,25.7.29,20.58H.83L2.09,25l1.33-4.42H4L5.36,25l1.26-4.43h.52L5.68,25.7H5.06L3.72,21.25,2.39,25.7Z"/><path d="M9.14,22a1.63,1.63,0,0,1,1.31.58,2,2,0,0,1,.5,1.35,2.11,2.11,0,0,1,0,.23H7.73A1.34,1.34,0,0,0,8.2,25a1.52,1.52,0,0,0,1,.33,1.43,1.43,0,0,0,.72-.18,1.08,1.08,0,0,0,.45-.45l.43.25a1.71,1.71,0,0,1-.66.62,2,2,0,0,1-1,.22,1.91,1.91,0,0,1-1.41-.54,2,2,0,0,1,0-2.74A1.84,1.84,0,0,1,9.14,22Zm0,.47a1.35,1.35,0,0,0-1,.34,1.38,1.38,0,0,0-.46.88h2.73a1.39,1.39,0,0,0-.45-.9A1.32,1.32,0,0,0,9.14,22.42Z"/><path d="M13.55,25.7V20.36H14V25.7Z"/><path d="M18.12,25.23a2,2,0,0,1-2.72,0,1.93,1.93,0,0,1,0-2.72,1.93,1.93,0,0,1,2.72,0,1.93,1.93,0,0,1,0,2.72Zm-2.38-.33a1.36,1.36,0,0,0,1,.42,1.39,1.39,0,0,0,1-.42,1.41,1.41,0,0,0,.42-1,1.43,1.43,0,0,0-1.44-1.45,1.36,1.36,0,0,0-1,.42,1.4,1.4,0,0,0-.42,1A1.41,1.41,0,0,0,15.74,24.9Z"/><path d="M22,22h.51L21,25.7H20.4L18.9,22h.51l1.28,3.14Z"/><path d="M24.61,22a1.63,1.63,0,0,1,1.31.58,2,2,0,0,1,.5,1.35,2.11,2.11,0,0,1,0,.23H23.2a1.34,1.34,0,0,0,.47.88,1.49,1.49,0,0,0,1,.33,1.37,1.37,0,0,0,.72-.18,1.05,1.05,0,0,0,.46-.45l.43.25a1.79,1.79,0,0,1-.66.62,2,2,0,0,1-1,.22,1.91,1.91,0,0,1-1.41-.54,2,2,0,0,1,0-2.74A1.84,1.84,0,0,1,24.61,22Zm0,.47a1.35,1.35,0,0,0-.95.34,1.38,1.38,0,0,0-.46.88h2.73a1.39,1.39,0,0,0-.45-.9A1.32,1.32,0,0,0,24.61,22.42Z"/><path d="M32.92,22a1.31,1.31,0,0,1,1,.4,1.48,1.48,0,0,1,.37,1.07V25.7H33.8V23.42a1,1,0,0,0-.24-.74.87.87,0,0,0-.65-.26,1,1,0,0,0-.74.3,1.42,1.42,0,0,0-.28,1v2h-.48V23.42a1.07,1.07,0,0,0-.23-.74.8.8,0,0,0-.63-.26,1,1,0,0,0-.74.31,1.25,1.25,0,0,0-.31.94v2H29V22h.48v.53A1.26,1.26,0,0,1,30.62,22a1.13,1.13,0,0,1,1.11.67A1.3,1.3,0,0,1,32.92,22Z"/><path d="M38.36,22h.48V25.7h-.48V25a1.62,1.62,0,0,1-1.48.8,1.8,1.8,0,0,1-1.33-.55,2,2,0,0,1,0-2.72A1.81,1.81,0,0,1,36.88,22a1.63,1.63,0,0,1,1.48.81ZM35.9,24.9a1.46,1.46,0,0,0,2.05,0,1.44,1.44,0,0,0,.41-1,1.43,1.43,0,0,0-.41-1,1.45,1.45,0,0,0-2.47,1A1.41,1.41,0,0,0,35.9,24.9Z"/><path d="M42.82,25.7h-.64l-1.83-1.77V25.7h-.48V20.58h.48v3.08L42.09,22h.66L40.86,23.8Z"/><path d="M44,21.16a.34.34,0,0,1-.5,0,.31.31,0,0,1-.1-.24.32.32,0,0,1,.1-.25.34.34,0,0,1,.5,0,.32.32,0,0,1,.1.25A.31.31,0,0,1,44,21.16Zm-.49,4.54V22H44V25.7Z"/><path d="M46.7,22a1.36,1.36,0,0,1,1,.41,1.5,1.5,0,0,1,.39,1.09V25.7h-.48V23.45a1.08,1.08,0,0,0-.26-.76,1,1,0,0,0-.74-.27,1.15,1.15,0,0,0-.85.33,1.43,1.43,0,0,0-.33,1V25.7H45V22h.49v.57A1.35,1.35,0,0,1,46.7,22Z"/><path d="M52.21,22h.48v3.51a1.52,1.52,0,0,1-.54,1.24,1.91,1.91,0,0,1-1.29.46,1.76,1.76,0,0,1-1.74-.9l.43-.24a1.3,1.3,0,0,0,1.31.67,1.44,1.44,0,0,0,1-.33,1.18,1.18,0,0,0,.36-.9V25a1.63,1.63,0,0,1-1.48.8,1.79,1.79,0,0,1-1.33-.55,1.93,1.93,0,0,1,0-2.72A1.8,1.8,0,0,1,50.73,22a1.64,1.64,0,0,1,1.48.81ZM49.74,24.9a1.46,1.46,0,0,0,2,0,1.41,1.41,0,0,0,.42-1,1.45,1.45,0,0,0-2.47-1,1.43,1.43,0,0,0-.41,1A1.44,1.44,0,0,0,49.74,24.9Z"/><path d="M57.5,22a1.8,1.8,0,0,1,1.33.56,1.93,1.93,0,0,1,0,2.72,1.79,1.79,0,0,1-1.33.55A1.63,1.63,0,0,1,56,25v2.18h-.48V22H56v.72A1.64,1.64,0,0,1,57.5,22ZM56.44,24.9a1.47,1.47,0,1,0-.42-1A1.41,1.41,0,0,0,56.44,24.9Z"/><path d="M63.26,25.23a1.88,1.88,0,0,1-1.37.55A1.9,1.9,0,0,1,60,23.87a1.83,1.83,0,0,1,.56-1.36A1.86,1.86,0,0,1,61.89,22a1.89,1.89,0,0,1,1.37.56,1.93,1.93,0,0,1,0,2.72Zm-2.39-.33a1.47,1.47,0,1,0-.42-1A1.41,1.41,0,0,0,60.87,24.9Z"/><path d="M65.11,21.16a.34.34,0,0,1-.5,0,.31.31,0,0,1-.1-.24.32.32,0,0,1,.1-.25.34.34,0,0,1,.5,0,.32.32,0,0,1,.1.25A.31.31,0,0,1,65.11,21.16Zm-.49,4.54V22h.48V25.7Z"/><path d="M67.84,22a1.39,1.39,0,0,1,1,.41,1.54,1.54,0,0,1,.38,1.09V25.7h-.48V23.45a1.08,1.08,0,0,0-.26-.76,1,1,0,0,0-.74-.27,1.15,1.15,0,0,0-.85.33,1.43,1.43,0,0,0-.33,1V25.7h-.48V22h.48v.57A1.35,1.35,0,0,1,67.84,22Z"/><path d="M72.14,22.51h-1v2.21a.61.61,0,0,0,.12.43.43.43,0,0,0,.35.13c.15,0,.35,0,.58,0v.43A1.84,1.84,0,0,1,71,25.59a.93.93,0,0,1-.38-.87V22.51h-.77V22h.77v-.88l.48-.14v1h1Z"/><path d="M73.11,23a.45.45,0,0,0,.22.39,2.25,2.25,0,0,0,.54.23l.63.18a1.14,1.14,0,0,1,.53.33.87.87,0,0,1,.21.61.91.91,0,0,1-.37.76,1.44,1.44,0,0,1-1,.29,1.63,1.63,0,0,1-.9-.23,1.31,1.31,0,0,1-.51-.61l.41-.24a.86.86,0,0,0,.37.45,1.19,1.19,0,0,0,.63.17,1.11,1.11,0,0,0,.6-.15.47.47,0,0,0,.24-.44.44.44,0,0,0-.22-.39A1.85,1.85,0,0,0,74,24.1l-.63-.18a1.07,1.07,0,0,1-.53-.32.81.81,0,0,1-.22-.6.93.93,0,0,1,.35-.75,1.36,1.36,0,0,1,.9-.3,1.56,1.56,0,0,1,.78.2,1.32,1.32,0,0,1,.5.55l-.41.23a.84.84,0,0,0-.87-.51,1,1,0,0,0-.55.15A.47.47,0,0,0,73.11,23Z"/><path d="M80.94,25.23a1.86,1.86,0,0,1-1.36.55,1.88,1.88,0,0,1-1.37-.55,2,2,0,0,1,0-2.72A1.89,1.89,0,0,1,79.58,22a1.86,1.86,0,0,1,1.36.56,1.93,1.93,0,0,1,0,2.72Zm-2.39-.33a1.46,1.46,0,0,0,2,0,1.41,1.41,0,0,0,.42-1,1.45,1.45,0,0,0-2.47-1,1.43,1.43,0,0,0-.41,1A1.44,1.44,0,0,0,78.55,24.9Z"/><path d="M84,21a1.07,1.07,0,0,0-.8.18,1,1,0,0,0-.26.75V22H84v.47H82.93V25.7h-.48V22.51h-.62V22h.62v-.15a1.4,1.4,0,0,1,.4-1.08A1.45,1.45,0,0,1,84,20.49Z"/><path d="M86.71,23a.45.45,0,0,0,.22.39,2.35,2.35,0,0,0,.53.23l.63.18a1.09,1.09,0,0,1,.53.33.83.83,0,0,1,.22.61.91.91,0,0,1-.37.76,1.44,1.44,0,0,1-1,.29,1.63,1.63,0,0,1-.9-.23,1.25,1.25,0,0,1-.51-.61l.41-.24a.82.82,0,0,0,.37.45,1.14,1.14,0,0,0,.63.17,1.11,1.11,0,0,0,.6-.15.47.47,0,0,0,.24-.44.46.46,0,0,0-.22-.39,2,2,0,0,0-.53-.24L87,23.92a1.15,1.15,0,0,1-.54-.32.85.85,0,0,1-.22-.6.94.94,0,0,1,.36-.75,1.31,1.31,0,0,1,.89-.3,1.57,1.57,0,0,1,.79.2,1.24,1.24,0,0,1,.49.55l-.4.23a.85.85,0,0,0-.88-.51,1,1,0,0,0-.54.15A.47.47,0,0,0,86.71,23Z"/><path d="M92.68,22h.48V25.7h-.48V25a1.63,1.63,0,0,1-1.48.8,1.8,1.8,0,0,1-1.33-.55,2,2,0,0,1,0-2.72A1.81,1.81,0,0,1,91.2,22a1.64,1.64,0,0,1,1.48.81ZM90.22,24.9a1.36,1.36,0,0,0,1,.42,1.39,1.39,0,0,0,1-.42,1.41,1.41,0,0,0,.42-1,1.43,1.43,0,0,0-1.44-1.45,1.36,1.36,0,0,0-1,.42,1.4,1.4,0,0,0-.42,1A1.41,1.41,0,0,0,90.22,24.9Z"/><path d="M94.18,25.7V20.36h.49V25.7Z"/><path d="M97.38,22a1.63,1.63,0,0,1,1.31.58,2,2,0,0,1,.5,1.35,2.11,2.11,0,0,1,0,.23H96a1.3,1.3,0,0,0,.47.88,1.49,1.49,0,0,0,1,.33,1.37,1.37,0,0,0,.72-.18,1.05,1.05,0,0,0,.46-.45l.42.25a1.76,1.76,0,0,1-.65.62,2,2,0,0,1-1,.22A1.91,1.91,0,0,1,96,25.24a1.86,1.86,0,0,1-.54-1.37A1.91,1.91,0,0,1,96,22.5,1.88,1.88,0,0,1,97.38,22Zm0,.47a1.35,1.35,0,0,0-.95.34,1.38,1.38,0,0,0-.46.88h2.72a1.34,1.34,0,0,0-.44-.9A1.32,1.32,0,0,0,97.38,22.42Z"/></g></g></svg>