<svg xmlns="http://www.w3.org/2000/svg" width="291.14" height="47.29" viewBox="0 0 291.14 47.29"><defs><style>.cls-1{opacity:0.68;}.cls-2{fill:#fff;}</style></defs><g id="Layer_2" data-name="Layer 2"><g id="_728x90" data-name="728x90"><g class="cls-1"><path class="cls-2" d="M1,44.49,0,44.17A67.3,67.3,0,0,1,4.44,33.75l.88.48A65.79,65.79,0,0,0,1,44.49ZM11.78,25.23l-.71-.7a28,28,0,0,1,9.3-6.43l.45.89A27.25,27.25,0,0,0,11.78,25.23ZM56.6,20.68c-.93,0-1.87,0-2.79-.07l0-1a49.36,49.36,0,0,0,6.08,0A50.13,50.13,0,0,0,65,19l.17,1a49.13,49.13,0,0,1-5.13.6C58.87,20.65,57.72,20.68,56.6,20.68Zm-14-1.62-1.55-.3a69.91,69.91,0,0,0-9.48-1.47l.07-1a72.51,72.51,0,0,1,9.6,1.48l1.55.31ZM76,16.92,75.67,16a66.61,66.61,0,0,0,10-5l.52.85A67.79,67.79,0,0,1,76,16.92ZM95.42,5.4l-.62-.78c1.79-1.43,3.6-3,5.38-4.62l.67.74C99.06,2.39,97.23,4,95.42,5.4Z"/></g><g class="cls-1"><path class="cls-2" d="M290.36,47.29c-2.42-3-4.85-5.92-7.22-8.58l.75-.67c2.38,2.68,4.82,5.58,7.25,8.63Zm-15-16.68c-2.82-2.73-5.64-5.21-8.39-7.39l.62-.78c2.77,2.19,5.62,4.7,8.47,7.45ZM257.8,16.9a53.51,53.51,0,0,0-10.11-4.64l.32-.95A55.41,55.41,0,0,1,258.3,16Zm-49.4-3.15h-.27c-1.58,0-3.18-.06-4.76-.17l.06-1c1.57.11,3.15.17,4.71.17h.26c2.14,0,4.16-.09,6.18-.29l.1,1C212.62,13.66,210.57,13.75,208.4,13.75Zm-16.23-1.81a82,82,0,0,1-10.83-3.25l.35-.94A81.57,81.57,0,0,0,192.39,11Zm33.63-.41-.21-1a54.91,54.91,0,0,1,7.52-1.21,35.74,35.74,0,0,1,3.74-.08l0,1a33.91,33.91,0,0,0-3.64.08A53.86,53.86,0,0,0,225.8,11.53ZM171,4.05l-1.8-1,.49-.88q.86.48,1.77,1Z"/></g></g></g></svg>