<svg xmlns="http://www.w3.org/2000/svg" width="377.36" height="21.62" viewBox="0 0 377.36 21.62"><defs><style>.cls-1{fill:#fff;}</style></defs><g id="Layer_2" data-name="Layer 2"><g id="_728x90" data-name="728x90"><path class="cls-1" d="M6.08,4.16H0V.27H16.65V4.16H10.57V21.23H6.08Z"/><path class="cls-1" d="M27,5.69V9.37a9.5,9.5,0,0,0-1.23-.09c-2.34,0-4.58,1.29-4.58,5.06v6.89H16.77V5.66h4.37V9.43h.12c.54-2.27,2-3.89,4.49-3.89A4.52,4.52,0,0,1,27,5.69Z"/><path class="cls-1" d="M41.8,10.48V21.23H37.64V18.5h-.15c-.18.81-1.53,3-4.94,3-2.52,0-5-1.2-5-4.32,0-3.35,2.84-4.13,5.36-4.43l3-.39c1.35-.18,1.56-.51,1.56-1.52v-.18c0-1.74-1-2.13-2.34-2.13s-2.54.39-2.54,2v.15l-4.13,0v-.6c0-3.06,2-4.79,6.79-4.79S41.8,7,41.8,10.48Zm-4.37,3.71c-.24.3-.72.39-1.5.48L34,15c-1.25.21-2.12.6-2.12,1.68,0,.8.51,1.7,2.33,1.7,2.28,0,3.27-1.5,3.27-2.51Z"/><path class="cls-1" d="M59.79.27v21H55.42V19a4.86,4.86,0,0,1-4.61,2.55c-3.26,0-6.79-2.37-6.79-8.09s3.53-8.08,6.79-8.08A4.87,4.87,0,0,1,55.42,7.9V.27ZM55.6,13.44c0-3-1.79-4.46-3.71-4.46s-3.74,1.41-3.74,4.46,1.79,4.46,3.74,4.46S55.6,16.5,55.6,13.44Z"/><path class="cls-1" d="M77.28,14.55h-11c.27,2.72,1.65,3.8,3.95,3.8a2.76,2.76,0,0,0,3.06-2.09h3.86c-.78,3.53-3.47,5.36-7.16,5.36-4,0-7.84-2.19-7.84-8.12S65.84,5.36,70,5.36s7.4,2.21,7.4,8.2A4.64,4.64,0,0,1,77.28,14.55Zm-4-2.37c-.06-1.94-1-3.5-3.39-3.5-2.09,0-3.32,1.2-3.56,3.5Z"/><path class="cls-1" d="M86.17,14.37h4.64c.09,1.89,1.29,3.44,4.17,3.44,2.42,0,3.71-1,3.71-2.72,0-1.44-1-2.16-2.85-2.52l-3-.57c-3.29-.65-6.08-2.15-6.08-5.95,0-4,3.24-6,7.94-6s8.2,2.16,8.2,6.44H98.27c.06-1.89-1.5-2.73-3.53-2.73-2.4,0-3.3,1.23-3.3,2.52,0,.95.51,2,2.4,2.3l2.81.54c4.91.93,6.8,2.81,6.8,6,0,4.52-3.74,6.47-8.5,6.47C89.59,21.53,86.17,19,86.17,14.37Z"/><path class="cls-1" d="M130,11.35v9.88h-4.38V12.39c0-2.36-1-3.41-2.57-3.41s-2.81,1-2.81,3.41v8.84h-4.37V12.39c0-2.36-1-3.41-2.58-3.41s-2.81,1-2.81,3.41v8.84h-4.37V5.66h4.37V8.92h.18a4.58,4.58,0,0,1,4.55-3.56,4.7,4.7,0,0,1,4.7,3.56,5,5,0,0,1,4.94-3.56C127.82,5.36,130,7.3,130,11.35Z"/><path class="cls-1" d="M146.66,10.48V21.23H142.5V18.5h-.16c-.17.81-1.52,3-4.93,3-2.52,0-5-1.2-5-4.32,0-3.35,2.84-4.13,5.35-4.43l3-.39c1.35-.18,1.56-.51,1.56-1.52v-.18c0-1.74-1-2.13-2.34-2.13s-2.54.39-2.54,2v.15l-4.14,0v-.6c0-3.06,2-4.79,6.8-4.79S146.66,7,146.66,10.48Zm-4.37,3.71c-.24.3-.72.39-1.5.48l-2,.3c-1.26.21-2.12.6-2.12,1.68,0,.8.51,1.7,2.33,1.7,2.28,0,3.27-1.5,3.27-2.51Z"/><path class="cls-1" d="M160.1,5.69V9.37a9.5,9.5,0,0,0-1.23-.09c-2.33,0-4.58,1.29-4.58,5.06v6.89h-4.37V5.66h4.37V9.43h.12c.54-2.27,2-3.89,4.49-3.89A4.52,4.52,0,0,1,160.1,5.69Z"/><path class="cls-1" d="M171.78,17.93v3.42a22.48,22.48,0,0,1-2.46.09c-3.08,0-5.12-1.41-5.12-4.88V9h-2.63V5.66h2.63v-4h4.37v4h3.09V9h-3.09v6.92c0,1.19.45,2,1.83,2Z"/><path class="cls-1" d="M188.21,14.55h-11c.27,2.72,1.64,3.8,4,3.8a2.75,2.75,0,0,0,3-2.09h3.87c-.78,3.53-3.48,5.36-7.16,5.36-4,0-7.84-2.19-7.84-8.12s3.68-8.14,7.81-8.14,7.39,2.21,7.39,8.2A4.64,4.64,0,0,1,188.21,14.55Zm-4-2.37c-.06-1.94-1-3.5-3.38-3.5-2.1,0-3.32,1.2-3.56,3.5Z"/><path class="cls-1" d="M200.85,5.69V9.37a9.5,9.5,0,0,0-1.23-.09c-2.33,0-4.58,1.29-4.58,5.06v6.89h-4.37V5.66H195V9.43h.12c.54-2.27,2-3.89,4.49-3.89A4.52,4.52,0,0,1,200.85,5.69Z"/><path class="cls-1" d="M201,18.92a2.65,2.65,0,1,1,2.64,2.61A2.63,2.63,0,0,1,201,18.92Z"/><path class="cls-1" d="M216,.27h14.31V4.16H220.5v4.7h8.92v3.5H220.5v5h10.11v3.9H216Z"/><path class="cls-1" d="M246.51,10.48V21.23h-4.16V18.5h-.15c-.18.81-1.53,3-4.94,3-2.51,0-5-1.2-5-4.32,0-3.35,2.85-4.13,5.36-4.43l3-.39c1.35-.18,1.56-.51,1.56-1.52v-.18c0-1.74-1-2.13-2.33-2.13s-2.55.39-2.55,2v.15l-4.13,0v-.6c0-3.06,2-4.79,6.8-4.79S246.51,7,246.51,10.48Zm-4.37,3.71c-.24.3-.72.39-1.5.48l-2,.3c-1.26.21-2.13.6-2.13,1.68,0,.8.51,1.7,2.34,1.7,2.27,0,3.26-1.5,3.26-2.51Z"/><path class="cls-1" d="M260,5.69V9.37a9.5,9.5,0,0,0-1.23-.09c-2.34,0-4.58,1.29-4.58,5.06v6.89h-4.37V5.66h4.37V9.43h.12c.54-2.27,2-3.89,4.49-3.89A4.52,4.52,0,0,1,260,5.69Z"/><path class="cls-1" d="M276.9,11.35v9.88h-4.37V12.39c0-2.36-1-3.41-2.87-3.41a3.06,3.06,0,0,0-3.26,3.41v8.84H262V5.66h4.38V8.92h.18c.26-1.47,1.76-3.56,5-3.56C274.57,5.36,276.9,7.3,276.9,11.35Z"/><path class="cls-1" d="M286.91.27h13.86V4.16H291.4V9.07h7.75v3.62H291.4v8.54h-4.49Z"/><path class="cls-1" d="M315.56,10.48V21.23H311.4V18.5h-.15c-.18.81-1.53,3-4.94,3-2.52,0-5-1.2-5-4.32,0-3.35,2.84-4.13,5.36-4.43l3-.39c1.35-.18,1.56-.51,1.56-1.52v-.18c0-1.74-1-2.13-2.34-2.13s-2.54.39-2.54,2v.15l-4.13,0v-.6c0-3.06,2-4.79,6.79-4.79S315.56,7,315.56,10.48Zm-4.37,3.71c-.24.3-.72.39-1.5.48l-2,.3c-1.26.21-2.13.6-2.13,1.68,0,.8.51,1.7,2.33,1.7,2.28,0,3.27-1.5,3.27-2.51Z"/><path class="cls-1" d="M317.78,16.11h3.92c.15,1.49,1.11,2.18,2.84,2.18,1.5,0,2.43-.54,2.43-1.64,0-.72-.45-1.14-1.47-1.38l-2.87-.6c-3.27-.75-4.4-2.49-4.4-4.58,0-3,2.51-4.73,6.34-4.73,4.14,0,6.29,2,6.32,5.39h-3.65a2.22,2.22,0,0,0-2.55-2.16c-1.43,0-2.33.57-2.33,1.44s.69,1.26,1.68,1.47l3,.62c2.45.54,4.49,1.68,4.49,4.46,0,3.48-3.2,5-7,5C320.29,21.53,317.81,19.73,317.78,16.11Z"/><path class="cls-1" d="M342.87,17.93v3.42a22.48,22.48,0,0,1-2.46.09c-3.08,0-5.12-1.41-5.12-4.88V9h-2.63V5.66h2.63v-4h4.38v4h3.08V9h-3.08v6.92c0,1.19.44,2,1.82,2Z"/><path class="cls-1" d="M359.3,14.55h-11c.27,2.72,1.64,3.8,3.95,3.8a2.75,2.75,0,0,0,3.05-2.09h3.87c-.78,3.53-3.48,5.36-7.16,5.36-4,0-7.84-2.19-7.84-8.12s3.68-8.14,7.81-8.14,7.39,2.21,7.39,8.2A4.64,4.64,0,0,1,359.3,14.55Zm-4-2.37c-.06-1.94-1-3.5-3.38-3.5-2.1,0-3.32,1.2-3.56,3.5Z"/><path class="cls-1" d="M371.94,5.69V9.37a9.5,9.5,0,0,0-1.23-.09c-2.33,0-4.58,1.29-4.58,5.06v6.89h-4.37V5.66h4.37V9.43h.12c.54-2.27,2-3.89,4.49-3.89A4.52,4.52,0,0,1,371.94,5.69Z"/><path class="cls-1" d="M372.06,18.92a2.65,2.65,0,1,1,2.64,2.61A2.63,2.63,0,0,1,372.06,18.92Z"/></g></g></svg>