<svg xmlns="http://www.w3.org/2000/svg" xmlns:xlink="http://www.w3.org/1999/xlink" viewBox="0 0 175.59 250.5"><defs><style>.cls-1,.cls-22,.cls-25,.cls-26{fill:none;}.cls-2{isolation:isolate;}.cls-16,.cls-23,.cls-3{fill:#fff;}.cls-10,.cls-11,.cls-3,.cls-6,.cls-7,.cls-8{fill-rule:evenodd;}.cls-4{clip-path:url(#clip-path);}.cls-5,.cls-6{fill:#000005;}.cls-7{fill:#5900c7;}.cls-12,.cls-8{fill:#e8baf7;}.cls-9{fill:#591a38;}.cls-10{fill:#000a3b;}.cls-11{fill:#d4a1e8;}.cls-13,.cls-24{fill:#d1d0d0;}.cls-14{fill:#c92c02;}.cls-15{fill:#a31f02;}.cls-16{opacity:0.44;mix-blend-mode:overlay;}.cls-17{fill:#f5690b;}.cls-18{fill:#bd4b00;}.cls-19{fill:#00885d;}.cls-20{fill:#63cda9;}.cls-21{fill:#009467;}.cls-21,.cls-24{opacity:0.28;}.cls-22{stroke:#009467;stroke-width:0.33px;}.cls-22,.cls-25,.cls-26{stroke-miterlimit:10;}.cls-25{stroke:#fff;stroke-width:0.43px;}.cls-26{stroke:#53141f;stroke-width:0.97px;}</style><clipPath id="clip-path" transform="translate(-32.05 -19.31)"><path class="cls-1" d="M221.35,148.71C221.35,92.51,271.22,0,215,0,188.37,0,23.61-1.52,6.3,27.52c-19.18,32.19,11.54,91.65,11.54,121.19a101.76,101.76,0,0,0,203.51,0Z"/></clipPath></defs><g class="cls-2"><g id="Layer_2" data-name="Layer 2"><g id="Layer_1-2" data-name="Layer 1"><polygon class="cls-3" points="76.53 230.83 81.58 230.83 81.58 225.78 85.54 225.78 85.54 230.83 90.59 230.83 90.59 234.79 85.54 234.79 85.54 250.5 81.58 250.5 81.58 234.79 76.53 234.79 76.53 230.83"/><g class="cls-4"><path class="cls-5" d="M156.61,84.12a.62.62,0,0,1,.59-.64.6.6,0,0,1,.63.58c.62,13.1,4.07,21.83,7.2,29.74,3.91,9.87,7.32,18.49,4.22,32.66a.61.61,0,0,1-.72.47.62.62,0,0,1-.48-.73c3-13.81-.33-22.26-4.16-31.95-3.16-8-6.66-16.82-7.28-30.13" transform="translate(-32.05 -19.31)"/><path class="cls-6" d="M120.26,19.51c-31.21-2.69-36.18,21.61-39,45.25l9.17,49.37,68.48,8.9c-9.35-25.35,8.72-34.92,1-49.55-11.39-21.43-4.85-56.27-39.61-54" transform="translate(-32.05 -19.31)"/><path class="cls-7" d="M85.93,120.05c-34.27,21.33-28.8,94.69-28.8,129.4H183.4c0-34.71,5.47-108.07-28.81-129.4h0c-6.17-3.71-11.94-7.7-16.5-12.53H102.44c-4.57,4.83-10.34,8.82-16.51,12.53" transform="translate(-32.05 -19.31)"/><path class="cls-8" d="M111,93a35,35,0,0,1-8.54,14.53h35.65A34.91,34.91,0,0,1,129.55,93l-9.29-3.11Z" transform="translate(-32.05 -19.31)"/><path class="cls-8" d="M120.26,29.52c-4.82,11.59-13,27.17-21.93,36.47-10.26,10.65,2.87,28.18,21.93,28.65,13.42-.33,21.57-8,26.3-20.47,15.79-1,12.21-24.15,1.14-20.54a16.17,16.17,0,0,1,0,7.88c-11.68-9.71-24.37-20.33-27.44-32" transform="translate(-32.05 -19.31)"/><path class="cls-6" d="M110.94,93.12a32.7,32.7,0,0,1-3.22,7.45c6.32-1.26,16.84-3.8,21.83-7.58l-.17.06h0l-.48.16h0l-.49.16h0l-.52.16h0l-.53.14h0l-.53.14h0c-.55.13-1.1.24-1.67.34h0l-.56.1h0l-.57.08h0l-.58.07h0l-1.18.11h0c-.4,0-.8.06-1.21.07h0l-.62,0c-.55,0-1.09,0-1.62-.08l-.57,0-.44,0a30.83,30.83,0,0,1-6.69-1.35" transform="translate(-32.05 -19.31)"/><path class="cls-3" d="M102.44,107.52a40.43,40.43,0,0,0,3.94-4.84l13.88,4.84s-3.53,14.41-25.4,6.63a57.88,57.88,0,0,0,7.58-6.63" transform="translate(-32.05 -19.31)"/><path class="cls-7" d="M65.56,191,35.83,179.52l18.49-37.05C61,130,76.46,126.56,87.53,118.61l-8.74,71.62Z" transform="translate(-32.05 -19.31)"/><path class="cls-6" d="M100.27,93.05c2.45,6.45,2.48,11.27,1.4,15.26a26.6,26.6,0,0,1-3.1,6.88c-1,1.67-2.08,3.25-3,4.86-2.81,4.67-4.69,9.52-1.28,17.2,8,25.05-18.58,21.19-7.32,41.39-1.89-6.56.58-10.94,4.73-14.49,8.21-5.41,11.09-11.7,10.38-18.58a28.4,28.4,0,0,0-2.78-9.17c-4.73-7.84-1.07-12,2.35-16.35l.33-.41c7.28-9.31,8.32-14.48,9-26.6a17.7,17.7,0,0,1-6.81-4.38,27.39,27.39,0,0,1-2.78-3.88c-3.58-6-4-12.36-3-18.79-3.56,12.56-1,20,1.94,27.06" transform="translate(-32.05 -19.31)"/><path class="cls-3" d="M138.09,107.52a38.58,38.58,0,0,1-3.94-4.84l-13.89,4.84s3.53,14.41,25.41,6.63a57.88,57.88,0,0,1-7.58-6.63" transform="translate(-32.05 -19.31)"/><path class="cls-3" d="M120.26,124.34a1.75,1.75,0,1,1-1.75,1.75,1.75,1.75,0,0,1,1.75-1.75m0,7.87a1.76,1.76,0,1,1-1.75,1.75A1.75,1.75,0,0,1,120.26,132.21Zm0-15.75a1.76,1.76,0,1,1-1.75,1.76A1.76,1.76,0,0,1,120.26,116.46Z" transform="translate(-32.05 -19.31)"/><path class="cls-8" d="M113.72,210.93c-15.73,2.93-41.93-3.14-57.66-.21L65.56,191l-22.9-8.79-7.32,17.24c-22.88,53.49,81,29.08,81,16.37" transform="translate(-32.05 -19.31)"/><path class="cls-6" d="M57.6,207.32s-1,2.87-2.06,3.59l9.53-1S57.69,210.49,57.6,207.32Z" transform="translate(-32.05 -19.31)"/><path class="cls-8" d="M130.23,188.16l47.17,8.78L174.22,191l22.9-8.79,7.32,17.24c22.88,53.49-84.55,4.65-84.55-8.06" transform="translate(-32.05 -19.31)"/><path class="cls-6" d="M175.31,193.05a65,65,0,0,0,12.29,5.24l-10.2-1.35Z" transform="translate(-32.05 -19.31)"/><path class="cls-6" d="M86.92,178.64c-1.88-6.56.58-10.94,4.73-14.49,11.75-7.74,12.58-17.27,7.6-27.75-4.88-8.09-.83-12.3,2.68-16.76,7.34-9.38,8.82-18.77,4.93-28.16-8.6-8-9.81-16.65-8.53-25.49L81.27,64.76C71.21,92.7,91.1,94.43,76.33,103.61c-19.3,12-5.24,26.59-12,38.13-9.24,10.84-11,23-3.81,36.9H86.92" transform="translate(-32.05 -19.31)"/><path class="cls-9" d="M120.61,61.41c.26,4.45-.25,8.06,4.31,10.8l.6.36-.59.38-3.82,1.9,2.77-2.27c-4.35-2.93-3-6.76-3.27-11.17" transform="translate(-32.05 -19.31)"/><path class="cls-10" d="M102.68,60.41c2.17-4.36,7.84-8.16,13.44-.59-4.86-3.84-9.32-3.43-13.44.59" transform="translate(-32.05 -19.31)"/><path class="cls-10" d="M138.42,60.41c-2.17-4.36-7.84-8.16-13.44-.59,4.85-3.84,9.31-3.43,13.44.59" transform="translate(-32.05 -19.31)"/><path class="cls-3" d="M117.22,77.44c1.3,2.59,4.67,4.86,8,.35-2.88,2.29-5.54,2-8-.35" transform="translate(-32.05 -19.31)"/><path class="cls-11" d="M108.82,71.17c-2.15,0-3.88,1.32-3.88,3s1.73,2.94,3.88,2.94,3.87-1.32,3.87-2.94-1.73-3-3.87-3m23.91,0c2.14,0,3.87,1.32,3.87,3s-1.73,2.94-3.87,2.94-3.88-1.32-3.88-2.94S130.58,71.17,132.73,71.17Z" transform="translate(-32.05 -19.31)"/><path class="cls-7" d="M174.22,191,204,179.52l-18.49-37.05c-6.71-12.44-22.14-15.91-33.21-23.86L161,190.23Z" transform="translate(-32.05 -19.31)"/></g><path class="cls-12" d="M132.44,203.29c-9.14-5-21.27-10-29.21-11.09S91.63,186,99,186.49s11.79,1.22,11.79,1.22-3.57-4.23,6-3.7,15.94,1.5,18.06,5.5" transform="translate(-32.05 -19.31)"/><path class="cls-13" d="M135,167.59c0,1.4-9.54,2.53-21.32,2.53S92.41,169,92.41,167.59s9.54-2.53,21.31-2.53S135,166.19,135,167.59Z" transform="translate(-32.05 -19.31)"/><path class="cls-14" d="M125.32,165.38a2,2,0,1,1-2-2A2,2,0,0,1,125.32,165.38Z" transform="translate(-32.05 -19.31)"/><path class="cls-15" d="M123.76,166.72a2,2,0,0,1-2-2,2.14,2.14,0,0,1,.15-.76,2,2,0,1,0,3.29,2.21A2,2,0,0,1,123.76,166.72Z" transform="translate(-32.05 -19.31)"/><path class="cls-16" d="M124.57,164.49c.3.51.28,1.08,0,1.26s-.81-.09-1.11-.61-.28-1.08,0-1.26S124.27,164,124.57,164.49Z" transform="translate(-32.05 -19.31)"/><path class="cls-14" d="M129.79,167.44a2.84,2.84,0,1,1-2.84-2.83A2.84,2.84,0,0,1,129.79,167.44Z" transform="translate(-32.05 -19.31)"/><path class="cls-15" d="M127.6,169.31a2.84,2.84,0,0,1-2.83-2.84,2.89,2.89,0,0,1,.2-1.06,2.84,2.84,0,1,0,4.61,3.1A2.86,2.86,0,0,1,127.6,169.31Z" transform="translate(-32.05 -19.31)"/><path class="cls-16" d="M128.74,166.18c.41.73.4,1.52,0,1.77s-1.14-.12-1.55-.85-.4-1.51,0-1.77S128.32,165.46,128.74,166.18Z" transform="translate(-32.05 -19.31)"/><path class="cls-17" d="M103.15,167.44s-3.46-4.42-3-7.17,5.8,3.15,5.8,3.15S106.89,167.07,103.15,167.44Z" transform="translate(-32.05 -19.31)"/><path class="cls-18" d="M103.15,167.44c3.74-.37,2.77-4,2.77-4a29.3,29.3,0,0,0-2.61-2.49c-.14,1.36-.42,3.28-.87,3.5-.7.35-.7-3-.7-3s-.63,1.25-.95,2.05A20.82,20.82,0,0,0,103.15,167.44Z" transform="translate(-32.05 -19.31)"/><circle class="cls-14" cx="122.27" cy="168.95" r="3.38" transform="translate(-96.19 243.14) rotate(-80.74)"/><path class="cls-15" d="M123.05,171.17a3.38,3.38,0,0,1-3.38-3.38,3.33,3.33,0,0,1,.25-1.26,3.38,3.38,0,1,0,5.49,3.68A3.39,3.39,0,0,1,123.05,171.17Z" transform="translate(-32.05 -19.31)"/><path class="cls-16" d="M124.4,167.45c.5.86.48,1.8-.05,2.1s-1.35-.15-1.84-1-.48-1.8,0-2.1S123.9,166.59,124.4,167.45Z" transform="translate(-32.05 -19.31)"/><path class="cls-19" d="M114.58,171.35s5.46-.28,4.44-1.81-2.77-1.42-1.75-2.82,1.29-2.5-.41-2.86-4.47,1.89-4.9,0-.51-4.1-2.84-3.11-1.31,2.89-3.2,2.67-2.84.48-2.77,1.81,2.11,1.9-1.24,1.83-4.73,2.21-2.4,3.91,8.59,1.51,9.54,1.57S110.72,171.72,114.58,171.35Z" transform="translate(-32.05 -19.31)"/><path class="cls-20" d="M101.51,172.87s-5.41-.29-4.4-1.81,2.74-1.4,1.73-2.8-1.28-2.47.41-2.83,4.43,1.87,4.87,0,.5-4.07,2.81-3.09,1.3,2.87,3.18,2.65,2.82.48,2.75,1.79-2.1,1.9,1.23,1.82,4.69,2.2,2.38,3.88S107.94,174,107,174,105.34,173.23,101.51,172.87Z" transform="translate(-32.05 -19.31)"/><path class="cls-21" d="M106.64,173.4s-1.15-1.09-5.34-1.71-1.81-1.82.5-1.44-.14-1.36-1-2.37.22-1.52,1.81-.94,2.82,1.37,3.18-1.51,1.23-2.46,1.73-.8,1.52,2.52,2.6,2.05,1.81.52.44,1.73-.65,2.07,2.31,2.07S114.37,173.29,106.64,173.4Z" transform="translate(-32.05 -19.31)"/><path class="cls-22" d="M106.64,173.4a6.78,6.78,0,0,0-4-5.52" transform="translate(-32.05 -19.31)"/><line class="cls-22" x1="74.6" y1="145.54" x2="74.6" y2="154.09"/><path class="cls-22" d="M110.26,167.44s-3.11,2.64-3.62,6" transform="translate(-32.05 -19.31)"/><path class="cls-22" d="M113.36,171.23a43.36,43.36,0,0,0-6.72,2.17" transform="translate(-32.05 -19.31)"/><path class="cls-22" d="M100.94,170.85a10.44,10.44,0,0,1,5.7,2.55" transform="translate(-32.05 -19.31)"/><path class="cls-23" d="M113.72,170.12c-11.77,0-21.31-1.13-21.31-2.53h0s.43,14.18,8.42,19.92h25.83c8-5.74,8.41-19.92,8.41-19.92C135,169,125.5,170.12,113.72,170.12Z" transform="translate(-32.05 -19.31)"/><path class="cls-24" d="M95.61,168.92c-2-.39-3.2-.84-3.2-1.33h0s.43,14.18,8.42,19.92h21a3.18,3.18,0,0,0-.51-3.9C105.55,181.81,98.52,173.88,95.61,168.92Z" transform="translate(-32.05 -19.31)"/><path class="cls-25" d="M121.84,166.77c.22.65-1.13,1.67-3,2.29s-3.57.59-3.78-.06,1.13-1.68,3-2.29S121.63,166.11,121.84,166.77Z" transform="translate(-32.05 -19.31)"/><path class="cls-25" d="M119.51,168.1c-.12.68-1.8.93-3.74.56s-3.4-1.2-3.28-1.88,1.8-.92,3.74-.55S119.64,167.43,119.51,168.1Z" transform="translate(-32.05 -19.31)"/><path class="cls-23" d="M123.74,66.22s5.77-8.88,14-2C134.33,67.77,123.74,66.22,123.74,66.22Z" transform="translate(-32.05 -19.31)"/><path class="cls-5" d="M134.81,65.83a4.4,4.4,0,0,0,.46-2.69,4.44,4.44,0,0,0-.15-.63,8,8,0,0,0-8.78,1,4.66,4.66,0,0,0,0,.91,4.34,4.34,0,0,0,.92,2.11A23.84,23.84,0,0,0,134.81,65.83Z" transform="translate(-32.05 -19.31)"/><path class="cls-26" d="M123.74,66.22s5.74-9.06,14-2" transform="translate(-32.05 -19.31)"/><path class="cls-23" d="M117.22,66.22s-5.77-8.88-14-2C106.63,67.77,117.22,66.22,117.22,66.22Z" transform="translate(-32.05 -19.31)"/><path class="cls-5" d="M106.14,65.83a4.54,4.54,0,0,1-.46-2.69,4.47,4.47,0,0,1,.16-.63,7.94,7.94,0,0,1,8.77,1,4.64,4.64,0,0,1,0,.91,4.44,4.44,0,0,1-.92,2.11A23.9,23.9,0,0,1,106.14,65.83Z" transform="translate(-32.05 -19.31)"/><path class="cls-26" d="M117.22,66.22s-5.75-9.06-14-2" transform="translate(-32.05 -19.31)"/><path class="cls-12" d="M96.36,212.21s12.31-3.83,13.94-3.72c0,0,11,0,13.53,3s3.62,9.36,4.29,11.75-3.26,5.21-4.56,1.47c-2.51,3.31-5.1-.53-5.1-.53-1.7,1.86-4.15.68-4.15.68s-2.26,3-4.34,1.28a12.28,12.28,0,0,0-4.09-2.2" transform="translate(-32.05 -19.31)"/><path class="cls-3" d="M128.27,224.93a1.47,1.47,0,0,1,1.8,1,1.49,1.49,0,0,1-1,1.8,1.47,1.47,0,1,1-.75-2.85Zm.42,4a1.46,1.46,0,0,1,1.79,1.05,1.47,1.47,0,1,1-1.79-1.05Zm0,4a1.47,1.47,0,1,1-1,1.8A1.46,1.46,0,0,1,128.66,233Zm-.76,3.79a1.47,1.47,0,1,1-1.47,1.47A1.47,1.47,0,0,1,127.9,236.76Zm-2.15,3.4a1.47,1.47,0,1,1-1.47,1.47A1.47,1.47,0,0,1,125.75,240.16Zm-2.92,2.76a1.47,1.47,0,1,1-1.47,1.47A1.47,1.47,0,0,1,122.83,242.92Zm-3.66,1.6A1.47,1.47,0,1,1,117.7,246,1.47,1.47,0,0,1,119.17,244.52Z" transform="translate(-32.05 -19.31)"/><path class="cls-3" d="M102.91,224.82A1.47,1.47,0,1,0,104,226.6,1.48,1.48,0,0,0,102.91,224.82Zm-.34,4a1.47,1.47,0,1,0,1.08,1.78A1.47,1.47,0,0,0,102.57,228.84Zm.1,4a1.47,1.47,0,1,0-.7,2.86,1.47,1.47,0,0,0,.7-2.86Zm.58,3.89a1.47,1.47,0,1,0,1.47,1.47A1.47,1.47,0,0,0,103.25,236.76Zm2.15,3.4a1.47,1.47,0,1,0,1.47,1.47A1.47,1.47,0,0,0,105.4,240.16Zm2.92,2.76a1.47,1.47,0,1,0,1.47,1.47A1.47,1.47,0,0,0,108.32,242.92Zm3.66,1.6a1.47,1.47,0,1,0,1.47,1.47A1.47,1.47,0,0,0,112,244.52Z" transform="translate(-32.05 -19.31)"/></g></g></g></svg>