<svg xmlns="http://www.w3.org/2000/svg" viewBox="0 0 505.09 26.87"><defs><style>.cls-1{fill:#fff;}.cls-2{fill:#7bec02;}</style></defs><g id="Layer_2" data-name="Layer 2"><g id="Layer_1-2" data-name="Layer 1"><path class="cls-1" d="M8.7,21.73a14.89,14.89,0,0,1-3.32-.35,8.65,8.65,0,0,1-2.8-1.12,5.71,5.71,0,0,1-1.89-2A5.63,5.63,0,0,1,0,15.42v-.3a.81.81,0,0,1,0-.25H4.35a.71.71,0,0,0,0,.23v.26a2.46,2.46,0,0,0,.51,1.58,3.12,3.12,0,0,0,1.51,1,7.63,7.63,0,0,0,2.31.32,11.08,11.08,0,0,0,1.5-.1,5.86,5.86,0,0,0,1.17-.3,3,3,0,0,0,.85-.45,1.68,1.68,0,0,0,.49-.61,1.86,1.86,0,0,0,.16-.79,1.72,1.72,0,0,0-.51-1.29,4.16,4.16,0,0,0-1.4-.84,17.44,17.44,0,0,0-2-.65l-2.28-.6a16.48,16.48,0,0,1-2.28-.76,8.94,8.94,0,0,1-2-1.09A4.67,4.67,0,0,1,1,9.11,5.05,5.05,0,0,1,.44,6.72a5,5,0,0,1,.63-2.57A4.92,4.92,0,0,1,2.83,2.37a8.46,8.46,0,0,1,2.63-1A15.05,15.05,0,0,1,8.7,1a14,14,0,0,1,3.1.34A7.71,7.71,0,0,1,14.37,2.4a5.28,5.28,0,0,1,1.74,1.84,5.21,5.21,0,0,1,.63,2.62v.35H12.5V7A2,2,0,0,0,12,5.64a3.18,3.18,0,0,0-1.31-.88,5.69,5.69,0,0,0-2-.32,8.3,8.3,0,0,0-2.08.23,2.94,2.94,0,0,0-1.32.69,1.53,1.53,0,0,0,.06,2.22,4.48,4.48,0,0,0,1.4.79,17.83,17.83,0,0,0,2,.6c.74.17,1.5.37,2.28.58s1.54.47,2.28.76a8.22,8.22,0,0,1,2,1.1A4.88,4.88,0,0,1,16.74,13a4.74,4.74,0,0,1,.52,2.3A5.79,5.79,0,0,1,16.15,19a6.28,6.28,0,0,1-3,2.05A14,14,0,0,1,8.7,21.73Z"/><path class="cls-1" d="M25,21.73a4.66,4.66,0,0,1-2.36-.52,3.17,3.17,0,0,1-1.32-1.42,4.69,4.69,0,0,1-.41-2V9.14H19V6h2l.76-4.38h3.15V6h2.81V9.14H24.94v8a1.53,1.53,0,0,0,.33,1.06,1.3,1.3,0,0,0,1.05.37h1.43v2.68a6.4,6.4,0,0,1-.82.22q-.46.11-1,.18A6.81,6.81,0,0,1,25,21.73Z"/><path class="cls-1" d="M30.38,3.77V.26h4.06V3.77Zm0,17.61V6h4.06V21.38Z"/><path class="cls-1" d="M38.18,21.38V.26h4.06V21.38Z"/><path class="cls-1" d="M46,21.38V.26H50V21.38Z"/><path class="cls-1" d="M65.72,21.73a10.75,10.75,0,0,1-2.89-.35,6.9,6.9,0,0,1-2.19-1,4.39,4.39,0,0,1-1.39-1.5,4.1,4.1,0,0,1-.48-2v-.23a.42.42,0,0,1,0-.18h3.91v.24a1.75,1.75,0,0,0,.47,1.18,2.6,2.6,0,0,0,1.15.66,5.73,5.73,0,0,0,1.51.2,6.82,6.82,0,0,0,1.36-.13,2.8,2.8,0,0,0,1.11-.48,1.1,1.1,0,0,0,.45-.91,1.24,1.24,0,0,0-.57-1.08,5.07,5.07,0,0,0-1.49-.61l-2-.53c-.66-.15-1.33-.33-2-.54a7.49,7.49,0,0,1-1.79-.8,3.66,3.66,0,0,1-1.8-3.33,4,4,0,0,1,.53-2.09,4.39,4.39,0,0,1,1.44-1.47,6.89,6.89,0,0,1,2.16-.87,12.61,12.61,0,0,1,2.68-.27,11.17,11.17,0,0,1,2.51.27,7,7,0,0,1,2,.82,4,4,0,0,1,1.37,1.35,3.24,3.24,0,0,1,.5,1.79v.38a.62.62,0,0,1,0,.24H68.44v-.24a1.31,1.31,0,0,0-.32-.89,2.26,2.26,0,0,0-.92-.57,4.74,4.74,0,0,0-1.45-.2,5.85,5.85,0,0,0-1.07.09,2.7,2.7,0,0,0-.83.26,1.56,1.56,0,0,0-.54.42,1,1,0,0,0-.19.6.94.94,0,0,0,.42.8,3.49,3.49,0,0,0,1.13.51c.47.14,1,.29,1.55.44s1.43.39,2.2.57a11.58,11.58,0,0,1,2.15.75,4,4,0,0,1,1.61,1.33,4,4,0,0,1,.61,2.32,4.76,4.76,0,0,1-.54,2.36,4.13,4.13,0,0,1-1.5,1.55,7.26,7.26,0,0,1-2.25.85A14.35,14.35,0,0,1,65.72,21.73Z"/><path class="cls-1" d="M82.72,21.73a9.51,9.51,0,0,1-4.26-.86,5.6,5.6,0,0,1-2.6-2.64A10.19,10.19,0,0,1,75,13.7a10.14,10.14,0,0,1,.88-4.54,5.63,5.63,0,0,1,2.58-2.63,9.31,9.31,0,0,1,4.19-.86,8.48,8.48,0,0,1,4,.83A5.32,5.32,0,0,1,89,9.07a10.49,10.49,0,0,1,.82,4.48v1.06H79.1a7.23,7.23,0,0,0,.42,2.27,2.7,2.7,0,0,0,1.14,1.39,4.09,4.09,0,0,0,2.06.45A4.2,4.2,0,0,0,84,18.55,2.65,2.65,0,0,0,85,18a2.35,2.35,0,0,0,.64-.87,2.86,2.86,0,0,0,.24-1.2h4a5.76,5.76,0,0,1-.53,2.54,4.93,4.93,0,0,1-1.46,1.8,6.81,6.81,0,0,1-2.23,1.08A10.81,10.81,0,0,1,82.72,21.73ZM79.16,12h6.48a4.56,4.56,0,0,0-.22-1.52,2.8,2.8,0,0,0-.6-1.06,2.18,2.18,0,0,0-.92-.59,3.53,3.53,0,0,0-1.21-.19A4.21,4.21,0,0,0,80.84,9a2.45,2.45,0,0,0-1.14,1.11A5.28,5.28,0,0,0,79.16,12Z"/><path class="cls-1" d="M99.78,21.73a9.55,9.55,0,0,1-4.27-.86,5.62,5.62,0,0,1-2.59-2.64A10.19,10.19,0,0,1,92,13.7a10.14,10.14,0,0,1,.88-4.54A5.63,5.63,0,0,1,95.5,6.53a9.31,9.31,0,0,1,4.19-.86,8.41,8.41,0,0,1,3.94.83,5.33,5.33,0,0,1,2.43,2.57,10.64,10.64,0,0,1,.82,4.48v1.06H96.16a7.23,7.23,0,0,0,.42,2.27,2.61,2.61,0,0,0,1.14,1.39,4.09,4.09,0,0,0,2.06.45,4.2,4.2,0,0,0,1.27-.17,2.65,2.65,0,0,0,1-.53,2.46,2.46,0,0,0,.64-.87,2.86,2.86,0,0,0,.23-1.2h4a5.76,5.76,0,0,1-.53,2.54,5,5,0,0,1-1.46,1.8,6.81,6.81,0,0,1-2.23,1.08A10.81,10.81,0,0,1,99.78,21.73ZM96.22,12h6.48a4.56,4.56,0,0,0-.22-1.52,3.1,3.1,0,0,0-.6-1.06,2.18,2.18,0,0,0-.92-.59,3.53,3.53,0,0,0-1.21-.19A4.21,4.21,0,0,0,97.9,9a2.45,2.45,0,0,0-1.14,1.11A5.28,5.28,0,0,0,96.22,12Z"/><path class="cls-1" d="M109.86,3.77V.26h4.06V3.77Zm0,17.61V6h4.06V21.38Z"/><path class="cls-1" d="M117.66,21.38V6H121l.33,2.1h.2a5.45,5.45,0,0,1,1.27-1.31A5.54,5.54,0,0,1,124.49,6a6.64,6.64,0,0,1,2.05-.29,6,6,0,0,1,2.65.55A3.94,3.94,0,0,1,131,8a6.72,6.72,0,0,1,.63,3.13V21.38h-4.06V11.74a3.78,3.78,0,0,0-.18-1.24,2.08,2.08,0,0,0-.51-.85,2,2,0,0,0-.83-.48A4.21,4.21,0,0,0,124.9,9a3,3,0,0,0-2.77,1.63,3.56,3.56,0,0,0-.41,1.75v9Z"/><path class="cls-1" d="M137.75,26.87a4.56,4.56,0,0,1-1.93-.42,3.59,3.59,0,0,1-1.46-1.24,3.42,3.42,0,0,1-.55-2,2.87,2.87,0,0,1,.74-2.06A5,5,0,0,1,136.23,20a3.18,3.18,0,0,1-1.09-1,2.37,2.37,0,0,1-.43-1.43,2.32,2.32,0,0,1,.84-1.85,4,4,0,0,1,1.91-.92,4.9,4.9,0,0,1-1.68-1.71,4.53,4.53,0,0,1-.6-2.32A4.68,4.68,0,0,1,136,8a5.19,5.19,0,0,1,2.4-1.73,10.27,10.27,0,0,1,3.69-.6,16,16,0,0,1,1.6.08,6.54,6.54,0,0,1,1.35.3,3.7,3.7,0,0,0,1.48-1.42A3.51,3.51,0,0,0,147,3.39h3.77a4.19,4.19,0,0,1-.39,1.87,3.53,3.53,0,0,1-1.13,1.3,4.87,4.87,0,0,1-1.75.74,4.45,4.45,0,0,1,1.17,1.55,4.78,4.78,0,0,1,.41,2,4.87,4.87,0,0,1-.79,2.79A4.91,4.91,0,0,1,146,15.36a8.77,8.77,0,0,1-3.46.62h-2.33a1.82,1.82,0,0,0-1.06.25.82.82,0,0,0-.35.71.88.88,0,0,0,.31.66,1.5,1.5,0,0,0,1,.28h6.39a4,4,0,0,1,4.24,4.2,4.34,4.34,0,0,1-.73,2.49,5,5,0,0,1-2,1.69,6.73,6.73,0,0,1-2.95.61Zm1.7-2.71h5.4a2.27,2.27,0,0,0,.93-.19,1.56,1.56,0,0,0,.65-.53,1.34,1.34,0,0,0,.23-.77,1.38,1.38,0,0,0-.47-1.14,1.81,1.81,0,0,0-1.17-.38h-5.57a1.63,1.63,0,0,0-1.16.41,1.38,1.38,0,0,0-.45,1.08,1.42,1.42,0,0,0,.45,1.09A1.6,1.6,0,0,0,139.45,24.16Zm2.65-10.81a3.19,3.19,0,0,0,2.18-.66,2.36,2.36,0,0,0,.74-1.88,2.38,2.38,0,0,0-.74-1.89,3.24,3.24,0,0,0-2.18-.65,3.16,3.16,0,0,0-2.14.65,2.38,2.38,0,0,0-.75,1.89,2.86,2.86,0,0,0,.32,1.37,2.08,2.08,0,0,0,1,.88A4,4,0,0,0,142.1,13.35Z"/><path class="cls-1" d="M163.28,21.73a4.73,4.73,0,0,1-2.37-.52,3.14,3.14,0,0,1-1.31-1.42,4.69,4.69,0,0,1-.41-2V9.14h-1.9V6h2.05l.76-4.38h3.15V6h2.81V9.14h-2.81v8a1.58,1.58,0,0,0,.32,1.06,1.33,1.33,0,0,0,1.05.37h1.44v2.68a6.4,6.4,0,0,1-.82.22c-.31.07-.65.13-1,.18A6.78,6.78,0,0,1,163.28,21.73Z"/><path class="cls-1" d="M168.68,21.38V.26h4.06V7.71H173a5,5,0,0,1,1.18-1.06,5.81,5.81,0,0,1,1.55-.72,6.24,6.24,0,0,1,1.88-.26,6,6,0,0,1,2.66.55A3.94,3.94,0,0,1,182,8a6.72,6.72,0,0,1,.63,3.13V21.38h-4.06V11.74a3.78,3.78,0,0,0-.18-1.24,2.33,2.33,0,0,0-.51-.85,2,2,0,0,0-.83-.48A4.21,4.21,0,0,0,175.93,9a3.14,3.14,0,0,0-1.64.43,3.2,3.2,0,0,0-1.14,1.2,3.68,3.68,0,0,0-.41,1.75v9Z"/><path class="cls-1" d="M193.25,21.73a9.55,9.55,0,0,1-4.27-.86,5.64,5.64,0,0,1-2.6-2.64,10.33,10.33,0,0,1-.87-4.53,10.29,10.29,0,0,1,.87-4.54A5.69,5.69,0,0,1,189,6.53a9.31,9.31,0,0,1,4.19-.86,8.41,8.41,0,0,1,3.94.83,5.33,5.33,0,0,1,2.43,2.57,10.64,10.64,0,0,1,.82,4.48v1.06H189.63a7.23,7.23,0,0,0,.42,2.27,2.61,2.61,0,0,0,1.14,1.39,4.09,4.09,0,0,0,2.06.45,4.2,4.2,0,0,0,1.27-.17,2.65,2.65,0,0,0,1-.53,2.46,2.46,0,0,0,.64-.87,2.86,2.86,0,0,0,.23-1.2h4a5.76,5.76,0,0,1-.53,2.54,5,5,0,0,1-1.46,1.8,6.81,6.81,0,0,1-2.23,1.08A10.81,10.81,0,0,1,193.25,21.73ZM189.69,12h6.48a4.56,4.56,0,0,0-.22-1.52,3.1,3.1,0,0,0-.6-1.06,2.18,2.18,0,0,0-.92-.59,3.53,3.53,0,0,0-1.21-.19,4.21,4.21,0,0,0-1.85.36,2.45,2.45,0,0,0-1.14,1.11A5.28,5.28,0,0,0,189.69,12Z"/><path class="cls-1" d="M215.27,21.73a10.75,10.75,0,0,1-2.89-.35,6.9,6.9,0,0,1-2.19-1,4.49,4.49,0,0,1-1.39-1.5,4.1,4.1,0,0,1-.48-2v-.23a.42.42,0,0,1,0-.18h3.91v.24a1.75,1.75,0,0,0,.47,1.18,2.6,2.6,0,0,0,1.15.66,5.73,5.73,0,0,0,1.51.2,6.75,6.75,0,0,0,1.36-.13,2.68,2.68,0,0,0,1.11-.48,1.1,1.1,0,0,0,.45-.91,1.24,1.24,0,0,0-.57-1.08,5.07,5.07,0,0,0-1.49-.61l-2-.53c-.66-.15-1.32-.33-2-.54a7.49,7.49,0,0,1-1.79-.8,3.66,3.66,0,0,1-1.8-3.33,4.06,4.06,0,0,1,.53-2.09,4.39,4.39,0,0,1,1.44-1.47,7,7,0,0,1,2.16-.87,12.61,12.61,0,0,1,2.68-.27,11.17,11.17,0,0,1,2.51.27,7,7,0,0,1,2,.82,4.06,4.06,0,0,1,1.38,1.35,3.32,3.32,0,0,1,.49,1.79v.38a.62.62,0,0,1,0,.24H218v-.24a1.31,1.31,0,0,0-.32-.89,2.19,2.19,0,0,0-.92-.57,4.7,4.7,0,0,0-1.45-.2,5.74,5.74,0,0,0-1.06.09,2.77,2.77,0,0,0-.84.26,1.56,1.56,0,0,0-.54.42,1,1,0,0,0-.19.6.93.93,0,0,0,.43.8,3.34,3.34,0,0,0,1.12.51c.47.14,1,.29,1.55.44s1.44.39,2.2.57a11.58,11.58,0,0,1,2.15.75,4,4,0,0,1,1.61,1.33,3.89,3.89,0,0,1,.61,2.32,4.76,4.76,0,0,1-.54,2.36,4.13,4.13,0,0,1-1.5,1.55,7.26,7.26,0,0,1-2.25.85A14.27,14.27,0,0,1,215.27,21.73Z"/><path class="cls-1" d="M225.29,3.77V.26h4.06V3.77Zm0,17.61V6h4.06V21.38Z"/><path class="cls-1" d="M235.6,26.87a4.56,4.56,0,0,1-1.93-.42,3.59,3.59,0,0,1-1.46-1.24,3.42,3.42,0,0,1-.55-2,2.87,2.87,0,0,1,.74-2.06A5,5,0,0,1,234.08,20,3.27,3.27,0,0,1,233,19a2.44,2.44,0,0,1-.42-1.43,2.31,2.31,0,0,1,.83-1.85,4,4,0,0,1,1.91-.92,4.9,4.9,0,0,1-1.68-1.71,4.53,4.53,0,0,1-.6-2.32A4.61,4.61,0,0,1,233.87,8a5.11,5.11,0,0,1,2.39-1.73,10.29,10.29,0,0,1,3.7-.6c.56,0,1.09,0,1.59.08a6.79,6.79,0,0,1,1.36.3,3.66,3.66,0,0,0,1.47-1.42,3.51,3.51,0,0,0,.42-1.24h3.77a4.19,4.19,0,0,1-.39,1.87,3.45,3.45,0,0,1-1.13,1.3,4.8,4.8,0,0,1-1.75.74,4.33,4.33,0,0,1,1.17,1.55,4.78,4.78,0,0,1,.41,2,4.8,4.8,0,0,1-.79,2.79,4.91,4.91,0,0,1-2.24,1.76,8.77,8.77,0,0,1-3.46.62h-2.33a1.82,1.82,0,0,0-1.06.25.82.82,0,0,0-.35.71.88.88,0,0,0,.31.66,1.52,1.52,0,0,0,1,.28h6.4a4.11,4.11,0,0,1,3.08,1.18,4.15,4.15,0,0,1,1.15,3,4.34,4.34,0,0,1-.73,2.49,5,5,0,0,1-2,1.69,6.76,6.76,0,0,1-3,.61Zm1.7-2.71h5.4a2.35,2.35,0,0,0,.94-.19,1.59,1.59,0,0,0,.64-.53,1.53,1.53,0,0,0-.24-1.91,1.8,1.8,0,0,0-1.16-.38H237.3a1.65,1.65,0,0,0-1.16.41,1.38,1.38,0,0,0-.45,1.08,1.42,1.42,0,0,0,.45,1.09A1.62,1.62,0,0,0,237.3,24.16ZM240,13.35a3.18,3.18,0,0,0,2.17-.66,2.36,2.36,0,0,0,.75-1.88,2.38,2.38,0,0,0-.75-1.89A3.23,3.23,0,0,0,240,8.27a3.17,3.17,0,0,0-2.15.65,2.38,2.38,0,0,0-.75,1.89,2.86,2.86,0,0,0,.32,1.37,2.08,2.08,0,0,0,1,.88A4,4,0,0,0,240,13.35Z"/><path class="cls-1" d="M250.82,21.38V6h3.36l.32,2.1h.21A5.45,5.45,0,0,1,256,6.81,5.32,5.32,0,0,1,257.66,6a6.62,6.62,0,0,1,2-.29,6,6,0,0,1,2.66.55A3.94,3.94,0,0,1,264.13,8a6.86,6.86,0,0,1,.62,3.13V21.38h-4.06V11.74a4.08,4.08,0,0,0-.17-1.24,2.33,2.33,0,0,0-.51-.85,2,2,0,0,0-.84-.48A4.21,4.21,0,0,0,258.06,9a3.06,3.06,0,0,0-2.77,1.63,3.68,3.68,0,0,0-.41,1.75v9Z"/><path class="cls-1" d="M274.63,21.73a10.77,10.77,0,0,1-2.9-.35,7.11,7.11,0,0,1-2.19-1,4.46,4.46,0,0,1-1.38-1.5,4,4,0,0,1-.49-2v-.23a.42.42,0,0,1,0-.18h3.92v.24a1.74,1.74,0,0,0,.46,1.18,2.64,2.64,0,0,0,1.16.66,5.71,5.71,0,0,0,1.5.2,6.75,6.75,0,0,0,1.36-.13,2.68,2.68,0,0,0,1.11-.48,1.1,1.1,0,0,0,.45-.91,1.24,1.24,0,0,0-.57-1.08,5,5,0,0,0-1.49-.61l-2-.53q-1-.22-2-.54a7.75,7.75,0,0,1-1.8-.8,3.94,3.94,0,0,1-1.3-1.3,3.82,3.82,0,0,1-.5-2,4.06,4.06,0,0,1,.53-2.09A4.33,4.33,0,0,1,270,6.81a6.79,6.79,0,0,1,2.16-.87,12.58,12.58,0,0,1,2.67-.27,11.1,11.1,0,0,1,2.51.27,7.15,7.15,0,0,1,2.05.82,4.12,4.12,0,0,1,1.37,1.35,3.33,3.33,0,0,1,.5,1.79v.38a.62.62,0,0,1,0,.24h-3.89v-.24a1.27,1.27,0,0,0-.32-.89,2.13,2.13,0,0,0-.92-.57,4.68,4.68,0,0,0-1.44-.2,5.85,5.85,0,0,0-1.07.09,2.7,2.7,0,0,0-.83.26,1.39,1.39,0,0,0-.54.42,1,1,0,0,0-.19.6.94.94,0,0,0,.42.8,3.43,3.43,0,0,0,1.12.51l1.55.44c.7.2,1.44.39,2.21.57a11.48,11.48,0,0,1,2.14.75,4,4,0,0,1,1.61,1.33,3.89,3.89,0,0,1,.62,2.32,4.76,4.76,0,0,1-.55,2.36,4.13,4.13,0,0,1-1.5,1.55,7.07,7.07,0,0,1-2.25.85A14.24,14.24,0,0,1,274.63,21.73Z"/><path class="cls-1" d="M297.44,21.73a9.67,9.67,0,0,1-4.27-.86,5.74,5.74,0,0,1-2.65-2.66,9.9,9.9,0,0,1-.91-4.51,9.86,9.86,0,0,1,.91-4.54,5.77,5.77,0,0,1,2.65-2.63,11.13,11.13,0,0,1,8.58,0,5.75,5.75,0,0,1,2.64,2.63,10,10,0,0,1,.91,4.54,10,10,0,0,1-.91,4.51,5.72,5.72,0,0,1-2.64,2.66A9.73,9.73,0,0,1,297.44,21.73Zm0-3.15a4.1,4.1,0,0,0,2.15-.5,2.91,2.91,0,0,0,1.18-1.52,7.33,7.33,0,0,0,.38-2.51v-.7a7.33,7.33,0,0,0-.38-2.51,3,3,0,0,0-1.18-1.54,4,4,0,0,0-2.15-.51,3.91,3.91,0,0,0-2.12.51,3,3,0,0,0-1.18,1.54,7.09,7.09,0,0,0-.38,2.51v.7a7.09,7.09,0,0,0,.38,2.51,2.91,2.91,0,0,0,1.18,1.52A4,4,0,0,0,297.44,18.58Z"/><path class="cls-1" d="M309,21.38V9.14h-2.19V6H309V4.32a5.61,5.61,0,0,1,.42-2.23A3.2,3.2,0,0,1,310.76.56,4.82,4.82,0,0,1,313.24,0a7.47,7.47,0,0,1,.92.06c.32,0,.63.09.94.16a6.19,6.19,0,0,1,.77.22V3.13h-1.46a1.36,1.36,0,0,0-1,.35,1.42,1.42,0,0,0-.33,1V6h2.83V9.14H313V21.38Z"/><path class="cls-2" d="M335.44,21.73a10.75,10.75,0,0,1-2.89-.35,6.9,6.9,0,0,1-2.19-1A4.39,4.39,0,0,1,329,18.9a4.1,4.1,0,0,1-.48-2v-.23a.42.42,0,0,1,0-.18h3.91v.24a1.75,1.75,0,0,0,.47,1.18,2.6,2.6,0,0,0,1.15.66,5.73,5.73,0,0,0,1.51.2,6.82,6.82,0,0,0,1.36-.13,2.8,2.8,0,0,0,1.11-.48,1.1,1.1,0,0,0,.45-.91,1.24,1.24,0,0,0-.57-1.08,5.07,5.07,0,0,0-1.49-.61l-2-.53c-.66-.15-1.33-.33-2-.54a7.49,7.49,0,0,1-1.79-.8,3.85,3.85,0,0,1-1.3-1.3,3.73,3.73,0,0,1-.5-2,4,4,0,0,1,.53-2.09,4.39,4.39,0,0,1,1.44-1.47A6.79,6.79,0,0,1,333,5.94a12.61,12.61,0,0,1,2.68-.27,11.17,11.17,0,0,1,2.51.27,7,7,0,0,1,2,.82,4,4,0,0,1,1.37,1.35,3.24,3.24,0,0,1,.5,1.79v.38a.62.62,0,0,1,0,.24h-3.88v-.24a1.31,1.31,0,0,0-.32-.89,2.26,2.26,0,0,0-.92-.57,4.74,4.74,0,0,0-1.45-.2,5.85,5.85,0,0,0-1.07.09,2.7,2.7,0,0,0-.83.26,1.56,1.56,0,0,0-.54.42,1,1,0,0,0-.19.6.94.94,0,0,0,.42.8,3.49,3.49,0,0,0,1.13.51c.47.14,1,.29,1.55.44s1.43.39,2.2.57a11.58,11.58,0,0,1,2.15.75,4,4,0,0,1,1.61,1.33,4,4,0,0,1,.61,2.32,4.76,4.76,0,0,1-.54,2.36,4.08,4.08,0,0,1-1.51,1.55,7.11,7.11,0,0,1-2.24.85A14.35,14.35,0,0,1,335.44,21.73Z"/><path class="cls-2" d="M350.42,21.73a5.26,5.26,0,0,1-3.71-1.28,5.49,5.49,0,0,1-1.37-4.15V6h4.06v9.61a3.88,3.88,0,0,0,.18,1.27,2,2,0,0,0,.51.83,1.94,1.94,0,0,0,.83.47,3.83,3.83,0,0,0,1.11.14,3,3,0,0,0,2.78-1.65,3.65,3.65,0,0,0,.4-1.73V6h4.07V21.38H356l-.3-2.1h-.2a6.31,6.31,0,0,1-1.3,1.28,6.08,6.08,0,0,1-1.68.87A6.63,6.63,0,0,1,350.42,21.73Z"/><path class="cls-2" d="M371.6,21.73a6.21,6.21,0,0,1-2.73-.6,4.73,4.73,0,0,1-2-1.82h-.2l-.33,2.07H363V.26h4.06V7.71h.18a4.41,4.41,0,0,1,1.14-1.14,4.56,4.56,0,0,1,1.52-.68,7.09,7.09,0,0,1,1.84-.22,5.91,5.91,0,0,1,3.17.84A5.55,5.55,0,0,1,377,9.13a11.53,11.53,0,0,1,.76,4.54,11.88,11.88,0,0,1-.74,4.56,5.48,5.48,0,0,1-2.13,2.64A6.21,6.21,0,0,1,371.6,21.73Zm-1.25-3.33a3.46,3.46,0,0,0,1.94-.48,2.75,2.75,0,0,0,1-1.45,7.88,7.88,0,0,0,.32-2.42v-.67a8.06,8.06,0,0,0-.32-2.44,2.78,2.78,0,0,0-1-1.46A3.46,3.46,0,0,0,370.35,9a3.32,3.32,0,0,0-1.49.3,2.68,2.68,0,0,0-1,.88,4.11,4.11,0,0,0-.6,1.42,7.7,7.7,0,0,0-.21,1.87V14a7,7,0,0,0,.36,2.37,3,3,0,0,0,1.08,1.52A3.11,3.11,0,0,0,370.35,18.4Z"/><path class="cls-2" d="M387,21.73a10.75,10.75,0,0,1-2.89-.35,7.11,7.11,0,0,1-2.19-1,4.6,4.6,0,0,1-1.39-1.5,4.1,4.1,0,0,1-.48-2v-.23a.42.42,0,0,1,0-.18H384v.24a1.7,1.7,0,0,0,.46,1.18,2.64,2.64,0,0,0,1.16.66,5.6,5.6,0,0,0,1.5.2,6.75,6.75,0,0,0,1.36-.13,2.68,2.68,0,0,0,1.11-.48,1.1,1.1,0,0,0,.45-.91,1.24,1.24,0,0,0-.57-1.08,5,5,0,0,0-1.49-.61L386,15q-1-.22-2-.54a7.39,7.39,0,0,1-1.8-.8,3.66,3.66,0,0,1-1.8-3.33,4.06,4.06,0,0,1,.53-2.09,4.39,4.39,0,0,1,1.44-1.47,7,7,0,0,1,2.17-.87,12.45,12.45,0,0,1,2.67-.27,11.17,11.17,0,0,1,2.51.27,7.15,7.15,0,0,1,2.05.82,4.12,4.12,0,0,1,1.37,1.35,3.33,3.33,0,0,1,.5,1.79v.38a.62.62,0,0,1,0,.24h-3.89v-.24a1.31,1.31,0,0,0-.32-.89,2.19,2.19,0,0,0-.92-.57,4.7,4.7,0,0,0-1.45-.2,5.74,5.74,0,0,0-1.06.09,2.7,2.7,0,0,0-.83.26,1.51,1.51,0,0,0-.55.42,1,1,0,0,0-.19.6,1,1,0,0,0,.43.8,3.43,3.43,0,0,0,1.12.51l1.55.44c.7.2,1.44.39,2.21.57a11.74,11.74,0,0,1,2.14.75,4,4,0,0,1,1.61,1.33,3.89,3.89,0,0,1,.61,2.32,4.76,4.76,0,0,1-.54,2.36,4.13,4.13,0,0,1-1.5,1.55,7.07,7.07,0,0,1-2.25.85A14.27,14.27,0,0,1,387,21.73Z"/><path class="cls-2" d="M397,3.77V.26h4.06V3.77Zm0,17.61V6h4.06V21.38Z"/><path class="cls-2" d="M410.25,21.73a6.13,6.13,0,0,1-3.29-.86,5.51,5.51,0,0,1-2.15-2.64,11.85,11.85,0,0,1-.76-4.56,11.32,11.32,0,0,1,.78-4.54A5.58,5.58,0,0,1,407,6.51a5.85,5.85,0,0,1,3.14-.84,7.27,7.27,0,0,1,1.85.22,4.31,4.31,0,0,1,1.52.68,4.53,4.53,0,0,1,1.13,1.14h.17V.26h4.06V21.38H415.5l-.32-2.07H415a4.77,4.77,0,0,1-2,1.82A6.16,6.16,0,0,1,410.25,21.73Zm1.28-3.33a3.08,3.08,0,0,0,1.86-.52,3.12,3.12,0,0,0,1.06-1.52A7,7,0,0,0,414.8,14v-.52a8.27,8.27,0,0,0-.19-1.87,3.61,3.61,0,0,0-.6-1.42,2.79,2.79,0,0,0-1-.88,3.28,3.28,0,0,0-1.46-.3,3.53,3.53,0,0,0-2,.48,2.74,2.74,0,0,0-1.05,1.46,8.06,8.06,0,0,0-.32,2.44v.67a7.88,7.88,0,0,0,.32,2.42,2.71,2.71,0,0,0,1.05,1.45A3.53,3.53,0,0,0,411.53,18.4Z"/><path class="cls-2" d="M429.55,21.73a9.54,9.54,0,0,1-4.26-.86,5.6,5.6,0,0,1-2.6-2.64,10.19,10.19,0,0,1-.88-4.53,10.14,10.14,0,0,1,.88-4.54,5.63,5.63,0,0,1,2.58-2.63,9.31,9.31,0,0,1,4.19-.86,8.45,8.45,0,0,1,4,.83,5.32,5.32,0,0,1,2.42,2.57,10.49,10.49,0,0,1,.82,4.48v1.06H425.93a7.23,7.23,0,0,0,.42,2.27,2.7,2.7,0,0,0,1.14,1.39,4.11,4.11,0,0,0,2.06.45,4.2,4.2,0,0,0,1.27-.17,2.65,2.65,0,0,0,1-.53,2.35,2.35,0,0,0,.64-.87,2.86,2.86,0,0,0,.24-1.2h4a5.76,5.76,0,0,1-.52,2.54,5.06,5.06,0,0,1-1.47,1.8,6.71,6.71,0,0,1-2.23,1.08A10.81,10.81,0,0,1,429.55,21.73ZM426,12h6.48a4.56,4.56,0,0,0-.22-1.52,2.93,2.93,0,0,0-.59-1.06,2.24,2.24,0,0,0-.92-.59,3.59,3.59,0,0,0-1.22-.19,4.24,4.24,0,0,0-1.85.36,2.45,2.45,0,0,0-1.14,1.11A5.72,5.72,0,0,0,426,12Z"/><path class="cls-2" d="M439.63,21.38V6H443l.32,2.1h.2a5.69,5.69,0,0,1,1.28-1.31A5.38,5.38,0,0,1,446.46,6a6.73,6.73,0,0,1,2.05-.29,6,6,0,0,1,2.66.55A3.94,3.94,0,0,1,452.94,8a6.86,6.86,0,0,1,.62,3.13V21.38H449.5V11.74a4.08,4.08,0,0,0-.17-1.24,2.33,2.33,0,0,0-.51-.85,2,2,0,0,0-.84-.48A4.21,4.21,0,0,0,446.87,9a3.06,3.06,0,0,0-2.77,1.63,3.68,3.68,0,0,0-.41,1.75v9Z"/><path class="cls-2" d="M464,21.73a9,9,0,0,1-4.12-.86,5.58,5.58,0,0,1-2.52-2.66,10.34,10.34,0,0,1-.86-4.51,10.3,10.3,0,0,1,.86-4.54,5.73,5.73,0,0,1,2.54-2.65,8.81,8.81,0,0,1,4.1-.87,9.73,9.73,0,0,1,2.85.38A5.89,5.89,0,0,1,469,7.19a4.92,4.92,0,0,1,1.42,1.94,7.09,7.09,0,0,1,.48,2.73h-4.06a3.88,3.88,0,0,0-.32-1.72,2.22,2.22,0,0,0-1-1,3.51,3.51,0,0,0-1.65-.35,3.19,3.19,0,0,0-1.9.53,3.15,3.15,0,0,0-1.08,1.55,8,8,0,0,0-.35,2.54v.67a7.34,7.34,0,0,0,.37,2.51,3.06,3.06,0,0,0,1.12,1.54,4.1,4.1,0,0,0,3.64.16,2.44,2.44,0,0,0,1-1.05,3.85,3.85,0,0,0,.35-1.7h3.85a7,7,0,0,1-.48,2.66,5.14,5.14,0,0,1-1.4,2,6.26,6.26,0,0,1-2.21,1.19A9.15,9.15,0,0,1,464,21.73Z"/><path class="cls-2" d="M480.93,21.73a9.54,9.54,0,0,1-4.26-.86,5.6,5.6,0,0,1-2.6-2.64,10.19,10.19,0,0,1-.88-4.53,10.14,10.14,0,0,1,.88-4.54,5.63,5.63,0,0,1,2.58-2.63,9.31,9.31,0,0,1,4.19-.86,8.45,8.45,0,0,1,4,.83,5.32,5.32,0,0,1,2.42,2.57,10.49,10.49,0,0,1,.82,4.48v1.06H477.31a7.23,7.23,0,0,0,.42,2.27,2.7,2.7,0,0,0,1.14,1.39,4.11,4.11,0,0,0,2.06.45,4.2,4.2,0,0,0,1.27-.17,2.65,2.65,0,0,0,1-.53,2.35,2.35,0,0,0,.64-.87,2.86,2.86,0,0,0,.24-1.2h4a5.62,5.62,0,0,1-.53,2.54,4.93,4.93,0,0,1-1.46,1.8,6.71,6.71,0,0,1-2.23,1.08A10.81,10.81,0,0,1,480.93,21.73ZM477.37,12h6.48a4.56,4.56,0,0,0-.22-1.52A2.93,2.93,0,0,0,483,9.46a2.24,2.24,0,0,0-.92-.59,3.63,3.63,0,0,0-1.22-.19,4.21,4.21,0,0,0-1.85.36,2.45,2.45,0,0,0-1.14,1.11A5.72,5.72,0,0,0,477.37,12Z"/><path class="cls-2" d="M496.15,15.42V14.05a4.28,4.28,0,0,1,.34-1.8,5.06,5.06,0,0,1,.84-1.31,8.11,8.11,0,0,1,1.1-1c.39-.3.75-.61,1.09-.91a4.27,4.27,0,0,0,.85-1,2.41,2.41,0,0,0,.34-1.25,3.37,3.37,0,0,0-.09-.73,2.25,2.25,0,0,0-.37-.81,2,2,0,0,0-.83-.64A3.72,3.72,0,0,0,498,4.32a3.58,3.58,0,0,0-1.59.3,2.27,2.27,0,0,0-.91.74,2.74,2.74,0,0,0-.41.95,5.27,5.27,0,0,0-.1.93v.4A2.56,2.56,0,0,0,495,8h-4c0-.11,0-.26-.07-.44a3.58,3.58,0,0,1-.05-.61,5.87,5.87,0,0,1,.31-1.93,5.34,5.34,0,0,1,.91-1.65,5.55,5.55,0,0,1,1.5-1.28,7.41,7.41,0,0,1,2.07-.83,10.49,10.49,0,0,1,2.6-.3,12,12,0,0,1,2.3.22,6.91,6.91,0,0,1,1.89.67A5.44,5.44,0,0,1,503.86,3a4.81,4.81,0,0,1,.91,1.49,5.32,5.32,0,0,1,.32,1.87,5.55,5.55,0,0,1-.38,2.17,5.19,5.19,0,0,1-1,1.55,8.6,8.6,0,0,1-1.27,1.16c-.45.33-.87.65-1.27,1a4.73,4.73,0,0,0-1,1,2.36,2.36,0,0,0-.38,1.35v.84Zm-.23,6V17.29h4.14v4.09Z"/></g></g></svg>