<?xml version="1.0" encoding="UTF-8"?>
<svg id="Layer_2" data-name="Layer 2" xmlns="http://www.w3.org/2000/svg" viewBox="0 0 115.68 13.68">
  <defs>
    <style>
      .cls-1 {
        fill: #fff;
      }
    </style>
  </defs>
  <g id="Layer_1-2" data-name="Layer 1">
    <g>
      <path class="cls-1" d="M0,7.73v-.09h4.33c.05.82.39,2.58,2.53,2.58h.07c2.1,0,2.71-1.42,2.71-3.01V.21h4.26v7.1c0,2.49-1,6.36-6.66,6.36h-.64C1.07,13.68,0,10.06,0,7.73Z"/>
      <path class="cls-1" d="M25.39,0c6.64,0,8.24,3.72,8.24,6.54v.53c0,2.78-1.58,6.61-8.24,6.61h-.8c-6.64,0-8.24-3.83-8.24-6.61v-.53c0-2.81,1.6-6.54,8.24-6.54h.8ZM25,3.31c-3.54,0-4.22,1.92-4.22,3.37v.23c0,1.42.75,3.42,4.22,3.42s4.2-1.99,4.2-3.42v-.23c0-1.44-.68-3.37-4.2-3.37Z"/>
      <path class="cls-1" d="M40.43,13.46h-4.26V.21h4.26v13.25Z"/>
      <path class="cls-1" d="M47.72,5.38v8.08h-4.15V.21h4.34l7.44,7.94V.21h4.13v13.25h-4.11l-7.66-8.08Z"/>
      <path class="cls-1" d="M72.36,3.56h-5.22V.21h14.67v3.35h-5.22v9.9h-4.24V3.56Z"/>
      <path class="cls-1" d="M84.2.21h4.26v4.79h7.03V.21h4.26v13.25h-4.26v-5.16h-7.03v5.16h-4.26V.21Z"/>
      <path class="cls-1" d="M115.57.21v3.04h-8.48v1.92h8.21v3.15h-8.21v2.05h8.58v3.08h-12.8V.21h12.7Z"/>
    </g>
  </g>
</svg>