<?xml version="1.0" encoding="UTF-8"?>
<svg id="Layer_2" data-name="Layer 2" xmlns="http://www.w3.org/2000/svg" viewBox="0 0 123.33 22.02">
  <defs>
    <style>
      .cls-1 {
        fill: #fff;
      }

      .cls-2 {
        fill: green;
      }
    </style>
  </defs>
  <g id="Layer_1-2" data-name="Layer 1">
    <g>
      <rect class="cls-2" x=".12" y="2.86" width="123.08" height="16.29" rx="4.22" ry="4.22" transform="translate(-.47 3.1) rotate(-2.87)"/>
      <g>
        <path class="cls-1" d="M7.33,15.38l.14,2.79-2.9.15-.45-9.04,6.36-.32c3.12-.16,4.06,1.05,4.15,2.82v.15c.1,1.76-.75,3.12-3.83,3.27l-3.46.17ZM7.22,13.22l3.22-.16c.9-.04,1.21-.45,1.18-1.01v-.04c-.03-.53-.38-.91-1.28-.86l-3.22.16.1,1.91Z"/>
        <path class="cls-1" d="M24.8,8.25l.1,2.08-5.78.29.07,1.31,5.6-.28.11,2.15-5.6.28.07,1.4,5.86-.29.1,2.1-8.73.44-.45-9.04,8.66-.43Z"/>
        <path class="cls-1" d="M30.02,14.24l.14,2.79-2.9.15-.45-9.04,6.36-.32c3.12-.16,4.06,1.05,4.15,2.82v.15c.1,1.76-.75,3.12-3.83,3.27l-3.46.17ZM29.91,12.08l3.22-.16c.9-.04,1.21-.45,1.18-1.01v-.04c-.03-.53-.38-.91-1.27-.86l-3.22.16.1,1.91Z"/>
        <path class="cls-1" d="M47.49,7.11l.1,2.08-5.78.29.07,1.31,5.6-.28.11,2.15-5.6.28.07,1.4,5.86-.29.1,2.1-8.73.44-.45-9.04,8.66-.43Z"/>
        <path class="cls-1" d="M53.26,15.88l-4.76-8.82,3.36-.17,3.17,6.3,2.52-6.58,3.08-.16-3.68,9.24-3.69.19Z"/>
        <path class="cls-1" d="M68.76,13.53l-4.77.24-.61,1.6-2.9.15,3.65-9.24,3.83-.19,4.69,8.82-3.1.16-.78-1.53ZM66.09,8.28l-1.31,3.45,3-.15-1.69-3.3Z"/>
        <path class="cls-1" d="M76.31,9.2l.28,5.51-2.83.14-.45-9.04,2.96-.15,5.35,5.16-.27-5.42,2.82-.14.45,9.04-2.81.14-5.5-5.25Z"/>
        <path class="cls-1" d="M86.3,5.16l4.98-.25c4.83-.24,6.03,2,6.13,3.94l.02.36c.1,1.98-.69,4.48-5.68,4.73l-4.99.25-.45-9.04ZM89.55,11.88l1.82-.09c2.87-.14,3.08-1.53,3.03-2.5v-.07c-.05-.93-.41-2.27-3.26-2.13l-1.82.09.24,4.7Z"/>
        <path class="cls-1" d="M106.33,11.65l-4.77.24-.61,1.6-2.9.15,3.65-9.24,3.83-.19,4.69,8.82-3.1.15-.78-1.53ZM103.65,6.4l-1.31,3.45,3-.15-1.69-3.3Z"/>
        <path class="cls-1" d="M113.77,3.79l.33,6.68,5.47-.27.12,2.36-8.37.42-.45-9.04,2.9-.15Z"/>
      </g>
    </g>
  </g>
</svg>