<?xml version="1.0" encoding="UTF-8"?>
<svg id="Layer_2" data-name="Layer 2" xmlns="http://www.w3.org/2000/svg" viewBox="0 0 115.19 20.14">
  <defs>
    <style>
      .cls-1 {
        fill: #fff;
      }
    </style>
  </defs>
  <g id="Layer_1-2" data-name="Layer 1">
    <g>
      <path class="cls-1" d="M18.65,16.65h-10.64l-1.54,3.49H0L9.15,0h8.53l9.45,20.14h-6.9l-1.57-3.49ZM13.29,4.68l-3.3,7.52h6.69l-3.38-7.52Z"/>
      <path class="cls-1" d="M53.17,15.46v2.62c0,1.27.14,1.62.33,1.92v.14h-6.69c-.08-.14-.16-.49-.16-1.33v-1.68c0-2.6-.95-3.55-3.79-3.55h-6.79v6.55h-6.47V0h14.94c7.53,0,8.47,3.03,8.47,5.44v.24c0,2.68-1.98,4.25-4.38,4.76,2.68.51,4.55,1.98,4.55,5.01ZM36.06,8.64h7.61c2.08,0,2.6-.89,2.6-1.92v-.05c0-.97-.51-1.84-2.6-1.84h-7.61v3.82Z"/>
      <path class="cls-1" d="M57.31,0h8.77l5.93,12.53,6.06-12.53h8.34v20.14h-6.33V7.28l-6.04,12.86h-4.49l-6.01-12.86v12.86h-6.23V0Z"/>
      <path class="cls-1" d="M98.81,12.86L88.55,0h7.93l5.79,7.55,5.82-7.55h7.09l-9.93,12.88v7.25h-6.44v-7.28Z"/>
    </g>
  </g>
</svg>