<svg xmlns="http://www.w3.org/2000/svg" width="39.42" height="29.57" viewBox="0 0 39.42 29.57"><defs><style>.cls-1{fill:#fff;}.cls-2{fill:#1b2737;}</style></defs><g id="Layer_2" data-name="Layer 2"><g id="Layer_1-2" data-name="Layer 1"><rect class="cls-1" width="39.42" height="29.57" rx="14.78"/><path class="cls-2" d="M21.45,21.47a.92.92,0,0,1-.65-1.57l3.62-3.62H14.18a.93.93,0,0,1,0-1.85H24.42L20.8,10.82a.93.93,0,1,1,1.31-1.31L27.3,14.7h0a1,1,0,0,1,.19.3h0a.82.82,0,0,1,.07.31v.07a.78.78,0,0,1-.07.31h0a1,1,0,0,1-.19.29h0L22.11,21.2A.93.93,0,0,1,21.45,21.47Z"/></g></g></svg>