<svg xmlns="http://www.w3.org/2000/svg" viewBox="0 0 187.75 244.07"><defs><style>.cls-1{fill:#fff;}.cls-2{fill:#333c4d;}.cls-3{fill:#31a7f0;}.cls-4{fill:#f48220;}.cls-5{fill:#87888a;}.cls-6{fill:#868889;}.cls-7{fill:#f16322;}.cls-8{fill:#4d4d4d;}.cls-9{fill:#4e4e4e;}.cls-10{fill:#53b9dd;}.cls-11{fill:#33444e;}.cls-12{fill:#1ca2d2;}.cls-13{fill:#1ba1d2;}.cls-14{fill:#1ea3d3;}.cls-15{fill:#1fa3d3;}.cls-16{fill:#19a0d2;}.cls-17{fill:#28a7d5;}.cls-18{fill:#2ca9d5;}.cls-19{fill:#19a1d2;}.cls-20{fill:#21a4d3;}.cls-21{fill:#24a5d4;}.cls-22{fill:#2ca8d5;}.cls-23{fill:#169fd1;}.cls-24{fill:#1da2d3;}.cls-25{fill:#3e96f7;}.cls-26{fill:#0160a9;}.cls-27{fill:#fefefe;}.cls-28{fill:#cd013b;}.cls-29{fill:#0663aa;}.cls-30{fill:#0763aa;}.cls-31{fill:#0762aa;}.cls-32{fill:#0965ab;}.cls-33{fill:#0865ab;}.cls-34{fill:#126aae;}.cls-35{fill:#cee2ef;}.cls-36{fill:#b7cbe3;}.cls-37{fill:#d4e2ef;}.cls-38{fill:#5a91c3;}.cls-39{fill:#e1edf5;}.cls-40{fill:#0964ab;}.cls-41{fill:#659ac8;}.cls-42{fill:#e1ebf4;}.cls-43{fill:#b3d9ea;}.cls-44{fill:#c9dded;}.cls-45{fill:#f1c711;}.cls-46{fill:#f6dd71;}.cls-47{fill:#f4d242;}.cls-48{fill:#f9e8a1;}.cls-49{fill:#f9e9a5;}.cls-50{fill:#fcf6dc;}.cls-51{fill:#faebab;}.cls-52{fill:#faefc0;}.cls-53{fill:#e1141d;}.cls-54{fill:#5799c9;}.cls-55{fill:#609ecc;}.cls-56{fill:#5397c8;}.cls-57{fill:#f26322;}</style></defs><g id="Layer_2" data-name="Layer 2"><g id="Layer_1-2" data-name="Layer 1"><rect class="cls-1" x="93.49" y="180" width="87.33" height="28.32" rx="14.16"/><path class="cls-2" d="M142.56,192.15h0a2.27,2.27,0,0,1,2-1,3,3,0,0,1,3,3.22,3.11,3.11,0,0,1-3.22,3.23,3.07,3.07,0,0,1-3.2-3.28v-5.05h1.44Zm8.77-1a3.06,3.06,0,0,1,3.19,3.27v3H153.2v-1.14h0a2.2,2.2,0,0,1-2.12,1.31,3,3,0,0,1-3-3.23,3.11,3.11,0,0,1,3.23-3.22Zm12.73,0a3.09,3.09,0,0,1,3.2,3.22v.52h-4.9v0a1.84,1.84,0,0,0,3.12.75H167a3,3,0,0,1-3,1.93,3.23,3.23,0,0,1,0-6.45Zm-43.27,0a2.11,2.11,0,0,1,2.38,1.92h-1.43c0-.37-.37-.63-.93-.63s-1,.3-1,.7c0,1.08,3.45-.07,3.45,2.45,0,1.16-1,2-2.51,2s-2.48-.83-2.52-2h1.45c0,.41.37.69,1,.69s1.07-.3,1.07-.72c0-1.08-3.45.13-3.45-2.45C118.4,192,119.33,191.13,120.79,191.13Zm37,0a2.13,2.13,0,0,1,2.39,1.92h-1.43c0-.37-.38-.63-.94-.63s-.95.3-.95.7c0,1.08,3.45-.07,3.45,2.45,0,1.16-1,2-2.51,2s-2.48-.83-2.52-2h1.46c0,.41.36.69,1,.69s1.08-.3,1.08-.72c0-1.08-3.46.13-3.46-2.45,0-1.15.94-2,2.39-2Zm-25,6.29h-1.44v-6.13h1.44Zm3.94-7.46c-.7,0-1.19.39-1.19,1.33h1.19v1.34h-1.19v4.79h-1.44v-6.13a2.43,2.43,0,0,1,2.63-2.7Zm-11,2.15h0a2,2,0,0,1,1.75-1c1.38,0,2.69.92,2.69,3.1v3.18h-1.44v-3.18c0-1.17-.61-1.72-1.51-1.72s-1.52.58-1.52,1.72v3.18h-1.44v-8.16h1.44v2.86Zm13.35-2.86v2h1.18v1.34h-1.18v4.78h-1.44v-8.16Zm5.26,3.26a1.85,1.85,0,0,0,0,3.69,1.85,1.85,0,0,0,0-3.69Zm7,0a1.85,1.85,0,1,0,1.75,1.84A1.72,1.72,0,0,0,151.33,192.51Zm12.73,0a1.65,1.65,0,0,0-1.67,1.2h0v0h3.35v0A1.66,1.66,0,0,0,164.06,192.47Zm-32-3.82a1,1,0,1,1-1,1A1,1,0,0,1,132.06,188.65Z"/><path class="cls-3" d="M110.34,190.46a4,4,0,1,0,3.9,4,4.12,4.12,0,0,0-.34-1.59l.51-.52.53-.54a5.45,5.45,0,0,1,.69,2.65,5.3,5.3,0,1,1-5.29-5.39Zm3.29-.25a5.25,5.25,0,0,1,1,1l-1.06,1.08-2.71,2.76a.69.69,0,0,1-1,0L108,193.21l1-1,1.34,1.36,3.29-3.35Z"/><rect class="cls-1" x="45.46" y="146" width="87.33" height="28.32" rx="14.16"/><path class="cls-4" d="M68.49,153.05c2.28,2.26,4.55,4.53,6.85,6.78.38.37.37.57,0,.93-2.15,2.11-4.29,4.25-6.41,6.39-.33.34-.52.43-.87,0s-1-.92-1.42-1.38A4.16,4.16,0,0,1,65,164.3c-.31-.39.08-.49.37-.51.77-.06,1.55,0,2.33,0a1.76,1.76,0,0,0,.72-.08c.44-.18.48-.5.09-.79a1.3,1.3,0,0,0-.88-.21H64.09c-.8,0-1.39-.37-1.4-.84s.69-1,1.45-1c1.19,0,2.39,0,3.59,0,.41,0,.89.06,1-.47.09-.3-.43-.59-1-.6-1.22,0-2.43,0-3.65,0-.8,0-1.39-.37-1.39-.85s.69-1,1.4-1c1.22,0,2.44,0,3.66,0,.4,0,1,.05,1-.51s-.54-.57-1-.57c-.71,0-1.42,0-2.13,0-.22,0-.5,0-.59-.22s.13-.41.28-.57c.38-.4.79-.78,1.15-1.2.71-.51,1.2-1.25,1.9-1.78Z"/><path class="cls-5" d="M66.68,154.81c-.45.66-1.14,1.11-1.72,1.87h3c.21,0,.47-.07.63.11s.66.36.54.66a1,1,0,0,1-.91.66H63.86c-.17,0-.37-.05-.51.09s-.65.42-.51.74a1,1,0,0,0,.92.64c1.39,0,2.79,0,4.19,0,.19,0,.43-.08.57.08s.7.38.57.71a1,1,0,0,1-1,.68c-1.37,0-2.75,0-4.12,0-.2,0-.45,0-.59.06s-.72.41-.6.76a1,1,0,0,0,.91.65c1.4,0,2.8,0,4.19,0,.2,0,.42-.07.58.07s.69.4.6.71a1,1,0,0,1-1,.69c-1,0-2.07,0-3.25,0l1.75,1.82c0,.05-.06.12-.1.17-.54.51-1,1.4-1.63,1.46s-1-.85-1.54-1.34c-1.76-1.73-3.51-3.49-5.26-5.24-.17-.17-.36-.32-.54-.48v-.13a3.07,3.07,0,0,1,.52-.68l6-6a3.36,3.36,0,0,1,.68-.51h.13A6.66,6.66,0,0,1,66.68,154.81Z"/><path class="cls-6" d="M83.41,160.37c0-.31,0-.62,0-.93s-.16-.71.19-.75,1-.38,1.27.25c.1.2.16.05.22,0,.4-.4.9-.31,1.38-.31a.92.92,0,0,1,.91.73,8.07,8.07,0,0,1,.14,2.64c0,.62-.57.29-.89.35s-.58,0-.56-.42,0-1.11,0-1.66-.11-.79-.57-.8-.64.38-.64.82,0,1,0,1.46,0,.65-.53.62-.93.07-.94-.61v-1.39Z"/><path class="cls-6" d="M100.07,161.2c.5-.1.76,0,1,.31a.44.44,0,0,0,.54.15.3.3,0,0,0,.21-.31c0-.24-.21-.32-.4-.39s-.63-.19-1-.28a.92.92,0,0,1-.77-1.06,1,1,0,0,1,.84-1,2.38,2.38,0,0,1,1.74,0,1,1,0,0,1,.35.18c.26.25.61.59.29.88a.84.84,0,0,1-1.09-.08c-.09-.08-.13-.23-.23-.31a.38.38,0,0,0-.58.08c-.2.25,0,.37.22.43.41.15.83.27,1.26.39a.85.85,0,0,1,.66.74,1.16,1.16,0,0,1-.43,1.12,3,3,0,0,1-2.67.1.82.82,0,0,1-.45-.82C99.63,161,100,161.23,100.07,161.2Z"/><path class="cls-6" d="M110.63,158.71a.94.94,0,0,1,.19-.07c1.22-.07,1.22-.07,1.57,1.09.13.42.24.85.39,1.39a10.77,10.77,0,0,0,.71-2,1,1,0,0,1,1.21-.48c.18.11.12.26.06.41-.37,1-.75,2-1.11,3a.47.47,0,0,1-.58.31c-.39-.06-.92.24-1.14-.27C111.46,161,111.06,159.83,110.63,158.71Z"/><path class="cls-6" d="M90,157.64c0,.21,0,.39,0,.56s.1.46.42.43.52.09.52.48-.22.48-.55.46-.4.11-.39.39,0,.62,0,.93.16.64.57.66c.25,0,.35.12.36.37a.42.42,0,0,1-.33.48,1.32,1.32,0,0,1-1.93-1.29c0-.37,0-.75,0-1.13,0-.21,0-.41-.31-.41s-.36-.24-.36-.5,0-.45.35-.44.25-.36.43-.49A4.26,4.26,0,0,1,90,157.64Z"/><path class="cls-6" d="M110.05,159.5c0,.77,0,1.54,0,2.31,0,.53-.26.57-.66.55s-.7.07-.69-.5c0-1.46,0-2.92,0-4.38,0-.36.83-1,1.18-.88s.14.25.14.38C110.05,157.82,110.05,158.66,110.05,159.5Z"/><path class="cls-6" d="M97.74,159.19c.16,0,.22-.14.31-.22s.47-.42.76-.3.14.51.18.77-.13.38-.4.39c-.57,0-.81.36-.8.92,0,.31,0,.62,0,.92.07.57-.18.69-.71.71s-.81-.18-.77-.79,0-1.5,0-2.25c0-.26-.18-.64.33-.71C97.36,158.54,97.59,158.64,97.74,159.19Z"/><path class="cls-6" d="M81,160.51v-1.06c0-.84.12-.93,1-.82.24,0,.36.12.36.36v3c0,.52-.39.38-.67.38s-.67.13-.66-.39S81,161,81,160.51Z"/><path class="cls-6" d="M81.75,156.23a.79.79,0,0,1,.76.82c0,.42-.18.81-.75.79s-.87-.23-.87-.76S81.22,156.29,81.75,156.23Z"/><path class="cls-6" d="M117,160.77c.74,0,1.47,0,2.2,0v-.53s-.1-.1-.11-.16a2,2,0,0,0-2.69-1.5c-.87.32-1.21.93-1.2,2.13a1.52,1.52,0,0,0,1,1.56,2.62,2.62,0,0,0,2.65-.43c.12-.15.27-.33.17-.54s-.31-.12-.48-.13a.86.86,0,0,0-.87.32.69.69,0,0,1-1.17-.58C116.57,160.65,116.86,160.77,117,160.77Zm.16-1.58a.6.6,0,0,1,.63.57c0,.4-.44.1-.63.22-.22-.08-.59.13-.58-.27A.52.52,0,0,1,117.2,159.19Z"/><path class="cls-6" d="M105.83,158.5a1.86,1.86,0,0,0-2,2c-.18,1.14.81,2,2.17,2a1.92,1.92,0,0,0,2.09-2C108.05,159.2,107.27,158.49,105.83,158.5Zm.72,2.67a.69.69,0,0,1-.63.51.67.67,0,0,1-.63-.51,2.12,2.12,0,0,1,0-1.34c.11-.31.25-.54.65-.54a.62.62,0,0,1,.64.54,5.11,5.11,0,0,1,.13.59A4,4,0,0,1,106.55,161.17Z"/><path class="cls-6" d="M95.17,161.16c-.4,0-.83-.13-1.13.33-.2.31-.55.25-.84.09a.53.53,0,0,1-.31-.61c.11-.36.45-.17.69-.2a3.85,3.85,0,0,1,.59,0h.33c1.11,0,1.29-.29.83-1.32a1.46,1.46,0,0,0-.39-.53,2.4,2.4,0,0,0-2.51-.12,2.19,2.19,0,0,0-.88,2.08,1.74,1.74,0,0,0,1.65,1.61,2.21,2.21,0,0,0,2.19-.9C95.51,161.32,95.52,161.14,95.17,161.16Zm-2.26-1.35a.56.56,0,0,1,.63-.52c.39,0,.62.23.61.54,0,.47-.44.17-.65.28C93.28,160,92.87,160.26,92.91,159.81Z"/><rect class="cls-1" x="51.89" y="72.46" width="87.33" height="28.32" rx="14.16"/><path class="cls-7" d="M67.12,82.75l3.73-2.16,3-1.73a.17.17,0,0,1,.19,0q3.3,1.92,6.62,3.82a.18.18,0,0,1,.1.17V90.5a.18.18,0,0,1-.1.17l-1.75,1a.15.15,0,0,1-.09,0,.29.29,0,0,1,0-.13V84a.2.2,0,0,0-.11-.2L74,81.12a.18.18,0,0,0-.21,0l-4.68,2.7a.19.19,0,0,0-.1.17q0,3.8,0,7.59v.16l-1.94-1.12Z"/><path class="cls-7" d="M73.91,94.54a2,2,0,0,0-.31-.19l-2.5-1.44a.16.16,0,0,1-.09-.15c0-2.56,0-5.12,0-7.67,0-.06,0-.1.06-.13L72.9,83.9h0A.2.2,0,0,1,73,84v7.6a.17.17,0,0,0,.1.18c.27.14.53.3.79.45a.14.14,0,0,0,.17,0l.8-.46a.17.17,0,0,0,.1-.17c0-.84,0-1.69,0-2.53V83.9s.07,0,.09,0l1.77,1a.14.14,0,0,1,.09.15v7.67a.15.15,0,0,1-.09.15l-2.72,1.57s-.07,0-.09.06Z"/><path class="cls-8" d="M90.84,83.81c-.1.25-.19.51-.28.76-.75,2-1.54,3.93-2.31,5.89a.11.11,0,0,1-.12.08h-.44a.13.13,0,0,1-.16-.1l-1.27-3.21c-.41-1-.84-2.06-1.22-3.1,0-.11-.07-.22-.12-.34a.22.22,0,0,0,0,.13V90.4c0,.11,0,.15-.14.14s-.29,0-.43,0-.11,0-.1-.09V82.92c0-.1,0-.13.13-.13h.76a.12.12,0,0,1,.14.09q1.08,2.76,2.18,5.52l.42,1.06s0,.07.06.1l.36-.93L90.5,82.9c0-.08.06-.11.15-.11h.76c.15,0,.15,0,.15.15v7.52c0,.06,0,.08-.08.08h-.55c-.06,0-.09,0-.08-.07V83.81Z"/><path class="cls-8" d="M110.08,85.82l.15-.19a2.15,2.15,0,0,1,2-.8,1.83,1.83,0,0,1,.92.33,1.54,1.54,0,0,1,.64,1.31c0,1.33,0,2.66,0,4,0,.07,0,.09-.08.08h-.48c-.1,0-.11,0-.11-.11V86.71a2.09,2.09,0,0,0,0-.43,1,1,0,0,0-.75-.82,1.84,1.84,0,0,0-1.72.39,1.43,1.43,0,0,0-.51,1.13v3.44c0,.1,0,.13-.13.12h-.4c-.11,0-.15,0-.15-.14,0-1.55,0-3.1,0-4.65V85c0-.07,0-.09.09-.09H110c.08,0,.09,0,.09.09Z"/><path class="cls-8" d="M115.21,87.67c0-.69,0-1.38,0-2.06,0-.09,0-.12-.12-.12s-.43,0-.65,0c-.06,0-.09,0-.08-.08V85c0-.07,0-.09.08-.09h.66c.09,0,.11,0,.11-.11,0-.5,0-1,0-1.51,0-.08,0-.11.1-.1h.47c.1,0,.11,0,.11.11v1.5c0,.08,0,.11.1.11h.84c.07,0,.1,0,.1.1a1.93,1.93,0,0,0,0,.34c0,.09,0,.12-.11.11H116c-.08,0-.1,0-.1.1v3.89c0,.37.16.53.53.52a1.09,1.09,0,0,0,.4-.07c.08,0,.09,0,.09.07a2.8,2.8,0,0,0,0,.41.09.09,0,0,1-.07.1,1.83,1.83,0,0,1-1,0,.78.78,0,0,1-.6-.77c0-.48,0-1,0-1.44Z"/><path class="cls-8" d="M102.77,85c0-.08,0-.11-.11-.1h-.47c-.07,0-.09,0-.09.09v.7s0,.06,0,.07,0,0-.06-.07a2,2,0,0,0-1.5-.9,2.27,2.27,0,0,0-2.29,1.26,3.49,3.49,0,0,0-.1,2.88,2.22,2.22,0,0,0,2.12,1.46,2,2,0,0,0,1.77-.89.14.14,0,0,1,.09-.08,8.61,8.61,0,0,1-.06,1.35,1.32,1.32,0,0,1-1,1.06,2.77,2.77,0,0,1-1.43,0,1,1,0,0,1-.85-.77s0,0-.08,0h-.37c-.22,0-.23,0-.16.22a1.58,1.58,0,0,0,1.09,1.07,3.39,3.39,0,0,0,2.18,0,1.81,1.81,0,0,0,1.16-1.08,2.39,2.39,0,0,0,.17-.92V85Zm-.62,2.55a3,3,0,0,1-.21,1.22,1.56,1.56,0,0,1-1.5,1.06,1.59,1.59,0,0,1-1.69-1.15,3.28,3.28,0,0,1,0-2.25,1.56,1.56,0,0,1,1.17-1,1.72,1.72,0,0,1,2.13,1.45A3.73,3.73,0,0,1,102.15,87.59Z"/><path class="cls-8" d="M97.61,90.4a1.08,1.08,0,0,1,0-.18c0-.17,0-.17-.17-.14a.36.36,0,0,1-.47-.35,1.55,1.55,0,0,1,0-.22c0-1,0-2.09,0-3.14a1.42,1.42,0,0,0-1.13-1.44,3.33,3.33,0,0,0-1.63,0,1.75,1.75,0,0,0-1.44,1.61c0,.07,0,.1.08.1a3.68,3.68,0,0,1,.47,0c.08,0,.1,0,.11-.1a1.13,1.13,0,0,1,.8-1,2.29,2.29,0,0,1,1.32,0,.92.92,0,0,1,.74.69,1.69,1.69,0,0,1,0,.55.54.54,0,0,1-.37.49,3.74,3.74,0,0,1-.74.15,9,9,0,0,0-1.38.23A1.55,1.55,0,0,0,92.5,89a1.48,1.48,0,0,0,1.06,1.57,2.75,2.75,0,0,0,1,.11,2.2,2.2,0,0,0,1.65-.83l.1-.13,0,0v.14a.73.73,0,0,0,.58.73,1.27,1.27,0,0,0,.58,0A.14.14,0,0,0,97.61,90.4Zm-1.32-1.58A1.63,1.63,0,0,1,95,90.07a2.12,2.12,0,0,1-1.09,0,.91.91,0,0,1-.71-.89,1.1,1.1,0,0,1,.19-.75,1.2,1.2,0,0,1,.69-.41c.42-.1.84-.14,1.27-.22a3,3,0,0,0,1-.29A8.07,8.07,0,0,1,96.29,88.82Z"/><path class="cls-8" d="M104.42,87.86h2c.67,0,1.35,0,2,0,.11,0,.12,0,.12-.12a5.42,5.42,0,0,0-.08-.81,2.69,2.69,0,0,0-.61-1.4,2.12,2.12,0,0,0-1.69-.73A2.31,2.31,0,0,0,104,86a3.52,3.52,0,0,0-.27,2.82A2.36,2.36,0,0,0,105,90.39a2.64,2.64,0,0,0,1.51.28,2.15,2.15,0,0,0,2-1.74c0-.06,0-.08-.07-.08s-.31,0-.47,0-.1,0-.13.1a1.52,1.52,0,0,1-1.43,1.16,1.77,1.77,0,0,1-1.84-1A2.84,2.84,0,0,1,104.3,88C104.29,87.9,104.31,87.86,104.42,87.86Zm-.1-.62a2.53,2.53,0,0,1,.44-1.19,1.67,1.67,0,0,1,1.46-.69,1.59,1.59,0,0,1,1.58,1.42,3.47,3.47,0,0,1,.06.45c0,.09,0,.11-.09.11-.56,0-1.13,0-1.69,0s-1.12,0-1.68,0C104.33,87.34,104.31,87.33,104.32,87.24Z"/><path class="cls-8" d="M122.49,86.84a2.47,2.47,0,0,0-2.45-2,2.43,2.43,0,0,0-2.38,1.56,3.77,3.77,0,0,0-.2,2,2.82,2.82,0,0,0,.56,1.32,2.55,2.55,0,0,0,4.14-.25,3.44,3.44,0,0,0,.43-1.75A3.94,3.94,0,0,0,122.49,86.84Zm-.58.91a3.23,3.23,0,0,1-.25,1.27,1.8,1.8,0,0,1-3.29,0,3.07,3.07,0,0,1-.26-1.55,2.86,2.86,0,0,1,.3-1.18,1.81,1.81,0,0,1,2.94-.38,2.46,2.46,0,0,1,.51,1.21A3.68,3.68,0,0,1,121.91,87.75Z"/><path class="cls-9" d="M123.45,84.43a.68.68,0,0,0-.7.72.67.67,0,0,0,.7.72.68.68,0,0,0,.71-.72A.69.69,0,0,0,123.45,84.43Zm0,1.35a.57.57,0,0,1-.58-.65.59.59,0,0,1,.62-.62.6.6,0,0,1,.59.66A.58.58,0,0,1,123.43,85.78Z"/><path class="cls-9" d="M123.61,85.24s0-.06,0-.09a.21.21,0,0,0,.1-.25.21.21,0,0,0-.2-.17,2.26,2.26,0,0,0-.26,0c-.05,0-.06,0-.06.07v.65c0,.06,0,.08.08.08s.06,0,.06-.08V85.3s0-.08,0-.1.07,0,.1.06a1.22,1.22,0,0,1,.12.19.12.12,0,0,0,.2,0Zm-.19-.15c-.11,0-.07-.07-.08-.13s0-.12.09-.11.16,0,.15.12S123.5,85.08,123.42,85.09Z"/><rect class="cls-1" x="5.53" y="36.46" width="87.33" height="28.32" rx="14.16"/><path class="cls-10" d="M75.19,41.91a1.21,1.21,0,0,1-1,0Z"/><path class="cls-11" d="M22.13,52.94c0,.34-.12.4-.45.45a1.24,1.24,0,0,1-1.39-.79c-.69-1.26-1.45-2.48-2.18-3.71,0-.06-.06-.14-.18-.12v4.5c-.32.24-.69.06-1,.12V47H17a1.53,1.53,0,0,1,1.91.94c.62,1.25,1.46,2.39,2.12,3.64.17-.1.09-.25.09-.37,0-1.28,0-2.56,0-3.84,0-.46.25-.39.52-.4s.52,0,.52.42C22.1,49.22,22.11,51.08,22.13,52.94Z"/><path class="cls-11" d="M53.6,49.36c.92-1.17,2.52-1,2.88.06a1.85,1.85,0,0,1,1.78-.88,1.15,1.15,0,0,1,1.11.89,20.22,20.22,0,0,1,.08,3.73c0,.42-.46.14-.69.2s-.34-.06-.33-.31c0-.78,0-1.55,0-2.32a4.42,4.42,0,0,0,0-.63.69.69,0,0,0-1.17-.52A1.67,1.67,0,0,0,56.56,51c0,.65,0,1.3,0,2,0,.43-.22.39-.49.38s-.57.09-.55-.39c0-.87,0-1.75,0-2.63,0-.36,0-.77-.45-.91a.93.93,0,0,0-1.07.48,1.73,1.73,0,0,0-.32,1c0,.66,0,1.33,0,2,0,.51-.28.4-.57.42s-.49,0-.49-.44c0-1.29,0-2.59,0-3.89,0-.56.34-.37.61-.41s.44.14.37.45A2.52,2.52,0,0,0,53.6,49.36Z"/><path class="cls-11" d="M63.36,52.63a1.84,1.84,0,0,1-1.9.78,1.07,1.07,0,0,1-1-1,28.36,28.36,0,0,1,0-3.57c0-.47.44-.17.67-.23s.35,0,.35.3c0,.85,0,1.71,0,2.57,0,.41,0,.89.5,1a1.08,1.08,0,0,0,1.19-.66,2.32,2.32,0,0,0,.2-1.13c0-.58,0-1.16,0-1.73s.27-.39.54-.39.55-.1.53.38c0,1.3,0,2.6,0,3.89,0,.5-.24.45-.57.48s-.48-.17-.42-.5A.87.87,0,0,0,63.36,52.63Z"/><path class="cls-11" d="M34.31,52.54c.18,0,.45-.17.41.23s.13.65-.38.62a2.06,2.06,0,0,0-.26,0c-1.22.12-1.63-.24-1.63-1.44,0-.7,0-1.41,0-2.11,0-.35-.11-.48-.45-.43s-.47,0-.46-.41.16-.44.46-.4.49-.08.45-.43,0-.5,0-.74,0-.34.29-.41c.74-.23.74-.24.74.54v.21c0,.81,0,.83.83.82.3,0,.43,0,.43.39s-.12.44-.45.44c-.81,0-.81,0-.81.84,0,.51,0,1,0,1.53S33.68,52.57,34.31,52.54Z"/><path class="cls-11" d="M30,48.54l.48,0c.46,0,.33.34.34.6s-.22.25-.41.22a2.29,2.29,0,0,0-.94,0,.56.56,0,0,0-.41.44.45.45,0,0,0,.29.51c.31.15.64.27,1,.4a1.18,1.18,0,0,1,.81,1.06,1.32,1.32,0,0,1-.65,1.28,3,3,0,0,1-2.19.29c-.43-.07-.17-.46-.19-.7s.21-.14.33-.13a2.44,2.44,0,0,0,1.14,0c.25-.1.45-.24.47-.51s-.17-.45-.41-.55l-.78-.29A1.18,1.18,0,0,1,28,50a1.33,1.33,0,0,1,.85-1.28A2.34,2.34,0,0,1,30,48.54Z"/><path class="cls-11" d="M65.3,52.49a3.83,3.83,0,0,0,1.34.09c.29-.07.55-.19.58-.52s-.19-.5-.48-.6-.53-.18-.79-.29a1.13,1.13,0,0,1-.77-1,1.32,1.32,0,0,1,.55-1.29,2.78,2.78,0,0,1,2.09-.31c.41.07.15.43.18.66s-.2.14-.33.14a3.92,3.92,0,0,0-.84,0c-.28,0-.51.15-.57.45s.15.49.4.6.59.22.88.35A1.28,1.28,0,0,1,67.8,53a3,3,0,0,1-2.37.39c-.17,0-.16-.15-.16-.27S65.29,52.72,65.3,52.49Z"/><path class="cls-11" d="M36.51,49.43a1.52,1.52,0,0,1,1.09-.89c.29,0,.43,0,.4.34s.07.7-.51.69-.67.4-.78.81a8.82,8.82,0,0,0-.1,2.46c0,.45-.14.54-.56.54s-.53-.13-.52-.53c0-1.24,0-2.49,0-3.73,0-.51.23-.48.59-.5s.43.21.39.51A2.78,2.78,0,0,0,36.51,49.43Z"/><path class="cls-12" d="M41.06,58.17c.16-.54.28-1,.39-1.38,0-.16.13-.27.3-.21s.06.2,0,.3c-.15.49-.31,1-.47,1.45,0,.13-.07.28-.27.27s-.2-.16-.24-.3c-.12-.36-.24-.72-.4-1.22-.17.5-.29.88-.43,1.26,0,.13-.09.28-.28.26s-.19-.14-.22-.25c-.15-.51-.31-1-.45-1.52,0-.08-.13-.2,0-.25a.21.21,0,0,1,.31.18c.11.43.22.85.35,1.33a8.18,8.18,0,0,0,.45-1.21c.05-.13,0-.3.23-.31s.23.19.27.33C40.79,57.28,40.9,57.66,41.06,58.17Z"/><path class="cls-13" d="M49.2,58.19c.16-.52.28-.92.42-1.32,0-.12,0-.3.23-.3s.23.18.27.32c.12.37.23.74.39,1.25.16-.51.27-.9.39-1.28,0-.14.06-.36.29-.28s.07.24,0,.36c-.14.47-.31.93-.46,1.4,0,.14-.08.27-.26.26s-.19-.14-.23-.25c-.13-.4-.25-.8-.41-1.29-.16.48-.28.87-.42,1.26,0,.13-.08.28-.27.28s-.21-.16-.25-.29c-.14-.49-.29-1-.44-1.46,0-.11-.12-.24.08-.28a.21.21,0,0,1,.26.19C48.94,57.2,49.05,57.64,49.2,58.19Z"/><path class="cls-12" d="M32.53,58.64l-.36-.09c-.13,0-.24-.08-.2-.25s.19-.07.28-.06a3.2,3.2,0,0,0,.41.07c.26,0,.5-.06.57-.35a.48.48,0,0,0-.31-.59,4.44,4.44,0,0,1-.65-.34A.67.67,0,0,1,32.18,56a1.16,1.16,0,0,1,1.22-.18.18.18,0,0,1,.06.18c0,.11-.09.12-.2.1-.34-.07-.75-.2-.87.27s.34.52.64.67.68.45.59.93S33.15,58.64,32.53,58.64Z"/><path class="cls-14" d="M65.7,57.57V57c0-.34,0-.34.35-.21.11,0,.13-.07.2-.11a.73.73,0,0,1,1.18.58c0,.34,0,.69,0,1,0,.15,0,.3-.2.31s-.18-.17-.18-.3c0-.31,0-.63,0-.94s-.14-.52-.48-.51a.46.46,0,0,0-.49.5c0,.31,0,.63,0,.95,0,.14,0,.29-.2.3s-.18-.17-.18-.3S65.7,57.81,65.7,57.57Z"/><path class="cls-15" d="M38.06,56a.1.1,0,0,1,.12.1c0,.32.08.49.43.46.07,0,.11.07.1.15s-.1.14-.18.13c-.36,0-.35.18-.34.42s0,.45,0,.68a.33.33,0,0,0,.19.34c.11.05.35,0,.28.19s-.28.16-.45.12a.47.47,0,0,1-.37-.46c0-.29,0-.59,0-.88a1,1,0,0,0-.05-.36c-.06-.09-.37-.16-.22-.23.32-.14.17-.52.44-.64Z"/><path class="cls-16" d="M37.18,55.53c.14,0,.28,0,.31.13s-.13.16-.24.17c-.29,0-.36.25-.4.48s.16.24.33.25.16.06.16.17-.09.14-.18.13c-.32,0-.33.15-.32.39s0,.66,0,1c0,.14.07.36-.19.35s-.15-.2-.16-.32c0-.3,0-.6,0-.9s.13-.48-.22-.54c0,0,0,0-.06-.08s0-.09,0-.09c.47-.18.18-.82.61-1C37,55.6,37.08,55.57,37.18,55.53Z"/><path class="cls-17" d="M54.77,56.87a.75.75,0,0,0-.25.66c0,.28,0,.56,0,.84s-.06.24-.22.23-.18-.1-.18-.22V55.81c0-.12.05-.2.18-.21s.2.07.22.22c0,.31-.13.65.12.94A.15.15,0,0,1,54.77,56.87Z"/><path class="cls-18" d="M63.06,57.13v1.16c0,.14,0,.3-.19.31s-.21-.13-.21-.28V55.85c0-.13,0-.24.18-.25s.22.12.22.27Z"/><path class="cls-19" d="M53,56s.09,0,.09,0c0,.37.18.52.54.59.08,0,0,.22-.16.21-.36,0-.36.19-.33.43s-.26.94.46,1.09c.12,0,0,.22-.13.24-.37.05-.63-.09-.67-.49s0-.56,0-.83.11-.41-.2-.45c-.08,0-.13-.13-.09-.15.29-.13.26-.44.41-.64C53,56,53,56,53,56Z"/><path class="cls-20" d="M44.49,56.56c.19.46.39,0,.6,0s.19,0,.21.1,0,.19-.09.21c-.65.13-.47.66-.53,1.08,0,.23.18.64-.19.64s-.15-.41-.17-.63a8.06,8.06,0,0,1,0-1.1C44.31,56.73,44.26,56.58,44.49,56.56Z"/><path class="cls-21" d="M54.77,56.87l-.13-.11c.57-.42,1.12-.24,1.23.44a10.94,10.94,0,0,1,0,1.15c0,.13,0,.24-.19.25s-.21-.1-.21-.24,0-.56,0-.84C55.48,56.92,55.39,56.84,54.77,56.87Z"/><path class="cls-22" d="M51.72,57.59v-.78c0-.13,0-.24.21-.25s.18.13.18.25v1.58c0,.11,0,.21-.16.22s-.22-.08-.23-.23Z"/><path class="cls-22" d="M52.12,56a.21.21,0,0,1-.22.22.2.2,0,0,1-.2-.19c0-.16.08-.22.22-.23A.19.19,0,0,1,52.12,56Z"/><path class="cls-23" d="M78.54,46a3.83,3.83,0,0,0-3.13-4s-.07-.06-.11-.09h-.11a2.33,2.33,0,0,1-1,0h-.21a6.87,6.87,0,0,0-2,.87,4.13,4.13,0,0,0,.62,6.83c.37.2.44.38.31.76a5.31,5.31,0,0,1-1.59,2.38,7.64,7.64,0,0,1-2,1.18c-.27.11-.3.28-.15.49s0,.61.49.49a15.14,15.14,0,0,0,5.64-2.49A7.42,7.42,0,0,0,78.54,46Zm-4.31-2c.41.36.74.71.66,1.27a1.11,1.11,0,0,1-.43.75q-.9.72-1.86-.54a2.68,2.68,0,0,0,.7,3.11h0c.11.06.23.11.26.27a.49.49,0,0,1-.4-.14h0a3,3,0,0,1-1.69-3.48,3.08,3.08,0,0,1,3.2-2.34A2.87,2.87,0,0,1,77.26,45,2.78,2.78,0,0,0,74.23,44Z"/><path class="cls-14" d="M62,56.87a.8.8,0,0,0-1.12-.22c-.08,0-.14.14-.27,0-.36-.3-.33,0-.34.23,0,.83,0,1.65,0,2.47h.43v-.93l.16,0A.84.84,0,0,0,62,58.34,1.25,1.25,0,0,0,62,56.87Zm-.77,1.47c-.47,0-.57-.32-.58-.71s.09-.76.57-.8.61.27.61.75S61.7,58.34,61.22,58.34Z"/><path class="cls-11" d="M47.17,46.8c0-.48-.27-.38-.54-.38s-.57-.07-.52.4,0,.81,0,1.21-.07.56-.53.53a2.26,2.26,0,0,0-2.49,1.6,3.48,3.48,0,0,0,0,2.07,1.61,1.61,0,0,0,1.79,1.21,1.81,1.81,0,0,0,1.33-.81v.26c0,.27-.09.54.35.49s.64.1.63-.47C47.13,50.87,47.14,48.84,47.17,46.8ZM45.86,52a1,1,0,0,1-1,.61c-.5-.08-.65-.47-.72-.91a3.18,3.18,0,0,1,0-1.15,1.34,1.34,0,0,1,1.77-1.09.28.28,0,0,1,.25.33c0,.24,0,.49,0,.81A2.64,2.64,0,0,1,45.86,52Z"/><path class="cls-11" d="M26.24,48.72a2.42,2.42,0,0,0-2.95.8,3,3,0,0,0,.18,3.38,1.8,1.8,0,0,0,1,.49A2.37,2.37,0,0,0,27.38,51,2.21,2.21,0,0,0,26.24,48.72Zm-.61,3.7a1,1,0,0,1-.29.11A1.08,1.08,0,0,1,24.17,52a2.23,2.23,0,0,1,.11-2.2,1.06,1.06,0,0,1,1.28-.33c.68.27.72.87.74,1.46A1.54,1.54,0,0,1,25.63,52.42Z"/><path class="cls-11" d="M42.16,52.7c0-.17,0-.35,0-.52,0-.72,0-1.44,0-2.16a1.34,1.34,0,0,0-1.34-1.46,4.15,4.15,0,0,0-1.36,0c-.84.18-.84.18-.73,1a.47.47,0,0,0,.06.09l.38-.16a2.67,2.67,0,0,1,1.25-.15.75.75,0,0,1,.71.87c0,.49-.41.24-.63.28a3.18,3.18,0,0,0-1.73.69,1.41,1.41,0,0,0-.31,1.56,1.2,1.2,0,0,0,1.21.66,1.81,1.81,0,0,0,1.45-.69c.17.22-.13.52.24.62C42,53.53,42.21,53.35,42.16,52.7ZM40,52.63a.59.59,0,0,1-.59-.38.58.58,0,0,1,.22-.69,2.27,2.27,0,0,1,1.34-.33c.13,0,.17.07.18.2A1.32,1.32,0,0,1,40,52.63Z"/><path class="cls-11" d="M51.66,50a1.35,1.35,0,0,0-1.37-1.48,4.42,4.42,0,0,0-1.31,0c-.88.18-.88.17-.73,1.09l.39-.16A2.68,2.68,0,0,1,50,49.39c.47.07.63.39.64.83s-.4.28-.62.31a3.48,3.48,0,0,0-1.62.58,1.44,1.44,0,0,0-.46,1.61,1.25,1.25,0,0,0,1.28.72,2,2,0,0,0,1.46-.69,1.72,1.72,0,0,0,0,.43c.15.39.48.12.73.18s.26,0,.26-.26C51.67,52.08,51.69,51.06,51.66,50Zm-2.2,2.59a.58.58,0,0,1-.38-1.05,2.28,2.28,0,0,1,1.35-.35c.12,0,.17.07.18.2A1.3,1.3,0,0,1,49.46,52.63Z"/><path class="cls-12" d="M35,56.53a1,1,0,0,0-1,1.08,1,1,0,1,0,2,0A.94.94,0,0,0,35,56.53Zm0,1.82c-.38,0-.63-.32-.62-.81s.27-.74.65-.71.59.39.61.77A.68.68,0,0,1,35,58.35Z"/><path class="cls-24" d="M43.68,57.81h0a4.69,4.69,0,0,0,0-.53.72.72,0,0,0-.87-.75c-.19,0-.51,0-.48.26s.28,0,.43,0,.18,0,.26,0a.28.28,0,0,1,.25.29c0,.2-.16.15-.26.18s-.28,0-.41.1a.64.64,0,0,0-.47.82c.1.36.5.49.92.34.1,0,.16-.21.31-.09.32.27.33,0,.33-.21Zm-.38,0c0,.39-.16.57-.48.58s-.34-.1-.33-.31.24-.42.52-.45S43.32,57.64,43.3,57.77Z"/><path class="cls-14" d="M46.55,56.54a.84.84,0,0,0-.9.41,1.13,1.13,0,0,0,0,1.28,1,1,0,0,0,1.07.38c.14,0,.43,0,.4-.22s-.26,0-.39-.07a.86.86,0,0,1-.66-.12.42.42,0,0,1-.21-.44c0-.17.24-.09.37-.09H47c.17,0,.25-.06.26-.24A.85.85,0,0,0,46.55,56.54Zm.34.73c0,.21-.25.1-.39.11s-.42,0-.68,0c.12-.45.32-.68.73-.58A.43.43,0,0,1,46.89,57.27Z"/><path class="cls-12" d="M58.77,57.83h0c0-.16,0-.31,0-.47,0-.64-.36-.93-1-.81-.16,0-.42,0-.38.25s.27,0,.4,0a2.25,2.25,0,0,0,.26,0,.35.35,0,0,1,.32.31c0,.23-.19.14-.3.18a1.6,1.6,0,0,0-.63.23.6.6,0,0,0-.22.7.61.61,0,0,0,.66.4c.25,0,.47-.33.75-.06,0,0,.13-.09.13-.18Zm-.35,0c0,.3-.17.49-.49.5s-.37-.11-.35-.35.29-.38.56-.41S58.43,57.65,58.42,57.85Z"/><path class="cls-12" d="M65.09,58.23c0-.16,0-.32,0-.47h0c0-.14,0-.28,0-.42A.78.78,0,0,0,64,56.57c-.11,0-.29,0-.27.2s.22.06.34.07.21,0,.31,0a.34.34,0,0,1,.34.33c0,.21-.2.12-.32.16s-.28,0-.4.11c-.35.17-.58.43-.41.84a.61.61,0,0,0,.87.32c.1,0,.18-.2.32-.1C65.17,58.78,65.08,58.44,65.09,58.23Zm-.81.12c-.22,0-.38-.07-.37-.32s.25-.41.53-.44.32,0,.3.24S64.6,58.32,64.28,58.35Z"/><rect class="cls-1" x="1" y="107.46" width="87.33" height="28.32" rx="14.16"/><path d="M31,129.29a7.56,7.56,0,1,1,0-15.11,7.43,7.43,0,0,1,3.81,1,6.66,6.66,0,0,1,2.6,2.69l-3.17,1.86a3.22,3.22,0,0,0-1.31-1.4,4,4,0,0,0-4.7.58,3.84,3.84,0,0,0-1.09,2.82,3.78,3.78,0,0,0,1.09,2.79A3.67,3.67,0,0,0,31,125.63a3.85,3.85,0,0,0,2-.51,3.09,3.09,0,0,0,1.3-1.38l3.21,1.83a7.18,7.18,0,0,1-2.66,2.7A7.35,7.35,0,0,1,31,129.29Z"/><path d="M46,129.29a7.56,7.56,0,1,1,3.8-14.11,6.62,6.62,0,0,1,2.61,2.69l-3.18,1.86a3.19,3.19,0,0,0-1.3-1.4,4,4,0,0,0-4.71.58,3.89,3.89,0,0,0-1.09,2.82,3.81,3.81,0,0,0,1.09,2.79A3.69,3.69,0,0,0,46,125.63a3.88,3.88,0,0,0,2-.51,3.15,3.15,0,0,0,1.3-1.38l3.21,1.83a7.13,7.13,0,0,1-2.67,2.7A7.29,7.29,0,0,1,46,129.29Z"/><polygon points="53.89 115.42 58.59 115.78 63.3 125.91 61.13 130.25 53.89 115.42"/><circle class="cls-25" cx="65.83" cy="117.59" r="2.17"/><rect class="cls-1" x="96.53" y="107.75" width="87.33" height="28.32" rx="14.16"/><path class="cls-26" d="M123.81,114.64a1.44,1.44,0,0,1,1.38-.57,4.83,4.83,0,0,0,.85,0c1.36,0,1.21,0,1.19,1.18a69.74,69.74,0,0,0,.69,9.13h0c-1,.2-2,.63-2.89-.28l0-.07,0-.06c-.4-.36.23-1.28-.48-1.3-1,0-2.2-.54-3,.54l0,0c-.1.16-.05.41-.28.5l0,0c-.08.17,0,.42-.27.51l0,0a.32.32,0,0,1-.26.28l0,0a5.22,5.22,0,0,1-2.39.16c-.34,0-.53-.22-.25-.57v0c.11-.15,0-.41.29-.49l0,0a1.82,1.82,0,0,1,.46-.78h0c.12-.15.07-.39.28-.49l0,0c.1-.17,0-.42.29-.5l0,0c0-.14.11-.22.2-.31h0c.15-.13.1-.37.26-.48h0c.13-.15.07-.39.28-.49l0,0a6.57,6.57,0,0,1,.73-1.26h0c.13-.15.08-.4.29-.49l0,0a2.74,2.74,0,0,1,.47-.77h0c.13-.14.08-.39.28-.48v0a2.27,2.27,0,0,1,.48-.77h0c.13-.14.06-.4.3-.47l0,0c0-.14.11-.22.21-.3h0c.13-.13.07-.39.3-.47l0,0a.48.48,0,0,1,.22-.3h0c.14-.13.07-.4.31-.46l0,0c0-.15.12-.22.22-.3Z"/><path class="cls-26" d="M150.06,124.42a11.34,11.34,0,0,1-3.85-.22c-1.15-.33-1.19-.36-.81-1.46a3.67,3.67,0,0,1,.61-1.44h.06a4.94,4.94,0,0,0,3.72,1.07c1-.18,1.34-.8.83-1.64h0c-.82-.27-1.74-.19-2.46-.76h0a1.53,1.53,0,0,1-.74-.51l0,0a2.7,2.7,0,0,1,0-3.62v0a1.62,1.62,0,0,1,1-1v0c1.79-1.48,3.78-1.46,5.86-.78h0c.2.21.57,0,.74.28l0,0a.42.42,0,0,1,.26.34v0c-.21.33.05.77-.25,1.08v0c-.25.28.07.73-.28,1l0,0c-.44.38-.66,0-.92-.26h0a4.68,4.68,0,0,1-1-.48v0a5.6,5.6,0,0,0-2.27,0h0c-.75.8-.72,1,.18,1.47s1.8.43,2.52,1.07v0a.63.63,0,0,1,.27.24h0a.67.67,0,0,1,.24.26l0,0c.19.12.14.36.27.49h0a2.14,2.14,0,0,1,0,1.7l0,0a2.11,2.11,0,0,1-.48,1h0a3.37,3.37,0,0,1-1.22,1.24h0c-.08.09-.15.19-.3.2l0,0c-.08.24-.33.18-.49.28h0c-.11.2-.34.17-.52.24h0c-.24.38-.7,0-1,.28Z"/><path class="cls-27" d="M129.92,117.81a2.14,2.14,0,0,1,.49-1.73,1.59,1.59,0,0,1,.13.13,1.64,1.64,0,0,1-.44,1.65Z"/><path class="cls-27" d="M146.42,129.13c0,.53.18,1.15-.48,1.48l0,0a1.25,1.25,0,0,1,.34-1.47Z"/><path class="cls-27" d="M134.11,130.61a1.42,1.42,0,0,1-1.71,0l0-.06a1.37,1.37,0,0,1,1.61,0Z"/><path class="cls-27" d="M130.41,116.08a1.8,1.8,0,0,1,.5-1.47l.13.13c.12.59.1,1.12-.56,1.4Z"/><path class="cls-27" d="M139.81,116.12a2.84,2.84,0,0,1-.75,1.24A1.06,1.06,0,0,1,139.81,116.12Z"/><path class="cls-27" d="M129.17,120.5c.07-.33-.06-.71.25-1l.14.13c.11.38.26.78-.34.89Z"/><path class="cls-27" d="M129.42,119.52c.06-.33-.07-.71.24-1l.14.12c.12.39.26.78-.33.9Z"/><path class="cls-27" d="M121.59,118.08a1.17,1.17,0,0,1-.47.77A.64.64,0,0,1,121.59,118.08Z"/><path class="cls-27" d="M129.66,118.54a.47.47,0,0,1,.26-.73l0,0c.2.33.24.62-.23.75Z"/><path class="cls-27" d="M139.07,117.34a1.14,1.14,0,0,1-.48.78A.64.64,0,0,1,139.07,117.34Z"/><path class="cls-27" d="M146.67,128.15c0,.34.11.72-.25,1l0,0a.63.63,0,0,1,.12-1Z"/><path class="cls-27" d="M140.55,114.89a1.1,1.1,0,0,1-.48.77A.62.62,0,0,1,140.55,114.89Z"/><path class="cls-27" d="M138.33,114.65c-.07.33.07.71-.26,1a1.59,1.59,0,0,0-.13-.13c-.12-.39-.24-.77.33-.9Z"/><path class="cls-27" d="M130.18,125.92a.92.92,0,0,1,.49-.48l.07,0c.09.44-.08.61-.51.5Z"/><path class="cls-27" d="M131,129.89c0,.26,0,.55-.27.71l-.05,0c-.16-.33-.22-.63.27-.71Z"/><path class="cls-27" d="M120.15,120.55a.57.57,0,0,1-.28.49C119.86,120.82,119.9,120.62,120.15,120.55Z"/><path class="cls-27" d="M119.87,121a.51.51,0,0,1-.26.48A.46.46,0,0,1,119.87,121Z"/><path class="cls-27" d="M119.44,121.79a.57.57,0,0,1-.29.5C119.13,122.05,119.15,121.85,119.44,121.79Z"/><path class="cls-27" d="M119.17,122.27a.55.55,0,0,1-.28.49C118.88,122.54,118.91,122.34,119.17,122.27Z"/><path class="cls-27" d="M118.45,123.51a.57.57,0,0,1-.29.49C118.14,123.77,118.17,123.57,118.45,123.51Z"/><path class="cls-27" d="M146.92,127.67a.56.56,0,0,1-.25.48l0,0c-.14-.26-.07-.44.21-.53Z"/><path class="cls-27" d="M151.35,129.39a.57.57,0,0,1-.26.49l-.09-.16c0-.2,0-.35.26-.39Z"/><path class="cls-27" d="M139.56,129.89a.62.62,0,0,1-.26.48l0,0c-.15-.28-.13-.48.24-.5Z"/><path class="cls-27" d="M130.91,114.61a.55.55,0,0,1,.24-.48l0,0c.16.27.09.44-.21.52Z"/><path class="cls-27" d="M140.83,114.41a.57.57,0,0,1-.29.49C140.53,114.67,140.56,114.47,140.83,114.41Z"/><path class="cls-27" d="M123.12,115.64a.56.56,0,0,1-.3.47C122.81,115.89,122.85,115.69,123.12,115.64Z"/><path class="cls-27" d="M138.07,115.63a.53.53,0,0,1-.25.47l0,0c-.13-.26-.07-.43.24-.49Z"/><path class="cls-27" d="M140.09,115.64a.55.55,0,0,1-.29.49C139.79,115.9,139.82,115.7,140.09,115.64Z"/><path class="cls-27" d="M122.63,116.39a.55.55,0,0,1-.3.47C122.32,116.63,122.36,116.43,122.63,116.39Z"/><path class="cls-27" d="M138.61,118.1a.55.55,0,0,1-.29.48C138.31,118.36,138.35,118.16,138.61,118.1Z"/><path class="cls-27" d="M121.14,118.83a.56.56,0,0,1-.29.49C120.84,119.1,120.88,118.9,121.14,118.83Z"/><path class="cls-27" d="M141,114.14a.32.32,0,0,1-.22.3A.34.34,0,0,1,141,114.14Z"/><path class="cls-27" d="M123.81,114.64a.31.31,0,0,1-.22.3A.31.31,0,0,1,123.81,114.64Z"/><path class="cls-27" d="M119.61,121.51c0,.15,0,.26-.2.31A.33.33,0,0,1,119.61,121.51Z"/><path class="cls-27" d="M123.31,115.37a.29.29,0,0,1-.22.3A.32.32,0,0,1,123.31,115.37Z"/><path class="cls-27" d="M126.48,126.41l.25-.23.06,0c0,.17-.1.26-.28.22Z"/><path class="cls-27" d="M151.09,129.88l-.24.25,0-.15a.3.3,0,0,1,.23-.16Z"/><path class="cls-27" d="M150.85,130.13l-.24.23,0,0c0-.19.07-.27.25-.24Z"/><path class="cls-27" d="M125.74,130.61l-.23-.24,0,0c.18,0,.26.06.25.23Z"/><path class="cls-27" d="M148.13,130.61l-.24-.24,0,0c.17,0,.25.06.25.23Z"/><path class="cls-27" d="M155.24,114.74l-.26-.34A.35.35,0,0,1,155.24,114.74Z"/><path class="cls-28" d="M138,115.57a.72.72,0,0,0-.24.49c-1.18,0-2.37,0-3.55,0-.64,0-1,.18-1.08.84a2.62,2.62,0,0,1-.17.59c-.17.46,0,.69.48.68l3.3,0c-.27,2.21-.27,2.21-2.37,2.21h-.12c-2.13,0-2.13,0-2.61,2.14-.09.39-.2.79-.27,1.19s-.32.66-.83.69c-2.17.12-2.17.14-1.68-2,.14-.6.24-1.2.35-1.8a1.48,1.48,0,0,0,.25-1,1.41,1.41,0,0,0,.26-1,.93.93,0,0,0,.23-.75,4.66,4.66,0,0,0,.52-1.7,3.48,3.48,0,0,0,.5-1.47.6.6,0,0,0,.21-.52,12.16,12.16,0,0,1,2.89-.12c1.17,0,2.34,0,3.52,0,.4,0,.73,0,.67.58A1.52,1.52,0,0,0,138,115.57Z"/><path class="cls-29" d="M139.51,129.85a.52.52,0,0,0-.24.5,2,2,0,0,1-.55.23c-.88.1-1,0-.95-.87,0-.49,0-1,0-1.46,0,0,0-.06-.12-.29l-1.16,2.61c-1.68.08-1.45.06-1.39-1.37a7.69,7.69,0,0,1,.19-2c.31-.29,0-.73.25-1,.37-.11.73-.18,1,.23a3.85,3.85,0,0,0-.07,1.51.51.51,0,0,1,0,.22c-.07.11-.06.14,0,.11a.78.78,0,0,1,.31-.34c.21-.44.44-.87.63-1.32a.79.79,0,0,1,.86-.52c.45,0,.7.13.63.64s-.09,1.14-.13,1.71a.17.17,0,0,0,0,.28c.08.05.14,0,.2-.07.27-.62.56-1.24.82-1.88s.66-.83,1.33-.5C140.71,127.5,139.91,128.59,139.51,129.85Z"/><path class="cls-30" d="M142.78,130.55c-.12-.24-.23-.21-.35,0a3.18,3.18,0,0,1-1.62,0l-.25-.48a2.19,2.19,0,0,1,1.92-2.19,6.15,6.15,0,0,1,.71-.61c-.58.07-.94.31-1.33.25s-.6-.2-.36-.61a2.25,2.25,0,0,1,2.34-1c.75.09,1,.42.9,1.13a31.32,31.32,0,0,1-.81,3.17C143.74,130.85,143.18,130.51,142.78,130.55Z"/><path class="cls-31" d="M148.18,130.56a.29.29,0,0,0-.25-.23,3.33,3.33,0,0,1,.24-2.44c.12-.14.08-.35.21-.48h0c.16-.12.1-.36.26-.47.85-1,1.51-1.22,2.91-.73a2.94,2.94,0,0,1,.26,1.43c-.18.6-.49,1-1.21.85a7.82,7.82,0,0,0-.84,0c-.55-.06-.7.28-.76.72,0,.25,0,.5.25.62a.48.48,0,0,0,.62-.21c.38-.56.81-.76,1.39-.28a.69.69,0,0,0-.23.49.3.3,0,0,0-.21.27.32.32,0,0,0-.25.24A3.46,3.46,0,0,1,148.18,130.56Z"/><path class="cls-32" d="M130.9,129.85a1.16,1.16,0,0,0-.27.71,2.06,2.06,0,0,1-1.14-.09,23.2,23.2,0,0,1,.6-2.46c.09-.41.45-.87-.14-1.29-.2-.15.05-.53.28-.73.4.07.49-.18.51-.5a1.63,1.63,0,0,1,1.52-.83c.19,0,.44,0,.53.17a.5.5,0,0,1-.25.62c-.14.08-.29.14-.43.21-.14.41,1,.8,0,1.23a.52.52,0,0,0-.63.41A13.9,13.9,0,0,0,130.9,129.85Z"/><path class="cls-33" d="M135.59,126.15c0,.35.13.75-.25,1l-.08-.47c-.32.15-.81.07-.94.43a11,11,0,0,0-.63,2.31c0,.33.67.58.37,1.11a4.15,4.15,0,0,1-1.61,0c-.3-1.11.33-2.06.52-3.08.06-.31.16-.56-.28-.59-.58-.85.36-.69.64-1,.19-.45.34-.92,1-.78.2,0,.44.06.38.32C134.54,126.29,135.18,126.08,135.59,126.15Z"/><path class="cls-34" d="M146.84,127.59a.56.56,0,0,0-.21.53,1.67,1.67,0,0,0-.26,1,7.08,7.08,0,0,0-.47,1.48,2.3,2.3,0,0,1-1.19-.11c.35-1.3.69-2.61,1-3.92.08-.31.27-.56.59-.49A2.38,2.38,0,0,0,148,126c.13-.06.32.1.27.29s-.08.76-.57.83S147,127.18,146.84,127.59Z"/><path class="cls-35" d="M141.5,126.92c0,.7.47.52.83.4.2-.07.33-.34.51-.48a.44.44,0,0,1,.65,0,.47.47,0,0,1,0,.66,1,1,0,0,1-1,.36c-.23-.33-.6-.16-.88-.27C141.17,127.46,141.17,127.2,141.5,126.92Z"/><path class="cls-36" d="M133.33,125.91c-.22.31-.88.34-.64,1h-.56c.2-.29.44-.56-.07-.82-.22-.1-.18-.3.05-.41C132.44,126.12,132.92,125.85,133.33,125.91Z"/><path class="cls-37" d="M136.79,127.88l-.24.72c-.48.06-.3-.24-.27-.47a5.47,5.47,0,0,1,.27-1.75C136.73,126.87,136.38,127.43,136.79,127.88Z"/><path class="cls-38" d="M139,128.6c0,.2,0,.5-.24.41-.39-.14-.19-.41,0-.62Z"/><path class="cls-34" d="M148.64,126.94a.47.47,0,0,1-.26.47A.44.44,0,0,1,148.64,126.94Z"/><path class="cls-34" d="M148.38,127.41a.46.46,0,0,1-.21.48A.5.5,0,0,1,148.38,127.41Z"/><path class="cls-26" d="M144.77,122.09c-.1-2-.22-4-.33-6l0-.23c-.15-.55.06-1.16-.25-1.69a4.92,4.92,0,0,0-3.15,0h0c-.09.08-.19.15-.21.28-.2.09-.16.33-.27.47a1.75,1.75,0,0,0-.46.76c-.21.08-.17.32-.27.47a2.67,2.67,0,0,0-.75,1.23,2.09,2.09,0,0,0-.46.75c-.21.09-.15.34-.28.48h0c-.94,2-2.39,3.72-3.4,5.82.75,0,1.33,0,1.9,0a1,1,0,0,0,1.18-.65,2,2,0,0,1,2.52-1.33,6.15,6.15,0,0,0,.86,0c.39,0,.6.11.61.55s-.22,1,.16,1.28.94.09,1.43.13c.2,0,.4,0,.61,0a.52.52,0,0,0,.6-.59C144.78,123.24,144.8,122.66,144.77,122.09Zm-4.61-1.87c.55-1,1-1.77,1.54-2.7a1.8,1.8,0,0,1,.27,1.29C142,120.22,142.43,120.43,140.16,120.22Z"/><path class="cls-26" d="M144.15,114.15s0,0,0,0h0Z"/><path class="cls-39" d="M123.1,120.2a10.16,10.16,0,0,1,1.47-2.61,2.08,2.08,0,0,1,.18,1.24C124.8,120.4,124.8,120.4,123.1,120.2Z"/><path class="cls-40" d="M122.81,126.19a.65.65,0,0,0,.51-.22,8,8,0,0,1,1,0,2.13,2.13,0,0,1,.7.18.75.75,0,0,1,.42.81c0,.22-.12.43-.35.44s-.67.17-.8-.3a.44.44,0,0,0-.13-.2c-.28-.27-.55-.11-.74.1a.41.41,0,0,0,.13.71l.45.19c1.15.52,1.28,1,.58,2.07l-.29.39c-1,.33-2,.69-2.92-.26v-.7c.47-.37.92-.55,1.22.17.15.36.42.34.7.27a.54.54,0,0,0,.44-.52c0-.29-.21-.43-.45-.5-1-.27-1.49-.8-1.16-1.87Z"/><path class="cls-41" d="M136.28,128.13c.08.16.05.39.27.47,0,.21-.11.42-.35.36s-.12-.26-.09-.41A2.17,2.17,0,0,1,136.28,128.13Z"/><path class="cls-42" d="M143,129.2a.78.78,0,0,1-.85.68.31.31,0,0,1-.32-.3.88.88,0,0,1,.83-1C143.19,128.57,143.09,128.9,143,129.2Z"/><path class="cls-43" d="M143,129.2c-.05-.24-.08-.48-.34-.6.15-.1.34-.3.49,0S143.18,129,143,129.2Z"/><path class="cls-44" d="M150.64,127.09c0,.67-.26.8-.68.77-.23,0-.56,0-.54-.3a.86.86,0,0,1,.75-.82A.37.37,0,0,1,150.64,127.09Z"/><path class="cls-30" d="M128.91,126a3.84,3.84,0,0,0-2.12.24.34.34,0,0,1-.28.22,4.86,4.86,0,0,0-1,3.88.28.28,0,0,1,.25.23,5.1,5.1,0,0,0,2.13,0,4.39,4.39,0,0,0,1.53-3A1.5,1.5,0,0,0,128.91,126Zm-1.26,3.48a.61.61,0,0,1-.69.39c-.37-.09-.35-.41-.31-.7a5.07,5.07,0,0,1,.6-2,.64.64,0,0,1,.69-.41c.37.09.3.43.31.74A5.13,5.13,0,0,1,127.65,129.47Z"/><rect class="cls-1" x="100.42" y="36" width="87.33" height="28.32" rx="14.16"/><path class="cls-45" d="M116.79,42.56a3.69,3.69,0,0,0,.56.19L125,45l2.37.7a1.32,1.32,0,0,1,1,1.13c0,.52,0,1,0,1.55,0,.07,0,.14,0,.21v5.64A1.68,1.68,0,0,1,127,55.75a2.28,2.28,0,0,1-1.69-.46.46.46,0,0,1-.13-.57.45.45,0,0,1,.58-.13,1.61,1.61,0,0,0,.8.23.92.92,0,0,0,1-1q0-3.3,0-6.58a.72.72,0,0,0-.55-.75l-9.11-2.81-.71-.22a.72.72,0,0,0-1,.72c0,1.5,0,3,0,4.51a.44.44,0,0,1-.25.45.55.55,0,0,1-.58,0,.38.38,0,0,1-.19-.34c0-1.54,0-3.08,0-4.61a1.54,1.54,0,0,1,1.22-1.63c.05,0,.1,0,.14,0a1.23,1.23,0,0,0,.27,0Z"/><path class="cls-45" d="M122.94,57l0,0a.59.59,0,0,1-.4-.63q0-4.26,0-8.52a.59.59,0,0,1,.66-.66h.61a.54.54,0,0,1,.58.58v1.83c0,2.25,0,4.49,0,6.74a.61.61,0,0,1-.4.67s0,0,0,0h-.09a4,4,0,0,0-.85,0Z"/><path class="cls-45" d="M114.82,50.53a.05.05,0,0,0,.06,0,.56.56,0,0,1,.57-.33H116a.52.52,0,0,1,.51.56c0,.5,0,1,0,1.51v1.58a.55.55,0,0,1-.6.61h-.49a.57.57,0,0,1-.56-.33s0-.05-.06-.05V54a.17.17,0,0,0,0-.12V50.76s0-.08,0-.11Z"/><path class="cls-46" d="M173.41,46.29h0V54h-.8s-.08,0-.11,0a.27.27,0,0,1,.19,0h.5c.1,0,.15,0,.14-.14s0-.12,0-.17v-7A.39.39,0,0,1,173.41,46.29Z"/><path class="cls-47" d="M114.82,50.65c.05,0,0,.1,0,.15v3s0,.11,0,.15Z"/><path class="cls-48" d="M123,57c0-.06.1,0,.15,0a2.74,2.74,0,0,1,.7,0Z"/><path class="cls-49" d="M116.73,42.56c-.08.06-.18,0-.27,0s0,0,0,0h.27Z"/><path class="cls-50" d="M116.47,42.56a0,0,0,0,1,0,0h-.14v0Z"/><path class="cls-45" d="M150.49,53c.1-.55.27-1.08.42-1.62.24-.92.49-1.83.73-2.75,0-.11.07-.15.19-.15h.6c.11,0,.13,0,.1.14-.45,1.48-.9,3-1.34,4.46-.08.25-.16.5-.23.75s-.07.14-.18.14h-.66a.13.13,0,0,1-.15-.12c-.36-1.25-.73-2.51-1.09-3.77,0-.13-.06-.26-.11-.39-.14.47-.3.94-.44,1.4-.28.92-.57,1.83-.85,2.74a.16.16,0,0,1-.18.14h-.63a.14.14,0,0,1-.16-.12L145.34,50c-.14-.45-.27-.9-.41-1.34,0-.1,0-.14.09-.14h.69a.12.12,0,0,1,.14.11c.37,1.35.75,2.7,1.11,4.05,0,.14,0,.28.08.42.32-1.19.71-2.36,1.06-3.54.1-.31.19-.62.28-.92a.14.14,0,0,1,.16-.12h.58c.09,0,.12,0,.15.11.37,1.37.74,2.74,1.12,4.11,0,.09,0,.18.05.27S150.45,53,150.49,53Z"/><path class="cls-45" d="M121.63,52.35v3.16a.55.55,0,0,1-.6.61h-.52a.54.54,0,0,1-.59-.6v-6.2a2.8,2.8,0,0,1,0-.29.53.53,0,0,1,.54-.46h.6a.53.53,0,0,1,.57.57Z"/><path class="cls-45" d="M119.1,52.29v2.36a.56.56,0,0,1-.59.64,4.42,4.42,0,0,1-.63,0,.53.53,0,0,1-.48-.44V49.93a.55.55,0,0,1,.62-.63h.51a.55.55,0,0,1,.57.58Z"/><path class="cls-45" d="M173.41,46.29q0,3.75,0,7.52c0,.1,0,.12-.14.12h-.75v-.14q0-3.67,0-7.33c0-.16,0-.19.19-.18Z"/><path class="cls-45" d="M160.25,49.45a1.87,1.87,0,0,1,.57-.79,1.44,1.44,0,0,1,1.25-.24c.06,0,.1,0,.1.1v.84a1.21,1.21,0,0,0-.78-.16,1.09,1.09,0,0,0-.82.52,2.38,2.38,0,0,0-.38,1.42v2.62c0,.19,0,.19-.2.19h-.53c-.12,0-.16,0-.15-.16V48.62c0-.11,0-.15.14-.15h.62c.09,0,.12,0,.12.13,0,.29,0,.58,0,.87,0,0,0,.05,0,.06A.3.3,0,0,1,160.25,49.45Z"/><path class="cls-51" d="M150.49,53s0,.08,0,.08,0-.07,0-.11Z"/><path class="cls-52" d="M160.25,49.45s0,.08,0,.09,0,0,0-.07Z"/><path class="cls-45" d="M170.25,50.23a2.14,2.14,0,0,0-.95-.36l.39-.2a1.81,1.81,0,0,0,.35-2.88,2.1,2.1,0,0,0-1.39-.5c-.74,0-1.49,0-2.23,0-.14,0-.19,0-.19.18q0,3.65,0,7.31v.08c0,.08,0,.11.1.11.86,0,1.71,0,2.56,0a2.21,2.21,0,0,0,2.07-2A1.81,1.81,0,0,0,170.25,50.23Zm-3-3.13a12.59,12.59,0,0,1,1.37,0,1.46,1.46,0,0,1,.49.15.89.89,0,0,1,.52.78,1.31,1.31,0,0,1-1.39,1.5c-.33,0-.66,0-1,0-.11,0-.11-.06-.11-.13,0-.37,0-.74,0-1.11s0-.74,0-1.12C167.14,47.14,167.15,47.09,167.25,47.1ZM169,53.05a2.16,2.16,0,0,1-.56.08h-1.18c-.1,0-.13,0-.13-.14,0-.42,0-.84,0-1.26s0-.81,0-1.21c0-.11,0-.16.15-.15a10.18,10.18,0,0,1,1.56.06l.16,0a1.2,1.2,0,0,1,1,1.24A1.27,1.27,0,0,1,169,53.05Z"/><path class="cls-45" d="M138.17,47.67a1.89,1.89,0,0,0-1-1.08,2.7,2.7,0,0,0-1.24-.3c-.72,0-1.45,0-2.17,0-.19,0-.19,0-.19.18v7.36c0,.1,0,.14.13.14h.65c.1,0,.13,0,.13-.14V51.2c0-.11,0-.15.14-.15A11.77,11.77,0,0,0,136,51a2.46,2.46,0,0,0,2-1.26A2.57,2.57,0,0,0,138.17,47.67Zm-2.27,2.54c-.43,0-.86,0-1.29,0-.11,0-.09-.07-.09-.14V47.23c0-.06,0-.14.09-.13a14,14,0,0,1,1.45,0,1.37,1.37,0,0,1,1.21.87A1.59,1.59,0,0,1,135.9,50.21Z"/><path class="cls-45" d="M157.84,49.9a2,2,0,0,0-1.19-1.39,2.44,2.44,0,0,0-3.19,1.36,3.72,3.72,0,0,0-.08,2.63,2.18,2.18,0,0,0,.74,1.08,2.13,2.13,0,0,0,1.17.48,3.5,3.5,0,0,0,2.18-.41c.05,0,.12,0,.12-.13,0-.25,0-.5,0-.75a.11.11,0,0,0-.11,0,2.73,2.73,0,0,1-1.43.52,1.67,1.67,0,0,1-1.59-.66,2,2,0,0,1-.35-1.09c0-.12,0-.15.13-.15h3.63c.07,0,.1,0,.1-.09A4.42,4.42,0,0,0,157.84,49.9Zm-.88.78h-2.71c-.1,0-.13,0-.11-.13a2,2,0,0,1,.64-1.13,1.39,1.39,0,0,1,2.05.26,1.83,1.83,0,0,1,.24.92C157.07,50.7,157,50.68,157,50.68Z"/><path class="cls-45" d="M144,49.81a2.2,2.2,0,0,0-1.62-1.39,3.3,3.3,0,0,0-1.13-.06,2.51,2.51,0,0,0-2.07,1.33,3.15,3.15,0,0,0-.33,1.57,1.08,1.08,0,0,0,0,.18,2.71,2.71,0,0,0,.66,1.81,2.77,2.77,0,0,0,4.6-1A3.73,3.73,0,0,0,144,49.81Zm-.76,2.24a1.61,1.61,0,0,1-1.85,1.28,1.74,1.74,0,0,1-1.62-1.74,2.64,2.64,0,0,1,.27-1.63,1.67,1.67,0,0,1,1.74-.86,1.5,1.5,0,0,1,1.38,1,2.66,2.66,0,0,1,.17,1.09A2.8,2.8,0,0,1,143.25,52.05Z"/><rect class="cls-1" x="36.44" width="87.33" height="28.32" rx="14.16"/><path class="cls-53" d="M61,11.69H52.47v2.23H61Zm0,3.85H52.47v2.22H61Zm28.83,1.95H86.44a.84.84,0,1,1,0-1.67h3.34ZM88.23,9.76H83.77V12h4.32c1.32,0,1.68.5,1.69,1.67H86.33c-2,0-3.15,1-3.15,3s1.12,3,3.15,3h5.85V13.57C92.18,11,91.2,9.76,88.23,9.76Zm12.52,7.66H98c-1.52,0-2.08-.73-2.08-2.72S96.43,12,98,12h3.2V9.76H97.7c-3.08,0-4.26,1.53-4.26,4.94s1.18,4.94,4.26,4.94h3.48V17.42Zm-29.12,0h-4c-1.25,0-1.84-.45-2-1.57h5.26V13.63H65.61c.15-1.16.73-1.63,2-1.63h4V9.76H67.38c-3.08,0-4.26,1.53-4.26,4.94s1.18,4.94,4.26,4.94h4.25Zm36.33,0h-2.37c-.47,0-.75-.33-.75-.93V12h2.91V9.76h-2.91V7.88h-2.4v8.79c0,2,1,3,2.94,3H108ZM82.59,19.19l-3.52-4.64,3.29-4.34.34-.45H79.88l-.23.31-2,2.62-2-2.62-.24-.31H72.52l3.68,4.86-3.81,5h2.82l.24-.31h0l2.16-2.85,2.16,2.85.23.31h2.93Z"/><rect class="cls-1" y="180.75" width="87.33" height="28.32" rx="14.16"/><path class="cls-54" d="M27.47,190.21A1.13,1.13,0,0,1,26.39,189a1.16,1.16,0,0,1,1.19-1,1.14,1.14,0,0,1,1.07,1.12A1.07,1.07,0,0,1,27.47,190.21Z"/><path class="cls-55" d="M30.86,187.42a1,1,0,0,1-1,.87.92.92,0,0,1-.78-1,.82.82,0,0,1,.87-.84A.92.92,0,0,1,30.86,187.42Z"/><path class="cls-56" d="M27.31,196.33a7.46,7.46,0,0,1-8,5.92,7.56,7.56,0,0,1-1.13-14.87,7.88,7.88,0,0,1,3.83.05,1.89,1.89,0,0,1,1.22.48,31.76,31.76,0,0,0-3.23-.06,6.07,6.07,0,0,0-4.47,7.44,6.17,6.17,0,0,0,5.14,4.41,6,6,0,0,0,5.91-3.06c.18-.33.33-.68.49-1,.1-.53.2-1.07.31-1.61A3.45,3.45,0,0,1,27.31,196.33Z"/><path class="cls-56" d="M26.05,191.65c-.46.57-.92,1.16-1.79.86a1.39,1.39,0,0,1-1-1.27c0-.83.52-1.31,1.48-1.5a4.74,4.74,0,0,0-6.6.4,4.85,4.85,0,0,0,6.4,7.21C26.47,195.9,27.13,193.4,26.05,191.65Zm-5.18,4.65a2.24,2.24,0,0,1-2.33-2.25,2.22,2.22,0,0,1,2.25-2.32,2.36,2.36,0,0,1,2.33,2.3A2.39,2.39,0,0,1,20.87,196.3Z"/><path d="M37.23,191.33v1.19H35.52v5.14H34.27v-5.14H32.58v-1.19Z"/><path d="M42.5,193.14h1.11l-1.31,4.52H41.15l-.85-2.74-.85,2.74H38.3L37,193.14h1.23l.77,2.77.82-2.77h1.11l.82,2.78Z"/><path d="M44.94,192.6a.66.66,0,0,1-.5-.22.67.67,0,0,1-.21-.5.69.69,0,0,1,.21-.5.73.73,0,0,1,1.23.5.65.65,0,0,1-.22.5A.67.67,0,0,1,44.94,192.6Zm-.57,5.06v-4.52h1.16v4.52Z"/><path d="M49.11,193a1.64,1.64,0,0,1,1.22.5,1.9,1.9,0,0,1,.49,1.37v2.78H49.65V195a.93.93,0,0,0-.24-.69.9.9,0,0,0-.65-.24,1,1,0,0,0-.73.28,1.15,1.15,0,0,0-.27.84v2.44H46.6v-4.52h1.16v.5A1.52,1.52,0,0,1,49.11,193Z"/><path d="M58,193.14v4.52H56.87v-3.4H55.54v3.4H54.38v-3.4h-.66v-1.12h.66v0c0-1.26.7-1.88,2.12-1.88a5.12,5.12,0,0,1,1,.12v1.07a8.5,8.5,0,0,0-1-.07,1.3,1.3,0,0,0-.73.16.7.7,0,0,0-.23.6v0Z"/><path d="M60.08,195.88a1.37,1.37,0,0,0,2.29.39l.94.55a2.25,2.25,0,0,1-2,1,2.4,2.4,0,0,1-1.8-.68,2.31,2.31,0,0,1-.68-1.7,2.39,2.39,0,0,1,.67-1.71,2.33,2.33,0,0,1,1.72-.68,2.15,2.15,0,0,1,1.64.69,2.38,2.38,0,0,1,.64,1.7,2.74,2.74,0,0,1,0,.48Zm0-.91h2.3a1.1,1.1,0,0,0-.41-.68,1.2,1.2,0,0,0-.71-.23,1.25,1.25,0,0,0-.78.24A1.12,1.12,0,0,0,60.07,195Z"/><path d="M64.35,197.66v-6.6h1.16v6.6Z"/><path d="M70,191.33h1.17v6.33H70v-.54a1.74,1.74,0,0,1-1.46.66,2.06,2.06,0,0,1-1.56-.69,2.38,2.38,0,0,1-.65-1.69,2.41,2.41,0,0,1,.65-1.7,2.06,2.06,0,0,1,1.56-.69,1.74,1.74,0,0,1,1.46.66Zm-2.14,5a1.29,1.29,0,0,0,1.79,0,1.21,1.21,0,0,0,.35-.91,1.23,1.23,0,0,0-.35-.92,1.29,1.29,0,0,0-1.79,0,1.24,1.24,0,0,0-.36.92A1.21,1.21,0,0,0,67.86,196.31Z"/><rect class="cls-1" x="38.89" y="215.75" width="87.33" height="28.32" rx="14.16"/><g id="uuid-ac76341e-d288-4a5f-b01b-56e2a6dc59d4"><g id="uuid-b1275c17-eff4-4b8a-9bf0-9fb7b307e68d"><polygon class="cls-57" points="61.87 221.35 54.75 225.46 54.75 233.66 56.78 234.83 56.77 226.63 61.85 223.69 66.93 226.63 66.93 234.83 68.96 233.66 68.96 225.45 61.87 221.35"/><polygon class="cls-57" points="62.87 234.83 61.86 235.42 60.84 234.83 60.84 226.63 58.81 227.8 58.81 236 61.86 237.76 64.9 236 64.9 227.8 62.87 226.63 62.87 234.83"/><path class="cls-8" d="M73.61,225.51l2.79,7.05h0l2.72-7.05h1.06v8.08h-.73v-7h0c0,.12-.08.25-.13.38l-.13.35-.13.38-2.34,5.93h-.66l-2.37-5.93c0-.11-.09-.22-.13-.34s-.09-.24-.13-.35l-.13-.4h0v7h-.7v-8.08Z"/><path class="cls-8" d="M82.35,233.63a1.5,1.5,0,0,1-.6-.31,1.53,1.53,0,0,1-.41-.5,1.79,1.79,0,0,1-.15-.72,1.63,1.63,0,0,1,.2-.84,1.39,1.39,0,0,1,.52-.53,2.62,2.62,0,0,1,.76-.3c.31-.07.63-.13,1-.17l.73-.09a2.42,2.42,0,0,0,.48-.13.58.58,0,0,0,.28-.21.64.64,0,0,0,.08-.36v-.11a1.08,1.08,0,0,0-.36-.89,1.59,1.59,0,0,0-1-.28c-1,0-1.58.43-1.64,1.29h-.71a2,2,0,0,1,.63-1.35,2.49,2.49,0,0,1,1.7-.51,2.44,2.44,0,0,1,1.51.42,1.63,1.63,0,0,1,.55,1.39v3.18a.6.6,0,0,0,.11.37.36.36,0,0,0,.29.13h.12a.7.7,0,0,0,.14,0h0v.51a1.06,1.06,0,0,1-.19.06,1.33,1.33,0,0,1-.28,0,.9.9,0,0,1-.61-.2.89.89,0,0,1-.25-.62v-.13h0c-.1.13-.2.24-.3.35a2,2,0,0,1-.43.33,2.39,2.39,0,0,1-.58.22,3.06,3.06,0,0,1-.74.09,3.16,3.16,0,0,1-.76-.09m1.72-.62a1.89,1.89,0,0,0,.62-.38,1.5,1.5,0,0,0,.37-.53,1.63,1.63,0,0,0,.13-.61v-1.07a2.49,2.49,0,0,1-.69.25l-.83.14a5.14,5.14,0,0,0-.69.12,1.65,1.65,0,0,0-.54.19.94.94,0,0,0-.37.37,1.19,1.19,0,0,0-.14.61,1,1,0,0,0,.11.51.88.88,0,0,0,.28.33,1.23,1.23,0,0,0,.41.17,2.18,2.18,0,0,0,.5,0,2,2,0,0,0,.84-.15"/><path class="cls-8" d="M87.72,235.2a1.57,1.57,0,0,1-.67-1.09h.67a1,1,0,0,0,.54.73,2.59,2.59,0,0,0,1.09.22,1.88,1.88,0,0,0,1.4-.44,1.67,1.67,0,0,0,.45-1.22v-.93h0a2.47,2.47,0,0,1-.75.76,2.13,2.13,0,0,1-1.1.26,2.49,2.49,0,0,1-1-.22,2.41,2.41,0,0,1-.79-.59,2.8,2.8,0,0,1-.5-.93,3.93,3.93,0,0,1-.18-1.18,3.52,3.52,0,0,1,.2-1.25,2.83,2.83,0,0,1,.55-.93,2.32,2.32,0,0,1,.79-.56,2.5,2.5,0,0,1,1-.19,2.09,2.09,0,0,1,1.12.27,2.24,2.24,0,0,1,.73.74h0v-.9h.69v5.61a2.28,2.28,0,0,1-.54,1.57,2.6,2.6,0,0,1-2,.71,2.79,2.79,0,0,1-1.66-.44m3.06-3a2.89,2.89,0,0,0,.47-1.69,3.81,3.81,0,0,0-.12-1,1.87,1.87,0,0,0-.35-.74,1.53,1.53,0,0,0-.59-.48,1.85,1.85,0,0,0-.83-.17,1.58,1.58,0,0,0-1.35.64,2.78,2.78,0,0,0-.48,1.72,3.56,3.56,0,0,0,.11.92,2.41,2.41,0,0,0,.33.73,1.5,1.5,0,0,0,.57.49,1.59,1.59,0,0,0,.8.18,1.65,1.65,0,0,0,1.44-.65"/><path class="cls-8" d="M94.32,233.5a2.34,2.34,0,0,1-.86-.64,3,3,0,0,1-.52-1,3.65,3.65,0,0,1-.18-1.22,3.83,3.83,0,0,1,.19-1.21,2.88,2.88,0,0,1,.54-1,2.29,2.29,0,0,1,.83-.65,2.47,2.47,0,0,1,1.1-.23,2.45,2.45,0,0,1,1.19.27,2.12,2.12,0,0,1,.78.71,3.14,3.14,0,0,1,.42,1,5.94,5.94,0,0,1,.13,1.19H93.48a3.6,3.6,0,0,0,.14.92,2.7,2.7,0,0,0,.37.74,1.73,1.73,0,0,0,.62.49,2,2,0,0,0,.87.19,1.73,1.73,0,0,0,1.14-.36,2,2,0,0,0,.57-.95h.66a2.51,2.51,0,0,1-.79,1.39,2.34,2.34,0,0,1-1.59.51,2.78,2.78,0,0,1-1.17-.23m2.76-4.07a2.15,2.15,0,0,0-.33-.66,1.52,1.52,0,0,0-.54-.43,1.76,1.76,0,0,0-.78-.16,1.8,1.8,0,0,0-.79.16,1.76,1.76,0,0,0-.58.43,2.41,2.41,0,0,0-.38.66,3.34,3.34,0,0,0-.18.82h3.7a2.79,2.79,0,0,0-.12-.81"/><path class="cls-8" d="M99.51,227.75v.9h0a2.24,2.24,0,0,1,.77-.73,2.32,2.32,0,0,1,1.18-.29,2,2,0,0,1,1.33.47,1.76,1.76,0,0,1,.52,1.35v4.15h-.7v-4.09a1.27,1.27,0,0,0-.35-1,1.46,1.46,0,0,0-1-.31,2.06,2.06,0,0,0-.7.12,1.94,1.94,0,0,0-.58.33,1.61,1.61,0,0,0-.53,1.2v3.72h-.7v-5.84Z"/><path class="cls-8" d="M105.16,233.39a1,1,0,0,1-.31-.81v-4.26H104v-.57h.88V226h.7v1.8h1.09v.57h-1.09v4.15a.55.55,0,0,0,.14.44.73.73,0,0,0,.43.11,1.07,1.07,0,0,0,.25,0l.21-.06h0v.6a1.8,1.8,0,0,1-.65.1,1.23,1.23,0,0,1-.81-.24"/><path class="cls-8" d="M108.71,233.5a2.45,2.45,0,0,1-.85-.64,3.09,3.09,0,0,1-.54-1,4,4,0,0,1,0-2.43,2.88,2.88,0,0,1,.54-1,2.36,2.36,0,0,1,.85-.65,2.89,2.89,0,0,1,2.27,0,2.41,2.41,0,0,1,.84.65,2.7,2.7,0,0,1,.53,1,4.19,4.19,0,0,1,0,2.43,2.88,2.88,0,0,1-.53,1,2.51,2.51,0,0,1-.84.64,2.89,2.89,0,0,1-2.27,0m2-.55a1.59,1.59,0,0,0,.62-.53,2.46,2.46,0,0,0,.38-.78,3.94,3.94,0,0,0,0-1.93,2.38,2.38,0,0,0-.37-.79,2,2,0,0,0-.62-.53,2.09,2.09,0,0,0-1.73,0,1.86,1.86,0,0,0-.62.53,2.62,2.62,0,0,0-.38.79,3.72,3.72,0,0,0,0,1.93,2.62,2.62,0,0,0,.38.79,1.86,1.86,0,0,0,.62.53,2.09,2.09,0,0,0,1.73,0"/><path class="cls-8" d="M113.43,228.71a.69.69,0,0,1-.73-.67V228a.71.71,0,0,1,.67-.75h.06a.71.71,0,0,1,.74.68V228a.71.71,0,0,1-.67.75h-.07m0-1.42a.62.62,0,0,0-.63.61V228a.63.63,0,0,0,.63.63.63.63,0,0,0,.63-.63.62.62,0,0,0-.56-.67h-.07m.22,1.08-.25-.36h-.08v.33h-.14v-.82h.25c.17,0,.29.09.29.24a.22.22,0,0,1-.17.23l.24.33-.14.05Zm-.22-.71h-.11v.24h.1c.1,0,.16,0,.16-.12s-.06-.12-.15-.12"/></g></g></g></g></svg>