<svg xmlns="http://www.w3.org/2000/svg" width="273.531" height="42.375" viewBox="0 0 273.531 42.375">
  <defs>
    <style>
      .cls-1 {
        fill: #fff;
        fill-rule: evenodd;
      }
    </style>
  </defs>
  <path id="Mirage_-_Visions_Of_Fleetwood_Mac" data-name="Mirage - Visions Of Fleetwood Mac" class="cls-1" d="M428.845,56.377h2.816V38.67h-3.269l-5.784,8.3-5.809-8.3H413.53V56.377h2.816V42.793l5.91,8.373h0.6l5.985-8.373V56.377Zm10.36-.025V38.645h-2.792V56.351h2.792Zm19.64-.506-5.256-5.894a5.217,5.217,0,0,0,4.778-5.514c0-2.985-2.138-5.793-6.211-5.793-2.742,0-5.457-.025-8.2-0.025V56.351h2.817V50.23H450.5l5.356,6.121h3.3Zm-6.689-14.621a3.144,3.144,0,0,1,3.344,3.263,3.041,3.041,0,0,1-3.37,3.162h-5.356V41.225h5.382ZM476.3,56.351h2.992l-7.9-17.707h-3.068l-7.9,17.707h2.992l1.66-3.718h9.531Zm-2.716-6.3h-7.444l3.722-8.423Zm21.8-9.157a9.226,9.226,0,0,0-6.513-2.681c-6.01,0-9.254,4.351-9.254,9.46,0,4.7,2.791,9.03,9.254,9.03a8.84,8.84,0,0,0,6.916-3.086V46.36h-7.519v2.53h4.9v3.592a6.265,6.265,0,0,1-4.3,1.568c-4.577,0-6.488-3.137-6.488-6.374-0.025-3.744,2.364-6.855,6.488-6.855a7,7,0,0,1,4.753,1.9Zm17.326,12.673H502.525V48.813h9.707V46.183h-9.707V41.4h10.109V38.645H499.708V56.351h13V53.569Zm9.556-4.68h9.153V46.562h-9.153v2.327Zm33.42-10.245h-3.143l-5.633,14.393L541.3,38.645h-3.169l7.318,17.783h2.943Zm5.633,17.707V38.645h-2.791V56.351h2.791Zm17.4-15.228c-1.484-2.378-4.024-2.985-6.564-2.985-3.168,0-6.815,1.417-6.79,5.084,0,3.794,3.32,4.68,6.815,5.16,2.465,0.329,4.5.986,4.5,2.909,0,2.226-2.339,2.934-4.451,2.934a6.086,6.086,0,0,1-5.482-2.909l-2.113,1.417c1.61,2.985,4.2,4.022,7.57,4.022,3.671,0,7.267-1.492,7.292-5.464,0-3.971-3.445-4.983-7.066-5.489-2.314-.329-4.275-0.809-4.275-2.529,0-1.695,1.71-2.681,4.074-2.681a5.338,5.338,0,0,1,4.35,1.973Zm7.066,15.228V38.645h-2.792V56.351h2.792ZM598.51,38.316c-5.306,0-9.053,3.9-9.053,9.283,0,4.654,2.892,9.132,9,9.132s9-4.376,9-9.157S604.52,38.341,598.51,38.316Zm-6.262,9.309c0-3.87,2.188-6.728,6.262-6.728,4.3,0.076,6.161,3.465,6.161,6.728,0,3.39-1.835,6.5-6.211,6.5C594.109,54.125,592.3,50.761,592.248,47.624Zm21.048-8.98h-2.162V56.351h2.841v-12.5l9.984,12.5H626.1V38.645H623.28v12.6Zm30.2,2.479c-1.484-2.378-4.024-2.985-6.564-2.985-3.168,0-6.815,1.417-6.789,5.084,0,3.794,3.319,4.68,6.815,5.16,2.464,0.329,4.5.986,4.5,2.909,0,2.226-2.339,2.934-4.451,2.934a6.086,6.086,0,0,1-5.482-2.909l-2.113,1.417c1.61,2.985,4.2,4.022,7.57,4.022,3.671,0,7.267-1.492,7.293-5.464,0-3.971-3.446-4.983-7.067-5.489-2.314-.329-4.275-0.809-4.275-2.529,0-1.695,1.71-2.681,4.074-2.681a5.335,5.335,0,0,1,4.35,1.973Zm18.483-2.808c-5.306,0-9.053,3.9-9.053,9.283,0,4.654,2.892,9.132,9,9.132s9-4.376,9-9.157S667.991,38.341,661.981,38.316Zm-6.262,9.309c0-3.87,2.188-6.728,6.262-6.728,4.3,0.076,6.161,3.465,6.161,6.728,0,3.39-1.836,6.5-6.212,6.5C657.58,54.125,655.769,50.761,655.719,47.624Zm21.7,8.727V49.446h9.153V46.815h-9.153V41.427h9.631V38.67H674.6V56.351h2.817ZM438.3,80.113V73.207h9.154V70.576H438.3V65.188h9.632V62.431H435.483V80.113H438.3Zm13.253-17.707V80.113h12.1V77.482h-9.28V62.406h-2.816ZM479.641,77.33H469.456V72.575h9.707V69.944h-9.707V65.163h10.11V62.406H466.64V80.113h13V77.33Zm16.949,0H486.405V72.575h9.707V69.944h-9.707V65.163h10.11V62.406H483.589V80.113h13V77.33Zm7.946,2.782h2.842V64.961h5.759V62.406H498.752v2.555h5.784V80.113Zm35.91-17.707H537.3L532.927,76.04l-4.652-13.634h-1.811L521.913,76.04l-4.477-13.634h-3.143l6.387,17.732h2.465l2.313-6.223,1.937-5.97,1.936,5.944,2.339,6.248h2.49Zm9.958-.329c-5.306,0-9.053,3.9-9.053,9.283,0,4.654,2.892,9.132,9,9.132s9-4.376,9-9.157S556.415,62.1,550.4,62.077Zm-6.261,9.309c0-3.87,2.187-6.728,6.261-6.728,4.3,0.076,6.161,3.465,6.161,6.728,0,3.39-1.835,6.5-6.211,6.5C546,77.887,544.193,74.522,544.143,71.386ZM571,62.077c-5.307,0-9.054,3.9-9.054,9.283,0,4.654,2.892,9.132,9,9.132s9-4.376,9-9.157S577.01,62.1,571,62.077Zm-6.262,9.309c0-3.87,2.188-6.728,6.262-6.728,4.3,0.076,6.161,3.465,6.161,6.728,0,3.39-1.836,6.5-6.212,6.5C566.6,77.887,564.788,74.522,564.738,71.386Zm18.885-8.98V80.113h6.664c6.161,0,8.928-4.528,8.827-9.005-0.076-4.376-2.817-8.7-8.827-8.7h-6.664Zm2.791,2.707h3.873c4.149,0,5.96,2.985,6.036,5.97,0.075,3.111-1.736,6.3-6.036,6.3h-3.873V65.113Zm37.972,15.025H627.2V62.431h-3.269l-5.784,8.3-5.809-8.3h-3.269V80.138h2.816V66.554l5.91,8.373h0.6l5.985-8.373V80.138Zm21.451-.025h2.992l-7.9-17.707h-3.068l-7.9,17.707h2.993l1.66-3.718h9.531Zm-2.716-6.3h-7.444l3.722-8.423Zm19.992,2.074a6.8,6.8,0,0,1-4.678,1.922c-4.552,0-6.463-3.213-6.488-6.45-0.025-3.263,2.012-6.577,6.488-6.577a6.446,6.446,0,0,1,4.552,1.821l1.886-1.821a8.973,8.973,0,0,0-6.438-2.681c-6.287,0-9.3,4.629-9.279,9.283s2.892,9.081,9.279,9.081a9.2,9.2,0,0,0,6.614-2.631Z" transform="translate(-413.531 -38.125)"/>
</svg>
