<svg xmlns="http://www.w3.org/2000/svg" viewBox="0 0 120 33.57"><defs><style>.cls-1{fill:#008246;}.cls-2{fill:#fff;}</style></defs><g id="Layer_2" data-name="Layer 2"><g id="Layer_1-2" data-name="Layer 1"><rect class="cls-1" width="120" height="33.57"/><path class="cls-2" d="M10.13,18.16,11.6,18a1.82,1.82,0,0,0,.54,1.09,1.65,1.65,0,0,0,1.1.35,1.72,1.72,0,0,0,1.1-.31.92.92,0,0,0,.37-.73.67.67,0,0,0-.16-.45,1.22,1.22,0,0,0-.54-.32c-.18-.07-.58-.17-1.21-.33a4.18,4.18,0,0,1-1.71-.74,2,2,0,0,1-.69-1.51A1.9,1.9,0,0,1,10.73,14a2.08,2.08,0,0,1,.93-.76A3.84,3.84,0,0,1,13.14,13a3.16,3.16,0,0,1,2.12.62A2.18,2.18,0,0,1,16,15.25l-1.51.07a1.31,1.31,0,0,0-.42-.83,1.51,1.51,0,0,0-1-.26,1.73,1.73,0,0,0-1,.27.57.57,0,0,0-.24.47.55.55,0,0,0,.22.45,4,4,0,0,0,1.39.5,8.18,8.18,0,0,1,1.64.54,2.15,2.15,0,0,1,.82.76,2.38,2.38,0,0,1-.05,2.4,2.12,2.12,0,0,1-1,.84,4.27,4.27,0,0,1-1.63.27A3.3,3.3,0,0,1,11,20.08,2.91,2.91,0,0,1,10.13,18.16Z"/><path class="cls-2" d="M19.18,20.6V14.38H17V13.11h5.95v1.27H20.69V20.6Z"/><path class="cls-2" d="M29.86,20.6H28.22l-.65-1.7h-3L24,20.6h-1.6l2.92-7.49h1.6Zm-2.78-3-1-2.78-1,2.78Z"/><path class="cls-2" d="M30.67,20.6V13.11h3.18a5.58,5.58,0,0,1,1.75.2,1.79,1.79,0,0,1,.87.72,2.14,2.14,0,0,1,.33,1.18,2,2,0,0,1-.5,1.39,2.32,2.32,0,0,1-1.48.69,3.35,3.35,0,0,1,.81.63,9.08,9.08,0,0,1,.86,1.22l.92,1.46H35.6L34.5,19a10.15,10.15,0,0,0-.79-1.1,1.17,1.17,0,0,0-.46-.31,2.32,2.32,0,0,0-.76-.09h-.31V20.6Zm1.51-4.32H33.3a5.88,5.88,0,0,0,1.36-.09.92.92,0,0,0,.43-.32,1,1,0,0,0,.15-.56.9.9,0,0,0-.2-.61.93.93,0,0,0-.57-.3c-.13,0-.49,0-1.11,0H32.18Z"/><path class="cls-2" d="M39.91,20.6V14.38H37.69V13.11h6v1.27H41.42V20.6Z"/><path class="cls-2" d="M47.53,20.6V13.11h5.14v1.27H49v1.77h3.13v1.27H49V20.6Z"/><path class="cls-2" d="M53.87,20.6V13.11h1.51V20.6Z"/><path class="cls-2" d="M56.86,20.6V13.17h1.51v6.17h3.76V20.6Z"/><path class="cls-2" d="M63.16,20.6V13.11h1.52V20.6Z"/><path class="cls-2" d="M66.13,20.6V13.11H67.6l3.07,5v-5h1.41V20.6H70.56l-3-4.88V20.6Z"/><path class="cls-2" d="M77.16,17.85V16.58h3.26v3a4.41,4.41,0,0,1-1.38.81,5.08,5.08,0,0,1-1.83.35,4.06,4.06,0,0,1-2-.5,3.06,3.06,0,0,1-1.32-1.41,4.57,4.57,0,0,1-.44-2,4.4,4.4,0,0,1,.49-2.08,3.28,3.28,0,0,1,1.44-1.39A3.85,3.85,0,0,1,77.13,13a3.57,3.57,0,0,1,2.18.59,2.66,2.66,0,0,1,1,1.61l-1.5.28a1.68,1.68,0,0,0-.6-.87,1.81,1.81,0,0,0-1.09-.32,2,2,0,0,0-1.57.63A2.65,2.65,0,0,0,75,16.77a3,3,0,0,0,.59,2,2,2,0,0,0,1.56.66,2.71,2.71,0,0,0,.95-.18,3.73,3.73,0,0,0,.82-.45v-.95Z"/><path class="cls-2" d="M84.73,20.6V13.11h1.48l3.06,5v-5h1.41V20.6H89.16l-3-4.88V20.6Z"/><path class="cls-2" d="M92,16.9A4.75,4.75,0,0,1,92.31,15a3.55,3.55,0,0,1,.7-1,2.82,2.82,0,0,1,1-.67,4,4,0,0,1,1.61-.3,3.49,3.49,0,0,1,2.65,1,4,4,0,0,1,1,2.86,3.9,3.9,0,0,1-1,2.83,3.93,3.93,0,0,1-5.29,0A3.87,3.87,0,0,1,92,16.9Zm1.56,0a2.77,2.77,0,0,0,.59,1.93,2,2,0,0,0,3,0,2.82,2.82,0,0,0,.58-2,2.84,2.84,0,0,0-.56-1.92,2.08,2.08,0,0,0-3,0A2.82,2.82,0,0,0,93.53,16.85Z"/><path class="cls-2" d="M101.48,20.6l-1.79-7.49h1.55l1.13,5.14,1.37-5.14h1.79l1.32,5.23L108,13.11h1.52L107.7,20.6h-1.6L104.6,15l-1.48,5.6Z"/></g></g></svg>