<svg xmlns="http://www.w3.org/2000/svg" viewBox="0 0 648.31 379.58"><defs><style>.cls-1{fill:#0d2950;stroke:#fff;stroke-miterlimit:10;stroke-width:0.81px;}</style></defs><g id="Layer_2" data-name="Layer 2"><g id="Layer_1-2" data-name="Layer 1"><path class="cls-1" d="M.41.41H641.82c0,6.76,6.08,6.76,6.08,13.53s-6.08,6.77-6.08,13.54S647.9,34.24,647.9,41s-6.08,6.77-6.08,13.54,6.08,6.76,6.08,13.53-6.08,6.77-6.08,13.54,6.08,6.76,6.08,13.53-6.08,6.77-6.08,13.53,6.08,6.77,6.08,13.54-6.08,6.77-6.08,13.53,6.08,6.77,6.08,13.53-6.08,6.78-6.08,13.54,6.08,6.77,6.08,13.53-6,6.77-6.08,13.44,6.08,6.7,6.08,13.43-6.08,6.77-6.08,13.54,6.08,6.76,6.08,13.53-6.08,6.77-6.08,13.54,6.08,6.76,6.08,13.53-6.08,6.77-6.08,13.54,6.08,6.76,6.08,13.53-6.08,6.77-6.08,13.54,6.08,6.76,6.08,13.53-6.08,6.77-6.08,13.54,6.08,6.76,6.08,13.53-6.08,6.77-6.08,13.54,6.08,6.76,6.08,13.53-6.08,6.76-6.08,13.54H.41Z"/></g></g></svg>