<svg xmlns="http://www.w3.org/2000/svg" viewBox="0 0 174.88 11.77"><defs><style>.cls-1{fill:#fff;}</style></defs><g id="Layer_2" data-name="Layer 2"><g id="Layer_1-2" data-name="Layer 1"><path class="cls-1" d="M3.91,9.62A4.16,4.16,0,0,1,2.23,9.3,3.3,3.3,0,0,1,1,8.38,4.06,4.06,0,0,1,.25,7,6.3,6.3,0,0,1,0,5.09,5.73,5.73,0,0,1,.5,2.56,3.62,3.62,0,0,1,1.9,1a4,4,0,0,1,2-.52A4.16,4.16,0,0,1,5.53.81a3.41,3.41,0,0,1,1.23.9,4.35,4.35,0,0,1,.79,1.46,6.44,6.44,0,0,1,.28,1.94A6.33,6.33,0,0,1,7.57,7a4.2,4.2,0,0,1-.76,1.42,3.34,3.34,0,0,1-1.22.91A4.23,4.23,0,0,1,3.91,9.62Zm0-1a2.47,2.47,0,0,0,1.44-.41A2.5,2.5,0,0,0,6.26,7a4.79,4.79,0,0,0,.32-1.85,5.21,5.21,0,0,0-.32-1.92A2.66,2.66,0,0,0,5.34,2a2.39,2.39,0,0,0-1.45-.43A2.46,2.46,0,0,0,2.48,2a2.67,2.67,0,0,0-.91,1.2,5.14,5.14,0,0,0-.32,1.92,5.48,5.48,0,0,0,.18,1.47A3.07,3.07,0,0,0,2,7.67a2.08,2.08,0,0,0,.83.67A2.76,2.76,0,0,0,3.92,8.57Z"/><path class="cls-1" d="M10.24,9.45V4.6H9v-1l1.71.1V3.51a1.53,1.53,0,0,1-.55-.37,1.63,1.63,0,0,1-.33-.54A2,2,0,0,1,9.74,2,1.91,1.91,0,0,1,10,1a1.79,1.79,0,0,1,.71-.65A2.31,2.31,0,0,1,11.78.09a2.85,2.85,0,0,1,.91.14,2.13,2.13,0,0,1,.67.37l-.14,1.13a1.8,1.8,0,0,0-.61-.38,1.84,1.84,0,0,0-.72-.14,1,1,0,0,0-.72.28,1.18,1.18,0,0,0-.28.86,1.42,1.42,0,0,0,.1.57,1.27,1.27,0,0,0,.24.41,1.87,1.87,0,0,0,.31.27h1.71l0,1H11.44V9.45Z"/><path class="cls-1" d="M15.41,9.45V4.6H14.19v-1l1.71.1V3.51a1.53,1.53,0,0,1-.55-.37A1.48,1.48,0,0,1,15,2.6,1.74,1.74,0,0,1,14.91,2a1.91,1.91,0,0,1,.24-1,1.79,1.79,0,0,1,.71-.65A2.31,2.31,0,0,1,17,.09a2.85,2.85,0,0,1,.91.14,2.13,2.13,0,0,1,.67.37l-.14,1.13a1.91,1.91,0,0,0-.61-.38,1.84,1.84,0,0,0-.72-.14,1,1,0,0,0-.72.28,1.14,1.14,0,0,0-.28.86,1.62,1.62,0,0,0,.09.57,1.5,1.5,0,0,0,.25.41,1.87,1.87,0,0,0,.31.27h1.7v1H16.61V9.45Z"/><path class="cls-1" d="M22.7,9.62a3.67,3.67,0,0,1-1.42-.25,2.75,2.75,0,0,1-1.05-.71,3.25,3.25,0,0,1-.64-1.1,4.59,4.59,0,0,1-.21-1.44,5,5,0,0,1,.21-1.48,3.75,3.75,0,0,1,.63-1.19,2.75,2.75,0,0,1,1-.77A3.28,3.28,0,0,1,22.6,2.4a3.25,3.25,0,0,1,1.23.23,2.27,2.27,0,0,1,1,.7,3.12,3.12,0,0,1,.59,1.18,5.07,5.07,0,0,1,.16,1.67l-5.39,0V5.39l4.66,0-.41.56a2.92,2.92,0,0,0-.16-1.38,1.66,1.66,0,0,0-1.63-1.1,1.81,1.81,0,0,0-1.08.32,1.93,1.93,0,0,0-.71.91,3.89,3.89,0,0,0-.24,1.45A2.84,2.84,0,0,0,21.11,8a2,2,0,0,0,1.61.64,2.26,2.26,0,0,0,.73-.1A1.54,1.54,0,0,0,24,8.24a1.57,1.57,0,0,0,.35-.42,1.79,1.79,0,0,0,.22-.51l1.07.25a3,3,0,0,1-.37.86,2.47,2.47,0,0,1-.61.64,2.53,2.53,0,0,1-.84.41A3.73,3.73,0,0,1,22.7,9.62Z"/><path class="cls-1" d="M27.25,9.45V2.58h1.09L28.23,5h.23a5.36,5.36,0,0,1,.37-1.36,2.28,2.28,0,0,1,.67-.89,1.69,1.69,0,0,1,1-.32l.31,0,.4.1-.07,1.27a2,2,0,0,0-.4-.12l-.38,0a1.32,1.32,0,0,0-.9.33,2.58,2.58,0,0,0-.63.9,6.31,6.31,0,0,0-.41,1.27V9.45Z"/><path class="cls-1" d="M37.57,9.45,35.11,2.59h1.34l1.88,5.83h.18l1.86-5.83h1.32L39.24,9.45Z"/><path class="cls-1" d="M44.45,9.62a2.37,2.37,0,0,1-1-.22,1.74,1.74,0,0,1-.72-.65,2.16,2.16,0,0,1-.26-1.1,1.94,1.94,0,0,1,.18-.86,1.62,1.62,0,0,1,.56-.64,3.25,3.25,0,0,1,1-.44,11.74,11.74,0,0,1,1.46-.29c.33,0,.6-.09.81-.13a1,1,0,0,0,.46-.22A.68.68,0,0,0,47,4.61a1.15,1.15,0,0,0-.34-.85,1.5,1.5,0,0,0-1.09-.35,2.48,2.48,0,0,0-.79.14,1.63,1.63,0,0,0-.69.44,1.52,1.52,0,0,0-.38.87l-1.12-.37A2.64,2.64,0,0,1,43,3.63,2.47,2.47,0,0,1,43.61,3a3.11,3.11,0,0,1,.9-.42,4,4,0,0,1,1.14-.15,3.13,3.13,0,0,1,1.44.3,1.86,1.86,0,0,1,.86.89,3.66,3.66,0,0,1,.29,1.55V6.67c0,.27,0,.57,0,.9s0,.64.06,1,0,.62.08.91H47.28c0-.29-.05-.57-.07-.86s0-.56-.05-.84H47a3.79,3.79,0,0,1-.53.91,2.54,2.54,0,0,1-.83.69A2.48,2.48,0,0,1,44.45,9.62Zm.36-1a2.06,2.06,0,0,0,.59-.09,2.11,2.11,0,0,0,.6-.3,3.26,3.26,0,0,0,.57-.55,3.39,3.39,0,0,0,.48-.8V5.57l.35.06a1.31,1.31,0,0,1-.57.32,5.17,5.17,0,0,1-.77.17l-.85.14a3.56,3.56,0,0,0-.78.22,1.35,1.35,0,0,0-.56.39,1,1,0,0,0-.22.69,1,1,0,0,0,.32.8A1.25,1.25,0,0,0,44.81,8.63Z"/><path class="cls-1" d="M50.27,9.45V.15h1.21v9.3Z"/><path class="cls-1" d="M54.19,1.38a1,1,0,0,1-.64-.17.64.64,0,0,1-.21-.52.64.64,0,0,1,.21-.52A1,1,0,0,1,54.17,0a1,1,0,0,1,.64.17A.65.65,0,0,1,55,.69a.64.64,0,0,1-.22.51A.94.94,0,0,1,54.19,1.38Zm-.61,8.07V2.58h1.21V9.45Z"/><path class="cls-1" d="M59.3,9.62a2.46,2.46,0,0,1-1.5-.47,2.94,2.94,0,0,1-.95-1.27A4.9,4.9,0,0,1,56.53,6a4.9,4.9,0,0,1,.32-1.86,2.86,2.86,0,0,1,.93-1.28,2.37,2.37,0,0,1,1.5-.46,2.17,2.17,0,0,1,1.19.3,2.46,2.46,0,0,1,.75.79,3.91,3.91,0,0,1,.42,1.06h.24l-.12-.8c0-.28-.07-.56-.09-.83a6.49,6.49,0,0,1,0-.72V.15h1.22v9.3H61.76l.07-1.87h-.21a3.66,3.66,0,0,1-.46,1.06,2,2,0,0,1-.74.72A2.24,2.24,0,0,1,59.3,9.62Zm.28-1.06a1.71,1.71,0,0,0,.87-.23,2.28,2.28,0,0,0,.65-.59A2.94,2.94,0,0,0,61.5,7a2.78,2.78,0,0,0,.14-.83V6a2.26,2.26,0,0,0-.08-.6,3.46,3.46,0,0,0-.23-.66,3,3,0,0,0-.4-.62,1.82,1.82,0,0,0-.58-.45,1.64,1.64,0,0,0-.74-.16,1.48,1.48,0,0,0-1,.34,2,2,0,0,0-.61.92A3.87,3.87,0,0,0,57.79,6,3.83,3.83,0,0,0,58,7.37a1.89,1.89,0,0,0,.62.87A1.52,1.52,0,0,0,59.58,8.56Z"/><path class="cls-1" d="M70.45,9.58A1.79,1.79,0,0,1,69,9.06a2.31,2.31,0,0,1-.47-1.58V3.59h-1v-1h.65a.77.77,0,0,0,.48-.12.49.49,0,0,0,.18-.4L69,1h.74V2.58h2v1h-2V7.45a1,1,0,0,0,.25.77,1,1,0,0,0,.71.23,1.91,1.91,0,0,0,.52-.07,1.49,1.49,0,0,0,.54-.26V9.33a4.86,4.86,0,0,1-.71.2A4.4,4.4,0,0,1,70.45,9.58Z"/><path class="cls-1" d="M73.86,1.38a1.06,1.06,0,0,1-.64-.17A.64.64,0,0,1,73,.69a.64.64,0,0,1,.21-.52A1,1,0,0,1,73.85,0a1.06,1.06,0,0,1,.64.17.64.64,0,0,1,.21.52.64.64,0,0,1-.21.51A1,1,0,0,1,73.86,1.38Zm-.61,8.07V2.58h1.21V9.45Z"/><path class="cls-1" d="M76.56,9.45V.15h1.21v9.3Z"/><path class="cls-1" d="M79.85,9.45V.15h1.21v9.3Z"/><path class="cls-1" d="M89.46,9.62A3.73,3.73,0,0,1,88,9.37a2.72,2.72,0,0,1-1-.71,3,3,0,0,1-.64-1.1,4.59,4.59,0,0,1-.21-1.44,5,5,0,0,1,.21-1.48A3.54,3.54,0,0,1,87,3.45a2.93,2.93,0,0,1,1-.77,3.48,3.48,0,0,1,2.61-.05,2.33,2.33,0,0,1,1,.7,3.12,3.12,0,0,1,.59,1.18,5.67,5.67,0,0,1,.16,1.67l-5.4,0V5.39l4.67,0-.41.56A3.05,3.05,0,0,0,91,4.53a1.74,1.74,0,0,0-.65-.82,1.72,1.72,0,0,0-1-.28,1.8,1.8,0,0,0-1.07.32,1.93,1.93,0,0,0-.71.91,3.69,3.69,0,0,0-.25,1.45A2.84,2.84,0,0,0,87.86,8a2,2,0,0,0,1.61.64,2.37,2.37,0,0,0,.74-.1,1.49,1.49,0,0,0,.53-.28,1.44,1.44,0,0,0,.36-.42,2.12,2.12,0,0,0,.22-.51l1.06.25a3,3,0,0,1-.36.86,2.65,2.65,0,0,1-.61.64,2.68,2.68,0,0,1-.85.41A3.66,3.66,0,0,1,89.46,9.62Z"/><path class="cls-1" d="M94,9.45V2.58h1.09L95,4.76h.23a4.35,4.35,0,0,1,.5-1.33,2,2,0,0,1,.79-.77A2.3,2.3,0,0,1,97.6,2.4a2,2,0,0,1,1.74.82,4.2,4.2,0,0,1,.59,2.44V9.45H98.7V5.77A3.26,3.26,0,0,0,98.34,4a1.2,1.2,0,0,0-1.07-.56,1.52,1.52,0,0,0-1.08.4,2.66,2.66,0,0,0-.7,1,4.26,4.26,0,0,0-.28,1.41V9.45Z"/><path class="cls-1" d="M104.36,9.62a2.46,2.46,0,0,1-1.5-.47,2.94,2.94,0,0,1-1-1.27A5.1,5.1,0,0,1,101.59,6a4.9,4.9,0,0,1,.32-1.86,2.86,2.86,0,0,1,.93-1.28,2.37,2.37,0,0,1,1.5-.46,2.17,2.17,0,0,1,1.19.3,2.46,2.46,0,0,1,.75.79,3.91,3.91,0,0,1,.42,1.06h.24l-.12-.8c0-.28-.07-.56-.09-.83a6.49,6.49,0,0,1,0-.72V.15h1.22v9.3h-1.09l.07-1.87h-.21a3.66,3.66,0,0,1-.46,1.06,2,2,0,0,1-.74.72A2.24,2.24,0,0,1,104.36,9.62Zm.28-1.06a1.71,1.71,0,0,0,.87-.23,2.28,2.28,0,0,0,.65-.59,2.94,2.94,0,0,0,.4-.79,2.49,2.49,0,0,0,.14-.83V6a2.26,2.26,0,0,0-.08-.6,3.46,3.46,0,0,0-.23-.66,2.62,2.62,0,0,0-.4-.62,1.82,1.82,0,0,0-.58-.45,1.64,1.64,0,0,0-.74-.16,1.48,1.48,0,0,0-1,.34,2,2,0,0,0-.61.92A3.87,3.87,0,0,0,102.85,6a3.83,3.83,0,0,0,.21,1.33,1.89,1.89,0,0,0,.62.87A1.52,1.52,0,0,0,104.64,8.56Z"/><path class="cls-1" d="M116.32,9.62a3.47,3.47,0,0,1-1.73-.43,3,3,0,0,1-1.17-1.25A4.2,4.2,0,0,1,113,6a4.1,4.1,0,0,1,.44-2,3,3,0,0,1,1.19-1.19,3.54,3.54,0,0,1,1.66-.4,3.44,3.44,0,0,1,1.71.42A3,3,0,0,1,119.19,4a4.15,4.15,0,0,1,.44,2,4.2,4.2,0,0,1-.43,2A2.93,2.93,0,0,1,118,9.21,3.49,3.49,0,0,1,116.32,9.62Zm.05-1a1.9,1.9,0,0,0,1.1-.31,2,2,0,0,0,.7-.88,3.37,3.37,0,0,0,.25-1.36,3.5,3.5,0,0,0-.26-1.4,2.12,2.12,0,0,0-.74-.92,2,2,0,0,0-1.15-.32,2,2,0,0,0-1.09.29,1.91,1.91,0,0,0-.71.86A3.29,3.29,0,0,0,114.22,6a3,3,0,0,0,.58,2A1.92,1.92,0,0,0,116.37,8.62Z"/><path class="cls-1" d="M121.89,9.45V4.6h-1.23v-1l1.72.1V3.51a1.44,1.44,0,0,1-.55-.37,1.5,1.5,0,0,1-.34-.54,2,2,0,0,1-.11-.65,1.82,1.82,0,0,1,.25-1,1.76,1.76,0,0,1,.7-.65,2.35,2.35,0,0,1,1.1-.24,2.9,2.9,0,0,1,.91.14A2.25,2.25,0,0,1,125,.6l-.15,1.13a1.8,1.8,0,0,0-.61-.38,1.84,1.84,0,0,0-.72-.14.93.93,0,0,0-.71.28,1.14,1.14,0,0,0-.28.86,1.62,1.62,0,0,0,.09.57,1.13,1.13,0,0,0,.25.41,1.54,1.54,0,0,0,.31.27h1.7v1h-1.8V9.45Z"/><path class="cls-1" d="M129,9.45,132.05.68h1.78l3.08,8.77H135.6L133,1.7h-.16l-2.58,7.75Zm1.46-2V6.55h5.17v.93Z"/><path class="cls-1" d="M140.31,9.62a2,2,0,0,1-1.73-.8A4.07,4.07,0,0,1,138,6.44V2.58h1.22V6.34A3.18,3.18,0,0,0,139.57,8a1.2,1.2,0,0,0,1.09.54,1.35,1.35,0,0,0,.74-.2,1.93,1.93,0,0,0,.57-.57,3.11,3.11,0,0,0,.41-.88,5.32,5.32,0,0,0,.22-1.11V2.58h1.21V9.45h-1.08l.11-2.21h-.2a4.5,4.5,0,0,1-.49,1.35,2.06,2.06,0,0,1-.77.78A2.31,2.31,0,0,1,140.31,9.62Z"/><path class="cls-1" d="M148.47,11.77a8,8,0,0,1-1.79-.17,2.07,2.07,0,0,1-1-.5,1.17,1.17,0,0,1-.33-.84,1.25,1.25,0,0,1,.48-1,2.83,2.83,0,0,1,1.45-.54V8.48a2.49,2.49,0,0,1-1.07-.18.54.54,0,0,1-.35-.51.71.71,0,0,1,.35-.61,4,4,0,0,1,1.17-.46V6.47A1.59,1.59,0,0,1,146.12,6a1.72,1.72,0,0,1-.43-1.22,1.89,1.89,0,0,1,.37-1.18,2.32,2.32,0,0,1,1.06-.77,4.64,4.64,0,0,1,1.67-.27H152v1l-2.13-.33v.25a2.53,2.53,0,0,1,1.19.54,1.33,1.33,0,0,1,.41,1,1.55,1.55,0,0,1-.33,1,2.23,2.23,0,0,1-1,.66,4.86,4.86,0,0,1-1.59.23,2.68,2.68,0,0,1-.39,0l-.54-.07a6.07,6.07,0,0,0-.58.41.48.48,0,0,0-.21.33c0,.1.06.18.2.23a1.67,1.67,0,0,0,.5.12,5.15,5.15,0,0,0,.54,0h1.56a4.82,4.82,0,0,1,.67.06,3.06,3.06,0,0,1,.81.22,1.77,1.77,0,0,1,.68.53,1.58,1.58,0,0,1,.28,1,1.65,1.65,0,0,1-.42,1.17,2.49,2.49,0,0,1-1.24.65A8.6,8.6,0,0,1,148.47,11.77Zm0-1a7.09,7.09,0,0,0,1.43-.11,1.69,1.69,0,0,0,.82-.35A.8.8,0,0,0,151,9.7a.77.77,0,0,0-.18-.54.94.94,0,0,0-.45-.27,1.91,1.91,0,0,0-.53-.1,3.87,3.87,0,0,0-.45,0h-1.56a2.05,2.05,0,0,0-1.06.48.94.94,0,0,0-.29.65.67.67,0,0,0,.26.56,1.84,1.84,0,0,0,.73.25A7.89,7.89,0,0,0,148.5,10.77Zm.16-4.63a2,2,0,0,0,1.26-.35,1.14,1.14,0,0,0,.42-.93,1.35,1.35,0,0,0-.43-1,1.83,1.83,0,0,0-1.29-.4,2,2,0,0,0-1.29.38,1.34,1.34,0,0,0-.24,1.7,1.34,1.34,0,0,0,.6.46A2.48,2.48,0,0,0,148.66,6.14Z"/><path class="cls-1" d="M155.84,9.62a2,2,0,0,1-1.73-.8,4,4,0,0,1-.58-2.38V2.58h1.22V6.34A3.18,3.18,0,0,0,155.1,8a1.2,1.2,0,0,0,1.09.54,1.29,1.29,0,0,0,.73-.2,1.85,1.85,0,0,0,.58-.57,3.11,3.11,0,0,0,.41-.88,5.32,5.32,0,0,0,.22-1.11V2.58h1.21V9.45h-1.08l.11-2.21h-.2a4.5,4.5,0,0,1-.49,1.35,2.08,2.08,0,0,1-.78.78A2.27,2.27,0,0,1,155.84,9.62Z"/><path class="cls-1" d="M164,9.62a4.53,4.53,0,0,1-1.28-.16,2.67,2.67,0,0,1-.93-.43,1.89,1.89,0,0,1-.57-.69,1.93,1.93,0,0,1-.21-.87l1-.27a1.06,1.06,0,0,0,.22.76,1.47,1.47,0,0,0,.7.5,3.09,3.09,0,0,0,1.11.17,2.33,2.33,0,0,0,1.22-.26.84.84,0,0,0,.43-.73.73.73,0,0,0-.24-.58,1.7,1.7,0,0,0-.66-.33,8.15,8.15,0,0,0-1-.23c-.32-.07-.64-.15-.95-.24a4.27,4.27,0,0,1-.87-.35,1.79,1.79,0,0,1-.64-.58,1.66,1.66,0,0,1-.23-.89,1.78,1.78,0,0,1,.33-1.08,2.14,2.14,0,0,1,.94-.7,3.81,3.81,0,0,1,1.46-.26,3.69,3.69,0,0,1,1.45.26,2.32,2.32,0,0,1,.94.73,2,2,0,0,1,.39,1.09l-1,.26a1.35,1.35,0,0,0-.23-.74,1.32,1.32,0,0,0-.62-.46,2.67,2.67,0,0,0-.93-.15,2.13,2.13,0,0,0-1.12.26.84.84,0,0,0-.41.73.69.69,0,0,0,.25.56,1.68,1.68,0,0,0,.67.33l.94.24c.36.07.69.15,1,.24a4.27,4.27,0,0,1,.87.35,1.73,1.73,0,0,1,.61.56,1.67,1.67,0,0,1,.22.9,1.75,1.75,0,0,1-.35,1.13,2.21,2.21,0,0,1-1,.7A4.55,4.55,0,0,1,164,9.62Z"/><path class="cls-1" d="M170.61,9.58a1.81,1.81,0,0,1-1.42-.52,2.31,2.31,0,0,1-.46-1.58V3.59h-1l0-1h.65a.77.77,0,0,0,.48-.12.56.56,0,0,0,.18-.4l.13-1h.75V2.58h2v1h-2V7.45a1,1,0,0,0,.24.77,1,1,0,0,0,.71.23,2,2,0,0,0,.53-.07,1.49,1.49,0,0,0,.54-.26V9.33a5.23,5.23,0,0,1-.71.2A4.54,4.54,0,0,1,170.61,9.58Z"/><path class="cls-1" d="M174,9.6a1,1,0,0,1-.64-.18.77.77,0,0,1-.21-.6.73.73,0,0,1,.21-.58.94.94,0,0,1,.64-.19,1,1,0,0,1,.66.19.71.71,0,0,1,.22.59C174.88,9.35,174.59,9.6,174,9.6Z"/></g></g></svg>