<svg xmlns="http://www.w3.org/2000/svg" viewBox="0 0 137.08 33.62"><defs><style>.cls-1{fill:#221f20;}</style></defs><g id="Layer_2" data-name="Layer 2"><g id="Layer_1-2" data-name="Layer 1"><path class="cls-1" d="M10.52,12.22H8.19L12,.17h3l3.82,12.05H16.49l-.82-2.63H11.33Zm3-9.6L11.93,7.7h3.15Z"/><path class="cls-1" d="M24.73,5.56H22.58V9.39a1.26,1.26,0,0,0,.3.89,1.08,1.08,0,0,0,.84.34,2.77,2.77,0,0,0,1-.2l.19,1.79a8.25,8.25,0,0,1-1.73.19,2.61,2.61,0,0,1-2.11-.78,3.89,3.89,0,0,1-.65-2.48V5.56H19.05V3.78h1.36V1.71l2.17-.43v2.5h2.15Z"/><path class="cls-1" d="M35,5.56H32.86V9.39a1.26,1.26,0,0,0,.3.89,1.09,1.09,0,0,0,.85.34,2.77,2.77,0,0,0,1-.2l.18,1.79a8.23,8.23,0,0,1-1.72.19,2.6,2.6,0,0,1-2.11-.78,3.83,3.83,0,0,1-.66-2.48V5.56H29.34V3.78h1.35V1.71l2.17-.43v2.5H35Z"/><path class="cls-1" d="M39.09,12.22H36.92V.17h2.17V5a2.83,2.83,0,0,1,2.53-1.42,2.51,2.51,0,0,1,2.05.83,3.61,3.61,0,0,1,.7,2.41v5.4H42.2V7.34c0-1.2-.42-1.79-1.25-1.79a1.62,1.62,0,0,0-1.2.45,2.17,2.17,0,0,0-.59,1.12,2.78,2.78,0,0,0-.07.71Z"/><path class="cls-1" d="M50.09,12.42a3.82,3.82,0,0,1-3-1.22A4.64,4.64,0,0,1,46,8a4.67,4.67,0,0,1,1.08-3.21,3.81,3.81,0,0,1,3-1.21A3.48,3.48,0,0,1,53,4.87a6,6,0,0,1,1,3.66H48.08a2.94,2.94,0,0,0,.64,1.63,1.72,1.72,0,0,0,1.37.6,1.92,1.92,0,0,0,1.78-1.17l1.92.48A3.7,3.7,0,0,1,50.09,12.42Zm0-7.2a1.77,1.77,0,0,0-1.31.5,2.49,2.49,0,0,0-.66,1.45h3.77a2.44,2.44,0,0,0-.58-1.45A1.6,1.6,0,0,0,50.09,5.22Z"/><path class="cls-1" d="M62.13,12.22H60V5.56H58.58V3.78H60V3.3C60,1.1,61,0,63,0a4.21,4.21,0,0,1,2.11.53L64.41,2.2a2.29,2.29,0,0,0-1.18-.34,1,1,0,0,0-.81.36,1.66,1.66,0,0,0-.29,1.08v.48h2.11V5.56H62.13Z"/><path class="cls-1" d="M72.19,11.2a4.41,4.41,0,0,1-6,0A4.64,4.64,0,0,1,65.06,8a4.67,4.67,0,0,1,1.08-3.21,4.39,4.39,0,0,1,6,0A4.67,4.67,0,0,1,73.27,8,4.64,4.64,0,0,1,72.19,11.2ZM67.71,9.91a1.84,1.84,0,0,0,2.9,0A3.25,3.25,0,0,0,71.1,8a3.25,3.25,0,0,0-.49-1.92,1.64,1.64,0,0,0-1.45-.7,1.66,1.66,0,0,0-1.45.71A3.33,3.33,0,0,0,67.23,8,3.35,3.35,0,0,0,67.71,9.91Z"/><path class="cls-1" d="M77.26,12.22H75.09V3.78H76.9V5.56a2.42,2.42,0,0,1,2.38-1.93,3.09,3.09,0,0,1,1,.15l-.39,2.07a2.29,2.29,0,0,0-.74-.14A1.55,1.55,0,0,0,78,6.12a2.1,2.1,0,0,0-.62,1.1,8,8,0,0,0-.13,1.49Z"/><path class="cls-1" d="M84.83,12.42a3.85,3.85,0,0,1-3-1.22A4.64,4.64,0,0,1,80.72,8,4.67,4.67,0,0,1,81.8,4.79a3.84,3.84,0,0,1,3-1.21,3.48,3.48,0,0,1,2.94,1.29,6,6,0,0,1,1,3.66H82.83a2.94,2.94,0,0,0,.63,1.63,1.74,1.74,0,0,0,1.37.6,1.94,1.94,0,0,0,1.79-1.17l1.92.48A3.72,3.72,0,0,1,84.83,12.42Zm0-7.2a1.77,1.77,0,0,0-1.31.5,2.55,2.55,0,0,0-.66,1.45h3.77a2.32,2.32,0,0,0-.58-1.45A1.58,1.58,0,0,0,84.83,5.22Z"/><path class="cls-1" d="M93,12.22H90.87V5.56H89.5V3.78h1.37V3.3q0-3.3,3-3.3A4.17,4.17,0,0,1,96,.53L95.33,2.2a2.29,2.29,0,0,0-1.18-.34,1,1,0,0,0-.81.36A1.66,1.66,0,0,0,93,3.3v.48h2.12V5.56H93Z"/><path class="cls-1" d="M99.1,12.22H96.93V3.78h1.81V5.56a2.43,2.43,0,0,1,2.38-1.93,3.09,3.09,0,0,1,.95.15l-.38,2.07a2.4,2.4,0,0,0-.75-.14,1.57,1.57,0,0,0-1.09.41,2.09,2.09,0,0,0-.61,1.1,8,8,0,0,0-.14,1.49Z"/><path class="cls-1" d="M109.69,11.2a4.4,4.4,0,0,1-6,0A4.65,4.65,0,0,1,102.56,8a4.67,4.67,0,0,1,1.09-3.21,4.37,4.37,0,0,1,6,0A4.63,4.63,0,0,1,110.78,8,4.6,4.6,0,0,1,109.69,11.2Zm-4.47-1.29a1.84,1.84,0,0,0,2.9,0A3.25,3.25,0,0,0,108.61,8a3.25,3.25,0,0,0-.49-1.92,1.84,1.84,0,0,0-2.9,0A3.33,3.33,0,0,0,104.73,8,3.35,3.35,0,0,0,105.22,9.91Z"/><path class="cls-1" d="M114.77,12.22H112.6V3.78h1.86v1.6a3,3,0,0,1,2.84-1.8,2.51,2.51,0,0,1,2,.83,3.61,3.61,0,0,1,.7,2.41v5.4h-2.17V7.34c0-1.2-.42-1.79-1.25-1.79a1.62,1.62,0,0,0-1.2.45,2.17,2.17,0,0,0-.59,1.12,6.51,6.51,0,0,0-.07,1.18Z"/><path class="cls-1" d="M127.06,5.56h-2.15V9.39a1.26,1.26,0,0,0,.29.89,1.09,1.09,0,0,0,.85.34,2.77,2.77,0,0,0,1-.2l.18,1.79a8.15,8.15,0,0,1-1.72.19,2.61,2.61,0,0,1-2.11-.78,3.83,3.83,0,0,1-.65-2.48V5.56h-1.36V3.78h1.36V1.71l2.17-.43v2.5h2.15Z"/><path class="cls-1" d="M7.13,29.6a3.86,3.86,0,0,1-3,1.2,3.9,3.9,0,0,1-3-1.2A4.64,4.64,0,0,1,0,26.4a4.63,4.63,0,0,1,1.08-3.2,3.84,3.84,0,0,1,3-1.22,3.81,3.81,0,0,1,3,1.22,4.63,4.63,0,0,1,1.08,3.2A4.64,4.64,0,0,1,7.13,29.6ZM2.66,28.31A1.65,1.65,0,0,0,4.11,29a1.68,1.68,0,0,0,1.45-.7A3.32,3.32,0,0,0,6,26.4a3.32,3.32,0,0,0-.48-1.92,1.65,1.65,0,0,0-1.45-.7,1.65,1.65,0,0,0-1.45.71,3.26,3.26,0,0,0-.49,1.91A3.26,3.26,0,0,0,2.66,28.31Z"/><path class="cls-1" d="M12.5,30.62H10.33V24H9V22.18h1.37V21.7q0-3.3,3-3.3a4.15,4.15,0,0,1,2.1.53l-.64,1.67a2.29,2.29,0,0,0-1.18-.34,1,1,0,0,0-.81.36,1.66,1.66,0,0,0-.3,1.08v.48h2.12V24H12.5Z"/><path class="cls-1" d="M21.21,30.62h-2.3l2.65-4.32L19,22.18h2.42L23,24.79l1.56-2.61h2.28l-2.48,4.07L27,30.62H24.63l-1.71-2.86Z"/><path class="cls-1" d="M31.45,30.82a3.8,3.8,0,0,1-3-1.22,4.64,4.64,0,0,1-1.08-3.2,4.63,4.63,0,0,1,1.08-3.2,3.8,3.8,0,0,1,3-1.22,3.48,3.48,0,0,1,2.94,1.29,6,6,0,0,1,1,3.66H29.44a2.94,2.94,0,0,0,.64,1.63,1.73,1.73,0,0,0,1.37.61A2,2,0,0,0,33.24,28l1.92.48A3.72,3.72,0,0,1,31.45,30.82Zm0-7.2a1.81,1.81,0,0,0-1.31.5,2.55,2.55,0,0,0-.66,1.45h3.77a2.38,2.38,0,0,0-.58-1.45A1.62,1.62,0,0,0,31.45,23.62Z"/><path class="cls-1" d="M39.36,30.62H37.19V22.18h1.86v1.6A3,3,0,0,1,41.9,22a2.51,2.51,0,0,1,2,.83,3.61,3.61,0,0,1,.71,2.41v5.4H42.48V25.74c0-1.2-.42-1.79-1.26-1.79A1.58,1.58,0,0,0,40,24.4a2.18,2.18,0,0,0-.6,1.12,7.6,7.6,0,0,0-.07,1.18Z"/><path class="cls-1" d="M53.38,29.6a4.4,4.4,0,0,1-6,0,4.6,4.6,0,0,1-1.09-3.2,4.58,4.58,0,0,1,1.09-3.2,4.35,4.35,0,0,1,6,0,4.63,4.63,0,0,1,1.09,3.2A4.65,4.65,0,0,1,53.38,29.6Zm-4.47-1.29a1.84,1.84,0,0,0,2.9,0,3.32,3.32,0,0,0,.49-1.92,3.32,3.32,0,0,0-.49-1.92,1.84,1.84,0,0,0-2.9,0,3.26,3.26,0,0,0-.49,1.91A3.26,3.26,0,0,0,48.91,28.31Z"/><path class="cls-1" d="M61.09,29.21a.76.76,0,0,0,0,.68.57.57,0,0,0,.47.22,1.05,1.05,0,0,0,.71-.33A3.11,3.11,0,0,0,63,28.62l.25-.68h.31l-.33,1a2.9,2.9,0,0,1-1,1.48,2.38,2.38,0,0,1-1.45.44,1.72,1.72,0,0,1-1.14-.33,1.36,1.36,0,0,1-.46-.9,3.06,3.06,0,0,1,.14-1.3l2.5-8.73c.4,0,.77,0,1.12-.06a7.41,7.41,0,0,0,1-.17Zm4-7.13,0,.33H59.52l.08-.33Z"/><path class="cls-1" d="M66.77,30.62h-2l2-7.14a1.55,1.55,0,0,0,.1-.69c0-.13-.13-.2-.3-.2a.77.77,0,0,0-.58.32A3.7,3.7,0,0,0,65.4,24l-.29.78H64.8l.43-1.24a2.79,2.79,0,0,1,.58-1,2,2,0,0,1,.76-.53,2.49,2.49,0,0,1,.85-.14,1.21,1.21,0,0,1,.78.21,1,1,0,0,1,.33.56,2.71,2.71,0,0,1,0,.76,6.34,6.34,0,0,1-.14.78ZM71,22.23a1.37,1.37,0,0,0-.75.25,3.67,3.67,0,0,0-.79.82,8.88,8.88,0,0,0-.84,1.49A23.88,23.88,0,0,0,67.76,27c-.29.88-.59,1.91-.89,3.11l.4-2.21c.34-1.16.66-2.13,1-2.9a11,11,0,0,1,.89-1.87,2.9,2.9,0,0,1,.94-1,2,2,0,0,1,1.07-.29,1.14,1.14,0,0,1,1.24,1.2,1.54,1.54,0,0,1-.19.77,1.62,1.62,0,0,1-.53.57,1.29,1.29,0,0,1-.73.2,1,1,0,0,1-.66-.21.79.79,0,0,1-.24-.63,1.35,1.35,0,0,1,.17-.66,1.63,1.63,0,0,1,.43-.51,1.67,1.67,0,0,1,.58-.29l-.08-.05Z"/><path class="cls-1" d="M74.3,30.09a1.09,1.09,0,0,0,.68-.35,4.43,4.43,0,0,0,.78-1,9.61,9.61,0,0,0,.76-1.54,12.39,12.39,0,0,0,.63-2L76.81,27a10.45,10.45,0,0,1-1,2.25,3.81,3.81,0,0,1-1.13,1.21,2.3,2.3,0,0,1-1.22.36,1.57,1.57,0,0,1-1.32-.55,2.33,2.33,0,0,1-.43-1.48A6.35,6.35,0,0,1,72,27a9.69,9.69,0,0,1,.79-1.87,9,9,0,0,1,1.15-1.65,6.25,6.25,0,0,1,1.37-1.19,2.75,2.75,0,0,1,1.46-.44,1,1,0,0,1,.86.47,2.09,2.09,0,0,1,.15,1.43l-.18.1a2,2,0,0,0-.06-1.09.59.59,0,0,0-.57-.4,1.22,1.22,0,0,0-.81.4,4.91,4.91,0,0,0-.83,1.07,10.52,10.52,0,0,0-.76,1.54A11.91,11.91,0,0,0,74,27.16a8.16,8.16,0,0,0-.2,1.81,2.27,2.27,0,0,0,.12.87A.39.39,0,0,0,74.3,30.09Zm3.73-8c.4,0,.77,0,1.12-.07a7.73,7.73,0,0,0,1-.16L78,29.2a2.88,2.88,0,0,0-.09.4A.75.75,0,0,0,78,30a.27.27,0,0,0,.27.14.79.79,0,0,0,.55-.28,3.41,3.41,0,0,0,.58-1.14l.24-.75h.32l-.42,1.21a2.75,2.75,0,0,1-.58,1.05,2,2,0,0,1-.73.53,2.37,2.37,0,0,1-.77.14,1.26,1.26,0,0,1-1.13-.49,1.45,1.45,0,0,1-.16-.9,6.6,6.6,0,0,1,.21-1.14Z"/><path class="cls-1" d="M83.1,30.62h-2l2-7.14c0-.15.07-.29.1-.43a.59.59,0,0,0,0-.33c0-.09-.14-.13-.29-.13a.72.72,0,0,0-.57.31A4,4,0,0,0,81.72,24l-.28.78h-.31l.43-1.24a2.6,2.6,0,0,1,.89-1.34,2.17,2.17,0,0,1,1.21-.36,1.43,1.43,0,0,1,.84.21.93.93,0,0,1,.37.56,1.81,1.81,0,0,1,0,.74,5.37,5.37,0,0,1-.15.8Zm.61-3a24.39,24.39,0,0,1,1.18-2.82A10.07,10.07,0,0,1,86,23a3.22,3.22,0,0,1,1.09-.92,2.7,2.7,0,0,1,1.18-.26,1.46,1.46,0,0,1,1.13.35,1.32,1.32,0,0,1,.32.93,4,4,0,0,1-.23,1.22l-1.62,4.86a1.15,1.15,0,0,0-.08.67.3.3,0,0,0,.33.23.78.78,0,0,0,.52-.28,3.55,3.55,0,0,0,.59-1.15l.26-.74h.32l-.41,1.21a2.92,2.92,0,0,1-.59,1.06,2,2,0,0,1-.76.5,2.34,2.34,0,0,1-.81.14,1.61,1.61,0,0,1-.73-.14,1,1,0,0,1-.48-.39,1.29,1.29,0,0,1-.18-.81,4.58,4.58,0,0,1,.27-1.19l1.5-4.55a5.36,5.36,0,0,0,.14-.54,1,1,0,0,0,0-.47.34.34,0,0,0-.35-.19,1.16,1.16,0,0,0-.76.39,5.59,5.59,0,0,0-.86,1.09,14.7,14.7,0,0,0-.9,1.62c-.29.62-.58,1.29-.85,2s-.51,1.47-.72,2.25Z"/><path class="cls-1" d="M91.71,30.37a1.36,1.36,0,0,0,.28.11,1.56,1.56,0,0,0,.42,0,1.45,1.45,0,0,0,1-.4A1.51,1.51,0,0,0,93.88,29a3,3,0,0,0-.22-1.07A7.18,7.18,0,0,0,93,26.7c-.27-.39-.51-.77-.73-1.15a2.57,2.57,0,0,1-.32-1.29A2.28,2.28,0,0,1,92.29,23a2.37,2.37,0,0,1,1-.85,3.42,3.42,0,0,1,1.51-.31A4.56,4.56,0,0,1,95.9,22a1.88,1.88,0,0,1,.89.48,1.34,1.34,0,0,1,.35,1A1.3,1.3,0,0,1,97,24a1.08,1.08,0,0,1-.3.44.76.76,0,0,1-.53.18.72.72,0,0,1-.58-.28,1.05,1.05,0,0,1-.23-.7,1.87,1.87,0,0,1,.14-.71,2.69,2.69,0,0,1,.34-.58,1.31,1.31,0,0,0-.66-.13,1.24,1.24,0,0,0-1,.38,1.49,1.49,0,0,0-.36,1.07,1.92,1.92,0,0,0,.12.69,3,3,0,0,0,.35.66c.15.23.32.49.5.79a12.5,12.5,0,0,1,.73,1.33,2.9,2.9,0,0,1,.27,1.2,2.27,2.27,0,0,1-.39,1.31,2.65,2.65,0,0,1-1.07.91,3.58,3.58,0,0,1-1.59.33,4.16,4.16,0,0,1-1.23-.17,2.09,2.09,0,0,1-1-.57A1.54,1.54,0,0,1,90.25,29a1.28,1.28,0,0,1,.21-.71A.72.72,0,0,1,91.1,28a.69.69,0,0,1,.64.35,1.55,1.55,0,0,1,.22.86,2.41,2.41,0,0,1-.09.67C91.81,30.07,91.75,30.24,91.71,30.37Z"/><path class="cls-1" d="M100.83,19.68c.39,0,.76-.08,1.12-.14a7.6,7.6,0,0,0,1-.26L99.38,32c-.16.53-.11.88.13,1.06a2.08,2.08,0,0,0,1.18.26l-.1.35-1.06,0c-.46,0-.93,0-1.43,0l-1.24,0-.93,0,.1-.35a1.31,1.31,0,0,0,.86-.22,1.61,1.61,0,0,0,.43-.8Zm-3.29,5.1c.42-.42.81-.85,1.17-1.27A11,11,0,0,0,99.76,22a16.36,16.36,0,0,0,1-2.19l0,.26a10.13,10.13,0,0,1-.82,2A9.75,9.75,0,0,1,99,23.65c-.39.46-.8.91-1.24,1.34Zm6-2.17a1.18,1.18,0,0,0-.8.48,6.87,6.87,0,0,0-.89,1.31,17.6,17.6,0,0,0-.83,1.88,20.71,20.71,0,0,0-.67,2.19l.31-1.72a18.7,18.7,0,0,1,1.16-2.83A5.35,5.35,0,0,1,103,22.34a2.06,2.06,0,0,1,1.31-.49,1.74,1.74,0,0,1,1.44.62,3,3,0,0,1,.5,1.86A7.09,7.09,0,0,1,106,26a10.14,10.14,0,0,1-.63,1.74,7.41,7.41,0,0,1-1,1.58,4.73,4.73,0,0,1-1.36,1.14,3.56,3.56,0,0,1-1.72.42,1.82,1.82,0,0,1-.94-.23,1.4,1.4,0,0,1-.61-.64l.13-.29a1.41,1.41,0,0,0,.43.55.89.89,0,0,0,.54.17,1.58,1.58,0,0,0,1-.41,4.17,4.17,0,0,0,.89-1.09,9.85,9.85,0,0,0,.72-1.53,11.73,11.73,0,0,0,.49-1.73,8.09,8.09,0,0,0,.17-1.64,2.58,2.58,0,0,0-.16-1.1A.52.52,0,0,0,103.53,22.61Z"/><path class="cls-1" d="M108.93,29.21a1.16,1.16,0,0,0-.05.67.3.3,0,0,0,.32.23.76.76,0,0,0,.5-.29,3.39,3.39,0,0,0,.59-1.14l.27-.74h.31l-.41,1.21a3,3,0,0,1-.58,1,2,2,0,0,1-.75.53,2.46,2.46,0,0,1-.81.14,1.58,1.58,0,0,1-.84-.19,1.08,1.08,0,0,1-.44-.55,2.24,2.24,0,0,1-.08-.8,4.24,4.24,0,0,1,.2-1l2.63-8.74a1,1,0,0,0,0-.83c-.13-.18-.47-.27-1-.27l.12-.34a11,11,0,0,0,1.92-.19,9.79,9.79,0,0,0,1.62-.49Z"/><path class="cls-1" d="M114.32,30.09a1.09,1.09,0,0,0,.67-.35,4.43,4.43,0,0,0,.78-1,9.61,9.61,0,0,0,.76-1.54,12.39,12.39,0,0,0,.63-2L116.82,27a10.45,10.45,0,0,1-1,2.25,3.81,3.81,0,0,1-1.13,1.21,2.3,2.3,0,0,1-1.22.36,1.57,1.57,0,0,1-1.32-.55,2.33,2.33,0,0,1-.43-1.48A6.35,6.35,0,0,1,112,27a9.69,9.69,0,0,1,.79-1.87,9,9,0,0,1,1.15-1.65,6.25,6.25,0,0,1,1.37-1.19,2.75,2.75,0,0,1,1.46-.44.94.94,0,0,1,.86.47,2.09,2.09,0,0,1,.15,1.43l-.18.1a1.89,1.89,0,0,0-.06-1.09.59.59,0,0,0-.57-.4,1.18,1.18,0,0,0-.8.4,4.63,4.63,0,0,0-.84,1.07,9.59,9.59,0,0,0-.75,1.54,10.88,10.88,0,0,0-.54,1.79,8.16,8.16,0,0,0-.2,1.81,2.27,2.27,0,0,0,.12.87A.41.41,0,0,0,114.32,30.09Zm3.72-8c.4,0,.77,0,1.12-.07a7.73,7.73,0,0,0,1-.16L118,29.2a2,2,0,0,0-.1.4.75.75,0,0,0,0,.35.27.27,0,0,0,.27.14.79.79,0,0,0,.55-.28,3.41,3.41,0,0,0,.58-1.14l.25-.75h.31l-.41,1.21a3,3,0,0,1-.58,1.05,2.09,2.09,0,0,1-.74.53,2.37,2.37,0,0,1-.77.14,1.26,1.26,0,0,1-1.13-.49,1.45,1.45,0,0,1-.16-.9,6.6,6.6,0,0,1,.21-1.14Z"/><path class="cls-1" d="M123.11,30.62h-2l2-7.14c0-.15.07-.29.1-.43a.59.59,0,0,0,0-.33c0-.09-.13-.13-.29-.13a.72.72,0,0,0-.57.31,4,4,0,0,0-.56,1.11l-.28.78h-.31l.43-1.24a2.6,2.6,0,0,1,.89-1.34,2.17,2.17,0,0,1,1.21-.36,1.41,1.41,0,0,1,.84.21.93.93,0,0,1,.37.56,1.81,1.81,0,0,1,0,.74,7,7,0,0,1-.14.8Zm.61-3a24.39,24.39,0,0,1,1.18-2.82A10.07,10.07,0,0,1,126,23a3.22,3.22,0,0,1,1.09-.92,2.7,2.7,0,0,1,1.18-.26,1.46,1.46,0,0,1,1.13.35,1.32,1.32,0,0,1,.32.93,4,4,0,0,1-.23,1.22l-1.62,4.86a1.24,1.24,0,0,0-.08.67.3.3,0,0,0,.33.23.78.78,0,0,0,.52-.28,3.55,3.55,0,0,0,.59-1.15l.26-.74h.32l-.41,1.21a2.78,2.78,0,0,1-.59,1.06,2,2,0,0,1-.76.5,2.3,2.3,0,0,1-.81.14,1.64,1.64,0,0,1-.73-.14,1,1,0,0,1-.48-.39,1.29,1.29,0,0,1-.18-.81,4.58,4.58,0,0,1,.27-1.19l1.5-4.55a5.36,5.36,0,0,0,.14-.54,1,1,0,0,0,0-.47c0-.12-.16-.19-.35-.19a1.18,1.18,0,0,0-.76.39,5.59,5.59,0,0,0-.86,1.09,14.7,14.7,0,0,0-.9,1.62c-.29.62-.58,1.29-.85,2s-.51,1.47-.72,2.25Z"/><path class="cls-1" d="M133.06,29.21a.76.76,0,0,0,0,.68.57.57,0,0,0,.47.22,1.05,1.05,0,0,0,.71-.33,3,3,0,0,0,.65-1.16l.25-.68h.32l-.34,1a2.9,2.9,0,0,1-1,1.48,2.38,2.38,0,0,1-1.45.44,1.72,1.72,0,0,1-1.14-.33,1.36,1.36,0,0,1-.46-.9,3.23,3.23,0,0,1,.14-1.3l2.5-8.73c.4,0,.77,0,1.12-.06a7.41,7.41,0,0,0,1-.17Zm4-7.13,0,.33h-5.55l.08-.33Z"/></g></g></svg>