<svg xmlns="http://www.w3.org/2000/svg" viewBox="0 0 184.13 87.44"><defs><style>.cls-1{fill:#fff;}</style></defs><g id="Layer_2" data-name="Layer 2"><g id="Layer_1-2" data-name="Layer 1"><path class="cls-1" d="M0,36.65V2.82H11.12L20.56,28.3h.25L30,2.82H40.65V36.65h-7l.46-26.35h-.57L23.27,36.65H17.12L7,10.3H6.46l.46,26.35Z"/><path class="cls-1" d="M54,37.37a8.57,8.57,0,0,1-4-.9,6.47,6.47,0,0,1-2.72-2.59,8.29,8.29,0,0,1-1-4.2A7.41,7.41,0,0,1,47.13,26a6.49,6.49,0,0,1,2.49-2.41A16.41,16.41,0,0,1,53.67,22,53.61,53.61,0,0,1,59.16,21c1.09-.17,2-.34,2.69-.49a2.94,2.94,0,0,0,1.56-.77,2.19,2.19,0,0,0,.51-1.56,3.35,3.35,0,0,0-1-2.46,4.4,4.4,0,0,0-3.23-1,7.19,7.19,0,0,0-2.74.51,5.83,5.83,0,0,0-2.16,1.54,6.27,6.27,0,0,0-1.3,2.62l-6.51-2a11.21,11.21,0,0,1,1.76-3.64,10.49,10.49,0,0,1,2.8-2.59,12.46,12.46,0,0,1,3.74-1.57A19.3,19.3,0,0,1,59.82,9a14.2,14.2,0,0,1,6.43,1.26A8,8,0,0,1,70,14.17,16.18,16.18,0,0,1,71.2,21v4.61c0,1.2,0,2.41.08,3.64s.12,2.47.2,3.72.18,2.48.29,3.71H65.26c-.14-.85-.27-1.83-.39-2.95s-.21-2.23-.28-3.35h-.92a12,12,0,0,1-2.05,3.53,9.94,9.94,0,0,1-3.26,2.54A9.79,9.79,0,0,1,54,37.37ZM57.1,32a5.85,5.85,0,0,0,2-.36,8.79,8.79,0,0,0,2-1,8.26,8.26,0,0,0,1.74-1.62,8.9,8.9,0,0,0,1.31-2.2L64,22.56l1.18.25A7.06,7.06,0,0,1,63,23.86a16.46,16.46,0,0,1-2.54.59c-.87.14-1.73.29-2.59.46a12.83,12.83,0,0,0-2.28.67A4.15,4.15,0,0,0,54,26.68a2.88,2.88,0,0,0-.59,1.92,3.25,3.25,0,0,0,1,2.52A3.84,3.84,0,0,0,57.1,32Z"/><path class="cls-1" d="M77.66,36.65V9.74h6l0,8h1a15.72,15.72,0,0,1,1.9-4.87A8,8,0,0,1,89.68,10a9.5,9.5,0,0,1,4.44-1,8.3,8.3,0,0,1,7.09,3.28q2.45,3.29,2.44,10.31v14H96.22V23.43c0-2.87-.42-5-1.26-6.28a4.08,4.08,0,0,0-3.66-2,4.89,4.89,0,0,0-3.44,1.28,7.93,7.93,0,0,0-2.07,3.36A15.55,15.55,0,0,0,85,24.45v12.2Z"/><path class="cls-1" d="M119.13,37.37a8.3,8.3,0,0,1-7.1-3.2q-2.39-3.21-2.38-9.77V9.74H117V23.48a11.44,11.44,0,0,0,1.18,5.87,3.92,3.92,0,0,0,3.59,1.92,4.43,4.43,0,0,0,2.51-.72,6,6,0,0,0,1.84-2,9.9,9.9,0,0,0,1.16-3,19.88,19.88,0,0,0,.43-3.74v-12h7.38V36.65h-5.94l-.05-8.4h-.93a20.15,20.15,0,0,1-1.92,5.2,7.39,7.39,0,0,1-2.92,3A8.87,8.87,0,0,1,119.13,37.37Z"/><path class="cls-1" d="M148.2,37.37a8.57,8.57,0,0,1-4-.9,6.47,6.47,0,0,1-2.72-2.59,8.29,8.29,0,0,1-1-4.2,7.41,7.41,0,0,1,.84-3.69,6.49,6.49,0,0,1,2.49-2.41,16.41,16.41,0,0,1,4-1.54A53.38,53.38,0,0,1,153.37,21c1.1-.17,2-.34,2.69-.49a3,3,0,0,0,1.57-.77,2.19,2.19,0,0,0,.51-1.56,3.35,3.35,0,0,0-1-2.46,4.4,4.4,0,0,0-3.23-1,7.24,7.24,0,0,0-2.75.51A5.87,5.87,0,0,0,149,16.71a6.4,6.4,0,0,0-1.31,2.62l-6.51-2a11.23,11.23,0,0,1,1.77-3.64,10.49,10.49,0,0,1,2.8-2.59,12.46,12.46,0,0,1,3.74-1.57A19.3,19.3,0,0,1,154,9a14.2,14.2,0,0,1,6.43,1.26,8,8,0,0,1,3.72,3.89,16.18,16.18,0,0,1,1.23,6.8v4.61c0,1.2,0,2.41.08,3.64s.12,2.47.2,3.72.18,2.48.28,3.71h-6.51c-.13-.85-.26-1.83-.38-2.95s-.21-2.23-.28-3.35h-.93a11.57,11.57,0,0,1-2,3.53,9.65,9.65,0,0,1-7.63,3.49ZM151.32,32a5.85,5.85,0,0,0,2-.36,9,9,0,0,0,1.95-1A8.26,8.26,0,0,0,157,29.06a8.58,8.58,0,0,0,1.3-2.2l-.1-4.3,1.18.25a7.06,7.06,0,0,1-2.15,1.05,16.46,16.46,0,0,1-2.54.59c-.87.14-1.73.29-2.59.46a12.83,12.83,0,0,0-2.28.67,4,4,0,0,0-1.59,1.1,2.88,2.88,0,0,0-.59,1.92,3.21,3.21,0,0,0,1,2.52A3.84,3.84,0,0,0,151.32,32Z"/><path class="cls-1" d="M171.88,36.65V0h7.28V36.65Z"/><path class="cls-1" d="M0,78.06V44.22H7.38V78.06Zm5.18-9.54V62.73h7.74a8.62,8.62,0,0,0,5.53-1.51q1.85-1.52,1.85-5a6.1,6.1,0,0,0-1.72-4.69q-1.71-1.62-5.3-1.62H5.18V44.22h8.3A21.23,21.23,0,0,1,19.4,45a12.78,12.78,0,0,1,4.51,2.28,9.72,9.72,0,0,1,2.85,3.8,13.52,13.52,0,0,1,1,5.35,11.75,11.75,0,0,1-1.79,6.64,11,11,0,0,1-5.31,4.08,24,24,0,0,1-8.74,1.38Z"/><path class="cls-1" d="M45.11,78.77a17.48,17.48,0,0,1-5.92-.92,11.82,11.82,0,0,1-4.38-2.67,11.44,11.44,0,0,1-2.75-4.3,16.67,16.67,0,0,1-.94-5.79A18.39,18.39,0,0,1,32,59.22a13.39,13.39,0,0,1,2.64-4.67,11.84,11.84,0,0,1,4.26-3,14.26,14.26,0,0,1,5.69-1.07,14.28,14.28,0,0,1,5.48,1,10.1,10.1,0,0,1,4,3,12.78,12.78,0,0,1,2.35,4.9A21.68,21.68,0,0,1,57,66l-21.12.2v-4L52.75,62,50.13,64a8.73,8.73,0,0,0-.36-4.46A5.11,5.11,0,0,0,47.7,57a5.69,5.69,0,0,0-3-.82,5.9,5.9,0,0,0-3.43,1,6.63,6.63,0,0,0-2.31,3,12.3,12.3,0,0,0-.82,4.74c0,2.91.64,5,1.92,6.41a6.59,6.59,0,0,0,5,2A7,7,0,0,0,47.55,73a5,5,0,0,0,1.64-1,5.3,5.3,0,0,0,1-1.39,10.68,10.68,0,0,0,.64-1.54l6.41,1.39a12.47,12.47,0,0,1-1.36,3.41,8.81,8.81,0,0,1-2.38,2.61A10.74,10.74,0,0,1,50,78.18,17.47,17.47,0,0,1,45.11,78.77Z"/><path class="cls-1" d="M62.39,78.06V51.14h6.1l.05,9.18h1a18.54,18.54,0,0,1,1.41-5.59,6.94,6.94,0,0,1,2.79-3.18,8.94,8.94,0,0,1,4.46-1l1,0a8.64,8.64,0,0,1,1.26.18l-.31,7.85a6.68,6.68,0,0,0-1.69-.52,10.38,10.38,0,0,0-1.64-.15,6.29,6.29,0,0,0-3.44.92A6.92,6.92,0,0,0,71,61.47a12.18,12.18,0,0,0-1.2,4.18V78.06Z"/><path class="cls-1" d="M95.19,87.44a30.93,30.93,0,0,1-7.25-.7,8.73,8.73,0,0,1-4.18-2,4.51,4.51,0,0,1-1.33-3.33,4.68,4.68,0,0,1,1.87-3.85,10.11,10.11,0,0,1,5.51-1.79v-1a11.8,11.8,0,0,1-4.25-.59,2.08,2.08,0,0,1-1.49-2.07,3.25,3.25,0,0,1,1.46-2.57,12.07,12.07,0,0,1,4.84-1.79v-1a7.33,7.33,0,0,1-5-2.06,6.51,6.51,0,0,1-1.79-4.76A7.79,7.79,0,0,1,85,55.27,9.75,9.75,0,0,1,89.32,52a18,18,0,0,1,7-1.2H110v5.63l-8.46-1.18v1.18a10,10,0,0,1,4.74,1.64,4,4,0,0,1,1.46,3.29,5.46,5.46,0,0,1-1.38,3.69,9.11,9.11,0,0,1-3.93,2.48,18.19,18.19,0,0,1-6.07.9c-.44,0-.92,0-1.44,0s-1.36-.12-2.56-.26a13.6,13.6,0,0,0-1.51,1.26,1.5,1.5,0,0,0-.54,1,.72.72,0,0,0,.39.61,2.54,2.54,0,0,0,1,.36,8.08,8.08,0,0,0,1.31.1h7.69c.68,0,1.57.05,2.66.13a10.85,10.85,0,0,1,3.28.8,6.52,6.52,0,0,1,2.77,2.12,6.75,6.75,0,0,1,1.13,4.18,7.31,7.31,0,0,1-1.67,4.92,9.81,9.81,0,0,1-5.07,2.87A33.36,33.36,0,0,1,95.19,87.44Zm.82-5.9a27.63,27.63,0,0,0,4.87-.33,4.82,4.82,0,0,0,2.49-1.08,2.9,2.9,0,0,0,.31-3.46,2.38,2.38,0,0,0-1.13-.79,6.19,6.19,0,0,0-1.39-.31,11.45,11.45,0,0,0-1.2-.08H93.5a4.94,4.94,0,0,0-3.1,1.16,3,3,0,0,0-1,2.17,2,2,0,0,0,.72,1.7,4.75,4.75,0,0,0,2.18.79A24.54,24.54,0,0,0,96,81.54Zm-.1-16.92a5.09,5.09,0,0,0,3.69-1.2,4.2,4.2,0,0,0,1.23-3.15,4.78,4.78,0,0,0-1.25-3.39,4.84,4.84,0,0,0-3.67-1.33,5.06,5.06,0,0,0-3.69,1.31,4.49,4.49,0,0,0-1.33,3.36,4.36,4.36,0,0,0,.59,2.28,4,4,0,0,0,1.71,1.56A6,6,0,0,0,95.91,64.62Z"/><path class="cls-1" d="M127,78.77a15.2,15.2,0,0,1-7.13-1.61A11.6,11.6,0,0,1,115,72.39a16.11,16.11,0,0,1-1.74-7.87,15.73,15.73,0,0,1,1.77-7.84A11.41,11.41,0,0,1,119.93,52a15.43,15.43,0,0,1,7-1.56A15.62,15.62,0,0,1,134.13,52,11.55,11.55,0,0,1,139,56.76a16,16,0,0,1,1.76,7.86,15.58,15.58,0,0,1-1.82,7.92A11.4,11.4,0,0,1,134,77.23,15.54,15.54,0,0,1,127,78.77Zm.25-5.48a5.9,5.9,0,0,0,3.36-.92,5.64,5.64,0,0,0,2-2.8,13.18,13.18,0,0,0,.69-4.54,13.82,13.82,0,0,0-.74-4.79,6.46,6.46,0,0,0-2.18-3,6,6,0,0,0-3.64-1,5.94,5.94,0,0,0-3.28.89,5.54,5.54,0,0,0-2.1,2.77,12.86,12.86,0,0,0-.72,4.59c0,2.9.58,5.11,1.74,6.61A5.74,5.74,0,0,0,127.23,73.29Z"/><path class="cls-1" d="M146,78.06V41.4h7.28V78.06Z"/><path class="cls-1" d="M166.34,78.77a8.75,8.75,0,0,1-4-.89,6.51,6.51,0,0,1-2.71-2.59,8.33,8.33,0,0,1-1-4.21,7.4,7.4,0,0,1,.85-3.69A6.36,6.36,0,0,1,162,65a16.83,16.83,0,0,1,4-1.53q2.4-.62,5.48-1.08c1.09-.17,2-.33,2.69-.49a2.94,2.94,0,0,0,1.56-.77,2.15,2.15,0,0,0,.52-1.56,3.32,3.32,0,0,0-1-2.46,4.42,4.42,0,0,0-3.23-1,7.23,7.23,0,0,0-2.74.52,5.58,5.58,0,0,0-2.15,1.53,6.28,6.28,0,0,0-1.31,2.62l-6.51-2a11.33,11.33,0,0,1,1.77-3.64,10.6,10.6,0,0,1,2.79-2.59,12.3,12.3,0,0,1,3.74-1.56,19.44,19.44,0,0,1,4.57-.51,14.24,14.24,0,0,1,6.43,1.25,8,8,0,0,1,3.72,3.9,16.13,16.13,0,0,1,1.23,6.79V67c0,1.2,0,2.41.07,3.64s.12,2.47.21,3.72.18,2.48.28,3.72h-6.51c-.14-.86-.26-1.84-.38-3s-.22-2.23-.29-3.36H176A11.83,11.83,0,0,1,174,75.29a9.88,9.88,0,0,1-3.25,2.53A9.73,9.73,0,0,1,166.34,78.77Zm3.13-5.33a5.75,5.75,0,0,0,2-.36,8.58,8.58,0,0,0,1.95-1,8,8,0,0,0,1.74-1.61,8.84,8.84,0,0,0,1.31-2.21l-.1-4.3,1.18.25a7.57,7.57,0,0,1-2.15,1.06,18,18,0,0,1-2.54.58c-.87.14-1.74.3-2.59.47A12.38,12.38,0,0,0,168,67a4.1,4.1,0,0,0-1.59,1.1,2.87,2.87,0,0,0-.59,1.93,3.22,3.22,0,0,0,1,2.51A3.88,3.88,0,0,0,169.47,73.44Z"/></g></g></svg>