<svg xmlns="http://www.w3.org/2000/svg" viewBox="0 0 52.32 52.32"><defs><style>.cls-1{fill:#f4c21a;}.cls-2{fill:#fff;}</style></defs><g id="Layer_2" data-name="Layer 2"><g id="Layer_1-2" data-name="Layer 1"><circle cx="26.16" cy="26.16" r="22.17"/><path class="cls-1" d="M26.16,8A18.17,18.17,0,1,1,8,26.16,18.17,18.17,0,0,1,26.16,8m0-8A26.16,26.16,0,1,0,52.32,26.16,26.2,26.2,0,0,0,26.16,0Z"/><path class="cls-2" d="M21,33a1,1,0,0,1-.71-.29,1,1,0,0,1,0-1.42l8.3-8.3H22a1,1,0,0,1,0-2h9a1.11,1.11,0,0,1,.37.07,1,1,0,0,1,.3.2h0l0,.05a.77.77,0,0,1,.19.29A1,1,0,0,1,32,22h0v9a1,1,0,0,1-2,0V24.38l-8.3,8.3A1,1,0,0,1,21,33Z"/></g></g></svg>