<svg xmlns="http://www.w3.org/2000/svg" viewBox="0 0 300 250"><defs><style>.cls-1{fill:#fff;}.cls-2{fill:#010101;}</style></defs><g id="Layer_2" data-name="Layer 2"><g id="Layer_1-2" data-name="Layer 1"><rect class="cls-1" width="300" height="250"/><rect class="cls-2" y="217.15" width="300" height="32.85"/><path class="cls-1" d="M25.86,240.1v-6.54H24.14V232h1.72v-1.23c0-3.4,3.38-4.4,5.72-3.38L31.23,229c-1.62-.72-3.56-.14-3.56,1.84V232h3.09v1.55H27.69l0,6.54Z"/><path class="cls-1" d="M33,228c0-.52.51-.86,1.1-.86A.89.89,0,1,1,33,228Zm.16,12.12v-9.91H35v9.91Z"/><path class="cls-1" d="M36.63,240.1V227.2h1.83v12.9Z"/><path class="cls-1" d="M39.91,235.18a5.19,5.19,0,0,1,10.36-.33,4.82,4.82,0,0,1,0,.76H41.65a3.57,3.57,0,0,0,6.59,1.46l1.41.73a5.26,5.26,0,0,1-9.74-2.62Zm8.62-.67a3.39,3.39,0,0,0-3.4-3,3.34,3.34,0,0,0-3.34,3Z"/><path class="cls-1" d="M51.74,235.2c0-3.27,2.13-5.22,4.91-5.2a4.43,4.43,0,0,1,4.18,2.66V227.2h1.85v12.9H60.85v-2.52a4.42,4.42,0,0,1-4.11,2.72A5,5,0,0,1,51.74,235.2Zm9,0a3.51,3.51,0,0,0-3.62-3.66,3.4,3.4,0,0,0-3.57,3.66,3.53,3.53,0,0,0,3.57,3.54A3.57,3.57,0,0,0,60.77,235.2Z"/><path class="cls-1" d="M64.13,235.2a5.07,5.07,0,0,1,5.4-5.2c3.09,0,5.45,2,5.43,5.2a5.13,5.13,0,0,1-5.43,5.1A5.19,5.19,0,0,1,64.13,235.2Zm9,0a3.52,3.52,0,0,0-3.59-3.66A3.47,3.47,0,0,0,66,235.2a3.58,3.58,0,0,0,7.15,0Z"/><path class="cls-1" d="M76.41,240.1v-9.91h1.84V233a4,4,0,0,1,4.82-2.56l-.9,1.52a3.26,3.26,0,0,0-3.85,3.27v4.9Z"/><path class="cls-1" d="M84.52,240.1v-9.91h1.84v2.47A3.64,3.64,0,0,1,89.78,230a3.69,3.69,0,0,1,3.75,2.73A3.85,3.85,0,0,1,97.25,230c2.54,0,4.2,1.74,4.2,4.77v5.33H99.61v-5.31c0-2-1.07-3.27-2.87-3.25S94,232.83,94,234.81v5.29H92.13v-5.31c0-2-1.1-3.29-2.88-3.25a3.07,3.07,0,0,0-2.81,3.23l0,5.33Z"/><path class="cls-1" d="M102.9,235.2c0-3.27,2.13-5.22,4.9-5.2a4.43,4.43,0,0,1,4.19,2.66v-2.47h1.85v9.91H112v-2.52a4.42,4.42,0,0,1-4.11,2.72A5,5,0,0,1,102.9,235.2Zm9,0a3.53,3.53,0,0,0-3.62-3.66,3.41,3.41,0,0,0-3.58,3.66,3.53,3.53,0,0,0,3.58,3.54A3.57,3.57,0,0,0,111.93,235.2Z"/><path class="cls-1" d="M115.29,240.1v-9.91h1.84v2.47a4.44,4.44,0,0,1,4.2-2.66c2.78,0,4.91,1.93,4.91,5.2v4.9h-1.86l0-4.9a3.41,3.41,0,0,0-3.6-3.66,3.5,3.5,0,0,0-3.59,3.66v4.9Z"/><path class="cls-1" d="M134.25,239.81c-2.34,1-5.69,0-5.69-3.38v-4.69h-1.62v-1.62c1.86,0,1.62-1.12,1.62-2.92h1.84l0,2.92h3.09v1.62H130.4v4.49c0,2,1.86,2.72,3.5,2Z"/><path class="cls-1" d="M134.7,235.2c0-3.27,2.13-5.22,4.91-5.2a4.41,4.41,0,0,1,4.18,2.66v-2.47h1.86v9.91h-1.84v-2.52a4.41,4.41,0,0,1-4.1,2.72A5,5,0,0,1,134.7,235.2Zm9,0a3.53,3.53,0,0,0-3.61-3.66,3.4,3.4,0,0,0-3.58,3.66,3.53,3.53,0,0,0,3.58,3.54A3.57,3.57,0,0,0,143.73,235.2Z"/><path class="cls-1" d="M147.1,235.2a5,5,0,0,1,5.39-5.2,5.3,5.3,0,0,1,5,2.91l-1.71.65a3.58,3.58,0,0,0-3.26-2,3.61,3.61,0,0,0,0,7.21,3.63,3.63,0,0,0,3.31-2.09l1.7.69a5.41,5.41,0,0,1-5,3A5.17,5.17,0,0,1,147.1,235.2Z"/><path class="cls-1" d="M158.92,235.2c0-3.21,2.35-5.2,5.4-5.2a5.28,5.28,0,0,1,5,2.91l-1.7.65a3.58,3.58,0,0,0-3.26-2,3.61,3.61,0,0,0,0,7.21,3.61,3.61,0,0,0,3.3-2.09l1.7.69a5.38,5.38,0,0,1-5,3A5.18,5.18,0,0,1,158.92,235.2Z"/><path class="cls-1" d="M170.75,235.2a5.07,5.07,0,0,1,5.4-5.2c3.08,0,5.45,2,5.43,5.2a5.13,5.13,0,0,1-5.43,5.1A5.18,5.18,0,0,1,170.75,235.2Zm9,0a3.52,3.52,0,0,0-3.59-3.66,3.47,3.47,0,0,0-3.56,3.66,3.58,3.58,0,0,0,7.15,0Z"/><path class="cls-1" d="M183,235.53v-5.34h1.83v5.32c0,2,1.12,3.26,3,3.24S191,237.17,191,235v-4.83h1.92v9.91H191v-2.62a3.68,3.68,0,0,1-3.65,2.82C184.75,240.32,183,238.56,183,235.53Z"/><path class="cls-1" d="M194.33,240.1v-9.91h1.83v2.47a4.46,4.46,0,0,1,4.21-2.66c2.77,0,4.9,1.93,4.9,5.2v4.9h-1.85v-4.9a3.41,3.41,0,0,0-3.59-3.66,3.51,3.51,0,0,0-3.6,3.66v4.9Z"/><path class="cls-1" d="M213.29,239.81c-2.35,1-5.69,0-5.69-3.38v-4.69H206v-1.62c1.85,0,1.62-1.12,1.62-2.92h1.84l0,2.92h3.08v1.62h-3.1v4.49c0,2,1.85,2.72,3.49,2Z"/><path class="cls-1" d="M214.66,236.82h1.7c.09,1.52,1.17,2,2.44,2.09,1.06.06,2.11-.53,2.15-1.46s-.66-1.41-2.27-1.67c-2.4-.35-4-.91-4-2.85,0-1.76,1.54-2.93,3.81-2.93s4.08,1.15,4.22,3.38H221a2.23,2.23,0,0,0-2.46-2c-1.24,0-2.1.68-2.08,1.6s.71,1.37,2.35,1.66c2.7.47,3.93,1,3.91,2.89s-1.68,2.82-3.93,2.76S214.68,239,214.66,236.82Z"/><path class="cls-1" d="M224.2,239a1.1,1.1,0,1,1,1.11,1.11A1.09,1.09,0,0,1,224.2,239Z"/><path class="cls-1" d="M227.85,235.2c0-3.21,2.35-5.2,5.4-5.2a5.29,5.29,0,0,1,5,2.91l-1.7.65a3.6,3.6,0,0,0-3.26-2,3.61,3.61,0,0,0,0,7.21,3.63,3.63,0,0,0,3.3-2.09l1.7.69a5.39,5.39,0,0,1-5,3A5.17,5.17,0,0,1,227.85,235.2Z"/><path class="cls-1" d="M239.68,235.2a5.06,5.06,0,0,1,5.39-5.2c3.09,0,5.46,2,5.44,5.2a5.42,5.42,0,0,1-10.83,0Zm9,0a3.52,3.52,0,0,0-3.6-3.66,3.46,3.46,0,0,0-3.55,3.66,3.58,3.58,0,0,0,7.15,0Z"/><path class="cls-1" d="M252,239a1.1,1.1,0,1,1,1.11,1.11A1.09,1.09,0,0,1,252,239Z"/><path class="cls-1" d="M255.61,235.53v-5.34h1.84v5.32c0,2,1.11,3.26,3,3.24s3.09-1.58,3.09-3.73v-4.83h1.91v9.91h-1.84v-2.62A3.68,3.68,0,0,1,260,240.3C257.33,240.32,255.61,238.56,255.61,235.53Z"/><path class="cls-1" d="M266.91,240.1V227.2h1.86v7.27l4.36-4.06h2l-4,4,4.75,5.74h-2l-4-4.75-1.09,1v3.73Z"/></g></g></svg>