<svg xmlns="http://www.w3.org/2000/svg" viewBox="0 0 236.46 69.6"><defs><style>.cls-1{fill:#38ad49;}.cls-2{fill:#131c42;}.cls-3{fill:#fff;}</style></defs><g id="Layer_2" data-name="Layer 2"><g id="Layer_1-2" data-name="Layer 1"><rect class="cls-1" x="10.56" y="46.08" width="58" height="23.53" rx="4"/><path class="cls-2" d="M6.76,8.55v1.93H0V8.55Z"/><path class="cls-2" d="M14.57,16H12.13L17.62.71h2.65L25.76,16H23.32L19,3.48h-.12ZM15,10H22.9v1.94H15Z"/><path class="cls-2" d="M35,4.53,30.89,16H28.51L24.36,4.53h2.39l2.89,8.8h.12l2.89-8.8Z"/><path class="cls-2" d="M40.46,16.19a5.25,5.25,0,0,1-2.81-.73,5,5,0,0,1-1.86-2.07,6.83,6.83,0,0,1-.66-3.09,7,7,0,0,1,.66-3.12,5,5,0,0,1,1.86-2.07,5.75,5.75,0,0,1,5.61,0,5.14,5.14,0,0,1,1.87,2.07,7,7,0,0,1,.66,3.12,6.83,6.83,0,0,1-.66,3.09,5.07,5.07,0,0,1-1.87,2.07A5.24,5.24,0,0,1,40.46,16.19Zm0-1.87a2.64,2.64,0,0,0,1.73-.55,3.17,3.17,0,0,0,1-1.46,5.94,5.94,0,0,0,.33-2,5.89,5.89,0,0,0-.33-2,3.23,3.23,0,0,0-1-1.48,2.59,2.59,0,0,0-1.73-.56,2.63,2.63,0,0,0-1.73.56,3.23,3.23,0,0,0-1,1.48,5.89,5.89,0,0,0-.33,2,5.94,5.94,0,0,0,.33,2,3.17,3.17,0,0,0,1,1.46A2.68,2.68,0,0,0,40.46,14.32Z"/><path class="cls-2" d="M48.3,2.76a1.37,1.37,0,0,1-1-.39,1.23,1.23,0,0,1-.42-.93A1.23,1.23,0,0,1,47.31.5a1.43,1.43,0,0,1,2,0,1.23,1.23,0,0,1,.42.94,1.23,1.23,0,0,1-.42.93A1.37,1.37,0,0,1,48.3,2.76ZM47.18,16V4.53H49.4V16Z"/><path class="cls-2" d="M55.59,16.19a4.34,4.34,0,0,1-2.47-.72,4.75,4.75,0,0,1-1.7-2,7.47,7.47,0,0,1-.61-3.17,7.33,7.33,0,0,1,.62-3.18,4.65,4.65,0,0,1,1.71-2,4.4,4.4,0,0,1,2.46-.7,3.7,3.7,0,0,1,1.72.35,3.26,3.26,0,0,1,1,.82,7.14,7.14,0,0,1,.56.83H59V.71h2.22V16H59.08V14.18h-.19a5.13,5.13,0,0,1-.58.84,3.2,3.2,0,0,1-1,.81A3.47,3.47,0,0,1,55.59,16.19Zm.49-1.9a2.62,2.62,0,0,0,1.63-.51,3.2,3.2,0,0,0,1-1.42,6,6,0,0,0,.34-2.12,5.74,5.74,0,0,0-.34-2.08,3,3,0,0,0-1-1.39,2.62,2.62,0,0,0-1.64-.5,2.65,2.65,0,0,0-1.68.52,3.26,3.26,0,0,0-1,1.42,5.88,5.88,0,0,0-.34,2,5.83,5.83,0,0,0,.35,2.07,3.19,3.19,0,0,0,1,1.44A2.59,2.59,0,0,0,56.08,14.29Z"/><path class="cls-2" d="M70,.71V16H67.8V.71Z"/><path class="cls-2" d="M75.25,16.21a4.61,4.61,0,0,1-2-.4,3.21,3.21,0,0,1-1.39-1.18,3.39,3.39,0,0,1-.51-1.9,3,3,0,0,1,.37-1.59,2.74,2.74,0,0,1,1-1,4.88,4.88,0,0,1,1.41-.55,13.7,13.7,0,0,1,1.6-.29l1.66-.19a2.49,2.49,0,0,0,.93-.26.61.61,0,0,0,.29-.58v0a2.06,2.06,0,0,0-.54-1.52,2.28,2.28,0,0,0-1.63-.53,2.84,2.84,0,0,0-1.77.49,2.75,2.75,0,0,0-.89,1.1L71.74,7.3a4,4,0,0,1,1.09-1.69,4.48,4.48,0,0,1,1.66-.94,6.7,6.7,0,0,1,2-.29,7,7,0,0,1,1.46.16,4.28,4.28,0,0,1,1.44.58,3.23,3.23,0,0,1,1.1,1.21,4.2,4.2,0,0,1,.44,2V16H78.72V14.4h-.09a3.21,3.21,0,0,1-.64.85,3.39,3.39,0,0,1-1.11.69A4.45,4.45,0,0,1,75.25,16.21Zm.49-1.78a3.16,3.16,0,0,0,1.58-.37,2.55,2.55,0,0,0,1-1,2.41,2.41,0,0,0,.35-1.27V10.36a1,1,0,0,1-.46.22,4.66,4.66,0,0,1-.77.17l-.84.13-.68.09a5.52,5.52,0,0,0-1.18.28,2,2,0,0,0-.85.55,1.41,1.41,0,0,0-.32,1A1.41,1.41,0,0,0,74.18,14,2.71,2.71,0,0,0,75.74,14.43Z"/><path class="cls-2" d="M88.11,4.53V6.31H81.86V4.53ZM83.54,1.79h2.22V12.6a1.94,1.94,0,0,0,.2,1,.91.91,0,0,0,.5.43,1.81,1.81,0,0,0,.67.12,2.17,2.17,0,0,0,.47,0l.31-.06.41,1.84c-.13.05-.32.1-.55.16a4.47,4.47,0,0,1-.9.08,3.93,3.93,0,0,1-1.64-.31,2.86,2.86,0,0,1-1.22-1,2.93,2.93,0,0,1-.47-1.72Z"/><path class="cls-2" d="M94.28,16.19a5.6,5.6,0,0,1-2.9-.72,4.85,4.85,0,0,1-1.88-2.05,6.87,6.87,0,0,1-.66-3.1,7,7,0,0,1,.66-3.1,5,5,0,0,1,1.85-2.09,5.07,5.07,0,0,1,2.78-.75A5.41,5.41,0,0,1,96,4.7a4.52,4.52,0,0,1,1.63,1,4.67,4.67,0,0,1,1.14,1.78,7.4,7.4,0,0,1,.42,2.65v.78H90.1V9.25H97a3.27,3.27,0,0,0-.36-1.56,2.67,2.67,0,0,0-1-1.08,2.85,2.85,0,0,0-1.51-.39,2.93,2.93,0,0,0-1.63.45,3.09,3.09,0,0,0-1.07,1.2,3.39,3.39,0,0,0-.38,1.59v1.3a4.46,4.46,0,0,0,.4,2,2.93,2.93,0,0,0,1.14,1.22,3.39,3.39,0,0,0,1.71.42,3.51,3.51,0,0,0,1.15-.18,2.3,2.3,0,0,0,.9-.55,2.33,2.33,0,0,0,.58-.9l2.11.38a3.76,3.76,0,0,1-.91,1.63,4.39,4.39,0,0,1-1.63,1.08A6.17,6.17,0,0,1,94.28,16.19Z"/><path class="cls-2" d="M110.49,4.53V6.31H104V4.53ZM105.79,16V3.2a3.19,3.19,0,0,1,.47-1.78A3,3,0,0,1,107.51.35,4,4,0,0,1,109.19,0a5.4,5.4,0,0,1,1.15.11c.31.07.55.14.7.19l-.52,1.81-.4-.11a2.49,2.49,0,0,0-.59-.06,1.44,1.44,0,0,0-1.16.4A1.73,1.73,0,0,0,108,3.5V16Z"/><path class="cls-2" d="M112.81,2.76a1.37,1.37,0,0,1-1-.39,1.23,1.23,0,0,1-.42-.93,1.23,1.23,0,0,1,.42-.94,1.34,1.34,0,0,1,1-.4,1.38,1.38,0,0,1,1,.4,1.26,1.26,0,0,1,.41.94,1.25,1.25,0,0,1-.41.93A1.41,1.41,0,0,1,112.81,2.76ZM111.69,16V4.53h2.22V16Z"/><path class="cls-2" d="M118,.71V16h-2.22V.71Z"/><path class="cls-2" d="M121.07,2.76a1.37,1.37,0,0,1-1-.39,1.23,1.23,0,0,1-.42-.93,1.23,1.23,0,0,1,.42-.94,1.43,1.43,0,0,1,2,0,1.23,1.23,0,0,1,.42.94,1.23,1.23,0,0,1-.42.93A1.37,1.37,0,0,1,121.07,2.76ZM119.94,16V4.53h2.23V16Z"/><path class="cls-2" d="M126.3,9.17V16h-2.23V4.53h2.14V6.39h.14a3.32,3.32,0,0,1,1.24-1.46,3.81,3.81,0,0,1,2.13-.55,4.09,4.09,0,0,1,2.05.49,3.22,3.22,0,0,1,1.36,1.44,5.18,5.18,0,0,1,.49,2.38V16h-2.23V9a2.74,2.74,0,0,0-.65-2,2.28,2.28,0,0,0-1.78-.7,2.8,2.8,0,0,0-1.37.33,2.34,2.34,0,0,0-.94,1A3.25,3.25,0,0,0,126.3,9.17Z"/><path class="cls-2" d="M140.3,20.49a6.77,6.77,0,0,1-2.34-.36,4.61,4.61,0,0,1-1.6-.94,4.1,4.1,0,0,1-.92-1.29l1.91-.79a5,5,0,0,0,.54.69,2.72,2.72,0,0,0,.93.63,3.61,3.61,0,0,0,1.5.26,3.44,3.44,0,0,0,2.1-.61,2.27,2.27,0,0,0,.82-1.95V13.88h-.14a5.25,5.25,0,0,1-.58.81,3,3,0,0,1-1,.77,3.75,3.75,0,0,1-1.7.33,4.65,4.65,0,0,1-2.44-.64,4.41,4.41,0,0,1-1.71-1.88A6.74,6.74,0,0,1,135,10.2a7.13,7.13,0,0,1,.62-3.13,4.68,4.68,0,0,1,1.71-2,4.47,4.47,0,0,1,2.46-.69,3.7,3.7,0,0,1,1.72.35,3.36,3.36,0,0,1,1,.82,9,9,0,0,1,.57.83h.16V4.53h2.18V16.21A3.78,3.78,0,0,1,142.92,20,7,7,0,0,1,140.3,20.49Zm0-6.55a2.86,2.86,0,0,0,1.63-.45,2.81,2.81,0,0,0,1-1.29,5.39,5.39,0,0,0,.34-2,5.5,5.5,0,0,0-.34-2,3.06,3.06,0,0,0-1-1.38,2.68,2.68,0,0,0-1.64-.49,2.65,2.65,0,0,0-1.68.52,3.19,3.19,0,0,0-1,1.4,5.63,5.63,0,0,0-.33,2,5.18,5.18,0,0,0,.34,2,3,3,0,0,0,1,1.33A2.81,2.81,0,0,0,140.28,13.94Z"/><path class="cls-2" d="M151.82,20.25V4.53H154V6.38h.19a6.06,6.06,0,0,1,.56-.83,3.26,3.26,0,0,1,1-.82,3.63,3.63,0,0,1,1.71-.35,4.43,4.43,0,0,1,2.47.7,4.65,4.65,0,0,1,1.71,2,7.33,7.33,0,0,1,.62,3.18,7.47,7.47,0,0,1-.61,3.17,4.83,4.83,0,0,1-1.7,2,4.34,4.34,0,0,1-2.47.72,3.54,3.54,0,0,1-1.7-.36,3.2,3.2,0,0,1-1-.81,5.69,5.69,0,0,1-.57-.84H154v6.07Zm2.18-10a6,6,0,0,0,.35,2.12,3.2,3.2,0,0,0,1,1.42,2.6,2.6,0,0,0,1.63.51,2.55,2.55,0,0,0,1.66-.54,3.21,3.21,0,0,0,1-1.44,5.83,5.83,0,0,0,.35-2.07,5.88,5.88,0,0,0-.34-2,3.2,3.2,0,0,0-1-1.42,2.94,2.94,0,0,0-3.31,0,3.05,3.05,0,0,0-1,1.39A5.74,5.74,0,0,0,154,10.24Z"/><path class="cls-2" d="M168.6,16.19a5.61,5.61,0,0,1-2.91-.72,4.91,4.91,0,0,1-1.88-2.05,6.87,6.87,0,0,1-.66-3.1,7,7,0,0,1,.66-3.1,4.94,4.94,0,0,1,4.63-2.84,5.46,5.46,0,0,1,1.88.32,4.61,4.61,0,0,1,1.63,1,4.79,4.79,0,0,1,1.14,1.78,7.65,7.65,0,0,1,.41,2.65v.78h-9.09V9.25h6.91A3.27,3.27,0,0,0,171,7.69a2.61,2.61,0,0,0-1-1.08,2.84,2.84,0,0,0-1.5-.39,3,3,0,0,0-1.64.45,3.17,3.17,0,0,0-1.07,1.2,3.39,3.39,0,0,0-.38,1.59v1.3a4.32,4.32,0,0,0,.41,2,2.91,2.91,0,0,0,1.13,1.22,3.39,3.39,0,0,0,1.71.42,3.47,3.47,0,0,0,1.15-.18,2.3,2.3,0,0,0,.9-.55,2.22,2.22,0,0,0,.58-.9l2.11.38a3.85,3.85,0,0,1-.9,1.63,4.56,4.56,0,0,1-1.63,1.08A6.24,6.24,0,0,1,168.6,16.19Z"/><path class="cls-2" d="M177.12,9.17V16h-2.23V4.53H177V6.39h.14a3.26,3.26,0,0,1,1.24-1.46,3.79,3.79,0,0,1,2.13-.55,4.12,4.12,0,0,1,2.05.49A3.22,3.22,0,0,1,184,6.31a5.18,5.18,0,0,1,.49,2.38V16h-2.23V9a2.78,2.78,0,0,0-.65-2,2.28,2.28,0,0,0-1.78-.7,2.8,2.8,0,0,0-1.37.33,2.43,2.43,0,0,0-.95,1A3.25,3.25,0,0,0,177.12,9.17Z"/><path class="cls-2" d="M189.65,16.21a4.61,4.61,0,0,1-2-.4,3.21,3.21,0,0,1-1.39-1.18,3.39,3.39,0,0,1-.51-1.9,3,3,0,0,1,.37-1.59,2.67,2.67,0,0,1,1-1,4.88,4.88,0,0,1,1.41-.55,13.92,13.92,0,0,1,1.59-.29l1.67-.19a2.49,2.49,0,0,0,.93-.26.61.61,0,0,0,.29-.58v0a2,2,0,0,0-.55-1.52,2.24,2.24,0,0,0-1.62-.53,2.84,2.84,0,0,0-1.77.49,2.67,2.67,0,0,0-.89,1.1l-2.09-.47a4,4,0,0,1,1.09-1.69,4.48,4.48,0,0,1,1.66-.94,6.7,6.7,0,0,1,2-.29,6.84,6.84,0,0,1,1.45.16,4.25,4.25,0,0,1,1.45.58,3.23,3.23,0,0,1,1.1,1.21,4.2,4.2,0,0,1,.44,2V16h-2.18V14.4H193a3.06,3.06,0,0,1-.65.85,3.23,3.23,0,0,1-1.1.69A4.45,4.45,0,0,1,189.65,16.21Zm.49-1.78a3.16,3.16,0,0,0,1.58-.37,2.55,2.55,0,0,0,1-1,2.51,2.51,0,0,0,.35-1.27V10.36a1,1,0,0,1-.46.22,4.66,4.66,0,0,1-.77.17l-.84.13-.68.09a5.77,5.77,0,0,0-1.19.28,2,2,0,0,0-.84.55,1.41,1.41,0,0,0-.32,1,1.41,1.41,0,0,0,.61,1.25A2.71,2.71,0,0,0,190.14,14.43Z"/><path class="cls-2" d="M199.39.71V16h-2.22V.71Z"/><path class="cls-2" d="M206.64,4.53V6.31h-6.25V4.53Zm-4.58-2.74h2.23V12.6a2,2,0,0,0,.19,1A1,1,0,0,0,205,14a1.81,1.81,0,0,0,.67.12,2.17,2.17,0,0,0,.47,0l.31-.06.4,1.84a5.08,5.08,0,0,1-.55.16,4.37,4.37,0,0,1-.89.08,3.9,3.9,0,0,1-1.64-.31,2.89,2.89,0,0,1-1.23-1,3,3,0,0,1-.47-1.72Z"/><path class="cls-2" d="M209.13,2.76a1.41,1.41,0,0,1-1-.39,1.25,1.25,0,0,1-.41-.93,1.26,1.26,0,0,1,.41-.94,1.44,1.44,0,0,1,2,0,1.22,1.22,0,0,1,.41.94,1.22,1.22,0,0,1-.41.93A1.41,1.41,0,0,1,209.13,2.76ZM208,16V4.53h2.23V16Z"/><path class="cls-2" d="M217.06,16.19a5.61,5.61,0,0,1-2.91-.72,4.82,4.82,0,0,1-1.87-2.05,6.87,6.87,0,0,1-.66-3.1,7,7,0,0,1,.66-3.1,5,5,0,0,1,1.84-2.09,5.1,5.1,0,0,1,2.78-.75,5.46,5.46,0,0,1,1.88.32,4.61,4.61,0,0,1,1.63,1,4.79,4.79,0,0,1,1.14,1.78,7.42,7.42,0,0,1,.41,2.65v.78h-9.08V9.25h6.9a3.26,3.26,0,0,0-.35-1.56,2.7,2.7,0,0,0-1-1.08,2.82,2.82,0,0,0-1.5-.39,3,3,0,0,0-1.64.45,3.17,3.17,0,0,0-1.07,1.2,3.39,3.39,0,0,0-.38,1.59v1.3a4.32,4.32,0,0,0,.41,2,2.87,2.87,0,0,0,1.14,1.22,3.32,3.32,0,0,0,1.7.42,3.57,3.57,0,0,0,1.16-.18,2.38,2.38,0,0,0,1.48-1.45l2.1.38a3.74,3.74,0,0,1-.9,1.63,4.56,4.56,0,0,1-1.63,1.08A6.2,6.2,0,0,1,217.06,16.19Z"/><path class="cls-2" d="M231.92,7.32l-2,.36a2.54,2.54,0,0,0-.4-.74,2,2,0,0,0-.74-.57,2.59,2.59,0,0,0-1.15-.23,2.8,2.8,0,0,0-1.58.42,1.26,1.26,0,0,0-.63,1.09,1.13,1.13,0,0,0,.42.92,3.56,3.56,0,0,0,1.37.57l1.82.42a4.87,4.87,0,0,1,2.35,1.12,2.65,2.65,0,0,1,.78,2,3,3,0,0,1-.59,1.82,3.92,3.92,0,0,1-1.65,1.26,6.14,6.14,0,0,1-2.44.45,5.45,5.45,0,0,1-3.13-.82A3.44,3.44,0,0,1,222.85,13L225,12.7a2,2,0,0,0,.83,1.27,2.78,2.78,0,0,0,1.63.43,3,3,0,0,0,1.75-.46,1.34,1.34,0,0,0,.65-1.12,1.15,1.15,0,0,0-.4-.9,2.62,2.62,0,0,0-1.21-.55l-1.94-.43A4.59,4.59,0,0,1,224,9.78a2.79,2.79,0,0,1-.77-2A2.88,2.88,0,0,1,223.75,6a3.76,3.76,0,0,1,1.56-1.18,5.7,5.7,0,0,1,2.29-.43,4.73,4.73,0,0,1,2.92.8A3.67,3.67,0,0,1,231.92,7.32Z"/><path class="cls-2" d="M235,16.1a1.43,1.43,0,0,1-1.05-.43,1.47,1.47,0,0,1,0-2.1,1.44,1.44,0,0,1,1.05-.44,1.47,1.47,0,0,1,1.05.44,1.43,1.43,0,0,1,.44,1,1.37,1.37,0,0,1-.21.75,1.55,1.55,0,0,1-.54.54A1.35,1.35,0,0,1,235,16.1Z"/><path class="cls-2" d="M6.76,32.55v1.93H0V32.55Z"/><path class="cls-2" d="M25.59,24.71V40H23.47L15.72,28.78h-.14V40h-2.3V24.71h2.13l7.76,11.2h.14V24.71Z"/><path class="cls-2" d="M32.49,40.19a5.25,5.25,0,0,1-2.81-.73,5,5,0,0,1-1.86-2.07,6.83,6.83,0,0,1-.66-3.09,7,7,0,0,1,.66-3.12,5,5,0,0,1,1.86-2.07,5.75,5.75,0,0,1,5.61,0,5,5,0,0,1,1.86,2.07,6.83,6.83,0,0,1,.67,3.12,6.7,6.7,0,0,1-.67,3.09,5,5,0,0,1-1.86,2.07A5.24,5.24,0,0,1,32.49,40.19Zm0-1.87a2.66,2.66,0,0,0,1.73-.55,3.17,3.17,0,0,0,1-1.46,6.32,6.32,0,0,0,0-4,3.23,3.23,0,0,0-1-1.48,3,3,0,0,0-3.46,0,3.23,3.23,0,0,0-1,1.48,6.14,6.14,0,0,0,0,4,3.17,3.17,0,0,0,1,1.46A2.64,2.64,0,0,0,32.49,38.32Z"/><path class="cls-2" d="M47,40.21a4.66,4.66,0,0,1-2-.4,3.27,3.27,0,0,1-1.39-1.18,3.39,3.39,0,0,1-.51-1.9,3,3,0,0,1,.38-1.59,2.64,2.64,0,0,1,1-1,4.83,4.83,0,0,1,1.42-.55,13.92,13.92,0,0,1,1.59-.29l1.67-.19a2.62,2.62,0,0,0,.93-.26.63.63,0,0,0,.29-.58v-.05a2.07,2.07,0,0,0-.55-1.52,2.27,2.27,0,0,0-1.63-.53,2.84,2.84,0,0,0-1.77.49,2.72,2.72,0,0,0-.88,1.1l-2.1-.47a4,4,0,0,1,1.09-1.69,4.56,4.56,0,0,1,1.66-.94,6.75,6.75,0,0,1,2-.29,7,7,0,0,1,1.46.16,4.28,4.28,0,0,1,1.44.58,3.34,3.34,0,0,1,1.11,1.21,4.2,4.2,0,0,1,.43,2V40H50.47V38.4h-.09a3.27,3.27,0,0,1-.65.85,3.39,3.39,0,0,1-1.11.69A4.36,4.36,0,0,1,47,40.21Zm.48-1.78a3.13,3.13,0,0,0,1.58-.37,2.58,2.58,0,0,0,1-1,2.49,2.49,0,0,0,.34-1.27V34.36a1,1,0,0,1-.45.22,5.17,5.17,0,0,1-.77.17l-.85.13-.68.09a5.67,5.67,0,0,0-1.18.28,2.06,2.06,0,0,0-.85.55,1.58,1.58,0,0,0,.3,2.21A2.65,2.65,0,0,0,47.48,38.43Z"/><path class="cls-2" d="M59.33,40.19a5.28,5.28,0,0,1-2.86-.75,5,5,0,0,1-1.83-2.09,7.6,7.6,0,0,1,0-6.13,5.08,5.08,0,0,1,1.85-2.09,5.15,5.15,0,0,1,2.81-.75,5.38,5.38,0,0,1,2.32.48,4.27,4.27,0,0,1,1.65,1.34,4.09,4.09,0,0,1,.75,2H61.86a2.64,2.64,0,0,0-.81-1.39,2.48,2.48,0,0,0-1.7-.58,2.78,2.78,0,0,0-1.63.49,3.19,3.19,0,0,0-1.09,1.39,5.41,5.41,0,0,0-.38,2.11,5.6,5.6,0,0,0,.38,2.16,3.16,3.16,0,0,0,1.07,1.41,2.78,2.78,0,0,0,1.65.5,2.72,2.72,0,0,0,1.15-.24,2.37,2.37,0,0,0,.87-.67,2.53,2.53,0,0,0,.49-1.06H64a4.23,4.23,0,0,1-.72,2,4.18,4.18,0,0,1-1.62,1.37A5.16,5.16,0,0,1,59.33,40.19Z"/><path class="cls-2" d="M70.14,40.19a5.27,5.27,0,0,1-2.85-.75,4.9,4.9,0,0,1-1.83-2.09,6.94,6.94,0,0,1-.65-3.05,6.84,6.84,0,0,1,.66-3.08,5,5,0,0,1,1.85-2.09,5.12,5.12,0,0,1,2.8-.75,5.42,5.42,0,0,1,2.33.48,4.24,4.24,0,0,1,1.64,1.34,4.09,4.09,0,0,1,.75,2H72.68a2.59,2.59,0,0,0-.82-1.39,2.45,2.45,0,0,0-1.7-.58,2.83,2.83,0,0,0-1.63.49,3.25,3.25,0,0,0-1.08,1.39,5.23,5.23,0,0,0-.39,2.11,5.6,5.6,0,0,0,.38,2.16,3.18,3.18,0,0,0,1.08,1.41,2.91,2.91,0,0,0,2.79.26,2.29,2.29,0,0,0,.87-.67,2.55,2.55,0,0,0,.5-1.06h2.16a4.23,4.23,0,0,1-.72,2,4.14,4.14,0,0,1-1.61,1.37A5.18,5.18,0,0,1,70.14,40.19Z"/><path class="cls-2" d="M81,40.19a5.28,5.28,0,0,1-2.81-.73,5,5,0,0,1-1.86-2.07,6.83,6.83,0,0,1-.66-3.09,7,7,0,0,1,.66-3.12,5,5,0,0,1,1.86-2.07,5.77,5.77,0,0,1,5.62,0,5,5,0,0,1,1.86,2.07,7,7,0,0,1,.66,3.12,6.83,6.83,0,0,1-.66,3.09,5,5,0,0,1-1.86,2.07A5.28,5.28,0,0,1,81,40.19Zm0-1.87a2.63,2.63,0,0,0,1.72-.55,3.17,3.17,0,0,0,1-1.46,6.32,6.32,0,0,0,0-4,3.23,3.23,0,0,0-1-1.48A2.58,2.58,0,0,0,81,30.24a2.64,2.64,0,0,0-1.74.56,3.23,3.23,0,0,0-1,1.48,6.32,6.32,0,0,0,0,4,3.17,3.17,0,0,0,1,1.46A2.69,2.69,0,0,0,81,38.32Z"/><path class="cls-2" d="M94.92,35.22V28.53h2.24V40H95V38h-.12a3.49,3.49,0,0,1-1.26,1.52,3.65,3.65,0,0,1-2.16.61,3.82,3.82,0,0,1-2-.49,3.28,3.28,0,0,1-1.32-1.45,5.24,5.24,0,0,1-.48-2.37V28.53h2.23v7a2.61,2.61,0,0,0,.64,1.86,2.21,2.21,0,0,0,1.69.7,2.72,2.72,0,0,0,1.24-.32,2.67,2.67,0,0,0,1-.94A2.85,2.85,0,0,0,94.92,35.22Z"/><path class="cls-2" d="M101.28,33.17V40H99.05V28.53h2.14v1.86h.14a3.26,3.26,0,0,1,1.24-1.46,3.79,3.79,0,0,1,2.13-.55,4.12,4.12,0,0,1,2,.49,3.22,3.22,0,0,1,1.36,1.44,5.31,5.31,0,0,1,.49,2.38V40h-2.23V33a2.78,2.78,0,0,0-.65-1.95,2.28,2.28,0,0,0-1.78-.7,2.8,2.8,0,0,0-1.37.33,2.36,2.36,0,0,0-.95,1A3.25,3.25,0,0,0,101.28,33.17Z"/><path class="cls-2" d="M115.82,28.53v1.78h-6.24V28.53Zm-4.57-2.74h2.23V36.6a2,2,0,0,0,.19,1,1,1,0,0,0,.5.43,1.87,1.87,0,0,0,.68.12,2.23,2.23,0,0,0,.47,0l.31-.06.4,1.84a5.08,5.08,0,0,1-.55.16,4.44,4.44,0,0,1-.89.08A3.87,3.87,0,0,1,113,39.8a2.83,2.83,0,0,1-1.23-1,3,3,0,0,1-.47-1.72Z"/><path class="cls-2" d="M120.52,40.21a4.66,4.66,0,0,1-2-.4,3.27,3.27,0,0,1-1.39-1.18,3.39,3.39,0,0,1-.51-1.9,3,3,0,0,1,.38-1.59,2.64,2.64,0,0,1,1-1,4.88,4.88,0,0,1,1.41-.55,14.5,14.5,0,0,1,1.6-.29l1.67-.19a2.62,2.62,0,0,0,.93-.26.63.63,0,0,0,.29-.58v-.05a2.07,2.07,0,0,0-.55-1.52,2.28,2.28,0,0,0-1.63-.53,2.84,2.84,0,0,0-1.77.49,2.75,2.75,0,0,0-.89,1.1L117,31.3a4,4,0,0,1,1.09-1.69,4.56,4.56,0,0,1,1.66-.94,6.75,6.75,0,0,1,2-.29,6.93,6.93,0,0,1,1.46.16,4.28,4.28,0,0,1,1.44.58,3.34,3.34,0,0,1,1.11,1.21,4.2,4.2,0,0,1,.43,2V40H124V38.4h-.09a3.27,3.27,0,0,1-.65.85,3.39,3.39,0,0,1-1.11.69A4.36,4.36,0,0,1,120.52,40.21Zm.48-1.78a3.13,3.13,0,0,0,1.58-.37,2.58,2.58,0,0,0,1-1,2.49,2.49,0,0,0,.34-1.27V34.36a1,1,0,0,1-.45.22,5.17,5.17,0,0,1-.77.17l-.85.13-.68.09a5.67,5.67,0,0,0-1.18.28,2,2,0,0,0-.85.55,1.41,1.41,0,0,0-.32,1,1.44,1.44,0,0,0,.61,1.25A2.71,2.71,0,0,0,121,38.43Z"/><path class="cls-2" d="M130.26,33.17V40H128V28.53h2.14v1.86h.14a3.26,3.26,0,0,1,1.24-1.46,3.79,3.79,0,0,1,2.13-.55,4.09,4.09,0,0,1,2,.49,3.22,3.22,0,0,1,1.36,1.44,5.18,5.18,0,0,1,.49,2.38V40h-2.23V33A2.78,2.78,0,0,0,134.7,31a2.28,2.28,0,0,0-1.78-.7,2.8,2.8,0,0,0-1.37.33,2.43,2.43,0,0,0-1,1A3.25,3.25,0,0,0,130.26,33.17Z"/><path class="cls-2" d="M144.8,28.53v1.78h-6.24V28.53Zm-4.57-2.74h2.23V36.6a2,2,0,0,0,.19,1,1,1,0,0,0,.5.43,1.87,1.87,0,0,0,.68.12,2.23,2.23,0,0,0,.47,0l.31-.06.4,1.84a5.08,5.08,0,0,1-.55.16,4.44,4.44,0,0,1-.89.08,3.9,3.9,0,0,1-1.64-.31,2.83,2.83,0,0,1-1.23-1,3,3,0,0,1-.47-1.72Z"/><path class="cls-2" d="M152.86,33.17V40h-2.23V28.53h2.14v1.86h.14a3.26,3.26,0,0,1,1.24-1.46,3.79,3.79,0,0,1,2.13-.55,4.09,4.09,0,0,1,2.05.49,3.22,3.22,0,0,1,1.36,1.44,5.18,5.18,0,0,1,.49,2.38V40H158V33A2.74,2.74,0,0,0,157.3,31a2.28,2.28,0,0,0-1.78-.7,2.8,2.8,0,0,0-1.37.33,2.34,2.34,0,0,0-.94,1A3.14,3.14,0,0,0,152.86,33.17Z"/><path class="cls-2" d="M167,40.19a5.6,5.6,0,0,1-2.9-.72,4.91,4.91,0,0,1-1.88-2,6.87,6.87,0,0,1-.66-3.1,7,7,0,0,1,.66-3.1,4.94,4.94,0,0,1,4.63-2.84,5.41,5.41,0,0,1,1.87.32,4.5,4.5,0,0,1,2.77,2.78,7.4,7.4,0,0,1,.42,2.65v.78h-9.09V33.25h6.91a3.27,3.27,0,0,0-.36-1.56,2.67,2.67,0,0,0-1-1.08,2.85,2.85,0,0,0-1.51-.39,2.93,2.93,0,0,0-1.63.45,3.09,3.09,0,0,0-1.07,1.2,3.39,3.39,0,0,0-.38,1.59v1.3a4.32,4.32,0,0,0,.41,2,2.91,2.91,0,0,0,1.13,1.22,3.39,3.39,0,0,0,1.71.42,3.51,3.51,0,0,0,1.15-.18,2.3,2.3,0,0,0,.9-.55,2.33,2.33,0,0,0,.58-.9l2.11.38a3.76,3.76,0,0,1-.91,1.63,4.39,4.39,0,0,1-1.63,1.08A6.17,6.17,0,0,1,167,40.19Z"/><path class="cls-2" d="M178.22,40.19a5.61,5.61,0,0,1-2.91-.72,4.89,4.89,0,0,1-1.87-2,6.87,6.87,0,0,1-.66-3.1,7,7,0,0,1,.66-3.1,4.91,4.91,0,0,1,4.62-2.84,5.46,5.46,0,0,1,1.88.32,4.61,4.61,0,0,1,1.63,1,4.79,4.79,0,0,1,1.14,1.78,7.4,7.4,0,0,1,.42,2.65v.78H174V33.25h6.9a3.26,3.26,0,0,0-.35-1.56,2.7,2.7,0,0,0-1-1.08,2.82,2.82,0,0,0-1.5-.39,3,3,0,0,0-1.64.45,3.17,3.17,0,0,0-1.07,1.2,3.39,3.39,0,0,0-.37,1.59v1.3a4.32,4.32,0,0,0,.4,2,2.87,2.87,0,0,0,1.14,1.22,3.32,3.32,0,0,0,1.7.42,3.57,3.57,0,0,0,1.16-.18,2.38,2.38,0,0,0,1.48-1.45l2.1.38a3.74,3.74,0,0,1-.9,1.63,4.56,4.56,0,0,1-1.63,1.08A6.2,6.2,0,0,1,178.22,40.19Z"/><path class="cls-2" d="M188.79,40.19a4.33,4.33,0,0,1-2.46-.72,4.69,4.69,0,0,1-1.7-2,7.47,7.47,0,0,1-.61-3.17,7.33,7.33,0,0,1,.62-3.18,4.65,4.65,0,0,1,1.71-2,4.4,4.4,0,0,1,2.46-.7,3.7,3.7,0,0,1,1.72.35,3.26,3.26,0,0,1,1,.82,7.14,7.14,0,0,1,.56.83h.13V24.71h2.23V40h-2.17V38.18h-.19a5.85,5.85,0,0,1-.58.84,3.2,3.2,0,0,1-1,.81A3.49,3.49,0,0,1,188.79,40.19Zm.5-1.9a2.57,2.57,0,0,0,1.62-.51,3.22,3.22,0,0,0,1-1.42,6,6,0,0,0,.34-2.12,5.74,5.74,0,0,0-.34-2.08,3,3,0,0,0-1-1.39,2.57,2.57,0,0,0-1.63-.5,2.65,2.65,0,0,0-1.68.52,3.18,3.18,0,0,0-1,1.42,6.26,6.26,0,0,0,0,4.1,3.11,3.11,0,0,0,1,1.44A2.59,2.59,0,0,0,189.29,38.29Z"/><path class="cls-2" d="M201.47,40.19a5.63,5.63,0,0,1-2.91-.72,4.89,4.89,0,0,1-1.87-2,6.87,6.87,0,0,1-.66-3.1,7,7,0,0,1,.66-3.1,5.06,5.06,0,0,1,1.84-2.09,5.12,5.12,0,0,1,2.78-.75,5.46,5.46,0,0,1,1.88.32,4.52,4.52,0,0,1,1.63,1A4.79,4.79,0,0,1,206,31.48a7.4,7.4,0,0,1,.42,2.65v.78h-9.09V33.25h6.91a3.27,3.27,0,0,0-.36-1.56,2.67,2.67,0,0,0-1-1.08,2.85,2.85,0,0,0-1.51-.39,2.91,2.91,0,0,0-1.63.45,3.11,3.11,0,0,0-1.08,1.2,3.39,3.39,0,0,0-.37,1.59v1.3a4.32,4.32,0,0,0,.4,2,2.87,2.87,0,0,0,1.14,1.22,3.32,3.32,0,0,0,1.7.42,3.53,3.53,0,0,0,1.16-.18,2.46,2.46,0,0,0,.9-.55,2.33,2.33,0,0,0,.58-.9l2.11.38a3.76,3.76,0,0,1-.91,1.63,4.47,4.47,0,0,1-1.63,1.08A6.2,6.2,0,0,1,201.47,40.19Z"/><path class="cls-2" d="M212.05,40.19a4.37,4.37,0,0,1-2.47-.72,4.75,4.75,0,0,1-1.7-2,7.47,7.47,0,0,1-.61-3.17,7.48,7.48,0,0,1,.62-3.18,4.65,4.65,0,0,1,1.71-2,4.4,4.4,0,0,1,2.46-.7,3.7,3.7,0,0,1,1.72.35,3.26,3.26,0,0,1,1,.82,7.14,7.14,0,0,1,.56.83h.14V24.71h2.22V40h-2.17V38.18h-.19a5.69,5.69,0,0,1-.57.84,3.31,3.31,0,0,1-1,.81A3.54,3.54,0,0,1,212.05,40.19Zm.49-1.9a2.62,2.62,0,0,0,1.63-.51,3.2,3.2,0,0,0,1-1.42,6,6,0,0,0,.34-2.12,5.74,5.74,0,0,0-.34-2.08,3,3,0,0,0-1-1.39,2.6,2.6,0,0,0-1.64-.5,2.65,2.65,0,0,0-1.68.52,3.16,3.16,0,0,0-1,1.42,5.65,5.65,0,0,0-.34,2,5.84,5.84,0,0,0,.34,2.07,3.21,3.21,0,0,0,1,1.44A2.55,2.55,0,0,0,212.54,38.29Z"/><path class="cls-2" d="M221.26,40.1a1.43,1.43,0,0,1-1-.43,1.48,1.48,0,1,1,2.54-1.06,1.37,1.37,0,0,1-.21.75,1.45,1.45,0,0,1-.53.54A1.41,1.41,0,0,1,221.26,40.1Z"/><path class="cls-2" d="M6.76,55.55v1.93H0V55.55Z"/><path class="cls-3" d="M21.23,59H13.88V57h7.35Zm3.13,6H13.93V63H24.36ZM17.62,54.23l.24,6.42a4.3,4.3,0,0,1-.25,1.72,2.34,2.34,0,0,1-1.05,1.2L14.65,63a.71.71,0,0,0,.62-.41,2.5,2.5,0,0,0,.29-.91,5.44,5.44,0,0,0,.06-.95l-.21-6.48A4.57,4.57,0,0,1,16,51.61,4.16,4.16,0,0,1,17.71,50,5.15,5.15,0,0,1,20,49.51a5.21,5.21,0,0,1,2,.36,4.34,4.34,0,0,1,1.49,1,3.7,3.7,0,0,1,.87,1.43,3.55,3.55,0,0,1,.1,1.69l-2.15-.34a1.9,1.9,0,0,0-.23-1.22,2.05,2.05,0,0,0-.84-.73,2.78,2.78,0,0,0-1.14-.24,2.7,2.7,0,0,0-1.21.29,2.43,2.43,0,0,0-.92.91A3.17,3.17,0,0,0,17.62,54.23Z"/><path class="cls-3" d="M31.56,65.17a6.81,6.81,0,0,1-2.83-.55,4.62,4.62,0,0,1-1.91-1.52,3.62,3.62,0,0,1-.69-2.2,4,4,0,0,1,.4-1.79,4.05,4.05,0,0,1,1.1-1.36,3.42,3.42,0,0,1,1.57-.69V57a3.07,3.07,0,0,1-1.82-1.22,3.83,3.83,0,0,1-.06-4.27A4.35,4.35,0,0,1,29.05,50a5.75,5.75,0,0,1,2.51-.52,5.55,5.55,0,0,1,2.49.53,4.34,4.34,0,0,1,1.73,1.45,3.72,3.72,0,0,1-.06,4.26A3.12,3.12,0,0,1,33.92,57v.09a3.31,3.31,0,0,1,1.54.69,4.21,4.21,0,0,1,1.11,1.36A4.13,4.13,0,0,1,37,60.9a3.77,3.77,0,0,1-.7,2.2,4.65,4.65,0,0,1-1.92,1.52A6.74,6.74,0,0,1,31.56,65.17Zm0-1.88A4,4,0,0,0,33.2,63a2.48,2.48,0,0,0,1.07-.89,2.42,2.42,0,0,0,.39-1.33,2.6,2.6,0,0,0-.42-1.41,2.71,2.71,0,0,0-1.1-1A3.5,3.5,0,0,0,31.56,58a3.55,3.55,0,0,0-1.6.35,2.65,2.65,0,0,0-1.1,1,2.5,2.5,0,0,0-.4,1.41,2.33,2.33,0,0,0,.37,1.33,2.46,2.46,0,0,0,1.08.89A4,4,0,0,0,31.56,63.29Zm0-7.1a3,3,0,0,0,1.35-.3,2.36,2.36,0,0,0,.92-.85,2.42,2.42,0,0,0,.35-1.28,2.46,2.46,0,0,0-.34-1.25,2.31,2.31,0,0,0-.92-.83,3.38,3.38,0,0,0-2.74,0A2.45,2.45,0,0,0,29.27,55a2.36,2.36,0,0,0,.92.85A3,3,0,0,0,31.56,56.19Z"/><path class="cls-3" d="M39.59,65.1a1.43,1.43,0,0,1-1.05-.43,1.48,1.48,0,1,1,2.54-1.06,1.37,1.37,0,0,1-.21.75,1.4,1.4,0,0,1-.54.54A1.35,1.35,0,0,1,39.59,65.1Z"/><path class="cls-3" d="M47.81,49.51a5.63,5.63,0,0,1,2,.37,4.72,4.72,0,0,1,1.79,1.19,5.77,5.77,0,0,1,1.28,2.23,10.9,10.9,0,0,1,.49,3.49,14.24,14.24,0,0,1-.4,3.56A8,8,0,0,1,51.83,63,5,5,0,0,1,50,64.61a5.12,5.12,0,0,1-2.4.56,5.23,5.23,0,0,1-2.42-.54,4.49,4.49,0,0,1-1.72-1.48A4.89,4.89,0,0,1,42.65,61h2.27a2.89,2.89,0,0,0,.92,1.59,2.55,2.55,0,0,0,1.78.61,2.94,2.94,0,0,0,2.61-1.46,7.61,7.61,0,0,0,1-4.09h-.12a4.28,4.28,0,0,1-2.26,1.81,4.45,4.45,0,0,1-1.52.26,4.6,4.6,0,0,1-2.4-.65,4.82,4.82,0,0,1-1.72-1.78,5.14,5.14,0,0,1-.64-2.58A5.29,5.29,0,0,1,43.18,52,4.9,4.9,0,0,1,45,50.18,5.39,5.39,0,0,1,47.81,49.51Zm0,1.93a2.92,2.92,0,0,0-1.57.43A3.19,3.19,0,0,0,45.15,53a3.38,3.38,0,0,0-.4,1.62,3.3,3.3,0,0,0,.39,1.6,3,3,0,0,0,1.07,1.14,3.13,3.13,0,0,0,2.79.17,3.28,3.28,0,0,0,1-.71,3.44,3.44,0,0,0,.66-1,3.07,3.07,0,0,0,.24-1.21,3.23,3.23,0,0,0-.4-1.56,3.31,3.31,0,0,0-1.09-1.17A2.91,2.91,0,0,0,47.82,51.44Z"/><path class="cls-3" d="M60.05,49.51a5.63,5.63,0,0,1,2,.37,4.72,4.72,0,0,1,1.79,1.19,5.9,5.9,0,0,1,1.28,2.23,11.19,11.19,0,0,1,.49,3.49,14.22,14.22,0,0,1-.41,3.56A7.84,7.84,0,0,1,64.06,63a4.93,4.93,0,0,1-1.81,1.63,5.11,5.11,0,0,1-2.39.56,5.23,5.23,0,0,1-2.42-.54,4.6,4.6,0,0,1-1.73-1.48A4.88,4.88,0,0,1,54.89,61h2.27a2.88,2.88,0,0,0,.91,1.59,2.59,2.59,0,0,0,1.79.61,3,3,0,0,0,2.61-1.46,7.62,7.62,0,0,0,.94-4.09h-.12a4.2,4.2,0,0,1-1,1.1,4.26,4.26,0,0,1-1.29.71A4.69,4.69,0,0,1,57.12,59a4.74,4.74,0,0,1-1.72-1.78,5.15,5.15,0,0,1-.65-2.58A5.29,5.29,0,0,1,55.41,52a4.93,4.93,0,0,1,1.85-1.86A5.34,5.34,0,0,1,60.05,49.51Zm0,1.93a2.87,2.87,0,0,0-1.57.43A3.11,3.11,0,0,0,57.39,53a3.48,3.48,0,0,0,0,3.22,3,3,0,0,0,1.07,1.14A2.94,2.94,0,0,0,60,57.8a2.9,2.9,0,0,0,1.22-.25,3,3,0,0,0,1-.71,3.25,3.25,0,0,0,.9-2.23,3.25,3.25,0,0,0-1.49-2.73A2.88,2.88,0,0,0,60.06,51.44Z"/><path class="cls-2" d="M77.15,53.53v1.78H70.69V53.53ZM72.46,65V52.2a3.19,3.19,0,0,1,.47-1.78,2.92,2.92,0,0,1,1.24-1.07A4.12,4.12,0,0,1,75.86,49a5.37,5.37,0,0,1,1.14.11c.32.07.55.14.71.19l-.52,1.81-.4-.11a2.64,2.64,0,0,0-.6-.06,1.46,1.46,0,0,0-1.16.4,1.73,1.73,0,0,0-.34,1.16V65Z"/><path class="cls-2" d="M79.48,51.76a1.41,1.41,0,0,1-1-.39,1.27,1.27,0,0,1,0-1.87,1.38,1.38,0,0,1,1-.4,1.34,1.34,0,0,1,1,.4,1.27,1.27,0,0,1,0,1.87A1.37,1.37,0,0,1,79.48,51.76ZM78.35,65V53.53h2.23V65Z"/><path class="cls-2" d="M84.24,53.53,86.76,58l2.55-4.45h2.43l-3.56,5.71L91.77,65H89.34l-2.58-4.27L84.19,65H81.75l3.56-5.72L81.8,53.53Z"/><path class="cls-2" d="M97.41,65.19a5.6,5.6,0,0,1-2.9-.72,4.91,4.91,0,0,1-1.88-2,6.87,6.87,0,0,1-.66-3.1,7,7,0,0,1,.66-3.1,4.94,4.94,0,0,1,4.63-2.84,5.41,5.41,0,0,1,1.87.32,4.5,4.5,0,0,1,2.77,2.78,7.4,7.4,0,0,1,.42,2.65v.78H93.23V58.25h6.91a3.27,3.27,0,0,0-.36-1.56,2.67,2.67,0,0,0-1-1.08,2.85,2.85,0,0,0-1.51-.39,2.93,2.93,0,0,0-1.63.45,3.09,3.09,0,0,0-1.07,1.2,3.39,3.39,0,0,0-.38,1.59v1.3a4.32,4.32,0,0,0,.41,2,2.84,2.84,0,0,0,1.13,1.22,3.39,3.39,0,0,0,1.71.42,3.51,3.51,0,0,0,1.15-.18,2.3,2.3,0,0,0,.9-.55,2.33,2.33,0,0,0,.58-.9l2.11.38a3.76,3.76,0,0,1-.91,1.63,4.39,4.39,0,0,1-1.63,1.08A6.17,6.17,0,0,1,97.41,65.19Z"/><path class="cls-2" d="M108,65.19a4.37,4.37,0,0,1-2.47-.72,4.75,4.75,0,0,1-1.7-2,8.5,8.5,0,0,1,0-6.35,4.79,4.79,0,0,1,1.71-2,4.44,4.44,0,0,1,2.46-.7,3.67,3.67,0,0,1,1.72.35,3.26,3.26,0,0,1,1,.82,7.14,7.14,0,0,1,.56.83h.14V49.71h2.23V65h-2.18V63.18h-.19a5.69,5.69,0,0,1-.57.84,3.31,3.31,0,0,1-1,.81A3.54,3.54,0,0,1,108,65.19Zm.49-1.9a2.62,2.62,0,0,0,1.63-.51,3.2,3.2,0,0,0,1-1.42,6,6,0,0,0,.35-2.12,5.73,5.73,0,0,0-.35-2.08,3,3,0,0,0-1-1.39,2.94,2.94,0,0,0-3.31,0,3.11,3.11,0,0,0-1,1.42,5.65,5.65,0,0,0-.34,2,5.84,5.84,0,0,0,.34,2.07,3.21,3.21,0,0,0,1,1.44A2.57,2.57,0,0,0,108.48,63.29Z"/><path class="cls-2" d="M125.64,53.53v1.78h-6.46V53.53ZM121,65V52.2a3.19,3.19,0,0,1,.47-1.78,2.92,2.92,0,0,1,1.24-1.07,4.12,4.12,0,0,1,1.69-.35,5.3,5.3,0,0,1,1.14.11,7.1,7.1,0,0,1,.71.19l-.52,1.81-.4-.11a2.58,2.58,0,0,0-.6-.06,1.46,1.46,0,0,0-1.16.4,1.73,1.73,0,0,0-.34,1.16V65Z"/><path class="cls-2" d="M131.32,65.19a5.61,5.61,0,0,1-2.91-.72,4.89,4.89,0,0,1-1.87-2,6.87,6.87,0,0,1-.66-3.1,7,7,0,0,1,.66-3.1,4.91,4.91,0,0,1,4.62-2.84,5.46,5.46,0,0,1,1.88.32,4.61,4.61,0,0,1,1.63,1,4.79,4.79,0,0,1,1.14,1.78,7.4,7.4,0,0,1,.42,2.65v.78h-9.09V58.25H134a3.26,3.26,0,0,0-.35-1.56,2.67,2.67,0,0,0-1-1.08,2.88,2.88,0,0,0-1.51-.39,3,3,0,0,0-1.64.45,3.17,3.17,0,0,0-1.07,1.2,3.39,3.39,0,0,0-.37,1.59v1.3a4.32,4.32,0,0,0,.4,2,2.87,2.87,0,0,0,1.14,1.22,3.32,3.32,0,0,0,1.7.42,3.57,3.57,0,0,0,1.16-.18A2.38,2.38,0,0,0,134,61.72l2.1.38a3.64,3.64,0,0,1-.9,1.63,4.47,4.47,0,0,1-1.63,1.08A6.2,6.2,0,0,1,131.32,65.19Z"/><path class="cls-2" d="M142.54,65.19a5.6,5.6,0,0,1-2.9-.72,4.91,4.91,0,0,1-1.88-2,6.87,6.87,0,0,1-.66-3.1,7,7,0,0,1,.66-3.1,4.94,4.94,0,0,1,4.63-2.84,5.41,5.41,0,0,1,1.87.32A4.5,4.5,0,0,1,147,56.48a7.4,7.4,0,0,1,.42,2.65v.78h-9.09V58.25h6.91a3.27,3.27,0,0,0-.36-1.56,2.67,2.67,0,0,0-1-1.08,2.85,2.85,0,0,0-1.51-.39,2.93,2.93,0,0,0-1.63.45,3.09,3.09,0,0,0-1.07,1.2,3.39,3.39,0,0,0-.38,1.59v1.3a4.32,4.32,0,0,0,.41,2,2.91,2.91,0,0,0,1.13,1.22,3.39,3.39,0,0,0,1.71.42,3.51,3.51,0,0,0,1.15-.18,2.3,2.3,0,0,0,.9-.55,2.33,2.33,0,0,0,.58-.9l2.11.38a3.76,3.76,0,0,1-.91,1.63,4.39,4.39,0,0,1-1.63,1.08A6.17,6.17,0,0,1,142.54,65.19Z"/></g></g></svg>