<svg xmlns="http://www.w3.org/2000/svg" viewBox="0 0 123.29 37.61"><defs><style>.cls-1{fill:#ff5100;}.cls-2{fill:#f8f5f2;}</style></defs><g id="Layer_2" data-name="Layer 2"><g id="Layer_1-2" data-name="Layer 1"><path class="cls-1" d="M102.4,37.61H20.9C9.36,37.61,0,29.19,0,18.8H0C0,8.42,9.36,0,20.9,0h81.5c11.54,0,20.89,8.42,20.89,18.8h0C123.29,29.19,113.94,37.61,102.4,37.61Z"/><path class="cls-2" d="M19,17.57a3.86,3.86,0,0,1-3.56-2.16,5.44,5.44,0,0,1-.53-2.48,5.52,5.52,0,0,1,.53-2.5A3.86,3.86,0,0,1,19,8.27a3.87,3.87,0,0,1,2.09.56,3.76,3.76,0,0,1,1.45,1.6,5.39,5.39,0,0,1,.54,2.5,5.31,5.31,0,0,1-.54,2.48A3.76,3.76,0,0,1,21.1,17,3.87,3.87,0,0,1,19,17.57Zm0-1.24a2.51,2.51,0,0,0,1.39-.39,2.72,2.72,0,0,0,1-1.15,4.51,4.51,0,0,0,.35-1.86,4.49,4.49,0,0,0-.35-1.87,2.69,2.69,0,0,0-1-1.16A2.51,2.51,0,0,0,19,9.51a2.57,2.57,0,0,0-1.4.39,2.69,2.69,0,0,0-1,1.16,4.33,4.33,0,0,0-.36,1.87,4.35,4.35,0,0,0,.36,1.86,2.72,2.72,0,0,0,1,1.15A2.57,2.57,0,0,0,19,16.33Z"/><path class="cls-2" d="M25.47,13.42v4H24.16v-6.8h1.27v1.12h.1a1.88,1.88,0,0,1,.72-.88,2.23,2.23,0,0,1,1.26-.32,2.4,2.4,0,0,1,1.22.29,2,2,0,0,1,.81.86,3.13,3.13,0,0,1,.29,1.41v4.32H28.51V13.29a1.64,1.64,0,0,0-.39-1.16,1.37,1.37,0,0,0-1.06-.42,1.68,1.68,0,0,0-.81.2,1.51,1.51,0,0,0-.57.58A1.91,1.91,0,0,0,25.47,13.42Z"/><path class="cls-2" d="M34.25,10.65v1.07H30.54V10.65ZM31.53,9h1.32v6.43a1,1,0,0,0,.2.68.83.83,0,0,0,.63.22l.22,0a2,2,0,0,0,.24,0l.25,1.09a2.83,2.83,0,0,1-.44.11,3.87,3.87,0,0,1-.48,0,2,2,0,0,1-1.41-.49,1.74,1.74,0,0,1-.53-1.33Z"/><path class="cls-2" d="M37.66,17.58a2.63,2.63,0,0,1-1.47-.42,2.76,2.76,0,0,1-1-1.21,4.32,4.32,0,0,1-.37-1.88,4.48,4.48,0,0,1,.37-1.89,2.88,2.88,0,0,1,1-1.2,2.62,2.62,0,0,1,1.46-.41,2.09,2.09,0,0,1,1,.21,1.91,1.91,0,0,1,.61.49,4.22,4.22,0,0,1,.33.49h.08V8.39H41v9.06H39.73V16.39h-.11a3.42,3.42,0,0,1-.34.5,2.19,2.19,0,0,1-.61.49A2.27,2.27,0,0,1,37.66,17.58Zm.28-1.12a1.54,1.54,0,0,0,1-.3,1.83,1.83,0,0,0,.6-.85,3.45,3.45,0,0,0,.2-1.25,3.42,3.42,0,0,0-.2-1.25,1.74,1.74,0,0,0-.59-.82,1.59,1.59,0,0,0-1-.3A1.56,1.56,0,0,0,37,12a1.89,1.89,0,0,0-.59.85,3.27,3.27,0,0,0-.2,1.21,3.36,3.36,0,0,0,.2,1.22,1.81,1.81,0,0,0,.6.86A1.52,1.52,0,0,0,37.94,16.46Z"/><path class="cls-2" d="M45.2,17.59a3.34,3.34,0,0,1-1.73-.43,2.94,2.94,0,0,1-1.12-1.22A4.09,4.09,0,0,1,42,14.1a4.12,4.12,0,0,1,.39-1.84A3,3,0,0,1,43.43,11a3.09,3.09,0,0,1,1.66-.44,3.49,3.49,0,0,1,1.11.18,2.76,2.76,0,0,1,1,.6,2.85,2.85,0,0,1,.68,1.06A4.31,4.31,0,0,1,48.11,14v.47h-5.4v-1h4.72l-.61.33a2.93,2.93,0,0,0-.2-1.11,1.62,1.62,0,0,0-.58-.75,1.59,1.59,0,0,0-.95-.27,1.71,1.71,0,0,0-1,.27,1.83,1.83,0,0,0-.62.73,2.3,2.3,0,0,0-.21,1v.68a2.61,2.61,0,0,0,.24,1.18,1.71,1.71,0,0,0,.68.75,2,2,0,0,0,1,.25,1.92,1.92,0,0,0,.69-.11,1.39,1.39,0,0,0,.53-.33,1.35,1.35,0,0,0,.34-.54l1.25.24a2.26,2.26,0,0,1-.53,1,2.53,2.53,0,0,1-1,.64A3.58,3.58,0,0,1,45.2,17.59Z"/><path class="cls-2" d="M49,17.45V8.39h1.31v9.06Zm1.21-2.3V13.53h.23l2.71-2.88h1.58l-3.08,3.29h-.22Zm3.07,2.3-2.43-3.22.91-.93L55,17.45Z"/><path class="cls-2" d="M60.75,17.58a2.64,2.64,0,0,1-1.48-.42,2.83,2.83,0,0,1-1-1.21,4.47,4.47,0,0,1-.36-1.88,4.33,4.33,0,0,1,.37-1.89,2.88,2.88,0,0,1,1-1.2,2.59,2.59,0,0,1,1.46-.41,2.15,2.15,0,0,1,1,.21,1.76,1.76,0,0,1,.6.49,2.63,2.63,0,0,1,.33.49h.08V8.39H64.1v9.06H62.81V16.39H62.7a2.77,2.77,0,0,1-.34.5,2.05,2.05,0,0,1-.61.49A2.19,2.19,0,0,1,60.75,17.58ZM61,16.46a1.56,1.56,0,0,0,1-.3,2,2,0,0,0,.6-.85,3.68,3.68,0,0,0,.2-1.25,3.64,3.64,0,0,0-.2-1.25A1.7,1.7,0,0,0,62,12a1.73,1.73,0,0,0-2,0,2,2,0,0,0-.6.85,3.49,3.49,0,0,0-.2,1.21,3.59,3.59,0,0,0,.2,1.22,2,2,0,0,0,.6.86A1.57,1.57,0,0,0,61,16.46Z"/><path class="cls-2" d="M68.29,17.59a3.32,3.32,0,0,1-1.73-.43,2.87,2.87,0,0,1-1.12-1.22,4.09,4.09,0,0,1-.39-1.84,4.12,4.12,0,0,1,.38-1.84A3,3,0,0,1,66.52,11a3.08,3.08,0,0,1,1.65-.44,3.5,3.5,0,0,1,1.12.18,2.72,2.72,0,0,1,1,.6A2.87,2.87,0,0,1,71,12.41,4.31,4.31,0,0,1,71.2,14v.47H65.79v-1h4.73l-.61.33a2.93,2.93,0,0,0-.2-1.11,1.62,1.62,0,0,0-.58-.75,1.65,1.65,0,0,0-1-.27,1.7,1.7,0,0,0-1,.27,1.83,1.83,0,0,0-.62.73,2.3,2.3,0,0,0-.21,1v.68a2.61,2.61,0,0,0,.24,1.18,1.71,1.71,0,0,0,.68.75,2,2,0,0,0,1,.25,1.83,1.83,0,0,0,.68-.11,1.39,1.39,0,0,0,.88-.87l1.25.24a2.18,2.18,0,0,1-.54,1,2.42,2.42,0,0,1-1,.64A3.65,3.65,0,0,1,68.29,17.59Z"/><path class="cls-2" d="M77.75,17.59a3.06,3.06,0,0,1-1.67-.44A3,3,0,0,1,75,15.92a4,4,0,0,1-.39-1.83A4.1,4.1,0,0,1,75,12.24,3.11,3.11,0,0,1,76.08,11a3.46,3.46,0,0,1,3.34,0,3,3,0,0,1,1.11,1.24,4.1,4.1,0,0,1,.4,1.85,4,4,0,0,1-.4,1.83,2.88,2.88,0,0,1-1.11,1.23A3,3,0,0,1,77.75,17.59Zm0-1.11a1.62,1.62,0,0,0,1-.33,2,2,0,0,0,.6-.87,3.54,3.54,0,0,0,.2-1.19,3.61,3.61,0,0,0-.2-1.21,2,2,0,0,0-.6-.87,1.62,1.62,0,0,0-1-.33,1.56,1.56,0,0,0-1,.33,2,2,0,0,0-.61.87,3.61,3.61,0,0,0-.2,1.21,3.54,3.54,0,0,0,.2,1.19,2,2,0,0,0,.61.87A1.56,1.56,0,0,0,77.75,16.48Z"/><path class="cls-2" d="M81.87,20V10.65h1.28v1.11h.11a4.45,4.45,0,0,1,.34-.49,1.76,1.76,0,0,1,.6-.49,2.15,2.15,0,0,1,1-.21,2.59,2.59,0,0,1,1.46.41,2.88,2.88,0,0,1,1,1.2,4.48,4.48,0,0,1,.37,1.89A4.47,4.47,0,0,1,87.7,16a2.76,2.76,0,0,1-1,1.21,2.58,2.58,0,0,1-1.46.42,2.27,2.27,0,0,1-1-.2,1.93,1.93,0,0,1-.61-.49,3.59,3.59,0,0,1-.35-.5h-.07V20Zm3.07-3.53a1.57,1.57,0,0,0,1-.32,1.87,1.87,0,0,0,.59-.86,3.36,3.36,0,0,0,.21-1.22,3.49,3.49,0,0,0-.2-1.21,2,2,0,0,0-.6-.85,1.73,1.73,0,0,0-2,0,1.7,1.7,0,0,0-.6.82,3.41,3.41,0,0,0-.21,1.25,3.45,3.45,0,0,0,.21,1.25,1.92,1.92,0,0,0,.61.85A1.53,1.53,0,0,0,84.94,16.46Z"/><path class="cls-2" d="M92.18,10.65v1.07H88.47V10.65ZM89.47,9h1.32v6.43a1,1,0,0,0,.19.68.83.83,0,0,0,.63.22l.22,0a2,2,0,0,0,.24,0l.25,1.09a2.83,2.83,0,0,1-.44.11l-.47,0A2,2,0,0,1,90,17.05a1.73,1.73,0,0,1-.52-1.33Z"/><path class="cls-2" d="M93.79,9.61a.81.81,0,0,1-.59-.24A.72.72,0,0,1,93,8.82a.76.76,0,0,1,.24-.56A.84.84,0,0,1,93.79,8a.86.86,0,0,1,.59.23.76.76,0,0,1,.24.56.72.72,0,0,1-.24.55A.82.82,0,0,1,93.79,9.61Zm-.66,7.84v-6.8h1.31v6.8Z"/><path class="cls-2" d="M98.63,17.59a3.34,3.34,0,0,1-1.73-.43,2.94,2.94,0,0,1-1.12-1.22,4.09,4.09,0,0,1-.39-1.84,4.12,4.12,0,0,1,.39-1.84A3,3,0,0,1,96.86,11a3.09,3.09,0,0,1,1.66-.44,3.49,3.49,0,0,1,1.11.18,2.76,2.76,0,0,1,1,.6,2.85,2.85,0,0,1,.68,1.06,4.31,4.31,0,0,1,.25,1.57v.47h-5.4v-1h4.72l-.61.33a2.93,2.93,0,0,0-.2-1.11,1.62,1.62,0,0,0-.58-.75,1.59,1.59,0,0,0-1-.27,1.71,1.71,0,0,0-1,.27,1.83,1.83,0,0,0-.62.73,2.3,2.3,0,0,0-.21,1v.68A2.61,2.61,0,0,0,97,15.5a1.71,1.71,0,0,0,.68.75,2,2,0,0,0,1,.25,1.92,1.92,0,0,0,.69-.11,1.39,1.39,0,0,0,.53-.33,1.35,1.35,0,0,0,.34-.54l1.25.24a2.26,2.26,0,0,1-.53,1,2.53,2.53,0,0,1-1,.64A3.58,3.58,0,0,1,98.63,17.59Z"/><path class="cls-2" d="M107.55,12.32l-1.19.2a1.66,1.66,0,0,0-.43-.62,1.36,1.36,0,0,0-.94-.29,1.62,1.62,0,0,0-.93.26.73.73,0,0,0-.37.64.68.68,0,0,0,.25.55,1.88,1.88,0,0,0,.8.34l1.09.24a2.91,2.91,0,0,1,1.39.67,1.59,1.59,0,0,1,.47,1.17,1.76,1.76,0,0,1-.36,1.09,2.31,2.31,0,0,1-1,.75,3.68,3.68,0,0,1-1.45.27,3.19,3.19,0,0,1-1.86-.49,2.07,2.07,0,0,1-.89-1.39l1.28-.19a1.21,1.21,0,0,0,.49.75,1.68,1.68,0,0,0,1,.26,1.73,1.73,0,0,0,1-.28.79.79,0,0,0,.39-.66q0-.64-1-.87l-1.15-.26a2.67,2.67,0,0,1-1.41-.69,1.64,1.64,0,0,1-.45-1.18,1.68,1.68,0,0,1,.34-1.06,2.11,2.11,0,0,1,.93-.71,3.35,3.35,0,0,1,1.35-.25,2.81,2.81,0,0,1,1.74.48A2.21,2.21,0,0,1,107.55,12.32Z"/><path class="cls-2" d="M38.35,29.6a3.32,3.32,0,0,1-1.73-.43A2.82,2.82,0,0,1,35.5,28a4.06,4.06,0,0,1-.4-1.84,4.15,4.15,0,0,1,.39-1.84,2.92,2.92,0,0,1,2.74-1.69,3.25,3.25,0,0,1,1.12.19,2.64,2.64,0,0,1,1,.59A3,3,0,0,1,41,24.42,4.35,4.35,0,0,1,41.26,26v.48H35.85v-1h4.73L40,25.8a2.92,2.92,0,0,0-.19-1.1,1.62,1.62,0,0,0-.58-.75,1.58,1.58,0,0,0-1-.28,1.74,1.74,0,0,0-1,.28,1.71,1.71,0,0,0-.61.72,2.32,2.32,0,0,0-.22,1v.67a2.68,2.68,0,0,0,.25,1.19,1.74,1.74,0,0,0,.68.74,2,2,0,0,0,1,.26,2.06,2.06,0,0,0,.68-.11,1.59,1.59,0,0,0,.53-.33,1.53,1.53,0,0,0,.35-.54l1.25.23a2.27,2.27,0,0,1-.54,1,2.65,2.65,0,0,1-1,.64A3.66,3.66,0,0,1,38.35,29.6Z"/><path class="cls-2" d="M43.5,25.43v4H42.18V22.67h1.28v1.11h.09a1.94,1.94,0,0,1,.73-.87,2.2,2.2,0,0,1,1.26-.33,2.46,2.46,0,0,1,1.21.29,1.93,1.93,0,0,1,.81.86,3,3,0,0,1,.29,1.42v4.31H46.54V25.3a1.62,1.62,0,0,0-.39-1.15,1.34,1.34,0,0,0-1.06-.43,1.61,1.61,0,0,0-.82.21,1.45,1.45,0,0,0-.57.58A2,2,0,0,0,43.5,25.43Z"/><path class="cls-2" d="M51.89,32V22.67h1.28v1.1h.11a5.28,5.28,0,0,1,.33-.49,1.91,1.91,0,0,1,.61-.49,2.15,2.15,0,0,1,1-.21A2.7,2.7,0,0,1,56.7,23a2.86,2.86,0,0,1,1,1.2,4.37,4.37,0,0,1,.37,1.89A4.55,4.55,0,0,1,57.72,28a3,3,0,0,1-1,1.21,2.63,2.63,0,0,1-1.47.42,2.16,2.16,0,0,1-1-.21,1.91,1.91,0,0,1-.61-.49,4.05,4.05,0,0,1-.34-.49H53.2V32ZM55,28.47a1.51,1.51,0,0,0,1-.31,2,2,0,0,0,.6-.86,3.41,3.41,0,0,0,.2-1.23,3.3,3.3,0,0,0-.2-1.21A1.81,1.81,0,0,0,56,24a1.56,1.56,0,0,0-1-.31A1.58,1.58,0,0,0,54,24a1.86,1.86,0,0,0-.6.83,3.58,3.58,0,0,0-.2,1.24,3.41,3.41,0,0,0,.21,1.25,1.85,1.85,0,0,0,.6.85A1.58,1.58,0,0,0,55,28.47Z"/><path class="cls-2" d="M59,29.46V22.67h1.27v1.08h.07a1.72,1.72,0,0,1,.66-.86,1.82,1.82,0,0,1,1.07-.32h.29l.27,0v1.26l-.29-.05-.41,0a1.73,1.73,0,0,0-.83.2,1.44,1.44,0,0,0-.58.54,1.48,1.48,0,0,0-.21.79v4.14Z"/><path class="cls-2" d="M64,21.62a.86.86,0,0,1-.59-.23.76.76,0,0,1-.24-.56.74.74,0,0,1,.24-.55A.82.82,0,0,1,64,20a.81.81,0,0,1,.59.24.75.75,0,0,1,.25.55.77.77,0,0,1-.25.56A.84.84,0,0,1,64,21.62Zm-.66,7.84V22.67h1.31v6.79Z"/><path class="cls-2" d="M65.88,22.67h1.31v7.24A2.28,2.28,0,0,1,67,31.06a1.67,1.67,0,0,1-.73.71A2.61,2.61,0,0,1,65,32h-.27V30.87H65a.84.84,0,0,0,.69-.25,1.16,1.16,0,0,0,.21-.72Zm.65-1.05a.84.84,0,0,1-.59-.23.76.76,0,0,1-.24-.56.74.74,0,0,1,.24-.55.81.81,0,0,1,.59-.24.82.82,0,0,1,.59.24.74.74,0,0,1,.24.55.76.76,0,0,1-.24.56A.86.86,0,0,1,66.53,21.62Z"/><path class="cls-2" d="M68.31,29.46v-.9L72,23.88v-.07H68.43V22.67h5.21v1L70.1,28.25v.07h3.66v1.14Z"/><path class="cls-2" d="M77.53,29.6a3.34,3.34,0,0,1-1.73-.43A2.88,2.88,0,0,1,74.68,28a4.06,4.06,0,0,1-.39-1.84,4.15,4.15,0,0,1,.39-1.84,2.92,2.92,0,0,1,2.74-1.69,3.34,3.34,0,0,1,1.12.19,2.64,2.64,0,0,1,1,.59,2.94,2.94,0,0,1,.68,1.06A4.34,4.34,0,0,1,80.45,26v.48H75v-1h4.72l-.61.33A2.92,2.92,0,0,0,79,24.7a1.64,1.64,0,0,0-.59-.75,1.53,1.53,0,0,0-1-.28,1.72,1.72,0,0,0-1.6,1,2.31,2.31,0,0,0-.21,1v.67a2.69,2.69,0,0,0,.24,1.19,1.81,1.81,0,0,0,.68.74,2,2,0,0,0,1,.26,2.12,2.12,0,0,0,.69-.11,1.69,1.69,0,0,0,.53-.33,1.5,1.5,0,0,0,.34-.54l1.25.23a2.36,2.36,0,0,1-.53,1,2.83,2.83,0,0,1-1,.64A3.67,3.67,0,0,1,77.53,29.6Z"/><path class="cls-2" d="M82.68,25.43v4H81.37V22.67h1.28v1.11h.09a1.86,1.86,0,0,1,.72-.87,2.24,2.24,0,0,1,1.27-.33,2.49,2.49,0,0,1,1.21.29,1.93,1.93,0,0,1,.81.86A3.15,3.15,0,0,1,87,25.15v4.31H85.72V25.3a1.66,1.66,0,0,0-.38-1.15,1.36,1.36,0,0,0-1.06-.43,1.59,1.59,0,0,0-.82.21,1.45,1.45,0,0,0-.57.58A1.87,1.87,0,0,0,82.68,25.43Z"/></g></g></svg>