<svg xmlns="http://www.w3.org/2000/svg" width="157.59" height="37.2" viewBox="0 0 157.59 37.2"><defs><style>.cls-1{fill:#fff;}.cls-2{fill:#004c17;}</style></defs><g id="Layer_2" data-name="Layer 2"><g id="Layer_1-2" data-name="Layer 1"><path class="cls-1" d="M18.82,23.72l-.13-6.56,16.58-.77a9.71,9.71,0,0,1,.09,1.94C35.36,31.4,26.68,37,18.73,37A17.93,17.93,0,0,1,.85,18.64C.85,7.54,9.56.94,19.72.94A24.54,24.54,0,0,1,31.09,3.68L27,12a18.49,18.49,0,0,0-7.95-2.12c-4.18,0-7.78,2.21-7.78,8.81,0,5.71,4.36,9.75,8,9.75,2.38,0,4.44-1.35,5.3-4.58Z"/><path class="cls-1" d="M54.86,36.08,49.7,23.9l-2.7.36.63,11.91H38.15l.09-33.93a36.4,36.4,0,0,1,9.07-1c11.33,0,16.94,5.48,16.94,11.1,0,3.73-2.33,7.41-7.14,9.71l7.14,12.58ZM46.73,18c4.58,0,6.92-2.34,6.92-4.58,0-2-1.93-4-5.84-4a5.61,5.61,0,0,0-1.53.09Z"/><path class="cls-1" d="M87.58,36.66l-2.07-6.87-8.9.62L75.13,37.2,65,35.27,75.71.85l9.58.31L97.42,33.83ZM80.43,12.89,77.87,23.81l5.75-.36Z"/><path class="cls-1" d="M102.77,25.79a10.79,10.79,0,0,0,7.14,2.92c3.42,0,6.12-1.62,6.12-4.09C116,20.26,99,24.17,99,12.26c0-8.13,10-11.37,17-11.37a22.55,22.55,0,0,1,8.77,1.66l-3.1,8a12.78,12.78,0,0,0-6.38-1.71c-3.42,0-6.21,1.39-6.21,3.55,0,4.54,17.89-.18,17.89,13.26,0,6.51-7.46,11-15.41,11a18.12,18.12,0,0,1-13.31-5.4Z"/><path class="cls-1" d="M133.46,25.79a10.81,10.81,0,0,0,7.15,2.92c3.41,0,6.11-1.62,6.11-4.09,0-4.36-17.08-.45-17.08-12.36,0-8.13,10-11.37,17-11.37a22.5,22.5,0,0,1,8.76,1.66l-3.1,8a12.78,12.78,0,0,0-6.38-1.71c-3.41,0-6.2,1.39-6.2,3.55,0,4.54,17.88-.18,17.88,13.26,0,6.51-7.46,11-15.41,11a18.08,18.08,0,0,1-13.3-5.4Z"/><path class="cls-2" d="M18,22.87l-.14-6.56,16.58-.76a8.92,8.92,0,0,1,.09,1.93c0,13.08-8.67,18.65-16.62,18.65A17.94,17.94,0,0,1,0,17.79C0,6.7,8.72.09,18.87.09A24.6,24.6,0,0,1,30.24,2.83L26.15,11.1A18.59,18.59,0,0,0,18.2,9c-4.18,0-7.77,2.2-7.77,8.8,0,5.71,4.36,9.76,8,9.76,2.38,0,4.45-1.35,5.3-4.59Z"/><path class="cls-2" d="M54,35.23,48.85,23.05l-2.7.36.63,11.91H37.3l.09-33.93a36.48,36.48,0,0,1,9.08-1C57.79.4,63.41,5.89,63.41,11.5c0,3.73-2.34,7.42-7.15,9.71l7.15,12.58ZM45.88,17.17c4.59,0,6.92-2.34,6.92-4.59,0-2-1.93-4-5.84-4a6.08,6.08,0,0,0-1.53.09Z"/><path class="cls-2" d="M86.73,35.81l-2.06-6.87-8.9.63-1.48,6.78L64.13,34.42,74.87,0l9.57.31L96.57,33ZM79.59,12,77,23l5.75-.36Z"/><path class="cls-2" d="M101.92,24.94a10.81,10.81,0,0,0,7.15,2.92c3.41,0,6.11-1.62,6.11-4.09,0-4.36-17.08-.45-17.08-12.36,0-8.13,10-11.37,17-11.37a22.34,22.34,0,0,1,8.76,1.67l-3.1,8A12.89,12.89,0,0,0,114.37,8c-3.41,0-6.2,1.4-6.2,3.55,0,4.54,17.88-.18,17.88,13.26,0,6.52-7.46,11-15.41,11a18.11,18.11,0,0,1-13.3-5.39Z"/><path class="cls-2" d="M132.62,24.94a10.79,10.79,0,0,0,7.14,2.92c3.42,0,6.11-1.62,6.11-4.09,0-4.36-17.07-.45-17.07-12.36,0-8.13,10-11.37,17-11.37a22.38,22.38,0,0,1,8.77,1.67l-3.1,8A12.92,12.92,0,0,0,145.06,8c-3.41,0-6.2,1.4-6.2,3.55,0,4.54,17.89-.18,17.89,13.26,0,6.52-7.46,11-15.42,11A18.14,18.14,0,0,1,128,30.38Z"/></g></g></svg>