<svg xmlns="http://www.w3.org/2000/svg" viewBox="0 0 87.33 28.32"><defs><style>.cls-1{fill:#fff;}.cls-2{fill:#f1c711;}.cls-3{fill:#f6dd71;}.cls-4{fill:#f4d242;}.cls-5{fill:#f9e8a1;}.cls-6{fill:#f9e9a5;}.cls-7{fill:#fcf6dc;}.cls-8{fill:#faebab;}.cls-9{fill:#faefc0;}</style></defs><g id="Layer_2" data-name="Layer 2"><g id="Layer_1-2" data-name="Layer 1"><rect class="cls-1" width="87.33" height="28.32" rx="14.16"/><path class="cls-2" d="M16.37,6.56a3.69,3.69,0,0,0,.56.19L24.6,9l2.37.7a1.32,1.32,0,0,1,1,1.13c0,.52,0,1,0,1.55,0,.07,0,.14,0,.21v5.64a1.68,1.68,0,0,1-1.37,1.53,2.28,2.28,0,0,1-1.69-.46.46.46,0,0,1-.13-.57.45.45,0,0,1,.58-.13,1.61,1.61,0,0,0,.8.23.92.92,0,0,0,.95-.95q0-3.3,0-6.58a.72.72,0,0,0-.55-.75L17.41,7.73l-.71-.22a.72.72,0,0,0-1,.72c0,1.5,0,3,0,4.51a.44.44,0,0,1-.25.45.55.55,0,0,1-.58,0,.36.36,0,0,1-.19-.34c0-1.54,0-3.08,0-4.61A1.54,1.54,0,0,1,15.9,6.59s.1,0,.14,0a1.23,1.23,0,0,0,.27,0Z"/><path class="cls-2" d="M22.52,21l0-.05a.59.59,0,0,1-.4-.63q0-4.26,0-8.52a.59.59,0,0,1,.66-.66h.61a.54.54,0,0,1,.58.58v1.83c0,2.25,0,4.49,0,6.74a.62.62,0,0,1-.4.67s0,0,0,0h-.09a4,4,0,0,0-.85,0Z"/><path class="cls-2" d="M14.4,14.53a.05.05,0,0,0,.06,0,.56.56,0,0,1,.57-.33h.57a.52.52,0,0,1,.51.56c0,.5,0,1,0,1.51v1.58a.55.55,0,0,1-.61.61H15a.57.57,0,0,1-.56-.33s0-.05-.06-.05V18a.17.17,0,0,0,0-.12V14.76s0-.08,0-.11Z"/><path class="cls-3" d="M73,10.29h0V18h-.81s-.07,0-.1,0a.27.27,0,0,1,.19-.05h.5c.1,0,.15,0,.14-.14s0-.12,0-.17v-7A.39.39,0,0,1,73,10.29Z"/><path class="cls-4" d="M14.4,14.65s0,.1,0,.15v3c0,.05,0,.11,0,.15Z"/><path class="cls-5" d="M22.58,21c0-.06.1,0,.15,0a2.74,2.74,0,0,1,.7,0Z"/><path class="cls-6" d="M16.31,6.56c-.08.06-.18,0-.27,0s0,0,0,0,0,0,0,0Z"/><path class="cls-7" d="M16.05,6.56a0,0,0,0,1,0,0H15.9v0Z"/><path class="cls-2" d="M50.07,17c.1-.55.27-1.08.42-1.62.24-.92.49-1.83.73-2.75,0-.11.07-.15.19-.15H52c.11,0,.13,0,.1.14-.45,1.48-.9,3-1.34,4.46-.08.25-.16.5-.23.75s-.07.14-.18.14-.44,0-.66,0a.13.13,0,0,1-.15-.12c-.36-1.25-.73-2.51-1.09-3.77,0-.13-.06-.26-.11-.39-.14.47-.3.94-.44,1.4-.28.92-.57,1.83-.85,2.74a.16.16,0,0,1-.18.14q-.32,0-.63,0a.14.14,0,0,1-.16-.12L44.92,14c-.14-.45-.27-.9-.41-1.34,0-.1,0-.14.09-.14h.69a.12.12,0,0,1,.14.11c.37,1.35.75,2.7,1.11,4,0,.14.05.28.08.42.32-1.19.71-2.36,1.06-3.54.1-.31.19-.62.28-.92a.14.14,0,0,1,.16-.12h.58c.09,0,.12,0,.15.11.37,1.37.74,2.74,1.12,4.11,0,.09,0,.18.05.27S50,17,50.07,17Z"/><path class="cls-2" d="M21.21,16.35v3.16a.55.55,0,0,1-.6.61h-.52a.54.54,0,0,1-.59-.6v-6.2a2.8,2.8,0,0,1,0-.29.53.53,0,0,1,.54-.46h.6a.53.53,0,0,1,.57.57Z"/><path class="cls-2" d="M18.68,16.29v2.36a.56.56,0,0,1-.59.64,4.42,4.42,0,0,1-.63,0,.53.53,0,0,1-.48-.44V13.93a.55.55,0,0,1,.62-.63,4.34,4.34,0,0,1,.51,0,.55.55,0,0,1,.57.58Z"/><path class="cls-2" d="M73,10.29q0,3.75,0,7.52c0,.1,0,.12-.14.12h-.75v-.14q0-3.67,0-7.33c0-.16.05-.19.19-.18Z"/><path class="cls-2" d="M59.83,13.45a1.87,1.87,0,0,1,.57-.79,1.44,1.44,0,0,1,1.25-.24c.06,0,.1,0,.1.1v.84A1.21,1.21,0,0,0,61,13.2a1.09,1.09,0,0,0-.82.52,2.38,2.38,0,0,0-.38,1.42v2.62c0,.19,0,.19-.2.19H59c-.12,0-.16,0-.15-.16V12.62c0-.11,0-.15.14-.15h.62c.09,0,.12,0,.12.13,0,.29,0,.58,0,.87,0,0,0,0,0,.06A.3.3,0,0,1,59.83,13.45Z"/><path class="cls-8" d="M50.07,17s0,.08,0,.08S50,17,50,17Z"/><path class="cls-9" d="M59.83,13.45s0,.08,0,.09,0,0,0-.07Z"/><path class="cls-2" d="M69.83,14.23a2.14,2.14,0,0,0-1-.36l.39-.2a1.81,1.81,0,0,0,.35-2.88,2.1,2.1,0,0,0-1.39-.5c-.74,0-1.49,0-2.23,0-.14,0-.19,0-.19.18q0,3.64,0,7.31v.08c0,.08,0,.11.1.11.86,0,1.71,0,2.56,0a2.21,2.21,0,0,0,2.07-2A1.83,1.83,0,0,0,69.83,14.23Zm-3-3.13a12.59,12.59,0,0,1,1.37,0,1.46,1.46,0,0,1,.49.15.89.89,0,0,1,.52.78,1.31,1.31,0,0,1-1.39,1.5c-.33,0-.66,0-1,0-.11,0-.11-.06-.11-.13,0-.37,0-.74,0-1.11s0-.74,0-1.12C66.72,11.14,66.73,11.09,66.83,11.1Zm1.76,6a2.16,2.16,0,0,1-.56.08H66.85c-.1,0-.13,0-.13-.14,0-.42,0-.84,0-1.26s0-.81,0-1.21c0-.11,0-.16.15-.15a10.18,10.18,0,0,1,1.56.06l.16,0a1.2,1.2,0,0,1,1,1.24A1.27,1.27,0,0,1,68.59,17.05Z"/><path class="cls-2" d="M37.75,11.67a1.89,1.89,0,0,0-1-1.08,2.7,2.7,0,0,0-1.24-.3c-.72,0-1.45,0-2.17,0-.19,0-.19,0-.19.18v7.36c0,.1,0,.14.13.14s.43,0,.65,0,.13,0,.13-.14V15.2c0-.11,0-.15.14-.15a11.77,11.77,0,0,0,1.33,0,2.46,2.46,0,0,0,2-1.26A2.57,2.57,0,0,0,37.75,11.67Zm-2.27,2.54c-.43,0-.86,0-1.29,0-.11,0-.09-.07-.09-.14V11.23c0-.06,0-.14.09-.13a14,14,0,0,1,1.45,0,1.34,1.34,0,0,1,1.2.87A1.58,1.58,0,0,1,35.48,14.21Z"/><path class="cls-2" d="M57.42,13.9a2,2,0,0,0-1.19-1.39A2.44,2.44,0,0,0,53,13.87,3.72,3.72,0,0,0,53,16.5a2.18,2.18,0,0,0,.74,1.08,2.13,2.13,0,0,0,1.17.48,3.52,3.52,0,0,0,2.18-.41c.05,0,.12,0,.12-.13,0-.25,0-.5,0-.75a.11.11,0,0,0-.1,0,2.73,2.73,0,0,1-1.43.52,1.67,1.67,0,0,1-1.59-.66,2,2,0,0,1-.35-1.09c0-.12,0-.15.13-.15h3.63c.07,0,.1,0,.1-.09A4.42,4.42,0,0,0,57.42,13.9Zm-.88.78H53.83c-.1,0-.13,0-.11-.13a2,2,0,0,1,.64-1.13,1.39,1.39,0,0,1,2,.26,1.83,1.83,0,0,1,.24.92C56.65,14.7,56.6,14.68,56.54,14.68Z"/><path class="cls-2" d="M43.59,13.81A2.2,2.2,0,0,0,42,12.42a3.3,3.3,0,0,0-1.13-.06,2.51,2.51,0,0,0-2.07,1.33,3.27,3.27,0,0,0-.34,1.57,1.09,1.09,0,0,0,0,.18,2.71,2.71,0,0,0,.66,1.81,2.77,2.77,0,0,0,4.6-1A3.73,3.73,0,0,0,43.59,13.81Zm-.76,2.24A1.61,1.61,0,0,1,41,17.33a1.74,1.74,0,0,1-1.62-1.74A2.64,2.64,0,0,1,39.63,14a1.67,1.67,0,0,1,1.74-.86,1.5,1.5,0,0,1,1.38,1.05,2.66,2.66,0,0,1,.17,1.09A2.8,2.8,0,0,1,42.83,16.05Z"/></g></g></svg>