<svg xmlns="http://www.w3.org/2000/svg" viewBox="0 0 117.78 30.52"><defs><style>.cls-1{fill:#1d1d1b;}.cls-2{fill:#e94e1b;}</style></defs><g id="Layer_2" data-name="Layer 2"><g id="Layer_1-2" data-name="Layer 1"><path class="cls-1" d="M11,18.39,11,9.84h0L7.83,18.39h-2L2.73,9.84h0l.07,8.55H0V6.32H4.15l2.74,7.75H7L9.59,6.32h4.23V18.39Z"/><path class="cls-1" d="M19.4,18.39H16.94V10.08h3.41a6,6,0,0,1,1.39.15,3.11,3.11,0,0,1,1.08.49,2.34,2.34,0,0,1,.7.83,2.7,2.7,0,0,1,.25,1.22,3,3,0,0,1-.25,1.28,2.39,2.39,0,0,1-.71.9,3.07,3.07,0,0,1-1.09.53,5.54,5.54,0,0,1-1.4.18H19.4Zm0-4.58h.72a1.35,1.35,0,0,0,.87-.25.94.94,0,0,0,.31-.75A.78.78,0,0,0,21,12.2a1.28,1.28,0,0,0-.86-.25H19.4Z"/><path class="cls-1" d="M25.87,10.08h2.46v6.24H31.4v2.07H25.87Z"/><path class="cls-1" d="M37.09,18.63a5,5,0,0,1-1.58-.25,3.36,3.36,0,0,1-1.18-.7,3,3,0,0,1-.75-1.09,3.8,3.8,0,0,1-.26-1.42V10.08h2.47V15a1.61,1.61,0,0,0,.34,1.07,1.2,1.2,0,0,0,1,.39,1.25,1.25,0,0,0,1-.39A1.59,1.59,0,0,0,38.45,15V10.08h2.46v5.09a3.62,3.62,0,0,1-.26,1.42,3.07,3.07,0,0,1-.76,1.09,3.49,3.49,0,0,1-1.21.7A5,5,0,0,1,37.09,18.63Z"/><path class="cls-1" d="M48.22,12.56a3.47,3.47,0,0,0-.75-.52,1.9,1.9,0,0,0-.9-.22,1.32,1.32,0,0,0-.64.16.56.56,0,0,0-.22.78A.59.59,0,0,0,46,13a5.56,5.56,0,0,0,1.07.34,5.53,5.53,0,0,1,.9.28,3,3,0,0,1,.8.46,2.08,2.08,0,0,1,.57.71,2,2,0,0,1,.22,1,2.73,2.73,0,0,1-.28,1.32,2.42,2.42,0,0,1-.79.86,3.18,3.18,0,0,1-1.07.5,5.15,5.15,0,0,1-1.18.15,5.81,5.81,0,0,1-1.85-.33,3.69,3.69,0,0,1-1.52-1l1.42-1.59a2.75,2.75,0,0,0,.86.65,2.35,2.35,0,0,0,1.07.26,1.31,1.31,0,0,0,.61-.15.58.58,0,0,0,.28-.56.56.56,0,0,0-.37-.57A7.53,7.53,0,0,0,45.53,15a7.63,7.63,0,0,1-.81-.26,2.73,2.73,0,0,1-.73-.44,2,2,0,0,1-.52-.67,2.32,2.32,0,0,1-.2-1,2.39,2.39,0,0,1,.29-1.26,2.54,2.54,0,0,1,.76-.87,3.31,3.31,0,0,1,1-.49,4.49,4.49,0,0,1,1.15-.16,5,5,0,0,1,1.71.3,3.74,3.74,0,0,1,1.41.9Z"/><path class="cls-1" d="M59.46,18.39,55,12.83h0v5.56H52.09V6.32h2.85v4.9H55L59.3,6.31H63l-5.19,5.56,5.51,6.52Z"/><path class="cls-1" d="M73.06,18.39,72.12,16H67.45l-.89,2.37H63.39L68.46,6.32h2.83l5,12.08ZM69.82,9.54l-1.54,4.14h3Z"/><path class="cls-1" d="M84.54,9.45a2.53,2.53,0,0,0-1-.76A2.76,2.76,0,0,0,82.4,8.4a3.81,3.81,0,0,0-.59,0,1.47,1.47,0,0,0-.54.2,1.21,1.21,0,0,0-.4.38,1,1,0,0,0-.16.57.9.9,0,0,0,.12.51,1.19,1.19,0,0,0,.38.36,3.81,3.81,0,0,0,.57.29l.77.26,1.28.45a5.08,5.08,0,0,1,1.21.66,3.41,3.41,0,0,1,.91,1,2.92,2.92,0,0,1,.35,1.51,3.82,3.82,0,0,1-.38,1.79,3.41,3.41,0,0,1-1,1.26,4.4,4.4,0,0,1-1.49.73,6.27,6.27,0,0,1-1.72.24,7.14,7.14,0,0,1-2.51-.45,5.3,5.3,0,0,1-2-1.29L79.07,15a3.59,3.59,0,0,0,1.17.91,3.31,3.31,0,0,0,1.44.37,3.38,3.38,0,0,0,.63-.07,1.81,1.81,0,0,0,.54-.22,1.18,1.18,0,0,0,.36-.41,1.23,1.23,0,0,0,.14-.62,1.06,1.06,0,0,0-.17-.57,1.72,1.72,0,0,0-.49-.44,5,5,0,0,0-.78-.36l-1.07-.35a9.77,9.77,0,0,1-1.13-.44,3.64,3.64,0,0,1-1-.66,2.8,2.8,0,0,1-.7-1,3.32,3.32,0,0,1-.27-1.39,3.55,3.55,0,0,1,.41-1.72,3.56,3.56,0,0,1,1.08-1.17,4.66,4.66,0,0,1,1.51-.67A6.79,6.79,0,0,1,82.43,6a6.44,6.44,0,0,1,2.09.38,5.22,5.22,0,0,1,1.87,1.11Z"/><path class="cls-1" d="M95.48,9.45a2.6,2.6,0,0,0-1-.76,2.77,2.77,0,0,0-1.17-.29,4,4,0,0,0-.59,0,1.54,1.54,0,0,0-.54.2,1.28,1.28,0,0,0-.39.38,1,1,0,0,0-.17.57,1,1,0,0,0,.13.51,1.19,1.19,0,0,0,.38.36,2.94,2.94,0,0,0,.59.29l.76.26,1.28.45a4.89,4.89,0,0,1,1.21.66,3.41,3.41,0,0,1,.91,1,2.92,2.92,0,0,1,.35,1.51,3.82,3.82,0,0,1-.38,1.79,3.41,3.41,0,0,1-1,1.26,4.4,4.4,0,0,1-1.49.73,6.27,6.27,0,0,1-1.72.24,7.23,7.23,0,0,1-2.51-.45,5.3,5.3,0,0,1-2-1.29L90,15a3.45,3.45,0,0,0,1.16.91,3.31,3.31,0,0,0,1.44.37,3.38,3.38,0,0,0,.63-.07A1.81,1.81,0,0,0,93.8,16a1.18,1.18,0,0,0,.37-.4,1.3,1.3,0,0,0,.14-.61,1.06,1.06,0,0,0-.17-.58,1.69,1.69,0,0,0-.49-.43,3.68,3.68,0,0,0-.78-.36l-1.07-.35a10.06,10.06,0,0,1-1.15-.44,4.07,4.07,0,0,1-1-.66,3.34,3.34,0,0,1-.7-1,3.36,3.36,0,0,1-.24-1.4,3.34,3.34,0,0,1,.41-1.72A3.56,3.56,0,0,1,90.2,6.89a4.7,4.7,0,0,1,1.5-.67A6.94,6.94,0,0,1,93.39,6a6.44,6.44,0,0,1,2.09.38,5.29,5.29,0,0,1,1.85,1.11Z"/><path class="cls-1" d="M108.23,18.39,107.29,16h-4.68l-.88,2.37H98.55l5.07-12.07h2.83l5,12.08ZM105,9.54l-1.53,4.14h3Z"/><path class="cls-2" d="M117.78,6.32h-6.32V0h4.28a2,2,0,0,1,2,2ZM113,4.84h3.35V2a.56.56,0,0,0-.56-.55H113Z"/><path d="M2,28.78.32,23.05H.93L2.34,28l1.5-4.95h.67L6,28l1.41-5H8L6.36,28.78H5.67l-1.5-5-1.5,5Z"/><path d="M10.24,24.59a1.87,1.87,0,0,1,1.47.64,2.27,2.27,0,0,1,.56,1.52c0,.06,0,.14,0,.25H8.66a1.43,1.43,0,0,0,.53,1,1.67,1.67,0,0,0,1.1.36,1.55,1.55,0,0,0,.8-.19,1.32,1.32,0,0,0,.52-.5l.47.28a1.87,1.87,0,0,1-.74.68,2.16,2.16,0,0,1-1.06.26,2.09,2.09,0,0,1-1.57-.61,2,2,0,0,1-.61-1.54,2.1,2.1,0,0,1,.6-1.53A2,2,0,0,1,10.24,24.59Zm0,.52a1.57,1.57,0,0,0-1.07.38,1.54,1.54,0,0,0-.51,1h3.05a1.51,1.51,0,0,0-.5-1A1.44,1.44,0,0,0,10.24,25.11Z"/><path d="M15.18,28.78v-6h.54v6Z"/><path d="M20.3,28.26a2.2,2.2,0,0,1-3.06,0,2.15,2.15,0,1,1,3.06,0Zm-2.68-.38a1.61,1.61,0,0,0,2.76-1.15,1.61,1.61,0,1,0-3.22,0A1.55,1.55,0,0,0,17.62,27.88Z"/><path d="M24.61,24.69h.57L23.5,28.78h-.65l-1.68-4.09h.57l1.44,3.51Z"/><path d="M27.56,24.59a1.84,1.84,0,0,1,1.47.64,2.22,2.22,0,0,1,.56,1.52c0,.06,0,.14,0,.25H26a1.47,1.47,0,0,0,.53,1,1.71,1.71,0,0,0,1.1.36,1.62,1.62,0,0,0,.81-.19,1.23,1.23,0,0,0,.51-.5l.48.28a1.87,1.87,0,0,1-.74.68,2.2,2.2,0,0,1-1.07.26A2.12,2.12,0,0,1,26,28.27a2.08,2.08,0,0,1-.6-1.54A2.14,2.14,0,0,1,26,25.2,2.06,2.06,0,0,1,27.56,24.59Zm0,.52a1.55,1.55,0,0,0-1.06.38,1.6,1.6,0,0,0-.52,1H29a1.55,1.55,0,0,0-.5-1A1.47,1.47,0,0,0,27.56,25.11Z"/><path d="M36.87,24.59A1.47,1.47,0,0,1,38,25a1.62,1.62,0,0,1,.43,1.2v2.55h-.54V26.23a1.19,1.19,0,0,0-.28-.83,1,1,0,0,0-.72-.29,1.11,1.11,0,0,0-.83.34,1.53,1.53,0,0,0-.31,1.06v2.27h-.54V26.23a1.21,1.21,0,0,0-.26-.83.89.89,0,0,0-.7-.29,1.11,1.11,0,0,0-.83.35A1.41,1.41,0,0,0,33,26.51v2.27H32.5V24.69H33v.59a1.41,1.41,0,0,1,1.25-.69,1.28,1.28,0,0,1,1.25.74A1.45,1.45,0,0,1,36.87,24.59Z"/><path d="M43,24.69h.54v4.09H43V28a1.84,1.84,0,0,1-1.66.9,2,2,0,0,1-1.49-.62,2.07,2.07,0,0,1-.62-1.53,2.12,2.12,0,0,1,2.11-2.14,1.84,1.84,0,0,1,1.66.9Zm-2.76,3.19a1.63,1.63,0,0,0,2.29,0A1.56,1.56,0,0,0,43,26.73a1.59,1.59,0,0,0-.47-1.15,1.62,1.62,0,0,0-2.76,1.15A1.52,1.52,0,0,0,40.21,27.88Z"/><path d="M48,28.78h-.72l-2.05-2v2h-.54V23.05h.54V26.5l2-1.81h.74l-2.11,2Z"/><path d="M49.25,23.7a.38.38,0,0,1-.28.12.36.36,0,0,1-.28-.12.36.36,0,0,1-.12-.27A.41.41,0,0,1,49,23a.38.38,0,0,1,.28.12.39.39,0,0,1,.11.28A.39.39,0,0,1,49.25,23.7Zm-.55,5.08V24.69h.54v4.09Z"/><path d="M52.3,24.59a1.52,1.52,0,0,1,1.17.45,1.71,1.71,0,0,1,.43,1.23v2.51h-.54V26.27a1.18,1.18,0,0,0-.29-.86,1.09,1.09,0,0,0-.82-.3,1.34,1.34,0,0,0-1,.37,1.62,1.62,0,0,0-.37,1.15v2.15h-.54V24.69h.54v.63A1.52,1.52,0,0,1,52.3,24.59Z"/><path d="M58.47,24.69H59v3.93a1.72,1.72,0,0,1-.6,1.39,2.19,2.19,0,0,1-1.45.51,2,2,0,0,1-1.94-1l.47-.27A1.49,1.49,0,0,0,57,30a1.57,1.57,0,0,0,1.11-.37,1.29,1.29,0,0,0,.4-1V28a1.83,1.83,0,0,1-1.65.9,2.06,2.06,0,0,1-1.5-.62,2.1,2.1,0,0,1-.61-1.53,2.1,2.1,0,0,1,2.11-2.14,1.83,1.83,0,0,1,1.65.9Zm-2.76,3.19a1.61,1.61,0,0,0,2.76-1.15,1.61,1.61,0,1,0-3.22,0A1.55,1.55,0,0,0,55.71,27.88Z"/><path d="M64.4,24.59a2.12,2.12,0,0,1,2.11,2.14,2.07,2.07,0,0,1-.62,1.53,2,2,0,0,1-1.49.62,1.82,1.82,0,0,1-1.65-.9v2.44h-.54V24.69h.54v.8A1.82,1.82,0,0,1,64.4,24.59Zm-1.19,3.29A1.61,1.61,0,0,0,66,26.73a1.61,1.61,0,1,0-3.22,0A1.55,1.55,0,0,0,63.21,27.88Z"/><path d="M70.85,28.26a2.2,2.2,0,0,1-3.06,0,2.16,2.16,0,0,1,3.06-3.05,2.19,2.19,0,0,1,0,3.05Zm-2.68-.38a1.61,1.61,0,0,0,2.76-1.15,1.61,1.61,0,1,0-3.22,0A1.55,1.55,0,0,0,68.17,27.88Z"/><path d="M72.92,23.7a.36.36,0,0,1-.27.12.36.36,0,0,1-.28-.12.36.36,0,0,1-.12-.27.41.41,0,0,1,.4-.4.36.36,0,0,1,.27.12.36.36,0,0,1,.12.28A.36.36,0,0,1,72.92,23.7Zm-.54,5.08V24.69h.54v4.09Z"/><path d="M76,24.59a1.54,1.54,0,0,1,1.17.45,1.71,1.71,0,0,1,.43,1.23v2.51H77V26.27a1.18,1.18,0,0,0-.29-.86,1.09,1.09,0,0,0-.82-.3,1.34,1.34,0,0,0-1,.37,1.62,1.62,0,0,0-.37,1.15v2.15h-.54V24.69h.54v.63A1.52,1.52,0,0,1,76,24.59Z"/><path d="M80.8,25.21H79.62v2.48a.71.71,0,0,0,.13.48.54.54,0,0,0,.4.15h.65v.47a2,2,0,0,1-1.29-.12,1,1,0,0,1-.43-1V25.21h-.86v-.52h.86v-1l.54-.16v1.15H80.8Z"/><path d="M81.88,25.75a.48.48,0,0,0,.25.43,2.05,2.05,0,0,0,.6.26l.71.21A1.17,1.17,0,0,1,84,27a1,1,0,0,1,.24.69,1,1,0,0,1-.41.85,1.67,1.67,0,0,1-1.07.33,1.86,1.86,0,0,1-1-.26,1.45,1.45,0,0,1-.58-.68l.46-.27a.91.91,0,0,0,.41.5,1.36,1.36,0,0,0,.71.18,1.26,1.26,0,0,0,.67-.16.52.52,0,0,0,.27-.49.5.5,0,0,0-.24-.44,2.37,2.37,0,0,0-.6-.27l-.71-.2a1.17,1.17,0,0,1-.59-.36.9.9,0,0,1-.25-.67,1.06,1.06,0,0,1,.4-.84,1.51,1.51,0,0,1,1-.33,1.69,1.69,0,0,1,.88.22,1.41,1.41,0,0,1,.55.61l-.45.26a.94.94,0,0,0-1-.57,1.06,1.06,0,0,0-.6.17A.52.52,0,0,0,81.88,25.75Z"/><path d="M90.65,28.26a2.07,2.07,0,0,1-1.52.62,2.11,2.11,0,0,1-1.53-.62,2.16,2.16,0,0,1,0-3.05,2.07,2.07,0,0,1,1.53-.62,2.15,2.15,0,0,1,1.52,3.67ZM88,27.88a1.63,1.63,0,0,0,2.29,0,1.56,1.56,0,0,0,.47-1.15,1.59,1.59,0,0,0-.47-1.15,1.63,1.63,0,0,0-2.29,0,1.59,1.59,0,0,0-.47,1.15A1.56,1.56,0,0,0,88,27.88Z"/><path d="M94.06,23.47a1.16,1.16,0,0,0-.88.21,1,1,0,0,0-.29.84v.17h1.17v.52H92.89v3.57h-.54V25.21h-.7v-.52h.7v-.17a1.55,1.55,0,0,1,.44-1.21A1.6,1.6,0,0,1,94.06,23Z"/><path d="M97.11,25.75a.48.48,0,0,0,.25.43,2.05,2.05,0,0,0,.6.26l.7.21a1.16,1.16,0,0,1,.6.36,1,1,0,0,1,.24.69,1,1,0,0,1-.41.85,1.67,1.67,0,0,1-1.07.33,1.86,1.86,0,0,1-1-.26,1.45,1.45,0,0,1-.58-.68l.46-.27a.91.91,0,0,0,.41.5,1.36,1.36,0,0,0,.71.18,1.26,1.26,0,0,0,.67-.16A.52.52,0,0,0,99,27.7a.5.5,0,0,0-.24-.44,2.37,2.37,0,0,0-.6-.27l-.71-.2a1.17,1.17,0,0,1-.59-.36.9.9,0,0,1-.25-.67,1.06,1.06,0,0,1,.4-.84,1.51,1.51,0,0,1,1-.33,1.69,1.69,0,0,1,.88.22,1.41,1.41,0,0,1,.55.61l-.45.26a1,1,0,0,0-1-.57,1.12,1.12,0,0,0-.61.17A.54.54,0,0,0,97.11,25.75Z"/><path d="M103.8,24.69h.54v4.09h-.54V28a1.84,1.84,0,0,1-1.65.9,2,2,0,0,1-1.5-.62,2.11,2.11,0,0,1-.62-1.53,2.07,2.07,0,0,1,.62-1.52,2,2,0,0,1,1.5-.62,1.84,1.84,0,0,1,1.65.9ZM101,27.88a1.63,1.63,0,0,0,2.29,0,1.56,1.56,0,0,0,.47-1.15,1.59,1.59,0,0,0-.47-1.15,1.63,1.63,0,0,0-2.29,0,1.59,1.59,0,0,0-.47,1.15A1.56,1.56,0,0,0,101,27.88Z"/><path d="M105.49,28.78v-6H106v6Z"/><path d="M109.06,24.59a1.84,1.84,0,0,1,1.47.64,2.22,2.22,0,0,1,.56,1.52c0,.06,0,.14,0,.25h-3.6a1.51,1.51,0,0,0,.53,1,1.71,1.71,0,0,0,1.1.36,1.62,1.62,0,0,0,.81-.19,1.23,1.23,0,0,0,.51-.5l.48.28a1.87,1.87,0,0,1-.74.68,2.19,2.19,0,0,1-1.06.26,2.12,2.12,0,0,1-1.58-.61,2.08,2.08,0,0,1-.6-1.54,2.1,2.1,0,0,1,.6-1.53A2,2,0,0,1,109.06,24.59Zm0,.52a1.55,1.55,0,0,0-1.06.38,1.6,1.6,0,0,0-.52,1h3.06a1.55,1.55,0,0,0-.5-1A1.45,1.45,0,0,0,109.06,25.11Z"/></g></g></svg>