<svg xmlns="http://www.w3.org/2000/svg" viewBox="0 0 74.22 19.79"><defs><style>.cls-1{fill:red;}.cls-2{fill:#fffdf8;}</style></defs><g id="Layer_2" data-name="Layer 2"><g id="Layer_1-2" data-name="Layer 1"><rect class="cls-1" width="74.22" height="19.79"/><path class="cls-2" d="M5.56,6.43a2.75,2.75,0,0,1,.51-1.49,2.87,2.87,0,0,1,1.2-1A4.12,4.12,0,0,1,9,3.62a3.89,3.89,0,0,1,1.59.31,2.47,2.47,0,0,1,1.06.86A2.24,2.24,0,0,1,12,6.07a2.07,2.07,0,0,1-.27,1,3.61,3.61,0,0,1-.84,1,12.29,12.29,0,0,1-1.53,1L7.45,10.21l-.1-.5H12.2V11.2H5.68V9.9L8.54,8.07a11.75,11.75,0,0,0,1.08-.75,2.4,2.4,0,0,0,.55-.58,1.17,1.17,0,0,0,.16-.57,1.11,1.11,0,0,0-.16-.57,1,1,0,0,0-.47-.38,2,2,0,0,0-.78-.14A2.11,2.11,0,0,0,8,5.26a1.29,1.29,0,0,0-.54.49,1.76,1.76,0,0,0-.22.68Z"/><path class="cls-2" d="M16.66,11.36a3.85,3.85,0,0,1-2-.48,3.27,3.27,0,0,1-1.28-1.35,4.26,4.26,0,0,1-.46-2,4.21,4.21,0,0,1,.46-2A3.24,3.24,0,0,1,14.7,4.11a4.15,4.15,0,0,1,3.91,0,3.27,3.27,0,0,1,1.28,1.35,4.25,4.25,0,0,1,.46,2,4.22,4.22,0,0,1-.46,2,3.29,3.29,0,0,1-1.28,1.36A3.81,3.81,0,0,1,16.66,11.36Zm0-1.52a1.86,1.86,0,0,0,1.48-.61,2.55,2.55,0,0,0,.53-1.74,2.54,2.54,0,0,0-.53-1.73,1.83,1.83,0,0,0-1.48-.61,1.87,1.87,0,0,0-1.49.61,2.59,2.59,0,0,0-.53,1.73,2.6,2.6,0,0,0,.53,1.74A1.9,1.9,0,0,0,16.66,9.84Z"/><path class="cls-2" d="M21.23,7H23.5V8.47H21.23Z"/><path class="cls-2" d="M25.11,3.78h5.14V5.19H25.61l.68-.36-.37,2.79h-.43A2.41,2.41,0,0,1,26,7a2.88,2.88,0,0,1,.84-.5A3.41,3.41,0,0,1,28,6.27a3.19,3.19,0,0,1,1.47.31,2.35,2.35,0,0,1,.95.87,2.46,2.46,0,0,1,.33,1.28,2.51,2.51,0,0,1-.38,1.36,2.66,2.66,0,0,1-1.1.93,3.94,3.94,0,0,1-1.72.34,4.23,4.23,0,0,1-1.7-.31,2.7,2.7,0,0,1-1.13-.87A2.49,2.49,0,0,1,24.27,9h1.67a1.08,1.08,0,0,0,.52.69,2.18,2.18,0,0,0,1.12.26,2.14,2.14,0,0,0,.81-.14,1.24,1.24,0,0,0,.53-.42,1.07,1.07,0,0,0,.19-.63,1.14,1.14,0,0,0-.17-.61,1.07,1.07,0,0,0-.49-.42,1.92,1.92,0,0,0-.81-.15,2.59,2.59,0,0,0-.71.1,2,2,0,0,0-.55.26,1.88,1.88,0,0,0-.39.33H24.54Z"/><path class="cls-2" d="M35.21,11.36a3.82,3.82,0,0,1-2-.48A3.27,3.27,0,0,1,32,9.53a4.26,4.26,0,0,1-.46-2,4.21,4.21,0,0,1,.46-2,3.24,3.24,0,0,1,1.28-1.36,4.15,4.15,0,0,1,3.91,0,3.27,3.27,0,0,1,1.28,1.35,4.25,4.25,0,0,1,.46,2,4.22,4.22,0,0,1-.46,2,3.29,3.29,0,0,1-1.28,1.36A3.81,3.81,0,0,1,35.21,11.36Zm0-1.52a1.88,1.88,0,0,0,1.48-.61,2.6,2.6,0,0,0,.53-1.74,2.59,2.59,0,0,0-.53-1.73,1.85,1.85,0,0,0-1.48-.61,1.87,1.87,0,0,0-1.49.61,2.54,2.54,0,0,0-.53,1.73,2.55,2.55,0,0,0,.53,1.74A1.9,1.9,0,0,0,35.21,9.84Z"/><path class="cls-2" d="M41.82,8.11a2.49,2.49,0,0,1-1.21-.28,1.91,1.91,0,0,1-.81-.78,2.2,2.2,0,0,1-.3-1.16,2.19,2.19,0,0,1,.3-1.15A2,2,0,0,1,40.61,4a2.6,2.6,0,0,1,1.21-.28A2.57,2.57,0,0,1,43,4a2.14,2.14,0,0,1,.81.77,2.19,2.19,0,0,1,.29,1.15,2.2,2.2,0,0,1-.29,1.16,2,2,0,0,1-.81.78A2.46,2.46,0,0,1,41.82,8.11Zm0-1.08a1,1,0,0,0,.74-.3,1.2,1.2,0,0,0,.27-.83,1.2,1.2,0,0,0-.26-.83,1,1,0,0,0-.75-.31.94.94,0,0,0-.74.31,1.2,1.2,0,0,0-.27.83,1.2,1.2,0,0,0,.27.83A.94.94,0,0,0,41.82,7Zm4.35-3.25H47.4L43.76,11.2H42.53Zm1.93,7.58a2.6,2.6,0,0,1-1.21-.27,2,2,0,0,1-.81-.79,2.45,2.45,0,0,1,0-2.31,1.94,1.94,0,0,1,.81-.77,2.49,2.49,0,0,1,1.21-.28,2.46,2.46,0,0,1,1.21.28,2.07,2.07,0,0,1,.81.77,2.18,2.18,0,0,1,.3,1.16,2.19,2.19,0,0,1-.3,1.15,2.12,2.12,0,0,1-.81.79A2.57,2.57,0,0,1,48.1,11.36Zm0-1.09a.94.94,0,0,0,.74-.29,1.2,1.2,0,0,0,.27-.83,1.2,1.2,0,0,0-.26-.83A1,1,0,0,0,48.1,8a.94.94,0,0,0-.74.3,1.2,1.2,0,0,0-.27.83,1.2,1.2,0,0,0,.27.83A.93.93,0,0,0,48.1,10.27Z"/><path class="cls-2" d="M56.37,11.36A3.6,3.6,0,0,1,54.68,11a2.77,2.77,0,0,1-1.12-1.05,3,3,0,0,1-.4-1.56,2.91,2.91,0,0,1,.4-1.55,2.73,2.73,0,0,1,1.13-1,4,4,0,0,1,3.36,0,2.73,2.73,0,0,1,1.13,1,2.91,2.91,0,0,1,.4,1.55,2.92,2.92,0,0,1-.4,1.56A2.73,2.73,0,0,1,58.05,11,3.59,3.59,0,0,1,56.37,11.36Zm0-1.38a1.78,1.78,0,0,0,.83-.19,1.31,1.31,0,0,0,.52-.55,1.79,1.79,0,0,0,.19-.86,1.75,1.75,0,0,0-.19-.85A1.31,1.31,0,0,0,57.2,7a1.78,1.78,0,0,0-.83-.19,1.74,1.74,0,0,0-.82.19,1.43,1.43,0,0,0-.54.55,1.87,1.87,0,0,0-.18.85,1.91,1.91,0,0,0,.18.86,1.43,1.43,0,0,0,.54.55A1.74,1.74,0,0,0,56.37,10Z"/><path class="cls-2" d="M60,7.39V6h4.65V7.39ZM63.74,4.8A1.16,1.16,0,0,0,63,5a1,1,0,0,0-.24.74V11.2H61.05V6a3.14,3.14,0,0,1,.28-1.36,2,2,0,0,1,.84-.86,2.85,2.85,0,0,1,1.38-.3,2.9,2.9,0,0,1,.62.06,3.5,3.5,0,0,1,.55.17V5a2.54,2.54,0,0,0-.46-.17A2.12,2.12,0,0,0,63.74,4.8Zm.55,2.59V6H69V7.39ZM68,4.8a1.18,1.18,0,0,0-.8.23,1,1,0,0,0-.25.74V11.2H65.35V6a3,3,0,0,1,.28-1.36,1.92,1.92,0,0,1,.83-.86,3.3,3.3,0,0,1,2-.24,4,4,0,0,1,.56.17V5a3,3,0,0,0-.47-.17A2.1,2.1,0,0,0,68,4.8Z"/><path class="cls-2" d="M10.25,14.88A2.25,2.25,0,0,1,9.87,16a2.14,2.14,0,0,1-.83.72,2.65,2.65,0,0,1-1.18.25,2.63,2.63,0,0,1-1.28-.3,2.13,2.13,0,0,1-.85-.86,2.53,2.53,0,0,1-.31-1.28,2.5,2.5,0,0,1,.31-1.28,2.07,2.07,0,0,1,.85-.86A2.53,2.53,0,0,1,7.86,12,2.66,2.66,0,0,1,9,12.29a2.2,2.2,0,0,1,.83.71,2.25,2.25,0,0,1,.38,1.07H9.18A1.32,1.32,0,0,0,9,13.53a1.06,1.06,0,0,0-.45-.35,1.64,1.64,0,0,0-.65-.12,1.47,1.47,0,0,0-.72.17,1.17,1.17,0,0,0-.47.49,1.64,1.64,0,0,0-.16.76,1.6,1.6,0,0,0,.16.75,1.2,1.2,0,0,0,.47.5,1.47,1.47,0,0,0,.72.17,1.64,1.64,0,0,0,.65-.12A1.06,1.06,0,0,0,9,15.43a1.25,1.25,0,0,0,.23-.55Z"/><path class="cls-2" d="M10.76,12h1v4.81h-1Z"/><path class="cls-2" d="M14.32,16.92a2.26,2.26,0,0,1-1-.23,1.76,1.76,0,0,1-.71-.67,2,2,0,0,1,0-2,1.64,1.64,0,0,1,.68-.65,2,2,0,0,1,1-.24,1.72,1.72,0,0,1,1,.27,1.79,1.79,0,0,1,.62.78,2.81,2.81,0,0,1,.22,1.17H13.16v-.73h2.32l-.38.27a1.05,1.05,0,0,0-.13-.5.77.77,0,0,0-.71-.42.89.89,0,0,0-.47.12.71.71,0,0,0-.31.33,1.07,1.07,0,0,0-.11.49,1.17,1.17,0,0,0,.15.61,1,1,0,0,0,.41.38,1.51,1.51,0,0,0,.67.13,2.57,2.57,0,0,0,.72-.11,2.3,2.3,0,0,0,.65-.31v.76a3,3,0,0,1-.75.39A2.92,2.92,0,0,1,14.32,16.92Z"/><path class="cls-2" d="M19.75,15a2.88,2.88,0,0,1-.32,1,1.92,1.92,0,0,1-.6.66,1.5,1.5,0,0,1-.81.23,1.54,1.54,0,0,1-.83-.23,1.65,1.65,0,0,1-.56-.66,2.36,2.36,0,0,1-.2-1,2.32,2.32,0,0,1,.2-1,1.53,1.53,0,0,1,.56-.66,1.47,1.47,0,0,1,.83-.24,1.5,1.5,0,0,1,.81.23,1.92,1.92,0,0,1,.6.66A2.68,2.68,0,0,1,19.75,15Zm-2.26,0a1.19,1.19,0,0,0,.1.51.86.86,0,0,0,.3.35.74.74,0,0,0,.44.13.9.9,0,0,0,.47-.13,1.28,1.28,0,0,0,.39-.35,1.73,1.73,0,0,0,.25-.51,1.73,1.73,0,0,0-.25-.51,1.43,1.43,0,0,0-.39-.35,1,1,0,0,0-.47-.13.81.81,0,0,0-.44.13.93.93,0,0,0-.3.35A1.19,1.19,0,0,0,17.49,15Zm2,1.78-.14-1.29L19.5,15l-.15-.48.14-1.3h1.09L20.38,15l.2,1.78Z"/><path class="cls-2" d="M21,13.26h1.06l.19,1.28v2.28H21.22V14.45Zm2.78,0v1a1.59,1.59,0,0,0-.3-.06l-.28,0a.91.91,0,0,0-.83.51,1.66,1.66,0,0,0-.12.68L22.06,15a3.89,3.89,0,0,1,.13-.71,2,2,0,0,1,.25-.6,1.1,1.1,0,0,1,.39-.41,1,1,0,0,1,.56-.15h.21Z"/><path class="cls-2" d="M27.31,15A3.11,3.11,0,0,1,27,16a1.92,1.92,0,0,1-.6.66,1.5,1.5,0,0,1-.81.23,1.52,1.52,0,0,1-.83-.23,1.58,1.58,0,0,1-.56-.66A2.22,2.22,0,0,1,24,15a2.17,2.17,0,0,1,.21-1,1.46,1.46,0,0,1,.56-.66,1.45,1.45,0,0,1,.83-.24,1.5,1.5,0,0,1,.81.23,1.92,1.92,0,0,1,.6.66A2.88,2.88,0,0,1,27.31,15ZM25,15a1.19,1.19,0,0,0,.11.51.79.79,0,0,0,.3.35.71.71,0,0,0,.43.13.88.88,0,0,0,.47-.13,1.18,1.18,0,0,0,.39-.35A1.54,1.54,0,0,0,27,15a1.54,1.54,0,0,0-.26-.51,1.3,1.3,0,0,0-.39-.35,1,1,0,0,0-.47-.13.78.78,0,0,0-.43.13.85.85,0,0,0-.3.35A1.19,1.19,0,0,0,25,15Zm2,1.78-.14-1.29.15-.49-.15-.48.14-1.3h1.08L27.94,15l.19,1.78Z"/><path class="cls-2" d="M28.57,13.26h1l.21,1.39v2.17h-1V14.47Zm2.45-.1a1.52,1.52,0,0,1,.79.2,1.33,1.33,0,0,1,.49.58,2.05,2.05,0,0,1,.17.89v2h-1V15a1,1,0,0,0-.2-.67.71.71,0,0,0-.56-.23.79.79,0,0,0-.45.12.77.77,0,0,0-.29.35,1.17,1.17,0,0,0-.11.52l-.33-.19a2.41,2.41,0,0,1,.28-1,1.55,1.55,0,0,1,.54-.59A1.36,1.36,0,0,1,31,13.16Z"/><path class="cls-2" d="M36.85,15.34a1.62,1.62,0,0,1-.31.83,1.87,1.87,0,0,1-.69.55,2,2,0,0,1-.94.2,2.22,2.22,0,0,1-1-.23,1.74,1.74,0,0,1-.7-.67,2.12,2.12,0,0,1,0-2,1.71,1.71,0,0,1,.7-.66,2.11,2.11,0,0,1,1-.24,2.16,2.16,0,0,1,.94.2,1.87,1.87,0,0,1,.69.55,1.58,1.58,0,0,1,.31.83h-1a.83.83,0,0,0-.3-.53,1,1,0,0,0-.6-.18,1,1,0,0,0-.48.12.84.84,0,0,0-.32.35,1.38,1.38,0,0,0,0,1.08.78.78,0,0,0,.32.35,1,1,0,0,0,.48.12,1,1,0,0,0,.6-.19.83.83,0,0,0,.3-.52Z"/><path class="cls-2" d="M39.18,16.92a2.29,2.29,0,0,1-1-.23,1.76,1.76,0,0,1-.71-.67,2,2,0,0,1,0-2,1.64,1.64,0,0,1,.68-.65,2,2,0,0,1,1-.24,1.7,1.7,0,0,1,1,.27,1.79,1.79,0,0,1,.62.78,2.81,2.81,0,0,1,.22,1.17H38v-.73h2.32l-.38.27a1.05,1.05,0,0,0-.13-.5.67.67,0,0,0-.29-.31.73.73,0,0,0-.42-.11.89.89,0,0,0-.47.12.77.77,0,0,0-.31.33,1.07,1.07,0,0,0-.11.49,1.17,1.17,0,0,0,.15.61,1,1,0,0,0,.41.38,1.54,1.54,0,0,0,.67.13,2.57,2.57,0,0,0,.72-.11,2.3,2.3,0,0,0,.65-.31v.76a3,3,0,0,1-.75.39A2.92,2.92,0,0,1,39.18,16.92Z"/><path class="cls-2" d="M43.67,14.2h1.58a.65.65,0,0,0,.47-.16.52.52,0,0,0,.18-.42.52.52,0,0,0-.18-.43.65.65,0,0,0-.47-.16H43.51l.48-.58v4.37H42.93V12.13h2.46a1.85,1.85,0,0,1,.83.19,1.45,1.45,0,0,1,.55.52,1.51,1.51,0,0,1,.2.78,1.46,1.46,0,0,1-.2.76,1.31,1.31,0,0,1-.55.52,1.72,1.72,0,0,1-.83.19H43.67Zm.68.43h1.2l1.55,2.19H45.87Z"/><path class="cls-2" d="M50.63,15a2.68,2.68,0,0,1-.32,1,1.92,1.92,0,0,1-.6.66,1.5,1.5,0,0,1-.81.23,1.54,1.54,0,0,1-.83-.23,1.65,1.65,0,0,1-.56-.66,2.36,2.36,0,0,1-.2-1,2.32,2.32,0,0,1,.2-1,1.53,1.53,0,0,1,.56-.66,1.47,1.47,0,0,1,.83-.24,1.5,1.5,0,0,1,.81.23,1.92,1.92,0,0,1,.6.66A2.68,2.68,0,0,1,50.63,15Zm-2.26,0a1.19,1.19,0,0,0,.1.51.86.86,0,0,0,.3.35.74.74,0,0,0,.44.13.9.9,0,0,0,.47-.13,1.18,1.18,0,0,0,.39-.35,1.52,1.52,0,0,0,.25-.51,1.52,1.52,0,0,0-.25-.51,1.3,1.3,0,0,0-.39-.35,1,1,0,0,0-.47-.13.81.81,0,0,0-.44.13.93.93,0,0,0-.3.35A1.19,1.19,0,0,0,48.37,15Zm2,1.78-.14-1.29.15-.49-.15-.48.14-1.3h1.09L51.26,15l.2,1.78Z"/><path class="cls-2" d="M51.9,13.26h1l.21,1.39v2.17h-1V14.47Zm2.45-.1a1.48,1.48,0,0,1,.78.2,1.35,1.35,0,0,1,.5.58,2.21,2.21,0,0,1,.17.89v2h-1V15a.94.94,0,0,0-.2-.67.69.69,0,0,0-.56-.23.76.76,0,0,0-.74.47,1.18,1.18,0,0,0-.1.52l-.33-.19a2.59,2.59,0,0,1,.27-1,1.72,1.72,0,0,1,.54-.59A1.39,1.39,0,0,1,54.35,13.16Z"/><path class="cls-2" d="M57.84,16.47a1.68,1.68,0,0,1-.81-.2,1.56,1.56,0,0,1-.56-.58,2,2,0,0,1,0-1.75,1.53,1.53,0,0,1,.56-.57,1.58,1.58,0,0,1,.81-.21,1.8,1.8,0,0,1,.62.11,2,2,0,0,1,.5.31,2.05,2.05,0,0,1,.37.41,1.69,1.69,0,0,1,.23.44,1.29,1.29,0,0,1,.08.4,1.2,1.2,0,0,1-.13.51,2,2,0,0,1-.35.54,1.86,1.86,0,0,1-.57.43A1.65,1.65,0,0,1,57.84,16.47Zm1.42-.54v-.61l0-.14v-.83l0-.13v-1h1v2.61A2.22,2.22,0,0,1,60,17a1.74,1.74,0,0,1-.76.71,2.46,2.46,0,0,1-1.12.24,2.66,2.66,0,0,1-.82-.12,3.1,3.1,0,0,1-.74-.39v-.89a2.22,2.22,0,0,0,.72.42,2.27,2.27,0,0,0,.77.13,1.22,1.22,0,0,0,.87-.29A1.16,1.16,0,0,0,59.26,15.93Zm-1.07-.26a1,1,0,0,0,.62-.21,1.65,1.65,0,0,0,.48-.64,1.76,1.76,0,0,0-.48-.66,1.07,1.07,0,0,0-.62-.2.85.85,0,0,0-.46.11.76.76,0,0,0-.3.29,1,1,0,0,0-.1.46.87.87,0,0,0,.1.44.65.65,0,0,0,.29.3A1,1,0,0,0,58.19,15.67Z"/><path class="cls-2" d="M62.8,16.92a2.25,2.25,0,0,1-1-.23,1.79,1.79,0,0,1-.72-.67,1.87,1.87,0,0,1-.26-1,2,2,0,0,1,.25-1,1.73,1.73,0,0,1,.69-.65,2,2,0,0,1,1-.24,1.7,1.7,0,0,1,1,.27,1.88,1.88,0,0,1,.63.78,3,3,0,0,1,.22,1.17h-2.9v-.73H64l-.37.27a1.35,1.35,0,0,0-.13-.5.73.73,0,0,0-.29-.31.75.75,0,0,0-.43-.11.91.91,0,0,0-.47.12.69.69,0,0,0-.3.33,1,1,0,0,0-.11.49,1.28,1.28,0,0,0,.14.61,1,1,0,0,0,.42.38,1.47,1.47,0,0,0,.66.13A2.57,2.57,0,0,0,63.8,16a2.3,2.3,0,0,0,.65-.31v.76a2.89,2.89,0,0,1-.74.39A2.94,2.94,0,0,1,62.8,16.92Z"/><path class="cls-2" d="M68.67,15.68a1.1,1.1,0,0,1-.21.68,1.33,1.33,0,0,1-.61.42,3.15,3.15,0,0,1-1,.14,2.93,2.93,0,0,1-1-.16,1.62,1.62,0,0,1-.7-.46,1.1,1.1,0,0,1-.26-.68h1.06a.61.61,0,0,0,.16.28.88.88,0,0,0,.33.18,1.75,1.75,0,0,0,.48.06,1.33,1.33,0,0,0,.56-.09.29.29,0,0,0,.2-.26.24.24,0,0,0-.14-.21,1.77,1.77,0,0,0-.49-.09l-.59-.06a2.45,2.45,0,0,1-.88-.19,1,1,0,0,1-.46-.38,1,1,0,0,1-.14-.52,1,1,0,0,1,.22-.66,1.44,1.44,0,0,1,.62-.39,2.84,2.84,0,0,1,.92-.13,2.73,2.73,0,0,1,.94.15,1.7,1.7,0,0,1,.67.44,1,1,0,0,1,.28.64H67.55a.57.57,0,0,0-.12-.23.7.7,0,0,0-.28-.17,1.32,1.32,0,0,0-.48-.07,1.36,1.36,0,0,0-.51.08.28.28,0,0,0-.17.24.23.23,0,0,0,.11.19,1.07,1.07,0,0,0,.4.1l.76.06a2.75,2.75,0,0,1,.85.19,1,1,0,0,1,.44.37A1.09,1.09,0,0,1,68.67,15.68Z"/></g></g></svg>