<svg xmlns="http://www.w3.org/2000/svg" viewBox="0 0 86.88 9.41"><defs><style>.cls-1{fill:#ee7911;}</style></defs><g id="Layer_2" data-name="Layer 2"><g id="Layer_1-2" data-name="Layer 1"><path class="cls-1" d="M6.79,9.26,10.28.16h1.3l3.73,9.1H13.94L12.87,6.5H9.07l-1,2.76ZM9.41,5.52H12.5L11.55,3c-.29-.77-.5-1.4-.64-1.89a10.77,10.77,0,0,1-.5,1.74Z"/><path class="cls-1" d="M16.4,9.26V3.54h-1V2.67h1V2a3.33,3.33,0,0,1,.11-1,1.46,1.46,0,0,1,.57-.71A2,2,0,0,1,18.22,0a5.86,5.86,0,0,1,1.05.11l-.17,1A3.85,3.85,0,0,0,18.44,1a1,1,0,0,0-.72.21,1.21,1.21,0,0,0-.21.82v.61h1.28v.87H17.51V9.26Z"/><path class="cls-1" d="M19.64,9.26V.16h1.12v9.1Z"/><path class="cls-1" d="M26.8,8.45a4.21,4.21,0,0,1-1.2.74,3.32,3.32,0,0,1-1.23.22,2.39,2.39,0,0,1-1.67-.53,1.76,1.76,0,0,1-.59-1.36,1.88,1.88,0,0,1,.22-.88A1.79,1.79,0,0,1,22.91,6a2.54,2.54,0,0,1,.8-.37,7.16,7.16,0,0,1,1-.17,11.13,11.13,0,0,0,2-.38c0-.16,0-.25,0-.3a1.25,1.25,0,0,0-.32-1,1.87,1.87,0,0,0-1.27-.38A2,2,0,0,0,24,3.72a1.67,1.67,0,0,0-.55,1l-1.1-.15a2.72,2.72,0,0,1,.5-1.14,2.1,2.1,0,0,1,1-.66,4.3,4.3,0,0,1,1.5-.23,4,4,0,0,1,1.37.19,2,2,0,0,1,.78.5,1.82,1.82,0,0,1,.35.77,6.14,6.14,0,0,1,0,1V6.5a14.62,14.62,0,0,0,.08,2,2.27,2.27,0,0,0,.28.79H27A2.19,2.19,0,0,1,26.8,8.45ZM26.7,6a7.56,7.56,0,0,1-1.82.42,4,4,0,0,0-1,.23.93.93,0,0,0-.44.36,1,1,0,0,0-.16.53,1,1,0,0,0,.34.75,1.46,1.46,0,0,0,1,.3,2.26,2.26,0,0,0,1.15-.29,1.67,1.67,0,0,0,.74-.77,2.71,2.71,0,0,0,.18-1.12ZM26.37.17h.76a1.77,1.77,0,0,1-.57,1.19,1.81,1.81,0,0,1-1.26.42A1.85,1.85,0,0,1,24,1.36,1.75,1.75,0,0,1,23.46.17h.76a1.08,1.08,0,0,0,.35.63,1.05,1.05,0,0,0,.69.21A1.17,1.17,0,0,0,26,.8,1,1,0,0,0,26.37.17Z"/><path class="cls-1" d="M33.1,9.26V2.67h1v.92a2.39,2.39,0,0,1,.83-.78,2.26,2.26,0,0,1,1.17-.29,2.18,2.18,0,0,1,1.2.3,1.62,1.62,0,0,1,.67.85,2.36,2.36,0,0,1,2-1.15,2,2,0,0,1,1.51.54A2.28,2.28,0,0,1,42,4.73V9.26H40.93V5.11a3.16,3.16,0,0,0-.11-1,.89.89,0,0,0-.39-.47,1.16,1.16,0,0,0-.67-.18A1.56,1.56,0,0,0,38.6,4a2,2,0,0,0-.46,1.48V9.26H37V5a1.91,1.91,0,0,0-.27-1.12,1,1,0,0,0-.9-.37,1.68,1.68,0,0,0-.87.24,1.41,1.41,0,0,0-.58.73,4.11,4.11,0,0,0-.18,1.38V9.26Z"/><path class="cls-1" d="M48,8.45a4.21,4.21,0,0,1-1.2.74,3.32,3.32,0,0,1-1.23.22,2.39,2.39,0,0,1-1.67-.53,1.76,1.76,0,0,1-.59-1.36,1.88,1.88,0,0,1,.22-.88A1.79,1.79,0,0,1,44.12,6a2.54,2.54,0,0,1,.8-.37,7.16,7.16,0,0,1,1-.17,11.13,11.13,0,0,0,2-.38c0-.16,0-.25,0-.3a1.25,1.25,0,0,0-.32-1,1.87,1.87,0,0,0-1.27-.38,2,2,0,0,0-1.17.28,1.67,1.67,0,0,0-.55,1l-1.1-.15A2.72,2.72,0,0,1,44,3.41a2.1,2.1,0,0,1,1-.66,4.3,4.3,0,0,1,1.5-.23,4,4,0,0,1,1.37.19,2,2,0,0,1,.78.5A1.82,1.82,0,0,1,49,4a6.14,6.14,0,0,1,0,1V6.5a14.62,14.62,0,0,0,.08,2,2.27,2.27,0,0,0,.28.79H48.23A2.19,2.19,0,0,1,48,8.45ZM47.91,6a7.56,7.56,0,0,1-1.82.42,4,4,0,0,0-1,.23.93.93,0,0,0-.44.36,1,1,0,0,0-.16.53,1,1,0,0,0,.34.75,1.46,1.46,0,0,0,1,.3A2.26,2.26,0,0,0,47,8.25a1.67,1.67,0,0,0,.74-.77,2.71,2.71,0,0,0,.18-1.12Z"/><path class="cls-1" d="M50.78,1.44V.16H51.9V1.44Zm0,7.82V2.67H51.9V9.26Z"/><path class="cls-1" d="M57.14,9.26V2.67h1v.92A2.45,2.45,0,0,1,59,2.81a2.32,2.32,0,0,1,1.18-.29,2.18,2.18,0,0,1,1.2.3,1.65,1.65,0,0,1,.66.85,2.36,2.36,0,0,1,2-1.15,2,2,0,0,1,1.51.54,2.32,2.32,0,0,1,.53,1.67V9.26H65V5.11a3.16,3.16,0,0,0-.11-1,.91.91,0,0,0-.4-.47,1.14,1.14,0,0,0-.67-.18A1.54,1.54,0,0,0,62.64,4a2,2,0,0,0-.46,1.48V9.26H61.06V5a1.91,1.91,0,0,0-.27-1.12,1.06,1.06,0,0,0-.9-.37,1.68,1.68,0,0,0-.87.24,1.41,1.41,0,0,0-.58.73,4.11,4.11,0,0,0-.18,1.38V9.26Z"/><path class="cls-1" d="M72.06,9.26v-1A2.4,2.4,0,0,1,70,9.41a2.62,2.62,0,0,1-1.09-.22,1.91,1.91,0,0,1-.76-.56,2.3,2.3,0,0,1-.34-.83,5.32,5.32,0,0,1-.07-1V2.67h1.12V6.32A6,6,0,0,0,68.9,7.5a1.2,1.2,0,0,0,.44.7,1.38,1.38,0,0,0,.85.25,1.82,1.82,0,0,0,.94-.26,1.38,1.38,0,0,0,.63-.7,3.61,3.61,0,0,0,.18-1.29V2.67h1.12V9.26Z"/><path class="cls-1" d="M74.79,9.26V.16h1.12v9.1Z"/><path class="cls-1" d="M80.08,8.26l.16,1a3.82,3.82,0,0,1-.84.1,1.93,1.93,0,0,1-1-.19A1.1,1.1,0,0,1,78,8.65a4,4,0,0,1-.14-1.32V3.54H77V2.67h.82V1L79,.36V2.67h1.12v.87H79V7.39A2,2,0,0,0,79,8a.44.44,0,0,0,.19.22.77.77,0,0,0,.38.08A3.67,3.67,0,0,0,80.08,8.26Z"/><path class="cls-1" d="M85.69,7.14l1.16.14a2.8,2.8,0,0,1-1,1.57,3.42,3.42,0,0,1-4.18-.33A3.46,3.46,0,0,1,80.8,6a3.64,3.64,0,0,1,.86-2.58,2.87,2.87,0,0,1,2.22-.92,2.81,2.81,0,0,1,2.16.9A3.56,3.56,0,0,1,86.88,6v.3H82a2.55,2.55,0,0,0,.61,1.67A1.85,1.85,0,0,0,84,8.49a1.74,1.74,0,0,0,1-.32A2.17,2.17,0,0,0,85.69,7.14ZM82,5.33H85.7a2.28,2.28,0,0,0-.42-1.25,1.72,1.72,0,0,0-1.39-.64A1.78,1.78,0,0,0,82.6,4,2,2,0,0,0,82,5.33Z"/><path class="cls-1" d="M1.63,2.67,3.78,4.6a.55.55,0,0,1,.14.19A.59.59,0,0,1,4,5a.69.69,0,0,1-.05.24.7.7,0,0,1-.15.19L1.64,7.31H0L2.62,5,0,2.67Z"/></g></g></svg>