<svg xmlns="http://www.w3.org/2000/svg" viewBox="0 0 142.02 22.59"><defs><style>.cls-1{fill:#2bff30;}</style></defs><g id="Layer_2" data-name="Layer 2"><g id="Layer_1-2" data-name="Layer 1"><rect class="cls-1" width="142.02" height="22.59" rx="11.29"/><path d="M14.93,9.69l-1,.37-.94.36c0-.39-.11-.59-.33-.59a1.3,1.3,0,0,0-.93.53.93.93,0,0,0-.27.75c0,.16.18.24.47.24a3.42,3.42,0,0,0,.63-.07,4.48,4.48,0,0,1,1-.12c.7,0,1.11.25,1.23.73a2.44,2.44,0,0,1,.05.48,3.19,3.19,0,0,1-.61,1.74,6.23,6.23,0,0,1-2.18,2,2.8,2.8,0,0,1-1.46.44,2.54,2.54,0,0,1-1.28-.36c.21-.5.54-1.24,1-2.23a1.47,1.47,0,0,0,.86.28,1.51,1.51,0,0,0,.41-.06,3.16,3.16,0,0,0,.74-.29q.51-.27.51-.57c0-.21-.17-.31-.52-.31a5.81,5.81,0,0,0-1,.14,5.14,5.14,0,0,1-1,.15,1.18,1.18,0,0,1-.71-.18,1,1,0,0,1-.41-1,6.41,6.41,0,0,1,1.8-3.23C12.06,7.66,13,7,13.82,6.94S15,7.48,15,8.7A9.17,9.17,0,0,1,14.93,9.69Z"/><path d="M16.35,7.47l2.15-.4c-.58,2.19-1,4.16-1.28,5.9l1.19-.5.88-5,2.15-.4a65.16,65.16,0,0,0-1.69,8.73l-2,.56L18,15l-3.2,1.4Z"/><path d="M21.86,7.51c.27,0,.77-.16,1.51-.34a13.32,13.32,0,0,1,1.53-.29h.44c1.11,0,1.66.39,1.65,1.18,0,1.11-.69,2.23-2.06,3.34.86-.06,1.36.19,1.5.73a2.19,2.19,0,0,1,0,.36,2.84,2.84,0,0,1-.9,1.91,6.79,6.79,0,0,1-1.71,1.31,5.69,5.69,0,0,1-2.8.68h-.51q.5-2.58,1.08-6.93C21.74,8.62,21.82,8,21.86,7.51Zm1.34,5.23c-.07.31-.14.75-.22,1.29q1.77-.54,1.77-1.23c0-.17-.14-.25-.44-.25A4.54,4.54,0,0,0,23.2,12.74Zm.69-3.37c-.07.27-.13.55-.19.83l-.18.83a3.56,3.56,0,0,0,1.31-1.31.6.6,0,0,0,.09-.27q0-.21-.33-.21A2.56,2.56,0,0,0,23.89,9.37Z"/><path d="M25.78,16.42a51.83,51.83,0,0,0,2.59-8.75l3-.49-.43,4.61,1.18-4.26L35,7a60.29,60.29,0,0,0-.51,7.39v1.29l-2.57.46.46-5.51-1.65,6.1L29.35,17l.83-7.75-1.79,6.87Z"/><path d="M36.48,7.47l2.16-.4a63.07,63.07,0,0,0-1.71,8.73l-2,.56Z"/><path d="M43.9,6.94l-.07,2.34q-.88,0-1.68.12A48.75,48.75,0,0,0,41,15.8l-2.13.56,1.16-6.69-.68.11-.67.13-.15-2.35Z"/><path d="M50.07,7.28l2,.35a77,77,0,0,0-4.29,8.62l-1.94-.12,1.33-2.8-1-5.06,2.45-1.13c0,.39,0,.87-.05,1.45a12.54,12.54,0,0,0,.09,1.73Z"/><path d="M55.38,6.51A2,2,0,0,1,57.27,8a4.78,4.78,0,0,1,.29,1.68,7.57,7.57,0,0,1-.27,1.91,8.88,8.88,0,0,1-1.61,3.24,3.83,3.83,0,0,1-3,1.81,2,2,0,0,1-1.91-1.48,4.64,4.64,0,0,1-.28-1.63,7.83,7.83,0,0,1,.28-1.94,9.06,9.06,0,0,1,1.6-3.25A3.83,3.83,0,0,1,55.38,6.51Zm-.45,3.12c-.46,0-.93.38-1.41,1.13a6.3,6.3,0,0,0-.8,1.75,3.19,3.19,0,0,0-.12.82,1.34,1.34,0,0,0,.26.84,1,1,0,0,0,.8.36,1.59,1.59,0,0,0,1.27-.74,3.72,3.72,0,0,0,.65-1.39,4.52,4.52,0,0,0,.1-1.86C55.58,9.93,55.33,9.63,54.93,9.63Z"/><path d="M58.49,7.47l2.15-.4c-.58,2.19-1,4.16-1.28,5.9l1.19-.5.88-5,2.15-.4a65.16,65.16,0,0,0-1.69,8.73l-2,.56.26-1.4-3.2,1.4Z"/><path d="M64.05,7.46a11.64,11.64,0,0,1,3.23-.59c1.14,0,1.7.39,1.69,1.18,0,1.13-.72,2.26-2.14,3.4.12.32.6,1.32,1.46,3-.43.4-1.09,1-2,1.77L65,12.76h0c-.2,1.1-.35,2.11-.45,3l-2,.56c0-.19.11-.75.28-1.68Zm1.59,2c-.08.29-.14.57-.2.86l-.18.85a5,5,0,0,0,.87-.59,2.28,2.28,0,0,0,.65-.82.42.42,0,0,0,.06-.21c0-.18-.12-.28-.36-.28A3.11,3.11,0,0,0,65.64,9.44Z"/><path d="M73.88,9.34c-.07.24-.12.48-.17.72l-.14.69,2-.43-.11,1.74c-1,.16-1.71.31-2.25.44l-.09.5-.09.49,2.34-.34-.17,2.34a28.42,28.42,0,0,0-4.58.87l1.49-9,4.19-.61-.17,2.33C75.32,9.14,74.57,9.23,73.88,9.34Z"/><path d="M77.24,7.51l2.18-.44c0,.26,0,.63,0,1.1,0,1.14,0,2.14.12,3a7,7,0,0,0,.18,1.19l.86-4.9,2.16-.4A63.07,63.07,0,0,0,81,15.8l-2,.56s-.07-.17-.17-.45l-.65-1.85c-.11-.31-.17-.5-.19-.58-.18,1-.31,1.94-.41,2.88l-2,.6Z"/><path d="M87.84,6.94l-.07,2.34c-.59,0-1.14.07-1.67.12A48.89,48.89,0,0,0,85,15.8l-2.13.56L84,9.67l-.68.11-.66.13-.15-2.35Z"/><path d="M88,7.46a11.52,11.52,0,0,1,3.23-.59c1.13,0,1.69.39,1.68,1.18,0,1.13-.72,2.26-2.14,3.4.12.32.61,1.32,1.46,3-.43.4-1.09,1-2,1.77l-1.34-3.47h0c-.2,1.1-.35,2.11-.45,3l-2,.56c0-.19.11-.75.28-1.68Zm1.58,2c-.08.29-.14.57-.2.86l-.18.85a4.61,4.61,0,0,0,.87-.59,2.28,2.28,0,0,0,.65-.82.35.35,0,0,0,.07-.21c0-.18-.13-.28-.37-.28A3.11,3.11,0,0,0,89.56,9.44Z"/><path d="M96.65,7.28l2,.35a77.26,77.26,0,0,0-4.3,8.62l-1.94-.12,1.34-2.8L92.72,8.27l2.45-1.13c0,.39,0,.87,0,1.45a12.54,12.54,0,0,0,.09,1.73Z"/><path d="M105.89,6.94l-.07,2.34q-.88,0-1.68.12A48.75,48.75,0,0,0,103,15.8l-2.13.56,1.16-6.69-.68.11-.67.13-.15-2.35Z"/><path d="M109.53,6.51A2,2,0,0,1,111.42,8a4.78,4.78,0,0,1,.29,1.68,7.57,7.57,0,0,1-.27,1.91,9,9,0,0,1-1.61,3.24,3.83,3.83,0,0,1-3,1.81A2,2,0,0,1,105,15.16a4.42,4.42,0,0,1-.28-1.63,7.39,7.39,0,0,1,.28-1.94,9.2,9.2,0,0,1,1.59-3.25A3.85,3.85,0,0,1,109.53,6.51Zm-.45,3.12c-.46,0-.93.38-1.41,1.13a6,6,0,0,0-.8,1.75,3.19,3.19,0,0,0-.12.82,1.4,1.4,0,0,0,.25.84,1,1,0,0,0,.81.36,1.59,1.59,0,0,0,1.27-.74,3.72,3.72,0,0,0,.65-1.39,4.7,4.7,0,0,0,.1-1.86C109.73,9.93,109.48,9.63,109.08,9.63Z"/><path d="M112.44,7.46A8,8,0,0,1,114.89,7a2.34,2.34,0,0,1,1.72.59,2.81,2.81,0,0,1,.82,2,4.52,4.52,0,0,1-.11.93A7.27,7.27,0,0,1,115,14.41a7.35,7.35,0,0,1-4.06,1.95q0-.28.27-1.65l1-5.78C112.36,8.06,112.43,7.57,112.44,7.46Zm1.8,2.07c-.39,1.64-.68,3.2-.88,4.66a8.18,8.18,0,0,0,1.34-1.66,3.87,3.87,0,0,0,.73-2C115.43,9.84,115,9.5,114.24,9.53Z"/><path d="M115.68,16.51a84.32,84.32,0,0,0,3-9.09l3.82-.64a49.27,49.27,0,0,0-.59,9l-2.67.62.19-1.58-.84.17-.27,1.1Zm3.94-3.37.58-4.74h0L119,13.26Z"/><path d="M126.79,7.28l2,.35a75.57,75.57,0,0,0-4.3,8.62l-1.94-.12,1.33-2.8-1-5.06,2.45-1.13c0,.39,0,.87,0,1.45a12.54,12.54,0,0,0,.09,1.73Z"/><path d="M128.83,14.29a1.18,1.18,0,0,1,.78.13.66.66,0,0,1,.41.63,1.34,1.34,0,0,1-.62,1.05,2.07,2.07,0,0,1-1,.46,1.39,1.39,0,0,1-.78-.1.68.68,0,0,1-.39-.63,1.37,1.37,0,0,1,.59-1.07A2.08,2.08,0,0,1,128.83,14.29Zm1.42-7.81,2.63.44c-.69,1.24-1.2,2.22-1.53,2.92A24,24,0,0,0,130.17,13l-1.75-.07Z"/></g></g></svg>