<svg xmlns="http://www.w3.org/2000/svg" viewBox="0 0 45.04 43.41"><defs><style>.cls-1{fill:#5479f7;}.cls-2{fill:#99b9ff;}.cls-3{fill:#fff;}.cls-4{fill:#caddff;}</style></defs><g id="Layer_2" data-name="Layer 2"><g id="Layer_1-2" data-name="Layer 1"><path class="cls-1" d="M32.34,6.47H8A1.73,1.73,0,0,0,6.34,7.92L.8,41.87A1.17,1.17,0,0,0,2,43.3H26.34A1.72,1.72,0,0,0,28,41.88l5.53-34A1.18,1.18,0,0,0,32.34,6.47Z"/><path class="cls-2" d="M31.56,6.3H7.18A1.73,1.73,0,0,0,5.55,7.73L0,41.87A1.16,1.16,0,0,0,1.18,43.3H25.56a1.72,1.72,0,0,0,1.62-1.43L32.72,7.73A1.17,1.17,0,0,0,31.56,6.3Z"/><polygon class="cls-3" points="24.61 39.59 3.32 39.59 8.35 8.57 29.64 8.57 24.61 39.59"/><polygon class="cls-4" points="9.61 16.59 25.76 16.59 25.92 15.65 9.77 15.65 9.61 16.59"/><polygon class="cls-4" points="13.51 18.47 25.44 18.47 25.6 17.53 13.67 17.53 13.51 18.47"/><polygon class="cls-4" points="8.74 21.79 24.88 21.79 25.04 20.84 8.89 20.84 8.74 21.79"/><polygon class="cls-4" points="12.64 23.66 24.57 23.66 24.72 22.73 12.79 22.73 12.64 23.66"/><polygon class="cls-4" points="7.86 26.98 24.01 26.98 24.18 25.99 8.04 25.99 7.86 26.98"/><polygon class="cls-4" points="11.76 28.92 23.69 28.92 23.85 27.98 11.92 27.98 11.76 28.92"/><polygon class="cls-4" points="7.01 32.15 23.15 32.14 23.31 31.19 7.16 31.19 7.01 32.15"/><polygon class="cls-4" points="10.89 34.12 22.82 34.12 22.99 33.12 11.06 33.12 10.89 34.12"/><path class="cls-1" d="M14.62,14.1h1.32l-.11.41H14l.8-3h.5Z"/><path class="cls-1" d="M16.38,13.38a1.73,1.73,0,0,1,.28-.58,1.25,1.25,0,0,1,.46-.4,1.08,1.08,0,0,1,.56-.14.69.69,0,0,1,.63.29.91.91,0,0,1,.08.76l0,.12a1.84,1.84,0,0,1-.28.58,1.35,1.35,0,0,1-.46.4,1.11,1.11,0,0,1-.56.14.69.69,0,0,1-.65-.31,1.09,1.09,0,0,1-.05-.83Zm.47,0a.87.87,0,0,0,0,.53.33.33,0,0,0,.33.2.6.6,0,0,0,.44-.2,1.37,1.37,0,0,0,.29-.58.79.79,0,0,0,0-.53.33.33,0,0,0-.33-.19.59.59,0,0,0-.43.19A1.37,1.37,0,0,0,16.85,13.43Z"/><path class="cls-1" d="M19.77,14.51a.65.65,0,0,1,0-.2,1,1,0,0,1-.63.24.57.57,0,0,1-.48-.19.5.5,0,0,1-.08-.47.88.88,0,0,1,.4-.54,1.46,1.46,0,0,1,.78-.19h.3l0-.15a.35.35,0,0,0,0-.27.29.29,0,0,0-.26-.1.47.47,0,0,0-.29.08.35.35,0,0,0-.16.22h-.49a.65.65,0,0,1,.21-.34,1.14,1.14,0,0,1,.39-.25,1.23,1.23,0,0,1,.47-.09.69.69,0,0,1,.55.19.57.57,0,0,1,.08.55l-.26,1a1.08,1.08,0,0,0-.05.48v0Zm-.44-.36a.59.59,0,0,0,.29-.07.65.65,0,0,0,.24-.19l.12-.42h-.26a.76.76,0,0,0-.43.1.41.41,0,0,0-.21.27.23.23,0,0,0,0,.23A.26.26,0,0,0,19.33,14.15Z"/><path class="cls-1" d="M21.73,12.3l-.06.25a1,1,0,0,1,.71-.29c.45,0,.6.26.47.79l-.39,1.46H22l.38-1.43a.39.39,0,0,0,0-.31c0-.07-.12-.11-.26-.11a.64.64,0,0,0-.51.28l-.42,1.57h-.48l.59-2.21Z"/><path d="M11.21,43.41H19a.09.09,0,0,0,.09-.09.09.09,0,0,0-.09-.08H11.21a.08.08,0,0,0-.08.08A.08.08,0,0,0,11.21,43.41Z"/><path d="M23.87,39.7h.74a.08.08,0,0,0,.08-.07l5-31.08s0,0,0-.06a.06.06,0,0,0-.06,0H9.5a.08.08,0,1,0,0,.16h20l-5,30.92h-.67a.08.08,0,1,0,0,.16Z"/><path d="M3.32,39.7H5.46a.08.08,0,0,0,0-.16h-2L7.39,15a.1.1,0,0,0-.07-.1.09.09,0,0,0-.1.07l-4,24.61a.07.07,0,0,0,0,.06Z"/><path d="M26,10.37H12.13a.87.87,0,0,1-.85-1.06l.25-1.52a2.89,2.89,0,0,1,2.72-2.4H25.47a2,2,0,0,1,1.94,2.4l-.25,1.53A1.27,1.27,0,0,1,26,10.37Z"/><path d="M11.41,10.13a1,1,0,0,1-.21-.83l.25-1.52a3,3,0,0,1,2.8-2.47H25.47A2,2,0,0,1,27,6a2.18,2.18,0,0,1,.46,1.8l-.25,1.53A1.35,1.35,0,0,1,26,10.45H12.13A1,1,0,0,1,11.41,10.13Zm2.84-4.66A2.82,2.82,0,0,0,11.61,7.8l-.25,1.53a.83.83,0,0,0,.18.69.74.74,0,0,0,.59.26H26a1.19,1.19,0,0,0,1.11-1l.24-1.52a2,2,0,0,0-.41-1.67,1.86,1.86,0,0,0-1.44-.64Z"/><path class="cls-2" d="M25.62,10.37H11.79a.86.86,0,0,1-.85-1.06l.25-1.52a2.88,2.88,0,0,1,2.71-2.4H25.13a2,2,0,0,1,1.93,2.4l-.25,1.53A1.26,1.26,0,0,1,25.62,10.37Z"/><path d="M11.07,10.13a1,1,0,0,1-.21-.83l.24-1.52a3,3,0,0,1,2.8-2.47H25.13A2,2,0,0,1,26.69,6a2.21,2.21,0,0,1,.45,1.8L26.9,9.33a1.36,1.36,0,0,1-1.28,1.12H11.79A.94.94,0,0,1,11.07,10.13ZM13.9,5.47A2.81,2.81,0,0,0,11.27,7.8L11,9.33a.86.86,0,0,0,.17.69.78.78,0,0,0,.6.26H25.62a1.18,1.18,0,0,0,1.11-1L27,7.78a2.05,2.05,0,0,0-.42-1.67,1.85,1.85,0,0,0-1.43-.64Z"/><path d="M20.59.08a3.26,3.26,0,0,0-3.05,2.71L16.85,7a.72.72,0,0,0,.7.87h3.57a1,1,0,0,0,1-.87l.68-4.22A2.21,2.21,0,0,0,20.59.08ZM20.12,3a.69.69,0,0,1-.68-.84,1,1,0,0,1,.95-.84.69.69,0,0,1,.68.84A1,1,0,0,1,20.12,3Z"/><path d="M17,7.69A.83.83,0,0,1,16.77,7l.69-4.22A3.35,3.35,0,0,1,20.59,0a2.25,2.25,0,0,1,1.75.78,2.41,2.41,0,0,1,.51,2L22.17,7A1.13,1.13,0,0,1,21.12,8H17.55A.79.79,0,0,1,17,7.69ZM22.22.88A2.1,2.1,0,0,0,20.59.17a3.18,3.18,0,0,0-3,2.63L16.94,7a.62.62,0,0,0,.14.55.58.58,0,0,0,.47.21h3.57A1,1,0,0,0,22,7l.68-4.22A2.31,2.31,0,0,0,22.22.88Zm-2.69,2a.83.83,0,0,1-.17-.67,1.1,1.1,0,0,1,1-.92.78.78,0,0,1,.59.27.83.83,0,0,1,.17.67,1.09,1.09,0,0,1-1,.91A.74.74,0,0,1,19.53,2.85Zm0-.65a.7.7,0,0,0,.14.55.58.58,0,0,0,.46.2A.93.93,0,0,0,21,2.18h0a.7.7,0,0,0-.14-.55.58.58,0,0,0-.46-.2A.93.93,0,0,0,19.52,2.2Z"/><path class="cls-2" d="M20.37.08a3.26,3.26,0,0,0-3.05,2.71L16.63,7a.72.72,0,0,0,.7.87h3.56a1.05,1.05,0,0,0,1-.87l.68-4.22A2.21,2.21,0,0,0,20.37.08ZM19.89,3a.68.68,0,0,1-.67-.84,1,1,0,0,1,1-.84.68.68,0,0,1,.67.84A1,1,0,0,1,19.89,3Z"/><path d="M16.73,7.69A.83.83,0,0,1,16.55,7l.68-4.22A3.36,3.36,0,0,1,20.37,0a2.27,2.27,0,0,1,1.75.78,2.41,2.41,0,0,1,.51,2L22,7A1.14,1.14,0,0,1,20.89,8H17.33A.77.77,0,0,1,16.73,7.69ZM17.4,2.8,16.71,7a.69.69,0,0,0,.14.55.61.61,0,0,0,.48.21h3.56A1,1,0,0,0,21.78,7l.69-4.22h0A2.28,2.28,0,0,0,22,.88,2.08,2.08,0,0,0,20.37.17,3.17,3.17,0,0,0,17.4,2.8Zm1.91.05a.8.8,0,0,1-.18-.67,1.11,1.11,0,0,1,1-.92.75.75,0,0,1,.58.27.8.8,0,0,1,.18.67h0a1.1,1.1,0,0,1-1,.91A.74.74,0,0,1,19.31,2.85Zm1.45-.67a.66.66,0,0,0-.13-.55.6.6,0,0,0-.46-.2.93.93,0,0,0-.87.77.66.66,0,0,0,.13.55.61.61,0,0,0,.46.2.93.93,0,0,0,.87-.77Z"/><path class="cls-3" d="M26.18,27.44H41.9a1,1,0,0,0,.93-.82l2-15.11a.7.7,0,0,0-.71-.82H28.41a1,1,0,0,0-.92.82l-2,15.11A.69.69,0,0,0,26.18,27.44Z"/><path class="cls-4" d="M27.21,13.59H44.56l.28-2.08a.7.7,0,0,0-.71-.82H28.41a1,1,0,0,0-.92.82Z"/><path d="M25.5,27.33a.92.92,0,0,1-.22-.73l2-15.11a1.16,1.16,0,0,1,1.11-1H44.13a.89.89,0,0,1,.9,1L43,26.65a1.16,1.16,0,0,1-1.12,1H26.18A.9.9,0,0,1,25.5,27.33Zm2.91-16.45a.78.78,0,0,0-.73.66l-2,15.11a.54.54,0,0,0,.11.43.53.53,0,0,0,.4.17H41.9a.78.78,0,0,0,.74-.65l2-15.11a.53.53,0,0,0-.12-.43.54.54,0,0,0-.4-.18Z"/><path class="cls-4" d="M39.31,21.88h1.92a.53.53,0,0,0,.51-.45L42,19.49a.38.38,0,0,0-.39-.44H39.69a.53.53,0,0,0-.51.44l-.25,1.94A.38.38,0,0,0,39.31,21.88Z"/><path class="cls-4" d="M35.65,21.88h1.92a.53.53,0,0,0,.51-.45l.26-1.94a.38.38,0,0,0-.39-.44H36a.53.53,0,0,0-.51.44l-.25,1.94A.38.38,0,0,0,35.65,21.88Z"/><path class="cls-1" d="M32,21.88h1.92a.53.53,0,0,0,.51-.45l.26-1.94a.38.38,0,0,0-.39-.44H32.37a.53.53,0,0,0-.51.44l-.26,1.94A.39.39,0,0,0,32,21.88Z"/><path class="cls-2" d="M28.33,21.88h1.92a.53.53,0,0,0,.51-.45L31,19.49a.38.38,0,0,0-.39-.44H28.71a.53.53,0,0,0-.51.44l-.26,1.94A.39.39,0,0,0,28.33,21.88Z"/><path class="cls-4" d="M38.83,25.55h1.92a.52.52,0,0,0,.5-.45l.26-1.94a.38.38,0,0,0-.39-.44H39.2a.52.52,0,0,0-.5.44l-.26,1.94A.38.38,0,0,0,38.83,25.55Z"/><path class="cls-4" d="M35.16,25.55h1.92a.53.53,0,0,0,.51-.45l.26-1.94a.38.38,0,0,0-.39-.44H35.54a.53.53,0,0,0-.51.44l-.25,1.94A.38.38,0,0,0,35.16,25.55Z"/><path class="cls-4" d="M31.5,25.55h1.92a.53.53,0,0,0,.51-.45l.26-1.94a.38.38,0,0,0-.39-.44H31.88a.53.53,0,0,0-.51.44l-.25,1.94A.38.38,0,0,0,31.5,25.55Z"/><path class="cls-4" d="M39.8,18.2h1.92a.53.53,0,0,0,.51-.45l.26-1.94a.38.38,0,0,0-.39-.44H40.18a.53.53,0,0,0-.51.44l-.25,1.94A.38.38,0,0,0,39.8,18.2Z"/><path class="cls-4" d="M36.14,18.2h1.92a.53.53,0,0,0,.51-.45l.26-1.94a.38.38,0,0,0-.39-.44H36.52a.53.53,0,0,0-.51.44l-.25,1.94A.38.38,0,0,0,36.14,18.2Z"/><path class="cls-4" d="M32.48,18.2H34.4a.53.53,0,0,0,.51-.45l.26-1.94a.38.38,0,0,0-.39-.44H32.86a.53.53,0,0,0-.51.44l-.26,1.94A.39.39,0,0,0,32.48,18.2Z"/><path class="cls-2" d="M28.82,18.2h1.92a.53.53,0,0,0,.51-.45l.26-1.94a.38.38,0,0,0-.39-.44H29.2a.53.53,0,0,0-.51.44l-.26,1.94A.39.39,0,0,0,28.82,18.2Z"/><path d="M42.36,12.45h0a1.91,1.91,0,0,0,1.81-1.61,1.47,1.47,0,0,0-.33-1.18,1.42,1.42,0,0,0-1.09-.48h-.1a.18.18,0,0,0-.18.2.19.19,0,0,0,.2.18h.08a1.06,1.06,0,0,1,.8.34,1.08,1.08,0,0,1,.24.88,1.49,1.49,0,0,1-1.43,1.27.2.2,0,0,0-.19.19A.2.2,0,0,0,42.36,12.45Z"/><path d="M40.21,12.45h0A1.89,1.89,0,0,0,42,10.84a1.5,1.5,0,0,0-.34-1.18,1.43,1.43,0,0,0-1.08-.47h-.11a.2.2,0,0,0,0,.39h.08a1,1,0,0,1,.79.35,1.06,1.06,0,0,1,.24.87,1.49,1.49,0,0,1-1.42,1.28.19.19,0,1,0,0,.38Z"/><path d="M38.05,12.46h0a1.91,1.91,0,0,0,1.81-1.61,1.44,1.44,0,0,0-.34-1.18,1.4,1.4,0,0,0-1.08-.48h-.1a.18.18,0,0,0-.18.2.18.18,0,0,0,.2.18h.08a1,1,0,0,1,.79.34,1.08,1.08,0,0,1,.25.88,1.5,1.5,0,0,1-1.43,1.27.19.19,0,0,0-.19.2A.2.2,0,0,0,38.05,12.46Z"/><path d="M35.89,12.46h0a1.89,1.89,0,0,0,1.81-1.61,1.49,1.49,0,0,0-.33-1.18,1.45,1.45,0,0,0-1.09-.47h-.1a.19.19,0,0,0-.18.21.2.2,0,0,0,.2.18h.08a1,1,0,0,1,1,1.22,1.5,1.5,0,0,1-1.43,1.28.2.2,0,0,0-.19.19A.19.19,0,0,0,35.89,12.46Z"/><path d="M33.74,12.47h0a1.88,1.88,0,0,0,1.8-1.61,1.45,1.45,0,0,0-.33-1.18,1.39,1.39,0,0,0-1.08-.47H34a.2.2,0,0,0-.18.2.19.19,0,0,0,.21.18h.08a1,1,0,0,1,.79.34,1.08,1.08,0,0,1,.24.88,1.49,1.49,0,0,1-1.42,1.27.2.2,0,0,0-.19.2A.19.19,0,0,0,33.74,12.47Z"/><path d="M31.58,12.47h0a1.89,1.89,0,0,0,1.81-1.61,1.43,1.43,0,0,0-.34-1.17A1.4,1.4,0,0,0,32,9.21h-.1a.2.2,0,0,0,0,.39H32a1,1,0,0,1,.79.34,1.07,1.07,0,0,1,.25.87,1.5,1.5,0,0,1-1.43,1.28.19.19,0,0,0-.19.19A.18.18,0,0,0,31.58,12.47Z"/><path d="M29.55,12.48h0a1.88,1.88,0,0,0,1.8-1.61A1.48,1.48,0,0,0,31,9.69a1.43,1.43,0,0,0-1.08-.47h0a1.84,1.84,0,0,0-1.46.76.19.19,0,1,0,.31.23,1.48,1.48,0,0,1,1.15-.61h0a1,1,0,0,1,.79.34,1.09,1.09,0,0,1,.24.88,1.5,1.5,0,0,1-1.42,1.28.19.19,0,0,0-.2.19A.2.2,0,0,0,29.55,12.48Z"/></g></g></svg>