<svg id="Headline" xmlns="http://www.w3.org/2000/svg" width="115.44" height="19.469" viewBox="0 0 115.44 19.469">
  <defs>
    <style>
      .cls-1 {
        fill: #fff;
      }

      .cls-1, .cls-2 {
        fill-rule: evenodd;
      }

      .cls-2 {
        fill: #0756ef;
      }
    </style>
  </defs>
  <path id="YOUR_FREE_GUIDE_TOP_10" data-name="YOUR FREE GUIDE TOP 10" class="cls-1" d="M1418.71,218.89l2.46,4.061v2.624h1.01v-2.624l2.46-4.061h-1.16l-1.77,3.039h-0.07l-1.77-3.039h-1.16Zm12.41,3.343c0-2.138-1.29-3.434-3.04-3.434s-3.05,1.3-3.05,3.434,1.29,3.434,3.05,3.434S1431.12,224.371,1431.12,222.233Zm-1.01,0c0,1.629-.87,2.513-2.03,2.513s-2.04-.884-2.04-2.513,0.87-2.514,2.04-2.514S1430.11,220.6,1430.11,222.233Zm6.63-3.343V223.3a1.679,1.679,0,0,1-3.33,0V218.89h-1.02v4.423a2.706,2.706,0,0,0,5.37,0V218.89h-1.02Zm2.5,6.685h1.02v-2.529h1.46l1.37,2.529h1.16l-1.5-2.706a1.852,1.852,0,0,0,1.24-1.883,2.036,2.036,0,0,0-2.34-2.1h-2.41v6.685Zm1.02-3.4v-2.422h1.28a1.187,1.187,0,0,1,1.43,1.231,1.156,1.156,0,0,1-1.41,1.191h-1.3Zm7.44,3.4h1.02V222.66h2.87V221.8h-2.87v-2.036h3.17V218.89h-4.19v6.685Zm5.44,0h1.02v-2.529h1.46l1.37,2.529h1.16l-1.5-2.706a1.852,1.852,0,0,0,1.24-1.883,2.036,2.036,0,0,0-2.34-2.1h-2.41v6.685Zm1.02-3.4v-2.422h1.29a1.183,1.183,0,0,1,1.42,1.231,1.156,1.156,0,0,1-1.41,1.191h-1.3Zm4.98,3.4h4.28v-0.868h-3.26V222.66h3V221.8h-3v-2.036h3.22V218.89h-4.24v6.685Zm5.6,0h4.28v-0.868h-3.26V222.66h3V221.8h-3v-2.036h3.22V218.89h-4.24v6.685ZM1477.38,221h1.05a2.715,2.715,0,0,0-2.81-2.2c-1.75,0-3.03,1.3-3.03,3.437,0,2.115,1.24,3.431,3.07,3.431a2.64,2.64,0,0,0,2.82-2.752v-0.761h-2.66v0.833h1.67a1.7,1.7,0,0,1-1.83,1.759c-1.19,0-2.06-.891-2.06-2.516s0.88-2.511,2.02-2.511A1.736,1.736,0,0,1,1477.38,221Zm6.74-2.112V223.3a1.679,1.679,0,0,1-3.33,0V218.89h-1.02v4.423a2.706,2.706,0,0,0,5.37,0V218.89h-1.02Zm3.52,0h-1.02v6.685h1.02V218.89Zm3.68,6.685a3.345,3.345,0,0,0,.07-6.685h-2.26v6.685h2.19Zm-1.17-.881v-4.922h1.17c1.48,0,2.25.874,2.25,2.451s-0.77,2.471-2.31,2.471h-1.11Zm5.69,0.881h4.27v-0.868h-3.25V222.66h2.99V221.8h-2.99v-2.036h3.21V218.89h-4.23v6.685Zm7.73-5.816h2.1v5.816h1.02v-5.816h2.11V218.89h-5.23v0.869Zm11.97,2.474c0-2.138-1.29-3.434-3.04-3.434s-3.05,1.3-3.05,3.434,1.29,3.434,3.05,3.434S1515.54,224.371,1515.54,222.233Zm-1.01,0c0,1.629-.87,2.513-2.03,2.513s-2.04-.884-2.04-2.513,0.87-2.514,2.04-2.514S1514.53,220.6,1514.53,222.233Zm2.28,3.342h1.02v-2.35h1.38a2.174,2.174,0,1,0,.01-4.335h-2.41v6.685Zm1.02-3.2v-2.615h1.28a1.312,1.312,0,1,1,.01,2.615h-1.29Zm9.66-3.48h-0.95a1.684,1.684,0,0,1-1.54,1.028v0.83a1.787,1.787,0,0,0,1.41-.5h0.06v5.324h1.02V218.89Zm4.19,6.8c1.56,0,2.47-1.26,2.47-3.45,0-2.174-.93-3.437-2.47-3.437-1.56,0-2.48,1.26-2.48,3.437S1530.11,225.683,1531.68,225.686Zm0-.871c-0.92,0-1.47-.908-1.47-2.579s0.55-2.582,1.47-2.582c0.9,0,1.46.917,1.46,2.582S1532.59,224.815,1531.68,224.815Z" transform="translate(-1418.72 -218.812)"/>
  <path id="BONDS" class="cls-2" d="M1426.87,238.147h2.96c1.8,0,2.61-.884,2.61-2.056a1.785,1.785,0,0,0-1.6-1.891v-0.074a1.575,1.575,0,0,0,1.3-1.612c0-1.13-.79-2.006-2.44-2.006h-2.83v7.639Zm1.17-.989v-2.447h1.72a1.375,1.375,0,0,1,1.52,1.324c0,0.642-.44,1.123-1.56,1.123h-1.68Zm0-3.346v-2.323h1.59a1.151,1.151,0,0,1,1.36,1.115,1.257,1.257,0,0,1-1.39,1.208h-1.56Zm12.49,0.515c0-2.443-1.48-3.924-3.48-3.924s-3.48,1.481-3.48,3.924,1.47,3.924,3.48,3.924S1440.53,236.77,1440.53,234.327Zm-1.15,0c0,1.861-1,2.872-2.33,2.872s-2.32-1.011-2.32-2.872,0.99-2.872,2.32-2.872S1439.38,232.466,1439.38,234.327Zm8.83-3.819h-1.15v5.609h-0.07l-3.93-5.609h-1.08v7.639h1.16v-5.6h0.07l3.93,5.6h1.07v-7.639Zm4.2,7.639c2.36,0,3.72-1.444,3.72-3.831s-1.36-3.808-3.64-3.808h-2.58v7.639h2.5Zm-1.33-1.008v-5.624h1.34c1.69,0,2.56,1,2.56,2.8s-0.87,2.823-2.63,2.823h-1.27Zm10.71-4.625h1.12c-0.03-1.223-1.13-2.111-2.69-2.111s-2.74.877-2.74,2.193c0,1.063.77,1.686,2.01,2.018l0.91,0.247c0.83,0.216,1.46.484,1.46,1.163a1.462,1.462,0,0,1-1.71,1.239,1.487,1.487,0,0,1-1.71-1.228h-1.17c0.07,1.384,1.16,2.238,2.89,2.238,1.81,0,2.86-.943,2.86-2.238,0-1.376-1.24-1.909-2.22-2.148l-0.76-.194c-0.6-.153-1.41-0.433-1.4-1.164a1.317,1.317,0,0,1,1.55-1.13A1.4,1.4,0,0,1,1461.79,232.514Z" transform="translate(-1418.72 -218.812)"/>
  <path id="AUSTRALIA" class="cls-2" d="M1479.9,237.8l0.62-1.768h2.64l0.61,1.768h1.08l-2.43-6.68h-1.17l-2.44,6.68h1.09Zm0.91-2.616,1-2.851h0.05l1,2.851h-2.05Zm9.37-4.064v4.4a1.679,1.679,0,0,1-3.33,0v-4.4h-1.02v4.42a2.706,2.706,0,0,0,5.37,0v-4.42h-1.02Zm6.19,1.755h0.98a2.085,2.085,0,0,0-2.35-1.847c-1.36,0-2.4.767-2.4,1.918,0,0.93.67,1.475,1.76,1.765l0.8,0.215c0.72,0.189,1.28.424,1.28,1.018a1.281,1.281,0,0,1-1.5,1.083,1.3,1.3,0,0,1-1.5-1.073h-1.02c0.06,1.21,1.01,1.957,2.53,1.957,1.58,0,2.5-.825,2.5-1.957,0-1.2-1.09-1.67-1.95-1.879l-0.66-.17a1.29,1.29,0,0,1-1.22-1.017,1.147,1.147,0,0,1,1.35-.989A1.228,1.228,0,0,1,1496.37,232.878Zm1.96-.888h2.11V237.8h1.01V231.99h2.11v-0.867h-5.23v0.867Zm6.39,5.813h1.02v-2.528h1.45l1.37,2.528h1.16l-1.5-2.7a1.851,1.851,0,0,0,1.24-1.882,2.035,2.035,0,0,0-2.34-2.094h-2.4v6.68Zm1.02-3.4v-2.42h1.28a1.183,1.183,0,0,1,1.42,1.23,1.155,1.155,0,0,1-1.41,1.19h-1.29Zm5.54,3.4,0.62-1.768h2.64l0.62,1.768h1.08l-2.43-6.68h-1.18l-2.43,6.68h1.08Zm0.92-2.616,0.99-2.851h0.06l0.99,2.851h-2.04Zm5.01,2.616h4.09v-0.868h-3.07v-5.812h-1.02v6.68Zm6.27-6.68h-1.02v6.68h1.02v-6.68Zm2.06,6.68,0.62-1.768h2.63l0.62,1.768h1.08l-2.43-6.68h-1.18l-2.43,6.68h1.09Zm0.91-2.616,1-2.851h0.05l1,2.851h-2.05Z" transform="translate(-1418.72 -218.812)"/>
  <path id="IN" class="cls-1" d="M1468.24,231.123h-1.02v6.68h1.02v-6.68Zm6.93,0h-1v4.906h-0.07l-3.44-4.906h-0.94v6.68h1.02v-4.9h0.06l3.44,4.9h0.93v-6.68Z" transform="translate(-1418.72 -218.812)"/>
</svg>
