<?xml version="1.0" encoding="UTF-8"?>
<svg id="Layer_2" data-name="Layer 2" xmlns="http://www.w3.org/2000/svg" viewBox="0 0 179.01 31.3">
  <defs>
    <style>
      .cls-1 {
        fill: #fff;
      }
    </style>
  </defs>
  <g id="Layer_1-2" data-name="Layer 1">
    <g>
      <path class="cls-1" d="M28.99,25.87H12.45l-2.4,5.43H0L14.22,0h13.25l14.68,31.3h-10.73l-2.44-5.43ZM20.66,7.28l-5.13,11.69h10.39l-5.26-11.69Z"/>
      <path class="cls-1" d="M82.63,24.02v4.08c0,1.98.21,2.52.5,2.99v.21h-10.39c-.13-.21-.25-.76-.25-2.06v-2.61c0-4.04-1.47-5.51-5.89-5.51h-10.56v10.18h-10.05V0h23.22c11.69,0,13.17,4.71,13.17,8.46v.38c0,4.16-3.07,6.6-6.81,7.4,4.16.8,7.07,3.07,7.07,7.78ZM56.04,13.42h11.82c3.24,0,4.04-1.39,4.04-2.99v-.08c0-1.51-.8-2.86-4.04-2.86h-11.82v5.93Z"/>
      <path class="cls-1" d="M89.07,0h13.63l9.21,19.48L121.33,0h12.96v31.3h-9.84V11.32l-9.38,19.98h-6.98l-9.34-19.98v19.98h-9.68V0Z"/>
      <path class="cls-1" d="M153.56,19.98L137.62,0h12.33l9,11.74,9.04-11.74h11.02l-15.44,20.02v11.27h-10.01v-11.32Z"/>
    </g>
  </g>
</svg>