<svg xmlns="http://www.w3.org/2000/svg" viewBox="0 0 38.92 21.55"><defs><style>.cls-1{fill:#fff;}.cls-2{fill:#ff5e39;}</style></defs><g id="Layer_2" data-name="Layer 2"><g id="Layer_1-2" data-name="Layer 1"><rect class="cls-1" width="38.92" height="21.55" rx="10.77"/><rect class="cls-2" x="3.74" y="3.44" width="30.53" height="14.67" rx="7.33"/><path class="cls-1" d="M16,11.14a.51.51,0,0,1,.49-.5l5.76-.05L20.1,8.48a.49.49,0,0,1,0-.7.5.5,0,0,1,.71,0l3,3a.33.33,0,0,1,.11.15.45.45,0,0,1,0,.2.63.63,0,0,1,0,.19.57.57,0,0,1-.11.16l-3,3a.5.5,0,0,1-.7,0,.49.49,0,0,1,0-.7l2.11-2.15-5.76.05A.5.5,0,0,1,16,11.14Z"/></g></g></svg>