<svg xmlns="http://www.w3.org/2000/svg" viewBox="0 0 173.59 47.77"><g id="Layer_2" data-name="Layer 2"><g id="Layer_1-2" data-name="Layer 1"><path d="M15.1,38.79a26.88,26.88,0,0,1-5.68-.58,15.2,15.2,0,0,1-4.83-1.87A9.85,9.85,0,0,1,1.24,33,9.62,9.62,0,0,1,0,27.92a4.84,4.84,0,0,1,0-.53c0-.17,0-.35,0-.52H5.12c0,.1,0,.27,0,.5s0,.43,0,.6a5.33,5.33,0,0,0,1.26,3.59,7.44,7.44,0,0,0,3.51,2.19,16.71,16.71,0,0,0,5.1.72,25.07,25.07,0,0,0,2.66-.16,14.76,14.76,0,0,0,2.69-.56,9.18,9.18,0,0,0,2.33-1,5.21,5.21,0,0,0,1.63-1.64,4.41,4.41,0,0,0,.61-2.4,4.36,4.36,0,0,0-1-3,7.94,7.94,0,0,0-2.72-2,28.07,28.07,0,0,0-3.82-1.37c-1.43-.4-2.9-.8-4.41-1.18s-3-.84-4.41-1.35a17.32,17.32,0,0,1-3.83-1.9A9.1,9.1,0,0,1,1.93,15.1,7.75,7.75,0,0,1,.9,11a8.87,8.87,0,0,1,.92-4.07,8.26,8.26,0,0,1,2.75-3A13.63,13.63,0,0,1,9.08,2a26,26,0,0,1,6.17-.66,21.85,21.85,0,0,1,5.31.61,13.88,13.88,0,0,1,4.33,1.84,9.16,9.16,0,0,1,2.93,3.14,9.39,9.39,0,0,1,1.05,4.6v.63h-5v-.79A4.47,4.47,0,0,0,22.8,8.29a7.09,7.09,0,0,0-3-2,13.17,13.17,0,0,0-4.36-.68,19.68,19.68,0,0,0-5.28.6A6.68,6.68,0,0,0,7,8a3.73,3.73,0,0,0-1,2.56A3.9,3.9,0,0,0,7,13.3a7.68,7.68,0,0,0,2.72,1.82,28.4,28.4,0,0,0,3.85,1.29L18,17.6c1.5.41,3,.86,4.38,1.37a18.25,18.25,0,0,1,3.86,1.9,8.67,8.67,0,0,1,2.71,2.85,8.21,8.21,0,0,1,1,4.2A9.85,9.85,0,0,1,28,34.18a10.85,10.85,0,0,1-5.23,3.51A24.62,24.62,0,0,1,15.1,38.79Z"/><path d="M38.79,47.77a11.59,11.59,0,0,1-2.19-.19l-1.24-.24V44h2.32a5.92,5.92,0,0,0,4.75-2.33,10.46,10.46,0,0,0,1.8-3.48L33.46,10.4h4.86l5.54,14.3q.38,1,.87,2.46c.33,1,.67,2,1,3s.61,1.92.82,2.69h.32c.14-.56.32-1.2.53-1.9l.66-2.19c.22-.76.45-1.48.68-2.17s.42-1.29.56-1.82L54,10.4h4.7l-9.39,27a36.15,36.15,0,0,1-1.75,4.19,15.48,15.48,0,0,1-2.11,3.3A8,8,0,0,1,42.65,47,9.07,9.07,0,0,1,38.79,47.77Z"/><path d="M72.2,38.79a10.89,10.89,0,0,1-5.88-1.53,9.83,9.83,0,0,1-3.8-4.77,22.2,22.2,0,0,1-1.35-8.42A20.56,20.56,0,0,1,62.54,16a10.22,10.22,0,0,1,3.8-4.7A10.39,10.39,0,0,1,72,9.76a13.31,13.31,0,0,1,3.43.43,8.46,8.46,0,0,1,2.83,1.32,8.81,8.81,0,0,1,2.19,2.37h.31V0H85.4V38.16H81.65l-.42-4h-.37a9,9,0,0,1-3.7,3.46A10.86,10.86,0,0,1,72.2,38.79Zm1.11-4.06a7.27,7.27,0,0,0,4.28-1.16A6.68,6.68,0,0,0,80,30.19a17,17,0,0,0,.76-5.49v-.84a17.06,17.06,0,0,0-.58-4.81,8.19,8.19,0,0,0-1.58-3.11,5.59,5.59,0,0,0-2.32-1.64,8.4,8.4,0,0,0-2.8-.47,7.78,7.78,0,0,0-4.22,1,6.07,6.07,0,0,0-2.43,3.22A16.92,16.92,0,0,0,66,23.75v1.11a16.47,16.47,0,0,0,.84,5.78,6,6,0,0,0,2.46,3.14A7.74,7.74,0,0,0,73.31,34.73Z"/><path d="M92.68,38.16V10.4h3.75l.42,4.17h.37a10.79,10.79,0,0,1,2.51-2.75,9.55,9.55,0,0,1,3.11-1.55,12.82,12.82,0,0,1,3.67-.51,11.07,11.07,0,0,1,4.62.9,6.75,6.75,0,0,1,3.11,2.9A11,11,0,0,1,115.38,19V38.16h-4.65V19.63a7.67,7.67,0,0,0-.45-2.85A4.27,4.27,0,0,0,109.07,15a4.5,4.5,0,0,0-1.85-.89,9.9,9.9,0,0,0-2.4-.27,7.62,7.62,0,0,0-3.69.95,7.06,7.06,0,0,0-2.78,2.75,8.49,8.49,0,0,0-1,4.27V38.16Z"/><path d="M133.48,38.79a14.3,14.3,0,0,1-6.94-1.55,9.93,9.93,0,0,1-4.28-4.78,20.11,20.11,0,0,1-1.45-8.18,20.1,20.1,0,0,1,1.45-8.21,9.91,9.91,0,0,1,4.31-4.75,14.68,14.68,0,0,1,7.12-1.56,13.11,13.11,0,0,1,6.55,1.51,9.49,9.49,0,0,1,4,4.48,18.14,18.14,0,0,1,1.35,7.47v2.22H125.62a16,16,0,0,0,1,5.46A6,6,0,0,0,129.2,34a8.94,8.94,0,0,0,4.39,1,10,10,0,0,0,3.14-.45A6.24,6.24,0,0,0,139,33.25a5.47,5.47,0,0,0,1.39-2,7.24,7.24,0,0,0,.53-2.54h4.54a10.94,10.94,0,0,1-.84,4.09,8.62,8.62,0,0,1-2.33,3.2,11,11,0,0,1-3.74,2A15.82,15.82,0,0,1,133.48,38.79ZM125.72,22h15a12.59,12.59,0,0,0-.52-3.91,6.85,6.85,0,0,0-1.51-2.59A5.89,5.89,0,0,0,136.46,14a8.88,8.88,0,0,0-2.93-.45,8.61,8.61,0,0,0-4.11.9,6,6,0,0,0-2.59,2.75A13,13,0,0,0,125.72,22Z"/><path d="M153.69,47.77a11.59,11.59,0,0,1-2.19-.19l-1.24-.24V44h2.33a6,6,0,0,0,4.75-2.33,10.65,10.65,0,0,0,1.79-3.48L148.36,10.4h4.86l5.54,14.3q.38,1,.87,2.46c.34,1,.67,2,1,3s.6,1.92.81,2.69h.32c.14-.56.32-1.2.53-1.9l.66-2.19c.23-.76.45-1.48.68-2.17s.42-1.29.56-1.82l4.7-14.35h4.69l-9.39,27a38,38,0,0,1-1.74,4.19,15.89,15.89,0,0,1-2.12,3.3A8,8,0,0,1,157.55,47,9,9,0,0,1,153.69,47.77Z"/></g></g></svg>