<svg xmlns="http://www.w3.org/2000/svg" viewBox="0 0 320 480"><defs><style>.cls-1{fill:#ba0c2f;}.cls-2{fill:#fff;}</style></defs><g id="Layer_2" data-name="Layer 2"><g id="Layer_1-2" data-name="Layer 1"><rect class="cls-1" width="320" height="480"/><path class="cls-2" d="M70.93,48.11c-.5.1-2.66.54-5.37.89a.11.11,0,0,1-.1-.1V46a.11.11,0,0,1,.1-.1c2.76-.4,5-.79,5.42-.89a.1.1,0,0,0,.09-.1v-3a.1.1,0,0,0-.09-.1c-.5.1-2.66.54-5.37.88a.11.11,0,0,1-.1-.1v-1s-.05-.1-.15-.1c-2.61.69-4.29.1-7.09,1.43h-.1c-2.81-1.33-4.49-.74-7.1-1.43,0,0-.15.05-.15.1v1a.1.1,0,0,1-.09.1c-2.66-.34-4.83-.78-5.37-.88a.11.11,0,0,0-.1.1v3a.11.11,0,0,0,.1.1c.44.1,2.66.54,5.42.89A.11.11,0,0,1,51,46V48.9a.11.11,0,0,1-.09.1c-2.66-.35-4.83-.79-5.37-.89a.11.11,0,0,0-.1.1v3a.11.11,0,0,0,.1.1,85.45,85.45,0,0,0,9.31,1.33,6,6,0,0,1,2.85.83l.6.35h.09l.6-.35a5.82,5.82,0,0,1,2.85-.83,90.16,90.16,0,0,0,9.36-1.33,0,0,0,0,0,0-.05v-3C71,48.11,71,48.06,70.93,48.11ZM64.28,43v8a.11.11,0,0,1-.1.1c-3.2.39-4.34.29-6,1.28h-.1c-1.63-1-2.76-.84-6-1.28a.11.11,0,0,1-.1-.1V43a.11.11,0,0,1,.1-.1c1.72.25,3.79,0,6,1.28h.1c2.16-1.28,4.23-1,6-1.28A.11.11,0,0,1,64.28,43Z"/><path class="cls-2" d="M57.62,38l.45-1.28a.1.1,0,0,1,.2,0L58.71,38s0,0,.1,0h1.33c.1,0,.15.1,0,.2L59.1,39c-.05,0-.05,0-.05.1l.4,1.28c0,.1-.1.15-.15.1l-1.08-.79h-.1L57,40.48c-.09.05-.19,0-.14-.1l.39-1.28c0-.05,0-.1-.05-.1l-1.08-.79a.11.11,0,0,1,.05-.2h1.33S57.62,38,57.62,38Zm-8.47-.74.44-1.28a.11.11,0,0,1,.2,0l.45,1.28c0,.05,0,.05.09.05l1.33,0c.1,0,.15.1.05.2l-1.08.84c-.05,0-.05,0-.05.1L51,39.74c.05.1-.09.15-.14.1l-1.14-.79h-.1l-1.13.79c-.1,0-.2,0-.15-.1l.4-1.28c0-.05,0-.1-.05-.1l-1.09-.84a.11.11,0,0,1,0-.2l1.33,0C49.1,37.27,49.1,37.22,49.15,37.22Zm17,0,.44-1.28a.11.11,0,0,1,.2,0l.44,1.28c0,.05,0,.05.1.05l1.33,0c.1,0,.15.1,0,.2l-1.08.84s0,0,0,.1L68,39.74c0,.1-.1.15-.15.1l-1.13-.79h-.1l-1.13.79c-.1,0-.2,0-.15-.1l.39-1.28c0-.05,0-.1,0-.1l-1.09-.84a.11.11,0,0,1,.05-.2l1.33,0C66.1,37.27,66.1,37.22,66.15,37.22Zm-9,19.61A5.73,5.73,0,0,0,57.82,59s0,0,0,0-.59-1.33-1.48-1.33a.93.93,0,0,0-1,.89.61.61,0,0,0,.44.59.41.41,0,0,0,.45-.4s0,0,0-.09.29-.1.69.09a3.2,3.2,0,0,1,1,1v.1l-.15.15a.3.3,0,0,0,0,.44l.35.34s.1,0,.14,0l.35-.34c.15-.15.15-.35,0-.44l-.15-.15c0-.05,0-.05,0-.1a3.16,3.16,0,0,1,1-1,1,1,0,0,1,.69-.09s0,0,0,.09a.43.43,0,0,0,.44.4.56.56,0,0,0,.44-.59.93.93,0,0,0-1-.89c-.94,0-1.48,1.33-1.48,1.33h-.05a5.83,5.83,0,0,0,.64-2.12,2.56,2.56,0,0,0-.94-1.62.08.08,0,0,0-.14,0A2.18,2.18,0,0,0,57.18,56.83Zm8.72-2.26a4.53,4.53,0,0,0,.49,1.67s0,0,0,0-.45-1-1.19-1a.73.73,0,0,0-.79.69.44.44,0,0,0,.35.44c.2,0,.34-.1.34-.3,0,0,0,0,0-.09s.25-.05.5,0a2.64,2.64,0,0,1,.78.83v.1l-.14.15a.23.23,0,0,0,0,.34l.24.3a.09.09,0,0,0,.15,0l.25-.3a.23.23,0,0,0,0-.34v-.15a.07.07,0,0,1,0-.1,2.59,2.59,0,0,1,.79-.83c.29-.15.44-.1.49,0s0,0,0,.09a.32.32,0,0,0,.34.3.44.44,0,0,0,.35-.44.73.73,0,0,0-.79-.69c-.74,0-1.18,1-1.18,1h0a4.53,4.53,0,0,0,.49-1.67,2.55,2.55,0,0,0-.69-1.28.09.09,0,0,0-.15,0A2.33,2.33,0,0,0,65.9,54.57Zm-17,0a4.36,4.36,0,0,0,.5,1.67s0,0,0,0-.45-1-1.18-1a.73.73,0,0,0-.79.69.43.43,0,0,0,.34.44c.2,0,.35-.1.35-.3,0,0,0,0,0-.09s.24-.05.49,0a2.72,2.72,0,0,1,.79.83v.1l-.15.15a.23.23,0,0,0,0,.34l.25.3a.08.08,0,0,0,.14,0l.25-.3a.23.23,0,0,0,0-.34v-.15a.07.07,0,0,1,0-.1,2.59,2.59,0,0,1,.79-.83c.29-.15.44-.1.49,0s0,0,0,.09a.33.33,0,0,0,.35.3.44.44,0,0,0,.34-.44.73.73,0,0,0-.79-.69c-.74,0-1.18,1-1.18,1h0a4.35,4.35,0,0,0,.49-1.67,2.55,2.55,0,0,0-.69-1.28s-.1,0-.14,0A2.33,2.33,0,0,0,48.9,54.57ZM72,32.4a.11.11,0,0,0-.1-.1,75.52,75.52,0,0,1-13.69,1.53,70.74,70.74,0,0,1-13.7-1.53.11.11,0,0,0-.1.1V55.6c0,3.6,3.4,4.48,13.75,8.23h.05C68.56,60.08,72,59.15,72,55.6ZM70.78,55.11c0,3.25-3.1,4.09-12.56,7.54h0c-9.51-3.4-12.62-4.29-12.62-7.54V33.87a.11.11,0,0,1,.1-.09A77.66,77.66,0,0,0,58.17,35.2a82.3,82.3,0,0,0,12.51-1.42.11.11,0,0,1,.1.09Z"/><path class="cls-2" d="M117,56.14V48.85c0-1.92.1-5.86-6.16-5.86-2.12,0-4.53.79-5.71,2.41s-.55,3.55.74,3.55a1.89,1.89,0,0,0,2-1.87,2.4,2.4,0,0,1,2.56-2.51c1.23,0,2.86.88,2.86,2.31v1.77a51.13,51.13,0,0,0-6.9,2.17,4.78,4.78,0,0,0-2.81,4.58,4.25,4.25,0,0,0,4.53,4.49,9.64,9.64,0,0,0,5.22-1.68c.15.59.65,1.33,2.17,1.43h2.91V58.41C117.38,58.36,117,58.16,117,56.14Zm-3.74.3a5.92,5.92,0,0,1-3.21.93c-1.92,0-2.76-1.08-2.76-2.41a3.82,3.82,0,0,1,2.37-3.3c.94-.44,3.6-1.28,3.6-1.28Zm20.54-1.58c0,3.16-3.2,5-6.21,5a22.44,22.44,0,0,1-5.07-.69.49.49,0,0,0-.54.39h-1.24V53.78H122c.39,1.28,1.72,4.63,5.32,4.63,1.72,0,3.2-.69,3.2-2.12,0-1.92-2.12-2.51-4.14-3.4s-5.62-2-5.62-5.12,3.5-4.78,6.56-4.78a13.89,13.89,0,0,1,4,.69.21.21,0,0,0,.19-.1h1.14v4.53h-1.23c-.15-.29-1.24-3.69-4.24-3.69-1.23,0-2.71.64-2.71,2,0,1.62,2.22,2.41,4.38,3.35S133.84,52.05,133.84,54.86ZM107.43,36.24a21.81,21.81,0,0,1-6.65,0v1.23h.79c.69,0,1.87-.15,1.13,2.12-.64,2-4.18,13.45-4.18,13.45s-3.8-11.87-4.34-13.75,1.18-1.82,1.68-1.82V36.24a26.87,26.87,0,0,1-8.63,0v1.23c.6,0,1.88-.29,2.76,2.51s1.48,4.59,1.48,4.59l-3.6,9.21S83.69,42.3,83,40.23c-.64-1.87,0-2.76.69-2.76h.79V36.24a26.25,26.25,0,0,1-8.53,0v1.23c1.19-.1,1.92.2,2.71,2.42s7.15,20,7.15,20h1.57l5-12.81L96.5,59.89h1.67s6-19.22,6.41-20.5,1.18-1.92,2.21-1.92h.64Zm33.16,8.87a7.25,7.25,0,0,1,5.12-2.17c3.75,0,5.32,2.41,5.32,5v8h0c0,1.08.15,1.82.5,2.11s.54.3,1.33.3v1.23h-7.29V58.36c.54,0,1,0,1.33-.3a3.08,3.08,0,0,0,.49-2.11V48a2.59,2.59,0,0,0-2.56-2.85,5,5,0,0,0-4.19,2.41V56a3.08,3.08,0,0,0,.49,2.11c.35.35.69.3,1.33.3v1.23h-7.29V58.36c.54,0,1,0,1.33-.3A3.08,3.08,0,0,0,137,56V40.18c0-2.66-.34-2.71-1.87-2.71V36.24a17.35,17.35,0,0,0,5.57,0Zm33.84-8.87a20,20,0,0,1-6.6,0v1.23c1,0,2.47-.39,2.47,2.76V51.71c0,3.79-2.42,6.35-6.26,6.35-5.76,0-5.76-5.32-5.76-8.32V40.23c0-3,.83-2.76,2.06-2.76V36.24a25.45,25.45,0,0,1-8.17,0v1.23c1.18,0,2.07-.29,2.07,2.76,0,.15,0,7.19,0,9.51,0,6.95,2.66,10.15,9.8,10.15,3.64,0,8-2.07,8-8.57v-11c0-3,1.13-2.76,2.31-2.76Z"/><path class="cls-2" d="M181.68,59.59V42.4h2.61l5.22,11.08,5.27-11.08h2.61V59.59h-2V45.26l-5,10.69h-1.63l-5.07-10.69V59.59Zm19.06-5.91c0-3.74,2-6.21,5.47-6.21s5.22,2.47,5.22,6.7h-8.81c.14,2.56,1.47,4.14,3.59,4.14a3.46,3.46,0,0,0,3.25-2l1.73.59a5.29,5.29,0,0,1-5,3C202.76,59.89,200.74,57.47,200.74,53.68Zm2-1h6.85c-.15-2.22-1.38-3.65-3.3-3.65S203,50.33,202.71,52.65Zm20.45,7c-.25-1.13-.39-1.82-.49-2.46a4.53,4.53,0,0,1-4.14,2.61c-3.15,0-4.93-2.37-4.93-6.21s1.78-6.21,4.93-6.21a4.56,4.56,0,0,1,3.94,2.27V42.4h2V55.21a15.17,15.17,0,0,0,.49,4.28ZM222.52,54v-.64c0-2.26-1.18-4.18-3.55-4.18-2.12,0-3.35,1.72-3.35,4.53s1.23,4.53,3.35,4.53S222.52,56.39,222.52,54Zm5.71-9.75a1.38,1.38,0,0,1,2.76,0,1.38,1.38,0,0,1-1.38,1.38A1.35,1.35,0,0,1,228.23,44.27Zm.4,15.32V47.72h1.92V59.59Zm5.07-5.91c0-3.74,2-6.21,5.47-6.21a4.62,4.62,0,0,1,4.53,2.81l-1.72.49a2.82,2.82,0,0,0-2.81-1.62c-2.27,0-3.55,1.72-3.55,4.53s1.24,4.53,3.5,4.53a3.09,3.09,0,0,0,3-1.72l1.62.49a4.78,4.78,0,0,1-4.63,2.91C235.62,59.89,233.7,57.47,233.7,53.68Zm12.37-9.41a1.38,1.38,0,0,1,2.76,0,1.38,1.38,0,0,1-1.38,1.38A1.35,1.35,0,0,1,246.07,44.27Zm.39,15.32V47.72h1.92V59.59Zm6.06,0V47.72h1.73v2.41a4.57,4.57,0,0,1,4.18-2.66c2.32,0,3.75,1.38,3.75,4.53v7.64h-2V52.35c0-2.27-.89-3.1-2.27-3.1a3.37,3.37,0,0,0-3.3,2.51,6,6,0,0,0-.2,1.48v6.35Zm12.42-5.91c0-3.74,2-6.21,5.47-6.21s5.22,2.47,5.22,6.7h-8.82c.15,2.56,1.48,4.14,3.6,4.14a3.47,3.47,0,0,0,3.25-2l1.72.59a5.26,5.26,0,0,1-5,3C266.91,59.89,264.94,57.47,264.94,53.68Zm1.92-1h6.85c-.15-2.22-1.38-3.65-3.3-3.65S267.15,50.33,266.86,52.65Z"/><path class="cls-2" d="M50.2,361.81h-2V351h3.3q4.23,0,4.23,3.48a3.1,3.1,0,0,1-1.15,2.69,5.16,5.16,0,0,1-3.08.82H50.2Zm1.28-9.07H50.2v3.48h1.28c1.47,0,2.2-.59,2.2-1.76S53,352.74,51.48,352.74Z"/><path class="cls-2" d="M57.8,361.81H55.71L59.14,351h2.68l3.44,10.83h-2.1l-.73-2.36h-3.9Zm2.68-8.63-1.41,4.57h2.82Z"/><path class="cls-2" d="M68.71,361.81h-2V351H70c2.82,0,4.22,1.12,4.22,3.35a2.76,2.76,0,0,1-2,2.91l.13.26,2.22,4.31H72.22l-1.68-3.5a1.33,1.33,0,0,0-.36-.49,1,1,0,0,0-.55-.12h-.92ZM70,352.65H68.71V356H70a2.75,2.75,0,0,0,1.6-.42,1.47,1.47,0,0,0,.6-1.29,1.43,1.43,0,0,0-.6-1.28A2.83,2.83,0,0,0,70,352.65Z"/><path class="cls-2" d="M79.94,361.81h-2v-9H75.12V351h7.63v1.86H79.94Z"/><path class="cls-2" d="M86.5,361.81h-2V351h2.09L91,358.31V351h2v10.83H90.88l-4.38-7.33Z"/><path class="cls-2" d="M101,357.17H97.5V360h4.65v1.78H95.47V351h6.68l-.11,1.78H97.5v2.65H101Z"/><path class="cls-2" d="M106.34,361.81h-2V351h3.28q4.22,0,4.22,3.35a2.76,2.76,0,0,1-2,2.91l.13.26,2.22,4.31h-2.32l-1.68-3.5a1.33,1.33,0,0,0-.36-.49,1,1,0,0,0-.55-.12h-.92Zm1.25-9.16h-1.25V356h1.25a2.72,2.72,0,0,0,1.59-.42,1.45,1.45,0,0,0,.61-1.29,1.41,1.41,0,0,0-.61-1.28A2.8,2.8,0,0,0,107.59,352.65Z"/><path class="cls-2" d="M121.09,361.81h-2.18L116.12,351h2l2,8.09,1.83-8.09h1.8l1.8,8.09,2-8.09h1.93l-2.78,10.83h-2.19l-1.7-7.57Z"/><path class="cls-2" d="M133,361.81h-2V351h2Z"/><path class="cls-2" d="M139.57,361.81h-2v-9h-2.81V351h7.63v1.86h-2.81Z"/><path class="cls-2" d="M146.18,361.81h-2V351h2v4.4h4.07V351h2v10.83h-2v-4.58h-4.07Z"/><path class="cls-2" d="M165.13,360.91a5.23,5.23,0,0,1-6.31,0,4.82,4.82,0,0,1-1-3.33V351h2v6.6a3.16,3.16,0,0,0,.49,2,2,2,0,0,0,1.62.63,1.93,1.93,0,0,0,1.61-.63,3.16,3.16,0,0,0,.5-2V351h2v6.6A4.77,4.77,0,0,1,165.13,360.91Z"/><path class="cls-2" d="M171.32,362a4.93,4.93,0,0,1-2.09-.46,5.26,5.26,0,0,1-1.63-1.11l1-1.33a3.87,3.87,0,0,0,1.22.86,3.56,3.56,0,0,0,1.52.35,2,2,0,0,0,1.35-.41,1.4,1.4,0,0,0,.48-1.12,1.24,1.24,0,0,0-.4-.95,3,3,0,0,0-1.18-.59l-.77-.21a4.44,4.44,0,0,1-2.25-1.15,2.94,2.94,0,0,1-.69-2.07,2.62,2.62,0,0,1,1-2.16,4,4,0,0,1,2.64-.8,5.07,5.07,0,0,1,3.56,1.44l-1,1.31a4.21,4.21,0,0,0-1.16-.74,3.41,3.41,0,0,0-1.38-.32,1.85,1.85,0,0,0-1.17.33,1.08,1.08,0,0,0-.42.89,1.21,1.21,0,0,0,.37.92,2.65,2.65,0,0,0,1.18.55l.75.23a4.49,4.49,0,0,1,2.27,1.18,3.35,3.35,0,0,1-.32,4.48A4.25,4.25,0,0,1,171.32,362Z"/></g></g></svg>