<svg xmlns="http://www.w3.org/2000/svg" viewBox="0 0 121 19.53"><defs><style>.cls-1{fill:#fff;}.cls-2{fill:#1a3c7a;}</style></defs><g id="Layer_2" data-name="Layer 2"><g id="Layer_1-2" data-name="Layer 1"><rect class="cls-1" width="121" height="19.53" rx="9.76"/><path class="cls-2" d="M12.63,13.38a3.44,3.44,0,0,1-1.28-.23,2.38,2.38,0,0,1-1-.65,3,3,0,0,1-.6-1.08,4.87,4.87,0,0,1-.21-1.49A4.37,4.37,0,0,1,10,8,2.66,2.66,0,0,1,11.06,6.8,3.72,3.72,0,0,1,14,6.64a2.41,2.41,0,0,1,.95.65,2.8,2.8,0,0,1,.6,1.09,4.92,4.92,0,0,1,.21,1.51,4.75,4.75,0,0,1-.22,1.53,2.91,2.91,0,0,1-.62,1.09,2.55,2.55,0,0,1-1,.65A3.62,3.62,0,0,1,12.63,13.38ZM12.69,12a1.16,1.16,0,0,0,.75-.23,1.29,1.29,0,0,0,.44-.68A3.84,3.84,0,0,0,14,10a4.18,4.18,0,0,0-.15-1.22A1.53,1.53,0,0,0,13.41,8a1.23,1.23,0,0,0-.77-.25,1.16,1.16,0,0,0-.75.24,1.45,1.45,0,0,0-.46.72,3.94,3.94,0,0,0-.15,1.18,4.35,4.35,0,0,0,.09.94,1.77,1.77,0,0,0,.26.67,1.12,1.12,0,0,0,.44.4A1.35,1.35,0,0,0,12.69,12Z"/><path class="cls-2" d="M16.38,13.24V7.9h1.38v2.17h.08a4.29,4.29,0,0,1,.27-1.3A1.55,1.55,0,0,1,18.68,8a1.66,1.66,0,0,1,.95-.26,1.55,1.55,0,0,1,1.31.58,2.78,2.78,0,0,1,.44,1.72v3.19H19.75v-3a1.64,1.64,0,0,0-.17-.82.58.58,0,0,0-.53-.27.8.8,0,0,0-.54.21,1.48,1.48,0,0,0-.36.69A4.85,4.85,0,0,0,18,11.34v1.9Z"/><path class="cls-2" d="M24.2,13.36a1.88,1.88,0,0,1-1.41-.48,2.12,2.12,0,0,1-.46-1.49V9.17h-.58v-1h0a1.29,1.29,0,0,0,.89-.42,2,2,0,0,0,.32-1v0h1V7.9h1.23V9.21H24v2a.68.68,0,0,0,.19.55.66.66,0,0,0,.46.16,1,1,0,0,0,.29,0,1.45,1.45,0,0,0,.29-.11v1.43a2.74,2.74,0,0,1-.56.11Z"/><path class="cls-2" d="M27,13.24,25.43,7.9h1.74l.92,4h0l1-4h1.64l-1.61,5.34Z"/><path class="cls-2" d="M32.21,13.38a2.19,2.19,0,0,1-.77-.14,1.37,1.37,0,0,1-.6-.46,1.41,1.41,0,0,1-.23-.86,1.37,1.37,0,0,1,.71-1.3,2.7,2.7,0,0,1,.7-.28c.26-.07.51-.12.76-.17l.79-.16a.91.91,0,0,0,.36-.14.3.3,0,0,0,.1-.22.52.52,0,0,0-.22-.45,1,1,0,0,0-.57-.15,1.42,1.42,0,0,0-.45.08.68.68,0,0,0-.36.29.93.93,0,0,0-.13.59l-1.46-.1A2.24,2.24,0,0,1,31,8.85a1.7,1.7,0,0,1,.58-.66,2.61,2.61,0,0,1,.81-.33,3.85,3.85,0,0,1,.88-.11,2.57,2.57,0,0,1,1.31.3,1.84,1.84,0,0,1,.77.86,3.48,3.48,0,0,1,.24,1.36v3H34.21V11.71h-.06a1.77,1.77,0,0,1-.3.83,1.82,1.82,0,0,1-.68.61A2,2,0,0,1,32.21,13.38Zm.67-1.2a1.24,1.24,0,0,0,.37-.06,1.34,1.34,0,0,0,.38-.22,1.1,1.1,0,0,0,.28-.42,1.62,1.62,0,0,0,.12-.66v-.24l.27,0a.61.61,0,0,1-.27.21,2.1,2.1,0,0,1-.42.12l-.47.1a2.83,2.83,0,0,0-.44.12.91.91,0,0,0-.33.2.55.55,0,0,0,.06.75A.77.77,0,0,0,32.88,12.18Z"/><path class="cls-2" d="M36.29,13.24V7.9h1.39v2.17h.08A4.65,4.65,0,0,1,38,8.77a1.52,1.52,0,0,1,1.53-1,1.57,1.57,0,0,1,1.31.58,2.85,2.85,0,0,1,.44,1.72v3.19H39.66v-3a1.64,1.64,0,0,0-.17-.82A.58.58,0,0,0,39,9.17a.8.8,0,0,0-.54.21,1.48,1.48,0,0,0-.36.69,4.85,4.85,0,0,0-.13,1.27v1.9Z"/><path class="cls-2" d="M44.09,14.83a5.49,5.49,0,0,1-1.43-.14,1.47,1.47,0,0,1-.75-.39A.87.87,0,0,1,42,13a2.34,2.34,0,0,1,1-.37V12.6a1.52,1.52,0,0,1-.81-.18.55.55,0,0,1-.3-.49.67.67,0,0,1,.27-.52,1.3,1.3,0,0,1,.88-.24V11.1a1.57,1.57,0,0,1-.87-.5,1.43,1.43,0,0,1-.33-1,1.53,1.53,0,0,1,.27-.91A1.77,1.77,0,0,1,43,8.11a3.3,3.3,0,0,1,1.25-.21h2.66V9.15l-1.83-.23V9a2.17,2.17,0,0,1,1.14.38.83.83,0,0,1,.3.64,1.09,1.09,0,0,1-.23.67,1.51,1.51,0,0,1-.71.46,3.67,3.67,0,0,1-1.2.16,3.39,3.39,0,0,1-.45,0,2,2,0,0,1-.39-.06,1.63,1.63,0,0,0-.27.15.21.21,0,0,0-.09.16.07.07,0,0,0,0,.07.23.23,0,0,0,.11,0h1.8l.53,0a2.15,2.15,0,0,1,.64.16,1.13,1.13,0,0,1,.53.42,1.38,1.38,0,0,1,.21.82,1.48,1.48,0,0,1-.32,1,2,2,0,0,1-1,.57A6.33,6.33,0,0,1,44.09,14.83Zm0-1.43a7.83,7.83,0,0,0,1-.05,1,1,0,0,0,.42-.12.26.26,0,0,0,.11-.19.29.29,0,0,0-.09-.22.43.43,0,0,0-.2-.11,1,1,0,0,0-.24-.05H43.54a1.38,1.38,0,0,0-.44.21.25.25,0,0,0-.11.21.21.21,0,0,0,.13.21,1.12,1.12,0,0,0,.39.09Zm.17-3a.61.61,0,0,0,.5-.2.79.79,0,0,0,.18-.55.89.89,0,0,0-.18-.58.65.65,0,0,0-.51-.21.63.63,0,0,0-.5.21.85.85,0,0,0-.19.58,1,1,0,0,0,.08.4.61.61,0,0,0,.24.26A.76.76,0,0,0,44.26,10.42Z"/><path class="cls-2" d="M51.47,13.38a1.82,1.82,0,0,1-1-.32,2,2,0,0,1-.72-1,4.11,4.11,0,0,1-.27-1.6A4.26,4.26,0,0,1,49.68,9a1.91,1.91,0,0,1,.69-.91,1.8,1.8,0,0,1,1-.31,1.69,1.69,0,0,1,.82.2,1.5,1.5,0,0,1,.6.6,3.2,3.2,0,0,1,.32,1.09h.09c0-.23-.07-.46-.1-.68s-.06-.44-.08-.65,0-.4,0-.59V6.16h1.64v7.08H53.25V11.59h-.07a3.3,3.3,0,0,1-.34,1,1.6,1.6,0,0,1-.57.61A1.56,1.56,0,0,1,51.47,13.38Zm.58-1.31a1,1,0,0,0,.37-.08.91.91,0,0,0,.32-.27,1.17,1.17,0,0,0,.23-.46,2,2,0,0,0,.09-.64v-.07A2.12,2.12,0,0,0,53,10a1.41,1.41,0,0,0-.17-.41.87.87,0,0,0-.23-.27.88.88,0,0,0-.28-.16A.92.92,0,0,0,52,9.12a.72.72,0,0,0-.53.21,1.24,1.24,0,0,0-.31.55,2.5,2.5,0,0,0-.1.74,2.09,2.09,0,0,0,.11.72,1.25,1.25,0,0,0,.32.54A.73.73,0,0,0,52.05,12.07Z"/><path class="cls-2" d="M56.21,7.51a1.07,1.07,0,0,1-.71-.2.67.67,0,0,1-.25-.57.69.69,0,0,1,.25-.58,1.13,1.13,0,0,1,.71-.2,1.11,1.11,0,0,1,.73.21.69.69,0,0,1,.24.57.7.7,0,0,1-.24.57A1.18,1.18,0,0,1,56.21,7.51Zm-.81,5.73V7.9H57v5.34Z"/><path class="cls-2" d="M57.77,13.24V7.9h1.42V10h.08a5.56,5.56,0,0,1,.23-1.34A1.52,1.52,0,0,1,60,8a.94.94,0,0,1,.6-.2,1.56,1.56,0,0,1,.77.21l-.08,1.82a1.72,1.72,0,0,0-.44-.2,1.46,1.46,0,0,0-.4-.07.85.85,0,0,0-.55.19,1.22,1.22,0,0,0-.34.53,3.1,3.1,0,0,0-.11.86v2.12Z"/><path class="cls-2" d="M64.23,13.38A3.36,3.36,0,0,1,63,13.16a2,2,0,0,1-.82-.6,2.29,2.29,0,0,1-.45-.86,3.81,3.81,0,0,1-.14-1,4.07,4.07,0,0,1,.15-1.11,2.7,2.7,0,0,1,.46-.93A2.19,2.19,0,0,1,63,8a3,3,0,0,1,2.36,0,1.94,1.94,0,0,1,.78.66,2.21,2.21,0,0,1,.38,1,3.74,3.74,0,0,1,0,1.2l-3.87.06V10l2.61,0-.21.52a2.28,2.28,0,0,0,0-.79.88.88,0,0,0-.28-.48A.82.82,0,0,0,64.13,9a.84.84,0,0,0-.59.19,1,1,0,0,0-.32.54,3.4,3.4,0,0,0-.09.83,2.07,2.07,0,0,0,.27,1.19,1,1,0,0,0,.84.37,1.18,1.18,0,0,0,.41-.06.69.69,0,0,0,.26-.17.61.61,0,0,0,.14-.29,1.13,1.13,0,0,0,0-.38l1.5.08a1.81,1.81,0,0,1-.07.69,1.63,1.63,0,0,1-.35.66,2,2,0,0,1-.74.5A3.33,3.33,0,0,1,64.23,13.38Z"/><path class="cls-2" d="M69.68,13.38a3.26,3.26,0,0,1-1.23-.22,2.26,2.26,0,0,1-.84-.6,2.58,2.58,0,0,1-.47-.88,3.6,3.6,0,0,1-.16-1,3.81,3.81,0,0,1,.16-1.08,2.59,2.59,0,0,1,.47-.92A2.06,2.06,0,0,1,68.44,8a2.85,2.85,0,0,1,1.22-.24A2.6,2.6,0,0,1,71,8.07a1.76,1.76,0,0,1,.73.83A2,2,0,0,1,71.88,10l-1.42.11a1.38,1.38,0,0,0-.07-.6.68.68,0,0,0-.29-.35A.86.86,0,0,0,69.63,9a1,1,0,0,0-.43.09.75.75,0,0,0-.31.28,1.36,1.36,0,0,0-.19.47,2.68,2.68,0,0,0-.07.68,2.86,2.86,0,0,0,.12.87,1.14,1.14,0,0,0,.35.55.93.93,0,0,0,.61.19.8.8,0,0,0,.56-.18.83.83,0,0,0,.25-.46,1.46,1.46,0,0,0,0-.55l1.51.07a2.3,2.3,0,0,1,0,.87,1.8,1.8,0,0,1-.39.75,2,2,0,0,1-.77.53A3.33,3.33,0,0,1,69.68,13.38Z"/><path class="cls-2" d="M74.71,13.36a1.86,1.86,0,0,1-1.4-.48,2.08,2.08,0,0,1-.46-1.49V9.17h-.59v-1h0a1.27,1.27,0,0,0,.89-.42,1.93,1.93,0,0,0,.33-1v0h1V7.9h1.22V9.21H74.47v2a.71.71,0,0,0,.18.55.68.68,0,0,0,.46.16,1,1,0,0,0,.3,0,1.36,1.36,0,0,0,.28-.11v1.43a2.62,2.62,0,0,1-.56.11Z"/><path class="cls-2" d="M81.56,13.38a1.58,1.58,0,0,1-.8-.2,1.6,1.6,0,0,1-.57-.61,2.82,2.82,0,0,1-.34-1h-.07v1.65H78.35V6.16H80V7.72c0,.19,0,.38,0,.59s0,.43-.07.65-.06.45-.1.68h.09a3.2,3.2,0,0,1,.32-1.09,1.44,1.44,0,0,1,.6-.6,1.73,1.73,0,0,1,.83-.2,1.79,1.79,0,0,1,1,.31,1.92,1.92,0,0,1,.69.91,4.16,4.16,0,0,1,.24,1.53,4.13,4.13,0,0,1-.27,1.61,2,2,0,0,1-.73,1A1.77,1.77,0,0,1,81.56,13.38ZM81,12.07a.76.76,0,0,0,.52-.19,1.28,1.28,0,0,0,.32-.53,2.36,2.36,0,0,0,.11-.72,2.5,2.5,0,0,0-.1-.74,1.32,1.32,0,0,0-.31-.56A.75.75,0,0,0,81,9.12a1,1,0,0,0-.29.05.74.74,0,0,0-.27.16,1,1,0,0,0-.23.27A1.4,1.4,0,0,0,80,10a2.12,2.12,0,0,0-.06.54v.07a2.38,2.38,0,0,0,.08.64,1.52,1.52,0,0,0,.23.46.86.86,0,0,0,.7.35Z"/><path class="cls-2" d="M86.66,13.38a3,3,0,0,1-1.36-.31,2.2,2.2,0,0,1-.93-.93A3.33,3.33,0,0,1,84,10.58,3.31,3.31,0,0,1,84.38,9a2.27,2.27,0,0,1,1-.92,3,3,0,0,1,1.36-.3,3,3,0,0,1,1.38.31A2.12,2.12,0,0,1,89,9a3.36,3.36,0,0,1,.33,1.58,3.19,3.19,0,0,1-.35,1.6,2.14,2.14,0,0,1-1,.91A3,3,0,0,1,86.66,13.38Zm0-1.21a.79.79,0,0,0,.53-.17,1.08,1.08,0,0,0,.32-.52,2.53,2.53,0,0,0,.12-.82,2.84,2.84,0,0,0-.13-.89,1.14,1.14,0,0,0-.35-.55A.8.8,0,0,0,86.64,9a.76.76,0,0,0-.51.18,1.11,1.11,0,0,0-.33.52,2.83,2.83,0,0,0-.11.83A2.21,2.21,0,0,0,86,11.75.84.84,0,0,0,86.7,12.17Z"/><path class="cls-2" d="M91.8,13.38a1.82,1.82,0,0,1-1-.32,2,2,0,0,1-.72-1,4.11,4.11,0,0,1-.27-1.6A4.26,4.26,0,0,1,90,9a1.91,1.91,0,0,1,.69-.91,1.82,1.82,0,0,1,1-.31,1.66,1.66,0,0,1,.82.2,1.5,1.5,0,0,1,.6.6,3.2,3.2,0,0,1,.32,1.09h.09c0-.23-.07-.46-.1-.68s-.06-.44-.08-.65,0-.4,0-.59V6.16H95v7.08H93.58V11.59h-.07a3,3,0,0,1-.34,1,1.66,1.66,0,0,1-.56.61A1.62,1.62,0,0,1,91.8,13.38Zm.58-1.31a1,1,0,0,0,.37-.08,1,1,0,0,0,.33-.27,1.31,1.31,0,0,0,.22-.46,2,2,0,0,0,.09-.64v-.07a2.12,2.12,0,0,0-.06-.54,1.75,1.75,0,0,0-.16-.41,1.05,1.05,0,0,0-.24-.27.84.84,0,0,0-.27-.16,1,1,0,0,0-.29-.05.72.72,0,0,0-.53.21,1.34,1.34,0,0,0-.31.55,2.5,2.5,0,0,0-.1.74,2.09,2.09,0,0,0,.11.72,1.25,1.25,0,0,0,.32.54A.74.74,0,0,0,92.38,12.07Z"/></g></g></svg>