<svg xmlns="http://www.w3.org/2000/svg" viewBox="0 0 114.5 40"><defs><style>.cls-1{fill:#fff;}.cls-2{fill:#ff5e39;}</style></defs><g id="Layer_2" data-name="Layer 2"><g id="Layer_1-2" data-name="Layer 1"><rect class="cls-1" width="114.5" height="40" rx="8.36"/><path class="cls-2" d="M20.5,17.35V7.6h4a4.67,4.67,0,0,1,3.06.92,3.12,3.12,0,0,1,1.11,2.55,3.33,3.33,0,0,1-.5,1.84,3.24,3.24,0,0,1-1.43,1.19,5.53,5.53,0,0,1-2.22.41h-3l.81-.82v3.66Zm1.82-3.47L21.51,13h2.92a2.71,2.71,0,0,0,1.81-.52,1.78,1.78,0,0,0,.6-1.43,1.79,1.79,0,0,0-.6-1.44,2.83,2.83,0,0,0-1.81-.5H21.51l.81-.89Zm4.57,3.47-2.47-3.54h1.94l2.48,3.54Z"/><path class="cls-2" d="M34,17.45a4.54,4.54,0,0,1-2.17-.5,3.54,3.54,0,0,1-1.43-1.36,3.77,3.77,0,0,1-.51-2,3.87,3.87,0,0,1,.49-2,3.53,3.53,0,0,1,1.37-1.34,3.93,3.93,0,0,1,2-.49,4,4,0,0,1,1.94.47A3.45,3.45,0,0,1,37,11.64a4.09,4.09,0,0,1,.49,2c0,.08,0,.16,0,.25s0,.18,0,.27h-6.2V13h5.28l-.68.36a2.16,2.16,0,0,0-.27-1.12,2,2,0,0,0-.76-.77,2.13,2.13,0,0,0-1.11-.28,2.17,2.17,0,0,0-1.12.28,2,2,0,0,0-.75.77,2.41,2.41,0,0,0-.27,1.17v.27a2.25,2.25,0,0,0,.31,1.19,2,2,0,0,0,.86.79,2.77,2.77,0,0,0,1.28.28,3.12,3.12,0,0,0,1.13-.19,2.43,2.43,0,0,0,.89-.62L37,16.24a3.11,3.11,0,0,1-1.26.89A4.45,4.45,0,0,1,34,17.45Z"/><path class="cls-2" d="M41.49,17.45a6.2,6.2,0,0,1-1.79-.25,4.46,4.46,0,0,1-1.36-.59L39,15.29A5,5,0,0,0,41.6,16a2.37,2.37,0,0,0,1.19-.23.67.67,0,0,0,.37-.59.54.54,0,0,0-.25-.47,2,2,0,0,0-.66-.25l-.9-.15c-.33-.05-.66-.11-1-.19a3.18,3.18,0,0,1-.89-.35,1.78,1.78,0,0,1-.66-.62,1.85,1.85,0,0,1-.25-1,2,2,0,0,1,.4-1.23,2.57,2.57,0,0,1,1.14-.81,4.79,4.79,0,0,1,1.73-.28,7.14,7.14,0,0,1,1.52.16,4.16,4.16,0,0,1,1.27.48L44,11.79a3.68,3.68,0,0,0-1.06-.44,4.94,4.94,0,0,0-1.07-.12,2.29,2.29,0,0,0-1.18.24.71.71,0,0,0-.38.6.55.55,0,0,0,.25.5,2.26,2.26,0,0,0,.66.27,9,9,0,0,0,.89.16,8.58,8.58,0,0,1,1,.18,4.12,4.12,0,0,1,.89.35,1.69,1.69,0,0,1,.67.6,1.92,1.92,0,0,1,.25,1,1.9,1.9,0,0,1-.41,1.21,2.66,2.66,0,0,1-1.17.8A5,5,0,0,1,41.49,17.45Z"/><path class="cls-2" d="M49.86,17.45a4.54,4.54,0,0,1-2.17-.5,3.54,3.54,0,0,1-1.43-1.36,3.77,3.77,0,0,1-.51-2,3.87,3.87,0,0,1,.49-2,3.53,3.53,0,0,1,1.37-1.34,3.93,3.93,0,0,1,2-.49,4,4,0,0,1,1.94.47,3.45,3.45,0,0,1,1.34,1.34,4.09,4.09,0,0,1,.49,2c0,.08,0,.16,0,.25s0,.18,0,.27h-6.2V13h5.28l-.68.36a2.16,2.16,0,0,0-.27-1.12,2,2,0,0,0-.76-.77,2.13,2.13,0,0,0-1.11-.28,2.17,2.17,0,0,0-1.12.28,2,2,0,0,0-.75.77,2.41,2.41,0,0,0-.27,1.17v.27a2.25,2.25,0,0,0,.31,1.19,2,2,0,0,0,.86.79A2.77,2.77,0,0,0,49.9,16,3.12,3.12,0,0,0,51,15.78a2.43,2.43,0,0,0,.89-.62l.93,1.08a3.11,3.11,0,0,1-1.26.89A4.45,4.45,0,0,1,49.86,17.45Z"/><path class="cls-2" d="M55,17.35V9.91h1.66V12l-.2-.6a2.33,2.33,0,0,1,1-1.14,3.73,3.73,0,0,1,1.79-.39v1.66l-.21,0h-.19a2.18,2.18,0,0,0-1.58.58,2.32,2.32,0,0,0-.58,1.72v3.61Z"/><path class="cls-2" d="M63.07,17.35,59.88,9.91h1.81l2.74,6.56h-.89l2.84-6.56h1.67l-3.19,7.44Z"/><path class="cls-2" d="M71.06,17.45a3.52,3.52,0,0,1-1.46-.29,2.25,2.25,0,0,1-1-.79,2,2,0,0,1-.34-1.15,2.15,2.15,0,0,1,.3-1.13,2,2,0,0,1,1-.79,4.58,4.58,0,0,1,1.81-.3h2.16v1.16h-2a1.82,1.82,0,0,0-1.2.29.93.93,0,0,0-.31.7.89.89,0,0,0,.38.75,1.7,1.7,0,0,0,1.05.28,2.27,2.27,0,0,0,1.14-.29,1.67,1.67,0,0,0,.74-.87l.29,1.05a2,2,0,0,1-.9,1A3.35,3.35,0,0,1,71.06,17.45Zm2.34-.1v-1.5l-.09-.32V12.89a1.56,1.56,0,0,0-.46-1.19,2,2,0,0,0-1.4-.42,4,4,0,0,0-1.23.19,3.09,3.09,0,0,0-1,.54l-.69-1.26a4.05,4.05,0,0,1,1.43-.69,6.15,6.15,0,0,1,1.72-.23,3.65,3.65,0,0,1,2.5.77A3,3,0,0,1,75.05,13v4.36Z"/><path class="cls-2" d="M80.13,11.3V9.91h5V11.3Zm3.79,6.15A2.59,2.59,0,0,1,82,16.81a2.43,2.43,0,0,1-.67-1.87V8.27H83.1V14.9a1.16,1.16,0,0,0,.27.82,1,1,0,0,0,.76.29,1.57,1.57,0,0,0,1-.3L85.59,17a2,2,0,0,1-.75.37A3.15,3.15,0,0,1,83.92,17.45Z"/><path class="cls-2" d="M90.18,17.45a3.7,3.7,0,0,1-1.67-.36A2.51,2.51,0,0,1,87.38,16,3.81,3.81,0,0,1,87,14.16V9.91h1.74v4a2.17,2.17,0,0,0,.46,1.5,1.66,1.66,0,0,0,1.29.5,2.24,2.24,0,0,0,1.06-.25,1.75,1.75,0,0,0,.71-.76,2.68,2.68,0,0,0,.26-1.24V9.91h1.74v7.44H92.57v-2l.3.62a2.62,2.62,0,0,1-1.1,1.11A3.45,3.45,0,0,1,90.18,17.45Z"/><path class="cls-2" d="M15,31.35l-3.19-7.44h1.81l2.75,6.56h-.89l2.84-6.56h1.67l-3.19,7.44Z"/><path class="cls-2" d="M21.91,22.68a1.13,1.13,0,0,1-.81-.3,1,1,0,0,1-.31-.74,1,1,0,0,1,.31-.75,1.16,1.16,0,0,1,.81-.29,1.15,1.15,0,0,1,.8.28.92.92,0,0,1,.31.72,1,1,0,0,1-.31.77A1.05,1.05,0,0,1,21.91,22.68ZM21,31.35V23.91h1.74v7.44Z"/><path class="cls-2" d="M27.35,31.45a6.24,6.24,0,0,1-1.79-.25,4.69,4.69,0,0,1-1.36-.59l.67-1.32a5.11,5.11,0,0,0,1.2.53,4.83,4.83,0,0,0,1.39.21,2.42,2.42,0,0,0,1.2-.23.66.66,0,0,0,.36-.59.52.52,0,0,0-.25-.47,1.88,1.88,0,0,0-.65-.25l-.9-.15c-.33-.05-.66-.11-1-.19a3.24,3.24,0,0,1-.9-.35,1.75,1.75,0,0,1-.65-.62,1.85,1.85,0,0,1-.25-1,2,2,0,0,1,.4-1.23A2.57,2.57,0,0,1,26,24.11a4.72,4.72,0,0,1,1.73-.28,7.21,7.21,0,0,1,1.52.16,4.26,4.26,0,0,1,1.27.48l-.67,1.32a3.62,3.62,0,0,0-1.07-.44,4.79,4.79,0,0,0-1.06-.12,2.29,2.29,0,0,0-1.18.24.69.69,0,0,0-.38.6.55.55,0,0,0,.25.5,2.08,2.08,0,0,0,.65.27c.27.06.57.12.9.16a8.05,8.05,0,0,1,1,.18,4,4,0,0,1,.9.35,1.6,1.6,0,0,1,.66.6,2.08,2.08,0,0,1-.16,2.23,2.57,2.57,0,0,1-1.16.8A5.07,5.07,0,0,1,27.35,31.45Z"/><path class="cls-2" d="M33.11,22.68a1.09,1.09,0,0,1-.8-.3,1,1,0,0,1,0-1.49,1.12,1.12,0,0,1,.8-.29,1.15,1.15,0,0,1,.8.28.92.92,0,0,1,.31.72,1,1,0,0,1-.31.77A1.05,1.05,0,0,1,33.11,22.68Zm-.88,8.67V23.91H34v7.44Z"/><path class="cls-2" d="M35.27,25.3V23.91h5V25.3Zm3.79,6.15a2.63,2.63,0,0,1-1.9-.64,2.43,2.43,0,0,1-.67-1.87V22.27h1.74V28.9a1.16,1.16,0,0,0,.27.82,1,1,0,0,0,.76.29,1.57,1.57,0,0,0,1-.3L40.73,31a2.16,2.16,0,0,1-.76.37A3.08,3.08,0,0,1,39.06,31.45Z"/><path class="cls-2" d="M44.14,31.45a3.49,3.49,0,0,1-1.46-.29,2.25,2.25,0,0,1-1-.79,2,2,0,0,1-.34-1.15,2.15,2.15,0,0,1,.3-1.13,2,2,0,0,1,1-.79,4.55,4.55,0,0,1,1.81-.3h2.16v1.16h-2a1.8,1.8,0,0,0-1.2.29.94.94,0,0,0,.07,1.45,1.69,1.69,0,0,0,1,.28,2.31,2.31,0,0,0,1.15-.29,1.66,1.66,0,0,0,.73-.87l.3,1.05a2,2,0,0,1-.9,1A3.35,3.35,0,0,1,44.14,31.45Zm2.34-.1v-1.5l-.1-.32V26.89a1.52,1.52,0,0,0-.46-1.19,2,2,0,0,0-1.39-.42,4,4,0,0,0-1.23.19,3,3,0,0,0-1,.54l-.68-1.26A4.05,4.05,0,0,1,43,24.06a6.15,6.15,0,0,1,1.72-.23,3.65,3.65,0,0,1,2.5.77A3,3,0,0,1,48.13,27v4.36Z"/><path class="cls-2" d="M57.35,31a4,4,0,0,1-1.92-.46,3.41,3.41,0,0,1-1.35-1.26,3.55,3.55,0,0,1-.49-1.89,3.51,3.51,0,0,1,.49-1.88,3.41,3.41,0,0,1,1.35-1.26,4.18,4.18,0,0,1,1.92-.44,3.76,3.76,0,0,1,1.7.37,2.82,2.82,0,0,1,1.2,1.17,4.11,4.11,0,0,1,.45,2,4.14,4.14,0,0,1-.45,2,2.84,2.84,0,0,1-1.2,1.18A3.64,3.64,0,0,1,57.35,31Zm.22,3.13a7.5,7.5,0,0,1-2-.27A4.18,4.18,0,0,1,54,33.09l.78-1.31a3.58,3.58,0,0,0,1.23.65,4.91,4.91,0,0,0,1.51.24,2.46,2.46,0,0,0,1.8-.56,2.29,2.29,0,0,0,.57-1.69V29.09L60,27.41l-.06-1.69V23.91h1.66v6.31a3.88,3.88,0,0,1-1,3A4.26,4.26,0,0,1,57.57,34.15Zm0-4.61a2.46,2.46,0,0,0,1.17-.27,1.93,1.93,0,0,0,.8-.75,2.27,2.27,0,0,0,0-2.22,1.85,1.85,0,0,0-.8-.74,2.58,2.58,0,0,0-1.17-.26,2.69,2.69,0,0,0-1.18.26,1.91,1.91,0,0,0-.8.74,2.27,2.27,0,0,0,0,2.22,2,2,0,0,0,.8.75A2.56,2.56,0,0,0,57.61,29.54Z"/><path class="cls-2" d="M67,31.45a3.74,3.74,0,0,1-1.68-.36A2.49,2.49,0,0,1,64.22,30a3.81,3.81,0,0,1-.41-1.85V23.91h1.74v4a2.12,2.12,0,0,0,.46,1.5,1.65,1.65,0,0,0,1.28.5,2.25,2.25,0,0,0,1.07-.25,1.75,1.75,0,0,0,.71-.76,2.68,2.68,0,0,0,.26-1.24V23.91h1.74v7.44H69.41v-2l.29.62a2.56,2.56,0,0,1-1.1,1.11A3.38,3.38,0,0,1,67,31.45Z"/><path class="cls-2" d="M74.23,22.68a1.12,1.12,0,0,1-.8-.3,1.05,1.05,0,0,1,0-1.49,1.16,1.16,0,0,1,.8-.29,1.13,1.13,0,0,1,.8.28.93.93,0,0,1,.32.72,1.06,1.06,0,0,1-1.12,1.08Zm-.88,8.67V23.91H75.1v7.44Z"/><path class="cls-2" d="M79.62,31.45a3.52,3.52,0,0,1-1.46-.29,2.25,2.25,0,0,1-1-.79,2,2,0,0,1-.34-1.15,2.15,2.15,0,0,1,.3-1.13,2,2,0,0,1,1-.79,4.58,4.58,0,0,1,1.81-.3H82.1v1.16h-2a1.84,1.84,0,0,0-1.2.29.93.93,0,0,0-.31.7.89.89,0,0,0,.38.75,1.7,1.7,0,0,0,1,.28,2.34,2.34,0,0,0,1.15-.29,1.7,1.7,0,0,0,.73-.87l.29,1.05a2,2,0,0,1-.9,1A3.35,3.35,0,0,1,79.62,31.45Zm2.34-.1v-1.5l-.09-.32V26.89a1.56,1.56,0,0,0-.46-1.19,2,2,0,0,0-1.4-.42,4,4,0,0,0-1.23.19,3.09,3.09,0,0,0-1,.54l-.69-1.26a4.05,4.05,0,0,1,1.43-.69,6.15,6.15,0,0,1,1.72-.23,3.65,3.65,0,0,1,2.5.77A3,3,0,0,1,83.61,27v4.36Z"/><path class="cls-2" d="M89,31.45A3.86,3.86,0,0,1,87.07,31a3.49,3.49,0,0,1-1.34-1.33,3.94,3.94,0,0,1-.49-2,3.88,3.88,0,0,1,.49-2,3.43,3.43,0,0,1,1.34-1.33A4,4,0,0,1,89,23.83a3.31,3.31,0,0,1,1.67.41,2.9,2.9,0,0,1,1.17,1.25,4.6,4.6,0,0,1,.43,2.14,4.8,4.8,0,0,1-.41,2.14A2.9,2.9,0,0,1,90.7,31,3.37,3.37,0,0,1,89,31.45ZM89.21,30a2.3,2.3,0,0,0,1.12-.28,2.22,2.22,0,0,0,.8-.81,2.82,2.82,0,0,0,0-2.49,2.27,2.27,0,0,0-.8-.8,2.38,2.38,0,0,0-2.24,0,2.19,2.19,0,0,0-.8.8,2.73,2.73,0,0,0,0,2.49,2.15,2.15,0,0,0,.8.81A2.3,2.3,0,0,0,89.21,30Zm2.26,1.39V29.59l.07-2-.14-2V21h1.72V31.35Z"/><path class="cls-2" d="M97.67,31.45a3.54,3.54,0,0,1-1.47-.29,2.25,2.25,0,0,1-1-.79,2.07,2.07,0,0,1-.34-1.15,2.15,2.15,0,0,1,.3-1.13,2,2,0,0,1,1-.79A4.6,4.6,0,0,1,98,27h2.16v1.16h-2a1.84,1.84,0,0,0-1.2.29.92.92,0,0,0-.3.7.88.88,0,0,0,.37.75,1.7,1.7,0,0,0,1,.28,2.34,2.34,0,0,0,1.15-.29,1.66,1.66,0,0,0,.73-.87l.29,1.05a2,2,0,0,1-.9,1A3.33,3.33,0,0,1,97.67,31.45Zm2.34-.1v-1.5l-.1-.32V26.89a1.52,1.52,0,0,0-.46-1.19,2,2,0,0,0-1.39-.42,4.06,4.06,0,0,0-1.24.19,3.09,3.09,0,0,0-1,.54l-.68-1.26a4,4,0,0,1,1.42-.69,6.2,6.2,0,0,1,1.72-.23,3.68,3.68,0,0,1,2.51.77,3,3,0,0,1,.88,2.39v4.36Z"/></g></g></svg>