<svg xmlns="http://www.w3.org/2000/svg" viewBox="0 0 146.76 17.07"><defs><style>.cls-1{fill:#2b3336;}.cls-2{fill:#fff;}</style></defs><g id="Layer_2" data-name="Layer 2"><g id="Layer_1-2" data-name="Layer 1"><rect class="cls-1" width="146.76" height="17.07" rx="8.53"/><path class="cls-2" d="M13.67,12.09V5.52h3.39a2.24,2.24,0,0,1,1,.2,1.44,1.44,0,0,1,.64.55,1.55,1.55,0,0,1,.23.84,1.74,1.74,0,0,1-.14.69,1.45,1.45,0,0,1-.37.53,1.59,1.59,0,0,1-.55.32v0a1.84,1.84,0,0,1,.62.28,1.45,1.45,0,0,1,.45.53,1.8,1.8,0,0,1,.17.81,1.8,1.8,0,0,1-.27,1,1.56,1.56,0,0,1-.72.57,2.74,2.74,0,0,1-1,.18Zm.9-3.75h2.31a1.14,1.14,0,0,0,.57-.13,1,1,0,0,0,.38-.36A1.09,1.09,0,0,0,18,7.31a1,1,0,0,0-.28-.76A1.1,1.1,0,0,0,17,6.31H14.57Zm0,3h2.48a1.24,1.24,0,0,0,.79-.25,1,1,0,0,0,.31-.85A1.22,1.22,0,0,0,18,9.6a.85.85,0,0,0-.39-.36A1.54,1.54,0,0,0,17,9.12h-2.4Z"/><path class="cls-2" d="M20.19,12.09v-5h.68l.08.83H21a2.11,2.11,0,0,1,.21-.46,1,1,0,0,1,.37-.35,1.08,1.08,0,0,1,.56-.14l.27,0,.17.06v.77h-.31a1.33,1.33,0,0,0-.56.11,1.1,1.1,0,0,0-.39.31,1.53,1.53,0,0,0-.23.48,2.9,2.9,0,0,0-.07.6v2.8Z"/><path class="cls-2" d="M25.28,12.21A2.54,2.54,0,0,1,24,11.93a1.75,1.75,0,0,1-.78-.87A3.54,3.54,0,0,1,23,9.58a3.52,3.52,0,0,1,.26-1.49A1.8,1.8,0,0,1,24,7.22a2.77,2.77,0,0,1,1.29-.28,2.38,2.38,0,0,1,1.19.27,1.75,1.75,0,0,1,.72.82,3.16,3.16,0,0,1,.25,1.35v.41H23.86a3,3,0,0,0,.17,1,1.12,1.12,0,0,0,.48.56,1.57,1.57,0,0,0,.79.18,1.91,1.91,0,0,0,.57-.08,1.16,1.16,0,0,0,.42-.24,1,1,0,0,0,.25-.36,1.35,1.35,0,0,0,.1-.46h.82a2.17,2.17,0,0,1-.15.74,1.55,1.55,0,0,1-.43.58,1.94,1.94,0,0,1-.68.38A2.84,2.84,0,0,1,25.28,12.21Zm-1.4-3.06h2.73a2.31,2.31,0,0,0-.1-.7,1.12,1.12,0,0,0-.68-.74,1.8,1.8,0,0,0-.54-.08,1.65,1.65,0,0,0-.74.16,1.09,1.09,0,0,0-.47.5A2.27,2.27,0,0,0,23.88,9.15Z"/><path class="cls-2" d="M29.79,12.21a2.15,2.15,0,0,1-.56-.07,1.7,1.7,0,0,1-.52-.22,1.11,1.11,0,0,1-.38-.42,1.57,1.57,0,0,1-.14-.69,1.36,1.36,0,0,1,.25-.85,1.54,1.54,0,0,1,.69-.52,3.83,3.83,0,0,1,1.06-.26,11,11,0,0,1,1.33-.07V8.53a1.06,1.06,0,0,0-.1-.48.62.62,0,0,0-.34-.31,1.77,1.77,0,0,0-.69-.11,1.84,1.84,0,0,0-.69.11.78.78,0,0,0-.35.28.76.76,0,0,0-.1.39v.14h-.81a.28.28,0,0,1,0-.09V8.34a1.17,1.17,0,0,1,.25-.77,1.51,1.51,0,0,1,.71-.47,3.15,3.15,0,0,1,1.06-.16,2.76,2.76,0,0,1,1.06.18,1.45,1.45,0,0,1,.64.52,1.48,1.48,0,0,1,.21.81v2.72a.28.28,0,0,0,.3.33H33v.56l-.29.1a1.48,1.48,0,0,1-.38,0,.76.76,0,0,1-.41-.1.68.68,0,0,1-.25-.28,1.56,1.56,0,0,1-.11-.4h-.07a1.61,1.61,0,0,1-.44.42,1.88,1.88,0,0,1-.59.27A2.24,2.24,0,0,1,29.79,12.21ZM30,11.5a1.9,1.9,0,0,0,.58-.09,1.64,1.64,0,0,0,.48-.28,1.53,1.53,0,0,0,.34-.42,1.26,1.26,0,0,0,.12-.55V9.74a9.72,9.72,0,0,0-1.32.08,1.87,1.87,0,0,0-.84.31.75.75,0,0,0-.29.62.72.72,0,0,0,.11.42.7.7,0,0,0,.33.25A1.44,1.44,0,0,0,30,11.5Z"/><path class="cls-2" d="M34.92,12.21a1.06,1.06,0,0,1-.61-.15.87.87,0,0,1-.32-.39,1.5,1.5,0,0,1-.09-.52V7.76h-.66v-.7h.67l.16-1.41h.67V7.06h.95v.7h-.95V11a.69.69,0,0,0,.08.36.39.39,0,0,0,.33.12h.54v.56l-.23.07-.28.06Z"/><path class="cls-2" d="M36.59,12.09V5.17h.84V7.69h.07a1.71,1.71,0,0,1,.43-.42A2,2,0,0,1,38.46,7a2.61,2.61,0,0,1,.64-.08,2.17,2.17,0,0,1,.84.16,1.3,1.3,0,0,1,.56.53,2,2,0,0,1,.21,1v3.47h-.85V8.73a1.32,1.32,0,0,0-.08-.52.79.79,0,0,0-.22-.31.73.73,0,0,0-.33-.16,1.52,1.52,0,0,0-.44,0,1.31,1.31,0,0,0-.67.17,1.22,1.22,0,0,0-.5.48,1.52,1.52,0,0,0-.19.79v3Z"/><path class="cls-2" d="M44,12.21a2.55,2.55,0,0,1-1.26-.28,1.78,1.78,0,0,1-.77-.87,3.53,3.53,0,0,1-.27-1.48A3.51,3.51,0,0,1,42,8.09a1.75,1.75,0,0,1,.78-.87A2.74,2.74,0,0,1,44,6.94a2.41,2.41,0,0,1,1.19.27,1.75,1.75,0,0,1,.72.82,3.16,3.16,0,0,1,.25,1.35v.41H42.57a3,3,0,0,0,.17,1,1.12,1.12,0,0,0,.48.56,1.57,1.57,0,0,0,.79.18,1.91,1.91,0,0,0,.57-.08A1.11,1.11,0,0,0,45,11.2a.93.93,0,0,0,.26-.36,1.14,1.14,0,0,0,.09-.46h.83a2,2,0,0,1-.16.74,1.42,1.42,0,0,1-.42.58,1.94,1.94,0,0,1-.68.38A2.88,2.88,0,0,1,44,12.21ZM42.58,9.15h2.73a2.33,2.33,0,0,0-.09-.7A1.19,1.19,0,0,0,45,8a1,1,0,0,0-.42-.27A1.69,1.69,0,0,0,44,7.63a1.73,1.73,0,0,0-.75.16,1.07,1.07,0,0,0-.46.5A2.46,2.46,0,0,0,42.58,9.15Z"/><path class="cls-2" d="M50.41,12.21a1.06,1.06,0,0,1-.61-.15.81.81,0,0,1-.32-.39,1.5,1.5,0,0,1-.09-.52V7.76h-.66v-.7h.67l.16-1.41h.67V7.06h1v.7h-1V11a.69.69,0,0,0,.08.36.39.39,0,0,0,.33.12h.54v.56l-.23.07-.28.06Z"/><path class="cls-2" d="M52.08,12.09V5.17h.84V7.69H53a1.71,1.71,0,0,1,.43-.42A1.85,1.85,0,0,1,54,7a2.55,2.55,0,0,1,.64-.08,2.08,2.08,0,0,1,.83.16,1.27,1.27,0,0,1,.57.53,2,2,0,0,1,.21,1v3.47h-.85V8.73a1.32,1.32,0,0,0-.08-.52.79.79,0,0,0-.22-.31.73.73,0,0,0-.33-.16,1.56,1.56,0,0,0-.44,0,1.31,1.31,0,0,0-.67.17,1.22,1.22,0,0,0-.5.48,1.52,1.52,0,0,0-.19.79v3Z"/><path class="cls-2" d="M59.48,12.21a2.55,2.55,0,0,1-1.26-.28,1.78,1.78,0,0,1-.77-.87,3.53,3.53,0,0,1-.27-1.48,3.51,3.51,0,0,1,.27-1.49,1.75,1.75,0,0,1,.78-.87,2.74,2.74,0,0,1,1.29-.28,2.41,2.41,0,0,1,1.19.27,1.75,1.75,0,0,1,.72.82,3.32,3.32,0,0,1,.25,1.35v.41H58.05a3.25,3.25,0,0,0,.18,1,1.07,1.07,0,0,0,.48.56,1.57,1.57,0,0,0,.79.18,1.91,1.91,0,0,0,.57-.08,1.11,1.11,0,0,0,.41-.24,1,1,0,0,0,.26-.36,1.34,1.34,0,0,0,.09-.46h.83a2,2,0,0,1-.16.74,1.42,1.42,0,0,1-.42.58,1.94,1.94,0,0,1-.68.38A2.88,2.88,0,0,1,59.48,12.21ZM58.07,9.15H60.8a2.33,2.33,0,0,0-.09-.7A1.32,1.32,0,0,0,60.44,8,1,1,0,0,0,60,7.71a1.69,1.69,0,0,0-.53-.08,1.73,1.73,0,0,0-.75.16,1.07,1.07,0,0,0-.46.5A2.46,2.46,0,0,0,58.07,9.15Z"/><path class="cls-2" d="M64.88,12.09V5.52h2.46a4.09,4.09,0,0,1,1.76.35,2.35,2.35,0,0,1,1.11,1.07,3.9,3.9,0,0,1,.39,1.87,3.94,3.94,0,0,1-.39,1.86,2.47,2.47,0,0,1-1.11,1.08,4.09,4.09,0,0,1-1.76.34Zm.91-.78h1.53a3.2,3.2,0,0,0,1-.14,1.77,1.77,0,0,0,.74-.43A1.81,1.81,0,0,0,69.5,10a3.46,3.46,0,0,0,.15-1.09V8.72a3.52,3.52,0,0,0-.15-1.1A1.94,1.94,0,0,0,69,6.87a1.86,1.86,0,0,0-.74-.42,3.22,3.22,0,0,0-1-.14H65.79Z"/><path class="cls-2" d="M71.75,6.11V5.17h.85v.94Zm0,6v-5h.85v5Z"/><path class="cls-2" d="M74.11,12.09V7.76h-.75v-.7h.75V6.25a1.73,1.73,0,0,1,.09-.56.79.79,0,0,1,.32-.43,1.16,1.16,0,0,1,.67-.17l.26,0,.25,0,.22,0v.6h-.51a.46.46,0,0,0-.35.12.5.5,0,0,0-.11.34v.8h1.64V6.25a1.73,1.73,0,0,1,.09-.56A.87.87,0,0,1,77,5.26a1.16,1.16,0,0,1,.67-.17l.26,0,.25,0,.21,0v.6h-.5a.45.45,0,0,0-.35.12.45.45,0,0,0-.12.34v.8h1v.7h-1v4.33h-.84V7.76H75v4.33Z"/><path class="cls-2" d="M81,12.21a2.61,2.61,0,0,1-1.26-.28,1.78,1.78,0,0,1-.77-.87,3.54,3.54,0,0,1-.26-1.48A3.52,3.52,0,0,1,79,8.09a1.8,1.8,0,0,1,.78-.87,2.77,2.77,0,0,1,1.29-.28,2.38,2.38,0,0,1,1.19.27A1.75,1.75,0,0,1,83,8a3.16,3.16,0,0,1,.25,1.35v.41H79.62a3,3,0,0,0,.17,1,1.12,1.12,0,0,0,.48.56,1.57,1.57,0,0,0,.79.18,1.91,1.91,0,0,0,.57-.08,1.16,1.16,0,0,0,.42-.24,1,1,0,0,0,.25-.36,1.35,1.35,0,0,0,.1-.46h.82a2.17,2.17,0,0,1-.15.74,1.55,1.55,0,0,1-.43.58,1.94,1.94,0,0,1-.68.38A2.84,2.84,0,0,1,81,12.21Zm-1.4-3.06h2.73a2.31,2.31,0,0,0-.1-.7,1.12,1.12,0,0,0-.68-.74,1.8,1.8,0,0,0-.54-.08,1.65,1.65,0,0,0-.74.16,1.09,1.09,0,0,0-.47.5A2.27,2.27,0,0,0,79.64,9.15Z"/><path class="cls-2" d="M84.28,12.09v-5H85l.08.83h.07a2.11,2.11,0,0,1,.21-.46,1,1,0,0,1,.93-.49l.26,0,.18.06v.77h-.32a1.36,1.36,0,0,0-.56.11,1.1,1.1,0,0,0-.39.31,1.32,1.32,0,0,0-.22.48,2.35,2.35,0,0,0-.08.6v2.8Z"/><path class="cls-2" d="M89.38,12.21a2.55,2.55,0,0,1-1.26-.28,1.85,1.85,0,0,1-.78-.87,3.7,3.7,0,0,1-.26-1.48,3.69,3.69,0,0,1,.26-1.49,1.85,1.85,0,0,1,.78-.87,2.81,2.81,0,0,1,1.3-.28,2.37,2.37,0,0,1,1.18.27,1.83,1.83,0,0,1,.73.82,3.33,3.33,0,0,1,.24,1.35v.41H88a2.74,2.74,0,0,0,.18,1,1.05,1.05,0,0,0,.47.56,1.61,1.61,0,0,0,.8.18,2,2,0,0,0,.57-.08,1.11,1.11,0,0,0,.41-.24,1,1,0,0,0,.25-.36,1.35,1.35,0,0,0,.1-.46h.82a2,2,0,0,1-.15.74,1.63,1.63,0,0,1-.42.58,2,2,0,0,1-.68.38A2.92,2.92,0,0,1,89.38,12.21ZM88,9.15H90.7a2,2,0,0,0-.1-.7,1.12,1.12,0,0,0-.68-.74,1.78,1.78,0,0,0-.53-.08,1.67,1.67,0,0,0-.75.16,1.14,1.14,0,0,0-.47.5A2.27,2.27,0,0,0,88,9.15Z"/><path class="cls-2" d="M92.61,12.09v-5h.68l.08.75h.07a2,2,0,0,1,.45-.5A1.89,1.89,0,0,1,94.46,7a2.39,2.39,0,0,1,.66-.09A2.17,2.17,0,0,1,96,7.1a1.27,1.27,0,0,1,.57.53,2.09,2.09,0,0,1,.2,1v3.47h-.84V8.73a1.54,1.54,0,0,0-.08-.52.91.91,0,0,0-.22-.31.77.77,0,0,0-.34-.16,1.45,1.45,0,0,0-.43,0,1.42,1.42,0,0,0-.67.17,1.36,1.36,0,0,0-.51.5,1.59,1.59,0,0,0-.18.77v3Z"/><path class="cls-2" d="M99.92,12.21a2.42,2.42,0,0,1-1.22-.28,1.73,1.73,0,0,1-.74-.87,3.77,3.77,0,0,1-.26-1.48A3.7,3.7,0,0,1,98,8.1a1.74,1.74,0,0,1,.75-.87A2.5,2.5,0,0,1,100,6.94a2.66,2.66,0,0,1,.9.14,1.68,1.68,0,0,1,.63.39,1.66,1.66,0,0,1,.36.62,2.64,2.64,0,0,1,.12.83h-.85A1.87,1.87,0,0,0,101,8.2a.78.78,0,0,0-.38-.42,1.46,1.46,0,0,0-.68-.14,1.29,1.29,0,0,0-.72.19,1.09,1.09,0,0,0-.47.59,2.79,2.79,0,0,0-.17,1.06v.2a3.07,3.07,0,0,0,.16,1,1.2,1.2,0,0,0,.47.6,1.34,1.34,0,0,0,.74.19,1.43,1.43,0,0,0,.7-.15.91.91,0,0,0,.38-.44,1.81,1.81,0,0,0,.12-.69H102a2.45,2.45,0,0,1-.12.78,1.63,1.63,0,0,1-.36.63,1.7,1.7,0,0,1-.64.42A2.5,2.5,0,0,1,99.92,12.21Z"/><path class="cls-2" d="M105,12.21a2.55,2.55,0,0,1-1.26-.28,1.78,1.78,0,0,1-.77-.87,3.53,3.53,0,0,1-.27-1.48A3.51,3.51,0,0,1,103,8.09a1.75,1.75,0,0,1,.78-.87A2.74,2.74,0,0,1,105,6.94a2.41,2.41,0,0,1,1.19.27,1.75,1.75,0,0,1,.72.82,3.32,3.32,0,0,1,.25,1.35v.41h-3.63a3.25,3.25,0,0,0,.18,1,1.07,1.07,0,0,0,.48.56,1.57,1.57,0,0,0,.79.18,1.91,1.91,0,0,0,.57-.08,1.11,1.11,0,0,0,.41-.24,1,1,0,0,0,.26-.36,1.34,1.34,0,0,0,.09-.46h.83a2,2,0,0,1-.16.74,1.42,1.42,0,0,1-.42.58,1.94,1.94,0,0,1-.68.38A2.88,2.88,0,0,1,105,12.21Zm-1.41-3.06h2.73a2.33,2.33,0,0,0-.09-.7A1.32,1.32,0,0,0,106,8a1,1,0,0,0-.42-.27,1.69,1.69,0,0,0-.53-.08,1.73,1.73,0,0,0-.75.16,1.14,1.14,0,0,0-.47.5A2.72,2.72,0,0,0,103.58,9.15Z"/></g></g></svg>