<svg xmlns="http://www.w3.org/2000/svg" viewBox="0 0 39.75 17.82"><defs><style>.cls-1{isolation:isolate;}.cls-2{opacity:0.6;mix-blend-mode:multiply;}.cls-26,.cls-3{fill:#fff;}.cls-3{opacity:0;}.cls-4{fill:#f5f5f5;opacity:0.05;}.cls-5{fill:#ebebeb;opacity:0.1;}.cls-6{fill:#e2e2e2;opacity:0.14;}.cls-7{fill:#d8d8d8;opacity:0.19;}.cls-8{fill:#cecece;opacity:0.24;}.cls-9{fill:#c4c4c4;opacity:0.29;}.cls-10{fill:#bababa;opacity:0.33;}.cls-11{fill:#b1b1b1;opacity:0.38;}.cls-12{fill:#a7a7a7;opacity:0.43;}.cls-13{fill:#9d9d9d;opacity:0.48;}.cls-14{fill:#939393;opacity:0.52;}.cls-15{fill:#898989;opacity:0.57;}.cls-16{fill:#7f7f7f;opacity:0.62;}.cls-17{fill:#767676;opacity:0.67;}.cls-18{fill:#6c6c6c;opacity:0.71;}.cls-19{fill:#626262;opacity:0.76;}.cls-20{fill:#585858;opacity:0.81;}.cls-21{fill:#4e4e4e;opacity:0.86;}.cls-22{fill:#454545;opacity:0.9;}.cls-23{fill:#3b3b3b;opacity:0.95;}.cls-24{fill:#313131;}.cls-25{fill:#476157;}.cls-27{fill:#f5f4f0;}</style></defs><g class="cls-1"><g id="Layer_2" data-name="Layer 2"><g id="Layer_1-2" data-name="Layer 1"><g class="cls-2"><polygon class="cls-3" points="39.75 0 33.14 8.91 39.75 17.82 0 17.82 0 0 39.75 0"/><polygon class="cls-4" points="39.63 0.03 33.04 8.91 39.63 17.79 0 17.79 0 0.03 39.63 0.03"/><polygon class="cls-5" points="39.51 0.06 32.95 8.91 39.51 17.76 0 17.76 0 0.06 39.51 0.06"/><polygon class="cls-6" points="39.39 0.09 32.86 8.91 39.39 17.73 0 17.73 0 0.09 39.39 0.09"/><polygon class="cls-7" points="39.27 0.12 32.77 8.91 39.27 17.7 0 17.7 0 0.12 39.27 0.12"/><polygon class="cls-8" points="39.16 0.15 32.67 8.91 39.16 17.66 0 17.66 0 0.15 39.16 0.15"/><polygon class="cls-9" points="39.04 0.18 32.58 8.91 39.04 17.63 0 17.63 0 0.18 39.04 0.18"/><polygon class="cls-10" points="38.92 0.21 32.49 8.91 38.92 17.6 0 17.6 0 0.21 38.92 0.21"/><polygon class="cls-11" points="38.8 0.24 32.39 8.91 38.8 17.57 0 17.57 0 0.24 38.8 0.24"/><polygon class="cls-12" points="38.69 0.28 32.3 8.91 38.69 17.54 0 17.54 0 0.28 38.69 0.28"/><polygon class="cls-13" points="38.57 0.3 32.21 8.91 38.57 17.51 0 17.51 0 0.3 38.57 0.3"/><polygon class="cls-14" points="38.45 0.34 32.12 8.91 38.45 17.48 0 17.48 0 0.34 38.45 0.34"/><polygon class="cls-15" points="38.33 0.37 32.02 8.91 38.33 17.45 0 17.45 0 0.37 38.33 0.37"/><polygon class="cls-16" points="38.21 0.4 31.93 8.91 38.21 17.42 0 17.42 0 0.4 38.21 0.4"/><polygon class="cls-17" points="38.1 0.43 31.84 8.91 38.1 17.39 0 17.39 0 0.43 38.1 0.43"/><polygon class="cls-18" points="37.98 0.46 31.75 8.91 37.98 17.36 0 17.36 0 0.46 37.98 0.46"/><polygon class="cls-19" points="37.86 0.49 31.65 8.91 37.86 17.33 0 17.33 0 0.49 37.86 0.49"/><polygon class="cls-20" points="37.74 0.52 31.56 8.91 37.74 17.3 0 17.3 0 0.52 37.74 0.52"/><polygon class="cls-21" points="37.62 0.55 31.47 8.91 37.62 17.27 0 17.27 0 0.55 37.62 0.55"/><polygon class="cls-22" points="37.51 0.58 31.38 8.91 37.51 17.24 0 17.24 0 0.58 37.51 0.58"/><polygon class="cls-23" points="37.39 0.61 31.28 8.91 37.39 17.21 0 17.21 0 0.61 37.39 0.61"/><polygon class="cls-24" points="37.27 0.64 31.19 8.91 37.27 17.18 0 17.18 0 0.64 37.27 0.64"/></g><polygon class="cls-25" points="37.27 0.64 31.19 8.91 37.27 17.18 0 17.18 0 0.64 37.27 0.64"/><rect class="cls-26" y="1.59" width="0.74" height="0.23"/><path class="cls-26" d="M32.93,1.59v.23H31.49V1.59Zm-2.88,0v.23H28.61V1.59Zm-2.89,0v.23H25.73V1.59Zm-2.88,0v.23H22.85V1.59Zm-2.88,0v.23H20V1.59Zm-2.88,0v.23H17.08V1.59Zm-2.88,0v.23H14.2V1.59Zm-2.88,0v.23H11.32V1.59Z"/><path class="cls-26" d="M24.33,1.48v.23H22.89V1.48Zm-2.88,0v.23H20V1.48Zm-2.88,0v.23H17.13V1.48Zm-2.88,0v.23H14.25V1.48Zm-2.89,0v.23H11.37V1.48Zm-2.88,0v.23H8.48V1.48Zm-2.87,0v.23H5.6V1.48Zm-2.89,0v.23H2.72V1.48Z"/><path class="cls-26" d="M24.33,16.06v.23H22.89v-.23Zm-2.88,0v.23H20v-.23Zm-2.88,0v.23H17.13v-.23Zm-2.88,0v.23H14.25v-.23Zm-2.89,0v.23H11.37v-.23Zm-2.88,0v.23H8.48v-.23Zm-2.87,0v.23H5.6v-.23Zm-2.89,0v.23H2.72v-.23Z"/><polygon class="cls-26" points="35.37 1.59 34.85 2.26 34.6 2.14 34.84 1.82 34.37 1.82 34.37 1.59 35.37 1.59"/><path class="cls-26" d="M34.16,3.15l-.7.89-.25-.12L33.9,3ZM32.77,4.93l-.69.89-.25-.12.69-.89ZM31.39,6.71l-.69.89-.26-.12.7-.89Z"/><polygon class="cls-26" points="30.01 8.49 29.67 8.93 30.01 9.36 29.75 9.48 29.32 8.93 29.75 8.38 30.01 8.49"/><path class="cls-26" d="M34.16,14.71l-.26.12-.69-.89.25-.12Zm-1.39-1.78-.25.12-.69-.9.25-.11Zm-1.38-1.79-.25.12-.7-.89.26-.12Z"/><polygon class="cls-26" points="35.37 16.27 34.37 16.27 34.37 16.04 34.84 16.04 34.6 15.72 34.85 15.6 35.37 16.27"/><path class="cls-26" d="M32.93,16v.23H31.49V16Zm-2.88,0v.23H28.61V16Zm-2.89,0v.23H25.73V16Zm-2.87,0v.23H22.85V16Zm-2.88,0v.23H20V16Zm-2.88,0v.23H17.08V16Zm-2.89,0v.23H14.2V16Zm-2.88,0v.23H11.32V16Z"/><rect class="cls-26" y="16.04" width="0.74" height="0.23"/><path class="cls-27" d="M9.47,4.84h2.4v.61H10.19V6.3h1.57v.6H10.19V8.28H9.47Z"/><path class="cls-27" d="M13.15,6.91V8.28h-.73V4.84h1.52c.75,0,1.15.42,1.15,1a.82.82,0,0,1-.5.81c.17.06.43.24.43.86v.17a2.56,2.56,0,0,0,.05.65h-.71a2.41,2.41,0,0,1-.07-.77v0c0-.38-.1-.55-.65-.55Zm0-.6h.62c.41,0,.57-.15.57-.44s-.18-.43-.55-.43h-.64Z"/><path class="cls-27" d="M18.12,6.8H16.48v.87h1.81l-.09.61H15.75V4.84h2.44v.61H16.48v.74h1.64Z"/><path class="cls-27" d="M21.19,6.8H19.54v.87h1.82l-.09.61H18.82V4.84h2.44v.61H19.54v.74h1.65Z"/><path class="cls-27" d="M4.26,11.89c.07.35.32.5.72.5s.57-.16.57-.41-.17-.4-.76-.54c-.93-.22-1.17-.56-1.17-1s.45-1,1.27-1,1.27.49,1.32,1H5.46c0-.22-.15-.45-.59-.45s-.49.13-.49.37.15.34.71.47c1,.23,1.22.61,1.22,1.09S5.83,13,4.92,13s-1.33-.43-1.41-1.06Z"/><path class="cls-27" d="M6.86,9.46H7.6V10.8H9V9.46h.75V12.9H9V11.41H7.6V12.9H6.86Z"/><path class="cls-27" d="M11.3,9.46V12.9h-.75V9.46Z"/><path class="cls-27" d="M12.12,9.46h1.42a1.09,1.09,0,1,1,0,2.16h-.66V12.9h-.75ZM12.87,11h.56c.35,0,.59-.13.59-.48s-.26-.49-.57-.49h-.58Z"/><path class="cls-27" d="M15.33,9.46h1.42a1.09,1.09,0,1,1,0,2.16h-.67V12.9h-.74ZM16.07,11h.57c.35,0,.59-.13.59-.48s-.26-.49-.57-.49h-.59Z"/><path class="cls-27" d="M19.28,9.46V12.9h-.74V9.46Z"/><path class="cls-27" d="M20.11,12.9V9.46H21c.43.77,1.22,2.17,1.38,2.54h0c0-.36,0-.95,0-1.52v-1h.68V12.9h-.88c-.37-.67-1.25-2.27-1.42-2.67h0c0,.3,0,1,0,1.63v1Z"/><path class="cls-27" d="M26.87,12.9h-.55a1.74,1.74,0,0,1-.05-.34,1.18,1.18,0,0,1-1,.4,1.55,1.55,0,0,1-1.55-1.73,1.65,1.65,0,0,1,1.68-1.82,1.36,1.36,0,0,1,1.49,1.09h-.74a.71.71,0,0,0-.76-.5c-.7,0-.91.59-.91,1.19s.23,1.18.92,1.18a.68.68,0,0,0,.75-.75v0h-.76V11h1.49Z"/></g></g></g></svg>