<svg xmlns="http://www.w3.org/2000/svg" viewBox="0 0 118.94 11.38"><defs><style>.cls-1{fill:#fff;}</style></defs><g id="Layer_2" data-name="Layer 2"><g id="Layer_1-2" data-name="Layer 1"><path class="cls-1" d="M1.58,8.48H0V.18H1.58V4H5.25V.18H6.83v8.3H5.25V4.42l-3.67,0Z"/><path class="cls-1" d="M8.71,8.47V4a1.4,1.4,0,0,0,0-.4.38.38,0,0,0-.15-.21.43.43,0,0,0-.23-.09L8,3.25V3.08l2.33-.18V8.47ZM9.35,2a1,1,0,0,1-.72-.29A1,1,0,0,1,8.34,1,1,1,0,0,1,8.63.29a1.05,1.05,0,0,1,1.45,0,1,1,0,0,1,.29.73,1,1,0,0,1-.29.72A1,1,0,0,1,9.35,2Z"/><path class="cls-1" d="M16.6,2.78a.37.37,0,0,0-.07-.23.69.69,0,0,0-.18-.16l-.24-.08-.23,0a1,1,0,0,0-.86.5,2.45,2.45,0,0,1,1.28.74,2,2,0,0,1,.47,1.37A2,2,0,0,1,16,6.56a2.72,2.72,0,0,1-.85.43,3.28,3.28,0,0,1-1,.15,4,4,0,0,1-.69-.07,2.1,2.1,0,0,1-.65-.23.91.91,0,0,0-.11.16.27.27,0,0,0-.06.17.2.2,0,0,0,.07.16.49.49,0,0,0,.13.12,1.71,1.71,0,0,0,.71.25,8.06,8.06,0,0,0,.89.1c.3,0,.61,0,.91.09a2.83,2.83,0,0,1,.81.2,1.21,1.21,0,0,1,.8,1.24,1.52,1.52,0,0,1-.25.88,2,2,0,0,1-.65.64,3.31,3.31,0,0,1-.92.39,4.09,4.09,0,0,1-1,.14,4.19,4.19,0,0,1-1-.12,2.63,2.63,0,0,1-.87-.37,2.1,2.1,0,0,1-.62-.64,1.84,1.84,0,0,1-.26-.93h1.3a2.09,2.09,0,0,0,.12.74,1.43,1.43,0,0,0,.32.52,1.28,1.28,0,0,0,.45.32,1.4,1.4,0,0,0,.54.1,2.37,2.37,0,0,0,.61-.07,1.75,1.75,0,0,0,.48-.21.85.85,0,0,0,.43-.76.66.66,0,0,0-.21-.53,1.14,1.14,0,0,0-.5-.26,4.06,4.06,0,0,0-.64-.11L13.59,9,13,8.93a3,3,0,0,1-.62-.18,1.23,1.23,0,0,1-.46-.35.92.92,0,0,1-.18-.59A.86.86,0,0,1,12,7.14a2.15,2.15,0,0,1,.64-.39A2,2,0,0,1,11.82,6a2.27,2.27,0,0,1-.26-1.08,2,2,0,0,1,.23-1,2.14,2.14,0,0,1,.61-.69,2.68,2.68,0,0,1,.85-.41,3.25,3.25,0,0,1,1-.14,4.58,4.58,0,0,1,.53,0c.08-.18.17-.36.28-.56a4.19,4.19,0,0,1,.4-.54,2.2,2.2,0,0,1,.51-.4,1.29,1.29,0,0,1,.61-.16.89.89,0,0,1,.31.06.85.85,0,0,1,.28.15.65.65,0,0,1,.19.24.55.55,0,0,1,.08.31Zm-2.42,4a.7.7,0,0,0,.52-.21A1.54,1.54,0,0,0,15,6.11a2.55,2.55,0,0,0,.15-.62,4.18,4.18,0,0,0,0-.56,4,4,0,0,0,0-.57A2.66,2.66,0,0,0,15,3.73a1.45,1.45,0,0,0-.33-.52A.69.69,0,0,0,14.15,3a.66.66,0,0,0-.51.21,1.64,1.64,0,0,0-.32.51,2.67,2.67,0,0,0-.15.62,3.94,3.94,0,0,0,0,.55,4.21,4.21,0,0,0,0,.57,2.66,2.66,0,0,0,.17.63,1.64,1.64,0,0,0,.32.51A.69.69,0,0,0,14.18,6.81Z"/><path class="cls-1" d="M19.89,8.47H18.31V1.11a1.11,1.11,0,0,0,0-.36.35.35,0,0,0-.13-.18A.52.52,0,0,0,17.91.5l-.35,0V.29L19.89.06V4a2.21,2.21,0,0,1,.37-.45,3.81,3.81,0,0,1,.49-.39,2.81,2.81,0,0,1,.55-.27,1.67,1.67,0,0,1,.57-.1,1.51,1.51,0,0,1,1.21.46,1.81,1.81,0,0,1,.39,1.23v4H21.9V4.57a1,1,0,0,0-.19-.65.76.76,0,0,0-.61-.23,1.54,1.54,0,0,0-.65.15,1.76,1.76,0,0,0-.56.39Z"/><path class="cls-1" d="M24.63,9.76l2.06-1L24,2.86h1.76L27.42,7A9.71,9.71,0,0,0,28,5.45a5,5,0,0,0,.19-1.22,2,2,0,0,0-.14-.87,1,1,0,0,0-.44-.5h2V3l-3.4,7.71-1.63-.83Z"/><path class="cls-1" d="M40.38,10.5,38.33,8.26l-.12,0a4.54,4.54,0,0,1-3.14,0,4,4,0,0,1-1.38-.82,4.19,4.19,0,0,1-1-1.34,4.35,4.35,0,0,1-.36-1.82,4.39,4.39,0,0,1,.36-1.83,4,4,0,0,1,1-1.33A4.18,4.18,0,0,1,35.07.34,4.48,4.48,0,0,1,36.64.06a4.47,4.47,0,0,1,3,1.1,3.88,3.88,0,0,1,1,1.33,4.24,4.24,0,0,1,.37,1.83,4.2,4.2,0,0,1-.37,1.82,3.88,3.88,0,0,1-1,1.33,3.43,3.43,0,0,1-.8.57L41,10.21ZM37,6.24l1.19,1.2a2.75,2.75,0,0,0,.23-.33,3.82,3.82,0,0,0,.44-1.21A7.61,7.61,0,0,0,39,4.32a7.84,7.84,0,0,0-.14-1.59,3.91,3.91,0,0,0-.45-1.21,2.06,2.06,0,0,0-.74-.78,1.94,1.94,0,0,0-1-.27,2,2,0,0,0-1,.27,2.23,2.23,0,0,0-.74.78,4.18,4.18,0,0,0-.45,1.21,7.81,7.81,0,0,0-.15,1.59,7.57,7.57,0,0,0,.15,1.58,4.25,4.25,0,0,0,.45,1.22,2.23,2.23,0,0,0,.74.78,2,2,0,0,0,1,.27,1.86,1.86,0,0,0,1-.28,1.22,1.22,0,0,0,.19-.12L36.69,6.48Z"/><path class="cls-1" d="M45.81,8.47V7.39a3,3,0,0,1-.38.45,3.81,3.81,0,0,1-.49.39,2.81,2.81,0,0,1-.55.27,1.64,1.64,0,0,1-.56.11,1.78,1.78,0,0,1-.72-.14,1.47,1.47,0,0,1-.5-.38,1.51,1.51,0,0,1-.29-.58,2.71,2.71,0,0,1-.09-.71V3.63a.32.32,0,0,0-.06-.2.4.4,0,0,0-.15-.1.78.78,0,0,0-.21,0l-.22,0V3.09l2.21-.23V6.7a1.24,1.24,0,0,0,.18.69.67.67,0,0,0,.62.27,1.47,1.47,0,0,0,.66-.17,2.16,2.16,0,0,0,.55-.42V3.91a1.08,1.08,0,0,0,0-.35.33.33,0,0,0-.13-.17.57.57,0,0,0-.24-.08l-.34,0V3.11l2.33-.24v5.6Z"/><path class="cls-1" d="M48.86,4.11a4.35,4.35,0,0,1,.45-.57,2.58,2.58,0,0,1,.55-.42,2.92,2.92,0,0,1,.72-.28,4.06,4.06,0,0,1,.91-.09,4,4,0,0,1,.85.09,2.08,2.08,0,0,1,.73.3,1.44,1.44,0,0,1,.51.53,1.62,1.62,0,0,1,.18.79v4H52.2V7.8a4.6,4.6,0,0,1-.87.54,2.3,2.3,0,0,1-1,.23,2.25,2.25,0,0,1-.64-.09,1.73,1.73,0,0,1-.54-.28,1.41,1.41,0,0,1-.37-.49,1.68,1.68,0,0,1-.14-.7,1.32,1.32,0,0,1,.4-1A3,3,0,0,1,50,5.38,6.81,6.81,0,0,1,51.18,5c.4-.06.74-.11,1-.13v-.4c0-.18,0-.35,0-.52a1.14,1.14,0,0,0-.07-.43.63.63,0,0,0-.59-.47,1.08,1.08,0,0,0-.5.09,1.31,1.31,0,0,0-.44.31,1.82,1.82,0,0,0-.32.53,2.7,2.7,0,0,0-.16.73Zm3.34,1a4.27,4.27,0,0,0-.59.1A2.33,2.33,0,0,0,51,5.5a1.72,1.72,0,0,0-.53.51,1.43,1.43,0,0,0-.18.86,1.11,1.11,0,0,0,.28.73.86.86,0,0,0,.63.27,2,2,0,0,0,.51-.09,1.52,1.52,0,0,0,.54-.27Z"/><path class="cls-1" d="M57.07,8.47H55.49V1.19a1.92,1.92,0,0,0,0-.39.37.37,0,0,0-.13-.2.56.56,0,0,0-.22-.09,2.78,2.78,0,0,0-.37,0V.29L57.07.06Z"/><path class="cls-1" d="M58.88,8.47V4a1.35,1.35,0,0,0-.05-.4.37.37,0,0,0-.14-.21.43.43,0,0,0-.23-.09l-.33,0V3.08l2.32-.18V8.47ZM59.52,2a.94.94,0,0,1-.72-.29A1,1,0,0,1,58.5,1a1,1,0,0,1,.3-.73,1.05,1.05,0,0,1,1.45,0,1,1,0,0,1,.29.73,1,1,0,0,1-.29.72A1,1,0,0,1,59.52,2Z"/><path class="cls-1" d="M65.29,7.68a2.17,2.17,0,0,1-.73.66,1.65,1.65,0,0,1-.81.22,1.3,1.3,0,0,1-.67-.16A1.42,1.42,0,0,1,62.61,8a2,2,0,0,1-.28-.57,2.59,2.59,0,0,1-.09-.68v-3a.62.62,0,0,0-.7-.7h-.16V2.9L63.7,1.23h.12V2.86H65.2v.32H63.82V6.75c0,.1,0,.22,0,.36a1.83,1.83,0,0,0,.09.39.79.79,0,0,0,.18.31.45.45,0,0,0,.34.13,1.44,1.44,0,0,0,.78-.35Z"/><path class="cls-1" d="M66.06,9.76l2.07-1L65.39,2.86h1.77L68.85,7a9.71,9.71,0,0,0,.61-1.56,5.6,5.6,0,0,0,.2-1.22,2,2,0,0,0-.15-.87,1,1,0,0,0-.44-.5h2V3l-3.4,7.71-1.63-.83Z"/><path class="cls-1" d="M73.78,4.32a4.33,4.33,0,0,1,.33-1.7A3.92,3.92,0,0,1,75,1.27,4.11,4.11,0,0,1,76.37.38a4.7,4.7,0,0,1,3.41,0,4.17,4.17,0,0,1,1.36.89A3.92,3.92,0,0,1,82,2.62a4.33,4.33,0,0,1,.33,1.7A4.29,4.29,0,0,1,82,6a4,4,0,0,1-.89,1.35,4.17,4.17,0,0,1-1.36.89,4.4,4.4,0,0,1-1.7.32,4.34,4.34,0,0,1-1.71-.32A4.17,4.17,0,0,1,75,7.37,4,4,0,0,1,74.11,6,4.29,4.29,0,0,1,73.78,4.32Zm2.12,1a6.41,6.41,0,0,0,.64,1.13,4.8,4.8,0,0,0,.76.84,3,3,0,0,0,.83.54A2.13,2.13,0,0,0,79,8a1.76,1.76,0,0,0,.68-.14,1.71,1.71,0,0,0,.74-.65,2.73,2.73,0,0,0,.36-1,4.51,4.51,0,0,0,0-1.31,6.43,6.43,0,0,0-.46-1.48,6.79,6.79,0,0,0-.64-1.13,4.88,4.88,0,0,0-.76-.85A3.31,3.31,0,0,0,78,.84a2.13,2.13,0,0,0-.83-.19,1.72,1.72,0,0,0-.68.14,1.71,1.71,0,0,0-.75.66,2.73,2.73,0,0,0-.36,1,4.51,4.51,0,0,0,0,1.31A6.43,6.43,0,0,0,75.9,5.28Z"/><path class="cls-1" d="M87.24,8.47V7.39a3,3,0,0,1-.38.45,3.81,3.81,0,0,1-.49.39,2.81,2.81,0,0,1-.55.27,1.64,1.64,0,0,1-.56.11,1.78,1.78,0,0,1-.72-.14,1.47,1.47,0,0,1-.5-.38,1.51,1.51,0,0,1-.29-.58,2.71,2.71,0,0,1-.09-.71V3.63a.32.32,0,0,0-.06-.2.4.4,0,0,0-.15-.1.71.71,0,0,0-.21,0l-.21,0V3.09l2.2-.23V6.7a1.24,1.24,0,0,0,.18.69.68.68,0,0,0,.62.27,1.44,1.44,0,0,0,.66-.17,2.16,2.16,0,0,0,.55-.42V3.91a1.08,1.08,0,0,0,0-.35.33.33,0,0,0-.13-.17.57.57,0,0,0-.24-.08l-.33,0V3.11l2.32-.24v5.6Z"/><path class="cls-1" d="M93.44,7.68a2.24,2.24,0,0,1-.72.66,1.68,1.68,0,0,1-.82.22,1.24,1.24,0,0,1-.66-.16A1.33,1.33,0,0,1,90.77,8a1.6,1.6,0,0,1-.28-.57,2.59,2.59,0,0,1-.09-.68v-3a.63.63,0,0,0-.71-.7h-.16V2.9l2.33-1.67H92V2.86h1.38v.32H92V6.75c0,.1,0,.22,0,.36a1.8,1.8,0,0,0,.08.39.81.81,0,0,0,.19.31.42.42,0,0,0,.33.13,1.44,1.44,0,0,0,.78-.35Z"/><path class="cls-1" d="M98.62,8a1.13,1.13,0,0,0-.53-.14,1.5,1.5,0,0,0-.83.33,2.57,2.57,0,0,1-.52.27,1.65,1.65,0,0,1-.58.1,2,2,0,0,1-1-.24,2.63,2.63,0,0,1-.73-.64A2.72,2.72,0,0,1,94,6.82a3.11,3.11,0,0,1-.16-1A3.39,3.39,0,0,1,94,4.7a3.19,3.19,0,0,1,.55-1,3.08,3.08,0,0,1,.86-.7,2.5,2.5,0,0,1,1.81-.16,2.1,2.1,0,0,1,.62.3V1.09a1,1,0,0,0,0-.35.32.32,0,0,0-.14-.18.52.52,0,0,0-.23-.07l-.34,0V.28L99.45.05V8.47Zm-.75-4.6a1,1,0,0,0-.41-.19,1.88,1.88,0,0,0-.47,0,1.15,1.15,0,0,0-.74.23,1.71,1.71,0,0,0-.49.58,2.52,2.52,0,0,0-.27.77,3.63,3.63,0,0,0-.08.78,4.06,4.06,0,0,0,.07.73,2.89,2.89,0,0,0,.25.77,1.69,1.69,0,0,0,.45.6,1.07,1.07,0,0,0,.71.24,1,1,0,0,0,.54-.17,2.71,2.71,0,0,0,.44-.35Z"/><path class="cls-1" d="M103.67,8.58a3.31,3.31,0,0,1-1.19-.21,3.2,3.2,0,0,1-1-.6,2.91,2.91,0,0,1-.64-.93,3,3,0,0,1-.23-1.18,3.08,3.08,0,0,1,.23-1.19,3,3,0,0,1,.64-.92,2.67,2.67,0,0,1,1-.59,3.11,3.11,0,0,1,1.19-.21,3.07,3.07,0,0,1,1.19.21,2.62,2.62,0,0,1,1,.59,3,3,0,0,1,.63.92,2.91,2.91,0,0,1,.24,1.19,2.83,2.83,0,0,1-.24,1.18,2.89,2.89,0,0,1-.63.93,3.12,3.12,0,0,1-1,.6A3.27,3.27,0,0,1,103.67,8.58Zm.62-.44a.94.94,0,0,0,.61-.45,2.18,2.18,0,0,0,.26-.78,4.21,4.21,0,0,0,0-.87,3.46,3.46,0,0,0-.12-.75,5.59,5.59,0,0,0-.21-.71,4.05,4.05,0,0,0-.32-.7,1.91,1.91,0,0,0-.47-.54,1.09,1.09,0,0,0-.67-.21,1.44,1.44,0,0,0-.37.05.91.91,0,0,0-.6.44,2.13,2.13,0,0,0-.26.77,3.69,3.69,0,0,0,0,.88,3.46,3.46,0,0,0,.12.74,3.5,3.5,0,0,0,.23.66,4,4,0,0,0,.38.71,2.36,2.36,0,0,0,.53.56,1,1,0,0,0,.65.23A1,1,0,0,0,104.29,8.14Z"/><path class="cls-1" d="M110.38,8.58a3.36,3.36,0,0,1-1.2-.21,3.2,3.2,0,0,1-1-.6,2.73,2.73,0,0,1-.63-.93,2.83,2.83,0,0,1-.24-1.18,2.91,2.91,0,0,1,.24-1.19,2.79,2.79,0,0,1,.63-.92,2.67,2.67,0,0,1,1-.59,3.51,3.51,0,0,1,2.39,0,2.67,2.67,0,0,1,1,.59,3,3,0,0,1,.64.92,3.08,3.08,0,0,1,.23,1.19,3,3,0,0,1-.23,1.18,2.91,2.91,0,0,1-.64.93,3.2,3.2,0,0,1-1,.6A3.35,3.35,0,0,1,110.38,8.58Zm.62-.44a.92.92,0,0,0,.6-.45,2.18,2.18,0,0,0,.26-.78,4.2,4.2,0,0,0,0-.87,4.11,4.11,0,0,0-.13-.75,5.59,5.59,0,0,0-.21-.71,3.42,3.42,0,0,0-.32-.7,1.76,1.76,0,0,0-.47-.54,1.09,1.09,0,0,0-.67-.21,1.5,1.5,0,0,0-.37.05,1,1,0,0,0-.6.44,2.13,2.13,0,0,0-.26.77,3.69,3.69,0,0,0,0,.88A5.45,5.45,0,0,0,109,6a4.39,4.39,0,0,0,.23.66,4,4,0,0,0,.38.71,2.58,2.58,0,0,0,.53.56,1,1,0,0,0,.65.23A1.09,1.09,0,0,0,111,8.14Z"/><path class="cls-1" d="M114.64,8.47V3.73a1.11,1.11,0,0,0,0-.36.35.35,0,0,0-.13-.18.52.52,0,0,0-.23-.08l-.35,0V2.91l2.32-.24V4a3.79,3.79,0,0,1,.38-.45,5,5,0,0,1,.5-.42,3.1,3.1,0,0,1,.57-.3,1.61,1.61,0,0,1,.6-.12,1.43,1.43,0,0,1,.68.19l-.35,1.84c-.39-.64-.81-1-1.29-1a1.51,1.51,0,0,0-1.09.58V8.47Z"/></g></g></svg>