<svg xmlns="http://www.w3.org/2000/svg" viewBox="0 0 86.04 20.83"><defs><style>.cls-1{fill:#fff;}</style></defs><g id="Layer_2" data-name="Layer 2"><g id="Layer_1-2" data-name="Layer 1"><path class="cls-1" d="M3.91,20.6H0V0H3.91V9.48H13V0H17V20.6H13V10.52l-9.13,0Z"/><path class="cls-1" d="M25.85,16.89a5.82,5.82,0,0,0,1.66,1.05,5,5,0,0,0,1.9.37,3.89,3.89,0,0,0,2.44-.73,5.18,5.18,0,0,0,1.53-2.11l.23.18A7.74,7.74,0,0,1,31.5,19.4a5.55,5.55,0,0,1-3.94,1.38,7.8,7.8,0,0,1-4.48-1.41,7.15,7.15,0,0,1-1.69-1.65,6.2,6.2,0,0,1-1.05-2.16,9.19,9.19,0,0,1-.29-3.72A6.61,6.61,0,0,1,21.15,9a5.91,5.91,0,0,1,2.09-1.83,6.61,6.61,0,0,1,2.64-.74h.3l.31,0a7.1,7.1,0,0,1,2.65.45A5.77,5.77,0,0,1,31,8.08a5.89,5.89,0,0,1,1.23,1.83,9.07,9.07,0,0,1,.62,2.26Zm-.52-.46a8.87,8.87,0,0,0,2.43-2.17,5.61,5.61,0,0,0,1-2.32,4.62,4.62,0,0,0,0-1.7,4.14,4.14,0,0,0-.57-1.47,3.45,3.45,0,0,0-1-1.06A2.19,2.19,0,0,0,26,7.3h-.14a3.23,3.23,0,0,0-1.32.34,2.39,2.39,0,0,0-1,1A3.71,3.71,0,0,0,23,10.36a9,9,0,0,0,.38,2.71,7,7,0,0,0,.73,1.8A7.4,7.4,0,0,0,25.33,16.43Z"/><path class="cls-1" d="M35.21,9.77a10.8,10.8,0,0,1,1.11-1.41A5.76,5.76,0,0,1,37.7,7.3a7.41,7.41,0,0,1,1.77-.68,9.61,9.61,0,0,1,2.26-.24,9.39,9.39,0,0,1,2.13.23,5.43,5.43,0,0,1,1.81.74,3.74,3.74,0,0,1,1.25,1.31,4,4,0,0,1,.46,2v9.94H43.5V18.92a11.06,11.06,0,0,1-2.15,1.34,5.68,5.68,0,0,1-2.43.57,5.29,5.29,0,0,1-1.6-.23A3.92,3.92,0,0,1,36,19.91a3.4,3.4,0,0,1-.93-1.2A4.16,4.16,0,0,1,34.72,17a3.33,3.33,0,0,1,1-2.48,7.6,7.6,0,0,1,2.38-1.55A14.22,14.22,0,0,1,41,12.08c1-.17,1.84-.29,2.54-.34v-1c0-.44,0-.87,0-1.27a4,4,0,0,0-.17-1.09,1.83,1.83,0,0,0-.49-.78,1.62,1.62,0,0,0-1-.37,2.55,2.55,0,0,0-1.24.21,3,3,0,0,0-1.09.78,4.46,4.46,0,0,0-.8,1.32,6.42,6.42,0,0,0-.4,1.81Zm8.29,2.55a11.65,11.65,0,0,0-1.47.24,5.85,5.85,0,0,0-1.63.65,3.91,3.91,0,0,0-1.31,1.28,3.52,3.52,0,0,0-.46,2.11,2.72,2.72,0,0,0,.71,1.82,2.08,2.08,0,0,0,1.55.68,5,5,0,0,0,1.26-.22,3.9,3.9,0,0,0,1.35-.68Z"/><path class="cls-1" d="M58.8,18.63A5.42,5.42,0,0,1,57,20.26a4.3,4.3,0,0,1-2,.55,3.3,3.3,0,0,1-1.65-.39,3.8,3.8,0,0,1-1.16-1,4.44,4.44,0,0,1-.7-1.43,6.25,6.25,0,0,1-.23-1.68V8.78A1.54,1.54,0,0,0,49.49,7h-.4V6.75l5.77-4.14h.29V6.67h3.41v.78H55.15v8.86c0,.26,0,.55,0,.89a4.4,4.4,0,0,0,.2,1,2,2,0,0,0,.47.78,1.08,1.08,0,0,0,.82.32,3.52,3.52,0,0,0,1.94-.87Z"/><path class="cls-1" d="M65.38,16.89A5.69,5.69,0,0,0,67,17.94a5,5,0,0,0,1.9.37,3.86,3.86,0,0,0,2.43-.73,5.2,5.2,0,0,0,1.54-2.11l.23.18A7.74,7.74,0,0,1,71,19.4a5.56,5.56,0,0,1-4,1.38,7.82,7.82,0,0,1-2.34-.36,7.56,7.56,0,0,1-2.13-1.05,7.19,7.19,0,0,1-1.7-1.65,6.36,6.36,0,0,1-1-2.16,9,9,0,0,1-.29-3.72A6.48,6.48,0,0,1,60.68,9a5.91,5.91,0,0,1,2.09-1.83,6.61,6.61,0,0,1,2.63-.74h.31l.3,0a7,7,0,0,1,2.65.45,5.57,5.57,0,0,1,1.9,1.23,5.89,5.89,0,0,1,1.23,1.83,9.08,9.08,0,0,1,.63,2.26Zm-.53-.46a8.78,8.78,0,0,0,2.44-2.17,5.61,5.61,0,0,0,1-2.32,4.85,4.85,0,0,0,0-1.7,4.34,4.34,0,0,0-.57-1.47,3.58,3.58,0,0,0-1-1.06,2.21,2.21,0,0,0-1.28-.41h-.14A3.15,3.15,0,0,0,64,7.64a2.39,2.39,0,0,0-1,1,3.6,3.6,0,0,0-.46,1.75,8.91,8.91,0,0,0,.37,2.71,7,7,0,0,0,.74,1.8A7.7,7.7,0,0,0,64.85,16.43Z"/><path class="cls-1" d="M75.37,20.57V8.81a2.94,2.94,0,0,0-.1-.89A.78.78,0,0,0,75,7.48a1.28,1.28,0,0,0-.58-.19l-.85-.1V6.78l5.76-.58V9.39a7.76,7.76,0,0,1,1-1.12,8.83,8.83,0,0,1,1.23-1,7,7,0,0,1,1.4-.75,4.15,4.15,0,0,1,1.49-.29A3.4,3.4,0,0,1,86,6.67l-.87,4.54c-1-1.58-2-2.37-3.19-2.37a3.75,3.75,0,0,0-2.7,1.45V20.57Z"/></g></g></svg>