<svg xmlns="http://www.w3.org/2000/svg" xmlns:xlink="http://www.w3.org/1999/xlink" viewBox="0 0 94.15 128.51"><defs><style>.cls-1{isolation:isolate;}.cls-2{opacity:0.05;mix-blend-mode:multiply;}.cls-3{fill:#fff;}.cls-4{fill:#4546cf;}.cls-5{fill:#9bb4fe;}.cls-6{fill:url(#linear-gradient);}.cls-7{fill:url(#linear-gradient-2);}.cls-8{fill:url(#linear-gradient-3);}.cls-9{fill:url(#linear-gradient-4);}.cls-10{fill:url(#linear-gradient-5);}</style><linearGradient id="linear-gradient" x1="46.62" y1="123.89" x2="46.62" y2="101.87" gradientUnits="userSpaceOnUse"><stop offset="0.02" stop-color="#db4d61"/><stop offset="0.29" stop-color="#de5d6f"/><stop offset="0.7" stop-color="#e26e7e"/><stop offset="1" stop-color="#e37483"/></linearGradient><linearGradient id="linear-gradient-2" x1="12.36" y1="123.89" x2="12.36" y2="101.87" xlink:href="#linear-gradient"/><linearGradient id="linear-gradient-3" x1="27.94" y1="123.89" x2="27.94" y2="101.87" xlink:href="#linear-gradient"/><linearGradient id="linear-gradient-4" x1="62.42" y1="123.89" x2="62.42" y2="101.87" xlink:href="#linear-gradient"/><linearGradient id="linear-gradient-5" x1="77.97" y1="123.89" x2="77.97" y2="101.87" xlink:href="#linear-gradient"/></defs><g class="cls-1"><g id="Layer_2" data-name="Layer 2"><g id="Layer_1-2" data-name="Layer 1"><g class="cls-2"><rect x="1.34" y="1.34" width="92.82" height="127.17"/></g><rect class="cls-3" width="92.82" height="127.17"/><path class="cls-4" d="M29.28,58.28H8.83V37.82H29.28ZM10.16,56.94H27.94V39.16H10.16Z"/><path class="cls-4" d="M29.28,32.21H8.83V11.76H29.28ZM10.16,30.87H27.94V13.09H10.16Z"/><rect class="cls-4" x="8.11" y="116.6" width="74.69" height="1.01"/><rect class="cls-5" x="35.07" y="100.7" width="4.74" height="15.88"/><rect class="cls-6" x="43.74" y="92.13" width="5.77" height="24.45"/><rect class="cls-5" x="51.88" y="110.75" width="4.8" height="5.84"/><rect class="cls-7" x="9.99" y="98.6" width="4.74" height="17.98"/><rect class="cls-5" x="17.53" y="103.54" width="4.8" height="13.04"/><rect class="cls-8" x="25.54" y="106.41" width="4.8" height="10.18"/><rect class="cls-9" x="60.06" y="103.54" width="4.74" height="13.04"/><rect class="cls-5" x="68.2" y="96.23" width="4.8" height="20.35"/><rect class="cls-10" x="75.57" y="106.41" width="4.8" height="10.18"/><path class="cls-4" d="M77.28,42.56H36a.88.88,0,0,1-.88-.87h0a.88.88,0,0,1,.88-.88H77.28a.88.88,0,0,1,.88.88h0A.88.88,0,0,1,77.28,42.56Z"/><path class="cls-5" d="M73.5,46.64H36a.88.88,0,0,1-.88-.88h0a.88.88,0,0,1,.88-.87H73.5a.88.88,0,0,1,.88.87h0A.88.88,0,0,1,73.5,46.64Z"/><path class="cls-5" d="M73.5,55.29H36a.88.88,0,0,1-.88-.88h0a.88.88,0,0,1,.88-.87H73.5a.88.88,0,0,1,.88.87h0A.88.88,0,0,1,73.5,55.29Z"/><path class="cls-5" d="M57.91,50.94H36a.89.89,0,0,1-.88-.88h0a.89.89,0,0,1,.88-.88H57.91a.88.88,0,0,1,.87.88h0A.88.88,0,0,1,57.91,50.94Z"/><path class="cls-5" d="M83.84,50.94H62a.89.89,0,0,1-.88-.88h0a.89.89,0,0,1,.88-.88H83.84a.88.88,0,0,1,.87.88h0A.88.88,0,0,1,83.84,50.94Z"/><path class="cls-4" d="M29.28,85.55H8.83V65.1H29.28ZM10.16,84.21H27.94V66.43H10.16Z"/><path class="cls-4" d="M77.28,69.84H36a.89.89,0,0,1-.88-.88h0a.89.89,0,0,1,.88-.88H77.28a.89.89,0,0,1,.88.88h0A.89.89,0,0,1,77.28,69.84Z"/><path class="cls-5" d="M73.5,73.91H36a.88.88,0,0,1-.88-.87h0a.88.88,0,0,1,.88-.88H73.5a.88.88,0,0,1,.88.88h0A.88.88,0,0,1,73.5,73.91Z"/><path class="cls-5" d="M73.5,82.57H36a.89.89,0,0,1-.88-.88h0a.89.89,0,0,1,.88-.88H73.5a.89.89,0,0,1,.88.88h0A.89.89,0,0,1,73.5,82.57Z"/><path class="cls-5" d="M57.91,78.21H36a.88.88,0,0,1-.88-.88h0a.88.88,0,0,1,.88-.87H57.91a.87.87,0,0,1,.87.87h0A.87.87,0,0,1,57.91,78.21Z"/><path class="cls-5" d="M83.84,78.21H62a.88.88,0,0,1-.88-.88h0a.88.88,0,0,1,.88-.87H83.84a.87.87,0,0,1,.87.87h0A.87.87,0,0,1,83.84,78.21Z"/><path class="cls-4" d="M77.28,16.5H36a.89.89,0,0,1-.88-.88h0a.89.89,0,0,1,.88-.88H77.28a.89.89,0,0,1,.88.88h0A.89.89,0,0,1,77.28,16.5Z"/><path class="cls-5" d="M73.5,20.57H36a.88.88,0,0,1-.88-.87h0a.88.88,0,0,1,.88-.88H73.5a.88.88,0,0,1,.88.88h0A.88.88,0,0,1,73.5,20.57Z"/><path class="cls-5" d="M73.5,29.22H36a.88.88,0,0,1-.88-.87h0a.88.88,0,0,1,.88-.88H73.5a.88.88,0,0,1,.88.88h0A.88.88,0,0,1,73.5,29.22Z"/><path class="cls-5" d="M57.91,24.87H36a.88.88,0,0,1-.88-.88h0a.88.88,0,0,1,.88-.87H57.91a.87.87,0,0,1,.87.87h0A.87.87,0,0,1,57.91,24.87Z"/><path class="cls-5" d="M83.84,24.87H62a.88.88,0,0,1-.88-.88h0a.88.88,0,0,1,.88-.87H83.84a.87.87,0,0,1,.87.87h0A.87.87,0,0,1,83.84,24.87Z"/></g></g></g></svg>