<?xml version="1.0" encoding="UTF-8"?><svg id="Layer_2" xmlns="http://www.w3.org/2000/svg" viewBox="0 0 139.68 43.29"><defs><style>.cls-1{fill:#007bee;}.cls-2{fill:#fff;}</style></defs><g id="Layer_1-2"><rect class="cls-2" x="0" y="0" width="139.68" height="43.29" rx="21.65" ry="21.65"/><path class="cls-1" d="M24,14.77c0-3.38,1.98-5.91,5.55-5.91,2.42,0,4.21,1.17,5,3.25l-1.68,1.2c-.34-1.48-1.44-2.61-3.3-2.61-2.41,0-3.51,1.68-3.51,4.07s1.12,4.09,3.38,4.09c1.94,0,2.8-1.05,3.21-2.65h-3.32v-1.63h5.26v5.96h-1.24l-.53-4.33c-.09,2.59-1.55,4.47-4.11,4.47-2.96,0-4.72-2.25-4.72-5.91Z"/><path class="cls-1" d="M36.25,16.37c0-2.63,1.63-4.36,3.99-4.36,2.51,0,3.9,1.67,3.9,3.99,0,.31-.03.67-.07.84h-5.98c.1,1.49.98,2.3,2.3,2.3,1.46,0,2.11-.76,2.42-1.46l1.19,1.24c-.64.96-1.77,1.8-3.63,1.8-2.49,0-4.12-1.74-4.12-4.35ZM38.11,15.6h4.29c-.14-1.32-.89-2.04-2.16-2.04-1.19,0-1.98.69-2.13,2.04Z"/><path class="cls-1" d="M46.2,18.26v-4.59h-1.31v-1.49h1.31v-1.01l1.92-1.22v2.23h2.56v1.49h-2.56v4.12c0,.91.43,1.13,1,1.13.65,0,1.13-.53,1.38-1.01l.6,1.72c-.36.53-1.19,1.1-2.41,1.1-1.58,0-2.49-1-2.49-2.47Z"/><path class="cls-1" d="M55.99,20.55v-11.51h2.39l2.47,5.05,1.13,2.94,1.15-2.94,2.47-5.05h2.37v11.51h-1.94v-5.41l.24-3.8-1.32,3.3-1.99,3.97h-1.96l-1.99-3.97-1.36-3.3.27,3.8v5.41h-1.94Z"/><path class="cls-1" d="M69.04,22.14l.91-1.55c.45.64.96,1.12,1.74,1.12.65,0,1.07-.29,1.38-1.22l.15-.46h-1.19l-2.77-7.85h2.11l1.51,4.74.6,2.23.6-2.23,1.49-4.74h2.13l-3.09,8.95c-.6,1.68-1.58,2.29-2.94,2.29-1.2,0-2.18-.62-2.65-1.27Z"/><path class="cls-1" d="M82.51,20.55v-11.51h7.99v1.72h-6.05v3.54h5v1.72h-5v4.54h-1.94Z"/><path class="cls-1" d="M91.48,20.55v-8.37h1.92v2.37c.31-1.34,1.15-2.54,2.65-2.54,1.05,0,1.82.69,1.82,1.92,0,.81-.22,1.41-.38,1.67h-1.98c.27-.27.53-.83.53-1.31s-.22-.84-.79-.84c-.96,0-1.86,1.1-1.86,2.49v4.6h-1.92Z"/><path class="cls-1" d="M98.52,16.37c0-2.63,1.63-4.36,3.99-4.36,2.51,0,3.9,1.67,3.9,3.99,0,.31-.03.67-.07.84h-5.98c.1,1.49.98,2.3,2.3,2.3,1.46,0,2.11-.76,2.42-1.46l1.19,1.24c-.64.96-1.77,1.8-3.63,1.8-2.49,0-4.12-1.74-4.12-4.35ZM100.38,15.6h4.29c-.14-1.32-.89-2.04-2.16-2.04-1.19,0-1.98.69-2.13,2.04Z"/><path class="cls-1" d="M107.85,16.37c0-2.63,1.63-4.36,3.99-4.36,2.51,0,3.9,1.67,3.9,3.99,0,.31-.03.67-.07.84h-5.98c.1,1.49.98,2.3,2.3,2.3,1.46,0,2.11-.76,2.42-1.46l1.19,1.24c-.64.96-1.77,1.8-3.63,1.8-2.49,0-4.12-1.74-4.12-4.35ZM109.7,15.6h4.29c-.14-1.32-.89-2.04-2.16-2.04-1.19,0-1.98.69-2.13,2.04Z"/><path class="cls-1" d="M33.9,34.47c-3.11-.26-5.15-2.75-5.15-5.91,0-3.32,2.29-5.91,5.67-5.91s5.67,2.59,5.67,5.91c0,3.08-1.96,5.53-4.93,5.88.09,1.13.76,1.56,1.51,1.56,1.24,0,1.89-.96,2.27-1.82l.86,2.08c-.55.67-1.51,1.46-3.01,1.44-1.87-.02-2.97-1.37-2.89-3.23ZM38.06,28.56c0-2.34-1.22-4.04-3.62-4.04s-3.64,1.7-3.64,4.04,1.24,4.05,3.64,4.05,3.62-1.7,3.62-4.05Z"/><path class="cls-1" d="M41.87,31.79v-5.82h1.92v5.24c0,1.03.34,1.74,1.63,1.74,1.41,0,1.89-.91,1.89-2.29v-4.69h1.94v8.37h-1.94v-2.29c-.31,1.32-1.17,2.46-2.83,2.46s-2.61-.98-2.61-2.71Z"/><path class="cls-1" d="M50.72,30.16c0-2.61,1.65-4.36,4.05-4.36s4.09,1.75,4.09,4.36-1.65,4.35-4.09,4.35-4.05-1.75-4.05-4.35ZM56.9,30.16c0-1.94-.86-2.77-2.11-2.77s-2.1.83-2.1,2.77.86,2.75,2.1,2.75,2.11-.83,2.11-2.75Z"/><path class="cls-1" d="M60.88,32.05v-4.59h-1.31v-1.5h1.31v-1.01l1.92-1.22v2.23h2.56v1.5h-2.56v4.12c0,.91.43,1.13,1,1.13.65,0,1.13-.53,1.38-1.01l.6,1.72c-.36.53-1.19,1.1-2.41,1.1-1.58,0-2.49-1-2.49-2.47Z"/><path class="cls-1" d="M66.12,30.16c0-2.63,1.63-4.36,3.99-4.36,2.51,0,3.9,1.67,3.9,3.99,0,.31-.03.67-.07.84h-5.98c.1,1.49.98,2.3,2.3,2.3,1.46,0,2.11-.76,2.42-1.46l1.19,1.24c-.64.96-1.77,1.8-3.63,1.8-2.49,0-4.12-1.74-4.12-4.35ZM67.98,29.39h4.29c-.14-1.32-.89-2.04-2.16-2.04-1.19,0-1.98.69-2.13,2.04Z"/><path class="cls-1" d="M79.42,34.33v-11.51h1.8l4.66,6.7,1.13,1.8-.12-2.18v-6.32h1.94v11.51h-1.79l-4.78-6.8-1.05-1.63.14,2.1v6.34h-1.94Z"/><path class="cls-1" d="M90.4,30.16c0-2.61,1.65-4.36,4.05-4.36s4.09,1.75,4.09,4.36-1.65,4.35-4.09,4.35-4.05-1.75-4.05-4.35ZM96.58,30.16c0-1.94-.86-2.77-2.11-2.77s-2.1.83-2.1,2.77.86,2.75,2.1,2.75,2.11-.83,2.11-2.75Z"/><path class="cls-1" d="M101.05,34.33l-2.13-8.37h2.15l.86,4.71.36,2.35.53-2.35,1.27-4.71h2.29l1.29,4.71.51,2.35.36-2.35.88-4.71h2.15l-2.15,8.37h-2.46l-1.19-4.35-.53-2.59-.55,2.59-1.17,4.35h-2.47Z"/></g></svg>