<?xml version="1.0" encoding="UTF-8"?><svg id="Layer_2" xmlns="http://www.w3.org/2000/svg" viewBox="0 0 84.42 32.73"><defs><style>.cls-1{fill:#fff;}</style></defs><g id="Layer_1-2"><path class="cls-1" d="M5.37,14.27v-5.16L0,0h2.98l2.11,3.92,1.49,3.28,1.55-3.26,2.22-3.94h2.79l-5.37,9.12v5.16h-2.41Z"/><path class="cls-1" d="M12.29,9.1c0-3.26,2.02-5.41,4.94-5.41,3.11,0,4.83,2.07,4.83,4.94,0,.38-.04.83-.08,1.04h-7.41c.13,1.85,1.21,2.85,2.85,2.85,1.81,0,2.62-.94,3-1.81l1.47,1.53c-.79,1.19-2.19,2.24-4.5,2.24-3.09,0-5.11-2.15-5.11-5.39ZM14.6,8.14h5.33c-.17-1.64-1.11-2.54-2.68-2.54-1.47,0-2.45.85-2.64,2.54Z"/><path class="cls-1" d="M23.23,11.95l1.41-1.49c.58,1.04,1.85,2.11,3.71,2.11,1.02,0,1.68-.36,1.68-1.11s-.79-1.02-1.94-1.3l-1.38-.34c-1.64-.38-3.15-1.11-3.15-3s1.55-3.11,3.94-3.11c2.22,0,3.77,1.07,4.41,2.24l-1.41,1.49c-.72-1.15-1.83-1.83-3.17-1.83-.92,0-1.53.38-1.53,1.09,0,.75.55,1.02,1.96,1.38l1.26.32c2.32.6,3.17,1.53,3.17,3.02,0,2.04-1.73,3.07-3.92,3.07s-4.24-.89-5.03-2.54Z"/><path class="cls-1" d="M33.94,15.49c.77-.08,1.24-.23,1.24-.94v-.28h-1.26v-3.02h2.73v3.07c0,1.43-.62,2.26-2.21,2.43l-.49-1.26Z"/><path class="cls-1" d="M43.47,14.27V0h2.41v14.27h-2.41Z"/><path class="cls-1" d="M48.28,4.24c.77-.08,1.24-.23,1.24-.94v-.28h-1.26V0h2.73v3.07c0,1.43-.62,2.26-2.21,2.43l-.49-1.26Z"/><path class="cls-1" d="M53.23,14.27V3.9h2.39v2.83c.38-1.64,1.41-3.05,3.37-3.05s2.92,1.11,3.03,3.07c.36-1.64,1.38-3.07,3.37-3.07s3.02,1.21,3.02,3.37v7.22h-2.39v-6.5c0-1.43-.6-2.15-2-2.15s-2,1.13-2,2.83v5.82h-2.39v-6.5c0-1.43-.6-2.15-2-2.15s-2,1.13-2,2.83v5.82h-2.39Z"/><path class="cls-1" d="M74.75,12.04c0-1.47,1.02-2.36,2.71-3.03l3.47-1.47c-.08-1.04-.55-1.75-1.98-1.75s-2.47.81-3.07,1.9l-1.43-1.7c.81-1.11,2.43-2.3,4.73-2.3,2.58,0,4.03,1.47,4.03,4.03v3.9c0,.47.17.62.55.62h.66v2.04h-1.47c-1.11,0-1.98-.51-1.98-2v-.77c-.32,1.36-1.32,2.98-3.49,2.98-1.7,0-2.73-.96-2.73-2.45ZM78.33,12.63c1.58,0,2.64-.94,2.64-2.34v-1.11l-2.66,1.19c-.89.41-1.26.77-1.26,1.3,0,.6.41.96,1.28.96Z"/><path class="cls-1" d="M10.52,32.5l-5.22-14.27h2.75l2.83,8.33,1.07,4.11,1.09-4.11,2.83-8.33h2.62l-5.22,14.27h-2.75Z"/><path class="cls-1" d="M18.26,27.32c0-3.26,2.02-5.41,4.94-5.41,3.11,0,4.83,2.07,4.83,4.94,0,.38-.04.83-.08,1.04h-7.41c.13,1.85,1.21,2.85,2.85,2.85,1.81,0,2.62-.94,3-1.81l1.47,1.53c-.79,1.19-2.19,2.24-4.5,2.24-3.09,0-5.11-2.15-5.11-5.39ZM20.56,26.36h5.33c-.17-1.64-1.11-2.54-2.68-2.54-1.47,0-2.45.85-2.64,2.54Z"/><path class="cls-1" d="M30.6,29.66v-5.69h-1.62v-1.85h1.62v-1.26l2.39-1.51v2.77h3.17v1.85h-3.17v5.11c0,1.13.53,1.41,1.24,1.41.81,0,1.41-.66,1.7-1.26l.75,2.13c-.45.66-1.47,1.36-2.98,1.36-1.96,0-3.09-1.24-3.09-3.07Z"/><path class="cls-1" d="M37.1,27.32c0-3.26,2.02-5.41,4.94-5.41,3.11,0,4.83,2.07,4.83,4.94,0,.38-.04.83-.08,1.04h-7.41c.13,1.85,1.21,2.85,2.85,2.85,1.81,0,2.62-.94,3-1.81l1.47,1.53c-.79,1.19-2.19,2.24-4.5,2.24-3.09,0-5.11-2.15-5.11-5.39ZM39.4,26.36h5.33c-.17-1.64-1.11-2.54-2.68-2.54-1.47,0-2.45.85-2.64,2.54Z"/><path class="cls-1" d="M48.97,32.5v-10.37h2.39v2.94c.38-1.66,1.43-3.15,3.28-3.15,1.3,0,2.26.85,2.26,2.39,0,1-.28,1.75-.47,2.07h-2.45c.34-.34.66-1.02.66-1.62s-.28-1.04-.98-1.04c-1.19,0-2.3,1.36-2.3,3.09v5.71h-2.39Z"/><path class="cls-1" d="M57.83,30.26c0-1.47,1.02-2.36,2.71-3.03l3.47-1.47c-.08-1.04-.55-1.75-1.98-1.75s-2.47.81-3.07,1.9l-1.43-1.7c.81-1.11,2.43-2.3,4.73-2.3,2.58,0,4.03,1.47,4.03,4.03v3.9c0,.47.17.62.55.62h.66v2.04h-1.47c-1.11,0-1.98-.51-1.98-2v-.77c-.32,1.36-1.32,2.98-3.49,2.98-1.7,0-2.73-.96-2.73-2.45ZM61.41,30.86c1.58,0,2.64-.94,2.64-2.34v-1.11l-2.66,1.19c-.89.41-1.26.77-1.26,1.3,0,.6.41.96,1.28.96Z"/><path class="cls-1" d="M69.34,32.5v-10.37h2.39v2.83c.38-1.64,1.45-3.05,3.51-3.05s3.26,1.21,3.26,3.37v7.22h-2.41v-6.5c0-1.28-.43-2.15-2.02-2.15-1.75,0-2.34,1.13-2.34,2.83v5.82h-2.39Z"/></g></svg>