<svg id="Headline" xmlns="http://www.w3.org/2000/svg" width="181.094" height="72.906" viewBox="0 0 181.094 72.906">
  <defs>
    <style>
      .cls-1 {
        fill: #fff;
      }

      .cls-1, .cls-2 {
        fill-rule: evenodd;
      }

      .cls-2 {
        fill: #0756ef;
      }
    </style>
  </defs>
  <path id="YOUR_FREE_GUIDE" data-name="YOUR FREE GUIDE" class="cls-1" d="M319.91,108.928l5.457,9.034V123.8h2.262v-5.838l5.457-9.034h-2.578l-3.929,6.761h-0.162l-3.929-6.761H319.91Zm27.6,7.436c0-4.757-2.879-7.64-6.772-7.64s-6.779,2.883-6.779,7.64,2.872,7.64,6.779,7.64S347.515,121.121,347.515,116.364Zm-2.248,0c0,3.624-1.939,5.592-4.524,5.592s-4.524-1.968-4.524-5.592,1.931-5.592,4.524-5.592S345.267,112.74,345.267,116.364Zm14.744-7.436v9.8c0,2.085-1.682,3.254-3.709,3.254s-3.7-1.169-3.7-3.254v-9.8h-2.27v9.84c0,3.355,2.644,5.279,5.972,5.279s5.978-1.924,5.978-5.279v-9.84h-2.269Zm5.57,14.872h2.269v-5.628h3.232l3.055,5.628h2.586l-3.335-6.02a4.127,4.127,0,0,0,2.762-4.19c0-2.738-1.719-4.662-5.208-4.662h-5.361V123.8Zm2.269-7.559v-5.389h2.85c2.24,0,3.166,1.053,3.166,2.738s-0.926,2.651-3.137,2.651H367.85Zm16.542,7.559h2.269v-6.485h6.39v-1.924h-6.39v-4.532h7.059v-1.931h-9.328V123.8Zm12.115,0h2.269v-5.628h3.232l3.055,5.628h2.586l-3.335-6.02a4.127,4.127,0,0,0,2.762-4.19c0-2.738-1.719-4.662-5.207-4.662h-5.362V123.8Zm2.269-7.559v-5.389h2.85c2.24,0,3.166,1.053,3.166,2.738s-0.926,2.651-3.136,2.651h-2.88Zm11.065,7.559h9.518v-1.931H412.11v-4.554h6.669v-1.924H412.11v-4.532h7.161v-1.931h-9.43V123.8Zm12.467,0h9.519v-1.931h-7.249v-4.554h6.669v-1.924h-6.669v-4.532h7.161v-1.931h-9.431V123.8Zm28.125-10.174h2.328a6.045,6.045,0,0,0-6.258-4.9c-3.892,0-6.735,2.9-6.735,7.647,0,4.706,2.762,7.633,6.838,7.633,3.65,0,6.258-2.368,6.258-6.122V116.19h-5.913v1.852h3.717a3.786,3.786,0,0,1-4.062,3.914c-2.651,0-4.583-1.983-4.583-5.6s1.946-5.585,4.495-5.585A3.873,3.873,0,0,1,450.433,113.626Zm14.985-4.7v9.8c0,2.085-1.681,3.254-3.709,3.254-2.012,0-3.7-1.169-3.7-3.254v-9.8h-2.27v9.84c0,3.355,2.644,5.279,5.971,5.279s5.979-1.924,5.979-5.279v-9.84h-2.27Zm7.84,0h-2.269V123.8h2.269V108.928Zm8.173,14.872c4.583,0,7.235-2.81,7.235-7.458,0-4.626-2.652-7.414-7.081-7.414h-5.023V123.8h4.869Zm-2.6-1.96V110.889h2.615c3.29,0,4.987,1.946,4.987,5.453,0,3.522-1.7,5.5-5.127,5.5h-2.475Zm12.65,1.96H501v-1.931h-7.249v-4.554h6.669v-1.924h-6.669v-4.532h7.161v-1.931h-9.431V123.8Z" transform="translate(-319.906 -108.719)"/>
  <path id="TOP_10" data-name="TOP 10" class="cls-1" d="M328.093,139.511h5.354V154.3h2.585V139.511H341.4V137.3h-13.3v2.207Zm30.437,6.29c0-5.435-3.29-8.729-7.737-8.729-4.465,0-7.747,3.294-7.747,8.729s3.282,8.729,7.747,8.729C355.24,154.53,358.53,151.236,358.53,145.8Zm-2.568,0c0,4.141-2.215,6.389-5.169,6.389s-5.17-2.248-5.17-6.389,2.207-6.389,5.17-6.389S355.962,141.661,355.962,145.8Zm5.789,8.5h2.593v-5.974h3.525c3.986,0,5.958-2.382,5.958-5.518s-1.955-5.5-5.95-5.5h-6.126V154.3Zm2.593-8.148V139.5H367.6c2.568,0,3.617,1.378,3.617,3.3s-1.049,3.344-3.583,3.344h-3.29Zm24.579-8.846h-2.417a4.308,4.308,0,0,1-3.911,2.614v2.108c1.947,0,3.3-.764,3.583-1.262h0.143V154.3h2.6V137.3Zm10.631,17.276c3.97,0,6.3-3.2,6.3-8.771,0-5.526-2.359-8.737-6.3-8.737s-6.294,3.2-6.3,8.737C393.252,151.369,395.576,154.572,399.554,154.58Zm0-2.215c-2.324,0-3.726-2.307-3.726-6.556,0.009-4.231,1.41-6.563,3.726-6.563s3.718,2.332,3.718,6.563C403.272,150.058,401.871,152.365,399.554,152.365Z" transform="translate(-319.906 -108.719)"/>
  <path id="BONDS" class="cls-2" d="M414.164,154.3h6.588c3.994,0,5.8-1.967,5.8-4.572a3.967,3.967,0,0,0-3.567-4.207v-0.166a3.486,3.486,0,0,0,2.9-3.585c0-2.514-1.762-4.464-5.421-4.464h-6.294V154.3Zm2.593-2.2v-5.443h3.835c2.081,0,3.382,1.327,3.382,2.945,0,1.428-.982,2.5-3.474,2.5h-3.743Zm0-7.443v-5.169H420.3c2.057,0,3.038,1.07,3.038,2.481,0,1.642-1.359,2.688-3.105,2.688h-3.474ZM444.55,145.8c0-5.435-3.289-8.729-7.737-8.729-4.465,0-7.746,3.294-7.746,8.729s3.281,8.729,7.746,8.729C441.261,154.53,444.55,151.236,444.55,145.8Zm-2.568,0c0,4.141-2.215,6.389-5.169,6.389s-5.17-2.248-5.17-6.389,2.207-6.389,5.17-6.389S441.982,141.661,441.982,145.8Zm19.661-8.5h-2.568v12.48h-0.159l-8.745-12.48h-2.4V154.3h2.593V141.835h0.16L459.26,154.3h2.383V137.3Zm9.339,16.994c5.237,0,8.267-3.211,8.267-8.522,0-5.285-3.03-8.472-8.09-8.472h-5.741V154.3h5.564Zm-2.97-2.24V139.545H471c3.76,0,5.7,2.223,5.7,6.231,0,4.025-1.939,6.282-5.858,6.282h-2.828Zm23.832-10.29h2.5c-0.076-2.721-2.51-4.7-6-4.7-3.449,0-6.093,1.95-6.093,4.879,0,2.365,1.712,3.751,4.473,4.489l2.031,0.548c1.838,0.481,3.257,1.078,3.257,2.589,0,1.659-1.6,2.754-3.811,2.754-2,0-3.659-.879-3.81-2.73h-2.6c0.168,3.079,2.576,4.979,6.428,4.979,4.037,0,6.362-2.1,6.362-4.979,0-3.061-2.761-4.248-4.943-4.779l-1.679-.432c-1.343-.34-3.13-0.962-3.122-2.588,0-1.444,1.335-2.515,3.449-2.515C490.258,139.287,491.659,140.2,491.844,141.768Z" transform="translate(-319.906 -108.719)"/>
  <path id="AUSTRALIA" class="cls-2" d="M370.135,181.376l1.38-3.933h5.872l1.372,3.933h2.408l-5.41-14.862h-2.62l-5.409,14.862h2.407Zm2.041-5.82,2.216-6.342h0.118l2.216,6.342h-4.55Zm20.835-9.042v9.8c0,2.083-1.681,3.251-3.706,3.251s-3.7-1.168-3.7-3.251v-9.8h-2.268v9.833c0,3.353,2.642,5.276,5.967,5.276s5.974-1.923,5.974-5.276v-9.833h-2.268Zm13.775,3.905h2.188c-0.066-2.381-2.195-4.108-5.248-4.108-3.017,0-5.329,1.706-5.329,4.267,0,2.068,1.5,3.28,3.912,3.926l1.776,0.479c1.608,0.421,2.848.944,2.848,2.264,0,1.452-1.4,2.41-3.332,2.41-1.747,0-3.2-.77-3.332-2.388h-2.275c0.146,2.692,2.253,4.354,5.622,4.354,3.53,0,5.563-1.836,5.563-4.354,0-2.678-2.415-3.715-4.323-4.18l-1.468-.377c-1.174-.3-2.737-0.842-2.73-2.264,0-1.263,1.167-2.2,3.016-2.2C405.4,168.249,406.625,169.047,406.786,170.419Zm4.365-1.974h4.683v12.931H418.1V168.445h4.689v-1.931H411.151v1.931Zm14.2,12.931h2.268v-5.624h3.23l3.053,5.624h2.583l-3.332-6.015a4.125,4.125,0,0,0,2.76-4.188c0-2.736-1.717-4.659-5.2-4.659h-5.358v14.862Zm2.268-7.554v-5.385h2.848c2.239,0,3.163,1.053,3.163,2.736s-0.924,2.649-3.134,2.649h-2.877Zm12.336,7.554,1.38-3.933h5.871l1.373,3.933h2.407l-5.409-14.862h-2.62l-5.409,14.862h2.407Zm2.04-5.82,2.217-6.342h0.117l2.217,6.342H442Zm11.162,5.82h9.079v-1.93h-6.811V166.514h-2.268v14.862Zm13.935-14.862h-2.268v14.862h2.268V166.514Zm4.575,14.862,1.38-3.933h5.871l1.373,3.933H482.7l-5.409-14.862h-2.62l-5.409,14.862h2.407Zm2.04-5.82,2.217-6.342h0.117l2.217,6.342h-4.551Z" transform="translate(-319.906 -108.719)"/>
  <path id="IN" class="cls-1" d="M342.929,166.514h-2.268v14.862h2.268V166.514Zm15.437,0H356.12v10.915h-0.139l-7.648-10.915h-2.1v14.862H348.5v-10.9h0.139l7.641,10.9h2.084V166.514Z" transform="translate(-319.906 -108.719)"/>
</svg>
