<svg xmlns="http://www.w3.org/2000/svg" viewBox="0 0 272.27 26.04"><defs><style>.cls-1{fill:#fff;}</style></defs><g id="Layer_2" data-name="Layer 2"><g id="Layer_1-2" data-name="Layer 1"><path class="cls-1" d="M3.61,19.41H0V.4H3.61V9.14H12V.4h3.61v19H12V10.1l-8.42,0Z"/><path class="cls-1" d="M19.94,19.38V9.14a3.15,3.15,0,0,0-.1-.93.92.92,0,0,0-.33-.48A1.1,1.1,0,0,0,19,7.52l-.75-.09V7.06l5.32-.43V19.38ZM21.41,4.65A2.21,2.21,0,0,1,19.76,4a2.22,2.22,0,0,1-.67-1.65A2.23,2.23,0,0,1,19.76.67a2.39,2.39,0,0,1,3.32,0,2.26,2.26,0,0,1,.66,1.66A2.25,2.25,0,0,1,23.08,4,2.21,2.21,0,0,1,21.41,4.65Z"/><path class="cls-1" d="M38,6.36a.87.87,0,0,0-.17-.52,1.44,1.44,0,0,0-.42-.36,1.77,1.77,0,0,0-.53-.2,2.76,2.76,0,0,0-.53-.07,2.27,2.27,0,0,0-1.14.31,2.41,2.41,0,0,0-.84.84A5.57,5.57,0,0,1,37.3,8.05a4.56,4.56,0,0,1,1.09,3.15,4.66,4.66,0,0,1-.51,2.22A4.77,4.77,0,0,1,36.53,15a6,6,0,0,1-1.94,1,7.74,7.74,0,0,1-2.24.33,9.46,9.46,0,0,1-1.58-.14,5,5,0,0,1-1.5-.52A3,3,0,0,0,29,16a.75.75,0,0,0-.12.4.57.57,0,0,0,.14.38,2.61,2.61,0,0,0,.31.27,4.3,4.3,0,0,0,1.63.57c.64.1,1.32.17,2,.23s1.4.12,2.08.2a7.24,7.24,0,0,1,1.86.45,3.08,3.08,0,0,1,1.34,1,3,3,0,0,1,.51,1.85,3.52,3.52,0,0,1-.58,2,4.91,4.91,0,0,1-1.49,1.45,7.36,7.36,0,0,1-2.1.9,9.6,9.6,0,0,1-4.68,0,6.25,6.25,0,0,1-2-.84,4.86,4.86,0,0,1-1.42-1.47,4.39,4.39,0,0,1-.6-2.13l3,0A4.77,4.77,0,0,0,29.19,23a3.6,3.6,0,0,0,.72,1.21A3,3,0,0,0,31,25a3.2,3.2,0,0,0,1.22.24,5.21,5.21,0,0,0,1.4-.18,4.09,4.09,0,0,0,1.1-.46,2.07,2.07,0,0,0,.73-.74,2,2,0,0,0,.25-1,1.55,1.55,0,0,0-.47-1.22A2.93,2.93,0,0,0,34,21a8.06,8.06,0,0,0-1.47-.24c-.52,0-1-.08-1.45-.13s-.93-.12-1.43-.2a6.08,6.08,0,0,1-1.41-.4,2.65,2.65,0,0,1-1.05-.81,2.06,2.06,0,0,1-.42-1.35,2,2,0,0,1,.6-1.55,5.11,5.11,0,0,1,1.46-.88,4.62,4.62,0,0,1-1.8-1.79,5,5,0,0,1-.61-2.46A4.35,4.35,0,0,1,27,9a4.93,4.93,0,0,1,1.39-1.58,6.11,6.11,0,0,1,1.95-1,8,8,0,0,1,2.22-.32,7.89,7.89,0,0,1,1.2.08A12.05,12.05,0,0,1,34.42,5a6.12,6.12,0,0,1,.91-1.23,4.48,4.48,0,0,1,1.16-.93,2.8,2.8,0,0,1,1.39-.36,2.25,2.25,0,0,1,.71.12,2.09,2.09,0,0,1,.64.35,1.6,1.6,0,0,1,.45.55,1.43,1.43,0,0,1,.18.72Zm-5.56,9.22a1.61,1.61,0,0,0,1.19-.46A3.36,3.36,0,0,0,34.38,14a6.42,6.42,0,0,0,.36-1.42,10.76,10.76,0,0,0,.09-1.28A8.33,8.33,0,0,0,34.72,10a6.36,6.36,0,0,0-.38-1.44,3.62,3.62,0,0,0-.75-1.18,1.59,1.59,0,0,0-1.19-.48,1.57,1.57,0,0,0-1.18.48,3.67,3.67,0,0,0-.72,1.16,5.81,5.81,0,0,0-.36,1.42,10.61,10.61,0,0,0-.09,1.27,9.66,9.66,0,0,0,.1,1.3,5.66,5.66,0,0,0,.39,1.44,3.61,3.61,0,0,0,.74,1.16A1.53,1.53,0,0,0,32.45,15.58Z"/><path class="cls-1" d="M45.52,19.38h-3.6V2.54a2.79,2.79,0,0,0-.1-.82.79.79,0,0,0-.29-.41A1.15,1.15,0,0,0,41,1.14L40.2,1V.67L45.52.13V9.06a6.71,6.71,0,0,1,.86-1,7.28,7.28,0,0,1,1.11-.88,6,6,0,0,1,1.27-.63,3.83,3.83,0,0,1,1.31-.24,3.4,3.4,0,0,1,2.75,1.06,4.14,4.14,0,0,1,.91,2.82v9.22H50.12V10.45A2.28,2.28,0,0,0,49.69,9a1.68,1.68,0,0,0-1.39-.53,3.51,3.51,0,0,0-1.49.34,4.62,4.62,0,0,0-1.29.89Z"/><path class="cls-1" d="M56.38,22.35l4.73-2.25L54.85,6.55h4L62.77,16a21,21,0,0,0,1.39-3.57,12.33,12.33,0,0,0,.45-2.79,4.51,4.51,0,0,0-.33-2,2.33,2.33,0,0,0-1-1.14H67.9v.27L60.12,24.46l-3.74-1.9Z"/><path class="cls-1" d="M92.44,24,87.73,18.9l-.26.11a10.45,10.45,0,0,1-3.59.64,10.63,10.63,0,0,1-3.6-.64,9.67,9.67,0,0,1-3.16-1.89,9.38,9.38,0,0,1-2.23-3.06,9.83,9.83,0,0,1-.84-4.17,9.93,9.93,0,0,1,.84-4.2,9.19,9.19,0,0,1,2.23-3A9.82,9.82,0,0,1,80.28.77a10.45,10.45,0,0,1,7.2,0,9.73,9.73,0,0,1,3.14,1.88,9.05,9.05,0,0,1,2.23,3,9.78,9.78,0,0,1,.85,4.2,9.68,9.68,0,0,1-.85,4.17,9.09,9.09,0,0,1-2.23,3,7.88,7.88,0,0,1-1.82,1.28l5,5Zm-7.73-9.76L87.44,17a6,6,0,0,0,.54-.75,9.57,9.57,0,0,0,1-2.77,18.08,18.08,0,0,0,.33-3.62A18.25,18.25,0,0,0,89,6.26a8.9,8.9,0,0,0-1-2.78,5,5,0,0,0-1.7-1.78,4.79,4.79,0,0,0-4.75,0,5,5,0,0,0-1.7,1.78,8.9,8.9,0,0,0-1,2.78,17.47,17.47,0,0,0-.35,3.63,17.3,17.3,0,0,0,.35,3.62,9.1,9.1,0,0,0,1,2.78,4.89,4.89,0,0,0,1.7,1.79,4.39,4.39,0,0,0,2.37.63,4.32,4.32,0,0,0,2.38-.64c.15-.09.29-.19.43-.29L84,14.84Z"/><path class="cls-1" d="M104.87,19.38V16.92a6.57,6.57,0,0,1-.87,1,7.29,7.29,0,0,1-1.12.89,6.18,6.18,0,0,1-1.26.63,3.76,3.76,0,0,1-1.29.24,4,4,0,0,1-1.64-.32,3.22,3.22,0,0,1-1.15-.87,3.45,3.45,0,0,1-.66-1.31,5.75,5.75,0,0,1-.22-1.64V8.31a.69.69,0,0,0-.13-.45.79.79,0,0,0-.35-.24,1.4,1.4,0,0,0-.47-.1,3.89,3.89,0,0,1-.49,0v-.4l5-.53v8.79a2.93,2.93,0,0,0,.4,1.57,1.55,1.55,0,0,0,1.42.63,3.26,3.26,0,0,0,1.52-.4,4.59,4.59,0,0,0,1.26-1V9a2.73,2.73,0,0,0-.09-.81.84.84,0,0,0-.31-.4,1.19,1.19,0,0,0-.54-.17l-.77-.1V7.11l5.32-.53v12.8Z"/><path class="cls-1" d="M111.85,9.41a9.66,9.66,0,0,1,1-1.3,4.92,4.92,0,0,1,1.27-1,6.43,6.43,0,0,1,1.63-.63,8.65,8.65,0,0,1,2.08-.23,8.56,8.56,0,0,1,2,.22,5.1,5.1,0,0,1,1.67.68,3.6,3.6,0,0,1,1.15,1.21,3.68,3.68,0,0,1,.42,1.82v9.17h-3.58V17.86a10.09,10.09,0,0,1-2,1.23,5.21,5.21,0,0,1-2.24.53,5,5,0,0,1-1.47-.21,3.6,3.6,0,0,1-1.23-.64,3.19,3.19,0,0,1-.86-1.11,3.87,3.87,0,0,1-.32-1.62,3.1,3.1,0,0,1,.91-2.29,7.1,7.1,0,0,1,2.19-1.43,13.05,13.05,0,0,1,2.66-.77c.92-.16,1.7-.27,2.34-.32v-.91c0-.41,0-.8,0-1.18a3.38,3.38,0,0,0-.16-1,1.63,1.63,0,0,0-.46-.72,1.48,1.48,0,0,0-.89-.34,2.41,2.41,0,0,0-1.15.19,2.81,2.81,0,0,0-1,.72,3.93,3.93,0,0,0-.74,1.22,5.61,5.61,0,0,0-.37,1.67Zm7.64,2.35a11.93,11.93,0,0,0-1.35.23,5.41,5.41,0,0,0-1.51.6,3.65,3.65,0,0,0-1.2,1.18,3.25,3.25,0,0,0-.43,2,2.5,2.5,0,0,0,.66,1.67,1.9,1.9,0,0,0,1.43.63,4.61,4.61,0,0,0,1.16-.2,3.63,3.63,0,0,0,1.24-.63Z"/><path class="cls-1" d="M130.64,19.38H127V2.73a4,4,0,0,0-.08-.9.76.76,0,0,0-.28-.45,1.38,1.38,0,0,0-.52-.22L125.32,1V.67l5.32-.54Z"/><path class="cls-1" d="M134.78,19.38V9.14a3.15,3.15,0,0,0-.1-.93.91.91,0,0,0-.32-.48,1.14,1.14,0,0,0-.54-.21l-.75-.09V7.06l5.32-.43V19.38Zm1.47-14.73A2.21,2.21,0,0,1,134.6,4a2.22,2.22,0,0,1-.67-1.65A2.23,2.23,0,0,1,134.6.67a2.39,2.39,0,0,1,3.32,0,2.26,2.26,0,0,1,.66,1.66A2.25,2.25,0,0,1,137.92,4,2.21,2.21,0,0,1,136.25,4.65Z"/><path class="cls-1" d="M149.46,17.59a5.09,5.09,0,0,1-1.66,1.5,3.86,3.86,0,0,1-1.87.5,3,3,0,0,1-1.52-.36,3.32,3.32,0,0,1-1.07-.93A4,4,0,0,1,142.7,17a5.4,5.4,0,0,1-.22-1.56V8.5a1.41,1.41,0,0,0-1.6-1.6h-.38V6.63l5.32-3.82h.27V6.55h3.15v.72h-3.15v8.18c0,.23,0,.51,0,.82a3.71,3.71,0,0,0,.19.89,1.85,1.85,0,0,0,.43.72,1,1,0,0,0,.76.3,3.3,3.3,0,0,0,1.79-.8Z"/><path class="cls-1" d="M151.22,22.35,156,20.1,149.7,6.55h4L157.61,16A20.23,20.23,0,0,0,159,12.47a11.86,11.86,0,0,0,.46-2.79,4.65,4.65,0,0,0-.34-2,2.31,2.31,0,0,0-1-1.14h4.63v.27L155,24.46l-3.75-1.9Z"/><path class="cls-1" d="M168.89,9.89a10,10,0,0,1,.75-3.9A9.24,9.24,0,0,1,174.81.87a10.32,10.32,0,0,1,3.92-.74,10.15,10.15,0,0,1,3.9.74,9.42,9.42,0,0,1,3.1,2A9.3,9.3,0,0,1,187.79,6a10,10,0,0,1,.75,3.9,9.88,9.88,0,0,1-.75,3.89,9.3,9.3,0,0,1-5.17,5.13,10.62,10.62,0,0,1-7.79,0,9.34,9.34,0,0,1-5.19-5.13A9.88,9.88,0,0,1,168.89,9.89Zm4.87,2.19a14.36,14.36,0,0,0,1.45,2.58A11.44,11.44,0,0,0,177,16.6a7.31,7.31,0,0,0,1.9,1.23,4.67,4.67,0,0,0,1.91.43,4,4,0,0,0,1.55-.32A3.81,3.81,0,0,0,184,16.47a6.12,6.12,0,0,0,.83-2.38,10,10,0,0,0-.1-3,14.55,14.55,0,0,0-1-3.38,15.21,15.21,0,0,0-1.46-2.59,11.19,11.19,0,0,0-1.74-2,7.77,7.77,0,0,0-1.88-1.23,4.74,4.74,0,0,0-1.9-.42,3.68,3.68,0,0,0-1.55.32,3.81,3.81,0,0,0-1.71,1.49,5.86,5.86,0,0,0-.83,2.38,9.66,9.66,0,0,0,.09,3A14.13,14.13,0,0,0,173.76,12.08Z"/><path class="cls-1" d="M199.72,19.38V16.92a7.88,7.88,0,0,1-.87,1,6.92,6.92,0,0,1-1.13.89,6.37,6.37,0,0,1-1.25.63,3.77,3.77,0,0,1-1.3.24,3.92,3.92,0,0,1-1.63-.32,3.13,3.13,0,0,1-1.15-.87,3.61,3.61,0,0,1-.67-1.31,6.14,6.14,0,0,1-.21-1.64V8.31a.75.75,0,0,0-.13-.45.79.79,0,0,0-.35-.24,1.46,1.46,0,0,0-.47-.1,4.21,4.21,0,0,1-.5,0v-.4l5.06-.53v8.79a2.84,2.84,0,0,0,.4,1.57,1.55,1.55,0,0,0,1.42.63,3.29,3.29,0,0,0,1.52-.4,4.59,4.59,0,0,0,1.26-1V9a2.67,2.67,0,0,0-.1-.81.73.73,0,0,0-.31-.4,1.19,1.19,0,0,0-.53-.17l-.78-.1V7.11l5.32-.53v12.8Z"/><path class="cls-1" d="M213.91,17.59a5,5,0,0,1-1.66,1.5,3.86,3.86,0,0,1-1.87.5,3.05,3.05,0,0,1-1.52-.36,3.32,3.32,0,0,1-1.07-.93,4,4,0,0,1-.64-1.32,5.4,5.4,0,0,1-.22-1.56V8.5a1.41,1.41,0,0,0-1.6-1.6H205V6.63l5.32-3.82h.27V6.55h3.16v.72h-3.16v8.18c0,.23,0,.51,0,.82a3.71,3.71,0,0,0,.19.89,1.85,1.85,0,0,0,.43.72,1,1,0,0,0,.76.3,3.28,3.28,0,0,0,1.79-.8Z"/><path class="cls-1" d="M225.75,18.37a2.41,2.41,0,0,0-1.2-.33,3.45,3.45,0,0,0-1.9.75,5.68,5.68,0,0,1-1.2.62,3.74,3.74,0,0,1-1.31.24,4.52,4.52,0,0,1-2.25-.56,5.57,5.57,0,0,1-1.67-1.46,6.78,6.78,0,0,1-1-2,7.38,7.38,0,0,1-.36-2.27,8,8,0,0,1,.44-2.58,7,7,0,0,1,1.26-2.26,6.36,6.36,0,0,1,2-1.6,5.37,5.37,0,0,1,2.57-.62,5.56,5.56,0,0,1,1.58.24,4.43,4.43,0,0,1,1.41.7V2.49a2.73,2.73,0,0,0-.09-.81.78.78,0,0,0-.31-.4,1.32,1.32,0,0,0-.53-.17L222.33,1V.64l5.32-.53V19.38ZM224,7.83a2.51,2.51,0,0,0-.95-.44A4.63,4.63,0,0,0,222,7.27a2.69,2.69,0,0,0-1.71.54,4,4,0,0,0-1.13,1.33,6.37,6.37,0,0,0-.61,1.75,8.93,8.93,0,0,0-.19,1.78,8.92,8.92,0,0,0,.18,1.68,6.9,6.9,0,0,0,.56,1.77,3.88,3.88,0,0,0,1,1.38,2.46,2.46,0,0,0,1.62.54,2.27,2.27,0,0,0,1.23-.38,5.07,5.07,0,0,0,1-.82Z"/><path class="cls-1" d="M237.33,19.65a7.4,7.4,0,0,1-2.73-.5,6.62,6.62,0,0,1-2.18-1.37A6.7,6.7,0,0,1,231,15.67a6.82,6.82,0,0,1-.53-2.71,6.87,6.87,0,0,1,.53-2.72,6.4,6.4,0,0,1,3.64-3.48,7.61,7.61,0,0,1,2.73-.48,7.51,7.51,0,0,1,2.72.48,6.4,6.4,0,0,1,3.64,3.48,6.7,6.7,0,0,1,.53,2.72,6.65,6.65,0,0,1-.53,2.71,6.4,6.4,0,0,1-3.64,3.48A7.31,7.31,0,0,1,237.33,19.65Zm1.41-1a2.11,2.11,0,0,0,1.39-1,4.69,4.69,0,0,0,.59-1.77,8.43,8.43,0,0,0,0-2,9.51,9.51,0,0,0-.28-1.71,15.37,15.37,0,0,0-.48-1.63,9,9,0,0,0-.73-1.6,4.19,4.19,0,0,0-1.09-1.23,2.41,2.41,0,0,0-1.52-.49,3.43,3.43,0,0,0-.86.11,2.15,2.15,0,0,0-1.36,1,4.89,4.89,0,0,0-.6,1.76,7.94,7.94,0,0,0-.05,2,9.83,9.83,0,0,0,.28,1.71,10,10,0,0,0,.52,1.49,9.07,9.07,0,0,0,.88,1.62,6,6,0,0,0,1.2,1.3,2.4,2.4,0,0,0,1.49.53A1.77,1.77,0,0,0,238.74,18.63Z"/><path class="cls-1" d="M252.67,19.65a7.4,7.4,0,0,1-2.73-.5,6.42,6.42,0,0,1-3.63-3.48,6.66,6.66,0,0,1-.54-2.71,6.71,6.71,0,0,1,.54-2.72,6.33,6.33,0,0,1,1.46-2.11,6.41,6.41,0,0,1,2.17-1.37,8,8,0,0,1,5.46,0,6.46,6.46,0,0,1,2.18,1.37A6.3,6.3,0,0,1,259,10.24a6.71,6.71,0,0,1,.54,2.72,6.66,6.66,0,0,1-.54,2.71,6.51,6.51,0,0,1-1.45,2.11,6.62,6.62,0,0,1-2.18,1.37A7.4,7.4,0,0,1,252.67,19.65Zm1.42-1a2.16,2.16,0,0,0,1.39-1,4.87,4.87,0,0,0,.59-1.77,9,9,0,0,0,0-2,11.71,11.71,0,0,0-.28-1.71c-.13-.52-.29-1.06-.49-1.63a8.32,8.32,0,0,0-.73-1.6,4.16,4.16,0,0,0-1.08-1.23A2.44,2.44,0,0,0,252,7.16a3.35,3.35,0,0,0-.85.11,2.17,2.17,0,0,0-1.37,1,4.89,4.89,0,0,0-.6,1.76,8.43,8.43,0,0,0-.05,2,10.88,10.88,0,0,0,.28,1.71,11.25,11.25,0,0,0,.52,1.49,9.75,9.75,0,0,0,.88,1.62,5.79,5.79,0,0,0,1.21,1.3,2.36,2.36,0,0,0,1.48.53A1.87,1.87,0,0,0,254.09,18.63Z"/><path class="cls-1" d="M262.43,19.38V8.53a2.49,2.49,0,0,0-.1-.82A.75.75,0,0,0,262,7.3a1.22,1.22,0,0,0-.53-.18L260.72,7V6.66L266,6.12V9.06a7.11,7.11,0,0,1,.87-1A8.73,8.73,0,0,1,268,7.08a6.48,6.48,0,0,1,1.3-.69,3.69,3.69,0,0,1,1.38-.27,3.05,3.05,0,0,1,1.55.43l-.81,4.2c-.87-1.46-1.85-2.2-2.94-2.2A3.47,3.47,0,0,0,266,9.89v9.49Z"/></g></g></svg>