<svg xmlns="http://www.w3.org/2000/svg" viewBox="0 0 242.92 48.56"><defs><style>.cls-1{fill:#fff;}</style></defs><g id="Layer_2" data-name="Layer 2"><g id="Layer_1-2" data-name="Layer 1"><path class="cls-1" d="M0,47.89V.8H9V47.89Z"/><path class="cls-1" d="M28.59,47.89h-9V21a6.57,6.57,0,0,0-.23-2,1.87,1.87,0,0,0-.73-1,3.06,3.06,0,0,0-1.32-.43l-2-.23v-.93L28.59,15v7.3a15.66,15.66,0,0,1,2.26-2.56,17.19,17.19,0,0,1,2.95-2.18A17.5,17.5,0,0,1,37.18,16a10.54,10.54,0,0,1,3.42-.6q4.84,0,7.26,2.62a9.93,9.93,0,0,1,2.42,7V47.89h-9V25.74a5.38,5.38,0,0,0-1.16-3.65,5,5,0,0,0-3.88-1.33,10.7,10.7,0,0,0-4.15.87,12,12,0,0,0-3.55,2.18Z"/><path class="cls-1" d="M61.89,47.89v-30H56.58V16.05h5.31V10.28a10.55,10.55,0,0,1,.9-4.51,9.11,9.11,0,0,1,2.45-3.22A10.33,10.33,0,0,1,68.92.63,15.81,15.81,0,0,1,73.43,0a21.76,21.76,0,0,1,3.45.3,10.93,10.93,0,0,1,3.49,1.19,7.88,7.88,0,0,1,2.75,2.59,8.76,8.76,0,0,1,1.26,4.48l-7.3,2.19A15.19,15.19,0,0,0,76.62,4,3.53,3.53,0,0,0,73,1.46,4.05,4.05,0,0,0,69.59,3a5.89,5.89,0,0,0-1.13,3.68,10.08,10.08,0,0,0,.3,2.42q.3,1.23.69,2.43c.27.79.55,1.58.87,2.35s.57,1.52.79,2.22H81.59v1.79H71V47.89Z"/><path class="cls-1" d="M87.23,47.89V21a6.9,6.9,0,0,0-.23-2,1.92,1.92,0,0,0-.73-1,3.11,3.11,0,0,0-1.33-.43l-2-.23v-.93L96.19,15v7.3a18.37,18.37,0,0,1,2.15-2.56,20.68,20.68,0,0,1,2.82-2.35,15.37,15.37,0,0,1,3.22-1.72,9.12,9.12,0,0,1,3.41-.67,7.74,7.74,0,0,1,3.85,1.06l-2,10.42Q106.4,21,102.35,21c-2.07,0-4.13,1.1-6.16,3.32V47.89Z"/><path class="cls-1" d="M114.36,23.15a24.64,24.64,0,0,1,2.56-3.22,13.07,13.07,0,0,1,3.15-2.42,16.82,16.82,0,0,1,4-1.56,21.8,21.8,0,0,1,5.18-.56,22.29,22.29,0,0,1,4.87.53,12.75,12.75,0,0,1,4.15,1.69,8.77,8.77,0,0,1,2.85,3,8.93,8.93,0,0,1,1.06,4.51V47.89h-8.89V44.11a24.39,24.39,0,0,1-4.91,3.06,12.87,12.87,0,0,1-5.57,1.32A12.49,12.49,0,0,1,119.2,48a9.06,9.06,0,0,1-3-1.59A7.71,7.71,0,0,1,114,43.62a9.39,9.39,0,0,1-.8-4,7.63,7.63,0,0,1,2.26-5.67,17,17,0,0,1,5.44-3.55,31.24,31.24,0,0,1,6.6-1.92q3.42-.6,5.8-.8V25.41c0-1,0-2,0-2.92a8.54,8.54,0,0,0-.4-2.49,4.08,4.08,0,0,0-1.13-1.79,3.66,3.66,0,0,0-2.22-.83,5.87,5.87,0,0,0-2.85.46,7.21,7.21,0,0,0-2.49,1.8,9.62,9.62,0,0,0-1.82,3,14.29,14.29,0,0,0-.93,4.15Zm19,5.84a30.6,30.6,0,0,0-3.35.56A12.89,12.89,0,0,0,126.24,31a9.06,9.06,0,0,0-3,2.92,8.12,8.12,0,0,0-1.06,4.85A6.26,6.26,0,0,0,123.81,43a4.76,4.76,0,0,0,3.55,1.56,10.78,10.78,0,0,0,2.89-.5,8.68,8.68,0,0,0,3.08-1.55Z"/><path class="cls-1" d="M152,47.89V21a6.9,6.9,0,0,0-.23-2,1.92,1.92,0,0,0-.73-1,3.11,3.11,0,0,0-1.33-.43l-2-.23v-.93L161,15v7.3a18.37,18.37,0,0,1,2.15-2.56A20.68,20.68,0,0,1,166,17.38a15.37,15.37,0,0,1,3.22-1.72A9.12,9.12,0,0,1,172.6,15a7.74,7.74,0,0,1,3.85,1.06l-2,10.42Q171.21,21,167.17,21c-2.08,0-4.14,1.1-6.17,3.32V47.89Z"/><path class="cls-1" d="M191.31,39.47a13.48,13.48,0,0,0,3.82,2.39,11.35,11.35,0,0,0,4.34.86A8.82,8.82,0,0,0,205,41a11.76,11.76,0,0,0,3.52-4.81l.53.4a17.71,17.71,0,0,1-4.84,8.59,12.74,12.74,0,0,1-9,3.15,18,18,0,0,1-5.37-.83A17.39,17.39,0,0,1,185,45.14a17,17,0,0,1-3.89-3.78,14.41,14.41,0,0,1-2.38-4.94,20.83,20.83,0,0,1-.67-8.53,15,15,0,0,1,2.52-6.5,13.68,13.68,0,0,1,4.78-4.18,15.06,15.06,0,0,1,6-1.69l.69,0,.7,0a16.34,16.34,0,0,1,6.07,1,12.93,12.93,0,0,1,4.34,2.82A13.18,13.18,0,0,1,206,23.48a19.88,19.88,0,0,1,1.43,5.18Zm-1.19-1.06a20.07,20.07,0,0,0,5.57-5,12.82,12.82,0,0,0,2.39-5.3,10.75,10.75,0,0,0,0-3.88,9.88,9.88,0,0,0-1.29-3.39,8.21,8.21,0,0,0-2.26-2.42,4.94,4.94,0,0,0-2.91-.93h-.34a7.49,7.49,0,0,0-3,.77,5.58,5.58,0,0,0-2.36,2.22,8.55,8.55,0,0,0-1.06,4,20.56,20.56,0,0,0,.86,6.2,16.06,16.06,0,0,0,1.69,4.12A17.61,17.61,0,0,0,190.12,38.41Z"/><path class="cls-1" d="M238.21,45.37a6.16,6.16,0,0,0-3-.79,8.51,8.51,0,0,0-4.71,1.86,14.75,14.75,0,0,1-3,1.52,9.16,9.16,0,0,1-3.25.6,11.15,11.15,0,0,1-5.57-1.39,13.62,13.62,0,0,1-4.15-3.62,16.55,16.55,0,0,1-2.59-5,18.56,18.56,0,0,1-.89-5.64,19.39,19.39,0,0,1,1.09-6.4,17.92,17.92,0,0,1,3.12-5.6,15.85,15.85,0,0,1,4.88-4,13.24,13.24,0,0,1,6.37-1.53,13.52,13.52,0,0,1,3.91.6A11.05,11.05,0,0,1,234,17.71V6a6.27,6.27,0,0,0-.23-2A1.89,1.89,0,0,0,233,3a3.31,3.31,0,0,0-1.33-.43l-1.92-.23V1.39L242.92.07V47.89ZM234,19.24a6.19,6.19,0,0,0-2.35-1.1,11.57,11.57,0,0,0-2.62-.3,6.8,6.8,0,0,0-4.25,1.33A10.2,10.2,0,0,0,222,22.49a15.42,15.42,0,0,0-1.53,4.34,22.81,22.81,0,0,0-.46,4.41,22.8,22.8,0,0,0,.43,4.18,18.21,18.21,0,0,0,1.39,4.38,9.76,9.76,0,0,0,2.59,3.42,6,6,0,0,0,4,1.36,5.66,5.66,0,0,0,3.05-1,12.47,12.47,0,0,0,2.52-2Z"/></g></g></svg>