<svg xmlns="http://www.w3.org/2000/svg" viewBox="0 0 196.95 47.7"><defs><style>.cls-1{fill:#fff;}</style></defs><g id="Layer_2" data-name="Layer 2"><g id="Layer_1-2" data-name="Layer 1"><path class="cls-1" d="M9,47.17H0V0H9V21.69H29.85V0h9V47.17h-9V24.08L9,24Z"/><path class="cls-1" d="M59.17,38.67A13.26,13.26,0,0,0,63,41.06a11.16,11.16,0,0,0,4.34.86,8.82,8.82,0,0,0,5.57-1.69,11.76,11.76,0,0,0,3.52-4.81l.53.4a17.67,17.67,0,0,1-4.84,8.59,12.73,12.73,0,0,1-9,3.15,17.71,17.71,0,0,1-5.38-.83,17.36,17.36,0,0,1-4.87-2.38A16.61,16.61,0,0,1,49,40.56a14.17,14.17,0,0,1-2.39-4.94,20.79,20.79,0,0,1-.67-8.52,14.91,14.91,0,0,1,2.53-6.5,13.46,13.46,0,0,1,4.77-4.18,14.78,14.78,0,0,1,6-1.69,5.53,5.53,0,0,0,.69,0l.7,0a16.13,16.13,0,0,1,6.07,1,12.78,12.78,0,0,1,4.35,2.82,13.28,13.28,0,0,1,2.82,4.18,20.19,20.19,0,0,1,1.42,5.17ZM58,37.61a20.05,20.05,0,0,0,5.57-5,12.91,12.91,0,0,0,2.39-5.31,11,11,0,0,0,0-3.88,10,10,0,0,0-1.3-3.38,8.18,8.18,0,0,0-2.25-2.42,5,5,0,0,0-2.92-.93h-.33a7.49,7.49,0,0,0-3,.76,5.7,5.7,0,0,0-2.36,2.22,8.59,8.59,0,0,0-1.06,4,20.63,20.63,0,0,0,.86,6.2A16.14,16.14,0,0,0,55.22,34,17.69,17.69,0,0,0,58,37.61Z"/><path class="cls-1" d="M80.6,22.36a23.32,23.32,0,0,1,2.55-3.22,13.21,13.21,0,0,1,3.15-2.42,16.25,16.25,0,0,1,4-1.56,21.18,21.18,0,0,1,5.17-.57,22.39,22.39,0,0,1,4.88.53,12.76,12.76,0,0,1,4.15,1.7,8.74,8.74,0,0,1,2.85,3,9,9,0,0,1,1.06,4.52V47.1H99.57V43.32a24.36,24.36,0,0,1-4.91,3,12.92,12.92,0,0,1-5.57,1.33,12.49,12.49,0,0,1-3.65-.53,9.16,9.16,0,0,1-3-1.6,7.44,7.44,0,0,1-2.12-2.75,9.37,9.37,0,0,1-.8-4,7.63,7.63,0,0,1,2.26-5.68,16.74,16.74,0,0,1,5.44-3.54,30.69,30.69,0,0,1,6.6-1.93c2.27-.4,4.21-.66,5.8-.79V24.61c0-1,0-2,0-2.92a8.89,8.89,0,0,0-.4-2.49A4.13,4.13,0,0,0,98,17.41a3.75,3.75,0,0,0-2.22-.83,5.88,5.88,0,0,0-2.85.47,7.18,7.18,0,0,0-2.49,1.79,9.68,9.68,0,0,0-1.82,3A14.22,14.22,0,0,0,87.7,26Zm19,5.83a28.3,28.3,0,0,0-3.35.57,12.51,12.51,0,0,0-3.75,1.49,8.93,8.93,0,0,0-3,2.92A8.09,8.09,0,0,0,88.43,38a6.21,6.21,0,0,0,1.62,4.15,4.76,4.76,0,0,0,3.55,1.56,11.26,11.26,0,0,0,2.89-.5,8.54,8.54,0,0,0,3.08-1.56Z"/><path class="cls-1" d="M134.6,42.65a12.54,12.54,0,0,1-4.12,3.72,9.65,9.65,0,0,1-4.64,1.26,7.55,7.55,0,0,1-3.78-.9,8.38,8.38,0,0,1-2.66-2.32,10.32,10.32,0,0,1-1.59-3.28,14.09,14.09,0,0,1-.53-3.85V20.1c0-2.65-1.32-4-4-4h-.93v-.66L125.57,6h.67v9.29h7.82v1.79h-7.82v20.3c0,.57,0,1.25.1,2a9,9,0,0,0,.46,2.22,4.76,4.76,0,0,0,1.06,1.79,2.49,2.49,0,0,0,1.89.73q1.8,0,4.45-2Z"/><path class="cls-1" d="M149.65,38.67a13.26,13.26,0,0,0,3.82,2.39,11.16,11.16,0,0,0,4.34.86,8.8,8.8,0,0,0,5.57-1.69,11.67,11.67,0,0,0,3.52-4.81l.53.4a17.67,17.67,0,0,1-4.84,8.59,12.71,12.71,0,0,1-9,3.15,17.71,17.71,0,0,1-5.38-.83,17.36,17.36,0,0,1-4.87-2.38,16.8,16.8,0,0,1-3.88-3.79,14.35,14.35,0,0,1-2.39-4.94,20.61,20.61,0,0,1-.66-8.52,14.78,14.78,0,0,1,2.52-6.5,13.46,13.46,0,0,1,4.77-4.18,14.78,14.78,0,0,1,6-1.69,5.8,5.8,0,0,0,.7,0l.69,0a16.1,16.1,0,0,1,6.07,1,12.78,12.78,0,0,1,4.35,2.82,13.28,13.28,0,0,1,2.82,4.18,20.19,20.19,0,0,1,1.42,5.17Zm-1.19-1.06a20.05,20.05,0,0,0,5.57-5,12.91,12.91,0,0,0,2.39-5.31,11,11,0,0,0,0-3.88,10,10,0,0,0-1.3-3.38,8.18,8.18,0,0,0-2.25-2.42,5,5,0,0,0-2.92-.93h-.33a7.53,7.53,0,0,0-3,.76,5.7,5.7,0,0,0-2.36,2.22,8.59,8.59,0,0,0-1.06,4,20.63,20.63,0,0,0,.86,6.2,15.82,15.82,0,0,0,1.7,4.11A17.29,17.29,0,0,0,148.46,37.61Z"/><path class="cls-1" d="M172.54,47.1V20.17a7,7,0,0,0-.23-2,2,2,0,0,0-.73-1,3.11,3.11,0,0,0-1.33-.43l-2-.23v-.93L181.5,14.2v7.29a17.76,17.76,0,0,1,2.15-2.55,20.74,20.74,0,0,1,2.82-2.36,15.85,15.85,0,0,1,3.22-1.72,9.31,9.31,0,0,1,3.41-.66A7.63,7.63,0,0,1,197,15.26l-2,10.41q-3.26-5.43-7.3-5.44-3.12,0-6.16,3.32V47.1Z"/></g></g></svg>