<svg xmlns="http://www.w3.org/2000/svg" viewBox="0 0 85.23 46.61"><defs><style>.cls-1{fill:#fefefe;}.cls-2{fill:#fcfcfc;}.cls-3{fill:#f8f9f9;}.cls-4{fill:#fcfdfd;}.cls-5{fill:#f4f5f5;}.cls-6{fill:#6a7f77;}.cls-7{fill:#647b72;}.cls-8{fill:#e6eae8;}.cls-9{fill:#798d85;}.cls-10{fill:#d7dddb;}.cls-11{fill:#6f847c;}.cls-12{fill:#dee3e1;}.cls-13{fill:#466056;}.cls-14{fill:#476157;}.cls-15{fill:#415d52;}.cls-16{fill:#435e53;}.cls-17{fill:#3d594e;}.cls-18{fill:#486258;}.cls-19{fill:#496359;}.cls-20{fill:#566f64;}.cls-21{fill:#60776e;}.cls-22{fill:#61776e;}.cls-23{fill:#61786e;}.cls-24{fill:#637a71;}.cls-25{fill:#4a6459;}.cls-26{fill:#5f776d;}.cls-27{fill:#566e64;}.cls-28{fill:#4a645a;}.cls-29{fill:#687e75;}.cls-30{fill:#466256;}.cls-31{fill:#496459;}.cls-32{fill:#667c73;}.cls-33{fill:#597168;}.cls-34{fill:#687e76;}.cls-35{fill:#466257;}.cls-36{fill:#697f76;}.cls-37{fill:#486257;}.cls-38{fill:#647a71;}.cls-39{fill:#6c8178;}.cls-40{fill:#72877f;}.cls-41{fill:#70857c;}.cls-42{fill:#546c62;}.cls-43{fill:#6b8178;}.cls-44{fill:#506a60;}.cls-45{fill:#4e685e;}.cls-46{fill:#486358;}.cls-47{fill:#536d62;}.cls-48{fill:#445f55;}.cls-49{fill:#455f55;}.cls-50{fill:#466156;}.cls-51{fill:#627970;}.cls-52{fill:#71867e;}.cls-53{fill:#445f53;}.cls-54{fill:#476257;}.cls-55{fill:#677e75;}.cls-56{fill:#597167;}.cls-57{fill:#4f695f;}.cls-58{fill:#546d64;}.cls-59{fill:#456155;}.cls-60{fill:#4c665c;}.cls-61{fill:#3f5b50;}.cls-62{fill:#637a70;}.cls-63{fill:#6b8078;}.cls-64{fill:#405c50;}.cls-65{fill:#446055;}.cls-66{fill:#50695f;}.cls-67{fill:#546d63;}.cls-68{fill:#5a7268;}.cls-69{fill:#556e64;}.cls-70{fill:#445f54;}.cls-71{fill:#fdfdfd;}.cls-72{fill:#425d53;}.cls-73{fill:#425e53;}.cls-74{fill:#fafafa;}</style></defs><g id="Layer_2" data-name="Layer 2"><g id="Layer_1-2" data-name="Layer 1"><path class="cls-1" d="M42.59.05H84c.4,0,1-.21,1.17.15s-.18.9-.45,1.19c-1.8,1.9-2.11,4.15-2,6.66.13,4.86,0,9.73,0,14.59,0,1.06-.07,1.43-1.36,1.13a170.81,170.81,0,0,0-77.15,0c-1,.23-1.21,0-1.2-.95.09-5.44.09-10.89.21-16.33A4.57,4.57,0,0,0,2,3C1.37,2.33.82,1.55.23.8-.15.33-.08,0,.58.05h42Z"/><path class="cls-1" d="M64.05,23.21c.35-.27.62-.62,1.17-.55,3.81.49,7.62,1,11.38,1.74a1.62,1.62,0,0,1,.42.24,4,4,0,0,1-.6,1.94c-.27.49-.76.8-1,1.32-.1.2-.23.38-.32.58-.55,1-1.44,1.84-2,2.87a7.75,7.75,0,0,0-.79.83,3.79,3.79,0,0,0-.79,1,4.78,4.78,0,0,0-1.42,1.61,1,1,0,0,1-.23.24,3.77,3.77,0,0,0-1,.72,17.92,17.92,0,0,0-2.43,1.91,23.48,23.48,0,0,1-3.19,2.11c-.2.1-.4.23-.6.33-1.13.7-2.33,1.27-3.46,1.95-.36.18-.73.33-1.1.48a3.86,3.86,0,0,0-.49.1,3.81,3.81,0,0,0-1,.45,1.85,1.85,0,0,1-.27.19c-.27.09-.52.24-.8.31-.56.19-1.12.39-1.69.56a4.85,4.85,0,0,1-1.25.24c-.59.14-1.2.24-1.78.41a1.76,1.76,0,0,0-.68.14c-.37.19-.78.08-1.16.18s-.49.29-.78.34a3.74,3.74,0,0,1-.74-.09,7.3,7.3,0,0,0-2.18.19c-1.62,0-3.25,0-4.87,0a10.66,10.66,0,0,0-2.52-.24l-.61,0-2.83-.61c-.43-.1-.85-.22-1.27-.33a3.53,3.53,0,0,1-.54-.13,4.7,4.7,0,0,0-2.48-.9c-1.36-.22-2.55-1-3.88-1.27-1.12-.78-2.46-1.16-3.54-2-.26-.13-.41-.39-.68-.49a4.89,4.89,0,0,0-.72-.37,2,2,0,0,0-1.08-.69,7.58,7.58,0,0,1-1.9-1.57,2.67,2.67,0,0,0-1.25-.76,28.29,28.29,0,0,0-3.59-3.75,4.31,4.31,0,0,0-1.27-1.54c-.11-.57-.65-.73-1-1.05a6.12,6.12,0,0,1-.8-1.67,2.08,2.08,0,0,0-.58-1,4,4,0,0,1-.85-2c-.19-.5-.33-.88.47-1,3.59-.67,7.21-1.1,10.83-1.57.45-.06.83,0,1,.51s.57.44.87.65l.29.15a1.83,1.83,0,0,0,.86.42,2.11,2.11,0,0,1,1.06,1.08,1.63,1.63,0,0,0,.46.84,1.47,1.47,0,0,0,1.09.64.9.9,0,0,1,.38.34,3.23,3.23,0,0,0,.38.74,1.52,1.52,0,0,0,.76.56c.43.1.75.45,1.18.57a9.35,9.35,0,0,1,.86.52,3.94,3.94,0,0,0,1.46.77c.71.3,1.23,1,2.11.95.44.14.86.34,1.3.48a8.37,8.37,0,0,0,1.62.48,4.82,4.82,0,0,0,1.2,0,1,1,0,0,1,.55.06,4.33,4.33,0,0,0,2.68.74,14,14,0,0,0,4.75.05l.37-.08A5.51,5.51,0,0,0,47,32.85a5.93,5.93,0,0,0,1.24-.25,4.57,4.57,0,0,0,1.21-.25c.35-.06.68-.21,1-.29a10.22,10.22,0,0,0,2.18-.68,5.58,5.58,0,0,1,1-.31,2.43,2.43,0,0,0,1.43-.7c.21-.07.38-.2.58-.28.36-.21.8-.3,1.05-.66a2.62,2.62,0,0,1,.6-.55c.29-.14.53-.37.83-.5a1.18,1.18,0,0,0,.65-.34c.09-.12.16-.26.24-.39a1.1,1.1,0,0,1,.22-.21,1,1,0,0,1,.28-.1.82.82,0,0,0,.56-.41c.07-.14.11-.29.18-.43a1,1,0,0,1,.33-.36,1.35,1.35,0,0,0,.61-.52.72.72,0,0,1,.24-.22,1.39,1.39,0,0,0,.78-.76.73.73,0,0,1,.22-.24,3.14,3.14,0,0,0,.66-.49C63.45,23.71,63.71,23.41,64.05,23.21Z"/><path class="cls-2" d="M60.8,26.6l-.16.1a4.15,4.15,0,0,1-1.35,1l0,0a4.44,4.44,0,0,1-.89.73c-.52.06-.83.49-1.26.7-.27.19-.47.46-.75.63s-.56.35-.87.46c-.63.12-1,.7-1.66.83-.43,0-.76.29-1.14.41-.95.38-1.94.63-2.91,1a7.67,7.67,0,0,0-1.05.26,2.79,2.79,0,0,0-1.06.25,5,5,0,0,0-1.48.25c-.26,0-.53,0-.79,0a2.9,2.9,0,0,1-.83.09h-3.7c-.35,0-.69-.14-1-.13s-1-.1-1.43-.22a1.89,1.89,0,0,1-1-.28h-.32a.92.92,0,0,1-.33-.06c-.61-.17-1.23-.3-1.85-.45s-1.1-.44-1.68-.55a23.88,23.88,0,0,1-2.26-1,6.27,6.27,0,0,0-1.69-.81,2.28,2.28,0,0,0-.84-.52,3.89,3.89,0,0,0-1.57-.89c-.31-.32-.57-.67-.9-1l-.17-.23c-.57,0-.79-.55-1.17-.85s-.46-.46-.72-.66a3.19,3.19,0,0,0-.92-1l-.68-.65c-.44-.23-.44-.7-.59-1.08s-.5-.76.17-.86a35.63,35.63,0,0,1,7-.48,13.15,13.15,0,0,1-3.43,1.94c-1,.47-1,.88-.22,1.56A25.47,25.47,0,0,0,42,32a25.3,25.3,0,0,0,18.05-6.62c1.14-1,1.11-1-.2-1.7L56.57,22c.15-.46.48-.38.73-.37a56.82,56.82,0,0,1,6,.54c.54.07.92.2.56.85a3.17,3.17,0,0,1-.63,1.06c-.21.23-.44.45-.66.67l0,0c-.34.34-.68.69-1,1l0,0A4.13,4.13,0,0,0,60.8,26.6Z"/><path class="cls-3" d="M52.3,45.41a11.6,11.6,0,0,1-2.68.55c-.5.24-1.07-.08-1.57.21l-.66,0c-1,.28-2.08-.14-3.08.23h0a9,9,0,0,1-2.83,0,36.92,36.92,0,0,1-16.9-4.23,40.58,40.58,0,0,1-16.87-16A.94.94,0,0,1,7.61,26c-.11-.56-1-1.16-.38-1.6.9-.58.86.7,1.34,1a14.91,14.91,0,0,1,1.76,2.28,6.4,6.4,0,0,0,1.3,2.13,7.47,7.47,0,0,1,.84,1c.33.59,1,.91,1.29,1.51a42.75,42.75,0,0,0,3.58,3.67c1.18.65,1.93,1.87,3.22,2.38.31.11.51.4.79.56a3.45,3.45,0,0,0,.83.48A2.37,2.37,0,0,0,23,40c.91.83,2.16,1.09,3.14,1.8,1.49.49,2.86,1.33,4.46,1.52a27.77,27.77,0,0,0,2.79.95c.25.05.49.13.74.17a13.53,13.53,0,0,0,2.44.49,5.56,5.56,0,0,0,1.94.24c.34.09.68.11,1,.17a24.31,24.31,0,0,0,6.6,0A3.73,3.73,0,0,1,47,45.3a9,9,0,0,0,1.37,0,1.4,1.4,0,0,1,.72-.21,7.69,7.69,0,0,0,2.37-.48A9.54,9.54,0,0,0,53,44.21a3.66,3.66,0,0,0,1-.27c.5-.15,1-.33,1.48-.5s.76-.28,1.14-.39c.64-.37,1.39-.47,2-.83.21-.08.41-.2.62-.3a1.65,1.65,0,0,1,.84-.22.69.69,0,0,1,.49.5c-1.75,1.23-3.81,1.74-5.77,2.49A22.28,22.28,0,0,0,52.3,45.41Z"/><path class="cls-4" d="M38.11,24.92c1.44-.5,2.66.18,3.35-.53a7.32,7.32,0,0,0,1-2.58c.15.08.26.1.27.14.38,2.19,1.49,3.37,3.85,2.63.09.51-.21.59-.38.73-1.78,1.41-1.78,1.41-1.2,3.55a.93.93,0,0,1,0,.91c-1.55-1.92-3.21-2.05-5,0C41.09,27.52,40.91,25.84,38.11,24.92Z"/><path class="cls-5" d="M60.61,42.2l-.56-.28c-.12-.38.13-.52.42-.63A15.68,15.68,0,0,0,62.83,40c.2-.12.43-.2.62-.34a25.49,25.49,0,0,0,5.25-4,4.49,4.49,0,0,0,1.12-1l0,0A5.4,5.4,0,0,0,71.42,33a2.32,2.32,0,0,1,.49-.67c.39-.32.71-.71,1.07-1a25,25,0,0,0,1.82-2.41,3.66,3.66,0,0,1,.47-.87,11.16,11.16,0,0,0,.85-1.19c.45-.49.58-1.21,1.17-1.6.13-.58.57-1,1.06-.73.65.32.05.8-.13,1.13A39.76,39.76,0,0,1,62.48,41.39C61.9,41.72,61.38,42.29,60.61,42.2Z"/><path class="cls-6" d="M10,28a8.45,8.45,0,0,1-1.47-2.51c.25.1.42.06.47-.24L10.22,27c.21.09.23.27.26.46A.59.59,0,0,1,10,28Z"/><path class="cls-7" d="M77.29,25.21a4.29,4.29,0,0,1-1,1.8c-.25-.11-.43-.26-.29-.57l1-1.8Z"/><path class="cls-8" d="M52.3,45.41a4.1,4.1,0,0,1,2.54-.72A8.3,8.3,0,0,1,52.3,45.41Z"/><path class="cls-9" d="M63,24a1.44,1.44,0,0,1,.79-1l.22.21c.07.59-.37.75-.79.94A.32.32,0,0,1,63,24Z"/><path class="cls-8" d="M44.31,46.44c1-.49,2-.22,3.08-.23A7.46,7.46,0,0,1,44.31,46.44Z"/><path class="cls-10" d="M41.5,46.45a10.73,10.73,0,0,1,2.83,0A6.29,6.29,0,0,1,41.5,46.45Z"/><path class="cls-11" d="M21.79,23a2.36,2.36,0,0,1,.8.86c.16.31,0,.35-.27.36l-.18,0c-.27-.28-.69-.47-.59-1Z"/><path class="cls-2" d="M21.55,23.22l.59,1a1.1,1.1,0,0,1-.81-1.06A.43.43,0,0,1,21.55,23.22Z"/><path class="cls-12" d="M48.05,46.17A2,2,0,0,1,49.62,46,3.12,3.12,0,0,1,48.05,46.17Z"/><path class="cls-13" d="M13.94,11.39c0,2,0,3.91,0,5.86a2.31,2.31,0,0,1-2.12,2.63c-1.5.34-3,.63-4.53.89s-2-.21-2.06-1.68c0-4.45,0-8.9,0-13.35,0-1.56.53-2.09,2.1-2.14s3-.05,4.5,0c1.69,0,2.14.53,2.15,2.19,0,1.87,0,3.74,0,5.61Z"/><path class="cls-13" d="M79.37,9.65c0,1.38,0,2.75,0,4.12,0,.78-.17,1.43-1.19,1.33-.69-.06-.49.36-.38.72.45,1.47.88,2.95,1.37,4.41.24.74,0,.88-.69.74-1.09-.2-2.06-.35-2.27-1.81a29.34,29.34,0,0,0-1.1-3.69c-.17-.62-.48-1-1.12-.91s-.43.7-.44,1.08c0,1.12,0,2.24,0,3.36,0,.62,0,1-.88.83-2.21-.4-1.92-.09-1.94-2.28,0-4.23,0-8.47-.13-12.7,0-.93.17-1.35,1.22-1.3,1.83.09,3.66,0,5.49,0,1.49,0,2,.58,2,2.08,0,1.32,0,2.65,0,4Z"/><path class="cls-13" d="M68.27,11.35v5.47c0,1.7-.43,2.13-2.06,2s-3.14-.35-4.7-.57-2-.84-2-2.35c0-3.35-.07-6.71-.07-10.07,0-1.79.41-2.18,2.22-2.21,1.41,0,2.82,0,4.24,0,1.85,0,2.3.47,2.31,2.28s0,3.65,0,5.48Z"/><path class="cls-13" d="M37,10.41c0-1.91,0-3.82,0-5.73,0-.78.2-1.13,1-1.11,1.91,0,3.83,0,5.74,0,1.51,0,1.9.46,1.91,2q0,4.74,0,9.47c0,1.61-.49,2.08-2.09,2.12-1.83,0-3.66,0-5.49.08C37.16,17.3,37,16.89,37,16c.06-1.87,0-3.74,0-5.61Z"/><path class="cls-13" d="M50.3,17.23c-1.72-.08-2.07-.42-2.07-2.06,0-3.31,0-6.63,0-9.95a1.36,1.36,0,0,1,1.36-1.58,39.66,39.66,0,0,1,5.87,0A1.59,1.59,0,0,1,57,5.37c0,3.57,0,7.15,0,10.72a1.35,1.35,0,0,1-1.45,1.52,29.9,29.9,0,0,1-5.09-.35c.1-.17.27-.14.43-.16C50.71,17.12,50.48,17.06,50.3,17.23Z"/><path class="cls-13" d="M16.51,6.49a12.14,12.14,0,0,0-.07-1.36c-.2-1.26.28-1.66,1.56-1.59,1,0,1.36.27,1.34,1.32-.07,3.48,0,7,0,10.46,0,.7-.15,1.45,1,1.43,1.58,0,1.93-.26,2-1.53s0-2.65,0-4a50.34,50.34,0,0,0,.05-7.47s.05-.08.09-.09c2.76-.47,2.82-.42,2.82,2.3,0,3.19,0,6.39,0,9.58,0,1.87-.52,2.45-2.37,2.69-1.6.21-3.21.46-4.82.55-1.4.09-1.7-.34-1.56-1.81C16.58,13.49,16.56,10,16.51,6.49Z"/><path class="cls-14" d="M29.56,11.37c0-1.62,0-3.24,0-4.86,0-.8-.21-1.14-1.05-1.08-.34,0-1,.26-.93-.41s.07-1.39.93-1.41c1.74,0,3.5,0,5.24,0,.91,0,.86.87.92,1.4s-.62.47-.94.44c-1.11-.14-1.2.45-1.19,1.33,0,3.2-.07,6.4,0,9.59,0,1.76-1.22,1-2,1.21-1,.22-1.05-.46-1-1.2C29.57,14.7,29.56,13,29.56,11.37Z"/><path class="cls-15" d="M16.51,6.49a39.27,39.27,0,0,1,0,10.5C16.36,13.49,16.35,10,16.51,6.49Z"/><path class="cls-16" d="M22.36,3.77a19.36,19.36,0,0,1-.05,7.47A66.49,66.49,0,0,1,22.36,3.77Z"/><path class="cls-17" d="M50.3,17.23a1.55,1.55,0,0,1,1.52-.08l-1.32.11-.1,0Z"/><path class="cls-14" d="M41,39.49c.1-1,.22-1.63.23-2.29s-.05-1.09.88-1,.82.6.74,1.23c-.18,1.47-.31,3-.49,4.44,0,.34.28,1-.42,1-.52,0-1.12.22-1.47-.55-.51-1.12-1.18-2.17-1.88-3.43a7.44,7.44,0,0,0-.49,3c0,.81-.57.56-1,.54s-.81,0-.71-.71c.24-1.63.36-3.29.59-4.93,0-.31-.32-1,.4-.92s1.53-.34,1.94.64A13.46,13.46,0,0,0,41,39.49Z"/><path class="cls-14" d="M65.75,34a1.54,1.54,0,0,1-1.12-.46c-.77-.75-1.53-1.51-2.27-2.28a1.65,1.65,0,0,1,0-2.44,11.75,11.75,0,0,1,1.31-1.33,1.89,1.89,0,0,1,2.78,0c.43.39.83.81,1.24,1.22s.69,1,1.41.35c.36-.31.78.05,1.06.37a.56.56,0,0,1-.14.87c-1.2.78-1.77,2.14-2.88,3A2.14,2.14,0,0,1,65.75,34Z"/><path class="cls-14" d="M55.46,33.42c.37.06.33.54.52.82.38.59.35,1.54,1.62.92s.82-1.3.32-2-.49-.95.29-1.29c.57-.24.82-.25,1.11.38.67,1.47,1.42,2.9,2.22,4.31.35.61.3.88-.33,1.22s-.84.2-1.17-.41-.21-1.58-1.35-1.13-1.36.69-.57,1.89c.57.87.26,1.18-.5,1.53-.46.22-.61.09-.83-.33-.8-1.59-1.67-3.15-2.52-4.71C54.05,34.19,54.77,33.4,55.46,33.42Z"/><path class="cls-18" d="M50.75,37a10.33,10.33,0,0,0-2.57.1c-.75.14-1,.52-.8,1.23.14.56.26,1.13.4,1.69a.83.83,0,0,0,1.12.66c.58-.11,1.1-.28.89-1-.25-.91.52-.63.9-.77.64-.24.61.21.68.65.34,1.87.1,2.25-1.79,2.57a12.32,12.32,0,0,1-1.49.14,1.53,1.53,0,0,1-1.8-1.45c-.15-1-.35-2-.51-3.06a1.51,1.51,0,0,1,1.3-1.92c.48-.1,1-.22,1.45-.31C50.14,35.21,50.14,35.22,50.75,37Z"/><path class="cls-18" d="M27.78,36.38a14,14,0,0,0,1.82-2c.77-1.23,1.47-.8,2.35-.13a33,33,0,0,0-4.25,4.54c-.4.51-.75.27-1.05.05s-1.27-.19-1.08-1.09a33.67,33.67,0,0,0,1.1-5.71c0-.34.26-.48.49-.29.39.31,1.27.17,1.07,1.07-.24,1.13-.47,2.26-.71,3.38Z"/><path class="cls-18" d="M19.61,24.9,21,26.32a36.82,36.82,0,0,0-3.36,3c-.47.4-.58.72-.08,1.2a10.75,10.75,0,0,0,2.12,1.82c-.72.87-1.35,1.1-2.13.07s-2.27-1.67-2.23-2.7,1.59-1.76,2.44-2.65A8.14,8.14,0,0,0,19.61,24.9Z"/><path class="cls-19" d="M32.85,41.34c-1-.06-1.27-.46-1-1.4.5-1.58,1-3.15,1.41-4.76.2-.83.65-.46,1-.35s.94,0,.64.83c-.61,1.71-1.08,3.47-1.57,5.22C33.27,41.18,33.28,41.46,32.85,41.34Z"/><path class="cls-19" d="M21.42,35.67a6.9,6.9,0,0,1-1-.85c-.35-.43.22-.52.39-.74,1-1.37,2.13-2.67,3.08-4.08.4-.6.66-.37.92-.07s1.07.34.45,1.09c-1.17,1.4-2.25,2.87-3.37,4.32C21.79,35.49,21.79,35.75,21.42,35.67Z"/><path class="cls-20" d="M68.84,35.77a18.35,18.35,0,0,1-5.32,4.15c-.33.06-.46-.1-.46-.41,2.07-1.15,3.76-2.84,5.72-4.14A.29.29,0,0,1,68.84,35.77Z"/><path class="cls-21" d="M17.28,36.26a16,16,0,0,1-3.76-3.81c.11-.11.13-.3.32-.34,1.13,1.27,2.58,2.26,3.49,3.74A.31.31,0,0,1,17.28,36.26Z"/><path class="cls-7" d="M30.52,43.74A16.74,16.74,0,0,1,26,42c0-.18.19-.21.32-.28,1-.09,1.74.67,2.65.9a3.82,3.82,0,0,0,1.29.36.77.77,0,0,1,.43.5A.41.41,0,0,1,30.52,43.74Z"/><path class="cls-22" d="M63,40.17a12.22,12.22,0,0,1-3,1.75l-.74.27c-.24-.09-.36-.24-.25-.51l3.52-1.89C62.78,39.86,63,39.93,63,40.17Z"/><path class="cls-23" d="M44.8,33l.75,0a.46.46,0,0,1,.15.27.6.6,0,0,1-.13.28h0a28,28,0,0,1-5.42,0c-.94-.09-2,.16-2.68-.77l1.07,0c.44.25,1,0,1.39.22l.86,0A14.48,14.48,0,0,0,44.8,33Z"/><path class="cls-24" d="M17.28,36.26l0-.41c1.37.39,2,1.73,3.22,2.36a.38.38,0,0,1,0,.55A11,11,0,0,1,17.28,36.26Z"/><path class="cls-21" d="M26.3,41.69,26,42a12.15,12.15,0,0,1-3.2-1.7.44.44,0,0,1,0-.59A21.3,21.3,0,0,1,26.3,41.69Z"/><path class="cls-25" d="M51.54,44.85a4.16,4.16,0,0,1-2.49.5c-.24-.15-.54,0-.78-.19a.75.75,0,0,1,.53-.48c.4-.3.9,0,1.3-.23h.73C51.19,44.36,51.51,44.36,51.54,44.85Z"/><path class="cls-26" d="M75.06,29a9,9,0,0,1-2,2.55.49.49,0,0,1-.36-.35l2.08-2.92C75.11,28.41,75,28.7,75.06,29Z"/><path class="cls-27" d="M40.37,45.14h5.12a.3.3,0,0,1,.35,0,.53.53,0,0,1,.11.36.38.38,0,0,1-.22.29,1.31,1.31,0,0,1-.59-.06,39.21,39.21,0,0,0-4.47,0,1.81,1.81,0,0,1-.8,0,.39.39,0,0,1-.21-.31.52.52,0,0,1,.14-.35A.71.71,0,0,1,40.37,45.14Z"/><path class="cls-28" d="M31.09,30.42a7.19,7.19,0,0,1,2.24,1c.06.27,0,.39-.3.32-.92.06-1.53-.59-2.24-1C30.74,30.48,30.82,30.36,31.09,30.42Z"/><path class="cls-29" d="M49.75,32.17l3-1a.41.41,0,0,1,0,.57,5.66,5.66,0,0,1-2.25.75C50.31,32.31,49.92,32.54,49.75,32.17Z"/><path class="cls-30" d="M30.52,43.74l0-.33c.89-.49,1.52.26,2.26.48l.5.08a.44.44,0,0,1,0,.66A12.87,12.87,0,0,1,30.52,43.74Z"/><path class="cls-31" d="M36.54,45.2A6.59,6.59,0,0,1,34,44.7c.07-.29.39-.3.56-.48l2.85.66C37.21,45.24,36.85,45.14,36.54,45.2Z"/><path class="cls-32" d="M71.67,33c-.38.84-.8,1.63-1.88,1.71.07-.92.91-1.23,1.44-1.78A.35.35,0,0,1,71.67,33Z"/><path class="cls-33" d="M10,28l.31-.53c.42-.08.23.4.45.5l.79,1.66a.4.4,0,0,1-.09.46A6.91,6.91,0,0,1,10,28Z"/><path class="cls-33" d="M58.78,42.42l-2,1c-.16-.19-.5-.19-.56-.5a1.42,1.42,0,0,1,.08-.18,5.47,5.47,0,0,1,1.29-.5l.45,0A.57.57,0,0,1,58.78,42.42Z"/><path class="cls-32" d="M40.16,33.46h5.42A15.19,15.19,0,0,1,40.16,33.46Z"/><path class="cls-34" d="M13.84,32.11l-.32.34A3.21,3.21,0,0,1,12.25,31c-.05-.32.07-.46.4-.38A5.56,5.56,0,0,1,13.84,32.11Z"/><path class="cls-35" d="M51.54,44.85l-.71-.41L52.56,44c.16.15.39.23.48.46C52.55,44.59,52.15,45.09,51.54,44.85Z"/><path class="cls-3" d="M32.8,43.89c-.83.19-1.4-.83-2.26-.48l-.3-.46A3.14,3.14,0,0,1,32.8,43.89Z"/><path class="cls-36" d="M54,30.88c.26-.73,1-.76,1.55-1a.55.55,0,0,1,.38.3.24.24,0,0,1-.11.28l-.48.31a4,4,0,0,1-.86.4C54.22,31.17,54,31.16,54,30.88Z"/><path class="cls-37" d="M36.54,45.2l.86-.32.4,0c.6.43,1.39-.17,2,.36l0,.16a1.8,1.8,0,0,1-1.33,0A4.86,4.86,0,0,1,36.54,45.2Z"/><path class="cls-38" d="M76.05,26.44l.29.57a2.56,2.56,0,0,1-.79,1.15.82.82,0,0,1-.44-.44A2.79,2.79,0,0,1,76.05,26.44Z"/><path class="cls-39" d="M35.05,32a4.11,4.11,0,0,1,1.94.52c-.24.37-.68,0-1,.25a4.52,4.52,0,0,1-1.76-.51C34.45,31.87,34.82,32.1,35.05,32Z"/><path class="cls-40" d="M31.09,30.42l-.3.3A2.6,2.6,0,0,1,29.3,30c-.07-.07-.09-.14-.06-.2s.06-.09.09-.09A2.06,2.06,0,0,1,31.09,30.42Z"/><path class="cls-41" d="M27.05,28.22c.76-.12,1.14.39,1.52.91a.25.25,0,0,1,0,.37c-.52.09-.7-.47-1.12-.58s-.54-.19-.47-.57Z"/><path class="cls-28" d="M35.05,32l-.77.26a2.59,2.59,0,0,1-1.25-.5l.3-.32A5.51,5.51,0,0,1,35.05,32Z"/><path class="cls-42" d="M45.81,45.44v-.18c.59-.52,1.38.05,2-.34.25-.1.34.11.47.24a.52.52,0,0,1,.78.19l-.74.1a3.82,3.82,0,0,1-1.26.1C46.64,45.48,46.2,45.71,45.81,45.44Z"/><path class="cls-18" d="M55.56,43.63a3,3,0,0,1-1.51.5c-.22-.07-.36-.19-.24-.44a6.2,6.2,0,0,1,1.75-.52A.3.3,0,0,1,55.56,43.63Z"/><path class="cls-43" d="M54,30.88l.4.1c0,.45-.42.29-.62.45l-.93.28,0-.57C53.15,30.94,53.47,30.5,54,30.88Z"/><path class="cls-7" d="M12.65,30.66l-.4.38a2.33,2.33,0,0,1-.75-1l.09-.46C12.23,29.67,12.37,30.24,12.65,30.66Z"/><path class="cls-44" d="M46.22,32.9a3,3,0,0,1,1.5-.24c.33-.13.5.05.63.31a2,2,0,0,1-1.26.25.37.37,0,0,1-.32.06C46.56,33.2,46.3,33.17,46.22,32.9Z"/><path class="cls-45" d="M24.8,26.2l1.07,1c-.63.23-.72.17-1.23-.78A.32.32,0,0,1,24.8,26.2Z"/><path class="cls-46" d="M34.55,44.22a.71.71,0,0,1-.56.48l-.69-.07V44Z"/><path class="cls-47" d="M48.35,33l-.63-.31a1.63,1.63,0,0,1,1-.24.59.59,0,0,1,.85.3A1.72,1.72,0,0,1,48.35,33Z"/><path class="cls-48" d="M53.81,43.69l.24.44a1.23,1.23,0,0,1-1,.29.6.6,0,0,1-.48-.46C53,43.83,53.43,44,53.81,43.69Z"/><path class="cls-49" d="M72.74,31.16l.36.35-1,1a.42.42,0,0,1,0-.59A1.66,1.66,0,0,1,72.74,31.16Z"/><path class="cls-50" d="M20.51,38.76l0-.55c.57-.09.68.51,1.06.7a.44.44,0,0,1-.33.36Z"/><path class="cls-51" d="M49.6,32.72l-.85-.3a1.58,1.58,0,0,1,1-.25l.81.29A1.57,1.57,0,0,1,49.6,32.72Z"/><path class="cls-52" d="M57,28.94c.4-.25.63-.78,1.21-.75a.29.29,0,0,1,.33,0c.13.28,0,.46-.25.58s-.38.53-.78.44C57.37,29.09,57.13,29.18,57,28.94Z"/><path class="cls-53" d="M55.56,43.63v-.46c.21-.14.39-.33.68-.28s.49.2.56.5Z"/><path class="cls-54" d="M75.11,27.72a.54.54,0,0,1,.44.44l-.49.8-.24-.72Z"/><path class="cls-55" d="M39.77,45.26c-.65-.15-1.37.1-2-.36a9.62,9.62,0,0,1,2.57.24Z"/><path class="cls-56" d="M68.84,35.77l-.06-.4c.24-.39.48-.78,1-.69C69.91,35.41,69.4,35.62,68.84,35.77Z"/><path class="cls-41" d="M61.54,25.73a1.06,1.06,0,0,1,1-1C62.55,25.37,62.25,25.75,61.54,25.73Z"/><path class="cls-57" d="M57,28.94l.51.24-.49.5a.53.53,0,0,1-.5.18c-.19-.07-.32-.18-.25-.41Z"/><path class="cls-58" d="M59.29,27.73a1.22,1.22,0,0,1,1.35-1l-.11.44a1.58,1.58,0,0,1-1,.65Z"/><path class="cls-59" d="M58.78,42.42l-.72-.24,1-.5.25.51C59.2,42.42,59,42.36,58.78,42.42Z"/><path class="cls-29" d="M47.8,44.92c-.61.43-1.34.18-2,.34l-.32-.12A7.5,7.5,0,0,1,47.8,44.92Z"/><path class="cls-60" d="M26,27.44a.88.88,0,0,1,1,.78v0c-.27.17-.53.32-.73-.08A.82.82,0,0,1,26,27.44Z"/><path class="cls-61" d="M22.8,39.68l0,.59a1.17,1.17,0,0,1-.77-.53c-.13-.3,0-.42.29-.5S22.61,39.56,22.8,39.68Z"/><path class="cls-62" d="M22.3,39.24l-.29.5a.87.87,0,0,1-.73-.47l.33-.36Z"/><path class="cls-63" d="M72.06,31.94v.59a.56.56,0,0,1-.4.46l-.44-.07A2.71,2.71,0,0,1,72.06,31.94Z"/><path class="cls-2" d="M58.32,28.74l.3-.48c.18-.28.42-.25.66-.11C59.07,28.52,58.92,29,58.32,28.74Z"/><path class="cls-2" d="M53.74,31.43l.62-.45.94-.23A1.77,1.77,0,0,1,53.74,31.43Z"/><path class="cls-64" d="M63,40.17l-.45-.38.48-.28.46.41C63.45,40.19,63.2,40.1,63,40.17Z"/><path class="cls-60" d="M28.53,29.5l0-.37c.32.08.7.08.76.53l0,.29C29,29.93,28.77,29.67,28.53,29.5Z"/><path class="cls-65" d="M36,32.72c.25-.31.62-.2,1-.25l.17.23C36.8,33.2,36.41,32.81,36,32.72Z"/><path class="cls-2" d="M26.33,28.11l.73.08c-.1.35.16.53.35.73A1.08,1.08,0,0,1,26.33,28.11Z"/><path class="cls-66" d="M59.28,28.15l-.66.11-.38-.07a1.06,1.06,0,0,1,1.09-.49Z"/><path class="cls-67" d="M24.8,26.2l-.16.23c-.47,0-.56-.38-.66-.73C24.34,25.73,24.67,25.81,24.8,26.2Z"/><path class="cls-68" d="M60.8,26.6a.78.78,0,0,1,.77-.9C61.69,26.32,61.17,26.4,60.8,26.6Z"/><path class="cls-2" d="M56.64,29.75l.41-.07a1.26,1.26,0,0,1-1.27.76,1,1,0,0,0,.08-.21C56,29.81,56.33,29.83,56.64,29.75Z"/><path class="cls-69" d="M63,24l.22.19a.65.65,0,0,1-.72.58A.89.89,0,0,1,63,24Z"/><path class="cls-32" d="M46.73,33.13l.36.09a3,3,0,0,1-1.52.26c0-.09,0-.17,0-.25C45.92,32.92,46.33,33.11,46.73,33.13Z"/><path class="cls-8" d="M57.61,42.21a2.45,2.45,0,0,1-1.29.5A1.38,1.38,0,0,1,57.61,42.21Z"/><path class="cls-24" d="M22.32,24.21l.27-.36a1,1,0,0,1,.47.87A.77.77,0,0,1,22.32,24.21Z"/><path class="cls-2" d="M59.57,27.79l1-.65C60.33,27.53,60.17,28,59.57,27.79Z"/><path class="cls-3" d="M10.8,27.94l-.45-.5L10.22,27A.92.92,0,0,1,10.8,27.94Z"/><path class="cls-8" d="M50.1,44.45a2,2,0,0,1-1.3.23A1.66,1.66,0,0,1,50.1,44.45Z"/><path class="cls-32" d="M44.8,33a7.16,7.16,0,0,1-4,0Z"/><path class="cls-29" d="M56.64,29.75a1,1,0,0,1-.78.48l-.35-.37a1.35,1.35,0,0,1,.79-.41Z"/><path class="cls-32" d="M39.94,32.93a2.17,2.17,0,0,1-1.39-.22A2.87,2.87,0,0,1,39.94,32.93Z"/><path class="cls-70" d="M46.73,33.13l-1.18.1v-.3l.67,0Z"/><path class="cls-10" d="M45.29,45.64h.51a.36.36,0,0,1,.51.06,19.71,19.71,0,0,1-7,0,.39.39,0,0,1,.52-.07h.75A24.12,24.12,0,0,1,45.29,45.64Z"/><path class="cls-55" d="M39.81,45.63l-.52.07-.82-.23,1.33,0C39.8,45.49,39.81,45.56,39.81,45.63Z"/><path class="cls-29" d="M46.31,45.7l-.51-.06c0-.07,0-.13,0-.2l1.33,0v.13l-.12,0Z"/><path class="cls-12" d="M47,45.65l.13-.17,1.17,0A1.7,1.7,0,0,1,47,45.65Z"/><path class="cls-71" d="M8,12c0-1.66,0-3.32,0-5C8,5.6,9,5.82,9.82,5.71s1.3.33,1.29,1.19c0,3.41,0,6.81-.09,10.21,0,1.42-1.34.95-2.13,1.1S8,17.68,8,17.06V12Z"/><path class="cls-71" d="M73.52,9.06c0-.49,0-1,0-1.49,0-2,.13-2.13,2.19-1.83.54.08.86.28.87.84,0,1.78,0,3.56,0,5.35,0,.61-.35.85-1,.87-2,.07-2.12-.07-2.12-2V9.06Z"/><path class="cls-2" d="M62.3,10.93c0-1.45,0-2.9,0-4.36-.05-1.14.66-1.15,1.46-1.14s1.62-.12,1.61,1.13c0,3,0,6,.06,9,0,.7-.13,1.33-1,1.17s-2.09.31-2.07-1.28,0-3,0-4.49Z"/><path class="cls-15" d="M65.75,6.24v4h-.11v-4Z"/><path class="cls-72" d="M61.84,9.21V6.3H62v3Z"/><path class="cls-71" d="M39.83,10.36c0-1.41,0-2.83,0-4.24,0-.7.21-.93.93-.93,2.11,0,2.18,0,2.17,2.13,0,2.28-.06,4.57,0,6.86.06,1.52-.89,1.33-1.88,1.41s-1.33-.38-1.27-1.36c.08-1.29,0-2.58,0-3.87Z"/><path class="cls-15" d="M40.62,15.79h1.44v.12H40.52Z"/><path class="cls-71" d="M54.08,10.7c0,1.33,0,2.66,0,4,0,.76-.24,1.25-1.08,1.11s-1.94.38-1.95-1.06c0-2.83,0-5.66,0-8.49,0-1,.66-1,1.37-1S54,5,54.06,6.21c0,1.5,0,3,0,4.49Z"/><path class="cls-73" d="M56.59,16V7.3h.12V16Z"/><path class="cls-73" d="M18.85,12V4.25H19V12Z"/><path class="cls-74" d="M66.39,30.81c.15.42,1.08-.21.75.56-.25.59-.84,1.18-1.59.82a4.81,4.81,0,0,1-1.95-1.87c-.36-.61.14-1.09.57-1.49s1-.59,1.43-.11S67.32,29.72,66.39,30.81Z"/><path class="cls-54" d="M45.29,45.64a24.92,24.92,0,0,1-4.73,0A11.42,11.42,0,0,1,45.29,45.64Z"/></g></g></svg>