<svg xmlns="http://www.w3.org/2000/svg" viewBox="0 0 198.3 63.46"><g id="Layer_2" data-name="Layer 2"><g id="Layer_1-2" data-name="Layer 1"><path d="M33.57,0a.15.15,0,0,1,0,.07.79.79,0,0,1-.8.06.09.09,0,0,1,0-.13Z"/><path d="M.15,51.68,0,51.59v-.5s.08,0,.12,0S.29,51.48.15,51.68Z"/><path d="M32.75,0s0,.05,0,.07a.15.15,0,0,1-.24,0V0Z"/><path d="M.09,51.1H0V51l.16-.09C.22,51,.22,51.08.09,51.1Z"/><path d="M45.61,63.37l.24,0s0,0,0,0,0,0,0,0h-.25Z"/><path d="M45.86,63.46v-.07c.1,0,.19,0,.26.07Z"/><path d="M46.93,63.46a.22.22,0,0,1,.26-.08s0,0,0,0,0,0,0,0Z"/><path d="M47.18,63.46a.22.22,0,0,1,0-.08h.16a.22.22,0,0,1,0,.08Z"/><path d="M.09,51.1a.18.18,0,0,0,.07-.18,3,3,0,0,1,.88-1,17.86,17.86,0,0,1,2.48-1.61,39.91,39.91,0,0,1,4.54-2.13,2.62,2.62,0,0,0,1.56-1.5c2.29-5.15,4.71-10.24,7.37-15.21,2.58-4.82,5.39-9.5,8.3-14.12,2-3.2,3.91-6.45,5.66-9.8a26.19,26.19,0,0,0,1.24-2.69q0-.1.09-.24c-.18-.14-.34,0-.5,0A19.24,19.24,0,0,0,28.9,3.94,26.82,26.82,0,0,0,20,11.84a16.25,16.25,0,0,0-2,3.64,8.08,8.08,0,0,1-.37.79.61.61,0,0,1-.69.32.62.62,0,0,1-.57-.45,1.93,1.93,0,0,1-.05-.86,8.91,8.91,0,0,1,1-3.29,22.68,22.68,0,0,1,3.91-5.32,25.54,25.54,0,0,1,7.42-5.48A11.71,11.71,0,0,1,32.5.07h1.08a1.79,1.79,0,0,1,1.39,1,4.47,4.47,0,0,1,.12,4c-.48,1.18-1,2.34-1.56,3.49C32,11.83,30.11,15,28.25,18.14,26,22,23.6,25.79,21.38,29.67a106.9,106.9,0,0,0-5.17,10c-.57,1.32-1.13,2.65-1.63,4-.05.12-.09.25-.14.41a11.77,11.77,0,0,0,1.84-.32c2.75-.67,5.53-1.21,8.32-1.68,2.39-.41,4.8-.76,7.21-1a46.43,46.43,0,0,1,5.27-.31,3.58,3.58,0,0,1,1,.08,1.68,1.68,0,0,1,.32.09c.35.14.68.3.71.75a1,1,0,0,1-.66,1,9.13,9.13,0,0,1-1.69.51,23.05,23.05,0,0,1-2.5.3,37.05,37.05,0,0,0-3.77.63c-2.94.59-5.86,1.21-8.78,1.88-2.67.62-5.32,1.32-8,2.07-.29.09-.57.21-.85.3a1.68,1.68,0,0,0-1,.92c-.25.51-.47,1-.67,1.55a11.74,11.74,0,0,1-1.67,3,2.89,2.89,0,0,1-.6.61,1.26,1.26,0,0,1-1.53,0,.8.8,0,0,1-.31-.69,18.33,18.33,0,0,1,.2-2,4.78,4.78,0,0,1,.3-1.24A.82.82,0,0,0,7.65,50a2,2,0,0,0-.9.21c-1,.37-1.88.77-2.83,1.14a19.89,19.89,0,0,1-2.28.81,2.4,2.4,0,0,1-.65.07.9.9,0,0,1-.84-.5C.13,51.48,0,51.3.09,51.1Z"/><path d="M51.79,19.34a1.35,1.35,0,0,1,1.37,1.91,4,4,0,0,1-2.3,2.11A1.5,1.5,0,0,1,49.33,23a1,1,0,0,1-.31-.89,2.22,2.22,0,0,1,.2-.71,4,4,0,0,1,1.84-1.87A1.6,1.6,0,0,1,51.79,19.34Z"/><path d="M114.3,19.34a1.36,1.36,0,0,1,1.4,1.88,4,4,0,0,1-2.32,2.14,1.49,1.49,0,0,1-1.53-.34,1,1,0,0,1-.31-.9,2.35,2.35,0,0,1,.22-.74,4,4,0,0,1,1.79-1.81A1.86,1.86,0,0,1,114.3,19.34Z"/><path d="M59.72,37.34c0-.05.08-.12.14-.05s0,.09,0,.12Z"/><path d="M90.66,40.23c0-.07,0-.14.13-.12s0,.09,0,.14a.17.17,0,0,1-.07.14S90.74,40.26,90.66,40.23Z"/><path d="M80.73,35c0-.07.11-.11.15-.08s0,.13,0,.19S80.8,35,80.73,35Z"/><path d="M72.89,35.17a.12.12,0,0,1,.15-.09c.07.06,0,.13,0,.19A.17.17,0,0,0,72.89,35.17Z"/><path d="M171.81,32.81l0-.06s0,0,0,0a.08.08,0,0,1-.07.08S171.79,32.84,171.81,32.81Z"/><path d="M198.15,30.92a1.35,1.35,0,0,0-.94-.18,6.45,6.45,0,0,0-.62.21A44.4,44.4,0,0,0,192,33.16c-1.17.64-2.34,1.26-3.54,1.89-.29-.46-.58-.91-.85-1.36a37.11,37.11,0,0,1-2-3.59,4,4,0,0,1-.42-1.15,1.26,1.26,0,0,1,.52-1.31,3.48,3.48,0,0,1,1.57-.52,1.89,1.89,0,0,1,0,.95,1.63,1.63,0,0,0-.05.62.6.6,0,0,0,.82.59,1.18,1.18,0,0,0,.7-.47,4.42,4.42,0,0,0,.94-2,1.52,1.52,0,0,0-1-1.79,2.67,2.67,0,0,0-1.53-.18,6,6,0,0,0-1.49.46,7.57,7.57,0,0,0-3.2,2.45,2.89,2.89,0,0,0-.6,2.08,3.8,3.8,0,0,0,.64,1.68c.19.29.18.3,0,.56l-2.17,3c-1.35,1.87-2.64,3.79-4.1,5.58A27.38,27.38,0,0,1,173,44.18a5.34,5.34,0,0,1-1.21.84,2,2,0,0,1-.75.22c-.46,0-.59-.11-.55-.57a7,7,0,0,1,.42-1.8,51.65,51.65,0,0,1,2.55-5.74c.93-1.87,1.93-3.7,2.8-5.6a8.78,8.78,0,0,0,.43-1.11.89.89,0,0,0-.2-.92,1.2,1.2,0,0,0-1.28-.36,5.86,5.86,0,0,0-1.08.49l-1.82,1.05-2.74,1.59a3.88,3.88,0,0,1-1.22.48c-.1,0-.2,0-.25-.09.15-.22.3-.45.46-.67q1.73-2.34,3.24-4.82a13.14,13.14,0,0,0,.94-1.78,4.59,4.59,0,0,0,.33-1.15,1.25,1.25,0,0,0-.54-1.25,1.57,1.57,0,0,0-1.68-.06,4.87,4.87,0,0,0-1.49,1.22,24.2,24.2,0,0,0-3.9,6.07,6.2,6.2,0,0,0-.57,1.88,3.8,3.8,0,0,0,.67,2.82l-.14.12c-1.53,1.05-3.07,2.08-4.68,3a28.88,28.88,0,0,1-4.91,2.3,5.88,5.88,0,0,1-2.35.36c-.74-.05-1-.3-1.17-1a5.74,5.74,0,0,1,1.11-4.7.32.32,0,0,1,.35-.14,3.84,3.84,0,0,0,1,0,6.84,6.84,0,0,0,2.42-.76,9.76,9.76,0,0,0,3.76-3.19,4.47,4.47,0,0,0,.8-2.14,2,2,0,0,0-1.56-2.19,3.19,3.19,0,0,0-1.15,0,7.32,7.32,0,0,0-3.09,1.17,16.41,16.41,0,0,0-6.22,7.13,1.19,1.19,0,0,1-.44.53c-.93.6-1.85,1.23-2.79,1.82a32.64,32.64,0,0,1-6,3,6.47,6.47,0,0,1-2.57.46c-.77-.05-1.08-.31-1.21-1a5.79,5.79,0,0,1,1.11-4.7.31.31,0,0,1,.35-.12,4.1,4.1,0,0,0,1.6-.05,9.54,9.54,0,0,0,3.56-1.74,8.75,8.75,0,0,0,2.09-2.2,4.36,4.36,0,0,0,.75-2.06,1.94,1.94,0,0,0-1.53-2.18,3.17,3.17,0,0,0-1.19-.05,6.88,6.88,0,0,0-2.7.95,16.25,16.25,0,0,0-6.81,7.85,2.15,2.15,0,0,1-.34.56c-1.07,1.25-2.17,2.48-3.28,3.7a21.21,21.21,0,0,1-5.3,4.21,3.17,3.17,0,0,1-1.07.37,1.91,1.91,0,0,1,0-.63,5.35,5.35,0,0,1,.31-1.48,44.4,44.4,0,0,1,2-4.92c.82-1.82,1.74-3.6,2.54-5.44a4.29,4.29,0,0,0,.3-.85,1,1,0,0,0-.63-1.2,1.33,1.33,0,0,0-.92-.05,4.93,4.93,0,0,0-1.37.65,65.94,65.94,0,0,0-6,4.43,3.11,3.11,0,0,1-.67.47.38.38,0,0,1,0-.3,6,6,0,0,1,.64-1.38c.72-1.23,1.45-2.45,2.17-3.69a20.92,20.92,0,0,0,1.13-2.15,3.43,3.43,0,0,0,.3-1.14.83.83,0,0,0-1-.89,1.2,1.2,0,0,0-.45.19,9.61,9.61,0,0,0-2.35,2.05,20,20,0,0,0-3.49,5.75,1.29,1.29,0,0,1-.36.53c-.75.63-1.48,1.28-2.22,1.9a34,34,0,0,1-5.29,3.71,6.58,6.58,0,0,1-1.6.66,2.25,2.25,0,0,1-.69.07c-.16,0-.23-.08-.2-.27a9,9,0,0,1,.26-1.25,20.08,20.08,0,0,1,1.3-3.15c1.06-2.21,2.28-4.35,3.37-6.55a12.05,12.05,0,0,0,.75-1.73,3.14,3.14,0,0,0,.21-1.13.88.88,0,0,0-.72-.88,1.33,1.33,0,0,0-1.19.32,5.39,5.39,0,0,0-.74.77A39.14,39.14,0,0,0,104,35.12a3.25,3.25,0,0,1-.33.57c-.62.79-1.22,1.59-1.84,2.38-1.44,1.84-2.89,3.67-4.49,5.38a15.88,15.88,0,0,1-2.1,1.91,3.67,3.67,0,0,1-1.12.6c-.38.11-.43.08-.46-.31,0-.12,0-.25,0-.37a8.51,8.51,0,0,1,.31-2.19,48.71,48.71,0,0,1,2-6c1.59-4.12,3.4-8.14,5.27-12.14q2.11-4.56,4.4-9a.63.63,0,0,1,.63-.4c.42,0,.83,0,1.24,0l8-.46c1.84-.11,3.67-.22,5.51-.36,2.27-.18,4.55-.38,6.81-.63l5.37-.59a1.41,1.41,0,0,0,.76-.28.8.8,0,0,0,.23-.9c-.1-.29-.24-.38-.64-.4l-1.19,0c-3.07,0-6.13.29-9.18.49-2.21.15-4.42.26-6.64.3-2.07,0-4.15.05-6.22.17-.85.05-1.7.09-2.55.21a1,1,0,0,1-.46-.09c0-.09,0-.14,0-.2.51-1.07,1-2.13,1.54-3.19a17.08,17.08,0,0,0,1-2.59,3.1,3.1,0,0,0,.15-.85.63.63,0,0,0-.46-.65,1.26,1.26,0,0,0-1,0,4.32,4.32,0,0,0-1.1.85,28.31,28.31,0,0,0-2.6,3c-.85,1.11-1.64,2.27-2.42,3.43-.09.14-.17.27-.38.27-1.18,0-2.36.13-3.54.14a20,20,0,0,1-3-.12,4.66,4.66,0,0,1-1.72-.53c-.32-.19-.32-.19-.12-.48,0-.06.09-.13.14-.2a19.61,19.61,0,0,0,1.74-2.89,7.71,7.71,0,0,0,.81-3.53,2.24,2.24,0,0,0-2.16-2.27,4,4,0,0,0-2.65.69,19.82,19.82,0,0,0-4,3.53,45.38,45.38,0,0,0-5.11,7.07,100.66,100.66,0,0,0-8.41,17.7.9.9,0,0,1-.4.48c-1.75,1-3.47,2.06-5.18,3.13l-4.68,2.93a.71.71,0,0,1-.42.18l.4-1.12c.75-2.13,1.54-4.25,2.14-6.44a8.75,8.75,0,0,0,.35-1.69A1.4,1.4,0,0,0,65.15,28a1.47,1.47,0,0,0-1.5.42,10.1,10.1,0,0,0-.86,1c-.21.27-.21.27-.54.16a6.19,6.19,0,0,0-5,.34,8.55,8.55,0,0,0-3.91,4.14,1.69,1.69,0,0,1-.44.58l-1.69,1.45A34.93,34.93,0,0,1,46,39.77a6,6,0,0,1-1.59.65,2.82,2.82,0,0,1-.65.08c-.23,0-.27-.06-.24-.3a7,7,0,0,1,.33-1.49,23.14,23.14,0,0,1,1.47-3.39c1-2,2.09-4,3.14-6.07a11.49,11.49,0,0,0,.73-1.69,3.4,3.4,0,0,0,.21-1.09.89.89,0,0,0-.8-.94,1.28,1.28,0,0,0-1.13.35,7.57,7.57,0,0,0-.83.87,41.5,41.5,0,0,0-4.43,6.77,24.49,24.49,0,0,0-1.74,4.17A9.18,9.18,0,0,0,40,41a2.28,2.28,0,0,0,2,2.14,5.19,5.19,0,0,0,1.8-.14,11.65,11.65,0,0,0,3-1.24,28.94,28.94,0,0,0,5.53-4.06c.11-.1.19-.23.34-.27a.87.87,0,0,1,.09.37,3.38,3.38,0,0,0,.66,1.5,2,2,0,0,0,1.75.82,2.8,2.8,0,0,0,1.3-.34,9.54,9.54,0,0,0,1.39-1c.62-.48,1.18-1,1.84-1.46,0,0,0,0,.06,0s.06,0,0,.09c-.3.93-.61,1.85-.9,2.78a2.85,2.85,0,0,1-.83,1.3c-.34.31-.68.6-1,.88-1.46,1.09-2.95,2.15-4.36,3.31a53.9,53.9,0,0,0-6.28,6,20.41,20.41,0,0,0-3.15,4.71,9,9,0,0,0-.82,3.17,3.41,3.41,0,0,0,2.47,3.64c.23.07.47.12.71.18.07.07.15,0,.22,0s.2,0,.28.05h.82c.08-.08.17,0,.26-.05a.22.22,0,0,0,.16,0l.55-.14a7.87,7.87,0,0,0,2.71-1.44,19.47,19.47,0,0,0,3.85-4,52,52,0,0,0,5.76-10c.7-1.58,1.29-3.21,2-4.77a1.35,1.35,0,0,1,.33-.46,91,91,0,0,1,10.3-7.37c.08,0,.15,0,.12.1-.21.71-.43,1.42-.62,2.13a4.61,4.61,0,0,0-.15,2.15,1.41,1.41,0,0,0,2.26,1c.4-.29.79-.6,1.16-.92,1.23-1.06,2.36-2.22,3.56-3.32A15.27,15.27,0,0,1,80.73,35c.09,0,.15,0,.11.11-.32,1-.65,2-1,3A9.65,9.65,0,0,0,79.43,42a2.47,2.47,0,0,0,1.71,2.29,5.08,5.08,0,0,0,1.53.31,7.38,7.38,0,0,0,4.45-1.23,16.45,16.45,0,0,0,3.54-3.12c.18,0,.09.09.09.16s0,.19,0,.28a14.3,14.3,0,0,0-.38,4.17,5.63,5.63,0,0,0,.74,2.46,2.74,2.74,0,0,0,2.34,1.45,3,3,0,0,0,2-.66c.51-.38,1-.79,1.46-1.21A47.26,47.26,0,0,0,102.2,41c.08-.1.13-.23.3-.29,0,.12,0,.21,0,.31a2.26,2.26,0,0,0,2,2.13A5.75,5.75,0,0,0,107,42.8,16,16,0,0,0,110.59,41a33.68,33.68,0,0,0,4.74-3.75c.08-.08.13-.22.3-.19a1.34,1.34,0,0,0,0,.21,1.39,1.39,0,0,0,1.79,1.39,3.69,3.69,0,0,0,1.08-.4,16.68,16.68,0,0,0,2-1.26l2.47-1.8a1,1,0,0,1,.39-.22,11.38,11.38,0,0,1-.87,2,31.26,31.26,0,0,0-1.64,3.58,7.4,7.4,0,0,0-.49,2.32,5.28,5.28,0,0,0,.61,2.7,2.13,2.13,0,0,0,1.35,1.07,3.14,3.14,0,0,0,1.43,0,5.28,5.28,0,0,0,2-.82A29.34,29.34,0,0,0,133,39.37l.3-.37c.12.08.09.18.11.27a4.13,4.13,0,0,0,2,3,5.38,5.38,0,0,0,3.49.66,10.33,10.33,0,0,0,2.79-.83,37.43,37.43,0,0,0,6.72-3.89l.49-.33c0,.32,0,.58,0,.83a4.19,4.19,0,0,0,2.25,3.64,5.42,5.42,0,0,0,3.35.58,10,10,0,0,0,2.79-.84,41.2,41.2,0,0,0,10.43-6.83,1.42,1.42,0,0,1,.39-.29,16.08,16.08,0,0,0,3-1.66,6,6,0,0,1,.73-.46h0s0,0,0,.07a52.21,52.21,0,0,0-3.64,7.1,24.26,24.26,0,0,0-1.59,4.79,5.45,5.45,0,0,0-.05,2.24,1.92,1.92,0,0,0,1.77,1.63,4.78,4.78,0,0,0,1.07,0,5.21,5.21,0,0,0,2.69-.93,15.74,15.74,0,0,0,2.54-2.21,55.26,55.26,0,0,0,6.13-8c1-1.46,1.85-2.95,2.67-4.49,0,0,.09,0,.11.08a21.45,21.45,0,0,1,1.27,2.11,3.56,3.56,0,0,1,.4,1.79.71.71,0,0,1-.26.57c-.32.27-.65.54-1,.79a17.33,17.33,0,0,0-1.64,1.3,29.45,29.45,0,0,0-3.79,4.18,17.63,17.63,0,0,0-2.09,3.49,5,5,0,0,0-.45,1.91,1.76,1.76,0,0,0,1.54,1.93,5.63,5.63,0,0,0,2.45-.09,7.77,7.77,0,0,0,2.89-1.61A19,19,0,0,0,188.24,42a9.76,9.76,0,0,0,.82-4.65c0-.23.11-.28.25-.35a42.43,42.43,0,0,0,3.8-2.23c1.41-.92,2.86-1.79,4.36-2.57a1.57,1.57,0,0,0,.83-1A.27.27,0,0,0,198.15,30.92Zm-38.74-1.79a.3.3,0,0,1,0,.33,2.43,2.43,0,0,1-.3.63,7.08,7.08,0,0,1-4,2.83.74.74,0,0,1-.4,0A8.75,8.75,0,0,1,159.41,29.13Zm-15.53,0a2.08,2.08,0,0,1-.38.94,7,7,0,0,1-4,2.82.69.69,0,0,1-.32,0A8,8,0,0,1,143.88,29.16ZM55.49,49.58a55.25,55.25,0,0,1-3.61,5.89,20.14,20.14,0,0,1-3,3.45,6.93,6.93,0,0,1-1.43,1,3.07,3.07,0,0,1-1.42.38A1,1,0,0,1,45,59.5,3,3,0,0,1,45,58a8.92,8.92,0,0,1,1.66-3.33,32,32,0,0,1,3.23-3.46,65.73,65.73,0,0,1,6.38-5.4,9.11,9.11,0,0,1,1.61-1C57.16,46.43,56.34,48,55.49,49.58Zm4.14-15.19c-1,1.1-2.19,2-3.33,3A1.83,1.83,0,0,1,56,36.28a3.08,3.08,0,0,1,.2-1.08A5.64,5.64,0,0,1,59,32.07a2.64,2.64,0,0,1,1.87-.27,1.19,1.19,0,0,1,.38.16A10.44,10.44,0,0,1,59.63,34.39ZM83.72,19.52c.92-1.72,1.92-3.41,3-5.07a66.38,66.38,0,0,1,4.69-6.61A13.87,13.87,0,0,1,93.27,5.9a6,6,0,0,1,.8-.56,1.7,1.7,0,0,1,.26,1.15,4.33,4.33,0,0,1-.46,1.44,20.87,20.87,0,0,1-1.47,2.38c-.1.15-.17.19-.36.1a.52.52,0,0,0-.77.22,1.34,1.34,0,0,0-.26,1.2.38.38,0,0,1-.12.43c-.54.65-1.1,1.27-1.68,1.88-1.76,1.86-3.59,3.66-5.4,5.48C83.73,19.63,83.69,19.61,83.72,19.52ZM92.46,34.6a2.28,2.28,0,0,1-.32.62,44,44,0,0,1-2.92,3.62,23.26,23.26,0,0,1-2.34,2.21,6.76,6.76,0,0,1-2,1.17,3.11,3.11,0,0,1-1.08.22c-.69,0-1-.29-1-1a10.88,10.88,0,0,1,.57-3.1c.4-1.29.89-2.54,1.26-3.83a9.23,9.23,0,0,0,.37-2.76,2.66,2.66,0,0,0-.19-1,1.08,1.08,0,0,0-1-.74,2.53,2.53,0,0,0-1.12.2,6.13,6.13,0,0,0-.9.51,26,26,0,0,0-3.65,3.14c-.5.49-1,1-1.53,1.44,0,0-.06,0-.09,0,.4-1,.87-2,1.33-3,1.25-2.74,2.58-5.45,4-8.1a8,8,0,0,1,2-2.35,72.74,72.74,0,0,0,6.4-5.88c.64-.68,1.27-1.37,1.87-2.09.2-.24.2-.24.45-.08a10.63,10.63,0,0,0,3.94,1.36,29.94,29.94,0,0,0,3.54.25l.94,0a1.3,1.3,0,0,1-.19.43c-2.38,4.65-4.65,9.35-6.66,14.18C93.54,31.61,93,33.1,92.46,34.6ZM185,40.31a16.25,16.25,0,0,1-4.06,7,5,5,0,0,1-2.32,1.34c-.25.06-.3,0-.32-.21a2.62,2.62,0,0,1,.21-1.17,5.52,5.52,0,0,1,.67-1.18,24.17,24.17,0,0,1,3.53-3.9c.71-.66,1.45-1.3,2.18-1.94C185,40.18,185,40.22,185,40.31Z"/><path d="M83.72,19.52l.09.1a.26.26,0,0,1-.17.17s0-.07,0-.12A.18.18,0,0,1,83.72,19.52Z"/><path d="M185,40.31l-.11-.1c0-.07.09-.11.15-.06S185.08,40.26,185,40.31Z"/><path d="M83.62,19.67l0,.12c0,.05,0,.08-.09.07s0,0,0-.06l0,0Z"/><path d="M83.55,19.78v.08s0,.08,0,0S83.52,19.81,83.55,19.78Z"/><path d="M76.54,35.35h.09c0,.06-.06.1-.11.07S76.5,35.37,76.54,35.35Z"/></g></g></svg>