<svg xmlns="http://www.w3.org/2000/svg" viewBox="0 0 61.87 46.39"><defs><style>.cls-1{fill:#91a4e4;}</style></defs><g id="Layer_2" data-name="Layer 2"><g id="Layer_1-2" data-name="Layer 1"><path class="cls-1" d="M39.28,27.68l-1.88-.22A22.57,22.57,0,0,1,35.09,27a29.35,29.35,0,0,1-3.51-1c-.74-.24-1.5-.41-2.22-.72-.53-.23-1.05-.48-1.57-.73s-1-.55-1.54-.79c-1.15-.57-2.34-1.07-3.47-1.69-.73-.38-1.39-.87-2.08-1.3l-1.22-.8L13.3,16c-.38-.24-.78-.44-1.16-.67-.84-.52-1.69-1-2.53-1.51s-1.72-1-2.61-1.4c-.66-.33-1.32-.67-2-1s-1.34-.61-2-.87S1.57,10.06.88,9.8c-.46-.19-1.22-.51-.6-.69a1.54,1.54,0,0,1,1,.23,12.57,12.57,0,0,0,2.23.85c.57.2,1.11.45,1.67.68s1.1.48,1.63.75c1,.49,2,1,2.93,1.61s1.51,1,2.35,1.5,1.74,1,2.59,1.48c.53.32,1,.67,1.56,1,.78.49,1.55,1,2.34,1.46.41.25.76.47,1.18.7.69.38,1.3.89,2,1.32,1.84,1.21,3.95,2,5.86,3a21.42,21.42,0,0,0,3.83,1.61c1.2.37,2.39.82,3.62,1.1.89.21,1.79.42,2.69.55l1.17.18a2.84,2.84,0,0,1,.61.17,1.31,1.31,0,0,1,.42.38c.07.09.1.18.06.23s-.38-.12-.52-.19Z" transform="translate(-0.05 0)"/><path class="cls-1" d="M39.47,27.59a11.87,11.87,0,0,1-1.1-1.16c-.43-.46-.76-1-1.17-1.52-.65-.75-1.21-1.58-1.83-2.35-.4-.49-.87-.92-1.26-1.42-.57-.74-1.08-1.55-1.67-2.28s-1.4-1.55-2.09-2.34c-.43-.5-.82-1-1.23-1.58-.24-.31-.49-.62-.75-.91a55.77,55.77,0,0,0-4.13-4.29c-.26-.25-.56-.46-.83-.71-.61-.52-1.22-1-1.85-1.54s-1.28-1-1.94-1.45c-1-.69-2-1.34-3-2-.52-.32-1.07-.6-1.57-.93-.35-.23-.91-.6-.35-.71a1.05,1.05,0,0,1,.79.31,6.67,6.67,0,0,0,1.68,1c.85.49,1.69,1,2.5,1.55A27.32,27.32,0,0,1,21.82,7c.59.51,1.07,1.06,1.7,1.53a21.41,21.41,0,0,1,1.87,1.58c.38.34.72.73,1.07,1.09L28,12.79c.27.29.49.54.78.82A14.61,14.61,0,0,1,30,15.15c1.08,1.45,2.51,2.64,3.51,4.15A26.46,26.46,0,0,0,35.6,22c.67.79,1.25,1.66,1.91,2.47.47.58.92,1.2,1.4,1.78.19.21.41.5.6.73a4.83,4.83,0,0,1,.54.72l0,.1,0,0a.14.14,0,0,1,0-.13.12.12,0,0,1,.1,0L40,28a.91.91,0,0,1-.33-.22Z" transform="translate(-0.05 0)"/><path class="cls-1" d="M39.78,28.31a12.27,12.27,0,0,1-1.35.61c-.55.21-1.16.31-1.73.49a18,18,0,0,1-2.74.44c-.58.06-1.17.2-1.76.22-.87,0-1.75-.1-2.61-.14s-1.95,0-2.93-.12c-.61-.07-1.22-.22-1.83-.35l-1.07-.23c-1.81-.35-3.61-.76-5.4-1.16l-1-.18-2.18-.46c-.73-.15-1.46-.29-2.19-.4-1.11-.18-2.21-.32-3.32-.43L8,26.46c-.37-.05-1-.13-.57-.48a.91.91,0,0,1,.78-.08,5.9,5.9,0,0,0,1.8.16c.9.06,1.8.15,2.7.28s1.66.29,2.48.49a17.25,17.25,0,0,0,2,.52c.74.09,1.48.24,2.22.38l1.37.32c.67.16,1.35.31,2,.42.35.06.66.12,1,.17a15,15,0,0,1,1.73.41,48.47,48.47,0,0,0,4.94.36,12.13,12.13,0,0,0,3.13-.06,24.39,24.39,0,0,0,2.81-.41c.66-.18,1.32-.37,2-.58L40,27.79a.21.21,0,0,1,.22,0c.08.11-.14.3-.27.38A1,1,0,0,1,39.78,28.31Z" transform="translate(-0.05 0)"/><path class="cls-1" d="M40.4,27.72c.14,0,.34,0,.5.06a2.12,2.12,0,0,0,.44,0,7.11,7.11,0,0,1,1.2.1c.32,0,.63.05.94.09s.62.15.93.2.8.06,1.19.14c.58.13,1.14.34,1.71.49s1.31.22,1.95.38a10,10,0,0,1,1.19.44l.7.26c1.2.39,2.38.82,3.55,1.27.21.09.44.14.66.22l1.41.59,1.4.62c.7.32,1.4.63,2.08,1,.34.19.7.34,1,.56s.56.41.14.59a.46.46,0,0,1-.52-.15c-.25-.36-.68-.4-1.07-.58l-1.67-.73c-.52-.23-1-.47-1.54-.73a6.26,6.26,0,0,0-1.27-.63c-.5-.13-1-.3-1.46-.46-.3-.1-.59-.24-.89-.35s-.88-.32-1.33-.45a5.69,5.69,0,0,0-.68-.18A7.81,7.81,0,0,1,49.86,30c-1-.43-2.24-.38-3.29-.81a10.57,10.57,0,0,0-2.08-.45c-.32,0-.63-.13-.94-.21s-.64-.09-1-.12a12.83,12.83,0,0,0-1.42-.1,3,3,0,0,1-.62-.1.82.82,0,0,1-.54-.33.14.14,0,0,1,0-.18c.08-.09.16,0,.26,0Z" transform="translate(-0.05 0)"/><path class="cls-1" d="M40.2,27.44c.27-.21.52-.41.77-.64A11.24,11.24,0,0,1,42,26.2c.54-.33,1.14-.57,1.7-.86.36-.18.68-.44,1.06-.59.56-.23,1.15-.35,1.71-.56s1.23-.54,1.88-.75a10,10,0,0,1,1.26-.25l.74-.12a30.26,30.26,0,0,1,3.79-.51c.23,0,.46-.07.7-.08.51,0,1,0,1.55,0s1,0,1.56.05a22.83,22.83,0,0,1,2.32.25,7.46,7.46,0,0,1,1.16.24c.26.08.66.23.3.53a.45.45,0,0,1-.53,0c-.35-.26-.77-.18-1.2-.22-.61-.07-1.22-.1-1.83-.14L56.51,23A5.29,5.29,0,0,0,55.08,23c-.51.08-1,.14-1.52.2l-1,.09c-.47.06-.94.12-1.4.22-.24.06-.45.1-.68.17a7,7,0,0,1-1.21.16c-1.13.18-2.11.87-3.21,1.12a8,8,0,0,0-2,.8c-.56.32-1.18.56-1.75.87a10.09,10.09,0,0,0-1.22.73,2.25,2.25,0,0,1-1,.54.25.25,0,0,1-.19,0c-.11-.09.06-.27.15-.32Z" transform="translate(-0.05 0)"/><path class="cls-1" d="M40.09,27.37c.17-.34.28-.68.5-1.06a12.22,12.22,0,0,1,.94-1.06c.46-.56,1-1,1.51-1.56.32-.33.58-.72.91-1,.51-.46,1.08-.85,1.59-1.3s1.07-1.09,1.65-1.59a11.2,11.2,0,0,1,1.2-.84l.71-.48q1.77-1.28,3.64-2.4l.67-.44c.5-.3,1-.58,1.54-.85s1-.55,1.58-.81c.79-.39,1.59-.77,2.42-1.1.42-.16.83-.35,1.26-.47s.78-.18.6.27a.6.6,0,0,1-.53.31,2.86,2.86,0,0,0-1.31.5l-1.89.92-1.77.85a7.46,7.46,0,0,0-1.48.71c-.47.34-1,.66-1.45,1l-.94.57c-.45.3-.91.59-1.33.92a7.84,7.84,0,0,0-.64.5,9,9,0,0,1-1.18.74c-1.1.72-1.87,1.84-2.92,2.59a11.11,11.11,0,0,0-1.82,1.67c-.49.56-1.07,1-1.57,1.6a12.36,12.36,0,0,0-1,1.22,3,3,0,0,1-.77,1.1.17.17,0,0,1-.19,0c-.11-.08,0-.25,0-.35Z" transform="translate(-0.05 0)"/><path class="cls-1" d="M39.9,27.19c.05-.42.08-.83.09-1.2s0-1-.09-1.47c-.11-.76-.13-1.55-.3-2.31-.1-.48-.31-.94-.42-1.42-.17-.72-.27-1.45-.5-2.15s-.64-1.53-1-2.29c-.19-.49-.31-1-.47-1.51-.09-.3-.18-.6-.28-.89L35.39,9.51l-.32-.82c-.2-.6-.39-1.22-.56-1.83S34.16,5.61,34,5a21.26,21.26,0,0,1-.5-2.87A9.07,9.07,0,0,1,33.43.64c0-.34.07-.87.44-.52A.65.65,0,0,1,34,.77a3.14,3.14,0,0,0,.12,1.51c.12.75.28,1.5.45,2.24L35,6.6a9.31,9.31,0,0,0,.43,1.73c.26.58.49,1.18.72,1.78.14.37.25.76.39,1.13.2.56.39,1.12.62,1.67.12.29.21.54.34.82A8.7,8.7,0,0,1,38,15.2c.39,1.38,1.25,2.61,1.49,4,.16.91.4,1.77.63,2.66a16.91,16.91,0,0,1,.33,2.46,10.93,10.93,0,0,1,.1,1.82,3.13,3.13,0,0,1-.37,1.46c0,.06-.11.11-.17.09s-.09-.25-.07-.37Z" transform="translate(-0.05 0)"/><path class="cls-1" d="M40.18,28.26a4.74,4.74,0,0,1-.16.57,1.47,1.47,0,0,1-.29.57A11.69,11.69,0,0,0,39,30.5a13.91,13.91,0,0,1-1.08,1.85,9.5,9.5,0,0,1-.73,1.17,18,18,0,0,1-1.48,1.42,17.73,17.73,0,0,1-1.68,1.55,8.83,8.83,0,0,1-1.27.72l-.77.38A19,19,0,0,1,28,39.07c-.26.06-.51.16-.77.21-.57.13-1.14.21-1.72.29s-1.17.14-1.75.17a21.14,21.14,0,0,1-2.64,0,8.52,8.52,0,0,1-1.33-.11c-.29-.06-.77-.17-.41-.5a.59.59,0,0,1,.6,0,2.63,2.63,0,0,0,1.37.11c.7,0,1.39,0,2.07-.08L25.29,39a6.64,6.64,0,0,0,1.6-.16l1.64-.5c.34-.11.69-.19,1-.31a11.63,11.63,0,0,0,1.47-.6c.24-.12.45-.23.69-.37A10.72,10.72,0,0,1,33,36.49a18.76,18.76,0,0,0,2.89-2.44,6.8,6.8,0,0,0,1.55-1.83c.38-.6.79-1.21,1.13-1.88a6.47,6.47,0,0,1,.41-.71l.21-.35a4,4,0,0,1,.27-.33,4.6,4.6,0,0,0,.24-.55,3.67,3.67,0,0,1,.29-.56.21.21,0,0,1,.17-.09c.13,0,.11.24.09.35Z" transform="translate(-0.05 0)"/><path class="cls-1" d="M40.36,27.91a8.3,8.3,0,0,0,.51.7c.21.27.32.63.51.92.3.46.52,1,.78,1.45.17.31.41.57.57.89.22.47.36,1,.61,1.44s.6,1,.85,1.53a6.59,6.59,0,0,1,.32,1.07l.18.64a18.94,18.94,0,0,1,.71,3.26c0,.2.08.4.1.61,0,.45.06.9.07,1.35v1.35a9.92,9.92,0,0,1-.14,2.07,1.85,1.85,0,0,1-.58,1c-.26.2-.68.27-.57-.16a.34.34,0,0,1,.24-.31c.36-.1.35-.52.39-.85.07-.5,0-1,0-1.57s0-1,0-1.49a4,4,0,0,0,0-1.24c-.1-.43-.17-.87-.25-1.3l-.14-.81a9.87,9.87,0,0,0-.3-1.19c-.07-.2-.12-.37-.21-.57a5.93,5.93,0,0,1-.24-1c-.24-1-1-1.73-1.29-2.65a8.52,8.52,0,0,0-.82-1.69c-.28-.49-.51-1-.79-1.51s-.4-.73-.63-1.07a1.42,1.42,0,0,1-.37-1,.14.14,0,0,1,.16-.09c.12,0,.11.06.15.13Z" transform="translate(-0.05 0)"/><path class="cls-1" d="M39,26.48A.17.17,0,0,0,39,26.4s0,.05.08,0,.08,0,.11,0,0-.11,0-.11.1.1.14.08,0-.14.06-.18.06,0,.09,0,.05,0,.06,0a.78.78,0,0,0,.2-.11s0-.05,0-.06l.07-.06L40,26s0-.08.09-.1,0-.05.06,0a1.49,1.49,0,0,1,.36.29c.11.1.12.14,0,.1s-.07,0-.08.06a.28.28,0,0,1-.06.15.19.19,0,0,1-.12.07s-.15-.08-.14,0a.23.23,0,0,1,0,.16s-.05,0-.07,0-.07,0-.09.07,0,0,0,.06-.09,0-.13-.06-.09.31-.23.18-.13,0-.18,0-.11,0-.16,0-.08,0-.12,0S39,27,39,26.77a.81.81,0,0,1,0-.17c0-.13,0-.11,0-.12Z" transform="translate(-0.05 0)"/><path class="cls-1" d="M38.37,25.79a.18.18,0,0,0,.09-.07s.07.05.1,0,.12,0,.17,0,.06-.11.1-.11.11.11.16.09.09-.15.14-.18.08,0,.12,0,0,0,.07,0a1,1,0,0,0,.28-.12s0-.05,0-.06l.08-.07.06-.09a.61.61,0,0,1,.1-.14s0-.07.07-.07.11,0,.41.19c.12.08.14.13.07.1s-.08.05-.09.1a.51.51,0,0,1-.06.21.31.31,0,0,1-.16.13c-.06,0-.18-.05-.18,0a.28.28,0,0,1-.09.18s-.08,0-.11,0a.51.51,0,0,0-.15.07l-.06.06c0,.06-.1,0-.15-.07s-.18.32-.33.18a.15.15,0,0,0-.23,0c-.07,0-.14,0-.21,0s-.1,0-.15,0-.09,0-.11-.18a1.16,1.16,0,0,1,0-.17c0-.12,0-.11,0-.11Z" transform="translate(-0.05 0)"/><path class="cls-1" d="M41.51,26.06s0,0,.07,0,0,0,0,0,0,0,0,0l.09,0s-.09.09-.07.09.11-.06.13-.08l0,.06a.1.1,0,0,0,0,0,.09.09,0,0,0,0,0s0,0,0,0,0,0,0,0h0s0,0,0,0,0,0,0,0a2.93,2.93,0,0,1,0,.46c0,.15,0,.19,0,.1s0,0,0,0a.18.18,0,0,1-.1.06s-.06,0-.07-.05,0-.15,0-.1-.08.07-.11.07,0,0,0,0,0,0-.07,0h0s0-.08,0-.12-.26.12-.18,0,0-.1,0-.1,0-.08,0-.1,0-.06,0-.07,0,0,.15-.1l.16-.05.11,0Z" transform="translate(-0.05 0)"/><path class="cls-1" d="M42,25.5a.1.1,0,0,0,.08,0s-.05,0,0,0,0,.06,0,.08.11,0,.11,0-.07.11,0,.13a.31.31,0,0,0,.16-.06s0,0,0,.07,0,0,0,0a.35.35,0,0,0,.16,0l0,0a.33.33,0,0,1,.1,0h.07s0-.06.06.07a.67.67,0,0,0,0,.07h0a1.61,1.61,0,0,1,.25.19c.11.11.1.17,0,.13s-.1,0-.15.06a.58.58,0,0,1-.18.11.14.14,0,0,1-.14,0s-.05-.16-.09-.09a.2.2,0,0,1-.13.1l-.07,0a.27.27,0,0,0-.13,0H42c-.06,0,0-.11,0-.16s-.36,0-.3-.15a.14.14,0,0,0-.07-.19c-.06-.05,0-.14,0-.19s0-.09,0-.13,0-.08.17-.1h.17c.13,0,.11,0,.11,0Z" transform="translate(-0.05 0)"/><path class="cls-1" d="M42.41,25a.1.1,0,0,0,.06,0s-.06,0,0,0,0,0,0,0,.11,0,.11,0-.09.09-.07.11.13,0,.18,0,0,.06,0,.1,0,0,0,0l.15.14s0,0,.06,0l.07.05.07,0s.09,0,.11.06.05,0,0,0,0,.1-.19.41c-.07.13-.11.16-.08.08s0-.06-.06-.06a.37.37,0,0,1-.15,0,.13.13,0,0,1-.09-.09s0-.16,0-.13a.24.24,0,0,1-.16,0s0,0,0-.06a.17.17,0,0,0-.08-.06h-.07s0-.09,0-.13-.32,0-.25-.16,0-.15-.05-.21,0-.15,0-.22,0-.09,0-.14,0-.11.22,0l.14.07.09.06Z" transform="translate(-0.05 0)"/><path class="cls-1" d="M43,28.32h-.16c-.08,0-.08-.1-.14-.11s-.13-.15-.2-.21-.16,0-.19-.09,0-.22,0-.29-.18-.15-.23-.25,0-.12.05-.19a.53.53,0,0,0,0-.12,1.59,1.59,0,0,1,.13-.55s0-.08,0-.11a1.18,1.18,0,0,1,.11-.19l.11-.18a1.06,1.06,0,0,1,.19-.23s.06-.09.12-.09.13,0,.36.28q.15.18,0,.12c-.17-.1-.09,0-.11.09s0,.15-.08.21a.3.3,0,0,1-.14.13s-.18,0-.15.08a.47.47,0,0,1,0,.19s0,.05,0,.07,0,.09,0,.13,0,0,0,.06-.07.06-.1.11.29.16.18.29,0,.15.06.17,0,.11.1.14.06.08.12.08,0,0,0,0,0,0,0,.06h0l0,.13h0s0,0,0,0a0,0,0,0,1,0,0s-.05,0-.08,0,0,0,0,0S43,28,43.08,28s.12-.07.21.14,0,.14,0,.16l-.08.05a.23.23,0,0,1-.16,0Z" transform="translate(-0.05 0)"/><path class="cls-1" d="M40.62,29a.18.18,0,0,0-.07-.09s.06-.07,0-.11.07-.1.08-.16-.07-.11,0-.15.16,0,.19-.07,0-.18,0-.24.09,0,.14,0h.07l.27-.13s0,0,0-.06l.11,0,.1-.05c.06,0,.11-.06.17-.05s0,0,.08,0,.07.08.12.44c0,.14,0,.19,0,.11s-.06,0-.08,0-.07.08-.1.09a.09.09,0,0,1-.11,0s-.1-.12-.11-.05a.21.21,0,0,1,0,.14h-.06s0,0,0,0a.11.11,0,0,0,0,.06s-.07,0-.11-.06.1.26,0,.18-.09,0-.07,0-.07,0-.06.06,0,0,0,.06,0,0-.17.06h-.17c-.13,0-.11,0-.12,0Z" transform="translate(-0.05 0)"/><path class="cls-1" d="M40.91,29.47a.49.49,0,0,0,0-.15c0-.06.09-.08.09-.13s.11-.13.14-.2,0-.14,0-.18.19,0,.24-.11,0-.2.08-.28.11,0,.17-.05.07,0,.09,0a4.36,4.36,0,0,1,.41-.24s0-.06.07-.07a.53.53,0,0,1,.17-.08l.19-.07a.63.63,0,0,1,.3-.07s.1,0,.15,0,.09.08.07.45c0,.15,0,.19-.05.11s-.08,0-.12,0l-.16.11a.36.36,0,0,1-.18,0s-.14-.11-.16,0a.45.45,0,0,1-.1.17s-.06,0-.09,0a.19.19,0,0,0-.11.09.12.12,0,0,0,0,.07c0,.06-.11,0-.16,0s0,.34-.17.31-.15.05-.16.13-.11.08-.13.14-.06.08-.06.13,0,.08-.2.06l-.16,0c-.12,0-.1-.05-.1-.06Z" transform="translate(-0.05 0)"/><path class="cls-1" d="M41.39,30.08l-.07,0h-.06l0-.11c0-.11.09-.17.1-.25s.15-.18.22-.26,0-.17.07-.21.21,0,.27-.09.07-.22.13-.31.13,0,.19-.06a.21.21,0,0,0,.11,0c.16-.1.32-.21.49-.3s0-.07.07-.09l.22-.11.23-.1a1.06,1.06,0,0,1,.36-.09c.07,0,.13-.05.2,0s.11.08.09.45c0,.15,0,.19-.06.11s-.11,0-.16,0l-.21.13a.78.78,0,0,1-.22,0c-.07,0-.17-.09-.2,0A.57.57,0,0,1,43,29s-.08,0-.12.06a.53.53,0,0,0-.15.11l-.06.09c0,.07-.13,0-.19,0s-.08.4-.3.38a.2.2,0,0,0-.23.16c0,.08-.14.08-.15.14s-.06.06,0,.1,0,0,0,.09a.2.2,0,0,1-.28.12s0-.14,0-.11,0,0,0,0Z" transform="translate(-0.05 0)"/><path class="cls-1" d="M41.36,30.15h0l-.06.11h-.06l-.07,0c-.06,0-.06-.09-.11-.09s-.1-.1-.17-.12-.12.07-.15,0S40.67,30,40.6,30s-.16.08-.23.1-.07-.06-.1-.09-.05,0-.07,0a.78.78,0,0,0-.34,0s0,.05-.06.06l-.15.06-.15.07a1,1,0,0,1-.17.09s0,0,0,0A1.75,1.75,0,0,1,38.9,30c-.11-.09-.11-.16,0-.13s.12-.05.17-.11a.67.67,0,0,1,.2-.18.29.29,0,0,1,.2,0c.06,0,.16.11.19,0a.37.37,0,0,1,.17-.16s.09,0,.13,0a.76.76,0,0,0,.21,0s.07,0,.1,0,.1.08.15.13.35-.2.45,0a.23.23,0,0,0,.25.14c.09,0,.12.11.2.14s.09.08.15.08.05,0,.06,0v0s0,0,.05.08a.18.18,0,0,1,0,.16s-.05.1-.1.09a.07.07,0,0,1-.08,0s0-.08,0-.08h0s0,0,0,0A.07.07,0,0,0,41.36,30.15Z" transform="translate(-0.05 0)"/><path class="cls-1" d="M40.91,29.31h0l-.13.12,0,0s0-.06,0-.05,0-.06,0-.07-.08.09-.09.07,0-.12-.05-.12-.09.11-.13.13,0,0-.06-.07,0,0-.05,0a.62.62,0,0,0-.23,0s0,0,0,0l-.09,0-.1,0a.26.26,0,0,1-.15,0s0,0-.08,0-.07-.08-.13-.45c0-.14,0-.18,0-.11s.06,0,.09,0,.07-.09.11-.1a.15.15,0,0,1,.13,0s.1.14.12.07a.24.24,0,0,1,.1-.13s.05,0,.08,0a.23.23,0,0,0,.11,0l0,0s.07.07.1.11.22-.25.31-.07.1.11.19.1.09.1.15.13.05.09.1.1,0,0,.07.1a.24.24,0,0,1-.11.29c-.13.07-.24,0-.23-.06a.15.15,0,0,1,0-.11s.09,0,.08,0,0,0,0,0Z" transform="translate(-0.05 0)"/><path class="cls-1" d="M40.42,28.87s0,0-.06.06,0-.06,0,0,0,0,0,0-.06.09-.06.08,0-.12,0-.12-.06.11-.08.14,0-.05,0-.07,0,0,0,0a.14.14,0,0,0-.09,0s0,0,0,0h0l0,0s0,0,0,0,0,0,0,0a2.14,2.14,0,0,1-.16-.43c-.05-.14-.05-.18,0-.11s0,0,.05,0a.31.31,0,0,1,.07-.09.07.07,0,0,1,.08,0s0,.15.07.08a.21.21,0,0,1,.06-.11s0,0,0,0,0,0,.06,0,0,0,0,0,0,.08,0,.12.16-.24.17-.07,0,.09.09.07,0,.07.06.07,0,.05.06,0,0,0-.05.18l-.09.14c-.07.11-.07.09-.07.09Z" transform="translate(-0.05 0)"/><path class="cls-1" d="M39.19,29.33h-.07s.05,0,0,0,0,0,0,0-.1,0-.1,0,.08-.11,0-.13-.13,0-.17,0,0-.05,0-.08,0,0,0-.05a.27.27,0,0,0-.12-.09l0,0-.06,0h-.06s-.07,0-.09,0h0l.07-.28h0s0,0,0,0,0,0,0,0,.08,0-.15,0a.14.14,0,0,1,0-.21c0-.05.1-.05.13,0s.11.05.16,0a.24.24,0,0,1,.14,0,.1.1,0,0,1,.1.07s0,.16.05.12a.15.15,0,0,1,.15,0s0,0,0,0a.11.11,0,0,0,.09.05s0,0,.06,0,0,.09,0,.14.31,0,.23.11,0,.13,0,.17,0,.13,0,.19,0,.09,0,.13a.06.06,0,0,1,0,0h0s0,0-.19-.07h-.27Z" transform="translate(-0.05 0)"/><path class="cls-1" d="M38.82,29.88l-.08,0c-.05,0,0,0,0-.06s0-.07,0-.1-.11,0-.12,0,.08-.11,0-.14-.14,0-.18,0,0-.07,0-.1,0-.05,0-.06a1,1,0,0,0-.18-.13s-.05,0-.06,0l-.08,0-.08,0s-.08,0-.11,0,0,0,0,0a1.12,1.12,0,0,1,0-.45c0-.15.06-.19.06-.1s.06,0,.11,0a.38.38,0,0,1,.18,0,.2.2,0,0,1,.13.09s0,.17.07.13a.19.19,0,0,1,.16,0s0,0,.06.06a.21.21,0,0,0,.11.07h.07c.06,0,0,.1,0,.15s.33,0,.26.17,0,.15.06.2,0,.13,0,.19,0,.09,0,.13,0,.09-.17.12a.83.83,0,0,1-.16,0c-.13,0-.11,0-.12,0Z" transform="translate(-0.05 0)"/><path class="cls-1" d="M39.54,28.84l-.08,0s.06,0,0,0,0,0,0,0l-.1,0s.11-.06.09-.07-.11.07-.13.09l0-.06a0,0,0,0,0,0,0s0,0-.07,0,0,0,0,0h-.12s-.06,0-.1,0h0l.06-.3h0v0l0,0s0,0,0,0,.09,0-.15,0c-.08,0-.13-.12-.09-.2s.09-.09.13-.07.09.09.13.07.05-.06.06-.07l.09-.06a.08.08,0,0,1,.07,0s0,.16,0,.1a.19.19,0,0,1,.1-.09s0,0,0,0a.16.16,0,0,0,.1,0s0,0,.07,0,0,.1,0,.14.33-.06.25.11,0,.13,0,.17,0,.11,0,.15,0,.06,0,.1,0,.07-.18,0l-.17,0-.11,0Z" transform="translate(-0.05 0)"/><path class="cls-1" d="M38.56,30.58a.5.5,0,0,0-.1-.11c-.06,0,0-.12,0-.16s0-.11,0-.16-.12,0-.13,0,0-.15,0-.19-.17,0-.23,0,0-.08,0-.12a.24.24,0,0,0,0-.07,1.14,1.14,0,0,0-.31-.16l-.08,0-.15,0-.17,0a1.1,1.1,0,0,1-.26-.06s-.1,0-.14-.07,0-.11.11-.44c.06-.14.1-.17.09-.09s.07.07.11.06a.78.78,0,0,1,.21,0,.36.36,0,0,1,.19.08c.05,0,.06.17.14.12A.43.43,0,0,1,38,29a.3.3,0,0,1,.11.07,1,1,0,0,0,.18.07s.06,0,.1,0,0,.12.06.18.42,0,.39.27a.31.31,0,0,0,.12.29c.06.08,0,.2,0,.28s0,.09,0,.13.05.06-.15.17l-.15.07c-.12.05-.11,0-.12,0Z" transform="translate(-0.05 0)"/><path class="cls-1" d="M39.1,28.24l-.08,0s0,0,0,0,0,0,0-.06-.11,0-.1,0,.11,0,.09-.07-.13,0-.16,0,0,0,.06-.06,0,0,0,0a.41.41,0,0,0-.05-.09h0l0,0,0,0s0,0,0,0,0,0,0,0a1.89,1.89,0,0,1,.26-.38c.09-.11.12-.14.08-.07s0,.06,0,.06.09,0,.12,0,.05,0,0,.09-.08.13,0,.11.11,0,.14,0,0,0,0,.05,0,.05.05.06,0,0,0,0,0,.07-.07.1.29.05.15.16-.07.08,0,.12-.05.07,0,.11,0,.05,0,.07,0,.05-.18.05h-.16l-.12,0Z" transform="translate(-0.05 0)"/><path class="cls-1" d="M38.62,28.36a.12.12,0,0,0,0-.08s.06,0,.05,0,0,0,0-.06-.09-.06-.08-.07.12,0,.12-.05-.13-.06-.16-.07,0,0,.06-.06,0,0,0,0a.28.28,0,0,0-.07-.13h0l0,0h0s0,0-.05,0,0,0,0,0a1.9,1.9,0,0,1,.06-.46c0-.14.07-.17.06-.09s.06.05.1.05a.37.37,0,0,1,.18,0,.15.15,0,0,1,.11.12c0,.05-.05.16,0,.15a.16.16,0,0,1,.16,0s0,0,0,.08a.26.26,0,0,0,.07.11s0,0,.06,0-.06.09-.09.13.29.18.12.29-.09.11-.07.18-.09.1-.1.15-.07.06-.07.1,0,.09-.19,0l-.13-.11c-.09-.08-.08-.08-.08-.09Z" transform="translate(-0.05 0)"/><path class="cls-1" d="M38.14,28.63a.18.18,0,0,0,0-.08s.06,0,0-.07,0-.06,0-.11-.1-.05-.09-.07.12-.08.1-.12-.13-.07-.17-.09,0-.06,0-.1a.11.11,0,0,0,0,0,.7.7,0,0,0-.11-.21h-.06s0,0-.06-.07l-.08,0a.6.6,0,0,1-.11-.06s0,0,0-.05,0-.11.17-.43c.06-.13.11-.15.09-.07s0,.06.09.07a.65.65,0,0,1,.2.05.24.24,0,0,1,.1.14c0,.06-.06.17,0,.16a.24.24,0,0,1,.18.06s0,.06,0,.09a.83.83,0,0,0,.08.12s0,0,.06.05,0,.1-.06.15.31.17.16.31a.16.16,0,0,0,0,.22c0,.07-.07.13-.07.19s-.05.08,0,.14,0,.1-.2,0l-.16-.06c-.11-.06-.09-.06-.09-.07Z" transform="translate(-0.05 0)"/><path class="cls-1" d="M37.67,28.68a.12.12,0,0,0,0-.08s.06,0,0-.06,0-.06,0-.11-.11,0-.1-.07.1-.09.08-.13-.14-.05-.18-.07,0-.07,0-.11,0-.06,0-.07a1,1,0,0,0-.16-.24h-.07l-.09-.08-.09-.07a.83.83,0,0,1-.15-.11s-.09,0,0,0,.05-.11.11-.44c0-.14.14-.15.13-.06s.06.08.12.1a1.39,1.39,0,0,1,.19.06.26.26,0,0,1,.1.14c0,.05,0,.17,0,.16a.26.26,0,0,1,.18.05s0,.06,0,.08a.54.54,0,0,0,.09.12l.07,0c.07,0,0,.11,0,.16s.35.14.22.32a.23.23,0,0,0,0,.27c0,.08-.06.15-.07.23s-.06.1-.06.16,0,.13-.21,0l-.14-.09c-.11-.07-.09-.08-.09-.08Z" transform="translate(-0.05 0)"/><path class="cls-1" d="M38.39,27.4s0,0,0,0L38,27.26v-.1c0-.09.12-.06.13-.1s.11,0,.14,0,0-.1,0-.1.09.09.1.07-.07-.11-.09-.14.05,0,.08,0,0,0,0,0a.21.21,0,0,0,0-.12s0,0,0,0v-.12s0-.06,0-.08,0,0,0-.05a1.69,1.69,0,0,1,.46,0c.14,0,.18,0,.1,0s0,0,0,.07.06.08.06.12a.09.09,0,0,1,0,.1s-.16,0-.1.07.08.09.08.12,0,0,0,.06a.16.16,0,0,0,0,.1.15.15,0,0,0,0,.06c0,.05-.09,0-.14,0s.09.31-.1.27-.15,0-.18.06-.08,0-.07,0-.08-.1-.09-.1h0L38,27.24s0,0,.18,0l.16.06.1.05Z" transform="translate(-0.05 0)"/><path class="cls-1" d="M37.61,26.93a.2.2,0,0,0,0-.09c0-.05.05,0,.06,0s.06,0,.09,0,0-.1,0-.11.12.06.13,0,0-.13,0-.16,0,0,.08,0h0a.38.38,0,0,0,.09-.15s0,0,0,0a.19.19,0,0,1,0-.07v-.06s0-.07,0-.1,0,0,0,0a1.27,1.27,0,0,1,.46,0c.15,0,.19,0,.1,0s0,.05,0,.08a.44.44,0,0,1,.05.15.13.13,0,0,1-.07.11s-.16,0-.11.07a.18.18,0,0,1,0,.14s0,0,0,.06a.15.15,0,0,0,0,.1s0,0,0,.06-.1,0-.14,0,.08.3-.1.25-.13,0-.15.07-.11,0-.14,0-.08,0-.1,0,0,.07-.14-.12l-.06-.16c0-.12,0-.11,0-.11Z" transform="translate(-0.05 0)"/><path class="cls-1" d="M36.75,27h0v-.2h0v0c0-.05,0,.07,0,0s.14,0,.19,0,0-.12.07-.13.14.07.18.05,0-.16,0-.2.06,0,.09,0h.06a.8.8,0,0,0,.18-.23s0-.05,0-.07l0-.1,0-.1a.41.41,0,0,1,0-.16s0-.05,0-.08a1,1,0,0,1,.46,0c.15,0,.19.05.1.06s-.05.08,0,.13a.42.42,0,0,1,0,.22.26.26,0,0,1-.09.16c-.05,0-.18,0-.15.1a.27.27,0,0,1,0,.2s-.05,0-.07.07a.29.29,0,0,0-.08.13.15.15,0,0,0,0,.08c0,.07-.13,0-.19,0s-.1.38-.28.29-.17,0-.21,0-.12,0-.17,0-.13,0-.22.07-.17,0-.21-.06-.07-.22,0-.25.15,0,.12,0h0Z" transform="translate(-0.05 0)"/><path class="cls-1" d="M40.42,25.86l.07,0s0,.05,0,0,0,.05.05.06.07-.09.07-.08,0,.12,0,.12.07-.11.09-.14,0,.05,0,.08,0,0,0,0a.33.33,0,0,0,.14,0s0,0,0-.05l0,0,0,0s0,0,.06,0,0,0,0,0a3.11,3.11,0,0,1,.28.36c.09.12.09.17,0,.11s-.06,0-.08,0a.27.27,0,0,1-.07.12.11.11,0,0,1-.12,0s-.1-.13-.11-.06a.18.18,0,0,1-.07.13s0,0-.07,0-.06,0-.09,0l-.05,0s0-.07-.07-.11-.2.24-.24.07-.07-.11-.13-.09,0-.08-.1-.09,0-.06-.07-.06-.08,0,0-.18l.1-.13c.08-.1.09-.08.09-.08Z" transform="translate(-0.05 0)"/><path class="cls-1" d="M40.37,25.26l.07-.06s0,.06.05,0,0,.06.09.06.06-.1.08-.09,0,.13.07.12.09-.11.12-.14,0,0,.06.08l0,0h.2s0,0,0,0l.08,0,.07,0s.07,0,.11,0,0,0,.06,0a1.19,1.19,0,0,1,.14.44c0,.14,0,.19,0,.11s0,0-.08,0-.06.08-.1.09a.11.11,0,0,1-.12,0s-.07-.14-.1-.07a.21.21,0,0,1-.09.11s0,0-.07,0-.06,0-.09,0a.09.09,0,0,0,0,0s-.05-.08-.07-.12-.18.25-.24.08-.08-.09-.13-.06-.07-.07-.12-.07,0,0-.09,0-.06,0,0-.19l.05-.15c0-.12,0-.11,0-.11Z" transform="translate(-0.05 0)"/><path class="cls-1" d="M40.36,24.56s0,0,.09,0,0,.07.07.07.1.09.16.11.1-.07.14,0,.07.14.13.15.14-.1.2-.12.07,0,.11.07a.1.1,0,0,0,.07,0,1.37,1.37,0,0,0,.34-.07s0,0,0,0a.41.41,0,0,0,.11-.07l.1-.07a.74.74,0,0,1,.21-.15s.06-.07.12,0,.11,0,.29.35c.07.13.07.18,0,.12s-.1,0-.13.06a.55.55,0,0,1-.13.17.29.29,0,0,1-.2.09c-.08,0-.17-.08-.2,0a.36.36,0,0,1-.15.17s-.09,0-.13,0a.58.58,0,0,0-.18,0s-.06,0-.09.05-.11-.08-.16-.11-.33.23-.44,0a.23.23,0,0,0-.25-.12c-.1,0-.13-.11-.21-.14s-.09-.08-.16-.1-.15-.08,0-.25a.42.42,0,0,1,.12-.1c.11-.08.1-.06.11-.06Z" transform="translate(-0.05 0)"/><path class="cls-1" d="M43.06,24.14a.41.41,0,0,0-.14.1c-.05.06-.14,0-.19,0s-.21,0-.3,0-.12.11-.19.1-.19-.11-.28-.11-.22.1-.33.12-.13-.07-.19-.11a.6.6,0,0,0-.11-.06,3.22,3.22,0,0,1-.58-.18h-.12a1.27,1.27,0,0,1-.23-.12,1.42,1.42,0,0,1-.23-.14,1.27,1.27,0,0,1-.3-.27c0-.06-.11-.11-.11-.19s0-.15.36-.29c.14-.06.18-.06.13,0s0,.11.07.13l.22.11a.56.56,0,0,1,.16.15c0,.06,0,.2.12.17a.52.52,0,0,1,.24,0s.07,0,.11.06a.4.4,0,0,0,.19,0s.06,0,.1,0,.09.09.14.14.34-.22.48-.06a.22.22,0,0,0,.29,0c.09,0,.18,0,.27,0s.14,0,.2,0,.1-.06.2.14a.86.86,0,0,1,.05.15c0,.13,0,.12,0,.13Z" transform="translate(-0.05 0)"/><path class="cls-1" d="M39.9,21.54a.44.44,0,0,0,.19.1c.09,0,.08.14.17.17s.19.17.32.22.2,0,.27,0,.21.2.34.23a3.8,3.8,0,0,0,.46-.05.77.77,0,0,1,.27.11.76.76,0,0,0,.16.06,8.17,8.17,0,0,0,.85.09s.1,0,.15,0h.33l.32-.05c.16,0,.3-.08.45-.12s.13-.08.22-.07.17,0,.3.35c0,.14,0,.21-.07.16s-.2.05-.3.11a2.17,2.17,0,0,1-.44.19,1,1,0,0,1-.43,0c-.12,0-.23-.14-.35-.08a.85.85,0,0,1-.38.09,2.08,2.08,0,0,1-.23,0,1.23,1.23,0,0,0-.33,0A1,1,0,0,0,42,23c-.11,0-.19-.1-.27-.16-.25-.14-.6.16-.84-.08a.91.91,0,0,0-.49-.22c-.17,0-.28-.2-.42-.29s-.18-.17-.29-.24a.21.21,0,0,1-.06-.34.32.32,0,0,1,.12-.11c.11-.07.12,0,.13,0Z" transform="translate(-0.05 0)"/><path class="cls-1" d="M46.82,20.81a2.89,2.89,0,0,1-.38.26c-.13.09-.31,0-.46.1a3.4,3.4,0,0,1-.71.12,3.39,3.39,0,0,1-.45.15c-.23,0-.46-.08-.69-.07s-.51.12-.77.13a1.63,1.63,0,0,1-.48-.13l-.28-.09a7.56,7.56,0,0,1-1.4-.43,2.5,2.5,0,0,1-.26-.07c-.18-.08-.35-.17-.53-.27s-.35-.2-.51-.31a4.16,4.16,0,0,1-.72-.55c-.1-.11-.24-.19-.31-.33s-.11-.26.23-.43c.14-.07.23,0,.21.07s.18.22.3.32l.57.35a5.74,5.74,0,0,1,.5.36c.13.11.22.3.41.32a3,3,0,0,1,.55.12,3,3,0,0,1,.32.12,2.15,2.15,0,0,0,.5.12,1,1,0,0,0,.25,0c.15,0,.27.12.41.18.41.16.83-.2,1.23-.06a1.3,1.3,0,0,0,.78,0c.22-.07.47,0,.7-.09a2.75,2.75,0,0,0,.49-.14c.14-.08.17-.09.38,0a.34.34,0,0,1,.15,0c.12.06.06.15,0,.19Z" transform="translate(-0.05 0)"/><path class="cls-1" d="M47.38,20.12l-.46,0c-.2,0-.36-.14-.54-.17a5.11,5.11,0,0,1-.83-.29,5.35,5.35,0,0,1-.55-.11c-.26-.11-.46-.32-.71-.43s-.61-.17-.89-.3a2.4,2.4,0,0,1-.47-.37l-.28-.22a12.86,12.86,0,0,1-1.39-1.07L41.05,17h0s0,0-.23.12l-.17.11-.56.2a2.68,2.68,0,0,1-1.14.16.89.89,0,0,1-.7-.3s0-.06,0-.08.08-.11.07-.12,0,0,0-.06a.21.21,0,0,1,.09-.2c.19-.09.34.05.29.09,0,.23.23.13.38.11a4.91,4.91,0,0,0,.76-.17,4,4,0,0,1,.56-.17l.1-.05c.12-.05.18,0,.36-.12.12.2.15.12.19.09h0v-.16h0l0,0,.1,0h0l.34.23.28.19c.11.08.21.19.32.28a4,4,0,0,0,.52.37,2.44,2.44,0,0,0,.28.14c.18.07.27.26.4.39.39.36,1,.27,1.4.62a1.91,1.91,0,0,0,.88.4c.28.07.53.24.82.31a4,4,0,0,0,.62.16c.16,0,.38,0,.48.28a.24.24,0,0,1,0,.17c0,.13-.11.1-.15.09Z" transform="translate(-0.05 0)"/><path class="cls-1" d="M41,16.81a3.19,3.19,0,0,0-.33-.11c-.14,0-.19-.2-.3-.27s-.29-.31-.43-.45-.26-.13-.33-.24-.15-.37-.27-.52-.35-.27-.49-.43a1.49,1.49,0,0,1-.17-.36,1.47,1.47,0,0,0-.1-.22c-.23-.32-.47-.62-.72-.92-.05,0-.12-.08-.17-.13l-.32-.35L37,12.48c-.17-.17-.36-.31-.52-.48s-.19-.15-.25-.26-.1-.21.2-.43c.12-.09.21-.06.2,0s.16.2.28.28a5.34,5.34,0,0,1,.48.35,2.86,2.86,0,0,1,.36.42c.09.14.09.33.24.4a1.58,1.58,0,0,1,.41.31,1.6,1.6,0,0,1,.18.25,3.17,3.17,0,0,0,.29.35,1.21,1.21,0,0,0,.16.16c.12.08.09.26.14.38.12.36.62.44.7.81a.92.92,0,0,0,.39.53c.15.12.23.32.39.44a1.64,1.64,0,0,0,.33.26.29.29,0,0,1,.21.33.41.41,0,0,1-.05.16c-.06.11-.11.07-.13.06Z" transform="translate(-0.05 0)"/><path class="cls-1" d="M36,9.14c.34.09.67.18,1,.25s.81.31,1.22.42c.65.17,1.26.44,1.9.65.4.14.84.18,1.24.33.61.2,1.14.57,1.73.8s1.35.43,2,.63c.42.13.83.33,1.25.48a6.44,6.44,0,0,0,.74.25,21.93,21.93,0,0,0,3.92.7c.24,0,.48,0,.73,0,.53,0,1.07,0,1.6,0s1.07,0,1.61-.11c.79-.08,1.59-.25,2.39-.38.41-.07.8-.18,1.19-.24s.71-.14.54.31a.49.49,0,0,1-.52.26,3.35,3.35,0,0,0-1.3.26c-.64.14-1.28.3-2,.39a11.48,11.48,0,0,1-1.85.1,13.62,13.62,0,0,0-1.55-.11,11.5,11.5,0,0,1-1.66,0c-.34,0-.68-.11-1-.17l-1.51-.28L47,13.54a5.42,5.42,0,0,1-1.23-.48,26.21,26.21,0,0,1-3.46-1.22A9.1,9.1,0,0,0,40.13,11c-.66-.2-1.31-.49-2-.69-.48-.15-1-.34-1.44-.48a2.29,2.29,0,0,1-1.15-.55.19.19,0,0,1,0-.19c0-.11.23,0,.33,0Z" transform="translate(-0.05 0)"/><path class="cls-1" d="M45.07,25.1a.23.23,0,0,0-.14,0c-.07,0-.06-.1-.11-.1s-.1-.12-.16-.16-.15,0-.17,0,0-.18-.07-.23-.2,0-.27-.09,0-.12,0-.17a.31.31,0,0,0,0-.1,3,3,0,0,1-.18-.41s0,0-.06-.07a1.21,1.21,0,0,1-.05-.18,1.25,1.25,0,0,1,0-.19.61.61,0,0,1,0-.36s0-.08.06-.11.11,0,.45.08q.21.09.09.09c-.2,0-.06.08,0,.1a.26.26,0,0,1,.07.13.26.26,0,0,1,0,.15c0,.05-.13.12-.06.15a.38.38,0,0,1,.15.1s0,.06,0,.09a.17.17,0,0,0,.06.11s0,0,.06,0,0,.1,0,.15.33,0,.28.18,0,.15.1.16.06.11.12.14.06.07.1.07.09,0,0,.21a1.14,1.14,0,0,1-.06.15c0,.11-.07.09-.08.09Z" transform="translate(-0.05 0)"/><path class="cls-1" d="M48.05,24l-.21.06c-.09,0-.15-.07-.23-.07s-.21-.11-.32-.16-.18,0-.24,0-.12-.22-.21-.27-.27-.05-.38-.12-.09-.15-.12-.22,0-.1-.07-.14a2.62,2.62,0,0,1-.35-.61s-.07-.07-.08-.11a1.38,1.38,0,0,1-.08-.29,2.93,2.93,0,0,1,0-.29,1.36,1.36,0,0,1,0-.45c0-.07,0-.15.06-.21s.12-.1.46,0c.14.05.17.1.09.1s-.06.12,0,.18,0,.19.06.28a.71.71,0,0,1,0,.25c0,.07-.12.17,0,.22a.76.76,0,0,1,.18.18s0,.09.05.13a.38.38,0,0,0,.12.16.18.18,0,0,0,.09.06c.08,0,0,.14,0,.21s.42,0,.46.25a.24.24,0,0,0,.25.19c.1,0,.16.12.25.14s.13.06.19,0,.11,0,.17.18a.57.57,0,0,1,0,.16c0,.13,0,.11,0,.12Z" transform="translate(-0.05 0)"/><path class="cls-1" d="M50.4,23.58a1.43,1.43,0,0,0-.29,0c-.13,0-.18-.15-.28-.2s-.25-.25-.36-.37-.21-.11-.26-.21-.05-.34-.11-.48-.23-.3-.28-.47a.78.78,0,0,1,0-.34.65.65,0,0,0,0-.19c0-.32,0-.63,0-.94,0-.06,0-.11,0-.17s0-.25,0-.38,0-.26,0-.39a1.83,1.83,0,0,1,.15-.6.77.77,0,0,1,.17-.29c.07-.05.18-.11.44.16q.16.16,0,.15c-.21,0-.11.14-.13.23s0,.27,0,.4a1.75,1.75,0,0,1-.09.38c0,.11-.17.21-.11.33a1.05,1.05,0,0,1,.09.37,1.79,1.79,0,0,1,0,.23.86.86,0,0,0,0,.32.42.42,0,0,0,0,.16c0,.09-.06.19-.08.28-.07.29.34.44.28.69a.41.41,0,0,0,.2.4c.11.08.14.23.25.31a.79.79,0,0,0,.25.15c.07,0,.16,0,.18.24a.47.47,0,0,1,0,.16c0,.13-.07.1-.1.1Z" transform="translate(-0.05 0)"/><path class="cls-1" d="M54,23a1.32,1.32,0,0,0-.29-.15c-.12,0-.16-.2-.27-.27a2.52,2.52,0,0,1-.41-.45c-.09-.09-.25-.12-.33-.23s-.14-.39-.25-.55a6,6,0,0,1-.43-.54,1.24,1.24,0,0,1-.06-.43,2,2,0,0,0,0-.25,8.4,8.4,0,0,1-.12-1.22c0-.07,0-.14,0-.22a4,4,0,0,1,0-.49l0-.5a4.9,4.9,0,0,1,.11-.74,1.14,1.14,0,0,1,.1-.36c0-.07.14-.19.47,0,.14.07.16.15.07.18s-.09.23-.1.36,0,.38,0,.56a2.34,2.34,0,0,1-.08.52c0,.14-.16.28-.1.43a2,2,0,0,1,.12.46,2.8,2.8,0,0,1,0,.29,2,2,0,0,0,.06.43,1.08,1.08,0,0,0,.08.19c.06.11,0,.25,0,.37,0,.38.47.5.51.84a.77.77,0,0,0,.36.52c.15.12.23.32.39.44a2.21,2.21,0,0,0,.32.29.29.29,0,0,1,.17.37.41.41,0,0,1-.08.14c-.08.1-.12.05-.14,0Z" transform="translate(-0.05 0)"/><path class="cls-1" d="M59.49,13.26a1.46,1.46,0,0,0-.19.42c0,.17-.22.3-.27.49s-.21.55-.26.85,0,.39,0,.58a4.83,4.83,0,0,0-.12.85,7.92,7.92,0,0,0,.24,1A4.24,4.24,0,0,1,59,18a2.19,2.19,0,0,0,0,.36,12,12,0,0,0,.49,1.78,3,3,0,0,0,.16.31l.29.69c.1.22.21.45.33.66a4.42,4.42,0,0,0,.63.83c.12.13.26.2.38.32s.24.21,0,.49a.17.17,0,0,1-.3,0c-.09-.28-.33-.28-.52-.44a3.27,3.27,0,0,1-.64-.75,3.69,3.69,0,0,1-.37-.81c-.08-.24,0-.49-.2-.7a3.36,3.36,0,0,1-.37-.7c-.06-.15-.08-.32-.13-.48s-.11-.47-.19-.69a2.06,2.06,0,0,0-.12-.35,1.67,1.67,0,0,1,0-.63c0-.58-.41-1.14-.26-1.74A4.73,4.73,0,0,0,58.24,15a4.4,4.4,0,0,1,.29-1,7.18,7.18,0,0,1,.34-.68c.08-.18.24-.42.5-.4a.28.28,0,0,1,.16.07c.09.09,0,.15,0,.19Z" transform="translate(-0.05 0)"/><path class="cls-1" d="M61.65,23.65a1.28,1.28,0,0,0-.4.25c-.14.13-.35.16-.49.3a6.48,6.48,0,0,0-.67.62c-.12.16-.16.37-.27.53a5.31,5.31,0,0,0-.54.71A5.43,5.43,0,0,0,59,27c-.05.2-.18.38-.25.58a2.09,2.09,0,0,0-.13.35,7.81,7.81,0,0,0-.19,1.87c0,.11,0,.23.06.34s0,.5.08.75a3.89,3.89,0,0,0,.19.71,2.62,2.62,0,0,0,.22.48,4.87,4.87,0,0,1,.28.56c.07.19.18.34.23.52s.1.31-.28.41c-.15,0-.27-.07-.24-.19.07-.28-.16-.4-.27-.59l-.24-.39a2,2,0,0,1-.25-.45,3,3,0,0,1-.21-.92,2.49,2.49,0,0,0,0-.77,2.75,2.75,0,0,1-.13-.81A4.4,4.4,0,0,1,58,29l.08-.75c0-.13,0-.25,0-.38a1.63,1.63,0,0,1,.27-.6c.27-.53.18-1.25.62-1.72a5.25,5.25,0,0,0,.67-1,3.86,3.86,0,0,1,.78-.73,4.66,4.66,0,0,1,.66-.43.57.57,0,0,1,.66-.07.23.23,0,0,1,.09.15c0,.12-.06.13-.11.15Z" transform="translate(-0.05 0)"/><path class="cls-1" d="M59.89,34.31a7.25,7.25,0,0,0-.67.46c-.27.21-.61.29-.88.48-.42.3-.9.5-1.34.77a7.77,7.77,0,0,0-.75.65c-.4.28-.85.49-1.23.79s-.79.77-1.2,1.14a8.78,8.78,0,0,1-.86.6c-.17.12-.34.23-.51.36l-2.43,2c-.15.12-.28.27-.42.4l-1,.82-1,.82c-.5.4-.94.86-1.39,1.29a7.28,7.28,0,0,1-.7.66c-.17.13-.47.33-.57-.08a.34.34,0,0,1,.24-.39c.38-.09.5-.43.75-.7a8.64,8.64,0,0,1,1.08-1.1q.54-.48,1.11-.9a4.9,4.9,0,0,0,1-.71,8.51,8.51,0,0,1,.91-.89c.2-.18.43-.32.63-.49s.62-.49.91-.76.29-.25.44-.4a4.42,4.42,0,0,1,.85-.55c.8-.51,1.32-1.4,2.18-1.84a10.17,10.17,0,0,0,1.48-1.05c.45-.31,1-.52,1.44-.81s.7-.38,1-.59a1.45,1.45,0,0,1,.94-.34.18.18,0,0,1,.14.11c.06.12-.08.18-.15.22Z" transform="translate(-0.05 0)"/><path class="cls-1" d="M44.55,45.37a5.24,5.24,0,0,0-.95-.6,12.55,12.55,0,0,0-1.19-.67,16.58,16.58,0,0,0-2-.7c-.45-.11-.92-.12-1.37-.23-.67-.17-1.32-.42-2-.56s-1.53-.19-2.29-.3c-.48-.08-1-.23-1.42-.34-.29-.07-.57-.14-.85-.19-1.44-.25-2.88-.47-4.33-.66-.27,0-.54,0-.81-.06l-1.76-.2-1.77-.18a27,27,0,0,1-2.68-.38,4.58,4.58,0,0,1-1.39-.42.9.9,0,0,1-.39-.45c0-.17.06-.22.29-.21a.71.71,0,0,1,.48.22c.32.33.85.26,1.33.34.7.11,1.41.16,2.12.24s1.32.13,2,.24a10.16,10.16,0,0,0,1.65.28c.59,0,1.19.07,1.79.13.37,0,.74.12,1.11.18.54.08,1.09.18,1.64.24.28,0,.53.08.82.1a7.18,7.18,0,0,1,1.38.36c1.29.34,2.67.24,3.93.68a18.81,18.81,0,0,0,2.46.61,11.9,11.9,0,0,1,2.2.75,11.37,11.37,0,0,1,1.5.81,2.25,2.25,0,0,1,1,1,.18.18,0,0,1,0,.19c-.1.08-.24-.07-.33-.13Z" transform="translate(-0.05 0)"/><path class="cls-1" d="M44.94,42.5a2.5,2.5,0,0,0-.46-.7,4.37,4.37,0,0,0-.77-.65c-.48-.28-.92-.63-1.43-.88-.32-.16-.68-.22-1-.36a9.37,9.37,0,0,0-1.46-.61,9.41,9.41,0,0,0-1.76-.21c-.36,0-.73-.13-1.11-.17a4.89,4.89,0,0,0-.66-.05,18.29,18.29,0,0,0-3.36.37c-.21,0-.41.11-.62.16-.45.09-.91.16-1.37.24s-.93.15-1.41.19a8.76,8.76,0,0,1-2.17,0c-.18,0-.36,0-.56-.07a4.28,4.28,0,0,1-.51-.18c-.18-.1-.52-.17-.26-.52a.41.41,0,0,1,.53,0,.73.73,0,0,0,.49.23c.18,0,.37,0,.56,0a8.91,8.91,0,0,0,1.63-.05l1.53-.15a5.17,5.17,0,0,0,1.3-.13,10.43,10.43,0,0,1,1.36-.35c.29-.06.58-.08.87-.12l1.31-.15.66,0a3.59,3.59,0,0,1,1.13.15,11.39,11.39,0,0,1,3.13.51c.62.31,1.23.54,1.85.8a10.31,10.31,0,0,1,1.56,1,4.16,4.16,0,0,1,1,.9,1.29,1.29,0,0,1,.32,1.11.17.17,0,0,1-.19.06c-.09,0-.07-.07-.12-.15Z" transform="translate(-0.05 0)"/><path class="cls-1" d="M38.08,39a1.25,1.25,0,0,1-.33,0c-.14,0-.17-.13-.26-.15s-.23-.18-.35-.25-.21,0-.28-.07-.15-.25-.26-.33-.31-.09-.44-.16-.11-.16-.16-.23a1.7,1.7,0,0,0-.1-.14c-.21-.18-.44-.32-.66-.48,0,0-.1,0-.14-.06l-.28-.19-.27-.18a3,3,0,0,1-.41-.28c-.06-.06-.15-.08-.19-.17s-.06-.16.19-.42c.11-.11.18-.11.16,0s.12.13.21.17.25.11.37.18a1.16,1.16,0,0,1,.29.25c.07.09.07.24.2.25a.81.81,0,0,1,.35.12,1.83,1.83,0,0,1,.16.13,1.17,1.17,0,0,0,.26.17.71.71,0,0,0,.15.08c.09,0,.08.17.13.25.12.24.54.12.63.38a.47.47,0,0,0,.34.3c.13,0,.2.19.33.24s.17.12.24.12,0,0,.14.17a.94.94,0,0,1,.08.15c0,.12,0,.13,0,.14Z" transform="translate(-0.05 0)"/><path class="cls-1" d="M44.85,39.05a2.74,2.74,0,0,0-.42-.21c-.18-.07-.28-.26-.45-.34s-.47-.36-.73-.5-.37-.11-.53-.21-.43-.37-.68-.49a9.37,9.37,0,0,0-.9-.28,3.3,3.3,0,0,1-.51-.31l-.31-.17a17.54,17.54,0,0,0-1.66-.62,1.91,1.91,0,0,0-.33-.06l-.68-.18c-.23-.06-.46-.1-.7-.14s-.7-.07-1-.1a4.09,4.09,0,0,1-.5,0c-.11,0-.32-.08-.26-.44,0-.15.16-.2.25-.12s.41,0,.62,0a5.53,5.53,0,0,1,.91,0,3.93,3.93,0,0,1,.82.2c.22.08.4.26.65.26a2.94,2.94,0,0,1,.73.13,2.35,2.35,0,0,1,.44.17c.21.08.42.17.64.23s.21.08.33.1.33.22.5.33c.45.31,1.11.23,1.52.63a2.76,2.76,0,0,0,.89.55,8.43,8.43,0,0,1,.78.55c.19.12.36.28.56.39a.56.56,0,0,1,.36.48.26.26,0,0,1-.07.15c-.08.1-.14,0-.18,0Z" transform="translate(-0.05 0)"/><path class="cls-1" d="M36.16,34.19a1.69,1.69,0,0,0,.38-.07c.15,0,.3.07.45.05a5.51,5.51,0,0,1,.71.08c.15,0,.31-.07.46,0s.43.18.66.2.51,0,.76,0a2,2,0,0,1,.46.17l.27.09c.46.12.92.24,1.38.38a2.34,2.34,0,0,0,.26,0l.56.18.55.2a6.25,6.25,0,0,1,.81.33,1.23,1.23,0,0,1,.39.21c.08.07.2.19-.06.47-.1.12-.2.11-.22,0s-.25-.16-.41-.2l-.65-.2a3,3,0,0,1-.58-.26c-.16-.09-.28-.25-.48-.25a2.62,2.62,0,0,1-.57-.07,2.24,2.24,0,0,1-.34-.11,2.21,2.21,0,0,0-.51-.11,2.3,2.3,0,0,0-.26,0c-.16,0-.28-.13-.42-.2-.39-.19-.87.1-1.26-.12a1.5,1.5,0,0,0-.78-.13c-.25,0-.48-.09-.72-.1s-.35,0-.53,0a.35.35,0,0,1-.43-.18.34.34,0,0,1,0-.16c0-.13.08-.12.11-.12Z" transform="translate(-0.05 0)"/><path class="cls-1" d="M43.88,35.64a1.75,1.75,0,0,0-.33-.06c-.14,0-.23-.14-.37-.17s-.38-.18-.58-.24-.28,0-.4,0-.34-.24-.54-.28a5,5,0,0,0-.67,0,1.92,1.92,0,0,1-.39-.17,1.22,1.22,0,0,0-.24-.1c-.41-.09-.82-.18-1.23-.25h-.24l-.5-.07-.51,0c-.25,0-.51,0-.76-.06a1.76,1.76,0,0,1-.39-.06c-.08,0-.22-.11-.1-.46,0-.15.13-.18.18-.1s.27.06.42.06.42,0,.63,0a2.71,2.71,0,0,1,.58.11c.17,0,.3.2.48.16a1.58,1.58,0,0,1,.53,0,1.87,1.87,0,0,1,.32.08,4,4,0,0,0,.48.08,1.06,1.06,0,0,0,.25,0c.14,0,.25.14.37.2.35.2.83,0,1.16.22a1.37,1.37,0,0,0,.69.27,4.85,4.85,0,0,1,.62.27c.15,0,.29.15.45.19s.29.07.3.31a.28.28,0,0,1,0,.17c-.06.11-.11.07-.14.06Z" transform="translate(-0.05 0)"/><path class="cls-1" d="M37.32,32.74a.82.82,0,0,0,.24-.1c.09-.06.21,0,.31,0s.32,0,.48,0,.19-.12.3-.12.31.09.46.07.33-.14.51-.17a.8.8,0,0,1,.33.06l.19,0c.33,0,.65,0,1,0,.06,0,.13,0,.19,0l.4,0c.13,0,.27,0,.4.06a3.06,3.06,0,0,1,.6.13.62.62,0,0,1,.29.12c.06,0,.14.14,0,.46-.08.13-.15.15-.16.06s-.18-.1-.28-.11-.31,0-.46,0a1.91,1.91,0,0,1-.41-.11c-.11,0-.21-.18-.34-.13a1.36,1.36,0,0,1-.39.08l-.24,0a1,1,0,0,0-.35,0l-.18,0c-.1.05-.2-.07-.3-.1-.29-.1-.56.28-.85.15a.7.7,0,0,0-.55,0c-.16,0-.33,0-.5,0s-.24,0-.36,0-.21.07-.31-.13a.6.6,0,0,1-.05-.16c0-.13,0-.12.06-.13Z" transform="translate(-0.05 0)"/><path class="cls-1" d="M37.61,32.05a1.49,1.49,0,0,0,.17-.18c.06-.09.19,0,.27-.1s.29-.06.42-.1.16-.14.25-.15.28.08.41.06.28-.14.43-.17.18,0,.28.06a.47.47,0,0,0,.16,0l.82,0s.1,0,.15,0l.34,0,.33,0a2.07,2.07,0,0,1,.5.06c.08,0,.17,0,.25.07s.13.12,0,.46c-.06.14-.11.17-.13.08s-.16-.06-.25-.06a2.61,2.61,0,0,1-.39,0,1.53,1.53,0,0,1-.36-.07c-.09,0-.18-.18-.29-.12a.82.82,0,0,1-.32.09,1.23,1.23,0,0,1-.2,0,1,1,0,0,0-.3,0,.42.42,0,0,0-.15,0c-.08,0-.17-.08-.25-.11-.25-.1-.47.28-.7.14a.42.42,0,0,0-.42,0c-.12.07-.26,0-.38.07a1.12,1.12,0,0,0-.25.11.12.12,0,0,1-.1.06h-.1s0-.06,0-.08-.12,0-.09-.05h0s.06,0,.08,0,0,.09-.07.12a.18.18,0,0,1-.19-.07c-.06-.14,0-.15,0-.2a.27.27,0,0,1,.08-.1Z" transform="translate(-0.05 0)"/><path class="cls-1" d="M41.81,31.26l-.15,0c-.08,0-.07-.12-.14-.14s-.13-.15-.21-.18-.14.05-.2,0-.15-.16-.24-.18-.24.07-.34.07-.12-.07-.18-.1a.25.25,0,0,0-.11,0,1.87,1.87,0,0,0-.58,0s-.06.05-.09.07l-.23.07-.22.11c-.11.05-.22.13-.33.17s-.07.06-.11,0a2.8,2.8,0,0,1-.37-.26c-.11-.11-.07-.2,0-.17s.17-.07.24-.13a1.71,1.71,0,0,1,.27-.2.62.62,0,0,1,.3-.09c.1,0,.21.09.28,0a.5.5,0,0,1,.26-.17.55.55,0,0,1,.18,0l.27,0,.14,0c.09,0,.15.08.22.13s.47-.16.64,0,.23.13.39.17.21.18.31.24.12.13.2.17.2.11,0,.3a.56.56,0,0,1-.14.09c-.1.06-.09,0-.1,0Z" transform="translate(-0.05 0)"/><path class="cls-1" d="M38.43,30.87a.21.21,0,0,0-.14,0c-.06,0,0-.11-.09-.12s-.09-.13-.16-.17-.14,0-.17,0,0-.18-.11-.22-.21,0-.29,0-.06-.09-.09-.14l-.06-.08-.41-.23s-.07,0-.09,0l-.17-.07-.18-.07a1.14,1.14,0,0,1-.26-.09s-.1,0-.13-.07,0-.12.1-.45c.06-.14.11-.16.1-.08s.09.07.15.08a1.1,1.1,0,0,1,.26,0,.39.39,0,0,1,.19.12c0,.06,0,.19.14.16a.36.36,0,0,1,.23,0s.07.05.11.07a.45.45,0,0,0,.17.08l.1,0c.07,0,0,.12.08.18s.4-.05.44.17.1.17.2.2.1.16.18.2.07.11.14.13.11.05,0,.24l-.1.12c-.1.09-.1.07-.11.06Z" transform="translate(-0.05 0)"/><path class="cls-1" d="M37.69,32.18a.67.67,0,0,0-.17-.08c-.07,0,0-.15-.11-.18s-.11-.19-.19-.27-.17,0-.21-.08-.07-.22-.15-.29-.25-.06-.36-.11-.08-.12-.12-.19-.05-.08-.09-.1l-.54-.44s-.09,0-.12-.05l-.21-.18-.21-.15c-.1-.07-.22-.13-.31-.2s-.12-.05-.15-.12-.06-.13.14-.44c.08-.12.15-.13.14-.05s.11.11.19.14a1.73,1.73,0,0,1,.34.14.84.84,0,0,1,.23.23c.05.08,0,.23.14.24a.58.58,0,0,1,.28.09s.08.09.12.12a.56.56,0,0,0,.2.14s.07,0,.12,0,.08.15.12.22.5.07.55.34a.43.43,0,0,0,.26.31c.11.07.13.22.21.3s.1.16.17.21.13.11,0,.28a.68.68,0,0,1-.12.11c-.11.07-.11,0-.12,0Z" transform="translate(-0.05 0)"/><path class="cls-1" d="M33.42,29.58a1.15,1.15,0,0,0,.26,0c.12,0,.17.14.27.17s.25.2.38.28.23,0,.31.11.15.29.27.39.32.15.45.27.11.2.15.3a1,1,0,0,0,.07.18c.17.27.35.54.49.82,0,0,.08.08.11.14s.11.22.17.34l.15.35a2.79,2.79,0,0,1,.2.55.68.68,0,0,1,.06.29c0,.07,0,.19-.42.21-.14,0-.2,0-.13-.09s0-.2-.06-.29-.15-.25-.21-.38a1.36,1.36,0,0,1-.12-.39c0-.12,0-.27-.06-.34a1,1,0,0,1-.26-.28,1.86,1.86,0,0,1-.1-.2,1.65,1.65,0,0,0-.19-.27c-.05,0-.07-.08-.12-.12s0-.2-.07-.3c-.08-.28-.53-.22-.6-.5a.58.58,0,0,0-.36-.34c-.14-.05-.21-.21-.35-.27s-.18-.14-.29-.16-.19,0-.18-.27a.37.37,0,0,1,0-.16c0-.12.09-.09.11-.08Z" transform="translate(-0.05 0)"/><path class="cls-1" d="M35.2,34.84a1,1,0,0,0-.23-.22c-.1-.08-.09-.24-.18-.33s-.2-.35-.33-.5-.23-.14-.3-.25-.15-.36-.27-.5a6.42,6.42,0,0,0-.53-.38,1.36,1.36,0,0,1-.21-.35,1.33,1.33,0,0,0-.14-.19,11.1,11.1,0,0,0-.85-.83,1.18,1.18,0,0,0-.19-.11l-.38-.29c-.12-.1-.26-.18-.39-.27l-.61-.36a1.53,1.53,0,0,1-.3-.19c-.06-.06-.15-.18.08-.47.1-.12.19-.11.2,0,0,.24.22.16.35.21a3.57,3.57,0,0,1,.56.26,1.93,1.93,0,0,1,.45.36c.11.12.15.31.31.36a1.31,1.31,0,0,1,.45.25,2.39,2.39,0,0,1,.23.22,2.58,2.58,0,0,0,.34.32.94.94,0,0,0,.19.14c.12.07.12.25.18.37.17.34.7.38.81.77a1.29,1.29,0,0,0,.41.59c.16.14.21.37.34.54s.15.27.26.39a.31.31,0,0,1,0,.42.44.44,0,0,1-.12.11c-.11.06-.13,0-.15,0Z" transform="translate(-0.05 0)"/><path class="cls-1" d="M29.13,29.63a2.28,2.28,0,0,0,.36.15c.15,0,.22.23.35.31a4,4,0,0,1,.52.49c.11.11.29.15.4.27s.21.41.35.59.41.33.57.53a1.71,1.71,0,0,1,.19.46c0,.09.06.18.11.27A9.13,9.13,0,0,1,32.54,34c0,.08.1.16.12.24s.11.38.15.57.09.39.12.58a5.37,5.37,0,0,1,.09.89,1.43,1.43,0,0,1,0,.46c0,.1-.1.25-.46.13-.15,0-.18-.14-.1-.2s0-.29,0-.44l-.13-.65a4.36,4.36,0,0,1-.07-.62c0-.17.06-.36,0-.52a3,3,0,0,1-.27-.49l-.11-.33a2,2,0,0,0-.22-.46c-.05-.07-.09-.14-.15-.21s-.08-.29-.12-.44c-.13-.41-.66-.54-.79-.94A1.2,1.2,0,0,0,30,31c-.19-.14-.31-.36-.49-.51s-.26-.23-.41-.31a.36.36,0,0,1-.26-.38.29.29,0,0,1,.06-.16c.07-.11.12-.06.15,0Z" transform="translate(-0.05 0)"/><path class="cls-1" d="M30.08,37.84a2.58,2.58,0,0,0-.22-.44c-.11-.17-.08-.4-.17-.58s-.2-.59-.33-.88-.27-.31-.35-.49a5.93,5.93,0,0,0-.32-.83,6.84,6.84,0,0,0-.65-.76,3.76,3.76,0,0,1-.3-.56c-.06-.1-.12-.22-.19-.32a15.07,15.07,0,0,0-1.24-1.41L26,31.35l-.56-.5c-.2-.16-.39-.33-.59-.48L24,29.71a4.07,4.07,0,0,1-.48-.33c-.09-.09-.24-.26.06-.5.13-.09.26-.06.29.05.07.28.33.25.52.36a7.32,7.32,0,0,1,.81.5,3.78,3.78,0,0,1,.67.59c.18.18.26.44.49.56a3.35,3.35,0,0,1,.64.48c.12.11.21.26.32.38s.32.37.49.55a3.19,3.19,0,0,0,.26.26c.16.14.19.39.28.57.25.54.88.85,1,1.44a3.5,3.5,0,0,0,.46,1,7,7,0,0,1,.36,1c.09.22.14.47.24.69a.62.62,0,0,1,0,.63.23.23,0,0,1-.14.09c-.13,0-.14-.06-.16-.11Z" transform="translate(-0.05 0)"/><path class="cls-1" d="M26.3,39a.84.84,0,0,0-.1-.5,5.78,5.78,0,0,0-.22-.67c-.2-.34-.29-.73-.47-1.08s-.31-.4-.41-.62-.24-.71-.42-1-.5-.66-.74-1a6.67,6.67,0,0,1-.35-.71c-.07-.13-.14-.28-.22-.41A21.13,21.13,0,0,0,22,31.16c-.09-.11-.22-.19-.31-.3s-.43-.46-.65-.68-.47-.42-.7-.63-.74-.58-1.12-.86c-.18-.15-.4-.25-.58-.42s-.31-.3,0-.52a.22.22,0,0,1,.34.09c.11.3.4.3.64.45a9.28,9.28,0,0,1,1,.67,6.4,6.4,0,0,1,.79.77,4,4,0,0,0,.57.72,4.58,4.58,0,0,1,.72.67,4.49,4.49,0,0,1,.37.49c.18.24.35.49.54.72s.18.24.29.35a2.7,2.7,0,0,1,.33.71c.28.67,1,1.12,1.17,1.83a5.09,5.09,0,0,0,.58,1.25c.21.35.3.77.48,1.14a5.27,5.27,0,0,1,.32.9c.09.23.07.7-.25.8a.18.18,0,0,1-.17,0c-.1-.08-.05-.14,0-.18Z" transform="translate(-0.05 0)"/><path class="cls-1" d="M19.59,39.19a2,2,0,0,0-.17-.72c-.12-.27-.13-.61-.28-.9s-.34-.93-.57-1.37-.39-.52-.54-.79a11.53,11.53,0,0,0-.65-1.26A14.84,14.84,0,0,0,16.31,33c-.22-.25-.39-.54-.59-.81s-.24-.32-.38-.46a22.34,22.34,0,0,0-2.21-2c-.15-.12-.32-.2-.46-.31-.33-.24-.65-.49-1-.72s-.68-.45-1-.67L9.08,27a8.13,8.13,0,0,1-.81-.47c-.17-.12-.44-.34-.07-.55a.33.33,0,0,1,.43.1c.19.33.54.35.86.5s.89.45,1.32.71a10.25,10.25,0,0,1,1.15.8,5.86,5.86,0,0,0,.89.76,7.1,7.1,0,0,1,1.05.7c.2.16.39.35.58.52l.85.79c.16.13.27.26.43.39a3.12,3.12,0,0,1,.59.81c.53.76,1.39,1.3,1.77,2.17A11.19,11.19,0,0,0,19,35.83a9.75,9.75,0,0,1,.62,1.49A8.3,8.3,0,0,1,20,38.45a1,1,0,0,1-.1,1,.18.18,0,0,1-.17,0c-.13,0-.1-.16-.1-.23Z" transform="translate(-0.05 0)"/><path class="cls-1" d="M8.43,25.84a1.26,1.26,0,0,0,.35-.64A3.61,3.61,0,0,0,9,24.27a8.16,8.16,0,0,0-.12-1.55c-.07-.33-.26-.63-.36-.95a9.69,9.69,0,0,0-.45-1.45c-.24-.51-.59-1-.88-1.46-.18-.3-.3-.65-.47-1a6.1,6.1,0,0,0-.29-.57c-.57-.92-1.18-1.81-1.84-2.68-.12-.16-.27-.3-.39-.45l-.82-1-.85-1c-.43-.5-.87-1-1.3-1.51C1,10.37.78,10.14.59,9.86s-.32-.51.12-.57a.37.37,0,0,1,.38.28c.08.39.42.54.68.82s.74.76,1.09,1.17a12.89,12.89,0,0,1,.93,1.17,5.71,5.71,0,0,0,.71,1,10.71,10.71,0,0,1,.89,1c.17.22.31.46.47.69s.46.69.71,1c.12.17.22.33.36.5a4.35,4.35,0,0,1,.45,1,17.6,17.6,0,0,1,1.41,2.64c.15.64.38,1.22.57,1.84a6.12,6.12,0,0,1,.16,1.76,3.71,3.71,0,0,1-.29,1.3c-.11.33-.47.78-.86.72a.16.16,0,0,1-.14-.11c-.05-.12.07-.16.13-.21A.46.46,0,0,0,8.43,25.84Z" transform="translate(-0.05 0)"/><path class="cls-1" d="M18.73,27.52a.76.76,0,0,0,.17-.43c0-.2.14-.4.15-.64s.11-.7.1-1.06-.11-.45-.11-.67a5.68,5.68,0,0,0,0-1,8,8,0,0,0-.41-1.06,7.16,7.16,0,0,1-.17-.7c0-.13-.07-.27-.12-.4a10.08,10.08,0,0,0-1.05-1.87c-.08-.11-.19-.2-.27-.3s-.36-.45-.55-.67-.4-.43-.6-.63-.66-.58-1-.87c-.17-.15-.36-.27-.51-.43s-.26-.31.09-.51a.2.2,0,0,1,.31.1c.07.3.35.32.56.47s.59.43.86.68a5.51,5.51,0,0,1,.68.77,3.13,3.13,0,0,0,.47.71,4.08,4.08,0,0,1,.62.69c.11.15.19.33.29.49l.41.75c.08.13.13.25.21.37A2,2,0,0,1,19,22c.13.66.65,1.25.59,2a7.11,7.11,0,0,0,.06,1.31,6.64,6.64,0,0,1-.11,1.18,6,6,0,0,1-.2.87c0,.22-.29.6-.61.51a.2.2,0,0,1-.12-.12c-.05-.12,0-.14.05-.17Z" transform="translate(-0.05 0)"/><path class="cls-1" d="M23.6,28.63a.47.47,0,0,0,.17-.22c0-.11.19-.15.23-.28s.23-.35.31-.55,0-.29.08-.41.25-.33.3-.52a3,3,0,0,0,0-.67,1.38,1.38,0,0,1,.09-.39,1.07,1.07,0,0,0,0-.25,3.51,3.51,0,0,0-.28-1.19c0-.07-.09-.13-.12-.2s-.16-.29-.25-.43a2.86,2.86,0,0,0-.3-.41c-.17-.2-.35-.39-.5-.6a1.33,1.33,0,0,1-.24-.33.37.37,0,0,1,0-.12L23,21.8c.07,0,.19,0,.39.1l.06.05,0-.21c.08,0,.13,0,.11.1-.06.24.15.25.26.36s.33.3.48.46a1.93,1.93,0,0,1,.34.53c.07.17,0,.37.17.5a1.39,1.39,0,0,1,.32.48,2,2,0,0,1,.09.35c0,.17.07.35.12.52a1.22,1.22,0,0,0,.06.26c.05.16-.06.31-.11.46-.12.39.15.9-.14,1.27a1.73,1.73,0,0,0-.34.71,3,3,0,0,1-.35.62,2.42,2.42,0,0,1-.34.45.3.3,0,0,1-.58,0c0-.12,0-.12,0-.14Z" transform="translate(-0.05 0)"/><path class="cls-1" d="M29,29.54a.49.49,0,0,0,.1-.19c0-.08.14-.09.17-.18s.16-.24.2-.39-.05-.21,0-.3.17-.25.18-.4a2.9,2.9,0,0,0-.14-.48,1.08,1.08,0,0,1,0-.3.55.55,0,0,0,0-.18,4.08,4.08,0,0,0-.25-.89c0-.05-.08-.09-.1-.14L29,25.75l-.19-.32c-.1-.16-.23-.31-.32-.47s-.12,0,0-.16,0-.06,0-.05a.81.81,0,0,1,0-.35c0-.16.23-.15.25,0s.19.21.28.31a2.37,2.37,0,0,1,.33.38,1.35,1.35,0,0,1,.2.42c0,.13,0,.29.09.38a1.1,1.1,0,0,1,.26.35,1.14,1.14,0,0,1,.06.25c0,.13.07.25.12.38a1.34,1.34,0,0,0,.07.18c.07.11,0,.24-.06.35-.08.3.29.64.08.95a1.15,1.15,0,0,0-.17.59c0,.19-.17.33-.26.5a2.88,2.88,0,0,1-.26.35.25.25,0,0,1-.39.07.27.27,0,0,1-.09-.13c-.06-.12,0-.12,0-.13Z" transform="translate(-0.05 0)"/><path class="cls-1" d="M30.27,29.56a.33.33,0,0,0,.11-.15c0-.08.14,0,.18-.1s.18-.13.23-.23,0-.17,0-.23.19-.15.21-.27-.07-.27-.07-.41.08-.16.11-.24a.46.46,0,0,0,.07-.14,4.74,4.74,0,0,0,.07-.74.93.93,0,0,0,0-.13,2.48,2.48,0,0,0,0-.27,2.61,2.61,0,0,0-.06-.27c0-.13-.12-.24-.16-.35s-.09-.1-.09-.17,0-.15.3-.36c.13-.08.2-.05.16,0s.07.17.14.25a2.12,2.12,0,0,1,.24.37.9.9,0,0,1,.05.4c0,.12-.13.22-.06.33a.59.59,0,0,1,.11.33.71.71,0,0,1,0,.21,1.71,1.71,0,0,0,0,.31,1,1,0,0,0,0,.16c0,.09-.1.15-.15.23s.17.52-.06.74a1,1,0,0,0-.25.47c-.05.16-.23.23-.33.34a2.92,2.92,0,0,1-.28.21c-.06.06-.17.14-.32,0a.6.6,0,0,1-.07-.14c-.05-.12,0-.12,0-.13Z" transform="translate(-0.05 0)"/><path class="cls-1" d="M33.23,29.45a.29.29,0,0,0,0-.14c0-.06.09,0,.09-.1s.07-.16.08-.26-.09-.13-.08-.19.13-.19.12-.29-.14-.21-.18-.32,0-.13,0-.21a.5.5,0,0,0,0-.12,3,3,0,0,0-.18-.6s-.06-.06-.08-.09L33,26.9l-.13-.21a1.66,1.66,0,0,0-.19-.23s-.07,0-.07-.08,0-.12.12-.45c.07-.13.15-.14.15-.05s.13.13.22.19a1,1,0,0,1,.29.26.71.71,0,0,1,.13.31c0,.09-.07.22,0,.27a.62.62,0,0,1,.2.23.58.58,0,0,1,0,.18,1.25,1.25,0,0,0,.09.25.52.52,0,0,0,.06.13c.06.07,0,.16-.06.24s.31.41.15.63A.53.53,0,0,0,34,29c0,.14-.1.26-.12.4s-.12.18-.18.28-.12.18-.3,0a.36.36,0,0,1-.1-.13c-.07-.11,0-.11,0-.12Z" transform="translate(-0.05 0)"/><path class="cls-1" d="M34.64,29.38a.41.41,0,0,0,0-.16c0-.07.11-.06.13-.12s.13-.12.18-.19,0-.15,0-.2.19-.08.21-.15,0-.21,0-.29.07-.08.1-.12a.35.35,0,0,0,0-.08.89.89,0,0,0-.09-.44s-.05,0-.07-.07,0-.1-.08-.14l-.13-.14a1.74,1.74,0,0,1-.24-.28c0-.06-.09-.08-.06-.11s0-.09.26-.38c.1-.11.2-.08.16,0s.06.14.11.17a1.53,1.53,0,0,1,.22.16.51.51,0,0,1,.16.24c0,.1,0,.22.05.27a.46.46,0,0,1,.19.2.45.45,0,0,1,0,.16,2.38,2.38,0,0,0,0,.26.43.43,0,0,0,0,.14c0,.08-.1.15-.15.21s.13.47-.11.57a.35.35,0,0,0-.21.29c0,.1-.17.14-.22.22s-.11.1-.14.18,0,.12-.25,0a.76.76,0,0,1-.13-.1c-.1-.08-.07-.09-.06-.1Z" transform="translate(-0.05 0)"/><path class="cls-1" d="M36.35,29.08a.3.3,0,0,0,0-.12c0-.05.07-.05.07-.09s.06-.1.08-.16-.1-.09-.09-.12.12-.1.11-.16-.13-.11-.17-.16,0-.08,0-.13a.11.11,0,0,0,0-.08,1.8,1.8,0,0,0-.17-.34l-.08,0L36,27.55l-.11-.12a1,1,0,0,1-.17-.18s-.07-.05-.06-.12,0-.12.31-.33c.12-.09.17-.09.12,0s0,.1.08.13a.82.82,0,0,1,.2.12.39.39,0,0,1,.1.19c0,.06-.06.18,0,.19a.35.35,0,0,1,.19.1s0,.08.05.12a.43.43,0,0,0,.09.16s0,0,.07.07,0,.13,0,.19.33.26.18.44a.31.31,0,0,0-.07.31c0,.09-.09.16-.11.25s-.07.11-.08.17,0,.13-.22.05l-.15-.08c-.1-.07-.08-.07-.08-.08Z" transform="translate(-0.05 0)"/><path class="cls-1" d="M36.09,26.72a.8.8,0,0,0,.08-.16c0-.08.13,0,.16-.08s.16,0,.2-.08,0-.13,0-.15.16,0,.19-.07,0-.18,0-.26.07-.07.11-.11.05,0,.05-.06a1.43,1.43,0,0,0,0-.43s0-.06,0-.1,0-.15,0-.21v-.16a3,3,0,0,1,0-.34.11.11,0,0,0,0-.06H37l.11,0h0a.73.73,0,0,1,.15-.17c.13-.09.26.07.18.13s0,.16,0,.21a.41.41,0,0,1,.09.21.63.63,0,0,1-.05.26c0,.07-.16.1-.09.17a.42.42,0,0,1,.1.2s0,.08,0,.13a.74.74,0,0,0,0,.21.5.5,0,0,0,0,.12c0,.08-.11.11-.16.15s.12.42-.13.51a.43.43,0,0,0-.28.24c-.07.11-.21.08-.27.13s-.11,0-.14.08,0,.08-.2-.05l-.13-.1c-.09-.09-.06-.1-.05-.12Z" transform="translate(-0.05 0)"/><path class="cls-1" d="M36.4,23.17a1.58,1.58,0,0,0,.08.28c0,.09-.07.18,0,.28s-.08.3-.11.45,0,.24,0,.34a.64.64,0,0,1-.2.2.78.78,0,0,0-.19.12c-.11.12-.15.31-.25.44a.65.65,0,0,1-.27.15.78.78,0,0,0-.15.1,3.85,3.85,0,0,1-.83.43s-.09.07-.15.09a2,2,0,0,1-.35.11l-.36.09a4.89,4.89,0,0,1-.53.09.82.82,0,0,1-.27,0c-.07,0-.17-.08-.15-.45,0-.14.06-.19.11-.11s.18,0,.28,0,.26-.1.39-.13a1.57,1.57,0,0,1,.37-.05c.11,0,.24.1.33,0a1.31,1.31,0,0,1,.27-.21l.19-.07a.79.79,0,0,0,.25-.15s.07-.06.09-.12.17-.06.26-.09c.25-.1.18-.53.46-.58s.2-.14.2-.29.11-.24.11-.38a1.12,1.12,0,0,0,0-.31c0-.11,0-.12.16-.23a.58.58,0,0,1,.14-.08c.12,0,.13,0,.14.05Z" transform="translate(-0.05 0)"/><path class="cls-1" d="M32.48,25.83a.49.49,0,0,0,.17-.18c.05-.09.19-.08.25-.16s.24-.19.34-.32,0-.22.11-.29.27-.19.34-.33a3,3,0,0,0,.13-.52c0-.11.14-.17.2-.26a.57.57,0,0,0,.11-.16l.19-.42a1.5,1.5,0,0,0,0-.43,1.8,1.8,0,0,1,0-.19l0-.38c0-.13,0-.26-.07-.38s-.12-.38-.16-.57a.77.77,0,0,1-.06-.3s0,0,.09,0,.1-.16.26-.25.27.11.19.15,0,.22.08.33a2.55,2.55,0,0,1,.2.48,1.57,1.57,0,0,1,0,.48c0,.15-.12.28,0,.41a1.47,1.47,0,0,1,.13.42,1.2,1.2,0,0,1,0,.31,3.31,3.31,0,0,1-.13.41,1.18,1.18,0,0,0,0,.2c0,.13-.17.19-.24.28-.23.22-.07.68-.38.87a1.07,1.07,0,0,0-.39.48c-.1.17-.29.25-.43.39s-.23.15-.33.25a.25.25,0,0,1-.38,0,.38.38,0,0,1-.09-.14c-.06-.12,0-.12,0-.14Z" transform="translate(-0.05 0)"/><path class="cls-1" d="M33.68,19.88a1.5,1.5,0,0,0,.09.32c0,.11,0,.25,0,.38a1.82,1.82,0,0,1-.07.64c0,.16,0,.31-.06.44s-.3.3-.39.46-.14.42-.26.61a1.16,1.16,0,0,1-.31.27l-.19.16a7.65,7.65,0,0,1-.88.83c-.06.05-.1.12-.15.17l-.39.31-.39.3a1.62,1.62,0,0,1-.78.34c-.13,0-.21.06-.29,0s-.16,0-.31-.35c-.05-.14.05-.24.14-.18s.29,0,.41-.08a1.61,1.61,0,0,0,.42-.25A3,3,0,0,1,30.7,24c.14-.07.32-.05.4-.2a1.57,1.57,0,0,1,.3-.37c.06-.07.15-.12.22-.19a1.47,1.47,0,0,0,.3-.31,1.08,1.08,0,0,0,.11-.18c0-.12.22-.14.33-.21.3-.2.21-.71.52-.89a.65.65,0,0,0,.29-.52,3.18,3.18,0,0,0,.08-.52c0-.14,0-.29,0-.45a.28.28,0,0,1,.16-.36.59.59,0,0,1,.16-.06c.13,0,.12.05.12.08Z" transform="translate(-0.05 0)"/><path class="cls-1" d="M32.8,18.86l.07.38c0,.15-.09.29-.1.44a2.57,2.57,0,0,1-.2.65c0,.13,0,.31-.07.44s-.28.34-.38.53-.14.48-.27.69a1.34,1.34,0,0,1-.35.32,1.73,1.73,0,0,0-.21.17,5.53,5.53,0,0,1-1.07.86c-.07.05-.12.12-.2.17s-.32.17-.48.25L29,24a7.05,7.05,0,0,1-.76.3,1.25,1.25,0,0,1-.39.11h-.12s0,0,0-.06-.13-.14-.13-.13-.11,0-.1-.14.08-.24.18-.19.27-.06.4-.13l.57-.29a3.16,3.16,0,0,1,.54-.2c.16-.05.36,0,.47-.15a3.09,3.09,0,0,1,.38-.35c.08-.07.18-.12.26-.18a1.73,1.73,0,0,0,.35-.31,2.31,2.31,0,0,0,.14-.19c.05-.13.23-.15.35-.23.33-.23.23-.75.53-1a1,1,0,0,0,.31-.64c0-.21.18-.39.21-.61a1.78,1.78,0,0,0,.08-.45.33.33,0,0,1,.17-.38.3.3,0,0,1,.16-.06c.12,0,.12.06.12.1Z" transform="translate(-0.05 0)"/><path class="cls-1" d="M31.61,17.45a4.09,4.09,0,0,1,0,.49c0,.2-.15.35-.19.53a3.13,3.13,0,0,1-.42.76,3.38,3.38,0,0,1-.24.51c-.19.2-.45.33-.64.52s-.38.48-.62.68a1.72,1.72,0,0,1-.53.25l-.32.13a9.18,9.18,0,0,1-1.59.58l-.3.11c-.22.06-.44.1-.67.14l-.67.11a7.07,7.07,0,0,1-1,.11,2.18,2.18,0,0,1-.51,0c-.12,0-.31-.08-.21-.45,0-.15.15-.2.23-.12s.34,0,.53,0,.52-.11.79-.15.48-.06.73-.07.43.08.62,0a3.66,3.66,0,0,1,.61-.27c.12-.05.26-.06.39-.11a2.66,2.66,0,0,0,.55-.23,1.32,1.32,0,0,0,.25-.16c.13-.12.34-.09.5-.15.48-.17.63-.75,1.05-1a1.35,1.35,0,0,0,.59-.66,7.84,7.84,0,0,0,.41-.69,2.14,2.14,0,0,0,.17-.56c0-.16,0-.28.22-.44a.38.38,0,0,1,.17-.07c.12,0,.11.08.11.13Z" transform="translate(-0.05 0)"/><path class="cls-1" d="M29.18,14.36a1.35,1.35,0,0,1,.15.66c0,.26-.2.48-.28.67a4.19,4.19,0,0,1-.58.86,4.08,4.08,0,0,1-.34.57,8.66,8.66,0,0,1-.79.6c-.27.24-.5.55-.79.77a2.51,2.51,0,0,1-.65.28c-.13.05-.26.09-.38.15a10.45,10.45,0,0,1-2,.64c-.12,0-.24.09-.36.11a7.9,7.9,0,0,1-.83.12c-.27,0-.55.06-.83.08a8.69,8.69,0,0,1-1.25,0,2.64,2.64,0,0,1-.63-.06c-.14,0-.36-.13-.17-.48.07-.14.2-.16.28-.08s.42.07.64.06l1-.07c.3,0,.6,0,.9,0a1.72,1.72,0,0,0,.75,0,7.67,7.67,0,0,1,.76-.27c.15-.05.32-.07.48-.12a3.29,3.29,0,0,0,.68-.26,1.62,1.62,0,0,0,.32-.17,2.07,2.07,0,0,1,.61-.19c.58-.2.84-.84,1.36-1.1a2.06,2.06,0,0,0,.77-.78,8,8,0,0,0,.57-.82,1.42,1.42,0,0,0,.24-.61,1.47,1.47,0,0,1,0-.5.25.25,0,0,1,.07-.16c.08-.1.18,0,.22.06Z" transform="translate(-0.05 0)"/><path class="cls-1" d="M18.21,18.5a1.94,1.94,0,0,0,.54-.13c.21-.09.46-.05.66-.16a3.68,3.68,0,0,0,.91-.5,5.36,5.36,0,0,0,.38-.55,3.76,3.76,0,0,0,.64-.79,8.52,8.52,0,0,0,.34-1.12,5.21,5.21,0,0,1,.33-.67,3.75,3.75,0,0,0,.19-.41A9.37,9.37,0,0,0,22.7,12c0-.13,0-.27,0-.4,0-.3,0-.59,0-.89a8.58,8.58,0,0,0-.1-.87,8.76,8.76,0,0,0-.33-1.27A6.44,6.44,0,0,1,22,8c-.05-.14-.12-.4.29-.42a.21.21,0,0,1,.24.23c-.06.31.17.46.28.71a5.9,5.9,0,0,1,.36,1.1,4.18,4.18,0,0,1,.08,1.06,5.25,5.25,0,0,0-.09.88,3.36,3.36,0,0,1,0,.95,5.41,5.41,0,0,1-.12.58l-.21.85a3,3,0,0,0-.1.43,2.24,2.24,0,0,1-.36.66c-.34.59-.26,1.4-.77,1.95-.33.34-.57.71-.89,1.06a3.06,3.06,0,0,1-1.1.64,5.76,5.76,0,0,1-.88.24.79.79,0,0,1-.76-.12s-.05-.07,0-.09l0,0c0,.08.06-.25.12-.17Z" transform="translate(-0.05 0)"/><path class="cls-1" d="M21.83,7.42a5.68,5.68,0,0,0-.07.61c0,.25-.25.49-.36.68a9.16,9.16,0,0,1-.69.85c-.14.19-.21.44-.36.62s-.55.44-.79.69-.5.61-.8.87a3.81,3.81,0,0,1-.65.38,2.82,2.82,0,0,0-.38.21c-.62.39-1.26.76-1.89,1.11a3.88,3.88,0,0,0-.33.23l-.78.42c-.27.14-.54.28-.82.4a4.69,4.69,0,0,1-1.35.4,1.84,1.84,0,0,1-.74,0c-.16,0-.41-.13-.19-.47.08-.14.21-.17.29-.08s.44,0,.66,0a7.7,7.7,0,0,0,.95-.35c.29-.13.58-.26.89-.38a2.11,2.11,0,0,0,.76-.31,6.87,6.87,0,0,1,.72-.52c.16-.1.33-.16.49-.26a7.06,7.06,0,0,0,.69-.42c.11-.09.21-.15.32-.25s.42-.19.63-.3c.6-.29.86-1,1.4-1.31a2.63,2.63,0,0,0,.81-.91c.2-.31.5-.54.71-.86a1.18,1.18,0,0,0,.32-.66.75.75,0,0,1,.32-.6.28.28,0,0,1,.18,0c.12,0,.08.12.07.18Z" transform="translate(-0.05 0)"/><path class="cls-1" d="M37.11,24a.35.35,0,0,0,.14,0c.06,0,0,.1.11.11s.13.11.22.14.14-.06.19,0,.14.16.23.17.21-.09.31-.11.12,0,.18.08a.21.21,0,0,0,.1,0,2,2,0,0,0,.54-.07s.06,0,.09-.06l.2-.08a.18.18,0,0,0,.1-.07c0-.05.07-.13.13-.22s0-.1.1-.14.13-.06.44.14c.13.08.15.13.06.12s-.09.1-.11.18a.85.85,0,0,1-.15.34.52.52,0,0,1-.35.2c-.09,0-.2-.09-.26,0a.43.43,0,0,1-.24.17s-.11,0-.17,0a1.18,1.18,0,0,0-.25,0,.28.28,0,0,0-.12,0c-.08.05-.15-.08-.21-.12s-.43.23-.61,0a.45.45,0,0,0-.36-.14c-.12,0-.2-.14-.31-.19s-.14-.12-.22-.17-.16-.1,0-.27A.68.68,0,0,1,37,24c.1-.08.11-.06.12-.05Z" transform="translate(-0.05 0)"/><path class="cls-1" d="M40.08,23.16a.93.93,0,0,0,0,.21c0,.1-.15.11-.24.19l0,0c-.17.1-.3,0-.4,0s-.11.12-.2.12-.24-.11-.35-.09-.24.14-.37.17-.17,0-.25-.06l-.14,0a5.71,5.71,0,0,1-.71-.08l-.14,0c-.1,0-.19,0-.29-.06l-.29-.06a2.07,2.07,0,0,1-.42-.14c-.07,0-.15,0-.2-.11s-.08-.13.11-.44c.08-.13.14-.15.13-.06s.12.09.19.09l.33,0a.75.75,0,0,1,.28.11c.07.05.13.19.23.14a.59.59,0,0,1,.28-.06.75.75,0,0,1,.16,0,.7.7,0,0,0,.25,0,.35.35,0,0,0,.13,0c.07,0,.13.08.2.11s.39-.29.59-.14a.39.39,0,0,0,.39,0c.12-.05.23,0,.25,0h0s.09,0,.11-.12,0-.13.25-.07A.44.44,0,0,1,40,23c.11.06.08.08.07.1Z" transform="translate(-0.05 0)"/><path class="cls-1" d="M39.47,20.48a2.29,2.29,0,0,0-.08.28c0,.12-.18.16-.24.25s-.28.22-.42.32-.13.2-.24.25-.35,0-.49.09-.32.22-.5.27a.89.89,0,0,1-.36,0,1.38,1.38,0,0,0-.2,0,6.39,6.39,0,0,1-1-.09c-.06,0-.13,0-.19,0l-.38-.08L35,21.62a2,2,0,0,1-.63-.22.73.73,0,0,1-.3-.28c-.05-.11-.05-.25.31-.36.14-.05.18-.06.14,0s.09.13.17.14.27,0,.41.07a1.53,1.53,0,0,1,.41.14c.1.05.19.2.32.16a1.33,1.33,0,0,1,.39,0,1.42,1.42,0,0,1,.22.05,1.3,1.3,0,0,0,.34,0,.53.53,0,0,0,.17,0c.09,0,.19.07.28.1.3.08.47-.34.74-.27a.48.48,0,0,0,.44-.19c.1-.1.27-.12.36-.24s.17-.14.21-.24.05-.17.28-.15a.41.41,0,0,1,.16,0c.11.05.08.09.07.11Z" transform="translate(-0.05 0)"/><path class="cls-1" d="M38.59,17.44l-.08.36c0,.15-.21.2-.29.31a1.74,1.74,0,0,1-.53.33c-.1.06-.18.21-.3.25s-.39,0-.56.08-.36.22-.56.29a1.07,1.07,0,0,1-.4,0h-.23a6.4,6.4,0,0,1-1.16,0c-.07,0-.14,0-.21,0l-.47-.05L33.33,19a2.88,2.88,0,0,1-.7-.18.89.89,0,0,1-.33-.15c-.06-.06-.16-.16.06-.46.09-.13.17-.14.18-.05s.21.12.33.14l.52.07a1.93,1.93,0,0,1,.47.13c.13,0,.25.19.4.13a1.78,1.78,0,0,1,.44-.08,2.44,2.44,0,0,1,.27,0,1.89,1.89,0,0,0,.41,0,1.39,1.39,0,0,0,.19-.06c.11-.06.24,0,.36.06.35.05.57-.39.91-.34A.65.65,0,0,0,37.4,18c.14-.11.33-.13.45-.25s.19-.15.22-.26,0-.18.27-.22a.46.46,0,0,1,.16,0c.13,0,.1.08.1.12Z" transform="translate(-0.05 0)"/><path class="cls-1" d="M37.5,14.84l-.26.34c-.12.14-.32.16-.47.25a2.18,2.18,0,0,1-.74.22c-.16,0-.3.17-.47.18s-.48-.06-.71,0-.52.15-.78.18a1.77,1.77,0,0,1-.5-.07,2.89,2.89,0,0,0-.29,0,12.33,12.33,0,0,1-1.49-.15c-.09,0-.19,0-.28,0l-.6-.14-.6-.15a4.25,4.25,0,0,1-.88-.31,1.06,1.06,0,0,1-.43-.35s-.07-.19.18-.44.28,0,.25.08.19.19.32.23.43.09.67.17A3.21,3.21,0,0,1,31,15c.17.07.31.23.5.21s.39,0,.59,0a2.25,2.25,0,0,1,.36.06,2.33,2.33,0,0,0,.53,0,1.18,1.18,0,0,0,.27,0c.16,0,.31.08.46.12.44.1.87-.28,1.3-.16a1.22,1.22,0,0,0,.8-.07,5.2,5.2,0,0,0,.68-.17,1.61,1.61,0,0,0,.42-.25.39.39,0,0,1,.57-.11c.1.09,0,.14,0,.17Z" transform="translate(-0.05 0)"/><path class="cls-1" d="M36.14,10.85l-.18.48c-.09.21-.32.32-.49.46a2.87,2.87,0,0,1-.89.36,5.28,5.28,0,0,1-.53.27c-.28.06-.59,0-.87.09s-.61.23-.93.29a2.22,2.22,0,0,1-.63,0,2.17,2.17,0,0,0-.36,0,12.32,12.32,0,0,1-1.83-.14c-.12,0-.23,0-.35,0s-.48-.1-.72-.16-.49-.12-.73-.2a6,6,0,0,1-1.06-.41,4.44,4.44,0,0,1-.45-.24s-.17-.09-.22-.23.1-.15.24-.26.06-.1.1-.1.09,0,.12.08c.12.26.35.21.54.27s.54.17.81.25a6.71,6.71,0,0,1,.75.27c.22.08.4.25.64.23a5.77,5.77,0,0,1,.72,0c.15,0,.29.05.44.06a3.64,3.64,0,0,0,.66,0,1.73,1.73,0,0,0,.32,0c.19-.05.38.06.57.08.55.07,1-.36,1.55-.32a2,2,0,0,0,1-.23,8.55,8.55,0,0,0,.82-.29,1.05,1.05,0,0,0,.4-.41.54.54,0,0,1,.4-.39.24.24,0,0,1,.16,0c.12.06.07.13,0,.17Z" transform="translate(-0.05 0)"/><path class="cls-1" d="M34.39,4.77l-.26.72a3,3,0,0,1-.52.79,3.21,3.21,0,0,1-1.28.78,5.38,5.38,0,0,1-.85.38c-.44.1-.9.08-1.35.14a14.45,14.45,0,0,1-1.49.23,5,5,0,0,1-.95-.11l-.56-.09a23.46,23.46,0,0,1-2.78-.51L23.84,7l-1.1-.29-1.1-.31c-.55-.16-1.09-.31-1.63-.49a5.62,5.62,0,0,1-.82-.27c-.18-.09-.46-.24-.15-.53a.27.27,0,0,1,.4,0c.22.27.55.21.86.28s.89.2,1.33.33.81.24,1.21.39a3.63,3.63,0,0,0,1,.36A10.82,10.82,0,0,1,25,6.67c.23,0,.45.11.68.16a8.83,8.83,0,0,0,1,.16,4.35,4.35,0,0,0,.51,0,4.46,4.46,0,0,1,.88.19A15.18,15.18,0,0,0,30.51,7,3.19,3.19,0,0,0,32,6.62,4.5,4.5,0,0,0,33.18,6a3.09,3.09,0,0,0,.52-.83,2.13,2.13,0,0,1,.2-.4.67.67,0,0,1,.3-.3h0l0,0s0-.08-.08-.12.06-.13.2-.07l.06,0,0,.17a.35.35,0,0,1,0,.17Z" transform="translate(-0.05 0)"/><path class="cls-1" d="M19.24,5.33a1.17,1.17,0,0,1,.1.72c0,.28-.25.46-.33.66a7.35,7.35,0,0,1-.58.91c-.11.19-.16.44-.29.62s-.49.49-.69.76-.37.67-.6,1a3.14,3.14,0,0,1-.53.5c-.11.09-.23.18-.33.28a20.08,20.08,0,0,1-1.59,1.46c-.1.08-.18.19-.28.28l-.7.52c-.23.17-.47.35-.73.51a4.79,4.79,0,0,1-1.25.59,1.94,1.94,0,0,1-.72.11c-.17,0-.42-.09-.24-.45.06-.15.18-.19.27-.12s.42,0,.63-.12a5.21,5.21,0,0,0,.86-.48l.8-.49a2,2,0,0,0,.7-.4c.18-.23.39-.42.59-.63s.28-.22.41-.34a4.94,4.94,0,0,0,.57-.55,3.61,3.61,0,0,0,.25-.3,2.24,2.24,0,0,1,.54-.42c.51-.41.63-1.13,1.12-1.53a2.83,2.83,0,0,0,.72-1c.16-.32.43-.59.59-.92a1.91,1.91,0,0,0,.31-.65V5.6a1.08,1.08,0,0,0,0-.25.77.77,0,0,1,.05-.17c.07-.11.2,0,.24.06A.47.47,0,0,1,19.24,5.33Z" transform="translate(-0.05 0)"/><path class="cls-1" d="M52.65,16.56l-.78.27a1.53,1.53,0,0,1-.52.08,4.7,4.7,0,0,0-.53,0,4.52,4.52,0,0,1-1.53-.44c-.31-.12-.65-.16-.94-.28s-.85-.46-1.3-.61-1-.26-1.56-.42a7.23,7.23,0,0,1-1-.42c-.18-.08-.36-.17-.55-.24-1-.37-1.92-.74-2.86-1.16-.17-.07-.36-.12-.54-.19-.38-.17-.75-.36-1.13-.55s-.74-.38-1.11-.6a11.77,11.77,0,0,1-1.6-1,4.39,4.39,0,0,1-.75-.6c-.15-.16-.38-.43,0-.56a.31.31,0,0,1,.39.18c.12.36.49.43.77.61s.85.51,1.28.75.8.45,1.19.7a4.39,4.39,0,0,0,1,.59c.4.11.79.26,1.18.4s.47.22.71.31a10.7,10.7,0,0,0,1.07.41l.55.17a4.13,4.13,0,0,1,.89.45c.84.41,1.84.39,2.65.86a9.26,9.26,0,0,0,1.63.69,6.68,6.68,0,0,0,1.44.46l.54,0a3.12,3.12,0,0,0,.53-.11c.27-.07.68-.21,1-.06a.34.34,0,0,1,.15.09c.08.13-.17.22-.21.22Z" transform="translate(-0.05 0)"/><path class="cls-1" d="M58.2,23.11a1.05,1.05,0,0,0-.34.2c-.12.11-.31.11-.43.22s-.43.29-.61.49-.15.32-.26.44A4.68,4.68,0,0,0,56,25a4.49,4.49,0,0,0-.29.8,3.29,3.29,0,0,1-.3.46,2.61,2.61,0,0,0-.17.28,14,14,0,0,0-.56,1.53c0,.1,0,.2-.05.3s-.1.42-.14.63a4.5,4.5,0,0,0-.07.63,4.75,4.75,0,0,0,.05.93,3.69,3.69,0,0,1,.08.46c0,.1,0,.3-.37.32-.15,0-.23-.1-.18-.2s-.06-.37-.1-.57a3.13,3.13,0,0,1-.12-.86,3,3,0,0,1,.13-.78c.07-.22.23-.39.22-.62a3.19,3.19,0,0,1,.1-.69c0-.14.11-.27.16-.4s.16-.4.21-.6.07-.2.09-.31.22-.31.33-.46c.31-.4.25-1.05.68-1.39a3.59,3.59,0,0,0,.66-.75,2.91,2.91,0,0,1,.72-.58,4.3,4.3,0,0,1,.59-.34.45.45,0,0,1,.58,0,.24.24,0,0,1,.07.15c0,.13-.06.13-.1.14Z" transform="translate(-0.05 0)"/><path class="cls-1" d="M55.49,23a.71.71,0,0,0-.28.21c-.09.11-.26.12-.35.24s-.34.33-.46.54-.07.32-.15.45a6.1,6.1,0,0,0-.4.59,7.37,7.37,0,0,0-.16.79,2.79,2.79,0,0,1-.24.45c0,.09-.09.18-.12.27A12.65,12.65,0,0,0,53,28a2.44,2.44,0,0,0,0,.27c0,.2-.05.39-.06.58a3.31,3.31,0,0,0,0,.55,4.8,4.8,0,0,0,.29.8,2.32,2.32,0,0,1,.18.39c0,.09.08.26-.28.39-.15,0-.25,0-.21-.13s-.14-.31-.24-.48a3.09,3.09,0,0,1-.33-.74,1.63,1.63,0,0,1,0-.76c0-.22.18-.39.14-.61a2.36,2.36,0,0,1,0-.65c0-.13.08-.25.11-.38a3.9,3.9,0,0,0,.13-.57,1.57,1.57,0,0,0,0-.3c0-.18.18-.3.27-.44.25-.41.09-1,.44-1.36a2.6,2.6,0,0,0,.46-.79,2.45,2.45,0,0,1,.55-.66,2.91,2.91,0,0,1,.51-.4.41.41,0,0,1,.56,0,.3.3,0,0,1,.07.15c0,.13,0,.13-.08.14Z" transform="translate(-0.05 0)"/><path class="cls-1" d="M52.9,23.18a1.13,1.13,0,0,0-.23.26c-.08.12-.25.13-.33.23s-.34.26-.49.42-.12.27-.21.36-.32.21-.39.38,0,.46,0,.68a1.55,1.55,0,0,1-.17.4,2.5,2.5,0,0,0-.09.25l-.29,1.27a1.93,1.93,0,0,0,0,.24,4.5,4.5,0,0,0-.08.51,4.17,4.17,0,0,0,0,.5,2.42,2.42,0,0,0,.14.67c0,.1.1.18.13.28s.06.21-.26.4c-.14.07-.24,0-.21-.1s-.14-.28-.22-.44a2.18,2.18,0,0,1-.2-.69,1.7,1.7,0,0,1,0-.64c0-.18.18-.33.16-.5a1.8,1.8,0,0,1,.1-.88,4.26,4.26,0,0,0,.1-.49,2.26,2.26,0,0,0,0-.26c0-.15.14-.26.21-.39a1.25,1.25,0,0,0,.06-.61.75.75,0,0,1,.21-.66,2.94,2.94,0,0,0,.57-.61,4,4,0,0,1,.54-.45c.12-.12.28-.2.4-.33a.36.36,0,0,1,.45-.1A.45.45,0,0,1,53,23c.06.12,0,.14,0,.16Z" transform="translate(-0.05 0)"/><path class="cls-1" d="M49.63,29.74l-.28-.16c-.12-.06-.14-.22-.23-.3a2.16,2.16,0,0,1-.29-.51c-.06-.1-.21-.17-.25-.29s0-.38-.09-.55-.24-.35-.31-.54a1.34,1.34,0,0,1,0-.4,1.62,1.62,0,0,0,0-.22c-.06-.38,0-.76-.06-1.14,0-.07,0-.15,0-.22a1.66,1.66,0,0,1,0-.49,2.9,2.9,0,0,1,.14-.48,2.27,2.27,0,0,1,.33-.66c.08-.1.13-.22.25-.28s.21-.1.42.21c.09.12.08.19,0,.18s-.17.14-.21.25a4.43,4.43,0,0,0-.17.47c0,.14-.11.28-.17.41s-.2.22-.12.37a1.45,1.45,0,0,1,.12.44,2.35,2.35,0,0,1,0,.26,2.6,2.6,0,0,0,0,.4,1.06,1.06,0,0,0,.06.19c.07.11,0,.24-.05.36,0,.34.39.55.34.89a.78.78,0,0,0,.2.55c.12.13.14.33.25.47a1.68,1.68,0,0,0,.25.29.25.25,0,0,1,.12.34.44.44,0,0,1-.08.15c-.08.1-.11.05-.14,0Z" transform="translate(-0.05 0)"/><path class="cls-1" d="M47.79,24.21a1.22,1.22,0,0,0-.1.23c0,.1-.16.12-.2.2s-.2.22-.28.34,0,.21-.06.28-.22.16-.25.3,0,.35,0,.5-.1.17-.15.26a1.29,1.29,0,0,0-.09.16,2.73,2.73,0,0,0-.08.85c0,.05,0,.1,0,.15a1.88,1.88,0,0,0,.05.33,1.24,1.24,0,0,0,.1.29,1.66,1.66,0,0,0,.25.34c.05.06.13.08.17.17s.07.16-.18.43c-.11.1-.19.1-.18,0s-.14-.16-.24-.24a1.26,1.26,0,0,1-.37-.39,1,1,0,0,1-.12-.47c0-.14.11-.27,0-.38a1,1,0,0,1-.13-.4,1.07,1.07,0,0,1,0-.25c0-.12,0-.24,0-.37a1.08,1.08,0,0,0,0-.18c0-.11.13-.19.2-.28.19-.26-.13-.58.14-.86a1.07,1.07,0,0,0,.32-.5c.06-.16.24-.25.33-.38s.17-.17.23-.28.1-.19.31-.11a.55.55,0,0,1,.14.09c.1.09.06.11.05.13Z" transform="translate(-0.05 0)"/><path class="cls-1" d="M46,28.82a1.35,1.35,0,0,0-.21-.13c-.09,0-.06-.17-.12-.23s-.09-.24-.15-.36-.16-.12-.18-.2.06-.27,0-.39-.16-.24-.2-.37,0-.17,0-.26a.8.8,0,0,0,0-.15q0-.36,0-.75s0-.09,0-.14a1.7,1.7,0,0,1,.06-.31c0-.1,0-.21.07-.31a1.6,1.6,0,0,1,.19-.45c0-.07.06-.16.14-.2s.16-.07.43.19c.1.1.12.16,0,.13s-.1.11-.12.18,0,.21-.06.31a1,1,0,0,1-.11.28c0,.07-.19.13-.14.23a.63.63,0,0,1,.08.28c0,.06,0,.11,0,.17a1,1,0,0,0,0,.25.33.33,0,0,0,0,.13c0,.07-.07.14-.1.22s.3.38.18.59a.3.3,0,0,0,.06.35c.07.08,0,.21.11.3s.06.16.13.21.07,0,0,.24a.73.73,0,0,1-.06.14c-.07.12-.11.08-.13.07Z" transform="translate(-0.05 0)"/><path class="cls-1" d="M45.44,25.06a.31.31,0,0,0,0,.17c0,.08-.12.07-.15.13s-.14.14-.2.23,0,.16,0,.21-.19.11-.23.2,0,.25,0,.35-.08.11-.12.17a.33.33,0,0,0-.06.1,2.37,2.37,0,0,0-.06.59s0,.07,0,.1,0,.16,0,.23a1.8,1.8,0,0,0,.06.22c0,.11.1.2.13.31s.08.09.06.16,0,.15-.35.3c-.14.06-.2,0-.14,0s0-.14-.09-.21a1.49,1.49,0,0,1-.2-.31.72.72,0,0,1,0-.33c0-.1.13-.19.06-.28a.44.44,0,0,1-.12-.28c0-.06,0-.12,0-.18a1.23,1.23,0,0,0,0-.27.33.33,0,0,0,0-.14c0-.09.11-.14.16-.2s-.11-.5.13-.63a.46.46,0,0,0,.24-.34c0-.12.18-.17.24-.27s.13-.12.17-.2.08-.15.27,0a.58.58,0,0,1,.13.11c.09.09.06.1.05.11Z" transform="translate(-0.05 0)"/><path class="cls-1" d="M43.8,28.33a.47.47,0,0,0-.14-.08c-.07,0,0-.12-.06-.16s-.05-.18-.09-.26-.13-.07-.15-.13.07-.19,0-.27-.16-.16-.2-.26,0-.12,0-.18a.3.3,0,0,0,0-.11,3.27,3.27,0,0,1,0-.54s0-.07,0-.1a1.74,1.74,0,0,1,0-.22,1.66,1.66,0,0,1,.06-.21,1,1,0,0,1,.13-.32s0-.11.12-.13.13,0,.4.21.14.14.06.11-.09.06-.09.11A1.3,1.3,0,0,1,44,26a.34.34,0,0,1-.09.18s-.18.06-.13.14a.34.34,0,0,1,.08.19.45.45,0,0,1,0,.11c0,.05,0,.11,0,.16a.15.15,0,0,0,0,.08c0,.05-.07.09-.11.14s.29.23.17.37,0,.18,0,.25,0,.15,0,.22,0,.11.07.14.09.06-.06.21l-.13.11c-.1.07-.11,0-.12,0Z" transform="translate(-0.05 0)"/><path class="cls-1" d="M55.33,32a2.79,2.79,0,0,0-.55.2c-.21.11-.47.09-.69.2s-.7.26-1,.45-.35.33-.54.46a5.09,5.09,0,0,0-.89.59c-.29.28-.51.64-.79.93a4,4,0,0,1-.62.47c-.12.09-.25.18-.36.28-.57.53-1.14,1-1.69,1.58-.1.1-.17.22-.27.32l-.64.67c-.21.23-.41.46-.6.7s-.53.74-.77,1.12c-.11.2-.2.41-.32.6s-.25.34-.52,0a.22.22,0,0,1,0-.35c.28-.15.26-.43.38-.68a6.36,6.36,0,0,1,.61-1,5.48,5.48,0,0,1,.72-.8c.23-.2.52-.31.68-.58a6.06,6.06,0,0,1,.6-.74c.13-.14.3-.26.44-.39s.44-.39.64-.61.2-.2.29-.32a2.51,2.51,0,0,1,.63-.43c.59-.39.86-1.15,1.49-1.5a10,10,0,0,0,1.15-.77,5.83,5.83,0,0,1,1.14-.51c.28-.12.58-.18.86-.27a.79.79,0,0,1,.76,0,.2.2,0,0,1,.08.15c0,.13-.1.13-.15.15Z" transform="translate(-0.05 0)"/><path class="cls-1" d="M53.06,31.11a2.41,2.41,0,0,0-.45.16c-.17.07-.37,0-.55.1s-.57.12-.84.24-.32.22-.49.29a7.41,7.41,0,0,0-.8.25,8.32,8.32,0,0,0-.74.59,3.32,3.32,0,0,1-.54.25,2.38,2.38,0,0,0-.31.17,14.73,14.73,0,0,0-1.41,1.09c-.08.07-.14.16-.22.24l-.53.49-.52.51-.38.39a1.26,1.26,0,0,0-.26.38,2.14,2.14,0,0,1-.24.45h0s0-.06-.13.15-.21-.11-.28-.11c-.24,0-.2-.2-.12-.3l0,0c.26-.08.21-.32.28-.53a2.25,2.25,0,0,1,.56-.76,4.07,4.07,0,0,1,.62-.55c.19-.14.44-.2.57-.41a3.78,3.78,0,0,1,.5-.56c.11-.11.25-.18.37-.28s.37-.27.54-.43a3,3,0,0,0,.27-.23c.13-.15.37-.16.55-.24.52-.2.83-.8,1.41-.9a4.06,4.06,0,0,0,1-.38,5,5,0,0,1,.94-.26c.22-.07.46-.1.68-.16a.54.54,0,0,1,.59.07.24.24,0,0,1,.07.16c0,.13-.07.13-.11.14Z" transform="translate(-0.05 0)"/><path class="cls-1" d="M50.29,30.13a.38.38,0,0,0-.24.05c-.11.05-.28,0-.42,0s-.44.05-.66.1-.25.18-.38.2-.44,0-.64.09a3.85,3.85,0,0,0-.6.39,1.58,1.58,0,0,1-.44.11,2.5,2.5,0,0,0-.25.09,10.2,10.2,0,0,0-1.16.66c-.07,0-.12.13-.18.17l-.43.33-.42.35-.59.55c-.1.09-.17.22-.3.28s-.24.12-.44-.2c-.08-.13,0-.23.06-.22s.23-.18.33-.31a5.7,5.7,0,0,1,.46-.52,3.22,3.22,0,0,1,.51-.38c.17-.08.37-.09.48-.24a2,2,0,0,1,.42-.41c.1-.07.21-.12.31-.18a2.64,2.64,0,0,0,.46-.27,1.07,1.07,0,0,0,.22-.15c.12-.11.31-.07.46-.09.42-.08.69-.58,1.15-.56a1.79,1.79,0,0,0,.79-.18,4.43,4.43,0,0,1,.73-.11c.17,0,.34,0,.54-.07s.49,0,.47.3a.24.24,0,0,1-.09.14c-.1.09-.11.06-.13.06Z" transform="translate(-0.05 0)"/><path class="cls-1" d="M46.89,29.18a1,1,0,0,0-.2.15c-.06.08-.19,0-.27.1s-.28.1-.41.19-.11.19-.19.24-.3.07-.4.17-.17.3-.27.43a.76.76,0,0,1-.26.16,1.11,1.11,0,0,0-.16.11c-.22.23-.43.46-.62.7,0,.05,0,.11-.07.16l-.22.3a3.37,3.37,0,0,0-.19.32c-.08.15-.17.33-.23.47s0,.16-.09.22-.14.13-.48,0c-.14-.06-.15-.14-.06-.17s.1-.2.12-.33a2.64,2.64,0,0,1,.17-.47,1.41,1.41,0,0,1,.27-.37c.1-.09.27-.11.29-.25a1.3,1.3,0,0,1,.17-.38,1.45,1.45,0,0,1,.17-.18,2.2,2.2,0,0,0,.24-.28,1.29,1.29,0,0,0,.09-.16c.05-.11.2-.1.3-.15.28-.13.27-.61.61-.67a1,1,0,0,0,.5-.3c.13-.13.33-.14.48-.22s.24-.09.35-.16a.24.24,0,0,1,.35.06A.71.71,0,0,1,47,29c0,.13,0,.13,0,.14Z" transform="translate(-0.05 0)"/><path class="cls-1" d="M46.15,29a.82.82,0,0,0-.2.12c-.06.07-.18,0-.25.05s-.27,0-.41.09-.16.16-.25.18-.3,0-.43,0-.23.18-.35.25-.18,0-.27,0a.37.37,0,0,0-.15,0,3.69,3.69,0,0,0-.69.41s-.06.09-.1.12l-.23.21a1.43,1.43,0,0,0-.2.23,1.51,1.51,0,0,0-.19.35.66.66,0,0,1-.08.22c0,.06-.12.14-.46,0-.13-.07-.16-.12-.08-.13s.07-.18.1-.29a1.28,1.28,0,0,1,.18-.47,1,1,0,0,1,.31-.3c.11-.06.27,0,.32-.16a1,1,0,0,1,.23-.3,1.28,1.28,0,0,1,.2-.11,2.82,2.82,0,0,0,.29-.18,1.27,1.27,0,0,0,.13-.11c.08-.09.22,0,.32,0,.26,0,.49-.42.76-.33a.52.52,0,0,0,.45-.1c.12-.07.28,0,.43-.09s.22,0,.34-.09.18-.07.29.12c0,0,.05.08.07.14s0,.14,0,.14Z" transform="translate(-0.05 0)"/><path class="cls-1" d="M39.76,27.53h.08s0,0,0,0,0,.06,0,.08.11,0,.1,0-.1.07-.09.09.13,0,.16,0,0,0-.06.05,0,0,0,0V28s0,0,0,0,0,0,0,.06v.06s0,.07,0,.09,0,0,0,0a1.59,1.59,0,0,1-.43-.15c-.13-.06-.17-.07-.09-.05s0,0,0,0l-.06,0s0,0,0,0,.16,0,.09,0l-.11,0s0,0,0,0,0,0,0,0h0l.11,0c.1,0-.27,0-.11,0s.07,0,0,0,0,0,0,0,0,0,0,0,0,0,.15-.09l.14-.08.11,0Z" transform="translate(-0.05 0)"/><path class="cls-1" d="M38.67,27.18s0,0,0-.07,0,0,0,0,0,0,0,0l-.06-.08s.09.07.1.06-.09-.1-.11-.12,0,0,.07,0l0,0s0,0,0-.05l0,0a0,0,0,0,1,0,0v0s0,0,0,0,0,0,0,0h.45c.15,0,.19,0,.11,0s0,0,0,.05.06.06.06.08,0,0,0,.06-.16,0-.1,0a.36.36,0,0,1,.09.09s0,0,0,0,0,0,0,.06,0,0,0,.05-.08,0-.12,0,.15.24,0,.17-.09,0-.09,0-.07,0-.09,0,0,0-.05,0,0,.05-.11-.14l-.08-.15c-.05-.11,0-.1,0-.1Z" transform="translate(-0.05 0)"/><path class="cls-1" d="M39.25,26.93a.2.2,0,0,0,.11-.06s0,.06,0,0,0,0,0,0,0-.11,0-.1,0,.11.07.09,0-.13,0-.16,0,0,.06.05l0,0a.41.41,0,0,0,.1-.09l0,0,0-.05,0-.05s0-.07,0-.09,0,0,0,0a1.54,1.54,0,0,1,.4.22c.13.08.15.11.08.08s-.06,0-.06.05a.29.29,0,0,1,0,.13.1.1,0,0,1-.09.06s-.15-.06-.12,0a.18.18,0,0,1,0,.14s0,0-.06,0-.05,0-.07.07,0,0,0,.06-.08,0-.12-.06-.06.32-.2.19-.11-.06-.16,0-.1-.05-.15-.05-.07,0-.11,0,0,.05,0-.17V27c0-.12,0-.11,0-.11Z" transform="translate(-0.05 0)"/><path class="cls-1" d="M39.7,27.23s0,0,0-.07,0,.05,0,0,0,0,0,0v-.1a.93.93,0,0,1,0,.1.86.86,0,0,0,0-.15s0,0,0,.06a0,0,0,0,0,0,0l0,0,0,0h0v0h0l.27.19h0s0,0,0,0h0s.07.06-.12-.07A.09.09,0,0,1,40,27a.22.22,0,0,1,.23-.05c.13.05.12.1.1.14s-.08.09-.06.13a.09.09,0,0,1,0,.07s0,.08,0,.07a.22.22,0,0,1,0,.11s0,0-.07,0-.13-.1-.1,0a.2.2,0,0,1,0,.12s0,0,0,0,0,0,0,0,0,0,0,0-.06-.06-.08-.09,0,.29-.11.14-.06-.07-.09,0-.06,0-.08,0,0,0-.06,0-.05,0,0-.18l0-.16,0-.11Z" transform="translate(-0.05 0)"/><path class="cls-1" d="M40.21,27.12l.06-.06s0,.05,0,0,0,0,0,0,.06-.09.06-.08,0,.11,0,.1a1.2,1.2,0,0,0,.1-.11s0,0,0,.07a.1.1,0,0,1,0,0h0l-.1.16h0v0a.07.07,0,0,0,0,.05h.16c.14,0,.18.06.09.07s-.06.06-.11.13a.36.36,0,0,1-.14.12.07.07,0,0,1-.09,0s0-.16,0-.1a.13.13,0,0,1-.11.07s0,0,0,0,0,0,0,0,0,0,0,0,0-.07,0-.1-.17.2-.09.06,0-.07,0,0,0-.06,0-.05,0,0,0,0,0,0,.09-.16l.08-.13c.07-.11.07-.1.07-.1Z" transform="translate(-0.05 0)"/><path class="cls-1" d="M40.34,26.55l.07,0s0,0,0,0,0,0,0,0l.09-.05s-.08.09-.07.09.11-.13.07-.07l0,.08h0s0,0,0,0h0v.05h0l.08.05h0s0,0,0,0h0l.09-.12c.1-.13.24,0,.16.06s0,.11,0,.2,0,.12-.05.16a.1.1,0,0,1-.12,0s-.09-.13-.1-.06,0,.1-.08.11,0,0,0,0-.05,0-.08,0l-.06,0s0-.09,0-.13S40,27.2,40,27s0-.09,0-.09,0-.07,0-.08,0,0,0,0,0,0,.13-.13l.13-.09.1-.07Z" transform="translate(-0.05 0)"/><path class="cls-1" d="M40.81,26.78h.07s0,0,0,0,0,0,0,0l.1,0s-.11.05-.1.06l.15,0-.06,0,0,0s0,0,0,0l0,0,0,0,0,0v0h0l-.11.32c0,.14-.08.17,0,.09s0,0,0,0-.08,0-.1,0,0,0,0-.07.09-.13,0-.09a.14.14,0,0,1-.12,0s0,0,0,0,0,0,0,0,0,0,0,0,.06-.05.09-.08-.26,0-.12,0,.06-.06,0-.07,0-.05,0-.06,0,0,0,0,0,0,.16-.05l.16,0,.12,0Z" transform="translate(-0.05 0)"/><path class="cls-1" d="M41.09,26.39h.08s0,0,0,0,0,0,0,.06l.1,0s-.09.08-.07.09.11-.05.14-.06l0,.05a.14.14,0,0,0,0,0l0,0,0,0h0v0h0l.09.41c0,.14,0,.18,0,.1s0,0-.07,0-.07.07-.11.07a.09.09,0,0,1-.09-.05s0-.16,0-.11-.08.06-.11.06,0,0,0,0,0,0-.07,0h-.05s0-.08,0-.12-.28.07-.17-.06,0-.09,0-.1,0-.07,0-.09,0-.05,0-.06,0,0,.15-.09l.16-.06.11,0Z" transform="translate(-0.05 0)"/><path class="cls-1" d="M41,27.21s0,0,.07.05-.05,0,0,0,0,0,0,.06.1,0,.1,0-.13,0-.12.05.12,0,.14.06,0,0-.07,0l0,0a.28.28,0,0,0,0,.09h.05s0,0,0,0h0s0,0,0,0l0,0a4.13,4.13,0,0,1-.3.35c-.1.1-.14.12-.09.05s0-.05,0-.06a.25.25,0,0,1-.13-.05.11.11,0,0,1,0-.1s.13-.1.06-.1a.18.18,0,0,1-.13-.05s0,0,0-.05,0-.05,0-.07,0,0,0,0,.07,0,.11-.06-.25-.1-.09-.15.09-.05,0-.09.06-.05,0-.08,0,0,0-.06,0,0,.17,0l.16,0c.13,0,.12,0,.12,0Z" transform="translate(-0.05 0)"/><path class="cls-1" d="M41.2,28.24h-.1c-.06,0,0-.08,0-.09s0-.1,0-.14-.12,0-.13-.05.08-.12.06-.16-.14-.07-.18-.12,0-.07.06-.11,0,0,0-.06,0-.19,0-.29,0,0,0-.06,0-.07,0-.11l0-.12a.4.4,0,0,1,.07-.18s0-.06.07-.06.1,0,.39.23c.12.09.15.12.08.08s-.06,0,0,0a.61.61,0,0,1,0,.11.06.06,0,0,1-.05.06s-.16,0-.1.05a.25.25,0,0,1,.09.09s0,0,0,0a.07.07,0,0,0,0,.07.07.07,0,0,0,0,0s-.07,0-.11.06.28.05.14.13,0,.09,0,.1,0,.08,0,.1,0,.05,0,.06.05,0-.1.15l-.13.11c-.09.08-.09.06-.1.06Z" transform="translate(-0.05 0)"/><path class="cls-1" d="M41.9,28.27h-.12c-.06,0,0-.08-.06-.09s0-.11-.09-.15-.13,0-.15,0,.05-.16,0-.2-.17-.06-.21-.12,0-.09,0-.14a.19.19,0,0,0,0-.07,2.19,2.19,0,0,1,0-.36s0,0,0-.07a.68.68,0,0,1,0-.14l0-.15a.54.54,0,0,1,.08-.21s0,0,0-.06l0,0s.05-.07.16-.12a.2.2,0,0,1,.11,0h0a.46.46,0,0,1,.13,0c.16.12.14.21.09.32-.26.3-.21-.16-.22-.05s0,0,0,0a.06.06,0,0,0,.07.06h0l.08.05h-.06s0,0,0,0l0,.06a1.11,1.11,0,0,1,0,.13.13.13,0,0,1-.06.09s-.16,0-.1.07a.23.23,0,0,1,.1.1s0,0,0,.06a.09.09,0,0,0,0,.08l0,0s-.06,0-.09.09.28,0,.17.14,0,.11,0,.12,0,.09,0,.12,0,.06.06.06.06,0,0,.18L42,28.2c-.07.1-.08.08-.09.08Z" transform="translate(-0.05 0)"/><path class="cls-1" d="M40.9,28.11v0a.15.15,0,0,0,0,.07s0,.09,0,.06l0,.09s-.08-.09-.09-.07a.66.66,0,0,0,.08.13s0,0-.06,0l0,0a.09.09,0,0,0,0,.06l0,0v.05s0,0,0,0,0,0,0,0-.09,0-.45,0c-.15,0-.19,0-.11,0s0,0,0-.06a.18.18,0,0,1-.06-.1.08.08,0,0,1,.06-.08s.15,0,.1,0-.06-.08-.06-.11,0,0,0,0,0,0,0-.06,0,0,0-.06.09,0,.13,0-.09-.28.06-.19.1,0,.13,0,.1,0,.15,0,.08,0,.14,0,.15,0,0,.21l-.11.11Z" transform="translate(-0.05 0)"/><path class="cls-1" d="M39.5,27.08h.08c.05,0,0,0,0,0s0,0,0,.05.11,0,.1,0-.11,0-.1.05l.15.06s0,0-.08,0l0,0,0,.1s0,0,0,0,0,0,0,0v.05s0,.06,0,.07,0,0,0,0l-.37-.27c-.11-.09-.15-.11-.08-.07s0,0,0,0L39,27.3h0s.14.05.08,0l-.1,0h0s0,0,0,0h.07c.11,0-.26,0-.11,0s.08,0,0,0,0,0,0,0,0,0,0,0l.17-.06.15-.05.12,0Z" transform="translate(-0.05 0)"/><path class="cls-1" d="M39.46,27.46l-.06,0s.05,0,0,0,0,0,0,0l-.08-.06.1.05-.13-.09.07,0h0s0,0,0,0l0,0v0h0s0,0,0,0h0a3.06,3.06,0,0,1,.4.23.86.86,0,1,0,.09.05c-.17-.09,0,0,0,0l.06.05h0s-.14-.07-.08,0l.09.06h0s0,0,0,0l0,0s-.07,0-.1-.05.22.15.08.07-.07,0,0,0,0,0,0,0,0,0,0,0l-.15-.08-.14-.09-.1-.06Z" transform="translate(-0.05 0)"/></g></g></svg>