<svg xmlns="http://www.w3.org/2000/svg" width="131.656" height="16.062" viewBox="0 0 131.656 16.062">
  <defs>
    <style>
      .cls-1 {
        fill: #3d71ac;
        fill-rule: evenodd;
      }
    </style>
  </defs>
  <path id="_" data-name=" " class="cls-1" d="M730.207,126.422h4.077a4.855,4.855,0,0,0,3.618-1.286,6.011,6.011,0,0,0,0-7.383,4.855,4.855,0,0,0-3.618-1.286h-4.077v9.955ZM732.4,124.6v-6.319h1.614a2.8,2.8,0,0,1,2.2.818,3.406,3.406,0,0,1,.729,2.342q0,3.159-2.931,3.159H732.4Zm14.943-.419h-1.926a1.5,1.5,0,0,1-1.486,1.049,1.61,1.61,0,0,1-1.253-.49,2.09,2.09,0,0,1-.46-1.426h5.238v-0.2a4.406,4.406,0,0,0-.977-3.013A3.328,3.328,0,0,0,743.847,119a3.47,3.47,0,0,0-2.634,1.09,3.864,3.864,0,0,0-1.033,2.769,3.721,3.721,0,0,0,1.026,2.74,4.037,4.037,0,0,0,4.885.392A3.249,3.249,0,0,0,747.344,124.185Zm-1.926-2.125h-3.2a1.909,1.909,0,0,1,.523-1.189,1.508,1.508,0,0,1,1.105-.433,1.386,1.386,0,0,1,1.1.454A2.03,2.03,0,0,1,745.418,122.06Zm9.363-.755a2.017,2.017,0,0,0-.92-1.748,4.987,4.987,0,0,0-4.616.014,1.865,1.865,0,0,0-.835,1.636,2.536,2.536,0,0,0,.049.517,1.129,1.129,0,0,0,.184.427c0.09,0.125.173,0.235,0.248,0.328a1.059,1.059,0,0,0,.347.259c0.156,0.079.281,0.144,0.375,0.2a2.3,2.3,0,0,0,.446.16c0.2,0.056.349,0.1,0.439,0.119s0.248,0.058.474,0.105,0.373,0.079.439,0.1a0.976,0.976,0,0,0,.113.028,5.713,5.713,0,0,1,1.2.363,0.592,0.592,0,0,1,.325.574,0.751,0.751,0,0,1-.361.65,1.7,1.7,0,0,1-.969.245,1.3,1.3,0,0,1-1.558-1.2h-1.911a2.176,2.176,0,0,0,.977,1.93,4.4,4.4,0,0,0,2.449.629,4.051,4.051,0,0,0,2.449-.657,2.1,2.1,0,0,0,.892-1.79,1.828,1.828,0,0,0-.184-0.839,1.954,1.954,0,0,0-.424-0.58,2.273,2.273,0,0,0-.68-0.392,6.2,6.2,0,0,0-.743-0.251c-0.2-.052-0.475-0.11-0.814-0.175l-0.227-.042a6.516,6.516,0,0,1-1.217-.336,0.549,0.549,0,0,1-.34-0.545,0.589,0.589,0,0,1,.3-0.524,1.555,1.555,0,0,1,.835-0.189,1.741,1.741,0,0,1,.97.224,1.069,1.069,0,0,1,.418.769h1.869Zm8.4,2.335h-1.939a1.581,1.581,0,0,1-2.811.86,2.742,2.742,0,0,1-.446-1.671,2.851,2.851,0,0,1,.461-1.727,1.5,1.5,0,0,1,1.281-.622,1.341,1.341,0,0,1,1.444,1.244h1.968a2.793,2.793,0,0,0-1.048-1.992,3.692,3.692,0,0,0-2.378-.734,3.618,3.618,0,0,0-2.726,1.062,3.878,3.878,0,0,0-1.026,2.811,3.508,3.508,0,0,0,3.723,3.733,3.57,3.57,0,0,0,2.386-.783A3.292,3.292,0,0,0,763.18,123.64ZM767.942,119a3.6,3.6,0,0,0-3.809,3.817,3.791,3.791,0,0,0,1.034,2.782,4.111,4.111,0,0,0,5.486,0,4.267,4.267,0,0,0,0-5.551A3.622,3.622,0,0,0,767.942,119Zm-0.057,1.51a1.571,1.571,0,0,1,1.31.608,2.677,2.677,0,0,1,.474,1.685,2.86,2.86,0,0,1-.46,1.727,1.52,1.52,0,0,1-1.3.622,1.541,1.541,0,0,1-1.3-.615,2.789,2.789,0,0,1-.467-1.72,2.734,2.734,0,0,1,.467-1.692A1.513,1.513,0,0,1,767.885,120.508Zm7.013-1.3H773v9.774h2v-3.454a2.606,2.606,0,0,0,2.251,1.077,2.869,2.869,0,0,0,2.3-1.028,4.065,4.065,0,0,0,.87-2.719,4.171,4.171,0,0,0-.892-2.8,2.947,2.947,0,0,0-2.364-1.048,2.63,2.63,0,0,0-2.265,1.09v-0.9Zm1.769,1.4a1.528,1.528,0,0,1,1.275.6,2.629,2.629,0,0,1,.467,1.65,2.549,2.549,0,0,1-.46,1.608,1.522,1.522,0,0,1-1.267.587,1.558,1.558,0,0,1-1.289-.587,3.119,3.119,0,0,1-.007-3.272A1.535,1.535,0,0,1,776.667,120.606Zm11.855,3.579H786.6a1.506,1.506,0,0,1-1.487,1.049,1.61,1.61,0,0,1-1.253-.49,2.1,2.1,0,0,1-.46-1.426h5.238v-0.2a4.4,4.4,0,0,0-.977-3.013A3.328,3.328,0,0,0,785.025,119a3.47,3.47,0,0,0-2.633,1.09,3.864,3.864,0,0,0-1.034,2.769,3.718,3.718,0,0,0,1.027,2.74,4.035,4.035,0,0,0,4.884.392A3.239,3.239,0,0,0,788.522,124.185ZM786.6,122.06h-3.2a1.91,1.91,0,0,1,.524-1.189,1.5,1.5,0,0,1,1.1-.433,1.386,1.386,0,0,1,1.1.454A2.031,2.031,0,0,1,786.6,122.06Zm7.932-2.978a3.478,3.478,0,0,0-.439-0.042,2.447,2.447,0,0,0-2.364,1.5v-1.329h-1.911v7.215h2.01v-3.3a2.717,2.717,0,0,1,.467-1.67,1.707,1.707,0,0,1,1.459-.623,4.031,4.031,0,0,1,.778.084v-1.831Zm2.693,2.335a1.142,1.142,0,0,1,1.331-1.091,1.9,1.9,0,0,1,.963.2,0.829,0.829,0,0,1,.34.776,0.6,0.6,0,0,1-.333.573,2.08,2.08,0,0,1-.885.231,10.988,10.988,0,0,0-1.175.146,9.779,9.779,0,0,0-1.182.28,1.823,1.823,0,0,0-.921.657,2.011,2.011,0,0,0-.375,1.259,1.941,1.941,0,0,0,.694,1.614,2.794,2.794,0,0,0,1.8.553,3.264,3.264,0,0,0,2.463-.895,2.717,2.717,0,0,0,.142.7h2.039a3.384,3.384,0,0,1-.255-1.608v-3.761q0-2.055-3.214-2.055a4.625,4.625,0,0,0-2.378.573,2.155,2.155,0,0,0-1.062,1.846h2.01Zm2.634,2.209a1.456,1.456,0,0,1-1.629,1.664q-1.231,0-1.231-.923a1.144,1.144,0,0,1,1.189-1.063c0.1-.018.259-0.042,0.467-0.07s0.371-.051.489-0.07a2.034,2.034,0,0,0,.389-0.105,1.057,1.057,0,0,0,.326-0.174v0.741Zm-3.54-7.453a2,2,0,0,0,2.251,2.042,2.2,2.2,0,0,0,2.52-2.042H800.2a1.372,1.372,0,0,1-1.557.993,1.8,1.8,0,0,1-.92-0.237,0.976,0.976,0,0,1-.482-0.756h-0.92Zm15.821,0.056a4.784,4.784,0,0,0-3.632,1.434,5.907,5.907,0,0,0,.007,7.564,5.238,5.238,0,0,0,7.2,0,5.9,5.9,0,0,0,0-7.55A4.691,4.691,0,0,0,812.137,116.229Zm-0.029,1.79a2.426,2.426,0,0,1,2,.916,3.855,3.855,0,0,1,.736,2.482,3.983,3.983,0,0,1-.722,2.516,2.38,2.38,0,0,1-1.982.923,2.5,2.5,0,0,1-2.025-.923,3.889,3.889,0,0,1-.736-2.516,3.833,3.833,0,0,1,.743-2.475A2.425,2.425,0,0,1,812.108,118.019Zm10.257-1.552c-0.076,0-.184,0-0.326-0.014s-0.271-.016-0.389-0.021-0.229-.007-0.333-0.007a2.7,2.7,0,0,0-1.925.566,2.487,2.487,0,0,0-.581,1.839v0.377h-1.189v1.343h1.189v5.872h2.011V120.55h1.415v-1.343h-1.43v-0.573a0.759,0.759,0,0,1,.177-0.594,1.2,1.2,0,0,1,.715-0.147c0.029,0,.25.01,0.666,0.028v-1.454Zm7.605,7.718h-1.926a1.5,1.5,0,0,1-1.486,1.049,1.61,1.61,0,0,1-1.253-.49,2.1,2.1,0,0,1-.46-1.426h5.238v-0.2a4.406,4.406,0,0,0-.977-3.013A3.328,3.328,0,0,0,826.473,119a3.468,3.468,0,0,0-2.633,1.09,3.864,3.864,0,0,0-1.034,2.769,3.721,3.721,0,0,0,1.026,2.74,4.037,4.037,0,0,0,4.885.392A3.244,3.244,0,0,0,829.97,124.185Zm-1.926-2.125h-3.2a1.9,1.9,0,0,1,.524-1.189,1.5,1.5,0,0,1,1.1-.433,1.386,1.386,0,0,1,1.1.454A2.03,2.03,0,0,1,828.044,122.06Zm7.933-2.978a3.478,3.478,0,0,0-.439-0.042,2.446,2.446,0,0,0-2.364,1.5v-1.329h-1.911v7.215h2.01v-3.3a2.717,2.717,0,0,1,.467-1.67,1.706,1.706,0,0,1,1.458-.623,4.04,4.04,0,0,1,.779.084v-1.831Zm4.788,0.125h-1.486v-2.181h-2v2.181h-1.217v1.343h1.217V124.3a2.438,2.438,0,0,0,.475,1.755,2.632,2.632,0,0,0,1.791.454q0.482,0,1.217-.056v-1.51a5.341,5.341,0,0,1-.608.028,1.969,1.969,0,0,1-.5-0.049,0.412,0.412,0,0,1-.262-0.2,0.757,0.757,0,0,1-.1-0.3c-0.01-.1-0.014-0.254-0.014-0.469v-3.4h1.486v-1.343Zm7.832,4.978h-1.925a1.506,1.506,0,0,1-1.487,1.049,1.61,1.61,0,0,1-1.253-.49,2.1,2.1,0,0,1-.46-1.426h5.238v-0.2a4.4,4.4,0,0,0-.977-3.013A3.328,3.328,0,0,0,845.1,119a3.47,3.47,0,0,0-2.633,1.09,3.864,3.864,0,0,0-1.034,2.769,3.718,3.718,0,0,0,1.027,2.74,4.035,4.035,0,0,0,4.884.392A3.239,3.239,0,0,0,848.6,124.185Zm-1.925-2.125h-3.2a1.91,1.91,0,0,1,.524-1.189,1.506,1.506,0,0,1,1.1-.433,1.386,1.386,0,0,1,1.1.454A2.031,2.031,0,0,1,846.672,122.06Zm5.256-5.593h-2.01v9.955h2.01v-9.955Zm8.455,7.718h-1.926a1.5,1.5,0,0,1-1.486,1.049,1.61,1.61,0,0,1-1.253-.49,2.09,2.09,0,0,1-.46-1.426H860.5v-0.2a4.406,4.406,0,0,0-.977-3.013A3.328,3.328,0,0,0,856.886,119a3.47,3.47,0,0,0-2.634,1.09,3.864,3.864,0,0,0-1.033,2.769,3.721,3.721,0,0,0,1.026,2.74,4.037,4.037,0,0,0,4.885.392A3.249,3.249,0,0,0,860.383,124.185Zm-1.926-2.125h-3.2a1.916,1.916,0,0,1,.524-1.189,1.508,1.508,0,0,1,1.105-.433,1.386,1.386,0,0,1,1.1.454A2.03,2.03,0,0,1,858.457,122.06ZM729.216,132.234v-0.7H860.882v0.7H729.216Z" transform="translate(-729.219 -116.188)"/>
</svg>
