<svg xmlns="http://www.w3.org/2000/svg" viewBox="0 0 237.77 96.51"><defs><style>.cls-1{fill:#fff;}</style></defs><g id="Layer_2" data-name="Layer 2"><g id="Layer_1-2" data-name="Layer 1"><path class="cls-1" d="M18.37,22.13q.54,0,.54.51v2.9a.48.48,0,0,1-.54.54H3c-.33,0-.5-.18-.5-.54V1c0-.36.17-.54.5-.54H17.86A.48.48,0,0,1,18.4,1v2.9q0,.51-.54.51h-11v6.7H16.93a.48.48,0,0,1,.54.54v2.87a.48.48,0,0,1-.54.54H6.85v7.1Z"/><path class="cls-1" d="M30,3.62a2.69,2.69,0,0,0-2.15.88,3.63,3.63,0,0,0-.75,2.42v.83h4.12a.48.48,0,0,1,.54.54v2.58a.48.48,0,0,1-.54.54H27.05V25.54a.48.48,0,0,1-.54.54H23.42a.47.47,0,0,1-.53-.54V6.92A6.9,6.9,0,0,1,24.7,1.79,6.3,6.3,0,0,1,29.31,0,14,14,0,0,1,31.5.14a.51.51,0,0,1,.5.58V3.19c0,.36-.15.54-.43.54A10.28,10.28,0,0,0,30,3.62Z"/><path class="cls-1" d="M41.72,3.62a2.69,2.69,0,0,0-2.15.88,3.63,3.63,0,0,0-.76,2.42v.83h4.13a.48.48,0,0,1,.54.54v2.58a.48.48,0,0,1-.54.54H38.81V25.54a.47.47,0,0,1-.53.54H35.19a.48.48,0,0,1-.54-.54V6.92a6.94,6.94,0,0,1,1.81-5.13A6.31,6.31,0,0,1,41.07,0a14,14,0,0,1,2.19.14.5.5,0,0,1,.5.58V3.19c0,.36-.14.54-.43.54A10.15,10.15,0,0,0,41.72,3.62Z"/><path class="cls-1" d="M61.81,19.26a6.69,6.69,0,0,1-2.23,5.3,8.69,8.69,0,0,1-5.95,2,8.69,8.69,0,0,1-6-2,6.69,6.69,0,0,1-2.23-5.3v-4.8a6.87,6.87,0,0,1,2.23-5.38,8.52,8.52,0,0,1,6-2,8.52,8.52,0,0,1,5.95,2,6.87,6.87,0,0,1,2.23,5.38Zm-12.16,0a3.29,3.29,0,0,0,1,2.62,4.35,4.35,0,0,0,3,.9,4.35,4.35,0,0,0,3-.9,3.29,3.29,0,0,0,1-2.62v-4.8a3.46,3.46,0,0,0-1-2.71,4.21,4.21,0,0,0-2.94-.95,4.25,4.25,0,0,0-3,.93,3.51,3.51,0,0,0-1,2.73Z"/><path class="cls-1" d="M66.22,26.08a.48.48,0,0,1-.54-.54V9a.58.58,0,0,1,.4-.61,12.53,12.53,0,0,1,3-1,15.91,15.91,0,0,1,3.29-.34A23.61,23.61,0,0,1,76,7.35a.47.47,0,0,1,.47.54v2.59a.38.38,0,0,1-.16.35.56.56,0,0,1-.41.08A19.81,19.81,0,0,0,73,10.76a8.36,8.36,0,0,0-3.16.5V25.54a.47.47,0,0,1-.53.54Z"/><path class="cls-1" d="M83.37,19.59a3.32,3.32,0,0,0,.73,2.29,2.67,2.67,0,0,0,2.1.83l1.47-.07c.39,0,.58.16.58.5v2.72a.51.51,0,0,1-.5.58c-.82,0-1.45.07-1.91.07A6.93,6.93,0,0,1,81,24.88a6.38,6.38,0,0,1-1.83-5V3.48c0-.33.18-.5.54-.5h2.72a.51.51,0,0,1,.54.46l.32,4.31h3.84c.36,0,.54.17.54.5v2.62c0,.34-.18.5-.54.5h-3.8Z"/><path class="cls-1" d="M97.14,26.51a5.51,5.51,0,0,1-4.43-1.83,7.67,7.67,0,0,1-1.56-5.13V1a.48.48,0,0,1,.54-.54h3.09a.47.47,0,0,1,.53.54V19.41a4.27,4.27,0,0,0,.58,2.53,2.09,2.09,0,0,0,1.79.77c.29,0,.74,0,1.36-.07a.47.47,0,0,1,.54.53v2.66q0,.54-.39.57A18.39,18.39,0,0,1,97.14,26.51Z"/><path class="cls-1" d="M117.2,18q0,.51-.54.51H105.75v1a3,3,0,0,0,1,2.46,4.23,4.23,0,0,0,2.78.84,7.88,7.88,0,0,0,2.72-.43,10.22,10.22,0,0,0,2.33-1.22.68.68,0,0,1,.33-.11.46.46,0,0,1,.39.22l1.47,2a.45.45,0,0,1,.15.32.48.48,0,0,1-.26.44,11.35,11.35,0,0,1-7.28,2.47,9.72,9.72,0,0,1-3.89-.77,6.43,6.43,0,0,1-4-6.22v-5.1a7.3,7.3,0,0,1,1.11-4.16,6.55,6.55,0,0,1,2.9-2.42,9.63,9.63,0,0,1,3.88-.77,9.41,9.41,0,0,1,3.84.77,6.38,6.38,0,0,1,2.83,2.42,7.46,7.46,0,0,1,1.08,4.16Zm-4.06-3.65a3.44,3.44,0,0,0-1-2.77,4.49,4.49,0,0,0-5.34,0,3.53,3.53,0,0,0-1,2.79v.93h7.39Z"/><path class="cls-1" d="M132.8,25a9.21,9.21,0,0,1-5.49,1.52A12.07,12.07,0,0,1,120,24.18a.42.42,0,0,1-.25-.36.55.55,0,0,1,.11-.36l1.36-2.33c.12-.19.24-.29.36-.29A1.19,1.19,0,0,1,122,21a9.48,9.48,0,0,0,2.62,1.36,8.78,8.78,0,0,0,2.79.47,4.8,4.8,0,0,0,2.41-.54,1.7,1.7,0,0,0,.93-1.55,1.44,1.44,0,0,0-.88-1.39,9.5,9.5,0,0,0-2.46-.72,15.51,15.51,0,0,1-5.13-1.85,4.43,4.43,0,0,1-2.11-4.11,4.67,4.67,0,0,1,2.2-4.21A9.74,9.74,0,0,1,127.74,7,13,13,0,0,1,134,8.68c.2.12.29.25.29.4a.58.58,0,0,1-.11.32l-1.36,2.29a.47.47,0,0,1-.43.26,1.3,1.3,0,0,1-.29-.08,9.41,9.41,0,0,0-4.55-1.18,4.55,4.55,0,0,0-2.41.54,1.64,1.64,0,0,0-.86,1.43,1.49,1.49,0,0,0,.92,1.44,14.7,14.7,0,0,0,3.06.86,20.42,20.42,0,0,1,3.31.88,5.74,5.74,0,0,1,2.38,1.67,4.49,4.49,0,0,1,1,3A5.14,5.14,0,0,1,132.8,25Z"/><path class="cls-1" d="M150.16,25a9.21,9.21,0,0,1-5.49,1.52,12.07,12.07,0,0,1-7.28-2.33.42.42,0,0,1-.25-.36.61.61,0,0,1,.11-.36l1.36-2.33c.12-.19.24-.29.36-.29a1.19,1.19,0,0,1,.36.15A9.62,9.62,0,0,0,142,22.35a8.8,8.8,0,0,0,2.8.47,4.74,4.74,0,0,0,2.4-.54,1.7,1.7,0,0,0,.93-1.55,1.44,1.44,0,0,0-.88-1.39,9.41,9.41,0,0,0-2.45-.72,15.43,15.43,0,0,1-5.13-1.85,4.42,4.42,0,0,1-2.12-4.11,4.66,4.66,0,0,1,2.21-4.21A9.73,9.73,0,0,1,145.1,7a13,13,0,0,1,6.25,1.65.49.49,0,0,1,.28.4.65.65,0,0,1-.1.32l-1.37,2.29a.46.46,0,0,1-.43.26,1.13,1.13,0,0,1-.28-.08,9.45,9.45,0,0,0-4.56-1.18,4.49,4.49,0,0,0-2.4.54,1.62,1.62,0,0,0-.86,1.43,1.48,1.48,0,0,0,.91,1.44,14.64,14.64,0,0,0,3.07.86,20.28,20.28,0,0,1,3.3.88,5.68,5.68,0,0,1,2.38,1.67,4.49,4.49,0,0,1,1,3A5.14,5.14,0,0,1,150.16,25Z"/><path class="cls-1" d="M19.35,45.44a4.77,4.77,0,0,1-1.88,2A5.9,5.9,0,0,1,20.2,49.8a6.77,6.77,0,0,1,.93,3.6,7.09,7.09,0,0,1-2.33,5.65,9.54,9.54,0,0,1-6.46,2H3c-.33,0-.5-.18-.5-.54V36c0-.36.17-.54.5-.54h9.33A8.08,8.08,0,0,1,18,37.28a6.66,6.66,0,0,1,2,5.18A6.5,6.5,0,0,1,19.35,45.44Zm-4.66-5.31a3.67,3.67,0,0,0-2.49-.82H6.82V45.8H12.2A3.65,3.65,0,0,0,14.71,45a3.09,3.09,0,0,0,.93-2.44A3,3,0,0,0,14.69,40.13ZM12.3,57.21a5,5,0,0,0,3.23-.94,3.47,3.47,0,0,0,1.19-2.9,3.57,3.57,0,0,0-1.12-2.78,4.78,4.78,0,0,0-3.33-1H6.82v7.65Z"/><path class="cls-1" d="M31.85,42.07a7.84,7.84,0,0,1,5.48,1.81,7.06,7.06,0,0,1,2,5.47V59.82a.63.63,0,0,1-.4.61,25.19,25.19,0,0,1-7.21,1.08A10.6,10.6,0,0,1,26,60.08a5,5,0,0,1-2.26-4.56,4.85,4.85,0,0,1,2.14-4.29,10,10,0,0,1,5.72-1.45,28.55,28.55,0,0,1,3.59.29v-.68a4,4,0,0,0-.81-2.79,3.77,3.77,0,0,0-2.78-.84,9.9,9.9,0,0,0-2.5.31,7.49,7.49,0,0,0-2.09.84.68.68,0,0,1-.33.11.45.45,0,0,1-.39-.25l-1.44-2.19c-.16-.26-.16-.47,0-.61A12.14,12.14,0,0,1,31.85,42.07ZM29,57.3a5.6,5.6,0,0,0,2.76.59,15.21,15.21,0,0,0,3.45-.43V53.4a24.27,24.27,0,0,0-3.48-.28c-2.52,0-3.77.79-3.77,2.36A2,2,0,0,0,29,57.3Z"/><path class="cls-1" d="M47.67,54.59a3.32,3.32,0,0,0,.74,2.29,2.67,2.67,0,0,0,2.1.83L52,57.64c.38,0,.57.16.57.5v2.72a.5.5,0,0,1-.5.58c-.81.05-1.45.07-1.9.07a6.94,6.94,0,0,1-4.81-1.63,6.38,6.38,0,0,1-1.83-5V38.48c0-.33.18-.5.54-.5h2.73a.56.56,0,0,1,.36.12.66.66,0,0,1,.18.34l.32,4.31h3.84c.36,0,.54.17.54.5v2.62c0,.34-.18.5-.54.5H47.67Z"/><path class="cls-1" d="M59.76,42.68a11.74,11.74,0,0,1,3.88-.61,8,8,0,0,1,5.67,2c1.43,1.33,2.15,3.36,2.15,6.11V60.54c0,.36-.17.54-.5.54H67.84a.48.48,0,0,1-.54-.54V50.28a4.84,4.84,0,0,0-1-3.48,4.2,4.2,0,0,0-3.08-1,7.81,7.81,0,0,0-3.45.64v14.1a.47.47,0,0,1-.53.54H56.14a.48.48,0,0,1-.54-.54V36a.48.48,0,0,1,.54-.54h3.09a.47.47,0,0,1,.53.54Z"/><path class="cls-1" d="M76.3,61.08a.48.48,0,0,1-.54-.54V44a.58.58,0,0,1,.4-.61,12.53,12.53,0,0,1,3-1,15.84,15.84,0,0,1,3.29-.34,23.71,23.71,0,0,1,3.65.28.48.48,0,0,1,.47.54v2.59a.38.38,0,0,1-.16.35.56.56,0,0,1-.41.08,19.81,19.81,0,0,0-2.91-.15,8.36,8.36,0,0,0-3.16.5V60.54a.47.47,0,0,1-.53.54Z"/><path class="cls-1" d="M104.71,54.26a6.71,6.71,0,0,1-2.22,5.3,10.07,10.07,0,0,1-11.91,0,6.72,6.72,0,0,1-2.23-5.3v-4.8a6.9,6.9,0,0,1,2.23-5.38,9.83,9.83,0,0,1,11.91,0,6.9,6.9,0,0,1,2.22,5.38Zm-12.16,0a3.29,3.29,0,0,0,1,2.62,5.32,5.32,0,0,0,5.92,0,3.3,3.3,0,0,0,1-2.62v-4.8a3.5,3.5,0,0,0-1-2.71,5.11,5.11,0,0,0-5.91,0,3.51,3.51,0,0,0-1,2.73Z"/><path class="cls-1" d="M124.37,54.26a6.71,6.71,0,0,1-2.22,5.3,10.07,10.07,0,0,1-11.91,0,6.69,6.69,0,0,1-2.23-5.3v-4.8a6.87,6.87,0,0,1,2.23-5.38,9.83,9.83,0,0,1,11.91,0,6.9,6.9,0,0,1,2.22,5.38Zm-12.16,0a3.29,3.29,0,0,0,1,2.62,5.32,5.32,0,0,0,5.92,0,3.29,3.29,0,0,0,1-2.62v-4.8a3.46,3.46,0,0,0-1-2.71,4.21,4.21,0,0,0-2.94-1,4.25,4.25,0,0,0-3,.93,3.51,3.51,0,0,0-1,2.73Z"/><path class="cls-1" d="M143,42.46a9.32,9.32,0,0,1,2.77-.39,7.81,7.81,0,0,1,5.59,2,7.39,7.39,0,0,1,2.12,5.65V60.54c0,.36-.17.54-.5.54h-3.12q-.51,0-.51-.54v-11c0-2.48-1.23-3.73-3.69-3.73a5.6,5.6,0,0,0-3.16.9,9.14,9.14,0,0,1,.47,2.91v10.9a.48.48,0,0,1-.54.54h-3.08a.48.48,0,0,1-.54-.54v-11a3.93,3.93,0,0,0-.9-2.85,3.55,3.55,0,0,0-2.65-.91,10.11,10.11,0,0,0-2.87.39V60.54a.48.48,0,0,1-.54.54h-3.09a.47.47,0,0,1-.53-.54V44.11a.64.64,0,0,1,.43-.64,15.88,15.88,0,0,1,6.49-1.4,8.19,8.19,0,0,1,5.2,1.65A12.11,12.11,0,0,1,143,42.46Z"/><path class="cls-1" d="M19.3,70.43a.48.48,0,0,1,.54.54v2.94c0,.34-.18.5-.54.5H12.09V95.54c0,.36-.17.54-.5.54H8.29q-.51,0-.51-.54V74.41H.54c-.36,0-.54-.16-.54-.5V71a.48.48,0,0,1,.54-.54Z"/><path class="cls-1" d="M19.91,96.08a.48.48,0,0,1-.54-.54V79a.58.58,0,0,1,.4-.61,12.38,12.38,0,0,1,3-1A15.82,15.82,0,0,1,26,77.07a23.74,23.74,0,0,1,3.66.28.48.48,0,0,1,.47.54v2.59a.38.38,0,0,1-.16.35.56.56,0,0,1-.41.08,19.81,19.81,0,0,0-2.91-.15,8.32,8.32,0,0,0-3.16.5V95.54a.48.48,0,0,1-.54.54Z"/><path class="cls-1" d="M39.46,77.07a7.82,7.82,0,0,1,5.47,1.81,7,7,0,0,1,2,5.47V94.82a.62.62,0,0,1-.39.61,25.33,25.33,0,0,1-7.21,1.08,10.57,10.57,0,0,1-5.74-1.43,5,5,0,0,1-2.26-4.56,4.86,4.86,0,0,1,2.13-4.29,10,10,0,0,1,5.72-1.45,28.27,28.27,0,0,1,3.59.29v-.68A4,4,0,0,0,42,81.6a3.74,3.74,0,0,0-2.78-.84,9.76,9.76,0,0,0-2.49.31,7.68,7.68,0,0,0-2.1.84.68.68,0,0,1-.32.11.46.46,0,0,1-.4-.25l-1.43-2.19c-.17-.26-.17-.47,0-.61A12.1,12.1,0,0,1,39.46,77.07ZM36.56,92.3a5.6,5.6,0,0,0,2.76.59,15.13,15.13,0,0,0,3.44-.43V88.4a24.06,24.06,0,0,0-3.48-.28q-3.77,0-3.77,2.36A2,2,0,0,0,36.56,92.3Z"/><path class="cls-1" d="M51.73,96.08a.48.48,0,0,1-.54-.54V79.11a.64.64,0,0,1,.4-.64,17.62,17.62,0,0,1,7.13-1.4,8.92,8.92,0,0,1,6.12,2c1.47,1.31,2.21,3.33,2.21,6.08V95.54q0,.54-.51.54H63.42a.47.47,0,0,1-.53-.54V85.17a4.57,4.57,0,0,0-1-3.39,4.45,4.45,0,0,0-3.13-1,13.5,13.5,0,0,0-3.37.39V95.54a.48.48,0,0,1-.54.54Z"/><path class="cls-1" d="M83.26,95a9.21,9.21,0,0,1-5.49,1.52,12.07,12.07,0,0,1-7.28-2.33.42.42,0,0,1-.25-.36.61.61,0,0,1,.11-.36l1.36-2.33c.12-.19.24-.29.36-.29a1.19,1.19,0,0,1,.36.15,9.48,9.48,0,0,0,2.62,1.36,8.78,8.78,0,0,0,2.79.47,4.75,4.75,0,0,0,2.41-.54,1.7,1.7,0,0,0,.93-1.55,1.44,1.44,0,0,0-.88-1.39,9.38,9.38,0,0,0-2.46-.72,15.59,15.59,0,0,1-5.13-1.85,4.43,4.43,0,0,1-2.11-4.11,4.67,4.67,0,0,1,2.2-4.21A9.76,9.76,0,0,1,78.2,77a13,13,0,0,1,6.25,1.65.49.49,0,0,1,.28.4.58.58,0,0,1-.11.32l-1.36,2.29a.46.46,0,0,1-.43.26,1.3,1.3,0,0,1-.29-.08A9.41,9.41,0,0,0,78,80.69a4.55,4.55,0,0,0-2.41.54,1.64,1.64,0,0,0-.86,1.43,1.49,1.49,0,0,0,.92,1.44,14.64,14.64,0,0,0,3.07.86,20.56,20.56,0,0,1,3.3.88,5.74,5.74,0,0,1,2.38,1.67,4.49,4.49,0,0,1,1,3A5.14,5.14,0,0,1,83.26,95Z"/><path class="cls-1" d="M95.85,73.62a2.69,2.69,0,0,0-2.15.88A3.63,3.63,0,0,0,93,76.92v.83h4.12a.48.48,0,0,1,.54.54v2.58a.48.48,0,0,1-.54.54H93V95.54a.48.48,0,0,1-.54.54H89.32a.47.47,0,0,1-.53-.54V76.92a6.9,6.9,0,0,1,1.81-5.13A6.28,6.28,0,0,1,95.21,70a14.14,14.14,0,0,1,2.19.14.51.51,0,0,1,.5.58v2.47c0,.36-.15.54-.43.54A10.28,10.28,0,0,0,95.85,73.62Z"/><path class="cls-1" d="M115.94,89.26a6.71,6.71,0,0,1-2.22,5.3,10.07,10.07,0,0,1-11.91,0,6.69,6.69,0,0,1-2.23-5.3v-4.8a6.87,6.87,0,0,1,2.23-5.38,9.83,9.83,0,0,1,11.91,0,6.9,6.9,0,0,1,2.22,5.38Zm-12.16,0a3.29,3.29,0,0,0,1,2.62,5.32,5.32,0,0,0,5.92,0,3.29,3.29,0,0,0,1-2.62v-4.8a3.46,3.46,0,0,0-1-2.71,4.21,4.21,0,0,0-2.94-1,4.25,4.25,0,0,0-3,.93,3.51,3.51,0,0,0-1,2.73Z"/><path class="cls-1" d="M120.35,96.08a.47.47,0,0,1-.53-.54V79a.59.59,0,0,1,.39-.61,12.61,12.61,0,0,1,3-1,15.75,15.75,0,0,1,3.28-.34,23.74,23.74,0,0,1,3.66.28.47.47,0,0,1,.46.54v2.59a.38.38,0,0,1-.16.35.55.55,0,0,1-.41.08,19.81,19.81,0,0,0-2.91-.15,8.3,8.3,0,0,0-3.15.5V95.54a.48.48,0,0,1-.54.54Z"/><path class="cls-1" d="M148.19,77.46a9.3,9.3,0,0,1,2.76-.39,7.83,7.83,0,0,1,5.6,2,7.39,7.39,0,0,1,2.12,5.65V95.54q0,.54-.51.54H155c-.33,0-.5-.18-.5-.54v-11c0-2.48-1.23-3.73-3.69-3.73a5.6,5.6,0,0,0-3.16.9,9.14,9.14,0,0,1,.47,2.91v10.9a.48.48,0,0,1-.54.54h-3.09a.48.48,0,0,1-.54-.54v-11a3.93,3.93,0,0,0-.89-2.85,3.58,3.58,0,0,0-2.66-.91,10.16,10.16,0,0,0-2.87.39V95.54a.47.47,0,0,1-.53.54H134a.48.48,0,0,1-.54-.54V79.11a.65.65,0,0,1,.43-.64,16,16,0,0,1,6.5-1.4,8.21,8.21,0,0,1,5.2,1.65A11.9,11.9,0,0,1,148.19,77.46Z"/><path class="cls-1" d="M169.89,77.07a7.8,7.8,0,0,1,5.47,1.81,7,7,0,0,1,2,5.47V94.82a.63.63,0,0,1-.4.61,25.19,25.19,0,0,1-7.21,1.08A10.6,10.6,0,0,1,164,95.08a5,5,0,0,1-2.26-4.56,4.85,4.85,0,0,1,2.14-4.29,10,10,0,0,1,5.72-1.45,28.27,28.27,0,0,1,3.58.29v-.68a4,4,0,0,0-.8-2.79,3.77,3.77,0,0,0-2.78-.84,9.9,9.9,0,0,0-2.5.31,7.49,7.49,0,0,0-2.09.84.68.68,0,0,1-.33.11.44.44,0,0,1-.39-.25l-1.44-2.19c-.16-.26-.16-.47,0-.61A12.12,12.12,0,0,1,169.89,77.07ZM167,92.3a5.6,5.6,0,0,0,2.76.59,15.06,15.06,0,0,0,3.44-.43V88.4a24,24,0,0,0-3.47-.28c-2.52,0-3.77.79-3.77,2.36A2,2,0,0,0,167,92.3Z"/><path class="cls-1" d="M185.71,89.59a3.32,3.32,0,0,0,.74,2.29,2.67,2.67,0,0,0,2.1.83l1.47-.07c.38,0,.57.16.57.5v2.72a.5.5,0,0,1-.5.58c-.81,0-1.45.07-1.9.07a6.94,6.94,0,0,1-4.81-1.63,6.38,6.38,0,0,1-1.83-5V73.48c0-.33.18-.5.54-.5h2.73a.56.56,0,0,1,.36.12.66.66,0,0,1,.18.34l.32,4.31h3.84c.36,0,.54.17.54.5v2.62c0,.34-.18.5-.54.5h-3.81Z"/><path class="cls-1" d="M197.39,74.31a2.25,2.25,0,0,1-1.67.68,2.34,2.34,0,0,1-2.37-2.37A2.22,2.22,0,0,1,194,71a2.31,2.31,0,0,1,1.68-.66,2.2,2.2,0,0,1,2.33,2.33A2.35,2.35,0,0,1,197.39,74.31Zm-3.25,21.77a.47.47,0,0,1-.53-.54V78c0-.33.18-.5.53-.5h3.13a.44.44,0,0,1,.5.5V95.54c0,.36-.17.54-.5.54Z"/><path class="cls-1" d="M218,89.26a6.72,6.72,0,0,1-2.23,5.3,10.07,10.07,0,0,1-11.91,0,6.71,6.71,0,0,1-2.22-5.3v-4.8a6.9,6.9,0,0,1,2.22-5.38,9.83,9.83,0,0,1,11.91,0A6.9,6.9,0,0,1,218,84.46Zm-12.17,0a3.3,3.3,0,0,0,1,2.62,5.32,5.32,0,0,0,5.92,0,3.29,3.29,0,0,0,1-2.62v-4.8a3.5,3.5,0,0,0-1-2.71,5.1,5.1,0,0,0-5.9,0,3.51,3.51,0,0,0-1,2.73Z"/><path class="cls-1" d="M222.45,96.08a.48.48,0,0,1-.54-.54V79.11a.64.64,0,0,1,.39-.64,17.7,17.7,0,0,1,7.14-1.4,8.92,8.92,0,0,1,6.12,2c1.47,1.31,2.21,3.33,2.21,6.08V95.54q0,.54-.51.54h-3.12a.48.48,0,0,1-.54-.54V85.17a4.52,4.52,0,0,0-1-3.39,4.4,4.4,0,0,0-3.12-1,13.45,13.45,0,0,0-3.37.39V95.54a.48.48,0,0,1-.54.54Z"/></g></g></svg>