<svg xmlns="http://www.w3.org/2000/svg" width="232.85" height="30.95" viewBox="0 0 232.85 30.95"><defs><style>.cls-1{fill:#dd851b;}.cls-2{fill:#fff7e1;}</style></defs><g id="Layer_2" data-name="Layer 2"><g id="Layer_1-2" data-name="Layer 1"><rect class="cls-1" width="232.85" height="30.95" rx="15.47"/><path class="cls-2" d="M30.5,15.92v.26a2.48,2.48,0,0,1-.06.77q-.11.38-.21.66c0,.11-.08.23-.13.35a1.6,1.6,0,0,0-.11.39,2.83,2.83,0,0,0-.3.44c-.09.17-.18.32-.27.47a.14.14,0,0,0-.05.1.2.2,0,0,1-.06.11,1,1,0,0,0-.14.18c0,.05-.05.11-.08.16a1.48,1.48,0,0,1-.33.28.54.54,0,0,0-.24.33.53.53,0,0,0-.28.23.63.63,0,0,1-.25.26.23.23,0,0,1-.12.06.25.25,0,0,0-.15.05,2.59,2.59,0,0,0-.42.32.35.35,0,0,1-.15.08l-.2.09a.24.24,0,0,0-.15.13.34.34,0,0,1-.16.13l-.25.09-.18.09A.36.36,0,0,0,26,22l-.05,0a.93.93,0,0,0-.25.1.29.29,0,0,1-.24,0,.5.5,0,0,1-.21.1.58.58,0,0,0-.22.08,2.48,2.48,0,0,0-.38.17,1.24,1.24,0,0,1-.27.08h-.1l-.16.07-.13,0a.74.74,0,0,1-.25,0h-.07l-.17,0a.25.25,0,0,1-.2,0l-.16.08a.65.65,0,0,1-.21.06.22.22,0,0,1-.16,0,.67.67,0,0,0-.2,0,.4.4,0,0,1-.19,0h-.06a1.11,1.11,0,0,0-.27.06,1.11,1.11,0,0,1-.3.06.92.92,0,0,1-.37-.08l-.14,0s-.07,0-.08-.09-.11,0-.11.05-.05.06-.12,0a.51.51,0,0,0-.28-.16c-.11.07-.18.09-.2.07a.18.18,0,0,0-.13,0,.17.17,0,0,1-.16.09A.34.34,0,0,0,20,23a1.55,1.55,0,0,0-.43,0,1.34,1.34,0,0,1-.45,0,.38.38,0,0,1-.09-.09.31.31,0,0,1-.09-.11.33.33,0,0,1-.13-.22,1,1,0,0,1,0-.24l.06-.21,0-.15s0-.08,0-.12a.16.16,0,0,1,0-.12.33.33,0,0,0,.05-.12,2.12,2.12,0,0,1,0-.51,3.75,3.75,0,0,0,0-.45c0-.18,0-.36,0-.55l0-.59a.93.93,0,0,1,0-.33v-.28q0-.34,0-.81v-.85a.55.55,0,0,0,0-.26.88.88,0,0,1,0-.16.78.78,0,0,1,0-.16.4.4,0,0,0,0-.17c0-.15,0-.31,0-.47a1.83,1.83,0,0,1,0-.47l-.08-.15c0-.05,0-.11-.07-.17a.61.61,0,0,0,0-.3,1.53,1.53,0,0,1,0-.3c0-.16,0-.29,0-.4a.4.4,0,0,0-.08-.31,1.11,1.11,0,0,0,0-.48,2.38,2.38,0,0,1,0-.46,1.69,1.69,0,0,1,0-.23,1.85,1.85,0,0,0,0-.24c0-.08,0-.14,0-.17a.29.29,0,0,1,0-.09.5.5,0,0,0,0-.27.48.48,0,0,1,0-.18.64.64,0,0,1,0-.2c0-.07.05-.13.07-.19a.47.47,0,0,0,0-.24c0-.1,0-.2,0-.31a.77.77,0,0,1,0-.15.39.39,0,0,0,0-.15,1.67,1.67,0,0,0,0-.32,1.5,1.5,0,0,1,0-.3.28.28,0,0,1,0-.15.35.35,0,0,0,0-.13.49.49,0,0,0,0-.23.23.23,0,0,1,.05-.22.12.12,0,0,0-.07-.14q-.07,0,0-.12A1,1,0,0,1,19,8.7a.6.6,0,0,1,.18,0,.24.24,0,0,1,.12.09.25.25,0,0,0,.13-.09.18.18,0,0,1,.12-.07,2,2,0,0,1,.36,0h.76L21,8.53a1.66,1.66,0,0,1,.32,0,1.6,1.6,0,0,1,.33,0h.25a1,1,0,0,0,.24,0l.34,0,.23,0a1,1,0,0,1,.27,0l.26.05.17,0,.18,0,.15.05.15,0a1.7,1.7,0,0,0,.46,0,.72.72,0,0,1,.44.13H25a.65.65,0,0,0,.31,0h.14l.13.06.14,0A.93.93,0,0,0,26,9a.7.7,0,0,1,.32,0l.19.09.09,0a.29.29,0,0,0,.16.06.15.15,0,0,1,.11,0l.42.3.35.25a1.33,1.33,0,0,0,.22.19.26.26,0,0,1,.11.12,3.88,3.88,0,0,0,.26.31l.29.32a2.07,2.07,0,0,1,.24.2,3.21,3.21,0,0,1,.41.54c.11.19.22.37.33.57a.21.21,0,0,0,0,.12s0,.07,0,.14a1.24,1.24,0,0,1,.17.27l.16.32a1.34,1.34,0,0,1,.11.32.54.54,0,0,0,.05.21,1.09,1.09,0,0,0,.05.17l.07.16a1.28,1.28,0,0,0,.11.36.85.85,0,0,1,.09.25,2.67,2.67,0,0,0,.06.35c0,.06,0,.13.05.18a2.68,2.68,0,0,1,0,.5A4.44,4.44,0,0,0,30.5,15.92Zm-2.1-.41a1.36,1.36,0,0,0,0-.2l0-.15a.89.89,0,0,0-.07-.16l0-.06c0-.14,0-.23,0-.3a.33.33,0,0,0,0-.15l-.05-.17a.36.36,0,0,0-.05-.13.35.35,0,0,1-.07-.12L28,14a.5.5,0,0,1-.14-.27,2.39,2.39,0,0,0-.11-.32,1.77,1.77,0,0,1-.12-.23.74.74,0,0,1,0-.12.85.85,0,0,0-.17-.16.24.24,0,0,1-.09-.22.49.49,0,0,1-.19-.14,1.1,1.1,0,0,0-.16-.15.58.58,0,0,0-.1-.13l-.08-.07L26.58,12a.18.18,0,0,1-.08-.14.87.87,0,0,1-.37-.19.79.79,0,0,0-.36-.2.5.5,0,0,1-.1-.14.16.16,0,0,0-.13-.1h-.45a.39.39,0,0,1-.16-.07.27.27,0,0,0-.14-.07.13.13,0,0,0-.12,0,.37.37,0,0,1-.15,0l-.17-.07L24.22,11h-.41a1.55,1.55,0,0,1-.43,0l-.32-.07-.31-.05a.46.46,0,0,1-.25,0l-.1,0h-.65a.33.33,0,0,1-.15,0,.23.23,0,0,0-.14,0,.39.39,0,0,1-.18,0h-.06a.32.32,0,0,1-.14,0l-.17,0a2.7,2.7,0,0,0-.07.79,3.25,3.25,0,0,1,0,.76,1,1,0,0,0,0,.35,1.77,1.77,0,0,1,0,.22,1.23,1.23,0,0,1,0,.2,1.11,1.11,0,0,0,0,.17.78.78,0,0,0,0,.14c0,.06,0,.12,0,.19s0,.22,0,.34a2,2,0,0,0,0,.35,2.33,2.33,0,0,0,.05.28l.07.25a1.8,1.8,0,0,1,.06.32c0,.1,0,.2.05.31a1.55,1.55,0,0,1,0,.49,2.17,2.17,0,0,0-.05.41.35.35,0,0,0,0,.16.32.32,0,0,1,0,.14l-.06.16c0,.05,0,.1,0,.17a1.49,1.49,0,0,0,0,.21.71.71,0,0,1,0,.2c0,.27,0,.57,0,.91a2,2,0,0,1-.15.78.55.55,0,0,1,.05.4,2.13,2.13,0,0,0-.07.44.5.5,0,0,0,0,.18,1.1,1.1,0,0,1,0,.18.53.53,0,0,1,0,.15.44.44,0,0,0,0,.32.4.4,0,0,1,0,.17h.23a.52.52,0,0,1,.22,0,2,2,0,0,1,.32.05l.23,0a1.56,1.56,0,0,1,.43-.11l.22-.05.2-.07a.58.58,0,0,0,.17-.06.41.41,0,0,1,.18-.1l.1,0a3,3,0,0,1,.56-.16,2.61,2.61,0,0,0,.42-.1,1.77,1.77,0,0,0,.31-.15.58.58,0,0,1,.36,0,.36.36,0,0,1,.25-.13,1.37,1.37,0,0,0,.28-.05l.25-.11.22-.11.16-.07.17,0a2.2,2.2,0,0,1,.53-.48,1.24,1.24,0,0,0,.47-.54q.11,0,.12,0s0-.05.12-.05a5.93,5.93,0,0,1,.49-.74A2.12,2.12,0,0,0,28,17.1a.52.52,0,0,1,.1-.11.35.35,0,0,0,.1-.11.92.92,0,0,1,0-.41,1.59,1.59,0,0,0,.1-.39.92.92,0,0,0,0-.19.2.2,0,0,1,0-.15.24.24,0,0,1,0-.12A.2.2,0,0,0,28.4,15.51Z"/><path class="cls-2" d="M44.22,17.45a.72.72,0,0,0,0,.36.27.27,0,0,1,0,.25.24.24,0,0,1,.09.24c0,.1,0,.2-.07.31a.67.67,0,0,0,0,.2.48.48,0,0,1,0,.17,2,2,0,0,0-.13.26c0,.06,0,.08-.07.08a.52.52,0,0,1,0,.25,2.25,2.25,0,0,1-.08.24.61.61,0,0,1-.07.21.11.11,0,0,0,0,.08.84.84,0,0,1,0,.27l-.05.12-.12.32c0,.11-.08.22-.13.33l-.18.4a1,1,0,0,1-.22.33.35.35,0,0,0,0,.13.88.88,0,0,1,0,.14l-.19.17a.83.83,0,0,0-.16.24,1.28,1.28,0,0,1-.2.32.53.53,0,0,1-.19.15.94.94,0,0,0-.2.16c-.07,0-.11,0-.12,0s0,0-.11,0a1.21,1.21,0,0,1-.3.24,1.66,1.66,0,0,1-.41.16l-.17.05s-.07,0-.09,0a1.34,1.34,0,0,0-.26.09.93.93,0,0,1-.29.05,1,1,0,0,0-.32,0l-.19.05a1,1,0,0,1-.35,0,2.29,2.29,0,0,0-.37,0,.38.38,0,0,0-.2,0l-.08,0H38.6a.19.19,0,0,0-.11,0l-.25.07a.49.49,0,0,1-.32,0,3.28,3.28,0,0,1-.69.1.87.87,0,0,1-.56-.16.33.33,0,0,1-.26,0l-.19,0h-.1a3.59,3.59,0,0,1-.41-.11,1.35,1.35,0,0,1-.38-.19,2.16,2.16,0,0,1-.42-.19.8.8,0,0,0-.34-.1l-.18-.2-.1-.13a.31.31,0,0,0-.1-.05.12.12,0,0,1-.1-.05,1.22,1.22,0,0,0-.24-.17.52.52,0,0,1-.11-.07l-.08-.09-.08-.12-.27-.3a1,1,0,0,0-.16-.14.59.59,0,0,0,0-.13.15.15,0,0,1,0-.14,1.47,1.47,0,0,1-.17-.16.09.09,0,0,0,0-.06,1.77,1.77,0,0,0-.24-.33.35.35,0,0,1-.06-.14,1.84,1.84,0,0,1-.06-.23,2,2,0,0,0-.09-.29.41.41,0,0,1,0-.22.28.28,0,0,0-.09-.1.23.23,0,0,1-.07-.1.84.84,0,0,1,0-.31.67.67,0,0,0,0-.28.62.62,0,0,0-.07-.19.17.17,0,0,1,0-.18A.38.38,0,0,1,32,19a.39.39,0,0,0-.1-.16.29.29,0,0,0,0-.24.84.84,0,0,1-.05-.29c0-.05,0-.1,0-.15s0-.1,0-.17v-.35a1.41,1.41,0,0,1,.06-.22,1.72,1.72,0,0,1,.07-.21,1.83,1.83,0,0,0,0-.21.12.12,0,0,1,.08-.13.64.64,0,0,1,0-.49,1.16,1.16,0,0,0,.1-.49.24.24,0,0,0,.06-.11.67.67,0,0,1,.06-.12.88.88,0,0,1,.07-.36,1.66,1.66,0,0,0,.12-.31.29.29,0,0,0,.17-.13l.11-.19a.38.38,0,0,0,.16-.2.13.13,0,0,1,.15-.09c.08-.12.14-.22.19-.31a.54.54,0,0,1,.22-.2l.2-.1.08-.06a.53.53,0,0,0,.1-.12l.08-.09a2.11,2.11,0,0,1,.37-.22.5.5,0,0,1,.15-.14l.2-.13A1.89,1.89,0,0,1,35,12.9l.1,0,.18-.11a.18.18,0,0,1,.21,0,1.25,1.25,0,0,1,.88-.25l.49-.12a1.42,1.42,0,0,1,.43,0l.15,0,.13,0,.2,0,.19,0,.41,0a.67.67,0,0,1,.28,0,.94.94,0,0,0,.32.05h.13l.12,0,.1,0a1.45,1.45,0,0,0,.33.06l.16,0a.51.51,0,0,1,.17,0l.16.08.16,0,.17.05a2,2,0,0,0,.53,0,1.18,1.18,0,0,1,.53.1l.1.06.12.08a.38.38,0,0,1,.14.06l.09.07a3.57,3.57,0,0,1,.55.34l.38.33a.43.43,0,0,0,0,.17l.09.15c.06.06.12.11.16.16l.14.15a.1.1,0,0,1,0,.1.49.49,0,0,0,0,.15c0,.06.07.14.12.22a2.14,2.14,0,0,0,.13.22c0,.11,0,.17,0,.19l.08.16.1.26a.37.37,0,0,0,.23.21.27.27,0,0,0,0,.21,1.13,1.13,0,0,1,.08.24,2.64,2.64,0,0,1,0,.28V17a1.53,1.53,0,0,0,0,.31A1.24,1.24,0,0,1,44.22,17.45Zm-2.43-.23a1.92,1.92,0,0,1,0-.2.24.24,0,0,0,0-.14,2.22,2.22,0,0,0-.12-.39,1.68,1.68,0,0,1-.12-.43.7.7,0,0,1,0-.25,1.41,1.41,0,0,0,0-.28.17.17,0,0,1-.1-.12.13.13,0,0,0-.07-.12.22.22,0,0,0-.12-.13.17.17,0,0,1-.1-.14,3.5,3.5,0,0,1-.39-.2,3,3,0,0,1-.41,0l-.15-.08a.4.4,0,0,0-.13-.07.27.27,0,0,0-.23,0s-.12,0-.24,0a.26.26,0,0,1-.15-.16.44.44,0,0,0-.16-.17.19.19,0,0,0-.13,0H39a.11.11,0,0,1-.08-.07s-.06,0-.13,0a2.33,2.33,0,0,0-.39.11.56.56,0,0,1-.44,0,.26.26,0,0,0-.15.06l-.12.08s0-.05-.09,0h-.13a1.79,1.79,0,0,1-.39.21l-.39.18a.7.7,0,0,0-.23.14.69.69,0,0,1-.11.12.69.69,0,0,0-.11.13.5.5,0,0,1-.14.1,1.75,1.75,0,0,0-.42.31,1.36,1.36,0,0,1-.31.24.36.36,0,0,1-.13.25.55.55,0,0,0-.18.26c0,.07,0,.15-.07.24a1.26,1.26,0,0,1-.07.25,1.73,1.73,0,0,0-.11.62.81.81,0,0,1-.11.46.13.13,0,0,1,0,.12.29.29,0,0,0,0,.16c0,.07,0,.14.07.21a.34.34,0,0,1,0,.22,1.75,1.75,0,0,0,0,.29q.1.14.09.18a.11.11,0,0,0,0,.08.37.37,0,0,0,.07.12.15.15,0,0,1,0,.17.16.16,0,0,1,.12.12.14.14,0,0,0,.09.12.26.26,0,0,0,0,.25.34.34,0,0,1,.05.3c.07.06.1.1.1.12a.29.29,0,0,0,0,.09l.09.09a.17.17,0,0,1,0,.15.46.46,0,0,1,.18.13.94.94,0,0,0,.17.18l.09.07a.22.22,0,0,1,.09.07.83.83,0,0,1,.17.12.53.53,0,0,0,.12.1.4.4,0,0,0,.18.12.27.27,0,0,1,.15.05l.11.08a.24.24,0,0,0,.09.06,1.28,1.28,0,0,0,.35.07.48.48,0,0,1,.32.17.94.94,0,0,1,.3.05.68.68,0,0,0,.33,0,.14.14,0,0,1,.13.05.17.17,0,0,0,.14.05l.14,0a.28.28,0,0,1,.14,0,.34.34,0,0,1,.2,0l.17,0,.24-.08.19-.11.18-.11a.46.46,0,0,1,.21-.05.2.2,0,0,1,.09-.15l.13-.11.19-.18a.79.79,0,0,0,.14-.17.34.34,0,0,1,.1-.13.58.58,0,0,0,.1-.12,2.19,2.19,0,0,0,.25-.37l.2-.4.12-.21a1.22,1.22,0,0,0,.1-.24.87.87,0,0,1,.06-.25.09.09,0,0,0,0-.1c0-.1,0-.2.07-.27a.64.64,0,0,0,0-.24.33.33,0,0,0,.1-.24,1.4,1.4,0,0,1,0-.33.49.49,0,0,1,.06-.17.33.33,0,0,0,0-.17,1.48,1.48,0,0,0,0-.38Z"/><path class="cls-2" d="M63.38,12.51a.28.28,0,0,1-.06.25,2.43,2.43,0,0,0-.14.2,1.09,1.09,0,0,1-.24.39,2.6,2.6,0,0,1-.15.42.67.67,0,0,1-.24.31.21.21,0,0,1,0,.19,1.42,1.42,0,0,0-.11.18.62.62,0,0,1-.12.26l-.09.09a1.28,1.28,0,0,0-.09.24.76.76,0,0,0,0,.14l-.24.47-.25.47a.48.48,0,0,0-.07.16.17.17,0,0,1-.13.11,1.09,1.09,0,0,1-.13.42,2.36,2.36,0,0,0-.22.39.81.81,0,0,0-.15.27.78.78,0,0,1-.16.24.82.82,0,0,1-.07.29,2.1,2.1,0,0,1-.13.26l-.07.15a.28.28,0,0,1-.09.1.35.35,0,0,1,0,.16.21.21,0,0,0,0,.16.58.58,0,0,0-.11.24.28.28,0,0,1,0,.11,1.89,1.89,0,0,0-.12.21,1,1,0,0,1,0,.1.45.45,0,0,1-.1.13.28.28,0,0,0-.1.15.15.15,0,0,0,0,.11.59.59,0,0,1,0,.14l-.13.22a.17.17,0,0,1-.06.1.85.85,0,0,0-.07.15l0,.08a2.05,2.05,0,0,1-.13.25,2.1,2.1,0,0,0-.15.3,1.84,1.84,0,0,1-.13.25,1.24,1.24,0,0,0-.1.2.27.27,0,0,0,0,.11.28.28,0,0,1,0,.15c0,.11-.09.22-.13.34a3.91,3.91,0,0,1-.18.35,3.21,3.21,0,0,0-.06.6.52.52,0,0,1-.22.45.8.8,0,0,1-.23,0l-.26,0a1.09,1.09,0,0,1-.08-.15.67.67,0,0,1-.08-.17,1.1,1.1,0,0,1-.24-.35.68.68,0,0,0-.23-.3.75.75,0,0,1,0-.2.84.84,0,0,0-.05-.17.19.19,0,0,0-.1-.14s0-.09,0-.19a1.25,1.25,0,0,1-.28-.65L56.52,21a1.5,1.5,0,0,1-.09-.18,1.28,1.28,0,0,1-.11-.23.53.53,0,0,1,0-.13.3.3,0,0,0-.09-.1l-.11-.07a.25.25,0,0,0-.09-.23,1,1,0,0,1-.16-.2.17.17,0,0,1-.06-.12.23.23,0,0,0-.06-.12l-.12-.2a.55.55,0,0,1-.09-.19v-.06c-.05-.09-.1-.2-.16-.33s-.11-.23-.16-.34a.73.73,0,0,1-.16-.23,1.77,1.77,0,0,0-.17-.24c-.07-.1-.1-.16-.09-.19a.16.16,0,0,0,0-.1.55.55,0,0,1-.11-.16.22.22,0,0,1,0-.08,1.27,1.27,0,0,1-.12-.34,1.72,1.72,0,0,0-.07-.21.42.42,0,0,0-.1-.15.24.24,0,0,1-.06-.08.35.35,0,0,0-.24.22,4,4,0,0,0-.17.4c-.12.42-.22.81-.3,1.18,0,.08-.05.16-.07.22a.44.44,0,0,1-.12.19,1.88,1.88,0,0,1-.12.48c0,.14-.11.28-.18.43s0,.19-.07.25a1.71,1.71,0,0,0-.07.18,1.4,1.4,0,0,1-.12.18.33.33,0,0,0-.05.23.21.21,0,0,0-.18.18c0,.1-.08.15-.18.17a.16.16,0,0,1,0,.13s0,.06,0,.13a.15.15,0,0,1-.07.12.48.48,0,0,0-.09.13.18.18,0,0,1,0,.16.21.21,0,0,0,0,.16,1.15,1.15,0,0,1-.16.48.64.64,0,0,0-.12.36l-.09.1-.08.12v.33a.73.73,0,0,0-.15.11s-.1,0-.19,0a.24.24,0,0,0-.14.12.2.2,0,0,1-.11.13.45.45,0,0,0-.23,0,.62.62,0,0,1-.24,0c-.08-.07-.12-.11-.12-.13a.84.84,0,0,0-.08-.14.88.88,0,0,1-.1-.19,1,1,0,0,1-.06-.14.94.94,0,0,1-.17-.26c0-.07,0-.14-.08-.2a.15.15,0,0,1-.1-.12l-.06-.17a1.66,1.66,0,0,1-.17-.33.6.6,0,0,0-.24-.3.72.72,0,0,0-.07-.33c0-.09-.09-.19-.13-.28l-.13-.31s-.05-.09-.07-.14a.46.46,0,0,0-.07-.14.58.58,0,0,0-.1-.12l-.14-.11A1,1,0,0,1,48.7,20a.79.79,0,0,0-.06-.22,1.68,1.68,0,0,1-.2-.34.65.65,0,0,0-.25-.29.26.26,0,0,0-.06-.25.51.51,0,0,1-.1-.26.51.51,0,0,1-.16-.25,1.48,1.48,0,0,0-.14-.32.55.55,0,0,0-.1-.17l-.09-.16a4.08,4.08,0,0,0-.12-.43L47.3,17a.37.37,0,0,1-.06-.15.18.18,0,0,0,0-.1A2,2,0,0,1,47,16.4a1.47,1.47,0,0,0-.1-.22.84.84,0,0,1-.12-.19l-.06-.09-.19-.31-.08-.18a.79.79,0,0,0-.08-.16.59.59,0,0,1,0-.13.19.19,0,0,0,0-.12l-.14-.2a1,1,0,0,1-.14-.3.89.89,0,0,0-.15-.31v-.27a.1.1,0,0,0-.1-.08.12.12,0,0,1-.12-.06.51.51,0,0,0-.1-.21,1.4,1.4,0,0,1-.13-.18,1.38,1.38,0,0,1-.08-.2.9.9,0,0,0-.08-.19.73.73,0,0,1-.07-.21.85.85,0,0,0-.09-.24.24.24,0,0,1,.1-.22.94.94,0,0,1-.06-.18.58.58,0,0,1,0-.19.36.36,0,0,1,.08-.12l.08-.1.25,0a.47.47,0,0,0,.2-.1.55.55,0,0,0,.23,0l.2-.09a.17.17,0,0,1,.12,0l.12.07a.55.55,0,0,0,.22,0,.43.43,0,0,1,.25,0,.75.75,0,0,1,.21,0l.2,0a1,1,0,0,0,.18-.06.53.53,0,0,1,.18,0,.63.63,0,0,1,.25.1.33.33,0,0,1,.14.17.34.34,0,0,1,0,.14.4.4,0,0,0,0,.15,2.48,2.48,0,0,1,.18.31,2.21,2.21,0,0,1,.11.38,3,3,0,0,0,0,.33,1.4,1.4,0,0,0,.06.28.49.49,0,0,0,.1.16.4.4,0,0,1,.1.17,2,2,0,0,0,.14.31.44.44,0,0,1,0,.26.27.27,0,0,1,.1.11.52.52,0,0,0,.08.11c0,.12.05.24.07.36s0,.23.07.34l.1.2a1.36,1.36,0,0,1,.11.2.78.78,0,0,1,0,.21.48.48,0,0,0,0,.2.27.27,0,0,0,.08.1l.08.1a3,3,0,0,0,.2.57,2.35,2.35,0,0,1,.1.47,1.29,1.29,0,0,0,0,.35.42.42,0,0,1,.06.14v.09a2.14,2.14,0,0,0,.19.43,1.26,1.26,0,0,1,.16.42.36.36,0,0,0,.1-.11s.08-.07.16-.07a.24.24,0,0,0,0-.16.26.26,0,0,1,0-.17,1.37,1.37,0,0,1,.16-.24.42.42,0,0,0,.11-.15.34.34,0,0,1,.06-.15l.08-.11a2.21,2.21,0,0,0,.14-.24l.07-.16c0-.05.05-.09.07-.13a1.58,1.58,0,0,0,.13-.31,1.57,1.57,0,0,1,.1-.28.56.56,0,0,1,.08-.21.16.16,0,0,0,.06-.08.3.3,0,0,0,0-.15.5.5,0,0,1,0-.13.28.28,0,0,1,.11-.13.5.5,0,0,0,.1-.14c0-.05.05-.11.07-.17a.87.87,0,0,1,.07-.17,1.68,1.68,0,0,0,.18-.21l.17-.2a1,1,0,0,0,.17-.3.5.5,0,0,1,.21-.27,1.82,1.82,0,0,1,.11-.43.84.84,0,0,1,.14-.23.17.17,0,0,0,0-.16,4.69,4.69,0,0,0,.31-.55,5.87,5.87,0,0,0,.24-.63l.09-.27a1.07,1.07,0,0,1,.15-.22,1.48,1.48,0,0,0,.29,0h.1a.32.32,0,0,1,.18.14.53.53,0,0,0,.15.19.9.9,0,0,0,.12.48,1.18,1.18,0,0,1,.14.53,1.21,1.21,0,0,1,.18.43,1.87,1.87,0,0,0,.15.49,2.07,2.07,0,0,0,.21.4.6.6,0,0,1,.08.44.24.24,0,0,0,.09.14l.09.12a.7.7,0,0,1,.09.17.65.65,0,0,0,.09.16.59.59,0,0,0,0,.29.23.23,0,0,1,.07.14.19.19,0,0,1,0,.13.27.27,0,0,0,0,.13.75.75,0,0,0,.08.18.26.26,0,0,0,.12.11,1.57,1.57,0,0,0,.13.29l.15.28.2.35.19.34a1.73,1.73,0,0,1,.12.26l.09.19a1.27,1.27,0,0,1,.09.2.16.16,0,0,0,0,.09.55.55,0,0,1,.11.16l0,.08a.24.24,0,0,0,.16-.15l.09-.22a1.23,1.23,0,0,0,.1-.3c0-.06,0-.1,0-.12a.28.28,0,0,1,.1-.15.31.31,0,0,0,.1-.12,3.38,3.38,0,0,0,.11-.34.64.64,0,0,1,.18-.27.24.24,0,0,1,0-.22.51.51,0,0,0,.12-.13.69.69,0,0,1,0-.32c0-.11.08-.21.1-.29a2.56,2.56,0,0,1,.21-.47.46.46,0,0,0,.1-.17.1.1,0,0,1,0-.09,1,1,0,0,1,.08-.15.83.83,0,0,0,.08-.12.54.54,0,0,0,.07-.13.14.14,0,0,1,.12-.09.82.82,0,0,1,.14-.37,1.57,1.57,0,0,0,.18-.31,1.26,1.26,0,0,0,.13-.34,1.06,1.06,0,0,1,.18-.33.12.12,0,0,1,0-.15.31.31,0,0,0,.05-.11.17.17,0,0,0,0-.14.29.29,0,0,1,0-.13,1.72,1.72,0,0,1,.14-.22l.13-.19a1.37,1.37,0,0,0,.13-.2.26.26,0,0,1,.13-.14.33.33,0,0,1,.22,0l.31,0h.27a.29.29,0,0,1,.22.09A.51.51,0,0,1,62,12.2a2,2,0,0,0,.49,0,.85.85,0,0,0,.23,0,.6.6,0,0,1,.22,0,.45.45,0,0,1,.42.24Z"/><path class="cls-2" d="M76,23.91C76,24,76,24,76,24a.21.21,0,0,0-.12.11.23.23,0,0,0,0,.11c0,.05,0,.07-.09.07a.57.57,0,0,0-.18,0,.11.11,0,0,1-.08,0,.2.2,0,0,1-.13,0,.34.34,0,0,0-.16-.06,1.07,1.07,0,0,0-.4,0,1.61,1.61,0,0,1-.37,0l-.14,0a.3.3,0,0,0-.13,0h-.39l-.38,0-.16-.06a.2.2,0,0,0-.17,0,.23.23,0,0,0-.09-.15.16.16,0,0,1-.09-.14.6.6,0,0,1,0-.39.72.72,0,0,0,0-.38,1.12,1.12,0,0,0,.14-.45.69.69,0,0,1,0-.2.72.72,0,0,0,0-.13.68.68,0,0,0,0-.3,2.54,2.54,0,0,1,0-.39c0-.14,0-.28,0-.42v-.48c0-.15,0-.25,0-.32s0-.11,0-.17a.51.51,0,0,0,0-.23.22.22,0,0,1,0-.1.77.77,0,0,0,0-.28,1,1,0,0,1,0-.16.5.5,0,0,1,0-.12.36.36,0,0,0,0-.11,2.38,2.38,0,0,0,0-.33c0-.08,0-.15,0-.22a.52.52,0,0,1,0-.17.11.11,0,0,0-.08-.13.55.55,0,0,0,0-.23,1.78,1.78,0,0,1,0-.32v-.17a.69.69,0,0,1,0-.17v-.05c0-.06,0-.12-.06-.2a1.72,1.72,0,0,0-.07-.21.37.37,0,0,0,0-.23,2.17,2.17,0,0,0-.07-.24.4.4,0,0,0-.07-.19l0-.07-.21-.56a2.43,2.43,0,0,1-.14-.59,2.18,2.18,0,0,0-.21-.22.65.65,0,0,1-.17-.26l-.38-.22a.82.82,0,0,0-.5-.05l-.14,0-.17.05-.29.09a.94.94,0,0,0-.28.12.46.46,0,0,1-.17.1s-.06,0-.07,0a.27.27,0,0,0-.1.11.35.35,0,0,1-.09.11l-.13.17a.36.36,0,0,1-.07.1l-.12.15a.48.48,0,0,1-.17.13.15.15,0,0,1-.06.13.32.32,0,0,0-.1.1c0,.08,0,.13-.08.14l-.06,0a.87.87,0,0,0-.1.24.3.3,0,0,1-.17.21.62.62,0,0,1-.08.28,1,1,0,0,1-.16.21.55.55,0,0,1-.1.41,1.14,1.14,0,0,0-.21.3c0,.15-.05.27-.07.36a1,1,0,0,1-.07.23.79.79,0,0,0-.06.22.41.41,0,0,1-.08.19,1.14,1.14,0,0,1-.06.55,2.65,2.65,0,0,0-.15.57.61.61,0,0,0,0,.14.24.24,0,0,1,0,.15c0,.12,0,.27,0,.44s0,.33,0,.48,0,.06,0,.1a.49.49,0,0,1,0,.12,1.27,1.27,0,0,1,0,.28,1.12,1.12,0,0,0,0,.27.38.38,0,0,0,0,.21.34.34,0,0,1,0,.22c0,.12,0,.22,0,.28l0,.19a.4.4,0,0,1,0,.15.14.14,0,0,0,.07.11,1,1,0,0,0,0,.35.86.86,0,0,0,.13.29.3.3,0,0,1,0,.32.44.44,0,0,1-.47.17,3.53,3.53,0,0,0-.66,0l-.28,0a1,1,0,0,1-.25,0l-.28,0a.49.49,0,0,1-.27,0,.27.27,0,0,1-.12,0L65.2,24a.5.5,0,0,1-.2-.1.33.33,0,0,1,0-.21.78.78,0,0,0,0-.22.35.35,0,0,0,0-.13.4.4,0,0,1,0-.15c0-.11,0-.22,0-.33s0-.22,0-.33a1.36,1.36,0,0,1,0-.29A2.28,2.28,0,0,0,65,22c0-.06,0-.14,0-.22a.25.25,0,0,1,.09-.22c0-.11,0-.18,0-.22a.17.17,0,0,0,0-.07A1.51,1.51,0,0,0,65,21v-.7c0-.13,0-.27,0-.41s0-.29,0-.46a.42.42,0,0,0,0-.17.44.44,0,0,1,0-.1.4.4,0,0,0,0-.24.31.31,0,0,1,0-.13,2.47,2.47,0,0,1,0-.36l0-.12a.76.76,0,0,1,0-.11.36.36,0,0,1,0-.22.58.58,0,0,0,0-.1c0-.11,0-.24,0-.37A.67.67,0,0,1,65,17l-.09-.22a.19.19,0,0,1,.07-.21l-.09-.19a.75.75,0,0,1,0-.24,2.18,2.18,0,0,0,0-.57.62.62,0,0,1,.08-.43.55.55,0,0,1-.07-.39,1.55,1.55,0,0,0,0-.48.56.56,0,0,0,0-.12.69.69,0,0,1,0-.13,1.13,1.13,0,0,1,0-.32.81.81,0,0,0,0-.31,1.89,1.89,0,0,1-.12-.54,1.49,1.49,0,0,0-.08-.42.22.22,0,0,0,.09-.1.75.75,0,0,1,.07-.12.76.76,0,0,1,.34,0,.28.28,0,0,1,.25.14.3.3,0,0,1,.22-.06l.23,0h.51l.37,0H67l.1.1.08.12a1.36,1.36,0,0,1,.13.52c0,.23,0,.44.07.63.07,0,.11,0,.11-.06a.23.23,0,0,1,.06-.13l.2-.12a.94.94,0,0,0,.2-.16l.14-.05a.18.18,0,0,1,.15,0,.4.4,0,0,0,.1-.12,1,1,0,0,1,.08-.11.57.57,0,0,0,.25-.16.24.24,0,0,1,.12,0,.11.11,0,0,0,.08-.1.32.32,0,0,0,.21-.08l.2-.13.26-.15a.28.28,0,0,1,.11-.07s.06,0,.11,0H70l.25-.06L70.5,12l.14,0,.21,0H71a1,1,0,0,0,.33.06.93.93,0,0,1,.26,0l.36.1.23,0a.52.52,0,0,0,.23.1l.25.09a.84.84,0,0,1,.2.15l.08.1a.15.15,0,0,1,0,.11l.23.18a1.5,1.5,0,0,1,.24.21.24.24,0,0,1,.06.1.21.21,0,0,0,.06.1l.13.1.14.1a.34.34,0,0,1,.1.13.18.18,0,0,0,.12.1.3.3,0,0,0,.11.23.39.39,0,0,1,.15.2.73.73,0,0,1,.06.21.29.29,0,0,0,.11.21.85.85,0,0,0,.11.35,3.78,3.78,0,0,1,.17.35.82.82,0,0,1,.06.19c0,.06,0,.13.07.2l.06.17A.47.47,0,0,0,75,16a1.49,1.49,0,0,1,.06.3.59.59,0,0,0,0,.13,2.72,2.72,0,0,1,.24.73l.06.27a.22.22,0,0,1,0,.1,1.41,1.41,0,0,1,0,.18.65.65,0,0,0,0,.19.44.44,0,0,0,0,.16.88.88,0,0,1,0,.16.43.43,0,0,1,0,.16.24.24,0,0,0,0,.17,2.21,2.21,0,0,0,.06.34c0,.11,0,.22.08.33a.13.13,0,0,1,0,.15.14.14,0,0,0-.05.12.75.75,0,0,1,.07.18,1.94,1.94,0,0,1,0,.2.52.52,0,0,1,0,.11.5.5,0,0,0,0,.12,2.46,2.46,0,0,0,0,.26.27.27,0,0,1-.1.25.94.94,0,0,1,.12.43,1.12,1.12,0,0,1-.06.45c0,.06,0,.1,0,.11s0,0,0,.11a.48.48,0,0,0,0,.3.58.58,0,0,1,0,.29.28.28,0,0,1,0,.15.29.29,0,0,0,0,.14.15.15,0,0,0,0,.17.15.15,0,0,1,0,.19.48.48,0,0,0,.07.18.33.33,0,0,1,0,.25.28.28,0,0,0,.1.09l.12.07c0,.1,0,.16,0,.18A.14.14,0,0,1,76,23.91Z"/><path class="cls-2" d="M81.84,24.14c0,.13-.08.19-.23.16a.17.17,0,0,0,0,.13.1.1,0,0,1-.08.13.62.62,0,0,1-.36,0,.59.59,0,0,1-.29-.12,2.9,2.9,0,0,0-1,0,4,4,0,0,1-1,0c-.1-.09-.14-.12-.13-.09s0,0-.09,0a.38.38,0,0,1-.15-.22,2.28,2.28,0,0,1,0-.27v-.37a1.67,1.67,0,0,0,0-.31v-.34c0-.23,0-.5,0-.81a1.36,1.36,0,0,1,.14-.8.34.34,0,0,1,0-.3,1.72,1.72,0,0,0,.07-.37,1.12,1.12,0,0,0,0-.24.24.24,0,0,1,.08-.23.26.26,0,0,1-.08-.25q0-.14.06-.3a.33.33,0,0,0,0-.15.13.13,0,0,1,.07-.14,1.32,1.32,0,0,0-.08-.3.89.89,0,0,1,0-.37s0-.08,0-.11a.27.27,0,0,0,0-.15,1.26,1.26,0,0,1,0-.21.38.38,0,0,0,0-.1.65.65,0,0,0,0-.2,1.69,1.69,0,0,1,0-.25.92.92,0,0,0,0-.22.64.64,0,0,0,0-.2c0-.06,0-.12,0-.19a2.22,2.22,0,0,0,0-.53c0-.14,0-.29-.07-.45s0-.21,0-.34a2.54,2.54,0,0,1,0-.39,1.16,1.16,0,0,0,0-.34,1.55,1.55,0,0,1,0-.23,1.49,1.49,0,0,1,0-.21v-.2a.5.5,0,0,1,0-.26.52.52,0,0,0,0-.11,1.12,1.12,0,0,0,0-.24,2.87,2.87,0,0,1,0-.31,2,2,0,0,1,0-.43v-.45a.39.39,0,0,1,0-.15.51.51,0,0,0,0-.13.24.24,0,0,0,0-.17A.1.1,0,0,1,78,12c0-.09,0-.16,0-.19a.37.37,0,0,1,0-.09.48.48,0,0,0,0-.29.39.39,0,0,1,0-.14A2.46,2.46,0,0,1,78,11a.37.37,0,0,0,0-.25.17.17,0,0,0,.09-.21.79.79,0,0,1,0-.24.39.39,0,0,1,.07-.23.22.22,0,0,0,0-.22.18.18,0,0,0,.08-.12.35.35,0,0,1,.06-.14.65.65,0,0,1,0-.4c0-.16.1-.3.14-.44s0-.11,0-.13l-.09-.07c0-.11,0-.22.08-.33A.31.31,0,0,1,78.55,8c.28,0,.53.06.76.07l.69,0L80.18,8a.29.29,0,0,1,.17-.07.57.57,0,0,1,.26.09l.27.13a.66.66,0,0,1,.09.19,1.42,1.42,0,0,0,.07.22c0,.07,0,.1-.08.11a.18.18,0,0,0-.12.09V9a.52.52,0,0,0,0,.31.34.34,0,0,1,0,.16.75.75,0,0,1,0,.26,1.12,1.12,0,0,0,0,.27.32.32,0,0,0,0,.13c0,.05,0,.1,0,.15a.24.24,0,0,0,0,.12s0,.08,0,.11a2.56,2.56,0,0,1,0,.39,2.53,2.53,0,0,0,0,.38.58.58,0,0,1,0,.29.17.17,0,0,0,0,.12A2.11,2.11,0,0,0,81,12a.35.35,0,0,1,0,.12,2,2,0,0,0,0,.35c0,.09,0,.17,0,.24a3.52,3.52,0,0,1,0,.56,1.71,1.71,0,0,0,.1.54.45.45,0,0,0,0,.32,1.19,1.19,0,0,1,0,.64,2.16,2.16,0,0,0,0,.28.17.17,0,0,1,0,.18,1.07,1.07,0,0,0-.07.19,4,4,0,0,0,0,.49,2.63,2.63,0,0,1,0,.49c0,.17,0,.37,0,.57a5.42,5.42,0,0,0,0,.57.71.71,0,0,0,0,.23.36.36,0,0,1,0,.14,1.78,1.78,0,0,1,0,.28,1.12,1.12,0,0,0,0,.27.74.74,0,0,0,0,.21.93.93,0,0,1,0,.24,1.93,1.93,0,0,1,0,.24c0,.08,0,.16,0,.25s0,.37,0,.55a4.8,4.8,0,0,1,0,.55,3,3,0,0,1,0,.43,1.62,1.62,0,0,0,0,.44c0,.1,0,.2,0,.3s0,.21,0,.31a.75.75,0,0,0,0,.16.77.77,0,0,1,0,.15,2.69,2.69,0,0,1-.06.69,1.12,1.12,0,0,0,0,.7.37.37,0,0,0,.25.12.43.43,0,0,1,.28.12Z"/><path class="cls-2" d="M95.64,17.45a.72.72,0,0,0,0,.36.27.27,0,0,1,0,.25.24.24,0,0,1,.09.24c0,.1,0,.2-.07.31a.67.67,0,0,0,0,.2.48.48,0,0,1,0,.17,2,2,0,0,0-.13.26c0,.06,0,.08-.07.08a.69.69,0,0,1,0,.25,2.25,2.25,0,0,0-.08.24.82.82,0,0,1-.08.21.11.11,0,0,0,0,.08.84.84,0,0,1,0,.27l0,.12-.12.32-.12.33c-.07.13-.13.27-.19.4a1,1,0,0,1-.22.33.35.35,0,0,0,0,.13.37.37,0,0,1,0,.14l-.19.17a1.09,1.09,0,0,0-.16.24,1.28,1.28,0,0,1-.2.32.53.53,0,0,1-.19.15,1.27,1.27,0,0,0-.2.16c-.07,0-.11,0-.12,0s-.05,0-.1,0a1.24,1.24,0,0,1-.31.24,1.52,1.52,0,0,1-.41.16l-.17.05a.13.13,0,0,0-.09,0l-.26.09a.88.88,0,0,1-.29.05,1,1,0,0,0-.32,0l-.19.05a1,1,0,0,1-.35,0,2.32,2.32,0,0,0-.37,0,.4.4,0,0,0-.2,0,.13.13,0,0,1-.08,0H90a.2.2,0,0,0-.11,0l-.24.07a.51.51,0,0,1-.33,0,3.28,3.28,0,0,1-.69.1A.84.84,0,0,1,88.1,24a.36.36,0,0,1-.27,0l-.19,0h-.09a3.25,3.25,0,0,1-.42-.11,1.5,1.5,0,0,1-.38-.19,2.16,2.16,0,0,1-.42-.19.8.8,0,0,0-.33-.1l-.19-.2-.1-.13a.31.31,0,0,0-.1-.05.12.12,0,0,1-.1-.05,1.22,1.22,0,0,0-.24-.17l-.11-.07-.08-.09L85,22.46a2.33,2.33,0,0,0-.27-.3,1,1,0,0,0-.16-.14.32.32,0,0,0,0-.13.15.15,0,0,1,0-.14.71.71,0,0,1-.16-.16s0-.05,0-.06a1.77,1.77,0,0,0-.24-.33.35.35,0,0,1-.06-.14,1.84,1.84,0,0,1-.06-.23c0-.12-.06-.22-.08-.29a.28.28,0,0,1,0-.22l-.1-.1a.36.36,0,0,1-.07-.1,1.71,1.71,0,0,1,0-.31.67.67,0,0,0,0-.28.62.62,0,0,0-.07-.19.19.19,0,0,1,0-.18.38.38,0,0,1-.09-.15.51.51,0,0,0-.09-.16.39.39,0,0,0,0-.24.65.65,0,0,1,0-.29.76.76,0,0,1,0-.15.61.61,0,0,1,0-.17v-.35a1.42,1.42,0,0,1,.05-.22,1.72,1.72,0,0,1,.07-.21,1.83,1.83,0,0,0,0-.21.13.13,0,0,1,.08-.13.68.68,0,0,1,0-.49,1.16,1.16,0,0,0,.1-.49.24.24,0,0,0,.06-.11.35.35,0,0,1,.07-.12.74.74,0,0,1,.07-.36A2.83,2.83,0,0,0,84,15a.29.29,0,0,0,.17-.13l.11-.19a.4.4,0,0,0,.17-.2.12.12,0,0,1,.14-.09,2.37,2.37,0,0,0,.19-.31.54.54,0,0,1,.22-.2l.2-.1.08-.06.11-.12.08-.09a1.74,1.74,0,0,1,.36-.22.54.54,0,0,1,.16-.14l.19-.13a1.89,1.89,0,0,1,.22-.12l.11,0,.17-.11a.18.18,0,0,1,.21,0,1.27,1.27,0,0,1,.88-.25l.49-.12a1.42,1.42,0,0,1,.43,0l.15,0,.13,0,.2,0,.19,0,.41,0a.67.67,0,0,1,.28,0,.94.94,0,0,0,.32.05h.13l.13,0,.1,0a1.48,1.48,0,0,0,.32.06l.17,0a.45.45,0,0,1,.16,0l.16.08.17,0,.16.05a2,2,0,0,0,.53,0,1.18,1.18,0,0,1,.53.1l.1.06.12.08.15.06a.27.27,0,0,0,.08.07,3.57,3.57,0,0,1,.55.34l.39.33a.31.31,0,0,0,0,.17,1.09,1.09,0,0,0,.08.15,1.2,1.2,0,0,1,.16.16l.14.15a.1.1,0,0,1,0,.1.34.34,0,0,0,0,.15,1.12,1.12,0,0,0,.11.22,2.14,2.14,0,0,0,.13.22.56.56,0,0,0,0,.19,1,1,0,0,1,.08.16l.1.26a.37.37,0,0,0,.23.21.27.27,0,0,0,0,.21.75.75,0,0,1,.08.24,2.64,2.64,0,0,1,0,.28V17a1.53,1.53,0,0,0,0,.31A1.24,1.24,0,0,1,95.64,17.45Zm-2.43-.23a1.92,1.92,0,0,1,0-.2.24.24,0,0,0,0-.14,1.27,1.27,0,0,0-.12-.39,2.21,2.21,0,0,1-.12-.43,1,1,0,0,1,0-.25.69.69,0,0,0,0-.28.14.14,0,0,1-.09-.12.15.15,0,0,0-.07-.12.27.27,0,0,0-.13-.13.19.19,0,0,1-.1-.14,3.5,3.5,0,0,1-.39-.2,2.71,2.71,0,0,1-.4,0l-.16-.08a.32.32,0,0,0-.13-.07c-.11,0-.18,0-.22,0s-.13,0-.25,0a.26.26,0,0,1-.15-.16.41.41,0,0,0-.15-.17.22.22,0,0,0-.14,0H90.4a.11.11,0,0,1-.08-.07s-.06,0-.12,0a2.19,2.19,0,0,0-.4.11.57.57,0,0,1-.44,0,.26.26,0,0,0-.15.06l-.11.08s0-.05-.1,0h-.13a1.79,1.79,0,0,1-.39.21l-.38.18a.66.66,0,0,0-.24.14.69.69,0,0,1-.11.12.69.69,0,0,0-.11.13l-.13.1a1.84,1.84,0,0,0-.43.31,1.36,1.36,0,0,1-.31.24.36.36,0,0,1-.13.25.54.54,0,0,0-.17.26,1.35,1.35,0,0,0-.08.24,1.26,1.26,0,0,1-.07.25,1.73,1.73,0,0,0-.11.62.81.81,0,0,1-.11.46.11.11,0,0,1,.05.12.43.43,0,0,0,0,.16,1.72,1.72,0,0,1,.07.21.34.34,0,0,1,0,.22,1.75,1.75,0,0,0,0,.29q.11.14.09.18a.22.22,0,0,0,0,.08.75.75,0,0,0,.07.12.17.17,0,0,1,0,.17.16.16,0,0,1,.11.12.14.14,0,0,0,.09.12.26.26,0,0,0,.05.25.34.34,0,0,1,0,.3c.07.06.1.1.1.12a.29.29,0,0,0,0,.09l.1.09a.21.21,0,0,1,0,.15.52.52,0,0,1,.17.13,1.41,1.41,0,0,0,.17.18l.09.07.1.07a1.11,1.11,0,0,1,.16.12.53.53,0,0,0,.12.1.37.37,0,0,0,.19.12.24.24,0,0,1,.14.05l.11.08a.24.24,0,0,0,.09.06,1.36,1.36,0,0,0,.35.07A.48.48,0,0,1,89,22a.94.94,0,0,1,.3.05.71.71,0,0,0,.34,0,.13.13,0,0,1,.12.05.18.18,0,0,0,.14.05l.14,0a.3.3,0,0,1,.15,0,.31.31,0,0,1,.19,0l.17,0L90.8,22l.19-.11.19-.11a.39.39,0,0,1,.2-.05.2.2,0,0,1,.09-.15l.13-.11.19-.18a.79.79,0,0,0,.14-.17A.34.34,0,0,1,92,21a.38.38,0,0,0,.1-.12,2.19,2.19,0,0,0,.25-.37c.07-.13.13-.26.2-.4a2.39,2.39,0,0,1,.13-.21,2.44,2.44,0,0,0,.1-.24.68.68,0,0,1,0-.25.09.09,0,0,0,0-.1c0-.1.05-.2.07-.27a.64.64,0,0,0,0-.24.3.3,0,0,0,.1-.24,1.4,1.4,0,0,1,0-.33l.06-.17a.33.33,0,0,0,0-.17,1.48,1.48,0,0,0,0-.38Z"/><path class="cls-2" d="M109.36,12.41a.29.29,0,0,1,0,.16.49.49,0,0,0,0,.19.39.39,0,0,1,0,.18.25.25,0,0,0,0,.08.19.19,0,0,1,0,.15.11.11,0,0,0,0,.08.26.26,0,0,1,0,.18.26.26,0,0,0,0,.1.33.33,0,0,0,0,.14.59.59,0,0,1,0,.13,2.16,2.16,0,0,0,0,.25,1.06,1.06,0,0,1,0,.14,1.77,1.77,0,0,1,0,.22,1.26,1.26,0,0,0,0,.27.26.26,0,0,0,0,.1.27.27,0,0,1,0,.12,2.48,2.48,0,0,1,0,.47,2.48,2.48,0,0,0,0,.47.9.9,0,0,0,0,.18.54.54,0,0,1,0,.18.77.77,0,0,1,0,.27,1.15,1.15,0,0,0-.06.28,1.31,1.31,0,0,1,0,.28.44.44,0,0,0,0,.26,1.33,1.33,0,0,1-.1.24,1.69,1.69,0,0,1,0,.55,2.5,2.5,0,0,0,0,.55,1.06,1.06,0,0,0,0,.19,1.23,1.23,0,0,1,0,.2.44.44,0,0,1,0,.1.25.25,0,0,0,0,.12.63.63,0,0,1,0,.27l0,.12a2.57,2.57,0,0,0,0,.36.59.59,0,0,1-.11.29.53.53,0,0,0,0,.32.44.44,0,0,1-.06.36.44.44,0,0,1,0,.22c0,.07,0,.16,0,.26a1.17,1.17,0,0,1,0,.4.89.89,0,0,0,0,.22,2.2,2.2,0,0,0,0,.45,3.53,3.53,0,0,1,.06.42.33.33,0,0,0,0,.35.43.43,0,0,1,.13.3.94.94,0,0,0-.06.18.23.23,0,0,0,0,.09l-.19.09a.37.37,0,0,1-.16.07.25.25,0,0,1-.12,0l-.15,0a.42.42,0,0,0-.19,0l-.21,0a.63.63,0,0,1-.24,0,.75.75,0,0,0-.23,0,.7.7,0,0,0-.24.09.42.42,0,0,1-.21.06c-.1.09-.18.14-.25.13a.29.29,0,0,0-.14,0,.74.74,0,0,1-.2-.33.29.29,0,0,1,0-.34,1.06,1.06,0,0,1,0-.59,1.83,1.83,0,0,0,0-.66,1.11,1.11,0,0,0-.3.17,1.71,1.71,0,0,0-.25.22.57.57,0,0,0-.11.11.19.19,0,0,1-.12.11l-.18.09a.22.22,0,0,0-.14.1.54.54,0,0,1-.22,0,.52.52,0,0,0-.21,0l-.29.07-.32.07-.33.1a1,1,0,0,1-.43,0c-.11,0-.18,0-.21,0a.15.15,0,0,1-.11,0,.48.48,0,0,1-.35,0c0,.06-.09.07-.2,0a.76.76,0,0,1-.23-.08.48.48,0,0,1-.31,0l-.3-.06c-.07,0-.11,0-.11-.06a.11.11,0,0,0-.1-.08,3.62,3.62,0,0,1-.95-.1.23.23,0,0,0-.12-.12.27.27,0,0,1-.09-.15c-.07,0-.11,0-.13,0s-.06-.06-.13-.06a.37.37,0,0,0-.11-.15.65.65,0,0,1-.12-.11.27.27,0,0,1-.15,0,.21.21,0,0,0-.15-.05,1.4,1.4,0,0,0-.15-.18l0,0a.31.31,0,0,0-.15-.08l-.07,0L99.05,22l-.13-.15a.81.81,0,0,0-.2-.21.21.21,0,0,1-.06-.2,2,2,0,0,1-.24-.17l-.09-.11a.53.53,0,0,1-.1-.2.21.21,0,0,0-.1-.15c-.1-.15-.17-.27-.23-.35a.36.36,0,0,0-.22-.18c0-.06,0-.11,0-.12s0-.05,0-.1a.85.85,0,0,1-.24-.35,2.52,2.52,0,0,1-.15-.44c0-.15-.07-.31-.1-.47a3.74,3.74,0,0,0-.12-.45c0-.19,0-.39,0-.61a1.43,1.43,0,0,1,.1-.56.6.6,0,0,0,.06-.24,1.49,1.49,0,0,1,0-.21.63.63,0,0,0,0-.19l0-.19a3.17,3.17,0,0,1,.12-.49.73.73,0,0,1,.15-.29.36.36,0,0,1,0-.25,1.36,1.36,0,0,1,.1-.21l.12-.19a.43.43,0,0,0,.06-.22.62.62,0,0,0,.16-.2.8.8,0,0,1,.13-.21l.1-.19.12-.2a.68.68,0,0,1,.12-.12.2.2,0,0,0,.05-.17.39.39,0,0,0,.1-.08.75.75,0,0,1,.14-.08,4.81,4.81,0,0,0,.27-.44,1.67,1.67,0,0,1,.24-.35l.15-.14.16-.11a.18.18,0,0,1,.15-.13.16.16,0,0,0,.13-.13l.41-.09a1.16,1.16,0,0,0,.37-.18l.25,0a1.09,1.09,0,0,1,.56-.12l.23-.15h.62a4.62,4.62,0,0,1,.64,0l.32,0a.61.61,0,0,1,.27,0h.19a.2.2,0,0,1,.14.06.34.34,0,0,1,.35,0h.1a.26.26,0,0,1,.16,0,1.27,1.27,0,0,0,.28.06h.11l.2.1a.63.63,0,0,1,.14.1l.42.24a2.28,2.28,0,0,1,.3.17c.07.08.11.13.14.14l.08.06a.39.39,0,0,1,.08.1l.11.11a.31.31,0,0,0,.12.14l.16.14a.3.3,0,0,1,.07.11.28.28,0,0,0,.09.1l.14.11a.22.22,0,0,1,.09.17,1.5,1.5,0,0,0,0-.6,3.12,3.12,0,0,0-.12-.54.7.7,0,0,0-.13-.19c0-.05,0-.13,0-.26a.85.85,0,0,1,.1-.18.45.45,0,0,1,.11-.14l.14,0h.25l.17,0h.15l.55,0a2,2,0,0,1,.55.1.4.4,0,0,1,.27,0,1.45,1.45,0,0,0,.22.09.23.23,0,0,1,0,.14.72.72,0,0,0,0,.13Zm-3,4.89a.26.26,0,0,1,0-.17,1.48,1.48,0,0,1,0-.21.28.28,0,0,0-.1-.09l-.09-.08a.53.53,0,0,0,0-.26,1,1,0,0,1-.07-.2.31.31,0,0,0,0-.24.51.51,0,0,1-.07-.15.54.54,0,0,1,0-.22,2,2,0,0,0,0-.23q-.11-.06-.12-.12a.26.26,0,0,0-.07-.1l-.24-.25-.16-.16a1.53,1.53,0,0,0-.39-.27l-.31-.17-.26-.13a.57.57,0,0,0-.25-.06,1.11,1.11,0,0,1-.28,0l-.17-.07-.12-.05h-.12a.29.29,0,0,1-.16,0l-.14,0L103,14a.42.42,0,0,1-.3,0c-.07,0-.12,0-.15,0a.62.62,0,0,0-.27.08l-.22.15-.23.11-.09.05-.29.16-.14.1c-.1,0-.15.07-.16.1l-.06,0-.09.1-.08.1-.2.17-.12.12a.88.88,0,0,1-.29.18.46.46,0,0,1-.14.33.45.45,0,0,0-.12.34.76.76,0,0,0-.13.2c0,.06,0,.12-.08.19a1.11,1.11,0,0,0,0,.25,1.87,1.87,0,0,1-.05.3,1.38,1.38,0,0,1-.08.2.6.6,0,0,0-.06.19,1.1,1.1,0,0,1,0,.42.82.82,0,0,0-.07.29.45.45,0,0,0,0,.16.58.58,0,0,1,0,.19,1.13,1.13,0,0,1,0,.23.28.28,0,0,0,0,.11.62.62,0,0,0,.09.27.38.38,0,0,1,0,.28l.26.21a1.19,1.19,0,0,0,.29.18,1.27,1.27,0,0,0,.35.41l.38.33a1,1,0,0,0,.41.28,1.17,1.17,0,0,0,.3.13l.21.05L102,21l.14.05a3.74,3.74,0,0,1,.63.11,2,2,0,0,0,.51.07.32.32,0,0,0,.14,0l.14,0h.18l.15,0,.2-.08.08,0,.15-.06a.12.12,0,0,1,.16,0,.68.68,0,0,1,.17-.21l.22-.15a1.54,1.54,0,0,0,.19-.17.47.47,0,0,0,.11-.27.79.79,0,0,1,.19-.23,1.07,1.07,0,0,0,.14-.16.52.52,0,0,0,.07-.15.5.5,0,0,1,.07-.13,3.08,3.08,0,0,0,.16-.28.69.69,0,0,1,.15-.21.18.18,0,0,1,0-.19c0-.07.06-.12.09-.18a2.4,2.4,0,0,0,.14-.54,3.54,3.54,0,0,0,0-.6A1.22,1.22,0,0,0,106.41,17.3Z"/><path class="cls-2" d="M123.17,8.38a.17.17,0,0,1,0,.13c0,.05,0,.08,0,.11a1.26,1.26,0,0,0,0,.61.57.57,0,0,1-.12.49.2.2,0,0,1,0,.23,2.29,2.29,0,0,0-.07.28,1.77,1.77,0,0,0,0,.46.53.53,0,0,1-.06.4.24.24,0,0,1,0,.14.33.33,0,0,0,0,.12,2.8,2.8,0,0,0,0,.4,1.74,1.74,0,0,1,0,.44,1.85,1.85,0,0,0,0,.23,2.09,2.09,0,0,1,0,.26.7.7,0,0,0,0,.32.68.68,0,0,1,0,.19,1.59,1.59,0,0,0,0,.43,1.58,1.58,0,0,1,0,.28c0,.1,0,.2,0,.31s0,.19,0,.26a.91.91,0,0,0,0,.29,2.25,2.25,0,0,1,0,.22c0,.07,0,.15,0,.26a2.36,2.36,0,0,1,0,.25,2.09,2.09,0,0,0,0,.42,2.38,2.38,0,0,0,.07.31.29.29,0,0,1,0,.14.2.2,0,0,0,0,.11,1.43,1.43,0,0,1,.1.36c0,.08,0,.16,0,.21s0,.18,0,.2a.31.31,0,0,1,0,.11,4.59,4.59,0,0,1,0,.74c0,.24-.05.48-.07.72a.48.48,0,0,1,0,.18.35.35,0,0,0,0,.13,1.59,1.59,0,0,0,.07.44.72.72,0,0,1,0,.48.24.24,0,0,0,0,.14.44.44,0,0,1,0,.18,1.57,1.57,0,0,1,0,.16,1.31,1.31,0,0,0,0,.17s0,0,0,.12a1.28,1.28,0,0,0,0,.17.42.42,0,0,0,0,.15.3.3,0,0,1,0,.15.74.74,0,0,1,0,.23l-.06.22c0,.11,0,.18,0,.2a.1.1,0,0,0,0,.09,1,1,0,0,1,0,.35c0,.17,0,.29,0,.36a1.72,1.72,0,0,0,0,.5.85.85,0,0,1,0,.5,1,1,0,0,1-.26.14.58.58,0,0,1-.35,0l-.17-.09a.49.49,0,0,0-.24,0,.69.69,0,0,0-.34,0,.66.66,0,0,1-.29,0,.42.42,0,0,1-.12-.08s-.08-.05-.12,0,0-.18,0-.22a.37.37,0,0,1-.11-.15c0-.07,0-.12,0-.15a.23.23,0,0,0,0-.09.37.37,0,0,1-.06-.28.27.27,0,0,0-.07-.26.18.18,0,0,0-.15,0l-.11.07a1.33,1.33,0,0,0-.43.21,3.27,3.27,0,0,0-.35.3,1,1,0,0,1-.2,0,.26.26,0,0,0-.18.1,1.14,1.14,0,0,1-.24,0,.29.29,0,0,0-.17.07,1,1,0,0,0-.4.06.77.77,0,0,1-.42.06h-.15a.13.13,0,0,1-.13-.09,1,1,0,0,1-.57.18,1.7,1.7,0,0,0-.6.15.26.26,0,0,1-.14,0,.21.21,0,0,0-.12,0q-.1,0-.12,0s-.08,0-.19,0l-.24-.05-.22-.07a.78.78,0,0,0-.22,0h-.39a.33.33,0,0,1-.15,0l-.18,0-.21-.05a.53.53,0,0,1-.25,0l-.2,0-.1-.07-.08-.07-.37-.19a1,1,0,0,0-.3-.14l-.08-.1a.27.27,0,0,1-.08-.1.15.15,0,0,1-.08-.1.12.12,0,0,0-.05-.1.8.8,0,0,0-.17-.15.79.79,0,0,1-.19-.18.67.67,0,0,0-.18-.21l-.13-.12a.35.35,0,0,1-.08-.11l-.08-.13a.32.32,0,0,0-.13-.07.42.42,0,0,1-.14-.09,1.13,1.13,0,0,0-.07-.15.42.42,0,0,0-.13-.08.56.56,0,0,0-.15-.26.64.64,0,0,1-.18-.27.32.32,0,0,1,0-.14.42.42,0,0,0,0-.16,1.4,1.4,0,0,0-.16-.46,1.12,1.12,0,0,1-.14-.46.7.7,0,0,1,0-.23,1,1,0,0,0,0-.2,2.51,2.51,0,0,1,0-.39.78.78,0,0,1,0-.22V18.1a1.06,1.06,0,0,1,0-.19,1.77,1.77,0,0,1,0-.2c0-.13,0-.26.07-.38a.87.87,0,0,1,.13-.35,1.17,1.17,0,0,1,0-.27l0-.26a.9.9,0,0,1,.08-.23,2.14,2.14,0,0,0,.13-.22l.06-.14a.3.3,0,0,1,.06-.14c.07-.15.12-.29.17-.42a1.07,1.07,0,0,1,.18-.32,1.81,1.81,0,0,0,.14-.26.77.77,0,0,1,.17-.32,1.69,1.69,0,0,1,.28-.26.49.49,0,0,1,0-.12s0-.07,0-.1l.14-.09.12-.11a1.13,1.13,0,0,1,.14-.15l.09-.06a1,1,0,0,1,.22-.21.57.57,0,0,0,.14-.13c0-.09.08-.13.11-.14l.06,0,.16-.16a.47.47,0,0,1,.16-.11l.08,0a.22.22,0,0,1,.17-.1.24.24,0,0,0,.14,0l.15,0s.07,0,.09,0l.21-.06a.12.12,0,0,0,.08,0,1.11,1.11,0,0,1,.28-.1l.31-.08a.46.46,0,0,0,.1-.05l.11,0a.92.92,0,0,1,.29,0,.36.36,0,0,0,.26-.11.33.33,0,0,1,.23,0,.18.18,0,0,0,.19,0,2.14,2.14,0,0,0,.35,0h.2a1,1,0,0,1,.55,0l.45.19a1,1,0,0,1,.3.11.71.71,0,0,1,.23.19.86.86,0,0,1,.38.08l.32.19a1,1,0,0,1,.19.12.57.57,0,0,1,.11.1L120,13l.1.09a.79.79,0,0,1,.13.13.19.19,0,0,0,.17.06.22.22,0,0,0,.12-.2.6.6,0,0,1,0-.23.57.57,0,0,1,0-.14,1,1,0,0,1,0-.14v-.14a.3.3,0,0,1,0-.13.61.61,0,0,0,.07-.14,1.31,1.31,0,0,0,0-.15.63.63,0,0,0,0-.27.21.21,0,0,1,.07-.24.79.79,0,0,1,0-.33c0-.1,0-.23,0-.38a.85.85,0,0,0,0-.17.19.19,0,0,0,0-.15.23.23,0,0,0,0-.12,1,1,0,0,1,0-.13.45.45,0,0,0,0-.17.47.47,0,0,1,0-.24.19.19,0,0,0,0-.17.2.2,0,0,1,0-.11,1,1,0,0,0,0-.41.38.38,0,0,1,.07-.29.64.64,0,0,1,0-.37.55.55,0,0,1,.17-.32,5.41,5.41,0,0,1,.59-.05l.61,0a.46.46,0,0,1,.27,0,.77.77,0,0,1,.28,0,.58.58,0,0,1,.19.1A.74.74,0,0,1,123.17,8.38Zm-2.67,8.5a.77.77,0,0,0-.1-.18.33.33,0,0,1-.05-.19.26.26,0,0,1-.12-.18.58.58,0,0,0-.06-.21L120,16l-.06,0a.58.58,0,0,1-.09-.25.43.43,0,0,1-.24-.2.68.68,0,0,0-.2-.24.21.21,0,0,1-.22-.08.43.43,0,0,0-.17-.13.62.62,0,0,0-.24-.08.3.3,0,0,1-.21-.12,1.14,1.14,0,0,1-.48-.17,1.19,1.19,0,0,0-.52-.14.3.3,0,0,1-.18-.08s0,0,0,0a.5.5,0,0,0-.27,0,.89.89,0,0,1-.24.05h-.33l-.24.07-.13,0-.14.07a.4.4,0,0,1-.12.07.53.53,0,0,0-.2.06l-.09.07A2.9,2.9,0,0,1,115,15a.53.53,0,0,1-.16.2.36.36,0,0,0-.15.23.44.44,0,0,0-.22.15.35.35,0,0,1-.26.14,1.11,1.11,0,0,1-.14.29,1.4,1.4,0,0,0-.15.3c0,.15-.08.27-.11.35a.73.73,0,0,0,0,.3,1,1,0,0,0-.19.36.2.2,0,0,1-.12.17c.07.1.09.17.07.23l-.07.24a1.23,1.23,0,0,0,0,.39,2.16,2.16,0,0,1,0,.28,1.18,1.18,0,0,1,0,.27.33.33,0,0,0,0,.22.75.75,0,0,0,.12.39.36.36,0,0,1,.06.32.5.5,0,0,1,.15.37.83.83,0,0,1,.32.29.57.57,0,0,1,.28.14.45.45,0,0,0,.29.12.58.58,0,0,1,.17.21.62.62,0,0,1,.24.08l.21.1a.4.4,0,0,0,.17.08l.09,0s.1.06.13,0a.17.17,0,0,1,.1,0,.73.73,0,0,0,.3.06h.27l.29,0a1.27,1.27,0,0,0,.28,0,1.37,1.37,0,0,0,.4-.1l.29-.06.12,0a1,1,0,0,1,.25,0,.35.35,0,0,0,.2,0,.27.27,0,0,0,.14-.1.27.27,0,0,1,.13-.1c.09,0,.15-.05.16-.07s0,0,0-.06a.52.52,0,0,0,.19-.11.46.46,0,0,1,.1-.07c.09,0,.14-.08.15-.11a.07.07,0,0,1,0-.07l.1-.09a.6.6,0,0,0,.08-.08l.11-.15.1-.11a.4.4,0,0,0,.12-.1l.08-.12c.1-.13.18-.25.27-.38s.14-.26.2-.38l.15-.39a.72.72,0,0,0,.09-.2.35.35,0,0,1,0-.18l0-.07a.22.22,0,0,0,0-.14V18c0-.19,0-.36,0-.5s0-.27,0-.38,0-.11,0-.13S120.52,16.92,120.5,16.88Z"/><path class="cls-2" d="M148.37,8.58c0,.15,0,.35,0,.6a1.44,1.44,0,0,1-.11.56,2.16,2.16,0,0,1-.08.8,5,5,0,0,0-.15.79,2.6,2.6,0,0,0,0,.39,1.33,1.33,0,0,1,0,.39,1.84,1.84,0,0,0,0,.37l0,.44a1.55,1.55,0,0,1-.06.31,1.33,1.33,0,0,0-.06.3,2.18,2.18,0,0,0,0,.35c0,.11,0,.22,0,.33a6.8,6.8,0,0,0,0,.76c0,.24,0,.47,0,.7s0,.33,0,.49a3.48,3.48,0,0,1,0,.47c0,.18,0,.35,0,.5s0,.31,0,.46l0,.23a2.62,2.62,0,0,0,0,.28.68.68,0,0,0,0,.15.28.28,0,0,1,0,.18.52.52,0,0,1,0,.18.76.76,0,0,1-.06.18,4.4,4.4,0,0,0-.05.51,3.07,3.07,0,0,1-.07.53s0,.09,0,.15a.33.33,0,0,0-.07.16c0,.26,0,.52,0,.78s0,.51-.06.73,0,.31,0,.49a3.23,3.23,0,0,1,0,.53.52.52,0,0,1-.06.16A1.42,1.42,0,0,1,147,23a.85.85,0,0,0,0,.32c0,.12,0,.25,0,.4a1,1,0,0,1,0,.24.52.52,0,0,1-.08.24l-.12.19a2,2,0,0,1-.35,0,.71.71,0,0,0-.3,0,1.93,1.93,0,0,0-.24-.13.63.63,0,0,1-.21-.17.63.63,0,0,0-.16-.2.38.38,0,0,1-.09-.09,1.83,1.83,0,0,1-.22-.25.25.25,0,0,1-.06-.16.27.27,0,0,1-.12,0l-.09-.07a.14.14,0,0,0-.1-.11l-.14-.07a.18.18,0,0,1,0-.14q0-.09-.18,0a.12.12,0,0,0,0-.11s0-.06,0-.13a.52.52,0,0,0-.16-.06l-.16-.06a.51.51,0,0,1-.12-.13l-.11-.18-.13-.11a1.11,1.11,0,0,0-.11-.11c-.08-.07-.12-.12-.12-.14s0,0-.05-.07l-.17-.14a.65.65,0,0,0-.15-.1,1.14,1.14,0,0,0-.1-.19.43.43,0,0,0-.17-.12.88.88,0,0,1-.05-.15.13.13,0,0,0-.05-.11.5.5,0,0,1-.09-.13l0-.08a1.25,1.25,0,0,1-.19-.25,1.62,1.62,0,0,1-.1-.18,1.4,1.4,0,0,0-.14-.16l-.06-.06a.58.58,0,0,1-.08-.22,1.21,1.21,0,0,0-.08-.25.48.48,0,0,0-.14-.15.8.8,0,0,1-.15-.17c0-.05-.06-.09-.09-.15a.37.37,0,0,0-.13-.12c-.08-.08-.14-.13-.18-.13l-.09-.05c-.05-.08-.09-.16-.12-.22s-.05-.12-.08-.17a.63.63,0,0,1-.14-.18,1,1,0,0,0-.09-.15,1.42,1.42,0,0,0-.3-.3.55.55,0,0,1-.21-.35,2,2,0,0,1-.21-.2l-.19-.23c-.07-.12-.14-.19-.2-.2a.32.32,0,0,1-.13-.06.27.27,0,0,0-.15-.19.23.23,0,0,1-.16-.16.11.11,0,0,1-.11,0l-.09-.08a1.24,1.24,0,0,1-.2-.1.62.62,0,0,1-.08-.12.83.83,0,0,0-.07-.13l-.12-.1-.1-.1a2.77,2.77,0,0,1-.15-.29.33.33,0,0,0-.18-.14.52.52,0,0,0-.07-.23A2,2,0,0,0,138,15l-.17-.22a.93.93,0,0,0-.1-.1.29.29,0,0,1-.09-.16.06.06,0,0,0,0-.07l-.16-.22-.08-.13a1.21,1.21,0,0,0-.17-.22l-.1-.1a13.34,13.34,0,0,0-.25,2.06q-.06,1.08-.09,2.28a2.77,2.77,0,0,0,0,.39,2,2,0,0,1,0,.43.5.5,0,0,1,0,.12.13.13,0,0,0,0,.12,1.42,1.42,0,0,0,0,.3,3.16,3.16,0,0,1,0,.35v.45a5.43,5.43,0,0,0,0,.57,2.12,2.12,0,0,0,0,.44c0,.15.05.29.08.44s.06.28.1.42a1,1,0,0,1,0,.42.57.57,0,0,1-.07.29.39.39,0,0,0,0,.3,1.57,1.57,0,0,0-.17.21.35.35,0,0,1-.2.16.45.45,0,0,1-.19-.05l-.19-.06c-.09,0-.15,0-.19,0l-.06,0a1.55,1.55,0,0,0-.29,0,.32.32,0,0,1-.3-.08l-.12,0a.22.22,0,0,1-.12,0,.65.65,0,0,1-.21,0,.37.37,0,0,0-.2,0h-.2a.88.88,0,0,1-.27,0,.6.6,0,0,1-.14-.2l-.13-.37c0-.08,0-.16-.06-.22a.65.65,0,0,1,0-.11.25.25,0,0,0,0-.12.61.61,0,0,0,0-.14s0-.08,0-.12a1,1,0,0,1,0-.17.5.5,0,0,0,0-.18,2.18,2.18,0,0,0,0-.35c0-.12,0-.25,0-.4a.49.49,0,0,0,0-.12s0-.07,0-.11q0-.3.09-.6a1.88,1.88,0,0,0,0-.68.76.76,0,0,0,0-.21.64.64,0,0,1,0-.2,2,2,0,0,1,0-.35l.06-.32a.23.23,0,0,0,0-.13.09.09,0,0,1,0-.1.19.19,0,0,1,0-.12l.06-.12a1.29,1.29,0,0,1,0-.43,4.32,4.32,0,0,0,.06-.59,1.41,1.41,0,0,1,0-.48,1.23,1.23,0,0,0,.06-.36,1.26,1.26,0,0,1,0-.3c0-.08,0-.16.05-.23v-.24a.66.66,0,0,0,0-.31.45.45,0,0,1,0-.16.41.41,0,0,0,0-.22.76.76,0,0,0,0-.21.19.19,0,0,0,0-.14.51.51,0,0,0,0-.17,4.81,4.81,0,0,1,0-.73,1.36,1.36,0,0,0,0-.53.3.3,0,0,0,0-.15.49.49,0,0,0,0-.11,1.09,1.09,0,0,1,0-.33.67.67,0,0,0,0-.18.25.25,0,0,0,0-.17c0-.05,0-.11-.05-.16a.62.62,0,0,1,0-.16.12.12,0,0,0-.06-.17.5.5,0,0,0,0-.27.68.68,0,0,1,0-.14c0-.1,0-.17,0-.19a.14.14,0,0,1,0-.07c0-.07,0-.12,0-.15a.44.44,0,0,1,0-.1.75.75,0,0,0,0-.16.8.8,0,0,0,0-.18.36.36,0,0,0,0-.14,1,1,0,0,1,0-.15c0-.09,0-.18,0-.26a2.23,2.23,0,0,0,0-.23.26.26,0,0,0,0-.15.53.53,0,0,1,0-.13,1.44,1.44,0,0,0,0-.45.8.8,0,0,1,0-.31.42.42,0,0,1,.29-.23.4.4,0,0,1,.42.09l.36.06q.15,0,.15.27a.16.16,0,0,1,.15.08.37.37,0,0,0,.13.12,1.06,1.06,0,0,1,.33.21l.23.22a.68.68,0,0,1,.12.12,1.79,1.79,0,0,1,.11.19.13.13,0,0,0,0,.06.88.88,0,0,1,.11.13l.13.17.23.24a1.31,1.31,0,0,1,.22.25l.11.13a.31.31,0,0,0,.12.14l.29.35.32.4.12.19a.4.4,0,0,0,.18.16A.48.48,0,0,0,139,12a.88.88,0,0,0,.18.33,2.11,2.11,0,0,1,.21.31,1.88,1.88,0,0,1,.24.25l.23.28a.43.43,0,0,1,.07.1.47.47,0,0,0,.09.12.39.39,0,0,1,.11.17.22.22,0,0,0,0,.12l.09.15a1.3,1.3,0,0,1,.1.15,3.37,3.37,0,0,1,.32.53,2.93,2.93,0,0,0,.23.43,3.11,3.11,0,0,1,.18.27c0,.06.07.13.1.18l.25.26c.06.09.13.16.19.24l.19.23a1.15,1.15,0,0,1,.12.19s0,0,0,.08.14.11.14.13a.05.05,0,0,0,0,.05,3,3,0,0,0,.41.5c.16.17.32.33.49.48a2.4,2.4,0,0,0,.24.22,1.25,1.25,0,0,1,.23.27.76.76,0,0,0,.11.19.22.22,0,0,1,0,.08,2.34,2.34,0,0,0,.29.35,1.68,1.68,0,0,0,.4.3,1.37,1.37,0,0,0,0-.28V18.3a.19.19,0,0,1,.08-.14c0-.08,0-.18-.08-.31a.56.56,0,0,1,.06-.36.69.69,0,0,1,0-.28.19.19,0,0,0,0-.15.25.25,0,0,0,0-.13.52.52,0,0,1,0-.14,1.25,1.25,0,0,1,0-.33,2.16,2.16,0,0,0,.06-.38v-.72a2.62,2.62,0,0,1,.07-.66.3.3,0,0,1,0-.13l.06-.12a.4.4,0,0,1,0-.23.48.48,0,0,0,0-.18,2.64,2.64,0,0,0,0-.28,1.26,1.26,0,0,1,0-.39.81.81,0,0,1,0-.36,1.84,1.84,0,0,0,.06-.29.33.33,0,0,1,0-.22,1.49,1.49,0,0,0,0-.21s0-.08,0-.13a.81.81,0,0,1,0-.16.66.66,0,0,1,0-.25.94.94,0,0,0,.06-.24,2.44,2.44,0,0,0,0-.27.68.68,0,0,1,0-.3.53.53,0,0,1-.06-.14,1.16,1.16,0,0,0-.06-.16,1.45,1.45,0,0,0,.07-.6,3,3,0,0,1,0-.67.35.35,0,0,1,0-.2.24.24,0,0,0,0-.08.29.29,0,0,0,0-.17.22.22,0,0,1,0-.16l.15-.21a.39.39,0,0,1,.22-.15.25.25,0,0,1,.2,0,.53.53,0,0,0,.2.05,1.64,1.64,0,0,0,.48-.05l.48-.12a1.88,1.88,0,0,1,.48,0,1.75,1.75,0,0,0,.56,0c.18,0,.34.07.49.11l.21.06A.18.18,0,0,1,148.37,8.58Z"/><path class="cls-2" d="M162.27,17.45a1.07,1.07,0,0,0,0,.36.25.25,0,0,1,0,.25.23.23,0,0,1,.1.24c0,.1-.05.2-.08.31a.67.67,0,0,0,0,.2.24.24,0,0,1,0,.17c-.06.12-.11.21-.13.26s0,.08-.07.08a.52.52,0,0,1,0,.25l-.08.24a1,1,0,0,1-.07.21.11.11,0,0,0,0,.08,1.28,1.28,0,0,1,0,.27l-.06.12-.12.32-.12.33a3.52,3.52,0,0,0-.18.4,1,1,0,0,1-.23.33,1.09,1.09,0,0,0,0,.13.24.24,0,0,1,0,.14l-.18.17a.67.67,0,0,0-.16.24,1.34,1.34,0,0,1-.21.32.43.43,0,0,1-.18.15,1,1,0,0,0-.21.16c-.06,0-.1,0-.12,0s-.05,0-.1,0a1.24,1.24,0,0,1-.31.24,1.57,1.57,0,0,1-.4.16.71.71,0,0,1-.18.05.15.15,0,0,0-.09,0,1.25,1.25,0,0,0-.25.09.94.94,0,0,1-.3.05,1,1,0,0,0-.32,0l-.19.05a1,1,0,0,1-.35,0,2.17,2.17,0,0,0-.36,0,.45.45,0,0,0-.21,0,.11.11,0,0,1-.08,0h-.23a.18.18,0,0,0-.11,0l-.25.07a.51.51,0,0,1-.33,0,3.28,3.28,0,0,1-.69.1.86.86,0,0,1-.55-.16.33.33,0,0,1-.26,0l-.2,0h-.09a3.25,3.25,0,0,1-.42-.11,1.5,1.5,0,0,1-.38-.19,2,2,0,0,1-.41-.19.8.8,0,0,0-.34-.1l-.18-.2-.1-.13-.11-.05a.14.14,0,0,1-.1-.05l-.23-.17-.12-.07-.08-.09-.08-.12a4,4,0,0,0-.26-.3,1,1,0,0,0-.17-.14.32.32,0,0,0,0-.13s0-.07,0-.14l-.16-.16a.15.15,0,0,0,0-.06,2.3,2.3,0,0,0-.25-.33l-.06-.14a2,2,0,0,0-.06-.23,2.24,2.24,0,0,0-.08-.29.28.28,0,0,1,0-.22l-.09-.1a.17.17,0,0,1-.07-.1.84.84,0,0,1,0-.31.9.9,0,0,0,0-.28.44.44,0,0,0-.07-.19.22.22,0,0,1,0-.18.38.38,0,0,1-.09-.15.51.51,0,0,0-.09-.16.33.33,0,0,0,0-.24.84.84,0,0,1-.05-.29.76.76,0,0,1,0-.15c0-.05,0-.1,0-.17v-.35a1.42,1.42,0,0,1,.05-.22,1.72,1.72,0,0,1,.07-.21.82.82,0,0,0,0-.21.13.13,0,0,1,.08-.13.74.74,0,0,1,0-.49,1.17,1.17,0,0,0,.11-.49l.06-.11a.23.23,0,0,1,.06-.12.74.74,0,0,1,.07-.36,1.63,1.63,0,0,0,.11-.31.35.35,0,0,0,.18-.13l.11-.19a.43.43,0,0,0,.16-.2.13.13,0,0,1,.14-.09,2.59,2.59,0,0,0,.2-.31.51.51,0,0,1,.21-.2l.21-.1.08-.06.1-.12.08-.09a1.8,1.8,0,0,1,.37-.22.5.5,0,0,1,.15-.14l.19-.13a1.77,1.77,0,0,1,.23-.12l.1,0,.17-.11a.2.2,0,0,1,.22,0,1.22,1.22,0,0,1,.87-.25l.49-.12a1.44,1.44,0,0,1,.43,0l.15,0,.14,0,.19,0,.19,0,.41,0a.72.72,0,0,1,.29,0,.9.9,0,0,0,.31.05h.14l.12,0,.1,0a1.45,1.45,0,0,0,.33.06l.16,0a.45.45,0,0,1,.16,0l.17.08.16,0,.16.05a2,2,0,0,0,.53,0,1.16,1.16,0,0,1,.53.1l.1.06.13.08.14.06.08.07a3.14,3.14,0,0,1,.55.34l.39.33a.31.31,0,0,0,0,.17l.08.15.17.16a1,1,0,0,0,.14.15.17.17,0,0,1,0,.1.22.22,0,0,0,0,.15,2.24,2.24,0,0,0,.11.22l.13.22a.56.56,0,0,0,0,.19s0,.07.09.16.06.15.1.26a.35.35,0,0,0,.22.21.32.32,0,0,0,0,.21.75.75,0,0,1,.08.24,1.32,1.32,0,0,1,0,.28V17a1.53,1.53,0,0,0,0,.31A.58.58,0,0,1,162.27,17.45Zm-2.42-.23a.47.47,0,0,1,0-.2.37.37,0,0,0,0-.14,2.22,2.22,0,0,0-.12-.39,1.67,1.67,0,0,1-.13-.43,2.09,2.09,0,0,1,0-.25.69.69,0,0,0,0-.28.18.18,0,0,1-.09-.12.15.15,0,0,0-.07-.12.3.3,0,0,0-.12-.13.15.15,0,0,1-.1-.14,3.5,3.5,0,0,1-.39-.2,2.85,2.85,0,0,1-.41,0l-.15-.08-.14-.07c-.1,0-.18,0-.22,0s-.12,0-.24,0a.31.31,0,0,1-.16-.16.35.35,0,0,0-.15-.17c-.07,0-.11,0-.13,0H157a.14.14,0,0,1-.08-.07s0,0-.12,0a2.73,2.73,0,0,0-.4.11.57.57,0,0,1-.44,0,.34.34,0,0,0-.15.06l-.11.08s0-.05-.09,0h-.13a1.79,1.79,0,0,1-.39.21l-.39.18a.53.53,0,0,0-.23.14l-.12.12-.11.13a.45.45,0,0,1-.13.1,2.09,2.09,0,0,0-.43.31,1.32,1.32,0,0,1-.3.24.37.37,0,0,1-.14.25.62.62,0,0,0-.17.26,1.37,1.37,0,0,0-.07.24c0,.1-.05.18-.07.25a2,2,0,0,0-.12.62.81.81,0,0,1-.11.46.11.11,0,0,1,.05.12.86.86,0,0,0,0,.16l.08.21a.35.35,0,0,1,0,.22,1,1,0,0,0,0,.29.46.46,0,0,1,.09.18.08.08,0,0,0,0,.08.25.25,0,0,0,.07.12.17.17,0,0,1,0,.17.15.15,0,0,1,.11.12.18.18,0,0,0,.09.12.26.26,0,0,0,.05.25.34.34,0,0,1,.05.3c.07.06.11.1.11.12a.15.15,0,0,0,0,.09l.09.09a.21.21,0,0,1,0,.15.37.37,0,0,1,.17.13A1.53,1.53,0,0,0,154,21a.35.35,0,0,0,.09.07l.09.07a.74.74,0,0,1,.16.12.41.41,0,0,0,.13.1.32.32,0,0,0,.18.12.24.24,0,0,1,.14.05l.11.08.1.06a1.21,1.21,0,0,0,.34.07.53.53,0,0,1,.33.17.84.84,0,0,1,.29.05.71.71,0,0,0,.34,0,.13.13,0,0,1,.12.05.21.21,0,0,0,.15.05l.14,0s.07,0,.14,0a.31.31,0,0,1,.19,0,.62.62,0,0,0,.18,0l.23-.08.2-.11.18-.11a.39.39,0,0,1,.2-.05.27.27,0,0,1,.09-.15l.14-.11.18-.18a.58.58,0,0,0,.14-.17.36.36,0,0,1,.11-.13.58.58,0,0,0,.1-.12,2.92,2.92,0,0,0,.24-.37l.21-.4.12-.21a2.44,2.44,0,0,0,.1-.24.68.68,0,0,1,.05-.25.08.08,0,0,0,0-.1c0-.1.05-.2.07-.27a.48.48,0,0,0,0-.24.3.3,0,0,0,.1-.24,1.47,1.47,0,0,1,.05-.33.49.49,0,0,1,.06-.17.47.47,0,0,0,0-.17,2.11,2.11,0,0,0,0-.38Z"/><path class="cls-2" d="M181.44,12.51a.35.35,0,0,1-.06.25,1.21,1.21,0,0,0-.14.2,1,1,0,0,1-.25.39,4.13,4.13,0,0,1-.14.42.74.74,0,0,1-.24.31.25.25,0,0,1,0,.19l-.12.18a.65.65,0,0,1-.11.26l-.09.09a.6.6,0,0,0-.09.24.76.76,0,0,0,0,.14c-.09.15-.17.31-.25.47s-.16.32-.24.47a.48.48,0,0,0-.07.16.18.18,0,0,1-.14.11.83.83,0,0,1-.13.42,2.35,2.35,0,0,0-.21.39,1.07,1.07,0,0,0-.16.27.61.61,0,0,1-.15.24,1.12,1.12,0,0,1-.07.29c0,.08-.08.17-.13.26l-.07.15a.43.43,0,0,1-.09.1.34.34,0,0,1,0,.16.28.28,0,0,0,0,.16,1.09,1.09,0,0,0-.11.24.81.81,0,0,1,0,.11.68.68,0,0,0-.12.21,1,1,0,0,1,0,.1.45.45,0,0,1-.1.13.3.3,0,0,0-.11.15.21.21,0,0,0,0,.11.32.32,0,0,1,0,.14,1.89,1.89,0,0,0-.12.22.24.24,0,0,1-.06.1.45.45,0,0,0-.07.15l0,.08a2.05,2.05,0,0,1-.13.25,1.46,1.46,0,0,0-.16.3,1.17,1.17,0,0,1-.12.25.75.75,0,0,0-.1.2s0,.06,0,.11a.42.42,0,0,1,0,.15c0,.11-.09.22-.14.34a2.23,2.23,0,0,1-.17.35,3.21,3.21,0,0,0-.06.6.52.52,0,0,1-.22.45.85.85,0,0,1-.23,0l-.26,0-.09-.15-.08-.17a.92.92,0,0,1-.23-.35.7.7,0,0,0-.24-.3l0-.2a.34.34,0,0,0-.05-.17.16.16,0,0,0-.09-.14c-.05,0-.06-.09,0-.19a1.34,1.34,0,0,1-.29-.65l-.21-.25a1.5,1.5,0,0,1-.09-.18.8.8,0,0,1-.11-.23.53.53,0,0,1,0-.13.24.24,0,0,0-.1-.1l-.11-.07a.23.23,0,0,0-.08-.23.74.74,0,0,1-.16-.2.17.17,0,0,1-.06-.12.35.35,0,0,0-.07-.12.94.94,0,0,0-.12-.2.68.68,0,0,1-.08-.19v-.06a2.56,2.56,0,0,1-.16-.33l-.17-.34a.94.94,0,0,1-.16-.23,1.11,1.11,0,0,0-.16-.24c-.07-.1-.1-.16-.09-.19a.31.31,0,0,0,0-.1.68.68,0,0,1-.12-.16s0-.05,0-.08a2.93,2.93,0,0,1-.12-.34.83.83,0,0,0-.06-.21.42.42,0,0,0-.1-.15.16.16,0,0,1-.06-.08.39.39,0,0,0-.25.22,4.15,4.15,0,0,0-.16.4c-.12.42-.22.81-.31,1.18,0,.08-.05.16-.07.22a.41.41,0,0,1-.11.19,3.37,3.37,0,0,1-.12.48l-.19.43a1.64,1.64,0,0,1-.07.25l-.07.18a1.25,1.25,0,0,1-.11.18.29.29,0,0,0,0,.23.21.21,0,0,0-.18.18.2.2,0,0,1-.19.17c0,.06,0,.11,0,.13s0,.06,0,.13a.18.18,0,0,1-.07.12.33.33,0,0,0-.09.13.27.27,0,0,1,0,.16.17.17,0,0,0,0,.16,1.13,1.13,0,0,1-.17.48.73.73,0,0,0-.12.36l-.08.1-.08.12v.33a.73.73,0,0,0-.15.11s-.1,0-.2,0a.22.22,0,0,0-.13.12.24.24,0,0,1-.11.13.49.49,0,0,0-.24,0,.57.57,0,0,1-.23,0c-.08-.07-.12-.11-.12-.13a.61.61,0,0,0-.09-.14l-.1-.19a.73.73,0,0,0-.06-.14,1.14,1.14,0,0,1-.16-.26l-.08-.2a.17.17,0,0,1-.11-.12.49.49,0,0,0-.06-.17,1.7,1.7,0,0,1-.16-.33.66.66,0,0,0-.24-.3.73.73,0,0,0-.08-.33l-.13-.28-.12-.31a.61.61,0,0,1-.07-.14.91.91,0,0,0-.07-.14.41.41,0,0,0-.11-.12l-.14-.11a.6.6,0,0,1-.08-.21.79.79,0,0,0-.06-.22,1.68,1.68,0,0,1-.2-.34.65.65,0,0,0-.25-.29.32.32,0,0,0-.06-.25.51.51,0,0,1-.1-.26.53.53,0,0,1-.17-.25.89.89,0,0,0-.14-.32.87.87,0,0,0-.09-.17l-.09-.16a4.08,4.08,0,0,0-.12-.43c0-.12-.09-.23-.13-.34a.37.37,0,0,1-.06-.15.13.13,0,0,0,0-.1,1.76,1.76,0,0,1-.2-.33,1.47,1.47,0,0,0-.1-.22,2.24,2.24,0,0,1-.13-.19.24.24,0,0,0-.06-.09l-.18-.31a.75.75,0,0,1-.08-.18c0-.07-.06-.12-.08-.16a.3.3,0,0,1,0-.13.21.21,0,0,0-.05-.12.82.82,0,0,0-.14-.2,1,1,0,0,1-.13-.3,1.11,1.11,0,0,0-.15-.31v-.27a.11.11,0,0,0-.11-.08.14.14,0,0,1-.12-.06.4.4,0,0,0-.09-.21.83.83,0,0,1-.13-.18.76.76,0,0,1-.08-.2.85.85,0,0,0-.09-.19,1.27,1.27,0,0,1-.07-.21.85.85,0,0,0-.09-.24.26.26,0,0,1,.1-.22,1.89,1.89,0,0,0-.06-.18,1.11,1.11,0,0,1,0-.19l.08-.12.09-.1.25,0a.44.44,0,0,0,.19-.1.58.58,0,0,0,.24,0l.19-.09a.17.17,0,0,1,.12,0l.13.07a.56.56,0,0,0,.22,0,.42.42,0,0,1,.25,0,.82.82,0,0,1,.21,0l.19,0a1.06,1.06,0,0,0,.19-.06.51.51,0,0,1,.18,0,.63.63,0,0,1,.25.1.39.39,0,0,1,.14.17.71.71,0,0,1,0,.14.27.27,0,0,0,0,.15,2.38,2.38,0,0,1,.17.31,1.22,1.22,0,0,1,.11.38c0,.12,0,.23,0,.33a2.86,2.86,0,0,0,.07.28.37.37,0,0,0,.1.16.55.55,0,0,1,.1.17,2.21,2.21,0,0,0,.13.31.32.32,0,0,1,0,.26.22.22,0,0,1,.1.11.53.53,0,0,0,.09.11c0,.12.05.24.07.36s0,.23.07.34.06.13.1.2l.1.2a.52.52,0,0,1,0,.21.71.71,0,0,0,0,.2.45.45,0,0,0,.09.1l.08.1a3,3,0,0,0,.2.57,1.71,1.71,0,0,1,.09.47,3.27,3.27,0,0,0,.05.35.42.42,0,0,1,.06.14v.09a2.14,2.14,0,0,0,.2.43,1.5,1.5,0,0,1,.15.42.27.27,0,0,0,.1-.11.18.18,0,0,1,.17-.07.5.5,0,0,0,0-.16.26.26,0,0,1,0-.17,1.37,1.37,0,0,1,.16-.24.4.4,0,0,0,.1-.15,1.16,1.16,0,0,1,.06-.15l.09-.11.14-.24.07-.16a.54.54,0,0,1,.07-.13,1.51,1.51,0,0,0,.12-.31,1.62,1.62,0,0,1,.11-.28.43.43,0,0,1,.08-.21l.06-.08a.88.88,0,0,0,.05-.15.29.29,0,0,1,.05-.13.34.34,0,0,1,.1-.13.36.36,0,0,0,.1-.14c0-.05.05-.11.08-.17a.87.87,0,0,1,.07-.17c.06-.07.13-.14.18-.21l.16-.2a.85.85,0,0,0,.18-.3.45.45,0,0,1,.21-.27,1.78,1.78,0,0,1,.1-.43.82.82,0,0,1,.15-.23.17.17,0,0,0,0-.16,4.68,4.68,0,0,0,.3-.55,4.35,4.35,0,0,0,.25-.63,1.22,1.22,0,0,1,.09-.27.62.62,0,0,1,.15-.22,1.48,1.48,0,0,0,.29,0h.1a.27.27,0,0,1,.17.14.9.9,0,0,0,.15.19.9.9,0,0,0,.13.48,1.18,1.18,0,0,1,.14.53,1,1,0,0,1,.17.43,2.35,2.35,0,0,0,.16.49,1.64,1.64,0,0,0,.21.4.6.6,0,0,1,.07.44.42.42,0,0,0,.09.14.27.27,0,0,1,.09.12.5.5,0,0,1,.1.17.65.65,0,0,0,.09.16.59.59,0,0,0,.05.29.31.31,0,0,1,.07.14.28.28,0,0,1,0,.13.28.28,0,0,0,0,.13l.08.18a.36.36,0,0,0,.13.11,1.57,1.57,0,0,0,.13.29l.15.28.19.35c.07.1.13.22.2.34l.12.26c0,.06,0,.12.08.19a.5.5,0,0,1,.09.2l0,.09a.68.68,0,0,1,.12.16.13.13,0,0,0,0,.08.26.26,0,0,0,.16-.15c0-.08.05-.15.08-.22a.89.89,0,0,0,.1-.3.29.29,0,0,1,0-.12.3.3,0,0,1,.11-.15.31.31,0,0,0,.1-.12c0-.11.07-.22.11-.34a.55.55,0,0,1,.17-.27c0-.11,0-.18,0-.22a.4.4,0,0,0,.13-.13.58.58,0,0,1,0-.32l.1-.29a2,2,0,0,1,.2-.47.35.35,0,0,0,.1-.17.11.11,0,0,1,0-.09.53.53,0,0,1,.08-.15l.08-.12a.54.54,0,0,0,.07-.13.14.14,0,0,1,.11-.09,1,1,0,0,1,.15-.37c.06-.09.12-.2.18-.31a1.71,1.71,0,0,0,.13-.34.87.87,0,0,1,.17-.33.16.16,0,0,1,0-.15.24.24,0,0,0,.06-.11.32.32,0,0,0,0-.14.2.2,0,0,1,0-.13,1.72,1.72,0,0,1,.14-.22l.12-.19a.86.86,0,0,0,.13-.2.27.27,0,0,1,.14-.14.32.32,0,0,1,.22,0l.31,0h.26a.31.31,0,0,1,.23.09.49.49,0,0,1,.4-.05,2.05,2.05,0,0,0,.49,0,1,1,0,0,0,.24,0,.52.52,0,0,1,.21,0,.46.46,0,0,1,.43.24Z"/></g></g></svg>