<svg xmlns="http://www.w3.org/2000/svg" viewBox="0 0 258.62 16.16"><defs><style>.cls-1{fill:#fff;}</style></defs><g id="Layer_2" data-name="Layer 2"><g id="Layer_1-2" data-name="Layer 1"><path class="cls-1" d="M5.85,15.89V9.83L0,.81H3.8L7.54,6.88h.11L11.36.81H15l-5.81,9v6.06Z"/><path class="cls-1" d="M19.65,16.16a7.26,7.26,0,0,1-3.21-.65,4.35,4.35,0,0,1-2-2,7.57,7.57,0,0,1-.68-3.4,7.57,7.57,0,0,1,.68-3.42,4.38,4.38,0,0,1,2-2,7.12,7.12,0,0,1,3.21-.65,7.14,7.14,0,0,1,3.24.65,4.32,4.32,0,0,1,2,2,7.44,7.44,0,0,1,.68,3.42,7.43,7.43,0,0,1-.68,3.4,4.29,4.29,0,0,1-2,2A7.28,7.28,0,0,1,19.65,16.16Zm0-2.38a3.06,3.06,0,0,0,1.62-.37,2.2,2.2,0,0,0,.89-1.14,5.54,5.54,0,0,0,.28-1.89V9.85A5.46,5.46,0,0,0,22.16,8a2.29,2.29,0,0,0-.89-1.16,3.06,3.06,0,0,0-1.62-.38,3,3,0,0,0-1.59.38A2.24,2.24,0,0,0,17.17,8a5.44,5.44,0,0,0-.29,1.89v.53a5.52,5.52,0,0,0,.29,1.89,2.15,2.15,0,0,0,.89,1.14A3,3,0,0,0,19.65,13.78Z"/><path class="cls-1" d="M31.54,16.16a4,4,0,0,1-2.79-1,4.1,4.1,0,0,1-1-3.12V4.33h3.05v7.23a3,3,0,0,0,.14,1,1.59,1.59,0,0,0,.38.63,1.61,1.61,0,0,0,.63.35,3.09,3.09,0,0,0,.83.11A2.31,2.31,0,0,0,34,13.28a2.28,2.28,0,0,0,.86-.91,2.72,2.72,0,0,0,.31-1.31V4.33h3.06V15.89H35.7l-.22-1.58h-.15a5,5,0,0,1-1,1,4.62,4.62,0,0,1-1.27.65A5,5,0,0,1,31.54,16.16Z"/><path class="cls-1" d="M48.32,15.89,44,4.33h3.23l1.69,4.88c.09.25.2.58.32,1s.25.84.39,1.3.24.86.32,1.23h.12c.1-.34.21-.73.32-1.18s.24-.88.37-1.3.23-.76.32-1l1.69-4.88h3.08L51.53,15.89Z"/><path class="cls-1" d="M57.35,2.64V0h3.06V2.64Zm0,13.25V4.33h3.06V15.89Z"/><path class="cls-1" d="M67.9,16.16a8.05,8.05,0,0,1-2.17-.27,5.22,5.22,0,0,1-1.65-.73A3.51,3.51,0,0,1,63,14a3.11,3.11,0,0,1-.36-1.5v-.18a.44.44,0,0,1,0-.13h3v.18a1.3,1.3,0,0,0,.35.89,1.86,1.86,0,0,0,.87.49,3.81,3.81,0,0,0,1.13.16,5.69,5.69,0,0,0,1-.1,2.14,2.14,0,0,0,.84-.36.83.83,0,0,0,.34-.69.91.91,0,0,0-.43-.81,3.78,3.78,0,0,0-1.12-.46l-1.51-.4c-.5-.11-1-.25-1.49-.4a6,6,0,0,1-1.35-.61,2.87,2.87,0,0,1-1-1,2.83,2.83,0,0,1-.38-1.52A3.12,3.12,0,0,1,63.33,6a3.39,3.39,0,0,1,1.09-1.11A5.13,5.13,0,0,1,66,4.28a9.28,9.28,0,0,1,2-.21A8.17,8.17,0,0,1,70,4.28a5.33,5.33,0,0,1,1.54.61,3.11,3.11,0,0,1,1,1,2.54,2.54,0,0,1,.37,1.35v.29a.62.62,0,0,1,0,.18H70V7.54a1,1,0,0,0-.24-.67,1.67,1.67,0,0,0-.7-.43,3.46,3.46,0,0,0-1.09-.15,4.92,4.92,0,0,0-.8.06,2.38,2.38,0,0,0-.62.2,1.15,1.15,0,0,0-.41.32.67.67,0,0,0-.14.45.7.7,0,0,0,.31.6,2.69,2.69,0,0,0,.85.39l1.17.33c.52.15,1.08.29,1.66.43a8.27,8.27,0,0,1,1.61.56,3,3,0,0,1,1.21,1,2.93,2.93,0,0,1,.46,1.75,3.63,3.63,0,0,1-.4,1.78,3.17,3.17,0,0,1-1.14,1.16A5,5,0,0,1,70,16,10.52,10.52,0,0,1,67.9,16.16Z"/><path class="cls-1" d="M75.44,2.64V0H78.5V2.64Zm0,13.25V4.33H78.5V15.89Z"/><path class="cls-1" d="M84.76,16.16a3.48,3.48,0,0,1-1.78-.4,2.41,2.41,0,0,1-1-1.06,3.64,3.64,0,0,1-.3-1.49V6.68H80.26V4.33H81.8L82.37,1h2.37v3.3h2.11V6.68H84.74v6a1.18,1.18,0,0,0,.24.8,1,1,0,0,0,.79.27h1.08v2c-.17,0-.38.11-.61.16s-.49.1-.75.13A5,5,0,0,1,84.76,16.16Z"/><path class="cls-1" d="M94.08,16.16a7.2,7.2,0,0,1-3.21-.65,4.28,4.28,0,0,1-2-2,7.7,7.7,0,0,1-.66-3.41,7.72,7.72,0,0,1,.66-3.42,4.31,4.31,0,0,1,1.94-2A6.87,6.87,0,0,1,94,4.07a6.52,6.52,0,0,1,3,.62,4.09,4.09,0,0,1,1.82,1.94A8,8,0,0,1,99.42,10v.79H91.36a5.22,5.22,0,0,0,.32,1.72,2,2,0,0,0,.85,1,3,3,0,0,0,1.55.34,3.19,3.19,0,0,0,1-.13,2.18,2.18,0,0,0,.74-.39,2,2,0,0,0,.48-.66,2.21,2.21,0,0,0,.18-.91h3A4.39,4.39,0,0,1,99,13.72a3.71,3.71,0,0,1-1.1,1.35,4.86,4.86,0,0,1-1.68.81A7.71,7.71,0,0,1,94.08,16.16ZM91.4,8.86h4.88a3.52,3.52,0,0,0-.16-1.14,2.2,2.2,0,0,0-.45-.8,1.76,1.76,0,0,0-.7-.45,2.85,2.85,0,0,0-.91-.14,3,3,0,0,0-1.39.28,1.87,1.87,0,0,0-.86.83A4.11,4.11,0,0,0,91.4,8.86Z"/><path class="cls-1" d="M105.76,16.16a4.63,4.63,0,0,1-2.48-.65,4.21,4.21,0,0,1-1.61-2,8.83,8.83,0,0,1-.57-3.43,8.58,8.58,0,0,1,.58-3.42,4.31,4.31,0,0,1,1.6-2,4.42,4.42,0,0,1,2.37-.63,5.64,5.64,0,0,1,1.39.16,3.35,3.35,0,0,1,1.15.52,3.44,3.44,0,0,1,.84.86h.13V0h3.06V15.89h-2.51l-.24-1.56h-.15a3.55,3.55,0,0,1-1.5,1.38A4.62,4.62,0,0,1,105.76,16.16Zm1-2.51a2.11,2.11,0,0,0,2.2-1.54,5.25,5.25,0,0,0,.27-1.78V9.94A6.16,6.16,0,0,0,109,8.53a2.75,2.75,0,0,0-.45-1.07,2.14,2.14,0,0,0-.77-.66,2.48,2.48,0,0,0-1.1-.23,2.58,2.58,0,0,0-1.47.37,2,2,0,0,0-.79,1.1,6,6,0,0,0-.24,1.83v.51a5.86,5.86,0,0,0,.24,1.82,2,2,0,0,0,.79,1.09A2.67,2.67,0,0,0,106.72,13.65Z"/><path class="cls-1" d="M124.66,16.16a7.26,7.26,0,0,1-3.21-.65,4.31,4.31,0,0,1-2-2,7.57,7.57,0,0,1-.68-3.4,7.57,7.57,0,0,1,.68-3.42,4.34,4.34,0,0,1,2-2,8.33,8.33,0,0,1,6.45,0,4.36,4.36,0,0,1,2,2,7.44,7.44,0,0,1,.68,3.42,7.43,7.43,0,0,1-.68,3.4,4.33,4.33,0,0,1-2,2A7.28,7.28,0,0,1,124.66,16.16Zm0-2.38a3.08,3.08,0,0,0,1.62-.37,2.2,2.2,0,0,0,.89-1.14,5.54,5.54,0,0,0,.28-1.89V9.85A5.46,5.46,0,0,0,127.17,8a2.29,2.29,0,0,0-.89-1.16,3.08,3.08,0,0,0-1.62-.38,3,3,0,0,0-1.59.38A2.24,2.24,0,0,0,122.18,8a5.44,5.44,0,0,0-.29,1.89v.53a5.52,5.52,0,0,0,.29,1.89,2.15,2.15,0,0,0,.89,1.14A3,3,0,0,0,124.66,13.78Z"/><path class="cls-1" d="M136.55,16.16a4,4,0,0,1-2.79-1,4.1,4.1,0,0,1-1-3.12V4.33h3.05v7.23a3,3,0,0,0,.14,1,1.48,1.48,0,0,0,.38.63,1.61,1.61,0,0,0,.63.35,3,3,0,0,0,.83.11,2.31,2.31,0,0,0,1.23-.33,2.35,2.35,0,0,0,.86-.91,2.72,2.72,0,0,0,.31-1.31V4.33h3.05V15.89h-2.5l-.22-1.58h-.16a4.69,4.69,0,0,1-1,1,4.62,4.62,0,0,1-1.27.65A5,5,0,0,1,136.55,16.16Z"/><path class="cls-1" d="M146,15.89V4.33h2.52l.25,1.8H149a4.54,4.54,0,0,1,.57-1,2.68,2.68,0,0,1,.88-.76A2.54,2.54,0,0,1,151.63,4a2.82,2.82,0,0,1,.68.08,4.13,4.13,0,0,1,.47.14V7h-.95a3.69,3.69,0,0,0-1.2.18,2.26,2.26,0,0,0-.87.58,2.57,2.57,0,0,0-.51,1,4.85,4.85,0,0,0-.17,1.34v5.78Z"/><path class="cls-1" d="M160.51,15.89,156.89,4.33h3.21L161.55,10c.07.3.14.61.21.95s.12.63.18.9.1.45.13.57h.16c.06-.29.12-.6.19-.91s.13-.62.19-.9.12-.5.15-.65l1.38-5.63h3.19L168.76,10c.06.21.11.46.17.76s.13.6.2.9l.18.78h.13c0-.21.08-.45.14-.72s.13-.57.2-.86.13-.56.19-.79l1.43-5.72h2.94l-3.6,11.56h-3.15l-1.27-5.16c-.06-.28-.13-.59-.22-.94s-.17-.68-.23-1-.12-.63-.17-.88h-.13a3.16,3.16,0,0,1-.09.61l-.21,1c-.08.38-.18.8-.29,1.27l-1.32,5.16Z"/><path class="cls-1" d="M181,16.16a7.2,7.2,0,0,1-3.21-.65,4.28,4.28,0,0,1-2-2,7.7,7.7,0,0,1-.66-3.41,7.72,7.72,0,0,1,.66-3.42,4.31,4.31,0,0,1,1.94-2A6.87,6.87,0,0,1,181,4.07a6.52,6.52,0,0,1,3,.62,4.09,4.09,0,0,1,1.82,1.94,8,8,0,0,1,.62,3.37v.79h-8.07a5.22,5.22,0,0,0,.32,1.72,2,2,0,0,0,.86,1,3,3,0,0,0,1.54.34,3.19,3.19,0,0,0,1-.13,2.18,2.18,0,0,0,.74-.39,2,2,0,0,0,.48-.66,2.21,2.21,0,0,0,.18-.91h3a4.38,4.38,0,0,1-.4,1.92,3.71,3.71,0,0,1-1.1,1.35,4.86,4.86,0,0,1-1.68.81A7.71,7.71,0,0,1,181,16.16Zm-2.68-7.3h4.88a3.52,3.52,0,0,0-.16-1.14,2.2,2.2,0,0,0-.45-.8,1.76,1.76,0,0,0-.7-.45,2.85,2.85,0,0,0-.91-.14,3,3,0,0,0-1.39.28,1.87,1.87,0,0,0-.86.83A4.34,4.34,0,0,0,178.36,8.86Z"/><path class="cls-1" d="M195.09,16.16a4.63,4.63,0,0,1-2.05-.45,3.52,3.52,0,0,1-1.51-1.38h-.15l-.25,1.56h-2.5V0h3.05V5.61h.14a3.31,3.31,0,0,1,.85-.86,3.44,3.44,0,0,1,1.15-.52,5.45,5.45,0,0,1,1.38-.16,4.46,4.46,0,0,1,2.39.63,4.23,4.23,0,0,1,1.59,2,8.78,8.78,0,0,1,.57,3.42,9,9,0,0,1-.56,3.43,4.14,4.14,0,0,1-1.6,2A4.68,4.68,0,0,1,195.09,16.16Zm-.94-2.51a2.61,2.61,0,0,0,1.46-.36,2,2,0,0,0,.78-1.09,5.86,5.86,0,0,0,.24-1.82V9.87A6,6,0,0,0,196.39,8a2,2,0,0,0-.78-1.1A3,3,0,0,0,193,6.8a2,2,0,0,0-.76.66,3.08,3.08,0,0,0-.45,1.07,5.63,5.63,0,0,0-.16,1.41v.39a5.25,5.25,0,0,0,.27,1.78,2.28,2.28,0,0,0,.81,1.15A2.37,2.37,0,0,0,194.15,13.65Z"/><path class="cls-1" d="M206.68,16.16a8.08,8.08,0,0,1-2.18-.27,5.22,5.22,0,0,1-1.65-.73,3.47,3.47,0,0,1-1-1.13,3.11,3.11,0,0,1-.37-1.5v-.18a.25.25,0,0,1,0-.13h2.94v.18a1.35,1.35,0,0,0,.35.89,1.86,1.86,0,0,0,.87.49,3.86,3.86,0,0,0,1.13.16,5.71,5.71,0,0,0,1-.1,2.1,2.1,0,0,0,.83-.36.83.83,0,0,0,.34-.69.91.91,0,0,0-.43-.81,3.67,3.67,0,0,0-1.12-.46l-1.5-.4c-.5-.11-1-.25-1.5-.4a6,6,0,0,1-1.35-.61,3,3,0,0,1-1-1,2.83,2.83,0,0,1-.37-1.52A3.11,3.11,0,0,1,202.1,6a3.5,3.5,0,0,1,1.09-1.11,5.19,5.19,0,0,1,1.63-.64,9.12,9.12,0,0,1,2-.21,8.17,8.17,0,0,1,1.89.21,5.22,5.22,0,0,1,1.54.61,3.11,3.11,0,0,1,1,1,2.55,2.55,0,0,1,.38,1.35v.29a.36.36,0,0,1,0,.18h-2.92V7.54a1,1,0,0,0-.24-.67,1.57,1.57,0,0,0-.69-.43,3.5,3.5,0,0,0-1.09-.15,4.83,4.83,0,0,0-.8.06,2.46,2.46,0,0,0-.63.2,1.25,1.25,0,0,0-.41.32.73.73,0,0,0-.14.45.71.71,0,0,0,.32.6,2.53,2.53,0,0,0,.84.39l1.17.33c.53.15,1.08.29,1.66.43a8.14,8.14,0,0,1,1.62.56,3,3,0,0,1,1.2,1,2.93,2.93,0,0,1,.47,1.75,3.63,3.63,0,0,1-.41,1.78,3.14,3.14,0,0,1-1.13,1.16,5.14,5.14,0,0,1-1.7.64A10.49,10.49,0,0,1,206.68,16.16Z"/><path class="cls-1" d="M214.22,2.64V0h3.05V2.64Zm0,13.25V4.33h3.05V15.89Z"/><path class="cls-1" d="M223.54,16.16a3.49,3.49,0,0,1-1.79-.4,2.33,2.33,0,0,1-1-1.06,3.49,3.49,0,0,1-.31-1.49V6.68H219V4.33h1.54l.57-3.3h2.37v3.3h2.11V6.68h-2.11v6a1.13,1.13,0,0,0,.25.8,1,1,0,0,0,.79.27h1.07v2c-.17,0-.38.11-.61.16s-.48.1-.75.13A4.76,4.76,0,0,1,223.54,16.16Z"/><path class="cls-1" d="M232.86,16.16a7.14,7.14,0,0,1-3.21-.65,4.25,4.25,0,0,1-2-2,7.7,7.7,0,0,1-.66-3.41,7.72,7.72,0,0,1,.66-3.42,4.28,4.28,0,0,1,1.95-2,6.8,6.8,0,0,1,3.15-.65,6.52,6.52,0,0,1,3,.62,4.09,4.09,0,0,1,1.82,1.94A8,8,0,0,1,238.2,10v.79h-8.07a5.49,5.49,0,0,0,.32,1.72,2,2,0,0,0,.86,1,3,3,0,0,0,1.55.34,3.12,3.12,0,0,0,.95-.13,2.18,2.18,0,0,0,.74-.39,1.87,1.87,0,0,0,.48-.66,2.21,2.21,0,0,0,.18-.91h3a4.25,4.25,0,0,1-.4,1.92,3.71,3.71,0,0,1-1.1,1.35,4.86,4.86,0,0,1-1.68.81A7.69,7.69,0,0,1,232.86,16.16Zm-2.69-7.3h4.88a3.52,3.52,0,0,0-.16-1.14,2.2,2.2,0,0,0-.45-.8,1.8,1.8,0,0,0-.69-.45,2.91,2.91,0,0,0-.92-.14,3,3,0,0,0-1.39.28,1.92,1.92,0,0,0-.86.83A4.34,4.34,0,0,0,230.17,8.86Z"/><path class="cls-1" d="M240.81,15.89V12.75H244v3.14Zm7.32,0V12.75h3.17v3.14Zm7.3,0V12.75h3.19v3.14Z"/></g></g></svg>