<svg xmlns="http://www.w3.org/2000/svg" viewBox="0 0 236.09 18.93"><defs><style>.cls-1{fill:#fff;}.cls-2{fill:#7bec02;}</style></defs><g id="Layer_2" data-name="Layer 2"><g id="Layer_1-2" data-name="Layer 1"><path class="cls-1" d="M5,14.81V9.65L0,2H3.24L6.42,7.14h.09L9.67,2h3.05L7.78,9.65v5.16Z"/><path class="cls-1" d="M16.72,15A6.12,6.12,0,0,1,14,14.48a3.6,3.6,0,0,1-1.7-1.7,6.36,6.36,0,0,1-.58-2.89A6.36,6.36,0,0,1,12.29,7,3.69,3.69,0,0,1,14,5.3a6.12,6.12,0,0,1,2.73-.55,6.14,6.14,0,0,1,2.76.55A3.76,3.76,0,0,1,21.17,7a6.36,6.36,0,0,1,.58,2.91,6.36,6.36,0,0,1-.58,2.89,3.67,3.67,0,0,1-1.69,1.7A6.14,6.14,0,0,1,16.72,15Zm0-2a2.6,2.6,0,0,0,1.37-.32,1.81,1.81,0,0,0,.76-1,4.65,4.65,0,0,0,.24-1.6V9.67a4.71,4.71,0,0,0-.24-1.61,1.85,1.85,0,0,0-.76-1,2.5,2.5,0,0,0-1.37-.33,2.51,2.51,0,0,0-1.36.33,1.88,1.88,0,0,0-.75,1,4.46,4.46,0,0,0-.25,1.61v.45a4.41,4.41,0,0,0,.25,1.6,1.85,1.85,0,0,0,.75,1A2.61,2.61,0,0,0,16.72,13Z"/><path class="cls-1" d="M26.84,15a3.35,3.35,0,0,1-2.38-.83,3.51,3.51,0,0,1-.88-2.65V5h2.6v6.16a2.69,2.69,0,0,0,.11.81,1.33,1.33,0,0,0,.33.53,1.24,1.24,0,0,0,.54.3,2.53,2.53,0,0,0,.71.1,2,2,0,0,0,1-.29,1.87,1.87,0,0,0,.73-.77,2.27,2.27,0,0,0,.26-1.11V5h2.6v9.84H30.37l-.19-1.35h-.13a3.84,3.84,0,0,1-.83.83,4,4,0,0,1-1.07.55A4.23,4.23,0,0,1,26.84,15Z"/><path class="cls-1" d="M38.56,14.81V1.27h2.6v7.8L44.6,5h3L44.29,8.83l3.53,6h-3l-2.27-4.15L41.16,12v2.77Z"/><path class="cls-1" d="M49.22,14.81V5h2.15l.21,1.35h.13a3.8,3.8,0,0,1,.81-.84,3.42,3.42,0,0,1,1.08-.54,4.19,4.19,0,0,1,1.31-.19,3.94,3.94,0,0,1,1.7.35,2.47,2.47,0,0,1,1.13,1.13,4.26,4.26,0,0,1,.4,2v6.58h-2.6V8.64a2.38,2.38,0,0,0-.11-.8,1.46,1.46,0,0,0-.32-.54A1.44,1.44,0,0,0,54.57,7a2.6,2.6,0,0,0-.71-.09,2,2,0,0,0-1.78,1,2.37,2.37,0,0,0-.26,1.12v5.74Z"/><path class="cls-1" d="M65,15a6.12,6.12,0,0,1-2.73-.56,3.6,3.6,0,0,1-1.7-1.7A6.36,6.36,0,0,1,60,9.89,6.36,6.36,0,0,1,60.58,7a3.69,3.69,0,0,1,1.7-1.68A6.12,6.12,0,0,1,65,4.75a6.2,6.2,0,0,1,2.76.55A3.76,3.76,0,0,1,69.46,7,6.36,6.36,0,0,1,70,9.89a6.36,6.36,0,0,1-.58,2.89,3.67,3.67,0,0,1-1.69,1.7A6.2,6.2,0,0,1,65,15Zm0-2a2.6,2.6,0,0,0,1.37-.32,1.81,1.81,0,0,0,.76-1,4.65,4.65,0,0,0,.24-1.6V9.67a4.71,4.71,0,0,0-.24-1.61,1.85,1.85,0,0,0-.76-1,3,3,0,0,0-2.73,0,2,2,0,0,0-.76,1,4.71,4.71,0,0,0-.24,1.61v.45a4.65,4.65,0,0,0,.24,1.6,1.91,1.91,0,0,0,.76,1A2.61,2.61,0,0,0,65,13Z"/><path class="cls-1" d="M73.87,14.81,70.79,5h2.73L74.75,9.8c.06.25.12.52.18.8s.11.54.16.77.08.39.11.49h.13c0-.25.1-.51.16-.78s.11-.52.17-.77.09-.42.12-.55L77,5h2.71l1.22,4.81c0,.17.1.39.15.64s.1.52.16.77a6.58,6.58,0,0,1,.15.67h.11c0-.18.07-.38.13-.62s.11-.48.16-.73l.16-.67L83.13,5h2.51l-3.07,9.84H79.89l-1.08-4.39c0-.24-.11-.51-.19-.8s-.14-.58-.19-.87-.11-.54-.14-.75h-.12a2.57,2.57,0,0,1-.07.52l-.18.82c-.07.32-.15.68-.25,1.08l-1.12,4.39Z"/><path class="cls-1" d="M93.47,15A3,3,0,0,1,92,14.7a2,2,0,0,1-.84-.91,2.91,2.91,0,0,1-.27-1.26V7H89.64V5H91l.48-2.8h2V5h1.8V7h-1.8V12.1a1,1,0,0,0,.21.68.84.84,0,0,0,.67.24h.92v1.72c-.15,0-.33.09-.53.14l-.63.11A4.82,4.82,0,0,1,93.47,15Z"/><path class="cls-1" d="M96.93,14.81V1.29h2.6V6.06h.13a3.31,3.31,0,0,1,.76-.68,3.46,3.46,0,0,1,1-.46,3.89,3.89,0,0,1,1.21-.17,4,4,0,0,1,1.7.35,2.52,2.52,0,0,1,1.13,1.13,4.26,4.26,0,0,1,.4,2v6.58h-2.6V8.64a2.66,2.66,0,0,0-.11-.8,1.36,1.36,0,0,0-.33-.54,1.33,1.33,0,0,0-.53-.31,2.6,2.6,0,0,0-.71-.09,2,2,0,0,0-1,.28,2,2,0,0,0-.73.77,2.37,2.37,0,0,0-.26,1.12v5.74Z"/><path class="cls-1" d="M112.66,15a6.06,6.06,0,0,1-2.73-.56,3.6,3.6,0,0,1-1.67-1.69,6.63,6.63,0,0,1-.56-2.9A6.65,6.65,0,0,1,108.26,7a3.7,3.7,0,0,1,1.66-1.68,5.87,5.87,0,0,1,2.68-.55,5.54,5.54,0,0,1,2.53.53,3.5,3.5,0,0,1,1.55,1.65,6.76,6.76,0,0,1,.52,2.87v.67h-6.86a4.94,4.94,0,0,0,.27,1.46,1.72,1.72,0,0,0,.73.89,2.64,2.64,0,0,0,1.32.29,2.88,2.88,0,0,0,.81-.11,1.82,1.82,0,0,0,.63-.34,1.66,1.66,0,0,0,.41-.56,1.89,1.89,0,0,0,.15-.77h2.54a3.73,3.73,0,0,1-.33,1.63,3.29,3.29,0,0,1-.94,1.15,4,4,0,0,1-1.43.69A6.61,6.61,0,0,1,112.66,15Zm-2.28-6.21h4.15a3.17,3.17,0,0,0-.14-1,1.81,1.81,0,0,0-.38-.67,1.54,1.54,0,0,0-.59-.38,2.36,2.36,0,0,0-.78-.13,2.66,2.66,0,0,0-1.19.24,1.67,1.67,0,0,0-.73.71A3.7,3.7,0,0,0,110.38,8.83Z"/><path class="cls-2" d="M127.65,15.07a8.07,8.07,0,0,1-2.17-.26,5.26,5.26,0,0,1-1.64-.73,3.28,3.28,0,0,1-1-1.13,3,3,0,0,1-.37-1.49v-.18a.23.23,0,0,1,0-.13h2.93v.18a1.3,1.3,0,0,0,.35.88,1.87,1.87,0,0,0,.87.5,4.17,4.17,0,0,0,1.13.15,4.74,4.74,0,0,0,1-.1,1.89,1.89,0,0,0,.84-.36.83.83,0,0,0,.34-.68.91.91,0,0,0-.43-.81,3.78,3.78,0,0,0-1.12-.46l-1.5-.39c-.5-.12-1-.26-1.49-.41a5.89,5.89,0,0,1-1.35-.6,2.93,2.93,0,0,1-1-1,2.83,2.83,0,0,1-.37-1.52A3.07,3.07,0,0,1,123.09,5a3.27,3.27,0,0,1,1.09-1.1,5.14,5.14,0,0,1,1.62-.65,9.09,9.09,0,0,1,2-.21,8.17,8.17,0,0,1,1.89.21,5.27,5.27,0,0,1,1.53.62,3.09,3.09,0,0,1,1,1,2.49,2.49,0,0,1,.37,1.35v.29a.59.59,0,0,1,0,.17h-2.91V6.49a1,1,0,0,0-.24-.67,1.58,1.58,0,0,0-.7-.43,3.39,3.39,0,0,0-1.08-.15,4.92,4.92,0,0,0-.8.06,2.38,2.38,0,0,0-.62.2,1.13,1.13,0,0,0-.41.32.73.73,0,0,0-.14.45.7.7,0,0,0,.32.6,2.74,2.74,0,0,0,.84.38l1.16.33c.53.15,1.08.29,1.65.43a8.14,8.14,0,0,1,1.62.56,3.05,3.05,0,0,1,1.2,1,3,3,0,0,1,.46,1.75,3.46,3.46,0,0,1-.41,1.77,3.11,3.11,0,0,1-1.12,1.16,5.4,5.4,0,0,1-1.69.64A10.51,10.51,0,0,1,127.65,15.07Z"/><path class="cls-2" d="M136.76,18.93a6.2,6.2,0,0,1-1.34-.12l-.7-.17V16.58h1.34a1.94,1.94,0,0,0,1-.25,2.61,2.61,0,0,0,.76-.65,2.9,2.9,0,0,0,.49-.87L133.78,3.29H137l2,5.32c.08.25.18.56.29.93l.34,1.16c.12.4.21.76.29,1.07h.1c.06-.21.13-.45.2-.73s.15-.56.23-.85l.24-.85.21-.71,1.64-5.34h3.07l-3.92,11a12.94,12.94,0,0,1-.76,1.81,6.9,6.9,0,0,1-1,1.49,4.06,4.06,0,0,1-1.35,1A4.27,4.27,0,0,1,136.76,18.93Z"/><path class="cls-2" d="M147.08,14.81V3.29h2.52l.24,1.57H150a4.12,4.12,0,0,1,.88-1A3.87,3.87,0,0,1,152,3.24a4.51,4.51,0,0,1,1.4-.22,3.88,3.88,0,0,1,1.89.44,2.9,2.9,0,0,1,1.24,1.4h.15a4.2,4.2,0,0,1,.9-1,3.78,3.78,0,0,1,1.21-.64A4.82,4.82,0,0,1,160.27,3a4.32,4.32,0,0,1,1.9.4,2.84,2.84,0,0,1,1.26,1.28A5,5,0,0,1,163.89,7v7.82h-3V7.54a3.09,3.09,0,0,0-.12-.93,1.54,1.54,0,0,0-.34-.62,1.46,1.46,0,0,0-.55-.34,2.28,2.28,0,0,0-.7-.11,1.87,1.87,0,0,0-1.09.33,2.16,2.16,0,0,0-.76.9A3,3,0,0,0,157,8.08v6.73h-3V7.54a3.09,3.09,0,0,0-.12-.93A1.54,1.54,0,0,0,153.5,6a1.42,1.42,0,0,0-.54-.34,2.25,2.25,0,0,0-.71-.11,1.91,1.91,0,0,0-1.08.33,2.19,2.19,0,0,0-.77.9,3,3,0,0,0-.27,1.31v6.73Z"/><path class="cls-2" d="M166.6,18.71V3.29h2.5l.26,1.55h.16A3.41,3.41,0,0,1,171,3.46a5,5,0,0,1,4.52.2,4,4,0,0,1,1.6,2,9.06,9.06,0,0,1,.56,3.44,8.61,8.61,0,0,1-.57,3.37,4.19,4.19,0,0,1-1.59,2,4.35,4.35,0,0,1-2.38.64,5.56,5.56,0,0,1-1.38-.16,3.48,3.48,0,0,1-1.14-.52,3.27,3.27,0,0,1-.85-.85h-.13v5.17Zm5.5-6.13a2.53,2.53,0,0,0,1.46-.37,2,2,0,0,0,.78-1.09,5.88,5.88,0,0,0,.24-1.81v-.5A6,6,0,0,0,174.34,7a2.07,2.07,0,0,0-.78-1.1,2.61,2.61,0,0,0-1.46-.36,2.28,2.28,0,0,0-1.4.4,2.23,2.23,0,0,0-.81,1.13,5.35,5.35,0,0,0-.26,1.8v.37a6,6,0,0,0,.15,1.4,3.2,3.2,0,0,0,.45,1.06,2.09,2.09,0,0,0,.75.67A2.54,2.54,0,0,0,172.1,12.58Z"/><path class="cls-2" d="M183.36,15.07a3.52,3.52,0,0,1-1.77-.39,2.35,2.35,0,0,1-1-1.06,3.6,3.6,0,0,1-.31-1.48V5.63h-1.42V3.29h1.53L181,0h2.37V3.29h2.1V5.63h-2.1v6a1.18,1.18,0,0,0,.24.8,1,1,0,0,0,.79.28h1.07v2a5.18,5.18,0,0,1-.61.17c-.23,0-.48.09-.75.13A6.39,6.39,0,0,1,183.36,15.07Z"/><path class="cls-2" d="M192.72,15.07a7.19,7.19,0,0,1-3.2-.64,4.35,4.35,0,0,1-2-2,7.48,7.48,0,0,1-.67-3.38,7.53,7.53,0,0,1,.67-3.41,4.38,4.38,0,0,1,2-2,7.18,7.18,0,0,1,3.2-.65,7.26,7.26,0,0,1,3.23.65,4.34,4.34,0,0,1,2,2,7.52,7.52,0,0,1,.68,3.41,7.47,7.47,0,0,1-.68,3.38,4.31,4.31,0,0,1-2,2A7.26,7.26,0,0,1,192.72,15.07Zm0-2.36a3,3,0,0,0,1.61-.38,2.12,2.12,0,0,0,.88-1.13,5.48,5.48,0,0,0,.29-1.89V8.79a5.44,5.44,0,0,0-.29-1.89,2.25,2.25,0,0,0-.88-1.15,3,3,0,0,0-1.61-.38,3,3,0,0,0-1.59.38,2.27,2.27,0,0,0-.89,1.15A5.46,5.46,0,0,0,190,8.79v.52a5.5,5.5,0,0,0,.28,1.89,2.14,2.14,0,0,0,.89,1.13A3,3,0,0,0,192.72,12.71Z"/><path class="cls-2" d="M200.84,14.81V3.29h2.52l.25,1.57h.15a4.16,4.16,0,0,1,.89-1,3.75,3.75,0,0,1,1.16-.64A4.45,4.45,0,0,1,207.2,3a3.88,3.88,0,0,1,1.89.44,2.86,2.86,0,0,1,1.24,1.4h.15a4.2,4.2,0,0,1,.9-1,3.78,3.78,0,0,1,1.21-.64A4.82,4.82,0,0,1,214,3a4.29,4.29,0,0,1,1.9.4,2.84,2.84,0,0,1,1.26,1.28A4.91,4.91,0,0,1,217.65,7v7.82H214.6V7.54a3.09,3.09,0,0,0-.12-.93,1.54,1.54,0,0,0-.34-.62,1.42,1.42,0,0,0-.54-.34,2.35,2.35,0,0,0-.71-.11,1.89,1.89,0,0,0-1.09.33,2.32,2.32,0,0,0-.76.9,3,3,0,0,0-.27,1.31v6.73h-3.05V7.54a3.09,3.09,0,0,0-.12-.93,1.54,1.54,0,0,0-.34-.62,1.38,1.38,0,0,0-.53-.34,2.31,2.31,0,0,0-.72-.11,1.91,1.91,0,0,0-1.08.33,2.26,2.26,0,0,0-.77.9,3,3,0,0,0-.27,1.31v6.73Z"/><path class="cls-2" d="M225,15.07a8.07,8.07,0,0,1-2.17-.26,5.26,5.26,0,0,1-1.64-.73,3.38,3.38,0,0,1-1-1.13,3.07,3.07,0,0,1-.36-1.49v-.18a.24.24,0,0,1,0-.13h2.93v.18a1.31,1.31,0,0,0,.36.88,1.79,1.79,0,0,0,.86.5,4.17,4.17,0,0,0,1.13.15,4.9,4.9,0,0,0,1-.1,1.85,1.85,0,0,0,.83-.36.8.8,0,0,0,.34-.68.91.91,0,0,0-.43-.81,3.67,3.67,0,0,0-1.12-.46l-1.5-.39c-.49-.12-1-.26-1.49-.41a5.63,5.63,0,0,1-1.34-.6,2.87,2.87,0,0,1-1-1,2.83,2.83,0,0,1-.37-1.52A3.07,3.07,0,0,1,220.47,5a3.37,3.37,0,0,1,1.09-1.1,5.14,5.14,0,0,1,1.62-.65,9.09,9.09,0,0,1,2-.21,8.11,8.11,0,0,1,1.89.21,5.27,5.27,0,0,1,1.53.62,3.09,3.09,0,0,1,1,1A2.49,2.49,0,0,1,230,6.2v.29a.37.37,0,0,1,0,.17h-2.91V6.49a1,1,0,0,0-.24-.67,1.49,1.49,0,0,0-.69-.43,3.46,3.46,0,0,0-1.09-.15,4.92,4.92,0,0,0-.8.06,2.38,2.38,0,0,0-.62.2,1.13,1.13,0,0,0-.41.32.73.73,0,0,0-.14.45.72.72,0,0,0,.32.6,2.74,2.74,0,0,0,.84.38l1.16.33c.53.15,1.08.29,1.66.43a8.27,8.27,0,0,1,1.61.56,3,3,0,0,1,1.2,1,3,3,0,0,1,.46,1.75,3.56,3.56,0,0,1-.4,1.77,3.14,3.14,0,0,1-1.13,1.16,5.31,5.31,0,0,1-1.69.64A10.44,10.44,0,0,1,225,15.07Z"/><path class="cls-2" d="M232.92,14.81V11.68h3.17v3.13Z"/></g></g></svg>