<svg xmlns="http://www.w3.org/2000/svg" viewBox="0 0 110.5 11.58"><defs><style>.cls-1{fill:#fff;}</style></defs><g id="Layer_2" data-name="Layer 2"><g id="Layer_1-2" data-name="Layer 1"><path class="cls-1" d="M0,9.27,1.52.57H2.93L1.62,8H6L5.76,9.27Z"/><path class="cls-1" d="M9.8,9.42a4,4,0,0,1-1.57-.27,1.85,1.85,0,0,1-.94-.84A2.83,2.83,0,0,1,7,6.9c0-.23,0-.46,0-.7a6.69,6.69,0,0,1,.11-.67A4.67,4.67,0,0,1,7.71,4a3.13,3.13,0,0,1,1.1-1.1,3.4,3.4,0,0,1,1.74-.4A3.46,3.46,0,0,1,12,2.72a1.87,1.87,0,0,1,.88.81,2.86,2.86,0,0,1,.29,1.34,5.42,5.42,0,0,1,0,.66,4.82,4.82,0,0,1-.14.74H8.37c0,.11,0,.22,0,.32s0,.2,0,.3a1.82,1.82,0,0,0,.16.82A1,1,0,0,0,9,8.19a1.86,1.86,0,0,0,.83.16,2.29,2.29,0,0,0,.6-.08A1.5,1.5,0,0,0,10.91,8a1.66,1.66,0,0,0,.4-.43A2,2,0,0,0,11.56,7h1.29a3.4,3.4,0,0,1-.39,1.1,2.47,2.47,0,0,1-.67.76,2.92,2.92,0,0,1-.9.45A3.83,3.83,0,0,1,9.8,9.42ZM8.55,5.3H11.8c0-.1,0-.19,0-.28a2.29,2.29,0,0,0,0-.25,1.49,1.49,0,0,0-.15-.71.88.88,0,0,0-.44-.41,1.6,1.6,0,0,0-.69-.14,1.92,1.92,0,0,0-.92.21,1.67,1.67,0,0,0-.67.6A3.41,3.41,0,0,0,8.55,5.3Z"/><path class="cls-1" d="M15.56,9.42a1.52,1.52,0,0,1-.77-.16.88.88,0,0,1-.38-.43,1.37,1.37,0,0,1-.12-.58,1.23,1.23,0,0,1,0-.2c0-.06,0-.13,0-.2l.73-4.16h-.84l.19-1.09h.86L15.84.74h1L16.55,2.6h1.22l-.19,1.09h-1.2l-.69,3.88a1.52,1.52,0,0,0,0,.19c0,.09,0,.14,0,.17a.44.44,0,0,0,.11.3.53.53,0,0,0,.36.1h.66l-.17.89a1.5,1.5,0,0,1-.3.1l-.37.07Z"/><path class="cls-1" d="M22.45,9.42a2.7,2.7,0,0,1-1-.16,1.46,1.46,0,0,1-.69-.53,1.7,1.7,0,0,1-.25-1,2,2,0,0,1,0-.42c0-.15.05-.31.08-.48L21.4,2.6h1.33L22,6.79a2.87,2.87,0,0,1,0,.31,2.65,2.65,0,0,0,0,.27.94.94,0,0,0,.13.54.75.75,0,0,0,.37.28,1.72,1.72,0,0,0,.52.08,1.89,1.89,0,0,0,.7-.13,1.86,1.86,0,0,0,.63-.38,2.22,2.22,0,0,0,.49-.63,2.44,2.44,0,0,0,.29-.85L25.7,2.6H27L25.85,9.27H24.78l0-.95h-.09a2.76,2.76,0,0,1-.64.59,3.12,3.12,0,0,1-.78.38A2.76,2.76,0,0,1,22.45,9.42Z"/><path class="cls-1" d="M30.17,9.42A5.11,5.11,0,0,1,29,9.3,2.71,2.71,0,0,1,28.15,9a1.57,1.57,0,0,1-.52-.54,1.48,1.48,0,0,1-.17-.7,1.43,1.43,0,0,1,0-.29l.06-.24h1.29a.86.86,0,0,0,0,.17.93.93,0,0,0,0,.14A.69.69,0,0,0,29,8a1.06,1.06,0,0,0,.5.28,3.26,3.26,0,0,0,.73.08,2.81,2.81,0,0,0,.59-.06,1.67,1.67,0,0,0,.52-.17.81.81,0,0,0,.48-.77.57.57,0,0,0-.15-.4,1.12,1.12,0,0,0-.38-.27,4.56,4.56,0,0,0-.56-.19l-.65-.19-.68-.23a3.88,3.88,0,0,1-.61-.31,1.39,1.39,0,0,1-.43-.47,1.36,1.36,0,0,1-.17-.69,2,2,0,0,1,.22-.94A2,2,0,0,1,29,3a2.91,2.91,0,0,1,.91-.41A4.44,4.44,0,0,1,31,2.45a4.64,4.64,0,0,1,1,.1,3,3,0,0,1,.8.3,1.75,1.75,0,0,1,.52.49,1.21,1.21,0,0,1,.18.66,1.76,1.76,0,0,1,0,.33.68.68,0,0,1-.06.21H32.18s0-.1,0-.14,0-.08,0-.11a.64.64,0,0,0-.15-.45.91.91,0,0,0-.41-.26A2.46,2.46,0,0,0,31,3.5a2.64,2.64,0,0,0-.6.06,1.32,1.32,0,0,0-.45.17.78.78,0,0,0-.29.28.67.67,0,0,0-.11.37.5.5,0,0,0,.23.43,1.7,1.7,0,0,0,.59.26l.77.25c.24.07.49.15.73.24a2.86,2.86,0,0,1,.66.31,1.33,1.33,0,0,1,.49.48,1.5,1.5,0,0,1,.17.74A2.25,2.25,0,0,1,33,8.16a2.14,2.14,0,0,1-.65.72,2.93,2.93,0,0,1-1,.41A4.82,4.82,0,0,1,30.17,9.42Z"/><path class="cls-1" d="M36.48,11.58l-.36,0-.33-.07-.25-.07.15-.93h.65a.73.73,0,0,0,.48-.15.7.7,0,0,0,.23-.45l1.08-6.2h-1l.19-1.09h1l.17-1a3.29,3.29,0,0,1,.25-.79,1.45,1.45,0,0,1,.56-.62A2,2,0,0,1,40.37,0l.35,0a1.61,1.61,0,0,1,.33.06.79.79,0,0,1,.26.09l-.16.92H40.5a.7.7,0,0,0-.47.15.75.75,0,0,0-.23.45l-.15.91h1.24L40.7,3.69H39.45L38.34,9.94a2.62,2.62,0,0,1-.24.78,1.59,1.59,0,0,1-.56.62A2,2,0,0,1,36.48,11.58Zm4-2.31L41.7,2.6H43L41.84,9.27Zm1.36-7.82L42.12.1h1.32L43.2,1.45Z"/><path class="cls-1" d="M42.83,9.27l3-3.45L44.14,2.6h1.47l1.16,2.26h.07l1.9-2.26h1.54L47.41,5.86l1.82,3.41H47.75L46.54,6.88h-.08L44.38,9.27Z"/><path class="cls-1" d="M54.58,9.42a1.5,1.5,0,0,1-.77-.16,1,1,0,0,1-.39-.43,1.54,1.54,0,0,1-.11-.58,1.27,1.27,0,0,1,0-.2l0-.2.72-4.16h-.84l.19-1.09h.87L54.86.74h1L55.57,2.6h1.22l-.2,1.09h-1.2l-.68,3.88,0,.19c0,.09,0,.14,0,.17a.41.41,0,0,0,.12.3.49.49,0,0,0,.35.1h.66l-.16.89a1.89,1.89,0,0,1-.31.1L55,9.39Z"/><path class="cls-1" d="M56.72,9.27,58.33.1h1.32l-.58,3.3h.09a3.06,3.06,0,0,1,.61-.51,3.2,3.2,0,0,1,.73-.33,3,3,0,0,1,.8-.11,2.61,2.61,0,0,1,1,.16,1.45,1.45,0,0,1,.68.54,1.66,1.66,0,0,1,.25,1c0,.14,0,.28,0,.43s-.05.3-.08.47l-.75,4.25H61l.74-4.17c0-.11,0-.22,0-.32a1.37,1.37,0,0,0,0-.28A1,1,0,0,0,61.69,4a.7.7,0,0,0-.35-.28,1.69,1.69,0,0,0-.53-.08,2,2,0,0,0-.71.14,1.86,1.86,0,0,0-.63.38,2.33,2.33,0,0,0-.5.64,2.54,2.54,0,0,0-.28.87L58,9.27Z"/><path class="cls-1" d="M67,9.42a4,4,0,0,1-1.57-.27,1.85,1.85,0,0,1-.94-.84,2.83,2.83,0,0,1-.31-1.41c0-.23,0-.46,0-.7s.06-.46.1-.67A5.13,5.13,0,0,1,64.88,4,3.25,3.25,0,0,1,66,2.85a3.4,3.4,0,0,1,1.74-.4,3.46,3.46,0,0,1,1.46.27,1.87,1.87,0,0,1,.88.81,2.86,2.86,0,0,1,.29,1.34,5.42,5.42,0,0,1,0,.66,6.42,6.42,0,0,1-.14.74H65.55c0,.11,0,.22,0,.32s0,.2,0,.3a1.82,1.82,0,0,0,.16.82,1,1,0,0,0,.49.48,1.86,1.86,0,0,0,.83.16,2.35,2.35,0,0,0,.6-.08A1.59,1.59,0,0,0,68.09,8a1.66,1.66,0,0,0,.4-.43A1.78,1.78,0,0,0,68.73,7H70a3.4,3.4,0,0,1-.39,1.1,2.47,2.47,0,0,1-.67.76,2.92,2.92,0,0,1-.9.45A3.83,3.83,0,0,1,67,9.42ZM65.73,5.3H69c0-.1,0-.19,0-.28a2.29,2.29,0,0,0,0-.25,1.49,1.49,0,0,0-.15-.71.88.88,0,0,0-.44-.41,1.65,1.65,0,0,0-.7-.14,1.91,1.91,0,0,0-.91.21,1.67,1.67,0,0,0-.67.6A3.41,3.41,0,0,0,65.73,5.3Z"/><path class="cls-1" d="M76.52,9.42A3.77,3.77,0,0,1,75,9.16a1.85,1.85,0,0,1-.91-.83,2.91,2.91,0,0,1-.31-1.43,5.63,5.63,0,0,1,0-.71,5.4,5.4,0,0,1,.13-.7,5,5,0,0,1,.4-1.22,3.53,3.53,0,0,1,.68-1,2.86,2.86,0,0,1,1-.63,3.4,3.4,0,0,1,1.28-.22,3.57,3.57,0,0,1,1.41.24,1.86,1.86,0,0,1,.86.68,1.91,1.91,0,0,1,.29,1.09c0,.1,0,.2,0,.3s0,.22,0,.33H78.45a1.79,1.79,0,0,0,0-.23,1.5,1.5,0,0,0,0-.22,1.35,1.35,0,0,0-.12-.59A.82.82,0,0,0,78,3.66a1.55,1.55,0,0,0-.69-.13,1.67,1.67,0,0,0-1,.26,1.93,1.93,0,0,0-.67.76,4.16,4.16,0,0,0-.4,1.22c0,.17-.06.32-.08.45s0,.24,0,.34a2.72,2.72,0,0,0,0,.28,2.09,2.09,0,0,0,.15.85.94.94,0,0,0,.46.48,1.54,1.54,0,0,0,.75.16,1.72,1.72,0,0,0,.85-.19,1.45,1.45,0,0,0,.56-.54,2.61,2.61,0,0,0,.3-.81h1.27A3.77,3.77,0,0,1,79,8.18a2.45,2.45,0,0,1-1,.92A3.1,3.1,0,0,1,76.52,9.42Z"/><path class="cls-1" d="M82.57,9.42a2.35,2.35,0,0,1-1.15-.27,1.85,1.85,0,0,1-.75-.81A3,3,0,0,1,80.4,7a4.84,4.84,0,0,1,0-.53c0-.19,0-.39.09-.6a5.88,5.88,0,0,1,.63-1.95A2.92,2.92,0,0,1,82.21,2.8a2.9,2.9,0,0,1,1.42-.35,2.54,2.54,0,0,1,.8.11,2,2,0,0,1,.64.32,1.36,1.36,0,0,1,.44.56h.09L86,2.6h1.09l-.29,1.61c-.06.31-.12.64-.18,1s-.13.66-.18,1-.11.6-.15.86-.09.48-.11.65a2.3,2.3,0,0,0,0,.32.3.3,0,0,0,.1.25.46.46,0,0,0,.27.08h.46l-.16.9a1.88,1.88,0,0,1-.35.13,1.6,1.6,0,0,1-.52.07,1,1,0,0,1-.57-.14A.8.8,0,0,1,85,8.85a1.37,1.37,0,0,1-.07-.24.93.93,0,0,1,0-.29h-.09a2.64,2.64,0,0,1-1,.83A2.91,2.91,0,0,1,82.57,9.42Zm.55-1.14a1.59,1.59,0,0,0,.64-.13,1.66,1.66,0,0,0,.59-.41,2.61,2.61,0,0,0,.47-.69,4.38,4.38,0,0,0,.31-1c0-.17.05-.3.06-.42s0-.23,0-.32a2.5,2.5,0,0,0,0-.25,2.08,2.08,0,0,0-.14-.8,1.14,1.14,0,0,0-.43-.49,1.54,1.54,0,0,0-.75-.16,1.91,1.91,0,0,0-1,.23,1.79,1.79,0,0,0-.66.72,4.78,4.78,0,0,0-.41,1.29l-.08.46c0,.13,0,.24,0,.34s0,.2,0,.28a1.44,1.44,0,0,0,.33,1A1.39,1.39,0,0,0,83.12,8.28Z"/><path class="cls-1" d="M89.78,9.42a2.7,2.7,0,0,1-1-.16,1.37,1.37,0,0,1-.69-.53,1.7,1.7,0,0,1-.26-1,3.07,3.07,0,0,1,0-.42c0-.15,0-.31.09-.48l.74-4.25h1.34l-.74,4.19c0,.11,0,.21,0,.31a1.31,1.31,0,0,0,0,.27.94.94,0,0,0,.14.54.75.75,0,0,0,.37.28,1.67,1.67,0,0,0,.52.08,1.89,1.89,0,0,0,.7-.13,1.86,1.86,0,0,0,.63-.38,2.41,2.41,0,0,0,.49-.63,2.44,2.44,0,0,0,.29-.85L93,2.6h1.34L93.18,9.27H92.11l0-.95h-.09a3.09,3.09,0,0,1-1.43,1A2.7,2.7,0,0,1,89.78,9.42Z"/><path class="cls-1" d="M97.5,9.42a5.14,5.14,0,0,1-1.17-.12A2.75,2.75,0,0,1,95.48,9,1.48,1.48,0,0,1,95,8.42a1.37,1.37,0,0,1-.17-.7,1.43,1.43,0,0,1,0-.29l.06-.24h1.29a.85.85,0,0,0,0,.17.76.76,0,0,0,0,.14A.72.72,0,0,0,96.3,8a1,1,0,0,0,.51.28,3.26,3.26,0,0,0,.73.08,2.88,2.88,0,0,0,.59-.06,1.61,1.61,0,0,0,.51-.17.88.88,0,0,0,.36-.3.87.87,0,0,0,.13-.47A.57.57,0,0,0,99,7a1.28,1.28,0,0,0-.39-.27A4.37,4.37,0,0,0,98,6.51l-.65-.19-.68-.23a3.17,3.17,0,0,1-.61-.31,1.41,1.41,0,0,1-.44-.47,1.35,1.35,0,0,1-.16-.69,1.89,1.89,0,0,1,.22-.94A2,2,0,0,1,96.33,3a3,3,0,0,1,.92-.41,4.3,4.3,0,0,1,1.1-.14,4.64,4.64,0,0,1,1,.1,2.78,2.78,0,0,1,.8.3,1.54,1.54,0,0,1,.52.49,1.22,1.22,0,0,1,.19.66,1.75,1.75,0,0,1,0,.33,1.63,1.63,0,0,1,0,.21H99.51s0-.1,0-.14a.45.45,0,0,0,0-.11.64.64,0,0,0-.15-.45A.81.81,0,0,0,99,3.58a2.38,2.38,0,0,0-.64-.08,2.8,2.8,0,0,0-.61.06,1.5,1.5,0,0,0-.45.17A1,1,0,0,0,97,4a.66.66,0,0,0-.1.37.5.5,0,0,0,.23.43,1.73,1.73,0,0,0,.58.26c.24.07.5.15.78.25s.48.15.72.24a2.75,2.75,0,0,1,.67.31,1.38,1.38,0,0,1,.48.48,1.4,1.4,0,0,1,.18.74,2.38,2.38,0,0,1-.23,1.07,2.07,2.07,0,0,1-.66.72,3,3,0,0,1-1,.41A4.88,4.88,0,0,1,97.5,9.42Z"/><path class="cls-1" d="M104.53,9.42A4,4,0,0,1,103,9.15a1.87,1.87,0,0,1-.95-.84,2.83,2.83,0,0,1-.31-1.41,5.58,5.58,0,0,1,0-.7,6.73,6.73,0,0,1,.1-.67A4.89,4.89,0,0,1,102.43,4a3.13,3.13,0,0,1,1.1-1.1,3.43,3.43,0,0,1,1.75-.4,3.49,3.49,0,0,1,1.46.27,1.85,1.85,0,0,1,.87.81,2.86,2.86,0,0,1,.29,1.34,5.29,5.29,0,0,1,0,.66,4.85,4.85,0,0,1-.15.74h-4.62l0,.32c0,.1,0,.2,0,.3a2,2,0,0,0,.16.82,1,1,0,0,0,.49.48,1.88,1.88,0,0,0,.84.16,2.35,2.35,0,0,0,.6-.08,1.54,1.54,0,0,0,.5-.24,1.51,1.51,0,0,0,.4-.43,1.62,1.62,0,0,0,.25-.64h1.29a3.17,3.17,0,0,1-.38,1.1,2.63,2.63,0,0,1-.68.76,2.72,2.72,0,0,1-.9.45A3.71,3.71,0,0,1,104.53,9.42ZM103.27,5.3h3.25c0-.1,0-.19,0-.28a2.18,2.18,0,0,0,0-.25,1.49,1.49,0,0,0-.15-.71.86.86,0,0,0-.43-.41,1.68,1.68,0,0,0-.7-.14,2,2,0,0,0-.92.21,1.67,1.67,0,0,0-.67.6A3.71,3.71,0,0,0,103.27,5.3Z"/><path class="cls-1" d="M108.83,9.27l.25-1.47h1.42l-.26,1.47Z"/></g></g></svg>