<svg xmlns="http://www.w3.org/2000/svg" viewBox="0 0 241.88 275"><defs><style>.cls-1{fill:#e4ebff;}.cls-2{fill:#18104f;}.cls-3{fill:#d15aa6;}.cls-4{fill:#28263f;}.cls-5{fill:#eaa7ca;}.cls-6{fill:#e089b7;}.cls-7{fill:#004393;}.cls-8{fill:#ffa4cf;}</style></defs><g id="Layer_2" data-name="Layer 2"><g id="Layer_1-2" data-name="Layer 1"><path class="cls-1" d="M227.56,128.5c-.21-.38-.43-.77-.65-1.14-9-15.43-21.84-27-38.33-32.54a71,71,0,0,0-20.16-3.61c-10.57-.4-21.59,2.44-32.58,7.41C115,108,94.27,125.07,77,142.12c-.61,4.39-1.34,8.78-2.18,13.13-4.72,24.66,13.35,50.39,13.35,50.39L70.36,275l12.2-.35H214s21.61-10.1,27.18-69.7C243.84,176.11,239.09,149,227.56,128.5Z"/><path class="cls-2" d="M182.5,102.17a.63.63,0,0,0-.69-.52.61.61,0,0,0-.52.69l2.46,17.41-12.28-2.59a.59.59,0,0,0-.58.94l9.1,11.67c-4.76,1.4-35.67,11.07-49.13,29a.6.6,0,0,0-.11.43.55.55,0,0,0,.23.39.56.56,0,0,0,.17.09.57.57,0,0,0,.18,0,.59.59,0,0,0,.47-.24c14.36-19.11,49-28.7,49.34-28.79a.58.58,0,0,0,.41-.38.61.61,0,0,0-.1-.55l-8.65-11.08,11.55,2.42a.64.64,0,0,0,.45-.08.59.59,0,0,0,.25-.37.17.17,0,0,0,0-.1.41.41,0,0,0,0-.22Z"/><path class="cls-2" d="M132.5,115.42a.56.56,0,0,0,.55-.34.52.52,0,0,0-.17-.62l-9.42-7.37,15.34-7.61a.62.62,0,0,0,.3-.36.54.54,0,0,0-.06-.43h0a.64.64,0,0,0-.82-.22l-16,8a.44.44,0,0,0-.16.12l-.08.06a.5.5,0,0,0-.15.4.56.56,0,0,0,.21.39l8.84,6.9-14-.2h0a.62.62,0,0,0-.48.23.54.54,0,0,0-.07.53c.1.21,9.28,21.18,8.95,39.72v.23l.22,0c.29,0,.34-.38.39-.76a2,2,0,0,1,.08-.41l.12,0v-.18c.27-16.66-6.64-34.16-8.34-38.21Z"/><path class="cls-2" d="M118.68,202.23c1.34-7.56,4.79-25,6.33-32.49q1.26-6.19,2.62-12.38c.89-4.12,1.73-8.26,2.64-12.39.12-.57-.73-.87-.87-.29-.92,3.65-1.86,7.29-2.69,10.95s-1.63,7.36-2.4,11q-2.31,11-4.32,22.12l-2.13,11.81C118.28,200.76,118.26,202.09,118.68,202.23Z"/><path class="cls-3" d="M188.58,94.82l-32.72,37.32-1,1.12-30.15,34.39c-1-5.93,2-24.42,5.32-41.42l.39-2c2.06-10.45,4.16-20.1,5.4-25.64,11-5,22-7.81,32.58-7.41A71,71,0,0,1,188.58,94.82Z"/><path class="cls-4" d="M165.06,42.62a35.36,35.36,0,0,0,4.25-4.56,11.22,11.22,0,0,1,5-3.61c2-.58,4.46,0,5.54,1.77a19.21,19.21,0,0,1,27.28,17.91,15.3,15.3,0,0,1,7.47,11.16,24,24,0,0,1-2.28,13.53c-2.27,4.92-5.89,9.37-10.74,11.77s-11,2.49-15.5-.55c-2.48,3.85-7.51,5.52-12,4.88s-8.57-3.25-11.89-6.39a34.13,34.13,0,0,1-10.7-21.4,27.82,27.82,0,0,1,8-22.26Z"/><path class="cls-5" d="M93.44,43.38a112.68,112.68,0,0,0,4,16.93c1.91,6.33,4,12.62,5.71,19a17.4,17.4,0,0,0,20.47,12.46l7.3-1.42,0,.15,1.54,7.62.58,2.82,2.55,12.65s2.85,2.36,9.47,2.44a29.12,29.12,0,0,0,20.5-8.4l11.33-11L166.68,67.44c10.25-3.62,15.12-15.17,8.45-23-4.38-5.16-9.53-3-13.07-.34A35.31,35.31,0,0,0,96.53,20.38C92.72,27.54,92.34,35.49,93.44,43.38Z"/><path class="cls-4" d="M175.81,44.72a6.5,6.5,0,0,0-3.9-2,12.26,12.26,0,0,0-9.59,2.68,17.29,17.29,0,0,0-5.51,8.48,10.15,10.15,0,0,1-3.94-8.14,38.18,38.18,0,0,1-19.24-18c-3.93-8.07-7.89-18-5.59-26.65,6.24,0,15.65-1.89,21.78-.7s12.09,5.72,16.61,10,7.11,9.89,8.52,15.78S175.91,38.65,175.81,44.72Z"/><path class="cls-4" d="M124.7,14.28c-1.62,3-2.23,6.51-3.32,9.77s-2.87,6.57-5.92,8.16a5.8,5.8,0,0,1-2.78.73,4.89,4.89,0,0,1-4.47-3.63A17.38,17.38,0,0,1,101.38,37c-3,1.77-6.93,2.54-9.8.61C89.23,36,88.22,33,88,30.18c-3.19,1.35-7.12-1.1-8-4.45s.79-7,3.44-9.22,6.12-3.23,9.55-3.74c-.59-3.52,1.47-7.1,4.39-9.15S103.92.83,107.48.55c7.7-.61,15.44.74,23.16.52,3.27-.1,6.53-.47,9.8-.45a5,5,0,0,1,3.58,1c1.22,1.22,1,3.23.6,4.92a4.15,4.15,0,0,1-1,2.34,3.86,3.86,0,0,1-2.59.68c-3,0-6-1.1-8.87-1C128.88,8.77,126.12,11.6,124.7,14.28Z"/><path class="cls-6" d="M132.53,98.12c18.95-6.06,22.12-15.27,22.12-15.27A102.16,102.16,0,0,1,131,90.5Z"/><path class="cls-2" d="M164.7,61.9l.07,0a.51.51,0,0,0,.3-.65,18.65,18.65,0,0,1-.55-11.11,12.38,12.38,0,0,1,2.66-5.26,7.34,7.34,0,0,1,5-2.52.51.51,0,0,0,0-1,8.42,8.42,0,0,0-5.75,2.86,13.46,13.46,0,0,0-2.9,5.68,19.71,19.71,0,0,0,.59,11.72A.51.51,0,0,0,164.7,61.9Z"/><path class="cls-2" d="M119.8,67.24a.69.69,0,0,0,.38-.39.66.66,0,0,0-.4-.84A7,7,0,0,1,117,64c-.61-.8-.49-3.58-.41-5.6a27.16,27.16,0,0,0,0-3.48c-.27-2.55-3.65-8.34-3.8-8.58a.66.66,0,0,0-1.13.67c.94,1.6,3.42,6.16,3.62,8a26.15,26.15,0,0,1,0,3.28c-.11,2.6-.22,5.28.67,6.46a8.14,8.14,0,0,0,3.38,2.44A.66.66,0,0,0,119.8,67.24Z"/><path class="cls-2" d="M120.59,191.44c-.75,4.15-1.44,8.32-2.17,12.48s-1.46,8.31-2.14,12.47q-3.66,22.2-6.19,44.58c-.51,4.54-1,9.1-1.41,13.65h-1.34q.78-8.25,1.74-16.49,1.31-11.28,2.9-22.52t3.48-22.26q.95-5.58,2-11.12c.7-3.7,1.5-7.37,2.28-11C119.83,190.59,120.69,190.86,120.59,191.44Z"/><path class="cls-7" d="M77.73,144.06l34.79-44.33a1.8,1.8,0,0,0-.31-2.54h0a1.81,1.81,0,0,0-2.54.31L75.48,141.38Z"/><path class="cls-8" d="M48.94,137.54s7.63-16.71,14.64-16.2c0,0,2.86-5.14,8.62-3.17,0,0,2-5.93,7.39-3.6,0,0,2.38-4.76,6.59-3s10.55,14.21,7.34,16.82-7-2.55-7-2.55-.62,7.86-7.28,6.31c0,0-4.39,5.16-7.82,1.24,0,0,1,6-3.76,4.53-2-.64-4.11-5.15-4.11-5.15Z"/><path class="cls-2" d="M91.53,129.81a4.45,4.45,0,0,1-1.09-.05c-2.86-.52-5-3.66-5.07-3.8a.66.66,0,1,1,1.1-.73s1.9,2.81,4.21,3.22a3.11,3.11,0,0,0,2.45-.62c.87-.65.78-2.12.56-3.25-1-4.83-6.27-12.12-8.62-12.66-3.06-.71-4.81,2.79-4.88,2.94a.67.67,0,0,1-1.2-.58c.77-1.6,3.1-4.42,6.38-3.66,3.08.72,8.56,8.53,9.62,13.7.55,2.73-.28,4-1.08,4.58A4.54,4.54,0,0,1,91.53,129.81Z"/><path class="cls-2" d="M79.85,132.78a2.76,2.76,0,0,1-.72,0,.67.67,0,0,1,.23-1.31A8.47,8.47,0,0,0,83.8,130,3.24,3.24,0,0,0,85.27,128c.46-2.72-2.26-7-3.89-9.61l-.36-.58c-1.65-2.64-2.63-3.39-5.17-2.69a4.36,4.36,0,0,0-3,3.23.66.66,0,0,1-.78.52.65.65,0,0,1-.52-.77,5.67,5.67,0,0,1,3.94-4.26c3.33-.93,4.85.38,6.66,3.26l.36.58c1.84,2.91,4.61,7.32,4.07,10.54a4.53,4.53,0,0,1-2,2.94A10.17,10.17,0,0,1,79.85,132.78Z"/><path class="cls-2" d="M75.12,135.42a3.93,3.93,0,0,1-3.88-2,.66.66,0,1,1,1.2-.57c.1.2,1.12,2,4.18.83a1.85,1.85,0,0,0,1.07-1.19c.81-2.26-.52-6.57-1.78-8.81-.8-1.42-3.76-6-7.7-5.27a4.92,4.92,0,0,0-4,3.09.67.67,0,0,1-1.28-.37,6.23,6.23,0,0,1,5-4c4.85-.89,8.18,4.31,9.1,5.93,1.37,2.44,2.87,7.13,1.87,9.9a3.15,3.15,0,0,1-1.84,2A6.69,6.69,0,0,1,75.12,135.42Z"/><path class="cls-2" d="M69.14,138.31a3.17,3.17,0,0,1-1.24-.16c-3.12-1-5.8-6.6-5.92-6.84a.67.67,0,0,1,.32-.88.65.65,0,0,1,.88.31c.7,1.47,3,5.44,5.14,6.14a1.68,1.68,0,0,0,1.39-.09c1.91-1,1.46-4.22.41-6.87-1.61-4-4.36-8.73-8.28-8-3.73.73-10.15,11.72-12.31,15.89a.67.67,0,0,1-.9.28.66.66,0,0,1-.28-.89c.82-1.6,8.2-15.6,13.23-16.58,2.67-.52,6.52.58,9.77,8.77,1.62,4.07,1.23,7.34-1,8.53A2.86,2.86,0,0,1,69.14,138.31Z"/><polygon class="cls-2" points="0 111.93 88.8 125.46 125.37 235.6 38.63 222.39 0 111.93"/><path class="cls-5" d="M156.51,225l-11.35-.19s-23-20.87-28-21.22c-.5,0-1.38-.12-2.54-.22-3.76-.36-10.6-1-17.75-1.57a3.92,3.92,0,0,0-.59-.05c-.21,0-.42,0-.63,0-11.83-.88-24.11-1.36-24.63.52-.83,2.94,12.49,8.72,16.31,10.31.64.27,1,.41,1,.41s-5.13,2.77-4.07,6.73c.83,3.11,5.38,5.11,7.26,5.84l.39.12.44.16s-.15.2-.37.55c-.09.15-.2.35-.31.58a9.9,9.9,0,0,0-.65,1.41,7.41,7.41,0,0,0-.42,2,3.14,3.14,0,0,0,0,.69,5.11,5.11,0,0,0,.14,1,4.41,4.41,0,0,0,.66,1.48,5.87,5.87,0,0,0,1.44,1.41,2.22,2.22,0,0,0-.37.48c-.52,1-1.12,3.34,2.52,7.21,1.27,1.35,4.84,3.23,9.45,5.28l46.75,7.21C153.39,245.07,155.78,235.22,156.51,225Z"/><path class="cls-5" d="M92.06,226.36c-1.23-.19-6.25-1.25-7.81-5.77-1.79-5.16,3.67-8.43,3.72-8.46a.59.59,0,0,1,.39-.08l16.24,2a.59.59,0,0,1,.53.68.6.6,0,0,1-.68.53l-16-2c-.83.55-4.33,3.1-3,6.9,1.49,4.32,7,5,7.06,5a.6.6,0,0,1,.54.68.62.62,0,0,1-.67.54Z"/><path class="cls-5" d="M92.76,235.52a.85.85,0,0,1-.24-.09,5.64,5.64,0,0,1-2.67-3.79c-.55-3.14,1.77-6.22,1.87-6.36a.58.58,0,0,1,.52-.23l11.88.71a.61.61,0,1,1-.07,1.21l-11.54-.68c-.5.75-1.83,3-1.45,5.15a4.37,4.37,0,0,0,2,2.89L106,236.15a.63.63,0,0,1,.52.69.6.6,0,0,1-.69.52l-13.07-1.84Z"/><path class="cls-2" d="M223.87,223.14q-13.17-.64-26.36-.85A309.48,309.48,0,0,0,195,166c-.1-.77-1.28-.45-1.18.32a306.67,306.67,0,0,1,2.43,55.92q-19.22-.26-38.43.43c-.42,0-.83,0-1.24,0h0c-.06.41-.13.83-.2,1.23q-3.27,19-7.39,38l-.27,1.18,1.22.19A549.64,549.64,0,0,0,214.92,269c.79,0,.79-1.19,0-1.22a547.35,547.35,0,0,1-64.69-5.66q4.13-19,7.42-38.17,19.29-.7,38.58-.44l1.22,0q13.22.21,26.42.85C224.66,224.4,224.66,223.18,223.87,223.14Z"/></g></g></svg>