<svg xmlns="http://www.w3.org/2000/svg" viewBox="0 0 266.68 33.25"><defs><style>.cls-1{fill:#ffb123;}.cls-2{fill:#0d2950;}.cls-3{fill:#fffffa;}.cls-4{fill:#aa8fff;}.cls-5,.cls-6{fill:#1a0826;}.cls-6{fill-rule:evenodd;}</style></defs><g id="Layer_2" data-name="Layer 2"><g id="Layer_1-2" data-name="Layer 1"><rect class="cls-1" width="266.68" height="33.25" rx="16.63"/><path class="cls-2" d="M68.11,22V10.77h4.48a9.06,9.06,0,0,1,1.81.17,4.36,4.36,0,0,1,1.37.54,2.52,2.52,0,0,1,.88.93A2.83,2.83,0,0,1,77,13.76a2.35,2.35,0,0,1-.27,1.15,2,2,0,0,1-.84.8,4.37,4.37,0,0,1-1.52.43v.26a3.77,3.77,0,0,1,2.34.81,2.4,2.4,0,0,1,.75,1.85,2.69,2.69,0,0,1-.49,1.63,2.94,2.94,0,0,1-1.47,1A7.76,7.76,0,0,1,73,22Zm2-6.43H72a4.46,4.46,0,0,0,2.12-.39,1.29,1.29,0,0,0,.69-1.2,1.23,1.23,0,0,0-.6-1.13,3.61,3.61,0,0,0-1.85-.37H70.15Zm0,4.67H73a3.1,3.1,0,0,0,1.71-.37,1.25,1.25,0,0,0,.55-1.13,1.47,1.47,0,0,0-.72-1.33A4.31,4.31,0,0,0,72.37,17H70.15Z"/><path class="cls-2" d="M82.43,22.25a2.7,2.7,0,0,1-2.31-1.05A5.32,5.32,0,0,1,79.34,18V13.11h2.17v4.67a3.92,3.92,0,0,0,.41,2,1.36,1.36,0,0,0,1.26.67,1.51,1.51,0,0,0,.87-.25,2.1,2.1,0,0,0,.65-.7,4.19,4.19,0,0,0,.43-1.05,5.72,5.72,0,0,0,.2-1.31v-4h2.15V22H85.7l0-2.82h-.31A5.49,5.49,0,0,1,84.81,21a2.63,2.63,0,0,1-1,1A2.9,2.9,0,0,1,82.43,22.25Z"/><path class="cls-2" d="M93.12,25.08a7.34,7.34,0,0,1-1.38-.14,5.58,5.58,0,0,1-1.31-.42,3,3,0,0,1-1-.72L90.15,22a3.13,3.13,0,0,0,1.28.85,4.65,4.65,0,0,0,1.59.29,2.94,2.94,0,0,0,1.55-.38,2.48,2.48,0,0,0,.94-1.19,6.1,6.1,0,0,0,.36-2L96,18h-.35a5.65,5.65,0,0,1-.57,1.88,2.53,2.53,0,0,1-1,1.06,2.75,2.75,0,0,1-1.37.33,2.69,2.69,0,0,1-1.64-.5,2.88,2.88,0,0,1-1-1.46,7.28,7.28,0,0,1-.34-2.41V13.11h2.17V16.4a5.2,5.2,0,0,0,.39,2.33,1.28,1.28,0,0,0,1.2.72,1.37,1.37,0,0,0,.78-.23,1.75,1.75,0,0,0,.6-.66,3.83,3.83,0,0,0,.4-1.09A7.89,7.89,0,0,0,95.44,16V13.11H97.6v6.58a9.56,9.56,0,0,1-.18,1.94,5,5,0,0,1-.53,1.5,3.93,3.93,0,0,1-.9,1.08,3.74,3.74,0,0,1-1.25.66A5.78,5.78,0,0,1,93.12,25.08Z"/><path class="cls-2" d="M103.37,18.46V16.52h4.82v1.94Z"/><path class="cls-2" d="M114.11,22V10.77h2.15V22Zm1-9.4V10.77h7.21v1.86Zm0,5V15.82h6.53v1.79Z"/><path class="cls-2" d="M123.69,22V13.11h1.81l0,3.07h.31a6.65,6.65,0,0,1,.48-1.82,2.39,2.39,0,0,1,.9-1.09,2.66,2.66,0,0,1,1.43-.37l.37,0a1.84,1.84,0,0,1,.43.09l-.08,2.26a3.7,3.7,0,0,0-.55-.14,3.37,3.37,0,0,0-.52,0,2,2,0,0,0-1.16.34,2.5,2.5,0,0,0-.78,1,5.73,5.73,0,0,0-.45,1.48V22Z"/><path class="cls-2" d="M134.82,22.25a5.43,5.43,0,0,1-1.91-.31,3.73,3.73,0,0,1-1.43-.89,4,4,0,0,1-.88-1.43,5.31,5.31,0,0,1-.31-1.89,6,6,0,0,1,.3-1.94,4.45,4.45,0,0,1,.86-1.54,3.71,3.71,0,0,1,1.37-1,4.91,4.91,0,0,1,3.59,0,3.45,3.45,0,0,1,1.3,1,4.11,4.11,0,0,1,.78,1.58,6.59,6.59,0,0,1,.17,2.19l-7,.05V16.76l5.73-.05-.75.7a3.44,3.44,0,0,0-.16-1.6,1.9,1.9,0,0,0-.73-.92,2,2,0,0,0-1.09-.3,2.13,2.13,0,0,0-1.23.37,2.32,2.32,0,0,0-.81,1.06,4.41,4.41,0,0,0-.28,1.68,3.22,3.22,0,0,0,.66,2.21,2.26,2.26,0,0,0,1.79.74,2.7,2.7,0,0,0,.87-.13,1.93,1.93,0,0,0,.58-.34,2,2,0,0,0,.39-.49,3.34,3.34,0,0,0,.23-.58l1.87.43a3.59,3.59,0,0,1-.44,1.12,2.91,2.91,0,0,1-.79.85,3.51,3.51,0,0,1-1.15.55A5.6,5.6,0,0,1,134.82,22.25Z"/><path class="cls-2" d="M144.71,22.25a5.52,5.52,0,0,1-1.92-.31,3.77,3.77,0,0,1-1.42-.89,4,4,0,0,1-.89-1.43,5.55,5.55,0,0,1-.3-1.89,6,6,0,0,1,.3-1.94,4.3,4.3,0,0,1,.86-1.54,3.71,3.71,0,0,1,1.37-1,4.91,4.91,0,0,1,3.59,0,3.34,3.34,0,0,1,1.29,1,4,4,0,0,1,.79,1.58,6.59,6.59,0,0,1,.17,2.19l-7,.05V16.76l5.72-.05-.75.7a3.32,3.32,0,0,0-.15-1.6,1.9,1.9,0,0,0-.73-.92,2,2,0,0,0-1.09-.3,2.13,2.13,0,0,0-1.23.37,2.32,2.32,0,0,0-.81,1.06,4.41,4.41,0,0,0-.28,1.68,3.28,3.28,0,0,0,.65,2.21,2.3,2.3,0,0,0,1.8.74,2.64,2.64,0,0,0,.86-.13,1.87,1.87,0,0,0,.59-.34,2,2,0,0,0,.39-.49,3.34,3.34,0,0,0,.23-.58l1.87.43a3.59,3.59,0,0,1-.44,1.12,3,3,0,0,1-.79.85,3.46,3.46,0,0,1-1.16.55A5.52,5.52,0,0,1,144.71,22.25Z"/><path class="cls-2" d="M158.88,22.25a7.94,7.94,0,0,1-2-.22,4,4,0,0,1-1.47-.66,3.11,3.11,0,0,1-.93-1.11,3.53,3.53,0,0,1-.34-1.54l1.91-.56a2.3,2.3,0,0,0,.34,1.35,2.07,2.07,0,0,0,1,.79,4.32,4.32,0,0,0,1.54.26,4.39,4.39,0,0,0,1.41-.2,2,2,0,0,0,.86-.56,1.17,1.17,0,0,0,.29-.79,1,1,0,0,0-.36-.79,2.88,2.88,0,0,0-1-.5c-.4-.13-.86-.25-1.37-.37s-1.1-.26-1.63-.4a6.22,6.22,0,0,1-1.44-.6,3,3,0,0,1-1-1,2.68,2.68,0,0,1-.39-1.5,3,3,0,0,1,.51-1.76,3.36,3.36,0,0,1,1.5-1.16,5.9,5.9,0,0,1,2.34-.42,6.46,6.46,0,0,1,2.35.4,3.5,3.5,0,0,1,1.57,1.17,3.09,3.09,0,0,1,.6,1.81l-2,.54a2.48,2.48,0,0,0-.18-1,1.81,1.81,0,0,0-.52-.7,2.38,2.38,0,0,0-.81-.41,3.85,3.85,0,0,0-1.07-.14,3.51,3.51,0,0,0-1.22.19,1.76,1.76,0,0,0-.79.52,1.19,1.19,0,0,0-.27.77,1,1,0,0,0,.41.87,3,3,0,0,0,1.08.52c.45.13.94.26,1.48.39s1,.22,1.47.37a6.49,6.49,0,0,1,1.37.58,2.93,2.93,0,0,1,1,1,3.19,3.19,0,0,1-.15,3.27,3.33,3.33,0,0,1-1.58,1.16A7.41,7.41,0,0,1,158.88,22.25Z"/><path class="cls-2" d="M165.6,22V9.92h2.16V12.7c0,.24,0,.48,0,.73s0,.51-.08.77-.07.52-.11.78-.08.53-.13.79h.36a6.26,6.26,0,0,1,.62-1.56,2.66,2.66,0,0,1,1-1,2.79,2.79,0,0,1,1.44-.34A2.66,2.66,0,0,1,173.12,14a5.71,5.71,0,0,1,.77,3.28V22h-2.17V17.56a4.23,4.23,0,0,0-.43-2.17A1.45,1.45,0,0,0,170,14.7a1.69,1.69,0,0,0-1.19.43,2.76,2.76,0,0,0-.74,1.15,5.69,5.69,0,0,0-.3,1.62V22Z"/><path class="cls-2" d="M177.23,11.71a1.53,1.53,0,0,1-1-.28,1.11,1.11,0,0,1,0-1.62,1.53,1.53,0,0,1,1-.28,1.63,1.63,0,0,1,1,.27,1,1,0,0,1,.34.82,1,1,0,0,1-.35.81A1.56,1.56,0,0,1,177.23,11.71ZM176.15,22V13.11h2.15V22Z"/><path class="cls-2" d="M180.72,24.86V13.11h1.81l0,2.42.29,0a4.22,4.22,0,0,1,.56-1.45,2.52,2.52,0,0,1,1-.91,3.09,3.09,0,0,1,1.41-.3,3.38,3.38,0,0,1,2,.59,3.61,3.61,0,0,1,1.27,1.65,6.54,6.54,0,0,1,.44,2.48,6.78,6.78,0,0,1-.4,2.38,3.55,3.55,0,0,1-1.22,1.65,3.2,3.2,0,0,1-2,.61,3,3,0,0,1-1.46-.34,2.76,2.76,0,0,1-1-.94,5.82,5.82,0,0,1-.61-1.38h-.31c.07.31.13.62.18.94s.1.65.13,1,.05.61.05.89v2.48Zm4.45-4.37a1.78,1.78,0,0,0,1.13-.36,2.36,2.36,0,0,0,.7-1,4.84,4.84,0,0,0,0-3,2.26,2.26,0,0,0-.73-1,1.78,1.78,0,0,0-1.12-.35,1.87,1.87,0,0,0-1,.25,2.55,2.55,0,0,0-.72.67,3.08,3.08,0,0,0-.42.9,3.45,3.45,0,0,0-.14.94v.29a2.92,2.92,0,0,0,.09.7,3.78,3.78,0,0,0,.29.74,2.7,2.7,0,0,0,.46.66,1.87,1.87,0,0,0,.64.47A1.88,1.88,0,0,0,185.17,20.49Z"/><path class="cls-2" d="M191.43,24.86V13.11h1.81l0,2.42.29,0a4.22,4.22,0,0,1,.55-1.45,2.66,2.66,0,0,1,1-.91,3.13,3.13,0,0,1,1.42-.3,3.38,3.38,0,0,1,2,.59,3.61,3.61,0,0,1,1.27,1.65,6.54,6.54,0,0,1,.43,2.48,6.56,6.56,0,0,1-.4,2.38,3.53,3.53,0,0,1-1.21,1.65,3.22,3.22,0,0,1-2,.61,3,3,0,0,1-1.47-.34,2.73,2.73,0,0,1-1-.94,5.82,5.82,0,0,1-.61-1.38h-.31c.07.31.13.62.18.94s.09.65.13,1,.05.61.05.89v2.48Zm4.45-4.37a1.8,1.8,0,0,0,1.13-.36,2.36,2.36,0,0,0,.7-1,4.61,4.61,0,0,0,.23-1.51,4.39,4.39,0,0,0-.24-1.53,2.26,2.26,0,0,0-.73-1,1.8,1.8,0,0,0-1.12-.35,1.87,1.87,0,0,0-1,.25,2.31,2.31,0,0,0-.72.67,3.39,3.39,0,0,0-.43.9,3.43,3.43,0,0,0-.13.94v.29a2.92,2.92,0,0,0,.09.7,3.73,3.73,0,0,0,.28.74,3.39,3.39,0,0,0,.46.66,2,2,0,0,0,.65.47A1.85,1.85,0,0,0,195.88,20.49Z"/><path class="cls-2" d="M203.21,11.71a1.57,1.57,0,0,1-1-.28,1.11,1.11,0,0,1,0-1.62,1.57,1.57,0,0,1,1-.28,1.59,1.59,0,0,1,1,.27,1,1,0,0,1,.35.82,1,1,0,0,1-.35.81A1.59,1.59,0,0,1,203.21,11.71ZM202.14,22V13.11h2.15V22Z"/><path class="cls-2" d="M206.71,22V13.11h1.79l-.05,2.73h.3a5.7,5.7,0,0,1,.64-1.66,2.66,2.66,0,0,1,1-1,3.25,3.25,0,0,1,1.47-.32A2.71,2.71,0,0,1,214.2,14a5.64,5.64,0,0,1,.79,3.33V22h-2.16V17.51a4,4,0,0,0-.44-2.12,1.43,1.43,0,0,0-1.28-.68,1.71,1.71,0,0,0-1.21.45,2.88,2.88,0,0,0-.76,1.2,4.93,4.93,0,0,0-.28,1.63v4Z"/><path class="cls-2" d="M220.72,25.1a10.34,10.34,0,0,1-2.38-.23,2.83,2.83,0,0,1-1.37-.66,1.47,1.47,0,0,1-.44-1.09,1.57,1.57,0,0,1,.62-1.29,3.48,3.48,0,0,1,1.85-.62v-.34a3.48,3.48,0,0,1-1.4-.2.71.71,0,0,1-.48-.69,1,1,0,0,1,.47-.82,4.06,4.06,0,0,1,1.56-.59v-.35a2.31,2.31,0,0,1-1.62-.65A2.23,2.23,0,0,1,217,16a2.53,2.53,0,0,1,.48-1.53,3.09,3.09,0,0,1,1.41-1.05A5.83,5.83,0,0,1,221.1,13h4.41v1.71l-2.79-.41v.38a3.24,3.24,0,0,1,1.56.59,1.46,1.46,0,0,1,.5,1.16,1.92,1.92,0,0,1-.44,1.24,2.89,2.89,0,0,1-1.29.83,6.1,6.1,0,0,1-2,.3,4,4,0,0,1-.48,0l-.8-.08c-.24.17-.43.32-.58.45a.51.51,0,0,0-.22.37.27.27,0,0,0,.17.23,1.44,1.44,0,0,0,.44.13l.53,0h2.37c.23,0,.52,0,.88.05a3.89,3.89,0,0,1,1.08.27,2.25,2.25,0,0,1,.9.7,2.21,2.21,0,0,1,.37,1.35,2.29,2.29,0,0,1-.56,1.59,3.29,3.29,0,0,1-1.65.92A11.16,11.16,0,0,1,220.72,25.1Zm.19-1.74a9.48,9.48,0,0,0,1.69-.12,1.72,1.72,0,0,0,.9-.39,1,1,0,0,0,.1-1.26.94.94,0,0,0-.43-.3,2.56,2.56,0,0,0-.54-.1l-.46,0h-2.1a2.06,2.06,0,0,0-1.15.46,1.07,1.07,0,0,0-.33.75.76.76,0,0,0,.27.63,1.7,1.7,0,0,0,.8.28A10.74,10.74,0,0,0,220.91,23.36Zm.05-5.72a2,2,0,0,0,1.35-.41,1.45,1.45,0,0,0,.46-1.1,1.63,1.63,0,0,0-.47-1.2,1.81,1.81,0,0,0-1.36-.47,1.89,1.89,0,0,0-1.37.46,1.55,1.55,0,0,0-.49,1.17,1.53,1.53,0,0,0,.22.81,1.36,1.36,0,0,0,.63.55A2.43,2.43,0,0,0,221,17.64Z"/><path class="cls-2" d="M234.58,22.23a2.63,2.63,0,0,1-2.08-.76,3.52,3.52,0,0,1-.66-2.36V14.83h-1.31l0-1.7h.87a1.3,1.3,0,0,0,.73-.16.69.69,0,0,0,.29-.54l.21-1.3h1.24v2h2.35V14.9H233.9V19a1.05,1.05,0,0,0,1.19,1.21,2.74,2.74,0,0,0,.64-.08,1.83,1.83,0,0,0,.59-.26v2a6,6,0,0,1-1,.23A5.77,5.77,0,0,1,234.58,22.23Z"/><path class="cls-2" d="M242,22.25a4.82,4.82,0,0,1-2.32-.54,3.88,3.88,0,0,1-1.58-1.58,5.36,5.36,0,0,1-.57-2.59,5.24,5.24,0,0,1,.59-2.6,3.74,3.74,0,0,1,1.59-1.54,5,5,0,0,1,2.27-.51,4.84,4.84,0,0,1,2.32.53A3.74,3.74,0,0,1,245.85,15a5.29,5.29,0,0,1,.58,2.6,5.25,5.25,0,0,1-.58,2.61,3.6,3.6,0,0,1-1.59,1.55A5.17,5.17,0,0,1,242,22.25Zm.08-1.64a2,2,0,0,0,2-1.33,4.18,4.18,0,0,0,.27-1.58A4.38,4.38,0,0,0,244,16a2.29,2.29,0,0,0-.8-1.06,2.15,2.15,0,0,0-1.3-.38,2.09,2.09,0,0,0-1.2.34,2,2,0,0,0-.77,1,4.14,4.14,0,0,0-.27,1.6,3.64,3.64,0,0,0,.64,2.3A2.13,2.13,0,0,0,242.05,20.61Z"/><rect class="cls-3" x="3.03" y="2.65" width="55.73" height="27.95" rx="13.97"/><path class="cls-4" d="M24.36,12.05,25.7,23H38.82L37.48,12.05Z"/><path class="cls-5" d="M28.1,7.89a2,2,0,0,1,.26,2.76,2,2,0,0,1-2.77-.08,2,2,0,0,1-.26-2.77A2,2,0,0,1,28.1,7.89Z"/><path class="cls-6" d="M52.56,16c-.3-2.45-2.23-3.94-4.85-3.93H39L40.33,23h3.93L44,20.78h4.15C51.41,20.78,52.9,18.74,52.56,16Zm-4.84,1.74H43.61l-.32-2.62h4.12A1.42,1.42,0,0,1,49,16.42,1.14,1.14,0,0,1,47.72,17.72Z"/><path class="cls-5" d="M10.71,19.91,11.08,23h13.1l-.43-3.49h-6.1L17.59,19l5.63-3.93-.38-3.06H9.74l.43,3.49h6.12l.05.44Z"/></g></g></svg>