<svg xmlns="http://www.w3.org/2000/svg" viewBox="0 0 154.5 87.41"><defs><style>.cls-1{fill:#221f20;}</style></defs><g id="Layer_2" data-name="Layer 2"><g id="Layer_1-2" data-name="Layer 1"><path class="cls-1" d="M8.42,19.36H4.92V3.73H0V.49H13.31V3.73H8.42Z"/><path class="cls-1" d="M17.44,19.36H14V6.14h2.83v2.8q1-3,3.73-3a5,5,0,0,1,1.48.23l-.6,3.24a3.94,3.94,0,0,0-1.17-.2,2.48,2.48,0,0,0-1.71.63,3.38,3.38,0,0,0-1,1.72,12.74,12.74,0,0,0-.2,2.34Z"/><path class="cls-1" d="M29.28,19.67a6,6,0,0,1-4.74-1.9,7.26,7.26,0,0,1-1.69-5,7.25,7.25,0,0,1,1.69-5,6,6,0,0,1,4.74-1.91,5.44,5.44,0,0,1,4.6,2,9.28,9.28,0,0,1,1.54,5.73H26.14a4.76,4.76,0,0,0,1,2.56,2.7,2.7,0,0,0,2.14.94,3,3,0,0,0,2.8-1.84l3,.75A5.81,5.81,0,0,1,29.28,19.67Zm0-11.27a2.8,2.8,0,0,0-2.05.79,3.94,3.94,0,0,0-1,2.27h5.91a3.81,3.81,0,0,0-.91-2.27A2.52,2.52,0,0,0,29.28,8.4Z"/><path class="cls-1" d="M49.11,19.16l-3.19.31a17.8,17.8,0,0,1-.41-2,4.68,4.68,0,0,1-4.23,2.18,4.92,4.92,0,0,1-3.22-1,3.38,3.38,0,0,1-1.24-2.81,3.54,3.54,0,0,1,1.57-3.06,7.38,7.38,0,0,1,4.24-1.09,25,25,0,0,1,2.62.13v-.46a2.76,2.76,0,0,0-.66-2,2.4,2.4,0,0,0-1.8-.67,3.06,3.06,0,0,0-1.53.39,2.69,2.69,0,0,0-1,.95l-2.7-1.45a4.93,4.93,0,0,1,2.14-2,7.45,7.45,0,0,1,3.44-.77c3.64,0,5.47,2,5.47,5.83v3.4A17.33,17.33,0,0,0,49.11,19.16Zm-4-4.05a5.57,5.57,0,0,0,.16-1.22c-.81-.07-1.61-.1-2.39-.1a3.89,3.89,0,0,0-2,.45,1.44,1.44,0,0,0-.73,1.29,1.57,1.57,0,0,0,.53,1.28,2.14,2.14,0,0,0,1.44.45A3.37,3.37,0,0,0,44,16.67,2.51,2.51,0,0,0,45.09,15.11Z"/><path class="cls-1" d="M59.35,8.94H56v6a2,2,0,0,0,.47,1.4,1.67,1.67,0,0,0,1.32.52,4.41,4.41,0,0,0,1.55-.31l.29,2.8a13.17,13.17,0,0,1-2.7.31,4.05,4.05,0,0,1-3.3-1.23,6,6,0,0,1-1-3.88V8.94H50.46V6.14h2.12V2.9L56,2.23V6.14h3.37Z"/><path class="cls-1" d="M64,4.12a2,2,0,0,1-1.46-.59,2,2,0,0,1-.61-1.48A2,2,0,0,1,62.55.61,2,2,0,0,1,64,0a2,2,0,0,1,1.47.61,2,2,0,0,1,.61,1.44,2,2,0,0,1-.6,1.48A2,2,0,0,1,64,4.12Zm1.72,15.24h-3.4V6.14h3.4Z"/><path class="cls-1" d="M73,19.36h-3.4V6.14h2.9V8.66a4.77,4.77,0,0,1,4.46-2.83,3.94,3.94,0,0,1,3.2,1.3,5.65,5.65,0,0,1,1.11,3.78v8.45h-3.4V11.72c0-1.87-.66-2.8-2-2.8a2.52,2.52,0,0,0-1.87.7,3.53,3.53,0,0,0-.93,1.76,11.21,11.21,0,0,0-.1,1.84Z"/><path class="cls-1" d="M89.57,15.37a5.69,5.69,0,0,1-1.24-.1l-.65.72a1.22,1.22,0,0,0-.36.65c0,.21.15.31.46.31h3.74a5.64,5.64,0,0,1,3.72,1,3.27,3.27,0,0,1,1.2,2.6A4.14,4.14,0,0,1,94.72,24a8.28,8.28,0,0,1-5.12,1.34q-6.3,0-6.85-3.73L86,20.94a1.62,1.62,0,0,0,.92,1.47,5.47,5.47,0,0,0,2.68.53,4.77,4.77,0,0,0,2.55-.57A1.6,1.6,0,0,0,93,21c0-.88-.66-1.32-2-1.32H87.21A3.27,3.27,0,0,1,85,19a2.43,2.43,0,0,1-.77-1.9,4.09,4.09,0,0,1,1.37-2.59l.29-.32A4.47,4.47,0,0,1,84,10.55a4.21,4.21,0,0,1,1.59-3.41,6.09,6.09,0,0,1,4-1.31,5.9,5.9,0,0,1,3,.78l1.74-1.94,2.25,1.6L94.5,8.61a3.73,3.73,0,0,1,.64,2.1,4.12,4.12,0,0,1-1.59,3.36A6.07,6.07,0,0,1,89.57,15.37Zm-1.66-3.06a2.33,2.33,0,0,0,4-1.68,2.28,2.28,0,0,0-.67-1.69,2.39,2.39,0,0,0-3.32,0,2.28,2.28,0,0,0-.67,1.69A2.28,2.28,0,0,0,87.91,12.31Z"/><path class="cls-1" d="M108.36,19.26l-3.5.21a13.46,13.46,0,0,1-.46-3.63V.49h3.39V14.05A22.86,22.86,0,0,0,108.36,19.26Z"/><path class="cls-1" d="M113.31,4.12a2,2,0,0,1-1.46-.59,2,2,0,0,1-.61-1.48,2,2,0,0,1,.61-1.44A2,2,0,0,1,113.31,0a2,2,0,0,1,1.47.61,2,2,0,0,1,.61,1.44,2,2,0,0,1-.6,1.48A2,2,0,0,1,113.31,4.12ZM115,19.36h-3.39V6.14H115Z"/><path class="cls-1" d="M125.7,19.36h-4.09L117.12,6.14h3.61l3,10.53,3-10.53h3.5Z"/><path class="cls-1" d="M137.47,19.67a6,6,0,0,1-4.74-1.9,7.26,7.26,0,0,1-1.69-5,7.25,7.25,0,0,1,1.69-5,6,6,0,0,1,4.74-1.91,5.44,5.44,0,0,1,4.6,2,9.28,9.28,0,0,1,1.54,5.73h-9.28a4.76,4.76,0,0,0,1,2.56,2.7,2.7,0,0,0,2.14.94,3,3,0,0,0,2.8-1.84l3,.75A5.81,5.81,0,0,1,137.47,19.67Zm0-11.27a2.8,2.8,0,0,0-2.05.79,3.94,3.94,0,0,0-1,2.27h5.91a3.81,3.81,0,0,0-.91-2.27A2.52,2.52,0,0,0,137.47,8.4Z"/><path class="cls-1" d="M149.86,19.36h-3.39V6.14h2.82v2.8c.69-2,1.94-3,3.73-3a5,5,0,0,1,1.48.23l-.59,3.24a4,4,0,0,0-1.17-.2,2.44,2.44,0,0,0-1.71.63,3.24,3.24,0,0,0-1,1.72,12.73,12.73,0,0,0-.21,2.34Z"/><path class="cls-1" d="M6.5,51.33a6.07,6.07,0,0,1-4.75-1.88,7.25,7.25,0,0,1-1.68-5,7.3,7.3,0,0,1,1.68-5A6,6,0,0,1,6.5,37.51a5.94,5.94,0,0,1,3.64,1.12A4.59,4.59,0,0,1,12,41.35l-3,.62A2.54,2.54,0,0,0,6.5,40.34a2.57,2.57,0,0,0-2.27,1.1,5.15,5.15,0,0,0-.77,3,5.18,5.18,0,0,0,.77,3A2.59,2.59,0,0,0,6.5,48.53a2.79,2.79,0,0,0,2.64-1.69l2.9.62a5,5,0,0,1-1.91,2.77A6,6,0,0,1,6.5,51.33Z"/><path class="cls-1" d="M25.63,50.83l-3.19.32a20.54,20.54,0,0,1-.42-2A4.66,4.66,0,0,1,17.8,51.3a5,5,0,0,1-3.23-1,3.4,3.4,0,0,1-1.23-2.81,3.51,3.51,0,0,1,1.57-3.06,7.35,7.35,0,0,1,4.24-1.09,25,25,0,0,1,2.61.13V43a2.76,2.76,0,0,0-.66-2,2.4,2.4,0,0,0-1.8-.67,3.11,3.11,0,0,0-1.53.39,2.65,2.65,0,0,0-1,1L14,40.23a4.82,4.82,0,0,1,2.14-1.95,7.41,7.41,0,0,1,3.43-.77c3.65,0,5.47,2,5.47,5.83v3.4A16.72,16.72,0,0,0,25.63,50.83Zm-4-4a5.63,5.63,0,0,0,.15-1.22c-.81-.07-1.6-.1-2.38-.1a3.84,3.84,0,0,0-2,.45,1.44,1.44,0,0,0-.74,1.29,1.6,1.6,0,0,0,.53,1.28,2.18,2.18,0,0,0,1.44.45,3.38,3.38,0,0,0,1.95-.59A2.51,2.51,0,0,0,21.61,46.79Z"/><path class="cls-1" d="M32.13,51H28.74V37.82h2.9v2.52a4.75,4.75,0,0,1,4.46-2.83,4,4,0,0,1,3.2,1.3,5.7,5.7,0,0,1,1.1,3.78V51H37V43.4c0-1.87-.65-2.8-2-2.8a2.52,2.52,0,0,0-1.87.7,3.38,3.38,0,0,0-.93,1.76,10.92,10.92,0,0,0-.11,1.84Z"/><path class="cls-1" d="M49.34,51.33a6,6,0,0,1-4.74-1.88,7.25,7.25,0,0,1-1.68-5,7.3,7.3,0,0,1,1.68-5,6,6,0,0,1,4.74-1.91A5.92,5.92,0,0,1,53,38.63a4.54,4.54,0,0,1,1.88,2.72l-3,.62a2.85,2.85,0,0,0-4.83-.53,5.08,5.08,0,0,0-.77,3,5.1,5.1,0,0,0,.77,3,2.56,2.56,0,0,0,2.26,1.09A2.79,2.79,0,0,0,52,46.84l2.9.62A5,5,0,0,1,53,50.23,5.91,5.91,0,0,1,49.34,51.33Z"/><path class="cls-1" d="M62.9,51.35a6,6,0,0,1-4.74-1.9,7.26,7.26,0,0,1-1.69-5,7.25,7.25,0,0,1,1.69-5,6,6,0,0,1,4.74-1.91,5.44,5.44,0,0,1,4.6,2A9.28,9.28,0,0,1,69,45.26H59.76a4.68,4.68,0,0,0,1,2.56,2.69,2.69,0,0,0,2.14.94,3,3,0,0,0,2.8-1.84l3,.75A5.8,5.8,0,0,1,62.9,51.35Zm0-11.27a2.8,2.8,0,0,0-2,.79,4,4,0,0,0-1,2.27h5.91a3.75,3.75,0,0,0-.9-2.27A2.52,2.52,0,0,0,62.9,40.08Z"/><path class="cls-1" d="M75.29,51h-3.4V37.82h2.83v2.8q1-3,3.73-3a5,5,0,0,1,1.48.23l-.6,3.24a3.58,3.58,0,0,0-1.16-.2,2.44,2.44,0,0,0-1.71.63,3.24,3.24,0,0,0-1,1.72,12.73,12.73,0,0,0-.21,2.34Z"/><path class="cls-1" d="M90.14,51,86,37.82h3.6l2.67,10.5,2.41-10.5h3.24l2.41,10.5L103,37.82h3.5L102.4,51H98.56l-2.3-9.28L94,51Z"/><path class="cls-1" d="M110.31,35.8a2.06,2.06,0,0,1-1.47-.59,2,2,0,0,1-.61-1.48,2.07,2.07,0,0,1,3.54-1.44,2,2,0,0,1,.61,1.44,2,2,0,0,1-2.07,2.07ZM112,51h-3.4V37.82H112Z"/><path class="cls-1" d="M123.42,40.62h-3.37v6a2,2,0,0,0,.47,1.4,1.67,1.67,0,0,0,1.32.52,4.51,4.51,0,0,0,1.56-.31l.28,2.8a13.17,13.17,0,0,1-2.7.31,4.05,4.05,0,0,1-3.3-1.23,6,6,0,0,1-1-3.88v-5.6h-2.13v-2.8h2.13V34.58l3.39-.67v3.91h3.37Z"/><path class="cls-1" d="M129.8,51h-3.4V32.17h3.4v7.57a4.41,4.41,0,0,1,4-2.23,3.94,3.94,0,0,1,3.2,1.3,5.65,5.65,0,0,1,1.11,3.78V51h-3.4V43.4c0-1.87-.66-2.8-2-2.8a2.52,2.52,0,0,0-1.87.7,3.53,3.53,0,0,0-.93,1.76,4.72,4.72,0,0,0-.1,1.11Z"/><path class="cls-1" d="M3,80.52a1.15,1.15,0,0,0,.07,1.06.89.89,0,0,0,.74.34,1.63,1.63,0,0,0,1.1-.52,4.68,4.68,0,0,0,1-1.82l.39-1.06h.49l-.51,1.56a4.57,4.57,0,0,1-1.51,2.3,3.74,3.74,0,0,1-2.28.7,2.67,2.67,0,0,1-1.77-.51A2.16,2.16,0,0,1,0,81.15a5,5,0,0,1,.22-2L4.16,65.46c.63,0,1.21,0,1.75-.1a11.92,11.92,0,0,0,1.55-.26Zm6.3-11.17-.08.52H.56l.13-.52Z"/><path class="cls-1" d="M11.91,82.72H8.73l3.11-11.17A2.49,2.49,0,0,0,12,70.46c-.05-.21-.21-.31-.47-.31a1.17,1.17,0,0,0-.9.49,6,6,0,0,0-.86,1.74L9.32,73.6H8.83l.67-1.95A4.75,4.75,0,0,1,10.41,70a3,3,0,0,1,1.19-.81A3.76,3.76,0,0,1,12.92,69a1.93,1.93,0,0,1,1.24.34,1.54,1.54,0,0,1,.51.88,3.82,3.82,0,0,1,.06,1.18,9.26,9.26,0,0,1-.22,1.23Zm6.64-13.14a2.09,2.09,0,0,0-1.17.4,5.64,5.64,0,0,0-1.24,1.28,14,14,0,0,0-1.31,2.32c-.44,1-.89,2.13-1.36,3.5s-.93,3-1.4,4.86l.62-3.44c.54-1.82,1-3.33,1.52-4.55A17.23,17.23,0,0,1,15.61,71a4.48,4.48,0,0,1,1.46-1.57A3.24,3.24,0,0,1,18.76,69a1.89,1.89,0,0,1,1.44.55,1.93,1.93,0,0,1,.5,1.35A2.48,2.48,0,0,1,19.57,73a2,2,0,0,1-1.15.33,1.49,1.49,0,0,1-1-.34A1.25,1.25,0,0,1,17,72a2.1,2.1,0,0,1,.26-1,2.56,2.56,0,0,1,.67-.79,2.53,2.53,0,0,1,.91-.46.27.27,0,0,0-.13-.07A.48.48,0,0,0,18.55,69.58Z"/><path class="cls-1" d="M23.71,81.89a1.65,1.65,0,0,0,1.06-.56A7.7,7.7,0,0,0,26,79.77a17.47,17.47,0,0,0,1.19-2.41,23.89,23.89,0,0,0,1-3.06l-.55,2.8A16.6,16.6,0,0,1,26,80.62a5.82,5.82,0,0,1-1.77,1.89,3.54,3.54,0,0,1-1.9.57,2.48,2.48,0,0,1-2.07-.86,3.7,3.7,0,0,1-.68-2.32,10.13,10.13,0,0,1,.44-2.84,15.46,15.46,0,0,1,1.23-2.93,14.88,14.88,0,0,1,1.8-2.59,9.73,9.73,0,0,1,2.16-1.86,4.39,4.39,0,0,1,2.28-.7,1.53,1.53,0,0,1,1.35.74A3.34,3.34,0,0,1,29.1,72l-.29.16a3.1,3.1,0,0,0-.09-1.71.93.93,0,0,0-.89-.62,1.92,1.92,0,0,0-1.26.62,8.11,8.11,0,0,0-1.31,1.68,16.9,16.9,0,0,0-1.18,2.41,18.85,18.85,0,0,0-.84,2.8,13.32,13.32,0,0,0-.31,2.83,3.4,3.4,0,0,0,.19,1.36A.63.63,0,0,0,23.71,81.89Zm5.83-12.54c.62,0,1.2-.06,1.75-.11A9.89,9.89,0,0,0,32.86,69L29.51,80.49a3.48,3.48,0,0,0-.14.64,1,1,0,0,0,.05.54c.06.15.21.22.43.22a1.24,1.24,0,0,0,.86-.44,5.05,5.05,0,0,0,.9-1.79L32,78.5h.49l-.64,1.89A4.73,4.73,0,0,1,30.94,82a3.16,3.16,0,0,1-1.15.81,3.28,3.28,0,0,1-1.21.23,1.94,1.94,0,0,1-1.76-.77,2.26,2.26,0,0,1-.26-1.4,9.81,9.81,0,0,1,.34-1.79Z"/><path class="cls-1" d="M37.47,82.72H34.28l3.14-11.17a5.18,5.18,0,0,0,.15-.67.88.88,0,0,0,0-.52c-.07-.14-.22-.21-.46-.21a1.15,1.15,0,0,0-.89.48,6.17,6.17,0,0,0-.87,1.75l-.44,1.22h-.49l.67-1.95a4,4,0,0,1,1.4-2.1A3.33,3.33,0,0,1,38.35,69a2.2,2.2,0,0,1,1.31.34,1.48,1.48,0,0,1,.58.87,3.2,3.2,0,0,1,.06,1.17,10.6,10.6,0,0,1-.24,1.25Zm1-4.72a39,39,0,0,1,1.84-4.4A15.94,15.94,0,0,1,42,70.84a5.06,5.06,0,0,1,1.71-1.44A4.23,4.23,0,0,1,45.53,69a2.34,2.34,0,0,1,1.78.56A2.06,2.06,0,0,1,47.8,71a6.56,6.56,0,0,1-.35,1.91l-2.54,7.62a1.84,1.84,0,0,0-.13,1,.48.48,0,0,0,.52.35,1.18,1.18,0,0,0,.81-.44A5.44,5.44,0,0,0,47,79.69l.41-1.17h.49l-.65,1.9a4.15,4.15,0,0,1-.92,1.65,3,3,0,0,1-1.19.79,3.72,3.72,0,0,1-1.26.22,2.68,2.68,0,0,1-1.15-.22,1.72,1.72,0,0,1-.74-.61A1.93,1.93,0,0,1,41.75,81a7.49,7.49,0,0,1,.41-1.87L44.52,72a6.45,6.45,0,0,0,.21-.84,1.45,1.45,0,0,0,0-.73c-.07-.2-.25-.29-.54-.29a1.83,1.83,0,0,0-1.19.6,8.83,8.83,0,0,0-1.35,1.7A22.46,22.46,0,0,0,40.22,75c-.47,1-.91,2-1.34,3.15s-.8,2.3-1.12,3.51Z"/><path class="cls-1" d="M51,82.33a2.11,2.11,0,0,0,.44.17,2.61,2.61,0,0,0,.65.07,2.3,2.3,0,0,0,1.64-.64,2.33,2.33,0,0,0,.66-1.77A4.3,4.3,0,0,0,54,78.47a10.25,10.25,0,0,0-1.05-1.89c-.41-.61-.79-1.2-1.12-1.79a4,4,0,0,1-.51-2,3.49,3.49,0,0,1,.55-2,3.69,3.69,0,0,1,1.55-1.33,5.29,5.29,0,0,1,2.36-.5,7.27,7.27,0,0,1,1.74.21,3,3,0,0,1,1.4.75,2.16,2.16,0,0,1,.54,1.58,2,2,0,0,1-.16.77,1.71,1.71,0,0,1-.46.69,1.19,1.19,0,0,1-.83.28,1.14,1.14,0,0,1-.91-.43,1.64,1.64,0,0,1-.36-1.1A2.72,2.72,0,0,1,57,70.62a3.82,3.82,0,0,1,.53-.91,2.1,2.1,0,0,0-1-.21,2,2,0,0,0-1.5.6,2.34,2.34,0,0,0-.57,1.68,3,3,0,0,0,.19,1.08,5.84,5.84,0,0,0,.55,1c.23.35.5.76.79,1.23A19,19,0,0,1,57,77.21a4.49,4.49,0,0,1,.41,1.88,3.63,3.63,0,0,1-.6,2,4.21,4.21,0,0,1-1.68,1.43,5.66,5.66,0,0,1-2.48.51,6.89,6.89,0,0,1-1.94-.27,3.33,3.33,0,0,1-1.5-.89,2.41,2.41,0,0,1-.58-1.71,2,2,0,0,1,.32-1.1,1.22,1.22,0,0,1,2,0,2.6,2.6,0,0,1,.34,1.35,3.86,3.86,0,0,1-.14,1.05C51.1,81.86,51,82.13,51,82.33Z"/><path class="cls-1" d="M65.23,65.59c.61,0,1.19-.13,1.75-.22a10.87,10.87,0,0,0,1.59-.4L63,84.79c-.24.84-.17,1.39.21,1.66a3.14,3.14,0,0,0,1.84.42l-.16.54-1.66-.06c-.71,0-1.45,0-2.23,0s-1.28,0-1.94,0l-1.45.06.15-.54a2.08,2.08,0,0,0,1.35-.35,2.54,2.54,0,0,0,.68-1.26Zm-5.16,8c.66-.65,1.27-1.32,1.83-2a18,18,0,0,0,1.65-2.36,23.9,23.9,0,0,0,1.6-3.43l.08.41a15.78,15.78,0,0,1-1.3,3.15,16.59,16.59,0,0,1-1.64,2.45,25.39,25.39,0,0,1-1.93,2.1Zm9.39-3.39a1.87,1.87,0,0,0-1.26.75A10.31,10.31,0,0,0,66.81,73a25.52,25.52,0,0,0-1.31,2.94,34.16,34.16,0,0,0-1,3.42l.5-2.69a28.75,28.75,0,0,1,1.81-4.44,8.2,8.2,0,0,1,1.87-2.46,3.18,3.18,0,0,1,2-.78,2.72,2.72,0,0,1,2.25,1,4.6,4.6,0,0,1,.79,2.9,11.09,11.09,0,0,1-.34,2.57,14.53,14.53,0,0,1-1,2.72,11.9,11.9,0,0,1-1.57,2.47,7.13,7.13,0,0,1-2.14,1.79,5.49,5.49,0,0,1-2.68.66,3,3,0,0,1-1.48-.36,2.28,2.28,0,0,1-1-1l.21-.44a2.5,2.5,0,0,0,.67.86,1.47,1.47,0,0,0,.86.25,2.47,2.47,0,0,0,1.57-.63A6.48,6.48,0,0,0,68.28,80a14.79,14.79,0,0,0,1.12-2.4A17.14,17.14,0,0,0,70.17,75a13.46,13.46,0,0,0,.27-2.57,4,4,0,0,0-.26-1.72A.79.79,0,0,0,69.46,70.18Z"/><path class="cls-1" d="M77.91,80.52a1.84,1.84,0,0,0-.09,1,.47.47,0,0,0,.5.35,1.15,1.15,0,0,0,.79-.46A5.53,5.53,0,0,0,80,79.69l.42-1.17h.49l-.65,1.9A4.44,4.44,0,0,1,79.38,82a3.11,3.11,0,0,1-1.16.81,3.52,3.52,0,0,1-1.27.23,2.45,2.45,0,0,1-1.33-.31,1.57,1.57,0,0,1-.67-.85,3.33,3.33,0,0,1-.13-1.26,7.37,7.37,0,0,1,.31-1.54l4.12-13.69a1.42,1.42,0,0,0,0-1.29c-.2-.28-.73-.42-1.58-.42l.18-.54a16.56,16.56,0,0,0,3-.3,15.22,15.22,0,0,0,2.54-.76Z"/><path class="cls-1" d="M86.33,81.89a1.62,1.62,0,0,0,1.06-.56,7.36,7.36,0,0,0,1.22-1.56,16.4,16.4,0,0,0,1.19-2.41,23.89,23.89,0,0,0,1-3.06l-.55,2.8a16.6,16.6,0,0,1-1.59,3.52,5.91,5.91,0,0,1-1.76,1.89,3.59,3.59,0,0,1-1.91.57,2.48,2.48,0,0,1-2.07-.86,3.7,3.7,0,0,1-.67-2.32,9.78,9.78,0,0,1,.44-2.84,14.26,14.26,0,0,1,1.23-2.93,13.87,13.87,0,0,1,1.8-2.59,9.47,9.47,0,0,1,2.15-1.86,4.39,4.39,0,0,1,2.28-.7,1.51,1.51,0,0,1,1.35.74A3.28,3.28,0,0,1,91.72,72l-.28.16a3.1,3.1,0,0,0-.09-1.71.94.94,0,0,0-.9-.62,1.92,1.92,0,0,0-1.26.62,8.1,8.1,0,0,0-1.3,1.68,15,15,0,0,0-1.18,2.41,17.76,17.76,0,0,0-.85,2.8,14,14,0,0,0-.31,2.83,3.37,3.37,0,0,0,.2,1.36A.61.61,0,0,0,86.33,81.89Zm5.83-12.54c.62,0,1.21-.06,1.75-.11A9.71,9.71,0,0,0,95.48,69L92.14,80.49a3.5,3.5,0,0,0-.15.64,1.14,1.14,0,0,0,.06.54c.06.15.2.22.42.22a1.22,1.22,0,0,0,.86-.44,5.2,5.2,0,0,0,.91-1.79l.38-1.16h.5l-.65,1.89A4.57,4.57,0,0,1,93.56,82a3.16,3.16,0,0,1-1.15.81,3.28,3.28,0,0,1-1.21.23,2,2,0,0,1-1.76-.77,2.33,2.33,0,0,1-.26-1.4,10.75,10.75,0,0,1,.34-1.79Z"/><path class="cls-1" d="M100.09,82.72H96.91L100,71.55c.07-.24.12-.47.16-.67a1,1,0,0,0,0-.52c-.06-.14-.21-.21-.46-.21a1.17,1.17,0,0,0-.89.48,6.17,6.17,0,0,0-.87,1.75L97.5,73.6H97l.67-1.95a4.11,4.11,0,0,1,1.4-2.1A3.33,3.33,0,0,1,101,69a2.2,2.2,0,0,1,1.31.34,1.49,1.49,0,0,1,.59.87,3.45,3.45,0,0,1,0,1.17,10.57,10.57,0,0,1-.23,1.25Zm1-4.72a39,39,0,0,1,1.84-4.4,15.94,15.94,0,0,1,1.71-2.76,5.25,5.25,0,0,1,1.71-1.44,4.23,4.23,0,0,1,1.84-.42,2.34,2.34,0,0,1,1.78.56,2,2,0,0,1,.49,1.45,6.25,6.25,0,0,1-.35,1.91l-2.54,7.62a1.94,1.94,0,0,0-.13,1,.48.48,0,0,0,.52.35,1.22,1.22,0,0,0,.82-.44,5.67,5.67,0,0,0,.92-1.79l.41-1.17h.5l-.65,1.9a4.41,4.41,0,0,1-.92,1.65,3.05,3.05,0,0,1-1.2.79,3.7,3.7,0,0,1-1.25.22,2.73,2.73,0,0,1-1.16-.22,1.64,1.64,0,0,1-.73-.61,1.87,1.87,0,0,1-.29-1.26,7.14,7.14,0,0,1,.42-1.87L107.14,72a6.45,6.45,0,0,0,.21-.84,1.59,1.59,0,0,0,0-.73c-.07-.2-.26-.29-.55-.29a1.85,1.85,0,0,0-1.19.6,9.68,9.68,0,0,0-1.35,1.7,24.15,24.15,0,0,0-1.4,2.54c-.47,1-.91,2-1.33,3.15s-.8,2.3-1.13,3.51Z"/><path class="cls-1" d="M115.67,80.52a1.12,1.12,0,0,0,.07,1.06.87.87,0,0,0,.73.34,1.65,1.65,0,0,0,1.11-.52,4.68,4.68,0,0,0,1-1.82l.39-1.06h.49L119,80.08a4.49,4.49,0,0,1-1.5,2.3,3.74,3.74,0,0,1-2.28.7,2.72,2.72,0,0,1-1.78-.51,2.15,2.15,0,0,1-.72-1.42,4.82,4.82,0,0,1,.22-2l3.91-13.66c.62,0,1.21,0,1.75-.1a11.49,11.49,0,0,0,1.54-.26ZM122,69.35l-.08.52h-8.68l.13-.52Z"/></g></g></svg>