<svg xmlns="http://www.w3.org/2000/svg" viewBox="0 0 134.46 155.52"><defs><style>.cls-1{isolation:isolate;}.cls-2{fill:#18104f;}.cls-3{fill:#e4ebff;}.cls-4{fill:#ffa4cf;}.cls-5{fill:#f8faff;}.cls-6{opacity:0.24;}.cls-7{fill:#8c9193;}.cls-8{fill:#31115a;}.cls-9{fill:#91a4e4;}.cls-10{fill:#d2c0fe;opacity:0.6;mix-blend-mode:multiply;}.cls-11{fill:#fff7ff;}.cls-12{fill:#e089b7;}.cls-13{fill:#ff30a2;}</style></defs><g class="cls-1"><g id="Layer_2" data-name="Layer 2"><g id="Layer_1-2" data-name="Layer 1"><circle class="cls-2" cx="108.52" cy="47.46" r="13.92"/><path class="cls-3" d="M133.54,106c-.61,6.29-1.5,13.83-2.63,23-1.2,9.7-2.66,12.9-4.33,26.56H56.14c.41-17.07,0-19.46,0-19.61,0-1.42-.66-7.92-.69-9.47-.26-13.16-4.35-21.3-3.61-35.83,0,0,.69-17.87,3.13-20.22,1.89-1.81,6.15-3.65,10.73-5.24h0c4.72-1.62,10.27-3.17,15-4.3l.86-.21,28.21,2.24a95.72,95.72,0,0,1,15.61,7.88C134,76.3,135.86,81.89,133.54,106Z"/><path class="cls-2" d="M83.76,96.63a.37.37,0,0,1-.36-.31C80.29,80.43,65.2,75.13,65.05,75.08a.38.38,0,0,1-.26-.34.4.4,0,0,1,.22-.36l13.18-6.17L65.71,65.15a.37.37,0,0,1-.27-.45.38.38,0,0,1,.45-.28L79.4,67.74a.36.36,0,0,1,.28.32.39.39,0,0,1-.21.38L66.11,74.69c3.27,1.38,15.26,7.35,18,21.49a.38.38,0,0,1-.29.44Z"/><polygon class="cls-4" points="25.6 82.18 13.42 88.36 2.81 74 21.34 59.08 25.6 82.18"/><path class="cls-5" d="M44.08,59.55c.09.24-.12.54-.46.65l-2.09.72a.27.27,0,0,0-.19.2,2.2,2.2,0,0,1-1.44,1.39L8.52,73.18l-1-3.05L38.86,59.46a2.18,2.18,0,0,1,2,.23.31.31,0,0,0,.28,0L43.22,59c.33-.11.68,0,.76.23h0Z"/><path class="cls-5" d="M7.85,70.31,39,59.74a1.92,1.92,0,0,1,1.72.18.58.58,0,0,0,.54.09l2.1-.71c.21-.07.37,0,.38.05h0l.1.3c0,.05-.07.2-.28.27l-2.1.72a.61.61,0,0,0-.38.4,1.87,1.87,0,0,1-1.25,1.19L8.7,72.8l-.85-2.49M7.11,70l1.22,3.6L40,62.79a2.48,2.48,0,0,0,1.63-1.6l2.1-.71a.85.85,0,0,0,.64-1l-.1-.3h0a.87.87,0,0,0-1.13-.41l-2.1.71a2.5,2.5,0,0,0-2.26-.27L7.11,70Z"/><g class="cls-6"><path class="cls-7" d="M6.38,68.9a.75.75,0,0,1,.49,0,.52.52,0,0,1,.3.3l.22.66L38.77,59.18a2.5,2.5,0,0,1,2.26.27l2.1-.71a.87.87,0,0,1,1.13.41L0,74.18A1.77,1.77,0,0,1,.3,72.87a2.66,2.66,0,0,1,1.39-1.06l4.48-1.52-.24-.69A.6.6,0,0,1,6.38,68.9Z"/></g><path class="cls-4" d="M.79,72.94s3.54-9.73,7.5-9.75A4,4,0,0,1,13,61s.83-3.41,4-2.35c0,0,1.12-2.78,3.56-2s6.56,7.5,4.88,9.11-4-1.12-4-1.12,0,4.44-3.81,3.86c0,0-2.23,3.1-4.33,1,0,0,.85,3.35-1.91,2.71-1.15-.27-2.54-2.7-2.54-2.7Z"/><path class="cls-2" d="M24.35,66.69a2.48,2.48,0,0,1-.61,0,5.28,5.28,0,0,1-3-1.9.38.38,0,1,1,.59-.47A4.49,4.49,0,0,0,23.81,66a1.71,1.71,0,0,0,1.35-.46c.47-.39.35-1.22.17-1.84-.77-2.67-4.06-6.52-5.4-6.72-1.75-.26-2.58,1.78-2.61,1.87a.38.38,0,0,1-.7-.27C17,57.6,18.17,55.91,20,56.2s5.19,4.4,6,7.25c.43,1.51,0,2.26-.4,2.62A2.57,2.57,0,0,1,24.35,66.69Z"/><path class="cls-2" d="M17.93,68.88a1.55,1.55,0,0,1-.4,0,.38.38,0,1,1,.07-.75,4.74,4.74,0,0,0,2.42-1,1.86,1.86,0,0,0,.74-1.23c.13-1.55-1.59-3.85-2.61-5.23l-.23-.31c-1.05-1.4-1.63-1.78-3-1.27a2.47,2.47,0,0,0-1.54,1.94.36.36,0,0,1-.41.33.37.37,0,0,1-.33-.41,3.21,3.21,0,0,1,2-2.57c1.83-.66,2.74,0,3.89,1.54l.23.31c1.16,1.55,2.91,3.9,2.75,5.73a2.49,2.49,0,0,1-1,1.74A5.63,5.63,0,0,1,17.93,68.88Z"/><path class="cls-2" d="M15.39,70.58a2.19,2.19,0,0,1-2.26-.94.36.36,0,0,1,.13-.51.37.37,0,0,1,.51.14c.07.11.73,1.08,2.39.28a1.09,1.09,0,0,0,.55-.72c.35-1.3-.59-3.66-1.4-4.86-.51-.77-2.38-3.21-4.55-2.62a2.81,2.81,0,0,0-2.11,1.91.37.37,0,0,1-.73-.15,3.52,3.52,0,0,1,2.64-2.48c2.68-.72,4.79,2,5.37,2.92.89,1.31,1.93,3.87,1.5,5.47a1.75,1.75,0,0,1-.95,1.2A3.65,3.65,0,0,1,15.39,70.58Z"/><path class="cls-2" d="M12.17,72.47a1.92,1.92,0,0,1-.71,0C9.66,72,7.91,69,7.84,68.86a.37.37,0,1,1,.64-.38c.46.79,1.92,2.92,3.16,3.22a1,1,0,0,0,.78-.11c1-.66.63-2.44-.08-3.88-1.09-2.2-2.84-4.71-5-4.1s-5.17,7-6.19,9.47a.37.37,0,1,1-.69-.29c.39-.93,3.9-9.12,6.68-9.9,1.48-.41,3.69,0,5.88,4.49,1.09,2.21,1,4.06-.19,4.84A1.79,1.79,0,0,1,12.17,72.47Z"/><path class="cls-8" d="M6.38,68.9a.75.75,0,0,1,.49,0,.52.52,0,0,1,.3.3l1.67,4.93a.58.58,0,0,1-.44.7.75.75,0,0,1-.49,0,.52.52,0,0,1-.3-.3L5.93,69.6A.6.6,0,0,1,6.38,68.9Z"/><path class="cls-8" d="M1.69,71.81,6.43,70.2l1.22,3.59L2.91,75.4a2.15,2.15,0,0,1-2.83-1c0-.06,0-.12,0-.18A1.77,1.77,0,0,1,.3,72.87,2.66,2.66,0,0,1,1.69,71.81Z"/><polygon class="cls-4" points="15.19 96.35 10.3 81.73 22.3 74.79 30.65 88.86 15.19 96.35"/><path class="cls-3" d="M54.74,71.16C54.17,72.22,42.4,98.91,42.4,98.91L29.67,81.18,10,85.45s13.91,49.39,28.38,46.07,22.5-14.61,22.5-14.61Z"/><path class="cls-2" d="M55.46,126.44l.25,11.67h.71l-.25-11.78a.34.34,0,0,0-.05-.17c0-.07-4.62-8-4.27-11.67s3.9-13.87,3.94-14a.36.36,0,0,0-.22-.45.35.35,0,0,0-.44.22c-.15.41-3.63,10.29-4,14.13S55,125.54,55.46,126.44Z"/><path class="cls-5" d="M55.73,97.44,44.72,68,40,69.79,51,99.21a2.52,2.52,0,1,0,4.72-1.77Z"/><path class="cls-9" d="M54,99.93a1.71,1.71,0,0,1-2.21-1L44.2,78.61,48.36,80,55,97.73a1.73,1.73,0,0,1-1,2.2Z"/><rect class="cls-10" x="40.02" y="68.87" width="5.05" height="1.06" transform="translate(-21.63 19.32) rotate(-20.52)"/><path class="cls-11" d="M44.91,68.39l-4.78,1.79a.67.67,0,0,1-.85-.39.66.66,0,0,1,.39-.84l4.78-1.79a.66.66,0,0,1,.84.38A.67.67,0,0,1,44.91,68.39Z"/><path class="cls-4" d="M71.5,92.56s-5.06-1.82-6-3-8.13-13.37-10.42-12.8-12.42,3.82-12.7,5.54-1.15,11.09.76,13.09,2.48.1,2.48.1A2.79,2.79,0,0,0,48,97.33c1.72,0,1.34-1.72,1.34-1.72s1,1.91,2.48,1.53S53,94.75,53,94.75,56,99.44,59.85,101s6.21,2.68,6.21,2.68Z"/><path class="cls-2" d="M53.47,90.06a.36.36,0,0,0,0-.52.38.38,0,0,0-.53,0L52,90.65a.35.35,0,0,0-.05.08h0a.43.43,0,0,0,0,.25s.64,2.61.76,3.41a3.94,3.94,0,0,1,0,1,1.64,1.64,0,0,1-1,1.4l-.1,0h0a.71.71,0,0,1-.26,0,1.11,1.11,0,0,1-.5-.14,2.08,2.08,0,0,1-.46-.37,4,4,0,0,1-.66-.88v0c-.34-1-1-3.11-1.42-4.69A6.11,6.11,0,0,1,48,89.15,3.27,3.27,0,0,1,48.57,88c.21-.32.46-.66.73-1s.41-.5.62-.74h0c.47-.55,1-1.07,1.37-1.47a.37.37,0,0,0,0-.53.35.35,0,0,0-.53,0c-.12.12-.6.6-1.17,1.24h0c-.2.21-.41.46-.61.71s-.53.67-.77,1a7.45,7.45,0,0,0-.74,1.26,2.09,2.09,0,0,0-.19.66c-.13,1.35,1.33,5.57,1.68,6.55h0c0,.06,0,.1,0,.13s.14.27.34.56h0l.11.15h0s0,0,0,0h0a2.52,2.52,0,0,0,1.83,1.13h0l.24,0h0a1.8,1.8,0,0,0,.43-.14,2.38,2.38,0,0,0,1.44-2.09,3.63,3.63,0,0,0,0-.66c0-.14,0-.29,0-.45s0-.2-.06-.32,0,0,0,0c-.13-.67-.38-1.76-.55-2.46h0c0-.2-.08-.36-.11-.48l.23-.26Z"/><path class="cls-2" d="M54.21,91.83h-.09l-1.72-.43a.37.37,0,0,1-.27-.45.38.38,0,0,1,.45-.28l1.72.43a.38.38,0,0,1,.27.46A.36.36,0,0,1,54.21,91.83Z"/><path class="cls-2" d="M47.65,97.77c-1.31,0-2.32-2-2.37-2.08a.42.42,0,0,1,0-.15c0-.25-.43-6.3-.38-8.48,0-2.33,4.18-5.11,4.66-5.42a.37.37,0,0,1,.41.62c-1.19.79-4.29,3.17-4.32,4.81,0,2,.32,7.62.37,8.35.3.55,1.16,1.85,1.89,1.56a1.77,1.77,0,0,0,1.1-1.4.38.38,0,0,1,.4-.34.37.37,0,0,1,.34.4,2.47,2.47,0,0,1-1.57,2A1.25,1.25,0,0,1,47.65,97.77Z"/><path class="cls-2" d="M44.47,96.8h0a2.21,2.21,0,0,1-1.67-1.2c-.4-.74-.12-10.64.35-12.32.57-2,4.8-3.23,5.28-3.36a.37.37,0,0,1,.2.72c-1.2.33-4.37,1.49-4.76,2.85-.51,1.8-.62,11.09-.4,11.78.16.3.61.78,1,.78h0c.35,0,.64-.39.82-.71a.37.37,0,0,1,.5-.15.38.38,0,0,1,.15.51A1.74,1.74,0,0,1,44.47,96.8Z"/><path class="cls-4" d="M68.65,21.85a64.14,64.14,0,0,0-.25,9.87c.13,3.75.35,7.49.37,11.24a9.86,9.86,0,0,0,9.4,9.81l4.21.28v.09l-.27,4.4L82,59.17l-.45,7.31s1.22,1.71,4.84,2.72a16.55,16.55,0,0,0,12.46-1.62l7.81-4.37L105.3,45.7c6.14-.5,10.49-6.12,8-11.4-1.65-3.47-4.79-3-7.11-2.09A20,20,0,0,0,73.69,9.69C70.56,13.06,69.2,17.36,68.65,21.85Z"/><path class="cls-2" d="M79.59,34.63a1.88,1.88,0,0,1-1.7-1.58,4.36,4.36,0,0,1,.35-2.28,53.92,53.92,0,0,1,2.36-5.6.36.36,0,0,1,.5-.17.38.38,0,0,1,.17.5A54.55,54.55,0,0,0,79,31a3.59,3.59,0,0,0-.32,1.89c.09.51.55,1,1.05,1a.38.38,0,0,1,.42.33.39.39,0,0,1-.33.42Z"/><path class="cls-12" d="M82.11,57.54c11.27-.56,14.35-5.15,14.35-5.15a57.88,57.88,0,0,1-14.08.75Z"/><path class="cls-2" d="M105,42.37h0a.29.29,0,0,0,.26-.31,10.52,10.52,0,0,1,1.31-6.17,7,7,0,0,1,2.23-2.5,4.17,4.17,0,0,1,3.13-.65.28.28,0,0,0,.34-.22.28.28,0,0,0-.21-.34,4.77,4.77,0,0,0-3.58.73,7.58,7.58,0,0,0-2.41,2.69,11.12,11.12,0,0,0-1.38,6.51A.28.28,0,0,0,105,42.37Z"/><path class="cls-2" d="M113.3,34.68a3.38,3.38,0,0,0-1.89-1.91,6.37,6.37,0,0,0-2.71-.41,8.36,8.36,0,0,0-4.79,1.43c-1.4-2.06-.82-4.89-1.74-7.21-1.2-3-4.56-4.44-7-6.63-3.41-3.11-4.39-7.92-4-12.52a1.27,1.27,0,0,1,.6-.81c1.46-1.09,3.29-1.73,4.49-3.1,3.21.76,6.2,1.19,9.42,2a27.46,27.46,0,0,1,5.11,1.57,9.33,9.33,0,0,1,4.1,3.34,10.63,10.63,0,0,1,1.29,3.46,23.09,23.09,0,0,1,.1,9.33,45.13,45.13,0,0,1-1.37,5C114.34,30.21,114,32.62,113.3,34.68Z"/><path class="cls-2" d="M95.87,9.2A7.18,7.18,0,0,0,90,9.51a52.65,52.65,0,0,0-5.19,3.1,24.51,24.51,0,0,1-9,3.2c-2.38.34-5,.07-6.77-1.61a13.7,13.7,0,0,0,2.76-2.33A8.48,8.48,0,0,1,63.17,10c-.37-.35-.53-.94-.86-1.33a14.64,14.64,0,0,1,4.56-3.4A40.78,40.78,0,0,1,81.94.14,22.26,22.26,0,0,1,97.19,3.76,14.59,14.59,0,0,1,95.87,9.2Z"/><polygon class="cls-13" points="109.75 62.88 102.24 78.03 97.29 82.99 84.14 96.18 80.72 78.81 79.52 72.66 75.74 75.49 81.98 57.02 88.22 63.64 106.44 53.96 109.75 62.88"/><path class="cls-2" d="M102.11,79.05a.42.42,0,0,1-.28-.12L88.21,64.17,76,75.76a.37.37,0,0,1-.52-.54L88,63.37a.35.35,0,0,1,.27-.1.34.34,0,0,1,.26.12L102,78l7.4-15.3a.38.38,0,0,1,.5-.17.37.37,0,0,1,.18.5l-7.64,15.79a.37.37,0,0,1-.29.21Z"/><path class="cls-2" d="M82,130.24a1.15,1.15,0,0,1,0,.19.66.66,0,0,1,0,.14v.52l-.08,3.65-.61,20.78h-.76l.67-23.41,0-1.28v-.08c0-.21,0-.42,0-.63s0-.14,0-.2a7.84,7.84,0,0,1,.26-1.74c0-.11.09-.22.14-.22.16-.21.29.68.31,1.84C82,129.93,82,130.08,82,130.24Z"/><path class="cls-3" d="M133.54,106c-.61,6.29-1.5,13.83-2.63,23-2.82,3.89-6.19,7.58-9.88,9.7l-.08.05-.27.15a13.15,13.15,0,0,1-4,1.46,12.63,12.63,0,0,1-3,.14h0c-.49,0-1-.07-1.54-.14-5.81-.67-14.14-3.44-22.37-6.69l-.11,0c-2.87-1.13-5.74-2.33-8.48-3.51l-.49-.22c-10.88-4.71-19.77-9.21-19.77-9.21l4.42-17.35,3.06-12,.16-.65,6.58,2.85h0L110,108.61l.74-1.84.27-.69,8.35-20.78Z"/><path class="cls-2" d="M111.41,106.22l-.39-.14-2.24-.84-.52-.19L84.1,96l-.83-.3L68.67,90.3a.39.39,0,0,0-.3,0,.38.38,0,0,0-.19.24l-.15.58h0l-3.12,12-4.43,17.11a.37.37,0,0,0,.18.43l1.41.74c.08-.24.17-.48.27-.71l-1.07-.56,4.34-16.7,3.11-12,.08-.31,6.32,2.36h0l35.61,13.26.4.15a.38.38,0,0,0,.48-.22A.37.37,0,0,0,111.41,106.22Z"/><path class="cls-2" d="M111.09,142.05a18.87,18.87,0,0,1-7.85-1.71L60.72,120.77a.44.44,0,0,1-.22-.58h0a.45.45,0,0,1,.59-.21l42.52,19.56A18,18,0,0,0,124,135.72l4.2-4.34a.44.44,0,0,1,.62,0h0a.44.44,0,0,1,0,.62l-4.2,4.34A18.82,18.82,0,0,1,111.09,142.05Z"/><path class="cls-2" d="M108.6,105.29a.32.32,0,0,1-.16,0,.38.38,0,0,1-.17-.5L115,90.86a.38.38,0,0,1,.5-.17.37.37,0,0,1,.17.5l-6.75,13.89A.38.38,0,0,1,108.6,105.29Z"/><path class="cls-2" d="M84.78,96.18a.4.4,0,0,1-.22-.08.36.36,0,0,1-.07-.52c9.37-12.45,31.16-15.42,35.86-15.92l-10.77-9a.38.38,0,0,1-.12-.42.4.4,0,0,1,.36-.24h15.66a.37.37,0,0,1,.38.37.38.38,0,0,1-.38.38H110.85l10.67,8.89a.38.38,0,0,1,.12.4.37.37,0,0,1-.33.26c-.26,0-25.94,2.06-36.23,15.71A.36.36,0,0,1,84.78,96.18Z"/></g></g></g></svg>