<svg xmlns="http://www.w3.org/2000/svg" viewBox="0 0 87.69 59.79"><defs><style>.cls-1{fill:#d4e6f9;}.cls-2{fill:#a5bbe2;}.cls-3{fill:#fff;}.cls-4{fill:#00abff;}.cls-5{fill:#ff30a2;}.cls-6{fill:#ffbf6c;}.cls-7{fill:#00b8c9;}.cls-8{fill:#004393;}.cls-9{fill:#742397;}.cls-10{fill:#00c4ff;}</style></defs><g id="Layer_2" data-name="Layer 2"><g id="Layer_1-2" data-name="Layer 1"><rect id="rect25392" class="cls-1" y="21.78" width="87.69" height="38.01" rx="5.79"/><path id="rect25394" class="cls-2" d="M5.78,24.7A2.79,2.79,0,0,0,2.9,27.56V54a2.82,2.82,0,0,0,2.88,2.89H81.89A2.82,2.82,0,0,0,84.78,54V27.56a2.79,2.79,0,0,0-2.89-2.86Z"/><rect id="rect25335" class="cls-1" x="3.07" width="81.56" height="50.07" rx="4.76"/><path id="rect25339" class="cls-3" d="M7.82,2.44A2.25,2.25,0,0,0,5.49,4.75V45.33a2.25,2.25,0,0,0,2.33,2.3H79.87a2.25,2.25,0,0,0,2.33-2.3V4.75a2.25,2.25,0,0,0-2.33-2.31Z"/><rect id="rect25337" class="cls-4" x="53.48" y="7.02" width="26.62" height="23.86" rx="1.84"/><rect id="rect25364" class="cls-4" x="8.79" y="38.28" width="41.32" height="5.73"/><path id="circle25368" class="cls-5" d="M11.88,28.69a2.43,2.43,0,1,1-2.43,2.42A2.42,2.42,0,0,1,11.88,28.69Z"/><path id="circle25370" class="cls-6" d="M19.92,28.69a2.43,2.43,0,1,1-2.43,2.42A2.42,2.42,0,0,1,19.92,28.69Z"/><path id="circle25372" class="cls-7" d="M28,28.69a2.43,2.43,0,1,1-2.43,2.42A2.42,2.42,0,0,1,28,28.69Z"/><path id="circle25374" class="cls-6" d="M36,28.69a2.43,2.43,0,1,1-2.43,2.42A2.42,2.42,0,0,1,36,28.69Z"/><path id="path25366" class="cls-5" d="M44.06,28.69a2.43,2.43,0,1,1-2.43,2.42A2.42,2.42,0,0,1,44.06,28.69Z"/><rect id="rect25378" class="cls-8" x="9.02" y="17.56" width="2.18" height="5.41"/><rect id="rect25380" class="cls-8" x="14.91" y="17.56" width="2.18" height="5.41"/><rect id="rect25382" class="cls-8" x="20.8" y="17.56" width="2.18" height="5.41"/><rect id="rect25384" class="cls-8" x="26.69" y="17.56" width="2.18" height="5.41"/><rect id="rect25386" class="cls-8" x="32.58" y="17.56" width="2.18" height="5.41"/><rect id="rect25388" class="cls-8" x="38.48" y="17.56" width="2.18" height="5.41"/><rect id="rect25376" class="cls-8" x="44.37" y="17.56" width="2.18" height="5.41"/><path id="path25390" class="cls-9" d="M43.31,6.41A3.61,3.61,0,1,1,39.71,10,3.61,3.61,0,0,1,43.31,6.41Z"/><path id="path30456" class="cls-10" d="M58.32,7l-4.84,8.66v11L64.05,7ZM70.81,7,56.43,30.89h10L78.35,7H70.81Zm9.29,8.61L72,30.89h3.32L80.1,22Z"/><path id="path31145" class="cls-10" d="M14.46,38.28,11.57,44h8.85l4-5.74Zm19.75,0L30.63,44h6.14l3.7-5.74Z"/></g></g></svg>