<svg xmlns="http://www.w3.org/2000/svg" viewBox="0 0 120.5 34.27"><defs><style>.cls-1{fill:#fff;}.cls-2{fill:#1a3c7a;}</style></defs><g id="Layer_2" data-name="Layer 2"><g id="Layer_1-2" data-name="Layer 1"><rect class="cls-1" width="120.5" height="34.27" rx="16.96"/><path class="cls-2" d="M21.73,15.86l-.11-1.71.28,0h.23A1.85,1.85,0,0,0,23,14a.89.89,0,0,0,.41-.5,2.67,2.67,0,0,0,.12-.88V7.22h1.86v5.46a4.52,4.52,0,0,1-.3,1.76,2.28,2.28,0,0,1-.95,1.1,3.32,3.32,0,0,1-1.68.38l-.28,0Z"/><path class="cls-2" d="M30.25,16a4.37,4.37,0,0,1-1.5-.24,3.11,3.11,0,0,1-1.11-.67A3,3,0,0,1,27,14a4.2,4.2,0,0,1-.24-1.47A4.69,4.69,0,0,1,26.94,11a3.32,3.32,0,0,1,.66-1.18,3.09,3.09,0,0,1,1.08-.77,3.63,3.63,0,0,1,1.44-.27A3.59,3.59,0,0,1,31.51,9a2.63,2.63,0,0,1,1,.76A3.11,3.11,0,0,1,33.12,11a5.46,5.46,0,0,1,.14,1.67l-5.34.06v-1l4.26,0-.66.52a2.25,2.25,0,0,0-.09-1.13,1.33,1.33,0,0,0-.53-.65,1.5,1.5,0,0,0-.75-.2,1.44,1.44,0,0,0-.87.26,1.65,1.65,0,0,0-.59.76,3.26,3.26,0,0,0-.2,1.19A2.35,2.35,0,0,0,29,14.08a1.69,1.69,0,0,0,1.28.51,1.89,1.89,0,0,0,.62-.09,1.31,1.31,0,0,0,.41-.26,1.28,1.28,0,0,0,.26-.35,3.89,3.89,0,0,0,.16-.38l1.62.34a3.22,3.22,0,0,1-.34.87,2.34,2.34,0,0,1-.6.66,2.85,2.85,0,0,1-.91.43A4.37,4.37,0,0,1,30.25,16Z"/><path class="cls-2" d="M37.15,15.93a2.15,2.15,0,0,1-1.68-.6,2.87,2.87,0,0,1-.54-1.93v-3h-1L34,9h.69a1.16,1.16,0,0,0,.59-.12.56.56,0,0,0,.24-.43l.17-1h1.06V9h1.72v1.51H36.72v2.84a.9.9,0,0,0,.22.68.94.94,0,0,0,.67.21,1.86,1.86,0,0,0,.48-.06,1,1,0,0,0,.39-.17v1.74a3.88,3.88,0,0,1-.74.17A4.38,4.38,0,0,1,37.15,15.93Z"/><path class="cls-2" d="M39.53,15.77V14.21L43,10.64v-.18H39.6V9h5.82v1.54l-3.54,3.58v.18h3.56v1.5Z"/><path class="cls-2" d="M49.42,15.93a2.11,2.11,0,0,1-1.67-.6,2.87,2.87,0,0,1-.54-1.93v-3h-1l0-1.46h.68a1.17,1.17,0,0,0,.6-.12.53.53,0,0,0,.23-.43l.17-1H49V9h1.72v1.51H49v2.84a.9.9,0,0,0,.22.68.93.93,0,0,0,.67.21,1.84,1.84,0,0,0,.47-.06,1,1,0,0,0,.4-.17v1.74a3.88,3.88,0,0,1-.74.17A4.41,4.41,0,0,1,49.42,15.93Z"/><path class="cls-2" d="M55.12,15.77V7.22H57v8.55Z"/><path class="cls-2" d="M58.82,15.77V9h1.53v2h.26a3.85,3.85,0,0,1,.48-1.23A2.12,2.12,0,0,1,61.86,9,2.48,2.48,0,0,1,63,8.79a2.08,2.08,0,0,1,1.79.83,4.38,4.38,0,0,1,.62,2.6v3.55H63.52V12.43a3.05,3.05,0,0,0-.32-1.59,1,1,0,0,0-.93-.5,1.24,1.24,0,0,0-.87.33,2,2,0,0,0-.52.84,3.94,3.94,0,0,0-.19,1.18v3.08Z"/><path class="cls-2" d="M69.73,16a5.93,5.93,0,0,1-1.25-.13,3.5,3.5,0,0,1-1-.38,2.18,2.18,0,0,1-.65-.59,1.94,1.94,0,0,1-.32-.77L68,13.51a1.1,1.1,0,0,0,.28.53,1.78,1.78,0,0,0,.63.39,2.67,2.67,0,0,0,1,.15,2,2,0,0,0,.92-.17.56.56,0,0,0,.33-.5.46.46,0,0,0-.18-.39,1.54,1.54,0,0,0-.53-.25,8.56,8.56,0,0,0-.85-.19l-1-.25a4.4,4.4,0,0,1-.92-.36,1.93,1.93,0,0,1-.68-.62,1.65,1.65,0,0,1-.27-1A1.79,1.79,0,0,1,67,9.78a2.2,2.2,0,0,1,1-.73,4.12,4.12,0,0,1,1.58-.26A4.39,4.39,0,0,1,71.06,9a2.71,2.71,0,0,1,1,.65,2.22,2.22,0,0,1,.55,1l-1.52.5a1,1,0,0,0-.25-.54,1.15,1.15,0,0,0-.53-.35,2.32,2.32,0,0,0-.78-.12,1.69,1.69,0,0,0-.86.18.54.54,0,0,0-.3.48.46.46,0,0,0,.2.4,1.54,1.54,0,0,0,.56.26l.86.2c.34.07.68.15,1,.24a4.46,4.46,0,0,1,.89.35,1.78,1.78,0,0,1,.63.59,1.73,1.73,0,0,1,.23.93A1.88,1.88,0,0,1,72.44,15a2.45,2.45,0,0,1-1,.75A4.78,4.78,0,0,1,69.73,16Z"/><path class="cls-2" d="M77.29,16a4.29,4.29,0,0,1-1.5-.24,3,3,0,0,1-1.11-.67A3,3,0,0,1,74,14a4.2,4.2,0,0,1-.24-1.47A4.69,4.69,0,0,1,74,11a3.33,3.33,0,0,1,.67-1.18,2.92,2.92,0,0,1,1.08-.77,3.63,3.63,0,0,1,1.44-.27A3.54,3.54,0,0,1,78.54,9a2.49,2.49,0,0,1,1,.76,3.26,3.26,0,0,1,.6,1.24,5.48,5.48,0,0,1,.13,1.67L75,12.77v-1l4.27,0-.66.52a2.25,2.25,0,0,0-.09-1.13,1.39,1.39,0,0,0-.53-.65,1.51,1.51,0,0,0-.76-.2,1.44,1.44,0,0,0-.87.26,1.63,1.63,0,0,0-.58.76,3.05,3.05,0,0,0-.21,1.19A2.3,2.3,0,0,0,76,14.08a1.68,1.68,0,0,0,1.28.51,1.82,1.82,0,0,0,.61-.09,1.25,1.25,0,0,0,.42-.26,1.52,1.52,0,0,0,.26-.35c.06-.13.11-.26.16-.38l1.62.34a2.94,2.94,0,0,1-.35.87,2.34,2.34,0,0,1-.6.66,2.89,2.89,0,0,1-.9.43A4.48,4.48,0,0,1,77.29,16Z"/><path class="cls-2" d="M81.65,15.77V9H83.2v2.32h.25a4.83,4.83,0,0,1,.35-1.42,1.75,1.75,0,0,1,.71-.8,2.28,2.28,0,0,1,1.13-.26h.25a2.14,2.14,0,0,1,.32,0l-.08,2a1.44,1.44,0,0,0-.43-.13,2.1,2.1,0,0,0-.41,0,1.61,1.61,0,0,0-.87.23,1.76,1.76,0,0,0-.59.67,3.32,3.32,0,0,0-.31,1.06v3.13Z"/><path class="cls-2" d="M88.77,16a2.18,2.18,0,0,1-1-.23,1.69,1.69,0,0,1-.69-.66A2.13,2.13,0,0,1,86.83,14a1.88,1.88,0,0,1,.21-.93,1.55,1.55,0,0,1,.63-.61,4,4,0,0,1,1-.39,10.56,10.56,0,0,1,1.38-.27l.68-.13a.79.79,0,0,0,.4-.19.58.58,0,0,0,.13-.4.85.85,0,0,0-.26-.62,1.14,1.14,0,0,0-.82-.26,1.93,1.93,0,0,0-.69.13,1.63,1.63,0,0,0-.55.39,1.58,1.58,0,0,0-.33.66L87,10.89a2.71,2.71,0,0,1,.44-.92,2.79,2.79,0,0,1,.71-.66,2.88,2.88,0,0,1,.95-.39,4.66,4.66,0,0,1,1.15-.13,3.64,3.64,0,0,1,1.63.31,2,2,0,0,1,.94,1,4,4,0,0,1,.31,1.72V13c0,.31,0,.61,0,.92s0,.63,0,.94,0,.63.07.94H91.63c0-.21-.07-.46-.1-.74s-.06-.57-.07-.85h-.24a2.74,2.74,0,0,1-.52.89,2.39,2.39,0,0,1-.82.65A2.45,2.45,0,0,1,88.77,16Zm.79-1.35a1.47,1.47,0,0,0,.5-.09,2.17,2.17,0,0,0,.5-.26,2.08,2.08,0,0,0,.44-.41,2.29,2.29,0,0,0,.33-.55l0-1.09.3.06a1.88,1.88,0,0,1-.55.27,6,6,0,0,1-.64.15l-.65.11a3.66,3.66,0,0,0-.58.17,1,1,0,0,0-.4.28.74.74,0,0,0-.15.49.8.8,0,0,0,.26.63A1,1,0,0,0,89.56,14.61Z"/><path class="cls-2" d="M97.29,15.93a2.15,2.15,0,0,1-1.68-.6,2.87,2.87,0,0,1-.54-1.93v-3h-1l0-1.46h.69a1.17,1.17,0,0,0,.6-.12.55.55,0,0,0,.23-.43l.17-1h1.06V9h1.73v1.51H96.86v2.84a.94.94,0,0,0,.22.68,1,1,0,0,0,.68.21,1.84,1.84,0,0,0,.47-.06,1.1,1.1,0,0,0,.4-.17v1.74a4.06,4.06,0,0,1-.74.17A4.62,4.62,0,0,1,97.29,15.93Z"/><path class="cls-2" d="M39.68,29.85v-9h1.54l0,1.89h.23a3.12,3.12,0,0,1,.41-1.15,1.83,1.83,0,0,1,.76-.7,2.31,2.31,0,0,1,1.07-.23,2.73,2.73,0,0,1,1.56.44,2.86,2.86,0,0,1,1,1.26,5.52,5.52,0,0,1,0,3.73,2.74,2.74,0,0,1-.92,1.27,2.5,2.5,0,0,1-1.54.47,2.32,2.32,0,0,1-1.1-.25,2.09,2.09,0,0,1-.73-.69,4.23,4.23,0,0,1-.49-1.07h-.25l.15.71c0,.24.07.48.1.71a5,5,0,0,1,0,.66v1.92Zm3.5-3.49a1.22,1.22,0,0,0,.79-.25,1.7,1.7,0,0,0,.5-.73,3,3,0,0,0,.18-1.06,2.8,2.8,0,0,0-.19-1.11,1.62,1.62,0,0,0-.51-.72,1.33,1.33,0,0,0-.81-.26,1.36,1.36,0,0,0-.71.18,1.53,1.53,0,0,0-.5.48,2.18,2.18,0,0,0-.29.64,2.61,2.61,0,0,0-.09.66v.24a2.22,2.22,0,0,0,.06.51,2,2,0,0,0,.21.52,2.61,2.61,0,0,0,.34.46,1.6,1.6,0,0,0,.45.32A1.32,1.32,0,0,0,43.18,26.36Z"/><path class="cls-2" d="M48,27.67v-6.8H49.5v2.32h.24a4.8,4.8,0,0,1,.36-1.42,1.69,1.69,0,0,1,.71-.8A2.28,2.28,0,0,1,52,20.71h.25a2.31,2.31,0,0,1,.32,0l-.08,2a1.44,1.44,0,0,0-.43-.13,2.17,2.17,0,0,0-.41,0,1.61,1.61,0,0,0-.87.23,1.68,1.68,0,0,0-.59.67,3.08,3.08,0,0,0-.31,1.06v3.13Z"/><path class="cls-2" d="M55.9,27.86a2.11,2.11,0,0,1-1.8-.81,4.16,4.16,0,0,1-.6-2.47V20.87h1.87v3.47a2.92,2.92,0,0,0,.3,1.49,1,1,0,0,0,.9.48,1.12,1.12,0,0,0,.64-.18,1.62,1.62,0,0,0,.47-.5,2.8,2.8,0,0,0,.29-.77,5.5,5.5,0,0,0,.11-.95v-3H60v6.8H58.44V25.55h-.24a4.94,4.94,0,0,1-.48,1.31,1.87,1.87,0,0,1-.74.76A2.25,2.25,0,0,1,55.9,27.86Zm-.54-8.11a1.21,1.21,0,0,1-.67-.17.72.72,0,0,1-.26-.63.75.75,0,0,1,.25-.62,1.12,1.12,0,0,1,.68-.19,1.17,1.17,0,0,1,.66.19.72.72,0,0,1,.26.62.71.71,0,0,1-.26.62A1.12,1.12,0,0,1,55.36,19.75Zm2.67,0a1.13,1.13,0,0,1-.67-.18.71.71,0,0,1-.25-.62.72.72,0,0,1,.25-.62,1.26,1.26,0,0,1,1.33,0,.74.74,0,0,1,.24.62.72.72,0,0,1-.25.63A1.18,1.18,0,0,1,58,19.75Z"/><path class="cls-2" d="M62.17,27.67V23.32H61.1V21.94l1.81.08v-.25a1.63,1.63,0,0,1-.74-.33,1.18,1.18,0,0,1-.42-.55,1.72,1.72,0,0,1-.13-.68,1.63,1.63,0,0,1,.28-1,2,2,0,0,1,.81-.64,3,3,0,0,1,1.22-.22,3.71,3.71,0,0,1,1.08.15,2.58,2.58,0,0,1,.78.37l-.11,1.68a2.9,2.9,0,0,0-.7-.36,2.05,2.05,0,0,0-.74-.14,1,1,0,0,0-.65.2.87.87,0,0,0-.25.68.88.88,0,0,0,.14.51.69.69,0,0,0,.34.27,1.15,1.15,0,0,0,.39.11h1.56v1.47H64v4.35Z"/><path class="cls-2" d="M70,27.86a4.37,4.37,0,0,1-1.5-.24A3.11,3.11,0,0,1,67.37,27a3,3,0,0,1-.69-1.09,4.2,4.2,0,0,1-.24-1.47,4.69,4.69,0,0,1,.23-1.48,3.4,3.4,0,0,1,.66-1.18A3.09,3.09,0,0,1,68.41,21a3.63,3.63,0,0,1,1.44-.27,3.59,3.59,0,0,1,1.39.25,2.63,2.63,0,0,1,1,.76,3.11,3.11,0,0,1,.59,1.24A5.46,5.46,0,0,1,73,24.61l-5.34.06v-1l4.26,0-.66.52A2.25,2.25,0,0,0,71.16,23a1.33,1.33,0,0,0-.53-.65,1.48,1.48,0,0,0-.75-.2,1.44,1.44,0,0,0-.87.26,1.65,1.65,0,0,0-.59.76,3.26,3.26,0,0,0-.2,1.19A2.35,2.35,0,0,0,68.7,26a1.69,1.69,0,0,0,1.28.51,1.89,1.89,0,0,0,.62-.09,1.31,1.31,0,0,0,.41-.26,1.1,1.1,0,0,0,.26-.35,3.89,3.89,0,0,0,.16-.38l1.62.35a3.29,3.29,0,0,1-.34.86,2.34,2.34,0,0,1-.6.66,2.69,2.69,0,0,1-.9.43A4.5,4.5,0,0,1,70,27.86Z"/><path class="cls-2" d="M74.35,27.67v-6.8h1.53v2h.26a4.1,4.1,0,0,1,.47-1.23,2.07,2.07,0,0,1,.79-.74,2.46,2.46,0,0,1,1.12-.24,2.08,2.08,0,0,1,1.8.83,4.39,4.39,0,0,1,.61,2.6v3.55H79V24.33a3,3,0,0,0-.32-1.59,1,1,0,0,0-.92-.5,1.21,1.21,0,0,0-.87.33,2,2,0,0,0-.53.85,3.83,3.83,0,0,0-.18,1.17v3.08Z"/></g></g></svg>