<svg xmlns="http://www.w3.org/2000/svg" viewBox="0 0 72.45 12.75"><defs><style>.cls-1{fill:#fff;}</style></defs><g id="Layer_2" data-name="Layer 2"><g id="Layer_1-2" data-name="Layer 1"><path class="cls-1" d="M6.1,2.83h.76l-3,7.09H3L0,2.83H.76L3.43,9.18Z"/><path class="cls-1" d="M11.05,2.68a3.2,3.2,0,0,1,2.53,1.1,3.88,3.88,0,0,1,1,2.62s0,.1,0,.17,0,.13,0,.17H8.12a2.84,2.84,0,0,0,1,1.92,3,3,0,0,0,2,.73A3.09,3.09,0,0,0,12.61,9a2.48,2.48,0,0,0,1-.94l.62.37A3.18,3.18,0,0,1,13,9.64a3.84,3.84,0,0,1-1.84.43A3.66,3.66,0,0,1,8.43,9a3.58,3.58,0,0,1-1-2.66,3.64,3.64,0,0,1,1-2.64A3.52,3.52,0,0,1,11.05,2.68Zm0,.68a2.85,2.85,0,0,0-2,.75,2.88,2.88,0,0,0-.92,1.94h5.69a2.92,2.92,0,0,0-.9-2A2.68,2.68,0,0,0,11.05,3.36Z"/><path class="cls-1" d="M19.45,2.68a2.61,2.61,0,0,1,2,.77,2.82,2.82,0,0,1,.75,2.06V9.92h-.73V5.51a2.22,2.22,0,0,0-.54-1.57,2,2,0,0,0-1.54-.58,2.35,2.35,0,0,0-1.78.72,2.88,2.88,0,0,0-.7,2.1V9.92H16.2V0h.71V4.18A2.64,2.64,0,0,1,19.45,2.68Z"/><path class="cls-1" d="M24.94,1a.57.57,0,0,1-.39.16.59.59,0,0,1-.4-.16A.57.57,0,0,1,24,.55a.54.54,0,0,1,.17-.39.55.55,0,0,1,.4-.16.53.53,0,0,1,.39.16.5.5,0,0,1,.17.39A.53.53,0,0,1,24.94,1Zm-.75,9V2.83h.71V9.92Z"/><path class="cls-1" d="M33.33,2.83H34v9.92h-.71V8.27a3.29,3.29,0,0,1-1.24,1.32,3.45,3.45,0,0,1-1.81.48,3.64,3.64,0,0,1-3.66-3.7,3.55,3.55,0,0,1,1.06-2.62,3.52,3.52,0,0,1,2.6-1.07,3.45,3.45,0,0,1,1.81.48,3.29,3.29,0,0,1,1.24,1.32ZM28.19,8.51a2.91,2.91,0,0,0,2.14.88,2.87,2.87,0,0,0,2.13-.88,2.92,2.92,0,0,0,.87-2.14,2.9,2.9,0,0,0-.87-2.13,2.87,2.87,0,0,0-2.13-.88,3,3,0,0,0-3,3A2.92,2.92,0,0,0,28.19,8.51Z"/><path class="cls-1" d="M39.46,10.07A3.62,3.62,0,0,1,36.82,9a3.55,3.55,0,0,1-1.08-2.63,3.53,3.53,0,0,1,1.08-2.62,3.78,3.78,0,0,1,5.27,0,3.53,3.53,0,0,1,1.08,2.62A3.55,3.55,0,0,1,42.09,9,3.61,3.61,0,0,1,39.46,10.07ZM37.33,8.51a3,3,0,0,0,4.26,0,3,3,0,0,0,.86-2.14,2.93,2.93,0,0,0-.86-2.13,3,3,0,0,0-4.26,0,2.9,2.9,0,0,0-.87,2.13A2.92,2.92,0,0,0,37.33,8.51Z"/><path class="cls-1" d="M45.19,9.87a.62.62,0,0,1-.46.19.58.58,0,0,1-.45-.19.63.63,0,0,1,0-.9.58.58,0,0,1,.45-.19.62.62,0,0,1,.46.19.65.65,0,0,1,0,.9Z"/><path class="cls-1" d="M53,2.83h.72V9.92H53V8.31A3.3,3.3,0,0,1,51.74,9.6a3.37,3.37,0,0,1-1.79.47,3.65,3.65,0,0,1-3.67-3.7,3.52,3.52,0,0,1,1.07-2.62A3.52,3.52,0,0,1,50,2.68a3.36,3.36,0,0,1,3,1.75ZM47.87,8.51a3,3,0,0,0,4.26,0A3,3,0,0,0,53,6.37a2.93,2.93,0,0,0-.86-2.13,3,3,0,0,0-4.26,0A2.9,2.9,0,0,0,47,6.37,2.92,2.92,0,0,0,47.87,8.51Z"/><path class="cls-1" d="M59.65,2.68a3.52,3.52,0,0,1,2.6,1.07,3.56,3.56,0,0,1,1.07,2.62,3.65,3.65,0,0,1-3.67,3.7,3.47,3.47,0,0,1-1.81-.48A3.29,3.29,0,0,1,56.6,8.27v4.48h-.71V2.83h.71V4.48a3.29,3.29,0,0,1,1.24-1.32A3.47,3.47,0,0,1,59.65,2.68ZM57.47,8.51a3,3,0,0,0,4.27,0,2.92,2.92,0,0,0,.87-2.14,2.9,2.9,0,0,0-.87-2.13,3,3,0,0,0-4.27,0,2.9,2.9,0,0,0-.87,2.13A2.92,2.92,0,0,0,57.47,8.51Z"/><path class="cls-1" d="M68.78,2.68a3.51,3.51,0,0,1,2.6,1.07,3.52,3.52,0,0,1,1.07,2.62,3.65,3.65,0,0,1-3.67,3.7A3.41,3.41,0,0,1,67,9.59a3.22,3.22,0,0,1-1.24-1.32v4.48H65V2.83h.71V4.48A3.22,3.22,0,0,1,67,3.16,3.41,3.41,0,0,1,68.78,2.68ZM66.61,8.51a3,3,0,0,0,4.26,0,2.92,2.92,0,0,0,.87-2.14,2.9,2.9,0,0,0-.87-2.13,3,3,0,0,0-4.26,0,2.9,2.9,0,0,0-.87,2.13A2.92,2.92,0,0,0,66.61,8.51Z"/></g></g></svg>