<svg xmlns="http://www.w3.org/2000/svg" viewBox="0 0 125.94 85.87"><defs><style>.cls-1{fill:#d4e6f9;}.cls-2{fill:#a5bbe2;}.cls-3{fill:#fff;}.cls-4{fill:#00abff;}.cls-5{fill:#ff30a2;}.cls-6{fill:#ffbf6c;}.cls-7{fill:#00b8c9;}.cls-8{fill:#004393;}.cls-9{fill:#742397;}.cls-10{fill:#00c4ff;}</style></defs><g id="Layer_2" data-name="Layer 2"><g id="Layer_1-2" data-name="Layer 1"><rect id="rect25392" class="cls-1" y="31.28" width="125.94" height="54.59" rx="8.31"/><path id="rect25394" class="cls-2" d="M8.3,35.47a4,4,0,0,0-4.14,4.12v38A4.05,4.05,0,0,0,8.3,81.71H117.62a4.05,4.05,0,0,0,4.14-4.15v-38a4,4,0,0,0-4.14-4.12Z"/><rect id="rect25335" class="cls-1" x="4.4" width="117.14" height="71.92" rx="6.83"/><path id="rect25339" class="cls-3" d="M11.23,3.5A3.24,3.24,0,0,0,7.89,6.82V65.1a3.24,3.24,0,0,0,3.34,3.31H114.71a3.24,3.24,0,0,0,3.35-3.31V6.82a3.25,3.25,0,0,0-3.35-3.32Z"/><rect id="rect25337" class="cls-4" x="76.81" y="10.09" width="38.23" height="34.27" rx="2.64"/><rect id="rect25364" class="cls-4" x="12.62" y="54.99" width="59.35" height="8.23"/><path id="circle25368" class="cls-5" d="M17.06,41.2a3.49,3.49,0,1,1-3.49,3.49A3.48,3.48,0,0,1,17.06,41.2Z"/><path id="circle25370" class="cls-6" d="M28.61,41.2a3.49,3.49,0,1,1-3.48,3.49A3.49,3.49,0,0,1,28.61,41.2Z"/><path id="circle25372" class="cls-7" d="M40.17,41.2a3.49,3.49,0,1,1-3.49,3.49A3.49,3.49,0,0,1,40.17,41.2Z"/><path id="circle25374" class="cls-6" d="M51.73,41.2a3.49,3.49,0,1,1-3.49,3.49A3.48,3.48,0,0,1,51.73,41.2Z"/><path id="path25366" class="cls-5" d="M63.28,41.2a3.49,3.49,0,1,1-3.48,3.49A3.49,3.49,0,0,1,63.28,41.2Z"/><rect id="rect25378" class="cls-8" x="12.95" y="25.22" width="3.13" height="7.77"/><rect id="rect25380" class="cls-8" x="21.41" y="25.22" width="3.13" height="7.77"/><rect id="rect25382" class="cls-8" x="29.87" y="25.22" width="3.13" height="7.77"/><rect id="rect25384" class="cls-8" x="38.33" y="25.22" width="3.13" height="7.77"/><rect id="rect25386" class="cls-8" x="46.8" y="25.22" width="3.13" height="7.77"/><rect id="rect25388" class="cls-8" x="55.26" y="25.22" width="3.13" height="7.77"/><rect id="rect25376" class="cls-8" x="63.72" y="25.22" width="3.13" height="7.77"/><path id="path25390" class="cls-9" d="M62.21,9.21A5.18,5.18,0,1,1,57,14.39,5.18,5.18,0,0,1,62.21,9.21Z"/><path id="path30456" class="cls-10" d="M83.76,10.09,76.82,22.52V38.25L92,10.09Zm17.94,0L81.05,44.36H95.44l17.09-34.27H101.7ZM115,22.45l-11.6,21.91h4.77L115,31.54Z"/><path id="path31145" class="cls-10" d="M20.77,55l-4.15,8.23H29.33L35,55Zm28.36,0L44,63.22h8.82L58.13,55Z"/></g></g></svg>