<?xml version="1.0" encoding="UTF-8"?><svg id="Layer_2" xmlns="http://www.w3.org/2000/svg" viewBox="0 0 54.16 13.81"><defs><style>.cls-1{fill:#007bee;}.cls-2{fill:#fff;}</style></defs><g id="Layer_1-2"><rect class="cls-2" x="0" y="0" width="54.16" height="13.81" rx="3.48" ry="3.48"/><path class="cls-1" d="M7.03,7.79c-.1.17-.23.39-.23.59,0,.29.15.44.67.44h1.81c1.12,0,1.73.45,1.73,1.29,0,1.06-1.04,1.87-3.08,1.87-1.57,0-2.48-.5-2.48-1.2,0-.53.51-.82,1.05-.95-.4-.12-.67-.38-.67-.81,0-.51.44-1,.96-1.36-.57-.35-.91-.94-.91-1.65,0-1.19.95-2.03,2.33-2.03.36,0,.68.06.97.16l.28-1.35,1.25.43-1.05,1.16c.55.36.88.94.88,1.64,0,1.19-.94,2.02-2.32,2.02-.44,0-.84-.08-1.18-.24ZM9.85,10.27c0-.3-.24-.43-.74-.43h-2.34c-.13.13-.27.31-.27.51,0,.42.46.66,1.49.66,1.21,0,1.86-.27,1.86-.74ZM9.31,6.01c0-.7-.49-1.1-1.1-1.1s-1.1.39-1.1,1.1.48,1.1,1.1,1.1,1.1-.39,1.1-1.1Z"/><path class="cls-1" d="M11.44,6.91c0-1.77,1.1-2.93,2.68-2.93,1.69,0,2.62,1.12,2.62,2.68,0,.21-.02.45-.05.57h-4.02c.07,1,.66,1.55,1.55,1.55.98,0,1.42-.51,1.63-.98l.8.83c-.43.65-1.19,1.21-2.44,1.21-1.67,0-2.77-1.17-2.77-2.92ZM12.69,6.39h2.89c-.09-.89-.6-1.38-1.46-1.38-.8,0-1.33.46-1.43,1.38Z"/><path class="cls-1" d="M18.12,8.18v-3.08h-.88v-1h.88v-.68l1.29-.82v1.5h1.72v1h-1.72v2.77c0,.61.29.76.67.76.44,0,.76-.36.92-.68l.4,1.16c-.24.36-.8.74-1.62.74-1.06,0-1.67-.67-1.67-1.66Z"/><path class="cls-1" d="M24.59,8.01v-3.92h1.29v3.52c0,.69.23,1.17,1.1,1.17.95,0,1.27-.61,1.27-1.54v-3.15h1.3v5.62h-1.3v-1.54c-.21.89-.79,1.65-1.91,1.65s-1.76-.66-1.76-1.83Z"/><path class="cls-1" d="M30.91,11.87v-7.77h1.29v1.5c.18-.88.68-1.63,1.8-1.63,1.36,0,2.24,1.12,2.24,2.93s-.88,2.93-2.26,2.93c-1.12,0-1.59-.75-1.78-1.62v3.65h-1.29ZM33.5,8.78c.81,0,1.42-.61,1.42-1.88s-.61-1.88-1.42-1.88c-.91,0-1.29.61-1.29,1.54v.69c0,.92.38,1.54,1.29,1.54Z"/><path class="cls-1" d="M40.08,8.18v-3.08h-.88v-1h.88v-.68l1.29-.82v1.5h1.72v1h-1.72v2.77c0,.61.29.76.67.76.44,0,.76-.36.92-.68l.4,1.16c-.24.36-.8.74-1.62.74-1.06,0-1.67-.67-1.67-1.66Z"/><path class="cls-1" d="M43.52,6.91c0-1.76,1.11-2.93,2.73-2.93s2.75,1.18,2.75,2.93-1.11,2.92-2.75,2.92-2.73-1.18-2.73-2.92ZM47.68,6.91c0-1.31-.58-1.86-1.42-1.86s-1.41.55-1.41,1.86.58,1.85,1.41,1.85,1.42-.55,1.42-1.85Z"/></g></svg>