<svg xmlns="http://www.w3.org/2000/svg" viewBox="0 0 112 20.08"><defs><style>.cls-1{fill:#cf9597;}.cls-2{fill:#f8f2ed;}</style></defs><g id="Layer_2" data-name="Layer 2"><g id="Layer_1-2" data-name="Layer 1"><rect class="cls-1" width="112" height="20.08" rx="10.04"/><path class="cls-2" d="M9.85,8.21c-.91,0-1.52.7-1.52,1.94s.59,1.94,1.53,1.94a1.2,1.2,0,0,0,1.36-1.2H9.94v-1h2.48v.75A2.39,2.39,0,0,1,9.86,13.2a2.74,2.74,0,0,1-2.81-3A2.77,2.77,0,0,1,9.83,7.1a2.42,2.42,0,0,1,2.54,2H11.09A1.2,1.2,0,0,0,9.85,8.21Z"/><path class="cls-2" d="M13.37,7.18h2.34a1.88,1.88,0,0,1,2.13,1.94,1.71,1.71,0,0,1-1.05,1.69l1.26,2.31H16.67L15.54,11h-.91v2.1H13.37ZM15.48,10c.72,0,1.07-.3,1.07-.89s-.35-.91-1.08-.91h-.84V10Z"/><path class="cls-2" d="M18.41,13.12l2.05-5.94h1.62l2.05,5.94H22.78l-.44-1.35H20.2l-.44,1.35ZM22,10.79l-.74-2.25h0l-.73,2.25Z"/><path class="cls-2" d="M23.89,7.18h4.87v1H27v4.9H25.71V8.22H23.89Z"/><path class="cls-2" d="M30.83,13.12H29.58V7.18h1.25Z"/><path class="cls-2" d="M34.08,8.15c-.62,0-1,.28-1,.67s.42.61.94.73l.53.13c1,.23,1.78.76,1.78,1.75s-.85,1.78-2.3,1.78-2.36-.67-2.39-2h1.21c0,.59.51.89,1.16.89s1.05-.29,1.06-.73-.37-.58-1-.74l-.65-.16c-1-.24-1.62-.74-1.62-1.62,0-1.08,1-1.8,2.25-1.8s2.2.73,2.21,1.79h-1.2C35,8.43,34.67,8.15,34.08,8.15Z"/><path class="cls-2" d="M39.11,7.18h2.35a1.93,1.93,0,0,1,2.12,2,1.94,1.94,0,0,1-2.15,2H40.37v1.92H39.11Zm2.11,3a.94.94,0,0,0,1.07-1,.93.93,0,0,0-1.07-1h-.85v2Z"/><path class="cls-2" d="M44.41,7.18h2.34a1.88,1.88,0,0,1,2.13,1.94,1.72,1.72,0,0,1-1.05,1.69l1.26,2.31H47.7L46.58,11h-.92v2.1H44.41ZM46.52,10c.71,0,1.06-.3,1.06-.89s-.35-.91-1.07-.91h-.85V10Z"/><path class="cls-2" d="M52.45,13.2a2.75,2.75,0,0,1-2.78-3,2.79,2.79,0,1,1,5.56,0A2.76,2.76,0,0,1,52.45,13.2Zm0-5c-.92,0-1.51.68-1.51,1.94s.59,1.94,1.51,1.94,1.5-.68,1.5-1.94S53.36,8.21,52.45,8.21Z"/><path class="cls-2" d="M56.16,7.18h4v1H57.41V9.63H60v1H57.41v1.42h2.76v1h-4Z"/><path class="cls-2" d="M61.16,7.18H65.1v1H62.42V9.63h2.42v1H62.42v2.45H61.16Z"/><path class="cls-2" d="M65.72,7.18h4.87v1H68.78v4.9H67.54V8.22H65.72Z"/><path class="cls-2" d="M71.41,7.18h2.34a1.88,1.88,0,0,1,2.13,1.94,1.72,1.72,0,0,1-1,1.69l1.26,2.31H74.7L73.58,11h-.92v2.1H71.41ZM73.51,10c.72,0,1.07-.3,1.07-.89s-.35-.91-1.07-.91h-.85V10Z"/><path class="cls-2" d="M76.45,13.12l2-5.94h1.61l2,5.94H80.82l-.44-1.35H78.23l-.44,1.35Zm3.61-2.33-.73-2.25h0l-.73,2.25Z"/><path class="cls-2" d="M84.13,13.12H82.88V7.18h1.25Z"/><path class="cls-2" d="M90.14,13.12H89.05L86.47,9.38h0v3.74H85.17V7.18h1.1l2.57,3.74h0V7.18h1.25Z"/><path class="cls-2" d="M92.43,13.12H91.18V7.18h1.25Z"/><path class="cls-2" d="M98.44,13.12H97.35L94.77,9.38h0v3.74H93.47V7.18h1.1l2.57,3.74h0V7.18h1.25Z"/><path class="cls-2" d="M102.17,8.21c-.91,0-1.52.7-1.52,1.94s.59,1.94,1.53,1.94a1.2,1.2,0,0,0,1.36-1.2h-1.28v-1h2.49v.75a2.39,2.39,0,0,1-2.57,2.51,2.74,2.74,0,0,1-2.81-3,2.77,2.77,0,0,1,2.78-3.06,2.42,2.42,0,0,1,2.54,2h-1.28A1.19,1.19,0,0,0,102.17,8.21Z"/></g></g></svg>