<svg xmlns="http://www.w3.org/2000/svg" viewBox="0 0 140.4 48.76"><g id="Layer_2" data-name="Layer 2"><g id="Layer_1-2" data-name="Layer 1"><path d="M10.12,1.86A12.44,12.44,0,0,1,16,3.18,9.89,9.89,0,0,1,19.9,6.87a10.74,10.74,0,0,1,1.4,5.55A10.76,10.76,0,0,1,19.9,18,9.8,9.8,0,0,1,16,21.67,12.44,12.44,0,0,1,10.12,23H.83V1.86Zm-4.52,19L3.27,18.29h7.2a6.49,6.49,0,0,0,3.17-.74,5.17,5.17,0,0,0,2.08-2,6.2,6.2,0,0,0,.74-3.09,6.14,6.14,0,0,0-.74-3.09,5.15,5.15,0,0,0-2.08-2,6.49,6.49,0,0,0-3.17-.74H3.27L5.6,4Z"/><path d="M32,23.44a9.88,9.88,0,0,1-4.63-1.07,8,8,0,0,1-3.21-3A8.49,8.49,0,0,1,23,14.9a8.5,8.5,0,0,1,1.11-4.39,7.93,7.93,0,0,1,3.09-3,9.18,9.18,0,0,1,4.45-1.07A7.55,7.55,0,0,1,36,7.72a7.9,7.9,0,0,1,2.81,3.49,13.12,13.12,0,0,1,1,5.3h-13v-3.3H37.26l-1.7,1.19A5.27,5.27,0,0,0,35,12.16a3.46,3.46,0,0,0-3.24-1.9,4,4,0,0,0-2.1.53,3.77,3.77,0,0,0-1.39,1.49,4.92,4.92,0,0,0-.49,2.23,5.41,5.41,0,0,0,.65,2.73A4.17,4.17,0,0,0,30.29,19a6.85,6.85,0,0,0,3,.59,11.14,11.14,0,0,0,3.25-.49,10.3,10.3,0,0,0,2.91-1.39v3.4a11,11,0,0,1-3.36,1.75A13,13,0,0,1,32,23.44Z"/><path d="M58.49,17.83a4.92,4.92,0,0,1-1,3.06,5.79,5.79,0,0,1-2.78,1.9,13.17,13.17,0,0,1-4.44.65,13.55,13.55,0,0,1-4.67-.73,7.32,7.32,0,0,1-3.12-2.06,5,5,0,0,1-1.19-3.07h4.79a2.45,2.45,0,0,0,.73,1.24,3.46,3.46,0,0,0,1.48.8,7.68,7.68,0,0,0,2.16.27A6.37,6.37,0,0,0,53,19.5a1.28,1.28,0,0,0,.87-1.19,1,1,0,0,0-.63-.9A7.19,7.19,0,0,0,51.05,17l-2.63-.22a12.12,12.12,0,0,1-4-.88,4.48,4.48,0,0,1-2.09-1.72,4.39,4.39,0,0,1-.62-2.33,4.4,4.4,0,0,1,1-3,6.06,6.06,0,0,1,2.78-1.78,13.27,13.27,0,0,1,4.15-.59,12.18,12.18,0,0,1,4.25.7,7.59,7.59,0,0,1,3,2A4.87,4.87,0,0,1,58.21,12h-4.8a2,2,0,0,0-.54-1,3.2,3.2,0,0,0-1.27-.78,6.65,6.65,0,0,0-2.14-.29,5.73,5.73,0,0,0-2.29.36,1.16,1.16,0,0,0-.78,1.07,1,1,0,0,0,.48.85,4.48,4.48,0,0,0,1.83.45l3.42.28a12.16,12.16,0,0,1,3.82.86,4.13,4.13,0,0,1,2,1.65A4.71,4.71,0,0,1,58.49,17.83Z"/><path d="M63.18,5.24a2.88,2.88,0,0,1-2-.72,2.47,2.47,0,0,1-.79-1.9A2.47,2.47,0,0,1,61.15.7a2.91,2.91,0,0,1,2-.7,2.88,2.88,0,0,1,2,.7A2.51,2.51,0,0,1,66,2.62a2.51,2.51,0,0,1-.76,1.9A2.85,2.85,0,0,1,63.18,5.24ZM60.82,6.71l2.33.53,2.36-.53V23H60.82Z"/><path d="M74.9,21.41a7.06,7.06,0,0,1-3.63-.93,6.61,6.61,0,0,1-2.51-2.6A8.09,8.09,0,0,1,67.84,14,8,8,0,0,1,68.76,10a6.57,6.57,0,0,1,2.51-2.61,7.06,7.06,0,0,1,3.63-.93A7.26,7.26,0,0,1,77.69,7a8.27,8.27,0,0,1,2.25,1.37,9.66,9.66,0,0,1,1.68,1.84,9.34,9.34,0,0,1,1,2A5.63,5.63,0,0,1,83,14a5.79,5.79,0,0,1-.56,2.33,8.92,8.92,0,0,1-1.61,2.43,8.62,8.62,0,0,1-2.55,1.91A7.57,7.57,0,0,1,74.9,21.41ZM81.29,19V16.23l.15-.65V11.86l-.15-.59V6.93H86V18.71a9.88,9.88,0,0,1-1.23,5.08A8.07,8.07,0,0,1,81.36,27a12.15,12.15,0,0,1-8.76.52,13.1,13.1,0,0,1-3.33-1.73v-4a10,10,0,0,0,3.25,1.87,10.71,10.71,0,0,0,3.47.58A5.58,5.58,0,0,0,79.92,23,5.25,5.25,0,0,0,81.29,19Zm-4.82-1.18a4.54,4.54,0,0,0,2.81-.93A7.46,7.46,0,0,0,81.44,14,7.28,7.28,0,0,0,79.27,11a4.6,4.6,0,0,0-2.8-.93,4.22,4.22,0,0,0-2.07.48,3.24,3.24,0,0,0-1.34,1.33,4.17,4.17,0,0,0-.47,2A4.26,4.26,0,0,0,73,16a3.26,3.26,0,0,0,1.34,1.34A4.27,4.27,0,0,0,76.47,17.78Z"/><path d="M88.29,6.93H93l.94,6.26V23H89.2V12.4Zm11-.45a6.52,6.52,0,0,1,3.54.92,5.87,5.87,0,0,1,2.23,2.6,9.56,9.56,0,0,1,.78,4v9h-4.72V14.82a4.55,4.55,0,0,0-.89-3,3.19,3.19,0,0,0-2.54-1,3.67,3.67,0,0,0-2,.55,3.59,3.59,0,0,0-1.32,1.55,5.61,5.61,0,0,0-.47,2.38l-1.5-.87a11.34,11.34,0,0,1,1.26-4.31A7.15,7.15,0,0,1,96.11,7.4,5.91,5.91,0,0,1,99.32,6.48Z"/><path d="M117,23.44a9.88,9.88,0,0,1-4.63-1.07,8,8,0,0,1-3.21-3A8.4,8.4,0,0,1,108,14.9a8.5,8.5,0,0,1,1.11-4.39,7.9,7.9,0,0,1,3.08-3,9.22,9.22,0,0,1,4.46-1.07A7.55,7.55,0,0,1,121,7.72a8,8,0,0,1,2.81,3.49,13.12,13.12,0,0,1,1,5.3h-13v-3.3h10.45l-1.7,1.19a5.27,5.27,0,0,0-.57-2.24,3.46,3.46,0,0,0-3.24-1.9,4,4,0,0,0-2.1.53,3.7,3.7,0,0,0-1.39,1.49,4.79,4.79,0,0,0-.49,2.23,5.41,5.41,0,0,0,.65,2.73A4.17,4.17,0,0,0,115.26,19a6.82,6.82,0,0,0,3,.59,11.14,11.14,0,0,0,3.25-.49,10.3,10.3,0,0,0,2.91-1.39v3.4a11,11,0,0,1-3.36,1.75A13.09,13.09,0,0,1,117,23.44Z"/><path d="M126.44,6.93h4.76l.87,5.78V23h-4.72V12.28ZM139,6.71v4.5a13.46,13.46,0,0,0-1.36-.25,9.25,9.25,0,0,0-1.23-.08,4.48,4.48,0,0,0-2.2.54,3.83,3.83,0,0,0-1.54,1.74,7.1,7.1,0,0,0-.57,3.07l-.94-1.3a21.42,21.42,0,0,1,.58-3.24A10.07,10.07,0,0,1,132.83,9a5.55,5.55,0,0,1,1.76-1.84,4.62,4.62,0,0,1,2.55-.68,7.31,7.31,0,0,1,.91.06A5.35,5.35,0,0,1,139,6.71Z"/><path d="M22.37,39.31a10.61,10.61,0,0,1-1.75,4.95,10.08,10.08,0,0,1-3.87,3.32,12.13,12.13,0,0,1-5.45,1.18,12,12,0,0,1-5.94-1.42,10,10,0,0,1-3.95-4A12.08,12.08,0,0,1,0,37.43a12.08,12.08,0,0,1,1.41-5.94,10,10,0,0,1,4-4A12,12,0,0,1,11.3,26.1a12.13,12.13,0,0,1,5.45,1.18,10.14,10.14,0,0,1,3.87,3.31,10.53,10.53,0,0,1,1.75,4.95h-5A5.85,5.85,0,0,0,16.35,33a5.27,5.27,0,0,0-2.09-1.61,7.52,7.52,0,0,0-3-.56,6.63,6.63,0,0,0-3.36.8,5.4,5.4,0,0,0-2.17,2.27,8.49,8.49,0,0,0,0,7,5.4,5.4,0,0,0,2.17,2.27,6.74,6.74,0,0,0,3.36.8,7.52,7.52,0,0,0,3-.55,5.08,5.08,0,0,0,2.09-1.6,5.77,5.77,0,0,0,1.06-2.55Z"/><path d="M31.13,48.73a6.42,6.42,0,0,1-3.55-.94,6,6,0,0,1-2.23-2.68A10.17,10.17,0,0,1,24.58,41V31.78h4.86v8.43a4.74,4.74,0,0,0,.86,3.07,3,3,0,0,0,2.48,1.08,3.64,3.64,0,0,0,2-.55,3.51,3.51,0,0,0,1.29-1.6,6,6,0,0,0,.46-2.46l1.51.9a11.5,11.5,0,0,1-1.24,4.42,7.15,7.15,0,0,1-2.45,2.74A5.94,5.94,0,0,1,31.13,48.73Zm6.37-.43-.94-6.44V31.78h4.86v10.9l.93,5.62Z"/><path d="M44.08,31.78H49l.89,5.94V48.3H45v-11ZM57,31.54v4.64c-.47-.11-.94-.2-1.4-.26a9.81,9.81,0,0,0-1.26-.09,4.49,4.49,0,0,0-2.26.57,3.92,3.92,0,0,0-1.59,1.78,7.33,7.33,0,0,0-.59,3.16L48.9,40a23.49,23.49,0,0,1,.6-3.33,10.72,10.72,0,0,1,1.15-2.77A5.72,5.72,0,0,1,52.47,32a4.68,4.68,0,0,1,2.62-.7,7.91,7.91,0,0,1,.94.06A8.73,8.73,0,0,1,57,31.54Z"/><path d="M57.62,35.78V33.43l3.08-1.25,2.09-4.81h2.76v4.41H72v4H65.55v5.45a3.85,3.85,0,0,0,.68,2.59,3.22,3.22,0,0,0,2.43.74,7.75,7.75,0,0,0,2-.22,7.84,7.84,0,0,0,1.6-.59v4.09a12.62,12.62,0,0,1-4.67.92,8,8,0,0,1-3.9-.84,5.11,5.11,0,0,1-2.24-2.36A8.29,8.29,0,0,1,60.7,42v-6.2Z"/><path d="M88.8,40a13.26,13.26,0,0,1-1.48,4.59,8.55,8.55,0,0,1-2.77,3,7.19,7.19,0,0,1-7.61,0,7.36,7.36,0,0,1-2.59-3.06A10.35,10.35,0,0,1,73.41,40a10.42,10.42,0,0,1,.94-4.57,7.49,7.49,0,0,1,2.59-3.06,7.16,7.16,0,0,1,7.61,0,8.6,8.6,0,0,1,2.78,3A12.57,12.57,0,0,1,88.8,40ZM78.31,40a5.39,5.39,0,0,0,.5,2.36A4,4,0,0,0,80.18,44a3.49,3.49,0,0,0,2,.6,4.26,4.26,0,0,0,2.18-.6A6,6,0,0,0,86.2,42.4,7.25,7.25,0,0,0,87.37,40a7.15,7.15,0,0,0-1.17-2.36,6.22,6.22,0,0,0-1.82-1.63,4.35,4.35,0,0,0-2.18-.59,3.55,3.55,0,0,0-2,.59,4.07,4.07,0,0,0-1.37,1.63A5.35,5.35,0,0,0,78.31,40ZM87.6,48.3l-.65-6L87.66,40,87,37.81l.65-6h5L91.73,40l.91,8.26Z"/><path d="M97.81,30a3,3,0,0,1-2.09-.74,2.79,2.79,0,0,1,0-3.93,3,3,0,0,1,2.09-.72,3,3,0,0,1,2.09.72,2.87,2.87,0,0,1,0,3.93A3,3,0,0,1,97.81,30Zm-2.43,1.5,2.4.56,2.43-.56V48.3H95.38Z"/><path d="M102.64,31.78h4.82l1,6.43V48.3h-4.85V37.4ZM114,31.31a6.8,6.8,0,0,1,3.64.94,6.06,6.06,0,0,1,2.29,2.69,9.74,9.74,0,0,1,.8,4.14V48.3h-4.85V39.89a4.62,4.62,0,0,0-.92-3.11,3.25,3.25,0,0,0-2.61-1.06,3.58,3.58,0,0,0-3.43,2.16,5.73,5.73,0,0,0-.48,2.45l-1.54-.9A11.61,11.61,0,0,1,108.18,35a7.51,7.51,0,0,1,2.51-2.74A6.15,6.15,0,0,1,114,31.31Z"/><path d="M140.4,43a5.07,5.07,0,0,1-1,3.14,6,6,0,0,1-2.86,2,13.84,13.84,0,0,1-4.57.66,14.06,14.06,0,0,1-4.8-.75A7.44,7.44,0,0,1,124,45.89a5.11,5.11,0,0,1-1.22-3.16h4.93a2.4,2.4,0,0,0,.74,1.28,3.74,3.74,0,0,0,1.53.83,8,8,0,0,0,2.22.27,6.57,6.57,0,0,0,2.61-.4,1.3,1.3,0,0,0,.88-1.22,1,1,0,0,0-.64-.93,6.9,6.9,0,0,0-2.28-.46L130,41.86A12.14,12.14,0,0,1,126,41a4.77,4.77,0,0,1-2.16-1.77,4.69,4.69,0,0,1-.64-2.41,4.57,4.57,0,0,1,1-3,6.27,6.27,0,0,1,2.86-1.83,13.76,13.76,0,0,1,4.28-.61,12.13,12.13,0,0,1,4.37.73,7.74,7.74,0,0,1,3.08,2,4.93,4.93,0,0,1,1.32,3h-4.93a2.18,2.18,0,0,0-.56-1.07,3.33,3.33,0,0,0-1.31-.8,6.71,6.71,0,0,0-2.2-.3,5.76,5.76,0,0,0-2.35.38,1.18,1.18,0,0,0-.81,1.1,1,1,0,0,0,.49.87,4.93,4.93,0,0,0,1.88.46l3.53.29a12.29,12.29,0,0,1,3.92.89,4.3,4.3,0,0,1,2,1.69A4.89,4.89,0,0,1,140.4,43Z"/></g></g></svg>