<svg xmlns="http://www.w3.org/2000/svg" viewBox="0 0 30.3 30.3"><defs><style>.cls-1{fill:#1a3c7a;}.cls-2{fill:#fff;}</style></defs><g id="Layer_2" data-name="Layer 2"><g id="Layer_1-2" data-name="Layer 1"><path class="cls-1" d="M15.15,29.3A14.15,14.15,0,1,1,29.3,15.15,14.17,14.17,0,0,1,15.15,29.3Z"/><path class="cls-2" d="M15.15,2A13.15,13.15,0,0,1,28.3,15.15h0a13.15,13.15,0,0,1-26.3,0H2A13.15,13.15,0,0,1,15.15,2m0-2A15.15,15.15,0,1,0,30.3,15.15,15.17,15.17,0,0,0,15.15,0Z"/><path class="cls-2" d="M11.36,19.85a.7.7,0,0,1-.52-.22.74.74,0,0,1,0-1.05L17,12.42H12.11a.75.75,0,0,1-.75-.74.76.76,0,0,1,.75-.75H18.8a.88.88,0,0,1,.28.06.62.62,0,0,1,.22.15h0l0,0h0a.66.66,0,0,1,.15.22.87.87,0,0,1,.05.28h0v6.68a.74.74,0,1,1-1.48,0V13.47l-6.16,6.16A.74.74,0,0,1,11.36,19.85Z"/></g></g></svg>