<svg 
 xmlns="http://www.w3.org/2000/svg"
 xmlns:xlink="http://www.w3.org/1999/xlink"
 width="156px" height="12px">
<path fill-rule="evenodd"  fill="rgb(252, 184, 5)"
 d="M154.241,11.686 L154.241,10.318 L155.609,10.318 L155.609,11.686 L154.241,11.686 ZM152.745,4.094 C152.371,4.137 152.027,4.286 151.713,4.542 C151.425,4.766 151.209,5.034 151.065,5.346 C150.921,5.658 150.825,5.989 150.777,6.338 C150.729,6.687 150.705,7.033 150.705,7.374 L150.705,11.686 L149.529,11.686 L149.529,3.046 L150.585,3.046 L150.585,4.417 C150.637,4.324 150.691,4.232 150.753,4.146 C150.907,3.930 151.075,3.753 151.257,3.614 C151.481,3.417 151.742,3.266 152.041,3.162 C152.339,3.058 152.641,2.997 152.945,2.978 C153.249,2.959 153.526,2.982 153.777,3.046 L153.777,4.150 C153.462,4.070 153.118,4.051 152.745,4.094 ZM147.129,7.694 L146.561,7.694 L140.954,7.694 C141.000,8.624 141.242,9.360 141.685,9.898 C142.178,10.498 142.878,10.798 143.785,10.798 C144.403,10.798 144.943,10.655 145.405,10.370 C145.866,10.085 146.230,9.673 146.497,9.134 L147.593,9.558 C147.251,10.310 146.749,10.893 146.085,11.306 C145.421,11.719 144.670,11.926 143.833,11.926 C142.990,11.926 142.261,11.739 141.645,11.366 C141.029,10.993 140.550,10.467 140.209,9.790 C139.867,9.113 139.697,8.318 139.697,7.406 C139.697,6.462 139.865,5.646 140.201,4.958 C140.537,4.270 141.010,3.739 141.621,3.366 C142.231,2.993 142.953,2.806 143.785,2.806 C144.638,2.806 145.366,3.002 145.969,3.394 C146.571,3.786 147.027,4.347 147.337,5.078 C147.646,5.809 147.787,6.681 147.761,7.694 L147.129,7.694 ZM145.837,4.742 C145.375,4.171 144.702,3.886 143.817,3.886 C142.889,3.886 142.178,4.187 141.685,4.790 C141.293,5.268 141.060,5.910 140.979,6.710 L146.526,6.710 C146.444,5.869 146.216,5.211 145.837,4.742 ZM136.601,3.046 L137.777,3.046 L137.777,11.686 L136.601,11.686 L136.601,3.046 ZM136.601,0.086 L137.777,0.086 L137.777,1.406 L136.601,1.406 L136.601,0.086 ZM129.981,6.262 C130.346,6.406 130.868,6.563 131.545,6.734 C132.340,6.937 132.964,7.150 133.417,7.374 C133.870,7.598 134.193,7.862 134.385,8.166 C134.577,8.470 134.673,8.846 134.673,9.294 C134.673,10.110 134.370,10.751 133.765,11.218 C133.160,11.685 132.326,11.918 131.265,11.918 C130.252,11.918 129.418,11.699 128.765,11.262 C128.112,10.825 127.710,10.217 127.561,9.438 L128.761,9.238 C128.889,9.729 129.181,10.119 129.637,10.410 C130.093,10.701 130.657,10.846 131.329,10.846 C131.985,10.846 132.502,10.709 132.881,10.434 C133.260,10.159 133.449,9.785 133.449,9.310 C133.449,9.043 133.389,8.826 133.269,8.658 C133.149,8.490 132.905,8.334 132.537,8.190 C132.169,8.046 131.620,7.875 130.889,7.678 C130.105,7.465 129.492,7.251 129.049,7.038 C128.606,6.825 128.292,6.578 128.105,6.298 C127.918,6.018 127.825,5.675 127.825,5.270 C127.825,4.779 127.964,4.349 128.241,3.978 C128.518,3.607 128.902,3.319 129.393,3.114 C129.884,2.909 130.454,2.806 131.105,2.806 C131.756,2.806 132.338,2.911 132.853,3.122 C133.368,3.333 133.782,3.627 134.097,4.006 C134.412,4.385 134.598,4.825 134.657,5.326 L133.457,5.542 C133.377,5.035 133.125,4.634 132.701,4.338 C132.277,4.042 131.740,3.889 131.089,3.878 C130.476,3.862 129.977,3.978 129.593,4.226 C129.209,4.474 129.017,4.803 129.017,5.214 C129.017,5.443 129.086,5.639 129.225,5.802 C129.364,5.965 129.616,6.118 129.981,6.262 ZM124.913,10.254 C124.639,10.704 124.285,11.068 123.849,11.342 C123.230,11.731 122.489,11.926 121.625,11.926 C120.974,11.926 120.429,11.809 119.989,11.574 C119.549,11.339 119.220,11.027 119.001,10.638 C118.782,10.249 118.673,9.825 118.673,9.366 C118.673,8.897 118.768,8.495 118.957,8.162 C119.146,7.829 119.405,7.555 119.733,7.342 C120.061,7.129 120.441,6.966 120.873,6.854 C121.310,6.747 121.794,6.653 122.325,6.570 C122.856,6.487 123.376,6.415 123.885,6.354 C124.236,6.312 124.516,6.271 124.808,6.230 C124.795,5.479 124.632,4.912 124.313,4.534 C123.966,4.123 123.364,3.918 122.505,3.918 C121.913,3.918 121.413,4.051 121.005,4.318 C120.597,4.585 120.310,5.006 120.145,5.582 L119.001,5.246 C119.198,4.473 119.596,3.873 120.193,3.446 C120.790,3.019 121.566,2.806 122.521,2.806 C123.310,2.806 123.981,2.954 124.533,3.250 C125.085,3.546 125.476,3.974 125.705,4.534 C125.812,4.785 125.881,5.065 125.913,5.374 C125.945,5.683 125.961,5.998 125.961,6.318 L125.961,11.686 L124.913,11.686 L124.913,10.254 ZM123.941,7.366 C123.474,7.419 123.016,7.481 122.565,7.550 C122.114,7.619 121.708,7.702 121.345,7.798 C121.100,7.867 120.862,7.965 120.633,8.090 C120.404,8.215 120.216,8.382 120.069,8.590 C119.922,8.798 119.849,9.057 119.849,9.366 C119.849,9.617 119.912,9.859 120.037,10.094 C120.162,10.329 120.365,10.523 120.645,10.678 C120.925,10.833 121.297,10.910 121.761,10.910 C122.310,10.910 122.790,10.811 123.201,10.614 C123.612,10.417 123.942,10.146 124.193,9.802 C124.444,9.458 124.606,9.070 124.681,8.638 C124.745,8.361 124.780,8.055 124.785,7.722 C124.788,7.544 124.790,7.392 124.791,7.261 C124.515,7.296 124.246,7.331 123.941,7.366 ZM116.913,7.694 L116.345,7.694 L110.739,7.694 C110.785,8.624 111.027,9.360 111.469,9.898 C111.962,10.498 112.662,10.798 113.569,10.798 C114.188,10.798 114.728,10.655 115.189,10.370 C115.650,10.085 116.014,9.673 116.281,9.134 L117.377,9.558 C117.036,10.310 116.533,10.893 115.869,11.306 C115.205,11.719 114.454,11.926 113.617,11.926 C112.774,11.926 112.045,11.739 111.429,11.366 C110.813,10.993 110.334,10.467 109.993,9.790 C109.652,9.113 109.481,8.318 109.481,7.406 C109.481,6.462 109.649,5.646 109.985,4.958 C110.321,4.270 110.794,3.739 111.405,3.366 C112.016,2.993 112.737,2.806 113.569,2.806 C114.422,2.806 115.150,3.002 115.753,3.394 C116.356,3.786 116.812,4.347 117.121,5.078 C117.430,5.809 117.572,6.681 117.545,7.694 L116.913,7.694 ZM115.621,4.742 C115.160,4.171 114.486,3.886 113.601,3.886 C112.673,3.886 111.962,4.187 111.469,4.790 C111.078,5.268 110.844,5.910 110.763,6.710 L116.310,6.710 C116.229,5.869 116.001,5.211 115.621,4.742 ZM103.497,7.278 C103.497,6.798 103.452,6.357 103.361,5.954 C103.271,5.551 103.125,5.199 102.925,4.898 C102.725,4.597 102.467,4.363 102.149,4.198 C101.832,4.033 101.447,3.950 100.993,3.950 C100.577,3.950 100.211,4.022 99.893,4.166 C99.576,4.310 99.309,4.517 99.093,4.786 C98.877,5.055 98.713,5.382 98.601,5.766 C98.489,6.150 98.433,6.587 98.433,7.078 L98.433,11.686 L97.249,11.686 L97.249,3.046 L98.313,3.046 L98.313,4.247 C98.590,3.846 98.934,3.528 99.345,3.294 C99.889,2.985 100.513,2.830 101.217,2.830 C101.735,2.830 102.187,2.910 102.573,3.070 C102.960,3.230 103.288,3.446 103.557,3.718 C103.827,3.990 104.044,4.301 104.209,4.650 C104.375,4.999 104.495,5.370 104.569,5.762 C104.644,6.154 104.681,6.545 104.681,6.934 L104.681,11.686 L103.497,11.686 L103.497,7.278 ZM95.098,7.694 L94.530,7.694 L88.923,7.694 C88.969,8.624 89.211,9.360 89.654,9.898 C90.147,10.498 90.847,10.798 91.754,10.798 C92.372,10.798 92.912,10.655 93.374,10.370 C93.835,10.085 94.199,9.673 94.466,9.134 L95.562,9.558 C95.220,10.310 94.718,10.893 94.054,11.306 C93.390,11.719 92.639,11.926 91.802,11.926 C90.959,11.926 90.230,11.739 89.614,11.366 C88.998,10.993 88.519,10.467 88.178,9.790 C87.836,9.113 87.666,8.318 87.666,7.406 C87.666,6.462 87.834,5.646 88.170,4.958 C88.506,4.270 88.979,3.739 89.590,3.366 C90.200,2.993 90.922,2.806 91.754,2.806 C92.607,2.806 93.335,3.002 93.938,3.394 C94.540,3.786 94.996,4.347 95.306,5.078 C95.615,5.809 95.756,6.681 95.730,7.694 L95.098,7.694 ZM93.806,4.742 C93.344,4.171 92.671,3.886 91.786,3.886 C90.858,3.886 90.147,4.187 89.654,4.790 C89.262,5.268 89.029,5.910 88.948,6.710 L94.495,6.710 C94.413,5.869 94.185,5.211 93.806,4.742 ZM85.746,7.694 L85.178,7.694 L79.571,7.694 C79.617,8.624 79.859,9.360 80.302,9.898 C80.795,10.498 81.495,10.798 82.402,10.798 C83.020,10.798 83.560,10.655 84.022,10.370 C84.483,10.085 84.847,9.673 85.114,9.134 L86.210,9.558 C85.868,10.310 85.366,10.893 84.702,11.306 C84.038,11.719 83.287,11.926 82.450,11.926 C81.607,11.926 80.878,11.739 80.262,11.366 C79.646,10.993 79.167,10.467 78.826,9.790 C78.484,9.113 78.314,8.318 78.314,7.406 C78.314,6.462 78.482,5.646 78.818,4.958 C79.154,4.270 79.627,3.739 80.238,3.366 C80.848,2.993 81.570,2.806 82.402,2.806 C83.255,2.806 83.983,3.002 84.586,3.394 C85.188,3.786 85.644,4.347 85.954,5.078 C86.263,5.809 86.404,6.681 86.378,7.694 L85.746,7.694 ZM84.454,4.742 C83.992,4.171 83.319,3.886 82.434,3.886 C81.506,3.886 80.795,4.187 80.302,4.790 C79.910,5.268 79.677,5.910 79.596,6.710 L85.143,6.710 C85.061,5.869 84.833,5.211 84.454,4.742 ZM75.266,11.322 C74.695,11.725 74.007,11.926 73.202,11.926 C72.407,11.926 71.735,11.725 71.186,11.322 C70.869,11.090 70.598,10.808 70.370,10.480 L70.370,11.686 L69.314,11.686 L69.314,0.166 L70.498,0.166 L70.498,4.067 C70.702,3.811 70.936,3.587 71.202,3.398 C71.756,3.003 72.439,2.806 73.250,2.806 C74.039,2.806 74.716,3.006 75.282,3.406 C75.847,3.806 76.280,4.350 76.582,5.038 C76.883,5.726 77.034,6.499 77.034,7.358 C77.034,8.222 76.882,8.998 76.578,9.686 C76.274,10.374 75.836,10.919 75.266,11.322 ZM75.490,5.598 C75.292,5.075 74.992,4.662 74.590,4.358 C74.187,4.054 73.676,3.902 73.058,3.902 C72.455,3.902 71.955,4.049 71.558,4.342 C71.160,4.635 70.863,5.042 70.666,5.562 C70.468,6.082 70.370,6.681 70.370,7.358 C70.370,8.025 70.468,8.621 70.666,9.146 C70.863,9.671 71.162,10.083 71.562,10.382 C71.962,10.681 72.468,10.830 73.082,10.830 C73.684,10.830 74.186,10.678 74.586,10.374 C74.986,10.070 75.286,9.655 75.486,9.130 C75.686,8.605 75.786,8.014 75.786,7.358 C75.786,6.707 75.687,6.121 75.490,5.598 ZM63.570,4.094 C63.197,4.137 62.853,4.286 62.538,4.542 C62.250,4.766 62.034,5.034 61.890,5.346 C61.746,5.658 61.650,5.989 61.602,6.338 C61.554,6.687 61.530,7.033 61.530,7.374 L61.530,11.686 L60.354,11.686 L60.354,3.046 L61.410,3.046 L61.410,4.417 C61.463,4.324 61.516,4.232 61.578,4.146 C61.733,3.930 61.901,3.753 62.082,3.614 C62.306,3.417 62.567,3.266 62.866,3.162 C63.165,3.058 63.466,2.997 63.770,2.978 C64.074,2.959 64.351,2.982 64.602,3.046 L64.602,4.150 C64.287,4.070 63.943,4.051 63.570,4.094 ZM57.954,7.694 L57.386,7.694 L51.780,7.694 C51.826,8.624 52.068,9.360 52.510,9.898 C53.004,10.498 53.704,10.798 54.610,10.798 C55.229,10.798 55.769,10.655 56.230,10.370 C56.692,10.085 57.056,9.673 57.322,9.134 L58.418,9.558 C58.077,10.310 57.574,10.893 56.910,11.306 C56.246,11.719 55.496,11.926 54.658,11.926 C53.816,11.926 53.086,11.739 52.470,11.366 C51.854,10.993 51.376,10.467 51.034,9.790 C50.693,9.113 50.522,8.318 50.522,7.406 C50.522,6.462 50.690,5.646 51.026,4.958 C51.362,4.270 51.836,3.739 52.446,3.366 C53.057,2.993 53.778,2.806 54.610,2.806 C55.464,2.806 56.192,3.002 56.794,3.394 C57.397,3.786 57.853,4.347 58.162,5.078 C58.472,5.809 58.613,6.681 58.586,7.694 L57.954,7.694 ZM56.662,4.742 C56.201,4.171 55.528,3.886 54.642,3.886 C53.714,3.886 53.004,4.187 52.510,4.790 C52.119,5.268 51.885,5.910 51.805,6.710 L57.352,6.710 C57.270,5.869 57.042,5.211 56.662,4.742 ZM45.530,11.686 L42.394,3.046 L43.586,3.046 L46.138,10.150 L48.674,3.046 L49.882,3.046 L46.746,11.686 L45.530,11.686 ZM41.114,7.694 L40.546,7.694 L34.940,7.694 C34.985,8.624 35.228,9.360 35.670,9.898 C36.163,10.498 36.863,10.798 37.770,10.798 C38.389,10.798 38.929,10.655 39.390,10.370 C39.851,10.085 40.215,9.673 40.482,9.134 L41.578,9.558 C41.237,10.310 40.734,10.893 40.070,11.306 C39.406,11.719 38.655,11.926 37.818,11.926 C36.975,11.926 36.246,11.739 35.630,11.366 C35.014,10.993 34.535,10.467 34.194,9.790 C33.853,9.113 33.682,8.318 33.682,7.406 C33.682,6.462 33.850,5.646 34.186,4.958 C34.522,4.270 34.995,3.739 35.606,3.366 C36.217,2.993 36.938,2.806 37.770,2.806 C38.623,2.806 39.351,3.002 39.954,3.394 C40.557,3.786 41.013,4.347 41.322,5.078 C41.631,5.809 41.773,6.681 41.746,7.694 L41.114,7.694 ZM39.822,4.742 C39.361,4.171 38.687,3.886 37.802,3.886 C36.874,3.886 36.163,4.187 35.670,4.790 C35.279,5.268 35.045,5.910 34.964,6.710 L40.511,6.710 C40.430,5.869 40.201,5.211 39.822,4.742 ZM30.954,7.278 C30.954,6.798 30.909,6.357 30.818,5.954 C30.727,5.551 30.582,5.199 30.382,4.898 C30.182,4.597 29.923,4.363 29.606,4.198 C29.289,4.033 28.903,3.950 28.450,3.950 C28.034,3.950 27.667,4.022 27.350,4.166 C27.033,4.310 26.766,4.517 26.550,4.786 C26.334,5.055 26.170,5.382 26.058,5.766 C25.946,6.150 25.890,6.587 25.890,7.078 L25.890,11.686 L24.706,11.686 L24.706,3.046 L25.770,3.046 L25.770,4.247 C26.047,3.846 26.391,3.528 26.802,3.294 C27.346,2.985 27.970,2.830 28.674,2.830 C29.191,2.830 29.643,2.910 30.030,3.070 C30.417,3.230 30.745,3.446 31.014,3.718 C31.283,3.990 31.501,4.301 31.666,4.650 C31.831,4.999 31.951,5.370 32.026,5.762 C32.101,6.154 32.138,6.545 32.138,6.934 L32.138,11.686 L30.954,11.686 L30.954,7.278 ZM15.054,6.262 C15.420,6.406 15.941,6.563 16.618,6.734 C17.413,6.937 18.037,7.150 18.490,7.374 C18.944,7.598 19.266,7.862 19.458,8.166 C19.650,8.470 19.746,8.846 19.746,9.294 C19.746,10.110 19.444,10.751 18.838,11.218 C18.233,11.685 17.400,11.918 16.338,11.918 C15.325,11.918 14.492,11.699 13.838,11.262 C13.185,10.825 12.784,10.217 12.634,9.438 L13.834,9.238 C13.962,9.729 14.254,10.119 14.710,10.410 C15.166,10.701 15.730,10.846 16.402,10.846 C17.058,10.846 17.576,10.709 17.954,10.434 C18.333,10.159 18.522,9.785 18.522,9.310 C18.522,9.043 18.462,8.826 18.342,8.658 C18.222,8.490 17.978,8.334 17.610,8.190 C17.242,8.046 16.693,7.875 15.962,7.678 C15.178,7.465 14.565,7.251 14.122,7.038 C13.680,6.825 13.365,6.578 13.178,6.298 C12.992,6.018 12.898,5.675 12.898,5.270 C12.898,4.779 13.037,4.349 13.314,3.978 C13.592,3.607 13.976,3.319 14.466,3.114 C14.957,2.909 15.528,2.806 16.178,2.806 C16.829,2.806 17.412,2.911 17.926,3.122 C18.441,3.333 18.856,3.627 19.170,4.006 C19.485,4.385 19.672,4.825 19.730,5.326 L18.530,5.542 C18.450,5.035 18.198,4.634 17.774,4.338 C17.350,4.042 16.813,3.889 16.162,3.878 C15.549,3.862 15.050,3.978 14.666,4.226 C14.282,4.474 14.090,4.803 14.090,5.214 C14.090,5.443 14.160,5.639 14.298,5.802 C14.437,5.965 14.689,6.118 15.054,6.262 ZM10.850,3.526 L10.922,2.942 C11.135,2.958 11.290,2.915 11.386,2.814 C11.482,2.713 11.541,2.577 11.562,2.406 C11.583,2.235 11.589,2.051 11.578,1.854 L10.850,1.854 L10.850,0.166 L12.218,0.166 L12.218,2.174 C12.218,2.665 12.094,3.033 11.846,3.278 C11.598,3.523 11.266,3.606 10.850,3.526 ZM7.710,11.806 C7.238,11.785 6.817,11.683 6.446,11.502 C6.075,11.321 5.794,11.038 5.602,10.654 C5.447,10.334 5.363,10.010 5.350,9.682 C5.337,9.354 5.330,8.979 5.330,8.558 L5.330,4.054 L3.482,4.054 L3.482,3.046 L5.330,3.046 L5.330,0.646 L6.498,0.646 L6.498,3.046 L9.146,3.046 L9.146,4.054 L6.498,4.054 L6.498,8.510 C6.498,8.873 6.502,9.175 6.510,9.418 C6.518,9.661 6.573,9.875 6.674,10.062 C6.866,10.419 7.171,10.633 7.590,10.702 C8.009,10.771 8.527,10.755 9.146,10.654 L9.146,11.686 C8.661,11.787 8.182,11.827 7.710,11.806 ZM0.866,0.166 L2.042,0.166 L2.042,11.686 L0.866,11.686 L0.866,0.166 Z"/>
</svg>