<svg xmlns="http://www.w3.org/2000/svg" viewBox="0 0 213.33 44.82"><defs><style>.cls-1{fill:#fff;}</style></defs><g id="Layer_2" data-name="Layer 2"><g id="Layer_1-2" data-name="Layer 1"><path class="cls-1" d="M7.79,20.76,0,2.86H4.48L11.29,18.7H8.65l6.81-15.9h4.13l-7.7,18Z"/><path class="cls-1" d="M23.05,5a2.56,2.56,0,0,1-1.8-.64,2.05,2.05,0,0,1-.69-1.58,2.12,2.12,0,0,1,.68-1.59A2.53,2.53,0,0,1,23,.56a2.64,2.64,0,0,1,1.79.6,2,2,0,0,1,.7,1.54,2.22,2.22,0,0,1-.68,1.66A2.55,2.55,0,0,1,23.05,5ZM21.1,20.72l0-13.78h4l.05,13.78Z"/><path class="cls-1" d="M33.44,20.88a13.07,13.07,0,0,1-3.39-.41,8.73,8.73,0,0,1-2.58-1l1.33-2.87A9,9,0,0,0,31,17.5a9.46,9.46,0,0,0,2.55.36,4.08,4.08,0,0,0,2-.34,1,1,0,0,0,.57-.92.78.78,0,0,0-.45-.73,4.18,4.18,0,0,0-1.19-.37l-1.63-.25a16.38,16.38,0,0,1-1.78-.34,5.8,5.8,0,0,1-1.64-.65,3.28,3.28,0,0,1-1.2-1.17,3.64,3.64,0,0,1-.45-1.92,3.71,3.71,0,0,1,.75-2.3,5,5,0,0,1,2.18-1.59,9.29,9.29,0,0,1,3.43-.58A13.51,13.51,0,0,1,37,7a8.18,8.18,0,0,1,2.44.89l-1.33,2.85a6.55,6.55,0,0,0-2-.8,9.62,9.62,0,0,0-2-.21,3.94,3.94,0,0,0-1.94.36,1.07,1.07,0,0,0-.62.93.85.85,0,0,0,.46.76,3.91,3.91,0,0,0,1.19.41c.49.1,1,.19,1.62.26a15.93,15.93,0,0,1,1.78.34,6.38,6.38,0,0,1,1.63.65,3.39,3.39,0,0,1,1.2,1.15,3.47,3.47,0,0,1,.46,1.9,3.54,3.54,0,0,1-.76,2.27A5,5,0,0,1,37,20.31,9.58,9.58,0,0,1,33.44,20.88Z"/><path class="cls-1" d="M44.35,5a2.52,2.52,0,0,1-1.79-.64,2,2,0,0,1-.7-1.58,2.09,2.09,0,0,1,.69-1.59A2.51,2.51,0,0,1,44.34.49a2.64,2.64,0,0,1,1.79.6,2,2,0,0,1,.7,1.55,2.22,2.22,0,0,1-.68,1.65A2.51,2.51,0,0,1,44.35,5Zm-1.94,15.7,0-13.78h4l0,13.78Z"/><path class="cls-1" d="M48.44,9.93V6.85l9.55,0V9.9Zm7.31,10.88A5.37,5.37,0,0,1,52,19.58a4.77,4.77,0,0,1-1.37-3.69l0-12.09h4l0,12A1.82,1.82,0,0,0,55,17.16a1.63,1.63,0,0,0,1.26.47,2.56,2.56,0,0,0,1.61-.51L59,19.93a4.32,4.32,0,0,1-1.47.66A7.4,7.4,0,0,1,55.75,20.81Z"/><path class="cls-1" d="M65,20.78a6.49,6.49,0,0,1-2.77-.54,4.22,4.22,0,0,1-1.77-1.49,3.82,3.82,0,0,1-.62-2.13,3.94,3.94,0,0,1,.59-2.15A4,4,0,0,1,62.38,13a9.41,9.41,0,0,1,3.4-.54h3.66V14.8H66.22a3,3,0,0,0-1.93.47,1.53,1.53,0,0,0,.09,2.37,2.76,2.76,0,0,0,1.65.44,3.38,3.38,0,0,0,1.79-.48A2.72,2.72,0,0,0,69,16.21l.62,1.84a3.59,3.59,0,0,1-1.58,2A5.73,5.73,0,0,1,65,20.78Zm4.2-.22V17.87L69,17.29V12.47a2.6,2.6,0,0,0-.79-2,3.44,3.44,0,0,0-2.4-.71,7,7,0,0,0-2.16.35,5.68,5.68,0,0,0-1.8.94L60.36,8.28A8.42,8.42,0,0,1,63.08,7a12.09,12.09,0,0,1,3.22-.45,7.3,7.3,0,0,1,4.9,1.47A5.79,5.79,0,0,1,73,12.69l0,7.86Z"/><path class="cls-1" d="M90.67,20.7a9,9,0,0,1-4.14-.91,6.79,6.79,0,0,1-2.76-2.51,6.88,6.88,0,0,1-1-3.65A7,7,0,0,1,83.73,10a6.73,6.73,0,0,1,2.62-2.51,7.79,7.79,0,0,1,3.76-.93,7.71,7.71,0,0,1,3.65.85,6.4,6.4,0,0,1,2.58,2.45,7.27,7.27,0,0,1,1,3.82,5.06,5.06,0,0,1,0,.53c0,.2,0,.38,0,.55L86,14.75V12.42l9.09,0-1.53.69a3.79,3.79,0,0,0-.44-1.86A3.14,3.14,0,0,0,91.94,10a3.37,3.37,0,0,0-1.79-.44,3.55,3.55,0,0,0-1.81.45,3.12,3.12,0,0,0-1.21,1.26,4,4,0,0,0-.43,1.91v.61a4,4,0,0,0,.51,2,3.19,3.19,0,0,0,1.41,1.31,4.92,4.92,0,0,0,2.14.44,5.41,5.41,0,0,0,1.93-.34,4.7,4.7,0,0,0,1.52-1l2.14,2.3A6.27,6.27,0,0,1,94,20.11,8.87,8.87,0,0,1,90.67,20.7Z"/><path class="cls-1" d="M100,20.46l-.06-19h4l.06,19Z"/><path class="cls-1" d="M113.84,20.42l3.53-17.94,7.24,0a8.1,8.1,0,0,1,5.19,1.45A5,5,0,0,1,131.64,8a7.25,7.25,0,0,1-1,3.93,6.79,6.79,0,0,1-3,2.58,11,11,0,0,1-4.65.92h-5.81l2.2-1.9L118,20.4Zm5.41-6.37-1.47-2h5.35a4.91,4.91,0,0,0,3.19-1,3.35,3.35,0,0,0,1.13-2.73,2.25,2.25,0,0,0-.88-1.93,4.14,4.14,0,0,0-2.46-.62l-5,0,2.19-2Z"/><path class="cls-1" d="M138.26,20.54a6.06,6.06,0,0,1-2.94-.72,5.52,5.52,0,0,1-2.19-2.1,6.47,6.47,0,0,1-.83-3.33,8.71,8.71,0,0,1,.57-3.2,7.46,7.46,0,0,1,1.62-2.54A7.64,7.64,0,0,1,136.92,7a7.46,7.46,0,0,1,3-.61,6.39,6.39,0,0,1,3,.63,4.08,4.08,0,0,1,1.84,2,7.19,7.19,0,0,1,.43,3.47,11.41,11.41,0,0,1-1,4.27,6.94,6.94,0,0,1-2.34,2.83A6.08,6.08,0,0,1,138.26,20.54Zm1.22-3.3a3.87,3.87,0,0,0,2.09-.59A4,4,0,0,0,143,15.06a5.05,5.05,0,0,0,.51-2.37,2.94,2.94,0,0,0-.84-2.22,3.14,3.14,0,0,0-2.32-.82,3.9,3.9,0,0,0-2.07.59,4,4,0,0,0-1.44,1.59,5.05,5.05,0,0,0-.52,2.37,3,3,0,0,0,.84,2.22A3.16,3.16,0,0,0,139.48,17.24Zm2.75,3.08.53-2.74.88-4.1.53-4.09.55-2.85h4L146,20.31Z"/><path class="cls-1" d="M149.71,20.3l3.73-19h4l-3.73,19Z"/><path class="cls-1" d="M163.64,20.46a6.22,6.22,0,0,1-2.95-.72,5.52,5.52,0,0,1-2.18-2.11,6.34,6.34,0,0,1-.83-3.32,8.51,8.51,0,0,1,.56-3.2,7.62,7.62,0,0,1,1.62-2.54,7.75,7.75,0,0,1,2.43-1.69,7.37,7.37,0,0,1,3-.61,6.38,6.38,0,0,1,2.94.63,4,4,0,0,1,1.84,2,7.05,7.05,0,0,1,.43,3.47,11.31,11.31,0,0,1-1,4.26,7,7,0,0,1-2.33,2.84A6.18,6.18,0,0,1,163.64,20.46Zm1.22-3.31a3.74,3.74,0,0,0,2.08-.58A4.08,4.08,0,0,0,168.37,15a5.11,5.11,0,0,0,.52-2.37,3.06,3.06,0,0,0-.84-2.23,3.2,3.2,0,0,0-2.32-.81,3.84,3.84,0,0,0-2.07.58,4,4,0,0,0-1.45,1.6,5.05,5.05,0,0,0-.51,2.37,2.94,2.94,0,0,0,.84,2.22A3.1,3.1,0,0,0,164.86,17.15Zm2.75,3.09.52-2.74.89-4.1.52-4.1.56-2.84h4l-2.7,13.78Z"/><path class="cls-1" d="M182.35,20.4a8.4,8.4,0,0,1-3.7-.76,5.82,5.82,0,0,1-2.45-2.14,6,6,0,0,1-.88-3.25,7.73,7.73,0,0,1,4-7,8.92,8.92,0,0,1,4.35-1.06,7.63,7.63,0,0,1,3.82.9,5.54,5.54,0,0,1,2.39,2.56l-3.38,1.7A2.89,2.89,0,0,0,185.3,10a3.65,3.65,0,0,0-1.85-.45,3.9,3.9,0,0,0-2.1.59,4.08,4.08,0,0,0-1.46,1.59,5,5,0,0,0-.53,2.34,3.08,3.08,0,0,0,.84,2.24,3.24,3.24,0,0,0,2.37.83,4.25,4.25,0,0,0,1.92-.46,3.75,3.75,0,0,0,1.46-1.4l3,1.83a6.65,6.65,0,0,1-2.69,2.45A8.63,8.63,0,0,1,182.35,20.4Z"/><path class="cls-1" d="M190.16,20.17l2.7-13.78,4,0-2.7,13.79Zm5.38-15.71a2.42,2.42,0,0,1-1.72-.6,1.93,1.93,0,0,1-.64-1.47,2.2,2.2,0,0,1,.72-1.7A2.67,2.67,0,0,1,195.81,0a2.47,2.47,0,0,1,1.71.57A1.83,1.83,0,0,1,198.17,2a2.34,2.34,0,0,1-.72,1.78A2.73,2.73,0,0,1,195.54,4.46Z"/><path class="cls-1" d="M205,20.32a8.16,8.16,0,0,1-3.67-.75A5.74,5.74,0,0,1,199,17.43a6,6,0,0,1-.87-3.25,7.71,7.71,0,0,1,4-7,8.63,8.63,0,0,1,4.29-1.06,8.07,8.07,0,0,1,3.67.75A5.76,5.76,0,0,1,212.46,9a5.94,5.94,0,0,1,.87,3.26,7.86,7.86,0,0,1-1.06,4.1,7.72,7.72,0,0,1-2.93,2.88A8.54,8.54,0,0,1,205,20.32Zm.24-3.27a3.87,3.87,0,0,0,2.09-.59,4,4,0,0,0,1.42-1.6,5.41,5.41,0,0,0,.5-2.38,2.88,2.88,0,0,0-3.13-3.07,3.84,3.84,0,0,0-2.09.59,4,4,0,0,0-1.43,1.6,5.05,5.05,0,0,0-.51,2.38,3,3,0,0,0,.82,2.24A3.12,3.12,0,0,0,205.28,17.05Z"/><path class="cls-1" d="M6.49,44.7,10,26.76l7.3,0a8.14,8.14,0,0,1,5.19,1.44,4.94,4.94,0,0,1,1.84,4.09,6.73,6.73,0,0,1-4.06,6.47,11.1,11.1,0,0,1-4.62.91l-5.84,0L12,37.84l-1.33,6.84Zm5.4-6.37-1.44-2H15.8a4.91,4.91,0,0,0,3.21-1,3.28,3.28,0,0,0,1.13-2.73,2.2,2.2,0,0,0-.88-1.93,4.23,4.23,0,0,0-2.48-.62l-5,0,2.17-2ZM18,44.66l-3.69-6.49,4.36,0,3.7,6.5Z"/><path class="cls-1" d="M32.37,44.82a8.48,8.48,0,0,1-3.73-.76,5.82,5.82,0,0,1-2.45-2.14,6,6,0,0,1-.88-3.25,8,8,0,0,1,1-4.11,7.65,7.65,0,0,1,2.86-2.87,8.41,8.41,0,0,1,4.21-1.06,7.51,7.51,0,0,1,3.48.74,5.58,5.58,0,0,1,2.28,2.1A6.07,6.07,0,0,1,40,36.68a6.4,6.4,0,0,1-.06,1.07c0,.36-.09.7-.16,1l-11.39,0,.4-2.33,9.11,0-1.63.73a3.39,3.39,0,0,0-.14-1.94A2.43,2.43,0,0,0,35,34a3.46,3.46,0,0,0-1.79-.41,3.77,3.77,0,0,0-2.21.63A3.87,3.87,0,0,0,29.65,36a6.57,6.57,0,0,0-.45,2.49,3,3,0,0,0,.89,2.36,4,4,0,0,0,2.68.78,6.53,6.53,0,0,0,2-.34,4.77,4.77,0,0,0,1.66-1L38.13,43a8.08,8.08,0,0,1-2.7,1.4A11,11,0,0,1,32.37,44.82Z"/><path class="cls-1" d="M47.35,44.77a6.22,6.22,0,0,1-3-.72,5.59,5.59,0,0,1-2.18-2.11,6.34,6.34,0,0,1-.83-3.32,8.51,8.51,0,0,1,.56-3.2,7.46,7.46,0,0,1,1.62-2.54A7.75,7.75,0,0,1,46,31.19a7.37,7.37,0,0,1,3-.61,6.38,6.38,0,0,1,2.94.63,4,4,0,0,1,1.84,2,7.05,7.05,0,0,1,.43,3.47,11.12,11.12,0,0,1-1,4.26,7,7,0,0,1-2.33,2.84A6.1,6.1,0,0,1,47.35,44.77Zm1.22-3.31a3.74,3.74,0,0,0,2.08-.58,4.08,4.08,0,0,0,1.43-1.59,5.11,5.11,0,0,0,.52-2.37,3.06,3.06,0,0,0-.84-2.23,3.2,3.2,0,0,0-2.32-.81,3.84,3.84,0,0,0-2.07.58,4,4,0,0,0-1.45,1.6,5.05,5.05,0,0,0-.51,2.37,2.94,2.94,0,0,0,.84,2.22A3.1,3.1,0,0,0,48.57,41.46Zm2.75,3.09.53-2.74.88-4.1.52-4.1.56-2.84h4L55.11,44.54Z"/><path class="cls-1" d="M58.79,44.53l3.73-19,4,0-3.72,19Z"/><path class="cls-1" d="M81,44.66a7.08,7.08,0,0,1-3.51-.87A6.51,6.51,0,0,1,75,41.33a7.38,7.38,0,0,1-.92-3.74A7.43,7.43,0,0,1,75,33.82a6.39,6.39,0,0,1,2.46-2.46A7,7,0,0,1,81,30.48a5.92,5.92,0,0,1,3,.75,5.07,5.07,0,0,1,2,2.33,9.55,9.55,0,0,1,.73,4,9.81,9.81,0,0,1-.68,4,5,5,0,0,1-2,2.35A5.93,5.93,0,0,1,81,44.66Zm.68-3.28a3.41,3.41,0,0,0,1.76-.47,3.37,3.37,0,0,0,1.27-1.32,4.1,4.1,0,0,0,.46-2,4.05,4.05,0,0,0-.48-2,3.38,3.38,0,0,0-1.27-1.3,3.44,3.44,0,0,0-1.77-.46,3.49,3.49,0,0,0-1.79.47,3.31,3.31,0,0,0-1.26,1.31,4.62,4.62,0,0,0,0,4.08,3.43,3.43,0,0,0,1.27,1.32A3.59,3.59,0,0,0,81.7,41.38Zm3.62,3.06V41.63l.06-4.1-.27-4.07,0-8h4l.06,19Z"/><path class="cls-1" d="M99.66,44.6a9,9,0,0,1-4.14-.91,6.79,6.79,0,0,1-2.76-2.51,7.39,7.39,0,0,1,0-7.32,6.82,6.82,0,0,1,2.62-2.52,8.24,8.24,0,0,1,7.41-.08,6.47,6.47,0,0,1,2.58,2.45,7.4,7.4,0,0,1,1,3.83c0,.15,0,.33,0,.52s0,.38,0,.55L95,38.65V36.32l9.09,0-1.53.7a3.83,3.83,0,0,0-.45-1.87,3.18,3.18,0,0,0-1.2-1.24,3.86,3.86,0,0,0-3.6,0,3.12,3.12,0,0,0-1.21,1.26,4,4,0,0,0-.43,1.91v.61a3.8,3.8,0,0,0,.51,2A3.23,3.23,0,0,0,97.61,41a4.89,4.89,0,0,0,2.14.44,5.2,5.2,0,0,0,1.93-.34,4.77,4.77,0,0,0,1.52-1l2.13,2.29A6.12,6.12,0,0,1,103,44,8.71,8.71,0,0,1,99.66,44.6Z"/><path class="cls-1" d="M116.5,44.34l-.06-17.92h3.43L127.54,39h-1.81l7.46-12.68h3.4l.11,17.92-3.89,0-.06-12h.71l-6,10.08h-1.86l-6.16-10.05h.87l0,12Z"/><path class="cls-1" d="M144.92,44.45a6.15,6.15,0,0,1-2.76-.54,4.24,4.24,0,0,1-1.78-1.49,3.81,3.81,0,0,1-.62-2.12,3.9,3.9,0,0,1,.6-2.16,4,4,0,0,1,1.9-1.45,9.41,9.41,0,0,1,3.4-.54h3.67v2.33h-3.22a3.06,3.06,0,0,0-1.94.47,1.5,1.5,0,0,0-.52,1.15,1.47,1.47,0,0,0,.61,1.22,2.69,2.69,0,0,0,1.65.44,3.38,3.38,0,0,0,1.79-.48,2.72,2.72,0,0,0,1.15-1.4l.62,1.84a3.55,3.55,0,0,1-1.58,2A5.63,5.63,0,0,1,144.92,44.45Zm4.2-.22V41.55l-.26-.59V36.14a2.58,2.58,0,0,0-.79-2,3.43,3.43,0,0,0-2.39-.71,7,7,0,0,0-2.17.35,6,6,0,0,0-1.8.94L140.25,32A8.57,8.57,0,0,1,143,30.71a12.51,12.51,0,0,1,3.22-.45,7.41,7.41,0,0,1,4.9,1.47,5.76,5.76,0,0,1,1.75,4.63l0,7.86Z"/><path class="cls-1" d="M162.49,44.4a7,7,0,0,1-3.51-.88,6.37,6.37,0,0,1-2.48-2.46,7.34,7.34,0,0,1-.92-3.73,7.43,7.43,0,0,1,.89-3.77,6.48,6.48,0,0,1,2.46-2.47,7.2,7.2,0,0,1,3.51-.88,5.93,5.93,0,0,1,3.05.76,5,5,0,0,1,2,2.32,9.55,9.55,0,0,1,.73,4,10,10,0,0,1-.68,4,5,5,0,0,1-2,2.35A6.06,6.06,0,0,1,162.49,44.4Zm.68-3.28a3.51,3.51,0,0,0,1.76-.47,3.43,3.43,0,0,0,1.27-1.32,4.68,4.68,0,0,0,0-4.09,3.37,3.37,0,0,0-3-1.75,3.48,3.48,0,0,0-1.79.46,3.38,3.38,0,0,0-1.26,1.31,4.64,4.64,0,0,0,0,4.09,3.34,3.34,0,0,0,1.27,1.31A3.5,3.5,0,0,0,163.17,41.12Zm3.62,3.06V41.36l.06-4.1-.27-4.07,0-8h4l.06,19Z"/><path class="cls-1" d="M174.29,44.15l0-13.77h3.82v3.89l-.54-1.13a4.48,4.48,0,0,1,2-2.22,6.65,6.65,0,0,1,3.3-.76l0,3.68-.46,0h-.44a3.4,3.4,0,0,0-3.65,3.86l0,6.5Z"/><path class="cls-1" d="M187.17,28.42a2.53,2.53,0,0,1-1.8-.64,2.05,2.05,0,0,1-.69-1.58,2,2,0,0,1,.68-1.59,2.52,2.52,0,0,1,1.79-.65,2.64,2.64,0,0,1,1.8.6,1.94,1.94,0,0,1,.69,1.54,2.18,2.18,0,0,1-.67,1.66A2.55,2.55,0,0,1,187.17,28.42Zm-1.95,15.7,0-13.78h4l.05,13.77Z"/><path class="cls-1" d="M198.84,44.28a7.14,7.14,0,0,1-3.51-.87,6.54,6.54,0,0,1-2.48-2.47,8.18,8.18,0,0,1,0-7.5A6.42,6.42,0,0,1,195.29,31a7.2,7.2,0,0,1,3.51-.88,6,6,0,0,1,3,.76,5.1,5.1,0,0,1,2,2.32,9.72,9.72,0,0,1,.73,4,10,10,0,0,1-.68,4,5,5,0,0,1-2,2.35A6.08,6.08,0,0,1,198.84,44.28Zm.68-3.28a3.44,3.44,0,0,0,1.77-.47,3.34,3.34,0,0,0,1.26-1.32,4.1,4.1,0,0,0,.47-2,4.05,4.05,0,0,0-.48-2,3.41,3.41,0,0,0-1.27-1.31,3.71,3.71,0,0,0-3.56,0,3.34,3.34,0,0,0-1.26,1.32,4.05,4.05,0,0,0-.47,2,4.1,4.1,0,0,0,.48,2,3.34,3.34,0,0,0,1.27,1.31A3.48,3.48,0,0,0,199.52,41Zm3.62,3.06V41.24l.06-4.09-.27-4.07,0-8h4l.06,19Z"/></g></g></svg>