<?xml version="1.0" encoding="UTF-8"?>
<svg id="Layer_2" data-name="Layer 2" xmlns="http://www.w3.org/2000/svg" viewBox="0 0 67.29 15.45">
  <defs>
    <style>
      .cls-1 {
        fill: #8aa631;
      }

      .cls-1, .cls-2 {
        stroke-width: 0px;
      }

      .cls-2 {
        fill: #f3f2e9;
      }
    </style>
  </defs>
  <g id="Layer_1-2" data-name="Layer 1">
    <g>
      <rect class="cls-1" width="67.29" height="15.45" rx="3.01" ry="3.01"/>
      <g>
        <path class="cls-2" d="M8.79,7.35v.03c.44.06.77.2,1.01.41.24.21.36.47.36.78,0,.53-.22.95-.66,1.28-.44.33-.97.49-1.57.49h-2.7l.07-.26c.32-.03.54-.07.64-.14s.18-.18.22-.34l.92-4.02c.02-.08.03-.13.03-.15,0-.2-.21-.33-.62-.38l.05-.25h2.44c.43,0,.77.09,1.03.26s.39.41.39.72c0,.8-.54,1.32-1.61,1.56ZM7.44,7.57l-.44,1.91c-.02.07-.02.13-.02.19,0,.25.24.38.73.38.46,0,.82-.16,1.09-.49.27-.32.4-.7.4-1.11,0-.28-.09-.49-.28-.66-.19-.16-.45-.24-.79-.24-.29,0-.52,0-.69.02ZM8.01,5.11l-.5,2.16h.49c.46,0,.81-.13,1.07-.4.26-.27.38-.61.38-1.04,0-.49-.3-.74-.89-.74-.12,0-.31,0-.56.02Z"/>
        <path class="cls-2" d="M12.27,10.46c-.43,0-.78-.14-1.05-.42-.27-.28-.4-.66-.4-1.12,0-.7.22-1.29.65-1.78.43-.49.98-.74,1.63-.74.46,0,.82.14,1.08.42s.4.65.4,1.12c0,.68-.22,1.27-.65,1.77-.43.5-.99.75-1.66.75ZM13.02,6.68c-.44,0-.79.24-1.04.71-.25.47-.38,1.02-.38,1.65,0,.76.26,1.13.78,1.13.42,0,.76-.23,1.02-.7.26-.47.39-1.03.39-1.69,0-.74-.25-1.11-.76-1.11Z"/>
        <path class="cls-2" d="M16.56,10.46c-.43,0-.78-.14-1.05-.42-.27-.28-.4-.66-.4-1.12,0-.7.22-1.29.65-1.78.43-.49.98-.74,1.63-.74.46,0,.82.14,1.08.42s.4.65.4,1.12c0,.68-.22,1.27-.65,1.77-.43.5-.99.75-1.66.75ZM17.31,6.68c-.44,0-.79.24-1.04.71-.25.47-.38,1.02-.38,1.65,0,.76.26,1.13.78,1.13.42,0,.76-.23,1.02-.7.26-.47.39-1.03.39-1.69,0-.74-.25-1.11-.76-1.11Z"/>
        <path class="cls-2" d="M22.31,7.17c-.3.17-.61.42-.94.73.39,1,.65,1.59.78,1.79.13.2.31.29.54.29.14,0,.31-.03.51-.09l-.05.26c-.39.16-.72.25-.99.25-.22,0-.41-.09-.55-.26-.14-.17-.39-.74-.74-1.69l-.45.39-.34,1.5h-.73l1.16-5.01c.03-.15.05-.24.05-.29,0-.12-.03-.21-.09-.28-.06-.06-.24-.11-.55-.13l.05-.24,1.46-.09.04.05-.96,4.06h.02c.45-.48.86-.9,1.25-1.25s.64-.57.75-.63c.12-.06.24-.1.35-.1.29,0,.44.14.44.41,0,.12-.05.23-.14.32-.09.09-.2.14-.33.14-.14,0-.32-.05-.53-.14Z"/>
        <path class="cls-2" d="M31.13,5.05c-.13.02-.26.06-.41.13-.15.07-.31.19-.48.35s-.52.57-1.03,1.2-.82,1.03-.92,1.17c-.09.14-.17.33-.22.56l-.25,1.08s-.02.09-.02.14c0,.17.1.28.29.32s.35.07.49.08l-.05.26h-2.59l.05-.26c.38-.03.62-.07.74-.12.12-.06.2-.18.25-.37l.28-1.21c.02-.09.03-.16.03-.19,0-.12-.06-.39-.19-.81l-.41-1.34c-.14-.47-.28-.75-.42-.83s-.29-.13-.44-.14l.07-.25h2.27l-.06.25c-.34.01-.55.04-.64.07-.09.04-.13.08-.13.15,0,.11.24.9.71,2.38,1.19-1.44,1.79-2.22,1.79-2.34,0-.14-.22-.23-.67-.26l.07-.25h1.96l-.07.25Z"/>
        <path class="cls-2" d="M31.51,10.46c-.43,0-.78-.14-1.05-.42-.27-.28-.4-.66-.4-1.12,0-.7.22-1.29.65-1.78.43-.49.98-.74,1.63-.74.46,0,.82.14,1.08.42s.4.65.4,1.12c0,.68-.22,1.27-.65,1.77-.43.5-.99.75-1.66.75ZM32.26,6.68c-.44,0-.79.24-1.04.71-.25.47-.38,1.02-.38,1.65,0,.76.26,1.13.78,1.13.42,0,.76-.23,1.02-.7.26-.47.39-1.03.39-1.69,0-.74-.25-1.11-.76-1.11Z"/>
        <path class="cls-2" d="M38.4,10.13c-.42.17-.73.26-.94.26-.19,0-.34-.05-.45-.16-.11-.11-.17-.26-.17-.44h-.03c-.49.43-.95.64-1.4.64-.25,0-.45-.07-.58-.21-.14-.14-.21-.33-.21-.57,0-.16.03-.36.09-.61l.3-1.23c.06-.23.09-.42.09-.56,0-.15-.03-.25-.08-.3-.05-.04-.15-.07-.28-.07-.1,0-.24.03-.43.09l.07-.26c.4-.18.7-.27.9-.27.41,0,.61.19.61.56,0,.14-.02.28-.07.43l-.34,1.44c-.06.24-.08.41-.08.52,0,.38.16.57.47.57.35,0,.69-.18,1.04-.53l.68-2.93.68-.05.05.05-.57,2.51c-.07.31-.11.49-.11.55,0,.15.03.25.1.3.07.05.17.08.32.08.13,0,.27-.03.41-.07l-.05.25Z"/>
        <path class="cls-2" d="M41.63,6.81c-.35,0-.74.24-1.17.73l-.63,2.8h-.73l.57-2.52c.07-.29.1-.48.1-.56,0-.15-.03-.24-.08-.29-.05-.05-.15-.07-.29-.07-.11,0-.25.03-.42.08l.05-.26c.39-.17.71-.26.94-.26.38,0,.57.23.57.68h.02l.37-.31c.32-.28.6-.42.84-.42.4,0,.6.21.6.64,0,.19-.05.35-.14.48-.09.13-.22.2-.38.2-.28,0-.41-.11-.41-.33,0-.13.06-.32.17-.57Z"/>
        <path class="cls-2" d="M48.56,6.64h-.31c-.02-.63-.13-1.06-.33-1.29-.19-.23-.48-.35-.87-.35-.31,0-.57.1-.77.31-.21.21-.31.46-.31.76,0,.28.07.48.2.62.14.13.4.27.8.42.63.24,1.03.47,1.21.7s.26.48.26.73c0,.54-.21,1-.64,1.36-.43.36-.96.54-1.58.54-.56,0-1.03-.13-1.42-.39l-.22.28h-.31l.37-1.89h.32c.06,1.12.53,1.68,1.4,1.68.39,0,.71-.11.94-.33.23-.22.35-.51.35-.87,0-.26-.07-.47-.2-.62-.13-.15-.36-.29-.68-.41-.42-.15-.72-.28-.92-.38s-.36-.26-.48-.45-.19-.42-.19-.68c0-.48.2-.88.59-1.21.4-.33.86-.5,1.4-.5.5,0,.92.13,1.29.38l.21-.26h.31l-.39,1.84Z"/>
        <path class="cls-2" d="M51.69,6.88h-1.09l-.5,2.15c-.05.23-.08.4-.08.53,0,.15.04.25.1.32.07.07.2.1.39.1s.38-.03.57-.1l-.06.29c-.42.17-.78.25-1.09.25-.47,0-.71-.19-.71-.58,0-.11.01-.22.04-.34l.61-2.61h-.69l.08-.35h.71l.27-1.14h.7l-.26,1.14h1.08l-.08.35Z"/>
        <path class="cls-2" d="M55.81,10.13c-.41.17-.73.26-.94.26-.18,0-.33-.05-.45-.16-.11-.11-.17-.25-.18-.41h-.03c-.46.42-.86.62-1.2.62-.38,0-.67-.13-.89-.4-.22-.27-.32-.64-.32-1.11,0-.66.23-1.24.68-1.76s.97-.78,1.56-.78c.36,0,.67.08.93.25l.72-.18.04.05-.59,2.51c-.06.28-.1.46-.1.55,0,.15.03.25.1.3s.17.08.31.08.28-.03.42-.07l-.05.25ZM54.81,7.36c.02-.1-.01-.24-.11-.42-.1-.17-.29-.26-.6-.26-.38,0-.72.23-1.03.69-.31.46-.46.98-.46,1.57,0,.38.06.66.17.82.11.16.29.25.53.25.29,0,.63-.18,1-.55l.5-2.1Z"/>
        <path class="cls-2" d="M59.67,9.57c-.19.85-.48,1.48-.88,1.89s-.93.61-1.58.61-1.03-.18-1.03-.55c0-.12.04-.22.11-.3s.17-.12.29-.12c.24,0,.45.24.63.71h.09c.37,0,.69-.17.98-.52s.5-.85.63-1.52h-.02c-.5.43-.97.64-1.42.64-.24,0-.44-.07-.59-.21-.15-.14-.22-.33-.22-.57,0-.16.03-.36.09-.61l.3-1.21c.06-.23.09-.42.09-.56,0-.15-.03-.25-.08-.3-.05-.04-.15-.07-.28-.07-.1,0-.24.03-.43.09l.07-.26c.4-.18.7-.27.9-.27.41,0,.62.19.62.56,0,.13-.02.28-.06.43l-.36,1.42c-.06.25-.09.42-.09.53,0,.38.17.57.5.57.36,0,.72-.18,1.06-.53l.65-2.92.67-.05.05.05-.67,3.05Z"/>
      </g>
    </g>
  </g>
</svg>