<?xml version="1.0" encoding="UTF-8"?>
<svg id="Layer_2" data-name="Layer 2" xmlns="http://www.w3.org/2000/svg" viewBox="0 0 63.21 40.94">
  <defs>
    <style>
      .cls-1 {
        stroke-width: 0px;
      }
    </style>
  </defs>
  <g id="Layer_1-2" data-name="Layer 1">
    <g>
      <path class="cls-1" d="M7.14,9.14H0l.1-.42c.59-.04.96-.12,1.11-.25.15-.13.25-.31.3-.54L3.02,1.32c.03-.13.05-.21.05-.24,0-.33-.35-.56-1.06-.66l.09-.42h3.87l-.09.42c-.45.03-.79.1-1,.2s-.37.31-.47.63l-1.42,6.22c-.07.3-.1.52-.1.67,0,.21.08.36.24.42.16.07.52.1,1.1.1.46,0,.83-.03,1.11-.09.28-.06.48-.14.61-.23.12-.09.36-.36.72-.79.36-.43.64-.81.86-1.13h.44l-.82,2.72Z"/>
      <path class="cls-1" d="M15.27,8.81c-.69.29-1.21.43-1.56.43-.31,0-.56-.09-.75-.27-.18-.18-.28-.42-.28-.73h-.05c-.81.7-1.58,1.06-2.31,1.06-.42,0-.74-.12-.97-.35s-.34-.55-.34-.94c0-.27.05-.6.15-1l.5-2.03c.09-.38.14-.69.14-.93,0-.25-.04-.42-.13-.49-.09-.07-.24-.11-.46-.11-.16,0-.4.05-.72.15l.11-.43c.65-.3,1.15-.44,1.49-.44.67,0,1,.31,1,.92,0,.23-.04.47-.11.71l-.57,2.38c-.09.4-.14.68-.14.86,0,.63.26.94.78.94.58,0,1.15-.29,1.71-.87l1.12-4.84,1.12-.08.08.09-.95,4.14c-.12.51-.17.81-.17.91,0,.25.05.41.16.5s.28.14.53.14c.22,0,.45-.04.68-.12l-.09.41Z"/>
      <path class="cls-1" d="M20.92,3.9c-.5.45-.96,1.07-1.4,1.86.35,1.44.62,2.27.83,2.47s.47.31.78.31c.25,0,.54-.04.84-.14l-.12.43c-.65.27-1.18.41-1.6.41-.44,0-.75-.14-.93-.41-.18-.27-.4-.96-.65-2.07-.64,1.01-1.13,1.68-1.47,2-.34.33-.69.49-1.05.49-.21,0-.38-.06-.51-.17-.13-.11-.19-.27-.19-.46,0-.23.08-.41.23-.55.15-.14.37-.21.64-.21.13,0,.27.03.41.08s.27.1.39.14c.53-.49.99-1.11,1.4-1.84-.38-1.52-.65-2.36-.81-2.53-.16-.17-.38-.25-.66-.25-.21,0-.47.05-.79.16l.12-.44c.77-.31,1.25-.46,1.44-.46.4,0,.7.13.9.38.2.25.4.86.59,1.81.02.1.04.21.07.35.09-.14.18-.27.27-.41.54-.87.97-1.44,1.29-1.73.32-.29.65-.43.99-.43.19,0,.35.06.48.18s.19.28.19.48-.08.38-.24.52c-.16.14-.37.21-.62.21-.15,0-.42-.06-.82-.17Z"/>
      <path class="cls-1" d="M29.47,8.81c-.69.29-1.21.43-1.56.43-.31,0-.56-.09-.75-.27-.18-.18-.28-.42-.28-.73h-.05c-.81.7-1.58,1.06-2.31,1.06-.42,0-.74-.12-.97-.35s-.34-.55-.34-.94c0-.27.05-.6.15-1l.5-2.03c.09-.38.14-.69.14-.93,0-.25-.04-.42-.13-.49-.09-.07-.24-.11-.46-.11-.16,0-.4.05-.72.15l.11-.43c.65-.3,1.15-.44,1.49-.44.67,0,1,.31,1,.92,0,.23-.04.47-.11.71l-.57,2.38c-.09.4-.14.68-.14.86,0,.63.26.94.78.94.58,0,1.15-.29,1.71-.87l1.12-4.84,1.12-.08.08.09-.95,4.14c-.12.51-.17.81-.17.91,0,.25.05.41.16.5s.28.14.53.14c.22,0,.45-.04.68-.12l-.09.41Z"/>
      <path class="cls-1" d="M34.82,3.31c-.58,0-1.22.4-1.93,1.21l-1.04,4.62h-1.2l.93-4.17c.11-.48.16-.79.16-.93,0-.24-.04-.4-.13-.48-.09-.08-.25-.12-.48-.12-.18,0-.41.04-.7.14l.09-.43c.64-.29,1.16-.43,1.56-.43.63,0,.95.37.95,1.12h.04l.61-.52c.53-.46.99-.69,1.39-.69.67,0,1,.35,1,1.06,0,.31-.08.57-.23.79s-.36.32-.63.32c-.46,0-.68-.18-.68-.55,0-.21.1-.52.29-.93Z"/>
      <path class="cls-1" d="M41.89,7.87c-.31,1.41-.8,2.44-1.46,3.12-.66.67-1.53,1.01-2.61,1.01s-1.69-.3-1.69-.91c0-.19.06-.36.17-.49.12-.13.27-.2.48-.2.39,0,.74.39,1.04,1.17h.15c.61,0,1.14-.28,1.62-.85s.82-1.41,1.04-2.51h-.04c-.82.71-1.6,1.06-2.35,1.06-.4,0-.73-.12-.97-.35-.24-.23-.36-.55-.36-.94,0-.27.05-.6.15-1l.5-2c.09-.38.14-.69.14-.93s-.04-.42-.13-.49c-.09-.07-.24-.11-.46-.11-.16,0-.4.05-.72.15l.11-.43c.65-.3,1.15-.44,1.49-.44.68,0,1.02.31,1.02.92,0,.22-.03.46-.1.71l-.59,2.34c-.1.41-.15.7-.15.87,0,.63.28.94.83.94.6,0,1.19-.29,1.75-.87l1.07-4.82,1.11-.08.08.09-1.11,5.04Z"/>
      <path class="cls-1" d="M4.36,23.37c-1.07,0-1.92-.34-2.57-1.03-.65-.69-.98-1.58-.98-2.68,0-1.6.53-2.98,1.6-4.13,1.07-1.16,2.31-1.74,3.72-1.74,1.06,0,1.91.34,2.57,1.02.65.68.98,1.59.98,2.72,0,1.6-.54,2.97-1.62,4.12-1.08,1.15-2.31,1.72-3.7,1.72ZM6,14.33c-1.09,0-1.98.58-2.66,1.74-.68,1.16-1.02,2.46-1.02,3.89,0,.92.19,1.62.56,2.12.37.5.9.75,1.59.75,1.07,0,1.95-.57,2.64-1.72.69-1.14,1.04-2.47,1.04-3.97,0-.89-.19-1.58-.56-2.07-.37-.49-.9-.74-1.59-.74Z"/>
      <path class="cls-1" d="M19.05,13.7c-.59.03-1.06.85-1.4,2.47l-.15.68h1.62l-.15.58h-1.59l-1.1,5.11c-.2.94-.62,1.71-1.26,2.33s-1.31.92-2.02.92-1.09-.26-1.09-.77c0-.2.06-.37.17-.5.12-.13.27-.2.47-.2.32,0,.6.21.83.62.06.11.12.22.19.32.64-.06,1.13-.89,1.46-2.48l1.13-5.35h-2.62l-1.14,5.33c-.2.92-.62,1.69-1.26,2.31-.64.62-1.31.93-2.02.93s-1.09-.25-1.09-.76c0-.2.06-.37.17-.5.12-.13.27-.2.47-.2.32,0,.59.2.83.61.06.11.12.22.19.32.63-.05,1.12-.87,1.46-2.48l1.17-5.57h-1.25l.13-.58h1.26l.1-.53c.15-.8.54-1.51,1.16-2.11.62-.6,1.29-.9,2.01-.9.35,0,.62.07.81.21.19.14.29.32.29.54,0,.18-.05.33-.16.46-.11.13-.27.2-.48.2-.41,0-.74-.29-.97-.88-.62,0-1.1.81-1.44,2.42l-.12.59h2.64l.09-.43c.21-.98.62-1.77,1.24-2.36.62-.59,1.28-.89,1.98-.89.37,0,.65.07.83.22.18.14.27.32.27.53s-.06.37-.18.5c-.12.13-.28.2-.47.2-.31,0-.58-.2-.82-.61-.06-.11-.13-.21-.19-.31Z"/>
      <path class="cls-1" d="M23.44,20.12h-3.84l.23-.98h3.84l-.23.98Z"/>
      <path class="cls-1" d="M34.12,19.47c-.06,0-.12.02-.2.03-.4.04-.68.12-.84.23-.17.11-.29.32-.36.61l-.17.74c-.18.75-.28,1.25-.3,1.49-1.25.53-2.37.79-3.36.79-1.07,0-1.95-.33-2.63-1.01-.68-.67-1.02-1.57-1.02-2.69,0-1.63.54-3.01,1.62-4.16s2.37-1.71,3.88-1.71c1.03,0,1.87.21,2.53.64l.37-.43h.51l-.69,3.19h-.53c0-1.01-.19-1.75-.56-2.2-.37-.45-.96-.68-1.76-.68-1.07,0-1.98.52-2.73,1.55-.75,1.04-1.12,2.33-1.12,3.87,0,.95.22,1.71.67,2.26.45.55,1.07.83,1.86.83.61,0,1.16-.18,1.65-.54.1-.27.22-.7.35-1.28l.12-.55c.03-.15.05-.27.05-.34,0-.23-.09-.38-.28-.46-.19-.08-.54-.14-1.06-.18l.09-.45h4.01l-.09.45Z"/>
      <path class="cls-1" d="M39.59,17.31c-.58,0-1.22.4-1.93,1.21l-1.04,4.62h-1.2l.93-4.17c.11-.48.16-.79.16-.93,0-.24-.04-.4-.13-.48-.09-.08-.25-.12-.48-.12-.18,0-.41.04-.7.14l.09-.43c.64-.29,1.16-.43,1.56-.43.63,0,.95.37.95,1.12h.04l.61-.52c.53-.46.99-.69,1.39-.69.67,0,1,.35,1,1.06,0,.31-.08.57-.23.79s-.36.32-.63.32c-.46,0-.68-.18-.68-.55,0-.21.1-.52.29-.93Z"/>
      <path class="cls-1" d="M44.79,22.85c-.69.28-1.21.42-1.56.42-.33,0-.58-.08-.76-.25s-.27-.39-.27-.67c0-.18.04-.42.11-.71l.68-2.75c.1-.4.15-.7.15-.93,0-.25-.04-.42-.13-.49-.09-.07-.25-.11-.48-.11-.14,0-.38.04-.72.12l.09-.41c.67-.3,1.18-.45,1.53-.45.67,0,1,.31,1,.94,0,.21-.03.45-.09.71l-.7,2.73c-.1.4-.15.7-.15.9,0,.42.23.63.7.63.25,0,.48-.04.7-.11l-.09.41ZM44.52,15.12c-.21,0-.4-.08-.56-.25-.16-.17-.24-.37-.24-.6s.08-.44.24-.62c.16-.18.35-.27.57-.27.23,0,.43.08.59.25.16.16.24.36.24.59s-.08.45-.24.63c-.16.18-.36.27-.59.27Z"/>
      <path class="cls-1" d="M51.8,20.99c-.11.47-.16.77-.16.9,0,.25.05.41.16.5.1.09.28.14.52.14s.46-.04.7-.12l-.09.41c-.61.29-1.13.43-1.56.43-.67,0-1.01-.33-1.01-.99h-.04c-.76.71-1.44,1.07-2.04,1.07s-1.11-.22-1.47-.67c-.36-.44-.53-1.06-.53-1.84,0-1.1.36-2.08,1.09-2.92.72-.84,1.58-1.27,2.57-1.27.6,0,1.14.14,1.61.41l.5-2.19c.04-.19.06-.35.06-.49,0-.36-.25-.56-.75-.61-.15-.01-.33-.03-.52-.05l.1-.4,2.6-.14.06.09-1.78,7.73ZM51.26,18.16c.03-.13-.06-.34-.27-.63-.21-.29-.54-.43-.99-.43-.64,0-1.21.37-1.69,1.12s-.72,1.62-.72,2.62c0,.64.09,1.09.28,1.36.19.27.48.41.88.41.5,0,1.07-.32,1.7-.95l.81-3.5Z"/>
      <path class="cls-1" d="M9.7,34.4c-.06,0-.12.02-.2.03-.4.04-.68.12-.84.23-.17.11-.29.32-.36.61l-.17.74c-.18.75-.28,1.25-.3,1.49-1.25.53-2.37.79-3.36.79-1.07,0-1.95-.33-2.63-1.01-.68-.67-1.02-1.57-1.02-2.69,0-1.63.54-3.01,1.62-4.16s2.37-1.71,3.88-1.71c1.03,0,1.87.21,2.53.64l.37-.43h.51l-.69,3.19h-.53c0-1.01-.19-1.75-.56-2.2-.37-.45-.96-.68-1.76-.68-1.07,0-1.98.52-2.73,1.55-.75,1.04-1.12,2.33-1.12,3.87,0,.95.22,1.71.67,2.26.45.55,1.07.83,1.86.83.61,0,1.16-.18,1.65-.54.1-.27.22-.7.35-1.28l.12-.55c.03-.15.05-.27.05-.34,0-.23-.09-.38-.28-.46-.19-.08-.54-.14-1.06-.18l.09-.45h4.01l-.09.45Z"/>
      <path class="cls-1" d="M12.01,35.45c0,1.39.49,2.09,1.48,2.09.76,0,1.47-.43,2.11-1.28l.37.28c-.35.54-.79.96-1.31,1.27-.52.31-1.05.46-1.59.46-.75,0-1.33-.21-1.73-.64-.4-.42-.6-1.03-.6-1.82,0-1.13.35-2.12,1.06-2.97.7-.85,1.58-1.27,2.63-1.27.58,0,1.03.12,1.35.35.32.24.48.57.48.99,0,.74-.36,1.3-1.09,1.69-.73.39-1.78.67-3.14.84ZM12.05,35.01c1.19-.15,1.98-.41,2.39-.79s.62-.86.62-1.46c0-.49-.25-.73-.75-.73s-.99.28-1.42.83c-.44.55-.72,1.27-.84,2.14Z"/>
      <path class="cls-1" d="M21.91,32.37h-1.8l-.82,3.55c-.09.37-.13.66-.13.87,0,.24.06.42.17.53.12.11.33.16.64.16s.62-.05.93-.16l-.1.48c-.69.28-1.29.42-1.8.42-.78,0-1.17-.32-1.17-.96,0-.18.02-.37.06-.57l1.01-4.32h-1.15l.13-.58h1.17l.45-1.89h1.16l-.43,1.89h1.79l-.13.58Z"/>
      <path class="cls-1" d="M29.28,37.75c-.68.29-1.2.43-1.56.43-.31,0-.55-.09-.74-.27-.19-.18-.28-.41-.29-.68h-.05c-.76.69-1.42,1.03-1.98,1.03-.62,0-1.11-.22-1.47-.67-.36-.44-.53-1.06-.53-1.84,0-1.08.37-2.05,1.12-2.91.75-.85,1.6-1.28,2.57-1.28.59,0,1.1.14,1.53.41l1.19-.3.06.09-.97,4.16c-.11.46-.16.76-.16.91,0,.24.05.41.16.5s.28.13.52.13.46-.04.7-.12l-.09.41ZM27.62,33.16c.04-.17-.02-.4-.18-.69-.16-.29-.49-.43-.99-.43-.63,0-1.2.38-1.7,1.14-.51.76-.76,1.63-.76,2.59,0,.64.09,1.09.28,1.36.19.27.48.41.88.41.49,0,1.04-.3,1.65-.91l.82-3.47Z"/>
      <path class="cls-1" d="M35.07,37.01c-.83.84-1.56,1.26-2.19,1.26-.53,0-.94-.15-1.22-.44-.29-.29-.43-.71-.43-1.25,0-.21.03-.43.1-.64l.54-2.03c.09-.36.14-.67.14-.93s-.04-.42-.13-.49c-.09-.07-.24-.11-.46-.11-.16,0-.4.05-.72.15l.11-.43c.65-.3,1.15-.44,1.49-.44.67,0,1,.31,1,.92,0,.23-.04.47-.11.71l-.59,2.37c-.09.34-.13.63-.13.87,0,.65.28.98.84.98.6,0,1.15-.29,1.66-.87l1.13-4.88,1.12-.08.08.09-.91,3.92c-.09.41-.14.69-.14.83,0,.67.37,1.01,1.1,1.01.61,0,1.18-.34,1.72-1.03s.8-1.47.8-2.36c0-.38-.11-.7-.34-.97-.23-.27-.35-.55-.35-.84,0-.22.08-.4.23-.54s.33-.21.54-.21c.54,0,.82.4.82,1.21,0,1.42-.38,2.69-1.14,3.82-.76,1.12-1.68,1.69-2.75,1.69-.42,0-.8-.12-1.14-.34-.34-.23-.56-.54-.67-.92Z"/>
      <path class="cls-1" d="M48.79,37.75c-.68.29-1.2.43-1.56.43-.31,0-.55-.09-.74-.27-.19-.18-.28-.41-.29-.68h-.05c-.76.69-1.42,1.03-1.98,1.03-.62,0-1.11-.22-1.47-.67-.36-.44-.53-1.06-.53-1.84,0-1.08.37-2.05,1.12-2.91.75-.85,1.6-1.28,2.57-1.28.59,0,1.1.14,1.53.41l1.19-.3.06.09-.97,4.16c-.11.46-.16.76-.16.91,0,.24.05.41.16.5s.28.13.52.13.46-.04.7-.12l-.09.41ZM47.13,33.16c.04-.17-.02-.4-.18-.69-.16-.29-.49-.43-.99-.43-.63,0-1.2.38-1.7,1.14-.51.76-.76,1.63-.76,2.59,0,.64.09,1.09.28,1.36.19.27.48.41.88.41.49,0,1.04-.3,1.65-.91l.82-3.47Z"/>
      <path class="cls-1" d="M55.72,36.81c-.31,1.41-.8,2.44-1.46,3.12-.66.67-1.53,1.01-2.61,1.01s-1.69-.3-1.69-.91c0-.19.06-.36.17-.49.12-.13.27-.2.48-.2.39,0,.74.39,1.04,1.17h.15c.61,0,1.14-.28,1.62-.85s.82-1.41,1.04-2.51h-.04c-.82.71-1.6,1.06-2.35,1.06-.4,0-.73-.12-.97-.35-.24-.23-.36-.55-.36-.94,0-.27.05-.6.15-1l.5-2c.09-.38.14-.69.14-.93s-.04-.42-.13-.49c-.09-.07-.24-.11-.46-.11-.16,0-.4.05-.72.15l.11-.43c.65-.3,1.15-.44,1.49-.44.68,0,1.02.31,1.02.92,0,.22-.03.46-.1.71l-.59,2.34c-.1.41-.15.7-.15.87,0,.63.28.94.83.94.6,0,1.19-.29,1.75-.87l1.07-4.82,1.11-.08.08.09-1.11,5.04Z"/>
      <path class="cls-1" d="M61.6,32.13l-.12-.04c-.08-.03-.2-.05-.36-.05-.4,0-.71.11-.94.32-.23.21-.34.48-.34.82,0,.26.08.47.23.63.16.16.5.33,1.02.53.66.25,1.1.5,1.33.77.23.27.34.59.34.96,0,.64-.25,1.16-.75,1.58-.5.42-1.14.62-1.9.62-.61,0-1.14-.11-1.58-.33-.44-.22-.65-.52-.65-.9,0-.18.06-.34.19-.48.12-.14.28-.22.46-.22.39,0,.67.26.82.77.04.14.09.27.14.4.2.19.45.29.77.29.93,0,1.4-.43,1.4-1.28,0-.26-.1-.48-.29-.66s-.54-.35-1.05-.52c-1.05-.36-1.58-.94-1.58-1.73,0-.55.24-1.03.73-1.43.49-.4,1.09-.6,1.81-.6.57,0,1.03.08,1.38.25s.53.42.53.75c0,.18-.06.34-.19.48-.12.15-.28.22-.46.22-.39,0-.66-.25-.82-.76-.04-.14-.09-.27-.14-.39Z"/>
    </g>
  </g>
</svg>