<svg xmlns="http://www.w3.org/2000/svg" width="31.21" height="31.2" viewBox="0 0 31.21 31.2"><defs><style>.cls-1{fill:#f90000;}.cls-2{fill:#f70000;}</style></defs><g id="Layer_2" data-name="Layer 2"><g id="Layer_1-2" data-name="Layer 1"><path class="cls-1" d="M7.23,10.3l1-3.2,3.52.57L11.59,9,8.27,8.41l-.5,1.5a1.46,1.46,0,0,1,.38-.17,3.4,3.4,0,0,1,.46-.09,3.57,3.57,0,0,1,.46,0,2.74,2.74,0,0,1,.43,0,3.2,3.2,0,0,1,.91.28,2.54,2.54,0,0,1,.75.53,2.1,2.1,0,0,1,.48.75,1.83,1.83,0,0,1,.07.94,1.93,1.93,0,0,1-.37.91,2.59,2.59,0,0,1-.69.67,2.85,2.85,0,0,1-.92.36,2.74,2.74,0,0,1-1,0,4.74,4.74,0,0,1-.77-.21,3.07,3.07,0,0,1-.74-.39,1.92,1.92,0,0,1-.54-.6,1.19,1.19,0,0,1-.12-.8l1.41.23a1.24,1.24,0,0,0,0,.47,1.1,1.1,0,0,0,.15.44,1,1,0,0,0,.29.35.9.9,0,0,0,.42.19.89.89,0,0,0,.65-.12,1.41,1.41,0,0,0,.45-.46,2.29,2.29,0,0,0,.27-.62c.06-.23.11-.43.14-.61a1.47,1.47,0,0,0,0-.7,1.51,1.51,0,0,0-.33-.54,1.91,1.91,0,0,0-.54-.37,2.42,2.42,0,0,0-.66-.21,2.23,2.23,0,0,0-.68,0,2.47,2.47,0,0,0-.66.17Z"/><path class="cls-1" d="M12.38,11.25A5.42,5.42,0,0,1,12.72,10a3.45,3.45,0,0,1,.63-1,2.56,2.56,0,0,1,1-.67,2.49,2.49,0,0,1,1.35-.1,2.5,2.5,0,0,1,1.26.52,2.56,2.56,0,0,1,.71.95,3.58,3.58,0,0,1,.28,1.19,5.85,5.85,0,0,1-.07,1.26,5,5,0,0,1-.33,1.21,3.33,3.33,0,0,1-.64,1,2.32,2.32,0,0,1-1,.64,2.7,2.7,0,0,1-1.35.09,2.64,2.64,0,0,1-1.25-.51,2.43,2.43,0,0,1-.72-.91,3.24,3.24,0,0,1-.28-1.17A5.22,5.22,0,0,1,12.38,11.25Zm1.36.22a8.79,8.79,0,0,0-.1.9,5.88,5.88,0,0,0,0,1,2.55,2.55,0,0,0,.29.87.92.92,0,0,0,.67.45.88.88,0,0,0,.77-.21,2.47,2.47,0,0,0,.55-.74,4.5,4.5,0,0,0,.36-1,8.53,8.53,0,0,0,.19-.89c0-.17.06-.36.08-.58s0-.46,0-.7,0-.47,0-.71a2.58,2.58,0,0,0-.16-.65,1.31,1.31,0,0,0-.3-.48.8.8,0,0,0-.49-.25.89.89,0,0,0-.78.23,2.79,2.79,0,0,0-.56.79,5.14,5.14,0,0,0-.36,1C13.84,10.91,13.78,11.21,13.74,11.47Z"/><path class="cls-1" d="M18.69,10.25a1.51,1.51,0,0,1,.25-.64,1.35,1.35,0,0,1,.46-.43A1.79,1.79,0,0,1,20,9a2.64,2.64,0,0,1,.79,0,2.71,2.71,0,0,1,.76.23,1.93,1.93,0,0,1,.55.41,1.44,1.44,0,0,1,.34,1.24,1.59,1.59,0,0,1-.25.64,1.38,1.38,0,0,1-.46.44,1.67,1.67,0,0,1-.65.22,2.71,2.71,0,0,1-.8,0,2.44,2.44,0,0,1-.75-.23A1.8,1.8,0,0,1,19,11.5a1.31,1.31,0,0,1-.3-.57A1.54,1.54,0,0,1,18.69,10.25Zm.72,5.52-.63-.1L25,9.8l.6.09Zm.35-5.34a2.43,2.43,0,0,0,0,.37,1.55,1.55,0,0,0,0,.48,1.14,1.14,0,0,0,.18.44.73.73,0,0,0,.92.15,1.19,1.19,0,0,0,.31-.36,2,2,0,0,0,.17-.46,2.74,2.74,0,0,0,.08-.36c0-.09,0-.21,0-.37a1.93,1.93,0,0,0,0-.48,1,1,0,0,0-.18-.43.57.57,0,0,0-.43-.25.61.61,0,0,0-.49.1,1,1,0,0,0-.31.35,1.54,1.54,0,0,0-.17.45A2.83,2.83,0,0,0,19.76,10.43ZM22,14.66a1.49,1.49,0,0,1,.24-.62,1.43,1.43,0,0,1,.48-.4,1.84,1.84,0,0,1,.64-.19,3.37,3.37,0,0,1,.77,0,2.89,2.89,0,0,1,.74.22,1.73,1.73,0,0,1,.56.38,1.51,1.51,0,0,1,.32.53,1.59,1.59,0,0,1,0,.66,1.39,1.39,0,0,1-.72,1,1.9,1.9,0,0,1-.65.19,2.87,2.87,0,0,1-.77,0,2.46,2.46,0,0,1-.74-.22,1.85,1.85,0,0,1-.55-.38,1.26,1.26,0,0,1-.32-.53A1.32,1.32,0,0,1,22,14.66Zm1.07.17a2.6,2.6,0,0,0,0,.36,1.71,1.71,0,0,0,0,.45,1.28,1.28,0,0,0,.19.41.66.66,0,0,0,.43.22.6.6,0,0,0,.48-.08.8.8,0,0,0,.3-.33,1.32,1.32,0,0,0,.17-.41,2.74,2.74,0,0,0,.08-.36c0-.08,0-.2,0-.35a1.66,1.66,0,0,0,0-.44,1,1,0,0,0-.19-.41.74.74,0,0,0-.9-.15,1.12,1.12,0,0,0-.32.33,2.09,2.09,0,0,0-.17.41C23.08,14.63,23.05,14.74,23,14.83Z"/><path class="cls-1" d="M5.71,19.26a3.72,3.72,0,0,1,.5-1.39,3.68,3.68,0,0,1,.94-1,3.67,3.67,0,0,1,2.76-.59,3.79,3.79,0,0,1,1.39.5,3.5,3.5,0,0,1,1,.93A3.44,3.44,0,0,1,12.89,19a3.85,3.85,0,0,1,0,1.48,3.8,3.8,0,0,1-.51,1.38,3.68,3.68,0,0,1-.94,1,3.38,3.38,0,0,1-1.27.56,3.62,3.62,0,0,1-1.47,0,3.77,3.77,0,0,1-1.4-.5,3.4,3.4,0,0,1-1-.94,3.46,3.46,0,0,1-.58-1.26A3.61,3.61,0,0,1,5.71,19.26Zm1.66,1.09a5.09,5.09,0,0,0,.38,1,4.42,4.42,0,0,0,.52.82,3,3,0,0,0,.63.56,1.57,1.57,0,0,0,.68.27,1.31,1.31,0,0,0,.59,0,1.42,1.42,0,0,0,.7-.44,2.21,2.21,0,0,0,.45-.83,3.52,3.52,0,0,0,.14-1.11,5.15,5.15,0,0,0-.18-1.31,5.34,5.34,0,0,0-.39-1,4.11,4.11,0,0,0-.52-.82,2.69,2.69,0,0,0-.62-.56,1.53,1.53,0,0,0-.67-.27,1.3,1.3,0,0,0-.59,0,1.52,1.52,0,0,0-.72.45,2.14,2.14,0,0,0-.45.83,3.74,3.74,0,0,0-.14,1.11A5.11,5.11,0,0,0,7.37,20.35Z"/><path class="cls-1" d="M13.62,24.12l1.13-7,4.6.74-.24,1.46a3.44,3.44,0,0,0-.31-.58,1.59,1.59,0,0,0-.36-.41,1.57,1.57,0,0,0-.49-.28,3.37,3.37,0,0,0-.68-.17l-1.15-.18a.36.36,0,0,0-.12.18,1.74,1.74,0,0,0-.05.22l-.4,2.48.79.13a1.62,1.62,0,0,0,.56,0,1.13,1.13,0,0,0,.56-.3l.09,0L17.3,22h-.05q-.15-.24-.3-.45l-.31-.32a.74.74,0,0,0-.35-.18l-.79-.13L15,24.34Z"/><path class="cls-1" d="M19.3,25l1.13-7,4.6.74-.23,1.46a5.93,5.93,0,0,0-.31-.58,1.59,1.59,0,0,0-.36-.41,1.69,1.69,0,0,0-.49-.28,3.48,3.48,0,0,0-.69-.17l-1.15-.18a.36.36,0,0,0-.12.18,1.7,1.7,0,0,0,0,.22l-.41,2.48.79.12a1.42,1.42,0,0,0,.57,0,1.18,1.18,0,0,0,.56-.3l.08,0L23,22.9h-.05a5,5,0,0,0-.3-.45,2.33,2.33,0,0,0-.31-.32.69.69,0,0,0-.35-.18l-.78-.13-.56,3.44Z"/><path class="cls-2" d="M15.61,31.2a15.22,15.22,0,0,1-2.5-.2,15.6,15.6,0,1,1,2.5.2ZM15.6.4A15.2,15.2,0,1,0,30.61,18h0A15.22,15.22,0,0,0,18,.59,15.49,15.49,0,0,0,15.6.4Z"/></g></g></svg>