<svg xmlns="http://www.w3.org/2000/svg" viewBox="0 0 288.37 43.72"><defs><style>.cls-1{fill:#007a76;}</style></defs><g id="Layer_2" data-name="Layer 2"><g id="Layer_1-2" data-name="Layer 1"><path class="cls-1" d="M6.39,17.71a6.57,6.57,0,0,1-3.76-1.05,5.74,5.74,0,0,1-2.23-3A9.56,9.56,0,0,1,.18,9,11.46,11.46,0,0,1,1.89,4.48,8.88,8.88,0,0,1,5,1.59a8.1,8.1,0,0,1,4-1A7.63,7.63,0,0,1,11.4,1a5.69,5.69,0,0,1,1.92,1.11,4.91,4.91,0,0,1,1.25,1.78A6.21,6.21,0,0,1,15,6.24H12.52a3.72,3.72,0,0,0-.31-1.44,3,3,0,0,0-.78-1,3.51,3.51,0,0,0-1.15-.65,4.3,4.3,0,0,0-1.41-.22,5.47,5.47,0,0,0-2.78.75A6.47,6.47,0,0,0,3.88,5.81,9.32,9.32,0,0,0,2.63,9.29a7.46,7.46,0,0,0,.08,3.37,3.74,3.74,0,0,0,1.4,2.06,4,4,0,0,0,2.39.7,6,6,0,0,0,1.59-.21,5.5,5.5,0,0,0,1.44-.64,5.1,5.1,0,0,0,1.18-1,4.82,4.82,0,0,0,.81-1.42h2.53a8.13,8.13,0,0,1-2.9,4A7.88,7.88,0,0,1,8.94,17.3,7.66,7.66,0,0,1,6.39,17.71Z"/><path class="cls-1" d="M20.34,17.75a5.28,5.28,0,0,1-3-.83,4.36,4.36,0,0,1-1.68-2.29,7.28,7.28,0,0,1-.17-3.43,8.45,8.45,0,0,1,1.25-3.36,6.78,6.78,0,0,1,2.36-2.23,6.37,6.37,0,0,1,3.16-.8,5.09,5.09,0,0,1,3,.83,4.4,4.4,0,0,1,1.68,2.3,7.22,7.22,0,0,1,.17,3.45,8.32,8.32,0,0,1-1.25,3.34A6.85,6.85,0,0,1,23.5,17,6.59,6.59,0,0,1,20.34,17.75Zm.14-2a3.56,3.56,0,0,0,2.05-.63A4.87,4.87,0,0,0,24,13.44a7.18,7.18,0,0,0,.74-2.25,6.09,6.09,0,0,0,0-2.17,3,3,0,0,0-.83-1.58,2.42,2.42,0,0,0-1.74-.59,3.43,3.43,0,0,0-2.05.62,4.83,4.83,0,0,0-1.43,1.66,7,7,0,0,0-.75,2.26,6.21,6.21,0,0,0,0,2.15,2.79,2.79,0,0,0,.83,1.57A2.52,2.52,0,0,0,20.48,15.71Z"/><path class="cls-1" d="M27.86,17.49,29.94,5h2.33L31.93,7h.17A4.12,4.12,0,0,1,33.65,5.4a4.23,4.23,0,0,1,2.22-.59,3.19,3.19,0,0,1,2,.59,2.74,2.74,0,0,1,1,1.63H39a4.46,4.46,0,0,1,1.69-1.62,4.92,4.92,0,0,1,2.43-.6A3.19,3.19,0,0,1,45.7,5.89a3.82,3.82,0,0,1,.56,3.21l-1.41,8.39H42.41l1.38-8.16a2,2,0,0,0-.4-1.84,2.26,2.26,0,0,0-1.56-.57,2.81,2.81,0,0,0-2,.73,3.09,3.09,0,0,0-1,1.86l-1.34,8H35.15l1.38-8.32a1.92,1.92,0,0,0-.36-1.63,2,2,0,0,0-1.55-.62,2.63,2.63,0,0,0-1.34.37,3.5,3.5,0,0,0-1.71,2.48L30.3,17.49Z"/><path class="cls-1" d="M55.21,5l-.32,2H47.82l.33-2ZM48,17.49l2.33-14a3.86,3.86,0,0,1,.83-1.94A4.06,4.06,0,0,1,52.7.41,4.77,4.77,0,0,1,54.59,0a5.72,5.72,0,0,1,2,.34l-.88,2-.42-.12a3.68,3.68,0,0,0-.64-.07,1.91,1.91,0,0,0-1.34.45,2.33,2.33,0,0,0-.61,1.27L50.43,17.49Z"/><path class="cls-1" d="M59.5,17.75a5.24,5.24,0,0,1-3-.83,4.31,4.31,0,0,1-1.68-2.29,7.15,7.15,0,0,1-.18-3.43,8.46,8.46,0,0,1,1.26-3.36,6.62,6.62,0,0,1,2.36-2.23,6.37,6.37,0,0,1,3.16-.8,5.08,5.08,0,0,1,3,.83,4.3,4.3,0,0,1,1.68,2.3,7.1,7.1,0,0,1,.17,3.45A8.32,8.32,0,0,1,65,14.73,6.76,6.76,0,0,1,62.65,17,6.52,6.52,0,0,1,59.5,17.75Zm.13-2a3.53,3.53,0,0,0,2-.63,4.76,4.76,0,0,0,1.43-1.64,6.7,6.7,0,0,0,.74-2.25,5.87,5.87,0,0,0,0-2.17A2.9,2.9,0,0,0,63,7.44a2.43,2.43,0,0,0-1.75-.59,3.38,3.38,0,0,0-2,.62,4.75,4.75,0,0,0-1.44,1.66,7,7,0,0,0-.74,2.26,6,6,0,0,0,0,2.15,2.84,2.84,0,0,0,.82,1.57A2.54,2.54,0,0,0,59.63,15.71Z"/><path class="cls-1" d="M67,17.49,69.09,5h2.36l-.34,2h.13a3.81,3.81,0,0,1,1.48-1.6,4,4,0,0,1,2.07-.59h.54l.49,0-.4,2.33a4.21,4.21,0,0,0-.5-.1,6.28,6.28,0,0,0-.75,0A3.53,3.53,0,0,0,71.34,8.4a3.15,3.15,0,0,0-.63,1.46l-1.26,7.63Z"/><path class="cls-1" d="M83.54,5l-.33,2H76.38l.33-2ZM79,2h2.44l-2,11.83a2,2,0,0,0,0,1.06.81.81,0,0,0,.48.48,2.38,2.38,0,0,0,.73.11,2.82,2.82,0,0,0,.52,0l.34-.07.13,2c-.16.05-.38.11-.66.17a4.71,4.71,0,0,1-1,.08,3.92,3.92,0,0,1-1.74-.34,2.39,2.39,0,0,1-1.15-1.11A3,3,0,0,1,77,14.31Z"/><path class="cls-1" d="M86.77,17.76a4.64,4.64,0,0,1-2.07-.44A2.89,2.89,0,0,1,83.39,16,3.32,3.32,0,0,1,83.17,14a3.67,3.67,0,0,1,2-2.83,7.36,7.36,0,0,1,1.65-.6c.59-.13,1.18-.23,1.79-.31S90,10.06,90.44,10a3.38,3.38,0,0,0,1.07-.28A.87.87,0,0,0,92,9.08V9a2,2,0,0,0-.31-1.64A2,2,0,0,0,90,6.8a3.66,3.66,0,0,0-3.26,1.73L84.56,8A5.38,5.38,0,0,1,86,6.16a6.16,6.16,0,0,1,2-1,7.52,7.52,0,0,1,2.2-.33A7.19,7.19,0,0,1,91.79,5a3.88,3.88,0,0,1,1.47.64,2.67,2.67,0,0,1,1,1.32,4.25,4.25,0,0,1,.09,2.23L93,17.49H90.6l.29-1.71h-.1a4.16,4.16,0,0,1-.85.91,4.67,4.67,0,0,1-1.34.77A5.09,5.09,0,0,1,86.77,17.76Zm.84-2a3.92,3.92,0,0,0,1.81-.4,3.61,3.61,0,0,0,1.27-1A3.39,3.39,0,0,0,91.3,13l.27-1.63a1.53,1.53,0,0,1-.55.23,5.82,5.82,0,0,1-.86.19l-1,.15-.76.1a7.62,7.62,0,0,0-1.33.3,2.68,2.68,0,0,0-1,.61,1.76,1.76,0,0,0-.52,1A1.31,1.31,0,0,0,86,15.35,2.59,2.59,0,0,0,87.61,15.81Z"/><path class="cls-1" d="M101.43,17.74a3.62,3.62,0,0,1-1.79-.4,2.72,2.72,0,0,1-1-.89,6.52,6.52,0,0,1-.49-.91H98l-.31,1.95H95.27L98,.81h2.44l-1,6.2h.13c.2-.26.45-.56.77-.91a4.43,4.43,0,0,1,1.26-.9,4.34,4.34,0,0,1,1.95-.39,4.28,4.28,0,0,1,2.57.77,4.11,4.11,0,0,1,1.5,2.2,7.67,7.67,0,0,1,.09,3.48,9,9,0,0,1-1.24,3.47A6.48,6.48,0,0,1,104.26,17,5.51,5.51,0,0,1,101.43,17.74Zm-.18-2.08a3.3,3.3,0,0,0,1.92-.58,4.49,4.49,0,0,0,1.36-1.58,7.51,7.51,0,0,0,.74-2.26,6,6,0,0,0,0-2.23,2.83,2.83,0,0,0-.84-1.55,2.54,2.54,0,0,0-1.75-.57,3.33,3.33,0,0,0-1.87.54A4.27,4.27,0,0,0,99.46,9a7,7,0,0,0-.75,2.29,6.38,6.38,0,0,0,0,2.31,2.72,2.72,0,0,0,.86,1.55A2.49,2.49,0,0,0,101.25,15.66Z"/><path class="cls-1" d="M114,17.75a5.58,5.58,0,0,1-3.11-.82,4.43,4.43,0,0,1-1.74-2.28,7.13,7.13,0,0,1-.19-3.43,8.68,8.68,0,0,1,1.24-3.34,6.83,6.83,0,0,1,2.32-2.25,6.07,6.07,0,0,1,3.11-.82,5.76,5.76,0,0,1,2,.36,4.21,4.21,0,0,1,1.66,1.12,4.37,4.37,0,0,1,1,2,7.4,7.4,0,0,1,0,2.9l-.14.82h-10l.3-1.83h8.71L118,10.7a5.33,5.33,0,0,0,0-2,2.34,2.34,0,0,0-.78-1.35,2.43,2.43,0,0,0-1.62-.49,3.69,3.69,0,0,0-1.94.52,4.43,4.43,0,0,0-1.43,1.36,4.57,4.57,0,0,0-.74,1.83l-.2,1.24a4.92,4.92,0,0,0,.07,2.16,2.33,2.33,0,0,0,1,1.34,3.09,3.09,0,0,0,1.76.46,3.9,3.9,0,0,0,1.35-.22,3.56,3.56,0,0,0,1.11-.62,3.63,3.63,0,0,0,.81-1l2.25.52a5.34,5.34,0,0,1-1.25,1.75,5.69,5.69,0,0,1-1.91,1.16A6.85,6.85,0,0,1,114,17.75Z"/><path class="cls-1" d="M126.15.81,123.4,17.49H121L123.73.81Z"/><path class="cls-1" d="M131.21,17.75a5.54,5.54,0,0,1-3.1-.82,4.33,4.33,0,0,1-1.74-2.28,7.12,7.12,0,0,1-.2-3.43,8.84,8.84,0,0,1,1.24-3.34,6.83,6.83,0,0,1,2.32-2.25,6.07,6.07,0,0,1,3.11-.82,5.86,5.86,0,0,1,2,.36,4.25,4.25,0,0,1,1.65,1.12,4.37,4.37,0,0,1,1,2,7.4,7.4,0,0,1,0,2.9l-.14.82h-9.95l.3-1.83h8.71l-1.24.56a5.33,5.33,0,0,0,0-2,2.34,2.34,0,0,0-.78-1.35,2.43,2.43,0,0,0-1.62-.49,3.69,3.69,0,0,0-1.94.52,4.61,4.61,0,0,0-2.16,3.19l-.21,1.24a4.92,4.92,0,0,0,.07,2.16,2.33,2.33,0,0,0,1,1.34,3.11,3.11,0,0,0,1.76.46,3.9,3.9,0,0,0,1.35-.22,3.35,3.35,0,0,0,1.11-.62,3.46,3.46,0,0,0,.81-1l2.25.52a5.2,5.2,0,0,1-1.25,1.75,5.69,5.69,0,0,1-1.91,1.16A6.85,6.85,0,0,1,131.21,17.75Z"/><path class="cls-1" d="M150.24,5V7.26h-7.18V5Zm-5.42-3h2.94V13.73a1.56,1.56,0,0,0,.33,1.09,1.35,1.35,0,0,0,1,.35l.42,0,.43-.08.5,2.31a7.21,7.21,0,0,1-1.91.29,3.88,3.88,0,0,1-2.75-.93,3.26,3.26,0,0,1-1-2.52Z"/><path class="cls-1" d="M159.83,12.24V5h2.95V17.49h-2.86V15.26h-.13A3.9,3.9,0,0,1,158.4,17a4.57,4.57,0,0,1-4.54.11,3.69,3.69,0,0,1-1.47-1.6,5.7,5.7,0,0,1-.53-2.56V5h2.94V12.5a2.65,2.65,0,0,0,.66,1.88,2.2,2.2,0,0,0,1.72.69,2.73,2.73,0,0,0,1.26-.31,2.64,2.64,0,0,0,1-.94A3,3,0,0,0,159.83,12.24Z"/><path class="cls-1" d="M166.43,3.21a1.67,1.67,0,0,1-1.21-.47,1.48,1.48,0,0,1-.51-1.13,1.48,1.48,0,0,1,.51-1.14A1.72,1.72,0,0,1,166.43,0a1.69,1.69,0,0,1,1.19.47,1.48,1.48,0,0,1,.51,1.13,1.48,1.48,0,0,1-.51,1.14A1.64,1.64,0,0,1,166.43,3.21ZM165,17.49V5h2.94V17.49Z"/><path class="cls-1" d="M173,10.17v7.32h-2.94V5H173V7.11h.15a3.56,3.56,0,0,1,1.34-1.67,4,4,0,0,1,2.32-.63,4.53,4.53,0,0,1,2.26.55A3.72,3.72,0,0,1,180.52,7a5.73,5.73,0,0,1,.53,2.56v8h-3V10a2.83,2.83,0,0,0-.64-2,2.35,2.35,0,0,0-1.8-.71,2.7,2.7,0,0,0-1.37.34,2.32,2.32,0,0,0-.94,1A3.17,3.17,0,0,0,173,10.17Z"/><path class="cls-1" d="M186.17,10.17v7.32h-2.95V.81h2.88v6.3h.16a3.62,3.62,0,0,1,1.35-1.68A4.16,4.16,0,0,1,190,4.81a4.59,4.59,0,0,1,2.27.55A3.77,3.77,0,0,1,193.75,7a5.74,5.74,0,0,1,.53,2.57v8h-2.95V10a2.83,2.83,0,0,0-.65-2,2.34,2.34,0,0,0-1.81-.7,2.79,2.79,0,0,0-1.4.34,2.36,2.36,0,0,0-1,1A3.17,3.17,0,0,0,186.17,10.17Z"/><path class="cls-1" d="M204.43,12.24V5h2.94V17.49h-2.85V15.26h-.14A3.81,3.81,0,0,1,203,17a4.57,4.57,0,0,1-4.54.11A3.63,3.63,0,0,1,197,15.5a5.57,5.57,0,0,1-.53-2.56V5h2.94V12.5a2.65,2.65,0,0,0,.66,1.88,2.18,2.18,0,0,0,1.71.69,2.67,2.67,0,0,0,1.26-.31,2.6,2.6,0,0,0,1-.94A3,3,0,0,0,204.43,12.24Z"/><path class="cls-1" d="M211,3.21a1.69,1.69,0,0,1-1.21-.47,1.5,1.5,0,0,1-.5-1.13,1.51,1.51,0,0,1,.5-1.14A1.73,1.73,0,0,1,211,0a1.71,1.71,0,0,1,1.2.47,1.47,1.47,0,0,1,.5,1.13,1.47,1.47,0,0,1-.5,1.14A1.67,1.67,0,0,1,211,3.21Zm-1.48,14.28V5h3V17.49Z"/><path class="cls-1" d="M214.51,17.49V15.62l6.43-8.1V7.41h-6.23V5h9.84V7l-6.13,7.94v.11h6.34v2.44Z"/><path class="cls-1" d="M231.87,17.74a6.46,6.46,0,0,1-3.25-.79,5.29,5.29,0,0,1-2.1-2.24,7.51,7.51,0,0,1-.73-3.4,7.47,7.47,0,0,1,.73-3.4,5.53,5.53,0,0,1,2-2.28,5.84,5.84,0,0,1,3.11-.82,6.62,6.62,0,0,1,2.19.37,5.15,5.15,0,0,1,1.84,1.15,5.29,5.29,0,0,1,1.25,2,7.83,7.83,0,0,1,.46,2.84v.92H227.17v-2H236l-1.38.58a5,5,0,0,0-.32-1.86,2.77,2.77,0,0,0-1-1.23,2.67,2.67,0,0,0-1.59-.45,2.78,2.78,0,0,0-2.64,1.65,4.05,4.05,0,0,0-.35,1.69v1.37a4.5,4.5,0,0,0,.4,2A2.85,2.85,0,0,0,230.23,15a3.19,3.19,0,0,0,1.69.43,3.45,3.45,0,0,0,1.14-.18,2.41,2.41,0,0,0,.9-.54,2.45,2.45,0,0,0,.58-.9l2.75.32a4.39,4.39,0,0,1-1,1.9,4.7,4.7,0,0,1-1.85,1.25A6.91,6.91,0,0,1,231.87,17.74Z"/><path class="cls-1" d="M242,10.17v7.32h-3V5h2.89V7.11h.15a3.56,3.56,0,0,1,1.34-1.67,4,4,0,0,1,2.32-.63,4.53,4.53,0,0,1,2.26.55A3.78,3.78,0,0,1,249.47,7,5.73,5.73,0,0,1,250,9.53v8h-2.95V10a2.79,2.79,0,0,0-.65-2,2.31,2.31,0,0,0-1.79-.71,2.7,2.7,0,0,0-1.37.34,2.32,2.32,0,0,0-.94,1A3.17,3.17,0,0,0,242,10.17Z"/><path class="cls-1" d="M252,21.78,253,15h3l-2,6.77Z"/><path class="cls-1" d="M.08,38.77V26.25H2.93v2.11h.14a3,3,0,0,1,1.17-1.69,3.28,3.28,0,0,1,1.92-.59l.54,0a4.87,4.87,0,0,1,.51.05v2.71a3.29,3.29,0,0,0-.59-.11,7.11,7.11,0,0,0-.78-.05,3,3,0,0,0-1.45.35,2.54,2.54,0,0,0-1,1A2.65,2.65,0,0,0,3,31.42v7.35Z"/><path class="cls-1" d="M13.35,39a6.44,6.44,0,0,1-3.25-.79A5.29,5.29,0,0,1,8,36a7.38,7.38,0,0,1-.73-3.4A7.6,7.6,0,0,1,8,29.19a5.6,5.6,0,0,1,2-2.28,5.85,5.85,0,0,1,3.12-.82,6.61,6.61,0,0,1,2.18.37,5,5,0,0,1,1.84,1.15,5.43,5.43,0,0,1,1.26,2,7.83,7.83,0,0,1,.46,2.84v.92H8.64v-2h8.79l-1.37.58a4.83,4.83,0,0,0-.33-1.86,2.82,2.82,0,0,0-1-1.23,2.71,2.71,0,0,0-1.59-.45A2.75,2.75,0,0,0,10.54,30a3.87,3.87,0,0,0-.35,1.69V33.1a4.37,4.37,0,0,0,.4,2,2.74,2.74,0,0,0,1.12,1.23,3.18,3.18,0,0,0,1.68.43,3.51,3.51,0,0,0,1.15-.18,2.37,2.37,0,0,0,.89-.54,2.33,2.33,0,0,0,.58-.9l2.76.32a4.3,4.3,0,0,1-1,1.9,4.66,4.66,0,0,1-1.84,1.25A6.91,6.91,0,0,1,13.35,39Z"/><path class="cls-1" d="M25.94,39a6,6,0,0,1-3.21-.83,5.42,5.42,0,0,1-2.06-2.28,8.13,8.13,0,0,1,0-6.71,5.57,5.57,0,0,1,2.07-2.28,5.94,5.94,0,0,1,3.17-.83,6.28,6.28,0,0,1,2.71.56,4.64,4.64,0,0,1,2.68,4H28.48a2.83,2.83,0,0,0-.43-1.09,2.3,2.3,0,0,0-.85-.76A2.55,2.55,0,0,0,26,28.47a2.6,2.6,0,0,0-1.58.49,3.17,3.17,0,0,0-1.06,1.39,5.65,5.65,0,0,0-.38,2.17,5.82,5.82,0,0,0,.37,2.2,3.18,3.18,0,0,0,1.05,1.42,2.6,2.6,0,0,0,1.6.5,2.52,2.52,0,0,0,1.66-.57,2.59,2.59,0,0,0,.86-1.58h2.83a4.77,4.77,0,0,1-.79,2.35,4.66,4.66,0,0,1-1.85,1.6A6.1,6.1,0,0,1,25.94,39Z"/><path class="cls-1" d="M32.9,38.77V26.25h2.85v2.11h.13a3.09,3.09,0,0,1,1.18-1.69A3.28,3.28,0,0,1,39,26.08l.54,0,.51.05v2.71a3.44,3.44,0,0,0-.6-.11,6.78,6.78,0,0,0-.77-.05,3,3,0,0,0-1.45.35,2.64,2.64,0,0,0-1,1,2.74,2.74,0,0,0-.36,1.41v7.35Z"/><path class="cls-1" d="M46.16,39a6.43,6.43,0,0,1-3.24-.79A5.29,5.29,0,0,1,40.82,36a7.38,7.38,0,0,1-.74-3.4,7.6,7.6,0,0,1,.73-3.4,5.6,5.6,0,0,1,2-2.28A5.84,5.84,0,0,1,46,26.09a6.62,6.62,0,0,1,2.19.37A5.15,5.15,0,0,1,50,27.61a5.43,5.43,0,0,1,1.26,2,8,8,0,0,1,.46,2.84v.92H41.46v-2h8.79l-1.38.58a5,5,0,0,0-.32-1.86,2.82,2.82,0,0,0-1-1.23A2.71,2.71,0,0,0,46,28.39,2.78,2.78,0,0,0,43.35,30,4,4,0,0,0,43,31.73V33.1a4.51,4.51,0,0,0,.39,2,2.85,2.85,0,0,0,1.12,1.23,3.22,3.22,0,0,0,1.69.43,3.51,3.51,0,0,0,1.15-.18,2.35,2.35,0,0,0,1.47-1.44l2.75.32a4.39,4.39,0,0,1-1,1.9,4.7,4.7,0,0,1-1.85,1.25A6.91,6.91,0,0,1,46.16,39Z"/><path class="cls-1" d="M56.91,39a5.29,5.29,0,0,1-2.15-.43,3.53,3.53,0,0,1-1.5-1.28,3.75,3.75,0,0,1-.55-2.07,3.4,3.4,0,0,1,.4-1.74,2.9,2.9,0,0,1,1.06-1.11,5.48,5.48,0,0,1,1.53-.63,11.36,11.36,0,0,1,1.76-.31l1.79-.21a2.31,2.31,0,0,0,1-.3.68.68,0,0,0,.31-.62v-.06A1.85,1.85,0,0,0,60,28.86a2.17,2.17,0,0,0-1.56-.5,2.77,2.77,0,0,0-1.72.47,2.34,2.34,0,0,0-.86,1.11l-2.74-.4a4.38,4.38,0,0,1,1.07-1.91A4.8,4.8,0,0,1,56,26.48a7,7,0,0,1,2.39-.39,7.75,7.75,0,0,1,1.79.21,5,5,0,0,1,1.65.7,3.64,3.64,0,0,1,1.2,1.32,4.34,4.34,0,0,1,.45,2.07v8.38H60.67V37h-.09a3.38,3.38,0,0,1-.75,1,3.74,3.74,0,0,1-1.21.74A4.86,4.86,0,0,1,56.91,39Zm.75-2.18a3.17,3.17,0,0,0,1.55-.35,2.52,2.52,0,0,0,1-.94,2.4,2.4,0,0,0,.36-1.28V32.81a1.22,1.22,0,0,1-.47.21,7.53,7.53,0,0,1-.74.17c-.27.06-.54.1-.81.14l-.69.09a5.51,5.51,0,0,0-1.18.29,2.08,2.08,0,0,0-.82.57,1.58,1.58,0,0,0,.29,2.16A2.56,2.56,0,0,0,57.66,36.85Z"/><path class="cls-1" d="M71.93,26.25v2.29H64.75V26.25Zm-5.42-3h2.94V35a1.56,1.56,0,0,0,.33,1.09,1.35,1.35,0,0,0,1,.35l.42,0,.43-.08.5,2.31a7.21,7.21,0,0,1-1.91.29A3.88,3.88,0,0,1,67.5,38a3.26,3.26,0,0,1-1-2.52Z"/><path class="cls-1" d="M75,24.49A1.69,1.69,0,0,1,73.82,24a1.54,1.54,0,0,1,0-2.27,1.78,1.78,0,0,1,2.41,0,1.54,1.54,0,0,1,0,2.27A1.68,1.68,0,0,1,75,24.49ZM73.55,38.77V26.25h3V38.77Z"/><path class="cls-1" d="M84.21,39A6.46,6.46,0,0,1,81,38.23,5.29,5.29,0,0,1,78.86,36a7.38,7.38,0,0,1-.73-3.4,7.47,7.47,0,0,1,.73-3.4,5.53,5.53,0,0,1,2-2.28A5.84,5.84,0,0,1,84,26.09a6.62,6.62,0,0,1,2.19.37A5,5,0,0,1,88,27.61a5.18,5.18,0,0,1,1.26,2,7.83,7.83,0,0,1,.46,2.84v.92H79.51v-2H88.3l-1.38.58a4.83,4.83,0,0,0-.33-1.86A2.58,2.58,0,0,0,84,28.39,2.78,2.78,0,0,0,81.4,30a4,4,0,0,0-.35,1.69V33.1a4.37,4.37,0,0,0,.4,2,2.79,2.79,0,0,0,1.12,1.23,3.18,3.18,0,0,0,1.68.43,3.51,3.51,0,0,0,1.15-.18,2.41,2.41,0,0,0,.9-.54,2.31,2.31,0,0,0,.57-.9l2.76.32a4.39,4.39,0,0,1-1,1.9,4.7,4.7,0,0,1-1.85,1.25A6.91,6.91,0,0,1,84.21,39Z"/><path class="cls-1" d="M98.92,30.62V33h-7.5V30.62Z"/><path class="cls-1" d="M111.54,39a6.46,6.46,0,0,1-3.25-.79,5.29,5.29,0,0,1-2.1-2.24,7.51,7.51,0,0,1-.73-3.4,7.47,7.47,0,0,1,.73-3.4,5.53,5.53,0,0,1,2-2.28,5.84,5.84,0,0,1,3.11-.82,6.62,6.62,0,0,1,2.19.37,5,5,0,0,1,1.83,1.15,5.18,5.18,0,0,1,1.26,2,7.83,7.83,0,0,1,.46,2.84v.92H106.84v-2h8.79l-1.38.58a5,5,0,0,0-.32-1.86,2.77,2.77,0,0,0-1-1.23,2.67,2.67,0,0,0-1.59-.45A2.78,2.78,0,0,0,108.73,30a4,4,0,0,0-.35,1.69V33.1a4.5,4.5,0,0,0,.4,2,2.85,2.85,0,0,0,1.12,1.23,3.18,3.18,0,0,0,1.68.43,3.47,3.47,0,0,0,1.15-.18,2.41,2.41,0,0,0,.9-.54,2.45,2.45,0,0,0,.58-.9l2.75.32a4.39,4.39,0,0,1-1,1.9,4.7,4.7,0,0,1-1.85,1.25A6.91,6.91,0,0,1,111.54,39Z"/><path class="cls-1" d="M121.63,31.45v7.32h-2.95V26.25h2.89v2.14h.15a3.56,3.56,0,0,1,1.34-1.67,4,4,0,0,1,2.32-.63,4.53,4.53,0,0,1,2.26.55,3.78,3.78,0,0,1,1.5,1.61,5.73,5.73,0,0,1,.53,2.56v8h-2.95v-7.5a2.79,2.79,0,0,0-.65-2,2.31,2.31,0,0,0-1.79-.71,2.7,2.7,0,0,0-1.37.34,2.32,2.32,0,0,0-.94,1A3.17,3.17,0,0,0,121.63,31.45Z"/><path class="cls-1" d="M136.52,38.77V36.9L143,28.8v-.11h-6.24V26.25h9.84v2l-6.12,7.94v.11h6.34v2.44Z"/><path class="cls-1" d="M153.8,39a6,6,0,0,1-3.18-.81A5.41,5.41,0,0,1,148.54,36a7.41,7.41,0,0,1-.73-3.38,7.44,7.44,0,0,1,.73-3.4,5.38,5.38,0,0,1,2.08-2.27,6.65,6.65,0,0,1,6.36,0,5.45,5.45,0,0,1,2.08,2.27,8.13,8.13,0,0,1,0,6.78A5.48,5.48,0,0,1,157,38.21,6.06,6.06,0,0,1,153.8,39Zm0-2.38a2.57,2.57,0,0,0,1.68-.54,3.25,3.25,0,0,0,1-1.47,6.14,6.14,0,0,0,.33-2.06,6.24,6.24,0,0,0-.33-2.09,3.25,3.25,0,0,0-1-1.47,2.87,2.87,0,0,0-3.35,0,3.19,3.19,0,0,0-1,1.47,6.24,6.24,0,0,0-.33,2.09,6.14,6.14,0,0,0,.33,2.06,3.19,3.19,0,0,0,1,1.47A2.58,2.58,0,0,0,153.8,36.64Z"/><path class="cls-1" d="M161.42,38.77V26.25h2.86v2.11h.13a3.09,3.09,0,0,1,1.18-1.69,3.27,3.27,0,0,1,1.91-.59l.54,0a4.87,4.87,0,0,1,.51.05v2.71a3.12,3.12,0,0,0-.59-.11,7.09,7.09,0,0,0-.77-.05,3,3,0,0,0-1.46.35,2.61,2.61,0,0,0-1,1,2.74,2.74,0,0,0-.36,1.41v7.35Z"/><path class="cls-1" d="M174.57,43.72a6.58,6.58,0,0,1-3.75-.93,4.12,4.12,0,0,1-1.76-2.23l2.64-.65a2.87,2.87,0,0,0,.53.73,2.55,2.55,0,0,0,.93.61,3.81,3.81,0,0,0,1.46.24,3.38,3.38,0,0,0,2.08-.61,2.31,2.31,0,0,0,.82-2V36.53h-.17a3.57,3.57,0,0,1-.64.92,3.7,3.7,0,0,1-1.15.81,4.32,4.32,0,0,1-1.8.33,5.09,5.09,0,0,1-2.6-.68,4.86,4.86,0,0,1-1.86-2,7.44,7.44,0,0,1-.69-3.39A8,8,0,0,1,169.3,29a5.21,5.21,0,0,1,1.86-2.16,4.87,4.87,0,0,1,2.62-.74,4.06,4.06,0,0,1,1.82.37,3.74,3.74,0,0,1,1.14.89,6.44,6.44,0,0,1,.66,1h.16V26.25h2.87V39a4.37,4.37,0,0,1-.76,2.65,4.48,4.48,0,0,1-2.09,1.58A8.33,8.33,0,0,1,174.57,43.72Zm0-7.45a2.59,2.59,0,0,0,2.18-1,4.58,4.58,0,0,0,.76-2.81,5.91,5.91,0,0,0-.33-2.07,3,3,0,0,0-1-1.37,2.62,2.62,0,0,0-1.61-.5,2.56,2.56,0,0,0-1.65.52,3.08,3.08,0,0,0-1,1.4,5.82,5.82,0,0,0-.33,2,5.39,5.39,0,0,0,.34,2,2.92,2.92,0,0,0,1,1.34A2.78,2.78,0,0,0,174.59,36.27Z"/><path class="cls-1" d="M185.19,38.77l-3.54-12.52h3l2.21,8.8H187l2.25-8.8h3L194.44,35h.11l2.17-8.77h3L196.2,38.77h-3.08l-2.35-8.45h-.16l-2.35,8.45Z"/><path class="cls-1" d="M206.06,39a6.06,6.06,0,0,1-3.18-.81A5.39,5.39,0,0,1,200.81,36a8.13,8.13,0,0,1,0-6.78,5.36,5.36,0,0,1,2.07-2.27,6.65,6.65,0,0,1,6.36,0,5.47,5.47,0,0,1,2.09,2.27,7.44,7.44,0,0,1,.73,3.4,7.41,7.41,0,0,1-.73,3.38,5.5,5.5,0,0,1-2.09,2.26A6,6,0,0,1,206.06,39Zm0-2.38a2.57,2.57,0,0,0,1.68-.54,3.25,3.25,0,0,0,1-1.47,6.14,6.14,0,0,0,.33-2.06,6.24,6.24,0,0,0-.33-2.09,3.25,3.25,0,0,0-1-1.47,2.57,2.57,0,0,0-1.68-.54,2.59,2.59,0,0,0-1.67.54,3.27,3.27,0,0,0-1,1.47,6.24,6.24,0,0,0-.33,2.09,6.14,6.14,0,0,0,.33,2.06,3.27,3.27,0,0,0,1,1.47A2.59,2.59,0,0,0,206.06,36.64Z"/><path class="cls-1" d="M216.63,31.45v7.32h-2.94V26.25h2.89v2.14h.14a3.63,3.63,0,0,1,1.34-1.67,4,4,0,0,1,2.32-.63,4.53,4.53,0,0,1,2.26.55,3.66,3.66,0,0,1,1.5,1.61,5.73,5.73,0,0,1,.53,2.56v8h-2.94v-7.5a2.84,2.84,0,0,0-.65-2,2.33,2.33,0,0,0-1.79-.71,2.72,2.72,0,0,0-1.38.34,2.32,2.32,0,0,0-.94,1A3.29,3.29,0,0,0,216.63,31.45Z"/><path class="cls-1" d="M228.32,24.49a1.69,1.69,0,0,1-1.21-.47,1.54,1.54,0,0,1,0-2.27,1.78,1.78,0,0,1,2.41,0,1.54,1.54,0,0,1,0,2.27A1.68,1.68,0,0,1,228.32,24.49Zm-1.48,14.28V26.25h2.95V38.77Z"/><path class="cls-1" d="M234.91,31.45v7.32H232V26.25h2.89v2.14H235a3.63,3.63,0,0,1,1.34-1.67,4,4,0,0,1,2.33-.63,4.56,4.56,0,0,1,2.26.55,3.7,3.7,0,0,1,1.49,1.61,5.6,5.6,0,0,1,.53,2.56v8H240v-7.5a2.84,2.84,0,0,0-.65-2,2.31,2.31,0,0,0-1.79-.71,2.68,2.68,0,0,0-1.37.34,2.26,2.26,0,0,0-.94,1A3.17,3.17,0,0,0,234.91,31.45Z"/><path class="cls-1" d="M250.54,43.72a6.64,6.64,0,0,1-3.76-.93A4.1,4.1,0,0,1,245,40.56l2.64-.65a2.65,2.65,0,0,0,.53.73,2.6,2.6,0,0,0,.92.61,3.9,3.9,0,0,0,1.47.24,3.38,3.38,0,0,0,2.08-.61,2.31,2.31,0,0,0,.82-2V36.53h-.17a3.63,3.63,0,0,1-.65.92,3.54,3.54,0,0,1-1.14.81,4.32,4.32,0,0,1-1.8.33,5.09,5.09,0,0,1-2.6-.68,4.86,4.86,0,0,1-1.86-2,7.44,7.44,0,0,1-.69-3.39,8,8,0,0,1,.69-3.49,5.21,5.21,0,0,1,1.86-2.16,4.87,4.87,0,0,1,2.62-.74,4.06,4.06,0,0,1,1.82.37,3.86,3.86,0,0,1,1.14.89,6.44,6.44,0,0,1,.66,1h.16V26.25h2.87V39a4.37,4.37,0,0,1-.76,2.65,4.53,4.53,0,0,1-2.09,1.58A8.33,8.33,0,0,1,250.54,43.72Zm0-7.45a2.6,2.6,0,0,0,2.18-1,4.58,4.58,0,0,0,.76-2.81,5.91,5.91,0,0,0-.33-2.07,3,3,0,0,0-1-1.37,2.62,2.62,0,0,0-1.61-.5,2.56,2.56,0,0,0-1.65.52,3.08,3.08,0,0,0-1,1.4,5.82,5.82,0,0,0-.33,2,5.39,5.39,0,0,0,.34,2,2.85,2.85,0,0,0,1,1.34A2.78,2.78,0,0,0,250.56,36.27Z"/><path class="cls-1" d="M264.12,39a6.44,6.44,0,0,1-3.25-.79,5.29,5.29,0,0,1-2.1-2.24,7.38,7.38,0,0,1-.73-3.4,7.47,7.47,0,0,1,.73-3.4,5.5,5.5,0,0,1,2-2.28,5.88,5.88,0,0,1,3.12-.82,6.62,6.62,0,0,1,2.19.37A5,5,0,0,1,268,27.61a5.18,5.18,0,0,1,1.26,2,7.83,7.83,0,0,1,.46,2.84v.92H259.42v-2h8.78l-1.37.58a4.83,4.83,0,0,0-.33-1.86,2.75,2.75,0,0,0-1-1.23,2.71,2.71,0,0,0-1.59-.45A2.78,2.78,0,0,0,261.31,30a4,4,0,0,0-.35,1.69V33.1a4.37,4.37,0,0,0,.4,2,2.79,2.79,0,0,0,1.12,1.23,3.18,3.18,0,0,0,1.68.43,3.51,3.51,0,0,0,1.15-.18,2.41,2.41,0,0,0,.9-.54,2.31,2.31,0,0,0,.57-.9l2.76.32a4.39,4.39,0,0,1-1,1.9,4.77,4.77,0,0,1-1.85,1.25A6.91,6.91,0,0,1,264.12,39Z"/><path class="cls-1" d="M274.21,31.45v7.32h-2.95V26.25h2.89v2.14h.14a3.63,3.63,0,0,1,1.34-1.67,4,4,0,0,1,2.33-.63,4.56,4.56,0,0,1,2.26.55,3.7,3.7,0,0,1,1.49,1.61,5.59,5.59,0,0,1,.54,2.56v8H279.3v-7.5a2.84,2.84,0,0,0-.65-2,2.31,2.31,0,0,0-1.79-.71,2.68,2.68,0,0,0-1.37.34,2.26,2.26,0,0,0-.94,1A3.17,3.17,0,0,0,274.21,31.45Z"/><path class="cls-1" d="M286.57,39a1.71,1.71,0,0,1-1.28-.52,1.79,1.79,0,0,1,0-2.54,1.71,1.71,0,0,1,1.28-.52,1.74,1.74,0,0,1,1.28.52,1.81,1.81,0,0,1,0,2.54A1.74,1.74,0,0,1,286.57,39Z"/></g></g></svg>