<svg width="88" height="26" viewBox="0 0 88 26" fill="none" xmlns="http://www.w3.org/2000/svg">
<path d="M84.3479 26C86.3649 26 88 24.3866 88 22.3964C88 20.4062 86.3649 18.7928 84.3479 18.7928C82.331 18.7928 80.6959 20.4062 80.6959 22.3964C80.6959 24.3866 82.331 26 84.3479 26Z" fill="#BE5272"/>
<path d="M80.6959 12.5762H77.5813C75.5761 12.5762 74.5028 14.0599 74.5028 16.5325V25.4705H68.5952V12.5762H66.0894C64.0842 12.5762 63.0109 14.0599 63.0109 16.5325V25.4705H57.1033V7.80693H63.0109V10.4919C63.9779 8.40753 65.3024 7.80693 67.2716 7.80693H74.5037V10.4919C75.4707 8.40753 76.7952 7.80693 78.7645 7.80693H80.6976V12.5762H80.6959ZM55.8139 18.0163H43.498C43.8204 19.9949 45.0729 21.125 47.1852 21.125C48.7601 21.125 49.8703 20.4889 50.2286 19.3587L55.4555 20.8069C54.167 23.8801 50.9805 25.753 47.1852 25.753C40.777 25.753 37.8408 20.8425 37.8408 16.6391C37.8408 12.506 40.4186 7.55993 46.8269 7.55993C53.6295 7.55993 55.885 12.5762 55.885 16.2855C55.8859 17.0976 55.8499 17.628 55.8139 18.0163ZM50.0855 14.5895C49.9423 13.0702 48.8321 11.6575 46.8278 11.6575C44.9657 11.6575 43.8564 12.4696 43.498 14.5895H50.0855ZM27.531 25.4705H32.7219L39.2022 7.8078H33.2594L30.1089 18.0873L26.8863 7.80693H20.9787L27.531 25.4705ZM3.32972 25.4705H9.20131V12.5762H14.7866V25.4705H20.6221V7.80693H9.20131V6.71233C9.20131 5.51113 10.0603 4.76927 11.4208 4.76927H14.7866V0H10.4547C6.19393 0 3.32972 2.5792 3.32972 6.35873V7.80693H0V12.5762H3.32972V25.4705Z" fill="#421300"/>
</svg>
