<svg width="236" height="75" viewBox="0 0 236 75" fill="none" xmlns="http://www.w3.org/2000/svg">
<path d="M8.88813 25.04V6.96C8.88813 4.32 9.28813 3.12 11.1281 2.08V2H0.648125V2.08C2.48813 3.12 2.88813 4.32 2.88813 6.96V25.04C2.88813 27.68 2.48813 28.88 0.648125 29.92V30H11.1281V29.92C9.28813 28.88 8.88813 27.68 8.88813 25.04ZM27.0531 23.04C26.5331 25.92 25.2531 27.52 23.3731 27.52C21.6931 27.52 20.8531 26.32 20.8531 24.04V11.36H26.7331L26.9331 10.32H20.8531V3.4H20.4531C19.3731 7.4 16.5331 10.2 12.7331 11V11.36H15.1331L15.0931 24C15.0531 28.32 17.4931 30.4 20.9731 30.4C25.3331 30.4 27.0131 27 27.4531 23.16L27.0531 23.04ZM44.4888 10.68C47.4488 10.68 50.2488 13.08 51.8888 16.44H51.9688V9.92C51.2488 10.52 50.6488 10.92 49.8088 10.92C48.4088 10.92 46.9688 9.92 44.4888 9.92C40.6488 9.92 37.5288 12.2 37.5288 15.84C37.5288 19.36 39.4888 21.32 44.2488 22.68C47.4488 23.56 49.3688 24.2 49.3688 26.36C49.3688 28.52 47.7287 29.68 45.6088 29.68C42.0088 29.68 39.4488 27.24 37.4088 23H37.3288L37.7688 30.4C38.2888 29.92 38.7688 29.48 39.6888 29.48C41.0488 29.48 42.8488 30.4 45.6088 30.4C49.9688 30.4 53.3688 28.08 53.3688 24.04C53.3688 20.44 51.3288 18.64 46.0888 17.16C42.2488 16.08 41.2088 15.4 41.2088 13.52C41.2088 11.88 42.4088 10.68 44.4888 10.68ZM69.2797 23.04C68.7597 25.92 67.4797 27.52 65.5997 27.52C63.9197 27.52 63.0797 26.32 63.0797 24.04V11.36H68.9597L69.1597 10.32H63.0797V3.4H62.6797C61.5997 7.4 58.7597 10.2 54.9597 11V11.36H57.3597L57.3197 24C57.2797 28.32 59.7197 30.4 63.1997 30.4C67.5597 30.4 69.2397 27 69.6797 23.16L69.2797 23.04ZM92.7075 28.48C92.4275 28.64 92.0275 28.72 91.7075 28.72C89.8275 28.72 89.3075 27.4 89.3075 24.92C89.3075 22.24 89.3875 19.72 89.3875 16.84C89.3875 11.92 86.1075 9.92 80.0675 9.92C75.4275 9.92 72.2275 12.08 72.2275 14.96C72.2275 16.92 73.7475 18.16 75.7075 18.16C77.3475 18.16 78.6275 17.44 79.1875 16C78.9475 16.08 78.7475 16.12 78.5075 16.12C77.3475 16.12 76.6275 15.28 76.6275 13.8C76.6275 12.08 77.6675 10.68 79.9475 10.68C82.6275 10.68 83.6275 12.84 83.6275 15.24V18.52L80.5875 19.08C75.7875 19.96 71.3075 20.88 71.3075 25.28C71.3075 28.68 73.9875 30.28 77.1475 30.28C80.5075 30.28 83.1075 28.16 83.6675 25.44C83.6675 25.72 83.7475 26.64 83.7475 26.8C84.0675 28.96 85.5075 30.36 88.3475 30.36C90.1475 30.36 91.8275 29.6 92.7075 28.56V28.48ZM83.6275 19.24L83.5475 23.12C83.5075 25.96 81.9075 27.92 79.7875 27.92C78.1075 27.92 77.0675 26.76 77.0675 24.48C77.0675 21.8 78.4275 20.32 81.5475 19.68L83.6275 19.24ZM106.303 17.28C106.543 17.52 107.063 17.72 107.703 17.72C109.503 17.72 111.343 16.36 111.343 13.72C111.343 11.52 109.703 9.92 107.263 9.92C103.703 9.92 101.823 13.2 100.863 16.88V10.32H92.8625V10.4C94.7425 11.4 95.1025 12.2 95.1025 14.76V25.64C95.1025 28.28 94.9025 28.92 93.1025 29.92V30H104.103V29.92C101.903 29.08 100.863 28.28 100.863 25.64V20.08C100.863 16.08 102.903 13.28 105.183 13.28C106.703 13.28 107.543 14.08 107.543 15.4C107.543 16.28 107.063 17 106.303 17.28ZM126.428 23.04C125.908 25.92 124.628 27.52 122.748 27.52C121.068 27.52 120.228 26.32 120.228 24.04V11.36H126.108L126.308 10.32H120.228V3.4H119.828C118.748 7.4 115.908 10.2 112.108 11V11.36H114.508L114.468 24C114.428 28.32 116.868 30.4 120.348 30.4C124.708 30.4 126.388 27 126.828 23.16L126.428 23.04ZM135.856 10.68C138.816 10.68 141.616 13.08 143.256 16.44H143.336V9.92C142.616 10.52 142.016 10.92 141.176 10.92C139.776 10.92 138.336 9.92 135.856 9.92C132.016 9.92 128.896 12.2 128.896 15.84C128.896 19.36 130.856 21.32 135.616 22.68C138.816 23.56 140.736 24.2 140.736 26.36C140.736 28.52 139.096 29.68 136.976 29.68C133.376 29.68 130.816 27.24 128.776 23H128.696L129.136 30.4C129.656 29.92 130.136 29.48 131.056 29.48C132.416 29.48 134.216 30.4 136.976 30.4C141.336 30.4 144.736 28.08 144.736 24.04C144.736 20.44 142.696 18.64 137.456 17.16C133.616 16.08 132.576 15.4 132.576 13.52C132.576 11.88 133.776 10.68 135.856 10.68ZM175.375 30.4H175.455L182.135 14.72C183.295 12.08 183.855 11.48 185.215 10.4V10.32H179.375V10.4C180.655 10.88 181.255 11.84 181.255 13C181.255 13.56 181.135 14.16 180.895 14.76L177.575 22.88L174.415 14.56C174.135 13.68 173.815 12.84 173.815 12.24C173.815 11.44 174.095 10.92 175.015 10.4V10.32H165.895V10.4C167.215 11.48 167.655 12.08 168.815 14.64L169.415 16.04L166.255 23.04L162.495 14.52C162.175 13.72 161.895 12.88 161.895 12.2C161.895 11.36 162.095 10.92 162.895 10.4V10.32H153.775V10.4C155.095 11.48 155.575 12.12 156.695 14.64L163.815 30.4H163.895L169.895 17.24L175.375 30.4ZM187.235 3.88C187.235 5.76 188.715 7.2 190.675 7.2C192.635 7.2 194.115 5.76 194.115 3.88C194.115 2 192.635 0.559998 190.675 0.559998C188.715 0.559998 187.235 2 187.235 3.88ZM193.675 10.32H185.675V10.4C187.555 11.4 187.915 12.2 187.915 14.76V25.64C187.915 28.28 187.715 28.92 185.915 29.92V30H195.715V29.92C193.915 28.92 193.675 28.28 193.675 25.64V10.32ZM211.077 23.04C210.557 25.92 209.277 27.52 207.397 27.52C205.717 27.52 204.877 26.32 204.877 24.04V11.36H210.757L210.957 10.32H204.877V3.4H204.477C203.397 7.4 200.557 10.2 196.757 11V11.36H199.157L199.117 24C199.077 28.32 201.517 30.4 204.997 30.4C209.357 30.4 211.037 27 211.477 23.16L211.077 23.04ZM212.504 0.0399995V0.119998C214.384 0.999999 214.904 1.92 214.904 4.44V25.64C214.904 28.28 214.704 28.92 212.864 29.92V30H222.704V29.92C220.864 28.92 220.664 28.28 220.664 25.64V18.96C220.664 15 222.424 12.8 224.904 12.8C227.264 12.8 228.184 14.64 228.184 16.88V25.64C228.184 28.28 227.984 28.92 226.144 29.92V30H235.984V29.92C234.144 28.92 233.944 28.28 233.944 25.64V16.88C233.944 12.72 231.704 9.92 227.624 9.92C224.224 9.92 221.664 12.04 220.664 15.68V0.0399995H212.504ZM40.1422 59.68C39.8222 56.16 37.7822 53.92 34.1422 53.92C30.7422 53.92 28.4622 56.04 27.5422 59.68V54.32H19.5422V54.4C21.4222 55.4 21.7822 56.2 21.7822 58.76V69.64C21.7822 72.28 21.5822 72.92 19.7822 73.92V74H29.5822V73.92C27.7822 72.92 27.5422 72.28 27.5422 69.64V62.96C27.5422 59 29.1022 56.8 31.4622 56.8C33.8222 56.8 34.4222 58.64 34.4222 60.88V69.64C34.4222 72.28 34.2222 72.92 32.4222 73.92V74H42.2222V73.92C40.4222 72.92 40.1822 72.28 40.1822 69.64V62.96C40.1822 59 41.7422 56.8 44.1022 56.8C46.4622 56.8 47.0622 58.64 47.0622 60.88V69.64C47.0622 72.28 46.8622 72.92 45.0622 73.92V74H54.8622V73.92C53.0622 72.92 52.8222 72.28 52.8222 69.64V60.88C52.8222 56.72 50.8622 53.92 46.7822 53.92C43.3822 53.92 41.0622 56.04 40.1422 59.68ZM67.0581 74.4C72.9781 74.4 77.6181 70.24 77.6181 64.16C77.6181 58.08 72.9781 53.92 67.0581 53.92C61.1781 53.92 56.5381 58.08 56.5381 64.16C56.5381 70.24 61.1781 74.4 67.0581 74.4ZM67.0581 73.68C64.1381 73.68 62.7381 70.04 62.7381 64.16C62.7381 58.28 64.1381 54.68 67.0581 54.68C70.0181 54.68 71.4181 58.28 71.4181 64.16C71.4181 70.04 70.0181 73.68 67.0581 73.68ZM92.8259 61.28C93.0659 61.52 93.5859 61.72 94.2259 61.72C96.0259 61.72 97.8659 60.36 97.8659 57.72C97.8659 55.52 96.2259 53.92 93.7859 53.92C90.2259 53.92 88.3459 57.2 87.3859 60.88V54.32H79.3859V54.4C81.2659 55.4 81.6259 56.2 81.6259 58.76V69.64C81.6259 72.28 81.4259 72.92 79.6259 73.92V74H90.6259V73.92C88.4259 73.08 87.3859 72.28 87.3859 69.64V64.08C87.3859 60.08 89.4259 57.28 91.7059 57.28C93.2259 57.28 94.0659 58.08 94.0659 59.4C94.0659 60.28 93.5859 61 92.8259 61.28ZM108.883 53.92C103.443 53.92 98.8428 58 98.8428 64.2C98.8428 70.68 103.403 74.4 108.923 74.4C113.403 74.4 116.803 71.96 117.803 67.72L117.563 67.6C116.363 70.4 114.043 71.68 111.403 71.68C107.323 71.68 104.683 68.4 104.683 63.32H117.883C117.883 57.96 115.043 53.92 108.883 53.92ZM104.723 62.48C104.883 57.76 106.483 54.68 108.843 54.68C111.723 54.68 112.203 58.16 112.203 62.48H104.723ZM213.999 71.24C213.999 69.44 212.639 68.08 210.919 68.08C209.159 68.08 207.799 69.44 207.799 71.24C207.799 72.96 209.159 74.36 210.919 74.36C212.639 74.36 213.999 72.96 213.999 71.24Z" fill="#421300"/>
<path d="M128.427 69.88C128.307 70.32 128.267 70.76 128.267 71.16C128.267 73.12 129.587 74.4 131.827 74.4C133.627 74.4 135.227 73.6 136.667 72.12L136.627 72.04C135.827 72.44 135.067 72.64 134.467 72.64C133.427 72.64 132.707 72.08 132.707 71.08C132.707 70.84 132.747 70.6 132.827 70.32L139.227 44.04H131.867V44.12C133.147 44.8 133.947 45.32 133.947 46.68C133.947 47.08 133.827 47.56 133.707 48.16L128.427 69.88ZM143.765 48C143.765 49.52 144.845 50.68 146.485 50.68C148.245 50.68 149.565 49.32 149.565 47.64C149.565 46.12 148.485 44.96 146.845 44.96C145.085 44.96 143.765 46.32 143.765 48ZM147.805 54.44H140.725V54.52C141.805 55.24 142.485 55.92 142.485 57.16C142.485 57.56 142.405 58 142.245 58.56L139.405 69.88C139.285 70.32 139.245 70.76 139.245 71.16C139.245 73.12 140.605 74.4 142.805 74.4C144.645 74.4 146.205 73.6 147.645 72.12V72.04C146.805 72.44 146.085 72.64 145.445 72.64C144.445 72.64 143.725 72.12 143.725 71.08C143.725 70.84 143.765 70.6 143.845 70.32L147.805 54.44ZM161.539 44.04H154.179V44.12C155.419 44.8 156.219 45.32 156.219 46.68C156.219 47.08 156.139 47.56 156.019 48.16L149.539 74H154.059L156.019 66.16C157.579 59.8 161.979 56.4 164.579 56.4C166.099 56.4 166.979 57.4 166.979 58.96C166.979 62.24 163.819 64.6 160.339 64.6C159.459 64.6 158.859 64.52 158.219 64.24L161.139 71.16C161.939 73.32 163.179 74.4 165.419 74.4C167.019 74.4 169.019 73.64 170.379 71.92V71.84C169.659 72.24 168.939 72.48 168.339 72.48C167.059 72.48 166.059 71.6 165.459 70.4L162.819 64.72C167.419 64 171.099 61.76 171.099 57.84C171.099 55.64 169.579 54.04 166.979 54.04C163.019 54.04 159.339 57.68 157.099 61.76L161.539 44.04ZM180.354 74.4C184.074 74.4 187.234 72.44 188.834 68.96H188.674C186.834 71.24 184.794 72.48 182.274 72.48C179.234 72.48 177.154 70.72 177.154 66.68C177.154 66.08 177.194 65.44 177.274 64.8C184.874 64.6 190.434 62.8 190.434 58.36C190.434 55.84 188.114 54.04 184.634 54.04C177.714 54.04 172.554 60.16 172.554 66.52C172.554 71.36 175.754 74.4 180.354 74.4ZM184.674 54.8C185.954 54.8 186.634 55.76 186.634 57.16C186.634 61.56 182.874 63.84 177.354 64.32C178.154 59.56 181.234 54.8 184.674 54.8ZM193.501 60.2C193.501 62.84 195.461 64.36 198.421 65.96C201.061 67.4 202.101 68.52 202.101 70.08C202.101 72.24 200.181 73.72 197.541 73.72C195.061 73.72 193.461 72.28 193.461 70.28C193.461 69.08 194.141 68.2 195.181 68.16C194.621 67.64 193.861 67.4 192.981 67.36C191.461 67.36 190.221 68.32 190.221 70C190.221 72.52 193.181 74.4 197.381 74.4C201.901 74.4 205.741 71.76 205.741 68C205.741 65.52 204.141 64.16 200.621 62.12C197.941 60.56 196.981 59.68 196.981 58.08C196.981 56.12 198.661 54.72 201.021 54.72C203.261 54.72 204.501 55.76 204.501 57.52C204.501 58.64 203.941 59.52 203.021 59.6C203.501 60.16 204.221 60.44 204.981 60.44C206.461 60.44 207.621 59.52 207.621 57.96C207.621 55.64 204.821 54.04 201.261 54.04C196.981 54.04 193.501 56.72 193.501 60.2Z" fill="#BE5272"/>
</svg>
