<svg xmlns="http://www.w3.org/2000/svg" viewBox="0 0 142.78 119.84"><defs><style>.cls-1{fill:#fff;}</style></defs><g id="Layer_2" data-name="Layer 2"><g id="Layer_1-2" data-name="Layer 1"><path class="cls-1" d="M9.13,24.25c-1,5,.33,9.27,5.28,9.27,2.94,0,7.37-1.09,8.08-4.76C24.11,20.49,3.57,20.73,5.85,9,7.23,1.9,15.64.24,21.3.24c6.42,0,12.55,2,11.51,9.65H25.58c.71-4,.33-8.23-4.71-8.23-3.66,0-6.94,2-7.7,5.85-1.43,7.42,19,8.47,17,18.74C29.24,31,21.58,35,14,35,7,35,.57,32.33,1.9,24.25Z"/><path class="cls-1" d="M43.27,34.47H40.41L34.23,11.65H41.6c-.19.95,3.09,15,3.52,16.88,6.37-9.37,5.51-15.41,2.76-16.88h9.65c-.19.95,3.09,15,3.52,16.88,6.37-9.37,5.51-15.41,2.76-16.88h9.65l-.1.47L59.19,34.47H56.34L52.44,20Z"/><path class="cls-1" d="M72.79,34.47l3.52-18.21c.57-2.85-.43-2.8-2.43-3l.15-.67,9.6-.76L79.21,34.47ZM77.07,5a8,8,0,0,1,.09-.85,5.18,5.18,0,0,1,5-4.14,3.14,3.14,0,0,1,3.42,3.23,8,8,0,0,1-.09.91,5.09,5.09,0,0,1-5,4.13A3.22,3.22,0,0,1,77.07,5Z"/><path class="cls-1" d="M93,34.47H86.53l3.76-19.3c.47-2.52-.38-2.43-2.52-2.67l.14-.66,9.6-.95-1,5.23c2.19-2.47,6.33-5,9.56-5,4.61,0,6.42,2.71,5.61,6.9l-3.18,16.4h-6.42l3.09-15.88c.43-2.19-.34-3.57-2.9-3.57a10.8,10.8,0,0,0-6,2.19Z"/><path class="cls-1" d="M138.69,11.32c.28-1.43-1.43-2.05-2.57-2.05a5.16,5.16,0,0,0-3.9,2.05c4.09,1.09,6.37,4,5.47,8.6-1.19,6-7.09,9.13-12.55,9.13a10.53,10.53,0,0,1-5.23-1.19,2.85,2.85,0,0,0-.91,1.33,1.16,1.16,0,0,0,.57,1.14c4.19,3,17-.8,15.31,7.66-1,5.42-7.51,8.32-13.36,8.32-5.47,0-10.46-2.52-9.51-8.37l5.33.05c-.91,4.61,1.42,6.85,4.33,6.85,3.66-.05,6.65-1.57,7.13-4.24.66-3.75-4.28-3.56-7.33-3.89s-7.46-.91-6.7-4.9c.48-2.38,2.28-3.52,4.52-4.33-2.57-1.61-3.47-4.33-2.81-7.56,1.14-5.94,7.23-9,12.55-9a15.28,15.28,0,0,1,2.14.14c1.76-2.9,5-6.75,8.66-6.75,1.66,0,3.28,1.23,2.9,3.09Zm-7.37,8.74c.52-2.61.61-7.84-2.81-7.84s-5.18,5.18-5.7,7.7-.62,7.8,2.75,7.8C129.08,27.72,130.79,22.63,131.32,20.06Z"/><path class="cls-1" d="M3.67,75.64V54.9H0V53.61H3.67v-4a7.33,7.33,0,0,1,.62-3.12A6.28,6.28,0,0,1,6,44.27a7,7,0,0,1,2.55-1.33,10.84,10.84,0,0,1,3.12-.44,14.76,14.76,0,0,1,2.38.21,7.26,7.26,0,0,1,2.41.83,5.42,5.42,0,0,1,1.91,1.79,6,6,0,0,1,.87,3.09l-5.05,1.52a10.54,10.54,0,0,0-.32-4.66,2.45,2.45,0,0,0-2.48-1.77,2.78,2.78,0,0,0-2.38,1,4,4,0,0,0-.79,2.54,7,7,0,0,0,.21,1.68c.14.56.3,1.12.48,1.67s.39,1.1.6,1.63.4,1,.55,1.54H17.3v1.24H10V75.64Z"/><path class="cls-1" d="M29.6,76.1a12.8,12.8,0,0,1-4.68-.85,11.47,11.47,0,0,1-3.74-2.37,10.81,10.81,0,0,1-2.5-3.62,11.53,11.53,0,0,1-.92-4.63,11.68,11.68,0,0,1,.92-4.69,10.89,10.89,0,0,1,6.24-6,13.61,13.61,0,0,1,9.36,0,10.89,10.89,0,0,1,6.24,6,11.68,11.68,0,0,1,.92,4.69,11.53,11.53,0,0,1-.92,4.63A10.81,10.81,0,0,1,38,72.88a11.36,11.36,0,0,1-3.74,2.37A12.8,12.8,0,0,1,29.6,76.1ZM32,74.35a3.68,3.68,0,0,0,2.39-1.76,8.26,8.26,0,0,0,1-3,15.89,15.89,0,0,0,.07-3.45A18.42,18.42,0,0,0,35,63.16c-.22-.89-.49-1.82-.83-2.8a15.74,15.74,0,0,0-1.26-2.76,7.32,7.32,0,0,0-1.86-2.11,4.26,4.26,0,0,0-2.62-.82,5.67,5.67,0,0,0-1.46.18,3.72,3.72,0,0,0-2.35,1.74,8.43,8.43,0,0,0-1,3,14.11,14.11,0,0,0-.09,3.44A18.38,18.38,0,0,0,24,66a17.84,17.84,0,0,0,.9,2.57,15.24,15.24,0,0,0,1.51,2.78,10,10,0,0,0,2.07,2.22,4,4,0,0,0,2.54.92A3.2,3.2,0,0,0,32,74.35Z"/><path class="cls-1" d="M46.35,75.64V57a4.54,4.54,0,0,0-.16-1.4,1.31,1.31,0,0,0-.5-.71,2,2,0,0,0-.92-.3l-1.36-.16v-.65l9.14-.91v5A11.53,11.53,0,0,1,54,56.16a13.37,13.37,0,0,1,2-1.63,10.85,10.85,0,0,1,2.22-1.2,6.55,6.55,0,0,1,2.37-.45,5.28,5.28,0,0,1,2.66.73l-1.38,7.21q-2.25-3.76-5-3.77a5.94,5.94,0,0,0-4.26,2.3V75.64Z"/><path class="cls-1" d="M87,72.56a8.49,8.49,0,0,1-2.84,2.57A6.77,6.77,0,0,1,81,76a5.25,5.25,0,0,1-2.61-.62,5.84,5.84,0,0,1-1.84-1.61,7,7,0,0,1-1.1-2.27A9.87,9.87,0,0,1,75,68.85V57a2.43,2.43,0,0,0-2.75-2.75h-.64v-.46l9.13-6.56h.46v6.42h5.41v1.24H81.23v14c0,.4,0,.87.07,1.4a6,6,0,0,0,.32,1.54,3.4,3.4,0,0,0,.73,1.24,1.71,1.71,0,0,0,1.31.5,5.64,5.64,0,0,0,3.08-1.37Z"/><path class="cls-1" d="M96.92,75.64H90.73V46.73a4.92,4.92,0,0,0-.16-1.4,1.33,1.33,0,0,0-.51-.71,1.92,1.92,0,0,0-.92-.3l-1.35-.16v-.65l9.13-.91V57.92a10.32,10.32,0,0,1,1.47-1.76,12.26,12.26,0,0,1,1.91-1.52,11.06,11.06,0,0,1,2.18-1.08,6.7,6.7,0,0,1,2.25-.41A5.91,5.91,0,0,1,109.45,55,7.19,7.19,0,0,1,111,59.81V75.64h-6.19V60.31a3.92,3.92,0,0,0-.74-2.52,2.84,2.84,0,0,0-2.38-.92,6.13,6.13,0,0,0-2.57.59A7.81,7.81,0,0,0,96.92,59Z"/><path class="cls-1" d="M124.73,69.81a9.36,9.36,0,0,0,2.64,1.65,7.81,7.81,0,0,0,3,.6,6.11,6.11,0,0,0,3.85-1.17,8.17,8.17,0,0,0,2.44-3.33l.36.28a12.17,12.17,0,0,1-3.35,5.94A8.8,8.8,0,0,1,127.44,76a12.35,12.35,0,0,1-7.09-2.23,11.64,11.64,0,0,1-2.68-2.61A10.07,10.07,0,0,1,116,67.7a14.42,14.42,0,0,1-.46-5.9,10.39,10.39,0,0,1,1.75-4.5,9.52,9.52,0,0,1,3.3-2.89,10.27,10.27,0,0,1,4.18-1.17,4,4,0,0,0,.48,0l.48,0a11.12,11.12,0,0,1,4.2.71,8.8,8.8,0,0,1,3,2,9.44,9.44,0,0,1,2,2.89,14,14,0,0,1,1,3.58Zm-.82-.73a13.84,13.84,0,0,0,3.85-3.45A8.74,8.74,0,0,0,129.41,62a7.31,7.31,0,0,0,0-2.68,7.07,7.07,0,0,0-.89-2.34,5.73,5.73,0,0,0-1.56-1.68,3.46,3.46,0,0,0-2-.64h-.23a5.21,5.21,0,0,0-2.09.53A3.88,3.88,0,0,0,121,56.69a5.83,5.83,0,0,0-.73,2.77,13.85,13.85,0,0,0,.59,4.29A11.28,11.28,0,0,0,122,66.6,12.22,12.22,0,0,0,123.91,69.08Z"/><path class="cls-1" d="M20.31,119.79,5.46,88.23v11.1c0,1.07.07,2.39.23,4a39.79,39.79,0,0,0,.85,5.14A41.89,41.89,0,0,0,8.21,114,24.39,24.39,0,0,0,11,119.33H3.76V82.83h6.73l13,27.92L35.27,82.83h6.17l.36,36.5h-7V88.85l-12.9,30.94Z"/><path class="cls-1" d="M60.76,119.84a14.07,14.07,0,0,1-5.24-1,12.65,12.65,0,0,1-4.19-2.64,12.42,12.42,0,0,1-2.8-4.07,12.76,12.76,0,0,1-1-5.19,12.93,12.93,0,0,1,1-5.24,12.28,12.28,0,0,1,2.8-4.06,12.45,12.45,0,0,1,4.19-2.62,15.23,15.23,0,0,1,10.48,0,12.45,12.45,0,0,1,4.19,2.62,12.13,12.13,0,0,1,2.8,4.06A12.93,12.93,0,0,1,74,107a12.76,12.76,0,0,1-1,5.19,12.27,12.27,0,0,1-2.8,4.07A12.65,12.65,0,0,1,66,118.89,14,14,0,0,1,60.76,119.84Zm2.73-2a4.15,4.15,0,0,0,2.67-2,9.27,9.27,0,0,0,1.13-3.42,17.05,17.05,0,0,0,.08-3.85,19.93,19.93,0,0,0-.54-3.29c-.24-1-.55-2-.93-3.14a17.6,17.6,0,0,0-1.41-3.08,8.12,8.12,0,0,0-2.08-2.37,4.8,4.8,0,0,0-2.93-.92,6.72,6.72,0,0,0-1.65.2,4.13,4.13,0,0,0-2.62,2,9.39,9.39,0,0,0-1.16,3.39,16.57,16.57,0,0,0-.1,3.86,20.12,20.12,0,0,0,.54,3.29,20.79,20.79,0,0,0,1,2.87,17.65,17.65,0,0,0,1.7,3.11A11.3,11.3,0,0,0,59.5,117a4.57,4.57,0,0,0,2.85,1A4.08,4.08,0,0,0,63.49,117.89Z"/><path class="cls-1" d="M90.26,119.84a14.07,14.07,0,0,1-5.24-1,12.27,12.27,0,0,1-7-6.71A12.93,12.93,0,0,1,77,107a13.1,13.1,0,0,1,1-5.24,12.18,12.18,0,0,1,7-6.68,15.26,15.26,0,0,1,10.49,0,12.18,12.18,0,0,1,7,6.68,13.1,13.1,0,0,1,1,5.24,12.93,12.93,0,0,1-1,5.19,12.58,12.58,0,0,1-2.8,4.07,12.76,12.76,0,0,1-4.19,2.64A14.08,14.08,0,0,1,90.26,119.84Zm2.73-2a4.13,4.13,0,0,0,2.67-2,9.27,9.27,0,0,0,1.13-3.42,17.05,17.05,0,0,0,.08-3.85,19.93,19.93,0,0,0-.54-3.29c-.24-1-.55-2-.93-3.14A16.25,16.25,0,0,0,94,99.13a8,8,0,0,0-2.08-2.37A4.78,4.78,0,0,0,89,95.84a6.78,6.78,0,0,0-1.65.2,4.16,4.16,0,0,0-2.62,2,9.38,9.38,0,0,0-1.15,3.39,16,16,0,0,0-.11,3.86,20.12,20.12,0,0,0,.54,3.29,19.72,19.72,0,0,0,1,2.87,17,17,0,0,0,1.69,3.11A11.3,11.3,0,0,0,89,117a4.58,4.58,0,0,0,2.86,1A4,4,0,0,0,93,117.89Z"/><path class="cls-1" d="M116,119.33H109V98.46a5.27,5.27,0,0,0-.18-1.57,1.43,1.43,0,0,0-.56-.79,2.36,2.36,0,0,0-1-.34l-1.51-.18v-.72l10.22-1v5.66a12.31,12.31,0,0,1,1.75-2,14,14,0,0,1,2.29-1.7,13.75,13.75,0,0,1,2.62-1.2,8.19,8.19,0,0,1,2.65-.47,7.33,7.33,0,0,1,5.63,2,7.69,7.69,0,0,1,1.87,5.43v17.73h-6.94V102.16a4.16,4.16,0,0,0-.9-2.83,3.83,3.83,0,0,0-3-1,8.47,8.47,0,0,0-3.22.66,9.63,9.63,0,0,0-2.75,1.7Z"/></g></g></svg>