<svg xmlns="http://www.w3.org/2000/svg" viewBox="0 0 258 42.94"><defs><style>.cls-1{fill:#0c0c0d;}.cls-2{fill:#fff;}</style></defs><g id="Layer_2" data-name="Layer 2"><g id="Layer_1-2" data-name="Layer 1"><rect class="cls-1" width="258" height="42.94" rx="21.47"/><path class="cls-2" d="M27.22,20.69a3,3,0,0,1-1.29,1.24,4.89,4.89,0,0,1-2.28.47h-2V27H19.78V15.73h3.87a4.8,4.8,0,0,1,2.19.45,3,3,0,0,1,1.34,1.2,3.27,3.27,0,0,1,.45,1.7A3.38,3.38,0,0,1,27.22,20.69Zm-2-.27a1.7,1.7,0,0,0,.52-1.34c0-1.23-.7-1.85-2.09-1.85h-2V20.9h2A2.23,2.23,0,0,0,25.22,20.42Z"/><path class="cls-2" d="M36.48,24.66h-4.7L31,27H29.05l4-11.24H35.2l4,11.24H37.29ZM36,23.16l-1.82-5.22L32.3,23.16Z"/><path class="cls-2" d="M47.12,27l-2.58-4.49H43.13V27H41.29V15.73h3.88a4.86,4.86,0,0,1,2.19.45,3.24,3.24,0,0,1,1.34,1.21,3.39,3.39,0,0,1,.44,1.7,3.36,3.36,0,0,1-.64,2,3.28,3.28,0,0,1-2,1.22L49.32,27Zm-4-6h2a2.12,2.12,0,0,0,1.56-.52,1.86,1.86,0,0,0,.52-1.39,1.79,1.79,0,0,0-.51-1.36,2.21,2.21,0,0,0-1.57-.5h-2Z"/><path class="cls-2" d="M58.43,15.73v1.5H53.67v3.32h3.71v1.5H53.67V27H51.82V15.73Z"/><path class="cls-2" d="M62.31,15.73V27H60.46V15.73Z"/><path class="cls-2" d="M76.88,15.73V27H75V19.27L71.61,27H70.33l-3.44-7.69V27H65.05V15.73h2L71,24.53l3.93-8.8Z"/><path class="cls-2" d="M81.46,17.22v3.29h3.88V22H81.46v3.45h4.36V27h-6.2V15.72h6.2v1.5Z"/><path class="cls-2" d="M94.24,27l-2.59-4.49h-1.4V27H88.41V15.73h3.87a4.8,4.8,0,0,1,2.19.45,3.18,3.18,0,0,1,1.34,1.21,3.3,3.3,0,0,1,.45,1.7,3.43,3.43,0,0,1-.64,2,3.31,3.31,0,0,1-2,1.22L96.44,27Zm-4-6h2a2.12,2.12,0,0,0,1.56-.52,1.86,1.86,0,0,0,.53-1.39,1.76,1.76,0,0,0-.52-1.36,2.19,2.19,0,0,0-1.57-.5h-2Z"/><path class="cls-2" d="M100.78,15.73V27H98.94V15.73Z"/><path class="cls-2" d="M109.65,15.73v8.09a3.16,3.16,0,0,1-.91,2.38,3.75,3.75,0,0,1-4.8,0,3.12,3.12,0,0,1-.91-2.38h1.85a1.85,1.85,0,0,0,.38,1.18,1.53,1.53,0,0,0,2.16,0,1.73,1.73,0,0,0,.37-1.17V15.73Z"/><path class="cls-2" d="M119.73,24.66H115l-.81,2.3H112.3l4-11.24h2.13l4,11.24h-1.94Zm-.52-1.5-1.83-5.22-1.84,5.22Z"/><path class="cls-2" d="M131.37,20.34v1.55h-6.64V20.34Z"/><path class="cls-2" d="M141.12,16.42a4.89,4.89,0,0,1,2.08,2,5.9,5.9,0,0,1,.74,3,5.79,5.79,0,0,1-.74,3,4.86,4.86,0,0,1-2.08,1.93A7.08,7.08,0,0,1,138,27h-3.67V15.73H138A6.82,6.82,0,0,1,141.12,16.42Zm-.12,8a4.09,4.09,0,0,0,1.05-3A4.24,4.24,0,0,0,141,18.33a4,4,0,0,0-3-1.1h-1.83v8.23H138A4.06,4.06,0,0,0,141,24.39Z"/><path class="cls-2" d="M147.91,15.73v7.16a2.53,2.53,0,0,0,.67,1.92,3,3,0,0,0,3.75,0,2.53,2.53,0,0,0,.67-1.92V15.73h1.84v7.12a4.27,4.27,0,0,1-.6,2.33,3.66,3.66,0,0,1-1.6,1.42,5.41,5.41,0,0,1-4.41,0,3.56,3.56,0,0,1-1.58-1.42,4.35,4.35,0,0,1-.58-2.33V15.73Z"/><path class="cls-2" d="M163.39,27l-2.59-4.49h-1.4V27h-1.85V15.73h3.88a4.86,4.86,0,0,1,2.19.45A3.18,3.18,0,0,1,165,17.39a3.3,3.3,0,0,1,.45,1.7,3.43,3.43,0,0,1-.64,2,3.31,3.31,0,0,1-2,1.22L165.58,27Zm-4-6h2a2.12,2.12,0,0,0,1.56-.52,1.86,1.86,0,0,0,.53-1.39,1.79,1.79,0,0,0-.52-1.36,2.21,2.21,0,0,0-1.57-.5h-2Z"/><path class="cls-2" d="M170.32,26.34a5.42,5.42,0,0,1-2.08-2.06,6.07,6.07,0,0,1,0-5.92,5.43,5.43,0,0,1,2.08-2,6.11,6.11,0,0,1,5.79,0,5.48,5.48,0,0,1,2.07,2,6.14,6.14,0,0,1,0,5.92,5.46,5.46,0,0,1-2.07,2.06,6.11,6.11,0,0,1-5.79,0ZM175.19,25a3.55,3.55,0,0,0,1.37-1.45,4.65,4.65,0,0,0,.49-2.19,4.58,4.58,0,0,0-.49-2.18,3.53,3.53,0,0,0-1.37-1.44,4.19,4.19,0,0,0-4,0,3.53,3.53,0,0,0-1.37,1.44,4.7,4.7,0,0,0-.49,2.18,4.77,4.77,0,0,0,.49,2.19A3.55,3.55,0,0,0,171.22,25a4.12,4.12,0,0,0,4,0Z"/><path class="cls-2" d="M181,26.73a1.15,1.15,0,0,1-.33-.84,1.15,1.15,0,0,1,1.17-1.18,1.16,1.16,0,0,1,.83.34,1.18,1.18,0,0,1,.34.84,1.16,1.16,0,0,1-.34.84,1.12,1.12,0,0,1-.83.34A1.14,1.14,0,0,1,181,26.73Z"/><path class="cls-2" d="M197.11,15.73V27h-1.84V19.27L191.85,27h-1.28l-3.44-7.69V27h-1.84V15.73h2l3.95,8.8,3.92-8.8Z"/><path class="cls-2" d="M201.7,17.22v3.29h3.88V22H201.7v3.45h4.36V27h-6.2V15.72h6.2v1.5Z"/></g></g></svg>