<svg xmlns="http://www.w3.org/2000/svg" viewBox="0 0 165.91 130.77"><defs><style>.cls-1,.cls-2{fill:#fff;}.cls-1{fill-rule:evenodd;}</style></defs><g id="Layer_2" data-name="Layer 2"><g id="Layer_1-2" data-name="Layer 1"><path class="cls-1" d="M112.3,44.37a15.11,15.11,0,0,0,0-21.29L103,13.74l-1.28-1.28-3.73,3.73c0-.38,0-.77,0-1.16A15.05,15.05,0,0,0,72.31,4.39L63,13.74,61.69,15l3.74,3.74q-.59,0-1.17-.06A15.05,15.05,0,0,0,53.62,44.37L63,53.72,64.24,55,68,51.26c0,.39-.06.77-.06,1.16A15.05,15.05,0,0,0,93.6,63.06L103,53.72l1.27-1.28-3.73-3.73c.38,0,.77,0,1.16,0a15.15,15.15,0,0,0,10.65-4.39M91,60.5A11.41,11.41,0,0,1,74.89,44.36l1.68-1.68,2.55,2.55,1.37-1.36a1.7,1.7,0,0,0,0-2.38l-3.93-3.92h0L68.5,29.5A6,6,0,0,0,60,38l4.23,4.23,5.9-5.9L74,40.13,72.33,41.8l0,.05-8,8L56.19,41.8a11.4,11.4,0,0,1-3.33-8.07,11.26,11.26,0,0,1,3.33-8.07,11.43,11.43,0,0,1,16.13,0L74,27.34,71.45,29.9l1.37,1.36a1.67,1.67,0,0,0,2.37,0l3.93-3.92h0l8.06-8.07a6,6,0,0,0,0-8.47,6,6,0,0,0-8.46,0L74.49,15l5.9,5.9-3.84,3.84L66.81,15,74.88,7A11.44,11.44,0,0,1,83,3.63,11.27,11.27,0,0,1,91,7a11.43,11.43,0,0,1,0,16.13l-1.68,1.68-2.55-2.55-1.36,1.37a1.67,1.67,0,0,0,0,2.37l3.92,3.93h0L97.42,38a6,6,0,0,0,8.46-8.46l-4.23-4.23-5.9,5.9-3.83-3.84,1.66-1.66,0-.05,8-8,8.08,8.07a11.42,11.42,0,0,1,3.33,8.07,11.29,11.29,0,0,1-3.33,8.07,11.44,11.44,0,0,1-8.07,3.33,11.32,11.32,0,0,1-8.07-3.33l-1.68-1.68,2.55-2.55L93.1,36.19a1.7,1.7,0,0,0-2.38,0L86.8,40.12h0l-8.07,8.07a6,6,0,0,0,8.46,8.46l4.23-4.23-5.89-5.9,3.83-3.84,9.74,9.74ZM67.62,33.73l-3.34,3.34L62.6,35.39a2.36,2.36,0,0,1,3.34-3.34ZM83,18.39l-3.35-3.34,1.68-1.68a2.37,2.37,0,0,1,3.35,3.34ZM98.29,33.73l3.35-3.35,1.68,1.68A2.37,2.37,0,0,1,100,35.41ZM83,49.06l3.35,3.36h0l-1.68,1.68a2.37,2.37,0,0,1-1.67.66,2.31,2.31,0,0,1-1.67-.66,2.43,2.43,0,0,1,0-3.35Z"/><path class="cls-1" d="M81.32,36.17a1.65,1.65,0,0,0,.25.15,1.51,1.51,0,0,0,.26.12l.27.1.28.07.29,0,.29,0,.29,0,.28,0,.28-.07.27-.1a1.23,1.23,0,0,0,.26-.12,1.28,1.28,0,0,0,.25-.15l.23-.17.22-.19c.06-.07.13-.14.19-.22a2,2,0,0,0,.17-.23,1.28,1.28,0,0,0,.15-.25,1.23,1.23,0,0,0,.12-.26c0-.09.07-.18.1-.27a2.29,2.29,0,0,0,.07-.28,2.7,2.7,0,0,0,0-.28c0-.1,0-.2,0-.29a2.64,2.64,0,0,0,0-.29,2.89,2.89,0,0,0,0-.29c0-.09,0-.18-.07-.28s-.06-.18-.1-.27a1.51,1.51,0,0,0-.12-.26,1.65,1.65,0,0,0-.15-.25c-.05-.08-.11-.15-.17-.23L85,31.65a2.09,2.09,0,0,0-.22-.2l-.23-.17-.25-.15L84.08,31l-.27-.1-.28-.07-.28,0h-.58l-.29,0-.28.07-.27.1-.26.12-.25.15-.23.17-.21.2-.2.21c-.06.08-.12.15-.17.23l-.15.25-.12.26c0,.09-.07.18-.1.27s0,.19-.07.28a2.89,2.89,0,0,0,0,.29,2.71,2.71,0,0,0,0,.29c0,.09,0,.19,0,.29a2.7,2.7,0,0,0,0,.28,2.29,2.29,0,0,0,.07.28c0,.09.06.18.1.27l.12.26.15.25a2,2,0,0,0,.17.23,2.09,2.09,0,0,0,.2.22l.21.19.23.17"/><path class="cls-1" d="M165.91,95.76a17.68,17.68,0,0,1-1.4,7,17.1,17.1,0,0,1-4,5.68,18.38,18.38,0,0,1-6.16,3.79,23.5,23.5,0,0,1-15.87,0,18.33,18.33,0,0,1-6.15-3.79,17,17,0,0,1-4-5.68,18.23,18.23,0,0,1,0-14.06,16.85,16.85,0,0,1,4-5.68,18.19,18.19,0,0,1,6.15-3.8,23.66,23.66,0,0,1,15.87,0,18.24,18.24,0,0,1,6.16,3.8,17,17,0,0,1,4,5.68,17.65,17.65,0,0,1,1.4,7m-19.46,16.09a7.08,7.08,0,0,0,3.19-.72,6.22,6.22,0,0,0,2.51-2.55,15.94,15.94,0,0,0,1.67-5,42.77,42.77,0,0,0,.6-7.87,42.88,42.88,0,0,0-.6-7.88,15.94,15.94,0,0,0-1.67-4.95,6.25,6.25,0,0,0-2.51-2.54,7.33,7.33,0,0,0-6.38,0,6.13,6.13,0,0,0-2.51,2.54,15.94,15.94,0,0,0-1.67,4.95,42.88,42.88,0,0,0-.6,7.88,42.77,42.77,0,0,0,.6,7.87,15.94,15.94,0,0,0,1.67,5,6.1,6.1,0,0,0,2.51,2.55,7.08,7.08,0,0,0,3.19.72"/><path class="cls-1" d="M0,112.1H4.09V79.41H0V77.88H16.35a27.77,27.77,0,0,1,9.19,1.4,20.89,20.89,0,0,1,6.82,3.81,16.08,16.08,0,0,1,4.24,5.67,17.62,17.62,0,0,1,0,14,16.08,16.08,0,0,1-4.24,5.67,20.87,20.87,0,0,1-6.82,3.8,27.76,27.76,0,0,1-9.19,1.41H0ZM15.32,79.67v32.18h1a10.39,10.39,0,0,0,4-.77,7.56,7.56,0,0,0,3.21-2.6,14,14,0,0,0,2.12-4.93,30.73,30.73,0,0,0,.67-7.79,36,36,0,0,0-.87-7.69,14.55,14.55,0,0,0-2.1-5,7.63,7.63,0,0,0-3.11-2.65,9.45,9.45,0,0,0-3.88-.79Z"/><path class="cls-1" d="M111,113.64,100.25,97.29H100V112.1h3.07v1.54H84.67V112.1h4.09V79.41H84.67V77.88h18.39a31.61,31.61,0,0,1,7.28.71,13.89,13.89,0,0,1,4.82,2,7.7,7.7,0,0,1,2.66,3.09,9.61,9.61,0,0,1,0,7.77,7.7,7.7,0,0,1-2.66,3.09,13.89,13.89,0,0,1-4.82,2,31.55,31.55,0,0,1-7.28.72h-.51v.26l12.21,4.08,7.15,10.47h2.86v1.54Zm-4.09-26.06a12.7,12.7,0,0,0-.43-3.5,7.28,7.28,0,0,0-1.18-2.47,4.81,4.81,0,0,0-1.71-1.46,4.56,4.56,0,0,0-2-.48H100V95.5h1.54a4.56,4.56,0,0,0,2-.48,4.91,4.91,0,0,0,1.71-1.46,7.34,7.34,0,0,0,1.18-2.48,12.65,12.65,0,0,0,.43-3.5"/><path class="cls-1" d="M80.39,79.41h-4v21.72q0,12.51-13.07,12.51a25.27,25.27,0,0,1-7.4-1A15.94,15.94,0,0,1,50.61,110a10.75,10.75,0,0,1-3.16-4,11.77,11.77,0,0,1-1-4.93V79.41H42.33V77.88h19v1.53H57.66v22.47c0,3.5.73,6.05,2.19,7.63a7.83,7.83,0,0,0,6.21,2.38,8.37,8.37,0,0,0,3.36-.68,7.6,7.6,0,0,0,2.72-2A9.63,9.63,0,0,0,74,106a13.45,13.45,0,0,0,.65-4.35v-18l-7-4.22V77.88H80.39Z"/><rect class="cls-2" x="138.22" y="70.52" width="16.51" height="1.73"/><polygon class="cls-2" points="19.87 130.38 19.22 130.38 19.22 123.67 22.77 128.71 22.77 124.07 23.42 124.07 23.42 130.77 19.87 125.73 19.87 130.38"/><rect class="cls-2" x="28.53" y="124.07" width="0.65" height="6.31"/><path class="cls-2" d="M38.92,129.91a3.09,3.09,0,0,1-4-.4,3.19,3.19,0,0,1-.91-2.27,3.42,3.42,0,0,1,.91-2.29,3.09,3.09,0,0,1,4-.41A3.17,3.17,0,0,1,40.07,126h-.72a2.49,2.49,0,0,0-1.53-1.24,2.88,2.88,0,0,0-.76-.09,2.25,2.25,0,0,0-.89.2,2.54,2.54,0,0,0-.8.57,2.62,2.62,0,0,0,0,3.61,2.41,2.41,0,0,0,1.78.77,2.48,2.48,0,0,0,1.3-.37,2.63,2.63,0,0,0,.91-1h.71a3,3,0,0,1-1.15,1.46"/><polygon class="cls-2" points="44.77 130.38 44.77 124.07 45.42 124.07 45.42 126.91 48.28 126.91 48.28 124.07 48.93 124.07 48.93 130.38 48.28 130.38 48.28 127.56 45.42 127.56 45.42 130.38 44.77 130.38"/><polygon class="cls-2" points="54.04 130.38 54.04 124.07 57.79 124.07 57.79 124.67 54.69 124.67 54.69 126.92 57.7 126.92 57.7 127.53 54.69 127.53 54.69 129.78 57.79 129.78 57.79 130.38 54.04 130.38"/><path class="cls-2" d="M72.56,127.35a2,2,0,0,1-1.41.53H69.77v2.5h-.65v-6.31h2a2,2,0,0,1,1.41.53,1.78,1.78,0,0,1,.59,1.37,1.83,1.83,0,0,1-.59,1.38m-1.32-.1a1.22,1.22,0,0,0,.9-.36,1.3,1.3,0,0,0,.36-.94,1.19,1.19,0,0,0-1.26-1.26H69.77v2.56Z"/><polygon class="cls-2" points="77.75 130.38 77.75 124.07 81.5 124.07 81.5 124.67 78.4 124.67 78.4 126.92 81.41 126.92 81.41 127.53 78.4 127.53 78.4 129.78 81.5 129.78 81.5 130.38 77.75 130.38"/><path class="cls-2" d="M90.05,127.35a2,2,0,0,1-1.26.53l1.95,2.5h-.87L88,127.89h-.75v2.49h-.65v-6.31h2a2,2,0,0,1,1.42.53,1.82,1.82,0,0,1,.59,1.37,1.8,1.8,0,0,1-.59,1.38m-1.33-.09a1.16,1.16,0,0,0,.9-.37,1.36,1.36,0,0,0,0-1.84,1.21,1.21,0,0,0-.92-.36H87.26v2.57Z"/><polygon class="cls-2" points="96.02 124.67 96.02 126.92 99.03 126.92 99.03 127.53 96.02 127.53 96.02 130.38 95.37 130.38 95.37 124.07 99.12 124.07 99.12 124.67 96.02 124.67"/><path class="cls-2" d="M107.62,129.91a2.82,2.82,0,0,1-3.37,0,2,2,0,0,1-.67-1.62v-4.22h.65v4.32a1.26,1.26,0,0,0,.52,1.09,2,2,0,0,0,1.19.34,1.59,1.59,0,0,0,1.56-.78,1.45,1.45,0,0,0,.14-.65v-4.32h.65v4.22a2.06,2.06,0,0,1-.67,1.62"/><polygon class="cls-2" points="118.09 125.89 116.2 130.75 114.3 125.89 113.32 130.38 112.65 130.38 114.13 123.65 116.2 129.06 118.27 123.65 119.74 130.38 119.08 130.38 118.09 125.89"/><polygon class="cls-2" points="124.24 130.38 124.24 124.07 127.99 124.07 127.99 124.67 124.89 124.67 124.89 126.92 127.9 126.92 127.9 127.53 124.89 127.53 124.89 129.78 127.99 129.78 127.99 130.38 124.24 130.38"/><path class="cls-2" d="M136.54,127.35a2,2,0,0,1-1.25.53l1.94,2.5h-.87l-1.85-2.49h-.76v2.49h-.65v-6.31h2a2,2,0,0,1,1.42.53,1.82,1.82,0,0,1,.59,1.37,1.8,1.8,0,0,1-.59,1.38m-1.32-.09a1.19,1.19,0,0,0,.9-.37,1.38,1.38,0,0,0,0-1.84,1.22,1.22,0,0,0-.92-.36h-1.47v2.57Z"/><polygon class="cls-2" points="144.31 130.38 143.66 130.38 143.66 127.41 141.26 124.07 142.1 124.07 143.98 126.77 145.87 124.07 146.69 124.07 144.31 127.41 144.31 130.38"/></g></g></svg>