<svg xmlns="http://www.w3.org/2000/svg" viewBox="0 0 227.19 48.04"><defs><style>.cls-1{fill:#fff;}</style></defs><g id="Layer_2" data-name="Layer 2"><g id="Layer_1-2" data-name="Layer 1"><path class="cls-1" d="M14,.26V3.79H9.21V18.36H4.8V3.79H0V.26Z"/><path class="cls-1" d="M21.15,3.79V7.45h5.9v3.41h-5.9v4h6.68v3.53H16.74V.26H27.83V3.79Z"/><path class="cls-1" d="M42.48,15.17H35.72l-1.08,3.19H30L36.57.26h5.11l6.55,18.1H43.56Zm-1.14-3.41L39.1,5.13l-2.22,6.63Z"/><path class="cls-1" d="M63.76.26V3.79H59V18.36H54.55V3.79h-4.8V.26Z"/><path class="cls-1" d="M77.76,15.17H71l-1.08,3.19H65.3L71.85.26H77l6.55,18.1H78.84Zm-1.13-3.41L74.38,5.13l-2.22,6.63Z"/><path class="cls-1" d="M95.25,18.36l-3.77-6.83H90.42v6.83H86V.26h7.4A8.11,8.11,0,0,1,97.06,1a5.09,5.09,0,0,1,2.26,2.05,5.67,5.67,0,0,1,.75,2.9,5.37,5.37,0,0,1-1,3.22,5.43,5.43,0,0,1-3,2l4.18,7.17ZM90.42,8.41h2.74A2.47,2.47,0,0,0,95,7.81a2.2,2.2,0,0,0,.61-1.67A2.16,2.16,0,0,0,95,4.51a2.51,2.51,0,0,0-1.81-.59H90.42Z"/><path class="cls-1" d="M129.83.26v18.1h-4.41V7.5l-4,10.86h-3.56L113.74,7.48V18.36h-4.41V.26h5.21l5.08,12.53,5-12.53Z"/><path class="cls-1" d="M137.93.26v18.1h-4.41V.26Z"/><path class="cls-1" d="M150.88,18.36l-3.77-6.83h-1.06v6.83h-4.41V.26H149A8.18,8.18,0,0,1,152.7,1,5.11,5.11,0,0,1,155,3.06,5.67,5.67,0,0,1,155.7,6a5.37,5.37,0,0,1-1,3.22,5.44,5.44,0,0,1-3,2l4.18,7.17Zm-4.83-9.95h2.74a2.5,2.5,0,0,0,1.82-.6,2.23,2.23,0,0,0,.6-1.67,2.2,2.2,0,0,0-.6-1.63,2.54,2.54,0,0,0-1.82-.59h-2.74Z"/><path class="cls-1" d="M163.39.26v18.1H159V.26Z"/><path class="cls-1" d="M170.09,17.9A5.82,5.82,0,0,1,167.58,16a5.24,5.24,0,0,1-1-3h4.7a2.29,2.29,0,0,0,.69,1.53,2.26,2.26,0,0,0,1.55.53,2.42,2.42,0,0,0,1.55-.45,1.51,1.51,0,0,0,.57-1.25,1.48,1.48,0,0,0-.45-1.11,3.94,3.94,0,0,0-1.11-.72,18.09,18.09,0,0,0-1.87-.65,20.53,20.53,0,0,1-2.87-1.08,5.18,5.18,0,0,1-1.9-1.6,4.4,4.4,0,0,1-.81-2.76,4.77,4.77,0,0,1,1.84-4A7.54,7.54,0,0,1,173.24,0a7.64,7.64,0,0,1,4.82,1.43,5.12,5.12,0,0,1,2,4h-4.77A1.88,1.88,0,0,0,174.61,4a2.28,2.28,0,0,0-1.53-.51,1.88,1.88,0,0,0-1.29.43,1.54,1.54,0,0,0-.49,1.22,1.53,1.53,0,0,0,.83,1.37,13.38,13.38,0,0,0,2.58,1.06,23.11,23.11,0,0,1,2.85,1.13,5.37,5.37,0,0,1,1.89,1.58,4.14,4.14,0,0,1,.8,2.65,5.24,5.24,0,0,1-.78,2.81,5.52,5.52,0,0,1-2.29,2,7.89,7.89,0,0,1-3.53.74A9.33,9.33,0,0,1,170.09,17.9Z"/><path class="cls-1" d="M199.67,18.36h-4.41L187.89,7.2V18.36h-4.41V.26h4.41l7.37,11.22V.26h4.41Z"/><path class="cls-1" d="M207.8.26v18.1h-4.41V.26Z"/><path class="cls-1" d="M227.19.26v18.1h-4.41V10.91h-6.86v7.45h-4.41V.26h4.41V7.35h6.86V.26Z"/><path class="cls-1" d="M57.42,29.73V47.84H53V37L49,47.84H45.4L41.33,37V47.84H36.92V29.73h5.21l5.08,12.54,5-12.54Z"/><path class="cls-1" d="M72.38,44.64H65.63l-1.09,3.2H59.93l6.55-18.11h5.1l6.55,18.11H73.47Zm-1.13-3.4L69,34.61l-2.21,6.63Z"/><path class="cls-1" d="M83.63,47.38a5.85,5.85,0,0,1-2.52-1.91,5.26,5.26,0,0,1-1-3h4.69a2.32,2.32,0,0,0,.7,1.54,2.26,2.26,0,0,0,1.55.53A2.39,2.39,0,0,0,88.61,44a1.64,1.64,0,0,0,.11-2.36A3.67,3.67,0,0,0,87.61,41a17.63,17.63,0,0,0-1.87-.64,19.07,19.07,0,0,1-2.86-1.09A5.28,5.28,0,0,1,81,37.63a4.5,4.5,0,0,1-.8-2.76,4.74,4.74,0,0,1,1.83-4,7.49,7.49,0,0,1,4.78-1.43,7.58,7.58,0,0,1,4.82,1.43,5.13,5.13,0,0,1,2,4H88.79a1.89,1.89,0,0,0-.65-1.38,2.28,2.28,0,0,0-1.52-.5,1.93,1.93,0,0,0-1.29.42,1.64,1.64,0,0,0,.34,2.6,13.62,13.62,0,0,0,2.57,1,25.65,25.65,0,0,1,2.86,1.14A5.34,5.34,0,0,1,93,39.79a4.25,4.25,0,0,1,.8,2.66A5.16,5.16,0,0,1,93,45.26a5.48,5.48,0,0,1-2.28,2,7.81,7.81,0,0,1-3.53.75A9.49,9.49,0,0,1,83.63,47.38Zm7.3-20.82-4,2-4-2v-3l4,2.24,4-2.24Z"/><path class="cls-1" d="M110,29.73v3.54h-4.8V47.84h-4.41V33.27H96V29.73Z"/><path class="cls-1" d="M124,44.64h-6.75l-1.09,3.2h-4.61l6.55-18.11h5.1l6.55,18.11h-4.66Zm-1.13-3.4-2.25-6.63-2.21,6.63Z"/><path class="cls-1" d="M148.49,47.84h-4.41l-7.37-11.17V47.84h-4.42V29.73h4.42L144.08,41V29.73h4.41Z"/><path class="cls-1" d="M163.55,29.73V42.06a5.8,5.8,0,0,1-1.61,4.41A6,6,0,0,1,157.6,48,6.39,6.39,0,0,1,153,46.39a6,6,0,0,1-1.73-4.61h4.38a2.66,2.66,0,0,0,.47,1.71,1.6,1.6,0,0,0,1.34.58,1.56,1.56,0,0,0,1.24-.51,2.29,2.29,0,0,0,.43-1.5V29.73Z"/><path class="cls-1" d="M178.9,44.64h-6.76l-1.08,3.2h-4.62L173,29.73h5.11l6.55,18.11H180Zm-1.13-3.4-2.25-6.63-2.22,6.63Z"/><path class="cls-1" d="M187.32,47.36a2.2,2.2,0,0,1-.73-1.69,2.3,2.3,0,0,1,.73-1.73,2.92,2.92,0,0,1,3.77,0,2.3,2.3,0,0,1,.73,1.73,2.2,2.2,0,0,1-.73,1.69,3,3,0,0,1-3.77,0Z"/></g></g></svg>