<svg id="cta_copy" data-name="cta copy" xmlns="http://www.w3.org/2000/svg" width="159.5" height="33.469" viewBox="0 0 159.5 33.469">
  <defs>
    <style>
      .cls-1, .cls-3 {
        fill: #fff;
      }

      .cls-1, .cls-2, .cls-3 {
        fill-rule: evenodd;
      }

      .cls-1 {
        opacity: 0.08;
      }

      .cls-2 {
        fill: none;
        stroke: #fff;
        stroke-width: 1px;
      }
    </style>
  </defs>
  <path id="Rectangle_2_copy" data-name="Rectangle 2 copy" class="cls-1" d="M1844,364.049h158.5v32.47H1844v-32.47Z" transform="translate(-1843.5 -363.562)"/>
  <path class="cls-2" d="M1844,364.049h158.5v32.47H1844v-32.47Z" transform="translate(-1843.5 -363.562)"/>
  <path id="Bekijk_onze_collectie" data-name="Bekijk onze collectie" class="cls-3" d="M1867.19,380.528a2.044,2.044,0,0,0,1.4-2.016,2.251,2.251,0,0,0-.81-1.841,3.7,3.7,0,0,0-2.39-.665h-2.82v9.66h2.78a4.42,4.42,0,0,0,2.68-.707,2.45,2.45,0,0,0,.96-2.107,2.269,2.269,0,0,0-1.8-2.324h0Zm-0.75-.889a1.91,1.91,0,0,1-1.23.343h-0.86V377.42h0.94c1.05,0,1.58.415,1.58,1.246A1.164,1.164,0,0,1,1866.44,379.639Zm0.28,4.242a2.209,2.209,0,0,1-1.37.371h-1V381.3h0.97q1.89,0,1.89,1.5A1.269,1.269,0,0,1,1866.72,383.881Zm8.54-4.158a2.618,2.618,0,0,0-2.2-.959,2.844,2.844,0,0,0-2.22.952,3.713,3.713,0,0,0-.86,2.576,3.53,3.53,0,0,0,.9,2.632,3.281,3.281,0,0,0,2.4.882,4.665,4.665,0,0,0,2.71-.826l-0.2-1.316a4.083,4.083,0,0,1-2.32.84,1.711,1.711,0,0,1-1.82-1.89h4.34v-0.189a2,2,0,0,0,.01-0.217A3.972,3.972,0,0,0,1875.26,379.723Zm-3.59,1.841a2.225,2.225,0,0,1,.47-1.218,1.112,1.112,0,0,1,.88-0.42c0.78,0,1.23.546,1.34,1.638h-2.69Zm8.98,0.364,2.49-3.024h-1.89l-2.21,2.8v-6.146l-1.68.266v9.842h1.68V382.32l2.48,3.444,1.77-.252Zm4.53-6.09a0.993,0.993,0,0,0-.71.28,0.908,0.908,0,0,0-.29.7,0.867,0.867,0,0,0,.29.686,1.025,1.025,0,0,0,.71.266,1.008,1.008,0,0,0,.71-0.266,0.9,0.9,0,0,0,.29-0.686,0.944,0.944,0,0,0-.29-0.7A0.977,0.977,0,0,0,1885.18,375.838Zm0.83,3.066h-1.68v6.762h1.68V378.9Zm2.7-3.066a0.977,0.977,0,0,0-.71.28,0.917,0.917,0,0,0-.3.7,0.876,0.876,0,0,0,.3.686,1.081,1.081,0,0,0,1.42,0,0.9,0.9,0,0,0,.29-0.686,0.944,0.944,0,0,0-.29-0.7A0.977,0.977,0,0,0,1888.71,375.838Zm0.83,3.066h-1.68v7.14a0.682,0.682,0,0,1-.74.8,2.165,2.165,0,0,1-.54-0.056l0.21,1.372a2.49,2.49,0,0,0,.66.056,1.823,1.823,0,0,0,2.09-2.03V378.9Zm5.08,3.024,2.49-3.024h-1.89l-2.21,2.8v-6.146l-1.68.266v9.842h1.68V382.32l2.48,3.444,1.78-.252Zm9.43-3.164a2.971,2.971,0,0,0-2.28.952,4.181,4.181,0,0,0-.01,5.145,2.983,2.983,0,0,0,2.28.945,3.049,3.049,0,0,0,2.31-.945,3.573,3.573,0,0,0,.9-2.569,3.634,3.634,0,0,0-.89-2.576,3.007,3.007,0,0,0-2.31-.952h0Zm1.15,5.089a1.333,1.333,0,0,1-1.16.581,1.28,1.28,0,0,1-1.12-.6,2.7,2.7,0,0,1-.41-1.547,2.769,2.769,0,0,1,.4-1.554,1.3,1.3,0,0,1,1.13-.588,1.334,1.334,0,0,1,1.16.6A3.15,3.15,0,0,1,1905.2,383.853Zm9.17-3.059a2.118,2.118,0,0,0-.49-1.491,1.87,1.87,0,0,0-1.44-.539,3.317,3.317,0,0,0-2.25,1.092l-0.16-.952h-1.43v6.762h1.68V381.1a2.27,2.27,0,0,1,1.54-.854,0.828,0.828,0,0,1,.87.994v4.424h1.68v-4.872Zm6.61,3.528h-3.32l3.38-4.13V378.9h-5.25l0.22,1.344h3l-3.36,4.13v1.288h5.55Zm6.44-4.6a2.6,2.6,0,0,0-2.2-.959,2.873,2.873,0,0,0-2.22.952,3.713,3.713,0,0,0-.86,2.576,3.494,3.494,0,0,0,.91,2.632,3.281,3.281,0,0,0,2.4.882,4.634,4.634,0,0,0,2.7-.826l-0.2-1.316a4.059,4.059,0,0,1-2.32.84,1.711,1.711,0,0,1-1.82-1.89h4.34a1.753,1.753,0,0,1,.01-0.189v-0.217A3.911,3.911,0,0,0,1927.42,379.723Zm-3.58,1.841a2.223,2.223,0,0,1,.46-1.218,1.126,1.126,0,0,1,.88-0.42c0.78,0,1.23.546,1.34,1.638h-2.68Zm13.55,2.142a2.814,2.814,0,0,1-1.75.644,1.683,1.683,0,0,1-1.29-.532,2.18,2.18,0,0,1-.49-1.54,2.252,2.252,0,0,1,.46-1.519,1.516,1.516,0,0,1,1.21-.539,2.9,2.9,0,0,1,1.77.63l0.24-1.512a3.852,3.852,0,0,0-2.11-.574,3.17,3.17,0,0,0-2.34.931,4.167,4.167,0,0,0-.04,5.173,3.061,3.061,0,0,0,2.32.924,3.833,3.833,0,0,0,2.24-.658Zm4.39-4.942a2.971,2.971,0,0,0-2.28.952,4.181,4.181,0,0,0-.01,5.145,2.983,2.983,0,0,0,2.28.945,3.049,3.049,0,0,0,2.31-.945,3.573,3.573,0,0,0,.9-2.569,3.634,3.634,0,0,0-.89-2.576,3.022,3.022,0,0,0-2.31-.952h0Zm1.15,5.089a1.333,1.333,0,0,1-1.16.581,1.28,1.28,0,0,1-1.12-.6,2.7,2.7,0,0,1-.41-1.547,2.769,2.769,0,0,1,.4-1.554,1.288,1.288,0,0,1,1.13-.588,1.346,1.346,0,0,1,1.16.6A3.15,3.15,0,0,1,1942.93,383.853Zm5.15-8.3-1.68.266v9.842h1.68V375.558Zm3.53,0-1.68.266v9.842h1.68V375.558Zm6.71,4.165a2.618,2.618,0,0,0-2.2-.959,2.858,2.858,0,0,0-2.22.952,3.713,3.713,0,0,0-.86,2.576,3.53,3.53,0,0,0,.9,2.632,3.313,3.313,0,0,0,2.4.882,4.665,4.665,0,0,0,2.71-.826l-0.2-1.316a4.083,4.083,0,0,1-2.32.84,1.711,1.711,0,0,1-1.82-1.89h4.34v-0.189a2,2,0,0,0,.01-0.217A3.972,3.972,0,0,0,1958.32,379.723Zm-3.59,1.841a2.225,2.225,0,0,1,.47-1.218,1.112,1.112,0,0,1,.88-0.42c0.78,0,1.23.546,1.34,1.638h-2.69Zm10.56,2.142a2.793,2.793,0,0,1-1.75.644,1.683,1.683,0,0,1-1.29-.532,2.228,2.228,0,0,1-.49-1.54,2.305,2.305,0,0,1,.46-1.519,1.516,1.516,0,0,1,1.21-.539,2.932,2.932,0,0,1,1.78.63l0.23-1.512a3.852,3.852,0,0,0-2.11-.574,3.17,3.17,0,0,0-2.34.931,3.586,3.586,0,0,0-.92,2.625,3.531,3.531,0,0,0,.88,2.548,3.061,3.061,0,0,0,2.32.924,3.833,3.833,0,0,0,2.24-.658Zm5,0.546a2.135,2.135,0,0,1-.53.056,0.77,0.77,0,0,1-.9-0.84v-3.192h1.6l-0.21-1.372h-1.39V376.51l-1.65.252V378.9h-0.95v1.372h0.95v3.472a1.887,1.887,0,0,0,.58,1.561,2.55,2.55,0,0,0,1.64.469,5.256,5.256,0,0,0,1.07-.112Zm2.39-8.414a0.977,0.977,0,0,0-.71.28,0.917,0.917,0,0,0-.3.7,0.876,0.876,0,0,0,.3.686,1.081,1.081,0,0,0,1.42,0,0.9,0.9,0,0,0,.29-0.686,0.944,0.944,0,0,0-.29-0.7A0.977,0.977,0,0,0,1972.68,375.838Zm0.83,3.066h-1.68v6.762h1.68V378.9Zm6.7,0.819a2.585,2.585,0,0,0-2.19-.959,2.844,2.844,0,0,0-2.22.952,3.666,3.666,0,0,0-.86,2.576,3.53,3.53,0,0,0,.9,2.632,3.281,3.281,0,0,0,2.4.882,4.612,4.612,0,0,0,2.7-.826l-0.19-1.316a4.111,4.111,0,0,1-2.33.84,1.716,1.716,0,0,1-1.82-1.89h4.34a1.753,1.753,0,0,1,.01-0.189c0-.1.01-0.171,0.01-0.217A3.914,3.914,0,0,0,1980.21,379.723Zm-3.58,1.841a2.3,2.3,0,0,1,.46-1.218,1.126,1.126,0,0,1,.88-0.42q1.185,0,1.35,1.638h-2.69Z" transform="translate(-1843.5 -363.562)"/>
</svg>
