<svg xmlns="http://www.w3.org/2000/svg" viewBox="0 0 71.6 5.49"><defs><style>.cls-1{fill:#fff;}</style></defs><g id="Layer_2" data-name="Layer 2"><g id="Layer_1-2" data-name="Layer 1"><path class="cls-1" d="M16.67.43a2.32,2.32,0,0,1,0,4.63H2.75a2.32,2.32,0,1,1,0-4.63H16.67m0-.43H2.75a2.75,2.75,0,1,0,0,5.49H16.67a2.75,2.75,0,0,0,0-5.49Z"/><path class="cls-1" d="M42.76.43a2.32,2.32,0,0,1,0,4.63H28.84a2.32,2.32,0,0,1,0-4.63H42.76m0-.43H28.84a2.75,2.75,0,1,0,0,5.49H42.76a2.75,2.75,0,1,0,0-5.49Z"/><path class="cls-1" d="M68.85.43a2.32,2.32,0,0,1,0,4.63H54.93a2.32,2.32,0,0,1,0-4.63H68.85m0-.43H54.93a2.75,2.75,0,0,0,0,5.49H68.85a2.75,2.75,0,1,0,0-5.49Z"/></g></g></svg>