<svg xmlns="http://www.w3.org/2000/svg" viewBox="0 0 23.59 23.59"><defs><style>.cls-1{fill:#fff;}.cls-2{fill:#2f80ed;}.cls-3{fill:#262626;}</style></defs><g id="Layer_2" data-name="Layer 2"><g id="Layer_1-2" data-name="Layer 1"><circle class="cls-1" cx="11.8" cy="11.8" r="10.05"/><path class="cls-2" d="M11.8,3.48A8.32,8.32,0,1,1,3.48,11.8,8.32,8.32,0,0,1,11.8,3.48M11.8,0A11.8,11.8,0,1,0,23.59,11.8,11.81,11.81,0,0,0,11.8,0Z"/><g id="Arrow_Arrow_Up_Right_MD" data-name="Arrow / Arrow_Up_Right_MD"><g id="Vector"><path class="cls-3" d="M8.93,14.53l5.23-5.22m0,0H10m4.18,0v4.18"/><path class="cls-3" d="M8.93,15.06a.5.5,0,0,1-.37-.16.53.53,0,0,1,0-.74L12.9,9.83H10a.52.52,0,1,1,0-1h4.21l.15,0a.76.76,0,0,1,.19.12.71.71,0,0,1,.12.18l0,.15h0v4.22a.53.53,0,0,1-1,0V10.57L9.3,14.9A.49.49,0,0,1,8.93,15.06Z"/></g></g></g></g></svg>