<svg xmlns="http://www.w3.org/2000/svg" viewBox="0 0 258.67 45.2"><defs><style>.cls-1{fill:#fff;}</style></defs><g id="Layer_2" data-name="Layer 2"><g id="Layer_1-2" data-name="Layer 1"><path class="cls-1" d="M11.26.19h2.87V19H11.77L2.88,5.75V19H0V.19H2.5l8.76,13.06Z"/><path class="cls-1" d="M25.1,5.56h2.69V19.05h-2l-.08-1a2.78,2.78,0,0,1-2.4,1.13H21.71a4.59,4.59,0,0,1-4.54-4.73V5.56h2.72v8.87a2,2,0,0,0,1.82,2.23h1.56a1.93,1.93,0,0,0,1.83-2Z"/><path class="cls-1" d="M43.05,5.4a4.35,4.35,0,0,1,3.2,1.35,4.54,4.54,0,0,1,1.32,3.38V19H44.88V10.13a2,2,0,0,0-1.83-2.2h-1a1.9,1.9,0,0,0-1.82,2v9H37.54V10a2,2,0,0,0-1.82-2.07h-1a1.85,1.85,0,0,0-1.83,1.93V19H30.23V5.54h2.05l.08,1a3,3,0,0,1,2.5-1.13h.86a3.93,3.93,0,0,1,3.17,1.48A3.88,3.88,0,0,1,42.08,5.4Z"/><path class="cls-1" d="M62.83,5.4A4.35,4.35,0,0,1,66,6.75a4.54,4.54,0,0,1,1.32,3.38V19H64.66V10.13a2,2,0,0,0-1.83-2.2h-1A1.9,1.9,0,0,0,60,10v9H57.32V10A2,2,0,0,0,55.5,7.93h-1A1.85,1.85,0,0,0,52.7,9.86V19H50V5.54h2.05l.08,1a3,3,0,0,1,2.5-1.13h.86a3.93,3.93,0,0,1,3.17,1.48,3.89,3.89,0,0,1,3.2-1.48Z"/><path class="cls-1" d="M69.2,10.67a5.13,5.13,0,0,1,1.51-3.9A5.3,5.3,0,0,1,74.5,5.35c3.41,0,5.37,1.91,5.37,5.32v2.74h-8v.11c0,2,.67,2.93,2.47,2.93h5.13V19H74.39c-3.84,0-5.19-2.18-5.19-6.39Zm8,.32v-.43c0-1.85-.88-2.69-2.68-2.69a2.43,2.43,0,0,0-2.58,2.69V11Z"/><path class="cls-1" d="M89.33,5.35V7.87H87.18a2.46,2.46,0,0,0-2.74,2.74V19H81.73V5.51h2l.13,1.37a3.43,3.43,0,0,1,3.28-1.53Z"/><path class="cls-1" d="M104.09.62h2.12V19h-2.88V4.41L99.55,7,98.09,4.62Z"/><path class="cls-1" d="M125.85,5.56h2.83l-5,13.44h-2.9L115.91,5.56h2.85l3.52,10Z"/><path class="cls-1" d="M129.22,10.67a5.16,5.16,0,0,1,1.5-3.9,5.3,5.3,0,0,1,3.79-1.42c3.41,0,5.37,1.91,5.37,5.32v2.74h-7.95v.11c0,2,.67,2.93,2.47,2.93h5.13V19H134.4c-3.84,0-5.18-2.18-5.18-6.39Zm8,.32v-.43c0-1.85-.89-2.69-2.69-2.69a2.43,2.43,0,0,0-2.58,2.69V11Z"/><path class="cls-1" d="M149.34,5.35V7.87h-2.15a2.46,2.46,0,0,0-2.74,2.74V19h-2.71V5.51h2l.14,1.37c.56-1,1.66-1.53,3.27-1.53Z"/><path class="cls-1" d="M151.12.19h2.71V6.53a2.47,2.47,0,0,1,2.26-1.1h1.07a4.31,4.31,0,0,1,3.2,1.34,4.6,4.6,0,0,1,1.35,3.39V19H159V10.16A2,2,0,0,0,157.16,8h-1.5A2,2,0,0,0,153.83,10v9h-2.71Z"/><path class="cls-1" d="M171.87,5.56h2.68V19.05h-2l-.08-1A2.78,2.78,0,0,1,170,19.16h-1.56a4.58,4.58,0,0,1-4.54-4.73V5.56h2.71v8.87a2,2,0,0,0,1.83,2.23H170a1.93,1.93,0,0,0,1.83-2Z"/><path class="cls-1" d="M177.11,1.08h2.71v3h-2.71Zm0,4.48h2.71V19h-2.71Z"/><path class="cls-1" d="M191.75,5.4V7.93h-5.08c-1.42,0-2.15.48-2.15,1.45s.7,1.23,2.18,1.37c.35.05.83.08,1,.13,2.82.3,4.44,1.72,4.44,4,0,2.93-2.1,4.27-5.22,4.27h-4.75V16.61h4.75c1.83,0,2.53-.46,2.53-1.72,0-.89-.51-1.32-2-1.51l-1-.11c-2.77-.29-4.62-1.5-4.62-3.89,0-2.9,2.47-4,4.86-4Z"/><path class="cls-1" d="M194.12.19h2.71V6.53a2.59,2.59,0,0,1,2.26-1.13h1.08a4.31,4.31,0,0,1,3.19,1.35,4.57,4.57,0,0,1,1.35,3.38v3.6a5.58,5.58,0,0,1-1.29,3.79A4.18,4.18,0,0,1,200.11,19h-1.75a2.69,2.69,0,0,1-2.09-1l-.11,1h-2ZM202,10.13a2,2,0,0,0-1.82-2.2h-1.51A2,2,0,0,0,196.83,10v5a1.57,1.57,0,0,0,1.53,1.48h1.75c1.08,0,1.88-1,1.88-2.74Z"/><path class="cls-1" d="M206.13,10.67a5.13,5.13,0,0,1,1.51-3.9,5.28,5.28,0,0,1,3.79-1.42c3.41,0,5.37,1.91,5.37,5.32v2.74h-8v.11c0,2,.67,2.93,2.47,2.93h5.13V19h-5.13c-3.84,0-5.19-2.18-5.19-6.39Zm8,.32v-.43c0-1.85-.88-2.69-2.68-2.69a2.43,2.43,0,0,0-2.58,2.69V11Z"/><path class="cls-1" d="M226,.19h2.72V19h-2l-.11-1a2.67,2.67,0,0,1-2.1,1h-1.74a4.18,4.18,0,0,1-3.31-1.48,5.58,5.58,0,0,1-1.29-3.79v-3.6a4.54,4.54,0,0,1,1.32-3.38,4.38,4.38,0,0,1,3.22-1.35h1.08A2.59,2.59,0,0,1,226,6.53ZM226,10a2,2,0,0,0-1.82-2.07h-1.51a2,2,0,0,0-1.83,2.2v3.6c0,1.72.81,2.74,1.89,2.74h1.74A1.55,1.55,0,0,0,226,15Z"/><path class="cls-1" d="M238.94,5.35V7.87h-2.15a2.46,2.46,0,0,0-2.74,2.74V19h-2.71V5.51h2l.14,1.37c.56-1,1.66-1.53,3.27-1.53Z"/><path class="cls-1" d="M240.72,1.08h2.71v3h-2.71Zm0,4.48h2.71V19h-2.71Z"/><path class="cls-1" d="M246.12,5.56h2.69V16.93a7.29,7.29,0,0,1-1.24,4.16l-2.15,3-2.2-1.43,2.15-3a4.33,4.33,0,0,0,.75-2.71Zm0-4.51h2.69v3h-2.69Z"/><path class="cls-1" d="M252.28,5.56V5.11c.16-3.74,2.9-5.11,6-5.11a1.8,1.8,0,0,1,.4,0V2.42c-2.18,0-3.63.75-3.63,2.69v.45h3.63V8h-3.79V19h-2.71V8h-1.64V5.56Z"/><path class="cls-1" d="M50.65,27.06h2.71v3H50.65Zm0,4.49h2.71V45H50.65Z"/><path class="cls-1" d="M62,31.39a4.31,4.31,0,0,1,3.17,1.34,4.6,4.6,0,0,1,1.34,3.39V45H63.87V36.12A2,2,0,0,0,62,33.91H60.48a1.91,1.91,0,0,0-1.83,1.94V45H55.94V31.52h2l.08,1a2.93,2.93,0,0,1,2.42-1.13Z"/><path class="cls-1" d="M77.17,26.17h2.71v6.35a2.47,2.47,0,0,1,2.26-1.11h1.08a4.35,4.35,0,0,1,3.2,1.35,4.6,4.6,0,0,1,1.34,3.38V45H85V36.14a2,2,0,0,0-1.82-2.2H81.71A2,2,0,0,0,79.88,36v9H77.17Z"/><path class="cls-1" d="M89.59,36.65a5.14,5.14,0,0,1,1.5-3.89,5.32,5.32,0,0,1,3.79-1.43c3.41,0,5.38,1.91,5.38,5.32v2.74h-8v.11c0,2,.67,2.93,2.47,2.93h5.14V45H94.77c-3.84,0-5.18-2.18-5.18-6.4Zm8,.33v-.43c0-1.86-.89-2.69-2.69-2.69a2.43,2.43,0,0,0-2.58,2.69V37Z"/><path class="cls-1" d="M103.11,28.62h2.68v2.93h4v2.5h-4v6.47c0,1.64.43,2.15,1.7,2.15h2.28V45.2h-2.28c-3.15,0-4.38-1.91-4.38-4.68V34.05h-1.94v-2.5h1.94Z"/><path class="cls-1" d="M131.67,26.17h2.88V45h-2.37l-8.89-13.24V45h-2.88V26.17h2.5l8.76,13.06Z"/><path class="cls-1" d="M143.44,31.36A4.26,4.26,0,0,1,146.83,33a5.34,5.34,0,0,1,1.37,3.62V40.2a5.08,5.08,0,0,1-1.34,3.52,4.46,4.46,0,0,1-3.42,1.45h-1.5a4.42,4.42,0,0,1-3.41-1.45,5,5,0,0,1-1.35-3.52V36.57A5.42,5.42,0,0,1,138.53,33a4.33,4.33,0,0,1,3.41-1.59Zm2.05,5.21c0-1.42-1-2.68-2.05-2.68h-1.5c-1.07,0-2,1.26-2,2.68V40.2a2.22,2.22,0,0,0,2,2.47h1.5a2.25,2.25,0,0,0,2.05-2.47Z"/><path class="cls-1" d="M155.89,31.36A4.23,4.23,0,0,1,159.27,33a5.29,5.29,0,0,1,1.37,3.62V40.2a5,5,0,0,1-1.34,3.52,4.44,4.44,0,0,1-3.41,1.45h-1.51A4.44,4.44,0,0,1,151,43.72a5,5,0,0,1-1.34-3.52V36.57A5.41,5.41,0,0,1,151,33a4.33,4.33,0,0,1,3.41-1.59Zm2,5.21c0-1.42-1-2.68-2-2.68h-1.51c-1.07,0-2,1.26-2,2.68V40.2a2.23,2.23,0,0,0,2,2.47h1.51a2.25,2.25,0,0,0,2-2.47Z"/><path class="cls-1" d="M170.24,31.33v2.53h-2.15a2.45,2.45,0,0,0-2.74,2.74V45h-2.72V31.49h2.05l.13,1.37a3.43,3.43,0,0,1,3.28-1.53Z"/><path class="cls-1" d="M178.79,26.17h2.71V45h-2l-.11-1a2.64,2.64,0,0,1-2.1,1h-1.74a4.17,4.17,0,0,1-3.31-1.47,5.6,5.6,0,0,1-1.29-3.79v-3.6a4.58,4.58,0,0,1,1.32-3.39,4.39,4.39,0,0,1,3.22-1.34h1.08a2.59,2.59,0,0,1,2.26,1.13Zm0,9.81A2,2,0,0,0,177,33.91h-1.51a2,2,0,0,0-1.82,2.21v3.6c0,1.72.8,2.74,1.88,2.74h1.74A1.57,1.57,0,0,0,178.79,41Z"/><path class="cls-1" d="M183.6,36.65a5.14,5.14,0,0,1,1.5-3.89,5.32,5.32,0,0,1,3.79-1.43c3.41,0,5.37,1.91,5.37,5.32v2.74h-7.95v.11c0,2,.67,2.93,2.47,2.93h5.14V45h-5.14c-3.84,0-5.18-2.18-5.18-6.4Zm8,.33v-.43c0-1.86-.89-2.69-2.69-2.69a2.43,2.43,0,0,0-2.58,2.69V37Z"/><path class="cls-1" d="M202.22,31.39a4.31,4.31,0,0,1,3.17,1.34,4.6,4.6,0,0,1,1.34,3.39V45h-2.68V36.12a2,2,0,0,0-1.83-2.21h-1.56a1.91,1.91,0,0,0-1.83,1.94V45h-2.71V31.52h2l.08,1a2.93,2.93,0,0,1,2.42-1.13Z"/></g></g></svg>