<svg xmlns="http://www.w3.org/2000/svg" viewBox="0 0 44.23 60.28"><defs><style>.cls-1{fill:#ff7469;}.cls-2{fill:#ff5549;}.cls-3{fill:#ffeddb;}.cls-4{fill:#f76a08;}.cls-5{fill:#f1c1a0;}.cls-6{fill:#ffddbe;}.cls-7{fill:#5ab6ff;}.cls-8{fill:#2e49d2;}</style></defs><g id="Layer_2" data-name="Layer 2"><g id="Layer_1-2" data-name="Layer 1"><path class="cls-1" d="M43.53,58.34v1.4a.49.49,0,0,1-.11.31.64.64,0,0,1-.3.2l-.12,0H16.32a.6.6,0,0,1-.64-.51V58.32a.61.61,0,0,1,.64-.52H43l.12,0a.64.64,0,0,1,.3.2A.48.48,0,0,1,43.53,58.34Z"/><path class="cls-2" d="M30.48,60.28H16.25a.55.55,0,0,1-.57-.51V58.32a.56.56,0,0,1,.57-.52H28.74A4.35,4.35,0,0,0,30.48,60.28Z"/><rect class="cls-2" x="40" y="57.8" width="0.3" height="2.48"/><rect class="cls-2" x="38.97" y="57.8" width="0.3" height="2.48"/><rect class="cls-2" x="37.75" y="57.8" width="0.3" height="2.48"/><rect class="cls-2" x="35.87" y="57.8" width="0.3" height="2.48"/><rect class="cls-2" x="33.88" y="57.8" width="0.3" height="2.48"/><rect class="cls-2" x="30.84" y="57.8" width="0.3" height="2.48"/><rect class="cls-2" x="27.99" y="57.8" width="0.3" height="2.48"/><rect class="cls-2" x="25.44" y="57.8" width="0.3" height="2.48"/><rect class="cls-2" x="40.97" y="57.8" width="0.3" height="2.48"/><rect class="cls-2" x="41.61" y="57.8" width="0.3" height="2.48"/><rect class="cls-2" x="42.23" y="57.8" width="0.3" height="2.48"/><path class="cls-2" d="M43,57.81v2.46h-.3V57.8H43Z"/><path class="cls-2" d="M43.42,58v2a.64.64,0,0,1-.3.2V57.84A.64.64,0,0,1,43.42,58Z"/><path class="cls-1" d="M40.69,55.86v1.4a.44.44,0,0,1-.11.3.59.59,0,0,1-.3.21l-.12,0H13.48a.6.6,0,0,1-.64-.51V55.84a.6.6,0,0,1,.64-.52H40.16l.12,0h.1l0,0,0,0h0a.1.1,0,0,1,.05,0h0l0,0A.48.48,0,0,1,40.69,55.86Z"/><path class="cls-2" d="M27.64,57.8H13.41a.55.55,0,0,1-.57-.51V55.84a.55.55,0,0,1,.57-.52H25.9v.06A4.35,4.35,0,0,0,27.64,57.8Z"/><rect class="cls-2" x="37.16" y="55.32" width="0.3" height="2.48"/><rect class="cls-2" x="36.13" y="55.32" width="0.3" height="2.48"/><rect class="cls-2" x="34.91" y="55.32" width="0.3" height="2.48"/><rect class="cls-2" x="33.03" y="55.32" width="0.3" height="2.48"/><rect class="cls-2" x="31.04" y="55.32" width="0.3" height="2.48"/><rect class="cls-2" x="28" y="55.32" width="0.3" height="2.48"/><rect class="cls-2" x="25.14" y="55.32" width="0.3" height="2.48"/><rect class="cls-2" x="22.6" y="55.32" width="0.3" height="2.48"/><rect class="cls-2" x="38.13" y="55.32" width="0.3" height="2.48"/><rect class="cls-2" x="38.77" y="55.32" width="0.3" height="2.48"/><rect class="cls-2" x="39.39" y="55.32" width="0.3" height="2.48"/><path class="cls-2" d="M40.16,55.33v2.46h-.3V55.32h.3Z"/><path class="cls-2" d="M40.58,55.56v2a.59.59,0,0,1-.3.21V55.36A.64.64,0,0,1,40.58,55.56Z"/><path class="cls-1" d="M42.06,53.44v1.4a.49.49,0,0,1-.11.31.64.64,0,0,1-.3.2l-.12,0H14.85a.68.68,0,0,1-.29-.06.55.55,0,0,1-.35-.42V53.42a.61.61,0,0,1,.64-.52H41.53l.12,0a.64.64,0,0,1,.3.2A.48.48,0,0,1,42.06,53.44Z"/><path class="cls-2" d="M29,55.38H14.78a.58.58,0,0,1-.26-.06.54.54,0,0,1-.31-.42V53.42a.57.57,0,0,1,.57-.52H27.27a4.33,4.33,0,0,0,1.66,2.42Z"/><rect class="cls-2" x="38.53" y="52.9" width="0.3" height="2.48"/><rect class="cls-2" x="37.51" y="52.9" width="0.3" height="2.48"/><rect class="cls-2" x="36.28" y="52.9" width="0.3" height="2.48"/><rect class="cls-2" x="34.4" y="52.9" width="0.3" height="2.48"/><rect class="cls-2" x="32.41" y="52.9" width="0.3" height="2.48"/><rect class="cls-2" x="29.37" y="52.9" width="0.3" height="2.48"/><rect class="cls-2" x="26.52" y="52.9" width="0.3" height="2.48"/><rect class="cls-2" x="23.97" y="52.9" width="0.3" height="2.48"/><rect class="cls-2" x="39.5" y="52.9" width="0.3" height="2.48"/><rect class="cls-2" x="40.14" y="52.9" width="0.3" height="2.48"/><rect class="cls-2" x="40.76" y="52.9" width="0.3" height="2.48"/><path class="cls-2" d="M41.53,52.91v2.47h-.3V52.9h.3Z"/><path class="cls-2" d="M42,53.14v2a.64.64,0,0,1-.3.2V52.94A.64.64,0,0,1,42,53.14Z"/><path class="cls-1" d="M42.7,51v1.4a.49.49,0,0,1-.11.31.64.64,0,0,1-.3.2l-.12,0H15.49a.6.6,0,0,1-.64-.51V50.94a.57.57,0,0,1,.56-.51H42.17l.12,0a.64.64,0,0,1,.3.2A.48.48,0,0,1,42.7,51Z"/><path class="cls-2" d="M29.65,52.9H15.42a.55.55,0,0,1-.57-.51V50.94a.55.55,0,0,1,.5-.51H27.91A4.33,4.33,0,0,0,29.65,52.9Z"/><rect class="cls-2" x="39.16" y="50.42" width="0.3" height="2.48"/><rect class="cls-2" x="38.14" y="50.42" width="0.3" height="2.48"/><rect class="cls-2" x="36.92" y="50.42" width="0.3" height="2.48"/><rect class="cls-2" x="35.04" y="50.42" width="0.3" height="2.48"/><rect class="cls-2" x="33.05" y="50.42" width="0.3" height="2.48"/><rect class="cls-2" x="30.01" y="50.42" width="0.3" height="2.48"/><rect class="cls-2" x="27.15" y="50.42" width="0.3" height="2.48"/><rect class="cls-2" x="24.61" y="50.42" width="0.3" height="2.48"/><rect class="cls-2" x="40.14" y="50.42" width="0.3" height="2.48"/><rect class="cls-2" x="40.78" y="50.42" width="0.3" height="2.48"/><rect class="cls-2" x="41.4" y="50.42" width="0.3" height="2.48"/><path class="cls-2" d="M42.17,50.43V52.9h-.3V50.42h.3Z"/><path class="cls-2" d="M42.59,50.66v2a.64.64,0,0,1-.3.2V50.46A.64.64,0,0,1,42.59,50.66Z"/><path class="cls-1" d="M40.75,48.49v1.4a.48.48,0,0,1-.11.3.67.67,0,0,1-.31.2l-.11,0H13.54a.61.61,0,0,1-.65-.51V48.44a.61.61,0,0,1,.49-.48H40.22l.11,0a.62.62,0,0,1,.31.21A.46.46,0,0,1,40.75,48.49Z"/><path class="cls-2" d="M27.7,50.43H13.47a.57.57,0,0,1-.58-.51V48.44a.56.56,0,0,1,.45-.48H26a4.31,4.31,0,0,0,1.73,2.46Z"/><rect class="cls-2" x="37.21" y="47.95" width="0.3" height="2.48"/><rect class="cls-2" x="36.19" y="47.95" width="0.3" height="2.48"/><rect class="cls-2" x="34.96" y="47.95" width="0.3" height="2.48"/><rect class="cls-2" x="33.08" y="47.95" width="0.3" height="2.48"/><rect class="cls-2" x="31.1" y="47.95" width="0.3" height="2.48"/><rect class="cls-2" x="28.05" y="47.95" width="0.3" height="2.48"/><rect class="cls-2" x="25.2" y="47.95" width="0.3" height="2.48"/><rect class="cls-2" x="22.65" y="47.95" width="0.3" height="2.48"/><rect class="cls-2" x="38.18" y="47.95" width="0.3" height="2.48"/><rect class="cls-2" x="38.83" y="47.95" width="0.3" height="2.48"/><rect class="cls-2" x="39.45" y="47.95" width="0.3" height="2.48"/><path class="cls-2" d="M40.22,48v2.46h-.31V48h.31Z"/><path class="cls-2" d="M40.64,48.19v2a.67.67,0,0,1-.31.2V48A.62.62,0,0,1,40.64,48.19Z"/><path class="cls-1" d="M40.69,46v1.41a.48.48,0,0,1-.11.3.64.64,0,0,1-.3.2l-.09,0H13.36a.59.59,0,0,1-.52-.51V46a.6.6,0,0,1,.64-.52H40.16l.12,0h0l0,0h0l0,0,0,0,0,0h0l.05,0h0l0,0,0,0A.48.48,0,0,1,40.69,46Z"/><path class="cls-2" d="M27.64,48H13.34a.56.56,0,0,1-.5-.51V46a.55.55,0,0,1,.57-.52H25.9v.07A4.38,4.38,0,0,0,27.62,48Z"/><rect class="cls-2" x="37.16" y="45.48" width="0.3" height="2.48"/><rect class="cls-2" x="36.13" y="45.48" width="0.3" height="2.48"/><rect class="cls-2" x="34.91" y="45.48" width="0.3" height="2.48"/><rect class="cls-2" x="33.03" y="45.48" width="0.3" height="2.48"/><rect class="cls-2" x="31.04" y="45.48" width="0.3" height="2.48"/><rect class="cls-2" x="28" y="45.48" width="0.3" height="2.48"/><rect class="cls-2" x="25.14" y="45.48" width="0.3" height="2.48"/><rect class="cls-2" x="22.6" y="45.48" width="0.3" height="2.48"/><rect class="cls-2" x="38.13" y="45.48" width="0.3" height="2.48"/><rect class="cls-2" x="38.77" y="45.48" width="0.3" height="2.48"/><rect class="cls-2" x="39.39" y="45.48" width="0.3" height="2.48"/><path class="cls-2" d="M40.16,45.49V48h-.3V45.48h.3Z"/><path class="cls-2" d="M40.58,45.72v2a.64.64,0,0,1-.3.2V45.52A.64.64,0,0,1,40.58,45.72Z"/><path class="cls-1" d="M42.06,43.61V45a.48.48,0,0,1-.11.3.64.64,0,0,1-.3.2l-.12,0H14.85a.69.69,0,0,1-.29-.07.55.55,0,0,1-.35-.42V43.58a.6.6,0,0,1,.64-.51H41.53l.12,0a.64.64,0,0,1,.3.2A.49.49,0,0,1,42.06,43.61Z"/><path class="cls-2" d="M29,45.55H14.78a.59.59,0,0,1-.26-.07.54.54,0,0,1-.31-.42V43.58a.56.56,0,0,1,.57-.51H27.27a4.31,4.31,0,0,0,1.66,2.41Z"/><rect class="cls-2" x="38.53" y="43.07" width="0.3" height="2.48"/><rect class="cls-2" x="37.51" y="43.07" width="0.3" height="2.48"/><rect class="cls-2" x="36.28" y="43.07" width="0.3" height="2.48"/><rect class="cls-2" x="34.4" y="43.07" width="0.3" height="2.48"/><rect class="cls-2" x="32.41" y="43.07" width="0.3" height="2.48"/><rect class="cls-2" x="29.37" y="43.07" width="0.3" height="2.48"/><rect class="cls-2" x="26.52" y="43.07" width="0.3" height="2.48"/><rect class="cls-2" x="23.97" y="43.07" width="0.3" height="2.48"/><rect class="cls-2" x="39.5" y="43.07" width="0.3" height="2.48"/><rect class="cls-2" x="40.14" y="43.07" width="0.3" height="2.48"/><rect class="cls-2" x="40.76" y="43.07" width="0.3" height="2.48"/><path class="cls-2" d="M41.53,43.07v2.47h-.3V43.07h.3Z"/><path class="cls-2" d="M42,43.3v2a.64.64,0,0,1-.3.2V43.1A.64.64,0,0,1,42,43.3Z"/><path class="cls-1" d="M44.23,41.12v1.41a.48.48,0,0,1-.11.3.59.59,0,0,1-.3.2l-.12,0H17a.61.61,0,0,1-.64-.52V41.1a.59.59,0,0,1,.57-.51H43.7l.12,0a.59.59,0,0,1,.3.2A.48.48,0,0,1,44.23,41.12Z"/><path class="cls-2" d="M31.19,43.07H17a.57.57,0,0,1-.57-.52V41.1a.56.56,0,0,1,.51-.51H29.44A4.37,4.37,0,0,0,31.19,43.07Z"/><rect class="cls-2" x="40.7" y="40.59" width="0.3" height="2.48"/><rect class="cls-2" x="39.68" y="40.59" width="0.3" height="2.48"/><rect class="cls-2" x="38.45" y="40.59" width="0.3" height="2.48"/><rect class="cls-2" x="36.57" y="40.59" width="0.3" height="2.48"/><rect class="cls-2" x="34.59" y="40.59" width="0.3" height="2.48"/><rect class="cls-2" x="31.54" y="40.59" width="0.3" height="2.48"/><rect class="cls-2" x="28.69" y="40.59" width="0.3" height="2.48"/><rect class="cls-2" x="26.14" y="40.59" width="0.3" height="2.48"/><rect class="cls-2" x="41.67" y="40.59" width="0.3" height="2.48"/><rect class="cls-2" x="42.31" y="40.59" width="0.3" height="2.48"/><rect class="cls-2" x="42.94" y="40.59" width="0.3" height="2.48"/><path class="cls-2" d="M43.7,40.59v2.47h-.3V40.59h.3Z"/><path class="cls-2" d="M44.12,40.82v2a.59.59,0,0,1-.3.2V40.62A.59.59,0,0,1,44.12,40.82Z"/><path class="cls-1" d="M40.75,38.65v1.4a.48.48,0,0,1-.11.3.67.67,0,0,1-.31.2.35.35,0,0,1-.11,0H13.54a.61.61,0,0,1-.65-.51V38.62a.61.61,0,0,1,.65-.51H40.22a.2.2,0,0,1,.11,0l.06,0h0l0,0h0l0,0a.18.18,0,0,1,.07.05h0l0,0,0,0A.46.46,0,0,1,40.75,38.65Z"/><path class="cls-2" d="M27.7,40.59H13.47a.57.57,0,0,1-.58-.51V38.62a.57.57,0,0,1,.58-.51H26s0,0,0,.06a4.39,4.39,0,0,0,1.72,2.42Z"/><rect class="cls-2" x="37.21" y="38.11" width="0.3" height="2.48"/><rect class="cls-2" x="36.19" y="38.11" width="0.3" height="2.48"/><rect class="cls-2" x="34.96" y="38.11" width="0.3" height="2.48"/><rect class="cls-2" x="33.08" y="38.11" width="0.3" height="2.48"/><rect class="cls-2" x="31.1" y="38.11" width="0.3" height="2.48"/><rect class="cls-2" x="28.05" y="38.11" width="0.3" height="2.48"/><rect class="cls-2" x="25.2" y="38.11" width="0.3" height="2.48"/><rect class="cls-2" x="22.65" y="38.11" width="0.3" height="2.48"/><rect class="cls-2" x="38.18" y="38.11" width="0.3" height="2.48"/><rect class="cls-2" x="38.83" y="38.11" width="0.3" height="2.48"/><rect class="cls-2" x="39.45" y="38.11" width="0.3" height="2.48"/><path class="cls-2" d="M40.22,38.12v2.46h-.31V38.11h.31Z"/><path class="cls-2" d="M40.64,38.35v2a.67.67,0,0,1-.31.2v-2.4A.67.67,0,0,1,40.64,38.35Z"/><path class="cls-1" d="M42.7,36.23v1.4a.48.48,0,0,1-.11.3.64.64,0,0,1-.3.2l-.12,0H15.49a.72.72,0,0,1-.29-.06.55.55,0,0,1-.35-.43V36.2a.57.57,0,0,1,.56-.51H42.17l.12,0a.64.64,0,0,1,.3.2A.49.49,0,0,1,42.7,36.23Z"/><path class="cls-2" d="M29.65,38.17H15.42a.58.58,0,0,1-.26-.06.54.54,0,0,1-.31-.43V36.2a.56.56,0,0,1,.5-.51H27.91a4.33,4.33,0,0,0,1.66,2.42Z"/><rect class="cls-2" x="39.16" y="35.69" width="0.3" height="2.48"/><rect class="cls-2" x="38.14" y="35.69" width="0.3" height="2.48"/><rect class="cls-2" x="36.92" y="35.69" width="0.3" height="2.48"/><rect class="cls-2" x="35.04" y="35.69" width="0.3" height="2.48"/><rect class="cls-2" x="33.05" y="35.69" width="0.3" height="2.48"/><rect class="cls-2" x="30.01" y="35.69" width="0.3" height="2.48"/><rect class="cls-2" x="27.15" y="35.69" width="0.3" height="2.48"/><rect class="cls-2" x="24.61" y="35.69" width="0.3" height="2.48"/><rect class="cls-2" x="40.14" y="35.69" width="0.3" height="2.48"/><rect class="cls-2" x="40.78" y="35.69" width="0.3" height="2.48"/><rect class="cls-2" x="41.4" y="35.69" width="0.3" height="2.48"/><path class="cls-2" d="M42.17,35.69v2.47h-.3V35.69h.3Z"/><path class="cls-2" d="M42.59,35.92v2a.64.64,0,0,1-.3.2V35.72A.64.64,0,0,1,42.59,35.92Z"/><path class="cls-1" d="M43.53,33.75v1.4a.48.48,0,0,1-.11.3.64.64,0,0,1-.3.2.53.53,0,0,1-.12,0H16.32a.61.61,0,0,1-.64-.51V33.72a.61.61,0,0,1,.64-.51H43a.27.27,0,0,1,.12,0,.64.64,0,0,1,.3.2A.46.46,0,0,1,43.53,33.75Z"/><path class="cls-2" d="M30.48,35.69H16.25a.56.56,0,0,1-.57-.51V33.72a.56.56,0,0,1,.57-.51H28.74a4.35,4.35,0,0,0,1.74,2.48Z"/><rect class="cls-2" x="40" y="33.21" width="0.3" height="2.48"/><rect class="cls-2" x="38.97" y="33.21" width="0.3" height="2.48"/><rect class="cls-2" x="37.75" y="33.21" width="0.3" height="2.48"/><rect class="cls-2" x="35.87" y="33.21" width="0.3" height="2.48"/><rect class="cls-2" x="33.88" y="33.21" width="0.3" height="2.48"/><rect class="cls-2" x="30.84" y="33.21" width="0.3" height="2.48"/><rect class="cls-2" x="27.99" y="33.21" width="0.3" height="2.48"/><rect class="cls-2" x="25.44" y="33.21" width="0.3" height="2.48"/><rect class="cls-2" x="40.97" y="33.21" width="0.3" height="2.48"/><rect class="cls-2" x="41.61" y="33.21" width="0.3" height="2.48"/><rect class="cls-2" x="42.23" y="33.21" width="0.3" height="2.48"/><path class="cls-2" d="M43,33.22v2.46h-.3V33.21H43Z"/><path class="cls-2" d="M43.42,33.45v2a.64.64,0,0,1-.3.2v-2.4A.64.64,0,0,1,43.42,33.45Z"/><path class="cls-1" d="M42.15,31.23v1.4a.48.48,0,0,1-.11.3.64.64,0,0,1-.3.2l-.12,0H14.94a.6.6,0,0,1-.64-.52V31.2a.6.6,0,0,1,.64-.51H41.62l.12,0a.64.64,0,0,1,.3.2A.49.49,0,0,1,42.15,31.23Z"/><path class="cls-2" d="M29.1,33.17H14.87a.55.55,0,0,1-.57-.52V31.2a.55.55,0,0,1,.57-.51H27.35A4.37,4.37,0,0,0,29.1,33.17Z"/><rect class="cls-2" x="38.61" y="30.69" width="0.3" height="2.48"/><rect class="cls-2" x="37.59" y="30.69" width="0.3" height="2.48"/><rect class="cls-2" x="36.37" y="30.69" width="0.3" height="2.48"/><rect class="cls-2" x="34.49" y="30.69" width="0.3" height="2.48"/><rect class="cls-2" x="32.5" y="30.69" width="0.3" height="2.48"/><rect class="cls-2" x="29.46" y="30.69" width="0.3" height="2.48"/><rect class="cls-2" x="26.6" y="30.69" width="0.3" height="2.48"/><rect class="cls-2" x="24.06" y="30.69" width="0.3" height="2.48"/><rect class="cls-2" x="39.59" y="30.69" width="0.3" height="2.48"/><rect class="cls-2" x="40.23" y="30.69" width="0.3" height="2.48"/><rect class="cls-2" x="40.85" y="30.69" width="0.3" height="2.48"/><path class="cls-2" d="M41.62,30.7v2.46h-.3V30.69h.3Z"/><path class="cls-2" d="M42,30.92v2a.64.64,0,0,1-.3.2V30.72A.64.64,0,0,1,42,30.92Z"/><path class="cls-1" d="M39.31,28.75v1.4a.48.48,0,0,1-.11.3.64.64,0,0,1-.3.2l-.12,0H12.1a.6.6,0,0,1-.64-.52V28.72a.6.6,0,0,1,.64-.51H38.78l.12,0h0l0,0h0l0,0,0,0,0,0h0l0,0h0v0l0,0A.49.49,0,0,1,39.31,28.75Z"/><path class="cls-2" d="M26.26,30.69H12a.55.55,0,0,1-.57-.52V28.72a.55.55,0,0,1,.57-.51H24.51l0,.06A4.38,4.38,0,0,0,26.26,30.69Z"/><rect class="cls-2" x="35.77" y="28.21" width="0.3" height="2.48"/><rect class="cls-2" x="34.75" y="28.21" width="0.3" height="2.48"/><rect class="cls-2" x="33.53" y="28.21" width="0.3" height="2.48"/><rect class="cls-2" x="31.65" y="28.21" width="0.3" height="2.48"/><rect class="cls-2" x="29.66" y="28.21" width="0.3" height="2.48"/><rect class="cls-2" x="26.61" y="28.21" width="0.3" height="2.48"/><rect class="cls-2" x="23.76" y="28.21" width="0.3" height="2.48"/><rect class="cls-2" x="21.22" y="28.21" width="0.3" height="2.48"/><rect class="cls-2" x="36.75" y="28.21" width="0.3" height="2.48"/><rect class="cls-2" x="37.39" y="28.21" width="0.3" height="2.48"/><rect class="cls-2" x="38.01" y="28.21" width="0.3" height="2.48"/><path class="cls-2" d="M38.78,28.21v2.47h-.3V28.21h.3Z"/><path class="cls-2" d="M39.2,28.44v2a.64.64,0,0,1-.3.2V28.24A.64.64,0,0,1,39.2,28.44Z"/><path class="cls-1" d="M40.68,26.33v1.4a.48.48,0,0,1-.11.3.64.64,0,0,1-.3.2l-.12,0H13.47a.73.73,0,0,1-.3-.06.59.59,0,0,1-.34-.43V26.3a.61.61,0,0,1,.64-.51H40.15l.12,0a.59.59,0,0,1,.3.21A.46.46,0,0,1,40.68,26.33Z"/><path class="cls-2" d="M27.63,28.27H13.4a.58.58,0,0,1-.26-.06.57.57,0,0,1-.31-.43V26.3a.56.56,0,0,1,.57-.51H25.89a4.36,4.36,0,0,0,1.66,2.42Z"/><rect class="cls-2" x="37.15" y="25.79" width="0.3" height="2.48"/><rect class="cls-2" x="36.12" y="25.79" width="0.3" height="2.48"/><rect class="cls-2" x="34.9" y="25.79" width="0.3" height="2.48"/><rect class="cls-2" x="33.02" y="25.79" width="0.3" height="2.48"/><rect class="cls-2" x="31.03" y="25.79" width="0.3" height="2.48"/><rect class="cls-2" x="27.99" y="25.79" width="0.3" height="2.48"/><rect class="cls-2" x="25.14" y="25.79" width="0.3" height="2.48"/><rect class="cls-2" x="22.59" y="25.79" width="0.3" height="2.48"/><rect class="cls-2" x="38.12" y="25.79" width="0.3" height="2.48"/><rect class="cls-2" x="38.76" y="25.79" width="0.3" height="2.48"/><rect class="cls-2" x="39.38" y="25.79" width="0.3" height="2.48"/><path class="cls-2" d="M40.15,25.8v2.46h-.3V25.79h.3Z"/><path class="cls-2" d="M40.57,26v2a.64.64,0,0,1-.3.2V25.82A.59.59,0,0,1,40.57,26Z"/><path class="cls-1" d="M41.32,23.85v1.4a.48.48,0,0,1-.11.3.69.69,0,0,1-.3.2l-.12,0H14.11a.61.61,0,0,1-.65-.52V23.82a.6.6,0,0,1,.57-.51H40.79l.12,0a.63.63,0,0,1,.3.21A.44.44,0,0,1,41.32,23.85Z"/><path class="cls-2" d="M28.27,25.79H14a.57.57,0,0,1-.58-.52V23.82a.57.57,0,0,1,.51-.51H26.52A4.37,4.37,0,0,0,28.27,25.79Z"/><rect class="cls-2" x="37.78" y="23.31" width="0.3" height="2.48"/><rect class="cls-2" x="36.76" y="23.31" width="0.3" height="2.48"/><rect class="cls-2" x="35.53" y="23.31" width="0.3" height="2.48"/><rect class="cls-2" x="33.66" y="23.31" width="0.3" height="2.48"/><rect class="cls-2" x="31.67" y="23.31" width="0.3" height="2.48"/><rect class="cls-2" x="28.62" y="23.31" width="0.3" height="2.48"/><rect class="cls-2" x="25.77" y="23.31" width="0.3" height="2.48"/><rect class="cls-2" x="23.23" y="23.31" width="0.3" height="2.48"/><rect class="cls-2" x="38.76" y="23.31" width="0.3" height="2.48"/><rect class="cls-2" x="39.4" y="23.31" width="0.3" height="2.48"/><rect class="cls-2" x="40.02" y="23.31" width="0.3" height="2.48"/><path class="cls-2" d="M40.79,23.32v2.46h-.3V23.31h.3Z"/><path class="cls-2" d="M41.21,23.55v2a.69.69,0,0,1-.3.2V23.34A.63.63,0,0,1,41.21,23.55Z"/><path class="cls-1" d="M39.36,21.37v1.4a.46.46,0,0,1-.11.3.59.59,0,0,1-.3.2.24.24,0,0,1-.12,0H12.15a.61.61,0,0,1-.64-.51V21.32a.58.58,0,0,1,.48-.47H38.83a.24.24,0,0,1,.12,0,.59.59,0,0,1,.3.2A.46.46,0,0,1,39.36,21.37Z"/><path class="cls-2" d="M26.32,23.31H12.08a.57.57,0,0,1-.57-.51V21.32a.57.57,0,0,1,.45-.48H24.57v0a4.41,4.41,0,0,0,1.74,2.46Z"/><rect class="cls-2" x="35.83" y="20.83" width="0.3" height="2.48"/><rect class="cls-2" x="34.81" y="20.83" width="0.3" height="2.48"/><rect class="cls-2" x="33.58" y="20.83" width="0.3" height="2.48"/><rect class="cls-2" x="31.7" y="20.83" width="0.3" height="2.48"/><rect class="cls-2" x="29.72" y="20.83" width="0.3" height="2.48"/><rect class="cls-2" x="26.67" y="20.83" width="0.3" height="2.48"/><rect class="cls-2" x="23.82" y="20.83" width="0.3" height="2.48"/><rect class="cls-2" x="21.27" y="20.83" width="0.3" height="2.48"/><rect class="cls-2" x="36.8" y="20.83" width="0.3" height="2.48"/><rect class="cls-2" x="37.45" y="20.83" width="0.3" height="2.48"/><rect class="cls-2" x="38.07" y="20.83" width="0.3" height="2.48"/><path class="cls-2" d="M38.83,20.84V23.3h-.3V20.83h.3Z"/><path class="cls-2" d="M39.25,21.07v2a.59.59,0,0,1-.3.2v-2.4A.59.59,0,0,1,39.25,21.07Z"/><path class="cls-1" d="M39.31,18.91v1.4a.48.48,0,0,1-.11.3.64.64,0,0,1-.3.2l-.1,0H12a.57.57,0,0,1-.52-.5V18.88a.6.6,0,0,1,.64-.51H38.78l.12,0H39l0,0h0l0,0,0,0h0l0,0v0h0l0,0A.46.46,0,0,1,39.31,18.91Z"/><path class="cls-2" d="M26.26,20.85H12a.54.54,0,0,1-.5-.5V18.88a.55.55,0,0,1,.57-.51H24.51l0,.06a4.35,4.35,0,0,0,1.71,2.4Z"/><rect class="cls-2" x="35.77" y="18.37" width="0.3" height="2.48"/><rect class="cls-2" x="34.75" y="18.37" width="0.3" height="2.48"/><rect class="cls-2" x="33.53" y="18.37" width="0.3" height="2.48"/><rect class="cls-2" x="31.65" y="18.37" width="0.3" height="2.48"/><rect class="cls-2" x="29.66" y="18.37" width="0.3" height="2.48"/><rect class="cls-2" x="26.61" y="18.37" width="0.3" height="2.48"/><rect class="cls-2" x="23.76" y="18.37" width="0.3" height="2.48"/><rect class="cls-2" x="21.22" y="18.37" width="0.3" height="2.48"/><rect class="cls-2" x="36.75" y="18.37" width="0.3" height="2.48"/><rect class="cls-2" x="37.39" y="18.37" width="0.3" height="2.48"/><rect class="cls-2" x="38.01" y="18.37" width="0.3" height="2.48"/><path class="cls-2" d="M38.78,18.38v2.46h-.3V18.37h.3Z"/><path class="cls-2" d="M39.2,18.61v2a.64.64,0,0,1-.3.2V18.4A.65.65,0,0,1,39.2,18.61Z"/><path class="cls-1" d="M40.68,16.49v1.4a.48.48,0,0,1-.11.3.64.64,0,0,1-.3.2l-.12,0H13.47a.73.73,0,0,1-.3-.06.57.57,0,0,1-.34-.43V16.46a.61.61,0,0,1,.64-.51H40.15l.12,0a.65.65,0,0,1,.3.21A.46.46,0,0,1,40.68,16.49Z"/><path class="cls-2" d="M27.63,18.43H13.4a.58.58,0,0,1-.26-.06.55.55,0,0,1-.31-.43V16.46A.56.56,0,0,1,13.4,16H25.89a4.36,4.36,0,0,0,1.66,2.42Z"/><rect class="cls-2" x="37.15" y="15.95" width="0.3" height="2.48"/><rect class="cls-2" x="36.12" y="15.95" width="0.3" height="2.48"/><rect class="cls-2" x="34.9" y="15.95" width="0.3" height="2.48"/><rect class="cls-2" x="33.02" y="15.95" width="0.3" height="2.48"/><rect class="cls-2" x="31.03" y="15.95" width="0.3" height="2.48"/><rect class="cls-2" x="27.99" y="15.95" width="0.3" height="2.48"/><rect class="cls-2" x="25.14" y="15.95" width="0.3" height="2.48"/><rect class="cls-2" x="22.59" y="15.95" width="0.3" height="2.48"/><rect class="cls-2" x="38.12" y="15.95" width="0.3" height="2.48"/><rect class="cls-2" x="38.76" y="15.95" width="0.3" height="2.48"/><rect class="cls-2" x="39.38" y="15.95" width="0.3" height="2.48"/><path class="cls-2" d="M40.15,16v2.46h-.3V16h.3Z"/><path class="cls-2" d="M40.57,16.19v2a.64.64,0,0,1-.3.2V16A.65.65,0,0,1,40.57,16.19Z"/><path class="cls-1" d="M42.85,14v1.4a.48.48,0,0,1-.11.3.64.64,0,0,1-.3.2l-.12,0H15.64a.61.61,0,0,1-.64-.51V14a.6.6,0,0,1,.57-.51H42.32l.12,0a.65.65,0,0,1,.3.21A.46.46,0,0,1,42.85,14Z"/><path class="cls-2" d="M29.81,16H15.57a.56.56,0,0,1-.57-.51V14a.56.56,0,0,1,.5-.51H28.06A4.33,4.33,0,0,0,29.81,16Z"/><rect class="cls-2" x="39.32" y="13.47" width="0.3" height="2.48"/><rect class="cls-2" x="38.3" y="13.47" width="0.3" height="2.48"/><rect class="cls-2" x="37.07" y="13.47" width="0.3" height="2.48"/><rect class="cls-2" x="35.19" y="13.47" width="0.3" height="2.48"/><rect class="cls-2" x="33.2" y="13.47" width="0.3" height="2.48"/><rect class="cls-2" x="30.16" y="13.47" width="0.3" height="2.48"/><rect class="cls-2" x="27.31" y="13.47" width="0.3" height="2.48"/><rect class="cls-2" x="24.76" y="13.47" width="0.3" height="2.48"/><rect class="cls-2" x="40.29" y="13.47" width="0.3" height="2.48"/><rect class="cls-2" x="40.93" y="13.47" width="0.3" height="2.48"/><rect class="cls-2" x="41.55" y="13.47" width="0.3" height="2.48"/><path class="cls-2" d="M42.32,13.48v2.46H42V13.47h.3Z"/><path class="cls-2" d="M42.74,13.71v2a.64.64,0,0,1-.3.2V13.5A.65.65,0,0,1,42.74,13.71Z"/><path class="cls-3" d="M32.94,2.12s-1.11,1.57-2.13,1.59A7.45,7.45,0,0,1,28.24,3S27.3.9,27.94.08a1.36,1.36,0,0,1,1.3.21,2.61,2.61,0,0,1,.34.33,1.14,1.14,0,0,0,.54.37c.73.22,1.59-.3,1.92.2a3.71,3.71,0,0,0,.56.67A3.56,3.56,0,0,0,32.94,2.12Z"/><path class="cls-3" d="M18.43,13.43s3.94-9.54,11-9.72c0,0,6.54.73,6.9,9.72Z"/><path class="cls-4" d="M27.51,4s2.84.63,3.71.26a.87.87,0,0,0-1.06-1A2.45,2.45,0,0,1,28.5,2.8C28.05,2.58,27.39,3.51,27.51,4Z"/><path class="cls-5" d="M30,2.21c-.18.14-.74-1.92-.74-1.92a2.61,2.61,0,0,1,.34.33,1.14,1.14,0,0,0,.54.37C30.12,1.05,30.16,2.08,30,2.21Z"/><path class="cls-5" d="M32.6,1.86a12,12,0,0,1-1.53.81c-.18,0,1-1.48,1-1.48A3.71,3.71,0,0,0,32.6,1.86Z"/><path class="cls-6" d="M22.28,10.76c-.08-.06,2.78-4.2,3.57-4.23s2.55.9,3.83,1,2.52-.24,2.76.52.91,3.44.5,3.87S23.85,12.1,22.28,10.76Z"/><path class="cls-7" d="M8.38,32.42s2.73,3.86,5.24,3.91S20,34.54,20,34.54s2.31-5.13.75-7.14a3.36,3.36,0,0,0-3.21.52,5,5,0,0,0-.85.82,2.71,2.71,0,0,1-1.32.89c-1.79.54-3.92-.74-4.71.5a8.43,8.43,0,0,1-1.39,1.64A6.15,6.15,0,0,1,8.38,32.42Z"/><path class="cls-7" d="M44.07,60.23S34.4,36.78,17,36.33c0,0-16.08,1.79-17,23.9Z"/><path class="cls-8" d="M21.75,37.05s-7,1.55-9.14.64c0,0-.33-2.92,2.61-2.51a6.19,6.19,0,0,0,4.1-1.08C20.41,33.54,22,35.82,21.75,37.05Z"/><path class="cls-8" d="M15.67,32.64c.45.34,1.82-4.72,1.82-4.72a5,5,0,0,0-.85.82,2.71,2.71,0,0,1-1.32.89C15.32,29.78,15.24,32.32,15.67,32.64Z"/><path class="cls-8" d="M9.22,31.77a28.58,28.58,0,0,0,3.77,2c.45,0-2.38-3.63-2.38-3.63A8.43,8.43,0,0,1,9.22,31.77Z"/><path class="cls-8" d="M34.62,53.68c.18-.16-6.85-10.35-8.79-10.43s-6.28,2.24-9.43,2.53-6.2-.59-6.8,1.27-2.23,8.46-1.22,9.52S30.75,57,34.62,53.68Z"/></g></g></svg>