<svg xmlns="http://www.w3.org/2000/svg" viewBox="0 0 216.09 109.82"><defs><style>.cls-1{fill:#fff;}</style></defs><g id="Layer_2" data-name="Layer 2"><g id="Layer_1-2" data-name="Layer 1"><path class="cls-1" d="M6,10.77C3,10.15.44,8.61.44,5.38.44,1.64,4.44,0,7.85,0c3.84,0,7.1,2.26,7.31,5.82H11.62c-.28-2.18-2.18-2.9-3.92-2.9s-3.59.64-3.59,2.31c0,1.31,1.07,2,2.59,2.31L9.13,8c3,.57,6.36,1.72,6.36,5.59S11.69,19.25,8,19.25C3.39,19.25.36,16.79,0,12.79H3.57c.41,2.74,2.31,3.54,4.51,3.54,1.64,0,3.72-.62,3.72-2.59,0-1.56-1.46-2.2-3.44-2.54Z"/><path class="cls-1" d="M18.42,1.38H22V5.13h2.87V7.56H22v7.13c0,1.41.49,1.69,1.74,1.69h1.08v2.54H22.18c-3.18,0-3.76-1-3.76-3.72V7.56h-2V5.13h2Z"/><path class="cls-1" d="M35,8.54a9.06,9.06,0,0,0-1.47-.08c-1.74,0-2.89.64-2.89,3.23v7.23H27.08V5.13h3.49V7.54a3.69,3.69,0,0,1,3.64-2.39c.23,0,.54,0,.77,0Z"/><path class="cls-1" d="M39.41,13a3.51,3.51,0,0,0,3.49,3.51,3.18,3.18,0,0,0,2.9-1.59h3.64a6.59,6.59,0,0,1-6.52,4.33c-4.43,0-7-3.31-7-7.28a6.8,6.8,0,0,1,6.92-7.15c4.26,0,6.9,3.31,6.77,8.18Zm.05-2.44H46a3,3,0,0,0-3.2-3.15A3.32,3.32,0,0,0,39.46,10.56Z"/><path class="cls-1" d="M59.77,9.28a2.75,2.75,0,0,0-3-2c-1.31,0-2.23.48-2.23,1.33s.54,1.31,1.85,1.59l1.84.41c2.75.61,5.08,1.31,5.08,4.15s-2.85,4.46-6,4.46c-3.39,0-6-1.74-6.29-4.89h3.41a2.69,2.69,0,0,0,3,2.33c1.54,0,2.48-.57,2.48-1.57s-1-1.41-2.25-1.69l-2-.43c-2.59-.54-4.31-1.62-4.31-4.13S54,4.77,57,4.77s5.59,1.33,6.08,4.51Z"/><path class="cls-1" d="M73.33,9.28a2.74,2.74,0,0,0-3-2c-1.3,0-2.22.48-2.22,1.33S68.69,10,70,10.23l1.85.41c2.74.61,5.07,1.31,5.07,4.15s-2.84,4.46-6,4.46c-3.38,0-6-1.74-6.28-4.89h3.41a2.68,2.68,0,0,0,3,2.33c1.54,0,2.49-.57,2.49-1.57s-1.05-1.41-2.26-1.69l-2-.43c-2.59-.54-4.31-1.62-4.31-4.13s2.67-4.1,5.64-4.1,5.59,1.33,6.08,4.51Z"/><path class="cls-1" d="M101.89,10.89c0-1.51-.13-3.23-2.2-3.23-2.36,0-2.74,2-2.74,4.08v7.18H93.41v-8c0-1.51-.13-3.23-2.21-3.23-2.36,0-2.74,2-2.74,4.08v7.18H84.92V5.13h3.54V7a4.29,4.29,0,0,1,3.85-2.13,4.12,4.12,0,0,1,3.92,2.25,5.07,5.07,0,0,1,4.54-2.25c3.46,0,4.66,2.15,4.66,5.41v8.69h-3.54Z"/><path class="cls-1" d="M112,.33V3.61h-3.54V.33Zm0,4.8V18.92h-3.54V5.13Z"/><path class="cls-1" d="M115.61,1.38h3.54V5.13H122V7.56h-2.87v7.13c0,1.41.49,1.69,1.74,1.69H122v2.54h-2.59c-3.18,0-3.77-1-3.77-3.72V7.56h-1.94V5.13h1.94Z"/><path class="cls-1" d="M10.05,48.92V47.17a4.43,4.43,0,0,1-4,2.08c-3.28,0-6-2.82-6-7.23s2.67-7.2,6-7.2a4.42,4.42,0,0,1,4,2.08V30.33h3.54V48.92Zm.13-6.9c0-2.77-1.28-4.48-3.23-4.48S3.8,39.36,3.8,42.05,5.11,46.53,7,46.53,10.18,44.87,10.18,42Z"/><path class="cls-1" d="M19.39,43a3.49,3.49,0,0,0,3.48,3.51,3.17,3.17,0,0,0,2.9-1.59h3.64a6.57,6.57,0,0,1-6.51,4.33c-4.43,0-7-3.31-7-7.28a6.79,6.79,0,0,1,6.92-7.15c4.25,0,6.89,3.31,6.77,8.18Zm.05-2.44H26a3,3,0,0,0-3.21-3.15A3.31,3.31,0,0,0,19.44,40.56Z"/><path class="cls-1" d="M48.82,40.89c0-1.51-.13-3.23-2.2-3.23-2.36,0-2.75,2-2.75,4.08v7.18H40.33v-8c0-1.51-.12-3.23-2.2-3.23-2.36,0-2.74,2-2.74,4.08v7.18H31.85V35.13h3.54V37a4.29,4.29,0,0,1,3.84-2.13,4.12,4.12,0,0,1,3.93,2.25,5.07,5.07,0,0,1,4.53-2.25c3.46,0,4.67,2.15,4.67,5.41v8.69H48.82Z"/><path class="cls-1" d="M66.46,30.33h3.69L77.1,48.92h-4l-1.31-3.77H64.59l-1.31,3.77H59.54Zm-.82,11.82h5.13l-2.56-7.33Z"/><path class="cls-1" d="M86.77,47.1a4.46,4.46,0,0,1-4,2.15c-3.3,0-4.64-2-4.64-5.41V35.13h3.54v7.94c0,1.85.28,3.34,2.26,3.34,2.35,0,2.87-1.93,2.87-4.11V35.13h3.54V48.92H86.77Z"/><path class="cls-1" d="M94,31.38h3.54v3.75h2.87v2.43H97.51v7.13c0,1.41.49,1.69,1.74,1.69h1.08v2.54H97.74c-3.18,0-3.77-1-3.77-3.72V37.56H92V35.13H94Z"/><path class="cls-1" d="M101.72,42.05c0-4.85,3.43-7.23,6.92-7.23s6.92,2.38,6.92,7.23-3.43,7.2-6.92,7.2S101.72,46.87,101.72,42.05Zm3.59,0c0,2.89,1.38,4.43,3.33,4.43S112,44.94,112,42.05s-1.38-4.46-3.33-4.46S105.31,39.15,105.31,42.05Z"/><path class="cls-1" d="M129.51,34.69a5.6,5.6,0,0,1-3.15,4.72c-1.67,1-2.41,1.51-2.41,3.38v.8h-3.46v-.88A4.76,4.76,0,0,1,123.23,38c1.61-1,2.72-1.8,2.72-3.13s-1.36-2.18-2.72-2.18c-1.87,0-3.31,1-3.39,3.46h-3.48c0-3.77,3-6.15,6.92-6.15C126.41,30,129.51,31.49,129.51,34.69Zm-9.2,14.23V45.07h3.79v3.85Z"/><path class="cls-1" d="M1.06,60.33H14.59v3H4.72v4.61h9.33v3H4.72v5h9.87v3H1.06Z"/><path class="cls-1" d="M21.11,60.33v3.28H17.57V60.33Zm0,4.8V78.92H17.57V65.13Z"/><path class="cls-1" d="M27.82,67a4.39,4.39,0,0,1,4-2.13c3.31,0,4.77,2,4.77,5.41v8.69H33.05V71c0-1.77-.38-3.34-2.38-3.34-2.33,0-2.85,1.9-2.85,4.08v7.18H24.29V65.13h3.53Z"/><path class="cls-1" d="M39.9,64.36c0-3.49,1.64-4,5.1-4h1.21V63h-.7c-1.74,0-2.07.2-2.07,1.51v.67h2.77v2.43H43.44V78.92H39.9V67.56H38V65.13H39.9Z"/><path class="cls-1" d="M51.64,79.25c-2.64,0-5-1.54-5-4,0-3.25,3.64-4.23,9.07-4.84v-.23c0-2.13-1.15-2.88-2.58-2.88a2.31,2.31,0,0,0-2.57,2.23H47.28c.29-2.71,2.49-4.71,6-4.71,3.26,0,6,1.43,6,6.07,0,.41-.05,2.29-.05,3.52a18.5,18.5,0,0,0,.41,4.56H56.39a15.48,15.48,0,0,1-.24-1.72A5,5,0,0,1,51.64,79.25Zm4.21-6.64c-4,.41-5.54.87-5.54,2.41,0,1,.77,1.82,2.38,1.82,2.23,0,3.16-1.18,3.16-3.2Z"/><path class="cls-1" d="M74.51,69.84H71.13a2.94,2.94,0,0,0-2.87-2.28C66.41,67.56,65,69.13,65,72s1.38,4.51,3.33,4.51a3,3,0,0,0,3-2.28h3.38c-.82,3.77-3.67,5-6.54,5-4.12,0-6.77-3-6.77-7.2s2.8-7.23,6.93-7.23C71.15,64.82,74,66.43,74.51,69.84Z"/><path class="cls-1" d="M80.28,67a4.39,4.39,0,0,1,4-2.13c3.31,0,4.77,2,4.77,5.41v8.69H85.51V71c0-1.77-.38-3.34-2.38-3.34-2.34,0-2.85,1.9-2.85,4.08v7.18H76.75V60.33h3.53Z"/><path class="cls-1" d="M105.59,69.28a2.75,2.75,0,0,0-3-2c-1.31,0-2.23.48-2.23,1.33s.54,1.31,1.84,1.59l1.85.41c2.74.61,5.08,1.31,5.08,4.15s-2.85,4.46-6,4.46c-3.38,0-5.94-1.74-6.28-4.89h3.41a2.69,2.69,0,0,0,3,2.33c1.53,0,2.48-.57,2.48-1.57s-1.05-1.41-2.25-1.69L101.49,73c-2.59-.54-4.31-1.62-4.31-4.13s2.66-4.1,5.64-4.1,5.59,1.33,6.07,4.51Z"/><path class="cls-1" d="M112.05,61.38h3.54v3.75h2.87v2.43h-2.87v7.13c0,1.41.49,1.69,1.74,1.69h1.08v2.54h-2.59c-3.18,0-3.77-1-3.77-3.72V67.56h-2V65.13h2Z"/><path class="cls-1" d="M128.61,68.54a8.94,8.94,0,0,0-1.46-.08c-1.74,0-2.9.64-2.9,3.23v7.23h-3.53V65.13h3.48v2.41a3.71,3.71,0,0,1,3.64-2.39c.23,0,.54,0,.77,0Z"/><path class="cls-1" d="M133.05,73a3.49,3.49,0,0,0,3.48,3.51,3.17,3.17,0,0,0,2.9-1.59h3.64a6.57,6.57,0,0,1-6.51,4.33c-4.43,0-7-3.31-7-7.28a6.79,6.79,0,0,1,6.92-7.15c4.25,0,6.89,3.31,6.77,8.18Zm0-2.44h6.54a3,3,0,0,0-3.21-3.15A3.31,3.31,0,0,0,133.1,70.56Z"/><path class="cls-1" d="M149.05,60.33v3.28h-3.54V60.33Zm0,4.8V78.92h-3.54V65.13Z"/><path class="cls-1" d="M164.51,69.84h-3.39a2.94,2.94,0,0,0-2.87-2.28c-1.84,0-3.31,1.57-3.31,4.44s1.39,4.51,3.34,4.51a3,3,0,0,0,3-2.28h3.39c-.82,3.77-3.67,5-6.54,5-4.13,0-6.77-3-6.77-7.2s2.79-7.23,6.92-7.23C161.15,64.82,164,66.43,164.51,69.84Z"/><path class="cls-1" d="M170.28,67a4.38,4.38,0,0,1,4-2.13c3.3,0,4.76,2,4.76,5.41v8.69h-3.53V71c0-1.77-.39-3.34-2.39-3.34-2.33,0-2.84,1.9-2.84,4.08v7.18h-3.54V60.33h3.54Z"/><path class="cls-1" d="M184.64,73a3.49,3.49,0,0,0,3.48,3.51,3.18,3.18,0,0,0,2.9-1.59h3.64a6.57,6.57,0,0,1-6.51,4.33c-4.44,0-7-3.31-7-7.28A6.8,6.8,0,0,1,188,64.82c4.26,0,6.9,3.31,6.77,8.18Zm.05-2.44h6.53a3,3,0,0,0-3.2-3.15A3.31,3.31,0,0,0,184.69,70.56Z"/><path class="cls-1" d="M200.63,67a4.41,4.41,0,0,1,4-2.13c3.31,0,4.77,2,4.77,5.41v8.69h-3.54V71c0-1.77-.38-3.34-2.38-3.34-2.33,0-2.85,1.9-2.85,4.08v7.18H197.1V65.13h3.53Z"/><path class="cls-1" d="M212.3,78.92V75.07h3.79v3.85Z"/><path class="cls-1" d="M4.23,109.54H0L6.44,90.89h5.08L18,109.54H13.72L9.05,95.16H8.91ZM4,102.21h10v3.08H4Z"/><path class="cls-1" d="M29.08,103.59v-8H33v14H29.24V107h-.15a4.13,4.13,0,0,1-1.57,2,4.61,4.61,0,0,1-2.67.74,4.75,4.75,0,0,1-2.47-.63,4.38,4.38,0,0,1-1.66-1.82,6.23,6.23,0,0,1-.61-2.81v-8.9H24v8.21a2.85,2.85,0,0,0,.67,2,2.24,2.24,0,0,0,1.75.72,2.75,2.75,0,0,0,1.32-.33,2.44,2.44,0,0,0,1-1A3,3,0,0,0,29.08,103.59Z"/><path class="cls-1" d="M43.5,95.56v2.91H35.07V95.56ZM37,92.21h3.87v13a1.76,1.76,0,0,0,.17.84.92.92,0,0,0,.46.41,1.76,1.76,0,0,0,.68.12,3.31,3.31,0,0,0,.55,0l.42-.08.61,2.89c-.19.06-.47.13-.82.21a6.34,6.34,0,0,1-1.28.15,5.75,5.75,0,0,1-2.46-.37A3.46,3.46,0,0,1,37.56,108a4,4,0,0,1-.57-2.28Z"/><path class="cls-1" d="M52.19,109.82a7.12,7.12,0,0,1-3.66-.91,6.14,6.14,0,0,1-2.39-2.53,9,9,0,0,1,0-7.57,6.14,6.14,0,0,1,2.39-2.53,7.84,7.84,0,0,1,7.33,0,6.18,6.18,0,0,1,2.38,2.53,9,9,0,0,1,0,7.57,6.18,6.18,0,0,1-2.38,2.53A7.19,7.19,0,0,1,52.19,109.82Zm0-3a2.38,2.38,0,0,0,1.61-.55,3.4,3.4,0,0,0,1-1.51,7.33,7.33,0,0,0,0-4.35,3.4,3.4,0,0,0-1-1.51,2.39,2.39,0,0,0-1.61-.56,2.47,2.47,0,0,0-1.64.56,3.33,3.33,0,0,0-1,1.51,7.33,7.33,0,0,0,0,4.35,3.33,3.33,0,0,0,1,1.51A2.46,2.46,0,0,0,52.21,106.81Z"/><path class="cls-1" d="M64.94,104v-.31a9.54,9.54,0,0,1,.28-2.54A3.85,3.85,0,0,1,66,99.57a6.15,6.15,0,0,1,1.29-1,8.57,8.57,0,0,0,1-.76,3.06,3.06,0,0,0,.71-.87,2.15,2.15,0,0,0,.27-1.07,2,2,0,0,0-.3-1.1,2,2,0,0,0-.81-.73,2.46,2.46,0,0,0-1.12-.25A2.38,2.38,0,0,0,66,94a2.06,2.06,0,0,0-.87.76A2.33,2.33,0,0,0,64.75,96H61a5.33,5.33,0,0,1,.88-3,5,5,0,0,1,2.19-1.77,7.55,7.55,0,0,1,3-.59,8.06,8.06,0,0,1,3.21.6A4.89,4.89,0,0,1,72.5,93a4.6,4.6,0,0,1,.8,2.72A4.86,4.86,0,0,1,73,97.57,4.69,4.69,0,0,1,72,99a7.61,7.61,0,0,1-1.49,1.14,6.17,6.17,0,0,0-1.18.9,3,3,0,0,0-.68,1.07,4.38,4.38,0,0,0-.23,1.5V104Zm1.8,5.83a2.14,2.14,0,0,1-1.55-.64,2.07,2.07,0,0,1-.63-1.55,2,2,0,0,1,.63-1.53,2.18,2.18,0,0,1,3.07,0,2.07,2.07,0,0,1,.66,1.53,2.1,2.1,0,0,1-.31,1.1,2.24,2.24,0,0,1-.8.79A2,2,0,0,1,66.74,109.78Z"/><path class="cls-1" d="M85.26,109.54H81l6.43-18.65h5.08L99,109.54H94.76L90.09,95.16h-.15ZM85,102.21H95v3.08H85Z"/><path class="cls-1" d="M101.22,109.54V90.89h3.88v7h.12a5.46,5.46,0,0,1,.74-1.16,3.79,3.79,0,0,1,1.28-1,4.35,4.35,0,0,1,2-.4,5.28,5.28,0,0,1,2.82.8,5.59,5.59,0,0,1,2.07,2.4,10.75,10.75,0,0,1,0,7.94,5.58,5.58,0,0,1-2,2.44,5.23,5.23,0,0,1-2.88.82,4.44,4.44,0,0,1-1.92-.37,4.08,4.08,0,0,1-1.29-1,4.57,4.57,0,0,1-.76-1.15H105v2.24Zm3.8-7a6.28,6.28,0,0,0,.34,2.18,3.21,3.21,0,0,0,1,1.44,2.73,2.73,0,0,0,3.19,0,3.2,3.2,0,0,0,1-1.46,6.18,6.18,0,0,0,.34-2.15,6,6,0,0,0-.34-2.13,3.16,3.16,0,0,0-1-1.44,2.49,2.49,0,0,0-1.61-.52,2.57,2.57,0,0,0-1.6.5,3.21,3.21,0,0,0-1,1.42A6.22,6.22,0,0,0,105,102.55Z"/><path class="cls-1" d="M123.76,109.82a7.16,7.16,0,0,1-3.67-.91,6.12,6.12,0,0,1-2.38-2.53,8.95,8.95,0,0,1,0-7.57,6.12,6.12,0,0,1,2.38-2.53,7.84,7.84,0,0,1,7.33,0,6.12,6.12,0,0,1,2.38,2.53,8.95,8.95,0,0,1,0,7.57,6.12,6.12,0,0,1-2.38,2.53A7.15,7.15,0,0,1,123.76,109.82Zm0-3a2.41,2.41,0,0,0,1.62-.55,3.38,3.38,0,0,0,1-1.51,7.13,7.13,0,0,0,0-4.35,3.38,3.38,0,0,0-1-1.51,2.42,2.42,0,0,0-1.62-.56,2.44,2.44,0,0,0-1.63.56,3.33,3.33,0,0,0-1,1.51,7.33,7.33,0,0,0,0,4.35,3.33,3.33,0,0,0,1,1.51A2.44,2.44,0,0,0,123.77,106.81Z"/><path class="cls-1" d="M135.78,109.78a2.13,2.13,0,0,1-1.54-.64,2,2,0,0,1-.64-1.55,2,2,0,0,1,.64-1.53,2.2,2.2,0,0,1,3.73,1.53,2.19,2.19,0,0,1-.31,1.1,2.33,2.33,0,0,1-.8.79A2,2,0,0,1,135.78,109.78Zm2-18.89L137.45,104h-3.33l-.37-13.06Z"/><path class="cls-1" d="M147.51,109.54V90.89h12.35v3.26h-8.41v4.44H159v3.25h-7.59v7.7Z"/><path class="cls-1" d="M166.45,90.89v18.65h-3.94V90.89Z"/><path class="cls-1" d="M185.3,90.89v18.65h-3.41l-8.11-11.73h-.14v11.73H169.7V90.89h3.46l8.05,11.73h.16V90.89Z"/><path class="cls-1" d="M204.14,90.89v18.65h-3.4l-8.11-11.73h-.14v11.73h-3.94V90.89H192l8.05,11.73h.16V90.89Z"/><path class="cls-1" d="M209.59,109.78a2.18,2.18,0,1,1,0-4.35,2.15,2.15,0,0,1,1.53.63,2.06,2.06,0,0,1,.65,1.53,2.09,2.09,0,0,1-.3,1.1,2.24,2.24,0,0,1-.8.79A2,2,0,0,1,209.59,109.78Z"/></g></g></svg>