<svg xmlns="http://www.w3.org/2000/svg" viewBox="0 0 247.09 74.78"><defs><style>.cls-1{isolation:isolate;}.cls-2{fill:#f8faff;}.cls-3{fill:#91a4e4;}.cls-4{fill:#d2c0fe;opacity:0.6;mix-blend-mode:multiply;}.cls-5{fill:#fff7ff;}.cls-6{fill:#654696;}.cls-7{fill:#53317d;}.cls-8{fill:#31115a;}.cls-9{fill:#fff;opacity:0.7;}.cls-10{fill:#dcd4ff;}.cls-11{fill:#dbdaff;}.cls-12{fill:#7890ce;}</style></defs><g class="cls-1"><g id="Layer_2" data-name="Layer 2"><g id="Layer_1-2" data-name="Layer 1"><polygon class="cls-2" points="228.23 71.05 228.23 44.93 220.43 44.93 220.43 71.1 228.23 71.05"/><polygon class="cls-3" points="227.74 71.08 227.74 60.46 220.93 60.46 220.93 71.1 227.74 71.08"/><rect class="cls-4" x="220.43" y="44.93" width="7.8" height="0.9"/><path class="cls-5" d="M228.27,45.28h-7.85a.56.56,0,0,1-.55-.56.55.55,0,0,1,.55-.55h7.85a.54.54,0,0,1,.55.55A.55.55,0,0,1,228.27,45.28Z"/><path class="cls-6" d="M228.92,71.75h-9.17l.19-.92a.43.43,0,0,1,.43-.34h7.93a.43.43,0,0,1,.42.34Z"/><path class="cls-7" d="M229.62,72.66H219l.25-.85a.57.57,0,0,1,.54-.41h9a.57.57,0,0,1,.55.41Z"/><path class="cls-8" d="M230.72,74.07H217.94l.12-.66a1.06,1.06,0,0,1,1-.85H229.6a1.07,1.07,0,0,1,1,.85Z"/><path class="cls-9" d="M221.72,68.56h2.4v-.3h-2.4Zm.57-2v.3h1.27v-.3Zm-.57-1.43h2.4v-.3h-2.4Zm.57-2v.31h1.27v-.31Zm-.57-1.43h2.4v-.3h-2.4Zm.57-2v.3h1.27v-.3Zm-.57-1.43h2.4v-.3h-2.4Zm.57-2v.3h1.27v-.3Zm-.57-1.44h2.4v-.3h-2.4Zm.57-2V53h1.27v-.3Zm-.57-1.43h2.4v-.3h-2.4Zm.57-2v.3h1.27v-.3Zm-.57-1.74v.31h2.4v-.31Z"/><polygon class="cls-2" points="11.16 47.04 11.16 18.72 2.7 18.72 2.7 47.11 11.16 47.04"/><polygon class="cls-3" points="10.63 47.08 10.63 35.56 3.24 35.56 3.24 47.11 10.63 47.08"/><rect class="cls-4" x="2.7" y="18.72" width="8.46" height="0.98"/><path class="cls-5" d="M11.2,19.09H2.69a.61.61,0,0,1,0-1.21H11.2a.61.61,0,1,1,0,1.21Z"/><path class="cls-6" d="M11.91,47.8H2l.21-1a.48.48,0,0,1,.46-.37h8.61a.48.48,0,0,1,.46.37Z"/><path class="cls-7" d="M12.67,48.79H1.2l.26-.92a.62.62,0,0,1,.59-.44h9.77a.62.62,0,0,1,.59.44Z"/><path class="cls-8" d="M13.87,50.32H0l.13-.71a1.14,1.14,0,0,1,1.09-.92H12.65a1.14,1.14,0,0,1,1.09.92Z"/><path class="cls-9" d="M4.1,44.35H6.71V44H4.1Zm.62-2.21v.33H6.09v-.33ZM4.1,40.59H6.71v-.33H4.1Zm.62-2.2v.32H6.09v-.32ZM4.1,36.83H6.71v-.32H4.1Zm.62-2.2V35H6.09v-.32ZM4.1,33.08H6.71v-.33H4.1Zm.62-2.21v.33H6.09v-.33ZM4.1,29.32H6.71V29H4.1Zm.62-2.21v.33H6.09v-.33ZM4.1,25.56H6.71v-.33H4.1Zm.62-2.21v.33H6.09v-.33ZM4.1,21.47v.33H6.71v-.33Z"/><path class="cls-2" d="M52.27,24.39V1.6h6.18V24.39a13.27,13.27,0,1,1-6.18,0Z"/><rect class="cls-4" x="52.27" y="1.6" width="6.18" height="1.75"/><path class="cls-5" d="M51.85,2.21h7a1.11,1.11,0,1,0,0-2.21h-7a1.11,1.11,0,1,0,0,2.21Z"/><path class="cls-3" d="M65.83,32.27a11.61,11.61,0,1,1-20.94,0Z"/><rect class="cls-10" x="42.8" y="42.31" width="3.34" height="0.97" transform="translate(88.95 85.59) rotate(180)"/><path class="cls-7" d="M41.13,43.17a.66.66,0,0,0,0-.76,2,2,0,0,1-.37-1.18,1.61,1.61,0,0,1,1.37-1.76,1.61,1.61,0,0,1,1.38,1.76,2,2,0,0,1-.37,1.18.63.63,0,0,0,0,.76,2,2,0,0,1,.37,1.19,1.6,1.6,0,0,1-1.38,1.75,1.6,1.6,0,0,1-1.37-1.75A2,2,0,0,1,41.13,43.17Z"/><rect class="cls-10" x="45.69" y="37.61" width="4.84" height="9.21" transform="translate(96.22 84.44) rotate(180)"/><rect class="cls-7" x="45.26" y="37.13" width="5.69" height="2.88" transform="translate(96.22 77.13) rotate(180)"/><polygon class="cls-6" points="45.26 37.13 50.95 37.13 49.29 34.26 46.93 34.26 45.26 37.13"/><path class="cls-6" d="M44.4,48.09h7.42l-.16-1a.39.39,0,0,0-.34-.36H44.9a.38.38,0,0,0-.34.36Z"/><path class="cls-7" d="M43.83,49h8.55l-.19-.88a.5.5,0,0,0-.44-.43H44.47a.49.49,0,0,0-.44.43Z"/><path class="cls-8" d="M42.94,50.52H53.28l-.1-.69a.94.94,0,0,0-.81-.88H43.85a1,1,0,0,0-.82.88Z"/><path class="cls-2" d="M246.81,52.27H231a.28.28,0,0,0-.24.43l.32.53a1.35,1.35,0,0,1,.21.73V71.4a2.85,2.85,0,0,0,2.85,2.85h9.5a2.84,2.84,0,0,0,2.85-2.85V54a1.35,1.35,0,0,1,.21-.73l.32-.53A.28.28,0,0,0,246.81,52.27Z"/><path class="cls-3" d="M232.05,61.21V71.4a2.11,2.11,0,0,0,2.11,2.11h9.5a2.11,2.11,0,0,0,2.11-2.11V61.21Z"/><path class="cls-11" d="M246.81,52.27H231a.28.28,0,0,0-.24.43l.32.53a1.54,1.54,0,0,1,.18.48h15.27a1.31,1.31,0,0,1,.17-.48l.32-.53A.28.28,0,0,0,246.81,52.27Z"/><path class="cls-9" d="M241,69v.24h3.12v-.39H241Zm0-8.45v.25h3.12v-.39H241Zm0,2.82v.24h3.12V63.2H241Zm0-5.64V58h3.12v-.39H241Zm0,8.45v.25h3.12V66H241Zm0-11.4v.38h3.12v-.38Zm0,17V72h3.12v-.39H241Zm2.38-4.22v-.14h-1.65v.38h1.65v-.24Zm0,2.82v-.15h-1.65v.39h1.65v-.24Zm0-14.08v-.15h-1.65v.39h1.65v-.24Zm0,2.81V59h-1.65v.39h1.65v-.25Zm0,2.82v-.15h-1.65v.39h1.65v-.24Zm0,2.81v-.14h-1.65V65h1.65v-.25Z"/><rect class="cls-12" x="233.54" y="63.14" width="3.66" height="5.78" transform="translate(470.74 132.05) rotate(180)"/><path class="cls-3" d="M196,40.82h16.45a1.8,1.8,0,0,1,1.8,1.8v24a8.11,8.11,0,0,1-8.11,8.11h-3.84a8.11,8.11,0,0,1-8.11-8.11v-24A1.8,1.8,0,0,1,196,40.82Z" transform="translate(408.47 115.59) rotate(180)"/><rect class="cls-3" x="200.88" y="34.33" width="6.72" height="11.33" transform="translate(408.47 79.99) rotate(180)"/><rect class="cls-12" x="200.88" y="35.3" width="6.72" height="1.34"/><rect class="cls-6" x="200.05" y="33.58" width="8.37" height="1.95" rx="0.73" transform="translate(408.47 69.12) rotate(180)"/><path class="cls-9" d="M214.27,66.74h-12a1.37,1.37,0,0,1-1.37-1.37V51.87a1.37,1.37,0,0,1,1.37-1.37h12Z"/></g></g></g></svg>