<svg xmlns="http://www.w3.org/2000/svg" width="134.37" height="73.49" viewBox="0 0 134.37 73.49"><defs><style>.cls-1{fill:#fefefe;}.cls-2{fill:#fcfcfc;}.cls-3{fill:#f8f9f9;}.cls-4{fill:#fcfdfd;}.cls-5{fill:#f4f5f5;}.cls-6{fill:#6a7f77;}.cls-7{fill:#647b72;}.cls-8{fill:#e6eae8;}.cls-9{fill:#798d85;}.cls-10{fill:#d7dddb;}.cls-11{fill:#6f847c;}.cls-12{fill:#dee3e1;}.cls-13{fill:#466056;}.cls-14{fill:#476157;}.cls-15{fill:#415d52;}.cls-16{fill:#435e53;}.cls-17{fill:#3d594e;}.cls-18{fill:#486258;}.cls-19{fill:#496359;}.cls-20{fill:#566f64;}.cls-21{fill:#60776e;}.cls-22{fill:#61776e;}.cls-23{fill:#61786e;}.cls-24{fill:#637a71;}.cls-25{fill:#4a6459;}.cls-26{fill:#5f776d;}.cls-27{fill:#566e64;}.cls-28{fill:#4a645a;}.cls-29{fill:#687e75;}.cls-30{fill:#466256;}.cls-31{fill:#496459;}.cls-32{fill:#667c73;}.cls-33{fill:#597168;}.cls-34{fill:#687e76;}.cls-35{fill:#466257;}.cls-36{fill:#697f76;}.cls-37{fill:#486257;}.cls-38{fill:#647a71;}.cls-39{fill:#6c8178;}.cls-40{fill:#72877f;}.cls-41{fill:#70857c;}.cls-42{fill:#546c62;}.cls-43{fill:#6b8178;}.cls-44{fill:#506a60;}.cls-45{fill:#4e685e;}.cls-46{fill:#486358;}.cls-47{fill:#536d62;}.cls-48{fill:#445f55;}.cls-49{fill:#455f55;}.cls-50{fill:#466156;}.cls-51{fill:#627970;}.cls-52{fill:#71867e;}.cls-53{fill:#445f53;}.cls-54{fill:#476257;}.cls-55{fill:#677e75;}.cls-56{fill:#597167;}.cls-57{fill:#4f695f;}.cls-58{fill:#546d64;}.cls-59{fill:#456155;}.cls-60{fill:#4c665c;}.cls-61{fill:#3f5b50;}.cls-62{fill:#637a70;}.cls-63{fill:#6b8078;}.cls-64{fill:#405c50;}.cls-65{fill:#446055;}.cls-66{fill:#50695f;}.cls-67{fill:#546d63;}.cls-68{fill:#5a7268;}.cls-69{fill:#556e64;}.cls-70{fill:#445f54;}.cls-71{fill:#fdfdfd;}.cls-72{fill:#425d53;}.cls-73{fill:#425e53;}.cls-74{fill:#fafafa;}</style></defs><g id="Layer_2" data-name="Layer 2"><g id="Layer_1-2" data-name="Layer 1"><path class="cls-1" d="M67.15.08h65.24c.63,0,1.49-.32,1.85.25s-.29,1.41-.72,1.87c-2.84,3-3.33,6.54-3.22,10.5.22,7.67,0,15.34.09,23,0,1.67-.12,2.24-2.15,1.78a269,269,0,0,0-121.64,0c-1.57.36-1.91.05-1.88-1.49.14-8.59.13-17.18.33-25.76A7.21,7.21,0,0,0,3.2,4.78c-1-1.1-1.91-2.34-2.85-3.52C-.23.51-.13.07.92.08H67.15Z"/><path class="cls-1" d="M101,36.6c.54-.43,1-1,1.84-.87,6,.77,12,1.52,17.94,2.74a2.45,2.45,0,0,1,.66.38,6.29,6.29,0,0,1-1,3.06c-.41.77-1.19,1.26-1.54,2.08-.16.31-.35.6-.51.91-.86,1.64-2.26,2.91-3.15,4.53a12.7,12.7,0,0,0-1.24,1.3,5.79,5.79,0,0,0-1.24,1.58,7.42,7.42,0,0,0-2.24,2.52,1.34,1.34,0,0,1-.37.38,6,6,0,0,0-1.51,1.14,28.5,28.5,0,0,0-3.83,3,35,35,0,0,1-5,3.32c-.32.17-.63.37-.95.53-1.77,1.11-3.67,2-5.46,3.07-.56.29-1.15.52-1.73.76a6.57,6.57,0,0,0-.77.16,5.53,5.53,0,0,0-1.59.71,2.49,2.49,0,0,1-.43.29c-.43.14-.82.38-1.26.49-.89.3-1.77.62-2.66.88A7.9,7.9,0,0,1,83,70c-.93.22-1.88.37-2.8.64a3.11,3.11,0,0,0-1.08.22c-.57.3-1.22.14-1.82.29s-.77.46-1.23.54a6.56,6.56,0,0,1-1.17-.14,11.31,11.31,0,0,0-3.43.29c-2.56,0-5.12,0-7.68,0a17.21,17.21,0,0,0-4-.37c-.32,0-.64,0-1,0-1.49-.31-3-.62-4.47-.95-.67-.16-1.33-.35-2-.52a4.92,4.92,0,0,1-.84-.21,7.38,7.38,0,0,0-3.92-1.41c-2.14-.36-4-1.53-6.11-2-1.76-1.23-3.88-1.83-5.59-3.15-.4-.19-.64-.61-1.06-.77a6.84,6.84,0,0,0-1.15-.57A3.08,3.08,0,0,0,32,60.69a11.35,11.35,0,0,1-3-2.47A4.37,4.37,0,0,0,27,57c-1.56-2.28-3.73-4-5.66-5.92a7,7,0,0,0-2-2.43c-.18-.9-1-1.14-1.61-1.64a10,10,0,0,1-1.27-2.63,3.06,3.06,0,0,0-.91-1.52,6.39,6.39,0,0,1-1.33-3.13c-.31-.79-.53-1.38.74-1.62,5.66-1.06,11.37-1.74,17.07-2.47.71-.09,1.31,0,1.56.79.24.63.9.71,1.37,1a4.73,4.73,0,0,1,.45.23,2.89,2.89,0,0,0,1.36.66,3.28,3.28,0,0,1,1.67,1.71,2.62,2.62,0,0,0,.73,1.32,2.32,2.32,0,0,0,1.72,1,1.52,1.52,0,0,1,.61.54,5,5,0,0,0,.58,1.16,2.45,2.45,0,0,0,1.2.88c.69.17,1.2.71,1.87.91q.69.38,1.35.81A6.46,6.46,0,0,0,48.84,48c1.12.47,1.94,1.64,3.34,1.5.69.22,1.35.54,2,.75a13.67,13.67,0,0,0,2.56.76,8,8,0,0,0,1.89,0,1.58,1.58,0,0,1,.86.1c1.24,1,2.74,1.06,4.24,1.16a22,22,0,0,0,7.47.08,3.09,3.09,0,0,1,.59-.12,9.47,9.47,0,0,0,2.31-.39,9.36,9.36,0,0,0,2-.39A7.83,7.83,0,0,0,78,51c.55-.09,1.06-.32,1.61-.45,1.13-.41,2.39-.41,3.44-1.07A8.36,8.36,0,0,1,84.59,49a4,4,0,0,0,2.26-1.1c.32-.12.6-.33.91-.45.56-.34,1.25-.47,1.66-1a4.51,4.51,0,0,1,.93-.87c.47-.21.84-.58,1.31-.78a1.85,1.85,0,0,0,1-.54,6.18,6.18,0,0,0,.37-.61,1.21,1.21,0,0,1,.81-.49,1.35,1.35,0,0,0,.88-.65c.1-.22.17-.46.27-.69a1.67,1.67,0,0,1,.53-.56,2.13,2.13,0,0,0,1-.82,1.37,1.37,0,0,1,.37-.35,2.17,2.17,0,0,0,1.23-1.2,1.41,1.41,0,0,1,.36-.37,4.83,4.83,0,0,0,1-.77C100,37.38,100.45,36.91,101,36.6Z"/><path class="cls-2" d="M95.85,41.94a1,1,0,0,1-.24.15,6.16,6.16,0,0,1-2.13,1.62l.06,0a6.71,6.71,0,0,1-1.4,1.15c-.82.09-1.31.78-2,1.11-.42.3-.74.73-1.18,1-.53.11-.88.55-1.38.73C86.6,47.84,86,48.75,85,49c-.67,0-1.19.45-1.8.64-1.5.6-3.06,1-4.58,1.51a13.91,13.91,0,0,0-1.66.42,4.63,4.63,0,0,0-1.67.39,7.46,7.46,0,0,0-2.33.4c-.42,0-.83,0-1.25.08a5.26,5.26,0,0,1-1.31.14c-1.94,0-3.88,0-5.83,0-.55,0-1.09-.21-1.65-.2-.75-.19-1.52-.16-2.26-.35a2.82,2.82,0,0,1-1.54-.45l-.51,0a1.39,1.39,0,0,1-.53-.1c-1-.26-1.94-.47-2.91-.7s-1.73-.7-2.65-.87c-1.22-.46-2.4-1-3.57-1.58A10,10,0,0,0,46.28,47,3.59,3.59,0,0,0,45,46.22a5.93,5.93,0,0,0-2.47-1.41c-.49-.5-.91-1.06-1.42-1.55l-.27-.36c-.9-.06-1.26-.86-1.85-1.33a12.43,12.43,0,0,0-1.13-1A4.85,4.85,0,0,0,36.36,39l-1.07-1c-.7-.35-.69-1.09-.94-1.7s-.79-1.19.27-1.34a54.4,54.4,0,0,1,11.05-.76,21,21,0,0,1-5.4,3.06c-1.61.73-1.54,1.39-.36,2.45A40.18,40.18,0,0,0,66.29,50.41,39.9,39.9,0,0,0,94.74,40c1.8-1.58,1.75-1.62-.31-2.66l-5.24-2.65c.24-.72.76-.6,1.16-.59a92.47,92.47,0,0,1,9.4.86c.86.12,1.45.32.88,1.34a4.72,4.72,0,0,1-1,1.67c-.33.37-.68.71-1,1.06l.05-.05L97,40.56l0-.05A7,7,0,0,0,95.85,41.94Z"/><path class="cls-3" d="M82.47,71.6c-1.41.28-2.75.92-4.23.86-.79.38-1.7-.13-2.48.33l-1.05.06c-1.59.45-3.27-.21-4.85.38h0a13.9,13.9,0,0,1-4.46,0,58.44,58.44,0,0,1-26.65-6.67A64,64,0,0,1,12.19,41.39,1.21,1.21,0,0,1,12,41c-.17-.88-1.63-1.84-.6-2.52,1.42-.92,1.35,1.1,2.11,1.62,1.21,1,1.8,2.44,2.78,3.6a10.06,10.06,0,0,0,2.05,3.35,12.7,12.7,0,0,1,1.32,1.61c.52.93,1.54,1.43,2,2.38a67,67,0,0,0,5.64,5.79c1.87,1,3.05,3,5.08,3.76.5.17.8.63,1.26.87a5,5,0,0,0,1.3.75,3.56,3.56,0,0,0,1.29.84c1.44,1.32,3.41,1.73,5,2.85,2.35.77,4.51,2.1,7,2.4,1.49.45,2.88,1.19,4.41,1.5.39.07.77.19,1.16.25a21,21,0,0,0,3.85.78,8.34,8.34,0,0,0,3.06.38c.53.13,1.07.17,1.6.27a38.6,38.6,0,0,0,10.41,0,6.18,6.18,0,0,1,1.29-.1,13,13,0,0,0,2.16,0A2.33,2.33,0,0,1,77.32,71a11.85,11.85,0,0,0,3.73-.75,15.28,15.28,0,0,0,2.49-.59,5.34,5.34,0,0,0,1.61-.43c.79-.23,1.57-.5,2.34-.78.63-.13,1.19-.44,1.8-.61,1-.59,2.18-.74,3.19-1.32.34-.12.65-.32,1-.46s.83-.45,1.34-.35a1.09,1.09,0,0,1,.76.79c-2.76,1.93-6,2.74-9.1,3.92A34.28,34.28,0,0,0,82.47,71.6Z"/><path class="cls-4" d="M60.09,39.29c2.27-.79,4.19.28,5.28-.83.94-1,1.12-2.67,1.65-4.07.22.12.4.16.41.22.6,3.46,2.35,5.31,6.07,4.15.15.8-.33.93-.6,1.14-2.8,2.24-2.8,2.23-1.89,5.61a1.44,1.44,0,0,1-.08,1.43c-2.44-3-5.06-3.23-7.93,0C64.78,43.38,64.5,40.75,60.09,39.29Z"/><path class="cls-5" d="M95.56,66.54l-.88-.45c-.19-.59.21-.82.66-1A25.82,25.82,0,0,0,99.07,63c.31-.19.66-.32,1-.54a39.64,39.64,0,0,0,8.28-6.28,6.8,6.8,0,0,0,1.77-1.52l0,0A8.54,8.54,0,0,0,112.61,52a3.84,3.84,0,0,1,.77-1.06c.62-.5,1.12-1.11,1.69-1.66a39.27,39.27,0,0,0,2.87-3.79,5.68,5.68,0,0,1,.74-1.37A19.36,19.36,0,0,0,120,42.27c.71-.77.92-1.91,1.84-2.53.21-.9.9-1.51,1.67-1.14,1,.5.08,1.25-.2,1.78A62.63,62.63,0,0,1,98.5,65.26C97.59,65.78,96.78,66.67,95.56,66.54Z"/><path class="cls-6" d="M15.83,44.1a13.26,13.26,0,0,1-2.32-4c.39.16.67.09.75-.38l1.86,2.78c.32.14.35.43.4.72A.92.92,0,0,1,15.83,44.1Z"/><path class="cls-7" d="M121.86,39.74a6.7,6.7,0,0,1-1.5,2.85c-.4-.18-.67-.42-.45-.9l1.52-2.84Z"/><path class="cls-8" d="M82.47,71.6a6.45,6.45,0,0,1,4-1.14A12.94,12.94,0,0,1,82.47,71.6Z"/><path class="cls-9" d="M99.39,37.77a2.32,2.32,0,0,1,1.24-1.51l.36.34c.1.93-.59,1.18-1.25,1.48A.54.54,0,0,1,99.39,37.77Z"/><path class="cls-8" d="M69.86,73.23c1.57-.78,3.23-.36,4.85-.38A11.85,11.85,0,0,1,69.86,73.23Z"/><path class="cls-10" d="M65.43,73.24a16.65,16.65,0,0,1,4.46,0A10,10,0,0,1,65.43,73.24Z"/><path class="cls-11" d="M34.35,36.24a3.74,3.74,0,0,1,1.26,1.36c.26.49,0,.56-.43.57l-.28,0c-.42-.44-1.09-.74-.92-1.53Z"/><path class="cls-2" d="M34,36.61c.31.51.62,1,.92,1.53a1.74,1.74,0,0,1-1.27-1.68A.78.78,0,0,1,34,36.61Z"/><path class="cls-12" d="M75.76,72.79a3.21,3.21,0,0,1,2.48-.33A4.78,4.78,0,0,1,75.76,72.79Z"/><path class="cls-13" d="M22,18c0,3.08,0,6.16,0,9.24,0,2.5-.92,3.6-3.35,4.15s-4.75,1-7.14,1.4-3.24-.34-3.25-2.66q0-10.52,0-21c0-2.45.84-3.3,3.31-3.37s4.73-.08,7.1,0c2.67.07,3.38.83,3.39,3.46C22,12.06,22,15,22,18Z"/><path class="cls-13" d="M125.14,15.22c0,2.16,0,4.33,0,6.49,0,1.22-.26,2.26-1.87,2.1-1.09-.1-.78.57-.6,1.14.71,2.32,1.39,4.64,2.15,6.94.39,1.17,0,1.39-1.09,1.18-1.71-.33-3.24-.56-3.57-2.86-.28-2-1.2-3.87-1.73-5.83-.27-1-.77-1.53-1.78-1.42-1.17.12-.67,1.09-.69,1.7-.07,1.77,0,3.54,0,5.3,0,1,0,1.56-1.38,1.31-3.49-.64-3-.15-3.07-3.6-.05-6.68-.08-13.35-.2-20,0-1.46.27-2.11,1.92-2,2.88.14,5.78,0,8.67.07,2.35,0,3.16.9,3.22,3.26,0,2.1,0,4.2,0,6.29Z"/><path class="cls-13" d="M107.64,17.89c0,2.88,0,5.75,0,8.63,0,2.68-.67,3.35-3.24,3.1s-5-.54-7.41-.9S93.84,27.4,93.82,25c0-5.3-.1-10.59-.1-15.89,0-2.82.64-3.43,3.49-3.48q3.35-.06,6.69,0c2.92,0,3.62.74,3.65,3.6s0,5.75,0,8.63Z"/><path class="cls-13" d="M58.39,16.41c0-3,0-6,0-9,0-1.23.32-1.79,1.65-1.76,3,.07,6,0,9.06,0,2.37,0,3,.72,3,3.12,0,5,0,10,0,14.93,0,2.53-.77,3.28-3.29,3.33-2.89.07-5.78,0-8.66.13-1.59.09-1.87-.55-1.83-1.93.09-2.94,0-5.89,0-8.84Z"/><path class="cls-13" d="M79.31,27.17C76.6,27,76,26.5,76,23.92c0-5.23,0-10.46,0-15.69a2.14,2.14,0,0,1,2.15-2.49,60.77,60.77,0,0,1,9.25,0A2.5,2.5,0,0,1,89.9,8.47c0,5.63,0,11.27,0,16.91a2.13,2.13,0,0,1-2.3,2.39,46.71,46.71,0,0,1-8-.56c.15-.26.42-.22.66-.24C80,27,79.6,26.9,79.31,27.17Z"/><path class="cls-13" d="M26,10.23a19.23,19.23,0,0,0-.11-2.15c-.32-2,.44-2.6,2.46-2.51,1.59.08,2.14.43,2.11,2.09-.11,5.5,0,11,0,16.49,0,1.11-.24,2.29,1.56,2.26,2.5-.05,3.06-.41,3.09-2.42s0-4.18.08-6.27a78.51,78.51,0,0,0,.07-11.78c0-.05.09-.13.14-.14,4.35-.74,4.44-.66,4.44,3.62,0,5,0,10.08,0,15.12,0,2.93-.82,3.85-3.74,4.23-2.53.33-5.06.73-7.61.88-2.2.13-2.67-.55-2.45-2.86C26.15,21.27,26.11,15.75,26,10.23Z"/><path class="cls-14" d="M46.6,17.93c0-2.55-.05-5.11,0-7.66,0-1.26-.34-1.81-1.66-1.71-.53,0-1.59.42-1.46-.65.11-.85.1-2.18,1.46-2.22,2.76-.08,5.52-.07,8.27,0,1.43,0,1.35,1.36,1.45,2.19s-1,.76-1.49.69c-1.75-.2-1.88.72-1.87,2.1,0,5-.11,10.09,0,15.14.07,2.77-1.92,1.62-3.12,1.89-1.56.35-1.66-.71-1.64-1.89C46.63,23.17,46.6,20.55,46.6,17.93Z"/><path class="cls-15" d="M26,10.23a61.22,61.22,0,0,1,0,16.56C25.79,21.27,25.78,15.75,26,10.23Z"/><path class="cls-16" d="M35.25,5.94a30.33,30.33,0,0,1-.07,11.78A105.22,105.22,0,0,1,35.25,5.94Z"/><path class="cls-17" d="M79.31,27.17A2.45,2.45,0,0,1,81.7,27l-2.07.17-.17,0Z"/><path class="cls-14" d="M64.59,62.27c.17-1.55.35-2.58.37-3.62s-.08-1.72,1.39-1.63,1.29.94,1.17,1.92c-.29,2.34-.5,4.68-.79,7-.06.54.46,1.5-.64,1.5-.82,0-1.77.34-2.32-.87-.81-1.76-1.86-3.42-3-5.4A11.74,11.74,0,0,0,60,65.93c-.06,1.27-.89.87-1.52.84s-1.29,0-1.13-1.11c.38-2.58.57-5.19.93-7.78.07-.49-.5-1.63.63-1.45s2.42-.53,3.06,1A22,22,0,0,0,64.59,62.27Z"/><path class="cls-14" d="M103.67,53.56a2.41,2.41,0,0,1-1.77-.73c-1.22-1.17-2.41-2.37-3.59-3.6s-1-2.6,0-3.84a18.48,18.48,0,0,1,2.06-2.09,3,3,0,0,1,4.37,0c.69.61,1.32,1.27,2,1.92s1.09,1.52,2.22.55c.57-.49,1.24.08,1.68.58a.87.87,0,0,1-.22,1.36c-1.89,1.23-2.79,3.39-4.54,4.74C105.21,53,104.62,53.61,103.67,53.56Z"/><path class="cls-14" d="M87.45,52.7c.58.09.52.84.81,1.29.6.93.56,2.42,2.55,1.44s1.3-2,.5-3.16c-.67-1-.77-1.5.47-2,.9-.38,1.28-.39,1.74.6,1.07,2.32,2.25,4.58,3.51,6.79.55,1,.46,1.4-.52,1.94s-1.33.3-1.84-.65c-.41-.78-.33-2.49-2.14-1.78s-2.14,1.08-.9,3c.91,1.37.42,1.87-.78,2.42-.73.34-1,.14-1.3-.53-1.28-2.5-2.65-5-4-7.43C85.22,53.91,86.36,52.65,87.45,52.7Z"/><path class="cls-18" d="M80,58.37a16.41,16.41,0,0,0-4.06.16c-1.17.22-1.55.81-1.26,1.93.23.88.41,1.78.63,2.67a1.31,1.31,0,0,0,1.77,1c.91-.18,1.73-.44,1.4-1.63-.4-1.44.82-1,1.42-1.21,1-.38,1,.34,1.08,1,.53,2.94.14,3.54-2.83,4a18.34,18.34,0,0,1-2.34.22A2.4,2.4,0,0,1,73,64.34c-.24-1.61-.56-3.21-.81-4.83a2.37,2.37,0,0,1,2-3c.77-.17,1.53-.36,2.3-.5C79.06,55.52,79.06,55.53,80,58.37Z"/><path class="cls-18" d="M43.79,57.37a21,21,0,0,0,2.88-3.11c1.21-1.92,2.32-1.25,3.7-.19a52.45,52.45,0,0,0-6.7,7.15c-.62.81-1.17.42-1.66.08-.65-.46-2-.29-1.7-1.71.64-3,1.64-5.92,1.74-9,0-.52.41-.75.78-.45.61.5,2,.26,1.68,1.69q-.57,2.67-1.12,5.34Z"/><path class="cls-18" d="M30.91,39.25l2.14,2.24a58.34,58.34,0,0,0-5.3,4.67c-.75.64-.92,1.15-.12,1.89A16,16,0,0,0,31,50.92c-1.13,1.37-2.12,1.74-3.35.12S24,48.4,24.08,46.78,26.59,44,28,42.61C28.94,41.58,30.17,40.79,30.91,39.25Z"/><path class="cls-19" d="M51.8,65.19c-1.61-.11-2-.74-1.54-2.22.79-2.49,1.61-5,2.22-7.5.32-1.31,1-.73,1.59-.55s1.47,0,1,1.3c-1,2.69-1.7,5.47-2.48,8.23C52.46,64.93,52.47,65.37,51.8,65.19Z"/><path class="cls-19" d="M33.77,56.23a10.93,10.93,0,0,1-1.56-1.33c-.56-.67.36-.83.62-1.17,1.6-2.16,3.35-4.21,4.85-6.44.63-.94,1-.57,1.46-.1s1.68.53.7,1.71c-1.84,2.21-3.55,4.53-5.31,6.82C34.35,56,34.36,56.37,33.77,56.23Z"/><path class="cls-20" d="M108.54,56.4A29.38,29.38,0,0,1,100.15,63c-.52.09-.73-.17-.73-.66,3.27-1.81,5.93-4.47,9-6.53A.49.49,0,0,1,108.54,56.4Z"/><path class="cls-21" d="M27.24,57.16a25.13,25.13,0,0,1-5.92-6c.16-.19.2-.48.5-.55,1.79,2,4.07,3.57,5.51,5.9A.49.49,0,0,1,27.24,57.16Z"/><path class="cls-7" d="M48.12,69A26.25,26.25,0,0,1,41,66.17c0-.29.3-.33.5-.43,1.6-.16,2.75,1.05,4.18,1.41a6.2,6.2,0,0,0,2,.57,1.19,1.19,0,0,1,.67.78A.63.63,0,0,1,48.12,69Z"/><path class="cls-22" d="M99.38,63.34c-1.35,1.29-3.09,1.9-4.7,2.75l-1.17.42c-.38-.14-.57-.37-.4-.79l5.55-3C99,62.84,99.3,63,99.38,63.34Z"/><path class="cls-23" d="M70.64,52l1.17,0a.79.79,0,0,1,.25.42.86.86,0,0,1-.21.44h0a44.41,44.41,0,0,1-8.55,0c-1.48-.15-3.13.25-4.22-1.23l1.69,0c.68.4,1.49,0,2.18.36l1.36,0A22.23,22.23,0,0,0,70.64,52Z"/><path class="cls-24" d="M27.24,57.16l.09-.64c2.15.61,3.2,2.73,5.07,3.73a.58.58,0,0,1-.06.86C30.27,60.27,28.8,58.65,27.24,57.16Z"/><path class="cls-21" d="M41.46,65.74l-.5.43a19.41,19.41,0,0,1-5.05-2.67.73.73,0,0,1,0-.94A32.45,32.45,0,0,1,41.46,65.74Z"/><path class="cls-25" d="M81.27,70.72a6.67,6.67,0,0,1-3.94.78c-.38-.23-.85,0-1.22-.29a1.17,1.17,0,0,1,.84-.77c.62-.46,1.41,0,2-.36l1.14,0C80.71,70,81.22,69.94,81.27,70.72Z"/><path class="cls-26" d="M118.35,45.66a14.63,14.63,0,0,1-3.09,4,.77.77,0,0,1-.57-.56l3.28-4.6C118.42,44.8,118.32,45.25,118.35,45.66Z"/><path class="cls-27" d="M63.65,71.18h8.07a.48.48,0,0,1,.56,0,.85.85,0,0,1,.17.56.61.61,0,0,1-.36.46,1.92,1.92,0,0,1-.92-.09,57.18,57.18,0,0,0-7,0,3,3,0,0,1-1.26.06.64.64,0,0,1-.33-.49.79.79,0,0,1,.23-.56A1.07,1.07,0,0,1,63.65,71.18Z"/><path class="cls-28" d="M49,48a11.1,11.1,0,0,1,3.53,1.53c.11.41,0,.61-.47.5-1.45.09-2.4-.94-3.53-1.57C48.47,48.05,48.6,47.86,49,48Z"/><path class="cls-29" d="M78.43,50.73l4.8-1.63a.62.62,0,0,1,0,.89,9,9,0,0,1-3.55,1.19C79.31,50.94,78.71,51.3,78.43,50.73Z"/><path class="cls-30" d="M48.12,69l0-.52c1.4-.77,2.39.42,3.56.75l.78.13a.69.69,0,0,1,0,1.05A20.53,20.53,0,0,1,48.12,69Z"/><path class="cls-31" d="M57.61,71.27a10.47,10.47,0,0,1-4-.79c.12-.46.62-.47.88-.76l4.49,1C58.66,71.33,58.09,71.18,57.61,71.27Z"/><path class="cls-32" d="M113,52c-.6,1.33-1.27,2.57-3,2.7.11-1.45,1.42-1.94,2.27-2.81A.55.55,0,0,1,113,52Z"/><path class="cls-33" d="M15.83,44.1l.49-.84c.67-.12.36.63.71.8l1.24,2.62a.61.61,0,0,1-.13.71A10.49,10.49,0,0,1,15.83,44.1Z"/><path class="cls-33" d="M92.67,66.88l-3.12,1.53c-.25-.3-.78-.3-.87-.78a1,1,0,0,1,.11-.29,8.37,8.37,0,0,1,2-.79l.7,0A.87.87,0,0,1,92.67,66.88Z"/><path class="cls-32" d="M63.32,52.76h8.55A24.08,24.08,0,0,1,63.32,52.76Z"/><path class="cls-34" d="M21.82,50.62l-.5.55a5.08,5.08,0,0,1-2-2.23c-.08-.51.11-.72.63-.6A9.11,9.11,0,0,1,21.82,50.62Z"/><path class="cls-35" d="M81.27,70.72l-1.14-.66,2.73-.76c.26.25.63.37.77.74C82.85,70.31,82.23,71.1,81.27,70.72Z"/><path class="cls-3" d="M51.72,69.19c-1.31.31-2.21-1.3-3.56-.75l-.48-.72C49.18,67.79,50.67,67.89,51.72,69.19Z"/><path class="cls-36" d="M85.08,48.69c.41-1.15,1.54-1.2,2.44-1.61a.88.88,0,0,1,.6.48.39.39,0,0,1-.18.44l-.75.48a6.44,6.44,0,0,1-1.36.63C85.48,49.15,85.16,49.13,85.08,48.69Z"/><path class="cls-37" d="M57.61,71.27,59,70.76l.64,0c.95.67,2.19-.27,3.11.56,0,.08,0,.17,0,.25a2.88,2.88,0,0,1-2.1.09A7.84,7.84,0,0,1,57.61,71.27Z"/><path class="cls-38" d="M119.91,41.69l.45.9a4,4,0,0,1-1.25,1.81,1.29,1.29,0,0,1-.68-.7A4.23,4.23,0,0,1,119.91,41.69Z"/><path class="cls-39" d="M55.27,50.37a6.65,6.65,0,0,1,3,.82c-.38.59-1.07,0-1.5.41a7.45,7.45,0,0,1-2.77-.81C54.32,50.25,54.9,50.62,55.27,50.37Z"/><path class="cls-40" d="M49,48l-.47.46a4.12,4.12,0,0,1-2.34-1.21c-.12-.11-.15-.22-.1-.31s.09-.14.14-.14A3.19,3.19,0,0,1,49,48Z"/><path class="cls-41" d="M42.64,44.49c1.2-.19,1.8.62,2.4,1.44a.39.39,0,0,1-.06.58c-.82.15-1.1-.74-1.76-.91-.49-.1-.86-.3-.74-.9Z"/><path class="cls-28" d="M55.27,50.37l-1.22.42a4.23,4.23,0,0,1-2-.79l.47-.5A8.46,8.46,0,0,1,55.27,50.37Z"/><path class="cls-42" d="M72.22,71.64v-.28c.94-.82,2.18.08,3.15-.54.39-.15.53.18.74.39a.8.8,0,0,1,1.22.29l-1.17.16a5.74,5.74,0,0,1-2,.16C73.53,71.71,72.84,72.06,72.22,71.64Z"/><path class="cls-18" d="M87.59,68.79a4.78,4.78,0,0,1-2.37.79c-.34-.12-.57-.3-.39-.7a9.53,9.53,0,0,1,2.76-.81A.45.45,0,0,1,87.59,68.79Z"/><path class="cls-43" d="M85.08,48.69l.63.15c0,.71-.66.46-1,.71L83.26,50l0-.89C83.8,48.78,84.3,48.08,85.08,48.69Z"/><path class="cls-7" d="M20,48.34l-.63.6a3.47,3.47,0,0,1-1.18-1.55l.13-.71C19.28,46.79,19.5,47.67,20,48.34Z"/><path class="cls-44" d="M72.88,51.88a4.68,4.68,0,0,1,2.36-.39c.52-.2.78.08,1,.5a3.19,3.19,0,0,1-2,.39.59.59,0,0,1-.51.09C73.4,52.34,73,52.3,72.88,51.88Z"/><path class="cls-45" d="M39.1,41.31l1.69,1.59c-1,.36-1.14.26-1.94-1.23A.47.47,0,0,1,39.1,41.31Z"/><path class="cls-46" d="M54.47,69.72a1.09,1.09,0,0,1-.88.76l-1.09-.11V69.32Z"/><path class="cls-47" d="M76.23,52l-1-.5a2.55,2.55,0,0,1,1.62-.37.91.91,0,0,1,1.34.47A2.73,2.73,0,0,1,76.23,52Z"/><path class="cls-48" d="M84.83,68.88l.39.7a2,2,0,0,1-1.59.46,1,1,0,0,1-.77-.74C83.51,69.1,84.25,69.36,84.83,68.88Z"/><path class="cls-49" d="M114.69,49.13l.57.56-1.62,1.6a.65.65,0,0,1,0-.93A2.69,2.69,0,0,1,114.69,49.13Z"/><path class="cls-50" d="M32.34,61.11l.06-.86c.9-.14,1.08.8,1.68,1.1a.72.72,0,0,1-.54.57Z"/><path class="cls-51" d="M78.2,51.59l-1.34-.47a2.48,2.48,0,0,1,1.57-.39l1.28.45A2.52,2.52,0,0,1,78.2,51.59Z"/><path class="cls-52" d="M89.92,45.63c.63-.39,1-1.23,1.91-1.18a.45.45,0,0,1,.52-.05c.19.45,0,.72-.4.91s-.6.84-1.23.69C90.46,45.87,90.07,46,89.92,45.63Z"/><path class="cls-53" d="M87.59,68.79v-.72c.33-.22.63-.53,1.09-.44s.77.32.87.78Z"/><path class="cls-54" d="M118.43,43.7a.83.83,0,0,1,.68.7l-.76,1.26L118,44.53Z"/><path class="cls-55" d="M62.71,71.36c-1-.23-2.17.16-3.11-.56a14.51,14.51,0,0,1,4,.38Z"/><path class="cls-56" d="M108.54,56.4l-.09-.64c.38-.6.75-1.23,1.63-1.09C110.23,55.84,109.42,56.16,108.54,56.4Z"/><path class="cls-41" d="M97,40.56a1.67,1.67,0,0,1,1.62-1.62C98.63,40,98.15,40.6,97,40.56Z"/><path class="cls-57" d="M89.92,45.63l.8.37-.77.8a.88.88,0,0,1-.79.28c-.3-.11-.51-.28-.39-.64Z"/><path class="cls-58" d="M93.48,43.71a1.93,1.93,0,0,1,2.13-1.62l-.17.7c-.44.44-.82,1-1.52,1Z"/><path class="cls-59" d="M92.67,66.88l-1.13-.37,1.57-.79.4.79C93.34,66.88,93,66.79,92.67,66.88Z"/><path class="cls-29" d="M75.37,70.82c-1,.68-2.11.29-3.15.54l-.5-.19A12.14,12.14,0,0,1,75.37,70.82Z"/><path class="cls-60" d="M41.06,43.26a1.37,1.37,0,0,1,1.58,1.23l0,0c-.42.27-.83.51-1.15-.13A1.33,1.33,0,0,1,41.06,43.26Z"/><path class="cls-61" d="M36,62.56l0,.94a1.87,1.87,0,0,1-1.21-.84c-.2-.47.07-.66.47-.79S35.65,62.37,36,62.56Z"/><path class="cls-62" d="M35.17,61.87l-.47.79a1.45,1.45,0,0,1-1.16-.74l.54-.57Z"/><path class="cls-63" d="M113.61,50.36l0,.93A.92.92,0,0,1,113,52l-.69-.11A4.21,4.21,0,0,1,113.61,50.36Z"/><path class="cls-2" d="M92,45.31l.48-.76c.28-.44.65-.38,1-.16C93.13,45,92.9,45.74,92,45.31Z"/><path class="cls-2" d="M84.74,49.55l1-.71,1.48-.36A2.78,2.78,0,0,1,84.74,49.55Z"/><path class="cls-64" d="M99.38,63.34l-.72-.61.76-.44.73.66C100,63.37,99.64,63.22,99.38,63.34Z"/><path class="cls-60" d="M45,46.51l.06-.58c.51.12,1.1.13,1.2.84l0,.45C45.66,47.2,45.36,46.79,45,46.51Z"/><path class="cls-65" d="M56.82,51.6c.4-.5,1-.33,1.5-.41l.27.37C58,52.34,57.41,51.73,56.82,51.6Z"/><path class="cls-2" d="M41.51,44.32l1.15.13c-.16.55.26.83.56,1.15A1.72,1.72,0,0,1,41.51,44.32Z"/><path class="cls-66" d="M93.47,44.39l-1,.16-.6-.1a1.67,1.67,0,0,1,1.71-.78Z"/><path class="cls-67" d="M39.1,41.31l-.25.36c-.74,0-.89-.59-1-1.15C38.37,40.57,38.89,40.69,39.1,41.31Z"/><path class="cls-68" d="M95.85,41.94a1.26,1.26,0,0,1,1.23-1.43C97.26,41.5,96.44,41.62,95.85,41.94Z"/><path class="cls-2" d="M89.3,46.91,90,46.8a2,2,0,0,1-2,1.2,2.26,2.26,0,0,0,.13-.33C88.22,47,88.81,47,89.3,46.91Z"/><path class="cls-69" d="M99.39,37.77l.35.31A1,1,0,0,1,98.6,39,1.44,1.44,0,0,1,99.39,37.77Z"/><path class="cls-32" d="M73.68,52.23l.57.15a4.71,4.71,0,0,1-2.4.4c0-.13,0-.26,0-.39C72.4,51.91,73.05,52.2,73.68,52.23Z"/><path class="cls-8" d="M90.84,66.55a3.93,3.93,0,0,1-2,.79A2.2,2.2,0,0,1,90.84,66.55Z"/><path class="cls-24" d="M35.18,38.17l.43-.57A1.67,1.67,0,0,1,36.36,39,1.24,1.24,0,0,1,35.18,38.17Z"/><path class="cls-2" d="M93.92,43.81l1.52-1C95.12,43.41,94.86,44.12,93.92,43.81Z"/><path class="cls-3" d="M17,44.06l-.71-.8-.2-.72A1.46,1.46,0,0,1,17,44.06Z"/><path class="cls-8" d="M79,70.08a3.09,3.09,0,0,1-2,.36A2.62,2.62,0,0,1,79,70.08Z"/><path class="cls-32" d="M70.64,52a11.28,11.28,0,0,1-6.31,0Z"/><path class="cls-29" d="M89.3,46.91a1.65,1.65,0,0,1-1.23.76l-.55-.59a2,2,0,0,1,1.25-.64Z"/><path class="cls-32" d="M63,51.93a3.45,3.45,0,0,1-2.18-.36A4.41,4.41,0,0,1,63,51.93Z"/><path class="cls-70" d="M73.68,52.23l-1.87.16v-.47l1.07,0Z"/><path class="cls-10" d="M71.41,72h.8a.57.57,0,0,1,.81.09,30.74,30.74,0,0,1-11.07,0,.62.62,0,0,1,.82-.11L64,72A38.74,38.74,0,0,1,71.41,72Z"/><path class="cls-55" d="M62.77,71.94l-.82.11-1.3-.35,2.1-.09C62.76,71.72,62.76,71.83,62.77,71.94Z"/><path class="cls-29" d="M73,72.05,72.21,72c0-.11,0-.21,0-.32l2.1.07v.19l-.19.08Z"/><path class="cls-12" d="M74.12,72l.2-.27,1.84,0A2.7,2.7,0,0,1,74.12,72Z"/><path class="cls-71" d="M12.66,18.86c0-2.62.05-5.24,0-7.86-.05-2.17,1.49-1.83,2.83-2,1.51-.18,2.05.51,2,1.88,0,5.36,0,10.73-.15,16.09-.06,2.23-2.1,1.5-3.36,1.73s-1.37-.84-1.37-1.8v-8Z"/><path class="cls-71" d="M115.92,14.29c0-.78,0-1.57,0-2.35,0-3.17.22-3.36,3.46-2.9.86.13,1.36.46,1.36,1.33q0,4.22,0,8.44c0,1-.54,1.34-1.51,1.37-3.08.11-3.34-.1-3.34-3.14V14.29Z"/><path class="cls-2" d="M98.22,17.24c0-2.29.08-4.59,0-6.87-.08-1.81,1-1.82,2.29-1.8s2.56-.19,2.55,1.78c0,4.71,0,9.42.08,14.14,0,1.09-.19,2.1-1.59,1.85s-3.3.47-3.26-2c0-2.35,0-4.71,0-7.07Z"/><path class="cls-15" d="M103.67,9.85v6.3h-.18V9.85Z"/><path class="cls-72" d="M97.5,14.53V9.93h.19V14.6Z"/><path class="cls-71" d="M62.8,16.34c0-2.23,0-4.46,0-6.69,0-1.11.34-1.46,1.46-1.46,3.33,0,3.44,0,3.43,3.35,0,3.6-.09,7.21,0,10.81.09,2.4-1.42,2.11-3,2.23-1.75.14-2.1-.6-2-2.15.12-2,0-4.06,0-6.09Z"/><path class="cls-15" d="M64,24.89h2.28v.19H63.88Z"/><path class="cls-71" d="M85.27,16.87c0,2.1,0,4.2,0,6.29,0,1.2-.38,2-1.7,1.76s-3.06.59-3.08-1.69c0-4.45,0-8.91,0-13.37,0-1.55,1-1.6,2.15-1.55s2.58-.37,2.63,1.48c0,2.36,0,4.72,0,7.08Z"/><path class="cls-73" d="M89.22,25.15V11.51h.19V25.22Z"/><path class="cls-73" d="M29.72,18.93V6.7h.19V18.85Z"/><path class="cls-74" d="M104.67,48.58c.24.65,1.7-.33,1.19.88-.39.93-1.33,1.86-2.51,1.29a7.55,7.55,0,0,1-3.07-2.94c-.58-1,.22-1.72.9-2.35s1.51-.94,2.25-.17C104.32,46.21,106.14,46.86,104.67,48.58Z"/><path class="cls-54" d="M71.41,72A38.74,38.74,0,0,1,64,72,17.86,17.86,0,0,1,71.41,72Z"/></g></g></svg>