<svg xmlns="http://www.w3.org/2000/svg" viewBox="0 0 160 600"><defs><style>.cls-1{fill:#ffeadc;}.cls-2{fill:#3b3bfe;}</style></defs><g id="Layer_2" data-name="Layer 2"><g id="Layer_1-2" data-name="Layer 1"><rect class="cls-1" width="160" height="600"/><path d="M19.47,120.74V105H26.6c3.2,0,4.7,1.69,4.7,4,0,2.09-1.64,3.33-4.18,3.54,3.57.28,4.84,1.88,4.84,4,0,2.8-2.09,4.18-5.47,4.18Zm2.65-13.38v4.2H25.9c1.57,0,2.65-.49,2.65-2.08s-1.1-2.12-2.74-2.12Zm0,6.43v4.6h4c2.16,0,3.14-.7,3.14-2.3s-1.24-2.3-3.07-2.3Z"/><path d="M33.59,115c0-3.57,2.26-6,5.54-6s5.59,2.39,5.59,6S42.46,121,39.13,121,33.59,118.58,33.59,115ZM42,115c0-2.65-1.17-3.78-2.88-3.78s-2.87,1.13-2.87,3.78,1.18,3.75,2.87,3.75S42,117.67,42,115Z"/><path d="M46.47,115c0-3.57,2.26-6,5.54-6s5.59,2.39,5.59,6S55.34,121,52,121,46.47,118.58,46.47,115Zm8.45,0c0-2.65-1.17-3.78-2.88-3.78s-2.87,1.13-2.87,3.78,1.18,3.75,2.87,3.75S54.92,117.67,54.92,115Z"/><path d="M58.81,118.18l1.55-1.64a4.62,4.62,0,0,0,4.09,2.32c1.12,0,1.85-.4,1.85-1.22s-.87-1.12-2.13-1.43l-1.53-.37c-1.81-.43-3.47-1.22-3.47-3.31s1.71-3.43,4.34-3.43a5.4,5.4,0,0,1,4.86,2.46l-1.55,1.65a4.05,4.05,0,0,0-3.5-2c-1,0-1.69.42-1.69,1.2s.61,1.12,2.16,1.52l1.38.35c2.56.66,3.5,1.69,3.5,3.34,0,2.25-1.9,3.38-4.32,3.38S59.68,120,58.81,118.18Z"/><path d="M71.25,117.62v-6.27H69.47v-2h1.78v-1.38l2.63-1.67v3h3.49v2H73.88V117c0,1.24.58,1.54,1.36,1.54a2.26,2.26,0,0,0,1.88-1.38l.82,2.35a4,4,0,0,1-3.29,1.5A3.15,3.15,0,0,1,71.25,117.62Z"/><path d="M89.1,120.74v-5.68l-5.91-10h3.29l2.32,4.31L90.44,113l1.72-3.59L94.6,105h3.07l-5.91,10v5.68Z"/><path d="M96.56,115c0-3.57,2.26-6,5.54-6s5.59,2.39,5.59,6S105.43,121,102.1,121,96.56,118.58,96.56,115Zm8.45,0c0-2.65-1.17-3.78-2.88-3.78s-2.87,1.13-2.87,3.78,1.18,3.75,2.87,3.75S105,117.67,105,115Z"/><path d="M109.87,117.27v-8h2.62v7.16c0,1.41.47,2.37,2.23,2.37,1.93,0,2.59-1.24,2.59-3.12v-6.41H120v11.43h-2.65v-3.12a3.89,3.89,0,0,1-3.88,3.36C111.23,121,109.87,119.64,109.87,117.27Z"/><path d="M122.72,120.74V109.31h2.63v3.24c.42-1.83,1.57-3.47,3.61-3.47a2.39,2.39,0,0,1,2.49,2.63,4.72,4.72,0,0,1-.51,2.27h-2.7a2.82,2.82,0,0,0,.72-1.78,1,1,0,0,0-1.07-1.15c-1.32,0-2.54,1.5-2.54,3.4v6.29Z"/><path d="M19,136.58c0-4.53,2.73-8.07,7.56-8.07a6.93,6.93,0,0,1,7,4.85l-2.3,1.69c-.49-2.37-1.95-4-4.65-4-3.23,0-4.76,2.3-4.76,5.56s1.53,5.56,4.76,5.56c2.7,0,4.16-1.69,4.65-4l2.3,1.69a7,7,0,0,1-7,4.86C21.68,144.65,19,141.11,19,136.58Z"/><path d="M35.59,144.46V133h2.63v3.23c.42-1.83,1.57-3.47,3.61-3.47a2.4,2.4,0,0,1,2.49,2.63,4.78,4.78,0,0,1-.52,2.28H41.1a2.8,2.8,0,0,0,.73-1.79,1,1,0,0,0-1.08-1.15c-1.31,0-2.53,1.5-2.53,3.4v6.29Z"/><path d="M45.21,138.76c0-3.59,2.23-6,5.44-6,3.43,0,5.33,2.28,5.33,5.45a6.72,6.72,0,0,1-.1,1.15H47.72a3,3,0,0,0,3.14,3.14,3.28,3.28,0,0,0,3.31-2l1.62,1.68a5.6,5.6,0,0,1-4.95,2.47C47.44,144.7,45.21,142.33,45.21,138.76Zm2.53-1h5.87a2.94,2.94,0,0,0-5.87,0Z"/><path d="M57.88,138.76c0-3.68,1.78-6,4.55-6,2.27,0,3.28,1.53,3.66,3.31v-7.37h2.63v15.72H66.09v-3c-.38,1.76-1.34,3.28-3.61,3.28C59.66,144.72,57.88,142.45,57.88,138.76Zm5.6,3.83c1.83,0,2.61-1.22,2.61-3.1v-1.43c0-1.88-.78-3.12-2.63-3.12-1.64,0-2.89,1.26-2.89,3.82S61.82,142.59,63.48,142.59Z"/><path d="M71.48,131.42v-2.68h2.63v2.68Zm0,13V133h2.63v11.42Z"/><path d="M77.61,141.34v-6.26H75.82v-2h1.79v-1.39L80.24,130V133h3.49v2H80.24v5.63c0,1.24.58,1.55,1.36,1.55a2.26,2.26,0,0,0,1.87-1.39l.82,2.35a3.89,3.89,0,0,1-3.28,1.5A3.15,3.15,0,0,1,77.61,141.34Z"/><path d="M22.5,169.67a9.86,9.86,0,0,1-2.4-.29,6.73,6.73,0,0,1-2-.81l-.77.75H16.5L17.58,164h.9a6,6,0,0,0,1.33,3.49,3.68,3.68,0,0,0,2.88,1.24,3.64,3.64,0,0,0,2.52-.85,2.84,2.84,0,0,0,.95-2.23,2.51,2.51,0,0,0-1.94-2.39l-1.48-.56a8.51,8.51,0,0,1-2.4-1.17,3.68,3.68,0,0,1-1-1.27A3.58,3.58,0,0,1,19,158.7a4.39,4.39,0,0,1,1.76-3.51A6.54,6.54,0,0,1,25,153.76a7.24,7.24,0,0,1,3.91,1l.67-.68h.9l-1.09,5.11h-.88A8.87,8.87,0,0,0,28,156.6a3.3,3.3,0,0,0-1.14-1.39,3.23,3.23,0,0,0-1.85-.49,3.08,3.08,0,0,0-2.16.79,2.52,2.52,0,0,0-.87,2,2.14,2.14,0,0,0,.54,1.52,4.29,4.29,0,0,0,1.7,1l1.2.44a7.77,7.77,0,0,1,2.94,1.68,3.15,3.15,0,0,1,.84,2.22,4.72,4.72,0,0,1-1.89,3.82A7.39,7.39,0,0,1,22.5,169.67Z"/><path d="M40.93,160.82a2.71,2.71,0,0,1-.41,1.47,3.63,3.63,0,0,1-1.17,1.13,9,9,0,0,1-2.09.87,21.75,21.75,0,0,1-3.49.65c0,2.21.84,3.3,2.41,3.3a3.82,3.82,0,0,0,1.94-.47,6.15,6.15,0,0,0,1.73-1.61l.7.54a6.75,6.75,0,0,1-2.32,2.16,5.89,5.89,0,0,1-2.91.79A4.52,4.52,0,0,1,32,168.5a4.24,4.24,0,0,1-1.18-3.18,7.12,7.12,0,0,1,.87-3.44,6.44,6.44,0,0,1,2.38-2.5,6.32,6.32,0,0,1,3.36-.91,4.69,4.69,0,0,1,2.58.6A2,2,0,0,1,40.93,160.82Zm-2.74,0a1.73,1.73,0,0,0-.33-1.13,1.1,1.1,0,0,0-.93-.4,2,2,0,0,0-1.36.62,5.1,5.1,0,0,0-1.13,1.76,9.42,9.42,0,0,0-.63,2.47,12.34,12.34,0,0,0,2.52-.57,3.17,3.17,0,0,0,1.07-.67A2.39,2.39,0,0,0,38,162,3.26,3.26,0,0,0,38.19,160.82Z"/><path d="M52.21,160.82a2.63,2.63,0,0,1-.41,1.47,3.63,3.63,0,0,1-1.17,1.13,9,9,0,0,1-2.09.87,21.53,21.53,0,0,1-3.49.65c0,2.21.84,3.3,2.41,3.3a3.79,3.79,0,0,0,1.94-.47,6,6,0,0,0,1.73-1.61l.71.54a6.94,6.94,0,0,1-2.32,2.16,6,6,0,0,1-2.91.79,4.53,4.53,0,0,1-3.32-1.15,4.24,4.24,0,0,1-1.17-3.18,7.12,7.12,0,0,1,.87-3.44,6.41,6.41,0,0,1,2.37-2.5,6.32,6.32,0,0,1,3.36-.91,4.69,4.69,0,0,1,2.58.6A1.94,1.94,0,0,1,52.21,160.82Zm-2.74,0a1.79,1.79,0,0,0-.32-1.13,1.14,1.14,0,0,0-.94-.4,2,2,0,0,0-1.36.62,5.1,5.1,0,0,0-1.13,1.76,9,9,0,0,0-.62,2.47,12,12,0,0,0,2.51-.57,3.32,3.32,0,0,0,1.08-.67,2.52,2.52,0,0,0,.59-.89A3.49,3.49,0,0,0,49.47,160.82Z"/><path d="M73.06,167.56c0,.6.62.94,1.85,1l-.18.75H67.47l.17-.75a4.66,4.66,0,0,0,1.78-.34,1.32,1.32,0,0,0,.63-.93l1.24-5.4H64.52l-1.13,4.89a4.35,4.35,0,0,0-.12.62.9.9,0,0,0,.37.77,3.26,3.26,0,0,0,1.43.39l-.17.75H57.66l.15-.75a3.89,3.89,0,0,0,1.69-.29,1.39,1.39,0,0,0,.75-1l2.5-10.86a2.58,2.58,0,0,0,.06-.49c0-.58-.61-.95-1.84-1.1l.18-.74h7.26l-.18.74a3.84,3.84,0,0,0-1.72.42,1.47,1.47,0,0,0-.67.94l-1.07,4.71h6.75l1-4.38a2.68,2.68,0,0,0,.06-.52.87.87,0,0,0-.5-.74,3.43,3.43,0,0,0-1.3-.43l.18-.74h7.26l-.17.74a4,4,0,0,0-1.75.42,1.47,1.47,0,0,0-.67.94L73.17,167A3.44,3.44,0,0,0,73.06,167.56Z"/><path d="M89.17,162.82a7,7,0,0,1-.88,3.45,6.27,6.27,0,0,1-2.46,2.49,6.9,6.9,0,0,1-3.53.91,4.56,4.56,0,0,1-3.3-1.19,4.24,4.24,0,0,1-1.24-3.2,7,7,0,0,1,.88-3.48,6.29,6.29,0,0,1,2.42-2.46,6.89,6.89,0,0,1,3.47-.89,4.74,4.74,0,0,1,3.4,1.17A4.2,4.2,0,0,1,89.17,162.82Zm-3-.81a3.52,3.52,0,0,0-.49-2.06,1.59,1.59,0,0,0-1.39-.68,2.5,2.5,0,0,0-1.84.81,6.15,6.15,0,0,0-1.28,2.46,12.55,12.55,0,0,0-.48,3.53c0,1.86.63,2.79,1.9,2.79a2.42,2.42,0,0,0,1.81-.85,6,6,0,0,0,1.28-2.49A12.25,12.25,0,0,0,86.2,162Z"/><path d="M95.55,160.75a11.66,11.66,0,0,1-.65,3,11.69,11.69,0,0,0-.64,2.86,1.51,1.51,0,0,0,.36,1.12,1.26,1.26,0,0,0,.91.35,2.83,2.83,0,0,0,1.35-.38,4.94,4.94,0,0,0,1.3-1.07q.55-3,1.76-7.88l2.64-.13.13.15-1.37,5.87a8.84,8.84,0,0,0-.31,1.84c0,1.16.6,1.73,1.8,1.73a3.18,3.18,0,0,0,1.88-.64,4.52,4.52,0,0,0,1.44-1.75,5.39,5.39,0,0,0,.53-2.35,2,2,0,0,0-.19-.89,3,3,0,0,0-.56-.79,2.84,2.84,0,0,1-.57-.84,2.32,2.32,0,0,1-.18-.92,1.47,1.47,0,0,1,.48-1.14,1.63,1.63,0,0,1,1.17-.45,1.48,1.48,0,0,1,1.28.63,3.64,3.64,0,0,1,.46,2.07,9.83,9.83,0,0,1-.94,4.2,7.85,7.85,0,0,1-2.51,3.14,5.68,5.68,0,0,1-3.4,1.14,4,4,0,0,1-2.2-.59,2.81,2.81,0,0,1-1.23-1.63,8.21,8.21,0,0,1-2.12,1.69,4.41,4.41,0,0,1-2,.51,2.65,2.65,0,0,1-2-.75,2.77,2.77,0,0,1-.72-2,12.5,12.5,0,0,1,.65-3,12.53,12.53,0,0,0,.65-2.89,1.12,1.12,0,0,0-.23-.8,1.19,1.19,0,0,0-.84-.23,3.11,3.11,0,0,0-.64.09,4.27,4.27,0,0,0-.62.17l.21-.84a8,8,0,0,1,2.8-.78A1.9,1.9,0,0,1,95.55,160.75Z"/><path d="M31.67,180.22h-.81a4.8,4.8,0,0,0-.29-1.3,3.85,3.85,0,0,0-.63-1.14,1.3,1.3,0,0,0-.82-.51,13.35,13.35,0,0,0-1.82-.11H24.82l-1.43,6.12H25a3.46,3.46,0,0,0,1.52-.3,2.81,2.81,0,0,0,1.1-1,5.25,5.25,0,0,0,.67-1.31h.81c-.76,3.29-1.24,5.35-1.42,6.19H26.9l0-.5a4.17,4.17,0,0,0-.14-1.17,1.21,1.21,0,0,0-.59-.78,2.68,2.68,0,0,0-1.35-.27H23.19L22,189.27a1.44,1.44,0,0,0-.08.46.75.75,0,0,0,.38.69,4.44,4.44,0,0,0,1.54.34l-.18.75H16.28l.17-.75a3.94,3.94,0,0,0,1.74-.3,1.41,1.41,0,0,0,.75-1l2.5-10.86a3.07,3.07,0,0,0,.06-.51.76.76,0,0,0-.43-.67,4.85,4.85,0,0,0-1.48-.41l.19-.74H32.59Z"/><path d="M40.24,191.7a2.5,2.5,0,0,1-1.47-.42,1.73,1.73,0,0,1-.72-1.13H38a12.9,12.9,0,0,1-1.34,1,4.91,4.91,0,0,1-1,.48,3.1,3.1,0,0,1-1.1.19,3.21,3.21,0,0,1-2.6-1.1,4.58,4.58,0,0,1-.93-3.05,7.38,7.38,0,0,1,.85-3.43,7.05,7.05,0,0,1,2.32-2.61,5.58,5.58,0,0,1,4.69-.78,3.39,3.39,0,0,1,1.16.54l2.63-.56.13.15-1.67,7.12a5.43,5.43,0,0,0-.19,1.17,1,1,0,0,0,.27.83,1.46,1.46,0,0,0,.92.22,3.53,3.53,0,0,0,1.23-.24l-.18.82c-.58.24-1.1.43-1.55.57A4.57,4.57,0,0,1,40.24,191.7Zm-.79-8.36a1.57,1.57,0,0,0-1.74-1.75,2.58,2.58,0,0,0-1.82.87,5.94,5.94,0,0,0-1.37,2.31,8.83,8.83,0,0,0-.51,3,3.61,3.61,0,0,0,.44,2,1.53,1.53,0,0,0,1.36.63,3.48,3.48,0,0,0,2.28-1.26Z"/><path d="M48,183.26a1.61,1.61,0,0,0,.15.73,1.55,1.55,0,0,0,.53.52,10.13,10.13,0,0,0,1.52.65,5.69,5.69,0,0,1,2.22,1.31,2.48,2.48,0,0,1,.63,1.71,3.12,3.12,0,0,1-1.38,2.66,5.94,5.94,0,0,1-3.61,1,6.53,6.53,0,0,1-3-.58,1.75,1.75,0,0,1-1.14-1.55,1.28,1.28,0,0,1,.4-1,1.38,1.38,0,0,1,1-.39,1.51,1.51,0,0,1,1.11.46,3,3,0,0,1,.7,1.25l.24.77a2.83,2.83,0,0,0,.9.15,2.23,2.23,0,0,0,1.55-.51,1.83,1.83,0,0,0,.57-1.44,1.21,1.21,0,0,0-.4-.9,3.64,3.64,0,0,0-1.2-.7,11.87,11.87,0,0,1-2.32-1.14,2.86,2.86,0,0,1-.84-.94,2.61,2.61,0,0,1-.29-1.24,2.81,2.81,0,0,1,.62-1.74,4,4,0,0,1,1.71-1.26,6.49,6.49,0,0,1,2.48-.45,5.8,5.8,0,0,1,2.66.5,1.52,1.52,0,0,1,.94,1.39,1.27,1.27,0,0,1-.38.94,1.34,1.34,0,0,1-1,.38,1.46,1.46,0,0,1-1.06-.43,2.86,2.86,0,0,1-.67-1.21l-.24-.73-.31,0a2.37,2.37,0,0,0-1.56.5A1.62,1.62,0,0,0,48,183.26Z"/><path d="M58.48,189.35a1,1,0,0,0,.3.8,1.44,1.44,0,0,0,.93.24,6.61,6.61,0,0,0,.92-.09,4,4,0,0,0,.86-.22l-.19.88a8.55,8.55,0,0,1-3.32.79,2.79,2.79,0,0,1-1.76-.5,1.7,1.7,0,0,1-.63-1.39,5.23,5.23,0,0,1,0-.75c0-.27.2-1,.49-2.3s.67-2.82,1.13-4.7H55.32l.25-1h2l.77-3.2H61l-.75,3.2h3l-.23,1H60A59.82,59.82,0,0,0,58.48,189.35Z"/><path d="M76,189.67a.87.87,0,0,0,.54.78,3.75,3.75,0,0,0,1.54.31l-.17.75H70.14l.17-.75a4.94,4.94,0,0,0,2-.38,1.55,1.55,0,0,0,.7-1l.7-3a4.43,4.43,0,0,0,.14-.75,2.13,2.13,0,0,0-.11-.59l-.27-.9q-1.1-3.45-1.74-5.23a3.14,3.14,0,0,0-.85-1.35,2.42,2.42,0,0,0-1.45-.52l.18-.74H77l-.19.74-.65,0c-1,.05-1.49.25-1.49.59a14.46,14.46,0,0,0,.5,1.87q.49,1.65,1.49,4.58,2.88-3.37,3.93-4.74a5.62,5.62,0,0,0,1.06-1.62.49.49,0,0,0-.33-.43,4.66,4.66,0,0,0-1.47-.28l.19-.74h5.57l-.17.74a3.73,3.73,0,0,0-1,.25,4.29,4.29,0,0,0-.88.53A12.35,12.35,0,0,0,82.39,179c-.49.53-1,1.14-1.63,1.82s-1.31,1.53-2.14,2.54a23.1,23.1,0,0,0-1.48,1.89,6.41,6.41,0,0,0-.51,1.38c-.18.68-.33,1.3-.44,1.86A7.58,7.58,0,0,0,76,189.67Z"/><path d="M93.8,185a7,7,0,0,1-.88,3.45,6.36,6.36,0,0,1-2.46,2.5,7,7,0,0,1-3.53.9,4.56,4.56,0,0,1-3.3-1.19,4.24,4.24,0,0,1-1.24-3.2,6.94,6.94,0,0,1,.88-3.47,6.38,6.38,0,0,1,2.42-2.47,6.89,6.89,0,0,1,3.47-.89,4.71,4.71,0,0,1,3.4,1.18A4.16,4.16,0,0,1,93.8,185Zm-3-.81a3.54,3.54,0,0,0-.49-2.06,1.61,1.61,0,0,0-1.39-.68,2.47,2.47,0,0,0-1.84.82,5.89,5.89,0,0,0-1.28,2.46,12.43,12.43,0,0,0-.48,3.52c0,1.86.63,2.79,1.9,2.79a2.44,2.44,0,0,0,1.81-.84,6.09,6.09,0,0,0,1.28-2.5A12.15,12.15,0,0,0,90.83,184.2Z"/><path d="M104.86,191.7a2.42,2.42,0,0,1-1.56-.48,1.88,1.88,0,0,1-.7-1.32h-.07a8.7,8.7,0,0,1-2.17,1.49,5.05,5.05,0,0,1-2,.41,2.36,2.36,0,0,1-1.69-.6,2.09,2.09,0,0,1-.63-1.6,6.55,6.55,0,0,1,.25-1.65l.81-3.2a9.18,9.18,0,0,0,.26-1.56,1.12,1.12,0,0,0-.23-.8,1.19,1.19,0,0,0-.84-.23,3.11,3.11,0,0,0-.64.09,3.93,3.93,0,0,0-.62.17l.2-.83A7.9,7.9,0,0,1,98,180.8a2.35,2.35,0,0,1,1.61.5,1.73,1.73,0,0,1,.56,1.37,5.08,5.08,0,0,1-.2,1.42l-.85,3.42a5.92,5.92,0,0,0-.24,1.43c0,.88.39,1.31,1.16,1.31a2.88,2.88,0,0,0,1.27-.34,6.2,6.2,0,0,0,1.41-1l1.82-7.9,2.64-.12.12.15-1.55,6.74a6.54,6.54,0,0,0-.29,1.53,1.06,1.06,0,0,0,.27.84,1.48,1.48,0,0,0,.92.23,2.87,2.87,0,0,0,.66-.09,2.53,2.53,0,0,0,.56-.17l-.17.84c-.59.23-1.11.41-1.58.56A4.26,4.26,0,0,1,104.86,191.7Z"/><path d="M31.09,209.88A7.81,7.81,0,0,1,24,214.07a6.71,6.71,0,0,1-3.26-.77,5.33,5.33,0,0,1-2.22-2.19,6.54,6.54,0,0,1-.78-3.23A9.85,9.85,0,0,1,19,203a9.44,9.44,0,0,1,3.36-3.59A8.57,8.57,0,0,1,27,198.12a10.25,10.25,0,0,1,2.31.27,6.27,6.27,0,0,1,1.93.76l.7-.66h.9L31.65,204h-.9a7.24,7.24,0,0,0-1.19-3.76A3.14,3.14,0,0,0,27,199a4.39,4.39,0,0,0-2.9,1.13A7.85,7.85,0,0,0,22,203.41a12.5,12.5,0,0,0-.81,4.54,5.39,5.39,0,0,0,1.07,3.53,3.55,3.55,0,0,0,2.89,1.3,5,5,0,0,0,2.75-.82,8.78,8.78,0,0,0,2.46-2.56Z"/><path d="M41.64,213.89a2.46,2.46,0,0,1-1.47-.42,1.68,1.68,0,0,1-.73-1.13h-.09a12.9,12.9,0,0,1-1.34,1,4.84,4.84,0,0,1-1,.48,3.54,3.54,0,0,1-3.71-.91,4.55,4.55,0,0,1-.92-3.05,7.37,7.37,0,0,1,.84-3.43,7.05,7.05,0,0,1,2.32-2.61,5.55,5.55,0,0,1,3.15-1,5.63,5.63,0,0,1,1.55.2,3.16,3.16,0,0,1,1.15.55L44,203l.12.15-1.67,7.12a5.43,5.43,0,0,0-.19,1.17,1,1,0,0,0,.27.83,1.46,1.46,0,0,0,.92.22,3.75,3.75,0,0,0,1.23-.23l-.18.81c-.58.24-1.1.43-1.55.57A4.51,4.51,0,0,1,41.64,213.89Zm-.8-8.36a1.56,1.56,0,0,0-1.73-1.75,2.54,2.54,0,0,0-1.82.87A6.08,6.08,0,0,0,35.91,207a8.88,8.88,0,0,0-.51,3,3.69,3.69,0,0,0,.44,2,1.53,1.53,0,0,0,1.36.63,3.44,3.44,0,0,0,2.28-1.26Z"/><path d="M55.66,213.87a2.37,2.37,0,0,1-1.59-.5,1.66,1.66,0,0,1-.6-1.36,5.57,5.57,0,0,1,.2-1.43l.9-3.42a7.09,7.09,0,0,0,.26-1.44,1.42,1.42,0,0,0-.31-1,1.19,1.19,0,0,0-.93-.34,2.84,2.84,0,0,0-1.31.38,6.17,6.17,0,0,0-1.47,1.13L49,213.7H46.26l1.55-6.76c0-.18.1-.44.16-.78a5,5,0,0,0,.09-.78,1.17,1.17,0,0,0-.2-.81,1.27,1.27,0,0,0-.87-.21,3,3,0,0,0-.62.08,6.45,6.45,0,0,0-.63.17l.2-.83a8.13,8.13,0,0,1,2.88-.79,2.31,2.31,0,0,1,1.48.42,2.08,2.08,0,0,1,.67,1.38H51a10.62,10.62,0,0,1,2.25-1.5,4.84,4.84,0,0,1,2-.43,2.41,2.41,0,0,1,1.71.6,2,2,0,0,1,.66,1.59,6.33,6.33,0,0,1-.24,1.65l-.86,3.23a5.94,5.94,0,0,0-.26,1.53,1.09,1.09,0,0,0,.24.81,1.39,1.39,0,0,0,.95.24,3.28,3.28,0,0,0,.63-.08,3.09,3.09,0,0,0,.6-.18l-.21.84c-.57.23-1.1.42-1.56.56A4.23,4.23,0,0,1,55.66,213.87Z"/><path d="M72.1,214.07a7.17,7.17,0,0,1-3.36-.76,5.45,5.45,0,0,1-2.3-2.16,6.3,6.3,0,0,1-.81-3.23,10.09,10.09,0,0,1,1.25-5,9.2,9.2,0,0,1,3.48-3.55,9.55,9.55,0,0,1,4.88-1.29,10,10,0,0,1,2.38.28,6.86,6.86,0,0,1,2,.75l.7-.66h.88L80,203.94h-.9a6.36,6.36,0,0,0-1.14-3.7,3.5,3.5,0,0,0-2.86-1.2A4.56,4.56,0,0,0,72,200.28a8.22,8.22,0,0,0-2.18,3.37,13.09,13.09,0,0,0-.8,4.61,5.78,5.78,0,0,0,1,3.59,3.31,3.31,0,0,0,2.75,1.28,4.39,4.39,0,0,0,1.38-.2,4.23,4.23,0,0,0,1.32-.74l.64-2.53a4.69,4.69,0,0,0,.17-.92.93.93,0,0,0-.19-.59,1.33,1.33,0,0,0-.57-.36,7.32,7.32,0,0,0-1.43-.25l.17-.77h7.46a5.8,5.8,0,0,0-.17.77,3.62,3.62,0,0,0-1.67.39,1.52,1.52,0,0,0-.7,1l-.35,1.55a15.24,15.24,0,0,0-.42,2.06,14.5,14.5,0,0,1-3.12,1.12A13.51,13.51,0,0,1,72.1,214.07Z"/><path d="M92.49,204.86a2.27,2.27,0,0,1-.5,1.53,1.8,1.8,0,0,1-2.34.28,1,1,0,0,1-.4-.78,2.26,2.26,0,0,1,.15-.8c.1-.26.23-.56.37-.9a5.35,5.35,0,0,0-2.7,1.87l-1.74,7.64H82.57l1.52-6.76a5.91,5.91,0,0,0,.17-.83,5.08,5.08,0,0,0,.09-.79,1,1,0,0,0-.22-.72,1.12,1.12,0,0,0-.85-.24,2.89,2.89,0,0,0-.62.08,6,6,0,0,0-.64.17l.21-.83A8.09,8.09,0,0,1,85.1,203a2.28,2.28,0,0,1,1.49.43,2.21,2.21,0,0,1,.66,1.44h.07a19.09,19.09,0,0,1,1.56-1.35,3.75,3.75,0,0,1,.9-.5,2.56,2.56,0,0,1,.89-.15,1.82,1.82,0,0,1,1.33.48A2,2,0,0,1,92.49,204.86Z"/><path d="M104.5,207.21a7.06,7.06,0,0,1-.87,3.44,6.49,6.49,0,0,1-2.46,2.5,7,7,0,0,1-3.53.9,4.56,4.56,0,0,1-3.31-1.19,4.26,4.26,0,0,1-1.24-3.2,7.07,7.07,0,0,1,.88-3.47,6.48,6.48,0,0,1,2.43-2.47,6.87,6.87,0,0,1,3.47-.89,4.76,4.76,0,0,1,3.4,1.18A4.21,4.21,0,0,1,104.5,207.21Zm-3-.82a3.62,3.62,0,0,0-.49-2.06,1.63,1.63,0,0,0-1.4-.68,2.47,2.47,0,0,0-1.83.82,5.78,5.78,0,0,0-1.28,2.46,12.13,12.13,0,0,0-.49,3.52c0,1.86.64,2.79,1.91,2.79a2.42,2.42,0,0,0,1.8-.84,6.09,6.09,0,0,0,1.29-2.5A12.51,12.51,0,0,0,101.54,206.39Z"/><path d="M110.88,205.14a11.55,11.55,0,0,1-.64,3,12,12,0,0,0-.65,2.86,1.49,1.49,0,0,0,.36,1.12,1.28,1.28,0,0,0,.91.35,2.83,2.83,0,0,0,1.35-.38,5,5,0,0,0,1.31-1.07c.37-2,1-4.62,1.75-7.87l2.64-.13.13.15-1.36,5.86a8.29,8.29,0,0,0-.31,1.84,1.57,1.57,0,0,0,1.8,1.74,3.22,3.22,0,0,0,1.88-.65,4.44,4.44,0,0,0,1.43-1.75,5.22,5.22,0,0,0,.53-2.35,2.1,2.1,0,0,0-.18-.88,3.12,3.12,0,0,0-.57-.8,3,3,0,0,1-.56-.83,2.34,2.34,0,0,1-.19-.93,1.5,1.5,0,0,1,.48-1.14,1.64,1.64,0,0,1,1.17-.44,1.51,1.51,0,0,1,1.29.62,3.66,3.66,0,0,1,.45,2.08,9.75,9.75,0,0,1-.94,4.2,8,8,0,0,1-2.5,3.14,5.76,5.76,0,0,1-3.41,1.13,4,4,0,0,1-2.2-.58,2.86,2.86,0,0,1-1.23-1.64,8.11,8.11,0,0,1-2.12,1.7,4.52,4.52,0,0,1-2,.5,2.62,2.62,0,0,1-2-.75,2.75,2.75,0,0,1-.73-2,12.08,12.08,0,0,1,.66-3,12.38,12.38,0,0,0,.64-2.9,1.13,1.13,0,0,0-.22-.8,1.22,1.22,0,0,0-.85-.22,3,3,0,0,0-.64.08,5.17,5.17,0,0,0-.61.17l.2-.83a8.07,8.07,0,0,1,2.81-.79A1.9,1.9,0,0,1,110.88,205.14Z"/><path class="cls-2" d="M33.28,50.92c-.09-.13-.19-.25-.27-.38-1.37-2.38-2.73-4.76-4.13-7.13a1.58,1.58,0,0,1-.21-1.59c.11-.2,0-.43.1-.63l0-.79a13.84,13.84,0,0,0,0-2.23l0-.79c-.12-.24,0-.52-.11-.75-.32-1.17-.64-2.34-.95-3.52a2.13,2.13,0,0,0-.21-.49,3.24,3.24,0,0,1-.21-.35,18.4,18.4,0,0,0-3.48-5,2,2,0,0,0-.46-.41c-.37-.3-.75-.6-1.11-.91a.51.51,0,0,0-.73,0c-.27.21-.53.45-.79.67s-.54.52-.8.79l-1.06,1.1a5.07,5.07,0,0,1-.35.46c-.17.21-.35.42-.5.64a14.37,14.37,0,0,0-2.1,4.22,3.56,3.56,0,0,0-.23.72,5.64,5.64,0,0,0-.35,1.4c-.15.18,0,.43-.12.62l-.14,1.15a24.26,24.26,0,0,0,0,3.19L15.21,42a1.42,1.42,0,0,1,0,.84c-.74,1.28-1.49,2.56-2.23,3.85l-2.27,4c-.22.51-.22.52.31.53,2.34,0,4.67,0,7,0,.17,0,.45-.17.5.19-.71,1.21-1.43,2.42-2.14,3.64,0,.23.17.17.29.17h10.5c.1,0,.31.1.28-.16a6.24,6.24,0,0,1-.37-.58c-.54-1-1.26-2-1.73-3.08.06-.35.34-.18.51-.18,2.26,0,4.52,0,6.78,0a3.85,3.85,0,0,0,.48,0C33.3,51.18,33.35,51.08,33.28,50.92ZM21.71,28.79c.19-.19.32-.12.49.05A14.22,14.22,0,0,1,24,30.94h-4A14.08,14.08,0,0,1,21.71,28.79Zm-7.32,20.1,1.87-3.25A20,20,0,0,0,18,48.89Zm5.88,4,1.5-2.59c.11-.2.22-.18.33,0l1.49,2.58ZM24.2,47.3a.77.77,0,0,1-.77.41q-1.5,0-3,0a.76.76,0,0,1-.76-.41A14.29,14.29,0,0,1,18.5,33.56a.53.53,0,0,1,.57-.37c1,0,1.93,0,2.89,0s1.89,0,2.83,0a.52.52,0,0,1,.57.37A14.32,14.32,0,0,1,24.2,47.3ZM29,48.91H25.83a18.73,18.73,0,0,0,1.73-3.19,2.8,2.8,0,0,1,.59.87c.37.62.71,1.26,1.09,1.88C29.42,48.77,29.44,48.92,29,48.91Z"/><path class="cls-2" d="M22,35.78a3.22,3.22,0,0,0-.06,6.43A3.2,3.2,0,0,0,25.17,39,3.16,3.16,0,0,0,22,35.78Zm0,4.2a1,1,0,0,1-1-1,1,1,0,0,1,1-1,1,1,0,0,1,1,1A1,1,0,0,1,21.92,40Z"/><path d="M89.42,50.46c0-.11-.15-.06-.23-.06a8.49,8.49,0,0,1-3-.52c-.32-.11-.62-.28-.94-.41-.14,0-.16-.14-.12-.24.26-.74.52-1.48.79-2.22,0-.13.1-.14.22-.07a6.85,6.85,0,0,0,1.91.65,5.75,5.75,0,0,0,3.08-.07,1.06,1.06,0,0,0,.74-.82,1.27,1.27,0,0,0-.45-1.3A9.33,9.33,0,0,0,89,44.26a6.86,6.86,0,0,1-2.52-1.39,3.42,3.42,0,0,1-1-2.08,3.9,3.9,0,0,1,3-4.4,7.52,7.52,0,0,1,2.67-.25,8.11,8.11,0,0,1,3.27.86c.15.07.19.13.13.3-.28.71-.54,1.43-.8,2.15,0,.1-.09.12-.2.07a7.05,7.05,0,0,0-1.72-.61,5,5,0,0,0-2.5.11.92.92,0,0,0-.64.76A1.12,1.12,0,0,0,89.14,41a10.16,10.16,0,0,0,1.91.84,10.66,10.66,0,0,1,2.66,1.27,3.43,3.43,0,0,1,1.45,2.46,5.39,5.39,0,0,1-.11,2.08A3.53,3.53,0,0,1,92.69,50a6.39,6.39,0,0,1-2.34.39c-.08,0-.18,0-.22.06Z"/><path d="M36.83,49.12a13.5,13.5,0,0,0,.58-1.49c.1-.23.12-.57.29-.69s.42.17.65.25a8.53,8.53,0,0,0,2.5.54,4.7,4.7,0,0,0,1.94-.21,1.07,1.07,0,0,0,.79-.88,1.23,1.23,0,0,0-.47-1.24,10.26,10.26,0,0,0-2.68-1.21,6.15,6.15,0,0,1-2.32-1.31,3.49,3.49,0,0,1-1-2.05,4.09,4.09,0,0,1,.35-2.34,4,4,0,0,1,2.7-2.1,7.62,7.62,0,0,1,2.6-.25A8.12,8.12,0,0,1,46,37c.18.09.2.16.12.35-.27.67-.51,1.35-.76,2,0,.14-.07.21-.25.13a7.19,7.19,0,0,0-1.67-.58,4.93,4.93,0,0,0-2.53.1,1,1,0,0,0-.68.94,1.15,1.15,0,0,0,.55,1,9.25,9.25,0,0,0,2.19.95,10,10,0,0,1,2.39,1.17,3.51,3.51,0,0,1,1.43,2.45,5.17,5.17,0,0,1-.13,2.11,3.53,3.53,0,0,1-2.54,2.41,6.65,6.65,0,0,1-2.08.32c-.09,0-.21-.06-.28.06H41c-.53-.07-1.07,0-1.59-.1a7.81,7.81,0,0,1-2.32-.71,1.14,1.14,0,0,1-.28-.21Z"/><path d="M99.52,34.79v5a5.3,5.3,0,0,1,2.36-.24,3.5,3.5,0,0,1,3.51,3,9.44,9.44,0,0,1,.18,1.91c0,1.81,0,3.62,0,5.43,0,.25-.06.3-.3.3-.82,0-1.63,0-2.45,0-.25,0-.29-.08-.29-.3,0-1.82,0-3.63,0-5.44a4.67,4.67,0,0,0-.2-1.39,1.3,1.3,0,0,0-1.28-.94,5.85,5.85,0,0,0-1.32.13c-.21,0-.23.15-.23.33q0,3.63,0,7.26c0,.28,0,.36-.34.35-.82,0-1.63,0-2.45,0-.2,0-.25-.06-.25-.25q0-7.18,0-14.36c0-.2.07-.28.26-.31.9-.12,1.79-.26,2.68-.39,0,0,0,0,0-.05Z"/><path d="M52.86,50.46c-.09-.13-.22-.06-.32-.06A5,5,0,0,1,49.07,49a4.51,4.51,0,0,1-1.23-2.46,6.94,6.94,0,0,1-.12-2.08,5.13,5.13,0,0,1,2.77-4.36,5.77,5.77,0,0,1,3.18-.58,6.65,6.65,0,0,1,2.19.5c.13.05.2.08.08.24a7.38,7.38,0,0,0-1,1.87c-.05.14-.09.2-.29.14a6.83,6.83,0,0,0-1.2-.2A2.32,2.32,0,0,0,51,43.68a4.11,4.11,0,0,0,.09,2.91,1.9,1.9,0,0,0,1.6,1.19,5.66,5.66,0,0,0,2-.06c.08,0,.18-.06.24.11a6.29,6.29,0,0,0,1,1.9c.16.19.06.23-.09.28a6.6,6.6,0,0,1-2.16.39c-.07,0-.17,0-.22.06Z"/><path d="M137.11,34.79q0,7.5,0,15c0,.28-.06.37-.36.36-.81,0-1.61,0-2.41,0-.22,0-.27-.06-.27-.27q0-7.18,0-14.39c0-.17,0-.23.23-.27.81-.13,1.61-.26,2.42-.37,0,0,0,0,.06-.06Z"/><path d="M116.39,44.79c0,1.58,0,3.16,0,4.74,0,.22-.06.32-.27.35a23.73,23.73,0,0,1-3,.47c-.54,0-1.08.06-1.62,0a4.21,4.21,0,0,1-3-1.17,3.69,3.69,0,0,1-1-2.09c-.28-2.26-.06-4.54-.13-6.81,0-.61,0-.61.62-.61h2.15c.22,0,.26.06.26.27,0,1.94,0,3.87,0,5.81a3.33,3.33,0,0,0,.21,1.13,1.44,1.44,0,0,0,1.36.92c.42,0,.82-.08,1.24-.07.21,0,.21-.17.21-.34V40.84c0-.37-.15-.86.07-1.07s.69-.05,1-.05c.53,0,1,0,1.58,0,.26,0,.34,0,.33.32C116.38,41.62,116.39,43.21,116.39,44.79Z"/><path d="M125.91,42.16V37.6c0-.51,0-.5.5-.57l2.36-.37c.22,0,.17.09.17.2v2.27c0,.58,0,.58.6.58h2.67c.21,0,.28,0,.27.26q0,1,0,2c0,.21,0,.27-.26.26h-3c-.21,0-.3,0-.3.27,0,1.2,0,2.39,0,3.58a2.94,2.94,0,0,0,.25,1.09,1.08,1.08,0,0,0,.91.63,4.48,4.48,0,0,0,2.15-.24c.16-.06.26,0,.29.15.11.66.2,1.32.34,2,0,.18,0,.18-.15.24a7.14,7.14,0,0,1-3.45.43,3.32,3.32,0,0,1-3.24-3C125.78,45.5,126,43.66,125.91,42.16Z"/><path d="M118.06,42c0-1.51,0-3,0-4.54,0-.24.11-.31.29-.33.83-.09,1.64-.26,2.45-.39.2,0,.31,0,.3.25,0,.83,0,1.67,0,2.5,0,.21.06.26.27.26h3c.25,0,.3.07.29.3,0,.62,0,1.24,0,1.85,0,.27,0,.37-.34.36-1,0-2,0-2.93,0-.22,0-.28,0-.28.28,0,1.26,0,2.52,0,3.77a1.47,1.47,0,0,0,.75,1.45,2.59,2.59,0,0,0,1.46.11,2.56,2.56,0,0,0,.73-.15c.11,0,.18,0,.21.14a6.14,6.14,0,0,0,.72,1.94c.07.12,0,.14-.08.17a7.76,7.76,0,0,1-1.72.44,9,9,0,0,1-1.37,0,4.27,4.27,0,0,1-2.2-.61,3.26,3.26,0,0,1-1.41-2.27,9.81,9.81,0,0,1-.13-1.79Z"/><path d="M67.79,45.19c0-1.53,0-3,0-4.58,0-.27.08-.39.34-.45A19.75,19.75,0,0,1,71,39.57a10.1,10.1,0,0,1,3.38.26c.21.05.26.1.21.32-.15.68-.26,1.37-.4,2.05,0,.12-.06.22-.28.17a6.78,6.78,0,0,0-2-.29l-.72.08c-.29,0-.37.16-.37.46,0,2.39,0,4.79,0,7.19,0,.25,0,.35-.32.34-.79,0-1.57,0-2.35,0-.23,0-.31,0-.31-.29C67.8,48.3,67.79,46.74,67.79,45.19Z"/><path d="M84.33,43a4.45,4.45,0,0,0-1.06-2.15,4.79,4.79,0,0,0-4.55-1.32,4.46,4.46,0,0,0-2.84,1.68,5.48,5.48,0,0,0-1.19,3.05,7.33,7.33,0,0,0,.11,2.24,4.89,4.89,0,0,0,1,2.15,5.1,5.1,0,0,0,3.84,1.73c.08,0,.19-.06.25.06h.65c0-.11.14-.06.22-.06A9.89,9.89,0,0,0,83.51,50c.3-.09.48-.2.33-.57a2.17,2.17,0,0,1-.09-.53c-.08-.51-.17-1-.27-1.55l-.14.08-.11,0a7.5,7.5,0,0,1-3.36.35,2.38,2.38,0,0,1-2-1.3c-.25-.53-.23-.56.35-.56h5.92c.1,0,.3.09.28-.14s.06-.42.06-.63A8.49,8.49,0,0,0,84.33,43Zm-3.26.85H78c-.2,0-.27,0-.21-.25a2,2,0,0,1,1.12-1.51,1.83,1.83,0,0,1,2.57,1.22C81.63,43.87,81.63,43.87,81.07,43.87Z"/><path d="M66.25,43.36a4.83,4.83,0,0,0-1.89-3,5.3,5.3,0,0,0-3.85-.89,4.81,4.81,0,0,0-2.83,1.33,5.11,5.11,0,0,0-1.52,3.3,7,7,0,0,0,.17,2.54,4.85,4.85,0,0,0,3.88,3.66c.28,0,.57,0,.82.11h.52c.27-.14.56-.06.85-.11a4.82,4.82,0,0,0,3-1.85,6,6,0,0,0,1-3.3A6.7,6.7,0,0,0,66.25,43.36Zm-3.57,3.85a2,2,0,0,1-1.78.61,2.07,2.07,0,0,1-1.59-1.77,4.38,4.38,0,0,1,.11-2.58A1.88,1.88,0,0,1,61.24,42a1.73,1.73,0,0,1,1.67,1,4.25,4.25,0,0,1,.45,2A3.61,3.61,0,0,1,62.68,47.21Z"/><path d="M147.53,42a4.1,4.1,0,0,0-2.19-2.18,5.71,5.71,0,0,0-3.06-.31,4.34,4.34,0,0,0-2.46,1.2,5.65,5.65,0,0,0-1.68,4,7.42,7.42,0,0,0,.13,1.56,4.8,4.8,0,0,0,1.08,2.38,5.34,5.34,0,0,0,3.94,1.72,11.86,11.86,0,0,0,2.59-.2,5.38,5.38,0,0,0,1.37-.39c.09,0,.18-.07.15-.23-.14-.69-.27-1.38-.37-2.08,0-.2-.11-.2-.25-.15a6.64,6.64,0,0,1-3.66.35,2.13,2.13,0,0,1-1.78-1.43c-.08-.26-.07-.36.24-.35h3c1,0,2.06,0,3.09,0,.2,0,.29-.07.3-.26A8.54,8.54,0,0,0,147.53,42Zm-2.83,1.8h-3.21c-.11,0-.23,0-.19-.16A2,2,0,0,1,142.59,42a1.82,1.82,0,0,1,2.44,1.4C145.12,43.81,145.12,43.81,144.7,43.81Z"/></g></g></svg>