<svg xmlns="http://www.w3.org/2000/svg" viewBox="0 0 113.51 44.25"><defs><style>.cls-1{fill:#fff;}.cls-2{fill:#b70005;fill-rule:evenodd;}</style></defs><g id="Layer_2" data-name="Layer 2"><g id="Layer_1-2" data-name="Layer 1"><rect class="cls-1" width="68.33" height="12.42" rx="6.21"/><path class="cls-2" d="M6.47,11A4.83,4.83,0,1,0,1.64,6.16,4.82,4.82,0,0,0,6.47,11M5.56,7h.66c.12,0,.17,0,.21,0s0,.09,0,.21V9.4c0,.43,0,.65.09.67s.18-.17.37-.56L8.24,6.66c.29-.62.43-.93.29-1.15s-.48-.22-1.16-.22H6.71c-.12,0-.17,0-.21,0s0-.09,0-.2V2.91c0-.43,0-.65-.1-.67s-.18.18-.37.57L4.69,5.65c-.29.62-.43.93-.29,1.15S4.88,7,5.56,7"/><path d="M14.7,8.36V4.09h3V4.6H15.3V6h2.21v.5H15.3V8.36Z"/><path d="M18.41,8.36V3.86H19v4.5Z"/><path d="M21.11,8.43a1.74,1.74,0,0,1-.82-.18,1.17,1.17,0,0,1-.5-.57,2.39,2.39,0,0,1-.17-1,2.44,2.44,0,0,1,.17-1,1.16,1.16,0,0,1,.51-.56A1.74,1.74,0,0,1,21.14,5a1.54,1.54,0,0,1,.77.18,1.16,1.16,0,0,1,.47.53,2.2,2.2,0,0,1,.16.88v.26H20.18a1.87,1.87,0,0,0,.12.64.72.72,0,0,0,.31.37,1.1,1.1,0,0,0,.51.11,1,1,0,0,0,.37-.05.87.87,0,0,0,.27-.15.81.81,0,0,0,.17-.24,1.33,1.33,0,0,0,.06-.3h.53a1.06,1.06,0,0,1-.1.48.94.94,0,0,1-.27.38,1.25,1.25,0,0,1-.44.24A1.85,1.85,0,0,1,21.11,8.43Zm-.91-2H22A1.47,1.47,0,0,0,21.91,6a.73.73,0,0,0-.18-.31.77.77,0,0,0-.27-.17,1.16,1.16,0,0,0-.34,0,1.07,1.07,0,0,0-.49.1.69.69,0,0,0-.3.33A1.4,1.4,0,0,0,20.2,6.45Z"/><path d="M22.85,8.36,24,6.68l-1.12-1.6h.66l.79,1.17h0l.79-1.17h.62L24.69,6.66l1.19,1.7h-.66l-.86-1.27h0l-.86,1.27Z"/><path d="M26.39,4.47V3.86h.54v.61Zm0,3.89V5.08h.54V8.36Z"/><path d="M29.34,8.43a1.25,1.25,0,0,1-.59-.13,1.12,1.12,0,0,1-.43-.41h0l-.06.47h-.43V3.86h.54V5.49h0a1,1,0,0,1,.26-.27A.82.82,0,0,1,29,5.06a1.6,1.6,0,0,1,.39,0,1.22,1.22,0,0,1,.67.18,1.19,1.19,0,0,1,.45.55,2.61,2.61,0,0,1,.15,1,2.79,2.79,0,0,1-.15,1,1.2,1.2,0,0,1-.44.56A1.3,1.3,0,0,1,29.34,8.43ZM29.21,8a1,1,0,0,0,.47-.11A.69.69,0,0,0,30,7.47a2.08,2.08,0,0,0,.1-.68V6.66A1.78,1.78,0,0,0,30,6a.7.7,0,0,0-.28-.38,1,1,0,0,0-.5-.12,1.14,1.14,0,0,0-.33,0,.86.86,0,0,0-.28.2.87.87,0,0,0-.18.36,1.93,1.93,0,0,0-.07.57v.1a2,2,0,0,0,.09.65.78.78,0,0,0,.29.39A.8.8,0,0,0,29.21,8Z"/><path d="M31.31,8.36V3.86h.55v4.5Z"/><path d="M34,8.43a1.69,1.69,0,0,1-.82-.18,1.17,1.17,0,0,1-.5-.57,2.22,2.22,0,0,1-.18-1,2.27,2.27,0,0,1,.18-1,1.19,1.19,0,0,1,.5-.56A1.8,1.8,0,0,1,34,5a1.49,1.49,0,0,1,.77.18,1.06,1.06,0,0,1,.47.53,2,2,0,0,1,.16.88v.26H33.09a1.87,1.87,0,0,0,.12.64.7.7,0,0,0,.3.37A1.14,1.14,0,0,0,34,8a1.07,1.07,0,0,0,.37-.05,1,1,0,0,0,.27-.15.63.63,0,0,0,.16-.24.73.73,0,0,0,.06-.3h.54a1.21,1.21,0,0,1-.1.48.94.94,0,0,1-.27.38,1.21,1.21,0,0,1-.45.24A1.78,1.78,0,0,1,34,8.43Zm-.92-2h1.78A1.44,1.44,0,0,0,34.81,6a.83.83,0,0,0-.17-.31.77.77,0,0,0-.27-.17,1.23,1.23,0,0,0-.35,0,1,1,0,0,0-.48.1.71.71,0,0,0-.31.33A1.59,1.59,0,0,0,33.1,6.45Z"/><path d="M37.55,8.36V5.54h-.49V5.08h.49V4.56a1,1,0,0,1,.06-.36.45.45,0,0,1,.21-.28.76.76,0,0,1,.43-.11h.17l.17,0,.14,0v.39H38.4a.3.3,0,0,0-.23.08.29.29,0,0,0-.07.22v.51h.63v.46H38.1V8.36Zm1.61-3.89V3.86h.55v.61Zm0,3.89V5.08h.55V8.36Z"/><path d="M40.57,8.36V3.86h.54v4.5Z"/><path d="M42.73,8.43a.68.68,0,0,1-.4-.1.5.5,0,0,1-.2-.25,1,1,0,0,1-.06-.34V5.54h-.43V5.08h.44l.1-.91h.43v.91h.62v.46h-.62V7.66a.37.37,0,0,0,.06.23.26.26,0,0,0,.21.08h.35v.36l-.15.05-.18,0Z"/><path d="M45.12,8.43a1.71,1.71,0,0,1-.82-.18,1.17,1.17,0,0,1-.5-.57,2.23,2.23,0,0,1-.17-1,2.28,2.28,0,0,1,.17-1,1.16,1.16,0,0,1,.51-.56A1.74,1.74,0,0,1,45.15,5a1.54,1.54,0,0,1,.77.18,1.16,1.16,0,0,1,.47.53,2.21,2.21,0,0,1,.15.88v.26H44.19a1.87,1.87,0,0,0,.12.64.72.72,0,0,0,.31.37,1.1,1.1,0,0,0,.51.11,1,1,0,0,0,.37-.05.87.87,0,0,0,.27-.15.63.63,0,0,0,.16-.24.94.94,0,0,0,.07-.3h.53a1.21,1.21,0,0,1-.1.48.94.94,0,0,1-.27.38,1.25,1.25,0,0,1-.44.24A1.89,1.89,0,0,1,45.12,8.43Zm-.91-2H46A1.47,1.47,0,0,0,45.92,6a.85.85,0,0,0-.18-.31.77.77,0,0,0-.27-.17,1.21,1.21,0,0,0-.34,0,1,1,0,0,0-.49.1.69.69,0,0,0-.3.33A1.4,1.4,0,0,0,44.21,6.45Z"/><path d="M47.22,8.36V5.08h.44l.05.55h0a1.36,1.36,0,0,1,.13-.3.76.76,0,0,1,.24-.23A.7.7,0,0,1,48.5,5a.47.47,0,0,1,.17,0l.11,0v.5h-.2a1.06,1.06,0,0,0-.37.07.72.72,0,0,0-.25.21.89.89,0,0,0-.14.31,1.2,1.2,0,0,0,0,.38V8.36Z"/><path d="M51.61,8.43A2.08,2.08,0,0,1,51,8.36a1.07,1.07,0,0,1-.43-.2.84.84,0,0,1-.25-.31.91.91,0,0,1-.09-.41V7.38s0,0,0,0h.54a.06.06,0,0,0,0,0v0a.52.52,0,0,0,.12.34.55.55,0,0,0,.3.17,1.45,1.45,0,0,0,.43.05A1.2,1.2,0,0,0,52,7.93a.65.65,0,0,0,.27-.16.39.39,0,0,0,.11-.28.37.37,0,0,0-.14-.31A.82.82,0,0,0,51.91,7l-.45-.13-.4-.13a1.49,1.49,0,0,1-.36-.17.75.75,0,0,1-.25-.25.73.73,0,0,1-.1-.41.79.79,0,0,1,.09-.38.89.89,0,0,1,.26-.29,1,1,0,0,1,.41-.17A2.15,2.15,0,0,1,51.64,5a2.12,2.12,0,0,1,.54.06,1,1,0,0,1,.39.2.77.77,0,0,1,.23.28.81.81,0,0,1,.08.34V6a.43.43,0,0,1,0,0h-.54V6a.44.44,0,0,0-.28-.42,1.1,1.1,0,0,0-.44-.07,1.35,1.35,0,0,0-.31,0,.48.48,0,0,0-.22.08.43.43,0,0,0-.13.14.35.35,0,0,0-.05.18.33.33,0,0,0,.11.25,1,1,0,0,0,.28.14l.39.12.44.13a1.94,1.94,0,0,1,.42.17.77.77,0,0,1,.3.27.75.75,0,0,1,.12.45,1.06,1.06,0,0,1-.1.45.81.81,0,0,1-.29.32,1.33,1.33,0,0,1-.42.18A2.35,2.35,0,0,1,51.61,8.43Z"/><path d="M54.94,8.43a1.71,1.71,0,0,1-.82-.18,1.17,1.17,0,0,1-.5-.57,2.23,2.23,0,0,1-.17-1,2.28,2.28,0,0,1,.17-1,1.16,1.16,0,0,1,.51-.56A1.74,1.74,0,0,1,55,5a1.54,1.54,0,0,1,.77.18,1.16,1.16,0,0,1,.47.53,2.2,2.2,0,0,1,.16.88v.26H54a1.87,1.87,0,0,0,.12.64.72.72,0,0,0,.31.37A1.1,1.1,0,0,0,55,8a1,1,0,0,0,.37-.05.87.87,0,0,0,.27-.15.81.81,0,0,0,.17-.24,1.33,1.33,0,0,0,.06-.3h.53a1.06,1.06,0,0,1-.1.48A.94.94,0,0,1,56,8.1a1.25,1.25,0,0,1-.44.24A1.89,1.89,0,0,1,54.94,8.43Zm-.91-2H55.8A1.47,1.47,0,0,0,55.74,6a.73.73,0,0,0-.18-.31.77.77,0,0,0-.27-.17,1.16,1.16,0,0,0-.34,0,1,1,0,0,0-.49.1.69.69,0,0,0-.3.33A1.4,1.4,0,0,0,54,6.45Z"/><path d="M57.81,8.43a.68.68,0,0,1-.4-.1.52.52,0,0,1-.21-.25,1,1,0,0,1-.06-.34V5.54h-.42V5.08h.44l.09-.91h.44v.91h.62v.46h-.62V7.66a.37.37,0,0,0,.06.23A.23.23,0,0,0,58,8h.35v.36l-.15.05-.18,0Z"/><path d="M60,8.43a2.12,2.12,0,0,1-.59-.07,1,1,0,0,1-.42-.2.75.75,0,0,1-.25-.31.91.91,0,0,1-.09-.41V7.38s0,0,0,0h.54a.06.06,0,0,0,0,0v0a.47.47,0,0,0,.12.34.55.55,0,0,0,.3.17,1.45,1.45,0,0,0,.43.05,1.2,1.2,0,0,0,.38-.05.72.72,0,0,0,.27-.16.39.39,0,0,0,.11-.28.37.37,0,0,0-.14-.31A.88.88,0,0,0,60.34,7l-.45-.13-.4-.13a1.49,1.49,0,0,1-.36-.17.67.67,0,0,1-.25-.25.73.73,0,0,1-.1-.41.79.79,0,0,1,.35-.67,1,1,0,0,1,.4-.17,2.46,2.46,0,0,1,1.08,0,1,1,0,0,1,.39.2.77.77,0,0,1,.23.28.8.8,0,0,1,.07.34V6h-.54V6a.46.46,0,0,0-.06-.23.49.49,0,0,0-.23-.19A1,1,0,0,0,60,5.46a1.42,1.42,0,0,0-.31,0,.44.44,0,0,0-.21.08.34.34,0,0,0-.13.14.35.35,0,0,0-.05.18.33.33,0,0,0,.11.25,1,1,0,0,0,.28.14l.38.12.45.13A1.68,1.68,0,0,1,61,6.7a.74.74,0,0,1,.31.27.75.75,0,0,1,.11.45,1.06,1.06,0,0,1-.09.45.89.89,0,0,1-.29.32,1.3,1.3,0,0,1-.43.18A2.23,2.23,0,0,1,60,8.43Z"/><rect class="cls-1" y="15.91" width="113.51" height="12.42" rx="6.21"/><path class="cls-2" d="M6.47,26.9a4.83,4.83,0,1,0-4.83-4.83A4.83,4.83,0,0,0,6.47,26.9m-.91-4h.66c.12,0,.17,0,.21,0s0,.09,0,.21v2.14c0,.43,0,.64.09.66s.18-.17.37-.56l1.31-2.85c.29-.62.43-.92.29-1.15s-.48-.22-1.16-.22H6.71c-.12,0-.17,0-.21,0s0-.09,0-.2V18.82c0-.43,0-.64-.1-.67s-.18.18-.37.57L4.69,21.57c-.29.61-.43.92-.29,1.14s.48.23,1.16.23"/><path d="M15.89,24.27V23.8H17V20.85H15.88V20.5a4.64,4.64,0,0,0,.48-.07,2.26,2.26,0,0,0,.48-.16,1.52,1.52,0,0,0,.43-.28h.25V23.8h1v.47Z"/><path d="M20.51,24.34a1.75,1.75,0,0,1-.78-.16,1.29,1.29,0,0,1-.52-.49,1.39,1.39,0,0,1-.19-.75h.55a1,1,0,0,0,.13.51.75.75,0,0,0,.34.32.93.93,0,0,0,.47.11,1,1,0,0,0,.48-.11.79.79,0,0,0,.32-.33,1.33,1.33,0,0,0,.11-.56,1.15,1.15,0,0,0-.1-.52.69.69,0,0,0-.31-.3.93.93,0,0,0-.45-.1,1,1,0,0,0-.35.06.9.9,0,0,0-.3.17.7.7,0,0,0-.22.26l-.52-.08L19.35,20h2.42v.51H19.83l-.1,1.33a1.46,1.46,0,0,1,.24-.17,1.25,1.25,0,0,1,.31-.12,1.56,1.56,0,0,1,.4-.05,1.59,1.59,0,0,1,.66.14,1.07,1.07,0,0,1,.47.45,1.44,1.44,0,0,1,.18.77,1.66,1.66,0,0,1-.18.8,1.25,1.25,0,0,1-.51.51A1.62,1.62,0,0,1,20.51,24.34Z"/><path d="M24.05,24.34a1.68,1.68,0,0,1-.62-.1,1.08,1.08,0,0,1-.47-.35,1.7,1.7,0,0,1-.29-.68,5.83,5.83,0,0,1,0-2.15,1.7,1.7,0,0,1,.29-.68,1.08,1.08,0,0,1,.47-.35,1.68,1.68,0,0,1,.62-.1,1.72,1.72,0,0,1,.62.1,1.11,1.11,0,0,1,.46.35,1.7,1.7,0,0,1,.29.68,5.83,5.83,0,0,1,0,2.15,1.7,1.7,0,0,1-.29.68,1.11,1.11,0,0,1-.46.35A1.72,1.72,0,0,1,24.05,24.34Zm0-.46a.79.79,0,0,0,.55-.18,1,1,0,0,0,.27-.53,4.37,4.37,0,0,0,.08-.89V22a4.3,4.3,0,0,0-.08-.89,1,1,0,0,0-.27-.54.79.79,0,0,0-.55-.18.82.82,0,0,0-.56.18,1,1,0,0,0-.27.53,4.44,4.44,0,0,0-.08.89v.28a4.44,4.44,0,0,0,.08.89,1,1,0,0,0,.27.54A.82.82,0,0,0,24.05,23.88Z"/><path d="M28.32,24.34a.76.76,0,0,1-.4-.09.57.57,0,0,1-.2-.26.94.94,0,0,1-.07-.34V21.46h-.42V21h.44l.1-.92h.43V21h.62v.46H28.2v2.11a.4.4,0,0,0,.06.24c0,.05.11.07.21.07h.35v.36a.53.53,0,0,1-.15.05l-.18,0Z"/><path d="M30.75,24.34a1.74,1.74,0,0,1-.84-.18,1.18,1.18,0,0,1-.52-.56,2.31,2.31,0,0,1-.17-1,2.23,2.23,0,0,1,.17-1,1.14,1.14,0,0,1,.52-.56,1.93,1.93,0,0,1,1.67,0,1.14,1.14,0,0,1,.52.56,2.39,2.39,0,0,1,.17,1,2.48,2.48,0,0,1-.17,1,1.18,1.18,0,0,1-.52.56A1.73,1.73,0,0,1,30.75,24.34Zm0-.46a1,1,0,0,0,.52-.12.7.7,0,0,0,.32-.39,1.65,1.65,0,0,0,.11-.67v-.14a1.65,1.65,0,0,0-.11-.67.71.71,0,0,0-.32-.38.93.93,0,0,0-.52-.13,1,1,0,0,0-.54.13.76.76,0,0,0-.32.38,1.86,1.86,0,0,0-.1.67v.14a1.86,1.86,0,0,0,.1.67.74.74,0,0,0,.32.39A1.11,1.11,0,0,0,30.75,23.88Z"/><path d="M34.13,24.27v-.18a1.06,1.06,0,0,1,.1-.48,1.42,1.42,0,0,1,.28-.41,3.22,3.22,0,0,1,.38-.35l.45-.33c.2-.14.39-.28.56-.42a1.94,1.94,0,0,0,.41-.46,1,1,0,0,0,.16-.55.68.68,0,0,0-.09-.35.6.6,0,0,0-.27-.25.92.92,0,0,0-.46-.1,1,1,0,0,0-.53.12.68.68,0,0,0-.29.29,1,1,0,0,0-.09.42v.25H34.2a.25.25,0,0,1,0-.1.66.66,0,0,1,0-.15,1.27,1.27,0,0,1,.2-.74,1.22,1.22,0,0,1,.55-.42,2,2,0,0,1,.74-.13,1.82,1.82,0,0,1,.61.09,1.27,1.27,0,0,1,.42.27.93.93,0,0,1,.25.38,1.12,1.12,0,0,1,.08.45,1.37,1.37,0,0,1-.1.54,1.78,1.78,0,0,1-.28.45,4.15,4.15,0,0,1-.43.4c-.17.13-.34.26-.54.39l-.39.28a1.9,1.9,0,0,0-.33.29.68.68,0,0,0-.17.29h2.27v.51Z"/><path d="M39.13,24.34a1.72,1.72,0,0,1-.62-.1,1.14,1.14,0,0,1-.47-.35,1.86,1.86,0,0,1-.29-.68,5.83,5.83,0,0,1,0-2.15,1.86,1.86,0,0,1,.29-.68,1.14,1.14,0,0,1,.47-.35,2,2,0,0,1,1.24,0,1.11,1.11,0,0,1,.46.35,1.7,1.7,0,0,1,.29.68,5.83,5.83,0,0,1,0,2.15,1.7,1.7,0,0,1-.29.68,1.11,1.11,0,0,1-.46.35A1.72,1.72,0,0,1,39.13,24.34Zm0-.46a.78.78,0,0,0,.55-.18,1,1,0,0,0,.27-.53,3.75,3.75,0,0,0,.08-.89V22a3.7,3.7,0,0,0-.08-.89,1,1,0,0,0-.27-.54.93.93,0,0,0-1.1,0,.93.93,0,0,0-.28.53,4.44,4.44,0,0,0-.08.89v.28a4.44,4.44,0,0,0,.08.89.93.93,0,0,0,.28.54A.78.78,0,0,0,39.13,23.88Z"/><path d="M42.69,24.34a1.72,1.72,0,0,1-.62-.1,1.05,1.05,0,0,1-.46-.35,1.86,1.86,0,0,1-.3-.68,5.83,5.83,0,0,1,0-2.15,1.86,1.86,0,0,1,.3-.68,1.05,1.05,0,0,1,.46-.35,1.72,1.72,0,0,1,.62-.1,1.68,1.68,0,0,1,.62.1,1.14,1.14,0,0,1,.47.35,2,2,0,0,1,.29.68,5.83,5.83,0,0,1,0,2.15,2,2,0,0,1-.29.68,1.14,1.14,0,0,1-.47.35A1.68,1.68,0,0,1,42.69,24.34Zm0-.46a.78.78,0,0,0,.55-.18,1,1,0,0,0,.28-.53,4.37,4.37,0,0,0,.08-.89V22a4.3,4.3,0,0,0-.08-.89,1,1,0,0,0-.28-.54.78.78,0,0,0-.55-.18.79.79,0,0,0-.55.18,1.07,1.07,0,0,0-.28.53,4.52,4.52,0,0,0-.07.89v.28a4.52,4.52,0,0,0,.07.89,1.06,1.06,0,0,0,.28.54A.79.79,0,0,0,42.69,23.88Z"/><path d="M46.26,24.34a1.72,1.72,0,0,1-.62-.1,1.08,1.08,0,0,1-.47-.35,1.7,1.7,0,0,1-.29-.68,5.83,5.83,0,0,1,0-2.15,1.7,1.7,0,0,1,.29-.68,1.08,1.08,0,0,1,.47-.35,2,2,0,0,1,1.24,0,1.11,1.11,0,0,1,.46.35,1.7,1.7,0,0,1,.29.68,5.83,5.83,0,0,1,0,2.15,1.7,1.7,0,0,1-.29.68,1.11,1.11,0,0,1-.46.35A1.72,1.72,0,0,1,46.26,24.34Zm0-.46a.79.79,0,0,0,.55-.18,1,1,0,0,0,.27-.53,4.37,4.37,0,0,0,.08-.89V22a4.3,4.3,0,0,0-.08-.89,1,1,0,0,0-.27-.54.79.79,0,0,0-.55-.18.82.82,0,0,0-.56.18,1,1,0,0,0-.27.53,4.44,4.44,0,0,0-.08.89v.28a4.44,4.44,0,0,0,.08.89,1,1,0,0,0,.27.54A.82.82,0,0,0,46.26,23.88Z"/><path d="M49.75,24.27V22.92H48.51v-.47h1.24V21.09h.46v1.36h1.24v.47H50.21v1.35Z"/><path d="M55.58,24.34a2.39,2.39,0,0,1-1.11-.24,1.6,1.6,0,0,1-.69-.72,2.83,2.83,0,0,1-.24-1.24,2.3,2.3,0,0,1,.54-1.67,2.05,2.05,0,0,1,1.51-.54,2.66,2.66,0,0,1,1,.17,1.47,1.47,0,0,1,.66.54,1.59,1.59,0,0,1,.24.9h-.6a1.08,1.08,0,0,0-.16-.62.93.93,0,0,0-.44-.36,1.71,1.71,0,0,0-.67-.12,1.65,1.65,0,0,0-.77.17,1.12,1.12,0,0,0-.49.54,2.11,2.11,0,0,0-.17.94v.13a2.07,2.07,0,0,0,.17.92,1.13,1.13,0,0,0,.48.53,1.73,1.73,0,0,0,.78.16,2.08,2.08,0,0,0,.69-.11.89.89,0,0,0,.44-.37,1.08,1.08,0,0,0,.16-.62h.58a1.53,1.53,0,0,1-.25.91,1.45,1.45,0,0,1-.66.53A2.5,2.5,0,0,1,55.58,24.34Z"/><path d="M58.29,24.27V20h3v.51H58.88v1.37h2.21v.5H58.88v1.89Z"/><path d="M62.09,24.27V20H63l1,2.77.08.25.07.25c0,.08,0,.14.05.2h0c0-.06,0-.13,0-.21a2.33,2.33,0,0,1,.07-.25l.06-.24,1-2.77h.91v4.27H65.7v-2.5c0-.13,0-.27,0-.42s0-.29,0-.42,0-.21,0-.27h0l-.07.23a1.71,1.71,0,0,1-.09.3c0,.11,0,.2-.08.29l-1,2.79h-.51l-1-2.79c0-.07,0-.16-.08-.25s-.05-.19-.08-.29-.05-.19-.08-.28h0c0,.09,0,.21,0,.34v.4c0,.14,0,.26,0,.37v2.5Z"/><path d="M69.38,24.34a1.47,1.47,0,0,1-.36,0,1.28,1.28,0,0,1-.34-.14.76.76,0,0,1-.25-.28,1,1,0,0,1-.09-.44.91.91,0,0,1,.16-.56,1.12,1.12,0,0,1,.45-.34,2.9,2.9,0,0,1,.69-.17,7.64,7.64,0,0,1,.86,0V22a.75.75,0,0,0-.06-.31.44.44,0,0,0-.22-.2,1.48,1.48,0,0,0-.9,0,.49.49,0,0,0-.23.19.48.48,0,0,0-.06.24V22H68.5s0,0,0-.06v-.08a.76.76,0,0,1,.17-.5.89.89,0,0,1,.46-.3,2.08,2.08,0,0,1,.69-.11,1.69,1.69,0,0,1,.68.12.85.85,0,0,1,.42.34,1,1,0,0,1,.14.52v1.77a.21.21,0,0,0,.06.17.18.18,0,0,0,.13,0h.25v.36l-.2.07a.88.88,0,0,1-.24,0,.45.45,0,0,1-.27-.07.4.4,0,0,1-.16-.18.66.66,0,0,1-.07-.26h0a.9.9,0,0,1-.28.27,1.21,1.21,0,0,1-.38.18A1.7,1.7,0,0,1,69.38,24.34Zm.13-.46a1.16,1.16,0,0,0,.38-.06.87.87,0,0,0,.31-.18.71.71,0,0,0,.22-.27A.73.73,0,0,0,70.5,23v-.27a7,7,0,0,0-.86.05,1.36,1.36,0,0,0-.54.2.48.48,0,0,0-.19.41.46.46,0,0,0,.08.27.42.42,0,0,0,.21.16A.75.75,0,0,0,69.51,23.88Z"/><path d="M72,20.38v-.61h.54v.61Zm0,3.89V21h.54v3.27Z"/><path d="M73.35,24.27V21h.44l0,.54h0a1.17,1.17,0,0,1,.14-.3.65.65,0,0,1,.6-.32l.17,0,.12,0v.51H74.7a.8.8,0,0,0-.36.07.62.62,0,0,0-.25.2.81.81,0,0,0-.15.31,1.6,1.6,0,0,0,0,.39v1.82Z"/><path d="M75.54,24.27V21.46h-.48V21h.48v-.53a1.09,1.09,0,0,1,.06-.36.53.53,0,0,1,.21-.28.76.76,0,0,1,.43-.11h.18l.16,0,.14,0v.39h-.33a.3.3,0,0,0-.23.08.31.31,0,0,0-.07.22V21h.63v.46h-.63v2.81Zm1.61,0v-4.5h.55v4.5Z"/><path d="M79.9,24.34a1.8,1.8,0,0,1-.84-.18,1.21,1.21,0,0,1-.51-.56,2.3,2.3,0,0,1-.18-1,2.22,2.22,0,0,1,.18-1,1.17,1.17,0,0,1,.51-.56,2,2,0,0,1,1.68,0,1.17,1.17,0,0,1,.51.56,2.22,2.22,0,0,1,.18,1,2.3,2.3,0,0,1-.18,1,1.21,1.21,0,0,1-.51.56A1.8,1.8,0,0,1,79.9,24.34Zm0-.46a1.07,1.07,0,0,0,.53-.12.74.74,0,0,0,.32-.39,1.84,1.84,0,0,0,.11-.67v-.14a1.84,1.84,0,0,0-.11-.67.76.76,0,0,0-.32-.38,1.15,1.15,0,0,0-1.06,0,.76.76,0,0,0-.32.38,1.84,1.84,0,0,0-.11.67v.14a1.84,1.84,0,0,0,.11.67.74.74,0,0,0,.32.39A1.07,1.07,0,0,0,79.9,23.88Z"/><path d="M82.7,24.27l-1-3.27h.57l.49,1.79c0,.09,0,.19.08.29l.06.28a1.37,1.37,0,0,1,0,.19h0c0-.08,0-.16.06-.26l.06-.29a1.65,1.65,0,0,1,0-.21L83.61,21h.6l.45,1.79c0,.07,0,.15.06.24l.06.28c0,.09,0,.17,0,.24h0c0-.06,0-.14.06-.23a2.68,2.68,0,0,1,.07-.27c0-.1.05-.18.07-.25l.49-1.8h.52l-1,3.27h-.56l-.42-1.69L84,22.3c0-.11,0-.21-.07-.32s0-.21-.06-.29h0c0,.06,0,.14,0,.23s0,.2-.07.32a2.14,2.14,0,0,1-.09.34l-.42,1.69Z"/><path d="M88.73,24.27,87.52,21h.57l.6,1.63.1.3.12.36c0,.12.07.23.09.33h0l.1-.32.12-.37c0-.11.07-.21.1-.3L89.94,21h.55l-1.21,3.27Z"/><path d="M92.32,24.34a1.77,1.77,0,0,1-.84-.18A1.18,1.18,0,0,1,91,23.6a2.48,2.48,0,0,1-.17-1,2.39,2.39,0,0,1,.17-1,1.14,1.14,0,0,1,.52-.56,1.66,1.66,0,0,1,.84-.19,1.62,1.62,0,0,1,.83.19,1.14,1.14,0,0,1,.52.56,2.39,2.39,0,0,1,.17,1,2.48,2.48,0,0,1-.17,1,1.18,1.18,0,0,1-.52.56A1.73,1.73,0,0,1,92.32,24.34Zm0-.46a1.09,1.09,0,0,0,.53-.12.79.79,0,0,0,.32-.39,1.86,1.86,0,0,0,.1-.67v-.14a1.86,1.86,0,0,0-.1-.67.81.81,0,0,0-.32-.38,1,1,0,0,0-.53-.13,1,1,0,0,0-.53.13.73.73,0,0,0-.33.38,1.86,1.86,0,0,0-.1.67v.14a1.86,1.86,0,0,0,.1.67.72.72,0,0,0,.33.39A1.07,1.07,0,0,0,92.32,23.88Z"/><path d="M94.52,24.27v-4.5h.55v4.5Z"/><path d="M96.93,24.34a1.15,1.15,0,0,1-.76-.24,1,1,0,0,1-.28-.84V21h.54v2.18a1.06,1.06,0,0,0,0,.34.54.54,0,0,0,.37.31,1.12,1.12,0,0,0,.27,0,.93.93,0,0,0,.44-.11,1,1,0,0,0,.33-.33,1,1,0,0,0,.12-.5V21h.55v3.27h-.44l-.05-.49h0a1.32,1.32,0,0,1-.3.32,1,1,0,0,1-.37.18A1.49,1.49,0,0,1,96.93,24.34Z"/><path d="M99.41,24.27V21h.45l0,.49h0a1.1,1.1,0,0,1,.28-.32,1,1,0,0,1,.34-.19,1.29,1.29,0,0,1,.4-.06,1,1,0,0,1,.55.13.74.74,0,0,1,.34.44h0a1.1,1.1,0,0,1,.28-.32,1.11,1.11,0,0,1,.75-.25,1.25,1.25,0,0,1,.53.11.74.74,0,0,1,.35.33,1.38,1.38,0,0,1,.13.63v2.28h-.55v-2.2a1,1,0,0,0,0-.33.46.46,0,0,0-.13-.2.54.54,0,0,0-.2-.1,1,1,0,0,0-.25,0,.69.69,0,0,0-.4.11.85.85,0,0,0-.3.32,1.13,1.13,0,0,0-.11.51v1.92h-.55v-2.2a.82.82,0,0,0-.05-.33.46.46,0,0,0-.13-.2.44.44,0,0,0-.19-.1,1,1,0,0,0-.24,0,.78.78,0,0,0-.42.11.85.85,0,0,0-.3.32,1.13,1.13,0,0,0-.11.51v1.92Z"/><path d="M106.07,24.34a1.71,1.71,0,0,1-.82-.18,1.15,1.15,0,0,1-.5-.56,2.31,2.31,0,0,1-.17-1,2.23,2.23,0,0,1,.17-1,1.1,1.1,0,0,1,.5-.56,1.68,1.68,0,0,1,.84-.19,1.49,1.49,0,0,1,.77.18,1.06,1.06,0,0,1,.47.53,2.07,2.07,0,0,1,.16.88v.26h-2.35a1.82,1.82,0,0,0,.12.64.72.72,0,0,0,.31.37,1,1,0,0,0,.51.12,1,1,0,0,0,.37-.06.59.59,0,0,0,.27-.15.63.63,0,0,0,.16-.24,1,1,0,0,0,.07-.29h.53a1.29,1.29,0,0,1-.1.48,1,1,0,0,1-.27.37,1.26,1.26,0,0,1-.44.25A2.23,2.23,0,0,1,106.07,24.34Zm-.92-2h1.78a1.24,1.24,0,0,0-.07-.46.83.83,0,0,0-.17-.31,1,1,0,0,0-.27-.17,1.21,1.21,0,0,0-.34-.05,1,1,0,0,0-.49.11.67.67,0,0,0-.3.32A1.39,1.39,0,0,0,105.15,22.36Z"/><rect class="cls-1" y="31.83" width="112.01" height="12.42" rx="6.21"/><path class="cls-2" d="M6.47,42.81A4.83,4.83,0,1,0,1.64,38a4.82,4.82,0,0,0,4.83,4.83m-.91-4h.66c.12,0,.17,0,.21,0s0,.09,0,.2v2.14c0,.43,0,.64.09.67s.18-.18.37-.57l1.31-2.85c.29-.61.43-.92.29-1.14s-.48-.23-1.16-.23H6.71c-.12,0-.17,0-.21,0s0-.09,0-.21V34.73c0-.43,0-.64-.1-.66s-.18.17-.37.56L4.69,37.48c-.29.62-.43.92-.29,1.15s.48.22,1.16.22"/><path d="M14.7,40.18V35.92h.6v1.82h2.32V35.92h.59v4.26h-.59V38.26H15.3v1.92Z"/><path d="M19.28,40.18V35.92h3.29v.51h-2.7v1.31h2.42v.51H19.87v1.42H22.6v.51Z"/><path d="M23.49,40.18V35.92H25.6a1.5,1.5,0,0,1,.74.16,1,1,0,0,1,.43.46,1.45,1.45,0,0,1,.15.68,1.41,1.41,0,0,1-.16.69,1.16,1.16,0,0,1-.46.47,1.42,1.42,0,0,1-.7.17H24.08v1.63ZM24.08,38h1.48a.73.73,0,0,0,.55-.22.84.84,0,0,0,.21-.6,1.1,1.1,0,0,0-.08-.43.75.75,0,0,0-.26-.27.87.87,0,0,0-.42-.09H24.08Z"/><path d="M26.83,40.18l1.68-4.26h.78L31,40.18h-.64l-.42-1.06H27.85l-.41,1.06ZM28,38.62h1.69l-.52-1.34a1.14,1.14,0,0,0-.06-.15c0-.07,0-.14-.08-.22a2.41,2.41,0,0,1-.08-.25c0-.09-.06-.16-.09-.23h0l-.1.28c0,.11-.08.21-.11.32l-.1.25Z"/><path d="M32.86,40.18V35.92h3v.51H33.45v1.36h2.22v.51H33.45v1.88Z"/><path d="M36.56,36.29v-.6h.55v.6Zm0,3.89V36.91h.55v3.27Z"/><path d="M38,40.18V35.69h.55v4.49Z"/><path d="M40.13,40.26a.74.74,0,0,1-.4-.1.51.51,0,0,1-.21-.25,1,1,0,0,1-.06-.34v-2.2H39v-.46h.43l.1-.91H40v.91h.61v.46H40v2.12a.46.46,0,0,0,.05.23.27.27,0,0,0,.22.08h.34v.36l-.15.05-.17,0Z"/><path d="M41.21,40.18V36.91h.44l.05.54h0a1.55,1.55,0,0,1,.14-.29.66.66,0,0,1,.24-.23.69.69,0,0,1,.36-.09h.17a.28.28,0,0,1,.12,0v.5h-.21a.8.8,0,0,0-.36.07.71.71,0,0,0-.25.2.81.81,0,0,0-.15.31,1.6,1.6,0,0,0,0,.39v1.82Z"/><path d="M44,40.26a1.49,1.49,0,0,1-.36,0,1.11,1.11,0,0,1-.34-.14.73.73,0,0,1-.24-.28.82.82,0,0,1-.1-.44.92.92,0,0,1,.16-.55,1,1,0,0,1,.46-.34,2.5,2.5,0,0,1,.68-.17,7.85,7.85,0,0,1,.87,0v-.37a.71.71,0,0,0-.06-.31.42.42,0,0,0-.23-.2,1,1,0,0,0-.45-.08,1.08,1.08,0,0,0-.44.08.39.39,0,0,0-.23.18.43.43,0,0,0-.07.25v.09h-.53v-.14a.79.79,0,0,1,.16-.5,1.06,1.06,0,0,1,.47-.3,2,2,0,0,1,.68-.1,2,2,0,0,1,.69.11.87.87,0,0,1,.41.34.88.88,0,0,1,.14.52v1.78a.2.2,0,0,0,.06.16.22.22,0,0,0,.14,0h.24v.36l-.19.06a.9.9,0,0,1-.25,0,.44.44,0,0,1-.26-.07.35.35,0,0,1-.16-.18.67.67,0,0,1-.08-.25h0a1.26,1.26,0,0,1-.29.27,1.46,1.46,0,0,1-.38.17A1.35,1.35,0,0,1,44,40.26Zm.14-.46a.9.9,0,0,0,.37-.07,1.09,1.09,0,0,0,.32-.17,1,1,0,0,0,.22-.28.85.85,0,0,0,.08-.35v-.28a5.26,5.26,0,0,0-.86.06,1.22,1.22,0,0,0-.55.2.48.48,0,0,0-.19.4.51.51,0,0,0,.08.28.41.41,0,0,0,.21.15A.79.79,0,0,0,44.17,39.8Z"/><path d="M47.37,40.26a.74.74,0,0,1-.4-.1.51.51,0,0,1-.21-.25,1,1,0,0,1-.06-.34v-2.2h-.42v-.46h.43l.1-.91h.44v.91h.61v.46h-.61v2.12a.46.46,0,0,0,0,.23.27.27,0,0,0,.22.08h.34v.36l-.15.05-.17,0Z"/><path d="M48.45,36.29v-.6H49v.6Zm0,3.89V36.91H49v3.27Z"/><path d="M51.19,40.26a1.68,1.68,0,0,1-.84-.19,1.21,1.21,0,0,1-.51-.56,2.68,2.68,0,0,1,0-1.93,1.21,1.21,0,0,1,.51-.56A2.05,2.05,0,0,1,52,37a1.21,1.21,0,0,1,.51.56,2.82,2.82,0,0,1,0,1.93,1.21,1.21,0,0,1-.51.56A1.68,1.68,0,0,1,51.19,40.26Zm0-.46a1.06,1.06,0,0,0,.53-.13.74.74,0,0,0,.32-.39,1.8,1.8,0,0,0,.11-.67v-.13a1.76,1.76,0,0,0-.11-.67.74.74,0,0,0-.32-.39,1.23,1.23,0,0,0-1.06,0,.74.74,0,0,0-.32.39,1.76,1.76,0,0,0-.11.67v.13a1.8,1.8,0,0,0,.11.67.74.74,0,0,0,.32.39A1.06,1.06,0,0,0,51.19,39.8Z"/><path d="M53.39,40.18V36.91h.44l.05.49h0a1.12,1.12,0,0,1,.29-.32,1.18,1.18,0,0,1,.37-.19,2,2,0,0,1,.43,0,1.35,1.35,0,0,1,.55.1.84.84,0,0,1,.36.34,1.29,1.29,0,0,1,.14.64v2.26h-.55V38a1.06,1.06,0,0,0-.05-.34.62.62,0,0,0-.15-.2.53.53,0,0,0-.21-.11,1.29,1.29,0,0,0-.29,0,.92.92,0,0,0-.43.11.87.87,0,0,0-.33.33,1,1,0,0,0-.12.5v1.92Z"/><path d="M59.48,40.26a1.41,1.41,0,0,1-.75-.18,1,1,0,0,1-.41-.47,1.6,1.6,0,0,1-.13-.67h.56a1.34,1.34,0,0,0,.08.48.57.57,0,0,0,.25.28.83.83,0,0,0,.43.1.82.82,0,0,0,.58-.2,1.09,1.09,0,0,0,.28-.57,5.33,5.33,0,0,0,.09-.89,1.16,1.16,0,0,1-.24.26,1.5,1.5,0,0,1-.38.19,1.39,1.39,0,0,1-.46.07,1.47,1.47,0,0,1-.76-.18,1.12,1.12,0,0,1-.44-.5,1.64,1.64,0,0,1-.15-.71,1.39,1.39,0,0,1,.19-.75,1.23,1.23,0,0,1,.51-.5,1.46,1.46,0,0,1,.73-.18,2,2,0,0,1,.66.11,1.12,1.12,0,0,1,.49.34,1.66,1.66,0,0,1,.31.64,4,4,0,0,1,.1,1,5,5,0,0,1-.1,1.11,2,2,0,0,1-.3.71,1.26,1.26,0,0,1-.49.4A1.67,1.67,0,0,1,59.48,40.26Zm0-2a.88.88,0,0,0,.51-.13.73.73,0,0,0,.3-.35,1.09,1.09,0,0,0,.1-.48,1.21,1.21,0,0,0-.09-.48.83.83,0,0,0-.3-.34.92.92,0,0,0-.51-.13,1,1,0,0,0-.5.13.81.81,0,0,0-.3.36,1.26,1.26,0,0,0-.1.49,1.15,1.15,0,0,0,.1.46.74.74,0,0,0,.29.34A.87.87,0,0,0,59.49,38.21Z"/><path d="M63,40.26a1.37,1.37,0,0,1-.74-.18,1,1,0,0,1-.42-.47,1.78,1.78,0,0,1-.13-.67h.56a1.14,1.14,0,0,0,.09.48.53.53,0,0,0,.25.28.77.77,0,0,0,.42.1.8.8,0,0,0,.58-.2,1,1,0,0,0,.28-.57,3.81,3.81,0,0,0,.09-.89.83.83,0,0,1-.24.26,1.35,1.35,0,0,1-.38.19,1.33,1.33,0,0,1-.45.07,1.45,1.45,0,0,1-.76-.18,1.15,1.15,0,0,1-.45-.5,1.64,1.64,0,0,1-.14-.71,1.49,1.49,0,0,1,.18-.75,1.36,1.36,0,0,1,.51-.5,1.49,1.49,0,0,1,.73-.18,1.94,1.94,0,0,1,.66.11,1.12,1.12,0,0,1,.49.34,1.53,1.53,0,0,1,.31.64,3.92,3.92,0,0,1,.11,1,5.69,5.69,0,0,1-.1,1.11,1.86,1.86,0,0,1-.31.71,1.23,1.23,0,0,1-.48.4A1.76,1.76,0,0,1,63,40.26Zm0-2a.87.87,0,0,0,.5-.13.81.81,0,0,0,.31-.35,1.25,1.25,0,0,0,.1-.48,1.21,1.21,0,0,0-.1-.48.76.76,0,0,0-.3-.34.88.88,0,0,0-.51-.13,1,1,0,0,0-.5.13.88.88,0,0,0-.3.36,1.26,1.26,0,0,0-.09.49,1.14,1.14,0,0,0,.09.46.74.74,0,0,0,.29.34A.88.88,0,0,0,63.06,38.21Z"/><path d="M65.45,40.18v-.65h.61v.65Z"/><path d="M68.33,40.26a1.35,1.35,0,0,1-.74-.18,1,1,0,0,1-.42-.47,1.6,1.6,0,0,1-.13-.67h.56a1.34,1.34,0,0,0,.08.48.57.57,0,0,0,.25.28.83.83,0,0,0,.43.1.82.82,0,0,0,.58-.2,1.09,1.09,0,0,0,.28-.57,3.81,3.81,0,0,0,.09-.89,1,1,0,0,1-.24.26,1.5,1.5,0,0,1-.38.19,1.39,1.39,0,0,1-.46.07,1.47,1.47,0,0,1-.76-.18A1.19,1.19,0,0,1,67,38a1.64,1.64,0,0,1-.15-.71,1.49,1.49,0,0,1,.19-.75,1.23,1.23,0,0,1,.51-.5,1.49,1.49,0,0,1,.73-.18A2,2,0,0,1,69,36a1.12,1.12,0,0,1,.49.34,1.53,1.53,0,0,1,.31.64,3.92,3.92,0,0,1,.11,1A5,5,0,0,1,69.77,39a2,2,0,0,1-.3.71,1.19,1.19,0,0,1-.49.4A1.67,1.67,0,0,1,68.33,40.26Zm0-2a.88.88,0,0,0,.51-.13.73.73,0,0,0,.3-.35,1.09,1.09,0,0,0,.1-.48,1.21,1.21,0,0,0-.09-.48.83.83,0,0,0-.3-.34.92.92,0,0,0-.51-.13,1,1,0,0,0-.5.13.81.81,0,0,0-.3.36,1.26,1.26,0,0,0-.09.49,1.14,1.14,0,0,0,.09.46.74.74,0,0,0,.29.34A.87.87,0,0,0,68.34,38.21Z"/><path d="M71.08,40.18a4.13,4.13,0,0,1,.15-1.11,5.66,5.66,0,0,1,.39-1,6.42,6.42,0,0,1,.53-.88c.19-.28.37-.52.55-.74H70.42v-.51h3v.34c-.16.18-.32.37-.48.59s-.32.45-.47.69a6.86,6.86,0,0,0-.4.76,4.69,4.69,0,0,0-.29.79,3.15,3.15,0,0,0-.11.8v.29Z"/><path d="M75.14,38.09a1.13,1.13,0,0,1-.51-.11.73.73,0,0,1-.33-.34,1.73,1.73,0,0,1-.11-.67,1.75,1.75,0,0,1,.11-.68.75.75,0,0,1,.33-.35,1.13,1.13,0,0,1,.51-.1,1.09,1.09,0,0,1,.5.1.73.73,0,0,1,.32.35,1.56,1.56,0,0,1,.12.68,1.54,1.54,0,0,1-.12.67.69.69,0,0,1-.32.35A1.24,1.24,0,0,1,75.14,38.09Zm0-.37a.37.37,0,0,0,.37-.19A1.26,1.26,0,0,0,75.6,37v-.06a2.25,2.25,0,0,0,0-.4.61.61,0,0,0-.14-.25.5.5,0,0,0-.29-.08.38.38,0,0,0-.38.19,1.23,1.23,0,0,0-.1.54V37a1.25,1.25,0,0,0,.1.53A.38.38,0,0,0,75.14,37.72Zm-.35,2.46,3.08-4.26h.5l-3.08,4.26Zm3.23.08a1.12,1.12,0,0,1-.5-.11.63.63,0,0,1-.32-.34,1.54,1.54,0,0,1-.12-.67,1.56,1.56,0,0,1,.12-.68.69.69,0,0,1,.32-.35A1.27,1.27,0,0,1,78,38a1.29,1.29,0,0,1,.51.1.69.69,0,0,1,.32.35,1.75,1.75,0,0,1,.11.68,1.73,1.73,0,0,1-.11.67.65.65,0,0,1-.32.35A1.29,1.29,0,0,1,78,40.26Zm0-.37a.37.37,0,0,0,.38-.19,1.32,1.32,0,0,0,.09-.54v0a1.54,1.54,0,0,0,0-.4.43.43,0,0,0-.13-.24.45.45,0,0,0-.3-.09.38.38,0,0,0-.37.19,1.25,1.25,0,0,0-.09.54v0a1.32,1.32,0,0,0,.09.54A.38.38,0,0,0,78,39.89Z"/><path d="M82.56,40.26a1.57,1.57,0,0,1-.81-.19,1.16,1.16,0,0,1-.51-.56,2.82,2.82,0,0,1,0-1.93,1.21,1.21,0,0,1,.51-.56,1.74,1.74,0,0,1,.84-.18,1.51,1.51,0,0,1,.77.17,1.16,1.16,0,0,1,.47.53,2.1,2.1,0,0,1,.16.88v.26H81.64a2,2,0,0,0,.11.65.69.69,0,0,0,.31.36,1,1,0,0,0,.52.12,1.38,1.38,0,0,0,.37-.05.76.76,0,0,0,.26-.16.55.55,0,0,0,.17-.23.73.73,0,0,0,.06-.3H84a1.52,1.52,0,0,1-.1.48,1.17,1.17,0,0,1-.28.38,1.32,1.32,0,0,1-.44.24A1.8,1.8,0,0,1,82.56,40.26Zm-.91-2h1.77a1.56,1.56,0,0,0-.06-.46.75.75,0,0,0-.18-.3.55.55,0,0,0-.27-.17.9.9,0,0,0-.34-.06,1.07,1.07,0,0,0-.49.11.72.72,0,0,0-.3.32A1.65,1.65,0,0,0,81.65,38.27Z"/><path d="M84.8,40.18V37.37h-.49v-.46h.49v-.52a1.5,1.5,0,0,1,0-.37.63.63,0,0,1,.21-.28.8.8,0,0,1,.44-.1h.17l.16,0,.14,0v.4h-.33a.28.28,0,0,0-.22.07.33.33,0,0,0-.08.22v.52h1.07v-.52a1.15,1.15,0,0,1,.06-.37.63.63,0,0,1,.21-.28.78.78,0,0,1,.44-.1h.16l.17,0,.13,0v.4h-.32a.32.32,0,0,0-.23.07.33.33,0,0,0-.08.22v.52h.63v.46H87v2.81h-.54V37.37H85.34v2.81ZM88,36.29v-.6h.55v.6Zm0,3.89V36.91h.55v3.27Z"/><path d="M90.67,40.26a1.53,1.53,0,0,1-.8-.19,1.16,1.16,0,0,1-.48-.56,2.46,2.46,0,0,1-.17-1,2.39,2.39,0,0,1,.17-1,1.2,1.2,0,0,1,.49-.57,1.67,1.67,0,0,1,.81-.18,1.73,1.73,0,0,1,.58.08,1.15,1.15,0,0,1,.41.26,1.05,1.05,0,0,1,.23.4,1.53,1.53,0,0,1,.08.54h-.55a1.28,1.28,0,0,0-.08-.47.53.53,0,0,0-.24-.27,1,1,0,0,0-.45-.09.89.89,0,0,0-.47.12.78.78,0,0,0-.3.38,1.92,1.92,0,0,0-.11.69v.13a2.17,2.17,0,0,0,.1.68.77.77,0,0,0,.31.39.9.9,0,0,0,.48.12.83.83,0,0,0,.45-.1.53.53,0,0,0,.25-.28,1.25,1.25,0,0,0,.08-.45H92a1.44,1.44,0,0,1-.08.51,1.18,1.18,0,0,1-.23.41,1,1,0,0,1-.42.27A1.69,1.69,0,0,1,90.67,40.26Z"/><path d="M92.65,36.29v-.6h.55v.6Zm0,3.89V36.91h.55v3.27Z"/><path d="M95.36,40.26a1.58,1.58,0,0,1-.82-.19,1.15,1.15,0,0,1-.5-.56,2.82,2.82,0,0,1,0-1.93,1.15,1.15,0,0,1,.5-.56,1.8,1.8,0,0,1,.84-.18,1.49,1.49,0,0,1,.77.17,1.11,1.11,0,0,1,.47.53,2.1,2.1,0,0,1,.16.88v.26H94.43a1.93,1.93,0,0,0,.12.65.68.68,0,0,0,.3.36,1,1,0,0,0,.52.12,1.38,1.38,0,0,0,.37-.05A.72.72,0,0,0,96,39.6a.53.53,0,0,0,.16-.23.73.73,0,0,0,.06-.3h.54a1.29,1.29,0,0,1-.1.48,1,1,0,0,1-.27.38,1.37,1.37,0,0,1-.45.24A1.78,1.78,0,0,1,95.36,40.26Zm-.92-2h1.78a1.27,1.27,0,0,0-.07-.46.87.87,0,0,0-.17-.3.65.65,0,0,0-.27-.17,1,1,0,0,0-.35-.06,1,1,0,0,0-.48.11.74.74,0,0,0-.31.32A1.65,1.65,0,0,0,94.44,38.27Z"/><path d="M97.46,40.18V36.91h.44l0,.49h0a1.12,1.12,0,0,1,.29-.32,1.18,1.18,0,0,1,.37-.19,2,2,0,0,1,.43,0,1.27,1.27,0,0,1,.54.1.81.81,0,0,1,.37.34,1.3,1.3,0,0,1,.13.64v2.26h-.54V38a.83.83,0,0,0-.06-.34.48.48,0,0,0-.14-.2.51.51,0,0,0-.22-.11,1.2,1.2,0,0,0-.28,0,.92.92,0,0,0-.43.11.87.87,0,0,0-.33.33,1,1,0,0,0-.12.5v1.92Z"/><path d="M102.21,40.26a1.53,1.53,0,0,1-.8-.19,1.16,1.16,0,0,1-.48-.56,2.46,2.46,0,0,1-.17-1,2.39,2.39,0,0,1,.17-1,1.2,1.2,0,0,1,.49-.57,1.66,1.66,0,0,1,.8-.18,1.76,1.76,0,0,1,.59.08,1,1,0,0,1,.4.26,1,1,0,0,1,.24.4,1.53,1.53,0,0,1,.08.54H103a1.28,1.28,0,0,0-.08-.47.51.51,0,0,0-.25-.27.9.9,0,0,0-.44-.09.89.89,0,0,0-.47.12.85.85,0,0,0-.31.38,1.94,1.94,0,0,0-.1.69v.13a1.91,1.91,0,0,0,.1.68.8.8,0,0,0,.3.39,1,1,0,0,0,.49.12.83.83,0,0,0,.45-.1.57.57,0,0,0,.25-.28A1.25,1.25,0,0,0,103,39h.53a1.44,1.44,0,0,1-.08.51,1.06,1.06,0,0,1-.24.41.92.92,0,0,1-.41.27A1.69,1.69,0,0,1,102.21,40.26Z"/><path d="M104.47,41.31a1,1,0,0,1-.26,0l-.14,0v-.39h.27a.59.59,0,0,0,.29-.07.66.66,0,0,0,.27-.21,1.3,1.3,0,0,0,.21-.41l-1.27-3.27h.57l.66,1.69c0,.07.06.17.1.29l.12.35a3.19,3.19,0,0,1,.09.31h0c0-.06,0-.14.06-.22s0-.17.08-.26.06-.17.08-.25,0-.16.07-.22l.55-1.69h.55l-1.1,3.18a3.14,3.14,0,0,1-.21.49,1.87,1.87,0,0,1-.25.39.9.9,0,0,1-.33.25A1.06,1.06,0,0,1,104.47,41.31Z"/></g></g></svg>