<svg xmlns="http://www.w3.org/2000/svg" viewBox="0 0 262.43 43.81"><defs><style>.cls-1{fill:#fefefe;}</style></defs><g id="Layer_2" data-name="Layer 2"><g id="Layer_1-2" data-name="Layer 1"><path class="cls-1" d="M16.64,6.08Q13.6,6,10.73,6V16.07H5.89V6Q3,6,0,6.08V2H16.64Z"/><path class="cls-1" d="M25.74,16.07c.08-1.89.12-3.64.12-5.24a2.07,2.07,0,0,0-.42-1.36A1.3,1.3,0,0,0,24.38,9a1.39,1.39,0,0,0-1.15.66,3,3,0,0,0-.47,1.8l0,0c0,2.1,0,3.66.07,4.68H18.19c.1-1.86.15-4.37.15-7.55S18.29,2.83,18.19,1h4.6l0,6,0,1a3.92,3.92,0,0,1,1.39-2,3.47,3.47,0,0,1,2.08-.65,3.86,3.86,0,0,1,2,.51A3.34,3.34,0,0,1,29.56,7.2a4.38,4.38,0,0,1,.44,2V12c0,1.72,0,3.09.1,4.12Z"/><path class="cls-1" d="M41.89,11.23H35.58a2.31,2.31,0,0,0,.76,1.39,2.59,2.59,0,0,0,1.73.53,3.71,3.71,0,0,0,1.53-.32,2.79,2.79,0,0,0,1.15-.9,29.12,29.12,0,0,0,3.44,1.37A4.42,4.42,0,0,1,42,15.46a9.07,9.07,0,0,1-4.12.81A6.82,6.82,0,0,1,33,14.75a5.32,5.32,0,0,1-1.58-4A5.17,5.17,0,0,1,33,6.82,6.81,6.81,0,0,1,37.9,5.31,8.4,8.4,0,0,1,41.33,6a5.16,5.16,0,0,1,2.23,1.83,4.84,4.84,0,0,1,.77,2.69,4.77,4.77,0,0,1,0,.75ZM36.58,8.6a2,2,0,0,0-.87,1h4.57a2,2,0,0,0-.75-1,2.28,2.28,0,0,0-1.36-.38A3.07,3.07,0,0,0,36.58,8.6Z"/><path class="cls-1" d="M73.9,16.07c.08-1.89.12-3.64.12-5.24a2.07,2.07,0,0,0-.42-1.36,1.28,1.28,0,0,0-1-.5,1.4,1.4,0,0,0-1.16.66,3,3,0,0,0-.47,1.8l0,0c0,2.1,0,3.66.08,4.68H66.35c.1-1.86.15-4.37.15-7.55s0-5.69-.15-7.55H71l0,6,0,1a3.91,3.91,0,0,1,1.38-2,3.5,3.5,0,0,1,2.09-.65,3.85,3.85,0,0,1,2,.51A3.3,3.3,0,0,1,77.73,7.2a4.37,4.37,0,0,1,.43,2V12c0,1.72,0,3.09.1,4.12Z"/><path class="cls-1" d="M100.32,6.08Q97.28,6,94.41,6V16.07H89.57V6c-1.92,0-3.89.06-5.89.12V2h16.64Z"/><path class="cls-1" d="M109.21,11.23h-6.32a2.38,2.38,0,0,0,.77,1.39,2.57,2.57,0,0,0,1.73.53,3.71,3.71,0,0,0,1.53-.32,2.79,2.79,0,0,0,1.15-.9,29.12,29.12,0,0,0,3.44,1.37,4.4,4.4,0,0,1-2.18,2.16,9,9,0,0,1-4.11.81,6.8,6.8,0,0,1-4.87-1.52,5.29,5.29,0,0,1-1.58-4,5.17,5.17,0,0,1,1.57-3.93q1.56-1.52,4.88-1.51a8.4,8.4,0,0,1,3.43.65,5.07,5.07,0,0,1,2.22,1.83,4.77,4.77,0,0,1,.78,2.69,4.77,4.77,0,0,1,0,.75ZM103.9,8.6a2,2,0,0,0-.87,1h4.57a2.1,2.1,0,0,0-.75-1,2.3,2.3,0,0,0-1.36-.38A3,3,0,0,0,103.9,8.6Z"/><path class="cls-1" d="M125.42,12.86a2.06,2.06,0,0,0,.15.93,1,1,0,0,0,.62.39L126.11,16c-.41.06-.77.11-1.07.13s-.71,0-1.21,0a2.63,2.63,0,0,1-2.21-.74,3.2,3.2,0,0,1-.54-1.91V13a4.81,4.81,0,0,1-1.64,2.37,4.6,4.6,0,0,1-2.74.77,4.66,4.66,0,0,1-2.91-.77,2.78,2.78,0,0,1-1-2.31,2.46,2.46,0,0,1,.83-2,5.16,5.16,0,0,1,2.58-1,24.79,24.79,0,0,0-3-1.82,8.13,8.13,0,0,1,2.66-2.24,7.84,7.84,0,0,1,3.62-.76A6.52,6.52,0,0,1,124,6.59a5,5,0,0,1,1.45,4ZM118.21,9a4,4,0,0,0-1.35,1,25.92,25.92,0,0,1,2.9-.13,2,2,0,0,0,1-.18.5.5,0,0,0,.29-.44.47.47,0,0,0-.29-.4,1.65,1.65,0,0,0-.81-.17A4.37,4.37,0,0,0,118.21,9Zm1.67,3.56a2.41,2.41,0,0,0,1.2-1.1V11a4.46,4.46,0,0,1-1,.36q-.55.12-1.35.24l-.7.12c-.72.14-1.08.38-1.08.73s.33.56,1,.56A4.44,4.44,0,0,0,119.88,12.6Z"/><path class="cls-1" d="M142.36,16.07c.11-1.69.16-3.44.16-5.24a2,2,0,0,0-.44-1.37A1.45,1.45,0,0,0,140.93,9a1.4,1.4,0,0,0-1.13.58,2.59,2.59,0,0,0-.48,1.68v0c0,2.29,0,3.91.1,4.86h-4.36c.08-1.89.12-3.64.12-5.24a2.07,2.07,0,0,0-.42-1.36,1.3,1.3,0,0,0-1-.5,1.41,1.41,0,0,0-1.14.57A2.81,2.81,0,0,0,132,11.1c0,1,0,1.68,0,2.09,0,.88,0,1.84.08,2.88h-4.63c.1-1.86.16-3.61.16-5.26s-.06-3.42-.16-5.31c.85,0,1.5.06,2,.06s1.13,0,2-.06l.58,2.87a4.3,4.3,0,0,1,1.42-2.32,3.9,3.9,0,0,1,4.69.09,3.61,3.61,0,0,1,1.2,2.17,4.33,4.33,0,0,1,1.49-2.19,3.77,3.77,0,0,1,2.38-.81,3.38,3.38,0,0,1,2.73,1.17,4.8,4.8,0,0,1,1,3.2V12.9c0,1.46,0,2.52,0,3.17Z"/><path class="cls-1" d="M162.27,11.37h-10V7.59h10Z"/><path class="cls-1" d="M168.6,12.57a17.35,17.35,0,0,0,.84-2,11.79,11.79,0,0,0,3.19,1.24,14.26,14.26,0,0,0,3.39.45,6.36,6.36,0,0,0,2.27-.28c.44-.19.66-.39.66-.61,0-.79-1.2-1.18-3.61-1.18a14.58,14.58,0,0,1-5.73-.83,2.75,2.75,0,0,1-1.78-2.66A4.12,4.12,0,0,1,170,2.87a11.23,11.23,0,0,1,5.63-1.24,17.63,17.63,0,0,1,4.14.51,16.71,16.71,0,0,1,3.82,1.4c-.37.86-.76,1.9-1.18,3.12a5.64,5.64,0,0,1-.19.58,8.08,8.08,0,0,0-3-1.32,13.74,13.74,0,0,0-3.53-.54,7.94,7.94,0,0,0-2.48.25c-.42.16-.64.39-.64.7s.3.56.89.75a8.67,8.67,0,0,0,2.54.28,14,14,0,0,1,6,.94,3,3,0,0,1,1.86,2.87,4.22,4.22,0,0,1-2,3.91,11.89,11.89,0,0,1-6,1.19,20.75,20.75,0,0,1-4.38-.48,15.91,15.91,0,0,1-4-1.38A20.66,20.66,0,0,0,168.6,12.57Z"/><path class="cls-1" d="M193,16.07c.08-1.89.12-3.64.12-5.24a2.07,2.07,0,0,0-.42-1.36,1.3,1.3,0,0,0-1.06-.5,1.39,1.39,0,0,0-1.15.66,3,3,0,0,0-.47,1.8l0,0c0,2.1,0,3.66.07,4.68H185.4c.1-1.86.15-4.37.15-7.55S185.5,2.83,185.4,1H190l0,6,0,1a3.92,3.92,0,0,1,1.39-2,3.47,3.47,0,0,1,2.08-.65,3.86,3.86,0,0,1,2,.51,3.34,3.34,0,0,1,1.28,1.38,4.38,4.38,0,0,1,.44,2V12c0,1.72,0,3.09.1,4.12Z"/><path class="cls-1" d="M200.22,14.75a5.35,5.35,0,0,1-1.56-4,5.2,5.2,0,0,1,1.56-3.93q1.56-1.52,4.87-1.51a8.58,8.58,0,0,1,3.73.72A5,5,0,0,1,211,8a5.45,5.45,0,0,1,.71,2.76,5.19,5.19,0,0,1-1.65,4,7.28,7.28,0,0,1-5,1.51A6.77,6.77,0,0,1,200.22,14.75Zm6.83-2.37a2.15,2.15,0,0,0,.62-1.61,2.12,2.12,0,0,0-.62-1.56,2.58,2.58,0,0,0-1.88-.61,2.47,2.47,0,0,0-1.84.6,2.14,2.14,0,0,0-.58,1.57,2.21,2.21,0,0,0,.58,1.61,2.47,2.47,0,0,0,1.84.6A2.62,2.62,0,0,0,207.05,12.38Z"/><path class="cls-1" d="M223.08,13.09l1.67-7.59h3.85l-2.15,10.57h-5.17l-1.22-4.93-1.37,4.93h-5L211.56,5.5h3.85l1.65,7.57,1.12-7.57H222Z"/><path class="cls-1" d="M230.16,3.76a2.17,2.17,0,0,1-.59-1.57,2.2,2.2,0,0,1,.59-1.57A2.42,2.42,0,0,1,232,0a2.37,2.37,0,0,1,1.78.63,2.11,2.11,0,0,1,.62,1.56,2.13,2.13,0,0,1-.6,1.57,3,3,0,0,1-3.61,0Zm-.43,12.31c.09-2.07.13-3.79.13-5.15,0-1.61-.05-3.42-.15-5.42h4.64c-.1,1.92-.15,3.73-.15,5.42,0,1.42,0,3.14.13,5.15Z"/><path class="cls-1" d="M243.67,16.07c.08-1.89.12-3.64.12-5.24a2.07,2.07,0,0,0-.42-1.36,1.3,1.3,0,0,0-1.06-.5,1.34,1.34,0,0,0-1.08.57,2.81,2.81,0,0,0-.52,1.56c0,1,0,1.68,0,2.09,0,.88,0,1.84.08,2.88h-4.63c.1-1.86.15-3.61.15-5.26s-.05-3.42-.15-5.31q1.27.06,1.95.06c.48,0,1.13,0,2-.06l.56,2.85A4.36,4.36,0,0,1,242,6.05a3.53,3.53,0,0,1,2.21-.74,3.86,3.86,0,0,1,2,.51,3.34,3.34,0,0,1,1.28,1.38,4.25,4.25,0,0,1,.44,2V12c0,1.72,0,3.09.1,4.12Z"/><path class="cls-1" d="M258.72,5.5h3.71q-.09,3.18-.09,9a7.05,7.05,0,0,1-.92,3.78A5.39,5.39,0,0,1,259,20.44a8.18,8.18,0,0,1-3.37.67,9.58,9.58,0,0,1-3.29-.53,5.11,5.11,0,0,1-2.21-1.43l.87-3a8.62,8.62,0,0,0,2,.86,6.94,6.94,0,0,0,1.94.26c2.2,0,3.29-.93,3.29-2.79,0-.27,0-.46,0-.58s0-.18,0-.31a2.9,2.9,0,0,0,0-.5A4,4,0,0,1,254,15.88a3.94,3.94,0,0,1-2.31-.7,4.52,4.52,0,0,1-1.58-1.89,6,6,0,0,1-.56-2.62,6.34,6.34,0,0,1,.56-2.7A4.68,4.68,0,0,1,251.71,6,3.84,3.84,0,0,1,254,5.31c2.18,0,3.6.76,4.26,2.3ZM257,12.58a2.13,2.13,0,0,0,.84-.66,1.81,1.81,0,0,0,.35-1.13,2.32,2.32,0,0,0-.55-1.72A2.27,2.27,0,0,0,256,8.56a1.87,1.87,0,0,0-1.47.62,2.36,2.36,0,0,0-.54,1.61,1.9,1.9,0,0,0,.59,1.44,2.06,2.06,0,0,0,1.46.55A2.47,2.47,0,0,0,257,12.58Z"/><path class="cls-1" d="M11.78,34c0,1.9,0,3.66.13,5.3-.83,0-1.48-.05-1.95-.05s-1.11,0-2,.05l-.56-2.84A4.34,4.34,0,0,1,6,38.76a3.46,3.46,0,0,1-2.21.75,3.76,3.76,0,0,1-2-.52A3.3,3.3,0,0,1,.53,37.61a4.31,4.31,0,0,1-.43-2V32.86c0-1.71,0-3.09-.1-4.12H4.36q-.12,2.85-.12,5.64a2,2,0,0,0,.42,1.35,1.3,1.3,0,0,0,1,.5,1.34,1.34,0,0,0,1.06-.53,2.58,2.58,0,0,0,.55-1.46v-.45c0-1,0-1.7,0-2.09,0-.89,0-1.88-.08-3h4.63C11.82,30.37,11.78,32.12,11.78,34Z"/><path class="cls-1" d="M24.19,29.26a4.84,4.84,0,0,1,1.57,1.95,6.49,6.49,0,0,1,.56,2.7,6.85,6.85,0,0,1-.56,2.74,5.16,5.16,0,0,1-1.58,2.07,3.65,3.65,0,0,1-2.31.79,5,5,0,0,1-2.59-.63,3.77,3.77,0,0,1-1.6-2c0,.74,0,1.92.08,3.55s.08,2.68.08,3.33H13.46q.12-3.6.12-7.54t-.12-7.53h3.72l.56,2.42a3.82,3.82,0,0,1,1.63-2,5,5,0,0,1,2.55-.63A3.87,3.87,0,0,1,24.19,29.26Zm-2.88,6.21A1.86,1.86,0,0,0,21.9,34a2.36,2.36,0,0,0-.54-1.61,1.86,1.86,0,0,0-1.47-.62,2.27,2.27,0,0,0-1.61.51A2.3,2.3,0,0,0,17.74,34a1.81,1.81,0,0,0,.35,1.13,2.1,2.1,0,0,0,.83.66,2.47,2.47,0,0,0,.93.2A2,2,0,0,0,21.31,35.47Z"/><path class="cls-1" d="M35.79,28.1a.57.57,0,0,0,.26.49,1.22,1.22,0,0,0,.73.19h2.55v3.43c-1.07-.09-1.92-.15-2.55-.16q0,3.6.15,7.26H32.34q0-2.28,0-7.2c-.27,0-.73,0-1.39.1V28.78h1.37v-.37A5.11,5.11,0,0,1,33,25.83a4,4,0,0,1,1.72-1.6,5.57,5.57,0,0,1,2.5-.54,8.81,8.81,0,0,1,2.31.32c-.26.95-.52,2.13-.78,3.55l-.11.58a3.12,3.12,0,0,0-1.88-.74,1.25,1.25,0,0,0-.58.12.58.58,0,0,0-.31.33A.6.6,0,0,0,35.79,28.1Z"/><path class="cls-1" d="M53.06,36.1a2,2,0,0,0,.16.93.93.93,0,0,0,.62.39l-.08,1.82c-.41.06-.77.11-1.07.13s-.71,0-1.21,0a2.63,2.63,0,0,1-2.21-.74,3.2,3.2,0,0,1-.54-1.91v-.49a4.81,4.81,0,0,1-1.64,2.37,4.62,4.62,0,0,1-2.74.77,4.71,4.71,0,0,1-2.92-.77,2.78,2.78,0,0,1-1-2.31,2.43,2.43,0,0,1,.83-2,5.08,5.08,0,0,1,2.58-1,25.61,25.61,0,0,0-2.95-1.82,8.13,8.13,0,0,1,2.66-2.24,7.84,7.84,0,0,1,3.62-.76,6.53,6.53,0,0,1,4.42,1.28,5.05,5.05,0,0,1,1.44,4Zm-7.2-3.82a4,4,0,0,0-1.36,1,26.24,26.24,0,0,1,2.91-.13,2.06,2.06,0,0,0,1-.18.5.5,0,0,0,.29-.44.47.47,0,0,0-.29-.4A1.7,1.7,0,0,0,47.6,32,4.29,4.29,0,0,0,45.86,32.28Zm1.67,3.56a2.41,2.41,0,0,0,1.2-1.1v-.5a4.63,4.63,0,0,1-1,.36c-.37.08-.83.16-1.36.24l-.69.12c-.73.14-1.09.38-1.09.73s.34.56,1,.56A4.5,4.5,0,0,0,47.53,35.84Z"/><path class="cls-1" d="M58,39.05a11.35,11.35,0,0,1-3.15-1.38l2-2.77a7,7,0,0,0,2.15,1,8,8,0,0,0,2.17.35A3.08,3.08,0,0,0,62.51,36a.72.72,0,0,0,.47-.63.57.57,0,0,0-.23-.48,1,1,0,0,0-.64-.18l-.57,0-.52,0A17.45,17.45,0,0,1,59,34.9a5.4,5.4,0,0,1-2.8-.65,2.29,2.29,0,0,1-1.07-2.12,2.89,2.89,0,0,1,1.61-2.64,9.46,9.46,0,0,1,4.72-.94A11.46,11.46,0,0,1,64.5,29a8.59,8.59,0,0,1,2.76,1.31L65,32.54A9.15,9.15,0,0,0,63,31.71,7.91,7.91,0,0,0,61,31.47a2.34,2.34,0,0,0-1.16.27c-.32.18-.48.39-.48.62a.51.51,0,0,0,.2.43.88.88,0,0,0,.53.15c.22,0,.53,0,.91-.06,1-.06,1.65-.09,2.11-.09a5.87,5.87,0,0,1,3.12.68,2.26,2.26,0,0,1,1.11,2.07,3.25,3.25,0,0,1-1.63,3,9.06,9.06,0,0,1-4.49.94A12.22,12.22,0,0,1,58,39.05Z"/><path class="cls-1" d="M77.12,32.21c-1.19-.08-2.27-.14-3.26-.18l0,2.06a2.63,2.63,0,0,0,.46,1.63,1.91,1.91,0,0,0,1.62.59,4,4,0,0,0,.85-.08,14.13,14.13,0,0,0-.08,1.46c0,.23,0,.76,0,1.58a13,13,0,0,1-1.43.2c-.39,0-.89,0-1.51,0a4.05,4.05,0,0,1-3.21-1.1,4.56,4.56,0,0,1-.94-3l0-3.27c-.61,0-1.24.06-1.9.12V28.78a2.42,2.42,0,0,0,1.71-.64,2.59,2.59,0,0,0,.83-1.53h5.27a9,9,0,0,1-2.19,2.17h3.74Z"/><path class="cls-1" d="M88.52,34.47H82.21A2.33,2.33,0,0,0,83,35.86a2.56,2.56,0,0,0,1.73.53,3.78,3.78,0,0,0,1.53-.32,2.7,2.7,0,0,0,1.14-.9,30.1,30.1,0,0,0,3.45,1.37,4.44,4.44,0,0,1-2.18,2.16,9,9,0,0,1-4.11.81A6.84,6.84,0,0,1,79.66,38a5.32,5.32,0,0,1-1.57-4,5.2,5.2,0,0,1,1.56-3.93,6.84,6.84,0,0,1,4.89-1.51A8.38,8.38,0,0,1,88,29.2,5.16,5.16,0,0,1,90.19,31,4.76,4.76,0,0,1,91,33.72a6.94,6.94,0,0,1,0,.75Zm-5.3-2.63a1.91,1.91,0,0,0-.87,1h4.57a2.12,2.12,0,0,0-.76-1,2.27,2.27,0,0,0-1.35-.38A3,3,0,0,0,83.22,31.84Z"/><path class="cls-1" d="M96.81,31.61a3.77,3.77,0,0,1,4-2.93,7.51,7.51,0,0,1,1.08.08l-.61,4.34A6.9,6.9,0,0,0,99,32.57a2,2,0,0,0-1.63.66A2.76,2.76,0,0,0,96.89,35v0l0,1.27c0,.92,0,1.94.08,3.06H92.32c.1-1.86.15-3.61.15-5.26s0-3.42-.15-5.31c.85,0,1.5.06,2,.06s1.13,0,2-.06Z"/><path class="cls-1" d="M116.14,32.21c-1.19-.08-2.27-.14-3.25-.18l0,2.06a2.63,2.63,0,0,0,.45,1.63,1.93,1.93,0,0,0,1.62.59,3.89,3.89,0,0,0,.85-.08,14.13,14.13,0,0,0-.08,1.46c0,.23,0,.76,0,1.58a12.69,12.69,0,0,1-1.43.2c-.39,0-.89,0-1.51,0a4.05,4.05,0,0,1-3.21-1.1,4.56,4.56,0,0,1-.93-3V32.09c-.6,0-1.23.06-1.89.12V28.78a2.4,2.4,0,0,0,1.7-.64,2.54,2.54,0,0,0,.83-1.53h5.27a9,9,0,0,1-2.19,2.17h3.74Z"/><path class="cls-1" d="M124.86,39.31c.07-1.89.11-3.64.11-5.24a2.12,2.12,0,0,0-.41-1.36,1.3,1.3,0,0,0-1.06-.5,1.39,1.39,0,0,0-1.15.65,3,3,0,0,0-.48,1.81l0,0c0,2.1,0,3.66.08,4.68H117.3c.11-1.86.16-4.37.16-7.55s0-5.69-.16-7.55h4.61l0,6,0,1a3.94,3.94,0,0,1,1.39-2,3.51,3.51,0,0,1,2.08-.64,3.82,3.82,0,0,1,2,.51,3.3,3.3,0,0,1,1.29,1.38,4.34,4.34,0,0,1,.44,2v2.79c0,1.72,0,3.09.09,4.12Z"/><path class="cls-1" d="M143.18,36.1a2.06,2.06,0,0,0,.15.93.93.93,0,0,0,.62.39l-.08,1.82c-.41.06-.77.11-1.07.13s-.71,0-1.21,0a2.63,2.63,0,0,1-2.21-.74,3.2,3.2,0,0,1-.54-1.91v-.49a4.81,4.81,0,0,1-1.64,2.37,5.56,5.56,0,0,1-5.65,0,2.76,2.76,0,0,1-1-2.31,2.46,2.46,0,0,1,.83-2,5.12,5.12,0,0,1,2.58-1A24.79,24.79,0,0,0,131,31.55a8.13,8.13,0,0,1,2.66-2.24,7.84,7.84,0,0,1,3.62-.76,6.52,6.52,0,0,1,4.42,1.28,5,5,0,0,1,1.45,4ZM136,32.28a4,4,0,0,0-1.35,1,25.92,25.92,0,0,1,2.9-.13,2.06,2.06,0,0,0,1-.18.5.5,0,0,0,.29-.44.47.47,0,0,0-.29-.4,1.7,1.7,0,0,0-.82-.17A4.35,4.35,0,0,0,136,32.28Zm1.67,3.56a2.41,2.41,0,0,0,1.2-1.1v-.5a4.46,4.46,0,0,1-1,.36q-.56.12-1.35.24l-.7.12c-.72.14-1.09.38-1.09.73s.34.56,1,.56A4.47,4.47,0,0,0,137.64,35.84Z"/><path class="cls-1" d="M152.67,39.31c.07-1.89.11-3.64.11-5.24a2.12,2.12,0,0,0-.41-1.36,1.34,1.34,0,0,0-2.14.07,2.81,2.81,0,0,0-.53,1.56c0,1,0,1.68,0,2.09,0,.88,0,1.84.08,2.88h-4.63c.11-1.86.16-3.61.16-5.26s-.05-3.42-.16-5.31c.85,0,1.51.06,2,.06s1.13,0,2-.06l.57,2.85a4.3,4.3,0,0,1,1.39-2.3,3.45,3.45,0,0,1,2.21-.74,3.85,3.85,0,0,1,2,.51,3.3,3.3,0,0,1,1.29,1.38,4.34,4.34,0,0,1,.44,2v2.79c0,1.72,0,3.09.09,4.12Z"/><path class="cls-1" d="M159,38.9a2,2,0,0,1-.6-1.46A2,2,0,0,1,159,36a2,2,0,0,1,1.45-.6,2.07,2.07,0,0,1,0,4.13A2,2,0,0,1,159,38.9Z"/><path class="cls-1" d="M164.25,38.9a2,2,0,0,1-.6-1.46,2,2,0,0,1,.6-1.46,2.06,2.06,0,0,1,3.5,1.46,2,2,0,0,1-3.5,1.46Z"/><path class="cls-1" d="M169.51,38.9a2,2,0,0,1-.6-1.46,2.07,2.07,0,1,1,.6,1.46Z"/><path class="cls-1" d="M61.94,11.33H54.88a2.6,2.6,0,0,0,.85,1.55,2.85,2.85,0,0,0,1.94.6,4.1,4.1,0,0,0,1.71-.36,3.16,3.16,0,0,0,1.28-1,33.8,33.8,0,0,0,3.86,1.54,5,5,0,0,1-2.44,2.41,10.15,10.15,0,0,1-4.6.9C55,17,53.2,16.4,52,15.26a5.9,5.9,0,0,1-1.77-4.47A5.83,5.83,0,0,1,52,6.39Q53.77,4.7,57.48,4.7a9.22,9.22,0,0,1,3.83.73A5.74,5.74,0,0,1,63.8,7.48a5.33,5.33,0,0,1,.87,3,6,6,0,0,1,0,.85ZM56,8.38a2.22,2.22,0,0,0-1,1.13h5.11a2.35,2.35,0,0,0-.84-1.12A2.55,2.55,0,0,0,57.78,8,3.5,3.5,0,0,0,56,8.38Z"/></g></g></svg>