<svg xmlns="http://www.w3.org/2000/svg" viewBox="0 0 116.2 21.33"><defs><style>.cls-1{fill:#f98f0b;}.cls-2{fill:#fff;}</style></defs><g id="Layer_2" data-name="Layer 2"><g id="Layer_1-2" data-name="Layer 1"><rect class="cls-1" width="116.2" height="21.33" rx="4.36"/><path class="cls-2" d="M12.41,13.69a3.38,3.38,0,0,1-2.42-1,3.42,3.42,0,0,1-.74-1.07A3.36,3.36,0,0,1,9.25,9,3.42,3.42,0,0,1,10,7.92a3.38,3.38,0,0,1,2.42-1,4.12,4.12,0,0,1,.86.09A3.29,3.29,0,0,1,14,7.3a.58.58,0,0,1,.21.2.54.54,0,0,1,.07.26.63.63,0,0,1-.15.41.48.48,0,0,1-.39.18l-.15,0a.44.44,0,0,1-.16-.06,2.69,2.69,0,0,0-1.05-.22,2.11,2.11,0,0,0-1.11.31,2.25,2.25,0,0,0-.8.82,2.2,2.2,0,0,0-.3,1.13,2.22,2.22,0,0,0,.3,1.13,2.25,2.25,0,0,0,.8.82,2.11,2.11,0,0,0,1.11.31,3.59,3.59,0,0,0,.62-.06,2.5,2.5,0,0,0,.55-.15l-.08.28V11l.16.15h-1a.58.58,0,0,1-.41-.16.57.57,0,0,1-.17-.41.53.53,0,0,1,.17-.4.54.54,0,0,1,.41-.16h1.54a.52.52,0,0,1,.4.16.56.56,0,0,1,.16.41v2a.5.5,0,0,1-.09.31.76.76,0,0,1-.2.2,3.8,3.8,0,0,1-.94.42A3.86,3.86,0,0,1,12.41,13.69Z"/><path class="cls-2" d="M18.12,13.69a2.76,2.76,0,0,1-1.38-.33,2.25,2.25,0,0,1-.9-.91,2.62,2.62,0,0,1-.32-1.29,3,3,0,0,1,.34-1.45,2.46,2.46,0,0,1,.9-.91,2.25,2.25,0,0,1,1.18-.32,2.11,2.11,0,0,1,.9.19,2.6,2.6,0,0,1,.76.55,2.52,2.52,0,0,1,.52.79,2.39,2.39,0,0,1,.2,1,.49.49,0,0,1-.18.36.6.6,0,0,1-.4.15H16.15l-.28-.94h3.45l-.21.18v-.25a.83.83,0,0,0-.19-.49,1.3,1.3,0,0,0-.43-.34,1.2,1.2,0,0,0-.55-.13,1.78,1.78,0,0,0-.53.08,1,1,0,0,0-.42.25,1.13,1.13,0,0,0-.28.48,2.31,2.31,0,0,0-.11.76,1.64,1.64,0,0,0,.21.86,1.42,1.42,0,0,0,.55.54,1.47,1.47,0,0,0,.71.18,2,2,0,0,0,.55-.06,1.21,1.21,0,0,0,.34-.13,2,2,0,0,1,.23-.14.66.66,0,0,1,.32-.08.44.44,0,0,1,.34.14.45.45,0,0,1,.14.33.58.58,0,0,1-.27.46,2.05,2.05,0,0,1-.68.36A2.86,2.86,0,0,1,18.12,13.69Z"/><path class="cls-2" d="M21.36,8.67h2.23a.51.51,0,0,1,.52.52.46.46,0,0,1-.15.36.5.5,0,0,1-.37.15H21.36a.51.51,0,0,1-.53-.53A.49.49,0,0,1,21,8.81.51.51,0,0,1,21.36,8.67Zm1-1.18a.54.54,0,0,1,.4.16.56.56,0,0,1,.16.41v4.19a.43.43,0,0,0,0,.21.24.24,0,0,0,.14.12.43.43,0,0,0,.19,0,.46.46,0,0,0,.21,0,.51.51,0,0,1,.22,0,.31.31,0,0,1,.24.12.5.5,0,0,1,.11.34.5.5,0,0,1-.29.43,1.23,1.23,0,0,1-.62.17l-.43,0a1.33,1.33,0,0,1-.46-.16,1.11,1.11,0,0,1-.35-.39,1.63,1.63,0,0,1-.14-.73V8.06A.57.57,0,0,1,22,7.65.58.58,0,0,1,22.36,7.49Z"/><path class="cls-2" d="M30.29,8.5l-2,4.77a.65.65,0,0,1-.2.28.57.57,0,0,1-.3.1.51.51,0,0,1-.38-.14.53.53,0,0,1-.12-.35.57.57,0,0,1,0-.18l2.34-5.62a.61.61,0,0,1,.23-.29A.5.5,0,0,1,30.19,7a.6.6,0,0,1,.32.1.54.54,0,0,1,.21.28L33,12.87a.63.63,0,0,1,0,.22.53.53,0,0,1-.53.56.48.48,0,0,1-.3-.11.61.61,0,0,1-.21-.28L30,8.55Zm-1.74,3.62L29.07,11H31.6l.18,1.08Z"/><path class="cls-2" d="M37.1,13.6a.55.55,0,0,1-.59-.57V7.59a.56.56,0,0,1,.16-.4A.58.58,0,0,1,37.08,7h3.06a.56.56,0,0,1,.41.16.5.5,0,0,1,.16.39.49.49,0,0,1-.16.37.56.56,0,0,1-.41.16H37.6L37.69,8V9.88l-.07-.12h2.1a.57.57,0,0,1,.4.15.53.53,0,0,1,.17.4.51.51,0,0,1-.17.37.58.58,0,0,1-.4.16H37.6l.09-.09V13a.54.54,0,0,1-.18.41A.56.56,0,0,1,37.1,13.6Z"/><path class="cls-2" d="M42.18,13.6a.56.56,0,0,1-.41-.16.59.59,0,0,1-.15-.41V9.15a.58.58,0,0,1,.15-.41.57.57,0,0,1,.41-.17.53.53,0,0,1,.4.17.54.54,0,0,1,.16.41V10l-.06-.63A1.23,1.23,0,0,1,43,9a1.32,1.32,0,0,1,.37-.29,1.57,1.57,0,0,1,.44-.18,2.42,2.42,0,0,1,.47,0,.69.69,0,0,1,.47.16.47.47,0,0,1,.2.37.58.58,0,0,1-.16.45.56.56,0,0,1-.35.14.88.88,0,0,1-.33-.07.81.81,0,0,0-.33-.07.84.84,0,0,0-.34.08,1,1,0,0,0-.32.25,1.44,1.44,0,0,0-.24.42,1.74,1.74,0,0,0-.09.59V13a.56.56,0,0,1-.16.41A.52.52,0,0,1,42.18,13.6Z"/><path class="cls-2" d="M47.86,13.69a2.78,2.78,0,0,1-1.39-.33,2.25,2.25,0,0,1-.9-.91,2.62,2.62,0,0,1-.32-1.29,3,3,0,0,1,.34-1.45,2.46,2.46,0,0,1,.9-.91,2.25,2.25,0,0,1,1.18-.32,2.11,2.11,0,0,1,.9.19,2.6,2.6,0,0,1,.76.55,2.52,2.52,0,0,1,.52.79,2.39,2.39,0,0,1,.2,1,.49.49,0,0,1-.18.36.6.6,0,0,1-.4.15H45.88l-.28-.94h3.45l-.21.18v-.25a.83.83,0,0,0-.19-.49,1.3,1.3,0,0,0-.43-.34,1.2,1.2,0,0,0-.55-.13,1.78,1.78,0,0,0-.53.08,1,1,0,0,0-.42.25,1.13,1.13,0,0,0-.28.48,2.31,2.31,0,0,0-.11.76,1.64,1.64,0,0,0,.21.86,1.49,1.49,0,0,0,.55.54,1.47,1.47,0,0,0,.71.18,2,2,0,0,0,.55-.06,1.21,1.21,0,0,0,.34-.13,2,2,0,0,1,.23-.14.66.66,0,0,1,.32-.08.44.44,0,0,1,.34.14.45.45,0,0,1,.14.33.58.58,0,0,1-.27.46,2.05,2.05,0,0,1-.68.36A2.85,2.85,0,0,1,47.86,13.69Z"/><path class="cls-2" d="M53.4,13.69A2.83,2.83,0,0,1,52,13.36a2.25,2.25,0,0,1-.9-.91,2.62,2.62,0,0,1-.31-1.29,2.85,2.85,0,0,1,.34-1.45A2.46,2.46,0,0,1,52,8.8a2.24,2.24,0,0,1,1.17-.32,2.18,2.18,0,0,1,.91.19,2.6,2.6,0,0,1,.76.55,2.52,2.52,0,0,1,.52.79,2.38,2.38,0,0,1,.19,1,.45.45,0,0,1-.18.36.56.56,0,0,1-.39.15H51.43l-.28-.94H54.6l-.21.18v-.25A.9.9,0,0,0,54.2,10a1.24,1.24,0,0,0-.44-.34,1.14,1.14,0,0,0-.55-.13,1.77,1.77,0,0,0-.52.08,1,1,0,0,0-.43.25,1.38,1.38,0,0,0-.28.48,2.33,2.33,0,0,0-.1.76,1.64,1.64,0,0,0,.21.86,1.36,1.36,0,0,0,.55.54,1.43,1.43,0,0,0,.7.18,2.07,2.07,0,0,0,.56-.06,1,1,0,0,0,.33-.13l.23-.14a.69.69,0,0,1,.32-.08.46.46,0,0,1,.48.47.6.6,0,0,1-.26.46,2,2,0,0,1-.69.36A2.8,2.8,0,0,1,53.4,13.69Z"/><path class="cls-2" d="M65.36,10.31a3.6,3.6,0,0,1-.24,1.32,3.37,3.37,0,0,1-.66,1.07,3.12,3.12,0,0,1-4.59,0,3.55,3.55,0,0,1-.66-1.07A3.59,3.59,0,0,1,59,10.31,3.59,3.59,0,0,1,59.21,9a3.55,3.55,0,0,1,.66-1.07,3.12,3.12,0,0,1,4.59,0A3.37,3.37,0,0,1,65.12,9,3.6,3.6,0,0,1,65.36,10.31Zm-1.22,0a2.52,2.52,0,0,0-.26-1.14,2.11,2.11,0,0,0-.69-.81,1.74,1.74,0,0,0-1-.31,1.69,1.69,0,0,0-1,.31,1.92,1.92,0,0,0-.69.8,2.75,2.75,0,0,0,0,2.29,2,2,0,0,0,.69.82,1.75,1.75,0,0,0,1,.3,1.81,1.81,0,0,0,1-.3,2.14,2.14,0,0,0,.69-.82A2.52,2.52,0,0,0,64.14,10.31Zm1.26,3.55a.51.51,0,0,1,.36.17.52.52,0,0,1,.17.38.58.58,0,0,1-.19.41,1.75,1.75,0,0,1-.5.34,3.32,3.32,0,0,1-.62.24,2.67,2.67,0,0,1-.59.08,3.28,3.28,0,0,1-.93-.11,2.57,2.57,0,0,1-.57-.24l-.42-.25a1.06,1.06,0,0,0-.48-.11.59.59,0,0,0-.29.07L61.1,15a.82.82,0,0,1-.35.06.5.5,0,0,1-.39-.18.56.56,0,0,1-.16-.38.47.47,0,0,1,.33-.49l1.94-.73.85.21-1.83.68.54-.31a1.72,1.72,0,0,1,.58.09,4.09,4.09,0,0,1,.47.23l.47.22a1.54,1.54,0,0,0,.55.1.94.94,0,0,0,.43-.09,1.53,1.53,0,0,0,.3-.19l.29-.22A.45.45,0,0,1,65.4,13.86Z"/><path class="cls-2" d="M70,8.57a.53.53,0,0,1,.4.17.54.54,0,0,1,.16.41v2.38a2.19,2.19,0,0,1-.55,1.58,2.09,2.09,0,0,1-1.6.58,2.06,2.06,0,0,1-1.59-.58,2.19,2.19,0,0,1-.55-1.58V9.15a.54.54,0,0,1,.16-.41.53.53,0,0,1,.4-.17.57.57,0,0,1,.41.17.58.58,0,0,1,.16.41v2.38a1.22,1.22,0,0,0,.25.85,1,1,0,0,0,.76.28,1,1,0,0,0,.77-.28,1.22,1.22,0,0,0,.25-.85V9.15a.58.58,0,0,1,.16-.41A.57.57,0,0,1,70,8.57Z"/><path class="cls-2" d="M76.7,11.09a2.64,2.64,0,0,1-.34,1.36,2.43,2.43,0,0,1-.92.91,2.71,2.71,0,0,1-2.59,0,2.43,2.43,0,0,1-.92-.91,2.64,2.64,0,0,1-.34-1.36,2.64,2.64,0,0,1,.34-1.36,2.54,2.54,0,0,1,.92-.92,2.71,2.71,0,0,1,2.59,0,2.54,2.54,0,0,1,.92.92A2.64,2.64,0,0,1,76.7,11.09Zm-1.12,0a1.67,1.67,0,0,0-.2-.83,1.43,1.43,0,0,0-.51-.55,1.39,1.39,0,0,0-.72-.2,1.34,1.34,0,0,0-.72.2,1.38,1.38,0,0,0-.52.55,1.89,1.89,0,0,0,0,1.65,1.38,1.38,0,0,0,.52.55,1.34,1.34,0,0,0,.72.2,1.39,1.39,0,0,0,.72-.2,1.43,1.43,0,0,0,.51-.55A1.66,1.66,0,0,0,75.58,11.09Z"/><path class="cls-2" d="M77.75,8.67H80a.52.52,0,0,1,.38.15.5.5,0,0,1,.15.37.46.46,0,0,1-.15.36A.52.52,0,0,1,80,9.7H77.75a.51.51,0,0,1-.53-.53.49.49,0,0,1,.15-.36A.51.51,0,0,1,77.75,8.67Zm1-1.18a.56.56,0,0,1,.4.16.6.6,0,0,1,.16.41v4.19a.35.35,0,0,0,0,.21.24.24,0,0,0,.14.12.41.41,0,0,0,.19,0,.46.46,0,0,0,.21,0,.48.48,0,0,1,.22,0,.31.31,0,0,1,.23.12.45.45,0,0,1,.11.34.49.49,0,0,1-.28.43,1.23,1.23,0,0,1-.62.17l-.44,0a1.21,1.21,0,0,1-.45-.16,1,1,0,0,1-.35-.39,1.63,1.63,0,0,1-.14-.73V8.06a.56.56,0,0,1,.16-.41A.6.6,0,0,1,78.75,7.49Z"/><path class="cls-2" d="M83.86,13.69a2.78,2.78,0,0,1-1.39-.33,2.25,2.25,0,0,1-.9-.91,2.62,2.62,0,0,1-.32-1.29,3,3,0,0,1,.34-1.45,2.46,2.46,0,0,1,.9-.91,2.25,2.25,0,0,1,1.18-.32,2.11,2.11,0,0,1,.9.19,2.6,2.6,0,0,1,.76.55,2.52,2.52,0,0,1,.52.79,2.39,2.39,0,0,1,.2,1,.49.49,0,0,1-.18.36.6.6,0,0,1-.4.15H81.88l-.28-.94h3.45l-.21.18v-.25a.83.83,0,0,0-.19-.49,1.3,1.3,0,0,0-.43-.34,1.2,1.2,0,0,0-.55-.13,1.78,1.78,0,0,0-.53.08,1,1,0,0,0-.42.25,1.13,1.13,0,0,0-.28.48,2.31,2.31,0,0,0-.11.76,1.64,1.64,0,0,0,.21.86,1.49,1.49,0,0,0,.55.54,1.47,1.47,0,0,0,.71.18,2,2,0,0,0,.55-.06,1.21,1.21,0,0,0,.34-.13,2,2,0,0,1,.23-.14.66.66,0,0,1,.32-.08.44.44,0,0,1,.34.14.45.45,0,0,1,.14.33.58.58,0,0,1-.27.46,2.05,2.05,0,0,1-.68.36A2.85,2.85,0,0,1,83.86,13.69Z"/></g></g></svg>