<svg xmlns="http://www.w3.org/2000/svg" viewBox="0 0 201.82 40.75"><defs><style>.cls-1{fill:#dfac25;}.cls-2{fill:#fff;}</style></defs><g id="Layer_2" data-name="Layer 2"><g id="Layer_1-2" data-name="Layer 1"><rect class="cls-1" width="201.82" height="40.75" rx="6.94"/><path class="cls-2" d="M21,15.45v2h-7v-2Zm-5.16-3.09h2.51V24.57a2.12,2.12,0,0,0,.22,1.09,1.06,1.06,0,0,0,.57.5,2.28,2.28,0,0,0,.76.13,4.09,4.09,0,0,0,.53,0l.35-.07.45,2.07a3.76,3.76,0,0,1-.62.18,4.71,4.71,0,0,1-1,.09,4.42,4.42,0,0,1-1.85-.35A3.2,3.2,0,0,1,16.34,27a3.31,3.31,0,0,1-.53-1.94Z"/><path class="cls-2" d="M26.52,20.69v7.67H24V11.15h2.48v6.4h.16A3.73,3.73,0,0,1,28,15.89a4.45,4.45,0,0,1,2.44-.61,4.68,4.68,0,0,1,2.32.55,3.68,3.68,0,0,1,1.55,1.62,5.87,5.87,0,0,1,.55,2.7v8.21H32.38V20.45a3.17,3.17,0,0,0-.73-2.21,2.67,2.67,0,0,0-2-.78,3.22,3.22,0,0,0-1.59.38,2.71,2.71,0,0,0-1.1,1.1A3.56,3.56,0,0,0,26.52,20.69Z"/><path class="cls-2" d="M43.81,28.62a6.36,6.36,0,0,1-3.28-.82,5.58,5.58,0,0,1-2.12-2.31,7.85,7.85,0,0,1-.74-3.5,7.91,7.91,0,0,1,.74-3.5,5.58,5.58,0,0,1,5.23-3.21,6.32,6.32,0,0,1,2.11.36,5,5,0,0,1,1.84,1.14,5.17,5.17,0,0,1,1.29,2,8.49,8.49,0,0,1,.47,3v.89H39.09V20.78h7.8A3.72,3.72,0,0,0,46.48,19a3,3,0,0,0-1.13-1.22,3.23,3.23,0,0,0-1.7-.44,3.3,3.3,0,0,0-1.84.51,3.57,3.57,0,0,0-1.21,1.35A3.9,3.9,0,0,0,40.18,21v1.47a4.9,4.9,0,0,0,.45,2.2,3.32,3.32,0,0,0,1.28,1.39,4.17,4.17,0,0,0,3.23.26,2.78,2.78,0,0,0,1-.61,2.83,2.83,0,0,0,.65-1l2.38.43a4.25,4.25,0,0,1-1,1.83,4.86,4.86,0,0,1-1.84,1.22A6.86,6.86,0,0,1,43.81,28.62Z"/><path class="cls-2" d="M61.82,18.6l-2.28.4a2.5,2.5,0,0,0-.45-.83,2.29,2.29,0,0,0-.83-.65,3.07,3.07,0,0,0-1.3-.25,3.13,3.13,0,0,0-1.78.48A1.42,1.42,0,0,0,54.47,19,1.28,1.28,0,0,0,55,20a3.73,3.73,0,0,0,1.54.65l2,.47A5.51,5.51,0,0,1,61.2,22.4a3,3,0,0,1,.87,2.22,3.35,3.35,0,0,1-.67,2.07,4.38,4.38,0,0,1-1.85,1.41,7,7,0,0,1-2.76.52,6.15,6.15,0,0,1-3.53-.93A3.85,3.85,0,0,1,51.58,25L54,24.68a2.3,2.3,0,0,0,.93,1.43,3.2,3.2,0,0,0,1.84.48,3.33,3.33,0,0,0,2-.52,1.48,1.48,0,0,0,.74-1.26,1.34,1.34,0,0,0-.45-1,3.07,3.07,0,0,0-1.37-.62l-2.19-.48a5.15,5.15,0,0,1-2.66-1.31A3.14,3.14,0,0,1,52,19.1a3.31,3.31,0,0,1,.63-2,4.34,4.34,0,0,1,1.77-1.34,6.52,6.52,0,0,1,2.58-.48,5.38,5.38,0,0,1,3.29.9A4.29,4.29,0,0,1,61.82,18.6Z"/><path class="cls-2" d="M66.1,13.46A1.6,1.6,0,0,1,65,13,1.42,1.42,0,0,1,64.51,12,1.4,1.4,0,0,1,65,10.9a1.66,1.66,0,0,1,2.25,0A1.4,1.4,0,0,1,67.68,12,1.42,1.42,0,0,1,67.22,13,1.6,1.6,0,0,1,66.1,13.46Zm-1.27,14.9V15.45h2.51V28.36Z"/><path class="cls-2" d="M80.39,18.6l-2.28.4a2.7,2.7,0,0,0-.45-.83,2.29,2.29,0,0,0-.83-.65,3.07,3.07,0,0,0-1.3-.25,3.13,3.13,0,0,0-1.78.48A1.4,1.4,0,0,0,73,19a1.3,1.3,0,0,0,.47,1,3.84,3.84,0,0,0,1.55.65l2,.47a5.51,5.51,0,0,1,2.66,1.27,3,3,0,0,1,.87,2.22A3.35,3.35,0,0,1,80,26.69a4.35,4.35,0,0,1-1.86,1.41,6.92,6.92,0,0,1-2.75.52,6.15,6.15,0,0,1-3.53-.93A3.89,3.89,0,0,1,70.14,25l2.43-.36a2.31,2.31,0,0,0,.94,1.43,3.2,3.2,0,0,0,1.84.48,3.33,3.33,0,0,0,2-.52,1.5,1.5,0,0,0,.74-1.26,1.34,1.34,0,0,0-.45-1,3.07,3.07,0,0,0-1.37-.62l-2.19-.48a5.23,5.23,0,0,1-2.67-1.31,3.18,3.18,0,0,1-.86-2.28,3.32,3.32,0,0,1,.64-2,4.34,4.34,0,0,1,1.77-1.34,6.52,6.52,0,0,1,2.58-.48,5.38,5.38,0,0,1,3.29.9A4.29,4.29,0,0,1,80.39,18.6Z"/><path class="cls-2" d="M88.81,33.46a7.74,7.74,0,0,1-2.65-.4A5.13,5.13,0,0,1,84.36,32a4.48,4.48,0,0,1-1-1.45l2.16-.89a4.39,4.39,0,0,0,.61.78,2.94,2.94,0,0,0,1,.71,4.14,4.14,0,0,0,1.7.3,3.86,3.86,0,0,0,2.36-.69,2.59,2.59,0,0,0,.94-2.21V26H92a6,6,0,0,1-.66.92,3.56,3.56,0,0,1-1.16.87,4.24,4.24,0,0,1-1.92.37,5.36,5.36,0,0,1-2.76-.72,5,5,0,0,1-1.93-2.12,7.72,7.72,0,0,1-.71-3.47,8.26,8.26,0,0,1,.7-3.53,5.28,5.28,0,0,1,1.93-2.25,5,5,0,0,1,2.78-.79,4,4,0,0,1,1.94.4,3.71,3.71,0,0,1,1.16.93,6.83,6.83,0,0,1,.64.93h.19V15.45h2.46V28.64A4.28,4.28,0,0,1,91.77,33,8.17,8.17,0,0,1,88.81,33.46Zm0-7.38a3.21,3.21,0,0,0,1.84-.51,3.18,3.18,0,0,0,1.14-1.46,6.06,6.06,0,0,0,.39-2.29,6.3,6.3,0,0,0-.39-2.3A3.41,3.41,0,0,0,90.63,18a3,3,0,0,0-1.85-.55,3,3,0,0,0-1.89.58,3.65,3.65,0,0,0-1.14,1.58,6.34,6.34,0,0,0-.38,2.24A5.83,5.83,0,0,0,85.76,24a3.28,3.28,0,0,0,1.14,1.5A3.18,3.18,0,0,0,88.78,26.08Z"/><path class="cls-2" d="M103.43,28.62a5.85,5.85,0,0,1-3.16-.84,5.63,5.63,0,0,1-2.1-2.32,7.74,7.74,0,0,1-.75-3.5,7.76,7.76,0,0,1,.75-3.51,5.68,5.68,0,0,1,2.1-2.34,6.45,6.45,0,0,1,6.33,0,5.68,5.68,0,0,1,2.1,2.34,7.76,7.76,0,0,1,.75,3.51,7.74,7.74,0,0,1-.75,3.5,5.63,5.63,0,0,1-2.1,2.32A5.88,5.88,0,0,1,103.43,28.62Zm0-2.11a3,3,0,0,0,2-.62,3.69,3.69,0,0,0,1.15-1.66,7.18,7.18,0,0,0,0-4.55A3.72,3.72,0,0,0,105.39,18a3,3,0,0,0-2-.63,3,3,0,0,0-2,.63,3.72,3.72,0,0,0-1.15,1.67,7.18,7.18,0,0,0,0,4.55,3.69,3.69,0,0,0,1.15,1.66A3.06,3.06,0,0,0,103.44,26.51Z"/><path class="cls-2" d="M114.76,11.15V28.36h-2.51V11.15Z"/><path class="cls-2" d="M123,28.61a5,5,0,0,1-2.79-.8,5.39,5.39,0,0,1-1.91-2.3,8.47,8.47,0,0,1-.69-3.58,8.28,8.28,0,0,1,.7-3.58,5.3,5.3,0,0,1,1.93-2.28,5,5,0,0,1,2.78-.79,4,4,0,0,1,1.93.4,3.78,3.78,0,0,1,1.15.93,7.67,7.67,0,0,1,.63.93h.15V11.15h2.51V28.36h-2.45v-2h-.21a7,7,0,0,1-.65.94,3.66,3.66,0,0,1-1.16.92A4,4,0,0,1,123,28.61Zm.55-2.15a3,3,0,0,0,1.84-.57,3.55,3.55,0,0,0,1.14-1.6,6.69,6.69,0,0,0,.39-2.39,6.73,6.73,0,0,0-.38-2.35A3.45,3.45,0,0,0,125.37,18a3,3,0,0,0-1.85-.56,3,3,0,0,0-1.89.58,3.59,3.59,0,0,0-1.13,1.61,6.36,6.36,0,0,0-.39,2.29,6.58,6.58,0,0,0,.39,2.33,3.64,3.64,0,0,0,1.15,1.63A2.91,2.91,0,0,0,123.52,26.46Z"/><path class="cls-2" d="M134.6,28.51a1.62,1.62,0,0,1-1.19-.49,1.59,1.59,0,0,1-.49-1.19,1.62,1.62,0,0,1,.49-1.18,1.66,1.66,0,0,1,1.19-.49,1.69,1.69,0,0,1,1.68,1.67,1.67,1.67,0,0,1-.23.85,1.87,1.87,0,0,1-.61.61A1.6,1.6,0,0,1,134.6,28.51Z"/><path class="cls-2" d="M145.08,28.62a5.92,5.92,0,0,1-3.23-.86,5.63,5.63,0,0,1-2.07-2.35,7.91,7.91,0,0,1-.72-3.45,7.8,7.8,0,0,1,.74-3.47,5.69,5.69,0,0,1,2.08-2.36,5.8,5.8,0,0,1,3.17-.85,6.07,6.07,0,0,1,2.62.54,4.72,4.72,0,0,1,1.86,1.52,4.54,4.54,0,0,1,.85,2.28h-2.45a2.92,2.92,0,0,0-.92-1.57,2.77,2.77,0,0,0-1.92-.65,3.07,3.07,0,0,0-1.83.55A3.56,3.56,0,0,0,142,19.51a5.86,5.86,0,0,0-.44,2.39,6.23,6.23,0,0,0,.43,2.44,3.64,3.64,0,0,0,1.21,1.59,3.12,3.12,0,0,0,1.85.56,3.21,3.21,0,0,0,1.3-.26,2.55,2.55,0,0,0,1-.77,2.74,2.74,0,0,0,.56-1.19h2.45a4.71,4.71,0,0,1-.82,2.24,4.65,4.65,0,0,1-1.82,1.54A5.83,5.83,0,0,1,145.08,28.62Z"/><path class="cls-2" d="M158.51,28.62a5.91,5.91,0,0,1-3.17-.84,5.63,5.63,0,0,1-2.1-2.32,7.74,7.74,0,0,1-.74-3.5,7.76,7.76,0,0,1,.74-3.51,5.68,5.68,0,0,1,2.1-2.34,6.47,6.47,0,0,1,6.34,0,5.68,5.68,0,0,1,2.1,2.34,7.76,7.76,0,0,1,.75,3.51,7.74,7.74,0,0,1-.75,3.5,5.63,5.63,0,0,1-2.1,2.32A5.88,5.88,0,0,1,158.51,28.62Zm0-2.11a3.05,3.05,0,0,0,1.95-.62,3.77,3.77,0,0,0,1.15-1.66,7.18,7.18,0,0,0,0-4.55A3.8,3.8,0,0,0,160.47,18a3.35,3.35,0,0,0-3.91,0,3.72,3.72,0,0,0-1.15,1.67,7,7,0,0,0,0,4.55,3.69,3.69,0,0,0,1.15,1.66A3.06,3.06,0,0,0,158.52,26.51Z"/><path class="cls-2" d="M167.32,28.36V15.45h2.42v2.1h.16a3.32,3.32,0,0,1,1.32-1.67,3.9,3.9,0,0,1,2.19-.6,3.7,3.7,0,0,1,2.17.61,3.49,3.49,0,0,1,1.3,1.66H177a3.66,3.66,0,0,1,1.47-1.65,4.57,4.57,0,0,1,2.41-.62,3.94,3.94,0,0,1,2.87,1.1,4.5,4.5,0,0,1,1.11,3.32v8.66h-2.51V19.94a2.3,2.3,0,0,0-.72-1.9,2.59,2.59,0,0,0-1.7-.59,2.44,2.44,0,0,0-1.91.75,2.79,2.79,0,0,0-.68,1.93v8.23h-2.5V19.78a2.24,2.24,0,0,0-.66-1.69,2.34,2.34,0,0,0-1.71-.64,2.43,2.43,0,0,0-1.31.37,2.86,2.86,0,0,0-1,1,3.18,3.18,0,0,0-.36,1.54v8Z"/></g></g></svg>