<svg 
 xmlns="http://www.w3.org/2000/svg"
 xmlns:xlink="http://www.w3.org/1999/xlink"
 width="166px" height="34px">
<path fill-rule="evenodd"  fill="rgb(253, 184, 4)"
 d="M10.248,0.657 L155.890,0.657 C161.413,0.657 165.890,5.134 165.890,10.657 L165.890,23.491 C165.890,29.013 161.413,33.491 155.890,33.491 L10.248,33.491 C4.725,33.491 0.248,29.013 0.248,23.491 L0.248,10.657 C0.248,5.134 4.725,0.657 10.248,0.657 Z"/>
<path fill-rule="evenodd"  fill="rgb(20, 36, 58)"
 d="M112.071,19.036 L111.349,19.036 L106.038,19.036 C106.094,19.880 106.314,20.560 106.719,21.055 C107.190,21.630 107.860,21.917 108.730,21.917 C109.316,21.917 109.825,21.783 110.257,21.515 C110.689,21.247 111.029,20.861 111.275,20.357 L112.679,20.842 C112.334,21.624 111.815,22.230 111.123,22.660 C110.431,23.089 109.655,23.304 108.796,23.304 C107.926,23.304 107.167,23.111 106.518,22.726 C105.870,22.340 105.365,21.801 105.004,21.108 C104.643,20.416 104.462,19.608 104.462,18.683 C104.462,17.714 104.640,16.876 104.996,16.167 C105.351,15.458 105.848,14.911 106.485,14.525 C107.123,14.139 107.871,13.947 108.730,13.947 C109.622,13.947 110.382,14.152 111.008,14.562 C111.635,14.973 112.105,15.558 112.420,16.319 C112.735,17.080 112.870,17.985 112.826,19.036 L112.071,19.036 ZM110.684,16.068 C110.257,15.530 109.622,15.260 108.780,15.260 C107.877,15.260 107.190,15.550 106.719,16.130 C106.366,16.565 106.145,17.143 106.057,17.862 L111.309,17.862 C111.228,17.094 111.021,16.494 110.684,16.068 ZM102.549,15.498 C102.183,15.536 101.844,15.670 101.532,15.900 C101.247,16.103 101.027,16.349 100.871,16.639 C100.715,16.929 100.607,17.242 100.547,17.579 C100.486,17.915 100.456,18.259 100.456,18.609 L100.456,23.058 L98.987,23.058 L98.987,14.193 L100.292,14.193 L100.292,15.608 C100.352,15.502 100.414,15.399 100.485,15.301 C100.652,15.071 100.839,14.882 101.047,14.735 C101.277,14.549 101.537,14.406 101.827,14.308 C102.117,14.209 102.413,14.150 102.714,14.131 C103.015,14.112 103.296,14.133 103.559,14.193 L103.559,15.564 C103.253,15.482 102.916,15.460 102.549,15.498 ZM95.187,22.709 C94.546,23.106 93.786,23.304 92.905,23.304 C92.024,23.304 91.264,23.104 90.627,22.705 C89.989,22.306 89.498,21.753 89.153,21.047 C88.809,20.341 88.636,19.531 88.636,18.617 C88.636,17.687 88.811,16.872 89.162,16.171 C89.512,15.471 90.007,14.925 90.647,14.533 C91.288,14.142 92.040,13.947 92.905,13.947 C93.791,13.947 94.555,14.145 95.195,14.542 C95.835,14.939 96.326,15.488 96.668,16.192 C97.010,16.895 97.181,17.703 97.181,18.617 C97.181,19.542 97.009,20.356 96.664,21.059 C96.319,21.762 95.827,22.312 95.187,22.709 ZM94.949,16.224 C94.494,15.631 93.813,15.334 92.905,15.334 C92.286,15.334 91.777,15.473 91.378,15.752 C90.978,16.032 90.680,16.417 90.483,16.910 C90.286,17.402 90.188,17.972 90.188,18.617 C90.188,19.613 90.417,20.412 90.877,21.014 C91.337,21.616 92.013,21.917 92.905,21.917 C93.824,21.917 94.508,21.611 94.957,20.998 C95.405,20.385 95.630,19.591 95.630,18.617 C95.630,17.616 95.403,16.818 94.949,16.224 ZM85.607,23.058 L85.616,17.386 C85.616,16.724 85.439,16.205 85.086,15.830 C84.733,15.456 84.275,15.268 83.711,15.268 C83.383,15.268 83.071,15.343 82.775,15.494 C82.480,15.644 82.239,15.880 82.053,16.200 C81.867,16.520 81.774,16.929 81.774,17.427 L81.773,17.427 L81.766,23.058 L80.313,23.058 L80.321,17.443 C80.321,16.765 80.146,16.233 79.796,15.847 C79.445,15.461 78.980,15.268 78.400,15.268 C77.826,15.268 77.361,15.465 77.005,15.859 C76.649,16.253 76.471,16.776 76.471,17.427 L76.471,23.058 L75.002,23.058 L75.002,14.193 L76.307,14.193 L76.307,15.140 C76.554,14.819 76.859,14.556 77.226,14.353 C77.697,14.093 78.231,13.963 78.827,13.963 C79.424,13.963 79.943,14.089 80.387,14.341 C80.830,14.592 81.172,14.952 81.413,15.420 C81.414,15.422 81.414,15.424 81.415,15.426 C81.684,14.970 82.046,14.613 82.505,14.357 C82.975,14.094 83.506,13.963 84.097,13.963 C85.022,13.963 85.750,14.243 86.280,14.804 C86.811,15.365 87.077,16.119 87.077,17.066 L87.068,23.058 L85.607,23.058 ZM68.115,18.617 C68.115,18.196 68.078,17.791 68.004,17.402 C67.931,17.014 67.802,16.665 67.619,16.356 C67.435,16.047 67.189,15.802 66.880,15.621 C66.571,15.441 66.181,15.350 65.710,15.350 C65.344,15.350 65.011,15.412 64.713,15.535 C64.415,15.658 64.159,15.846 63.945,16.097 C63.732,16.349 63.566,16.665 63.449,17.045 C63.331,17.426 63.272,17.873 63.272,18.387 L63.272,23.058 L61.795,23.058 L61.795,14.193 L63.108,14.193 L63.108,15.348 C63.374,14.986 63.696,14.687 64.081,14.460 C64.642,14.129 65.302,13.963 66.063,13.963 C66.638,13.963 67.127,14.053 67.532,14.234 C67.937,14.414 68.274,14.654 68.542,14.952 C68.810,15.250 69.021,15.584 69.174,15.954 C69.327,16.323 69.435,16.698 69.498,17.078 C69.561,17.459 69.593,17.818 69.593,18.158 L69.593,23.058 L68.115,23.058 L68.115,18.617 ZM59.234,15.498 C58.867,15.536 58.528,15.670 58.216,15.900 C57.931,16.103 57.711,16.349 57.555,16.639 C57.399,16.929 57.291,17.242 57.231,17.579 C57.171,17.915 57.141,18.259 57.141,18.609 L57.141,23.058 L55.671,23.058 L55.671,14.193 L56.977,14.193 L56.977,15.608 C57.036,15.502 57.098,15.399 57.169,15.301 C57.336,15.071 57.524,14.882 57.732,14.735 C57.962,14.549 58.221,14.406 58.512,14.308 C58.802,14.209 59.097,14.150 59.398,14.131 C59.699,14.112 59.981,14.133 60.244,14.193 L60.244,15.564 C59.937,15.482 59.600,15.460 59.234,15.498 ZM52.240,21.672 C51.945,22.125 51.581,22.487 51.144,22.754 C50.545,23.121 49.816,23.304 48.957,23.304 C48.295,23.304 47.741,23.182 47.295,22.939 C46.849,22.695 46.512,22.374 46.285,21.974 C46.058,21.575 45.944,21.137 45.944,20.661 C45.944,20.196 46.033,19.792 46.211,19.450 C46.389,19.108 46.639,18.824 46.962,18.597 C47.285,18.370 47.671,18.190 48.120,18.059 C48.541,17.944 49.013,17.844 49.536,17.759 C50.058,17.675 50.588,17.597 51.124,17.525 C51.470,17.480 51.776,17.437 52.092,17.393 C52.074,16.726 51.925,16.214 51.629,15.876 C51.298,15.498 50.727,15.309 49.917,15.309 C49.381,15.309 48.912,15.431 48.510,15.674 C48.107,15.918 47.824,16.313 47.660,16.861 L46.273,16.442 C46.486,15.665 46.899,15.055 47.512,14.611 C48.125,14.168 48.932,13.947 49.934,13.947 C50.738,13.947 51.429,14.090 52.006,14.378 C52.584,14.665 52.998,15.099 53.250,15.679 C53.376,15.952 53.455,16.249 53.488,16.569 C53.521,16.889 53.537,17.225 53.537,17.575 L53.537,23.058 L52.240,23.058 L52.240,21.672 ZM51.190,18.757 C50.730,18.817 50.295,18.881 49.884,18.950 C49.474,19.018 49.105,19.099 48.776,19.192 C48.535,19.268 48.310,19.367 48.099,19.487 C47.888,19.608 47.719,19.762 47.590,19.951 C47.462,20.140 47.397,20.374 47.397,20.653 C47.397,20.894 47.459,21.124 47.582,21.342 C47.705,21.561 47.897,21.739 48.157,21.876 C48.416,22.013 48.757,22.081 49.179,22.081 C49.704,22.081 50.159,21.987 50.545,21.798 C50.931,21.609 51.242,21.360 51.477,21.051 C51.712,20.742 51.865,20.404 51.937,20.037 C52.019,19.764 52.064,19.459 52.072,19.122 C52.077,18.935 52.080,18.775 52.082,18.637 C51.783,18.677 51.482,18.718 51.190,18.757 ZM43.301,19.036 L37.990,19.036 C38.046,19.880 38.266,20.560 38.672,21.055 C39.142,21.630 39.813,21.917 40.683,21.917 C41.268,21.917 41.777,21.783 42.209,21.515 C42.642,21.247 42.981,20.861 43.227,20.357 L44.631,20.842 C44.286,21.624 43.768,22.230 43.075,22.660 C42.383,23.089 41.607,23.304 40.748,23.304 C39.878,23.304 39.119,23.111 38.471,22.726 C37.822,22.340 37.317,21.801 36.956,21.108 C36.595,20.416 36.414,19.608 36.414,18.683 C36.414,17.714 36.592,16.876 36.948,16.167 C37.304,15.458 37.800,14.911 38.438,14.525 C39.075,14.139 39.823,13.947 40.683,13.947 C41.575,13.947 42.334,14.152 42.961,14.562 C43.587,14.973 44.058,15.558 44.372,16.319 C44.687,17.080 44.822,17.985 44.779,19.036 L44.024,19.036 L43.301,19.036 ZM42.636,16.068 C42.209,15.530 41.575,15.260 40.732,15.260 C39.829,15.260 39.142,15.550 38.672,16.130 C38.318,16.565 38.098,17.143 38.010,17.862 L43.261,17.862 C43.180,17.094 42.973,16.494 42.636,16.068 ZM28.567,11.238 L30.028,11.238 L30.028,21.671 L35.512,21.671 L35.512,23.058 L28.567,23.058 L28.567,11.238 Z"/>
</svg>