<svg xmlns="http://www.w3.org/2000/svg" width="94.25" height="11.656" viewBox="0 0 94.25 11.656">
  <defs>
    <style>
      .cls-1 {
        fill: #fff;
        fill-rule: evenodd;
      }
    </style>
  </defs>
  <path id="ownmyisrael.com" class="cls-1" d="M530.55,504.964a2.788,2.788,0,0,0,1.05-1.2,4.52,4.52,0,0,0,0-3.547,2.794,2.794,0,0,0-1.044-1.2,3.339,3.339,0,0,0-3.278-.006,2.81,2.81,0,0,0-1.054,1.191,4.044,4.044,0,0,0-.37,1.779,4.1,4.1,0,0,0,.364,1.767,2.832,2.832,0,0,0,1.045,1.205,2.978,2.978,0,0,0,1.642.436A3.028,3.028,0,0,0,530.55,504.964Zm-3.224-1.113a2.989,2.989,0,0,1-.537-1.865,3.572,3.572,0,0,1,.229-1.329,1.943,1.943,0,0,1,.7-0.9,2.039,2.039,0,0,1,1.191-.326,1.881,1.881,0,0,1,1.6.693,3,3,0,0,1,.528,1.863,3.047,3.047,0,0,1-.525,1.853A2.142,2.142,0,0,1,527.326,503.851Zm7.85,1.364,1.606-5.134,1.612,5.134h0.764l1.97-6.447h-0.872l-1.54,5.008-1.534-5.008h-0.8l-1.534,5.008-1.528-5.008-0.878-.006,1.97,6.453h0.764Zm12.566,0v-3.546a4.634,4.634,0,0,0-.083-0.874,3.4,3.4,0,0,0-.269-0.83,2.491,2.491,0,0,0-.486-0.7,2.2,2.2,0,0,0-.735-0.483,2.616,2.616,0,0,0-1.011-.179,2.773,2.773,0,0,0-1.4.346,2.4,2.4,0,0,0-.956,1.021,3.628,3.628,0,0,0-.346,1.665l0.621,0.138a3.514,3.514,0,0,1,.125-0.979,2.083,2.083,0,0,1,.368-0.732,1.594,1.594,0,0,1,.6-0.462,1.954,1.954,0,0,1,.82-0.162,1.853,1.853,0,0,1,.863.185,1.54,1.54,0,0,1,.579.523,2.328,2.328,0,0,1,.325.788,4.476,4.476,0,0,1,.1.988v3.289h0.883Zm-4.662,0v-4.859h-0.09v-1.588H542.2v6.447h0.883Zm14.781,0,0.006-4.4a2.221,2.221,0,0,0-.585-1.62,2.076,2.076,0,0,0-1.558-.6,2.3,2.3,0,0,0-1.155.289,2.074,2.074,0,0,0-.8.809,2.32,2.32,0,0,0-.272,1.212l0.52,0.149a1.853,1.853,0,0,1,.223-0.967,1.353,1.353,0,0,1,.571-0.537,1.6,1.6,0,0,1,.71-0.167,1.406,1.406,0,0,1,1.054.427,1.612,1.612,0,0,1,.415,1.173l-0.006,4.232h0.877Zm-7.689,0v-4.859h-0.1v-1.588h-0.788v6.447h0.883Zm3.839,0,0.006-4.376a2.508,2.508,0,0,0-.275-1.218,1.883,1.883,0,0,0-.755-0.764,2.251,2.251,0,0,0-1.1-.262,2.322,2.322,0,0,0-1.152.283,2.115,2.115,0,0,0-.8.776,2.142,2.142,0,0,0-.292,1.114l0.525,0.286a1.745,1.745,0,0,1,.412-1.215,1.519,1.519,0,0,1,2.158-.012,1.726,1.726,0,0,1,.409,1.215l-0.006,4.173h0.866Zm6.966,2.866,3.463-9.313h-0.9l-2.137,5.8h0.382l-2.316-5.8h-0.931l2.823,6.931-0.017-1-1.248,3.385h0.877Zm5.5-10.537v-0.985H565.6v0.985h0.878Zm0,7.671v-6.447H565.6v6.447h0.878Zm6.062-.349a1.715,1.715,0,0,0,.677-1.436,1.543,1.543,0,0,0-.215-0.842,1.741,1.741,0,0,0-.722-0.591,7.359,7.359,0,0,0-1.4-.477,10.157,10.157,0,0,1-1.167-.352,1.432,1.432,0,0,1-.564-0.344,0.648,0.648,0,0,1-.155-0.438,0.844,0.844,0,0,1,.429-0.738,1.933,1.933,0,0,1,1.117-.259,2.118,2.118,0,0,1,1.2.343,1.3,1.3,0,0,1,.564.9l0.895-.161a1.837,1.837,0,0,0-.418-0.985,2.321,2.321,0,0,0-.928-0.659,3.4,3.4,0,0,0-1.3-.236,3.276,3.276,0,0,0-1.278.23,2.01,2.01,0,0,0-.859.644,1.566,1.566,0,0,0-.311.964,1.356,1.356,0,0,0,.209.768,1.715,1.715,0,0,0,.705.552,8.3,8.3,0,0,0,1.373.477q0.817,0.222,1.229.382a1.212,1.212,0,0,1,.547.35,0.819,0.819,0,0,1,.134.486,0.981,0.981,0,0,1-.424.839,1.938,1.938,0,0,1-1.158.307,2.3,2.3,0,0,1-1.263-.325,1.442,1.442,0,0,1-.653-0.875l-0.9.15a2.04,2.04,0,0,0,.9,1.361,3.288,3.288,0,0,0,1.865.489A2.99,2.99,0,0,0,572.538,504.866Zm2.874,0.349V502a5.656,5.656,0,0,1,.054-0.773,2.6,2.6,0,0,1,.215-0.74,1.6,1.6,0,0,1,.483-0.6,1.471,1.471,0,0,1,.77-0.334,2.123,2.123,0,0,1,.771.042v-0.824a2,2,0,0,0-.621-0.051,2.54,2.54,0,0,0-.675.137,1.733,1.733,0,0,0-.585.338,1.816,1.816,0,0,0-.376.4,2.262,2.262,0,0,0-.281.528l0.156,0.2v-1.552h-0.788v6.447h0.877Zm6.692-.257a2.552,2.552,0,0,0,1.021-1.265l-0.227-.1v1.618h0.782v-4.006a6.813,6.813,0,0,0-.036-0.7,2.12,2.12,0,0,0-.155-0.627,1.862,1.862,0,0,0-.874-0.958,3.142,3.142,0,0,0-1.5-.331,2.925,2.925,0,0,0-1.737.477,2.279,2.279,0,0,0-.889,1.344l0.853,0.25a1.6,1.6,0,0,1,.642-0.943,2,2,0,0,1,1.119-.3,1.687,1.687,0,0,1,1.349.459,2.1,2.1,0,0,1,.371,1.415l0.31-.191q-0.43.066-1,.134t-1.164.162q-0.594.091-1.084,0.211a2.862,2.862,0,0,0-.85.365,1.753,1.753,0,0,0-.579.611,1.787,1.787,0,0,0-.212.9,1.9,1.9,0,0,0,.245.949,1.769,1.769,0,0,0,.737.7,2.571,2.571,0,0,0,1.221.262A3.046,3.046,0,0,0,582.1,504.958Zm-2.391-.5a1.086,1.086,0,0,1-.453-0.436,1.133,1.133,0,0,1-.141-0.543,0.975,0.975,0,0,1,.165-0.579,1.218,1.218,0,0,1,.42-0.373,2.546,2.546,0,0,1,.532-0.218,8.763,8.763,0,0,1,.91-0.185c0.336-.052.679-0.1,1.027-0.138s0.671-.079.97-0.119l-0.334-.173q0,0.185-.006.558a3.263,3.263,0,0,1-.078.684,2.045,2.045,0,0,1-.364.868,1.929,1.929,0,0,1-.74.606,2.448,2.448,0,0,1-1.075.221A1.728,1.728,0,0,1,579.713,504.463Zm9.928,0.469a2.91,2.91,0,0,0,1.125-1.305l-0.818-.316a2.2,2.2,0,0,1-.814.922,2.255,2.255,0,0,1-1.209.32,1.913,1.913,0,0,1-1.567-.672,2.9,2.9,0,0,1-.553-1.89,2.958,2.958,0,0,1,.553-1.922,1.939,1.939,0,0,1,1.591-.674,1.826,1.826,0,0,1,1.507.638,3.061,3.061,0,0,1,.54,1.893v0.31h0.9a4.664,4.664,0,0,0-.317-1.952,2.718,2.718,0,0,0-1.021-1.257,2.926,2.926,0,0,0-1.629-.438,3.032,3.032,0,0,0-1.615.418,2.782,2.782,0,0,0-1.06,1.188,4.129,4.129,0,0,0-.376,1.826,3.9,3.9,0,0,0,.382,1.779,2.823,2.823,0,0,0,1.072,1.176,3.085,3.085,0,0,0,1.633.418A3.117,3.117,0,0,0,589.641,504.932Zm0.779-2.7V501.5H585.5v0.734h4.925Zm2.788,2.979V496.44H592.33v8.775h0.878Zm2.979,0v-1.021h-1.021v1.021h1.021Zm6.166-.271a2.8,2.8,0,0,0,1.051-1.311l-0.883-.262a1.869,1.869,0,0,1-.7.88,2.005,2.005,0,0,1-1.119.3,1.829,1.829,0,0,1-1.564-.7,3.078,3.078,0,0,1-.538-1.86,3.719,3.719,0,0,1,.233-1.331,1.924,1.924,0,0,1,.693-0.9,2.21,2.21,0,0,1,2.3-.006,1.837,1.837,0,0,1,.719.9l0.86-.274a2.412,2.412,0,0,0-.994-1.308,3.03,3.03,0,0,0-1.7-.477,3,3,0,0,0-1.636.427,2.748,2.748,0,0,0-1.033,1.194,4.286,4.286,0,0,0-.37,1.781,4.348,4.348,0,0,0,.361,1.765,2.751,2.751,0,0,0,1.024,1.2A3.3,3.3,0,0,0,602.353,504.944Zm6.436,0.02a2.781,2.781,0,0,0,1.05-1.2,4.508,4.508,0,0,0,0-3.547,2.788,2.788,0,0,0-1.044-1.2,3.339,3.339,0,0,0-3.278-.006,2.807,2.807,0,0,0-1.053,1.191,4.03,4.03,0,0,0-.37,1.779,4.088,4.088,0,0,0,.364,1.767,2.83,2.83,0,0,0,1.044,1.205,2.978,2.978,0,0,0,1.642.436A3.028,3.028,0,0,0,608.789,504.964Zm-3.224-1.113a2.989,2.989,0,0,1-.537-1.865,3.552,3.552,0,0,1,.23-1.329,1.941,1.941,0,0,1,.7-0.9,2.039,2.039,0,0,1,1.191-.326,1.881,1.881,0,0,1,1.6.693,3,3,0,0,1,.528,1.863,3.047,3.047,0,0,1-.525,1.853A2.142,2.142,0,0,1,605.565,503.851Zm14.518,1.364,0.006-4.4a2.221,2.221,0,0,0-.585-1.62,2.076,2.076,0,0,0-1.558-.6,2.3,2.3,0,0,0-1.155.289,2.074,2.074,0,0,0-.8.809,2.32,2.32,0,0,0-.271,1.212l0.519,0.149a1.853,1.853,0,0,1,.224-0.967,1.345,1.345,0,0,1,.57-0.537,1.61,1.61,0,0,1,.71-0.167,1.406,1.406,0,0,1,1.054.427,1.608,1.608,0,0,1,.415,1.173l-0.006,4.232h0.877Zm-7.689,0v-4.859h-0.1v-1.588h-0.788v6.447h0.883Zm3.839,0,0.006-4.376a2.508,2.508,0,0,0-.275-1.218,1.883,1.883,0,0,0-.755-0.764,2.244,2.244,0,0,0-1.095-.262,2.319,2.319,0,0,0-1.152.283,2.107,2.107,0,0,0-.8.776,2.143,2.143,0,0,0-.293,1.114l0.525,0.286a1.75,1.75,0,0,1,.412-1.215,1.519,1.519,0,0,1,2.158-.012,1.726,1.726,0,0,1,.409,1.215l-0.006,4.173h0.866Z" transform="translate(-525.844 -496.438)"/>
</svg>
